<?xml version="1.0" encoding="UTF-8"?>
<!DOCTYPE svg PUBLIC "-//W3C//DTD SVG 1.1//EN" "http://www.w3.org/Graphics/SVG/1.1/DTD/svg11.dtd">
<svg width="236mm" height="250mm" viewBox="0 0 23600 25000" version="1.1" xmlns="http://www.w3.org/2000/svg" xmlns:xlink="http://www.w3.org/1999/xlink" stroke-width="28.222" stroke-linejoin="round" xml:space="preserve">
 <path fill="rgb(255,255,255)" stroke="none" d="M 11800,25000 L 0,25000 0,0 23600,0 23600,25000 11800,25000 Z"/>
 <path fill="none" stroke="rgb(179,179,179)" stroke-linejoin="round" d="M 9984,23488 L 1370,23488 1370,1630 18598,1630 18598,23488 9984,23488 Z"/>
 <path fill="none" stroke="rgb(179,179,179)" stroke-linejoin="round" d="M 18597,23487 L 1369,23487"/>
 <path fill="none" stroke="rgb(179,179,179)" stroke-linejoin="round" d="M 18597,21301 L 1369,21301"/>
 <path fill="none" stroke="rgb(179,179,179)" stroke-linejoin="round" d="M 18597,19115 L 1369,19115"/>
 <path fill="none" stroke="rgb(179,179,179)" stroke-linejoin="round" d="M 18597,16929 L 1369,16929"/>
 <path fill="none" stroke="rgb(179,179,179)" stroke-linejoin="round" d="M 18597,14743 L 1369,14743"/>
 <path fill="none" stroke="rgb(179,179,179)" stroke-linejoin="round" d="M 18597,12557 L 1369,12557"/>
 <path fill="none" stroke="rgb(179,179,179)" stroke-linejoin="round" d="M 18597,10372 L 1369,10372"/>
 <path fill="none" stroke="rgb(179,179,179)" stroke-linejoin="round" d="M 18597,8186 L 1369,8186"/>
 <path fill="none" stroke="rgb(179,179,179)" stroke-linejoin="round" d="M 18597,6000 L 1369,6000"/>
 <path fill="none" stroke="rgb(179,179,179)" stroke-linejoin="round" d="M 18597,3814 L 1369,3814"/>
 <path fill="none" stroke="rgb(179,179,179)" stroke-linejoin="round" d="M 18597,1629 L 1369,1629"/>
 <path fill="none" stroke="rgb(179,179,179)" stroke-linejoin="round" d="M 1369,23637 L 1369,23487"/>
 <path fill="none" stroke="rgb(179,179,179)" stroke-linejoin="round" d="M 1369,23637 L 1369,23487"/>
 <path fill="none" stroke="rgb(179,179,179)" stroke-linejoin="round" d="M 1493,23637 L 1493,23487"/>
 <path fill="none" stroke="rgb(179,179,179)" stroke-linejoin="round" d="M 1493,23637 L 1493,23487"/>
 <path fill="none" stroke="rgb(179,179,179)" stroke-linejoin="round" d="M 1617,23637 L 1617,23487"/>
 <path fill="none" stroke="rgb(179,179,179)" stroke-linejoin="round" d="M 1617,23637 L 1617,23487"/>
 <path fill="none" stroke="rgb(179,179,179)" stroke-linejoin="round" d="M 1741,23637 L 1741,23487"/>
 <path fill="none" stroke="rgb(179,179,179)" stroke-linejoin="round" d="M 1741,23637 L 1741,23487"/>
 <path fill="none" stroke="rgb(179,179,179)" stroke-linejoin="round" d="M 1865,23637 L 1865,23487"/>
 <path fill="none" stroke="rgb(179,179,179)" stroke-linejoin="round" d="M 1865,23637 L 1865,23487"/>
 <path fill="none" stroke="rgb(179,179,179)" stroke-linejoin="round" d="M 1989,23637 L 1989,23487"/>
 <path fill="none" stroke="rgb(179,179,179)" stroke-linejoin="round" d="M 1989,23637 L 1989,23487"/>
 <path fill="none" stroke="rgb(179,179,179)" stroke-linejoin="round" d="M 2113,23637 L 2113,23487"/>
 <path fill="none" stroke="rgb(179,179,179)" stroke-linejoin="round" d="M 2113,23637 L 2113,23487"/>
 <path fill="none" stroke="rgb(179,179,179)" stroke-linejoin="round" d="M 2237,23637 L 2237,23487"/>
 <path fill="none" stroke="rgb(179,179,179)" stroke-linejoin="round" d="M 2237,23637 L 2237,23487"/>
 <path fill="none" stroke="rgb(179,179,179)" stroke-linejoin="round" d="M 2361,23637 L 2361,23487"/>
 <path fill="none" stroke="rgb(179,179,179)" stroke-linejoin="round" d="M 2361,23637 L 2361,23487"/>
 <path fill="none" stroke="rgb(179,179,179)" stroke-linejoin="round" d="M 2485,23637 L 2485,23487"/>
 <path fill="none" stroke="rgb(179,179,179)" stroke-linejoin="round" d="M 2485,23637 L 2485,23487"/>
 <path fill="none" stroke="rgb(179,179,179)" stroke-linejoin="round" d="M 2609,23637 L 2609,23487"/>
 <path fill="none" stroke="rgb(179,179,179)" stroke-linejoin="round" d="M 2609,23637 L 2609,23487"/>
 <path fill="none" stroke="rgb(179,179,179)" stroke-linejoin="round" d="M 2733,23637 L 2733,23487"/>
 <path fill="none" stroke="rgb(179,179,179)" stroke-linejoin="round" d="M 2733,23637 L 2733,23487"/>
 <path fill="none" stroke="rgb(179,179,179)" stroke-linejoin="round" d="M 2857,23637 L 2857,23487"/>
 <path fill="none" stroke="rgb(179,179,179)" stroke-linejoin="round" d="M 2857,23637 L 2857,23487"/>
 <path fill="none" stroke="rgb(179,179,179)" stroke-linejoin="round" d="M 2981,23637 L 2981,23487"/>
 <path fill="none" stroke="rgb(179,179,179)" stroke-linejoin="round" d="M 2981,23637 L 2981,23487"/>
 <path fill="none" stroke="rgb(179,179,179)" stroke-linejoin="round" d="M 3105,23637 L 3105,23487"/>
 <path fill="none" stroke="rgb(179,179,179)" stroke-linejoin="round" d="M 3105,23637 L 3105,23487"/>
 <path fill="none" stroke="rgb(179,179,179)" stroke-linejoin="round" d="M 3229,23637 L 3229,23487"/>
 <path fill="none" stroke="rgb(179,179,179)" stroke-linejoin="round" d="M 3229,23637 L 3229,23487"/>
 <path fill="none" stroke="rgb(179,179,179)" stroke-linejoin="round" d="M 3353,23637 L 3353,23487"/>
 <path fill="none" stroke="rgb(179,179,179)" stroke-linejoin="round" d="M 3353,23637 L 3353,23487"/>
 <path fill="none" stroke="rgb(179,179,179)" stroke-linejoin="round" d="M 3477,23637 L 3477,23487"/>
 <path fill="none" stroke="rgb(179,179,179)" stroke-linejoin="round" d="M 3477,23637 L 3477,23487"/>
 <path fill="none" stroke="rgb(179,179,179)" stroke-linejoin="round" d="M 3601,23637 L 3601,23487"/>
 <path fill="none" stroke="rgb(179,179,179)" stroke-linejoin="round" d="M 3601,23637 L 3601,23487"/>
 <path fill="none" stroke="rgb(179,179,179)" stroke-linejoin="round" d="M 3725,23637 L 3725,23487"/>
 <path fill="none" stroke="rgb(179,179,179)" stroke-linejoin="round" d="M 3725,23637 L 3725,23487"/>
 <path fill="none" stroke="rgb(179,179,179)" stroke-linejoin="round" d="M 3848,23637 L 3848,23487"/>
 <path fill="none" stroke="rgb(179,179,179)" stroke-linejoin="round" d="M 3848,23637 L 3848,23487"/>
 <path fill="none" stroke="rgb(179,179,179)" stroke-linejoin="round" d="M 3972,23637 L 3972,23487"/>
 <path fill="none" stroke="rgb(179,179,179)" stroke-linejoin="round" d="M 3972,23637 L 3972,23487"/>
 <path fill="none" stroke="rgb(179,179,179)" stroke-linejoin="round" d="M 4096,23637 L 4096,23487"/>
 <path fill="none" stroke="rgb(179,179,179)" stroke-linejoin="round" d="M 4096,23637 L 4096,23487"/>
 <path fill="none" stroke="rgb(179,179,179)" stroke-linejoin="round" d="M 4220,23637 L 4220,23487"/>
 <path fill="none" stroke="rgb(179,179,179)" stroke-linejoin="round" d="M 4220,23637 L 4220,23487"/>
 <path fill="none" stroke="rgb(179,179,179)" stroke-linejoin="round" d="M 4344,23637 L 4344,23487"/>
 <path fill="none" stroke="rgb(179,179,179)" stroke-linejoin="round" d="M 4344,23637 L 4344,23487"/>
 <path fill="none" stroke="rgb(179,179,179)" stroke-linejoin="round" d="M 4468,23637 L 4468,23487"/>
 <path fill="none" stroke="rgb(179,179,179)" stroke-linejoin="round" d="M 4468,23637 L 4468,23487"/>
 <path fill="none" stroke="rgb(179,179,179)" stroke-linejoin="round" d="M 4592,23637 L 4592,23487"/>
 <path fill="none" stroke="rgb(179,179,179)" stroke-linejoin="round" d="M 4592,23637 L 4592,23487"/>
 <path fill="none" stroke="rgb(179,179,179)" stroke-linejoin="round" d="M 4716,23637 L 4716,23487"/>
 <path fill="none" stroke="rgb(179,179,179)" stroke-linejoin="round" d="M 4716,23637 L 4716,23487"/>
 <path fill="none" stroke="rgb(179,179,179)" stroke-linejoin="round" d="M 4840,23637 L 4840,23487"/>
 <path fill="none" stroke="rgb(179,179,179)" stroke-linejoin="round" d="M 4840,23637 L 4840,23487"/>
 <path fill="none" stroke="rgb(179,179,179)" stroke-linejoin="round" d="M 4964,23637 L 4964,23487"/>
 <path fill="none" stroke="rgb(179,179,179)" stroke-linejoin="round" d="M 4964,23637 L 4964,23487"/>
 <path fill="none" stroke="rgb(179,179,179)" stroke-linejoin="round" d="M 5088,23637 L 5088,23487"/>
 <path fill="none" stroke="rgb(179,179,179)" stroke-linejoin="round" d="M 5088,23637 L 5088,23487"/>
 <path fill="none" stroke="rgb(179,179,179)" stroke-linejoin="round" d="M 5212,23637 L 5212,23487"/>
 <path fill="none" stroke="rgb(179,179,179)" stroke-linejoin="round" d="M 5212,23637 L 5212,23487"/>
 <path fill="none" stroke="rgb(179,179,179)" stroke-linejoin="round" d="M 5336,23637 L 5336,23487"/>
 <path fill="none" stroke="rgb(179,179,179)" stroke-linejoin="round" d="M 5336,23637 L 5336,23487"/>
 <path fill="none" stroke="rgb(179,179,179)" stroke-linejoin="round" d="M 5460,23637 L 5460,23487"/>
 <path fill="none" stroke="rgb(179,179,179)" stroke-linejoin="round" d="M 5460,23637 L 5460,23487"/>
 <path fill="none" stroke="rgb(179,179,179)" stroke-linejoin="round" d="M 5584,23637 L 5584,23487"/>
 <path fill="none" stroke="rgb(179,179,179)" stroke-linejoin="round" d="M 5584,23637 L 5584,23487"/>
 <path fill="none" stroke="rgb(179,179,179)" stroke-linejoin="round" d="M 5708,23637 L 5708,23487"/>
 <path fill="none" stroke="rgb(179,179,179)" stroke-linejoin="round" d="M 5708,23637 L 5708,23487"/>
 <path fill="none" stroke="rgb(179,179,179)" stroke-linejoin="round" d="M 5832,23637 L 5832,23487"/>
 <path fill="none" stroke="rgb(179,179,179)" stroke-linejoin="round" d="M 5832,23637 L 5832,23487"/>
 <path fill="none" stroke="rgb(179,179,179)" stroke-linejoin="round" d="M 5956,23637 L 5956,23487"/>
 <path fill="none" stroke="rgb(179,179,179)" stroke-linejoin="round" d="M 5956,23637 L 5956,23487"/>
 <path fill="none" stroke="rgb(179,179,179)" stroke-linejoin="round" d="M 6080,23637 L 6080,23487"/>
 <path fill="none" stroke="rgb(179,179,179)" stroke-linejoin="round" d="M 6080,23637 L 6080,23487"/>
 <path fill="none" stroke="rgb(179,179,179)" stroke-linejoin="round" d="M 6204,23637 L 6204,23487"/>
 <path fill="none" stroke="rgb(179,179,179)" stroke-linejoin="round" d="M 6204,23637 L 6204,23487"/>
 <path fill="none" stroke="rgb(179,179,179)" stroke-linejoin="round" d="M 6327,23637 L 6327,23487"/>
 <path fill="none" stroke="rgb(179,179,179)" stroke-linejoin="round" d="M 6327,23637 L 6327,23487"/>
 <path fill="none" stroke="rgb(179,179,179)" stroke-linejoin="round" d="M 6451,23637 L 6451,23487"/>
 <path fill="none" stroke="rgb(179,179,179)" stroke-linejoin="round" d="M 6451,23637 L 6451,23487"/>
 <path fill="none" stroke="rgb(179,179,179)" stroke-linejoin="round" d="M 6575,23637 L 6575,23487"/>
 <path fill="none" stroke="rgb(179,179,179)" stroke-linejoin="round" d="M 6575,23637 L 6575,23487"/>
 <path fill="none" stroke="rgb(179,179,179)" stroke-linejoin="round" d="M 6699,23637 L 6699,23487"/>
 <path fill="none" stroke="rgb(179,179,179)" stroke-linejoin="round" d="M 6699,23637 L 6699,23487"/>
 <path fill="none" stroke="rgb(179,179,179)" stroke-linejoin="round" d="M 6823,23637 L 6823,23487"/>
 <path fill="none" stroke="rgb(179,179,179)" stroke-linejoin="round" d="M 6823,23637 L 6823,23487"/>
 <path fill="none" stroke="rgb(179,179,179)" stroke-linejoin="round" d="M 6947,23637 L 6947,23487"/>
 <path fill="none" stroke="rgb(179,179,179)" stroke-linejoin="round" d="M 6947,23637 L 6947,23487"/>
 <path fill="none" stroke="rgb(179,179,179)" stroke-linejoin="round" d="M 7071,23637 L 7071,23487"/>
 <path fill="none" stroke="rgb(179,179,179)" stroke-linejoin="round" d="M 7071,23637 L 7071,23487"/>
 <path fill="none" stroke="rgb(179,179,179)" stroke-linejoin="round" d="M 7195,23637 L 7195,23487"/>
 <path fill="none" stroke="rgb(179,179,179)" stroke-linejoin="round" d="M 7195,23637 L 7195,23487"/>
 <path fill="none" stroke="rgb(179,179,179)" stroke-linejoin="round" d="M 7319,23637 L 7319,23487"/>
 <path fill="none" stroke="rgb(179,179,179)" stroke-linejoin="round" d="M 7319,23637 L 7319,23487"/>
 <path fill="none" stroke="rgb(179,179,179)" stroke-linejoin="round" d="M 7443,23637 L 7443,23487"/>
 <path fill="none" stroke="rgb(179,179,179)" stroke-linejoin="round" d="M 7443,23637 L 7443,23487"/>
 <path fill="none" stroke="rgb(179,179,179)" stroke-linejoin="round" d="M 7567,23637 L 7567,23487"/>
 <path fill="none" stroke="rgb(179,179,179)" stroke-linejoin="round" d="M 7567,23637 L 7567,23487"/>
 <path fill="none" stroke="rgb(179,179,179)" stroke-linejoin="round" d="M 7691,23637 L 7691,23487"/>
 <path fill="none" stroke="rgb(179,179,179)" stroke-linejoin="round" d="M 7691,23637 L 7691,23487"/>
 <path fill="none" stroke="rgb(179,179,179)" stroke-linejoin="round" d="M 7815,23637 L 7815,23487"/>
 <path fill="none" stroke="rgb(179,179,179)" stroke-linejoin="round" d="M 7815,23637 L 7815,23487"/>
 <path fill="none" stroke="rgb(179,179,179)" stroke-linejoin="round" d="M 7939,23637 L 7939,23487"/>
 <path fill="none" stroke="rgb(179,179,179)" stroke-linejoin="round" d="M 7939,23637 L 7939,23487"/>
 <path fill="none" stroke="rgb(179,179,179)" stroke-linejoin="round" d="M 8063,23637 L 8063,23487"/>
 <path fill="none" stroke="rgb(179,179,179)" stroke-linejoin="round" d="M 8063,23637 L 8063,23487"/>
 <path fill="none" stroke="rgb(179,179,179)" stroke-linejoin="round" d="M 8187,23637 L 8187,23487"/>
 <path fill="none" stroke="rgb(179,179,179)" stroke-linejoin="round" d="M 8187,23637 L 8187,23487"/>
 <path fill="none" stroke="rgb(179,179,179)" stroke-linejoin="round" d="M 8311,23637 L 8311,23487"/>
 <path fill="none" stroke="rgb(179,179,179)" stroke-linejoin="round" d="M 8311,23637 L 8311,23487"/>
 <path fill="none" stroke="rgb(179,179,179)" stroke-linejoin="round" d="M 8435,23637 L 8435,23487"/>
 <path fill="none" stroke="rgb(179,179,179)" stroke-linejoin="round" d="M 8435,23637 L 8435,23487"/>
 <path fill="none" stroke="rgb(179,179,179)" stroke-linejoin="round" d="M 8559,23637 L 8559,23487"/>
 <path fill="none" stroke="rgb(179,179,179)" stroke-linejoin="round" d="M 8559,23637 L 8559,23487"/>
 <path fill="none" stroke="rgb(179,179,179)" stroke-linejoin="round" d="M 8683,23637 L 8683,23487"/>
 <path fill="none" stroke="rgb(179,179,179)" stroke-linejoin="round" d="M 8683,23637 L 8683,23487"/>
 <path fill="none" stroke="rgb(179,179,179)" stroke-linejoin="round" d="M 8806,23637 L 8806,23487"/>
 <path fill="none" stroke="rgb(179,179,179)" stroke-linejoin="round" d="M 8806,23637 L 8806,23487"/>
 <path fill="none" stroke="rgb(179,179,179)" stroke-linejoin="round" d="M 8930,23637 L 8930,23487"/>
 <path fill="none" stroke="rgb(179,179,179)" stroke-linejoin="round" d="M 8930,23637 L 8930,23487"/>
 <path fill="none" stroke="rgb(179,179,179)" stroke-linejoin="round" d="M 9054,23637 L 9054,23487"/>
 <path fill="none" stroke="rgb(179,179,179)" stroke-linejoin="round" d="M 9054,23637 L 9054,23487"/>
 <path fill="none" stroke="rgb(179,179,179)" stroke-linejoin="round" d="M 9178,23637 L 9178,23487"/>
 <path fill="none" stroke="rgb(179,179,179)" stroke-linejoin="round" d="M 9178,23637 L 9178,23487"/>
 <path fill="none" stroke="rgb(179,179,179)" stroke-linejoin="round" d="M 9302,23637 L 9302,23487"/>
 <path fill="none" stroke="rgb(179,179,179)" stroke-linejoin="round" d="M 9302,23637 L 9302,23487"/>
 <path fill="none" stroke="rgb(179,179,179)" stroke-linejoin="round" d="M 9426,23637 L 9426,23487"/>
 <path fill="none" stroke="rgb(179,179,179)" stroke-linejoin="round" d="M 9426,23637 L 9426,23487"/>
 <path fill="none" stroke="rgb(179,179,179)" stroke-linejoin="round" d="M 9550,23637 L 9550,23487"/>
 <path fill="none" stroke="rgb(179,179,179)" stroke-linejoin="round" d="M 9550,23637 L 9550,23487"/>
 <path fill="none" stroke="rgb(179,179,179)" stroke-linejoin="round" d="M 9674,23637 L 9674,23487"/>
 <path fill="none" stroke="rgb(179,179,179)" stroke-linejoin="round" d="M 9674,23637 L 9674,23487"/>
 <path fill="none" stroke="rgb(179,179,179)" stroke-linejoin="round" d="M 9798,23637 L 9798,23487"/>
 <path fill="none" stroke="rgb(179,179,179)" stroke-linejoin="round" d="M 9798,23637 L 9798,23487"/>
 <path fill="none" stroke="rgb(179,179,179)" stroke-linejoin="round" d="M 9922,23637 L 9922,23487"/>
 <path fill="none" stroke="rgb(179,179,179)" stroke-linejoin="round" d="M 9922,23637 L 9922,23487"/>
 <path fill="none" stroke="rgb(179,179,179)" stroke-linejoin="round" d="M 10046,23637 L 10046,23487"/>
 <path fill="none" stroke="rgb(179,179,179)" stroke-linejoin="round" d="M 10046,23637 L 10046,23487"/>
 <path fill="none" stroke="rgb(179,179,179)" stroke-linejoin="round" d="M 10170,23637 L 10170,23487"/>
 <path fill="none" stroke="rgb(179,179,179)" stroke-linejoin="round" d="M 10170,23637 L 10170,23487"/>
 <path fill="none" stroke="rgb(179,179,179)" stroke-linejoin="round" d="M 10294,23637 L 10294,23487"/>
 <path fill="none" stroke="rgb(179,179,179)" stroke-linejoin="round" d="M 10294,23637 L 10294,23487"/>
 <path fill="none" stroke="rgb(179,179,179)" stroke-linejoin="round" d="M 10418,23637 L 10418,23487"/>
 <path fill="none" stroke="rgb(179,179,179)" stroke-linejoin="round" d="M 10418,23637 L 10418,23487"/>
 <path fill="none" stroke="rgb(179,179,179)" stroke-linejoin="round" d="M 10542,23637 L 10542,23487"/>
 <path fill="none" stroke="rgb(179,179,179)" stroke-linejoin="round" d="M 10542,23637 L 10542,23487"/>
 <path fill="none" stroke="rgb(179,179,179)" stroke-linejoin="round" d="M 10666,23637 L 10666,23487"/>
 <path fill="none" stroke="rgb(179,179,179)" stroke-linejoin="round" d="M 10666,23637 L 10666,23487"/>
 <path fill="none" stroke="rgb(179,179,179)" stroke-linejoin="round" d="M 10790,23637 L 10790,23487"/>
 <path fill="none" stroke="rgb(179,179,179)" stroke-linejoin="round" d="M 10790,23637 L 10790,23487"/>
 <path fill="none" stroke="rgb(179,179,179)" stroke-linejoin="round" d="M 10914,23637 L 10914,23487"/>
 <path fill="none" stroke="rgb(179,179,179)" stroke-linejoin="round" d="M 10914,23637 L 10914,23487"/>
 <path fill="none" stroke="rgb(179,179,179)" stroke-linejoin="round" d="M 11038,23637 L 11038,23487"/>
 <path fill="none" stroke="rgb(179,179,179)" stroke-linejoin="round" d="M 11038,23637 L 11038,23487"/>
 <path fill="none" stroke="rgb(179,179,179)" stroke-linejoin="round" d="M 11162,23637 L 11162,23487"/>
 <path fill="none" stroke="rgb(179,179,179)" stroke-linejoin="round" d="M 11162,23637 L 11162,23487"/>
 <path fill="none" stroke="rgb(179,179,179)" stroke-linejoin="round" d="M 11285,23637 L 11285,23487"/>
 <path fill="none" stroke="rgb(179,179,179)" stroke-linejoin="round" d="M 11285,23637 L 11285,23487"/>
 <path fill="none" stroke="rgb(179,179,179)" stroke-linejoin="round" d="M 11409,23637 L 11409,23487"/>
 <path fill="none" stroke="rgb(179,179,179)" stroke-linejoin="round" d="M 11409,23637 L 11409,23487"/>
 <path fill="none" stroke="rgb(179,179,179)" stroke-linejoin="round" d="M 11533,23637 L 11533,23487"/>
 <path fill="none" stroke="rgb(179,179,179)" stroke-linejoin="round" d="M 11533,23637 L 11533,23487"/>
 <path fill="none" stroke="rgb(179,179,179)" stroke-linejoin="round" d="M 11657,23637 L 11657,23487"/>
 <path fill="none" stroke="rgb(179,179,179)" stroke-linejoin="round" d="M 11657,23637 L 11657,23487"/>
 <path fill="none" stroke="rgb(179,179,179)" stroke-linejoin="round" d="M 11781,23637 L 11781,23487"/>
 <path fill="none" stroke="rgb(179,179,179)" stroke-linejoin="round" d="M 11781,23637 L 11781,23487"/>
 <path fill="none" stroke="rgb(179,179,179)" stroke-linejoin="round" d="M 11904,23637 L 11904,23487"/>
 <path fill="none" stroke="rgb(179,179,179)" stroke-linejoin="round" d="M 11904,23637 L 11904,23487"/>
 <path fill="none" stroke="rgb(179,179,179)" stroke-linejoin="round" d="M 12028,23637 L 12028,23487"/>
 <path fill="none" stroke="rgb(179,179,179)" stroke-linejoin="round" d="M 12028,23637 L 12028,23487"/>
 <path fill="none" stroke="rgb(179,179,179)" stroke-linejoin="round" d="M 12152,23637 L 12152,23487"/>
 <path fill="none" stroke="rgb(179,179,179)" stroke-linejoin="round" d="M 12152,23637 L 12152,23487"/>
 <path fill="none" stroke="rgb(179,179,179)" stroke-linejoin="round" d="M 12276,23637 L 12276,23487"/>
 <path fill="none" stroke="rgb(179,179,179)" stroke-linejoin="round" d="M 12276,23637 L 12276,23487"/>
 <path fill="none" stroke="rgb(179,179,179)" stroke-linejoin="round" d="M 12400,23637 L 12400,23487"/>
 <path fill="none" stroke="rgb(179,179,179)" stroke-linejoin="round" d="M 12400,23637 L 12400,23487"/>
 <path fill="none" stroke="rgb(179,179,179)" stroke-linejoin="round" d="M 12524,23637 L 12524,23487"/>
 <path fill="none" stroke="rgb(179,179,179)" stroke-linejoin="round" d="M 12524,23637 L 12524,23487"/>
 <path fill="none" stroke="rgb(179,179,179)" stroke-linejoin="round" d="M 12648,23637 L 12648,23487"/>
 <path fill="none" stroke="rgb(179,179,179)" stroke-linejoin="round" d="M 12648,23637 L 12648,23487"/>
 <path fill="none" stroke="rgb(179,179,179)" stroke-linejoin="round" d="M 12772,23637 L 12772,23487"/>
 <path fill="none" stroke="rgb(179,179,179)" stroke-linejoin="round" d="M 12772,23637 L 12772,23487"/>
 <path fill="none" stroke="rgb(179,179,179)" stroke-linejoin="round" d="M 12896,23637 L 12896,23487"/>
 <path fill="none" stroke="rgb(179,179,179)" stroke-linejoin="round" d="M 12896,23637 L 12896,23487"/>
 <path fill="none" stroke="rgb(179,179,179)" stroke-linejoin="round" d="M 13020,23637 L 13020,23487"/>
 <path fill="none" stroke="rgb(179,179,179)" stroke-linejoin="round" d="M 13020,23637 L 13020,23487"/>
 <path fill="none" stroke="rgb(179,179,179)" stroke-linejoin="round" d="M 13144,23637 L 13144,23487"/>
 <path fill="none" stroke="rgb(179,179,179)" stroke-linejoin="round" d="M 13144,23637 L 13144,23487"/>
 <path fill="none" stroke="rgb(179,179,179)" stroke-linejoin="round" d="M 13268,23637 L 13268,23487"/>
 <path fill="none" stroke="rgb(179,179,179)" stroke-linejoin="round" d="M 13268,23637 L 13268,23487"/>
 <path fill="none" stroke="rgb(179,179,179)" stroke-linejoin="round" d="M 13392,23637 L 13392,23487"/>
 <path fill="none" stroke="rgb(179,179,179)" stroke-linejoin="round" d="M 13392,23637 L 13392,23487"/>
 <path fill="none" stroke="rgb(179,179,179)" stroke-linejoin="round" d="M 13516,23637 L 13516,23487"/>
 <path fill="none" stroke="rgb(179,179,179)" stroke-linejoin="round" d="M 13516,23637 L 13516,23487"/>
 <path fill="none" stroke="rgb(179,179,179)" stroke-linejoin="round" d="M 13640,23637 L 13640,23487"/>
 <path fill="none" stroke="rgb(179,179,179)" stroke-linejoin="round" d="M 13640,23637 L 13640,23487"/>
 <path fill="none" stroke="rgb(179,179,179)" stroke-linejoin="round" d="M 13763,23637 L 13763,23487"/>
 <path fill="none" stroke="rgb(179,179,179)" stroke-linejoin="round" d="M 13763,23637 L 13763,23487"/>
 <path fill="none" stroke="rgb(179,179,179)" stroke-linejoin="round" d="M 13887,23637 L 13887,23487"/>
 <path fill="none" stroke="rgb(179,179,179)" stroke-linejoin="round" d="M 13887,23637 L 13887,23487"/>
 <path fill="none" stroke="rgb(179,179,179)" stroke-linejoin="round" d="M 14011,23637 L 14011,23487"/>
 <path fill="none" stroke="rgb(179,179,179)" stroke-linejoin="round" d="M 14011,23637 L 14011,23487"/>
 <path fill="none" stroke="rgb(179,179,179)" stroke-linejoin="round" d="M 14135,23637 L 14135,23487"/>
 <path fill="none" stroke="rgb(179,179,179)" stroke-linejoin="round" d="M 14135,23637 L 14135,23487"/>
 <path fill="none" stroke="rgb(179,179,179)" stroke-linejoin="round" d="M 14259,23637 L 14259,23487"/>
 <path fill="none" stroke="rgb(179,179,179)" stroke-linejoin="round" d="M 14259,23637 L 14259,23487"/>
 <path fill="none" stroke="rgb(179,179,179)" stroke-linejoin="round" d="M 14383,23637 L 14383,23487"/>
 <path fill="none" stroke="rgb(179,179,179)" stroke-linejoin="round" d="M 14383,23637 L 14383,23487"/>
 <path fill="none" stroke="rgb(179,179,179)" stroke-linejoin="round" d="M 14507,23637 L 14507,23487"/>
 <path fill="none" stroke="rgb(179,179,179)" stroke-linejoin="round" d="M 14507,23637 L 14507,23487"/>
 <path fill="none" stroke="rgb(179,179,179)" stroke-linejoin="round" d="M 14631,23637 L 14631,23487"/>
 <path fill="none" stroke="rgb(179,179,179)" stroke-linejoin="round" d="M 14631,23637 L 14631,23487"/>
 <path fill="none" stroke="rgb(179,179,179)" stroke-linejoin="round" d="M 14755,23637 L 14755,23487"/>
 <path fill="none" stroke="rgb(179,179,179)" stroke-linejoin="round" d="M 14755,23637 L 14755,23487"/>
 <path fill="none" stroke="rgb(179,179,179)" stroke-linejoin="round" d="M 14879,23637 L 14879,23487"/>
 <path fill="none" stroke="rgb(179,179,179)" stroke-linejoin="round" d="M 14879,23637 L 14879,23487"/>
 <path fill="none" stroke="rgb(179,179,179)" stroke-linejoin="round" d="M 15003,23637 L 15003,23487"/>
 <path fill="none" stroke="rgb(179,179,179)" stroke-linejoin="round" d="M 15003,23637 L 15003,23487"/>
 <path fill="none" stroke="rgb(179,179,179)" stroke-linejoin="round" d="M 15127,23637 L 15127,23487"/>
 <path fill="none" stroke="rgb(179,179,179)" stroke-linejoin="round" d="M 15127,23637 L 15127,23487"/>
 <path fill="none" stroke="rgb(179,179,179)" stroke-linejoin="round" d="M 15251,23637 L 15251,23487"/>
 <path fill="none" stroke="rgb(179,179,179)" stroke-linejoin="round" d="M 15251,23637 L 15251,23487"/>
 <path fill="none" stroke="rgb(179,179,179)" stroke-linejoin="round" d="M 15375,23637 L 15375,23487"/>
 <path fill="none" stroke="rgb(179,179,179)" stroke-linejoin="round" d="M 15375,23637 L 15375,23487"/>
 <path fill="none" stroke="rgb(179,179,179)" stroke-linejoin="round" d="M 15499,23637 L 15499,23487"/>
 <path fill="none" stroke="rgb(179,179,179)" stroke-linejoin="round" d="M 15499,23637 L 15499,23487"/>
 <path fill="none" stroke="rgb(179,179,179)" stroke-linejoin="round" d="M 15623,23637 L 15623,23487"/>
 <path fill="none" stroke="rgb(179,179,179)" stroke-linejoin="round" d="M 15623,23637 L 15623,23487"/>
 <path fill="none" stroke="rgb(179,179,179)" stroke-linejoin="round" d="M 15747,23637 L 15747,23487"/>
 <path fill="none" stroke="rgb(179,179,179)" stroke-linejoin="round" d="M 15747,23637 L 15747,23487"/>
 <path fill="none" stroke="rgb(179,179,179)" stroke-linejoin="round" d="M 15871,23637 L 15871,23487"/>
 <path fill="none" stroke="rgb(179,179,179)" stroke-linejoin="round" d="M 15871,23637 L 15871,23487"/>
 <path fill="none" stroke="rgb(179,179,179)" stroke-linejoin="round" d="M 15995,23637 L 15995,23487"/>
 <path fill="none" stroke="rgb(179,179,179)" stroke-linejoin="round" d="M 15995,23637 L 15995,23487"/>
 <path fill="none" stroke="rgb(179,179,179)" stroke-linejoin="round" d="M 16119,23637 L 16119,23487"/>
 <path fill="none" stroke="rgb(179,179,179)" stroke-linejoin="round" d="M 16119,23637 L 16119,23487"/>
 <path fill="none" stroke="rgb(179,179,179)" stroke-linejoin="round" d="M 16242,23637 L 16242,23487"/>
 <path fill="none" stroke="rgb(179,179,179)" stroke-linejoin="round" d="M 16242,23637 L 16242,23487"/>
 <path fill="none" stroke="rgb(179,179,179)" stroke-linejoin="round" d="M 16366,23637 L 16366,23487"/>
 <path fill="none" stroke="rgb(179,179,179)" stroke-linejoin="round" d="M 16366,23637 L 16366,23487"/>
 <path fill="none" stroke="rgb(179,179,179)" stroke-linejoin="round" d="M 16490,23637 L 16490,23487"/>
 <path fill="none" stroke="rgb(179,179,179)" stroke-linejoin="round" d="M 16490,23637 L 16490,23487"/>
 <path fill="none" stroke="rgb(179,179,179)" stroke-linejoin="round" d="M 16614,23637 L 16614,23487"/>
 <path fill="none" stroke="rgb(179,179,179)" stroke-linejoin="round" d="M 16614,23637 L 16614,23487"/>
 <path fill="none" stroke="rgb(179,179,179)" stroke-linejoin="round" d="M 16738,23637 L 16738,23487"/>
 <path fill="none" stroke="rgb(179,179,179)" stroke-linejoin="round" d="M 16738,23637 L 16738,23487"/>
 <path fill="none" stroke="rgb(179,179,179)" stroke-linejoin="round" d="M 16862,23637 L 16862,23487"/>
 <path fill="none" stroke="rgb(179,179,179)" stroke-linejoin="round" d="M 16862,23637 L 16862,23487"/>
 <path fill="none" stroke="rgb(179,179,179)" stroke-linejoin="round" d="M 16986,23637 L 16986,23487"/>
 <path fill="none" stroke="rgb(179,179,179)" stroke-linejoin="round" d="M 16986,23637 L 16986,23487"/>
 <path fill="none" stroke="rgb(179,179,179)" stroke-linejoin="round" d="M 17110,23637 L 17110,23487"/>
 <path fill="none" stroke="rgb(179,179,179)" stroke-linejoin="round" d="M 17110,23637 L 17110,23487"/>
 <path fill="none" stroke="rgb(179,179,179)" stroke-linejoin="round" d="M 17234,23637 L 17234,23487"/>
 <path fill="none" stroke="rgb(179,179,179)" stroke-linejoin="round" d="M 17234,23637 L 17234,23487"/>
 <path fill="none" stroke="rgb(179,179,179)" stroke-linejoin="round" d="M 17358,23637 L 17358,23487"/>
 <path fill="none" stroke="rgb(179,179,179)" stroke-linejoin="round" d="M 17358,23637 L 17358,23487"/>
 <path fill="none" stroke="rgb(179,179,179)" stroke-linejoin="round" d="M 17482,23637 L 17482,23487"/>
 <path fill="none" stroke="rgb(179,179,179)" stroke-linejoin="round" d="M 17482,23637 L 17482,23487"/>
 <path fill="none" stroke="rgb(179,179,179)" stroke-linejoin="round" d="M 17606,23637 L 17606,23487"/>
 <path fill="none" stroke="rgb(179,179,179)" stroke-linejoin="round" d="M 17606,23637 L 17606,23487"/>
 <path fill="none" stroke="rgb(179,179,179)" stroke-linejoin="round" d="M 17730,23637 L 17730,23487"/>
 <path fill="none" stroke="rgb(179,179,179)" stroke-linejoin="round" d="M 17730,23637 L 17730,23487"/>
 <path fill="none" stroke="rgb(179,179,179)" stroke-linejoin="round" d="M 17854,23637 L 17854,23487"/>
 <path fill="none" stroke="rgb(179,179,179)" stroke-linejoin="round" d="M 17854,23637 L 17854,23487"/>
 <path fill="none" stroke="rgb(179,179,179)" stroke-linejoin="round" d="M 17978,23637 L 17978,23487"/>
 <path fill="none" stroke="rgb(179,179,179)" stroke-linejoin="round" d="M 17978,23637 L 17978,23487"/>
 <path fill="none" stroke="rgb(179,179,179)" stroke-linejoin="round" d="M 18102,23637 L 18102,23487"/>
 <path fill="none" stroke="rgb(179,179,179)" stroke-linejoin="round" d="M 18102,23637 L 18102,23487"/>
 <path fill="none" stroke="rgb(179,179,179)" stroke-linejoin="round" d="M 18226,23637 L 18226,23487"/>
 <path fill="none" stroke="rgb(179,179,179)" stroke-linejoin="round" d="M 18226,23637 L 18226,23487"/>
 <path fill="none" stroke="rgb(179,179,179)" stroke-linejoin="round" d="M 18350,23637 L 18350,23487"/>
 <path fill="none" stroke="rgb(179,179,179)" stroke-linejoin="round" d="M 18350,23637 L 18350,23487"/>
 <path fill="none" stroke="rgb(179,179,179)" stroke-linejoin="round" d="M 18474,23637 L 18474,23487"/>
 <path fill="none" stroke="rgb(179,179,179)" stroke-linejoin="round" d="M 18474,23637 L 18474,23487"/>
 <path fill="none" stroke="rgb(179,179,179)" stroke-linejoin="round" d="M 18597,23637 L 18597,23487"/>
 <path fill="none" stroke="rgb(179,179,179)" stroke-linejoin="round" d="M 18597,23637 L 18597,23487"/>
 <path fill="none" stroke="rgb(179,179,179)" stroke-linejoin="round" d="M 1369,23487 L 18597,23487"/>
 <path fill="none" stroke="rgb(179,179,179)" stroke-linejoin="round" d="M 1219,23487 L 1369,23487"/>
 <path fill="none" stroke="rgb(179,179,179)" stroke-linejoin="round" d="M 1219,23487 L 1369,23487"/>
 <path fill="none" stroke="rgb(179,179,179)" stroke-linejoin="round" d="M 1219,21301 L 1369,21301"/>
 <path fill="none" stroke="rgb(179,179,179)" stroke-linejoin="round" d="M 1219,21301 L 1369,21301"/>
 <path fill="none" stroke="rgb(179,179,179)" stroke-linejoin="round" d="M 1219,19115 L 1369,19115"/>
 <path fill="none" stroke="rgb(179,179,179)" stroke-linejoin="round" d="M 1219,19115 L 1369,19115"/>
 <path fill="none" stroke="rgb(179,179,179)" stroke-linejoin="round" d="M 1219,16929 L 1369,16929"/>
 <path fill="none" stroke="rgb(179,179,179)" stroke-linejoin="round" d="M 1219,16929 L 1369,16929"/>
 <path fill="none" stroke="rgb(179,179,179)" stroke-linejoin="round" d="M 1219,14743 L 1369,14743"/>
 <path fill="none" stroke="rgb(179,179,179)" stroke-linejoin="round" d="M 1219,14743 L 1369,14743"/>
 <path fill="none" stroke="rgb(179,179,179)" stroke-linejoin="round" d="M 1219,12557 L 1369,12557"/>
 <path fill="none" stroke="rgb(179,179,179)" stroke-linejoin="round" d="M 1219,12557 L 1369,12557"/>
 <path fill="none" stroke="rgb(179,179,179)" stroke-linejoin="round" d="M 1219,10372 L 1369,10372"/>
 <path fill="none" stroke="rgb(179,179,179)" stroke-linejoin="round" d="M 1219,10372 L 1369,10372"/>
 <path fill="none" stroke="rgb(179,179,179)" stroke-linejoin="round" d="M 1219,8186 L 1369,8186"/>
 <path fill="none" stroke="rgb(179,179,179)" stroke-linejoin="round" d="M 1219,8186 L 1369,8186"/>
 <path fill="none" stroke="rgb(179,179,179)" stroke-linejoin="round" d="M 1219,6000 L 1369,6000"/>
 <path fill="none" stroke="rgb(179,179,179)" stroke-linejoin="round" d="M 1219,6000 L 1369,6000"/>
 <path fill="none" stroke="rgb(179,179,179)" stroke-linejoin="round" d="M 1219,3814 L 1369,3814"/>
 <path fill="none" stroke="rgb(179,179,179)" stroke-linejoin="round" d="M 1219,3814 L 1369,3814"/>
 <path fill="none" stroke="rgb(179,179,179)" stroke-linejoin="round" d="M 1219,1629 L 1369,1629"/>
 <path fill="none" stroke="rgb(179,179,179)" stroke-linejoin="round" d="M 1219,1629 L 1369,1629"/>
 <path fill="none" stroke="rgb(179,179,179)" stroke-linejoin="round" d="M 1369,23487 L 1369,1629"/>
 <path fill="none" stroke="rgb(128,0,128)" stroke-width="80" stroke-linejoin="round" stroke-dasharray="158,158" d="M 6529,1629 L 6637,2805 6761,3591 6885,4381 7009,4109 7133,4912 7257,5226 7381,4549 7505,4459 7629,4171 7753,3607 7877,3822 8001,3918 8125,4043 8249,5291 8373,5514 8497,6049 8621,6428 8745,6721 8868,7055 8992,7376 9116,7137 9240,7244 9364,7276 9488,7689 9612,7908 9736,8149 9860,8599 9984,8938 10108,9418 10232,9831 10356,10010 10480,10317 10604,10764 10728,10802 10852,11152 10976,11232 11100,11292 11223,11312 11347,11291 11471,11275 11595,11112 11719,10879 11842,10840 11966,10865 12090,10882 12214,10876 12338,10840 12462,10912 12586,11096 12710,11333 12834,11440 12958,11517 13082,11558 13206,11600 13330,11701 13454,11769 13578,11727 13701,11728 13825,11848 13949,12034 14073,12151 14197,12122 14321,12078 14445,12003 14569,11920 14693,11869 14817,11741 14941,11543 15065,11502 15189,11491 15313,11307 15437,11107 15561,10952 15685,11000 15809,11078 15933,11200 16057,11080 16180,11377 16304,11723 16428,11750 16552,11969 16676,12279 16800,12391 16924,12738 17048,12914 17172,12994 17296,13366 17420,13441 17544,13515 17668,13759 17792,13833 17916,13871 18040,14124 18164,14333 18288,14614 18412,14949 18536,15123"/>
 <path fill="none" stroke="rgb(255,191,0)" stroke-width="80" stroke-linejoin="round" stroke-dasharray="80,40" d="M 2884,1629 L 2919,1907 3043,3235 3167,5468 3291,5816 3415,6739 3539,5784 3663,6938 3787,5674 3910,6112 4034,6014 4158,4716 4282,5198 4406,6498 4530,6618 4654,8840 4778,10323 4902,10150 5026,11808 5150,12207 5274,12159 5398,12102 5522,12879 5646,11847 5770,12842 5894,13006 6018,13593 6142,12649 6266,13376 6389,12968 6513,14120 6637,14700 6761,14537 6885,14652 7009,15506 7133,15360 7257,15800 7381,15613 7505,15547 7629,15788 7753,15741 7877,15801 8001,15905 8125,15468 8249,15278 8373,15836 8497,15663 8621,15566 8745,15301 8868,15176 8992,15210 9116,15699 9240,15570 9364,15746 9488,15638 9612,16043 9736,16182 9860,16215 9984,16226 10108,16037 10232,15886 10356,16231 10480,16202 10604,16228 10728,16328 10852,16360 10976,16264 11100,16265 11223,16272 11347,16141 11471,15937 11595,15334 11719,14544 11842,14564 11966,14598 12090,14280 12214,14643 12338,14474 12462,14287 12586,14367 12710,13973 12834,13609 12958,14257 13082,14729 13206,13506 13330,14223 13454,13551 13578,13618 13701,13568 13825,12951 13949,12101 14073,13599 14197,13434 14321,13912 14445,14173 14569,14494 14693,14715 14817,14985 14941,15086 15065,15026 15189,15519 15313,15307 15437,15567 15561,15648 15685,15942 15809,16099 15933,16866 16057,16922 16180,16884 16304,17178 16428,17491 16552,17595 16676,17698 16800,17882 16924,18293 17048,19367 17172,19193 17296,19446 17420,19364 17544,19426 17668,18633 17792,19149 17916,18480 18040,18912 18164,18187 18288,18471 18412,18478 18536,19285"/>
 <path fill="none" stroke="rgb(0,0,255)" stroke-width="80" stroke-linejoin="round" stroke-dasharray="80,40" d="M 3313,1629 L 3415,2743 3539,4416 3663,5642 3787,6717 3910,7004 4034,8608 4158,8530 4282,9299 4406,10751 4530,10533 4654,10957 4778,11443 4902,11086 5026,11758 5150,12300 5274,11244 5398,11176 5522,10807 5646,10956 5770,11413 5894,12364 6018,12365 6142,12914 6266,13567 6389,13122 6513,13488 6637,13358 6761,13242 6885,13539 7009,13172 7133,13310 7257,14192 7381,14165 7505,14504 7629,15060 7753,16011 7877,16739 8001,16743 8125,17057 8249,17711 8373,17853 8497,17436 8621,17475 8745,17007 8868,16606 8992,16369 9116,15786 9240,15769 9364,16132 9488,15126 9612,15440 9736,16213 9860,16242 9984,16408 10108,15933 10232,15987 10356,16027 10480,16181 10604,15883 10728,15626 10852,14900 10976,14328 11100,13648 11223,12951 11347,12087 11471,11427 11595,10122 11719,9768 11842,9869 11966,9111 12090,9061 12214,9000 12338,8865 12462,9044 12586,9217 12710,8394 12834,9004 12958,8946 13082,9085 13206,9942 13330,9835 13454,9287 13578,10156 13701,9478 13825,9651 13949,9861 14073,9018 14197,9853 14321,10626 14445,10667 14569,10677 14693,10715 14817,10996 14941,11426 15065,11495 15189,12308 15313,12557 15437,13884 15561,14875 15685,15042 15809,15815 15933,16295 16057,16336 16180,16828 16304,17018 16428,16828 16552,17387 16676,17489 16800,17340 16924,17329 17048,17434 17172,17801 17296,18199 17420,18287 17544,18103 17668,18416 17792,18640 17916,19181 18040,19246 18164,19182 18288,19189 18412,18964 18536,19066"/>
 <path fill="none" stroke="rgb(21,132,102)" stroke-width="80" stroke-linejoin="round" stroke-dasharray="80,203,80,203,203,203" d="M 2557,1629 L 2671,3109 2795,3397 2919,4586 3043,5831 3167,6904 3291,7534 3415,8366 3539,9106 3663,10247 3787,10644 3910,10976 4034,11551 4158,12240 4282,12692 4406,12829 4530,13323 4654,13706 4778,13993 4902,14266 5026,14653 5150,14925 5274,15226 5398,15360 5522,15438 5646,15567 5770,15580 5894,15711 6018,15854 6142,15982 6266,16165 6389,16319 6513,16432 6637,16662 6761,16729 6885,16832 7009,16870 7133,16968 7257,16961 7381,16958 7505,16902 7629,16954 7753,16992 7877,17032 8001,16984 8125,17116 8249,17275 8373,17407 8497,17422 8621,17427 8745,17280 8868,17290 8992,17323 9116,17203 9240,17188 9364,17260 9488,17316 9612,17469 9736,17540 9860,17582 9984,17669 10108,17677 10232,17715 10356,17838 10480,17949 10604,17905 10728,17878 10852,17871 10976,17925 11100,18016 11223,17813 11347,17790 11471,17913 11595,17900 11719,17869 11842,17812 11966,17709 12090,17777 12214,17777 12338,17697 12462,17684 12586,17748 12710,17637 12834,17610 12958,17671 13082,17707 13206,17709 13330,17759 13454,17699 13578,17841 13701,17867 13825,17855 13949,17865 14073,17916 14197,17901 14321,17960 14445,17987 14569,18003 14693,18072 14817,18090 14941,18096 15065,18129 15189,18179 15313,18110 15437,18113 15561,18083 15685,18118 15809,18202 15933,18218 16057,18245 16180,18317 16304,18417 16428,18483 16552,18576 16676,18597 16800,18728 16924,18784 17048,18910 17172,18972 17296,19070 17420,19110 17544,19178 17668,19164 17792,19234 17916,19282 18040,19343 18164,19350 18288,19430 18412,19501 18536,19586"/>
 <path fill="none" stroke="rgb(255,64,0)" stroke-width="80" stroke-linejoin="round" stroke-dasharray="80,40" d="M 6677,1629 L 6761,1788 6885,1643 7009,1791 7133,2426 7227,1629"/>
 <path fill="none" stroke="rgb(255,64,0)" stroke-width="80" stroke-linejoin="round" stroke-dasharray="80,40" d="M 7771,1629 L 7877,2166 7957,1629"/>
 <path fill="none" stroke="rgb(255,64,0)" stroke-width="80" stroke-linejoin="round" stroke-dasharray="80,40" d="M 8022,1629 L 8125,3024 8249,4299 8373,5459 8497,5420 8621,5747 8745,4480 8868,5236 8992,5815 9116,5143 9240,5208 9364,5860 9488,6514 9612,8190 9736,8465 9860,8460 9984,8994 10108,9384 10232,10130 10356,11096 10480,11944 10604,12373 10728,12310 10852,12627 10976,13131 11100,13940 11223,12720 11347,12330 11471,12617 11595,12747 11719,12940 11842,12813 11966,12315 12090,13241 12214,13409 12338,12962 12462,13145 12586,13715 12710,13919 12834,13920 12958,14430 13082,14723 13206,15065 13330,15336 13454,15175 13578,15508 13701,15924 13825,16052 13949,16200 14073,16352 14197,16439 14321,16721 14445,17015 14569,17103 14693,17527 14817,17902 14941,18007 15065,18067 15189,18204 15313,17690 15437,17505 15561,17141 15685,16751 15809,16805 15933,16806 16057,16937 16180,17113 16304,17320 16428,17533 16552,17765 16676,17801 16800,17974 16924,17875 17048,18231 17172,18426 17296,18561 17420,18570 17544,18661 17668,18604 17792,18685 17916,18812 18040,18793 18164,18866 18288,19065 18412,19097 18536,19167"/>
 <path fill="none" stroke="rgb(0,169,51)" stroke-width="80" stroke-linejoin="round" stroke-dasharray="80,40" d="M 6223,1629 L 6266,1972 6389,3437 6513,2827 6637,3630 6761,4328 6885,4750 7009,5608 7133,5765 7257,5067 7381,5210 7505,5637 7629,6068 7753,6503 7877,6135 8001,6255 8125,7000 8249,7227 8373,6934 8497,7464 8621,8035 8745,9111 8868,9443 8992,9758 9116,10139 9240,10480 9364,10447 9488,10366 9612,10445 9736,10739 9860,11010 9984,11371 10108,11419 10232,11783 10356,11897 10480,12302 10604,12387 10728,12507 10852,12738 10976,13128 11100,13214 11223,13659 11347,13525 11471,13451 11595,13345 11719,13169 11842,13349 11966,13579 12090,13766 12214,14104 12338,14695 12462,15095 12586,15566 12710,15730 12834,15826 12958,15754 13082,15400 13206,15423 13330,15345 13454,15381 13578,15332 13701,15463 13825,15657 13949,16014 14073,16184 14197,16357 14321,16394 14445,16709 14569,17019 14693,17118 14817,17024 14941,17000 15065,17030 15189,17203 15313,17343 15437,17190 15561,17286 15685,17537 15809,17607 15933,17719 16057,17787 16180,17914 16304,18125 16428,18130 16552,17905 16676,18054 16800,18145 16924,18355 17048,18386 17172,18601 17296,18877 17420,19287 17544,19381 17668,19347 17792,19351 17916,19434 18040,19418 18164,19578 18288,19646 18412,19674 18536,19896"/>
 <path fill="none" stroke="rgb(255,211,32)" stroke-width="80" stroke-linejoin="round" d="M 2324,1629 L 2423,4099 2547,5951 2671,10202 2795,10106 2919,12272 3043,13953 3167,16047 3291,16704 3415,17255 3539,17676 3663,17977 3787,17418 3910,16891 4034,17044 4158,18362 4282,18653 4406,18550 4530,19222 4654,20033 4778,20559 4902,20746 5026,20475 5150,20697 5274,21090 5398,21260 5522,21290 5646,21203 5770,21208 5894,21500 6018,21565 6142,21570 6266,21565 6389,21490 6513,21687 6637,21869 6761,21745 6885,21706 7009,21542 7133,21592 7257,21294 7381,21221 7505,21097 7629,21377 7753,21370 7877,21237 8001,21010 8125,21368 8249,21449 8373,21657 8497,21559 8621,21587 8745,21814 8868,21958 8992,22030 9116,21970 9240,21793 9364,21793 9488,21903 9612,21890 9736,21788 9860,21630 9984,21680 10108,21698 10232,21824 10356,21610 10480,21549 10604,21688 10728,21832 10852,21872 10976,21982 11100,21601 11223,21428 11347,21487 11471,21419 11595,21493 11719,21156 11842,20841 11966,20977 12090,20831 12214,19930 12338,18885 12462,18160 12586,18134 12710,18339 12834,18226 12958,18413 13082,19067 13206,20050 13330,20668 13454,20813 13578,20699 13701,20826 13825,21066 13949,21114 14073,21184 14197,21149 14321,21226 14445,21231 14569,21141 14693,20995 14817,21020 14941,20928 15065,20646 15189,20265 15313,19934 15437,19671 15561,19227 15685,19205 15809,19163 15933,19089 16057,18985 16180,18917 16304,18846 16428,19158 16552,19213 16676,19276 16800,19283 16924,19372 17048,19585 17172,19855 17296,19567 17420,19465 17544,19445 17668,19667 17792,19700 17916,19631 18040,19369 18164,19533 18288,19516 18412,19535 18536,19449"/>
 <path fill="none" stroke="rgb(128,0,128)" stroke-width="80" stroke-linejoin="round" d="M 2141,1629 L 2175,2514 2299,4970 2423,7432 2547,9157 2671,10716 2795,11803 2919,12795 3043,14062 3167,14808 3291,14434 3415,14491 3539,15790 3663,15142 3787,15748 3910,15470 4034,15920 4158,16850 4282,20703 4406,20253 4530,21515 4654,21466 4778,22074 4902,22537 5026,23402 5150,20853 5274,21220 5398,21416 5522,21703 5646,21712 5770,21965 5894,21845 6018,21934 6142,22074 6266,22103 6389,21596 6513,21752 6637,21826 6761,21889 6885,22049 7009,22094 7133,22249 7257,22685 7381,22718 7505,22748 7629,22820 7753,22605 7877,22616 8001,22525 8125,22770 8249,22691 8373,22790 8497,22573 8621,22790 8745,22755 8868,22799 8992,22699 9116,22807 9240,22734 9364,22980 9488,23044 9612,23106 9736,23108 9860,23107 9984,23116 10108,23131 10232,23115 10356,23082 10480,23071 10604,23056 10728,23054 10852,23060 10976,23053 11100,23025 11223,23061 11347,23068 11471,23066 11595,23058 11719,23053 11842,23057 11966,23091 12090,23072 12214,23037 12338,23043 12462,23049 12586,23040 12710,23031 12834,23024 12958,23021 13082,23121 13206,23175 13330,22991 13454,22985 13578,22987 13701,22970 13825,22900 13949,22900 14073,22900 14197,22764 14321,22708 14445,22624 14569,22485 14693,22394 14817,22394 14941,22394 15065,21969 15189,21855 15313,21779 15437,21576 15561,21443 15685,21443 15809,21443 15933,21184 16057,21119 16180,21021 16304,21016 16428,20903 16552,20903 16676,20903 16800,20621 16924,20027 17048,19909 17172,19745 17296,19571 17420,19571 17544,19571 17668,19671 17792,20051 17916,20053 18040,19609 18164,19530 18288,19530 18412,19530 18536,18600"/>
 <path fill="none" stroke="rgb(191,0,65)" stroke-width="80" stroke-linejoin="round" stroke-dasharray="80,40" d="M 3025,1629 L 3043,2198 3167,3532 3291,4842 3415,5463 3539,6945 3663,9382 3787,10925 3910,10872 4034,12227 4158,11679 4282,13291 4406,14317 4530,14817 4654,15281 4778,15676 4902,15944 5026,17526 5150,17480 5274,16931 5398,17184 5522,17013 5646,17376 5770,17153 5894,16819 6018,17858 6142,17892 6266,18012 6389,18646 6513,18250 6637,18425 6761,18553 6885,17978 7009,18230 7133,18111 7257,17662 7381,18251 7505,18260 7629,17957 7753,18224 7877,18300 8001,18424 8125,18494 8249,18540 8373,18732 8497,19346 8621,19025 8745,18867 8868,18935 8992,19191 9116,19143 9240,18395 9364,17827 9488,17878 9612,17702 9736,17434 9860,17275 9984,16978 10108,17083 10232,17032 10356,16744 10480,15967 10604,15534 10728,15119 10852,14141 10976,13527 11100,12817 11223,11921 11347,11454 11471,10920 11595,10546 11719,10721 11842,9590 11966,9195 12090,7309 12214,5427 12338,3813 12462,3367 12586,2820 12710,3443 12834,2365 12958,3707 13082,4520 13206,5193 13330,5531 13454,5889 13578,5674 13701,7042 13825,7440 13949,8660 14073,8260 14197,7396 14321,7571 14445,8244 14569,7885 14693,8609 14817,9220 14941,10487 15065,11420 15189,11764 15313,12217 15437,13229 15561,13457 15685,13522 15809,14268 15933,14710 16057,14958 16180,15217 16304,15468 16428,16089 16552,16576 16676,16960 16800,17512 16924,18011 17048,18517 17172,18843 17296,19054 17420,19247 17544,19387 17668,19480 17792,19490 17916,19298 18040,19482 18164,19671 18288,19912 18412,20154 18536,20300"/>
 <path fill="none" stroke="rgb(141,40,30)" stroke-width="80" stroke-linejoin="round" stroke-dasharray="80,40" d="M 3125,1629 L 3167,2295 3291,4207 3415,5572 3539,6731 3663,7788 3787,8316 3910,9096 4034,9820 4158,10270 4282,10664 4406,10887 4530,11226 4654,11926 4778,12349 4902,12752 5026,13402 5150,13908 5274,14416 5398,14770 5522,14968 5646,15188 5770,15502 5894,15794 6018,16307 6142,16625 6266,16995 6389,17251 6513,17448 6637,17724 6761,17861 6885,18043 7009,18171 7133,18274 7257,18254 7381,18394 7505,18381 7629,18549 7753,18670 7877,18850 8001,18856 8125,19002 8249,19107 8373,19329 8497,19465 8621,19516 8745,19498 8868,19573 8992,19660 9116,19651 9240,19649 9364,19736 9488,19771 9612,19864 9736,19957 9860,19989 9984,20095 10108,20112 10232,20113 10356,20155 10480,20130 10604,20114 10728,20094 10852,20002 10976,19934 11100,19869 11223,19783 11347,19677 11471,19575 11595,19386 11719,19197 11842,19058 11966,18873 12090,18668 12214,18545 12338,18350 12462,18224 12586,18106 12710,17887 12834,17716 12958,17679 13082,17722 13206,17636 13330,17658 13454,17522 13578,17515 13701,17493 13825,17381 13949,17260 14073,17229 14197,17112 14321,17132 14445,17129 14569,17062 14693,17147 14817,17217 14941,17292 15065,17372 15189,17529 15313,17599 15437,17831 15561,17916 15685,17979 15809,18149 15933,18292 16057,18363 16180,18456 16304,18548 16428,18707 16552,18867 16676,19003 16800,19174 16924,19323 17048,19567 17172,19707 17296,19848 17420,19916 17544,19959 17668,19954 17792,20095 17916,20101 18040,20216 18164,20200 18288,20309 18412,20381 18536,20535"/>
 <path fill="none" stroke="rgb(180,120,4)" stroke-width="80" stroke-linejoin="round" d="M 2587,1629 L 2671,3805 2795,6157 2919,8798 3043,11533 3167,13496 3291,14158 3415,14371 3539,14688 3663,15174 3787,15445 3910,15761 4034,15653 4158,16089 4282,16629 4406,16397 4530,16606 4654,16768 4778,17071 4902,17566 5026,17752 5150,17762 5274,18621 5398,18762 5522,18710 5646,18800 5770,19070 5894,19164 6018,19317 6142,19335 6266,19412 6389,19752 6513,20127 6637,20342 6761,20808 6885,21082 7009,21246 7133,21438 7257,21629 7381,21651 7505,21676 7629,21607 7753,21740 7877,21782 8001,21781 8125,21842 8249,21989 8373,22076 8497,22211 8621,22090 8745,22170 8868,22314 8992,22305 9116,22332 9240,22397 9364,22370 9488,22441 9612,22411 9736,22459 9860,22520 9984,22508 10108,22592 10232,22671 10356,22675 10480,22711 10604,22605 10728,22570 10852,22594 10976,22492 11100,22382 11223,22449 11347,22594 11471,22788 11595,22395 11719,22394 11842,22363 11966,22469 12090,22500 12214,22500 12338,22500 12462,22717 12586,22777 12710,22876 12834,22877 12958,22953 13082,22953 13206,22950 13330,23054 13454,23079 13578,23127 13701,23144 13825,23101 13949,23101 14073,23104 14197,22955 14321,22909 14445,22846 14569,22793 14693,22732 14817,22732 14941,22722 15065,22734 15189,22682 15313,22628 15437,22604 15561,22610 15685,22607 15809,22545 15933,22483 16057,22499 16180,22474 16304,22297 16428,22250 16552,22253 16676,22325 16800,22027 16924,21894 17048,21683 17172,21539 17296,21246 17420,21233 17544,21208 17668,20722 17792,20503 17916,20510 18040,20477 18164,20489 18288,20179 18412,19802 18536,20621"/>
 <path fill="none" stroke="rgb(0,0,255)" stroke-width="80" stroke-linejoin="round" stroke-dasharray="51,127,51,127,254,127,254,127,254,127" d="M 2081,1629 L 2175,3586 2299,5373 2423,6795 2547,8203 2671,9481 2795,8252 2919,9113 3043,10149 3167,11057 3291,11043 3415,11879 3539,12875 3663,14804 3787,15268 3910,15493 4034,16187 4158,17312 4282,18457 4406,18490 4530,19231 4654,19375 4778,19678 4902,20016 5026,20507 5150,20246 5274,20526 5398,20760 5522,21055 5646,21247 5770,21118 5894,21156 6018,21148 6142,21246 6266,21298 6389,21247 6513,21307 6637,21567 6761,21675 6885,21819 7009,21906 7133,21984 7257,22129 7381,22167 7505,22154 7629,22226 7753,22211 7877,22233 8001,22243 8125,22299 8249,22373 8373,22450 8497,22292 8621,22346 8745,22295 8868,22313 8992,22316 9116,22383 9240,22329 9364,22502 9488,22514 9612,22544 9736,22513 9860,22491 9984,22427 10108,22484 10232,22480 10356,22472 10480,22490 10604,22502 10728,22506 10852,22504 10976,22467 11100,22421 11223,22417 11347,22438 11471,22460 11595,22473 11719,22427 11842,22430 11966,22478 12090,22450 12214,22476 12338,22521 12462,22376 12586,22432 12710,22418 12834,22418 12958,22480 13082,22495 13206,22479 13330,22501 13454,22523 13578,22575 13701,22561 13825,22545 13949,22532 14073,22526 14197,22520 14321,22517 14445,22465 14569,22444 14693,22403 14817,22398 14941,22392 15065,22270 15189,22201 15313,22151 15437,22088 15561,22036 15685,21998 15809,21967 15933,21906 16057,21873 16180,21861 16304,21796 16428,21693 16552,21686 16676,21690 16800,21686 16924,21463 17048,21417 17172,21330 17296,21227 17420,21212 17544,21179 17668,21046 17792,21216 17916,21039 18040,21020 18164,20935 18288,20822 18412,20834 18536,20663"/>
 <path fill="none" stroke="rgb(0,169,51)" stroke-width="80" stroke-linejoin="round" stroke-dasharray="158,102" d="M 1967,1629 L 2051,3464 2175,5861 2299,7878 2423,9842 2547,11150 2671,12283 2795,13380 2919,14235 3043,14903 3167,15497 3291,15713 3415,16241 3539,16720 3663,17068 3787,17402 3910,17692 4034,17988 4158,18424 4282,18702 4406,18913 4530,19089 4654,19315 4778,19475 4902,19592 5026,19662 5150,19793 5274,20002 5398,20132 5522,20057 5646,19999 5770,19755 5894,19562 6018,19352 6142,19057 6266,18919 6389,18772 6513,18765 6637,18723 6761,18655 6885,18499 7009,18477 7133,18369 7257,18204 7381,18026 7505,17970 7629,17834 7753,17858 7877,17900 8001,17848 8125,18050 8249,18256 8373,18444 8497,18583 8621,18500 8745,18435 8868,18408 8992,18179 9116,17830 9240,17588 9364,17280 9488,17380 9612,17477 9736,17621 9860,17999 9984,18391 10108,18796 10232,19259 10356,19467 10480,19479 10604,19507 10728,19452 10852,19383 10976,19282 11100,19242 11223,19238 11347,19320 11471,19399 11595,19423 11719,19504 11842,19575 11966,19627 12090,19674 12214,19689 12338,19707 12462,19762 12586,19803 12710,19843 12834,19875 12958,19931 13082,19972 13206,19998 13330,20022 13454,20025 13578,20036 13701,20183 13825,20276 13949,20318 14073,20420 14197,20500 14321,20553 14445,20638 14569,20588 14693,20594 14817,20661 14941,20686 15065,20700 15189,20709 15313,20702 15437,20708 15561,20715 15685,20713 15809,20711 15933,20732 16057,20751 16180,20768 16304,20794 16428,20789 16552,20775 16676,20744 16800,20742 16924,20755 17048,20770 17172,20792 17296,20848 17420,20930 17544,21046 17668,21131 17792,21208 17916,21254 18040,21273 18164,21283 18288,21281 18412,21280 18536,21279"/>
 <path fill="none" stroke="rgb(0,169,51)" stroke-width="80" stroke-linejoin="round" d="M 1687,1629 L 1803,4935 1927,7255 2051,11310 2175,12926 2299,14380 2423,15178 2547,15782 2671,15972 2795,16616 2919,17286 3043,17997 3167,18778 3291,19420 3415,20132 3539,20747 3663,20966 3787,21139 3910,21498 4034,21690 4158,21898 4282,22061 4406,22065 4530,22076 4654,22071 4778,22064 4902,22089 5026,22175 5150,22152 5274,22303 5398,22418 5522,22493 5646,22652 5770,22686 5894,22638 6018,22802 6142,22714 6266,22718 6389,22756 6513,22618 6637,22614 6761,22637 6885,22558 7009,22470 7133,22465 7257,22421 7381,22500 7505,22514 7629,22545 7753,22599 7877,22717 8001,22784 8125,22761 8249,22854 8373,22850 8497,22890 8621,22904 8745,22959 8868,22883 8992,22974 9116,22953 9240,23012 9364,23021 9488,22993 9612,22928 9736,23040 9860,22873 9984,22913 10108,22877 10232,22891 10356,22913 10480,23021 10604,22951 10728,23056 10852,22946 10976,22977 11100,23001 11223,22956 11347,22859 11471,22894 11595,22861 11719,22930 11842,22861 11966,22842 12090,22851 12214,22838 12338,22697 12462,22624 12586,22587 12710,22424 12834,22326 12958,22169 13082,22032 13206,21936 13330,21903 13454,21875 13578,21921 13701,21844 13825,21890 13949,21999 14073,22011 14197,22099 14321,22063 14445,21973 14569,21948 14693,21781 14817,21648 14941,21733 15065,21652 15189,21634 15313,21718 15437,21606 15561,21744 15685,21778 15809,21669 15933,21682 16057,21612 16180,21466 16304,21625 16428,21505 16552,21608 16676,21710 16800,21728 16924,21787 17048,21985 17172,21941 17296,22024 17420,22029 17544,21991 17668,22013 17792,21932 17916,21717 18040,21677 18164,21406 18288,20973 18412,20834 18536,20662"/>
 <path fill="none" stroke="rgb(0,223,255)" stroke-width="80" stroke-linejoin="round" stroke-dasharray="158,102" d="M 6491,1629 L 6513,1857 6637,3373 6761,4959 6885,6037 7009,7343 7133,8463 7257,9793 7381,10744 7505,11499 7629,12168 7753,12907 7877,13227 8001,13753 8125,14049 8249,14391 8373,14710 8497,15020 8621,15294 8745,15587 8868,15699 8992,15953 9116,16145 9240,16288 9364,16395 9488,16535 9612,16704 9736,16891 9860,16975 9984,17139 10108,17278 10232,17407 10356,17501 10480,17631 10604,17759 10728,17936 10852,18065 10976,18208 11100,18388 11223,18562 11347,18714 11471,18884 11595,19006 11719,19140 11842,19254 11966,19365 12090,19514 12214,19646 12338,19766 12462,19881 12586,19979 12710,20065 12834,20129 12958,20172 13082,20223 13206,20263 13330,20304 13454,20359 13578,20391 13701,20440 13825,20476 13949,20508 14073,20546 14197,20578 14321,20612 14445,20647 14569,20678 14693,20718 14817,20766 14941,20820 15065,20881 15189,20927 15313,20982 15437,21037 15561,21093 15685,21134 15809,21173 15933,21207 16057,21249 16180,21288 16304,21323 16428,21356 16552,21393 16676,21427 16800,21454 16924,21481 17048,21509 17172,21534 17296,21562 17420,21587 17544,21611 17668,21637 17792,21660 17916,21677 18040,21699 18164,21719 18288,21737 18412,21759 18536,21781"/>
 <path fill="none" stroke="rgb(0,255,0)" stroke-width="80" stroke-linejoin="round" d="M 1714,1629 L 1803,3520 1927,5000 2051,7741 2175,8617 2299,9925 2423,11357 2547,12461 2671,13675 2795,14546 2919,15349 3043,16251 3167,17748 3291,18613 3415,18987 3539,19487 3663,19487 3787,19647 3910,19901 4034,20279 4158,20602 4282,20905 4406,21109 4530,21405 4654,21578 4778,21616 4902,21725 5026,21814 5150,21919 5274,22090 5398,22217 5522,22262 5646,22374 5770,22516 5894,22689 6018,22748 6142,22850 6266,22902 6389,22957 6513,22946 6637,22973 6761,22997 6885,23042 7009,23023 7133,23080 7257,23122 7381,23144 7505,23134 7629,23155 7753,23210 7877,23268 8001,23274 8125,23274 8249,23282 8373,23318 8497,23341 8621,23314 8745,23316 8868,23307 8992,23309 9116,23326 9240,23320 9364,23320 9488,23333 9612,23329 9736,23341 9860,23343 9984,23325 10108,23320 10232,23301 10356,23307 10480,23292 10604,23272 10728,23262 10852,23252 10976,23238 11100,23267 11223,23244 11347,23277 11471,23241 11595,23235 11719,23237 11842,23222 11966,23167 12090,23135 12214,23050 12338,23032 12462,23009 12586,22953 12710,22825 12834,22737 12958,22633 13082,22596 13206,22586 13330,22571 13454,22584 13578,22598 13701,22640 13825,22684 13949,22646 14073,22653 14197,22633 14321,22613 14445,22612 14569,22542 14693,22561 14817,22587 14941,22545 15065,22574 15189,22525 15313,22517 15437,22554 15561,22475 15685,22429 15809,22418 15933,22391 16057,22363 16180,22301 16304,22172 16428,22107 16552,22072 16676,22041 16800,22042 16924,22050 17048,22073 17172,22131 17296,22200 17420,22204 17544,22192 17668,22146 17792,22081 17916,21975 18040,21919 18164,21797 18288,21720 18412,21670 18536,21648"/>
 <path fill="none" stroke="rgb(89,131,176)" stroke-width="80" stroke-linejoin="round" d="M 1591,1629 L 1679,4685 1803,6773 1927,9170 2051,9521 2175,9876 2299,12493 2423,14449 2547,15801 2671,16720 2795,17044 2919,17985 3043,19629 3167,18789 3291,18665 3415,19173 3539,19210 3663,19781 3787,19825 3910,19737 4034,19608 4158,20285 4282,20172 4406,20610 4530,20713 4654,20780 4778,20635 4902,21270 5026,21496 5150,21612 5274,21679 5398,21628 5522,21732 5646,21803 5770,21865 5894,21814 6018,21874 6142,21863 6266,22049 6389,22225 6513,22376 6637,22508 6761,22605 6885,22679 7009,22742 7133,22710 7257,22814 7381,22897 7505,22920 7629,22884 7753,22885 7877,22908 8001,22941 8125,22920 8249,22873 8373,22853 8497,22950 8621,23014 8745,23010 8868,23026 8992,23058 9116,23111 9240,23091 9364,23003 9488,22967 9612,22999 9736,22932 9860,22891 9984,22861 10108,22883 10232,22952 10356,22984 10480,22989 10604,23057 10728,23047 10852,23058 10976,22988 11100,22979 11223,22949 11347,22909 11471,22909 11595,22961 11719,22921 11842,23004 11966,23085 12090,22955 12214,22966 12338,22937 12462,22932 12586,22953 12710,22949 12834,22919 12958,23046 13082,23091 13206,23116 13330,23121 13454,23152 13578,23221 13701,23177 13825,23227 13949,23237 14073,23237 14197,23252 14321,23223 14445,23189 14569,23243 14693,23238 14817,23238 14941,23258 15065,23243 15189,23234 15313,23254 15437,23147 15561,23162 15685,23085 15809,23056 15933,23012 16057,23018 16180,22941 16304,22895 16428,22775 16552,22805 16676,22762 16800,22519 16924,22474 17048,22357 17172,22252 17296,22015 17420,21852 17544,21741 17668,21847 17792,21670 17916,21749 18040,21718 18164,21852 18288,21820 18412,21822 18536,21789"/>
 <path fill="none" stroke="rgb(52,42,6)" stroke-width="80" stroke-linejoin="round" d="M 2173,1629 L 2175,1658 2299,3600 2423,6274 2547,8615 2671,10377 2795,11379 2919,12197 3043,13864 3167,15207 3291,16267 3415,16607 3539,17035 3663,17561 3787,17775 3910,17851 4034,18330 4158,18587 4282,19281 4406,19469 4530,19697 4654,20011 4778,20060 4902,20326 5026,20666 5150,20926 5274,21125 5398,21299 5522,21450 5646,21547 5770,21694 5894,21764 6018,21752 6142,21802 6266,21846 6389,21796 6513,21873 6637,21943 6761,22184 6885,22296 7009,22357 7133,22344 7257,22480 7381,22323 7505,22388 7629,22348 7753,22370 7877,22433 8001,22505 8125,22484 8249,22645 8373,22739 8497,22711 8621,22705 8745,22709 8868,22739 8992,22762 9116,22840 9240,22861 9364,22940 9488,23008 9612,22947 9736,22929 9860,22888 9984,22862 10108,22916 10232,22961 10356,22942 10480,23058 10604,23070 10728,23117 10852,23077 10976,22999 11100,22754 11223,22769 11347,22692 11471,22611 11595,22535 11719,22505 11842,22497 11966,22668 12090,22628 12214,22618 12338,22705 12462,22740 12586,22819 12710,22802 12834,22808 12958,22868 13082,22870 13206,22851 13330,22809 13454,22832 13578,22860 13701,22901 13825,22920 13949,22930 14073,22956 14197,23019 14321,23021 14445,23004 14569,22948 14693,22891 14817,22892 14941,22871 15065,22800 15189,22775 15313,22750 15437,22742 15561,22712 15685,22655 15809,22639 15933,22672 16057,22630 16180,22573 16304,22493 16428,22471 16552,22485 16676,22523 16800,22431 16924,22409 17048,22319 17172,22338 17296,22282 17420,22264 17544,22231 17668,22168 17792,22108 17916,22109 18040,22014 18164,21951 18288,21958 18412,21933 18536,21847"/>
 <path fill="none" stroke="rgb(255,0,0)" stroke-width="80" stroke-linejoin="round" stroke-dasharray="158,102" d="M 3738,1629 L 3787,2054 3910,3022 4034,5039 4158,7226 4282,8812 4406,9976 4530,11420 4654,13260 4778,14769 4902,15106 5026,15578 5150,16202 5274,16752 5398,17169 5522,17490 5646,17829 5770,18224 5894,18570 6018,18780 6142,19008 6266,19112 6389,19339 6513,19441 6637,19713 6761,19881 6885,19975 7009,19995 7133,20088 7257,20102 7381,20353 7505,20593 7629,20829 7753,21086 7877,21237 8001,21324 8125,21390 8249,21426 8373,21421 8497,21371 8621,21330 8745,21404 8868,21503 8992,21560 9116,21616 9240,21674 9364,21740 9488,21809 9612,21847 9736,21836 9860,21801 9984,21754 10108,21749 10232,21760 10356,21700 10480,21559 10604,21403 10728,21261 10852,21154 10976,21038 11100,20972 11223,20985 11347,21058 11471,21170 11595,21283 11719,21348 11842,21350 11966,21329 12090,21300 12214,21285 12338,21261 12462,21238 12586,21247 12710,21333 12834,21411 12958,21476 13082,21539 13206,21598 13330,21675 13454,21739 13578,21782 13701,21827 13825,21873 13949,21912 14073,21949 14197,21974 14321,21994 14445,22021 14569,22048 14693,22070 14817,22097 14941,22122 15065,22144 15189,22163 15313,22178 15437,22188 15561,22191 15685,22196 15809,22201 15933,22209 16057,22207 16180,22204 16304,22199 16428,22196 16552,22186 16676,22180 16800,22171 16924,22153 17048,22114 17172,22084 17296,22052 17420,22025 17544,21994 17668,21964 17792,21952 17916,21953 18040,21944 18164,21944 18288,21937 18412,21942 18536,21943"/>
 <path fill="none" stroke="rgb(0,0,255)" stroke-width="80" stroke-linejoin="round" stroke-dasharray="158,158" d="M 1431,19898 L 1555,20009 1679,20067 1803,20359 1927,20503 2051,20667 2175,21052 2299,21289 2423,21528 2547,21801 2671,22092 2795,22312 2919,22411 3043,22501 3167,22615 3291,22690 3415,22713 3539,22765 3663,22867 3787,22918 3910,22994 4034,23061 4158,23095 4282,23145 4406,23179 4530,23171 4654,23167 4778,23167 4902,23196 5026,23217 5150,23234 5274,23222 5398,23230 5522,23275 5646,23304 5770,23304 5894,23292 6018,23243 6142,23158 6266,23049 6389,22952 6513,22855 6637,22754 6761,22695 6885,22692 7009,22779 7133,22861 7257,22919 7381,22896 7505,22965 7629,22994 7753,22979 7877,22933 8001,22929 8125,22906 8249,22877 8373,22614 8497,22466 8621,22406 8745,22400 8868,22328 8992,22256 9116,22225 9240,22388 9364,22467 9488,22424 9612,22312 9736,22305 9860,22308 9984,22310 10108,22291 10232,22231 10356,22248 10480,22339 10604,22350 10728,22369 10852,22399 10976,22352 11100,22383 11223,22318 11347,22271 11471,22343 11595,22303 11719,22279 11842,22395 11966,22435 12090,22497 12214,22452 12338,22365 12462,22380 12586,22388 12710,22300 12834,22220 12958,22184 13082,22194 13206,22184 13330,22185 13454,22146 13578,22169 13701,22236 13825,22336 13949,22398 14073,22348 14197,22389 14321,22473 14445,22437 14569,22392 14693,22382 14817,22418 14941,22539 15065,22503 15189,22428 15313,22439 15437,22505 15561,22272 15685,22198 15809,22204 15933,22262 16057,22315 16180,22448 16304,22467 16428,22730 16552,22819 16676,22826 16800,22809 16924,22858 17048,22782 17172,22832 17296,22797 17420,22780 17544,22766 17668,22768 17792,22706 17916,22669 18040,22421 18164,22054 18288,21330 18412,20829 18536,20203"/>
 <path fill="none" stroke="rgb(241,13,12)" stroke-width="80" stroke-linejoin="round" d="M 2995,1629 L 3043,2166 3167,5271 3291,7231 3415,7549 3539,7677 3663,7215 3787,8197 3910,8678 4034,8543 4158,8793 4282,9095 4406,9713 4530,10556 4654,11213 4778,11221 4902,11747 5026,12171 5150,13649 5274,14094 5398,14863 5522,14720 5646,15476 5770,15700 5894,16168 6018,15879 6142,15886 6266,15641 6389,15888 6513,15849 6637,16192 6761,16457 6885,16665 7009,17152 7133,17140 7257,17410 7381,17833 7505,17825 7629,17995 7753,18095 7877,18314 8001,18677 8125,18498 8249,18318 8373,18542 8497,18656 8621,18600 8745,18316 8868,18152 8992,18357 9116,18220 9240,16366 9364,15954 9488,15740 9612,15507 9736,15116 9860,15025 9984,15177 10108,17046 10232,16801 10356,16619 10480,16470 10604,16758 10728,16464 10852,16443 10976,16251 11100,16465 11223,16102 11347,16911 11471,17359 11595,18021 11719,17326 11842,17267 11966,17365 12090,18171 12214,18602 12338,18814 12462,17007 12586,18015 12710,18318 12834,18868 12958,19270 13082,19270 13206,19270 13330,20002 13454,20361 13578,20873 13701,21200 13825,21357 13949,21357 14073,21357 14197,21832 14321,21903 14445,21927 14569,21990 14693,22096 14817,22096 14941,22096 15065,22205 15189,22241 15313,22337 15437,22414 15561,22516 15685,22516 15809,22516 15933,22732 16057,22744 16180,22775 16304,22744 16428,22698 16552,22698 16676,22698 16800,22596 16924,22559 17048,22523 17172,22468 17296,22453 17420,22453 17544,22453 17668,22429 17792,22439 17916,22460 18040,22481 18164,22440 18288,22440 18412,22440 18536,22394"/>
 <path fill="none" stroke="rgb(85,48,141)" stroke-width="80" stroke-linejoin="round" stroke-dasharray="80,40" d="M 3083,1629 L 3167,2776 3291,1993 3415,2173 3539,2787 3663,3096 3787,3096 3910,3489 4034,2637 4158,5764 4282,7360 4406,8198 4530,8274 4654,9605 4778,10453 4902,11733 5026,12222 5150,12369 5274,12593 5398,12137 5522,12613 5646,13175 5770,13704 5894,14058 6018,14694 6142,15191 6266,16559 6389,16919 6513,17121 6637,17490 6761,17820 6885,18134 7009,18229 7133,18346 7257,18489 7381,18612 7505,18728 7629,18832 7753,18889 7877,18988 8001,19148 8125,19243 8249,19360 8373,19513 8497,19664 8621,19861 8745,20134 8868,20251 8992,20391 9116,20573 9240,20710 9364,20915 9488,21064 9612,21200 9736,21265 9860,21382 9984,21495 10108,21602 10232,21701 10356,21824 10480,21870 10604,22035 10728,22152 10852,22220 10976,22259 11100,22288 11223,22293 11347,22298 11471,22322 11595,22335 11719,22327 11842,22368 11966,22377 12090,22497 12214,22586 12338,22589 12462,22467 12586,22505 12710,22562 12834,22574 12958,22512 13082,22525 13206,22572 13330,22667 13454,22693 13578,22645 13701,22661 13825,22660 13949,22685 14073,22691 14197,22607 14321,22545 14445,22535 14569,22485 14693,22454 14817,22395 14941,22359 15065,22312 15189,22249 15313,22263 15437,22207 15561,22093 15685,22082 15809,22075 15933,22119 16057,22177 16180,22116 16304,22233 16428,22284 16552,22331 16676,22362 16800,22547 16924,22444 17048,22490 17172,22480 17296,22517 17420,22518 17544,22530 17668,22355 17792,22489 17916,22514 18040,22472 18164,22509 18288,22520 18412,22537 18536,22711"/>
 <path fill="none" stroke="rgb(255,128,0)" stroke-width="80" stroke-linejoin="round" d="M 2853,1629 L 2919,2998 3043,5243 3167,6496 3291,7276 3415,7779 3539,7864 3663,8304 3787,8660 3910,9108 4034,9625 4158,10350 4282,10910 4406,11743 4530,12235 4654,12705 4778,13099 4902,13520 5026,13932 5150,14318 5274,14690 5398,15019 5522,15615 5646,16106 5770,16743 5894,17222 6018,17783 6142,18135 6266,18370 6389,18413 6513,18573 6637,18784 6761,19117 6885,19294 7009,19353 7133,19501 7257,19772 7381,19897 7505,20066 7629,20118 7753,20248 7877,20385 8001,20498 8125,20712 8249,21006 8373,21198 8497,21370 8621,21483 8745,21567 8868,21628 8992,21670 9116,21715 9240,21807 9364,21905 9488,21982 9612,22042 9736,22108 9860,22174 9984,22234 10108,22268 10232,22312 10356,22326 10480,22314 10604,22302 10728,22318 10852,22335 10976,22371 11100,22373 11223,22388 11347,22427 11471,22460 11595,22486 11719,22522 11842,22561 11966,22615 12090,22672 12214,22679 12338,22715 12462,22760 12586,22837 12710,22949 12834,23057 12958,23080 13082,23082 13206,23065 13330,23106 13454,23079 13578,22991 13701,22894 13825,22891 13949,22862 14073,22843 14197,22817 14321,22719 14445,22735 14569,22736 14693,22713 14817,22715 14941,22705 15065,22699 15189,22821 15313,22819 15437,22801 15561,22790 15685,22801 15809,22799 15933,22785 16057,22770 16180,22737 16304,22729 16428,22714 16552,22716 16676,22718 16800,22683 16924,22667 17048,22654 17172,22640 17296,22640 17420,22643 17544,22592 17668,22613 17792,22547 17916,22531 18040,22508 18164,22432 18288,22396 18412,22400 18536,22416"/>
 <path fill="none" stroke="rgb(0,127,255)" stroke-width="80" stroke-linejoin="round" d="M 1431,2219 L 1555,4689 1679,6642 1803,8283 1927,9498 2051,10249 2175,11175 2299,12082 2423,12719 2547,13362 2671,13791 2795,14192 2919,14591 3043,14812 3167,15418 3291,15781 3415,16123 3539,16695 3663,17165 3787,17536 3910,17710 4034,17617 4158,18044 4282,18274 4406,18659 4530,18918 4654,19099 4778,19316 4902,19691 5026,19922 5150,20217 5274,20359 5398,20602 5522,20741 5646,20990 5770,21153 5894,21275 6018,21430 6142,21619 6266,21753 6389,21862 6513,21803 6637,21928 6761,22021 6885,22138 7009,22186 7133,22216 7257,22279 7381,22403 7505,22451 7629,22524 7753,22554 7877,22598 8001,22629 8125,22660 8249,22743 8373,22761 8497,22772 8621,22800 8745,22850 8868,22889 8992,22909 9116,22925 9240,22976 9364,23056 9488,23057 9612,23085 9736,23111 9860,23096 9984,23103 10108,23126 10232,23089 10356,23156 10480,23142 10604,23116 10728,23113 10852,23127 10976,23104 11100,23113 11223,23171 11347,23186 11471,23208 11595,23223 11719,23241 11842,23196 11966,23203 12090,23128 12214,23145 12338,23155 12462,23172 12586,23167 12710,23240 12834,23258 12958,23264 13082,23253 13206,23250 13330,23235 13454,23236 13578,23234 13701,23232 13825,23223 13949,23232 14073,23224 14197,23231 14321,23236 14445,23242 14569,23239 14693,23247 14817,23236 14941,23240 15065,23236 15189,23234 15313,23213 15437,23199 15561,23196 15685,23191 15809,23185 15933,23189 16057,23176 16180,23175 16304,23162 16428,23140 16552,23137 16676,23140 16800,23142 16924,23144 17048,23127 17172,23125 17296,23095 17420,23086 17544,23047 17668,23029 17792,22991 17916,22975 18040,22955 18164,22952 18288,22904 18412,22902 18536,22892"/>
 <path fill="none" stroke="rgb(112,110,12)" stroke-width="80" stroke-linejoin="round" stroke-dasharray="80,40" d="M 2882,1629 L 2919,2283 3043,3751 3167,5141 3291,6757 3415,8712 3539,9855 3663,10918 3787,11725 3910,12612 4034,14564 4158,15714 4282,15715 4406,15263 4530,15464 4654,15817 4778,16315 4902,16466 5026,16698 5150,17575 5274,18709 5398,19181 5522,19450 5646,19622 5770,19944 5894,20169 6018,20354 6142,20673 6266,20864 6389,21005 6513,21133 6637,21235 6761,21406 6885,21448 7009,21504 7133,21567 7257,21630 7381,21632 7505,21727 7629,21778 7753,21926 7877,22018 8001,22064 8125,22069 8249,22125 8373,22179 8497,22226 8621,22250 8745,22304 8868,22367 8992,22408 9116,22381 9240,22394 9364,22485 9488,22546 9612,22581 9736,22623 9860,22653 9984,22732 10108,22777 10232,22815 10356,22847 10480,22871 10604,22882 10728,22893 10852,22900 10976,22913 11100,22928 11223,22932 11347,22956 11471,22961 11595,22969 11719,22974 11842,22973 11966,22959 12090,22959 12214,22961 12338,22968 12462,22987 12586,22996 12710,22991 12834,22978 12958,22967 13082,22965 13206,22975 13330,22961 13454,22955 13578,22948 13701,22982 13825,22998 13949,22998 14073,22983 14197,22979 14321,22944 14445,22930 14569,22911 14693,22913 14817,22911 14941,22931 15065,22936 15189,22944 15313,22958 15437,22955 15561,22958 15685,22960 15809,22957 15933,22948 16057,22983 16180,22983 16304,22988 16428,23000 16552,23001 16676,23002 16800,23010 16924,22988 17048,22997 17172,23006 17296,22999 17420,23005 17544,23007 17668,23015 17792,23024 17916,23018 18040,23016 18164,23015 18288,23013 18412,23004 18536,23011"/>
 <text class="TextShape" transform="rotate(-90 1525 24415)"><tspan class="TextParagraph" font-family="Liberation Sans, sans-serif" font-size="282px" font-weight="400"><tspan class="TextPosition" x="1525" y="24415"><tspan fill="rgb(0,0,0)" stroke="none">01.04</tspan></tspan></tspan></text>
 <text class="TextShape" transform="rotate(-90 1897 24415)"><tspan class="TextParagraph" font-family="Liberation Sans, sans-serif" font-size="282px" font-weight="400"><tspan class="TextPosition" x="1897" y="24415"><tspan fill="rgb(0,0,0)" stroke="none">04.04</tspan></tspan></tspan></text>
 <text class="TextShape" transform="rotate(-90 2269 24415)"><tspan class="TextParagraph" font-family="Liberation Sans, sans-serif" font-size="282px" font-weight="400"><tspan class="TextPosition" x="2269" y="24415"><tspan fill="rgb(0,0,0)" stroke="none">07.04</tspan></tspan></tspan></text>
 <text class="TextShape" transform="rotate(-90 2641 24415)"><tspan class="TextParagraph" font-family="Liberation Sans, sans-serif" font-size="282px" font-weight="400"><tspan class="TextPosition" x="2641" y="24415"><tspan fill="rgb(0,0,0)" stroke="none">10.04</tspan></tspan></tspan></text>
 <text class="TextShape" transform="rotate(-90 3013 24415)"><tspan class="TextParagraph" font-family="Liberation Sans, sans-serif" font-size="282px" font-weight="400"><tspan class="TextPosition" x="3013" y="24415"><tspan fill="rgb(0,0,0)" stroke="none">13.04</tspan></tspan></tspan></text>
 <text class="TextShape" transform="rotate(-90 3385 24415)"><tspan class="TextParagraph" font-family="Liberation Sans, sans-serif" font-size="282px" font-weight="400"><tspan class="TextPosition" x="3385" y="24415"><tspan fill="rgb(0,0,0)" stroke="none">16.04</tspan></tspan></tspan></text>
 <text class="TextShape" transform="rotate(-90 3757 24415)"><tspan class="TextParagraph" font-family="Liberation Sans, sans-serif" font-size="282px" font-weight="400"><tspan class="TextPosition" x="3757" y="24415"><tspan fill="rgb(0,0,0)" stroke="none">19.04</tspan></tspan></tspan></text>
 <text class="TextShape" transform="rotate(-90 4128 24415)"><tspan class="TextParagraph" font-family="Liberation Sans, sans-serif" font-size="282px" font-weight="400"><tspan class="TextPosition" x="4128" y="24415"><tspan fill="rgb(0,0,0)" stroke="none">22.04</tspan></tspan></tspan></text>
 <text class="TextShape" transform="rotate(-90 4500 24415)"><tspan class="TextParagraph" font-family="Liberation Sans, sans-serif" font-size="282px" font-weight="400"><tspan class="TextPosition" x="4500" y="24415"><tspan fill="rgb(0,0,0)" stroke="none">25.04</tspan></tspan></tspan></text>
 <text class="TextShape" transform="rotate(-90 4872 24415)"><tspan class="TextParagraph" font-family="Liberation Sans, sans-serif" font-size="282px" font-weight="400"><tspan class="TextPosition" x="4872" y="24415"><tspan fill="rgb(0,0,0)" stroke="none">28.04</tspan></tspan></tspan></text>
 <text class="TextShape" transform="rotate(-90 5244 24415)"><tspan class="TextParagraph" font-family="Liberation Sans, sans-serif" font-size="282px" font-weight="400"><tspan class="TextPosition" x="5244" y="24415"><tspan fill="rgb(0,0,0)" stroke="none">01.05</tspan></tspan></tspan></text>
 <text class="TextShape" transform="rotate(-90 5616 24415)"><tspan class="TextParagraph" font-family="Liberation Sans, sans-serif" font-size="282px" font-weight="400"><tspan class="TextPosition" x="5616" y="24415"><tspan fill="rgb(0,0,0)" stroke="none">04.05</tspan></tspan></tspan></text>
 <text class="TextShape" transform="rotate(-90 5988 24415)"><tspan class="TextParagraph" font-family="Liberation Sans, sans-serif" font-size="282px" font-weight="400"><tspan class="TextPosition" x="5988" y="24415"><tspan fill="rgb(0,0,0)" stroke="none">07.05</tspan></tspan></tspan></text>
 <text class="TextShape" transform="rotate(-90 6360 24415)"><tspan class="TextParagraph" font-family="Liberation Sans, sans-serif" font-size="282px" font-weight="400"><tspan class="TextPosition" x="6360" y="24415"><tspan fill="rgb(0,0,0)" stroke="none">10.05</tspan></tspan></tspan></text>
 <text class="TextShape" transform="rotate(-90 6731 24415)"><tspan class="TextParagraph" font-family="Liberation Sans, sans-serif" font-size="282px" font-weight="400"><tspan class="TextPosition" x="6731" y="24415"><tspan fill="rgb(0,0,0)" stroke="none">13.05</tspan></tspan></tspan></text>
 <text class="TextShape" transform="rotate(-90 7103 24415)"><tspan class="TextParagraph" font-family="Liberation Sans, sans-serif" font-size="282px" font-weight="400"><tspan class="TextPosition" x="7103" y="24415"><tspan fill="rgb(0,0,0)" stroke="none">16.05</tspan></tspan></tspan></text>
 <text class="TextShape" transform="rotate(-90 7475 24415)"><tspan class="TextParagraph" font-family="Liberation Sans, sans-serif" font-size="282px" font-weight="400"><tspan class="TextPosition" x="7475" y="24415"><tspan fill="rgb(0,0,0)" stroke="none">19.05</tspan></tspan></tspan></text>
 <text class="TextShape" transform="rotate(-90 7847 24415)"><tspan class="TextParagraph" font-family="Liberation Sans, sans-serif" font-size="282px" font-weight="400"><tspan class="TextPosition" x="7847" y="24415"><tspan fill="rgb(0,0,0)" stroke="none">22.05</tspan></tspan></tspan></text>
 <text class="TextShape" transform="rotate(-90 8219 24415)"><tspan class="TextParagraph" font-family="Liberation Sans, sans-serif" font-size="282px" font-weight="400"><tspan class="TextPosition" x="8219" y="24415"><tspan fill="rgb(0,0,0)" stroke="none">25.05</tspan></tspan></tspan></text>
 <text class="TextShape" transform="rotate(-90 8591 24415)"><tspan class="TextParagraph" font-family="Liberation Sans, sans-serif" font-size="282px" font-weight="400"><tspan class="TextPosition" x="8591" y="24415"><tspan fill="rgb(0,0,0)" stroke="none">28.05</tspan></tspan></tspan></text>
 <text class="TextShape" transform="rotate(-90 8962 24415)"><tspan class="TextParagraph" font-family="Liberation Sans, sans-serif" font-size="282px" font-weight="400"><tspan class="TextPosition" x="8962" y="24415"><tspan fill="rgb(0,0,0)" stroke="none">31.05</tspan></tspan></tspan></text>
 <text class="TextShape" transform="rotate(-90 9334 24415)"><tspan class="TextParagraph" font-family="Liberation Sans, sans-serif" font-size="282px" font-weight="400"><tspan class="TextPosition" x="9334" y="24415"><tspan fill="rgb(0,0,0)" stroke="none">03.06</tspan></tspan></tspan></text>
 <text class="TextShape" transform="rotate(-90 9706 24415)"><tspan class="TextParagraph" font-family="Liberation Sans, sans-serif" font-size="282px" font-weight="400"><tspan class="TextPosition" x="9706" y="24415"><tspan fill="rgb(0,0,0)" stroke="none">06.06</tspan></tspan></tspan></text>
 <text class="TextShape" transform="rotate(-90 10078 24415)"><tspan class="TextParagraph" font-family="Liberation Sans, sans-serif" font-size="282px" font-weight="400"><tspan class="TextPosition" x="10078" y="24415"><tspan fill="rgb(0,0,0)" stroke="none">09.06</tspan></tspan></tspan></text>
 <text class="TextShape" transform="rotate(-90 10450 24415)"><tspan class="TextParagraph" font-family="Liberation Sans, sans-serif" font-size="282px" font-weight="400"><tspan class="TextPosition" x="10450" y="24415"><tspan fill="rgb(0,0,0)" stroke="none">12.06</tspan></tspan></tspan></text>
 <text class="TextShape" transform="rotate(-90 10822 24415)"><tspan class="TextParagraph" font-family="Liberation Sans, sans-serif" font-size="282px" font-weight="400"><tspan class="TextPosition" x="10822" y="24415"><tspan fill="rgb(0,0,0)" stroke="none">15.06</tspan></tspan></tspan></text>
 <text class="TextShape" transform="rotate(-90 11194 24415)"><tspan class="TextParagraph" font-family="Liberation Sans, sans-serif" font-size="282px" font-weight="400"><tspan class="TextPosition" x="11194" y="24415"><tspan fill="rgb(0,0,0)" stroke="none">18.06</tspan></tspan></tspan></text>
 <text class="TextShape" transform="rotate(-90 11565 24415)"><tspan class="TextParagraph" font-family="Liberation Sans, sans-serif" font-size="282px" font-weight="400"><tspan class="TextPosition" x="11565" y="24415"><tspan fill="rgb(0,0,0)" stroke="none">21.06</tspan></tspan></tspan></text>
 <text class="TextShape" transform="rotate(-90 11936 24415)"><tspan class="TextParagraph" font-family="Liberation Sans, sans-serif" font-size="282px" font-weight="400"><tspan class="TextPosition" x="11936" y="24415"><tspan fill="rgb(0,0,0)" stroke="none">24.06</tspan></tspan></tspan></text>
 <text class="TextShape" transform="rotate(-90 12308 24415)"><tspan class="TextParagraph" font-family="Liberation Sans, sans-serif" font-size="282px" font-weight="400"><tspan class="TextPosition" x="12308" y="24415"><tspan fill="rgb(0,0,0)" stroke="none">27.06</tspan></tspan></tspan></text>
 <text class="TextShape" transform="rotate(-90 12680 24415)"><tspan class="TextParagraph" font-family="Liberation Sans, sans-serif" font-size="282px" font-weight="400"><tspan class="TextPosition" x="12680" y="24415"><tspan fill="rgb(0,0,0)" stroke="none">30.06</tspan></tspan></tspan></text>
 <text class="TextShape" transform="rotate(-90 13052 24415)"><tspan class="TextParagraph" font-family="Liberation Sans, sans-serif" font-size="282px" font-weight="400"><tspan class="TextPosition" x="13052" y="24415"><tspan fill="rgb(0,0,0)" stroke="none">03.07</tspan></tspan></tspan></text>
 <text class="TextShape" transform="rotate(-90 13424 24415)"><tspan class="TextParagraph" font-family="Liberation Sans, sans-serif" font-size="282px" font-weight="400"><tspan class="TextPosition" x="13424" y="24415"><tspan fill="rgb(0,0,0)" stroke="none">06.07</tspan></tspan></tspan></text>
 <text class="TextShape" transform="rotate(-90 13795 24415)"><tspan class="TextParagraph" font-family="Liberation Sans, sans-serif" font-size="282px" font-weight="400"><tspan class="TextPosition" x="13795" y="24415"><tspan fill="rgb(0,0,0)" stroke="none">09.07</tspan></tspan></tspan></text>
 <text class="TextShape" transform="rotate(-90 14167 24415)"><tspan class="TextParagraph" font-family="Liberation Sans, sans-serif" font-size="282px" font-weight="400"><tspan class="TextPosition" x="14167" y="24415"><tspan fill="rgb(0,0,0)" stroke="none">12.07</tspan></tspan></tspan></text>
 <text class="TextShape" transform="rotate(-90 14539 24415)"><tspan class="TextParagraph" font-family="Liberation Sans, sans-serif" font-size="282px" font-weight="400"><tspan class="TextPosition" x="14539" y="24415"><tspan fill="rgb(0,0,0)" stroke="none">15.07</tspan></tspan></tspan></text>
 <text class="TextShape" transform="rotate(-90 14911 24415)"><tspan class="TextParagraph" font-family="Liberation Sans, sans-serif" font-size="282px" font-weight="400"><tspan class="TextPosition" x="14911" y="24415"><tspan fill="rgb(0,0,0)" stroke="none">18.07</tspan></tspan></tspan></text>
 <text class="TextShape" transform="rotate(-90 15283 24415)"><tspan class="TextParagraph" font-family="Liberation Sans, sans-serif" font-size="282px" font-weight="400"><tspan class="TextPosition" x="15283" y="24415"><tspan fill="rgb(0,0,0)" stroke="none">21.07</tspan></tspan></tspan></text>
 <text class="TextShape" transform="rotate(-90 15655 24415)"><tspan class="TextParagraph" font-family="Liberation Sans, sans-serif" font-size="282px" font-weight="400"><tspan class="TextPosition" x="15655" y="24415"><tspan fill="rgb(0,0,0)" stroke="none">24.07</tspan></tspan></tspan></text>
 <text class="TextShape" transform="rotate(-90 16027 24415)"><tspan class="TextParagraph" font-family="Liberation Sans, sans-serif" font-size="282px" font-weight="400"><tspan class="TextPosition" x="16027" y="24415"><tspan fill="rgb(0,0,0)" stroke="none">27.07</tspan></tspan></tspan></text>
 <text class="TextShape" transform="rotate(-90 16398 24415)"><tspan class="TextParagraph" font-family="Liberation Sans, sans-serif" font-size="282px" font-weight="400"><tspan class="TextPosition" x="16398" y="24415"><tspan fill="rgb(0,0,0)" stroke="none">30.07</tspan></tspan></tspan></text>
 <text class="TextShape" transform="rotate(-90 16770 24415)"><tspan class="TextParagraph" font-family="Liberation Sans, sans-serif" font-size="282px" font-weight="400"><tspan class="TextPosition" x="16770" y="24415"><tspan fill="rgb(0,0,0)" stroke="none">02.08</tspan></tspan></tspan></text>
 <text class="TextShape" transform="rotate(-90 17142 24415)"><tspan class="TextParagraph" font-family="Liberation Sans, sans-serif" font-size="282px" font-weight="400"><tspan class="TextPosition" x="17142" y="24415"><tspan fill="rgb(0,0,0)" stroke="none">05.08</tspan></tspan></tspan></text>
 <text class="TextShape" transform="rotate(-90 17514 24415)"><tspan class="TextParagraph" font-family="Liberation Sans, sans-serif" font-size="282px" font-weight="400"><tspan class="TextPosition" x="17514" y="24415"><tspan fill="rgb(0,0,0)" stroke="none">08.08</tspan></tspan></tspan></text>
 <text class="TextShape" transform="rotate(-90 17886 24415)"><tspan class="TextParagraph" font-family="Liberation Sans, sans-serif" font-size="282px" font-weight="400"><tspan class="TextPosition" x="17886" y="24415"><tspan fill="rgb(0,0,0)" stroke="none">11.08</tspan></tspan></tspan></text>
 <text class="TextShape" transform="rotate(-90 18258 24415)"><tspan class="TextParagraph" font-family="Liberation Sans, sans-serif" font-size="282px" font-weight="400"><tspan class="TextPosition" x="18258" y="24415"><tspan fill="rgb(0,0,0)" stroke="none">14.08</tspan></tspan></tspan></text>
 <text class="TextShape" transform="rotate(-90 18630 24415)"><tspan class="TextParagraph" font-family="Liberation Sans, sans-serif" font-size="282px" font-weight="400"><tspan class="TextPosition" x="18630" y="24415"><tspan fill="rgb(0,0,0)" stroke="none">17.08</tspan></tspan></tspan></text>
 <text class="TextShape"><tspan class="TextParagraph" font-family="Liberation Sans, sans-serif" font-size="388px" font-weight="400"><tspan class="TextPosition" x="378" y="23615"><tspan fill="rgb(0,0,0)" stroke="none">1,00</tspan></tspan></tspan></text>
 <text class="TextShape"><tspan class="TextParagraph" font-family="Liberation Sans, sans-serif" font-size="388px" font-weight="400"><tspan class="TextPosition" x="378" y="21429"><tspan fill="rgb(0,0,0)" stroke="none">1,05</tspan></tspan></tspan></text>
 <text class="TextShape"><tspan class="TextParagraph" font-family="Liberation Sans, sans-serif" font-size="388px" font-weight="400"><tspan class="TextPosition" x="378" y="19243"><tspan fill="rgb(0,0,0)" stroke="none">1,10</tspan></tspan></tspan></text>
 <text class="TextShape"><tspan class="TextParagraph" font-family="Liberation Sans, sans-serif" font-size="388px" font-weight="400"><tspan class="TextPosition" x="378" y="17057"><tspan fill="rgb(0,0,0)" stroke="none">1,15</tspan></tspan></tspan></text>
 <text class="TextShape"><tspan class="TextParagraph" font-family="Liberation Sans, sans-serif" font-size="388px" font-weight="400"><tspan class="TextPosition" x="378" y="14871"><tspan fill="rgb(0,0,0)" stroke="none">1,20</tspan></tspan></tspan></text>
 <text class="TextShape"><tspan class="TextParagraph" font-family="Liberation Sans, sans-serif" font-size="388px" font-weight="400"><tspan class="TextPosition" x="378" y="12685"><tspan fill="rgb(0,0,0)" stroke="none">1,25</tspan></tspan></tspan></text>
 <text class="TextShape"><tspan class="TextParagraph" font-family="Liberation Sans, sans-serif" font-size="388px" font-weight="400"><tspan class="TextPosition" x="378" y="10499"><tspan fill="rgb(0,0,0)" stroke="none">1,30</tspan></tspan></tspan></text>
 <text class="TextShape"><tspan class="TextParagraph" font-family="Liberation Sans, sans-serif" font-size="388px" font-weight="400"><tspan class="TextPosition" x="378" y="8313"><tspan fill="rgb(0,0,0)" stroke="none">1,35</tspan></tspan></tspan></text>
 <text class="TextShape"><tspan class="TextParagraph" font-family="Liberation Sans, sans-serif" font-size="388px" font-weight="400"><tspan class="TextPosition" x="378" y="6127"><tspan fill="rgb(0,0,0)" stroke="none">1,40</tspan></tspan></tspan></text>
 <text class="TextShape"><tspan class="TextParagraph" font-family="Liberation Sans, sans-serif" font-size="388px" font-weight="400"><tspan class="TextPosition" x="378" y="3941"><tspan fill="rgb(0,0,0)" stroke="none">1,45</tspan></tspan></tspan></text>
 <text class="TextShape"><tspan class="TextParagraph" font-family="Liberation Sans, sans-serif" font-size="388px" font-weight="400"><tspan class="TextPosition" x="378" y="1756"><tspan fill="rgb(0,0,0)" stroke="none">1,50</tspan></tspan></tspan></text>
 <text class="TextShape"><tspan class="TextParagraph" font-family="Liberation Sans, sans-serif" font-size="494px" font-weight="700"><tspan class="TextPosition" x="638" y="990"><tspan fill="rgb(0,0,0)" stroke="none">Tdenn koeficient celkovho potu infikovanch</tspan></tspan></tspan></text>
 <path fill="none" stroke="rgb(128,0,128)" stroke-width="80" stroke-linejoin="round" stroke-dasharray="158,158" d="M 18792,1957 L 20392,1957"/>
 <path fill="none" stroke="rgb(255,191,0)" stroke-width="80" stroke-linejoin="round" stroke-dasharray="80,40" d="M 18792,2832 L 20392,2832"/>
 <path fill="none" stroke="rgb(0,0,255)" stroke-width="80" stroke-linejoin="round" stroke-dasharray="80,40" d="M 18792,3707 L 20392,3707"/>
 <path fill="none" stroke="rgb(21,132,102)" stroke-width="80" stroke-linejoin="round" stroke-dasharray="80,203,80,203,203,203" d="M 18792,4582 L 20392,4582"/>
 <path fill="none" stroke="rgb(255,64,0)" stroke-width="80" stroke-linejoin="round" stroke-dasharray="80,40" d="M 18792,5457 L 20392,5457"/>
 <path fill="none" stroke="rgb(0,169,51)" stroke-width="80" stroke-linejoin="round" stroke-dasharray="80,40" d="M 18792,6332 L 20392,6332"/>
 <path fill="none" stroke="rgb(255,211,32)" stroke-width="80" stroke-linejoin="round" d="M 18792,7207 L 20392,7207"/>
 <path fill="none" stroke="rgb(128,0,128)" stroke-width="80" stroke-linejoin="round" d="M 18792,8082 L 20392,8082"/>
 <path fill="none" stroke="rgb(191,0,65)" stroke-width="80" stroke-linejoin="round" stroke-dasharray="80,40" d="M 18792,8957 L 20392,8957"/>
 <path fill="none" stroke="rgb(141,40,30)" stroke-width="80" stroke-linejoin="round" stroke-dasharray="80,40" d="M 18792,9832 L 20392,9832"/>
 <path fill="none" stroke="rgb(180,120,4)" stroke-width="80" stroke-linejoin="round" d="M 18792,10707 L 20392,10707"/>
 <path fill="none" stroke="rgb(0,0,255)" stroke-width="80" stroke-linejoin="round" stroke-dasharray="51,127,51,127,254,127,254,127,254,127" d="M 18792,11582 L 20392,11582"/>
 <path fill="none" stroke="rgb(0,169,51)" stroke-width="80" stroke-linejoin="round" stroke-dasharray="158,102" d="M 18792,12457 L 20392,12457"/>
 <path fill="none" stroke="rgb(0,169,51)" stroke-width="80" stroke-linejoin="round" d="M 18792,13331 L 20392,13331"/>
 <path fill="none" stroke="rgb(0,223,255)" stroke-width="80" stroke-linejoin="round" stroke-dasharray="158,102" d="M 18792,14206 L 20392,14206"/>
 <path fill="none" stroke="rgb(0,255,0)" stroke-width="80" stroke-linejoin="round" d="M 18792,15081 L 20392,15081"/>
 <path fill="none" stroke="rgb(89,131,176)" stroke-width="80" stroke-linejoin="round" d="M 18792,15956 L 20392,15956"/>
 <path fill="none" stroke="rgb(52,42,6)" stroke-width="80" stroke-linejoin="round" d="M 18792,16831 L 20392,16831"/>
 <path fill="none" stroke="rgb(255,0,0)" stroke-width="80" stroke-linejoin="round" stroke-dasharray="158,102" d="M 18792,17706 L 20392,17706"/>
 <path fill="none" stroke="rgb(0,0,255)" stroke-width="80" stroke-linejoin="round" stroke-dasharray="158,158" d="M 18792,18581 L 20392,18581"/>
 <path fill="none" stroke="rgb(241,13,12)" stroke-width="80" stroke-linejoin="round" d="M 18792,19456 L 20392,19456"/>
 <path fill="none" stroke="rgb(85,48,141)" stroke-width="80" stroke-linejoin="round" stroke-dasharray="80,40" d="M 18792,20331 L 20392,20331"/>
 <path fill="none" stroke="rgb(255,128,0)" stroke-width="80" stroke-linejoin="round" d="M 18792,21206 L 20392,21206"/>
 <path fill="none" stroke="rgb(0,127,255)" stroke-width="80" stroke-linejoin="round" d="M 18792,22081 L 20392,22081"/>
 <path fill="none" stroke="rgb(112,110,12)" stroke-width="80" stroke-linejoin="round" stroke-dasharray="80,40" d="M 18792,22956 L 20392,22956"/>
 <text class="TextShape"><tspan class="TextParagraph" font-family="Liberation Sans, sans-serif" font-size="423px" font-weight="400"><tspan class="TextPosition" x="20492" y="2105"><tspan fill="rgb(0,0,0)" stroke="none">Indie</tspan></tspan></tspan></text>
 <text class="TextShape"><tspan class="TextParagraph" font-family="Liberation Sans, sans-serif" font-size="423px" font-weight="400"><tspan class="TextPosition" x="20492" y="2980"><tspan fill="rgb(0,0,0)" stroke="none">Stt Kalifornie</tspan></tspan></tspan></text>
 <text class="TextShape"><tspan class="TextParagraph" font-family="Liberation Sans, sans-serif" font-size="423px" font-weight="400"><tspan class="TextPosition" x="20492" y="3855"><tspan fill="rgb(0,0,0)" stroke="none">Stt Texas</tspan></tspan></tspan></text>
 <text class="TextShape"><tspan class="TextParagraph" font-family="Liberation Sans, sans-serif" font-size="423px" font-weight="400"><tspan class="TextPosition" x="20492" y="4730"><tspan fill="rgb(0,0,0)" stroke="none">celosvtov</tspan></tspan></tspan></text>
 <text class="TextShape"><tspan class="TextParagraph" font-family="Liberation Sans, sans-serif" font-size="423px" font-weight="400"><tspan class="TextPosition" x="20492" y="5605"><tspan fill="rgb(0,0,0)" stroke="none">Brazlie</tspan></tspan></tspan></text>
 <text class="TextShape"><tspan class="TextParagraph" font-family="Liberation Sans, sans-serif" font-size="423px" font-weight="400"><tspan class="TextPosition" x="20492" y="6480"><tspan fill="rgb(0,0,0)" stroke="none">Mexiko</tspan></tspan></tspan></text>
 <text class="TextShape"><tspan class="TextParagraph" font-family="Liberation Sans, sans-serif" font-size="423px" font-weight="400"><tspan class="TextPosition" x="20492" y="7355"><tspan fill="rgb(0,0,0)" stroke="none">esko</tspan></tspan></tspan></text>
 <text class="TextShape"><tspan class="TextParagraph" font-family="Liberation Sans, sans-serif" font-size="423px" font-weight="400"><tspan class="TextPosition" x="20492" y="8230"><tspan fill="rgb(0,0,0)" stroke="none">panlsko</tspan></tspan></tspan></text>
 <text class="TextShape"><tspan class="TextParagraph" font-family="Liberation Sans, sans-serif" font-size="423px" font-weight="400"><tspan class="TextPosition" x="20492" y="9105"><tspan fill="rgb(0,0,0)" stroke="none">Stt Florida</tspan></tspan></tspan></text>
 <text class="TextShape"><tspan class="TextParagraph" font-family="Liberation Sans, sans-serif" font-size="423px" font-weight="400"><tspan class="TextPosition" x="20492" y="9980"><tspan fill="rgb(0,0,0)" stroke="none">USA</tspan></tspan></tspan></text>
 <text class="TextShape"><tspan class="TextParagraph" font-family="Liberation Sans, sans-serif" font-size="423px" font-weight="400"><tspan class="TextPosition" x="20492" y="10855"><tspan fill="rgb(0,0,0)" stroke="none">Dnsko</tspan></tspan></tspan></text>
 <text class="TextShape"><tspan class="TextParagraph" font-family="Liberation Sans, sans-serif" font-size="423px" font-weight="400"><tspan class="TextPosition" x="20492" y="11730"><tspan fill="rgb(0,0,0)" stroke="none">EU</tspan></tspan></tspan></text>
 <text class="TextShape"><tspan class="TextParagraph" font-family="Liberation Sans, sans-serif" font-size="423px" font-weight="400"><tspan class="TextPosition" x="20492" y="12604"><tspan fill="rgb(0,0,0)" stroke="none">rn</tspan></tspan></tspan></text>
 <text class="TextShape"><tspan class="TextParagraph" font-family="Liberation Sans, sans-serif" font-size="423px" font-weight="400"><tspan class="TextPosition" x="20492" y="13479"><tspan fill="rgb(0,0,0)" stroke="none">Rakousko</tspan></tspan></tspan></text>
 <text class="TextShape"><tspan class="TextParagraph" font-family="Liberation Sans, sans-serif" font-size="423px" font-weight="400"><tspan class="TextPosition" x="20492" y="14354"><tspan fill="rgb(0,0,0)" stroke="none">Rusko</tspan></tspan></tspan></text>
 <text class="TextShape"><tspan class="TextParagraph" font-family="Liberation Sans, sans-serif" font-size="423px" font-weight="400"><tspan class="TextPosition" x="20492" y="15229"><tspan fill="rgb(0,0,0)" stroke="none">vcarsko</tspan></tspan></tspan></text>
 <text class="TextShape"><tspan class="TextParagraph" font-family="Liberation Sans, sans-serif" font-size="423px" font-weight="400"><tspan class="TextPosition" x="20492" y="16104"><tspan fill="rgb(0,0,0)" stroke="none">Norsko</tspan></tspan></tspan></text>
 <text class="TextShape"><tspan class="TextParagraph" font-family="Liberation Sans, sans-serif" font-size="423px" font-weight="400"><tspan class="TextPosition" x="20492" y="16979"><tspan fill="rgb(0,0,0)" stroke="none">Nmecko</tspan></tspan></tspan></text>
 <text class="TextShape"><tspan class="TextParagraph" font-family="Liberation Sans, sans-serif" font-size="423px" font-weight="400"><tspan class="TextPosition" x="20492" y="17854"><tspan fill="rgb(0,0,0)" stroke="none">Turecko</tspan></tspan></tspan></text>
 <text class="TextShape"><tspan class="TextParagraph" font-family="Liberation Sans, sans-serif" font-size="423px" font-weight="400"><tspan class="TextPosition" x="20492" y="18729"><tspan fill="rgb(0,0,0)" stroke="none">Jin Korea</tspan></tspan></tspan></text>
 <text class="TextShape"><tspan class="TextParagraph" font-family="Liberation Sans, sans-serif" font-size="423px" font-weight="400"><tspan class="TextPosition" x="20492" y="19604"><tspan fill="rgb(0,0,0)" stroke="none">vdsko</tspan></tspan></tspan></text>
 <text class="TextShape"><tspan class="TextParagraph" font-family="Liberation Sans, sans-serif" font-size="423px" font-weight="400"><tspan class="TextPosition" x="20492" y="20479"><tspan fill="rgb(0,0,0)" stroke="none">Kanada</tspan></tspan></tspan></text>
 <text class="TextShape"><tspan class="TextParagraph" font-family="Liberation Sans, sans-serif" font-size="423px" font-weight="400"><tspan class="TextPosition" x="20492" y="21354"><tspan fill="rgb(0,0,0)" stroke="none">Velk Britnie</tspan></tspan></tspan></text>
 <text class="TextShape"><tspan class="TextParagraph" font-family="Liberation Sans, sans-serif" font-size="423px" font-weight="400"><tspan class="TextPosition" x="20492" y="22229"><tspan fill="rgb(0,0,0)" stroke="none">Itlie</tspan></tspan></tspan></text>
 <text class="TextShape"><tspan class="TextParagraph" font-family="Liberation Sans, sans-serif" font-size="423px" font-weight="400"><tspan class="TextPosition" x="20492" y="23104"><tspan fill="rgb(0,0,0)" stroke="none">Stt New York</tspan></tspan></tspan></text>
</svg>