<?xml version="1.0" encoding="UTF-8"?>
<!DOCTYPE svg PUBLIC "-//W3C//DTD SVG 1.1//EN" "http://www.w3.org/Graphics/SVG/1.1/DTD/svg11.dtd">
<svg width="236mm" height="238mm" viewBox="0 0 23600 23800" version="1.1" xmlns="http://www.w3.org/2000/svg" xmlns:xlink="http://www.w3.org/1999/xlink" stroke-width="28.222" stroke-linejoin="round" xml:space="preserve">
 <path fill="rgb(255,255,255)" stroke="none" d="M 11800,23813 L 0,23813 0,0 23600,0 23600,23813 11800,23813 Z"/>
 <path fill="none" stroke="rgb(179,179,179)" stroke-linejoin="round" d="M 9984,22372 L 1370,22372 1370,1552 18598,1552 18598,22372 9984,22372 Z"/>
 <path fill="none" stroke="rgb(179,179,179)" stroke-linejoin="round" d="M 18598,22371 L 1370,22371"/>
 <path fill="none" stroke="rgb(179,179,179)" stroke-linejoin="round" d="M 18598,20288 L 1370,20288"/>
 <path fill="none" stroke="rgb(179,179,179)" stroke-linejoin="round" d="M 18598,18206 L 1370,18206"/>
 <path fill="none" stroke="rgb(179,179,179)" stroke-linejoin="round" d="M 18598,16124 L 1370,16124"/>
 <path fill="none" stroke="rgb(179,179,179)" stroke-linejoin="round" d="M 18598,14042 L 1370,14042"/>
 <path fill="none" stroke="rgb(179,179,179)" stroke-linejoin="round" d="M 18598,11960 L 1370,11960"/>
 <path fill="none" stroke="rgb(179,179,179)" stroke-linejoin="round" d="M 18598,9879 L 1370,9879"/>
 <path fill="none" stroke="rgb(179,179,179)" stroke-linejoin="round" d="M 18598,7797 L 1370,7797"/>
 <path fill="none" stroke="rgb(179,179,179)" stroke-linejoin="round" d="M 18598,5715 L 1370,5715"/>
 <path fill="none" stroke="rgb(179,179,179)" stroke-linejoin="round" d="M 18598,3633 L 1370,3633"/>
 <path fill="none" stroke="rgb(179,179,179)" stroke-linejoin="round" d="M 18598,1551 L 1370,1551"/>
 <path fill="none" stroke="rgb(179,179,179)" stroke-linejoin="round" d="M 1370,22521 L 1370,22221"/>
 <path fill="none" stroke="rgb(179,179,179)" stroke-linejoin="round" d="M 1370,22521 L 1370,22221"/>
 <path fill="none" stroke="rgb(179,179,179)" stroke-linejoin="round" d="M 2071,22521 L 2071,22221"/>
 <path fill="none" stroke="rgb(179,179,179)" stroke-linejoin="round" d="M 2071,22521 L 2071,22221"/>
 <path fill="none" stroke="rgb(179,179,179)" stroke-linejoin="round" d="M 2772,22521 L 2772,22221"/>
 <path fill="none" stroke="rgb(179,179,179)" stroke-linejoin="round" d="M 2772,22521 L 2772,22221"/>
 <path fill="none" stroke="rgb(179,179,179)" stroke-linejoin="round" d="M 3473,22521 L 3473,22221"/>
 <path fill="none" stroke="rgb(179,179,179)" stroke-linejoin="round" d="M 3473,22521 L 3473,22221"/>
 <path fill="none" stroke="rgb(179,179,179)" stroke-linejoin="round" d="M 4174,22521 L 4174,22221"/>
 <path fill="none" stroke="rgb(179,179,179)" stroke-linejoin="round" d="M 4174,22521 L 4174,22221"/>
 <path fill="none" stroke="rgb(179,179,179)" stroke-linejoin="round" d="M 4875,22521 L 4875,22221"/>
 <path fill="none" stroke="rgb(179,179,179)" stroke-linejoin="round" d="M 4875,22521 L 4875,22221"/>
 <path fill="none" stroke="rgb(179,179,179)" stroke-linejoin="round" d="M 5577,22521 L 5577,22221"/>
 <path fill="none" stroke="rgb(179,179,179)" stroke-linejoin="round" d="M 5577,22521 L 5577,22221"/>
 <path fill="none" stroke="rgb(179,179,179)" stroke-linejoin="round" d="M 6278,22521 L 6278,22221"/>
 <path fill="none" stroke="rgb(179,179,179)" stroke-linejoin="round" d="M 6278,22521 L 6278,22221"/>
 <path fill="none" stroke="rgb(179,179,179)" stroke-linejoin="round" d="M 6979,22521 L 6979,22221"/>
 <path fill="none" stroke="rgb(179,179,179)" stroke-linejoin="round" d="M 6979,22521 L 6979,22221"/>
 <path fill="none" stroke="rgb(179,179,179)" stroke-linejoin="round" d="M 7680,22521 L 7680,22221"/>
 <path fill="none" stroke="rgb(179,179,179)" stroke-linejoin="round" d="M 7680,22521 L 7680,22221"/>
 <path fill="none" stroke="rgb(179,179,179)" stroke-linejoin="round" d="M 8381,22521 L 8381,22221"/>
 <path fill="none" stroke="rgb(179,179,179)" stroke-linejoin="round" d="M 8381,22521 L 8381,22221"/>
 <path fill="none" stroke="rgb(179,179,179)" stroke-linejoin="round" d="M 9082,22521 L 9082,22221"/>
 <path fill="none" stroke="rgb(179,179,179)" stroke-linejoin="round" d="M 9082,22521 L 9082,22221"/>
 <path fill="none" stroke="rgb(179,179,179)" stroke-linejoin="round" d="M 9784,22521 L 9784,22221"/>
 <path fill="none" stroke="rgb(179,179,179)" stroke-linejoin="round" d="M 9784,22521 L 9784,22221"/>
 <path fill="none" stroke="rgb(179,179,179)" stroke-linejoin="round" d="M 10485,22521 L 10485,22221"/>
 <path fill="none" stroke="rgb(179,179,179)" stroke-linejoin="round" d="M 10485,22521 L 10485,22221"/>
 <path fill="none" stroke="rgb(179,179,179)" stroke-linejoin="round" d="M 11186,22521 L 11186,22221"/>
 <path fill="none" stroke="rgb(179,179,179)" stroke-linejoin="round" d="M 11186,22521 L 11186,22221"/>
 <path fill="none" stroke="rgb(179,179,179)" stroke-linejoin="round" d="M 11886,22521 L 11886,22221"/>
 <path fill="none" stroke="rgb(179,179,179)" stroke-linejoin="round" d="M 11886,22521 L 11886,22221"/>
 <path fill="none" stroke="rgb(179,179,179)" stroke-linejoin="round" d="M 12587,22521 L 12587,22221"/>
 <path fill="none" stroke="rgb(179,179,179)" stroke-linejoin="round" d="M 12587,22521 L 12587,22221"/>
 <path fill="none" stroke="rgb(179,179,179)" stroke-linejoin="round" d="M 13289,22521 L 13289,22221"/>
 <path fill="none" stroke="rgb(179,179,179)" stroke-linejoin="round" d="M 13289,22521 L 13289,22221"/>
 <path fill="none" stroke="rgb(179,179,179)" stroke-linejoin="round" d="M 13990,22521 L 13990,22221"/>
 <path fill="none" stroke="rgb(179,179,179)" stroke-linejoin="round" d="M 13990,22521 L 13990,22221"/>
 <path fill="none" stroke="rgb(179,179,179)" stroke-linejoin="round" d="M 14691,22521 L 14691,22221"/>
 <path fill="none" stroke="rgb(179,179,179)" stroke-linejoin="round" d="M 14691,22521 L 14691,22221"/>
 <path fill="none" stroke="rgb(179,179,179)" stroke-linejoin="round" d="M 15392,22521 L 15392,22221"/>
 <path fill="none" stroke="rgb(179,179,179)" stroke-linejoin="round" d="M 15392,22521 L 15392,22221"/>
 <path fill="none" stroke="rgb(179,179,179)" stroke-linejoin="round" d="M 16093,22521 L 16093,22221"/>
 <path fill="none" stroke="rgb(179,179,179)" stroke-linejoin="round" d="M 16093,22521 L 16093,22221"/>
 <path fill="none" stroke="rgb(179,179,179)" stroke-linejoin="round" d="M 16794,22521 L 16794,22221"/>
 <path fill="none" stroke="rgb(179,179,179)" stroke-linejoin="round" d="M 16794,22521 L 16794,22221"/>
 <path fill="none" stroke="rgb(179,179,179)" stroke-linejoin="round" d="M 17496,22521 L 17496,22221"/>
 <path fill="none" stroke="rgb(179,179,179)" stroke-linejoin="round" d="M 17496,22521 L 17496,22221"/>
 <path fill="none" stroke="rgb(179,179,179)" stroke-linejoin="round" d="M 18197,22521 L 18197,22221"/>
 <path fill="none" stroke="rgb(179,179,179)" stroke-linejoin="round" d="M 18197,22521 L 18197,22221"/>
 <path fill="none" stroke="rgb(179,179,179)" stroke-linejoin="round" d="M 1370,22483 L 1370,22371"/>
 <path fill="none" stroke="rgb(179,179,179)" stroke-linejoin="round" d="M 1370,22483 L 1370,22371"/>
 <path fill="none" stroke="rgb(179,179,179)" stroke-linejoin="round" d="M 1470,22483 L 1470,22371"/>
 <path fill="none" stroke="rgb(179,179,179)" stroke-linejoin="round" d="M 1470,22483 L 1470,22371"/>
 <path fill="none" stroke="rgb(179,179,179)" stroke-linejoin="round" d="M 1570,22483 L 1570,22371"/>
 <path fill="none" stroke="rgb(179,179,179)" stroke-linejoin="round" d="M 1570,22483 L 1570,22371"/>
 <path fill="none" stroke="rgb(179,179,179)" stroke-linejoin="round" d="M 1670,22483 L 1670,22371"/>
 <path fill="none" stroke="rgb(179,179,179)" stroke-linejoin="round" d="M 1670,22483 L 1670,22371"/>
 <path fill="none" stroke="rgb(179,179,179)" stroke-linejoin="round" d="M 1770,22483 L 1770,22371"/>
 <path fill="none" stroke="rgb(179,179,179)" stroke-linejoin="round" d="M 1770,22483 L 1770,22371"/>
 <path fill="none" stroke="rgb(179,179,179)" stroke-linejoin="round" d="M 1870,22483 L 1870,22371"/>
 <path fill="none" stroke="rgb(179,179,179)" stroke-linejoin="round" d="M 1870,22483 L 1870,22371"/>
 <path fill="none" stroke="rgb(179,179,179)" stroke-linejoin="round" d="M 1971,22483 L 1971,22371"/>
 <path fill="none" stroke="rgb(179,179,179)" stroke-linejoin="round" d="M 1971,22483 L 1971,22371"/>
 <path fill="none" stroke="rgb(179,179,179)" stroke-linejoin="round" d="M 2071,22483 L 2071,22371"/>
 <path fill="none" stroke="rgb(179,179,179)" stroke-linejoin="round" d="M 2071,22483 L 2071,22371"/>
 <path fill="none" stroke="rgb(179,179,179)" stroke-linejoin="round" d="M 2171,22483 L 2171,22371"/>
 <path fill="none" stroke="rgb(179,179,179)" stroke-linejoin="round" d="M 2171,22483 L 2171,22371"/>
 <path fill="none" stroke="rgb(179,179,179)" stroke-linejoin="round" d="M 2271,22483 L 2271,22371"/>
 <path fill="none" stroke="rgb(179,179,179)" stroke-linejoin="round" d="M 2271,22483 L 2271,22371"/>
 <path fill="none" stroke="rgb(179,179,179)" stroke-linejoin="round" d="M 2371,22483 L 2371,22371"/>
 <path fill="none" stroke="rgb(179,179,179)" stroke-linejoin="round" d="M 2371,22483 L 2371,22371"/>
 <path fill="none" stroke="rgb(179,179,179)" stroke-linejoin="round" d="M 2471,22483 L 2471,22371"/>
 <path fill="none" stroke="rgb(179,179,179)" stroke-linejoin="round" d="M 2471,22483 L 2471,22371"/>
 <path fill="none" stroke="rgb(179,179,179)" stroke-linejoin="round" d="M 2572,22483 L 2572,22371"/>
 <path fill="none" stroke="rgb(179,179,179)" stroke-linejoin="round" d="M 2572,22483 L 2572,22371"/>
 <path fill="none" stroke="rgb(179,179,179)" stroke-linejoin="round" d="M 2672,22483 L 2672,22371"/>
 <path fill="none" stroke="rgb(179,179,179)" stroke-linejoin="round" d="M 2672,22483 L 2672,22371"/>
 <path fill="none" stroke="rgb(179,179,179)" stroke-linejoin="round" d="M 2772,22483 L 2772,22371"/>
 <path fill="none" stroke="rgb(179,179,179)" stroke-linejoin="round" d="M 2772,22483 L 2772,22371"/>
 <path fill="none" stroke="rgb(179,179,179)" stroke-linejoin="round" d="M 2872,22483 L 2872,22371"/>
 <path fill="none" stroke="rgb(179,179,179)" stroke-linejoin="round" d="M 2872,22483 L 2872,22371"/>
 <path fill="none" stroke="rgb(179,179,179)" stroke-linejoin="round" d="M 2972,22483 L 2972,22371"/>
 <path fill="none" stroke="rgb(179,179,179)" stroke-linejoin="round" d="M 2972,22483 L 2972,22371"/>
 <path fill="none" stroke="rgb(179,179,179)" stroke-linejoin="round" d="M 3072,22483 L 3072,22371"/>
 <path fill="none" stroke="rgb(179,179,179)" stroke-linejoin="round" d="M 3072,22483 L 3072,22371"/>
 <path fill="none" stroke="rgb(179,179,179)" stroke-linejoin="round" d="M 3173,22483 L 3173,22371"/>
 <path fill="none" stroke="rgb(179,179,179)" stroke-linejoin="round" d="M 3173,22483 L 3173,22371"/>
 <path fill="none" stroke="rgb(179,179,179)" stroke-linejoin="round" d="M 3273,22483 L 3273,22371"/>
 <path fill="none" stroke="rgb(179,179,179)" stroke-linejoin="round" d="M 3273,22483 L 3273,22371"/>
 <path fill="none" stroke="rgb(179,179,179)" stroke-linejoin="round" d="M 3373,22483 L 3373,22371"/>
 <path fill="none" stroke="rgb(179,179,179)" stroke-linejoin="round" d="M 3373,22483 L 3373,22371"/>
 <path fill="none" stroke="rgb(179,179,179)" stroke-linejoin="round" d="M 3473,22483 L 3473,22371"/>
 <path fill="none" stroke="rgb(179,179,179)" stroke-linejoin="round" d="M 3473,22483 L 3473,22371"/>
 <path fill="none" stroke="rgb(179,179,179)" stroke-linejoin="round" d="M 3573,22483 L 3573,22371"/>
 <path fill="none" stroke="rgb(179,179,179)" stroke-linejoin="round" d="M 3573,22483 L 3573,22371"/>
 <path fill="none" stroke="rgb(179,179,179)" stroke-linejoin="round" d="M 3673,22483 L 3673,22371"/>
 <path fill="none" stroke="rgb(179,179,179)" stroke-linejoin="round" d="M 3673,22483 L 3673,22371"/>
 <path fill="none" stroke="rgb(179,179,179)" stroke-linejoin="round" d="M 3774,22483 L 3774,22371"/>
 <path fill="none" stroke="rgb(179,179,179)" stroke-linejoin="round" d="M 3774,22483 L 3774,22371"/>
 <path fill="none" stroke="rgb(179,179,179)" stroke-linejoin="round" d="M 3874,22483 L 3874,22371"/>
 <path fill="none" stroke="rgb(179,179,179)" stroke-linejoin="round" d="M 3874,22483 L 3874,22371"/>
 <path fill="none" stroke="rgb(179,179,179)" stroke-linejoin="round" d="M 3974,22483 L 3974,22371"/>
 <path fill="none" stroke="rgb(179,179,179)" stroke-linejoin="round" d="M 3974,22483 L 3974,22371"/>
 <path fill="none" stroke="rgb(179,179,179)" stroke-linejoin="round" d="M 4074,22483 L 4074,22371"/>
 <path fill="none" stroke="rgb(179,179,179)" stroke-linejoin="round" d="M 4074,22483 L 4074,22371"/>
 <path fill="none" stroke="rgb(179,179,179)" stroke-linejoin="round" d="M 4174,22483 L 4174,22371"/>
 <path fill="none" stroke="rgb(179,179,179)" stroke-linejoin="round" d="M 4174,22483 L 4174,22371"/>
 <path fill="none" stroke="rgb(179,179,179)" stroke-linejoin="round" d="M 4274,22483 L 4274,22371"/>
 <path fill="none" stroke="rgb(179,179,179)" stroke-linejoin="round" d="M 4274,22483 L 4274,22371"/>
 <path fill="none" stroke="rgb(179,179,179)" stroke-linejoin="round" d="M 4375,22483 L 4375,22371"/>
 <path fill="none" stroke="rgb(179,179,179)" stroke-linejoin="round" d="M 4375,22483 L 4375,22371"/>
 <path fill="none" stroke="rgb(179,179,179)" stroke-linejoin="round" d="M 4475,22483 L 4475,22371"/>
 <path fill="none" stroke="rgb(179,179,179)" stroke-linejoin="round" d="M 4475,22483 L 4475,22371"/>
 <path fill="none" stroke="rgb(179,179,179)" stroke-linejoin="round" d="M 4575,22483 L 4575,22371"/>
 <path fill="none" stroke="rgb(179,179,179)" stroke-linejoin="round" d="M 4575,22483 L 4575,22371"/>
 <path fill="none" stroke="rgb(179,179,179)" stroke-linejoin="round" d="M 4675,22483 L 4675,22371"/>
 <path fill="none" stroke="rgb(179,179,179)" stroke-linejoin="round" d="M 4675,22483 L 4675,22371"/>
 <path fill="none" stroke="rgb(179,179,179)" stroke-linejoin="round" d="M 4775,22483 L 4775,22371"/>
 <path fill="none" stroke="rgb(179,179,179)" stroke-linejoin="round" d="M 4775,22483 L 4775,22371"/>
 <path fill="none" stroke="rgb(179,179,179)" stroke-linejoin="round" d="M 4875,22483 L 4875,22371"/>
 <path fill="none" stroke="rgb(179,179,179)" stroke-linejoin="round" d="M 4875,22483 L 4875,22371"/>
 <path fill="none" stroke="rgb(179,179,179)" stroke-linejoin="round" d="M 4976,22483 L 4976,22371"/>
 <path fill="none" stroke="rgb(179,179,179)" stroke-linejoin="round" d="M 4976,22483 L 4976,22371"/>
 <path fill="none" stroke="rgb(179,179,179)" stroke-linejoin="round" d="M 5076,22483 L 5076,22371"/>
 <path fill="none" stroke="rgb(179,179,179)" stroke-linejoin="round" d="M 5076,22483 L 5076,22371"/>
 <path fill="none" stroke="rgb(179,179,179)" stroke-linejoin="round" d="M 5176,22483 L 5176,22371"/>
 <path fill="none" stroke="rgb(179,179,179)" stroke-linejoin="round" d="M 5176,22483 L 5176,22371"/>
 <path fill="none" stroke="rgb(179,179,179)" stroke-linejoin="round" d="M 5276,22483 L 5276,22371"/>
 <path fill="none" stroke="rgb(179,179,179)" stroke-linejoin="round" d="M 5276,22483 L 5276,22371"/>
 <path fill="none" stroke="rgb(179,179,179)" stroke-linejoin="round" d="M 5376,22483 L 5376,22371"/>
 <path fill="none" stroke="rgb(179,179,179)" stroke-linejoin="round" d="M 5376,22483 L 5376,22371"/>
 <path fill="none" stroke="rgb(179,179,179)" stroke-linejoin="round" d="M 5476,22483 L 5476,22371"/>
 <path fill="none" stroke="rgb(179,179,179)" stroke-linejoin="round" d="M 5476,22483 L 5476,22371"/>
 <path fill="none" stroke="rgb(179,179,179)" stroke-linejoin="round" d="M 5577,22483 L 5577,22371"/>
 <path fill="none" stroke="rgb(179,179,179)" stroke-linejoin="round" d="M 5577,22483 L 5577,22371"/>
 <path fill="none" stroke="rgb(179,179,179)" stroke-linejoin="round" d="M 5677,22483 L 5677,22371"/>
 <path fill="none" stroke="rgb(179,179,179)" stroke-linejoin="round" d="M 5677,22483 L 5677,22371"/>
 <path fill="none" stroke="rgb(179,179,179)" stroke-linejoin="round" d="M 5777,22483 L 5777,22371"/>
 <path fill="none" stroke="rgb(179,179,179)" stroke-linejoin="round" d="M 5777,22483 L 5777,22371"/>
 <path fill="none" stroke="rgb(179,179,179)" stroke-linejoin="round" d="M 5877,22483 L 5877,22371"/>
 <path fill="none" stroke="rgb(179,179,179)" stroke-linejoin="round" d="M 5877,22483 L 5877,22371"/>
 <path fill="none" stroke="rgb(179,179,179)" stroke-linejoin="round" d="M 5977,22483 L 5977,22371"/>
 <path fill="none" stroke="rgb(179,179,179)" stroke-linejoin="round" d="M 5977,22483 L 5977,22371"/>
 <path fill="none" stroke="rgb(179,179,179)" stroke-linejoin="round" d="M 6077,22483 L 6077,22371"/>
 <path fill="none" stroke="rgb(179,179,179)" stroke-linejoin="round" d="M 6077,22483 L 6077,22371"/>
 <path fill="none" stroke="rgb(179,179,179)" stroke-linejoin="round" d="M 6178,22483 L 6178,22371"/>
 <path fill="none" stroke="rgb(179,179,179)" stroke-linejoin="round" d="M 6178,22483 L 6178,22371"/>
 <path fill="none" stroke="rgb(179,179,179)" stroke-linejoin="round" d="M 6278,22483 L 6278,22371"/>
 <path fill="none" stroke="rgb(179,179,179)" stroke-linejoin="round" d="M 6278,22483 L 6278,22371"/>
 <path fill="none" stroke="rgb(179,179,179)" stroke-linejoin="round" d="M 6378,22483 L 6378,22371"/>
 <path fill="none" stroke="rgb(179,179,179)" stroke-linejoin="round" d="M 6378,22483 L 6378,22371"/>
 <path fill="none" stroke="rgb(179,179,179)" stroke-linejoin="round" d="M 6478,22483 L 6478,22371"/>
 <path fill="none" stroke="rgb(179,179,179)" stroke-linejoin="round" d="M 6478,22483 L 6478,22371"/>
 <path fill="none" stroke="rgb(179,179,179)" stroke-linejoin="round" d="M 6578,22483 L 6578,22371"/>
 <path fill="none" stroke="rgb(179,179,179)" stroke-linejoin="round" d="M 6578,22483 L 6578,22371"/>
 <path fill="none" stroke="rgb(179,179,179)" stroke-linejoin="round" d="M 6678,22483 L 6678,22371"/>
 <path fill="none" stroke="rgb(179,179,179)" stroke-linejoin="round" d="M 6678,22483 L 6678,22371"/>
 <path fill="none" stroke="rgb(179,179,179)" stroke-linejoin="round" d="M 6779,22483 L 6779,22371"/>
 <path fill="none" stroke="rgb(179,179,179)" stroke-linejoin="round" d="M 6779,22483 L 6779,22371"/>
 <path fill="none" stroke="rgb(179,179,179)" stroke-linejoin="round" d="M 6879,22483 L 6879,22371"/>
 <path fill="none" stroke="rgb(179,179,179)" stroke-linejoin="round" d="M 6879,22483 L 6879,22371"/>
 <path fill="none" stroke="rgb(179,179,179)" stroke-linejoin="round" d="M 6979,22483 L 6979,22371"/>
 <path fill="none" stroke="rgb(179,179,179)" stroke-linejoin="round" d="M 6979,22483 L 6979,22371"/>
 <path fill="none" stroke="rgb(179,179,179)" stroke-linejoin="round" d="M 7079,22483 L 7079,22371"/>
 <path fill="none" stroke="rgb(179,179,179)" stroke-linejoin="round" d="M 7079,22483 L 7079,22371"/>
 <path fill="none" stroke="rgb(179,179,179)" stroke-linejoin="round" d="M 7179,22483 L 7179,22371"/>
 <path fill="none" stroke="rgb(179,179,179)" stroke-linejoin="round" d="M 7179,22483 L 7179,22371"/>
 <path fill="none" stroke="rgb(179,179,179)" stroke-linejoin="round" d="M 7279,22483 L 7279,22371"/>
 <path fill="none" stroke="rgb(179,179,179)" stroke-linejoin="round" d="M 7279,22483 L 7279,22371"/>
 <path fill="none" stroke="rgb(179,179,179)" stroke-linejoin="round" d="M 7380,22483 L 7380,22371"/>
 <path fill="none" stroke="rgb(179,179,179)" stroke-linejoin="round" d="M 7380,22483 L 7380,22371"/>
 <path fill="none" stroke="rgb(179,179,179)" stroke-linejoin="round" d="M 7480,22483 L 7480,22371"/>
 <path fill="none" stroke="rgb(179,179,179)" stroke-linejoin="round" d="M 7480,22483 L 7480,22371"/>
 <path fill="none" stroke="rgb(179,179,179)" stroke-linejoin="round" d="M 7580,22483 L 7580,22371"/>
 <path fill="none" stroke="rgb(179,179,179)" stroke-linejoin="round" d="M 7580,22483 L 7580,22371"/>
 <path fill="none" stroke="rgb(179,179,179)" stroke-linejoin="round" d="M 7680,22483 L 7680,22371"/>
 <path fill="none" stroke="rgb(179,179,179)" stroke-linejoin="round" d="M 7680,22483 L 7680,22371"/>
 <path fill="none" stroke="rgb(179,179,179)" stroke-linejoin="round" d="M 7780,22483 L 7780,22371"/>
 <path fill="none" stroke="rgb(179,179,179)" stroke-linejoin="round" d="M 7780,22483 L 7780,22371"/>
 <path fill="none" stroke="rgb(179,179,179)" stroke-linejoin="round" d="M 7880,22483 L 7880,22371"/>
 <path fill="none" stroke="rgb(179,179,179)" stroke-linejoin="round" d="M 7880,22483 L 7880,22371"/>
 <path fill="none" stroke="rgb(179,179,179)" stroke-linejoin="round" d="M 7981,22483 L 7981,22371"/>
 <path fill="none" stroke="rgb(179,179,179)" stroke-linejoin="round" d="M 7981,22483 L 7981,22371"/>
 <path fill="none" stroke="rgb(179,179,179)" stroke-linejoin="round" d="M 8081,22483 L 8081,22371"/>
 <path fill="none" stroke="rgb(179,179,179)" stroke-linejoin="round" d="M 8081,22483 L 8081,22371"/>
 <path fill="none" stroke="rgb(179,179,179)" stroke-linejoin="round" d="M 8181,22483 L 8181,22371"/>
 <path fill="none" stroke="rgb(179,179,179)" stroke-linejoin="round" d="M 8181,22483 L 8181,22371"/>
 <path fill="none" stroke="rgb(179,179,179)" stroke-linejoin="round" d="M 8281,22483 L 8281,22371"/>
 <path fill="none" stroke="rgb(179,179,179)" stroke-linejoin="round" d="M 8281,22483 L 8281,22371"/>
 <path fill="none" stroke="rgb(179,179,179)" stroke-linejoin="round" d="M 8381,22483 L 8381,22371"/>
 <path fill="none" stroke="rgb(179,179,179)" stroke-linejoin="round" d="M 8381,22483 L 8381,22371"/>
 <path fill="none" stroke="rgb(179,179,179)" stroke-linejoin="round" d="M 8481,22483 L 8481,22371"/>
 <path fill="none" stroke="rgb(179,179,179)" stroke-linejoin="round" d="M 8481,22483 L 8481,22371"/>
 <path fill="none" stroke="rgb(179,179,179)" stroke-linejoin="round" d="M 8582,22483 L 8582,22371"/>
 <path fill="none" stroke="rgb(179,179,179)" stroke-linejoin="round" d="M 8582,22483 L 8582,22371"/>
 <path fill="none" stroke="rgb(179,179,179)" stroke-linejoin="round" d="M 8682,22483 L 8682,22371"/>
 <path fill="none" stroke="rgb(179,179,179)" stroke-linejoin="round" d="M 8682,22483 L 8682,22371"/>
 <path fill="none" stroke="rgb(179,179,179)" stroke-linejoin="round" d="M 8782,22483 L 8782,22371"/>
 <path fill="none" stroke="rgb(179,179,179)" stroke-linejoin="round" d="M 8782,22483 L 8782,22371"/>
 <path fill="none" stroke="rgb(179,179,179)" stroke-linejoin="round" d="M 8882,22483 L 8882,22371"/>
 <path fill="none" stroke="rgb(179,179,179)" stroke-linejoin="round" d="M 8882,22483 L 8882,22371"/>
 <path fill="none" stroke="rgb(179,179,179)" stroke-linejoin="round" d="M 8982,22483 L 8982,22371"/>
 <path fill="none" stroke="rgb(179,179,179)" stroke-linejoin="round" d="M 8982,22483 L 8982,22371"/>
 <path fill="none" stroke="rgb(179,179,179)" stroke-linejoin="round" d="M 9082,22483 L 9082,22371"/>
 <path fill="none" stroke="rgb(179,179,179)" stroke-linejoin="round" d="M 9082,22483 L 9082,22371"/>
 <path fill="none" stroke="rgb(179,179,179)" stroke-linejoin="round" d="M 9183,22483 L 9183,22371"/>
 <path fill="none" stroke="rgb(179,179,179)" stroke-linejoin="round" d="M 9183,22483 L 9183,22371"/>
 <path fill="none" stroke="rgb(179,179,179)" stroke-linejoin="round" d="M 9283,22483 L 9283,22371"/>
 <path fill="none" stroke="rgb(179,179,179)" stroke-linejoin="round" d="M 9283,22483 L 9283,22371"/>
 <path fill="none" stroke="rgb(179,179,179)" stroke-linejoin="round" d="M 9383,22483 L 9383,22371"/>
 <path fill="none" stroke="rgb(179,179,179)" stroke-linejoin="round" d="M 9383,22483 L 9383,22371"/>
 <path fill="none" stroke="rgb(179,179,179)" stroke-linejoin="round" d="M 9483,22483 L 9483,22371"/>
 <path fill="none" stroke="rgb(179,179,179)" stroke-linejoin="round" d="M 9483,22483 L 9483,22371"/>
 <path fill="none" stroke="rgb(179,179,179)" stroke-linejoin="round" d="M 9583,22483 L 9583,22371"/>
 <path fill="none" stroke="rgb(179,179,179)" stroke-linejoin="round" d="M 9583,22483 L 9583,22371"/>
 <path fill="none" stroke="rgb(179,179,179)" stroke-linejoin="round" d="M 9683,22483 L 9683,22371"/>
 <path fill="none" stroke="rgb(179,179,179)" stroke-linejoin="round" d="M 9683,22483 L 9683,22371"/>
 <path fill="none" stroke="rgb(179,179,179)" stroke-linejoin="round" d="M 9784,22483 L 9784,22371"/>
 <path fill="none" stroke="rgb(179,179,179)" stroke-linejoin="round" d="M 9784,22483 L 9784,22371"/>
 <path fill="none" stroke="rgb(179,179,179)" stroke-linejoin="round" d="M 9884,22483 L 9884,22371"/>
 <path fill="none" stroke="rgb(179,179,179)" stroke-linejoin="round" d="M 9884,22483 L 9884,22371"/>
 <path fill="none" stroke="rgb(179,179,179)" stroke-linejoin="round" d="M 9984,22483 L 9984,22371"/>
 <path fill="none" stroke="rgb(179,179,179)" stroke-linejoin="round" d="M 9984,22483 L 9984,22371"/>
 <path fill="none" stroke="rgb(179,179,179)" stroke-linejoin="round" d="M 10084,22483 L 10084,22371"/>
 <path fill="none" stroke="rgb(179,179,179)" stroke-linejoin="round" d="M 10084,22483 L 10084,22371"/>
 <path fill="none" stroke="rgb(179,179,179)" stroke-linejoin="round" d="M 10184,22483 L 10184,22371"/>
 <path fill="none" stroke="rgb(179,179,179)" stroke-linejoin="round" d="M 10184,22483 L 10184,22371"/>
 <path fill="none" stroke="rgb(179,179,179)" stroke-linejoin="round" d="M 10285,22483 L 10285,22371"/>
 <path fill="none" stroke="rgb(179,179,179)" stroke-linejoin="round" d="M 10285,22483 L 10285,22371"/>
 <path fill="none" stroke="rgb(179,179,179)" stroke-linejoin="round" d="M 10385,22483 L 10385,22371"/>
 <path fill="none" stroke="rgb(179,179,179)" stroke-linejoin="round" d="M 10385,22483 L 10385,22371"/>
 <path fill="none" stroke="rgb(179,179,179)" stroke-linejoin="round" d="M 10485,22483 L 10485,22371"/>
 <path fill="none" stroke="rgb(179,179,179)" stroke-linejoin="round" d="M 10485,22483 L 10485,22371"/>
 <path fill="none" stroke="rgb(179,179,179)" stroke-linejoin="round" d="M 10585,22483 L 10585,22371"/>
 <path fill="none" stroke="rgb(179,179,179)" stroke-linejoin="round" d="M 10585,22483 L 10585,22371"/>
 <path fill="none" stroke="rgb(179,179,179)" stroke-linejoin="round" d="M 10685,22483 L 10685,22371"/>
 <path fill="none" stroke="rgb(179,179,179)" stroke-linejoin="round" d="M 10685,22483 L 10685,22371"/>
 <path fill="none" stroke="rgb(179,179,179)" stroke-linejoin="round" d="M 10785,22483 L 10785,22371"/>
 <path fill="none" stroke="rgb(179,179,179)" stroke-linejoin="round" d="M 10785,22483 L 10785,22371"/>
 <path fill="none" stroke="rgb(179,179,179)" stroke-linejoin="round" d="M 10886,22483 L 10886,22371"/>
 <path fill="none" stroke="rgb(179,179,179)" stroke-linejoin="round" d="M 10886,22483 L 10886,22371"/>
 <path fill="none" stroke="rgb(179,179,179)" stroke-linejoin="round" d="M 10986,22483 L 10986,22371"/>
 <path fill="none" stroke="rgb(179,179,179)" stroke-linejoin="round" d="M 10986,22483 L 10986,22371"/>
 <path fill="none" stroke="rgb(179,179,179)" stroke-linejoin="round" d="M 11086,22483 L 11086,22371"/>
 <path fill="none" stroke="rgb(179,179,179)" stroke-linejoin="round" d="M 11086,22483 L 11086,22371"/>
 <path fill="none" stroke="rgb(179,179,179)" stroke-linejoin="round" d="M 11186,22483 L 11186,22371"/>
 <path fill="none" stroke="rgb(179,179,179)" stroke-linejoin="round" d="M 11186,22483 L 11186,22371"/>
 <path fill="none" stroke="rgb(179,179,179)" stroke-linejoin="round" d="M 11286,22483 L 11286,22371"/>
 <path fill="none" stroke="rgb(179,179,179)" stroke-linejoin="round" d="M 11286,22483 L 11286,22371"/>
 <path fill="none" stroke="rgb(179,179,179)" stroke-linejoin="round" d="M 11386,22483 L 11386,22371"/>
 <path fill="none" stroke="rgb(179,179,179)" stroke-linejoin="round" d="M 11386,22483 L 11386,22371"/>
 <path fill="none" stroke="rgb(179,179,179)" stroke-linejoin="round" d="M 11487,22483 L 11487,22371"/>
 <path fill="none" stroke="rgb(179,179,179)" stroke-linejoin="round" d="M 11487,22483 L 11487,22371"/>
 <path fill="none" stroke="rgb(179,179,179)" stroke-linejoin="round" d="M 11587,22483 L 11587,22371"/>
 <path fill="none" stroke="rgb(179,179,179)" stroke-linejoin="round" d="M 11587,22483 L 11587,22371"/>
 <path fill="none" stroke="rgb(179,179,179)" stroke-linejoin="round" d="M 11687,22483 L 11687,22371"/>
 <path fill="none" stroke="rgb(179,179,179)" stroke-linejoin="round" d="M 11687,22483 L 11687,22371"/>
 <path fill="none" stroke="rgb(179,179,179)" stroke-linejoin="round" d="M 11787,22483 L 11787,22371"/>
 <path fill="none" stroke="rgb(179,179,179)" stroke-linejoin="round" d="M 11787,22483 L 11787,22371"/>
 <path fill="none" stroke="rgb(179,179,179)" stroke-linejoin="round" d="M 11886,22483 L 11886,22371"/>
 <path fill="none" stroke="rgb(179,179,179)" stroke-linejoin="round" d="M 11886,22483 L 11886,22371"/>
 <path fill="none" stroke="rgb(179,179,179)" stroke-linejoin="round" d="M 11986,22483 L 11986,22371"/>
 <path fill="none" stroke="rgb(179,179,179)" stroke-linejoin="round" d="M 11986,22483 L 11986,22371"/>
 <path fill="none" stroke="rgb(179,179,179)" stroke-linejoin="round" d="M 12087,22483 L 12087,22371"/>
 <path fill="none" stroke="rgb(179,179,179)" stroke-linejoin="round" d="M 12087,22483 L 12087,22371"/>
 <path fill="none" stroke="rgb(179,179,179)" stroke-linejoin="round" d="M 12187,22483 L 12187,22371"/>
 <path fill="none" stroke="rgb(179,179,179)" stroke-linejoin="round" d="M 12187,22483 L 12187,22371"/>
 <path fill="none" stroke="rgb(179,179,179)" stroke-linejoin="round" d="M 12287,22483 L 12287,22371"/>
 <path fill="none" stroke="rgb(179,179,179)" stroke-linejoin="round" d="M 12287,22483 L 12287,22371"/>
 <path fill="none" stroke="rgb(179,179,179)" stroke-linejoin="round" d="M 12387,22483 L 12387,22371"/>
 <path fill="none" stroke="rgb(179,179,179)" stroke-linejoin="round" d="M 12387,22483 L 12387,22371"/>
 <path fill="none" stroke="rgb(179,179,179)" stroke-linejoin="round" d="M 12487,22483 L 12487,22371"/>
 <path fill="none" stroke="rgb(179,179,179)" stroke-linejoin="round" d="M 12487,22483 L 12487,22371"/>
 <path fill="none" stroke="rgb(179,179,179)" stroke-linejoin="round" d="M 12587,22483 L 12587,22371"/>
 <path fill="none" stroke="rgb(179,179,179)" stroke-linejoin="round" d="M 12587,22483 L 12587,22371"/>
 <path fill="none" stroke="rgb(179,179,179)" stroke-linejoin="round" d="M 12688,22483 L 12688,22371"/>
 <path fill="none" stroke="rgb(179,179,179)" stroke-linejoin="round" d="M 12688,22483 L 12688,22371"/>
 <path fill="none" stroke="rgb(179,179,179)" stroke-linejoin="round" d="M 12788,22483 L 12788,22371"/>
 <path fill="none" stroke="rgb(179,179,179)" stroke-linejoin="round" d="M 12788,22483 L 12788,22371"/>
 <path fill="none" stroke="rgb(179,179,179)" stroke-linejoin="round" d="M 12888,22483 L 12888,22371"/>
 <path fill="none" stroke="rgb(179,179,179)" stroke-linejoin="round" d="M 12888,22483 L 12888,22371"/>
 <path fill="none" stroke="rgb(179,179,179)" stroke-linejoin="round" d="M 12988,22483 L 12988,22371"/>
 <path fill="none" stroke="rgb(179,179,179)" stroke-linejoin="round" d="M 12988,22483 L 12988,22371"/>
 <path fill="none" stroke="rgb(179,179,179)" stroke-linejoin="round" d="M 13088,22483 L 13088,22371"/>
 <path fill="none" stroke="rgb(179,179,179)" stroke-linejoin="round" d="M 13088,22483 L 13088,22371"/>
 <path fill="none" stroke="rgb(179,179,179)" stroke-linejoin="round" d="M 13188,22483 L 13188,22371"/>
 <path fill="none" stroke="rgb(179,179,179)" stroke-linejoin="round" d="M 13188,22483 L 13188,22371"/>
 <path fill="none" stroke="rgb(179,179,179)" stroke-linejoin="round" d="M 13289,22483 L 13289,22371"/>
 <path fill="none" stroke="rgb(179,179,179)" stroke-linejoin="round" d="M 13289,22483 L 13289,22371"/>
 <path fill="none" stroke="rgb(179,179,179)" stroke-linejoin="round" d="M 13389,22483 L 13389,22371"/>
 <path fill="none" stroke="rgb(179,179,179)" stroke-linejoin="round" d="M 13389,22483 L 13389,22371"/>
 <path fill="none" stroke="rgb(179,179,179)" stroke-linejoin="round" d="M 13489,22483 L 13489,22371"/>
 <path fill="none" stroke="rgb(179,179,179)" stroke-linejoin="round" d="M 13489,22483 L 13489,22371"/>
 <path fill="none" stroke="rgb(179,179,179)" stroke-linejoin="round" d="M 13589,22483 L 13589,22371"/>
 <path fill="none" stroke="rgb(179,179,179)" stroke-linejoin="round" d="M 13589,22483 L 13589,22371"/>
 <path fill="none" stroke="rgb(179,179,179)" stroke-linejoin="round" d="M 13689,22483 L 13689,22371"/>
 <path fill="none" stroke="rgb(179,179,179)" stroke-linejoin="round" d="M 13689,22483 L 13689,22371"/>
 <path fill="none" stroke="rgb(179,179,179)" stroke-linejoin="round" d="M 13789,22483 L 13789,22371"/>
 <path fill="none" stroke="rgb(179,179,179)" stroke-linejoin="round" d="M 13789,22483 L 13789,22371"/>
 <path fill="none" stroke="rgb(179,179,179)" stroke-linejoin="round" d="M 13890,22483 L 13890,22371"/>
 <path fill="none" stroke="rgb(179,179,179)" stroke-linejoin="round" d="M 13890,22483 L 13890,22371"/>
 <path fill="none" stroke="rgb(179,179,179)" stroke-linejoin="round" d="M 13990,22483 L 13990,22371"/>
 <path fill="none" stroke="rgb(179,179,179)" stroke-linejoin="round" d="M 13990,22483 L 13990,22371"/>
 <path fill="none" stroke="rgb(179,179,179)" stroke-linejoin="round" d="M 14090,22483 L 14090,22371"/>
 <path fill="none" stroke="rgb(179,179,179)" stroke-linejoin="round" d="M 14090,22483 L 14090,22371"/>
 <path fill="none" stroke="rgb(179,179,179)" stroke-linejoin="round" d="M 14190,22483 L 14190,22371"/>
 <path fill="none" stroke="rgb(179,179,179)" stroke-linejoin="round" d="M 14190,22483 L 14190,22371"/>
 <path fill="none" stroke="rgb(179,179,179)" stroke-linejoin="round" d="M 14290,22483 L 14290,22371"/>
 <path fill="none" stroke="rgb(179,179,179)" stroke-linejoin="round" d="M 14290,22483 L 14290,22371"/>
 <path fill="none" stroke="rgb(179,179,179)" stroke-linejoin="round" d="M 14390,22483 L 14390,22371"/>
 <path fill="none" stroke="rgb(179,179,179)" stroke-linejoin="round" d="M 14390,22483 L 14390,22371"/>
 <path fill="none" stroke="rgb(179,179,179)" stroke-linejoin="round" d="M 14491,22483 L 14491,22371"/>
 <path fill="none" stroke="rgb(179,179,179)" stroke-linejoin="round" d="M 14491,22483 L 14491,22371"/>
 <path fill="none" stroke="rgb(179,179,179)" stroke-linejoin="round" d="M 14591,22483 L 14591,22371"/>
 <path fill="none" stroke="rgb(179,179,179)" stroke-linejoin="round" d="M 14591,22483 L 14591,22371"/>
 <path fill="none" stroke="rgb(179,179,179)" stroke-linejoin="round" d="M 14691,22483 L 14691,22371"/>
 <path fill="none" stroke="rgb(179,179,179)" stroke-linejoin="round" d="M 14691,22483 L 14691,22371"/>
 <path fill="none" stroke="rgb(179,179,179)" stroke-linejoin="round" d="M 14791,22483 L 14791,22371"/>
 <path fill="none" stroke="rgb(179,179,179)" stroke-linejoin="round" d="M 14791,22483 L 14791,22371"/>
 <path fill="none" stroke="rgb(179,179,179)" stroke-linejoin="round" d="M 14891,22483 L 14891,22371"/>
 <path fill="none" stroke="rgb(179,179,179)" stroke-linejoin="round" d="M 14891,22483 L 14891,22371"/>
 <path fill="none" stroke="rgb(179,179,179)" stroke-linejoin="round" d="M 14991,22483 L 14991,22371"/>
 <path fill="none" stroke="rgb(179,179,179)" stroke-linejoin="round" d="M 14991,22483 L 14991,22371"/>
 <path fill="none" stroke="rgb(179,179,179)" stroke-linejoin="round" d="M 15092,22483 L 15092,22371"/>
 <path fill="none" stroke="rgb(179,179,179)" stroke-linejoin="round" d="M 15092,22483 L 15092,22371"/>
 <path fill="none" stroke="rgb(179,179,179)" stroke-linejoin="round" d="M 15192,22483 L 15192,22371"/>
 <path fill="none" stroke="rgb(179,179,179)" stroke-linejoin="round" d="M 15192,22483 L 15192,22371"/>
 <path fill="none" stroke="rgb(179,179,179)" stroke-linejoin="round" d="M 15292,22483 L 15292,22371"/>
 <path fill="none" stroke="rgb(179,179,179)" stroke-linejoin="round" d="M 15292,22483 L 15292,22371"/>
 <path fill="none" stroke="rgb(179,179,179)" stroke-linejoin="round" d="M 15392,22483 L 15392,22371"/>
 <path fill="none" stroke="rgb(179,179,179)" stroke-linejoin="round" d="M 15392,22483 L 15392,22371"/>
 <path fill="none" stroke="rgb(179,179,179)" stroke-linejoin="round" d="M 15492,22483 L 15492,22371"/>
 <path fill="none" stroke="rgb(179,179,179)" stroke-linejoin="round" d="M 15492,22483 L 15492,22371"/>
 <path fill="none" stroke="rgb(179,179,179)" stroke-linejoin="round" d="M 15592,22483 L 15592,22371"/>
 <path fill="none" stroke="rgb(179,179,179)" stroke-linejoin="round" d="M 15592,22483 L 15592,22371"/>
 <path fill="none" stroke="rgb(179,179,179)" stroke-linejoin="round" d="M 15693,22483 L 15693,22371"/>
 <path fill="none" stroke="rgb(179,179,179)" stroke-linejoin="round" d="M 15693,22483 L 15693,22371"/>
 <path fill="none" stroke="rgb(179,179,179)" stroke-linejoin="round" d="M 15793,22483 L 15793,22371"/>
 <path fill="none" stroke="rgb(179,179,179)" stroke-linejoin="round" d="M 15793,22483 L 15793,22371"/>
 <path fill="none" stroke="rgb(179,179,179)" stroke-linejoin="round" d="M 15893,22483 L 15893,22371"/>
 <path fill="none" stroke="rgb(179,179,179)" stroke-linejoin="round" d="M 15893,22483 L 15893,22371"/>
 <path fill="none" stroke="rgb(179,179,179)" stroke-linejoin="round" d="M 15993,22483 L 15993,22371"/>
 <path fill="none" stroke="rgb(179,179,179)" stroke-linejoin="round" d="M 15993,22483 L 15993,22371"/>
 <path fill="none" stroke="rgb(179,179,179)" stroke-linejoin="round" d="M 16093,22483 L 16093,22371"/>
 <path fill="none" stroke="rgb(179,179,179)" stroke-linejoin="round" d="M 16093,22483 L 16093,22371"/>
 <path fill="none" stroke="rgb(179,179,179)" stroke-linejoin="round" d="M 16193,22483 L 16193,22371"/>
 <path fill="none" stroke="rgb(179,179,179)" stroke-linejoin="round" d="M 16193,22483 L 16193,22371"/>
 <path fill="none" stroke="rgb(179,179,179)" stroke-linejoin="round" d="M 16294,22483 L 16294,22371"/>
 <path fill="none" stroke="rgb(179,179,179)" stroke-linejoin="round" d="M 16294,22483 L 16294,22371"/>
 <path fill="none" stroke="rgb(179,179,179)" stroke-linejoin="round" d="M 16394,22483 L 16394,22371"/>
 <path fill="none" stroke="rgb(179,179,179)" stroke-linejoin="round" d="M 16394,22483 L 16394,22371"/>
 <path fill="none" stroke="rgb(179,179,179)" stroke-linejoin="round" d="M 16494,22483 L 16494,22371"/>
 <path fill="none" stroke="rgb(179,179,179)" stroke-linejoin="round" d="M 16494,22483 L 16494,22371"/>
 <path fill="none" stroke="rgb(179,179,179)" stroke-linejoin="round" d="M 16594,22483 L 16594,22371"/>
 <path fill="none" stroke="rgb(179,179,179)" stroke-linejoin="round" d="M 16594,22483 L 16594,22371"/>
 <path fill="none" stroke="rgb(179,179,179)" stroke-linejoin="round" d="M 16694,22483 L 16694,22371"/>
 <path fill="none" stroke="rgb(179,179,179)" stroke-linejoin="round" d="M 16694,22483 L 16694,22371"/>
 <path fill="none" stroke="rgb(179,179,179)" stroke-linejoin="round" d="M 16794,22483 L 16794,22371"/>
 <path fill="none" stroke="rgb(179,179,179)" stroke-linejoin="round" d="M 16794,22483 L 16794,22371"/>
 <path fill="none" stroke="rgb(179,179,179)" stroke-linejoin="round" d="M 16895,22483 L 16895,22371"/>
 <path fill="none" stroke="rgb(179,179,179)" stroke-linejoin="round" d="M 16895,22483 L 16895,22371"/>
 <path fill="none" stroke="rgb(179,179,179)" stroke-linejoin="round" d="M 16995,22483 L 16995,22371"/>
 <path fill="none" stroke="rgb(179,179,179)" stroke-linejoin="round" d="M 16995,22483 L 16995,22371"/>
 <path fill="none" stroke="rgb(179,179,179)" stroke-linejoin="round" d="M 17095,22483 L 17095,22371"/>
 <path fill="none" stroke="rgb(179,179,179)" stroke-linejoin="round" d="M 17095,22483 L 17095,22371"/>
 <path fill="none" stroke="rgb(179,179,179)" stroke-linejoin="round" d="M 17195,22483 L 17195,22371"/>
 <path fill="none" stroke="rgb(179,179,179)" stroke-linejoin="round" d="M 17195,22483 L 17195,22371"/>
 <path fill="none" stroke="rgb(179,179,179)" stroke-linejoin="round" d="M 17295,22483 L 17295,22371"/>
 <path fill="none" stroke="rgb(179,179,179)" stroke-linejoin="round" d="M 17295,22483 L 17295,22371"/>
 <path fill="none" stroke="rgb(179,179,179)" stroke-linejoin="round" d="M 17395,22483 L 17395,22371"/>
 <path fill="none" stroke="rgb(179,179,179)" stroke-linejoin="round" d="M 17395,22483 L 17395,22371"/>
 <path fill="none" stroke="rgb(179,179,179)" stroke-linejoin="round" d="M 17496,22483 L 17496,22371"/>
 <path fill="none" stroke="rgb(179,179,179)" stroke-linejoin="round" d="M 17496,22483 L 17496,22371"/>
 <path fill="none" stroke="rgb(179,179,179)" stroke-linejoin="round" d="M 17596,22483 L 17596,22371"/>
 <path fill="none" stroke="rgb(179,179,179)" stroke-linejoin="round" d="M 17596,22483 L 17596,22371"/>
 <path fill="none" stroke="rgb(179,179,179)" stroke-linejoin="round" d="M 17696,22483 L 17696,22371"/>
 <path fill="none" stroke="rgb(179,179,179)" stroke-linejoin="round" d="M 17696,22483 L 17696,22371"/>
 <path fill="none" stroke="rgb(179,179,179)" stroke-linejoin="round" d="M 17796,22483 L 17796,22371"/>
 <path fill="none" stroke="rgb(179,179,179)" stroke-linejoin="round" d="M 17796,22483 L 17796,22371"/>
 <path fill="none" stroke="rgb(179,179,179)" stroke-linejoin="round" d="M 17896,22483 L 17896,22371"/>
 <path fill="none" stroke="rgb(179,179,179)" stroke-linejoin="round" d="M 17896,22483 L 17896,22371"/>
 <path fill="none" stroke="rgb(179,179,179)" stroke-linejoin="round" d="M 17996,22483 L 17996,22371"/>
 <path fill="none" stroke="rgb(179,179,179)" stroke-linejoin="round" d="M 17996,22483 L 17996,22371"/>
 <path fill="none" stroke="rgb(179,179,179)" stroke-linejoin="round" d="M 18097,22483 L 18097,22371"/>
 <path fill="none" stroke="rgb(179,179,179)" stroke-linejoin="round" d="M 18097,22483 L 18097,22371"/>
 <path fill="none" stroke="rgb(179,179,179)" stroke-linejoin="round" d="M 18197,22483 L 18197,22371"/>
 <path fill="none" stroke="rgb(179,179,179)" stroke-linejoin="round" d="M 18197,22483 L 18197,22371"/>
 <path fill="none" stroke="rgb(179,179,179)" stroke-linejoin="round" d="M 18297,22483 L 18297,22371"/>
 <path fill="none" stroke="rgb(179,179,179)" stroke-linejoin="round" d="M 18297,22483 L 18297,22371"/>
 <path fill="none" stroke="rgb(179,179,179)" stroke-linejoin="round" d="M 18397,22483 L 18397,22371"/>
 <path fill="none" stroke="rgb(179,179,179)" stroke-linejoin="round" d="M 18397,22483 L 18397,22371"/>
 <path fill="none" stroke="rgb(179,179,179)" stroke-linejoin="round" d="M 18497,22483 L 18497,22371"/>
 <path fill="none" stroke="rgb(179,179,179)" stroke-linejoin="round" d="M 18497,22483 L 18497,22371"/>
 <path fill="none" stroke="rgb(179,179,179)" stroke-linejoin="round" d="M 18598,22483 L 18598,22371"/>
 <path fill="none" stroke="rgb(179,179,179)" stroke-linejoin="round" d="M 18598,22483 L 18598,22371"/>
 <path fill="none" stroke="rgb(179,179,179)" stroke-linejoin="round" d="M 1370,22371 L 18598,22371"/>
 <path fill="none" stroke="rgb(179,179,179)" stroke-linejoin="round" d="M 1220,22371 L 1370,22371"/>
 <path fill="none" stroke="rgb(179,179,179)" stroke-linejoin="round" d="M 1220,22371 L 1370,22371"/>
 <path fill="none" stroke="rgb(179,179,179)" stroke-linejoin="round" d="M 1220,20288 L 1370,20288"/>
 <path fill="none" stroke="rgb(179,179,179)" stroke-linejoin="round" d="M 1220,20288 L 1370,20288"/>
 <path fill="none" stroke="rgb(179,179,179)" stroke-linejoin="round" d="M 1220,18206 L 1370,18206"/>
 <path fill="none" stroke="rgb(179,179,179)" stroke-linejoin="round" d="M 1220,18206 L 1370,18206"/>
 <path fill="none" stroke="rgb(179,179,179)" stroke-linejoin="round" d="M 1220,16124 L 1370,16124"/>
 <path fill="none" stroke="rgb(179,179,179)" stroke-linejoin="round" d="M 1220,16124 L 1370,16124"/>
 <path fill="none" stroke="rgb(179,179,179)" stroke-linejoin="round" d="M 1220,14042 L 1370,14042"/>
 <path fill="none" stroke="rgb(179,179,179)" stroke-linejoin="round" d="M 1220,14042 L 1370,14042"/>
 <path fill="none" stroke="rgb(179,179,179)" stroke-linejoin="round" d="M 1220,11960 L 1370,11960"/>
 <path fill="none" stroke="rgb(179,179,179)" stroke-linejoin="round" d="M 1220,11960 L 1370,11960"/>
 <path fill="none" stroke="rgb(179,179,179)" stroke-linejoin="round" d="M 1220,9879 L 1370,9879"/>
 <path fill="none" stroke="rgb(179,179,179)" stroke-linejoin="round" d="M 1220,9879 L 1370,9879"/>
 <path fill="none" stroke="rgb(179,179,179)" stroke-linejoin="round" d="M 1220,7797 L 1370,7797"/>
 <path fill="none" stroke="rgb(179,179,179)" stroke-linejoin="round" d="M 1220,7797 L 1370,7797"/>
 <path fill="none" stroke="rgb(179,179,179)" stroke-linejoin="round" d="M 1220,5715 L 1370,5715"/>
 <path fill="none" stroke="rgb(179,179,179)" stroke-linejoin="round" d="M 1220,5715 L 1370,5715"/>
 <path fill="none" stroke="rgb(179,179,179)" stroke-linejoin="round" d="M 1220,3633 L 1370,3633"/>
 <path fill="none" stroke="rgb(179,179,179)" stroke-linejoin="round" d="M 1220,3633 L 1370,3633"/>
 <path fill="none" stroke="rgb(179,179,179)" stroke-linejoin="round" d="M 1220,1551 L 1370,1551"/>
 <path fill="none" stroke="rgb(179,179,179)" stroke-linejoin="round" d="M 1220,1551 L 1370,1551"/>
 <path fill="none" stroke="rgb(179,179,179)" stroke-linejoin="round" d="M 1370,22371 L 1370,1551"/>
 <path fill="none" stroke="rgb(255,191,0)" stroke-width="80" stroke-linejoin="round" stroke-dasharray="80,40" d="M 14217,1551 L 14240,2752 14340,1926 14441,3130 14541,2737 14641,3033 14680,1551"/>
 <path fill="none" stroke="rgb(255,191,0)" stroke-width="80" stroke-linejoin="round" stroke-dasharray="80,40" d="M 14835,1551 L 14841,1712 14846,1551"/>
 <path fill="none" stroke="rgb(255,191,0)" stroke-width="80" stroke-linejoin="round" stroke-dasharray="80,40" d="M 15421,1551 L 15442,2362 15506,1551"/>
 <path fill="none" stroke="rgb(255,191,0)" stroke-width="80" stroke-linejoin="round" stroke-dasharray="80,40" d="M 15571,1551 L 15643,2691 15743,3471 15843,6818 15943,6725 16043,7217 16143,7106 16244,8377 16344,9591 16444,9745 16544,10210 16644,10588 16744,10963 16845,10994 16945,11798 17045,11982 17145,12079 17245,12435 17345,12502 17446,12666 17546,14045 17646,14012 17746,14863 17846,15217 17946,15462 18047,15683 18147,15925 18247,15579 18347,15696 18447,15675 18547,15695"/>
 <path fill="none" stroke="rgb(0,0,255)" stroke-width="80" stroke-linejoin="round" stroke-dasharray="80,40" d="M 14929,1551 L 14941,1866 15042,2177 15142,1873 15242,1903 15275,1551"/>
 <path fill="none" stroke="rgb(0,0,255)" stroke-width="80" stroke-linejoin="round" stroke-dasharray="80,40" d="M 15489,1551 L 15542,1815 15643,2243 15743,3139 15843,4667 15943,6095 16043,7885 16143,8586 16244,9371 16344,9322 16444,9928 16544,10356 16644,9132 16744,9916 16845,10373 16945,10867 17045,11731 17145,11911 17245,11615 17345,12715 17446,12901 17546,13716 17646,14304 17746,14052 17846,14719 17946,14829 18047,15446 18147,14879 18247,13933 18347,12839 18447,13229 18547,12348"/>
 <path fill="none" stroke="rgb(21,132,102)" stroke-width="80" stroke-linejoin="round" stroke-dasharray="80,203,80,203,203,203" d="M 14549,1551 L 14641,1845 14741,1783 14841,2114 14941,2342 15042,2632 15142,2666 15242,3048 15342,3388 15442,3794 15542,4013 15643,4295 15743,4730 15843,5313 15943,5344 16043,5575 16143,5571 16244,5899 16344,5967 16444,6049 16544,6144 16644,6361 16744,6321 16845,6160 16945,6125 17045,6371 17145,6603 17245,6516 17345,6669 17446,6843 17546,7233 17646,7646 17746,7724 17846,7676 17946,7796 18047,7830 18147,7841 18247,8258 18347,7370 18447,8163 18547,8195"/>
 <path fill="none" stroke="rgb(255,64,0)" stroke-width="80" stroke-linejoin="round" stroke-dasharray="80,40" d="M 15367,1551 L 15442,1799 15542,2437 15643,3170 15743,4481 15843,6047 15943,5721 16043,5816 16143,6054 16244,6323 16344,6680 16444,6948 16544,6311 16644,7040 16744,7559 16845,5969 16945,6433 17045,6648 17145,6859 17245,6666 17345,7384 17446,7535 17546,9611 17646,11245 17746,11953 17846,12232 17946,12684 18047,12640 18147,12662 18247,12441 18347,11356 18447,11401 18547,11715"/>
 <path fill="none" stroke="rgb(0,169,51)" stroke-width="80" stroke-linejoin="round" stroke-dasharray="80,40" d="M 14499,1551 L 14541,2371 14641,2818 14741,2657 14841,2677 14941,3071 15042,2994 15142,3759 15242,4078 15342,4214 15442,5273 15542,6004 15643,6224 15743,6705 15843,6751 15943,6887 16043,7218 16143,7333 16244,7720 16344,8082 16444,8547 16544,8735 16644,9084 16744,9111 16845,9128 16945,8671 17045,8923 17145,9094 17245,9094 17345,9107 17446,9029 17546,9193 17646,9720 17746,9979 17846,10400 17946,10606 18047,10938 18147,11089 18247,11200 18347,11480 18447,11561 18547,12237"/>
 <path fill="none" stroke="rgb(255,211,32)" stroke-width="80" stroke-linejoin="round" d="M 4108,1551 L 4124,2063 4224,5926 4324,8428 4425,9322 4525,8031 4625,9088 4725,10958 4825,11770 4925,11911 5026,11495 5126,11520 5226,12911 5326,13221 5426,13242 5526,13219 5627,12864 5727,13801 5827,14668 5927,14074 6027,13889 6128,13111 6228,13348 6328,11929 6428,11582 6528,10990 6628,12323 6729,12289 6829,11659 6929,10579 7029,12283 7129,12667 7229,13656 7330,13190 7430,13322 7530,14407 7630,15093 7730,15432 7830,15146 7931,14304 8031,14306 8131,14831 8231,14768 8331,14283 8431,13529 8532,13765 8632,13855 8732,14454 8832,13434 8932,13143 9032,13807 9133,14490 9233,14684 9333,15207 9433,13391 9533,12565 9633,12847 9734,12525 9834,12874 9934,11272 10034,9771 10134,10422 10234,9726 10335,5433 10413,1551"/>
 <path fill="none" stroke="rgb(255,211,32)" stroke-width="80" stroke-linejoin="round" d="M 11041,1551 L 11136,6006 11236,8949 11336,9639 11436,9097 11537,9702 11637,10845 11737,11074 11836,11408 11936,11237 12036,11604 12137,11631 12237,11203 12337,10504 12437,10623 12537,10186 12637,8845 12738,7030 12838,5452 12938,4200 13038,2084 13138,1979 13238,1782 13304,1551"/>
 <path fill="none" stroke="rgb(255,211,32)" stroke-width="80" stroke-linejoin="round" d="M 13725,1551 L 13739,1759 13839,2019 13940,2317 14040,2350 14140,2775 14240,3793 14340,5075 14441,3704 14541,3220 14641,3124 14741,4180 14841,4340 14941,4008 15042,2761 15142,3545 15242,3463 15342,3551 15442,3142 15542,3527 15643,3564 15743,4728 15843,2727 15943,2494 16043,2489 16143,1975 16215,1551"/>
 <path fill="none" stroke="rgb(128,0,128)" stroke-width="80" stroke-linejoin="round" d="M 3883,1551 L 3924,9114 4024,6973 4124,12980 4224,12746 4324,15645 4425,17846 4525,21969 4625,9831 4725,11575 4825,12511 4925,13876 5026,13919 5126,15126 5226,14555 5326,14978 5426,15645 5526,15780 5627,13369 5727,14111 5827,14465 5927,14761 6027,15526 6128,15740 6228,16479 6328,18553 6428,18712 6528,18853 6628,19198 6729,18173 6829,18226 6929,17791 7029,18960 7129,18582 7229,19054 7330,18020 7430,19054 7530,18886 7630,19097 7730,18622 7830,19134 7931,18786 8031,19960 8131,20264 8231,20558 8331,20570 8431,20564 8532,20605 8632,20678 8732,20600 8832,20443 8932,20390 9032,20321 9133,20310 9233,20338 9333,20305 9433,20174 9533,20345 9633,20376 9734,20370 9834,20328 9934,20305 10034,20326 10134,20488 10234,20395 10335,20228 10435,20259 10535,20288 10635,20245 10735,20202 10835,20169 10936,20153 11036,20631 11136,20885 11236,20013 11336,19982 11436,19990 11537,19912 11637,19576 11737,19576 11836,19576 11936,18927 12036,18663 12137,18263 12237,17599 12337,17166 12437,17166 12537,17166 12637,15144 12738,14602 12838,14238 12938,13272 13038,12637 13138,12637 13238,12637 13339,11407 13439,11096 13539,10628 13639,10608 13739,10066 13839,10066 13940,10066 14040,8725 14140,5896 14240,5336 14340,4554 14441,3724 14541,3724 14641,3724 14741,4200 14841,6008 14941,6017 15042,3907 15142,3528 15242,3528 15342,3528 15387,1551"/>
 <path fill="none" stroke="rgb(191,0,65)" stroke-width="80" stroke-linejoin="round" stroke-dasharray="80,40" d="M 7292,1551 L 7330,2652 7402,1551"/>
 <path fill="none" stroke="rgb(191,0,65)" stroke-width="80" stroke-linejoin="round" stroke-dasharray="80,40" d="M 7700,1551 L 7730,1915 7830,1684 7834,1551"/>
 <path fill="none" stroke="rgb(191,0,65)" stroke-width="80" stroke-linejoin="round" stroke-dasharray="80,40" d="M 14472,1551 L 14541,2181 14641,2850 14741,3291 14841,3339 14941,2425 15042,3301 15142,4202 15242,5345 15342,6502 15442,7197 15542,8125 15643,9844 15743,10613 15843,11282 15943,12151 16043,12510 16143,12708 16244,13190 16344,13574 16444,14097 16544,14467 16644,14912 16744,15085 16845,15241 16945,13589 17045,13915 17145,13858 17245,14119 17345,14007 17446,14048 17546,14089 17646,16084 17746,16185 17846,16579 17946,16461 18047,16645 18147,16714 18247,16762 18347,16364 18447,16324 18547,16098"/>
 <path fill="none" stroke="rgb(141,40,30)" stroke-width="80" stroke-linejoin="round" stroke-dasharray="80,40" d="M 7133,1551 L 7229,2569 7330,3220 7430,3460 7530,3378 7630,3731 7730,4147 7830,4103 7931,4094 8031,4511 8131,4675 8231,5119 8331,5562 8431,5716 8532,6219 8632,6299 8732,6304 8832,6506 8932,6388 9032,6309 9133,6214 9233,5775 9333,5452 9433,5144 9533,4732 9633,4227 9734,3741 9834,2843 9934,1941 9993,1551"/>
 <path fill="none" stroke="rgb(141,40,30)" stroke-width="80" stroke-linejoin="round" stroke-dasharray="80,40" d="M 14005,1551 L 14040,1833 14140,2542 14240,3704 14340,4373 14441,5045 14541,5368 14641,5570 14741,5548 14841,6219 14941,6249 15042,6794 15142,6719 15242,7239 15342,7582 15442,8315 15542,8514 15643,9055 15743,9484 15843,10254 15943,10491 16043,10872 16143,10839 16244,11196 16344,11377 16444,11392 16544,11578 16644,11569 16744,11607 16845,11813 16945,11700 17045,11939 17145,12356 17245,12281 17345,12455 17446,12651 17546,13047 17646,13692 17746,13968 17846,14039 17946,14206 18047,14364 18147,14284 18247,14009 18347,13662 18447,13537 18547,13311"/>
 <path fill="none" stroke="rgb(180,120,4)" stroke-width="80" stroke-linejoin="round" d="M 5173,1551 L 5226,1786 5326,2512 5426,2602 5526,2966 5627,4585 5727,6370 5827,7397 5927,9613 6027,10918 6128,11701 6228,12613 6328,13526 6428,13628 6528,13747 6628,13421 6729,14053 6829,14254 6929,14248 7029,14539 7129,15240 7229,15654 7330,16296 7430,15720 7530,16099 7630,16787 7730,16746 7830,16873 7931,17183 8031,17055 8131,17392 8231,17250 8331,17476 8431,17768 8532,17712 8632,18109 8732,18487 8832,18508 8932,18678 9032,18171 9133,18005 9233,18121 9333,17632 9433,17112 9533,17427 9633,18118 9734,19044 9834,17172 9934,17169 10034,17021 10134,17524 10234,17674 10335,17674 10435,17674 10535,18706 10635,18993 10735,19462 10835,19467 10936,19832 11036,19832 11136,19815 11236,20313 11336,20428 11436,20656 11537,20739 11637,20533 11737,20533 11836,20549 11936,19839 12036,19619 12137,19319 12237,19069 12337,18775 12437,18775 12537,18728 12637,18784 12738,18540 12838,18282 12938,18167 13038,18198 13138,18183 13238,17888 13339,17593 13439,17669 13539,17547 13639,16703 13739,16479 13839,16495 13940,16840 14040,15418 14140,14787 14240,13783 14340,13096 14441,11700 14541,11640 14641,11522 14741,9208 14841,8160 14941,8198 15042,8040 15142,8097 15242,6619 15342,4822 15442,8725 15542,9368 15643,10046 15743,10846 15843,12236 15943,12266 16043,13107 16143,13411 16244,13925 16344,14392 16444,14790 16544,14811 16644,15275 16744,14884 16845,15080 16945,14931 17045,14293 17145,13237 17245,12048 17345,10765 17446,10420 17546,8858 17646,7210 17746,5639 17846,4206 17946,3003 18039,1551"/>
 <path fill="none" stroke="rgb(0,0,255)" stroke-width="80" stroke-linejoin="round" stroke-dasharray="51,127,51,127,254,127,254,127,254,127" d="M 4108,1551 L 4124,2124 4224,2759 4324,4233 4425,5827 4525,8203 4625,6928 4725,8287 4825,9357 4925,10806 5026,11700 5126,11100 5226,11231 5326,11202 5426,11643 5526,11921 5627,11672 5727,11960 5827,13196 5927,13730 6027,14413 6128,14823 6228,15210 6328,15880 6428,16046 6528,15978 6628,16330 6729,16290 6829,16369 6929,16385 7029,16671 7129,17041 7229,17395 7330,16614 7430,16843 7530,16643 7630,16751 7730,16714 7830,17041 7931,17025 8031,17877 8131,17923 8231,18056 8331,17949 8431,17862 8532,17556 8632,17513 8732,17521 8832,17508 8932,17600 9032,17636 9133,17719 9233,17687 9333,17572 9433,17316 9533,17428 9633,17463 9734,17506 9834,17432 9934,17363 10034,17379 10134,17658 10234,17388 10335,17417 10435,17573 10535,17310 10635,17468 10735,17533 10835,17526 10936,17827 11036,17962 11136,17905 11236,17931 11336,18042 11436,18192 11537,18106 11637,18045 11737,17992 11836,18000 11936,17863 12036,17828 12137,17613 12237,17505 12337,17296 12437,17293 12537,17262 12637,16657 12738,16332 12838,16072 12938,15757 13038,15488 13138,15318 13238,15180 13339,14837 13439,14671 13539,14603 13639,14293 13739,13811 13839,13755 13940,13775 14040,13768 14140,12710 14240,12482 14340,12073 14441,11569 14541,11505 14641,11341 14741,10709 14841,11508 14941,10657 15042,10563 15142,10179 15242,9644 15342,9705 15442,8900 15542,8669 15643,9003 15743,9096 15843,7583 15943,7598 16043,6887 16143,6804 16244,6181 16344,5444 16444,4482 16544,5752 16644,6220 16744,5577 16845,5201 16945,5090 17045,4961 17145,5059 17245,4722 17345,4664 17446,5888 17546,3823 17646,3468 17746,3198 17846,2789 17946,2566 18047,2225 18147,2041 18247,2050 18347,1768 18415,1551"/>
 <path fill="none" stroke="rgb(0,169,51)" stroke-width="80" stroke-linejoin="round" stroke-dasharray="158,102" d="M 4136,1551 L 4224,2507 4324,3265 4425,3823 4525,4155 4625,4779 4725,5776 4825,6395 4925,6040 5026,5761 5126,4602 5226,3682 5326,2682 5407,1551"/>
 <path fill="none" stroke="rgb(0,169,51)" stroke-width="80" stroke-linejoin="round" stroke-dasharray="158,102" d="M 8701,1551 L 8732,2236 8832,3228 8932,3286 9032,3418 9133,3155 9233,2830 9333,2347 9433,2157 9533,2139 9633,2526 9734,2903 9834,3018 9934,3404 10034,3744 10134,3990 10234,4216 10335,4287 10435,4373 10535,4633 10635,4828 10735,5019 10835,5173 10936,5440 11036,5636 11136,5756 11236,5872 11336,5886 11436,5940 11537,6639 11637,7080 11737,7283 11836,7767 11936,8150 12036,8401 12137,8807 12237,8569 12337,8596 12437,8914 12537,9032 12637,9100 12738,9145 12838,9109 12938,9139 13038,9171 13138,9161 13238,9151 13339,9252 13439,9344 13539,9427 13639,9546 13739,9523 13839,9459 13940,9311 14040,9303 14140,9361 14240,9433 14340,9537 14441,9803 14541,10195 14641,10748 14741,11155 14841,11522 14941,11737 15042,11830 15142,11877 15242,11869 15342,11862 15442,11857 15542,11906 15643,12025 15743,12320 15843,12576 15943,12773 16043,12845 16143,12908 16244,13076 16344,13260 16444,13371 16544,13481 16644,13603 16744,13863 16845,14263 16945,14617 17045,14884 17145,15039 17245,15131 17345,15175 17446,15076 17546,14825 17646,14516 17746,14304 17846,14309 17946,14195 18047,14103 18147,14093 18247,13889 18347,13725 18447,13422 18547,13073"/>
 <path fill="none" stroke="rgb(0,169,51)" stroke-width="80" stroke-linejoin="round" d="M 3075,1551 L 3122,3003 3223,6397 3323,9326 3423,10367 3523,11191 3623,12901 3723,13816 3824,14805 3924,15580 4024,15601 4124,15651 4224,15630 4324,15595 4425,15716 4525,16125 4625,16015 4725,16735 4825,17283 4925,17640 5026,18398 5126,18558 5226,18328 5326,19113 5426,18690 5526,18713 5627,18892 5727,18233 5827,18215 5927,18326 6027,17949 6128,17531 6228,17503 6328,17297 6428,17674 6528,17737 6628,17884 6729,18144 6829,18708 6929,19025 7029,18915 7129,19360 7229,19340 7330,19527 7430,19596 7530,19857 7630,19494 7730,19928 7830,19830 7931,20112 8031,20154 8131,20020 8231,19713 8331,20242 8431,19446 8532,19637 8632,19465 8732,19533 8832,19639 8932,20153 9032,19821 9133,20321 9233,19795 9333,19946 9433,20060 9533,19845 9633,19384 9734,19547 9834,19393 9934,19718 10034,19393 10134,19300 10234,19345 10335,19282 10435,18612 10535,18261 10635,18089 10735,17311 10835,16843 10936,16096 11036,15442 11136,14988 11236,14828 11336,14694 11436,14915 11537,14549 11637,14769 11737,15287 11836,15343 11936,15761 12036,15589 12137,15161 12237,15044 12337,14246 12437,13613 12537,14019 12637,13635 12738,13548 12838,13946 12938,13413 13038,14070 13138,14233 13238,13716 13339,13775 13439,13444 13539,12748 13639,13503 13739,12935 13839,13423 13940,13909 14040,13995 14140,14275 14240,15220 14340,15008 14441,15404 14541,15431 14641,15246 14741,15351 14841,14965 14941,13942 15042,13753 15142,12464 15242,10403 15342,9737 15442,8922 15542,7545 15643,7108 15743,5443 15843,5206 15943,5457 16043,5595 16143,5022 16244,5971 16344,5522 16444,5923 16544,7001 16644,6396 16744,6599 16845,6504 16945,6691 17045,6888 17145,6488 17245,5622 17345,6153 17446,6238 17546,6261 17646,4000 17746,2912 17829,1551"/>
 <path fill="none" stroke="rgb(0,223,255)" stroke-width="80" stroke-linejoin="round" stroke-dasharray="158,102" d="M 9915,1551 L 9934,1673 10034,2214 10134,2741 10234,3450 10335,4080 10435,4654 10535,5199 10635,5666 10735,6075 10835,6383 10936,6585 11036,6830 11136,7018 11236,7215 11336,7475 11436,7629 11537,7862 11637,8035 11737,8188 11836,8368 11936,8520 12036,8684 12137,8848 12237,8995 12337,9188 12437,9416 12537,9674 12637,9961 12738,10182 12838,10443 12938,10707 13038,10973 13138,11169 13238,11354 13339,11516 13439,11717 13539,11902 13639,12068 13739,12224 13839,12402 13940,12563 14040,12692 14140,12821 14240,12950 14340,13074 14441,13203 14541,13322 14641,13437 14741,13562 14841,13670 14941,13753 15042,13858 15142,13951 15242,14037 15342,14143 15442,14246 15542,14331 15643,14437 15743,14539 15843,14622 15943,14704 16043,14770 16143,14844 16244,14900 16344,14971 16444,15029 16544,15084 16644,15125 16744,15140 16845,15122 16945,15150 17045,15131 17145,15105 17245,15075 17345,15048 17446,15042 17546,15042 17646,15003 17746,14981 17846,14944 17946,14908 18047,14892 18147,14876 18247,14851 18347,14803 18447,14753 18547,14720"/>
 <path fill="none" stroke="rgb(0,255,0)" stroke-width="80" stroke-linejoin="round" d="M 3248,1551 L 3323,3323 3423,3324 3523,4086 3623,5296 3723,7097 3824,8632 3924,10076 4024,11051 4124,12455 4224,13280 4324,13460 4425,13981 4525,14406 4625,14907 4725,15719 4825,16324 4925,16538 5026,17070 5126,17747 5226,18570 5326,18852 5426,19340 5526,19586 5627,19850 5727,19796 5827,19925 5927,20041 6027,20254 6128,20161 6228,20433 6328,20635 6428,20739 6528,20693 6628,20792 6729,21054 6829,21328 6929,21356 7029,21357 7129,21398 7229,21569 7330,21679 7430,21550 7530,21557 7630,21517 7730,21524 7830,21606 7931,21579 8031,21579 8131,21641 8231,21621 8331,21676 8431,21689 8532,21602 8632,21575 8732,21488 8832,21516 8932,21442 9032,21348 9133,21302 9233,21255 9333,21189 9433,21324 9533,21218 9633,21373 9734,21200 9834,21173 9934,21181 10034,21109 10134,20849 10234,20697 10335,20291 10435,20208 10535,20096 10635,19832 10735,19218 10835,18800 10936,18304 11036,18128 11136,18083 11236,18009 11336,18070 11436,18141 11537,18339 11637,18550 11737,18368 11836,18402 11936,18305 12036,18209 12137,18206 12237,17872 12337,17963 12437,18088 12537,17888 12637,18023 12738,17792 12838,17754 12938,17930 13038,17555 13138,17335 13238,17282 13339,17152 13439,17021 13539,16723 13639,16112 13739,15799 13839,15633 13940,15485 14040,15492 14140,15530 14240,15640 14340,15914 14441,16242 14541,16262 14641,16203 14741,15987 14841,15678 14941,15173 15042,14903 15142,14322 15242,13957 15342,13719 15442,13613 15542,13601 15643,13458 15743,13336 15843,13190 15943,13021 16043,12655 16143,12529 16244,12553 16344,12245 16444,11808 16544,11710 16644,11364 16744,11357 16845,11368 16945,11351 17045,11522 17145,11602 17245,11363 17345,11218 17446,10542 17546,10450 17646,10368 17746,9990 17846,9896 17946,9424 18047,9360 18147,9345 18247,9092 18347,8840 18447,8773 18547,8324"/>
 <path fill="none" stroke="rgb(89,131,176)" stroke-width="80" stroke-linejoin="round" d="M 2891,1551 L 2922,4000 2983,1551"/>
 <path fill="none" stroke="rgb(89,131,176)" stroke-width="80" stroke-linejoin="round" d="M 3211,1551 L 3223,1827 3323,2002 3423,4726 3523,4934 3623,4515 3723,3898 3824,7124 3924,6584 4024,8670 4124,9163 4224,9482 4324,8792 4425,11816 4525,12890 4625,13443 4725,13763 4825,13519 4925,14014 5026,14352 5126,14647 5226,14406 5326,14693 5426,14638 5526,15525 5627,16364 5727,17083 5827,17709 5927,18172 6027,18526 6128,18823 6228,18671 6328,19170 6428,19563 6528,19671 6628,19500 6729,19508 6829,19615 6929,19771 7029,19672 7129,19449 7229,19353 7330,19815 7430,20121 7530,20100 7630,20177 7730,20329 7830,20582 7931,20487 8031,20068 8131,19898 8231,20051 8331,19731 8431,19536 8532,19391 8632,19497 8732,19824 8832,19976 8932,20003 9032,20324 9133,20279 9233,20331 9333,19996 9433,19952 9533,19810 9633,19619 9734,19620 9834,19866 9934,19678 10034,20071 10134,20458 10234,19841 10335,19894 10435,19752 10535,19730 10635,19831 10735,19812 10835,19670 10936,20272 11036,20488 11136,20607 11236,20632 11336,20776 11436,21107 11537,20897 11637,21134 11737,21181 11836,21181 11936,21252 12036,21114 12137,20951 12237,21209 12337,21187 12437,21188 12537,21281 12637,21212 12738,21168 12838,21261 12938,20754 13038,20825 13138,20456 13238,20318 13339,20112 13439,20140 13539,19773 13639,19552 13739,18981 13839,19125 13940,18922 14040,17765 14140,17546 14240,16990 14340,16491 14441,15363 14541,14585 14641,14058 14741,14563 14841,13719 14941,14094 15042,13948 15142,14588 15242,14432 15342,14442 15442,14286 15542,14684 15643,14304 15743,15057 15843,14658 15943,15392 16043,15753 16143,15437 16244,15307 16344,15363 16444,15326 16544,16150 16644,16063 16744,15916 16845,14619 16945,14065 17045,11866 17145,10956 17245,9602 17345,8930 17446,7797 17546,8101 17646,7969 17746,8936 17846,8385 17946,8059 18047,7939 18147,8367 18247,8727 18347,8578 18447,9042 18547,8739"/>
 <path fill="none" stroke="rgb(52,42,6)" stroke-width="80" stroke-linejoin="round" d="M 3900,1551 L 3924,2342 4024,3240 4124,4322 4224,5817 4324,6055 4425,7319 4525,8938 4625,10177 4725,11125 4825,11953 4925,12673 5026,13133 5126,13834 5226,14169 5326,14108 5426,14347 5526,14559 5627,14320 5727,14686 5827,15021 5927,16167 6027,16701 6128,16989 6228,16931 6328,17575 6428,16831 6528,17138 6628,16949 6729,17051 6829,17355 6929,17697 7029,17595 7129,18363 7229,18811 7330,18678 7430,18649 7530,18665 7630,18812 7730,18919 7830,19292 7931,19392 8031,19770 8131,20092 8231,19801 8331,19714 8431,19518 8532,19396 8632,19655 8732,19866 8832,19779 8932,20331 9032,20389 9133,20611 9233,20421 9333,20046 9433,18884 9533,18953 9633,18587 9734,18202 9834,17838 9934,17694 10034,17660 10134,18472 10234,18282 10335,18234 10435,18647 10535,18816 10635,19192 10735,19108 10835,19141 10936,19426 11036,19437 11136,19344 11236,19144 11336,19254 11436,19388 11537,19581 11637,19670 11737,19719 11836,19845 11936,20146 12036,20152 12137,20075 12237,19808 12337,19537 12437,19538 12537,19438 12637,19099 12738,18983 12838,18861 12938,18824 13038,18683 13138,18408 13238,18332 13339,18493 13439,18293 13539,18018 13639,17641 13739,17534 13839,17599 13940,17784 14040,17345 14140,17237 14240,16812 14340,16901 14441,16634 14541,16551 14641,16389 14741,16091 14841,15804 14941,15810 15042,15358 15142,15056 15242,15089 15342,14974 15442,14565 15542,14233 15643,14030 15743,13930 15843,13776 15943,13677 16043,13592 16143,13717 16244,13733 16344,13937 16444,14018 16544,14242 16644,14381 16744,14547 16845,14717 16945,14981 17045,15052 17145,15214 17245,15356 17345,15320 17446,15162 17546,14865 17646,14803 17746,14778 17846,14581 17946,14507 18047,14277 18147,14092 18247,14493 18347,14157 18447,13897 18547,13580"/>
 <path fill="none" stroke="rgb(255,0,0)" stroke-width="80" stroke-linejoin="round" stroke-dasharray="158,102" d="M 5528,1551 L 5627,2617 5727,3102 5827,4402 5927,5200 6027,5649 6128,5741 6228,6187 6328,6250 6428,7448 6528,8590 6628,9715 6729,10937 6829,11658 6929,12071 7029,12387 7129,12556 7229,12532 7330,12294 7430,12102 7530,12451 7630,12924 7730,13195 7830,13462 7931,13738 8031,14053 8131,14382 8231,14564 8331,14509 8431,14344 8532,14122 8632,14096 8732,14146 8832,13864 8932,13193 9032,12449 9133,11774 9233,11261 9333,10711 9433,10397 9533,10457 9633,10804 9734,11337 9834,11875 9934,12187 10034,12195 10134,12093 10234,11956 10335,11888 10435,11773 10535,11662 10635,11706 10735,12114 10835,12485 10936,12796 11036,13094 11136,13378 11236,13742 11336,14048 11436,14253 11537,14468 11637,14686 11737,14870 11836,15049 11936,15166 12036,15264 12137,15393 12237,15517 12337,15626 12437,15754 12537,15872 12637,15977 12738,16069 12838,16140 12938,16186 13038,16202 13138,16225 13238,16248 13339,16285 13439,16277 13539,16265 13639,16239 13739,16223 13839,16179 13940,16149 14040,16105 14140,16021 14240,15833 14340,15692 14441,15537 14541,15409 14641,15264 14741,15118 14841,15062 14941,15069 15042,15025 15142,15026 15242,14989 15342,15017 15442,15019 15542,14986 15643,14945 15743,14839 15843,14896 15943,14889 16043,14904 16143,14766 16244,14607 16344,14639 16444,14617 16544,14398 16644,14244 16744,14069 16845,13999 16945,13992 17045,13809 17145,13738 17245,13713 17345,13667 17446,13640 17546,13602 17646,13508 17746,13501 17846,13653 17946,13659 18047,13834 18147,13920 18247,13962 18347,14028 18447,14005 18547,13951"/>
 <path fill="none" stroke="rgb(0,0,255)" stroke-width="80" stroke-linejoin="round" stroke-dasharray="158,158" d="M 1420,6107 L 1520,5115 1620,5281 1720,5811 1820,6084 1920,7477 2021,8162 2121,8945 2221,10776 2321,11905 2421,13041 2521,14342 2622,15728 2722,16777 2822,17248 2922,17675 3022,18220 3122,18575 3223,18684 3323,18933 3423,19419 3523,19663 3623,20025 3723,20346 3824,20507 3924,20746 4024,20905 4124,20867 4224,20849 4324,20850 4425,20988 4525,21087 4625,21166 4725,21109 4825,21149 4925,21364 5026,21500 5126,21500 5226,21443 5326,21212 5426,20808 5526,20289 5627,19827 5727,19365 5827,18884 5927,18600 6027,18587 6128,19001 6228,19393 6328,19667 6428,19559 6528,19889 6628,20027 6729,19956 6829,19733 6929,19717 7029,19608 7129,19466 7229,18215 7330,17512 7430,17224 7530,17198 7630,16852 7730,16509 7830,16364 7931,17140 8031,17513 8131,17311 8231,16779 8331,16741 8431,16760 8532,16766 8632,16677 8732,16393 8832,16472 8932,16907 9032,16960 9133,17048 9233,17192 9333,16968 9433,17115 9533,16807 9633,16582 9734,16925 9834,16735 9934,16618 10034,17172 10134,17362 10234,17659 10335,17442 10435,17030 10535,17100 10635,17138 10735,16719 10835,16340 10936,16167 11036,16213 11136,16168 11236,16173 11336,15986 11436,16094 11537,16413 11637,16890 11737,17186 11836,16950 11936,17142 12036,17544 12137,17374 12237,17157 12337,17108 12437,17280 12537,17860 12637,17686 12738,17331 12838,17384 12938,17695 13038,16585 13138,16236 13238,16262 13339,16538 13439,16790 13539,17426 13639,17515 13739,18765 13839,19192 13940,19227 14040,19145 14140,19375 14240,19014 14340,19256 14441,19088 14541,19008 14641,18941 14741,18949 14841,18655 14941,18479 15042,17294 15142,15550 15242,12101 15342,9716 15442,6734 15542,3353 15599,1551"/>
 <path fill="none" stroke="rgb(0,0,255)" stroke-width="80" stroke-linejoin="round" stroke-dasharray="158,158" d="M 17077,1551 L 17145,3108 17245,5092 17345,6750 17446,8290 17546,9476 17646,10774 17746,11287 17846,11612 17946,12015 18047,12548 18147,12701 18247,13054 18347,13536 18447,13618 18547,14163"/>
 <path fill="none" stroke="rgb(241,13,12)" stroke-width="80" stroke-linejoin="round" d="M 10703,1551 L 10735,2854 10835,5171 10936,7097 11036,8504 11136,8921 11236,10543 11336,12298 11436,12844 11537,14003 11637,15044 11737,15248 11836,15896 11936,16156 12036,16072 12137,16810 12237,17015 12337,17267 12437,17615 12537,17611 12637,17733 12738,18006 12838,18029 12938,18194 13038,18315 13138,18499 13238,18695 13339,18869 13439,18721 13539,18724 13639,18508 13739,18533 13839,18087 13940,18100 14040,17846 14140,17724 14240,17404 14340,17218 14441,16906 14541,17043 14641,16951 14741,16880 14841,16681 14941,16662 15042,16731 15142,16853 15242,16961 15342,16992 15442,17062 15542,17358 15643,17626 15743,17722 15843,17860 15943,18041 16043,18060 16143,18049 16244,18291 16344,18574 16444,19091 16544,19851 16644,20256 16744,20400 16845,19808 16945,20021 17045,20612 17145,20458 17245,19824 17345,19824 17446,19824 17546,19461 17646,19449 17746,19050 17846,18770 17946,18647 18047,18647 18147,18647 18247,20066 18347,18391 18447,18261 18547,18286"/>
 <path fill="none" stroke="rgb(85,48,141)" stroke-width="80" stroke-linejoin="round" stroke-dasharray="80,40" d="M 6908,1551 L 6929,1708 7029,2162 7129,2720 7229,3448 7330,4168 7430,5104 7530,6404 7630,6961 7730,7628 7830,8497 7931,9147 8031,10123 8131,10833 8231,11484 8331,11792 8431,12347 8532,12884 8632,13397 8732,13869 8832,14454 8932,14670 9032,15459 9133,16016 9233,16339 9333,16526 9433,16663 9533,16686 9633,16712 9734,16825 9834,16884 9934,16850 10034,17045 10134,17085 10234,17659 10335,18083 10435,18098 10535,17514 10635,17695 10735,17968 10835,18025 10936,17728 11036,17791 11136,18014 11236,18465 11336,18591 11436,18363 11537,18440 11637,18435 11737,18553 11836,18582 11936,18182 12036,17885 12137,17837 12237,17603 12337,17451 12437,17172 12537,17001 12637,16778 12738,16478 12838,16545 12938,16275 13038,15734 13138,15680 13238,15649 13339,15857 13439,16136 13539,15844 13639,16403 13739,16644 13839,16865 13940,17014 14040,17898 14140,17404 14240,17623 14340,17576 14441,17755 14541,17759 14641,17814 14741,16980 14841,17620 14941,17739 15042,17540 15142,17717 15242,17770 15342,17847 15442,18677 15542,17786 15643,17780 15743,18238 15843,17799 15943,17772 16043,17647 16143,16712 16244,17678 16344,17436 16444,17049 16544,17388 16644,17305 16744,17328 16845,16946 16945,16642 17045,16595 17145,16406 17245,16255 17345,16152 17446,15955 17546,17000 17646,15503 17746,15752 17846,15412 17946,15279 18047,15114 18147,14984 18247,13374 18347,14483 18447,13627 18547,13366"/>
 <path fill="none" stroke="rgb(255,128,0)" stroke-width="80" stroke-linejoin="round" d="M 5926,1551 L 5927,1563 6027,2403 6128,2685 6228,3388 6328,4682 6428,5277 6528,6082 6628,6331 6729,6948 6829,7599 6929,8140 7029,9155 7129,10556 7229,11474 7330,12292 7430,12830 7530,13229 7630,13519 7730,13718 7830,13933 7931,14373 8031,14836 8131,15205 8231,15490 8331,15803 8431,16121 8532,16405 8632,16566 8732,16776 8832,16843 8932,16786 9032,16731 9133,16804 9233,16887 9333,17056 9433,17066 9533,17140 9633,17327 9734,17481 9834,17606 9934,17777 10034,17961 10134,18220 10234,18493 10335,18526 10435,18696 10535,18910 10635,19275 10735,19811 10835,20327 10936,20432 11036,20443 11136,20364 11236,20559 11336,20430 11436,20012 11537,19547 11637,19536 11737,19396 11836,19306 11936,19181 12036,18713 12137,18792 12237,18798 12337,18687 12437,18695 12537,18649 12637,18621 12738,19202 12838,19190 12938,19103 13038,19053 13138,19104 13238,19095 13339,19030 13439,18959 13539,18799 13639,18761 13739,18691 13839,18701 13940,18712 14040,18545 14140,18468 14240,18407 14340,18338 14441,18338 14541,18351 14641,18112 14741,18209 14841,17897 14941,17820 15042,17711 15142,17348 15242,17176 15342,17195 15442,17273 15542,17317 15643,17470 15743,17457 15843,17742 15943,17568 16043,17626 16143,17470 16244,17430 16344,17240 16444,17036 16544,16902 16644,17066 16744,16635 16845,16375 16945,16314 17045,16103 17145,15984 17245,15584 17345,15161 17446,14435 17546,13522 17646,12852 17746,12181 17846,11535 17946,10652 18047,9706 18147,9605 18247,9904 18347,9620 18447,8943 18547,8776"/>
 <path fill="none" stroke="rgb(0,127,255)" stroke-width="80" stroke-linejoin="round" d="M 4231,1551 L 4324,2510 4425,4294 4525,5394 4625,6799 4725,7474 4825,8634 4925,9295 5026,10481 5126,11259 5226,11838 5326,12577 5426,13478 5526,14117 5627,14633 5727,14352 5827,14946 5927,15389 6027,15947 6128,16178 6228,16321 6328,16619 6428,17210 6528,17440 6628,17788 6729,17932 6829,18140 6929,18285 7029,18433 7129,18829 7229,18914 7330,18968 7430,19102 7530,19341 7630,19527 7730,19621 7830,19697 7931,19941 8031,20321 8131,20324 8231,20458 8331,20582 8431,20512 8532,20546 8632,20655 8732,20476 8832,20796 8932,20730 9032,20606 9133,20590 9233,20657 9333,20547 9433,20592 9533,20867 9633,20942 9734,21044 9834,21116 9934,21202 10034,20986 10134,21018 10234,20665 10335,20744 10435,20789 10535,20874 10635,20849 10735,21196 10835,21280 10936,21309 11036,21258 11136,21243 11236,21173 11336,21178 11436,21169 11537,21159 11637,21114 11737,21156 11836,21121 11936,21156 12036,21176 12137,21204 12237,21191 12337,21231 12437,21180 12537,21194 12637,21177 12738,21166 12838,21066 12938,21002 13038,20985 13138,20965 13238,20936 13339,20956 13439,20894 13539,20889 13639,20826 13739,20720 13839,20704 13940,20719 14040,20728 14140,20739 14240,20660 14340,20647 14441,20504 14541,20463 14641,20276 14741,20193 14841,20009 14941,19935 15042,19838 15142,19825 15242,19594 15342,19588 15442,19540 15542,19554 15643,19422 15743,19165 15843,18865 15943,18511 16043,17918 16143,17405 16244,17025 16344,16447 16444,16004 16544,15612 16644,15339 16744,15247 16845,15239 16945,15184 17045,15253 17145,15300 17245,15126 17345,14970 17446,15061 17546,14969 17646,14692 17746,14650 17846,14537 17946,14674 18047,14867 18147,14782 18247,14919 18347,15060 18447,15080 18547,15132"/>
 <path fill="none" stroke="rgb(112,110,12)" stroke-width="80" stroke-linejoin="round" stroke-dasharray="80,40" d="M 4811,1551 L 4825,1865 4925,3150 5026,3967 5126,5498 5226,6572 5326,7452 5426,8970 5526,9882 5627,10555 5727,11161 5827,11650 5927,12463 6027,12662 6128,12926 6228,13229 6328,13527 6428,13537 6528,13992 6628,14233 6729,14940 6829,15379 6929,15595 7029,15619 7129,15885 7229,16145 7330,16369 7430,16482 7530,16740 7630,17040 7730,17235 7830,17103 7931,17168 8031,17601 8131,17891 8231,18058 8331,18256 8431,18400 8532,18775 8632,18991 8732,19174 8832,19323 8932,19438 9032,19492 9133,19543 9233,19576 9333,19640 9433,19709 9533,19729 9633,19845 9734,19865 9834,19906 9934,19929 10034,19925 10134,19858 10234,19858 10335,19870 10435,19900 10535,19990 10635,20033 10735,20013 10835,19950 10936,19895 11036,19887 11136,19935 11236,19870 11336,19839 11436,19808 11537,19967 11637,20042 11737,20044 11836,19972 11936,19955 12036,19789 12137,19721 12237,19628 12337,19639 12437,19631 12537,19727 12637,19750 12738,19785 12838,19856 12938,19839 13038,19855 13138,19862 13238,19848 13339,19805 13439,19975 13539,19974 13639,19996 13739,20055 13839,20058 13940,20064 14040,20099 14140,19995 14240,20039 14340,20080 14441,20049 14541,20078 14641,20089 14741,20126 14841,20170 14941,20141 15042,20128 15142,20125 15242,20114 15342,20071 15442,20107 15542,20117 15643,20154 15743,20225 15843,20238 15943,20281 16043,20301 16143,20303 16244,20319 16344,20354 16444,20264 16544,20303 16644,20315 16744,20257 16845,20139 16945,20081 17045,20016 17145,19973 17245,19867 17345,19791 17446,19780 17546,19849 17646,19948 17746,20015 17846,20082 17946,20079 18047,20060 18147,20066 18247,20039 18347,19943 18447,19911 18547,19849"/>
 <text class="TextShape" transform="rotate(-90 1514 23299)"><tspan class="TextParagraph" font-family="Liberation Sans, sans-serif" font-size="282px" font-weight="400"><tspan class="TextPosition" x="1514" y="23299"><tspan fill="rgb(0,0,0)" stroke="none">30.03</tspan></tspan></tspan></text>
 <text class="TextShape" transform="rotate(-90 2215 23299)"><tspan class="TextParagraph" font-family="Liberation Sans, sans-serif" font-size="282px" font-weight="400"><tspan class="TextPosition" x="2215" y="23299"><tspan fill="rgb(0,0,0)" stroke="none">06.04</tspan></tspan></tspan></text>
 <text class="TextShape" transform="rotate(-90 2916 23299)"><tspan class="TextParagraph" font-family="Liberation Sans, sans-serif" font-size="282px" font-weight="400"><tspan class="TextPosition" x="2916" y="23299"><tspan fill="rgb(0,0,0)" stroke="none">13.04</tspan></tspan></tspan></text>
 <text class="TextShape" transform="rotate(-90 3617 23299)"><tspan class="TextParagraph" font-family="Liberation Sans, sans-serif" font-size="282px" font-weight="400"><tspan class="TextPosition" x="3617" y="23299"><tspan fill="rgb(0,0,0)" stroke="none">20.04</tspan></tspan></tspan></text>
 <text class="TextShape" transform="rotate(-90 4318 23299)"><tspan class="TextParagraph" font-family="Liberation Sans, sans-serif" font-size="282px" font-weight="400"><tspan class="TextPosition" x="4318" y="23299"><tspan fill="rgb(0,0,0)" stroke="none">27.04</tspan></tspan></tspan></text>
 <text class="TextShape" transform="rotate(-90 5019 23299)"><tspan class="TextParagraph" font-family="Liberation Sans, sans-serif" font-size="282px" font-weight="400"><tspan class="TextPosition" x="5019" y="23299"><tspan fill="rgb(0,0,0)" stroke="none">04.05</tspan></tspan></tspan></text>
 <text class="TextShape" transform="rotate(-90 5721 23299)"><tspan class="TextParagraph" font-family="Liberation Sans, sans-serif" font-size="282px" font-weight="400"><tspan class="TextPosition" x="5721" y="23299"><tspan fill="rgb(0,0,0)" stroke="none">11.05</tspan></tspan></tspan></text>
 <text class="TextShape" transform="rotate(-90 6422 23299)"><tspan class="TextParagraph" font-family="Liberation Sans, sans-serif" font-size="282px" font-weight="400"><tspan class="TextPosition" x="6422" y="23299"><tspan fill="rgb(0,0,0)" stroke="none">18.05</tspan></tspan></tspan></text>
 <text class="TextShape" transform="rotate(-90 7123 23299)"><tspan class="TextParagraph" font-family="Liberation Sans, sans-serif" font-size="282px" font-weight="400"><tspan class="TextPosition" x="7123" y="23299"><tspan fill="rgb(0,0,0)" stroke="none">25.05</tspan></tspan></tspan></text>
 <text class="TextShape" transform="rotate(-90 7824 23299)"><tspan class="TextParagraph" font-family="Liberation Sans, sans-serif" font-size="282px" font-weight="400"><tspan class="TextPosition" x="7824" y="23299"><tspan fill="rgb(0,0,0)" stroke="none">01.06</tspan></tspan></tspan></text>
 <text class="TextShape" transform="rotate(-90 8525 23299)"><tspan class="TextParagraph" font-family="Liberation Sans, sans-serif" font-size="282px" font-weight="400"><tspan class="TextPosition" x="8525" y="23299"><tspan fill="rgb(0,0,0)" stroke="none">08.06</tspan></tspan></tspan></text>
 <text class="TextShape" transform="rotate(-90 9227 23299)"><tspan class="TextParagraph" font-family="Liberation Sans, sans-serif" font-size="282px" font-weight="400"><tspan class="TextPosition" x="9227" y="23299"><tspan fill="rgb(0,0,0)" stroke="none">15.06</tspan></tspan></tspan></text>
 <text class="TextShape" transform="rotate(-90 9928 23299)"><tspan class="TextParagraph" font-family="Liberation Sans, sans-serif" font-size="282px" font-weight="400"><tspan class="TextPosition" x="9928" y="23299"><tspan fill="rgb(0,0,0)" stroke="none">22.06</tspan></tspan></tspan></text>
 <text class="TextShape" transform="rotate(-90 10629 23299)"><tspan class="TextParagraph" font-family="Liberation Sans, sans-serif" font-size="282px" font-weight="400"><tspan class="TextPosition" x="10629" y="23299"><tspan fill="rgb(0,0,0)" stroke="none">29.06</tspan></tspan></tspan></text>
 <text class="TextShape" transform="rotate(-90 11330 23299)"><tspan class="TextParagraph" font-family="Liberation Sans, sans-serif" font-size="282px" font-weight="400"><tspan class="TextPosition" x="11330" y="23299"><tspan fill="rgb(0,0,0)" stroke="none">06.07</tspan></tspan></tspan></text>
 <text class="TextShape" transform="rotate(-90 12030 23299)"><tspan class="TextParagraph" font-family="Liberation Sans, sans-serif" font-size="282px" font-weight="400"><tspan class="TextPosition" x="12030" y="23299"><tspan fill="rgb(0,0,0)" stroke="none">13.07</tspan></tspan></tspan></text>
 <text class="TextShape" transform="rotate(-90 12731 23299)"><tspan class="TextParagraph" font-family="Liberation Sans, sans-serif" font-size="282px" font-weight="400"><tspan class="TextPosition" x="12731" y="23299"><tspan fill="rgb(0,0,0)" stroke="none">20.07</tspan></tspan></tspan></text>
 <text class="TextShape" transform="rotate(-90 13433 23299)"><tspan class="TextParagraph" font-family="Liberation Sans, sans-serif" font-size="282px" font-weight="400"><tspan class="TextPosition" x="13433" y="23299"><tspan fill="rgb(0,0,0)" stroke="none">27.07</tspan></tspan></tspan></text>
 <text class="TextShape" transform="rotate(-90 14134 23299)"><tspan class="TextParagraph" font-family="Liberation Sans, sans-serif" font-size="282px" font-weight="400"><tspan class="TextPosition" x="14134" y="23299"><tspan fill="rgb(0,0,0)" stroke="none">03.08</tspan></tspan></tspan></text>
 <text class="TextShape" transform="rotate(-90 14835 23299)"><tspan class="TextParagraph" font-family="Liberation Sans, sans-serif" font-size="282px" font-weight="400"><tspan class="TextPosition" x="14835" y="23299"><tspan fill="rgb(0,0,0)" stroke="none">10.08</tspan></tspan></tspan></text>
 <text class="TextShape" transform="rotate(-90 15536 23299)"><tspan class="TextParagraph" font-family="Liberation Sans, sans-serif" font-size="282px" font-weight="400"><tspan class="TextPosition" x="15536" y="23299"><tspan fill="rgb(0,0,0)" stroke="none">17.08</tspan></tspan></tspan></text>
 <text class="TextShape" transform="rotate(-90 16237 23299)"><tspan class="TextParagraph" font-family="Liberation Sans, sans-serif" font-size="282px" font-weight="400"><tspan class="TextPosition" x="16237" y="23299"><tspan fill="rgb(0,0,0)" stroke="none">24.08</tspan></tspan></tspan></text>
 <text class="TextShape" transform="rotate(-90 16939 23299)"><tspan class="TextParagraph" font-family="Liberation Sans, sans-serif" font-size="282px" font-weight="400"><tspan class="TextPosition" x="16939" y="23299"><tspan fill="rgb(0,0,0)" stroke="none">31.08</tspan></tspan></tspan></text>
 <text class="TextShape" transform="rotate(-90 17640 23299)"><tspan class="TextParagraph" font-family="Liberation Sans, sans-serif" font-size="282px" font-weight="400"><tspan class="TextPosition" x="17640" y="23299"><tspan fill="rgb(0,0,0)" stroke="none">07.09</tspan></tspan></tspan></text>
 <text class="TextShape" transform="rotate(-90 18341 23299)"><tspan class="TextParagraph" font-family="Liberation Sans, sans-serif" font-size="282px" font-weight="400"><tspan class="TextPosition" x="18341" y="23299"><tspan fill="rgb(0,0,0)" stroke="none">14.09</tspan></tspan></tspan></text>
 <text class="TextShape"><tspan class="TextParagraph" font-family="Liberation Sans, sans-serif" font-size="388px" font-weight="400"><tspan class="TextPosition" x="379" y="22499"><tspan fill="rgb(0,0,0)" stroke="none">1,00</tspan></tspan></tspan></text>
 <text class="TextShape"><tspan class="TextParagraph" font-family="Liberation Sans, sans-serif" font-size="388px" font-weight="400"><tspan class="TextPosition" x="379" y="20416"><tspan fill="rgb(0,0,0)" stroke="none">1,01</tspan></tspan></tspan></text>
 <text class="TextShape"><tspan class="TextParagraph" font-family="Liberation Sans, sans-serif" font-size="388px" font-weight="400"><tspan class="TextPosition" x="379" y="18334"><tspan fill="rgb(0,0,0)" stroke="none">1,02</tspan></tspan></tspan></text>
 <text class="TextShape"><tspan class="TextParagraph" font-family="Liberation Sans, sans-serif" font-size="388px" font-weight="400"><tspan class="TextPosition" x="379" y="16252"><tspan fill="rgb(0,0,0)" stroke="none">1,03</tspan></tspan></tspan></text>
 <text class="TextShape"><tspan class="TextParagraph" font-family="Liberation Sans, sans-serif" font-size="388px" font-weight="400"><tspan class="TextPosition" x="379" y="14170"><tspan fill="rgb(0,0,0)" stroke="none">1,04</tspan></tspan></tspan></text>
 <text class="TextShape"><tspan class="TextParagraph" font-family="Liberation Sans, sans-serif" font-size="388px" font-weight="400"><tspan class="TextPosition" x="379" y="12088"><tspan fill="rgb(0,0,0)" stroke="none">1,05</tspan></tspan></tspan></text>
 <text class="TextShape"><tspan class="TextParagraph" font-family="Liberation Sans, sans-serif" font-size="388px" font-weight="400"><tspan class="TextPosition" x="379" y="10006"><tspan fill="rgb(0,0,0)" stroke="none">1,06</tspan></tspan></tspan></text>
 <text class="TextShape"><tspan class="TextParagraph" font-family="Liberation Sans, sans-serif" font-size="388px" font-weight="400"><tspan class="TextPosition" x="379" y="7924"><tspan fill="rgb(0,0,0)" stroke="none">1,07</tspan></tspan></tspan></text>
 <text class="TextShape"><tspan class="TextParagraph" font-family="Liberation Sans, sans-serif" font-size="388px" font-weight="400"><tspan class="TextPosition" x="379" y="5842"><tspan fill="rgb(0,0,0)" stroke="none">1,08</tspan></tspan></tspan></text>
 <text class="TextShape"><tspan class="TextParagraph" font-family="Liberation Sans, sans-serif" font-size="388px" font-weight="400"><tspan class="TextPosition" x="379" y="3760"><tspan fill="rgb(0,0,0)" stroke="none">1,09</tspan></tspan></tspan></text>
 <text class="TextShape"><tspan class="TextParagraph" font-family="Liberation Sans, sans-serif" font-size="388px" font-weight="400"><tspan class="TextPosition" x="379" y="1678"><tspan fill="rgb(0,0,0)" stroke="none">1,10</tspan></tspan></tspan></text>
 <text class="TextShape"><tspan class="TextParagraph" font-family="Liberation Sans, sans-serif" font-size="494px" font-weight="700"><tspan class="TextPosition" x="682" y="974"><tspan fill="rgb(0,0,0)" stroke="none">Tdenn koeficient celkovho potu infikovanch (mtko do 1,1)</tspan></tspan></tspan></text>
 <path fill="none" stroke="rgb(128,0,128)" stroke-width="80" stroke-linejoin="round" stroke-dasharray="158,158" d="M 18792,1853 L 20392,1853"/>
 <path fill="none" stroke="rgb(255,191,0)" stroke-width="80" stroke-linejoin="round" stroke-dasharray="80,40" d="M 18792,2687 L 20392,2687"/>
 <path fill="none" stroke="rgb(0,0,255)" stroke-width="80" stroke-linejoin="round" stroke-dasharray="80,40" d="M 18792,3521 L 20392,3521"/>
 <path fill="none" stroke="rgb(21,132,102)" stroke-width="80" stroke-linejoin="round" stroke-dasharray="80,203,80,203,203,203" d="M 18792,4355 L 20392,4355"/>
 <path fill="none" stroke="rgb(255,64,0)" stroke-width="80" stroke-linejoin="round" stroke-dasharray="80,40" d="M 18792,5189 L 20392,5189"/>
 <path fill="none" stroke="rgb(0,169,51)" stroke-width="80" stroke-linejoin="round" stroke-dasharray="80,40" d="M 18792,6023 L 20392,6023"/>
 <path fill="none" stroke="rgb(255,211,32)" stroke-width="80" stroke-linejoin="round" d="M 18792,6857 L 20392,6857"/>
 <path fill="none" stroke="rgb(128,0,128)" stroke-width="80" stroke-linejoin="round" d="M 18792,7691 L 20392,7691"/>
 <path fill="none" stroke="rgb(191,0,65)" stroke-width="80" stroke-linejoin="round" stroke-dasharray="80,40" d="M 18792,8525 L 20392,8525"/>
 <path fill="none" stroke="rgb(141,40,30)" stroke-width="80" stroke-linejoin="round" stroke-dasharray="80,40" d="M 18792,9359 L 20392,9359"/>
 <path fill="none" stroke="rgb(180,120,4)" stroke-width="80" stroke-linejoin="round" d="M 18792,10193 L 20392,10193"/>
 <path fill="none" stroke="rgb(0,0,255)" stroke-width="80" stroke-linejoin="round" stroke-dasharray="51,127,51,127,254,127,254,127,254,127" d="M 18792,11027 L 20392,11027"/>
 <path fill="none" stroke="rgb(0,169,51)" stroke-width="80" stroke-linejoin="round" stroke-dasharray="158,102" d="M 18792,11861 L 20392,11861"/>
 <path fill="none" stroke="rgb(0,169,51)" stroke-width="80" stroke-linejoin="round" d="M 18792,12694 L 20392,12694"/>
 <path fill="none" stroke="rgb(0,223,255)" stroke-width="80" stroke-linejoin="round" stroke-dasharray="158,102" d="M 18792,13528 L 20392,13528"/>
 <path fill="none" stroke="rgb(0,255,0)" stroke-width="80" stroke-linejoin="round" d="M 18792,14362 L 20392,14362"/>
 <path fill="none" stroke="rgb(89,131,176)" stroke-width="80" stroke-linejoin="round" d="M 18792,15196 L 20392,15196"/>
 <path fill="none" stroke="rgb(52,42,6)" stroke-width="80" stroke-linejoin="round" d="M 18792,16030 L 20392,16030"/>
 <path fill="none" stroke="rgb(255,0,0)" stroke-width="80" stroke-linejoin="round" stroke-dasharray="158,102" d="M 18792,16864 L 20392,16864"/>
 <path fill="none" stroke="rgb(0,0,255)" stroke-width="80" stroke-linejoin="round" stroke-dasharray="158,158" d="M 18792,17698 L 20392,17698"/>
 <path fill="none" stroke="rgb(241,13,12)" stroke-width="80" stroke-linejoin="round" d="M 18792,18532 L 20392,18532"/>
 <path fill="none" stroke="rgb(85,48,141)" stroke-width="80" stroke-linejoin="round" stroke-dasharray="80,40" d="M 18792,19366 L 20392,19366"/>
 <path fill="none" stroke="rgb(255,128,0)" stroke-width="80" stroke-linejoin="round" d="M 18792,20200 L 20392,20200"/>
 <path fill="none" stroke="rgb(0,127,255)" stroke-width="80" stroke-linejoin="round" d="M 18792,21034 L 20392,21034"/>
 <path fill="none" stroke="rgb(112,110,12)" stroke-width="80" stroke-linejoin="round" stroke-dasharray="80,40" d="M 18792,21868 L 20392,21868"/>
 <text class="TextShape"><tspan class="TextParagraph" font-family="Liberation Sans, sans-serif" font-size="423px" font-weight="400"><tspan class="TextPosition" x="20492" y="2001"><tspan fill="rgb(0,0,0)" stroke="none">Indie</tspan></tspan></tspan></text>
 <text class="TextShape"><tspan class="TextParagraph" font-family="Liberation Sans, sans-serif" font-size="423px" font-weight="400"><tspan class="TextPosition" x="20492" y="2835"><tspan fill="rgb(0,0,0)" stroke="none">Stt Kalifornie</tspan></tspan></tspan></text>
 <text class="TextShape"><tspan class="TextParagraph" font-family="Liberation Sans, sans-serif" font-size="423px" font-weight="400"><tspan class="TextPosition" x="20492" y="3669"><tspan fill="rgb(0,0,0)" stroke="none">Stt Texas</tspan></tspan></tspan></text>
 <text class="TextShape"><tspan class="TextParagraph" font-family="Liberation Sans, sans-serif" font-size="423px" font-weight="400"><tspan class="TextPosition" x="20492" y="4503"><tspan fill="rgb(0,0,0)" stroke="none">celosvtov</tspan></tspan></tspan></text>
 <text class="TextShape"><tspan class="TextParagraph" font-family="Liberation Sans, sans-serif" font-size="423px" font-weight="400"><tspan class="TextPosition" x="20492" y="5337"><tspan fill="rgb(0,0,0)" stroke="none">Brazlie</tspan></tspan></tspan></text>
 <text class="TextShape"><tspan class="TextParagraph" font-family="Liberation Sans, sans-serif" font-size="423px" font-weight="400"><tspan class="TextPosition" x="20492" y="6171"><tspan fill="rgb(0,0,0)" stroke="none">Mexiko</tspan></tspan></tspan></text>
 <text class="TextShape"><tspan class="TextParagraph" font-family="Liberation Sans, sans-serif" font-size="423px" font-weight="400"><tspan class="TextPosition" x="20492" y="7005"><tspan fill="rgb(0,0,0)" stroke="none">esko</tspan></tspan></tspan></text>
 <text class="TextShape"><tspan class="TextParagraph" font-family="Liberation Sans, sans-serif" font-size="423px" font-weight="400"><tspan class="TextPosition" x="20492" y="7839"><tspan fill="rgb(0,0,0)" stroke="none">panlsko</tspan></tspan></tspan></text>
 <text class="TextShape"><tspan class="TextParagraph" font-family="Liberation Sans, sans-serif" font-size="423px" font-weight="400"><tspan class="TextPosition" x="20492" y="8673"><tspan fill="rgb(0,0,0)" stroke="none">Stt Florida</tspan></tspan></tspan></text>
 <text class="TextShape"><tspan class="TextParagraph" font-family="Liberation Sans, sans-serif" font-size="423px" font-weight="400"><tspan class="TextPosition" x="20492" y="9507"><tspan fill="rgb(0,0,0)" stroke="none">USA</tspan></tspan></tspan></text>
 <text class="TextShape"><tspan class="TextParagraph" font-family="Liberation Sans, sans-serif" font-size="423px" font-weight="400"><tspan class="TextPosition" x="20492" y="10341"><tspan fill="rgb(0,0,0)" stroke="none">Dnsko</tspan></tspan></tspan></text>
 <text class="TextShape"><tspan class="TextParagraph" font-family="Liberation Sans, sans-serif" font-size="423px" font-weight="400"><tspan class="TextPosition" x="20492" y="11175"><tspan fill="rgb(0,0,0)" stroke="none">EU</tspan></tspan></tspan></text>
 <text class="TextShape"><tspan class="TextParagraph" font-family="Liberation Sans, sans-serif" font-size="423px" font-weight="400"><tspan class="TextPosition" x="20492" y="12008"><tspan fill="rgb(0,0,0)" stroke="none">rn</tspan></tspan></tspan></text>
 <text class="TextShape"><tspan class="TextParagraph" font-family="Liberation Sans, sans-serif" font-size="423px" font-weight="400"><tspan class="TextPosition" x="20492" y="12842"><tspan fill="rgb(0,0,0)" stroke="none">Rakousko</tspan></tspan></tspan></text>
 <text class="TextShape"><tspan class="TextParagraph" font-family="Liberation Sans, sans-serif" font-size="423px" font-weight="400"><tspan class="TextPosition" x="20492" y="13676"><tspan fill="rgb(0,0,0)" stroke="none">Rusko</tspan></tspan></tspan></text>
 <text class="TextShape"><tspan class="TextParagraph" font-family="Liberation Sans, sans-serif" font-size="423px" font-weight="400"><tspan class="TextPosition" x="20492" y="14510"><tspan fill="rgb(0,0,0)" stroke="none">vcarsko</tspan></tspan></tspan></text>
 <text class="TextShape"><tspan class="TextParagraph" font-family="Liberation Sans, sans-serif" font-size="423px" font-weight="400"><tspan class="TextPosition" x="20492" y="15344"><tspan fill="rgb(0,0,0)" stroke="none">Norsko</tspan></tspan></tspan></text>
 <text class="TextShape"><tspan class="TextParagraph" font-family="Liberation Sans, sans-serif" font-size="423px" font-weight="400"><tspan class="TextPosition" x="20492" y="16178"><tspan fill="rgb(0,0,0)" stroke="none">Nmecko</tspan></tspan></tspan></text>
 <text class="TextShape"><tspan class="TextParagraph" font-family="Liberation Sans, sans-serif" font-size="423px" font-weight="400"><tspan class="TextPosition" x="20492" y="17012"><tspan fill="rgb(0,0,0)" stroke="none">Turecko</tspan></tspan></tspan></text>
 <text class="TextShape"><tspan class="TextParagraph" font-family="Liberation Sans, sans-serif" font-size="423px" font-weight="400"><tspan class="TextPosition" x="20492" y="17846"><tspan fill="rgb(0,0,0)" stroke="none">Jin Korea</tspan></tspan></tspan></text>
 <text class="TextShape"><tspan class="TextParagraph" font-family="Liberation Sans, sans-serif" font-size="423px" font-weight="400"><tspan class="TextPosition" x="20492" y="18680"><tspan fill="rgb(0,0,0)" stroke="none">vdsko</tspan></tspan></tspan></text>
 <text class="TextShape"><tspan class="TextParagraph" font-family="Liberation Sans, sans-serif" font-size="423px" font-weight="400"><tspan class="TextPosition" x="20492" y="19514"><tspan fill="rgb(0,0,0)" stroke="none">Kanada</tspan></tspan></tspan></text>
 <text class="TextShape"><tspan class="TextParagraph" font-family="Liberation Sans, sans-serif" font-size="423px" font-weight="400"><tspan class="TextPosition" x="20492" y="20348"><tspan fill="rgb(0,0,0)" stroke="none">Velk Britnie</tspan></tspan></tspan></text>
 <text class="TextShape"><tspan class="TextParagraph" font-family="Liberation Sans, sans-serif" font-size="423px" font-weight="400"><tspan class="TextPosition" x="20492" y="21182"><tspan fill="rgb(0,0,0)" stroke="none">Itlie</tspan></tspan></tspan></text>
 <text class="TextShape"><tspan class="TextParagraph" font-family="Liberation Sans, sans-serif" font-size="423px" font-weight="400"><tspan class="TextPosition" x="20492" y="22016"><tspan fill="rgb(0,0,0)" stroke="none">Stt New York</tspan></tspan></tspan></text>
</svg>