<?xml version="1.0" encoding="UTF-8"?>
<!DOCTYPE svg PUBLIC "-//W3C//DTD SVG 1.1//EN" "http://www.w3.org/Graphics/SVG/1.1/DTD/svg11.dtd">
<svg width="236mm" height="238mm" viewBox="0 0 23600 23800" version="1.1" xmlns="http://www.w3.org/2000/svg" xmlns:xlink="http://www.w3.org/1999/xlink" stroke-width="28.222" stroke-linejoin="round" xml:space="preserve">
 <path fill="rgb(255,255,255)" stroke="none" d="M 11800,23813 L 0,23813 0,0 23600,0 23600,23813 11800,23813 Z"/>
 <path fill="none" stroke="rgb(179,179,179)" stroke-linejoin="round" d="M 9984,22372 L 1370,22372 1370,1552 18598,1552 18598,22372 9984,22372 Z"/>
 <path fill="none" stroke="rgb(179,179,179)" stroke-linejoin="round" d="M 18598,22371 L 1370,22371"/>
 <path fill="none" stroke="rgb(179,179,179)" stroke-linejoin="round" d="M 18598,20288 L 1370,20288"/>
 <path fill="none" stroke="rgb(179,179,179)" stroke-linejoin="round" d="M 18598,18206 L 1370,18206"/>
 <path fill="none" stroke="rgb(179,179,179)" stroke-linejoin="round" d="M 18598,16124 L 1370,16124"/>
 <path fill="none" stroke="rgb(179,179,179)" stroke-linejoin="round" d="M 18598,14042 L 1370,14042"/>
 <path fill="none" stroke="rgb(179,179,179)" stroke-linejoin="round" d="M 18598,11960 L 1370,11960"/>
 <path fill="none" stroke="rgb(179,179,179)" stroke-linejoin="round" d="M 18598,9879 L 1370,9879"/>
 <path fill="none" stroke="rgb(179,179,179)" stroke-linejoin="round" d="M 18598,7797 L 1370,7797"/>
 <path fill="none" stroke="rgb(179,179,179)" stroke-linejoin="round" d="M 18598,5715 L 1370,5715"/>
 <path fill="none" stroke="rgb(179,179,179)" stroke-linejoin="round" d="M 18598,3633 L 1370,3633"/>
 <path fill="none" stroke="rgb(179,179,179)" stroke-linejoin="round" d="M 18598,1551 L 1370,1551"/>
 <path fill="none" stroke="rgb(179,179,179)" stroke-linejoin="round" d="M 1370,22521 L 1370,22221"/>
 <path fill="none" stroke="rgb(179,179,179)" stroke-linejoin="round" d="M 1370,22521 L 1370,22221"/>
 <path fill="none" stroke="rgb(179,179,179)" stroke-linejoin="round" d="M 2114,22521 L 2114,22221"/>
 <path fill="none" stroke="rgb(179,179,179)" stroke-linejoin="round" d="M 2114,22521 L 2114,22221"/>
 <path fill="none" stroke="rgb(179,179,179)" stroke-linejoin="round" d="M 2858,22521 L 2858,22221"/>
 <path fill="none" stroke="rgb(179,179,179)" stroke-linejoin="round" d="M 2858,22521 L 2858,22221"/>
 <path fill="none" stroke="rgb(179,179,179)" stroke-linejoin="round" d="M 3603,22521 L 3603,22221"/>
 <path fill="none" stroke="rgb(179,179,179)" stroke-linejoin="round" d="M 3603,22521 L 3603,22221"/>
 <path fill="none" stroke="rgb(179,179,179)" stroke-linejoin="round" d="M 4347,22521 L 4347,22221"/>
 <path fill="none" stroke="rgb(179,179,179)" stroke-linejoin="round" d="M 4347,22521 L 4347,22221"/>
 <path fill="none" stroke="rgb(179,179,179)" stroke-linejoin="round" d="M 5092,22521 L 5092,22221"/>
 <path fill="none" stroke="rgb(179,179,179)" stroke-linejoin="round" d="M 5092,22521 L 5092,22221"/>
 <path fill="none" stroke="rgb(179,179,179)" stroke-linejoin="round" d="M 5836,22521 L 5836,22221"/>
 <path fill="none" stroke="rgb(179,179,179)" stroke-linejoin="round" d="M 5836,22521 L 5836,22221"/>
 <path fill="none" stroke="rgb(179,179,179)" stroke-linejoin="round" d="M 6581,22521 L 6581,22221"/>
 <path fill="none" stroke="rgb(179,179,179)" stroke-linejoin="round" d="M 6581,22521 L 6581,22221"/>
 <path fill="none" stroke="rgb(179,179,179)" stroke-linejoin="round" d="M 7325,22521 L 7325,22221"/>
 <path fill="none" stroke="rgb(179,179,179)" stroke-linejoin="round" d="M 7325,22521 L 7325,22221"/>
 <path fill="none" stroke="rgb(179,179,179)" stroke-linejoin="round" d="M 8070,22521 L 8070,22221"/>
 <path fill="none" stroke="rgb(179,179,179)" stroke-linejoin="round" d="M 8070,22521 L 8070,22221"/>
 <path fill="none" stroke="rgb(179,179,179)" stroke-linejoin="round" d="M 8814,22521 L 8814,22221"/>
 <path fill="none" stroke="rgb(179,179,179)" stroke-linejoin="round" d="M 8814,22521 L 8814,22221"/>
 <path fill="none" stroke="rgb(179,179,179)" stroke-linejoin="round" d="M 9559,22521 L 9559,22221"/>
 <path fill="none" stroke="rgb(179,179,179)" stroke-linejoin="round" d="M 9559,22521 L 9559,22221"/>
 <path fill="none" stroke="rgb(179,179,179)" stroke-linejoin="round" d="M 10303,22521 L 10303,22221"/>
 <path fill="none" stroke="rgb(179,179,179)" stroke-linejoin="round" d="M 10303,22521 L 10303,22221"/>
 <path fill="none" stroke="rgb(179,179,179)" stroke-linejoin="round" d="M 11048,22521 L 11048,22221"/>
 <path fill="none" stroke="rgb(179,179,179)" stroke-linejoin="round" d="M 11048,22521 L 11048,22221"/>
 <path fill="none" stroke="rgb(179,179,179)" stroke-linejoin="round" d="M 11792,22521 L 11792,22221"/>
 <path fill="none" stroke="rgb(179,179,179)" stroke-linejoin="round" d="M 11792,22521 L 11792,22221"/>
 <path fill="none" stroke="rgb(179,179,179)" stroke-linejoin="round" d="M 12535,22521 L 12535,22221"/>
 <path fill="none" stroke="rgb(179,179,179)" stroke-linejoin="round" d="M 12535,22521 L 12535,22221"/>
 <path fill="none" stroke="rgb(179,179,179)" stroke-linejoin="round" d="M 13280,22521 L 13280,22221"/>
 <path fill="none" stroke="rgb(179,179,179)" stroke-linejoin="round" d="M 13280,22521 L 13280,22221"/>
 <path fill="none" stroke="rgb(179,179,179)" stroke-linejoin="round" d="M 14024,22521 L 14024,22221"/>
 <path fill="none" stroke="rgb(179,179,179)" stroke-linejoin="round" d="M 14024,22521 L 14024,22221"/>
 <path fill="none" stroke="rgb(179,179,179)" stroke-linejoin="round" d="M 14769,22521 L 14769,22221"/>
 <path fill="none" stroke="rgb(179,179,179)" stroke-linejoin="round" d="M 14769,22521 L 14769,22221"/>
 <path fill="none" stroke="rgb(179,179,179)" stroke-linejoin="round" d="M 15513,22521 L 15513,22221"/>
 <path fill="none" stroke="rgb(179,179,179)" stroke-linejoin="round" d="M 15513,22521 L 15513,22221"/>
 <path fill="none" stroke="rgb(179,179,179)" stroke-linejoin="round" d="M 16258,22521 L 16258,22221"/>
 <path fill="none" stroke="rgb(179,179,179)" stroke-linejoin="round" d="M 16258,22521 L 16258,22221"/>
 <path fill="none" stroke="rgb(179,179,179)" stroke-linejoin="round" d="M 17002,22521 L 17002,22221"/>
 <path fill="none" stroke="rgb(179,179,179)" stroke-linejoin="round" d="M 17002,22521 L 17002,22221"/>
 <path fill="none" stroke="rgb(179,179,179)" stroke-linejoin="round" d="M 17747,22521 L 17747,22221"/>
 <path fill="none" stroke="rgb(179,179,179)" stroke-linejoin="round" d="M 17747,22521 L 17747,22221"/>
 <path fill="none" stroke="rgb(179,179,179)" stroke-linejoin="round" d="M 18491,22521 L 18491,22221"/>
 <path fill="none" stroke="rgb(179,179,179)" stroke-linejoin="round" d="M 18491,22521 L 18491,22221"/>
 <path fill="none" stroke="rgb(179,179,179)" stroke-linejoin="round" d="M 1370,22483 L 1370,22371"/>
 <path fill="none" stroke="rgb(179,179,179)" stroke-linejoin="round" d="M 1370,22483 L 1370,22371"/>
 <path fill="none" stroke="rgb(179,179,179)" stroke-linejoin="round" d="M 1476,22483 L 1476,22371"/>
 <path fill="none" stroke="rgb(179,179,179)" stroke-linejoin="round" d="M 1476,22483 L 1476,22371"/>
 <path fill="none" stroke="rgb(179,179,179)" stroke-linejoin="round" d="M 1582,22483 L 1582,22371"/>
 <path fill="none" stroke="rgb(179,179,179)" stroke-linejoin="round" d="M 1582,22483 L 1582,22371"/>
 <path fill="none" stroke="rgb(179,179,179)" stroke-linejoin="round" d="M 1689,22483 L 1689,22371"/>
 <path fill="none" stroke="rgb(179,179,179)" stroke-linejoin="round" d="M 1689,22483 L 1689,22371"/>
 <path fill="none" stroke="rgb(179,179,179)" stroke-linejoin="round" d="M 1795,22483 L 1795,22371"/>
 <path fill="none" stroke="rgb(179,179,179)" stroke-linejoin="round" d="M 1795,22483 L 1795,22371"/>
 <path fill="none" stroke="rgb(179,179,179)" stroke-linejoin="round" d="M 1901,22483 L 1901,22371"/>
 <path fill="none" stroke="rgb(179,179,179)" stroke-linejoin="round" d="M 1901,22483 L 1901,22371"/>
 <path fill="none" stroke="rgb(179,179,179)" stroke-linejoin="round" d="M 2008,22483 L 2008,22371"/>
 <path fill="none" stroke="rgb(179,179,179)" stroke-linejoin="round" d="M 2008,22483 L 2008,22371"/>
 <path fill="none" stroke="rgb(179,179,179)" stroke-linejoin="round" d="M 2114,22483 L 2114,22371"/>
 <path fill="none" stroke="rgb(179,179,179)" stroke-linejoin="round" d="M 2114,22483 L 2114,22371"/>
 <path fill="none" stroke="rgb(179,179,179)" stroke-linejoin="round" d="M 2220,22483 L 2220,22371"/>
 <path fill="none" stroke="rgb(179,179,179)" stroke-linejoin="round" d="M 2220,22483 L 2220,22371"/>
 <path fill="none" stroke="rgb(179,179,179)" stroke-linejoin="round" d="M 2327,22483 L 2327,22371"/>
 <path fill="none" stroke="rgb(179,179,179)" stroke-linejoin="round" d="M 2327,22483 L 2327,22371"/>
 <path fill="none" stroke="rgb(179,179,179)" stroke-linejoin="round" d="M 2433,22483 L 2433,22371"/>
 <path fill="none" stroke="rgb(179,179,179)" stroke-linejoin="round" d="M 2433,22483 L 2433,22371"/>
 <path fill="none" stroke="rgb(179,179,179)" stroke-linejoin="round" d="M 2539,22483 L 2539,22371"/>
 <path fill="none" stroke="rgb(179,179,179)" stroke-linejoin="round" d="M 2539,22483 L 2539,22371"/>
 <path fill="none" stroke="rgb(179,179,179)" stroke-linejoin="round" d="M 2646,22483 L 2646,22371"/>
 <path fill="none" stroke="rgb(179,179,179)" stroke-linejoin="round" d="M 2646,22483 L 2646,22371"/>
 <path fill="none" stroke="rgb(179,179,179)" stroke-linejoin="round" d="M 2752,22483 L 2752,22371"/>
 <path fill="none" stroke="rgb(179,179,179)" stroke-linejoin="round" d="M 2752,22483 L 2752,22371"/>
 <path fill="none" stroke="rgb(179,179,179)" stroke-linejoin="round" d="M 2858,22483 L 2858,22371"/>
 <path fill="none" stroke="rgb(179,179,179)" stroke-linejoin="round" d="M 2858,22483 L 2858,22371"/>
 <path fill="none" stroke="rgb(179,179,179)" stroke-linejoin="round" d="M 2965,22483 L 2965,22371"/>
 <path fill="none" stroke="rgb(179,179,179)" stroke-linejoin="round" d="M 2965,22483 L 2965,22371"/>
 <path fill="none" stroke="rgb(179,179,179)" stroke-linejoin="round" d="M 3071,22483 L 3071,22371"/>
 <path fill="none" stroke="rgb(179,179,179)" stroke-linejoin="round" d="M 3071,22483 L 3071,22371"/>
 <path fill="none" stroke="rgb(179,179,179)" stroke-linejoin="round" d="M 3177,22483 L 3177,22371"/>
 <path fill="none" stroke="rgb(179,179,179)" stroke-linejoin="round" d="M 3177,22483 L 3177,22371"/>
 <path fill="none" stroke="rgb(179,179,179)" stroke-linejoin="round" d="M 3284,22483 L 3284,22371"/>
 <path fill="none" stroke="rgb(179,179,179)" stroke-linejoin="round" d="M 3284,22483 L 3284,22371"/>
 <path fill="none" stroke="rgb(179,179,179)" stroke-linejoin="round" d="M 3390,22483 L 3390,22371"/>
 <path fill="none" stroke="rgb(179,179,179)" stroke-linejoin="round" d="M 3390,22483 L 3390,22371"/>
 <path fill="none" stroke="rgb(179,179,179)" stroke-linejoin="round" d="M 3497,22483 L 3497,22371"/>
 <path fill="none" stroke="rgb(179,179,179)" stroke-linejoin="round" d="M 3497,22483 L 3497,22371"/>
 <path fill="none" stroke="rgb(179,179,179)" stroke-linejoin="round" d="M 3603,22483 L 3603,22371"/>
 <path fill="none" stroke="rgb(179,179,179)" stroke-linejoin="round" d="M 3603,22483 L 3603,22371"/>
 <path fill="none" stroke="rgb(179,179,179)" stroke-linejoin="round" d="M 3709,22483 L 3709,22371"/>
 <path fill="none" stroke="rgb(179,179,179)" stroke-linejoin="round" d="M 3709,22483 L 3709,22371"/>
 <path fill="none" stroke="rgb(179,179,179)" stroke-linejoin="round" d="M 3816,22483 L 3816,22371"/>
 <path fill="none" stroke="rgb(179,179,179)" stroke-linejoin="round" d="M 3816,22483 L 3816,22371"/>
 <path fill="none" stroke="rgb(179,179,179)" stroke-linejoin="round" d="M 3922,22483 L 3922,22371"/>
 <path fill="none" stroke="rgb(179,179,179)" stroke-linejoin="round" d="M 3922,22483 L 3922,22371"/>
 <path fill="none" stroke="rgb(179,179,179)" stroke-linejoin="round" d="M 4028,22483 L 4028,22371"/>
 <path fill="none" stroke="rgb(179,179,179)" stroke-linejoin="round" d="M 4028,22483 L 4028,22371"/>
 <path fill="none" stroke="rgb(179,179,179)" stroke-linejoin="round" d="M 4135,22483 L 4135,22371"/>
 <path fill="none" stroke="rgb(179,179,179)" stroke-linejoin="round" d="M 4135,22483 L 4135,22371"/>
 <path fill="none" stroke="rgb(179,179,179)" stroke-linejoin="round" d="M 4241,22483 L 4241,22371"/>
 <path fill="none" stroke="rgb(179,179,179)" stroke-linejoin="round" d="M 4241,22483 L 4241,22371"/>
 <path fill="none" stroke="rgb(179,179,179)" stroke-linejoin="round" d="M 4347,22483 L 4347,22371"/>
 <path fill="none" stroke="rgb(179,179,179)" stroke-linejoin="round" d="M 4347,22483 L 4347,22371"/>
 <path fill="none" stroke="rgb(179,179,179)" stroke-linejoin="round" d="M 4454,22483 L 4454,22371"/>
 <path fill="none" stroke="rgb(179,179,179)" stroke-linejoin="round" d="M 4454,22483 L 4454,22371"/>
 <path fill="none" stroke="rgb(179,179,179)" stroke-linejoin="round" d="M 4560,22483 L 4560,22371"/>
 <path fill="none" stroke="rgb(179,179,179)" stroke-linejoin="round" d="M 4560,22483 L 4560,22371"/>
 <path fill="none" stroke="rgb(179,179,179)" stroke-linejoin="round" d="M 4666,22483 L 4666,22371"/>
 <path fill="none" stroke="rgb(179,179,179)" stroke-linejoin="round" d="M 4666,22483 L 4666,22371"/>
 <path fill="none" stroke="rgb(179,179,179)" stroke-linejoin="round" d="M 4773,22483 L 4773,22371"/>
 <path fill="none" stroke="rgb(179,179,179)" stroke-linejoin="round" d="M 4773,22483 L 4773,22371"/>
 <path fill="none" stroke="rgb(179,179,179)" stroke-linejoin="round" d="M 4879,22483 L 4879,22371"/>
 <path fill="none" stroke="rgb(179,179,179)" stroke-linejoin="round" d="M 4879,22483 L 4879,22371"/>
 <path fill="none" stroke="rgb(179,179,179)" stroke-linejoin="round" d="M 4985,22483 L 4985,22371"/>
 <path fill="none" stroke="rgb(179,179,179)" stroke-linejoin="round" d="M 4985,22483 L 4985,22371"/>
 <path fill="none" stroke="rgb(179,179,179)" stroke-linejoin="round" d="M 5092,22483 L 5092,22371"/>
 <path fill="none" stroke="rgb(179,179,179)" stroke-linejoin="round" d="M 5092,22483 L 5092,22371"/>
 <path fill="none" stroke="rgb(179,179,179)" stroke-linejoin="round" d="M 5198,22483 L 5198,22371"/>
 <path fill="none" stroke="rgb(179,179,179)" stroke-linejoin="round" d="M 5198,22483 L 5198,22371"/>
 <path fill="none" stroke="rgb(179,179,179)" stroke-linejoin="round" d="M 5305,22483 L 5305,22371"/>
 <path fill="none" stroke="rgb(179,179,179)" stroke-linejoin="round" d="M 5305,22483 L 5305,22371"/>
 <path fill="none" stroke="rgb(179,179,179)" stroke-linejoin="round" d="M 5411,22483 L 5411,22371"/>
 <path fill="none" stroke="rgb(179,179,179)" stroke-linejoin="round" d="M 5411,22483 L 5411,22371"/>
 <path fill="none" stroke="rgb(179,179,179)" stroke-linejoin="round" d="M 5517,22483 L 5517,22371"/>
 <path fill="none" stroke="rgb(179,179,179)" stroke-linejoin="round" d="M 5517,22483 L 5517,22371"/>
 <path fill="none" stroke="rgb(179,179,179)" stroke-linejoin="round" d="M 5624,22483 L 5624,22371"/>
 <path fill="none" stroke="rgb(179,179,179)" stroke-linejoin="round" d="M 5624,22483 L 5624,22371"/>
 <path fill="none" stroke="rgb(179,179,179)" stroke-linejoin="round" d="M 5730,22483 L 5730,22371"/>
 <path fill="none" stroke="rgb(179,179,179)" stroke-linejoin="round" d="M 5730,22483 L 5730,22371"/>
 <path fill="none" stroke="rgb(179,179,179)" stroke-linejoin="round" d="M 5836,22483 L 5836,22371"/>
 <path fill="none" stroke="rgb(179,179,179)" stroke-linejoin="round" d="M 5836,22483 L 5836,22371"/>
 <path fill="none" stroke="rgb(179,179,179)" stroke-linejoin="round" d="M 5943,22483 L 5943,22371"/>
 <path fill="none" stroke="rgb(179,179,179)" stroke-linejoin="round" d="M 5943,22483 L 5943,22371"/>
 <path fill="none" stroke="rgb(179,179,179)" stroke-linejoin="round" d="M 6049,22483 L 6049,22371"/>
 <path fill="none" stroke="rgb(179,179,179)" stroke-linejoin="round" d="M 6049,22483 L 6049,22371"/>
 <path fill="none" stroke="rgb(179,179,179)" stroke-linejoin="round" d="M 6155,22483 L 6155,22371"/>
 <path fill="none" stroke="rgb(179,179,179)" stroke-linejoin="round" d="M 6155,22483 L 6155,22371"/>
 <path fill="none" stroke="rgb(179,179,179)" stroke-linejoin="round" d="M 6262,22483 L 6262,22371"/>
 <path fill="none" stroke="rgb(179,179,179)" stroke-linejoin="round" d="M 6262,22483 L 6262,22371"/>
 <path fill="none" stroke="rgb(179,179,179)" stroke-linejoin="round" d="M 6368,22483 L 6368,22371"/>
 <path fill="none" stroke="rgb(179,179,179)" stroke-linejoin="round" d="M 6368,22483 L 6368,22371"/>
 <path fill="none" stroke="rgb(179,179,179)" stroke-linejoin="round" d="M 6474,22483 L 6474,22371"/>
 <path fill="none" stroke="rgb(179,179,179)" stroke-linejoin="round" d="M 6474,22483 L 6474,22371"/>
 <path fill="none" stroke="rgb(179,179,179)" stroke-linejoin="round" d="M 6581,22483 L 6581,22371"/>
 <path fill="none" stroke="rgb(179,179,179)" stroke-linejoin="round" d="M 6581,22483 L 6581,22371"/>
 <path fill="none" stroke="rgb(179,179,179)" stroke-linejoin="round" d="M 6687,22483 L 6687,22371"/>
 <path fill="none" stroke="rgb(179,179,179)" stroke-linejoin="round" d="M 6687,22483 L 6687,22371"/>
 <path fill="none" stroke="rgb(179,179,179)" stroke-linejoin="round" d="M 6793,22483 L 6793,22371"/>
 <path fill="none" stroke="rgb(179,179,179)" stroke-linejoin="round" d="M 6793,22483 L 6793,22371"/>
 <path fill="none" stroke="rgb(179,179,179)" stroke-linejoin="round" d="M 6900,22483 L 6900,22371"/>
 <path fill="none" stroke="rgb(179,179,179)" stroke-linejoin="round" d="M 6900,22483 L 6900,22371"/>
 <path fill="none" stroke="rgb(179,179,179)" stroke-linejoin="round" d="M 7006,22483 L 7006,22371"/>
 <path fill="none" stroke="rgb(179,179,179)" stroke-linejoin="round" d="M 7006,22483 L 7006,22371"/>
 <path fill="none" stroke="rgb(179,179,179)" stroke-linejoin="round" d="M 7113,22483 L 7113,22371"/>
 <path fill="none" stroke="rgb(179,179,179)" stroke-linejoin="round" d="M 7113,22483 L 7113,22371"/>
 <path fill="none" stroke="rgb(179,179,179)" stroke-linejoin="round" d="M 7219,22483 L 7219,22371"/>
 <path fill="none" stroke="rgb(179,179,179)" stroke-linejoin="round" d="M 7219,22483 L 7219,22371"/>
 <path fill="none" stroke="rgb(179,179,179)" stroke-linejoin="round" d="M 7325,22483 L 7325,22371"/>
 <path fill="none" stroke="rgb(179,179,179)" stroke-linejoin="round" d="M 7325,22483 L 7325,22371"/>
 <path fill="none" stroke="rgb(179,179,179)" stroke-linejoin="round" d="M 7432,22483 L 7432,22371"/>
 <path fill="none" stroke="rgb(179,179,179)" stroke-linejoin="round" d="M 7432,22483 L 7432,22371"/>
 <path fill="none" stroke="rgb(179,179,179)" stroke-linejoin="round" d="M 7538,22483 L 7538,22371"/>
 <path fill="none" stroke="rgb(179,179,179)" stroke-linejoin="round" d="M 7538,22483 L 7538,22371"/>
 <path fill="none" stroke="rgb(179,179,179)" stroke-linejoin="round" d="M 7644,22483 L 7644,22371"/>
 <path fill="none" stroke="rgb(179,179,179)" stroke-linejoin="round" d="M 7644,22483 L 7644,22371"/>
 <path fill="none" stroke="rgb(179,179,179)" stroke-linejoin="round" d="M 7751,22483 L 7751,22371"/>
 <path fill="none" stroke="rgb(179,179,179)" stroke-linejoin="round" d="M 7751,22483 L 7751,22371"/>
 <path fill="none" stroke="rgb(179,179,179)" stroke-linejoin="round" d="M 7857,22483 L 7857,22371"/>
 <path fill="none" stroke="rgb(179,179,179)" stroke-linejoin="round" d="M 7857,22483 L 7857,22371"/>
 <path fill="none" stroke="rgb(179,179,179)" stroke-linejoin="round" d="M 7963,22483 L 7963,22371"/>
 <path fill="none" stroke="rgb(179,179,179)" stroke-linejoin="round" d="M 7963,22483 L 7963,22371"/>
 <path fill="none" stroke="rgb(179,179,179)" stroke-linejoin="round" d="M 8070,22483 L 8070,22371"/>
 <path fill="none" stroke="rgb(179,179,179)" stroke-linejoin="round" d="M 8070,22483 L 8070,22371"/>
 <path fill="none" stroke="rgb(179,179,179)" stroke-linejoin="round" d="M 8176,22483 L 8176,22371"/>
 <path fill="none" stroke="rgb(179,179,179)" stroke-linejoin="round" d="M 8176,22483 L 8176,22371"/>
 <path fill="none" stroke="rgb(179,179,179)" stroke-linejoin="round" d="M 8282,22483 L 8282,22371"/>
 <path fill="none" stroke="rgb(179,179,179)" stroke-linejoin="round" d="M 8282,22483 L 8282,22371"/>
 <path fill="none" stroke="rgb(179,179,179)" stroke-linejoin="round" d="M 8389,22483 L 8389,22371"/>
 <path fill="none" stroke="rgb(179,179,179)" stroke-linejoin="round" d="M 8389,22483 L 8389,22371"/>
 <path fill="none" stroke="rgb(179,179,179)" stroke-linejoin="round" d="M 8495,22483 L 8495,22371"/>
 <path fill="none" stroke="rgb(179,179,179)" stroke-linejoin="round" d="M 8495,22483 L 8495,22371"/>
 <path fill="none" stroke="rgb(179,179,179)" stroke-linejoin="round" d="M 8601,22483 L 8601,22371"/>
 <path fill="none" stroke="rgb(179,179,179)" stroke-linejoin="round" d="M 8601,22483 L 8601,22371"/>
 <path fill="none" stroke="rgb(179,179,179)" stroke-linejoin="round" d="M 8708,22483 L 8708,22371"/>
 <path fill="none" stroke="rgb(179,179,179)" stroke-linejoin="round" d="M 8708,22483 L 8708,22371"/>
 <path fill="none" stroke="rgb(179,179,179)" stroke-linejoin="round" d="M 8814,22483 L 8814,22371"/>
 <path fill="none" stroke="rgb(179,179,179)" stroke-linejoin="round" d="M 8814,22483 L 8814,22371"/>
 <path fill="none" stroke="rgb(179,179,179)" stroke-linejoin="round" d="M 8920,22483 L 8920,22371"/>
 <path fill="none" stroke="rgb(179,179,179)" stroke-linejoin="round" d="M 8920,22483 L 8920,22371"/>
 <path fill="none" stroke="rgb(179,179,179)" stroke-linejoin="round" d="M 9027,22483 L 9027,22371"/>
 <path fill="none" stroke="rgb(179,179,179)" stroke-linejoin="round" d="M 9027,22483 L 9027,22371"/>
 <path fill="none" stroke="rgb(179,179,179)" stroke-linejoin="round" d="M 9133,22483 L 9133,22371"/>
 <path fill="none" stroke="rgb(179,179,179)" stroke-linejoin="round" d="M 9133,22483 L 9133,22371"/>
 <path fill="none" stroke="rgb(179,179,179)" stroke-linejoin="round" d="M 9240,22483 L 9240,22371"/>
 <path fill="none" stroke="rgb(179,179,179)" stroke-linejoin="round" d="M 9240,22483 L 9240,22371"/>
 <path fill="none" stroke="rgb(179,179,179)" stroke-linejoin="round" d="M 9346,22483 L 9346,22371"/>
 <path fill="none" stroke="rgb(179,179,179)" stroke-linejoin="round" d="M 9346,22483 L 9346,22371"/>
 <path fill="none" stroke="rgb(179,179,179)" stroke-linejoin="round" d="M 9452,22483 L 9452,22371"/>
 <path fill="none" stroke="rgb(179,179,179)" stroke-linejoin="round" d="M 9452,22483 L 9452,22371"/>
 <path fill="none" stroke="rgb(179,179,179)" stroke-linejoin="round" d="M 9559,22483 L 9559,22371"/>
 <path fill="none" stroke="rgb(179,179,179)" stroke-linejoin="round" d="M 9559,22483 L 9559,22371"/>
 <path fill="none" stroke="rgb(179,179,179)" stroke-linejoin="round" d="M 9665,22483 L 9665,22371"/>
 <path fill="none" stroke="rgb(179,179,179)" stroke-linejoin="round" d="M 9665,22483 L 9665,22371"/>
 <path fill="none" stroke="rgb(179,179,179)" stroke-linejoin="round" d="M 9771,22483 L 9771,22371"/>
 <path fill="none" stroke="rgb(179,179,179)" stroke-linejoin="round" d="M 9771,22483 L 9771,22371"/>
 <path fill="none" stroke="rgb(179,179,179)" stroke-linejoin="round" d="M 9878,22483 L 9878,22371"/>
 <path fill="none" stroke="rgb(179,179,179)" stroke-linejoin="round" d="M 9878,22483 L 9878,22371"/>
 <path fill="none" stroke="rgb(179,179,179)" stroke-linejoin="round" d="M 9984,22483 L 9984,22371"/>
 <path fill="none" stroke="rgb(179,179,179)" stroke-linejoin="round" d="M 9984,22483 L 9984,22371"/>
 <path fill="none" stroke="rgb(179,179,179)" stroke-linejoin="round" d="M 10090,22483 L 10090,22371"/>
 <path fill="none" stroke="rgb(179,179,179)" stroke-linejoin="round" d="M 10090,22483 L 10090,22371"/>
 <path fill="none" stroke="rgb(179,179,179)" stroke-linejoin="round" d="M 10197,22483 L 10197,22371"/>
 <path fill="none" stroke="rgb(179,179,179)" stroke-linejoin="round" d="M 10197,22483 L 10197,22371"/>
 <path fill="none" stroke="rgb(179,179,179)" stroke-linejoin="round" d="M 10303,22483 L 10303,22371"/>
 <path fill="none" stroke="rgb(179,179,179)" stroke-linejoin="round" d="M 10303,22483 L 10303,22371"/>
 <path fill="none" stroke="rgb(179,179,179)" stroke-linejoin="round" d="M 10409,22483 L 10409,22371"/>
 <path fill="none" stroke="rgb(179,179,179)" stroke-linejoin="round" d="M 10409,22483 L 10409,22371"/>
 <path fill="none" stroke="rgb(179,179,179)" stroke-linejoin="round" d="M 10516,22483 L 10516,22371"/>
 <path fill="none" stroke="rgb(179,179,179)" stroke-linejoin="round" d="M 10516,22483 L 10516,22371"/>
 <path fill="none" stroke="rgb(179,179,179)" stroke-linejoin="round" d="M 10622,22483 L 10622,22371"/>
 <path fill="none" stroke="rgb(179,179,179)" stroke-linejoin="round" d="M 10622,22483 L 10622,22371"/>
 <path fill="none" stroke="rgb(179,179,179)" stroke-linejoin="round" d="M 10728,22483 L 10728,22371"/>
 <path fill="none" stroke="rgb(179,179,179)" stroke-linejoin="round" d="M 10728,22483 L 10728,22371"/>
 <path fill="none" stroke="rgb(179,179,179)" stroke-linejoin="round" d="M 10835,22483 L 10835,22371"/>
 <path fill="none" stroke="rgb(179,179,179)" stroke-linejoin="round" d="M 10835,22483 L 10835,22371"/>
 <path fill="none" stroke="rgb(179,179,179)" stroke-linejoin="round" d="M 10941,22483 L 10941,22371"/>
 <path fill="none" stroke="rgb(179,179,179)" stroke-linejoin="round" d="M 10941,22483 L 10941,22371"/>
 <path fill="none" stroke="rgb(179,179,179)" stroke-linejoin="round" d="M 11048,22483 L 11048,22371"/>
 <path fill="none" stroke="rgb(179,179,179)" stroke-linejoin="round" d="M 11048,22483 L 11048,22371"/>
 <path fill="none" stroke="rgb(179,179,179)" stroke-linejoin="round" d="M 11154,22483 L 11154,22371"/>
 <path fill="none" stroke="rgb(179,179,179)" stroke-linejoin="round" d="M 11154,22483 L 11154,22371"/>
 <path fill="none" stroke="rgb(179,179,179)" stroke-linejoin="round" d="M 11260,22483 L 11260,22371"/>
 <path fill="none" stroke="rgb(179,179,179)" stroke-linejoin="round" d="M 11260,22483 L 11260,22371"/>
 <path fill="none" stroke="rgb(179,179,179)" stroke-linejoin="round" d="M 11367,22483 L 11367,22371"/>
 <path fill="none" stroke="rgb(179,179,179)" stroke-linejoin="round" d="M 11367,22483 L 11367,22371"/>
 <path fill="none" stroke="rgb(179,179,179)" stroke-linejoin="round" d="M 11473,22483 L 11473,22371"/>
 <path fill="none" stroke="rgb(179,179,179)" stroke-linejoin="round" d="M 11473,22483 L 11473,22371"/>
 <path fill="none" stroke="rgb(179,179,179)" stroke-linejoin="round" d="M 11579,22483 L 11579,22371"/>
 <path fill="none" stroke="rgb(179,179,179)" stroke-linejoin="round" d="M 11579,22483 L 11579,22371"/>
 <path fill="none" stroke="rgb(179,179,179)" stroke-linejoin="round" d="M 11686,22483 L 11686,22371"/>
 <path fill="none" stroke="rgb(179,179,179)" stroke-linejoin="round" d="M 11686,22483 L 11686,22371"/>
 <path fill="none" stroke="rgb(179,179,179)" stroke-linejoin="round" d="M 11792,22483 L 11792,22371"/>
 <path fill="none" stroke="rgb(179,179,179)" stroke-linejoin="round" d="M 11792,22483 L 11792,22371"/>
 <path fill="none" stroke="rgb(179,179,179)" stroke-linejoin="round" d="M 11897,22483 L 11897,22371"/>
 <path fill="none" stroke="rgb(179,179,179)" stroke-linejoin="round" d="M 11897,22483 L 11897,22371"/>
 <path fill="none" stroke="rgb(179,179,179)" stroke-linejoin="round" d="M 12004,22483 L 12004,22371"/>
 <path fill="none" stroke="rgb(179,179,179)" stroke-linejoin="round" d="M 12004,22483 L 12004,22371"/>
 <path fill="none" stroke="rgb(179,179,179)" stroke-linejoin="round" d="M 12110,22483 L 12110,22371"/>
 <path fill="none" stroke="rgb(179,179,179)" stroke-linejoin="round" d="M 12110,22483 L 12110,22371"/>
 <path fill="none" stroke="rgb(179,179,179)" stroke-linejoin="round" d="M 12216,22483 L 12216,22371"/>
 <path fill="none" stroke="rgb(179,179,179)" stroke-linejoin="round" d="M 12216,22483 L 12216,22371"/>
 <path fill="none" stroke="rgb(179,179,179)" stroke-linejoin="round" d="M 12323,22483 L 12323,22371"/>
 <path fill="none" stroke="rgb(179,179,179)" stroke-linejoin="round" d="M 12323,22483 L 12323,22371"/>
 <path fill="none" stroke="rgb(179,179,179)" stroke-linejoin="round" d="M 12429,22483 L 12429,22371"/>
 <path fill="none" stroke="rgb(179,179,179)" stroke-linejoin="round" d="M 12429,22483 L 12429,22371"/>
 <path fill="none" stroke="rgb(179,179,179)" stroke-linejoin="round" d="M 12535,22483 L 12535,22371"/>
 <path fill="none" stroke="rgb(179,179,179)" stroke-linejoin="round" d="M 12535,22483 L 12535,22371"/>
 <path fill="none" stroke="rgb(179,179,179)" stroke-linejoin="round" d="M 12642,22483 L 12642,22371"/>
 <path fill="none" stroke="rgb(179,179,179)" stroke-linejoin="round" d="M 12642,22483 L 12642,22371"/>
 <path fill="none" stroke="rgb(179,179,179)" stroke-linejoin="round" d="M 12748,22483 L 12748,22371"/>
 <path fill="none" stroke="rgb(179,179,179)" stroke-linejoin="round" d="M 12748,22483 L 12748,22371"/>
 <path fill="none" stroke="rgb(179,179,179)" stroke-linejoin="round" d="M 12855,22483 L 12855,22371"/>
 <path fill="none" stroke="rgb(179,179,179)" stroke-linejoin="round" d="M 12855,22483 L 12855,22371"/>
 <path fill="none" stroke="rgb(179,179,179)" stroke-linejoin="round" d="M 12961,22483 L 12961,22371"/>
 <path fill="none" stroke="rgb(179,179,179)" stroke-linejoin="round" d="M 12961,22483 L 12961,22371"/>
 <path fill="none" stroke="rgb(179,179,179)" stroke-linejoin="round" d="M 13067,22483 L 13067,22371"/>
 <path fill="none" stroke="rgb(179,179,179)" stroke-linejoin="round" d="M 13067,22483 L 13067,22371"/>
 <path fill="none" stroke="rgb(179,179,179)" stroke-linejoin="round" d="M 13174,22483 L 13174,22371"/>
 <path fill="none" stroke="rgb(179,179,179)" stroke-linejoin="round" d="M 13174,22483 L 13174,22371"/>
 <path fill="none" stroke="rgb(179,179,179)" stroke-linejoin="round" d="M 13280,22483 L 13280,22371"/>
 <path fill="none" stroke="rgb(179,179,179)" stroke-linejoin="round" d="M 13280,22483 L 13280,22371"/>
 <path fill="none" stroke="rgb(179,179,179)" stroke-linejoin="round" d="M 13386,22483 L 13386,22371"/>
 <path fill="none" stroke="rgb(179,179,179)" stroke-linejoin="round" d="M 13386,22483 L 13386,22371"/>
 <path fill="none" stroke="rgb(179,179,179)" stroke-linejoin="round" d="M 13493,22483 L 13493,22371"/>
 <path fill="none" stroke="rgb(179,179,179)" stroke-linejoin="round" d="M 13493,22483 L 13493,22371"/>
 <path fill="none" stroke="rgb(179,179,179)" stroke-linejoin="round" d="M 13599,22483 L 13599,22371"/>
 <path fill="none" stroke="rgb(179,179,179)" stroke-linejoin="round" d="M 13599,22483 L 13599,22371"/>
 <path fill="none" stroke="rgb(179,179,179)" stroke-linejoin="round" d="M 13705,22483 L 13705,22371"/>
 <path fill="none" stroke="rgb(179,179,179)" stroke-linejoin="round" d="M 13705,22483 L 13705,22371"/>
 <path fill="none" stroke="rgb(179,179,179)" stroke-linejoin="round" d="M 13812,22483 L 13812,22371"/>
 <path fill="none" stroke="rgb(179,179,179)" stroke-linejoin="round" d="M 13812,22483 L 13812,22371"/>
 <path fill="none" stroke="rgb(179,179,179)" stroke-linejoin="round" d="M 13918,22483 L 13918,22371"/>
 <path fill="none" stroke="rgb(179,179,179)" stroke-linejoin="round" d="M 13918,22483 L 13918,22371"/>
 <path fill="none" stroke="rgb(179,179,179)" stroke-linejoin="round" d="M 14024,22483 L 14024,22371"/>
 <path fill="none" stroke="rgb(179,179,179)" stroke-linejoin="round" d="M 14024,22483 L 14024,22371"/>
 <path fill="none" stroke="rgb(179,179,179)" stroke-linejoin="round" d="M 14131,22483 L 14131,22371"/>
 <path fill="none" stroke="rgb(179,179,179)" stroke-linejoin="round" d="M 14131,22483 L 14131,22371"/>
 <path fill="none" stroke="rgb(179,179,179)" stroke-linejoin="round" d="M 14237,22483 L 14237,22371"/>
 <path fill="none" stroke="rgb(179,179,179)" stroke-linejoin="round" d="M 14237,22483 L 14237,22371"/>
 <path fill="none" stroke="rgb(179,179,179)" stroke-linejoin="round" d="M 14343,22483 L 14343,22371"/>
 <path fill="none" stroke="rgb(179,179,179)" stroke-linejoin="round" d="M 14343,22483 L 14343,22371"/>
 <path fill="none" stroke="rgb(179,179,179)" stroke-linejoin="round" d="M 14450,22483 L 14450,22371"/>
 <path fill="none" stroke="rgb(179,179,179)" stroke-linejoin="round" d="M 14450,22483 L 14450,22371"/>
 <path fill="none" stroke="rgb(179,179,179)" stroke-linejoin="round" d="M 14556,22483 L 14556,22371"/>
 <path fill="none" stroke="rgb(179,179,179)" stroke-linejoin="round" d="M 14556,22483 L 14556,22371"/>
 <path fill="none" stroke="rgb(179,179,179)" stroke-linejoin="round" d="M 14662,22483 L 14662,22371"/>
 <path fill="none" stroke="rgb(179,179,179)" stroke-linejoin="round" d="M 14662,22483 L 14662,22371"/>
 <path fill="none" stroke="rgb(179,179,179)" stroke-linejoin="round" d="M 14769,22483 L 14769,22371"/>
 <path fill="none" stroke="rgb(179,179,179)" stroke-linejoin="round" d="M 14769,22483 L 14769,22371"/>
 <path fill="none" stroke="rgb(179,179,179)" stroke-linejoin="round" d="M 14875,22483 L 14875,22371"/>
 <path fill="none" stroke="rgb(179,179,179)" stroke-linejoin="round" d="M 14875,22483 L 14875,22371"/>
 <path fill="none" stroke="rgb(179,179,179)" stroke-linejoin="round" d="M 14982,22483 L 14982,22371"/>
 <path fill="none" stroke="rgb(179,179,179)" stroke-linejoin="round" d="M 14982,22483 L 14982,22371"/>
 <path fill="none" stroke="rgb(179,179,179)" stroke-linejoin="round" d="M 15088,22483 L 15088,22371"/>
 <path fill="none" stroke="rgb(179,179,179)" stroke-linejoin="round" d="M 15088,22483 L 15088,22371"/>
 <path fill="none" stroke="rgb(179,179,179)" stroke-linejoin="round" d="M 15194,22483 L 15194,22371"/>
 <path fill="none" stroke="rgb(179,179,179)" stroke-linejoin="round" d="M 15194,22483 L 15194,22371"/>
 <path fill="none" stroke="rgb(179,179,179)" stroke-linejoin="round" d="M 15301,22483 L 15301,22371"/>
 <path fill="none" stroke="rgb(179,179,179)" stroke-linejoin="round" d="M 15301,22483 L 15301,22371"/>
 <path fill="none" stroke="rgb(179,179,179)" stroke-linejoin="round" d="M 15407,22483 L 15407,22371"/>
 <path fill="none" stroke="rgb(179,179,179)" stroke-linejoin="round" d="M 15407,22483 L 15407,22371"/>
 <path fill="none" stroke="rgb(179,179,179)" stroke-linejoin="round" d="M 15513,22483 L 15513,22371"/>
 <path fill="none" stroke="rgb(179,179,179)" stroke-linejoin="round" d="M 15513,22483 L 15513,22371"/>
 <path fill="none" stroke="rgb(179,179,179)" stroke-linejoin="round" d="M 15620,22483 L 15620,22371"/>
 <path fill="none" stroke="rgb(179,179,179)" stroke-linejoin="round" d="M 15620,22483 L 15620,22371"/>
 <path fill="none" stroke="rgb(179,179,179)" stroke-linejoin="round" d="M 15726,22483 L 15726,22371"/>
 <path fill="none" stroke="rgb(179,179,179)" stroke-linejoin="round" d="M 15726,22483 L 15726,22371"/>
 <path fill="none" stroke="rgb(179,179,179)" stroke-linejoin="round" d="M 15832,22483 L 15832,22371"/>
 <path fill="none" stroke="rgb(179,179,179)" stroke-linejoin="round" d="M 15832,22483 L 15832,22371"/>
 <path fill="none" stroke="rgb(179,179,179)" stroke-linejoin="round" d="M 15939,22483 L 15939,22371"/>
 <path fill="none" stroke="rgb(179,179,179)" stroke-linejoin="round" d="M 15939,22483 L 15939,22371"/>
 <path fill="none" stroke="rgb(179,179,179)" stroke-linejoin="round" d="M 16045,22483 L 16045,22371"/>
 <path fill="none" stroke="rgb(179,179,179)" stroke-linejoin="round" d="M 16045,22483 L 16045,22371"/>
 <path fill="none" stroke="rgb(179,179,179)" stroke-linejoin="round" d="M 16151,22483 L 16151,22371"/>
 <path fill="none" stroke="rgb(179,179,179)" stroke-linejoin="round" d="M 16151,22483 L 16151,22371"/>
 <path fill="none" stroke="rgb(179,179,179)" stroke-linejoin="round" d="M 16258,22483 L 16258,22371"/>
 <path fill="none" stroke="rgb(179,179,179)" stroke-linejoin="round" d="M 16258,22483 L 16258,22371"/>
 <path fill="none" stroke="rgb(179,179,179)" stroke-linejoin="round" d="M 16364,22483 L 16364,22371"/>
 <path fill="none" stroke="rgb(179,179,179)" stroke-linejoin="round" d="M 16364,22483 L 16364,22371"/>
 <path fill="none" stroke="rgb(179,179,179)" stroke-linejoin="round" d="M 16470,22483 L 16470,22371"/>
 <path fill="none" stroke="rgb(179,179,179)" stroke-linejoin="round" d="M 16470,22483 L 16470,22371"/>
 <path fill="none" stroke="rgb(179,179,179)" stroke-linejoin="round" d="M 16577,22483 L 16577,22371"/>
 <path fill="none" stroke="rgb(179,179,179)" stroke-linejoin="round" d="M 16577,22483 L 16577,22371"/>
 <path fill="none" stroke="rgb(179,179,179)" stroke-linejoin="round" d="M 16683,22483 L 16683,22371"/>
 <path fill="none" stroke="rgb(179,179,179)" stroke-linejoin="round" d="M 16683,22483 L 16683,22371"/>
 <path fill="none" stroke="rgb(179,179,179)" stroke-linejoin="round" d="M 16790,22483 L 16790,22371"/>
 <path fill="none" stroke="rgb(179,179,179)" stroke-linejoin="round" d="M 16790,22483 L 16790,22371"/>
 <path fill="none" stroke="rgb(179,179,179)" stroke-linejoin="round" d="M 16896,22483 L 16896,22371"/>
 <path fill="none" stroke="rgb(179,179,179)" stroke-linejoin="round" d="M 16896,22483 L 16896,22371"/>
 <path fill="none" stroke="rgb(179,179,179)" stroke-linejoin="round" d="M 17002,22483 L 17002,22371"/>
 <path fill="none" stroke="rgb(179,179,179)" stroke-linejoin="round" d="M 17002,22483 L 17002,22371"/>
 <path fill="none" stroke="rgb(179,179,179)" stroke-linejoin="round" d="M 17109,22483 L 17109,22371"/>
 <path fill="none" stroke="rgb(179,179,179)" stroke-linejoin="round" d="M 17109,22483 L 17109,22371"/>
 <path fill="none" stroke="rgb(179,179,179)" stroke-linejoin="round" d="M 17215,22483 L 17215,22371"/>
 <path fill="none" stroke="rgb(179,179,179)" stroke-linejoin="round" d="M 17215,22483 L 17215,22371"/>
 <path fill="none" stroke="rgb(179,179,179)" stroke-linejoin="round" d="M 17321,22483 L 17321,22371"/>
 <path fill="none" stroke="rgb(179,179,179)" stroke-linejoin="round" d="M 17321,22483 L 17321,22371"/>
 <path fill="none" stroke="rgb(179,179,179)" stroke-linejoin="round" d="M 17428,22483 L 17428,22371"/>
 <path fill="none" stroke="rgb(179,179,179)" stroke-linejoin="round" d="M 17428,22483 L 17428,22371"/>
 <path fill="none" stroke="rgb(179,179,179)" stroke-linejoin="round" d="M 17534,22483 L 17534,22371"/>
 <path fill="none" stroke="rgb(179,179,179)" stroke-linejoin="round" d="M 17534,22483 L 17534,22371"/>
 <path fill="none" stroke="rgb(179,179,179)" stroke-linejoin="round" d="M 17640,22483 L 17640,22371"/>
 <path fill="none" stroke="rgb(179,179,179)" stroke-linejoin="round" d="M 17640,22483 L 17640,22371"/>
 <path fill="none" stroke="rgb(179,179,179)" stroke-linejoin="round" d="M 17747,22483 L 17747,22371"/>
 <path fill="none" stroke="rgb(179,179,179)" stroke-linejoin="round" d="M 17747,22483 L 17747,22371"/>
 <path fill="none" stroke="rgb(179,179,179)" stroke-linejoin="round" d="M 17853,22483 L 17853,22371"/>
 <path fill="none" stroke="rgb(179,179,179)" stroke-linejoin="round" d="M 17853,22483 L 17853,22371"/>
 <path fill="none" stroke="rgb(179,179,179)" stroke-linejoin="round" d="M 17959,22483 L 17959,22371"/>
 <path fill="none" stroke="rgb(179,179,179)" stroke-linejoin="round" d="M 17959,22483 L 17959,22371"/>
 <path fill="none" stroke="rgb(179,179,179)" stroke-linejoin="round" d="M 18066,22483 L 18066,22371"/>
 <path fill="none" stroke="rgb(179,179,179)" stroke-linejoin="round" d="M 18066,22483 L 18066,22371"/>
 <path fill="none" stroke="rgb(179,179,179)" stroke-linejoin="round" d="M 18172,22483 L 18172,22371"/>
 <path fill="none" stroke="rgb(179,179,179)" stroke-linejoin="round" d="M 18172,22483 L 18172,22371"/>
 <path fill="none" stroke="rgb(179,179,179)" stroke-linejoin="round" d="M 18278,22483 L 18278,22371"/>
 <path fill="none" stroke="rgb(179,179,179)" stroke-linejoin="round" d="M 18278,22483 L 18278,22371"/>
 <path fill="none" stroke="rgb(179,179,179)" stroke-linejoin="round" d="M 18385,22483 L 18385,22371"/>
 <path fill="none" stroke="rgb(179,179,179)" stroke-linejoin="round" d="M 18385,22483 L 18385,22371"/>
 <path fill="none" stroke="rgb(179,179,179)" stroke-linejoin="round" d="M 18491,22483 L 18491,22371"/>
 <path fill="none" stroke="rgb(179,179,179)" stroke-linejoin="round" d="M 18491,22483 L 18491,22371"/>
 <path fill="none" stroke="rgb(179,179,179)" stroke-linejoin="round" d="M 18598,22483 L 18598,22371"/>
 <path fill="none" stroke="rgb(179,179,179)" stroke-linejoin="round" d="M 18598,22483 L 18598,22371"/>
 <path fill="none" stroke="rgb(179,179,179)" stroke-linejoin="round" d="M 1370,22371 L 18598,22371"/>
 <path fill="none" stroke="rgb(179,179,179)" stroke-linejoin="round" d="M 1220,22371 L 1370,22371"/>
 <path fill="none" stroke="rgb(179,179,179)" stroke-linejoin="round" d="M 1220,22371 L 1370,22371"/>
 <path fill="none" stroke="rgb(179,179,179)" stroke-linejoin="round" d="M 1220,20288 L 1370,20288"/>
 <path fill="none" stroke="rgb(179,179,179)" stroke-linejoin="round" d="M 1220,20288 L 1370,20288"/>
 <path fill="none" stroke="rgb(179,179,179)" stroke-linejoin="round" d="M 1220,18206 L 1370,18206"/>
 <path fill="none" stroke="rgb(179,179,179)" stroke-linejoin="round" d="M 1220,18206 L 1370,18206"/>
 <path fill="none" stroke="rgb(179,179,179)" stroke-linejoin="round" d="M 1220,16124 L 1370,16124"/>
 <path fill="none" stroke="rgb(179,179,179)" stroke-linejoin="round" d="M 1220,16124 L 1370,16124"/>
 <path fill="none" stroke="rgb(179,179,179)" stroke-linejoin="round" d="M 1220,14042 L 1370,14042"/>
 <path fill="none" stroke="rgb(179,179,179)" stroke-linejoin="round" d="M 1220,14042 L 1370,14042"/>
 <path fill="none" stroke="rgb(179,179,179)" stroke-linejoin="round" d="M 1220,11960 L 1370,11960"/>
 <path fill="none" stroke="rgb(179,179,179)" stroke-linejoin="round" d="M 1220,11960 L 1370,11960"/>
 <path fill="none" stroke="rgb(179,179,179)" stroke-linejoin="round" d="M 1220,9879 L 1370,9879"/>
 <path fill="none" stroke="rgb(179,179,179)" stroke-linejoin="round" d="M 1220,9879 L 1370,9879"/>
 <path fill="none" stroke="rgb(179,179,179)" stroke-linejoin="round" d="M 1220,7797 L 1370,7797"/>
 <path fill="none" stroke="rgb(179,179,179)" stroke-linejoin="round" d="M 1220,7797 L 1370,7797"/>
 <path fill="none" stroke="rgb(179,179,179)" stroke-linejoin="round" d="M 1220,5715 L 1370,5715"/>
 <path fill="none" stroke="rgb(179,179,179)" stroke-linejoin="round" d="M 1220,5715 L 1370,5715"/>
 <path fill="none" stroke="rgb(179,179,179)" stroke-linejoin="round" d="M 1220,3633 L 1370,3633"/>
 <path fill="none" stroke="rgb(179,179,179)" stroke-linejoin="round" d="M 1220,3633 L 1370,3633"/>
 <path fill="none" stroke="rgb(179,179,179)" stroke-linejoin="round" d="M 1220,1551 L 1370,1551"/>
 <path fill="none" stroke="rgb(179,179,179)" stroke-linejoin="round" d="M 1220,1551 L 1370,1551"/>
 <path fill="none" stroke="rgb(179,179,179)" stroke-linejoin="round" d="M 1370,22371 L 1370,1551"/>
 <path fill="none" stroke="rgb(255,191,0)" stroke-width="80" stroke-linejoin="round" stroke-dasharray="80,40" d="M 15010,1551 L 15035,2752 15141,1926 15247,3130 15354,2737 15460,3033 15502,1551"/>
 <path fill="none" stroke="rgb(255,191,0)" stroke-width="80" stroke-linejoin="round" stroke-dasharray="80,40" d="M 15666,1551 L 15673,1712 15678,1551"/>
 <path fill="none" stroke="rgb(255,191,0)" stroke-width="80" stroke-linejoin="round" stroke-dasharray="80,40" d="M 16288,1551 L 16311,2362 16378,1551"/>
 <path fill="none" stroke="rgb(255,191,0)" stroke-width="80" stroke-linejoin="round" stroke-dasharray="80,40" d="M 16448,1551 L 16524,2691 16630,3471 16736,6818 16843,6725 16949,7217 17055,7106 17162,8377 17268,9591 17374,9745 17481,10210 17587,10588 17694,10963 17800,10994 17906,11798 18013,11982 18119,12079 18225,12435 18332,12502 18438,12666 18544,14045"/>
 <path fill="none" stroke="rgb(0,0,255)" stroke-width="80" stroke-linejoin="round" stroke-dasharray="80,40" d="M 15766,1551 L 15779,1866 15886,2177 15992,1873 16098,1903 16133,1551"/>
 <path fill="none" stroke="rgb(0,0,255)" stroke-width="80" stroke-linejoin="round" stroke-dasharray="80,40" d="M 16361,1551 L 16417,1815 16524,2243 16630,3139 16736,4667 16843,6095 16949,7885 17055,8586 17162,9371 17268,9322 17374,9928 17481,10356 17587,9132 17694,9916 17800,10373 17906,10867 18013,11731 18119,11911 18225,11615 18332,12715 18438,12901 18544,13716"/>
 <path fill="none" stroke="rgb(21,132,102)" stroke-width="80" stroke-linejoin="round" stroke-dasharray="80,203,80,203,203,203" d="M 15362,1551 L 15460,1845 15566,1783 15673,2114 15779,2342 15886,2632 15992,2666 16098,3048 16205,3388 16311,3794 16417,4013 16524,4295 16630,4730 16736,5313 16843,5451 16949,5575 17055,5571 17162,5899 17268,5967 17374,6049 17481,6144 17587,6255 17694,6321 17800,6160 17906,6125 18013,6371 18119,6603 18225,6588 18332,6739 18438,6843 18544,7276"/>
 <path fill="none" stroke="rgb(255,64,0)" stroke-width="80" stroke-linejoin="round" stroke-dasharray="80,40" d="M 16232,1551 L 16311,1799 16417,2437 16524,3170 16630,4481 16736,6047 16843,5721 16949,5816 17055,6054 17162,6323 17268,6680 17374,6948 17481,6311 17587,7040 17694,7559 17800,5969 17906,6433 18013,6648 18119,6859 18225,6666 18332,7384 18438,7535 18544,9611"/>
 <path fill="none" stroke="rgb(0,169,51)" stroke-width="80" stroke-linejoin="round" stroke-dasharray="80,40" d="M 15309,1551 L 15354,2371 15460,2818 15566,2657 15673,2677 15779,3071 15886,2994 15992,3759 16098,4078 16205,4214 16311,5273 16417,6004 16524,6224 16630,6705 16736,6751 16843,6887 16949,7218 17055,7333 17162,7720 17268,8082 17374,8547 17481,8735 17587,9084 17694,9111 17800,9128 17906,8671 18013,8923 18119,9094 18225,9094 18332,9107 18438,9029 18544,9193"/>
 <path fill="none" stroke="rgb(255,211,32)" stroke-width="80" stroke-linejoin="round" d="M 4277,1551 L 4294,2063 4401,5926 4507,8428 4613,9322 4720,8031 4826,9088 4932,10958 5039,11770 5145,11911 5251,11495 5358,11520 5464,12911 5570,13221 5677,13242 5783,13219 5889,12864 5996,13801 6102,14668 6209,14074 6315,13889 6421,13111 6528,13348 6634,11929 6740,11582 6847,10990 6953,12323 7059,12289 7166,11659 7272,10579 7378,12283 7485,12667 7591,13656 7697,13190 7804,13322 7910,14407 8016,15093 8123,15432 8229,15146 8336,14304 8442,14306 8548,14831 8655,14768 8761,14283 8867,13529 8974,13765 9080,13855 9186,14454 9293,13434 9399,13143 9505,13807 9612,14490 9718,14684 9824,15207 9931,13391 10037,12565 10144,12847 10250,12525 10356,12874 10463,11272 10569,9771 10675,10422 10782,9726 10888,5433 10971,1551"/>
 <path fill="none" stroke="rgb(255,211,32)" stroke-width="80" stroke-linejoin="round" d="M 11638,1551 L 11739,6006 11844,8949 11951,9639 12057,9097 12163,9702 12270,10845 12376,11074 12482,11408 12589,11237 12695,11604 12801,11631 12908,11203 13014,10504 13120,10623 13227,10186 13333,8845 13439,7030 13546,5452 13652,4200 13758,2084 13865,1979 13971,1782 14041,1551"/>
 <path fill="none" stroke="rgb(255,211,32)" stroke-width="80" stroke-linejoin="round" d="M 14488,1551 L 14503,1759 14609,2019 14716,2317 14822,2350 14928,2775 15035,3793 15141,5075 15247,3704 15354,3220 15460,3124 15566,4180 15673,4340 15779,4008 15886,2761 15992,3545 16098,3463 16205,3551 16311,3142 16417,3527 16524,3564 16630,4728 16736,2727 16843,2494 16949,2489 17055,1975 17131,1551"/>
 <path fill="none" stroke="rgb(128,0,128)" stroke-width="80" stroke-linejoin="round" d="M 4038,1551 L 4081,9114 4188,6973 4294,12980 4401,12746 4507,15645 4613,17846 4720,21969 4826,9831 4932,11575 5039,12511 5145,13876 5251,13919 5358,15126 5464,14555 5570,14978 5677,15645 5783,15780 5889,13369 5996,14111 6102,14465 6209,14761 6315,15526 6421,15740 6528,16479 6634,18553 6740,18712 6847,18853 6953,19198 7059,18173 7166,18226 7272,17791 7378,18960 7485,18582 7591,19054 7697,18020 7804,19054 7910,18886 8016,19097 8123,18622 8229,19134 8336,18786 8442,19960 8548,20264 8655,20558 8761,20570 8867,20564 8974,20605 9080,20678 9186,20600 9293,20443 9399,20390 9505,20321 9612,20310 9718,20338 9824,20305 9931,20174 10037,20345 10144,20376 10250,20370 10356,20328 10463,20305 10569,20326 10675,20488 10782,20395 10888,20228 10994,20259 11101,20288 11207,20245 11313,20202 11420,20169 11526,20153 11632,20631 11739,20885 11844,20013 11951,19982 12057,19990 12163,19912 12270,19576 12376,19576 12482,19576 12589,18927 12695,18663 12801,18263 12908,17599 13014,17166 13120,17166 13227,17166 13333,15144 13439,14602 13546,14238 13652,13272 13758,12637 13865,12637 13971,12637 14078,11407 14184,11096 14290,10628 14397,10608 14503,10066 14609,10066 14716,10066 14822,8725 14928,5896 15035,5336 15141,4554 15247,3724 15354,3724 15460,3724 15566,4200 15673,6008 15779,6017 15886,3907 15992,3528 16098,3528 16205,3528 16252,1551"/>
 <path fill="none" stroke="rgb(191,0,65)" stroke-width="80" stroke-linejoin="round" stroke-dasharray="80,40" d="M 7657,1551 L 7697,2652 7774,1551"/>
 <path fill="none" stroke="rgb(191,0,65)" stroke-width="80" stroke-linejoin="round" stroke-dasharray="80,40" d="M 8091,1551 L 8123,1915 8229,1684 8233,1551"/>
 <path fill="none" stroke="rgb(191,0,65)" stroke-width="80" stroke-linejoin="round" stroke-dasharray="80,40" d="M 15281,1551 L 15354,2181 15460,2850 15566,3291 15673,3339 15779,2425 15886,3301 15992,4202 16098,5345 16205,6502 16311,7197 16417,8125 16524,9844 16630,10613 16736,11282 16843,12151 16949,12510 17055,12708 17162,13190 17268,13574 17374,14097 17481,14467 17587,14912 17694,15085 17800,15241 17906,13589 18013,13915 18119,13858 18225,14119 18332,14007 18438,14048 18544,14089"/>
 <path fill="none" stroke="rgb(141,40,30)" stroke-width="80" stroke-linejoin="round" stroke-dasharray="80,40" d="M 7489,1551 L 7591,2569 7697,3220 7804,3460 7910,3378 8016,3731 8123,4147 8229,4103 8336,4094 8442,4511 8548,4675 8655,5119 8761,5562 8867,5716 8974,6219 9080,6299 9186,6304 9293,6506 9399,6388 9505,6309 9612,6214 9718,5775 9824,5452 9931,5144 10037,4732 10144,4227 10250,3741 10356,2843 10463,1941 10525,1551"/>
 <path fill="none" stroke="rgb(141,40,30)" stroke-width="80" stroke-linejoin="round" stroke-dasharray="80,40" d="M 14785,1551 L 14822,1833 14928,2542 15035,3704 15141,4373 15247,5045 15354,5368 15460,5570 15566,5548 15673,6219 15779,6249 15886,6794 15992,6719 16098,7239 16205,7582 16311,8315 16417,8514 16524,9055 16630,9484 16736,10254 16843,10491 16949,10872 17055,10839 17162,11196 17268,11377 17374,11392 17481,11578 17587,11569 17694,11607 17800,11813 17906,11700 18013,11939 18119,12356 18225,12281 18332,12455 18438,12651 18544,13047"/>
 <path fill="none" stroke="rgb(180,120,4)" stroke-width="80" stroke-linejoin="round" d="M 5408,1551 L 5464,1786 5570,2512 5677,2602 5783,2966 5889,4585 5996,6370 6102,7397 6209,9613 6315,10918 6421,11701 6528,12613 6634,13526 6740,13628 6847,13747 6953,13421 7059,14053 7166,14254 7272,14248 7378,14539 7485,15240 7591,15654 7697,16296 7804,15720 7910,16099 8016,16787 8123,16746 8229,16873 8336,17183 8442,17055 8548,17392 8655,17250 8761,17476 8867,17768 8974,17712 9080,18109 9186,18487 9293,18508 9399,18678 9505,18171 9612,18005 9718,18121 9824,17632 9931,17112 10037,17427 10144,18118 10250,19044 10356,17172 10463,17169 10569,17021 10675,17524 10782,17674 10888,17674 10994,17674 11101,18706 11207,18993 11313,19462 11420,19467 11526,19832 11632,19832 11739,19815 11844,20313 11951,20428 12057,20656 12163,20739 12270,20533 12376,20533 12482,20549 12589,19839 12695,19619 12801,19319 12908,19069 13014,18775 13120,18775 13227,18728 13333,18784 13439,18540 13546,18282 13652,18167 13758,18198 13865,18183 13971,17888 14078,17593 14184,17669 14290,17547 14397,16703 14503,16479 14609,16495 14716,16840 14822,15418 14928,14787 15035,13783 15141,13096 15247,11700 15354,11640 15460,11522 15566,9208 15673,8160 15779,8198 15886,8040 15992,8097 16098,6619 16205,4822 16311,8725 16417,9368 16524,10046 16630,10846 16736,12236 16843,12266 16949,13107 17055,13411 17162,13925 17268,14392 17374,14790 17481,14811 17587,15275 17694,14884 17800,15080 17906,14931 18013,14293 18119,13237 18225,12048 18332,10765 18438,10420 18544,8858"/>
 <path fill="none" stroke="rgb(0,0,255)" stroke-width="80" stroke-linejoin="round" stroke-dasharray="51,127,51,127,254,127,254,127,254,127" d="M 4277,1551 L 4294,2124 4401,2759 4507,4233 4613,5827 4720,8203 4826,6928 4932,8287 5039,9357 5145,10806 5251,11700 5358,11100 5464,11231 5570,11202 5677,11643 5783,11921 5889,11672 5996,11960 6102,13196 6209,13730 6315,14413 6421,14823 6528,15210 6634,15880 6740,16046 6847,15978 6953,16330 7059,16290 7166,16369 7272,16385 7378,16671 7485,17041 7591,17395 7697,16614 7804,16843 7910,16643 8016,16751 8123,16714 8229,17041 8336,17025 8442,17877 8548,17923 8655,18056 8761,17949 8867,17862 8974,17556 9080,17513 9186,17521 9293,17508 9399,17600 9505,17636 9612,17719 9718,17687 9824,17572 9931,17316 10037,17428 10144,17463 10250,17506 10356,17432 10463,17363 10569,17379 10675,17658 10782,17388 10888,17417 10994,17573 11101,17310 11207,17468 11313,17533 11420,17526 11526,17827 11632,17962 11739,17905 11844,17931 11951,18042 12057,18192 12163,18106 12270,18045 12376,17992 12482,18000 12589,17863 12695,17828 12801,17613 12908,17505 13014,17296 13120,17293 13227,17262 13333,16657 13439,16332 13546,16072 13652,15757 13758,15488 13865,15318 13971,15180 14078,14837 14184,14671 14290,14603 14397,14293 14503,13811 14609,13755 14716,13775 14822,13768 14928,12710 15035,12482 15141,12073 15247,11569 15354,11505 15460,11341 15566,10709 15673,11508 15779,10657 15886,10563 15992,10179 16098,9644 16205,9705 16311,8900 16417,8669 16524,9003 16630,9096 16736,7583 16843,7598 16949,6887 17055,6804 17162,6181 17268,5444 17374,4482 17481,5752 17587,6220 17694,5577 17800,5201 17906,5090 18013,4961 18119,5059 18225,4722 18332,4664 18438,5888 18544,3823"/>
 <path fill="none" stroke="rgb(0,169,51)" stroke-width="80" stroke-linejoin="round" stroke-dasharray="158,102" d="M 4306,1551 L 4401,2507 4507,3265 4613,3823 4720,4155 4826,4779 4932,5776 5039,6395 5145,6040 5251,5761 5358,4602 5464,3682 5570,2682 5656,1551"/>
 <path fill="none" stroke="rgb(0,169,51)" stroke-width="80" stroke-linejoin="round" stroke-dasharray="158,102" d="M 9153,1551 L 9186,2236 9293,3228 9399,3286 9505,3418 9612,3155 9718,2830 9824,2347 9931,2157 10037,2139 10144,2526 10250,2903 10356,3018 10463,3404 10569,3744 10675,3990 10782,4216 10888,4287 10994,4373 11101,4633 11207,4828 11313,5019 11420,5173 11526,5440 11632,5636 11739,5756 11844,5872 11951,5886 12057,5940 12163,6639 12270,7080 12376,7283 12482,7767 12589,8150 12695,8401 12801,8807 12908,8569 13014,8596 13120,8914 13227,9032 13333,9100 13439,9145 13546,9109 13652,9139 13758,9171 13865,9161 13971,9151 14078,9252 14184,9344 14290,9427 14397,9546 14503,9523 14609,9459 14716,9311 14822,9303 14928,9361 15035,9433 15141,9537 15247,9803 15354,10195 15460,10748 15566,11155 15673,11522 15779,11737 15886,11830 15992,11877 16098,11869 16205,11862 16311,11857 16417,11906 16524,12025 16630,12320 16736,12576 16843,12773 16949,12845 17055,12908 17162,13076 17268,13260 17374,13371 17481,13481 17587,13603 17694,13863 17800,14263 17906,14617 18013,14884 18119,15039 18225,15131 18332,15175 18438,15076 18544,14825"/>
 <path fill="none" stroke="rgb(0,169,51)" stroke-width="80" stroke-linejoin="round" d="M 3180,1551 L 3231,3003 3337,6397 3443,9326 3550,10367 3656,11191 3762,12901 3869,13816 3975,14805 4081,15580 4188,15601 4294,15651 4401,15630 4507,15595 4613,15716 4720,16125 4826,16015 4932,16735 5039,17283 5145,17640 5251,18398 5358,18558 5464,18328 5570,19113 5677,18690 5783,18713 5889,18892 5996,18233 6102,18215 6209,18326 6315,17949 6421,17531 6528,17503 6634,17297 6740,17674 6847,17737 6953,17884 7059,18144 7166,18708 7272,19025 7378,18915 7485,19360 7591,19340 7697,19527 7804,19596 7910,19857 8016,19494 8123,19928 8229,19830 8336,20112 8442,20154 8548,20020 8655,19713 8761,20242 8867,19446 8974,19637 9080,19465 9186,19533 9293,19639 9399,20153 9505,19821 9612,20321 9718,19795 9824,19946 9931,20060 10037,19845 10144,19384 10250,19547 10356,19393 10463,19718 10569,19393 10675,19300 10782,19345 10888,19282 10994,18612 11101,18261 11207,18089 11313,17311 11420,16843 11526,16096 11632,15442 11739,14988 11844,14828 11951,14694 12057,14915 12163,14549 12270,14769 12376,15287 12482,15343 12589,15761 12695,15589 12801,15161 12908,15044 13014,14246 13120,13613 13227,14019 13333,13635 13439,13548 13546,13946 13652,13413 13758,14070 13865,14233 13971,13716 14078,13775 14184,13444 14290,12748 14397,13503 14503,12935 14609,13423 14716,13909 14822,13995 14928,14275 15035,15220 15141,15008 15247,15404 15354,15431 15460,15246 15566,15351 15673,14965 15779,13942 15886,13753 15992,12464 16098,10403 16205,9737 16311,8922 16417,7545 16524,7108 16630,5443 16736,5206 16843,5457 16949,5595 17055,5022 17162,5971 17268,5522 17374,5923 17481,7001 17587,6396 17694,6599 17800,6504 17906,6691 18013,6888 18119,6488 18225,5622 18332,6153 18438,6238 18544,6261"/>
 <path fill="none" stroke="rgb(0,223,255)" stroke-width="80" stroke-linejoin="round" stroke-dasharray="158,102" d="M 10442,1551 L 10463,1673 10569,2214 10675,2741 10782,3450 10888,4080 10994,4654 11101,5199 11207,5666 11313,6075 11420,6383 11526,6585 11632,6830 11739,7018 11844,7215 11951,7475 12057,7629 12163,7862 12270,8035 12376,8188 12482,8368 12589,8520 12695,8684 12801,8848 12908,8995 13014,9188 13120,9416 13227,9674 13333,9961 13439,10182 13546,10443 13652,10707 13758,10973 13865,11169 13971,11354 14078,11516 14184,11717 14290,11902 14397,12068 14503,12224 14609,12402 14716,12563 14822,12692 14928,12821 15035,12950 15141,13074 15247,13203 15354,13322 15460,13437 15566,13562 15673,13670 15779,13753 15886,13858 15992,13951 16098,14037 16205,14143 16311,14246 16417,14331 16524,14437 16630,14539 16736,14622 16843,14704 16949,14770 17055,14844 17162,14900 17268,14971 17374,15029 17481,15084 17587,15125 17694,15140 17800,15122 17906,15150 18013,15131 18119,15105 18225,15075 18332,15048 18438,15042 18544,15042"/>
 <path fill="none" stroke="rgb(0,255,0)" stroke-width="80" stroke-linejoin="round" d="M 3364,1551 L 3443,3323 3550,3324 3656,4086 3762,5296 3869,7097 3975,8632 4081,10076 4188,11051 4294,12455 4401,13280 4507,13460 4613,13981 4720,14406 4826,14907 4932,15719 5039,16324 5145,16538 5251,17070 5358,17747 5464,18570 5570,18852 5677,19340 5783,19586 5889,19850 5996,19796 6102,19925 6209,20041 6315,20254 6421,20161 6528,20433 6634,20635 6740,20739 6847,20693 6953,20792 7059,21054 7166,21328 7272,21356 7378,21357 7485,21398 7591,21569 7697,21679 7804,21550 7910,21557 8016,21517 8123,21524 8229,21606 8336,21579 8442,21579 8548,21641 8655,21621 8761,21676 8867,21689 8974,21602 9080,21575 9186,21488 9293,21516 9399,21442 9505,21348 9612,21302 9718,21255 9824,21189 9931,21324 10037,21218 10144,21373 10250,21200 10356,21173 10463,21181 10569,21109 10675,20849 10782,20697 10888,20291 10994,20208 11101,20096 11207,19832 11313,19218 11420,18800 11526,18304 11632,18128 11739,18083 11844,18009 11951,18070 12057,18141 12163,18339 12270,18550 12376,18368 12482,18402 12589,18305 12695,18209 12801,18206 12908,17872 13014,17963 13120,18088 13227,17888 13333,18023 13439,17792 13546,17754 13652,17930 13758,17555 13865,17335 13971,17282 14078,17152 14184,17021 14290,16723 14397,16112 14503,15799 14609,15633 14716,15485 14822,15492 14928,15530 15035,15640 15141,15914 15247,16242 15354,16262 15460,16203 15566,15987 15673,15678 15779,15173 15886,14903 15992,14322 16098,13957 16205,13719 16311,13613 16417,13601 16524,13458 16630,13336 16736,13190 16843,13021 16949,12655 17055,12529 17162,12553 17268,12245 17374,11808 17481,11710 17587,11364 17694,11357 17800,11368 17906,11351 18013,11522 18119,11602 18225,11363 18332,11218 18438,10542 18544,10450"/>
 <path fill="none" stroke="rgb(89,131,176)" stroke-width="80" stroke-linejoin="round" d="M 2985,1551 L 3018,4000 3083,1551"/>
 <path fill="none" stroke="rgb(89,131,176)" stroke-width="80" stroke-linejoin="round" d="M 3325,1551 L 3337,1827 3443,2002 3550,4726 3656,4934 3762,4515 3869,3898 3975,7124 4081,6584 4188,8670 4294,9163 4401,9482 4507,8792 4613,11816 4720,12890 4826,13443 4932,13763 5039,13519 5145,14014 5251,14352 5358,14647 5464,14406 5570,14693 5677,14638 5783,15525 5889,16364 5996,17083 6102,17709 6209,18172 6315,18526 6421,18823 6528,18671 6634,19170 6740,19563 6847,19671 6953,19500 7059,19508 7166,19615 7272,19771 7378,19672 7485,19449 7591,19353 7697,19815 7804,20121 7910,20100 8016,20177 8123,20329 8229,20582 8336,20487 8442,20068 8548,19898 8655,20051 8761,19731 8867,19536 8974,19391 9080,19497 9186,19824 9293,19976 9399,20003 9505,20324 9612,20279 9718,20331 9824,19996 9931,19952 10037,19810 10144,19619 10250,19620 10356,19866 10463,19678 10569,20071 10675,20458 10782,19841 10888,19894 10994,19752 11101,19730 11207,19831 11313,19812 11420,19670 11526,20272 11632,20488 11739,20607 11844,20632 11951,20776 12057,21107 12163,20897 12270,21134 12376,21181 12482,21181 12589,21252 12695,21114 12801,20951 12908,21209 13014,21187 13120,21188 13227,21281 13333,21212 13439,21168 13546,21261 13652,20754 13758,20825 13865,20456 13971,20318 14078,20112 14184,20140 14290,19773 14397,19552 14503,18981 14609,19125 14716,18922 14822,17765 14928,17546 15035,16990 15141,16491 15247,15363 15354,14585 15460,14058 15566,14563 15673,13719 15779,14094 15886,13948 15992,14588 16098,14432 16205,14442 16311,14286 16417,14684 16524,14304 16630,15057 16736,14658 16843,15392 16949,15753 17055,15437 17162,15307 17268,15363 17374,15326 17481,16150 17587,16063 17694,15916 17800,14619 17906,14065 18013,11866 18119,10956 18225,9602 18332,8930 18438,7797 18544,8101"/>
 <path fill="none" stroke="rgb(52,42,6)" stroke-width="80" stroke-linejoin="round" d="M 4056,1551 L 4081,2342 4188,3240 4294,4322 4401,5817 4507,6055 4613,7319 4720,8938 4826,10177 4932,11125 5039,11953 5145,12673 5251,13133 5358,13834 5464,14169 5570,14108 5677,14347 5783,14559 5889,14320 5996,14686 6102,15021 6209,16167 6315,16701 6421,16989 6528,16931 6634,17575 6740,16831 6847,17138 6953,16949 7059,17051 7166,17355 7272,17697 7378,17595 7485,18363 7591,18811 7697,18678 7804,18649 7910,18665 8016,18812 8123,18919 8229,19292 8336,19392 8442,19770 8548,20092 8655,19801 8761,19714 8867,19518 8974,19396 9080,19655 9186,19866 9293,19779 9399,20331 9505,20389 9612,20611 9718,20421 9824,20046 9931,18884 10037,18953 10144,18587 10250,18202 10356,17838 10463,17694 10569,17660 10675,18472 10782,18282 10888,18234 10994,18647 11101,18816 11207,19192 11313,19108 11420,19141 11526,19426 11632,19437 11739,19344 11844,19144 11951,19254 12057,19388 12163,19581 12270,19670 12376,19719 12482,19845 12589,20146 12695,20152 12801,20075 12908,19808 13014,19537 13120,19538 13227,19438 13333,19099 13439,18983 13546,18861 13652,18824 13758,18683 13865,18408 13971,18332 14078,18493 14184,18293 14290,18018 14397,17641 14503,17534 14609,17599 14716,17784 14822,17345 14928,17237 15035,16812 15141,16901 15247,16634 15354,16551 15460,16389 15566,16091 15673,15804 15779,15810 15886,15358 15992,15056 16098,15089 16205,14974 16311,14565 16417,14233 16524,14030 16630,13930 16736,13776 16843,13677 16949,13592 17055,13717 17162,13733 17268,13937 17374,14018 17481,14242 17587,14381 17694,14547 17800,14717 17906,14981 18013,15052 18119,15214 18225,15356 18332,15320 18438,15162 18544,14865"/>
 <path fill="none" stroke="rgb(255,0,0)" stroke-width="80" stroke-linejoin="round" stroke-dasharray="158,102" d="M 5784,1551 L 5889,2617 5996,3102 6102,4402 6209,5200 6315,5649 6421,5741 6528,6187 6634,6250 6740,7448 6847,8590 6953,9715 7059,10937 7166,11658 7272,12071 7378,12387 7485,12556 7591,12532 7697,12294 7804,12102 7910,12451 8016,12924 8123,13195 8229,13462 8336,13738 8442,14053 8548,14382 8655,14564 8761,14509 8867,14344 8974,14122 9080,14096 9186,14146 9293,13864 9399,13193 9505,12449 9612,11774 9718,11261 9824,10711 9931,10397 10037,10457 10144,10804 10250,11337 10356,11875 10463,12187 10569,12195 10675,12093 10782,11956 10888,11888 10994,11773 11101,11662 11207,11706 11313,12114 11420,12485 11526,12796 11632,13094 11739,13378 11844,13742 11951,14048 12057,14253 12163,14468 12270,14686 12376,14870 12482,15049 12589,15166 12695,15264 12801,15393 12908,15517 13014,15626 13120,15754 13227,15872 13333,15977 13439,16069 13546,16140 13652,16186 13758,16202 13865,16225 13971,16248 14078,16285 14184,16277 14290,16265 14397,16239 14503,16223 14609,16179 14716,16149 14822,16105 14928,16021 15035,15833 15141,15692 15247,15537 15354,15409 15460,15264 15566,15118 15673,15062 15779,15069 15886,15025 15992,15026 16098,14989 16205,15017 16311,15019 16417,14986 16524,14945 16630,14839 16736,14896 16843,14889 16949,14904 17055,14766 17162,14607 17268,14639 17374,14617 17481,14398 17587,14244 17694,14069 17800,13999 17906,13992 18013,13809 18119,13738 18225,13713 18332,13667 18438,13640 18544,13602"/>
 <path fill="none" stroke="rgb(0,0,255)" stroke-width="80" stroke-linejoin="round" stroke-dasharray="158,158" d="M 1423,6107 L 1529,5115 1635,5281 1742,5811 1848,6084 1954,7477 2061,8162 2167,8945 2273,10776 2380,11905 2486,13041 2593,14342 2699,15728 2805,16777 2912,17248 3018,17675 3124,18220 3231,18575 3337,18684 3443,18933 3550,19419 3656,19663 3762,20025 3869,20346 3975,20507 4081,20746 4188,20905 4294,20867 4401,20849 4507,20850 4613,20988 4720,21087 4826,21166 4932,21109 5039,21149 5145,21364 5251,21500 5358,21500 5464,21443 5570,21212 5677,20808 5783,20289 5889,19827 5996,19365 6102,18884 6209,18600 6315,18587 6421,19001 6528,19393 6634,19667 6740,19559 6847,19889 6953,20027 7059,19956 7166,19733 7272,19717 7378,19608 7485,19466 7591,18215 7697,17512 7804,17224 7910,17198 8016,16852 8123,16509 8229,16364 8336,17140 8442,17513 8548,17311 8655,16779 8761,16741 8867,16760 8974,16766 9080,16677 9186,16393 9293,16472 9399,16907 9505,16960 9612,17048 9718,17192 9824,16968 9931,17115 10037,16807 10144,16582 10250,16925 10356,16735 10463,16618 10569,17172 10675,17362 10782,17659 10888,17442 10994,17030 11101,17100 11207,17138 11313,16719 11420,16340 11526,16167 11632,16213 11739,16168 11844,16173 11951,15986 12057,16094 12163,16413 12270,16890 12376,17186 12482,16950 12589,17142 12695,17544 12801,17374 12908,17157 13014,17108 13120,17280 13227,17860 13333,17686 13439,17331 13546,17384 13652,17695 13758,16585 13865,16236 13971,16262 14078,16538 14184,16790 14290,17426 14397,17515 14503,18765 14609,19192 14716,19227 14822,19145 14928,19375 15035,19014 15141,19256 15247,19088 15354,19008 15460,18941 15566,18949 15673,18655 15779,18479 15886,17294 15992,15550 16098,12101 16205,9716 16311,6734 16417,3353 16477,1551"/>
 <path fill="none" stroke="rgb(0,0,255)" stroke-width="80" stroke-linejoin="round" stroke-dasharray="158,158" d="M 18047,1551 L 18119,3108 18225,5092 18332,6750 18438,8290 18544,9476"/>
 <path fill="none" stroke="rgb(241,13,12)" stroke-width="80" stroke-linejoin="round" d="M 11279,1551 L 11313,2854 11420,5171 11526,7097 11632,8504 11739,8921 11844,10543 11951,12298 12057,12844 12163,14003 12270,15044 12376,15248 12482,15896 12589,16156 12695,16072 12801,16810 12908,17015 13014,17267 13120,17615 13227,17611 13333,17733 13439,18006 13546,18029 13652,18194 13758,18315 13865,18499 13971,18695 14078,18869 14184,18721 14290,18724 14397,18508 14503,18533 14609,18087 14716,18100 14822,17846 14928,17724 15035,17404 15141,17218 15247,16906 15354,17043 15460,16951 15566,16880 15673,16681 15779,16662 15886,16731 15992,16853 16098,16961 16205,16992 16311,17062 16417,17358 16524,17626 16630,17722 16736,17860 16843,18041 16949,18060 17055,18049 17162,18291 17268,18574 17374,19091 17481,19851 17587,20256 17694,20400 17800,19808 17906,20021 18013,20612 18119,20458 18225,19824 18332,19824 18438,19824 18544,19461"/>
 <path fill="none" stroke="rgb(85,48,141)" stroke-width="80" stroke-linejoin="round" stroke-dasharray="80,40" d="M 7250,1551 L 7272,1708 7378,2162 7485,2720 7591,3448 7697,4168 7804,5104 7910,6404 8016,6961 8123,7628 8229,8497 8336,9147 8442,10123 8548,10833 8655,11484 8761,11792 8867,12347 8974,12884 9080,13397 9186,13869 9293,14454 9399,14670 9505,15459 9612,16016 9718,16339 9824,16526 9931,16663 10037,16686 10144,16712 10250,16825 10356,16884 10463,16850 10569,17045 10675,17085 10782,17659 10888,18083 10994,18098 11101,17514 11207,17695 11313,17968 11420,18025 11526,17728 11632,17791 11739,18014 11844,18465 11951,18591 12057,18363 12163,18440 12270,18435 12376,18553 12482,18582 12589,18182 12695,17885 12801,17837 12908,17603 13014,17451 13120,17172 13227,17001 13333,16778 13439,16478 13546,16545 13652,16275 13758,15734 13865,15680 13971,15649 14078,15857 14184,16136 14290,15844 14397,16403 14503,16644 14609,16865 14716,17014 14822,17898 14928,17404 15035,17623 15141,17576 15247,17755 15354,17759 15460,17814 15566,16980 15673,17620 15779,17739 15886,17540 15992,17717 16098,17770 16205,17847 16311,18677 16417,17786 16524,17780 16630,18238 16736,17799 16843,17772 16949,17647 17055,16712 17162,17678 17268,17436 17374,17049 17481,17388 17587,17305 17694,17328 17800,16946 17906,16642 18013,16595 18119,16406 18225,16255 18332,16152 18438,15955 18544,17000"/>
 <path fill="none" stroke="rgb(255,128,0)" stroke-width="80" stroke-linejoin="round" d="M 6208,1551 L 6209,1563 6315,2403 6421,2685 6528,3388 6634,4682 6740,5277 6847,6082 6953,6331 7059,6948 7166,7599 7272,8140 7378,9155 7485,10556 7591,11474 7697,12292 7804,12830 7910,13229 8016,13519 8123,13718 8229,13933 8336,14373 8442,14836 8548,15205 8655,15490 8761,15803 8867,16121 8974,16405 9080,16566 9186,16776 9293,16843 9399,16786 9505,16731 9612,16804 9718,16887 9824,17056 9931,17066 10037,17140 10144,17327 10250,17481 10356,17606 10463,17777 10569,17961 10675,18220 10782,18493 10888,18526 10994,18696 11101,18910 11207,19275 11313,19811 11420,20327 11526,20432 11632,20443 11739,20364 11844,20559 11951,20430 12057,20012 12163,19547 12270,19536 12376,19396 12482,19306 12589,19181 12695,18713 12801,18792 12908,18798 13014,18687 13120,18695 13227,18649 13333,18621 13439,19202 13546,19190 13652,19103 13758,19053 13865,19104 13971,19095 14078,19030 14184,18959 14290,18799 14397,18761 14503,18691 14609,18701 14716,18712 14822,18545 14928,18468 15035,18407 15141,18338 15247,18338 15354,18351 15460,18112 15566,18209 15673,17897 15779,17820 15886,17711 15992,17348 16098,17176 16205,17195 16311,17273 16417,17317 16524,17470 16630,17457 16736,17742 16843,17568 16949,17626 17055,17470 17162,17430 17268,17240 17374,17036 17481,16902 17587,17066 17694,16635 17800,16375 17906,16314 18013,16103 18119,15984 18225,15584 18332,15161 18438,14435 18544,13522"/>
 <path fill="none" stroke="rgb(0,127,255)" stroke-width="80" stroke-linejoin="round" d="M 4408,1551 L 4507,2510 4613,4294 4720,5394 4826,6799 4932,7474 5039,8634 5145,9295 5251,10481 5358,11259 5464,11838 5570,12577 5677,13478 5783,14117 5889,14633 5996,14352 6102,14946 6209,15389 6315,15947 6421,16178 6528,16321 6634,16619 6740,17210 6847,17440 6953,17788 7059,17932 7166,18140 7272,18285 7378,18433 7485,18829 7591,18914 7697,18968 7804,19102 7910,19341 8016,19527 8123,19621 8229,19697 8336,19941 8442,20321 8548,20324 8655,20458 8761,20582 8867,20512 8974,20546 9080,20655 9186,20476 9293,20796 9399,20730 9505,20606 9612,20590 9718,20657 9824,20547 9931,20592 10037,20867 10144,20942 10250,21044 10356,21116 10463,21202 10569,20986 10675,21018 10782,20665 10888,20744 10994,20789 11101,20874 11207,20849 11313,21196 11420,21280 11526,21309 11632,21258 11739,21243 11844,21173 11951,21178 12057,21169 12163,21159 12270,21114 12376,21156 12482,21121 12589,21156 12695,21176 12801,21204 12908,21191 13014,21231 13120,21180 13227,21194 13333,21177 13439,21166 13546,21066 13652,21002 13758,20985 13865,20965 13971,20936 14078,20956 14184,20894 14290,20889 14397,20826 14503,20720 14609,20704 14716,20719 14822,20728 14928,20739 15035,20660 15141,20647 15247,20504 15354,20463 15460,20276 15566,20193 15673,20009 15779,19935 15886,19838 15992,19825 16098,19594 16205,19588 16311,19540 16417,19554 16524,19422 16630,19165 16736,18865 16843,18511 16949,17918 17055,17405 17162,17025 17268,16447 17374,16004 17481,15612 17587,15339 17694,15247 17800,15239 17906,15184 18013,15253 18119,15300 18225,15126 18332,14970 18438,15061 18544,14969"/>
 <path fill="none" stroke="rgb(112,110,12)" stroke-width="80" stroke-linejoin="round" stroke-dasharray="80,40" d="M 5024,1551 L 5039,1865 5145,3150 5251,3967 5358,5498 5464,6572 5570,7452 5677,8970 5783,9882 5889,10555 5996,11161 6102,11650 6209,12463 6315,12662 6421,12926 6528,13229 6634,13527 6740,13537 6847,13992 6953,14233 7059,14940 7166,15379 7272,15595 7378,15619 7485,15885 7591,16145 7697,16369 7804,16482 7910,16740 8016,17040 8123,17235 8229,17103 8336,17168 8442,17601 8548,17891 8655,18058 8761,18256 8867,18400 8974,18775 9080,18991 9186,19174 9293,19323 9399,19438 9505,19492 9612,19543 9718,19576 9824,19640 9931,19709 10037,19729 10144,19845 10250,19865 10356,19906 10463,19929 10569,19925 10675,19858 10782,19858 10888,19870 10994,19900 11101,19990 11207,20033 11313,20013 11420,19950 11526,19895 11632,19887 11739,19935 11844,19870 11951,19839 12057,19808 12163,19967 12270,20042 12376,20044 12482,19972 12589,19955 12695,19789 12801,19721 12908,19628 13014,19639 13120,19631 13227,19727 13333,19750 13439,19785 13546,19856 13652,19839 13758,19855 13865,19862 13971,19848 14078,19805 14184,19975 14290,19974 14397,19996 14503,20055 14609,20058 14716,20064 14822,20099 14928,19995 15035,20039 15141,20080 15247,20049 15354,20078 15460,20089 15566,20126 15673,20170 15779,20141 15886,20128 15992,20125 16098,20114 16205,20071 16311,20107 16417,20117 16524,20154 16630,20225 16736,20238 16843,20281 16949,20301 17055,20303 17162,20319 17268,20354 17374,20264 17481,20303 17587,20315 17694,20257 17800,20139 17906,20081 18013,20016 18119,19973 18225,19867 18332,19791 18438,19780 18544,19849"/>
 <text class="TextShape" transform="rotate(-90 1517 23342)"><tspan class="TextParagraph" font-family="Liberation Sans, sans-serif" font-size="282px" font-weight="400"><tspan class="TextPosition" x="1517" y="23342"><tspan fill="rgb(0,0,0)" stroke="none">30.03</tspan></tspan></tspan></text>
 <text class="TextShape" transform="rotate(-90 2261 23342)"><tspan class="TextParagraph" font-family="Liberation Sans, sans-serif" font-size="282px" font-weight="400"><tspan class="TextPosition" x="2261" y="23342"><tspan fill="rgb(0,0,0)" stroke="none">06.04</tspan></tspan></tspan></text>
 <text class="TextShape" transform="rotate(-90 3006 23342)"><tspan class="TextParagraph" font-family="Liberation Sans, sans-serif" font-size="282px" font-weight="400"><tspan class="TextPosition" x="3006" y="23342"><tspan fill="rgb(0,0,0)" stroke="none">13.04</tspan></tspan></tspan></text>
 <text class="TextShape" transform="rotate(-90 3750 23342)"><tspan class="TextParagraph" font-family="Liberation Sans, sans-serif" font-size="282px" font-weight="400"><tspan class="TextPosition" x="3750" y="23342"><tspan fill="rgb(0,0,0)" stroke="none">20.04</tspan></tspan></tspan></text>
 <text class="TextShape" transform="rotate(-90 4495 23342)"><tspan class="TextParagraph" font-family="Liberation Sans, sans-serif" font-size="282px" font-weight="400"><tspan class="TextPosition" x="4495" y="23342"><tspan fill="rgb(0,0,0)" stroke="none">27.04</tspan></tspan></tspan></text>
 <text class="TextShape" transform="rotate(-90 5239 23342)"><tspan class="TextParagraph" font-family="Liberation Sans, sans-serif" font-size="282px" font-weight="400"><tspan class="TextPosition" x="5239" y="23342"><tspan fill="rgb(0,0,0)" stroke="none">04.05</tspan></tspan></tspan></text>
 <text class="TextShape" transform="rotate(-90 5983 23342)"><tspan class="TextParagraph" font-family="Liberation Sans, sans-serif" font-size="282px" font-weight="400"><tspan class="TextPosition" x="5983" y="23342"><tspan fill="rgb(0,0,0)" stroke="none">11.05</tspan></tspan></tspan></text>
 <text class="TextShape" transform="rotate(-90 6728 23342)"><tspan class="TextParagraph" font-family="Liberation Sans, sans-serif" font-size="282px" font-weight="400"><tspan class="TextPosition" x="6728" y="23342"><tspan fill="rgb(0,0,0)" stroke="none">18.05</tspan></tspan></tspan></text>
 <text class="TextShape" transform="rotate(-90 7472 23342)"><tspan class="TextParagraph" font-family="Liberation Sans, sans-serif" font-size="282px" font-weight="400"><tspan class="TextPosition" x="7472" y="23342"><tspan fill="rgb(0,0,0)" stroke="none">25.05</tspan></tspan></tspan></text>
 <text class="TextShape" transform="rotate(-90 8217 23342)"><tspan class="TextParagraph" font-family="Liberation Sans, sans-serif" font-size="282px" font-weight="400"><tspan class="TextPosition" x="8217" y="23342"><tspan fill="rgb(0,0,0)" stroke="none">01.06</tspan></tspan></tspan></text>
 <text class="TextShape" transform="rotate(-90 8961 23342)"><tspan class="TextParagraph" font-family="Liberation Sans, sans-serif" font-size="282px" font-weight="400"><tspan class="TextPosition" x="8961" y="23342"><tspan fill="rgb(0,0,0)" stroke="none">08.06</tspan></tspan></tspan></text>
 <text class="TextShape" transform="rotate(-90 9706 23342)"><tspan class="TextParagraph" font-family="Liberation Sans, sans-serif" font-size="282px" font-weight="400"><tspan class="TextPosition" x="9706" y="23342"><tspan fill="rgb(0,0,0)" stroke="none">15.06</tspan></tspan></tspan></text>
 <text class="TextShape" transform="rotate(-90 10450 23342)"><tspan class="TextParagraph" font-family="Liberation Sans, sans-serif" font-size="282px" font-weight="400"><tspan class="TextPosition" x="10450" y="23342"><tspan fill="rgb(0,0,0)" stroke="none">22.06</tspan></tspan></tspan></text>
 <text class="TextShape" transform="rotate(-90 11195 23342)"><tspan class="TextParagraph" font-family="Liberation Sans, sans-serif" font-size="282px" font-weight="400"><tspan class="TextPosition" x="11195" y="23342"><tspan fill="rgb(0,0,0)" stroke="none">29.06</tspan></tspan></tspan></text>
 <text class="TextShape" transform="rotate(-90 11938 23342)"><tspan class="TextParagraph" font-family="Liberation Sans, sans-serif" font-size="282px" font-weight="400"><tspan class="TextPosition" x="11938" y="23342"><tspan fill="rgb(0,0,0)" stroke="none">06.07</tspan></tspan></tspan></text>
 <text class="TextShape" transform="rotate(-90 12683 23342)"><tspan class="TextParagraph" font-family="Liberation Sans, sans-serif" font-size="282px" font-weight="400"><tspan class="TextPosition" x="12683" y="23342"><tspan fill="rgb(0,0,0)" stroke="none">13.07</tspan></tspan></tspan></text>
 <text class="TextShape" transform="rotate(-90 13427 23342)"><tspan class="TextParagraph" font-family="Liberation Sans, sans-serif" font-size="282px" font-weight="400"><tspan class="TextPosition" x="13427" y="23342"><tspan fill="rgb(0,0,0)" stroke="none">20.07</tspan></tspan></tspan></text>
 <text class="TextShape" transform="rotate(-90 14172 23342)"><tspan class="TextParagraph" font-family="Liberation Sans, sans-serif" font-size="282px" font-weight="400"><tspan class="TextPosition" x="14172" y="23342"><tspan fill="rgb(0,0,0)" stroke="none">27.07</tspan></tspan></tspan></text>
 <text class="TextShape" transform="rotate(-90 14916 23342)"><tspan class="TextParagraph" font-family="Liberation Sans, sans-serif" font-size="282px" font-weight="400"><tspan class="TextPosition" x="14916" y="23342"><tspan fill="rgb(0,0,0)" stroke="none">03.08</tspan></tspan></tspan></text>
 <text class="TextShape" transform="rotate(-90 15660 23342)"><tspan class="TextParagraph" font-family="Liberation Sans, sans-serif" font-size="282px" font-weight="400"><tspan class="TextPosition" x="15660" y="23342"><tspan fill="rgb(0,0,0)" stroke="none">10.08</tspan></tspan></tspan></text>
 <text class="TextShape" transform="rotate(-90 16405 23342)"><tspan class="TextParagraph" font-family="Liberation Sans, sans-serif" font-size="282px" font-weight="400"><tspan class="TextPosition" x="16405" y="23342"><tspan fill="rgb(0,0,0)" stroke="none">17.08</tspan></tspan></tspan></text>
 <text class="TextShape" transform="rotate(-90 17149 23342)"><tspan class="TextParagraph" font-family="Liberation Sans, sans-serif" font-size="282px" font-weight="400"><tspan class="TextPosition" x="17149" y="23342"><tspan fill="rgb(0,0,0)" stroke="none">24.08</tspan></tspan></tspan></text>
 <text class="TextShape" transform="rotate(-90 17894 23342)"><tspan class="TextParagraph" font-family="Liberation Sans, sans-serif" font-size="282px" font-weight="400"><tspan class="TextPosition" x="17894" y="23342"><tspan fill="rgb(0,0,0)" stroke="none">31.08</tspan></tspan></tspan></text>
 <text class="TextShape" transform="rotate(-90 18638 23342)"><tspan class="TextParagraph" font-family="Liberation Sans, sans-serif" font-size="282px" font-weight="400"><tspan class="TextPosition" x="18638" y="23342"><tspan fill="rgb(0,0,0)" stroke="none">07.09</tspan></tspan></tspan></text>
 <text class="TextShape"><tspan class="TextParagraph" font-family="Liberation Sans, sans-serif" font-size="388px" font-weight="400"><tspan class="TextPosition" x="347" y="22504"><tspan fill="rgb(0,0,0)" stroke="none">1,00</tspan></tspan></tspan></text>
 <text class="TextShape"><tspan class="TextParagraph" font-family="Liberation Sans, sans-serif" font-size="388px" font-weight="400"><tspan class="TextPosition" x="347" y="20421"><tspan fill="rgb(0,0,0)" stroke="none">1,01</tspan></tspan></tspan></text>
 <text class="TextShape"><tspan class="TextParagraph" font-family="Liberation Sans, sans-serif" font-size="388px" font-weight="400"><tspan class="TextPosition" x="347" y="18339"><tspan fill="rgb(0,0,0)" stroke="none">1,02</tspan></tspan></tspan></text>
 <text class="TextShape"><tspan class="TextParagraph" font-family="Liberation Sans, sans-serif" font-size="388px" font-weight="400"><tspan class="TextPosition" x="347" y="16257"><tspan fill="rgb(0,0,0)" stroke="none">1,03</tspan></tspan></tspan></text>
 <text class="TextShape"><tspan class="TextParagraph" font-family="Liberation Sans, sans-serif" font-size="388px" font-weight="400"><tspan class="TextPosition" x="347" y="14175"><tspan fill="rgb(0,0,0)" stroke="none">1,04</tspan></tspan></tspan></text>
 <text class="TextShape"><tspan class="TextParagraph" font-family="Liberation Sans, sans-serif" font-size="388px" font-weight="400"><tspan class="TextPosition" x="347" y="12093"><tspan fill="rgb(0,0,0)" stroke="none">1,05</tspan></tspan></tspan></text>
 <text class="TextShape"><tspan class="TextParagraph" font-family="Liberation Sans, sans-serif" font-size="388px" font-weight="400"><tspan class="TextPosition" x="347" y="10011"><tspan fill="rgb(0,0,0)" stroke="none">1,06</tspan></tspan></tspan></text>
 <text class="TextShape"><tspan class="TextParagraph" font-family="Liberation Sans, sans-serif" font-size="388px" font-weight="400"><tspan class="TextPosition" x="347" y="7929"><tspan fill="rgb(0,0,0)" stroke="none">1,07</tspan></tspan></tspan></text>
 <text class="TextShape"><tspan class="TextParagraph" font-family="Liberation Sans, sans-serif" font-size="388px" font-weight="400"><tspan class="TextPosition" x="347" y="5847"><tspan fill="rgb(0,0,0)" stroke="none">1,08</tspan></tspan></tspan></text>
 <text class="TextShape"><tspan class="TextParagraph" font-family="Liberation Sans, sans-serif" font-size="388px" font-weight="400"><tspan class="TextPosition" x="347" y="3765"><tspan fill="rgb(0,0,0)" stroke="none">1,09</tspan></tspan></tspan></text>
 <text class="TextShape"><tspan class="TextParagraph" font-family="Liberation Sans, sans-serif" font-size="388px" font-weight="400"><tspan class="TextPosition" x="347" y="1683"><tspan fill="rgb(0,0,0)" stroke="none">1,10</tspan></tspan></tspan></text>
 <text class="TextShape"><tspan class="TextParagraph" font-family="Liberation Sans, sans-serif" font-size="494px" font-weight="700"><tspan class="TextPosition" x="673" y="984"><tspan fill="rgb(0,0,0)" stroke="none">Tdenn koeficient celkovho potu infikovanch (mtko do 1,1)</tspan></tspan></tspan></text>
 <path fill="none" stroke="rgb(128,0,128)" stroke-width="80" stroke-linejoin="round" stroke-dasharray="158,158" d="M 18797,1853 L 20397,1853"/>
 <path fill="none" stroke="rgb(255,191,0)" stroke-width="80" stroke-linejoin="round" stroke-dasharray="80,40" d="M 18797,2687 L 20397,2687"/>
 <path fill="none" stroke="rgb(0,0,255)" stroke-width="80" stroke-linejoin="round" stroke-dasharray="80,40" d="M 18797,3521 L 20397,3521"/>
 <path fill="none" stroke="rgb(21,132,102)" stroke-width="80" stroke-linejoin="round" stroke-dasharray="80,203,80,203,203,203" d="M 18797,4355 L 20397,4355"/>
 <path fill="none" stroke="rgb(255,64,0)" stroke-width="80" stroke-linejoin="round" stroke-dasharray="80,40" d="M 18797,5189 L 20397,5189"/>
 <path fill="none" stroke="rgb(0,169,51)" stroke-width="80" stroke-linejoin="round" stroke-dasharray="80,40" d="M 18797,6023 L 20397,6023"/>
 <path fill="none" stroke="rgb(255,211,32)" stroke-width="80" stroke-linejoin="round" d="M 18797,6857 L 20397,6857"/>
 <path fill="none" stroke="rgb(128,0,128)" stroke-width="80" stroke-linejoin="round" d="M 18797,7691 L 20397,7691"/>
 <path fill="none" stroke="rgb(191,0,65)" stroke-width="80" stroke-linejoin="round" stroke-dasharray="80,40" d="M 18797,8525 L 20397,8525"/>
 <path fill="none" stroke="rgb(141,40,30)" stroke-width="80" stroke-linejoin="round" stroke-dasharray="80,40" d="M 18797,9359 L 20397,9359"/>
 <path fill="none" stroke="rgb(180,120,4)" stroke-width="80" stroke-linejoin="round" d="M 18797,10193 L 20397,10193"/>
 <path fill="none" stroke="rgb(0,0,255)" stroke-width="80" stroke-linejoin="round" stroke-dasharray="51,127,51,127,254,127,254,127,254,127" d="M 18797,11027 L 20397,11027"/>
 <path fill="none" stroke="rgb(0,169,51)" stroke-width="80" stroke-linejoin="round" stroke-dasharray="158,102" d="M 18797,11861 L 20397,11861"/>
 <path fill="none" stroke="rgb(0,169,51)" stroke-width="80" stroke-linejoin="round" d="M 18797,12694 L 20397,12694"/>
 <path fill="none" stroke="rgb(0,223,255)" stroke-width="80" stroke-linejoin="round" stroke-dasharray="158,102" d="M 18797,13528 L 20397,13528"/>
 <path fill="none" stroke="rgb(0,255,0)" stroke-width="80" stroke-linejoin="round" d="M 18797,14362 L 20397,14362"/>
 <path fill="none" stroke="rgb(89,131,176)" stroke-width="80" stroke-linejoin="round" d="M 18797,15196 L 20397,15196"/>
 <path fill="none" stroke="rgb(52,42,6)" stroke-width="80" stroke-linejoin="round" d="M 18797,16030 L 20397,16030"/>
 <path fill="none" stroke="rgb(255,0,0)" stroke-width="80" stroke-linejoin="round" stroke-dasharray="158,102" d="M 18797,16864 L 20397,16864"/>
 <path fill="none" stroke="rgb(0,0,255)" stroke-width="80" stroke-linejoin="round" stroke-dasharray="158,158" d="M 18797,17698 L 20397,17698"/>
 <path fill="none" stroke="rgb(241,13,12)" stroke-width="80" stroke-linejoin="round" d="M 18797,18532 L 20397,18532"/>
 <path fill="none" stroke="rgb(85,48,141)" stroke-width="80" stroke-linejoin="round" stroke-dasharray="80,40" d="M 18797,19366 L 20397,19366"/>
 <path fill="none" stroke="rgb(255,128,0)" stroke-width="80" stroke-linejoin="round" d="M 18797,20200 L 20397,20200"/>
 <path fill="none" stroke="rgb(0,127,255)" stroke-width="80" stroke-linejoin="round" d="M 18797,21034 L 20397,21034"/>
 <path fill="none" stroke="rgb(112,110,12)" stroke-width="80" stroke-linejoin="round" stroke-dasharray="80,40" d="M 18797,21868 L 20397,21868"/>
 <text class="TextShape"><tspan class="TextParagraph" font-family="Liberation Sans, sans-serif" font-size="423px" font-weight="400"><tspan class="TextPosition" x="20497" y="2001"><tspan fill="rgb(0,0,0)" stroke="none">Indie</tspan></tspan></tspan></text>
 <text class="TextShape"><tspan class="TextParagraph" font-family="Liberation Sans, sans-serif" font-size="423px" font-weight="400"><tspan class="TextPosition" x="20497" y="2835"><tspan fill="rgb(0,0,0)" stroke="none">Stt Kalifornie</tspan></tspan></tspan></text>
 <text class="TextShape"><tspan class="TextParagraph" font-family="Liberation Sans, sans-serif" font-size="423px" font-weight="400"><tspan class="TextPosition" x="20497" y="3669"><tspan fill="rgb(0,0,0)" stroke="none">Stt Texas</tspan></tspan></tspan></text>
 <text class="TextShape"><tspan class="TextParagraph" font-family="Liberation Sans, sans-serif" font-size="423px" font-weight="400"><tspan class="TextPosition" x="20497" y="4503"><tspan fill="rgb(0,0,0)" stroke="none">celosvtov</tspan></tspan></tspan></text>
 <text class="TextShape"><tspan class="TextParagraph" font-family="Liberation Sans, sans-serif" font-size="423px" font-weight="400"><tspan class="TextPosition" x="20497" y="5337"><tspan fill="rgb(0,0,0)" stroke="none">Brazlie</tspan></tspan></tspan></text>
 <text class="TextShape"><tspan class="TextParagraph" font-family="Liberation Sans, sans-serif" font-size="423px" font-weight="400"><tspan class="TextPosition" x="20497" y="6171"><tspan fill="rgb(0,0,0)" stroke="none">Mexiko</tspan></tspan></tspan></text>
 <text class="TextShape"><tspan class="TextParagraph" font-family="Liberation Sans, sans-serif" font-size="423px" font-weight="400"><tspan class="TextPosition" x="20497" y="7005"><tspan fill="rgb(0,0,0)" stroke="none">esko</tspan></tspan></tspan></text>
 <text class="TextShape"><tspan class="TextParagraph" font-family="Liberation Sans, sans-serif" font-size="423px" font-weight="400"><tspan class="TextPosition" x="20497" y="7839"><tspan fill="rgb(0,0,0)" stroke="none">panlsko</tspan></tspan></tspan></text>
 <text class="TextShape"><tspan class="TextParagraph" font-family="Liberation Sans, sans-serif" font-size="423px" font-weight="400"><tspan class="TextPosition" x="20497" y="8673"><tspan fill="rgb(0,0,0)" stroke="none">Stt Florida</tspan></tspan></tspan></text>
 <text class="TextShape"><tspan class="TextParagraph" font-family="Liberation Sans, sans-serif" font-size="423px" font-weight="400"><tspan class="TextPosition" x="20497" y="9507"><tspan fill="rgb(0,0,0)" stroke="none">USA</tspan></tspan></tspan></text>
 <text class="TextShape"><tspan class="TextParagraph" font-family="Liberation Sans, sans-serif" font-size="423px" font-weight="400"><tspan class="TextPosition" x="20497" y="10341"><tspan fill="rgb(0,0,0)" stroke="none">Dnsko</tspan></tspan></tspan></text>
 <text class="TextShape"><tspan class="TextParagraph" font-family="Liberation Sans, sans-serif" font-size="423px" font-weight="400"><tspan class="TextPosition" x="20497" y="11175"><tspan fill="rgb(0,0,0)" stroke="none">EU</tspan></tspan></tspan></text>
 <text class="TextShape"><tspan class="TextParagraph" font-family="Liberation Sans, sans-serif" font-size="423px" font-weight="400"><tspan class="TextPosition" x="20497" y="12008"><tspan fill="rgb(0,0,0)" stroke="none">rn</tspan></tspan></tspan></text>
 <text class="TextShape"><tspan class="TextParagraph" font-family="Liberation Sans, sans-serif" font-size="423px" font-weight="400"><tspan class="TextPosition" x="20497" y="12842"><tspan fill="rgb(0,0,0)" stroke="none">Rakousko</tspan></tspan></tspan></text>
 <text class="TextShape"><tspan class="TextParagraph" font-family="Liberation Sans, sans-serif" font-size="423px" font-weight="400"><tspan class="TextPosition" x="20497" y="13676"><tspan fill="rgb(0,0,0)" stroke="none">Rusko</tspan></tspan></tspan></text>
 <text class="TextShape"><tspan class="TextParagraph" font-family="Liberation Sans, sans-serif" font-size="423px" font-weight="400"><tspan class="TextPosition" x="20497" y="14510"><tspan fill="rgb(0,0,0)" stroke="none">vcarsko</tspan></tspan></tspan></text>
 <text class="TextShape"><tspan class="TextParagraph" font-family="Liberation Sans, sans-serif" font-size="423px" font-weight="400"><tspan class="TextPosition" x="20497" y="15344"><tspan fill="rgb(0,0,0)" stroke="none">Norsko</tspan></tspan></tspan></text>
 <text class="TextShape"><tspan class="TextParagraph" font-family="Liberation Sans, sans-serif" font-size="423px" font-weight="400"><tspan class="TextPosition" x="20497" y="16178"><tspan fill="rgb(0,0,0)" stroke="none">Nmecko</tspan></tspan></tspan></text>
 <text class="TextShape"><tspan class="TextParagraph" font-family="Liberation Sans, sans-serif" font-size="423px" font-weight="400"><tspan class="TextPosition" x="20497" y="17012"><tspan fill="rgb(0,0,0)" stroke="none">Turecko</tspan></tspan></tspan></text>
 <text class="TextShape"><tspan class="TextParagraph" font-family="Liberation Sans, sans-serif" font-size="423px" font-weight="400"><tspan class="TextPosition" x="20497" y="17846"><tspan fill="rgb(0,0,0)" stroke="none">Jin Korea</tspan></tspan></tspan></text>
 <text class="TextShape"><tspan class="TextParagraph" font-family="Liberation Sans, sans-serif" font-size="423px" font-weight="400"><tspan class="TextPosition" x="20497" y="18680"><tspan fill="rgb(0,0,0)" stroke="none">vdsko</tspan></tspan></tspan></text>
 <text class="TextShape"><tspan class="TextParagraph" font-family="Liberation Sans, sans-serif" font-size="423px" font-weight="400"><tspan class="TextPosition" x="20497" y="19514"><tspan fill="rgb(0,0,0)" stroke="none">Kanada</tspan></tspan></tspan></text>
 <text class="TextShape"><tspan class="TextParagraph" font-family="Liberation Sans, sans-serif" font-size="423px" font-weight="400"><tspan class="TextPosition" x="20497" y="20348"><tspan fill="rgb(0,0,0)" stroke="none">Velk Britnie</tspan></tspan></tspan></text>
 <text class="TextShape"><tspan class="TextParagraph" font-family="Liberation Sans, sans-serif" font-size="423px" font-weight="400"><tspan class="TextPosition" x="20497" y="21182"><tspan fill="rgb(0,0,0)" stroke="none">Itlie</tspan></tspan></tspan></text>
 <text class="TextShape"><tspan class="TextParagraph" font-family="Liberation Sans, sans-serif" font-size="423px" font-weight="400"><tspan class="TextPosition" x="20497" y="22016"><tspan fill="rgb(0,0,0)" stroke="none">Stt New York</tspan></tspan></tspan></text>
</svg>