<?xml version="1.0" encoding="UTF-8"?>
<!DOCTYPE svg PUBLIC "-//W3C//DTD SVG 1.1//EN" "http://www.w3.org/Graphics/SVG/1.1/DTD/svg11.dtd">
<svg width="236mm" height="250mm" viewBox="0 0 23600 25000" version="1.1" xmlns="http://www.w3.org/2000/svg" xmlns:xlink="http://www.w3.org/1999/xlink" stroke-width="28.222" stroke-linejoin="round" xml:space="preserve">
 <path fill="rgb(255,255,255)" stroke="none" d="M 11800,25000 L 0,25000 0,0 23600,0 23600,25000 11800,25000 Z"/>
 <path fill="none" stroke="rgb(179,179,179)" stroke-linejoin="round" d="M 9984,23488 L 1370,23488 1370,1630 18598,1630 18598,23488 9984,23488 Z"/>
 <path fill="none" stroke="rgb(179,179,179)" stroke-linejoin="round" d="M 18598,23487 L 1370,23487"/>
 <path fill="none" stroke="rgb(179,179,179)" stroke-linejoin="round" d="M 18598,21301 L 1370,21301"/>
 <path fill="none" stroke="rgb(179,179,179)" stroke-linejoin="round" d="M 18598,19115 L 1370,19115"/>
 <path fill="none" stroke="rgb(179,179,179)" stroke-linejoin="round" d="M 18598,16929 L 1370,16929"/>
 <path fill="none" stroke="rgb(179,179,179)" stroke-linejoin="round" d="M 18598,14743 L 1370,14743"/>
 <path fill="none" stroke="rgb(179,179,179)" stroke-linejoin="round" d="M 18598,12557 L 1370,12557"/>
 <path fill="none" stroke="rgb(179,179,179)" stroke-linejoin="round" d="M 18598,10372 L 1370,10372"/>
 <path fill="none" stroke="rgb(179,179,179)" stroke-linejoin="round" d="M 18598,8186 L 1370,8186"/>
 <path fill="none" stroke="rgb(179,179,179)" stroke-linejoin="round" d="M 18598,6000 L 1370,6000"/>
 <path fill="none" stroke="rgb(179,179,179)" stroke-linejoin="round" d="M 18598,3814 L 1370,3814"/>
 <path fill="none" stroke="rgb(179,179,179)" stroke-linejoin="round" d="M 18598,1629 L 1370,1629"/>
 <path fill="none" stroke="rgb(179,179,179)" stroke-linejoin="round" d="M 1370,23637 L 1370,23487"/>
 <path fill="none" stroke="rgb(179,179,179)" stroke-linejoin="round" d="M 1370,23637 L 1370,23487"/>
 <path fill="none" stroke="rgb(179,179,179)" stroke-linejoin="round" d="M 2270,23637 L 2270,23487"/>
 <path fill="none" stroke="rgb(179,179,179)" stroke-linejoin="round" d="M 2270,23637 L 2270,23487"/>
 <path fill="none" stroke="rgb(179,179,179)" stroke-linejoin="round" d="M 3170,23637 L 3170,23487"/>
 <path fill="none" stroke="rgb(179,179,179)" stroke-linejoin="round" d="M 3170,23637 L 3170,23487"/>
 <path fill="none" stroke="rgb(179,179,179)" stroke-linejoin="round" d="M 4070,23637 L 4070,23487"/>
 <path fill="none" stroke="rgb(179,179,179)" stroke-linejoin="round" d="M 4070,23637 L 4070,23487"/>
 <path fill="none" stroke="rgb(179,179,179)" stroke-linejoin="round" d="M 4970,23637 L 4970,23487"/>
 <path fill="none" stroke="rgb(179,179,179)" stroke-linejoin="round" d="M 4970,23637 L 4970,23487"/>
 <path fill="none" stroke="rgb(179,179,179)" stroke-linejoin="round" d="M 5870,23637 L 5870,23487"/>
 <path fill="none" stroke="rgb(179,179,179)" stroke-linejoin="round" d="M 5870,23637 L 5870,23487"/>
 <path fill="none" stroke="rgb(179,179,179)" stroke-linejoin="round" d="M 6770,23637 L 6770,23487"/>
 <path fill="none" stroke="rgb(179,179,179)" stroke-linejoin="round" d="M 6770,23637 L 6770,23487"/>
 <path fill="none" stroke="rgb(179,179,179)" stroke-linejoin="round" d="M 7670,23637 L 7670,23487"/>
 <path fill="none" stroke="rgb(179,179,179)" stroke-linejoin="round" d="M 7670,23637 L 7670,23487"/>
 <path fill="none" stroke="rgb(179,179,179)" stroke-linejoin="round" d="M 8570,23637 L 8570,23487"/>
 <path fill="none" stroke="rgb(179,179,179)" stroke-linejoin="round" d="M 8570,23637 L 8570,23487"/>
 <path fill="none" stroke="rgb(179,179,179)" stroke-linejoin="round" d="M 9470,23637 L 9470,23487"/>
 <path fill="none" stroke="rgb(179,179,179)" stroke-linejoin="round" d="M 9470,23637 L 9470,23487"/>
 <path fill="none" stroke="rgb(179,179,179)" stroke-linejoin="round" d="M 10370,23637 L 10370,23487"/>
 <path fill="none" stroke="rgb(179,179,179)" stroke-linejoin="round" d="M 10370,23637 L 10370,23487"/>
 <path fill="none" stroke="rgb(179,179,179)" stroke-linejoin="round" d="M 11270,23637 L 11270,23487"/>
 <path fill="none" stroke="rgb(179,179,179)" stroke-linejoin="round" d="M 11270,23637 L 11270,23487"/>
 <path fill="none" stroke="rgb(179,179,179)" stroke-linejoin="round" d="M 12169,23637 L 12169,23487"/>
 <path fill="none" stroke="rgb(179,179,179)" stroke-linejoin="round" d="M 12169,23637 L 12169,23487"/>
 <path fill="none" stroke="rgb(179,179,179)" stroke-linejoin="round" d="M 13069,23637 L 13069,23487"/>
 <path fill="none" stroke="rgb(179,179,179)" stroke-linejoin="round" d="M 13069,23637 L 13069,23487"/>
 <path fill="none" stroke="rgb(179,179,179)" stroke-linejoin="round" d="M 13969,23637 L 13969,23487"/>
 <path fill="none" stroke="rgb(179,179,179)" stroke-linejoin="round" d="M 13969,23637 L 13969,23487"/>
 <path fill="none" stroke="rgb(179,179,179)" stroke-linejoin="round" d="M 14869,23637 L 14869,23487"/>
 <path fill="none" stroke="rgb(179,179,179)" stroke-linejoin="round" d="M 14869,23637 L 14869,23487"/>
 <path fill="none" stroke="rgb(179,179,179)" stroke-linejoin="round" d="M 15769,23637 L 15769,23487"/>
 <path fill="none" stroke="rgb(179,179,179)" stroke-linejoin="round" d="M 15769,23637 L 15769,23487"/>
 <path fill="none" stroke="rgb(179,179,179)" stroke-linejoin="round" d="M 16669,23637 L 16669,23487"/>
 <path fill="none" stroke="rgb(179,179,179)" stroke-linejoin="round" d="M 16669,23637 L 16669,23487"/>
 <path fill="none" stroke="rgb(179,179,179)" stroke-linejoin="round" d="M 17569,23637 L 17569,23487"/>
 <path fill="none" stroke="rgb(179,179,179)" stroke-linejoin="round" d="M 17569,23637 L 17569,23487"/>
 <path fill="none" stroke="rgb(179,179,179)" stroke-linejoin="round" d="M 18469,23637 L 18469,23487"/>
 <path fill="none" stroke="rgb(179,179,179)" stroke-linejoin="round" d="M 18469,23637 L 18469,23487"/>
 <path fill="none" stroke="rgb(179,179,179)" stroke-linejoin="round" d="M 1370,23487 L 18598,23487"/>
 <path fill="none" stroke="rgb(179,179,179)" stroke-linejoin="round" d="M 1220,23487 L 1370,23487"/>
 <path fill="none" stroke="rgb(179,179,179)" stroke-linejoin="round" d="M 1220,23487 L 1370,23487"/>
 <path fill="none" stroke="rgb(179,179,179)" stroke-linejoin="round" d="M 1220,21301 L 1370,21301"/>
 <path fill="none" stroke="rgb(179,179,179)" stroke-linejoin="round" d="M 1220,21301 L 1370,21301"/>
 <path fill="none" stroke="rgb(179,179,179)" stroke-linejoin="round" d="M 1220,19115 L 1370,19115"/>
 <path fill="none" stroke="rgb(179,179,179)" stroke-linejoin="round" d="M 1220,19115 L 1370,19115"/>
 <path fill="none" stroke="rgb(179,179,179)" stroke-linejoin="round" d="M 1220,16929 L 1370,16929"/>
 <path fill="none" stroke="rgb(179,179,179)" stroke-linejoin="round" d="M 1220,16929 L 1370,16929"/>
 <path fill="none" stroke="rgb(179,179,179)" stroke-linejoin="round" d="M 1220,14743 L 1370,14743"/>
 <path fill="none" stroke="rgb(179,179,179)" stroke-linejoin="round" d="M 1220,14743 L 1370,14743"/>
 <path fill="none" stroke="rgb(179,179,179)" stroke-linejoin="round" d="M 1220,12557 L 1370,12557"/>
 <path fill="none" stroke="rgb(179,179,179)" stroke-linejoin="round" d="M 1220,12557 L 1370,12557"/>
 <path fill="none" stroke="rgb(179,179,179)" stroke-linejoin="round" d="M 1220,10372 L 1370,10372"/>
 <path fill="none" stroke="rgb(179,179,179)" stroke-linejoin="round" d="M 1220,10372 L 1370,10372"/>
 <path fill="none" stroke="rgb(179,179,179)" stroke-linejoin="round" d="M 1220,8186 L 1370,8186"/>
 <path fill="none" stroke="rgb(179,179,179)" stroke-linejoin="round" d="M 1220,8186 L 1370,8186"/>
 <path fill="none" stroke="rgb(179,179,179)" stroke-linejoin="round" d="M 1220,6000 L 1370,6000"/>
 <path fill="none" stroke="rgb(179,179,179)" stroke-linejoin="round" d="M 1220,6000 L 1370,6000"/>
 <path fill="none" stroke="rgb(179,179,179)" stroke-linejoin="round" d="M 1220,3814 L 1370,3814"/>
 <path fill="none" stroke="rgb(179,179,179)" stroke-linejoin="round" d="M 1220,3814 L 1370,3814"/>
 <path fill="none" stroke="rgb(179,179,179)" stroke-linejoin="round" d="M 1220,1629 L 1370,1629"/>
 <path fill="none" stroke="rgb(179,179,179)" stroke-linejoin="round" d="M 1220,1629 L 1370,1629"/>
 <path fill="none" stroke="rgb(179,179,179)" stroke-linejoin="round" d="M 1370,23487 L 1370,1629"/>
 <path fill="none" stroke="rgb(128,0,128)" stroke-width="80" stroke-linejoin="round" stroke-dasharray="158,158" d="M 6722,1629 L 6834,2805 6962,3591 7091,4381 7220,4109 7348,4912 7477,5226 7605,4549 7734,4459 7863,4171 7991,3607 8120,3822 8248,3918 8377,4043 8505,5291 8634,5514 8763,6049 8891,6428 9020,6721 9148,7055 9277,7376 9405,7137 9534,7244 9663,7276 9791,7689 9920,7908 10048,8149 10177,8599 10305,8938 10434,9418 10563,9831 10691,10010 10820,10317 10948,10764 11077,10802 11205,11152 11334,11232 11463,11292 11591,11312 11720,11291 11847,11275 11976,11112 12104,10879 12233,10840 12362,10865 12490,10882 12619,10876 12747,10840 12876,10912 13005,11096 13133,11333 13262,11440 13390,11517 13519,11558 13647,11600 13776,11701 13905,11769 14033,11727 14162,11728 14290,11848 14419,12034 14547,12151 14676,12122 14805,12078 14933,12003 15062,11920 15190,11869 15319,11741 15447,11543 15576,11502 15705,11491 15833,11307 15962,11107 16090,10952 16219,11000 16347,11078 16476,11200 16605,11080 16733,11377 16862,11723 16990,11750 17119,11969 17247,12279 17376,12391 17505,12738 17633,12914 17762,12994 17890,13366 18019,13441 18147,13515 18276,13759 18405,13833 18533,13871"/>
 <path fill="none" stroke="rgb(255,64,0)" stroke-width="80" stroke-linejoin="round" stroke-dasharray="80,40" d="M 6876,1629 L 6962,1788 7091,1643 7220,1791 7348,2426 7446,1629"/>
 <path fill="none" stroke="rgb(255,64,0)" stroke-width="80" stroke-linejoin="round" stroke-dasharray="80,40" d="M 8010,1629 L 8120,2166 8203,1629"/>
 <path fill="none" stroke="rgb(255,64,0)" stroke-width="80" stroke-linejoin="round" stroke-dasharray="80,40" d="M 8270,1629 L 8377,3024 8505,4299 8634,5459 8763,5420 8891,5747 9020,4480 9148,5236 9277,5815 9405,5143 9534,5208 9663,5860 9791,6514 9920,8190 10048,8465 10177,8460 10305,8994 10434,9384 10563,10130 10691,11096 10820,11944 10948,12373 11077,12310 11205,12627 11334,13131 11463,13940 11591,12720 11720,12330 11847,12617 11976,12747 12104,12940 12233,12813 12362,12315 12490,13241 12619,13409 12747,12962 12876,13145 13005,13715 13133,13919 13262,13920 13390,14430 13519,14723 13647,15065 13776,15336 13905,15175 14033,15508 14162,15924 14290,16052 14419,16200 14547,16352 14676,16439 14805,16721 14933,17015 15062,17103 15190,17527 15319,17902 15447,18007 15576,18067 15705,18204 15833,17690 15962,17505 16090,17141 16219,16751 16347,16805 16476,16806 16605,16937 16733,17113 16862,17320 16990,17533 17119,17765 17247,17801 17376,17974 17505,17875 17633,18231 17762,18426 17890,18561 18019,18570 18147,18661 18276,18604 18405,18685 18533,18812"/>
 <path fill="none" stroke="rgb(0,169,51)" stroke-width="80" stroke-linejoin="round" stroke-dasharray="80,40" d="M 6404,1629 L 6448,1972 6577,3437 6705,2827 6834,3630 6962,4328 7091,4750 7220,5608 7348,5765 7477,5067 7605,5210 7734,5637 7863,6068 7991,6503 8120,6135 8248,6255 8377,7000 8505,7227 8634,6934 8763,7464 8891,8035 9020,9111 9148,9443 9277,9758 9405,10139 9534,10480 9663,10447 9791,10366 9920,10445 10048,10739 10177,11010 10305,11371 10434,11419 10563,11783 10691,11897 10820,12302 10948,12387 11077,12507 11205,12738 11334,13128 11463,13214 11591,13659 11720,13525 11847,13451 11976,13345 12104,13169 12233,13349 12362,13579 12490,13766 12619,14104 12747,14695 12876,15095 13005,15566 13133,15730 13262,15826 13390,15754 13519,15400 13647,15423 13776,15345 13905,15381 14033,15332 14162,15463 14290,15657 14419,16014 14547,16184 14676,16357 14805,16394 14933,16709 15062,17019 15190,17118 15319,17024 15447,17000 15576,17030 15705,17203 15833,17343 15962,17190 16090,17286 16219,17537 16347,17607 16476,17719 16605,17787 16733,17914 16862,18125 16990,18130 17119,17905 17247,18054 17376,18145 17505,18355 17633,18386 17762,18601 17890,18877 18019,19287 18147,19381 18276,19347 18405,19351 18533,19434"/>
 <path fill="none" stroke="rgb(21,132,102)" stroke-width="80" stroke-linejoin="round" stroke-dasharray="80,203,80,203,203,203" d="M 2601,1629 L 2720,3109 2848,3397 2977,4586 3105,5831 3234,6904 3362,7534 3491,8366 3620,9106 3748,10247 3877,10644 4005,10976 4134,11551 4262,12240 4391,12692 4520,12829 4648,13323 4777,13706 4905,13993 5034,14266 5162,14653 5291,14925 5420,15226 5548,15360 5677,15438 5805,15567 5934,15580 6062,15711 6191,15854 6320,15982 6448,16165 6577,16319 6705,16432 6834,16662 6962,16729 7091,16832 7220,16870 7348,16968 7477,16961 7605,16958 7734,16902 7863,16954 7991,16992 8120,17032 8248,16984 8377,17116 8505,17275 8634,17407 8763,17422 8891,17427 9020,17280 9148,17290 9277,17323 9405,17203 9534,17188 9663,17260 9791,17316 9920,17469 10048,17540 10177,17582 10305,17669 10434,17677 10563,17715 10691,17838 10820,17949 10948,17905 11077,17878 11205,17871 11334,17925 11463,18016 11591,17813 11720,17790 11847,17913 11976,17900 12104,17869 12233,17812 12362,17709 12490,17777 12619,17777 12747,17697 12876,17684 13005,17748 13133,17637 13262,17610 13390,17671 13519,17707 13647,17709 13776,17759 13905,17699 14033,17841 14162,17867 14290,17855 14419,17865 14547,17916 14676,17901 14805,17960 14933,17987 15062,18003 15190,18072 15319,18090 15447,18096 15576,18129 15705,18179 15833,18110 15962,18113 16090,18083 16219,18118 16347,18202 16476,18218 16605,18245 16733,18317 16862,18417 16990,18483 17119,18576 17247,18597 17376,18728 17505,18784 17633,18910 17762,18972 17890,19070 18019,19110 18147,19178 18276,19164 18405,19234 18533,19283"/>
 <path fill="none" stroke="rgb(141,40,30)" stroke-width="80" stroke-linejoin="round" stroke-dasharray="80,40" d="M 3190,1629 L 3234,2295 3362,4207 3491,5572 3620,6731 3748,7788 3877,8316 4005,9096 4134,9820 4262,10270 4391,10664 4520,10887 4648,11226 4777,11926 4905,12349 5034,12752 5162,13402 5291,13908 5420,14416 5548,14770 5677,14968 5805,15188 5934,15502 6062,15794 6191,16307 6320,16625 6448,16995 6577,17251 6705,17448 6834,17724 6962,17861 7091,18043 7220,18171 7348,18274 7477,18254 7605,18394 7734,18381 7863,18549 7991,18670 8120,18850 8248,18856 8377,19002 8505,19107 8634,19329 8763,19465 8891,19516 9020,19498 9148,19573 9277,19660 9405,19651 9534,19649 9663,19736 9791,19771 9920,19864 10048,19957 10177,19989 10305,20095 10434,20112 10563,20113 10691,20155 10820,20130 10948,20114 11077,20094 11205,20002 11334,19934 11463,19869 11591,19783 11720,19677 11847,19575 11976,19386 12104,19197 12233,19058 12362,18873 12490,18668 12619,18545 12747,18350 12876,18224 13005,18106 13133,17887 13262,17716 13390,17679 13519,17722 13647,17636 13776,17658 13905,17522 14033,17515 14162,17493 14290,17381 14419,17260 14547,17229 14676,17112 14805,17132 14933,17129 15062,17062 15190,17147 15319,17217 15447,17292 15576,17372 15705,17529 15833,17599 15962,17831 16090,17916 16219,17979 16347,18149 16476,18292 16605,18363 16733,18456 16862,18548 16990,18707 17119,18867 17247,19003 17376,19174 17505,19323 17633,19567 17762,19707 17890,19848 18019,19916 18147,19959 18276,19954 18405,20095 18533,20104"/>
 <path fill="none" stroke="rgb(255,211,32)" stroke-width="80" stroke-linejoin="round" d="M 2360,1629 L 2462,4099 2591,5951 2720,10202 2848,10106 2977,12272 3105,13953 3234,16047 3362,16704 3491,17255 3620,17676 3748,17977 3877,17418 4005,16891 4134,17044 4262,18362 4391,18653 4520,18550 4648,19222 4777,20033 4905,20559 5034,20746 5162,20475 5291,20697 5420,21090 5548,21260 5677,21290 5805,21203 5934,21208 6062,21500 6191,21565 6320,21570 6448,21565 6577,21490 6705,21687 6834,21869 6962,21745 7091,21706 7220,21542 7348,21592 7477,21294 7605,21221 7734,21097 7863,21377 7991,21370 8120,21237 8248,21010 8377,21368 8505,21449 8634,21657 8763,21559 8891,21587 9020,21814 9148,21958 9277,22030 9405,21970 9534,21793 9663,21793 9791,21903 9920,21890 10048,21788 10177,21630 10305,21680 10434,21698 10563,21824 10691,21610 10820,21549 10948,21688 11077,21832 11205,21872 11334,21982 11463,21601 11591,21428 11720,21487 11847,21419 11976,21493 12104,21156 12233,20841 12362,20977 12490,20831 12619,19930 12747,18885 12876,18160 13005,18134 13133,18339 13262,18226 13390,18413 13519,19067 13647,20050 13776,20668 13905,20813 14033,20699 14162,20826 14290,21066 14419,21114 14547,21184 14676,21149 14805,21226 14933,21231 15062,21141 15190,20995 15319,21020 15447,20928 15576,20646 15705,20265 15833,19934 15962,19671 16090,19227 16219,19205 16347,19163 16476,19089 16605,18985 16733,18917 16862,18846 16990,19158 17119,19213 17247,19276 17376,19283 17505,19372 17633,19585 17762,19855 17890,19567 18019,19465 18147,19445 18276,19667 18405,19700 18533,19631"/>
 <path fill="none" stroke="rgb(128,0,128)" stroke-width="80" stroke-linejoin="round" d="M 2170,1629 L 2205,2514 2334,4970 2462,7432 2591,9157 2720,10716 2848,11803 2977,12795 3105,14062 3234,14808 3362,14434 3491,14491 3620,15790 3748,15142 3877,15748 4005,15470 4134,15920 4262,16850 4391,20703 4520,20253 4648,21515 4777,21466 4905,22074 5034,22537 5162,23402 5291,20853 5420,21220 5548,21416 5677,21703 5805,21712 5934,21965 6062,21845 6191,21934 6320,22074 6448,22103 6577,21596 6705,21752 6834,21826 6962,21889 7091,22049 7220,22094 7348,22249 7477,22685 7605,22718 7734,22748 7863,22820 7991,22605 8120,22616 8248,22525 8377,22770 8505,22691 8634,22790 8763,22573 8891,22790 9020,22755 9148,22799 9277,22699 9405,22807 9534,22734 9663,22980 9791,23044 9920,23106 10048,23108 10177,23107 10305,23116 10434,23131 10563,23115 10691,23082 10820,23071 10948,23056 11077,23054 11205,23060 11334,23053 11463,23025 11591,23061 11720,23068 11847,23066 11976,23058 12104,23053 12233,23057 12362,23091 12490,23072 12619,23037 12747,23043 12876,23049 13005,23040 13133,23031 13262,23024 13390,23021 13519,23121 13647,23175 13776,22991 13905,22985 14033,22987 14162,22970 14290,22900 14419,22900 14547,22900 14676,22764 14805,22708 14933,22624 15062,22485 15190,22394 15319,22394 15447,22394 15576,21969 15705,21855 15833,21779 15962,21576 16090,21443 16219,21443 16347,21443 16476,21184 16605,21119 16733,21021 16862,21016 16990,20903 17119,20903 17247,20903 17376,20621 17505,20027 17633,19909 17762,19745 17890,19571 18019,19571 18147,19571 18276,19671 18405,20051 18533,20053"/>
 <path fill="none" stroke="rgb(0,169,51)" stroke-width="80" stroke-linejoin="round" d="M 1699,1629 L 1820,4935 1948,7255 2077,11310 2205,12926 2334,14380 2462,15178 2591,15782 2720,15972 2848,16616 2977,17286 3105,17997 3234,18778 3362,19420 3491,20132 3620,20747 3748,20966 3877,21139 4005,21498 4134,21690 4262,21898 4391,22061 4520,22065 4648,22076 4777,22071 4905,22064 5034,22089 5162,22175 5291,22152 5420,22303 5548,22418 5677,22493 5805,22652 5934,22686 6062,22638 6191,22802 6320,22714 6448,22718 6577,22756 6705,22618 6834,22614 6962,22637 7091,22558 7220,22470 7348,22465 7477,22421 7605,22500 7734,22514 7863,22545 7991,22599 8120,22717 8248,22784 8377,22761 8505,22854 8634,22850 8763,22890 8891,22904 9020,22959 9148,22883 9277,22974 9405,22953 9534,23012 9663,23021 9791,22993 9920,22928 10048,23040 10177,22873 10305,22913 10434,22877 10563,22891 10691,22913 10820,23021 10948,22951 11077,23056 11205,22946 11334,22977 11463,23001 11591,22956 11720,22859 11847,22894 11976,22861 12104,22930 12233,22861 12362,22842 12490,22851 12619,22838 12747,22697 12876,22624 13005,22587 13133,22424 13262,22326 13390,22169 13519,22032 13647,21936 13776,21903 13905,21875 14033,21921 14162,21844 14290,21890 14419,21999 14547,22011 14676,22099 14805,22063 14933,21973 15062,21948 15190,21781 15319,21648 15447,21733 15576,21652 15705,21634 15833,21718 15962,21606 16090,21744 16219,21778 16347,21669 16476,21682 16605,21612 16733,21466 16862,21625 16990,21505 17119,21608 17247,21710 17376,21728 17505,21787 17633,21985 17762,21941 17890,22024 18019,22029 18147,21991 18276,22013 18405,21932 18533,21717"/>
 <path fill="none" stroke="rgb(0,0,255)" stroke-width="80" stroke-linejoin="round" stroke-dasharray="51,127,51,127,254,127,254,127,254,127" d="M 2107,1629 L 2205,3586 2334,5373 2462,6795 2591,8203 2720,9481 2848,8252 2977,9113 3105,10149 3234,11057 3362,11043 3491,11879 3620,12875 3748,14804 3877,15268 4005,15493 4134,16187 4262,17312 4391,18457 4520,18490 4648,19231 4777,19375 4905,19678 5034,20016 5162,20507 5291,20246 5420,20526 5548,20760 5677,21055 5805,21247 5934,21118 6062,21156 6191,21148 6320,21246 6448,21298 6577,21247 6705,21307 6834,21567 6962,21675 7091,21819 7220,21906 7348,21984 7477,22129 7605,22167 7734,22154 7863,22226 7991,22211 8120,22233 8248,22243 8377,22299 8505,22373 8634,22450 8763,22292 8891,22346 9020,22295 9148,22313 9277,22316 9405,22383 9534,22329 9663,22502 9791,22514 9920,22544 10048,22513 10177,22491 10305,22427 10434,22484 10563,22480 10691,22472 10820,22490 10948,22502 11077,22506 11205,22504 11334,22467 11463,22421 11591,22417 11720,22438 11847,22460 11976,22473 12104,22427 12233,22430 12362,22478 12490,22450 12619,22476 12747,22521 12876,22376 13005,22432 13133,22418 13262,22418 13390,22480 13519,22495 13647,22479 13776,22501 13905,22523 14033,22575 14162,22561 14290,22545 14419,22532 14547,22526 14676,22520 14805,22517 14933,22465 15062,22444 15190,22403 15319,22398 15447,22392 15576,22270 15705,22201 15833,22151 15962,22088 16090,22036 16219,21998 16347,21967 16476,21906 16605,21873 16733,21861 16862,21796 16990,21693 17119,21686 17247,21690 17376,21686 17505,21463 17633,21417 17762,21330 17890,21227 18019,21212 18147,21179 18276,21046 18405,21216 18533,21039"/>
 <path fill="none" stroke="rgb(85,48,141)" stroke-width="80" stroke-linejoin="round" stroke-dasharray="80,40" d="M 3147,1629 L 3234,2776 3362,1993 3491,2173 3620,2787 3748,3096 3877,3096 4005,3489 4134,2637 4262,5764 4391,7360 4520,8198 4648,8274 4777,9605 4905,10453 5034,11733 5162,12222 5291,12369 5420,12593 5548,12137 5677,12613 5805,13175 5934,13704 6062,14058 6191,14694 6320,15191 6448,16559 6577,16919 6705,17121 6834,17490 6962,17820 7091,18134 7220,18229 7348,18346 7477,18489 7605,18612 7734,18728 7863,18832 7991,18889 8120,18988 8248,19148 8377,19243 8505,19360 8634,19513 8763,19664 8891,19861 9020,20134 9148,20251 9277,20391 9405,20573 9534,20710 9663,20915 9791,21064 9920,21200 10048,21265 10177,21382 10305,21495 10434,21602 10563,21701 10691,21824 10820,21870 10948,22035 11077,22152 11205,22220 11334,22259 11463,22288 11591,22293 11720,22298 11847,22322 11976,22335 12104,22327 12233,22368 12362,22377 12490,22497 12619,22586 12747,22589 12876,22467 13005,22505 13133,22562 13262,22574 13390,22512 13519,22525 13647,22572 13776,22667 13905,22693 14033,22645 14162,22661 14290,22660 14419,22685 14547,22691 14676,22607 14805,22545 14933,22535 15062,22485 15190,22454 15319,22395 15447,22359 15576,22312 15705,22249 15833,22263 15962,22207 16090,22093 16219,22082 16347,22075 16476,22119 16605,22177 16733,22116 16862,22233 16990,22284 17119,22331 17247,22362 17376,22547 17505,22444 17633,22490 17762,22480 17890,22517 18019,22518 18147,22530 18276,22355 18405,22489 18533,22514"/>
 <path fill="none" stroke="rgb(0,255,0)" stroke-width="80" stroke-linejoin="round" d="M 1727,1629 L 1820,3520 1948,5000 2077,7741 2205,8617 2334,9925 2462,11357 2591,12461 2720,13675 2848,14546 2977,15349 3105,16251 3234,17748 3362,18613 3491,18987 3620,19487 3748,19487 3877,19647 4005,19901 4134,20279 4262,20602 4391,20905 4520,21109 4648,21405 4777,21578 4905,21616 5034,21725 5162,21814 5291,21919 5420,22090 5548,22217 5677,22262 5805,22374 5934,22516 6062,22689 6191,22748 6320,22850 6448,22902 6577,22957 6705,22946 6834,22973 6962,22997 7091,23042 7220,23023 7348,23080 7477,23122 7605,23144 7734,23134 7863,23155 7991,23210 8120,23268 8248,23274 8377,23274 8505,23282 8634,23318 8763,23341 8891,23314 9020,23316 9148,23307 9277,23309 9405,23326 9534,23320 9663,23320 9791,23333 9920,23329 10048,23341 10177,23343 10305,23325 10434,23320 10563,23301 10691,23307 10820,23292 10948,23272 11077,23262 11205,23252 11334,23238 11463,23267 11591,23244 11720,23277 11847,23241 11976,23235 12104,23237 12233,23222 12362,23167 12490,23135 12619,23050 12747,23032 12876,23009 13005,22953 13133,22825 13262,22737 13390,22633 13519,22596 13647,22586 13776,22571 13905,22584 14033,22598 14162,22640 14290,22684 14419,22646 14547,22653 14676,22633 14805,22613 14933,22612 15062,22542 15190,22561 15319,22587 15447,22545 15576,22574 15705,22525 15833,22517 15962,22554 16090,22475 16219,22429 16347,22418 16476,22391 16605,22363 16733,22301 16862,22172 16990,22107 17119,22072 17247,22041 17376,22042 17505,22050 17633,22073 17762,22131 17890,22200 18019,22204 18147,22192 18276,22146 18405,22081 18533,21975"/>
 <path fill="none" stroke="rgb(0,0,255)" stroke-width="80" stroke-linejoin="round" stroke-dasharray="158,158" d="M 1434,19898 L 1562,20009 1691,20067 1820,20359 1948,20503 2077,20667 2205,21052 2334,21289 2462,21528 2591,21801 2720,22092 2848,22312 2977,22411 3105,22501 3234,22615 3362,22690 3491,22713 3620,22765 3748,22867 3877,22918 4005,22994 4134,23061 4262,23095 4391,23145 4520,23179 4648,23171 4777,23167 4905,23167 5034,23196 5162,23217 5291,23234 5420,23222 5548,23230 5677,23275 5805,23304 5934,23304 6062,23292 6191,23243 6320,23158 6448,23049 6577,22952 6705,22855 6834,22754 6962,22695 7091,22692 7220,22779 7348,22861 7477,22919 7605,22896 7734,22965 7863,22994 7991,22979 8120,22933 8248,22929 8377,22906 8505,22877 8634,22614 8763,22466 8891,22406 9020,22400 9148,22328 9277,22256 9405,22225 9534,22388 9663,22467 9791,22424 9920,22312 10048,22305 10177,22308 10305,22310 10434,22291 10563,22231 10691,22248 10820,22339 10948,22350 11077,22369 11205,22399 11334,22352 11463,22383 11591,22318 11720,22271 11847,22343 11976,22303 12104,22279 12233,22395 12362,22435 12490,22497 12619,22452 12747,22365 12876,22380 13005,22388 13133,22300 13262,22220 13390,22184 13519,22194 13647,22184 13776,22185 13905,22146 14033,22169 14162,22236 14290,22336 14419,22398 14547,22348 14676,22389 14805,22473 14933,22437 15062,22392 15190,22382 15319,22418 15447,22539 15576,22503 15705,22428 15833,22439 15962,22505 16090,22272 16219,22198 16347,22204 16476,22262 16605,22315 16733,22448 16862,22467 16990,22730 17119,22819 17247,22826 17376,22809 17505,22858 17633,22782 17762,22832 17890,22797 18019,22780 18147,22766 18276,22768 18405,22706 18533,22669"/>
 <path fill="none" stroke="rgb(180,120,4)" stroke-width="80" stroke-linejoin="round" d="M 2633,1629 L 2720,3805 2848,6157 2977,8798 3105,11533 3234,13496 3362,14158 3491,14371 3620,14688 3748,15174 3877,15445 4005,15761 4134,15653 4262,16089 4391,16629 4520,16397 4648,16606 4777,16768 4905,17071 5034,17566 5162,17752 5291,17762 5420,18621 5548,18762 5677,18710 5805,18800 5934,19070 6062,19164 6191,19317 6320,19335 6448,19412 6577,19752 6705,20127 6834,20342 6962,20808 7091,21082 7220,21246 7348,21438 7477,21629 7605,21651 7734,21676 7863,21607 7991,21740 8120,21782 8248,21781 8377,21842 8505,21989 8634,22076 8763,22211 8891,22090 9020,22170 9148,22314 9277,22305 9405,22332 9534,22397 9663,22370 9791,22441 9920,22411 10048,22459 10177,22520 10305,22508 10434,22592 10563,22671 10691,22675 10820,22711 10948,22605 11077,22570 11205,22594 11334,22492 11463,22382 11591,22449 11720,22594 11847,22788 11976,22395 12104,22394 12233,22363 12362,22469 12490,22500 12619,22500 12747,22500 12876,22717 13005,22777 13133,22876 13262,22877 13390,22953 13519,22953 13647,22950 13776,23054 13905,23079 14033,23127 14162,23144 14290,23101 14419,23101 14547,23104 14676,22955 14805,22909 14933,22846 15062,22793 15190,22732 15319,22732 15447,22722 15576,22734 15705,22682 15833,22628 15962,22604 16090,22610 16219,22607 16347,22545 16476,22483 16605,22499 16733,22474 16862,22297 16990,22250 17119,22253 17247,22325 17376,22027 17505,21894 17633,21683 17762,21539 17890,21246 18019,21233 18147,21208 18276,20722 18405,20503 18533,20510"/>
 <path fill="none" stroke="rgb(52,42,6)" stroke-width="80" stroke-linejoin="round" d="M 2203,1629 L 2205,1658 2334,3600 2462,6274 2591,8615 2720,10377 2848,11379 2977,12197 3105,13864 3234,15207 3362,16267 3491,16607 3620,17035 3748,17561 3877,17775 4005,17851 4134,18330 4262,18587 4391,19281 4520,19469 4648,19697 4777,20011 4905,20060 5034,20326 5162,20666 5291,20926 5420,21125 5548,21299 5677,21450 5805,21547 5934,21694 6062,21764 6191,21752 6320,21802 6448,21846 6577,21796 6705,21873 6834,21943 6962,22184 7091,22296 7220,22357 7348,22344 7477,22480 7605,22323 7734,22388 7863,22348 7991,22370 8120,22433 8248,22505 8377,22484 8505,22645 8634,22739 8763,22711 8891,22705 9020,22709 9148,22739 9277,22762 9405,22840 9534,22861 9663,22940 9791,23008 9920,22947 10048,22929 10177,22888 10305,22862 10434,22916 10563,22961 10691,22942 10820,23058 10948,23070 11077,23117 11205,23077 11334,22999 11463,22754 11591,22769 11720,22692 11847,22611 11976,22535 12104,22505 12233,22497 12362,22668 12490,22628 12619,22618 12747,22705 12876,22740 13005,22819 13133,22802 13262,22808 13390,22868 13519,22870 13647,22851 13776,22809 13905,22832 14033,22860 14162,22901 14290,22920 14419,22930 14547,22956 14676,23019 14805,23021 14933,23004 15062,22948 15190,22891 15319,22892 15447,22871 15576,22800 15705,22775 15833,22750 15962,22742 16090,22712 16219,22655 16347,22639 16476,22672 16605,22630 16733,22573 16862,22493 16990,22471 17119,22485 17247,22523 17376,22431 17505,22409 17633,22319 17762,22338 17890,22282 18019,22264 18147,22231 18276,22168 18405,22108 18533,22109"/>
 <path fill="none" stroke="rgb(241,13,12)" stroke-width="80" stroke-linejoin="round" d="M 3055,1629 L 3105,2166 3234,5271 3362,7231 3491,7549 3620,7677 3748,7215 3877,8197 4005,8678 4134,8543 4262,8793 4391,9095 4520,9713 4648,10556 4777,11213 4905,11221 5034,11747 5162,12171 5291,13649 5420,14094 5548,14863 5677,14720 5805,15476 5934,15700 6062,16168 6191,15879 6320,15886 6448,15641 6577,15888 6705,15849 6834,16192 6962,16457 7091,16665 7220,17152 7348,17140 7477,17410 7605,17833 7734,17825 7863,17995 7991,18095 8120,18314 8248,18677 8377,18498 8505,18318 8634,18542 8763,18656 8891,18600 9020,18316 9148,18152 9277,18357 9405,18220 9534,16366 9663,15954 9791,15740 9920,15507 10048,15116 10177,15025 10305,15177 10434,17046 10563,16801 10691,16619 10820,16470 10948,16758 11077,16464 11205,16443 11334,16251 11463,16465 11591,16102 11720,16911 11847,17359 11976,18021 12104,17326 12233,17267 12362,17365 12490,18171 12619,18602 12747,18814 12876,17007 13005,18015 13133,18318 13262,18868 13390,19270 13519,19270 13647,19270 13776,20002 13905,20361 14033,20873 14162,21200 14290,21357 14419,21357 14547,21357 14676,21832 14805,21903 14933,21927 15062,21990 15190,22096 15319,22096 15447,22096 15576,22205 15705,22241 15833,22337 15962,22414 16090,22516 16219,22516 16347,22516 16476,22732 16605,22744 16733,22775 16862,22744 16990,22698 17119,22698 17247,22698 17376,22596 17505,22559 17633,22523 17762,22468 17890,22453 18019,22453 18147,22453 18276,22429 18405,22439 18533,22460"/>
 <path fill="none" stroke="rgb(255,128,0)" stroke-width="80" stroke-linejoin="round" d="M 2908,1629 L 2977,2998 3105,5243 3234,6496 3362,7276 3491,7779 3620,7864 3748,8304 3877,8660 4005,9108 4134,9625 4262,10350 4391,10910 4520,11743 4648,12235 4777,12705 4905,13099 5034,13520 5162,13932 5291,14318 5420,14690 5548,15019 5677,15615 5805,16106 5934,16743 6062,17222 6191,17783 6320,18135 6448,18370 6577,18413 6705,18573 6834,18784 6962,19117 7091,19294 7220,19353 7348,19501 7477,19772 7605,19897 7734,20066 7863,20118 7991,20248 8120,20385 8248,20498 8377,20712 8505,21006 8634,21198 8763,21370 8891,21483 9020,21567 9148,21628 9277,21670 9405,21715 9534,21807 9663,21905 9791,21982 9920,22042 10048,22108 10177,22174 10305,22234 10434,22268 10563,22312 10691,22326 10820,22314 10948,22302 11077,22318 11205,22335 11334,22371 11463,22373 11591,22388 11720,22427 11847,22460 11976,22486 12104,22522 12233,22561 12362,22615 12490,22672 12619,22679 12747,22715 12876,22760 13005,22837 13133,22949 13262,23057 13390,23080 13519,23082 13647,23065 13776,23106 13905,23079 14033,22991 14162,22894 14290,22891 14419,22862 14547,22843 14676,22817 14805,22719 14933,22735 15062,22736 15190,22713 15319,22715 15447,22705 15576,22699 15705,22821 15833,22819 15962,22801 16090,22790 16219,22801 16347,22799 16476,22785 16605,22770 16733,22737 16862,22729 16990,22714 17119,22716 17247,22718 17376,22683 17505,22667 17633,22654 17762,22640 17890,22640 18019,22643 18147,22592 18276,22613 18405,22547 18533,22531"/>
 <path fill="none" stroke="rgb(112,110,12)" stroke-width="80" stroke-linejoin="round" stroke-dasharray="80,40" d="M 2938,1629 L 2977,2283 3105,3751 3234,5141 3362,6757 3491,8712 3620,9855 3748,10918 3877,11725 4005,12612 4134,14564 4262,15714 4391,15715 4520,15263 4648,15464 4777,15817 4905,16315 5034,16466 5162,16698 5291,17575 5420,18709 5548,19181 5677,19450 5805,19622 5934,19944 6062,20169 6191,20354 6320,20673 6448,20864 6577,21005 6705,21133 6834,21235 6962,21406 7091,21448 7220,21504 7348,21567 7477,21630 7605,21632 7734,21727 7863,21778 7991,21926 8120,22018 8248,22064 8377,22069 8505,22125 8634,22179 8763,22226 8891,22250 9020,22304 9148,22367 9277,22408 9405,22381 9534,22394 9663,22485 9791,22546 9920,22581 10048,22623 10177,22653 10305,22732 10434,22777 10563,22815 10691,22847 10820,22871 10948,22882 11077,22893 11205,22900 11334,22913 11463,22928 11591,22932 11720,22956 11847,22961 11976,22969 12104,22974 12233,22973 12362,22959 12490,22959 12619,22961 12747,22968 12876,22987 13005,22996 13133,22991 13262,22978 13390,22967 13519,22965 13647,22975 13776,22961 13905,22955 14033,22948 14162,22982 14290,22998 14419,22998 14547,22983 14676,22979 14805,22944 14933,22930 15062,22911 15190,22913 15319,22911 15447,22931 15576,22936 15705,22944 15833,22958 15962,22955 16090,22958 16219,22960 16347,22957 16476,22948 16605,22983 16733,22983 16862,22988 16990,23000 17119,23001 17247,23002 17376,23010 17505,22988 17633,22997 17762,23006 17890,22999 18019,23005 18147,23007 18276,23015 18405,23024 18533,23018"/>
 <path fill="none" stroke="rgb(89,131,176)" stroke-width="80" stroke-linejoin="round" d="M 1599,1629 L 1691,4685 1820,6773 1948,9170 2077,9521 2205,9876 2334,12493 2462,14449 2591,15801 2720,16720 2848,17044 2977,17985 3105,19629 3234,18789 3362,18665 3491,19173 3620,19210 3748,19781 3877,19825 4005,19737 4134,19608 4262,20285 4391,20172 4520,20610 4648,20713 4777,20780 4905,20635 5034,21270 5162,21496 5291,21612 5420,21679 5548,21628 5677,21732 5805,21803 5934,21865 6062,21814 6191,21874 6320,21863 6448,22049 6577,22225 6705,22376 6834,22508 6962,22605 7091,22679 7220,22742 7348,22710 7477,22814 7605,22897 7734,22920 7863,22884 7991,22885 8120,22908 8248,22941 8377,22920 8505,22873 8634,22853 8763,22950 8891,23014 9020,23010 9148,23026 9277,23058 9405,23111 9534,23091 9663,23003 9791,22967 9920,22999 10048,22932 10177,22891 10305,22861 10434,22883 10563,22952 10691,22984 10820,22989 10948,23057 11077,23047 11205,23058 11334,22988 11463,22979 11591,22949 11720,22909 11847,22909 11976,22961 12104,22921 12233,23004 12362,23085 12490,22955 12619,22966 12747,22937 12876,22932 13005,22953 13133,22949 13262,22919 13390,23046 13519,23091 13647,23116 13776,23121 13905,23152 14033,23221 14162,23177 14290,23227 14419,23237 14547,23237 14676,23252 14805,23223 14933,23189 15062,23243 15190,23238 15319,23238 15447,23258 15576,23243 15705,23234 15833,23254 15962,23147 16090,23162 16219,23085 16347,23056 16476,23012 16605,23018 16733,22941 16862,22895 16990,22775 17119,22805 17247,22762 17376,22519 17505,22474 17633,22357 17762,22252 17890,22015 18019,21852 18147,21741 18276,21847 18405,21670 18533,21749"/>
 <path fill="none" stroke="rgb(0,127,255)" stroke-width="80" stroke-linejoin="round" d="M 1434,2219 L 1562,4689 1691,6642 1820,8283 1948,9498 2077,10249 2205,11175 2334,12082 2462,12719 2591,13362 2720,13791 2848,14192 2977,14591 3105,14812 3234,15418 3362,15781 3491,16123 3620,16695 3748,17165 3877,17536 4005,17710 4134,17617 4262,18044 4391,18274 4520,18659 4648,18918 4777,19099 4905,19316 5034,19691 5162,19922 5291,20217 5420,20359 5548,20602 5677,20741 5805,20990 5934,21153 6062,21275 6191,21430 6320,21619 6448,21753 6577,21862 6705,21803 6834,21928 6962,22021 7091,22138 7220,22186 7348,22216 7477,22279 7605,22403 7734,22451 7863,22524 7991,22554 8120,22598 8248,22629 8377,22660 8505,22743 8634,22761 8763,22772 8891,22800 9020,22850 9148,22889 9277,22909 9405,22925 9534,22976 9663,23056 9791,23057 9920,23085 10048,23111 10177,23096 10305,23103 10434,23126 10563,23089 10691,23156 10820,23142 10948,23116 11077,23113 11205,23127 11334,23104 11463,23113 11591,23171 11720,23186 11847,23208 11976,23223 12104,23241 12233,23196 12362,23203 12490,23128 12619,23145 12747,23155 12876,23172 13005,23167 13133,23240 13262,23258 13390,23264 13519,23253 13647,23250 13776,23235 13905,23236 14033,23234 14162,23232 14290,23223 14419,23232 14547,23224 14676,23231 14805,23236 14933,23242 15062,23239 15190,23247 15319,23236 15447,23240 15576,23236 15705,23234 15833,23213 15962,23199 16090,23196 16219,23191 16347,23185 16476,23189 16605,23176 16733,23175 16862,23162 16990,23140 17119,23137 17247,23140 17376,23142 17505,23144 17633,23127 17762,23125 17890,23095 18019,23086 18147,23047 18276,23029 18405,22991 18533,22975"/>
 <text class="TextShape" transform="rotate(-90 1560 24691)"><tspan class="TextParagraph" font-family="Liberation Sans, sans-serif" font-size="388px" font-weight="400"><tspan class="TextPosition" x="1560" y="24691"><tspan fill="rgb(0,0,0)" stroke="none">01.04</tspan></tspan></tspan></text>
 <text class="TextShape" transform="rotate(-90 2460 24691)"><tspan class="TextParagraph" font-family="Liberation Sans, sans-serif" font-size="388px" font-weight="400"><tspan class="TextPosition" x="2460" y="24691"><tspan fill="rgb(0,0,0)" stroke="none">08.04</tspan></tspan></tspan></text>
 <text class="TextShape" transform="rotate(-90 3360 24691)"><tspan class="TextParagraph" font-family="Liberation Sans, sans-serif" font-size="388px" font-weight="400"><tspan class="TextPosition" x="3360" y="24691"><tspan fill="rgb(0,0,0)" stroke="none">15.04</tspan></tspan></tspan></text>
 <text class="TextShape" transform="rotate(-90 4260 24691)"><tspan class="TextParagraph" font-family="Liberation Sans, sans-serif" font-size="388px" font-weight="400"><tspan class="TextPosition" x="4260" y="24691"><tspan fill="rgb(0,0,0)" stroke="none">22.04</tspan></tspan></tspan></text>
 <text class="TextShape" transform="rotate(-90 5160 24691)"><tspan class="TextParagraph" font-family="Liberation Sans, sans-serif" font-size="388px" font-weight="400"><tspan class="TextPosition" x="5160" y="24691"><tspan fill="rgb(0,0,0)" stroke="none">29.04</tspan></tspan></tspan></text>
 <text class="TextShape" transform="rotate(-90 6060 24691)"><tspan class="TextParagraph" font-family="Liberation Sans, sans-serif" font-size="388px" font-weight="400"><tspan class="TextPosition" x="6060" y="24691"><tspan fill="rgb(0,0,0)" stroke="none">06.05</tspan></tspan></tspan></text>
 <text class="TextShape" transform="rotate(-90 6960 24691)"><tspan class="TextParagraph" font-family="Liberation Sans, sans-serif" font-size="388px" font-weight="400"><tspan class="TextPosition" x="6960" y="24691"><tspan fill="rgb(0,0,0)" stroke="none">13.05</tspan></tspan></tspan></text>
 <text class="TextShape" transform="rotate(-90 7860 24691)"><tspan class="TextParagraph" font-family="Liberation Sans, sans-serif" font-size="388px" font-weight="400"><tspan class="TextPosition" x="7860" y="24691"><tspan fill="rgb(0,0,0)" stroke="none">20.05</tspan></tspan></tspan></text>
 <text class="TextShape" transform="rotate(-90 8760 24691)"><tspan class="TextParagraph" font-family="Liberation Sans, sans-serif" font-size="388px" font-weight="400"><tspan class="TextPosition" x="8760" y="24691"><tspan fill="rgb(0,0,0)" stroke="none">27.05</tspan></tspan></tspan></text>
 <text class="TextShape" transform="rotate(-90 9660 24691)"><tspan class="TextParagraph" font-family="Liberation Sans, sans-serif" font-size="388px" font-weight="400"><tspan class="TextPosition" x="9660" y="24691"><tspan fill="rgb(0,0,0)" stroke="none">03.06</tspan></tspan></tspan></text>
 <text class="TextShape" transform="rotate(-90 10560 24691)"><tspan class="TextParagraph" font-family="Liberation Sans, sans-serif" font-size="388px" font-weight="400"><tspan class="TextPosition" x="10560" y="24691"><tspan fill="rgb(0,0,0)" stroke="none">10.06</tspan></tspan></tspan></text>
 <text class="TextShape" transform="rotate(-90 11460 24691)"><tspan class="TextParagraph" font-family="Liberation Sans, sans-serif" font-size="388px" font-weight="400"><tspan class="TextPosition" x="11460" y="24691"><tspan fill="rgb(0,0,0)" stroke="none">17.06</tspan></tspan></tspan></text>
 <text class="TextShape" transform="rotate(-90 12359 24691)"><tspan class="TextParagraph" font-family="Liberation Sans, sans-serif" font-size="388px" font-weight="400"><tspan class="TextPosition" x="12359" y="24691"><tspan fill="rgb(0,0,0)" stroke="none">24.06</tspan></tspan></tspan></text>
 <text class="TextShape" transform="rotate(-90 13259 24691)"><tspan class="TextParagraph" font-family="Liberation Sans, sans-serif" font-size="388px" font-weight="400"><tspan class="TextPosition" x="13259" y="24691"><tspan fill="rgb(0,0,0)" stroke="none">01.07</tspan></tspan></tspan></text>
 <text class="TextShape" transform="rotate(-90 14159 24691)"><tspan class="TextParagraph" font-family="Liberation Sans, sans-serif" font-size="388px" font-weight="400"><tspan class="TextPosition" x="14159" y="24691"><tspan fill="rgb(0,0,0)" stroke="none">08.07</tspan></tspan></tspan></text>
 <text class="TextShape" transform="rotate(-90 15059 24691)"><tspan class="TextParagraph" font-family="Liberation Sans, sans-serif" font-size="388px" font-weight="400"><tspan class="TextPosition" x="15059" y="24691"><tspan fill="rgb(0,0,0)" stroke="none">15.07</tspan></tspan></tspan></text>
 <text class="TextShape" transform="rotate(-90 15959 24691)"><tspan class="TextParagraph" font-family="Liberation Sans, sans-serif" font-size="388px" font-weight="400"><tspan class="TextPosition" x="15959" y="24691"><tspan fill="rgb(0,0,0)" stroke="none">22.07</tspan></tspan></tspan></text>
 <text class="TextShape" transform="rotate(-90 16859 24691)"><tspan class="TextParagraph" font-family="Liberation Sans, sans-serif" font-size="388px" font-weight="400"><tspan class="TextPosition" x="16859" y="24691"><tspan fill="rgb(0,0,0)" stroke="none">29.07</tspan></tspan></tspan></text>
 <text class="TextShape" transform="rotate(-90 17759 24691)"><tspan class="TextParagraph" font-family="Liberation Sans, sans-serif" font-size="388px" font-weight="400"><tspan class="TextPosition" x="17759" y="24691"><tspan fill="rgb(0,0,0)" stroke="none">05.08</tspan></tspan></tspan></text>
 <text class="TextShape" transform="rotate(-90 18659 24691)"><tspan class="TextParagraph" font-family="Liberation Sans, sans-serif" font-size="388px" font-weight="400"><tspan class="TextPosition" x="18659" y="24691"><tspan fill="rgb(0,0,0)" stroke="none">12.08</tspan></tspan></tspan></text>
 <text class="TextShape"><tspan class="TextParagraph" font-family="Liberation Sans, sans-serif" font-size="388px" font-weight="400"><tspan class="TextPosition" x="379" y="23615"><tspan fill="rgb(0,0,0)" stroke="none">1,00</tspan></tspan></tspan></text>
 <text class="TextShape"><tspan class="TextParagraph" font-family="Liberation Sans, sans-serif" font-size="388px" font-weight="400"><tspan class="TextPosition" x="379" y="21429"><tspan fill="rgb(0,0,0)" stroke="none">1,05</tspan></tspan></tspan></text>
 <text class="TextShape"><tspan class="TextParagraph" font-family="Liberation Sans, sans-serif" font-size="388px" font-weight="400"><tspan class="TextPosition" x="379" y="19243"><tspan fill="rgb(0,0,0)" stroke="none">1,10</tspan></tspan></tspan></text>
 <text class="TextShape"><tspan class="TextParagraph" font-family="Liberation Sans, sans-serif" font-size="388px" font-weight="400"><tspan class="TextPosition" x="379" y="17057"><tspan fill="rgb(0,0,0)" stroke="none">1,15</tspan></tspan></tspan></text>
 <text class="TextShape"><tspan class="TextParagraph" font-family="Liberation Sans, sans-serif" font-size="388px" font-weight="400"><tspan class="TextPosition" x="379" y="14871"><tspan fill="rgb(0,0,0)" stroke="none">1,20</tspan></tspan></tspan></text>
 <text class="TextShape"><tspan class="TextParagraph" font-family="Liberation Sans, sans-serif" font-size="388px" font-weight="400"><tspan class="TextPosition" x="379" y="12685"><tspan fill="rgb(0,0,0)" stroke="none">1,25</tspan></tspan></tspan></text>
 <text class="TextShape"><tspan class="TextParagraph" font-family="Liberation Sans, sans-serif" font-size="388px" font-weight="400"><tspan class="TextPosition" x="379" y="10499"><tspan fill="rgb(0,0,0)" stroke="none">1,30</tspan></tspan></tspan></text>
 <text class="TextShape"><tspan class="TextParagraph" font-family="Liberation Sans, sans-serif" font-size="388px" font-weight="400"><tspan class="TextPosition" x="379" y="8313"><tspan fill="rgb(0,0,0)" stroke="none">1,35</tspan></tspan></tspan></text>
 <text class="TextShape"><tspan class="TextParagraph" font-family="Liberation Sans, sans-serif" font-size="388px" font-weight="400"><tspan class="TextPosition" x="379" y="6127"><tspan fill="rgb(0,0,0)" stroke="none">1,40</tspan></tspan></tspan></text>
 <text class="TextShape"><tspan class="TextParagraph" font-family="Liberation Sans, sans-serif" font-size="388px" font-weight="400"><tspan class="TextPosition" x="379" y="3941"><tspan fill="rgb(0,0,0)" stroke="none">1,45</tspan></tspan></tspan></text>
 <text class="TextShape"><tspan class="TextParagraph" font-family="Liberation Sans, sans-serif" font-size="388px" font-weight="400"><tspan class="TextPosition" x="379" y="1756"><tspan fill="rgb(0,0,0)" stroke="none">1,50</tspan></tspan></tspan></text>
 <text class="TextShape"><tspan class="TextParagraph" font-family="Liberation Sans, sans-serif" font-size="494px" font-weight="700"><tspan class="TextPosition" x="638" y="990"><tspan fill="rgb(0,0,0)" stroke="none">Týdenní koeficient celkového počtu infikovaných</tspan></tspan></tspan></text>
 <path fill="none" stroke="rgb(128,0,128)" stroke-width="80" stroke-linejoin="round" stroke-dasharray="158,158" d="M 18792,2220 L 20392,2220"/>
 <path fill="none" stroke="rgb(255,64,0)" stroke-width="80" stroke-linejoin="round" stroke-dasharray="80,40" d="M 18792,3358 L 20392,3358"/>
 <path fill="none" stroke="rgb(0,169,51)" stroke-width="80" stroke-linejoin="round" stroke-dasharray="80,40" d="M 18792,4496 L 20392,4496"/>
 <path fill="none" stroke="rgb(21,132,102)" stroke-width="80" stroke-linejoin="round" stroke-dasharray="80,203,80,203,203,203" d="M 18792,5634 L 20392,5634"/>
 <path fill="none" stroke="rgb(141,40,30)" stroke-width="80" stroke-linejoin="round" stroke-dasharray="80,40" d="M 18792,6772 L 20392,6772"/>
 <path fill="none" stroke="rgb(255,211,32)" stroke-width="80" stroke-linejoin="round" d="M 18792,7910 L 20392,7910"/>
 <path fill="none" stroke="rgb(128,0,128)" stroke-width="80" stroke-linejoin="round" d="M 18792,9048 L 20392,9048"/>
 <path fill="none" stroke="rgb(0,169,51)" stroke-width="80" stroke-linejoin="round" d="M 18792,10186 L 20392,10186"/>
 <path fill="none" stroke="rgb(0,0,255)" stroke-width="80" stroke-linejoin="round" stroke-dasharray="51,127,51,127,254,127,254,127,254,127" d="M 18792,11324 L 20392,11324"/>
 <path fill="none" stroke="rgb(85,48,141)" stroke-width="80" stroke-linejoin="round" stroke-dasharray="80,40" d="M 18792,12462 L 20392,12462"/>
 <path fill="none" stroke="rgb(0,255,0)" stroke-width="80" stroke-linejoin="round" d="M 18792,13599 L 20392,13599"/>
 <path fill="none" stroke="rgb(0,0,255)" stroke-width="80" stroke-linejoin="round" stroke-dasharray="158,158" d="M 18792,14737 L 20392,14737"/>
 <path fill="none" stroke="rgb(180,120,4)" stroke-width="80" stroke-linejoin="round" d="M 18792,15875 L 20392,15875"/>
 <path fill="none" stroke="rgb(52,42,6)" stroke-width="80" stroke-linejoin="round" d="M 18792,17013 L 20392,17013"/>
 <path fill="none" stroke="rgb(241,13,12)" stroke-width="80" stroke-linejoin="round" d="M 18792,18151 L 20392,18151"/>
 <path fill="none" stroke="rgb(255,128,0)" stroke-width="80" stroke-linejoin="round" d="M 18792,19289 L 20392,19289"/>
 <path fill="none" stroke="rgb(112,110,12)" stroke-width="80" stroke-linejoin="round" stroke-dasharray="80,40" d="M 18792,20427 L 20392,20427"/>
 <path fill="none" stroke="rgb(89,131,176)" stroke-width="80" stroke-linejoin="round" d="M 18792,21565 L 20392,21565"/>
 <path fill="none" stroke="rgb(0,127,255)" stroke-width="80" stroke-linejoin="round" d="M 18792,22703 L 20392,22703"/>
 <text class="TextShape"><tspan class="TextParagraph" font-family="Liberation Sans, sans-serif" font-size="423px" font-weight="400"><tspan class="TextPosition" x="20492" y="2368"><tspan fill="rgb(0,0,0)" stroke="none">Indie</tspan></tspan></tspan></text>
 <text class="TextShape"><tspan class="TextParagraph" font-family="Liberation Sans, sans-serif" font-size="423px" font-weight="400"><tspan class="TextPosition" x="20492" y="3506"><tspan fill="rgb(0,0,0)" stroke="none">Brazílie</tspan></tspan></tspan></text>
 <text class="TextShape"><tspan class="TextParagraph" font-family="Liberation Sans, sans-serif" font-size="423px" font-weight="400"><tspan class="TextPosition" x="20492" y="4644"><tspan fill="rgb(0,0,0)" stroke="none">Mexiko</tspan></tspan></tspan></text>
 <text class="TextShape"><tspan class="TextParagraph" font-family="Liberation Sans, sans-serif" font-size="423px" font-weight="400"><tspan class="TextPosition" x="20492" y="5782"><tspan fill="rgb(0,0,0)" stroke="none">celosvětově</tspan></tspan></tspan></text>
 <text class="TextShape"><tspan class="TextParagraph" font-family="Liberation Sans, sans-serif" font-size="423px" font-weight="400"><tspan class="TextPosition" x="20492" y="6920"><tspan fill="rgb(0,0,0)" stroke="none">USA</tspan></tspan></tspan></text>
 <text class="TextShape"><tspan class="TextParagraph" font-family="Liberation Sans, sans-serif" font-size="423px" font-weight="400"><tspan class="TextPosition" x="20492" y="8058"><tspan fill="rgb(0,0,0)" stroke="none">Česko</tspan></tspan></tspan></text>
 <text class="TextShape"><tspan class="TextParagraph" font-family="Liberation Sans, sans-serif" font-size="423px" font-weight="400"><tspan class="TextPosition" x="20492" y="9196"><tspan fill="rgb(0,0,0)" stroke="none">Španělsko</tspan></tspan></tspan></text>
 <text class="TextShape"><tspan class="TextParagraph" font-family="Liberation Sans, sans-serif" font-size="423px" font-weight="400"><tspan class="TextPosition" x="20492" y="10334"><tspan fill="rgb(0,0,0)" stroke="none">Rakousko</tspan></tspan></tspan></text>
 <text class="TextShape"><tspan class="TextParagraph" font-family="Liberation Sans, sans-serif" font-size="423px" font-weight="400"><tspan class="TextPosition" x="20492" y="11472"><tspan fill="rgb(0,0,0)" stroke="none">EU</tspan></tspan></tspan></text>
 <text class="TextShape"><tspan class="TextParagraph" font-family="Liberation Sans, sans-serif" font-size="423px" font-weight="400"><tspan class="TextPosition" x="20492" y="12609"><tspan fill="rgb(0,0,0)" stroke="none">Kanada</tspan></tspan></tspan></text>
 <text class="TextShape"><tspan class="TextParagraph" font-family="Liberation Sans, sans-serif" font-size="423px" font-weight="400"><tspan class="TextPosition" x="20492" y="13747"><tspan fill="rgb(0,0,0)" stroke="none">Švýcarsko</tspan></tspan></tspan></text>
 <text class="TextShape"><tspan class="TextParagraph" font-family="Liberation Sans, sans-serif" font-size="423px" font-weight="400"><tspan class="TextPosition" x="20492" y="14885"><tspan fill="rgb(0,0,0)" stroke="none">Jižní Korea</tspan></tspan></tspan></text>
 <text class="TextShape"><tspan class="TextParagraph" font-family="Liberation Sans, sans-serif" font-size="423px" font-weight="400"><tspan class="TextPosition" x="20492" y="16023"><tspan fill="rgb(0,0,0)" stroke="none">Dánsko</tspan></tspan></tspan></text>
 <text class="TextShape"><tspan class="TextParagraph" font-family="Liberation Sans, sans-serif" font-size="423px" font-weight="400"><tspan class="TextPosition" x="20492" y="17161"><tspan fill="rgb(0,0,0)" stroke="none">Německo</tspan></tspan></tspan></text>
 <text class="TextShape"><tspan class="TextParagraph" font-family="Liberation Sans, sans-serif" font-size="423px" font-weight="400"><tspan class="TextPosition" x="20492" y="18299"><tspan fill="rgb(0,0,0)" stroke="none">Švédsko</tspan></tspan></tspan></text>
 <text class="TextShape"><tspan class="TextParagraph" font-family="Liberation Sans, sans-serif" font-size="423px" font-weight="400"><tspan class="TextPosition" x="20492" y="19437"><tspan fill="rgb(0,0,0)" stroke="none">Velká Británie</tspan></tspan></tspan></text>
 <text class="TextShape"><tspan class="TextParagraph" font-family="Liberation Sans, sans-serif" font-size="423px" font-weight="400"><tspan class="TextPosition" x="20492" y="20575"><tspan fill="rgb(0,0,0)" stroke="none">Stát New York</tspan></tspan></tspan></text>
 <text class="TextShape"><tspan class="TextParagraph" font-family="Liberation Sans, sans-serif" font-size="423px" font-weight="400"><tspan class="TextPosition" x="20492" y="21713"><tspan fill="rgb(0,0,0)" stroke="none">Norsko</tspan></tspan></tspan></text>
 <text class="TextShape"><tspan class="TextParagraph" font-family="Liberation Sans, sans-serif" font-size="423px" font-weight="400"><tspan class="TextPosition" x="20492" y="22851"><tspan fill="rgb(0,0,0)" stroke="none">Itálie</tspan></tspan></tspan></text>
</svg>