<?xml version="1.0" encoding="UTF-8"?>
<!DOCTYPE svg PUBLIC "-//W3C//DTD SVG 1.1//EN" "http://www.w3.org/Graphics/SVG/1.1/DTD/svg11.dtd">
<svg width="236mm" height="250mm" viewBox="0 0 23600 25000" version="1.1" xmlns="http://www.w3.org/2000/svg" xmlns:xlink="http://www.w3.org/1999/xlink" stroke-width="28.222" stroke-linejoin="round" xml:space="preserve">
 <path fill="rgb(255,255,255)" stroke="none" d="M 11800,25000 L 0,25000 0,0 23600,0 23600,25000 11800,25000 Z"/>
 <path fill="none" stroke="rgb(179,179,179)" stroke-linejoin="round" d="M 9931,23448 L 1316,23448 1316,1749 18545,1749 18545,23448 9931,23448 Z"/>
 <path fill="none" stroke="rgb(179,179,179)" stroke-linejoin="round" d="M 18545,23447 L 1316,23447"/>
 <path fill="none" stroke="rgb(179,179,179)" stroke-linejoin="round" d="M 18545,21277 L 1316,21277"/>
 <path fill="none" stroke="rgb(179,179,179)" stroke-linejoin="round" d="M 18545,19106 L 1316,19106"/>
 <path fill="none" stroke="rgb(179,179,179)" stroke-linejoin="round" d="M 18545,16937 L 1316,16937"/>
 <path fill="none" stroke="rgb(179,179,179)" stroke-linejoin="round" d="M 18545,14767 L 1316,14767"/>
 <path fill="none" stroke="rgb(179,179,179)" stroke-linejoin="round" d="M 18545,12597 L 1316,12597"/>
 <path fill="none" stroke="rgb(179,179,179)" stroke-linejoin="round" d="M 18545,10428 L 1316,10428"/>
 <path fill="none" stroke="rgb(179,179,179)" stroke-linejoin="round" d="M 18545,8257 L 1316,8257"/>
 <path fill="none" stroke="rgb(179,179,179)" stroke-linejoin="round" d="M 18545,6088 L 1316,6088"/>
 <path fill="none" stroke="rgb(179,179,179)" stroke-linejoin="round" d="M 18545,3918 L 1316,3918"/>
 <path fill="none" stroke="rgb(179,179,179)" stroke-linejoin="round" d="M 18545,1748 L 1316,1748"/>
 <path fill="none" stroke="rgb(179,179,179)" stroke-linejoin="round" d="M 1316,23597 L 1316,23447"/>
 <path fill="none" stroke="rgb(179,179,179)" stroke-linejoin="round" d="M 1316,23597 L 1316,23447"/>
 <path fill="none" stroke="rgb(179,179,179)" stroke-linejoin="round" d="M 1440,23597 L 1440,23447"/>
 <path fill="none" stroke="rgb(179,179,179)" stroke-linejoin="round" d="M 1440,23597 L 1440,23447"/>
 <path fill="none" stroke="rgb(179,179,179)" stroke-linejoin="round" d="M 1565,23597 L 1565,23447"/>
 <path fill="none" stroke="rgb(179,179,179)" stroke-linejoin="round" d="M 1565,23597 L 1565,23447"/>
 <path fill="none" stroke="rgb(179,179,179)" stroke-linejoin="round" d="M 1690,23597 L 1690,23447"/>
 <path fill="none" stroke="rgb(179,179,179)" stroke-linejoin="round" d="M 1690,23597 L 1690,23447"/>
 <path fill="none" stroke="rgb(179,179,179)" stroke-linejoin="round" d="M 1815,23597 L 1815,23447"/>
 <path fill="none" stroke="rgb(179,179,179)" stroke-linejoin="round" d="M 1815,23597 L 1815,23447"/>
 <path fill="none" stroke="rgb(179,179,179)" stroke-linejoin="round" d="M 1940,23597 L 1940,23447"/>
 <path fill="none" stroke="rgb(179,179,179)" stroke-linejoin="round" d="M 1940,23597 L 1940,23447"/>
 <path fill="none" stroke="rgb(179,179,179)" stroke-linejoin="round" d="M 2065,23597 L 2065,23447"/>
 <path fill="none" stroke="rgb(179,179,179)" stroke-linejoin="round" d="M 2065,23597 L 2065,23447"/>
 <path fill="none" stroke="rgb(179,179,179)" stroke-linejoin="round" d="M 2189,23597 L 2189,23447"/>
 <path fill="none" stroke="rgb(179,179,179)" stroke-linejoin="round" d="M 2189,23597 L 2189,23447"/>
 <path fill="none" stroke="rgb(179,179,179)" stroke-linejoin="round" d="M 2314,23597 L 2314,23447"/>
 <path fill="none" stroke="rgb(179,179,179)" stroke-linejoin="round" d="M 2314,23597 L 2314,23447"/>
 <path fill="none" stroke="rgb(179,179,179)" stroke-linejoin="round" d="M 2439,23597 L 2439,23447"/>
 <path fill="none" stroke="rgb(179,179,179)" stroke-linejoin="round" d="M 2439,23597 L 2439,23447"/>
 <path fill="none" stroke="rgb(179,179,179)" stroke-linejoin="round" d="M 2564,23597 L 2564,23447"/>
 <path fill="none" stroke="rgb(179,179,179)" stroke-linejoin="round" d="M 2564,23597 L 2564,23447"/>
 <path fill="none" stroke="rgb(179,179,179)" stroke-linejoin="round" d="M 2689,23597 L 2689,23447"/>
 <path fill="none" stroke="rgb(179,179,179)" stroke-linejoin="round" d="M 2689,23597 L 2689,23447"/>
 <path fill="none" stroke="rgb(179,179,179)" stroke-linejoin="round" d="M 2814,23597 L 2814,23447"/>
 <path fill="none" stroke="rgb(179,179,179)" stroke-linejoin="round" d="M 2814,23597 L 2814,23447"/>
 <path fill="none" stroke="rgb(179,179,179)" stroke-linejoin="round" d="M 2939,23597 L 2939,23447"/>
 <path fill="none" stroke="rgb(179,179,179)" stroke-linejoin="round" d="M 2939,23597 L 2939,23447"/>
 <path fill="none" stroke="rgb(179,179,179)" stroke-linejoin="round" d="M 3063,23597 L 3063,23447"/>
 <path fill="none" stroke="rgb(179,179,179)" stroke-linejoin="round" d="M 3063,23597 L 3063,23447"/>
 <path fill="none" stroke="rgb(179,179,179)" stroke-linejoin="round" d="M 3188,23597 L 3188,23447"/>
 <path fill="none" stroke="rgb(179,179,179)" stroke-linejoin="round" d="M 3188,23597 L 3188,23447"/>
 <path fill="none" stroke="rgb(179,179,179)" stroke-linejoin="round" d="M 3313,23597 L 3313,23447"/>
 <path fill="none" stroke="rgb(179,179,179)" stroke-linejoin="round" d="M 3313,23597 L 3313,23447"/>
 <path fill="none" stroke="rgb(179,179,179)" stroke-linejoin="round" d="M 3438,23597 L 3438,23447"/>
 <path fill="none" stroke="rgb(179,179,179)" stroke-linejoin="round" d="M 3438,23597 L 3438,23447"/>
 <path fill="none" stroke="rgb(179,179,179)" stroke-linejoin="round" d="M 3563,23597 L 3563,23447"/>
 <path fill="none" stroke="rgb(179,179,179)" stroke-linejoin="round" d="M 3563,23597 L 3563,23447"/>
 <path fill="none" stroke="rgb(179,179,179)" stroke-linejoin="round" d="M 3688,23597 L 3688,23447"/>
 <path fill="none" stroke="rgb(179,179,179)" stroke-linejoin="round" d="M 3688,23597 L 3688,23447"/>
 <path fill="none" stroke="rgb(179,179,179)" stroke-linejoin="round" d="M 3813,23597 L 3813,23447"/>
 <path fill="none" stroke="rgb(179,179,179)" stroke-linejoin="round" d="M 3813,23597 L 3813,23447"/>
 <path fill="none" stroke="rgb(179,179,179)" stroke-linejoin="round" d="M 3937,23597 L 3937,23447"/>
 <path fill="none" stroke="rgb(179,179,179)" stroke-linejoin="round" d="M 3937,23597 L 3937,23447"/>
 <path fill="none" stroke="rgb(179,179,179)" stroke-linejoin="round" d="M 4062,23597 L 4062,23447"/>
 <path fill="none" stroke="rgb(179,179,179)" stroke-linejoin="round" d="M 4062,23597 L 4062,23447"/>
 <path fill="none" stroke="rgb(179,179,179)" stroke-linejoin="round" d="M 4187,23597 L 4187,23447"/>
 <path fill="none" stroke="rgb(179,179,179)" stroke-linejoin="round" d="M 4187,23597 L 4187,23447"/>
 <path fill="none" stroke="rgb(179,179,179)" stroke-linejoin="round" d="M 4312,23597 L 4312,23447"/>
 <path fill="none" stroke="rgb(179,179,179)" stroke-linejoin="round" d="M 4312,23597 L 4312,23447"/>
 <path fill="none" stroke="rgb(179,179,179)" stroke-linejoin="round" d="M 4437,23597 L 4437,23447"/>
 <path fill="none" stroke="rgb(179,179,179)" stroke-linejoin="round" d="M 4437,23597 L 4437,23447"/>
 <path fill="none" stroke="rgb(179,179,179)" stroke-linejoin="round" d="M 4562,23597 L 4562,23447"/>
 <path fill="none" stroke="rgb(179,179,179)" stroke-linejoin="round" d="M 4562,23597 L 4562,23447"/>
 <path fill="none" stroke="rgb(179,179,179)" stroke-linejoin="round" d="M 4687,23597 L 4687,23447"/>
 <path fill="none" stroke="rgb(179,179,179)" stroke-linejoin="round" d="M 4687,23597 L 4687,23447"/>
 <path fill="none" stroke="rgb(179,179,179)" stroke-linejoin="round" d="M 4811,23597 L 4811,23447"/>
 <path fill="none" stroke="rgb(179,179,179)" stroke-linejoin="round" d="M 4811,23597 L 4811,23447"/>
 <path fill="none" stroke="rgb(179,179,179)" stroke-linejoin="round" d="M 4936,23597 L 4936,23447"/>
 <path fill="none" stroke="rgb(179,179,179)" stroke-linejoin="round" d="M 4936,23597 L 4936,23447"/>
 <path fill="none" stroke="rgb(179,179,179)" stroke-linejoin="round" d="M 5061,23597 L 5061,23447"/>
 <path fill="none" stroke="rgb(179,179,179)" stroke-linejoin="round" d="M 5061,23597 L 5061,23447"/>
 <path fill="none" stroke="rgb(179,179,179)" stroke-linejoin="round" d="M 5186,23597 L 5186,23447"/>
 <path fill="none" stroke="rgb(179,179,179)" stroke-linejoin="round" d="M 5186,23597 L 5186,23447"/>
 <path fill="none" stroke="rgb(179,179,179)" stroke-linejoin="round" d="M 5311,23597 L 5311,23447"/>
 <path fill="none" stroke="rgb(179,179,179)" stroke-linejoin="round" d="M 5311,23597 L 5311,23447"/>
 <path fill="none" stroke="rgb(179,179,179)" stroke-linejoin="round" d="M 5436,23597 L 5436,23447"/>
 <path fill="none" stroke="rgb(179,179,179)" stroke-linejoin="round" d="M 5436,23597 L 5436,23447"/>
 <path fill="none" stroke="rgb(179,179,179)" stroke-linejoin="round" d="M 5561,23597 L 5561,23447"/>
 <path fill="none" stroke="rgb(179,179,179)" stroke-linejoin="round" d="M 5561,23597 L 5561,23447"/>
 <path fill="none" stroke="rgb(179,179,179)" stroke-linejoin="round" d="M 5685,23597 L 5685,23447"/>
 <path fill="none" stroke="rgb(179,179,179)" stroke-linejoin="round" d="M 5685,23597 L 5685,23447"/>
 <path fill="none" stroke="rgb(179,179,179)" stroke-linejoin="round" d="M 5810,23597 L 5810,23447"/>
 <path fill="none" stroke="rgb(179,179,179)" stroke-linejoin="round" d="M 5810,23597 L 5810,23447"/>
 <path fill="none" stroke="rgb(179,179,179)" stroke-linejoin="round" d="M 5935,23597 L 5935,23447"/>
 <path fill="none" stroke="rgb(179,179,179)" stroke-linejoin="round" d="M 5935,23597 L 5935,23447"/>
 <path fill="none" stroke="rgb(179,179,179)" stroke-linejoin="round" d="M 6060,23597 L 6060,23447"/>
 <path fill="none" stroke="rgb(179,179,179)" stroke-linejoin="round" d="M 6060,23597 L 6060,23447"/>
 <path fill="none" stroke="rgb(179,179,179)" stroke-linejoin="round" d="M 6185,23597 L 6185,23447"/>
 <path fill="none" stroke="rgb(179,179,179)" stroke-linejoin="round" d="M 6185,23597 L 6185,23447"/>
 <path fill="none" stroke="rgb(179,179,179)" stroke-linejoin="round" d="M 6310,23597 L 6310,23447"/>
 <path fill="none" stroke="rgb(179,179,179)" stroke-linejoin="round" d="M 6310,23597 L 6310,23447"/>
 <path fill="none" stroke="rgb(179,179,179)" stroke-linejoin="round" d="M 6435,23597 L 6435,23447"/>
 <path fill="none" stroke="rgb(179,179,179)" stroke-linejoin="round" d="M 6435,23597 L 6435,23447"/>
 <path fill="none" stroke="rgb(179,179,179)" stroke-linejoin="round" d="M 6559,23597 L 6559,23447"/>
 <path fill="none" stroke="rgb(179,179,179)" stroke-linejoin="round" d="M 6559,23597 L 6559,23447"/>
 <path fill="none" stroke="rgb(179,179,179)" stroke-linejoin="round" d="M 6684,23597 L 6684,23447"/>
 <path fill="none" stroke="rgb(179,179,179)" stroke-linejoin="round" d="M 6684,23597 L 6684,23447"/>
 <path fill="none" stroke="rgb(179,179,179)" stroke-linejoin="round" d="M 6809,23597 L 6809,23447"/>
 <path fill="none" stroke="rgb(179,179,179)" stroke-linejoin="round" d="M 6809,23597 L 6809,23447"/>
 <path fill="none" stroke="rgb(179,179,179)" stroke-linejoin="round" d="M 6934,23597 L 6934,23447"/>
 <path fill="none" stroke="rgb(179,179,179)" stroke-linejoin="round" d="M 6934,23597 L 6934,23447"/>
 <path fill="none" stroke="rgb(179,179,179)" stroke-linejoin="round" d="M 7059,23597 L 7059,23447"/>
 <path fill="none" stroke="rgb(179,179,179)" stroke-linejoin="round" d="M 7059,23597 L 7059,23447"/>
 <path fill="none" stroke="rgb(179,179,179)" stroke-linejoin="round" d="M 7184,23597 L 7184,23447"/>
 <path fill="none" stroke="rgb(179,179,179)" stroke-linejoin="round" d="M 7184,23597 L 7184,23447"/>
 <path fill="none" stroke="rgb(179,179,179)" stroke-linejoin="round" d="M 7309,23597 L 7309,23447"/>
 <path fill="none" stroke="rgb(179,179,179)" stroke-linejoin="round" d="M 7309,23597 L 7309,23447"/>
 <path fill="none" stroke="rgb(179,179,179)" stroke-linejoin="round" d="M 7433,23597 L 7433,23447"/>
 <path fill="none" stroke="rgb(179,179,179)" stroke-linejoin="round" d="M 7433,23597 L 7433,23447"/>
 <path fill="none" stroke="rgb(179,179,179)" stroke-linejoin="round" d="M 7558,23597 L 7558,23447"/>
 <path fill="none" stroke="rgb(179,179,179)" stroke-linejoin="round" d="M 7558,23597 L 7558,23447"/>
 <path fill="none" stroke="rgb(179,179,179)" stroke-linejoin="round" d="M 7683,23597 L 7683,23447"/>
 <path fill="none" stroke="rgb(179,179,179)" stroke-linejoin="round" d="M 7683,23597 L 7683,23447"/>
 <path fill="none" stroke="rgb(179,179,179)" stroke-linejoin="round" d="M 7808,23597 L 7808,23447"/>
 <path fill="none" stroke="rgb(179,179,179)" stroke-linejoin="round" d="M 7808,23597 L 7808,23447"/>
 <path fill="none" stroke="rgb(179,179,179)" stroke-linejoin="round" d="M 7933,23597 L 7933,23447"/>
 <path fill="none" stroke="rgb(179,179,179)" stroke-linejoin="round" d="M 7933,23597 L 7933,23447"/>
 <path fill="none" stroke="rgb(179,179,179)" stroke-linejoin="round" d="M 8058,23597 L 8058,23447"/>
 <path fill="none" stroke="rgb(179,179,179)" stroke-linejoin="round" d="M 8058,23597 L 8058,23447"/>
 <path fill="none" stroke="rgb(179,179,179)" stroke-linejoin="round" d="M 8183,23597 L 8183,23447"/>
 <path fill="none" stroke="rgb(179,179,179)" stroke-linejoin="round" d="M 8183,23597 L 8183,23447"/>
 <path fill="none" stroke="rgb(179,179,179)" stroke-linejoin="round" d="M 8307,23597 L 8307,23447"/>
 <path fill="none" stroke="rgb(179,179,179)" stroke-linejoin="round" d="M 8307,23597 L 8307,23447"/>
 <path fill="none" stroke="rgb(179,179,179)" stroke-linejoin="round" d="M 8432,23597 L 8432,23447"/>
 <path fill="none" stroke="rgb(179,179,179)" stroke-linejoin="round" d="M 8432,23597 L 8432,23447"/>
 <path fill="none" stroke="rgb(179,179,179)" stroke-linejoin="round" d="M 8557,23597 L 8557,23447"/>
 <path fill="none" stroke="rgb(179,179,179)" stroke-linejoin="round" d="M 8557,23597 L 8557,23447"/>
 <path fill="none" stroke="rgb(179,179,179)" stroke-linejoin="round" d="M 8682,23597 L 8682,23447"/>
 <path fill="none" stroke="rgb(179,179,179)" stroke-linejoin="round" d="M 8682,23597 L 8682,23447"/>
 <path fill="none" stroke="rgb(179,179,179)" stroke-linejoin="round" d="M 8807,23597 L 8807,23447"/>
 <path fill="none" stroke="rgb(179,179,179)" stroke-linejoin="round" d="M 8807,23597 L 8807,23447"/>
 <path fill="none" stroke="rgb(179,179,179)" stroke-linejoin="round" d="M 8932,23597 L 8932,23447"/>
 <path fill="none" stroke="rgb(179,179,179)" stroke-linejoin="round" d="M 8932,23597 L 8932,23447"/>
 <path fill="none" stroke="rgb(179,179,179)" stroke-linejoin="round" d="M 9057,23597 L 9057,23447"/>
 <path fill="none" stroke="rgb(179,179,179)" stroke-linejoin="round" d="M 9057,23597 L 9057,23447"/>
 <path fill="none" stroke="rgb(179,179,179)" stroke-linejoin="round" d="M 9181,23597 L 9181,23447"/>
 <path fill="none" stroke="rgb(179,179,179)" stroke-linejoin="round" d="M 9181,23597 L 9181,23447"/>
 <path fill="none" stroke="rgb(179,179,179)" stroke-linejoin="round" d="M 9306,23597 L 9306,23447"/>
 <path fill="none" stroke="rgb(179,179,179)" stroke-linejoin="round" d="M 9306,23597 L 9306,23447"/>
 <path fill="none" stroke="rgb(179,179,179)" stroke-linejoin="round" d="M 9431,23597 L 9431,23447"/>
 <path fill="none" stroke="rgb(179,179,179)" stroke-linejoin="round" d="M 9431,23597 L 9431,23447"/>
 <path fill="none" stroke="rgb(179,179,179)" stroke-linejoin="round" d="M 9556,23597 L 9556,23447"/>
 <path fill="none" stroke="rgb(179,179,179)" stroke-linejoin="round" d="M 9556,23597 L 9556,23447"/>
 <path fill="none" stroke="rgb(179,179,179)" stroke-linejoin="round" d="M 9681,23597 L 9681,23447"/>
 <path fill="none" stroke="rgb(179,179,179)" stroke-linejoin="round" d="M 9681,23597 L 9681,23447"/>
 <path fill="none" stroke="rgb(179,179,179)" stroke-linejoin="round" d="M 9806,23597 L 9806,23447"/>
 <path fill="none" stroke="rgb(179,179,179)" stroke-linejoin="round" d="M 9806,23597 L 9806,23447"/>
 <path fill="none" stroke="rgb(179,179,179)" stroke-linejoin="round" d="M 9931,23597 L 9931,23447"/>
 <path fill="none" stroke="rgb(179,179,179)" stroke-linejoin="round" d="M 9931,23597 L 9931,23447"/>
 <path fill="none" stroke="rgb(179,179,179)" stroke-linejoin="round" d="M 10055,23597 L 10055,23447"/>
 <path fill="none" stroke="rgb(179,179,179)" stroke-linejoin="round" d="M 10055,23597 L 10055,23447"/>
 <path fill="none" stroke="rgb(179,179,179)" stroke-linejoin="round" d="M 10180,23597 L 10180,23447"/>
 <path fill="none" stroke="rgb(179,179,179)" stroke-linejoin="round" d="M 10180,23597 L 10180,23447"/>
 <path fill="none" stroke="rgb(179,179,179)" stroke-linejoin="round" d="M 10305,23597 L 10305,23447"/>
 <path fill="none" stroke="rgb(179,179,179)" stroke-linejoin="round" d="M 10305,23597 L 10305,23447"/>
 <path fill="none" stroke="rgb(179,179,179)" stroke-linejoin="round" d="M 10430,23597 L 10430,23447"/>
 <path fill="none" stroke="rgb(179,179,179)" stroke-linejoin="round" d="M 10430,23597 L 10430,23447"/>
 <path fill="none" stroke="rgb(179,179,179)" stroke-linejoin="round" d="M 10555,23597 L 10555,23447"/>
 <path fill="none" stroke="rgb(179,179,179)" stroke-linejoin="round" d="M 10555,23597 L 10555,23447"/>
 <path fill="none" stroke="rgb(179,179,179)" stroke-linejoin="round" d="M 10680,23597 L 10680,23447"/>
 <path fill="none" stroke="rgb(179,179,179)" stroke-linejoin="round" d="M 10680,23597 L 10680,23447"/>
 <path fill="none" stroke="rgb(179,179,179)" stroke-linejoin="round" d="M 10804,23597 L 10804,23447"/>
 <path fill="none" stroke="rgb(179,179,179)" stroke-linejoin="round" d="M 10804,23597 L 10804,23447"/>
 <path fill="none" stroke="rgb(179,179,179)" stroke-linejoin="round" d="M 10929,23597 L 10929,23447"/>
 <path fill="none" stroke="rgb(179,179,179)" stroke-linejoin="round" d="M 10929,23597 L 10929,23447"/>
 <path fill="none" stroke="rgb(179,179,179)" stroke-linejoin="round" d="M 11054,23597 L 11054,23447"/>
 <path fill="none" stroke="rgb(179,179,179)" stroke-linejoin="round" d="M 11054,23597 L 11054,23447"/>
 <path fill="none" stroke="rgb(179,179,179)" stroke-linejoin="round" d="M 11179,23597 L 11179,23447"/>
 <path fill="none" stroke="rgb(179,179,179)" stroke-linejoin="round" d="M 11179,23597 L 11179,23447"/>
 <path fill="none" stroke="rgb(179,179,179)" stroke-linejoin="round" d="M 11304,23597 L 11304,23447"/>
 <path fill="none" stroke="rgb(179,179,179)" stroke-linejoin="round" d="M 11304,23597 L 11304,23447"/>
 <path fill="none" stroke="rgb(179,179,179)" stroke-linejoin="round" d="M 11429,23597 L 11429,23447"/>
 <path fill="none" stroke="rgb(179,179,179)" stroke-linejoin="round" d="M 11429,23597 L 11429,23447"/>
 <path fill="none" stroke="rgb(179,179,179)" stroke-linejoin="round" d="M 11554,23597 L 11554,23447"/>
 <path fill="none" stroke="rgb(179,179,179)" stroke-linejoin="round" d="M 11554,23597 L 11554,23447"/>
 <path fill="none" stroke="rgb(179,179,179)" stroke-linejoin="round" d="M 11678,23597 L 11678,23447"/>
 <path fill="none" stroke="rgb(179,179,179)" stroke-linejoin="round" d="M 11678,23597 L 11678,23447"/>
 <path fill="none" stroke="rgb(179,179,179)" stroke-linejoin="round" d="M 11802,23597 L 11802,23447"/>
 <path fill="none" stroke="rgb(179,179,179)" stroke-linejoin="round" d="M 11802,23597 L 11802,23447"/>
 <path fill="none" stroke="rgb(179,179,179)" stroke-linejoin="round" d="M 11927,23597 L 11927,23447"/>
 <path fill="none" stroke="rgb(179,179,179)" stroke-linejoin="round" d="M 11927,23597 L 11927,23447"/>
 <path fill="none" stroke="rgb(179,179,179)" stroke-linejoin="round" d="M 12052,23597 L 12052,23447"/>
 <path fill="none" stroke="rgb(179,179,179)" stroke-linejoin="round" d="M 12052,23597 L 12052,23447"/>
 <path fill="none" stroke="rgb(179,179,179)" stroke-linejoin="round" d="M 12177,23597 L 12177,23447"/>
 <path fill="none" stroke="rgb(179,179,179)" stroke-linejoin="round" d="M 12177,23597 L 12177,23447"/>
 <path fill="none" stroke="rgb(179,179,179)" stroke-linejoin="round" d="M 12302,23597 L 12302,23447"/>
 <path fill="none" stroke="rgb(179,179,179)" stroke-linejoin="round" d="M 12302,23597 L 12302,23447"/>
 <path fill="none" stroke="rgb(179,179,179)" stroke-linejoin="round" d="M 12427,23597 L 12427,23447"/>
 <path fill="none" stroke="rgb(179,179,179)" stroke-linejoin="round" d="M 12427,23597 L 12427,23447"/>
 <path fill="none" stroke="rgb(179,179,179)" stroke-linejoin="round" d="M 12551,23597 L 12551,23447"/>
 <path fill="none" stroke="rgb(179,179,179)" stroke-linejoin="round" d="M 12551,23597 L 12551,23447"/>
 <path fill="none" stroke="rgb(179,179,179)" stroke-linejoin="round" d="M 12676,23597 L 12676,23447"/>
 <path fill="none" stroke="rgb(179,179,179)" stroke-linejoin="round" d="M 12676,23597 L 12676,23447"/>
 <path fill="none" stroke="rgb(179,179,179)" stroke-linejoin="round" d="M 12801,23597 L 12801,23447"/>
 <path fill="none" stroke="rgb(179,179,179)" stroke-linejoin="round" d="M 12801,23597 L 12801,23447"/>
 <path fill="none" stroke="rgb(179,179,179)" stroke-linejoin="round" d="M 12926,23597 L 12926,23447"/>
 <path fill="none" stroke="rgb(179,179,179)" stroke-linejoin="round" d="M 12926,23597 L 12926,23447"/>
 <path fill="none" stroke="rgb(179,179,179)" stroke-linejoin="round" d="M 13051,23597 L 13051,23447"/>
 <path fill="none" stroke="rgb(179,179,179)" stroke-linejoin="round" d="M 13051,23597 L 13051,23447"/>
 <path fill="none" stroke="rgb(179,179,179)" stroke-linejoin="round" d="M 13176,23597 L 13176,23447"/>
 <path fill="none" stroke="rgb(179,179,179)" stroke-linejoin="round" d="M 13176,23597 L 13176,23447"/>
 <path fill="none" stroke="rgb(179,179,179)" stroke-linejoin="round" d="M 13301,23597 L 13301,23447"/>
 <path fill="none" stroke="rgb(179,179,179)" stroke-linejoin="round" d="M 13301,23597 L 13301,23447"/>
 <path fill="none" stroke="rgb(179,179,179)" stroke-linejoin="round" d="M 13425,23597 L 13425,23447"/>
 <path fill="none" stroke="rgb(179,179,179)" stroke-linejoin="round" d="M 13425,23597 L 13425,23447"/>
 <path fill="none" stroke="rgb(179,179,179)" stroke-linejoin="round" d="M 13550,23597 L 13550,23447"/>
 <path fill="none" stroke="rgb(179,179,179)" stroke-linejoin="round" d="M 13550,23597 L 13550,23447"/>
 <path fill="none" stroke="rgb(179,179,179)" stroke-linejoin="round" d="M 13675,23597 L 13675,23447"/>
 <path fill="none" stroke="rgb(179,179,179)" stroke-linejoin="round" d="M 13675,23597 L 13675,23447"/>
 <path fill="none" stroke="rgb(179,179,179)" stroke-linejoin="round" d="M 13800,23597 L 13800,23447"/>
 <path fill="none" stroke="rgb(179,179,179)" stroke-linejoin="round" d="M 13800,23597 L 13800,23447"/>
 <path fill="none" stroke="rgb(179,179,179)" stroke-linejoin="round" d="M 13925,23597 L 13925,23447"/>
 <path fill="none" stroke="rgb(179,179,179)" stroke-linejoin="round" d="M 13925,23597 L 13925,23447"/>
 <path fill="none" stroke="rgb(179,179,179)" stroke-linejoin="round" d="M 14050,23597 L 14050,23447"/>
 <path fill="none" stroke="rgb(179,179,179)" stroke-linejoin="round" d="M 14050,23597 L 14050,23447"/>
 <path fill="none" stroke="rgb(179,179,179)" stroke-linejoin="round" d="M 14175,23597 L 14175,23447"/>
 <path fill="none" stroke="rgb(179,179,179)" stroke-linejoin="round" d="M 14175,23597 L 14175,23447"/>
 <path fill="none" stroke="rgb(179,179,179)" stroke-linejoin="round" d="M 14299,23597 L 14299,23447"/>
 <path fill="none" stroke="rgb(179,179,179)" stroke-linejoin="round" d="M 14299,23597 L 14299,23447"/>
 <path fill="none" stroke="rgb(179,179,179)" stroke-linejoin="round" d="M 14424,23597 L 14424,23447"/>
 <path fill="none" stroke="rgb(179,179,179)" stroke-linejoin="round" d="M 14424,23597 L 14424,23447"/>
 <path fill="none" stroke="rgb(179,179,179)" stroke-linejoin="round" d="M 14549,23597 L 14549,23447"/>
 <path fill="none" stroke="rgb(179,179,179)" stroke-linejoin="round" d="M 14549,23597 L 14549,23447"/>
 <path fill="none" stroke="rgb(179,179,179)" stroke-linejoin="round" d="M 14674,23597 L 14674,23447"/>
 <path fill="none" stroke="rgb(179,179,179)" stroke-linejoin="round" d="M 14674,23597 L 14674,23447"/>
 <path fill="none" stroke="rgb(179,179,179)" stroke-linejoin="round" d="M 14799,23597 L 14799,23447"/>
 <path fill="none" stroke="rgb(179,179,179)" stroke-linejoin="round" d="M 14799,23597 L 14799,23447"/>
 <path fill="none" stroke="rgb(179,179,179)" stroke-linejoin="round" d="M 14924,23597 L 14924,23447"/>
 <path fill="none" stroke="rgb(179,179,179)" stroke-linejoin="round" d="M 14924,23597 L 14924,23447"/>
 <path fill="none" stroke="rgb(179,179,179)" stroke-linejoin="round" d="M 15049,23597 L 15049,23447"/>
 <path fill="none" stroke="rgb(179,179,179)" stroke-linejoin="round" d="M 15049,23597 L 15049,23447"/>
 <path fill="none" stroke="rgb(179,179,179)" stroke-linejoin="round" d="M 15173,23597 L 15173,23447"/>
 <path fill="none" stroke="rgb(179,179,179)" stroke-linejoin="round" d="M 15173,23597 L 15173,23447"/>
 <path fill="none" stroke="rgb(179,179,179)" stroke-linejoin="round" d="M 15298,23597 L 15298,23447"/>
 <path fill="none" stroke="rgb(179,179,179)" stroke-linejoin="round" d="M 15298,23597 L 15298,23447"/>
 <path fill="none" stroke="rgb(179,179,179)" stroke-linejoin="round" d="M 15423,23597 L 15423,23447"/>
 <path fill="none" stroke="rgb(179,179,179)" stroke-linejoin="round" d="M 15423,23597 L 15423,23447"/>
 <path fill="none" stroke="rgb(179,179,179)" stroke-linejoin="round" d="M 15548,23597 L 15548,23447"/>
 <path fill="none" stroke="rgb(179,179,179)" stroke-linejoin="round" d="M 15548,23597 L 15548,23447"/>
 <path fill="none" stroke="rgb(179,179,179)" stroke-linejoin="round" d="M 15673,23597 L 15673,23447"/>
 <path fill="none" stroke="rgb(179,179,179)" stroke-linejoin="round" d="M 15673,23597 L 15673,23447"/>
 <path fill="none" stroke="rgb(179,179,179)" stroke-linejoin="round" d="M 15798,23597 L 15798,23447"/>
 <path fill="none" stroke="rgb(179,179,179)" stroke-linejoin="round" d="M 15798,23597 L 15798,23447"/>
 <path fill="none" stroke="rgb(179,179,179)" stroke-linejoin="round" d="M 15923,23597 L 15923,23447"/>
 <path fill="none" stroke="rgb(179,179,179)" stroke-linejoin="round" d="M 15923,23597 L 15923,23447"/>
 <path fill="none" stroke="rgb(179,179,179)" stroke-linejoin="round" d="M 16047,23597 L 16047,23447"/>
 <path fill="none" stroke="rgb(179,179,179)" stroke-linejoin="round" d="M 16047,23597 L 16047,23447"/>
 <path fill="none" stroke="rgb(179,179,179)" stroke-linejoin="round" d="M 16172,23597 L 16172,23447"/>
 <path fill="none" stroke="rgb(179,179,179)" stroke-linejoin="round" d="M 16172,23597 L 16172,23447"/>
 <path fill="none" stroke="rgb(179,179,179)" stroke-linejoin="round" d="M 16297,23597 L 16297,23447"/>
 <path fill="none" stroke="rgb(179,179,179)" stroke-linejoin="round" d="M 16297,23597 L 16297,23447"/>
 <path fill="none" stroke="rgb(179,179,179)" stroke-linejoin="round" d="M 16422,23597 L 16422,23447"/>
 <path fill="none" stroke="rgb(179,179,179)" stroke-linejoin="round" d="M 16422,23597 L 16422,23447"/>
 <path fill="none" stroke="rgb(179,179,179)" stroke-linejoin="round" d="M 16547,23597 L 16547,23447"/>
 <path fill="none" stroke="rgb(179,179,179)" stroke-linejoin="round" d="M 16547,23597 L 16547,23447"/>
 <path fill="none" stroke="rgb(179,179,179)" stroke-linejoin="round" d="M 16672,23597 L 16672,23447"/>
 <path fill="none" stroke="rgb(179,179,179)" stroke-linejoin="round" d="M 16672,23597 L 16672,23447"/>
 <path fill="none" stroke="rgb(179,179,179)" stroke-linejoin="round" d="M 16797,23597 L 16797,23447"/>
 <path fill="none" stroke="rgb(179,179,179)" stroke-linejoin="round" d="M 16797,23597 L 16797,23447"/>
 <path fill="none" stroke="rgb(179,179,179)" stroke-linejoin="round" d="M 16921,23597 L 16921,23447"/>
 <path fill="none" stroke="rgb(179,179,179)" stroke-linejoin="round" d="M 16921,23597 L 16921,23447"/>
 <path fill="none" stroke="rgb(179,179,179)" stroke-linejoin="round" d="M 17046,23597 L 17046,23447"/>
 <path fill="none" stroke="rgb(179,179,179)" stroke-linejoin="round" d="M 17046,23597 L 17046,23447"/>
 <path fill="none" stroke="rgb(179,179,179)" stroke-linejoin="round" d="M 17171,23597 L 17171,23447"/>
 <path fill="none" stroke="rgb(179,179,179)" stroke-linejoin="round" d="M 17171,23597 L 17171,23447"/>
 <path fill="none" stroke="rgb(179,179,179)" stroke-linejoin="round" d="M 17296,23597 L 17296,23447"/>
 <path fill="none" stroke="rgb(179,179,179)" stroke-linejoin="round" d="M 17296,23597 L 17296,23447"/>
 <path fill="none" stroke="rgb(179,179,179)" stroke-linejoin="round" d="M 17421,23597 L 17421,23447"/>
 <path fill="none" stroke="rgb(179,179,179)" stroke-linejoin="round" d="M 17421,23597 L 17421,23447"/>
 <path fill="none" stroke="rgb(179,179,179)" stroke-linejoin="round" d="M 17546,23597 L 17546,23447"/>
 <path fill="none" stroke="rgb(179,179,179)" stroke-linejoin="round" d="M 17546,23597 L 17546,23447"/>
 <path fill="none" stroke="rgb(179,179,179)" stroke-linejoin="round" d="M 17671,23597 L 17671,23447"/>
 <path fill="none" stroke="rgb(179,179,179)" stroke-linejoin="round" d="M 17671,23597 L 17671,23447"/>
 <path fill="none" stroke="rgb(179,179,179)" stroke-linejoin="round" d="M 17795,23597 L 17795,23447"/>
 <path fill="none" stroke="rgb(179,179,179)" stroke-linejoin="round" d="M 17795,23597 L 17795,23447"/>
 <path fill="none" stroke="rgb(179,179,179)" stroke-linejoin="round" d="M 17920,23597 L 17920,23447"/>
 <path fill="none" stroke="rgb(179,179,179)" stroke-linejoin="round" d="M 17920,23597 L 17920,23447"/>
 <path fill="none" stroke="rgb(179,179,179)" stroke-linejoin="round" d="M 18045,23597 L 18045,23447"/>
 <path fill="none" stroke="rgb(179,179,179)" stroke-linejoin="round" d="M 18045,23597 L 18045,23447"/>
 <path fill="none" stroke="rgb(179,179,179)" stroke-linejoin="round" d="M 18170,23597 L 18170,23447"/>
 <path fill="none" stroke="rgb(179,179,179)" stroke-linejoin="round" d="M 18170,23597 L 18170,23447"/>
 <path fill="none" stroke="rgb(179,179,179)" stroke-linejoin="round" d="M 18295,23597 L 18295,23447"/>
 <path fill="none" stroke="rgb(179,179,179)" stroke-linejoin="round" d="M 18295,23597 L 18295,23447"/>
 <path fill="none" stroke="rgb(179,179,179)" stroke-linejoin="round" d="M 18420,23597 L 18420,23447"/>
 <path fill="none" stroke="rgb(179,179,179)" stroke-linejoin="round" d="M 18420,23597 L 18420,23447"/>
 <path fill="none" stroke="rgb(179,179,179)" stroke-linejoin="round" d="M 18545,23597 L 18545,23447"/>
 <path fill="none" stroke="rgb(179,179,179)" stroke-linejoin="round" d="M 18545,23597 L 18545,23447"/>
 <path fill="none" stroke="rgb(179,179,179)" stroke-linejoin="round" d="M 1316,23447 L 18545,23447"/>
 <path fill="none" stroke="rgb(179,179,179)" stroke-linejoin="round" d="M 1166,23447 L 1316,23447"/>
 <path fill="none" stroke="rgb(179,179,179)" stroke-linejoin="round" d="M 1166,23447 L 1316,23447"/>
 <path fill="none" stroke="rgb(179,179,179)" stroke-linejoin="round" d="M 1166,21277 L 1316,21277"/>
 <path fill="none" stroke="rgb(179,179,179)" stroke-linejoin="round" d="M 1166,21277 L 1316,21277"/>
 <path fill="none" stroke="rgb(179,179,179)" stroke-linejoin="round" d="M 1166,19106 L 1316,19106"/>
 <path fill="none" stroke="rgb(179,179,179)" stroke-linejoin="round" d="M 1166,19106 L 1316,19106"/>
 <path fill="none" stroke="rgb(179,179,179)" stroke-linejoin="round" d="M 1166,16937 L 1316,16937"/>
 <path fill="none" stroke="rgb(179,179,179)" stroke-linejoin="round" d="M 1166,16937 L 1316,16937"/>
 <path fill="none" stroke="rgb(179,179,179)" stroke-linejoin="round" d="M 1166,14767 L 1316,14767"/>
 <path fill="none" stroke="rgb(179,179,179)" stroke-linejoin="round" d="M 1166,14767 L 1316,14767"/>
 <path fill="none" stroke="rgb(179,179,179)" stroke-linejoin="round" d="M 1166,12597 L 1316,12597"/>
 <path fill="none" stroke="rgb(179,179,179)" stroke-linejoin="round" d="M 1166,12597 L 1316,12597"/>
 <path fill="none" stroke="rgb(179,179,179)" stroke-linejoin="round" d="M 1166,10427 L 1316,10427"/>
 <path fill="none" stroke="rgb(179,179,179)" stroke-linejoin="round" d="M 1166,10427 L 1316,10427"/>
 <path fill="none" stroke="rgb(179,179,179)" stroke-linejoin="round" d="M 1166,8257 L 1316,8257"/>
 <path fill="none" stroke="rgb(179,179,179)" stroke-linejoin="round" d="M 1166,8257 L 1316,8257"/>
 <path fill="none" stroke="rgb(179,179,179)" stroke-linejoin="round" d="M 1166,6088 L 1316,6088"/>
 <path fill="none" stroke="rgb(179,179,179)" stroke-linejoin="round" d="M 1166,6088 L 1316,6088"/>
 <path fill="none" stroke="rgb(179,179,179)" stroke-linejoin="round" d="M 1166,3918 L 1316,3918"/>
 <path fill="none" stroke="rgb(179,179,179)" stroke-linejoin="round" d="M 1166,3918 L 1316,3918"/>
 <path fill="none" stroke="rgb(179,179,179)" stroke-linejoin="round" d="M 1166,1748 L 1316,1748"/>
 <path fill="none" stroke="rgb(179,179,179)" stroke-linejoin="round" d="M 1166,1748 L 1316,1748"/>
 <path fill="none" stroke="rgb(179,179,179)" stroke-linejoin="round" d="M 1316,23447 L 1316,1748"/>
 <path fill="none" stroke="rgb(191,0,65)" stroke-width="80" stroke-linejoin="round" stroke-dasharray="80,40" d="M 3989,1748 L 4000,1820 4125,2722 4250,4232 4374,5635 4499,6570 4624,9403 4749,8230 4874,7652 4999,11091 5124,12328 5248,10736 5373,11174 5498,11042 5623,12329 5748,12010 5873,12084 5998,11722 6122,12279 6247,12683 6372,13023 6497,14359 6622,15325 6747,15987 6872,16998 6996,17145 7121,17092 7246,16893 7371,16786 7496,17056 7621,17220 7746,17266 7870,17502 7995,17639 8120,17905 8245,19068 8370,18829 8495,18993 8620,19027 8744,19287 8869,19295 8994,19438 9119,18240 9244,18824 9369,18985 9494,19004 9618,19172 9743,19037 9868,19001 9993,19415 10118,19472 10243,19434 10367,19906 10492,19620 10617,19733 10742,19830 10867,19868 10992,20084 11117,20201 11241,20022 11366,20197 11491,20041 11616,19975 11741,19894 11865,19664 11990,19675 12114,19783 12239,20051 12364,19904 12489,19699 12614,19868 12739,19888 12864,19664 12988,19346 13113,19452 13238,19486 13363,19279 13488,19286 13613,19302 13738,18743 13862,18522 13987,17643 14112,17502 14237,17714 14362,17029 14487,16394 14612,16215 14736,16009 14861,16229 14986,15876 15111,15379 15236,15601 15361,15536 15486,15642 15610,15787 15735,15627 15860,15850 15985,16096 16110,15852 16235,15424 16360,15047 16484,14310 16609,14093 16734,14328 16859,14475 16984,14329 17109,14579 17234,15796 17358,16572 17483,16728 17608,16695 17733,16655 17858,16698 17983,16971 18108,16914 18232,16800 18357,16831 18482,16735"/>
 <path fill="none" stroke="rgb(85,48,141)" stroke-width="80" stroke-linejoin="round" stroke-dasharray="158,158" d="M 6337,1748 L 6372,3272 6497,4939 6622,4823 6747,5986 6872,6656 6996,7542 7121,7496 7246,7139 7371,7507 7496,8425 7621,8129 7746,8109 7870,8376 7995,9115 8120,9476 8245,9752 8370,9545 8495,9800 8620,8841 8744,8670 8869,8521 8994,8509 9119,8611 9244,8572 9369,8228 9494,8902 9618,8707 9743,9010 9868,9014 9993,9145 10118,9090 10243,8885 10367,8859 10492,9395 10617,9519 10742,9353 10846,1748"/>
 <path fill="none" stroke="rgb(85,48,141)" stroke-width="80" stroke-linejoin="round" stroke-dasharray="158,158" d="M 11034,1748 L 11117,2636 11241,3594 11366,4289 11491,4396 11616,5426 11741,14065 11865,14023 11990,14030 12114,14272 12239,14144 12364,14652 12489,14519 12614,14680 12739,14880 12864,15187 12988,15229 13113,14891 13238,14969 13363,15056 13488,15360 13613,15428 13738,15366 13862,15378 13987,15777 14112,15775 14237,15765 14362,15737 14487,15672 14612,15415 14736,15305 14861,15516 14986,15350 15111,15481 15236,15550 15361,14829 15486,14972 15610,15047 15735,14959 15860,15122 15985,15215 16110,15198 16235,16043 16360,16189 16484,16315 16609,16266 16734,16343 16859,16263 16984,16336 17109,16315 17234,16318 17358,16306 17483,16460 17608,16332 17733,16403 17858,16580 17983,16692 18108,16710 18232,16793 18357,16842 18482,17057"/>
 <path fill="none" stroke="rgb(0,0,255)" stroke-width="80" stroke-linejoin="round" stroke-dasharray="80,40" d="M 3968,1748 L 4000,2467 4125,3482 4250,6536 4374,7778 4499,8186 4624,8261 4749,9077 4874,9027 4999,9773 5124,10098 5248,10608 5373,11098 5498,11341 5623,12868 5748,13507 5873,15196 5998,14804 6122,14190 6247,13833 6372,14338 6497,14199 6622,14639 6747,13684 6872,13428 6996,13823 7121,13964 7246,14516 7371,14385 7496,13908 7621,15543 7746,17141 7870,18112 7995,17233 8120,17172 8245,18062 8370,18368 8495,18262 8620,18446 8744,17410 8869,18738 8994,18794 9119,18260 9244,18642 9369,18765 9494,18081 9618,18834 9743,19126 9868,19027 9993,19570 10118,19469 10243,19609 10367,19770 10492,19721 10617,19451 10742,19435 10867,18824 10992,18823 11117,18599 11241,18735 11366,18749 11491,18979 11616,19012 11741,19367 11865,19442 11990,19388 12114,19159 12239,18876 12364,18681 12489,18513 12614,18302 12739,18017 12864,17905 12988,17525 13113,17644 13238,17303 13363,16793 13488,15690 13613,14845 13738,13695 13862,13757 13987,13343 14112,12756 14237,12604 14362,13263 14487,13182 14612,13534 14736,12658 14861,12258 14986,12536 15111,12459 15236,12709 15361,12153 15486,12285 15610,12860 15735,12739 15860,13067 15985,8181 16110,7230 16235,7554 16360,8660 16484,9413 16609,9214 16734,10101 16859,15179 16984,15741 17109,15806 17234,15115 17358,14314 17483,14957 17608,14424 17733,14944 17858,16515 17983,17091 18108,17359 18232,17408 18357,17649 18482,17574"/>
 <path fill="none" stroke="rgb(255,191,0)" stroke-width="80" stroke-linejoin="round" stroke-dasharray="80,40" d="M 4346,1748 L 4374,2547 4499,3241 4624,3820 4749,3745 4874,7413 4999,9349 5124,9927 5248,10831 5373,11094 5498,11274 5623,11410 5748,11895 5873,12677 5998,13505 6122,13353 6247,13654 6372,13902 6497,14369 6622,14763 6747,14595 6872,14760 6996,15031 7121,15073 7246,15638 7371,15547 7496,15521 7621,15896 7746,16126 7870,16290 7995,16575 8120,16974 8245,18154 8370,18519 8495,18480 8620,18568 8744,18720 8869,18601 8994,18275 9119,17911 9244,18097 9369,18545 9494,18635 9618,18598 9743,18661 9868,18918 9993,19011 10118,18684 10243,18661 10367,19144 10492,19028 10617,19071 10742,19188 10867,19285 10992,19718 11117,19743 11241,19541 11366,19873 11491,19906 11616,19611 11741,19891 11865,19708 11990,19791 12114,19911 12239,20247 12364,20165 12489,20195 12614,19929 12739,20081 12864,20015 12988,20140 13113,20246 13238,20220 13363,20124 13488,19943 13613,19584 13738,19332 13862,19048 13987,18698 14112,18829 14237,19080 14362,18976 14487,19202 14612,19460 14736,19403 14861,19278 14986,19359 15111,19277 15236,19627 15361,19492 15486,19320 15610,19257 15735,19468 15860,19323 15985,19403 16110,19094 16235,18803 16360,19081 16484,18881 16609,18610 16734,18576 16859,18608 16984,18421 17109,19062 17234,18662 17358,19118 17483,18979 17608,18915 17733,18689 17858,19686 17983,19265 18108,19770 18232,19099 18357,19611 18482,19825"/>
 <path fill="none" stroke="rgb(0,169,51)" stroke-width="80" stroke-linejoin="round" stroke-dasharray="80,40" d="M 7051,1748 L 7121,2004 7246,2082 7371,4213 7496,4216 7621,3740 7746,3218 7870,5090 7995,4862 8120,4718 8245,4543 8370,5582 8495,6554 8620,8383 8744,7729 8869,8562 8994,9040 9119,10092 9244,7636 9369,6647 9494,6138 9618,6885 9743,6975 9868,6859 9993,7078 10118,10023 10243,11689 10367,12644 10492,12650 10617,12542 10742,12554 10867,12600 10992,12925 11117,13095 11241,13035 11366,13391 11491,11588 11616,11094 11741,11437 11865,11519 11990,11771 12114,11988 12239,11752 12364,13856 12489,14728 12614,15293 12739,15978 12864,16296 12988,16605 13113,16891 13238,16947 13363,17049 13488,16812 13613,16922 13738,16998 13862,17123 13987,17209 14112,17261 14237,17349 14362,17600 14487,18008 14612,18206 14736,18218 14861,18250 14986,18267 15111,18562 15236,18580 15361,18409 15486,18440 15610,18536 15735,18440 15860,18467 15985,18460 16110,18638 16235,19052 16360,19209 16484,19332 16609,19346 16734,19407 16859,19513 16984,19585 17109,19297 17234,19185 17358,19149 17483,19301 17608,19309 17733,18935 17858,18953 17983,19108 18108,19343 18232,19558 18357,19660 18482,19746"/>
 <path fill="none" stroke="rgb(0,169,51)" stroke-width="80" stroke-linejoin="round" stroke-dasharray="158,102" d="M 1378,3409 L 1503,5458 1628,6730 1752,7326 1877,7616 2002,7989 2127,8861 2252,9767 2377,10400 2502,11089 2626,12069 2751,12955 2876,13627 3001,14356 3126,14925 3251,15432 3376,16001 3500,16733 3625,17199 3750,17540 3875,17756 4000,17868 4125,17991 4250,18054 4374,18107 4499,18426 4624,18472 4749,18694 4874,18890 4999,19115 5124,19421 5248,19560 5373,19699 5498,19926 5623,20027 5748,20088 5873,20149 5998,20240 6122,20394 6247,20389 6372,20626 6497,20756 6622,20978 6747,20984 6872,21051 6996,21154 7121,21172 7246,21031 7371,20958 7496,20887 7621,20945 7746,20944 7870,20806 7995,20782 8120,21023 8245,21075 8370,21144 8495,21183 8620,21205 8744,21235 8869,21223 8994,20959 9119,20938 9244,20876 9369,20920 9494,20863 9618,20781 9743,20752 9868,20841 9993,20807 10118,20771 10243,20688 10367,20645 10492,20692 10617,20533 10742,20334 10867,20150 10992,19982 11117,19968 11241,19773 11366,19584 11491,19586 11616,19606 11741,19626 11865,19614 11990,19430 12114,19533 12239,19534 12364,19455 12489,19312 12614,19249 12739,19270 12864,19265 12988,19119 13113,19075 13238,19056 13363,19131 13488,18977 13613,18987 13738,18761 13862,18871 13987,18779 14112,18728 14237,18633 14362,18790 14487,18684 14612,18851 14736,18760 14861,18830 14986,18849 15111,18874 15236,18772 15361,18776 15486,18771 15610,18732 15735,18774 15860,18821 15985,18906 16110,18959 16235,19093 16360,19142 16484,19254 16609,19248 16734,19328 16859,19374 16984,19495 17109,19572 17234,19761 17358,19911 17483,20170 17608,20323 17733,20427 17858,20532 17983,20555 18108,20583 18232,20577 18357,20528 18482,20592"/>
 <path fill="none" stroke="rgb(255,64,0)" stroke-width="80" stroke-linejoin="round" stroke-dasharray="80,40" d="M 6845,1748 L 6872,2023 6996,3059 7121,3958 7246,4081 7371,4215 7496,5029 7621,4697 7746,5794 7870,5849 7995,5816 8120,6400 8245,7690 8370,7939 8495,8927 8620,9364 8744,9999 8869,10718 8994,11496 9119,11608 9244,11664 9369,11659 9494,12320 9618,12766 9743,12874 9868,13013 9993,13421 10118,13937 10243,14647 10367,15018 10492,15245 10617,15259 10742,15470 10867,15723 10992,15976 11117,16203 11241,16053 11366,16075 11491,16176 11616,16227 11741,16344 11865,16616 11990,16881 12114,17234 12239,17286 12364,17415 12489,17485 12614,17718 12739,17962 12864,17989 12988,17853 13113,17975 13238,17990 13363,18108 13488,18242 13613,18198 13738,18327 13862,18484 13987,18581 14112,18607 14237,18578 14362,18640 14487,18720 14612,18739 14736,18852 14861,19012 14986,18999 15111,19104 15236,19141 15361,19182 15486,19262 15610,19328 15735,19217 15860,19343 15985,19385 16110,19691 16235,19586 16360,19740 16484,19762 16609,19875 16734,19905 16859,19956 16984,19878 17109,20017 17234,20008 17358,20116 17483,20239 17608,20244 17733,20197 17858,20182 17983,20347 18108,20375 18232,20867 18357,20529 18482,20525"/>
 <path fill="none" stroke="rgb(21,132,102)" stroke-width="80" stroke-linejoin="round" stroke-dasharray="80,203,80,203,203,203" d="M 3159,1748 L 3251,3095 3376,3816 3500,4718 3625,6044 3750,6960 3875,7734 4000,9138 4125,9974 4250,11345 4374,12062 4499,12549 4624,13085 4749,13665 4874,14021 4999,14549 5124,15167 5248,15424 5373,15662 5498,15939 5623,16273 5748,16524 5873,16803 5998,16876 6122,17230 6247,17299 6372,17514 6497,17702 6622,18060 6747,18191 6872,18352 6996,18446 7121,18546 7246,18632 7371,18836 7496,18966 7621,19111 7746,19177 7870,19256 7995,19326 8120,19653 8245,19785 8370,19797 8495,19860 8620,19984 8744,20003 8869,20066 8994,19843 9119,19810 9244,19818 9369,19811 9494,19857 9618,19930 9743,19975 9868,19930 9993,19964 10118,20057 10243,20144 10367,20232 10492,20224 10617,20176 10742,20236 10867,20070 10992,20107 11117,20118 11241,19953 11366,19987 11491,19953 11616,19968 11741,20172 11865,20209 11990,20271 12114,20448 12239,20453 12364,20560 12489,20566 12614,20614 12739,20666 12864,20659 12988,20671 13113,20705 13238,20691 13363,20702 13488,20646 13613,20646 13738,20646 13862,20646 13987,20627 14112,20604 14237,20623 14362,20690 14487,20704 14612,20705 14736,20621 14861,20589 14986,20603 15111,20596 15236,20582 15361,20499 15486,20222 15610,20303 15735,20337 15860,20386 15985,20335 16110,20357 16235,20415 16360,20730 16484,20746 16609,20773 16734,20746 16859,20824 16984,20813 17109,20812 17234,20806 17358,20825 17483,20851 17608,20851 17733,20834 17858,20888 17983,20938 18108,20979 18232,20837 18357,20802 18482,20840"/>
 <path fill="none" stroke="rgb(0,223,255)" stroke-width="80" stroke-linejoin="round" stroke-dasharray="158,102" d="M 5917,1748 L 5998,2880 6122,1961 6247,1917 6372,2548 6497,3557 6622,4388 6747,5286 6872,5941 6996,6582 7121,7221 7246,8045 7371,8660 7496,8536 7621,8498 7746,8532 7870,8890 7995,8436 8120,8922 8245,8609 8370,8903 8495,8841 8620,8420 8744,8498 8869,9328 8994,8921 9119,9494 9244,9885 9369,10518 9494,12077 9618,12376 9743,12738 9868,13476 9993,13931 10118,13930 10243,14195 10367,14130 10492,15081 10617,15384 10742,15309 10867,15381 10992,15805 11117,15940 11241,16158 11366,15981 11491,16171 11616,16613 11741,17033 11865,17432 11990,18091 12114,18242 12239,18201 12364,18309 12489,18384 12614,18472 12739,18251 12864,18023 12988,18132 13113,18345 13238,18249 13363,18097 13488,17981 13613,18300 13738,18248 13862,18350 13987,18344 14112,18428 14237,18625 14362,18812 14487,18952 14612,19061 14736,19083 14861,19412 14986,19593 15111,19700 15236,19839 15361,19854 15486,19977 15610,20148 15735,20096 15860,20185 15985,20208 16110,20261 16235,20295 16360,20395 16484,20405 16609,20606 16734,20646 16859,20683 16984,20730 17109,20855 17234,20923 17358,21083 17483,20994 17608,20988 17733,21029 17858,21096 17983,21148 18108,21142 18232,21176 18357,21228 18482,21262"/>
 <path fill="none" stroke="rgb(141,40,30)" stroke-width="80" stroke-linejoin="round" stroke-dasharray="80,40" d="M 3841,1748 L 3875,2214 4000,4054 4125,4860 4250,6693 4374,8459 4499,8850 4624,9805 4749,10771 4874,11313 4999,12009 5124,12672 5248,13003 5373,13403 5498,13753 5623,14055 5748,14535 5873,15106 5998,15431 6122,15754 6247,16015 6372,16345 6497,16972 6622,17512 6747,17743 6872,17903 6996,18148 7121,18277 7246,18464 7371,18595 7496,18785 7621,19147 7746,19422 7870,19516 7995,19616 8120,19766 8245,20220 8370,20300 8495,20359 8620,20443 8744,20543 8869,20570 8994,20476 9119,20348 9244,20606 9369,20709 9494,20830 9618,20973 9743,21045 9868,21168 9993,21229 10118,21286 10243,21359 10367,21422 10492,21405 10617,21466 10742,21522 10867,21576 10992,21653 11117,21733 11241,21805 11366,21870 11491,21883 11616,21890 11741,21899 11865,21905 11990,21968 12114,21997 12239,22045 12364,22060 12489,22072 12614,22121 12739,22156 12864,22104 12988,22097 13113,22181 13238,22167 13363,22175 13488,22016 13613,21968 13738,21880 13862,21829 13987,21692 14112,21645 14237,21637 14362,21752 14487,21724 14612,21756 14736,21737 14861,21689 14986,21696 15111,21662 15236,21616 15361,21553 15486,21513 15610,21463 15735,21466 15860,21462 15985,21282 16110,21220 16235,21171 16360,21160 16484,21141 16609,21094 16734,21122 16859,21311 16984,21327 17109,21366 17234,21373 17358,21390 17483,21415 17608,21390 17733,21401 17858,21505 17983,21485 18108,21547 18232,21535 18357,21561 18482,21552"/>
 <path fill="none" stroke="rgb(255,0,0)" stroke-width="80" stroke-linejoin="round" stroke-dasharray="158,102" d="M 4168,1748 L 4250,3060 4374,4710 4499,6492 4624,8034 4749,9365 4874,10570 4999,11548 5124,12464 5248,13342 5373,14287 5498,15051 5623,15788 5748,16361 5873,17061 5998,17705 6122,18204 6247,18477 6372,18681 6497,18835 6622,18990 6747,19084 6872,19141 6996,19303 7121,19388 7246,19718 7371,20047 7496,20481 7621,20825 7746,21081 7870,21200 7995,21350 8120,21386 8245,21400 8370,21298 8495,21281 8620,21285 8744,21361 8869,21447 8994,21519 9119,21591 9244,21703 9369,21802 9494,21909 9618,21966 9743,21993 9868,22039 9993,22083 10118,22156 10243,22200 10367,22233 10492,22303 10617,22383 10742,22396 10867,22409 10992,22395 11117,22362 11241,22293 11366,22224 11491,22155 11616,22106 11741,22021 11865,21982 11990,21989 12114,22031 12239,22081 12364,22158 12489,22216 12614,22318 12739,22367 12864,22406 12988,22410 13113,22388 13238,22357 13363,22377 13488,22355 13613,22334 13738,22329 13862,22300 13987,22296 14112,22300 14237,22279 14362,22275 14487,22321 14612,22300 14736,22346 14861,22383 14986,22411 15111,22430 15236,22450 15361,22437 15486,22465 15610,22476 15735,22487 15860,22482 15985,22485 16110,22512 16235,22554 16360,22581 16484,22583 16609,22562 16734,22557 16859,22545 16984,22524 17109,22488 17234,22498 17358,22516 17483,22542 17608,22568 17733,22608 17858,22633 17983,22644 18108,22593 18232,22543 18357,22508 18482,22481"/>
 <path fill="none" stroke="rgb(89,131,176)" stroke-width="80" stroke-linejoin="round" d="M 3102,1748 L 3126,2392 3251,5766 3376,5012 3500,7036 3625,10902 3750,8225 3875,10022 4000,12741 4125,11455 4250,13203 4374,13655 4499,13977 4624,17692 4749,17723 4874,18805 4999,19867 5124,21048 5248,21287 5373,21287 5498,21541 5623,21550 5748,21560 5873,22000 5998,21793 6122,21801 6247,21801 6372,21418 6497,20822 6622,20834 6747,20447 6872,20659 6996,20870 7121,20870 7246,21703 7371,22495 7496,22499 7621,22885 7746,22885 7870,22885 7995,22885 8120,23074 8245,23074 8370,23261 8495,23262 8620,23262 8744,23262 8869,23262 8994,23262 9119,23077 9244,23077 9369,23079 9494,23079 9618,23079 9743,23079 9868,22895 9993,23080 10118,23080 10243,22717 10367,22717 10492,22717 10617,22717 10742,22902 10867,22902 10992,22720 11117,23088 11241,23088 11366,23088 11491,23088 11616,22370 11741,22370 11865,22375 11990,22557 12114,22557 12239,22557 12364,22557 12489,23271 12614,23097 12739,23098 12864,23098 12988,23098 13113,23098 13238,23098 13363,23098 13488,23273 13613,23447 13738,23274 13862,23274 13987,23274 14112,23274 14237,23101 14362,23101 14487,23101 14612,23102 14736,22930 14861,22930 14986,22930 15111,23103 15236,23103 15361,23103 15486,23276 15610,23447 15735,23447 15860,23447 15985,23447 16110,23447 16235,23447 16360,23447 16484,23447 16609,23447 16734,23447 16859,23276 16984,23276 17109,23276 17234,23276 17358,23276 17483,23276 17608,23276 17733,23447 17858,23447 17983,23447 18108,23277 18232,22599 18357,22599 18482,22599"/>
 <path fill="none" stroke="rgb(255,211,32)" stroke-width="80" stroke-linejoin="round" d="M 3271,1748 L 3376,3753 3500,5953 3625,8352 3750,7969 3875,12664 4000,12467 4125,12918 4250,13161 4374,14575 4499,15513 4624,16959 4749,17833 4874,19482 4999,18073 5124,18174 5248,18071 5373,17923 5498,17803 5623,17711 5748,16755 5873,17194 5998,17479 6122,17955 6247,17846 6372,18280 6497,19056 6622,18808 6747,19749 6872,19949 6996,20302 7121,20657 7246,21138 7371,20533 7496,21351 7621,21521 7746,20945 7870,20807 7995,20971 8120,20524 8245,21291 8370,21591 8495,21603 8620,22473 8744,22755 8869,22758 8994,22899 9119,22625 9244,22351 9369,22494 9494,22358 9618,22358 9743,22497 9868,22500 9993,22775 10118,22779 10243,23180 10367,23181 10492,23314 10617,23181 10742,23182 10867,23050 10992,23052 11117,22653 11241,22655 11366,22388 11491,22523 11616,22657 11741,22398 11865,22143 11990,22017 12114,21633 12239,21767 12364,21896 12489,21896 12614,22166 12739,22687 12864,22440 12988,22949 13113,23198 13238,23447 13363,23197 13488,23198 13613,23198 13696,23447"/>
 <path fill="none" stroke="rgb(255,211,32)" stroke-width="80" stroke-linejoin="round" d="M 13925,23447 L 13987,23323 14112,22948 14237,23074 14362,22952 14487,22952 14612,23077 14736,22707 14861,22707 14986,22583 15111,22709 15236,22835 15361,22346 15486,22224 15610,22113 15735,22113 15860,21996 15985,21754 16110,21759 16235,22254 16360,21782 16484,21918 16609,21800 16734,21926 16859,21934 16984,22402 17109,21822 17234,22187 17358,22651 17483,22767 17608,22768 17733,22997 17858,22540 17983,23111 18108,23335 18232,22889 18357,22777 18482,22668"/>
 <path fill="none" stroke="rgb(0,169,51)" stroke-width="80" stroke-linejoin="round" d="M 3072,1748 L 3126,4371 3251,6529 3376,8210 3500,9796 3625,10800 3750,11418 3875,11354 4000,10527 4125,11592 4250,13478 4374,14335 4499,14805 4624,16152 4749,16552 4874,17490 4999,18292 5124,18615 5248,18588 5373,18962 5498,19415 5623,20624 5748,21351 5873,21589 5998,21604 6122,22063 6247,21995 6372,22000 6497,22229 6622,22304 6747,22235 6872,22457 6996,22459 7121,22674 7246,22817 7371,22820 7496,22821 7621,22961 7746,22963 7870,22757 7995,22688 8120,22619 8245,22691 8370,22624 8495,21047 8620,21191 8744,21477 8869,21548 8994,21618 9119,21692 9244,21764 9369,23317 9494,23187 9618,23187 9743,23187 9868,23187 9993,23252 10118,23252 10243,23187 10367,23253 10492,23124 10617,23124 10742,23059 10867,22865 10992,22544 11117,22545 11241,22611 11366,22741 11491,22613 11616,22678 11741,22682 11865,23067 11990,22816 12114,22816 12239,22690 12364,22692 12489,22629 12614,22695 12739,22695 12864,23011 12988,23011 13113,23137 13238,23199 13363,23261 13488,23385 13613,23385 13738,23385 13862,23385 13987,23385 14112,23324 14237,23324 14362,23262 14487,23201 14612,23139 14736,23139 14861,23139 14986,23263 15111,23263 15236,23385 15361,23385 15486,23447 15610,23447 15735,23385 15860,23385 15985,23324 16110,23263 16235,23141 16360,23019 16484,23019 16609,23081 16734,23081 16859,23142 16984,23081 17109,23265 17234,23386 17358,23326 17483,23265 17608,23265 17733,23144 17858,23205 17983,23145 18108,23084 18232,23145 18357,23025 18482,23025"/>
 <path fill="none" stroke="rgb(0,0,255)" stroke-width="80" stroke-linejoin="round" stroke-dasharray="51,127,51,127,254,127,254,127,254,127" d="M 2702,1748 L 2751,2189 2876,3961 3001,6725 3126,6642 3251,8130 3376,9072 3500,9935 3625,10798 3750,11444 3875,11880 4000,13444 4125,14240 4250,15058 4374,15326 4499,15839 4624,16294 4749,16847 4874,17252 4999,17825 5124,18490 5248,18711 5373,18973 5498,19263 5623,19569 5748,19727 5873,19896 5998,19821 6122,20208 6247,20319 6372,20465 6497,20536 6622,20875 6747,20932 6872,21136 6996,21253 7121,21153 7246,21277 7371,21579 7496,21709 7621,21931 7746,21847 7870,21875 7995,22097 8120,22857 8245,22703 8370,22789 8495,22848 8620,23090 8744,23119 8869,23158 8994,22538 9119,22675 9244,22712 9369,22747 9494,22768 9618,22819 9743,22837 9868,22824 9993,22830 10118,22863 10243,22899 10367,22950 10492,22957 10617,22963 10742,22994 10867,23015 10992,23011 11117,22996 11241,22604 11366,22623 11491,22639 11616,22650 11741,22669 11865,22723 11990,22748 12114,23136 12239,23165 12364,23165 12489,23155 12614,23164 12739,23155 12864,23149 12988,23172 13113,23161 13238,23166 13363,23178 13488,23193 13613,23203 13738,23208 13862,23215 13987,23222 14112,23225 14237,23226 14362,23237 14487,23214 14612,23224 14736,23227 14861,23230 14986,23231 15111,23229 15236,23235 15361,23260 15486,23263 15610,23263 15735,23262 15860,23254 15985,23269 16110,23260 16235,23258 16360,23256 16484,23251 16609,23246 16734,23247 16859,23234 16984,23221 17109,23216 17234,23214 17358,23213 17483,23204 17608,23203 17733,23186 17858,23206 17983,23193 18108,23180 18232,23175 18357,23126 18482,23124"/>
 <path fill="none" stroke="rgb(128,0,128)" stroke-width="80" stroke-linejoin="round" d="M 2366,1748 L 2377,2062 2502,4522 2626,6523 2751,7764 2876,9085 3001,11053 3126,11958 3251,12579 3376,12864 3500,14464 3625,15265 3750,15879 3875,15692 4000,16466 4125,17061 4250,17974 4374,17256 4499,17639 4624,17891 4749,18267 4874,18335 4999,18773 5124,19556 5248,19281 5373,19565 5498,19928 5623,20184 5748,20618 5873,20746 5998,20341 6122,21064 6247,21115 6372,21200 6497,21232 6622,21353 6747,21364 6872,21532 6996,21668 7121,21911 7246,21881 7371,22063 7496,22191 7621,22463 7746,21599 7870,21691 7995,21574 8067,23447"/>
 <path fill="none" stroke="rgb(128,0,128)" stroke-width="80" stroke-linejoin="round" d="M 8974,23447 L 8994,22973 9119,23430 9244,23429 9369,23424 9494,23426 9618,23431 9743,23432 9868,23432 9993,23432 10118,23434 10243,23442 10367,23443 10492,23445 10617,23447 10742,23447 10867,23447 10992,23447 11117,23447 11241,21561 11366,21550 11491,21548 11616,21546 11741,21545 11865,21542 11990,21537 12114,23411 12239,23417 12364,23416 12489,23413 12614,23401 12739,23390 12864,23388 12988,23375 13113,23379 13238,23382 13363,23382 13488,23390 13613,23398 13738,23396 13862,23419 13987,23419 14112,23419 14237,23419 14362,23421 14487,23421 14612,23424 14736,23421 14861,23421 14986,23421 15111,23422 15236,23424 15361,23427 15486,23427 15610,23428 15735,23428 15860,23428 15985,23428 16110,23428 16235,23424 16360,23425 16484,23427 16609,23427 16734,23427 16859,23388 16984,23352 17109,23358 17234,23360 17358,23358 17483,23358 17608,23358 17733,23288 17858,23320 17983,23325 18108,23287 18232,23273 18357,23273 18482,23273"/>
 <path fill="none" stroke="rgb(85,48,141)" stroke-width="80" stroke-linejoin="round" stroke-dasharray="80,40" d="M 4929,1748 L 4999,2745 5124,2940 5248,4659 5373,5551 5498,5696 5623,5887 5748,6789 5873,7307 5998,9214 6122,10029 6247,9770 6372,11391 6497,11950 6622,12920 6747,13402 6872,14373 6996,14655 7121,15516 7246,16277 7371,17485 7496,17647 7621,18208 7746,18242 7870,18463 7995,18807 8120,18386 8245,18227 8370,18323 8495,18495 8620,18649 8744,18795 8869,17867 8994,18562 9119,18787 9244,19009 9369,18878 9494,19053 9618,19257 9743,20486 9868,20480 9993,20591 10118,20818 10243,21456 10367,21510 10492,21605 10617,21568 10742,21702 10867,21807 10992,21967 11117,21887 11241,21935 11366,21946 11491,22052 11616,22043 11741,22182 11865,22235 11990,22377 12114,22605 12239,22883 12364,22935 12489,22762 12614,22743 12739,22766 12864,22773 12988,22682 13113,22657 13238,22653 13363,22843 13488,22870 13613,22906 13738,22963 13862,23004 13987,23019 14112,23000 14237,23010 14362,23050 14487,23096 14612,23062 14736,23087 14861,23082 14986,23117 15111,23122 15236,23137 15361,23172 15486,23231 15610,23256 15735,23266 15860,23261 15985,23237 16110,23208 16235,23208 16360,23179 16484,23169 16609,23169 16734,23174 16859,23204 16984,23214 17109,23214 17234,23258 17358,23268 17483,23263 17608,23263 17733,23258 17858,23287 17983,23244 18108,23206 18232,23201 18357,23216 18482,23225"/>
 <path fill="none" stroke="rgb(255,128,0)" stroke-width="80" stroke-linejoin="round" d="M 3643,1748 L 3750,3340 3875,4462 4000,5534 4125,7517 4250,8201 4374,9805 4499,10357 4624,11253 4749,12514 4874,13055 4999,13507 5124,14464 5248,15190 5373,15523 5498,15725 5623,16379 5748,16834 5873,17221 5998,17567 6122,18123 6247,18252 6372,18420 6497,18629 6622,18956 6747,19192 6872,19613 6996,19470 7121,19638 7246,19733 7371,19913 7496,20132 7621,20291 7746,20361 7870,20651 7995,20326 8120,20388 8245,20940 8370,20878 8495,20808 8620,20816 8744,20899 8869,21309 8994,21329 9119,21115 9244,21232 9369,21526 9494,21561 9618,21598 9743,21646 9868,21713 9993,21767 10118,21907 10243,21941 10367,22120 10492,22152 10617,22198 10742,22218 10867,22285 10992,22361 11117,22381 11241,22418 11366,22478 11491,22471 11616,22497 11741,22569 11865,22604 11990,22594 12114,22587 12239,22620 12364,22628 12489,22617 12614,22635 12739,22616 12864,22679 12988,22730 13113,22765 13238,22779 13363,22788 13488,22792 13613,22844 13738,22849 13862,22937 13987,22858 14112,22860 14237,22865 14362,22883 14487,22925 14612,22944 14736,22881 14861,22987 14986,22982 15111,22981 15236,23009 15361,23016 15486,23029 15610,23021 15735,23002 15860,23014 15985,23019 16110,23012 16235,23009 16360,23023 16484,23027 16609,23016 16734,23021 16859,23020 16984,23115 17109,23067 17234,23057 17358,23078 17483,23097 17608,23097 17733,23150 17858,23072 17983,23127 18108,23173 18232,23265 18357,23316 18482,23324"/>
 <path fill="none" stroke="rgb(52,42,6)" stroke-width="80" stroke-linejoin="round" d="M 3900,1748 L 4000,6619 4125,7135 4250,9406 4374,9646 4499,10293 4624,12165 4749,12401 4874,13680 4999,15288 5124,16093 5248,16542 5373,16983 5498,17304 5623,18779 5748,18024 5873,18407 5998,18460 6122,18751 6247,19003 6372,19301 6497,18823 6622,19951 6747,20558 6872,21210 6996,21210 7121,21193 7246,21509 7371,21523 7496,21884 7621,21690 7746,21627 7870,21681 7995,21697 8120,21787 8245,21884 8370,21933 8495,22034 8620,21991 8744,22033 8869,22100 8994,22162 9119,22456 9244,22550 9369,22601 9494,22661 9618,22719 9743,22710 9868,22736 9993,22570 10118,22690 10243,22758 10367,22820 10492,22846 10617,22867 10742,22887 10867,23029 10992,22956 11117,22937 11241,22933 11366,22943 11491,22983 11616,22993 11741,22984 11865,23069 11990,23129 12114,23066 12239,23090 12364,23090 12489,23071 12614,23076 12739,23121 12864,23126 12988,23229 13113,23195 13238,23180 13363,23224 13488,23244 13613,23200 13738,23201 13862,23191 13987,23206 14112,23216 14237,23196 14362,23225 14487,23283 14612,23303 14736,23327 14861,23346 14986,23346 15111,23351 15236,23346 15361,23341 15486,23337 15610,23294 15735,23289 15860,23294 15985,23299 16110,23294 16235,23289 16360,23285 16484,23318 16609,23304 16734,23304 16859,23309 16984,23294 17109,23237 17234,23271 17358,23219 17483,23224 17608,23219 17733,23214 17858,23233 17983,23286 18108,23276 18232,23281 18357,23286 18482,23291"/>
 <path fill="none" stroke="rgb(180,120,4)" stroke-width="80" stroke-linejoin="round" d="M 2935,1748 L 3001,2923 3126,5331 3251,8065 3376,7809 3500,9092 3625,10412 3750,11417 3875,13141 4000,12913 4125,13577 4250,14792 4374,14415 4499,15256 4624,15935 4749,15939 4874,16778 4999,17058 5124,17308 5248,17528 5373,17070 5498,16738 5623,16547 5748,17274 5873,17493 5998,17597 6122,18787 6247,19411 6372,19925 6497,21376 6622,21131 6747,21504 6872,22199 6996,22044 7121,21970 7246,22225 7371,21470 7496,21737 7621,21507 7746,21507 7870,22008 7995,22256 8120,22259 8245,22501 8370,22585 8495,22905 8620,22905 8744,22673 8869,22520 8994,22444 9119,22136 9244,22294 9369,22377 9494,22071 9618,22230 9743,22312 9868,22166 9993,22474 10118,22474 10243,22626 10367,22854 10492,22707 10617,22857 10742,23081 10867,23081 10992,23081 11117,22934 11241,23008 11366,23228 11491,23228 11616,23156 11741,23084 11865,23084 11990,23230 12114,23157 12239,23157 12364,23157 12489,23230 12614,23303 12739,23231 12864,23231 12988,23303 13113,23303 13238,23303 13363,23303 13488,23160 13613,23232 13738,23232 13862,23232 13987,23232 14112,23232 14237,23232 14362,23375 14487,23375 14612,23375 14736,23304 14861,23304 14986,23304 15111,23375 15236,23375 15361,23375 15486,23304 15610,23304 15735,23304 15860,23304 15985,23304 16110,23304 16235,23233 16360,23234 16484,23305 16609,23305 16734,23305 16859,23234 16984,23234 17109,23305 17234,23305 17358,23305 17483,23305 17608,23305 17733,23165 17858,23094 17983,23094 18108,23165 18232,23165 18357,23165 18482,23165"/>
 <path fill="none" stroke="rgb(112,110,12)" stroke-width="80" stroke-linejoin="round" stroke-dasharray="80,40" d="M 3506,1748 L 3625,6554 3750,8733 3875,10273 4000,11622 4125,12349 4250,14175 4374,16057 4499,14787 4624,15360 4749,16232 4874,16554 4999,17339 5124,17853 5248,18241 5373,18564 5498,18904 5623,19065 5748,18925 5873,19247 5998,19399 6122,19565 6247,19795 6372,20105 6497,20249 6622,20911 6747,21042 6872,21153 6996,21249 7121,21338 7246,21526 7371,21565 7496,21711 7621,21829 7746,22089 7870,22072 7995,22139 8120,22125 8245,22343 8370,22247 8495,22333 8620,22331 8744,22487 8869,22526 8994,22479 9119,22491 9244,22681 9369,22545 9494,22613 9618,22669 9743,22622 9868,22738 9993,22765 10118,22735 10243,22876 10367,22748 10492,22792 10617,22888 10742,22924 10867,22896 10992,22973 11117,22983 11241,23169 11366,23085 11491,23073 11616,23068 11741,23059 11865,23058 11990,23035 12114,23039 12239,23125 12364,23168 12489,23190 12614,23178 12739,23200 12864,23227 12988,23153 13113,23149 13238,23089 13363,23096 13488,23161 13613,23165 13738,23150 13862,23185 13987,23195 14112,23252 14237,23209 14362,23224 14487,23210 14612,23227 14736,23269 14861,23265 14986,23252 15111,23298 15236,23297 15361,23271 15486,23249 15610,23269 15735,23273 15860,23266 15985,23261 16110,23269 16235,23313 16360,23328 16484,23323 16609,23332 16734,23340 16859,23348 16984,23351 17109,23319 17234,23350 17358,23352 17483,23348 17608,23362 17733,23364 17858,23364 17983,23390 18108,23382 18232,23358 18357,23360 18482,23359"/>
 <path fill="none" stroke="rgb(241,13,12)" stroke-width="80" stroke-linejoin="round" d="M 4303,1748 L 4374,3887 4499,5017 4624,4384 4749,8940 4874,11684 4999,11314 5124,13343 5248,14002 5373,13853 5498,13999 5623,14250 5748,15003 5873,15827 5998,14907 6122,14487 6247,14601 6372,15813 6497,16467 6622,15788 6747,16465 6872,17008 6996,17327 7121,17337 7246,17555 7371,17814 7496,18793 7621,19241 7746,20125 7870,19690 7995,19683 8120,19562 8245,19017 8370,19040 8495,19018 8620,18747 8744,19065 8869,19137 8994,19418 9119,19838 9244,20135 9369,20435 9494,20563 9618,20869 9743,20840 9868,20578 9993,21028 10118,21029 10243,21049 10367,21435 10492,21414 10617,21444 10742,21625 10867,21404 10992,21220 11117,21292 11241,21202 11366,21354 11491,21336 11616,21397 11741,21496 11865,22000 11990,21926 12114,21959 12239,21994 12364,22011 12489,21854 12614,22000 12739,22105 12864,21945 12988,22296 13113,22296 13238,22296 13363,22441 13488,22519 13613,22541 13738,22733 13862,22598 13987,22598 14112,22598 14237,22624 14362,22666 14487,22734 14612,22713 14736,22716 14861,22716 14986,22716 15111,22639 15236,22656 15361,22707 15486,22802 15610,22844 15735,22844 15860,22844 15985,22977 16110,23016 16235,22964 16360,22965 16484,23096 16609,23096 16734,23096 16859,23111 16984,23104 17109,23219 17234,23242 17358,23295 17483,23295 17608,23295 17733,23280 17858,23273 17983,23341 18108,23371 18232,23296 18357,23296 18482,23296"/>
 <path fill="none" stroke="rgb(0,255,0)" stroke-width="80" stroke-linejoin="round" d="M 2850,1748 L 2876,2286 3001,4787 3126,6766 3251,8203 3376,9371 3500,9539 3625,12185 3750,12350 3875,12209 4000,13989 4125,14367 4250,14878 4374,16118 4499,16686 4624,16279 4749,16957 4874,17493 4999,18179 5124,18940 5248,19022 5373,19349 5498,20345 5623,20994 5748,21196 5873,21623 5998,21739 6122,21772 6247,21698 6372,21963 6497,21706 6622,21884 6747,21960 6872,22137 6996,22284 7121,22310 7246,22482 7371,22889 7496,22936 7621,22844 7746,22869 7870,22846 7995,22870 8120,22825 8245,22896 8370,22873 8495,22966 8620,23082 8744,23128 8869,23128 8994,23288 9119,23333 9244,23356 9369,23401 9494,23401 9618,23401 9743,23424 9868,23379 9993,23130 10118,23108 10243,23085 10367,23062 10492,23062 10617,23062 10742,23085 10867,22998 10992,22998 11117,23021 11241,23043 11366,23043 11491,23043 11616,23066 11741,23402 11865,23402 11990,23402 12114,23313 12239,23313 12364,23313 12489,23313 12614,23291 12739,23291 12864,23291 12988,23380 13113,23380 13238,23380 13363,23380 13488,23380 13613,23424 13738,23424 13862,23424 13987,23380 14112,23380 14237,23380 14362,23402 14487,23402 14612,23380 14736,23380 14861,23424 14986,23424 15111,23380 15236,23358 15361,23358 15486,23314 15610,23270 15735,23270 15860,23270 15985,23292 16110,23314 16235,23292 16360,23337 16484,23359 16609,23359 16734,23359 16859,23381 16984,23381 17109,23337 17234,23337 17358,23337 17483,23337 17608,23337 17733,23315 17858,23249 17983,23293 18108,23315 18232,23337 18357,23337 18482,23337"/>
 <path fill="none" stroke="rgb(0,0,255)" stroke-width="80" stroke-linejoin="round" stroke-dasharray="158,158" d="M 1378,10014 L 1503,10858 1628,12518 1752,13501 1877,14595 2002,15755 2127,15409 2252,14240 2377,14458 2502,14966 2626,15110 2751,16095 2876,16213 3001,16665 3126,18022 3251,18128 3376,18856 3500,19127 3625,19390 3750,19647 3875,20514 4000,20939 4125,21362 4250,21560 4374,21576 4499,21777 4624,21975 4749,21798 4874,21805 4999,22000 5124,21638 5248,22012 5373,21839 5498,21668 5623,21859 5748,21865 5873,22047 5998,22405 6122,22405 6247,22758 6372,22763 6497,22766 6622,22768 6747,22768 6872,22429 6996,22429 7121,22260 7246,22605 7371,22776 7496,22779 7621,22779 7746,22784 7870,22784 7995,22786 8120,22456 8245,22456 8370,22625 8495,22625 8620,22957 8744,22794 8869,22796 8994,22962 9119,22801 9244,22801 9369,22801 9494,22801 9618,22964 9743,23126 9868,23127 9993,22970 10118,22970 10243,22811 10367,22811 10492,22811 10617,22811 10742,22813 10867,22975 10992,22818 11117,22976 11241,22976 11366,22976 11491,22976 11616,22978 11741,23135 11865,23137 11990,23137 12114,23137 12239,23137 12364,23137 12489,23292 12614,23292 12739,23447 12864,23447 12988,23293 13113,23293 13238,23139 13363,22985 13488,22985 13613,22677 13738,22523 13862,22680 13987,22526 14112,22682 14237,22837 14362,22837 14487,22842 14612,22693 14736,22542 14861,22545 14986,22395 15111,22395 15236,22245 15361,22552 15486,22706 15610,22856 15735,23005 15860,23007 15985,22860 16110,23008 16235,23008 16360,23010 16484,23010 16609,23010 16734,23156 16859,23302 16984,23157 17109,23157 17234,23158 17358,23014 17483,22870 17608,22870 17733,22870 17858,23015 17983,23015 18108,23160 18232,23304 18357,23447 18482,23447"/>
 <path fill="none" stroke="rgb(0,127,255)" stroke-width="80" stroke-linejoin="round" d="M 1822,1748 L 1877,2881 2002,4981 2127,7038 2252,8555 2377,9836 2502,11126 2626,11847 2751,12488 2876,13092 3001,13462 3126,13680 3251,14208 3376,14476 3500,15067 3625,15244 3750,15708 3875,16069 4000,16549 4125,16832 4250,17295 4374,17548 4499,17973 4624,18294 4749,18673 4874,18953 4999,19339 5124,19658 5248,19620 5373,19798 5498,20065 5623,20344 5748,20308 5873,20357 5998,20426 6122,20899 6247,20928 6372,20969 6497,21084 6622,21367 6747,21404 6872,21422 6996,21493 7121,21532 7246,21656 7371,21680 7496,21739 7621,21900 7746,22065 7870,22118 7995,22254 8120,22267 8245,22386 8370,22450 8495,22570 8620,22631 8744,22644 8869,22613 8994,22657 9119,22689 9244,22752 9369,22730 9494,22735 9618,22788 9743,22818 9868,22813 9993,22782 10118,22784 10243,22831 10367,22870 10492,22863 10617,22875 10742,22926 10867,22985 10992,23022 11117,23006 11241,23018 11366,23056 11491,23081 11616,23085 11741,23106 11865,23200 11990,23240 12114,23262 12239,23314 12364,23316 12489,23338 12614,23331 12739,23266 12864,23271 12988,23290 13113,23274 13238,23293 13363,23290 13488,23282 13613,23289 13738,23312 13862,23316 13987,23333 14112,23331 14237,23325 14362,23341 14487,23343 14612,23333 14736,23335 14861,23326 14986,23334 15111,23334 15236,23336 15361,23341 15486,23354 15610,23361 15735,23372 15860,23370 15985,23380 16110,23385 16235,23388 16360,23397 16484,23392 16609,23392 16734,23388 16859,23380 16984,23387 17109,23382 17234,23379 17358,23386 17483,23376 17608,23384 17733,23393 17858,23392 17983,23392 18108,23392 18232,23392 18357,23213 18482,23211"/>
 <text class="TextShape" transform="rotate(-90 1472 24375)"><tspan class="TextParagraph" font-family="Liberation Sans, sans-serif" font-size="282px" font-weight="400"><tspan class="TextPosition" x="1472" y="24375"><tspan fill="rgb(0,0,0)" stroke="none">01.04</tspan></tspan></tspan></text>
 <text class="TextShape" transform="rotate(-90 1846 24375)"><tspan class="TextParagraph" font-family="Liberation Sans, sans-serif" font-size="282px" font-weight="400"><tspan class="TextPosition" x="1846" y="24375"><tspan fill="rgb(0,0,0)" stroke="none">04.04</tspan></tspan></tspan></text>
 <text class="TextShape" transform="rotate(-90 2221 24375)"><tspan class="TextParagraph" font-family="Liberation Sans, sans-serif" font-size="282px" font-weight="400"><tspan class="TextPosition" x="2221" y="24375"><tspan fill="rgb(0,0,0)" stroke="none">07.04</tspan></tspan></tspan></text>
 <text class="TextShape" transform="rotate(-90 2596 24375)"><tspan class="TextParagraph" font-family="Liberation Sans, sans-serif" font-size="282px" font-weight="400"><tspan class="TextPosition" x="2596" y="24375"><tspan fill="rgb(0,0,0)" stroke="none">10.04</tspan></tspan></tspan></text>
 <text class="TextShape" transform="rotate(-90 2970 24375)"><tspan class="TextParagraph" font-family="Liberation Sans, sans-serif" font-size="282px" font-weight="400"><tspan class="TextPosition" x="2970" y="24375"><tspan fill="rgb(0,0,0)" stroke="none">13.04</tspan></tspan></tspan></text>
 <text class="TextShape" transform="rotate(-90 3345 24375)"><tspan class="TextParagraph" font-family="Liberation Sans, sans-serif" font-size="282px" font-weight="400"><tspan class="TextPosition" x="3345" y="24375"><tspan fill="rgb(0,0,0)" stroke="none">16.04</tspan></tspan></tspan></text>
 <text class="TextShape" transform="rotate(-90 3719 24375)"><tspan class="TextParagraph" font-family="Liberation Sans, sans-serif" font-size="282px" font-weight="400"><tspan class="TextPosition" x="3719" y="24375"><tspan fill="rgb(0,0,0)" stroke="none">19.04</tspan></tspan></tspan></text>
 <text class="TextShape" transform="rotate(-90 4094 24375)"><tspan class="TextParagraph" font-family="Liberation Sans, sans-serif" font-size="282px" font-weight="400"><tspan class="TextPosition" x="4094" y="24375"><tspan fill="rgb(0,0,0)" stroke="none">22.04</tspan></tspan></tspan></text>
 <text class="TextShape" transform="rotate(-90 4468 24375)"><tspan class="TextParagraph" font-family="Liberation Sans, sans-serif" font-size="282px" font-weight="400"><tspan class="TextPosition" x="4468" y="24375"><tspan fill="rgb(0,0,0)" stroke="none">25.04</tspan></tspan></tspan></text>
 <text class="TextShape" transform="rotate(-90 4843 24375)"><tspan class="TextParagraph" font-family="Liberation Sans, sans-serif" font-size="282px" font-weight="400"><tspan class="TextPosition" x="4843" y="24375"><tspan fill="rgb(0,0,0)" stroke="none">28.04</tspan></tspan></tspan></text>
 <text class="TextShape" transform="rotate(-90 5218 24375)"><tspan class="TextParagraph" font-family="Liberation Sans, sans-serif" font-size="282px" font-weight="400"><tspan class="TextPosition" x="5218" y="24375"><tspan fill="rgb(0,0,0)" stroke="none">01.05</tspan></tspan></tspan></text>
 <text class="TextShape" transform="rotate(-90 5592 24375)"><tspan class="TextParagraph" font-family="Liberation Sans, sans-serif" font-size="282px" font-weight="400"><tspan class="TextPosition" x="5592" y="24375"><tspan fill="rgb(0,0,0)" stroke="none">04.05</tspan></tspan></tspan></text>
 <text class="TextShape" transform="rotate(-90 5967 24375)"><tspan class="TextParagraph" font-family="Liberation Sans, sans-serif" font-size="282px" font-weight="400"><tspan class="TextPosition" x="5967" y="24375"><tspan fill="rgb(0,0,0)" stroke="none">07.05</tspan></tspan></tspan></text>
 <text class="TextShape" transform="rotate(-90 6341 24375)"><tspan class="TextParagraph" font-family="Liberation Sans, sans-serif" font-size="282px" font-weight="400"><tspan class="TextPosition" x="6341" y="24375"><tspan fill="rgb(0,0,0)" stroke="none">10.05</tspan></tspan></tspan></text>
 <text class="TextShape" transform="rotate(-90 6716 24375)"><tspan class="TextParagraph" font-family="Liberation Sans, sans-serif" font-size="282px" font-weight="400"><tspan class="TextPosition" x="6716" y="24375"><tspan fill="rgb(0,0,0)" stroke="none">13.05</tspan></tspan></tspan></text>
 <text class="TextShape" transform="rotate(-90 7090 24375)"><tspan class="TextParagraph" font-family="Liberation Sans, sans-serif" font-size="282px" font-weight="400"><tspan class="TextPosition" x="7090" y="24375"><tspan fill="rgb(0,0,0)" stroke="none">16.05</tspan></tspan></tspan></text>
 <text class="TextShape" transform="rotate(-90 7465 24375)"><tspan class="TextParagraph" font-family="Liberation Sans, sans-serif" font-size="282px" font-weight="400"><tspan class="TextPosition" x="7465" y="24375"><tspan fill="rgb(0,0,0)" stroke="none">19.05</tspan></tspan></tspan></text>
 <text class="TextShape" transform="rotate(-90 7840 24375)"><tspan class="TextParagraph" font-family="Liberation Sans, sans-serif" font-size="282px" font-weight="400"><tspan class="TextPosition" x="7840" y="24375"><tspan fill="rgb(0,0,0)" stroke="none">22.05</tspan></tspan></tspan></text>
 <text class="TextShape" transform="rotate(-90 8214 24375)"><tspan class="TextParagraph" font-family="Liberation Sans, sans-serif" font-size="282px" font-weight="400"><tspan class="TextPosition" x="8214" y="24375"><tspan fill="rgb(0,0,0)" stroke="none">25.05</tspan></tspan></tspan></text>
 <text class="TextShape" transform="rotate(-90 8589 24375)"><tspan class="TextParagraph" font-family="Liberation Sans, sans-serif" font-size="282px" font-weight="400"><tspan class="TextPosition" x="8589" y="24375"><tspan fill="rgb(0,0,0)" stroke="none">28.05</tspan></tspan></tspan></text>
 <text class="TextShape" transform="rotate(-90 8963 24375)"><tspan class="TextParagraph" font-family="Liberation Sans, sans-serif" font-size="282px" font-weight="400"><tspan class="TextPosition" x="8963" y="24375"><tspan fill="rgb(0,0,0)" stroke="none">31.05</tspan></tspan></tspan></text>
 <text class="TextShape" transform="rotate(-90 9338 24375)"><tspan class="TextParagraph" font-family="Liberation Sans, sans-serif" font-size="282px" font-weight="400"><tspan class="TextPosition" x="9338" y="24375"><tspan fill="rgb(0,0,0)" stroke="none">03.06</tspan></tspan></tspan></text>
 <text class="TextShape" transform="rotate(-90 9712 24375)"><tspan class="TextParagraph" font-family="Liberation Sans, sans-serif" font-size="282px" font-weight="400"><tspan class="TextPosition" x="9712" y="24375"><tspan fill="rgb(0,0,0)" stroke="none">06.06</tspan></tspan></tspan></text>
 <text class="TextShape" transform="rotate(-90 10087 24375)"><tspan class="TextParagraph" font-family="Liberation Sans, sans-serif" font-size="282px" font-weight="400"><tspan class="TextPosition" x="10087" y="24375"><tspan fill="rgb(0,0,0)" stroke="none">09.06</tspan></tspan></tspan></text>
 <text class="TextShape" transform="rotate(-90 10461 24375)"><tspan class="TextParagraph" font-family="Liberation Sans, sans-serif" font-size="282px" font-weight="400"><tspan class="TextPosition" x="10461" y="24375"><tspan fill="rgb(0,0,0)" stroke="none">12.06</tspan></tspan></tspan></text>
 <text class="TextShape" transform="rotate(-90 10836 24375)"><tspan class="TextParagraph" font-family="Liberation Sans, sans-serif" font-size="282px" font-weight="400"><tspan class="TextPosition" x="10836" y="24375"><tspan fill="rgb(0,0,0)" stroke="none">15.06</tspan></tspan></tspan></text>
 <text class="TextShape" transform="rotate(-90 11211 24375)"><tspan class="TextParagraph" font-family="Liberation Sans, sans-serif" font-size="282px" font-weight="400"><tspan class="TextPosition" x="11211" y="24375"><tspan fill="rgb(0,0,0)" stroke="none">18.06</tspan></tspan></tspan></text>
 <text class="TextShape" transform="rotate(-90 11585 24375)"><tspan class="TextParagraph" font-family="Liberation Sans, sans-serif" font-size="282px" font-weight="400"><tspan class="TextPosition" x="11585" y="24375"><tspan fill="rgb(0,0,0)" stroke="none">21.06</tspan></tspan></tspan></text>
 <text class="TextShape" transform="rotate(-90 11959 24375)"><tspan class="TextParagraph" font-family="Liberation Sans, sans-serif" font-size="282px" font-weight="400"><tspan class="TextPosition" x="11959" y="24375"><tspan fill="rgb(0,0,0)" stroke="none">24.06</tspan></tspan></tspan></text>
 <text class="TextShape" transform="rotate(-90 12333 24375)"><tspan class="TextParagraph" font-family="Liberation Sans, sans-serif" font-size="282px" font-weight="400"><tspan class="TextPosition" x="12333" y="24375"><tspan fill="rgb(0,0,0)" stroke="none">27.06</tspan></tspan></tspan></text>
 <text class="TextShape" transform="rotate(-90 12708 24375)"><tspan class="TextParagraph" font-family="Liberation Sans, sans-serif" font-size="282px" font-weight="400"><tspan class="TextPosition" x="12708" y="24375"><tspan fill="rgb(0,0,0)" stroke="none">30.06</tspan></tspan></tspan></text>
 <text class="TextShape" transform="rotate(-90 13082 24375)"><tspan class="TextParagraph" font-family="Liberation Sans, sans-serif" font-size="282px" font-weight="400"><tspan class="TextPosition" x="13082" y="24375"><tspan fill="rgb(0,0,0)" stroke="none">03.07</tspan></tspan></tspan></text>
 <text class="TextShape" transform="rotate(-90 13457 24375)"><tspan class="TextParagraph" font-family="Liberation Sans, sans-serif" font-size="282px" font-weight="400"><tspan class="TextPosition" x="13457" y="24375"><tspan fill="rgb(0,0,0)" stroke="none">06.07</tspan></tspan></tspan></text>
 <text class="TextShape" transform="rotate(-90 13832 24375)"><tspan class="TextParagraph" font-family="Liberation Sans, sans-serif" font-size="282px" font-weight="400"><tspan class="TextPosition" x="13832" y="24375"><tspan fill="rgb(0,0,0)" stroke="none">09.07</tspan></tspan></tspan></text>
 <text class="TextShape" transform="rotate(-90 14206 24375)"><tspan class="TextParagraph" font-family="Liberation Sans, sans-serif" font-size="282px" font-weight="400"><tspan class="TextPosition" x="14206" y="24375"><tspan fill="rgb(0,0,0)" stroke="none">12.07</tspan></tspan></tspan></text>
 <text class="TextShape" transform="rotate(-90 14581 24375)"><tspan class="TextParagraph" font-family="Liberation Sans, sans-serif" font-size="282px" font-weight="400"><tspan class="TextPosition" x="14581" y="24375"><tspan fill="rgb(0,0,0)" stroke="none">15.07</tspan></tspan></tspan></text>
 <text class="TextShape" transform="rotate(-90 14955 24375)"><tspan class="TextParagraph" font-family="Liberation Sans, sans-serif" font-size="282px" font-weight="400"><tspan class="TextPosition" x="14955" y="24375"><tspan fill="rgb(0,0,0)" stroke="none">18.07</tspan></tspan></tspan></text>
 <text class="TextShape" transform="rotate(-90 15330 24375)"><tspan class="TextParagraph" font-family="Liberation Sans, sans-serif" font-size="282px" font-weight="400"><tspan class="TextPosition" x="15330" y="24375"><tspan fill="rgb(0,0,0)" stroke="none">21.07</tspan></tspan></tspan></text>
 <text class="TextShape" transform="rotate(-90 15704 24375)"><tspan class="TextParagraph" font-family="Liberation Sans, sans-serif" font-size="282px" font-weight="400"><tspan class="TextPosition" x="15704" y="24375"><tspan fill="rgb(0,0,0)" stroke="none">24.07</tspan></tspan></tspan></text>
 <text class="TextShape" transform="rotate(-90 16079 24375)"><tspan class="TextParagraph" font-family="Liberation Sans, sans-serif" font-size="282px" font-weight="400"><tspan class="TextPosition" x="16079" y="24375"><tspan fill="rgb(0,0,0)" stroke="none">27.07</tspan></tspan></tspan></text>
 <text class="TextShape" transform="rotate(-90 16454 24375)"><tspan class="TextParagraph" font-family="Liberation Sans, sans-serif" font-size="282px" font-weight="400"><tspan class="TextPosition" x="16454" y="24375"><tspan fill="rgb(0,0,0)" stroke="none">30.07</tspan></tspan></tspan></text>
 <text class="TextShape" transform="rotate(-90 16828 24375)"><tspan class="TextParagraph" font-family="Liberation Sans, sans-serif" font-size="282px" font-weight="400"><tspan class="TextPosition" x="16828" y="24375"><tspan fill="rgb(0,0,0)" stroke="none">02.08</tspan></tspan></tspan></text>
 <text class="TextShape" transform="rotate(-90 17203 24375)"><tspan class="TextParagraph" font-family="Liberation Sans, sans-serif" font-size="282px" font-weight="400"><tspan class="TextPosition" x="17203" y="24375"><tspan fill="rgb(0,0,0)" stroke="none">05.08</tspan></tspan></tspan></text>
 <text class="TextShape" transform="rotate(-90 17577 24375)"><tspan class="TextParagraph" font-family="Liberation Sans, sans-serif" font-size="282px" font-weight="400"><tspan class="TextPosition" x="17577" y="24375"><tspan fill="rgb(0,0,0)" stroke="none">08.08</tspan></tspan></tspan></text>
 <text class="TextShape" transform="rotate(-90 17952 24375)"><tspan class="TextParagraph" font-family="Liberation Sans, sans-serif" font-size="282px" font-weight="400"><tspan class="TextPosition" x="17952" y="24375"><tspan fill="rgb(0,0,0)" stroke="none">11.08</tspan></tspan></tspan></text>
 <text class="TextShape" transform="rotate(-90 18326 24375)"><tspan class="TextParagraph" font-family="Liberation Sans, sans-serif" font-size="282px" font-weight="400"><tspan class="TextPosition" x="18326" y="24375"><tspan fill="rgb(0,0,0)" stroke="none">14.08</tspan></tspan></tspan></text>
 <text class="TextShape"><tspan class="TextParagraph" font-family="Liberation Sans, sans-serif" font-size="388px" font-weight="400"><tspan class="TextPosition" x="325" y="23575"><tspan fill="rgb(0,0,0)" stroke="none">1,00</tspan></tspan></tspan></text>
 <text class="TextShape"><tspan class="TextParagraph" font-family="Liberation Sans, sans-serif" font-size="388px" font-weight="400"><tspan class="TextPosition" x="325" y="21405"><tspan fill="rgb(0,0,0)" stroke="none">1,05</tspan></tspan></tspan></text>
 <text class="TextShape"><tspan class="TextParagraph" font-family="Liberation Sans, sans-serif" font-size="388px" font-weight="400"><tspan class="TextPosition" x="325" y="19234"><tspan fill="rgb(0,0,0)" stroke="none">1,10</tspan></tspan></tspan></text>
 <text class="TextShape"><tspan class="TextParagraph" font-family="Liberation Sans, sans-serif" font-size="388px" font-weight="400"><tspan class="TextPosition" x="325" y="17065"><tspan fill="rgb(0,0,0)" stroke="none">1,15</tspan></tspan></tspan></text>
 <text class="TextShape"><tspan class="TextParagraph" font-family="Liberation Sans, sans-serif" font-size="388px" font-weight="400"><tspan class="TextPosition" x="325" y="14895"><tspan fill="rgb(0,0,0)" stroke="none">1,20</tspan></tspan></tspan></text>
 <text class="TextShape"><tspan class="TextParagraph" font-family="Liberation Sans, sans-serif" font-size="388px" font-weight="400"><tspan class="TextPosition" x="325" y="12725"><tspan fill="rgb(0,0,0)" stroke="none">1,25</tspan></tspan></tspan></text>
 <text class="TextShape"><tspan class="TextParagraph" font-family="Liberation Sans, sans-serif" font-size="388px" font-weight="400"><tspan class="TextPosition" x="325" y="10554"><tspan fill="rgb(0,0,0)" stroke="none">1,30</tspan></tspan></tspan></text>
 <text class="TextShape"><tspan class="TextParagraph" font-family="Liberation Sans, sans-serif" font-size="388px" font-weight="400"><tspan class="TextPosition" x="325" y="8384"><tspan fill="rgb(0,0,0)" stroke="none">1,35</tspan></tspan></tspan></text>
 <text class="TextShape"><tspan class="TextParagraph" font-family="Liberation Sans, sans-serif" font-size="388px" font-weight="400"><tspan class="TextPosition" x="325" y="6215"><tspan fill="rgb(0,0,0)" stroke="none">1,40</tspan></tspan></tspan></text>
 <text class="TextShape"><tspan class="TextParagraph" font-family="Liberation Sans, sans-serif" font-size="388px" font-weight="400"><tspan class="TextPosition" x="325" y="4045"><tspan fill="rgb(0,0,0)" stroke="none">1,45</tspan></tspan></tspan></text>
 <text class="TextShape"><tspan class="TextParagraph" font-family="Liberation Sans, sans-serif" font-size="388px" font-weight="400"><tspan class="TextPosition" x="325" y="1875"><tspan fill="rgb(0,0,0)" stroke="none">1,50</tspan></tspan></tspan></text>
 <text class="TextShape"><tspan class="TextParagraph" font-family="Liberation Sans, sans-serif" font-size="494px" font-weight="700"><tspan class="TextPosition" x="887" y="990"><tspan fill="rgb(0,0,0)" stroke="none">Tdenn koeficient celkovho potu obt</tspan></tspan></tspan></text>
 <path fill="none" stroke="rgb(191,0,65)" stroke-width="80" stroke-linejoin="round" stroke-dasharray="80,40" d="M 18817,2169 L 20417,2169"/>
 <path fill="none" stroke="rgb(85,48,141)" stroke-width="80" stroke-linejoin="round" stroke-dasharray="158,158" d="M 18817,3031 L 20417,3031"/>
 <path fill="none" stroke="rgb(0,0,255)" stroke-width="80" stroke-linejoin="round" stroke-dasharray="80,40" d="M 18817,3893 L 20417,3893"/>
 <path fill="none" stroke="rgb(255,191,0)" stroke-width="80" stroke-linejoin="round" stroke-dasharray="80,40" d="M 18817,4755 L 20417,4755"/>
 <path fill="none" stroke="rgb(0,169,51)" stroke-width="80" stroke-linejoin="round" stroke-dasharray="80,40" d="M 18817,5617 L 20417,5617"/>
 <path fill="none" stroke="rgb(0,169,51)" stroke-width="80" stroke-linejoin="round" stroke-dasharray="158,102" d="M 18817,6479 L 20417,6479"/>
 <path fill="none" stroke="rgb(255,64,0)" stroke-width="80" stroke-linejoin="round" stroke-dasharray="80,40" d="M 18817,7341 L 20417,7341"/>
 <path fill="none" stroke="rgb(21,132,102)" stroke-width="80" stroke-linejoin="round" stroke-dasharray="80,203,80,203,203,203" d="M 18817,8203 L 20417,8203"/>
 <path fill="none" stroke="rgb(0,223,255)" stroke-width="80" stroke-linejoin="round" stroke-dasharray="158,102" d="M 18817,9065 L 20417,9065"/>
 <path fill="none" stroke="rgb(141,40,30)" stroke-width="80" stroke-linejoin="round" stroke-dasharray="80,40" d="M 18817,9927 L 20417,9927"/>
 <path fill="none" stroke="rgb(255,0,0)" stroke-width="80" stroke-linejoin="round" stroke-dasharray="158,102" d="M 18817,10789 L 20417,10789"/>
 <path fill="none" stroke="rgb(89,131,176)" stroke-width="80" stroke-linejoin="round" d="M 18817,11651 L 20417,11651"/>
 <path fill="none" stroke="rgb(255,211,32)" stroke-width="80" stroke-linejoin="round" d="M 18817,12512 L 20417,12512"/>
 <path fill="none" stroke="rgb(0,169,51)" stroke-width="80" stroke-linejoin="round" d="M 18817,13374 L 20417,13374"/>
 <path fill="none" stroke="rgb(0,0,255)" stroke-width="80" stroke-linejoin="round" stroke-dasharray="51,127,51,127,254,127,254,127,254,127" d="M 18817,14236 L 20417,14236"/>
 <path fill="none" stroke="rgb(128,0,128)" stroke-width="80" stroke-linejoin="round" d="M 18817,15098 L 20417,15098"/>
 <path fill="none" stroke="rgb(85,48,141)" stroke-width="80" stroke-linejoin="round" stroke-dasharray="80,40" d="M 18817,15960 L 20417,15960"/>
 <path fill="none" stroke="rgb(255,128,0)" stroke-width="80" stroke-linejoin="round" d="M 18817,16822 L 20417,16822"/>
 <path fill="none" stroke="rgb(52,42,6)" stroke-width="80" stroke-linejoin="round" d="M 18817,17684 L 20417,17684"/>
 <path fill="none" stroke="rgb(180,120,4)" stroke-width="80" stroke-linejoin="round" d="M 18817,18546 L 20417,18546"/>
 <path fill="none" stroke="rgb(112,110,12)" stroke-width="80" stroke-linejoin="round" stroke-dasharray="80,40" d="M 18817,19408 L 20417,19408"/>
 <path fill="none" stroke="rgb(241,13,12)" stroke-width="80" stroke-linejoin="round" d="M 18817,20270 L 20417,20270"/>
 <path fill="none" stroke="rgb(0,255,0)" stroke-width="80" stroke-linejoin="round" d="M 18817,21132 L 20417,21132"/>
 <path fill="none" stroke="rgb(0,0,255)" stroke-width="80" stroke-linejoin="round" stroke-dasharray="158,158" d="M 18817,21994 L 20417,21994"/>
 <path fill="none" stroke="rgb(0,127,255)" stroke-width="80" stroke-linejoin="round" d="M 18817,22856 L 20417,22856"/>
 <text class="TextShape"><tspan class="TextParagraph" font-family="Liberation Sans, sans-serif" font-size="423px" font-weight="400"><tspan class="TextPosition" x="20517" y="2317"><tspan fill="rgb(0,0,0)" stroke="none">Stt Florida</tspan></tspan></tspan></text>
 <text class="TextShape"><tspan class="TextParagraph" font-family="Liberation Sans, sans-serif" font-size="423px" font-weight="400"><tspan class="TextPosition" x="20517" y="3179"><tspan fill="rgb(0,0,0)" stroke="none">Indie</tspan></tspan></tspan></text>
 <text class="TextShape"><tspan class="TextParagraph" font-family="Liberation Sans, sans-serif" font-size="423px" font-weight="400"><tspan class="TextPosition" x="20517" y="4041"><tspan fill="rgb(0,0,0)" stroke="none">Stt Texas</tspan></tspan></tspan></text>
 <text class="TextShape"><tspan class="TextParagraph" font-family="Liberation Sans, sans-serif" font-size="423px" font-weight="400"><tspan class="TextPosition" x="20517" y="4903"><tspan fill="rgb(0,0,0)" stroke="none">Stt Kalifornie</tspan></tspan></tspan></text>
 <text class="TextShape"><tspan class="TextParagraph" font-family="Liberation Sans, sans-serif" font-size="423px" font-weight="400"><tspan class="TextPosition" x="20517" y="5765"><tspan fill="rgb(0,0,0)" stroke="none">Mexiko</tspan></tspan></tspan></text>
 <text class="TextShape"><tspan class="TextParagraph" font-family="Liberation Sans, sans-serif" font-size="423px" font-weight="400"><tspan class="TextPosition" x="20517" y="6627"><tspan fill="rgb(0,0,0)" stroke="none">rn</tspan></tspan></tspan></text>
 <text class="TextShape"><tspan class="TextParagraph" font-family="Liberation Sans, sans-serif" font-size="423px" font-weight="400"><tspan class="TextPosition" x="20517" y="7489"><tspan fill="rgb(0,0,0)" stroke="none">Brazlie</tspan></tspan></tspan></text>
 <text class="TextShape"><tspan class="TextParagraph" font-family="Liberation Sans, sans-serif" font-size="423px" font-weight="400"><tspan class="TextPosition" x="20517" y="8351"><tspan fill="rgb(0,0,0)" stroke="none">celosvtov</tspan></tspan></tspan></text>
 <text class="TextShape"><tspan class="TextParagraph" font-family="Liberation Sans, sans-serif" font-size="423px" font-weight="400"><tspan class="TextPosition" x="20517" y="9213"><tspan fill="rgb(0,0,0)" stroke="none">Rusko</tspan></tspan></tspan></text>
 <text class="TextShape"><tspan class="TextParagraph" font-family="Liberation Sans, sans-serif" font-size="423px" font-weight="400"><tspan class="TextPosition" x="20517" y="10075"><tspan fill="rgb(0,0,0)" stroke="none">USA</tspan></tspan></tspan></text>
 <text class="TextShape"><tspan class="TextParagraph" font-family="Liberation Sans, sans-serif" font-size="423px" font-weight="400"><tspan class="TextPosition" x="20517" y="10937"><tspan fill="rgb(0,0,0)" stroke="none">Turecko</tspan></tspan></tspan></text>
 <text class="TextShape"><tspan class="TextParagraph" font-family="Liberation Sans, sans-serif" font-size="423px" font-weight="400"><tspan class="TextPosition" x="20517" y="11799"><tspan fill="rgb(0,0,0)" stroke="none">Norsko</tspan></tspan></tspan></text>
 <text class="TextShape"><tspan class="TextParagraph" font-family="Liberation Sans, sans-serif" font-size="423px" font-weight="400"><tspan class="TextPosition" x="20517" y="12660"><tspan fill="rgb(0,0,0)" stroke="none">esko</tspan></tspan></tspan></text>
 <text class="TextShape"><tspan class="TextParagraph" font-family="Liberation Sans, sans-serif" font-size="423px" font-weight="400"><tspan class="TextPosition" x="20517" y="13522"><tspan fill="rgb(0,0,0)" stroke="none">Rakousko</tspan></tspan></tspan></text>
 <text class="TextShape"><tspan class="TextParagraph" font-family="Liberation Sans, sans-serif" font-size="423px" font-weight="400"><tspan class="TextPosition" x="20517" y="14384"><tspan fill="rgb(0,0,0)" stroke="none">EU</tspan></tspan></tspan></text>
 <text class="TextShape"><tspan class="TextParagraph" font-family="Liberation Sans, sans-serif" font-size="423px" font-weight="400"><tspan class="TextPosition" x="20517" y="15246"><tspan fill="rgb(0,0,0)" stroke="none">panlsko</tspan></tspan></tspan></text>
 <text class="TextShape"><tspan class="TextParagraph" font-family="Liberation Sans, sans-serif" font-size="423px" font-weight="400"><tspan class="TextPosition" x="20517" y="16108"><tspan fill="rgb(0,0,0)" stroke="none">Kanada</tspan></tspan></tspan></text>
 <text class="TextShape"><tspan class="TextParagraph" font-family="Liberation Sans, sans-serif" font-size="423px" font-weight="400"><tspan class="TextPosition" x="20517" y="16970"><tspan fill="rgb(0,0,0)" stroke="none">Velk Britnie</tspan></tspan></tspan></text>
 <text class="TextShape"><tspan class="TextParagraph" font-family="Liberation Sans, sans-serif" font-size="423px" font-weight="400"><tspan class="TextPosition" x="20517" y="17832"><tspan fill="rgb(0,0,0)" stroke="none">Nmecko</tspan></tspan></tspan></text>
 <text class="TextShape"><tspan class="TextParagraph" font-family="Liberation Sans, sans-serif" font-size="423px" font-weight="400"><tspan class="TextPosition" x="20517" y="18694"><tspan fill="rgb(0,0,0)" stroke="none">Dnsko</tspan></tspan></tspan></text>
 <text class="TextShape"><tspan class="TextParagraph" font-family="Liberation Sans, sans-serif" font-size="423px" font-weight="400"><tspan class="TextPosition" x="20517" y="19556"><tspan fill="rgb(0,0,0)" stroke="none">Stt New York</tspan></tspan></tspan></text>
 <text class="TextShape"><tspan class="TextParagraph" font-family="Liberation Sans, sans-serif" font-size="423px" font-weight="400"><tspan class="TextPosition" x="20517" y="20418"><tspan fill="rgb(0,0,0)" stroke="none">vdsko</tspan></tspan></tspan></text>
 <text class="TextShape"><tspan class="TextParagraph" font-family="Liberation Sans, sans-serif" font-size="423px" font-weight="400"><tspan class="TextPosition" x="20517" y="21280"><tspan fill="rgb(0,0,0)" stroke="none">vcarsko</tspan></tspan></tspan></text>
 <text class="TextShape"><tspan class="TextParagraph" font-family="Liberation Sans, sans-serif" font-size="423px" font-weight="400"><tspan class="TextPosition" x="20517" y="22142"><tspan fill="rgb(0,0,0)" stroke="none">Jin Korea</tspan></tspan></tspan></text>
 <text class="TextShape"><tspan class="TextParagraph" font-family="Liberation Sans, sans-serif" font-size="423px" font-weight="400"><tspan class="TextPosition" x="20517" y="23004"><tspan fill="rgb(0,0,0)" stroke="none">Itlie</tspan></tspan></tspan></text>
</svg>