<?xml version="1.0" encoding="UTF-8"?>
<!DOCTYPE svg PUBLIC "-//W3C//DTD SVG 1.1//EN" "http://www.w3.org/Graphics/SVG/1.1/DTD/svg11.dtd">
<svg width="236mm" height="250mm" viewBox="0 0 23600 25000" version="1.1" xmlns="http://www.w3.org/2000/svg" xmlns:xlink="http://www.w3.org/1999/xlink" stroke-width="28.222" stroke-linejoin="round" xml:space="preserve">
 <path fill="rgb(255,255,255)" stroke="none" d="M 11800,25000 L 0,25000 0,0 23600,0 23600,25000 11800,25000 Z"/>
 <path fill="none" stroke="rgb(179,179,179)" stroke-linejoin="round" d="M 9931,23448 L 1316,23448 1316,1749 18545,1749 18545,23448 9931,23448 Z"/>
 <path fill="none" stroke="rgb(179,179,179)" stroke-linejoin="round" d="M 18545,23447 L 1316,23447"/>
 <path fill="none" stroke="rgb(179,179,179)" stroke-linejoin="round" d="M 18545,21277 L 1316,21277"/>
 <path fill="none" stroke="rgb(179,179,179)" stroke-linejoin="round" d="M 18545,19106 L 1316,19106"/>
 <path fill="none" stroke="rgb(179,179,179)" stroke-linejoin="round" d="M 18545,16937 L 1316,16937"/>
 <path fill="none" stroke="rgb(179,179,179)" stroke-linejoin="round" d="M 18545,14767 L 1316,14767"/>
 <path fill="none" stroke="rgb(179,179,179)" stroke-linejoin="round" d="M 18545,12597 L 1316,12597"/>
 <path fill="none" stroke="rgb(179,179,179)" stroke-linejoin="round" d="M 18545,10428 L 1316,10428"/>
 <path fill="none" stroke="rgb(179,179,179)" stroke-linejoin="round" d="M 18545,8257 L 1316,8257"/>
 <path fill="none" stroke="rgb(179,179,179)" stroke-linejoin="round" d="M 18545,6088 L 1316,6088"/>
 <path fill="none" stroke="rgb(179,179,179)" stroke-linejoin="round" d="M 18545,3918 L 1316,3918"/>
 <path fill="none" stroke="rgb(179,179,179)" stroke-linejoin="round" d="M 18545,1748 L 1316,1748"/>
 <path fill="none" stroke="rgb(179,179,179)" stroke-linejoin="round" d="M 1316,23597 L 1316,23447"/>
 <path fill="none" stroke="rgb(179,179,179)" stroke-linejoin="round" d="M 1316,23597 L 1316,23447"/>
 <path fill="none" stroke="rgb(179,179,179)" stroke-linejoin="round" d="M 1437,23597 L 1437,23447"/>
 <path fill="none" stroke="rgb(179,179,179)" stroke-linejoin="round" d="M 1437,23597 L 1437,23447"/>
 <path fill="none" stroke="rgb(179,179,179)" stroke-linejoin="round" d="M 1558,23597 L 1558,23447"/>
 <path fill="none" stroke="rgb(179,179,179)" stroke-linejoin="round" d="M 1558,23597 L 1558,23447"/>
 <path fill="none" stroke="rgb(179,179,179)" stroke-linejoin="round" d="M 1680,23597 L 1680,23447"/>
 <path fill="none" stroke="rgb(179,179,179)" stroke-linejoin="round" d="M 1680,23597 L 1680,23447"/>
 <path fill="none" stroke="rgb(179,179,179)" stroke-linejoin="round" d="M 1801,23597 L 1801,23447"/>
 <path fill="none" stroke="rgb(179,179,179)" stroke-linejoin="round" d="M 1801,23597 L 1801,23447"/>
 <path fill="none" stroke="rgb(179,179,179)" stroke-linejoin="round" d="M 1922,23597 L 1922,23447"/>
 <path fill="none" stroke="rgb(179,179,179)" stroke-linejoin="round" d="M 1922,23597 L 1922,23447"/>
 <path fill="none" stroke="rgb(179,179,179)" stroke-linejoin="round" d="M 2044,23597 L 2044,23447"/>
 <path fill="none" stroke="rgb(179,179,179)" stroke-linejoin="round" d="M 2044,23597 L 2044,23447"/>
 <path fill="none" stroke="rgb(179,179,179)" stroke-linejoin="round" d="M 2165,23597 L 2165,23447"/>
 <path fill="none" stroke="rgb(179,179,179)" stroke-linejoin="round" d="M 2165,23597 L 2165,23447"/>
 <path fill="none" stroke="rgb(179,179,179)" stroke-linejoin="round" d="M 2286,23597 L 2286,23447"/>
 <path fill="none" stroke="rgb(179,179,179)" stroke-linejoin="round" d="M 2286,23597 L 2286,23447"/>
 <path fill="none" stroke="rgb(179,179,179)" stroke-linejoin="round" d="M 2408,23597 L 2408,23447"/>
 <path fill="none" stroke="rgb(179,179,179)" stroke-linejoin="round" d="M 2408,23597 L 2408,23447"/>
 <path fill="none" stroke="rgb(179,179,179)" stroke-linejoin="round" d="M 2529,23597 L 2529,23447"/>
 <path fill="none" stroke="rgb(179,179,179)" stroke-linejoin="round" d="M 2529,23597 L 2529,23447"/>
 <path fill="none" stroke="rgb(179,179,179)" stroke-linejoin="round" d="M 2650,23597 L 2650,23447"/>
 <path fill="none" stroke="rgb(179,179,179)" stroke-linejoin="round" d="M 2650,23597 L 2650,23447"/>
 <path fill="none" stroke="rgb(179,179,179)" stroke-linejoin="round" d="M 2772,23597 L 2772,23447"/>
 <path fill="none" stroke="rgb(179,179,179)" stroke-linejoin="round" d="M 2772,23597 L 2772,23447"/>
 <path fill="none" stroke="rgb(179,179,179)" stroke-linejoin="round" d="M 2893,23597 L 2893,23447"/>
 <path fill="none" stroke="rgb(179,179,179)" stroke-linejoin="round" d="M 2893,23597 L 2893,23447"/>
 <path fill="none" stroke="rgb(179,179,179)" stroke-linejoin="round" d="M 3014,23597 L 3014,23447"/>
 <path fill="none" stroke="rgb(179,179,179)" stroke-linejoin="round" d="M 3014,23597 L 3014,23447"/>
 <path fill="none" stroke="rgb(179,179,179)" stroke-linejoin="round" d="M 3136,23597 L 3136,23447"/>
 <path fill="none" stroke="rgb(179,179,179)" stroke-linejoin="round" d="M 3136,23597 L 3136,23447"/>
 <path fill="none" stroke="rgb(179,179,179)" stroke-linejoin="round" d="M 3257,23597 L 3257,23447"/>
 <path fill="none" stroke="rgb(179,179,179)" stroke-linejoin="round" d="M 3257,23597 L 3257,23447"/>
 <path fill="none" stroke="rgb(179,179,179)" stroke-linejoin="round" d="M 3378,23597 L 3378,23447"/>
 <path fill="none" stroke="rgb(179,179,179)" stroke-linejoin="round" d="M 3378,23597 L 3378,23447"/>
 <path fill="none" stroke="rgb(179,179,179)" stroke-linejoin="round" d="M 3500,23597 L 3500,23447"/>
 <path fill="none" stroke="rgb(179,179,179)" stroke-linejoin="round" d="M 3500,23597 L 3500,23447"/>
 <path fill="none" stroke="rgb(179,179,179)" stroke-linejoin="round" d="M 3621,23597 L 3621,23447"/>
 <path fill="none" stroke="rgb(179,179,179)" stroke-linejoin="round" d="M 3621,23597 L 3621,23447"/>
 <path fill="none" stroke="rgb(179,179,179)" stroke-linejoin="round" d="M 3742,23597 L 3742,23447"/>
 <path fill="none" stroke="rgb(179,179,179)" stroke-linejoin="round" d="M 3742,23597 L 3742,23447"/>
 <path fill="none" stroke="rgb(179,179,179)" stroke-linejoin="round" d="M 3864,23597 L 3864,23447"/>
 <path fill="none" stroke="rgb(179,179,179)" stroke-linejoin="round" d="M 3864,23597 L 3864,23447"/>
 <path fill="none" stroke="rgb(179,179,179)" stroke-linejoin="round" d="M 3985,23597 L 3985,23447"/>
 <path fill="none" stroke="rgb(179,179,179)" stroke-linejoin="round" d="M 3985,23597 L 3985,23447"/>
 <path fill="none" stroke="rgb(179,179,179)" stroke-linejoin="round" d="M 4106,23597 L 4106,23447"/>
 <path fill="none" stroke="rgb(179,179,179)" stroke-linejoin="round" d="M 4106,23597 L 4106,23447"/>
 <path fill="none" stroke="rgb(179,179,179)" stroke-linejoin="round" d="M 4228,23597 L 4228,23447"/>
 <path fill="none" stroke="rgb(179,179,179)" stroke-linejoin="round" d="M 4228,23597 L 4228,23447"/>
 <path fill="none" stroke="rgb(179,179,179)" stroke-linejoin="round" d="M 4349,23597 L 4349,23447"/>
 <path fill="none" stroke="rgb(179,179,179)" stroke-linejoin="round" d="M 4349,23597 L 4349,23447"/>
 <path fill="none" stroke="rgb(179,179,179)" stroke-linejoin="round" d="M 4470,23597 L 4470,23447"/>
 <path fill="none" stroke="rgb(179,179,179)" stroke-linejoin="round" d="M 4470,23597 L 4470,23447"/>
 <path fill="none" stroke="rgb(179,179,179)" stroke-linejoin="round" d="M 4592,23597 L 4592,23447"/>
 <path fill="none" stroke="rgb(179,179,179)" stroke-linejoin="round" d="M 4592,23597 L 4592,23447"/>
 <path fill="none" stroke="rgb(179,179,179)" stroke-linejoin="round" d="M 4713,23597 L 4713,23447"/>
 <path fill="none" stroke="rgb(179,179,179)" stroke-linejoin="round" d="M 4713,23597 L 4713,23447"/>
 <path fill="none" stroke="rgb(179,179,179)" stroke-linejoin="round" d="M 4834,23597 L 4834,23447"/>
 <path fill="none" stroke="rgb(179,179,179)" stroke-linejoin="round" d="M 4834,23597 L 4834,23447"/>
 <path fill="none" stroke="rgb(179,179,179)" stroke-linejoin="round" d="M 4956,23597 L 4956,23447"/>
 <path fill="none" stroke="rgb(179,179,179)" stroke-linejoin="round" d="M 4956,23597 L 4956,23447"/>
 <path fill="none" stroke="rgb(179,179,179)" stroke-linejoin="round" d="M 5077,23597 L 5077,23447"/>
 <path fill="none" stroke="rgb(179,179,179)" stroke-linejoin="round" d="M 5077,23597 L 5077,23447"/>
 <path fill="none" stroke="rgb(179,179,179)" stroke-linejoin="round" d="M 5198,23597 L 5198,23447"/>
 <path fill="none" stroke="rgb(179,179,179)" stroke-linejoin="round" d="M 5198,23597 L 5198,23447"/>
 <path fill="none" stroke="rgb(179,179,179)" stroke-linejoin="round" d="M 5320,23597 L 5320,23447"/>
 <path fill="none" stroke="rgb(179,179,179)" stroke-linejoin="round" d="M 5320,23597 L 5320,23447"/>
 <path fill="none" stroke="rgb(179,179,179)" stroke-linejoin="round" d="M 5441,23597 L 5441,23447"/>
 <path fill="none" stroke="rgb(179,179,179)" stroke-linejoin="round" d="M 5441,23597 L 5441,23447"/>
 <path fill="none" stroke="rgb(179,179,179)" stroke-linejoin="round" d="M 5562,23597 L 5562,23447"/>
 <path fill="none" stroke="rgb(179,179,179)" stroke-linejoin="round" d="M 5562,23597 L 5562,23447"/>
 <path fill="none" stroke="rgb(179,179,179)" stroke-linejoin="round" d="M 5684,23597 L 5684,23447"/>
 <path fill="none" stroke="rgb(179,179,179)" stroke-linejoin="round" d="M 5684,23597 L 5684,23447"/>
 <path fill="none" stroke="rgb(179,179,179)" stroke-linejoin="round" d="M 5805,23597 L 5805,23447"/>
 <path fill="none" stroke="rgb(179,179,179)" stroke-linejoin="round" d="M 5805,23597 L 5805,23447"/>
 <path fill="none" stroke="rgb(179,179,179)" stroke-linejoin="round" d="M 5926,23597 L 5926,23447"/>
 <path fill="none" stroke="rgb(179,179,179)" stroke-linejoin="round" d="M 5926,23597 L 5926,23447"/>
 <path fill="none" stroke="rgb(179,179,179)" stroke-linejoin="round" d="M 6048,23597 L 6048,23447"/>
 <path fill="none" stroke="rgb(179,179,179)" stroke-linejoin="round" d="M 6048,23597 L 6048,23447"/>
 <path fill="none" stroke="rgb(179,179,179)" stroke-linejoin="round" d="M 6169,23597 L 6169,23447"/>
 <path fill="none" stroke="rgb(179,179,179)" stroke-linejoin="round" d="M 6169,23597 L 6169,23447"/>
 <path fill="none" stroke="rgb(179,179,179)" stroke-linejoin="round" d="M 6290,23597 L 6290,23447"/>
 <path fill="none" stroke="rgb(179,179,179)" stroke-linejoin="round" d="M 6290,23597 L 6290,23447"/>
 <path fill="none" stroke="rgb(179,179,179)" stroke-linejoin="round" d="M 6412,23597 L 6412,23447"/>
 <path fill="none" stroke="rgb(179,179,179)" stroke-linejoin="round" d="M 6412,23597 L 6412,23447"/>
 <path fill="none" stroke="rgb(179,179,179)" stroke-linejoin="round" d="M 6533,23597 L 6533,23447"/>
 <path fill="none" stroke="rgb(179,179,179)" stroke-linejoin="round" d="M 6533,23597 L 6533,23447"/>
 <path fill="none" stroke="rgb(179,179,179)" stroke-linejoin="round" d="M 6654,23597 L 6654,23447"/>
 <path fill="none" stroke="rgb(179,179,179)" stroke-linejoin="round" d="M 6654,23597 L 6654,23447"/>
 <path fill="none" stroke="rgb(179,179,179)" stroke-linejoin="round" d="M 6776,23597 L 6776,23447"/>
 <path fill="none" stroke="rgb(179,179,179)" stroke-linejoin="round" d="M 6776,23597 L 6776,23447"/>
 <path fill="none" stroke="rgb(179,179,179)" stroke-linejoin="round" d="M 6897,23597 L 6897,23447"/>
 <path fill="none" stroke="rgb(179,179,179)" stroke-linejoin="round" d="M 6897,23597 L 6897,23447"/>
 <path fill="none" stroke="rgb(179,179,179)" stroke-linejoin="round" d="M 7018,23597 L 7018,23447"/>
 <path fill="none" stroke="rgb(179,179,179)" stroke-linejoin="round" d="M 7018,23597 L 7018,23447"/>
 <path fill="none" stroke="rgb(179,179,179)" stroke-linejoin="round" d="M 7140,23597 L 7140,23447"/>
 <path fill="none" stroke="rgb(179,179,179)" stroke-linejoin="round" d="M 7140,23597 L 7140,23447"/>
 <path fill="none" stroke="rgb(179,179,179)" stroke-linejoin="round" d="M 7261,23597 L 7261,23447"/>
 <path fill="none" stroke="rgb(179,179,179)" stroke-linejoin="round" d="M 7261,23597 L 7261,23447"/>
 <path fill="none" stroke="rgb(179,179,179)" stroke-linejoin="round" d="M 7382,23597 L 7382,23447"/>
 <path fill="none" stroke="rgb(179,179,179)" stroke-linejoin="round" d="M 7382,23597 L 7382,23447"/>
 <path fill="none" stroke="rgb(179,179,179)" stroke-linejoin="round" d="M 7504,23597 L 7504,23447"/>
 <path fill="none" stroke="rgb(179,179,179)" stroke-linejoin="round" d="M 7504,23597 L 7504,23447"/>
 <path fill="none" stroke="rgb(179,179,179)" stroke-linejoin="round" d="M 7625,23597 L 7625,23447"/>
 <path fill="none" stroke="rgb(179,179,179)" stroke-linejoin="round" d="M 7625,23597 L 7625,23447"/>
 <path fill="none" stroke="rgb(179,179,179)" stroke-linejoin="round" d="M 7746,23597 L 7746,23447"/>
 <path fill="none" stroke="rgb(179,179,179)" stroke-linejoin="round" d="M 7746,23597 L 7746,23447"/>
 <path fill="none" stroke="rgb(179,179,179)" stroke-linejoin="round" d="M 7868,23597 L 7868,23447"/>
 <path fill="none" stroke="rgb(179,179,179)" stroke-linejoin="round" d="M 7868,23597 L 7868,23447"/>
 <path fill="none" stroke="rgb(179,179,179)" stroke-linejoin="round" d="M 7989,23597 L 7989,23447"/>
 <path fill="none" stroke="rgb(179,179,179)" stroke-linejoin="round" d="M 7989,23597 L 7989,23447"/>
 <path fill="none" stroke="rgb(179,179,179)" stroke-linejoin="round" d="M 8110,23597 L 8110,23447"/>
 <path fill="none" stroke="rgb(179,179,179)" stroke-linejoin="round" d="M 8110,23597 L 8110,23447"/>
 <path fill="none" stroke="rgb(179,179,179)" stroke-linejoin="round" d="M 8232,23597 L 8232,23447"/>
 <path fill="none" stroke="rgb(179,179,179)" stroke-linejoin="round" d="M 8232,23597 L 8232,23447"/>
 <path fill="none" stroke="rgb(179,179,179)" stroke-linejoin="round" d="M 8353,23597 L 8353,23447"/>
 <path fill="none" stroke="rgb(179,179,179)" stroke-linejoin="round" d="M 8353,23597 L 8353,23447"/>
 <path fill="none" stroke="rgb(179,179,179)" stroke-linejoin="round" d="M 8474,23597 L 8474,23447"/>
 <path fill="none" stroke="rgb(179,179,179)" stroke-linejoin="round" d="M 8474,23597 L 8474,23447"/>
 <path fill="none" stroke="rgb(179,179,179)" stroke-linejoin="round" d="M 8596,23597 L 8596,23447"/>
 <path fill="none" stroke="rgb(179,179,179)" stroke-linejoin="round" d="M 8596,23597 L 8596,23447"/>
 <path fill="none" stroke="rgb(179,179,179)" stroke-linejoin="round" d="M 8717,23597 L 8717,23447"/>
 <path fill="none" stroke="rgb(179,179,179)" stroke-linejoin="round" d="M 8717,23597 L 8717,23447"/>
 <path fill="none" stroke="rgb(179,179,179)" stroke-linejoin="round" d="M 8838,23597 L 8838,23447"/>
 <path fill="none" stroke="rgb(179,179,179)" stroke-linejoin="round" d="M 8838,23597 L 8838,23447"/>
 <path fill="none" stroke="rgb(179,179,179)" stroke-linejoin="round" d="M 8960,23597 L 8960,23447"/>
 <path fill="none" stroke="rgb(179,179,179)" stroke-linejoin="round" d="M 8960,23597 L 8960,23447"/>
 <path fill="none" stroke="rgb(179,179,179)" stroke-linejoin="round" d="M 9081,23597 L 9081,23447"/>
 <path fill="none" stroke="rgb(179,179,179)" stroke-linejoin="round" d="M 9081,23597 L 9081,23447"/>
 <path fill="none" stroke="rgb(179,179,179)" stroke-linejoin="round" d="M 9202,23597 L 9202,23447"/>
 <path fill="none" stroke="rgb(179,179,179)" stroke-linejoin="round" d="M 9202,23597 L 9202,23447"/>
 <path fill="none" stroke="rgb(179,179,179)" stroke-linejoin="round" d="M 9324,23597 L 9324,23447"/>
 <path fill="none" stroke="rgb(179,179,179)" stroke-linejoin="round" d="M 9324,23597 L 9324,23447"/>
 <path fill="none" stroke="rgb(179,179,179)" stroke-linejoin="round" d="M 9445,23597 L 9445,23447"/>
 <path fill="none" stroke="rgb(179,179,179)" stroke-linejoin="round" d="M 9445,23597 L 9445,23447"/>
 <path fill="none" stroke="rgb(179,179,179)" stroke-linejoin="round" d="M 9566,23597 L 9566,23447"/>
 <path fill="none" stroke="rgb(179,179,179)" stroke-linejoin="round" d="M 9566,23597 L 9566,23447"/>
 <path fill="none" stroke="rgb(179,179,179)" stroke-linejoin="round" d="M 9688,23597 L 9688,23447"/>
 <path fill="none" stroke="rgb(179,179,179)" stroke-linejoin="round" d="M 9688,23597 L 9688,23447"/>
 <path fill="none" stroke="rgb(179,179,179)" stroke-linejoin="round" d="M 9809,23597 L 9809,23447"/>
 <path fill="none" stroke="rgb(179,179,179)" stroke-linejoin="round" d="M 9809,23597 L 9809,23447"/>
 <path fill="none" stroke="rgb(179,179,179)" stroke-linejoin="round" d="M 9931,23597 L 9931,23447"/>
 <path fill="none" stroke="rgb(179,179,179)" stroke-linejoin="round" d="M 9931,23597 L 9931,23447"/>
 <path fill="none" stroke="rgb(179,179,179)" stroke-linejoin="round" d="M 10052,23597 L 10052,23447"/>
 <path fill="none" stroke="rgb(179,179,179)" stroke-linejoin="round" d="M 10052,23597 L 10052,23447"/>
 <path fill="none" stroke="rgb(179,179,179)" stroke-linejoin="round" d="M 10173,23597 L 10173,23447"/>
 <path fill="none" stroke="rgb(179,179,179)" stroke-linejoin="round" d="M 10173,23597 L 10173,23447"/>
 <path fill="none" stroke="rgb(179,179,179)" stroke-linejoin="round" d="M 10295,23597 L 10295,23447"/>
 <path fill="none" stroke="rgb(179,179,179)" stroke-linejoin="round" d="M 10295,23597 L 10295,23447"/>
 <path fill="none" stroke="rgb(179,179,179)" stroke-linejoin="round" d="M 10416,23597 L 10416,23447"/>
 <path fill="none" stroke="rgb(179,179,179)" stroke-linejoin="round" d="M 10416,23597 L 10416,23447"/>
 <path fill="none" stroke="rgb(179,179,179)" stroke-linejoin="round" d="M 10537,23597 L 10537,23447"/>
 <path fill="none" stroke="rgb(179,179,179)" stroke-linejoin="round" d="M 10537,23597 L 10537,23447"/>
 <path fill="none" stroke="rgb(179,179,179)" stroke-linejoin="round" d="M 10659,23597 L 10659,23447"/>
 <path fill="none" stroke="rgb(179,179,179)" stroke-linejoin="round" d="M 10659,23597 L 10659,23447"/>
 <path fill="none" stroke="rgb(179,179,179)" stroke-linejoin="round" d="M 10780,23597 L 10780,23447"/>
 <path fill="none" stroke="rgb(179,179,179)" stroke-linejoin="round" d="M 10780,23597 L 10780,23447"/>
 <path fill="none" stroke="rgb(179,179,179)" stroke-linejoin="round" d="M 10901,23597 L 10901,23447"/>
 <path fill="none" stroke="rgb(179,179,179)" stroke-linejoin="round" d="M 10901,23597 L 10901,23447"/>
 <path fill="none" stroke="rgb(179,179,179)" stroke-linejoin="round" d="M 11023,23597 L 11023,23447"/>
 <path fill="none" stroke="rgb(179,179,179)" stroke-linejoin="round" d="M 11023,23597 L 11023,23447"/>
 <path fill="none" stroke="rgb(179,179,179)" stroke-linejoin="round" d="M 11144,23597 L 11144,23447"/>
 <path fill="none" stroke="rgb(179,179,179)" stroke-linejoin="round" d="M 11144,23597 L 11144,23447"/>
 <path fill="none" stroke="rgb(179,179,179)" stroke-linejoin="round" d="M 11265,23597 L 11265,23447"/>
 <path fill="none" stroke="rgb(179,179,179)" stroke-linejoin="round" d="M 11265,23597 L 11265,23447"/>
 <path fill="none" stroke="rgb(179,179,179)" stroke-linejoin="round" d="M 11387,23597 L 11387,23447"/>
 <path fill="none" stroke="rgb(179,179,179)" stroke-linejoin="round" d="M 11387,23597 L 11387,23447"/>
 <path fill="none" stroke="rgb(179,179,179)" stroke-linejoin="round" d="M 11508,23597 L 11508,23447"/>
 <path fill="none" stroke="rgb(179,179,179)" stroke-linejoin="round" d="M 11508,23597 L 11508,23447"/>
 <path fill="none" stroke="rgb(179,179,179)" stroke-linejoin="round" d="M 11629,23597 L 11629,23447"/>
 <path fill="none" stroke="rgb(179,179,179)" stroke-linejoin="round" d="M 11629,23597 L 11629,23447"/>
 <path fill="none" stroke="rgb(179,179,179)" stroke-linejoin="round" d="M 11751,23597 L 11751,23447"/>
 <path fill="none" stroke="rgb(179,179,179)" stroke-linejoin="round" d="M 11751,23597 L 11751,23447"/>
 <path fill="none" stroke="rgb(179,179,179)" stroke-linejoin="round" d="M 11871,23597 L 11871,23447"/>
 <path fill="none" stroke="rgb(179,179,179)" stroke-linejoin="round" d="M 11871,23597 L 11871,23447"/>
 <path fill="none" stroke="rgb(179,179,179)" stroke-linejoin="round" d="M 11992,23597 L 11992,23447"/>
 <path fill="none" stroke="rgb(179,179,179)" stroke-linejoin="round" d="M 11992,23597 L 11992,23447"/>
 <path fill="none" stroke="rgb(179,179,179)" stroke-linejoin="round" d="M 12114,23597 L 12114,23447"/>
 <path fill="none" stroke="rgb(179,179,179)" stroke-linejoin="round" d="M 12114,23597 L 12114,23447"/>
 <path fill="none" stroke="rgb(179,179,179)" stroke-linejoin="round" d="M 12235,23597 L 12235,23447"/>
 <path fill="none" stroke="rgb(179,179,179)" stroke-linejoin="round" d="M 12235,23597 L 12235,23447"/>
 <path fill="none" stroke="rgb(179,179,179)" stroke-linejoin="round" d="M 12356,23597 L 12356,23447"/>
 <path fill="none" stroke="rgb(179,179,179)" stroke-linejoin="round" d="M 12356,23597 L 12356,23447"/>
 <path fill="none" stroke="rgb(179,179,179)" stroke-linejoin="round" d="M 12478,23597 L 12478,23447"/>
 <path fill="none" stroke="rgb(179,179,179)" stroke-linejoin="round" d="M 12478,23597 L 12478,23447"/>
 <path fill="none" stroke="rgb(179,179,179)" stroke-linejoin="round" d="M 12599,23597 L 12599,23447"/>
 <path fill="none" stroke="rgb(179,179,179)" stroke-linejoin="round" d="M 12599,23597 L 12599,23447"/>
 <path fill="none" stroke="rgb(179,179,179)" stroke-linejoin="round" d="M 12720,23597 L 12720,23447"/>
 <path fill="none" stroke="rgb(179,179,179)" stroke-linejoin="round" d="M 12720,23597 L 12720,23447"/>
 <path fill="none" stroke="rgb(179,179,179)" stroke-linejoin="round" d="M 12842,23597 L 12842,23447"/>
 <path fill="none" stroke="rgb(179,179,179)" stroke-linejoin="round" d="M 12842,23597 L 12842,23447"/>
 <path fill="none" stroke="rgb(179,179,179)" stroke-linejoin="round" d="M 12963,23597 L 12963,23447"/>
 <path fill="none" stroke="rgb(179,179,179)" stroke-linejoin="round" d="M 12963,23597 L 12963,23447"/>
 <path fill="none" stroke="rgb(179,179,179)" stroke-linejoin="round" d="M 13084,23597 L 13084,23447"/>
 <path fill="none" stroke="rgb(179,179,179)" stroke-linejoin="round" d="M 13084,23597 L 13084,23447"/>
 <path fill="none" stroke="rgb(179,179,179)" stroke-linejoin="round" d="M 13206,23597 L 13206,23447"/>
 <path fill="none" stroke="rgb(179,179,179)" stroke-linejoin="round" d="M 13206,23597 L 13206,23447"/>
 <path fill="none" stroke="rgb(179,179,179)" stroke-linejoin="round" d="M 13327,23597 L 13327,23447"/>
 <path fill="none" stroke="rgb(179,179,179)" stroke-linejoin="round" d="M 13327,23597 L 13327,23447"/>
 <path fill="none" stroke="rgb(179,179,179)" stroke-linejoin="round" d="M 13448,23597 L 13448,23447"/>
 <path fill="none" stroke="rgb(179,179,179)" stroke-linejoin="round" d="M 13448,23597 L 13448,23447"/>
 <path fill="none" stroke="rgb(179,179,179)" stroke-linejoin="round" d="M 13570,23597 L 13570,23447"/>
 <path fill="none" stroke="rgb(179,179,179)" stroke-linejoin="round" d="M 13570,23597 L 13570,23447"/>
 <path fill="none" stroke="rgb(179,179,179)" stroke-linejoin="round" d="M 13691,23597 L 13691,23447"/>
 <path fill="none" stroke="rgb(179,179,179)" stroke-linejoin="round" d="M 13691,23597 L 13691,23447"/>
 <path fill="none" stroke="rgb(179,179,179)" stroke-linejoin="round" d="M 13812,23597 L 13812,23447"/>
 <path fill="none" stroke="rgb(179,179,179)" stroke-linejoin="round" d="M 13812,23597 L 13812,23447"/>
 <path fill="none" stroke="rgb(179,179,179)" stroke-linejoin="round" d="M 13934,23597 L 13934,23447"/>
 <path fill="none" stroke="rgb(179,179,179)" stroke-linejoin="round" d="M 13934,23597 L 13934,23447"/>
 <path fill="none" stroke="rgb(179,179,179)" stroke-linejoin="round" d="M 14055,23597 L 14055,23447"/>
 <path fill="none" stroke="rgb(179,179,179)" stroke-linejoin="round" d="M 14055,23597 L 14055,23447"/>
 <path fill="none" stroke="rgb(179,179,179)" stroke-linejoin="round" d="M 14176,23597 L 14176,23447"/>
 <path fill="none" stroke="rgb(179,179,179)" stroke-linejoin="round" d="M 14176,23597 L 14176,23447"/>
 <path fill="none" stroke="rgb(179,179,179)" stroke-linejoin="round" d="M 14298,23597 L 14298,23447"/>
 <path fill="none" stroke="rgb(179,179,179)" stroke-linejoin="round" d="M 14298,23597 L 14298,23447"/>
 <path fill="none" stroke="rgb(179,179,179)" stroke-linejoin="round" d="M 14419,23597 L 14419,23447"/>
 <path fill="none" stroke="rgb(179,179,179)" stroke-linejoin="round" d="M 14419,23597 L 14419,23447"/>
 <path fill="none" stroke="rgb(179,179,179)" stroke-linejoin="round" d="M 14540,23597 L 14540,23447"/>
 <path fill="none" stroke="rgb(179,179,179)" stroke-linejoin="round" d="M 14540,23597 L 14540,23447"/>
 <path fill="none" stroke="rgb(179,179,179)" stroke-linejoin="round" d="M 14662,23597 L 14662,23447"/>
 <path fill="none" stroke="rgb(179,179,179)" stroke-linejoin="round" d="M 14662,23597 L 14662,23447"/>
 <path fill="none" stroke="rgb(179,179,179)" stroke-linejoin="round" d="M 14783,23597 L 14783,23447"/>
 <path fill="none" stroke="rgb(179,179,179)" stroke-linejoin="round" d="M 14783,23597 L 14783,23447"/>
 <path fill="none" stroke="rgb(179,179,179)" stroke-linejoin="round" d="M 14904,23597 L 14904,23447"/>
 <path fill="none" stroke="rgb(179,179,179)" stroke-linejoin="round" d="M 14904,23597 L 14904,23447"/>
 <path fill="none" stroke="rgb(179,179,179)" stroke-linejoin="round" d="M 15026,23597 L 15026,23447"/>
 <path fill="none" stroke="rgb(179,179,179)" stroke-linejoin="round" d="M 15026,23597 L 15026,23447"/>
 <path fill="none" stroke="rgb(179,179,179)" stroke-linejoin="round" d="M 15147,23597 L 15147,23447"/>
 <path fill="none" stroke="rgb(179,179,179)" stroke-linejoin="round" d="M 15147,23597 L 15147,23447"/>
 <path fill="none" stroke="rgb(179,179,179)" stroke-linejoin="round" d="M 15268,23597 L 15268,23447"/>
 <path fill="none" stroke="rgb(179,179,179)" stroke-linejoin="round" d="M 15268,23597 L 15268,23447"/>
 <path fill="none" stroke="rgb(179,179,179)" stroke-linejoin="round" d="M 15390,23597 L 15390,23447"/>
 <path fill="none" stroke="rgb(179,179,179)" stroke-linejoin="round" d="M 15390,23597 L 15390,23447"/>
 <path fill="none" stroke="rgb(179,179,179)" stroke-linejoin="round" d="M 15511,23597 L 15511,23447"/>
 <path fill="none" stroke="rgb(179,179,179)" stroke-linejoin="round" d="M 15511,23597 L 15511,23447"/>
 <path fill="none" stroke="rgb(179,179,179)" stroke-linejoin="round" d="M 15632,23597 L 15632,23447"/>
 <path fill="none" stroke="rgb(179,179,179)" stroke-linejoin="round" d="M 15632,23597 L 15632,23447"/>
 <path fill="none" stroke="rgb(179,179,179)" stroke-linejoin="round" d="M 15754,23597 L 15754,23447"/>
 <path fill="none" stroke="rgb(179,179,179)" stroke-linejoin="round" d="M 15754,23597 L 15754,23447"/>
 <path fill="none" stroke="rgb(179,179,179)" stroke-linejoin="round" d="M 15875,23597 L 15875,23447"/>
 <path fill="none" stroke="rgb(179,179,179)" stroke-linejoin="round" d="M 15875,23597 L 15875,23447"/>
 <path fill="none" stroke="rgb(179,179,179)" stroke-linejoin="round" d="M 15996,23597 L 15996,23447"/>
 <path fill="none" stroke="rgb(179,179,179)" stroke-linejoin="round" d="M 15996,23597 L 15996,23447"/>
 <path fill="none" stroke="rgb(179,179,179)" stroke-linejoin="round" d="M 16118,23597 L 16118,23447"/>
 <path fill="none" stroke="rgb(179,179,179)" stroke-linejoin="round" d="M 16118,23597 L 16118,23447"/>
 <path fill="none" stroke="rgb(179,179,179)" stroke-linejoin="round" d="M 16239,23597 L 16239,23447"/>
 <path fill="none" stroke="rgb(179,179,179)" stroke-linejoin="round" d="M 16239,23597 L 16239,23447"/>
 <path fill="none" stroke="rgb(179,179,179)" stroke-linejoin="round" d="M 16360,23597 L 16360,23447"/>
 <path fill="none" stroke="rgb(179,179,179)" stroke-linejoin="round" d="M 16360,23597 L 16360,23447"/>
 <path fill="none" stroke="rgb(179,179,179)" stroke-linejoin="round" d="M 16482,23597 L 16482,23447"/>
 <path fill="none" stroke="rgb(179,179,179)" stroke-linejoin="round" d="M 16482,23597 L 16482,23447"/>
 <path fill="none" stroke="rgb(179,179,179)" stroke-linejoin="round" d="M 16603,23597 L 16603,23447"/>
 <path fill="none" stroke="rgb(179,179,179)" stroke-linejoin="round" d="M 16603,23597 L 16603,23447"/>
 <path fill="none" stroke="rgb(179,179,179)" stroke-linejoin="round" d="M 16724,23597 L 16724,23447"/>
 <path fill="none" stroke="rgb(179,179,179)" stroke-linejoin="round" d="M 16724,23597 L 16724,23447"/>
 <path fill="none" stroke="rgb(179,179,179)" stroke-linejoin="round" d="M 16846,23597 L 16846,23447"/>
 <path fill="none" stroke="rgb(179,179,179)" stroke-linejoin="round" d="M 16846,23597 L 16846,23447"/>
 <path fill="none" stroke="rgb(179,179,179)" stroke-linejoin="round" d="M 16967,23597 L 16967,23447"/>
 <path fill="none" stroke="rgb(179,179,179)" stroke-linejoin="round" d="M 16967,23597 L 16967,23447"/>
 <path fill="none" stroke="rgb(179,179,179)" stroke-linejoin="round" d="M 17088,23597 L 17088,23447"/>
 <path fill="none" stroke="rgb(179,179,179)" stroke-linejoin="round" d="M 17088,23597 L 17088,23447"/>
 <path fill="none" stroke="rgb(179,179,179)" stroke-linejoin="round" d="M 17210,23597 L 17210,23447"/>
 <path fill="none" stroke="rgb(179,179,179)" stroke-linejoin="round" d="M 17210,23597 L 17210,23447"/>
 <path fill="none" stroke="rgb(179,179,179)" stroke-linejoin="round" d="M 17331,23597 L 17331,23447"/>
 <path fill="none" stroke="rgb(179,179,179)" stroke-linejoin="round" d="M 17331,23597 L 17331,23447"/>
 <path fill="none" stroke="rgb(179,179,179)" stroke-linejoin="round" d="M 17452,23597 L 17452,23447"/>
 <path fill="none" stroke="rgb(179,179,179)" stroke-linejoin="round" d="M 17452,23597 L 17452,23447"/>
 <path fill="none" stroke="rgb(179,179,179)" stroke-linejoin="round" d="M 17574,23597 L 17574,23447"/>
 <path fill="none" stroke="rgb(179,179,179)" stroke-linejoin="round" d="M 17574,23597 L 17574,23447"/>
 <path fill="none" stroke="rgb(179,179,179)" stroke-linejoin="round" d="M 17695,23597 L 17695,23447"/>
 <path fill="none" stroke="rgb(179,179,179)" stroke-linejoin="round" d="M 17695,23597 L 17695,23447"/>
 <path fill="none" stroke="rgb(179,179,179)" stroke-linejoin="round" d="M 17816,23597 L 17816,23447"/>
 <path fill="none" stroke="rgb(179,179,179)" stroke-linejoin="round" d="M 17816,23597 L 17816,23447"/>
 <path fill="none" stroke="rgb(179,179,179)" stroke-linejoin="round" d="M 17938,23597 L 17938,23447"/>
 <path fill="none" stroke="rgb(179,179,179)" stroke-linejoin="round" d="M 17938,23597 L 17938,23447"/>
 <path fill="none" stroke="rgb(179,179,179)" stroke-linejoin="round" d="M 18059,23597 L 18059,23447"/>
 <path fill="none" stroke="rgb(179,179,179)" stroke-linejoin="round" d="M 18059,23597 L 18059,23447"/>
 <path fill="none" stroke="rgb(179,179,179)" stroke-linejoin="round" d="M 18180,23597 L 18180,23447"/>
 <path fill="none" stroke="rgb(179,179,179)" stroke-linejoin="round" d="M 18180,23597 L 18180,23447"/>
 <path fill="none" stroke="rgb(179,179,179)" stroke-linejoin="round" d="M 18302,23597 L 18302,23447"/>
 <path fill="none" stroke="rgb(179,179,179)" stroke-linejoin="round" d="M 18302,23597 L 18302,23447"/>
 <path fill="none" stroke="rgb(179,179,179)" stroke-linejoin="round" d="M 18423,23597 L 18423,23447"/>
 <path fill="none" stroke="rgb(179,179,179)" stroke-linejoin="round" d="M 18423,23597 L 18423,23447"/>
 <path fill="none" stroke="rgb(179,179,179)" stroke-linejoin="round" d="M 18545,23597 L 18545,23447"/>
 <path fill="none" stroke="rgb(179,179,179)" stroke-linejoin="round" d="M 18545,23597 L 18545,23447"/>
 <path fill="none" stroke="rgb(179,179,179)" stroke-linejoin="round" d="M 1316,23447 L 18545,23447"/>
 <path fill="none" stroke="rgb(179,179,179)" stroke-linejoin="round" d="M 1166,23447 L 1316,23447"/>
 <path fill="none" stroke="rgb(179,179,179)" stroke-linejoin="round" d="M 1166,23447 L 1316,23447"/>
 <path fill="none" stroke="rgb(179,179,179)" stroke-linejoin="round" d="M 1166,21277 L 1316,21277"/>
 <path fill="none" stroke="rgb(179,179,179)" stroke-linejoin="round" d="M 1166,21277 L 1316,21277"/>
 <path fill="none" stroke="rgb(179,179,179)" stroke-linejoin="round" d="M 1166,19106 L 1316,19106"/>
 <path fill="none" stroke="rgb(179,179,179)" stroke-linejoin="round" d="M 1166,19106 L 1316,19106"/>
 <path fill="none" stroke="rgb(179,179,179)" stroke-linejoin="round" d="M 1166,16937 L 1316,16937"/>
 <path fill="none" stroke="rgb(179,179,179)" stroke-linejoin="round" d="M 1166,16937 L 1316,16937"/>
 <path fill="none" stroke="rgb(179,179,179)" stroke-linejoin="round" d="M 1166,14767 L 1316,14767"/>
 <path fill="none" stroke="rgb(179,179,179)" stroke-linejoin="round" d="M 1166,14767 L 1316,14767"/>
 <path fill="none" stroke="rgb(179,179,179)" stroke-linejoin="round" d="M 1166,12597 L 1316,12597"/>
 <path fill="none" stroke="rgb(179,179,179)" stroke-linejoin="round" d="M 1166,12597 L 1316,12597"/>
 <path fill="none" stroke="rgb(179,179,179)" stroke-linejoin="round" d="M 1166,10427 L 1316,10427"/>
 <path fill="none" stroke="rgb(179,179,179)" stroke-linejoin="round" d="M 1166,10427 L 1316,10427"/>
 <path fill="none" stroke="rgb(179,179,179)" stroke-linejoin="round" d="M 1166,8257 L 1316,8257"/>
 <path fill="none" stroke="rgb(179,179,179)" stroke-linejoin="round" d="M 1166,8257 L 1316,8257"/>
 <path fill="none" stroke="rgb(179,179,179)" stroke-linejoin="round" d="M 1166,6088 L 1316,6088"/>
 <path fill="none" stroke="rgb(179,179,179)" stroke-linejoin="round" d="M 1166,6088 L 1316,6088"/>
 <path fill="none" stroke="rgb(179,179,179)" stroke-linejoin="round" d="M 1166,3918 L 1316,3918"/>
 <path fill="none" stroke="rgb(179,179,179)" stroke-linejoin="round" d="M 1166,3918 L 1316,3918"/>
 <path fill="none" stroke="rgb(179,179,179)" stroke-linejoin="round" d="M 1166,1748 L 1316,1748"/>
 <path fill="none" stroke="rgb(179,179,179)" stroke-linejoin="round" d="M 1166,1748 L 1316,1748"/>
 <path fill="none" stroke="rgb(179,179,179)" stroke-linejoin="round" d="M 1316,23447 L 1316,1748"/>
 <path fill="none" stroke="rgb(191,0,65)" stroke-width="80" stroke-linejoin="round" stroke-dasharray="80,40" d="M 3914,1748 L 3924,1820 4046,2722 4167,4232 4288,5635 4410,6570 4531,9403 4652,8230 4774,7652 4895,11091 5016,12328 5138,10736 5259,11174 5380,11042 5502,12329 5623,12010 5744,12084 5866,11722 5987,12279 6108,12683 6230,13023 6351,14359 6472,15325 6594,15987 6715,16998 6836,17145 6958,17092 7079,16893 7200,16786 7322,17056 7443,17220 7564,17266 7686,17502 7807,17639 7928,17905 8050,19068 8171,18829 8292,18993 8414,19027 8535,19287 8656,19295 8778,19438 8899,18240 9020,18824 9142,18985 9263,19004 9384,19172 9506,19037 9627,19001 9748,19415 9870,19472 9991,19434 10113,19906 10234,19620 10355,19733 10477,19830 10598,19868 10719,20084 10841,20201 10962,20022 11083,20197 11205,20041 11326,19975 11447,19894 11569,19664 11690,19675 11810,19783 11932,20051 12053,19904 12174,19699 12296,19868 12417,19888 12538,19664 12660,19346 12781,19452 12902,19486 13024,19279 13145,19286 13266,19302 13388,18743 13509,18522 13630,17643 13752,17502 13873,17714 13994,17029 14116,16394 14237,16215 14358,16009 14480,16229 14601,15876 14722,15379 14844,15601 14965,15536 15086,15642 15208,15787 15329,15627 15450,15850 15572,16096 15693,15852 15814,15424 15936,15047 16057,14310 16178,14093 16300,14328 16421,14475 16542,14329 16664,14579 16785,15796 16906,16572 17028,16728 17149,16695 17270,16655 17392,16698 17513,16971 17634,16914 17756,16800 17877,16831 17998,16735 18120,16829 18241,17332 18362,17668 18484,17915"/>
 <path fill="none" stroke="rgb(85,48,141)" stroke-width="80" stroke-linejoin="round" stroke-dasharray="158,158" d="M 6196,1748 L 6230,3272 6351,4939 6472,4823 6594,5986 6715,6656 6836,7542 6958,7496 7079,7139 7200,7507 7322,8425 7443,8129 7564,8109 7686,8376 7807,9115 7928,9476 8050,9752 8171,9545 8292,9800 8414,8841 8535,8670 8656,8521 8778,8509 8899,8611 9020,8572 9142,8228 9263,8902 9384,8707 9506,9010 9627,9014 9748,9145 9870,9090 9991,8885 10113,8859 10234,9395 10355,9519 10477,9353 10577,1748"/>
 <path fill="none" stroke="rgb(85,48,141)" stroke-width="80" stroke-linejoin="round" stroke-dasharray="158,158" d="M 10760,1748 L 10841,2636 10962,3594 11083,4289 11205,4396 11326,5426 11447,14065 11569,14023 11690,14030 11810,14272 11932,14144 12053,14652 12174,14519 12296,14680 12417,14880 12538,15187 12660,15229 12781,14891 12902,14969 13024,15056 13145,15360 13266,15428 13388,15366 13509,15378 13630,15777 13752,15775 13873,15765 13994,15737 14116,15672 14237,15415 14358,15305 14480,15516 14601,15350 14722,15481 14844,15550 14965,14829 15086,14972 15208,15047 15329,14959 15450,15122 15572,15215 15693,15198 15814,16043 15936,16189 16057,16315 16178,16266 16300,16343 16421,16263 16542,16336 16664,16315 16785,16318 16906,16306 17028,16460 17149,16332 17270,16403 17392,16580 17513,16692 17634,16710 17756,16793 17877,16842 17998,17057 18120,17175 18241,17046 18362,17141 18484,17295"/>
 <path fill="none" stroke="rgb(0,0,255)" stroke-width="80" stroke-linejoin="round" stroke-dasharray="80,40" d="M 3894,1748 L 3924,2467 4046,3482 4167,6536 4288,7778 4410,8186 4531,8261 4652,9077 4774,9027 4895,9773 5016,10098 5138,10608 5259,11098 5380,11341 5502,12868 5623,13507 5744,15196 5866,14804 5987,14190 6108,13833 6230,14338 6351,14199 6472,14639 6594,13684 6715,13428 6836,13823 6958,13964 7079,14516 7200,14385 7322,13908 7443,15543 7564,17141 7686,18112 7807,17233 7928,17172 8050,18062 8171,18368 8292,18262 8414,18446 8535,17410 8656,18738 8778,18794 8899,18260 9020,18642 9142,18765 9263,18081 9384,18834 9506,19126 9627,19027 9748,19570 9870,19469 9991,19609 10113,19770 10234,19721 10355,19451 10477,19435 10598,18824 10719,18823 10841,18599 10962,18735 11083,18749 11205,18979 11326,19012 11447,19367 11569,19442 11690,19388 11810,19159 11932,18876 12053,18681 12174,18513 12296,18302 12417,18017 12538,17905 12660,17525 12781,17644 12902,17303 13024,16793 13145,15690 13266,14845 13388,13695 13509,13757 13630,13343 13752,12756 13873,12604 13994,13263 14116,13182 14237,13534 14358,12658 14480,12258 14601,12536 14722,12459 14844,12709 14965,12153 15086,12285 15208,12860 15329,12739 15450,13067 15572,8181 15693,7230 15814,7554 15936,8660 16057,9413 16178,9214 16300,10101 16421,15179 16542,15741 16664,15806 16785,15115 16906,14314 17028,14957 17149,14424 17270,14944 17392,16515 17513,17091 17634,17359 17756,17408 17877,17649 17998,17574 18120,17724 18241,16594 18362,17037 18484,17215"/>
 <path fill="none" stroke="rgb(255,191,0)" stroke-width="80" stroke-linejoin="round" stroke-dasharray="80,40" d="M 4261,1748 L 4288,2547 4410,3241 4531,3820 4652,3745 4774,7413 4895,9349 5016,9927 5138,10831 5259,11094 5380,11274 5502,11410 5623,11895 5744,12677 5866,13505 5987,13353 6108,13654 6230,13902 6351,14369 6472,14763 6594,14595 6715,14760 6836,15031 6958,15073 7079,15638 7200,15547 7322,15521 7443,15896 7564,16126 7686,16290 7807,16575 7928,16974 8050,18154 8171,18519 8292,18480 8414,18568 8535,18720 8656,18601 8778,18275 8899,17911 9020,18097 9142,18545 9263,18635 9384,18598 9506,18661 9627,18918 9748,19011 9870,18684 9991,18661 10113,19144 10234,19028 10355,19071 10477,19188 10598,19285 10719,19718 10841,19743 10962,19541 11083,19873 11205,19906 11326,19611 11447,19891 11569,19708 11690,19791 11810,19911 11932,20247 12053,20165 12174,20195 12296,19929 12417,20081 12538,20015 12660,20140 12781,20246 12902,20220 13024,20124 13145,19943 13266,19584 13388,19332 13509,19048 13630,18698 13752,18829 13873,19080 13994,18976 14116,19202 14237,19460 14358,19403 14480,19278 14601,19359 14722,19277 14844,19627 14965,19492 15086,19320 15208,19257 15329,19468 15450,19323 15572,19403 15693,19094 15814,18803 15936,19081 16057,18881 16178,18610 16300,18576 16421,18608 16542,18421 16664,19062 16785,18662 16906,19118 17028,18979 17149,18915 17270,18689 17392,19686 17513,19265 17634,19770 17756,19099 17877,19611 17998,19825 18120,20049 18241,19401 18362,19665 18484,19693"/>
 <path fill="none" stroke="rgb(0,169,51)" stroke-width="80" stroke-linejoin="round" stroke-dasharray="80,40" d="M 6890,1748 L 6958,2004 7079,2082 7200,4213 7322,4216 7443,3740 7564,3218 7686,5090 7807,4862 7928,4718 8050,4543 8171,5582 8292,6554 8414,8383 8535,7729 8656,8562 8778,9040 8899,10092 9020,7636 9142,6647 9263,6138 9384,6885 9506,6975 9627,6859 9748,7078 9870,10023 9991,11689 10113,12644 10234,12650 10355,12542 10477,12554 10598,12600 10719,12925 10841,13095 10962,13035 11083,13391 11205,11588 11326,11094 11447,11437 11569,11519 11690,11771 11810,11988 11932,11752 12053,13856 12174,14728 12296,15293 12417,15978 12538,16296 12660,16605 12781,16891 12902,16947 13024,17049 13145,16812 13266,16922 13388,16998 13509,17123 13630,17209 13752,17261 13873,17349 13994,17600 14116,18008 14237,18206 14358,18218 14480,18250 14601,18267 14722,18562 14844,18580 14965,18409 15086,18440 15208,18536 15329,18440 15450,18467 15572,18460 15693,18638 15814,19052 15936,19209 16057,19332 16178,19346 16300,19407 16421,19513 16542,19585 16664,19297 16785,19185 16906,19149 17028,19301 17149,19309 17270,18935 17392,18953 17513,19108 17634,19343 17756,19558 17877,19660 17998,19746 18120,20155 18241,20352 18362,20418 18484,20454"/>
 <path fill="none" stroke="rgb(0,169,51)" stroke-width="80" stroke-linejoin="round" stroke-dasharray="158,102" d="M 1376,3409 L 1498,5458 1619,6730 1740,7326 1862,7616 1983,7989 2104,8861 2226,9767 2347,10400 2468,11089 2590,12069 2711,12955 2832,13627 2954,14356 3075,14925 3196,15432 3318,16001 3439,16733 3560,17199 3682,17540 3803,17756 3924,17868 4046,17991 4167,18054 4288,18107 4410,18426 4531,18472 4652,18694 4774,18890 4895,19115 5016,19421 5138,19560 5259,19699 5380,19926 5502,20027 5623,20088 5744,20149 5866,20240 5987,20394 6108,20389 6230,20626 6351,20756 6472,20978 6594,20984 6715,21051 6836,21154 6958,21172 7079,21031 7200,20958 7322,20887 7443,20945 7564,20944 7686,20806 7807,20782 7928,21023 8050,21075 8171,21144 8292,21183 8414,21205 8535,21235 8656,21223 8778,20959 8899,20938 9020,20876 9142,20920 9263,20863 9384,20781 9506,20752 9627,20841 9748,20807 9870,20771 9991,20688 10113,20645 10234,20692 10355,20533 10477,20334 10598,20150 10719,19982 10841,19968 10962,19773 11083,19584 11205,19586 11326,19606 11447,19626 11569,19614 11690,19430 11810,19533 11932,19534 12053,19455 12174,19312 12296,19249 12417,19270 12538,19265 12660,19119 12781,19075 12902,19056 13024,19131 13145,18977 13266,18987 13388,18761 13509,18871 13630,18779 13752,18728 13873,18633 13994,18790 14116,18684 14237,18851 14358,18760 14480,18830 14601,18849 14722,18874 14844,18772 14965,18776 15086,18771 15208,18732 15329,18774 15450,18821 15572,18906 15693,18959 15814,19093 15936,19142 16057,19254 16178,19248 16300,19328 16421,19374 16542,19495 16664,19572 16785,19761 16906,19911 17028,20170 17149,20323 17270,20427 17392,20532 17513,20555 17634,20583 17756,20577 17877,20528 17998,20592 18120,20677 18241,20741 18362,20848 18484,20951"/>
 <path fill="none" stroke="rgb(255,64,0)" stroke-width="80" stroke-linejoin="round" stroke-dasharray="80,40" d="M 6689,1748 L 6715,2023 6836,3059 6958,3958 7079,4081 7200,4215 7322,5029 7443,4697 7564,5794 7686,5849 7807,5816 7928,6400 8050,7690 8171,7939 8292,8927 8414,9364 8535,9999 8656,10718 8778,11496 8899,11608 9020,11664 9142,11659 9263,12320 9384,12766 9506,12874 9627,13013 9748,13421 9870,13937 9991,14647 10113,15018 10234,15245 10355,15259 10477,15470 10598,15723 10719,15976 10841,16203 10962,16053 11083,16075 11205,16176 11326,16227 11447,16344 11569,16616 11690,16881 11810,17234 11932,17286 12053,17415 12174,17485 12296,17718 12417,17962 12538,17989 12660,17853 12781,17975 12902,17990 13024,18108 13145,18242 13266,18198 13388,18327 13509,18484 13630,18581 13752,18607 13873,18578 13994,18640 14116,18720 14237,18739 14358,18852 14480,19012 14601,18999 14722,19104 14844,19141 14965,19182 15086,19262 15208,19328 15329,19217 15450,19343 15572,19385 15693,19691 15814,19586 15936,19740 16057,19762 16178,19875 16300,19905 16421,19956 16542,19878 16664,20017 16785,20008 16906,20116 17028,20239 17149,20244 17270,20197 17392,20182 17513,20347 17634,20375 17756,20417 17877,20529 17998,20525 18120,20553 18241,20556 18362,20573 18484,20631"/>
 <path fill="none" stroke="rgb(21,132,102)" stroke-width="80" stroke-linejoin="round" stroke-dasharray="80,203,80,203,203,203" d="M 3106,1748 L 3196,3111 3318,3822 3439,4729 3560,6062 3682,6965 3803,7735 3924,9151 4046,10002 4167,11361 4288,12082 4410,12561 4531,13105 4652,13685 4774,14048 4895,14572 5016,15199 5138,15457 5259,15694 5380,15969 5502,16309 5623,16554 5744,16839 5866,16911 5987,17270 6108,17334 6230,17550 6351,17747 6472,18111 6594,18239 6715,18396 6836,18488 6958,18594 7079,18677 7200,18885 7322,19013 7443,19155 7564,19225 7686,19302 7807,19364 7928,19692 8050,19818 8171,19826 8292,19889 8414,20017 8535,20036 8656,20097 8778,19875 8899,19850 9020,19868 9142,19857 9263,19901 9384,19971 9506,20012 9627,19965 9748,20000 9870,20089 9991,20178 10113,20263 10234,20255 10355,20205 10477,20265 10598,20100 10719,20134 10841,20144 10962,19979 11083,20010 11205,19977 11326,19991 11447,20191 11569,20227 11690,20286 11810,20465 11932,20469 12053,20576 12174,20582 12296,20632 12417,20685 12538,20678 12660,20688 12781,20719 12902,20704 13024,20716 13145,20658 13266,20657 13388,20657 13509,20650 13630,20639 13752,20617 13873,20635 13994,20702 14116,20714 14237,20714 14358,20635 14480,20594 14601,20609 14722,20602 14844,20586 14965,20503 15086,20224 15208,20305 15329,20339 15450,20388 15572,20338 15693,20359 15814,20417 15936,20734 16057,20750 16178,20778 16300,20750 16421,20829 16542,20812 16664,20815 16785,20808 16906,20826 17028,20851 17149,20852 17270,20830 17392,20889 17513,20936 17634,20973 17756,20762 17877,20786 17998,20824 18120,20889 18241,20885 18362,20898 18484,20932"/>
 <path fill="none" stroke="rgb(0,223,255)" stroke-width="80" stroke-linejoin="round" stroke-dasharray="158,102" d="M 5788,1748 L 5866,2880 5987,1961 6108,1917 6230,2548 6351,3557 6472,4388 6594,5286 6715,5941 6836,6582 6958,7221 7079,8045 7200,8660 7322,8536 7443,8498 7564,8532 7686,8890 7807,8436 7928,8922 8050,8609 8171,8903 8292,8841 8414,8420 8535,8498 8656,9328 8778,8921 8899,9494 9020,9885 9142,10518 9263,12077 9384,12376 9506,12738 9627,13476 9748,13931 9870,13930 9991,14195 10113,14130 10234,15081 10355,15384 10477,15309 10598,15381 10719,15805 10841,15940 10962,16158 11083,15981 11205,16171 11326,16613 11447,17033 11569,17432 11690,18091 11810,18242 11932,18201 12053,18309 12174,18384 12296,18472 12417,18251 12538,18023 12660,18132 12781,18345 12902,18249 13024,18097 13145,17981 13266,18300 13388,18248 13509,18350 13630,18344 13752,18428 13873,18625 13994,18812 14116,18952 14237,19061 14358,19083 14480,19412 14601,19593 14722,19700 14844,19839 14965,19854 15086,19977 15208,20148 15329,20096 15450,20185 15572,20208 15693,20261 15814,20295 15936,20395 16057,20405 16178,20606 16300,20646 16421,20683 16542,20730 16664,20855 16785,20923 16906,21083 17028,20994 17149,20988 17270,21029 17392,21096 17513,21148 17634,21142 17756,21176 17877,21228 17998,21262 18120,21319 18241,21340 18362,21395 18484,21454"/>
 <path fill="none" stroke="rgb(141,40,30)" stroke-width="80" stroke-linejoin="round" stroke-dasharray="80,40" d="M 3770,1748 L 3803,2214 3924,4054 4046,4860 4167,6693 4288,8459 4410,8850 4531,9805 4652,10771 4774,11313 4895,12009 5016,12672 5138,13003 5259,13403 5380,13753 5502,14055 5623,14535 5744,15106 5866,15431 5987,15754 6108,16015 6230,16345 6351,16972 6472,17512 6594,17743 6715,17903 6836,18148 6958,18277 7079,18464 7200,18595 7322,18785 7443,19147 7564,19422 7686,19516 7807,19616 7928,19766 8050,20220 8171,20300 8292,20359 8414,20443 8535,20543 8656,20570 8778,20476 8899,20348 9020,20606 9142,20709 9263,20830 9384,20973 9506,21045 9627,21168 9748,21229 9870,21286 9991,21359 10113,21422 10234,21405 10355,21466 10477,21522 10598,21576 10719,21653 10841,21733 10962,21805 11083,21870 11205,21883 11326,21890 11447,21899 11569,21905 11690,21968 11810,21997 11932,22045 12053,22060 12174,22072 12296,22121 12417,22156 12538,22104 12660,22097 12781,22181 12902,22167 13024,22175 13145,22016 13266,21968 13388,21880 13509,21829 13630,21692 13752,21645 13873,21637 13994,21752 14116,21724 14237,21756 14358,21737 14480,21689 14601,21696 14722,21662 14844,21616 14965,21553 15086,21513 15208,21463 15329,21466 15450,21462 15572,21282 15693,21220 15814,21171 15936,21160 16057,21141 16178,21094 16300,21122 16421,21311 16542,21327 16664,21366 16785,21373 16906,21390 17028,21415 17149,21390 17270,21401 17392,21505 17513,21485 17634,21547 17756,21535 17877,21561 17998,21552 18120,21579 18241,21522 18362,21579 18484,21591"/>
 <path fill="none" stroke="rgb(255,0,0)" stroke-width="80" stroke-linejoin="round" stroke-dasharray="158,102" d="M 4088,1748 L 4167,3060 4288,4710 4410,6492 4531,8034 4652,9365 4774,10570 4895,11548 5016,12464 5138,13342 5259,14287 5380,15051 5502,15788 5623,16361 5744,17061 5866,17705 5987,18204 6108,18477 6230,18681 6351,18835 6472,18990 6594,19084 6715,19141 6836,19303 6958,19388 7079,19718 7200,20047 7322,20481 7443,20825 7564,21081 7686,21200 7807,21350 7928,21386 8050,21400 8171,21298 8292,21281 8414,21285 8535,21361 8656,21447 8778,21519 8899,21591 9020,21703 9142,21802 9263,21909 9384,21966 9506,21993 9627,22039 9748,22083 9870,22156 9991,22200 10113,22233 10234,22303 10355,22383 10477,22396 10598,22409 10719,22395 10841,22362 10962,22293 11083,22224 11205,22155 11326,22106 11447,22021 11569,21982 11690,21989 11810,22031 11932,22081 12053,22158 12174,22216 12296,22318 12417,22367 12538,22406 12660,22410 12781,22388 12902,22357 13024,22377 13145,22355 13266,22334 13388,22329 13509,22300 13630,22296 13752,22300 13873,22279 13994,22275 14116,22321 14237,22300 14358,22346 14480,22383 14601,22411 14722,22430 14844,22450 14965,22437 15086,22465 15208,22476 15329,22487 15450,22482 15572,22485 15693,22512 15814,22554 15936,22581 16057,22583 16178,22562 16300,22557 16421,22545 16542,22524 16664,22488 16785,22498 16906,22516 17028,22542 17149,22568 17270,22608 17392,22633 17513,22644 17634,22593 17756,22543 17877,22508 17998,22481 18120,22424 18241,22390 18362,22356 18484,22375"/>
 <path fill="none" stroke="rgb(89,131,176)" stroke-width="80" stroke-linejoin="round" d="M 3051,1748 L 3075,2392 3196,5766 3318,5012 3439,7036 3560,10902 3682,8225 3803,10022 3924,12741 4046,11455 4167,13203 4288,13655 4410,13977 4531,17692 4652,17723 4774,18805 4895,19867 5016,21048 5138,21287 5259,21287 5380,21541 5502,21550 5623,21560 5744,22000 5866,21793 5987,21801 6108,21801 6230,21418 6351,20822 6472,20834 6594,20447 6715,20659 6836,20870 6958,20870 7079,21703 7200,22495 7322,22499 7443,22885 7564,22885 7686,22885 7807,22885 7928,23074 8050,23074 8171,23261 8292,23262 8414,23262 8535,23262 8656,23262 8778,23262 8899,23077 9020,23077 9142,23079 9263,23079 9384,23079 9506,23079 9627,22895 9748,23080 9870,23080 9991,22717 10113,22717 10234,22717 10355,22717 10477,22902 10598,22902 10719,22720 10841,23088 10962,23088 11083,23088 11205,23088 11326,22370 11447,22370 11569,22375 11690,22557 11810,22557 11932,22557 12053,22557 12174,23271 12296,23097 12417,23098 12538,23098 12660,23098 12781,23098 12902,23098 13024,23098 13145,23273 13266,23447 13388,23274 13509,23274 13630,23274 13752,23274 13873,23101 13994,23101 14116,23101 14237,23102 14358,22930 14480,22930 14601,22930 14722,23103 14844,23103 14965,23103 15086,23276 15208,23447 15329,23447 15450,23447 15572,23447 15693,23447 15814,23447 15936,23447 16057,23447 16178,23447 16300,23447 16421,23276 16542,23276 16664,23276 16785,23276 16906,23276 17028,23276 17149,23276 17270,23447 17392,23447 17513,23447 17634,23277 17756,22599 17877,22599 17998,22599 18120,22599 18241,22429 18362,22429 18484,22264"/>
 <path fill="none" stroke="rgb(255,211,32)" stroke-width="80" stroke-linejoin="round" d="M 3216,1748 L 3318,3753 3439,5953 3560,8352 3682,7969 3803,12664 3924,12467 4046,12918 4167,13161 4288,14575 4410,15513 4531,16959 4652,17833 4774,19482 4895,18073 5016,18174 5138,18071 5259,17923 5380,17803 5502,17711 5623,16755 5744,17194 5866,17479 5987,17955 6108,17846 6230,18280 6351,19056 6472,18808 6594,19749 6715,19949 6836,20302 6958,20657 7079,21138 7200,20533 7322,21351 7443,21521 7564,20945 7686,20807 7807,20971 7928,20524 8050,21291 8171,21591 8292,21603 8414,22473 8535,22755 8656,22758 8778,22899 8899,22625 9020,22351 9142,22494 9263,22358 9384,22358 9506,22497 9627,22500 9748,22775 9870,22779 9991,23180 10113,23181 10234,23314 10355,23181 10477,23182 10598,23050 10719,23052 10841,22653 10962,22655 11083,22388 11205,22523 11326,22657 11447,22398 11569,22143 11690,22017 11810,21633 11932,21767 12053,21896 12174,21896 12296,22166 12417,22687 12538,22440 12660,22949 12781,23198 12902,23447 13024,23197 13145,23198 13266,23198 13347,23447"/>
 <path fill="none" stroke="rgb(255,211,32)" stroke-width="80" stroke-linejoin="round" d="M 13569,23447 L 13630,23323 13752,22948 13873,23074 13994,22952 14116,22952 14237,23077 14358,22707 14480,22707 14601,22583 14722,22709 14844,22835 14965,22346 15086,22224 15208,22113 15329,22113 15450,21996 15572,21754 15693,21759 15814,22254 15936,21782 16057,21918 16178,21800 16300,21926 16421,21934 16542,22402 16664,21822 16785,22187 16906,22651 17028,22767 17149,22768 17270,22997 17392,22540 17513,23111 17634,23335 17756,22889 17877,22777 17998,22668 18120,22445 18241,22337 18362,22004 18484,21782"/>
 <path fill="none" stroke="rgb(0,169,51)" stroke-width="80" stroke-linejoin="round" d="M 3023,1748 L 3075,4371 3196,6529 3318,8210 3439,9796 3560,10800 3682,11418 3803,11354 3924,10527 4046,11592 4167,13478 4288,14335 4410,14805 4531,16152 4652,16552 4774,17490 4895,18292 5016,18615 5138,18588 5259,18962 5380,19415 5502,20624 5623,21351 5744,21589 5866,21604 5987,22063 6108,21995 6230,22000 6351,22229 6472,22304 6594,22235 6715,22457 6836,22459 6958,22674 7079,22817 7200,22820 7322,22821 7443,22961 7564,22963 7686,22757 7807,22688 7928,22619 8050,22691 8171,22624 8292,21047 8414,21191 8535,21477 8656,21548 8778,21618 8899,21692 9020,21764 9142,23317 9263,23187 9384,23187 9506,23187 9627,23187 9748,23252 9870,23252 9991,23187 10113,23253 10234,23124 10355,23124 10477,23059 10598,22865 10719,22544 10841,22545 10962,22611 11083,22741 11205,22613 11326,22678 11447,22682 11569,23067 11690,22816 11810,22816 11932,22690 12053,22692 12174,22629 12296,22695 12417,22695 12538,23011 12660,23011 12781,23137 12902,23199 13024,23261 13145,23385 13266,23385 13388,23385 13509,23385 13630,23385 13752,23324 13873,23324 13994,23262 14116,23201 14237,23139 14358,23139 14480,23139 14601,23263 14722,23263 14844,23385 14965,23385 15086,23447 15208,23447 15329,23385 15450,23385 15572,23324 15693,23263 15814,23141 15936,23019 16057,23019 16178,23081 16300,23081 16421,23142 16542,23081 16664,23265 16785,23386 16906,23326 17028,23265 17149,23265 17270,23144 17392,23205 17513,23145 17634,23084 17756,23145 17877,23025 17998,23025 18120,23086 18241,23086 18362,23147 18484,23207"/>
 <path fill="none" stroke="rgb(0,0,255)" stroke-width="80" stroke-linejoin="round" stroke-dasharray="51,127,51,127,254,127,254,127,254,127" d="M 2663,1748 L 2711,2189 2832,3961 2954,6725 3075,6642 3196,8130 3318,9072 3439,9935 3560,10798 3682,11444 3803,11880 3924,13444 4046,14240 4167,15058 4288,15326 4410,15839 4531,16294 4652,16847 4774,17252 4895,17825 5016,18490 5138,18711 5259,18973 5380,19263 5502,19569 5623,19727 5744,19896 5866,19821 5987,20208 6108,20319 6230,20465 6351,20536 6472,20875 6594,20932 6715,21136 6836,21253 6958,21153 7079,21277 7200,21579 7322,21709 7443,21931 7564,21847 7686,21875 7807,22097 7928,22857 8050,22703 8171,22789 8292,22848 8414,23090 8535,23119 8656,23158 8778,22538 8899,22675 9020,22712 9142,22747 9263,22768 9384,22819 9506,22837 9627,22824 9748,22830 9870,22863 9991,22899 10113,22950 10234,22957 10355,22963 10477,22994 10598,23015 10719,23011 10841,22996 10962,22604 11083,22623 11205,22639 11326,22650 11447,22669 11569,22723 11690,22748 11810,23136 11932,23165 12053,23165 12174,23155 12296,23164 12417,23155 12538,23149 12660,23172 12781,23161 12902,23166 13024,23178 13145,23193 13266,23203 13388,23208 13509,23215 13630,23222 13752,23225 13873,23226 13994,23237 14116,23214 14237,23224 14358,23227 14480,23230 14601,23231 14722,23229 14844,23235 14965,23260 15086,23263 15208,23263 15329,23262 15450,23254 15572,23269 15693,23260 15814,23258 15936,23256 16057,23251 16178,23246 16300,23247 16421,23234 16542,23221 16664,23216 16785,23214 16906,23213 17028,23204 17149,23203 17270,23186 17392,23206 17513,23193 17634,23180 17756,23175 17877,23126 17998,23124 18120,23129 18241,23114 18362,23092 18484,23101"/>
 <path fill="none" stroke="rgb(128,0,128)" stroke-width="80" stroke-linejoin="round" d="M 2336,1748 L 2347,2062 2468,4522 2590,6523 2711,7764 2832,9085 2954,11053 3075,11958 3196,12579 3318,12864 3439,14464 3560,15265 3682,15879 3803,15692 3924,16466 4046,17061 4167,17974 4288,17256 4410,17639 4531,17891 4652,18267 4774,18335 4895,18773 5016,19556 5138,19281 5259,19565 5380,19928 5502,20184 5623,20618 5744,20746 5866,20341 5987,21064 6108,21115 6230,21200 6351,21232 6472,21353 6594,21364 6715,21532 6836,21668 6958,21911 7079,21881 7200,22063 7322,22191 7443,22463 7564,21599 7686,21691 7807,21574 7877,23447"/>
 <path fill="none" stroke="rgb(128,0,128)" stroke-width="80" stroke-linejoin="round" d="M 8758,23447 L 8778,22973 8899,23430 9020,23429 9142,23424 9263,23426 9384,23431 9506,23432 9627,23432 9748,23432 9870,23434 9991,23442 10113,23443 10234,23445 10355,23447 10477,23447 10598,23447 10719,23447 10841,23447 10962,21561 11083,21550 11205,21548 11326,21546 11447,21545 11569,21542 11690,21537 11810,23411 11932,23417 12053,23416 12174,23413 12296,23401 12417,23390 12538,23388 12660,23375 12781,23379 12902,23382 13024,23382 13145,23390 13266,23398 13388,23396 13509,23419 13630,23419 13752,23419 13873,23419 13994,23421 14116,23421 14237,23424 14358,23421 14480,23421 14601,23421 14722,23422 14844,23424 14965,23427 15086,23427 15208,23428 15329,23428 15450,23428 15572,23428 15693,23428 15814,23424 15936,23425 16057,23427 16178,23427 16300,23427 16421,23388 16542,23352 16664,23358 16785,23360 16906,23358 17028,23358 17149,23358 17270,23288 17392,23320 17513,23325 17634,23287 17756,23273 17877,23273 17998,23273 18120,23340 18241,23311 18362,23115 18484,23131"/>
 <path fill="none" stroke="rgb(85,48,141)" stroke-width="80" stroke-linejoin="round" stroke-dasharray="80,40" d="M 4827,1748 L 4895,2745 5016,2940 5138,4659 5259,5551 5380,5696 5502,5887 5623,6789 5744,7307 5866,9214 5987,10029 6108,9770 6230,11391 6351,11950 6472,12920 6594,13402 6715,14373 6836,14655 6958,15516 7079,16277 7200,17485 7322,17647 7443,18208 7564,18242 7686,18463 7807,18807 7928,18386 8050,18227 8171,18323 8292,18495 8414,18649 8535,18795 8656,17867 8778,18562 8899,18787 9020,19009 9142,18878 9263,19053 9384,19257 9506,20486 9627,20480 9748,20591 9870,20818 9991,21456 10113,21510 10234,21605 10355,21568 10477,21702 10598,21807 10719,21967 10841,21887 10962,21935 11083,21946 11205,22052 11326,22043 11447,22182 11569,22235 11690,22377 11810,22605 11932,22883 12053,22935 12174,22762 12296,22743 12417,22766 12538,22773 12660,22682 12781,22657 12902,22653 13024,22843 13145,22870 13266,22906 13388,22963 13509,23004 13630,23019 13752,23000 13873,23010 13994,23050 14116,23096 14237,23062 14358,23087 14480,23082 14601,23117 14722,23122 14844,23137 14965,23172 15086,23231 15208,23256 15329,23266 15450,23261 15572,23237 15693,23208 15814,23208 15936,23179 16057,23169 16178,23169 16300,23174 16421,23204 16542,23214 16664,23214 16785,23258 16906,23268 17028,23263 17149,23263 17270,23258 17392,23287 17513,23244 17634,23206 17756,23201 17877,23216 17998,23225 18120,23250 18241,23197 18362,23240 18484,23284"/>
 <path fill="none" stroke="rgb(255,128,0)" stroke-width="80" stroke-linejoin="round" d="M 3565,1748 L 3682,3385 3803,4476 3924,5670 4046,7784 4167,8361 4288,9987 4410,10463 4531,11430 4652,12694 4774,13305 4895,13718 5016,14754 5138,15477 5259,15798 5380,15988 5502,16695 5623,17101 5744,17540 5866,17880 5987,18476 6108,18576 6230,18752 6351,19031 6472,19415 6594,19626 6715,20018 6836,19859 6958,20091 7079,20168 7200,20384 7322,20584 7443,20719 7564,20826 7686,21103 7807,20708 7928,20773 8050,21277 8171,21182 8292,21113 8414,21153 8535,21247 8656,21655 8778,21681 8899,21545 9020,21766 9142,22031 9263,22060 9384,22078 9506,22088 9627,22136 9748,22205 9870,22316 9991,22381 10113,22531 10234,22575 10355,22607 10477,22628 10598,22718 10719,22781 10841,22792 10962,22846 11083,22887 11205,22883 11326,22901 11447,22931 11569,22958 11690,22924 11810,22933 11932,22967 12053,22968 12174,22959 12296,23004 12417,22994 12538,23057 12660,23088 12781,23097 12902,23110 13024,23121 13145,23122 13266,23165 13388,23176 13509,23192 13630,23209 13752,23219 13873,23221 13994,23232 14116,23265 14237,23272 14358,23281 14480,23290 14601,23287 14722,23287 14844,23308 14965,23317 15086,23333 15208,23327 15329,23321 15450,23324 15572,23331 15693,23336 15814,23318 15936,23327 16057,23340 16178,23342 16300,23345 16421,23347 16542,23351 16664,23372 16785,23353 16906,23361 17028,23372 17149,23372 17270,23354 17392,23359 17513,23353 17634,23353 17756,23354 17877,23354 17998,23354 18120,23370 18241,23371 18362,23374 18484,23387"/>
 <path fill="none" stroke="rgb(52,42,6)" stroke-width="80" stroke-linejoin="round" d="M 3827,1748 L 3924,6619 4046,7135 4167,9406 4288,9646 4410,10293 4531,12165 4652,12401 4774,13680 4895,15288 5016,16093 5138,16542 5259,16983 5380,17304 5502,18779 5623,18024 5744,18407 5866,18460 5987,18751 6108,19003 6230,19301 6351,18823 6472,19951 6594,20558 6715,21210 6836,21210 6958,21193 7079,21509 7200,21523 7322,21884 7443,21690 7564,21627 7686,21681 7807,21697 7928,21787 8050,21884 8171,21933 8292,22034 8414,21991 8535,22033 8656,22100 8778,22162 8899,22456 9020,22550 9142,22601 9263,22661 9384,22719 9506,22710 9627,22736 9748,22570 9870,22690 9991,22758 10113,22820 10234,22846 10355,22867 10477,22887 10598,23029 10719,22956 10841,22937 10962,22933 11083,22943 11205,22983 11326,22993 11447,22984 11569,23069 11690,23129 11810,23066 11932,23090 12053,23090 12174,23071 12296,23076 12417,23121 12538,23126 12660,23229 12781,23195 12902,23180 13024,23224 13145,23244 13266,23200 13388,23201 13509,23191 13630,23206 13752,23216 13873,23196 13994,23225 14116,23283 14237,23303 14358,23327 14480,23346 14601,23346 14722,23351 14844,23346 14965,23341 15086,23337 15208,23294 15329,23289 15450,23294 15572,23299 15693,23294 15814,23289 15936,23285 16057,23318 16178,23304 16300,23304 16421,23309 16542,23294 16664,23237 16785,23271 16906,23219 17028,23224 17149,23219 17270,23214 17392,23233 17513,23286 17634,23276 17756,23281 17877,23286 17998,23291 18120,23291 18241,23291 18362,23277 18484,23230"/>
 <path fill="none" stroke="rgb(180,120,4)" stroke-width="80" stroke-linejoin="round" d="M 2889,1748 L 2954,2923 3075,5331 3196,8065 3318,7809 3439,9092 3560,10412 3682,11417 3803,13141 3924,12913 4046,13577 4167,14792 4288,14415 4410,15256 4531,15935 4652,15939 4774,16778 4895,17058 5016,17308 5138,17528 5259,17070 5380,16738 5502,16547 5623,17274 5744,17493 5866,17597 5987,18787 6108,19411 6230,19925 6351,21376 6472,21131 6594,21504 6715,22199 6836,22044 6958,21970 7079,22225 7200,21470 7322,21737 7443,21507 7564,21507 7686,22008 7807,22256 7928,22259 8050,22501 8171,22585 8292,22905 8414,22905 8535,22673 8656,22520 8778,22444 8899,22136 9020,22294 9142,22377 9263,22071 9384,22230 9506,22312 9627,22166 9748,22474 9870,22474 9991,22626 10113,22854 10234,22707 10355,22857 10477,23081 10598,23081 10719,23081 10841,22934 10962,23008 11083,23228 11205,23228 11326,23156 11447,23084 11569,23084 11690,23230 11810,23157 11932,23157 12053,23157 12174,23230 12296,23303 12417,23231 12538,23231 12660,23303 12781,23303 12902,23303 13024,23303 13145,23160 13266,23232 13388,23232 13509,23232 13630,23232 13752,23232 13873,23232 13994,23375 14116,23375 14237,23375 14358,23304 14480,23304 14601,23304 14722,23375 14844,23375 14965,23375 15086,23304 15208,23304 15329,23304 15450,23304 15572,23304 15693,23304 15814,23233 15936,23234 16057,23305 16178,23305 16300,23305 16421,23234 16542,23234 16664,23305 16785,23305 16906,23305 17028,23305 17149,23305 17270,23165 17392,23094 17513,23094 17634,23165 17756,23165 17877,23165 17998,23165 18120,23376 18241,23447 18362,23447 18484,23447"/>
 <path fill="none" stroke="rgb(112,110,12)" stroke-width="80" stroke-linejoin="round" stroke-dasharray="80,40" d="M 3445,1748 L 3560,6554 3682,8733 3803,10273 3924,11622 4046,12349 4167,14175 4288,16057 4410,14787 4531,15360 4652,16232 4774,16554 4895,17339 5016,17853 5138,18241 5259,18564 5380,18904 5502,19065 5623,18925 5744,19247 5866,19399 5987,19565 6108,19795 6230,20105 6351,20249 6472,20911 6594,21042 6715,21153 6836,21249 6958,21338 7079,21526 7200,21565 7322,21711 7443,21829 7564,22089 7686,22072 7807,22139 7928,22125 8050,22343 8171,22247 8292,22333 8414,22331 8535,22487 8656,22526 8778,22479 8899,22491 9020,22681 9142,22545 9263,22613 9384,22669 9506,22622 9627,22738 9748,22765 9870,22735 9991,22876 10113,22748 10234,22792 10355,22888 10477,22924 10598,22896 10719,22973 10841,22983 10962,23169 11083,23085 11205,23073 11326,23068 11447,23059 11569,23058 11690,23035 11810,23039 11932,23125 12053,23168 12174,23190 12296,23178 12417,23200 12538,23227 12660,23153 12781,23149 12902,23089 13024,23096 13145,23161 13266,23165 13388,23150 13509,23185 13630,23195 13752,23252 13873,23209 13994,23224 14116,23210 14237,23227 14358,23269 14480,23265 14601,23252 14722,23298 14844,23297 14965,23271 15086,23249 15208,23269 15329,23273 15450,23266 15572,23261 15693,23269 15814,23313 15936,23328 16057,23323 16178,23332 16300,23340 16421,23348 16542,23351 16664,23319 16785,23350 16906,23352 17028,23348 17149,23362 17270,23364 17392,23364 17513,23390 17634,23382 17756,23358 17877,23360 17998,23359 18120,23360 18241,23354 18362,23357 18484,23372"/>
 <path fill="none" stroke="rgb(241,13,12)" stroke-width="80" stroke-linejoin="round" d="M 4219,1748 L 4288,3887 4410,5017 4531,4384 4652,8940 4774,11684 4895,11314 5016,13343 5138,14002 5259,13853 5380,13999 5502,14250 5623,15003 5744,15827 5866,14907 5987,14487 6108,14601 6230,15813 6351,16467 6472,15788 6594,16465 6715,17008 6836,17327 6958,17337 7079,17555 7200,17814 7322,18793 7443,19241 7564,20125 7686,19690 7807,19683 7928,19562 8050,19017 8171,19040 8292,19018 8414,18747 8535,19065 8656,19137 8778,19418 8899,19838 9020,20135 9142,20435 9263,20563 9384,20869 9506,20840 9627,20578 9748,21028 9870,21029 9991,21049 10113,21435 10234,21414 10355,21444 10477,21625 10598,21404 10719,21220 10841,21292 10962,21202 11083,21354 11205,21336 11326,21397 11447,21496 11569,22000 11690,21926 11810,21959 11932,21994 12053,22011 12174,21854 12296,22000 12417,22105 12538,21945 12660,22296 12781,22296 12902,22296 13024,22441 13145,22519 13266,22541 13388,22733 13509,22598 13630,22598 13752,22598 13873,22624 13994,22666 14116,22734 14237,22713 14358,22716 14480,22716 14601,22716 14722,22639 14844,22656 14965,22707 15086,22802 15208,22844 15329,22844 15450,22844 15572,22977 15693,23016 15814,22964 15936,22965 16057,23096 16178,23096 16300,23096 16421,23111 16542,23104 16664,23219 16785,23242 16906,23295 17028,23295 17149,23295 17270,23280 17392,23273 17513,23341 17634,23371 17756,23296 17877,23296 17998,23296 18120,23288 18241,23296 18362,23236 18484,23229"/>
 <path fill="none" stroke="rgb(0,255,0)" stroke-width="80" stroke-linejoin="round" d="M 2807,1748 L 2832,2286 2954,4787 3075,6766 3196,8203 3318,9371 3439,9539 3560,12185 3682,12350 3803,12209 3924,13989 4046,14367 4167,14878 4288,16118 4410,16686 4531,16279 4652,16957 4774,17493 4895,18179 5016,18940 5138,19022 5259,19349 5380,20345 5502,20994 5623,21196 5744,21623 5866,21739 5987,21772 6108,21698 6230,21963 6351,21706 6472,21884 6594,21960 6715,22137 6836,22284 6958,22310 7079,22482 7200,22889 7322,22936 7443,22844 7564,22869 7686,22846 7807,22870 7928,22825 8050,22896 8171,22873 8292,22966 8414,23082 8535,23128 8656,23128 8778,23288 8899,23333 9020,23356 9142,23401 9263,23401 9384,23401 9506,23424 9627,23379 9748,23130 9870,23108 9991,23085 10113,23062 10234,23062 10355,23062 10477,23085 10598,22998 10719,22998 10841,23021 10962,23043 11083,23043 11205,23043 11326,23066 11447,23402 11569,23402 11690,23402 11810,23313 11932,23313 12053,23313 12174,23313 12296,23291 12417,23291 12538,23291 12660,23380 12781,23380 12902,23380 13024,23380 13145,23380 13266,23424 13388,23424 13509,23424 13630,23380 13752,23380 13873,23380 13994,23402 14116,23402 14237,23380 14358,23380 14480,23424 14601,23424 14722,23380 14844,23358 14965,23358 15086,23314 15208,23270 15329,23270 15450,23270 15572,23292 15693,23314 15814,23292 15936,23337 16057,23359 16178,23359 16300,23359 16421,23381 16542,23381 16664,23337 16785,23337 16906,23337 17028,23337 17149,23337 17270,23315 17392,23249 17513,23293 17634,23315 17756,23337 17877,23337 17998,23337 18120,23359 18241,23403 18362,23338 18484,23294"/>
 <path fill="none" stroke="rgb(0,0,255)" stroke-width="80" stroke-linejoin="round" stroke-dasharray="158,158" d="M 1376,10014 L 1498,10858 1619,12518 1740,13501 1862,14595 1983,15755 2104,15409 2226,14240 2347,14458 2468,14966 2590,15110 2711,16095 2832,16213 2954,16665 3075,18022 3196,18128 3318,18856 3439,19127 3560,19390 3682,19647 3803,20514 3924,20939 4046,21362 4167,21560 4288,21576 4410,21777 4531,21975 4652,21798 4774,21805 4895,22000 5016,21638 5138,22012 5259,21839 5380,21668 5502,21859 5623,21865 5744,22047 5866,22405 5987,22405 6108,22758 6230,22763 6351,22766 6472,22768 6594,22768 6715,22429 6836,22429 6958,22260 7079,22605 7200,22776 7322,22779 7443,22779 7564,22784 7686,22784 7807,22786 7928,22456 8050,22456 8171,22625 8292,22625 8414,22957 8535,22794 8656,22796 8778,22962 8899,22801 9020,22801 9142,22801 9263,22801 9384,22964 9506,23126 9627,23127 9748,22970 9870,22970 9991,22811 10113,22811 10234,22811 10355,22811 10477,22813 10598,22975 10719,22818 10841,22976 10962,22976 11083,22976 11205,22976 11326,22978 11447,23135 11569,23137 11690,23137 11810,23137 11932,23137 12053,23137 12174,23292 12296,23292 12417,23447 12538,23447 12660,23293 12781,23293 12902,23139 13024,22985 13145,22985 13266,22677 13388,22523 13509,22680 13630,22526 13752,22682 13873,22837 13994,22837 14116,22842 14237,22693 14358,22542 14480,22545 14601,22395 14722,22395 14844,22245 14965,22552 15086,22706 15208,22856 15329,23005 15450,23007 15572,22860 15693,23008 15814,23008 15936,23010 16057,23010 16178,23010 16300,23156 16421,23302 16542,23157 16664,23157 16785,23158 16906,23014 17028,22870 17149,22870 17270,22870 17392,23015 17513,23015 17634,23160 17756,23304 17877,23447 17998,23447 18120,23304 18241,23304 18362,23162 18484,22877"/>
 <path fill="none" stroke="rgb(0,127,255)" stroke-width="80" stroke-linejoin="round" d="M 1808,1748 L 1862,2881 1983,4981 2104,7038 2226,8555 2347,9836 2468,11126 2590,11847 2711,12488 2832,13092 2954,13462 3075,13680 3196,14208 3318,14476 3439,15067 3560,15244 3682,15708 3803,16069 3924,16549 4046,16832 4167,17295 4288,17548 4410,17973 4531,18294 4652,18673 4774,18953 4895,19339 5016,19658 5138,19620 5259,19798 5380,20065 5502,20344 5623,20308 5744,20357 5866,20426 5987,20899 6108,20928 6230,20969 6351,21084 6472,21367 6594,21404 6715,21422 6836,21493 6958,21532 7079,21656 7200,21680 7322,21739 7443,21900 7564,22065 7686,22118 7807,22254 7928,22267 8050,22386 8171,22450 8292,22570 8414,22631 8535,22644 8656,22613 8778,22657 8899,22689 9020,22752 9142,22730 9263,22735 9384,22788 9506,22818 9627,22813 9748,22782 9870,22784 9991,22831 10113,22870 10234,22863 10355,22875 10477,22926 10598,22985 10719,23022 10841,23006 10962,23018 11083,23056 11205,23081 11326,23085 11447,23106 11569,23200 11690,23240 11810,23262 11932,23314 12053,23316 12174,23338 12296,23331 12417,23266 12538,23271 12660,23290 12781,23274 12902,23293 13024,23290 13145,23282 13266,23289 13388,23312 13509,23316 13630,23333 13752,23331 13873,23325 13994,23341 14116,23343 14237,23333 14358,23335 14480,23326 14601,23334 14722,23334 14844,23336 14965,23341 15086,23354 15208,23361 15329,23372 15450,23370 15572,23380 15693,23385 15814,23388 15936,23397 16057,23392 16178,23392 16300,23388 16421,23380 16542,23387 16664,23382 16785,23379 16906,23386 17028,23376 17149,23384 17270,23393 17392,23392 17513,23392 17634,23392 17756,23392 17877,23213 17998,23211 18120,23211 18241,23212 18362,23216 18484,23216"/>
 <text class="TextShape" transform="rotate(-90 1470 24418)"><tspan class="TextParagraph" font-family="Liberation Sans, sans-serif" font-size="282px" font-weight="400"><tspan class="TextPosition" x="1470" y="24418"><tspan fill="rgb(0,0,0)" stroke="none">01.04</tspan></tspan></tspan></text>
 <text class="TextShape" transform="rotate(-90 1834 24418)"><tspan class="TextParagraph" font-family="Liberation Sans, sans-serif" font-size="282px" font-weight="400"><tspan class="TextPosition" x="1834" y="24418"><tspan fill="rgb(0,0,0)" stroke="none">04.04</tspan></tspan></tspan></text>
 <text class="TextShape" transform="rotate(-90 2198 24418)"><tspan class="TextParagraph" font-family="Liberation Sans, sans-serif" font-size="282px" font-weight="400"><tspan class="TextPosition" x="2198" y="24418"><tspan fill="rgb(0,0,0)" stroke="none">07.04</tspan></tspan></tspan></text>
 <text class="TextShape" transform="rotate(-90 2562 24418)"><tspan class="TextParagraph" font-family="Liberation Sans, sans-serif" font-size="282px" font-weight="400"><tspan class="TextPosition" x="2562" y="24418"><tspan fill="rgb(0,0,0)" stroke="none">10.04</tspan></tspan></tspan></text>
 <text class="TextShape" transform="rotate(-90 2926 24418)"><tspan class="TextParagraph" font-family="Liberation Sans, sans-serif" font-size="282px" font-weight="400"><tspan class="TextPosition" x="2926" y="24418"><tspan fill="rgb(0,0,0)" stroke="none">13.04</tspan></tspan></tspan></text>
 <text class="TextShape" transform="rotate(-90 3290 24418)"><tspan class="TextParagraph" font-family="Liberation Sans, sans-serif" font-size="282px" font-weight="400"><tspan class="TextPosition" x="3290" y="24418"><tspan fill="rgb(0,0,0)" stroke="none">16.04</tspan></tspan></tspan></text>
 <text class="TextShape" transform="rotate(-90 3654 24418)"><tspan class="TextParagraph" font-family="Liberation Sans, sans-serif" font-size="282px" font-weight="400"><tspan class="TextPosition" x="3654" y="24418"><tspan fill="rgb(0,0,0)" stroke="none">19.04</tspan></tspan></tspan></text>
 <text class="TextShape" transform="rotate(-90 4018 24418)"><tspan class="TextParagraph" font-family="Liberation Sans, sans-serif" font-size="282px" font-weight="400"><tspan class="TextPosition" x="4018" y="24418"><tspan fill="rgb(0,0,0)" stroke="none">22.04</tspan></tspan></tspan></text>
 <text class="TextShape" transform="rotate(-90 4382 24418)"><tspan class="TextParagraph" font-family="Liberation Sans, sans-serif" font-size="282px" font-weight="400"><tspan class="TextPosition" x="4382" y="24418"><tspan fill="rgb(0,0,0)" stroke="none">25.04</tspan></tspan></tspan></text>
 <text class="TextShape" transform="rotate(-90 4746 24418)"><tspan class="TextParagraph" font-family="Liberation Sans, sans-serif" font-size="282px" font-weight="400"><tspan class="TextPosition" x="4746" y="24418"><tspan fill="rgb(0,0,0)" stroke="none">28.04</tspan></tspan></tspan></text>
 <text class="TextShape" transform="rotate(-90 5110 24418)"><tspan class="TextParagraph" font-family="Liberation Sans, sans-serif" font-size="282px" font-weight="400"><tspan class="TextPosition" x="5110" y="24418"><tspan fill="rgb(0,0,0)" stroke="none">01.05</tspan></tspan></tspan></text>
 <text class="TextShape" transform="rotate(-90 5474 24418)"><tspan class="TextParagraph" font-family="Liberation Sans, sans-serif" font-size="282px" font-weight="400"><tspan class="TextPosition" x="5474" y="24418"><tspan fill="rgb(0,0,0)" stroke="none">04.05</tspan></tspan></tspan></text>
 <text class="TextShape" transform="rotate(-90 5838 24418)"><tspan class="TextParagraph" font-family="Liberation Sans, sans-serif" font-size="282px" font-weight="400"><tspan class="TextPosition" x="5838" y="24418"><tspan fill="rgb(0,0,0)" stroke="none">07.05</tspan></tspan></tspan></text>
 <text class="TextShape" transform="rotate(-90 6202 24418)"><tspan class="TextParagraph" font-family="Liberation Sans, sans-serif" font-size="282px" font-weight="400"><tspan class="TextPosition" x="6202" y="24418"><tspan fill="rgb(0,0,0)" stroke="none">10.05</tspan></tspan></tspan></text>
 <text class="TextShape" transform="rotate(-90 6566 24418)"><tspan class="TextParagraph" font-family="Liberation Sans, sans-serif" font-size="282px" font-weight="400"><tspan class="TextPosition" x="6566" y="24418"><tspan fill="rgb(0,0,0)" stroke="none">13.05</tspan></tspan></tspan></text>
 <text class="TextShape" transform="rotate(-90 6930 24418)"><tspan class="TextParagraph" font-family="Liberation Sans, sans-serif" font-size="282px" font-weight="400"><tspan class="TextPosition" x="6930" y="24418"><tspan fill="rgb(0,0,0)" stroke="none">16.05</tspan></tspan></tspan></text>
 <text class="TextShape" transform="rotate(-90 7294 24418)"><tspan class="TextParagraph" font-family="Liberation Sans, sans-serif" font-size="282px" font-weight="400"><tspan class="TextPosition" x="7294" y="24418"><tspan fill="rgb(0,0,0)" stroke="none">19.05</tspan></tspan></tspan></text>
 <text class="TextShape" transform="rotate(-90 7658 24418)"><tspan class="TextParagraph" font-family="Liberation Sans, sans-serif" font-size="282px" font-weight="400"><tspan class="TextPosition" x="7658" y="24418"><tspan fill="rgb(0,0,0)" stroke="none">22.05</tspan></tspan></tspan></text>
 <text class="TextShape" transform="rotate(-90 8022 24418)"><tspan class="TextParagraph" font-family="Liberation Sans, sans-serif" font-size="282px" font-weight="400"><tspan class="TextPosition" x="8022" y="24418"><tspan fill="rgb(0,0,0)" stroke="none">25.05</tspan></tspan></tspan></text>
 <text class="TextShape" transform="rotate(-90 8386 24418)"><tspan class="TextParagraph" font-family="Liberation Sans, sans-serif" font-size="282px" font-weight="400"><tspan class="TextPosition" x="8386" y="24418"><tspan fill="rgb(0,0,0)" stroke="none">28.05</tspan></tspan></tspan></text>
 <text class="TextShape" transform="rotate(-90 8750 24418)"><tspan class="TextParagraph" font-family="Liberation Sans, sans-serif" font-size="282px" font-weight="400"><tspan class="TextPosition" x="8750" y="24418"><tspan fill="rgb(0,0,0)" stroke="none">31.05</tspan></tspan></tspan></text>
 <text class="TextShape" transform="rotate(-90 9114 24418)"><tspan class="TextParagraph" font-family="Liberation Sans, sans-serif" font-size="282px" font-weight="400"><tspan class="TextPosition" x="9114" y="24418"><tspan fill="rgb(0,0,0)" stroke="none">03.06</tspan></tspan></tspan></text>
 <text class="TextShape" transform="rotate(-90 9478 24418)"><tspan class="TextParagraph" font-family="Liberation Sans, sans-serif" font-size="282px" font-weight="400"><tspan class="TextPosition" x="9478" y="24418"><tspan fill="rgb(0,0,0)" stroke="none">06.06</tspan></tspan></tspan></text>
 <text class="TextShape" transform="rotate(-90 9842 24418)"><tspan class="TextParagraph" font-family="Liberation Sans, sans-serif" font-size="282px" font-weight="400"><tspan class="TextPosition" x="9842" y="24418"><tspan fill="rgb(0,0,0)" stroke="none">09.06</tspan></tspan></tspan></text>
 <text class="TextShape" transform="rotate(-90 10207 24418)"><tspan class="TextParagraph" font-family="Liberation Sans, sans-serif" font-size="282px" font-weight="400"><tspan class="TextPosition" x="10207" y="24418"><tspan fill="rgb(0,0,0)" stroke="none">12.06</tspan></tspan></tspan></text>
 <text class="TextShape" transform="rotate(-90 10571 24418)"><tspan class="TextParagraph" font-family="Liberation Sans, sans-serif" font-size="282px" font-weight="400"><tspan class="TextPosition" x="10571" y="24418"><tspan fill="rgb(0,0,0)" stroke="none">15.06</tspan></tspan></tspan></text>
 <text class="TextShape" transform="rotate(-90 10935 24418)"><tspan class="TextParagraph" font-family="Liberation Sans, sans-serif" font-size="282px" font-weight="400"><tspan class="TextPosition" x="10935" y="24418"><tspan fill="rgb(0,0,0)" stroke="none">18.06</tspan></tspan></tspan></text>
 <text class="TextShape" transform="rotate(-90 11299 24418)"><tspan class="TextParagraph" font-family="Liberation Sans, sans-serif" font-size="282px" font-weight="400"><tspan class="TextPosition" x="11299" y="24418"><tspan fill="rgb(0,0,0)" stroke="none">21.06</tspan></tspan></tspan></text>
 <text class="TextShape" transform="rotate(-90 11663 24418)"><tspan class="TextParagraph" font-family="Liberation Sans, sans-serif" font-size="282px" font-weight="400"><tspan class="TextPosition" x="11663" y="24418"><tspan fill="rgb(0,0,0)" stroke="none">24.06</tspan></tspan></tspan></text>
 <text class="TextShape" transform="rotate(-90 12026 24418)"><tspan class="TextParagraph" font-family="Liberation Sans, sans-serif" font-size="282px" font-weight="400"><tspan class="TextPosition" x="12026" y="24418"><tspan fill="rgb(0,0,0)" stroke="none">27.06</tspan></tspan></tspan></text>
 <text class="TextShape" transform="rotate(-90 12390 24418)"><tspan class="TextParagraph" font-family="Liberation Sans, sans-serif" font-size="282px" font-weight="400"><tspan class="TextPosition" x="12390" y="24418"><tspan fill="rgb(0,0,0)" stroke="none">30.06</tspan></tspan></tspan></text>
 <text class="TextShape" transform="rotate(-90 12754 24418)"><tspan class="TextParagraph" font-family="Liberation Sans, sans-serif" font-size="282px" font-weight="400"><tspan class="TextPosition" x="12754" y="24418"><tspan fill="rgb(0,0,0)" stroke="none">03.07</tspan></tspan></tspan></text>
 <text class="TextShape" transform="rotate(-90 13118 24418)"><tspan class="TextParagraph" font-family="Liberation Sans, sans-serif" font-size="282px" font-weight="400"><tspan class="TextPosition" x="13118" y="24418"><tspan fill="rgb(0,0,0)" stroke="none">06.07</tspan></tspan></tspan></text>
 <text class="TextShape" transform="rotate(-90 13482 24418)"><tspan class="TextParagraph" font-family="Liberation Sans, sans-serif" font-size="282px" font-weight="400"><tspan class="TextPosition" x="13482" y="24418"><tspan fill="rgb(0,0,0)" stroke="none">09.07</tspan></tspan></tspan></text>
 <text class="TextShape" transform="rotate(-90 13846 24418)"><tspan class="TextParagraph" font-family="Liberation Sans, sans-serif" font-size="282px" font-weight="400"><tspan class="TextPosition" x="13846" y="24418"><tspan fill="rgb(0,0,0)" stroke="none">12.07</tspan></tspan></tspan></text>
 <text class="TextShape" transform="rotate(-90 14210 24418)"><tspan class="TextParagraph" font-family="Liberation Sans, sans-serif" font-size="282px" font-weight="400"><tspan class="TextPosition" x="14210" y="24418"><tspan fill="rgb(0,0,0)" stroke="none">15.07</tspan></tspan></tspan></text>
 <text class="TextShape" transform="rotate(-90 14574 24418)"><tspan class="TextParagraph" font-family="Liberation Sans, sans-serif" font-size="282px" font-weight="400"><tspan class="TextPosition" x="14574" y="24418"><tspan fill="rgb(0,0,0)" stroke="none">18.07</tspan></tspan></tspan></text>
 <text class="TextShape" transform="rotate(-90 14938 24418)"><tspan class="TextParagraph" font-family="Liberation Sans, sans-serif" font-size="282px" font-weight="400"><tspan class="TextPosition" x="14938" y="24418"><tspan fill="rgb(0,0,0)" stroke="none">21.07</tspan></tspan></tspan></text>
 <text class="TextShape" transform="rotate(-90 15302 24418)"><tspan class="TextParagraph" font-family="Liberation Sans, sans-serif" font-size="282px" font-weight="400"><tspan class="TextPosition" x="15302" y="24418"><tspan fill="rgb(0,0,0)" stroke="none">24.07</tspan></tspan></tspan></text>
 <text class="TextShape" transform="rotate(-90 15666 24418)"><tspan class="TextParagraph" font-family="Liberation Sans, sans-serif" font-size="282px" font-weight="400"><tspan class="TextPosition" x="15666" y="24418"><tspan fill="rgb(0,0,0)" stroke="none">27.07</tspan></tspan></tspan></text>
 <text class="TextShape" transform="rotate(-90 16030 24418)"><tspan class="TextParagraph" font-family="Liberation Sans, sans-serif" font-size="282px" font-weight="400"><tspan class="TextPosition" x="16030" y="24418"><tspan fill="rgb(0,0,0)" stroke="none">30.07</tspan></tspan></tspan></text>
 <text class="TextShape" transform="rotate(-90 16394 24418)"><tspan class="TextParagraph" font-family="Liberation Sans, sans-serif" font-size="282px" font-weight="400"><tspan class="TextPosition" x="16394" y="24418"><tspan fill="rgb(0,0,0)" stroke="none">02.08</tspan></tspan></tspan></text>
 <text class="TextShape" transform="rotate(-90 16758 24418)"><tspan class="TextParagraph" font-family="Liberation Sans, sans-serif" font-size="282px" font-weight="400"><tspan class="TextPosition" x="16758" y="24418"><tspan fill="rgb(0,0,0)" stroke="none">05.08</tspan></tspan></tspan></text>
 <text class="TextShape" transform="rotate(-90 17122 24418)"><tspan class="TextParagraph" font-family="Liberation Sans, sans-serif" font-size="282px" font-weight="400"><tspan class="TextPosition" x="17122" y="24418"><tspan fill="rgb(0,0,0)" stroke="none">08.08</tspan></tspan></tspan></text>
 <text class="TextShape" transform="rotate(-90 17486 24418)"><tspan class="TextParagraph" font-family="Liberation Sans, sans-serif" font-size="282px" font-weight="400"><tspan class="TextPosition" x="17486" y="24418"><tspan fill="rgb(0,0,0)" stroke="none">11.08</tspan></tspan></tspan></text>
 <text class="TextShape" transform="rotate(-90 17850 24418)"><tspan class="TextParagraph" font-family="Liberation Sans, sans-serif" font-size="282px" font-weight="400"><tspan class="TextPosition" x="17850" y="24418"><tspan fill="rgb(0,0,0)" stroke="none">14.08</tspan></tspan></tspan></text>
 <text class="TextShape" transform="rotate(-90 18214 24418)"><tspan class="TextParagraph" font-family="Liberation Sans, sans-serif" font-size="282px" font-weight="400"><tspan class="TextPosition" x="18214" y="24418"><tspan fill="rgb(0,0,0)" stroke="none">17.08</tspan></tspan></tspan></text>
 <text class="TextShape" transform="rotate(-90 18578 24418)"><tspan class="TextParagraph" font-family="Liberation Sans, sans-serif" font-size="282px" font-weight="400"><tspan class="TextPosition" x="18578" y="24418"><tspan fill="rgb(0,0,0)" stroke="none">20.08</tspan></tspan></tspan></text>
 <text class="TextShape"><tspan class="TextParagraph" font-family="Liberation Sans, sans-serif" font-size="388px" font-weight="400"><tspan class="TextPosition" x="293" y="23580"><tspan fill="rgb(0,0,0)" stroke="none">1,00</tspan></tspan></tspan></text>
 <text class="TextShape"><tspan class="TextParagraph" font-family="Liberation Sans, sans-serif" font-size="388px" font-weight="400"><tspan class="TextPosition" x="293" y="21410"><tspan fill="rgb(0,0,0)" stroke="none">1,05</tspan></tspan></tspan></text>
 <text class="TextShape"><tspan class="TextParagraph" font-family="Liberation Sans, sans-serif" font-size="388px" font-weight="400"><tspan class="TextPosition" x="293" y="19239"><tspan fill="rgb(0,0,0)" stroke="none">1,10</tspan></tspan></tspan></text>
 <text class="TextShape"><tspan class="TextParagraph" font-family="Liberation Sans, sans-serif" font-size="388px" font-weight="400"><tspan class="TextPosition" x="293" y="17070"><tspan fill="rgb(0,0,0)" stroke="none">1,15</tspan></tspan></tspan></text>
 <text class="TextShape"><tspan class="TextParagraph" font-family="Liberation Sans, sans-serif" font-size="388px" font-weight="400"><tspan class="TextPosition" x="293" y="14900"><tspan fill="rgb(0,0,0)" stroke="none">1,20</tspan></tspan></tspan></text>
 <text class="TextShape"><tspan class="TextParagraph" font-family="Liberation Sans, sans-serif" font-size="388px" font-weight="400"><tspan class="TextPosition" x="293" y="12730"><tspan fill="rgb(0,0,0)" stroke="none">1,25</tspan></tspan></tspan></text>
 <text class="TextShape"><tspan class="TextParagraph" font-family="Liberation Sans, sans-serif" font-size="388px" font-weight="400"><tspan class="TextPosition" x="293" y="10559"><tspan fill="rgb(0,0,0)" stroke="none">1,30</tspan></tspan></tspan></text>
 <text class="TextShape"><tspan class="TextParagraph" font-family="Liberation Sans, sans-serif" font-size="388px" font-weight="400"><tspan class="TextPosition" x="293" y="8389"><tspan fill="rgb(0,0,0)" stroke="none">1,35</tspan></tspan></tspan></text>
 <text class="TextShape"><tspan class="TextParagraph" font-family="Liberation Sans, sans-serif" font-size="388px" font-weight="400"><tspan class="TextPosition" x="293" y="6220"><tspan fill="rgb(0,0,0)" stroke="none">1,40</tspan></tspan></tspan></text>
 <text class="TextShape"><tspan class="TextParagraph" font-family="Liberation Sans, sans-serif" font-size="388px" font-weight="400"><tspan class="TextPosition" x="293" y="4050"><tspan fill="rgb(0,0,0)" stroke="none">1,45</tspan></tspan></tspan></text>
 <text class="TextShape"><tspan class="TextParagraph" font-family="Liberation Sans, sans-serif" font-size="388px" font-weight="400"><tspan class="TextPosition" x="293" y="1880"><tspan fill="rgb(0,0,0)" stroke="none">1,50</tspan></tspan></tspan></text>
 <text class="TextShape"><tspan class="TextParagraph" font-family="Liberation Sans, sans-serif" font-size="494px" font-weight="700"><tspan class="TextPosition" x="887" y="1000"><tspan fill="rgb(0,0,0)" stroke="none">Tdenn koeficient celkovho potu obt</tspan></tspan></tspan></text>
 <path fill="none" stroke="rgb(191,0,65)" stroke-width="80" stroke-linejoin="round" stroke-dasharray="80,40" d="M 18822,2169 L 20422,2169"/>
 <path fill="none" stroke="rgb(85,48,141)" stroke-width="80" stroke-linejoin="round" stroke-dasharray="158,158" d="M 18822,3031 L 20422,3031"/>
 <path fill="none" stroke="rgb(0,0,255)" stroke-width="80" stroke-linejoin="round" stroke-dasharray="80,40" d="M 18822,3893 L 20422,3893"/>
 <path fill="none" stroke="rgb(255,191,0)" stroke-width="80" stroke-linejoin="round" stroke-dasharray="80,40" d="M 18822,4755 L 20422,4755"/>
 <path fill="none" stroke="rgb(0,169,51)" stroke-width="80" stroke-linejoin="round" stroke-dasharray="80,40" d="M 18822,5617 L 20422,5617"/>
 <path fill="none" stroke="rgb(0,169,51)" stroke-width="80" stroke-linejoin="round" stroke-dasharray="158,102" d="M 18822,6479 L 20422,6479"/>
 <path fill="none" stroke="rgb(255,64,0)" stroke-width="80" stroke-linejoin="round" stroke-dasharray="80,40" d="M 18822,7341 L 20422,7341"/>
 <path fill="none" stroke="rgb(21,132,102)" stroke-width="80" stroke-linejoin="round" stroke-dasharray="80,203,80,203,203,203" d="M 18822,8203 L 20422,8203"/>
 <path fill="none" stroke="rgb(0,223,255)" stroke-width="80" stroke-linejoin="round" stroke-dasharray="158,102" d="M 18822,9065 L 20422,9065"/>
 <path fill="none" stroke="rgb(141,40,30)" stroke-width="80" stroke-linejoin="round" stroke-dasharray="80,40" d="M 18822,9927 L 20422,9927"/>
 <path fill="none" stroke="rgb(255,0,0)" stroke-width="80" stroke-linejoin="round" stroke-dasharray="158,102" d="M 18822,10789 L 20422,10789"/>
 <path fill="none" stroke="rgb(89,131,176)" stroke-width="80" stroke-linejoin="round" d="M 18822,11651 L 20422,11651"/>
 <path fill="none" stroke="rgb(255,211,32)" stroke-width="80" stroke-linejoin="round" d="M 18822,12512 L 20422,12512"/>
 <path fill="none" stroke="rgb(0,169,51)" stroke-width="80" stroke-linejoin="round" d="M 18822,13374 L 20422,13374"/>
 <path fill="none" stroke="rgb(0,0,255)" stroke-width="80" stroke-linejoin="round" stroke-dasharray="51,127,51,127,254,127,254,127,254,127" d="M 18822,14236 L 20422,14236"/>
 <path fill="none" stroke="rgb(128,0,128)" stroke-width="80" stroke-linejoin="round" d="M 18822,15098 L 20422,15098"/>
 <path fill="none" stroke="rgb(85,48,141)" stroke-width="80" stroke-linejoin="round" stroke-dasharray="80,40" d="M 18822,15960 L 20422,15960"/>
 <path fill="none" stroke="rgb(255,128,0)" stroke-width="80" stroke-linejoin="round" d="M 18822,16822 L 20422,16822"/>
 <path fill="none" stroke="rgb(52,42,6)" stroke-width="80" stroke-linejoin="round" d="M 18822,17684 L 20422,17684"/>
 <path fill="none" stroke="rgb(180,120,4)" stroke-width="80" stroke-linejoin="round" d="M 18822,18546 L 20422,18546"/>
 <path fill="none" stroke="rgb(112,110,12)" stroke-width="80" stroke-linejoin="round" stroke-dasharray="80,40" d="M 18822,19408 L 20422,19408"/>
 <path fill="none" stroke="rgb(241,13,12)" stroke-width="80" stroke-linejoin="round" d="M 18822,20270 L 20422,20270"/>
 <path fill="none" stroke="rgb(0,255,0)" stroke-width="80" stroke-linejoin="round" d="M 18822,21132 L 20422,21132"/>
 <path fill="none" stroke="rgb(0,0,255)" stroke-width="80" stroke-linejoin="round" stroke-dasharray="158,158" d="M 18822,21994 L 20422,21994"/>
 <path fill="none" stroke="rgb(0,127,255)" stroke-width="80" stroke-linejoin="round" d="M 18822,22856 L 20422,22856"/>
 <text class="TextShape"><tspan class="TextParagraph" font-family="Liberation Sans, sans-serif" font-size="423px" font-weight="400"><tspan class="TextPosition" x="20522" y="2317"><tspan fill="rgb(0,0,0)" stroke="none">Stt Florida</tspan></tspan></tspan></text>
 <text class="TextShape"><tspan class="TextParagraph" font-family="Liberation Sans, sans-serif" font-size="423px" font-weight="400"><tspan class="TextPosition" x="20522" y="3179"><tspan fill="rgb(0,0,0)" stroke="none">Indie</tspan></tspan></tspan></text>
 <text class="TextShape"><tspan class="TextParagraph" font-family="Liberation Sans, sans-serif" font-size="423px" font-weight="400"><tspan class="TextPosition" x="20522" y="4041"><tspan fill="rgb(0,0,0)" stroke="none">Stt Texas</tspan></tspan></tspan></text>
 <text class="TextShape"><tspan class="TextParagraph" font-family="Liberation Sans, sans-serif" font-size="423px" font-weight="400"><tspan class="TextPosition" x="20522" y="4903"><tspan fill="rgb(0,0,0)" stroke="none">Stt Kalifornie</tspan></tspan></tspan></text>
 <text class="TextShape"><tspan class="TextParagraph" font-family="Liberation Sans, sans-serif" font-size="423px" font-weight="400"><tspan class="TextPosition" x="20522" y="5765"><tspan fill="rgb(0,0,0)" stroke="none">Mexiko</tspan></tspan></tspan></text>
 <text class="TextShape"><tspan class="TextParagraph" font-family="Liberation Sans, sans-serif" font-size="423px" font-weight="400"><tspan class="TextPosition" x="20522" y="6627"><tspan fill="rgb(0,0,0)" stroke="none">rn</tspan></tspan></tspan></text>
 <text class="TextShape"><tspan class="TextParagraph" font-family="Liberation Sans, sans-serif" font-size="423px" font-weight="400"><tspan class="TextPosition" x="20522" y="7489"><tspan fill="rgb(0,0,0)" stroke="none">Brazlie</tspan></tspan></tspan></text>
 <text class="TextShape"><tspan class="TextParagraph" font-family="Liberation Sans, sans-serif" font-size="423px" font-weight="400"><tspan class="TextPosition" x="20522" y="8351"><tspan fill="rgb(0,0,0)" stroke="none">celosvtov</tspan></tspan></tspan></text>
 <text class="TextShape"><tspan class="TextParagraph" font-family="Liberation Sans, sans-serif" font-size="423px" font-weight="400"><tspan class="TextPosition" x="20522" y="9213"><tspan fill="rgb(0,0,0)" stroke="none">Rusko</tspan></tspan></tspan></text>
 <text class="TextShape"><tspan class="TextParagraph" font-family="Liberation Sans, sans-serif" font-size="423px" font-weight="400"><tspan class="TextPosition" x="20522" y="10075"><tspan fill="rgb(0,0,0)" stroke="none">USA</tspan></tspan></tspan></text>
 <text class="TextShape"><tspan class="TextParagraph" font-family="Liberation Sans, sans-serif" font-size="423px" font-weight="400"><tspan class="TextPosition" x="20522" y="10937"><tspan fill="rgb(0,0,0)" stroke="none">Turecko</tspan></tspan></tspan></text>
 <text class="TextShape"><tspan class="TextParagraph" font-family="Liberation Sans, sans-serif" font-size="423px" font-weight="400"><tspan class="TextPosition" x="20522" y="11799"><tspan fill="rgb(0,0,0)" stroke="none">Norsko</tspan></tspan></tspan></text>
 <text class="TextShape"><tspan class="TextParagraph" font-family="Liberation Sans, sans-serif" font-size="423px" font-weight="400"><tspan class="TextPosition" x="20522" y="12660"><tspan fill="rgb(0,0,0)" stroke="none">esko</tspan></tspan></tspan></text>
 <text class="TextShape"><tspan class="TextParagraph" font-family="Liberation Sans, sans-serif" font-size="423px" font-weight="400"><tspan class="TextPosition" x="20522" y="13522"><tspan fill="rgb(0,0,0)" stroke="none">Rakousko</tspan></tspan></tspan></text>
 <text class="TextShape"><tspan class="TextParagraph" font-family="Liberation Sans, sans-serif" font-size="423px" font-weight="400"><tspan class="TextPosition" x="20522" y="14384"><tspan fill="rgb(0,0,0)" stroke="none">EU</tspan></tspan></tspan></text>
 <text class="TextShape"><tspan class="TextParagraph" font-family="Liberation Sans, sans-serif" font-size="423px" font-weight="400"><tspan class="TextPosition" x="20522" y="15246"><tspan fill="rgb(0,0,0)" stroke="none">panlsko</tspan></tspan></tspan></text>
 <text class="TextShape"><tspan class="TextParagraph" font-family="Liberation Sans, sans-serif" font-size="423px" font-weight="400"><tspan class="TextPosition" x="20522" y="16108"><tspan fill="rgb(0,0,0)" stroke="none">Kanada</tspan></tspan></tspan></text>
 <text class="TextShape"><tspan class="TextParagraph" font-family="Liberation Sans, sans-serif" font-size="423px" font-weight="400"><tspan class="TextPosition" x="20522" y="16970"><tspan fill="rgb(0,0,0)" stroke="none">Velk Britnie</tspan></tspan></tspan></text>
 <text class="TextShape"><tspan class="TextParagraph" font-family="Liberation Sans, sans-serif" font-size="423px" font-weight="400"><tspan class="TextPosition" x="20522" y="17832"><tspan fill="rgb(0,0,0)" stroke="none">Nmecko</tspan></tspan></tspan></text>
 <text class="TextShape"><tspan class="TextParagraph" font-family="Liberation Sans, sans-serif" font-size="423px" font-weight="400"><tspan class="TextPosition" x="20522" y="18694"><tspan fill="rgb(0,0,0)" stroke="none">Dnsko</tspan></tspan></tspan></text>
 <text class="TextShape"><tspan class="TextParagraph" font-family="Liberation Sans, sans-serif" font-size="423px" font-weight="400"><tspan class="TextPosition" x="20522" y="19556"><tspan fill="rgb(0,0,0)" stroke="none">Stt New York</tspan></tspan></tspan></text>
 <text class="TextShape"><tspan class="TextParagraph" font-family="Liberation Sans, sans-serif" font-size="423px" font-weight="400"><tspan class="TextPosition" x="20522" y="20418"><tspan fill="rgb(0,0,0)" stroke="none">vdsko</tspan></tspan></tspan></text>
 <text class="TextShape"><tspan class="TextParagraph" font-family="Liberation Sans, sans-serif" font-size="423px" font-weight="400"><tspan class="TextPosition" x="20522" y="21280"><tspan fill="rgb(0,0,0)" stroke="none">vcarsko</tspan></tspan></tspan></text>
 <text class="TextShape"><tspan class="TextParagraph" font-family="Liberation Sans, sans-serif" font-size="423px" font-weight="400"><tspan class="TextPosition" x="20522" y="22142"><tspan fill="rgb(0,0,0)" stroke="none">Jin Korea</tspan></tspan></tspan></text>
 <text class="TextShape"><tspan class="TextParagraph" font-family="Liberation Sans, sans-serif" font-size="423px" font-weight="400"><tspan class="TextPosition" x="20522" y="23004"><tspan fill="rgb(0,0,0)" stroke="none">Itlie</tspan></tspan></tspan></text>
</svg>