<?xml version="1.0" encoding="UTF-8"?>
<!DOCTYPE svg PUBLIC "-//W3C//DTD SVG 1.1//EN" "http://www.w3.org/Graphics/SVG/1.1/DTD/svg11.dtd">
<svg width="236mm" height="250mm" viewBox="0 0 23600 25000" version="1.1" xmlns="http://www.w3.org/2000/svg" xmlns:xlink="http://www.w3.org/1999/xlink" stroke-width="28.222" stroke-linejoin="round" xml:space="preserve">
 <path fill="rgb(255,255,255)" stroke="none" d="M 11800,25000 L 0,25000 0,0 23600,0 23600,25000 11800,25000 Z"/>
 <path fill="none" stroke="rgb(179,179,179)" stroke-linejoin="round" d="M 9931,23448 L 1316,23448 1316,1749 18545,1749 18545,23448 9931,23448 Z"/>
 <path fill="none" stroke="rgb(179,179,179)" stroke-linejoin="round" d="M 18545,23447 L 1316,23447"/>
 <path fill="none" stroke="rgb(179,179,179)" stroke-linejoin="round" d="M 18545,21277 L 1316,21277"/>
 <path fill="none" stroke="rgb(179,179,179)" stroke-linejoin="round" d="M 18545,19106 L 1316,19106"/>
 <path fill="none" stroke="rgb(179,179,179)" stroke-linejoin="round" d="M 18545,16937 L 1316,16937"/>
 <path fill="none" stroke="rgb(179,179,179)" stroke-linejoin="round" d="M 18545,14767 L 1316,14767"/>
 <path fill="none" stroke="rgb(179,179,179)" stroke-linejoin="round" d="M 18545,12597 L 1316,12597"/>
 <path fill="none" stroke="rgb(179,179,179)" stroke-linejoin="round" d="M 18545,10428 L 1316,10428"/>
 <path fill="none" stroke="rgb(179,179,179)" stroke-linejoin="round" d="M 18545,8257 L 1316,8257"/>
 <path fill="none" stroke="rgb(179,179,179)" stroke-linejoin="round" d="M 18545,6088 L 1316,6088"/>
 <path fill="none" stroke="rgb(179,179,179)" stroke-linejoin="round" d="M 18545,3918 L 1316,3918"/>
 <path fill="none" stroke="rgb(179,179,179)" stroke-linejoin="round" d="M 18545,1748 L 1316,1748"/>
 <path fill="none" stroke="rgb(179,179,179)" stroke-linejoin="round" d="M 1316,23597 L 1316,23447"/>
 <path fill="none" stroke="rgb(179,179,179)" stroke-linejoin="round" d="M 1316,23597 L 1316,23447"/>
 <path fill="none" stroke="rgb(179,179,179)" stroke-linejoin="round" d="M 1439,23597 L 1439,23447"/>
 <path fill="none" stroke="rgb(179,179,179)" stroke-linejoin="round" d="M 1439,23597 L 1439,23447"/>
 <path fill="none" stroke="rgb(179,179,179)" stroke-linejoin="round" d="M 1562,23597 L 1562,23447"/>
 <path fill="none" stroke="rgb(179,179,179)" stroke-linejoin="round" d="M 1562,23597 L 1562,23447"/>
 <path fill="none" stroke="rgb(179,179,179)" stroke-linejoin="round" d="M 1685,23597 L 1685,23447"/>
 <path fill="none" stroke="rgb(179,179,179)" stroke-linejoin="round" d="M 1685,23597 L 1685,23447"/>
 <path fill="none" stroke="rgb(179,179,179)" stroke-linejoin="round" d="M 1808,23597 L 1808,23447"/>
 <path fill="none" stroke="rgb(179,179,179)" stroke-linejoin="round" d="M 1808,23597 L 1808,23447"/>
 <path fill="none" stroke="rgb(179,179,179)" stroke-linejoin="round" d="M 1931,23597 L 1931,23447"/>
 <path fill="none" stroke="rgb(179,179,179)" stroke-linejoin="round" d="M 1931,23597 L 1931,23447"/>
 <path fill="none" stroke="rgb(179,179,179)" stroke-linejoin="round" d="M 2054,23597 L 2054,23447"/>
 <path fill="none" stroke="rgb(179,179,179)" stroke-linejoin="round" d="M 2054,23597 L 2054,23447"/>
 <path fill="none" stroke="rgb(179,179,179)" stroke-linejoin="round" d="M 2177,23597 L 2177,23447"/>
 <path fill="none" stroke="rgb(179,179,179)" stroke-linejoin="round" d="M 2177,23597 L 2177,23447"/>
 <path fill="none" stroke="rgb(179,179,179)" stroke-linejoin="round" d="M 2300,23597 L 2300,23447"/>
 <path fill="none" stroke="rgb(179,179,179)" stroke-linejoin="round" d="M 2300,23597 L 2300,23447"/>
 <path fill="none" stroke="rgb(179,179,179)" stroke-linejoin="round" d="M 2423,23597 L 2423,23447"/>
 <path fill="none" stroke="rgb(179,179,179)" stroke-linejoin="round" d="M 2423,23597 L 2423,23447"/>
 <path fill="none" stroke="rgb(179,179,179)" stroke-linejoin="round" d="M 2546,23597 L 2546,23447"/>
 <path fill="none" stroke="rgb(179,179,179)" stroke-linejoin="round" d="M 2546,23597 L 2546,23447"/>
 <path fill="none" stroke="rgb(179,179,179)" stroke-linejoin="round" d="M 2669,23597 L 2669,23447"/>
 <path fill="none" stroke="rgb(179,179,179)" stroke-linejoin="round" d="M 2669,23597 L 2669,23447"/>
 <path fill="none" stroke="rgb(179,179,179)" stroke-linejoin="round" d="M 2792,23597 L 2792,23447"/>
 <path fill="none" stroke="rgb(179,179,179)" stroke-linejoin="round" d="M 2792,23597 L 2792,23447"/>
 <path fill="none" stroke="rgb(179,179,179)" stroke-linejoin="round" d="M 2915,23597 L 2915,23447"/>
 <path fill="none" stroke="rgb(179,179,179)" stroke-linejoin="round" d="M 2915,23597 L 2915,23447"/>
 <path fill="none" stroke="rgb(179,179,179)" stroke-linejoin="round" d="M 3039,23597 L 3039,23447"/>
 <path fill="none" stroke="rgb(179,179,179)" stroke-linejoin="round" d="M 3039,23597 L 3039,23447"/>
 <path fill="none" stroke="rgb(179,179,179)" stroke-linejoin="round" d="M 3162,23597 L 3162,23447"/>
 <path fill="none" stroke="rgb(179,179,179)" stroke-linejoin="round" d="M 3162,23597 L 3162,23447"/>
 <path fill="none" stroke="rgb(179,179,179)" stroke-linejoin="round" d="M 3285,23597 L 3285,23447"/>
 <path fill="none" stroke="rgb(179,179,179)" stroke-linejoin="round" d="M 3285,23597 L 3285,23447"/>
 <path fill="none" stroke="rgb(179,179,179)" stroke-linejoin="round" d="M 3408,23597 L 3408,23447"/>
 <path fill="none" stroke="rgb(179,179,179)" stroke-linejoin="round" d="M 3408,23597 L 3408,23447"/>
 <path fill="none" stroke="rgb(179,179,179)" stroke-linejoin="round" d="M 3531,23597 L 3531,23447"/>
 <path fill="none" stroke="rgb(179,179,179)" stroke-linejoin="round" d="M 3531,23597 L 3531,23447"/>
 <path fill="none" stroke="rgb(179,179,179)" stroke-linejoin="round" d="M 3654,23597 L 3654,23447"/>
 <path fill="none" stroke="rgb(179,179,179)" stroke-linejoin="round" d="M 3654,23597 L 3654,23447"/>
 <path fill="none" stroke="rgb(179,179,179)" stroke-linejoin="round" d="M 3777,23597 L 3777,23447"/>
 <path fill="none" stroke="rgb(179,179,179)" stroke-linejoin="round" d="M 3777,23597 L 3777,23447"/>
 <path fill="none" stroke="rgb(179,179,179)" stroke-linejoin="round" d="M 3900,23597 L 3900,23447"/>
 <path fill="none" stroke="rgb(179,179,179)" stroke-linejoin="round" d="M 3900,23597 L 3900,23447"/>
 <path fill="none" stroke="rgb(179,179,179)" stroke-linejoin="round" d="M 4023,23597 L 4023,23447"/>
 <path fill="none" stroke="rgb(179,179,179)" stroke-linejoin="round" d="M 4023,23597 L 4023,23447"/>
 <path fill="none" stroke="rgb(179,179,179)" stroke-linejoin="round" d="M 4146,23597 L 4146,23447"/>
 <path fill="none" stroke="rgb(179,179,179)" stroke-linejoin="round" d="M 4146,23597 L 4146,23447"/>
 <path fill="none" stroke="rgb(179,179,179)" stroke-linejoin="round" d="M 4269,23597 L 4269,23447"/>
 <path fill="none" stroke="rgb(179,179,179)" stroke-linejoin="round" d="M 4269,23597 L 4269,23447"/>
 <path fill="none" stroke="rgb(179,179,179)" stroke-linejoin="round" d="M 4392,23597 L 4392,23447"/>
 <path fill="none" stroke="rgb(179,179,179)" stroke-linejoin="round" d="M 4392,23597 L 4392,23447"/>
 <path fill="none" stroke="rgb(179,179,179)" stroke-linejoin="round" d="M 4515,23597 L 4515,23447"/>
 <path fill="none" stroke="rgb(179,179,179)" stroke-linejoin="round" d="M 4515,23597 L 4515,23447"/>
 <path fill="none" stroke="rgb(179,179,179)" stroke-linejoin="round" d="M 4638,23597 L 4638,23447"/>
 <path fill="none" stroke="rgb(179,179,179)" stroke-linejoin="round" d="M 4638,23597 L 4638,23447"/>
 <path fill="none" stroke="rgb(179,179,179)" stroke-linejoin="round" d="M 4762,23597 L 4762,23447"/>
 <path fill="none" stroke="rgb(179,179,179)" stroke-linejoin="round" d="M 4762,23597 L 4762,23447"/>
 <path fill="none" stroke="rgb(179,179,179)" stroke-linejoin="round" d="M 4885,23597 L 4885,23447"/>
 <path fill="none" stroke="rgb(179,179,179)" stroke-linejoin="round" d="M 4885,23597 L 4885,23447"/>
 <path fill="none" stroke="rgb(179,179,179)" stroke-linejoin="round" d="M 5008,23597 L 5008,23447"/>
 <path fill="none" stroke="rgb(179,179,179)" stroke-linejoin="round" d="M 5008,23597 L 5008,23447"/>
 <path fill="none" stroke="rgb(179,179,179)" stroke-linejoin="round" d="M 5131,23597 L 5131,23447"/>
 <path fill="none" stroke="rgb(179,179,179)" stroke-linejoin="round" d="M 5131,23597 L 5131,23447"/>
 <path fill="none" stroke="rgb(179,179,179)" stroke-linejoin="round" d="M 5254,23597 L 5254,23447"/>
 <path fill="none" stroke="rgb(179,179,179)" stroke-linejoin="round" d="M 5254,23597 L 5254,23447"/>
 <path fill="none" stroke="rgb(179,179,179)" stroke-linejoin="round" d="M 5377,23597 L 5377,23447"/>
 <path fill="none" stroke="rgb(179,179,179)" stroke-linejoin="round" d="M 5377,23597 L 5377,23447"/>
 <path fill="none" stroke="rgb(179,179,179)" stroke-linejoin="round" d="M 5500,23597 L 5500,23447"/>
 <path fill="none" stroke="rgb(179,179,179)" stroke-linejoin="round" d="M 5500,23597 L 5500,23447"/>
 <path fill="none" stroke="rgb(179,179,179)" stroke-linejoin="round" d="M 5623,23597 L 5623,23447"/>
 <path fill="none" stroke="rgb(179,179,179)" stroke-linejoin="round" d="M 5623,23597 L 5623,23447"/>
 <path fill="none" stroke="rgb(179,179,179)" stroke-linejoin="round" d="M 5746,23597 L 5746,23447"/>
 <path fill="none" stroke="rgb(179,179,179)" stroke-linejoin="round" d="M 5746,23597 L 5746,23447"/>
 <path fill="none" stroke="rgb(179,179,179)" stroke-linejoin="round" d="M 5869,23597 L 5869,23447"/>
 <path fill="none" stroke="rgb(179,179,179)" stroke-linejoin="round" d="M 5869,23597 L 5869,23447"/>
 <path fill="none" stroke="rgb(179,179,179)" stroke-linejoin="round" d="M 5992,23597 L 5992,23447"/>
 <path fill="none" stroke="rgb(179,179,179)" stroke-linejoin="round" d="M 5992,23597 L 5992,23447"/>
 <path fill="none" stroke="rgb(179,179,179)" stroke-linejoin="round" d="M 6115,23597 L 6115,23447"/>
 <path fill="none" stroke="rgb(179,179,179)" stroke-linejoin="round" d="M 6115,23597 L 6115,23447"/>
 <path fill="none" stroke="rgb(179,179,179)" stroke-linejoin="round" d="M 6238,23597 L 6238,23447"/>
 <path fill="none" stroke="rgb(179,179,179)" stroke-linejoin="round" d="M 6238,23597 L 6238,23447"/>
 <path fill="none" stroke="rgb(179,179,179)" stroke-linejoin="round" d="M 6361,23597 L 6361,23447"/>
 <path fill="none" stroke="rgb(179,179,179)" stroke-linejoin="round" d="M 6361,23597 L 6361,23447"/>
 <path fill="none" stroke="rgb(179,179,179)" stroke-linejoin="round" d="M 6485,23597 L 6485,23447"/>
 <path fill="none" stroke="rgb(179,179,179)" stroke-linejoin="round" d="M 6485,23597 L 6485,23447"/>
 <path fill="none" stroke="rgb(179,179,179)" stroke-linejoin="round" d="M 6608,23597 L 6608,23447"/>
 <path fill="none" stroke="rgb(179,179,179)" stroke-linejoin="round" d="M 6608,23597 L 6608,23447"/>
 <path fill="none" stroke="rgb(179,179,179)" stroke-linejoin="round" d="M 6731,23597 L 6731,23447"/>
 <path fill="none" stroke="rgb(179,179,179)" stroke-linejoin="round" d="M 6731,23597 L 6731,23447"/>
 <path fill="none" stroke="rgb(179,179,179)" stroke-linejoin="round" d="M 6854,23597 L 6854,23447"/>
 <path fill="none" stroke="rgb(179,179,179)" stroke-linejoin="round" d="M 6854,23597 L 6854,23447"/>
 <path fill="none" stroke="rgb(179,179,179)" stroke-linejoin="round" d="M 6977,23597 L 6977,23447"/>
 <path fill="none" stroke="rgb(179,179,179)" stroke-linejoin="round" d="M 6977,23597 L 6977,23447"/>
 <path fill="none" stroke="rgb(179,179,179)" stroke-linejoin="round" d="M 7100,23597 L 7100,23447"/>
 <path fill="none" stroke="rgb(179,179,179)" stroke-linejoin="round" d="M 7100,23597 L 7100,23447"/>
 <path fill="none" stroke="rgb(179,179,179)" stroke-linejoin="round" d="M 7223,23597 L 7223,23447"/>
 <path fill="none" stroke="rgb(179,179,179)" stroke-linejoin="round" d="M 7223,23597 L 7223,23447"/>
 <path fill="none" stroke="rgb(179,179,179)" stroke-linejoin="round" d="M 7346,23597 L 7346,23447"/>
 <path fill="none" stroke="rgb(179,179,179)" stroke-linejoin="round" d="M 7346,23597 L 7346,23447"/>
 <path fill="none" stroke="rgb(179,179,179)" stroke-linejoin="round" d="M 7469,23597 L 7469,23447"/>
 <path fill="none" stroke="rgb(179,179,179)" stroke-linejoin="round" d="M 7469,23597 L 7469,23447"/>
 <path fill="none" stroke="rgb(179,179,179)" stroke-linejoin="round" d="M 7592,23597 L 7592,23447"/>
 <path fill="none" stroke="rgb(179,179,179)" stroke-linejoin="round" d="M 7592,23597 L 7592,23447"/>
 <path fill="none" stroke="rgb(179,179,179)" stroke-linejoin="round" d="M 7715,23597 L 7715,23447"/>
 <path fill="none" stroke="rgb(179,179,179)" stroke-linejoin="round" d="M 7715,23597 L 7715,23447"/>
 <path fill="none" stroke="rgb(179,179,179)" stroke-linejoin="round" d="M 7838,23597 L 7838,23447"/>
 <path fill="none" stroke="rgb(179,179,179)" stroke-linejoin="round" d="M 7838,23597 L 7838,23447"/>
 <path fill="none" stroke="rgb(179,179,179)" stroke-linejoin="round" d="M 7961,23597 L 7961,23447"/>
 <path fill="none" stroke="rgb(179,179,179)" stroke-linejoin="round" d="M 7961,23597 L 7961,23447"/>
 <path fill="none" stroke="rgb(179,179,179)" stroke-linejoin="round" d="M 8084,23597 L 8084,23447"/>
 <path fill="none" stroke="rgb(179,179,179)" stroke-linejoin="round" d="M 8084,23597 L 8084,23447"/>
 <path fill="none" stroke="rgb(179,179,179)" stroke-linejoin="round" d="M 8208,23597 L 8208,23447"/>
 <path fill="none" stroke="rgb(179,179,179)" stroke-linejoin="round" d="M 8208,23597 L 8208,23447"/>
 <path fill="none" stroke="rgb(179,179,179)" stroke-linejoin="round" d="M 8331,23597 L 8331,23447"/>
 <path fill="none" stroke="rgb(179,179,179)" stroke-linejoin="round" d="M 8331,23597 L 8331,23447"/>
 <path fill="none" stroke="rgb(179,179,179)" stroke-linejoin="round" d="M 8454,23597 L 8454,23447"/>
 <path fill="none" stroke="rgb(179,179,179)" stroke-linejoin="round" d="M 8454,23597 L 8454,23447"/>
 <path fill="none" stroke="rgb(179,179,179)" stroke-linejoin="round" d="M 8577,23597 L 8577,23447"/>
 <path fill="none" stroke="rgb(179,179,179)" stroke-linejoin="round" d="M 8577,23597 L 8577,23447"/>
 <path fill="none" stroke="rgb(179,179,179)" stroke-linejoin="round" d="M 8700,23597 L 8700,23447"/>
 <path fill="none" stroke="rgb(179,179,179)" stroke-linejoin="round" d="M 8700,23597 L 8700,23447"/>
 <path fill="none" stroke="rgb(179,179,179)" stroke-linejoin="round" d="M 8823,23597 L 8823,23447"/>
 <path fill="none" stroke="rgb(179,179,179)" stroke-linejoin="round" d="M 8823,23597 L 8823,23447"/>
 <path fill="none" stroke="rgb(179,179,179)" stroke-linejoin="round" d="M 8946,23597 L 8946,23447"/>
 <path fill="none" stroke="rgb(179,179,179)" stroke-linejoin="round" d="M 8946,23597 L 8946,23447"/>
 <path fill="none" stroke="rgb(179,179,179)" stroke-linejoin="round" d="M 9069,23597 L 9069,23447"/>
 <path fill="none" stroke="rgb(179,179,179)" stroke-linejoin="round" d="M 9069,23597 L 9069,23447"/>
 <path fill="none" stroke="rgb(179,179,179)" stroke-linejoin="round" d="M 9192,23597 L 9192,23447"/>
 <path fill="none" stroke="rgb(179,179,179)" stroke-linejoin="round" d="M 9192,23597 L 9192,23447"/>
 <path fill="none" stroke="rgb(179,179,179)" stroke-linejoin="round" d="M 9315,23597 L 9315,23447"/>
 <path fill="none" stroke="rgb(179,179,179)" stroke-linejoin="round" d="M 9315,23597 L 9315,23447"/>
 <path fill="none" stroke="rgb(179,179,179)" stroke-linejoin="round" d="M 9438,23597 L 9438,23447"/>
 <path fill="none" stroke="rgb(179,179,179)" stroke-linejoin="round" d="M 9438,23597 L 9438,23447"/>
 <path fill="none" stroke="rgb(179,179,179)" stroke-linejoin="round" d="M 9561,23597 L 9561,23447"/>
 <path fill="none" stroke="rgb(179,179,179)" stroke-linejoin="round" d="M 9561,23597 L 9561,23447"/>
 <path fill="none" stroke="rgb(179,179,179)" stroke-linejoin="round" d="M 9684,23597 L 9684,23447"/>
 <path fill="none" stroke="rgb(179,179,179)" stroke-linejoin="round" d="M 9684,23597 L 9684,23447"/>
 <path fill="none" stroke="rgb(179,179,179)" stroke-linejoin="round" d="M 9807,23597 L 9807,23447"/>
 <path fill="none" stroke="rgb(179,179,179)" stroke-linejoin="round" d="M 9807,23597 L 9807,23447"/>
 <path fill="none" stroke="rgb(179,179,179)" stroke-linejoin="round" d="M 9931,23597 L 9931,23447"/>
 <path fill="none" stroke="rgb(179,179,179)" stroke-linejoin="round" d="M 9931,23597 L 9931,23447"/>
 <path fill="none" stroke="rgb(179,179,179)" stroke-linejoin="round" d="M 10054,23597 L 10054,23447"/>
 <path fill="none" stroke="rgb(179,179,179)" stroke-linejoin="round" d="M 10054,23597 L 10054,23447"/>
 <path fill="none" stroke="rgb(179,179,179)" stroke-linejoin="round" d="M 10177,23597 L 10177,23447"/>
 <path fill="none" stroke="rgb(179,179,179)" stroke-linejoin="round" d="M 10177,23597 L 10177,23447"/>
 <path fill="none" stroke="rgb(179,179,179)" stroke-linejoin="round" d="M 10300,23597 L 10300,23447"/>
 <path fill="none" stroke="rgb(179,179,179)" stroke-linejoin="round" d="M 10300,23597 L 10300,23447"/>
 <path fill="none" stroke="rgb(179,179,179)" stroke-linejoin="round" d="M 10423,23597 L 10423,23447"/>
 <path fill="none" stroke="rgb(179,179,179)" stroke-linejoin="round" d="M 10423,23597 L 10423,23447"/>
 <path fill="none" stroke="rgb(179,179,179)" stroke-linejoin="round" d="M 10546,23597 L 10546,23447"/>
 <path fill="none" stroke="rgb(179,179,179)" stroke-linejoin="round" d="M 10546,23597 L 10546,23447"/>
 <path fill="none" stroke="rgb(179,179,179)" stroke-linejoin="round" d="M 10669,23597 L 10669,23447"/>
 <path fill="none" stroke="rgb(179,179,179)" stroke-linejoin="round" d="M 10669,23597 L 10669,23447"/>
 <path fill="none" stroke="rgb(179,179,179)" stroke-linejoin="round" d="M 10792,23597 L 10792,23447"/>
 <path fill="none" stroke="rgb(179,179,179)" stroke-linejoin="round" d="M 10792,23597 L 10792,23447"/>
 <path fill="none" stroke="rgb(179,179,179)" stroke-linejoin="round" d="M 10915,23597 L 10915,23447"/>
 <path fill="none" stroke="rgb(179,179,179)" stroke-linejoin="round" d="M 10915,23597 L 10915,23447"/>
 <path fill="none" stroke="rgb(179,179,179)" stroke-linejoin="round" d="M 11038,23597 L 11038,23447"/>
 <path fill="none" stroke="rgb(179,179,179)" stroke-linejoin="round" d="M 11038,23597 L 11038,23447"/>
 <path fill="none" stroke="rgb(179,179,179)" stroke-linejoin="round" d="M 11161,23597 L 11161,23447"/>
 <path fill="none" stroke="rgb(179,179,179)" stroke-linejoin="round" d="M 11161,23597 L 11161,23447"/>
 <path fill="none" stroke="rgb(179,179,179)" stroke-linejoin="round" d="M 11284,23597 L 11284,23447"/>
 <path fill="none" stroke="rgb(179,179,179)" stroke-linejoin="round" d="M 11284,23597 L 11284,23447"/>
 <path fill="none" stroke="rgb(179,179,179)" stroke-linejoin="round" d="M 11407,23597 L 11407,23447"/>
 <path fill="none" stroke="rgb(179,179,179)" stroke-linejoin="round" d="M 11407,23597 L 11407,23447"/>
 <path fill="none" stroke="rgb(179,179,179)" stroke-linejoin="round" d="M 11530,23597 L 11530,23447"/>
 <path fill="none" stroke="rgb(179,179,179)" stroke-linejoin="round" d="M 11530,23597 L 11530,23447"/>
 <path fill="none" stroke="rgb(179,179,179)" stroke-linejoin="round" d="M 11654,23597 L 11654,23447"/>
 <path fill="none" stroke="rgb(179,179,179)" stroke-linejoin="round" d="M 11654,23597 L 11654,23447"/>
 <path fill="none" stroke="rgb(179,179,179)" stroke-linejoin="round" d="M 11777,23597 L 11777,23447"/>
 <path fill="none" stroke="rgb(179,179,179)" stroke-linejoin="round" d="M 11777,23597 L 11777,23447"/>
 <path fill="none" stroke="rgb(179,179,179)" stroke-linejoin="round" d="M 11899,23597 L 11899,23447"/>
 <path fill="none" stroke="rgb(179,179,179)" stroke-linejoin="round" d="M 11899,23597 L 11899,23447"/>
 <path fill="none" stroke="rgb(179,179,179)" stroke-linejoin="round" d="M 12022,23597 L 12022,23447"/>
 <path fill="none" stroke="rgb(179,179,179)" stroke-linejoin="round" d="M 12022,23597 L 12022,23447"/>
 <path fill="none" stroke="rgb(179,179,179)" stroke-linejoin="round" d="M 12145,23597 L 12145,23447"/>
 <path fill="none" stroke="rgb(179,179,179)" stroke-linejoin="round" d="M 12145,23597 L 12145,23447"/>
 <path fill="none" stroke="rgb(179,179,179)" stroke-linejoin="round" d="M 12268,23597 L 12268,23447"/>
 <path fill="none" stroke="rgb(179,179,179)" stroke-linejoin="round" d="M 12268,23597 L 12268,23447"/>
 <path fill="none" stroke="rgb(179,179,179)" stroke-linejoin="round" d="M 12391,23597 L 12391,23447"/>
 <path fill="none" stroke="rgb(179,179,179)" stroke-linejoin="round" d="M 12391,23597 L 12391,23447"/>
 <path fill="none" stroke="rgb(179,179,179)" stroke-linejoin="round" d="M 12514,23597 L 12514,23447"/>
 <path fill="none" stroke="rgb(179,179,179)" stroke-linejoin="round" d="M 12514,23597 L 12514,23447"/>
 <path fill="none" stroke="rgb(179,179,179)" stroke-linejoin="round" d="M 12637,23597 L 12637,23447"/>
 <path fill="none" stroke="rgb(179,179,179)" stroke-linejoin="round" d="M 12637,23597 L 12637,23447"/>
 <path fill="none" stroke="rgb(179,179,179)" stroke-linejoin="round" d="M 12760,23597 L 12760,23447"/>
 <path fill="none" stroke="rgb(179,179,179)" stroke-linejoin="round" d="M 12760,23597 L 12760,23447"/>
 <path fill="none" stroke="rgb(179,179,179)" stroke-linejoin="round" d="M 12883,23597 L 12883,23447"/>
 <path fill="none" stroke="rgb(179,179,179)" stroke-linejoin="round" d="M 12883,23597 L 12883,23447"/>
 <path fill="none" stroke="rgb(179,179,179)" stroke-linejoin="round" d="M 13006,23597 L 13006,23447"/>
 <path fill="none" stroke="rgb(179,179,179)" stroke-linejoin="round" d="M 13006,23597 L 13006,23447"/>
 <path fill="none" stroke="rgb(179,179,179)" stroke-linejoin="round" d="M 13129,23597 L 13129,23447"/>
 <path fill="none" stroke="rgb(179,179,179)" stroke-linejoin="round" d="M 13129,23597 L 13129,23447"/>
 <path fill="none" stroke="rgb(179,179,179)" stroke-linejoin="round" d="M 13252,23597 L 13252,23447"/>
 <path fill="none" stroke="rgb(179,179,179)" stroke-linejoin="round" d="M 13252,23597 L 13252,23447"/>
 <path fill="none" stroke="rgb(179,179,179)" stroke-linejoin="round" d="M 13376,23597 L 13376,23447"/>
 <path fill="none" stroke="rgb(179,179,179)" stroke-linejoin="round" d="M 13376,23597 L 13376,23447"/>
 <path fill="none" stroke="rgb(179,179,179)" stroke-linejoin="round" d="M 13499,23597 L 13499,23447"/>
 <path fill="none" stroke="rgb(179,179,179)" stroke-linejoin="round" d="M 13499,23597 L 13499,23447"/>
 <path fill="none" stroke="rgb(179,179,179)" stroke-linejoin="round" d="M 13622,23597 L 13622,23447"/>
 <path fill="none" stroke="rgb(179,179,179)" stroke-linejoin="round" d="M 13622,23597 L 13622,23447"/>
 <path fill="none" stroke="rgb(179,179,179)" stroke-linejoin="round" d="M 13745,23597 L 13745,23447"/>
 <path fill="none" stroke="rgb(179,179,179)" stroke-linejoin="round" d="M 13745,23597 L 13745,23447"/>
 <path fill="none" stroke="rgb(179,179,179)" stroke-linejoin="round" d="M 13868,23597 L 13868,23447"/>
 <path fill="none" stroke="rgb(179,179,179)" stroke-linejoin="round" d="M 13868,23597 L 13868,23447"/>
 <path fill="none" stroke="rgb(179,179,179)" stroke-linejoin="round" d="M 13991,23597 L 13991,23447"/>
 <path fill="none" stroke="rgb(179,179,179)" stroke-linejoin="round" d="M 13991,23597 L 13991,23447"/>
 <path fill="none" stroke="rgb(179,179,179)" stroke-linejoin="round" d="M 14114,23597 L 14114,23447"/>
 <path fill="none" stroke="rgb(179,179,179)" stroke-linejoin="round" d="M 14114,23597 L 14114,23447"/>
 <path fill="none" stroke="rgb(179,179,179)" stroke-linejoin="round" d="M 14237,23597 L 14237,23447"/>
 <path fill="none" stroke="rgb(179,179,179)" stroke-linejoin="round" d="M 14237,23597 L 14237,23447"/>
 <path fill="none" stroke="rgb(179,179,179)" stroke-linejoin="round" d="M 14360,23597 L 14360,23447"/>
 <path fill="none" stroke="rgb(179,179,179)" stroke-linejoin="round" d="M 14360,23597 L 14360,23447"/>
 <path fill="none" stroke="rgb(179,179,179)" stroke-linejoin="round" d="M 14483,23597 L 14483,23447"/>
 <path fill="none" stroke="rgb(179,179,179)" stroke-linejoin="round" d="M 14483,23597 L 14483,23447"/>
 <path fill="none" stroke="rgb(179,179,179)" stroke-linejoin="round" d="M 14606,23597 L 14606,23447"/>
 <path fill="none" stroke="rgb(179,179,179)" stroke-linejoin="round" d="M 14606,23597 L 14606,23447"/>
 <path fill="none" stroke="rgb(179,179,179)" stroke-linejoin="round" d="M 14729,23597 L 14729,23447"/>
 <path fill="none" stroke="rgb(179,179,179)" stroke-linejoin="round" d="M 14729,23597 L 14729,23447"/>
 <path fill="none" stroke="rgb(179,179,179)" stroke-linejoin="round" d="M 14852,23597 L 14852,23447"/>
 <path fill="none" stroke="rgb(179,179,179)" stroke-linejoin="round" d="M 14852,23597 L 14852,23447"/>
 <path fill="none" stroke="rgb(179,179,179)" stroke-linejoin="round" d="M 14975,23597 L 14975,23447"/>
 <path fill="none" stroke="rgb(179,179,179)" stroke-linejoin="round" d="M 14975,23597 L 14975,23447"/>
 <path fill="none" stroke="rgb(179,179,179)" stroke-linejoin="round" d="M 15098,23597 L 15098,23447"/>
 <path fill="none" stroke="rgb(179,179,179)" stroke-linejoin="round" d="M 15098,23597 L 15098,23447"/>
 <path fill="none" stroke="rgb(179,179,179)" stroke-linejoin="round" d="M 15222,23597 L 15222,23447"/>
 <path fill="none" stroke="rgb(179,179,179)" stroke-linejoin="round" d="M 15222,23597 L 15222,23447"/>
 <path fill="none" stroke="rgb(179,179,179)" stroke-linejoin="round" d="M 15345,23597 L 15345,23447"/>
 <path fill="none" stroke="rgb(179,179,179)" stroke-linejoin="round" d="M 15345,23597 L 15345,23447"/>
 <path fill="none" stroke="rgb(179,179,179)" stroke-linejoin="round" d="M 15468,23597 L 15468,23447"/>
 <path fill="none" stroke="rgb(179,179,179)" stroke-linejoin="round" d="M 15468,23597 L 15468,23447"/>
 <path fill="none" stroke="rgb(179,179,179)" stroke-linejoin="round" d="M 15591,23597 L 15591,23447"/>
 <path fill="none" stroke="rgb(179,179,179)" stroke-linejoin="round" d="M 15591,23597 L 15591,23447"/>
 <path fill="none" stroke="rgb(179,179,179)" stroke-linejoin="round" d="M 15714,23597 L 15714,23447"/>
 <path fill="none" stroke="rgb(179,179,179)" stroke-linejoin="round" d="M 15714,23597 L 15714,23447"/>
 <path fill="none" stroke="rgb(179,179,179)" stroke-linejoin="round" d="M 15837,23597 L 15837,23447"/>
 <path fill="none" stroke="rgb(179,179,179)" stroke-linejoin="round" d="M 15837,23597 L 15837,23447"/>
 <path fill="none" stroke="rgb(179,179,179)" stroke-linejoin="round" d="M 15960,23597 L 15960,23447"/>
 <path fill="none" stroke="rgb(179,179,179)" stroke-linejoin="round" d="M 15960,23597 L 15960,23447"/>
 <path fill="none" stroke="rgb(179,179,179)" stroke-linejoin="round" d="M 16083,23597 L 16083,23447"/>
 <path fill="none" stroke="rgb(179,179,179)" stroke-linejoin="round" d="M 16083,23597 L 16083,23447"/>
 <path fill="none" stroke="rgb(179,179,179)" stroke-linejoin="round" d="M 16206,23597 L 16206,23447"/>
 <path fill="none" stroke="rgb(179,179,179)" stroke-linejoin="round" d="M 16206,23597 L 16206,23447"/>
 <path fill="none" stroke="rgb(179,179,179)" stroke-linejoin="round" d="M 16329,23597 L 16329,23447"/>
 <path fill="none" stroke="rgb(179,179,179)" stroke-linejoin="round" d="M 16329,23597 L 16329,23447"/>
 <path fill="none" stroke="rgb(179,179,179)" stroke-linejoin="round" d="M 16452,23597 L 16452,23447"/>
 <path fill="none" stroke="rgb(179,179,179)" stroke-linejoin="round" d="M 16452,23597 L 16452,23447"/>
 <path fill="none" stroke="rgb(179,179,179)" stroke-linejoin="round" d="M 16575,23597 L 16575,23447"/>
 <path fill="none" stroke="rgb(179,179,179)" stroke-linejoin="round" d="M 16575,23597 L 16575,23447"/>
 <path fill="none" stroke="rgb(179,179,179)" stroke-linejoin="round" d="M 16698,23597 L 16698,23447"/>
 <path fill="none" stroke="rgb(179,179,179)" stroke-linejoin="round" d="M 16698,23597 L 16698,23447"/>
 <path fill="none" stroke="rgb(179,179,179)" stroke-linejoin="round" d="M 16822,23597 L 16822,23447"/>
 <path fill="none" stroke="rgb(179,179,179)" stroke-linejoin="round" d="M 16822,23597 L 16822,23447"/>
 <path fill="none" stroke="rgb(179,179,179)" stroke-linejoin="round" d="M 16945,23597 L 16945,23447"/>
 <path fill="none" stroke="rgb(179,179,179)" stroke-linejoin="round" d="M 16945,23597 L 16945,23447"/>
 <path fill="none" stroke="rgb(179,179,179)" stroke-linejoin="round" d="M 17068,23597 L 17068,23447"/>
 <path fill="none" stroke="rgb(179,179,179)" stroke-linejoin="round" d="M 17068,23597 L 17068,23447"/>
 <path fill="none" stroke="rgb(179,179,179)" stroke-linejoin="round" d="M 17191,23597 L 17191,23447"/>
 <path fill="none" stroke="rgb(179,179,179)" stroke-linejoin="round" d="M 17191,23597 L 17191,23447"/>
 <path fill="none" stroke="rgb(179,179,179)" stroke-linejoin="round" d="M 17314,23597 L 17314,23447"/>
 <path fill="none" stroke="rgb(179,179,179)" stroke-linejoin="round" d="M 17314,23597 L 17314,23447"/>
 <path fill="none" stroke="rgb(179,179,179)" stroke-linejoin="round" d="M 17437,23597 L 17437,23447"/>
 <path fill="none" stroke="rgb(179,179,179)" stroke-linejoin="round" d="M 17437,23597 L 17437,23447"/>
 <path fill="none" stroke="rgb(179,179,179)" stroke-linejoin="round" d="M 17560,23597 L 17560,23447"/>
 <path fill="none" stroke="rgb(179,179,179)" stroke-linejoin="round" d="M 17560,23597 L 17560,23447"/>
 <path fill="none" stroke="rgb(179,179,179)" stroke-linejoin="round" d="M 17683,23597 L 17683,23447"/>
 <path fill="none" stroke="rgb(179,179,179)" stroke-linejoin="round" d="M 17683,23597 L 17683,23447"/>
 <path fill="none" stroke="rgb(179,179,179)" stroke-linejoin="round" d="M 17806,23597 L 17806,23447"/>
 <path fill="none" stroke="rgb(179,179,179)" stroke-linejoin="round" d="M 17806,23597 L 17806,23447"/>
 <path fill="none" stroke="rgb(179,179,179)" stroke-linejoin="round" d="M 17929,23597 L 17929,23447"/>
 <path fill="none" stroke="rgb(179,179,179)" stroke-linejoin="round" d="M 17929,23597 L 17929,23447"/>
 <path fill="none" stroke="rgb(179,179,179)" stroke-linejoin="round" d="M 18052,23597 L 18052,23447"/>
 <path fill="none" stroke="rgb(179,179,179)" stroke-linejoin="round" d="M 18052,23597 L 18052,23447"/>
 <path fill="none" stroke="rgb(179,179,179)" stroke-linejoin="round" d="M 18175,23597 L 18175,23447"/>
 <path fill="none" stroke="rgb(179,179,179)" stroke-linejoin="round" d="M 18175,23597 L 18175,23447"/>
 <path fill="none" stroke="rgb(179,179,179)" stroke-linejoin="round" d="M 18298,23597 L 18298,23447"/>
 <path fill="none" stroke="rgb(179,179,179)" stroke-linejoin="round" d="M 18298,23597 L 18298,23447"/>
 <path fill="none" stroke="rgb(179,179,179)" stroke-linejoin="round" d="M 18421,23597 L 18421,23447"/>
 <path fill="none" stroke="rgb(179,179,179)" stroke-linejoin="round" d="M 18421,23597 L 18421,23447"/>
 <path fill="none" stroke="rgb(179,179,179)" stroke-linejoin="round" d="M 18545,23597 L 18545,23447"/>
 <path fill="none" stroke="rgb(179,179,179)" stroke-linejoin="round" d="M 18545,23597 L 18545,23447"/>
 <path fill="none" stroke="rgb(179,179,179)" stroke-linejoin="round" d="M 1316,23447 L 18545,23447"/>
 <path fill="none" stroke="rgb(179,179,179)" stroke-linejoin="round" d="M 1166,23447 L 1316,23447"/>
 <path fill="none" stroke="rgb(179,179,179)" stroke-linejoin="round" d="M 1166,23447 L 1316,23447"/>
 <path fill="none" stroke="rgb(179,179,179)" stroke-linejoin="round" d="M 1166,21277 L 1316,21277"/>
 <path fill="none" stroke="rgb(179,179,179)" stroke-linejoin="round" d="M 1166,21277 L 1316,21277"/>
 <path fill="none" stroke="rgb(179,179,179)" stroke-linejoin="round" d="M 1166,19106 L 1316,19106"/>
 <path fill="none" stroke="rgb(179,179,179)" stroke-linejoin="round" d="M 1166,19106 L 1316,19106"/>
 <path fill="none" stroke="rgb(179,179,179)" stroke-linejoin="round" d="M 1166,16937 L 1316,16937"/>
 <path fill="none" stroke="rgb(179,179,179)" stroke-linejoin="round" d="M 1166,16937 L 1316,16937"/>
 <path fill="none" stroke="rgb(179,179,179)" stroke-linejoin="round" d="M 1166,14767 L 1316,14767"/>
 <path fill="none" stroke="rgb(179,179,179)" stroke-linejoin="round" d="M 1166,14767 L 1316,14767"/>
 <path fill="none" stroke="rgb(179,179,179)" stroke-linejoin="round" d="M 1166,12597 L 1316,12597"/>
 <path fill="none" stroke="rgb(179,179,179)" stroke-linejoin="round" d="M 1166,12597 L 1316,12597"/>
 <path fill="none" stroke="rgb(179,179,179)" stroke-linejoin="round" d="M 1166,10427 L 1316,10427"/>
 <path fill="none" stroke="rgb(179,179,179)" stroke-linejoin="round" d="M 1166,10427 L 1316,10427"/>
 <path fill="none" stroke="rgb(179,179,179)" stroke-linejoin="round" d="M 1166,8257 L 1316,8257"/>
 <path fill="none" stroke="rgb(179,179,179)" stroke-linejoin="round" d="M 1166,8257 L 1316,8257"/>
 <path fill="none" stroke="rgb(179,179,179)" stroke-linejoin="round" d="M 1166,6088 L 1316,6088"/>
 <path fill="none" stroke="rgb(179,179,179)" stroke-linejoin="round" d="M 1166,6088 L 1316,6088"/>
 <path fill="none" stroke="rgb(179,179,179)" stroke-linejoin="round" d="M 1166,3918 L 1316,3918"/>
 <path fill="none" stroke="rgb(179,179,179)" stroke-linejoin="round" d="M 1166,3918 L 1316,3918"/>
 <path fill="none" stroke="rgb(179,179,179)" stroke-linejoin="round" d="M 1166,1748 L 1316,1748"/>
 <path fill="none" stroke="rgb(179,179,179)" stroke-linejoin="round" d="M 1166,1748 L 1316,1748"/>
 <path fill="none" stroke="rgb(179,179,179)" stroke-linejoin="round" d="M 1316,23447 L 1316,1748"/>
 <path fill="none" stroke="rgb(191,0,65)" stroke-width="80" stroke-linejoin="round" stroke-dasharray="80,40" d="M 3951,1748 L 3962,1820 4085,2722 4208,4232 4331,5635 4454,6570 4577,9403 4700,8230 4823,7652 4946,11091 5069,12328 5192,10736 5315,11174 5438,11042 5561,12329 5685,12010 5808,12084 5931,11722 6054,12279 6177,12683 6300,13023 6423,14359 6546,15325 6669,15987 6792,16998 6915,17145 7038,17092 7161,16893 7284,16786 7408,17056 7531,17220 7654,17266 7777,17502 7900,17639 8023,17905 8146,19068 8269,18829 8392,18993 8515,19027 8638,19287 8761,19295 8884,19438 9007,18240 9131,18824 9254,18985 9377,19004 9500,19172 9623,19037 9746,19001 9869,19415 9992,19472 10115,19434 10238,19906 10361,19620 10484,19733 10607,19830 10730,19868 10854,20084 10977,20201 11100,20022 11223,20197 11346,20041 11469,19975 11592,19894 11715,19664 11837,19675 11960,19783 12083,20051 12206,19904 12329,19699 12452,19868 12576,19888 12699,19664 12822,19346 12945,19452 13068,19486 13191,19279 13314,19286 13437,19302 13560,18743 13683,18522 13806,17643 13929,17502 14052,17714 14175,17029 14299,16394 14422,16215 14545,16009 14668,16229 14791,15876 14914,15379 15037,15601 15160,15536 15283,15642 15406,15787 15529,15627 15652,15850 15775,16096 15898,15852 16022,15424 16145,15047 16268,14310 16391,14093 16514,14328 16637,14475 16760,14329 16883,14579 17006,15796 17129,16572 17252,16728 17375,16695 17498,16655 17621,16698 17745,16971 17868,16914 17991,16800 18114,16831 18237,16735 18360,16829 18483,17332"/>
 <path fill="none" stroke="rgb(85,48,141)" stroke-width="80" stroke-linejoin="round" stroke-dasharray="158,158" d="M 6265,1748 L 6300,3272 6423,4939 6546,4823 6669,5986 6792,6656 6915,7542 7038,7496 7161,7139 7284,7507 7408,8425 7531,8129 7654,8109 7777,8376 7900,9115 8023,9476 8146,9752 8269,9545 8392,9800 8515,8841 8638,8670 8761,8521 8884,8509 9007,8611 9131,8572 9254,8228 9377,8902 9500,8707 9623,9010 9746,9014 9869,9145 9992,9090 10115,8885 10238,8859 10361,9395 10484,9519 10607,9353 10710,1748"/>
 <path fill="none" stroke="rgb(85,48,141)" stroke-width="80" stroke-linejoin="round" stroke-dasharray="158,158" d="M 10895,1748 L 10977,2636 11100,3594 11223,4289 11346,4396 11469,5426 11592,14065 11715,14023 11837,14030 11960,14272 12083,14144 12206,14652 12329,14519 12452,14680 12576,14880 12699,15187 12822,15229 12945,14891 13068,14969 13191,15056 13314,15360 13437,15428 13560,15366 13683,15378 13806,15777 13929,15775 14052,15765 14175,15737 14299,15672 14422,15415 14545,15305 14668,15516 14791,15350 14914,15481 15037,15550 15160,14829 15283,14972 15406,15047 15529,14959 15652,15122 15775,15215 15898,15198 16022,16043 16145,16189 16268,16315 16391,16266 16514,16343 16637,16263 16760,16336 16883,16315 17006,16318 17129,16306 17252,16460 17375,16332 17498,16403 17621,16580 17745,16692 17868,16710 17991,16793 18114,16842 18237,17057 18360,17175 18483,17046"/>
 <path fill="none" stroke="rgb(0,0,255)" stroke-width="80" stroke-linejoin="round" stroke-dasharray="80,40" d="M 3930,1748 L 3962,2467 4085,3482 4208,6536 4331,7778 4454,8186 4577,8261 4700,9077 4823,9027 4946,9773 5069,10098 5192,10608 5315,11098 5438,11341 5561,12868 5685,13507 5808,15196 5931,14804 6054,14190 6177,13833 6300,14338 6423,14199 6546,14639 6669,13684 6792,13428 6915,13823 7038,13964 7161,14516 7284,14385 7408,13908 7531,15543 7654,17141 7777,18112 7900,17233 8023,17172 8146,18062 8269,18368 8392,18262 8515,18446 8638,17410 8761,18738 8884,18794 9007,18260 9131,18642 9254,18765 9377,18081 9500,18834 9623,19126 9746,19027 9869,19570 9992,19469 10115,19609 10238,19770 10361,19721 10484,19451 10607,19435 10730,18824 10854,18823 10977,18599 11100,18735 11223,18749 11346,18979 11469,19012 11592,19367 11715,19442 11837,19388 11960,19159 12083,18876 12206,18681 12329,18513 12452,18302 12576,18017 12699,17905 12822,17525 12945,17644 13068,17303 13191,16793 13314,15690 13437,14845 13560,13695 13683,13757 13806,13343 13929,12756 14052,12604 14175,13263 14299,13182 14422,13534 14545,12658 14668,12258 14791,12536 14914,12459 15037,12709 15160,12153 15283,12285 15406,12860 15529,12739 15652,13067 15775,8181 15898,7230 16022,7554 16145,8660 16268,9413 16391,9214 16514,10101 16637,15179 16760,15741 16883,15806 17006,15115 17129,14314 17252,14957 17375,14424 17498,14944 17621,16515 17745,17091 17868,17359 17991,17408 18114,17649 18237,17574 18360,17724 18483,16594"/>
 <path fill="none" stroke="rgb(255,191,0)" stroke-width="80" stroke-linejoin="round" stroke-dasharray="80,40" d="M 4303,1748 L 4331,2547 4454,3241 4577,3820 4700,3745 4823,7413 4946,9349 5069,9927 5192,10831 5315,11094 5438,11274 5561,11410 5685,11895 5808,12677 5931,13505 6054,13353 6177,13654 6300,13902 6423,14369 6546,14763 6669,14595 6792,14760 6915,15031 7038,15073 7161,15638 7284,15547 7408,15521 7531,15896 7654,16126 7777,16290 7900,16575 8023,16974 8146,18154 8269,18519 8392,18480 8515,18568 8638,18720 8761,18601 8884,18275 9007,17911 9131,18097 9254,18545 9377,18635 9500,18598 9623,18661 9746,18918 9869,19011 9992,18684 10115,18661 10238,19144 10361,19028 10484,19071 10607,19188 10730,19285 10854,19718 10977,19743 11100,19541 11223,19873 11346,19906 11469,19611 11592,19891 11715,19708 11837,19791 11960,19911 12083,20247 12206,20165 12329,20195 12452,19929 12576,20081 12699,20015 12822,20140 12945,20246 13068,20220 13191,20124 13314,19943 13437,19584 13560,19332 13683,19048 13806,18698 13929,18829 14052,19080 14175,18976 14299,19202 14422,19460 14545,19403 14668,19278 14791,19359 14914,19277 15037,19627 15160,19492 15283,19320 15406,19257 15529,19468 15652,19323 15775,19403 15898,19094 16022,18803 16145,19081 16268,18881 16391,18610 16514,18576 16637,18608 16760,18421 16883,19062 17006,18662 17129,19118 17252,18979 17375,18915 17498,18689 17621,19686 17745,19265 17868,19770 17991,19099 18114,19611 18237,19825 18360,20049 18483,19401"/>
 <path fill="none" stroke="rgb(0,169,51)" stroke-width="80" stroke-linejoin="round" stroke-dasharray="80,40" d="M 6969,1748 L 7038,2004 7161,2082 7284,4213 7408,4216 7531,3740 7654,3218 7777,5090 7900,4862 8023,4718 8146,4543 8269,5582 8392,6554 8515,8383 8638,7729 8761,8562 8884,9040 9007,10092 9131,7636 9254,6647 9377,6138 9500,6885 9623,6975 9746,6859 9869,7078 9992,10023 10115,11689 10238,12644 10361,12650 10484,12542 10607,12554 10730,12600 10854,12925 10977,13095 11100,13035 11223,13391 11346,11588 11469,11094 11592,11437 11715,11519 11837,11771 11960,11988 12083,11752 12206,13856 12329,14728 12452,15293 12576,15978 12699,16296 12822,16605 12945,16891 13068,16947 13191,17049 13314,16812 13437,16922 13560,16998 13683,17123 13806,17209 13929,17261 14052,17349 14175,17600 14299,18008 14422,18206 14545,18218 14668,18250 14791,18267 14914,18562 15037,18580 15160,18409 15283,18440 15406,18536 15529,18440 15652,18467 15775,18460 15898,18638 16022,19052 16145,19209 16268,19332 16391,19346 16514,19407 16637,19513 16760,19585 16883,19297 17006,19185 17129,19149 17252,19301 17375,19309 17498,18935 17621,18953 17745,19108 17868,19343 17991,19558 18114,19660 18237,19746 18360,20155 18483,20352"/>
 <path fill="none" stroke="rgb(0,169,51)" stroke-width="80" stroke-linejoin="round" stroke-dasharray="158,102" d="M 1377,3409 L 1500,5458 1623,6730 1746,7326 1869,7616 1992,7989 2115,8861 2239,9767 2362,10400 2485,11089 2608,12069 2731,12955 2854,13627 2977,14356 3100,14925 3223,15432 3346,16001 3469,16733 3592,17199 3715,17540 3838,17756 3962,17868 4085,17991 4208,18054 4331,18107 4454,18426 4577,18472 4700,18694 4823,18890 4946,19115 5069,19421 5192,19560 5315,19699 5438,19926 5561,20027 5685,20088 5808,20149 5931,20240 6054,20394 6177,20389 6300,20626 6423,20756 6546,20978 6669,20984 6792,21051 6915,21154 7038,21172 7161,21031 7284,20958 7408,20887 7531,20945 7654,20944 7777,20806 7900,20782 8023,21023 8146,21075 8269,21144 8392,21183 8515,21205 8638,21235 8761,21223 8884,20959 9007,20938 9131,20876 9254,20920 9377,20863 9500,20781 9623,20752 9746,20841 9869,20807 9992,20771 10115,20688 10238,20645 10361,20692 10484,20533 10607,20334 10730,20150 10854,19982 10977,19968 11100,19773 11223,19584 11346,19586 11469,19606 11592,19626 11715,19614 11837,19430 11960,19533 12083,19534 12206,19455 12329,19312 12452,19249 12576,19270 12699,19265 12822,19119 12945,19075 13068,19056 13191,19131 13314,18977 13437,18987 13560,18761 13683,18871 13806,18779 13929,18728 14052,18633 14175,18790 14299,18684 14422,18851 14545,18760 14668,18830 14791,18849 14914,18874 15037,18772 15160,18776 15283,18771 15406,18732 15529,18774 15652,18821 15775,18906 15898,18959 16022,19093 16145,19142 16268,19254 16391,19248 16514,19328 16637,19374 16760,19495 16883,19572 17006,19761 17129,19911 17252,20170 17375,20323 17498,20427 17621,20532 17745,20555 17868,20583 17991,20577 18114,20528 18237,20592 18360,20677 18483,20741"/>
 <path fill="none" stroke="rgb(255,64,0)" stroke-width="80" stroke-linejoin="round" stroke-dasharray="80,40" d="M 6766,1748 L 6792,2023 6915,3059 7038,3958 7161,4081 7284,4215 7408,5029 7531,4697 7654,5794 7777,5849 7900,5816 8023,6400 8146,7690 8269,7939 8392,8927 8515,9364 8638,9999 8761,10718 8884,11496 9007,11608 9131,11664 9254,11659 9377,12320 9500,12766 9623,12874 9746,13013 9869,13421 9992,13937 10115,14647 10238,15018 10361,15245 10484,15259 10607,15470 10730,15723 10854,15976 10977,16203 11100,16053 11223,16075 11346,16176 11469,16227 11592,16344 11715,16616 11837,16881 11960,17234 12083,17286 12206,17415 12329,17485 12452,17718 12576,17962 12699,17989 12822,17853 12945,17975 13068,17990 13191,18108 13314,18242 13437,18198 13560,18327 13683,18484 13806,18581 13929,18607 14052,18578 14175,18640 14299,18720 14422,18739 14545,18852 14668,19012 14791,18999 14914,19104 15037,19141 15160,19182 15283,19262 15406,19328 15529,19217 15652,19343 15775,19385 15898,19691 16022,19586 16145,19740 16268,19762 16391,19875 16514,19905 16637,19956 16760,19878 16883,20017 17006,20008 17129,20116 17252,20239 17375,20244 17498,20197 17621,20182 17745,20347 17868,20375 17991,20417 18114,20529 18237,20525 18360,20553 18483,20556"/>
 <path fill="none" stroke="rgb(21,132,102)" stroke-width="80" stroke-linejoin="round" stroke-dasharray="80,203,80,203,203,203" d="M 3131,1748 L 3223,3111 3346,3822 3469,4729 3592,6062 3715,6965 3838,7735 3962,9151 4085,10002 4208,11361 4331,12082 4454,12561 4577,13105 4700,13685 4823,14048 4946,14572 5069,15199 5192,15457 5315,15694 5438,15969 5561,16309 5685,16554 5808,16839 5931,16911 6054,17270 6177,17334 6300,17550 6423,17747 6546,18111 6669,18239 6792,18396 6915,18488 7038,18594 7161,18677 7284,18885 7408,19013 7531,19155 7654,19225 7777,19302 7900,19364 8023,19692 8146,19818 8269,19826 8392,19889 8515,20017 8638,20036 8761,20097 8884,19875 9007,19850 9131,19868 9254,19857 9377,19901 9500,19971 9623,20012 9746,19965 9869,20000 9992,20089 10115,20178 10238,20263 10361,20255 10484,20205 10607,20265 10730,20100 10854,20134 10977,20144 11100,19979 11223,20010 11346,19977 11469,19991 11592,20191 11715,20227 11837,20286 11960,20465 12083,20469 12206,20576 12329,20582 12452,20632 12576,20685 12699,20678 12822,20688 12945,20719 13068,20704 13191,20716 13314,20658 13437,20657 13560,20657 13683,20650 13806,20639 13929,20617 14052,20635 14175,20702 14299,20714 14422,20714 14545,20635 14668,20594 14791,20609 14914,20602 15037,20586 15160,20503 15283,20224 15406,20305 15529,20339 15652,20388 15775,20338 15898,20359 16022,20417 16145,20734 16268,20750 16391,20778 16514,20750 16637,20829 16760,20812 16883,20815 17006,20808 17129,20826 17252,20851 17375,20852 17498,20830 17621,20889 17745,20936 17868,20973 17991,20762 18114,20786 18237,20824 18360,20889 18483,20885"/>
 <path fill="none" stroke="rgb(0,223,255)" stroke-width="80" stroke-linejoin="round" stroke-dasharray="158,102" d="M 5851,1748 L 5931,2880 6054,1961 6177,1917 6300,2548 6423,3557 6546,4388 6669,5286 6792,5941 6915,6582 7038,7221 7161,8045 7284,8660 7408,8536 7531,8498 7654,8532 7777,8890 7900,8436 8023,8922 8146,8609 8269,8903 8392,8841 8515,8420 8638,8498 8761,9328 8884,8921 9007,9494 9131,9885 9254,10518 9377,12077 9500,12376 9623,12738 9746,13476 9869,13931 9992,13930 10115,14195 10238,14130 10361,15081 10484,15384 10607,15309 10730,15381 10854,15805 10977,15940 11100,16158 11223,15981 11346,16171 11469,16613 11592,17033 11715,17432 11837,18091 11960,18242 12083,18201 12206,18309 12329,18384 12452,18472 12576,18251 12699,18023 12822,18132 12945,18345 13068,18249 13191,18097 13314,17981 13437,18300 13560,18248 13683,18350 13806,18344 13929,18428 14052,18625 14175,18812 14299,18952 14422,19061 14545,19083 14668,19412 14791,19593 14914,19700 15037,19839 15160,19854 15283,19977 15406,20148 15529,20096 15652,20185 15775,20208 15898,20261 16022,20295 16145,20395 16268,20405 16391,20606 16514,20646 16637,20683 16760,20730 16883,20855 17006,20923 17129,21083 17252,20994 17375,20988 17498,21029 17621,21096 17745,21148 17868,21142 17991,21176 18114,21228 18237,21262 18360,21319 18483,21340"/>
 <path fill="none" stroke="rgb(141,40,30)" stroke-width="80" stroke-linejoin="round" stroke-dasharray="80,40" d="M 3805,1748 L 3838,2214 3962,4054 4085,4860 4208,6693 4331,8459 4454,8850 4577,9805 4700,10771 4823,11313 4946,12009 5069,12672 5192,13003 5315,13403 5438,13753 5561,14055 5685,14535 5808,15106 5931,15431 6054,15754 6177,16015 6300,16345 6423,16972 6546,17512 6669,17743 6792,17903 6915,18148 7038,18277 7161,18464 7284,18595 7408,18785 7531,19147 7654,19422 7777,19516 7900,19616 8023,19766 8146,20220 8269,20300 8392,20359 8515,20443 8638,20543 8761,20570 8884,20476 9007,20348 9131,20606 9254,20709 9377,20830 9500,20973 9623,21045 9746,21168 9869,21229 9992,21286 10115,21359 10238,21422 10361,21405 10484,21466 10607,21522 10730,21576 10854,21653 10977,21733 11100,21805 11223,21870 11346,21883 11469,21890 11592,21899 11715,21905 11837,21968 11960,21997 12083,22045 12206,22060 12329,22072 12452,22121 12576,22156 12699,22104 12822,22097 12945,22181 13068,22167 13191,22175 13314,22016 13437,21968 13560,21880 13683,21829 13806,21692 13929,21645 14052,21637 14175,21752 14299,21724 14422,21756 14545,21737 14668,21689 14791,21696 14914,21662 15037,21616 15160,21553 15283,21513 15406,21463 15529,21466 15652,21462 15775,21282 15898,21220 16022,21171 16145,21160 16268,21141 16391,21094 16514,21122 16637,21311 16760,21327 16883,21366 17006,21373 17129,21390 17252,21415 17375,21390 17498,21401 17621,21505 17745,21485 17868,21547 17991,21535 18114,21561 18237,21552 18360,21579 18483,21522"/>
 <path fill="none" stroke="rgb(255,0,0)" stroke-width="80" stroke-linejoin="round" stroke-dasharray="158,102" d="M 4127,1748 L 4208,3060 4331,4710 4454,6492 4577,8034 4700,9365 4823,10570 4946,11548 5069,12464 5192,13342 5315,14287 5438,15051 5561,15788 5685,16361 5808,17061 5931,17705 6054,18204 6177,18477 6300,18681 6423,18835 6546,18990 6669,19084 6792,19141 6915,19303 7038,19388 7161,19718 7284,20047 7408,20481 7531,20825 7654,21081 7777,21200 7900,21350 8023,21386 8146,21400 8269,21298 8392,21281 8515,21285 8638,21361 8761,21447 8884,21519 9007,21591 9131,21703 9254,21802 9377,21909 9500,21966 9623,21993 9746,22039 9869,22083 9992,22156 10115,22200 10238,22233 10361,22303 10484,22383 10607,22396 10730,22409 10854,22395 10977,22362 11100,22293 11223,22224 11346,22155 11469,22106 11592,22021 11715,21982 11837,21989 11960,22031 12083,22081 12206,22158 12329,22216 12452,22318 12576,22367 12699,22406 12822,22410 12945,22388 13068,22357 13191,22377 13314,22355 13437,22334 13560,22329 13683,22300 13806,22296 13929,22300 14052,22279 14175,22275 14299,22321 14422,22300 14545,22346 14668,22383 14791,22411 14914,22430 15037,22450 15160,22437 15283,22465 15406,22476 15529,22487 15652,22482 15775,22485 15898,22512 16022,22554 16145,22581 16268,22583 16391,22562 16514,22557 16637,22545 16760,22524 16883,22488 17006,22498 17129,22516 17252,22542 17375,22568 17498,22608 17621,22633 17745,22644 17868,22593 17991,22543 18114,22508 18237,22481 18360,22424 18483,22390"/>
 <path fill="none" stroke="rgb(89,131,176)" stroke-width="80" stroke-linejoin="round" d="M 3076,1748 L 3100,2392 3223,5766 3346,5012 3469,7036 3592,10902 3715,8225 3838,10022 3962,12741 4085,11455 4208,13203 4331,13655 4454,13977 4577,17692 4700,17723 4823,18805 4946,19867 5069,21048 5192,21287 5315,21287 5438,21541 5561,21550 5685,21560 5808,22000 5931,21793 6054,21801 6177,21801 6300,21418 6423,20822 6546,20834 6669,20447 6792,20659 6915,20870 7038,20870 7161,21703 7284,22495 7408,22499 7531,22885 7654,22885 7777,22885 7900,22885 8023,23074 8146,23074 8269,23261 8392,23262 8515,23262 8638,23262 8761,23262 8884,23262 9007,23077 9131,23077 9254,23079 9377,23079 9500,23079 9623,23079 9746,22895 9869,23080 9992,23080 10115,22717 10238,22717 10361,22717 10484,22717 10607,22902 10730,22902 10854,22720 10977,23088 11100,23088 11223,23088 11346,23088 11469,22370 11592,22370 11715,22375 11837,22557 11960,22557 12083,22557 12206,22557 12329,23271 12452,23097 12576,23098 12699,23098 12822,23098 12945,23098 13068,23098 13191,23098 13314,23273 13437,23447 13560,23274 13683,23274 13806,23274 13929,23274 14052,23101 14175,23101 14299,23101 14422,23102 14545,22930 14668,22930 14791,22930 14914,23103 15037,23103 15160,23103 15283,23276 15406,23447 15529,23447 15652,23447 15775,23447 15898,23447 16022,23447 16145,23447 16268,23447 16391,23447 16514,23447 16637,23276 16760,23276 16883,23276 17006,23276 17129,23276 17252,23276 17375,23276 17498,23447 17621,23447 17745,23447 17868,23277 17991,22599 18114,22599 18237,22599 18360,22599 18483,22429"/>
 <path fill="none" stroke="rgb(255,211,32)" stroke-width="80" stroke-linejoin="round" d="M 3243,1748 L 3346,3753 3469,5953 3592,8352 3715,7969 3838,12664 3962,12467 4085,12918 4208,13161 4331,14575 4454,15513 4577,16959 4700,17833 4823,19482 4946,18073 5069,18174 5192,18071 5315,17923 5438,17803 5561,17711 5685,16755 5808,17194 5931,17479 6054,17955 6177,17846 6300,18280 6423,19056 6546,18808 6669,19749 6792,19949 6915,20302 7038,20657 7161,21138 7284,20533 7408,21351 7531,21521 7654,20945 7777,20807 7900,20971 8023,20524 8146,21291 8269,21591 8392,21603 8515,22473 8638,22755 8761,22758 8884,22899 9007,22625 9131,22351 9254,22494 9377,22358 9500,22358 9623,22497 9746,22500 9869,22775 9992,22779 10115,23180 10238,23181 10361,23314 10484,23181 10607,23182 10730,23050 10854,23052 10977,22653 11100,22655 11223,22388 11346,22523 11469,22657 11592,22398 11715,22143 11837,22017 11960,21633 12083,21767 12206,21896 12329,21896 12452,22166 12576,22687 12699,22440 12822,22949 12945,23198 13068,23447 13191,23197 13314,23198 13437,23198 13519,23447"/>
 <path fill="none" stroke="rgb(255,211,32)" stroke-width="80" stroke-linejoin="round" d="M 13745,23447 L 13806,23323 13929,22948 14052,23074 14175,22952 14299,22952 14422,23077 14545,22707 14668,22707 14791,22583 14914,22709 15037,22835 15160,22346 15283,22224 15406,22113 15529,22113 15652,21996 15775,21754 15898,21759 16022,22254 16145,21782 16268,21918 16391,21800 16514,21926 16637,21934 16760,22402 16883,21822 17006,22187 17129,22651 17252,22767 17375,22768 17498,22997 17621,22540 17745,23111 17868,23335 17991,22889 18114,22777 18237,22668 18360,22445 18483,22337"/>
 <path fill="none" stroke="rgb(0,169,51)" stroke-width="80" stroke-linejoin="round" d="M 3047,1748 L 3100,4371 3223,6529 3346,8210 3469,9796 3592,10800 3715,11418 3838,11354 3962,10527 4085,11592 4208,13478 4331,14335 4454,14805 4577,16152 4700,16552 4823,17490 4946,18292 5069,18615 5192,18588 5315,18962 5438,19415 5561,20624 5685,21351 5808,21589 5931,21604 6054,22063 6177,21995 6300,22000 6423,22229 6546,22304 6669,22235 6792,22457 6915,22459 7038,22674 7161,22817 7284,22820 7408,22821 7531,22961 7654,22963 7777,22757 7900,22688 8023,22619 8146,22691 8269,22624 8392,21047 8515,21191 8638,21477 8761,21548 8884,21618 9007,21692 9131,21764 9254,23317 9377,23187 9500,23187 9623,23187 9746,23187 9869,23252 9992,23252 10115,23187 10238,23253 10361,23124 10484,23124 10607,23059 10730,22865 10854,22544 10977,22545 11100,22611 11223,22741 11346,22613 11469,22678 11592,22682 11715,23067 11837,22816 11960,22816 12083,22690 12206,22692 12329,22629 12452,22695 12576,22695 12699,23011 12822,23011 12945,23137 13068,23199 13191,23261 13314,23385 13437,23385 13560,23385 13683,23385 13806,23385 13929,23324 14052,23324 14175,23262 14299,23201 14422,23139 14545,23139 14668,23139 14791,23263 14914,23263 15037,23385 15160,23385 15283,23447 15406,23447 15529,23385 15652,23385 15775,23324 15898,23263 16022,23141 16145,23019 16268,23019 16391,23081 16514,23081 16637,23142 16760,23081 16883,23265 17006,23386 17129,23326 17252,23265 17375,23265 17498,23144 17621,23205 17745,23145 17868,23084 17991,23145 18114,23025 18237,23025 18360,23086 18483,23086"/>
 <path fill="none" stroke="rgb(0,0,255)" stroke-width="80" stroke-linejoin="round" stroke-dasharray="51,127,51,127,254,127,254,127,254,127" d="M 2682,1748 L 2731,2189 2854,3961 2977,6725 3100,6642 3223,8130 3346,9072 3469,9935 3592,10798 3715,11444 3838,11880 3962,13444 4085,14240 4208,15058 4331,15326 4454,15839 4577,16294 4700,16847 4823,17252 4946,17825 5069,18490 5192,18711 5315,18973 5438,19263 5561,19569 5685,19727 5808,19896 5931,19821 6054,20208 6177,20319 6300,20465 6423,20536 6546,20875 6669,20932 6792,21136 6915,21253 7038,21153 7161,21277 7284,21579 7408,21709 7531,21931 7654,21847 7777,21875 7900,22097 8023,22857 8146,22703 8269,22789 8392,22848 8515,23090 8638,23119 8761,23158 8884,22538 9007,22675 9131,22712 9254,22747 9377,22768 9500,22819 9623,22837 9746,22824 9869,22830 9992,22863 10115,22899 10238,22950 10361,22957 10484,22963 10607,22994 10730,23015 10854,23011 10977,22996 11100,22604 11223,22623 11346,22639 11469,22650 11592,22669 11715,22723 11837,22748 11960,23136 12083,23165 12206,23165 12329,23155 12452,23164 12576,23155 12699,23149 12822,23172 12945,23161 13068,23166 13191,23178 13314,23193 13437,23203 13560,23208 13683,23215 13806,23222 13929,23225 14052,23226 14175,23237 14299,23214 14422,23224 14545,23227 14668,23230 14791,23231 14914,23229 15037,23235 15160,23260 15283,23263 15406,23263 15529,23262 15652,23254 15775,23269 15898,23260 16022,23258 16145,23256 16268,23251 16391,23246 16514,23247 16637,23234 16760,23221 16883,23216 17006,23214 17129,23213 17252,23204 17375,23203 17498,23186 17621,23206 17745,23193 17868,23180 17991,23175 18114,23126 18237,23124 18360,23129 18483,23114"/>
 <path fill="none" stroke="rgb(128,0,128)" stroke-width="80" stroke-linejoin="round" d="M 2351,1748 L 2362,2062 2485,4522 2608,6523 2731,7764 2854,9085 2977,11053 3100,11958 3223,12579 3346,12864 3469,14464 3592,15265 3715,15879 3838,15692 3962,16466 4085,17061 4208,17974 4331,17256 4454,17639 4577,17891 4700,18267 4823,18335 4946,18773 5069,19556 5192,19281 5315,19565 5438,19928 5561,20184 5685,20618 5808,20746 5931,20341 6054,21064 6177,21115 6300,21200 6423,21232 6546,21353 6669,21364 6792,21532 6915,21668 7038,21911 7161,21881 7284,22063 7408,22191 7531,22463 7654,21599 7777,21691 7900,21574 7971,23447"/>
 <path fill="none" stroke="rgb(128,0,128)" stroke-width="80" stroke-linejoin="round" d="M 8864,23447 L 8884,22973 9007,23430 9131,23429 9254,23424 9377,23426 9500,23431 9623,23432 9746,23432 9869,23432 9992,23434 10115,23442 10238,23443 10361,23445 10484,23447 10607,23447 10730,23447 10854,23447 10977,23447 11100,21561 11223,21550 11346,21548 11469,21546 11592,21545 11715,21542 11837,21537 11960,23411 12083,23417 12206,23416 12329,23413 12452,23401 12576,23390 12699,23388 12822,23375 12945,23379 13068,23382 13191,23382 13314,23390 13437,23398 13560,23396 13683,23419 13806,23419 13929,23419 14052,23419 14175,23421 14299,23421 14422,23424 14545,23421 14668,23421 14791,23421 14914,23422 15037,23424 15160,23427 15283,23427 15406,23428 15529,23428 15652,23428 15775,23428 15898,23428 16022,23424 16145,23425 16268,23427 16391,23427 16514,23427 16637,23388 16760,23352 16883,23358 17006,23360 17129,23358 17252,23358 17375,23358 17498,23288 17621,23320 17745,23325 17868,23287 17991,23273 18114,23273 18237,23273 18360,23340 18483,23311"/>
 <path fill="none" stroke="rgb(85,48,141)" stroke-width="80" stroke-linejoin="round" stroke-dasharray="80,40" d="M 4878,1748 L 4946,2745 5069,2940 5192,4659 5315,5551 5438,5696 5561,5887 5685,6789 5808,7307 5931,9214 6054,10029 6177,9770 6300,11391 6423,11950 6546,12920 6669,13402 6792,14373 6915,14655 7038,15516 7161,16277 7284,17485 7408,17647 7531,18208 7654,18242 7777,18463 7900,18807 8023,18386 8146,18227 8269,18323 8392,18495 8515,18649 8638,18795 8761,17867 8884,18562 9007,18787 9131,19009 9254,18878 9377,19053 9500,19257 9623,20486 9746,20480 9869,20591 9992,20818 10115,21456 10238,21510 10361,21605 10484,21568 10607,21702 10730,21807 10854,21967 10977,21887 11100,21935 11223,21946 11346,22052 11469,22043 11592,22182 11715,22235 11837,22377 11960,22605 12083,22883 12206,22935 12329,22762 12452,22743 12576,22766 12699,22773 12822,22682 12945,22657 13068,22653 13191,22843 13314,22870 13437,22906 13560,22963 13683,23004 13806,23019 13929,23000 14052,23010 14175,23050 14299,23096 14422,23062 14545,23087 14668,23082 14791,23117 14914,23122 15037,23137 15160,23172 15283,23231 15406,23256 15529,23266 15652,23261 15775,23237 15898,23208 16022,23208 16145,23179 16268,23169 16391,23169 16514,23174 16637,23204 16760,23214 16883,23214 17006,23258 17129,23268 17252,23263 17375,23263 17498,23258 17621,23287 17745,23244 17868,23206 17991,23201 18114,23216 18237,23225 18360,23250 18483,23197"/>
 <path fill="none" stroke="rgb(255,128,0)" stroke-width="80" stroke-linejoin="round" d="M 3597,1748 L 3715,3385 3838,4476 3962,5670 4085,7784 4208,8361 4331,9987 4454,10463 4577,11430 4700,12694 4823,13305 4946,13718 5069,14754 5192,15477 5315,15798 5438,15988 5561,16695 5685,17101 5808,17540 5931,17880 6054,18476 6177,18576 6300,18752 6423,19031 6546,19415 6669,19626 6792,20018 6915,19859 7038,20091 7161,20168 7284,20384 7408,20584 7531,20719 7654,20826 7777,21103 7900,20708 8023,20773 8146,21277 8269,21182 8392,21113 8515,21153 8638,21247 8761,21655 8884,21681 9007,21545 9131,21766 9254,22031 9377,22060 9500,22078 9623,22088 9746,22136 9869,22205 9992,22316 10115,22381 10238,22531 10361,22575 10484,22607 10607,22628 10730,22718 10854,22781 10977,22792 11100,22846 11223,22887 11346,22883 11469,22901 11592,22931 11715,22958 11837,22924 11960,22933 12083,22967 12206,22968 12329,22959 12452,23004 12576,22994 12699,23057 12822,23088 12945,23097 13068,23110 13191,23121 13314,23122 13437,23165 13560,23176 13683,23192 13806,23209 13929,23219 14052,23221 14175,23232 14299,23265 14422,23272 14545,23281 14668,23290 14791,23287 14914,23287 15037,23308 15160,23317 15283,23333 15406,23327 15529,23321 15652,23324 15775,23331 15898,23336 16022,23318 16145,23327 16268,23340 16391,23342 16514,23345 16637,23347 16760,23351 16883,23372 17006,23353 17129,23361 17252,23372 17375,23372 17498,23354 17621,23359 17745,23353 17868,23353 17991,23354 18114,23354 18237,23354 18360,23370 18483,23371"/>
 <path fill="none" stroke="rgb(52,42,6)" stroke-width="80" stroke-linejoin="round" d="M 3863,1748 L 3962,6619 4085,7135 4208,9406 4331,9646 4454,10293 4577,12165 4700,12401 4823,13680 4946,15288 5069,16093 5192,16542 5315,16983 5438,17304 5561,18779 5685,18024 5808,18407 5931,18460 6054,18751 6177,19003 6300,19301 6423,18823 6546,19951 6669,20558 6792,21210 6915,21210 7038,21193 7161,21509 7284,21523 7408,21884 7531,21690 7654,21627 7777,21681 7900,21697 8023,21787 8146,21884 8269,21933 8392,22034 8515,21991 8638,22033 8761,22100 8884,22162 9007,22456 9131,22550 9254,22601 9377,22661 9500,22719 9623,22710 9746,22736 9869,22570 9992,22690 10115,22758 10238,22820 10361,22846 10484,22867 10607,22887 10730,23029 10854,22956 10977,22937 11100,22933 11223,22943 11346,22983 11469,22993 11592,22984 11715,23069 11837,23129 11960,23066 12083,23090 12206,23090 12329,23071 12452,23076 12576,23121 12699,23126 12822,23229 12945,23195 13068,23180 13191,23224 13314,23244 13437,23200 13560,23201 13683,23191 13806,23206 13929,23216 14052,23196 14175,23225 14299,23283 14422,23303 14545,23327 14668,23346 14791,23346 14914,23351 15037,23346 15160,23341 15283,23337 15406,23294 15529,23289 15652,23294 15775,23299 15898,23294 16022,23289 16145,23285 16268,23318 16391,23304 16514,23304 16637,23309 16760,23294 16883,23237 17006,23271 17129,23219 17252,23224 17375,23219 17498,23214 17621,23233 17745,23286 17868,23276 17991,23281 18114,23286 18237,23291 18360,23291 18483,23291"/>
 <path fill="none" stroke="rgb(180,120,4)" stroke-width="80" stroke-linejoin="round" d="M 2912,1748 L 2977,2923 3100,5331 3223,8065 3346,7809 3469,9092 3592,10412 3715,11417 3838,13141 3962,12913 4085,13577 4208,14792 4331,14415 4454,15256 4577,15935 4700,15939 4823,16778 4946,17058 5069,17308 5192,17528 5315,17070 5438,16738 5561,16547 5685,17274 5808,17493 5931,17597 6054,18787 6177,19411 6300,19925 6423,21376 6546,21131 6669,21504 6792,22199 6915,22044 7038,21970 7161,22225 7284,21470 7408,21737 7531,21507 7654,21507 7777,22008 7900,22256 8023,22259 8146,22501 8269,22585 8392,22905 8515,22905 8638,22673 8761,22520 8884,22444 9007,22136 9131,22294 9254,22377 9377,22071 9500,22230 9623,22312 9746,22166 9869,22474 9992,22474 10115,22626 10238,22854 10361,22707 10484,22857 10607,23081 10730,23081 10854,23081 10977,22934 11100,23008 11223,23228 11346,23228 11469,23156 11592,23084 11715,23084 11837,23230 11960,23157 12083,23157 12206,23157 12329,23230 12452,23303 12576,23231 12699,23231 12822,23303 12945,23303 13068,23303 13191,23303 13314,23160 13437,23232 13560,23232 13683,23232 13806,23232 13929,23232 14052,23232 14175,23375 14299,23375 14422,23375 14545,23304 14668,23304 14791,23304 14914,23375 15037,23375 15160,23375 15283,23304 15406,23304 15529,23304 15652,23304 15775,23304 15898,23304 16022,23233 16145,23234 16268,23305 16391,23305 16514,23305 16637,23234 16760,23234 16883,23305 17006,23305 17129,23305 17252,23305 17375,23305 17498,23165 17621,23094 17745,23094 17868,23165 17991,23165 18114,23165 18237,23165 18360,23376 18483,23447"/>
 <path fill="none" stroke="rgb(112,110,12)" stroke-width="80" stroke-linejoin="round" stroke-dasharray="80,40" d="M 3475,1748 L 3592,6554 3715,8733 3838,10273 3962,11622 4085,12349 4208,14175 4331,16057 4454,14787 4577,15360 4700,16232 4823,16554 4946,17339 5069,17853 5192,18241 5315,18564 5438,18904 5561,19065 5685,18925 5808,19247 5931,19399 6054,19565 6177,19795 6300,20105 6423,20249 6546,20911 6669,21042 6792,21153 6915,21249 7038,21338 7161,21526 7284,21565 7408,21711 7531,21829 7654,22089 7777,22072 7900,22139 8023,22125 8146,22343 8269,22247 8392,22333 8515,22331 8638,22487 8761,22526 8884,22479 9007,22491 9131,22681 9254,22545 9377,22613 9500,22669 9623,22622 9746,22738 9869,22765 9992,22735 10115,22876 10238,22748 10361,22792 10484,22888 10607,22924 10730,22896 10854,22973 10977,22983 11100,23169 11223,23085 11346,23073 11469,23068 11592,23059 11715,23058 11837,23035 11960,23039 12083,23125 12206,23168 12329,23190 12452,23178 12576,23200 12699,23227 12822,23153 12945,23149 13068,23089 13191,23096 13314,23161 13437,23165 13560,23150 13683,23185 13806,23195 13929,23252 14052,23209 14175,23224 14299,23210 14422,23227 14545,23269 14668,23265 14791,23252 14914,23298 15037,23297 15160,23271 15283,23249 15406,23269 15529,23273 15652,23266 15775,23261 15898,23269 16022,23313 16145,23328 16268,23323 16391,23332 16514,23340 16637,23348 16760,23351 16883,23319 17006,23350 17129,23352 17252,23348 17375,23362 17498,23364 17621,23364 17745,23390 17868,23382 17991,23358 18114,23360 18237,23359 18360,23360 18483,23354"/>
 <path fill="none" stroke="rgb(241,13,12)" stroke-width="80" stroke-linejoin="round" d="M 4261,1748 L 4331,3887 4454,5017 4577,4384 4700,8940 4823,11684 4946,11314 5069,13343 5192,14002 5315,13853 5438,13999 5561,14250 5685,15003 5808,15827 5931,14907 6054,14487 6177,14601 6300,15813 6423,16467 6546,15788 6669,16465 6792,17008 6915,17327 7038,17337 7161,17555 7284,17814 7408,18793 7531,19241 7654,20125 7777,19690 7900,19683 8023,19562 8146,19017 8269,19040 8392,19018 8515,18747 8638,19065 8761,19137 8884,19418 9007,19838 9131,20135 9254,20435 9377,20563 9500,20869 9623,20840 9746,20578 9869,21028 9992,21029 10115,21049 10238,21435 10361,21414 10484,21444 10607,21625 10730,21404 10854,21220 10977,21292 11100,21202 11223,21354 11346,21336 11469,21397 11592,21496 11715,22000 11837,21926 11960,21959 12083,21994 12206,22011 12329,21854 12452,22000 12576,22105 12699,21945 12822,22296 12945,22296 13068,22296 13191,22441 13314,22519 13437,22541 13560,22733 13683,22598 13806,22598 13929,22598 14052,22624 14175,22666 14299,22734 14422,22713 14545,22716 14668,22716 14791,22716 14914,22639 15037,22656 15160,22707 15283,22802 15406,22844 15529,22844 15652,22844 15775,22977 15898,23016 16022,22964 16145,22965 16268,23096 16391,23096 16514,23096 16637,23111 16760,23104 16883,23219 17006,23242 17129,23295 17252,23295 17375,23295 17498,23280 17621,23273 17745,23341 17868,23371 17991,23296 18114,23296 18237,23296 18360,23288 18483,23296"/>
 <path fill="none" stroke="rgb(0,255,0)" stroke-width="80" stroke-linejoin="round" d="M 2828,1748 L 2854,2286 2977,4787 3100,6766 3223,8203 3346,9371 3469,9539 3592,12185 3715,12350 3838,12209 3962,13989 4085,14367 4208,14878 4331,16118 4454,16686 4577,16279 4700,16957 4823,17493 4946,18179 5069,18940 5192,19022 5315,19349 5438,20345 5561,20994 5685,21196 5808,21623 5931,21739 6054,21772 6177,21698 6300,21963 6423,21706 6546,21884 6669,21960 6792,22137 6915,22284 7038,22310 7161,22482 7284,22889 7408,22936 7531,22844 7654,22869 7777,22846 7900,22870 8023,22825 8146,22896 8269,22873 8392,22966 8515,23082 8638,23128 8761,23128 8884,23288 9007,23333 9131,23356 9254,23401 9377,23401 9500,23401 9623,23424 9746,23379 9869,23130 9992,23108 10115,23085 10238,23062 10361,23062 10484,23062 10607,23085 10730,22998 10854,22998 10977,23021 11100,23043 11223,23043 11346,23043 11469,23066 11592,23402 11715,23402 11837,23402 11960,23313 12083,23313 12206,23313 12329,23313 12452,23291 12576,23291 12699,23291 12822,23380 12945,23380 13068,23380 13191,23380 13314,23380 13437,23424 13560,23424 13683,23424 13806,23380 13929,23380 14052,23380 14175,23402 14299,23402 14422,23380 14545,23380 14668,23424 14791,23424 14914,23380 15037,23358 15160,23358 15283,23314 15406,23270 15529,23270 15652,23270 15775,23292 15898,23314 16022,23292 16145,23337 16268,23359 16391,23359 16514,23359 16637,23381 16760,23381 16883,23337 17006,23337 17129,23337 17252,23337 17375,23337 17498,23315 17621,23249 17745,23293 17868,23315 17991,23337 18114,23337 18237,23337 18360,23359 18483,23403"/>
 <path fill="none" stroke="rgb(0,0,255)" stroke-width="80" stroke-linejoin="round" stroke-dasharray="158,158" d="M 1377,10014 L 1500,10858 1623,12518 1746,13501 1869,14595 1992,15755 2115,15409 2239,14240 2362,14458 2485,14966 2608,15110 2731,16095 2854,16213 2977,16665 3100,18022 3223,18128 3346,18856 3469,19127 3592,19390 3715,19647 3838,20514 3962,20939 4085,21362 4208,21560 4331,21576 4454,21777 4577,21975 4700,21798 4823,21805 4946,22000 5069,21638 5192,22012 5315,21839 5438,21668 5561,21859 5685,21865 5808,22047 5931,22405 6054,22405 6177,22758 6300,22763 6423,22766 6546,22768 6669,22768 6792,22429 6915,22429 7038,22260 7161,22605 7284,22776 7408,22779 7531,22779 7654,22784 7777,22784 7900,22786 8023,22456 8146,22456 8269,22625 8392,22625 8515,22957 8638,22794 8761,22796 8884,22962 9007,22801 9131,22801 9254,22801 9377,22801 9500,22964 9623,23126 9746,23127 9869,22970 9992,22970 10115,22811 10238,22811 10361,22811 10484,22811 10607,22813 10730,22975 10854,22818 10977,22976 11100,22976 11223,22976 11346,22976 11469,22978 11592,23135 11715,23137 11837,23137 11960,23137 12083,23137 12206,23137 12329,23292 12452,23292 12576,23447 12699,23447 12822,23293 12945,23293 13068,23139 13191,22985 13314,22985 13437,22677 13560,22523 13683,22680 13806,22526 13929,22682 14052,22837 14175,22837 14299,22842 14422,22693 14545,22542 14668,22545 14791,22395 14914,22395 15037,22245 15160,22552 15283,22706 15406,22856 15529,23005 15652,23007 15775,22860 15898,23008 16022,23008 16145,23010 16268,23010 16391,23010 16514,23156 16637,23302 16760,23157 16883,23157 17006,23158 17129,23014 17252,22870 17375,22870 17498,22870 17621,23015 17745,23015 17868,23160 17991,23304 18114,23447 18237,23447 18360,23304 18483,23304"/>
 <path fill="none" stroke="rgb(0,127,255)" stroke-width="80" stroke-linejoin="round" d="M 1815,1748 L 1869,2881 1992,4981 2115,7038 2239,8555 2362,9836 2485,11126 2608,11847 2731,12488 2854,13092 2977,13462 3100,13680 3223,14208 3346,14476 3469,15067 3592,15244 3715,15708 3838,16069 3962,16549 4085,16832 4208,17295 4331,17548 4454,17973 4577,18294 4700,18673 4823,18953 4946,19339 5069,19658 5192,19620 5315,19798 5438,20065 5561,20344 5685,20308 5808,20357 5931,20426 6054,20899 6177,20928 6300,20969 6423,21084 6546,21367 6669,21404 6792,21422 6915,21493 7038,21532 7161,21656 7284,21680 7408,21739 7531,21900 7654,22065 7777,22118 7900,22254 8023,22267 8146,22386 8269,22450 8392,22570 8515,22631 8638,22644 8761,22613 8884,22657 9007,22689 9131,22752 9254,22730 9377,22735 9500,22788 9623,22818 9746,22813 9869,22782 9992,22784 10115,22831 10238,22870 10361,22863 10484,22875 10607,22926 10730,22985 10854,23022 10977,23006 11100,23018 11223,23056 11346,23081 11469,23085 11592,23106 11715,23200 11837,23240 11960,23262 12083,23314 12206,23316 12329,23338 12452,23331 12576,23266 12699,23271 12822,23290 12945,23274 13068,23293 13191,23290 13314,23282 13437,23289 13560,23312 13683,23316 13806,23333 13929,23331 14052,23325 14175,23341 14299,23343 14422,23333 14545,23335 14668,23326 14791,23334 14914,23334 15037,23336 15160,23341 15283,23354 15406,23361 15529,23372 15652,23370 15775,23380 15898,23385 16022,23388 16145,23397 16268,23392 16391,23392 16514,23388 16637,23380 16760,23387 16883,23382 17006,23379 17129,23386 17252,23376 17375,23384 17498,23393 17621,23392 17745,23392 17868,23392 17991,23392 18114,23213 18237,23211 18360,23211 18483,23212"/>
 <text class="TextShape" transform="rotate(-90 1471 24375)"><tspan class="TextParagraph" font-family="Liberation Sans, sans-serif" font-size="282px" font-weight="400"><tspan class="TextPosition" x="1471" y="24375"><tspan fill="rgb(0,0,0)" stroke="none">01.04</tspan></tspan></tspan></text>
 <text class="TextShape" transform="rotate(-90 1840 24375)"><tspan class="TextParagraph" font-family="Liberation Sans, sans-serif" font-size="282px" font-weight="400"><tspan class="TextPosition" x="1840" y="24375"><tspan fill="rgb(0,0,0)" stroke="none">04.04</tspan></tspan></tspan></text>
 <text class="TextShape" transform="rotate(-90 2209 24375)"><tspan class="TextParagraph" font-family="Liberation Sans, sans-serif" font-size="282px" font-weight="400"><tspan class="TextPosition" x="2209" y="24375"><tspan fill="rgb(0,0,0)" stroke="none">07.04</tspan></tspan></tspan></text>
 <text class="TextShape" transform="rotate(-90 2579 24375)"><tspan class="TextParagraph" font-family="Liberation Sans, sans-serif" font-size="282px" font-weight="400"><tspan class="TextPosition" x="2579" y="24375"><tspan fill="rgb(0,0,0)" stroke="none">10.04</tspan></tspan></tspan></text>
 <text class="TextShape" transform="rotate(-90 2948 24375)"><tspan class="TextParagraph" font-family="Liberation Sans, sans-serif" font-size="282px" font-weight="400"><tspan class="TextPosition" x="2948" y="24375"><tspan fill="rgb(0,0,0)" stroke="none">13.04</tspan></tspan></tspan></text>
 <text class="TextShape" transform="rotate(-90 3317 24375)"><tspan class="TextParagraph" font-family="Liberation Sans, sans-serif" font-size="282px" font-weight="400"><tspan class="TextPosition" x="3317" y="24375"><tspan fill="rgb(0,0,0)" stroke="none">16.04</tspan></tspan></tspan></text>
 <text class="TextShape" transform="rotate(-90 3686 24375)"><tspan class="TextParagraph" font-family="Liberation Sans, sans-serif" font-size="282px" font-weight="400"><tspan class="TextPosition" x="3686" y="24375"><tspan fill="rgb(0,0,0)" stroke="none">19.04</tspan></tspan></tspan></text>
 <text class="TextShape" transform="rotate(-90 4056 24375)"><tspan class="TextParagraph" font-family="Liberation Sans, sans-serif" font-size="282px" font-weight="400"><tspan class="TextPosition" x="4056" y="24375"><tspan fill="rgb(0,0,0)" stroke="none">22.04</tspan></tspan></tspan></text>
 <text class="TextShape" transform="rotate(-90 4425 24375)"><tspan class="TextParagraph" font-family="Liberation Sans, sans-serif" font-size="282px" font-weight="400"><tspan class="TextPosition" x="4425" y="24375"><tspan fill="rgb(0,0,0)" stroke="none">25.04</tspan></tspan></tspan></text>
 <text class="TextShape" transform="rotate(-90 4794 24375)"><tspan class="TextParagraph" font-family="Liberation Sans, sans-serif" font-size="282px" font-weight="400"><tspan class="TextPosition" x="4794" y="24375"><tspan fill="rgb(0,0,0)" stroke="none">28.04</tspan></tspan></tspan></text>
 <text class="TextShape" transform="rotate(-90 5163 24375)"><tspan class="TextParagraph" font-family="Liberation Sans, sans-serif" font-size="282px" font-weight="400"><tspan class="TextPosition" x="5163" y="24375"><tspan fill="rgb(0,0,0)" stroke="none">01.05</tspan></tspan></tspan></text>
 <text class="TextShape" transform="rotate(-90 5532 24375)"><tspan class="TextParagraph" font-family="Liberation Sans, sans-serif" font-size="282px" font-weight="400"><tspan class="TextPosition" x="5532" y="24375"><tspan fill="rgb(0,0,0)" stroke="none">04.05</tspan></tspan></tspan></text>
 <text class="TextShape" transform="rotate(-90 5902 24375)"><tspan class="TextParagraph" font-family="Liberation Sans, sans-serif" font-size="282px" font-weight="400"><tspan class="TextPosition" x="5902" y="24375"><tspan fill="rgb(0,0,0)" stroke="none">07.05</tspan></tspan></tspan></text>
 <text class="TextShape" transform="rotate(-90 6271 24375)"><tspan class="TextParagraph" font-family="Liberation Sans, sans-serif" font-size="282px" font-weight="400"><tspan class="TextPosition" x="6271" y="24375"><tspan fill="rgb(0,0,0)" stroke="none">10.05</tspan></tspan></tspan></text>
 <text class="TextShape" transform="rotate(-90 6640 24375)"><tspan class="TextParagraph" font-family="Liberation Sans, sans-serif" font-size="282px" font-weight="400"><tspan class="TextPosition" x="6640" y="24375"><tspan fill="rgb(0,0,0)" stroke="none">13.05</tspan></tspan></tspan></text>
 <text class="TextShape" transform="rotate(-90 7009 24375)"><tspan class="TextParagraph" font-family="Liberation Sans, sans-serif" font-size="282px" font-weight="400"><tspan class="TextPosition" x="7009" y="24375"><tspan fill="rgb(0,0,0)" stroke="none">16.05</tspan></tspan></tspan></text>
 <text class="TextShape" transform="rotate(-90 7378 24375)"><tspan class="TextParagraph" font-family="Liberation Sans, sans-serif" font-size="282px" font-weight="400"><tspan class="TextPosition" x="7378" y="24375"><tspan fill="rgb(0,0,0)" stroke="none">19.05</tspan></tspan></tspan></text>
 <text class="TextShape" transform="rotate(-90 7748 24375)"><tspan class="TextParagraph" font-family="Liberation Sans, sans-serif" font-size="282px" font-weight="400"><tspan class="TextPosition" x="7748" y="24375"><tspan fill="rgb(0,0,0)" stroke="none">22.05</tspan></tspan></tspan></text>
 <text class="TextShape" transform="rotate(-90 8117 24375)"><tspan class="TextParagraph" font-family="Liberation Sans, sans-serif" font-size="282px" font-weight="400"><tspan class="TextPosition" x="8117" y="24375"><tspan fill="rgb(0,0,0)" stroke="none">25.05</tspan></tspan></tspan></text>
 <text class="TextShape" transform="rotate(-90 8486 24375)"><tspan class="TextParagraph" font-family="Liberation Sans, sans-serif" font-size="282px" font-weight="400"><tspan class="TextPosition" x="8486" y="24375"><tspan fill="rgb(0,0,0)" stroke="none">28.05</tspan></tspan></tspan></text>
 <text class="TextShape" transform="rotate(-90 8855 24375)"><tspan class="TextParagraph" font-family="Liberation Sans, sans-serif" font-size="282px" font-weight="400"><tspan class="TextPosition" x="8855" y="24375"><tspan fill="rgb(0,0,0)" stroke="none">31.05</tspan></tspan></tspan></text>
 <text class="TextShape" transform="rotate(-90 9225 24375)"><tspan class="TextParagraph" font-family="Liberation Sans, sans-serif" font-size="282px" font-weight="400"><tspan class="TextPosition" x="9225" y="24375"><tspan fill="rgb(0,0,0)" stroke="none">03.06</tspan></tspan></tspan></text>
 <text class="TextShape" transform="rotate(-90 9594 24375)"><tspan class="TextParagraph" font-family="Liberation Sans, sans-serif" font-size="282px" font-weight="400"><tspan class="TextPosition" x="9594" y="24375"><tspan fill="rgb(0,0,0)" stroke="none">06.06</tspan></tspan></tspan></text>
 <text class="TextShape" transform="rotate(-90 9963 24375)"><tspan class="TextParagraph" font-family="Liberation Sans, sans-serif" font-size="282px" font-weight="400"><tspan class="TextPosition" x="9963" y="24375"><tspan fill="rgb(0,0,0)" stroke="none">09.06</tspan></tspan></tspan></text>
 <text class="TextShape" transform="rotate(-90 10332 24375)"><tspan class="TextParagraph" font-family="Liberation Sans, sans-serif" font-size="282px" font-weight="400"><tspan class="TextPosition" x="10332" y="24375"><tspan fill="rgb(0,0,0)" stroke="none">12.06</tspan></tspan></tspan></text>
 <text class="TextShape" transform="rotate(-90 10701 24375)"><tspan class="TextParagraph" font-family="Liberation Sans, sans-serif" font-size="282px" font-weight="400"><tspan class="TextPosition" x="10701" y="24375"><tspan fill="rgb(0,0,0)" stroke="none">15.06</tspan></tspan></tspan></text>
 <text class="TextShape" transform="rotate(-90 11071 24375)"><tspan class="TextParagraph" font-family="Liberation Sans, sans-serif" font-size="282px" font-weight="400"><tspan class="TextPosition" x="11071" y="24375"><tspan fill="rgb(0,0,0)" stroke="none">18.06</tspan></tspan></tspan></text>
 <text class="TextShape" transform="rotate(-90 11440 24375)"><tspan class="TextParagraph" font-family="Liberation Sans, sans-serif" font-size="282px" font-weight="400"><tspan class="TextPosition" x="11440" y="24375"><tspan fill="rgb(0,0,0)" stroke="none">21.06</tspan></tspan></tspan></text>
 <text class="TextShape" transform="rotate(-90 11808 24375)"><tspan class="TextParagraph" font-family="Liberation Sans, sans-serif" font-size="282px" font-weight="400"><tspan class="TextPosition" x="11808" y="24375"><tspan fill="rgb(0,0,0)" stroke="none">24.06</tspan></tspan></tspan></text>
 <text class="TextShape" transform="rotate(-90 12177 24375)"><tspan class="TextParagraph" font-family="Liberation Sans, sans-serif" font-size="282px" font-weight="400"><tspan class="TextPosition" x="12177" y="24375"><tspan fill="rgb(0,0,0)" stroke="none">27.06</tspan></tspan></tspan></text>
 <text class="TextShape" transform="rotate(-90 12546 24375)"><tspan class="TextParagraph" font-family="Liberation Sans, sans-serif" font-size="282px" font-weight="400"><tspan class="TextPosition" x="12546" y="24375"><tspan fill="rgb(0,0,0)" stroke="none">30.06</tspan></tspan></tspan></text>
 <text class="TextShape" transform="rotate(-90 12916 24375)"><tspan class="TextParagraph" font-family="Liberation Sans, sans-serif" font-size="282px" font-weight="400"><tspan class="TextPosition" x="12916" y="24375"><tspan fill="rgb(0,0,0)" stroke="none">03.07</tspan></tspan></tspan></text>
 <text class="TextShape" transform="rotate(-90 13285 24375)"><tspan class="TextParagraph" font-family="Liberation Sans, sans-serif" font-size="282px" font-weight="400"><tspan class="TextPosition" x="13285" y="24375"><tspan fill="rgb(0,0,0)" stroke="none">06.07</tspan></tspan></tspan></text>
 <text class="TextShape" transform="rotate(-90 13654 24375)"><tspan class="TextParagraph" font-family="Liberation Sans, sans-serif" font-size="282px" font-weight="400"><tspan class="TextPosition" x="13654" y="24375"><tspan fill="rgb(0,0,0)" stroke="none">09.07</tspan></tspan></tspan></text>
 <text class="TextShape" transform="rotate(-90 14023 24375)"><tspan class="TextParagraph" font-family="Liberation Sans, sans-serif" font-size="282px" font-weight="400"><tspan class="TextPosition" x="14023" y="24375"><tspan fill="rgb(0,0,0)" stroke="none">12.07</tspan></tspan></tspan></text>
 <text class="TextShape" transform="rotate(-90 14393 24375)"><tspan class="TextParagraph" font-family="Liberation Sans, sans-serif" font-size="282px" font-weight="400"><tspan class="TextPosition" x="14393" y="24375"><tspan fill="rgb(0,0,0)" stroke="none">15.07</tspan></tspan></tspan></text>
 <text class="TextShape" transform="rotate(-90 14762 24375)"><tspan class="TextParagraph" font-family="Liberation Sans, sans-serif" font-size="282px" font-weight="400"><tspan class="TextPosition" x="14762" y="24375"><tspan fill="rgb(0,0,0)" stroke="none">18.07</tspan></tspan></tspan></text>
 <text class="TextShape" transform="rotate(-90 15131 24375)"><tspan class="TextParagraph" font-family="Liberation Sans, sans-serif" font-size="282px" font-weight="400"><tspan class="TextPosition" x="15131" y="24375"><tspan fill="rgb(0,0,0)" stroke="none">21.07</tspan></tspan></tspan></text>
 <text class="TextShape" transform="rotate(-90 15500 24375)"><tspan class="TextParagraph" font-family="Liberation Sans, sans-serif" font-size="282px" font-weight="400"><tspan class="TextPosition" x="15500" y="24375"><tspan fill="rgb(0,0,0)" stroke="none">24.07</tspan></tspan></tspan></text>
 <text class="TextShape" transform="rotate(-90 15869 24375)"><tspan class="TextParagraph" font-family="Liberation Sans, sans-serif" font-size="282px" font-weight="400"><tspan class="TextPosition" x="15869" y="24375"><tspan fill="rgb(0,0,0)" stroke="none">27.07</tspan></tspan></tspan></text>
 <text class="TextShape" transform="rotate(-90 16239 24375)"><tspan class="TextParagraph" font-family="Liberation Sans, sans-serif" font-size="282px" font-weight="400"><tspan class="TextPosition" x="16239" y="24375"><tspan fill="rgb(0,0,0)" stroke="none">30.07</tspan></tspan></tspan></text>
 <text class="TextShape" transform="rotate(-90 16608 24375)"><tspan class="TextParagraph" font-family="Liberation Sans, sans-serif" font-size="282px" font-weight="400"><tspan class="TextPosition" x="16608" y="24375"><tspan fill="rgb(0,0,0)" stroke="none">02.08</tspan></tspan></tspan></text>
 <text class="TextShape" transform="rotate(-90 16977 24375)"><tspan class="TextParagraph" font-family="Liberation Sans, sans-serif" font-size="282px" font-weight="400"><tspan class="TextPosition" x="16977" y="24375"><tspan fill="rgb(0,0,0)" stroke="none">05.08</tspan></tspan></tspan></text>
 <text class="TextShape" transform="rotate(-90 17346 24375)"><tspan class="TextParagraph" font-family="Liberation Sans, sans-serif" font-size="282px" font-weight="400"><tspan class="TextPosition" x="17346" y="24375"><tspan fill="rgb(0,0,0)" stroke="none">08.08</tspan></tspan></tspan></text>
 <text class="TextShape" transform="rotate(-90 17715 24375)"><tspan class="TextParagraph" font-family="Liberation Sans, sans-serif" font-size="282px" font-weight="400"><tspan class="TextPosition" x="17715" y="24375"><tspan fill="rgb(0,0,0)" stroke="none">11.08</tspan></tspan></tspan></text>
 <text class="TextShape" transform="rotate(-90 18085 24375)"><tspan class="TextParagraph" font-family="Liberation Sans, sans-serif" font-size="282px" font-weight="400"><tspan class="TextPosition" x="18085" y="24375"><tspan fill="rgb(0,0,0)" stroke="none">14.08</tspan></tspan></tspan></text>
 <text class="TextShape" transform="rotate(-90 18454 24375)"><tspan class="TextParagraph" font-family="Liberation Sans, sans-serif" font-size="282px" font-weight="400"><tspan class="TextPosition" x="18454" y="24375"><tspan fill="rgb(0,0,0)" stroke="none">17.08</tspan></tspan></tspan></text>
 <text class="TextShape"><tspan class="TextParagraph" font-family="Liberation Sans, sans-serif" font-size="388px" font-weight="400"><tspan class="TextPosition" x="325" y="23575"><tspan fill="rgb(0,0,0)" stroke="none">1,00</tspan></tspan></tspan></text>
 <text class="TextShape"><tspan class="TextParagraph" font-family="Liberation Sans, sans-serif" font-size="388px" font-weight="400"><tspan class="TextPosition" x="325" y="21405"><tspan fill="rgb(0,0,0)" stroke="none">1,05</tspan></tspan></tspan></text>
 <text class="TextShape"><tspan class="TextParagraph" font-family="Liberation Sans, sans-serif" font-size="388px" font-weight="400"><tspan class="TextPosition" x="325" y="19234"><tspan fill="rgb(0,0,0)" stroke="none">1,10</tspan></tspan></tspan></text>
 <text class="TextShape"><tspan class="TextParagraph" font-family="Liberation Sans, sans-serif" font-size="388px" font-weight="400"><tspan class="TextPosition" x="325" y="17065"><tspan fill="rgb(0,0,0)" stroke="none">1,15</tspan></tspan></tspan></text>
 <text class="TextShape"><tspan class="TextParagraph" font-family="Liberation Sans, sans-serif" font-size="388px" font-weight="400"><tspan class="TextPosition" x="325" y="14895"><tspan fill="rgb(0,0,0)" stroke="none">1,20</tspan></tspan></tspan></text>
 <text class="TextShape"><tspan class="TextParagraph" font-family="Liberation Sans, sans-serif" font-size="388px" font-weight="400"><tspan class="TextPosition" x="325" y="12725"><tspan fill="rgb(0,0,0)" stroke="none">1,25</tspan></tspan></tspan></text>
 <text class="TextShape"><tspan class="TextParagraph" font-family="Liberation Sans, sans-serif" font-size="388px" font-weight="400"><tspan class="TextPosition" x="325" y="10554"><tspan fill="rgb(0,0,0)" stroke="none">1,30</tspan></tspan></tspan></text>
 <text class="TextShape"><tspan class="TextParagraph" font-family="Liberation Sans, sans-serif" font-size="388px" font-weight="400"><tspan class="TextPosition" x="325" y="8384"><tspan fill="rgb(0,0,0)" stroke="none">1,35</tspan></tspan></tspan></text>
 <text class="TextShape"><tspan class="TextParagraph" font-family="Liberation Sans, sans-serif" font-size="388px" font-weight="400"><tspan class="TextPosition" x="325" y="6215"><tspan fill="rgb(0,0,0)" stroke="none">1,40</tspan></tspan></tspan></text>
 <text class="TextShape"><tspan class="TextParagraph" font-family="Liberation Sans, sans-serif" font-size="388px" font-weight="400"><tspan class="TextPosition" x="325" y="4045"><tspan fill="rgb(0,0,0)" stroke="none">1,45</tspan></tspan></tspan></text>
 <text class="TextShape"><tspan class="TextParagraph" font-family="Liberation Sans, sans-serif" font-size="388px" font-weight="400"><tspan class="TextPosition" x="325" y="1875"><tspan fill="rgb(0,0,0)" stroke="none">1,50</tspan></tspan></tspan></text>
 <text class="TextShape"><tspan class="TextParagraph" font-family="Liberation Sans, sans-serif" font-size="494px" font-weight="700"><tspan class="TextPosition" x="887" y="990"><tspan fill="rgb(0,0,0)" stroke="none">Tdenn koeficient celkovho potu obt</tspan></tspan></tspan></text>
 <path fill="none" stroke="rgb(191,0,65)" stroke-width="80" stroke-linejoin="round" stroke-dasharray="80,40" d="M 18817,2169 L 20417,2169"/>
 <path fill="none" stroke="rgb(85,48,141)" stroke-width="80" stroke-linejoin="round" stroke-dasharray="158,158" d="M 18817,3031 L 20417,3031"/>
 <path fill="none" stroke="rgb(0,0,255)" stroke-width="80" stroke-linejoin="round" stroke-dasharray="80,40" d="M 18817,3893 L 20417,3893"/>
 <path fill="none" stroke="rgb(255,191,0)" stroke-width="80" stroke-linejoin="round" stroke-dasharray="80,40" d="M 18817,4755 L 20417,4755"/>
 <path fill="none" stroke="rgb(0,169,51)" stroke-width="80" stroke-linejoin="round" stroke-dasharray="80,40" d="M 18817,5617 L 20417,5617"/>
 <path fill="none" stroke="rgb(0,169,51)" stroke-width="80" stroke-linejoin="round" stroke-dasharray="158,102" d="M 18817,6479 L 20417,6479"/>
 <path fill="none" stroke="rgb(255,64,0)" stroke-width="80" stroke-linejoin="round" stroke-dasharray="80,40" d="M 18817,7341 L 20417,7341"/>
 <path fill="none" stroke="rgb(21,132,102)" stroke-width="80" stroke-linejoin="round" stroke-dasharray="80,203,80,203,203,203" d="M 18817,8203 L 20417,8203"/>
 <path fill="none" stroke="rgb(0,223,255)" stroke-width="80" stroke-linejoin="round" stroke-dasharray="158,102" d="M 18817,9065 L 20417,9065"/>
 <path fill="none" stroke="rgb(141,40,30)" stroke-width="80" stroke-linejoin="round" stroke-dasharray="80,40" d="M 18817,9927 L 20417,9927"/>
 <path fill="none" stroke="rgb(255,0,0)" stroke-width="80" stroke-linejoin="round" stroke-dasharray="158,102" d="M 18817,10789 L 20417,10789"/>
 <path fill="none" stroke="rgb(89,131,176)" stroke-width="80" stroke-linejoin="round" d="M 18817,11651 L 20417,11651"/>
 <path fill="none" stroke="rgb(255,211,32)" stroke-width="80" stroke-linejoin="round" d="M 18817,12512 L 20417,12512"/>
 <path fill="none" stroke="rgb(0,169,51)" stroke-width="80" stroke-linejoin="round" d="M 18817,13374 L 20417,13374"/>
 <path fill="none" stroke="rgb(0,0,255)" stroke-width="80" stroke-linejoin="round" stroke-dasharray="51,127,51,127,254,127,254,127,254,127" d="M 18817,14236 L 20417,14236"/>
 <path fill="none" stroke="rgb(128,0,128)" stroke-width="80" stroke-linejoin="round" d="M 18817,15098 L 20417,15098"/>
 <path fill="none" stroke="rgb(85,48,141)" stroke-width="80" stroke-linejoin="round" stroke-dasharray="80,40" d="M 18817,15960 L 20417,15960"/>
 <path fill="none" stroke="rgb(255,128,0)" stroke-width="80" stroke-linejoin="round" d="M 18817,16822 L 20417,16822"/>
 <path fill="none" stroke="rgb(52,42,6)" stroke-width="80" stroke-linejoin="round" d="M 18817,17684 L 20417,17684"/>
 <path fill="none" stroke="rgb(180,120,4)" stroke-width="80" stroke-linejoin="round" d="M 18817,18546 L 20417,18546"/>
 <path fill="none" stroke="rgb(112,110,12)" stroke-width="80" stroke-linejoin="round" stroke-dasharray="80,40" d="M 18817,19408 L 20417,19408"/>
 <path fill="none" stroke="rgb(241,13,12)" stroke-width="80" stroke-linejoin="round" d="M 18817,20270 L 20417,20270"/>
 <path fill="none" stroke="rgb(0,255,0)" stroke-width="80" stroke-linejoin="round" d="M 18817,21132 L 20417,21132"/>
 <path fill="none" stroke="rgb(0,0,255)" stroke-width="80" stroke-linejoin="round" stroke-dasharray="158,158" d="M 18817,21994 L 20417,21994"/>
 <path fill="none" stroke="rgb(0,127,255)" stroke-width="80" stroke-linejoin="round" d="M 18817,22856 L 20417,22856"/>
 <text class="TextShape"><tspan class="TextParagraph" font-family="Liberation Sans, sans-serif" font-size="423px" font-weight="400"><tspan class="TextPosition" x="20517" y="2317"><tspan fill="rgb(0,0,0)" stroke="none">Stt Florida</tspan></tspan></tspan></text>
 <text class="TextShape"><tspan class="TextParagraph" font-family="Liberation Sans, sans-serif" font-size="423px" font-weight="400"><tspan class="TextPosition" x="20517" y="3179"><tspan fill="rgb(0,0,0)" stroke="none">Indie</tspan></tspan></tspan></text>
 <text class="TextShape"><tspan class="TextParagraph" font-family="Liberation Sans, sans-serif" font-size="423px" font-weight="400"><tspan class="TextPosition" x="20517" y="4041"><tspan fill="rgb(0,0,0)" stroke="none">Stt Texas</tspan></tspan></tspan></text>
 <text class="TextShape"><tspan class="TextParagraph" font-family="Liberation Sans, sans-serif" font-size="423px" font-weight="400"><tspan class="TextPosition" x="20517" y="4903"><tspan fill="rgb(0,0,0)" stroke="none">Stt Kalifornie</tspan></tspan></tspan></text>
 <text class="TextShape"><tspan class="TextParagraph" font-family="Liberation Sans, sans-serif" font-size="423px" font-weight="400"><tspan class="TextPosition" x="20517" y="5765"><tspan fill="rgb(0,0,0)" stroke="none">Mexiko</tspan></tspan></tspan></text>
 <text class="TextShape"><tspan class="TextParagraph" font-family="Liberation Sans, sans-serif" font-size="423px" font-weight="400"><tspan class="TextPosition" x="20517" y="6627"><tspan fill="rgb(0,0,0)" stroke="none">rn</tspan></tspan></tspan></text>
 <text class="TextShape"><tspan class="TextParagraph" font-family="Liberation Sans, sans-serif" font-size="423px" font-weight="400"><tspan class="TextPosition" x="20517" y="7489"><tspan fill="rgb(0,0,0)" stroke="none">Brazlie</tspan></tspan></tspan></text>
 <text class="TextShape"><tspan class="TextParagraph" font-family="Liberation Sans, sans-serif" font-size="423px" font-weight="400"><tspan class="TextPosition" x="20517" y="8351"><tspan fill="rgb(0,0,0)" stroke="none">celosvtov</tspan></tspan></tspan></text>
 <text class="TextShape"><tspan class="TextParagraph" font-family="Liberation Sans, sans-serif" font-size="423px" font-weight="400"><tspan class="TextPosition" x="20517" y="9213"><tspan fill="rgb(0,0,0)" stroke="none">Rusko</tspan></tspan></tspan></text>
 <text class="TextShape"><tspan class="TextParagraph" font-family="Liberation Sans, sans-serif" font-size="423px" font-weight="400"><tspan class="TextPosition" x="20517" y="10075"><tspan fill="rgb(0,0,0)" stroke="none">USA</tspan></tspan></tspan></text>
 <text class="TextShape"><tspan class="TextParagraph" font-family="Liberation Sans, sans-serif" font-size="423px" font-weight="400"><tspan class="TextPosition" x="20517" y="10937"><tspan fill="rgb(0,0,0)" stroke="none">Turecko</tspan></tspan></tspan></text>
 <text class="TextShape"><tspan class="TextParagraph" font-family="Liberation Sans, sans-serif" font-size="423px" font-weight="400"><tspan class="TextPosition" x="20517" y="11799"><tspan fill="rgb(0,0,0)" stroke="none">Norsko</tspan></tspan></tspan></text>
 <text class="TextShape"><tspan class="TextParagraph" font-family="Liberation Sans, sans-serif" font-size="423px" font-weight="400"><tspan class="TextPosition" x="20517" y="12660"><tspan fill="rgb(0,0,0)" stroke="none">esko</tspan></tspan></tspan></text>
 <text class="TextShape"><tspan class="TextParagraph" font-family="Liberation Sans, sans-serif" font-size="423px" font-weight="400"><tspan class="TextPosition" x="20517" y="13522"><tspan fill="rgb(0,0,0)" stroke="none">Rakousko</tspan></tspan></tspan></text>
 <text class="TextShape"><tspan class="TextParagraph" font-family="Liberation Sans, sans-serif" font-size="423px" font-weight="400"><tspan class="TextPosition" x="20517" y="14384"><tspan fill="rgb(0,0,0)" stroke="none">EU</tspan></tspan></tspan></text>
 <text class="TextShape"><tspan class="TextParagraph" font-family="Liberation Sans, sans-serif" font-size="423px" font-weight="400"><tspan class="TextPosition" x="20517" y="15246"><tspan fill="rgb(0,0,0)" stroke="none">panlsko</tspan></tspan></tspan></text>
 <text class="TextShape"><tspan class="TextParagraph" font-family="Liberation Sans, sans-serif" font-size="423px" font-weight="400"><tspan class="TextPosition" x="20517" y="16108"><tspan fill="rgb(0,0,0)" stroke="none">Kanada</tspan></tspan></tspan></text>
 <text class="TextShape"><tspan class="TextParagraph" font-family="Liberation Sans, sans-serif" font-size="423px" font-weight="400"><tspan class="TextPosition" x="20517" y="16970"><tspan fill="rgb(0,0,0)" stroke="none">Velk Britnie</tspan></tspan></tspan></text>
 <text class="TextShape"><tspan class="TextParagraph" font-family="Liberation Sans, sans-serif" font-size="423px" font-weight="400"><tspan class="TextPosition" x="20517" y="17832"><tspan fill="rgb(0,0,0)" stroke="none">Nmecko</tspan></tspan></tspan></text>
 <text class="TextShape"><tspan class="TextParagraph" font-family="Liberation Sans, sans-serif" font-size="423px" font-weight="400"><tspan class="TextPosition" x="20517" y="18694"><tspan fill="rgb(0,0,0)" stroke="none">Dnsko</tspan></tspan></tspan></text>
 <text class="TextShape"><tspan class="TextParagraph" font-family="Liberation Sans, sans-serif" font-size="423px" font-weight="400"><tspan class="TextPosition" x="20517" y="19556"><tspan fill="rgb(0,0,0)" stroke="none">Stt New York</tspan></tspan></tspan></text>
 <text class="TextShape"><tspan class="TextParagraph" font-family="Liberation Sans, sans-serif" font-size="423px" font-weight="400"><tspan class="TextPosition" x="20517" y="20418"><tspan fill="rgb(0,0,0)" stroke="none">vdsko</tspan></tspan></tspan></text>
 <text class="TextShape"><tspan class="TextParagraph" font-family="Liberation Sans, sans-serif" font-size="423px" font-weight="400"><tspan class="TextPosition" x="20517" y="21280"><tspan fill="rgb(0,0,0)" stroke="none">vcarsko</tspan></tspan></tspan></text>
 <text class="TextShape"><tspan class="TextParagraph" font-family="Liberation Sans, sans-serif" font-size="423px" font-weight="400"><tspan class="TextPosition" x="20517" y="22142"><tspan fill="rgb(0,0,0)" stroke="none">Jin Korea</tspan></tspan></tspan></text>
 <text class="TextShape"><tspan class="TextParagraph" font-family="Liberation Sans, sans-serif" font-size="423px" font-weight="400"><tspan class="TextPosition" x="20517" y="23004"><tspan fill="rgb(0,0,0)" stroke="none">Itlie</tspan></tspan></tspan></text>
</svg>