<?xml version="1.0" encoding="UTF-8"?>
<!DOCTYPE svg PUBLIC "-//W3C//DTD SVG 1.1//EN" "http://www.w3.org/Graphics/SVG/1.1/DTD/svg11.dtd">
<svg width="236mm" height="250mm" viewBox="0 0 23600 25000" version="1.1" xmlns="http://www.w3.org/2000/svg" xmlns:xlink="http://www.w3.org/1999/xlink" stroke-width="28.222" stroke-linejoin="round" xml:space="preserve">
 <path fill="rgb(255,255,255)" stroke="none" d="M 11800,25000 L 0,25000 0,0 23600,0 23600,25000 11800,25000 Z"/>
 <path fill="none" stroke="rgb(179,179,179)" stroke-linejoin="round" d="M 9836,23331 L 1224,23331 1224,1596 18448,1596 18448,23331 9836,23331 Z"/>
 <path fill="none" stroke="rgb(179,179,179)" stroke-linejoin="round" d="M 18448,23330 L 1224,23330"/>
 <path fill="none" stroke="rgb(179,179,179)" stroke-linejoin="round" d="M 18448,21156 L 1224,21156"/>
 <path fill="none" stroke="rgb(179,179,179)" stroke-linejoin="round" d="M 18448,18982 L 1224,18982"/>
 <path fill="none" stroke="rgb(179,179,179)" stroke-linejoin="round" d="M 18448,16809 L 1224,16809"/>
 <path fill="none" stroke="rgb(179,179,179)" stroke-linejoin="round" d="M 18448,14635 L 1224,14635"/>
 <path fill="none" stroke="rgb(179,179,179)" stroke-linejoin="round" d="M 18448,12463 L 1224,12463"/>
 <path fill="none" stroke="rgb(179,179,179)" stroke-linejoin="round" d="M 18448,10289 L 1224,10289"/>
 <path fill="none" stroke="rgb(179,179,179)" stroke-linejoin="round" d="M 18448,8115 L 1224,8115"/>
 <path fill="none" stroke="rgb(179,179,179)" stroke-linejoin="round" d="M 18448,5942 L 1224,5942"/>
 <path fill="none" stroke="rgb(179,179,179)" stroke-linejoin="round" d="M 18448,3768 L 1224,3768"/>
 <path fill="none" stroke="rgb(179,179,179)" stroke-linejoin="round" d="M 18448,1595 L 1224,1595"/>
 <path fill="none" stroke="rgb(179,179,179)" stroke-linejoin="round" d="M 1224,23480 L 1224,23330"/>
 <path fill="none" stroke="rgb(179,179,179)" stroke-linejoin="round" d="M 1224,23480 L 1224,23330"/>
 <path fill="none" stroke="rgb(179,179,179)" stroke-linejoin="round" d="M 2044,23480 L 2044,23330"/>
 <path fill="none" stroke="rgb(179,179,179)" stroke-linejoin="round" d="M 2044,23480 L 2044,23330"/>
 <path fill="none" stroke="rgb(179,179,179)" stroke-linejoin="round" d="M 2864,23480 L 2864,23330"/>
 <path fill="none" stroke="rgb(179,179,179)" stroke-linejoin="round" d="M 2864,23480 L 2864,23330"/>
 <path fill="none" stroke="rgb(179,179,179)" stroke-linejoin="round" d="M 3684,23480 L 3684,23330"/>
 <path fill="none" stroke="rgb(179,179,179)" stroke-linejoin="round" d="M 3684,23480 L 3684,23330"/>
 <path fill="none" stroke="rgb(179,179,179)" stroke-linejoin="round" d="M 4504,23480 L 4504,23330"/>
 <path fill="none" stroke="rgb(179,179,179)" stroke-linejoin="round" d="M 4504,23480 L 4504,23330"/>
 <path fill="none" stroke="rgb(179,179,179)" stroke-linejoin="round" d="M 5325,23480 L 5325,23330"/>
 <path fill="none" stroke="rgb(179,179,179)" stroke-linejoin="round" d="M 5325,23480 L 5325,23330"/>
 <path fill="none" stroke="rgb(179,179,179)" stroke-linejoin="round" d="M 6145,23480 L 6145,23330"/>
 <path fill="none" stroke="rgb(179,179,179)" stroke-linejoin="round" d="M 6145,23480 L 6145,23330"/>
 <path fill="none" stroke="rgb(179,179,179)" stroke-linejoin="round" d="M 6965,23480 L 6965,23330"/>
 <path fill="none" stroke="rgb(179,179,179)" stroke-linejoin="round" d="M 6965,23480 L 6965,23330"/>
 <path fill="none" stroke="rgb(179,179,179)" stroke-linejoin="round" d="M 7785,23480 L 7785,23330"/>
 <path fill="none" stroke="rgb(179,179,179)" stroke-linejoin="round" d="M 7785,23480 L 7785,23330"/>
 <path fill="none" stroke="rgb(179,179,179)" stroke-linejoin="round" d="M 8606,23480 L 8606,23330"/>
 <path fill="none" stroke="rgb(179,179,179)" stroke-linejoin="round" d="M 8606,23480 L 8606,23330"/>
 <path fill="none" stroke="rgb(179,179,179)" stroke-linejoin="round" d="M 9426,23480 L 9426,23330"/>
 <path fill="none" stroke="rgb(179,179,179)" stroke-linejoin="round" d="M 9426,23480 L 9426,23330"/>
 <path fill="none" stroke="rgb(179,179,179)" stroke-linejoin="round" d="M 10246,23480 L 10246,23330"/>
 <path fill="none" stroke="rgb(179,179,179)" stroke-linejoin="round" d="M 10246,23480 L 10246,23330"/>
 <path fill="none" stroke="rgb(179,179,179)" stroke-linejoin="round" d="M 11066,23480 L 11066,23330"/>
 <path fill="none" stroke="rgb(179,179,179)" stroke-linejoin="round" d="M 11066,23480 L 11066,23330"/>
 <path fill="none" stroke="rgb(179,179,179)" stroke-linejoin="round" d="M 11886,23480 L 11886,23330"/>
 <path fill="none" stroke="rgb(179,179,179)" stroke-linejoin="round" d="M 11886,23480 L 11886,23330"/>
 <path fill="none" stroke="rgb(179,179,179)" stroke-linejoin="round" d="M 12706,23480 L 12706,23330"/>
 <path fill="none" stroke="rgb(179,179,179)" stroke-linejoin="round" d="M 12706,23480 L 12706,23330"/>
 <path fill="none" stroke="rgb(179,179,179)" stroke-linejoin="round" d="M 13526,23480 L 13526,23330"/>
 <path fill="none" stroke="rgb(179,179,179)" stroke-linejoin="round" d="M 13526,23480 L 13526,23330"/>
 <path fill="none" stroke="rgb(179,179,179)" stroke-linejoin="round" d="M 14346,23480 L 14346,23330"/>
 <path fill="none" stroke="rgb(179,179,179)" stroke-linejoin="round" d="M 14346,23480 L 14346,23330"/>
 <path fill="none" stroke="rgb(179,179,179)" stroke-linejoin="round" d="M 15167,23480 L 15167,23330"/>
 <path fill="none" stroke="rgb(179,179,179)" stroke-linejoin="round" d="M 15167,23480 L 15167,23330"/>
 <path fill="none" stroke="rgb(179,179,179)" stroke-linejoin="round" d="M 15987,23480 L 15987,23330"/>
 <path fill="none" stroke="rgb(179,179,179)" stroke-linejoin="round" d="M 15987,23480 L 15987,23330"/>
 <path fill="none" stroke="rgb(179,179,179)" stroke-linejoin="round" d="M 16807,23480 L 16807,23330"/>
 <path fill="none" stroke="rgb(179,179,179)" stroke-linejoin="round" d="M 16807,23480 L 16807,23330"/>
 <path fill="none" stroke="rgb(179,179,179)" stroke-linejoin="round" d="M 17627,23480 L 17627,23330"/>
 <path fill="none" stroke="rgb(179,179,179)" stroke-linejoin="round" d="M 17627,23480 L 17627,23330"/>
 <path fill="none" stroke="rgb(179,179,179)" stroke-linejoin="round" d="M 18448,23480 L 18448,23330"/>
 <path fill="none" stroke="rgb(179,179,179)" stroke-linejoin="round" d="M 18448,23480 L 18448,23330"/>
 <path fill="none" stroke="rgb(179,179,179)" stroke-linejoin="round" d="M 1224,23330 L 18448,23330"/>
 <path fill="none" stroke="rgb(179,179,179)" stroke-linejoin="round" d="M 1074,23330 L 1224,23330"/>
 <path fill="none" stroke="rgb(179,179,179)" stroke-linejoin="round" d="M 1074,23330 L 1224,23330"/>
 <path fill="none" stroke="rgb(179,179,179)" stroke-linejoin="round" d="M 1074,21156 L 1224,21156"/>
 <path fill="none" stroke="rgb(179,179,179)" stroke-linejoin="round" d="M 1074,21156 L 1224,21156"/>
 <path fill="none" stroke="rgb(179,179,179)" stroke-linejoin="round" d="M 1074,18982 L 1224,18982"/>
 <path fill="none" stroke="rgb(179,179,179)" stroke-linejoin="round" d="M 1074,18982 L 1224,18982"/>
 <path fill="none" stroke="rgb(179,179,179)" stroke-linejoin="round" d="M 1074,16809 L 1224,16809"/>
 <path fill="none" stroke="rgb(179,179,179)" stroke-linejoin="round" d="M 1074,16809 L 1224,16809"/>
 <path fill="none" stroke="rgb(179,179,179)" stroke-linejoin="round" d="M 1074,14635 L 1224,14635"/>
 <path fill="none" stroke="rgb(179,179,179)" stroke-linejoin="round" d="M 1074,14635 L 1224,14635"/>
 <path fill="none" stroke="rgb(179,179,179)" stroke-linejoin="round" d="M 1074,12463 L 1224,12463"/>
 <path fill="none" stroke="rgb(179,179,179)" stroke-linejoin="round" d="M 1074,12463 L 1224,12463"/>
 <path fill="none" stroke="rgb(179,179,179)" stroke-linejoin="round" d="M 1074,10289 L 1224,10289"/>
 <path fill="none" stroke="rgb(179,179,179)" stroke-linejoin="round" d="M 1074,10289 L 1224,10289"/>
 <path fill="none" stroke="rgb(179,179,179)" stroke-linejoin="round" d="M 1074,8115 L 1224,8115"/>
 <path fill="none" stroke="rgb(179,179,179)" stroke-linejoin="round" d="M 1074,8115 L 1224,8115"/>
 <path fill="none" stroke="rgb(179,179,179)" stroke-linejoin="round" d="M 1074,5942 L 1224,5942"/>
 <path fill="none" stroke="rgb(179,179,179)" stroke-linejoin="round" d="M 1074,5942 L 1224,5942"/>
 <path fill="none" stroke="rgb(179,179,179)" stroke-linejoin="round" d="M 1074,3768 L 1224,3768"/>
 <path fill="none" stroke="rgb(179,179,179)" stroke-linejoin="round" d="M 1074,3768 L 1224,3768"/>
 <path fill="none" stroke="rgb(179,179,179)" stroke-linejoin="round" d="M 1074,1595 L 1224,1595"/>
 <path fill="none" stroke="rgb(179,179,179)" stroke-linejoin="round" d="M 1074,1595 L 1224,1595"/>
 <path fill="none" stroke="rgb(179,179,179)" stroke-linejoin="round" d="M 1224,23330 L 1224,1595"/>
 <path fill="none" stroke="rgb(255,128,0)" stroke-width="80" stroke-linejoin="round" stroke-dasharray="80,40" d="M 1282,23273 L 1399,23254 1516,23254 1634,23236 1751,23142 1868,23067 1985,22936 2102,22636 2220,22073 2337,21923 2454,21679 2571,21041 2688,19991 2805,19203 2923,17909 3040,16709 3157,15246 3274,13708 3391,10108 3508,7802 3626,4369 3743,1894 3756,1595"/>
 <path fill="none" stroke="rgb(128,0,128)" stroke-width="80" stroke-linejoin="round" d="M 1282,22711 L 1399,22423 1516,21986 1634,21740 1751,20852 1868,20433 1985,19471 2102,18481 2220,16937 2337,15092 2454,12586 2571,10276 2688,6376 2805,3038 2852,1595"/>
 <path fill="none" stroke="rgb(131,202,255)" stroke-width="80" stroke-linejoin="round" d="M 1282,18778 L 1399,18149 1516,16826 1634,15571 1751,14331 1868,12624 1985,11090 2102,8835 2220,5985 2337,3644 2448,1595"/>
 <path fill="none" stroke="rgb(255,0,0)" stroke-width="80" stroke-linejoin="round" d="M 1282,23308 L 1399,23286 1516,23265 1634,23200 1751,23179 1868,23114 1985,23093 2102,22985 2220,22899 2337,22878 2454,22791 2571,22555 2688,21995 2805,21672 2923,21070 3040,21070 3157,20962 3274,20187 3391,19455 3508,18186 3626,16701 3743,15624 3860,15302 3977,14699 4094,13063 4212,10611 4329,8545 4446,6263 4563,4606 4680,4240 4797,3982 4915,3551 5008,1595"/>
 <path fill="none" stroke="rgb(0,0,255)" stroke-width="80" stroke-linejoin="round" stroke-dasharray="80,40" d="M 1282,23077 L 1399,23039 1516,23039 1634,22854 1751,22854 1868,22854 1985,22551 2102,21891 2220,21533 2337,21173 2454,20579 2571,19814 2688,19077 2805,17912 2923,16958 3040,15937 3157,15000 3274,13663 3391,12062 3508,9248 3626,6109 3743,2529 3775,1595"/>
 <path fill="none" stroke="rgb(21,132,102)" stroke-width="80" stroke-linejoin="round" stroke-dasharray="51,127,51,127,254,127,254,127,254,127" d="M 1282,22383 L 1399,22219 1516,21920 1634,21619 1751,21259 1868,20885 1985,20393 2102,19682 2220,18837 2337,18058 2454,17153 2571,16113 2688,14863 2805,13570 2923,12106 3040,10612 3157,9193 3274,7598 3391,5897 3508,3960 3626,1829 3639,1595"/>
 <path fill="none" stroke="rgb(129,212,26)" stroke-width="80" stroke-linejoin="round" stroke-dasharray="80,40" d="M 1282,23285 L 1399,23241 1516,23241 1634,23241 1751,23241 1868,23241 1985,23197 2102,23197 2220,23197 2337,23153 2454,23065 2571,23021 2688,22933 2805,22493 2923,22361 3040,21745 3157,21305 3274,20952 3391,20204 3508,19588 3626,19016 3743,18047 3860,17299 3977,16374 4094,15670 4212,14085 4329,12985 4446,11753 4563,10697 4680,9244 4797,8628 4915,7263 5032,5458 5149,3786 5266,1937 5287,1595"/>
 <path fill="none" stroke="rgb(255,128,0)" stroke-width="80" stroke-linejoin="round" d="M 1282,23205 L 1399,23180 1516,23080 1634,23031 1751,22794 1868,22607 1985,22370 2102,21997 2220,21623 2337,21087 2454,20664 2571,19879 2688,18882 2805,17911 2923,16515 3040,15357 3157,13713 3274,12554 3391,10375 3508,8693 3626,6625 3743,4769 3860,2701 3951,1595"/>
 <path fill="none" stroke="rgb(0,0,255)" stroke-width="80" stroke-linejoin="round" stroke-dasharray="51,127,51,127,254,127,254,127,254,127" d="M 1282,22600 L 1399,22473 1516,22242 1634,22010 1751,21733 1868,21445 1985,21065 2102,20518 2220,19867 2337,19264 2454,18565 2571,17758 2688,16788 2805,15787 2923,14656 3040,13496 3157,12395 3274,11148 3391,9823 3508,8315 3626,6650 3743,5007 3860,3502 3977,2374 4042,1595"/>
 <path fill="none" stroke="rgb(0,0,255)" stroke-width="80" stroke-linejoin="round" d="M 1399,22982 L 1516,22982 1634,22982 1751,22982 1868,22635 1985,21941 2102,21941 2220,20552 2337,20552 2454,20552 2571,20552 2688,20552 2805,20204 2923,18121 3040,17079 3157,16038 3274,15690 3391,15343 3508,13260 3626,12913 3743,12565 3860,12565 3977,10830 4094,9094 4212,8052 4329,7358 4446,5274 4563,4580 4680,1802 4698,1595"/>
 <path fill="none" stroke="rgb(128,0,128)" stroke-width="80" stroke-linejoin="round" stroke-dasharray="158,158" d="M 1751,23308 L 1868,23287 1985,23266 2102,23202 2220,23074 2337,23031 2454,22839 2571,22626 2688,22413 2805,22050 2923,21709 3040,21198 3157,20793 3274,20345 3391,19919 3508,19343 3626,18874 3743,18086 3860,17659 3977,17041 4094,16700 4212,15975 4329,15229 4446,14611 4563,14057 4680,13311 4797,12586 4915,11926 5032,11244 5149,10562 5266,9922 5383,9325 5500,8686 5618,8110 5735,7663 5852,7087 5969,6597 6086,5851 6204,5126 6321,4572 6438,4082 6555,3549 6672,3122 6789,2589 6907,2248 7024,1865 7117,1595"/>
 <path fill="none" stroke="rgb(255,0,0)" stroke-width="80" stroke-linejoin="round" stroke-dasharray="158,158" d="M 2337,23296 L 2454,23250 2571,23205 2688,23137 2805,23070 2923,23036 3040,22911 3157,22844 3274,22595 3391,22403 3508,22290 3626,22030 3743,21827 3860,21680 3977,21623 4094,21341 4212,21104 4329,20844 4446,20527 4563,20279 4680,20042 4797,19759 4915,19590 5032,19364 5149,19126 5266,18900 5383,18686 5500,18573 5618,18234 5735,17929 5852,17703 5969,17409 6086,17172 6204,16923 6321,16539 6438,16336 6555,16087 6672,15838 6789,15500 6907,15228 7024,14923 7141,14618 7258,14404 7375,14087 7492,13827 7610,13567 7727,13296 7844,12901 7961,12720 8078,12472 8196,12235 8313,12009 8430,11625 8547,11433 8664,11241 8781,10970 8899,10823 9016,10676 9133,10484 9250,10371 9367,10269 9484,10156 9602,10043 9719,9942 9836,9716 9953,9591 10070,9467 10188,9377 10305,9230 10422,9105 10539,9026 10656,8913 10773,8778 10891,8687 11008,8586 11125,8461 11242,8394 11359,8269 11476,8202 11594,8032 11711,7964 11827,7863 11944,7738 12061,7580 12179,7399 12296,7207 12413,7094 12530,6936 12647,6688 12764,6563 12882,6383 12999,6247 13116,6123 13233,5942 13350,5761 13467,5648 13585,5490 13702,5377 13819,5117 13936,4869 14053,4676 14171,4496 14288,4270 14405,4032 14522,3773 14639,3558 14756,3354 14874,3004 14991,2801 15108,2609 15225,2462 15342,2191 15459,2044 15577,1852 15666,1595"/>
 <path fill="none" stroke="rgb(52,42,6)" stroke-width="80" stroke-linejoin="round" d="M 1282,23311 L 1399,23306 1516,23301 1634,23285 1751,23267 1868,23257 1985,23215 2102,23156 2220,23112 2337,23086 2454,23010 2571,22922 2688,22795 2805,22637 2923,22442 3040,22206 3157,21947 3274,21656 3391,21319 3508,20943 3626,20458 3743,20022 3860,19583 3977,19220 4094,18634 4212,18099 4329,17236 4446,16566 4563,16151 4680,16232 4797,15490 4915,15043 5032,14784 5149,13461 5266,12817 5383,12040 5500,11763 5618,11433 5735,10717 5852,10273 5969,9635 6086,8867 6204,8387 6321,8084 6438,7827 6555,7438 6672,6950 6789,6553 6907,6149 7024,5855 7141,5658 7258,5518 7375,5189 7492,5189 7610,4457 7727,4153 7844,3847 7961,3746 8078,3694 8196,3456 8313,3256 8430,2937 8547,2877 8664,2843 8781,2737 8899,2675 9016,2568 9133,2366 9250,2203 9367,2050 9484,1985 9602,1899 9719,1842 9836,1775 9953,1611 9967,1595"/>
 <path fill="none" stroke="rgb(180,120,4)" stroke-width="80" stroke-linejoin="round" d="M 1399,23293 L 1516,23256 1634,23219 1751,23182 1868,23182 1985,23108 2102,22998 2220,22850 2337,22850 2454,22445 2571,22150 2688,22076 2805,21818 2923,21413 3040,20934 3157,20676 3274,20492 3391,20013 3508,19497 3626,18796 3743,18207 3860,17396 3977,16733 4094,16438 4212,15848 4329,15295 4446,14595 4563,14227 4680,13747 4797,13268 4915,12826 5032,12311 5149,11943 5266,11500 5383,10947 5500,10579 5618,10247 5735,9916 5852,9694 5969,9178 6086,8810 6204,8478 6321,7925 6438,7778 6555,7594 6672,7336 6789,7004 6907,6672 7024,6378 7141,5825 7258,5493 7375,5161 7492,4793 7610,4682 7727,4387 7844,4093 7961,3945 8078,3835 8196,3687 8313,3908 8430,3687 8547,3540 8664,3540 8781,3319 8899,3171 9016,3134 9133,3024 9250,2913 9367,2655 9484,2655 9602,2655 9719,2618 9836,2582 9953,2582 10070,2508 10188,2397 10305,2397 10422,2287 10539,2176 10656,2102 10773,1955 10891,1955 11008,1881 11125,1734 11242,1697 11359,1623 11382,1595"/>
 <path fill="none" stroke="rgb(0,169,51)" stroke-width="80" stroke-linejoin="round" d="M 1282,23305 L 1399,23305 1516,23305 1634,23257 1751,23257 1868,23233 1985,23185 2102,23185 2220,23136 2337,22943 2454,22823 2571,22654 2688,22605 2805,22147 2923,21930 3040,21688 3157,21254 3274,20723 3391,20240 3508,19806 3626,19516 3743,19275 3860,18841 3977,18406 4094,18020 4212,17465 4329,16741 4446,16210 4563,15631 4680,15196 4797,14883 4915,14448 5032,14062 5149,13845 5266,13435 5383,12928 5500,12638 5618,12422 5735,11988 5852,11481 5969,11022 6086,10733 6204,10540 6321,10395 6438,10250 6555,10081 6672,9598 6789,9333 6907,9236 7024,9116 7141,8947 7258,8898 7375,8850 7492,8705 7610,8657 7727,8633 7844,8512 7961,8488 8078,8416 8196,8367 8313,8295 8430,8271 8547,8223 8664,8174 8781,8150 8899,8150 9016,8150 9133,8078 9250,8054 9367,8054 9484,8005 9602,7909 9719,7885 9836,7861 9953,7812 10070,7764 10188,7209 10305,7209 10422,7209 10539,7209 10656,7209 10773,7185 10891,7161 11008,7161 11125,7112 11242,7112 11359,7112 11476,7112 11594,7112 11711,7088 11827,7064 11944,7040 12061,6992 12179,6992 12296,6968 12413,6895 12530,6750 12647,6726 12764,6726 12882,6726 12999,6678 13116,6678 13233,6606 13350,6606 13467,6485 13585,6485 13702,6437 13819,6388 13936,6364 14053,6316 14171,6316 14288,6316 14405,6316 14522,6316 14639,6292 14756,6292 14874,6292 14991,6292 15108,6292 15225,6292 15342,6292 15459,6244 15577,6244 15694,6220 15811,6195 15928,6171 16045,6171 16163,6171 16280,6171 16397,6171 16514,6195 16631,6171 16748,6171 16866,6171 16983,6147 17100,6147 17217,6123 17334,6123 17451,6051 17569,6002 17686,6002 17803,6002 17920,6002 18037,6002 18155,5978 18272,5978 18389,5978"/>
 <path fill="none" stroke="rgb(255,128,0)" stroke-width="80" stroke-linejoin="round" stroke-dasharray="158,158" d="M 1516,23307 L 1634,23307 1751,23307 1868,23307 1985,23307 2102,23262 2220,23239 2337,23194 2454,23172 2571,23127 2688,23104 2805,23104 2923,23104 3040,23082 3157,23037 3274,22992 3391,22969 3508,22879 3626,22857 3743,22744 3860,22609 3977,22564 4094,22474 4212,22272 4329,22024 4446,21844 4563,21597 4680,21417 4797,21102 4915,20877 5032,20584 5149,20314 5266,20134 5383,19819 5500,19459 5618,19077 5735,18852 5852,18537 5969,18267 6086,17952 6204,17434 6321,17434 6438,17209 6555,17029 6672,16782 6789,16579 6907,16309 7024,16062 7141,15792 7258,15679 7375,15432 7492,15162 7610,14937 7727,14712 7844,14509 7961,14217 8078,14037 8196,13857 8313,13767 8430,13654 8547,13519 8664,13384 8781,13249 8899,13182 9016,12934 9133,12822 9250,12754 9367,12687 9484,12619 9602,12485 9719,12395 9836,12283 9953,12103 10070,11968 10188,11878 10305,11698 10422,11540 10539,11495 10656,11473 10773,11360 10891,11315 11008,11203 11125,11135 11242,11068 11359,11045 11476,11000 11594,10955 11711,10933 11827,10888 11944,10843 12061,10753 12179,10685 12296,10663 12413,10618 12530,10573 12647,10550 12764,10550 12882,10505 12999,10505 13116,10460 13233,10438 13350,10370 13467,10348 13585,10325 13702,10325 13819,10258 13936,10168 14053,10168 14171,10145 14288,10123 14405,10100 14522,10078 14639,10078 14756,10078 14874,10078 14991,10078 15108,10033 15225,9988 15342,9943 15459,9943 15577,9943 15694,9943 15811,9943 15928,9943 16045,9943 16163,9920 16280,9920 16397,9920 16514,9920 16631,9920 16748,9920 16866,9920 16983,9920 17100,9920 17217,9920 17334,9920 17451,9920 17569,9920 17686,9920 17803,9898 17920,9898 18037,9898 18155,9875 18272,9853 18389,9830"/>
 <path fill="none" stroke="rgb(0,169,51)" stroke-width="80" stroke-linejoin="round" stroke-dasharray="158,158" d="M 1282,23298 L 1399,23267 1516,23267 1634,23267 1751,23267 1868,23267 1985,23236 2102,23236 2220,23236 2337,23236 2454,23236 2571,23236 2688,23236 2805,23236 2923,23236 3040,23111 3157,23079 3274,23079 3391,23079 3508,23017 3626,23017 3743,22892 3860,22798 3977,22704 4094,22641 4212,22610 4329,22579 4446,22579 4563,22547 4680,22454 4797,22422 4915,22328 5032,22235 5149,22203 5266,22141 5383,22047 5500,22047 5618,22016 5735,21984 5852,21922 5969,21797 6086,21703 6204,21640 6321,21609 6438,21578 6555,21515 6672,21515 6789,21327 6907,21265 7024,21202 7141,21077 7258,21046 7375,20890 7492,20827 7610,20702 7727,20702 7844,20639 7961,20514 8078,20483 8196,20420 8313,20358 8430,20326 8547,20233 8664,20139 8781,20045 8899,19951 9016,19888 9133,19826 9250,19701 9367,19576 9484,19419 9602,19388 9719,19263 9836,19263 9953,19263 10070,19169 10188,19138 10305,19075 10422,18981 10539,18950 10656,18950 10773,18825 10891,18762 11008,18731 11125,18356 11242,18324 11359,18324 11476,18199 11594,18105 11711,18105 11827,18074 11944,17949 12061,17949 12179,17886 12296,17824 12413,17667 12530,17574 12647,17386 12764,17292 12882,17104 12999,17104 13116,16854 13233,16823 13350,16792 13467,16729 13585,16604 13702,16573 13819,16479 13936,16354 14053,16135 14171,16072 14288,16072 14405,15853 14522,15791 14639,15634 14756,15509 14874,15384 14991,15228 15108,15134 15225,14977 15342,14977 15459,14946 15577,14696 15694,14477 15811,14289 15928,14164 16045,14039 16163,13976 16280,13945 16397,13695 16514,13538 16631,13288 16748,13038 16866,12788 16983,12756 17100,12694 17217,12476 17334,12225 17451,11819 17569,11631 17686,11350 17803,11287 17920,11193 18037,10693 18155,10349 18272,10067 18389,9723"/>
 <path fill="none" stroke="rgb(191,0,65)" stroke-width="80" stroke-linejoin="round" stroke-dasharray="51,127,51,127,254,127,254,127,254,127" d="M 1282,23323 L 1399,23317 1516,23315 1634,23313 1751,23311 1868,23309 1985,23304 2102,23300 2220,23296 2337,23277 2454,23262 2571,23233 2688,23195 2805,23166 2923,23147 3040,23097 3157,23048 3274,22960 3391,22887 3508,22809 3626,22696 3743,22577 3860,22482 3977,22390 4094,22254 4212,22098 4329,21920 4446,21769 4563,21649 4680,21490 4797,21318 4915,21203 5032,21020 5149,20857 5266,20714 5383,20571 5500,20450 5618,20276 5735,20125 5852,19969 5969,19802 6086,19646 6204,19441 6321,19283 6438,19183 6555,19036 6672,18862 6789,18684 6907,18528 7024,18405 7141,18262 7258,18161 7375,18012 7492,17874 7610,17740 7727,17595 7844,17446 7961,17339 8078,17222 8196,17125 8313,17008 8430,16840 8547,16731 8664,16618 8781,16525 8899,16456 9016,16372 9133,16278 9250,16207 9367,16139 9484,16064 9602,15997 9719,15951 9836,15867 9953,15783 10070,15724 10188,15663 10305,15579 10422,15510 10539,15479 10656,15430 10773,15342 10891,15263 11008,15223 11125,15124 11242,15065 11359,15032 11476,14984 11594,14900 11711,14828 11827,14789 11944,14732 12061,14661 12179,14594 12296,14529 12413,14457 12530,14380 12647,14252 12764,14182 12882,14105 12999,14059 13116,14008 13233,13929 13350,13832 13467,13767 13585,13683 13702,13648 13819,13578 13936,13503 14053,13411 14171,13339 14288,13251 14405,13153 14522,13090 14639,13035 14756,12976 14874,12886 14991,12807 15108,12737 15225,12668 15342,12599 15459,12561 15577,12495 15694,12386 15811,12317 15928,12245 16045,12180 16163,12115 16280,12061 16397,12006 16514,11895 16631,11794 16748,11698 16866,11614 16983,11549 17100,11474 17217,11398 17334,11293 17451,11176 17569,11041 17686,10909 17803,10815 17920,10716 18037,10624 18155,10488 18272,10328 18389,10163"/>
 <path fill="none" stroke="rgb(131,202,255)" stroke-width="80" stroke-linejoin="round" stroke-dasharray="158,158" d="M 1399,23225 L 1516,23225 1634,23225 1751,23225 1868,23225 1985,23225 2102,23225 2220,23225 2337,23120 2454,23016 2571,22911 2688,22807 2805,22702 2923,22389 3040,22389 3157,22179 3274,22179 3391,21761 3508,21761 3626,21552 3743,21238 3860,21029 3977,20402 4094,20193 4212,19566 4329,19147 4446,18834 4563,18625 4680,18102 4797,17788 4915,17579 5032,17475 5149,16952 5266,16952 5383,16429 5500,16011 5618,15593 5735,15279 5852,15279 5969,15070 6086,15070 6204,14965 6321,14861 6438,14756 6555,14652 6672,14338 6789,14024 6907,13815 7024,13711 7141,13501 7258,13292 7375,13188 7492,13083 7610,12979 7727,12979 7844,12874 7961,12770 8078,12665 8196,12665 8313,12665 8430,12561 8547,12561 8664,12561 8781,12561 8899,12457 9016,12457 9133,12457 9250,12352 9367,12248 9484,12248 9602,12248 9719,12143 9836,12143 9953,12039 10070,12039 10188,12039 10305,12039 10422,12039 10539,12039 10656,11934 10773,11934 10891,11934 11008,11934 11125,11934 11242,11934 11359,11934 11476,11934 11594,11934 11711,11934 11827,11934 11944,11934 12061,11934 12179,11934 12296,11934 12413,11934 12530,11934 12647,11934 12764,11934 12882,11934 12999,11934 13116,11934 13233,11934 13350,11934 13467,11934 13585,11934 13702,11934 13819,11725 13936,11725 14053,11725 14171,11725 14288,11725 14405,11725 14522,11725 14639,11725 14756,11725 14874,11725 14991,11725 15108,11725 15225,11725 15342,11725 15459,11725 15577,11725 15694,11725 15811,11725 15928,11725 16045,11725 16163,11725 16280,11621 16397,11516 16514,11411 16631,11307 16748,11307 16866,11307 16983,11202 17100,11202 17217,11202 17334,11098 17451,11098 17569,11098 17686,10889 17803,10889 17920,10784 18037,10575 18155,10470 18272,10366 18389,10261"/>
 <path fill="none" stroke="rgb(129,212,26)" stroke-width="80" stroke-linejoin="round" stroke-dasharray="158,158" d="M 2220,23290 L 2337,23290 2454,23290 2571,23290 2688,23212 2805,23133 2923,23055 3040,22976 3157,22898 3274,22820 3391,22663 3508,22663 3626,22584 3743,22545 3860,22349 3977,22231 4094,22270 4212,21996 4329,21760 4446,21682 4563,21446 4680,21407 4797,21133 4915,21015 5032,20819 5149,20505 5266,20387 5383,20113 5500,19799 5618,19642 5735,19485 5852,17798 5969,17484 6086,16582 6204,16386 6321,16033 6438,15876 6555,15758 6672,15523 6789,15248 6907,15052 7024,14777 7141,14699 7258,14307 7375,13914 7492,13679 7610,13444 7727,13326 7844,13130 7961,12934 8078,12855 8196,12698 8313,12541 8430,12189 8547,12072 8664,11836 8781,11679 8899,11640 9016,11562 9133,11522 9250,11405 9367,11326 9484,11326 9602,11326 9719,11287 9836,11248 9953,11091 10070,11052 10188,11052 10305,11012 10422,10934 10539,10777 10656,10856 10773,10777 10891,10738 11008,10699 11125,10699 11242,10699 11359,10659 11476,10659 11594,10620 11711,10620 11827,10581 11944,10581 12061,10581 12179,10542 12296,10542 12413,10542 12530,10542 12647,10542 12764,10542 12882,10542 12999,10542 13116,10502 13233,10502 13350,10502 13467,10502 13585,10463 13702,10463 13819,10463 13936,10463 14053,10463 14171,10463 14288,10463 14405,10424 14522,10424 14639,10424 14756,10424 14874,10424 14991,10424 15108,10424 15225,10424 15342,10424 15459,10424 15577,10424 15694,10424 15811,10463 15928,10463 16045,10463 16163,10463 16280,10463 16397,10463 16514,10463 16631,10463 16748,10463 16866,10424 16983,10424 17100,10424 17217,10424 17334,10424 17451,10424 17569,10424 17686,10424 17803,10424 17920,10424 18037,10424 18155,10346 18272,10346 18389,10346"/>
 <path fill="none" stroke="rgb(85,48,141)" stroke-width="80" stroke-linejoin="round" stroke-dasharray="80,40" d="M 2688,23166 L 2805,23166 2923,23166 3040,23166 3157,22838 3274,22838 3391,22674 3508,22510 3626,21527 3743,21363 3860,21199 3977,20872 4094,20216 4212,19889 4329,19397 4446,19397 4563,19397 4680,19397 4797,19233 4915,18742 5032,18250 5149,17595 5266,17431 5383,17103 5500,17103 5618,16775 5735,16775 5852,16284 5969,16120 6086,15956 6204,15792 6321,15792 6438,15301 6555,15137 6672,15137 6789,15137 6907,14809 7024,14809 7141,14645 7258,14317 7375,14317 7492,14317 7610,14317 7727,14154 7844,14154 7961,13498 8078,13498 8196,13334 8313,13334 8430,13334 8547,13170 8664,13007 8781,13007 8899,13007 9016,12843 9133,12843 9250,12843 9367,12843 9484,12843 9602,12843 9719,12843 9836,12679 9953,12679 10070,12515 10188,12515 10305,12352 10422,12352 10539,12188 10656,12188 10773,12188 10891,12024 11008,12024 11125,12024 11242,12024 11359,12024 11476,12024 11594,12024 11711,12024 11827,12024 11944,12024 12061,12024 12179,12024 12296,12024 12413,12024 12530,12024 12647,12024 12764,12024 12882,12024 12999,12024 13116,12024 13233,12024 13350,12024 13467,12024 13585,12024 13702,12024 13819,12024 13936,12024 14053,12024 14171,12024 14288,12024 14405,12024 14522,12024 14639,12024 14756,12024 14874,12024 14991,12024 15108,12024 15225,12024 15342,12024 15459,12024 15577,12024 15694,12024 15811,12024 15928,12024 16045,12024 16163,12024 16280,12024 16397,12024 16514,12024 16631,12024 16748,12024 16866,12024 16983,12024 17100,12024 17217,12024 17334,12024 17451,12024 17569,12024 17686,12024 17803,12024 17920,13007 18037,13007 18155,13007 18272,13007 18389,13007"/>
 <path fill="none" stroke="rgb(0,169,51)" stroke-width="80" stroke-linejoin="round" stroke-dasharray="80,40" d="M 1282,23318 L 1399,23312 1516,23312 1634,23307 1751,23301 1868,23301 1985,23301 2102,23301 2220,23301 2337,23289 2454,23284 2571,23272 2688,23249 2805,23238 2923,23238 3040,23226 3157,23203 3274,23151 3391,23140 3508,23083 3626,23002 3743,22922 3860,22876 3977,22790 4094,22715 4212,22589 4329,22416 4446,22330 4563,22290 4680,22135 4797,21997 4915,21922 5032,21819 5149,21687 5266,21526 5383,21423 5500,21337 5618,21262 5735,21147 5852,21026 5969,20883 6086,20722 6204,20492 6321,20320 6438,20257 6555,20102 6672,19907 6789,19746 6907,19631 7024,19591 7141,19516 7258,19436 7375,19321 7492,19217 7610,19120 7727,18993 7844,18873 7961,18821 8078,18735 8196,18672 8313,18511 8430,18385 8547,18258 8664,18120 8781,18074 8899,18017 9016,17954 9133,17885 9250,17805 9367,17747 9484,17690 9602,17627 9719,17609 9836,17546 9953,17448 10070,17426 10188,17368 10305,17293 10422,17236 10539,17219 10656,17161 10773,17058 10891,16926 11008,16914 11125,16800 11242,16708 11359,16685 11476,16633 11594,16535 11711,16403 11827,16352 11944,16311 12061,16225 12179,16168 12296,16116 12413,16024 12530,15944 12647,15771 12764,15668 12882,15599 12999,15542 13116,15525 13233,15433 13350,15312 13467,15220 13585,15122 13702,15088 13819,15071 13936,15036 14053,14927 14171,14847 14288,14761 14405,14675 14522,14646 14639,14617 14756,14594 14874,14554 14991,14474 15108,14422 15225,14359 15342,14324 15459,14307 15577,14278 15694,14209 15811,14175 15928,14112 16045,14071 16163,14037 16280,14003 16397,13985 16514,13934 16631,13899 16748,13848 16866,13825 16983,13773 17100,13733 17217,13704 17334,13669 17451,13601 17569,13514 17686,13474 17803,13445 17920,13388 18037,13382 18155,13348 18272,13244 18389,13141"/>
 <path fill="none" stroke="rgb(131,202,255)" stroke-width="80" stroke-linejoin="round" stroke-dasharray="80,40" d="M 1985,23277 L 2102,23277 2220,23277 2337,23277 2454,23277 2571,23277 2688,23277 2805,23171 2923,23171 3040,23065 3157,23012 3274,23012 3391,23012 3508,23012 3626,22959 3743,22906 3860,22694 3977,22535 4094,22482 4212,22376 4329,22324 4446,22271 4563,22218 4680,22218 4797,22112 4915,22006 5032,21688 5149,21582 5266,21476 5383,21423 5500,21265 5618,20841 5735,20841 5852,20788 5969,20788 6086,20682 6204,20629 6321,20470 6438,20417 6555,20206 6672,19994 6789,19782 6907,19676 7024,19359 7141,19253 7258,19147 7375,19094 7492,18935 7610,18829 7727,18776 7844,18776 7961,18723 8078,18564 8196,18511 8313,18511 8430,18353 8547,18353 8664,18300 8781,18300 8899,18300 9016,18300 9133,18247 9250,18247 9367,18194 9484,18088 9602,18088 9719,18088 9836,18035 9953,17982 10070,17982 10188,17929 10305,17876 10422,17876 10539,17876 10656,17876 10773,17876 10891,17876 11008,17876 11125,17876 11242,17823 11359,17823 11476,17823 11594,17717 11711,17717 11827,17717 11944,17664 12061,17664 12179,17664 12296,17664 12413,17664 12530,17664 12647,17664 12764,17664 12882,17664 12999,17664 13116,17664 13233,17664 13350,17664 13467,17664 13585,17664 13702,17664 13819,17664 13936,17664 14053,17664 14171,17611 14288,17505 14405,17399 14522,17347 14639,17347 14756,17347 14874,17347 14991,17294 15108,17241 15225,17135 15342,17082 15459,17029 15577,17029 15694,16976 15811,16976 15928,16976 16045,16976 16163,16976 16280,16976 16397,16870 16514,16817 16631,16711 16748,16552 16866,16552 16983,16288 17100,16129 17217,15970 17334,15917 17451,15864 17569,15705 17686,15652 17803,15652 17920,15440 18037,15229 18155,15176 18272,15176 18389,15123"/>
 <path fill="none" stroke="rgb(255,191,0)" stroke-width="80" stroke-linejoin="round" d="M 2337,23309 L 2454,23309 2571,23269 2688,23208 2805,23147 2923,23147 3040,23106 3157,23005 3274,22863 3391,22700 3508,22538 3626,22436 3743,22254 3860,22132 3977,21970 4094,21746 4212,21543 4329,21320 4446,21056 4563,20914 4680,20711 4797,20529 4915,20427 5032,20062 5149,19960 5266,19899 5383,19818 5500,19656 5618,19554 5735,19392 5852,19250 5969,19108 6086,19067 6204,18986 6321,18905 6438,18864 6555,18803 6672,18722 6789,18722 6907,18539 7024,18458 7141,18357 7258,18296 7375,18215 7492,18113 7610,18012 7727,17849 7844,17788 7961,17728 8078,17646 8196,17606 8313,17585 8430,17443 8547,17382 8664,17342 8781,17322 8899,17281 9016,17301 9133,17200 9250,17159 9367,17119 9484,16997 9602,16956 9719,16936 9836,16895 9953,16895 10070,16895 10188,16855 10305,16855 10422,16855 10539,16834 10656,16814 10773,16774 10891,16733 11008,16713 11125,16692 11242,16692 11359,16692 11476,16672 11594,16672 11711,16631 11827,16672 11944,16652 12061,16672 12179,16652 12296,16631 12413,16611 12530,16571 12647,16550 12764,16530 12882,16510 12999,16510 13116,16510 13233,16449 13350,16368 13467,16327 13585,16246 13702,16246 13819,16266 13936,16266 14053,16246 14171,16246 14288,16165 14405,16165 14522,16205 14639,16266 14756,16226 14874,16205 14991,16205 15108,16185 15225,16185 15342,16185 15459,16185 15577,16165 15694,16124 15811,16124 15928,16124 16045,16063 16163,16063 16280,16043 16397,16043 16514,16023 16631,15941 16748,15921 16866,15840 16983,15840 17100,15799 17217,15759 17334,15738 17451,15738 17569,15637 17686,15576 17803,15556 17920,15535 18037,15495 18155,15556 18272,15454 18389,15414"/>
 <path fill="none" stroke="rgb(128,0,128)" stroke-width="80" stroke-linejoin="round" stroke-dasharray="80,40" d="M 2220,23250 L 2337,23250 2454,23250 2571,23170 2688,23010 2805,23010 2923,22930 3040,22771 3157,22771 3274,22771 3391,22691 3508,22691 3626,22611 3743,22611 3860,22451 3977,22292 4094,22132 4212,22132 4329,22132 4446,22052 4563,21573 4680,21493 4797,21493 4915,21413 5032,21014 5149,20934 5266,20774 5383,20695 5500,20695 5618,20535 5735,20375 5852,20295 5969,20295 6086,20136 6204,20136 6321,20056 6438,20056 6555,20056 6672,19816 6789,19736 6907,19736 7024,19736 7141,19657 7258,19657 7375,19657 7492,19657 7610,19497 7727,19417 7844,19417 7961,19417 8078,19337 8196,19337 8313,19337 8430,19018 8547,19018 8664,19018 8781,18938 8899,18858 9016,18619 9133,18539 9250,18539 9367,18459 9484,18459 9602,18299 9719,18299 9836,18299 9953,18140 10070,18060 10188,17900 10305,17900 10422,17740 10539,17740 10656,17740 10773,17661 10891,17661 11008,17661 11125,17661 11242,17661 11359,17661 11476,17661 11594,17581 11711,17421 11827,17421 11944,17421 12061,17341 12179,17341 12296,17261 12413,17261 12530,17261 12647,17261 12764,17261 12882,17261 12999,17261 13116,17261 13233,17181 13350,17102 13467,17102 13585,17102 13702,17102 13819,17102 13936,17102 14053,17102 14171,17102 14288,17102 14405,17022 14522,17022 14639,17022 14756,17022 14874,17022 14991,17022 15108,17022 15225,17022 15342,17022 15459,17022 15577,17022 15694,17022 15811,17022 15928,17022 16045,17022 16163,16942 16280,16942 16397,16942 16514,16942 16631,16942 16748,16942 16866,16942 16983,16942 17100,16942 17217,16942 17334,16942 17451,16942 17569,16942 17686,16942 17803,16942 17920,16942 18037,16942 18155,16942 18272,16862 18389,16862"/>
 <path fill="none" stroke="rgb(180,120,4)" stroke-width="80" stroke-linejoin="round" stroke-dasharray="80,40" d="M 1282,23309 L 1399,23267 1516,23246 1634,23246 1751,23225 1868,23225 1985,23204 2102,23204 2220,23058 2337,23017 2454,22975 2571,22912 2688,22871 2805,22787 2923,22746 3040,22662 3157,22537 3274,22433 3391,22308 3508,22287 3626,22224 3743,22016 3860,21911 3977,21807 4094,21682 4212,21640 4329,21599 4446,21515 4563,21411 4680,21390 4797,21286 4915,21265 5032,21223 5149,21202 5266,21140 5383,21077 5500,21036 5618,20973 5735,20910 5852,20806 5969,20806 6086,20723 6204,20619 6321,20619 6438,20535 6555,20493 6672,20452 6789,20431 6907,20410 7024,20410 7141,20347 7258,20327 7375,20285 7492,20285 7610,20264 7727,20243 7844,20201 7961,20181 8078,20181 8196,20181 8313,20160 8430,20097 8547,20076 8664,19993 8781,19951 8899,19930 9016,19889 9133,19889 9250,19868 9367,19826 9484,19805 9602,19764 9719,19764 9836,19743 9953,19722 10070,19722 10188,19680 10305,19680 10422,19680 10539,19680 10656,19597 10773,19597 10891,19597 11008,19576 11125,19576 11242,19576 11359,19576 11476,19534 11594,19513 11711,19513 11827,19513 11944,19513 12061,19513 12179,19513 12296,19492 12413,19472 12530,19430 12647,19409 12764,19388 12882,19367 12999,19367 13116,19367 13233,19367 13350,19367 13467,19346 13585,19346 13702,19346 13819,19346 13936,19346 14053,19326 14171,19326 14288,19326 14405,19326 14522,19326 14639,19326 14756,19326 14874,19305 14991,19305 15108,19305 15225,19305 15342,19305 15459,19305 15577,19305 15694,19305 15811,19305 15928,19305 16045,19284 16163,19284 16280,19284 16397,19263 16514,19221 16631,19159 16748,19138 16866,19138 16983,19138 17100,19117 17217,19117 17334,19096 17451,19096 17569,19096 17686,19034 17803,19034 17920,18992 18037,18971 18155,18971 18272,18950 18389,18950"/>
 <path fill="none" stroke="rgb(0,0,0)" stroke-width="80" stroke-linejoin="round" stroke-dasharray="158,158" d="M 4329,22837 L 4446,22345 4563,22345 4680,21853 4797,21853 4915,21853 5032,21853 5149,21853 5266,21853 5383,21853 5500,21853 5618,21853 5735,21853 5852,21853 5969,21853 6086,21853 6204,21853 6321,21360 6438,21360 6555,21360 6672,21360 6789,21360 6907,21360 7024,21360 7141,21360 7258,21360 7375,21360 7492,20868 7610,20868 7727,20868 7844,20868 7961,20868 8078,20868 8196,20868 8313,20868 8430,20376 8547,20376 8664,20376 8781,20376 8899,20376 9016,20376 9133,20376 9250,20376 9367,20376 9484,20376 9602,20376 9719,20376 9836,20376 9953,20376 10070,19884 10188,19884 10305,18899 10422,18899 10539,18899 10656,18899 10773,18899 10891,18899 11008,18899 11125,18899 11242,18899 11359,18899 11476,18899 11594,18899 11711,18899 11827,18899 11944,18899 12061,18899 12179,18899 12296,18899 12413,18899 12530,18899 12647,18899 12764,18899 12882,18899 12999,18899 13116,18899 13233,18899 13350,18899 13467,18899 13585,18899 13702,18899 13819,18899 13936,18899 14053,18899 14171,18899 14288,18899 14405,18899 14522,18899 14639,18899 14756,18899 14874,18899 14991,18899 15108,18899 15225,18899 15342,18899 15459,18899 15577,18899 15694,18899 15811,18899 15928,18899 16045,18899 16163,18899 16280,18899 16397,18899 16514,18899 16631,18899 16748,18899 16866,18899 16983,18899 17100,18899 17217,18899 17334,18899 17451,18899 17569,18899 17686,18899 17803,18899 17920,18899 18037,18899 18155,18899 18272,18899 18389,18899"/>
 <path fill="none" stroke="rgb(255,191,0)" stroke-width="80" stroke-linejoin="round" stroke-dasharray="158,158" d="M 3743,23214 L 3860,23214 3977,23214 4094,23214 4212,23099 4329,23099 4446,22984 4563,22984 4680,22984 4797,22753 4915,22753 5032,22753 5149,22753 5266,22753 5383,22753 5500,22753 5618,22753 5735,22753 5852,22292 5969,22062 6086,22062 6204,21947 6321,21947 6438,21947 6555,21831 6672,21831 6789,21601 6907,21601 7024,21486 7141,21486 7258,21486 7375,21486 7492,21370 7610,21370 7727,21255 7844,21255 7961,21255 8078,21255 8196,21255 8313,21255 8430,21140 8547,21140 8664,21140 8781,21140 8899,21140 9016,21140 9133,20910 9250,20910 9367,20794 9484,20794 9602,20794 9719,20794 9836,20794 9953,20794 10070,20679 10188,20564 10305,20564 10422,20564 10539,20564 10656,20564 10773,20564 10891,20564 11008,20449 11125,20449 11242,20449 11359,20449 11476,20333 11594,20333 11711,20333 11827,20333 11944,20218 12061,20103 12179,20103 12296,20103 12413,20103 12530,19872 12647,19872 12764,19872 12882,19872 12999,19872 13116,19872 13233,19872 13350,19872 13467,19872 13585,19872 13702,19872 13819,19872 13936,19872 14053,19872 14171,19872 14288,19872 14405,19872 14522,19872 14639,19872 14756,19872 14874,19872 14991,19872 15108,19872 15225,19872 15342,19872 15459,19872 15577,19757 15694,19757 15811,19757 15928,19757 16045,19757 16163,19757 16280,19757 16397,19757 16514,19757 16631,19757 16748,19757 16866,19757 16983,19757 17100,19757 17217,19757 17334,19757 17451,19757 17569,19757 17686,19642 17803,19642 17920,19642 18037,19642 18155,19642 18272,19642 18389,19642"/>
 <path fill="none" stroke="rgb(241,13,12)" stroke-width="80" stroke-linejoin="round" stroke-dasharray="80,40" d="M 2337,23149 L 2454,23149 2571,22789 2688,22789 2805,22789 2923,22429 3040,22429 3157,22429 3274,22069 3391,21889 3508,21709 3626,21529 3743,21349 3860,21349 3977,21709 4094,21709 4212,21709 4329,21709 4446,21529 4563,21529 4680,21529 4797,21349 4915,21169 5032,21169 5149,21169 5266,21169 5383,21169 5500,21169 5618,21169 5735,21169 5852,21169 5969,20989 6086,20989 6204,20809 6321,20809 6438,20809 6555,20629 6672,20629 6789,20629 6907,20629 7024,20629 7141,20629 7258,20629 7375,20629 7492,20629 7610,20629 7727,20629 7844,20629 7961,20629 8078,20449 8196,20449 8313,20449 8430,20269 8547,20269 8664,20269 8781,20269 8899,20269 9016,20269 9133,20269 9250,20269 9367,20269 9484,20269 9602,20269 9719,20269 9836,20269 9953,20269 10070,20269 10188,20269 10305,20269 10422,20269 10539,20269 10656,20269 10773,20269 10891,20269 11008,20269 11125,20269 11242,20089 11359,20089 11476,20089 11594,20089 11711,20089 11827,20089 11944,20089 12061,20089 12179,20089 12296,20089 12413,20089 12530,20089 12647,19909 12764,19909 12882,19909 12999,19909 13116,19909 13233,19909 13350,19909 13467,19909 13585,19909 13702,19909 13819,19909 13936,19909 14053,19909 14171,19909 14288,19909 14405,19909 14522,19909 14639,19909 14756,19909 14874,19909 14991,19909 15108,19909 15225,19909 15342,19909 15459,19909 15577,19909 15694,19909 15811,19909 15928,19909 16045,19909 16163,19909 16280,19909 16397,19909 16514,19909 16631,19909 16748,19909 16866,19909 16983,19909 17100,19909 17217,19909 17334,19909 17451,19909 17569,19909 17686,19909 17803,19909 17920,19909 18037,19909 18155,19909 18272,19909 18389,19909"/>
 <path fill="none" stroke="rgb(0,0,255)" stroke-width="80" stroke-linejoin="round" stroke-dasharray="158,158" d="M 1868,23290 L 1985,23290 2102,23290 2220,23290"/>
 <path fill="none" stroke="rgb(0,0,255)" stroke-width="80" stroke-linejoin="round" stroke-dasharray="158,158" d="M 3508,23290 L 3626,23290 3743,23290 3860,23290 3977,23290 4094,23250 4212,23250 4329,23250 4446,23250 4563,23250 4680,23250 4797,23250 4915,23250 5032,23250 5149,23091 5266,23011 5383,22971 5500,22892 5618,22852 5735,22812 5852,22772 5969,22772 6086,22732 6204,22653 6321,22653 6438,22613 6555,22613 6672,22533 6789,22454 6907,22414 7024,22414 7141,22374 7258,22374 7375,22334 7492,22334 7610,22334 7727,22294 7844,22294 7961,22294 8078,22294 8196,22294 8313,22255 8430,22255 8547,22255 8664,22255 8781,22215 8899,22215 9016,22215 9133,22215 9250,22215 9367,22215 9484,22215 9602,22215 9719,22215 9836,22215 9953,22215 10070,22215 10188,22215 10305,22215 10422,22215 10539,22215 10656,22215 10773,22215 10891,22215 11008,22215 11125,22215 11242,22215 11359,22215 11476,22215 11594,22215 11711,22215 11827,22215 11944,22215 12061,22215 12179,22215 12296,22215 12413,22215 12530,22215 12647,22215 12764,22215 12882,22215 12999,22215 13116,22215 13233,22215 13350,22215 13467,22215 13585,22215 13702,22215 13819,22215 13936,22215 14053,22215 14171,22215 14288,22215 14405,22215 14522,22215 14639,22215 14756,22215 14874,22215 14991,22215 15108,22215 15225,22215 15342,22215 15459,22215 15577,22215 15694,22215 15811,22215 15928,22215 16045,22215 16163,22215 16280,22215 16397,22215 16514,22215 16631,22215 16748,22215 16866,22215 16983,22215 17100,22215 17217,22215 17334,22215 17451,22215 17569,22215 17686,22175 17803,22175 17920,22175 18037,22175 18155,22175 18272,22175 18389,22175"/>
 <text class="TextShape" transform="rotate(-90 1408 24534)"><tspan class="TextParagraph" font-family="Liberation Sans, sans-serif" font-size="388px" font-weight="400"><tspan class="TextPosition" x="1408" y="24534"><tspan fill="rgb(0,0,0)" stroke="none">13.03</tspan></tspan></tspan></text>
 <text class="TextShape" transform="rotate(-90 2228 24534)"><tspan class="TextParagraph" font-family="Liberation Sans, sans-serif" font-size="388px" font-weight="400"><tspan class="TextPosition" x="2228" y="24534"><tspan fill="rgb(0,0,0)" stroke="none">20.03</tspan></tspan></tspan></text>
 <text class="TextShape" transform="rotate(-90 3049 24534)"><tspan class="TextParagraph" font-family="Liberation Sans, sans-serif" font-size="388px" font-weight="400"><tspan class="TextPosition" x="3049" y="24534"><tspan fill="rgb(0,0,0)" stroke="none">27.03</tspan></tspan></tspan></text>
 <text class="TextShape" transform="rotate(-90 3869 24534)"><tspan class="TextParagraph" font-family="Liberation Sans, sans-serif" font-size="388px" font-weight="400"><tspan class="TextPosition" x="3869" y="24534"><tspan fill="rgb(0,0,0)" stroke="none">03.04</tspan></tspan></tspan></text>
 <text class="TextShape" transform="rotate(-90 4689 24534)"><tspan class="TextParagraph" font-family="Liberation Sans, sans-serif" font-size="388px" font-weight="400"><tspan class="TextPosition" x="4689" y="24534"><tspan fill="rgb(0,0,0)" stroke="none">10.04</tspan></tspan></tspan></text>
 <text class="TextShape" transform="rotate(-90 5509 24534)"><tspan class="TextParagraph" font-family="Liberation Sans, sans-serif" font-size="388px" font-weight="400"><tspan class="TextPosition" x="5509" y="24534"><tspan fill="rgb(0,0,0)" stroke="none">17.04</tspan></tspan></tspan></text>
 <text class="TextShape" transform="rotate(-90 6330 24534)"><tspan class="TextParagraph" font-family="Liberation Sans, sans-serif" font-size="388px" font-weight="400"><tspan class="TextPosition" x="6330" y="24534"><tspan fill="rgb(0,0,0)" stroke="none">24.04</tspan></tspan></tspan></text>
 <text class="TextShape" transform="rotate(-90 7150 24534)"><tspan class="TextParagraph" font-family="Liberation Sans, sans-serif" font-size="388px" font-weight="400"><tspan class="TextPosition" x="7150" y="24534"><tspan fill="rgb(0,0,0)" stroke="none">01.05</tspan></tspan></tspan></text>
 <text class="TextShape" transform="rotate(-90 7970 24534)"><tspan class="TextParagraph" font-family="Liberation Sans, sans-serif" font-size="388px" font-weight="400"><tspan class="TextPosition" x="7970" y="24534"><tspan fill="rgb(0,0,0)" stroke="none">08.05</tspan></tspan></tspan></text>
 <text class="TextShape" transform="rotate(-90 8790 24534)"><tspan class="TextParagraph" font-family="Liberation Sans, sans-serif" font-size="388px" font-weight="400"><tspan class="TextPosition" x="8790" y="24534"><tspan fill="rgb(0,0,0)" stroke="none">15.05</tspan></tspan></tspan></text>
 <text class="TextShape" transform="rotate(-90 9610 24534)"><tspan class="TextParagraph" font-family="Liberation Sans, sans-serif" font-size="388px" font-weight="400"><tspan class="TextPosition" x="9610" y="24534"><tspan fill="rgb(0,0,0)" stroke="none">22.05</tspan></tspan></tspan></text>
 <text class="TextShape" transform="rotate(-90 10431 24534)"><tspan class="TextParagraph" font-family="Liberation Sans, sans-serif" font-size="388px" font-weight="400"><tspan class="TextPosition" x="10431" y="24534"><tspan fill="rgb(0,0,0)" stroke="none">29.05</tspan></tspan></tspan></text>
 <text class="TextShape" transform="rotate(-90 11251 24534)"><tspan class="TextParagraph" font-family="Liberation Sans, sans-serif" font-size="388px" font-weight="400"><tspan class="TextPosition" x="11251" y="24534"><tspan fill="rgb(0,0,0)" stroke="none">05.06</tspan></tspan></tspan></text>
 <text class="TextShape" transform="rotate(-90 12070 24534)"><tspan class="TextParagraph" font-family="Liberation Sans, sans-serif" font-size="388px" font-weight="400"><tspan class="TextPosition" x="12070" y="24534"><tspan fill="rgb(0,0,0)" stroke="none">12.06</tspan></tspan></tspan></text>
 <text class="TextShape" transform="rotate(-90 12890 24534)"><tspan class="TextParagraph" font-family="Liberation Sans, sans-serif" font-size="388px" font-weight="400"><tspan class="TextPosition" x="12890" y="24534"><tspan fill="rgb(0,0,0)" stroke="none">19.06</tspan></tspan></tspan></text>
 <text class="TextShape" transform="rotate(-90 13711 24534)"><tspan class="TextParagraph" font-family="Liberation Sans, sans-serif" font-size="388px" font-weight="400"><tspan class="TextPosition" x="13711" y="24534"><tspan fill="rgb(0,0,0)" stroke="none">26.06</tspan></tspan></tspan></text>
 <text class="TextShape" transform="rotate(-90 14531 24534)"><tspan class="TextParagraph" font-family="Liberation Sans, sans-serif" font-size="388px" font-weight="400"><tspan class="TextPosition" x="14531" y="24534"><tspan fill="rgb(0,0,0)" stroke="none">03.07</tspan></tspan></tspan></text>
 <text class="TextShape" transform="rotate(-90 15351 24534)"><tspan class="TextParagraph" font-family="Liberation Sans, sans-serif" font-size="388px" font-weight="400"><tspan class="TextPosition" x="15351" y="24534"><tspan fill="rgb(0,0,0)" stroke="none">10.07</tspan></tspan></tspan></text>
 <text class="TextShape" transform="rotate(-90 16171 24534)"><tspan class="TextParagraph" font-family="Liberation Sans, sans-serif" font-size="388px" font-weight="400"><tspan class="TextPosition" x="16171" y="24534"><tspan fill="rgb(0,0,0)" stroke="none">17.07</tspan></tspan></tspan></text>
 <text class="TextShape" transform="rotate(-90 16992 24534)"><tspan class="TextParagraph" font-family="Liberation Sans, sans-serif" font-size="388px" font-weight="400"><tspan class="TextPosition" x="16992" y="24534"><tspan fill="rgb(0,0,0)" stroke="none">24.07</tspan></tspan></tspan></text>
 <text class="TextShape" transform="rotate(-90 17812 24534)"><tspan class="TextParagraph" font-family="Liberation Sans, sans-serif" font-size="388px" font-weight="400"><tspan class="TextPosition" x="17812" y="24534"><tspan fill="rgb(0,0,0)" stroke="none">31.07</tspan></tspan></tspan></text>
 <text class="TextShape"><tspan class="TextParagraph" font-family="Liberation Sans, sans-serif" font-size="388px" font-weight="400"><tspan class="TextPosition" x="762" y="23458"><tspan fill="rgb(0,0,0)" stroke="none">0</tspan></tspan></tspan></text>
 <text class="TextShape"><tspan class="TextParagraph" font-family="Liberation Sans, sans-serif" font-size="388px" font-weight="400"><tspan class="TextPosition" x="551" y="21284"><tspan fill="rgb(0,0,0)" stroke="none">10</tspan></tspan></tspan></text>
 <text class="TextShape"><tspan class="TextParagraph" font-family="Liberation Sans, sans-serif" font-size="388px" font-weight="400"><tspan class="TextPosition" x="551" y="19110"><tspan fill="rgb(0,0,0)" stroke="none">20</tspan></tspan></tspan></text>
 <text class="TextShape"><tspan class="TextParagraph" font-family="Liberation Sans, sans-serif" font-size="388px" font-weight="400"><tspan class="TextPosition" x="551" y="16937"><tspan fill="rgb(0,0,0)" stroke="none">30</tspan></tspan></tspan></text>
 <text class="TextShape"><tspan class="TextParagraph" font-family="Liberation Sans, sans-serif" font-size="388px" font-weight="400"><tspan class="TextPosition" x="551" y="14763"><tspan fill="rgb(0,0,0)" stroke="none">40</tspan></tspan></tspan></text>
 <text class="TextShape"><tspan class="TextParagraph" font-family="Liberation Sans, sans-serif" font-size="388px" font-weight="400"><tspan class="TextPosition" x="551" y="12590"><tspan fill="rgb(0,0,0)" stroke="none">50</tspan></tspan></tspan></text>
 <text class="TextShape"><tspan class="TextParagraph" font-family="Liberation Sans, sans-serif" font-size="388px" font-weight="400"><tspan class="TextPosition" x="551" y="10416"><tspan fill="rgb(0,0,0)" stroke="none">60</tspan></tspan></tspan></text>
 <text class="TextShape"><tspan class="TextParagraph" font-family="Liberation Sans, sans-serif" font-size="388px" font-weight="400"><tspan class="TextPosition" x="551" y="8242"><tspan fill="rgb(0,0,0)" stroke="none">70</tspan></tspan></tspan></text>
 <text class="TextShape"><tspan class="TextParagraph" font-family="Liberation Sans, sans-serif" font-size="388px" font-weight="400"><tspan class="TextPosition" x="551" y="6069"><tspan fill="rgb(0,0,0)" stroke="none">80</tspan></tspan></tspan></text>
 <text class="TextShape"><tspan class="TextParagraph" font-family="Liberation Sans, sans-serif" font-size="388px" font-weight="400"><tspan class="TextPosition" x="551" y="3895"><tspan fill="rgb(0,0,0)" stroke="none">90</tspan></tspan></tspan></text>
 <text class="TextShape"><tspan class="TextParagraph" font-family="Liberation Sans, sans-serif" font-size="388px" font-weight="400"><tspan class="TextPosition" x="339" y="1722"><tspan fill="rgb(0,0,0)" stroke="none">100</tspan></tspan></tspan></text>
 <text class="TextShape"><tspan class="TextParagraph" font-family="Liberation Sans, sans-serif" font-size="494px" font-weight="700"><tspan class="TextPosition" x="828" y="990"><tspan fill="rgb(0,0,0)" stroke="none">EU - poet obt na milin obyvatel (mtko do 100 na milin obyvatel)</tspan></tspan></tspan></text>
 <path fill="none" stroke="rgb(255,128,0)" stroke-width="80" stroke-linejoin="round" stroke-dasharray="80,40" d="M 18747,2024 L 20347,2024"/>
 <path fill="none" stroke="rgb(128,0,128)" stroke-width="80" stroke-linejoin="round" d="M 18747,2741 L 20347,2741"/>
 <path fill="none" stroke="rgb(131,202,255)" stroke-width="80" stroke-linejoin="round" d="M 18747,3458 L 20347,3458"/>
 <path fill="none" stroke="rgb(255,0,0)" stroke-width="80" stroke-linejoin="round" d="M 18747,4175 L 20347,4175"/>
 <path fill="none" stroke="rgb(0,0,255)" stroke-width="80" stroke-linejoin="round" stroke-dasharray="80,40" d="M 18747,4892 L 20347,4892"/>
 <path fill="none" stroke="rgb(21,132,102)" stroke-width="80" stroke-linejoin="round" stroke-dasharray="51,127,51,127,254,127,254,127,254,127" d="M 18747,5609 L 20347,5609"/>
 <path fill="none" stroke="rgb(129,212,26)" stroke-width="80" stroke-linejoin="round" stroke-dasharray="80,40" d="M 18747,6326 L 20347,6326"/>
 <path fill="none" stroke="rgb(255,128,0)" stroke-width="80" stroke-linejoin="round" d="M 18747,7043 L 20347,7043"/>
 <path fill="none" stroke="rgb(0,0,255)" stroke-width="80" stroke-linejoin="round" stroke-dasharray="51,127,51,127,254,127,254,127,254,127" d="M 18747,7760 L 20347,7760"/>
 <path fill="none" stroke="rgb(0,0,255)" stroke-width="80" stroke-linejoin="round" d="M 18747,8477 L 20347,8477"/>
 <path fill="none" stroke="rgb(128,0,128)" stroke-width="80" stroke-linejoin="round" stroke-dasharray="158,158" d="M 18747,9194 L 20347,9194"/>
 <path fill="none" stroke="rgb(255,0,0)" stroke-width="80" stroke-linejoin="round" stroke-dasharray="158,158" d="M 18747,9911 L 20347,9911"/>
 <path fill="none" stroke="rgb(52,42,6)" stroke-width="80" stroke-linejoin="round" d="M 18747,10628 L 20347,10628"/>
 <path fill="none" stroke="rgb(180,120,4)" stroke-width="80" stroke-linejoin="round" d="M 18747,11345 L 20347,11345"/>
 <path fill="none" stroke="rgb(0,169,51)" stroke-width="80" stroke-linejoin="round" d="M 18747,12062 L 20347,12062"/>
 <path fill="none" stroke="rgb(255,128,0)" stroke-width="80" stroke-linejoin="round" stroke-dasharray="158,158" d="M 18747,12778 L 20347,12778"/>
 <path fill="none" stroke="rgb(0,169,51)" stroke-width="80" stroke-linejoin="round" stroke-dasharray="158,158" d="M 18747,13495 L 20347,13495"/>
 <path fill="none" stroke="rgb(191,0,65)" stroke-width="80" stroke-linejoin="round" stroke-dasharray="51,127,51,127,254,127,254,127,254,127" d="M 18747,14212 L 20347,14212"/>
 <path fill="none" stroke="rgb(131,202,255)" stroke-width="80" stroke-linejoin="round" stroke-dasharray="158,158" d="M 18747,14929 L 20347,14929"/>
 <path fill="none" stroke="rgb(129,212,26)" stroke-width="80" stroke-linejoin="round" stroke-dasharray="158,158" d="M 18747,15646 L 20347,15646"/>
 <path fill="none" stroke="rgb(85,48,141)" stroke-width="80" stroke-linejoin="round" stroke-dasharray="80,40" d="M 18747,16363 L 20347,16363"/>
 <path fill="none" stroke="rgb(0,169,51)" stroke-width="80" stroke-linejoin="round" stroke-dasharray="80,40" d="M 18747,17080 L 20347,17080"/>
 <path fill="none" stroke="rgb(131,202,255)" stroke-width="80" stroke-linejoin="round" stroke-dasharray="80,40" d="M 18747,17797 L 20347,17797"/>
 <path fill="none" stroke="rgb(255,191,0)" stroke-width="80" stroke-linejoin="round" d="M 18747,18514 L 20347,18514"/>
 <path fill="none" stroke="rgb(128,0,128)" stroke-width="80" stroke-linejoin="round" stroke-dasharray="80,40" d="M 18747,19231 L 20347,19231"/>
 <path fill="none" stroke="rgb(180,120,4)" stroke-width="80" stroke-linejoin="round" stroke-dasharray="80,40" d="M 18747,19948 L 20347,19948"/>
 <path fill="none" stroke="rgb(0,0,0)" stroke-width="80" stroke-linejoin="round" stroke-dasharray="158,158" d="M 18747,20665 L 20347,20665"/>
 <path fill="none" stroke="rgb(255,191,0)" stroke-width="80" stroke-linejoin="round" stroke-dasharray="158,158" d="M 18747,21382 L 20347,21382"/>
 <path fill="none" stroke="rgb(241,13,12)" stroke-width="80" stroke-linejoin="round" stroke-dasharray="80,40" d="M 18747,22099 L 20347,22099"/>
 <path fill="none" stroke="rgb(0,0,255)" stroke-width="80" stroke-linejoin="round" stroke-dasharray="158,158" d="M 18747,22816 L 20347,22816"/>
 <text class="TextShape"><tspan class="TextParagraph" font-family="Liberation Sans, sans-serif" font-size="423px" font-weight="400"><tspan class="TextPosition" x="20447" y="2172"><tspan fill="rgb(0,0,0)" stroke="none">Belgie</tspan></tspan></tspan></text>
 <text class="TextShape"><tspan class="TextParagraph" font-family="Liberation Sans, sans-serif" font-size="423px" font-weight="400"><tspan class="TextPosition" x="20447" y="2889"><tspan fill="rgb(0,0,0)" stroke="none">panlsko</tspan></tspan></tspan></text>
 <text class="TextShape"><tspan class="TextParagraph" font-family="Liberation Sans, sans-serif" font-size="423px" font-weight="400"><tspan class="TextPosition" x="20447" y="3606"><tspan fill="rgb(0,0,0)" stroke="none">Itlie</tspan></tspan></tspan></text>
 <text class="TextShape"><tspan class="TextParagraph" font-family="Liberation Sans, sans-serif" font-size="423px" font-weight="400"><tspan class="TextPosition" x="20447" y="4323"><tspan fill="rgb(0,0,0)" stroke="none">vdsko</tspan></tspan></tspan></text>
 <text class="TextShape"><tspan class="TextParagraph" font-family="Liberation Sans, sans-serif" font-size="423px" font-weight="400"><tspan class="TextPosition" x="20447" y="5040"><tspan fill="rgb(0,0,0)" stroke="none">Francie</tspan></tspan></tspan></text>
 <text class="TextShape"><tspan class="TextParagraph" font-family="Liberation Sans, sans-serif" font-size="423px" font-weight="400"><tspan class="TextPosition" x="20447" y="5757"><tspan fill="rgb(0,0,0)" stroke="none">EU_star zem</tspan></tspan></tspan></text>
 <text class="TextShape"><tspan class="TextParagraph" font-family="Liberation Sans, sans-serif" font-size="423px" font-weight="400"><tspan class="TextPosition" x="20447" y="6474"><tspan fill="rgb(0,0,0)" stroke="none">Irsko</tspan></tspan></tspan></text>
 <text class="TextShape"><tspan class="TextParagraph" font-family="Liberation Sans, sans-serif" font-size="423px" font-weight="400"><tspan class="TextPosition" x="20447" y="7191"><tspan fill="rgb(0,0,0)" stroke="none">Nizozemsko</tspan></tspan></tspan></text>
 <text class="TextShape"><tspan class="TextParagraph" font-family="Liberation Sans, sans-serif" font-size="423px" font-weight="400"><tspan class="TextPosition" x="20447" y="7908"><tspan fill="rgb(0,0,0)" stroke="none">EU</tspan></tspan></tspan></text>
 <text class="TextShape"><tspan class="TextParagraph" font-family="Liberation Sans, sans-serif" font-size="423px" font-weight="400"><tspan class="TextPosition" x="20447" y="8625"><tspan fill="rgb(0,0,0)" stroke="none">Luxembursko</tspan></tspan></tspan></text>
 <text class="TextShape"><tspan class="TextParagraph" font-family="Liberation Sans, sans-serif" font-size="423px" font-weight="400"><tspan class="TextPosition" x="20447" y="9342"><tspan fill="rgb(0,0,0)" stroke="none">Portugalsko</tspan></tspan></tspan></text>
 <text class="TextShape"><tspan class="TextParagraph" font-family="Liberation Sans, sans-serif" font-size="423px" font-weight="400"><tspan class="TextPosition" x="20447" y="10059"><tspan fill="rgb(0,0,0)" stroke="none">Rumunsko</tspan></tspan></tspan></text>
 <text class="TextShape"><tspan class="TextParagraph" font-family="Liberation Sans, sans-serif" font-size="423px" font-weight="400"><tspan class="TextPosition" x="20447" y="10776"><tspan fill="rgb(0,0,0)" stroke="none">Nmecko</tspan></tspan></tspan></text>
 <text class="TextShape"><tspan class="TextParagraph" font-family="Liberation Sans, sans-serif" font-size="423px" font-weight="400"><tspan class="TextPosition" x="20447" y="11493"><tspan fill="rgb(0,0,0)" stroke="none">Dnsko</tspan></tspan></tspan></text>
 <text class="TextShape"><tspan class="TextParagraph" font-family="Liberation Sans, sans-serif" font-size="423px" font-weight="400"><tspan class="TextPosition" x="20447" y="12210"><tspan fill="rgb(0,0,0)" stroke="none">Rakousko</tspan></tspan></tspan></text>
 <text class="TextShape"><tspan class="TextParagraph" font-family="Liberation Sans, sans-serif" font-size="423px" font-weight="400"><tspan class="TextPosition" x="20447" y="12926"><tspan fill="rgb(0,0,0)" stroke="none">Maarsko</tspan></tspan></tspan></text>
 <text class="TextShape"><tspan class="TextParagraph" font-family="Liberation Sans, sans-serif" font-size="423px" font-weight="400"><tspan class="TextPosition" x="20447" y="13643"><tspan fill="rgb(0,0,0)" stroke="none">Bulharsko</tspan></tspan></tspan></text>
 <text class="TextShape"><tspan class="TextParagraph" font-family="Liberation Sans, sans-serif" font-size="423px" font-weight="400"><tspan class="TextPosition" x="20447" y="14360"><tspan fill="rgb(0,0,0)" stroke="none">EU_nov zem</tspan></tspan></tspan></text>
 <text class="TextShape"><tspan class="TextParagraph" font-family="Liberation Sans, sans-serif" font-size="423px" font-weight="400"><tspan class="TextPosition" x="20447" y="15077"><tspan fill="rgb(0,0,0)" stroke="none">Slovinsko</tspan></tspan></tspan></text>
 <text class="TextShape"><tspan class="TextParagraph" font-family="Liberation Sans, sans-serif" font-size="423px" font-weight="400"><tspan class="TextPosition" x="20447" y="15794"><tspan fill="rgb(0,0,0)" stroke="none">Finsko</tspan></tspan></tspan></text>
 <text class="TextShape"><tspan class="TextParagraph" font-family="Liberation Sans, sans-serif" font-size="423px" font-weight="400"><tspan class="TextPosition" x="20447" y="16511"><tspan fill="rgb(0,0,0)" stroke="none">Estonsko</tspan></tspan></tspan></text>
 <text class="TextShape"><tspan class="TextParagraph" font-family="Liberation Sans, sans-serif" font-size="423px" font-weight="400"><tspan class="TextPosition" x="20447" y="17228"><tspan fill="rgb(0,0,0)" stroke="none">Polsko</tspan></tspan></tspan></text>
 <text class="TextShape"><tspan class="TextParagraph" font-family="Liberation Sans, sans-serif" font-size="423px" font-weight="400"><tspan class="TextPosition" x="20447" y="17945"><tspan fill="rgb(0,0,0)" stroke="none">Chorvatsko</tspan></tspan></tspan></text>
 <text class="TextShape"><tspan class="TextParagraph" font-family="Liberation Sans, sans-serif" font-size="423px" font-weight="400"><tspan class="TextPosition" x="20447" y="18662"><tspan fill="rgb(0,0,0)" stroke="none">esko</tspan></tspan></tspan></text>
 <text class="TextShape"><tspan class="TextParagraph" font-family="Liberation Sans, sans-serif" font-size="423px" font-weight="400"><tspan class="TextPosition" x="20447" y="19379"><tspan fill="rgb(0,0,0)" stroke="none">Litva</tspan></tspan></tspan></text>
 <text class="TextShape"><tspan class="TextParagraph" font-family="Liberation Sans, sans-serif" font-size="423px" font-weight="400"><tspan class="TextPosition" x="20447" y="20096"><tspan fill="rgb(0,0,0)" stroke="none">ecko</tspan></tspan></tspan></text>
 <text class="TextShape"><tspan class="TextParagraph" font-family="Liberation Sans, sans-serif" font-size="423px" font-weight="400"><tspan class="TextPosition" x="20447" y="20813"><tspan fill="rgb(0,0,0)" stroke="none">Malta</tspan></tspan></tspan></text>
 <text class="TextShape"><tspan class="TextParagraph" font-family="Liberation Sans, sans-serif" font-size="423px" font-weight="400"><tspan class="TextPosition" x="20447" y="21530"><tspan fill="rgb(0,0,0)" stroke="none">Lotysko</tspan></tspan></tspan></text>
 <text class="TextShape"><tspan class="TextParagraph" font-family="Liberation Sans, sans-serif" font-size="423px" font-weight="400"><tspan class="TextPosition" x="20447" y="22247"><tspan fill="rgb(0,0,0)" stroke="none">Kypr</tspan></tspan></tspan></text>
 <text class="TextShape"><tspan class="TextParagraph" font-family="Liberation Sans, sans-serif" font-size="423px" font-weight="400"><tspan class="TextPosition" x="20447" y="22964"><tspan fill="rgb(0,0,0)" stroke="none">Slovensko</tspan></tspan></tspan></text>
</svg>