<?xml version="1.0" encoding="UTF-8"?>
<!DOCTYPE svg PUBLIC "-//W3C//DTD SVG 1.1//EN" "http://www.w3.org/Graphics/SVG/1.1/DTD/svg11.dtd">
<svg width="236mm" height="250mm" viewBox="0 0 23600 25000" version="1.1" xmlns="http://www.w3.org/2000/svg" xmlns:xlink="http://www.w3.org/1999/xlink" stroke-width="28.222" stroke-linejoin="round" xml:space="preserve">
 <path fill="rgb(255,255,255)" stroke="none" d="M 11800,25000 L 0,25000 0,0 23600,0 23600,25000 11800,25000 Z"/>
 <path fill="none" stroke="rgb(179,179,179)" stroke-linejoin="round" d="M 9836,23331 L 1224,23331 1224,1596 18448,1596 18448,23331 9836,23331 Z"/>
 <path fill="none" stroke="rgb(179,179,179)" stroke-linejoin="round" d="M 18448,23330 L 1224,23330"/>
 <path fill="none" stroke="rgb(179,179,179)" stroke-linejoin="round" d="M 18448,20914 L 1224,20914"/>
 <path fill="none" stroke="rgb(179,179,179)" stroke-linejoin="round" d="M 18448,18499 L 1224,18499"/>
 <path fill="none" stroke="rgb(179,179,179)" stroke-linejoin="round" d="M 18448,16084 L 1224,16084"/>
 <path fill="none" stroke="rgb(179,179,179)" stroke-linejoin="round" d="M 18448,13669 L 1224,13669"/>
 <path fill="none" stroke="rgb(179,179,179)" stroke-linejoin="round" d="M 18448,11255 L 1224,11255"/>
 <path fill="none" stroke="rgb(179,179,179)" stroke-linejoin="round" d="M 18448,8840 L 1224,8840"/>
 <path fill="none" stroke="rgb(179,179,179)" stroke-linejoin="round" d="M 18448,6425 L 1224,6425"/>
 <path fill="none" stroke="rgb(179,179,179)" stroke-linejoin="round" d="M 18448,4010 L 1224,4010"/>
 <path fill="none" stroke="rgb(179,179,179)" stroke-linejoin="round" d="M 18448,1595 L 1224,1595"/>
 <path fill="none" stroke="rgb(179,179,179)" stroke-linejoin="round" d="M 1224,23480 L 1224,23330"/>
 <path fill="none" stroke="rgb(179,179,179)" stroke-linejoin="round" d="M 1224,23480 L 1224,23330"/>
 <path fill="none" stroke="rgb(179,179,179)" stroke-linejoin="round" d="M 2049,23480 L 2049,23330"/>
 <path fill="none" stroke="rgb(179,179,179)" stroke-linejoin="round" d="M 2049,23480 L 2049,23330"/>
 <path fill="none" stroke="rgb(179,179,179)" stroke-linejoin="round" d="M 2875,23480 L 2875,23330"/>
 <path fill="none" stroke="rgb(179,179,179)" stroke-linejoin="round" d="M 2875,23480 L 2875,23330"/>
 <path fill="none" stroke="rgb(179,179,179)" stroke-linejoin="round" d="M 3701,23480 L 3701,23330"/>
 <path fill="none" stroke="rgb(179,179,179)" stroke-linejoin="round" d="M 3701,23480 L 3701,23330"/>
 <path fill="none" stroke="rgb(179,179,179)" stroke-linejoin="round" d="M 4527,23480 L 4527,23330"/>
 <path fill="none" stroke="rgb(179,179,179)" stroke-linejoin="round" d="M 4527,23480 L 4527,23330"/>
 <path fill="none" stroke="rgb(179,179,179)" stroke-linejoin="round" d="M 5353,23480 L 5353,23330"/>
 <path fill="none" stroke="rgb(179,179,179)" stroke-linejoin="round" d="M 5353,23480 L 5353,23330"/>
 <path fill="none" stroke="rgb(179,179,179)" stroke-linejoin="round" d="M 6179,23480 L 6179,23330"/>
 <path fill="none" stroke="rgb(179,179,179)" stroke-linejoin="round" d="M 6179,23480 L 6179,23330"/>
 <path fill="none" stroke="rgb(179,179,179)" stroke-linejoin="round" d="M 7004,23480 L 7004,23330"/>
 <path fill="none" stroke="rgb(179,179,179)" stroke-linejoin="round" d="M 7004,23480 L 7004,23330"/>
 <path fill="none" stroke="rgb(179,179,179)" stroke-linejoin="round" d="M 7830,23480 L 7830,23330"/>
 <path fill="none" stroke="rgb(179,179,179)" stroke-linejoin="round" d="M 7830,23480 L 7830,23330"/>
 <path fill="none" stroke="rgb(179,179,179)" stroke-linejoin="round" d="M 8656,23480 L 8656,23330"/>
 <path fill="none" stroke="rgb(179,179,179)" stroke-linejoin="round" d="M 8656,23480 L 8656,23330"/>
 <path fill="none" stroke="rgb(179,179,179)" stroke-linejoin="round" d="M 9482,23480 L 9482,23330"/>
 <path fill="none" stroke="rgb(179,179,179)" stroke-linejoin="round" d="M 9482,23480 L 9482,23330"/>
 <path fill="none" stroke="rgb(179,179,179)" stroke-linejoin="round" d="M 10308,23480 L 10308,23330"/>
 <path fill="none" stroke="rgb(179,179,179)" stroke-linejoin="round" d="M 10308,23480 L 10308,23330"/>
 <path fill="none" stroke="rgb(179,179,179)" stroke-linejoin="round" d="M 11134,23480 L 11134,23330"/>
 <path fill="none" stroke="rgb(179,179,179)" stroke-linejoin="round" d="M 11134,23480 L 11134,23330"/>
 <path fill="none" stroke="rgb(179,179,179)" stroke-linejoin="round" d="M 11959,23480 L 11959,23330"/>
 <path fill="none" stroke="rgb(179,179,179)" stroke-linejoin="round" d="M 11959,23480 L 11959,23330"/>
 <path fill="none" stroke="rgb(179,179,179)" stroke-linejoin="round" d="M 12784,23480 L 12784,23330"/>
 <path fill="none" stroke="rgb(179,179,179)" stroke-linejoin="round" d="M 12784,23480 L 12784,23330"/>
 <path fill="none" stroke="rgb(179,179,179)" stroke-linejoin="round" d="M 13610,23480 L 13610,23330"/>
 <path fill="none" stroke="rgb(179,179,179)" stroke-linejoin="round" d="M 13610,23480 L 13610,23330"/>
 <path fill="none" stroke="rgb(179,179,179)" stroke-linejoin="round" d="M 14436,23480 L 14436,23330"/>
 <path fill="none" stroke="rgb(179,179,179)" stroke-linejoin="round" d="M 14436,23480 L 14436,23330"/>
 <path fill="none" stroke="rgb(179,179,179)" stroke-linejoin="round" d="M 15262,23480 L 15262,23330"/>
 <path fill="none" stroke="rgb(179,179,179)" stroke-linejoin="round" d="M 15262,23480 L 15262,23330"/>
 <path fill="none" stroke="rgb(179,179,179)" stroke-linejoin="round" d="M 16088,23480 L 16088,23330"/>
 <path fill="none" stroke="rgb(179,179,179)" stroke-linejoin="round" d="M 16088,23480 L 16088,23330"/>
 <path fill="none" stroke="rgb(179,179,179)" stroke-linejoin="round" d="M 16914,23480 L 16914,23330"/>
 <path fill="none" stroke="rgb(179,179,179)" stroke-linejoin="round" d="M 16914,23480 L 16914,23330"/>
 <path fill="none" stroke="rgb(179,179,179)" stroke-linejoin="round" d="M 17740,23480 L 17740,23330"/>
 <path fill="none" stroke="rgb(179,179,179)" stroke-linejoin="round" d="M 17740,23480 L 17740,23330"/>
 <path fill="none" stroke="rgb(179,179,179)" stroke-linejoin="round" d="M 1224,23330 L 18448,23330"/>
 <path fill="none" stroke="rgb(179,179,179)" stroke-linejoin="round" d="M 1074,23330 L 1224,23330"/>
 <path fill="none" stroke="rgb(179,179,179)" stroke-linejoin="round" d="M 1074,23330 L 1224,23330"/>
 <path fill="none" stroke="rgb(179,179,179)" stroke-linejoin="round" d="M 1074,20914 L 1224,20914"/>
 <path fill="none" stroke="rgb(179,179,179)" stroke-linejoin="round" d="M 1074,20914 L 1224,20914"/>
 <path fill="none" stroke="rgb(179,179,179)" stroke-linejoin="round" d="M 1074,18499 L 1224,18499"/>
 <path fill="none" stroke="rgb(179,179,179)" stroke-linejoin="round" d="M 1074,18499 L 1224,18499"/>
 <path fill="none" stroke="rgb(179,179,179)" stroke-linejoin="round" d="M 1074,16084 L 1224,16084"/>
 <path fill="none" stroke="rgb(179,179,179)" stroke-linejoin="round" d="M 1074,16084 L 1224,16084"/>
 <path fill="none" stroke="rgb(179,179,179)" stroke-linejoin="round" d="M 1074,13669 L 1224,13669"/>
 <path fill="none" stroke="rgb(179,179,179)" stroke-linejoin="round" d="M 1074,13669 L 1224,13669"/>
 <path fill="none" stroke="rgb(179,179,179)" stroke-linejoin="round" d="M 1074,11255 L 1224,11255"/>
 <path fill="none" stroke="rgb(179,179,179)" stroke-linejoin="round" d="M 1074,11255 L 1224,11255"/>
 <path fill="none" stroke="rgb(179,179,179)" stroke-linejoin="round" d="M 1074,8840 L 1224,8840"/>
 <path fill="none" stroke="rgb(179,179,179)" stroke-linejoin="round" d="M 1074,8840 L 1224,8840"/>
 <path fill="none" stroke="rgb(179,179,179)" stroke-linejoin="round" d="M 1074,6425 L 1224,6425"/>
 <path fill="none" stroke="rgb(179,179,179)" stroke-linejoin="round" d="M 1074,6425 L 1224,6425"/>
 <path fill="none" stroke="rgb(179,179,179)" stroke-linejoin="round" d="M 1074,4010 L 1224,4010"/>
 <path fill="none" stroke="rgb(179,179,179)" stroke-linejoin="round" d="M 1074,4010 L 1224,4010"/>
 <path fill="none" stroke="rgb(179,179,179)" stroke-linejoin="round" d="M 1074,1595 L 1224,1595"/>
 <path fill="none" stroke="rgb(179,179,179)" stroke-linejoin="round" d="M 1074,1595 L 1224,1595"/>
 <path fill="none" stroke="rgb(179,179,179)" stroke-linejoin="round" d="M 1224,23330 L 1224,1595"/>
 <path fill="none" stroke="rgb(255,128,0)" stroke-width="80" stroke-linejoin="round" stroke-dasharray="80,40" d="M 1282,23323 L 1400,23321 1518,23321 1636,23319 1754,23309 1872,23300 1990,23286 2108,23252 2226,23190 2344,23173 2462,23146 2580,23075 2698,22959 2816,22871 2934,22727 3052,22594 3170,22431 3288,22260 3406,21860 3524,21604 3642,21223 3760,20948 3878,20656 3996,20314 4114,19929 4232,19089 4350,18662 4468,18072 4586,17038 4704,16357 4822,15828 4940,15196 5058,14667 5176,14077 5294,13208 5412,12571 5530,11967 5648,11488 5766,11186 5884,10832 6002,10281 6120,9806 6238,9412 6356,8916 6474,8548 6592,8312 6710,8054 6828,7699 6946,7506 7063,7279 7181,7149 7299,6985 7417,6818 7535,6626 7653,5953 7771,5795 7889,5574 8007,5449 8125,5293 8243,5186 8361,5074 8479,4903 8597,4778 8715,4661 8833,4565 8951,4467 9069,4409 9187,4351 9305,4263 9423,4188 9541,4134 9659,4082 9777,3992 9895,3926 10013,3880 10131,3817 10249,3767 10367,3680 10485,3632 10603,3603 10721,3563 10839,3523 10957,3488 11075,3434 11193,3396 11311,3367 11429,3336 11547,3313 11665,3286 11783,3265 11900,3250 12018,3230 12136,3221 12254,3211 12372,3198 12490,3194 12608,3169 12725,3153 12843,3128 12961,3125 13079,3125 13197,3125 13315,3090 13433,3071 13551,3063 13669,3052 13787,3050 13905,3050 14023,3050 14141,3019 14259,3005 14377,2990 14495,2982 14613,2969 14731,2969 14849,2963 14967,2963 15085,2959 15203,2955 15321,2948 15439,2946 15557,2946 15675,2946 15793,2936 15911,2934 16029,2919 16147,2909 16265,2909 16383,2909 16501,2898 16619,2898 16737,2892 16855,2884 16973,2873 17091,2865 17209,2865 17327,2863 17445,2840 17563,2834 17681,2825 17799,2823 17917,2815 18035,2815 18153,2805 18271,2800 18389,2786"/>
 <path fill="none" stroke="rgb(128,0,128)" stroke-width="80" stroke-linejoin="round" d="M 1282,23261 L 1400,23229 1518,23180 1636,23153 1754,23054 1872,23008 1990,22901 2108,22791 2226,22619 2344,22414 2462,22136 2580,21879 2698,21446 2816,21075 2934,20675 3052,20240 3170,19815 3288,19344 3406,18957 3524,18481 3642,17984 3760,17545 3878,17158 3996,16800 4114,16438 4232,16075 4350,15689 4468,15350 4586,15023 4704,14752 4822,14440 4940,14158 5058,14003 5176,13666 5294,13352 5412,12997 5530,12976 5648,12765 5766,12558 5884,12337 6002,12113 6120,11885 6238,11696 6356,11501 6474,11352 6592,11181 6710,11025 6828,10791 6946,10653 7063,10653 7181,10365 7299,10280 7417,10196 7535,10100 7653,9974 7771,9864 7889,9746 8007,9653 8125,9579 8243,9516 8361,9425 8479,9330 8597,9218 8715,9147 8833,9093 8951,9093 9069,9017 9187,8982 9305,8925 9423,8898 9541,8543 9659,8517 9777,8479 9895,9469 10013,9323 10131,9323 10249,9322 10367,9321 10485,9319 10603,9318 10721,9318 10839,9318 10957,9318 11075,9315 11193,9314 11311,9314 11429,9313 11547,9313 11665,9313 11783,9313 11900,9313 12018,9313 12136,9313 12254,9313 12372,9313 12490,9313 12608,9313 12725,9313 12843,8704 12961,8701 13079,8700 13197,8700 13315,8699 13433,8698 13551,8697 13669,8693 13787,8691 13905,8690 14023,8688 14141,8684 14259,8679 14377,8677 14495,8668 14613,8668 14731,8668 14849,8667 14967,8665 15085,8663 15203,8660 15321,8659 15439,8659 15557,8659 15675,8657 15793,8656 15911,8654 16029,8652 16147,8650 16265,8650 16383,8650 16501,8649 16619,8648 16737,8647 16855,8646 16973,8644 17091,8644 17209,8644 17327,8643 17445,8642 17563,8639 17681,8638 17799,8637 17917,8637 18035,8637 18153,8623 18271,8610 18389,8609"/>
 <path fill="none" stroke="rgb(131,202,255)" stroke-width="80" stroke-linejoin="round" d="M 1282,22824 L 1400,22754 1518,22607 1636,22467 1754,22330 1872,22140 1990,21969 2108,21719 2226,21402 2344,21142 2462,20902 2580,20605 2698,20332 2816,20048 2934,19681 3052,19326 3170,19024 3288,18700 3406,18365 3524,18075 3642,17771 3760,17465 3878,17193 3996,16984 4114,16729 4232,16488 4350,16272 4468,16028 4586,15800 4704,15553 4822,15381 4940,15155 5058,14914 5176,14684 5294,14474 5412,14244 5530,14052 5648,13879 5766,13697 5884,13484 6002,13309 6120,13124 6238,12956 6356,12791 6474,12687 6592,12554 6710,12402 6828,12273 6946,12159 7063,12052 7181,11862 7299,11793 7417,11715 7535,11621 7653,11473 7771,11364 7889,11267 8007,11189 8125,11123 8243,11052 8361,10983 8479,10905 8597,10801 8715,10704 8833,10643 8951,10585 9069,10545 9187,10481 9305,10416 9423,10354 9541,10302 9659,10255 9777,10235 9895,10198 10013,10167 10131,10120 10249,10092 10367,10057 10485,10013 10603,9983 10721,9959 10839,9937 10957,9909 11075,9874 11193,9840 11311,9811 11429,9790 11547,9764 11665,9732 11783,9704 11900,9683 12018,9660 12136,9629 12254,9612 12372,9601 12490,9588 12608,9570 12725,9544 12843,9525 12961,9506 13079,9496 13197,9487 13315,9480 13433,9492 13551,9479 13669,9467 13787,9463 13905,9455 14023,9452 14141,9443 14259,9435 14377,9423 14495,9417 14613,9408 14731,9405 14849,9402 14967,9390 15085,9384 15203,9380 15321,9375 15439,9372 15557,9368 15675,9363 15793,9356 15911,9351 16029,9343 16147,9339 16265,9333 16383,9332 16501,9327 16619,9321 16737,9317 16855,9313 16973,9311 17091,9309 17209,9307 17327,9305 17445,9301 17563,9298 17681,9297 17799,9294 17917,9292 18035,9288 18153,9284 18271,9282 18389,9278"/>
 <path fill="none" stroke="rgb(255,0,0)" stroke-width="80" stroke-linejoin="round" d="M 1282,23327 L 1400,23325 1518,23322 1636,23315 1754,23313 1872,23306 1990,23303 2108,23291 2226,23282 2344,23279 2462,23270 2580,23243 2698,23181 2816,23145 2934,23078 3052,23078 3170,23066 3288,22980 3406,22899 3524,22758 3642,22593 3760,22473 3878,22438 3996,22371 4114,22189 4232,21916 4350,21687 4468,21433 4586,21249 4704,21208 4822,21180 4940,21132 5058,20859 5176,20453 5294,20142 5412,19982 5530,19716 5648,19647 5766,19551 5884,19109 6002,18697 6120,18497 6238,18183 6356,18088 6474,18083 6592,17892 6710,17698 6828,17442 6946,17145 7063,16985 7181,16947 7299,16923 7417,16708 7535,16505 7653,16296 7771,16060 7889,15737 8007,15629 8125,15617 8243,15543 8361,15407 8479,15055 8597,14890 8715,14611 8833,14544 8951,14532 9069,14486 9187,14379 9305,14168 9423,14072 9541,13943 9659,13783 9777,13769 9895,13695 10013,13465 10131,13238 10249,13128 10367,12927 10485,12819 10603,12819 10721,12800 10839,12645 10957,12469 11075,12421 11193,12237 11311,12196 11429,12189 11547,12105 11665,12050 11783,11864 11900,11818 12018,11723 12136,11675 12254,11675 12372,11634 12490,11520 12608,11276 12725,11247 12843,11123 12961,11113 13079,11108 13197,11082 13315,10989 13433,10874 13551,10824 13669,10704 13787,10704 13905,10704 14023,10632 14141,10577 14259,10489 14377,10391 14495,10369 14613,10369 14731,10369 14849,10338 14967,10305 15085,10221 15203,10178 15321,10116 15439,10116 15557,10116 15675,10092 15793,10070 15911,10006 16029,9956 16147,9893 16265,9893 16383,9893 16501,9846 16619,9829 16737,9779 16855,9757 16973,9707 17091,9707 17209,9707 17327,9700 17445,9695 17563,9628 17681,9606 17799,9597 17917,9597 18035,9597 18153,9594 18271,9587 18389,9556"/>
 <path fill="none" stroke="rgb(0,0,255)" stroke-width="80" stroke-linejoin="round" stroke-dasharray="80,40" d="M 1282,23301 L 1400,23297 1518,23297 1636,23277 1754,23277 1872,23277 1990,23243 2108,23170 2226,23130 2344,23090 2462,23024 2580,22939 2698,22857 2816,22728 2934,22622 3052,22508 3170,22404 3288,22255 3406,22077 3524,21765 3642,21416 3760,21018 3878,20645 3996,20461 4114,20165 4232,19663 4350,19470 4468,18995 4586,18645 4704,18420 4822,18221 4940,18017 5058,17753 5176,17243 5294,16976 5412,16707 5530,16479 5648,16339 5766,16145 5884,15957 6002,15764 6120,15581 6238,15443 6356,15312 6474,15226 6592,15071 6710,14941 6828,14790 6946,14688 7063,14610 7181,14551 7299,14503 7417,14395 7535,14277 7653,14180 7771,14117 7889,14030 8007,14002 8125,13977 8243,13884 8361,13761 8479,13731 8597,13607 8715,13570 8833,13570 8951,13365 9069,13318 9187,13395 9305,13356 9423,13327 9541,13300 9659,13285 9777,13273 9895,13241 10013,13215 10131,13192 10249,13168 10367,13150 10485,13130 10603,13119 10721,13108 10839,13070 10957,13041 11075,13025 11193,13009 11311,12998 11429,12994 11547,12974 11665,12944 11783,12935 11900,12926 12018,12916 12136,12907 12254,12904 12372,12894 12490,12855 12608,12845 12725,12835 12843,12830 12961,12824 13079,12822 13197,12813 13315,12793 13433,12789 13551,12782 13669,12773 13787,12773 13905,12773 14023,12760 14141,12750 14259,12743 14377,12738 14495,12732 14613,12732 14731,12732 14849,12722 14967,12718 15085,12718 15203,12701 15321,12693 15439,12693 15557,12693 15675,12684 15793,12684 15911,12651 16029,12645 16147,12640 16265,12640 16383,12640 16501,12631 16619,12635 16737,12633 16855,12629 16973,12626 17091,12626 17209,12626 17327,12620 17445,12615 17563,12615 17681,12610 17799,12600 17917,12600 18035,12600 18153,12600 18271,12590 18389,12590"/>
 <path fill="none" stroke="rgb(21,132,102)" stroke-width="80" stroke-linejoin="round" stroke-dasharray="51,127,51,127,254,127,254,127,254,127" d="M 1282,23224 L 1400,23206 1518,23173 1636,23139 1754,23099 1872,23058 1990,23003 2108,22924 2226,22830 2344,22744 2462,22643 2580,22528 2698,22389 2816,22245 2934,22082 3052,21916 3170,21759 3288,21581 3406,21392 3524,21177 3642,20940 3760,20707 3878,20493 3996,20333 4114,20135 4232,19869 4350,19677 4468,19432 4586,19212 4704,19048 4822,18885 4940,18719 5058,18555 5176,18281 5294,18073 5412,17865 5530,17731 5648,17605 5766,17461 5884,17297 6002,17133 6120,16975 6238,16829 6356,16704 6474,16620 6592,16512 6710,16400 6828,16269 6946,16173 7063,16107 7181,16001 7299,15948 7417,15875 7535,15800 7653,15683 7771,15605 7889,15521 8007,15472 8125,15436 8243,15381 8361,15312 8479,15249 8597,15176 8715,15123 8833,15092 8951,15033 9069,14998 9187,14982 9305,14937 9423,14903 9541,14831 9659,14803 9777,14785 9895,14899 10013,14852 10131,14823 10249,14800 10367,14775 10485,14753 10603,14742 10721,14731 10839,14711 10957,14690 11075,14673 11193,14653 11311,14640 11429,14633 11547,14619 11665,14600 11783,14585 11900,14574 12018,14563 12136,14553 12254,14547 12372,14541 12490,14525 12608,14509 12725,14498 12843,14406 12961,14399 13079,14396 13197,14391 13315,14380 13433,14375 13551,14368 13669,14357 13787,14355 13905,14352 14023,14346 14141,14337 14259,14330 14377,14321 14495,14315 14613,14312 14731,14310 14849,14306 14967,14300 15085,14295 15203,14287 15321,14282 15439,14280 15557,14279 15675,14275 15793,14272 15911,14261 16029,14255 16147,14250 16265,14249 16383,14249 16501,14244 16619,14242 16737,14238 16855,14234 16973,14229 17091,14228 17209,14226 17327,14225 17445,14221 17563,14217 17681,14214 17799,14210 17917,14209 18035,14208 18153,14204 18271,14199 18389,14195"/>
 <path fill="none" stroke="rgb(129,212,26)" stroke-width="80" stroke-linejoin="round" stroke-dasharray="80,40" d="M 1282,23325 L 1400,23320 1518,23320 1636,23320 1754,23320 1872,23320 1990,23315 2108,23315 2226,23315 2344,23310 2462,23300 2580,23295 2698,23285 2816,23237 2934,23222 3052,23153 3170,23105 3288,23065 3406,22982 3524,22914 3642,22850 3760,22743 3878,22659 3996,22557 4114,22478 4232,22302 4350,22180 4468,22043 4586,21926 4704,21764 4822,21696 4940,21544 5058,21344 5176,21158 5294,20952 5412,20737 5530,20537 5648,20346 5766,19969 5884,19759 6002,19568 6120,19446 6238,18370 6356,18130 6474,18013 6592,17940 6710,17661 6828,17509 6946,17304 7063,17142 7181,17040 7299,16956 7417,16878 7535,16780 7653,16604 7771,16467 7889,16340 8007,16257 8125,16198 8243,16154 8361,16052 8479,16008 8597,15964 8715,15905 8833,15831 8951,15783 9069,15763 9187,15695 9305,15646 9423,15587 9541,15543 9659,15484 9777,15465 9895,15474 10013,15430 10131,15352 10249,15313 10367,15284 10485,15254 10603,15249 10721,15259 10839,15220 10957,15215 11075,15191 11193,15161 11311,15122 11429,15117 11547,15098 11665,15059 11783,15039 11900,15000 12018,14990 12136,14990 12254,14985 12372,14985 12490,14971 12608,14966 12725,14946 12843,14946 12961,14941 13079,14941 13197,14932 13315,14917 13433,14887 13551,14883 13669,14868 13787,14848 13905,14843 14023,14843 14141,14839 14259,14829 14377,14829 14495,14819 14613,14814 14731,14814 14849,14814 14967,14809 15085,14829 15203,14804 15321,14799 15439,14790 15557,14790 15675,14790 15793,14790 15911,14780 16029,14775 16147,14760 16265,14755 16383,14755 16501,14755 16619,14755 16737,14751 16855,14707 16973,14707 17091,14702 17209,14702 17327,14702 17445,14702 17563,14702 17681,14707 17799,14707 17917,14707 18035,14707 18153,14707 18271,14707 18389,14707"/>
 <path fill="none" stroke="rgb(255,128,0)" stroke-width="80" stroke-linejoin="round" d="M 1282,23316 L 1400,23313 1518,23302 1636,23296 1754,23270 1872,23249 1990,23223 2108,23181 2226,23140 2344,23080 2462,23033 2580,22946 2698,22835 2816,22727 2934,22572 3052,22444 3170,22261 3288,22132 3406,21890 3524,21703 3642,21473 3760,21267 3878,21037 3996,20878 4114,20736 4232,20412 4350,20208 4468,20003 4586,19841 4704,19657 4822,19527 4940,19408 5058,19239 5176,18976 5294,18725 5412,18525 5530,18329 5648,18212 5766,18120 5884,17891 6002,17699 6120,17527 6238,17372 6356,17206 6474,17113 6592,17054 6710,16987 6828,16787 6946,16670 7063,16535 7181,16405 7299,16309 7417,16273 7535,16153 7653,16103 7771,15985 7889,15887 8007,15798 8125,15774 8243,15751 8361,15677 8479,15605 8597,15566 8715,15493 8833,15455 8951,15441 9069,15422 9187,15393 9305,15347 9423,15310 9541,15292 9659,15260 9777,15245 9895,15234 10013,15198 10131,15177 10249,15133 10367,15094 10485,15066 10603,15059 10721,15051 10839,15044 10957,15030 11075,15012 11193,14992 11311,14983 11429,14980 11547,14976 11665,14956 11783,14940 11900,14938 12018,14925 12136,14920 12254,14917 12372,14908 12490,14902 12608,14896 12725,14890 12843,14886 12961,14875 13079,14874 13197,14874 13315,14867 13433,14864 13551,14860 13669,14856 13787,14853 13905,14853 14023,14850 14141,14842 14259,14839 14377,14835 14495,14832 14613,14824 14731,14823 14849,14821 14967,14816 15085,14812 15203,14809 15321,14810 15439,14809 15557,14809 15675,14809 15793,14812 15911,14810 16029,14809 16147,14807 16265,14810 16383,14810 16501,14810 16619,14810 16737,14806 16855,14806 16973,14806 17091,14805 17209,14778 17327,14803 17445,14798 17563,14795 17681,14795 17799,14795 17917,14794 18035,14791 18153,14791 18271,14789 18389,14785"/>
 <path fill="none" stroke="rgb(0,0,255)" stroke-width="80" stroke-linejoin="round" stroke-dasharray="51,127,51,127,254,127,254,127,254,127" d="M 1282,23248 L 1400,23234 1518,23209 1636,23183 1754,23152 1872,23120 1990,23078 2108,23017 2226,22945 2344,22878 2462,22800 2580,22710 2698,22603 2816,22491 2934,22366 3052,22237 3170,22114 3288,21976 3406,21829 3524,21661 3642,21476 3760,21294 3878,21126 3996,21001 4114,20845 4232,20637 4350,20485 4468,20292 4586,20120 4704,19990 4822,19860 4940,19730 5058,19599 5176,19384 5294,19220 5412,19057 5530,18951 5648,18849 5766,18734 5884,18605 6002,18474 6120,18348 6238,18231 6356,18131 6474,18064 6592,17977 6710,17886 6828,17781 6946,17703 7063,17649 7181,17564 7299,17521 7417,17461 7535,17400 7653,17306 7771,17243 7889,17174 8007,17134 8125,17103 8243,17058 8361,17002 8479,16949 8597,16890 8715,16847 8833,16821 8951,16774 9069,16744 9187,16730 9305,16694 9423,16665 9541,16608 9659,16585 9777,16570 9895,16655 10013,16617 10131,16593 10249,16574 10367,16553 10485,16534 10603,16525 10721,16515 10839,16497 10957,16479 11075,16465 11193,16447 11311,16436 11429,16429 11547,16417 11665,16400 11783,16387 11900,16378 12018,16368 12136,16358 12254,16352 12372,16345 12490,16332 12608,16317 12725,16306 12843,16233 12961,16226 13079,16222 13197,16217 13315,16206 13433,16200 13551,16193 13669,16182 13787,16180 13905,16176 14023,16169 14141,16160 14259,16152 14377,16144 14495,16137 14613,16132 14731,16130 14849,16125 14967,16118 15085,16112 15203,16104 15321,16098 15439,16095 15557,16093 15675,16088 15793,16083 15911,16074 16029,16067 16147,16062 16265,16059 16383,16057 16501,16052 16619,16048 16737,16042 16855,16037 16973,16031 17091,16028 17209,16025 17327,16022 17445,16017 17563,16011 17681,16005 17799,15998 17917,15995 18035,15991 18153,15986 18271,15979 18389,15972"/>
 <path fill="none" stroke="rgb(0,0,255)" stroke-width="80" stroke-linejoin="round" d="M 1400,23291 L 1518,23291 1636,23291 1754,23291 1872,23252 1990,23175 2108,23175 2226,23021 2344,23021 2462,23021 2580,23021 2698,23021 2816,22982 2934,22751 3052,22635 3170,22519 3288,22481 3406,22442 3524,22211 3642,22172 3760,22133 3878,22133 3996,21941 4114,21748 4232,21632 4350,21555 4468,21323 4586,21246 4704,20937 4822,20783 4940,20667 5058,20745 5176,20667 5294,20667 5412,20552 5530,20552 5648,20513 5766,20436 5884,20320 6002,20243 6120,20127 6238,20050 6356,20050 6474,19934 6592,19934 6710,19896 6828,19896 6946,19857 7063,19780 7181,19780 7299,19626 7417,19626 7535,19626 7653,19549 7771,19471 7889,19471 8007,19433 8125,19433 8243,19433 8361,19394 8479,19356 8597,19356 8715,19317 8833,19317 8951,19201 9069,19201 9187,19124 9305,19124 9423,19124 9541,19124 9659,19124 9777,19086 9895,19086 10013,19086 10131,19086 10249,19086 10367,19086 10485,19086 10603,19086 10721,19086 10839,19086 10957,19086 11075,19086 11193,19086 11311,19086 11429,19086 11547,19086 11665,19086 11783,19086 11900,19086 12018,19086 12136,19086 12254,19086 12372,19086 12490,19086 12608,19086 12725,19086 12843,19086 12961,19086 13079,19086 13197,19086 13315,19086 13433,19086 13551,19086 13669,19086 13787,19086 13905,19086 14023,19086 14141,19086 14259,19086 14377,19086 14495,19086 14613,19086 14731,19086 14849,19086 14967,19086 15085,19086 15203,19086 15321,19086 15439,19086 15557,19047 15675,19047 15793,19047 15911,19047 16029,19047 16147,19047 16265,19047 16383,19047 16501,19047 16619,19047 16737,19047 16855,19008 16973,19008 17091,19008 17209,19008 17327,19008 17445,18970 17563,18931 17681,18931 17799,18931 17917,18854 18035,18815 18153,18777 18271,18777 18389,18777"/>
 <path fill="none" stroke="rgb(128,0,128)" stroke-width="80" stroke-linejoin="round" stroke-dasharray="158,158" d="M 1754,23327 L 1872,23325 1990,23322 2108,23315 2226,23301 2344,23296 2462,23275 2580,23251 2698,23228 2816,23187 2934,23149 3052,23093 3170,23048 3288,22998 3406,22951 3524,22887 3642,22834 3760,22747 3878,22699 3996,22631 4114,22593 4232,22512 4350,22429 4468,22361 4586,22299 4704,22216 4822,22136 4940,22062 5058,21987 5176,21911 5294,21840 5412,21773 5530,21702 5648,21638 5766,21589 5884,21525 6002,21470 6120,21387 6238,21307 6356,21245 6474,21191 6592,21132 6710,21084 6828,21025 6946,20987 7063,20944 7181,20907 7299,20859 7417,20812 7535,20786 7653,20750 7771,20712 7889,20691 8007,20663 8125,20641 8243,20620 8361,20575 8479,20546 8597,20525 8715,20511 8833,20480 8951,20445 9069,20414 9187,20376 9305,20338 9423,20305 9541,20276 9659,20246 9777,20213 9895,20179 10013,20151 10131,20118 10249,20087 10367,20054 10485,20023 10603,19990 10721,19957 10839,19928 10957,19902 11075,19883 11193,19860 11311,19838 11429,19826 11547,19812 11665,19796 11783,19784 11900,19767 12018,19765 12136,19748 12254,19736 12372,19729 12490,19725 12608,19722 12725,19720 12843,19713 12961,19710 13079,19706 13197,19696 13315,19682 13433,19675 13551,19661 13669,19646 13787,19632 13905,19625 14023,19616 14141,19597 14259,19590 14377,19571 14495,19545 14613,19528 14731,19507 14849,19492 14967,19471 15085,19466 15203,19436 15321,19431 15439,19412 15557,19398 15675,19393 15793,19379 15911,19360 16029,19353 16147,19346 16265,19341 16383,19329 16501,19324 16619,19310 16737,19298 16855,19291 16973,19275 17091,19265 17209,19263 17327,19258 17445,19251 17563,19244 17681,19239 17799,19220 17917,19215 18035,19213 18153,19213 18271,19211 18389,19208"/>
 <path fill="none" stroke="rgb(255,0,0)" stroke-width="80" stroke-linejoin="round" stroke-dasharray="158,158" d="M 2344,23326 L 2462,23321 2580,23316 2698,23308 2816,23301 2934,23297 3052,23283 3170,23276 3288,23248 3406,23227 3524,23214 3642,23185 3760,23163 3878,23146 3996,23140 4114,23109 4232,23082 4350,23053 4468,23018 4586,22991 4704,22964 4822,22933 4940,22914 5058,22889 5176,22862 5294,22837 5412,22814 5530,22801 5648,22763 5766,22729 5884,22704 6002,22672 6120,22645 6238,22618 6356,22575 6474,22552 6592,22525 6710,22497 6828,22460 6946,22429 7063,22395 7181,22362 7299,22338 7417,22303 7535,22274 7653,22245 7771,22215 7889,22171 8007,22151 8125,22123 8243,22097 8361,22072 8479,22029 8597,22008 8715,21986 8833,21956 8951,21940 9069,21923 9187,21902 9305,21890 9423,21878 9541,21866 9659,21853 9777,21842 9895,21817 10013,21803 10131,21789 10249,21779 10367,21763 10485,21749 10603,21740 10721,21728 10839,21713 10957,21702 11075,21691 11193,21677 11311,21670 11429,21656 11547,21649 11665,21630 11783,21622 11900,21611 12018,21597 12136,21579 12254,21559 12372,21538 12490,21525 12608,21508 12725,21480 12843,21466 12961,21446 13079,21431 13197,21418 13315,21397 13433,21377 13551,21365 13669,21347 13787,21335 13905,21306 14023,21278 14141,21257 14259,21237 14377,21212 14495,21185 14613,21156 14731,21133 14849,21110 14967,21071 15085,21048 15203,21027 15321,21011 15439,20981 15557,20964 15675,20943 15793,20905 15911,20879 16029,20855 16147,20834 16265,20807 16383,20786 16501,20771 16619,20726 16737,20692 16855,20661 16973,20630 17091,20612 17209,20584 17327,20560 17445,20519 17563,20481 17681,20437 17799,20388 17917,20343 18035,20300 18153,20276 18271,20216 18389,20165"/>
 <path fill="none" stroke="rgb(52,42,6)" stroke-width="80" stroke-linejoin="round" d="M 1282,23327 L 1400,23327 1518,23326 1636,23325 1754,23323 1872,23321 1990,23317 2108,23310 2226,23305 2344,23302 2462,23294 2580,23284 2698,23270 2816,23253 2934,23231 3052,23205 3170,23176 3288,23144 3406,23106 3524,23064 3642,23010 3760,22962 3878,22913 3996,22873 4114,22808 4232,22748 4350,22652 4468,22578 4586,22532 4704,22541 4822,22458 4940,22409 5058,22380 5176,22233 5294,22161 5412,22075 5530,22044 5648,22008 5766,21928 5884,21879 6002,21808 6120,21722 6238,21669 6356,21635 6474,21607 6592,21564 6710,21509 6828,21465 6946,21420 7063,21388 7181,21366 7299,21350 7417,21314 7535,21314 7653,21232 7771,21199 7889,21165 8007,21153 8125,21148 8243,21121 8361,21099 8479,21064 8597,21057 8715,21053 8833,21041 8951,21034 9069,21023 9187,21000 9305,20982 9423,20965 9541,20958 9659,20948 9777,20942 9895,20934 10013,20916 10131,20900 10249,20888 10367,20878 10485,20871 10603,20868 10721,20863 10839,20861 10957,20850 11075,20840 11193,20834 11311,20829 11429,20826 11547,20823 11665,20811 11783,20807 11900,20801 12018,20798 12136,20795 12254,20793 12372,20791 12490,20787 12608,20778 12725,20771 12843,20768 12961,20765 13079,20765 13197,20764 13315,20760 13433,20756 13551,20753 13669,20745 13787,20744 13905,20744 14023,20742 14141,20738 14259,20737 14377,20733 14495,20732 14613,20729 14731,20729 14849,20729 14967,20726 15085,20722 15203,20719 15321,20717 15439,20715 15557,20715 15675,20714 15793,20713 15911,20712 16029,20710 16147,20710 16265,20709 16383,20709 16501,20708 16619,20707 16737,20706 16855,20704 16973,20701 17091,20699 17209,20699 17327,20699 17445,20697 17563,20696 17681,20694 17799,20693 17917,20691 18035,20691 18153,20691 18271,20688 18389,20684"/>
 <path fill="none" stroke="rgb(180,120,4)" stroke-width="80" stroke-linejoin="round" d="M 1400,23325 L 1518,23321 1636,23317 1754,23313 1872,23313 1990,23305 2108,23293 2226,23276 2344,23276 2462,23231 2580,23198 2698,23190 2816,23162 2934,23117 3052,23063 3170,23035 3288,23014 3406,22961 3524,22904 3642,22826 3760,22760 3878,22670 3996,22597 4114,22564 4232,22498 4350,22437 4468,22359 4586,22318 4704,22265 4822,22212 4940,22162 5058,22105 5176,22064 5294,22015 5412,21954 5530,21913 5648,21876 5766,21839 5884,21814 6002,21757 6120,21716 6238,21679 6356,21618 6474,21601 6592,21581 6710,21552 6828,21515 6946,21479 7063,21446 7181,21384 7299,21348 7417,21311 7535,21270 7653,21257 7771,21225 7889,21192 8007,21176 8125,21163 8243,21147 8361,21171 8479,21147 8597,21131 8715,21131 8833,21106 8951,21090 9069,21085 9187,21073 9305,21061 9423,21032 9541,21032 9659,21032 9777,21028 9895,21024 10013,21024 10131,21016 10249,21004 10367,21004 10485,20991 10603,20979 10721,20971 10839,20954 10957,20954 11075,20946 11193,20930 11311,20926 11429,20918 11547,20901 11665,20901 11783,20901 11900,20901 12018,20897 12136,20885 12254,20885 12372,20881 12490,20881 12608,20881 12725,20873 12843,20873 12961,20873 13079,20873 13197,20864 13315,20860 13433,20860 13551,20860 13669,20856 13787,20856 13905,20856 14023,20852 14141,20852 14259,20848 14377,20848 14495,20848 14613,20848 14731,20848 14849,20844 14967,20836 15085,20836 15203,20836 15321,20836 15439,20836 15557,20836 15675,20832 15793,20832 15911,20832 16029,20832 16147,20828 16265,20828 16383,20828 16501,20828 16619,20828 16737,20828 16855,20823 16973,20819 17091,20819 17209,20819 17327,20819 17445,20819 17563,20815 17681,20811 17799,20811 17917,20811 18035,20811 18153,20807 18271,20807 18389,20807"/>
 <path fill="none" stroke="rgb(0,169,51)" stroke-width="80" stroke-linejoin="round" d="M 1282,23327 L 1400,23327 1518,23327 1636,23321 1754,23321 1872,23319 1990,23313 2108,23313 2226,23308 2344,23287 2462,23273 2580,23254 2698,23249 2816,23198 2934,23174 3052,23147 3170,23099 3288,23040 3406,22986 3524,22938 3642,22906 3760,22879 3878,22831 3996,22782 4114,22740 4232,22678 4350,22597 4468,22538 4586,22474 4704,22426 4822,22391 4940,22343 5058,22300 5176,22276 5294,22230 5412,22174 5530,22142 5648,22117 5766,22069 5884,22013 6002,21962 6120,21930 6238,21908 6356,21892 6474,21876 6592,21857 6710,21804 6828,21774 6946,21763 7063,21750 7181,21731 7299,21726 7417,21721 7535,21704 7653,21699 7771,21696 7889,21683 8007,21680 8125,21672 8243,21667 8361,21659 8479,21656 8597,21651 8715,21645 8833,21643 8951,21643 9069,21643 9187,21635 9305,21632 9423,21632 9541,21627 9659,21616 9777,21613 9895,21611 10013,21605 10131,21600 10249,21538 10367,21538 10485,21538 10603,21538 10721,21538 10839,21536 10957,21533 11075,21533 11193,21527 11311,21527 11429,21527 11547,21527 11665,21527 11783,21525 11900,21522 12018,21519 12136,21514 12254,21514 12372,21511 12490,21503 12608,21487 12725,21485 12843,21485 12961,21485 13079,21479 13197,21479 13315,21471 13433,21471 13551,21458 13669,21458 13787,21452 13905,21447 14023,21444 14141,21439 14259,21439 14377,21439 14495,21439 14613,21439 14731,21436 14849,21436 14967,21436 15085,21436 15203,21436 15321,21436 15439,21436 15557,21431 15675,21431 15793,21428 15911,21426 16029,21423 16147,21423 16265,21423 16383,21423 16501,21423 16619,21426 16737,21423 16855,21423 16973,21423 17091,21420 17209,21420 17327,21418 17445,21418 17563,21410 17681,21404 17799,21404 17917,21404 18035,21404 18153,21404 18271,21401 18389,21401"/>
 <path fill="none" stroke="rgb(255,128,0)" stroke-width="80" stroke-linejoin="round" stroke-dasharray="158,158" d="M 1518,23327 L 1636,23327 1754,23327 1872,23327 1990,23327 2108,23322 2226,23319 2344,23314 2462,23312 2580,23307 2698,23304 2816,23304 2934,23304 3052,23302 3170,23297 3288,23292 3406,23289 3524,23279 3642,23277 3760,23264 3878,23249 3996,23244 4114,23234 4232,23212 4350,23184 4468,23164 4586,23137 4704,23117 4822,23082 4940,23057 5058,23024 5176,22994 5294,22974 5412,22939 5530,22899 5648,22857 5766,22832 5884,22797 6002,22767 6120,22732 6238,22674 6356,22674 6474,22649 6592,22629 6710,22602 6828,22579 6946,22549 7063,22522 7181,22492 7299,22479 7417,22452 7535,22422 7653,22397 7771,22372 7889,22349 8007,22317 8125,22297 8243,22277 8361,22267 8479,22254 8597,22239 8715,22224 8833,22209 8951,22202 9069,22174 9187,22162 9305,22154 9423,22147 9541,22139 9659,22124 9777,22114 9895,22102 10013,22082 10131,22067 10249,22057 10367,22037 10485,22019 10603,22014 10721,22012 10839,21999 10957,21994 11075,21982 11193,21974 11311,21967 11429,21964 11547,21959 11665,21954 11783,21952 11900,21947 12018,21942 12136,21932 12254,21924 12372,21922 12490,21917 12608,21912 12725,21909 12843,21909 12961,21904 13079,21904 13197,21899 13315,21897 13433,21889 13551,21887 13669,21884 13787,21884 13905,21877 14023,21867 14141,21867 14259,21864 14377,21862 14495,21859 14613,21857 14731,21857 14849,21857 14967,21857 15085,21857 15203,21852 15321,21847 15439,21842 15557,21842 15675,21842 15793,21842 15911,21842 16029,21842 16147,21842 16265,21839 16383,21839 16501,21839 16619,21839 16737,21839 16855,21839 16973,21839 17091,21839 17209,21839 17327,21839 17445,21839 17563,21839 17681,21839 17799,21839 17917,21837 18035,21837 18153,21837 18271,21834 18389,21832"/>
 <path fill="none" stroke="rgb(0,169,51)" stroke-width="80" stroke-linejoin="round" stroke-dasharray="158,158" d="M 1282,23326 L 1400,23323 1518,23323 1636,23323 1754,23323 1872,23323 1990,23319 2108,23319 2226,23319 2344,23319 2462,23319 2580,23319 2698,23319 2816,23319 2934,23319 3052,23305 3170,23302 3288,23302 3406,23302 3524,23295 3642,23295 3760,23281 3878,23270 3996,23260 4114,23253 4232,23250 4350,23246 4468,23246 4586,23243 4704,23232 4822,23229 4940,23218 5058,23208 5176,23204 5294,23197 5412,23187 5530,23187 5648,23184 5766,23180 5884,23173 6002,23159 6120,23149 6238,23142 6356,23138 6474,23135 6592,23128 6710,23128 6828,23107 6946,23100 7063,23093 7181,23079 7299,23076 7417,23058 7535,23051 7653,23038 7771,23038 7889,23031 8007,23017 8125,23013 8243,23006 8361,22999 8479,22996 8597,22985 8715,22975 8833,22965 8951,22954 9069,22947 9187,22940 9305,22926 9423,22912 9541,22895 9659,22892 9777,22878 9895,22878 10013,22878 10131,22867 10249,22864 10367,22857 10485,22846 10603,22843 10721,22843 10839,22829 10957,22822 11075,22819 11193,22777 11311,22773 11429,22773 11547,22759 11665,22749 11783,22749 11900,22746 12018,22732 12136,22732 12254,22725 12372,22718 12490,22700 12608,22690 12725,22669 12843,22659 12961,22638 13079,22638 13197,22610 13315,22607 13433,22603 13551,22596 13669,22582 13787,22579 13905,22568 14023,22554 14141,22530 14259,22523 14377,22523 14495,22499 14613,22492 14731,22474 14849,22461 14967,22447 15085,22429 15203,22419 15321,22401 15439,22401 15557,22398 15675,22370 15793,22346 15911,22325 16029,22311 16147,22297 16265,22290 16383,22287 16501,22259 16619,22242 16737,22214 16855,22186 16973,22158 17091,22155 17209,22148 17327,22123 17445,22096 17563,22050 17681,22030 17799,21998 17917,21991 18035,21981 18153,21925 18271,21887 18389,21856"/>
 <path fill="none" stroke="rgb(191,0,65)" stroke-width="80" stroke-linejoin="round" stroke-dasharray="51,127,51,127,254,127,254,127,254,127" d="M 1282,23329 L 1400,23328 1518,23328 1636,23328 1754,23327 1872,23327 1990,23327 2108,23326 2226,23326 2344,23324 2462,23322 2580,23319 2698,23315 2816,23311 2934,23309 3052,23304 3170,23298 3288,23288 3406,23280 3524,23272 3642,23259 3760,23246 3878,23235 3996,23225 4114,23210 4232,23193 4350,23173 4468,23156 4586,23143 4704,23125 4822,23106 4940,23093 5058,23073 5176,23055 5294,23039 5412,23023 5530,23010 5648,22990 5766,22973 5884,22956 6002,22938 6120,22920 6238,22897 6356,22880 6474,22869 6592,22852 6710,22833 6828,22813 6946,22796 7063,22782 7181,22766 7299,22755 7417,22739 7535,22723 7653,22708 7771,22692 7889,22676 8007,22664 8125,22651 8243,22640 8361,22627 8479,22608 8597,22596 8715,22584 8833,22573 8951,22566 9069,22556 9187,22546 9305,22538 9423,22531 9541,22522 9659,22515 9777,22510 9895,22500 10013,22491 10131,22484 10249,22478 10367,22468 10485,22461 10603,22457 10721,22452 10839,22442 10957,22433 11075,22429 11193,22418 11311,22411 11429,22408 11547,22402 11665,22393 11783,22385 11900,22381 12018,22374 12136,22366 12254,22359 12372,22352 12490,22344 12608,22335 12725,22321 12843,22313 12961,22305 13079,22299 13197,22294 13315,22285 13433,22274 13551,22267 13669,22258 13787,22254 13905,22246 14023,22238 14141,22227 14259,22219 14377,22210 14495,22199 14613,22192 14731,22186 14849,22179 14967,22169 15085,22160 15203,22153 15321,22145 15439,22137 15557,22133 15675,22126 15793,22113 15911,22106 16029,22098 16147,22091 16265,22083 16383,22077 16501,22071 16619,22059 16737,22048 16855,22037 16973,22028 17091,22020 17209,22012 17327,22004 17445,21992 17563,21979 17681,21964 17799,21949 17917,21939 18035,21928 18153,21918 18271,21903 18389,21885"/>
 <path fill="none" stroke="rgb(131,202,255)" stroke-width="80" stroke-linejoin="round" stroke-dasharray="158,158" d="M 1400,23318 L 1518,23318 1636,23318 1754,23318 1872,23318 1990,23318 2108,23318 2226,23318 2344,23306 2462,23295 2580,23283 2698,23271 2816,23260 2934,23225 3052,23225 3170,23202 3288,23202 3406,23155 3524,23155 3642,23132 3760,23097 3878,23074 3996,23004 4114,22981 4232,22911 4350,22865 4468,22830 4586,22807 4704,22749 4822,22714 4940,22691 5058,22679 5176,22621 5294,22621 5412,22563 5530,22516 5648,22470 5766,22435 5884,22435 6002,22412 6120,22412 6238,22400 6356,22389 6474,22377 6592,22365 6710,22330 6828,22296 6946,22272 7063,22261 7181,22237 7299,22214 7417,22203 7535,22191 7653,22179 7771,22179 7889,22168 8007,22156 8125,22145 8243,22145 8361,22145 8479,22133 8597,22133 8715,22133 8833,22133 8951,22121 9069,22121 9187,22121 9305,22110 9423,22098 9541,22098 9659,22098 9777,22086 9895,22086 10013,22075 10131,22075 10249,22075 10367,22075 10485,22075 10603,22075 10721,22063 10839,22063 10957,22063 11075,22063 11193,22063 11311,22063 11429,22063 11547,22063 11665,22063 11783,22063 11900,22063 12018,22063 12136,22063 12254,22063 12372,22063 12490,22063 12608,22063 12725,22063 12843,22063 12961,22063 13079,22063 13197,22063 13315,22063 13433,22063 13551,22063 13669,22063 13787,22063 13905,22040 14023,22040 14141,22040 14259,22040 14377,22040 14495,22040 14613,22040 14731,22040 14849,22040 14967,22040 15085,22040 15203,22040 15321,22040 15439,22040 15557,22040 15675,22040 15793,22040 15911,22040 16029,22040 16147,22040 16265,22040 16383,22028 16501,22017 16619,22005 16737,21994 16855,21994 16973,21994 17091,21982 17209,21982 17327,21982 17445,21970 17563,21970 17681,21970 17799,21947 17917,21947 18035,21935 18153,21912 18271,21901 18389,21889"/>
 <path fill="none" stroke="rgb(129,212,26)" stroke-width="80" stroke-linejoin="round" stroke-dasharray="158,158" d="M 2226,23325 L 2344,23325 2462,23325 2580,23325 2698,23316 2816,23308 2934,23299 3052,23290 3170,23282 3288,23273 3406,23255 3524,23255 3642,23247 3760,23242 3878,23221 3996,23207 4114,23212 4232,23181 4350,23155 4468,23146 4586,23120 4704,23116 4822,23085 4940,23072 5058,23051 5176,23016 5294,23003 5412,22972 5530,22937 5648,22920 5766,22902 5884,22715 6002,22680 6120,22580 6238,22558 6356,22519 6474,22501 6592,22488 6710,22462 6828,22432 6946,22410 7063,22379 7181,22371 7299,22327 7417,22283 7535,22257 7653,22231 7771,22218 7889,22196 8007,22174 8125,22166 8243,22148 8361,22131 8479,22092 8597,22079 8715,22052 8833,22035 8951,22031 9069,22022 9187,22017 9305,22004 9423,21996 9541,21996 9659,21996 9777,21991 9895,21987 10013,21970 10131,21965 10249,21965 10367,21961 10485,21952 10603,21935 10721,21943 10839,21935 10957,21930 11075,21926 11193,21926 11311,21926 11429,21922 11547,21922 11665,21917 11783,21917 11900,21913 12018,21913 12136,21913 12254,21909 12372,21909 12490,21909 12608,21909 12725,21909 12843,21909 12961,21909 13079,21909 13197,21904 13315,21904 13433,21904 13551,21904 13669,21900 13787,21900 13905,21900 14023,21900 14141,21900 14259,21900 14377,21900 14495,21895 14613,21895 14731,21895 14849,21895 14967,21895 15085,21895 15203,21895 15321,21895 15439,21895 15557,21895 15675,21895 15793,21895 15911,21900 16029,21900 16147,21900 16265,21900 16383,21900 16501,21900 16619,21900 16737,21900 16855,21900 16973,21895 17091,21895 17209,21895 17327,21895 17445,21895 17563,21895 17681,21895 17799,21895 17917,21895 18035,21895 18153,21895 18271,21887 18389,21887"/>
 <path fill="none" stroke="rgb(85,48,141)" stroke-width="80" stroke-linejoin="round" stroke-dasharray="80,40" d="M 2698,23311 L 2816,23311 2934,23311 3052,23311 3170,23275 3288,23275 3406,23257 3524,23238 3642,23129 3760,23111 3878,23093 3996,23056 4114,22984 4232,22947 4350,22893 4468,22893 4586,22893 4704,22893 4822,22874 4940,22820 5058,22765 5176,22692 5294,22674 5412,22638 5530,22638 5648,22601 5766,22601 5884,22547 6002,22528 6120,22510 6238,22492 6356,22492 6474,22437 6592,22419 6710,22419 6828,22419 6946,22383 7063,22383 7181,22365 7299,22328 7417,22328 7535,22328 7653,22328 7771,22310 7889,22310 8007,22237 8125,22237 8243,22219 8361,22219 8479,22219 8597,22201 8715,22183 8833,22183 8951,22183 9069,22164 9187,22164 9305,22164 9423,22164 9541,22164 9659,22164 9777,22164 9895,22146 10013,22146 10131,22128 10249,22128 10367,22110 10485,22110 10603,22091 10721,22091 10839,22091 10957,22073 11075,22073 11193,22073 11311,22073 11429,22073 11547,22073 11665,22073 11783,22073 11900,22073 12018,22073 12136,22073 12254,22073 12372,22073 12490,22073 12608,22073 12725,22073 12843,22073 12961,22073 13079,22073 13197,22073 13315,22073 13433,22073 13551,22073 13669,22073 13787,22073 13905,22073 14023,22073 14141,22073 14259,22073 14377,22073 14495,22073 14613,22073 14731,22073 14849,22073 14967,22073 15085,22073 15203,22073 15321,22073 15439,22073 15557,22073 15675,22073 15793,22073 15911,22073 16029,22073 16147,22073 16265,22073 16383,22073 16501,22073 16619,22073 16737,22073 16855,22073 16973,22073 17091,22073 17209,22073 17327,22073 17445,22073 17563,22073 17681,22073 17799,22073 17917,22073 18035,22183 18153,22183 18271,22183 18389,22183"/>
 <path fill="none" stroke="rgb(0,169,51)" stroke-width="80" stroke-linejoin="round" stroke-dasharray="80,40" d="M 1282,23328 L 1400,23328 1518,23328 1636,23327 1754,23326 1872,23326 1990,23326 2108,23326 2226,23326 2344,23325 2462,23324 2580,23323 2698,23321 2816,23319 2934,23319 3052,23318 3170,23315 3288,23310 3406,23308 3524,23302 3642,23293 3760,23284 3878,23279 3996,23270 4114,23261 4232,23247 4350,23228 4468,23218 4586,23214 4704,23197 4822,23181 4940,23173 5058,23162 5176,23147 5294,23129 5412,23118 5530,23108 5648,23100 5766,23087 5884,23074 6002,23058 6120,23040 6238,23014 6356,22995 6474,22988 6592,22971 6710,22949 6828,22931 6946,22919 7063,22914 7181,22906 7299,22897 7417,22884 7535,22873 7653,22862 7771,22848 7889,22834 8007,22829 8125,22819 8243,22812 8361,22794 8479,22780 8597,22766 8715,22751 8833,22746 8951,22739 9069,22732 9187,22725 9305,22716 9423,22709 9541,22703 9659,22696 9777,22694 9895,22687 10013,22676 10131,22674 10249,22667 10367,22659 10485,22652 10603,22651 10721,22644 10839,22633 10957,22618 11075,22617 11193,22604 11311,22594 11429,22591 11547,22585 11665,22575 11783,22560 11900,22554 12018,22550 12136,22540 12254,22534 12372,22528 12490,22518 12608,22509 12725,22490 12843,22478 12961,22471 13079,22464 13197,22462 13315,22452 13433,22439 13551,22428 13669,22418 13787,22414 13905,22412 14023,22408 14141,22396 14259,22387 14377,22377 14495,22368 14613,22365 14731,22361 14849,22359 14967,22354 15085,22346 15203,22340 15321,22333 15439,22329 15557,22327 15675,22324 15793,22316 15911,22312 16029,22305 16147,22301 16265,22297 16383,22293 16501,22291 16619,22286 16737,22282 16855,22276 16973,22273 17091,22268 17209,22263 17327,22260 17445,22256 17563,22249 17681,22239 17799,22234 17917,22231 18035,22225 18153,22224 18271,22220 18389,22209"/>
 <path fill="none" stroke="rgb(131,202,255)" stroke-width="80" stroke-linejoin="round" stroke-dasharray="80,40" d="M 1990,23324 L 2108,23324 2226,23324 2344,23324 2462,23324 2580,23324 2698,23324 2816,23312 2934,23312 3052,23300 3170,23294 3288,23294 3406,23294 3524,23294 3642,23288 3760,23282 3878,23259 3996,23241 4114,23235 4232,23224 4350,23218 4468,23212 4586,23206 4704,23206 4822,23194 4940,23182 5058,23147 5176,23135 5294,23124 5412,23118 5530,23100 5648,23053 5766,23053 5884,23047 6002,23047 6120,23035 6238,23029 6356,23012 6474,23006 6592,22982 6710,22959 6828,22935 6946,22924 7063,22888 7181,22877 7299,22865 7417,22859 7535,22841 7653,22829 7771,22824 7889,22824 8007,22818 8125,22800 8243,22794 8361,22794 8479,22777 8597,22777 8715,22771 8833,22771 8951,22771 9069,22771 9187,22765 9305,22765 9423,22759 9541,22747 9659,22747 9777,22747 9895,22741 10013,22735 10131,22735 10249,22729 10367,22724 10485,22724 10603,22724 10721,22724 10839,22724 10957,22724 11075,22724 11193,22724 11311,22718 11429,22718 11547,22718 11665,22706 11783,22706 11900,22706 12018,22700 12136,22700 12254,22700 12372,22700 12490,22700 12608,22700 12725,22700 12843,22700 12961,22700 13079,22700 13197,22700 13315,22700 13433,22700 13551,22700 13669,22700 13787,22700 13905,22700 14023,22700 14141,22700 14259,22694 14377,22682 14495,22671 14613,22665 14731,22665 14849,22665 14967,22665 15085,22659 15203,22653 15321,22641 15439,22635 15557,22629 15675,22629 15793,22624 15911,22624 16029,22624 16147,22624 16265,22624 16383,22624 16501,22612 16619,22606 16737,22594 16855,22576 16973,22576 17091,22547 17209,22529 17327,22512 17445,22506 17563,22500 17681,22482 17799,22476 17917,22476 18035,22453 18153,22429 18271,22424 18389,22424"/>
 <path fill="none" stroke="rgb(255,191,0)" stroke-width="80" stroke-linejoin="round" d="M 2344,23327 L 2462,23327 2580,23323 2698,23316 2816,23309 2934,23309 3052,23305 3170,23293 3288,23278 3406,23260 3524,23242 3642,23230 3760,23210 3878,23196 3996,23178 4114,23154 4232,23131 4350,23106 4468,23077 4586,23061 4704,23039 4822,23018 4940,23007 5058,22966 5176,22955 5294,22948 5412,22939 5530,22921 5648,22910 5766,22892 5884,22876 6002,22860 6120,22856 6238,22847 6356,22838 6474,22833 6592,22827 6710,22818 6828,22818 6946,22797 7063,22788 7181,22777 7299,22770 7417,22761 7535,22750 7653,22739 7771,22721 7889,22714 8007,22707 8125,22698 8243,22694 8361,22691 8479,22675 8597,22669 8715,22664 8833,22662 8951,22657 9069,22660 9187,22648 9305,22644 9423,22639 9541,22626 9659,22621 9777,22619 9895,22615 10013,22615 10131,22615 10249,22610 10367,22610 10485,22610 10603,22608 10721,22606 10839,22601 10957,22597 11075,22594 11193,22592 11311,22592 11429,22592 11547,22590 11665,22590 11783,22585 11900,22590 12018,22588 12136,22590 12254,22588 12372,22585 12490,22583 12608,22579 12725,22576 12843,22574 12961,22572 13079,22572 13197,22572 13315,22565 13433,22556 13551,22551 13669,22542 13787,22542 13905,22545 14023,22545 14141,22542 14259,22542 14377,22533 14495,22533 14613,22538 14731,22545 14849,22540 14967,22538 15085,22538 15203,22536 15321,22536 15439,22536 15557,22536 15675,22533 15793,22529 15911,22529 16029,22529 16147,22522 16265,22522 16383,22520 16501,22520 16619,22518 16737,22509 16855,22506 16973,22497 17091,22497 17209,22493 17327,22488 17445,22486 17563,22486 17681,22475 17799,22468 17917,22466 18035,22463 18153,22459 18271,22466 18389,22454"/>
 <path fill="none" stroke="rgb(128,0,128)" stroke-width="80" stroke-linejoin="round" stroke-dasharray="80,40" d="M 2226,23321 L 2344,23321 2462,23321 2580,23312 2698,23294 2816,23294 2934,23285 3052,23267 3170,23267 3288,23267 3406,23259 3524,23259 3642,23250 3760,23250 3878,23232 3996,23214 4114,23196 4232,23196 4350,23196 4468,23188 4586,23134 4704,23125 4822,23125 4940,23117 5058,23072 5176,23063 5294,23046 5412,23037 5530,23037 5648,23019 5766,23001 5884,22992 6002,22992 6120,22975 6238,22975 6356,22966 6474,22966 6592,22966 6710,22939 6828,22930 6946,22930 7063,22930 7181,22921 7299,22921 7417,22921 7535,22921 7653,22904 7771,22895 7889,22895 8007,22895 8125,22886 8243,22886 8361,22886 8479,22850 8597,22850 8715,22850 8833,22842 8951,22833 9069,22806 9187,22797 9305,22797 9423,22788 9541,22788 9659,22771 9777,22771 9895,22771 10013,22753 10131,22744 10249,22726 10367,22726 10485,22708 10603,22708 10721,22708 10839,22700 10957,22700 11075,22700 11193,22700 11311,22700 11429,22700 11547,22700 11665,22691 11783,22673 11900,22673 12018,22673 12136,22664 12254,22664 12372,22655 12490,22655 12608,22655 12725,22655 12843,22655 12961,22655 13079,22655 13197,22655 13315,22646 13433,22638 13551,22638 13669,22638 13787,22638 13905,22638 14023,22638 14141,22638 14259,22638 14377,22638 14495,22629 14613,22629 14731,22629 14849,22629 14967,22629 15085,22629 15203,22629 15321,22629 15439,22629 15557,22629 15675,22629 15793,22629 15911,22629 16029,22629 16147,22629 16265,22620 16383,22620 16501,22620 16619,22620 16737,22620 16855,22620 16973,22620 17091,22620 17209,22620 17327,22620 17445,22620 17563,22620 17681,22620 17799,22620 17917,22620 18035,22620 18153,22620 18271,22620 18389,22611"/>
 <path fill="none" stroke="rgb(180,120,4)" stroke-width="80" stroke-linejoin="round" stroke-dasharray="80,40" d="M 1282,23327 L 1400,23323 1518,23320 1636,23320 1754,23318 1872,23318 1990,23316 2108,23316 2226,23299 2344,23295 2462,23290 2580,23283 2698,23279 2816,23269 2934,23265 3052,23255 3170,23241 3288,23230 3406,23216 3524,23214 3642,23207 3760,23184 3878,23172 3996,23160 4114,23146 4232,23142 4350,23137 4468,23128 4586,23116 4704,23114 4822,23102 4940,23100 5058,23095 5176,23093 5294,23086 5412,23079 5530,23075 5648,23068 5766,23061 5884,23049 6002,23049 6120,23040 6238,23028 6356,23028 6474,23019 6592,23014 6710,23010 6828,23007 6946,23005 7063,23005 7181,22998 7299,22996 7417,22991 7535,22991 7653,22989 7771,22987 7889,22982 8007,22980 8125,22980 8243,22980 8361,22977 8479,22970 8597,22968 8715,22959 8833,22954 8951,22952 9069,22947 9187,22947 9305,22945 9423,22940 9541,22938 9659,22933 9777,22933 9895,22931 10013,22929 10131,22929 10249,22924 10367,22924 10485,22924 10603,22924 10721,22915 10839,22915 10957,22915 11075,22912 11193,22912 11311,22912 11429,22912 11547,22908 11665,22905 11783,22905 11900,22905 12018,22905 12136,22905 12254,22905 12372,22903 12490,22901 12608,22896 12725,22894 12843,22892 12961,22889 13079,22889 13197,22889 13315,22889 13433,22889 13551,22887 13669,22887 13787,22887 13905,22887 14023,22887 14141,22885 14259,22885 14377,22885 14495,22885 14613,22885 14731,22885 14849,22885 14967,22882 15085,22882 15203,22882 15321,22882 15439,22882 15557,22882 15675,22882 15793,22882 15911,22882 16029,22882 16147,22880 16265,22880 16383,22880 16501,22878 16619,22873 16737,22866 16855,22864 16973,22864 17091,22864 17209,22861 17327,22861 17445,22859 17563,22859 17681,22859 17799,22852 17917,22852 18035,22848 18153,22845 18271,22845 18389,22843"/>
 <path fill="none" stroke="rgb(0,0,0)" stroke-width="80" stroke-linejoin="round" stroke-dasharray="158,158" d="M 4350,23275 L 4468,23220 4586,23220 4704,23165 4822,23165 4940,23165 5058,23165 5176,23165 5294,23165 5412,23165 5530,23165 5648,23165 5766,23165 5884,23165 6002,23165 6120,23165 6238,23165 6356,23111 6474,23111 6592,23111 6710,23111 6828,23111 6946,23111 7063,23111 7181,23111 7299,23111 7417,23111 7535,23056 7653,23056 7771,23056 7889,23056 8007,23056 8125,23056 8243,23056 8361,23056 8479,23001 8597,23001 8715,23001 8833,23001 8951,23001 9069,23001 9187,23001 9305,23001 9423,23001 9541,23001 9659,23001 9777,23001 9895,23001 10013,23001 10131,22947 10249,22947 10367,22837 10485,22837 10603,22837 10721,22837 10839,22837 10957,22837 11075,22837 11193,22837 11311,22837 11429,22837 11547,22837 11665,22837 11783,22837 11900,22837 12018,22837 12136,22837 12254,22837 12372,22837 12490,22837 12608,22837 12725,22837 12843,22837 12961,22837 13079,22837 13197,22837 13315,22837 13433,22837 13551,22837 13669,22837 13787,22837 13905,22837 14023,22837 14141,22837 14259,22837 14377,22837 14495,22837 14613,22837 14731,22837 14849,22837 14967,22837 15085,22837 15203,22837 15321,22837 15439,22837 15557,22837 15675,22837 15793,22837 15911,22837 16029,22837 16147,22837 16265,22837 16383,22837 16501,22837 16619,22837 16737,22837 16855,22837 16973,22837 17091,22837 17209,22837 17327,22837 17445,22837 17563,22837 17681,22837 17799,22837 17917,22837 18035,22837 18153,22837 18271,22837 18389,22837"/>
 <path fill="none" stroke="rgb(255,191,0)" stroke-width="80" stroke-linejoin="round" stroke-dasharray="158,158" d="M 3760,23317 L 3878,23317 3996,23317 4114,23317 4232,23304 4350,23304 4468,23291 4586,23291 4704,23291 4822,23265 4940,23265 5058,23265 5176,23265 5294,23265 5412,23265 5530,23265 5648,23265 5766,23265 5884,23214 6002,23189 6120,23189 6238,23176 6356,23176 6474,23176 6592,23163 6710,23163 6828,23137 6946,23137 7063,23125 7181,23125 7299,23125 7417,23125 7535,23112 7653,23112 7771,23099 7889,23099 8007,23099 8125,23099 8243,23099 8361,23099 8479,23086 8597,23086 8715,23086 8833,23086 8951,23086 9069,23086 9187,23061 9305,23061 9423,23048 9541,23048 9659,23048 9777,23048 9895,23048 10013,23048 10131,23035 10249,23022 10367,23022 10485,23022 10603,23022 10721,23022 10839,23022 10957,23022 11075,23009 11193,23009 11311,23009 11429,23009 11547,22997 11665,22997 11783,22997 11900,22997 12018,22984 12136,22971 12254,22971 12372,22971 12490,22971 12608,22945 12725,22945 12843,22945 12961,22945 13079,22945 13197,22945 13315,22945 13433,22945 13551,22945 13669,22945 13787,22945 13905,22945 14023,22945 14141,22945 14259,22945 14377,22945 14495,22945 14613,22945 14731,22945 14849,22945 14967,22945 15085,22945 15203,22945 15321,22945 15439,22945 15557,22945 15675,22933 15793,22933 15911,22933 16029,22933 16147,22933 16265,22933 16383,22933 16501,22933 16619,22933 16737,22933 16855,22933 16973,22933 17091,22933 17209,22933 17327,22933 17445,22933 17563,22933 17681,22933 17799,22920 17917,22920 18035,22920 18153,22920 18271,22920 18389,22920"/>
 <path fill="none" stroke="rgb(241,13,12)" stroke-width="80" stroke-linejoin="round" stroke-dasharray="80,40" d="M 2344,23309 L 2462,23309 2580,23269 2698,23269 2816,23269 2934,23229 3052,23229 3170,23229 3288,23189 3406,23169 3524,23149 3642,23129 3760,23109 3878,23109 3996,23149 4114,23149 4232,23149 4350,23149 4468,23129 4586,23129 4704,23129 4822,23109 4940,23089 5058,23089 5176,23089 5294,23089 5412,23089 5530,23089 5648,23089 5766,23089 5884,23089 6002,23069 6120,23069 6238,23049 6356,23049 6474,23049 6592,23029 6710,23029 6828,23029 6946,23029 7063,23029 7181,23029 7299,23029 7417,23029 7535,23029 7653,23029 7771,23029 7889,23029 8007,23029 8125,23009 8243,23009 8361,23009 8479,22989 8597,22989 8715,22989 8833,22989 8951,22989 9069,22989 9187,22989 9305,22989 9423,22989 9541,22989 9659,22989 9777,22989 9895,22989 10013,22989 10131,22989 10249,22989 10367,22989 10485,22989 10603,22989 10721,22989 10839,22989 10957,22989 11075,22989 11193,22989 11311,22969 11429,22969 11547,22969 11665,22969 11783,22969 11900,22969 12018,22969 12136,22969 12254,22969 12372,22969 12490,22969 12608,22969 12725,22949 12843,22949 12961,22949 13079,22949 13197,22949 13315,22949 13433,22949 13551,22949 13669,22949 13787,22949 13905,22949 14023,22949 14141,22949 14259,22949 14377,22949 14495,22949 14613,22949 14731,22949 14849,22949 14967,22949 15085,22949 15203,22949 15321,22949 15439,22949 15557,22949 15675,22949 15793,22949 15911,22949 16029,22949 16147,22949 16265,22949 16383,22949 16501,22949 16619,22949 16737,22949 16855,22949 16973,22949 17091,22949 17209,22949 17327,22949 17445,22949 17563,22949 17681,22949 17799,22949 17917,22949 18035,22949 18153,22949 18271,22949 18389,22949"/>
 <path fill="none" stroke="rgb(0,0,255)" stroke-width="80" stroke-linejoin="round" stroke-dasharray="158,158" d="M 1872,23325 L 1990,23325 2108,23325 2226,23325"/>
 <path fill="none" stroke="rgb(0,0,255)" stroke-width="80" stroke-linejoin="round" stroke-dasharray="158,158" d="M 3524,23325 L 3642,23325 3760,23325 3878,23325 3996,23325 4114,23321 4232,23321 4350,23321 4468,23321 4586,23321 4704,23321 4822,23321 4940,23321 5058,23321 5176,23303 5294,23294 5412,23290 5530,23281 5648,23276 5766,23272 5884,23268 6002,23268 6120,23263 6238,23254 6356,23254 6474,23250 6592,23250 6710,23241 6828,23232 6946,23228 7063,23228 7181,23223 7299,23223 7417,23219 7535,23219 7653,23219 7771,23214 7889,23214 8007,23214 8125,23214 8243,23214 8361,23210 8479,23210 8597,23210 8715,23210 8833,23206 8951,23206 9069,23206 9187,23206 9305,23206 9423,23206 9541,23206 9659,23206 9777,23206 9895,23206 10013,23206 10131,23206 10249,23206 10367,23206 10485,23206 10603,23206 10721,23206 10839,23206 10957,23206 11075,23206 11193,23206 11311,23206 11429,23206 11547,23206 11665,23206 11783,23206 11900,23206 12018,23206 12136,23206 12254,23206 12372,23206 12490,23206 12608,23206 12725,23206 12843,23206 12961,23206 13079,23206 13197,23206 13315,23206 13433,23206 13551,23206 13669,23206 13787,23206 13905,23206 14023,23206 14141,23206 14259,23206 14377,23206 14495,23206 14613,23206 14731,23206 14849,23206 14967,23206 15085,23206 15203,23206 15321,23206 15439,23206 15557,23206 15675,23206 15793,23206 15911,23206 16029,23206 16147,23206 16265,23206 16383,23206 16501,23206 16619,23206 16737,23206 16855,23206 16973,23206 17091,23206 17209,23206 17327,23206 17445,23206 17563,23206 17681,23206 17799,23201 17917,23201 18035,23201 18153,23201 18271,23201 18389,23201"/>
 <text class="TextShape" transform="rotate(-90 1408 24534)"><tspan class="TextParagraph" font-family="Liberation Sans, sans-serif" font-size="388px" font-weight="400"><tspan class="TextPosition" x="1408" y="24534"><tspan fill="rgb(0,0,0)" stroke="none">13.03</tspan></tspan></tspan></text>
 <text class="TextShape" transform="rotate(-90 2234 24534)"><tspan class="TextParagraph" font-family="Liberation Sans, sans-serif" font-size="388px" font-weight="400"><tspan class="TextPosition" x="2234" y="24534"><tspan fill="rgb(0,0,0)" stroke="none">20.03</tspan></tspan></tspan></text>
 <text class="TextShape" transform="rotate(-90 3060 24534)"><tspan class="TextParagraph" font-family="Liberation Sans, sans-serif" font-size="388px" font-weight="400"><tspan class="TextPosition" x="3060" y="24534"><tspan fill="rgb(0,0,0)" stroke="none">27.03</tspan></tspan></tspan></text>
 <text class="TextShape" transform="rotate(-90 3886 24534)"><tspan class="TextParagraph" font-family="Liberation Sans, sans-serif" font-size="388px" font-weight="400"><tspan class="TextPosition" x="3886" y="24534"><tspan fill="rgb(0,0,0)" stroke="none">03.04</tspan></tspan></tspan></text>
 <text class="TextShape" transform="rotate(-90 4712 24534)"><tspan class="TextParagraph" font-family="Liberation Sans, sans-serif" font-size="388px" font-weight="400"><tspan class="TextPosition" x="4712" y="24534"><tspan fill="rgb(0,0,0)" stroke="none">10.04</tspan></tspan></tspan></text>
 <text class="TextShape" transform="rotate(-90 5538 24534)"><tspan class="TextParagraph" font-family="Liberation Sans, sans-serif" font-size="388px" font-weight="400"><tspan class="TextPosition" x="5538" y="24534"><tspan fill="rgb(0,0,0)" stroke="none">17.04</tspan></tspan></tspan></text>
 <text class="TextShape" transform="rotate(-90 6364 24534)"><tspan class="TextParagraph" font-family="Liberation Sans, sans-serif" font-size="388px" font-weight="400"><tspan class="TextPosition" x="6364" y="24534"><tspan fill="rgb(0,0,0)" stroke="none">24.04</tspan></tspan></tspan></text>
 <text class="TextShape" transform="rotate(-90 7189 24534)"><tspan class="TextParagraph" font-family="Liberation Sans, sans-serif" font-size="388px" font-weight="400"><tspan class="TextPosition" x="7189" y="24534"><tspan fill="rgb(0,0,0)" stroke="none">01.05</tspan></tspan></tspan></text>
 <text class="TextShape" transform="rotate(-90 8015 24534)"><tspan class="TextParagraph" font-family="Liberation Sans, sans-serif" font-size="388px" font-weight="400"><tspan class="TextPosition" x="8015" y="24534"><tspan fill="rgb(0,0,0)" stroke="none">08.05</tspan></tspan></tspan></text>
 <text class="TextShape" transform="rotate(-90 8841 24534)"><tspan class="TextParagraph" font-family="Liberation Sans, sans-serif" font-size="388px" font-weight="400"><tspan class="TextPosition" x="8841" y="24534"><tspan fill="rgb(0,0,0)" stroke="none">15.05</tspan></tspan></tspan></text>
 <text class="TextShape" transform="rotate(-90 9667 24534)"><tspan class="TextParagraph" font-family="Liberation Sans, sans-serif" font-size="388px" font-weight="400"><tspan class="TextPosition" x="9667" y="24534"><tspan fill="rgb(0,0,0)" stroke="none">22.05</tspan></tspan></tspan></text>
 <text class="TextShape" transform="rotate(-90 10493 24534)"><tspan class="TextParagraph" font-family="Liberation Sans, sans-serif" font-size="388px" font-weight="400"><tspan class="TextPosition" x="10493" y="24534"><tspan fill="rgb(0,0,0)" stroke="none">29.05</tspan></tspan></tspan></text>
 <text class="TextShape" transform="rotate(-90 11319 24534)"><tspan class="TextParagraph" font-family="Liberation Sans, sans-serif" font-size="388px" font-weight="400"><tspan class="TextPosition" x="11319" y="24534"><tspan fill="rgb(0,0,0)" stroke="none">05.06</tspan></tspan></tspan></text>
 <text class="TextShape" transform="rotate(-90 12144 24534)"><tspan class="TextParagraph" font-family="Liberation Sans, sans-serif" font-size="388px" font-weight="400"><tspan class="TextPosition" x="12144" y="24534"><tspan fill="rgb(0,0,0)" stroke="none">12.06</tspan></tspan></tspan></text>
 <text class="TextShape" transform="rotate(-90 12969 24534)"><tspan class="TextParagraph" font-family="Liberation Sans, sans-serif" font-size="388px" font-weight="400"><tspan class="TextPosition" x="12969" y="24534"><tspan fill="rgb(0,0,0)" stroke="none">19.06</tspan></tspan></tspan></text>
 <text class="TextShape" transform="rotate(-90 13795 24534)"><tspan class="TextParagraph" font-family="Liberation Sans, sans-serif" font-size="388px" font-weight="400"><tspan class="TextPosition" x="13795" y="24534"><tspan fill="rgb(0,0,0)" stroke="none">26.06</tspan></tspan></tspan></text>
 <text class="TextShape" transform="rotate(-90 14621 24534)"><tspan class="TextParagraph" font-family="Liberation Sans, sans-serif" font-size="388px" font-weight="400"><tspan class="TextPosition" x="14621" y="24534"><tspan fill="rgb(0,0,0)" stroke="none">03.07</tspan></tspan></tspan></text>
 <text class="TextShape" transform="rotate(-90 15447 24534)"><tspan class="TextParagraph" font-family="Liberation Sans, sans-serif" font-size="388px" font-weight="400"><tspan class="TextPosition" x="15447" y="24534"><tspan fill="rgb(0,0,0)" stroke="none">10.07</tspan></tspan></tspan></text>
 <text class="TextShape" transform="rotate(-90 16273 24534)"><tspan class="TextParagraph" font-family="Liberation Sans, sans-serif" font-size="388px" font-weight="400"><tspan class="TextPosition" x="16273" y="24534"><tspan fill="rgb(0,0,0)" stroke="none">17.07</tspan></tspan></tspan></text>
 <text class="TextShape" transform="rotate(-90 17099 24534)"><tspan class="TextParagraph" font-family="Liberation Sans, sans-serif" font-size="388px" font-weight="400"><tspan class="TextPosition" x="17099" y="24534"><tspan fill="rgb(0,0,0)" stroke="none">24.07</tspan></tspan></tspan></text>
 <text class="TextShape" transform="rotate(-90 17925 24534)"><tspan class="TextParagraph" font-family="Liberation Sans, sans-serif" font-size="388px" font-weight="400"><tspan class="TextPosition" x="17925" y="24534"><tspan fill="rgb(0,0,0)" stroke="none">31.07</tspan></tspan></tspan></text>
 <text class="TextShape"><tspan class="TextParagraph" font-family="Liberation Sans, sans-serif" font-size="388px" font-weight="400"><tspan class="TextPosition" x="762" y="23458"><tspan fill="rgb(0,0,0)" stroke="none">0</tspan></tspan></tspan></text>
 <text class="TextShape"><tspan class="TextParagraph" font-family="Liberation Sans, sans-serif" font-size="388px" font-weight="400"><tspan class="TextPosition" x="339" y="21042"><tspan fill="rgb(0,0,0)" stroke="none">100</tspan></tspan></tspan></text>
 <text class="TextShape"><tspan class="TextParagraph" font-family="Liberation Sans, sans-serif" font-size="388px" font-weight="400"><tspan class="TextPosition" x="339" y="18627"><tspan fill="rgb(0,0,0)" stroke="none">200</tspan></tspan></tspan></text>
 <text class="TextShape"><tspan class="TextParagraph" font-family="Liberation Sans, sans-serif" font-size="388px" font-weight="400"><tspan class="TextPosition" x="339" y="16212"><tspan fill="rgb(0,0,0)" stroke="none">300</tspan></tspan></tspan></text>
 <text class="TextShape"><tspan class="TextParagraph" font-family="Liberation Sans, sans-serif" font-size="388px" font-weight="400"><tspan class="TextPosition" x="339" y="13797"><tspan fill="rgb(0,0,0)" stroke="none">400</tspan></tspan></tspan></text>
 <text class="TextShape"><tspan class="TextParagraph" font-family="Liberation Sans, sans-serif" font-size="388px" font-weight="400"><tspan class="TextPosition" x="339" y="11382"><tspan fill="rgb(0,0,0)" stroke="none">500</tspan></tspan></tspan></text>
 <text class="TextShape"><tspan class="TextParagraph" font-family="Liberation Sans, sans-serif" font-size="388px" font-weight="400"><tspan class="TextPosition" x="339" y="8967"><tspan fill="rgb(0,0,0)" stroke="none">600</tspan></tspan></tspan></text>
 <text class="TextShape"><tspan class="TextParagraph" font-family="Liberation Sans, sans-serif" font-size="388px" font-weight="400"><tspan class="TextPosition" x="339" y="6552"><tspan fill="rgb(0,0,0)" stroke="none">700</tspan></tspan></tspan></text>
 <text class="TextShape"><tspan class="TextParagraph" font-family="Liberation Sans, sans-serif" font-size="388px" font-weight="400"><tspan class="TextPosition" x="339" y="4137"><tspan fill="rgb(0,0,0)" stroke="none">800</tspan></tspan></tspan></text>
 <text class="TextShape"><tspan class="TextParagraph" font-family="Liberation Sans, sans-serif" font-size="388px" font-weight="400"><tspan class="TextPosition" x="339" y="1722"><tspan fill="rgb(0,0,0)" stroke="none">900</tspan></tspan></tspan></text>
 <text class="TextShape"><tspan class="TextParagraph" font-family="Liberation Sans, sans-serif" font-size="494px" font-weight="700"><tspan class="TextPosition" x="828" y="990"><tspan fill="rgb(0,0,0)" stroke="none">EU - poet obt na milin obyvatel</tspan></tspan></tspan></text>
 <path fill="none" stroke="rgb(255,128,0)" stroke-width="80" stroke-linejoin="round" stroke-dasharray="80,40" d="M 18747,2024 L 20347,2024"/>
 <path fill="none" stroke="rgb(128,0,128)" stroke-width="80" stroke-linejoin="round" d="M 18747,2741 L 20347,2741"/>
 <path fill="none" stroke="rgb(131,202,255)" stroke-width="80" stroke-linejoin="round" d="M 18747,3458 L 20347,3458"/>
 <path fill="none" stroke="rgb(255,0,0)" stroke-width="80" stroke-linejoin="round" d="M 18747,4175 L 20347,4175"/>
 <path fill="none" stroke="rgb(0,0,255)" stroke-width="80" stroke-linejoin="round" stroke-dasharray="80,40" d="M 18747,4892 L 20347,4892"/>
 <path fill="none" stroke="rgb(21,132,102)" stroke-width="80" stroke-linejoin="round" stroke-dasharray="51,127,51,127,254,127,254,127,254,127" d="M 18747,5609 L 20347,5609"/>
 <path fill="none" stroke="rgb(129,212,26)" stroke-width="80" stroke-linejoin="round" stroke-dasharray="80,40" d="M 18747,6326 L 20347,6326"/>
 <path fill="none" stroke="rgb(255,128,0)" stroke-width="80" stroke-linejoin="round" d="M 18747,7043 L 20347,7043"/>
 <path fill="none" stroke="rgb(0,0,255)" stroke-width="80" stroke-linejoin="round" stroke-dasharray="51,127,51,127,254,127,254,127,254,127" d="M 18747,7760 L 20347,7760"/>
 <path fill="none" stroke="rgb(0,0,255)" stroke-width="80" stroke-linejoin="round" d="M 18747,8477 L 20347,8477"/>
 <path fill="none" stroke="rgb(128,0,128)" stroke-width="80" stroke-linejoin="round" stroke-dasharray="158,158" d="M 18747,9194 L 20347,9194"/>
 <path fill="none" stroke="rgb(255,0,0)" stroke-width="80" stroke-linejoin="round" stroke-dasharray="158,158" d="M 18747,9911 L 20347,9911"/>
 <path fill="none" stroke="rgb(52,42,6)" stroke-width="80" stroke-linejoin="round" d="M 18747,10628 L 20347,10628"/>
 <path fill="none" stroke="rgb(180,120,4)" stroke-width="80" stroke-linejoin="round" d="M 18747,11345 L 20347,11345"/>
 <path fill="none" stroke="rgb(0,169,51)" stroke-width="80" stroke-linejoin="round" d="M 18747,12062 L 20347,12062"/>
 <path fill="none" stroke="rgb(255,128,0)" stroke-width="80" stroke-linejoin="round" stroke-dasharray="158,158" d="M 18747,12778 L 20347,12778"/>
 <path fill="none" stroke="rgb(0,169,51)" stroke-width="80" stroke-linejoin="round" stroke-dasharray="158,158" d="M 18747,13495 L 20347,13495"/>
 <path fill="none" stroke="rgb(191,0,65)" stroke-width="80" stroke-linejoin="round" stroke-dasharray="51,127,51,127,254,127,254,127,254,127" d="M 18747,14212 L 20347,14212"/>
 <path fill="none" stroke="rgb(131,202,255)" stroke-width="80" stroke-linejoin="round" stroke-dasharray="158,158" d="M 18747,14929 L 20347,14929"/>
 <path fill="none" stroke="rgb(129,212,26)" stroke-width="80" stroke-linejoin="round" stroke-dasharray="158,158" d="M 18747,15646 L 20347,15646"/>
 <path fill="none" stroke="rgb(85,48,141)" stroke-width="80" stroke-linejoin="round" stroke-dasharray="80,40" d="M 18747,16363 L 20347,16363"/>
 <path fill="none" stroke="rgb(0,169,51)" stroke-width="80" stroke-linejoin="round" stroke-dasharray="80,40" d="M 18747,17080 L 20347,17080"/>
 <path fill="none" stroke="rgb(131,202,255)" stroke-width="80" stroke-linejoin="round" stroke-dasharray="80,40" d="M 18747,17797 L 20347,17797"/>
 <path fill="none" stroke="rgb(255,191,0)" stroke-width="80" stroke-linejoin="round" d="M 18747,18514 L 20347,18514"/>
 <path fill="none" stroke="rgb(128,0,128)" stroke-width="80" stroke-linejoin="round" stroke-dasharray="80,40" d="M 18747,19231 L 20347,19231"/>
 <path fill="none" stroke="rgb(180,120,4)" stroke-width="80" stroke-linejoin="round" stroke-dasharray="80,40" d="M 18747,19948 L 20347,19948"/>
 <path fill="none" stroke="rgb(0,0,0)" stroke-width="80" stroke-linejoin="round" stroke-dasharray="158,158" d="M 18747,20665 L 20347,20665"/>
 <path fill="none" stroke="rgb(255,191,0)" stroke-width="80" stroke-linejoin="round" stroke-dasharray="158,158" d="M 18747,21382 L 20347,21382"/>
 <path fill="none" stroke="rgb(241,13,12)" stroke-width="80" stroke-linejoin="round" stroke-dasharray="80,40" d="M 18747,22099 L 20347,22099"/>
 <path fill="none" stroke="rgb(0,0,255)" stroke-width="80" stroke-linejoin="round" stroke-dasharray="158,158" d="M 18747,22816 L 20347,22816"/>
 <text class="TextShape"><tspan class="TextParagraph" font-family="Liberation Sans, sans-serif" font-size="423px" font-weight="400"><tspan class="TextPosition" x="20447" y="2172"><tspan fill="rgb(0,0,0)" stroke="none">Belgie</tspan></tspan></tspan></text>
 <text class="TextShape"><tspan class="TextParagraph" font-family="Liberation Sans, sans-serif" font-size="423px" font-weight="400"><tspan class="TextPosition" x="20447" y="2889"><tspan fill="rgb(0,0,0)" stroke="none">panlsko</tspan></tspan></tspan></text>
 <text class="TextShape"><tspan class="TextParagraph" font-family="Liberation Sans, sans-serif" font-size="423px" font-weight="400"><tspan class="TextPosition" x="20447" y="3606"><tspan fill="rgb(0,0,0)" stroke="none">Itlie</tspan></tspan></tspan></text>
 <text class="TextShape"><tspan class="TextParagraph" font-family="Liberation Sans, sans-serif" font-size="423px" font-weight="400"><tspan class="TextPosition" x="20447" y="4323"><tspan fill="rgb(0,0,0)" stroke="none">vdsko</tspan></tspan></tspan></text>
 <text class="TextShape"><tspan class="TextParagraph" font-family="Liberation Sans, sans-serif" font-size="423px" font-weight="400"><tspan class="TextPosition" x="20447" y="5040"><tspan fill="rgb(0,0,0)" stroke="none">Francie</tspan></tspan></tspan></text>
 <text class="TextShape"><tspan class="TextParagraph" font-family="Liberation Sans, sans-serif" font-size="423px" font-weight="400"><tspan class="TextPosition" x="20447" y="5757"><tspan fill="rgb(0,0,0)" stroke="none">EU_star zem</tspan></tspan></tspan></text>
 <text class="TextShape"><tspan class="TextParagraph" font-family="Liberation Sans, sans-serif" font-size="423px" font-weight="400"><tspan class="TextPosition" x="20447" y="6474"><tspan fill="rgb(0,0,0)" stroke="none">Irsko</tspan></tspan></tspan></text>
 <text class="TextShape"><tspan class="TextParagraph" font-family="Liberation Sans, sans-serif" font-size="423px" font-weight="400"><tspan class="TextPosition" x="20447" y="7191"><tspan fill="rgb(0,0,0)" stroke="none">Nizozemsko</tspan></tspan></tspan></text>
 <text class="TextShape"><tspan class="TextParagraph" font-family="Liberation Sans, sans-serif" font-size="423px" font-weight="400"><tspan class="TextPosition" x="20447" y="7908"><tspan fill="rgb(0,0,0)" stroke="none">EU</tspan></tspan></tspan></text>
 <text class="TextShape"><tspan class="TextParagraph" font-family="Liberation Sans, sans-serif" font-size="423px" font-weight="400"><tspan class="TextPosition" x="20447" y="8625"><tspan fill="rgb(0,0,0)" stroke="none">Luxembursko</tspan></tspan></tspan></text>
 <text class="TextShape"><tspan class="TextParagraph" font-family="Liberation Sans, sans-serif" font-size="423px" font-weight="400"><tspan class="TextPosition" x="20447" y="9342"><tspan fill="rgb(0,0,0)" stroke="none">Portugalsko</tspan></tspan></tspan></text>
 <text class="TextShape"><tspan class="TextParagraph" font-family="Liberation Sans, sans-serif" font-size="423px" font-weight="400"><tspan class="TextPosition" x="20447" y="10059"><tspan fill="rgb(0,0,0)" stroke="none">Rumunsko</tspan></tspan></tspan></text>
 <text class="TextShape"><tspan class="TextParagraph" font-family="Liberation Sans, sans-serif" font-size="423px" font-weight="400"><tspan class="TextPosition" x="20447" y="10776"><tspan fill="rgb(0,0,0)" stroke="none">Nmecko</tspan></tspan></tspan></text>
 <text class="TextShape"><tspan class="TextParagraph" font-family="Liberation Sans, sans-serif" font-size="423px" font-weight="400"><tspan class="TextPosition" x="20447" y="11493"><tspan fill="rgb(0,0,0)" stroke="none">Dnsko</tspan></tspan></tspan></text>
 <text class="TextShape"><tspan class="TextParagraph" font-family="Liberation Sans, sans-serif" font-size="423px" font-weight="400"><tspan class="TextPosition" x="20447" y="12210"><tspan fill="rgb(0,0,0)" stroke="none">Rakousko</tspan></tspan></tspan></text>
 <text class="TextShape"><tspan class="TextParagraph" font-family="Liberation Sans, sans-serif" font-size="423px" font-weight="400"><tspan class="TextPosition" x="20447" y="12926"><tspan fill="rgb(0,0,0)" stroke="none">Maarsko</tspan></tspan></tspan></text>
 <text class="TextShape"><tspan class="TextParagraph" font-family="Liberation Sans, sans-serif" font-size="423px" font-weight="400"><tspan class="TextPosition" x="20447" y="13643"><tspan fill="rgb(0,0,0)" stroke="none">Bulharsko</tspan></tspan></tspan></text>
 <text class="TextShape"><tspan class="TextParagraph" font-family="Liberation Sans, sans-serif" font-size="423px" font-weight="400"><tspan class="TextPosition" x="20447" y="14360"><tspan fill="rgb(0,0,0)" stroke="none">EU_nov zem</tspan></tspan></tspan></text>
 <text class="TextShape"><tspan class="TextParagraph" font-family="Liberation Sans, sans-serif" font-size="423px" font-weight="400"><tspan class="TextPosition" x="20447" y="15077"><tspan fill="rgb(0,0,0)" stroke="none">Slovinsko</tspan></tspan></tspan></text>
 <text class="TextShape"><tspan class="TextParagraph" font-family="Liberation Sans, sans-serif" font-size="423px" font-weight="400"><tspan class="TextPosition" x="20447" y="15794"><tspan fill="rgb(0,0,0)" stroke="none">Finsko</tspan></tspan></tspan></text>
 <text class="TextShape"><tspan class="TextParagraph" font-family="Liberation Sans, sans-serif" font-size="423px" font-weight="400"><tspan class="TextPosition" x="20447" y="16511"><tspan fill="rgb(0,0,0)" stroke="none">Estonsko</tspan></tspan></tspan></text>
 <text class="TextShape"><tspan class="TextParagraph" font-family="Liberation Sans, sans-serif" font-size="423px" font-weight="400"><tspan class="TextPosition" x="20447" y="17228"><tspan fill="rgb(0,0,0)" stroke="none">Polsko</tspan></tspan></tspan></text>
 <text class="TextShape"><tspan class="TextParagraph" font-family="Liberation Sans, sans-serif" font-size="423px" font-weight="400"><tspan class="TextPosition" x="20447" y="17945"><tspan fill="rgb(0,0,0)" stroke="none">Chorvatsko</tspan></tspan></tspan></text>
 <text class="TextShape"><tspan class="TextParagraph" font-family="Liberation Sans, sans-serif" font-size="423px" font-weight="400"><tspan class="TextPosition" x="20447" y="18662"><tspan fill="rgb(0,0,0)" stroke="none">esko</tspan></tspan></tspan></text>
 <text class="TextShape"><tspan class="TextParagraph" font-family="Liberation Sans, sans-serif" font-size="423px" font-weight="400"><tspan class="TextPosition" x="20447" y="19379"><tspan fill="rgb(0,0,0)" stroke="none">Litva</tspan></tspan></tspan></text>
 <text class="TextShape"><tspan class="TextParagraph" font-family="Liberation Sans, sans-serif" font-size="423px" font-weight="400"><tspan class="TextPosition" x="20447" y="20096"><tspan fill="rgb(0,0,0)" stroke="none">ecko</tspan></tspan></tspan></text>
 <text class="TextShape"><tspan class="TextParagraph" font-family="Liberation Sans, sans-serif" font-size="423px" font-weight="400"><tspan class="TextPosition" x="20447" y="20813"><tspan fill="rgb(0,0,0)" stroke="none">Malta</tspan></tspan></tspan></text>
 <text class="TextShape"><tspan class="TextParagraph" font-family="Liberation Sans, sans-serif" font-size="423px" font-weight="400"><tspan class="TextPosition" x="20447" y="21530"><tspan fill="rgb(0,0,0)" stroke="none">Lotysko</tspan></tspan></tspan></text>
 <text class="TextShape"><tspan class="TextParagraph" font-family="Liberation Sans, sans-serif" font-size="423px" font-weight="400"><tspan class="TextPosition" x="20447" y="22247"><tspan fill="rgb(0,0,0)" stroke="none">Kypr</tspan></tspan></tspan></text>
 <text class="TextShape"><tspan class="TextParagraph" font-family="Liberation Sans, sans-serif" font-size="423px" font-weight="400"><tspan class="TextPosition" x="20447" y="22964"><tspan fill="rgb(0,0,0)" stroke="none">Slovensko</tspan></tspan></tspan></text>
</svg>