<?xml version="1.0" encoding="UTF-8"?>
<!DOCTYPE svg PUBLIC "-//W3C//DTD SVG 1.1//EN" "http://www.w3.org/Graphics/SVG/1.1/DTD/svg11.dtd">
<svg width="236mm" height="250mm" viewBox="0 0 23600 25000" version="1.1" xmlns="http://www.w3.org/2000/svg" xmlns:xlink="http://www.w3.org/1999/xlink" stroke-width="28.222" stroke-linejoin="round" xml:space="preserve">
 <path fill="rgb(255,255,255)" stroke="none" d="M 11800,25000 L 0,25000 0,0 23600,0 23600,25000 11800,25000 Z"/>
 <path fill="none" stroke="rgb(179,179,179)" stroke-linejoin="round" d="M 9836,23331 L 1224,23331 1224,1596 18448,1596 18448,23331 9836,23331 Z"/>
 <path fill="none" stroke="rgb(179,179,179)" stroke-linejoin="round" d="M 18448,23330 L 1224,23330"/>
 <path fill="none" stroke="rgb(179,179,179)" stroke-linejoin="round" d="M 18448,21880 L 1224,21880"/>
 <path fill="none" stroke="rgb(179,179,179)" stroke-linejoin="round" d="M 18448,20431 L 1224,20431"/>
 <path fill="none" stroke="rgb(179,179,179)" stroke-linejoin="round" d="M 18448,18982 L 1224,18982"/>
 <path fill="none" stroke="rgb(179,179,179)" stroke-linejoin="round" d="M 18448,17533 L 1224,17533"/>
 <path fill="none" stroke="rgb(179,179,179)" stroke-linejoin="round" d="M 18448,16084 L 1224,16084"/>
 <path fill="none" stroke="rgb(179,179,179)" stroke-linejoin="round" d="M 18448,14635 L 1224,14635"/>
 <path fill="none" stroke="rgb(179,179,179)" stroke-linejoin="round" d="M 18448,13186 L 1224,13186"/>
 <path fill="none" stroke="rgb(179,179,179)" stroke-linejoin="round" d="M 18448,11738 L 1224,11738"/>
 <path fill="none" stroke="rgb(179,179,179)" stroke-linejoin="round" d="M 18448,10289 L 1224,10289"/>
 <path fill="none" stroke="rgb(179,179,179)" stroke-linejoin="round" d="M 18448,8840 L 1224,8840"/>
 <path fill="none" stroke="rgb(179,179,179)" stroke-linejoin="round" d="M 18448,7391 L 1224,7391"/>
 <path fill="none" stroke="rgb(179,179,179)" stroke-linejoin="round" d="M 18448,5942 L 1224,5942"/>
 <path fill="none" stroke="rgb(179,179,179)" stroke-linejoin="round" d="M 18448,4493 L 1224,4493"/>
 <path fill="none" stroke="rgb(179,179,179)" stroke-linejoin="round" d="M 18448,3044 L 1224,3044"/>
 <path fill="none" stroke="rgb(179,179,179)" stroke-linejoin="round" d="M 18448,1595 L 1224,1595"/>
 <path fill="none" stroke="rgb(179,179,179)" stroke-linejoin="round" d="M 1224,23480 L 1224,23330"/>
 <path fill="none" stroke="rgb(179,179,179)" stroke-linejoin="round" d="M 1224,23480 L 1224,23330"/>
 <path fill="none" stroke="rgb(179,179,179)" stroke-linejoin="round" d="M 2044,23480 L 2044,23330"/>
 <path fill="none" stroke="rgb(179,179,179)" stroke-linejoin="round" d="M 2044,23480 L 2044,23330"/>
 <path fill="none" stroke="rgb(179,179,179)" stroke-linejoin="round" d="M 2864,23480 L 2864,23330"/>
 <path fill="none" stroke="rgb(179,179,179)" stroke-linejoin="round" d="M 2864,23480 L 2864,23330"/>
 <path fill="none" stroke="rgb(179,179,179)" stroke-linejoin="round" d="M 3684,23480 L 3684,23330"/>
 <path fill="none" stroke="rgb(179,179,179)" stroke-linejoin="round" d="M 3684,23480 L 3684,23330"/>
 <path fill="none" stroke="rgb(179,179,179)" stroke-linejoin="round" d="M 4504,23480 L 4504,23330"/>
 <path fill="none" stroke="rgb(179,179,179)" stroke-linejoin="round" d="M 4504,23480 L 4504,23330"/>
 <path fill="none" stroke="rgb(179,179,179)" stroke-linejoin="round" d="M 5325,23480 L 5325,23330"/>
 <path fill="none" stroke="rgb(179,179,179)" stroke-linejoin="round" d="M 5325,23480 L 5325,23330"/>
 <path fill="none" stroke="rgb(179,179,179)" stroke-linejoin="round" d="M 6145,23480 L 6145,23330"/>
 <path fill="none" stroke="rgb(179,179,179)" stroke-linejoin="round" d="M 6145,23480 L 6145,23330"/>
 <path fill="none" stroke="rgb(179,179,179)" stroke-linejoin="round" d="M 6965,23480 L 6965,23330"/>
 <path fill="none" stroke="rgb(179,179,179)" stroke-linejoin="round" d="M 6965,23480 L 6965,23330"/>
 <path fill="none" stroke="rgb(179,179,179)" stroke-linejoin="round" d="M 7785,23480 L 7785,23330"/>
 <path fill="none" stroke="rgb(179,179,179)" stroke-linejoin="round" d="M 7785,23480 L 7785,23330"/>
 <path fill="none" stroke="rgb(179,179,179)" stroke-linejoin="round" d="M 8606,23480 L 8606,23330"/>
 <path fill="none" stroke="rgb(179,179,179)" stroke-linejoin="round" d="M 8606,23480 L 8606,23330"/>
 <path fill="none" stroke="rgb(179,179,179)" stroke-linejoin="round" d="M 9426,23480 L 9426,23330"/>
 <path fill="none" stroke="rgb(179,179,179)" stroke-linejoin="round" d="M 9426,23480 L 9426,23330"/>
 <path fill="none" stroke="rgb(179,179,179)" stroke-linejoin="round" d="M 10246,23480 L 10246,23330"/>
 <path fill="none" stroke="rgb(179,179,179)" stroke-linejoin="round" d="M 10246,23480 L 10246,23330"/>
 <path fill="none" stroke="rgb(179,179,179)" stroke-linejoin="round" d="M 11066,23480 L 11066,23330"/>
 <path fill="none" stroke="rgb(179,179,179)" stroke-linejoin="round" d="M 11066,23480 L 11066,23330"/>
 <path fill="none" stroke="rgb(179,179,179)" stroke-linejoin="round" d="M 11886,23480 L 11886,23330"/>
 <path fill="none" stroke="rgb(179,179,179)" stroke-linejoin="round" d="M 11886,23480 L 11886,23330"/>
 <path fill="none" stroke="rgb(179,179,179)" stroke-linejoin="round" d="M 12706,23480 L 12706,23330"/>
 <path fill="none" stroke="rgb(179,179,179)" stroke-linejoin="round" d="M 12706,23480 L 12706,23330"/>
 <path fill="none" stroke="rgb(179,179,179)" stroke-linejoin="round" d="M 13526,23480 L 13526,23330"/>
 <path fill="none" stroke="rgb(179,179,179)" stroke-linejoin="round" d="M 13526,23480 L 13526,23330"/>
 <path fill="none" stroke="rgb(179,179,179)" stroke-linejoin="round" d="M 14346,23480 L 14346,23330"/>
 <path fill="none" stroke="rgb(179,179,179)" stroke-linejoin="round" d="M 14346,23480 L 14346,23330"/>
 <path fill="none" stroke="rgb(179,179,179)" stroke-linejoin="round" d="M 15167,23480 L 15167,23330"/>
 <path fill="none" stroke="rgb(179,179,179)" stroke-linejoin="round" d="M 15167,23480 L 15167,23330"/>
 <path fill="none" stroke="rgb(179,179,179)" stroke-linejoin="round" d="M 15987,23480 L 15987,23330"/>
 <path fill="none" stroke="rgb(179,179,179)" stroke-linejoin="round" d="M 15987,23480 L 15987,23330"/>
 <path fill="none" stroke="rgb(179,179,179)" stroke-linejoin="round" d="M 16807,23480 L 16807,23330"/>
 <path fill="none" stroke="rgb(179,179,179)" stroke-linejoin="round" d="M 16807,23480 L 16807,23330"/>
 <path fill="none" stroke="rgb(179,179,179)" stroke-linejoin="round" d="M 17627,23480 L 17627,23330"/>
 <path fill="none" stroke="rgb(179,179,179)" stroke-linejoin="round" d="M 17627,23480 L 17627,23330"/>
 <path fill="none" stroke="rgb(179,179,179)" stroke-linejoin="round" d="M 18448,23480 L 18448,23330"/>
 <path fill="none" stroke="rgb(179,179,179)" stroke-linejoin="round" d="M 18448,23480 L 18448,23330"/>
 <path fill="none" stroke="rgb(179,179,179)" stroke-linejoin="round" d="M 1224,23330 L 18448,23330"/>
 <path fill="none" stroke="rgb(179,179,179)" stroke-linejoin="round" d="M 1074,23330 L 1224,23330"/>
 <path fill="none" stroke="rgb(179,179,179)" stroke-linejoin="round" d="M 1074,23330 L 1224,23330"/>
 <path fill="none" stroke="rgb(179,179,179)" stroke-linejoin="round" d="M 1074,21880 L 1224,21880"/>
 <path fill="none" stroke="rgb(179,179,179)" stroke-linejoin="round" d="M 1074,21880 L 1224,21880"/>
 <path fill="none" stroke="rgb(179,179,179)" stroke-linejoin="round" d="M 1074,20431 L 1224,20431"/>
 <path fill="none" stroke="rgb(179,179,179)" stroke-linejoin="round" d="M 1074,20431 L 1224,20431"/>
 <path fill="none" stroke="rgb(179,179,179)" stroke-linejoin="round" d="M 1074,18982 L 1224,18982"/>
 <path fill="none" stroke="rgb(179,179,179)" stroke-linejoin="round" d="M 1074,18982 L 1224,18982"/>
 <path fill="none" stroke="rgb(179,179,179)" stroke-linejoin="round" d="M 1074,17533 L 1224,17533"/>
 <path fill="none" stroke="rgb(179,179,179)" stroke-linejoin="round" d="M 1074,17533 L 1224,17533"/>
 <path fill="none" stroke="rgb(179,179,179)" stroke-linejoin="round" d="M 1074,16084 L 1224,16084"/>
 <path fill="none" stroke="rgb(179,179,179)" stroke-linejoin="round" d="M 1074,16084 L 1224,16084"/>
 <path fill="none" stroke="rgb(179,179,179)" stroke-linejoin="round" d="M 1074,14635 L 1224,14635"/>
 <path fill="none" stroke="rgb(179,179,179)" stroke-linejoin="round" d="M 1074,14635 L 1224,14635"/>
 <path fill="none" stroke="rgb(179,179,179)" stroke-linejoin="round" d="M 1074,13186 L 1224,13186"/>
 <path fill="none" stroke="rgb(179,179,179)" stroke-linejoin="round" d="M 1074,13186 L 1224,13186"/>
 <path fill="none" stroke="rgb(179,179,179)" stroke-linejoin="round" d="M 1074,11738 L 1224,11738"/>
 <path fill="none" stroke="rgb(179,179,179)" stroke-linejoin="round" d="M 1074,11738 L 1224,11738"/>
 <path fill="none" stroke="rgb(179,179,179)" stroke-linejoin="round" d="M 1074,10289 L 1224,10289"/>
 <path fill="none" stroke="rgb(179,179,179)" stroke-linejoin="round" d="M 1074,10289 L 1224,10289"/>
 <path fill="none" stroke="rgb(179,179,179)" stroke-linejoin="round" d="M 1074,8840 L 1224,8840"/>
 <path fill="none" stroke="rgb(179,179,179)" stroke-linejoin="round" d="M 1074,8840 L 1224,8840"/>
 <path fill="none" stroke="rgb(179,179,179)" stroke-linejoin="round" d="M 1074,7391 L 1224,7391"/>
 <path fill="none" stroke="rgb(179,179,179)" stroke-linejoin="round" d="M 1074,7391 L 1224,7391"/>
 <path fill="none" stroke="rgb(179,179,179)" stroke-linejoin="round" d="M 1074,5942 L 1224,5942"/>
 <path fill="none" stroke="rgb(179,179,179)" stroke-linejoin="round" d="M 1074,5942 L 1224,5942"/>
 <path fill="none" stroke="rgb(179,179,179)" stroke-linejoin="round" d="M 1074,4493 L 1224,4493"/>
 <path fill="none" stroke="rgb(179,179,179)" stroke-linejoin="round" d="M 1074,4493 L 1224,4493"/>
 <path fill="none" stroke="rgb(179,179,179)" stroke-linejoin="round" d="M 1074,3044 L 1224,3044"/>
 <path fill="none" stroke="rgb(179,179,179)" stroke-linejoin="round" d="M 1074,3044 L 1224,3044"/>
 <path fill="none" stroke="rgb(179,179,179)" stroke-linejoin="round" d="M 1074,1595 L 1224,1595"/>
 <path fill="none" stroke="rgb(179,179,179)" stroke-linejoin="round" d="M 1074,1595 L 1224,1595"/>
 <path fill="none" stroke="rgb(179,179,179)" stroke-linejoin="round" d="M 1224,23330 L 1224,1595"/>
 <path fill="none" stroke="rgb(112,110,12)" stroke-width="80" stroke-linejoin="round" stroke-dasharray="80,40" d="M 1282,23327 L 1399,23323 1516,23317 1634,23304 1751,23287 1868,23256 1985,23217 2102,23149 2220,23090 2337,22977 2454,22855 2571,22699 2688,22516 2805,22211 2923,21825 3040,21366 3157,20838 3274,20159 3391,19351 3508,18453 3626,17426 3743,16560 3860,15835 3977,14827 4094,13564 4212,12239 4329,11031 4446,9837 4563,8796 4680,7659 4797,6463 4915,5263 5032,4181 5149,3217 5266,2307 5331,1595"/>
 <path fill="none" stroke="rgb(255,128,0)" stroke-width="80" stroke-linejoin="round" d="M 1282,23325 L 1399,23318 1516,23311 1634,23302 1751,23295 1868,23280 1985,23262 2102,23247 2220,23223 2337,23208 2454,23177 2571,23114 2688,23035 2805,22957 2923,22836 3040,22712 3157,22621 3274,22462 3391,22300 3508,22016 3626,21739 3743,21436 3860,21114 3977,20840 4094,20598 4212,20158 4329,19719 4446,19249 4563,18760 4680,18404 4797,18113 4915,17797 5032,17352 5149,16993 5266,16556 5383,16159 5500,15685 5618,15474 5735,15234 5852,14737 5969,14378 6086,14069 6204,13640 6321,13282 6438,13104 6555,12960 6672,12573 6789,12236 6907,11950 7024,11635 7141,11372 7258,11238 7375,11116 7492,10822 7610,10546 7727,10317 7844,10051 7961,9905 8078,9791 8196,9701 8313,9433 8430,9223 8547,9041 8664,8878 8781,8674 8899,8602 9016,8535 9133,8302 9250,8145 9367,8002 9484,7850 9602,7730 9719,7544 9836,7492 9953,7434 10070,7247 10188,7070 10305,6912 10422,6815 10539,6766 10656,6719 10773,6580 10891,6426 11008,6351 11125,6199 11242,6111 11359,6079 11476,6055 11594,5932 11711,5826 11827,5762 11944,5675 12061,5598 12179,5583 12296,5566 12413,5466 12530,5388 12647,5330 12764,5257 12882,5202 12999,5184 13116,5178 13233,5105 13350,5040 13467,4977 13585,4899 13702,4857 13819,4841 13936,4831 14053,4765 14171,4690 14288,4652 14405,4595 14522,4566 14639,4557 14756,4550 14874,4485 14991,4431 15108,4395 15225,4375 15342,4312 15459,4303 15577,4299 15694,4240 15811,4204 15928,4176 16045,4128 16163,4111 16280,4099 16397,4094 16514,4048 16631,4014 16748,3992 16866,3940 16983,3914 17100,3908 17217,3905 17334,3855 17451,3819 17569,3803 17686,3752 17803,3721 17920,3718 18037,3714 18155,3706 18272,3649 18389,3628"/>
 <path fill="none" stroke="rgb(128,0,128)" stroke-width="80" stroke-linejoin="round" d="M 1282,23247 L 1399,23209 1516,23150 1634,23118 1751,22999 1868,22943 1985,22815 2102,22683 2220,22477 2337,22231 2454,21897 2571,21589 2688,21069 2805,20624 2923,20145 3040,19622 3157,19113 3274,18547 3391,18083 3508,17511 3626,16915 3743,16388 3860,15924 3977,15494 4094,15060 4212,14624 4329,14161 4446,13755 4563,13362 4680,13036 4797,12662 4915,12324 5032,12138 5149,11734 5266,11358 5383,10932 5500,10907 5618,10653 5735,10405 5852,10139 5969,9869 6086,9596 6204,9369 6321,9135 6438,8956 6555,8751 6672,8564 6789,8283 6907,8117 7024,8117 7141,7772 7258,7670 7375,7569 7492,7454 7610,7303 7727,7171 7844,7029 7961,6918 8078,6829 8196,6753 8313,6644 8430,6530 8547,6395 8664,6310 8781,6245 8899,6245 9016,6155 9133,6112 9250,6044 9367,6012 9484,5585 9602,5554 9719,5508 9836,6697 9953,6522 10070,6522 10188,6521 10305,6519 10422,6517 10539,6516 10656,6516 10773,6516 10891,6515 11008,6512 11125,6511 11242,6511 11359,6510 11476,6510 11594,6510 11711,6510 11827,6510 11944,6510 12061,6510 12179,6510 12296,6510 12413,6510 12530,6510 12647,6510 12764,5779 12882,5775 12999,5774 13116,5774 13233,5773 13350,5772 13467,5770 13585,5765 13702,5763 13819,5762 13936,5760 14053,5754 14171,5749 14288,5746 14405,5736 14522,5736 14639,5736 14756,5734 14874,5731 14991,5729 15108,5726 15225,5725 15342,5725 15459,5725 15577,5723 15694,5721 15811,5718 15928,5717 16045,5714 16163,5714 16280,5714 16397,5713 16514,5712 16631,5710 16748,5709 16866,5707 16983,5707 17100,5707 17217,5705 17334,5704 17451,5701 17569,5700 17686,5699 17803,5699 17920,5699 18037,5682 18155,5666 18272,5665 18389,5665"/>
 <path fill="none" stroke="rgb(131,202,255)" stroke-width="80" stroke-linejoin="round" d="M 1282,22723 L 1399,22639 1516,22462 1634,22295 1751,22130 1868,21902 1985,21697 2102,21397 2220,21017 2337,20705 2454,20417 2571,20060 2688,19733 2805,19392 2923,18951 3040,18525 3157,18163 3274,17774 3391,17372 3508,17024 3626,16660 3743,16292 3860,15966 3977,15714 4094,15409 4212,15120 4329,14860 4446,14568 4563,14295 4680,13998 4797,13791 4915,13520 5032,13231 5149,12954 5266,12703 5383,12428 5500,12197 5618,11989 5735,11772 5852,11516 5969,11306 6086,11084 6204,10883 6321,10684 6438,10559 6555,10400 6672,10216 6789,10062 6907,9925 7024,9796 7141,9569 7258,9485 7375,9392 7492,9279 7610,9102 7727,8971 7844,8854 7961,8761 8078,8682 8196,8596 8313,8514 8430,8420 8547,8295 8664,8179 8781,8105 8899,8036 9016,7988 9133,7911 9250,7834 9367,7759 9484,7697 9602,7640 9719,7616 9836,7571 9953,7534 10070,7478 10188,7444 10305,7403 10422,7350 10539,7314 10656,7285 10773,7258 10891,7224 11008,7182 11125,7142 11242,7107 11359,7082 11476,7050 11594,7013 11711,6979 11827,6953 11944,6926 12061,6889 12179,6868 12296,6855 12413,6839 12530,6818 12647,6787 12764,6764 12882,6741 12999,6729 13116,6718 13233,6710 13350,6724 13467,6708 13585,6694 13702,6690 13819,6679 13936,6677 14053,6666 14171,6655 14288,6641 14405,6634 14522,6624 14639,6620 14756,6617 14874,6602 14991,6595 15108,6589 15225,6584 15342,6580 15459,6576 15577,6570 15694,6562 15811,6555 15928,6546 16045,6540 16163,6534 16280,6532 16397,6526 16514,6519 16631,6515 16748,6510 16866,6507 16983,6505 17100,6503 17217,6500 17334,6495 17451,6492 17569,6491 17686,6486 17803,6484 17920,6480 18037,6474 18155,6472 18272,6467 18389,6464"/>
 <path fill="none" stroke="rgb(241,13,12)" stroke-width="80" stroke-linejoin="round" d="M 1282,23327 L 1399,23324 1516,23321 1634,23312 1751,23309 1868,23301 1985,23298 2102,23284 2220,23272 2337,23269 2454,23258 2571,23226 2688,23152 2805,23109 2923,23028 3040,23028 3157,23014 3274,22911 3391,22813 3508,22644 3626,22446 3743,22302 3860,22259 3977,22179 4094,21961 4212,21634 4329,21358 4446,21054 4563,20833 4680,20784 4797,20750 4915,20692 5032,20365 5149,19877 5266,19504 5383,19312 5500,18993 5618,18910 5735,18795 5852,18265 5969,17771 6086,17530 6204,17154 6321,17039 6438,17033 6555,16804 6672,16571 6789,16264 6907,15909 7024,15716 7141,15670 7258,15642 7375,15383 7492,15140 7610,14890 7727,14606 7844,14218 7961,14089 8078,14075 8196,13986 8313,13822 8430,13401 8547,13203 8664,12867 8781,12786 8899,12772 9016,12718 9133,12588 9250,12337 9367,12222 9484,12067 9602,11875 9719,11858 9836,11769 9953,11493 10070,11221 10188,11089 10305,10848 10422,10718 10539,10718 10656,10695 10773,10509 10891,10297 11008,10239 11125,10018 11242,9969 11359,9961 11476,9860 11594,9794 11711,9571 11827,9516 11944,9401 12061,9344 12179,9344 12296,9295 12413,9157 12530,8865 12647,8830 12764,8681 12882,8669 12999,8664 13116,8632 13233,8520 13350,8383 13467,8322 13585,8179 13702,8179 13819,8179 13936,8093 14053,8027 14171,7920 14288,7803 14405,7777 14522,7777 14639,7777 14756,7740 14874,7700 14991,7599 15108,7547 15225,7473 15342,7473 15459,7473 15577,7444 15694,7418 15811,7341 15928,7281 16045,7206 16163,7206 16280,7206 16397,7149 16514,7128 16631,7068 16748,7042 16866,6982 16983,6982 17100,6982 17217,6974 17334,6968 17451,6887 17569,6862 17686,6850 17803,6850 17920,6850 18037,6847 18155,6839 18272,6801 18389,6784"/>
 <path fill="none" stroke="rgb(141,40,30)" stroke-width="80" stroke-linejoin="round" stroke-dasharray="80,40" d="M 1282,23325 L 1399,23324 1516,23323 1634,23321 1751,23318 1868,23313 1985,23306 2102,23297 2220,23289 2337,23276 2454,23260 2571,23238 2688,23211 2805,23174 2923,23125 3040,23067 3157,23012 3274,22939 3391,22829 3508,22718 3626,22577 3743,22460 3860,22343 3977,22212 4094,22060 4212,21851 4329,21660 4446,21472 4563,21284 4680,21098 4797,20936 4915,20769 5032,20554 5149,20326 5266,20135 5383,19902 5500,19688 5618,19576 5735,19415 5852,19196 5969,18983 6086,18767 6204,18579 6321,18430 6438,18313 6555,18185 6672,17989 6789,17768 6907,17565 7024,17399 7141,17251 7258,17153 7375,17036 7492,16833 7610,16626 7727,16457 7844,16304 7961,16173 8078,16095 8196,16006 8313,15864 8430,15710 8547,15553 8664,15406 8781,15300 8899,15233 9016,15165 9133,15029 9250,14891 9367,14783 9484,14672 9602,14573 9719,14519 9836,14473 9953,14412 10070,14279 10188,14175 10305,14072 10422,13987 10539,13935 10656,13867 10773,13776 10891,13687 11008,13598 11125,13514 11242,13454 11359,13415 11476,13370 11594,13288 11711,13207 11827,13129 11944,13057 12061,12990 12179,12963 12296,12929 12413,12855 12530,12789 12647,12727 12764,12668 12882,12614 12999,12589 13116,12555 13233,12482 13350,12415 13467,12366 13585,12313 13702,12269 13819,12247 13936,12215 14053,12151 14171,12091 14288,12027 14405,11970 14522,11946 14639,11920 14756,11890 14874,11782 14991,11708 15108,11619 15225,11547 15342,11486 15459,11447 15577,11413 15694,11331 15811,11247 15928,11163 16045,11083 16163,11006 16280,10967 16397,10922 16514,10825 16631,10719 16748,10621 16866,10523 16983,10444 17100,10402 17217,10304 17334,10184 17451,10058 17569,9952 17686,9843 17803,9745 17920,9710 18037,9663 18155,9542 18272,9422 18389,9312"/>
 <path fill="none" stroke="rgb(255,64,0)" stroke-width="80" stroke-linejoin="round" stroke-dasharray="80,40" d="M 1751,23329 L 1868,23329 1985,23329 2102,23328 2220,23327 2337,23326 2454,23325 2571,23323 2688,23321 2805,23319 2923,23317 3040,23314 3157,23311 3274,23308 3391,23302 3508,23297 3626,23285 3743,23281 3860,23269 3977,23263 4094,23253 4212,23236 4329,23218 4446,23200 4563,23185 4680,23176 4797,23163 4915,23148 5032,23121 5149,23093 5266,23067 5383,23037 5500,23008 5618,22994 5735,22977 5852,22956 5969,22933 6086,22875 6204,22824 6321,22776 6438,22745 6555,22702 6672,22636 6789,22577 6907,22510 7024,22455 7141,22407 7258,22368 7375,22324 7492,22247 7610,22158 7727,22076 7844,21963 7961,21876 8078,21812 8196,21740 8313,21630 8430,21523 8547,21420 8664,21288 8781,21193 8899,21131 9016,21030 9133,20876 9250,20757 9367,20595 9484,20458 9602,20326 9719,20237 9836,20127 9953,19986 10070,19837 10188,19680 10305,19526 10422,19396 10539,19330 10656,19245 10773,19073 10891,18889 11008,18688 11125,18551 11242,18428 11359,18356 11476,18264 11594,18090 11711,17916 11827,17747 11944,17623 12061,17502 12179,17418 12296,17333 12413,17158 12530,16985 12647,16816 12764,16651 12882,16512 12999,16428 13116,16335 13233,16148 13350,15986 13467,15830 13585,15695 13702,15544 13819,15469 13936,15374 14053,15200 14171,15058 14288,14887 14405,14711 14522,14562 14639,14480 14756,14396 14874,14225 14991,14058 15108,13891 15225,13726 15342,13580 15459,13494 15577,13394 15694,13216 15811,13048 15928,12868 16045,12709 16163,12583 16280,12487 16397,12401 16514,12214 16631,12039 16748,11860 16866,11702 16983,11537 17100,11461 17217,11378 17334,11252 17451,11034 17569,10880 17686,10715 17803,10567 17920,10493 18037,10416 18155,10259 18272,10063 18389,9894"/>
 <path fill="none" stroke="rgb(0,169,51)" stroke-width="80" stroke-linejoin="round" stroke-dasharray="80,40" d="M 1985,23329 L 2102,23329 2220,23329 2337,23329 2454,23329 2571,23328 2688,23328 2805,23328 2923,23327 3040,23326 3157,23325 3274,23323 3391,23323 3508,23321 3626,23318 3743,23316 3860,23312 3977,23308 4094,23301 4212,23298 4329,23290 4446,23286 4563,23277 4680,23268 4797,23263 4915,23255 5032,23238 5149,23229 5266,23220 5383,23207 5500,23183 5618,23175 5735,23169 5852,23137 5969,23111 6086,23089 6204,23055 6321,23036 6438,23026 6555,23007 6672,22977 6789,22940 6907,22912 7024,22886 7141,22866 7258,22845 7375,22819 7492,22766 7610,22722 7727,22664 7844,22619 7961,22576 8078,22551 8196,22526 8313,22447 8430,22381 8547,22323 8664,22258 8781,22195 8899,22166 9016,22131 9133,22056 9250,21961 9367,21866 9484,21759 9602,21716 9719,21667 9836,21614 9953,21501 10070,21397 10188,21297 10305,21213 10422,21131 10539,21097 10656,21044 10773,20939 10891,20693 11008,20510 11125,20369 11242,20293 11359,20250 11476,20171 11594,20037 11711,19878 11827,19746 11944,19632 12061,19537 12179,19477 12296,19378 12413,19214 12530,19041 12647,18891 12764,18745 12882,18658 12999,18424 13116,18253 13233,18075 13350,17862 13467,17697 13585,17535 13702,17400 13819,17340 13936,17233 14053,17088 14171,16921 14288,16768 14405,16621 14522,16504 14639,16443 14756,16335 14874,16133 14991,15958 15108,15794 15225,15644 15342,15523 15459,15461 15577,15352 15694,15164 15811,15034 15928,14884 16045,14718 16163,14588 16280,14522 16397,14454 16514,14248 16631,14071 16748,13909 16866,13744 16983,13580 17100,13511 17217,13434 17334,13242 17451,13133 17569,12990 17686,12835 17803,12659 17920,12597 18037,12537 18155,12346 18272,12159 18389,11975"/>
 <path fill="none" stroke="rgb(21,132,102)" stroke-width="80" stroke-linejoin="round" stroke-dasharray="51,127,51,127,254,127,254,127,254,127" d="M 1282,23203 L 1399,23181 1516,23142 1634,23101 1751,23053 1868,23004 1985,22938 2102,22843 2220,22730 2337,22627 2454,22506 2571,22367 2688,22201 2805,22028 2923,21833 3040,21634 3157,21445 3274,21232 3391,21005 3508,20747 3626,20463 3743,20182 3860,19925 3977,19733 4094,19496 4212,19176 4329,18947 4446,18652 4563,18388 4680,18192 4797,17996 4915,17797 5032,17600 5149,17271 5266,17021 5383,16773 5500,16611 5618,16460 5735,16287 5852,16091 5969,15894 6086,15704 6204,15529 6321,15379 6438,15278 6555,15149 6672,15014 6789,14857 6907,14742 7024,14662 7141,14535 7258,14472 7375,14384 7492,14294 7610,14153 7727,14061 7844,13960 7961,13901 8078,13857 8196,13791 8313,13709 8430,13632 8547,13545 8664,13482 8781,13445 8899,13374 9016,13332 9133,13313 9250,13259 9367,13218 9484,13131 9602,13098 9719,13076 9836,13212 9953,13156 10070,13121 10188,13094 10305,13064 10422,13038 10539,13025 10656,13012 10773,12988 10891,12962 11008,12941 11125,12917 11242,12903 11359,12893 11476,12877 11594,12854 11711,12836 11827,12823 11944,12810 12061,12797 12179,12791 12296,12783 12413,12764 12530,12745 12647,12732 12764,12621 12882,12613 12999,12610 13116,12604 13233,12590 13350,12585 13467,12575 13585,12562 13702,12560 13819,12557 13936,12549 14053,12538 14171,12530 14288,12520 14405,12513 14522,12508 14639,12507 14756,12501 14874,12495 14991,12489 15108,12480 15225,12473 15342,12471 15459,12469 15577,12465 15694,12461 15811,12448 15928,12442 16045,12436 16163,12434 16280,12433 16397,12427 16514,12425 16631,12421 16748,12416 16866,12410 16983,12409 17100,12406 17217,12405 17334,12401 17451,12396 17569,12392 17686,12387 17803,12386 17920,12384 18037,12380 18155,12374 18272,12369 18389,12366"/>
 <path fill="none" stroke="rgb(0,0,255)" stroke-width="80" stroke-linejoin="round" stroke-dasharray="51,127,51,127,254,127,254,127,254,127" d="M 1282,23232 L 1399,23215 1516,23185 1634,23154 1751,23117 1868,23078 1985,23028 2102,22955 2220,22868 2337,22787 2454,22694 2571,22587 2688,22457 2805,22324 2923,22173 3040,22018 3157,21871 3274,21705 3391,21529 3508,21327 3626,21105 3743,20886 3860,20686 3977,20535 4094,20349 4212,20098 4329,19916 4446,19685 4563,19478 4680,19322 4797,19167 4915,19010 5032,18853 5149,18594 5266,18398 5383,18203 5500,18075 5618,17953 5735,17815 5852,17660 5969,17503 6086,17352 6204,17212 6321,17092 6438,17011 6555,16906 6672,16797 6789,16672 6907,16578 7024,16513 7141,16411 7258,16359 7375,16287 7492,16214 7610,16101 7727,16026 7844,15943 7961,15895 8078,15857 8196,15804 8313,15737 8430,15673 8547,15602 8664,15550 8781,15519 8899,15462 9016,15427 9133,15410 9250,15366 9367,15333 9484,15263 9602,15236 9719,15218 9836,15320 9953,15274 10070,15246 10188,15222 10305,15197 10422,15175 10539,15164 10656,15152 10773,15131 10891,15109 11008,15092 11125,15070 11242,15057 11359,15049 11476,15035 11594,15015 11711,14998 11827,14988 11944,14976 12061,14964 12179,14957 12296,14949 12413,14932 12530,14915 12647,14901 12764,14813 12882,14805 12999,14801 13116,14795 13233,14782 13350,14775 13467,14765 13585,14753 13702,14750 13819,14746 13936,14737 14053,14726 14171,14717 14288,14707 14405,14698 14522,14693 14639,14690 14756,14684 14874,14676 14991,14669 15108,14659 15225,14652 15342,14648 15459,14646 15577,14640 15694,14634 15811,14622 15928,14615 16045,14608 16163,14605 16280,14603 16397,14597 16514,14592 16631,14585 16748,14578 16866,14571 16983,14568 17100,14564 17217,14561 17334,14554 17451,14547 17569,14540 17686,14532 17803,14528 17920,14524 18037,14518 18155,14509 18272,14500 18389,14493"/>
 <path fill="none" stroke="rgb(85,48,141)" stroke-width="80" stroke-linejoin="round" stroke-dasharray="80,40" d="M 1282,23329 L 1399,23329 1516,23329 1634,23326 1751,23326 1868,23323 1985,23323 2102,23320 2220,23315 2337,23313 2454,23310 2571,23310 2688,23306 2805,23300 2923,23288 3040,23283 3157,23280 3274,23268 3391,23252 3508,23246 3626,23223 3743,23192 3860,23162 3977,23131 4094,23069 4212,23042 4329,23017 4446,22943 4563,22902 4680,22827 4797,22781 4915,22730 5032,22638 5149,22555 5266,22363 5383,22288 5500,22254 5618,22128 5735,22003 5852,21863 5969,21734 6086,21609 6204,21485 6321,21355 6438,21266 6555,21148 6672,21039 6789,20907 6907,20788 7024,20614 7141,20501 7258,20415 7375,20256 7492,20112 7610,19977 7727,19843 7844,19723 7961,19626 8078,19497 8196,19402 8313,19260 8430,19164 8547,19036 8664,18969 8781,18876 8899,18797 9016,18753 9133,18701 9250,18607 9367,18517 9484,18446 9602,18364 9719,18312 9836,18219 9953,18144 10070,18050 10188,17968 10305,17906 10422,17832 10539,17667 10656,17644 10773,17587 10891,17510 11008,17404 11125,17357 11242,17302 11359,17281 11476,17256 11594,17210 11711,17157 11827,17132 11944,17090 12061,17046 12179,17019 12296,17011 12413,16978 12530,16947 12647,16909 12764,16873 12882,16829 12999,16816 13116,16807 13233,16793 13350,16769 13467,16751 13585,16748 13702,16744 13819,16740 13936,16704 14053,16687 14171,16666 14288,16649 14405,16632 14522,16624 14639,16619 14756,16612 14874,16599 14991,16583 15108,16574 15225,16564 15342,16558 15459,16550 15577,16545 15694,16538 15811,16528 15928,16515 16045,16508 16163,16502 16280,16498 16397,16494 16514,16489 16631,16485 16748,16481 16866,16478 16983,16473 17100,16469 17217,16461 17334,16452 17451,16448 17569,16439 17686,16434 17803,16429 17920,16426 18037,16422 18155,16415 18272,16411 18389,16409"/>
 <path fill="none" stroke="rgb(129,212,26)" stroke-width="80" stroke-linejoin="round" d="M 1282,23293 L 1399,23286 1516,23283 1634,23283 1751,23239 1868,23236 1985,23192 2102,23149 2220,23078 2337,23001 2454,22928 2571,22921 2688,22817 2805,22690 2923,22556 3040,22445 3157,22325 3274,22127 3391,21880 3508,21695 3626,21535 3743,21350 3860,21099 3977,20935 4094,20768 4212,20580 4329,20332 4446,20155 4563,19974 4680,19860 4797,19626 4915,19519 5032,19398 5149,19181 5266,19040 5383,18886 5500,18749 5618,18665 5735,18544 5852,18380 5969,18276 6086,18142 6204,18008 6321,17975 6438,17938 6555,17754 6672,17640 6789,17583 6907,17513 7024,17456 7141,17429 7258,17429 7375,17356 7492,17319 7610,17285 7727,17268 7844,17225 7961,17201 8078,17191 8196,17151 8313,17078 8430,17068 8547,17061 8664,17041 8781,17037 8899,17031 9016,17014 9133,16997 9250,16994 9367,16974 9484,16957 9602,16950 9719,16947 9836,16924 9953,16917 10070,16910 10188,16903 10305,16903 10422,16903 10539,16900 10656,16900 10773,16900 10891,16897 11008,16897 11125,16897 11242,16897 11359,16897 11476,16890 11594,16853 11711,16847 11827,16843 11944,16840 12061,16840 12179,16840 12296,16836 12413,16786 12530,16780 12647,16780 12764,16780 12882,16780 12999,16780 13116,16780 13233,16780 13350,16773 13467,16773 13585,16759 13702,16759 13819,16759 13936,16759 14053,16756 14171,16749 14288,16749 14405,16749 14522,16749 14639,16749 14756,16749 14874,16746 14991,16746 15108,16746 15225,16746 15342,16739 15459,16739 15577,16739 15694,16739 15811,16739 15928,16736 16045,16736 16163,16736 16280,16736 16397,16729 16514,16726 16631,16726 16748,16716 16866,16709 16983,16709 17100,16709 17217,16706 17334,16706 17451,16703 17569,16699 17686,16696 17803,16696 17920,16696 18037,16696 18155,16696 18272,16686 18389,16682"/>
 <path fill="none" stroke="rgb(52,42,6)" stroke-width="80" stroke-linejoin="round" d="M 1282,23327 L 1399,23326 1516,23326 1634,23324 1751,23321 1868,23320 1985,23314 2102,23306 2220,23300 2337,23297 2454,23287 2571,23275 2688,23258 2805,23237 2923,23211 3040,23180 3157,23145 3274,23106 3391,23061 3508,23011 3626,22947 3743,22888 3860,22830 3977,22782 4094,22703 4212,22632 4329,22517 4446,22428 4563,22372 4680,22383 4797,22284 4915,22225 5032,22190 5149,22014 5266,21928 5383,21824 5500,21787 5618,21743 5735,21648 5852,21589 5969,21503 6086,21401 6204,21337 6321,21297 6438,21262 6555,21210 6672,21145 6789,21093 6907,21039 7024,20999 7141,20973 7258,20955 7375,20911 7492,20911 7610,20813 7727,20773 7844,20732 7961,20718 8078,20711 8196,20680 8313,20653 8430,20610 8547,20602 8664,20598 8781,20584 8899,20575 9016,20561 9133,20534 9250,20512 9367,20492 9484,20483 9602,20472 9719,20464 9836,20455 9953,20434 10070,20414 10188,20400 10305,20388 10422,20379 10539,20375 10656,20370 10773,20368 10891,20354 11008,20343 11125,20335 11242,20329 11359,20325 11476,20322 11594,20308 11711,20302 11827,20295 11944,20291 12061,20288 12179,20285 12296,20283 12413,20279 12530,20268 12647,20260 12764,20255 12882,20253 12999,20253 13116,20251 13233,20246 13350,20241 13467,20237 13585,20228 13702,20227 13819,20227 13936,20225 14053,20220 14171,20218 14288,20214 14405,20213 14522,20209 14639,20208 14756,20209 14874,20205 14991,20200 15108,20197 15225,20195 15342,20192 15459,20192 15577,20191 15694,20189 15811,20189 15928,20186 16045,20186 16163,20185 16280,20185 16397,20184 16514,20182 16631,20181 16748,20178 16866,20175 16983,20173 17100,20173 17217,20173 17334,20171 17451,20170 17569,20167 17686,20166 17803,20163 17920,20163 18037,20163 18155,20160 18272,20154 18389,20154"/>
 <path fill="none" stroke="rgb(180,120,4)" stroke-width="80" stroke-linejoin="round" d="M 1399,23325 L 1516,23320 1634,23315 1751,23310 1868,23310 1985,23300 2102,23285 2220,23266 2337,23266 2454,23212 2571,23172 2688,23162 2805,23128 2923,23074 3040,23010 3157,22976 3274,22951 3391,22887 3508,22818 3626,22725 3743,22646 3860,22538 3977,22450 4094,22411 4212,22332 4329,22258 4446,22165 4563,22116 4680,22052 4797,21988 4915,21929 5032,21860 5149,21811 5266,21752 5383,21678 5500,21629 5618,21585 5735,21541 5852,21511 5969,21443 6086,21393 6204,21349 6321,21275 6438,21256 6555,21231 6672,21197 6789,21153 6907,21108 7024,21069 7141,20995 7258,20951 7375,20907 7492,20858 7610,20843 7727,20804 7844,20764 7961,20745 8078,20730 8196,20710 8313,20740 8430,20710 8547,20691 8664,20691 8781,20661 8899,20642 9016,20637 9133,20622 9250,20607 9367,20573 9484,20573 9602,20573 9719,20568 9836,20563 9953,20563 10070,20553 10188,20538 10305,20538 10422,20524 10539,20509 10656,20499 10773,20479 10891,20479 11008,20470 11125,20450 11242,20445 11359,20435 11476,20416 11594,20416 11711,20416 11827,20416 11944,20411 12061,20396 12179,20396 12296,20391 12413,20391 12530,20391 12647,20381 12764,20381 12882,20381 12999,20381 13116,20371 13233,20366 13350,20366 13467,20366 13585,20362 13702,20362 13819,20362 13936,20357 14053,20357 14171,20352 14288,20352 14405,20352 14522,20352 14639,20352 14756,20347 14874,20337 14991,20337 15108,20337 15225,20337 15342,20337 15459,20337 15577,20332 15694,20332 15811,20332 15928,20332 16045,20327 16163,20327 16280,20327 16397,20327 16514,20327 16631,20327 16748,20322 16866,20317 16983,20317 17100,20317 17217,20317 17334,20317 17451,20312 17569,20307 17686,20307 17803,20307 17920,20307 18037,20303 18155,20303 18272,20303 18389,20298"/>
 <path fill="none" stroke="rgb(21,132,102)" stroke-width="80" stroke-linejoin="round" stroke-dasharray="80,203,80,203,203,203" d="M 1282,23309 L 1399,23308 1516,23305 1634,23303 1751,23300 1868,23297 1985,23292 2102,23287 2220,23281 2337,23274 2454,23267 2571,23259 2688,23248 2805,23237 2923,23224 3040,23210 3157,23197 3274,23182 3391,23164 3508,23143 3626,23119 3743,23097 3860,23075 3977,23056 4094,23034 4212,23004 4329,22979 4446,22950 4563,22923 4680,22900 4797,22879 4915,22857 5032,22831 5149,22800 5266,22773 5383,22739 5500,22715 5618,22698 5735,22678 5852,22651 5969,22625 6086,22600 6204,22575 6321,22554 6438,22539 6555,22522 6672,22498 6789,22472 6907,22450 7024,22431 7141,22411 7258,22398 7375,22382 7492,22360 7610,22336 7727,22316 7844,22295 7961,22279 8078,22266 8196,22253 8313,22232 8430,22212 8547,22193 8664,22173 8781,22158 8899,22145 9016,22133 9133,22115 9250,22097 9367,22079 9484,22060 9602,22045 9719,22033 9836,22029 9953,22013 10070,21994 10188,21976 10305,21958 10422,21943 10539,21932 10656,21921 10773,21903 10891,21882 11008,21863 11125,21845 11242,21830 11359,21820 11476,21806 11594,21788 11711,21769 11827,21751 11944,21735 12061,21719 12179,21707 12296,21694 12413,21668 12530,21649 12647,21630 12764,21607 12882,21591 12999,21576 13116,21563 13233,21543 13350,21523 13467,21506 13585,21488 13702,21471 13819,21459 13936,21445 14053,21426 14171,21408 14288,21388 14405,21370 14522,21353 14639,21341 14756,21326 14874,21303 14991,21284 15108,21263 15225,21243 15342,21225 15459,21210 15577,21196 15694,21175 15811,21154 15928,21133 16045,21108 16163,21087 16280,21071 16397,21056 16514,21033 16631,21007 16748,20969 16866,20947 16983,20926 17100,20912 17217,20893 17334,20869 17451,20844 17569,20822 17686,20798 17803,20778 17920,20762 18037,20746 18155,20720 18272,20693 18389,20670"/>
 <path fill="none" stroke="rgb(0,169,51)" stroke-width="80" stroke-linejoin="round" d="M 1282,23326 L 1399,23326 1516,23326 1634,23320 1751,23320 1868,23317 1985,23310 2102,23310 2220,23304 2337,23278 2454,23262 2571,23239 2688,23233 2805,23172 2923,23143 3040,23111 3157,23053 3274,22982 3391,22918 3508,22860 3626,22821 3743,22789 3860,22731 3977,22673 4094,22622 4212,22548 4329,22451 4446,22380 4563,22303 4680,22245 4797,22203 4915,22145 5032,22094 5149,22065 5266,22010 5383,21943 5500,21904 5618,21875 5735,21817 5852,21750 5969,21688 6086,21650 6204,21624 6321,21605 6438,21585 6555,21563 6672,21499 6789,21463 6907,21450 7024,21434 7141,21412 7258,21405 7375,21399 7492,21379 7610,21373 7727,21370 7844,21354 7961,21351 8078,21341 8196,21334 8313,21325 8430,21322 8547,21315 8664,21309 8781,21305 8899,21305 9016,21305 9133,21296 9250,21293 9367,21293 9484,21286 9602,21273 9719,21270 9836,21267 9953,21260 10070,21254 10188,21180 10305,21180 10422,21180 10539,21180 10656,21180 10773,21177 10891,21174 11008,21174 11125,21167 11242,21167 11359,21167 11476,21167 11594,21167 11711,21164 11827,21161 11944,21157 12061,21151 12179,21151 12296,21148 12413,21138 12530,21119 12647,21116 12764,21116 12882,21116 12999,21109 13116,21109 13233,21100 13350,21100 13467,21083 13585,21083 13702,21077 13819,21071 13936,21067 14053,21061 14171,21061 14288,21061 14405,21061 14522,21061 14639,21058 14756,21058 14874,21058 14991,21058 15108,21058 15225,21058 15342,21058 15459,21051 15577,21051 15694,21048 15811,21045 15928,21042 16045,21042 16163,21042 16280,21042 16397,21042 16514,21045 16631,21042 16748,21042 16866,21042 16983,21038 17100,21038 17217,21035 17334,21035 17451,21026 17569,21019 17686,21019 17803,21019 17920,21019 18037,21019 18155,21016 18272,21016 18389,21016"/>
 <path fill="none" stroke="rgb(191,0,65)" stroke-width="80" stroke-linejoin="round" stroke-dasharray="51,127,51,127,254,127,254,127,254,127" d="M 1282,23329 L 1399,23328 1516,23328 1634,23327 1751,23327 1868,23327 1985,23326 2102,23326 2220,23325 2337,23323 2454,23321 2571,23317 2688,23312 2805,23308 2923,23305 3040,23298 3157,23292 3274,23280 3391,23270 3508,23260 3626,23245 3743,23229 3860,23217 3977,23204 4094,23186 4212,23165 4329,23142 4446,23121 4563,23105 4680,23084 4797,23061 4915,23046 5032,23022 5149,23000 5266,22981 5383,22962 5500,22946 5618,22922 5735,22902 5852,22881 5969,22859 6086,22838 6204,22811 6321,22790 6438,22777 6555,22757 6672,22734 6789,22710 6907,22689 7024,22673 7141,22654 7258,22640 7375,22621 7492,22602 7610,22584 7727,22565 7844,22545 7961,22531 8078,22515 8196,22502 8313,22487 8430,22464 8547,22450 8664,22435 8781,22422 8899,22413 9016,22402 9133,22389 9250,22380 9367,22371 9484,22361 9602,22352 9719,22346 9836,22334 9953,22323 10070,22315 10188,22307 10305,22296 10422,22287 10539,22283 10656,22276 10773,22265 10891,22254 11008,22249 11125,22235 11242,22228 11359,22223 11476,22217 11594,22206 11711,22196 11827,22191 11944,22183 12061,22174 12179,22165 12296,22156 12413,22147 12530,22136 12647,22119 12764,22110 12882,22100 12999,22093 13116,22087 13233,22076 13350,22063 13467,22055 13585,22043 13702,22039 13819,22029 13936,22019 14053,22007 14171,21997 14288,21986 14405,21973 14522,21964 14639,21957 14756,21949 14874,21937 14991,21926 15108,21917 15225,21908 15342,21899 15459,21894 15577,21885 15694,21870 15811,21861 15928,21851 16045,21843 16163,21834 16280,21827 16397,21820 16514,21805 16631,21791 16748,21778 16866,21767 16983,21759 17100,21749 17217,21739 17334,21725 17451,21709 17569,21691 17686,21673 17803,21661 17920,21648 18037,21635 18155,21617 18272,21596 18389,21574"/>
 <path fill="none" stroke="rgb(0,132,209)" stroke-width="80" stroke-linejoin="round" d="M 1399,23313 L 1516,23313 1634,23313 1751,23313 1868,23297 1985,23292 2102,23292 2220,23292 2337,23292 2454,23276 2571,23265 2688,23255 2805,23255 2923,23228 3040,23207 3157,23196 3274,23158 3391,23121 3508,23094 3626,23062 3743,23014 3860,22998 3977,22950 4094,22923 4212,22854 4329,22790 4446,22752 4563,22725 4680,22693 4797,22645 4915,22613 5032,22586 5149,22528 5266,22517 5383,22469 5500,22453 5618,22447 5735,22362 5852,22357 5969,22330 6086,22292 6204,22266 6321,22255 6438,22255 6555,22234 6672,22228 6789,22223 6907,22207 7024,22207 7141,22202 7258,22202 7375,22185 7492,22180 7610,22175 7727,22169 7844,22164 7961,22159 8078,22159 8196,22132 8313,22111 8430,22105 8547,22089 8664,22089 8781,22089 8899,22089 9016,22084 9133,22084 9250,22079 9367,22073 9484,22073 9602,22073 9719,22073 9836,22073 9953,22073 10070,22073 10188,22068 10305,22068 10422,22068 10539,22068 10656,22068 10773,22063 10891,22063 11008,22057 11125,22057 11242,22057 11359,22057 11476,22052 11594,22052 11711,22052 11827,22036 11944,22036 12061,22036 12179,22036 12296,22036 12413,22036 12530,22030 12647,22025 12764,22025 12882,22025 12999,22025 13116,22004 13233,22004 13350,21998 13467,21998 13585,21998 13702,21998 13819,21998 13936,21998 14053,21993 14171,21988 14288,21988 14405,21988 14522,21988 14639,21988 14756,21988 14874,21988 14991,21988 15108,21982 15225,21982 15342,21982 15459,21982 15577,21977 15694,21977 15811,21977 15928,21972 16045,21966 16163,21966 16280,21966 16397,21966 16514,21966 16631,21966 16748,21966 16866,21966 16983,21966 17100,21966 17217,21966 17334,21966 17451,21966 17569,21966 17686,21966 17803,21966 17920,21966 18037,21961 18155,21961 18272,21961 18389,21961"/>
 <path fill="none" stroke="rgb(255,191,0)" stroke-width="80" stroke-linejoin="round" d="M 2337,23327 L 2454,23327 2571,23321 2688,23313 2805,23305 2923,23305 3040,23300 3157,23286 3274,23267 3391,23246 3508,23224 3626,23210 3743,23186 3860,23170 3977,23148 4094,23118 4212,23091 4329,23062 4446,23026 4563,23007 4680,22980 4797,22956 4915,22943 5032,22894 5149,22880 5266,22872 5383,22861 5500,22840 5618,22826 5735,22804 5852,22786 5969,22767 6086,22761 6204,22750 6321,22740 6438,22734 6555,22726 6672,22715 6789,22715 6907,22691 7024,22680 7141,22666 7258,22658 7375,22648 7492,22634 7610,22620 7727,22599 7844,22591 7961,22583 8078,22572 8196,22566 8313,22564 8430,22545 8547,22537 8664,22531 8781,22528 8899,22523 9016,22526 9133,22512 9250,22507 9367,22501 9484,22485 9602,22480 9719,22477 9836,22472 9953,22472 10070,22472 10188,22466 10305,22466 10422,22466 10539,22463 10656,22461 10773,22455 10891,22450 11008,22447 11125,22445 11242,22445 11359,22445 11476,22442 11594,22442 11711,22436 11827,22442 11944,22439 12061,22442 12179,22439 12296,22436 12413,22434 12530,22428 12647,22426 12764,22423 12882,22420 12999,22420 13116,22420 13233,22412 13350,22401 13467,22396 13585,22385 13702,22385 13819,22388 13936,22388 14053,22385 14171,22385 14288,22374 14405,22374 14522,22380 14639,22388 14756,22382 14874,22380 14991,22380 15108,22377 15225,22377 15342,22377 15459,22377 15577,22374 15694,22369 15811,22369 15928,22369 16045,22361 16163,22361 16280,22358 16397,22358 16514,22355 16631,22344 16748,22342 16866,22331 16983,22331 17100,22325 17217,22320 17334,22317 17451,22317 17569,22304 17686,22296 17803,22293 17920,22290 18037,22285 18155,22293 18272,22279 18389,22274"/>
 <path fill="none" stroke="rgb(128,0,128)" stroke-width="80" stroke-linejoin="round" stroke-dasharray="158,158" d="M 1282,23329 L 1399,23329 1516,23329 1634,23329 1751,23329 1868,23329 1985,23329 2102,23329 2220,23329 2337,23329 2454,23329 2571,23329 2688,23329 2805,23329 2923,23329 3040,23329 3157,23329 3274,23329 3391,23329 3508,23328 3626,23328 3743,23328 3860,23328 3977,23327 4094,23327 4212,23326 4329,23326 4446,23325 4563,23324 4680,23323 4797,23323 4915,23322 5032,23321 5149,23321 5266,23320 5383,23319 5500,23319 5618,23318 5735,23317 5852,23316 5969,23315 6086,23314 6204,23313 6321,23312 6438,23311 6555,23310 6672,23308 6789,23307 6907,23305 7024,23304 7141,23302 7258,23300 7375,23297 7492,23294 7610,23292 7727,23290 7844,23288 7961,23285 8078,23283 8196,23281 8313,23279 8430,23276 8547,23274 8664,23272 8781,23269 8899,23266 9016,23263 9133,23260 9250,23257 9367,23254 9484,23251 9602,23248 9719,23245 9836,23242 9953,23238 10070,23234 10188,23231 10305,23225 10422,23221 10539,23216 10656,23212 10773,23207 10891,23202 11008,23196 11125,23190 11242,23184 11359,23178 11476,23173 11594,23167 11711,23159 11827,23151 11944,23143 12061,23136 12179,23130 12296,23122 12413,23080 12530,23073 12647,23065 12764,23058 12882,23051 12999,23042 13116,23035 13233,23025 13350,23017 13467,23008 13585,23000 13702,22991 13819,22984 13936,22975 14053,22964 14171,22955 14288,22947 14405,22938 14522,22925 14639,22916 14756,22906 14874,22896 14991,22886 15108,22876 15225,22865 15342,22853 15459,22843 15577,22831 15694,22819 15811,22806 15928,22792 16045,22778 16163,22766 16280,22752 16397,22740 16514,22726 16631,22702 16748,22687 16866,22671 16983,22656 17100,22641 17217,22628 17334,22611 17451,22595 17569,22579 17686,22563 17803,22545 17920,22529 18037,22512 18155,22494 18272,22475 18389,22456"/>
 <path fill="none" stroke="rgb(0,0,255)" stroke-width="80" stroke-linejoin="round" stroke-dasharray="158,158" d="M 1282,23292 L 1399,23289 1516,23287 1634,23287 1751,23284 1868,23282 1985,23278 2102,23276 2220,23272 2337,23267 2454,23267 2571,23262 2688,23258 2805,23255 2923,23251 3040,23248 3157,23244 3274,23240 3391,23238 3508,23236 3626,23234 3743,23231 3860,23229 3977,23226 4094,23224 4212,23221 4329,23216 4446,23214 4563,23212 4680,23210 4797,23209 4915,23207 5032,23204 5149,23202 5266,23200 5383,23199 5500,23198 5618,23197 5735,23196 5852,23196 5969,23195 6086,23194 6204,23194 6321,23193 6438,23192 6555,23192 6672,23190 6789,23190 6907,23189 7024,23188 7141,23188 7258,23187 7375,23186 7492,23185 7610,23185 7727,23185 7844,23185 7961,23185 8078,23185 8196,23184 8313,23183 8430,23183 8547,23183 8664,23181 8781,23181 8899,23181 9016,23181 9133,23181 9250,23180 9367,23180 9484,23179 9602,23179 9719,23179 9836,23177 9953,23177 10070,23177 10188,23177 10305,23177 10422,23177 10539,23176 10656,23176 10773,23175 10891,23175 11008,23175 11125,23175 11242,23175 11359,23175 11476,23175 11594,23173 11711,23173 11827,23173 11944,23173 12061,23173 12179,23173 12296,23172 12413,23172 12530,23171 12647,23171 12764,23171 12882,23171 12999,23171 13116,23171 13233,23171 13350,23170 13467,23170 13585,23170 13702,23170 13819,23170 13936,23170 14053,23170 14171,23170 14288,23170 14405,23170 14522,23170 14639,23169 14756,23168 14874,23168 14991,23167 15108,23167 15225,23167 15342,23166 15459,23166 15577,23166 15694,23166 15811,23165 15928,23164 16045,23163 16163,23163 16280,23162 16397,23162 16514,23162 16631,23162 16748,23161 16866,23161 16983,23161 17100,23160 17217,23160 17334,23160 17451,23160 17569,23159 17686,23159 17803,23159 17920,23159 18037,23159 18155,23159 18272,23159 18389,23158"/>
 <text class="TextShape" transform="rotate(-90 1408 24534)"><tspan class="TextParagraph" font-family="Liberation Sans, sans-serif" font-size="388px" font-weight="400"><tspan class="TextPosition" x="1408" y="24534"><tspan fill="rgb(0,0,0)" stroke="none">13.03</tspan></tspan></tspan></text>
 <text class="TextShape" transform="rotate(-90 2228 24534)"><tspan class="TextParagraph" font-family="Liberation Sans, sans-serif" font-size="388px" font-weight="400"><tspan class="TextPosition" x="2228" y="24534"><tspan fill="rgb(0,0,0)" stroke="none">20.03</tspan></tspan></tspan></text>
 <text class="TextShape" transform="rotate(-90 3049 24534)"><tspan class="TextParagraph" font-family="Liberation Sans, sans-serif" font-size="388px" font-weight="400"><tspan class="TextPosition" x="3049" y="24534"><tspan fill="rgb(0,0,0)" stroke="none">27.03</tspan></tspan></tspan></text>
 <text class="TextShape" transform="rotate(-90 3869 24534)"><tspan class="TextParagraph" font-family="Liberation Sans, sans-serif" font-size="388px" font-weight="400"><tspan class="TextPosition" x="3869" y="24534"><tspan fill="rgb(0,0,0)" stroke="none">03.04</tspan></tspan></tspan></text>
 <text class="TextShape" transform="rotate(-90 4689 24534)"><tspan class="TextParagraph" font-family="Liberation Sans, sans-serif" font-size="388px" font-weight="400"><tspan class="TextPosition" x="4689" y="24534"><tspan fill="rgb(0,0,0)" stroke="none">10.04</tspan></tspan></tspan></text>
 <text class="TextShape" transform="rotate(-90 5509 24534)"><tspan class="TextParagraph" font-family="Liberation Sans, sans-serif" font-size="388px" font-weight="400"><tspan class="TextPosition" x="5509" y="24534"><tspan fill="rgb(0,0,0)" stroke="none">17.04</tspan></tspan></tspan></text>
 <text class="TextShape" transform="rotate(-90 6330 24534)"><tspan class="TextParagraph" font-family="Liberation Sans, sans-serif" font-size="388px" font-weight="400"><tspan class="TextPosition" x="6330" y="24534"><tspan fill="rgb(0,0,0)" stroke="none">24.04</tspan></tspan></tspan></text>
 <text class="TextShape" transform="rotate(-90 7150 24534)"><tspan class="TextParagraph" font-family="Liberation Sans, sans-serif" font-size="388px" font-weight="400"><tspan class="TextPosition" x="7150" y="24534"><tspan fill="rgb(0,0,0)" stroke="none">01.05</tspan></tspan></tspan></text>
 <text class="TextShape" transform="rotate(-90 7970 24534)"><tspan class="TextParagraph" font-family="Liberation Sans, sans-serif" font-size="388px" font-weight="400"><tspan class="TextPosition" x="7970" y="24534"><tspan fill="rgb(0,0,0)" stroke="none">08.05</tspan></tspan></tspan></text>
 <text class="TextShape" transform="rotate(-90 8790 24534)"><tspan class="TextParagraph" font-family="Liberation Sans, sans-serif" font-size="388px" font-weight="400"><tspan class="TextPosition" x="8790" y="24534"><tspan fill="rgb(0,0,0)" stroke="none">15.05</tspan></tspan></tspan></text>
 <text class="TextShape" transform="rotate(-90 9610 24534)"><tspan class="TextParagraph" font-family="Liberation Sans, sans-serif" font-size="388px" font-weight="400"><tspan class="TextPosition" x="9610" y="24534"><tspan fill="rgb(0,0,0)" stroke="none">22.05</tspan></tspan></tspan></text>
 <text class="TextShape" transform="rotate(-90 10431 24534)"><tspan class="TextParagraph" font-family="Liberation Sans, sans-serif" font-size="388px" font-weight="400"><tspan class="TextPosition" x="10431" y="24534"><tspan fill="rgb(0,0,0)" stroke="none">29.05</tspan></tspan></tspan></text>
 <text class="TextShape" transform="rotate(-90 11251 24534)"><tspan class="TextParagraph" font-family="Liberation Sans, sans-serif" font-size="388px" font-weight="400"><tspan class="TextPosition" x="11251" y="24534"><tspan fill="rgb(0,0,0)" stroke="none">05.06</tspan></tspan></tspan></text>
 <text class="TextShape" transform="rotate(-90 12070 24534)"><tspan class="TextParagraph" font-family="Liberation Sans, sans-serif" font-size="388px" font-weight="400"><tspan class="TextPosition" x="12070" y="24534"><tspan fill="rgb(0,0,0)" stroke="none">12.06</tspan></tspan></tspan></text>
 <text class="TextShape" transform="rotate(-90 12890 24534)"><tspan class="TextParagraph" font-family="Liberation Sans, sans-serif" font-size="388px" font-weight="400"><tspan class="TextPosition" x="12890" y="24534"><tspan fill="rgb(0,0,0)" stroke="none">19.06</tspan></tspan></tspan></text>
 <text class="TextShape" transform="rotate(-90 13711 24534)"><tspan class="TextParagraph" font-family="Liberation Sans, sans-serif" font-size="388px" font-weight="400"><tspan class="TextPosition" x="13711" y="24534"><tspan fill="rgb(0,0,0)" stroke="none">26.06</tspan></tspan></tspan></text>
 <text class="TextShape" transform="rotate(-90 14531 24534)"><tspan class="TextParagraph" font-family="Liberation Sans, sans-serif" font-size="388px" font-weight="400"><tspan class="TextPosition" x="14531" y="24534"><tspan fill="rgb(0,0,0)" stroke="none">03.07</tspan></tspan></tspan></text>
 <text class="TextShape" transform="rotate(-90 15351 24534)"><tspan class="TextParagraph" font-family="Liberation Sans, sans-serif" font-size="388px" font-weight="400"><tspan class="TextPosition" x="15351" y="24534"><tspan fill="rgb(0,0,0)" stroke="none">10.07</tspan></tspan></tspan></text>
 <text class="TextShape" transform="rotate(-90 16171 24534)"><tspan class="TextParagraph" font-family="Liberation Sans, sans-serif" font-size="388px" font-weight="400"><tspan class="TextPosition" x="16171" y="24534"><tspan fill="rgb(0,0,0)" stroke="none">17.07</tspan></tspan></tspan></text>
 <text class="TextShape" transform="rotate(-90 16992 24534)"><tspan class="TextParagraph" font-family="Liberation Sans, sans-serif" font-size="388px" font-weight="400"><tspan class="TextPosition" x="16992" y="24534"><tspan fill="rgb(0,0,0)" stroke="none">24.07</tspan></tspan></tspan></text>
 <text class="TextShape" transform="rotate(-90 17812 24534)"><tspan class="TextParagraph" font-family="Liberation Sans, sans-serif" font-size="388px" font-weight="400"><tspan class="TextPosition" x="17812" y="24534"><tspan fill="rgb(0,0,0)" stroke="none">31.07</tspan></tspan></tspan></text>
 <text class="TextShape"><tspan class="TextParagraph" font-family="Liberation Sans, sans-serif" font-size="388px" font-weight="400"><tspan class="TextPosition" x="762" y="23458"><tspan fill="rgb(0,0,0)" stroke="none">0</tspan></tspan></tspan></text>
 <text class="TextShape"><tspan class="TextParagraph" font-family="Liberation Sans, sans-serif" font-size="388px" font-weight="400"><tspan class="TextPosition" x="551" y="22008"><tspan fill="rgb(0,0,0)" stroke="none">50</tspan></tspan></tspan></text>
 <text class="TextShape"><tspan class="TextParagraph" font-family="Liberation Sans, sans-serif" font-size="388px" font-weight="400"><tspan class="TextPosition" x="339" y="20559"><tspan fill="rgb(0,0,0)" stroke="none">100</tspan></tspan></tspan></text>
 <text class="TextShape"><tspan class="TextParagraph" font-family="Liberation Sans, sans-serif" font-size="388px" font-weight="400"><tspan class="TextPosition" x="339" y="19110"><tspan fill="rgb(0,0,0)" stroke="none">150</tspan></tspan></tspan></text>
 <text class="TextShape"><tspan class="TextParagraph" font-family="Liberation Sans, sans-serif" font-size="388px" font-weight="400"><tspan class="TextPosition" x="339" y="17661"><tspan fill="rgb(0,0,0)" stroke="none">200</tspan></tspan></tspan></text>
 <text class="TextShape"><tspan class="TextParagraph" font-family="Liberation Sans, sans-serif" font-size="388px" font-weight="400"><tspan class="TextPosition" x="339" y="16212"><tspan fill="rgb(0,0,0)" stroke="none">250</tspan></tspan></tspan></text>
 <text class="TextShape"><tspan class="TextParagraph" font-family="Liberation Sans, sans-serif" font-size="388px" font-weight="400"><tspan class="TextPosition" x="339" y="14763"><tspan fill="rgb(0,0,0)" stroke="none">300</tspan></tspan></tspan></text>
 <text class="TextShape"><tspan class="TextParagraph" font-family="Liberation Sans, sans-serif" font-size="388px" font-weight="400"><tspan class="TextPosition" x="339" y="13314"><tspan fill="rgb(0,0,0)" stroke="none">350</tspan></tspan></tspan></text>
 <text class="TextShape"><tspan class="TextParagraph" font-family="Liberation Sans, sans-serif" font-size="388px" font-weight="400"><tspan class="TextPosition" x="339" y="11865"><tspan fill="rgb(0,0,0)" stroke="none">400</tspan></tspan></tspan></text>
 <text class="TextShape"><tspan class="TextParagraph" font-family="Liberation Sans, sans-serif" font-size="388px" font-weight="400"><tspan class="TextPosition" x="339" y="10416"><tspan fill="rgb(0,0,0)" stroke="none">450</tspan></tspan></tspan></text>
 <text class="TextShape"><tspan class="TextParagraph" font-family="Liberation Sans, sans-serif" font-size="388px" font-weight="400"><tspan class="TextPosition" x="339" y="8967"><tspan fill="rgb(0,0,0)" stroke="none">500</tspan></tspan></tspan></text>
 <text class="TextShape"><tspan class="TextParagraph" font-family="Liberation Sans, sans-serif" font-size="388px" font-weight="400"><tspan class="TextPosition" x="339" y="7518"><tspan fill="rgb(0,0,0)" stroke="none">550</tspan></tspan></tspan></text>
 <text class="TextShape"><tspan class="TextParagraph" font-family="Liberation Sans, sans-serif" font-size="388px" font-weight="400"><tspan class="TextPosition" x="339" y="6069"><tspan fill="rgb(0,0,0)" stroke="none">600</tspan></tspan></tspan></text>
 <text class="TextShape"><tspan class="TextParagraph" font-family="Liberation Sans, sans-serif" font-size="388px" font-weight="400"><tspan class="TextPosition" x="339" y="4620"><tspan fill="rgb(0,0,0)" stroke="none">650</tspan></tspan></tspan></text>
 <text class="TextShape"><tspan class="TextParagraph" font-family="Liberation Sans, sans-serif" font-size="388px" font-weight="400"><tspan class="TextPosition" x="339" y="3171"><tspan fill="rgb(0,0,0)" stroke="none">700</tspan></tspan></tspan></text>
 <text class="TextShape"><tspan class="TextParagraph" font-family="Liberation Sans, sans-serif" font-size="388px" font-weight="400"><tspan class="TextPosition" x="339" y="1722"><tspan fill="rgb(0,0,0)" stroke="none">750</tspan></tspan></tspan></text>
 <text class="TextShape"><tspan class="TextParagraph" font-family="Liberation Sans, sans-serif" font-size="494px" font-weight="700"><tspan class="TextPosition" x="805" y="990"><tspan fill="rgb(0,0,0)" stroke="none">Poet obt na milin obyvatel (mtko do 750 na milin obyvatel)</tspan></tspan></tspan></text>
 <path fill="none" stroke="rgb(112,110,12)" stroke-width="80" stroke-linejoin="round" stroke-dasharray="80,40" d="M 18747,2317 L 20347,2317"/>
 <path fill="none" stroke="rgb(255,128,0)" stroke-width="80" stroke-linejoin="round" d="M 18747,3327 L 20347,3327"/>
 <path fill="none" stroke="rgb(128,0,128)" stroke-width="80" stroke-linejoin="round" d="M 18747,4337 L 20347,4337"/>
 <path fill="none" stroke="rgb(131,202,255)" stroke-width="80" stroke-linejoin="round" d="M 18747,5347 L 20347,5347"/>
 <path fill="none" stroke="rgb(241,13,12)" stroke-width="80" stroke-linejoin="round" d="M 18747,6357 L 20347,6357"/>
 <path fill="none" stroke="rgb(141,40,30)" stroke-width="80" stroke-linejoin="round" stroke-dasharray="80,40" d="M 18747,7367 L 20347,7367"/>
 <path fill="none" stroke="rgb(255,64,0)" stroke-width="80" stroke-linejoin="round" stroke-dasharray="80,40" d="M 18747,8377 L 20347,8377"/>
 <path fill="none" stroke="rgb(0,169,51)" stroke-width="80" stroke-linejoin="round" stroke-dasharray="80,40" d="M 18747,9387 L 20347,9387"/>
 <path fill="none" stroke="rgb(21,132,102)" stroke-width="80" stroke-linejoin="round" stroke-dasharray="51,127,51,127,254,127,254,127,254,127" d="M 18747,10397 L 20347,10397"/>
 <path fill="none" stroke="rgb(0,0,255)" stroke-width="80" stroke-linejoin="round" stroke-dasharray="51,127,51,127,254,127,254,127,254,127" d="M 18747,11407 L 20347,11407"/>
 <path fill="none" stroke="rgb(85,48,141)" stroke-width="80" stroke-linejoin="round" stroke-dasharray="80,40" d="M 18747,12417 L 20347,12417"/>
 <path fill="none" stroke="rgb(129,212,26)" stroke-width="80" stroke-linejoin="round" d="M 18747,13426 L 20347,13426"/>
 <path fill="none" stroke="rgb(52,42,6)" stroke-width="80" stroke-linejoin="round" d="M 18747,14436 L 20347,14436"/>
 <path fill="none" stroke="rgb(180,120,4)" stroke-width="80" stroke-linejoin="round" d="M 18747,15446 L 20347,15446"/>
 <path fill="none" stroke="rgb(21,132,102)" stroke-width="80" stroke-linejoin="round" stroke-dasharray="80,203,80,203,203,203" d="M 18747,16456 L 20347,16456"/>
 <path fill="none" stroke="rgb(0,169,51)" stroke-width="80" stroke-linejoin="round" d="M 18747,17466 L 20347,17466"/>
 <path fill="none" stroke="rgb(191,0,65)" stroke-width="80" stroke-linejoin="round" stroke-dasharray="51,127,51,127,254,127,254,127,254,127" d="M 18747,18476 L 20347,18476"/>
 <path fill="none" stroke="rgb(0,132,209)" stroke-width="80" stroke-linejoin="round" d="M 18747,19486 L 20347,19486"/>
 <path fill="none" stroke="rgb(255,191,0)" stroke-width="80" stroke-linejoin="round" d="M 18747,20496 L 20347,20496"/>
 <path fill="none" stroke="rgb(128,0,128)" stroke-width="80" stroke-linejoin="round" stroke-dasharray="158,158" d="M 18747,21506 L 20347,21506"/>
 <path fill="none" stroke="rgb(0,0,255)" stroke-width="80" stroke-linejoin="round" stroke-dasharray="158,158" d="M 18747,22516 L 20347,22516"/>
 <text class="TextShape"><tspan class="TextParagraph" font-family="Liberation Sans, sans-serif" font-size="423px" font-weight="400"><tspan class="TextPosition" x="20447" y="2465"><tspan fill="rgb(0,0,0)" stroke="none">Stt New York</tspan></tspan></tspan></text>
 <text class="TextShape"><tspan class="TextParagraph" font-family="Liberation Sans, sans-serif" font-size="423px" font-weight="400"><tspan class="TextPosition" x="20447" y="3475"><tspan fill="rgb(0,0,0)" stroke="none">Velk Britnie</tspan></tspan></tspan></text>
 <text class="TextShape"><tspan class="TextParagraph" font-family="Liberation Sans, sans-serif" font-size="423px" font-weight="400"><tspan class="TextPosition" x="20447" y="4485"><tspan fill="rgb(0,0,0)" stroke="none">panlsko</tspan></tspan></tspan></text>
 <text class="TextShape"><tspan class="TextParagraph" font-family="Liberation Sans, sans-serif" font-size="423px" font-weight="400"><tspan class="TextPosition" x="20447" y="5495"><tspan fill="rgb(0,0,0)" stroke="none">Itlie</tspan></tspan></tspan></text>
 <text class="TextShape"><tspan class="TextParagraph" font-family="Liberation Sans, sans-serif" font-size="423px" font-weight="400"><tspan class="TextPosition" x="20447" y="6505"><tspan fill="rgb(0,0,0)" stroke="none">vdsko</tspan></tspan></tspan></text>
 <text class="TextShape"><tspan class="TextParagraph" font-family="Liberation Sans, sans-serif" font-size="423px" font-weight="400"><tspan class="TextPosition" x="20447" y="7515"><tspan fill="rgb(0,0,0)" stroke="none">USA</tspan></tspan></tspan></text>
 <text class="TextShape"><tspan class="TextParagraph" font-family="Liberation Sans, sans-serif" font-size="423px" font-weight="400"><tspan class="TextPosition" x="20447" y="8525"><tspan fill="rgb(0,0,0)" stroke="none">Brazlie</tspan></tspan></tspan></text>
 <text class="TextShape"><tspan class="TextParagraph" font-family="Liberation Sans, sans-serif" font-size="423px" font-weight="400"><tspan class="TextPosition" x="20447" y="9535"><tspan fill="rgb(0,0,0)" stroke="none">Mexiko</tspan></tspan></tspan></text>
 <text class="TextShape"><tspan class="TextParagraph" font-family="Liberation Sans, sans-serif" font-size="423px" font-weight="400"><tspan class="TextPosition" x="20447" y="10545"><tspan fill="rgb(0,0,0)" stroke="none">EU_star zem</tspan></tspan></tspan></text>
 <text class="TextShape"><tspan class="TextParagraph" font-family="Liberation Sans, sans-serif" font-size="423px" font-weight="400"><tspan class="TextPosition" x="20447" y="11555"><tspan fill="rgb(0,0,0)" stroke="none">EU</tspan></tspan></tspan></text>
 <text class="TextShape"><tspan class="TextParagraph" font-family="Liberation Sans, sans-serif" font-size="423px" font-weight="400"><tspan class="TextPosition" x="20447" y="12564"><tspan fill="rgb(0,0,0)" stroke="none">Kanada</tspan></tspan></tspan></text>
 <text class="TextShape"><tspan class="TextParagraph" font-family="Liberation Sans, sans-serif" font-size="423px" font-weight="400"><tspan class="TextPosition" x="20447" y="13574"><tspan fill="rgb(0,0,0)" stroke="none">vcarsko</tspan></tspan></tspan></text>
 <text class="TextShape"><tspan class="TextParagraph" font-family="Liberation Sans, sans-serif" font-size="423px" font-weight="400"><tspan class="TextPosition" x="20447" y="14584"><tspan fill="rgb(0,0,0)" stroke="none">Nmecko</tspan></tspan></tspan></text>
 <text class="TextShape"><tspan class="TextParagraph" font-family="Liberation Sans, sans-serif" font-size="423px" font-weight="400"><tspan class="TextPosition" x="20447" y="15594"><tspan fill="rgb(0,0,0)" stroke="none">Dnsko</tspan></tspan></tspan></text>
 <text class="TextShape"><tspan class="TextParagraph" font-family="Liberation Sans, sans-serif" font-size="423px" font-weight="400"><tspan class="TextPosition" x="20447" y="16604"><tspan fill="rgb(0,0,0)" stroke="none">celosvtov</tspan></tspan></tspan></text>
 <text class="TextShape"><tspan class="TextParagraph" font-family="Liberation Sans, sans-serif" font-size="423px" font-weight="400"><tspan class="TextPosition" x="20447" y="17614"><tspan fill="rgb(0,0,0)" stroke="none">Rakousko</tspan></tspan></tspan></text>
 <text class="TextShape"><tspan class="TextParagraph" font-family="Liberation Sans, sans-serif" font-size="423px" font-weight="400"><tspan class="TextPosition" x="20447" y="18624"><tspan fill="rgb(0,0,0)" stroke="none">EU_nov zem</tspan></tspan></tspan></text>
 <text class="TextShape"><tspan class="TextParagraph" font-family="Liberation Sans, sans-serif" font-size="423px" font-weight="400"><tspan class="TextPosition" x="20447" y="19634"><tspan fill="rgb(0,0,0)" stroke="none">Norsko</tspan></tspan></tspan></text>
 <text class="TextShape"><tspan class="TextParagraph" font-family="Liberation Sans, sans-serif" font-size="423px" font-weight="400"><tspan class="TextPosition" x="20447" y="20644"><tspan fill="rgb(0,0,0)" stroke="none">esko</tspan></tspan></tspan></text>
 <text class="TextShape"><tspan class="TextParagraph" font-family="Liberation Sans, sans-serif" font-size="423px" font-weight="400"><tspan class="TextPosition" x="20447" y="21654"><tspan fill="rgb(0,0,0)" stroke="none">Indie</tspan></tspan></tspan></text>
 <text class="TextShape"><tspan class="TextParagraph" font-family="Liberation Sans, sans-serif" font-size="423px" font-weight="400"><tspan class="TextPosition" x="20447" y="22664"><tspan fill="rgb(0,0,0)" stroke="none">Jin Korea</tspan></tspan></tspan></text>
</svg>