<?xml version="1.0" encoding="UTF-8"?>
<!DOCTYPE svg PUBLIC "-//W3C//DTD SVG 1.1//EN" "http://www.w3.org/Graphics/SVG/1.1/DTD/svg11.dtd">
<svg width="236mm" height="250mm" viewBox="0 0 23600 25000" version="1.1" xmlns="http://www.w3.org/2000/svg" xmlns:xlink="http://www.w3.org/1999/xlink" stroke-width="28.222" stroke-linejoin="round" xml:space="preserve">
 <path fill="rgb(255,255,255)" stroke="none" d="M 11800,25000 L 0,25000 0,0 23600,0 23600,25000 11800,25000 Z"/>
 <path fill="none" stroke="rgb(179,179,179)" stroke-linejoin="round" d="M 9836,23331 L 1224,23331 1224,1596 18448,1596 18448,23331 9836,23331 Z"/>
 <path fill="none" stroke="rgb(179,179,179)" stroke-linejoin="round" d="M 18448,23330 L 1224,23330"/>
 <path fill="none" stroke="rgb(179,179,179)" stroke-linejoin="round" d="M 18448,21880 L 1224,21880"/>
 <path fill="none" stroke="rgb(179,179,179)" stroke-linejoin="round" d="M 18448,20431 L 1224,20431"/>
 <path fill="none" stroke="rgb(179,179,179)" stroke-linejoin="round" d="M 18448,18982 L 1224,18982"/>
 <path fill="none" stroke="rgb(179,179,179)" stroke-linejoin="round" d="M 18448,17533 L 1224,17533"/>
 <path fill="none" stroke="rgb(179,179,179)" stroke-linejoin="round" d="M 18448,16084 L 1224,16084"/>
 <path fill="none" stroke="rgb(179,179,179)" stroke-linejoin="round" d="M 18448,14635 L 1224,14635"/>
 <path fill="none" stroke="rgb(179,179,179)" stroke-linejoin="round" d="M 18448,13186 L 1224,13186"/>
 <path fill="none" stroke="rgb(179,179,179)" stroke-linejoin="round" d="M 18448,11738 L 1224,11738"/>
 <path fill="none" stroke="rgb(179,179,179)" stroke-linejoin="round" d="M 18448,10289 L 1224,10289"/>
 <path fill="none" stroke="rgb(179,179,179)" stroke-linejoin="round" d="M 18448,8840 L 1224,8840"/>
 <path fill="none" stroke="rgb(179,179,179)" stroke-linejoin="round" d="M 18448,7391 L 1224,7391"/>
 <path fill="none" stroke="rgb(179,179,179)" stroke-linejoin="round" d="M 18448,5942 L 1224,5942"/>
 <path fill="none" stroke="rgb(179,179,179)" stroke-linejoin="round" d="M 18448,4493 L 1224,4493"/>
 <path fill="none" stroke="rgb(179,179,179)" stroke-linejoin="round" d="M 18448,3044 L 1224,3044"/>
 <path fill="none" stroke="rgb(179,179,179)" stroke-linejoin="round" d="M 18448,1595 L 1224,1595"/>
 <path fill="none" stroke="rgb(179,179,179)" stroke-linejoin="round" d="M 1224,23480 L 1224,23330"/>
 <path fill="none" stroke="rgb(179,179,179)" stroke-linejoin="round" d="M 1224,23480 L 1224,23330"/>
 <path fill="none" stroke="rgb(179,179,179)" stroke-linejoin="round" d="M 2033,23480 L 2033,23330"/>
 <path fill="none" stroke="rgb(179,179,179)" stroke-linejoin="round" d="M 2033,23480 L 2033,23330"/>
 <path fill="none" stroke="rgb(179,179,179)" stroke-linejoin="round" d="M 2842,23480 L 2842,23330"/>
 <path fill="none" stroke="rgb(179,179,179)" stroke-linejoin="round" d="M 2842,23480 L 2842,23330"/>
 <path fill="none" stroke="rgb(179,179,179)" stroke-linejoin="round" d="M 3651,23480 L 3651,23330"/>
 <path fill="none" stroke="rgb(179,179,179)" stroke-linejoin="round" d="M 3651,23480 L 3651,23330"/>
 <path fill="none" stroke="rgb(179,179,179)" stroke-linejoin="round" d="M 4460,23480 L 4460,23330"/>
 <path fill="none" stroke="rgb(179,179,179)" stroke-linejoin="round" d="M 4460,23480 L 4460,23330"/>
 <path fill="none" stroke="rgb(179,179,179)" stroke-linejoin="round" d="M 5270,23480 L 5270,23330"/>
 <path fill="none" stroke="rgb(179,179,179)" stroke-linejoin="round" d="M 5270,23480 L 5270,23330"/>
 <path fill="none" stroke="rgb(179,179,179)" stroke-linejoin="round" d="M 6079,23480 L 6079,23330"/>
 <path fill="none" stroke="rgb(179,179,179)" stroke-linejoin="round" d="M 6079,23480 L 6079,23330"/>
 <path fill="none" stroke="rgb(179,179,179)" stroke-linejoin="round" d="M 6888,23480 L 6888,23330"/>
 <path fill="none" stroke="rgb(179,179,179)" stroke-linejoin="round" d="M 6888,23480 L 6888,23330"/>
 <path fill="none" stroke="rgb(179,179,179)" stroke-linejoin="round" d="M 7697,23480 L 7697,23330"/>
 <path fill="none" stroke="rgb(179,179,179)" stroke-linejoin="round" d="M 7697,23480 L 7697,23330"/>
 <path fill="none" stroke="rgb(179,179,179)" stroke-linejoin="round" d="M 8507,23480 L 8507,23330"/>
 <path fill="none" stroke="rgb(179,179,179)" stroke-linejoin="round" d="M 8507,23480 L 8507,23330"/>
 <path fill="none" stroke="rgb(179,179,179)" stroke-linejoin="round" d="M 9316,23480 L 9316,23330"/>
 <path fill="none" stroke="rgb(179,179,179)" stroke-linejoin="round" d="M 9316,23480 L 9316,23330"/>
 <path fill="none" stroke="rgb(179,179,179)" stroke-linejoin="round" d="M 10125,23480 L 10125,23330"/>
 <path fill="none" stroke="rgb(179,179,179)" stroke-linejoin="round" d="M 10125,23480 L 10125,23330"/>
 <path fill="none" stroke="rgb(179,179,179)" stroke-linejoin="round" d="M 10934,23480 L 10934,23330"/>
 <path fill="none" stroke="rgb(179,179,179)" stroke-linejoin="round" d="M 10934,23480 L 10934,23330"/>
 <path fill="none" stroke="rgb(179,179,179)" stroke-linejoin="round" d="M 11743,23480 L 11743,23330"/>
 <path fill="none" stroke="rgb(179,179,179)" stroke-linejoin="round" d="M 11743,23480 L 11743,23330"/>
 <path fill="none" stroke="rgb(179,179,179)" stroke-linejoin="round" d="M 12552,23480 L 12552,23330"/>
 <path fill="none" stroke="rgb(179,179,179)" stroke-linejoin="round" d="M 12552,23480 L 12552,23330"/>
 <path fill="none" stroke="rgb(179,179,179)" stroke-linejoin="round" d="M 13361,23480 L 13361,23330"/>
 <path fill="none" stroke="rgb(179,179,179)" stroke-linejoin="round" d="M 13361,23480 L 13361,23330"/>
 <path fill="none" stroke="rgb(179,179,179)" stroke-linejoin="round" d="M 14170,23480 L 14170,23330"/>
 <path fill="none" stroke="rgb(179,179,179)" stroke-linejoin="round" d="M 14170,23480 L 14170,23330"/>
 <path fill="none" stroke="rgb(179,179,179)" stroke-linejoin="round" d="M 14979,23480 L 14979,23330"/>
 <path fill="none" stroke="rgb(179,179,179)" stroke-linejoin="round" d="M 14979,23480 L 14979,23330"/>
 <path fill="none" stroke="rgb(179,179,179)" stroke-linejoin="round" d="M 15789,23480 L 15789,23330"/>
 <path fill="none" stroke="rgb(179,179,179)" stroke-linejoin="round" d="M 15789,23480 L 15789,23330"/>
 <path fill="none" stroke="rgb(179,179,179)" stroke-linejoin="round" d="M 16598,23480 L 16598,23330"/>
 <path fill="none" stroke="rgb(179,179,179)" stroke-linejoin="round" d="M 16598,23480 L 16598,23330"/>
 <path fill="none" stroke="rgb(179,179,179)" stroke-linejoin="round" d="M 17407,23480 L 17407,23330"/>
 <path fill="none" stroke="rgb(179,179,179)" stroke-linejoin="round" d="M 17407,23480 L 17407,23330"/>
 <path fill="none" stroke="rgb(179,179,179)" stroke-linejoin="round" d="M 18216,23480 L 18216,23330"/>
 <path fill="none" stroke="rgb(179,179,179)" stroke-linejoin="round" d="M 18216,23480 L 18216,23330"/>
 <path fill="none" stroke="rgb(179,179,179)" stroke-linejoin="round" d="M 1224,23330 L 18448,23330"/>
 <path fill="none" stroke="rgb(179,179,179)" stroke-linejoin="round" d="M 1074,23330 L 1224,23330"/>
 <path fill="none" stroke="rgb(179,179,179)" stroke-linejoin="round" d="M 1074,23330 L 1224,23330"/>
 <path fill="none" stroke="rgb(179,179,179)" stroke-linejoin="round" d="M 1074,21880 L 1224,21880"/>
 <path fill="none" stroke="rgb(179,179,179)" stroke-linejoin="round" d="M 1074,21880 L 1224,21880"/>
 <path fill="none" stroke="rgb(179,179,179)" stroke-linejoin="round" d="M 1074,20431 L 1224,20431"/>
 <path fill="none" stroke="rgb(179,179,179)" stroke-linejoin="round" d="M 1074,20431 L 1224,20431"/>
 <path fill="none" stroke="rgb(179,179,179)" stroke-linejoin="round" d="M 1074,18982 L 1224,18982"/>
 <path fill="none" stroke="rgb(179,179,179)" stroke-linejoin="round" d="M 1074,18982 L 1224,18982"/>
 <path fill="none" stroke="rgb(179,179,179)" stroke-linejoin="round" d="M 1074,17533 L 1224,17533"/>
 <path fill="none" stroke="rgb(179,179,179)" stroke-linejoin="round" d="M 1074,17533 L 1224,17533"/>
 <path fill="none" stroke="rgb(179,179,179)" stroke-linejoin="round" d="M 1074,16084 L 1224,16084"/>
 <path fill="none" stroke="rgb(179,179,179)" stroke-linejoin="round" d="M 1074,16084 L 1224,16084"/>
 <path fill="none" stroke="rgb(179,179,179)" stroke-linejoin="round" d="M 1074,14635 L 1224,14635"/>
 <path fill="none" stroke="rgb(179,179,179)" stroke-linejoin="round" d="M 1074,14635 L 1224,14635"/>
 <path fill="none" stroke="rgb(179,179,179)" stroke-linejoin="round" d="M 1074,13186 L 1224,13186"/>
 <path fill="none" stroke="rgb(179,179,179)" stroke-linejoin="round" d="M 1074,13186 L 1224,13186"/>
 <path fill="none" stroke="rgb(179,179,179)" stroke-linejoin="round" d="M 1074,11738 L 1224,11738"/>
 <path fill="none" stroke="rgb(179,179,179)" stroke-linejoin="round" d="M 1074,11738 L 1224,11738"/>
 <path fill="none" stroke="rgb(179,179,179)" stroke-linejoin="round" d="M 1074,10289 L 1224,10289"/>
 <path fill="none" stroke="rgb(179,179,179)" stroke-linejoin="round" d="M 1074,10289 L 1224,10289"/>
 <path fill="none" stroke="rgb(179,179,179)" stroke-linejoin="round" d="M 1074,8840 L 1224,8840"/>
 <path fill="none" stroke="rgb(179,179,179)" stroke-linejoin="round" d="M 1074,8840 L 1224,8840"/>
 <path fill="none" stroke="rgb(179,179,179)" stroke-linejoin="round" d="M 1074,7391 L 1224,7391"/>
 <path fill="none" stroke="rgb(179,179,179)" stroke-linejoin="round" d="M 1074,7391 L 1224,7391"/>
 <path fill="none" stroke="rgb(179,179,179)" stroke-linejoin="round" d="M 1074,5942 L 1224,5942"/>
 <path fill="none" stroke="rgb(179,179,179)" stroke-linejoin="round" d="M 1074,5942 L 1224,5942"/>
 <path fill="none" stroke="rgb(179,179,179)" stroke-linejoin="round" d="M 1074,4493 L 1224,4493"/>
 <path fill="none" stroke="rgb(179,179,179)" stroke-linejoin="round" d="M 1074,4493 L 1224,4493"/>
 <path fill="none" stroke="rgb(179,179,179)" stroke-linejoin="round" d="M 1074,3044 L 1224,3044"/>
 <path fill="none" stroke="rgb(179,179,179)" stroke-linejoin="round" d="M 1074,3044 L 1224,3044"/>
 <path fill="none" stroke="rgb(179,179,179)" stroke-linejoin="round" d="M 1074,1595 L 1224,1595"/>
 <path fill="none" stroke="rgb(179,179,179)" stroke-linejoin="round" d="M 1074,1595 L 1224,1595"/>
 <path fill="none" stroke="rgb(179,179,179)" stroke-linejoin="round" d="M 1224,23330 L 1224,1595"/>
 <path fill="none" stroke="rgb(112,110,12)" stroke-width="80" stroke-linejoin="round" stroke-dasharray="80,40" d="M 1281,23328 L 1397,23326 1513,23323 1628,23317 1744,23308 1859,23293 1975,23273 2091,23239 2206,23210 2322,23153 2437,23092 2553,23014 2669,22923 2784,22770 2900,22577 3015,22348 3131,22084 3247,21744 3362,21340 3478,20891 3593,20378 3709,19945 3825,19582 3940,19078 4056,18447 4171,17784 4287,17180 4403,16583 4518,16062 4634,15494 4749,14896 4865,14296 4981,13755 5096,13273 5212,12818 5327,12175 5443,11533 5559,11614 5674,11234 5790,10850 5905,10534 6021,10131 6137,9792 6252,9525 6368,9276 6483,8980 6599,8775 6715,8501 6830,8273 6946,8047 7062,7869 7177,7695 7293,7478 7408,7305 7524,6956 7640,6816 7755,6622 7871,6486 7986,6379 8102,6258 8218,6125 8333,6000 8449,5901 8564,5739 8680,5633 8796,5556 8911,5502 9027,5379 9142,5307 9258,5252 9374,5188 9489,5072 9605,5020 9720,4960 9836,4923 9952,4809 10067,4788 10183,4722 10298,4669 10414,4632 10530,4550 10645,4517 10761,4482 10876,4403 10992,4365 11108,4335 11223,4277 11339,4243 11454,4222 11570,4173 11686,4154 11800,4059 11916,4048 12031,4032 12147,4013 12263,3980 12378,3964 12494,3949 12609,3936 12725,3888 12841,3866 12956,3845 13072,3807 13188,3790 13303,3765 13419,3754 13534,3743 13650,3740 13766,3729 13881,3686 13997,3679 14112,3666 14228,3621 14344,3609 14459,3579 14575,3571 14690,3556 14806,3552 14922,3532 15037,3502 15153,3495 15268,3491 15384,3463 15500,3455 15615,3444 15731,3432 15846,3422 15962,3412 16078,3402 16193,3395 16309,3387 16424,3363 16540,3341 16656,3340 16771,3333 16887,3319 17002,3310 17118,3305 17234,3302 17349,3287 17465,3283 17580,3280 17696,3270 17812,3265 17927,3261 18043,3243 18158,3242 18274,3239 18390,3234"/>
 <path fill="none" stroke="rgb(255,128,0)" stroke-width="80" stroke-linejoin="round" d="M 1281,23327 L 1397,23324 1513,23320 1628,23316 1744,23312 1859,23305 1975,23296 2091,23288 2206,23276 2322,23269 2437,23253 2553,23222 2669,23182 2784,23143 2900,23083 3015,23021 3131,22975 3247,22896 3362,22815 3478,22673 3593,22534 3709,22383 3825,22222 3940,22085 4056,21964 4171,21744 4287,21524 4403,21289 4518,21045 4634,20867 4749,20721 4865,20563 4981,20341 5096,20161 5212,19943 5327,19744 5443,19507 5559,19402 5674,19282 5790,19033 5905,18854 6021,18699 6137,18485 6252,18306 6368,18217 6483,18145 6599,17951 6715,17782 6830,17639 6946,17482 7062,17350 7177,17283 7293,17222 7408,17075 7524,16937 7640,16823 7755,16690 7871,16617 7986,16560 8102,16515 8218,16381 8333,16276 8449,16185 8564,16103 8680,16001 8796,15965 8911,15932 9027,15815 9142,15737 9258,15665 9374,15589 9489,15529 9605,15436 9720,15410 9836,15381 9952,15288 10067,15199 10183,15120 10298,15072 10414,15047 10530,15024 10645,14954 10761,14877 10876,14840 10992,14764 11108,14720 11223,14704 11339,14692 11454,14630 11570,14577 11686,14545 11800,14502 11916,14463 12031,14456 12147,14447 12263,14397 12378,14358 12494,14329 12609,14293 12725,14265 12841,14256 12956,14253 13072,14217 13188,14184 13303,14153 13419,14114 13534,14093 13650,14085 13766,14080 13881,14047 13997,14009 14112,13990 14228,13962 14344,13947 14459,13943 14575,13939 14690,13907 14806,13880 14922,13862 15037,13852 15153,13820 15268,13816 15384,13814 15500,13784 15615,13766 15731,13752 15846,13728 15962,13720 16078,13714 16193,13711 16309,13688 16424,13671 16540,13660 16656,13634 16771,13621 16887,13618 17002,13617 17118,13592 17234,13574 17349,13566 17465,13540 17580,13525 17696,13523 17812,13521 17927,13517 18043,13489 18158,13478 18274,13457 18390,13446"/>
 <path fill="none" stroke="rgb(128,0,128)" stroke-width="80" stroke-linejoin="round" d="M 1281,23288 L 1397,23269 1513,23240 1628,23224 1744,23164 1859,23136 1975,23072 2091,23006 2206,22903 2322,22780 2437,22613 2553,22459 2669,22199 2784,21977 2900,21737 3015,21476 3131,21221 3247,20938 3362,20706 3478,20420 3593,20122 3709,19859 3825,19627 3940,19412 4056,19195 4171,18977 4287,18745 4403,18542 4518,18346 4634,18183 4749,17996 4865,17826 4981,17733 5096,17531 5212,17343 5327,17130 5443,17118 5559,16991 5674,16867 5790,16734 5905,16599 6021,16462 6137,16349 6252,16232 6368,16142 6483,16040 6599,15946 6715,15806 6830,15723 6946,15723 7062,15550 7177,15499 7293,15449 7408,15391 7524,15316 7640,15250 7755,15179 7871,15123 7986,15079 8102,15041 8218,14986 8333,14929 8449,14862 8564,14819 8680,14787 8796,14787 8911,14742 9027,14720 9142,14686 9258,14670 9374,14457 9489,14441 9605,14418 9720,15013 9836,14925 9952,14925 10067,14925 10183,14924 10298,14923 10414,14922 10530,14922 10645,14922 10761,14922 10876,14920 10992,14920 11108,14920 11223,14919 11339,14919 11454,14919 11570,14919 11686,14919 11800,14919 11916,14919 12031,14919 12147,14919 12263,14919 12378,14919 12494,14919 12609,14554 12725,14552 12841,14551 12956,14551 13072,14551 13188,14550 13303,14549 13419,14547 13534,14546 13650,14545 13766,14544 13881,14541 13997,14539 14112,14537 14228,14532 14344,14532 14459,14532 14575,14531 14690,14530 14806,14529 14922,14527 15037,14527 15153,14527 15268,14527 15384,14526 15500,14525 15615,14523 15731,14523 15846,14521 15962,14521 16078,14521 16193,14521 16309,14520 16424,14519 16540,14519 16656,14518 16771,14518 16887,14518 17002,14517 17118,14516 17234,14515 17349,14514 17465,14514 17580,14514 17696,14514 17812,14505 17927,14497 18043,14497 18158,14497 18274,14496 18390,14496"/>
 <path fill="none" stroke="rgb(131,202,255)" stroke-width="80" stroke-linejoin="round" d="M 1281,23026 L 1397,22984 1513,22896 1628,22812 1744,22730 1859,22616 1975,22513 2091,22363 2206,22173 2322,22017 2437,21873 2553,21695 2669,21531 2784,21361 2900,21140 3015,20927 3131,20746 3247,20552 3362,20351 3478,20177 3593,19995 3709,19811 3825,19648 3940,19522 4056,19369 4171,19225 4287,19095 4403,18949 4518,18812 4634,18664 4749,18560 4865,18425 4981,18280 5096,18142 5212,18016 5327,17878 5443,17763 5559,17659 5674,17550 5790,17422 5905,17317 6021,17206 6137,17106 6252,17006 6368,16944 6483,16864 6599,16772 6715,16695 6830,16627 6946,16562 7062,16449 7177,16407 7293,16360 7408,16304 7524,16215 7640,16150 7755,16091 7871,16045 7986,16005 8102,15962 8218,15921 8333,15874 8449,15812 8564,15754 8680,15717 8796,15682 8911,15658 9027,15620 9142,15581 9258,15544 9374,15513 9489,15484 9605,15472 9720,15450 9836,15431 9952,15403 10067,15386 10183,15366 10298,15339 10414,15321 10530,15307 10645,15293 10761,15276 10876,15255 10992,15235 11108,15218 11223,15205 11339,15189 11454,15171 11570,15154 11686,15141 11800,15127 11916,15109 12031,15098 12147,15092 12263,15084 12378,15073 12494,15058 12609,15046 12725,15035 12841,15029 12956,15023 13072,15019 13188,15026 13303,15018 13419,15011 13534,15009 13650,15004 13766,15003 13881,14997 13997,14992 14112,14985 14228,14981 14344,14976 14459,14974 14575,14973 14690,14965 14806,14962 14922,14959 15037,14956 15153,14954 15268,14952 15384,14949 15500,14945 15615,14942 15731,14937 15846,14934 15962,14931 16078,14930 16193,14927 16309,14924 16424,14922 16540,14919 16656,14918 16771,14917 16887,14916 17002,14914 17118,14912 17234,14910 17349,14910 17465,14907 17580,14906 17696,14904 17812,14901 17927,14900 18043,14898 18158,14896 18274,14896 18390,14893"/>
 <path fill="none" stroke="rgb(241,13,12)" stroke-width="80" stroke-linejoin="round" d="M 1281,23328 L 1397,23327 1513,23325 1628,23321 1744,23319 1859,23315 1975,23314 2091,23307 2206,23301 2322,23299 2437,23294 2553,23278 2669,23241 2784,23219 2900,23179 3015,23179 3131,23172 3247,23120 3362,23071 3478,22987 3593,22888 3709,22816 3825,22794 3940,22754 4056,22645 4171,22482 4287,22344 4403,22192 4518,22081 4634,22057 4749,22040 4865,22011 4981,21847 5096,21603 5212,21417 5327,21321 5443,21161 5559,21120 5674,21062 5790,20797 5905,20550 6021,20430 6137,20242 6252,20184 6368,20181 6483,20067 6599,19950 6715,19797 6830,19619 6946,19523 7062,19500 7177,19486 7293,19356 7408,19235 7524,19110 7640,18968 7755,18774 7871,18709 7986,18702 8102,18658 8218,18576 8333,18365 8449,18266 8564,18098 8680,18058 8796,18051 8911,18024 9027,17959 9142,17833 9258,17775 9374,17698 9489,17602 9605,17593 9720,17549 9836,17411 9952,17275 10067,17209 10183,17088 10298,17023 10414,17023 10530,17012 10645,16919 10761,16813 10876,16784 10992,16673 11108,16649 11223,16645 11339,16594 11454,16561 11570,16450 11686,16422 11800,16365 11916,16336 12031,16336 12147,16312 12263,16243 12378,16097 12494,16079 12609,16005 12725,15999 12841,15996 12956,15980 13072,15924 13188,15856 13303,15825 13419,15754 13534,15754 13650,15754 13766,15711 13881,15678 13997,15624 14112,15566 14228,15553 14344,15553 14459,15553 14575,15534 14690,15514 14806,15464 14922,15438 15037,15401 15153,15401 15268,15401 15384,15386 15500,15373 15615,15335 15731,15305 15846,15267 15962,15267 16078,15267 16193,15239 16309,15228 16424,15198 16540,15185 16656,15155 16771,15155 16887,15155 17002,15151 17118,15148 17234,15108 17349,15095 17465,15089 17580,15089 17696,15089 17812,15088 17927,15084 18043,15065 18158,15056 18274,15061 18390,15061"/>
 <path fill="none" stroke="rgb(141,40,30)" stroke-width="80" stroke-linejoin="round" stroke-dasharray="80,40" d="M 1281,23327 L 1397,23327 1513,23326 1628,23325 1744,23324 1859,23321 1975,23318 2091,23313 2206,23309 2322,23303 2437,23295 2553,23284 2669,23270 2784,23252 2900,23227 3015,23198 3131,23171 3247,23134 3362,23079 3478,23024 3593,22953 3709,22895 3825,22836 3940,22771 4056,22695 4171,22590 4287,22495 4403,22401 4518,22307 4634,22214 4749,22133 4865,22049 4981,21942 5096,21828 5212,21732 5327,21616 5443,21509 5559,21453 5674,21372 5790,21263 5905,21156 6021,21048 6137,20954 6252,20880 6368,20821 6483,20757 6599,20659 6715,20549 6830,20447 6946,20364 7062,20290 7177,20241 7293,20183 7408,20081 7524,19978 7640,19893 7755,19817 7871,19751 7986,19712 8102,19668 8218,19597 8333,19520 8449,19441 8564,19368 8680,19315 8796,19281 8911,19247 9027,19179 9142,19110 9258,19056 9374,19001 9489,18951 9605,18924 9720,18901 9836,18871 9952,18804 10067,18752 10183,18701 10298,18658 10414,18632 10530,18598 10645,18553 10761,18508 10876,18464 10992,18422 11108,18392 11223,18372 11339,18350 11454,18309 11570,18268 11686,18229 11800,18193 11916,18160 12031,18146 12147,18129 12263,18092 12378,18059 12494,18028 12609,17999 12725,17972 12841,17959 12956,17942 13072,17905 13188,17872 13303,17847 13419,17821 13534,17799 13650,17788 13766,17772 13881,17740 13997,17710 14112,17678 14228,17649 14344,17637 14459,17624 14575,17609 14690,17555 14806,17518 14922,17474 15037,17438 15153,17407 15268,17388 15384,17371 15500,17330 15615,17288 15731,17246 15846,17206 15962,17167 16078,17148 16193,17125 16309,17077 16424,17024 16540,16975 16656,16926 16771,16886 16887,16865 17002,16816 17118,16756 17234,16693 17349,16640 17465,16586 17580,16537 17696,16519 17812,16496 17927,16435 18043,16375 18158,16320 18274,16266 18390,16219"/>
 <path fill="none" stroke="rgb(255,64,0)" stroke-width="80" stroke-linejoin="round" stroke-dasharray="80,40" d="M 1744,23329 L 1859,23329 1975,23329 2091,23329 2206,23328 2322,23328 2437,23327 2553,23326 2669,23325 2784,23324 2900,23323 3015,23322 3131,23320 3247,23319 3362,23316 3478,23313 3593,23307 3709,23305 3825,23299 3940,23296 4056,23291 4171,23283 4287,23274 4403,23265 4518,23257 4634,23253 4749,23246 4865,23239 4981,23225 5096,23211 5212,23198 5327,23183 5443,23169 5559,23162 5674,23153 5790,23143 5905,23131 6021,23102 6137,23077 6252,23053 6368,23037 6483,23016 6599,22983 6715,22953 6830,22920 6946,22892 7062,22868 7177,22849 7293,22827 7408,22788 7524,22744 7640,22703 7755,22646 7871,22603 7986,22571 8102,22535 8218,22480 8333,22426 8449,22375 8564,22309 8680,22261 8796,22230 8911,22180 9027,22103 9142,22043 9258,21962 9374,21894 9489,21828 9605,21783 9720,21728 9836,21658 9952,21583 10067,21505 10183,21428 10298,21363 10414,21330 10530,21287 10645,21201 10761,21109 10876,21009 10992,20940 11108,20879 11223,20843 11339,20797 11454,20710 11570,20623 11686,20538 11800,20476 11916,20416 12031,20374 12147,20331 12263,20244 12378,20157 12494,20073 12609,19990 12725,19921 12841,19879 12956,19832 13072,19739 13188,19658 13303,19580 13419,19512 13534,19437 13650,19399 13766,19352 13881,19265 13997,19194 14112,19108 14228,19020 14344,18946 14459,18905 14575,18863 14690,18777 14806,18694 14922,18610 15037,18528 15153,18455 15268,18412 15384,18362 15500,18273 15615,18189 15731,18099 15846,18019 15962,17956 16078,17908 16193,17865 16309,17771 16424,17684 16540,17594 16656,17515 16771,17433 16887,17395 17002,17353 17118,17290 17234,17181 17349,17104 17465,17022 17580,16948 17696,16911 17812,16872 17927,16794 18043,16696 18158,16611 18274,16538 18390,16476"/>
 <path fill="none" stroke="rgb(0,169,51)" stroke-width="80" stroke-linejoin="round" stroke-dasharray="80,40" d="M 1975,23329 L 2091,23329 2206,23329 2322,23329 2437,23329 2553,23329 2669,23329 2784,23329 2900,23328 3015,23328 3131,23327 3247,23326 3362,23326 3478,23325 3593,23324 3709,23323 3825,23321 3940,23319 4056,23315 4171,23314 4287,23310 4403,23308 4518,23303 4634,23299 4749,23296 4865,23292 4981,23284 5096,23279 5212,23275 5327,23268 5443,23256 5559,23252 5674,23249 5790,23233 5905,23220 6021,23209 6137,23192 6252,23183 6368,23178 6483,23168 6599,23153 6715,23135 6830,23121 6946,23108 7062,23098 7177,23087 7293,23074 7408,23048 7524,23026 7640,22997 7755,22974 7871,22953 7986,22940 8102,22928 8218,22888 8333,22855 8449,22826 8564,22794 8680,22762 8796,22748 8911,22730 9027,22693 9142,22645 9258,22598 9374,22544 9489,22523 9605,22498 9720,22472 9836,22415 9952,22363 10067,22313 10183,22271 10298,22230 10414,22213 10530,22187 10645,22134 10761,22011 10876,21920 10992,21849 11108,21811 11223,21790 11339,21750 11454,21683 11570,21604 11686,21538 11800,21481 11916,21433 12031,21403 12147,21354 12263,21272 12378,21185 12494,21110 12609,21037 12725,20994 12841,20877 12956,20791 13072,20702 13188,20596 13303,20513 13419,20432 13534,20365 13650,20335 13766,20281 13881,20209 13997,20125 14112,20049 14228,19975 14344,19917 14459,19886 14575,19832 14690,19731 14806,19644 14922,19562 15037,19487 15153,19426 15268,19395 15384,19341 15500,19247 15615,19182 15731,19107 15846,19024 15962,18959 16078,18926 16193,18892 16309,18789 16424,18700 16540,18619 16656,18537 16771,18455 16887,18420 17002,18382 17118,18286 17234,18231 17349,18160 17465,18082 17580,17994 17696,17963 17812,17933 17927,17837 18043,17744 18158,17652 18274,17563 18390,17485"/>
 <path fill="none" stroke="rgb(21,132,102)" stroke-width="80" stroke-linejoin="round" stroke-dasharray="51,127,51,127,254,127,254,127,254,127" d="M 1281,23266 L 1397,23255 1513,23236 1628,23215 1744,23191 1859,23167 1975,23134 2091,23086 2206,23030 2322,22978 2437,22918 2553,22848 2669,22765 2784,22679 2900,22581 3015,22482 3131,22387 3247,22281 3362,22167 3478,22038 3593,21896 3709,21756 3825,21627 3940,21531 4056,21413 4171,21253 4287,21138 4403,20991 4518,20859 4634,20761 4749,20663 4865,20563 4981,20465 5096,20300 5212,20175 5327,20051 5443,19970 5559,19895 5674,19808 5790,19710 5905,19612 6021,19517 6137,19429 6252,19354 6368,19304 6483,19239 6599,19172 6715,19093 6830,19036 6946,18996 7062,18932 7177,18901 7293,18857 7408,18812 7524,18741 7640,18695 7755,18645 7871,18615 7986,18593 8102,18560 8218,18519 8333,18481 8449,18437 8564,18406 8680,18387 8796,18352 8911,18331 9027,18321 9142,18294 9258,18274 9374,18230 9489,18214 9605,18203 9720,18271 9836,18243 9952,18225 10067,18212 10183,18197 10298,18184 10414,18177 10530,18171 10645,18159 10761,18146 10876,18135 10992,18123 11108,18116 11223,18111 11339,18103 11454,18092 11570,18083 11686,18076 11800,18070 11916,18063 12031,18060 12147,18056 12263,18047 12378,18037 12494,18031 12609,17975 12725,17971 12841,17970 12956,17967 13072,17960 13188,17957 13303,17952 13419,17946 13534,17945 13650,17943 13766,17939 13881,17934 13997,17930 14112,17925 14228,17921 14344,17919 14459,17918 14575,17915 14690,17912 14806,17909 14922,17904 15037,17901 15153,17900 15268,17899 15384,17897 15500,17895 15615,17888 15731,17885 15846,17882 15962,17881 16078,17881 16193,17878 16309,17877 16424,17875 16540,17872 16656,17869 16771,17869 16887,17867 17002,17867 17118,17865 17234,17862 17349,17860 17465,17858 17580,17857 17696,17856 17812,17854 17927,17851 18043,17849 18158,17847 18274,17845 18390,17844"/>
 <path fill="none" stroke="rgb(0,0,255)" stroke-width="80" stroke-linejoin="round" stroke-dasharray="51,127,51,127,254,127,254,127,254,127" d="M 1281,23281 L 1397,23272 1513,23257 1628,23242 1744,23223 1859,23204 1975,23179 2091,23142 2206,23099 2322,23058 2437,23012 2553,22958 2669,22893 2784,22827 2900,22751 3015,22674 3131,22600 3247,22517 3362,22429 3478,22328 3593,22217 3709,22108 3825,22008 3940,21932 4056,21839 4171,21714 4287,21623 4403,21507 4518,21404 4634,21326 4749,21248 4865,21170 4981,21091 5096,20962 5212,20864 5327,20766 5443,20702 5559,20641 5674,20572 5790,20495 5905,20416 6021,20341 6137,20271 6252,20211 6368,20170 6483,20118 6599,20063 6715,20001 6830,19954 6946,19921 7062,19870 7177,19844 7293,19808 7408,19772 7524,19715 7640,19678 7755,19636 7871,19612 7986,19593 8102,19567 8218,19533 8333,19501 8449,19466 8564,19440 8680,19424 8796,19396 8911,19378 9027,19370 9142,19348 9258,19331 9374,19296 9489,19283 9605,19274 9720,19325 9836,19302 9952,19288 10067,19276 10183,19263 10298,19252 10414,19247 10530,19241 10645,19230 10761,19219 10876,19211 10992,19200 11108,19193 11223,19189 11339,19182 11454,19172 11570,19164 11686,19159 11800,19153 11916,19147 12031,19143 12147,19139 12263,19131 12378,19122 12494,19115 12609,19071 12725,19067 12841,19065 12956,19062 13072,19056 13188,19052 13303,19047 13419,19041 13534,19040 13650,19038 13766,19033 13881,19028 13997,19023 14112,19018 14228,19014 14344,19011 14459,19010 14575,19007 14690,19003 14806,18999 14922,18994 15037,18991 15153,18989 15268,18988 15384,18985 15500,18982 15615,18976 15731,18972 15846,18969 15962,18967 16078,18966 16193,18963 16309,18961 16424,18957 16540,18954 16656,18950 16771,18949 16887,18947 17002,18945 17118,18942 17234,18938 17349,18935 17465,18931 17580,18929 17696,18927 17812,18924 17927,18919 18043,18915 18158,18911 18274,18907 18390,18904"/>
 <path fill="none" stroke="rgb(85,48,141)" stroke-width="80" stroke-linejoin="round" stroke-dasharray="80,40" d="M 1281,23329 L 1397,23329 1513,23329 1628,23328 1744,23328 1859,23326 1975,23326 2091,23325 2206,23322 2322,23321 2437,23320 2553,23320 2669,23318 2784,23315 2900,23309 3015,23306 3131,23305 3247,23299 3362,23291 3478,23288 3593,23276 3709,23261 3825,23246 3940,23230 4056,23199 4171,23186 4287,23173 4403,23136 4518,23116 4634,23078 4749,23055 4865,23030 4981,22984 5096,22942 5212,22846 5327,22809 5443,22792 5559,22729 5674,22666 5790,22596 5905,22532 6021,22469 6137,22407 6252,22342 6368,22298 6483,22239 6599,22184 6715,22118 6830,22059 6946,21972 7062,21915 7177,21872 7293,21793 7408,21721 7524,21653 7640,21586 7755,21526 7871,21478 7986,21413 8102,21366 8218,21295 8333,21247 8449,21183 8564,21149 8680,21103 8796,21063 8911,21041 9027,21015 9142,20968 9258,20923 9374,20888 9489,20847 9605,20821 9720,20774 9836,20737 9952,20690 10067,20649 10183,20618 10298,20581 10414,20498 10530,20487 10645,20458 10761,20420 10876,20367 10992,20343 11108,20316 11223,20305 11339,20293 11454,20270 11570,20243 11686,20231 11800,20210 11916,20188 12031,20174 12147,20170 12263,20154 12378,20138 12494,20119 12609,20101 12725,20079 12841,20073 12956,20068 13072,20061 13188,20049 13303,20040 13419,20039 13534,20037 13650,20035 13766,20017 13881,20008 13997,19998 14112,19989 14228,19981 14344,19977 14459,19974 14575,19971 14690,19964 14806,19956 14922,19952 15037,19947 15153,19944 15268,19940 15384,19937 15500,19934 15615,19929 15731,19922 15846,19919 15962,19916 16078,19914 16193,19912 16309,19909 16424,19907 16540,19905 16656,19904 16771,19901 16887,19899 17002,19895 17118,19891 17234,19889 17349,19884 17465,19882 17580,19879 17696,19878 17812,19876 17927,19872 18043,19870 18158,19869 18274,19868 18390,19865"/>
 <path fill="none" stroke="rgb(129,212,26)" stroke-width="80" stroke-linejoin="round" d="M 1281,23311 L 1397,23308 1513,23306 1628,23306 1744,23284 1859,23283 1975,23261 2091,23239 2206,23204 2322,23165 2437,23129 2553,23125 2669,23073 2784,23010 2900,22943 3015,22887 3131,22827 3247,22728 3362,22605 3478,22512 3593,22432 3709,22340 3825,22214 3940,22132 4056,22049 4171,21955 4287,21831 4403,21742 4518,21652 4634,21595 4749,21478 4865,21424 4981,21364 5096,21255 5212,21185 5327,21108 5443,21039 5559,20997 5674,20937 5790,20855 5905,20803 6021,20736 6137,20669 6252,20652 6368,20634 6483,20542 6599,20485 6715,20456 6830,20421 6946,20393 7062,20379 7177,20379 7293,20343 7408,20324 7524,20307 7640,20299 7755,20277 7871,20265 7986,20260 8102,20240 8218,20204 8333,20199 8449,20195 8564,20185 8680,20183 8796,20180 8911,20172 9027,20163 9142,20162 9258,20152 9374,20143 9489,20140 9605,20138 9720,20127 9836,20123 9952,20120 10067,20116 10183,20116 10298,20116 10414,20115 10530,20115 10645,20115 10761,20113 10876,20113 10992,20113 11108,20113 11223,20113 11339,20110 11454,20091 11570,20088 11686,20086 11800,20085 11916,20085 12031,20085 12147,20083 12263,20058 12378,20055 12494,20055 12609,20055 12725,20055 12841,20055 12956,20055 13072,20055 13188,20051 13303,20051 13419,20044 13534,20044 13650,20044 13766,20044 13881,20043 13997,20039 14112,20039 14228,20039 14344,20039 14459,20039 14575,20039 14690,20038 14806,20038 14922,20038 15037,20038 15153,20034 15268,20034 15384,20034 15500,20034 15615,20034 15731,20033 15846,20033 15962,20033 16078,20033 16193,20029 16309,20028 16424,20028 16540,20023 16656,20019 16771,20019 16887,20019 17002,20018 17118,20018 17234,20016 17349,20014 17465,20013 17580,20013 17696,20013 17812,20013 17927,20013 18043,20008 18158,20006 18274,20004 18390,20004"/>
 <path fill="none" stroke="rgb(52,42,6)" stroke-width="80" stroke-linejoin="round" d="M 1281,23328 L 1397,23328 1513,23328 1628,23327 1744,23325 1859,23325 1975,23322 2091,23318 2206,23315 2322,23313 2437,23308 2553,23302 2669,23294 2784,23283 2900,23270 3015,23255 3131,23237 3247,23218 3362,23195 3478,23170 3593,23138 3709,23109 3825,23080 3940,23056 4056,23016 4171,22981 4287,22923 4403,22879 4518,22851 4634,22856 4749,22807 4865,22777 4981,22760 5096,22672 5212,22629 5327,22577 5443,22558 5559,22536 5674,22489 5790,22459 5905,22416 6021,22365 6137,22333 6252,22313 6368,22296 6483,22270 6599,22237 6715,22211 6830,22184 6946,22164 7062,22151 7177,22142 7293,22120 7408,22120 7524,22071 7640,22051 7755,22031 7871,22024 7986,22020 8102,22005 8218,21991 8333,21970 8449,21966 8564,21964 8680,21957 8796,21952 8911,21945 9027,21932 9142,21921 9258,21911 9374,21906 9489,21901 9605,21897 9720,21892 9836,21882 9952,21872 10067,21865 10183,21859 10298,21854 10414,21852 10530,21850 10645,21849 10761,21842 10876,21836 10992,21832 11108,21829 11223,21827 11339,21826 11454,21819 11570,21816 11686,21812 11800,21810 11916,21809 12031,21807 12147,21806 12263,21804 12378,21799 12494,21795 12609,21792 12725,21791 12841,21791 12956,21790 13072,21788 13188,21785 13303,21783 13419,21779 13534,21778 13650,21778 13766,21777 13881,21775 13997,21774 14112,21772 14228,21771 14344,21769 14459,21769 14575,21769 14690,21767 14806,21765 14922,21763 15037,21762 15153,21761 15268,21761 15384,21760 15500,21759 15615,21759 15731,21758 15846,21758 15962,21757 16078,21757 16193,21757 16309,21756 16424,21755 16540,21754 16656,21752 16771,21751 16887,21751 17002,21751 17118,21750 17234,21750 17349,21748 17465,21748 17580,21746 17696,21746 17812,21746 17927,21745 18043,21742 18158,21742 18274,21739 18390,21738"/>
 <path fill="none" stroke="rgb(180,120,4)" stroke-width="80" stroke-linejoin="round" d="M 1397,23327 L 1513,23325 1628,23322 1744,23320 1859,23320 1975,23315 2091,23307 2206,23298 2322,23298 2437,23271 2553,23251 2669,23246 2784,23229 2900,23202 3015,23170 3131,23153 3247,23140 3362,23108 3478,23074 3593,23027 3709,22988 3825,22934 3940,22890 4056,22870 4171,22831 4287,22794 4403,22747 4518,22723 4634,22691 4749,22659 4865,22629 4981,22595 5096,22570 5212,22541 5327,22504 5443,22479 5559,22457 5674,22435 5790,22420 5905,22386 6021,22361 6137,22339 6252,22302 6368,22293 6483,22280 6599,22263 6715,22241 6830,22219 6946,22199 7062,22162 7177,22140 7293,22118 7408,22094 7524,22086 7640,22067 7755,22047 7871,22037 7986,22030 8102,22020 8218,22035 8333,22020 8449,22010 8564,22010 8680,21995 8796,21986 8911,21983 9027,21976 9142,21968 9258,21951 9374,21951 9489,21951 9605,21949 9720,21946 9836,21946 9952,21941 10067,21934 10183,21934 10298,21927 10414,21919 10530,21914 10645,21904 10761,21904 10876,21900 10992,21890 11108,21887 11223,21882 11339,21873 11454,21873 11570,21873 11686,21873 11800,21870 11916,21863 12031,21863 12147,21860 12263,21860 12378,21860 12494,21855 12609,21855 12725,21855 12841,21855 12956,21850 13072,21848 13188,21848 13303,21848 13419,21846 13534,21846 13650,21846 13766,21843 13881,21843 13997,21841 14112,21841 14228,21841 14344,21841 14459,21841 14575,21838 14690,21833 14806,21833 14922,21833 15037,21833 15153,21833 15268,21833 15384,21831 15500,21831 15615,21831 15731,21831 15846,21828 15962,21828 16078,21828 16193,21828 16309,21828 16424,21828 16540,21826 16656,21823 16771,21823 16887,21823 17002,21823 17118,21823 17234,21821 17349,21818 17465,21818 17580,21818 17696,21818 17812,21816 17927,21816 18043,21816 18158,21814 18274,21814 18390,21814"/>
 <path fill="none" stroke="rgb(21,132,102)" stroke-width="80" stroke-linejoin="round" stroke-dasharray="80,203,80,203,203,203" d="M 1281,23319 L 1397,23319 1513,23317 1628,23316 1744,23315 1859,23313 1975,23311 2091,23308 2206,23305 2322,23302 2437,23298 2553,23294 2669,23289 2784,23283 2900,23277 3015,23270 3131,23263 3247,23256 3362,23247 3478,23236 3593,23224 3709,23213 3825,23202 3940,23193 4056,23182 4171,23167 4287,23154 4403,23140 4518,23126 4634,23115 4749,23104 4865,23093 4981,23080 5096,23065 5212,23051 5327,23034 5443,23022 5559,23014 5674,23004 5790,22990 5905,22977 6021,22965 6137,22952 6252,22942 6368,22934 6483,22926 6599,22914 6715,22901 6830,22890 6946,22880 7062,22870 7177,22864 7293,22856 7408,22845 7524,22833 7640,22823 7755,22812 7871,22804 7986,22798 8102,22791 8218,22781 8333,22771 8449,22761 8564,22751 8680,22744 8796,22737 8911,22731 9027,22722 9142,22713 9258,22704 9374,22695 9489,22687 9605,22681 9720,22679 9836,22671 9952,22662 10067,22653 10183,22644 10298,22636 10414,22631 10530,22625 10645,22616 10761,22606 10876,22596 10992,22587 11108,22580 11223,22575 11339,22568 11454,22559 11570,22549 11686,22540 11800,22532 11916,22524 12031,22518 12147,22512 12263,22499 12378,22489 12494,22480 12609,22468 12725,22460 12841,22453 12956,22446 13072,22436 13188,22426 13303,22418 13419,22409 13534,22400 13650,22394 13766,22387 13881,22378 13997,22369 14112,22359 14228,22350 14344,22341 14459,22335 14575,22328 14690,22316 14806,22307 14922,22296 15037,22286 15153,22277 15268,22270 15384,22263 15500,22252 15615,22242 15731,22231 15846,22219 15962,22208 16078,22200 16193,22193 16309,22181 16424,22168 16540,22149 16656,22138 16771,22128 16887,22121 17002,22111 17118,22099 17234,22087 17349,22076 17465,22064 17580,22054 17696,22046 17812,22038 17927,22025 18043,22011 18158,21999 18274,21987 18390,21977"/>
 <path fill="none" stroke="rgb(0,169,51)" stroke-width="80" stroke-linejoin="round" d="M 1281,23328 L 1397,23328 1513,23328 1628,23325 1744,23325 1859,23323 1975,23320 2091,23320 2206,23317 2322,23304 2437,23296 2553,23284 2669,23281 2784,23251 2900,23236 3015,23220 3131,23191 3247,23156 3362,23124 3478,23095 3593,23075 3709,23059 3825,23030 3940,23001 4056,22976 4171,22939 4287,22890 4403,22855 4518,22816 4634,22787 4749,22766 4865,22737 4981,22712 5096,22697 5212,22670 5327,22636 5443,22617 5559,22602 5674,22573 5790,22540 5905,22509 6021,22490 6137,22477 6252,22467 6368,22457 6483,22446 6599,22414 6715,22396 6830,22390 6946,22382 7062,22371 7177,22367 7293,22364 7408,22354 7524,22351 7640,22350 7755,22342 7871,22340 7986,22335 8102,22332 8218,22327 8333,22326 8449,22322 8564,22319 8680,22317 8796,22317 8911,22317 9027,22313 9142,22311 9258,22311 9374,22308 9489,22301 9605,22300 9720,22298 9836,22295 9952,22292 10067,22255 10183,22255 10298,22255 10414,22255 10530,22255 10645,22253 10761,22252 10876,22252 10992,22248 11108,22248 11223,22248 11339,22248 11454,22248 11570,22247 11686,22245 11800,22243 11916,22240 12031,22240 12147,22239 12263,22234 12378,22224 12494,22223 12609,22223 12725,22223 12841,22219 12956,22219 13072,22215 13188,22215 13303,22206 13419,22206 13534,22203 13650,22200 13766,22198 13881,22195 13997,22195 14112,22195 14228,22195 14344,22195 14459,22194 14575,22194 14690,22194 14806,22194 14922,22194 15037,22194 15153,22194 15268,22190 15384,22190 15500,22189 15615,22187 15731,22186 15846,22186 15962,22186 16078,22186 16193,22186 16309,22187 16424,22186 16540,22186 16656,22186 16771,22184 16887,22184 17002,22182 17118,22182 17234,22178 17349,22174 17465,22174 17580,22174 17696,22174 17812,22174 17927,22173 18043,22173 18158,22173 18274,22171 18390,22169"/>
 <path fill="none" stroke="rgb(191,0,65)" stroke-width="80" stroke-linejoin="round" stroke-dasharray="51,127,51,127,254,127,254,127,254,127" d="M 1281,23329 L 1397,23329 1513,23329 1628,23328 1744,23328 1859,23328 1975,23328 2091,23328 2206,23327 2322,23326 2437,23325 2553,23323 2669,23321 2784,23319 2900,23317 3015,23314 3131,23311 3247,23305 3362,23300 3478,23295 3593,23287 3709,23279 3825,23273 3940,23267 4056,23258 4171,23247 4287,23236 4403,23225 4518,23217 4634,23207 4749,23195 4865,23188 4981,23176 5096,23165 5212,23155 5327,23146 5443,23138 5559,23126 5674,23116 5790,23105 5905,23094 6021,23084 6137,23070 6252,23060 6368,23053 6483,23043 6599,23032 6715,23020 6830,23009 6946,23001 7062,22992 7177,22985 7293,22975 7408,22966 7524,22957 7640,22947 7755,22937 7871,22930 7986,22922 8102,22916 8218,22908 8333,22897 8449,22890 8564,22882 8680,22876 8796,22871 8911,22866 9027,22859 9142,22855 9258,22850 9374,22845 9489,22841 9605,22838 9720,22832 9836,22826 9952,22822 10067,22818 10183,22813 10298,22808 10414,22806 10530,22803 10645,22797 10761,22792 10876,22789 10992,22782 11108,22779 11223,22776 11339,22773 11454,22768 11570,22763 11686,22760 11800,22756 11916,22752 12031,22747 12147,22743 12263,22738 12378,22733 12494,22724 12609,22720 12725,22715 12841,22711 12956,22708 13072,22703 13188,22696 13303,22692 13419,22686 13534,22684 13650,22679 13766,22674 13881,22668 13997,22663 14112,22658 14228,22651 14344,22647 14459,22643 14575,22639 14690,22633 14806,22628 14922,22623 15037,22619 15153,22614 15268,22612 15384,22607 15500,22600 15615,22595 15731,22590 15846,22586 15962,22582 16078,22578 16193,22575 16309,22567 16424,22560 16540,22554 16656,22548 16771,22544 16887,22539 17002,22534 17118,22527 17234,22519 17349,22510 17465,22501 17580,22495 17696,22489 17812,22482 17927,22473 18043,22463 18158,22452 18274,22441 18390,22433"/>
 <path fill="none" stroke="rgb(0,132,209)" stroke-width="80" stroke-linejoin="round" d="M 1397,23321 L 1513,23321 1628,23321 1744,23321 1859,23313 1975,23311 2091,23311 2206,23311 2322,23311 2437,23303 2553,23297 2669,23292 2784,23292 2900,23279 3015,23268 3131,23263 3247,23244 3362,23225 3478,23212 3593,23196 3709,23172 3825,23164 3940,23140 4056,23126 4171,23092 4287,23060 4403,23041 4518,23027 4634,23011 4749,22987 4865,22971 4981,22958 5096,22929 5212,22923 5327,22899 5443,22891 5559,22888 5674,22846 5790,22843 5905,22830 6021,22811 6137,22798 6252,22792 6368,22792 6483,22782 6599,22779 6715,22776 6830,22768 6946,22768 7062,22766 7177,22766 7293,22757 7408,22755 7524,22752 7640,22749 7755,22747 7871,22744 7986,22744 8102,22731 8218,22720 8333,22717 8449,22709 8564,22709 8680,22709 8796,22709 8911,22707 9027,22707 9142,22704 9258,22701 9374,22701 9489,22701 9605,22701 9720,22701 9836,22701 9952,22701 10067,22699 10183,22699 10298,22699 10414,22699 10530,22699 10645,22696 10761,22696 10876,22693 10992,22693 11108,22693 11223,22693 11339,22691 11454,22691 11570,22691 11686,22683 11800,22683 11916,22683 12031,22683 12147,22683 12263,22683 12378,22680 12494,22677 12609,22677 12725,22677 12841,22677 12956,22667 13072,22667 13188,22664 13303,22664 13419,22664 13534,22664 13650,22664 13766,22664 13881,22661 13997,22659 14112,22659 14228,22659 14344,22659 14459,22659 14575,22659 14690,22659 14806,22659 14922,22656 15037,22656 15153,22656 15268,22656 15384,22653 15500,22653 15615,22653 15731,22651 15846,22648 15962,22648 16078,22648 16193,22648 16309,22648 16424,22648 16540,22648 16656,22648 16771,22648 16887,22648 17002,22648 17118,22648 17234,22648 17349,22648 17465,22648 17580,22648 17696,22648 17812,22645 17927,22645 18043,22645 18158,22645 18274,22645 18390,22645"/>
 <path fill="none" stroke="rgb(255,191,0)" stroke-width="80" stroke-linejoin="round" d="M 2322,23328 L 2437,23328 2553,23325 2669,23321 2784,23317 2900,23317 3015,23315 3131,23308 3247,23298 3362,23288 3478,23277 3593,23270 3709,23258 3825,23250 3940,23239 4056,23224 4171,23210 4287,23196 4403,23178 4518,23168 4634,23155 4749,23143 4865,23136 4981,23112 5096,23105 5212,23101 5327,23095 5443,23085 5559,23078 5674,23067 5790,23058 5905,23048 6021,23045 6137,23040 6252,23035 6368,23032 6483,23028 6599,23022 6715,23022 6830,23010 6946,23005 7062,22998 7177,22994 7293,22989 7408,22982 7524,22975 7640,22964 7755,22960 7871,22956 7986,22951 8102,22948 8218,22947 8333,22937 8449,22933 8564,22930 8680,22929 8796,22926 8911,22928 9027,22921 9142,22918 9258,22915 9374,22907 9489,22905 9605,22903 9720,22901 9836,22901 9952,22901 10067,22898 10183,22898 10298,22898 10414,22896 10530,22895 10645,22892 10761,22890 10876,22888 10992,22887 11108,22887 11223,22887 11339,22886 11454,22886 11570,22883 11686,22886 11800,22884 11916,22886 12031,22884 12147,22883 12263,22882 12378,22879 12494,22878 12609,22876 12725,22875 12841,22875 12956,22875 13072,22871 13188,22865 13303,22863 13419,22857 13534,22857 13650,22859 13766,22859 13881,22857 13997,22857 14112,22852 14228,22852 14344,22855 14459,22859 14575,22856 14690,22855 14806,22855 14922,22853 15037,22853 15153,22853 15268,22853 15384,22852 15500,22849 15615,22849 15731,22849 15846,22845 15962,22845 16078,22844 16193,22844 16309,22842 16424,22837 16540,22836 16656,22830 16771,22830 16887,22827 17002,22825 17118,22823 17234,22823 17349,22817 17465,22813 17580,22811 17696,22810 17812,22807 17927,22811 18043,22804 18158,22802 18274,22803 18390,22803"/>
 <path fill="none" stroke="rgb(128,0,128)" stroke-width="80" stroke-linejoin="round" stroke-dasharray="158,158" d="M 1281,23329 L 1397,23329 1513,23329 1628,23329 1744,23329 1859,23329 1975,23329 2091,23329 2206,23329 2322,23329 2437,23329 2553,23329 2669,23329 2784,23329 2900,23329 3015,23329 3131,23329 3247,23329 3362,23329 3478,23329 3593,23329 3709,23329 3825,23329 3940,23328 4056,23328 4171,23328 4287,23328 4403,23327 4518,23327 4634,23326 4749,23326 4865,23326 4981,23325 5096,23325 5212,23325 5327,23324 5443,23324 5559,23324 5674,23323 5790,23323 5905,23322 6021,23322 6137,23321 6252,23321 6368,23320 6483,23320 6599,23319 6715,23318 6830,23317 6946,23317 7062,23316 7177,23315 7293,23313 7408,23312 7524,23311 7640,23310 7755,23309 7871,23307 7986,23306 8102,23305 8218,23304 8333,23303 8449,23302 8564,23301 8680,23299 8796,23298 8911,23296 9027,23295 9142,23293 9258,23292 9374,23290 9489,23289 9605,23287 9720,23286 9836,23284 9952,23282 10067,23280 10183,23277 10298,23275 10414,23273 10530,23271 10645,23268 10761,23266 10876,23263 10992,23260 11108,23257 11223,23254 11339,23251 11454,23248 11570,23244 11686,23240 11800,23236 11916,23233 12031,23230 12147,23226 12263,23205 12378,23201 12494,23197 12609,23194 12725,23190 12841,23186 12956,23182 13072,23177 13188,23173 13303,23169 13419,23165 13534,23160 13650,23157 13766,23152 13881,23147 13997,23142 14112,23138 14228,23134 14344,23127 14459,23123 14575,23118 14690,23113 14806,23108 14922,23103 15037,23097 15153,23091 15268,23086 15384,23080 15500,23074 15615,23068 15731,23061 15846,23054 15962,23048 16078,23041 16193,23035 16309,23028 16424,23016 16540,23008 16656,23000 16771,22993 16887,22985 17002,22979 17118,22970 17234,22962 17349,22954 17465,22946 17580,22937 17696,22929 17812,22921 17927,22912 18043,22902 18158,22893 18274,22883 18390,22874"/>
 <path fill="none" stroke="rgb(0,0,255)" stroke-width="80" stroke-linejoin="round" stroke-dasharray="158,158" d="M 1281,23311 L 1397,23309 1513,23308 1628,23308 1744,23307 1859,23306 1975,23304 2091,23303 2206,23301 2322,23298 2437,23298 2553,23296 2669,23294 2784,23292 2900,23290 3015,23289 3131,23287 3247,23285 3362,23284 3478,23283 3593,23282 3709,23280 3825,23279 3940,23278 4056,23277 4171,23275 4287,23273 4403,23272 4518,23271 4634,23270 4749,23269 4865,23268 4981,23267 5096,23266 5212,23265 5327,23264 5443,23264 5559,23263 5674,23263 5790,23263 5905,23262 6021,23262 6137,23262 6252,23261 6368,23261 6483,23261 6599,23260 6715,23260 6830,23259 6946,23259 7062,23259 7177,23258 7293,23258 7408,23257 7524,23257 7640,23257 7755,23257 7871,23257 7986,23257 8102,23257 8218,23256 8333,23256 8449,23256 8564,23255 8680,23255 8796,23255 8911,23255 9027,23255 9142,23255 9258,23255 9374,23254 9489,23254 9605,23254 9720,23253 9836,23253 9952,23253 10067,23253 10183,23253 10298,23253 10414,23253 10530,23253 10645,23252 10761,23252 10876,23252 10992,23252 11108,23252 11223,23252 11339,23252 11454,23251 11570,23251 11686,23251 11800,23251 11916,23251 12031,23251 12147,23251 12263,23251 12378,23250 12494,23250 12609,23250 12725,23250 12841,23250 12956,23250 13072,23250 13188,23250 13303,23250 13419,23250 13534,23250 13650,23250 13766,23250 13881,23250 13997,23250 14112,23250 14228,23250 14344,23250 14459,23249 14575,23249 14690,23249 14806,23248 14922,23248 15037,23248 15153,23248 15268,23248 15384,23248 15500,23248 15615,23247 15731,23247 15846,23246 15962,23246 16078,23246 16193,23246 16309,23246 16424,23246 16540,23245 16656,23245 16771,23245 16887,23245 17002,23245 17118,23245 17234,23245 17349,23244 17465,23244 17580,23244 17696,23244 17812,23244 17927,23244 18043,23244 18158,23244 18274,23244 18390,23243"/>
 <text class="TextShape" transform="rotate(-90 1407 24534)"><tspan class="TextParagraph" font-family="Liberation Sans, sans-serif" font-size="388px" font-weight="400"><tspan class="TextPosition" x="1407" y="24534"><tspan fill="rgb(0,0,0)" stroke="none">13.03</tspan></tspan></tspan></text>
 <text class="TextShape" transform="rotate(-90 2217 24534)"><tspan class="TextParagraph" font-family="Liberation Sans, sans-serif" font-size="388px" font-weight="400"><tspan class="TextPosition" x="2217" y="24534"><tspan fill="rgb(0,0,0)" stroke="none">20.03</tspan></tspan></tspan></text>
 <text class="TextShape" transform="rotate(-90 3026 24534)"><tspan class="TextParagraph" font-family="Liberation Sans, sans-serif" font-size="388px" font-weight="400"><tspan class="TextPosition" x="3026" y="24534"><tspan fill="rgb(0,0,0)" stroke="none">27.03</tspan></tspan></tspan></text>
 <text class="TextShape" transform="rotate(-90 3835 24534)"><tspan class="TextParagraph" font-family="Liberation Sans, sans-serif" font-size="388px" font-weight="400"><tspan class="TextPosition" x="3835" y="24534"><tspan fill="rgb(0,0,0)" stroke="none">03.04</tspan></tspan></tspan></text>
 <text class="TextShape" transform="rotate(-90 4644 24534)"><tspan class="TextParagraph" font-family="Liberation Sans, sans-serif" font-size="388px" font-weight="400"><tspan class="TextPosition" x="4644" y="24534"><tspan fill="rgb(0,0,0)" stroke="none">10.04</tspan></tspan></tspan></text>
 <text class="TextShape" transform="rotate(-90 5453 24534)"><tspan class="TextParagraph" font-family="Liberation Sans, sans-serif" font-size="388px" font-weight="400"><tspan class="TextPosition" x="5453" y="24534"><tspan fill="rgb(0,0,0)" stroke="none">17.04</tspan></tspan></tspan></text>
 <text class="TextShape" transform="rotate(-90 6263 24534)"><tspan class="TextParagraph" font-family="Liberation Sans, sans-serif" font-size="388px" font-weight="400"><tspan class="TextPosition" x="6263" y="24534"><tspan fill="rgb(0,0,0)" stroke="none">24.04</tspan></tspan></tspan></text>
 <text class="TextShape" transform="rotate(-90 7072 24534)"><tspan class="TextParagraph" font-family="Liberation Sans, sans-serif" font-size="388px" font-weight="400"><tspan class="TextPosition" x="7072" y="24534"><tspan fill="rgb(0,0,0)" stroke="none">01.05</tspan></tspan></tspan></text>
 <text class="TextShape" transform="rotate(-90 7881 24534)"><tspan class="TextParagraph" font-family="Liberation Sans, sans-serif" font-size="388px" font-weight="400"><tspan class="TextPosition" x="7881" y="24534"><tspan fill="rgb(0,0,0)" stroke="none">08.05</tspan></tspan></tspan></text>
 <text class="TextShape" transform="rotate(-90 8690 24534)"><tspan class="TextParagraph" font-family="Liberation Sans, sans-serif" font-size="388px" font-weight="400"><tspan class="TextPosition" x="8690" y="24534"><tspan fill="rgb(0,0,0)" stroke="none">15.05</tspan></tspan></tspan></text>
 <text class="TextShape" transform="rotate(-90 9500 24534)"><tspan class="TextParagraph" font-family="Liberation Sans, sans-serif" font-size="388px" font-weight="400"><tspan class="TextPosition" x="9500" y="24534"><tspan fill="rgb(0,0,0)" stroke="none">22.05</tspan></tspan></tspan></text>
 <text class="TextShape" transform="rotate(-90 10309 24534)"><tspan class="TextParagraph" font-family="Liberation Sans, sans-serif" font-size="388px" font-weight="400"><tspan class="TextPosition" x="10309" y="24534"><tspan fill="rgb(0,0,0)" stroke="none">29.05</tspan></tspan></tspan></text>
 <text class="TextShape" transform="rotate(-90 11118 24534)"><tspan class="TextParagraph" font-family="Liberation Sans, sans-serif" font-size="388px" font-weight="400"><tspan class="TextPosition" x="11118" y="24534"><tspan fill="rgb(0,0,0)" stroke="none">05.06</tspan></tspan></tspan></text>
 <text class="TextShape" transform="rotate(-90 11926 24534)"><tspan class="TextParagraph" font-family="Liberation Sans, sans-serif" font-size="388px" font-weight="400"><tspan class="TextPosition" x="11926" y="24534"><tspan fill="rgb(0,0,0)" stroke="none">12.06</tspan></tspan></tspan></text>
 <text class="TextShape" transform="rotate(-90 12735 24534)"><tspan class="TextParagraph" font-family="Liberation Sans, sans-serif" font-size="388px" font-weight="400"><tspan class="TextPosition" x="12735" y="24534"><tspan fill="rgb(0,0,0)" stroke="none">19.06</tspan></tspan></tspan></text>
 <text class="TextShape" transform="rotate(-90 13545 24534)"><tspan class="TextParagraph" font-family="Liberation Sans, sans-serif" font-size="388px" font-weight="400"><tspan class="TextPosition" x="13545" y="24534"><tspan fill="rgb(0,0,0)" stroke="none">26.06</tspan></tspan></tspan></text>
 <text class="TextShape" transform="rotate(-90 14354 24534)"><tspan class="TextParagraph" font-family="Liberation Sans, sans-serif" font-size="388px" font-weight="400"><tspan class="TextPosition" x="14354" y="24534"><tspan fill="rgb(0,0,0)" stroke="none">03.07</tspan></tspan></tspan></text>
 <text class="TextShape" transform="rotate(-90 15163 24534)"><tspan class="TextParagraph" font-family="Liberation Sans, sans-serif" font-size="388px" font-weight="400"><tspan class="TextPosition" x="15163" y="24534"><tspan fill="rgb(0,0,0)" stroke="none">10.07</tspan></tspan></tspan></text>
 <text class="TextShape" transform="rotate(-90 15972 24534)"><tspan class="TextParagraph" font-family="Liberation Sans, sans-serif" font-size="388px" font-weight="400"><tspan class="TextPosition" x="15972" y="24534"><tspan fill="rgb(0,0,0)" stroke="none">17.07</tspan></tspan></tspan></text>
 <text class="TextShape" transform="rotate(-90 16782 24534)"><tspan class="TextParagraph" font-family="Liberation Sans, sans-serif" font-size="388px" font-weight="400"><tspan class="TextPosition" x="16782" y="24534"><tspan fill="rgb(0,0,0)" stroke="none">24.07</tspan></tspan></tspan></text>
 <text class="TextShape" transform="rotate(-90 17591 24534)"><tspan class="TextParagraph" font-family="Liberation Sans, sans-serif" font-size="388px" font-weight="400"><tspan class="TextPosition" x="17591" y="24534"><tspan fill="rgb(0,0,0)" stroke="none">31.07</tspan></tspan></tspan></text>
 <text class="TextShape" transform="rotate(-90 18400 24534)"><tspan class="TextParagraph" font-family="Liberation Sans, sans-serif" font-size="388px" font-weight="400"><tspan class="TextPosition" x="18400" y="24534"><tspan fill="rgb(0,0,0)" stroke="none">07.08</tspan></tspan></tspan></text>
 <text class="TextShape"><tspan class="TextParagraph" font-family="Liberation Sans, sans-serif" font-size="388px" font-weight="400"><tspan class="TextPosition" x="762" y="23458"><tspan fill="rgb(0,0,0)" stroke="none">0</tspan></tspan></tspan></text>
 <text class="TextShape"><tspan class="TextParagraph" font-family="Liberation Sans, sans-serif" font-size="388px" font-weight="400"><tspan class="TextPosition" x="339" y="22008"><tspan fill="rgb(0,0,0)" stroke="none">100</tspan></tspan></tspan></text>
 <text class="TextShape"><tspan class="TextParagraph" font-family="Liberation Sans, sans-serif" font-size="388px" font-weight="400"><tspan class="TextPosition" x="339" y="20559"><tspan fill="rgb(0,0,0)" stroke="none">200</tspan></tspan></tspan></text>
 <text class="TextShape"><tspan class="TextParagraph" font-family="Liberation Sans, sans-serif" font-size="388px" font-weight="400"><tspan class="TextPosition" x="339" y="19110"><tspan fill="rgb(0,0,0)" stroke="none">300</tspan></tspan></tspan></text>
 <text class="TextShape"><tspan class="TextParagraph" font-family="Liberation Sans, sans-serif" font-size="388px" font-weight="400"><tspan class="TextPosition" x="339" y="17661"><tspan fill="rgb(0,0,0)" stroke="none">400</tspan></tspan></tspan></text>
 <text class="TextShape"><tspan class="TextParagraph" font-family="Liberation Sans, sans-serif" font-size="388px" font-weight="400"><tspan class="TextPosition" x="339" y="16212"><tspan fill="rgb(0,0,0)" stroke="none">500</tspan></tspan></tspan></text>
 <text class="TextShape"><tspan class="TextParagraph" font-family="Liberation Sans, sans-serif" font-size="388px" font-weight="400"><tspan class="TextPosition" x="339" y="14763"><tspan fill="rgb(0,0,0)" stroke="none">600</tspan></tspan></tspan></text>
 <text class="TextShape"><tspan class="TextParagraph" font-family="Liberation Sans, sans-serif" font-size="388px" font-weight="400"><tspan class="TextPosition" x="339" y="13314"><tspan fill="rgb(0,0,0)" stroke="none">700</tspan></tspan></tspan></text>
 <text class="TextShape"><tspan class="TextParagraph" font-family="Liberation Sans, sans-serif" font-size="388px" font-weight="400"><tspan class="TextPosition" x="339" y="11865"><tspan fill="rgb(0,0,0)" stroke="none">800</tspan></tspan></tspan></text>
 <text class="TextShape"><tspan class="TextParagraph" font-family="Liberation Sans, sans-serif" font-size="388px" font-weight="400"><tspan class="TextPosition" x="339" y="10416"><tspan fill="rgb(0,0,0)" stroke="none">900</tspan></tspan></tspan></text>
 <text class="TextShape"><tspan class="TextParagraph" font-family="Liberation Sans, sans-serif" font-size="388px" font-weight="400"><tspan class="TextPosition" x="127" y="8967"><tspan fill="rgb(0,0,0)" stroke="none">1000</tspan></tspan></tspan></text>
 <text class="TextShape"><tspan class="TextParagraph" font-family="Liberation Sans, sans-serif" font-size="388px" font-weight="400"><tspan class="TextPosition" x="127" y="7518"><tspan fill="rgb(0,0,0)" stroke="none">1100</tspan></tspan></tspan></text>
 <text class="TextShape"><tspan class="TextParagraph" font-family="Liberation Sans, sans-serif" font-size="388px" font-weight="400"><tspan class="TextPosition" x="127" y="6069"><tspan fill="rgb(0,0,0)" stroke="none">1200</tspan></tspan></tspan></text>
 <text class="TextShape"><tspan class="TextParagraph" font-family="Liberation Sans, sans-serif" font-size="388px" font-weight="400"><tspan class="TextPosition" x="127" y="4620"><tspan fill="rgb(0,0,0)" stroke="none">1300</tspan></tspan></tspan></text>
 <text class="TextShape"><tspan class="TextParagraph" font-family="Liberation Sans, sans-serif" font-size="388px" font-weight="400"><tspan class="TextPosition" x="127" y="3171"><tspan fill="rgb(0,0,0)" stroke="none">1400</tspan></tspan></tspan></text>
 <text class="TextShape"><tspan class="TextParagraph" font-family="Liberation Sans, sans-serif" font-size="388px" font-weight="400"><tspan class="TextPosition" x="127" y="1722"><tspan fill="rgb(0,0,0)" stroke="none">1500</tspan></tspan></tspan></text>
 <text class="TextShape"><tspan class="TextParagraph" font-family="Liberation Sans, sans-serif" font-size="494px" font-weight="700"><tspan class="TextPosition" x="887" y="990"><tspan fill="rgb(0,0,0)" stroke="none">Poet obt na milin obyvatel</tspan></tspan></tspan></text>
 <path fill="none" stroke="rgb(112,110,12)" stroke-width="80" stroke-linejoin="round" stroke-dasharray="80,40" d="M 18747,2317 L 20347,2317"/>
 <path fill="none" stroke="rgb(255,128,0)" stroke-width="80" stroke-linejoin="round" d="M 18747,3327 L 20347,3327"/>
 <path fill="none" stroke="rgb(128,0,128)" stroke-width="80" stroke-linejoin="round" d="M 18747,4337 L 20347,4337"/>
 <path fill="none" stroke="rgb(131,202,255)" stroke-width="80" stroke-linejoin="round" d="M 18747,5347 L 20347,5347"/>
 <path fill="none" stroke="rgb(241,13,12)" stroke-width="80" stroke-linejoin="round" d="M 18747,6357 L 20347,6357"/>
 <path fill="none" stroke="rgb(141,40,30)" stroke-width="80" stroke-linejoin="round" stroke-dasharray="80,40" d="M 18747,7367 L 20347,7367"/>
 <path fill="none" stroke="rgb(255,64,0)" stroke-width="80" stroke-linejoin="round" stroke-dasharray="80,40" d="M 18747,8377 L 20347,8377"/>
 <path fill="none" stroke="rgb(0,169,51)" stroke-width="80" stroke-linejoin="round" stroke-dasharray="80,40" d="M 18747,9387 L 20347,9387"/>
 <path fill="none" stroke="rgb(21,132,102)" stroke-width="80" stroke-linejoin="round" stroke-dasharray="51,127,51,127,254,127,254,127,254,127" d="M 18747,10397 L 20347,10397"/>
 <path fill="none" stroke="rgb(0,0,255)" stroke-width="80" stroke-linejoin="round" stroke-dasharray="51,127,51,127,254,127,254,127,254,127" d="M 18747,11407 L 20347,11407"/>
 <path fill="none" stroke="rgb(85,48,141)" stroke-width="80" stroke-linejoin="round" stroke-dasharray="80,40" d="M 18747,12417 L 20347,12417"/>
 <path fill="none" stroke="rgb(129,212,26)" stroke-width="80" stroke-linejoin="round" d="M 18747,13426 L 20347,13426"/>
 <path fill="none" stroke="rgb(52,42,6)" stroke-width="80" stroke-linejoin="round" d="M 18747,14436 L 20347,14436"/>
 <path fill="none" stroke="rgb(180,120,4)" stroke-width="80" stroke-linejoin="round" d="M 18747,15446 L 20347,15446"/>
 <path fill="none" stroke="rgb(21,132,102)" stroke-width="80" stroke-linejoin="round" stroke-dasharray="80,203,80,203,203,203" d="M 18747,16456 L 20347,16456"/>
 <path fill="none" stroke="rgb(0,169,51)" stroke-width="80" stroke-linejoin="round" d="M 18747,17466 L 20347,17466"/>
 <path fill="none" stroke="rgb(191,0,65)" stroke-width="80" stroke-linejoin="round" stroke-dasharray="51,127,51,127,254,127,254,127,254,127" d="M 18747,18476 L 20347,18476"/>
 <path fill="none" stroke="rgb(0,132,209)" stroke-width="80" stroke-linejoin="round" d="M 18747,19486 L 20347,19486"/>
 <path fill="none" stroke="rgb(255,191,0)" stroke-width="80" stroke-linejoin="round" d="M 18747,20496 L 20347,20496"/>
 <path fill="none" stroke="rgb(128,0,128)" stroke-width="80" stroke-linejoin="round" stroke-dasharray="158,158" d="M 18747,21506 L 20347,21506"/>
 <path fill="none" stroke="rgb(0,0,255)" stroke-width="80" stroke-linejoin="round" stroke-dasharray="158,158" d="M 18747,22516 L 20347,22516"/>
 <text class="TextShape"><tspan class="TextParagraph" font-family="Liberation Sans, sans-serif" font-size="423px" font-weight="400"><tspan class="TextPosition" x="20447" y="2465"><tspan fill="rgb(0,0,0)" stroke="none">Stt New York</tspan></tspan></tspan></text>
 <text class="TextShape"><tspan class="TextParagraph" font-family="Liberation Sans, sans-serif" font-size="423px" font-weight="400"><tspan class="TextPosition" x="20447" y="3475"><tspan fill="rgb(0,0,0)" stroke="none">Velk Britnie</tspan></tspan></tspan></text>
 <text class="TextShape"><tspan class="TextParagraph" font-family="Liberation Sans, sans-serif" font-size="423px" font-weight="400"><tspan class="TextPosition" x="20447" y="4485"><tspan fill="rgb(0,0,0)" stroke="none">panlsko</tspan></tspan></tspan></text>
 <text class="TextShape"><tspan class="TextParagraph" font-family="Liberation Sans, sans-serif" font-size="423px" font-weight="400"><tspan class="TextPosition" x="20447" y="5495"><tspan fill="rgb(0,0,0)" stroke="none">Itlie</tspan></tspan></tspan></text>
 <text class="TextShape"><tspan class="TextParagraph" font-family="Liberation Sans, sans-serif" font-size="423px" font-weight="400"><tspan class="TextPosition" x="20447" y="6505"><tspan fill="rgb(0,0,0)" stroke="none">vdsko</tspan></tspan></tspan></text>
 <text class="TextShape"><tspan class="TextParagraph" font-family="Liberation Sans, sans-serif" font-size="423px" font-weight="400"><tspan class="TextPosition" x="20447" y="7515"><tspan fill="rgb(0,0,0)" stroke="none">USA</tspan></tspan></tspan></text>
 <text class="TextShape"><tspan class="TextParagraph" font-family="Liberation Sans, sans-serif" font-size="423px" font-weight="400"><tspan class="TextPosition" x="20447" y="8525"><tspan fill="rgb(0,0,0)" stroke="none">Brazlie</tspan></tspan></tspan></text>
 <text class="TextShape"><tspan class="TextParagraph" font-family="Liberation Sans, sans-serif" font-size="423px" font-weight="400"><tspan class="TextPosition" x="20447" y="9535"><tspan fill="rgb(0,0,0)" stroke="none">Mexiko</tspan></tspan></tspan></text>
 <text class="TextShape"><tspan class="TextParagraph" font-family="Liberation Sans, sans-serif" font-size="423px" font-weight="400"><tspan class="TextPosition" x="20447" y="10545"><tspan fill="rgb(0,0,0)" stroke="none">EU_star zem</tspan></tspan></tspan></text>
 <text class="TextShape"><tspan class="TextParagraph" font-family="Liberation Sans, sans-serif" font-size="423px" font-weight="400"><tspan class="TextPosition" x="20447" y="11555"><tspan fill="rgb(0,0,0)" stroke="none">EU</tspan></tspan></tspan></text>
 <text class="TextShape"><tspan class="TextParagraph" font-family="Liberation Sans, sans-serif" font-size="423px" font-weight="400"><tspan class="TextPosition" x="20447" y="12564"><tspan fill="rgb(0,0,0)" stroke="none">Kanada</tspan></tspan></tspan></text>
 <text class="TextShape"><tspan class="TextParagraph" font-family="Liberation Sans, sans-serif" font-size="423px" font-weight="400"><tspan class="TextPosition" x="20447" y="13574"><tspan fill="rgb(0,0,0)" stroke="none">vcarsko</tspan></tspan></tspan></text>
 <text class="TextShape"><tspan class="TextParagraph" font-family="Liberation Sans, sans-serif" font-size="423px" font-weight="400"><tspan class="TextPosition" x="20447" y="14584"><tspan fill="rgb(0,0,0)" stroke="none">Nmecko</tspan></tspan></tspan></text>
 <text class="TextShape"><tspan class="TextParagraph" font-family="Liberation Sans, sans-serif" font-size="423px" font-weight="400"><tspan class="TextPosition" x="20447" y="15594"><tspan fill="rgb(0,0,0)" stroke="none">Dnsko</tspan></tspan></tspan></text>
 <text class="TextShape"><tspan class="TextParagraph" font-family="Liberation Sans, sans-serif" font-size="423px" font-weight="400"><tspan class="TextPosition" x="20447" y="16604"><tspan fill="rgb(0,0,0)" stroke="none">celosvtov</tspan></tspan></tspan></text>
 <text class="TextShape"><tspan class="TextParagraph" font-family="Liberation Sans, sans-serif" font-size="423px" font-weight="400"><tspan class="TextPosition" x="20447" y="17614"><tspan fill="rgb(0,0,0)" stroke="none">Rakousko</tspan></tspan></tspan></text>
 <text class="TextShape"><tspan class="TextParagraph" font-family="Liberation Sans, sans-serif" font-size="423px" font-weight="400"><tspan class="TextPosition" x="20447" y="18624"><tspan fill="rgb(0,0,0)" stroke="none">EU_nov zem</tspan></tspan></tspan></text>
 <text class="TextShape"><tspan class="TextParagraph" font-family="Liberation Sans, sans-serif" font-size="423px" font-weight="400"><tspan class="TextPosition" x="20447" y="19634"><tspan fill="rgb(0,0,0)" stroke="none">Norsko</tspan></tspan></tspan></text>
 <text class="TextShape"><tspan class="TextParagraph" font-family="Liberation Sans, sans-serif" font-size="423px" font-weight="400"><tspan class="TextPosition" x="20447" y="20644"><tspan fill="rgb(0,0,0)" stroke="none">esko</tspan></tspan></tspan></text>
 <text class="TextShape"><tspan class="TextParagraph" font-family="Liberation Sans, sans-serif" font-size="423px" font-weight="400"><tspan class="TextPosition" x="20447" y="21654"><tspan fill="rgb(0,0,0)" stroke="none">Indie</tspan></tspan></tspan></text>
 <text class="TextShape"><tspan class="TextParagraph" font-family="Liberation Sans, sans-serif" font-size="423px" font-weight="400"><tspan class="TextPosition" x="20447" y="22664"><tspan fill="rgb(0,0,0)" stroke="none">Jin Korea</tspan></tspan></tspan></text>
</svg>