<?xml version="1.0" encoding="UTF-8"?>
<!DOCTYPE svg PUBLIC "-//W3C//DTD SVG 1.1//EN" "http://www.w3.org/Graphics/SVG/1.1/DTD/svg11.dtd">
<svg width="236mm" height="250mm" viewBox="0 0 23600 25000" version="1.1" xmlns="http://www.w3.org/2000/svg" xmlns:xlink="http://www.w3.org/1999/xlink" stroke-width="28.222" stroke-linejoin="round" xml:space="preserve">
 <path fill="rgb(255,255,255)" stroke="none" d="M 11800,25000 L 0,25000 0,0 23600,0 23600,25000 11800,25000 Z"/>
 <path fill="none" stroke="rgb(179,179,179)" stroke-linejoin="round" d="M 10125,22759 L 1511,22759 1511,1681 18739,1681 18739,22759 10125,22759 Z"/>
 <path fill="none" stroke="rgb(179,179,179)" stroke-linejoin="round" d="M 18739,22758 L 1511,22758"/>
 <path fill="none" stroke="rgb(179,179,179)" stroke-linejoin="round" d="M 18739,20650 L 1511,20650"/>
 <path fill="none" stroke="rgb(179,179,179)" stroke-linejoin="round" d="M 18739,18542 L 1511,18542"/>
 <path fill="none" stroke="rgb(179,179,179)" stroke-linejoin="round" d="M 18739,16434 L 1511,16434"/>
 <path fill="none" stroke="rgb(179,179,179)" stroke-linejoin="round" d="M 18739,14326 L 1511,14326"/>
 <path fill="none" stroke="rgb(179,179,179)" stroke-linejoin="round" d="M 18739,12219 L 1511,12219"/>
 <path fill="none" stroke="rgb(179,179,179)" stroke-linejoin="round" d="M 18739,10111 L 1511,10111"/>
 <path fill="none" stroke="rgb(179,179,179)" stroke-linejoin="round" d="M 18739,8003 L 1511,8003"/>
 <path fill="none" stroke="rgb(179,179,179)" stroke-linejoin="round" d="M 18739,5895 L 1511,5895"/>
 <path fill="none" stroke="rgb(179,179,179)" stroke-linejoin="round" d="M 18739,3787 L 1511,3787"/>
 <path fill="none" stroke="rgb(179,179,179)" stroke-linejoin="round" d="M 18739,1680 L 1511,1680"/>
 <path fill="none" stroke="rgb(179,179,179)" stroke-linejoin="round" d="M 1511,22908 L 1511,22758"/>
 <path fill="none" stroke="rgb(179,179,179)" stroke-linejoin="round" d="M 1511,22908 L 1511,22758"/>
 <path fill="none" stroke="rgb(179,179,179)" stroke-linejoin="round" d="M 2315,22908 L 2315,22758"/>
 <path fill="none" stroke="rgb(179,179,179)" stroke-linejoin="round" d="M 2315,22908 L 2315,22758"/>
 <path fill="none" stroke="rgb(179,179,179)" stroke-linejoin="round" d="M 3119,22908 L 3119,22758"/>
 <path fill="none" stroke="rgb(179,179,179)" stroke-linejoin="round" d="M 3119,22908 L 3119,22758"/>
 <path fill="none" stroke="rgb(179,179,179)" stroke-linejoin="round" d="M 3923,22908 L 3923,22758"/>
 <path fill="none" stroke="rgb(179,179,179)" stroke-linejoin="round" d="M 3923,22908 L 3923,22758"/>
 <path fill="none" stroke="rgb(179,179,179)" stroke-linejoin="round" d="M 4727,22908 L 4727,22758"/>
 <path fill="none" stroke="rgb(179,179,179)" stroke-linejoin="round" d="M 4727,22908 L 4727,22758"/>
 <path fill="none" stroke="rgb(179,179,179)" stroke-linejoin="round" d="M 5531,22908 L 5531,22758"/>
 <path fill="none" stroke="rgb(179,179,179)" stroke-linejoin="round" d="M 5531,22908 L 5531,22758"/>
 <path fill="none" stroke="rgb(179,179,179)" stroke-linejoin="round" d="M 6335,22908 L 6335,22758"/>
 <path fill="none" stroke="rgb(179,179,179)" stroke-linejoin="round" d="M 6335,22908 L 6335,22758"/>
 <path fill="none" stroke="rgb(179,179,179)" stroke-linejoin="round" d="M 7139,22908 L 7139,22758"/>
 <path fill="none" stroke="rgb(179,179,179)" stroke-linejoin="round" d="M 7139,22908 L 7139,22758"/>
 <path fill="none" stroke="rgb(179,179,179)" stroke-linejoin="round" d="M 7943,22908 L 7943,22758"/>
 <path fill="none" stroke="rgb(179,179,179)" stroke-linejoin="round" d="M 7943,22908 L 7943,22758"/>
 <path fill="none" stroke="rgb(179,179,179)" stroke-linejoin="round" d="M 8747,22908 L 8747,22758"/>
 <path fill="none" stroke="rgb(179,179,179)" stroke-linejoin="round" d="M 8747,22908 L 8747,22758"/>
 <path fill="none" stroke="rgb(179,179,179)" stroke-linejoin="round" d="M 9551,22908 L 9551,22758"/>
 <path fill="none" stroke="rgb(179,179,179)" stroke-linejoin="round" d="M 9551,22908 L 9551,22758"/>
 <path fill="none" stroke="rgb(179,179,179)" stroke-linejoin="round" d="M 10355,22908 L 10355,22758"/>
 <path fill="none" stroke="rgb(179,179,179)" stroke-linejoin="round" d="M 10355,22908 L 10355,22758"/>
 <path fill="none" stroke="rgb(179,179,179)" stroke-linejoin="round" d="M 11159,22908 L 11159,22758"/>
 <path fill="none" stroke="rgb(179,179,179)" stroke-linejoin="round" d="M 11159,22908 L 11159,22758"/>
 <path fill="none" stroke="rgb(179,179,179)" stroke-linejoin="round" d="M 11962,22908 L 11962,22758"/>
 <path fill="none" stroke="rgb(179,179,179)" stroke-linejoin="round" d="M 11962,22908 L 11962,22758"/>
 <path fill="none" stroke="rgb(179,179,179)" stroke-linejoin="round" d="M 12766,22908 L 12766,22758"/>
 <path fill="none" stroke="rgb(179,179,179)" stroke-linejoin="round" d="M 12766,22908 L 12766,22758"/>
 <path fill="none" stroke="rgb(179,179,179)" stroke-linejoin="round" d="M 13570,22908 L 13570,22758"/>
 <path fill="none" stroke="rgb(179,179,179)" stroke-linejoin="round" d="M 13570,22908 L 13570,22758"/>
 <path fill="none" stroke="rgb(179,179,179)" stroke-linejoin="round" d="M 14374,22908 L 14374,22758"/>
 <path fill="none" stroke="rgb(179,179,179)" stroke-linejoin="round" d="M 14374,22908 L 14374,22758"/>
 <path fill="none" stroke="rgb(179,179,179)" stroke-linejoin="round" d="M 15178,22908 L 15178,22758"/>
 <path fill="none" stroke="rgb(179,179,179)" stroke-linejoin="round" d="M 15178,22908 L 15178,22758"/>
 <path fill="none" stroke="rgb(179,179,179)" stroke-linejoin="round" d="M 15982,22908 L 15982,22758"/>
 <path fill="none" stroke="rgb(179,179,179)" stroke-linejoin="round" d="M 15982,22908 L 15982,22758"/>
 <path fill="none" stroke="rgb(179,179,179)" stroke-linejoin="round" d="M 16786,22908 L 16786,22758"/>
 <path fill="none" stroke="rgb(179,179,179)" stroke-linejoin="round" d="M 16786,22908 L 16786,22758"/>
 <path fill="none" stroke="rgb(179,179,179)" stroke-linejoin="round" d="M 17590,22908 L 17590,22758"/>
 <path fill="none" stroke="rgb(179,179,179)" stroke-linejoin="round" d="M 17590,22908 L 17590,22758"/>
 <path fill="none" stroke="rgb(179,179,179)" stroke-linejoin="round" d="M 18394,22908 L 18394,22758"/>
 <path fill="none" stroke="rgb(179,179,179)" stroke-linejoin="round" d="M 18394,22908 L 18394,22758"/>
 <path fill="none" stroke="rgb(179,179,179)" stroke-linejoin="round" d="M 1511,22758 L 18739,22758"/>
 <path fill="none" stroke="rgb(179,179,179)" stroke-linejoin="round" d="M 1361,22758 L 1511,22758"/>
 <path fill="none" stroke="rgb(179,179,179)" stroke-linejoin="round" d="M 1361,22758 L 1511,22758"/>
 <path fill="none" stroke="rgb(179,179,179)" stroke-linejoin="round" d="M 1361,20650 L 1511,20650"/>
 <path fill="none" stroke="rgb(179,179,179)" stroke-linejoin="round" d="M 1361,20650 L 1511,20650"/>
 <path fill="none" stroke="rgb(179,179,179)" stroke-linejoin="round" d="M 1361,18542 L 1511,18542"/>
 <path fill="none" stroke="rgb(179,179,179)" stroke-linejoin="round" d="M 1361,18542 L 1511,18542"/>
 <path fill="none" stroke="rgb(179,179,179)" stroke-linejoin="round" d="M 1361,16434 L 1511,16434"/>
 <path fill="none" stroke="rgb(179,179,179)" stroke-linejoin="round" d="M 1361,16434 L 1511,16434"/>
 <path fill="none" stroke="rgb(179,179,179)" stroke-linejoin="round" d="M 1361,14326 L 1511,14326"/>
 <path fill="none" stroke="rgb(179,179,179)" stroke-linejoin="round" d="M 1361,14326 L 1511,14326"/>
 <path fill="none" stroke="rgb(179,179,179)" stroke-linejoin="round" d="M 1361,12219 L 1511,12219"/>
 <path fill="none" stroke="rgb(179,179,179)" stroke-linejoin="round" d="M 1361,12219 L 1511,12219"/>
 <path fill="none" stroke="rgb(179,179,179)" stroke-linejoin="round" d="M 1361,10111 L 1511,10111"/>
 <path fill="none" stroke="rgb(179,179,179)" stroke-linejoin="round" d="M 1361,10111 L 1511,10111"/>
 <path fill="none" stroke="rgb(179,179,179)" stroke-linejoin="round" d="M 1361,8003 L 1511,8003"/>
 <path fill="none" stroke="rgb(179,179,179)" stroke-linejoin="round" d="M 1361,8003 L 1511,8003"/>
 <path fill="none" stroke="rgb(179,179,179)" stroke-linejoin="round" d="M 1361,5895 L 1511,5895"/>
 <path fill="none" stroke="rgb(179,179,179)" stroke-linejoin="round" d="M 1361,5895 L 1511,5895"/>
 <path fill="none" stroke="rgb(179,179,179)" stroke-linejoin="round" d="M 1361,3787 L 1511,3787"/>
 <path fill="none" stroke="rgb(179,179,179)" stroke-linejoin="round" d="M 1361,3787 L 1511,3787"/>
 <path fill="none" stroke="rgb(179,179,179)" stroke-linejoin="round" d="M 1361,1680 L 1511,1680"/>
 <path fill="none" stroke="rgb(179,179,179)" stroke-linejoin="round" d="M 1361,1680 L 1511,1680"/>
 <path fill="none" stroke="rgb(179,179,179)" stroke-linejoin="round" d="M 1511,22758 L 1511,1680"/>
 <path fill="none" stroke="rgb(112,110,12)" stroke-width="80" stroke-linejoin="round" stroke-dasharray="80,40" d="M 1568,22739 L 1683,22730 1798,22730 1913,22714 2027,22687 2142,22622 2257,22503 2372,22383 2487,22234 2602,22053 2717,21826 2831,21612 2946,21382 3061,21068 3176,20756 3291,20420 3406,20097 3521,19784 3635,19375 3750,19013 3865,18631 3980,18164 4095,17680 4210,17264 4325,16878 4439,16518 4554,16019 4669,15541 4784,15070 4899,14683 5014,14326 5129,14026 5243,13702 5358,13192 5473,12780 5588,12473 5703,12166 5818,11902 5933,11678 6047,11450 6162,11240 6277,11007 6392,10644 6507,10173 6622,9910 6737,9734 6851,9595 6966,9391 7081,9182 7196,9006 7311,8798 7426,8645 7541,8531 7656,8431 7770,8307 7885,8151 8000,8020 8115,7899 8230,7798 8345,7724 8460,7660 8574,7563 8689,7456 8804,7333 8919,7225 9034,7141 9149,7085 9264,7020 9378,6952 9493,6858 9608,6783 9723,6704 9838,6633 9953,6577 10068,6529 10182,6479 10297,6400 10412,6331 10527,6270 10642,6220 10757,6178 10872,6119 10986,6072 11101,6025 11216,5977 11331,5928 11446,5893 11561,5862 11676,5831 11790,5801 11904,5768 12019,5732 12134,5691 12249,5660 12364,5632 12479,5604 12593,5579 12708,5551 12823,5516 12938,5484 13053,5454 13168,5430 13283,5403 13398,5377 13512,5344 13627,5308 13742,5276 13857,5249 13972,5232 14087,5208 14202,5180 14316,5141 14431,5100 14546,5068 14661,5044 14776,5021 14891,4995 15006,4964 15120,4938 15235,4903 15350,4870 15465,4840 15580,4815 15695,4775 15810,4737 15924,4703 16039,4669 16154,4635 16269,4613 16384,4589 16499,4551 16614,4520 16728,4484 16843,4450 16958,4417 17073,4393 17188,4366 17303,4342 17418,4310 17532,4275 17647,4246 17762,4213 17877,4189 17992,4165 18107,4132 18222,4103 18336,4072 18451,4040 18566,4009 18681,3986"/>
 <path fill="none" stroke="rgb(141,40,30)" stroke-width="80" stroke-linejoin="round" stroke-dasharray="80,40" d="M 1568,22751 L 1683,22748 1798,22748 1913,22744 2027,22738 2142,22729 2257,22712 2372,22695 2487,22675 2602,22650 2717,22618 2831,22585 2946,22547 3061,22490 3176,22432 3291,22369 3406,22308 3521,22239 3635,22157 3750,22075 3865,21979 3980,21877 4095,21771 4210,21683 4325,21588 4439,21490 4554,21389 4669,21279 4784,21172 4899,21076 5014,20985 5129,20905 5243,20819 5358,20726 5473,20626 5588,20522 5703,20432 5818,20349 5933,20262 6047,20181 6162,20091 6277,19982 6392,19867 6507,19762 6622,19674 6737,19602 6851,19524 6966,19436 7081,19342 7196,19233 7311,19140 7426,19059 7541,18987 7656,18910 7770,18830 7885,18741 8000,18654 8115,18573 8230,18510 8345,18450 8460,18379 8574,18312 8689,18224 8804,18144 8919,18064 9034,18003 9149,17934 9264,17869 9378,17793 9493,17712 9608,17635 9723,17566 9838,17500 9953,17439 10068,17379 10182,17321 10297,17248 10412,17170 10527,17092 10642,17029 10757,16974 10872,16907 10986,16844 11101,16776 11216,16695 11331,16623 11446,16566 11561,16511 11676,16453 11790,16387 11904,16314 12019,16233 12134,16152 12249,16089 12364,16026 12479,15951 12593,15869 12708,15781 12823,15681 12938,15576 13053,15492 13168,15395 13283,15283 13398,15172 13512,15045 13627,14901 13742,14765 13857,14638 13972,14509 14087,14363 14202,14200 14316,14027 14431,13857 14546,13711 14661,13552 14776,13409 14891,13218 15006,13031 15120,12830 15235,12614 15350,12423 15465,12235 15580,12047 15695,11832 15810,11618 15924,11372 16039,11144 16154,10941 16269,10744 16384,10548 16499,10343 16614,10117 16728,9898 16843,9664 16958,9452 17073,9277 17188,9098 17303,8888 17418,8662 17532,8446 17647,8232 17762,8046 17877,7895 17992,7750 18107,7567 18222,7399 18336,7209 18451,7023 18566,6845 18681,6695"/>
 <path fill="none" stroke="rgb(255,64,0)" stroke-width="80" stroke-linejoin="round" stroke-dasharray="80,40" d="M 1568,22757 L 1683,22757 1798,22757 1913,22757 2027,22756 2142,22756 2257,22754 2372,22754 2487,22752 2602,22750 2717,22748 2831,22746 2946,22745 3061,22743 3176,22741 3291,22738 3406,22736 3521,22735 3635,22729 3750,22724 3865,22718 3980,22713 4095,22706 4210,22702 4325,22697 4439,22688 4554,22677 4669,22668 4784,22660 4899,22655 5014,22647 5129,22641 5243,22632 5358,22617 5473,22607 5588,22590 5703,22576 5818,22566 5933,22555 6047,22544 6162,22530 6277,22509 6392,22489 6507,22463 6622,22444 6737,22423 6851,22394 6966,22362 7081,22325 7196,22300 7311,22276 7426,22252 7541,22219 7656,22185 7770,22129 7885,22084 8000,22029 8115,21983 8230,21950 8345,21916 8460,21873 8574,21814 8689,21750 8804,21665 8919,21599 9034,21561 9149,21491 9264,21409 9378,21311 9493,21219 9608,21116 9723,21034 9838,20956 9953,20898 10068,20817 10182,20714 10297,20583 10412,20450 10527,20285 10642,20203 10757,20146 10872,20002 10986,19860 11101,19707 11216,19554 11331,19419 11446,19326 11561,19248 11676,19089 11790,18925 11904,18775 12019,18646 12134,18538 12249,18453 12364,18351 12479,18177 12593,18018 12708,17905 12823,17633 12938,17461 13053,17383 13168,17268 13283,17073 13398,16861 13512,16665 13627,16432 13742,16240 13857,16089 13972,15970 14087,15802 14202,15570 14316,15331 14431,15122 14546,14934 14661,14805 14776,14704 14891,14479 15006,14258 15120,14047 15235,13823 15350,13630 15465,13507 15580,13406 15695,13198 15810,13000 15924,12775 16039,12605 16154,12465 16269,12348 16384,12248 16499,12044 16614,11708 16728,11410 16843,11133 16958,10879 17073,10757 17188,10642 17303,10439 17418,10096 17532,9809 17647,9550 17762,9324 17877,9196 17992,9114 18107,8858 18222,8574 18336,8311 18451,8061 18566,7814 18681,7699"/>
 <path fill="none" stroke="rgb(241,13,12)" stroke-width="80" stroke-linejoin="round" d="M 1568,22673 L 1683,22657 1798,22651 1913,22642 2027,22633 2142,22624 2257,22607 2372,22586 2487,22574 2602,22556 2717,22544 2831,22519 2946,22494 3061,22461 3176,22437 3291,22398 3406,22371 3521,22337 3635,22295 3750,22241 3865,22176 3980,22118 4095,22085 4210,22045 4325,22005 4439,21955 4554,21879 4669,21804 4784,21747 4899,21698 5014,21664 5129,21615 5243,21563 5358,21513 5473,21449 5588,21378 5703,21315 5818,21256 5933,21215 6047,21159 6162,21087 6277,21009 6392,20924 6507,20861 6622,20812 6737,20782 6851,20710 6966,20639 7081,20556 7196,20512 7311,20453 7426,20429 7541,20386 7656,20335 7770,20261 7885,20188 8000,20121 8115,20052 8230,20011 8345,19974 8460,19911 8574,19845 8689,19775 8804,19709 8919,19660 9034,19612 9149,19587 9264,19543 9378,19468 9493,19400 9608,19334 9723,19294 9838,19266 9953,19226 10068,19163 10182,19096 10297,19029 10412,18951 10527,18884 10642,18840 10757,18811 10872,18730 10986,18499 11101,18387 11216,18276 11331,18177 11446,18090 11561,18047 11676,17965 11790,17872 11904,17718 12019,17573 12134,17442 12249,17371 12364,17291 12479,17193 12593,17063 12708,16909 12823,16697 12938,16643 13053,16616 13168,16607 13283,16409 13398,16253 13512,16090 13627,15960 13742,15960 13857,15960 13972,15696 14087,15614 14202,15485 14316,15386 14431,15304 14546,15304 14661,15304 14776,15133 14891,15103 15006,15050 15120,15000 15235,14941 15350,14941 15465,14941 15580,14844 15695,14826 15810,14775 15924,14735 16039,14693 16154,14693 16269,14693 16384,14612 16499,14600 16614,14565 16728,14538 16843,14513 16958,14513 17073,14513 17188,14472 17303,14462 17418,14432 17532,14398 17647,14365 17762,14365 17877,14365 17992,14303 18107,14286 18222,14248 18336,14203 18451,14166 18566,14166 18681,14166"/>
 <path fill="none" stroke="rgb(128,0,128)" stroke-width="80" stroke-linejoin="round" d="M 1568,22640 L 1683,22613 1798,22582 1913,22533 2027,22493 2142,22444 2257,22353 2372,22297 2487,22186 2602,22109 2717,21965 2831,21858 2946,21641 3061,21455 3176,21276 3291,21107 3406,20952 3521,20775 3635,20595 3750,20410 3865,20231 3980,20071 4095,19913 4210,19790 4325,19677 4439,19558 4554,19416 4669,19304 4784,19190 4899,19083 5014,18997 5129,18923 5243,18868 5358,18753 5473,18588 5588,18456 5703,18436 5818,18279 5933,18244 6047,18155 6162,18060 6277,17955 6392,18182 6507,18116 6622,18077 6737,18036 6851,18006 6966,17958 7081,17946 7196,17906 7311,17875 7426,17855 7541,17843 7656,17813 7770,17791 7885,17766 8000,17734 8115,17718 8230,17700 8345,17631 8460,17617 8574,17602 8689,17583 8804,17569 8919,17557 9034,17557 9149,17537 9264,17527 9378,17515 9493,17504 9608,17464 9723,17454 9838,17443 9953,17451 10068,17432 10182,17432 10297,17395 10412,17380 10527,17365 10642,17359 10757,17356 10872,17349 10986,17340 11101,17333 11216,17325 11331,17318 11446,17312 11561,17309 11676,17303 11790,17296 11904,17286 12019,17275 12134,17266 12249,17259 12364,17255 12479,17250 12593,17242 12708,17229 12823,17222 12938,17214 13053,17206 13168,17201 13283,17195 13398,17188 13512,17179 13627,17169 13742,17156 13857,17150 13972,17145 14087,17138 14202,17130 14316,17120 14431,17110 14546,17110 14661,17110 14776,17082 14891,17074 15006,17065 15120,17053 15235,17034 15350,17034 15465,17034 15580,16988 15695,16973 15810,16953 15924,16922 16039,16891 16154,16891 16269,16891 16384,16788 16499,16757 16614,16726 16728,16667 16843,16617 16958,16617 17073,16617 17188,16473 17303,16432 17418,16386 17532,16323 17647,16254 17762,16254 17877,16254 17992,16061 18107,15931 18222,15865 18336,15773 18451,15671 18566,15671 18681,15671"/>
 <path fill="none" stroke="rgb(255,128,0)" stroke-width="80" stroke-linejoin="round" d="M 1568,22723 L 1683,22717 1798,22710 1913,22701 2027,22689 2142,22673 2257,22657 2372,22637 2487,22619 2602,22597 2717,22561 2831,22524 2946,22483 3061,22434 3176,22384 3291,22340 3406,22296 3521,22229 3635,22159 3750,22083 3865,22007 3980,21930 4095,21867 4210,21811 4325,21729 4439,21645 4554,21565 4669,21489 4784,21422 4899,21366 5014,21312 5129,21247 5243,21180 5358,21102 5473,21019 5588,20942 5703,20869 5818,20810 5933,20735 6047,20661 6162,20576 6277,20497 6392,20420 6507,20362 6622,20309 6737,20236 6851,20163 6966,20079 7081,20003 7196,19930 7311,19880 7426,19834 7541,19782 7656,19725 7770,19666 7885,19608 8000,19561 8115,19528 8230,19492 8345,19437 8460,19384 8574,19334 8689,19293 8804,19254 8919,19222 9034,19194 9149,19155 9264,19107 9378,19066 9493,19026 9608,18995 9723,18972 9838,18951 9953,18926 10068,18900 10182,18872 10297,18846 10412,18822 10527,18805 10642,18789 10757,18767 10872,18744 10986,18723 11101,18704 11216,18687 11331,18675 11446,18664 11561,18647 11676,18629 11790,18611 11904,18595 12019,18579 12134,18565 12249,18553 12364,18537 12479,18520 12593,18505 12708,18489 12823,18474 12938,18464 13053,18454 13168,18440 13283,18427 13398,18415 13512,18404 13627,18394 13742,18384 13857,18378 13972,18369 14087,18362 14202,18361 14316,18361 14431,18354 14546,18344 14661,18336 14776,18330 14891,18321 15006,18312 15120,18302 15235,18294 15350,18281 15465,18271 15580,18263 15695,18244 15810,18235 15924,18225 16039,18215 16154,18202 16269,18191 16384,18182 16499,18175 16614,18166 16728,18154 16843,18142 16958,18130 17073,18119 17188,18108 17303,18100 17418,18087 17532,18074 17647,18061 17762,18049 17877,18037 17992,18023 18107,18012 18222,17999 18336,17984 18451,17970 18566,17958 18681,17941"/>
 <path fill="none" stroke="rgb(129,212,26)" stroke-width="80" stroke-linejoin="round" d="M 1568,22619 L 1683,22592 1798,22490 1913,22490 2027,22429 2142,22389 2257,22261 2372,22113 2487,21957 2602,21847 2717,21686 2831,21555 2946,21430 3061,21319 3176,21183 3291,21043 3406,20952 3521,20819 3635,20735 3750,20594 3865,20465 3980,20370 4095,20260 4210,20188 4325,20120 4439,20048 4554,19922 4669,19829 4784,19768 4899,19700 5014,19662 5129,19629 5243,19599 5358,19550 5473,19502 5588,19460 5703,19420 5818,19379 5933,19355 6047,19340 6162,19315 6277,19287 6392,19265 6507,19239 6622,19218 6737,19206 6851,19194 6966,19176 7081,19155 7196,19140 7311,19126 7426,19116 7541,19106 7656,19103 7770,19097 7885,19089 8000,19079 8115,19074 8230,19067 8345,19062 8460,19058 8574,19054 8689,19048 8804,19042 8919,19034 9034,19033 9149,19031 9264,19029 9378,19024 9493,19020 9608,19018 9723,19016 9838,19015 9953,19013 10068,19011 10182,19010 10297,19007 10412,19003 10527,19001 10642,18999 10757,18998 10872,18998 10986,18995 11101,18993 11216,18990 11331,18988 11446,18987 11561,18986 11676,18984 11790,18981 11904,18977 12019,18975 12134,18971 12249,18968 12364,18966 12479,18964 12593,18960 12708,18958 12823,18954 12938,18953 13053,18947 13168,18945 13283,18942 13398,18937 13512,18930 13627,18923 13742,18915 13857,18907 13972,18903 14087,18895 14202,18879 14316,18865 14431,18848 14546,18836 14661,18828 14776,18822 14891,18816 15006,18800 15120,18789 15235,18777 15350,18761 15465,18753 15580,18745 15695,18737 15810,18721 15924,18703 16039,18692 16154,18679 16269,18667 16384,18662 16499,18648 16614,18631 16728,18617 16843,18598 16958,18580 17073,18567 17188,18559 17303,18543 17418,18519 17532,18493 17647,18467 17762,18445 17877,18428 17992,18420 18107,18404 18222,18382 18336,18360 18451,18341 18566,18319 18681,18300"/>
 <path fill="none" stroke="rgb(131,202,255)" stroke-width="80" stroke-linejoin="round" d="M 1568,22450 L 1683,22389 1798,22326 1913,22270 2027,22208 2142,22135 2257,22042 2372,21938 2487,21824 2602,21727 2717,21643 2831,21552 2946,21461 3061,21353 3176,21250 3291,21146 3406,21055 3521,20984 3635,20913 3750,20830 3865,20749 3980,20669 4095,20585 4210,20510 4325,20447 4439,20394 4554,20327 4669,20254 4784,20185 4899,20103 5014,20032 5129,19977 5243,19925 5358,19879 5473,19813 5588,19752 5703,19691 5818,19638 5933,19598 6047,19551 6162,19492 6277,19446 6392,19393 6507,19352 6622,19312 6737,19281 6851,19245 6966,19209 7081,19176 7196,19142 7311,19109 7426,19084 7541,19063 7656,19044 7770,19019 7885,18995 8000,18972 8115,18953 8230,18939 8345,18926 8460,18901 8574,18886 8689,18869 8804,18855 8919,18840 9034,18828 9149,18820 9264,18806 9378,18794 9493,18783 9608,18772 9723,18760 9838,18751 9953,18745 10068,18739 10182,18728 10297,18718 10412,18709 10527,18702 10642,18696 10757,18692 10872,18687 10986,18681 11101,18678 11216,18669 11331,18665 11446,18661 11561,18656 11676,18651 11790,18648 11904,18641 12019,18638 12134,18632 12249,18626 12364,18621 12479,18617 12593,18612 12708,18606 12823,18609 12938,18604 13053,18600 13168,18596 13283,18594 13398,18584 13512,18579 13627,18575 13742,18572 13857,18568 13972,18566 14087,18564 14202,18561 14316,18557 14431,18553 14546,18549 14661,18546 14776,18542 14891,18540 15006,18536 15120,18533 15235,18528 15350,18525 15465,18521 15580,18518 15695,18516 15810,18513 15924,18509 16039,18505 16154,18500 16269,18497 16384,18493 16499,18491 16614,18486 16728,18481 16843,18476 16958,18472 17073,18467 17188,18464 17303,18461 17418,18456 17532,18449 17647,18443 17762,18437 17877,18433 17992,18430 18107,18427 18222,18420 18336,18413 18451,18404 18566,18398 18681,18390"/>
 <path fill="none" stroke="rgb(34,75,18)" stroke-width="80" stroke-linejoin="round" stroke-dasharray="51,127,51,127,254,127,254,127,254,127" d="M 1568,22653 L 1683,22631 1798,22609 1913,22578 2027,22549 2142,22512 2257,22462 2372,22410 2487,22355 2602,22305 2717,22237 2831,22176 2946,22098 3061,22006 3176,21916 3291,21822 3406,21748 3521,21670 3635,21581 3750,21493 3865,21410 3980,21323 4095,21243 4210,21181 4325,21120 4439,21055 4554,20980 4669,20907 4784,20831 4899,20768 5014,20638 5129,20588 5243,20541 5358,20479 5473,20383 5588,20323 5703,20289 5818,20224 5933,20188 6047,20144 6162,20108 6277,20058 6392,20054 6507,20017 6622,19989 6737,19957 6851,19926 6966,19908 7081,19885 7196,19863 7311,19841 7426,19825 7541,19811 7656,19792 7770,19764 7885,19741 8000,19718 8115,19702 8230,19689 8345,19670 8460,19654 8574,19642 8689,19626 8804,19612 8919,19602 9034,19593 9149,19584 9264,19570 9378,19558 9493,19547 9608,19531 9723,19521 9838,19514 9953,19509 10068,19500 10182,19492 10297,19468 10412,19456 10527,19442 10642,19435 10757,19429 10872,19425 10986,19412 11101,19402 11216,19390 11331,19379 11446,19371 11561,19365 11676,19356 11790,19348 11904,19337 12019,19324 12134,19314 12249,19306 12364,19300 12479,19291 12593,19280 12708,19266 12823,19253 12938,19244 13053,19238 13168,19232 13283,19219 13398,19208 13512,19198 13627,19182 13742,19177 13857,19175 13972,19157 14087,19149 14202,19137 14316,19126 14431,19117 14546,19112 14661,19108 14776,19091 14891,19085 15006,19078 15120,19067 15235,19057 15350,19052 15465,19048 15580,19031 15695,19025 15810,19014 15924,19001 16039,18987 16154,18982 16269,18978 16384,18950 16499,18940 16614,18926 16728,18908 16843,18891 16958,18884 17073,18879 17188,18845 17303,18832 17418,18817 17532,18793 17647,18766 17762,18758 17877,18752 17992,18717 18107,18682 18222,18662 18336,18628 18451,18589 18566,18580 18681,18571"/>
 <path fill="none" stroke="rgb(0,169,51)" stroke-width="80" stroke-linejoin="round" stroke-dasharray="80,40" d="M 1568,22757 L 1683,22757 1798,22757 1913,22757 2027,22757 2142,22757 2257,22756 2372,22756 2487,22755 2602,22755 2717,22754 2831,22754 2946,22754 3061,22753 3176,22752 3291,22751 3406,22749 3521,22749 3635,22748 3750,22746 3865,22745 3980,22744 4095,22742 4210,22740 4325,22738 4439,22735 4554,22731 4669,22729 4784,22726 4899,22723 5014,22719 5129,22717 5243,22713 5358,22710 5473,22706 5588,22701 5703,22696 5818,22690 5933,22686 6047,22680 6162,22671 6277,22662 6392,22652 6507,22644 6622,22638 6737,22631 6851,22621 6966,22612 7081,22600 7196,22588 7311,22577 7426,22566 7541,22554 7656,22545 7770,22532 7885,22515 8000,22500 8115,22484 8230,22471 8345,22461 8460,22444 8574,22429 8689,22409 8804,22389 8919,22372 9034,22355 9149,22335 9264,22313 9378,22295 9493,22271 9608,22246 9723,22219 9838,22197 9953,22176 10068,22148 10182,22120 10297,22092 10412,22066 10527,22042 10642,22016 10757,21994 10872,21962 10986,21930 11101,21894 11216,21858 11331,21829 11446,21800 11561,21776 11676,21741 11790,21701 11904,21662 12019,21620 12134,21591 12249,21557 12364,21529 12479,21492 12593,21451 12708,21405 12823,21364 12938,21325 13053,21282 13168,21244 13283,21193 13398,21148 13512,21098 13627,21054 13742,21018 13857,20985 13972,20954 14087,20909 14202,20863 14316,20808 14431,20753 14546,20696 14661,20658 14776,20618 14891,20567 15006,20510 15120,20450 15235,20394 15350,20344 15465,20307 15580,20269 15695,20211 15810,20161 15924,20109 16039,20049 16154,19987 16269,19944 16384,19901 16499,19845 16614,19796 16728,19727 16843,19665 16958,19610 17073,19565 17188,19525 17303,19466 17418,19419 17532,19355 17647,19286 17762,19208 17877,19169 17992,19130 18107,19079 18222,19029 18336,18975 18451,18920 18566,18867 18681,18832"/>
 <path fill="none" stroke="rgb(0,0,255)" stroke-width="80" stroke-linejoin="round" stroke-dasharray="51,127,51,127,254,127,254,127,254,127" d="M 1568,22675 L 1683,22658 1798,22640 1913,22616 2027,22593 2142,22564 2257,22524 2372,22483 2487,22439 2602,22399 2717,22346 2831,22298 2946,22235 3061,22162 3176,22090 3291,22015 3406,21956 3521,21894 3635,21822 3750,21752 3865,21685 3980,21614 4095,21550 4210,21499 4325,21450 4439,21397 4554,21336 4669,21276 4784,21214 4899,21163 5014,21061 5129,21020 5243,20982 5358,20932 5473,20854 5588,20805 5703,20776 5818,20723 5933,20693 6047,20657 6162,20627 6277,20585 6392,20580 6507,20550 6622,20525 6737,20499 6851,20474 6966,20458 7081,20437 7196,20419 7311,20400 7426,20386 7541,20373 7656,20357 7770,20333 7885,20314 8000,20294 8115,20279 8230,20268 8345,20251 8460,20237 8574,20226 8689,20212 8804,20200 8919,20190 9034,20182 9149,20174 9264,20161 9378,20149 9493,20139 9608,20125 9723,20116 9838,20109 9953,20103 10068,20095 10182,20087 10297,20068 10412,20056 10527,20044 10642,20038 10757,20032 10872,20028 10986,20017 11101,20007 11216,19996 11331,19986 11446,19977 11561,19970 11676,19962 11790,19954 11904,19944 12019,19932 12134,19922 12249,19915 12364,19908 12479,19899 12593,19889 12708,19875 12823,19863 12938,19855 13053,19848 13168,19842 13283,19830 13398,19819 13512,19809 13627,19794 13742,19787 13857,19783 13972,19768 14087,19759 14202,19747 14316,19736 14431,19726 14546,19720 14661,19715 14776,19700 14891,19693 15006,19685 15120,19673 15235,19661 15350,19654 15465,19648 15580,19633 15695,19625 15810,19613 15924,19599 16039,19584 16154,19576 16269,19570 16384,19546 16499,19533 16614,19517 16728,19498 16843,19479 16958,19468 17073,19459 17188,19429 17303,19414 17418,19396 17532,19372 17647,19344 17762,19333 17877,19324 17992,19292 18107,19259 18222,19237 18336,19205 18451,19168 18566,19154 18681,19143"/>
 <path fill="none" stroke="rgb(85,48,141)" stroke-width="80" stroke-linejoin="round" stroke-dasharray="80,40" d="M 1568,22752 L 1683,22752 1798,22750 1913,22746 2027,22744 2142,22739 2257,22735 2372,22731 2487,22722 2602,22716 2717,22699 2831,22680 2946,22667 3061,22645 3176,22627 3291,22602 3406,22582 3521,22551 3635,22519 3750,22491 3865,22442 3980,22410 4095,22395 4210,22318 4325,22295 4439,22258 4554,22223 4669,22181 4784,22142 4899,22106 5014,22079 5129,22040 5243,22003 5358,21970 5473,21897 5588,21841 5703,21798 5818,21762 5933,21706 6047,21657 6162,21594 6277,21548 6392,21503 6507,21463 6622,21416 6737,21372 6851,21329 6966,21281 7081,21237 7196,21184 7311,21140 7426,21068 7541,21027 7656,20992 7770,20951 7885,20909 8000,20868 8115,20833 8230,20800 8345,20767 8460,20735 8574,20703 8689,20669 8804,20636 8919,20602 9034,20570 9149,20540 9264,20510 9378,20480 9493,20447 9608,20413 9723,20380 9838,20353 9953,20325 10068,20298 10182,20272 10297,20245 10412,20219 10527,20197 10642,20175 10757,20152 10872,20134 10986,20115 11101,20097 11216,20078 11331,20063 11446,20044 11561,20027 11676,20014 11790,20001 11904,19988 12019,19976 12134,19964 12249,19954 12364,19944 12479,19935 12593,19923 12708,19913 12823,19900 12938,19888 13053,19879 13168,19870 13283,19860 13398,19851 13512,19840 13627,19836 13742,19829 13857,19820 13972,19802 14087,19795 14202,19789 14316,19779 14431,19771 14546,19764 14661,19759 14776,19747 14891,19741 15006,19732 15120,19723 15235,19714 15350,19709 15465,19704 15580,19686 15695,19676 15810,19666 15924,19654 16039,19642 16154,19633 16269,19625 16384,19604 16499,19589 16614,19580 16728,19563 16843,19543 16958,19533 17073,19524 17188,19505 17303,19494 17418,19480 17532,19471 17647,19455 17762,19448 17877,19441 17992,19435 18107,19416 18222,19406 18336,19396 18451,19381 18566,19374 18681,19368"/>
 <path fill="none" stroke="rgb(52,42,6)" stroke-width="80" stroke-linejoin="round" d="M 1568,22711 L 1683,22700 1798,22685 1913,22666 2027,22641 2142,22602 2257,22565 2372,22508 2487,22478 2602,22445 2717,22392 2831,22343 2946,22288 3061,22205 3176,22118 3291,22032 3406,21976 3521,21916 3635,21854 3750,21778 3865,21691 3980,21611 4095,21549 4210,21498 4325,21457 4439,21403 4554,21332 4669,21271 4784,21221 4899,21186 5014,21149 5129,21121 5243,21105 5358,21062 5473,21025 5588,20979 5703,20954 5818,20931 5933,20908 6047,20892 6162,20862 6277,20831 6392,20808 6507,20789 6622,20773 6737,20760 6851,20746 6966,20725 7081,20707 7196,20694 7311,20682 7426,20674 7541,20667 7656,20657 7770,20642 7885,20626 8000,20612 8115,20602 8230,20595 8345,20587 8460,20579 8574,20567 8689,20563 8804,20553 8919,20547 9034,20539 9149,20537 9264,20521 9378,20512 9493,20506 9608,20497 9723,20493 9838,20489 9953,20486 10068,20478 10182,20474 10297,20466 10412,20456 10527,20453 10642,20450 10757,20448 10872,20444 10986,20441 11101,20437 11216,20431 11331,20425 11446,20421 11561,20416 11676,20411 11790,20411 11904,20409 12019,20402 12134,20402 12249,20399 12364,20397 12479,20389 12593,20385 12708,20370 12823,20364 12938,20359 13053,20351 13168,20345 13283,20336 13398,20331 13512,20325 13627,20317 13742,20311 13857,20308 13972,20304 14087,20299 14202,20293 14316,20287 14431,20282 14546,20277 14661,20273 14776,20266 14891,20262 15006,20258 15120,20254 15235,20250 15350,20245 15465,20243 15580,20239 15695,20236 15810,20230 15924,20223 16039,20216 16154,20211 16269,20207 16384,20200 16499,20195 16614,20188 16728,20180 16843,20171 16958,20163 17073,20158 17188,20152 17303,20145 17418,20134 17532,20122 17647,20111 17762,20103 17877,20100 17992,20089 18107,20080 18222,20064 18336,20052 18451,20038 18566,20029 18681,20024"/>
 <path fill="none" stroke="rgb(21,132,102)" stroke-width="80" stroke-linejoin="round" stroke-dasharray="80,203,80,203,203,203" d="M 1568,22738 L 1683,22736 1798,22735 1913,22733 2027,22731 2142,22728 2257,22724 2372,22720 2487,22716 2602,22711 2717,22705 2831,22700 2946,22693 3061,22685 3176,22676 3291,22667 3406,22659 3521,22650 3635,22639 3750,22629 3865,22618 3980,22607 4095,22596 4210,22586 4325,22576 4439,22566 4554,22555 4669,22543 4784,22531 4899,22521 5014,22508 5129,22498 5243,22489 5358,22478 5473,22465 5588,22453 5703,22443 5818,22432 5933,22422 6047,22412 6162,22401 6277,22389 6392,22378 6507,22366 6622,22356 6737,22347 6851,22337 6966,22326 7081,22315 7196,22303 7311,22292 7426,22282 7541,22271 7656,22261 7770,22248 7885,22236 8000,22224 8115,22212 8230,22202 8345,22192 8460,22180 8574,22169 8689,22156 8804,22143 8919,22130 9034,22119 9149,22107 9264,22094 9378,22080 9493,22066 9608,22051 9723,22037 9838,22024 9953,22013 10068,22000 10182,21986 10297,21970 10412,21954 10527,21935 10642,21920 10757,21907 10872,21891 10986,21875 11101,21858 11216,21840 11331,21822 11446,21806 11561,21793 11676,21776 11790,21758 11904,21739 12019,21722 12134,21703 12249,21685 12364,21669 12479,21650 12593,21631 12708,21612 12823,21587 12938,21566 13053,21548 13168,21530 13283,21507 13398,21484 13512,21460 13627,21434 13742,21410 13857,21388 13972,21367 14087,21343 14202,21314 14316,21286 14431,21258 14546,21232 14661,21207 14776,21185 14891,21156 15006,21127 15120,21097 15235,21065 15350,21036 15465,21010 15580,20984 15695,20954 15810,20922 15924,20888 16039,20856 16154,20823 16269,20794 16384,20766 16499,20735 16614,20697 16728,20658 16843,20620 16958,20586 17073,20557 17188,20526 17303,20492 17418,20453 17532,20415 17647,20376 17762,20342 17877,20311 17992,20284 18107,20249 18222,20212 18336,20173 18451,20135 18566,20100 18681,20070"/>
 <path fill="none" stroke="rgb(180,120,4)" stroke-width="80" stroke-linejoin="round" d="M 1568,22614 L 1683,22608 1798,22601 1913,22591 2027,22574 2142,22558 2257,22539 2372,22519 2487,22504 2602,22487 2717,22477 2831,22450 2946,22425 3061,22396 3176,22364 3291,22335 3406,22299 3521,22265 3635,22214 3750,22170 3865,22119 3980,22052 4095,21995 4210,21942 4325,21886 4439,21816 4554,21757 4669,21716 4784,21683 4899,21651 5014,21619 5129,21594 5243,21559 5358,21529 5473,21493 5588,21459 5703,21428 5818,21403 5933,21380 6047,21347 6162,21309 6277,21279 6392,21255 6507,21213 6622,21190 6737,21168 6851,21140 6966,21112 7081,21086 7196,21058 7311,21041 7426,21020 7541,20994 7656,20967 7770,20946 7885,20920 8000,20896 8115,20878 8230,20858 8345,20843 8460,20829 8574,20816 8689,20808 8804,20794 8919,20782 9034,20769 9149,20762 9264,20749 9378,20735 9493,20724 9608,20715 9723,20705 9838,20692 9953,20687 10068,20680 10182,20670 10297,20665 10412,20650 10527,20643 10642,20636 10757,20631 10872,20625 10986,20618 11101,20611 11216,20600 11331,20591 11446,20587 11561,20584 11676,20577 11790,20574 11904,20571 12019,20560 12134,20553 12249,20543 12364,20539 12479,20533 12593,20525 12708,20516 12823,20507 12938,20507 13053,20507 13168,20483 13283,20477 13398,20467 13512,20464 13627,20457 13742,20457 13857,20457 13972,20443 14087,20440 14202,20435 14316,20432 14431,20429 14546,20429 14661,20428 14776,20420 14891,20418 15006,20416 15120,20413 15235,20408 15350,20408 15465,20408 15580,20392 15695,20388 15810,20382 15924,20376 16039,20368 16154,20368 16269,20367 16384,20351 16499,20344 16614,20335 16728,20328 16843,20320 16958,20319 17073,20316 17188,20296 17303,20289 17418,20279 17532,20262 17647,20251 17762,20251 17877,20251 17992,20214 18107,20200 18222,20177 18336,20151 18451,20122 18566,20121 18681,20120"/>
 <path fill="none" stroke="rgb(0,169,51)" stroke-width="80" stroke-linejoin="round" d="M 1568,22699 L 1683,22681 1798,22657 1913,22638 2027,22602 2142,22565 2257,22522 2372,22478 2487,22428 2602,22338 2717,22234 2831,22139 2946,22104 3061,21949 3176,21861 3291,21790 3406,21729 3521,21632 3635,21566 3750,21504 3865,21455 3980,21409 4095,21379 4210,21347 4325,21318 4439,21278 4554,21243 4669,21208 4784,21171 4899,21142 5014,21126 5129,21114 5243,21093 5358,21080 5473,21063 5588,21050 5703,21041 5818,21032 5933,21026 6047,21017 6162,21011 6277,21002 6392,20994 6507,20985 6622,20976 6737,20970 6851,20960 6966,20955 7081,20949 7196,20940 7311,20937 7426,20932 7541,20929 7656,20926 7770,20922 7885,20914 8000,20912 8115,20905 8230,20900 8345,20899 8460,20890 8574,20885 8689,20878 8804,20872 8919,20862 9034,20857 9149,20854 9264,20848 9378,20844 9493,20838 9608,20834 9723,20828 9838,20826 9953,20822 10068,20820 10182,20816 10297,20812 10412,20808 10527,20805 10642,20800 10757,20799 10872,20796 10986,20795 11101,20791 11216,20786 11331,20780 11446,20780 11561,20772 11676,20771 11790,20768 11904,20764 12019,20761 12134,20759 12249,20755 12364,20752 12479,20746 12593,20744 12708,20742 12823,20736 12938,20730 13053,20728 13168,20724 13283,20720 13398,20716 13512,20712 13627,20707 13742,20700 13857,20692 13972,20684 14087,20678 14202,20666 14316,20658 14431,20645 14546,20632 14661,20618 14776,20608 14891,20602 15006,20591 15120,20579 15235,20568 15350,20559 15465,20546 15580,20540 15695,20532 15810,20516 15924,20502 16039,20483 16154,20467 16269,20457 16384,20447 16499,20437 16614,20425 16728,20405 16843,20392 16958,20377 17073,20362 17188,20352 17303,20338 17418,20318 17532,20305 17647,20285 17762,20275 17877,20264 17992,20255 18107,20244 18222,20234 18336,20219 18451,20202 18566,20192 18681,20179"/>
 <path fill="none" stroke="rgb(89,131,176)" stroke-width="80" stroke-linejoin="round" d="M 1568,22564 L 1683,22546 1798,22520 1913,22498 2027,22473 2142,22456 2257,22418 2372,22385 2487,22346 2602,22294 2717,22248 2831,22201 2946,22158 3061,22103 3176,22027 3291,21977 3406,21925 3521,21893 3635,21855 3750,21812 3865,21757 3980,21714 4095,21679 4210,21652 4325,21617 4439,21574 4554,21574 4669,21550 4784,21530 4899,21512 5014,21489 5129,21474 5243,21470 5358,21447 5473,21417 5588,21409 5703,21390 5818,21381 5933,21366 6047,21359 6162,21331 6277,21319 6392,21307 6507,21300 6622,21294 6737,21280 6851,21268 6966,21259 7081,21253 7196,21244 7311,21239 7426,21232 7541,21221 7656,21211 7770,21203 7885,21196 8000,21189 8115,21183 8230,21182 8345,21177 8460,21172 8574,21168 8689,21164 8804,21160 8919,21156 9034,21154 9149,21152 9264,21150 9378,21148 9493,21142 9608,21138 9723,21135 9838,21134 9953,21131 10068,21128 10182,21124 10297,21122 10412,21120 10527,21117 10642,21117 10757,21116 10872,21114 10986,21109 11101,21104 11216,21101 11331,21099 11446,21096 11561,21093 11676,21090 11790,21087 11904,21084 12019,21082 12134,21080 12249,21080 12364,21076 12479,21074 12593,21068 12708,21065 12823,21061 12938,21058 13053,21057 13168,21056 13283,21052 13398,21049 13512,21049 13627,21040 13742,21038 13857,21036 13972,21035 14087,21031 14202,21028 14316,21027 14431,21023 14546,21022 14661,21021 14776,21020 14891,21018 15006,21018 15120,21015 15235,21013 15350,21012 15465,21011 15580,21011 15695,21008 15810,21006 15924,21005 16039,21003 16154,21002 16269,21002 16384,21001 16499,20997 16614,20996 16728,20991 16843,20990 16958,20986 17073,20985 17188,20982 17303,20979 17418,20974 17532,20967 17647,20961 17762,20959 17877,20956 17992,20943 18107,20937 18222,20928 18336,20917 18451,20901 18566,20891 18681,20884"/>
 <path fill="none" stroke="rgb(255,191,0)" stroke-width="80" stroke-linejoin="round" d="M 1568,22744 L 1683,22739 1798,22733 1913,22728 2027,22719 2142,22712 2257,22689 2372,22676 2487,22660 2602,22647 2717,22636 2831,22620 2946,22595 3061,22568 3176,22533 3291,22499 3406,22480 3521,22462 3635,22432 3750,22412 3865,22378 3980,22355 4095,22317 4210,22306 4325,22283 4439,22264 4554,22235 4669,22209 4784,22193 4899,22184 5014,22168 5129,22161 5243,22156 5358,22146 5473,22124 5588,22113 5703,22107 5818,22094 5933,22078 6047,22065 6162,22056 6277,22050 6392,22042 6507,22034 6622,22029 6737,22025 6851,22019 6966,22012 7081,22001 7196,21996 7311,21994 7426,21992 7541,21988 7656,21980 7770,21973 7885,21967 8000,21963 8115,21961 8230,21958 8345,21953 8460,21948 8574,21944 8689,21936 8804,21930 8919,21925 9034,21923 9149,21912 9264,21906 9378,21899 9493,21896 9608,21890 9723,21883 9838,21876 9953,21872 10068,21867 10182,21863 10297,21858 10412,21852 10527,21849 10642,21845 10757,21842 10872,21836 10986,21829 11101,21823 11216,21820 11331,21816 11446,21810 11561,21803 11676,21798 11790,21791 11904,21788 12019,21779 12134,21774 12249,21771 12364,21767 12479,21762 12593,21757 12708,21746 12823,21733 12938,21729 13053,21724 13168,21722 13283,21709 13398,21697 13512,21688 13627,21671 13742,21646 13857,21616 13972,21596 14087,21581 14202,21572 14316,21559 14431,21545 14546,21533 14661,21526 14776,21521 14891,21509 15006,21496 15120,21486 15235,21478 15350,21467 15465,21461 15580,21455 15695,21445 15810,21431 15924,21418 16039,21405 16154,21394 16269,21385 16384,21370 16499,21348 16614,21324 16728,21301 16843,21273 16958,21260 17073,21249 17188,21230 17303,21203 17418,21174 17532,21146 17647,21126 17762,21114 17877,21104 17992,21084 18107,21056 18222,21032 18336,21012 18451,20980 18566,20963 18681,20951"/>
 <path fill="none" stroke="rgb(128,0,128)" stroke-width="80" stroke-linejoin="round" stroke-dasharray="158,158" d="M 1568,22757 L 1683,22757 1798,22757 1913,22757 2027,22757 2142,22757 2257,22757 2372,22757 2487,22757 2602,22757 2717,22757 2831,22757 2946,22757 3061,22757 3176,22757 3291,22757 3406,22757 3521,22757 3635,22756 3750,22756 3865,22756 3980,22756 4095,22755 4210,22755 4325,22754 4439,22753 4554,22753 4669,22752 4784,22752 4899,22751 5014,22750 5129,22750 5243,22749 5358,22748 5473,22747 5588,22747 5703,22745 5818,22744 5933,22743 6047,22742 6162,22741 6277,22740 6392,22739 6507,22737 6622,22736 6737,22735 6851,22734 6966,22732 7081,22731 7196,22729 7311,22727 7426,22725 7541,22722 7656,22720 7770,22717 7885,22714 8000,22712 8115,22710 8230,22706 8345,22703 8460,22701 8574,22698 8689,22695 8804,22692 8919,22688 9034,22684 9149,22681 9264,22676 9378,22672 9493,22667 9608,22662 9723,22657 9838,22652 9953,22647 10068,22642 10182,22637 10297,22631 10412,22625 10527,22619 10642,22612 10757,22606 10872,22599 10986,22592 11101,22584 11216,22577 11331,22569 11446,22561 11561,22554 11676,22547 11790,22539 11904,22530 12019,22522 12134,22512 12249,22504 12364,22495 12479,22487 12593,22477 12708,22467 12823,22456 12938,22444 13053,22433 13168,22421 13283,22409 13398,22396 13512,22383 13627,22369 13742,22354 13857,22339 13972,22325 14087,22310 14202,22296 14316,22280 14431,22262 14546,22243 14661,22225 14776,22208 14891,22190 15006,22171 15120,22151 15235,22131 15350,22109 15465,22087 15580,22065 15695,22043 15810,22018 15924,21991 16039,21964 16154,21934 16269,21903 16384,21875 16499,21846 16614,21811 16728,21774 16843,21736 16958,21699 17073,21661 17188,21627 17303,21588 17418,21549 17532,21509 17647,21462 17762,21420 17877,21380 17992,21340 18107,21300 18222,21257 18336,21209 18451,21162 18566,21113 18681,21066"/>
 <path fill="none" stroke="rgb(191,0,65)" stroke-width="80" stroke-linejoin="round" stroke-dasharray="51,127,51,127,254,127,254,127,254,127" d="M 1568,22751 L 1683,22748 1798,22746 1913,22743 2027,22740 2142,22737 2257,22732 2372,22727 2487,22721 2602,22715 2717,22709 2831,22701 2946,22692 3061,22683 3176,22671 3291,22659 3406,22647 3521,22637 3635,22626 3750,22615 3865,22601 3980,22585 4095,22570 4210,22558 4325,22548 4439,22534 4554,22520 4669,22505 4784,22491 4899,22477 5014,22466 5129,22458 5243,22449 5358,22438 5473,22423 5588,22409 5703,22398 5818,22384 5933,22376 6047,22366 6162,22354 6277,22342 6392,22330 6507,22322 6622,22312 6737,22303 6851,22296 6966,22285 7081,22277 7196,22269 7311,22263 7426,22254 7541,22245 7656,22236 7770,22227 7885,22218 8000,22210 8115,22202 8230,22194 8345,22187 8460,22178 8574,22171 8689,22162 8804,22155 8919,22147 9034,22141 9149,22134 9264,22127 9378,22119 9493,22111 9608,22103 9723,22096 9838,22089 9953,22082 10068,22075 10182,22069 10297,22062 10412,22055 10527,22049 10642,22044 10757,22038 10872,22034 10986,22028 11101,22020 11216,22013 11331,22004 11446,21995 11561,21986 11676,21978 11790,21971 11904,21964 12019,21955 12134,21946 12249,21938 12364,21932 12479,21923 12593,21913 12708,21903 12823,21894 12938,21886 13053,21878 13168,21871 13283,21863 13398,21854 13512,21842 13627,21831 13742,21820 13857,21810 13972,21801 14087,21790 14202,21780 14316,21767 14431,21755 14546,21743 14661,21734 14776,21726 14891,21716 15006,21702 15120,21687 15235,21672 15350,21657 15465,21646 15580,21636 15695,21622 15810,21607 15924,21590 16039,21572 16154,21555 16269,21540 16384,21526 16499,21505 16614,21483 16728,21460 16843,21437 16958,21413 17073,21393 17188,21374 17303,21350 17418,21325 17532,21297 17647,21270 17762,21246 17877,21226 17992,21207 18107,21180 18222,21153 18336,21124 18451,21094 18566,21066 18681,21044"/>
 <path fill="none" stroke="rgb(0,0,255)" stroke-width="80" stroke-linejoin="round" stroke-dasharray="158,158" d="M 1568,22593 L 1683,22591 1798,22590 1913,22588 2027,22586 2142,22585 2257,22581 2372,22580 2487,22577 2602,22573 2717,22573 2831,22572 2946,22570 3061,22568 3176,22566 3291,22563 3406,22561 3521,22559 3635,22556 3750,22554 3865,22552 3980,22551 4095,22549 4210,22547 4325,22546 4439,22545 4554,22544 4669,22543 4784,22543 4899,22542 5014,22541 5129,22541 5243,22540 5358,22540 5473,22539 5588,22539 5703,22539 5818,22538 5933,22538 6047,22538 6162,22538 6277,22537 6392,22537 6507,22537 6622,22537 6737,22536 6851,22536 6966,22536 7081,22536 7196,22536 7311,22536 7426,22535 7541,22535 7656,22535 7770,22535 7885,22535 8000,22535 8115,22534 8230,22533 8345,22533 8460,22532 8574,22532 8689,22531 8804,22531 8919,22530 9034,22530 9149,22530 9264,22529 9378,22529 9493,22528 9608,22528 9723,22527 9838,22527 9953,22527 10068,22526 10182,22524 10297,22523 10412,22522 10527,22522 10642,22521 10757,22520 10872,22519 10986,22518 11101,22518 11216,22517 11331,22515 11446,22515 11561,22514 11676,22513 11790,22512 11904,22511 12019,22510 12134,22509 12249,22508 12364,22508 12479,22507 12593,22506 12708,22505 12823,22503 12938,22502 13053,22502 13168,22501 13283,22500 13398,22499 13512,22498 13627,22497 13742,22496 13857,22495 13972,22494 14087,22493 14202,22492 14316,22491 14431,22490 14546,22488 14661,22487 14776,22487 14891,22485 15006,22484 15120,22483 15235,22483 15350,22482 15465,22480 15580,22480 15695,22479 15810,22478 15924,22476 16039,22476 16154,22475 16269,22474 16384,22473 16499,22472 16614,22471 16728,22470 16843,22468 16958,22467 17073,22466 17188,22466 17303,22465 17418,22464 17532,22463 17647,22463 17762,22462 17877,22462 17992,22461 18107,22460 18222,22459 18336,22459 18451,22458 18566,22457 18681,22457"/>
 <text class="TextShape" transform="rotate(-90 1694 23962)"><tspan class="TextParagraph" font-family="Liberation Sans, sans-serif" font-size="388px" font-weight="400"><tspan class="TextPosition" x="1694" y="23962"><tspan fill="rgb(0,0,0)" stroke="none">13.03</tspan></tspan></tspan></text>
 <text class="TextShape" transform="rotate(-90 2498 23962)"><tspan class="TextParagraph" font-family="Liberation Sans, sans-serif" font-size="388px" font-weight="400"><tspan class="TextPosition" x="2498" y="23962"><tspan fill="rgb(0,0,0)" stroke="none">20.03</tspan></tspan></tspan></text>
 <text class="TextShape" transform="rotate(-90 3302 23962)"><tspan class="TextParagraph" font-family="Liberation Sans, sans-serif" font-size="388px" font-weight="400"><tspan class="TextPosition" x="3302" y="23962"><tspan fill="rgb(0,0,0)" stroke="none">27.03</tspan></tspan></tspan></text>
 <text class="TextShape" transform="rotate(-90 4106 23962)"><tspan class="TextParagraph" font-family="Liberation Sans, sans-serif" font-size="388px" font-weight="400"><tspan class="TextPosition" x="4106" y="23962"><tspan fill="rgb(0,0,0)" stroke="none">03.04</tspan></tspan></tspan></text>
 <text class="TextShape" transform="rotate(-90 4910 23962)"><tspan class="TextParagraph" font-family="Liberation Sans, sans-serif" font-size="388px" font-weight="400"><tspan class="TextPosition" x="4910" y="23962"><tspan fill="rgb(0,0,0)" stroke="none">10.04</tspan></tspan></tspan></text>
 <text class="TextShape" transform="rotate(-90 5714 23962)"><tspan class="TextParagraph" font-family="Liberation Sans, sans-serif" font-size="388px" font-weight="400"><tspan class="TextPosition" x="5714" y="23962"><tspan fill="rgb(0,0,0)" stroke="none">17.04</tspan></tspan></tspan></text>
 <text class="TextShape" transform="rotate(-90 6518 23962)"><tspan class="TextParagraph" font-family="Liberation Sans, sans-serif" font-size="388px" font-weight="400"><tspan class="TextPosition" x="6518" y="23962"><tspan fill="rgb(0,0,0)" stroke="none">24.04</tspan></tspan></tspan></text>
 <text class="TextShape" transform="rotate(-90 7322 23962)"><tspan class="TextParagraph" font-family="Liberation Sans, sans-serif" font-size="388px" font-weight="400"><tspan class="TextPosition" x="7322" y="23962"><tspan fill="rgb(0,0,0)" stroke="none">01.05</tspan></tspan></tspan></text>
 <text class="TextShape" transform="rotate(-90 8126 23962)"><tspan class="TextParagraph" font-family="Liberation Sans, sans-serif" font-size="388px" font-weight="400"><tspan class="TextPosition" x="8126" y="23962"><tspan fill="rgb(0,0,0)" stroke="none">08.05</tspan></tspan></tspan></text>
 <text class="TextShape" transform="rotate(-90 8930 23962)"><tspan class="TextParagraph" font-family="Liberation Sans, sans-serif" font-size="388px" font-weight="400"><tspan class="TextPosition" x="8930" y="23962"><tspan fill="rgb(0,0,0)" stroke="none">15.05</tspan></tspan></tspan></text>
 <text class="TextShape" transform="rotate(-90 9734 23962)"><tspan class="TextParagraph" font-family="Liberation Sans, sans-serif" font-size="388px" font-weight="400"><tspan class="TextPosition" x="9734" y="23962"><tspan fill="rgb(0,0,0)" stroke="none">22.05</tspan></tspan></tspan></text>
 <text class="TextShape" transform="rotate(-90 10538 23962)"><tspan class="TextParagraph" font-family="Liberation Sans, sans-serif" font-size="388px" font-weight="400"><tspan class="TextPosition" x="10538" y="23962"><tspan fill="rgb(0,0,0)" stroke="none">29.05</tspan></tspan></tspan></text>
 <text class="TextShape" transform="rotate(-90 11342 23962)"><tspan class="TextParagraph" font-family="Liberation Sans, sans-serif" font-size="388px" font-weight="400"><tspan class="TextPosition" x="11342" y="23962"><tspan fill="rgb(0,0,0)" stroke="none">05.06</tspan></tspan></tspan></text>
 <text class="TextShape" transform="rotate(-90 12145 23962)"><tspan class="TextParagraph" font-family="Liberation Sans, sans-serif" font-size="388px" font-weight="400"><tspan class="TextPosition" x="12145" y="23962"><tspan fill="rgb(0,0,0)" stroke="none">12.06</tspan></tspan></tspan></text>
 <text class="TextShape" transform="rotate(-90 12949 23962)"><tspan class="TextParagraph" font-family="Liberation Sans, sans-serif" font-size="388px" font-weight="400"><tspan class="TextPosition" x="12949" y="23962"><tspan fill="rgb(0,0,0)" stroke="none">19.06</tspan></tspan></tspan></text>
 <text class="TextShape" transform="rotate(-90 13753 23962)"><tspan class="TextParagraph" font-family="Liberation Sans, sans-serif" font-size="388px" font-weight="400"><tspan class="TextPosition" x="13753" y="23962"><tspan fill="rgb(0,0,0)" stroke="none">26.06</tspan></tspan></tspan></text>
 <text class="TextShape" transform="rotate(-90 14557 23962)"><tspan class="TextParagraph" font-family="Liberation Sans, sans-serif" font-size="388px" font-weight="400"><tspan class="TextPosition" x="14557" y="23962"><tspan fill="rgb(0,0,0)" stroke="none">03.07</tspan></tspan></tspan></text>
 <text class="TextShape" transform="rotate(-90 15361 23962)"><tspan class="TextParagraph" font-family="Liberation Sans, sans-serif" font-size="388px" font-weight="400"><tspan class="TextPosition" x="15361" y="23962"><tspan fill="rgb(0,0,0)" stroke="none">10.07</tspan></tspan></tspan></text>
 <text class="TextShape" transform="rotate(-90 16165 23962)"><tspan class="TextParagraph" font-family="Liberation Sans, sans-serif" font-size="388px" font-weight="400"><tspan class="TextPosition" x="16165" y="23962"><tspan fill="rgb(0,0,0)" stroke="none">17.07</tspan></tspan></tspan></text>
 <text class="TextShape" transform="rotate(-90 16969 23962)"><tspan class="TextParagraph" font-family="Liberation Sans, sans-serif" font-size="388px" font-weight="400"><tspan class="TextPosition" x="16969" y="23962"><tspan fill="rgb(0,0,0)" stroke="none">24.07</tspan></tspan></tspan></text>
 <text class="TextShape" transform="rotate(-90 17773 23962)"><tspan class="TextParagraph" font-family="Liberation Sans, sans-serif" font-size="388px" font-weight="400"><tspan class="TextPosition" x="17773" y="23962"><tspan fill="rgb(0,0,0)" stroke="none">31.07</tspan></tspan></tspan></text>
 <text class="TextShape" transform="rotate(-90 18577 23962)"><tspan class="TextParagraph" font-family="Liberation Sans, sans-serif" font-size="388px" font-weight="400"><tspan class="TextPosition" x="18577" y="23962"><tspan fill="rgb(0,0,0)" stroke="none">07.08</tspan></tspan></tspan></text>
 <text class="TextShape"><tspan class="TextParagraph" font-family="Liberation Sans, sans-serif" font-size="388px" font-weight="400"><tspan class="TextPosition" x="1049" y="22886"><tspan fill="rgb(0,0,0)" stroke="none">0</tspan></tspan></tspan></text>
 <text class="TextShape"><tspan class="TextParagraph" font-family="Liberation Sans, sans-serif" font-size="388px" font-weight="400"><tspan class="TextPosition" x="414" y="20778"><tspan fill="rgb(0,0,0)" stroke="none">2000</tspan></tspan></tspan></text>
 <text class="TextShape"><tspan class="TextParagraph" font-family="Liberation Sans, sans-serif" font-size="388px" font-weight="400"><tspan class="TextPosition" x="414" y="18670"><tspan fill="rgb(0,0,0)" stroke="none">4000</tspan></tspan></tspan></text>
 <text class="TextShape"><tspan class="TextParagraph" font-family="Liberation Sans, sans-serif" font-size="388px" font-weight="400"><tspan class="TextPosition" x="414" y="16562"><tspan fill="rgb(0,0,0)" stroke="none">6000</tspan></tspan></tspan></text>
 <text class="TextShape"><tspan class="TextParagraph" font-family="Liberation Sans, sans-serif" font-size="388px" font-weight="400"><tspan class="TextPosition" x="414" y="14454"><tspan fill="rgb(0,0,0)" stroke="none">8000</tspan></tspan></tspan></text>
 <text class="TextShape"><tspan class="TextParagraph" font-family="Liberation Sans, sans-serif" font-size="388px" font-weight="400"><tspan class="TextPosition" x="203" y="12346"><tspan fill="rgb(0,0,0)" stroke="none">10000</tspan></tspan></tspan></text>
 <text class="TextShape"><tspan class="TextParagraph" font-family="Liberation Sans, sans-serif" font-size="388px" font-weight="400"><tspan class="TextPosition" x="203" y="10238"><tspan fill="rgb(0,0,0)" stroke="none">12000</tspan></tspan></tspan></text>
 <text class="TextShape"><tspan class="TextParagraph" font-family="Liberation Sans, sans-serif" font-size="388px" font-weight="400"><tspan class="TextPosition" x="203" y="8130"><tspan fill="rgb(0,0,0)" stroke="none">14000</tspan></tspan></tspan></text>
 <text class="TextShape"><tspan class="TextParagraph" font-family="Liberation Sans, sans-serif" font-size="388px" font-weight="400"><tspan class="TextPosition" x="203" y="6022"><tspan fill="rgb(0,0,0)" stroke="none">16000</tspan></tspan></tspan></text>
 <text class="TextShape"><tspan class="TextParagraph" font-family="Liberation Sans, sans-serif" font-size="388px" font-weight="400"><tspan class="TextPosition" x="203" y="3914"><tspan fill="rgb(0,0,0)" stroke="none">18000</tspan></tspan></tspan></text>
 <text class="TextShape"><tspan class="TextParagraph" font-family="Liberation Sans, sans-serif" font-size="388px" font-weight="400"><tspan class="TextPosition" x="203" y="1807"><tspan fill="rgb(0,0,0)" stroke="none">20000</tspan></tspan></tspan></text>
 <text class="TextShape"><tspan class="TextParagraph" font-family="Liberation Sans, sans-serif" font-size="494px" font-weight="700"><tspan class="TextPosition" x="887" y="990"><tspan fill="rgb(0,0,0)" stroke="none">Poet infikovanch na milin obyvatel</tspan></tspan></tspan></text>
 <path fill="none" stroke="rgb(112,110,12)" stroke-width="80" stroke-linejoin="round" stroke-dasharray="80,40" d="M 18784,2165 L 20384,2165"/>
 <path fill="none" stroke="rgb(141,40,30)" stroke-width="80" stroke-linejoin="round" stroke-dasharray="80,40" d="M 18784,3173 L 20384,3173"/>
 <path fill="none" stroke="rgb(255,64,0)" stroke-width="80" stroke-linejoin="round" stroke-dasharray="80,40" d="M 18784,4181 L 20384,4181"/>
 <path fill="none" stroke="rgb(241,13,12)" stroke-width="80" stroke-linejoin="round" d="M 18784,5189 L 20384,5189"/>
 <path fill="none" stroke="rgb(128,0,128)" stroke-width="80" stroke-linejoin="round" d="M 18784,6197 L 20384,6197"/>
 <path fill="none" stroke="rgb(255,128,0)" stroke-width="80" stroke-linejoin="round" d="M 18784,7205 L 20384,7205"/>
 <path fill="none" stroke="rgb(129,212,26)" stroke-width="80" stroke-linejoin="round" d="M 18784,8213 L 20384,8213"/>
 <path fill="none" stroke="rgb(131,202,255)" stroke-width="80" stroke-linejoin="round" d="M 18784,9221 L 20384,9221"/>
 <path fill="none" stroke="rgb(34,75,18)" stroke-width="80" stroke-linejoin="round" stroke-dasharray="51,127,51,127,254,127,254,127,254,127" d="M 18784,10229 L 20384,10229"/>
 <path fill="none" stroke="rgb(0,169,51)" stroke-width="80" stroke-linejoin="round" stroke-dasharray="80,40" d="M 18784,11237 L 20384,11237"/>
 <path fill="none" stroke="rgb(0,0,255)" stroke-width="80" stroke-linejoin="round" stroke-dasharray="51,127,51,127,254,127,254,127,254,127" d="M 18784,12245 L 20384,12245"/>
 <path fill="none" stroke="rgb(85,48,141)" stroke-width="80" stroke-linejoin="round" stroke-dasharray="80,40" d="M 18784,13252 L 20384,13252"/>
 <path fill="none" stroke="rgb(52,42,6)" stroke-width="80" stroke-linejoin="round" d="M 18784,14260 L 20384,14260"/>
 <path fill="none" stroke="rgb(21,132,102)" stroke-width="80" stroke-linejoin="round" stroke-dasharray="80,203,80,203,203,203" d="M 18784,15268 L 20384,15268"/>
 <path fill="none" stroke="rgb(180,120,4)" stroke-width="80" stroke-linejoin="round" d="M 18784,16276 L 20384,16276"/>
 <path fill="none" stroke="rgb(0,169,51)" stroke-width="80" stroke-linejoin="round" d="M 18784,17284 L 20384,17284"/>
 <path fill="none" stroke="rgb(89,131,176)" stroke-width="80" stroke-linejoin="round" d="M 18784,18292 L 20384,18292"/>
 <path fill="none" stroke="rgb(255,191,0)" stroke-width="80" stroke-linejoin="round" d="M 18784,19300 L 20384,19300"/>
 <path fill="none" stroke="rgb(128,0,128)" stroke-width="80" stroke-linejoin="round" stroke-dasharray="158,158" d="M 18784,20308 L 20384,20308"/>
 <path fill="none" stroke="rgb(191,0,65)" stroke-width="80" stroke-linejoin="round" stroke-dasharray="51,127,51,127,254,127,254,127,254,127" d="M 18784,21316 L 20384,21316"/>
 <path fill="none" stroke="rgb(0,0,255)" stroke-width="80" stroke-linejoin="round" stroke-dasharray="158,158" d="M 18784,22324 L 20384,22324"/>
 <text class="TextShape"><tspan class="TextParagraph" font-family="Liberation Sans, sans-serif" font-size="423px" font-weight="400"><tspan class="TextPosition" x="20484" y="2313"><tspan fill="rgb(0,0,0)" stroke="none">Stt New York</tspan></tspan></tspan></text>
 <text class="TextShape"><tspan class="TextParagraph" font-family="Liberation Sans, sans-serif" font-size="423px" font-weight="400"><tspan class="TextPosition" x="20484" y="3321"><tspan fill="rgb(0,0,0)" stroke="none">USA</tspan></tspan></tspan></text>
 <text class="TextShape"><tspan class="TextParagraph" font-family="Liberation Sans, sans-serif" font-size="423px" font-weight="400"><tspan class="TextPosition" x="20484" y="4329"><tspan fill="rgb(0,0,0)" stroke="none">Brazlie</tspan></tspan></tspan></text>
 <text class="TextShape"><tspan class="TextParagraph" font-family="Liberation Sans, sans-serif" font-size="423px" font-weight="400"><tspan class="TextPosition" x="20484" y="5337"><tspan fill="rgb(0,0,0)" stroke="none">vdsko</tspan></tspan></tspan></text>
 <text class="TextShape"><tspan class="TextParagraph" font-family="Liberation Sans, sans-serif" font-size="423px" font-weight="400"><tspan class="TextPosition" x="20484" y="6345"><tspan fill="rgb(0,0,0)" stroke="none">panlsko</tspan></tspan></tspan></text>
 <text class="TextShape"><tspan class="TextParagraph" font-family="Liberation Sans, sans-serif" font-size="423px" font-weight="400"><tspan class="TextPosition" x="20484" y="7353"><tspan fill="rgb(0,0,0)" stroke="none">Velk Britnie</tspan></tspan></tspan></text>
 <text class="TextShape"><tspan class="TextParagraph" font-family="Liberation Sans, sans-serif" font-size="423px" font-weight="400"><tspan class="TextPosition" x="20484" y="8361"><tspan fill="rgb(0,0,0)" stroke="none">vcarsko</tspan></tspan></tspan></text>
 <text class="TextShape"><tspan class="TextParagraph" font-family="Liberation Sans, sans-serif" font-size="423px" font-weight="400"><tspan class="TextPosition" x="20484" y="9369"><tspan fill="rgb(0,0,0)" stroke="none">Itlie</tspan></tspan></tspan></text>
 <text class="TextShape"><tspan class="TextParagraph" font-family="Liberation Sans, sans-serif" font-size="423px" font-weight="400"><tspan class="TextPosition" x="20484" y="10377"><tspan fill="rgb(0,0,0)" stroke="none">EU_star zem</tspan></tspan></tspan></text>
 <text class="TextShape"><tspan class="TextParagraph" font-family="Liberation Sans, sans-serif" font-size="423px" font-weight="400"><tspan class="TextPosition" x="20484" y="11385"><tspan fill="rgb(0,0,0)" stroke="none">Mexiko</tspan></tspan></tspan></text>
 <text class="TextShape"><tspan class="TextParagraph" font-family="Liberation Sans, sans-serif" font-size="423px" font-weight="400"><tspan class="TextPosition" x="20484" y="12393"><tspan fill="rgb(0,0,0)" stroke="none">EU</tspan></tspan></tspan></text>
 <text class="TextShape"><tspan class="TextParagraph" font-family="Liberation Sans, sans-serif" font-size="423px" font-weight="400"><tspan class="TextPosition" x="20484" y="13400"><tspan fill="rgb(0,0,0)" stroke="none">Kanada</tspan></tspan></tspan></text>
 <text class="TextShape"><tspan class="TextParagraph" font-family="Liberation Sans, sans-serif" font-size="423px" font-weight="400"><tspan class="TextPosition" x="20484" y="14408"><tspan fill="rgb(0,0,0)" stroke="none">Nmecko</tspan></tspan></tspan></text>
 <text class="TextShape"><tspan class="TextParagraph" font-family="Liberation Sans, sans-serif" font-size="423px" font-weight="400"><tspan class="TextPosition" x="20484" y="15416"><tspan fill="rgb(0,0,0)" stroke="none">celosvtov</tspan></tspan></tspan></text>
 <text class="TextShape"><tspan class="TextParagraph" font-family="Liberation Sans, sans-serif" font-size="423px" font-weight="400"><tspan class="TextPosition" x="20484" y="16424"><tspan fill="rgb(0,0,0)" stroke="none">Dnsko</tspan></tspan></tspan></text>
 <text class="TextShape"><tspan class="TextParagraph" font-family="Liberation Sans, sans-serif" font-size="423px" font-weight="400"><tspan class="TextPosition" x="20484" y="17432"><tspan fill="rgb(0,0,0)" stroke="none">Rakousko</tspan></tspan></tspan></text>
 <text class="TextShape"><tspan class="TextParagraph" font-family="Liberation Sans, sans-serif" font-size="423px" font-weight="400"><tspan class="TextPosition" x="20484" y="18440"><tspan fill="rgb(0,0,0)" stroke="none">Norsko</tspan></tspan></tspan></text>
 <text class="TextShape"><tspan class="TextParagraph" font-family="Liberation Sans, sans-serif" font-size="423px" font-weight="400"><tspan class="TextPosition" x="20484" y="19448"><tspan fill="rgb(0,0,0)" stroke="none">esko</tspan></tspan></tspan></text>
 <text class="TextShape"><tspan class="TextParagraph" font-family="Liberation Sans, sans-serif" font-size="423px" font-weight="400"><tspan class="TextPosition" x="20484" y="20456"><tspan fill="rgb(0,0,0)" stroke="none">Indie</tspan></tspan></tspan></text>
 <text class="TextShape"><tspan class="TextParagraph" font-family="Liberation Sans, sans-serif" font-size="423px" font-weight="400"><tspan class="TextPosition" x="20484" y="21464"><tspan fill="rgb(0,0,0)" stroke="none">EU_nov zem</tspan></tspan></tspan></text>
 <text class="TextShape"><tspan class="TextParagraph" font-family="Liberation Sans, sans-serif" font-size="423px" font-weight="400"><tspan class="TextPosition" x="20484" y="22472"><tspan fill="rgb(0,0,0)" stroke="none">Jin Korea</tspan></tspan></tspan></text>
</svg>