<?xml version="1.0" encoding="UTF-8"?>
<!DOCTYPE svg PUBLIC "-//W3C//DTD SVG 1.1//EN" "http://www.w3.org/Graphics/SVG/1.1/DTD/svg11.dtd">
<svg width="236mm" height="250mm" viewBox="0 0 23600 25000" version="1.1" xmlns="http://www.w3.org/2000/svg" xmlns:xlink="http://www.w3.org/1999/xlink" stroke-width="28.222" stroke-linejoin="round" xml:space="preserve">
 <path fill="rgb(255,255,255)" stroke="none" d="M 11830,24999 L 30,24999 30,-1 23630,-1 23630,24999 11830,24999 Z"/>
 <path fill="none" stroke="rgb(179,179,179)" stroke-linejoin="round" d="M 10155,22758 L 1541,22758 1541,1680 18769,1680 18769,22758 10155,22758 Z"/>
 <path fill="none" stroke="rgb(179,179,179)" stroke-linejoin="round" d="M 18768,22757 L 1540,22757"/>
 <path fill="none" stroke="rgb(179,179,179)" stroke-linejoin="round" d="M 18768,20649 L 1540,20649"/>
 <path fill="none" stroke="rgb(179,179,179)" stroke-linejoin="round" d="M 18768,18541 L 1540,18541"/>
 <path fill="none" stroke="rgb(179,179,179)" stroke-linejoin="round" d="M 18768,16433 L 1540,16433"/>
 <path fill="none" stroke="rgb(179,179,179)" stroke-linejoin="round" d="M 18768,14325 L 1540,14325"/>
 <path fill="none" stroke="rgb(179,179,179)" stroke-linejoin="round" d="M 18768,12218 L 1540,12218"/>
 <path fill="none" stroke="rgb(179,179,179)" stroke-linejoin="round" d="M 18768,10110 L 1540,10110"/>
 <path fill="none" stroke="rgb(179,179,179)" stroke-linejoin="round" d="M 18768,8002 L 1540,8002"/>
 <path fill="none" stroke="rgb(179,179,179)" stroke-linejoin="round" d="M 18768,5894 L 1540,5894"/>
 <path fill="none" stroke="rgb(179,179,179)" stroke-linejoin="round" d="M 18768,3786 L 1540,3786"/>
 <path fill="none" stroke="rgb(179,179,179)" stroke-linejoin="round" d="M 18768,1679 L 1540,1679"/>
 <path fill="none" stroke="rgb(179,179,179)" stroke-linejoin="round" d="M 1540,22907 L 1540,22757"/>
 <path fill="none" stroke="rgb(179,179,179)" stroke-linejoin="round" d="M 1540,22907 L 1540,22757"/>
 <path fill="none" stroke="rgb(179,179,179)" stroke-linejoin="round" d="M 2355,22907 L 2355,22757"/>
 <path fill="none" stroke="rgb(179,179,179)" stroke-linejoin="round" d="M 2355,22907 L 2355,22757"/>
 <path fill="none" stroke="rgb(179,179,179)" stroke-linejoin="round" d="M 3170,22907 L 3170,22757"/>
 <path fill="none" stroke="rgb(179,179,179)" stroke-linejoin="round" d="M 3170,22907 L 3170,22757"/>
 <path fill="none" stroke="rgb(179,179,179)" stroke-linejoin="round" d="M 3985,22907 L 3985,22757"/>
 <path fill="none" stroke="rgb(179,179,179)" stroke-linejoin="round" d="M 3985,22907 L 3985,22757"/>
 <path fill="none" stroke="rgb(179,179,179)" stroke-linejoin="round" d="M 4800,22907 L 4800,22757"/>
 <path fill="none" stroke="rgb(179,179,179)" stroke-linejoin="round" d="M 4800,22907 L 4800,22757"/>
 <path fill="none" stroke="rgb(179,179,179)" stroke-linejoin="round" d="M 5615,22907 L 5615,22757"/>
 <path fill="none" stroke="rgb(179,179,179)" stroke-linejoin="round" d="M 5615,22907 L 5615,22757"/>
 <path fill="none" stroke="rgb(179,179,179)" stroke-linejoin="round" d="M 6430,22907 L 6430,22757"/>
 <path fill="none" stroke="rgb(179,179,179)" stroke-linejoin="round" d="M 6430,22907 L 6430,22757"/>
 <path fill="none" stroke="rgb(179,179,179)" stroke-linejoin="round" d="M 7245,22907 L 7245,22757"/>
 <path fill="none" stroke="rgb(179,179,179)" stroke-linejoin="round" d="M 7245,22907 L 7245,22757"/>
 <path fill="none" stroke="rgb(179,179,179)" stroke-linejoin="round" d="M 8060,22907 L 8060,22757"/>
 <path fill="none" stroke="rgb(179,179,179)" stroke-linejoin="round" d="M 8060,22907 L 8060,22757"/>
 <path fill="none" stroke="rgb(179,179,179)" stroke-linejoin="round" d="M 8874,22907 L 8874,22757"/>
 <path fill="none" stroke="rgb(179,179,179)" stroke-linejoin="round" d="M 8874,22907 L 8874,22757"/>
 <path fill="none" stroke="rgb(179,179,179)" stroke-linejoin="round" d="M 9689,22907 L 9689,22757"/>
 <path fill="none" stroke="rgb(179,179,179)" stroke-linejoin="round" d="M 9689,22907 L 9689,22757"/>
 <path fill="none" stroke="rgb(179,179,179)" stroke-linejoin="round" d="M 10504,22907 L 10504,22757"/>
 <path fill="none" stroke="rgb(179,179,179)" stroke-linejoin="round" d="M 10504,22907 L 10504,22757"/>
 <path fill="none" stroke="rgb(179,179,179)" stroke-linejoin="round" d="M 11319,22907 L 11319,22757"/>
 <path fill="none" stroke="rgb(179,179,179)" stroke-linejoin="round" d="M 11319,22907 L 11319,22757"/>
 <path fill="none" stroke="rgb(179,179,179)" stroke-linejoin="round" d="M 12133,22907 L 12133,22757"/>
 <path fill="none" stroke="rgb(179,179,179)" stroke-linejoin="round" d="M 12133,22907 L 12133,22757"/>
 <path fill="none" stroke="rgb(179,179,179)" stroke-linejoin="round" d="M 12948,22907 L 12948,22757"/>
 <path fill="none" stroke="rgb(179,179,179)" stroke-linejoin="round" d="M 12948,22907 L 12948,22757"/>
 <path fill="none" stroke="rgb(179,179,179)" stroke-linejoin="round" d="M 13763,22907 L 13763,22757"/>
 <path fill="none" stroke="rgb(179,179,179)" stroke-linejoin="round" d="M 13763,22907 L 13763,22757"/>
 <path fill="none" stroke="rgb(179,179,179)" stroke-linejoin="round" d="M 14578,22907 L 14578,22757"/>
 <path fill="none" stroke="rgb(179,179,179)" stroke-linejoin="round" d="M 14578,22907 L 14578,22757"/>
 <path fill="none" stroke="rgb(179,179,179)" stroke-linejoin="round" d="M 15393,22907 L 15393,22757"/>
 <path fill="none" stroke="rgb(179,179,179)" stroke-linejoin="round" d="M 15393,22907 L 15393,22757"/>
 <path fill="none" stroke="rgb(179,179,179)" stroke-linejoin="round" d="M 16207,22907 L 16207,22757"/>
 <path fill="none" stroke="rgb(179,179,179)" stroke-linejoin="round" d="M 16207,22907 L 16207,22757"/>
 <path fill="none" stroke="rgb(179,179,179)" stroke-linejoin="round" d="M 17022,22907 L 17022,22757"/>
 <path fill="none" stroke="rgb(179,179,179)" stroke-linejoin="round" d="M 17022,22907 L 17022,22757"/>
 <path fill="none" stroke="rgb(179,179,179)" stroke-linejoin="round" d="M 17837,22907 L 17837,22757"/>
 <path fill="none" stroke="rgb(179,179,179)" stroke-linejoin="round" d="M 17837,22907 L 17837,22757"/>
 <path fill="none" stroke="rgb(179,179,179)" stroke-linejoin="round" d="M 18652,22907 L 18652,22757"/>
 <path fill="none" stroke="rgb(179,179,179)" stroke-linejoin="round" d="M 18652,22907 L 18652,22757"/>
 <path fill="none" stroke="rgb(179,179,179)" stroke-linejoin="round" d="M 1540,22757 L 18768,22757"/>
 <path fill="none" stroke="rgb(179,179,179)" stroke-linejoin="round" d="M 1390,22757 L 1540,22757"/>
 <path fill="none" stroke="rgb(179,179,179)" stroke-linejoin="round" d="M 1390,22757 L 1540,22757"/>
 <path fill="none" stroke="rgb(179,179,179)" stroke-linejoin="round" d="M 1390,20649 L 1540,20649"/>
 <path fill="none" stroke="rgb(179,179,179)" stroke-linejoin="round" d="M 1390,20649 L 1540,20649"/>
 <path fill="none" stroke="rgb(179,179,179)" stroke-linejoin="round" d="M 1390,18541 L 1540,18541"/>
 <path fill="none" stroke="rgb(179,179,179)" stroke-linejoin="round" d="M 1390,18541 L 1540,18541"/>
 <path fill="none" stroke="rgb(179,179,179)" stroke-linejoin="round" d="M 1390,16433 L 1540,16433"/>
 <path fill="none" stroke="rgb(179,179,179)" stroke-linejoin="round" d="M 1390,16433 L 1540,16433"/>
 <path fill="none" stroke="rgb(179,179,179)" stroke-linejoin="round" d="M 1390,14325 L 1540,14325"/>
 <path fill="none" stroke="rgb(179,179,179)" stroke-linejoin="round" d="M 1390,14325 L 1540,14325"/>
 <path fill="none" stroke="rgb(179,179,179)" stroke-linejoin="round" d="M 1390,12218 L 1540,12218"/>
 <path fill="none" stroke="rgb(179,179,179)" stroke-linejoin="round" d="M 1390,12218 L 1540,12218"/>
 <path fill="none" stroke="rgb(179,179,179)" stroke-linejoin="round" d="M 1390,10110 L 1540,10110"/>
 <path fill="none" stroke="rgb(179,179,179)" stroke-linejoin="round" d="M 1390,10110 L 1540,10110"/>
 <path fill="none" stroke="rgb(179,179,179)" stroke-linejoin="round" d="M 1390,8002 L 1540,8002"/>
 <path fill="none" stroke="rgb(179,179,179)" stroke-linejoin="round" d="M 1390,8002 L 1540,8002"/>
 <path fill="none" stroke="rgb(179,179,179)" stroke-linejoin="round" d="M 1390,5894 L 1540,5894"/>
 <path fill="none" stroke="rgb(179,179,179)" stroke-linejoin="round" d="M 1390,5894 L 1540,5894"/>
 <path fill="none" stroke="rgb(179,179,179)" stroke-linejoin="round" d="M 1390,3786 L 1540,3786"/>
 <path fill="none" stroke="rgb(179,179,179)" stroke-linejoin="round" d="M 1390,3786 L 1540,3786"/>
 <path fill="none" stroke="rgb(179,179,179)" stroke-linejoin="round" d="M 1390,1679 L 1540,1679"/>
 <path fill="none" stroke="rgb(179,179,179)" stroke-linejoin="round" d="M 1390,1679 L 1540,1679"/>
 <path fill="none" stroke="rgb(179,179,179)" stroke-linejoin="round" d="M 1540,22757 L 1540,1679"/>
 <path fill="none" stroke="rgb(112,110,12)" stroke-width="80" stroke-linejoin="round" stroke-dasharray="80,40" d="M 1599,22681 L 1715,22647 1832,22647 1948,22584 2064,22475 2181,22214 2297,21739 2414,21257 2530,20664 2646,19937 2763,19030 2879,18174 2996,17254 3112,15998 3228,14750 3345,13405 3461,12115 3578,10863 3694,9227 3811,7779 3927,6252 4043,4382 4160,2447 4214,1679"/>
 <path fill="none" stroke="rgb(141,40,30)" stroke-width="80" stroke-linejoin="round" stroke-dasharray="80,40" d="M 1599,22729 L 1715,22720 1832,22719 1948,22701 2064,22678 2181,22643 2297,22576 2414,22508 2530,22428 2646,22327 2763,22198 2879,22067 2996,21915 3112,21685 3228,21454 3345,21202 3461,20958 3578,20684 3694,20353 3811,20028 3927,19641 4043,19234 4160,18812 4276,18457 4393,18079 4509,17687 4625,17284 4742,16841 4858,16414 4975,16032 5091,15668 5207,15346 5324,15002 5440,14631 5557,14232 5673,13816 5790,13455 5906,13123 6022,12775 6139,12450 6255,12092 6372,11656 6488,11194 6604,10775 6721,10422 6837,10136 6954,9823 7070,9473 7186,9096 7303,8660 7419,8289 7536,7963 7652,7676 7769,7368 7885,7047 8001,6692 8118,6345 8234,6018 8351,5766 8467,5526 8583,5243 8700,4976 8816,4624 8933,4302 9049,3982 9165,3740 9282,3463 9398,3203 9515,2899 9631,2576 9748,2269 9864,1991 9980,1726 10003,1679"/>
 <path fill="none" stroke="rgb(255,64,0)" stroke-width="80" stroke-linejoin="round" stroke-dasharray="80,40" d="M 1599,22754 L 1715,22754 1832,22753 1948,22753 2064,22750 2181,22749 2297,22744 2414,22741 2530,22736 2646,22726 2763,22718 2879,22712 2996,22706 3112,22697 3228,22689 3345,22679 3461,22672 3578,22666 3694,22643 3811,22621 3927,22597 4043,22577 4160,22551 4276,22536 4393,22515 4509,22478 4625,22436 4742,22397 4858,22367 4975,22345 5091,22316 5207,22292 5324,22255 5440,22195 5557,22153 5673,22088 5790,22029 5906,21989 6022,21948 6139,21902 6255,21848 6372,21764 6488,21684 6604,21579 6721,21504 6837,21418 6954,21303 7070,21175 7186,21026 7303,20927 7419,20830 7536,20736 7652,20601 7769,20465 7885,20244 8001,20062 8118,19841 8234,19660 8351,19528 8467,19391 8583,19220 8700,18983 8816,18725 8933,18385 9049,18123 9165,17972 9282,17689 9398,17361 9515,16970 9631,16603 9748,16190 9864,15863 9980,15549 10097,15317 10213,14993 10330,14584 10446,14060 10562,13526 10679,12865 10795,12540 10912,12310 11028,11736 11145,11168 11261,10554 11377,9942 11494,9405 11610,9030 11727,8719 11842,8082 11958,7429 12075,6826 12191,6310 12308,5879 12424,5540 12540,5130 12657,4437 12773,3799 12890,3347 13006,2260 13104,1679"/>
 <path fill="none" stroke="rgb(241,13,12)" stroke-width="80" stroke-linejoin="round" d="M 1599,22417 L 1715,22355 1832,22330 1948,22296 2064,22260 2181,22223 2297,22156 2414,22072 2530,22021 2646,21949 2763,21902 2879,21802 2996,21702 3112,21571 3228,21475 3345,21318 3461,21212 3578,21075 3694,20905 3811,20691 3927,20432 4043,20197 4160,20067 4276,19905 4393,19748 4509,19545 4625,19242 4742,18941 4858,18714 4975,18519 5091,18381 5207,18186 5324,17979 5440,17778 5557,17522 5673,17240 5790,16987 5906,16752 6022,16588 6139,16361 6255,16076 6372,15762 6488,15423 6604,15169 6721,14975 6837,14856 6954,14566 7070,14282 7186,13952 7303,13773 7419,13539 7536,13441 7652,13272 7769,13065 7885,12772 8001,12479 8118,12211 8234,11937 8351,11770 8467,11624 8583,11373 8700,11107 8816,10826 8933,10565 9049,10369 9165,10175 9282,10077 9398,9901 9515,9599 9631,9328 9748,9062 9864,8904 9980,8790 10097,8630 10213,8381 10330,8110 10446,7844 10562,7531 10679,7265 10795,7086 10912,6973 11028,6649 11145,5725 11261,5274 11377,4833 11494,4437 11610,4086 11727,3917 11842,3587 11958,3216 12075,2600 12191,2018 12267,1679"/>
 <path fill="none" stroke="rgb(128,0,128)" stroke-width="80" stroke-linejoin="round" d="M 1599,22285 L 1715,22180 1832,22053 1948,21860 2064,21697 2181,21502 2297,21137 2414,20916 2530,20469 2646,20163 2763,19588 2879,19160 2996,18292 3112,17546 3228,16831 3345,16153 3461,15533 3578,14826 3694,14107 3811,13368 3927,12652 4043,12010 4160,11381 4276,10887 4393,10434 4509,9959 4625,9393 4742,8942 4858,8486 4975,8058 5091,7715 5207,7420 5324,7200 5440,6740 5557,6081 5673,5550 5790,5470 5906,4843 6022,4705 6139,4347 6255,3967 6372,3549 6488,4454 6604,4191 6721,4035 6837,3870 6954,3752 7070,3559 7186,3512 7303,3352 7419,3229 7536,3149 7652,3100 7769,2981 7885,2891 8001,2790 8118,2663 8234,2598 8351,2528 8467,2250 8583,2196 8700,2137 8816,2060 8933,2002 9049,1956 9165,1956 9282,1874 9398,1835 9515,1788 9631,1745 9679,1679"/>
 <path fill="none" stroke="rgb(255,128,0)" stroke-width="80" stroke-linejoin="round" d="M 1599,22617 L 1715,22594 1832,22567 1948,22529 2064,22481 2181,22420 2297,22354 2414,22276 2530,22201 2646,22116 2763,21971 2879,21824 2996,21657 3112,21464 3228,21264 3345,21088 3461,20910 3578,20643 3694,20364 3811,20057 3927,19754 4043,19447 4160,19196 4276,18971 4393,18643 4509,18305 4625,17986 4742,17684 4858,17415 4975,17192 5091,16974 5207,16715 5324,16447 5440,16133 5557,15803 5673,15496 5790,15204 5906,14966 6022,14666 6139,14372 6255,14032 6372,13714 6488,13407 6604,13175 6721,12961 6837,12671 6954,12380 7070,12044 7186,11738 7303,11447 7419,11248 7536,11064 7652,10856 7769,10628 7885,10392 8001,10159 8118,9971 8234,9839 8351,9696 8467,9474 8583,9265 8700,9062 8816,8900 8933,8745 9049,8617 9165,8505 9282,8346 9398,8157 9515,7990 9631,7833 9748,7707 9864,7614 9980,7531 10097,7431 10213,7329 10330,7217 10446,7110 10562,7017 10679,6949 10795,6883 10912,6794 11028,6704 11145,6620 11261,6544 11377,6476 11494,6427 11610,6382 11727,6315 11842,6244 11958,6171 12075,6108 12191,6043 12308,5989 12424,5939 12540,5875 12657,5809 12773,5747 12890,5684 13006,5624 13123,5583 13239,5544 13355,5489 13472,5435 13588,5387 13705,5344 13821,5304 13937,5265 14054,5240 14170,5202 14287,5177 14403,5173 14519,5173 14636,5142 14752,5103 14869,5071 14985,5049 15102,5013 15218,4974 15334,4934 15451,4902 15567,4851 15684,4811 15800,4778 15916,4702 16033,4669 16149,4629 16266,4586 16382,4535 16498,4490 16615,4454 16731,4427 16848,4392 16964,4344 17081,4297 17197,4249 17313,4203 17430,4161 17546,4127 17663,4077 17779,4025 17895,3971 18012,3923 18128,3877 18245,3819 18361,3777 18477,3722 18594,3662 18710,3607"/>
 <path fill="none" stroke="rgb(129,212,26)" stroke-width="80" stroke-linejoin="round" d="M 1599,22202 L 1715,22095 1832,21685 1948,21685 2064,21441 2181,21282 2297,20772 2414,20178 2530,19554 2646,19116 2763,18472 2879,17945 2996,17448 3112,17003 3228,16459 3345,15900 3461,15533 3578,15001 3694,14668 3811,14101 3927,13586 4043,13206 4160,12768 4276,12479 4393,12208 4509,11918 4625,11417 4742,11042 4858,10798 4975,10527 5091,10377 5207,10244 5324,10124 5440,9929 5557,9736 5673,9567 5790,9409 5906,9245 6022,9146 6139,9088 6255,8988 6372,8877 6488,8788 6604,8683 6721,8601 6837,8551 6954,8503 7070,8433 7186,8346 7303,8288 7419,8233 7536,8190 7652,8153 7769,8140 7885,8115 8001,8083 8118,8043 8234,8022 8351,7995 8467,7976 8583,7959 8700,7943 8816,7919 8933,7894 9049,7865 9165,7858 9282,7853 9398,7843 9515,7824 9631,7806 9748,7800 9864,7791 9980,7786 10097,7781 10213,7773 10330,7766 10446,7756 10562,7741 10679,7732 10795,7724 10912,7720 11028,7718 11145,7709 11261,7699 11377,7688 11494,7678 11610,7674 11727,7671 11842,7663 11958,7652 12075,7635 12191,7626 12308,7611 12424,7600 12540,7593 12657,7582 12773,7566 12890,7559 13006,7542 13123,7539 13239,7515 13355,7506 13472,7495 13588,7474 13705,7448 13821,7420 13937,7387 14054,7356 14170,7339 14287,7309 14403,7242 14519,7186 14636,7121 14752,7073 14869,7039 14985,7016 15102,6990 15218,6927 15334,6884 15451,6834 15567,6772 15684,6740 15800,6709 15916,6675 16033,6611 16149,6541 16266,6497 16382,6443 16498,6395 16615,6374 16731,6321 16848,6253 16964,6196 17081,6121 17197,6048 17313,5995 17430,5963 17546,5899 17663,5805 17779,5698 17895,5595 18012,5508 18128,5441 18245,5408 18361,5345 18477,5257 18594,5169 18710,5090"/>
 <path fill="none" stroke="rgb(131,202,255)" stroke-width="80" stroke-linejoin="round" d="M 1599,21525 L 1715,21281 1832,21031 1948,20806 2064,20560 2181,20266 2297,19895 2414,19478 2530,19021 2646,18633 2763,18299 2879,17933 2996,17570 3112,17137 3228,16725 3345,16309 3461,15945 3578,15663 3694,15380 3811,15047 3927,14721 4043,14401 4160,14066 4276,13765 4393,13514 4509,13303 4625,13035 4742,12742 4858,12467 4975,12140 5091,11855 5207,11635 5324,11428 5440,11242 5557,10978 5673,10734 5790,10491 5906,10278 6022,10121 6139,9931 6255,9696 6372,9511 6488,9301 6604,9136 6721,8974 6837,8853 6954,8707 7070,8562 7186,8431 7303,8294 7419,8162 7536,8065 7652,7980 7769,7905 7885,7804 8001,7706 8118,7614 8234,7538 8351,7482 8467,7431 8583,7333 8700,7271 8816,7202 8933,7147 9049,7086 9165,7039 9282,7007 9398,6951 9515,6904 9631,6859 9748,6814 9864,6767 9980,6730 10097,6709 10213,6682 10330,6641 10446,6600 10562,6564 10679,6535 10795,6511 10912,6497 11028,6475 11145,6453 11261,6441 11377,6404 11494,6386 11610,6372 11727,6352 11842,6333 11958,6319 12075,6292 12191,6281 12308,6257 12424,6233 12540,6212 12657,6197 12773,6175 12890,6151 13006,6162 13123,6143 13239,6128 13355,6112 13472,6104 13588,6064 13705,6044 13821,6026 13937,6014 14054,6001 14170,5993 14287,5983 14403,5970 14519,5956 14636,5941 14752,5924 14869,5911 14985,5896 15102,5887 15218,5873 15334,5858 15451,5839 15567,5826 15684,5810 15800,5798 15916,5790 16033,5779 16149,5763 16266,5747 16382,5729 16498,5714 16615,5701 16731,5692 16848,5672 16964,5651 17081,5633 17197,5614 17313,5597 17430,5585 17546,5571 17663,5551 17779,5524 17895,5498 18012,5477 18128,5460 18245,5449 18361,5436 18477,5409 18594,5381 18710,5343"/>
 <path fill="none" stroke="rgb(21,132,102)" stroke-width="80" stroke-linejoin="round" stroke-dasharray="51,127,51,127,254,127,254,127,254,127" d="M 1599,22337 L 1715,22249 1832,22162 1948,22040 2064,21922 2181,21774 2297,21574 2414,21366 2530,21145 2646,20945 2763,20675 2879,20432 2996,20119 3112,19749 3228,19391 3345,19014 3461,18719 3578,18408 3694,18050 3811,17698 3927,17368 4043,17017 4160,16700 4276,16450 4393,16206 4509,15947 4625,15647 4742,15353 4858,15050 4975,14799 5091,14279 5207,14078 5324,13890 5440,13643 5557,13258 5673,13017 5790,12882 5906,12624 6022,12478 6139,12302 6255,12158 6372,11958 6488,11945 6604,11796 6721,11682 6837,11555 6954,11433 7070,11361 7186,11266 7303,11179 7419,11090 7536,11028 7652,10972 7769,10897 7885,10782 8001,10693 8118,10599 8234,10534 8351,10482 8467,10406 8583,10344 8700,10296 8816,10233 8933,10176 9049,10134 9165,10101 9282,10065 9398,10009 9515,9958 9631,9914 9748,9851 9864,9813 9980,9783 10097,9762 10213,9728 10330,9696 10446,9601 10562,9550 10679,9495 10795,9466 10912,9445 11028,9428 11145,9377 11261,9335 11377,9288 11494,9245 11610,9211 11727,9186 11842,9151 11958,9118 12075,9074 12191,9025 12308,8985 12424,8953 12540,8926 12657,8890 12773,8849 12890,8790 13006,8738 13123,8704 13239,8678 13355,8654 13472,8602 13588,8559 13705,8518 13821,8457 13937,8435 14054,8426 14170,8354 14287,8322 14403,8275 14519,8233 14636,8194 14752,8176 14869,8160 14985,8093 15102,8068 15218,8041 15334,7997 15451,7954 15567,7935 15684,7919 15800,7850 15916,7827 16033,7782 16149,7730 16266,7674 16382,7655 16498,7641 16615,7529 16731,7489 16848,7432 16964,7361 17081,7290 17197,7263 17313,7242 17430,7109 17546,7056 17663,6994 17779,6901 17895,6790 18012,6759 18128,6737 18245,6596 18361,6455 18477,6374 18594,6240 18710,6084"/>
 <path fill="none" stroke="rgb(0,169,51)" stroke-width="80" stroke-linejoin="round" stroke-dasharray="80,40" d="M 1599,22756 L 1715,22755 1832,22755 1948,22754 2064,22753 2181,22753 2297,22751 2414,22750 2530,22748 2646,22746 2763,22744 2879,22743 2996,22741 3112,22737 3228,22733 3345,22729 3461,22724 3578,22721 3694,22717 3811,22711 3927,22707 4043,22701 4160,22695 4276,22686 4393,22677 4509,22665 4625,22652 4742,22644 4858,22631 4975,22619 5091,22604 5207,22593 5324,22580 5440,22565 5557,22551 5673,22532 5790,22511 5906,22486 6022,22470 6139,22446 6255,22412 6372,22376 6488,22336 6604,22304 6721,22277 6837,22249 6954,22209 7070,22175 7186,22128 7303,22078 7419,22034 7536,21989 7652,21942 7769,21906 7885,21853 8001,21788 8118,21726 8234,21662 8351,21611 8467,21569 8583,21503 8700,21443 8816,21364 8933,21284 9049,21215 9165,21147 9282,21068 9398,20980 9515,20906 9631,20809 9748,20712 9864,20603 9980,20513 10097,20432 10213,20319 10330,20205 10446,20095 10562,19989 10679,19895 10795,19792 10912,19701 11028,19574 11145,19446 11261,19301 11377,19159 11494,19041 11610,18928 11727,18829 11842,18692 11958,18532 12075,18376 12191,18205 12308,18091 12424,17955 12540,17843 12657,17693 12773,17532 12890,17347 13006,17182 13123,17028 13239,16853 13355,16703 13472,16498 13588,16320 13705,16120 13821,15943 13937,15798 14054,15666 14170,15542 14287,15364 14403,15178 14519,14958 14636,14737 14752,14511 14869,14358 14985,14198 15102,13993 15218,13765 15334,13527 15451,13301 15567,13102 15684,12955 15800,12802 15916,12572 16033,12372 16149,12162 16266,11925 16382,11676 16498,11502 16615,11333 16731,11109 16848,10912 16964,10636 17081,10388 17197,10168 17313,9989 17430,9826 17546,9590 17663,9402 17779,9149 17895,8873 18012,8560 18128,8402 18245,8246 18361,8045 18477,7844 18594,7629 18710,7409"/>
 <path fill="none" stroke="rgb(0,0,255)" stroke-width="80" stroke-linejoin="round" stroke-dasharray="51,127,51,127,254,127,254,127,254,127" d="M 1599,22428 L 1715,22357 1832,22288 1948,22192 2064,22099 2181,21982 2297,21824 2414,21659 2530,21483 2646,21324 2763,21111 2879,20917 2996,20668 3112,20375 3228,20088 3345,19787 3461,19549 3578,19302 3694,19016 3811,18736 3927,18468 4043,18183 4160,17926 4276,17723 4393,17526 4509,17314 4625,17070 4742,16830 4858,16584 4975,16379 5091,15969 5207,15806 5324,15653 5440,15453 5557,15143 5673,14946 5790,14831 5906,14620 6022,14500 6139,14354 6255,14233 6372,14068 6488,14047 6604,13925 6721,13828 6837,13723 6954,13622 7070,13557 7186,13476 7303,13402 7419,13327 7536,13272 7652,13220 7769,13154 7885,13058 8001,12981 8118,12901 8234,12844 8351,12797 8467,12732 8583,12676 8700,12632 8816,12576 8933,12525 9049,12487 9165,12456 9282,12422 9398,12372 9515,12325 9631,12284 9748,12228 9864,12192 9980,12163 10097,12141 10213,12108 10330,12077 10446,11998 10562,11953 10679,11904 10795,11878 10912,11857 11028,11839 11145,11794 11261,11755 11377,11712 11494,11670 11610,11636 11727,11608 11842,11575 11958,11543 12075,11502 12191,11456 12308,11417 12424,11386 12540,11358 12657,11323 12773,11282 12890,11228 13006,11180 13123,11146 13239,11119 13355,11094 13472,11046 13588,11004 13705,10962 13821,10905 13937,10877 14054,10861 14170,10798 14287,10764 14403,10717 14519,10673 14636,10632 14752,10608 14869,10587 14985,10528 15102,10499 15218,10466 15334,10418 15451,10371 15567,10342 15684,10320 15800,10258 15916,10228 16033,10179 16149,10123 16266,10064 16382,10033 16498,10009 16615,9910 16731,9859 16848,9795 16964,9719 17081,9643 17197,9600 17313,9565 17430,9445 17546,9383 17663,9313 17779,9215 17895,9105 18012,9058 18128,9023 18245,8897 18361,8764 18477,8676 18594,8547 18710,8399"/>
 <path fill="none" stroke="rgb(85,48,141)" stroke-width="80" stroke-linejoin="round" stroke-dasharray="80,40" d="M 1599,22735 L 1715,22734 1832,22728 1948,22710 2064,22703 2181,22683 2297,22667 2414,22651 2530,22614 2646,22592 2763,22523 2879,22445 2996,22393 3112,22305 3228,22234 3345,22134 3461,22055 3578,21930 3694,21804 3811,21689 3927,21496 4043,21367 4160,21307 4276,20997 4393,20906 4509,20760 4625,20618 4742,20449 4858,20293 4975,20152 5091,20042 5207,19888 5324,19737 5440,19606 5557,19315 5673,19091 5790,18919 5906,18776 6022,18550 6139,18355 6255,18103 6372,17920 6488,17739 6604,17577 6721,17391 6837,17214 6954,17043 7070,16851 7186,16674 7303,16463 7419,16286 7536,15998 7652,15836 7769,15695 7885,15530 8001,15362 8118,15197 8234,15058 8351,14927 8467,14796 8583,14667 8700,14539 8816,14403 8933,14272 9049,14133 9165,14007 9282,13886 9398,13765 9515,13645 9631,13514 9748,13380 9864,13245 9980,13138 10097,13025 10213,12917 10330,12816 10446,12706 10562,12602 10679,12516 10795,12428 10912,12337 11028,12262 11145,12186 11261,12116 11377,12040 11494,11981 11610,11903 11727,11836 11842,11784 11958,11730 12075,11681 12191,11633 12308,11583 12424,11542 12540,11502 12657,11466 12773,11421 12890,11378 13006,11329 13123,11279 13239,11244 13355,11206 13472,11167 13588,11131 13705,11089 13821,11070 13937,11043 14054,11007 14170,10936 14287,10906 14403,10885 14519,10845 14636,10810 14752,10785 14869,10762 14985,10715 15102,10691 15218,10657 15334,10621 15451,10584 15567,10565 15684,10543 15800,10472 15916,10431 16033,10393 16149,10343 16266,10296 16382,10261 16498,10228 16615,10142 16731,10083 16848,10047 16964,9979 17081,9899 17197,9859 17313,9824 17430,9748 17546,9703 17663,9649 17779,9613 17895,9546 18012,9518 18128,9491 18245,9468 18361,9392 18477,9350 18594,9310 18710,9253"/>
 <path fill="none" stroke="rgb(52,42,6)" stroke-width="80" stroke-linejoin="round" d="M 1599,22572 L 1715,22526 1832,22465 1948,22391 2064,22291 2181,22136 2297,21986 2414,21758 2530,21639 2646,21505 2763,21294 2879,21097 2996,20878 3112,20546 3228,20197 3345,19853 3461,19632 3578,19391 3694,19143 3811,18838 3927,18490 4043,18170 4160,17921 4276,17719 4393,17555 4509,17339 4625,17056 4742,16810 4858,16609 4975,16471 5091,16323 5207,16212 5324,16147 5440,15976 5557,15828 5673,15642 5790,15544 5906,15451 6022,15357 6139,15295 6255,15176 6372,15051 6488,14957 6604,14881 6721,14818 6837,14768 6954,14710 7070,14628 7186,14554 7303,14501 7419,14456 7536,14421 7652,14396 7769,14353 7885,14295 8001,14231 8118,14173 8234,14136 8351,14108 8467,14073 8583,14043 8700,13996 8816,13977 8933,13939 9049,13913 9165,13882 9282,13873 9398,13811 9515,13776 9631,13749 9748,13714 9864,13700 9980,13683 10097,13669 10213,13639 10330,13623 10446,13589 10562,13552 10679,13539 10795,13528 10912,13519 11028,13504 11145,13492 11261,13474 11377,13452 11494,13425 11610,13410 11727,13392 11842,13372 11958,13371 12075,13363 12191,13336 12308,13334 12424,13321 12540,13313 12657,13284 12773,13266 12890,13205 13006,13181 13123,13162 13239,13132 13355,13107 13472,13071 13588,13052 13705,13027 13821,12993 13937,12972 14054,12960 14170,12942 14287,12924 14403,12900 14519,12876 14636,12855 14752,12834 14869,12818 14985,12790 15102,12776 15218,12758 15334,12743 15451,12727 15567,12708 15684,12697 15800,12684 15916,12670 16033,12648 16149,12620 16266,12590 16382,12571 16498,12555 16615,12526 16731,12506 16848,12479 16964,12448 17081,12411 17197,12378 17313,12359 17430,12336 17546,12306 17663,12264 17779,12214 17895,12171 18012,12140 18128,12129 18245,12085 18361,12049 18477,11984 18594,11937 18710,11879"/>
 <path fill="none" stroke="rgb(21,132,102)" stroke-width="80" stroke-linejoin="round" stroke-dasharray="80,203,80,203,203,203" d="M 1599,22677 L 1715,22671 1832,22665 1948,22657 2064,22649 2181,22638 2297,22623 2414,22607 2530,22589 2646,22571 2763,22548 2879,22526 2996,22499 3112,22465 3228,22430 3345,22393 3461,22361 3578,22326 3694,22284 3811,22243 3927,22199 4043,22154 4160,22111 4276,22072 4393,22032 4509,21991 4625,21945 4742,21899 4858,21851 4975,21809 5091,21757 5207,21719 5324,21682 5440,21638 5557,21585 5673,21538 5790,21498 5906,21454 6022,21415 6139,21374 6255,21332 6372,21284 6488,21237 6604,21191 6721,21152 6837,21114 6954,21074 7070,21032 7186,20987 7303,20940 7419,20895 7536,20853 7652,20812 7769,20769 7885,20720 8001,20672 8118,20622 8234,20576 8351,20535 8467,20493 8583,20448 8700,20402 8816,20350 8933,20298 9049,20246 9165,20203 9282,20156 9398,20103 9515,20048 9631,19990 9748,19932 9864,19875 9980,19824 10097,19777 10213,19726 10330,19671 10446,19606 10562,19541 10679,19466 10795,19408 10912,19356 11028,19291 11145,19226 11261,19158 11377,19087 11494,19013 11610,18952 11727,18897 11842,18830 11958,18757 12075,18683 12191,18613 12308,18539 12424,18467 12540,18402 12657,18325 12773,18249 12890,18173 13006,18075 13123,17990 13239,17920 13355,17846 13472,17756 13588,17663 13705,17567 13821,17464 13937,17367 14054,17280 14170,17194 14287,17100 14403,16982 14519,16870 14636,16759 14752,16655 14869,16556 14985,16465 15102,16351 15218,16236 15334,16113 15451,15987 15567,15870 15684,15766 15800,15661 15916,15541 16033,15416 16149,15279 16266,15149 16382,15020 16498,14904 16615,14792 16731,14665 16848,14514 16964,14360 17081,14208 17197,14070 17313,13955 17430,13832 17546,13695 17663,13539 17779,13387 17895,13230 18012,13094 18128,12970 18245,12861 18361,12721 18477,12574 18594,12420 18710,12268"/>
 <path fill="none" stroke="rgb(180,120,4)" stroke-width="80" stroke-linejoin="round" d="M 1599,22182 L 1715,22159 1832,22131 1948,22090 2064,22024 2181,21959 2297,21881 2414,21801 2530,21741 2646,21674 2763,21633 2879,21528 2996,21426 3112,21310 3228,21184 3345,21065 3461,20924 3578,20787 3694,20584 3811,20405 3927,20203 4043,19936 4160,19705 4276,19496 4393,19272 4509,18992 4625,18756 4742,18589 4858,18458 4975,18331 5091,18204 5207,18101 5324,17963 5440,17842 5557,17700 5673,17561 5790,17440 5906,17338 6022,17245 6139,17116 6255,16961 6372,16844 6488,16746 6604,16578 6721,16486 6837,16398 6954,16288 7070,16176 7186,16069 7303,15959 7419,15891 7536,15808 7652,15703 7769,15595 7885,15511 8001,15408 8118,15311 8234,15239 8351,15160 8467,15100 8583,15044 8700,14990 8816,14957 8933,14902 9049,14854 9165,14804 9282,14775 9398,14721 9515,14668 9631,14622 9748,14588 9864,14546 9980,14494 10097,14475 10213,14445 10330,14408 10446,14385 10562,14327 10679,14298 10795,14272 10912,14251 11028,14226 11145,14200 11261,14171 11377,14125 11494,14090 11610,14073 11727,14063 11842,14035 11958,14024 12075,14011 12191,13965 12308,13937 12424,13898 12540,13881 12657,13857 12773,13826 12890,13790 13006,13756 13123,13756 13239,13756 13355,13659 13472,13635 13588,13596 13705,13581 13821,13553 13937,13553 14054,13553 14170,13499 14287,13487 14403,13468 14519,13453 14636,13441 14752,13441 14869,13440 14985,13408 15102,13400 15218,13392 15334,13380 15451,13359 15567,13359 15684,13359 15800,13294 15916,13277 16033,13255 16149,13232 16266,13197 16382,13197 16498,13195 16615,13131 16731,13102 16848,13068 16964,13039 17081,13005 17197,13004 17313,12989 17430,12910 17546,12884 17663,12844 17779,12775 17895,12729 18012,12729 18128,12729 18245,12581 18361,12525 18477,12436 18594,12331 18710,12216"/>
 <path fill="none" stroke="rgb(0,169,51)" stroke-width="80" stroke-linejoin="round" d="M 1599,22521 L 1715,22450 1832,22354 1948,22280 2064,22133 2181,21986 2297,21814 2414,21639 2530,21439 2646,21080 2763,20662 2879,20284 2996,20141 3112,19522 3228,19172 3345,18885 3461,18643 3578,18254 3694,17991 3811,17743 3927,17547 4043,17362 4160,17242 4276,17116 4393,17000 4509,16840 4625,16698 4742,16557 4858,16412 4975,16294 5091,16229 5207,16184 5324,16097 5440,16046 5557,15980 5673,15925 5790,15889 5906,15853 6022,15831 6139,15795 6255,15770 6372,15734 6488,15702 6604,15666 6721,15630 6837,15607 6954,15568 7070,15547 7186,15524 7303,15487 7419,15474 7536,15456 7652,15444 7769,15431 7885,15415 8001,15383 8118,15373 8234,15345 8351,15327 8467,15322 8583,15285 8700,15268 8816,15240 8933,15216 9049,15173 9165,15154 9282,15141 9398,15117 9515,15102 9631,15078 9748,15063 9864,15040 9980,15032 10097,15015 10213,15006 10330,14990 10446,14973 10562,14960 10679,14946 10795,14925 10912,14924 11028,14912 11145,14906 11261,14890 11377,14872 11494,14847 11610,14845 11727,14814 11842,14809 11958,14797 12075,14783 12191,14769 12308,14762 12424,14748 12540,14736 12657,14711 12773,14704 12890,14695 13006,14672 13123,14648 13239,14639 13355,14621 13472,14608 13588,14589 13705,14576 13821,14555 13937,14527 14054,14493 14170,14461 14287,14440 14403,14390 14519,14359 14636,14307 14752,14254 14869,14200 14985,14160 15102,14134 15218,14091 15334,14043 15451,13999 15567,13964 15684,13911 15800,13887 15916,13853 16033,13791 16149,13736 16266,13657 16382,13595 16498,13556 16615,13515 16731,13476 16848,13428 16964,13348 17081,13295 17197,13236 17313,13174 17430,13134 17546,13078 17663,12997 17779,12948 17895,12866 18012,12827 18128,12784 18245,12746 18361,12701 18477,12662 18594,12601 18710,12535"/>
 <path fill="none" stroke="rgb(89,131,176)" stroke-width="80" stroke-linejoin="round" d="M 1599,21982 L 1715,21909 1832,21807 1948,21720 2064,21619 2181,21551 2297,21399 2414,21268 2530,21109 2646,20902 2763,20718 2879,20530 2996,20358 3112,20137 3228,19836 3345,19634 3461,19425 3578,19300 3694,19147 3811,18975 3927,18754 4043,18581 4160,18441 4276,18334 4393,18196 4509,18024 4625,18024 4742,17927 4858,17846 4975,17773 5091,17682 5207,17622 5324,17606 5440,17515 5557,17394 5673,17362 5790,17285 5906,17252 6022,17192 6139,17164 6255,17050 6372,17001 6488,16953 6604,16925 6721,16903 6837,16847 6954,16800 7070,16761 7186,16739 7303,16704 7419,16684 7536,16654 7652,16610 7769,16570 7885,16538 8001,16509 8118,16481 8234,16458 8351,16454 8467,16433 8583,16413 8700,16399 8816,16383 8933,16365 9049,16351 9165,16342 9282,16335 9398,16328 9515,16317 9631,16295 9748,16277 9864,16266 9980,16262 10097,16252 10213,16238 10330,16224 10446,16216 10562,16207 10679,16196 10795,16193 10912,16189 11028,16182 11145,16164 11261,16143 11377,16129 11494,16122 11610,16110 11727,16099 11842,16087 11958,16073 12075,16063 12191,16053 12308,16047 12424,16045 12540,16032 12657,16022 12773,15997 12890,15985 13006,15971 13123,15958 13239,15956 13355,15951 13472,15935 13588,15923 13705,15923 13821,15888 13937,15877 14054,15870 14170,15865 14287,15852 14403,15839 14519,15834 14636,15819 14752,15815 14869,15812 14985,15807 15102,15799 15218,15797 15334,15785 15451,15778 15567,15776 15684,15772 15800,15770 15916,15757 16033,15749 16149,15746 16266,15738 16382,15736 16498,15736 16615,15731 16731,15716 16848,15712 16964,15692 17081,15686 17197,15671 17313,15667 17430,15655 17546,15641 17663,15624 17779,15596 17895,15571 18012,15561 18128,15549 18245,15498 18361,15476 18477,15440 18594,15394 18710,15329"/>
 <path fill="none" stroke="rgb(255,191,0)" stroke-width="80" stroke-linejoin="round" d="M 1599,22701 L 1715,22682 1832,22657 1948,22639 2064,22601 2181,22574 2297,22483 2414,22429 2530,22365 2646,22316 2763,22270 2879,22208 2996,22105 3112,21999 3228,21859 3345,21721 3461,21648 3578,21575 3694,21454 3811,21376 3927,21238 4043,21146 4160,20996 4276,20951 4393,20858 4509,20781 4625,20665 4742,20564 4858,20500 4975,20461 5091,20398 5207,20371 5324,20351 5440,20309 5557,20224 5673,20178 5790,20156 5906,20101 6022,20040 6139,19988 6255,19949 6372,19927 6488,19893 6604,19862 6721,19842 6837,19826 6954,19802 7070,19773 7186,19732 7303,19711 7419,19704 7536,19693 7652,19678 7769,19648 7885,19617 8001,19595 8118,19577 8234,19570 8351,19559 8467,19538 8583,19520 8700,19501 8816,19469 8933,19447 9049,19428 9165,19420 9282,19376 9398,19352 9515,19323 9631,19310 9748,19287 9864,19257 9980,19231 10097,19213 10213,19194 10330,19180 10446,19158 10562,19136 10679,19123 10795,19108 10912,19095 11028,19070 11145,19041 11261,19019 11377,19005 11494,18990 11610,18966 11727,18939 11842,18918 11958,18889 12075,18877 12191,18844 12308,18823 12424,18810 12540,18795 12657,18776 12773,18756 12890,18710 13006,18660 13123,18643 13239,18624 13355,18614 13472,18564 13588,18514 13705,18477 13821,18411 13937,18309 14054,18189 14170,18109 14287,18051 14403,18014 14519,17962 14636,17907 14752,17859 14869,17830 14985,17810 15102,17763 15218,17712 15334,17671 15451,17638 15567,17594 15684,17570 15800,17545 15916,17505 16033,17452 16149,17398 16266,17347 16382,17302 16498,17267 16615,17207 16731,17118 16848,17021 16964,16930 17081,16820 17197,16768 17313,16724 17430,16648 17546,16537 17663,16421 17779,16312 17895,16232 18012,16183 18128,16143 18245,16061 18361,15952 18477,15856 18594,15776 18710,15647"/>
 <path fill="none" stroke="rgb(191,0,65)" stroke-width="80" stroke-linejoin="round" stroke-dasharray="51,127,51,127,254,127,254,127,254,127" d="M 1599,22729 L 1715,22718 1832,22709 1948,22699 2064,22686 2181,22674 2297,22654 2414,22636 2530,22610 2646,22588 2763,22561 2879,22530 2996,22495 3112,22458 3228,22409 3345,22362 3461,22315 3578,22276 3694,22232 3811,22187 3927,22129 4043,22066 4160,22007 4276,21959 4393,21920 4509,21863 4625,21805 4742,21746 4858,21692 4975,21636 5091,21592 5207,21557 5324,21521 5440,21477 5557,21417 5673,21364 5790,21318 5906,21264 6022,21230 6139,21189 6255,21143 6372,21094 6488,21046 6604,21013 6721,20974 6837,20940 6954,20911 7070,20867 7186,20835 7303,20802 7419,20778 7536,20741 7652,20708 7769,20670 7885,20636 8001,20600 8118,20566 8234,20536 8351,20504 8467,20476 8583,20438 8700,20411 8816,20376 8933,20345 9049,20315 9165,20292 9282,20264 9398,20236 9515,20201 9631,20169 9748,20138 9864,20111 9980,20081 10097,20056 10213,20028 10330,20001 10446,19973 10562,19948 10679,19921 10795,19904 10912,19880 11028,19861 11145,19837 11261,19808 11377,19780 11494,19742 11610,19706 11727,19669 11842,19640 11958,19612 12075,19581 12191,19547 12308,19512 12424,19480 12540,19453 12657,19419 12773,19377 12890,19340 13006,19304 13123,19270 13239,19240 13355,19212 13472,19179 13588,19141 13705,19094 13821,19051 13937,19005 14054,18966 14170,18929 14287,18888 14403,18845 14519,18794 14636,18747 14752,18699 14869,18664 14985,18632 15102,18589 15218,18534 15334,18473 15451,18416 15567,18353 15684,18310 15800,18269 15916,18215 16033,18156 16149,18087 16266,18016 16382,17946 16498,17887 16615,17831 16731,17747 16848,17658 16964,17567 17081,17473 17197,17377 17313,17298 17430,17221 17546,17127 17663,17028 17779,16914 17895,16807 18012,16710 18128,16630 18245,16553 18361,16448 18477,16337 18594,16224 18710,16104"/>
 <path fill="none" stroke="rgb(128,0,128)" stroke-width="80" stroke-linejoin="round" stroke-dasharray="158,158" d="M 1599,22756 L 1715,22756 1832,22756 1948,22756 2064,22756 2181,22756 2297,22756 2414,22756 2530,22755 2646,22755 2763,22755 2879,22755 2996,22754 3112,22754 3228,22754 3345,22753 3461,22753 3578,22753 3694,22752 3811,22750 3927,22749 4043,22749 4160,22747 4276,22746 4393,22742 4509,22740 4625,22738 4742,22736 4858,22733 4975,22731 5091,22728 5207,22725 5324,22721 5440,22719 5557,22715 5673,22713 5790,22708 5906,22703 6022,22700 6139,22695 6255,22691 6372,22686 6488,22682 6604,22676 6721,22671 6837,22667 6954,22661 7070,22655 7186,22650 7303,22643 7419,22635 7536,22627 7652,22615 7769,22606 7885,22595 8001,22584 8118,22574 8234,22565 8351,22551 8467,22540 8583,22530 8700,22518 8816,22506 8933,22494 9049,22480 9165,22464 9282,22450 9398,22431 9515,22414 9631,22395 9748,22375 9864,22355 9980,22333 10097,22314 10213,22296 10330,22274 10446,22251 10562,22226 10679,22201 10795,22174 10912,22150 11028,22124 11145,22094 11261,22064 11377,22035 11494,22003 11610,21970 11727,21944 11842,21913 11958,21881 12075,21848 12191,21813 12308,21776 12424,21741 12540,21708 12657,21675 12773,21636 12890,21594 13006,21550 13123,21503 13239,21457 13355,21412 13472,21363 13588,21311 13705,21258 13821,21202 13937,21141 14054,21081 14170,21025 14287,20968 14403,20909 14519,20846 14636,20776 14752,20700 14869,20626 14985,20558 15102,20488 15218,20412 15334,20332 15451,20249 15567,20161 15684,20074 15800,19986 15916,19897 16033,19797 16149,19690 16266,19582 16382,19464 16498,19340 16615,19227 16731,19112 16848,18972 16964,18821 17081,18672 17197,18523 17313,18371 17430,18235 17546,18077 17663,17924 17779,17762 17895,17575 18012,17408 18128,17246 18245,17087 18361,16927 18477,16755 18594,16564 18710,16376"/>
 <path fill="none" stroke="rgb(0,0,255)" stroke-width="80" stroke-linejoin="round" stroke-dasharray="158,158" d="M 1599,22100 L 1715,22092 1832,22085 1948,22079 2064,22072 2181,22065 2297,22052 2414,22045 2530,22033 2646,22020 2763,22020 2879,22013 2996,22005 3112,21997 3228,21989 3345,21977 3461,21969 3578,21962 3694,21952 3811,21944 3927,21936 4043,21929 4160,21921 4276,21915 4393,21911 4509,21907 4625,21903 4742,21899 4858,21897 4975,21895 5091,21892 5207,21890 5324,21888 5440,21886 5557,21884 5673,21882 5790,21881 5906,21880 6022,21879 6139,21878 6255,21877 6372,21876 6488,21875 6604,21874 6721,21874 6837,21872 6954,21872 7070,21871 7186,21871 7303,21870 7419,21869 7536,21868 7652,21868 7769,21868 7885,21868 8001,21867 8118,21865 8234,21862 8351,21859 8467,21857 8583,21855 8700,21853 8816,21851 8933,21849 9049,21848 9165,21847 9282,21846 9398,21843 9515,21842 9631,21840 9748,21838 9864,21836 9980,21835 10097,21833 10213,21830 10330,21824 10446,21819 10562,21816 10679,21814 10795,21811 10912,21807 11028,21803 11145,21800 11261,21797 11377,21793 11494,21788 11610,21785 11727,21782 11842,21778 11958,21774 12075,21770 12191,21766 12308,21763 12424,21760 12540,21757 12657,21753 12773,21749 12890,21745 13006,21739 13123,21735 13239,21734 13355,21730 13472,21726 13588,21723 13705,21720 13821,21716 13937,21711 14054,21708 14170,21704 14287,21700 14403,21695 14519,21690 14636,21685 14752,21680 14869,21676 14985,21673 15102,21667 15218,21663 15334,21660 15451,21657 15567,21653 15684,21648 15800,21645 15916,21642 16033,21637 16149,21632 16266,21629 16382,21626 16498,21624 16615,21620 16731,21615 16848,21610 16964,21607 17081,21598 17197,21593 17313,21591 17430,21589 17546,21585 17663,21583 17779,21580 17895,21578 18012,21575 18128,21573 18245,21571 18361,21568 18477,21564 18594,21563 18710,21559"/>
 <text class="TextShape" transform="rotate(-90 1725 23961)"><tspan class="TextParagraph" font-family="Liberation Sans, sans-serif" font-size="388px" font-weight="400"><tspan class="TextPosition" x="1725" y="23961"><tspan fill="rgb(0,0,0)" stroke="none">13.03</tspan></tspan></tspan></text>
 <text class="TextShape" transform="rotate(-90 2540 23961)"><tspan class="TextParagraph" font-family="Liberation Sans, sans-serif" font-size="388px" font-weight="400"><tspan class="TextPosition" x="2540" y="23961"><tspan fill="rgb(0,0,0)" stroke="none">20.03</tspan></tspan></tspan></text>
 <text class="TextShape" transform="rotate(-90 3354 23961)"><tspan class="TextParagraph" font-family="Liberation Sans, sans-serif" font-size="388px" font-weight="400"><tspan class="TextPosition" x="3354" y="23961"><tspan fill="rgb(0,0,0)" stroke="none">27.03</tspan></tspan></tspan></text>
 <text class="TextShape" transform="rotate(-90 4169 23961)"><tspan class="TextParagraph" font-family="Liberation Sans, sans-serif" font-size="388px" font-weight="400"><tspan class="TextPosition" x="4169" y="23961"><tspan fill="rgb(0,0,0)" stroke="none">03.04</tspan></tspan></tspan></text>
 <text class="TextShape" transform="rotate(-90 4984 23961)"><tspan class="TextParagraph" font-family="Liberation Sans, sans-serif" font-size="388px" font-weight="400"><tspan class="TextPosition" x="4984" y="23961"><tspan fill="rgb(0,0,0)" stroke="none">10.04</tspan></tspan></tspan></text>
 <text class="TextShape" transform="rotate(-90 5799 23961)"><tspan class="TextParagraph" font-family="Liberation Sans, sans-serif" font-size="388px" font-weight="400"><tspan class="TextPosition" x="5799" y="23961"><tspan fill="rgb(0,0,0)" stroke="none">17.04</tspan></tspan></tspan></text>
 <text class="TextShape" transform="rotate(-90 6614 23961)"><tspan class="TextParagraph" font-family="Liberation Sans, sans-serif" font-size="388px" font-weight="400"><tspan class="TextPosition" x="6614" y="23961"><tspan fill="rgb(0,0,0)" stroke="none">24.04</tspan></tspan></tspan></text>
 <text class="TextShape" transform="rotate(-90 7429 23961)"><tspan class="TextParagraph" font-family="Liberation Sans, sans-serif" font-size="388px" font-weight="400"><tspan class="TextPosition" x="7429" y="23961"><tspan fill="rgb(0,0,0)" stroke="none">01.05</tspan></tspan></tspan></text>
 <text class="TextShape" transform="rotate(-90 8244 23961)"><tspan class="TextParagraph" font-family="Liberation Sans, sans-serif" font-size="388px" font-weight="400"><tspan class="TextPosition" x="8244" y="23961"><tspan fill="rgb(0,0,0)" stroke="none">08.05</tspan></tspan></tspan></text>
 <text class="TextShape" transform="rotate(-90 9059 23961)"><tspan class="TextParagraph" font-family="Liberation Sans, sans-serif" font-size="388px" font-weight="400"><tspan class="TextPosition" x="9059" y="23961"><tspan fill="rgb(0,0,0)" stroke="none">15.05</tspan></tspan></tspan></text>
 <text class="TextShape" transform="rotate(-90 9874 23961)"><tspan class="TextParagraph" font-family="Liberation Sans, sans-serif" font-size="388px" font-weight="400"><tspan class="TextPosition" x="9874" y="23961"><tspan fill="rgb(0,0,0)" stroke="none">22.05</tspan></tspan></tspan></text>
 <text class="TextShape" transform="rotate(-90 10688 23961)"><tspan class="TextParagraph" font-family="Liberation Sans, sans-serif" font-size="388px" font-weight="400"><tspan class="TextPosition" x="10688" y="23961"><tspan fill="rgb(0,0,0)" stroke="none">29.05</tspan></tspan></tspan></text>
 <text class="TextShape" transform="rotate(-90 11503 23961)"><tspan class="TextParagraph" font-family="Liberation Sans, sans-serif" font-size="388px" font-weight="400"><tspan class="TextPosition" x="11503" y="23961"><tspan fill="rgb(0,0,0)" stroke="none">05.06</tspan></tspan></tspan></text>
 <text class="TextShape" transform="rotate(-90 12317 23961)"><tspan class="TextParagraph" font-family="Liberation Sans, sans-serif" font-size="388px" font-weight="400"><tspan class="TextPosition" x="12317" y="23961"><tspan fill="rgb(0,0,0)" stroke="none">12.06</tspan></tspan></tspan></text>
 <text class="TextShape" transform="rotate(-90 13132 23961)"><tspan class="TextParagraph" font-family="Liberation Sans, sans-serif" font-size="388px" font-weight="400"><tspan class="TextPosition" x="13132" y="23961"><tspan fill="rgb(0,0,0)" stroke="none">19.06</tspan></tspan></tspan></text>
 <text class="TextShape" transform="rotate(-90 13947 23961)"><tspan class="TextParagraph" font-family="Liberation Sans, sans-serif" font-size="388px" font-weight="400"><tspan class="TextPosition" x="13947" y="23961"><tspan fill="rgb(0,0,0)" stroke="none">26.06</tspan></tspan></tspan></text>
 <text class="TextShape" transform="rotate(-90 14762 23961)"><tspan class="TextParagraph" font-family="Liberation Sans, sans-serif" font-size="388px" font-weight="400"><tspan class="TextPosition" x="14762" y="23961"><tspan fill="rgb(0,0,0)" stroke="none">03.07</tspan></tspan></tspan></text>
 <text class="TextShape" transform="rotate(-90 15577 23961)"><tspan class="TextParagraph" font-family="Liberation Sans, sans-serif" font-size="388px" font-weight="400"><tspan class="TextPosition" x="15577" y="23961"><tspan fill="rgb(0,0,0)" stroke="none">10.07</tspan></tspan></tspan></text>
 <text class="TextShape" transform="rotate(-90 16392 23961)"><tspan class="TextParagraph" font-family="Liberation Sans, sans-serif" font-size="388px" font-weight="400"><tspan class="TextPosition" x="16392" y="23961"><tspan fill="rgb(0,0,0)" stroke="none">17.07</tspan></tspan></tspan></text>
 <text class="TextShape" transform="rotate(-90 17207 23961)"><tspan class="TextParagraph" font-family="Liberation Sans, sans-serif" font-size="388px" font-weight="400"><tspan class="TextPosition" x="17207" y="23961"><tspan fill="rgb(0,0,0)" stroke="none">24.07</tspan></tspan></tspan></text>
 <text class="TextShape" transform="rotate(-90 18021 23961)"><tspan class="TextParagraph" font-family="Liberation Sans, sans-serif" font-size="388px" font-weight="400"><tspan class="TextPosition" x="18021" y="23961"><tspan fill="rgb(0,0,0)" stroke="none">31.07</tspan></tspan></tspan></text>
 <text class="TextShape" transform="rotate(-90 18836 23961)"><tspan class="TextParagraph" font-family="Liberation Sans, sans-serif" font-size="388px" font-weight="400"><tspan class="TextPosition" x="18836" y="23961"><tspan fill="rgb(0,0,0)" stroke="none">07.08</tspan></tspan></tspan></text>
 <text class="TextShape"><tspan class="TextParagraph" font-family="Liberation Sans, sans-serif" font-size="388px" font-weight="400"><tspan class="TextPosition" x="1078" y="22885"><tspan fill="rgb(0,0,0)" stroke="none">0</tspan></tspan></tspan></text>
 <text class="TextShape"><tspan class="TextParagraph" font-family="Liberation Sans, sans-serif" font-size="388px" font-weight="400"><tspan class="TextPosition" x="655" y="20777"><tspan fill="rgb(0,0,0)" stroke="none">500</tspan></tspan></tspan></text>
 <text class="TextShape"><tspan class="TextParagraph" font-family="Liberation Sans, sans-serif" font-size="388px" font-weight="400"><tspan class="TextPosition" x="443" y="18669"><tspan fill="rgb(0,0,0)" stroke="none">1000</tspan></tspan></tspan></text>
 <text class="TextShape"><tspan class="TextParagraph" font-family="Liberation Sans, sans-serif" font-size="388px" font-weight="400"><tspan class="TextPosition" x="443" y="16561"><tspan fill="rgb(0,0,0)" stroke="none">1500</tspan></tspan></tspan></text>
 <text class="TextShape"><tspan class="TextParagraph" font-family="Liberation Sans, sans-serif" font-size="388px" font-weight="400"><tspan class="TextPosition" x="443" y="14453"><tspan fill="rgb(0,0,0)" stroke="none">2000</tspan></tspan></tspan></text>
 <text class="TextShape"><tspan class="TextParagraph" font-family="Liberation Sans, sans-serif" font-size="388px" font-weight="400"><tspan class="TextPosition" x="443" y="12345"><tspan fill="rgb(0,0,0)" stroke="none">2500</tspan></tspan></tspan></text>
 <text class="TextShape"><tspan class="TextParagraph" font-family="Liberation Sans, sans-serif" font-size="388px" font-weight="400"><tspan class="TextPosition" x="443" y="10237"><tspan fill="rgb(0,0,0)" stroke="none">3000</tspan></tspan></tspan></text>
 <text class="TextShape"><tspan class="TextParagraph" font-family="Liberation Sans, sans-serif" font-size="388px" font-weight="400"><tspan class="TextPosition" x="443" y="8129"><tspan fill="rgb(0,0,0)" stroke="none">3500</tspan></tspan></tspan></text>
 <text class="TextShape"><tspan class="TextParagraph" font-family="Liberation Sans, sans-serif" font-size="388px" font-weight="400"><tspan class="TextPosition" x="443" y="6021"><tspan fill="rgb(0,0,0)" stroke="none">4000</tspan></tspan></tspan></text>
 <text class="TextShape"><tspan class="TextParagraph" font-family="Liberation Sans, sans-serif" font-size="388px" font-weight="400"><tspan class="TextPosition" x="443" y="3913"><tspan fill="rgb(0,0,0)" stroke="none">4500</tspan></tspan></tspan></text>
 <text class="TextShape"><tspan class="TextParagraph" font-family="Liberation Sans, sans-serif" font-size="388px" font-weight="400"><tspan class="TextPosition" x="443" y="1806"><tspan fill="rgb(0,0,0)" stroke="none">5000</tspan></tspan></tspan></text>
 <text class="TextShape"><tspan class="TextParagraph" font-family="Liberation Sans, sans-serif" font-size="494px" font-weight="700"><tspan class="TextPosition" x="147" y="989"><tspan fill="rgb(0,0,0)" stroke="none">Poet infikovanch na milin obyvatel (mtko do 5000 na milin obyvatel)</tspan></tspan></tspan></text>
 <path fill="none" stroke="rgb(112,110,12)" stroke-width="80" stroke-linejoin="round" stroke-dasharray="80,40" d="M 18814,2164 L 20414,2164"/>
 <path fill="none" stroke="rgb(141,40,30)" stroke-width="80" stroke-linejoin="round" stroke-dasharray="80,40" d="M 18814,3172 L 20414,3172"/>
 <path fill="none" stroke="rgb(255,64,0)" stroke-width="80" stroke-linejoin="round" stroke-dasharray="80,40" d="M 18814,4180 L 20414,4180"/>
 <path fill="none" stroke="rgb(241,13,12)" stroke-width="80" stroke-linejoin="round" d="M 18814,5188 L 20414,5188"/>
 <path fill="none" stroke="rgb(128,0,128)" stroke-width="80" stroke-linejoin="round" d="M 18814,6196 L 20414,6196"/>
 <path fill="none" stroke="rgb(255,128,0)" stroke-width="80" stroke-linejoin="round" d="M 18814,7204 L 20414,7204"/>
 <path fill="none" stroke="rgb(129,212,26)" stroke-width="80" stroke-linejoin="round" d="M 18814,8212 L 20414,8212"/>
 <path fill="none" stroke="rgb(131,202,255)" stroke-width="80" stroke-linejoin="round" d="M 18814,9220 L 20414,9220"/>
 <path fill="none" stroke="rgb(21,132,102)" stroke-width="80" stroke-linejoin="round" stroke-dasharray="51,127,51,127,254,127,254,127,254,127" d="M 18814,10228 L 20414,10228"/>
 <path fill="none" stroke="rgb(0,169,51)" stroke-width="80" stroke-linejoin="round" stroke-dasharray="80,40" d="M 18814,11236 L 20414,11236"/>
 <path fill="none" stroke="rgb(0,0,255)" stroke-width="80" stroke-linejoin="round" stroke-dasharray="51,127,51,127,254,127,254,127,254,127" d="M 18814,12244 L 20414,12244"/>
 <path fill="none" stroke="rgb(85,48,141)" stroke-width="80" stroke-linejoin="round" stroke-dasharray="80,40" d="M 18814,13251 L 20414,13251"/>
 <path fill="none" stroke="rgb(52,42,6)" stroke-width="80" stroke-linejoin="round" d="M 18814,14259 L 20414,14259"/>
 <path fill="none" stroke="rgb(21,132,102)" stroke-width="80" stroke-linejoin="round" stroke-dasharray="80,203,80,203,203,203" d="M 18814,15267 L 20414,15267"/>
 <path fill="none" stroke="rgb(180,120,4)" stroke-width="80" stroke-linejoin="round" d="M 18814,16275 L 20414,16275"/>
 <path fill="none" stroke="rgb(0,169,51)" stroke-width="80" stroke-linejoin="round" d="M 18814,17283 L 20414,17283"/>
 <path fill="none" stroke="rgb(89,131,176)" stroke-width="80" stroke-linejoin="round" d="M 18814,18291 L 20414,18291"/>
 <path fill="none" stroke="rgb(255,191,0)" stroke-width="80" stroke-linejoin="round" d="M 18814,19299 L 20414,19299"/>
 <path fill="none" stroke="rgb(191,0,65)" stroke-width="80" stroke-linejoin="round" stroke-dasharray="51,127,51,127,254,127,254,127,254,127" d="M 18814,20307 L 20414,20307"/>
 <path fill="none" stroke="rgb(128,0,128)" stroke-width="80" stroke-linejoin="round" stroke-dasharray="158,158" d="M 18814,21315 L 20414,21315"/>
 <path fill="none" stroke="rgb(0,0,255)" stroke-width="80" stroke-linejoin="round" stroke-dasharray="158,158" d="M 18814,22323 L 20414,22323"/>
 <text class="TextShape"><tspan class="TextParagraph" font-family="Liberation Sans, sans-serif" font-size="423px" font-weight="400"><tspan class="TextPosition" x="20514" y="2312"><tspan fill="rgb(0,0,0)" stroke="none">Stt New York</tspan></tspan></tspan></text>
 <text class="TextShape"><tspan class="TextParagraph" font-family="Liberation Sans, sans-serif" font-size="423px" font-weight="400"><tspan class="TextPosition" x="20514" y="3320"><tspan fill="rgb(0,0,0)" stroke="none">USA</tspan></tspan></tspan></text>
 <text class="TextShape"><tspan class="TextParagraph" font-family="Liberation Sans, sans-serif" font-size="423px" font-weight="400"><tspan class="TextPosition" x="20514" y="4328"><tspan fill="rgb(0,0,0)" stroke="none">Brazlie</tspan></tspan></tspan></text>
 <text class="TextShape"><tspan class="TextParagraph" font-family="Liberation Sans, sans-serif" font-size="423px" font-weight="400"><tspan class="TextPosition" x="20514" y="5336"><tspan fill="rgb(0,0,0)" stroke="none">vdsko</tspan></tspan></tspan></text>
 <text class="TextShape"><tspan class="TextParagraph" font-family="Liberation Sans, sans-serif" font-size="423px" font-weight="400"><tspan class="TextPosition" x="20514" y="6344"><tspan fill="rgb(0,0,0)" stroke="none">panlsko</tspan></tspan></tspan></text>
 <text class="TextShape"><tspan class="TextParagraph" font-family="Liberation Sans, sans-serif" font-size="423px" font-weight="400"><tspan class="TextPosition" x="20514" y="7352"><tspan fill="rgb(0,0,0)" stroke="none">Velk Britnie</tspan></tspan></tspan></text>
 <text class="TextShape"><tspan class="TextParagraph" font-family="Liberation Sans, sans-serif" font-size="423px" font-weight="400"><tspan class="TextPosition" x="20514" y="8360"><tspan fill="rgb(0,0,0)" stroke="none">vcarsko</tspan></tspan></tspan></text>
 <text class="TextShape"><tspan class="TextParagraph" font-family="Liberation Sans, sans-serif" font-size="423px" font-weight="400"><tspan class="TextPosition" x="20514" y="9368"><tspan fill="rgb(0,0,0)" stroke="none">Itlie</tspan></tspan></tspan></text>
 <text class="TextShape"><tspan class="TextParagraph" font-family="Liberation Sans, sans-serif" font-size="423px" font-weight="400"><tspan class="TextPosition" x="20514" y="10376"><tspan fill="rgb(0,0,0)" stroke="none">EU_star zem</tspan></tspan></tspan></text>
 <text class="TextShape"><tspan class="TextParagraph" font-family="Liberation Sans, sans-serif" font-size="423px" font-weight="400"><tspan class="TextPosition" x="20514" y="11384"><tspan fill="rgb(0,0,0)" stroke="none">Mexiko</tspan></tspan></tspan></text>
 <text class="TextShape"><tspan class="TextParagraph" font-family="Liberation Sans, sans-serif" font-size="423px" font-weight="400"><tspan class="TextPosition" x="20514" y="12392"><tspan fill="rgb(0,0,0)" stroke="none">EU</tspan></tspan></tspan></text>
 <text class="TextShape"><tspan class="TextParagraph" font-family="Liberation Sans, sans-serif" font-size="423px" font-weight="400"><tspan class="TextPosition" x="20514" y="13399"><tspan fill="rgb(0,0,0)" stroke="none">Kanada</tspan></tspan></tspan></text>
 <text class="TextShape"><tspan class="TextParagraph" font-family="Liberation Sans, sans-serif" font-size="423px" font-weight="400"><tspan class="TextPosition" x="20514" y="14407"><tspan fill="rgb(0,0,0)" stroke="none">Nmecko</tspan></tspan></tspan></text>
 <text class="TextShape"><tspan class="TextParagraph" font-family="Liberation Sans, sans-serif" font-size="423px" font-weight="400"><tspan class="TextPosition" x="20514" y="15415"><tspan fill="rgb(0,0,0)" stroke="none">celosvtov</tspan></tspan></tspan></text>
 <text class="TextShape"><tspan class="TextParagraph" font-family="Liberation Sans, sans-serif" font-size="423px" font-weight="400"><tspan class="TextPosition" x="20514" y="16423"><tspan fill="rgb(0,0,0)" stroke="none">Dnsko</tspan></tspan></tspan></text>
 <text class="TextShape"><tspan class="TextParagraph" font-family="Liberation Sans, sans-serif" font-size="423px" font-weight="400"><tspan class="TextPosition" x="20514" y="17431"><tspan fill="rgb(0,0,0)" stroke="none">Rakousko</tspan></tspan></tspan></text>
 <text class="TextShape"><tspan class="TextParagraph" font-family="Liberation Sans, sans-serif" font-size="423px" font-weight="400"><tspan class="TextPosition" x="20514" y="18439"><tspan fill="rgb(0,0,0)" stroke="none">Norsko</tspan></tspan></tspan></text>
 <text class="TextShape"><tspan class="TextParagraph" font-family="Liberation Sans, sans-serif" font-size="423px" font-weight="400"><tspan class="TextPosition" x="20514" y="19447"><tspan fill="rgb(0,0,0)" stroke="none">esko</tspan></tspan></tspan></text>
 <text class="TextShape"><tspan class="TextParagraph" font-family="Liberation Sans, sans-serif" font-size="423px" font-weight="400"><tspan class="TextPosition" x="20514" y="20455"><tspan fill="rgb(0,0,0)" stroke="none">EU_nov zem</tspan></tspan></tspan></text>
 <text class="TextShape"><tspan class="TextParagraph" font-family="Liberation Sans, sans-serif" font-size="423px" font-weight="400"><tspan class="TextPosition" x="20514" y="21463"><tspan fill="rgb(0,0,0)" stroke="none">Indie</tspan></tspan></tspan></text>
 <text class="TextShape"><tspan class="TextParagraph" font-family="Liberation Sans, sans-serif" font-size="423px" font-weight="400"><tspan class="TextPosition" x="20514" y="22471"><tspan fill="rgb(0,0,0)" stroke="none">Jin Korea</tspan></tspan></tspan></text>
</svg>