<?xml version="1.0" encoding="UTF-8"?>
<!DOCTYPE svg PUBLIC "-//W3C//DTD SVG 1.1//EN" "http://www.w3.org/Graphics/SVG/1.1/DTD/svg11.dtd">
<svg width="236mm" height="250mm" viewBox="0 0 23600 25000" version="1.1" xmlns="http://www.w3.org/2000/svg" xmlns:xlink="http://www.w3.org/1999/xlink" stroke-width="28.222" stroke-linejoin="round" xml:space="preserve">
 <path fill="rgb(255,255,255)" stroke="none" d="M 11842,25000 L 85,25000 85,0 23600,0 23600,25000 11842,25000 Z"/>
 <path fill="none" stroke="rgb(179,179,179)" stroke-linejoin="round" d="M 9885,23331 L 1304,23331 1304,1596 18467,1596 18467,23331 9885,23331 Z"/>
 <path fill="none" stroke="rgb(179,179,179)" stroke-linejoin="round" d="M 18467,23330 L 1304,23330"/>
 <path fill="none" stroke="rgb(179,179,179)" stroke-linejoin="round" d="M 18467,19707 L 1304,19707"/>
 <path fill="none" stroke="rgb(179,179,179)" stroke-linejoin="round" d="M 18467,16084 L 1304,16084"/>
 <path fill="none" stroke="rgb(179,179,179)" stroke-linejoin="round" d="M 18467,12463 L 1304,12463"/>
 <path fill="none" stroke="rgb(179,179,179)" stroke-linejoin="round" d="M 18467,8840 L 1304,8840"/>
 <path fill="none" stroke="rgb(179,179,179)" stroke-linejoin="round" d="M 18467,5217 L 1304,5217"/>
 <path fill="none" stroke="rgb(179,179,179)" stroke-linejoin="round" d="M 18467,1595 L 1304,1595"/>
 <path fill="none" stroke="rgb(179,179,179)" stroke-linejoin="round" d="M 1304,23480 L 1304,23330"/>
 <path fill="none" stroke="rgb(179,179,179)" stroke-linejoin="round" d="M 1304,23480 L 1304,23330"/>
 <path fill="none" stroke="rgb(179,179,179)" stroke-linejoin="round" d="M 2083,23480 L 2083,23330"/>
 <path fill="none" stroke="rgb(179,179,179)" stroke-linejoin="round" d="M 2083,23480 L 2083,23330"/>
 <path fill="none" stroke="rgb(179,179,179)" stroke-linejoin="round" d="M 2864,23480 L 2864,23330"/>
 <path fill="none" stroke="rgb(179,179,179)" stroke-linejoin="round" d="M 2864,23480 L 2864,23330"/>
 <path fill="none" stroke="rgb(179,179,179)" stroke-linejoin="round" d="M 3644,23480 L 3644,23330"/>
 <path fill="none" stroke="rgb(179,179,179)" stroke-linejoin="round" d="M 3644,23480 L 3644,23330"/>
 <path fill="none" stroke="rgb(179,179,179)" stroke-linejoin="round" d="M 4424,23480 L 4424,23330"/>
 <path fill="none" stroke="rgb(179,179,179)" stroke-linejoin="round" d="M 4424,23480 L 4424,23330"/>
 <path fill="none" stroke="rgb(179,179,179)" stroke-linejoin="round" d="M 5204,23480 L 5204,23330"/>
 <path fill="none" stroke="rgb(179,179,179)" stroke-linejoin="round" d="M 5204,23480 L 5204,23330"/>
 <path fill="none" stroke="rgb(179,179,179)" stroke-linejoin="round" d="M 5984,23480 L 5984,23330"/>
 <path fill="none" stroke="rgb(179,179,179)" stroke-linejoin="round" d="M 5984,23480 L 5984,23330"/>
 <path fill="none" stroke="rgb(179,179,179)" stroke-linejoin="round" d="M 6764,23480 L 6764,23330"/>
 <path fill="none" stroke="rgb(179,179,179)" stroke-linejoin="round" d="M 6764,23480 L 6764,23330"/>
 <path fill="none" stroke="rgb(179,179,179)" stroke-linejoin="round" d="M 7545,23480 L 7545,23330"/>
 <path fill="none" stroke="rgb(179,179,179)" stroke-linejoin="round" d="M 7545,23480 L 7545,23330"/>
 <path fill="none" stroke="rgb(179,179,179)" stroke-linejoin="round" d="M 8325,23480 L 8325,23330"/>
 <path fill="none" stroke="rgb(179,179,179)" stroke-linejoin="round" d="M 8325,23480 L 8325,23330"/>
 <path fill="none" stroke="rgb(179,179,179)" stroke-linejoin="round" d="M 9105,23480 L 9105,23330"/>
 <path fill="none" stroke="rgb(179,179,179)" stroke-linejoin="round" d="M 9105,23480 L 9105,23330"/>
 <path fill="none" stroke="rgb(179,179,179)" stroke-linejoin="round" d="M 9885,23480 L 9885,23330"/>
 <path fill="none" stroke="rgb(179,179,179)" stroke-linejoin="round" d="M 9885,23480 L 9885,23330"/>
 <path fill="none" stroke="rgb(179,179,179)" stroke-linejoin="round" d="M 10665,23480 L 10665,23330"/>
 <path fill="none" stroke="rgb(179,179,179)" stroke-linejoin="round" d="M 10665,23480 L 10665,23330"/>
 <path fill="none" stroke="rgb(179,179,179)" stroke-linejoin="round" d="M 11445,23480 L 11445,23330"/>
 <path fill="none" stroke="rgb(179,179,179)" stroke-linejoin="round" d="M 11445,23480 L 11445,23330"/>
 <path fill="none" stroke="rgb(179,179,179)" stroke-linejoin="round" d="M 12225,23480 L 12225,23330"/>
 <path fill="none" stroke="rgb(179,179,179)" stroke-linejoin="round" d="M 12225,23480 L 12225,23330"/>
 <path fill="none" stroke="rgb(179,179,179)" stroke-linejoin="round" d="M 13006,23480 L 13006,23330"/>
 <path fill="none" stroke="rgb(179,179,179)" stroke-linejoin="round" d="M 13006,23480 L 13006,23330"/>
 <path fill="none" stroke="rgb(179,179,179)" stroke-linejoin="round" d="M 13786,23480 L 13786,23330"/>
 <path fill="none" stroke="rgb(179,179,179)" stroke-linejoin="round" d="M 13786,23480 L 13786,23330"/>
 <path fill="none" stroke="rgb(179,179,179)" stroke-linejoin="round" d="M 14566,23480 L 14566,23330"/>
 <path fill="none" stroke="rgb(179,179,179)" stroke-linejoin="round" d="M 14566,23480 L 14566,23330"/>
 <path fill="none" stroke="rgb(179,179,179)" stroke-linejoin="round" d="M 15346,23480 L 15346,23330"/>
 <path fill="none" stroke="rgb(179,179,179)" stroke-linejoin="round" d="M 15346,23480 L 15346,23330"/>
 <path fill="none" stroke="rgb(179,179,179)" stroke-linejoin="round" d="M 16126,23480 L 16126,23330"/>
 <path fill="none" stroke="rgb(179,179,179)" stroke-linejoin="round" d="M 16126,23480 L 16126,23330"/>
 <path fill="none" stroke="rgb(179,179,179)" stroke-linejoin="round" d="M 16906,23480 L 16906,23330"/>
 <path fill="none" stroke="rgb(179,179,179)" stroke-linejoin="round" d="M 16906,23480 L 16906,23330"/>
 <path fill="none" stroke="rgb(179,179,179)" stroke-linejoin="round" d="M 17687,23480 L 17687,23330"/>
 <path fill="none" stroke="rgb(179,179,179)" stroke-linejoin="round" d="M 17687,23480 L 17687,23330"/>
 <path fill="none" stroke="rgb(179,179,179)" stroke-linejoin="round" d="M 18467,23480 L 18467,23330"/>
 <path fill="none" stroke="rgb(179,179,179)" stroke-linejoin="round" d="M 18467,23480 L 18467,23330"/>
 <path fill="none" stroke="rgb(179,179,179)" stroke-linejoin="round" d="M 1304,23330 L 18467,23330"/>
 <path fill="none" stroke="rgb(179,179,179)" stroke-linejoin="round" d="M 1155,23330 L 1304,23330"/>
 <path fill="none" stroke="rgb(179,179,179)" stroke-linejoin="round" d="M 1155,23330 L 1304,23330"/>
 <path fill="none" stroke="rgb(179,179,179)" stroke-linejoin="round" d="M 1155,19707 L 1304,19707"/>
 <path fill="none" stroke="rgb(179,179,179)" stroke-linejoin="round" d="M 1155,19707 L 1304,19707"/>
 <path fill="none" stroke="rgb(179,179,179)" stroke-linejoin="round" d="M 1155,16084 L 1304,16084"/>
 <path fill="none" stroke="rgb(179,179,179)" stroke-linejoin="round" d="M 1155,16084 L 1304,16084"/>
 <path fill="none" stroke="rgb(179,179,179)" stroke-linejoin="round" d="M 1155,12463 L 1304,12463"/>
 <path fill="none" stroke="rgb(179,179,179)" stroke-linejoin="round" d="M 1155,12463 L 1304,12463"/>
 <path fill="none" stroke="rgb(179,179,179)" stroke-linejoin="round" d="M 1155,8840 L 1304,8840"/>
 <path fill="none" stroke="rgb(179,179,179)" stroke-linejoin="round" d="M 1155,8840 L 1304,8840"/>
 <path fill="none" stroke="rgb(179,179,179)" stroke-linejoin="round" d="M 1155,5217 L 1304,5217"/>
 <path fill="none" stroke="rgb(179,179,179)" stroke-linejoin="round" d="M 1155,5217 L 1304,5217"/>
 <path fill="none" stroke="rgb(179,179,179)" stroke-linejoin="round" d="M 1155,1595 L 1304,1595"/>
 <path fill="none" stroke="rgb(179,179,179)" stroke-linejoin="round" d="M 1155,1595 L 1304,1595"/>
 <path fill="none" stroke="rgb(179,179,179)" stroke-linejoin="round" d="M 1304,23330 L 1304,1595"/>
 <path fill="none" stroke="rgb(0,0,255)" stroke-width="80" stroke-linejoin="round" d="M 2362,23312 L 2474,23312 2586,23312 2697,23312 2808,23312 2919,23214 3031,23214 3143,23214 3254,23214 3366,23098 3477,23098 3588,23098 3700,21883 3811,21883 3923,21883 4034,21883 4146,21883 4257,21883 4368,21883 4480,21883 4591,21883 4703,21883 4814,21883 4926,21883 5037,21807 5148,21732 5260,21654 5371,21590 5483,21515 5595,21486 5706,21391 5817,21272 5928,21223 6040,14628 6152,14394 6263,14348 6375,14293 6486,14293 6597,14261 6709,14032 6820,14032 6932,13729 7043,13552 7155,13477 7267,13457 7377,13341 7489,13187 7600,13127 7712,13057 7823,12953 7935,12907 8046,12884 8157,12829 8269,12724 8380,12675 8492,12626 8604,12617 8715,12580 8826,12571 8937,12542 9049,12505 9161,12485 9272,12456 9384,12430 9495,12390 9606,12384 9718,12361 9829,12326 9941,12291 10052,12291 10164,12239 10275,12205 10386,12196 10498,12158 10609,12121 10721,12089 10833,12080 10944,12048 11055,12043 11166,12040 11278,12034 11389,12017 11501,11993 11613,11982 11724,11962 11835,11956 11946,11950 12058,11944 12170,11930 12281,11918 12393,11898 12503,11883 12615,11875 12727,11875 12838,11857 12950,11849 13061,11849 13173,11820 13284,11820 13395,11765 13507,11762 13618,11747 13730,11721 13842,11710 13953,11710 14064,11710 14175,11710 14287,11594 14399,11594 14510,11594 14622,11507 14733,11507 14844,11507 14956,11227 15067,11192 15179,11041 15290,10960 15402,10793 15512,10793 15624,10793 15736,10413 15847,10370 15959,10222 16070,10046 16182,9884 16293,9884 16404,9884 16516,9369 16627,9282 16739,8981 16851,8784 16962,8307 17073,8307 17184,8307 17296,7421 17408,7309 17519,7060 17631,6692 17741,6409 17853,6409 17965,6409 18076,5477 18188,5326 18299,5211 18411,4771"/>
 <path fill="none" stroke="rgb(129,212,26)" stroke-width="80" stroke-linejoin="round" stroke-dasharray="80,40" d="M 1805,23328 L 1917,23328 2029,23328 2139,23328 2251,23328 2362,23328 2474,23328 2586,23328 2697,23328 2808,23328 2919,23328 3031,23328 3143,23328 3254,23328 3366,23328 3477,23328 3588,23328 3700,23328 3811,23320 3923,23320 4034,23320 4146,23320 4257,23320 4368,23320 4480,23320 4591,23320 4703,23320 4814,23320 4926,23320 5037,23301 5148,23301 5260,23301 5371,23301 5483,23301 5595,23301 5706,19943 5817,19943 5928,19943 6040,19943 6152,19943 6263,19943 6375,19943 6486,19943 6597,18419 6709,18419 6820,18419 6932,18419 7043,18419 7155,18419 7267,18419 7377,17053 7489,17053 7600,17053 7712,17053 7823,17053 7935,17053 8046,17053 8157,16187 8269,16187 8380,16187 8492,16187 8604,16187 8715,16187 8826,16187 8937,15604 9049,15604 9161,15604 9272,15604 9384,15604 9495,15604 9606,15604 9718,15227 9829,15227 9941,15227 10052,15227 10164,15227 10275,15227 10386,15227 10498,15003 10609,15003 10721,15003 10833,15003 10944,15003 11055,15003 11166,15003 11278,15003 11389,15003 11501,15003 11613,15003 11724,15003 11835,15003 11946,15003 12058,15003 12170,15003 12281,15003 12393,15003 12503,15003 12615,15003 12727,15003 12838,14759 12950,14759 13061,14759 13173,14759 13284,14759 13395,14759 13507,14759 13618,14759 13730,14759 13842,14759 13953,14759 14064,14759 14175,14759 14287,14759 14399,14759 14510,14759 14622,14759 14733,14759 14844,14759 14956,14759 15067,14759 15179,14759 15290,14759 15402,14759 15512,14759 15624,14759 15736,14759 15847,14759 15959,14759 16070,14759 16182,14759 16293,14759 16404,14759 16516,14759 16627,14759 16739,14759 16851,14759 16962,14759 17073,14759 17184,14759 17296,14759 17408,14759 17519,14759 17631,14759 17741,14759 17853,14759 17965,14759 18076,14759 18188,14759 18299,14759 18411,14759"/>
 <path fill="none" stroke="rgb(128,0,128)" stroke-width="80" stroke-linejoin="round" stroke-dasharray="158,158" d="M 1359,23329 L 1471,23329 1582,23329 1694,23329 1805,23329 1917,23329 2029,23329 2139,23329 2251,23329 2362,23329 2474,23329 2586,23326 2697,23326 2808,23322 2919,23322 3031,23322 3143,23322 3254,23322 3366,23322 3477,23322 3588,23317 3700,23317 3811,23316 3923,23316 4034,23305 4146,23297 4257,23295 4368,23293 4480,23288 4591,23282 4703,23280 4814,23280 4926,23268 5037,23261 5148,23242 5260,23237 5371,23221 5483,23221 5595,23221 5706,23167 5817,23126 5928,23116 6040,23111 6152,23103 6263,23093 6375,23088 6486,23083 6597,23068 6709,23060 6820,23037 6932,23033 7043,23029 7155,23025 7267,23020 7377,22961 7489,22928 7600,22899 7712,22886 7823,22877 7935,22877 8046,22794 8157,22764 8269,22761 8380,22738 8492,22651 8604,22506 8715,22187 8826,22187 8937,22183 9049,22183 9161,21981 9272,21961 9384,20212 9495,20164 9606,20115 9718,20070 9829,20019 9941,19970 10052,19921 10164,19882 10275,19856 10386,19800 10498,19763 10609,19719 10721,19683 10833,19633 10944,19600 11055,19571 11166,19539 11278,19467 11389,19421 11501,19386 11613,19344 11724,19303 11835,19270 11946,19206 12058,19141 12170,19064 12281,18981 12393,18905 12503,18822 12615,18791 12727,18741 12838,18696 12950,18643 13061,18598 13173,18557 13284,18522 13395,18497 13507,18444 13618,18391 13730,18338 13842,18280 13953,18218 14064,18175 14175,18148 14287,18099 14399,18051 14510,17992 14622,17938 14733,17884 14844,17839 14956,17811 15067,17725 15179,17626 15290,17560 15402,17505 15512,17440 15624,17402 15736,17370 15847,17331 15959,17290 16070,17224 16182,17168 16293,17110 16404,17074 16516,17046 16627,17001 16739,16957 16851,16910 16962,16849 17073,16795 17184,16760 17296,16737 17408,16700 17519,16656 17631,16608 17741,16564 17853,16515 17965,16488 18076,16473 18188,16444 18299,16412 18411,16370"/>
 <path fill="none" stroke="rgb(131,202,255)" stroke-width="80" stroke-linejoin="round" d="M 1359,23286 L 1471,23271 1582,23260 1694,23247 1805,23241 1917,23209 2029,23196 2139,23196 2251,23148 2362,23119 2474,23119 2586,23080 2697,23049 2808,23019 2919,23001 3031,22958 3143,22939 3254,22892 3366,22858 3477,22825 3588,22782 3700,22738 3811,22700 3923,22676 4034,22645 4146,22599 4257,22536 4368,22477 4480,22417 4591,22355 4703,22305 4814,22268 4926,22217 5037,22188 5148,22126 5260,22049 5371,21984 5483,21920 5595,21865 5706,21784 5817,21695 5928,21605 6040,21517 6152,21439 6263,21384 6375,21334 6486,21264 6597,21195 6709,21054 6820,20985 6932,20935 7043,20883 7155,20847 7267,20776 7377,20536 7489,20445 7600,20363 7712,20243 7823,20178 7935,20136 8046,20063 8157,19958 8269,19876 8380,19728 8492,19650 8604,19579 8715,19515 8826,19453 8937,19367 9049,19298 9161,19234 9272,19170 9384,19121 9495,19076 9606,18996 9718,18923 9829,18818 9941,18751 10052,18667 10164,18611 10275,18585 10386,18533 10498,18508 10609,18479 10721,18423 10833,18384 10944,18361 11055,18339 11166,18277 11278,18238 11389,18197 11501,18144 11613,18091 11724,18046 11835,18027 11946,17981 12058,17953 12170,17921 12281,17880 12393,17864 12503,17850 12615,17834 12727,17800 12838,17754 12950,17736 13061,17709 13173,17680 13284,17671 13395,17662 13507,17630 13618,17616 13730,17605 13842,17593 13953,17579 14064,17574 14175,17570 14287,17553 14399,17528 14510,17518 14622,17509 14733,17500 14844,17490 14956,17484 15067,17474 15179,17457 15290,17450 15402,17443 15512,17434 15624,17429 15736,17423 15847,17415 15959,17409 16070,17402 16182,17392 16293,17388 16404,17384 16516,17380 16627,17375 16739,17367 16851,17344 16962,17339 17073,17331 17184,17324 17296,17320 17408,17315 17519,17309 17631,17298 17741,17289 17853,17280 17965,17275 18076,17270 18188,17264 18299,17257 18411,17250"/>
 <path fill="none" stroke="rgb(128,0,128)" stroke-width="80" stroke-linejoin="round" d="M 1359,23322 L 1471,23309 1582,23309 1694,23309 1805,23290 1917,23288 2029,23287 2139,23268 2251,23247 2362,23230 2474,23230 2586,23183 2697,23122 2808,23058 2919,22967 3031,22854 3143,22760 3254,22679 3366,22583 3477,22452 3588,22293 3700,22147 3811,22004 3923,21854 4034,21763 4146,21656 4257,21469 4368,21309 4480,21173 4591,21040 4703,20912 4814,20822 4926,20714 5037,20585 5148,20432 5260,20432 5371,20432 5483,20333 5595,20207 5706,20133 5817,20001 5928,19872 6040,19752 6152,19622 6263,19518 6375,19421 6486,19357 6597,19109 6709,18989 6820,18989 6932,18787 7043,18723 7155,18629 7267,18546 7377,18448 7489,18351 7600,18249 7712,18140 7823,18054 7935,18017 8046,17945 8157,17874 8269,17775 8380,17720 8492,17656 8604,17656 8715,17504 8826,17504 8937,17504 9049,17504 9161,17504 9272,17504 9384,17504 9495,17504 9606,17504 9718,17504 9829,17504 9941,17504 10052,17504 10164,17504 10275,17504 10386,17504 10498,17504 10609,17504 10721,17504 10833,17504 10944,17504 11055,17504 11166,17504 11278,17504 11389,17504 11501,17504 11613,17504 11724,17504 11835,17504 11946,17504 12058,17504 12170,17504 12281,17504 12393,17504 12503,17504 12615,17504 12727,17504 12838,17504 12950,17504 13061,17504 13173,17504 13284,17504 13395,17504 13507,17504 13618,17504 13730,17504 13842,17504 13953,17504 14064,17504 14175,17504 14287,17504 14399,17504 14510,17504 14622,17504 14733,17504 14844,17504 14956,17504 15067,17504 15179,17504 15290,17504 15402,17504 15512,17504 15624,17504 15736,17504 15847,17504 15959,17504 16070,17504 16182,17504 16293,17504 16404,17504 16516,17504 16627,17504 16739,17504 16851,17504 16962,17504 17073,17504 17184,17504 17296,17504 17408,17504 17519,17504 17631,17504 17741,17504 17853,17504 17965,17504 18076,17504 18188,17504 18299,17504 18411,17504"/>
 <path fill="none" stroke="rgb(52,42,6)" stroke-width="80" stroke-linejoin="round" d="M 1359,23329 L 1471,23329 1582,23329 1694,23328 1805,23328 1917,23327 2029,23327 2139,23326 2251,23324 2362,23324 2474,23324 2586,23259 2697,23253 2808,23207 2919,23186 3031,23146 3143,23130 3254,23038 3366,22981 3477,22925 3588,22844 3700,22798 3811,22759 3923,22709 4034,22709 4146,22549 4257,22329 4368,22197 4480,22164 4591,22089 4703,22026 4814,21939 4926,21855 5037,21760 5148,21665 5260,21533 5371,21483 5483,21427 5595,21351 5706,21271 5817,21181 5928,21096 6040,20956 6152,20956 6263,20908 6375,20854 6486,20791 6597,20727 6709,20660 6820,20586 6932,20541 7043,20506 7155,20461 7267,20409 7377,20305 7489,20266 7600,20266 7712,20231 7823,20208 7935,20181 8046,20147 8157,20115 8269,20080 8380,20052 8492,20030 8604,20000 8715,19978 8826,19964 8937,19936 9049,19912 9161,19891 9272,19877 9384,19864 9495,19845 9606,19828 9718,19809 9829,19798 9941,19779 10052,19764 10164,19755 10275,19749 10386,19728 10498,19709 10609,19699 10721,19687 10833,19677 10944,19671 11055,19664 11166,19651 11278,19641 11389,19633 11501,19621 11613,19612 11724,19609 11835,19596 11946,19593 12058,19576 12170,19571 12281,19568 12393,19555 12503,19552 12615,19543 12727,19528 12838,19515 12950,19508 13061,19500 13173,19492 13284,19489 13395,19486 13507,19479 13618,19458 13730,19442 13842,19432 13953,19416 14064,19401 14175,19391 14287,19381 14399,19370 14510,19357 14622,19351 14733,19346 14844,19343 14956,19328 15067,19328 15179,19308 15290,19300 15402,19289 15512,19282 15624,19278 15736,19264 15847,19260 15959,19252 16070,19240 16182,19228 16293,19224 16404,19221 16516,19215 16627,19207 16739,19194 16851,19188 16962,19179 17073,19165 17184,19159 17296,19144 17408,19132 17519,19123 17631,19108 17741,19094 17853,19080 17965,19075 18076,19062 18188,19041 18299,19027 18411,19013"/>
 <path fill="none" stroke="rgb(0,169,51)" stroke-width="80" stroke-linejoin="round" d="M 1359,23328 L 1471,23328 1582,23328 1694,23328 1805,23329 1917,23328 2029,23328 2139,23328 2251,23328 2362,23328 2474,23328 2586,23328 2697,23328 2808,23307 2919,23284 3031,23284 3143,23233 3254,23202 3366,23109 3477,23041 3588,22978 3700,22923 3811,22825 3923,22727 4034,22633 4146,22516 4257,22422 4368,22276 4480,22110 4591,22001 4703,21924 4814,21853 4926,21794 5037,21701 5148,21522 5260,21378 5371,21275 5483,21218 5595,21191 5706,21123 5817,21051 5928,20978 6040,20942 6152,20895 6263,20859 6375,20843 6486,20799 6597,20759 6709,20734 6820,20693 6932,20679 7043,20669 7155,20651 7267,20622 7377,20586 7489,20575 7600,20547 7712,20528 7823,20516 7935,20502 8046,20484 8157,20453 8269,20432 8380,20419 8492,20408 8604,20401 8715,20390 8826,20378 8937,20336 9049,20323 9161,20312 9272,20305 9384,20300 9495,20285 9606,20276 9718,20267 9829,20255 9941,20243 10052,20208 10164,20193 10275,20193 10386,20186 10498,20178 10609,20169 10721,20164 10833,20154 10944,20153 11055,20144 11166,20137 11278,20130 11389,20122 11501,20115 11613,20109 11724,20100 11835,20098 11946,20094 12058,20092 12170,20091 12281,20083 12393,20076 12503,20072 12615,20063 12727,20059 12838,20055 12950,20047 13061,20042 13173,20037 13284,20031 13395,20027 13507,20016 13618,20013 13730,20008 13842,19999 13953,19990 14064,19988 14175,19982 14287,19974 14399,19967 14510,19959 14622,19949 14733,19938 14844,19920 14956,19911 15067,19896 15179,19875 15290,19861 15402,19843 15512,19810 15624,19790 15736,19778 15847,19767 15959,19740 16070,19721 16182,19701 16293,19684 16404,19667 16516,19660 16627,19633 16739,19603 16851,19583 16962,19557 17073,19526 17184,19512 17296,19496 17408,19441 17519,19415 17631,19388 17741,19370 17853,19345 17965,19323 18076,19305 18188,19282 18299,19253 18411,19238"/>
 <path fill="none" stroke="rgb(180,120,4)" stroke-width="80" stroke-linejoin="round" d="M 1359,23329 L 1471,23329 1582,23329 1694,23329 1805,23329 1917,23329 2029,23329 2139,23329 2251,23329 2362,23329 2474,23329 2586,23318 2697,23317 2808,23314 2919,23312 3031,23312 3143,23307 3254,23307 3366,23306 3477,23031 3588,22970 3700,22934 3811,22906 3923,22891 4034,22872 4146,22832 4257,22788 4368,22751 4480,22737 4591,22681 4703,22626 4814,22591 4926,22504 5037,22431 5148,22346 5260,22233 5371,22092 5483,22000 5595,21948 5706,21828 5817,21709 5928,21618 6040,21574 6152,21530 6263,21489 6375,21441 6486,21391 6597,21315 6709,21259 6820,21203 6932,21154 7043,21123 7155,21092 7267,21029 7377,20968 7489,20901 7600,20834 7712,20783 7823,20745 7935,20711 8046,20634 8157,20608 8269,20565 8380,20517 8492,20472 8604,20435 8715,20412 8826,20377 8937,20340 9049,20307 9161,20270 9272,20248 9384,20228 9495,20209 9606,20184 9718,20165 9829,20142 9941,20124 10052,20097 10164,20086 10275,20071 10386,20047 10498,20028 10609,20006 10721,19996 10833,19975 10944,19965 11055,19954 11166,19936 11278,19919 11389,19904 11501,19892 11613,19879 11724,19869 11835,19862 11946,19851 12058,19833 12170,19815 12281,19803 12393,19803 12503,19803 12615,19783 12727,19769 12838,19760 12950,19749 13061,19734 13173,19734 13284,19734 13395,19702 13507,19690 13618,19677 13730,19654 13842,19639 13953,19639 14064,19639 14175,19603 14287,19588 14399,19582 14510,19569 14622,19559 14733,19559 14844,19559 14956,19542 15067,19533 15179,19526 15290,19522 15402,19518 15512,19518 15624,19518 15736,19505 15847,19502 15959,19498 16070,19491 16182,19478 16293,19478 16404,19478 16516,19454 16627,19444 16739,19433 16851,19421 16962,19405 17073,19405 17184,19404 17296,19372 17408,19362 17519,19350 17631,19339 17741,19323 17853,19323 17965,19316 18076,19290 18188,19267 18299,19243 18411,19223"/>
 <path fill="none" stroke="rgb(255,0,0)" stroke-width="80" stroke-linejoin="round" stroke-dasharray="158,158" d="M 1359,23329 L 1471,23329 1582,23329 1694,23329 1805,23328 1917,23328 2029,23327 2139,23327 2251,23325 2362,23323 2474,23323 2586,23322 2697,23321 2808,23321 2919,23319 3031,23316 3143,23310 3254,23310 3366,23309 3477,23306 3588,23304 3700,23303 3811,23299 3923,23294 4034,23291 4146,23286 4257,23280 4368,23269 4480,23261 4591,23258 4703,23249 4814,23243 4926,23231 5037,23215 5148,23202 5260,23188 5371,23167 5483,23151 5595,23140 5706,23127 5817,23103 5928,23096 6040,23064 6152,23057 6263,23042 6375,23034 6486,23009 6597,22993 6709,22951 6820,22922 6932,22901 7043,22871 7155,22833 7267,22816 7377,22785 7489,22751 7600,22725 7712,22679 7823,22666 7935,22647 8046,22606 8157,22580 8269,22477 8380,22447 8492,22428 8604,22398 8715,22395 8826,22372 8937,22354 9049,22333 9161,22315 9272,22276 9384,22256 9495,22234 9606,22211 9718,22184 9829,22140 9941,22122 10052,22101 10164,22081 10275,22065 10386,22056 10498,22030 10609,22019 10721,21998 10833,21972 10944,21951 11055,21934 11166,21926 11278,21907 11389,21891 11501,21875 11613,21857 11724,21849 11835,21840 11946,21816 12058,21812 12170,21794 12281,21771 12393,21754 12503,21737 12615,21726 12727,21711 12838,21692 12950,21644 13061,21618 13173,21585 13284,21558 13395,21549 13507,21536 13618,21511 13730,21506 13842,21489 13953,21460 14064,21444 14175,21426 14287,21396 14399,21371 14510,21355 14622,21340 14733,21313 14844,21301 14956,21287 15067,21277 15179,21253 15290,21240 15402,21229 15512,21212 15624,21200 15736,21188 15847,21027 15959,21007 16070,20989 16182,20943 16293,20940 16404,20915 16516,20901 16627,20869 16739,20839 16851,20824 16962,20787 17073,20755 17184,20732 17296,20717 17408,20693 17519,20638 17631,20600 17741,20572 17853,20517 17965,20494 18076,20476 18188,20450 18299,20406 18411,20359"/>
 <path fill="none" stroke="rgb(0,0,0)" stroke-width="80" stroke-linejoin="round" stroke-dasharray="158,158" d="M 1359,23325 L 1471,23325 1582,23325 1694,23321 1805,23321 1917,23321 2029,23321 2139,23321 2251,23321 2362,23321 2474,23321 2586,23321 2697,23321 2808,23321 2919,23321 3031,23321 3143,23321 3254,23321 3366,23321 3477,23321 3588,23321 3700,23321 3811,23321 3923,23309 4034,23309 4146,23309 4257,23264 4368,23264 4480,23264 4591,23264 4703,23149 4814,23149 4926,23149 5037,23149 5148,22993 5260,22956 5371,22923 5483,22845 5595,22813 5706,22714 5817,22653 5928,22493 6040,22415 6152,22308 6263,22173 6375,22156 6486,22087 6597,21939 6709,21890 6820,21758 6932,21775 7043,21721 7155,21693 7267,21676 7377,21660 7489,21635 7600,21611 7712,21578 7823,21553 7935,21549 8046,21549 8157,21541 8269,21512 8380,21451 8492,21483 8604,21467 8715,21459 8826,21442 8937,21422 9049,21410 9161,21406 9272,21389 9384,21377 9495,21340 9606,21340 9718,21315 9829,21274 9941,21221 10052,21176 10164,21139 10275,21127 10386,21057 10498,21024 10609,20967 10721,20938 10833,20885 10944,20885 11055,20885 11166,20880 11278,20880 11389,20868 11501,20868 11613,20864 11724,20856 11835,20856 11946,20835 12058,20827 12170,20827 12281,20815 12393,20802 12503,20802 12615,20798 12727,20794 12838,20770 12950,20757 13061,20737 13173,20725 13284,20720 13395,20708 13507,20704 13618,20675 13730,20667 13842,20663 13953,20659 14064,20655 14175,20655 14287,20651 14399,20647 14510,20638 14622,20630 14733,20630 14844,20622 14956,20622 15067,20622 15179,20618 15290,20618 15402,20614 15512,20614 15624,20614 15736,20606 15847,20606 15959,20601 16070,20601 16182,20601 16293,20601 16404,20601 16516,20601 16627,20601 16739,20601 16851,20601 16962,20601 17073,20601 17184,20597 17296,20597 17408,20597 17519,20589 17631,20581 17741,20560 17853,20560 17965,20524 18076,20507 18188,20491 18299,20478 18411,20425"/>
 <path fill="none" stroke="rgb(255,128,0)" stroke-width="80" stroke-linejoin="round" stroke-dasharray="80,40" d="M 1359,23329 L 1471,23329 1582,23329 1694,23329 1805,23329 1917,23325 2029,23325 2139,23329 2251,23288 2362,23288 2474,23288 2586,23257 2697,23244 2808,23224 2919,23195 3031,23163 3143,23117 3254,23091 3366,23064 3477,22996 3588,22940 3700,22881 3811,22822 3923,22743 4034,22707 4146,22680 4257,22598 4368,22522 4480,22459 4591,22394 4703,22319 4814,22281 4926,22256 5037,22219 5148,22148 5260,22085 5371,22025 5483,21961 5595,21939 5706,21923 5817,21855 5928,21798 6040,21748 6152,21701 6263,21644 6375,21629 6486,21619 6597,21566 6709,21520 6820,21471 6932,21421 7043,21406 7155,21395 7267,21385 7377,21340 7489,21301 7600,21266 7712,21234 7823,21197 7935,21189 8046,21183 8157,21151 8269,21124 8380,21094 8492,21070 8604,21043 8715,21039 8826,21034 8937,21009 9049,20987 9161,20966 9272,20961 9384,20943 9495,20939 9606,20935 9718,20912 9829,20896 9941,20879 10052,20865 10164,20847 10275,20842 10386,20839 10498,20835 10609,20821 10721,20811 10833,20799 10944,20783 11055,20780 11166,20778 11278,20768 11389,20758 11501,20751 11613,20743 11724,20737 11835,20734 11946,20731 12058,20722 12170,20716 12281,20711 12393,20708 12503,20708 12615,20708 12727,20708 12838,20708 12950,20690 13061,20685 13173,20682 13284,20682 13395,20682 13507,20675 13618,20669 13730,20666 13842,20661 13953,20658 14064,20658 14175,20658 14287,20654 14399,20651 14510,20648 14622,20645 14733,20642 14844,20642 14956,20642 15067,20638 15179,20635 15290,20633 15402,20627 15512,20627 15624,20627 15736,20622 15847,20621 15959,20618 16070,20615 16182,20611 16293,20606 16404,20604 16516,20602 16627,20598 16739,20596 16851,20592 16962,20587 17073,20583 17184,20580 17296,20579 17408,20573 17519,20569 17631,20563 17741,20559 17853,20553 17965,20551 18076,20549 18188,20541 18299,20535 18411,20530"/>
 <path fill="none" stroke="rgb(85,48,141)" stroke-width="80" stroke-linejoin="round" stroke-dasharray="80,40" d="M 1582,23328 L 1694,23328 1805,23328 1917,23328 2029,23328 2139,23328 2251,23328 2362,23327 2474,23327 2586,23320 2697,23319 2808,23319 2919,23314 3031,23302 3143,23302 3254,23302 3366,23294 3477,23284 3588,23268 3700,23264 3811,23249 3923,23245 4034,23245 4146,23235 4257,23231 4368,23216 4480,23203 4591,23203 4703,23196 4814,23190 4926,23172 5037,23170 5148,23148 5260,23132 5371,23108 5483,23106 5595,23104 5706,23099 5817,23078 5928,23067 6040,23048 6152,23018 6263,23011 6375,23011 6486,23002 6597,23007 6709,22989 6820,22984 6932,22980 7043,22976 7155,22976 7267,22973 7377,22969 7489,22957 7600,22368 7712,22309 7823,22305 7935,22304 8046,22269 8157,22269 8269,22088 8380,22069 8492,22054 8604,22049 8715,22049 8826,22049 8937,22024 9049,21298 9161,21270 9272,21246 9384,21238 9495,21229 9606,21210 9718,21198 9829,21180 9941,21131 10052,21115 10164,21112 10275,21111 10386,21101 10498,21076 10609,21059 10721,21053 10833,21042 10944,21034 11055,21031 11166,21030 11278,21022 11389,21012 11501,21004 11613,21001 11724,21001 11835,20985 11946,20970 12058,20949 12170,20943 12281,20933 12393,20929 12503,20921 12615,20919 12727,20911 12838,20895 12950,20885 13061,20876 13173,20855 13284,20847 13395,20847 13507,20832 13618,20823 13730,20814 13842,20791 13953,20776 14064,20771 14175,20769 14287,20762 14399,20760 14510,20750 14622,20743 14733,20742 14844,20742 14956,20742 15067,20739 15179,20734 15290,20730 15402,20721 15512,20719 15624,20719 15736,20719 15847,20719 15959,20719 16070,20719 16182,20715 16293,20715 16404,20705 16516,20704 16627,20702 16739,20700 16851,20700 16962,20694 17073,20689 17184,20689 17296,20687 17408,20685 17519,20670 17631,20661 17741,20659 17853,20652 17965,20652 18076,20650 18188,20642 18299,20633 18411,20633"/>
 <path fill="none" stroke="rgb(129,212,26)" stroke-width="80" stroke-linejoin="round" stroke-dasharray="158,158" d="M 1359,23329 L 1471,23329 1582,23326 1694,23326 1805,23326 1917,23326 2029,23326 2139,23326 2251,23326 2362,23326 2474,23326 2586,23326 2697,23326 2808,23326 2919,23326 3031,23326 3143,23326 3254,23326 3366,23326 3477,23326 3588,23231 3700,23231 3811,23231 3923,23231 4034,23231 4146,23231 4257,23231 4368,23231 4480,23231 4591,23231 4703,23231 4814,23231 4926,23231 5037,23231 5148,22774 5260,22774 5371,22774 5483,22774 5595,22676 5706,22676 5817,22676 5928,22676 6040,22512 6152,22512 6263,22512 6375,22512 6486,22414 6597,22414 6709,22349 6820,22349 6932,22349 7043,22349 7155,22185 7267,22185 7377,22185 7489,22185 7600,22022 7712,22022 7823,22022 7935,22022 8046,21924 8157,21924 8269,21924 8380,21695 8492,21695 8604,21695 8715,21695 8826,21695 8937,21760 9049,21760 9161,21760 9272,21760 9384,21760 9495,21662 9606,21662 9718,21662 9829,21531 9941,21531 10052,21531 10164,21531 10275,21531 10386,21531 10498,21531 10609,21433 10721,21433 10833,21433 10944,21433 11055,21433 11166,21433 11278,21433 11389,21303 11501,21303 11613,21303 11724,21303 11835,21303 11946,21303 12058,21303 12170,21303 12281,21303 12393,21303 12503,21303 12615,21237 12727,21237 12838,21172 12950,21172 13061,21172 13173,21172 13284,21172 13395,21172 13507,21172 13618,21139 13730,21139 13842,21139 13953,21139 14064,21139 14175,21139 14287,21139 14399,21106 14510,21106 14622,21106 14733,21106 14844,21106 14956,21106 15067,21106 15179,21080 15290,21080 15402,21080 15512,21080 15624,21080 15736,21080 15847,21080 15959,21067 16070,21067 16182,21067 16293,21067 16404,21067 16516,21067 16627,21067 16739,21057 16851,21057 16962,21057 17073,21057 17184,21057 17296,21057 17408,21057 17519,21048 17631,21048 17741,21048 17853,21048 17965,21048 18076,21048 18188,21048 18299,21025 18411,21025"/>
 <path fill="none" stroke="rgb(0,0,255)" stroke-width="80" stroke-linejoin="round" stroke-dasharray="80,40" d="M 1359,23329 L 1471,23329 1582,23329 1694,23329 1805,23329 1917,23329 2029,23329 2139,23329 2251,23329 2362,23271 2474,23271 2586,23243 2697,23226 2808,23198 2919,23178 3031,23177 3143,23137 3254,23118 3366,23077 3477,23036 3588,22996 3700,22954 3811,22916 3923,22895 4034,22866 4146,22810 4257,22759 4368,22707 4480,22660 4591,22621 4703,22599 4814,22585 4926,22564 5037,22507 5148,22457 5260,22414 5371,22373 5483,22357 5595,22335 5706,22288 5817,22249 5928,22211 6040,22173 6152,22144 6263,22136 6375,22119 6486,22083 6597,22047 6709,22014 6820,21995 6932,21983 7043,21977 7155,21961 7267,21925 7377,21892 7489,21862 7600,21844 7712,21837 7823,21832 7935,21818 8046,21790 8157,21767 8269,21742 8380,21719 8492,21719 8604,21699 8715,21685 8826,21663 8937,21642 9049,21629 9161,21619 9272,21610 9384,21608 9495,21593 9606,21575 9718,21556 9829,21540 9941,21524 10052,21511 10164,21509 10275,21507 10386,21497 10498,21480 10609,21466 10721,21452 10833,21444 10944,21443 11055,21437 11166,21425 11278,21417 11389,21408 11501,21397 11613,21391 11724,21389 11835,21384 11946,21377 12058,21368 12170,21362 12281,21356 12393,21351 12503,21349 12615,21343 12727,21336 12838,21329 12950,21323 13061,21315 13173,21315 13284,21315 13395,21306 13507,21298 13618,21291 13730,21284 13842,21277 13953,21277 14064,21277 14175,21271 14287,21262 14399,21262 14510,21248 14622,21242 14733,21242 14844,21242 14956,21237 15067,21237 15179,21231 15290,21225 15402,21219 15512,21219 15624,21219 15736,21211 15847,21206 15959,21200 16070,21187 16182,21178 16293,21177 16404,21177 16516,21170 16627,21164 16739,21164 16851,21159 16962,21156 17073,21156 17184,21156 17296,21156 17408,21156 17519,21142 17631,21134 17741,21124 17853,21124 17965,21124 18076,21124 18188,21124 18299,21107 18411,21107"/>
 <path fill="none" stroke="rgb(131,202,255)" stroke-width="80" stroke-linejoin="round" stroke-dasharray="80,40" d="M 1359,23329 L 1471,23329 1582,23329 1694,23329 1805,23328 1917,23328 2029,23327 2139,23327 2251,23327 2362,23327 2474,23327 2586,23327 2697,23320 2808,23320 2919,23313 3031,23310 3143,23307 3254,23300 3366,23300 3477,23297 3588,23291 3700,23289 3811,23277 3923,23274 4034,23272 4146,23256 4257,23251 4368,23233 4480,23228 4591,23187 4703,23165 4814,23153 4926,23146 5037,23121 5148,23096 5260,23065 5371,23058 5483,23017 5595,22989 5706,22976 5817,22946 5928,22940 6040,22896 6152,22873 6263,22843 6375,22815 6486,22786 6597,22761 6709,22735 6820,22703 6932,22684 7043,22673 7155,22658 7267,22641 7377,22623 7489,22605 7600,22584 7712,22568 7823,22551 7935,22542 8046,22532 8157,22520 8269,22513 8380,22505 8492,22485 8604,22475 8715,22471 8826,22462 8937,22457 9049,22457 9161,22442 9272,22437 9384,22435 9495,22432 9606,22427 9718,22426 9829,22425 9941,22421 10052,22419 10164,22415 10275,22413 10386,22408 10498,22405 10609,22401 10721,22397 10833,22394 10944,22391 11055,22391 11166,22390 11278,22390 11389,22389 11501,22388 11613,22388 11724,22388 11835,22385 11946,22385 12058,22385 12170,22384 12281,22384 12393,22384 12503,22384 12615,22384 12727,22384 12838,22383 12950,22381 13061,22381 13173,22380 13284,22380 13395,22379 13507,22379 13618,22379 13730,22379 13842,22373 13953,22366 14064,22361 14175,22354 14287,22346 14399,22325 14510,22305 14622,22281 14733,22241 14844,22233 14956,22220 15067,22201 15179,22170 15290,22125 15402,22083 15512,22037 15624,21998 15736,21961 15847,21925 15959,21883 16070,21832 16182,21761 16293,21663 16404,21624 16516,21593 16627,21550 16739,21521 16851,21486 16962,21447 17073,21414 17184,21400 17296,21371 17408,21337 17519,21305 17631,21261 17741,21230 17853,21204 17965,21185 18076,21165 18188,21140 18299,21113 18411,21089"/>
 <path fill="none" stroke="rgb(255,191,0)" stroke-width="80" stroke-linejoin="round" d="M 1694,23329 L 1805,23329 1917,23329 2029,23329 2139,23329 2251,23328 2362,23328 2474,23328 2586,23328 2697,23328 2808,23328 2919,23328 3031,23328 3143,23328 3254,23325 3366,23322 3477,23319 3588,23318 3700,23317 3811,23316 3923,23313 4034,23309 4146,23300 4257,23290 4368,23279 4480,23271 4591,23260 4703,23251 4814,23242 4926,23221 5037,23191 5148,23165 5260,23131 5371,23122 5483,23110 5595,23066 5706,23033 5817,22993 5928,22966 6040,22928 6152,22915 6263,22899 6375,22852 6486,22831 6597,22804 6709,22769 6820,22759 6932,22744 7043,22723 7155,22686 7267,22652 7377,22618 7489,22590 7600,22583 7712,22577 7823,22573 7935,22533 8046,22503 8157,22476 8269,22443 8380,22419 8492,22412 8604,22406 8715,22375 8826,22361 8937,22343 9049,22327 9161,22310 9272,22307 9384,22301 9495,22284 9606,22269 9718,22252 9829,22237 9941,22230 10052,22222 10164,22220 10275,22206 10386,22199 10498,22188 10609,22178 10721,22166 10833,22165 10944,22164 11055,22147 11166,22137 11278,22127 11389,22117 11501,22109 11613,22108 11724,22107 11835,22095 11946,22085 12058,22078 12170,22071 12281,22066 12393,22065 12503,22061 12615,22055 12727,22052 12838,22046 12950,22036 13061,22033 13173,22030 13284,22026 13395,22019 13507,22015 13618,22011 13730,22006 13842,22002 13953,22001 14064,21999 14175,21998 14287,21992 14399,21975 14510,21955 14622,21941 14733,21938 14844,21935 14956,21913 15067,21902 15179,21891 15290,21868 15402,21854 15512,21852 15624,21848 15736,21835 15847,21821 15959,21783 16070,21752 16182,21736 16293,21707 16404,21397 16516,21397 16627,21397 16739,21396 16851,21387 16962,21373 17073,21370 17184,21367 17296,21349 17408,21332 17519,21315 17631,21246 17741,21173 17853,21171 17965,21167 18076,21134 18188,21093 18299,21062 18411,21034"/>
 <path fill="none" stroke="rgb(0,169,51)" stroke-width="80" stroke-linejoin="round" stroke-dasharray="158,158" d="M 2251,23329 L 2362,23329 2474,23329 2586,23329 2697,23328 2808,23327 2919,23327 3031,23327 3143,23326 3254,23325 3366,23325 3477,23324 3588,23323 3700,23322 3811,23321 3923,23320 4034,23319 4146,23319 4257,23319 4368,23317 4480,23315 4591,23313 4703,23312 4814,23311 4926,23308 5037,23302 5148,23298 5260,23293 5371,23290 5483,23288 5595,23286 5706,23285 5817,23284 5928,23280 6040,23278 6152,23278 6263,23276 6375,23276 6486,23272 6597,23266 6709,23260 6820,23258 6932,23255 7043,23249 7155,23246 7267,23240 7377,23236 7489,23229 7600,23225 7712,23219 7823,23214 7935,23209 8046,23205 8157,23199 8269,23191 8380,23187 8492,23180 8604,23174 8715,23170 8826,23161 8937,23151 9049,23140 9161,23129 9272,23119 9384,23111 9495,23105 9606,23100 9718,23092 9829,23078 9941,23065 10052,23052 10164,23050 10275,23045 10386,23037 10498,23015 10609,22985 10721,22967 10833,22927 10944,22926 11055,22916 11166,22906 11278,22896 11389,22889 11501,22882 11613,22880 11724,22879 11835,22864 11946,22856 12058,22839 12170,22824 12281,22806 12393,22801 12503,22789 12615,22764 12727,22752 12838,22740 12950,22712 13061,22689 13173,22684 13284,22676 13395,22656 13507,22632 13618,22620 13730,22599 13842,22576 13953,22574 14064,22570 14175,22547 14287,22538 14399,22504 14510,22488 14622,22467 14733,22466 14844,22464 14956,22413 15067,22375 15179,22328 15290,22306 15402,22278 15512,22266 15624,22259 15736,22233 15847,22151 15959,22119 16070,22018 16182,21960 16293,21946 16404,21934 16516,21874 16627,21826 16739,21773 16851,21720 16962,21682 17073,21662 17184,21656 17296,21587 17408,21514 17519,21465 17631,21407 17741,21343 17853,21318 17965,21303 18076,21249 18188,21204 18299,21119 18411,21119"/>
 <path fill="none" stroke="rgb(191,0,65)" stroke-width="80" stroke-linejoin="round" stroke-dasharray="51,127,51,127,254,127,254,127,254,127" d="M 1359,23329 L 1471,23329 1582,23329 1694,23329 1805,23329 1917,23329 2029,23329 2139,23329 2251,23328 2362,23328 2474,23328 2586,23327 2697,23326 2808,23326 2919,23325 3031,23324 3143,23323 3254,23322 3366,23321 3477,23319 3588,23317 3700,23317 3811,23313 3923,23311 4034,23309 4146,23306 4257,23302 4368,23296 4480,23291 4591,23287 4703,23280 4814,23275 4926,23268 5037,23256 5148,23245 5260,23234 5371,23225 5483,23217 5595,23206 5706,23194 5817,23178 5928,23166 6040,23145 6152,23135 6263,23126 6375,23114 6486,23100 6597,23083 6709,23061 6820,23047 6932,23034 7043,23022 7155,23007 7267,22992 7377,22971 7489,22953 7600,22930 7712,22912 7823,22902 7935,22891 8046,22868 8157,22851 8269,22817 8380,22801 8492,22788 8604,22775 8715,22748 8826,22736 8937,22722 9049,22700 9161,22685 9272,22670 9384,22660 9495,22651 9606,22628 9718,22614 9829,22593 9941,22583 10052,22569 10164,22560 10275,22552 10386,22543 10498,22529 10609,22519 10721,22507 10833,22494 10944,22486 11055,22477 11166,22469 11278,22459 11389,22448 11501,22441 11613,22430 11724,22426 11835,22419 11946,22406 12058,22398 12170,22385 12281,22371 12393,22359 12503,22345 12615,22334 12727,22321 12838,22306 12950,22284 13061,22266 13173,22245 13284,22229 13395,22219 13507,22206 13618,22191 13730,22180 13842,22166 13953,22150 14064,22135 14175,22125 14287,22112 14399,22091 14510,22073 14622,22055 14733,22037 14844,22023 14956,22008 15067,21996 15179,21972 15290,21955 15402,21936 15512,21922 15624,21911 15736,21899 15847,21855 15959,21836 16070,21813 16182,21787 16293,21771 16404,21726 16516,21715 16627,21700 16739,21686 16851,21669 16962,21649 17073,21632 17184,21620 17296,21606 17408,21589 17519,21567 17631,21539 17741,21513 17853,21493 17965,21481 18076,21465 18188,21447 18299,21420 18411,21399"/>
 <path fill="none" stroke="rgb(0,169,51)" stroke-width="80" stroke-linejoin="round" stroke-dasharray="80,40" d="M 1694,23329 L 1805,23329 1917,23329 2029,23329 2139,23329 2251,23329 2362,23329 2474,23329 2586,23329 2697,23329 2808,23329 2919,23329 3031,23329 3143,23329 3254,23329 3366,23329 3477,23327 3588,23327 3700,23327 3811,23324 3923,23323 4034,23322 4146,23320 4257,23319 4368,23316 4480,23314 4591,23312 4703,23308 4814,23306 4926,23300 5037,23298 5148,23292 5260,23288 5371,23283 5483,23280 5595,23275 5706,23267 5817,23257 5928,23246 6040,23236 6152,23228 6263,23221 6375,23211 6486,23202 6597,23185 6709,23175 6820,23162 6932,23149 7043,23141 7155,23134 7267,23125 7377,23107 7489,23097 7600,23081 7712,23069 7823,23057 7935,23051 8046,23036 8157,23023 8269,23009 8380,22998 8492,22986 8604,22973 8715,22964 8826,22951 8937,22938 9049,22925 9161,22912 9272,22900 9384,22889 9495,22886 9606,22850 9718,22835 9829,22824 9941,22818 10052,22802 10164,22790 10275,22782 10386,22768 10498,22755 10609,22744 10721,22736 10833,22725 10944,22714 11055,22707 11166,22698 11278,22688 11389,22674 11501,22669 11613,22654 11724,22649 11835,22641 11946,22628 12058,22615 12170,22596 12281,22578 12393,22555 12503,22531 12615,22512 12727,22488 12838,22462 12950,22437 13061,22410 13173,22374 13284,22346 13395,22329 13507,22311 13618,22287 13730,22267 13842,22245 13953,22223 14064,22193 14175,22182 14287,22169 14399,22139 14510,22110 14622,22083 14733,22055 14844,22030 14956,22013 15067,22001 15179,21966 15290,21945 15402,21917 15512,21897 15624,21880 15736,21868 15847,21857 15959,21839 16070,21820 16182,21798 16293,21778 16404,21762 16516,21757 16627,21748 16739,21741 16851,21719 16962,21703 17073,21684 17184,21668 17296,21660 17408,21652 17519,21639 17631,21624 17741,21605 17853,21587 17965,21573 18076,21565 18188,21552 18299,21529 18411,21513"/>
 <path fill="none" stroke="rgb(131,202,255)" stroke-width="80" stroke-linejoin="round" stroke-dasharray="158,158" d="M 2697,23321 L 2808,23321 2919,23321 3031,23321 3143,23321 3254,23321 3366,23321 3477,23321 3588,23269 3700,23269 3811,23261 3923,23261 4034,23241 4146,23241 4257,23225 4368,23218 4480,23210 4591,23201 4703,23199 4814,23197 4926,23197 5037,23186 5148,23178 5260,23178 5371,23164 5483,23162 5595,23161 5706,23158 5817,23151 5928,23146 6040,23146 6152,23139 6263,23137 6375,23137 6486,23135 6597,23129 6709,23126 6820,23126 6932,23121 7043,23120 7155,23120 7267,23117 7377,23115 7489,23114 7600,23110 7712,23107 7823,23106 7935,23106 8046,23104 8157,23103 8269,23097 8380,23094 8492,23093 8604,23092 8715,22166 8826,22164 8937,22162 9049,22162 9161,22162 9272,22162 9384,22162 9495,22157 9606,22157 9718,22150 9829,22148 9941,22147 10052,22147 10164,22146 10275,22146 10386,22146 10498,22146 10609,22145 10721,22145 10833,22145 10944,22145 11055,22145 11166,22145 11278,22145 11389,22145 11501,22145 11613,22145 11724,22145 11835,22145 11946,22145 12058,22145 12170,22145 12281,22145 12393,22145 12503,22131 12615,22131 12727,22131 12838,22131 12950,22131 13061,22131 13173,22131 13284,22124 13395,22124 13507,22124 13618,22124 13730,22124 13842,22124 13953,22124 14064,22124 14175,22124 14287,22090 14399,22084 14510,22084 14622,22084 14733,22084 14844,22050 14956,22046 15067,22033 15179,22022 15290,22003 15402,22003 15512,21963 15624,21963 15736,21933 15847,21914 15959,21894 16070,21882 16182,21867 16293,21867 16404,21867 16516,21820 16627,21812 16739,21795 16851,21779 16962,21764 17073,21743 17184,21739 17296,21734 17408,21714 17519,21688 17631,21666 17741,21651 17853,21651 17965,21651 18076,21622 18188,21622 18299,21622 18411,21622"/>
 <path fill="none" stroke="rgb(241,13,12)" stroke-width="80" stroke-linejoin="round" stroke-dasharray="80,40" d="M 2362,23325 L 2474,23325 2586,23325 2697,23325 2808,23323 2919,23307 3031,23307 3143,23307 3254,23296 3366,23295 3477,23287 3588,23287 3700,23287 3811,23280 3923,23274 4034,23262 4146,23259 4257,23251 4368,23250 4480,23242 4591,23238 4703,23232 4814,23232 4926,23232 5037,23232 5148,23214 5260,23214 5371,23211 5483,23208 5595,23208 5706,23182 5817,23182 5928,23182 6040,23182 6152,23107 6263,23107 6375,23107 6486,23107 6597,23107 6709,22885 6820,22885 6932,22885 7043,22885 7155,22885 7267,22885 7377,22885 7489,22729 7600,22729 7712,22728 7823,22728 7935,22728 8046,22656 8157,22656 8269,22608 8380,22608 8492,22557 8604,22557 8715,22557 8826,22557 8937,22555 9049,22488 9161,22488 9272,22438 9384,22438 9495,22438 9606,22438 9718,22438 9829,22153 9941,22153 10052,22144 10164,22144 10275,22144 10386,22144 10498,22144 10609,22144 10721,22119 10833,22119 10944,22119 11055,22119 11166,22119 11278,22119 11389,22119 11501,22119 11613,22119 11724,22119 11835,22119 11946,22105 12058,22105 12170,22102 12281,22102 12393,22093 12503,22093 12615,22093 12727,22093 12838,22093 12950,22093 13061,22093 13173,22093 13284,22080 13395,22080 13507,22080 13618,22080 13730,22080 13842,22071 13953,22071 14064,22071 14175,22071 14287,22071 14399,22071 14510,22071 14622,22071 14733,22071 14844,22071 14956,22071 15067,22071 15179,22071 15290,22062 15402,22062 15512,22062 15624,22062 15736,22059 15847,22059 15959,22059 16070,22059 16182,22059 16293,22051 16404,22051 16516,22051 16627,22051 16739,22051 16851,22051 16962,22051 17073,22051 17184,22045 17296,22045 17408,22045 17519,22045 17631,22045 17741,22045 17853,22045 17965,22024 18076,22024 18188,22024 18299,22024 18411,22024"/>
 <path fill="none" stroke="rgb(128,0,128)" stroke-width="80" stroke-linejoin="round" stroke-dasharray="80,40" d="M 1582,23329 L 1694,23329 1805,23329 1917,23329 2029,23329 2139,23329 2251,23329 2362,23329 2474,23329 2586,23329 2697,23329 2808,23329 2919,23329 3031,23329 3143,23329 3254,23325 3366,23325 3477,23325 3588,23325 3700,23325 3811,23325 3923,23325 4034,23324 4146,23324 4257,23324 4368,23324 4480,23294 4591,23294 4703,23265 4814,23262 4926,23262 5037,23238 5148,23211 5260,23190 5371,23178 5483,23168 5595,23168 5706,23131 5817,23092 5928,23064 6040,23043 6152,23023 6263,23019 6375,23014 6486,22973 6597,22955 6709,22938 6820,22934 6932,22909 7043,22907 7155,22905 7267,22878 7377,22852 7489,22838 7600,22820 7712,22779 7823,22779 7935,22775 8046,22764 8157,22725 8269,22708 8380,22687 8492,22672 8604,22666 8715,22666 8826,22647 8937,22632 9049,22632 9161,22590 9272,22574 9384,22572 9495,22572 9606,22554 9718,22542 9829,22536 9941,22520 10052,22512 10164,22507 10275,22507 10386,22498 10498,22491 10609,22482 10721,22463 10833,22451 10944,22446 11055,22444 11166,22439 11278,22419 11389,22417 11501,22398 11613,22387 11724,22380 11835,22379 11946,22371 12058,22367 12170,22365 12281,22357 12393,22351 12503,22348 12615,22348 12727,22343 12838,22342 12950,22335 13061,22331 13173,22329 13284,22329 13395,22323 13507,22321 13618,22315 13730,22307 13842,22305 13953,22302 14064,22302 14175,22300 14287,22300 14399,22297 14510,22289 14622,22286 14733,22279 14844,22284 14956,22284 15067,22284 15179,22277 15290,22270 15402,22268 15512,22265 15624,22265 15736,22264 15847,22264 15959,22260 16070,22258 16182,22254 16293,22254 16404,22254 16516,22252 16627,22250 16739,22236 16851,22236 16962,22236 17073,22236 17184,22236 17296,22235 17408,22234 17519,22232 17631,22228 17741,22226 17853,22220 17965,22218 18076,22218 18188,22212 18299,22210 18411,22206"/>
 <path fill="none" stroke="rgb(255,191,0)" stroke-width="80" stroke-linejoin="round" stroke-dasharray="158,158" d="M 1359,23329 L 1471,23329 1582,23329 1694,23329 1805,23329 1917,23329 2029,23329 2139,23329 2251,23329 2362,23329 2474,23329 2586,23329 2697,23329 2808,23329 2919,23329 3031,23329 3143,23329 3254,23329 3366,23329 3477,23329 3588,23300 3700,23329 3811,23329 3923,23329 4034,23314 4146,23314 4257,23314 4368,23314 4480,23314 4591,23314 4703,23314 4814,23314 4926,23314 5037,23287 5148,23275 5260,23245 5371,23245 5483,23245 5595,23245 5706,23202 5817,23202 5928,23202 6040,23073 6152,23073 6263,23073 6375,23073 6486,23073 6597,22995 6709,22995 6820,22995 6932,22995 7043,22995 7155,22995 7267,22995 7377,22884 7489,22884 7600,22884 7712,22884 7823,22884 7935,22884 8046,22727 8157,22727 8269,22727 8380,22694 8492,22694 8604,22694 8715,22694 8826,22663 8937,22663 9049,22663 9161,22646 9272,22646 9384,22646 9495,22646 9606,22618 9718,22618 9829,22618 9941,22614 10052,22614 10164,22614 10275,22614 10386,22600 10498,22600 10609,22600 10721,22579 10833,22579 10944,22579 11055,22579 11166,22567 11278,22567 11389,22544 11501,22544 11613,22518 11724,22518 11835,22518 11946,22489 12058,22489 12170,22462 12281,22462 12393,22462 12503,22462 12615,22462 12727,22462 12838,22462 12950,22462 13061,22434 13173,22434 13284,22434 13395,22434 13507,22394 13618,22394 13730,22381 13842,22372 13953,22369 14064,22369 14175,22369 14287,22362 14399,22362 14510,22351 14622,22351 14733,22351 14844,22351 14956,22351 15067,22348 15179,22348 15290,22348 15402,22348 15512,22348 15624,22348 15736,22348 15847,22326 15959,22326 16070,22326 16182,22326 16293,22326 16404,22326 16516,22326 16627,22319 16739,22319 16851,22319 16962,22319 17073,22319 17184,22319 17296,22319 17408,22302 17519,22302 17631,22302 17741,22302 17853,22302 17965,22302 18076,22302 18188,22294 18299,22294 18411,22294"/>
 <path fill="none" stroke="rgb(255,128,0)" stroke-width="80" stroke-linejoin="round" stroke-dasharray="158,158" d="M 1471,23329 L 1582,23329 1694,23329 1805,23329 1917,23329 2029,23329 2139,23329 2251,23328 2362,23326 2474,23326 2586,23326 2697,23326 2808,23324 2919,23323 3031,23323 3143,23323 3254,23323 3366,23323 3477,23322 3588,23322 3700,23321 3811,23319 3923,23317 4034,23317 4146,23316 4257,23312 4368,23311 4480,23308 4591,23308 4703,23307 4814,23307 4926,23307 5037,23293 5148,23292 5260,23291 5371,23286 5483,23283 5595,23279 5706,23276 5817,23274 5928,23256 6040,23244 6152,23244 6263,23239 6375,23236 6486,23233 6597,23229 6709,23221 6820,23215 6932,23212 7043,23212 7155,23211 7267,23197 7377,23187 7489,23179 7600,23167 7712,23160 7823,23155 7935,23150 8046,23141 8157,23123 8269,23110 8380,23088 8492,23072 8604,23068 8715,23067 8826,23065 8937,23057 9049,23047 9161,23032 9272,23019 9384,23013 9495,23009 9606,22985 9718,22981 9829,22955 9941,22950 10052,22928 10164,22927 10275,22925 10386,22924 10498,22919 10609,22916 10721,22909 10833,22902 10944,22902 11055,22901 11166,22894 11278,22888 11389,22881 11501,22871 11613,22865 11724,22864 11835,22864 11946,22858 12058,22852 12170,22849 12281,22846 12393,22845 12503,22844 12615,22844 12727,22842 12838,22839 12950,22834 13061,22830 13173,22827 13284,22826 13395,22826 13507,22825 13618,22821 13730,22819 13842,22813 13953,22807 14064,22802 14175,22793 14287,22791 14399,22789 14510,22788 14622,22778 14733,22772 14844,22760 14956,22753 15067,22747 15179,22743 15290,22738 15402,22726 15512,22725 15624,22725 15736,22723 15847,22719 15959,22714 16070,22711 16182,22708 16293,22706 16404,22705 16516,22705 16627,22705 16739,22703 16851,22702 16962,22701 17073,22699 17184,22694 17296,22690 17408,22689 17519,22686 17631,22680 17741,22680 17853,22675 17965,22673 18076,22669 18188,22668 18299,22668 18411,22662"/>
 <path fill="none" stroke="rgb(0,0,255)" stroke-width="80" stroke-linejoin="round" stroke-dasharray="158,158" d="M 2362,23327 L 2474,23327 2586,23327 2697,23327 2808,23329 2919,23329 3031,23329 3143,23329 3254,23327 3366,23329 3477,23329 3588,23328 3700,23326 3811,23326 3923,23326 4034,23327 4146,23325 4257,23324 4368,23322 4480,23322 4591,23322 4703,23322 4814,23294 4926,23292 5037,23279 5148,23274 5260,23271 5371,23259 5483,23254 5595,23246 5706,23244 5817,23235 5928,23234 6040,23212 6152,23201 6263,23199 6375,23196 6486,23189 6597,23169 6709,23156 6820,23144 6932,23128 7043,23124 7155,23116 7267,23084 7377,23077 7489,23062 7600,23029 7712,23025 7823,23017 7935,23011 8046,23003 8157,22978 8269,22961 8380,22954 8492,22948 8604,22944 8715,22936 8826,22934 8937,22921 9049,22916 9161,22913 9272,22905 9384,22898 9495,22896 9606,22891 9718,22889 9829,22888 9941,22886 10052,22880 10164,22876 10275,22876 10386,22874 10498,22873 10609,22873 10721,22872 10833,22872 10944,22869 11055,22866 11166,22864 11278,22864 11389,22862 11501,22862 11613,22862 11724,22862 11835,22862 11946,22856 12058,22853 12170,22851 12281,22849 12393,22849 12503,22849 12615,22849 12727,22849 12838,22849 12950,22848 13061,22847 13173,22847 13284,22845 13395,22844 13507,22844 13618,22843 13730,22843 13842,22843 13953,22843 14064,22843 14175,22843 14287,22841 14399,22841 14510,22839 14622,22838 14733,22834 14844,22834 14956,22834 15067,22834 15179,22830 15290,22827 15402,22824 15512,22824 15624,22822 15736,22819 15847,22819 15959,22813 16070,22813 16182,22806 16293,22806 16404,22806 16516,22793 16627,22784 16739,22779 16851,22774 16962,22767 17073,22752 17184,22752 17296,22750 17408,22742 17519,22740 17631,22724 17741,22717 17853,22712 17965,22711 18076,22710 18188,22708 18299,22704 18411,22686"/>
 <path fill="none" stroke="rgb(180,120,4)" stroke-width="80" stroke-linejoin="round" stroke-dasharray="80,40" d="M 1471,23328 L 1582,23328 1694,23328 1805,23328 1917,23328 2029,23328 2139,23326 2251,23326 2362,23326 2474,23326 2586,23324 2697,23323 2808,23323 2919,23320 3031,23320 3143,23320 3254,23320 3366,23320 3477,23320 3588,23319 3700,23316 3811,23316 3923,23316 4034,23283 4146,23283 4257,23283 4368,23283 4480,23283 4591,23283 4703,23283 4814,23283 4926,23283 5037,23283 5148,23283 5260,23283 5371,23283 5483,23283 5595,23283 5706,23229 5817,23229 5928,23229 6040,23229 6152,23229 6263,23229 6375,23229 6486,23229 6597,23229 6709,23091 6820,23091 6932,23091 7043,23091 7155,23091 7267,23091 7377,23091 7489,23091 7600,23091 7712,23091 7823,23091 7935,23091 8046,23091 8157,23091 8269,23091 8380,23091 8492,23091 8604,23091 8715,23091 8826,23091 8937,23091 9049,23091 9161,23091 9272,23091 9384,23091 9495,23091 9606,23091 9718,23091 9829,23091 9941,23091 10052,23091 10164,23091 10275,23091 10386,23091 10498,23091 10609,23091 10721,23091 10833,23091 10944,23091 11055,23091 11166,23091 11278,23091 11389,23091 11501,23091 11613,23091 11724,23091 11835,23091 11946,23091 12058,23091 12170,23091 12281,23091 12393,23091 12503,23091 12615,23091 12727,23091 12838,23091 12950,23091 13061,23091 13173,23091 13284,23091 13395,23091 13507,23091 13618,23091 13730,23091 13842,23091 13953,23091 14064,23091 14175,23091 14287,23091 14399,23091 14510,23091 14622,23091 14733,23091 14844,23091 14956,23091 15067,23091 15179,23091 15290,23091 15402,23091 15512,23091 15624,23091 15736,23091 15847,23091 15959,23091 16070,23091 16182,23091 16293,23091 16404,23091 16516,23091 16627,23091 16739,23091 16851,23091 16962,23091 17073,23091 17184,23091 17296,23091 17408,23091 17519,23091 17631,23091 17741,23091 17853,23091 17965,23095 18076,23095 18188,23095 18299,23095 18411,23095"/>
 <text class="TextShape" transform="rotate(-90 1485 24534)"><tspan class="TextParagraph" font-family="Liberation Sans, sans-serif" font-size="387px" font-weight="400"><tspan class="TextPosition" x="1485" y="24534"><tspan fill="rgb(0,0,0)" stroke="none">13.03</tspan></tspan></tspan></text>
 <text class="TextShape" transform="rotate(-90 2265 24534)"><tspan class="TextParagraph" font-family="Liberation Sans, sans-serif" font-size="387px" font-weight="400"><tspan class="TextPosition" x="2265" y="24534"><tspan fill="rgb(0,0,0)" stroke="none">20.03</tspan></tspan></tspan></text>
 <text class="TextShape" transform="rotate(-90 3045 24534)"><tspan class="TextParagraph" font-family="Liberation Sans, sans-serif" font-size="387px" font-weight="400"><tspan class="TextPosition" x="3045" y="24534"><tspan fill="rgb(0,0,0)" stroke="none">27.03</tspan></tspan></tspan></text>
 <text class="TextShape" transform="rotate(-90 3825 24534)"><tspan class="TextParagraph" font-family="Liberation Sans, sans-serif" font-size="387px" font-weight="400"><tspan class="TextPosition" x="3825" y="24534"><tspan fill="rgb(0,0,0)" stroke="none">03.04</tspan></tspan></tspan></text>
 <text class="TextShape" transform="rotate(-90 4605 24534)"><tspan class="TextParagraph" font-family="Liberation Sans, sans-serif" font-size="387px" font-weight="400"><tspan class="TextPosition" x="4605" y="24534"><tspan fill="rgb(0,0,0)" stroke="none">10.04</tspan></tspan></tspan></text>
 <text class="TextShape" transform="rotate(-90 5385 24534)"><tspan class="TextParagraph" font-family="Liberation Sans, sans-serif" font-size="387px" font-weight="400"><tspan class="TextPosition" x="5385" y="24534"><tspan fill="rgb(0,0,0)" stroke="none">17.04</tspan></tspan></tspan></text>
 <text class="TextShape" transform="rotate(-90 6166 24534)"><tspan class="TextParagraph" font-family="Liberation Sans, sans-serif" font-size="387px" font-weight="400"><tspan class="TextPosition" x="6166" y="24534"><tspan fill="rgb(0,0,0)" stroke="none">24.04</tspan></tspan></tspan></text>
 <text class="TextShape" transform="rotate(-90 6946 24534)"><tspan class="TextParagraph" font-family="Liberation Sans, sans-serif" font-size="387px" font-weight="400"><tspan class="TextPosition" x="6946" y="24534"><tspan fill="rgb(0,0,0)" stroke="none">01.05</tspan></tspan></tspan></text>
 <text class="TextShape" transform="rotate(-90 7726 24534)"><tspan class="TextParagraph" font-family="Liberation Sans, sans-serif" font-size="387px" font-weight="400"><tspan class="TextPosition" x="7726" y="24534"><tspan fill="rgb(0,0,0)" stroke="none">08.05</tspan></tspan></tspan></text>
 <text class="TextShape" transform="rotate(-90 8506 24534)"><tspan class="TextParagraph" font-family="Liberation Sans, sans-serif" font-size="387px" font-weight="400"><tspan class="TextPosition" x="8506" y="24534"><tspan fill="rgb(0,0,0)" stroke="none">15.05</tspan></tspan></tspan></text>
 <text class="TextShape" transform="rotate(-90 9286 24534)"><tspan class="TextParagraph" font-family="Liberation Sans, sans-serif" font-size="387px" font-weight="400"><tspan class="TextPosition" x="9286" y="24534"><tspan fill="rgb(0,0,0)" stroke="none">22.05</tspan></tspan></tspan></text>
 <text class="TextShape" transform="rotate(-90 10066 24534)"><tspan class="TextParagraph" font-family="Liberation Sans, sans-serif" font-size="387px" font-weight="400"><tspan class="TextPosition" x="10066" y="24534"><tspan fill="rgb(0,0,0)" stroke="none">29.05</tspan></tspan></tspan></text>
 <text class="TextShape" transform="rotate(-90 10846 24534)"><tspan class="TextParagraph" font-family="Liberation Sans, sans-serif" font-size="387px" font-weight="400"><tspan class="TextPosition" x="10846" y="24534"><tspan fill="rgb(0,0,0)" stroke="none">05.06</tspan></tspan></tspan></text>
 <text class="TextShape" transform="rotate(-90 11627 24534)"><tspan class="TextParagraph" font-family="Liberation Sans, sans-serif" font-size="387px" font-weight="400"><tspan class="TextPosition" x="11627" y="24534"><tspan fill="rgb(0,0,0)" stroke="none">12.06</tspan></tspan></tspan></text>
 <text class="TextShape" transform="rotate(-90 12407 24534)"><tspan class="TextParagraph" font-family="Liberation Sans, sans-serif" font-size="387px" font-weight="400"><tspan class="TextPosition" x="12407" y="24534"><tspan fill="rgb(0,0,0)" stroke="none">19.06</tspan></tspan></tspan></text>
 <text class="TextShape" transform="rotate(-90 13187 24534)"><tspan class="TextParagraph" font-family="Liberation Sans, sans-serif" font-size="387px" font-weight="400"><tspan class="TextPosition" x="13187" y="24534"><tspan fill="rgb(0,0,0)" stroke="none">26.06</tspan></tspan></tspan></text>
 <text class="TextShape" transform="rotate(-90 13967 24534)"><tspan class="TextParagraph" font-family="Liberation Sans, sans-serif" font-size="387px" font-weight="400"><tspan class="TextPosition" x="13967" y="24534"><tspan fill="rgb(0,0,0)" stroke="none">03.07</tspan></tspan></tspan></text>
 <text class="TextShape" transform="rotate(-90 14747 24534)"><tspan class="TextParagraph" font-family="Liberation Sans, sans-serif" font-size="387px" font-weight="400"><tspan class="TextPosition" x="14747" y="24534"><tspan fill="rgb(0,0,0)" stroke="none">10.07</tspan></tspan></tspan></text>
 <text class="TextShape" transform="rotate(-90 15527 24534)"><tspan class="TextParagraph" font-family="Liberation Sans, sans-serif" font-size="387px" font-weight="400"><tspan class="TextPosition" x="15527" y="24534"><tspan fill="rgb(0,0,0)" stroke="none">17.07</tspan></tspan></tspan></text>
 <text class="TextShape" transform="rotate(-90 16308 24534)"><tspan class="TextParagraph" font-family="Liberation Sans, sans-serif" font-size="387px" font-weight="400"><tspan class="TextPosition" x="16308" y="24534"><tspan fill="rgb(0,0,0)" stroke="none">24.07</tspan></tspan></tspan></text>
 <text class="TextShape" transform="rotate(-90 17088 24534)"><tspan class="TextParagraph" font-family="Liberation Sans, sans-serif" font-size="387px" font-weight="400"><tspan class="TextPosition" x="17088" y="24534"><tspan fill="rgb(0,0,0)" stroke="none">31.07</tspan></tspan></tspan></text>
 <text class="TextShape" transform="rotate(-90 17867 24534)"><tspan class="TextParagraph" font-family="Liberation Sans, sans-serif" font-size="387px" font-weight="400"><tspan class="TextPosition" x="17867" y="24534"><tspan fill="rgb(0,0,0)" stroke="none">07.08</tspan></tspan></tspan></text>
 <text class="TextShape"><tspan class="TextParagraph" font-family="Liberation Sans, sans-serif" font-size="388px" font-weight="400"><tspan class="TextPosition" x="844" y="23458"><tspan fill="rgb(0,0,0)" stroke="none">0</tspan></tspan></tspan></text>
 <text class="TextShape"><tspan class="TextParagraph" font-family="Liberation Sans, sans-serif" font-size="388px" font-weight="400"><tspan class="TextPosition" x="211" y="19835"><tspan fill="rgb(0,0,0)" stroke="none">2000</tspan></tspan></tspan></text>
 <text class="TextShape"><tspan class="TextParagraph" font-family="Liberation Sans, sans-serif" font-size="388px" font-weight="400"><tspan class="TextPosition" x="211" y="16212"><tspan fill="rgb(0,0,0)" stroke="none">4000</tspan></tspan></tspan></text>
 <text class="TextShape"><tspan class="TextParagraph" font-family="Liberation Sans, sans-serif" font-size="388px" font-weight="400"><tspan class="TextPosition" x="211" y="12590"><tspan fill="rgb(0,0,0)" stroke="none">6000</tspan></tspan></tspan></text>
 <text class="TextShape"><tspan class="TextParagraph" font-family="Liberation Sans, sans-serif" font-size="388px" font-weight="400"><tspan class="TextPosition" x="211" y="8967"><tspan fill="rgb(0,0,0)" stroke="none">8000</tspan></tspan></tspan></text>
 <text class="TextShape"><tspan class="TextParagraph" font-family="Liberation Sans, sans-serif" font-size="388px" font-weight="400"><tspan class="TextPosition" x="1" y="5344"><tspan fill="rgb(0,0,0)" stroke="none">10000</tspan></tspan></tspan></text>
 <text class="TextShape"><tspan class="TextParagraph" font-family="Liberation Sans, sans-serif" font-size="388px" font-weight="400"><tspan class="TextPosition" x="1" y="1722"><tspan fill="rgb(0,0,0)" stroke="none">12000</tspan></tspan></tspan></text>
 <text class="TextShape"><tspan class="TextParagraph" font-family="Liberation Sans, sans-serif" font-size="494px" font-weight="700"><tspan class="TextPosition" x="910" y="990"><tspan fill="rgb(0,0,0)" stroke="none">EU - poet vylench na milin obyvatel</tspan></tspan></tspan></text>
 <path fill="none" stroke="rgb(0,0,255)" stroke-width="80" stroke-linejoin="round" d="M 18786,2130 L 20380,2130"/>
 <path fill="none" stroke="rgb(129,212,26)" stroke-width="80" stroke-linejoin="round" stroke-dasharray="80,40" d="M 18786,2953 L 20380,2953"/>
 <path fill="none" stroke="rgb(128,0,128)" stroke-width="80" stroke-linejoin="round" stroke-dasharray="158,158" d="M 18786,3776 L 20380,3776"/>
 <path fill="none" stroke="rgb(131,202,255)" stroke-width="80" stroke-linejoin="round" d="M 18786,4599 L 20380,4599"/>
 <path fill="none" stroke="rgb(128,0,128)" stroke-width="80" stroke-linejoin="round" d="M 18786,5422 L 20380,5422"/>
 <path fill="none" stroke="rgb(52,42,6)" stroke-width="80" stroke-linejoin="round" d="M 18786,6245 L 20380,6245"/>
 <path fill="none" stroke="rgb(0,169,51)" stroke-width="80" stroke-linejoin="round" d="M 18786,7068 L 20380,7068"/>
 <path fill="none" stroke="rgb(180,120,4)" stroke-width="80" stroke-linejoin="round" d="M 18786,7891 L 20380,7891"/>
 <path fill="none" stroke="rgb(255,0,0)" stroke-width="80" stroke-linejoin="round" stroke-dasharray="158,158" d="M 18786,8714 L 20380,8714"/>
 <path fill="none" stroke="rgb(0,0,0)" stroke-width="80" stroke-linejoin="round" stroke-dasharray="158,158" d="M 18786,9537 L 20380,9537"/>
 <path fill="none" stroke="rgb(255,128,0)" stroke-width="80" stroke-linejoin="round" stroke-dasharray="80,40" d="M 18786,10360 L 20380,10360"/>
 <path fill="none" stroke="rgb(85,48,141)" stroke-width="80" stroke-linejoin="round" stroke-dasharray="80,40" d="M 18786,11183 L 20380,11183"/>
 <path fill="none" stroke="rgb(129,212,26)" stroke-width="80" stroke-linejoin="round" stroke-dasharray="158,158" d="M 18786,12006 L 20380,12006"/>
 <path fill="none" stroke="rgb(0,0,255)" stroke-width="80" stroke-linejoin="round" stroke-dasharray="80,40" d="M 18786,12828 L 20380,12828"/>
 <path fill="none" stroke="rgb(131,202,255)" stroke-width="80" stroke-linejoin="round" stroke-dasharray="80,40" d="M 18786,13651 L 20380,13651"/>
 <path fill="none" stroke="rgb(255,191,0)" stroke-width="80" stroke-linejoin="round" d="M 18786,14474 L 20380,14474"/>
 <path fill="none" stroke="rgb(0,169,51)" stroke-width="80" stroke-linejoin="round" stroke-dasharray="158,158" d="M 18786,15297 L 20380,15297"/>
 <path fill="none" stroke="rgb(191,0,65)" stroke-width="80" stroke-linejoin="round" stroke-dasharray="51,127,51,127,254,127,254,127,254,127" d="M 18786,16120 L 20380,16120"/>
 <path fill="none" stroke="rgb(0,169,51)" stroke-width="80" stroke-linejoin="round" stroke-dasharray="80,40" d="M 18786,16943 L 20380,16943"/>
 <path fill="none" stroke="rgb(131,202,255)" stroke-width="80" stroke-linejoin="round" stroke-dasharray="158,158" d="M 18786,17766 L 20380,17766"/>
 <path fill="none" stroke="rgb(241,13,12)" stroke-width="80" stroke-linejoin="round" stroke-dasharray="80,40" d="M 18786,18589 L 20380,18589"/>
 <path fill="none" stroke="rgb(128,0,128)" stroke-width="80" stroke-linejoin="round" stroke-dasharray="80,40" d="M 18786,19412 L 20380,19412"/>
 <path fill="none" stroke="rgb(255,191,0)" stroke-width="80" stroke-linejoin="round" stroke-dasharray="158,158" d="M 18786,20235 L 20380,20235"/>
 <path fill="none" stroke="rgb(255,128,0)" stroke-width="80" stroke-linejoin="round" stroke-dasharray="158,158" d="M 18786,21058 L 20380,21058"/>
 <path fill="none" stroke="rgb(0,0,255)" stroke-width="80" stroke-linejoin="round" stroke-dasharray="158,158" d="M 18786,21881 L 20380,21881"/>
 <path fill="none" stroke="rgb(180,120,4)" stroke-width="80" stroke-linejoin="round" stroke-dasharray="80,40" d="M 18786,22704 L 20380,22704"/>
 <text class="TextShape"><tspan class="TextParagraph" font-family="Liberation Sans, sans-serif" font-size="423px" font-weight="400"><tspan class="TextPosition" x="20479" y="2278"><tspan fill="rgb(0,0,0)" stroke="none">Luxembursko</tspan></tspan></tspan></text>
 <text class="TextShape"><tspan class="TextParagraph" font-family="Liberation Sans, sans-serif" font-size="423px" font-weight="400"><tspan class="TextPosition" x="20479" y="3101"><tspan fill="rgb(0,0,0)" stroke="none">Irsko</tspan></tspan></tspan></text>
 <text class="TextShape"><tspan class="TextParagraph" font-family="Liberation Sans, sans-serif" font-size="423px" font-weight="400"><tspan class="TextPosition" x="20479" y="3924"><tspan fill="rgb(0,0,0)" stroke="none">Portugalsko</tspan></tspan></tspan></text>
 <text class="TextShape"><tspan class="TextParagraph" font-family="Liberation Sans, sans-serif" font-size="423px" font-weight="400"><tspan class="TextPosition" x="20479" y="4747"><tspan fill="rgb(0,0,0)" stroke="none">Itlie</tspan></tspan></tspan></text>
 <text class="TextShape"><tspan class="TextParagraph" font-family="Liberation Sans, sans-serif" font-size="423px" font-weight="400"><tspan class="TextPosition" x="20479" y="5570"><tspan fill="rgb(0,0,0)" stroke="none">panlsko</tspan></tspan></tspan></text>
 <text class="TextShape"><tspan class="TextParagraph" font-family="Liberation Sans, sans-serif" font-size="423px" font-weight="400"><tspan class="TextPosition" x="20479" y="6393"><tspan fill="rgb(0,0,0)" stroke="none">Nmecko</tspan></tspan></tspan></text>
 <text class="TextShape"><tspan class="TextParagraph" font-family="Liberation Sans, sans-serif" font-size="423px" font-weight="400"><tspan class="TextPosition" x="20479" y="7216"><tspan fill="rgb(0,0,0)" stroke="none">Rakousko</tspan></tspan></tspan></text>
 <text class="TextShape"><tspan class="TextParagraph" font-family="Liberation Sans, sans-serif" font-size="423px" font-weight="400"><tspan class="TextPosition" x="20479" y="8039"><tspan fill="rgb(0,0,0)" stroke="none">Dnsko</tspan></tspan></tspan></text>
 <text class="TextShape"><tspan class="TextParagraph" font-family="Liberation Sans, sans-serif" font-size="423px" font-weight="400"><tspan class="TextPosition" x="20479" y="8862"><tspan fill="rgb(0,0,0)" stroke="none">Rumunsko</tspan></tspan></tspan></text>
 <text class="TextShape"><tspan class="TextParagraph" font-family="Liberation Sans, sans-serif" font-size="423px" font-weight="400"><tspan class="TextPosition" x="20479" y="9685"><tspan fill="rgb(0,0,0)" stroke="none">Malta</tspan></tspan></tspan></text>
 <text class="TextShape"><tspan class="TextParagraph" font-family="Liberation Sans, sans-serif" font-size="423px" font-weight="400"><tspan class="TextPosition" x="20479" y="10508"><tspan fill="rgb(0,0,0)" stroke="none">Belgie</tspan></tspan></tspan></text>
 <text class="TextShape"><tspan class="TextParagraph" font-family="Liberation Sans, sans-serif" font-size="423px" font-weight="400"><tspan class="TextPosition" x="20479" y="11331"><tspan fill="rgb(0,0,0)" stroke="none">Estonsko</tspan></tspan></tspan></text>
 <text class="TextShape"><tspan class="TextParagraph" font-family="Liberation Sans, sans-serif" font-size="423px" font-weight="400"><tspan class="TextPosition" x="20479" y="12154"><tspan fill="rgb(0,0,0)" stroke="none">Finsko</tspan></tspan></tspan></text>
 <text class="TextShape"><tspan class="TextParagraph" font-family="Liberation Sans, sans-serif" font-size="423px" font-weight="400"><tspan class="TextPosition" x="20479" y="12976"><tspan fill="rgb(0,0,0)" stroke="none">Francie</tspan></tspan></tspan></text>
 <text class="TextShape"><tspan class="TextParagraph" font-family="Liberation Sans, sans-serif" font-size="423px" font-weight="400"><tspan class="TextPosition" x="20479" y="13799"><tspan fill="rgb(0,0,0)" stroke="none">Chorvatsko</tspan></tspan></tspan></text>
 <text class="TextShape"><tspan class="TextParagraph" font-family="Liberation Sans, sans-serif" font-size="423px" font-weight="400"><tspan class="TextPosition" x="20479" y="14622"><tspan fill="rgb(0,0,0)" stroke="none">esko</tspan></tspan></tspan></text>
 <text class="TextShape"><tspan class="TextParagraph" font-family="Liberation Sans, sans-serif" font-size="423px" font-weight="400"><tspan class="TextPosition" x="20479" y="15445"><tspan fill="rgb(0,0,0)" stroke="none">Bulharsko</tspan></tspan></tspan></text>
 <text class="TextShape"><tspan class="TextParagraph" font-family="Liberation Sans, sans-serif" font-size="423px" font-weight="400"><tspan class="TextPosition" x="20479" y="16268"><tspan fill="rgb(0,0,0)" stroke="none">EU_nov zem</tspan></tspan></tspan></text>
 <text class="TextShape"><tspan class="TextParagraph" font-family="Liberation Sans, sans-serif" font-size="423px" font-weight="400"><tspan class="TextPosition" x="20479" y="17091"><tspan fill="rgb(0,0,0)" stroke="none">Polsko</tspan></tspan></tspan></text>
 <text class="TextShape"><tspan class="TextParagraph" font-family="Liberation Sans, sans-serif" font-size="423px" font-weight="400"><tspan class="TextPosition" x="20479" y="17914"><tspan fill="rgb(0,0,0)" stroke="none">Slovinsko</tspan></tspan></tspan></text>
 <text class="TextShape"><tspan class="TextParagraph" font-family="Liberation Sans, sans-serif" font-size="423px" font-weight="400"><tspan class="TextPosition" x="20479" y="18737"><tspan fill="rgb(0,0,0)" stroke="none">Kypr</tspan></tspan></tspan></text>
 <text class="TextShape"><tspan class="TextParagraph" font-family="Liberation Sans, sans-serif" font-size="423px" font-weight="400"><tspan class="TextPosition" x="20479" y="19560"><tspan fill="rgb(0,0,0)" stroke="none">Litva</tspan></tspan></tspan></text>
 <text class="TextShape"><tspan class="TextParagraph" font-family="Liberation Sans, sans-serif" font-size="423px" font-weight="400"><tspan class="TextPosition" x="20479" y="20383"><tspan fill="rgb(0,0,0)" stroke="none">Lotysko</tspan></tspan></tspan></text>
 <text class="TextShape"><tspan class="TextParagraph" font-family="Liberation Sans, sans-serif" font-size="423px" font-weight="400"><tspan class="TextPosition" x="20479" y="21206"><tspan fill="rgb(0,0,0)" stroke="none">Maarsko</tspan></tspan></tspan></text>
 <text class="TextShape"><tspan class="TextParagraph" font-family="Liberation Sans, sans-serif" font-size="423px" font-weight="400"><tspan class="TextPosition" x="20479" y="22029"><tspan fill="rgb(0,0,0)" stroke="none">Slovensko</tspan></tspan></tspan></text>
 <text class="TextShape"><tspan class="TextParagraph" font-family="Liberation Sans, sans-serif" font-size="423px" font-weight="400"><tspan class="TextPosition" x="20479" y="22852"><tspan fill="rgb(0,0,0)" stroke="none">ecko</tspan></tspan></tspan></text>
</svg>