<?xml version="1.0" encoding="UTF-8"?>
<!DOCTYPE svg PUBLIC "-//W3C//DTD SVG 1.1//EN" "http://www.w3.org/Graphics/SVG/1.1/DTD/svg11.dtd">
<svg width="236mm" height="250mm" viewBox="0 0 23600 25000" version="1.1" xmlns="http://www.w3.org/2000/svg" xmlns:xlink="http://www.w3.org/1999/xlink" stroke-width="28.222" stroke-linejoin="round" xml:space="preserve">
 <path fill="rgb(255,255,255)" stroke="none" d="M 11800,25000 L 0,25000 0,0 23600,0 23600,25000 11800,25000 Z"/>
 <path fill="none" stroke="rgb(179,179,179)" stroke-linejoin="round" d="M 10027,23350 L 1413,23350 1413,1712 18641,1712 18641,23350 10027,23350 Z"/>
 <path fill="none" stroke="rgb(179,179,179)" stroke-linejoin="round" d="M 18641,23349 L 1413,23349"/>
 <path fill="none" stroke="rgb(179,179,179)" stroke-linejoin="round" d="M 18641,19742 L 1413,19742"/>
 <path fill="none" stroke="rgb(179,179,179)" stroke-linejoin="round" d="M 18641,16136 L 1413,16136"/>
 <path fill="none" stroke="rgb(179,179,179)" stroke-linejoin="round" d="M 18641,12529 L 1413,12529"/>
 <path fill="none" stroke="rgb(179,179,179)" stroke-linejoin="round" d="M 18641,8924 L 1413,8924"/>
 <path fill="none" stroke="rgb(179,179,179)" stroke-linejoin="round" d="M 18641,5317 L 1413,5317"/>
 <path fill="none" stroke="rgb(179,179,179)" stroke-linejoin="round" d="M 18641,1711 L 1413,1711"/>
 <path fill="none" stroke="rgb(179,179,179)" stroke-linejoin="round" d="M 1413,23499 L 1413,23349"/>
 <path fill="none" stroke="rgb(179,179,179)" stroke-linejoin="round" d="M 1413,23499 L 1413,23349"/>
 <path fill="none" stroke="rgb(179,179,179)" stroke-linejoin="round" d="M 2250,23499 L 2250,23349"/>
 <path fill="none" stroke="rgb(179,179,179)" stroke-linejoin="round" d="M 2250,23499 L 2250,23349"/>
 <path fill="none" stroke="rgb(179,179,179)" stroke-linejoin="round" d="M 3088,23499 L 3088,23349"/>
 <path fill="none" stroke="rgb(179,179,179)" stroke-linejoin="round" d="M 3088,23499 L 3088,23349"/>
 <path fill="none" stroke="rgb(179,179,179)" stroke-linejoin="round" d="M 3925,23499 L 3925,23349"/>
 <path fill="none" stroke="rgb(179,179,179)" stroke-linejoin="round" d="M 3925,23499 L 3925,23349"/>
 <path fill="none" stroke="rgb(179,179,179)" stroke-linejoin="round" d="M 4763,23499 L 4763,23349"/>
 <path fill="none" stroke="rgb(179,179,179)" stroke-linejoin="round" d="M 4763,23499 L 4763,23349"/>
 <path fill="none" stroke="rgb(179,179,179)" stroke-linejoin="round" d="M 5600,23499 L 5600,23349"/>
 <path fill="none" stroke="rgb(179,179,179)" stroke-linejoin="round" d="M 5600,23499 L 5600,23349"/>
 <path fill="none" stroke="rgb(179,179,179)" stroke-linejoin="round" d="M 6438,23499 L 6438,23349"/>
 <path fill="none" stroke="rgb(179,179,179)" stroke-linejoin="round" d="M 6438,23499 L 6438,23349"/>
 <path fill="none" stroke="rgb(179,179,179)" stroke-linejoin="round" d="M 7275,23499 L 7275,23349"/>
 <path fill="none" stroke="rgb(179,179,179)" stroke-linejoin="round" d="M 7275,23499 L 7275,23349"/>
 <path fill="none" stroke="rgb(179,179,179)" stroke-linejoin="round" d="M 8113,23499 L 8113,23349"/>
 <path fill="none" stroke="rgb(179,179,179)" stroke-linejoin="round" d="M 8113,23499 L 8113,23349"/>
 <path fill="none" stroke="rgb(179,179,179)" stroke-linejoin="round" d="M 8950,23499 L 8950,23349"/>
 <path fill="none" stroke="rgb(179,179,179)" stroke-linejoin="round" d="M 8950,23499 L 8950,23349"/>
 <path fill="none" stroke="rgb(179,179,179)" stroke-linejoin="round" d="M 9788,23499 L 9788,23349"/>
 <path fill="none" stroke="rgb(179,179,179)" stroke-linejoin="round" d="M 9788,23499 L 9788,23349"/>
 <path fill="none" stroke="rgb(179,179,179)" stroke-linejoin="round" d="M 10625,23499 L 10625,23349"/>
 <path fill="none" stroke="rgb(179,179,179)" stroke-linejoin="round" d="M 10625,23499 L 10625,23349"/>
 <path fill="none" stroke="rgb(179,179,179)" stroke-linejoin="round" d="M 11463,23499 L 11463,23349"/>
 <path fill="none" stroke="rgb(179,179,179)" stroke-linejoin="round" d="M 11463,23499 L 11463,23349"/>
 <path fill="none" stroke="rgb(179,179,179)" stroke-linejoin="round" d="M 12299,23499 L 12299,23349"/>
 <path fill="none" stroke="rgb(179,179,179)" stroke-linejoin="round" d="M 12299,23499 L 12299,23349"/>
 <path fill="none" stroke="rgb(179,179,179)" stroke-linejoin="round" d="M 13137,23499 L 13137,23349"/>
 <path fill="none" stroke="rgb(179,179,179)" stroke-linejoin="round" d="M 13137,23499 L 13137,23349"/>
 <path fill="none" stroke="rgb(179,179,179)" stroke-linejoin="round" d="M 13974,23499 L 13974,23349"/>
 <path fill="none" stroke="rgb(179,179,179)" stroke-linejoin="round" d="M 13974,23499 L 13974,23349"/>
 <path fill="none" stroke="rgb(179,179,179)" stroke-linejoin="round" d="M 14812,23499 L 14812,23349"/>
 <path fill="none" stroke="rgb(179,179,179)" stroke-linejoin="round" d="M 14812,23499 L 14812,23349"/>
 <path fill="none" stroke="rgb(179,179,179)" stroke-linejoin="round" d="M 15649,23499 L 15649,23349"/>
 <path fill="none" stroke="rgb(179,179,179)" stroke-linejoin="round" d="M 15649,23499 L 15649,23349"/>
 <path fill="none" stroke="rgb(179,179,179)" stroke-linejoin="round" d="M 16487,23499 L 16487,23349"/>
 <path fill="none" stroke="rgb(179,179,179)" stroke-linejoin="round" d="M 16487,23499 L 16487,23349"/>
 <path fill="none" stroke="rgb(179,179,179)" stroke-linejoin="round" d="M 17324,23499 L 17324,23349"/>
 <path fill="none" stroke="rgb(179,179,179)" stroke-linejoin="round" d="M 17324,23499 L 17324,23349"/>
 <path fill="none" stroke="rgb(179,179,179)" stroke-linejoin="round" d="M 18162,23499 L 18162,23349"/>
 <path fill="none" stroke="rgb(179,179,179)" stroke-linejoin="round" d="M 18162,23499 L 18162,23349"/>
 <path fill="none" stroke="rgb(179,179,179)" stroke-linejoin="round" d="M 1413,23349 L 18641,23349"/>
 <path fill="none" stroke="rgb(179,179,179)" stroke-linejoin="round" d="M 1263,23349 L 1413,23349"/>
 <path fill="none" stroke="rgb(179,179,179)" stroke-linejoin="round" d="M 1263,23349 L 1413,23349"/>
 <path fill="none" stroke="rgb(179,179,179)" stroke-linejoin="round" d="M 1263,19742 L 1413,19742"/>
 <path fill="none" stroke="rgb(179,179,179)" stroke-linejoin="round" d="M 1263,19742 L 1413,19742"/>
 <path fill="none" stroke="rgb(179,179,179)" stroke-linejoin="round" d="M 1263,16136 L 1413,16136"/>
 <path fill="none" stroke="rgb(179,179,179)" stroke-linejoin="round" d="M 1263,16136 L 1413,16136"/>
 <path fill="none" stroke="rgb(179,179,179)" stroke-linejoin="round" d="M 1263,12529 L 1413,12529"/>
 <path fill="none" stroke="rgb(179,179,179)" stroke-linejoin="round" d="M 1263,12529 L 1413,12529"/>
 <path fill="none" stroke="rgb(179,179,179)" stroke-linejoin="round" d="M 1263,8924 L 1413,8924"/>
 <path fill="none" stroke="rgb(179,179,179)" stroke-linejoin="round" d="M 1263,8924 L 1413,8924"/>
 <path fill="none" stroke="rgb(179,179,179)" stroke-linejoin="round" d="M 1263,5317 L 1413,5317"/>
 <path fill="none" stroke="rgb(179,179,179)" stroke-linejoin="round" d="M 1263,5317 L 1413,5317"/>
 <path fill="none" stroke="rgb(179,179,179)" stroke-linejoin="round" d="M 1263,1711 L 1413,1711"/>
 <path fill="none" stroke="rgb(179,179,179)" stroke-linejoin="round" d="M 1263,1711 L 1413,1711"/>
 <path fill="none" stroke="rgb(179,179,179)" stroke-linejoin="round" d="M 1413,23349 L 1413,1711"/>
 <path fill="none" stroke="rgb(255,64,0)" stroke-width="80" stroke-linejoin="round" stroke-dasharray="80,40" d="M 1831,23348 L 1951,23348 2071,23348 2190,23348 2310,23348 2429,23348 2549,23348 2669,23348 2788,23348 2908,23348 3028,23348 3147,23348 3267,23348 3387,23348 3506,23347 3626,23347 3746,23347 3865,23347 3985,23347 4105,23347 4224,23347 4344,23347 4463,23347 4583,23347 4703,23347 4822,23347 4942,23347 5062,23347 5181,23347 5301,23323 5421,23229 5540,23229 5660,23229 5780,23229 5899,23161 6019,23161 6139,23153 6258,23134 6378,23123 6497,23114 6617,23101 6737,23093 6856,23084 6976,23072 7096,23059 7215,23043 7335,23026 7455,23001 7574,22984 7694,22960 7814,22939 7933,22912 8053,22879 8172,22845 8292,22825 8412,22797 8531,22777 8651,22732 8771,22683 8890,22674 9010,22627 9130,22587 9249,22550 9369,22496 9489,22442 9608,22358 9728,22279 9848,22199 9967,22138 10087,22076 10206,22043 10326,22002 10446,21934 10565,21841 10685,21740 10805,21643 10924,21595 11044,21557 11164,21450 11283,21323 11403,21184 11523,21083 11642,20996 11762,20938 11881,20138 12000,19981 12120,19835 12239,19699 12359,19570 12479,19449 12598,19366 12718,19294 12838,19189 12957,18926 13077,18811 13197,18666 13316,18453 13436,18356 13556,18241 13675,18018 13795,17742 13914,17581 14034,17386 14154,17171 14273,17016 14393,16916 14513,16657 14632,16408 14752,15219 14872,14991 14991,14939 15111,14614 15231,14329 15350,13952 15470,13673 15590,13405 15709,13015 15829,12788 15948,12612 16068,12389 16188,12116 16307,11890 16427,11487 16547,11224 16666,11064 16786,10965 16906,10496 17025,10147 17145,9836 17265,9596 17384,8977 17504,8195 17624,7961 17743,7675 17863,7487 17982,7028 18102,6740 18222,6298 18341,6051 18461,5839 18581,5533"/>
 <path fill="none" stroke="rgb(141,40,30)" stroke-width="80" stroke-linejoin="round" stroke-dasharray="80,40" d="M 1472,23348 L 1592,23348 1712,23348 1831,23348 1951,23348 2071,23348 2190,23348 2310,23348 2429,23348 2549,23348 2669,23348 2788,23347 2908,23347 3028,23345 3147,23344 3267,23343 3387,23334 3506,23318 3626,23310 3746,23302 3865,23299 3985,23296 4105,23269 4224,23253 4344,23242 4463,23230 4583,23220 4703,23210 4822,23192 4942,23178 5062,23169 5181,23112 5301,23088 5421,23065 5540,23050 5660,23030 5780,22995 5899,22965 6019,22954 6139,22939 6258,22927 6378,22912 6497,22809 6617,22802 6737,22766 6856,22741 6976,22717 7096,22691 7215,22510 7335,22455 7455,22393 7574,22367 7694,22329 7814,22315 7933,22314 8053,22286 8172,22264 8292,22191 8412,22171 8531,22081 8651,22094 8771,22022 8890,22006 9010,21982 9130,21886 9249,21865 9369,21806 9489,21772 9608,21745 9728,21723 9848,21441 9967,21381 10087,21351 10206,21283 10326,21252 10446,21216 10565,21169 10685,21134 10805,21080 10924,20926 11044,20852 11164,20821 11283,20738 11403,20706 11523,20670 11642,20620 11762,20590 11881,20524 12000,20489 12120,20442 12239,20405 12359,20366 12479,20316 12598,20288 12718,20209 12838,20170 12957,20122 13077,20085 13197,20043 13316,19985 13436,19959 13556,19861 13675,19821 13795,19774 13914,19734 14034,19694 14154,19648 14273,19616 14393,19507 14513,19423 14632,19372 14752,19088 14872,19043 14991,18476 15111,18409 15231,18314 15350,18247 15470,18154 15590,18069 15709,17992 15829,17925 15948,17866 16068,17727 16188,17633 16307,17487 16427,17407 16547,17317 16666,17232 16786,17186 16906,17029 17025,16909 17145,16752 17265,16630 17384,16475 17504,16378 17624,16278 17743,16126 17863,15965 17982,15779 18102,15644 18222,15514 18341,15384 18461,15347 18581,15103"/>
 <path fill="none" stroke="rgb(0,255,0)" stroke-width="80" stroke-linejoin="round" d="M 1472,23348 L 1592,23348 1712,23348 1831,23348 1951,23348 2071,23345 2190,23345 2310,23345 2429,23345 2549,23321 2669,23321 2788,23321 2908,23321 3028,23321 3147,23030 3267,23030 3387,23016 3506,22969 3626,22969 3746,22730 3865,22512 3985,22339 4105,22012 4224,22012 4344,21670 4463,21535 4583,21307 4703,21140 4822,21036 4942,20827 5062,20702 5181,20494 5301,20494 5421,20140 5540,20036 5660,19931 5780,19786 5899,19640 6019,19473 6139,19306 6258,19202 6378,19056 6497,18973 6617,18910 6737,18806 6856,18723 6976,18640 7096,18640 7215,18473 7335,18369 7455,18306 7574,18244 7694,18098 7814,18056 7933,17994 8053,17952 8172,17910 8292,17848 8412,17806 8531,17765 8651,17765 8771,17702 8890,17702 9010,17702 9130,17640 9249,17619 9369,17598 9489,17577 9608,17556 9728,17535 9848,17535 9967,17515 10087,17494 10206,17473 10326,17473 10446,17452 10565,17452 10685,17452 10805,17431 10924,17410 11044,17410 11164,17410 11283,17389 11403,17389 11523,17389 11642,17369 11762,17369 11881,17369 12000,17369 12120,17369 12239,17348 12359,17348 12479,17348 12598,17348 12718,17327 12838,17327 12957,17327 13077,17327 13197,17327 13316,17327 13436,17306 13556,17306 13675,17306 13795,17306 13914,17306 14034,17306 14154,17285 14273,17285 14393,17285 14513,17264 14632,17264 14752,17264 14872,17264 14991,17264 15111,17244 15231,17244 15350,17244 15470,17223 15590,17223 15709,17223 15829,17202 15948,17181 16068,17181 16188,17139 16307,17139 16427,17119 16547,17119 16666,17119 16786,17035 16906,17035 17025,17035 17145,16994 17265,16994 17384,16994 17504,16994 17624,16952 17743,16910 17863,16889 17982,16869 18102,16869 18222,16869 18341,16827 18461,16785 18581,16785"/>
 <path fill="none" stroke="rgb(0,127,255)" stroke-width="80" stroke-linejoin="round" d="M 1472,23306 L 1592,23290 1712,23279 1831,23267 1951,23261 2071,23228 2190,23216 2310,23216 2429,23167 2549,23139 2669,23139 2788,23100 2908,23069 3028,23039 3147,23022 3267,22979 3387,22960 3506,22912 3626,22879 3746,22846 3865,22803 3985,22759 4105,22722 4224,22698 4344,22667 4463,22621 4583,22558 4703,22499 4822,22440 4942,22378 5062,22328 5181,22292 5301,22241 5421,22212 5540,22151 5660,22074 5780,22009 5899,21945 6019,21891 6139,21810 6258,21722 6378,21631 6497,21544 6617,21466 6737,21412 6856,21361 6976,21292 7096,21223 7215,21083 7335,21015 7455,20965 7574,20913 7694,20877 7814,20807 7933,20568 8053,20477 8172,20395 8292,20276 8412,20211 8531,20170 8651,20096 8771,19992 8890,19910 9010,19763 9130,19686 9249,19615 9369,19551 9489,19489 9608,19403 9728,19335 9848,19271 9967,19208 10087,19159 10206,19114 10326,19034 10446,18961 10565,18857 10685,18790 10805,18707 10924,18651 11044,18626 11164,18574 11283,18549 11403,18520 11523,18464 11642,18425 11762,18402 11881,18380 12000,18319 12120,18280 12239,18238 12359,18186 12479,18133 12598,18088 12718,18069 12838,18024 12957,17996 13077,17964 13197,17923 13316,17907 13436,17894 13556,17878 13675,17843 13795,17798 13914,17780 14034,17753 14154,17724 14273,17715 14393,17706 14513,17674 14632,17660 14752,17650 14872,17638 14991,17624 15111,17619 15231,17615 15350,17598 15470,17573 15590,17563 15709,17554 15829,17545 15948,17535 16068,17530 16188,17520 16307,17502 16427,17496 16547,17488 16666,17479 16786,17475 16906,17468 17025,17460 17145,17454 17265,17448 17384,17438 17504,17434 17624,17430 17743,17426 17863,17421 17982,17412 18102,17390 18222,17384 18341,17377 18461,17370 18581,17366"/>
 <path fill="none" stroke="rgb(128,0,128)" stroke-width="80" stroke-linejoin="round" d="M 1472,23341 L 1592,23329 1712,23329 1831,23328 1951,23309 2071,23307 2190,23306 2310,23287 2429,23267 2549,23249 2669,23249 2788,23202 2908,23142 3028,23078 3147,22988 3267,22875 3387,22781 3506,22701 3626,22606 3746,22475 3865,22317 3985,22172 4105,22029 4224,21880 4344,21789 4463,21682 4583,21496 4703,21337 4822,21201 4942,21069 5062,20942 5181,20852 5301,20745 5421,20616 5540,20464 5660,20464 5780,20464 5899,20365 6019,20240 6139,20166 6258,20035 6378,19906 6497,19787 6617,19657 6737,19554 6856,19458 6976,19393 7096,19147 7215,19027 7335,19027 7455,18826 7574,18763 7694,18669 7814,18586 7933,18489 8053,18392 8172,18290 8292,18182 8412,18097 8531,18059 8651,17988 8771,17917 8890,17819 9010,17764 9130,17700 9249,17700 9369,17549 9489,17549 9608,17549 9728,17549 9848,17549 9967,17549 10087,17549 10206,17549 10326,17549 10446,17549 10565,17549 10685,17549 10805,17549 10924,17549 11044,17549 11164,17549 11283,17549 11403,17549 11523,17549 11642,17549 11762,17549 11881,17549 12000,17549 12120,17549 12239,17549 12359,17549 12479,17549 12598,17549 12718,17549 12838,17549 12957,17549 13077,17549 13197,17549 13316,17549 13436,17549 13556,17549 13675,17549 13795,17549 13914,17549 14034,17549 14154,17549 14273,17549 14393,17549 14513,17549 14632,17549 14752,17549 14872,17549 14991,17549 15111,17549 15231,17549 15350,17549 15470,17549 15590,17549 15709,17549 15829,17549 15948,17549 16068,17549 16188,17549 16307,17549 16427,17549 16547,17549 16666,17549 16786,17549 16906,17549 17025,17549 17145,17549 17265,17549 17384,17549 17504,17549 17624,17549 17743,17549 17863,17549 17982,17549 18102,17549 18222,17549 18341,17549 18461,17549 18581,17549"/>
 <path fill="none" stroke="rgb(0,169,51)" stroke-width="80" stroke-linejoin="round" stroke-dasharray="80,40" d="M 1472,23348 L 1592,23348 1712,23348 1831,23348 1951,23348 2071,23348 2190,23348 2310,23348 2429,23348 2549,23348 2669,23348 2788,23348 2908,23348 3028,23348 3147,23348 3267,23348 3387,23348 3506,23348 3626,23348 3746,23348 3865,23348 3985,23340 4105,23340 4224,23340 4344,23340 4463,23340 4583,23340 4703,23340 4822,23340 4942,23340 5062,23324 5181,23323 5301,23321 5421,23319 5540,23319 5660,23319 5780,23319 5899,23312 6019,23312 6139,23312 6258,23312 6378,23312 6497,23312 6617,23249 6737,23232 6856,23221 6976,23189 7096,23189 7215,23189 7335,23175 7455,23175 7574,23160 7694,23160 7814,23113 7933,23100 8053,23100 8172,23064 8292,23043 8412,23043 8531,23025 8651,22986 8771,22971 8890,22950 9010,22923 9130,22903 9249,22882 9369,22854 9489,22826 9608,22811 9728,22787 9848,22758 9967,22727 10087,22691 10206,22657 10326,22625 10446,22596 10565,22565 10685,22523 10805,22492 10924,22457 11044,22412 11164,22373 11283,22332 11403,22303 11523,22260 11642,22218 11762,22177 11881,22123 12000,22079 12120,22035 12239,21989 12359,21938 12479,21893 12598,21848 12718,21778 12838,21735 12957,21691 13077,21640 13197,21580 13316,21518 13436,21467 13556,21399 13675,21339 13795,21272 13914,21218 14034,21155 14154,21101 14273,21046 14393,20969 14513,20907 14632,20852 14752,20778 14872,20700 14991,20611 15111,20553 15231,20484 15350,20419 15470,20351 15590,20277 15709,20197 15829,20134 15948,20063 16068,19990 16188,19910 16307,19819 16427,19745 16547,19653 16666,19555 16786,19783 16906,19669 17025,19609 17145,19570 17265,19496 17384,19385 17504,19309 17624,19220 17743,19099 17863,19039 17982,18949 18102,18872 18222,18773 18341,18665 18461,18558 18581,18405"/>
 <path fill="none" stroke="rgb(85,48,141)" stroke-width="80" stroke-linejoin="round" stroke-dasharray="80,40" d="M 1472,23348 L 1592,23348 1712,23348 1831,23348 1951,23348 2071,23348 2190,23348 2310,23348 2429,23348 2549,23348 2669,23348 2788,23343 2908,23340 3028,23340 3147,23336 3267,23326 3387,23326 3506,23326 3626,23272 3746,23285 3865,23266 3985,23245 4105,23225 4224,23205 4344,23193 4463,23167 4583,23150 4703,23102 4822,23069 4942,23034 5062,23008 5181,22978 5301,22956 5421,22920 5540,22885 5660,22845 5780,22825 5899,22782 6019,22749 6139,22718 6258,22658 6378,22643 6497,22625 6617,22583 6737,22542 6856,22476 6976,22430 7096,22377 7215,22325 7335,22261 7455,22211 7574,22158 7694,22105 7814,22058 7933,22002 8053,21951 8172,21904 8292,21855 8412,21814 8531,21771 8651,21721 8771,21668 8890,21624 9010,21585 9130,21541 9249,21506 9369,21473 9489,21434 9608,21399 9728,21355 9848,21313 9967,21279 10087,21246 10206,21215 10326,21182 10446,21139 10565,21105 10685,21060 10805,21030 10924,20997 11044,20955 11164,20925 11283,20888 11403,20855 11523,20813 11642,20764 11762,20736 11881,20704 12000,20667 12120,20615 12239,20571 12359,20528 12479,20489 12598,20450 12718,20412 12838,20391 12957,20325 13077,20301 13197,20276 13316,20251 13436,20231 13556,20208 13675,20189 13795,20170 13914,20154 14034,20139 14154,20126 14273,20114 14393,20066 14513,20046 14632,20033 14752,20010 14872,19993 14991,19980 15111,19967 15231,19950 15350,19936 15470,19918 15590,19904 15709,19886 15829,19871 15948,19863 16068,19842 16188,19827 16307,19810 16427,19792 16547,18653 16666,18645 16786,18639 16906,18620 17025,18607 17145,18595 17265,18574 17384,18547 17504,18534 17624,18524 17743,18502 17863,18490 17982,18476 18102,18459 18222,18432 18341,18424 18461,18418 18581,18414"/>
 <path fill="none" stroke="rgb(0,0,0)" stroke-width="80" stroke-linejoin="round" d="M 1472,23348 L 1592,23348 1712,23348 1831,23347 1951,23347 2071,23346 2190,23346 2310,23345 2429,23343 2549,23343 2669,23343 2788,23279 2908,23272 3028,23226 3147,23205 3267,23166 3387,23150 3506,23058 3626,23002 3746,22946 3865,22866 3985,22820 4105,22780 4224,22731 4344,22731 4463,22572 4583,22352 4703,22221 4822,22188 4942,22113 5062,22051 5181,21965 5301,21881 5421,21786 5540,21691 5660,21560 5780,21510 5899,21455 6019,21379 6139,21300 6258,21209 6378,21125 6497,20985 6617,20985 6737,20938 6856,20884 6976,20822 7096,20757 7215,20690 7335,20617 7455,20572 7574,20538 7694,20492 7814,20441 7933,20337 8053,20299 8172,20299 8292,20264 8412,20241 8531,20214 8651,20180 8771,20148 8890,20114 9010,20086 9130,20064 9249,20034 9369,20012 9489,19998 9608,19970 9728,19946 9848,19925 9967,19911 10087,19899 10206,19879 10326,19863 10446,19844 10565,19833 10685,19814 10805,19799 10924,19790 11044,19784 11164,19763 11283,19744 11403,19735 11523,19722 11642,19712 11762,19706 11881,19699 12000,19687 12120,19676 12239,19669 12359,19657 12479,19647 12598,19645 12718,19632 12838,19628 12957,19612 13077,19607 13197,19604 13316,19590 13436,19588 13556,19579 13675,19564 13795,19551 13914,19544 14034,19536 14154,19528 14273,19525 14393,19522 14513,19515 14632,19494 14752,19479 14872,19468 14991,19453 15111,19437 15231,19428 15350,19417 15470,19407 15590,19394 15709,19388 15829,19383 15948,19379 16068,19365 16188,19365 16307,19345 16427,19337 16547,19326 16666,19319 16786,19315 16906,19301 17025,19297 17145,19289 17265,19278 17384,19266 17504,19261 17624,19258 17743,19252 17863,19244 17982,19232 18102,19226 18222,19216 18341,19202 18461,19197 18581,19182"/>
 <path fill="none" stroke="rgb(180,120,4)" stroke-width="80" stroke-linejoin="round" d="M 1472,23348 L 1592,23348 1712,23348 1831,23348 1951,23348 2071,23348 2190,23348 2310,23348 2429,23348 2549,23348 2669,23348 2788,23337 2908,23336 3028,23333 3147,23331 3267,23331 3387,23326 3506,23326 3626,23325 3746,23052 3865,22990 3985,22955 4105,22927 4224,22912 4344,22893 4463,22853 4583,22809 4703,22773 4822,22759 4942,22703 5062,22648 5181,22614 5301,22526 5421,22454 5540,22369 5660,22257 5780,22116 5899,22025 6019,21973 6139,21854 6258,21735 6378,21645 6497,21601 6617,21557 6737,21516 6856,21469 6976,21418 7096,21343 7215,21287 7335,21232 7455,21183 7574,21152 7694,21121 7814,21058 7933,20998 8053,20931 8172,20864 8292,20814 8412,20776 8531,20742 8651,20665 8771,20639 8890,20596 9010,20549 9130,20504 9249,20467 9369,20444 9489,20409 9608,20372 9728,20340 9848,20303 9967,20281 10087,20261 10206,20241 10326,20217 10446,20198 10565,20175 10685,20157 10805,20131 10924,20120 11044,20105 11164,20081 11283,20062 11403,20040 11523,20030 11642,20009 11762,19999 11881,19988 12000,19970 12120,19953 12239,19938 12359,19926 12479,19913 12598,19903 12718,19897 12838,19886 12957,19868 13077,19850 13197,19838 13316,19838 13436,19838 13556,19818 13675,19804 13795,19795 13914,19783 14034,19769 14154,19769 14273,19769 14393,19737 14513,19726 14632,19712 14752,19689 14872,19674 14991,19674 15111,19674 15231,19638 15350,19623 15470,19618 15590,19604 15709,19595 15829,19595 15948,19595 16068,19578 16188,19569 16307,19562 16427,19558 16547,19554 16666,19554 16786,19554 16906,19541 17025,19538 17145,19534 17265,19527 17384,19514 17504,19514 17624,19514 17743,19491 17863,19480 17982,19470 18102,19457 18222,19441 18341,19441 18461,19440 18581,19408"/>
 <path fill="none" stroke="rgb(0,169,51)" stroke-width="80" stroke-linejoin="round" d="M 1472,23347 L 1592,23347 1712,23347 1831,23347 1951,23348 2071,23347 2190,23347 2310,23347 2429,23347 2549,23347 2669,23347 2788,23347 2908,23347 3028,23326 3147,23303 3267,23303 3387,23253 3506,23221 3626,23129 3746,23061 3865,22998 3985,22944 4105,22847 4224,22748 4344,22655 4463,22538 4583,22445 4703,22299 4822,22134 4942,22026 5062,21950 5181,21878 5301,21820 5421,21727 5540,21549 5660,21406 5780,21303 5899,21246 6019,21220 6139,21152 6258,21080 6378,21007 6497,20972 6617,20925 6737,20889 6856,20873 6976,20830 7096,20790 7215,20764 7335,20724 7455,20710 7574,20700 7694,20682 7814,20653 7933,20618 8053,20606 8172,20578 8292,20560 8412,20547 8531,20533 8651,20516 8771,20485 8890,20464 9010,20451 9130,20441 9249,20433 9369,20423 9489,20410 9608,20369 9728,20355 9848,20344 9967,20338 10087,20333 10206,20318 10326,20309 10446,20300 10565,20288 10685,20276 10805,20241 10924,20226 11044,20226 11164,20219 11283,20211 11403,20202 11523,20197 11642,20187 11762,20186 11881,20177 12000,20170 12120,20163 12239,20155 12359,20148 12479,20143 12598,20133 12718,20132 12838,20127 12957,20125 13077,20125 13197,20117 13316,20110 13436,20106 13556,20097 13675,20093 13795,20089 13914,20081 14034,20075 14154,20071 14273,20065 14393,20061 14513,20049 14632,20047 14752,20042 14872,20033 14991,20023 15111,20022 15231,20015 15350,20008 15470,20001 15590,19993 15709,19983 15829,19972 15948,19954 16068,19945 16188,19930 16307,19910 16427,19896 16547,19878 16666,19844 16786,19825 16906,19813 17025,19801 17145,19775 17265,19756 17384,19736 17504,19720 17624,19703 17743,19695 17863,19669 17982,19639 18102,19619 18222,19593 18341,19562 18461,19548 18581,19532"/>
 <path fill="none" stroke="rgb(21,132,102)" stroke-width="80" stroke-linejoin="round" stroke-dasharray="80,203,80,203,203,203" d="M 1472,23332 L 1592,23332 1712,23331 1831,23330 1951,23330 2071,23329 2190,23329 2310,23328 2429,23327 2549,23326 2669,23326 2788,23323 2908,23322 3028,23320 3147,23318 3267,23316 3387,23314 3506,23310 3626,23307 3746,23304 3865,23300 3985,23296 4105,23292 4224,23288 4344,23285 4463,23279 4583,23272 4703,23267 4822,23262 4942,23255 5062,23251 5181,23245 5301,23239 5421,23230 5540,23223 5660,23217 5780,23212 5899,23204 6019,23199 6139,23191 6258,23184 6378,23177 6497,23166 6617,23159 6737,23153 6856,23146 6976,23139 7096,23129 7215,23114 7335,23105 7455,23096 7574,23088 7694,23080 7814,23072 7933,23061 8053,23052 8172,23043 8292,23031 8412,23023 8531,23012 8651,23004 8771,22991 8890,22982 9010,22971 9130,22958 9249,22948 9369,22936 9489,22924 9608,22910 9728,22898 9848,22873 9967,22860 10087,22847 10206,22833 10326,22820 10446,22805 10565,22790 10685,22772 10805,22756 10924,22738 11044,22725 11164,22701 11283,22683 11403,22667 11523,22651 11642,22634 11762,22621 11881,22586 12000,22567 12120,22549 12239,22529 12359,22510 12479,22490 12598,22474 12718,22455 12838,22433 12957,22405 13077,22386 13197,22364 13316,22338 13436,22322 13556,22301 13675,22276 13795,22250 13914,22228 14034,22203 14154,22179 14273,22158 14393,22136 14513,22109 14632,22082 14752,22016 14872,21991 14991,21946 15111,21918 15231,21889 15350,21856 15470,21819 15590,21788 15709,21756 15829,21727 15948,21701 16068,21668 16188,21635 16307,21598 16427,21563 16547,21521 16666,21486 16786,21465 16906,21429 17025,21388 17145,21347 17265,21308 17384,21255 17504,21204 17624,21171 17743,21132 17863,21092 17982,21045 18102,20994 18222,20948 18341,20905 18461,20873 18581,20822"/>
 <path fill="none" stroke="rgb(255,211,32)" stroke-width="80" stroke-linejoin="round" d="M 1831,23348 L 1951,23348 2071,23348 2190,23348 2310,23348 2429,23347 2549,23347 2669,23347 2788,23347 2908,23347 3028,23347 3147,23347 3267,23347 3387,23347 3506,23344 3626,23341 3746,23338 3865,23337 3985,23336 4105,23335 4224,23332 4344,23328 4463,23320 4583,23309 4703,23298 4822,23290 4942,23279 5062,23270 5181,23261 5301,23240 5421,23211 5540,23185 5660,23151 5780,23142 5899,23130 6019,23086 6139,23053 6258,23014 6378,22986 6497,22949 6617,22935 6737,22920 6856,22873 6976,22852 7096,22825 7215,22790 7335,22781 7455,22766 7574,22744 7694,22707 7814,22674 7933,22640 8053,22612 8172,22605 8292,22600 8412,22595 8531,22555 8651,22525 8771,22499 8890,22466 9010,22442 9130,22436 9249,22429 9369,22399 9489,22384 9608,22367 9728,22351 9848,22334 9967,22331 10087,22325 10206,22308 10326,22293 10446,22276 10565,22261 10685,22254 10805,22246 10924,22244 11044,22230 11164,22223 11283,22212 11403,22202 11523,22190 11642,22189 11762,22188 11881,22171 12000,22161 12120,22151 12239,22142 12359,22134 12479,22133 12598,22132 12718,22120 12838,22110 12957,22103 13077,22096 13197,22090 13316,22089 13436,22086 13556,22079 13675,22076 13795,22071 13914,22061 14034,22057 14154,22055 14273,22051 14393,22044 14513,22040 14632,22036 14752,22031 14872,22027 14991,22026 15111,22024 15231,22023 15350,22017 15470,22000 15590,21980 15709,21966 15829,21963 15948,21960 16068,21939 16188,21927 16307,21916 16427,21894 16547,21879 16666,21878 16786,21873 16906,21861 17025,21847 17145,21809 17265,21778 17384,21762 17504,21734 17624,21424 17743,21424 17863,21424 17982,21424 18102,21415 18222,21400 18341,21397 18461,21394 18581,21377"/>
 <path fill="none" stroke="rgb(191,0,65)" stroke-width="80" stroke-linejoin="round" stroke-dasharray="51,127,51,127,254,127,254,127,254,127" d="M 1472,23348 L 1592,23348 1712,23348 1831,23348 1951,23348 2071,23348 2190,23348 2310,23348 2429,23347 2549,23347 2669,23347 2788,23346 2908,23345 3028,23345 3147,23344 3267,23343 3387,23342 3506,23341 3626,23340 3746,23338 3865,23336 3985,23336 4105,23332 4224,23331 4344,23328 4463,23325 4583,23321 4703,23315 4822,23310 4942,23306 5062,23300 5181,23295 5301,23287 5421,23275 5540,23265 5660,23254 5780,23244 5899,23236 6019,23226 6139,23213 6258,23198 6378,23186 6497,23165 6617,23155 6737,23145 6856,23134 6976,23120 7096,23103 7215,23081 7335,23067 7455,23054 7574,23042 7694,23027 7814,23012 7933,22991 8053,22974 8172,22950 8292,22933 8412,22923 8531,22912 8651,22890 8771,22872 8890,22838 9010,22822 9130,22809 9249,22796 9369,22770 9489,22757 9608,22744 9728,22722 9848,22707 9967,22692 10087,22682 10206,22673 10326,22650 10446,22636 10565,22615 10685,22606 10805,22592 10924,22582 11044,22574 11164,22565 11283,22551 11403,22541 11523,22530 11642,22517 11762,22508 11881,22500 12000,22492 12120,22482 12239,22471 12359,22464 12479,22454 12598,22449 12718,22442 12838,22430 12957,22421 13077,22408 13197,22395 13316,22382 13436,22369 13556,22357 13675,22345 13795,22329 13914,22307 14034,22290 14154,22269 14273,22253 14393,22243 14513,22230 14632,22215 14752,22204 14872,22190 14991,22175 15111,22160 15231,22150 15350,22137 15470,22116 15590,22098 15709,22080 15829,22062 15948,22048 16068,22032 16188,22021 16307,21997 16427,21980 16547,21962 16666,21948 16786,21936 16906,21924 17025,21881 17145,21862 17265,21839 17384,21813 17504,21797 17624,21752 17743,21741 17863,21726 17982,21712 18102,21695 18222,21676 18341,21659 18461,21647 18581,21633"/>
 <path fill="none" stroke="rgb(128,0,128)" stroke-width="80" stroke-linejoin="round" stroke-dasharray="158,158" d="M 1472,23348 L 1592,23348 1712,23348 1831,23348 1951,23348 2071,23348 2190,23348 2310,23348 2429,23348 2549,23348 2669,23348 2788,23348 2908,23348 3028,23348 3147,23348 3267,23348 3387,23348 3506,23348 3626,23348 3746,23348 3865,23348 3985,23348 4105,23348 4224,23348 4344,23348 4463,23348 4583,23348 4703,23348 4822,23347 4942,23347 5062,23347 5181,23347 5301,23347 5421,23347 5540,23346 5660,23346 5780,23345 5899,23345 6019,23344 6139,23343 6258,23343 6378,23342 6497,23341 6617,23341 6737,23340 6856,23339 6976,23338 7096,23337 7215,23337 7335,23335 7455,23334 7574,23333 7694,23332 7814,23330 7933,23328 8053,23327 8172,23325 8292,23323 8412,23321 8531,23319 8651,23317 8771,23314 8890,23312 9010,23309 9130,23304 9249,23300 9369,23297 9489,23293 9608,23289 9728,23285 9848,23281 9967,23277 10087,23273 10206,23269 10326,23265 10446,23260 10565,23256 10685,23241 10805,23235 10924,23228 11044,23223 11164,23217 11283,23213 11403,23207 11523,23201 11642,23193 11762,23187 11881,23180 12000,23173 12120,23172 12239,23156 12359,23147 12479,23136 12598,23127 12718,23113 12838,23104 12957,23095 13077,23081 13197,23069 13316,23051 13436,23039 13556,23024 13675,23010 13795,22993 13914,22975 14034,22962 14154,22944 14273,22928 14393,22911 14513,22894 14632,22878 14752,22852 14872,22833 14991,22814 15111,22794 15231,22774 15350,22752 15470,22726 15590,22701 15709,22675 15829,22650 15948,22625 16068,22602 16188,22575 16307,22548 16427,22518 16547,22494 16666,22463 16786,22434 16906,22402 17025,22364 17145,22326 17265,22281 17384,22239 17504,22191 17624,22150 17743,22106 17863,22057 17982,22016 18102,21969 18222,21918 18341,21852 18461,21798 18581,21741"/>
 <path fill="none" stroke="rgb(0,0,255)" stroke-width="80" stroke-linejoin="round" stroke-dasharray="158,158" d="M 1472,23331 L 1592,23331 1712,23331 1831,23309 1951,23299 2071,23294 2190,23294 2310,23294 2429,23294 2549,23246 2669,23246 2788,23225 2908,23217 3028,23203 3147,23189 3267,23179 3387,23171 3506,23165 3626,23158 3746,23153 3865,23144 3985,23137 4105,23126 4224,23121 4344,23116 4463,23113 4583,23110 4703,23103 4822,23098 4942,23094 5062,23089 5181,23087 5301,23084 5421,23081 5540,23076 5660,23073 5780,23069 5899,23066 6019,23063 6139,23060 6258,23057 6378,23050 6497,23045 6617,23042 6737,23040 6856,23037 6976,23035 7096,23030 7215,23029 7335,23028 7455,23026 7574,23024 7694,23022 7814,23020 7933,23017 8053,23015 8172,23012 8292,23010 8412,23010 8531,23008 8651,23008 8771,23005 8890,23003 9010,23002 9130,23001 9249,23000 9369,22999 9489,22994 9608,22992 9728,22991 9848,22990 9967,22989 10087,22989 10206,22987 10326,22986 10446,22985 10565,22984 10685,22983 10805,22983 10924,22982 11044,22981 11164,22980 11283,22979 11403,22979 11523,22978 11642,22977 11762,22977 11881,22976 12000,22975 12120,22974 12239,22973 12359,22972 12479,22972 12598,22971 12718,22970 12838,22970 12957,22969 13077,22967 13197,22967 13316,22966 13436,22966 13556,22965 13675,22964 13795,22963 13914,22956 14034,22950 14154,22949 14273,22947 14393,22943 14513,22940 14632,22938 14752,22935 14872,22933 14991,22932 15111,22932 15231,22929 15350,22927 15470,22926 15590,22924 15709,22921 15829,22920 15948,22919 16068,22917 16188,22914 16307,22913 16427,22910 16547,22908 16666,22907 16786,22906 16906,22904 17025,22902 17145,22900 17265,22898 17384,22896 17504,22895 17624,22895 17743,22891 17863,22889 17982,22887 18102,22885 18222,22883 18341,22882 18461,22881 18581,22879"/>
 <text class="TextShape" transform="rotate(-90 1598 24553)"><tspan class="TextParagraph" font-family="Liberation Sans, sans-serif" font-size="388px" font-weight="400"><tspan class="TextPosition" x="1598" y="24553"><tspan fill="rgb(0,0,0)" stroke="none">13.03</tspan></tspan></tspan></text>
 <text class="TextShape" transform="rotate(-90 2436 24553)"><tspan class="TextParagraph" font-family="Liberation Sans, sans-serif" font-size="388px" font-weight="400"><tspan class="TextPosition" x="2436" y="24553"><tspan fill="rgb(0,0,0)" stroke="none">20.03</tspan></tspan></tspan></text>
 <text class="TextShape" transform="rotate(-90 3273 24553)"><tspan class="TextParagraph" font-family="Liberation Sans, sans-serif" font-size="388px" font-weight="400"><tspan class="TextPosition" x="3273" y="24553"><tspan fill="rgb(0,0,0)" stroke="none">27.03</tspan></tspan></tspan></text>
 <text class="TextShape" transform="rotate(-90 4111 24553)"><tspan class="TextParagraph" font-family="Liberation Sans, sans-serif" font-size="388px" font-weight="400"><tspan class="TextPosition" x="4111" y="24553"><tspan fill="rgb(0,0,0)" stroke="none">03.04</tspan></tspan></tspan></text>
 <text class="TextShape" transform="rotate(-90 4948 24553)"><tspan class="TextParagraph" font-family="Liberation Sans, sans-serif" font-size="388px" font-weight="400"><tspan class="TextPosition" x="4948" y="24553"><tspan fill="rgb(0,0,0)" stroke="none">10.04</tspan></tspan></tspan></text>
 <text class="TextShape" transform="rotate(-90 5786 24553)"><tspan class="TextParagraph" font-family="Liberation Sans, sans-serif" font-size="388px" font-weight="400"><tspan class="TextPosition" x="5786" y="24553"><tspan fill="rgb(0,0,0)" stroke="none">17.04</tspan></tspan></tspan></text>
 <text class="TextShape" transform="rotate(-90 6623 24553)"><tspan class="TextParagraph" font-family="Liberation Sans, sans-serif" font-size="388px" font-weight="400"><tspan class="TextPosition" x="6623" y="24553"><tspan fill="rgb(0,0,0)" stroke="none">24.04</tspan></tspan></tspan></text>
 <text class="TextShape" transform="rotate(-90 7461 24553)"><tspan class="TextParagraph" font-family="Liberation Sans, sans-serif" font-size="388px" font-weight="400"><tspan class="TextPosition" x="7461" y="24553"><tspan fill="rgb(0,0,0)" stroke="none">01.05</tspan></tspan></tspan></text>
 <text class="TextShape" transform="rotate(-90 8298 24553)"><tspan class="TextParagraph" font-family="Liberation Sans, sans-serif" font-size="388px" font-weight="400"><tspan class="TextPosition" x="8298" y="24553"><tspan fill="rgb(0,0,0)" stroke="none">08.05</tspan></tspan></tspan></text>
 <text class="TextShape" transform="rotate(-90 9136 24553)"><tspan class="TextParagraph" font-family="Liberation Sans, sans-serif" font-size="388px" font-weight="400"><tspan class="TextPosition" x="9136" y="24553"><tspan fill="rgb(0,0,0)" stroke="none">15.05</tspan></tspan></tspan></text>
 <text class="TextShape" transform="rotate(-90 9974 24553)"><tspan class="TextParagraph" font-family="Liberation Sans, sans-serif" font-size="388px" font-weight="400"><tspan class="TextPosition" x="9974" y="24553"><tspan fill="rgb(0,0,0)" stroke="none">22.05</tspan></tspan></tspan></text>
 <text class="TextShape" transform="rotate(-90 10811 24553)"><tspan class="TextParagraph" font-family="Liberation Sans, sans-serif" font-size="388px" font-weight="400"><tspan class="TextPosition" x="10811" y="24553"><tspan fill="rgb(0,0,0)" stroke="none">29.05</tspan></tspan></tspan></text>
 <text class="TextShape" transform="rotate(-90 11649 24553)"><tspan class="TextParagraph" font-family="Liberation Sans, sans-serif" font-size="388px" font-weight="400"><tspan class="TextPosition" x="11649" y="24553"><tspan fill="rgb(0,0,0)" stroke="none">05.06</tspan></tspan></tspan></text>
 <text class="TextShape" transform="rotate(-90 12485 24553)"><tspan class="TextParagraph" font-family="Liberation Sans, sans-serif" font-size="388px" font-weight="400"><tspan class="TextPosition" x="12485" y="24553"><tspan fill="rgb(0,0,0)" stroke="none">12.06</tspan></tspan></tspan></text>
 <text class="TextShape" transform="rotate(-90 13323 24553)"><tspan class="TextParagraph" font-family="Liberation Sans, sans-serif" font-size="388px" font-weight="400"><tspan class="TextPosition" x="13323" y="24553"><tspan fill="rgb(0,0,0)" stroke="none">19.06</tspan></tspan></tspan></text>
 <text class="TextShape" transform="rotate(-90 14160 24553)"><tspan class="TextParagraph" font-family="Liberation Sans, sans-serif" font-size="388px" font-weight="400"><tspan class="TextPosition" x="14160" y="24553"><tspan fill="rgb(0,0,0)" stroke="none">26.06</tspan></tspan></tspan></text>
 <text class="TextShape" transform="rotate(-90 14998 24553)"><tspan class="TextParagraph" font-family="Liberation Sans, sans-serif" font-size="388px" font-weight="400"><tspan class="TextPosition" x="14998" y="24553"><tspan fill="rgb(0,0,0)" stroke="none">03.07</tspan></tspan></tspan></text>
 <text class="TextShape" transform="rotate(-90 15835 24553)"><tspan class="TextParagraph" font-family="Liberation Sans, sans-serif" font-size="388px" font-weight="400"><tspan class="TextPosition" x="15835" y="24553"><tspan fill="rgb(0,0,0)" stroke="none">10.07</tspan></tspan></tspan></text>
 <text class="TextShape" transform="rotate(-90 16673 24553)"><tspan class="TextParagraph" font-family="Liberation Sans, sans-serif" font-size="388px" font-weight="400"><tspan class="TextPosition" x="16673" y="24553"><tspan fill="rgb(0,0,0)" stroke="none">17.07</tspan></tspan></tspan></text>
 <text class="TextShape" transform="rotate(-90 17510 24553)"><tspan class="TextParagraph" font-family="Liberation Sans, sans-serif" font-size="388px" font-weight="400"><tspan class="TextPosition" x="17510" y="24553"><tspan fill="rgb(0,0,0)" stroke="none">24.07</tspan></tspan></tspan></text>
 <text class="TextShape" transform="rotate(-90 18348 24553)"><tspan class="TextParagraph" font-family="Liberation Sans, sans-serif" font-size="388px" font-weight="400"><tspan class="TextPosition" x="18348" y="24553"><tspan fill="rgb(0,0,0)" stroke="none">31.07</tspan></tspan></tspan></text>
 <text class="TextShape"><tspan class="TextParagraph" font-family="Liberation Sans, sans-serif" font-size="388px" font-weight="400"><tspan class="TextPosition" x="951" y="23477"><tspan fill="rgb(0,0,0)" stroke="none">0</tspan></tspan></tspan></text>
 <text class="TextShape"><tspan class="TextParagraph" font-family="Liberation Sans, sans-serif" font-size="388px" font-weight="400"><tspan class="TextPosition" x="316" y="19870"><tspan fill="rgb(0,0,0)" stroke="none">2000</tspan></tspan></tspan></text>
 <text class="TextShape"><tspan class="TextParagraph" font-family="Liberation Sans, sans-serif" font-size="388px" font-weight="400"><tspan class="TextPosition" x="316" y="16264"><tspan fill="rgb(0,0,0)" stroke="none">4000</tspan></tspan></tspan></text>
 <text class="TextShape"><tspan class="TextParagraph" font-family="Liberation Sans, sans-serif" font-size="388px" font-weight="400"><tspan class="TextPosition" x="316" y="12657"><tspan fill="rgb(0,0,0)" stroke="none">6000</tspan></tspan></tspan></text>
 <text class="TextShape"><tspan class="TextParagraph" font-family="Liberation Sans, sans-serif" font-size="388px" font-weight="400"><tspan class="TextPosition" x="316" y="9051"><tspan fill="rgb(0,0,0)" stroke="none">8000</tspan></tspan></tspan></text>
 <text class="TextShape"><tspan class="TextParagraph" font-family="Liberation Sans, sans-serif" font-size="388px" font-weight="400"><tspan class="TextPosition" x="105" y="5444"><tspan fill="rgb(0,0,0)" stroke="none">10000</tspan></tspan></tspan></text>
 <text class="TextShape"><tspan class="TextParagraph" font-family="Liberation Sans, sans-serif" font-size="388px" font-weight="400"><tspan class="TextPosition" x="105" y="1838"><tspan fill="rgb(0,0,0)" stroke="none">12000</tspan></tspan></tspan></text>
 <text class="TextShape"><tspan class="TextParagraph" font-family="Liberation Sans, sans-serif" font-size="494px" font-weight="700"><tspan class="TextPosition" x="887" y="990"><tspan fill="rgb(0,0,0)" stroke="none">Počet vyléčených na milión obyvatel</tspan></tspan></tspan></text>
 <path fill="none" stroke="rgb(255,64,0)" stroke-width="80" stroke-linejoin="round" stroke-dasharray="80,40" d="M 18829,2799 L 20429,2799"/>
 <path fill="none" stroke="rgb(141,40,30)" stroke-width="80" stroke-linejoin="round" stroke-dasharray="80,40" d="M 18829,4216 L 20429,4216"/>
 <path fill="none" stroke="rgb(0,255,0)" stroke-width="80" stroke-linejoin="round" d="M 18829,5633 L 20429,5633"/>
 <path fill="none" stroke="rgb(0,127,255)" stroke-width="80" stroke-linejoin="round" d="M 18829,7050 L 20429,7050"/>
 <path fill="none" stroke="rgb(128,0,128)" stroke-width="80" stroke-linejoin="round" d="M 18829,8467 L 20429,8467"/>
 <path fill="none" stroke="rgb(0,169,51)" stroke-width="80" stroke-linejoin="round" stroke-dasharray="80,40" d="M 18829,9884 L 20429,9884"/>
 <path fill="none" stroke="rgb(85,48,141)" stroke-width="80" stroke-linejoin="round" stroke-dasharray="80,40" d="M 18829,11301 L 20429,11301"/>
 <path fill="none" stroke="rgb(0,0,0)" stroke-width="80" stroke-linejoin="round" d="M 18829,12717 L 20429,12717"/>
 <path fill="none" stroke="rgb(180,120,4)" stroke-width="80" stroke-linejoin="round" d="M 18829,14134 L 20429,14134"/>
 <path fill="none" stroke="rgb(0,169,51)" stroke-width="80" stroke-linejoin="round" d="M 18829,15551 L 20429,15551"/>
 <path fill="none" stroke="rgb(21,132,102)" stroke-width="80" stroke-linejoin="round" stroke-dasharray="80,203,80,203,203,203" d="M 18829,16968 L 20429,16968"/>
 <path fill="none" stroke="rgb(255,211,32)" stroke-width="80" stroke-linejoin="round" d="M 18829,18385 L 20429,18385"/>
 <path fill="none" stroke="rgb(191,0,65)" stroke-width="80" stroke-linejoin="round" stroke-dasharray="51,127,51,127,254,127,254,127,254,127" d="M 18829,19802 L 20429,19802"/>
 <path fill="none" stroke="rgb(128,0,128)" stroke-width="80" stroke-linejoin="round" stroke-dasharray="158,158" d="M 18829,21219 L 20429,21219"/>
 <path fill="none" stroke="rgb(0,0,255)" stroke-width="80" stroke-linejoin="round" stroke-dasharray="158,158" d="M 18829,22636 L 20429,22636"/>
 <text class="TextShape"><tspan class="TextParagraph" font-family="Liberation Sans, sans-serif" font-size="423px" font-weight="400"><tspan class="TextPosition" x="20529" y="2947"><tspan fill="rgb(0,0,0)" stroke="none">Brazílie</tspan></tspan></tspan></text>
 <text class="TextShape"><tspan class="TextParagraph" font-family="Liberation Sans, sans-serif" font-size="423px" font-weight="400"><tspan class="TextPosition" x="20529" y="4364"><tspan fill="rgb(0,0,0)" stroke="none">USA</tspan></tspan></tspan></text>
 <text class="TextShape"><tspan class="TextParagraph" font-family="Liberation Sans, sans-serif" font-size="423px" font-weight="400"><tspan class="TextPosition" x="20529" y="5781"><tspan fill="rgb(0,0,0)" stroke="none">Švýcarsko</tspan></tspan></tspan></text>
 <text class="TextShape"><tspan class="TextParagraph" font-family="Liberation Sans, sans-serif" font-size="423px" font-weight="400"><tspan class="TextPosition" x="20529" y="7198"><tspan fill="rgb(0,0,0)" stroke="none">Itálie</tspan></tspan></tspan></text>
 <text class="TextShape"><tspan class="TextParagraph" font-family="Liberation Sans, sans-serif" font-size="423px" font-weight="400"><tspan class="TextPosition" x="20529" y="8615"><tspan fill="rgb(0,0,0)" stroke="none">Španělsko</tspan></tspan></tspan></text>
 <text class="TextShape"><tspan class="TextParagraph" font-family="Liberation Sans, sans-serif" font-size="423px" font-weight="400"><tspan class="TextPosition" x="20529" y="10032"><tspan fill="rgb(0,0,0)" stroke="none">Mexiko</tspan></tspan></tspan></text>
 <text class="TextShape"><tspan class="TextParagraph" font-family="Liberation Sans, sans-serif" font-size="423px" font-weight="400"><tspan class="TextPosition" x="20529" y="11449"><tspan fill="rgb(0,0,0)" stroke="none">Kanada</tspan></tspan></tspan></text>
 <text class="TextShape"><tspan class="TextParagraph" font-family="Liberation Sans, sans-serif" font-size="423px" font-weight="400"><tspan class="TextPosition" x="20529" y="12865"><tspan fill="rgb(0,0,0)" stroke="none">Německo</tspan></tspan></tspan></text>
 <text class="TextShape"><tspan class="TextParagraph" font-family="Liberation Sans, sans-serif" font-size="423px" font-weight="400"><tspan class="TextPosition" x="20529" y="14282"><tspan fill="rgb(0,0,0)" stroke="none">Dánsko</tspan></tspan></tspan></text>
 <text class="TextShape"><tspan class="TextParagraph" font-family="Liberation Sans, sans-serif" font-size="423px" font-weight="400"><tspan class="TextPosition" x="20529" y="15699"><tspan fill="rgb(0,0,0)" stroke="none">Rakousko</tspan></tspan></tspan></text>
 <text class="TextShape"><tspan class="TextParagraph" font-family="Liberation Sans, sans-serif" font-size="423px" font-weight="400"><tspan class="TextPosition" x="20529" y="17116"><tspan fill="rgb(0,0,0)" stroke="none">celosvětově</tspan></tspan></tspan></text>
 <text class="TextShape"><tspan class="TextParagraph" font-family="Liberation Sans, sans-serif" font-size="423px" font-weight="400"><tspan class="TextPosition" x="20529" y="18533"><tspan fill="rgb(0,0,0)" stroke="none">Česko</tspan></tspan></tspan></text>
 <text class="TextShape"><tspan class="TextParagraph" font-family="Liberation Sans, sans-serif" font-size="423px" font-weight="400"><tspan class="TextPosition" x="20529" y="19950"><tspan fill="rgb(0,0,0)" stroke="none">EU_nové země</tspan></tspan></tspan></text>
 <text class="TextShape"><tspan class="TextParagraph" font-family="Liberation Sans, sans-serif" font-size="423px" font-weight="400"><tspan class="TextPosition" x="20529" y="21367"><tspan fill="rgb(0,0,0)" stroke="none">Indie</tspan></tspan></tspan></text>
 <text class="TextShape"><tspan class="TextParagraph" font-family="Liberation Sans, sans-serif" font-size="423px" font-weight="400"><tspan class="TextPosition" x="20529" y="22784"><tspan fill="rgb(0,0,0)" stroke="none">Jižní Korea</tspan></tspan></tspan></text>
</svg>