<?xml version="1.0" encoding="UTF-8"?>
<!DOCTYPE svg PUBLIC "-//W3C//DTD SVG 1.1//EN" "http://www.w3.org/Graphics/SVG/1.1/DTD/svg11.dtd">
<svg width="236mm" height="250mm" viewBox="0 0 23600 25000" version="1.1" xmlns="http://www.w3.org/2000/svg" xmlns:xlink="http://www.w3.org/1999/xlink" stroke-width="28.222" stroke-linejoin="round" xml:space="preserve">
 <path fill="rgb(255,255,255)" stroke="none" d="M 11800,25000 L 0,25000 0,0 23600,0 23600,25000 11800,25000 Z"/>
 <path fill="none" stroke="rgb(179,179,179)" stroke-linejoin="round" d="M 10027,23350 L 1413,23350 1413,1712 18641,1712 18641,23350 10027,23350 Z"/>
 <path fill="none" stroke="rgb(179,179,179)" stroke-linejoin="round" d="M 18641,23349 L 1413,23349"/>
 <path fill="none" stroke="rgb(179,179,179)" stroke-linejoin="round" d="M 18641,21185 L 1413,21185"/>
 <path fill="none" stroke="rgb(179,179,179)" stroke-linejoin="round" d="M 18641,19021 L 1413,19021"/>
 <path fill="none" stroke="rgb(179,179,179)" stroke-linejoin="round" d="M 18641,16857 L 1413,16857"/>
 <path fill="none" stroke="rgb(179,179,179)" stroke-linejoin="round" d="M 18641,14693 L 1413,14693"/>
 <path fill="none" stroke="rgb(179,179,179)" stroke-linejoin="round" d="M 18641,12529 L 1413,12529"/>
 <path fill="none" stroke="rgb(179,179,179)" stroke-linejoin="round" d="M 18641,10366 L 1413,10366"/>
 <path fill="none" stroke="rgb(179,179,179)" stroke-linejoin="round" d="M 18641,8202 L 1413,8202"/>
 <path fill="none" stroke="rgb(179,179,179)" stroke-linejoin="round" d="M 18641,6038 L 1413,6038"/>
 <path fill="none" stroke="rgb(179,179,179)" stroke-linejoin="round" d="M 18641,3874 L 1413,3874"/>
 <path fill="none" stroke="rgb(179,179,179)" stroke-linejoin="round" d="M 18641,1711 L 1413,1711"/>
 <path fill="none" stroke="rgb(179,179,179)" stroke-linejoin="round" d="M 1413,23499 L 1413,23349"/>
 <path fill="none" stroke="rgb(179,179,179)" stroke-linejoin="round" d="M 1413,23499 L 1413,23349"/>
 <path fill="none" stroke="rgb(179,179,179)" stroke-linejoin="round" d="M 1521,23499 L 1521,23349"/>
 <path fill="none" stroke="rgb(179,179,179)" stroke-linejoin="round" d="M 1521,23499 L 1521,23349"/>
 <path fill="none" stroke="rgb(179,179,179)" stroke-linejoin="round" d="M 1629,23499 L 1629,23349"/>
 <path fill="none" stroke="rgb(179,179,179)" stroke-linejoin="round" d="M 1629,23499 L 1629,23349"/>
 <path fill="none" stroke="rgb(179,179,179)" stroke-linejoin="round" d="M 1738,23499 L 1738,23349"/>
 <path fill="none" stroke="rgb(179,179,179)" stroke-linejoin="round" d="M 1738,23499 L 1738,23349"/>
 <path fill="none" stroke="rgb(179,179,179)" stroke-linejoin="round" d="M 1846,23499 L 1846,23349"/>
 <path fill="none" stroke="rgb(179,179,179)" stroke-linejoin="round" d="M 1846,23499 L 1846,23349"/>
 <path fill="none" stroke="rgb(179,179,179)" stroke-linejoin="round" d="M 1954,23499 L 1954,23349"/>
 <path fill="none" stroke="rgb(179,179,179)" stroke-linejoin="round" d="M 1954,23499 L 1954,23349"/>
 <path fill="none" stroke="rgb(179,179,179)" stroke-linejoin="round" d="M 2063,23499 L 2063,23349"/>
 <path fill="none" stroke="rgb(179,179,179)" stroke-linejoin="round" d="M 2063,23499 L 2063,23349"/>
 <path fill="none" stroke="rgb(179,179,179)" stroke-linejoin="round" d="M 2171,23499 L 2171,23349"/>
 <path fill="none" stroke="rgb(179,179,179)" stroke-linejoin="round" d="M 2171,23499 L 2171,23349"/>
 <path fill="none" stroke="rgb(179,179,179)" stroke-linejoin="round" d="M 2279,23499 L 2279,23349"/>
 <path fill="none" stroke="rgb(179,179,179)" stroke-linejoin="round" d="M 2279,23499 L 2279,23349"/>
 <path fill="none" stroke="rgb(179,179,179)" stroke-linejoin="round" d="M 2388,23499 L 2388,23349"/>
 <path fill="none" stroke="rgb(179,179,179)" stroke-linejoin="round" d="M 2388,23499 L 2388,23349"/>
 <path fill="none" stroke="rgb(179,179,179)" stroke-linejoin="round" d="M 2496,23499 L 2496,23349"/>
 <path fill="none" stroke="rgb(179,179,179)" stroke-linejoin="round" d="M 2496,23499 L 2496,23349"/>
 <path fill="none" stroke="rgb(179,179,179)" stroke-linejoin="round" d="M 2604,23499 L 2604,23349"/>
 <path fill="none" stroke="rgb(179,179,179)" stroke-linejoin="round" d="M 2604,23499 L 2604,23349"/>
 <path fill="none" stroke="rgb(179,179,179)" stroke-linejoin="round" d="M 2713,23499 L 2713,23349"/>
 <path fill="none" stroke="rgb(179,179,179)" stroke-linejoin="round" d="M 2713,23499 L 2713,23349"/>
 <path fill="none" stroke="rgb(179,179,179)" stroke-linejoin="round" d="M 2821,23499 L 2821,23349"/>
 <path fill="none" stroke="rgb(179,179,179)" stroke-linejoin="round" d="M 2821,23499 L 2821,23349"/>
 <path fill="none" stroke="rgb(179,179,179)" stroke-linejoin="round" d="M 2930,23499 L 2930,23349"/>
 <path fill="none" stroke="rgb(179,179,179)" stroke-linejoin="round" d="M 2930,23499 L 2930,23349"/>
 <path fill="none" stroke="rgb(179,179,179)" stroke-linejoin="round" d="M 3038,23499 L 3038,23349"/>
 <path fill="none" stroke="rgb(179,179,179)" stroke-linejoin="round" d="M 3038,23499 L 3038,23349"/>
 <path fill="none" stroke="rgb(179,179,179)" stroke-linejoin="round" d="M 3146,23499 L 3146,23349"/>
 <path fill="none" stroke="rgb(179,179,179)" stroke-linejoin="round" d="M 3146,23499 L 3146,23349"/>
 <path fill="none" stroke="rgb(179,179,179)" stroke-linejoin="round" d="M 3255,23499 L 3255,23349"/>
 <path fill="none" stroke="rgb(179,179,179)" stroke-linejoin="round" d="M 3255,23499 L 3255,23349"/>
 <path fill="none" stroke="rgb(179,179,179)" stroke-linejoin="round" d="M 3363,23499 L 3363,23349"/>
 <path fill="none" stroke="rgb(179,179,179)" stroke-linejoin="round" d="M 3363,23499 L 3363,23349"/>
 <path fill="none" stroke="rgb(179,179,179)" stroke-linejoin="round" d="M 3471,23499 L 3471,23349"/>
 <path fill="none" stroke="rgb(179,179,179)" stroke-linejoin="round" d="M 3471,23499 L 3471,23349"/>
 <path fill="none" stroke="rgb(179,179,179)" stroke-linejoin="round" d="M 3580,23499 L 3580,23349"/>
 <path fill="none" stroke="rgb(179,179,179)" stroke-linejoin="round" d="M 3580,23499 L 3580,23349"/>
 <path fill="none" stroke="rgb(179,179,179)" stroke-linejoin="round" d="M 3688,23499 L 3688,23349"/>
 <path fill="none" stroke="rgb(179,179,179)" stroke-linejoin="round" d="M 3688,23499 L 3688,23349"/>
 <path fill="none" stroke="rgb(179,179,179)" stroke-linejoin="round" d="M 3796,23499 L 3796,23349"/>
 <path fill="none" stroke="rgb(179,179,179)" stroke-linejoin="round" d="M 3796,23499 L 3796,23349"/>
 <path fill="none" stroke="rgb(179,179,179)" stroke-linejoin="round" d="M 3905,23499 L 3905,23349"/>
 <path fill="none" stroke="rgb(179,179,179)" stroke-linejoin="round" d="M 3905,23499 L 3905,23349"/>
 <path fill="none" stroke="rgb(179,179,179)" stroke-linejoin="round" d="M 4013,23499 L 4013,23349"/>
 <path fill="none" stroke="rgb(179,179,179)" stroke-linejoin="round" d="M 4013,23499 L 4013,23349"/>
 <path fill="none" stroke="rgb(179,179,179)" stroke-linejoin="round" d="M 4121,23499 L 4121,23349"/>
 <path fill="none" stroke="rgb(179,179,179)" stroke-linejoin="round" d="M 4121,23499 L 4121,23349"/>
 <path fill="none" stroke="rgb(179,179,179)" stroke-linejoin="round" d="M 4230,23499 L 4230,23349"/>
 <path fill="none" stroke="rgb(179,179,179)" stroke-linejoin="round" d="M 4230,23499 L 4230,23349"/>
 <path fill="none" stroke="rgb(179,179,179)" stroke-linejoin="round" d="M 4338,23499 L 4338,23349"/>
 <path fill="none" stroke="rgb(179,179,179)" stroke-linejoin="round" d="M 4338,23499 L 4338,23349"/>
 <path fill="none" stroke="rgb(179,179,179)" stroke-linejoin="round" d="M 4447,23499 L 4447,23349"/>
 <path fill="none" stroke="rgb(179,179,179)" stroke-linejoin="round" d="M 4447,23499 L 4447,23349"/>
 <path fill="none" stroke="rgb(179,179,179)" stroke-linejoin="round" d="M 4555,23499 L 4555,23349"/>
 <path fill="none" stroke="rgb(179,179,179)" stroke-linejoin="round" d="M 4555,23499 L 4555,23349"/>
 <path fill="none" stroke="rgb(179,179,179)" stroke-linejoin="round" d="M 4663,23499 L 4663,23349"/>
 <path fill="none" stroke="rgb(179,179,179)" stroke-linejoin="round" d="M 4663,23499 L 4663,23349"/>
 <path fill="none" stroke="rgb(179,179,179)" stroke-linejoin="round" d="M 4772,23499 L 4772,23349"/>
 <path fill="none" stroke="rgb(179,179,179)" stroke-linejoin="round" d="M 4772,23499 L 4772,23349"/>
 <path fill="none" stroke="rgb(179,179,179)" stroke-linejoin="round" d="M 4880,23499 L 4880,23349"/>
 <path fill="none" stroke="rgb(179,179,179)" stroke-linejoin="round" d="M 4880,23499 L 4880,23349"/>
 <path fill="none" stroke="rgb(179,179,179)" stroke-linejoin="round" d="M 4988,23499 L 4988,23349"/>
 <path fill="none" stroke="rgb(179,179,179)" stroke-linejoin="round" d="M 4988,23499 L 4988,23349"/>
 <path fill="none" stroke="rgb(179,179,179)" stroke-linejoin="round" d="M 5097,23499 L 5097,23349"/>
 <path fill="none" stroke="rgb(179,179,179)" stroke-linejoin="round" d="M 5097,23499 L 5097,23349"/>
 <path fill="none" stroke="rgb(179,179,179)" stroke-linejoin="round" d="M 5205,23499 L 5205,23349"/>
 <path fill="none" stroke="rgb(179,179,179)" stroke-linejoin="round" d="M 5205,23499 L 5205,23349"/>
 <path fill="none" stroke="rgb(179,179,179)" stroke-linejoin="round" d="M 5313,23499 L 5313,23349"/>
 <path fill="none" stroke="rgb(179,179,179)" stroke-linejoin="round" d="M 5313,23499 L 5313,23349"/>
 <path fill="none" stroke="rgb(179,179,179)" stroke-linejoin="round" d="M 5422,23499 L 5422,23349"/>
 <path fill="none" stroke="rgb(179,179,179)" stroke-linejoin="round" d="M 5422,23499 L 5422,23349"/>
 <path fill="none" stroke="rgb(179,179,179)" stroke-linejoin="round" d="M 5530,23499 L 5530,23349"/>
 <path fill="none" stroke="rgb(179,179,179)" stroke-linejoin="round" d="M 5530,23499 L 5530,23349"/>
 <path fill="none" stroke="rgb(179,179,179)" stroke-linejoin="round" d="M 5638,23499 L 5638,23349"/>
 <path fill="none" stroke="rgb(179,179,179)" stroke-linejoin="round" d="M 5638,23499 L 5638,23349"/>
 <path fill="none" stroke="rgb(179,179,179)" stroke-linejoin="round" d="M 5747,23499 L 5747,23349"/>
 <path fill="none" stroke="rgb(179,179,179)" stroke-linejoin="round" d="M 5747,23499 L 5747,23349"/>
 <path fill="none" stroke="rgb(179,179,179)" stroke-linejoin="round" d="M 5855,23499 L 5855,23349"/>
 <path fill="none" stroke="rgb(179,179,179)" stroke-linejoin="round" d="M 5855,23499 L 5855,23349"/>
 <path fill="none" stroke="rgb(179,179,179)" stroke-linejoin="round" d="M 5964,23499 L 5964,23349"/>
 <path fill="none" stroke="rgb(179,179,179)" stroke-linejoin="round" d="M 5964,23499 L 5964,23349"/>
 <path fill="none" stroke="rgb(179,179,179)" stroke-linejoin="round" d="M 6072,23499 L 6072,23349"/>
 <path fill="none" stroke="rgb(179,179,179)" stroke-linejoin="round" d="M 6072,23499 L 6072,23349"/>
 <path fill="none" stroke="rgb(179,179,179)" stroke-linejoin="round" d="M 6180,23499 L 6180,23349"/>
 <path fill="none" stroke="rgb(179,179,179)" stroke-linejoin="round" d="M 6180,23499 L 6180,23349"/>
 <path fill="none" stroke="rgb(179,179,179)" stroke-linejoin="round" d="M 6289,23499 L 6289,23349"/>
 <path fill="none" stroke="rgb(179,179,179)" stroke-linejoin="round" d="M 6289,23499 L 6289,23349"/>
 <path fill="none" stroke="rgb(179,179,179)" stroke-linejoin="round" d="M 6397,23499 L 6397,23349"/>
 <path fill="none" stroke="rgb(179,179,179)" stroke-linejoin="round" d="M 6397,23499 L 6397,23349"/>
 <path fill="none" stroke="rgb(179,179,179)" stroke-linejoin="round" d="M 6505,23499 L 6505,23349"/>
 <path fill="none" stroke="rgb(179,179,179)" stroke-linejoin="round" d="M 6505,23499 L 6505,23349"/>
 <path fill="none" stroke="rgb(179,179,179)" stroke-linejoin="round" d="M 6614,23499 L 6614,23349"/>
 <path fill="none" stroke="rgb(179,179,179)" stroke-linejoin="round" d="M 6614,23499 L 6614,23349"/>
 <path fill="none" stroke="rgb(179,179,179)" stroke-linejoin="round" d="M 6722,23499 L 6722,23349"/>
 <path fill="none" stroke="rgb(179,179,179)" stroke-linejoin="round" d="M 6722,23499 L 6722,23349"/>
 <path fill="none" stroke="rgb(179,179,179)" stroke-linejoin="round" d="M 6830,23499 L 6830,23349"/>
 <path fill="none" stroke="rgb(179,179,179)" stroke-linejoin="round" d="M 6830,23499 L 6830,23349"/>
 <path fill="none" stroke="rgb(179,179,179)" stroke-linejoin="round" d="M 6939,23499 L 6939,23349"/>
 <path fill="none" stroke="rgb(179,179,179)" stroke-linejoin="round" d="M 6939,23499 L 6939,23349"/>
 <path fill="none" stroke="rgb(179,179,179)" stroke-linejoin="round" d="M 7047,23499 L 7047,23349"/>
 <path fill="none" stroke="rgb(179,179,179)" stroke-linejoin="round" d="M 7047,23499 L 7047,23349"/>
 <path fill="none" stroke="rgb(179,179,179)" stroke-linejoin="round" d="M 7156,23499 L 7156,23349"/>
 <path fill="none" stroke="rgb(179,179,179)" stroke-linejoin="round" d="M 7156,23499 L 7156,23349"/>
 <path fill="none" stroke="rgb(179,179,179)" stroke-linejoin="round" d="M 7264,23499 L 7264,23349"/>
 <path fill="none" stroke="rgb(179,179,179)" stroke-linejoin="round" d="M 7264,23499 L 7264,23349"/>
 <path fill="none" stroke="rgb(179,179,179)" stroke-linejoin="round" d="M 7372,23499 L 7372,23349"/>
 <path fill="none" stroke="rgb(179,179,179)" stroke-linejoin="round" d="M 7372,23499 L 7372,23349"/>
 <path fill="none" stroke="rgb(179,179,179)" stroke-linejoin="round" d="M 7481,23499 L 7481,23349"/>
 <path fill="none" stroke="rgb(179,179,179)" stroke-linejoin="round" d="M 7481,23499 L 7481,23349"/>
 <path fill="none" stroke="rgb(179,179,179)" stroke-linejoin="round" d="M 7589,23499 L 7589,23349"/>
 <path fill="none" stroke="rgb(179,179,179)" stroke-linejoin="round" d="M 7589,23499 L 7589,23349"/>
 <path fill="none" stroke="rgb(179,179,179)" stroke-linejoin="round" d="M 7697,23499 L 7697,23349"/>
 <path fill="none" stroke="rgb(179,179,179)" stroke-linejoin="round" d="M 7697,23499 L 7697,23349"/>
 <path fill="none" stroke="rgb(179,179,179)" stroke-linejoin="round" d="M 7806,23499 L 7806,23349"/>
 <path fill="none" stroke="rgb(179,179,179)" stroke-linejoin="round" d="M 7806,23499 L 7806,23349"/>
 <path fill="none" stroke="rgb(179,179,179)" stroke-linejoin="round" d="M 7914,23499 L 7914,23349"/>
 <path fill="none" stroke="rgb(179,179,179)" stroke-linejoin="round" d="M 7914,23499 L 7914,23349"/>
 <path fill="none" stroke="rgb(179,179,179)" stroke-linejoin="round" d="M 8022,23499 L 8022,23349"/>
 <path fill="none" stroke="rgb(179,179,179)" stroke-linejoin="round" d="M 8022,23499 L 8022,23349"/>
 <path fill="none" stroke="rgb(179,179,179)" stroke-linejoin="round" d="M 8131,23499 L 8131,23349"/>
 <path fill="none" stroke="rgb(179,179,179)" stroke-linejoin="round" d="M 8131,23499 L 8131,23349"/>
 <path fill="none" stroke="rgb(179,179,179)" stroke-linejoin="round" d="M 8239,23499 L 8239,23349"/>
 <path fill="none" stroke="rgb(179,179,179)" stroke-linejoin="round" d="M 8239,23499 L 8239,23349"/>
 <path fill="none" stroke="rgb(179,179,179)" stroke-linejoin="round" d="M 8347,23499 L 8347,23349"/>
 <path fill="none" stroke="rgb(179,179,179)" stroke-linejoin="round" d="M 8347,23499 L 8347,23349"/>
 <path fill="none" stroke="rgb(179,179,179)" stroke-linejoin="round" d="M 8456,23499 L 8456,23349"/>
 <path fill="none" stroke="rgb(179,179,179)" stroke-linejoin="round" d="M 8456,23499 L 8456,23349"/>
 <path fill="none" stroke="rgb(179,179,179)" stroke-linejoin="round" d="M 8564,23499 L 8564,23349"/>
 <path fill="none" stroke="rgb(179,179,179)" stroke-linejoin="round" d="M 8564,23499 L 8564,23349"/>
 <path fill="none" stroke="rgb(179,179,179)" stroke-linejoin="round" d="M 8673,23499 L 8673,23349"/>
 <path fill="none" stroke="rgb(179,179,179)" stroke-linejoin="round" d="M 8673,23499 L 8673,23349"/>
 <path fill="none" stroke="rgb(179,179,179)" stroke-linejoin="round" d="M 8781,23499 L 8781,23349"/>
 <path fill="none" stroke="rgb(179,179,179)" stroke-linejoin="round" d="M 8781,23499 L 8781,23349"/>
 <path fill="none" stroke="rgb(179,179,179)" stroke-linejoin="round" d="M 8889,23499 L 8889,23349"/>
 <path fill="none" stroke="rgb(179,179,179)" stroke-linejoin="round" d="M 8889,23499 L 8889,23349"/>
 <path fill="none" stroke="rgb(179,179,179)" stroke-linejoin="round" d="M 8998,23499 L 8998,23349"/>
 <path fill="none" stroke="rgb(179,179,179)" stroke-linejoin="round" d="M 8998,23499 L 8998,23349"/>
 <path fill="none" stroke="rgb(179,179,179)" stroke-linejoin="round" d="M 9106,23499 L 9106,23349"/>
 <path fill="none" stroke="rgb(179,179,179)" stroke-linejoin="round" d="M 9106,23499 L 9106,23349"/>
 <path fill="none" stroke="rgb(179,179,179)" stroke-linejoin="round" d="M 9214,23499 L 9214,23349"/>
 <path fill="none" stroke="rgb(179,179,179)" stroke-linejoin="round" d="M 9214,23499 L 9214,23349"/>
 <path fill="none" stroke="rgb(179,179,179)" stroke-linejoin="round" d="M 9323,23499 L 9323,23349"/>
 <path fill="none" stroke="rgb(179,179,179)" stroke-linejoin="round" d="M 9323,23499 L 9323,23349"/>
 <path fill="none" stroke="rgb(179,179,179)" stroke-linejoin="round" d="M 9431,23499 L 9431,23349"/>
 <path fill="none" stroke="rgb(179,179,179)" stroke-linejoin="round" d="M 9431,23499 L 9431,23349"/>
 <path fill="none" stroke="rgb(179,179,179)" stroke-linejoin="round" d="M 9539,23499 L 9539,23349"/>
 <path fill="none" stroke="rgb(179,179,179)" stroke-linejoin="round" d="M 9539,23499 L 9539,23349"/>
 <path fill="none" stroke="rgb(179,179,179)" stroke-linejoin="round" d="M 9648,23499 L 9648,23349"/>
 <path fill="none" stroke="rgb(179,179,179)" stroke-linejoin="round" d="M 9648,23499 L 9648,23349"/>
 <path fill="none" stroke="rgb(179,179,179)" stroke-linejoin="round" d="M 9756,23499 L 9756,23349"/>
 <path fill="none" stroke="rgb(179,179,179)" stroke-linejoin="round" d="M 9756,23499 L 9756,23349"/>
 <path fill="none" stroke="rgb(179,179,179)" stroke-linejoin="round" d="M 9864,23499 L 9864,23349"/>
 <path fill="none" stroke="rgb(179,179,179)" stroke-linejoin="round" d="M 9864,23499 L 9864,23349"/>
 <path fill="none" stroke="rgb(179,179,179)" stroke-linejoin="round" d="M 9973,23499 L 9973,23349"/>
 <path fill="none" stroke="rgb(179,179,179)" stroke-linejoin="round" d="M 9973,23499 L 9973,23349"/>
 <path fill="none" stroke="rgb(179,179,179)" stroke-linejoin="round" d="M 10081,23499 L 10081,23349"/>
 <path fill="none" stroke="rgb(179,179,179)" stroke-linejoin="round" d="M 10081,23499 L 10081,23349"/>
 <path fill="none" stroke="rgb(179,179,179)" stroke-linejoin="round" d="M 10190,23499 L 10190,23349"/>
 <path fill="none" stroke="rgb(179,179,179)" stroke-linejoin="round" d="M 10190,23499 L 10190,23349"/>
 <path fill="none" stroke="rgb(179,179,179)" stroke-linejoin="round" d="M 10298,23499 L 10298,23349"/>
 <path fill="none" stroke="rgb(179,179,179)" stroke-linejoin="round" d="M 10298,23499 L 10298,23349"/>
 <path fill="none" stroke="rgb(179,179,179)" stroke-linejoin="round" d="M 10406,23499 L 10406,23349"/>
 <path fill="none" stroke="rgb(179,179,179)" stroke-linejoin="round" d="M 10406,23499 L 10406,23349"/>
 <path fill="none" stroke="rgb(179,179,179)" stroke-linejoin="round" d="M 10515,23499 L 10515,23349"/>
 <path fill="none" stroke="rgb(179,179,179)" stroke-linejoin="round" d="M 10515,23499 L 10515,23349"/>
 <path fill="none" stroke="rgb(179,179,179)" stroke-linejoin="round" d="M 10623,23499 L 10623,23349"/>
 <path fill="none" stroke="rgb(179,179,179)" stroke-linejoin="round" d="M 10623,23499 L 10623,23349"/>
 <path fill="none" stroke="rgb(179,179,179)" stroke-linejoin="round" d="M 10731,23499 L 10731,23349"/>
 <path fill="none" stroke="rgb(179,179,179)" stroke-linejoin="round" d="M 10731,23499 L 10731,23349"/>
 <path fill="none" stroke="rgb(179,179,179)" stroke-linejoin="round" d="M 10840,23499 L 10840,23349"/>
 <path fill="none" stroke="rgb(179,179,179)" stroke-linejoin="round" d="M 10840,23499 L 10840,23349"/>
 <path fill="none" stroke="rgb(179,179,179)" stroke-linejoin="round" d="M 10948,23499 L 10948,23349"/>
 <path fill="none" stroke="rgb(179,179,179)" stroke-linejoin="round" d="M 10948,23499 L 10948,23349"/>
 <path fill="none" stroke="rgb(179,179,179)" stroke-linejoin="round" d="M 11056,23499 L 11056,23349"/>
 <path fill="none" stroke="rgb(179,179,179)" stroke-linejoin="round" d="M 11056,23499 L 11056,23349"/>
 <path fill="none" stroke="rgb(179,179,179)" stroke-linejoin="round" d="M 11165,23499 L 11165,23349"/>
 <path fill="none" stroke="rgb(179,179,179)" stroke-linejoin="round" d="M 11165,23499 L 11165,23349"/>
 <path fill="none" stroke="rgb(179,179,179)" stroke-linejoin="round" d="M 11273,23499 L 11273,23349"/>
 <path fill="none" stroke="rgb(179,179,179)" stroke-linejoin="round" d="M 11273,23499 L 11273,23349"/>
 <path fill="none" stroke="rgb(179,179,179)" stroke-linejoin="round" d="M 11381,23499 L 11381,23349"/>
 <path fill="none" stroke="rgb(179,179,179)" stroke-linejoin="round" d="M 11381,23499 L 11381,23349"/>
 <path fill="none" stroke="rgb(179,179,179)" stroke-linejoin="round" d="M 11490,23499 L 11490,23349"/>
 <path fill="none" stroke="rgb(179,179,179)" stroke-linejoin="round" d="M 11490,23499 L 11490,23349"/>
 <path fill="none" stroke="rgb(179,179,179)" stroke-linejoin="round" d="M 11598,23499 L 11598,23349"/>
 <path fill="none" stroke="rgb(179,179,179)" stroke-linejoin="round" d="M 11598,23499 L 11598,23349"/>
 <path fill="none" stroke="rgb(179,179,179)" stroke-linejoin="round" d="M 11707,23499 L 11707,23349"/>
 <path fill="none" stroke="rgb(179,179,179)" stroke-linejoin="round" d="M 11707,23499 L 11707,23349"/>
 <path fill="none" stroke="rgb(179,179,179)" stroke-linejoin="round" d="M 11814,23499 L 11814,23349"/>
 <path fill="none" stroke="rgb(179,179,179)" stroke-linejoin="round" d="M 11814,23499 L 11814,23349"/>
 <path fill="none" stroke="rgb(179,179,179)" stroke-linejoin="round" d="M 11922,23499 L 11922,23349"/>
 <path fill="none" stroke="rgb(179,179,179)" stroke-linejoin="round" d="M 11922,23499 L 11922,23349"/>
 <path fill="none" stroke="rgb(179,179,179)" stroke-linejoin="round" d="M 12031,23499 L 12031,23349"/>
 <path fill="none" stroke="rgb(179,179,179)" stroke-linejoin="round" d="M 12031,23499 L 12031,23349"/>
 <path fill="none" stroke="rgb(179,179,179)" stroke-linejoin="round" d="M 12139,23499 L 12139,23349"/>
 <path fill="none" stroke="rgb(179,179,179)" stroke-linejoin="round" d="M 12139,23499 L 12139,23349"/>
 <path fill="none" stroke="rgb(179,179,179)" stroke-linejoin="round" d="M 12247,23499 L 12247,23349"/>
 <path fill="none" stroke="rgb(179,179,179)" stroke-linejoin="round" d="M 12247,23499 L 12247,23349"/>
 <path fill="none" stroke="rgb(179,179,179)" stroke-linejoin="round" d="M 12356,23499 L 12356,23349"/>
 <path fill="none" stroke="rgb(179,179,179)" stroke-linejoin="round" d="M 12356,23499 L 12356,23349"/>
 <path fill="none" stroke="rgb(179,179,179)" stroke-linejoin="round" d="M 12464,23499 L 12464,23349"/>
 <path fill="none" stroke="rgb(179,179,179)" stroke-linejoin="round" d="M 12464,23499 L 12464,23349"/>
 <path fill="none" stroke="rgb(179,179,179)" stroke-linejoin="round" d="M 12572,23499 L 12572,23349"/>
 <path fill="none" stroke="rgb(179,179,179)" stroke-linejoin="round" d="M 12572,23499 L 12572,23349"/>
 <path fill="none" stroke="rgb(179,179,179)" stroke-linejoin="round" d="M 12681,23499 L 12681,23349"/>
 <path fill="none" stroke="rgb(179,179,179)" stroke-linejoin="round" d="M 12681,23499 L 12681,23349"/>
 <path fill="none" stroke="rgb(179,179,179)" stroke-linejoin="round" d="M 12789,23499 L 12789,23349"/>
 <path fill="none" stroke="rgb(179,179,179)" stroke-linejoin="round" d="M 12789,23499 L 12789,23349"/>
 <path fill="none" stroke="rgb(179,179,179)" stroke-linejoin="round" d="M 12898,23499 L 12898,23349"/>
 <path fill="none" stroke="rgb(179,179,179)" stroke-linejoin="round" d="M 12898,23499 L 12898,23349"/>
 <path fill="none" stroke="rgb(179,179,179)" stroke-linejoin="round" d="M 13006,23499 L 13006,23349"/>
 <path fill="none" stroke="rgb(179,179,179)" stroke-linejoin="round" d="M 13006,23499 L 13006,23349"/>
 <path fill="none" stroke="rgb(179,179,179)" stroke-linejoin="round" d="M 13114,23499 L 13114,23349"/>
 <path fill="none" stroke="rgb(179,179,179)" stroke-linejoin="round" d="M 13114,23499 L 13114,23349"/>
 <path fill="none" stroke="rgb(179,179,179)" stroke-linejoin="round" d="M 13223,23499 L 13223,23349"/>
 <path fill="none" stroke="rgb(179,179,179)" stroke-linejoin="round" d="M 13223,23499 L 13223,23349"/>
 <path fill="none" stroke="rgb(179,179,179)" stroke-linejoin="round" d="M 13331,23499 L 13331,23349"/>
 <path fill="none" stroke="rgb(179,179,179)" stroke-linejoin="round" d="M 13331,23499 L 13331,23349"/>
 <path fill="none" stroke="rgb(179,179,179)" stroke-linejoin="round" d="M 13439,23499 L 13439,23349"/>
 <path fill="none" stroke="rgb(179,179,179)" stroke-linejoin="round" d="M 13439,23499 L 13439,23349"/>
 <path fill="none" stroke="rgb(179,179,179)" stroke-linejoin="round" d="M 13548,23499 L 13548,23349"/>
 <path fill="none" stroke="rgb(179,179,179)" stroke-linejoin="round" d="M 13548,23499 L 13548,23349"/>
 <path fill="none" stroke="rgb(179,179,179)" stroke-linejoin="round" d="M 13656,23499 L 13656,23349"/>
 <path fill="none" stroke="rgb(179,179,179)" stroke-linejoin="round" d="M 13656,23499 L 13656,23349"/>
 <path fill="none" stroke="rgb(179,179,179)" stroke-linejoin="round" d="M 13764,23499 L 13764,23349"/>
 <path fill="none" stroke="rgb(179,179,179)" stroke-linejoin="round" d="M 13764,23499 L 13764,23349"/>
 <path fill="none" stroke="rgb(179,179,179)" stroke-linejoin="round" d="M 13873,23499 L 13873,23349"/>
 <path fill="none" stroke="rgb(179,179,179)" stroke-linejoin="round" d="M 13873,23499 L 13873,23349"/>
 <path fill="none" stroke="rgb(179,179,179)" stroke-linejoin="round" d="M 13981,23499 L 13981,23349"/>
 <path fill="none" stroke="rgb(179,179,179)" stroke-linejoin="round" d="M 13981,23499 L 13981,23349"/>
 <path fill="none" stroke="rgb(179,179,179)" stroke-linejoin="round" d="M 14089,23499 L 14089,23349"/>
 <path fill="none" stroke="rgb(179,179,179)" stroke-linejoin="round" d="M 14089,23499 L 14089,23349"/>
 <path fill="none" stroke="rgb(179,179,179)" stroke-linejoin="round" d="M 14198,23499 L 14198,23349"/>
 <path fill="none" stroke="rgb(179,179,179)" stroke-linejoin="round" d="M 14198,23499 L 14198,23349"/>
 <path fill="none" stroke="rgb(179,179,179)" stroke-linejoin="round" d="M 14306,23499 L 14306,23349"/>
 <path fill="none" stroke="rgb(179,179,179)" stroke-linejoin="round" d="M 14306,23499 L 14306,23349"/>
 <path fill="none" stroke="rgb(179,179,179)" stroke-linejoin="round" d="M 14415,23499 L 14415,23349"/>
 <path fill="none" stroke="rgb(179,179,179)" stroke-linejoin="round" d="M 14415,23499 L 14415,23349"/>
 <path fill="none" stroke="rgb(179,179,179)" stroke-linejoin="round" d="M 14523,23499 L 14523,23349"/>
 <path fill="none" stroke="rgb(179,179,179)" stroke-linejoin="round" d="M 14523,23499 L 14523,23349"/>
 <path fill="none" stroke="rgb(179,179,179)" stroke-linejoin="round" d="M 14631,23499 L 14631,23349"/>
 <path fill="none" stroke="rgb(179,179,179)" stroke-linejoin="round" d="M 14631,23499 L 14631,23349"/>
 <path fill="none" stroke="rgb(179,179,179)" stroke-linejoin="round" d="M 14740,23499 L 14740,23349"/>
 <path fill="none" stroke="rgb(179,179,179)" stroke-linejoin="round" d="M 14740,23499 L 14740,23349"/>
 <path fill="none" stroke="rgb(179,179,179)" stroke-linejoin="round" d="M 14848,23499 L 14848,23349"/>
 <path fill="none" stroke="rgb(179,179,179)" stroke-linejoin="round" d="M 14848,23499 L 14848,23349"/>
 <path fill="none" stroke="rgb(179,179,179)" stroke-linejoin="round" d="M 14956,23499 L 14956,23349"/>
 <path fill="none" stroke="rgb(179,179,179)" stroke-linejoin="round" d="M 14956,23499 L 14956,23349"/>
 <path fill="none" stroke="rgb(179,179,179)" stroke-linejoin="round" d="M 15065,23499 L 15065,23349"/>
 <path fill="none" stroke="rgb(179,179,179)" stroke-linejoin="round" d="M 15065,23499 L 15065,23349"/>
 <path fill="none" stroke="rgb(179,179,179)" stroke-linejoin="round" d="M 15173,23499 L 15173,23349"/>
 <path fill="none" stroke="rgb(179,179,179)" stroke-linejoin="round" d="M 15173,23499 L 15173,23349"/>
 <path fill="none" stroke="rgb(179,179,179)" stroke-linejoin="round" d="M 15281,23499 L 15281,23349"/>
 <path fill="none" stroke="rgb(179,179,179)" stroke-linejoin="round" d="M 15281,23499 L 15281,23349"/>
 <path fill="none" stroke="rgb(179,179,179)" stroke-linejoin="round" d="M 15390,23499 L 15390,23349"/>
 <path fill="none" stroke="rgb(179,179,179)" stroke-linejoin="round" d="M 15390,23499 L 15390,23349"/>
 <path fill="none" stroke="rgb(179,179,179)" stroke-linejoin="round" d="M 15498,23499 L 15498,23349"/>
 <path fill="none" stroke="rgb(179,179,179)" stroke-linejoin="round" d="M 15498,23499 L 15498,23349"/>
 <path fill="none" stroke="rgb(179,179,179)" stroke-linejoin="round" d="M 15606,23499 L 15606,23349"/>
 <path fill="none" stroke="rgb(179,179,179)" stroke-linejoin="round" d="M 15606,23499 L 15606,23349"/>
 <path fill="none" stroke="rgb(179,179,179)" stroke-linejoin="round" d="M 15715,23499 L 15715,23349"/>
 <path fill="none" stroke="rgb(179,179,179)" stroke-linejoin="round" d="M 15715,23499 L 15715,23349"/>
 <path fill="none" stroke="rgb(179,179,179)" stroke-linejoin="round" d="M 15823,23499 L 15823,23349"/>
 <path fill="none" stroke="rgb(179,179,179)" stroke-linejoin="round" d="M 15823,23499 L 15823,23349"/>
 <path fill="none" stroke="rgb(179,179,179)" stroke-linejoin="round" d="M 15932,23499 L 15932,23349"/>
 <path fill="none" stroke="rgb(179,179,179)" stroke-linejoin="round" d="M 15932,23499 L 15932,23349"/>
 <path fill="none" stroke="rgb(179,179,179)" stroke-linejoin="round" d="M 16040,23499 L 16040,23349"/>
 <path fill="none" stroke="rgb(179,179,179)" stroke-linejoin="round" d="M 16040,23499 L 16040,23349"/>
 <path fill="none" stroke="rgb(179,179,179)" stroke-linejoin="round" d="M 16148,23499 L 16148,23349"/>
 <path fill="none" stroke="rgb(179,179,179)" stroke-linejoin="round" d="M 16148,23499 L 16148,23349"/>
 <path fill="none" stroke="rgb(179,179,179)" stroke-linejoin="round" d="M 16257,23499 L 16257,23349"/>
 <path fill="none" stroke="rgb(179,179,179)" stroke-linejoin="round" d="M 16257,23499 L 16257,23349"/>
 <path fill="none" stroke="rgb(179,179,179)" stroke-linejoin="round" d="M 16365,23499 L 16365,23349"/>
 <path fill="none" stroke="rgb(179,179,179)" stroke-linejoin="round" d="M 16365,23499 L 16365,23349"/>
 <path fill="none" stroke="rgb(179,179,179)" stroke-linejoin="round" d="M 16473,23499 L 16473,23349"/>
 <path fill="none" stroke="rgb(179,179,179)" stroke-linejoin="round" d="M 16473,23499 L 16473,23349"/>
 <path fill="none" stroke="rgb(179,179,179)" stroke-linejoin="round" d="M 16582,23499 L 16582,23349"/>
 <path fill="none" stroke="rgb(179,179,179)" stroke-linejoin="round" d="M 16582,23499 L 16582,23349"/>
 <path fill="none" stroke="rgb(179,179,179)" stroke-linejoin="round" d="M 16690,23499 L 16690,23349"/>
 <path fill="none" stroke="rgb(179,179,179)" stroke-linejoin="round" d="M 16690,23499 L 16690,23349"/>
 <path fill="none" stroke="rgb(179,179,179)" stroke-linejoin="round" d="M 16798,23499 L 16798,23349"/>
 <path fill="none" stroke="rgb(179,179,179)" stroke-linejoin="round" d="M 16798,23499 L 16798,23349"/>
 <path fill="none" stroke="rgb(179,179,179)" stroke-linejoin="round" d="M 16907,23499 L 16907,23349"/>
 <path fill="none" stroke="rgb(179,179,179)" stroke-linejoin="round" d="M 16907,23499 L 16907,23349"/>
 <path fill="none" stroke="rgb(179,179,179)" stroke-linejoin="round" d="M 17015,23499 L 17015,23349"/>
 <path fill="none" stroke="rgb(179,179,179)" stroke-linejoin="round" d="M 17015,23499 L 17015,23349"/>
 <path fill="none" stroke="rgb(179,179,179)" stroke-linejoin="round" d="M 17123,23499 L 17123,23349"/>
 <path fill="none" stroke="rgb(179,179,179)" stroke-linejoin="round" d="M 17123,23499 L 17123,23349"/>
 <path fill="none" stroke="rgb(179,179,179)" stroke-linejoin="round" d="M 17232,23499 L 17232,23349"/>
 <path fill="none" stroke="rgb(179,179,179)" stroke-linejoin="round" d="M 17232,23499 L 17232,23349"/>
 <path fill="none" stroke="rgb(179,179,179)" stroke-linejoin="round" d="M 17340,23499 L 17340,23349"/>
 <path fill="none" stroke="rgb(179,179,179)" stroke-linejoin="round" d="M 17340,23499 L 17340,23349"/>
 <path fill="none" stroke="rgb(179,179,179)" stroke-linejoin="round" d="M 17449,23499 L 17449,23349"/>
 <path fill="none" stroke="rgb(179,179,179)" stroke-linejoin="round" d="M 17449,23499 L 17449,23349"/>
 <path fill="none" stroke="rgb(179,179,179)" stroke-linejoin="round" d="M 17557,23499 L 17557,23349"/>
 <path fill="none" stroke="rgb(179,179,179)" stroke-linejoin="round" d="M 17557,23499 L 17557,23349"/>
 <path fill="none" stroke="rgb(179,179,179)" stroke-linejoin="round" d="M 17665,23499 L 17665,23349"/>
 <path fill="none" stroke="rgb(179,179,179)" stroke-linejoin="round" d="M 17665,23499 L 17665,23349"/>
 <path fill="none" stroke="rgb(179,179,179)" stroke-linejoin="round" d="M 17774,23499 L 17774,23349"/>
 <path fill="none" stroke="rgb(179,179,179)" stroke-linejoin="round" d="M 17774,23499 L 17774,23349"/>
 <path fill="none" stroke="rgb(179,179,179)" stroke-linejoin="round" d="M 17882,23499 L 17882,23349"/>
 <path fill="none" stroke="rgb(179,179,179)" stroke-linejoin="round" d="M 17882,23499 L 17882,23349"/>
 <path fill="none" stroke="rgb(179,179,179)" stroke-linejoin="round" d="M 17990,23499 L 17990,23349"/>
 <path fill="none" stroke="rgb(179,179,179)" stroke-linejoin="round" d="M 17990,23499 L 17990,23349"/>
 <path fill="none" stroke="rgb(179,179,179)" stroke-linejoin="round" d="M 18099,23499 L 18099,23349"/>
 <path fill="none" stroke="rgb(179,179,179)" stroke-linejoin="round" d="M 18099,23499 L 18099,23349"/>
 <path fill="none" stroke="rgb(179,179,179)" stroke-linejoin="round" d="M 18207,23499 L 18207,23349"/>
 <path fill="none" stroke="rgb(179,179,179)" stroke-linejoin="round" d="M 18207,23499 L 18207,23349"/>
 <path fill="none" stroke="rgb(179,179,179)" stroke-linejoin="round" d="M 18315,23499 L 18315,23349"/>
 <path fill="none" stroke="rgb(179,179,179)" stroke-linejoin="round" d="M 18315,23499 L 18315,23349"/>
 <path fill="none" stroke="rgb(179,179,179)" stroke-linejoin="round" d="M 18424,23499 L 18424,23349"/>
 <path fill="none" stroke="rgb(179,179,179)" stroke-linejoin="round" d="M 18424,23499 L 18424,23349"/>
 <path fill="none" stroke="rgb(179,179,179)" stroke-linejoin="round" d="M 18532,23499 L 18532,23349"/>
 <path fill="none" stroke="rgb(179,179,179)" stroke-linejoin="round" d="M 18532,23499 L 18532,23349"/>
 <path fill="none" stroke="rgb(179,179,179)" stroke-linejoin="round" d="M 18641,23499 L 18641,23349"/>
 <path fill="none" stroke="rgb(179,179,179)" stroke-linejoin="round" d="M 18641,23499 L 18641,23349"/>
 <path fill="none" stroke="rgb(179,179,179)" stroke-linejoin="round" d="M 1413,23349 L 18641,23349"/>
 <path fill="none" stroke="rgb(179,179,179)" stroke-linejoin="round" d="M 1263,23349 L 1413,23349"/>
 <path fill="none" stroke="rgb(179,179,179)" stroke-linejoin="round" d="M 1263,23349 L 1413,23349"/>
 <path fill="none" stroke="rgb(179,179,179)" stroke-linejoin="round" d="M 1263,21185 L 1413,21185"/>
 <path fill="none" stroke="rgb(179,179,179)" stroke-linejoin="round" d="M 1263,21185 L 1413,21185"/>
 <path fill="none" stroke="rgb(179,179,179)" stroke-linejoin="round" d="M 1263,19021 L 1413,19021"/>
 <path fill="none" stroke="rgb(179,179,179)" stroke-linejoin="round" d="M 1263,19021 L 1413,19021"/>
 <path fill="none" stroke="rgb(179,179,179)" stroke-linejoin="round" d="M 1263,16857 L 1413,16857"/>
 <path fill="none" stroke="rgb(179,179,179)" stroke-linejoin="round" d="M 1263,16857 L 1413,16857"/>
 <path fill="none" stroke="rgb(179,179,179)" stroke-linejoin="round" d="M 1263,14693 L 1413,14693"/>
 <path fill="none" stroke="rgb(179,179,179)" stroke-linejoin="round" d="M 1263,14693 L 1413,14693"/>
 <path fill="none" stroke="rgb(179,179,179)" stroke-linejoin="round" d="M 1263,12529 L 1413,12529"/>
 <path fill="none" stroke="rgb(179,179,179)" stroke-linejoin="round" d="M 1263,12529 L 1413,12529"/>
 <path fill="none" stroke="rgb(179,179,179)" stroke-linejoin="round" d="M 1263,10366 L 1413,10366"/>
 <path fill="none" stroke="rgb(179,179,179)" stroke-linejoin="round" d="M 1263,10366 L 1413,10366"/>
 <path fill="none" stroke="rgb(179,179,179)" stroke-linejoin="round" d="M 1263,8202 L 1413,8202"/>
 <path fill="none" stroke="rgb(179,179,179)" stroke-linejoin="round" d="M 1263,8202 L 1413,8202"/>
 <path fill="none" stroke="rgb(179,179,179)" stroke-linejoin="round" d="M 1263,6038 L 1413,6038"/>
 <path fill="none" stroke="rgb(179,179,179)" stroke-linejoin="round" d="M 1263,6038 L 1413,6038"/>
 <path fill="none" stroke="rgb(179,179,179)" stroke-linejoin="round" d="M 1263,3874 L 1413,3874"/>
 <path fill="none" stroke="rgb(179,179,179)" stroke-linejoin="round" d="M 1263,3874 L 1413,3874"/>
 <path fill="none" stroke="rgb(179,179,179)" stroke-linejoin="round" d="M 1263,1711 L 1413,1711"/>
 <path fill="none" stroke="rgb(179,179,179)" stroke-linejoin="round" d="M 1263,1711 L 1413,1711"/>
 <path fill="none" stroke="rgb(179,179,179)" stroke-linejoin="round" d="M 1413,23349 L 1413,1711"/>
 <path fill="none" stroke="rgb(141,40,30)" stroke-width="80" stroke-linejoin="round" stroke-dasharray="80,40" d="M 1467,23280 L 1575,23257 1683,23254 1792,23210 1900,23153 2008,23067 2117,22898 2225,22729 2334,22525 2442,22271 2550,21947 2659,21625 2767,21245 2875,20680 2984,20110 3092,19491 3200,18939 3309,18360 3417,17596 3525,16852 3634,15928 3742,14951 3851,14072 3959,13302 4067,12460 4176,11604 4284,10698 4392,9692 4501,8778 4609,7947 4717,7130 4826,6709 4934,6044 5043,5320 5151,4454 5259,3597 5368,2956 5476,2326 5563,1711"/>
 <path fill="none" stroke="rgb(255,64,0)" stroke-width="80" stroke-linejoin="round" stroke-dasharray="80,40" d="M 1467,23341 L 1575,23341 1683,23340 1792,23338 1900,23332 2008,23330 2117,23317 2225,23309 2334,23297 2442,23271 2550,23252 2659,23237 2767,23222 2875,23201 2984,23179 3092,23156 3200,23139 3309,23130 3417,23074 3525,23019 3634,22962 3742,22912 3851,22850 3959,22813 4067,22764 4176,22675 4284,22573 4392,22484 4501,22411 4609,22359 4717,22289 4826,22232 4934,22295 5043,22709 5151,22611 5259,22456 5368,22316 5476,22632 5584,22532 5693,22465 5801,22456 5909,22323 6018,22193 6126,22019 6234,21889 6343,21734 6451,21535 6560,21309 6668,21044 6776,20917 6885,20832 6993,20711 7101,20525 7210,20329 7318,19954 7426,19721 7535,19397 7643,19085 7751,18937 7860,18736 7968,18604 8077,18333 8185,17762 8293,17219 8402,16821 8510,16685 8618,16317 8727,15856 8835,15402 8943,14992 9052,14466 9160,14039 9268,13640 9377,13285 9485,12749 9594,12167 9702,11438 9810,10729 9919,9664 10027,9141 10135,8813 10244,8043 10352,7416 10460,6749 10569,5840 10677,5027 10786,4437 10894,8477 11002,7849 11111,7112 11219,6444 11327,5939 11436,5608 11544,5262 11652,4679 11761,3592 11868,3598 11976,3191 12063,1711"/>
 <path fill="none" stroke="rgb(0,223,255)" stroke-width="80" stroke-linejoin="round" stroke-dasharray="158,102" d="M 1467,23345 L 1575,23345 1683,23344 1792,23342 1900,23341 2008,23338 2117,23334 2225,23330 2334,23327 2442,23323 2550,23317 2659,23314 2767,23302 2875,23289 2984,23275 3092,23259 3200,23240 3309,23218 3417,23185 3525,23158 3634,23105 3742,23064 3851,23026 3959,22979 4067,22912 4176,22834 4284,22753 4392,22655 4501,22531 4609,22427 4717,22285 4826,22110 4934,21922 5043,21695 5151,21465 5259,21188 5368,20871 5476,20442 5584,20140 5693,19758 5801,19414 5909,19098 6018,18719 6126,18332 6234,17904 6343,17491 6451,17103 6560,16814 6668,16394 6776,15931 6885,15355 6993,14691 7101,14020 7210,13410 7318,12742 7426,12100 7535,11522 7643,11121 7751,10489 7860,10039 7968,9514 8077,9111 8185,8788 8293,8359 8402,8052 8510,7651 8618,7206 8727,6967 8835,7014 8943,6907 9052,6789 9160,6701 9268,6472 9377,6224 9485,6490 9594,6705 9702,6748 9810,6743 9919,6701 10027,6352 10135,6003 10244,6182 10352,6227 10460,6226 10569,6186 10677,6190 10786,5930 10894,5567 11002,5810 11111,5973 11219,5954 11327,5912 11436,5666 11544,5423 11652,5157 11761,5284 11868,5461 11976,5611 12085,5807 12193,5990 12302,5805 12410,5599 12518,5950 12627,6348 12735,6298 12843,6472 12952,6659 13060,6589 13168,6422 13277,6620 13385,6911 13493,6869 13602,7043 13710,7230 13819,7028 13927,6816 14035,7066 14144,7233 14252,7415 14360,7511 14469,7657 14577,7446 14685,7190 14794,7392 14902,7701 15010,7862 15119,7971 15227,8071 15336,7884 15444,7694 15552,7922 15661,8217 15769,8407 15877,8615 15986,8811 16094,8622 16202,8440 16311,8709 16419,8918 16528,9209 16636,9463 16744,9668 16853,9544 16961,9405 17069,9619 17178,9803 17286,9964 17394,10123 17503,10236 17611,10097 17719,9967 17828,10094 17936,10255 18045,10340 18153,10461 18261,10573 18370,10477 18478,10354 18586,10494"/>
 <path fill="none" stroke="rgb(21,132,102)" stroke-width="80" stroke-linejoin="round" stroke-dasharray="80,203,80,203,203,203" d="M 1467,23250 L 1575,23238 1683,23228 1792,23212 1900,23195 2008,23172 2117,23137 2225,23102 2334,23065 2442,23030 2550,22974 2659,22934 2767,22875 2875,22803 2984,22731 3092,22654 3200,22589 3309,22527 3417,22446 3525,22369 3634,22288 3742,22203 3851,22127 3959,22054 4067,21984 4176,21921 4284,21854 4392,21780 4501,21698 4609,21636 4717,21537 4826,21486 4934,21434 5043,21384 5151,21303 5259,21229 5368,21169 5476,21107 5584,21044 5693,20998 5801,20943 5909,20868 6018,20827 6126,20755 6234,20699 6343,20648 6451,20599 6560,20560 6668,20542 6776,20482 6885,20432 6993,20374 7101,20322 7210,20269 7318,20217 7426,20156 7535,20087 7643,20048 7751,19994 7860,19958 7968,19901 8077,19868 8185,19796 8293,19736 8402,19687 8510,19640 8618,19595 8727,19540 8835,19486 8943,19416 9052,19425 9160,19361 9268,19310 9377,19279 9485,19233 9594,19186 9702,19120 9810,19065 9919,18977 10027,18938 10135,18886 10244,18869 10352,18821 10460,18749 10569,18670 10677,18587 10786,18511 10894,18585 11002,18533 11111,18464 11219,18398 11327,18335 11436,18272 11544,18189 11652,18139 11761,18088 11868,18063 11976,17988 12085,17877 12193,17825 12302,17747 12410,17689 12518,17611 12627,17541 12735,17429 12843,17318 12952,17225 13060,17128 13168,17045 13277,16973 13385,16839 13493,16953 13602,16830 13710,16839 13819,16756 13927,16701 14035,16617 14144,16550 14252,16427 14360,16305 14469,16186 14577,16079 14685,16012 14794,15909 14902,15818 15010,15686 15119,15614 15227,15502 15336,15331 15444,15271 15552,15197 15661,15062 15769,14920 15877,14856 15986,14813 16094,14717 16202,14646 16311,14545 16419,14433 16528,14361 16636,14242 16744,14157 16853,14035 16961,14069 17069,14028 17178,13968 17286,13844 17394,13730 17503,13656 17611,13597 17719,13516 17828,13595 17936,13554 18045,13396 18153,13382 18261,13280 18370,13311 18478,13319 18586,13292"/>
 <path fill="none" stroke="rgb(191,0,65)" stroke-width="80" stroke-linejoin="round" stroke-dasharray="51,127,51,127,254,127,254,127,254,127" d="M 1467,23280 L 1575,23252 1683,23229 1792,23205 1900,23173 2008,23143 2117,23091 2225,23046 2334,22982 2442,22929 2550,22862 2659,22786 2767,22703 2875,22610 2984,22491 3092,22378 3200,22268 3309,22177 3417,22072 3525,21974 3634,21845 3742,21691 3851,21564 3959,21457 4067,21378 4176,21259 4284,21144 4392,21035 4501,20929 4609,20821 4717,20754 4826,20698 4934,20662 5043,20625 5151,20544 5259,20481 5368,20425 5476,20344 5584,20326 5693,20303 5801,20287 5909,20243 6018,20254 6126,20237 6234,20198 6343,20189 6451,20205 6560,20205 6668,20259 6776,20266 6885,20287 6993,20273 7101,20285 7210,20281 7318,20329 7426,20349 7535,20409 7643,20442 7751,20424 7860,20423 7968,20467 8077,20510 8185,20628 8293,20653 8402,20659 8510,20680 8618,20768 8727,20778 8835,20770 8943,20827 9052,20837 9160,20865 9268,20849 9377,20842 9485,20912 9594,20929 9702,20987 9810,20983 9919,21002 10027,21016 10135,21006 10244,21016 10352,21041 10460,21028 10569,21032 10677,21014 10786,20972 10894,20932 11002,20909 11111,20901 11219,20887 11327,20850 11436,20822 11544,20770 11652,20744 11761,20738 11868,20685 11976,20674 12085,20667 12193,20658 12302,20664 12410,20663 12518,20659 12627,20659 12735,20672 12843,20673 12952,20678 13060,20681 13168,20651 13277,20623 13385,20609 13493,20547 13602,20518 13710,20488 13819,20490 13927,20471 14035,20443 14144,20433 14252,20387 14360,20350 14469,20300 14577,20275 14685,20267 14794,20203 14902,20197 15010,20126 15119,20059 15227,19966 15336,19885 15444,19818 15552,19866 15661,19757 15769,19667 15877,19584 15986,19436 16094,19506 16202,19381 16311,19235 16419,19068 16528,18887 16636,18736 16744,18594 16853,18465 16961,18355 17069,18194 17178,18050 17286,17931 17394,17787 17503,17626 17611,17477 17719,17388 17828,17245 17936,17101 18045,16919 18153,16768 18261,16601 18370,16452 18478,16421 18586,16341"/>
 <path fill="none" stroke="rgb(128,0,128)" stroke-width="80" stroke-linejoin="round" stroke-dasharray="158,158" d="M 1467,23348 L 1575,23348 1683,23348 1792,23348 1900,23348 2008,23347 2117,23347 2225,23347 2334,23346 2442,23346 2550,23345 2659,23345 2767,23344 2875,23343 2984,23342 3092,23342 3200,23341 3309,23340 3417,23339 3525,23334 3634,23331 3742,23330 3851,23327 3959,23323 4067,23315 4176,23311 4284,23307 4392,23302 4501,23297 4609,23292 4717,23287 4826,23279 4934,23272 5043,23266 5151,23261 5259,23256 5368,23249 5476,23237 5584,23233 5693,23227 5801,23221 5909,23213 6018,23205 6126,23195 6234,23188 6343,23181 6451,23172 6560,23164 6668,23155 6776,23144 6885,23132 6993,23118 7101,23097 7210,23085 7318,23067 7426,23053 7535,23036 7643,23024 7751,23004 7860,22988 7968,22976 8077,22964 8185,22946 8293,22935 8402,22929 8510,22910 8618,22894 8727,22871 8835,22853 8943,22830 9052,22806 9160,22775 9268,22746 9377,22721 9485,22704 9594,22676 9702,22645 9810,22675 9919,22645 10027,22617 10135,22588 10244,22556 10352,22512 10460,22471 10569,22437 10677,22400 10786,22357 10894,22334 11002,22300 11111,22225 11219,22236 11327,22206 11436,22178 11544,22148 11652,22148 11761,22131 11868,22091 11976,22069 12085,22029 12193,22020 12302,21981 12410,21953 12518,21914 12627,21886 12735,21863 12843,21801 12952,21757 13060,21701 13168,21662 13277,21622 13385,21569 13493,21565 13602,21503 13710,21429 13819,21363 13927,21313 14035,21271 14144,21233 14252,21179 14360,21127 14469,21057 14577,20984 14685,20906 14794,20841 14902,20752 15010,20663 15119,20533 15227,20420 15336,20286 15444,20191 15552,20124 15661,20006 15769,19896 15877,19772 15986,19679 16094,19544 16202,19464 16311,19354 16419,19215 16528,19086 16636,18918 16744,18897 16853,18806 16961,18752 17069,18752 17178,18680 17286,18586 17394,18495 17503,18419 17611,18370 17719,18331 17828,18300 17936,18224 18045,18161 18153,18112 18261,18035 18370,18041 18478,18070 18586,18044"/>
 <path fill="none" stroke="rgb(255,211,32)" stroke-width="80" stroke-linejoin="round" d="M 1467,23206 L 1575,23158 1683,23093 1792,23050 1900,22951 2008,22883 2117,22650 2225,22511 2334,22349 2442,22224 2550,22107 2659,21953 2767,21694 2875,21423 2984,21066 3092,20713 3200,20530 3309,20365 3417,20083 3525,19905 3634,19563 3742,19342 3851,18969 3959,18879 4067,18678 4176,18542 4284,18317 4392,18139 4501,18027 4609,18003 4717,17904 4826,17896 4934,17986 5043,18064 5151,18002 5259,18093 5368,18097 5476,18032 5584,18148 5693,18217 5801,18363 5909,18474 6018,18612 6126,18619 6234,18662 6343,18907 6451,18975 6560,19061 6668,19174 6776,19181 6885,19258 6993,19362 7101,19550 7210,19678 7318,19805 7426,19924 7535,19923 7643,19942 7751,19945 7860,20133 7968,20268 8077,20386 8185,20502 8293,20590 8402,20583 8510,20605 8618,20673 8727,20702 8835,20735 8943,20800 9052,20847 9160,20790 9268,20760 9377,20820 9485,20860 9594,20925 9702,20963 9810,20947 9919,20959 10027,20934 10135,20985 10244,20969 10352,20960 10460,20965 10569,21004 10677,20969 10786,20914 10894,20949 11002,20954 11111,20941 11219,20963 11327,20930 11436,20879 11544,20854 11652,20885 11761,20902 11868,20893 11976,20817 12085,20724 12193,20686 12302,20658 12410,20671 12518,20564 12627,20473 12735,20443 12843,20296 12952,20048 13060,19762 13168,19599 13277,19475 13385,19408 13493,19304 13602,19188 13710,19068 13819,19001 13927,18961 14035,18879 14144,18850 14252,18864 14360,18862 14469,18766 14577,18726 14685,18790 14794,18757 14902,18688 15010,18684 15119,18641 15227,18535 15336,18474 15444,18395 15552,18250 15661,18234 15769,18189 15877,18004 15986,18041 16094,19787 16202,19595 16311,19310 16419,19014 16528,18792 16636,18678 16744,18571 16853,18488 16961,18384 17069,18205 17178,18063 17286,18276 17394,18376 17503,18214 17611,18117 17719,18175 17828,18125 17936,18017 18045,17856 18153,17723 18261,17556 18370,17472 18478,18114 18586,18362"/>
 <path fill="none" stroke="rgb(0,255,0)" stroke-width="80" stroke-linejoin="round" d="M 1467,21943 L 1575,21671 1683,20621 1792,20621 1900,20012 2008,19617 2117,18324 2225,16817 2334,15241 2442,14291 2550,12667 2659,11318 2767,10082 2875,8987 2984,9389 3092,7995 3200,7180 3309,6173 3417,5411 3525,5456 3634,5500 3742,5636 3851,6568 3959,5885 4067,7303 4176,7438 4284,7616 4392,7719 4501,7786 4609,8384 4717,8837 4826,9785 4934,9520 5043,11227 5151,11409 5259,11659 5368,12178 5476,12664 5584,13454 5693,14366 5801,14774 5909,15414 6018,15738 6126,15854 6234,16284 6343,16724 6451,17142 6560,16984 6668,17787 6776,18284 6885,18529 6993,18794 7101,19602 7210,19831 7318,20154 7426,20328 7535,20493 7643,20822 7751,21008 7860,21225 7968,21207 8077,21545 8185,21485 8293,21428 8402,21732 8510,21841 8618,21960 8727,22065 8835,22141 8943,22228 9052,22218 9160,22323 9268,22436 9377,22557 9485,22541 9594,22650 9702,22627 9810,22587 9919,22691 10027,22796 10135,22785 10244,22781 10352,22883 10460,22858 10569,22830 10677,22930 10786,22918 10894,22912 11002,22906 11111,22880 11219,22965 11327,22942 11436,22903 11544,22875 11652,22983 11761,22973 11868,22935 11976,22918 12085,22875 12193,22865 12302,22928 12410,22906 12518,22878 12627,22826 12735,22761 12843,22693 12952,22732 13060,22655 13168,22611 13277,22660 13385,22491 13493,22346 13602,22178 13710,22057 13819,22095 13927,22036 14035,21970 14144,21933 14252,21823 14360,21693 14469,21662 14577,21705 14685,21626 14794,21788 14902,21623 15010,21572 15119,21457 15227,21320 15336,21696 15444,21645 15552,21511 15661,21585 15769,21442 15877,21252 15986,21067 16094,21180 16202,21350 16311,21310 16419,21195 16528,20921 16636,20659 16744,20684 16853,20762 16961,20679 17069,20642 17178,20419 17286,20194 17394,19994 17503,20142 17611,20452 17719,20447 17828,20217 17936,20251 18045,19958 18153,19873 18261,19932 18370,19807 18478,19647 18586,19652"/>
 <path fill="none" stroke="rgb(0,169,51)" stroke-width="80" stroke-linejoin="round" stroke-dasharray="80,40" d="M 1467,23347 L 1575,23345 1683,23344 1792,23342 1900,23341 2008,23339 2117,23335 2225,23332 2334,23328 2442,23323 2550,23318 2659,23315 2767,23309 2875,23300 2984,23290 3092,23279 3200,23267 3309,23262 3417,23252 3525,23239 3634,23229 3742,23265 3851,23250 3959,23230 4067,23207 4176,23180 4284,23149 4392,23129 4501,23099 4609,23070 4717,23131 4826,23110 4934,23094 5043,23074 5151,23039 5259,22996 5368,22952 5476,22933 5584,22893 5693,22844 5801,22766 5909,22682 6018,22591 6126,22896 6234,22931 6343,22928 6451,23033 6560,22959 6668,22850 6776,22812 6885,22707 6993,22688 7101,22578 7210,22786 7318,22749 7426,22604 7535,22673 7643,22653 7751,22532 7860,22538 7968,22638 8077,22595 8185,22539 8293,22525 8402,22488 8510,22450 8618,22433 8727,22396 8835,22334 8943,22266 9052,22228 9160,22152 9268,22153 9377,22172 9485,22113 9594,22040 9702,21979 9810,21988 9919,21965 10027,21925 10135,21980 10244,21927 10352,21936 10460,21806 10569,21753 10677,21731 10786,21701 10894,21803 11002,21762 11111,21679 11219,21600 11327,21513 11436,21524 11544,21469 11652,21637 11761,21573 11868,21485 11976,21374 12085,21364 12193,21371 12302,21316 12410,21405 12518,21302 12627,21331 12735,21206 12843,21185 12952,21192 13060,21204 13168,21386 13277,21353 13385,21273 13493,21203 13602,21161 13710,21160 13819,21142 13927,21183 14035,21120 14144,21008 14252,20904 14360,20862 14469,20774 14577,20845 14685,20928 14794,20887 14902,20969 15010,20933 15119,20933 15227,20933 15336,19144 15444,19420 15552,19283 15661,19074 15769,18872 15877,18963 15986,18914 16094,19017 16202,19349 16311,19180 16419,19274 16528,19146 16636,19083 16744,18997 16853,19256 16961,19794 17069,19686 17178,19603 17286,19416 17394,19321 17503,19424 17611,19694 17719,20019 17828,19882 17936,19779 18045,19667 18153,19574 18261,19740 18370,19899 18478,20171 18586,20021"/>
 <path fill="none" stroke="rgb(180,120,4)" stroke-width="80" stroke-linejoin="round" d="M 1467,21875 L 1575,21819 1683,21749 1792,21644 1900,21477 2008,21310 2117,21114 2225,20914 2334,20769 2442,20597 2550,20511 2659,20322 2767,20070 2875,19804 2984,19513 3092,19232 3200,18911 3309,18570 3417,18080 3525,19285 3634,19170 3742,18726 3851,18342 3959,17931 4067,17480 4176,17034 4284,16715 4392,16543 4501,16308 4609,16341 4717,16368 4826,16332 4934,16528 5043,16667 5151,16836 5259,17183 5368,17735 5476,18034 5584,18124 5693,18520 5801,18858 5909,19122 6018,19148 6126,19006 6234,19025 6343,19091 6451,19126 6560,19303 6668,19381 6776,19450 6885,19595 6993,19580 7101,19513 7210,19635 7318,19788 7426,19936 7535,20103 7643,20230 7751,20261 7860,20318 7968,20626 8077,20650 8185,20833 8293,20973 8402,21132 8510,21233 8618,21296 8727,21373 8835,21464 8943,21554 9052,21688 9160,21712 9268,21699 9377,21769 9485,21841 9594,21861 9702,21943 9810,21905 9919,21996 10027,22000 10135,22041 10244,22125 10352,22173 10460,22231 10569,22182 10677,22218 10786,22240 10894,22290 11002,22323 11111,22396 11219,22455 11327,22409 11436,22418 11544,22380 11652,22378 11761,22382 11868,22411 11976,22428 12085,22415 12193,22415 12302,22415 12410,22288 12518,22312 12627,22266 12735,22297 12843,22316 12952,22316 13060,22316 13168,22369 13277,22406 13385,22440 13493,22541 13602,22598 13710,22598 13819,22596 13927,22730 14035,22805 14144,22816 14252,22868 14360,22872 14469,22872 14577,22872 14685,22804 14794,22815 14902,22798 15010,22763 15119,22701 15227,22701 15336,22695 15444,22609 15552,22554 15661,22490 15769,22464 15877,22453 15986,22451 16094,22411 16202,22351 16311,22347 16419,22307 16528,22207 16636,22187 16744,22187 16853,22193 16961,22006 17069,21921 17178,21760 17286,21558 17394,21360 17503,21354 17611,21380 17719,20852 17828,20701 17936,20602 18045,20415 18153,20263 18261,20171 18370,20041 18478,19962 18586,19960"/>
 <path fill="none" stroke="rgb(0,169,51)" stroke-width="80" stroke-linejoin="round" stroke-dasharray="158,102" d="M 1467,22332 L 1575,22169 1683,22238 1792,22119 1900,22087 2008,21953 2117,21878 2225,21872 2334,21878 2442,21800 2550,21634 2659,21550 2767,21376 2875,21195 2984,20924 3092,20616 3200,20350 3309,20150 3417,19864 3525,19602 3634,19407 3742,19232 3851,19155 3959,18855 4067,19159 4176,19268 4284,19383 4392,19510 4501,19678 4609,20292 4717,20345 4826,20420 4934,20506 5043,20556 5151,20657 5259,20711 5368,20792 5476,20763 5584,20898 5693,20960 5801,21095 5909,21197 6018,21285 6126,21354 6234,21402 6343,21451 6451,21511 6560,21557 6668,21608 6776,21643 6885,21681 6993,21700 7101,21675 7210,21654 7318,21591 7426,21557 7535,21505 7643,21472 7751,21439 7860,21393 7968,21329 8077,21221 8185,21141 8293,21043 8402,20990 8510,20934 8618,20801 8727,20732 8835,20649 8943,20575 9052,20505 9160,20503 9268,20452 9377,20442 9485,20442 9594,20405 9702,20356 9810,20249 9919,20207 10027,20151 10135,20056 10244,19929 10352,19809 10460,19650 10569,19577 10677,19590 10786,19592 10894,19597 11002,19607 11111,19633 11219,19625 11327,19585 11436,19551 11544,19495 11652,19441 11761,19394 11868,19348 11976,19306 12085,19268 12193,19266 12302,19260 12410,19309 12518,19362 12627,19431 12735,19502 12843,19531 12952,19593 13060,19632 13168,19696 13277,19730 13385,19772 13493,19786 13602,19777 13710,19803 13819,19801 13927,19840 14035,19902 14144,19892 14252,20002 14360,20095 14469,20152 14577,20195 14685,20247 14794,20297 14902,20310 15010,20406 15119,20415 15227,20472 15336,20539 15444,20552 15552,20535 15661,20551 15769,20549 15877,20512 15986,20510 16094,20481 16202,20444 16311,20372 16419,20328 16528,20288 16636,20267 16744,20265 16853,20238 16961,20205 17069,20175 17178,20160 17286,20170 17394,20165 17503,20218 17611,20268 17719,20310 17828,20287 17936,20197 18045,20115 18153,20040 18261,20006 18370,19989 18478,19936 18586,19873"/>
 <path fill="none" stroke="rgb(0,127,255)" stroke-width="80" stroke-linejoin="round" d="M 1467,20672 L 1575,20172 1683,19662 1792,19220 1900,18685 2008,18211 2117,17409 2225,16450 2334,15711 2442,15003 2550,14253 2659,13680 2767,13055 2875,12252 2984,11465 3092,10812 3200,10129 3309,9834 3417,9457 3525,8931 3634,8488 3742,8070 3851,7553 3959,7021 4067,6674 4176,6516 4284,6303 4392,6014 4501,5764 4609,5407 4717,5052 4826,4808 4934,4687 5043,4485 5151,4272 5259,4209 5368,4064 5476,3977 5584,3981 5693,4075 5801,4077 5909,4229 6018,4287 6126,4408 6234,4363 6343,4415 6451,4523 6560,4621 6668,5177 6776,5286 6885,5329 6993,5423 7101,5458 7210,5729 7318,6971 7426,7311 7535,7609 7643,8167 7751,8439 7860,8588 7968,8807 8077,9310 8185,9671 8293,10453 8402,10790 8510,11118 8618,11440 8727,11695 8835,12120 8943,12441 9052,12733 9160,13014 9268,13221 9377,13453 9485,13875 9594,14228 9702,14762 9810,15086 9919,15530 10027,15819 10135,15946 10244,16210 10352,16316 10460,16472 10569,16732 10677,16928 10786,17038 10894,17134 11002,17466 11111,17674 11219,17866 11327,18160 11436,18430 11544,18647 11652,18712 11761,18952 11868,19067 11976,19215 12085,19493 12193,19553 12302,19596 12410,19656 12518,19846 12627,20010 12735,20073 12843,20192 12952,20336 13060,20363 13168,20397 13277,20564 13385,20619 13493,20654 13602,20685 13710,20732 13819,20728 13927,20716 14035,20800 14144,20916 14252,20940 14360,20946 14469,20968 14577,20990 14685,20994 14794,21037 14902,21113 15010,21116 15119,21120 15227,21135 15336,21122 15444,21129 15552,21157 15661,21144 15769,21129 15877,21147 15986,21122 16094,21100 16202,21097 16311,21092 16419,21091 16528,21160 16636,21126 16744,21119 16853,21120 16961,21116 17069,21115 17178,21086 17286,21077 17394,21036 17503,21031 17611,20975 17719,20956 17828,20922 17936,20881 18045,20829 18153,20799 18261,20771 18370,20712 18478,20688 18586,20648"/>
 <path fill="none" stroke="rgb(0,169,51)" stroke-width="80" stroke-linejoin="round" d="M 1467,22751 L 1575,22570 1683,22324 1792,22136 1900,21753 2008,21387 2117,20948 2225,20498 2334,19988 2442,19075 2550,18010 2659,17046 2767,16682 2875,15242 2984,14490 3092,13764 3200,13470 3309,12688 3417,12588 3525,12383 3634,12271 3742,12136 3851,12432 3959,12718 4067,13000 4176,13318 4284,13549 4392,14088 4501,14733 4609,15101 4717,15410 4826,15744 4934,15890 5043,16327 5151,17246 5259,17991 5368,18526 5476,18788 5584,18911 5693,19251 5801,19640 5909,20002 6018,20142 6126,20334 6234,20464 6343,20510 6451,20696 6560,20894 6668,20993 6776,21148 6885,21208 6993,21221 7101,21300 7210,21448 7318,21622 7426,21613 7535,21758 7643,21799 7751,21832 7860,21906 7968,21919 8077,22064 8185,22115 8293,22135 8402,22090 8510,22087 8618,22116 8727,22134 8835,22342 8943,22363 9052,22392 9160,22375 9268,22387 9377,22436 9485,22469 9594,22486 9702,22539 9810,22580 9919,22751 10027,22784 10135,22785 10244,22795 10352,22833 10460,22846 10569,22833 10677,22824 10786,22824 10894,22800 11002,22830 11111,22842 11219,22855 11327,22863 11436,22881 11544,22900 11652,22879 11761,22845 11868,22848 11976,22827 12085,22818 12193,22796 12302,22803 12410,22809 12518,22803 12627,22779 12735,22797 12843,22777 12952,22737 13060,22687 13168,22628 13277,22648 13385,22535 13493,22481 13602,22403 13710,22324 13819,22196 13927,22133 14035,22112 14144,22044 14252,21966 14360,21913 14469,21891 14577,21862 14685,21859 14794,21860 14902,21824 15010,21769 15119,21675 15227,21714 15336,21733 15444,21699 15552,21665 15661,21704 15769,21613 15877,21593 15986,21544 16094,21485 16202,21428 16311,21444 16419,21419 16528,21416 16636,21362 16744,21447 16853,21424 16961,21422 17069,21635 17178,21687 17286,21689 17394,21634 17503,21683 17611,21680 17719,21699 17828,21668 17936,21610 18045,21519 18153,21364 18261,21157 18370,20993 18478,20898 18586,20670"/>
 <path fill="none" stroke="rgb(0,0,0)" stroke-width="80" stroke-linejoin="round" d="M 1467,22881 L 1575,22764 1683,22608 1792,22420 1900,22165 2008,21774 2117,21390 2225,20817 2334,20521 2442,20183 2550,19647 2659,19528 2767,19013 2875,18442 2984,17683 3092,17049 3200,16588 3309,16538 3417,16255 3525,15826 3634,15439 3742,14915 3851,14535 3959,14330 4067,13939 4176,14365 4284,15000 4392,15191 4501,14891 4609,14984 4717,15015 4826,15267 4934,15618 5043,15814 5151,16033 5259,16384 5368,16442 5476,16556 5584,16801 5693,17142 5801,17412 5909,17634 6018,18256 6126,18075 6234,18210 6343,18424 6451,18674 6560,18871 6668,19102 6776,19417 6885,19584 6993,19707 7101,19932 7210,20131 7318,20638 7426,20722 7535,20588 7643,20704 7751,20777 7860,20856 7968,20994 8077,21084 8185,21244 8293,21316 8402,21384 8510,21489 8618,21604 8727,21539 8835,21623 8943,21704 9052,21745 9160,21798 9268,21829 9377,21916 9485,21946 9594,22022 9702,22010 9810,22035 9919,22089 10027,22119 10135,22134 10244,22224 10352,22307 10460,22325 10569,22343 10677,22339 10786,22336 10894,22334 11002,22362 11111,22426 11219,22450 11327,22456 11436,22509 11544,22493 11652,22550 11761,22497 11868,22554 11976,22432 12085,22388 12193,22423 12302,22362 12410,22351 12518,22349 12627,22377 12735,22358 12843,22325 12952,22319 13060,22307 13168,22277 13277,22273 13385,22341 13493,22372 13602,22384 13710,22422 13819,22473 13927,22460 14035,22490 14144,22509 14252,22546 14360,22543 14469,22526 14577,22518 14685,22573 14794,22538 14902,22598 15010,22578 15119,22566 15227,22556 15336,22542 15444,22553 15552,22522 15661,22503 15769,22492 15877,22469 15986,22414 16094,22382 16202,22358 16311,22333 16419,22298 16528,22207 16636,22153 16744,22159 16853,22166 16961,22139 17069,22123 17178,22010 17286,21983 17394,21919 17503,21908 17611,21889 17719,21809 17828,21801 17936,21714 18045,21617 18153,21525 18261,21476 18370,21465 18478,21384 18586,21385"/>
 <path fill="none" stroke="rgb(255,0,0)" stroke-width="80" stroke-linejoin="round" stroke-dasharray="158,102" d="M 1467,23348 L 1575,23348 1683,23348 1792,23346 1900,23343 2008,23336 2117,23324 2225,23303 2334,23264 2442,23194 2550,23157 2659,23114 2767,23047 2875,22896 2984,22635 3092,22422 3200,22196 3309,22002 3417,21671 3525,21415 3634,21121 3742,20781 3851,20443 3959,20083 4067,19725 4176,19269 4284,18786 4392,18316 4501,17755 4609,17178 4717,16638 4826,16191 4934,15791 5043,15369 5151,14951 5259,14606 5368,14370 5476,14072 5584,13674 5693,13289 5801,13109 5909,12982 6018,13012 6126,13152 6234,13318 6343,13654 6451,14003 6560,14308 6668,14607 6776,14968 6885,15295 6993,15716 7101,16160 7210,16590 7318,16940 7426,17307 7535,17514 7643,17717 7751,17937 7860,18198 7968,18385 8077,18545 8185,18639 8293,18696 8402,18752 8510,18816 8618,18878 8727,18920 8835,18938 8943,18947 9052,18972 9160,19016 9268,19013 9377,19060 9485,19133 9594,19170 9702,19224 9810,19286 9919,19294 10027,19317 10135,19338 10244,19365 10352,19377 10460,19371 10569,19462 10677,19599 10786,19824 10894,20138 11002,20425 11111,20597 11219,20603 11327,20611 11436,20552 11544,20524 11652,20444 11761,20388 11868,20369 11976,20382 12085,20421 12193,20432 12302,20463 12410,20476 12518,20486 12627,20475 12735,20480 12843,20494 12952,20575 13060,20584 13168,20566 13277,20569 13385,20715 13493,20763 13602,20784 13710,20794 13819,20802 13927,20961 14035,21123 14144,21277 14252,21518 14360,21583 14469,21627 14577,21666 14685,21687 14794,21697 14902,21708 15010,21730 15119,21744 15227,21780 15336,21791 15444,21801 15552,21814 15661,21855 15769,21888 15877,21899 15986,21925 16094,21937 16202,21948 16311,21966 16419,21975 16528,21979 16636,21983 16744,21983 16853,21984 16961,21988 17069,21979 17178,21960 17286,21947 17394,21929 17503,21920 17611,21912 17719,21916 17828,21918 17936,21885 18045,21852 18153,21816 18261,21785 18370,21762 18478,21735 18586,21697"/>
 <path fill="none" stroke="rgb(85,48,141)" stroke-width="80" stroke-linejoin="round" stroke-dasharray="80,40" d="M 1467,23296 L 1575,23294 1683,23279 1792,23233 1900,23215 2008,23165 2117,23124 2225,23084 2334,22991 2442,22936 2550,22760 2659,22588 2767,22478 2875,22253 2984,22095 3092,21901 3200,21700 3309,21384 3417,21389 3525,21019 3634,20651 3742,20458 3851,20429 3959,19769 4067,19631 4176,19419 4284,19169 4392,19052 4501,18863 4609,18741 4717,18629 4826,18435 4934,18210 5043,18121 5151,17658 5259,17353 5368,17044 5476,16978 5584,16644 5693,16381 5801,16144 5909,15810 6018,15503 6126,15383 6234,15189 6343,15176 6451,15053 6560,14925 6668,14828 6776,14736 6885,14626 6993,14236 7101,14197 7210,14170 7318,14134 7426,14060 7535,13964 7643,13936 7751,13891 7860,13848 7968,13870 8077,13898 8185,13864 8293,13782 8402,13724 8510,13640 8618,13544 8727,13488 8835,13421 8943,13388 9052,13321 9160,13210 9268,13151 9377,13082 9485,13033 9594,13067 9702,13019 9810,13045 9919,13027 10027,13059 10135,13088 10244,13098 10352,13156 10460,13210 10569,13288 10677,13448 10786,13422 10894,13451 11002,13558 11111,13755 11219,13901 11327,14050 11436,14173 11544,14313 11652,14442 11761,14486 11868,14777 11976,14825 12085,14867 12193,14900 12302,14936 12410,14977 12518,15001 12627,15032 12735,15027 12843,15071 12952,15076 13060,15057 13168,15177 13277,15228 13385,15261 13493,15301 13602,15319 13710,15337 13819,15355 13927,15343 14035,15368 14144,15395 14252,15389 14360,15406 14469,15451 14577,15446 14685,15389 14794,15381 14902,15388 15010,15369 15119,22089 15227,22045 15336,21999 15444,21898 15552,21824 15661,21807 15769,21760 15877,21718 15986,21693 16094,21661 16202,21606 16311,21563 16419,21513 16528,21526 16636,21515 16744,21495 16853,21463 16961,21430 17069,21458 17178,21443 17286,21429 17394,21411 17503,21379 17611,21365 17719,21924 17828,21948 17936,21966 18045,21956 18153,21950 18261,21967 18370,21993 18478,21998 18586,21943"/>
 <path fill="none" stroke="rgb(0,0,255)" stroke-width="80" stroke-linejoin="round" stroke-dasharray="158,158" d="M 1467,21786 L 1575,21765 1683,21750 1792,21866 1900,21907 2008,21916 2117,21885 2225,21867 2334,21838 2442,22095 2550,22095 2659,22207 2767,22234 2875,22301 2984,22364 3092,22394 3200,22420 3309,22446 3417,22459 3525,22472 3634,22509 3742,22532 3851,22577 3959,22591 4067,22610 4176,22621 4284,22629 4392,22663 4501,22689 4609,22710 4717,22730 4826,22742 4934,22756 5043,22768 5151,22794 5259,22805 5368,22824 5476,22845 5584,22858 5693,22877 5801,22889 5909,22933 6018,22960 6126,22975 6234,22983 6343,22999 6451,23012 6560,23041 6668,23042 6776,23052 6885,23061 6993,23067 7101,23081 7210,23091 7318,23109 7426,23120 7535,23134 7643,23136 7751,23133 7860,23136 7968,23136 8077,23144 8185,23151 8293,23154 8402,23159 8510,23159 8618,23163 8727,23184 8835,23196 8943,23197 9052,23200 9160,23198 9268,23198 9377,23205 9485,23201 9594,23193 9702,23186 9810,23185 9919,23181 10027,23178 10135,23175 10244,23169 10352,23168 10460,23161 10569,23155 10677,23148 10786,23142 10894,23140 11002,23134 11111,23134 11219,23125 11327,23120 11436,23118 11544,23113 11652,23113 11761,23107 11868,23100 11976,23097 12085,23087 12193,23080 12302,23079 12410,23075 12518,23069 12627,23073 12735,23106 12843,23126 12952,23123 13060,23128 13168,23141 13277,23147 13385,23151 13493,23153 13602,23151 13710,23143 13819,23136 13927,23141 14035,23140 14144,23140 14252,23141 14360,23150 14469,23148 14577,23140 14685,23150 14794,23156 14902,23153 15010,23155 15119,23159 15227,23160 15336,23158 15444,23163 15552,23162 15661,23162 15769,23166 15877,23153 15986,23145 16094,23144 16202,23159 16311,23162 16419,23172 16528,23175 16636,23179 16744,23178 16853,23178 16961,23186 17069,23191 17178,23202 17286,23206 17394,23216 17503,23211 17611,23209 17719,23216 17828,23217 17936,23212 18045,23200 18153,23173 18261,23116 18370,23076 18478,23028 18586,22980"/>
 <text class="TextShape" transform="rotate(-90 1561 24277)"><tspan class="TextParagraph" font-family="Liberation Sans, sans-serif" font-size="282px" font-weight="400"><tspan class="TextPosition" x="1561" y="24277"><tspan fill="rgb(0,0,0)" stroke="none">13.03</tspan></tspan></tspan></text>
 <text class="TextShape" transform="rotate(-90 1886 24277)"><tspan class="TextParagraph" font-family="Liberation Sans, sans-serif" font-size="282px" font-weight="400"><tspan class="TextPosition" x="1886" y="24277"><tspan fill="rgb(0,0,0)" stroke="none">16.03</tspan></tspan></tspan></text>
 <text class="TextShape" transform="rotate(-90 2211 24277)"><tspan class="TextParagraph" font-family="Liberation Sans, sans-serif" font-size="282px" font-weight="400"><tspan class="TextPosition" x="2211" y="24277"><tspan fill="rgb(0,0,0)" stroke="none">19.03</tspan></tspan></tspan></text>
 <text class="TextShape" transform="rotate(-90 2536 24277)"><tspan class="TextParagraph" font-family="Liberation Sans, sans-serif" font-size="282px" font-weight="400"><tspan class="TextPosition" x="2536" y="24277"><tspan fill="rgb(0,0,0)" stroke="none">22.03</tspan></tspan></tspan></text>
 <text class="TextShape" transform="rotate(-90 2861 24277)"><tspan class="TextParagraph" font-family="Liberation Sans, sans-serif" font-size="282px" font-weight="400"><tspan class="TextPosition" x="2861" y="24277"><tspan fill="rgb(0,0,0)" stroke="none">25.03</tspan></tspan></tspan></text>
 <text class="TextShape" transform="rotate(-90 3186 24277)"><tspan class="TextParagraph" font-family="Liberation Sans, sans-serif" font-size="282px" font-weight="400"><tspan class="TextPosition" x="3186" y="24277"><tspan fill="rgb(0,0,0)" stroke="none">28.03</tspan></tspan></tspan></text>
 <text class="TextShape" transform="rotate(-90 3511 24277)"><tspan class="TextParagraph" font-family="Liberation Sans, sans-serif" font-size="282px" font-weight="400"><tspan class="TextPosition" x="3511" y="24277"><tspan fill="rgb(0,0,0)" stroke="none">31.03</tspan></tspan></tspan></text>
 <text class="TextShape" transform="rotate(-90 3836 24277)"><tspan class="TextParagraph" font-family="Liberation Sans, sans-serif" font-size="282px" font-weight="400"><tspan class="TextPosition" x="3836" y="24277"><tspan fill="rgb(0,0,0)" stroke="none">03.04</tspan></tspan></tspan></text>
 <text class="TextShape" transform="rotate(-90 4161 24277)"><tspan class="TextParagraph" font-family="Liberation Sans, sans-serif" font-size="282px" font-weight="400"><tspan class="TextPosition" x="4161" y="24277"><tspan fill="rgb(0,0,0)" stroke="none">06.04</tspan></tspan></tspan></text>
 <text class="TextShape" transform="rotate(-90 4486 24277)"><tspan class="TextParagraph" font-family="Liberation Sans, sans-serif" font-size="282px" font-weight="400"><tspan class="TextPosition" x="4486" y="24277"><tspan fill="rgb(0,0,0)" stroke="none">09.04</tspan></tspan></tspan></text>
 <text class="TextShape" transform="rotate(-90 4811 24277)"><tspan class="TextParagraph" font-family="Liberation Sans, sans-serif" font-size="282px" font-weight="400"><tspan class="TextPosition" x="4811" y="24277"><tspan fill="rgb(0,0,0)" stroke="none">12.04</tspan></tspan></tspan></text>
 <text class="TextShape" transform="rotate(-90 5137 24277)"><tspan class="TextParagraph" font-family="Liberation Sans, sans-serif" font-size="282px" font-weight="400"><tspan class="TextPosition" x="5137" y="24277"><tspan fill="rgb(0,0,0)" stroke="none">15.04</tspan></tspan></tspan></text>
 <text class="TextShape" transform="rotate(-90 5462 24277)"><tspan class="TextParagraph" font-family="Liberation Sans, sans-serif" font-size="282px" font-weight="400"><tspan class="TextPosition" x="5462" y="24277"><tspan fill="rgb(0,0,0)" stroke="none">18.04</tspan></tspan></tspan></text>
 <text class="TextShape" transform="rotate(-90 5787 24277)"><tspan class="TextParagraph" font-family="Liberation Sans, sans-serif" font-size="282px" font-weight="400"><tspan class="TextPosition" x="5787" y="24277"><tspan fill="rgb(0,0,0)" stroke="none">21.04</tspan></tspan></tspan></text>
 <text class="TextShape" transform="rotate(-90 6112 24277)"><tspan class="TextParagraph" font-family="Liberation Sans, sans-serif" font-size="282px" font-weight="400"><tspan class="TextPosition" x="6112" y="24277"><tspan fill="rgb(0,0,0)" stroke="none">24.04</tspan></tspan></tspan></text>
 <text class="TextShape" transform="rotate(-90 6437 24277)"><tspan class="TextParagraph" font-family="Liberation Sans, sans-serif" font-size="282px" font-weight="400"><tspan class="TextPosition" x="6437" y="24277"><tspan fill="rgb(0,0,0)" stroke="none">27.04</tspan></tspan></tspan></text>
 <text class="TextShape" transform="rotate(-90 6762 24277)"><tspan class="TextParagraph" font-family="Liberation Sans, sans-serif" font-size="282px" font-weight="400"><tspan class="TextPosition" x="6762" y="24277"><tspan fill="rgb(0,0,0)" stroke="none">30.04</tspan></tspan></tspan></text>
 <text class="TextShape" transform="rotate(-90 7087 24277)"><tspan class="TextParagraph" font-family="Liberation Sans, sans-serif" font-size="282px" font-weight="400"><tspan class="TextPosition" x="7087" y="24277"><tspan fill="rgb(0,0,0)" stroke="none">03.05</tspan></tspan></tspan></text>
 <text class="TextShape" transform="rotate(-90 7412 24277)"><tspan class="TextParagraph" font-family="Liberation Sans, sans-serif" font-size="282px" font-weight="400"><tspan class="TextPosition" x="7412" y="24277"><tspan fill="rgb(0,0,0)" stroke="none">06.05</tspan></tspan></tspan></text>
 <text class="TextShape" transform="rotate(-90 7737 24277)"><tspan class="TextParagraph" font-family="Liberation Sans, sans-serif" font-size="282px" font-weight="400"><tspan class="TextPosition" x="7737" y="24277"><tspan fill="rgb(0,0,0)" stroke="none">09.05</tspan></tspan></tspan></text>
 <text class="TextShape" transform="rotate(-90 8062 24277)"><tspan class="TextParagraph" font-family="Liberation Sans, sans-serif" font-size="282px" font-weight="400"><tspan class="TextPosition" x="8062" y="24277"><tspan fill="rgb(0,0,0)" stroke="none">12.05</tspan></tspan></tspan></text>
 <text class="TextShape" transform="rotate(-90 8387 24277)"><tspan class="TextParagraph" font-family="Liberation Sans, sans-serif" font-size="282px" font-weight="400"><tspan class="TextPosition" x="8387" y="24277"><tspan fill="rgb(0,0,0)" stroke="none">15.05</tspan></tspan></tspan></text>
 <text class="TextShape" transform="rotate(-90 8712 24277)"><tspan class="TextParagraph" font-family="Liberation Sans, sans-serif" font-size="282px" font-weight="400"><tspan class="TextPosition" x="8712" y="24277"><tspan fill="rgb(0,0,0)" stroke="none">18.05</tspan></tspan></tspan></text>
 <text class="TextShape" transform="rotate(-90 9037 24277)"><tspan class="TextParagraph" font-family="Liberation Sans, sans-serif" font-size="282px" font-weight="400"><tspan class="TextPosition" x="9037" y="24277"><tspan fill="rgb(0,0,0)" stroke="none">21.05</tspan></tspan></tspan></text>
 <text class="TextShape" transform="rotate(-90 9362 24277)"><tspan class="TextParagraph" font-family="Liberation Sans, sans-serif" font-size="282px" font-weight="400"><tspan class="TextPosition" x="9362" y="24277"><tspan fill="rgb(0,0,0)" stroke="none">24.05</tspan></tspan></tspan></text>
 <text class="TextShape" transform="rotate(-90 9688 24277)"><tspan class="TextParagraph" font-family="Liberation Sans, sans-serif" font-size="282px" font-weight="400"><tspan class="TextPosition" x="9688" y="24277"><tspan fill="rgb(0,0,0)" stroke="none">27.05</tspan></tspan></tspan></text>
 <text class="TextShape" transform="rotate(-90 10013 24277)"><tspan class="TextParagraph" font-family="Liberation Sans, sans-serif" font-size="282px" font-weight="400"><tspan class="TextPosition" x="10013" y="24277"><tspan fill="rgb(0,0,0)" stroke="none">30.05</tspan></tspan></tspan></text>
 <text class="TextShape" transform="rotate(-90 10338 24277)"><tspan class="TextParagraph" font-family="Liberation Sans, sans-serif" font-size="282px" font-weight="400"><tspan class="TextPosition" x="10338" y="24277"><tspan fill="rgb(0,0,0)" stroke="none">02.06</tspan></tspan></tspan></text>
 <text class="TextShape" transform="rotate(-90 10663 24277)"><tspan class="TextParagraph" font-family="Liberation Sans, sans-serif" font-size="282px" font-weight="400"><tspan class="TextPosition" x="10663" y="24277"><tspan fill="rgb(0,0,0)" stroke="none">05.06</tspan></tspan></tspan></text>
 <text class="TextShape" transform="rotate(-90 10988 24277)"><tspan class="TextParagraph" font-family="Liberation Sans, sans-serif" font-size="282px" font-weight="400"><tspan class="TextPosition" x="10988" y="24277"><tspan fill="rgb(0,0,0)" stroke="none">08.06</tspan></tspan></tspan></text>
 <text class="TextShape" transform="rotate(-90 11313 24277)"><tspan class="TextParagraph" font-family="Liberation Sans, sans-serif" font-size="282px" font-weight="400"><tspan class="TextPosition" x="11313" y="24277"><tspan fill="rgb(0,0,0)" stroke="none">11.06</tspan></tspan></tspan></text>
 <text class="TextShape" transform="rotate(-90 11638 24277)"><tspan class="TextParagraph" font-family="Liberation Sans, sans-serif" font-size="282px" font-weight="400"><tspan class="TextPosition" x="11638" y="24277"><tspan fill="rgb(0,0,0)" stroke="none">14.06</tspan></tspan></tspan></text>
 <text class="TextShape" transform="rotate(-90 11962 24277)"><tspan class="TextParagraph" font-family="Liberation Sans, sans-serif" font-size="282px" font-weight="400"><tspan class="TextPosition" x="11962" y="24277"><tspan fill="rgb(0,0,0)" stroke="none">17.06</tspan></tspan></tspan></text>
 <text class="TextShape" transform="rotate(-90 12287 24277)"><tspan class="TextParagraph" font-family="Liberation Sans, sans-serif" font-size="282px" font-weight="400"><tspan class="TextPosition" x="12287" y="24277"><tspan fill="rgb(0,0,0)" stroke="none">20.06</tspan></tspan></tspan></text>
 <text class="TextShape" transform="rotate(-90 12612 24277)"><tspan class="TextParagraph" font-family="Liberation Sans, sans-serif" font-size="282px" font-weight="400"><tspan class="TextPosition" x="12612" y="24277"><tspan fill="rgb(0,0,0)" stroke="none">23.06</tspan></tspan></tspan></text>
 <text class="TextShape" transform="rotate(-90 12937 24277)"><tspan class="TextParagraph" font-family="Liberation Sans, sans-serif" font-size="282px" font-weight="400"><tspan class="TextPosition" x="12937" y="24277"><tspan fill="rgb(0,0,0)" stroke="none">26.06</tspan></tspan></tspan></text>
 <text class="TextShape" transform="rotate(-90 13262 24277)"><tspan class="TextParagraph" font-family="Liberation Sans, sans-serif" font-size="282px" font-weight="400"><tspan class="TextPosition" x="13262" y="24277"><tspan fill="rgb(0,0,0)" stroke="none">29.06</tspan></tspan></tspan></text>
 <text class="TextShape" transform="rotate(-90 13587 24277)"><tspan class="TextParagraph" font-family="Liberation Sans, sans-serif" font-size="282px" font-weight="400"><tspan class="TextPosition" x="13587" y="24277"><tspan fill="rgb(0,0,0)" stroke="none">02.07</tspan></tspan></tspan></text>
 <text class="TextShape" transform="rotate(-90 13913 24277)"><tspan class="TextParagraph" font-family="Liberation Sans, sans-serif" font-size="282px" font-weight="400"><tspan class="TextPosition" x="13913" y="24277"><tspan fill="rgb(0,0,0)" stroke="none">05.07</tspan></tspan></tspan></text>
 <text class="TextShape" transform="rotate(-90 14238 24277)"><tspan class="TextParagraph" font-family="Liberation Sans, sans-serif" font-size="282px" font-weight="400"><tspan class="TextPosition" x="14238" y="24277"><tspan fill="rgb(0,0,0)" stroke="none">08.07</tspan></tspan></tspan></text>
 <text class="TextShape" transform="rotate(-90 14563 24277)"><tspan class="TextParagraph" font-family="Liberation Sans, sans-serif" font-size="282px" font-weight="400"><tspan class="TextPosition" x="14563" y="24277"><tspan fill="rgb(0,0,0)" stroke="none">11.07</tspan></tspan></tspan></text>
 <text class="TextShape" transform="rotate(-90 14888 24277)"><tspan class="TextParagraph" font-family="Liberation Sans, sans-serif" font-size="282px" font-weight="400"><tspan class="TextPosition" x="14888" y="24277"><tspan fill="rgb(0,0,0)" stroke="none">14.07</tspan></tspan></tspan></text>
 <text class="TextShape" transform="rotate(-90 15213 24277)"><tspan class="TextParagraph" font-family="Liberation Sans, sans-serif" font-size="282px" font-weight="400"><tspan class="TextPosition" x="15213" y="24277"><tspan fill="rgb(0,0,0)" stroke="none">17.07</tspan></tspan></tspan></text>
 <text class="TextShape" transform="rotate(-90 15538 24277)"><tspan class="TextParagraph" font-family="Liberation Sans, sans-serif" font-size="282px" font-weight="400"><tspan class="TextPosition" x="15538" y="24277"><tspan fill="rgb(0,0,0)" stroke="none">20.07</tspan></tspan></tspan></text>
 <text class="TextShape" transform="rotate(-90 15863 24277)"><tspan class="TextParagraph" font-family="Liberation Sans, sans-serif" font-size="282px" font-weight="400"><tspan class="TextPosition" x="15863" y="24277"><tspan fill="rgb(0,0,0)" stroke="none">23.07</tspan></tspan></tspan></text>
 <text class="TextShape" transform="rotate(-90 16188 24277)"><tspan class="TextParagraph" font-family="Liberation Sans, sans-serif" font-size="282px" font-weight="400"><tspan class="TextPosition" x="16188" y="24277"><tspan fill="rgb(0,0,0)" stroke="none">26.07</tspan></tspan></tspan></text>
 <text class="TextShape" transform="rotate(-90 16513 24277)"><tspan class="TextParagraph" font-family="Liberation Sans, sans-serif" font-size="282px" font-weight="400"><tspan class="TextPosition" x="16513" y="24277"><tspan fill="rgb(0,0,0)" stroke="none">29.07</tspan></tspan></tspan></text>
 <text class="TextShape" transform="rotate(-90 16838 24277)"><tspan class="TextParagraph" font-family="Liberation Sans, sans-serif" font-size="282px" font-weight="400"><tspan class="TextPosition" x="16838" y="24277"><tspan fill="rgb(0,0,0)" stroke="none">01.08</tspan></tspan></tspan></text>
 <text class="TextShape" transform="rotate(-90 17163 24277)"><tspan class="TextParagraph" font-family="Liberation Sans, sans-serif" font-size="282px" font-weight="400"><tspan class="TextPosition" x="17163" y="24277"><tspan fill="rgb(0,0,0)" stroke="none">04.08</tspan></tspan></tspan></text>
 <text class="TextShape" transform="rotate(-90 17488 24277)"><tspan class="TextParagraph" font-family="Liberation Sans, sans-serif" font-size="282px" font-weight="400"><tspan class="TextPosition" x="17488" y="24277"><tspan fill="rgb(0,0,0)" stroke="none">07.08</tspan></tspan></tspan></text>
 <text class="TextShape" transform="rotate(-90 17813 24277)"><tspan class="TextParagraph" font-family="Liberation Sans, sans-serif" font-size="282px" font-weight="400"><tspan class="TextPosition" x="17813" y="24277"><tspan fill="rgb(0,0,0)" stroke="none">10.08</tspan></tspan></tspan></text>
 <text class="TextShape" transform="rotate(-90 18139 24277)"><tspan class="TextParagraph" font-family="Liberation Sans, sans-serif" font-size="282px" font-weight="400"><tspan class="TextPosition" x="18139" y="24277"><tspan fill="rgb(0,0,0)" stroke="none">13.08</tspan></tspan></tspan></text>
 <text class="TextShape" transform="rotate(-90 18464 24277)"><tspan class="TextParagraph" font-family="Liberation Sans, sans-serif" font-size="282px" font-weight="400"><tspan class="TextPosition" x="18464" y="24277"><tspan fill="rgb(0,0,0)" stroke="none">16.08</tspan></tspan></tspan></text>
 <text class="TextShape"><tspan class="TextParagraph" font-family="Liberation Sans, sans-serif" font-size="388px" font-weight="400"><tspan class="TextPosition" x="951" y="23477"><tspan fill="rgb(0,0,0)" stroke="none">0</tspan></tspan></tspan></text>
 <text class="TextShape"><tspan class="TextParagraph" font-family="Liberation Sans, sans-serif" font-size="388px" font-weight="400"><tspan class="TextPosition" x="528" y="21313"><tspan fill="rgb(0,0,0)" stroke="none">200</tspan></tspan></tspan></text>
 <text class="TextShape"><tspan class="TextParagraph" font-family="Liberation Sans, sans-serif" font-size="388px" font-weight="400"><tspan class="TextPosition" x="528" y="19149"><tspan fill="rgb(0,0,0)" stroke="none">400</tspan></tspan></tspan></text>
 <text class="TextShape"><tspan class="TextParagraph" font-family="Liberation Sans, sans-serif" font-size="388px" font-weight="400"><tspan class="TextPosition" x="528" y="16985"><tspan fill="rgb(0,0,0)" stroke="none">600</tspan></tspan></tspan></text>
 <text class="TextShape"><tspan class="TextParagraph" font-family="Liberation Sans, sans-serif" font-size="388px" font-weight="400"><tspan class="TextPosition" x="528" y="14821"><tspan fill="rgb(0,0,0)" stroke="none">800</tspan></tspan></tspan></text>
 <text class="TextShape"><tspan class="TextParagraph" font-family="Liberation Sans, sans-serif" font-size="388px" font-weight="400"><tspan class="TextPosition" x="316" y="12657"><tspan fill="rgb(0,0,0)" stroke="none">1000</tspan></tspan></tspan></text>
 <text class="TextShape"><tspan class="TextParagraph" font-family="Liberation Sans, sans-serif" font-size="388px" font-weight="400"><tspan class="TextPosition" x="316" y="10493"><tspan fill="rgb(0,0,0)" stroke="none">1200</tspan></tspan></tspan></text>
 <text class="TextShape"><tspan class="TextParagraph" font-family="Liberation Sans, sans-serif" font-size="388px" font-weight="400"><tspan class="TextPosition" x="316" y="8329"><tspan fill="rgb(0,0,0)" stroke="none">1400</tspan></tspan></tspan></text>
 <text class="TextShape"><tspan class="TextParagraph" font-family="Liberation Sans, sans-serif" font-size="388px" font-weight="400"><tspan class="TextPosition" x="316" y="6165"><tspan fill="rgb(0,0,0)" stroke="none">1600</tspan></tspan></tspan></text>
 <text class="TextShape"><tspan class="TextParagraph" font-family="Liberation Sans, sans-serif" font-size="388px" font-weight="400"><tspan class="TextPosition" x="316" y="4001"><tspan fill="rgb(0,0,0)" stroke="none">1800</tspan></tspan></tspan></text>
 <text class="TextShape"><tspan class="TextParagraph" font-family="Liberation Sans, sans-serif" font-size="388px" font-weight="400"><tspan class="TextPosition" x="316" y="1838"><tspan fill="rgb(0,0,0)" stroke="none">2000</tspan></tspan></tspan></text>
 <text class="TextShape"><tspan class="TextParagraph" font-family="Liberation Sans, sans-serif" font-size="494px" font-weight="700"><tspan class="TextPosition" x="866" y="990"><tspan fill="rgb(0,0,0)" stroke="none">Poet aktivnch ppad na milin obyvatel (mtko do 2000 na milin obyvatel)</tspan></tspan></tspan></text>
 <path fill="none" stroke="rgb(141,40,30)" stroke-width="80" stroke-linejoin="round" stroke-dasharray="80,40" d="M 18829,2641 L 20429,2641"/>
 <path fill="none" stroke="rgb(255,64,0)" stroke-width="80" stroke-linejoin="round" stroke-dasharray="80,40" d="M 18829,3900 L 20429,3900"/>
 <path fill="none" stroke="rgb(0,223,255)" stroke-width="80" stroke-linejoin="round" stroke-dasharray="158,102" d="M 18829,5159 L 20429,5159"/>
 <path fill="none" stroke="rgb(21,132,102)" stroke-width="80" stroke-linejoin="round" stroke-dasharray="80,203,80,203,203,203" d="M 18829,6418 L 20429,6418"/>
 <path fill="none" stroke="rgb(191,0,65)" stroke-width="80" stroke-linejoin="round" stroke-dasharray="51,127,51,127,254,127,254,127,254,127" d="M 18829,7677 L 20429,7677"/>
 <path fill="none" stroke="rgb(128,0,128)" stroke-width="80" stroke-linejoin="round" stroke-dasharray="158,158" d="M 18829,8936 L 20429,8936"/>
 <path fill="none" stroke="rgb(255,211,32)" stroke-width="80" stroke-linejoin="round" d="M 18829,10195 L 20429,10195"/>
 <path fill="none" stroke="rgb(0,255,0)" stroke-width="80" stroke-linejoin="round" d="M 18829,11454 L 20429,11454"/>
 <path fill="none" stroke="rgb(0,169,51)" stroke-width="80" stroke-linejoin="round" stroke-dasharray="80,40" d="M 18829,12712 L 20429,12712"/>
 <path fill="none" stroke="rgb(180,120,4)" stroke-width="80" stroke-linejoin="round" d="M 18829,13971 L 20429,13971"/>
 <path fill="none" stroke="rgb(0,169,51)" stroke-width="80" stroke-linejoin="round" stroke-dasharray="158,102" d="M 18829,15230 L 20429,15230"/>
 <path fill="none" stroke="rgb(0,127,255)" stroke-width="80" stroke-linejoin="round" d="M 18829,16489 L 20429,16489"/>
 <path fill="none" stroke="rgb(0,169,51)" stroke-width="80" stroke-linejoin="round" d="M 18829,17748 L 20429,17748"/>
 <path fill="none" stroke="rgb(0,0,0)" stroke-width="80" stroke-linejoin="round" d="M 18829,19007 L 20429,19007"/>
 <path fill="none" stroke="rgb(255,0,0)" stroke-width="80" stroke-linejoin="round" stroke-dasharray="158,102" d="M 18829,20266 L 20429,20266"/>
 <path fill="none" stroke="rgb(85,48,141)" stroke-width="80" stroke-linejoin="round" stroke-dasharray="80,40" d="M 18829,21525 L 20429,21525"/>
 <path fill="none" stroke="rgb(0,0,255)" stroke-width="80" stroke-linejoin="round" stroke-dasharray="158,158" d="M 18829,22784 L 20429,22784"/>
 <text class="TextShape"><tspan class="TextParagraph" font-family="Liberation Sans, sans-serif" font-size="423px" font-weight="400"><tspan class="TextPosition" x="20529" y="2789"><tspan fill="rgb(0,0,0)" stroke="none">USA</tspan></tspan></tspan></text>
 <text class="TextShape"><tspan class="TextParagraph" font-family="Liberation Sans, sans-serif" font-size="423px" font-weight="400"><tspan class="TextPosition" x="20529" y="4048"><tspan fill="rgb(0,0,0)" stroke="none">Brazlie</tspan></tspan></tspan></text>
 <text class="TextShape"><tspan class="TextParagraph" font-family="Liberation Sans, sans-serif" font-size="423px" font-weight="400"><tspan class="TextPosition" x="20529" y="5307"><tspan fill="rgb(0,0,0)" stroke="none">Rusko</tspan></tspan></tspan></text>
 <text class="TextShape"><tspan class="TextParagraph" font-family="Liberation Sans, sans-serif" font-size="423px" font-weight="400"><tspan class="TextPosition" x="20529" y="6566"><tspan fill="rgb(0,0,0)" stroke="none">celosvtov</tspan></tspan></tspan></text>
 <text class="TextShape"><tspan class="TextParagraph" font-family="Liberation Sans, sans-serif" font-size="423px" font-weight="400"><tspan class="TextPosition" x="20529" y="7825"><tspan fill="rgb(0,0,0)" stroke="none">EU_nov zem</tspan></tspan></tspan></text>
 <text class="TextShape"><tspan class="TextParagraph" font-family="Liberation Sans, sans-serif" font-size="423px" font-weight="400"><tspan class="TextPosition" x="20529" y="9084"><tspan fill="rgb(0,0,0)" stroke="none">Indie</tspan></tspan></tspan></text>
 <text class="TextShape"><tspan class="TextParagraph" font-family="Liberation Sans, sans-serif" font-size="423px" font-weight="400"><tspan class="TextPosition" x="20529" y="10343"><tspan fill="rgb(0,0,0)" stroke="none">esko</tspan></tspan></tspan></text>
 <text class="TextShape"><tspan class="TextParagraph" font-family="Liberation Sans, sans-serif" font-size="423px" font-weight="400"><tspan class="TextPosition" x="20529" y="11602"><tspan fill="rgb(0,0,0)" stroke="none">vcarsko</tspan></tspan></tspan></text>
 <text class="TextShape"><tspan class="TextParagraph" font-family="Liberation Sans, sans-serif" font-size="423px" font-weight="400"><tspan class="TextPosition" x="20529" y="12860"><tspan fill="rgb(0,0,0)" stroke="none">Mexiko</tspan></tspan></tspan></text>
 <text class="TextShape"><tspan class="TextParagraph" font-family="Liberation Sans, sans-serif" font-size="423px" font-weight="400"><tspan class="TextPosition" x="20529" y="14119"><tspan fill="rgb(0,0,0)" stroke="none">Dnsko</tspan></tspan></tspan></text>
 <text class="TextShape"><tspan class="TextParagraph" font-family="Liberation Sans, sans-serif" font-size="423px" font-weight="400"><tspan class="TextPosition" x="20529" y="15378"><tspan fill="rgb(0,0,0)" stroke="none">rn</tspan></tspan></tspan></text>
 <text class="TextShape"><tspan class="TextParagraph" font-family="Liberation Sans, sans-serif" font-size="423px" font-weight="400"><tspan class="TextPosition" x="20529" y="16637"><tspan fill="rgb(0,0,0)" stroke="none">Itlie</tspan></tspan></tspan></text>
 <text class="TextShape"><tspan class="TextParagraph" font-family="Liberation Sans, sans-serif" font-size="423px" font-weight="400"><tspan class="TextPosition" x="20529" y="17896"><tspan fill="rgb(0,0,0)" stroke="none">Rakousko</tspan></tspan></tspan></text>
 <text class="TextShape"><tspan class="TextParagraph" font-family="Liberation Sans, sans-serif" font-size="423px" font-weight="400"><tspan class="TextPosition" x="20529" y="19155"><tspan fill="rgb(0,0,0)" stroke="none">Nmecko</tspan></tspan></tspan></text>
 <text class="TextShape"><tspan class="TextParagraph" font-family="Liberation Sans, sans-serif" font-size="423px" font-weight="400"><tspan class="TextPosition" x="20529" y="20414"><tspan fill="rgb(0,0,0)" stroke="none">Turecko</tspan></tspan></tspan></text>
 <text class="TextShape"><tspan class="TextParagraph" font-family="Liberation Sans, sans-serif" font-size="423px" font-weight="400"><tspan class="TextPosition" x="20529" y="21673"><tspan fill="rgb(0,0,0)" stroke="none">Kanada</tspan></tspan></tspan></text>
 <text class="TextShape"><tspan class="TextParagraph" font-family="Liberation Sans, sans-serif" font-size="423px" font-weight="400"><tspan class="TextPosition" x="20529" y="22932"><tspan fill="rgb(0,0,0)" stroke="none">Jin Korea</tspan></tspan></tspan></text>
</svg>