<?xml version="1.0" encoding="UTF-8"?>
<!DOCTYPE svg PUBLIC "-//W3C//DTD SVG 1.1//EN" "http://www.w3.org/Graphics/SVG/1.1/DTD/svg11.dtd">
<svg width="236mm" height="250mm" viewBox="0 0 23600 25000" version="1.1" xmlns="http://www.w3.org/2000/svg" xmlns:xlink="http://www.w3.org/1999/xlink" stroke-width="28.222" stroke-linejoin="round" xml:space="preserve">
 <path fill="rgb(255,255,255)" stroke="none" d="M 11800,25000 L 0,25000 0,0 23600,0 23600,25000 11800,25000 Z"/>
 <path fill="none" stroke="rgb(179,179,179)" stroke-linejoin="round" d="M 10027,23350 L 1413,23350 1413,1712 18641,1712 18641,23350 10027,23350 Z"/>
 <path fill="none" stroke="rgb(179,179,179)" stroke-linejoin="round" d="M 18640,23349 L 1412,23349"/>
 <path fill="none" stroke="rgb(179,179,179)" stroke-linejoin="round" d="M 18640,19742 L 1412,19742"/>
 <path fill="none" stroke="rgb(179,179,179)" stroke-linejoin="round" d="M 18640,16136 L 1412,16136"/>
 <path fill="none" stroke="rgb(179,179,179)" stroke-linejoin="round" d="M 18640,12529 L 1412,12529"/>
 <path fill="none" stroke="rgb(179,179,179)" stroke-linejoin="round" d="M 18640,8924 L 1412,8924"/>
 <path fill="none" stroke="rgb(179,179,179)" stroke-linejoin="round" d="M 18640,5317 L 1412,5317"/>
 <path fill="none" stroke="rgb(179,179,179)" stroke-linejoin="round" d="M 18640,1711 L 1412,1711"/>
 <path fill="none" stroke="rgb(179,179,179)" stroke-linejoin="round" d="M 1412,23499 L 1412,23349"/>
 <path fill="none" stroke="rgb(179,179,179)" stroke-linejoin="round" d="M 1412,23499 L 1412,23349"/>
 <path fill="none" stroke="rgb(179,179,179)" stroke-linejoin="round" d="M 2227,23499 L 2227,23349"/>
 <path fill="none" stroke="rgb(179,179,179)" stroke-linejoin="round" d="M 2227,23499 L 2227,23349"/>
 <path fill="none" stroke="rgb(179,179,179)" stroke-linejoin="round" d="M 3042,23499 L 3042,23349"/>
 <path fill="none" stroke="rgb(179,179,179)" stroke-linejoin="round" d="M 3042,23499 L 3042,23349"/>
 <path fill="none" stroke="rgb(179,179,179)" stroke-linejoin="round" d="M 3857,23499 L 3857,23349"/>
 <path fill="none" stroke="rgb(179,179,179)" stroke-linejoin="round" d="M 3857,23499 L 3857,23349"/>
 <path fill="none" stroke="rgb(179,179,179)" stroke-linejoin="round" d="M 4672,23499 L 4672,23349"/>
 <path fill="none" stroke="rgb(179,179,179)" stroke-linejoin="round" d="M 4672,23499 L 4672,23349"/>
 <path fill="none" stroke="rgb(179,179,179)" stroke-linejoin="round" d="M 5487,23499 L 5487,23349"/>
 <path fill="none" stroke="rgb(179,179,179)" stroke-linejoin="round" d="M 5487,23499 L 5487,23349"/>
 <path fill="none" stroke="rgb(179,179,179)" stroke-linejoin="round" d="M 6302,23499 L 6302,23349"/>
 <path fill="none" stroke="rgb(179,179,179)" stroke-linejoin="round" d="M 6302,23499 L 6302,23349"/>
 <path fill="none" stroke="rgb(179,179,179)" stroke-linejoin="round" d="M 7117,23499 L 7117,23349"/>
 <path fill="none" stroke="rgb(179,179,179)" stroke-linejoin="round" d="M 7117,23499 L 7117,23349"/>
 <path fill="none" stroke="rgb(179,179,179)" stroke-linejoin="round" d="M 7932,23499 L 7932,23349"/>
 <path fill="none" stroke="rgb(179,179,179)" stroke-linejoin="round" d="M 7932,23499 L 7932,23349"/>
 <path fill="none" stroke="rgb(179,179,179)" stroke-linejoin="round" d="M 8746,23499 L 8746,23349"/>
 <path fill="none" stroke="rgb(179,179,179)" stroke-linejoin="round" d="M 8746,23499 L 8746,23349"/>
 <path fill="none" stroke="rgb(179,179,179)" stroke-linejoin="round" d="M 9561,23499 L 9561,23349"/>
 <path fill="none" stroke="rgb(179,179,179)" stroke-linejoin="round" d="M 9561,23499 L 9561,23349"/>
 <path fill="none" stroke="rgb(179,179,179)" stroke-linejoin="round" d="M 10376,23499 L 10376,23349"/>
 <path fill="none" stroke="rgb(179,179,179)" stroke-linejoin="round" d="M 10376,23499 L 10376,23349"/>
 <path fill="none" stroke="rgb(179,179,179)" stroke-linejoin="round" d="M 11191,23499 L 11191,23349"/>
 <path fill="none" stroke="rgb(179,179,179)" stroke-linejoin="round" d="M 11191,23499 L 11191,23349"/>
 <path fill="none" stroke="rgb(179,179,179)" stroke-linejoin="round" d="M 12005,23499 L 12005,23349"/>
 <path fill="none" stroke="rgb(179,179,179)" stroke-linejoin="round" d="M 12005,23499 L 12005,23349"/>
 <path fill="none" stroke="rgb(179,179,179)" stroke-linejoin="round" d="M 12820,23499 L 12820,23349"/>
 <path fill="none" stroke="rgb(179,179,179)" stroke-linejoin="round" d="M 12820,23499 L 12820,23349"/>
 <path fill="none" stroke="rgb(179,179,179)" stroke-linejoin="round" d="M 13635,23499 L 13635,23349"/>
 <path fill="none" stroke="rgb(179,179,179)" stroke-linejoin="round" d="M 13635,23499 L 13635,23349"/>
 <path fill="none" stroke="rgb(179,179,179)" stroke-linejoin="round" d="M 14450,23499 L 14450,23349"/>
 <path fill="none" stroke="rgb(179,179,179)" stroke-linejoin="round" d="M 14450,23499 L 14450,23349"/>
 <path fill="none" stroke="rgb(179,179,179)" stroke-linejoin="round" d="M 15265,23499 L 15265,23349"/>
 <path fill="none" stroke="rgb(179,179,179)" stroke-linejoin="round" d="M 15265,23499 L 15265,23349"/>
 <path fill="none" stroke="rgb(179,179,179)" stroke-linejoin="round" d="M 16079,23499 L 16079,23349"/>
 <path fill="none" stroke="rgb(179,179,179)" stroke-linejoin="round" d="M 16079,23499 L 16079,23349"/>
 <path fill="none" stroke="rgb(179,179,179)" stroke-linejoin="round" d="M 16894,23499 L 16894,23349"/>
 <path fill="none" stroke="rgb(179,179,179)" stroke-linejoin="round" d="M 16894,23499 L 16894,23349"/>
 <path fill="none" stroke="rgb(179,179,179)" stroke-linejoin="round" d="M 17709,23499 L 17709,23349"/>
 <path fill="none" stroke="rgb(179,179,179)" stroke-linejoin="round" d="M 17709,23499 L 17709,23349"/>
 <path fill="none" stroke="rgb(179,179,179)" stroke-linejoin="round" d="M 18524,23499 L 18524,23349"/>
 <path fill="none" stroke="rgb(179,179,179)" stroke-linejoin="round" d="M 18524,23499 L 18524,23349"/>
 <path fill="none" stroke="rgb(179,179,179)" stroke-linejoin="round" d="M 1412,23349 L 18640,23349"/>
 <path fill="none" stroke="rgb(179,179,179)" stroke-linejoin="round" d="M 1262,23349 L 1412,23349"/>
 <path fill="none" stroke="rgb(179,179,179)" stroke-linejoin="round" d="M 1262,23349 L 1412,23349"/>
 <path fill="none" stroke="rgb(179,179,179)" stroke-linejoin="round" d="M 1262,19742 L 1412,19742"/>
 <path fill="none" stroke="rgb(179,179,179)" stroke-linejoin="round" d="M 1262,19742 L 1412,19742"/>
 <path fill="none" stroke="rgb(179,179,179)" stroke-linejoin="round" d="M 1262,16136 L 1412,16136"/>
 <path fill="none" stroke="rgb(179,179,179)" stroke-linejoin="round" d="M 1262,16136 L 1412,16136"/>
 <path fill="none" stroke="rgb(179,179,179)" stroke-linejoin="round" d="M 1262,12529 L 1412,12529"/>
 <path fill="none" stroke="rgb(179,179,179)" stroke-linejoin="round" d="M 1262,12529 L 1412,12529"/>
 <path fill="none" stroke="rgb(179,179,179)" stroke-linejoin="round" d="M 1262,8924 L 1412,8924"/>
 <path fill="none" stroke="rgb(179,179,179)" stroke-linejoin="round" d="M 1262,8924 L 1412,8924"/>
 <path fill="none" stroke="rgb(179,179,179)" stroke-linejoin="round" d="M 1262,5317 L 1412,5317"/>
 <path fill="none" stroke="rgb(179,179,179)" stroke-linejoin="round" d="M 1262,5317 L 1412,5317"/>
 <path fill="none" stroke="rgb(179,179,179)" stroke-linejoin="round" d="M 1262,1711 L 1412,1711"/>
 <path fill="none" stroke="rgb(179,179,179)" stroke-linejoin="round" d="M 1262,1711 L 1412,1711"/>
 <path fill="none" stroke="rgb(179,179,179)" stroke-linejoin="round" d="M 1412,23349 L 1412,1711"/>
 <path fill="none" stroke="rgb(141,40,30)" stroke-width="80" stroke-linejoin="round" stroke-dasharray="80,40" d="M 1471,23337 L 1587,23333 1704,23333 1820,23325 1936,23316 2053,23302 2169,23273 2286,23245 2402,23211 2518,23169 2635,23115 2751,23061 2868,22998 2984,22904 3100,22809 3217,22706 3333,22614 3450,22517 3566,22390 3683,22266 3799,22112 3915,21949 4032,21802 4148,21674 4265,21534 4381,21391 4497,21240 4614,21072 4730,20920 4847,20781 4963,20645 5079,20575 5196,20464 5312,20344 5429,20199 5545,20056 5662,19950 5778,19845 5894,19717 6011,19606 6127,19478 6244,19321 6360,19238 6476,19075 6593,18967 6709,18877 6826,18780 6942,18670 7058,18702 7175,18581 7291,18493 7408,18386 7524,18309 7641,18204 7757,18080 7873,17967 7990,17850 8106,17791 8223,17708 8339,17701 8455,17576 8572,17543 8688,17419 8805,17313 8921,17279 9037,17201 9154,17146 9270,17077 9387,16983 9503,16874 9620,17031 9736,16979 9852,16899 9969,16866 10085,16798 10202,16743 10318,16671 10434,16579 10551,16506 10667,16555 10784,16538 10900,16460 11017,16441 11133,16361 11249,16266 11366,16195 11482,16131 11599,16106 11715,16046 11830,15985 11947,15902 12063,15807 12180,15722 12296,15644 12412,15619 12529,15533 12645,15445 12762,15335 12878,15209 12995,15092 13111,14975 13227,14910 13344,14762 13460,14623 13577,14449 13693,14246 13809,14062 13926,13880 14042,13768 14159,13607 14275,13383 14391,13374 14508,13133 14624,13450 14741,13248 14857,13100 14974,12847 15090,12624 15206,12372 15323,12084 15439,11827 15556,11566 15672,11385 15788,11117 15905,10901 16021,10566 16138,10271 16254,10014 16370,9725 16487,9551 16603,9325 16720,9102 16836,8856 16953,8615 17069,8355 17185,8159 17302,8010 17418,7819 17535,7627 17651,7398 17767,7170 17884,6987 18000,6767 18117,6766 18233,6545 18349,6531 18466,6326 18582,6153"/>
 <path fill="none" stroke="rgb(255,64,0)" stroke-width="80" stroke-linejoin="round" stroke-dasharray="80,40" d="M 1471,23347 L 1587,23347 1704,23347 1820,23347 1936,23346 2053,23345 2169,23343 2286,23342 2402,23340 2518,23336 2635,23332 2751,23330 2868,23327 2984,23324 3100,23320 3217,23316 3333,23314 3450,23312 3566,23303 3683,23294 3799,23284 3915,23276 4032,23265 4148,23259 4265,23251 4381,23236 4497,23219 4614,23204 4730,23192 4847,23184 4963,23172 5079,23162 5196,23173 5312,23242 5429,23226 5545,23200 5662,23176 5778,23229 5894,23212 6011,23201 6127,23200 6244,23178 6360,23156 6476,23127 6593,23105 6709,23079 6826,23046 6942,23009 7058,22964 7175,22943 7291,22929 7408,22909 7524,22878 7641,22845 7757,22783 7873,22744 7990,22690 8106,22638 8223,22613 8339,22580 8455,22558 8572,22513 8688,22417 8805,22327 8921,22261 9037,22238 9154,22177 9270,22100 9387,22024 9503,21956 9620,21868 9736,21797 9852,21730 9969,21671 10085,21582 10202,21485 10318,21363 10434,21245 10551,21068 10667,20980 10784,20926 10900,20797 11017,20693 11133,20582 11249,20430 11366,20295 11482,20196 11599,20870 11715,20765 11830,20642 11947,20531 12063,20447 12180,20392 12296,20334 12412,20237 12529,20056 12645,20057 12762,19989 12878,19679 12995,19607 13111,19574 13227,19499 13344,19399 13460,19322 13577,19159 13693,18963 13809,18859 13926,18761 14042,18662 14159,18645 14275,18506 14391,19297 14508,19178 14624,18918 14741,19027 14857,19145 14974,19148 15090,19059 15206,18976 15323,18993 15439,18898 15556,18869 15672,18927 15788,18856 15905,18754 16021,18782 16138,18765 16254,18691 16370,18597 16487,18899 16603,18911 16720,18656 16836,18399 16953,18553 17069,18912 17185,18942 17302,19036 17418,18885 17535,18771 17651,18578 17767,18585 17884,18456 18000,18453 18117,18623 18233,18692 18349,18498 18466,18398 18582,18336"/>
 <path fill="none" stroke="rgb(21,132,102)" stroke-width="80" stroke-linejoin="round" stroke-dasharray="80,203,80,203,203,203" d="M 1471,23332 L 1587,23330 1704,23328 1820,23326 1936,23323 2053,23319 2169,23313 2286,23307 2402,23301 2518,23295 2635,23286 2751,23279 2868,23270 2984,23258 3100,23246 3217,23233 3333,23222 3450,23212 3566,23198 3683,23185 3799,23172 3915,23158 4032,23145 4148,23133 4265,23121 4381,23111 4497,23099 4614,23087 4730,23073 4847,23063 4963,23047 5079,23038 5196,23029 5312,23021 5429,23007 5545,22995 5662,22985 5778,22975 5894,22964 6011,22957 6127,22948 6244,22935 6360,22928 6476,22916 6593,22907 6709,22898 6826,22890 6942,22884 7058,22881 7175,22871 7291,22863 7408,22853 7524,22844 7641,22835 7757,22827 7873,22816 7990,22805 8106,22799 8223,22790 8339,22784 8455,22774 8572,22769 8688,22757 8805,22747 8921,22739 9037,22731 9154,22723 9270,22714 9387,22705 9503,22693 9620,22695 9736,22684 9852,22676 9969,22671 10085,22663 10202,22655 10318,22644 10434,22635 10551,22620 10667,22614 10784,22605 10900,22602 11017,22594 11133,22582 11249,22569 11366,22555 11482,22543 11599,22555 11715,22546 11830,22535 11947,22524 12063,22513 12180,22503 12296,22489 12412,22481 12529,22472 12645,22468 12762,22456 12878,22437 12995,22429 13111,22416 13227,22406 13344,22393 13460,22381 13577,22363 13693,22344 13809,22329 13926,22313 14042,22299 14159,22287 14275,22264 14391,22283 14508,22263 14624,22264 14741,22251 14857,22241 14974,22228 15090,22216 15206,22196 15323,22176 15439,22156 15556,22138 15672,22127 15788,22110 15905,22094 16021,22072 16138,22060 16254,22042 16370,22013 16487,22003 16603,21991 16720,21968 16836,21945 16953,21934 17069,21927 17185,21911 17302,21899 17418,21882 17535,21864 17651,21852 17767,21832 17884,21818 18000,21797 18117,21803 18233,21796 18349,21786 18466,21766 18582,21747"/>
 <path fill="none" stroke="rgb(255,211,32)" stroke-width="80" stroke-linejoin="round" d="M 1471,23325 L 1587,23317 1704,23306 1820,23299 1936,23282 2053,23271 2169,23232 2286,23209 2402,23182 2518,23161 2635,23142 2751,23116 2868,23073 2984,23028 3100,22968 3217,22909 3333,22879 3450,22851 3566,22804 3683,22775 3799,22718 3915,22681 4032,22619 4148,22604 4265,22570 4381,22547 4497,22510 4614,22480 4730,22462 4847,22458 4963,22441 5079,22440 5196,22455 5312,22468 5429,22457 5545,22473 5662,22473 5778,22462 5894,22482 6011,22493 6127,22518 6244,22536 6360,22559 6476,22560 6593,22567 6709,22608 6826,22620 6942,22634 7058,22653 7175,22654 7291,22667 7408,22684 7524,22715 7641,22737 7757,22758 7873,22778 7990,22778 8106,22781 8223,22781 8339,22813 8455,22835 8572,22855 8688,22874 8805,22889 8921,22888 9037,22891 9154,22903 9270,22907 9387,22913 9503,22924 9620,22932 9736,22922 9852,22917 9969,22927 10085,22934 10202,22945 10318,22951 10434,22948 10551,22950 10667,22946 10784,22955 10900,22952 11017,22950 11133,22951 11249,22958 11366,22952 11482,22943 11599,22949 11715,22949 11830,22947 11947,22951 12063,22945 12180,22937 12296,22933 12412,22938 12529,22941 12645,22939 12762,22927 12878,22911 12995,22905 13111,22900 13227,22902 13344,22884 13460,22869 13577,22864 13693,22840 13809,22798 13926,22751 14042,22724 14159,22703 14275,22692 14391,22674 14508,22655 14624,22635 14741,22624 14857,22617 14974,22604 15090,22599 15206,22601 15323,22601 15439,22585 15556,22578 15672,22589 15788,22583 15905,22572 16021,22571 16138,22564 16254,22546 16370,22536 16487,22523 16603,22499 16720,22496 16836,22489 16953,22458 17069,22464 17185,22755 17302,22723 17418,22675 17535,22626 17651,22589 17767,22570 17884,22552 18000,22538 18117,22521 18233,22491 18349,22468 18466,22503 18582,22520"/>
 <path fill="none" stroke="rgb(191,0,65)" stroke-width="80" stroke-linejoin="round" stroke-dasharray="51,127,51,127,254,127,254,127,254,127" d="M 1471,23337 L 1587,23332 1704,23329 1820,23325 1936,23319 2053,23314 2169,23306 2286,23298 2402,23287 2518,23279 2635,23267 2751,23255 2868,23241 2984,23225 3100,23206 3217,23187 3333,23168 3450,23153 3566,23136 3683,23119 3799,23098 3915,23072 4032,23051 4148,23033 4265,23020 4381,23000 4497,22981 4614,22963 4730,22945 4847,22927 4963,22916 5079,22907 5196,22901 5312,22895 5429,22881 5545,22871 5662,22861 5778,22848 5894,22845 6011,22841 6127,22838 6244,22831 6360,22833 6476,22830 6593,22823 6709,22822 6826,22825 6942,22825 7058,22834 7175,22835 7291,22838 7408,22836 7524,22838 7641,22837 7757,22845 7873,22849 7990,22859 8106,22864 8223,22861 8339,22861 8455,22868 8572,22875 8688,22895 8805,22899 8921,22900 9037,22904 9154,22918 9270,22920 9387,22919 9503,22928 9620,22930 9736,22935 9852,22932 9969,22931 10085,22942 10202,22945 10318,22955 10434,22954 10551,22957 10667,22960 10784,22958 10900,22960 11017,22964 11133,22962 11249,22962 11366,22959 11482,22952 11599,22946 11715,22942 11830,22941 11947,22938 12063,22932 12180,22927 12296,22919 12412,22914 12529,22913 12645,22905 12762,22903 12878,22902 12995,22900 13111,22901 13227,22901 13344,22900 13460,22900 13577,22902 13693,22903 13809,22903 13926,22904 14042,22899 14159,22894 14275,22892 14391,22882 14508,22877 14624,22872 14741,22872 14857,22869 14974,22864 15090,22863 15206,22855 15323,22849 15439,22840 15556,22836 15672,22835 15788,22824 15905,22823 16021,22811 16138,22800 16254,22785 16370,22771 16487,22760 16603,22768 16720,22750 16836,22735 16953,22721 17069,22696 17185,22708 17302,22687 17418,22663 17535,22635 17651,22605 17767,22580 17884,22556 18000,22535 18117,22516 18233,22489 18349,22465 18466,22446 18582,22422"/>
 <path fill="none" stroke="rgb(128,0,128)" stroke-width="80" stroke-linejoin="round" stroke-dasharray="158,158" d="M 1471,23348 L 1587,23348 1704,23348 1820,23348 1936,23348 2053,23348 2169,23348 2286,23348 2402,23348 2518,23348 2635,23348 2751,23348 2868,23348 2984,23348 3100,23347 3217,23347 3333,23347 3450,23347 3566,23347 3683,23346 3799,23346 3915,23345 4032,23345 4148,23344 4265,23343 4381,23342 4497,23342 4614,23341 4730,23340 4847,23339 4963,23338 5079,23337 5196,23336 5312,23335 5429,23334 5545,23333 5662,23332 5778,23330 5894,23329 6011,23328 6127,23327 6244,23326 6360,23325 6476,23323 6593,23322 6709,23321 6826,23319 6942,23318 7058,23316 7175,23314 7291,23312 7408,23310 7524,23307 7641,23305 7757,23302 7873,23299 7990,23296 8106,23294 8223,23291 8339,23288 8455,23286 8572,23284 8688,23281 8805,23280 8921,23279 9037,23275 9154,23273 9270,23269 9387,23266 9503,23262 9620,23258 9736,23253 9852,23248 9969,23244 10085,23241 10202,23236 10318,23231 10434,23236 10551,23231 10667,23227 10784,23222 10900,23216 11017,23209 11133,23202 11249,23197 11366,23190 11482,23183 11599,23179 11715,23174 11830,23161 11947,23163 12063,23158 12180,23153 12296,23148 12412,23148 12529,23146 12645,23139 12762,23135 12878,23129 12995,23127 13111,23121 13227,23116 13344,23109 13460,23105 13577,23101 13693,23091 13809,23083 13926,23074 14042,23067 14159,23061 14275,23052 14391,23051 14508,23041 14624,23029 14741,23018 14857,23009 14974,23002 15090,22996 15206,22987 15323,22978 15439,22967 15556,22954 15672,22941 15788,22931 15905,22916 16021,22901 16138,22879 16254,22860 16370,22838 16487,22822 16603,22811 16720,22791 16836,22773 16953,22752 17069,22737 17185,22714 17302,22701 17418,22683 17535,22660 17651,22638 17767,22610 17884,22607 18000,22591 18117,22582 18233,22582 18349,22570 18466,22555 18582,22540"/>
 <path fill="none" stroke="rgb(0,169,51)" stroke-width="80" stroke-linejoin="round" stroke-dasharray="80,40" d="M 1471,23348 L 1587,23348 1704,23348 1820,23347 1936,23347 2053,23347 2169,23346 2286,23346 2402,23345 2518,23344 2635,23343 2751,23343 2868,23342 2984,23340 3100,23339 3217,23337 3333,23335 3450,23334 3566,23332 3683,23330 3799,23329 3915,23335 4032,23332 4148,23329 4265,23325 4381,23320 4497,23315 4614,23312 4730,23307 4847,23302 4963,23312 5079,23309 5196,23306 5312,23303 5429,23297 5545,23290 5662,23282 5778,23279 5894,23273 6011,23264 6127,23251 6244,23237 6360,23222 6476,23273 6593,23279 6709,23278 6826,23296 6942,23284 7058,23265 7175,23259 7291,23242 7408,23238 7524,23220 7641,23255 7757,23249 7873,23224 7990,23236 8106,23233 8223,23212 8339,23213 8455,23230 8572,23223 8688,23214 8805,23211 8921,23205 9037,23199 9154,23196 9270,23190 9387,23179 9503,23168 9620,23162 9736,23149 9852,23149 9969,23152 10085,23143 10202,23130 10318,23120 10434,23122 10551,23118 10667,23111 10784,23120 10900,23112 11017,23113 11133,23091 11249,23083 11366,23079 11482,23074 11599,23091 11715,23084 11830,23070 11947,23057 12063,23043 12180,23044 12296,23035 12412,23063 12529,23053 12645,23038 12762,23019 12878,23018 12995,23019 13111,23010 13227,23025 13344,23007 13460,23012 13577,22991 13693,22988 13809,22989 13926,22991 14042,23021 14159,23016 14275,23003 14391,22991 14508,22984 14624,22984 14741,22981 14857,22988 14974,22977 15090,22958 15206,22941 15323,22934 15439,22919 15556,22931 15672,22945 15788,22938 15905,22952 16021,22946 16138,22946 16254,22946 16370,22648 16487,22694 16603,22671 16720,22636 16836,22602 16953,22618 17069,22609 17185,22627 17302,22682 17418,22654 17535,22669 17651,22648 17767,22638 17884,22623 18000,22666 18117,22756 18233,22738 18349,22724 18466,22693 18582,22677"/>
 <path fill="none" stroke="rgb(0,255,0)" stroke-width="80" stroke-linejoin="round" d="M 1471,23114 L 1587,23069 1704,22894 1820,22894 1936,22792 2053,22727 2169,22511 2286,22260 2402,21997 2518,21839 2635,21568 2751,21343 2868,21137 2984,20955 3100,21022 3217,20789 3333,20654 3450,20486 3566,20359 3683,20366 3799,20374 3915,20396 4032,20552 4148,20438 4265,20674 4381,20697 4497,20726 4614,20743 4730,20755 4847,20854 4963,20930 5079,21088 5196,21044 5312,21328 5429,21358 5545,21400 5662,21487 5778,21568 5894,21699 6011,21851 6127,21919 6244,22026 6360,22080 6476,22099 6593,22171 6709,22244 6826,22314 6942,22288 7058,22422 7175,22504 7291,22545 7408,22589 7524,22724 7641,22762 7757,22816 7873,22845 7990,22873 8106,22927 8223,22958 8339,22995 8455,22992 8572,23048 8688,23038 8805,23028 8921,23079 9037,23097 9154,23117 9270,23135 9387,23147 9503,23162 9620,23160 9736,23178 9852,23196 9969,23217 10085,23214 10202,23232 10318,23228 10434,23222 10551,23239 10667,23256 10784,23255 10900,23254 11017,23271 11133,23267 11249,23262 11366,23279 11482,23277 11599,23276 11715,23275 11830,23270 11947,23285 12063,23281 12180,23274 12296,23270 12412,23288 12529,23286 12645,23280 12762,23277 12878,23270 12995,23268 13111,23278 13227,23275 13344,23270 13460,23261 13577,23251 13693,23239 13809,23246 13926,23233 14042,23226 14159,23234 14275,23206 14391,23181 14508,23153 14624,23133 14741,23140 14857,23130 14974,23119 15090,23113 15206,23094 15323,23073 15439,23067 15556,23075 15672,23061 15788,23088 15905,23061 16021,23052 16138,23033 16254,23010 16370,23073 16487,23065 16603,23042 16720,23055 16836,23031 16953,22999 17069,22968 17185,22987 17302,23015 17418,23009 17535,22990 17651,22944 17767,22900 17884,22904 18000,22917 18117,22904 18233,22897 18349,22860 18466,22823 18582,22789"/>
 <path fill="none" stroke="rgb(0,127,255)" stroke-width="80" stroke-linejoin="round" d="M 1471,22902 L 1587,22819 1704,22734 1820,22660 1936,22571 2053,22492 2169,22359 2286,22199 2402,22076 2518,21958 2635,21833 2751,21737 2868,21633 2984,21499 3100,21368 3217,21259 3333,21145 3450,21096 3566,21033 3683,20945 3799,20872 3915,20802 4032,20716 4148,20627 4265,20569 4381,20543 4497,20507 4614,20459 4730,20418 4847,20358 4963,20299 5079,20258 5196,20238 5312,20204 5429,20169 5545,20158 5662,20134 5778,20120 5894,20120 6011,20136 6127,20136 6244,20162 6360,20171 6476,20192 6593,20184 6709,20193 6826,20211 6942,20227 7058,20320 7175,20338 7291,20345 7408,20361 7524,20367 7641,20412 7757,20619 7873,20675 7990,20725 8106,20818 8223,20863 8339,20888 8455,20925 8572,21009 8688,21069 8805,21199 8921,21255 9037,21310 9154,21364 9270,21406 9387,21477 9503,21530 9620,21579 9736,21626 9852,21661 9969,21699 10085,21770 10202,21828 10318,21917 10434,21971 10551,22045 10667,22094 10784,22115 10900,22159 11017,22176 11133,22202 11249,22246 11366,22278 11482,22297 11599,22313 11715,22368 11830,22403 11947,22435 12063,22484 12180,22529 12296,22565 12412,22576 12529,22616 12645,22635 12762,22660 12878,22706 12995,22716 13111,22723 13227,22733 13344,22765 13460,22792 13577,22803 13693,22822 13809,22846 13926,22851 14042,22857 14159,22884 14275,22894 14391,22899 14508,22905 14624,22912 14741,22912 14857,22910 14974,22924 15090,22943 15206,22947 15323,22948 15439,22952 15556,22955 15672,22956 15788,22963 15905,22976 16021,22976 16138,22977 16254,22980 16370,22977 16487,22979 16603,22983 16720,22981 16836,22979 16953,22982 17069,22977 17185,22974 17302,22973 17418,22972 17535,22972 17651,22984 17767,22978 17884,22977 18000,22977 18117,22976 18233,22976 18349,22971 18466,22970 18582,22963"/>
 <path fill="none" stroke="rgb(0,169,51)" stroke-width="80" stroke-linejoin="round" d="M 1471,23249 L 1587,23219 1704,23178 1820,23146 1936,23083 2053,23022 2169,22948 2286,22873 2402,22788 2518,22636 2635,22459 2751,22298 2868,22237 2984,21997 3100,21872 3217,21751 3333,21702 3450,21572 3566,21555 3683,21521 3799,21502 3915,21480 4032,21529 4148,21577 4265,21624 4381,21677 4497,21715 4614,21805 4730,21913 4847,21974 4963,22025 5079,22081 5196,22105 5312,22178 5429,22331 5545,22456 5662,22545 5778,22588 5894,22609 6011,22666 6127,22730 6244,22791 6360,22814 6476,22846 6593,22868 6709,22875 6826,22906 6942,22939 7058,22956 7175,22982 7291,22992 7408,22994 7524,23007 7641,23032 7757,23061 7873,23059 7990,23083 8106,23090 8223,23096 8339,23108 8455,23110 8572,23134 8688,23143 8805,23146 8921,23139 9037,23138 9154,23143 9270,23146 9387,23181 9503,23184 9620,23189 9736,23186 9852,23188 9969,23196 10085,23202 10202,23205 10318,23214 10434,23220 10551,23249 10667,23254 10784,23255 10900,23256 11017,23263 11133,23265 11249,23263 11366,23261 11482,23261 11599,23257 11715,23262 11830,23264 11947,23266 12063,23268 12180,23271 12296,23274 12412,23270 12529,23265 12645,23265 12762,23262 12878,23260 12995,23256 13111,23258 13227,23259 13344,23258 13460,23254 13577,23257 13693,23253 13809,23247 13926,23238 14042,23228 14159,23232 14275,23213 14391,23204 14508,23191 14624,23178 14741,23156 14857,23146 14974,23142 15090,23131 15206,23118 15323,23109 15439,23106 15556,23101 15672,23100 15788,23100 15905,23094 16021,23085 16138,23070 16254,23076 16370,23079 16487,23074 16603,23068 16720,23074 16836,23059 16953,23056 17069,23048 17185,23038 17302,23028 17418,23031 17535,23027 17651,23026 17767,23017 17884,23032 18000,23028 18117,23027 18233,23063 18349,23072 18466,23072 18582,23063"/>
 <path fill="none" stroke="rgb(85,48,141)" stroke-width="80" stroke-linejoin="round" stroke-dasharray="80,40" d="M 1471,23340 L 1587,23339 1704,23337 1820,23329 1936,23326 2053,23318 2169,23311 2286,23304 2402,23289 2518,23280 2635,23250 2751,23222 2868,23203 2984,23166 3100,23140 3217,23107 3333,23074 3450,23021 3566,23022 3683,22960 3799,22899 3915,22867 4032,22862 4148,22752 4265,22729 4381,22694 4497,22652 4614,22632 4730,22601 4847,22581 4963,22562 5079,22530 5196,22492 5312,22477 5429,22400 5545,22349 5662,22298 5778,22287 5894,22231 6011,22187 6127,22148 6244,22092 6360,22041 6476,22021 6593,21989 6709,21986 6826,21966 6942,21945 7058,21928 7175,21913 7291,21895 7408,21830 7524,21823 7641,21819 7757,21813 7873,21800 7990,21784 8106,21780 8223,21772 8339,21765 8455,21769 8572,21773 8688,21768 8805,21754 8921,21744 9037,21730 9154,21714 9270,21705 9387,21694 9503,21688 9620,21677 9736,21659 9852,21649 9969,21637 10085,21629 10202,21635 10318,21627 10434,21631 10551,21628 10667,21634 10784,21638 10900,21640 11017,21650 11133,21659 11249,21672 11366,21698 11482,21694 11599,21699 11715,21717 11830,21750 11947,21774 12063,21799 12180,21819 12296,21843 12412,21864 12529,21871 12645,21920 12762,21928 12878,21935 12995,21940 13111,21946 13227,21953 13344,21957 13460,21962 13577,21962 13693,21969 13809,21970 13926,21967 14042,21987 14159,21995 14275,22001 14391,22007 14508,22010 14624,22013 14741,22016 14857,22014 14974,22018 15090,22023 15206,22022 15323,22025 15439,22032 15556,22031 15672,22022 15788,22021 15905,22022 16021,22019 16138,23139 16254,23131 16370,23124 16487,23107 16603,23094 16720,23092 16836,23084 16953,23077 17069,23073 17185,23067 17302,23058 17418,23051 17535,23043 17651,23045 17767,23043 17884,23040 18000,23034 18117,23029 18233,23033 18349,23031 18466,23029 18582,23026"/>
 <path fill="none" stroke="rgb(0,0,0)" stroke-width="80" stroke-linejoin="round" d="M 1471,23271 L 1587,23251 1704,23225 1820,23194 1936,23151 2053,23086 2169,23022 2286,22927 2402,22877 2518,22821 2635,22732 2751,22712 2868,22626 2984,22531 3100,22404 3217,22299 3333,22222 3450,22213 3566,22166 3683,22095 3799,22030 3915,21943 4032,21880 4148,21845 4265,21780 4381,21851 4497,21957 4614,21989 4730,21939 4847,21954 4963,21960 5079,22002 5196,22060 5312,22093 5429,22129 5545,22188 5662,22197 5778,22216 5894,22257 6011,22314 6127,22359 6244,22396 6360,22500 6476,22470 6593,22492 6709,22528 6826,22569 6942,22602 7058,22641 7175,22693 7291,22721 7408,22742 7524,22779 7641,22812 7757,22897 7873,22911 7990,22888 8106,22908 8223,22920 8339,22933 8455,22956 8572,22971 8688,22998 8805,23010 8921,23021 9037,23039 9154,23058 9270,23047 9387,23061 9503,23074 9620,23081 9736,23090 9852,23095 9969,23110 10085,23115 10202,23127 10318,23125 10434,23130 10551,23139 10667,23144 10784,23146 10900,23161 11017,23175 11133,23178 11249,23181 11366,23180 11482,23180 11599,23179 11715,23184 11830,23195 11947,23199 12063,23200 12180,23209 12296,23206 12412,23215 12529,23207 12645,23216 12762,23196 12878,23188 12995,23194 13111,23184 13227,23182 13344,23182 13460,23187 13577,23183 13693,23178 13809,23177 13926,23175 14042,23170 14159,23169 14275,23181 14391,23186 14508,23188 14624,23194 14741,23203 14857,23200 14974,23205 15090,23209 15206,23215 15323,23214 15439,23211 15556,23210 15672,23219 15788,23213 15905,23223 16021,23220 16138,23218 16254,23216 16370,23214 16487,23216 16603,23211 16720,23208 16836,23206 16953,23202 17069,23193 17185,23187 17302,23183 17418,23179 17535,23173 17651,23158 17767,23149 17884,23150 18000,23151 18117,23147 18233,23144 18349,23125 18466,23121 18582,23110"/>
 <path fill="none" stroke="rgb(180,120,4)" stroke-width="80" stroke-linejoin="round" d="M 1471,23103 L 1587,23094 1704,23082 1820,23064 1936,23037 2053,23009 2169,22976 2286,22943 2402,22919 2518,22890 2635,22876 2751,22844 2868,22802 2984,22758 3100,22709 3217,22662 3333,22609 3450,22552 3566,22470 3683,22671 3799,22652 3915,22578 4032,22514 4148,22446 4265,22370 4381,22296 4497,22243 4614,22214 4730,22175 4847,22181 4963,22185 5079,22179 5196,22212 5312,22235 5429,22263 5545,22321 5662,22413 5778,22463 5894,22478 6011,22544 6127,22600 6244,22644 6360,22648 6476,22625 6593,22628 6709,22639 6826,22645 6942,22674 7058,22687 7175,22699 7291,22723 7408,22720 7524,22709 7641,22730 7757,22755 7873,22780 7990,22808 8106,22829 8223,22834 8339,22843 8455,22895 8572,22899 8688,22929 8805,22953 8921,22979 9037,22996 9154,23006 9270,23019 9387,23034 9503,23049 9620,23072 9736,23076 9852,23074 9969,23085 10085,23097 10202,23101 10318,23114 10434,23108 10551,23123 10667,23124 10784,23131 10900,23145 11017,23153 11133,23162 11249,23154 11366,23160 11482,23164 11599,23172 11715,23178 11830,23190 11947,23200 12063,23192 12180,23193 12296,23187 12412,23187 12529,23187 12645,23192 12762,23195 12878,23193 12995,23193 13111,23193 13227,23172 13344,23176 13460,23168 13577,23173 13693,23176 13809,23176 13926,23176 14042,23185 14159,23191 14275,23197 14391,23214 14508,23223 14624,23223 14741,23223 14857,23245 14974,23258 15090,23260 15206,23268 15323,23269 15439,23269 15556,23269 15672,23258 15788,23260 15905,23257 16021,23251 16138,23241 16254,23241 16370,23240 16487,23225 16603,23216 16720,23205 16836,23201 16953,23199 17069,23199 17185,23192 17302,23182 17418,23182 17535,23175 17651,23158 17767,23155 17884,23155 18000,23156 18117,23125 18233,23111 18349,23084 18466,23050 18582,23017"/>
 <path fill="none" stroke="rgb(0,0,255)" stroke-width="80" stroke-linejoin="round" stroke-dasharray="158,158" d="M 1471,23088 L 1587,23085 1704,23082 1820,23101 1936,23108 2053,23110 2169,23105 2286,23102 2402,23097 2518,23140 2635,23140 2751,23158 2868,23163 2984,23174 3100,23184 3217,23189 3333,23194 3450,23198 3566,23200 3683,23202 3799,23209 3915,23212 4032,23220 4148,23222 4265,23225 4381,23227 4497,23229 4614,23234 4730,23239 4847,23242 4963,23245 5079,23247 5196,23250 5312,23252 5429,23256 5545,23258 5662,23261 5778,23265 5894,23267 6011,23270 6127,23272 6244,23279 6360,23284 6476,23286 6593,23288 6709,23290 6826,23292 6942,23297 7058,23297 7175,23299 7291,23301 7408,23302 7524,23304 7641,23306 7757,23309 7873,23310 7990,23313 8106,23313 8223,23313 8339,23313 8455,23313 8572,23314 8688,23316 8805,23316 8921,23317 9037,23317 9154,23318 9270,23321 9387,23323 9503,23323 9620,23324 9736,23323 9852,23323 9969,23325 10085,23324 10202,23323 10318,23321 10434,23321 10551,23321 10667,23320 10784,23320 10900,23319 11017,23318 11133,23317 11249,23316 11366,23315 11482,23314 11599,23314 11715,23313 11830,23313 11947,23311 12063,23310 12180,23310 12296,23309 12412,23309 12529,23308 12645,23307 12762,23307 12878,23305 12995,23304 13111,23304 13227,23303 13344,23302 13460,23303 13577,23308 13693,23311 13809,23311 13926,23312 14042,23314 14159,23315 14275,23316 14391,23316 14508,23316 14624,23314 14741,23313 14857,23314 14974,23314 15090,23314 15206,23314 15323,23315 15439,23315 15556,23314 15672,23315 15788,23316 15905,23316 16021,23316 16138,23317 16254,23317 16370,23317 16487,23318 16603,23317 16720,23317 16836,23318 16953,23316 17069,23315 17185,23314 17302,23317 17418,23317 17535,23319 17651,23320 17767,23320 17884,23320 18000,23320 18117,23321 18233,23322 18349,23324 18466,23325 18582,23326"/>
 <text class="TextShape" transform="rotate(-90 1597 24553)"><tspan class="TextParagraph" font-family="Liberation Sans, sans-serif" font-size="388px" font-weight="400"><tspan class="TextPosition" x="1597" y="24553"><tspan fill="rgb(0,0,0)" stroke="none">13.03</tspan></tspan></tspan></text>
 <text class="TextShape" transform="rotate(-90 2412 24553)"><tspan class="TextParagraph" font-family="Liberation Sans, sans-serif" font-size="388px" font-weight="400"><tspan class="TextPosition" x="2412" y="24553"><tspan fill="rgb(0,0,0)" stroke="none">20.03</tspan></tspan></tspan></text>
 <text class="TextShape" transform="rotate(-90 3226 24553)"><tspan class="TextParagraph" font-family="Liberation Sans, sans-serif" font-size="388px" font-weight="400"><tspan class="TextPosition" x="3226" y="24553"><tspan fill="rgb(0,0,0)" stroke="none">27.03</tspan></tspan></tspan></text>
 <text class="TextShape" transform="rotate(-90 4041 24553)"><tspan class="TextParagraph" font-family="Liberation Sans, sans-serif" font-size="388px" font-weight="400"><tspan class="TextPosition" x="4041" y="24553"><tspan fill="rgb(0,0,0)" stroke="none">03.04</tspan></tspan></tspan></text>
 <text class="TextShape" transform="rotate(-90 4856 24553)"><tspan class="TextParagraph" font-family="Liberation Sans, sans-serif" font-size="388px" font-weight="400"><tspan class="TextPosition" x="4856" y="24553"><tspan fill="rgb(0,0,0)" stroke="none">10.04</tspan></tspan></tspan></text>
 <text class="TextShape" transform="rotate(-90 5671 24553)"><tspan class="TextParagraph" font-family="Liberation Sans, sans-serif" font-size="388px" font-weight="400"><tspan class="TextPosition" x="5671" y="24553"><tspan fill="rgb(0,0,0)" stroke="none">17.04</tspan></tspan></tspan></text>
 <text class="TextShape" transform="rotate(-90 6486 24553)"><tspan class="TextParagraph" font-family="Liberation Sans, sans-serif" font-size="388px" font-weight="400"><tspan class="TextPosition" x="6486" y="24553"><tspan fill="rgb(0,0,0)" stroke="none">24.04</tspan></tspan></tspan></text>
 <text class="TextShape" transform="rotate(-90 7301 24553)"><tspan class="TextParagraph" font-family="Liberation Sans, sans-serif" font-size="388px" font-weight="400"><tspan class="TextPosition" x="7301" y="24553"><tspan fill="rgb(0,0,0)" stroke="none">01.05</tspan></tspan></tspan></text>
 <text class="TextShape" transform="rotate(-90 8116 24553)"><tspan class="TextParagraph" font-family="Liberation Sans, sans-serif" font-size="388px" font-weight="400"><tspan class="TextPosition" x="8116" y="24553"><tspan fill="rgb(0,0,0)" stroke="none">08.05</tspan></tspan></tspan></text>
 <text class="TextShape" transform="rotate(-90 8931 24553)"><tspan class="TextParagraph" font-family="Liberation Sans, sans-serif" font-size="388px" font-weight="400"><tspan class="TextPosition" x="8931" y="24553"><tspan fill="rgb(0,0,0)" stroke="none">15.05</tspan></tspan></tspan></text>
 <text class="TextShape" transform="rotate(-90 9746 24553)"><tspan class="TextParagraph" font-family="Liberation Sans, sans-serif" font-size="388px" font-weight="400"><tspan class="TextPosition" x="9746" y="24553"><tspan fill="rgb(0,0,0)" stroke="none">22.05</tspan></tspan></tspan></text>
 <text class="TextShape" transform="rotate(-90 10560 24553)"><tspan class="TextParagraph" font-family="Liberation Sans, sans-serif" font-size="388px" font-weight="400"><tspan class="TextPosition" x="10560" y="24553"><tspan fill="rgb(0,0,0)" stroke="none">29.05</tspan></tspan></tspan></text>
 <text class="TextShape" transform="rotate(-90 11375 24553)"><tspan class="TextParagraph" font-family="Liberation Sans, sans-serif" font-size="388px" font-weight="400"><tspan class="TextPosition" x="11375" y="24553"><tspan fill="rgb(0,0,0)" stroke="none">05.06</tspan></tspan></tspan></text>
 <text class="TextShape" transform="rotate(-90 12189 24553)"><tspan class="TextParagraph" font-family="Liberation Sans, sans-serif" font-size="388px" font-weight="400"><tspan class="TextPosition" x="12189" y="24553"><tspan fill="rgb(0,0,0)" stroke="none">12.06</tspan></tspan></tspan></text>
 <text class="TextShape" transform="rotate(-90 13004 24553)"><tspan class="TextParagraph" font-family="Liberation Sans, sans-serif" font-size="388px" font-weight="400"><tspan class="TextPosition" x="13004" y="24553"><tspan fill="rgb(0,0,0)" stroke="none">19.06</tspan></tspan></tspan></text>
 <text class="TextShape" transform="rotate(-90 13819 24553)"><tspan class="TextParagraph" font-family="Liberation Sans, sans-serif" font-size="388px" font-weight="400"><tspan class="TextPosition" x="13819" y="24553"><tspan fill="rgb(0,0,0)" stroke="none">26.06</tspan></tspan></tspan></text>
 <text class="TextShape" transform="rotate(-90 14634 24553)"><tspan class="TextParagraph" font-family="Liberation Sans, sans-serif" font-size="388px" font-weight="400"><tspan class="TextPosition" x="14634" y="24553"><tspan fill="rgb(0,0,0)" stroke="none">03.07</tspan></tspan></tspan></text>
 <text class="TextShape" transform="rotate(-90 15449 24553)"><tspan class="TextParagraph" font-family="Liberation Sans, sans-serif" font-size="388px" font-weight="400"><tspan class="TextPosition" x="15449" y="24553"><tspan fill="rgb(0,0,0)" stroke="none">10.07</tspan></tspan></tspan></text>
 <text class="TextShape" transform="rotate(-90 16264 24553)"><tspan class="TextParagraph" font-family="Liberation Sans, sans-serif" font-size="388px" font-weight="400"><tspan class="TextPosition" x="16264" y="24553"><tspan fill="rgb(0,0,0)" stroke="none">17.07</tspan></tspan></tspan></text>
 <text class="TextShape" transform="rotate(-90 17079 24553)"><tspan class="TextParagraph" font-family="Liberation Sans, sans-serif" font-size="388px" font-weight="400"><tspan class="TextPosition" x="17079" y="24553"><tspan fill="rgb(0,0,0)" stroke="none">24.07</tspan></tspan></tspan></text>
 <text class="TextShape" transform="rotate(-90 17893 24553)"><tspan class="TextParagraph" font-family="Liberation Sans, sans-serif" font-size="388px" font-weight="400"><tspan class="TextPosition" x="17893" y="24553"><tspan fill="rgb(0,0,0)" stroke="none">31.07</tspan></tspan></tspan></text>
 <text class="TextShape" transform="rotate(-90 18708 24553)"><tspan class="TextParagraph" font-family="Liberation Sans, sans-serif" font-size="388px" font-weight="400"><tspan class="TextPosition" x="18708" y="24553"><tspan fill="rgb(0,0,0)" stroke="none">07.08</tspan></tspan></tspan></text>
 <text class="TextShape"><tspan class="TextParagraph" font-family="Liberation Sans, sans-serif" font-size="388px" font-weight="400"><tspan class="TextPosition" x="950" y="23477"><tspan fill="rgb(0,0,0)" stroke="none">0</tspan></tspan></tspan></text>
 <text class="TextShape"><tspan class="TextParagraph" font-family="Liberation Sans, sans-serif" font-size="388px" font-weight="400"><tspan class="TextPosition" x="315" y="19870"><tspan fill="rgb(0,0,0)" stroke="none">2000</tspan></tspan></tspan></text>
 <text class="TextShape"><tspan class="TextParagraph" font-family="Liberation Sans, sans-serif" font-size="388px" font-weight="400"><tspan class="TextPosition" x="315" y="16264"><tspan fill="rgb(0,0,0)" stroke="none">4000</tspan></tspan></tspan></text>
 <text class="TextShape"><tspan class="TextParagraph" font-family="Liberation Sans, sans-serif" font-size="388px" font-weight="400"><tspan class="TextPosition" x="315" y="12657"><tspan fill="rgb(0,0,0)" stroke="none">6000</tspan></tspan></tspan></text>
 <text class="TextShape"><tspan class="TextParagraph" font-family="Liberation Sans, sans-serif" font-size="388px" font-weight="400"><tspan class="TextPosition" x="315" y="9051"><tspan fill="rgb(0,0,0)" stroke="none">8000</tspan></tspan></tspan></text>
 <text class="TextShape"><tspan class="TextParagraph" font-family="Liberation Sans, sans-serif" font-size="388px" font-weight="400"><tspan class="TextPosition" x="104" y="5444"><tspan fill="rgb(0,0,0)" stroke="none">10000</tspan></tspan></tspan></text>
 <text class="TextShape"><tspan class="TextParagraph" font-family="Liberation Sans, sans-serif" font-size="388px" font-weight="400"><tspan class="TextPosition" x="104" y="1838"><tspan fill="rgb(0,0,0)" stroke="none">12000</tspan></tspan></tspan></text>
 <text class="TextShape"><tspan class="TextParagraph" font-family="Liberation Sans, sans-serif" font-size="494px" font-weight="700"><tspan class="TextPosition" x="707" y="990"><tspan fill="rgb(0,0,0)" stroke="none">Počet aktivních případů na milión obyvatel</tspan></tspan></tspan></text>
 <path fill="none" stroke="rgb(141,40,30)" stroke-width="80" stroke-linejoin="round" stroke-dasharray="80,40" d="M 18829,2893 L 20429,2893"/>
 <path fill="none" stroke="rgb(255,64,0)" stroke-width="80" stroke-linejoin="round" stroke-dasharray="80,40" d="M 18829,4404 L 20429,4404"/>
 <path fill="none" stroke="rgb(21,132,102)" stroke-width="80" stroke-linejoin="round" stroke-dasharray="80,203,80,203,203,203" d="M 18829,5915 L 20429,5915"/>
 <path fill="none" stroke="rgb(255,211,32)" stroke-width="80" stroke-linejoin="round" d="M 18829,7426 L 20429,7426"/>
 <path fill="none" stroke="rgb(191,0,65)" stroke-width="80" stroke-linejoin="round" stroke-dasharray="51,127,51,127,254,127,254,127,254,127" d="M 18829,8937 L 20429,8937"/>
 <path fill="none" stroke="rgb(128,0,128)" stroke-width="80" stroke-linejoin="round" stroke-dasharray="158,158" d="M 18829,10448 L 20429,10448"/>
 <path fill="none" stroke="rgb(0,169,51)" stroke-width="80" stroke-linejoin="round" stroke-dasharray="80,40" d="M 18829,11959 L 20429,11959"/>
 <path fill="none" stroke="rgb(0,255,0)" stroke-width="80" stroke-linejoin="round" d="M 18829,13469 L 20429,13469"/>
 <path fill="none" stroke="rgb(0,127,255)" stroke-width="80" stroke-linejoin="round" d="M 18829,14980 L 20429,14980"/>
 <path fill="none" stroke="rgb(0,169,51)" stroke-width="80" stroke-linejoin="round" d="M 18829,16491 L 20429,16491"/>
 <path fill="none" stroke="rgb(85,48,141)" stroke-width="80" stroke-linejoin="round" stroke-dasharray="80,40" d="M 18829,18002 L 20429,18002"/>
 <path fill="none" stroke="rgb(0,0,0)" stroke-width="80" stroke-linejoin="round" d="M 18829,19513 L 20429,19513"/>
 <path fill="none" stroke="rgb(180,120,4)" stroke-width="80" stroke-linejoin="round" d="M 18829,21024 L 20429,21024"/>
 <path fill="none" stroke="rgb(0,0,255)" stroke-width="80" stroke-linejoin="round" stroke-dasharray="158,158" d="M 18829,22535 L 20429,22535"/>
 <text class="TextShape"><tspan class="TextParagraph" font-family="Liberation Sans, sans-serif" font-size="423px" font-weight="400"><tspan class="TextPosition" x="20529" y="3041"><tspan fill="rgb(0,0,0)" stroke="none">USA</tspan></tspan></tspan></text>
 <text class="TextShape"><tspan class="TextParagraph" font-family="Liberation Sans, sans-serif" font-size="423px" font-weight="400"><tspan class="TextPosition" x="20529" y="4552"><tspan fill="rgb(0,0,0)" stroke="none">Brazílie</tspan></tspan></tspan></text>
 <text class="TextShape"><tspan class="TextParagraph" font-family="Liberation Sans, sans-serif" font-size="423px" font-weight="400"><tspan class="TextPosition" x="20529" y="6063"><tspan fill="rgb(0,0,0)" stroke="none">celosvětově</tspan></tspan></tspan></text>
 <text class="TextShape"><tspan class="TextParagraph" font-family="Liberation Sans, sans-serif" font-size="423px" font-weight="400"><tspan class="TextPosition" x="20529" y="7574"><tspan fill="rgb(0,0,0)" stroke="none">Česko</tspan></tspan></tspan></text>
 <text class="TextShape"><tspan class="TextParagraph" font-family="Liberation Sans, sans-serif" font-size="423px" font-weight="400"><tspan class="TextPosition" x="20529" y="9085"><tspan fill="rgb(0,0,0)" stroke="none">EU_nové země</tspan></tspan></tspan></text>
 <text class="TextShape"><tspan class="TextParagraph" font-family="Liberation Sans, sans-serif" font-size="423px" font-weight="400"><tspan class="TextPosition" x="20529" y="10596"><tspan fill="rgb(0,0,0)" stroke="none">Indie</tspan></tspan></tspan></text>
 <text class="TextShape"><tspan class="TextParagraph" font-family="Liberation Sans, sans-serif" font-size="423px" font-weight="400"><tspan class="TextPosition" x="20529" y="12107"><tspan fill="rgb(0,0,0)" stroke="none">Mexiko</tspan></tspan></tspan></text>
 <text class="TextShape"><tspan class="TextParagraph" font-family="Liberation Sans, sans-serif" font-size="423px" font-weight="400"><tspan class="TextPosition" x="20529" y="13617"><tspan fill="rgb(0,0,0)" stroke="none">Švýcarsko</tspan></tspan></tspan></text>
 <text class="TextShape"><tspan class="TextParagraph" font-family="Liberation Sans, sans-serif" font-size="423px" font-weight="400"><tspan class="TextPosition" x="20529" y="15128"><tspan fill="rgb(0,0,0)" stroke="none">Itálie</tspan></tspan></tspan></text>
 <text class="TextShape"><tspan class="TextParagraph" font-family="Liberation Sans, sans-serif" font-size="423px" font-weight="400"><tspan class="TextPosition" x="20529" y="16639"><tspan fill="rgb(0,0,0)" stroke="none">Rakousko</tspan></tspan></tspan></text>
 <text class="TextShape"><tspan class="TextParagraph" font-family="Liberation Sans, sans-serif" font-size="423px" font-weight="400"><tspan class="TextPosition" x="20529" y="18150"><tspan fill="rgb(0,0,0)" stroke="none">Kanada</tspan></tspan></tspan></text>
 <text class="TextShape"><tspan class="TextParagraph" font-family="Liberation Sans, sans-serif" font-size="423px" font-weight="400"><tspan class="TextPosition" x="20529" y="19661"><tspan fill="rgb(0,0,0)" stroke="none">Německo</tspan></tspan></tspan></text>
 <text class="TextShape"><tspan class="TextParagraph" font-family="Liberation Sans, sans-serif" font-size="423px" font-weight="400"><tspan class="TextPosition" x="20529" y="21172"><tspan fill="rgb(0,0,0)" stroke="none">Dánsko</tspan></tspan></tspan></text>
 <text class="TextShape"><tspan class="TextParagraph" font-family="Liberation Sans, sans-serif" font-size="423px" font-weight="400"><tspan class="TextPosition" x="20529" y="22683"><tspan fill="rgb(0,0,0)" stroke="none">Jižní Korea</tspan></tspan></tspan></text>
</svg>