<?xml version="1.0" encoding="UTF-8"?>
<!DOCTYPE svg PUBLIC "-//W3C//DTD SVG 1.1//EN" "http://www.w3.org/Graphics/SVG/1.1/DTD/svg11.dtd">
<svg width="236mm" height="250mm" viewBox="0 0 23600 25000" version="1.1" xmlns="http://www.w3.org/2000/svg" xmlns:xlink="http://www.w3.org/1999/xlink" stroke-width="28.222" stroke-linejoin="round" xml:space="preserve">
 <path fill="rgb(255,255,255)" stroke="none" d="M 11800,25000 L 0,25000 0,0 23600,0 23600,25000 11800,25000 Z"/>
 <path fill="none" stroke="rgb(179,179,179)" stroke-linejoin="round" d="M 10027,23350 L 1413,23350 1413,1712 18641,1712 18641,23350 10027,23350 Z"/>
 <path fill="none" stroke="rgb(179,179,179)" stroke-linejoin="round" d="M 18641,23349 L 1413,23349"/>
 <path fill="none" stroke="rgb(179,179,179)" stroke-linejoin="round" d="M 18641,20944 L 1413,20944"/>
 <path fill="none" stroke="rgb(179,179,179)" stroke-linejoin="round" d="M 18641,18540 L 1413,18540"/>
 <path fill="none" stroke="rgb(179,179,179)" stroke-linejoin="round" d="M 18641,16136 L 1413,16136"/>
 <path fill="none" stroke="rgb(179,179,179)" stroke-linejoin="round" d="M 18641,13731 L 1413,13731"/>
 <path fill="none" stroke="rgb(179,179,179)" stroke-linejoin="round" d="M 18641,11328 L 1413,11328"/>
 <path fill="none" stroke="rgb(179,179,179)" stroke-linejoin="round" d="M 18641,8924 L 1413,8924"/>
 <path fill="none" stroke="rgb(179,179,179)" stroke-linejoin="round" d="M 18641,6519 L 1413,6519"/>
 <path fill="none" stroke="rgb(179,179,179)" stroke-linejoin="round" d="M 18641,4115 L 1413,4115"/>
 <path fill="none" stroke="rgb(179,179,179)" stroke-linejoin="round" d="M 18641,1711 L 1413,1711"/>
 <path fill="none" stroke="rgb(179,179,179)" stroke-linejoin="round" d="M 1413,23499 L 1413,23349"/>
 <path fill="none" stroke="rgb(179,179,179)" stroke-linejoin="round" d="M 1413,23499 L 1413,23349"/>
 <path fill="none" stroke="rgb(179,179,179)" stroke-linejoin="round" d="M 2244,23499 L 2244,23349"/>
 <path fill="none" stroke="rgb(179,179,179)" stroke-linejoin="round" d="M 2244,23499 L 2244,23349"/>
 <path fill="none" stroke="rgb(179,179,179)" stroke-linejoin="round" d="M 3076,23499 L 3076,23349"/>
 <path fill="none" stroke="rgb(179,179,179)" stroke-linejoin="round" d="M 3076,23499 L 3076,23349"/>
 <path fill="none" stroke="rgb(179,179,179)" stroke-linejoin="round" d="M 3908,23499 L 3908,23349"/>
 <path fill="none" stroke="rgb(179,179,179)" stroke-linejoin="round" d="M 3908,23499 L 3908,23349"/>
 <path fill="none" stroke="rgb(179,179,179)" stroke-linejoin="round" d="M 4739,23499 L 4739,23349"/>
 <path fill="none" stroke="rgb(179,179,179)" stroke-linejoin="round" d="M 4739,23499 L 4739,23349"/>
 <path fill="none" stroke="rgb(179,179,179)" stroke-linejoin="round" d="M 5571,23499 L 5571,23349"/>
 <path fill="none" stroke="rgb(179,179,179)" stroke-linejoin="round" d="M 5571,23499 L 5571,23349"/>
 <path fill="none" stroke="rgb(179,179,179)" stroke-linejoin="round" d="M 6403,23499 L 6403,23349"/>
 <path fill="none" stroke="rgb(179,179,179)" stroke-linejoin="round" d="M 6403,23499 L 6403,23349"/>
 <path fill="none" stroke="rgb(179,179,179)" stroke-linejoin="round" d="M 7235,23499 L 7235,23349"/>
 <path fill="none" stroke="rgb(179,179,179)" stroke-linejoin="round" d="M 7235,23499 L 7235,23349"/>
 <path fill="none" stroke="rgb(179,179,179)" stroke-linejoin="round" d="M 8066,23499 L 8066,23349"/>
 <path fill="none" stroke="rgb(179,179,179)" stroke-linejoin="round" d="M 8066,23499 L 8066,23349"/>
 <path fill="none" stroke="rgb(179,179,179)" stroke-linejoin="round" d="M 8898,23499 L 8898,23349"/>
 <path fill="none" stroke="rgb(179,179,179)" stroke-linejoin="round" d="M 8898,23499 L 8898,23349"/>
 <path fill="none" stroke="rgb(179,179,179)" stroke-linejoin="round" d="M 9730,23499 L 9730,23349"/>
 <path fill="none" stroke="rgb(179,179,179)" stroke-linejoin="round" d="M 9730,23499 L 9730,23349"/>
 <path fill="none" stroke="rgb(179,179,179)" stroke-linejoin="round" d="M 10562,23499 L 10562,23349"/>
 <path fill="none" stroke="rgb(179,179,179)" stroke-linejoin="round" d="M 10562,23499 L 10562,23349"/>
 <path fill="none" stroke="rgb(179,179,179)" stroke-linejoin="round" d="M 11393,23499 L 11393,23349"/>
 <path fill="none" stroke="rgb(179,179,179)" stroke-linejoin="round" d="M 11393,23499 L 11393,23349"/>
 <path fill="none" stroke="rgb(179,179,179)" stroke-linejoin="round" d="M 12224,23499 L 12224,23349"/>
 <path fill="none" stroke="rgb(179,179,179)" stroke-linejoin="round" d="M 12224,23499 L 12224,23349"/>
 <path fill="none" stroke="rgb(179,179,179)" stroke-linejoin="round" d="M 13056,23499 L 13056,23349"/>
 <path fill="none" stroke="rgb(179,179,179)" stroke-linejoin="round" d="M 13056,23499 L 13056,23349"/>
 <path fill="none" stroke="rgb(179,179,179)" stroke-linejoin="round" d="M 13888,23499 L 13888,23349"/>
 <path fill="none" stroke="rgb(179,179,179)" stroke-linejoin="round" d="M 13888,23499 L 13888,23349"/>
 <path fill="none" stroke="rgb(179,179,179)" stroke-linejoin="round" d="M 14719,23499 L 14719,23349"/>
 <path fill="none" stroke="rgb(179,179,179)" stroke-linejoin="round" d="M 14719,23499 L 14719,23349"/>
 <path fill="none" stroke="rgb(179,179,179)" stroke-linejoin="round" d="M 15551,23499 L 15551,23349"/>
 <path fill="none" stroke="rgb(179,179,179)" stroke-linejoin="round" d="M 15551,23499 L 15551,23349"/>
 <path fill="none" stroke="rgb(179,179,179)" stroke-linejoin="round" d="M 16383,23499 L 16383,23349"/>
 <path fill="none" stroke="rgb(179,179,179)" stroke-linejoin="round" d="M 16383,23499 L 16383,23349"/>
 <path fill="none" stroke="rgb(179,179,179)" stroke-linejoin="round" d="M 17215,23499 L 17215,23349"/>
 <path fill="none" stroke="rgb(179,179,179)" stroke-linejoin="round" d="M 17215,23499 L 17215,23349"/>
 <path fill="none" stroke="rgb(179,179,179)" stroke-linejoin="round" d="M 18046,23499 L 18046,23349"/>
 <path fill="none" stroke="rgb(179,179,179)" stroke-linejoin="round" d="M 18046,23499 L 18046,23349"/>
 <path fill="none" stroke="rgb(179,179,179)" stroke-linejoin="round" d="M 1413,23349 L 18641,23349"/>
 <path fill="none" stroke="rgb(179,179,179)" stroke-linejoin="round" d="M 1263,23349 L 1413,23349"/>
 <path fill="none" stroke="rgb(179,179,179)" stroke-linejoin="round" d="M 1263,23349 L 1413,23349"/>
 <path fill="none" stroke="rgb(179,179,179)" stroke-linejoin="round" d="M 1263,20944 L 1413,20944"/>
 <path fill="none" stroke="rgb(179,179,179)" stroke-linejoin="round" d="M 1263,20944 L 1413,20944"/>
 <path fill="none" stroke="rgb(179,179,179)" stroke-linejoin="round" d="M 1263,18540 L 1413,18540"/>
 <path fill="none" stroke="rgb(179,179,179)" stroke-linejoin="round" d="M 1263,18540 L 1413,18540"/>
 <path fill="none" stroke="rgb(179,179,179)" stroke-linejoin="round" d="M 1263,16136 L 1413,16136"/>
 <path fill="none" stroke="rgb(179,179,179)" stroke-linejoin="round" d="M 1263,16136 L 1413,16136"/>
 <path fill="none" stroke="rgb(179,179,179)" stroke-linejoin="round" d="M 1263,13731 L 1413,13731"/>
 <path fill="none" stroke="rgb(179,179,179)" stroke-linejoin="round" d="M 1263,13731 L 1413,13731"/>
 <path fill="none" stroke="rgb(179,179,179)" stroke-linejoin="round" d="M 1263,11328 L 1413,11328"/>
 <path fill="none" stroke="rgb(179,179,179)" stroke-linejoin="round" d="M 1263,11328 L 1413,11328"/>
 <path fill="none" stroke="rgb(179,179,179)" stroke-linejoin="round" d="M 1263,8924 L 1413,8924"/>
 <path fill="none" stroke="rgb(179,179,179)" stroke-linejoin="round" d="M 1263,8924 L 1413,8924"/>
 <path fill="none" stroke="rgb(179,179,179)" stroke-linejoin="round" d="M 1263,6519 L 1413,6519"/>
 <path fill="none" stroke="rgb(179,179,179)" stroke-linejoin="round" d="M 1263,6519 L 1413,6519"/>
 <path fill="none" stroke="rgb(179,179,179)" stroke-linejoin="round" d="M 1263,4115 L 1413,4115"/>
 <path fill="none" stroke="rgb(179,179,179)" stroke-linejoin="round" d="M 1263,4115 L 1413,4115"/>
 <path fill="none" stroke="rgb(179,179,179)" stroke-linejoin="round" d="M 1263,1711 L 1413,1711"/>
 <path fill="none" stroke="rgb(179,179,179)" stroke-linejoin="round" d="M 1263,1711 L 1413,1711"/>
 <path fill="none" stroke="rgb(179,179,179)" stroke-linejoin="round" d="M 1413,23349 L 1413,1711"/>
 <path fill="none" stroke="rgb(141,40,30)" stroke-width="80" stroke-linejoin="round" stroke-dasharray="80,40" d="M 1472,23272 L 1591,23247 1710,23244 1828,23194 1947,23131 2066,23035 2185,22848 2304,22660 2422,22434 2541,22151 2660,21791 2779,21433 2898,21011 3017,20383 3135,19749 3254,19061 3373,18446 3492,17803 3611,16953 3730,16125 3848,15098 3967,14011 4086,13033 4205,12176 4324,11237 4442,10283 4561,9274 4680,8154 4799,7136 4918,6210 5037,5299 5155,4828 5274,4088 5393,3282 5512,2316 5587,1711"/>
 <path fill="none" stroke="rgb(255,64,0)" stroke-width="80" stroke-linejoin="round" stroke-dasharray="80,40" d="M 1472,23340 L 1591,23340 1710,23339 1828,23337 1947,23331 2066,23328 2185,23314 2304,23304 2422,23292 2541,23263 2660,23242 2779,23224 2898,23207 3017,23184 3135,23161 3254,23134 3373,23116 3492,23105 3611,23044 3730,22982 3848,22919 3967,22864 4086,22795 4205,22753 4324,22699 4442,22600 4561,22487 4680,22388 4799,22307 4918,22249 5037,22172 5155,22108 5274,22178 5393,22638 5512,22529 5631,22357 5749,22201 5868,22553 5987,22442 6106,22367 6225,22356 6344,22209 6462,22065 6581,21871 6700,21727 6819,21555 6938,21334 7056,21083 7175,20788 7294,20646 7413,20553 7532,20418 7651,20211 7769,19993 7888,19577 8007,19318 8126,18958 8245,18611 8364,18447 8482,18224 8601,18077 8720,17776 8839,17142 8958,16538 9076,16095 9195,15945 9314,15536 9433,15024 9552,14519 9671,14064 9789,13479 9908,13004 10027,12561 10146,12168 10265,11573 10383,10924 10502,10115 10621,9326 10740,8143 10859,7563 10978,7198 11096,6342 11215,5646 11334,4904 11453,3894 11572,2991 11690,2335 11808,6825 11927,6126 12046,5308 12165,4565 12284,4004 12402,3637 12521,3252 12640,2604 12728,1711"/>
 <path fill="none" stroke="rgb(21,132,102)" stroke-width="80" stroke-linejoin="round" stroke-dasharray="80,203,80,203,203,203" d="M 1472,23239 L 1591,23226 1710,23215 1828,23197 1947,23178 2066,23153 2185,23114 2304,23074 2422,23033 2541,22994 2660,22933 2779,22888 2898,22822 3017,22743 3135,22662 3254,22577 3373,22505 3492,22435 3611,22346 3730,22260 3848,22170 3967,22075 4086,21991 4205,21910 4324,21832 4442,21762 4561,21687 4680,21604 4799,21514 4918,21445 5037,21334 5155,21278 5274,21219 5393,21164 5512,21074 5631,20992 5749,20925 5868,20857 5987,20786 6106,20734 6225,20673 6344,20591 6462,20544 6581,20465 6700,20402 6819,20346 6938,20291 7056,20248 7175,20228 7294,20161 7413,20106 7532,20041 7651,19983 7769,19925 7888,19867 8007,19799 8126,19723 8245,19680 8364,19619 8482,19579 8601,19516 8720,19480 8839,19399 8958,19333 9076,19279 9195,19226 9314,19177 9433,19116 9552,19055 9671,18978 9789,18988 9908,18917 10027,18860 10146,18826 10265,18775 10383,18723 10502,18649 10621,18588 10740,18491 10859,18447 10978,18390 11096,18371 11215,18318 11334,18238 11453,18150 11572,18058 11690,17974 11808,18056 11927,17998 12046,17922 12165,17848 12284,17779 12402,17708 12521,17616 12640,17561 12759,17504 12878,17476 12997,17393 13115,17270 13234,17212 13353,17126 13472,17061 13591,16975 13709,16897 13828,16776 13947,16653 14066,16549 14185,16442 14304,16349 14422,16270 14541,16121 14660,16248 14779,16111 14898,16121 15016,16028 15135,15967 15254,15875 15373,15800 15492,15664 15611,15528 15729,15396 15848,15277 15967,15202 16086,15088 16205,14986 16323,14841 16442,14760 16561,14635 16680,14446 16799,14379 16918,14297 17036,14147 17155,13989 17274,13918 17393,13871 17512,13764 17631,13685 17749,13573 17868,13449 17987,13368 18106,13237 18225,13143 18343,13007 18462,13045 18581,13000"/>
 <path fill="none" stroke="rgb(255,211,32)" stroke-width="80" stroke-linejoin="round" d="M 1472,23190 L 1591,23136 1710,23064 1828,23017 1947,22907 2066,22831 2185,22573 2304,22418 2422,22238 2541,22099 2660,21969 2779,21798 2898,21510 3017,21209 3135,20813 3254,20420 3373,20217 3492,20034 3611,19720 3730,19523 3848,19142 3967,18896 4086,18482 4205,18382 4324,18159 4442,18008 4561,17758 4680,17560 4799,17436 4918,17409 5037,17299 5155,17290 5274,17390 5393,17476 5512,17408 5631,17509 5749,17513 5868,17441 5987,17571 6106,17647 6225,17809 6344,17932 6462,18086 6581,18094 6700,18141 6819,18414 6938,18489 7056,18584 7175,18710 7294,18718 7413,18803 7532,18919 7651,19128 7769,19270 7888,19412 8007,19543 8126,19542 8245,19563 8364,19567 8482,19775 8601,19926 8720,20057 8839,20186 8958,20284 9076,20276 9195,20301 9314,20376 9433,20408 9552,20444 9671,20517 9789,20569 9908,20506 10027,20472 10146,20539 10265,20584 10383,20655 10502,20698 10621,20680 10740,20694 10859,20666 10978,20723 11096,20705 11215,20695 11334,20700 11453,20743 11572,20705 11690,20643 11808,20682 11927,20688 12046,20673 12165,20698 12284,20661 12402,20605 12521,20577 12640,20612 12759,20630 12878,20621 12997,20535 13115,20432 13234,20391 13353,20359 13472,20374 13591,20255 13709,20154 13828,20120 13947,19957 14066,19681 14185,19363 14304,19183 14422,19045 14541,18970 14660,18855 14779,18726 14898,18592 15016,18518 15135,18473 15254,18382 15373,18350 15492,18365 15611,18363 15729,18256 15848,18213 15967,18283 16086,18246 16205,18170 16323,18166 16442,18118 16561,18001 16680,17932 16799,17844 16918,17684 17036,17666 17155,17615 17274,17410 17393,17452 17512,19391 17631,19178 17749,18862 17868,18533 17987,18286 18106,18159 18225,18040 18343,17948 18462,17832 18581,17633"/>
 <path fill="none" stroke="rgb(191,0,65)" stroke-width="80" stroke-linejoin="round" stroke-dasharray="51,127,51,127,254,127,254,127,254,127" d="M 1472,23272 L 1591,23241 1710,23216 1828,23189 1947,23154 2066,23120 2185,23063 2304,23012 2422,22942 2541,22883 2660,22808 2779,22724 2898,22632 3017,22528 3135,22396 3254,22271 3373,22148 3492,22047 3611,21931 3730,21822 3848,21678 3967,21507 4086,21365 4205,21247 4324,21159 4442,21027 4561,20900 4680,20778 4799,20660 4918,20540 5037,20465 5155,20404 5274,20364 5393,20322 5512,20232 5631,20163 5749,20101 5868,20010 5987,19991 6106,19965 6225,19947 6344,19898 6462,19910 6581,19891 6700,19848 6819,19838 6938,19855 7056,19856 7175,19916 7294,19923 7413,19947 7532,19932 7651,19944 7769,19940 7888,19993 8007,20015 8126,20083 8245,20119 8364,20099 8482,20098 8601,20147 8720,20195 8839,20326 8958,20353 9076,20360 9195,20383 9314,20481 9433,20492 9552,20484 9671,20546 9789,20558 9908,20590 10027,20571 10146,20563 10265,20641 10383,20660 10502,20725 10621,20720 10740,20742 10859,20757 10978,20746 11096,20757 11215,20785 11334,20770 11453,20774 11572,20754 11690,20708 11808,20663 11927,20638 12046,20629 12165,20613 12284,20572 12402,20542 12521,20483 12640,20455 12759,20447 12878,20389 12997,20377 13115,20369 13234,20359 13353,20365 13472,20365 13591,20360 13709,20360 13828,20375 13947,20376 14066,20381 14185,20385 14304,20352 14422,20320 14541,20305 14660,20236 14779,20204 14898,20170 15016,20172 15135,20151 15254,20120 15373,20109 15492,20058 15611,20016 15729,19962 15848,19933 15967,19924 16086,19854 16205,19847 16323,19768 16442,19693 16561,19590 16680,19500 16799,19425 16918,19479 17036,19358 17155,19258 17274,19166 17393,19002 17512,19079 17631,18940 17749,18778 17868,18592 17987,18391 18106,18223 18225,18066 18343,17922 18462,17800 18581,17621"/>
 <path fill="none" stroke="rgb(128,0,128)" stroke-width="80" stroke-linejoin="round" stroke-dasharray="158,158" d="M 1472,23348 L 1591,23348 1710,23348 1828,23348 1947,23347 2066,23347 2185,23347 2304,23347 2422,23346 2541,23345 2660,23344 2779,23344 2898,23343 3017,23343 3135,23342 3254,23341 3373,23341 3492,23339 3611,23338 3730,23333 3848,23329 3967,23328 4086,23324 4205,23320 4324,23311 4442,23307 4561,23303 4680,23297 4799,23291 4918,23286 5037,23281 5155,23271 5274,23264 5393,23257 5512,23251 5631,23245 5749,23238 5868,23225 5987,23221 6106,23214 6225,23206 6344,23197 6462,23190 6581,23178 6700,23170 6819,23162 6938,23152 7056,23143 7175,23134 7294,23122 7413,23108 7532,23093 7651,23070 7769,23056 7888,23036 8007,23020 8126,23002 8245,22988 8364,22965 8482,22948 8601,22935 8720,22921 8839,22901 8958,22889 9076,22882 9195,22862 9314,22844 9433,22818 9552,22798 9671,22773 9789,22745 9908,22711 10027,22679 10146,22651 10265,22633 10383,22601 10502,22567 10621,22600 10740,22567 10859,22535 10978,22503 11096,22468 11215,22419 11334,22374 11453,22335 11572,22295 11690,22247 11808,22222 11927,22184 12046,22100 12165,22113 12284,22079 12402,22047 12521,22015 12640,22014 12759,21996 12878,21951 12997,21926 13115,21883 13234,21872 13353,21829 13472,21798 13591,21754 13709,21724 13828,21698 13947,21629 14066,21580 14185,21518 14304,21474 14422,21431 14541,21371 14660,21367 14779,21298 14898,21216 15016,21142 15135,21087 15254,21040 15373,20998 15492,20938 15611,20880 15729,20803 15848,20721 15967,20634 16086,20562 16205,20464 16323,20365 16442,20221 16561,20094 16680,19946 16799,19841 16918,19766 17036,19635 17155,19513 17274,19374 17393,19272 17512,19121 17631,19032 17749,18911 17868,18755 17987,18612 18106,18426 18225,18403 18343,18302 18462,18241 18581,18242"/>
 <path fill="none" stroke="rgb(0,169,51)" stroke-width="80" stroke-linejoin="round" stroke-dasharray="80,40" d="M 1472,23346 L 1591,23345 1710,23344 1828,23341 1947,23340 2066,23338 2185,23334 2304,23330 2422,23326 2541,23320 2660,23315 2779,23312 2898,23305 3017,23295 3135,23283 3254,23271 3373,23258 3492,23252 3611,23241 3730,23227 3848,23216 3967,23256 4086,23239 4205,23216 4324,23192 4442,23161 4561,23127 4680,23105 4799,23071 4918,23040 5037,23107 5155,23084 5274,23066 5393,23043 5512,23005 5631,22957 5749,22908 5868,22887 5987,22842 6106,22787 6225,22701 6344,22608 6462,22507 6581,22846 6700,22885 6819,22881 6938,22998 7056,22915 7175,22794 7294,22753 7413,22635 7532,22615 7651,22492 7769,22723 7888,22682 8007,22521 8126,22598 8245,22576 8364,22441 8482,22448 8601,22559 8720,22512 8839,22449 8958,22433 9076,22393 9195,22350 9314,22331 9433,22290 9552,22222 9671,22145 9789,22104 9908,22020 10027,22020 10146,22041 10265,21976 10383,21895 10502,21827 10621,21837 10740,21811 10859,21767 10978,21828 11096,21769 11215,21779 11334,21635 11453,21576 11572,21551 11690,21518 11808,21631 11927,21586 12046,21493 12165,21406 12284,21309 12402,21321 12521,21260 12640,21447 12759,21376 12878,21278 12997,21155 13115,21143 13234,21151 13353,21090 13472,21190 13591,21075 13709,21107 13828,20968 13947,20944 14066,20952 14185,20965 14304,21168 14422,21131 14541,21042 14660,20965 14779,20918 14898,20917 15016,20897 15135,20942 15254,20872 15373,20748 15492,20633 15611,20586 15729,20488 15848,20566 15967,20659 16086,20614 16205,20704 16323,20664 16442,20664 16561,20664 16680,18677 16799,18983 16918,18831 17036,18599 17155,18374 17274,18476 17393,18421 17512,18536 17631,18905 17749,18716 17868,18822 17987,18679 18106,18609 18225,18514 18343,18801 18462,19399 18581,19279"/>
 <path fill="none" stroke="rgb(0,255,0)" stroke-width="80" stroke-linejoin="round" d="M 1472,21787 L 1591,21484 1710,20318 1828,20318 1947,19641 2066,19202 2185,17766 2304,16091 2422,14341 2541,13285 2660,11481 2779,9981 2898,8608 3017,7391 3135,7838 3254,6289 3373,5384 3492,4264 3611,3418 3730,3468 3848,3517 3967,3668 4086,4703 4205,3945 4324,5520 4442,5670 4561,5868 4680,5982 4799,6057 4918,6721 5037,7224 5155,8278 5274,7984 5393,9880 5512,10083 5631,10361 5749,10937 5868,11477 5987,12355 6106,13368 6225,13821 6344,14532 6462,14892 6581,15021 6700,15499 6819,15988 6938,16452 7056,16277 7175,17169 7294,17721 7413,17994 7532,18288 7651,19186 7769,19440 7888,19799 8007,19993 8126,20176 8245,20541 8364,20748 8482,20989 8601,20969 8720,21344 8839,21277 8958,21215 9076,21552 9195,21673 9314,21805 9433,21922 9552,22007 9671,22104 9789,22093 9908,22209 10027,22334 10146,22469 10265,22451 10383,22572 10502,22547 10621,22503 10740,22618 10859,22735 10978,22722 11096,22718 11215,22832 11334,22804 11453,22772 11572,22883 11690,22871 11808,22864 11927,22857 12046,22828 12165,22922 12284,22897 12402,22854 12521,22822 12640,22943 12759,22932 12878,22889 12997,22871 13115,22822 13234,22811 13353,22882 13472,22857 13591,22826 13709,22768 13828,22696 13947,22621 14066,22664 14185,22578 14304,22529 14422,22583 14541,22396 14660,22234 14779,22048 14898,21914 15016,21955 15135,21890 15254,21816 15373,21776 15492,21654 15611,21509 15729,21475 15848,21522 15967,21434 16086,21615 16205,21432 16323,21375 16442,21247 16561,21094 16680,21512 16799,21455 16918,21307 17036,21389 17155,21230 17274,21019 17393,20813 17512,20939 17631,21127 17749,21083 17868,20955 17987,20651 18106,20361 18225,20388 18343,20475 18462,20383 18581,20341"/>
 <path fill="none" stroke="rgb(0,127,255)" stroke-width="80" stroke-linejoin="round" d="M 1472,20375 L 1591,19819 1710,19252 1828,18761 1947,18167 2066,17640 2185,16749 2304,15684 2422,14862 2541,14075 2660,13243 2779,12606 2898,11913 3017,11019 3135,10144 3254,9418 3373,8660 3492,8332 3611,7913 3730,7329 3848,6837 3967,6372 4086,5798 4205,5207 4324,4821 4442,4646 4561,4408 4680,4087 4799,3810 4918,3413 5037,3018 5155,2747 5274,2613 5393,2389 5512,2153 5631,2082 5749,1921 5868,1825 5987,1829 6106,1934 6225,1936 6344,2105 6462,2169 6581,2304 6700,2253 6819,2311 6938,2432 7056,2540 7175,3158 7294,3279 7413,3326 7532,3431 7651,3470 7769,3771 7888,5151 8007,5529 8126,5860 8245,6480 8364,6782 8482,6948 8601,7191 8720,7750 8839,8151 8958,9020 9076,9394 9195,9759 9314,10117 9433,10400 9552,10872 9671,11229 9789,11554 9908,11867 10027,12097 10146,12354 10265,12822 10383,13215 10502,13807 10621,14167 10740,14661 10859,14983 10978,15123 11096,15417 11215,15535 11334,15708 11453,15997 11572,16215 11690,16337 11808,16443 11927,16813 12046,17044 12165,17257 12284,17583 12402,17884 12521,18124 12640,18197 12759,18463 12878,18591 12997,18755 13115,19065 13234,19131 13353,19179 13472,19245 13591,19457 13709,19639 13828,19709 13947,19842 14066,20001 14185,20032 14304,20069 14422,20254 14541,20315 14660,20354 14779,20389 14898,20441 15016,20437 15135,20424 15254,20517 15373,20645 15492,20672 15611,20679 15729,20703 15848,20728 15967,20732 16086,20780 16205,20865 16323,20868 16442,20872 16561,20889 16680,20875 16799,20882 16918,20913 17036,20899 17155,20882 17274,20903 17393,20875 17512,20850 17631,20847 17749,20841 17868,20840 17987,20917 18106,20879 18225,20872 18343,20872 18462,20868 18581,20867"/>
 <path fill="none" stroke="rgb(0,169,51)" stroke-width="80" stroke-linejoin="round" d="M 1472,22685 L 1591,22484 1710,22210 1828,22002 1947,21576 2066,21169 2185,20682 2304,20181 2422,19615 2541,18601 2660,17417 2779,16346 2898,15942 3017,14341 3135,13506 3254,12700 3373,12374 3492,11505 3611,11394 3730,11164 3848,11040 3967,10891 4086,11219 4205,11538 4324,11852 4442,12204 4561,12462 4680,13059 4799,13775 4918,14185 5037,14528 5155,14899 5274,15061 5393,15547 5512,16568 5631,17395 5749,17991 5868,18282 5987,18418 6106,18796 6225,19228 6344,19630 6462,19786 6581,20000 6700,20144 6819,20194 6938,20401 7056,20622 7175,20731 7294,20903 7413,20970 7532,20985 7651,21073 7769,21237 7888,21430 8007,21420 8126,21581 8245,21627 8364,21664 8482,21745 8601,21760 8720,21922 8839,21978 8958,22000 9076,21950 9195,21947 9314,21979 9433,21999 9552,22230 9671,22254 9789,22286 9908,22267 10027,22281 10146,22334 10265,22371 10383,22390 10502,22449 10621,22494 10740,22685 10859,22721 10978,22722 11096,22733 11215,22776 11334,22791 11453,22776 11572,22765 11690,22765 11808,22739 11927,22772 12046,22785 12165,22800 12284,22809 12402,22829 12521,22851 12640,22827 12759,22789 12878,22792 12997,22769 13115,22759 13234,22734 13353,22743 13472,22749 13591,22743 13709,22716 13828,22736 13947,22713 14066,22669 14185,22613 14304,22548 14422,22570 14541,22445 14660,22385 14779,22298 14898,22210 15016,22068 15135,21998 15254,21975 15373,21899 15492,21812 15611,21753 15729,21729 15848,21697 15967,21693 16086,21695 16205,21655 16323,21593 16442,21489 16561,21532 16680,21553 16799,21516 16918,21478 17036,21521 17155,21420 17274,21398 17393,21344 17512,21278 17631,21214 17749,21233 17868,21205 17987,21201 18106,21141 18225,21236 18343,21210 18462,21207 18581,21445"/>
 <path fill="none" stroke="rgb(85,48,141)" stroke-width="80" stroke-linejoin="round" stroke-dasharray="80,40" d="M 1472,23290 L 1591,23288 1710,23271 1828,23220 1947,23201 2066,23145 2185,23099 2304,23055 2422,22951 2541,22890 2660,22695 2779,22503 2898,22381 3017,22132 3135,21956 3254,21740 3373,21517 3492,21166 3611,21172 3730,20760 3848,20351 3967,20137 4086,20105 4205,19372 4324,19218 4442,18983 4561,18704 4680,18574 4799,18365 4918,18229 5037,18105 5155,17889 5274,17639 5393,17540 5512,17025 5631,16687 5749,16344 5868,16271 5987,15899 6106,15607 6225,15344 6344,14972 6462,14631 6581,14498 6700,14282 6819,14268 6938,14132 7056,13989 7175,13881 7294,13779 7413,13657 7532,13223 7651,13180 7769,13150 7888,13110 8007,13028 8126,12921 8245,12891 8364,12840 8482,12792 8601,12817 8720,12848 8839,12810 8958,12719 9076,12654 9195,12561 9314,12456 9433,12394 9552,12318 9671,12283 9789,12208 9908,12084 10027,12018 10146,11942 10265,11888 10383,11926 10502,11872 10621,11902 10740,11881 10859,11917 10978,11949 11096,11960 11215,12024 11334,12084 11453,12171 11572,12348 11690,12320 11808,12352 11927,12471 12046,12689 12165,12851 12284,13017 12402,13153 12521,13309 12640,13452 12759,13501 12878,13825 12997,13878 13115,13924 13234,13962 13353,14001 13472,14047 13591,14073 13709,14108 13828,14103 13947,14151 14066,14157 14185,14136 14304,14269 14422,14326 14541,14362 14660,14407 14779,14427 14898,14447 15016,14467 15135,14453 15254,14481 15373,14512 15492,14505 15611,14523 15729,14574 15848,14568 15967,14504 16086,14496 16205,14503 16323,14482 16442,21949 16561,21900 16680,21849 16799,21736 16918,21655 17036,21636 17155,21583 17274,21537 17393,21509 17512,21474 17631,21412 17749,21365 17868,21309 17987,21323 18106,21312 18225,21289 18343,21254 18462,21216 18581,21248"/>
 <path fill="none" stroke="rgb(0,0,0)" stroke-width="80" stroke-linejoin="round" d="M 1472,22829 L 1591,22699 1710,22525 1828,22317 1947,22033 2066,21599 2185,21173 2304,20536 2422,20207 2541,19831 2660,19235 2779,19103 2898,18532 3017,17896 3135,17054 3254,16349 3373,15837 3492,15781 3611,15466 3730,14990 3848,14561 3967,13978 4086,13556 4205,13328 4324,12894 4442,13367 4561,14073 4680,14285 4799,13952 4918,14055 5037,14089 5155,14370 5274,14759 5393,14976 5512,15221 5631,15610 5749,15675 5868,15802 5987,16073 6106,16453 6225,16753 6344,16999 6462,17690 6581,17489 6700,17639 6819,17877 6938,18155 7056,18374 7175,18630 7294,18981 7413,19165 7532,19303 7651,19552 7769,19774 7888,20337 8007,20430 8126,20281 8245,20411 8364,20492 8482,20580 8601,20732 8720,20832 8839,21011 8958,21090 9076,21166 9195,21283 9314,21410 9433,21337 9552,21431 9671,21522 9789,21567 9908,21625 10027,21661 10146,21757 10265,21790 10383,21874 10502,21861 10621,21889 10740,21949 10859,21983 10978,21999 11096,22099 11215,22191 11334,22211 11453,22231 11572,22227 11690,22223 11808,22221 11927,22252 12046,22324 12165,22350 12284,22357 12402,22415 12521,22397 12640,22461 12759,22403 12878,22465 12997,22330 13115,22281 13234,22320 13353,22253 13472,22240 13591,22238 13709,22269 13828,22248 13947,22212 14066,22205 14185,22191 14304,22158 14422,22154 14541,22230 14660,22263 14779,22277 14898,22319 15016,22376 15135,22361 15254,22394 15373,22416 15492,22457 15611,22453 15729,22434 15848,22425 15967,22487 16086,22448 16205,22515 16323,22493 16442,22479 16561,22468 16680,22453 16799,22464 16918,22431 17036,22409 17155,22397 17274,22372 17393,22310 17512,22274 17631,22248 17749,22220 17868,22182 17987,22080 18106,22020 18225,22026 18343,22034 18462,22005 18581,21987"/>
 <path fill="none" stroke="rgb(180,120,4)" stroke-width="80" stroke-linejoin="round" d="M 1472,21712 L 1591,21649 1710,21571 1828,21455 1947,21269 2066,21084 2185,20866 2304,20644 2422,20483 2541,20291 2660,20195 2779,19985 2898,19706 3017,19410 3135,19086 3254,18775 3373,18418 3492,18039 3611,17494 3730,18834 3848,18705 3967,18212 4086,17786 4205,17329 4324,16828 4442,16333 4561,15978 4680,15786 4799,15525 4918,15562 5037,15593 5155,15552 5274,15770 5393,15925 5512,16112 5631,16498 5749,17111 5868,17443 5987,17543 6106,17984 6225,18359 6344,18652 6462,18681 6581,18524 6700,18544 6819,18618 6938,18656 7056,18854 7175,18940 7294,19017 7413,19178 7532,19162 7651,19086 7769,19223 7888,19392 8007,19557 8126,19743 8245,19883 8364,19918 8482,19981 8601,20324 8720,20350 8839,20554 8958,20709 9076,20886 9195,20998 9314,21068 9433,21153 9552,21255 9671,21355 9789,21504 9908,21530 10027,21516 10146,21594 10265,21673 10383,21695 10502,21787 10621,21744 10740,21846 10859,21850 10978,21895 11096,21989 11215,22042 11334,22107 11453,22052 11572,22093 11690,22117 11808,22172 11927,22209 12046,22291 12165,22356 12284,22305 12402,22315 12521,22272 12640,22270 12759,22274 12878,22307 12997,22325 13115,22311 13234,22311 13353,22311 13472,22170 13591,22197 13709,22146 13828,22181 13947,22201 14066,22201 14185,22201 14304,22260 14422,22301 14541,22340 14660,22452 14779,22515 14898,22515 15016,22513 15135,22662 15254,22745 15373,22757 15492,22814 15611,22819 15729,22819 15848,22819 15967,22743 16086,22755 16205,22737 16323,22698 16442,22629 16561,22629 16680,22623 16799,22527 16918,22466 17036,22395 17155,22366 17274,22354 17393,22352 17512,22307 17631,22240 17749,22236 17868,22191 17987,22081 18106,22058 18225,22058 18343,22064 18462,21856 18581,21763"/>
 <path fill="none" stroke="rgb(0,0,255)" stroke-width="80" stroke-linejoin="round" stroke-dasharray="158,158" d="M 1472,21613 L 1591,21589 1710,21572 1828,21702 1947,21747 2066,21757 2185,21723 2304,21703 2422,21670 2541,21955 2660,21955 2779,22080 2898,22110 3017,22184 3135,22255 3254,22288 3373,22317 3492,22346 3611,22360 3730,22374 3848,22415 3967,22442 4086,22492 4205,22506 4324,22528 4442,22541 4561,22549 4680,22587 4799,22616 4918,22639 5037,22661 5155,22675 5274,22690 5393,22704 5512,22733 5631,22744 5749,22766 5868,22789 5987,22804 6106,22825 6225,22838 6344,22887 6462,22916 6581,22934 6700,22943 6819,22961 6938,22975 7056,23006 7175,23008 7294,23019 7413,23030 7532,23036 7651,23051 7769,23063 7888,23082 8007,23095 8126,23110 8245,23112 8364,23109 8482,23112 8601,23112 8720,23121 8839,23129 8958,23132 9076,23137 9195,23138 9314,23143 9433,23165 9552,23179 9671,23181 9789,23183 9908,23182 10027,23181 10146,23189 10265,23184 10383,23176 10502,23168 10621,23167 10740,23163 10859,23159 10978,23156 11096,23149 11215,23148 11334,23140 11453,23134 11572,23126 11690,23119 11808,23117 11927,23111 12046,23110 12165,23101 12284,23095 12402,23093 12521,23087 12640,23087 12759,23080 12878,23073 12997,23069 13115,23058 13234,23050 13353,23049 13472,23045 13591,23038 13709,23042 13828,23079 13947,23101 14066,23098 14185,23103 14304,23118 14422,23125 14541,23129 14660,23131 14779,23129 14898,23120 15016,23113 15135,23118 15254,23117 15373,23117 15492,23118 15611,23128 15729,23126 15848,23117 15967,23128 16086,23134 16205,23132 16323,23133 16442,23138 16561,23139 16680,23137 16799,23143 16918,23141 17036,23141 17155,23146 17274,23131 17393,23123 17512,23121 17631,23138 17749,23142 17868,23152 17987,23156 18106,23160 18225,23160 18343,23159 18462,23168 18581,23173"/>
 <text class="TextShape" transform="rotate(-90 1598 24553)"><tspan class="TextParagraph" font-family="Liberation Sans, sans-serif" font-size="388px" font-weight="400"><tspan class="TextPosition" x="1598" y="24553"><tspan fill="rgb(0,0,0)" stroke="none">13.03</tspan></tspan></tspan></text>
 <text class="TextShape" transform="rotate(-90 2430 24553)"><tspan class="TextParagraph" font-family="Liberation Sans, sans-serif" font-size="388px" font-weight="400"><tspan class="TextPosition" x="2430" y="24553"><tspan fill="rgb(0,0,0)" stroke="none">20.03</tspan></tspan></tspan></text>
 <text class="TextShape" transform="rotate(-90 3261 24553)"><tspan class="TextParagraph" font-family="Liberation Sans, sans-serif" font-size="388px" font-weight="400"><tspan class="TextPosition" x="3261" y="24553"><tspan fill="rgb(0,0,0)" stroke="none">27.03</tspan></tspan></tspan></text>
 <text class="TextShape" transform="rotate(-90 4093 24553)"><tspan class="TextParagraph" font-family="Liberation Sans, sans-serif" font-size="388px" font-weight="400"><tspan class="TextPosition" x="4093" y="24553"><tspan fill="rgb(0,0,0)" stroke="none">03.04</tspan></tspan></tspan></text>
 <text class="TextShape" transform="rotate(-90 4925 24553)"><tspan class="TextParagraph" font-family="Liberation Sans, sans-serif" font-size="388px" font-weight="400"><tspan class="TextPosition" x="4925" y="24553"><tspan fill="rgb(0,0,0)" stroke="none">10.04</tspan></tspan></tspan></text>
 <text class="TextShape" transform="rotate(-90 5757 24553)"><tspan class="TextParagraph" font-family="Liberation Sans, sans-serif" font-size="388px" font-weight="400"><tspan class="TextPosition" x="5757" y="24553"><tspan fill="rgb(0,0,0)" stroke="none">17.04</tspan></tspan></tspan></text>
 <text class="TextShape" transform="rotate(-90 6588 24553)"><tspan class="TextParagraph" font-family="Liberation Sans, sans-serif" font-size="388px" font-weight="400"><tspan class="TextPosition" x="6588" y="24553"><tspan fill="rgb(0,0,0)" stroke="none">24.04</tspan></tspan></tspan></text>
 <text class="TextShape" transform="rotate(-90 7420 24553)"><tspan class="TextParagraph" font-family="Liberation Sans, sans-serif" font-size="388px" font-weight="400"><tspan class="TextPosition" x="7420" y="24553"><tspan fill="rgb(0,0,0)" stroke="none">01.05</tspan></tspan></tspan></text>
 <text class="TextShape" transform="rotate(-90 8252 24553)"><tspan class="TextParagraph" font-family="Liberation Sans, sans-serif" font-size="388px" font-weight="400"><tspan class="TextPosition" x="8252" y="24553"><tspan fill="rgb(0,0,0)" stroke="none">08.05</tspan></tspan></tspan></text>
 <text class="TextShape" transform="rotate(-90 9084 24553)"><tspan class="TextParagraph" font-family="Liberation Sans, sans-serif" font-size="388px" font-weight="400"><tspan class="TextPosition" x="9084" y="24553"><tspan fill="rgb(0,0,0)" stroke="none">15.05</tspan></tspan></tspan></text>
 <text class="TextShape" transform="rotate(-90 9915 24553)"><tspan class="TextParagraph" font-family="Liberation Sans, sans-serif" font-size="388px" font-weight="400"><tspan class="TextPosition" x="9915" y="24553"><tspan fill="rgb(0,0,0)" stroke="none">22.05</tspan></tspan></tspan></text>
 <text class="TextShape" transform="rotate(-90 10747 24553)"><tspan class="TextParagraph" font-family="Liberation Sans, sans-serif" font-size="388px" font-weight="400"><tspan class="TextPosition" x="10747" y="24553"><tspan fill="rgb(0,0,0)" stroke="none">29.05</tspan></tspan></tspan></text>
 <text class="TextShape" transform="rotate(-90 11579 24553)"><tspan class="TextParagraph" font-family="Liberation Sans, sans-serif" font-size="388px" font-weight="400"><tspan class="TextPosition" x="11579" y="24553"><tspan fill="rgb(0,0,0)" stroke="none">05.06</tspan></tspan></tspan></text>
 <text class="TextShape" transform="rotate(-90 12410 24553)"><tspan class="TextParagraph" font-family="Liberation Sans, sans-serif" font-size="388px" font-weight="400"><tspan class="TextPosition" x="12410" y="24553"><tspan fill="rgb(0,0,0)" stroke="none">12.06</tspan></tspan></tspan></text>
 <text class="TextShape" transform="rotate(-90 13241 24553)"><tspan class="TextParagraph" font-family="Liberation Sans, sans-serif" font-size="388px" font-weight="400"><tspan class="TextPosition" x="13241" y="24553"><tspan fill="rgb(0,0,0)" stroke="none">19.06</tspan></tspan></tspan></text>
 <text class="TextShape" transform="rotate(-90 14073 24553)"><tspan class="TextParagraph" font-family="Liberation Sans, sans-serif" font-size="388px" font-weight="400"><tspan class="TextPosition" x="14073" y="24553"><tspan fill="rgb(0,0,0)" stroke="none">26.06</tspan></tspan></tspan></text>
 <text class="TextShape" transform="rotate(-90 14905 24553)"><tspan class="TextParagraph" font-family="Liberation Sans, sans-serif" font-size="388px" font-weight="400"><tspan class="TextPosition" x="14905" y="24553"><tspan fill="rgb(0,0,0)" stroke="none">03.07</tspan></tspan></tspan></text>
 <text class="TextShape" transform="rotate(-90 15737 24553)"><tspan class="TextParagraph" font-family="Liberation Sans, sans-serif" font-size="388px" font-weight="400"><tspan class="TextPosition" x="15737" y="24553"><tspan fill="rgb(0,0,0)" stroke="none">10.07</tspan></tspan></tspan></text>
 <text class="TextShape" transform="rotate(-90 16568 24553)"><tspan class="TextParagraph" font-family="Liberation Sans, sans-serif" font-size="388px" font-weight="400"><tspan class="TextPosition" x="16568" y="24553"><tspan fill="rgb(0,0,0)" stroke="none">17.07</tspan></tspan></tspan></text>
 <text class="TextShape" transform="rotate(-90 17400 24553)"><tspan class="TextParagraph" font-family="Liberation Sans, sans-serif" font-size="388px" font-weight="400"><tspan class="TextPosition" x="17400" y="24553"><tspan fill="rgb(0,0,0)" stroke="none">24.07</tspan></tspan></tspan></text>
 <text class="TextShape" transform="rotate(-90 18232 24553)"><tspan class="TextParagraph" font-family="Liberation Sans, sans-serif" font-size="388px" font-weight="400"><tspan class="TextPosition" x="18232" y="24553"><tspan fill="rgb(0,0,0)" stroke="none">31.07</tspan></tspan></tspan></text>
 <text class="TextShape"><tspan class="TextParagraph" font-family="Liberation Sans, sans-serif" font-size="388px" font-weight="400"><tspan class="TextPosition" x="951" y="23477"><tspan fill="rgb(0,0,0)" stroke="none">0</tspan></tspan></tspan></text>
 <text class="TextShape"><tspan class="TextParagraph" font-family="Liberation Sans, sans-serif" font-size="388px" font-weight="400"><tspan class="TextPosition" x="528" y="21072"><tspan fill="rgb(0,0,0)" stroke="none">200</tspan></tspan></tspan></text>
 <text class="TextShape"><tspan class="TextParagraph" font-family="Liberation Sans, sans-serif" font-size="388px" font-weight="400"><tspan class="TextPosition" x="528" y="18668"><tspan fill="rgb(0,0,0)" stroke="none">400</tspan></tspan></tspan></text>
 <text class="TextShape"><tspan class="TextParagraph" font-family="Liberation Sans, sans-serif" font-size="388px" font-weight="400"><tspan class="TextPosition" x="528" y="16264"><tspan fill="rgb(0,0,0)" stroke="none">600</tspan></tspan></tspan></text>
 <text class="TextShape"><tspan class="TextParagraph" font-family="Liberation Sans, sans-serif" font-size="388px" font-weight="400"><tspan class="TextPosition" x="528" y="13859"><tspan fill="rgb(0,0,0)" stroke="none">800</tspan></tspan></tspan></text>
 <text class="TextShape"><tspan class="TextParagraph" font-family="Liberation Sans, sans-serif" font-size="388px" font-weight="400"><tspan class="TextPosition" x="316" y="11455"><tspan fill="rgb(0,0,0)" stroke="none">1000</tspan></tspan></tspan></text>
 <text class="TextShape"><tspan class="TextParagraph" font-family="Liberation Sans, sans-serif" font-size="388px" font-weight="400"><tspan class="TextPosition" x="316" y="9051"><tspan fill="rgb(0,0,0)" stroke="none">1200</tspan></tspan></tspan></text>
 <text class="TextShape"><tspan class="TextParagraph" font-family="Liberation Sans, sans-serif" font-size="388px" font-weight="400"><tspan class="TextPosition" x="316" y="6646"><tspan fill="rgb(0,0,0)" stroke="none">1400</tspan></tspan></tspan></text>
 <text class="TextShape"><tspan class="TextParagraph" font-family="Liberation Sans, sans-serif" font-size="388px" font-weight="400"><tspan class="TextPosition" x="316" y="4242"><tspan fill="rgb(0,0,0)" stroke="none">1600</tspan></tspan></tspan></text>
 <text class="TextShape"><tspan class="TextParagraph" font-family="Liberation Sans, sans-serif" font-size="388px" font-weight="400"><tspan class="TextPosition" x="316" y="1838"><tspan fill="rgb(0,0,0)" stroke="none">1800</tspan></tspan></tspan></text>
 <text class="TextShape"><tspan class="TextParagraph" font-family="Liberation Sans, sans-serif" font-size="494px" font-weight="700"><tspan class="TextPosition" x="829" y="990"><tspan fill="rgb(0,0,0)" stroke="none">Počet aktivních případů na milión obyvatel (měřítko nezobrazující USA a Brazílii)</tspan></tspan></tspan></text>
 <path fill="none" stroke="rgb(141,40,30)" stroke-width="80" stroke-linejoin="round" stroke-dasharray="80,40" d="M 18829,2893 L 20429,2893"/>
 <path fill="none" stroke="rgb(255,64,0)" stroke-width="80" stroke-linejoin="round" stroke-dasharray="80,40" d="M 18829,4404 L 20429,4404"/>
 <path fill="none" stroke="rgb(21,132,102)" stroke-width="80" stroke-linejoin="round" stroke-dasharray="80,203,80,203,203,203" d="M 18829,5915 L 20429,5915"/>
 <path fill="none" stroke="rgb(255,211,32)" stroke-width="80" stroke-linejoin="round" d="M 18829,7426 L 20429,7426"/>
 <path fill="none" stroke="rgb(191,0,65)" stroke-width="80" stroke-linejoin="round" stroke-dasharray="51,127,51,127,254,127,254,127,254,127" d="M 18829,8937 L 20429,8937"/>
 <path fill="none" stroke="rgb(128,0,128)" stroke-width="80" stroke-linejoin="round" stroke-dasharray="158,158" d="M 18829,10448 L 20429,10448"/>
 <path fill="none" stroke="rgb(0,169,51)" stroke-width="80" stroke-linejoin="round" stroke-dasharray="80,40" d="M 18829,11959 L 20429,11959"/>
 <path fill="none" stroke="rgb(0,255,0)" stroke-width="80" stroke-linejoin="round" d="M 18829,13469 L 20429,13469"/>
 <path fill="none" stroke="rgb(0,127,255)" stroke-width="80" stroke-linejoin="round" d="M 18829,14980 L 20429,14980"/>
 <path fill="none" stroke="rgb(0,169,51)" stroke-width="80" stroke-linejoin="round" d="M 18829,16491 L 20429,16491"/>
 <path fill="none" stroke="rgb(85,48,141)" stroke-width="80" stroke-linejoin="round" stroke-dasharray="80,40" d="M 18829,18002 L 20429,18002"/>
 <path fill="none" stroke="rgb(0,0,0)" stroke-width="80" stroke-linejoin="round" d="M 18829,19513 L 20429,19513"/>
 <path fill="none" stroke="rgb(180,120,4)" stroke-width="80" stroke-linejoin="round" d="M 18829,21024 L 20429,21024"/>
 <path fill="none" stroke="rgb(0,0,255)" stroke-width="80" stroke-linejoin="round" stroke-dasharray="158,158" d="M 18829,22535 L 20429,22535"/>
 <text class="TextShape"><tspan class="TextParagraph" font-family="Liberation Sans, sans-serif" font-size="423px" font-weight="400"><tspan class="TextPosition" x="20529" y="3041"><tspan fill="rgb(0,0,0)" stroke="none">USA</tspan></tspan></tspan></text>
 <text class="TextShape"><tspan class="TextParagraph" font-family="Liberation Sans, sans-serif" font-size="423px" font-weight="400"><tspan class="TextPosition" x="20529" y="4552"><tspan fill="rgb(0,0,0)" stroke="none">Brazílie</tspan></tspan></tspan></text>
 <text class="TextShape"><tspan class="TextParagraph" font-family="Liberation Sans, sans-serif" font-size="423px" font-weight="400"><tspan class="TextPosition" x="20529" y="6063"><tspan fill="rgb(0,0,0)" stroke="none">celosvětově</tspan></tspan></tspan></text>
 <text class="TextShape"><tspan class="TextParagraph" font-family="Liberation Sans, sans-serif" font-size="423px" font-weight="400"><tspan class="TextPosition" x="20529" y="7574"><tspan fill="rgb(0,0,0)" stroke="none">Česko</tspan></tspan></tspan></text>
 <text class="TextShape"><tspan class="TextParagraph" font-family="Liberation Sans, sans-serif" font-size="423px" font-weight="400"><tspan class="TextPosition" x="20529" y="9085"><tspan fill="rgb(0,0,0)" stroke="none">EU_nové země</tspan></tspan></tspan></text>
 <text class="TextShape"><tspan class="TextParagraph" font-family="Liberation Sans, sans-serif" font-size="423px" font-weight="400"><tspan class="TextPosition" x="20529" y="10596"><tspan fill="rgb(0,0,0)" stroke="none">Indie</tspan></tspan></tspan></text>
 <text class="TextShape"><tspan class="TextParagraph" font-family="Liberation Sans, sans-serif" font-size="423px" font-weight="400"><tspan class="TextPosition" x="20529" y="12107"><tspan fill="rgb(0,0,0)" stroke="none">Mexiko</tspan></tspan></tspan></text>
 <text class="TextShape"><tspan class="TextParagraph" font-family="Liberation Sans, sans-serif" font-size="423px" font-weight="400"><tspan class="TextPosition" x="20529" y="13617"><tspan fill="rgb(0,0,0)" stroke="none">Švýcarsko</tspan></tspan></tspan></text>
 <text class="TextShape"><tspan class="TextParagraph" font-family="Liberation Sans, sans-serif" font-size="423px" font-weight="400"><tspan class="TextPosition" x="20529" y="15128"><tspan fill="rgb(0,0,0)" stroke="none">Itálie</tspan></tspan></tspan></text>
 <text class="TextShape"><tspan class="TextParagraph" font-family="Liberation Sans, sans-serif" font-size="423px" font-weight="400"><tspan class="TextPosition" x="20529" y="16639"><tspan fill="rgb(0,0,0)" stroke="none">Rakousko</tspan></tspan></tspan></text>
 <text class="TextShape"><tspan class="TextParagraph" font-family="Liberation Sans, sans-serif" font-size="423px" font-weight="400"><tspan class="TextPosition" x="20529" y="18150"><tspan fill="rgb(0,0,0)" stroke="none">Kanada</tspan></tspan></tspan></text>
 <text class="TextShape"><tspan class="TextParagraph" font-family="Liberation Sans, sans-serif" font-size="423px" font-weight="400"><tspan class="TextPosition" x="20529" y="19661"><tspan fill="rgb(0,0,0)" stroke="none">Německo</tspan></tspan></tspan></text>
 <text class="TextShape"><tspan class="TextParagraph" font-family="Liberation Sans, sans-serif" font-size="423px" font-weight="400"><tspan class="TextPosition" x="20529" y="21172"><tspan fill="rgb(0,0,0)" stroke="none">Dánsko</tspan></tspan></tspan></text>
 <text class="TextShape"><tspan class="TextParagraph" font-family="Liberation Sans, sans-serif" font-size="423px" font-weight="400"><tspan class="TextPosition" x="20529" y="22683"><tspan fill="rgb(0,0,0)" stroke="none">Jižní Korea</tspan></tspan></tspan></text>
</svg>