<?xml version="1.0" encoding="UTF-8"?>
<!DOCTYPE svg PUBLIC "-//W3C//DTD SVG 1.1//EN" "http://www.w3.org/Graphics/SVG/1.1/DTD/svg11.dtd">
<svg width="236mm" height="238mm" viewBox="0 0 23600 23800" version="1.1" xmlns="http://www.w3.org/2000/svg" xmlns:xlink="http://www.w3.org/1999/xlink" stroke-width="28.222" stroke-linejoin="round" xml:space="preserve">
 <path fill="rgb(255,255,255)" stroke="none" d="M 11801,23813 L 0,23813 0,0 23601,0 23601,23813 11801,23813 Z"/>
 <path fill="none" stroke="rgb(179,179,179)" stroke-linejoin="round" d="M 10027,22240 L 1413,22240 1413,1630 18641,1630 18641,22240 10027,22240 Z"/>
 <path fill="none" stroke="rgb(179,179,179)" stroke-linejoin="round" d="M 18641,22239 L 1413,22239"/>
 <path fill="none" stroke="rgb(179,179,179)" stroke-linejoin="round" d="M 18641,17086 L 1413,17086"/>
 <path fill="none" stroke="rgb(179,179,179)" stroke-linejoin="round" d="M 18641,11933 L 1413,11933"/>
 <path fill="none" stroke="rgb(179,179,179)" stroke-linejoin="round" d="M 18641,6781 L 1413,6781"/>
 <path fill="none" stroke="rgb(179,179,179)" stroke-linejoin="round" d="M 18641,1629 L 1413,1629"/>
 <path fill="none" stroke="rgb(221,221,221)" stroke-linejoin="round" stroke-dasharray="53,34" d="M 18641,21208 L 1413,21208"/>
 <path fill="none" stroke="rgb(221,221,221)" stroke-linejoin="round" stroke-dasharray="53,34" d="M 18641,20177 L 1413,20177"/>
 <path fill="none" stroke="rgb(221,221,221)" stroke-linejoin="round" stroke-dasharray="53,34" d="M 18641,19147 L 1413,19147"/>
 <path fill="none" stroke="rgb(221,221,221)" stroke-linejoin="round" stroke-dasharray="53,34" d="M 18641,18116 L 1413,18116"/>
 <path fill="none" stroke="rgb(221,221,221)" stroke-linejoin="round" stroke-dasharray="53,34" d="M 18641,16055 L 1413,16055"/>
 <path fill="none" stroke="rgb(221,221,221)" stroke-linejoin="round" stroke-dasharray="53,34" d="M 18641,15025 L 1413,15025"/>
 <path fill="none" stroke="rgb(221,221,221)" stroke-linejoin="round" stroke-dasharray="53,34" d="M 18641,13994 L 1413,13994"/>
 <path fill="none" stroke="rgb(221,221,221)" stroke-linejoin="round" stroke-dasharray="53,34" d="M 18641,12964 L 1413,12964"/>
 <path fill="none" stroke="rgb(221,221,221)" stroke-linejoin="round" stroke-dasharray="53,34" d="M 18641,10903 L 1413,10903"/>
 <path fill="none" stroke="rgb(221,221,221)" stroke-linejoin="round" stroke-dasharray="53,34" d="M 18641,9873 L 1413,9873"/>
 <path fill="none" stroke="rgb(221,221,221)" stroke-linejoin="round" stroke-dasharray="53,34" d="M 18641,8842 L 1413,8842"/>
 <path fill="none" stroke="rgb(221,221,221)" stroke-linejoin="round" stroke-dasharray="53,34" d="M 18641,7812 L 1413,7812"/>
 <path fill="none" stroke="rgb(221,221,221)" stroke-linejoin="round" stroke-dasharray="53,34" d="M 18641,5751 L 1413,5751"/>
 <path fill="none" stroke="rgb(221,221,221)" stroke-linejoin="round" stroke-dasharray="53,34" d="M 18641,4720 L 1413,4720"/>
 <path fill="none" stroke="rgb(221,221,221)" stroke-linejoin="round" stroke-dasharray="53,34" d="M 18641,3690 L 1413,3690"/>
 <path fill="none" stroke="rgb(221,221,221)" stroke-linejoin="round" stroke-dasharray="53,34" d="M 18641,2659 L 1413,2659"/>
 <path fill="none" stroke="rgb(179,179,179)" stroke-linejoin="round" d="M 1413,22389 L 1413,22239"/>
 <path fill="none" stroke="rgb(179,179,179)" stroke-linejoin="round" d="M 1413,22389 L 1413,22239"/>
 <path fill="none" stroke="rgb(179,179,179)" stroke-linejoin="round" d="M 1510,22389 L 1510,22239"/>
 <path fill="none" stroke="rgb(179,179,179)" stroke-linejoin="round" d="M 1510,22389 L 1510,22239"/>
 <path fill="none" stroke="rgb(179,179,179)" stroke-linejoin="round" d="M 1608,22389 L 1608,22239"/>
 <path fill="none" stroke="rgb(179,179,179)" stroke-linejoin="round" d="M 1608,22389 L 1608,22239"/>
 <path fill="none" stroke="rgb(179,179,179)" stroke-linejoin="round" d="M 1706,22389 L 1706,22239"/>
 <path fill="none" stroke="rgb(179,179,179)" stroke-linejoin="round" d="M 1706,22389 L 1706,22239"/>
 <path fill="none" stroke="rgb(179,179,179)" stroke-linejoin="round" d="M 1804,22389 L 1804,22239"/>
 <path fill="none" stroke="rgb(179,179,179)" stroke-linejoin="round" d="M 1804,22389 L 1804,22239"/>
 <path fill="none" stroke="rgb(179,179,179)" stroke-linejoin="round" d="M 1902,22389 L 1902,22239"/>
 <path fill="none" stroke="rgb(179,179,179)" stroke-linejoin="round" d="M 1902,22389 L 1902,22239"/>
 <path fill="none" stroke="rgb(179,179,179)" stroke-linejoin="round" d="M 2000,22389 L 2000,22239"/>
 <path fill="none" stroke="rgb(179,179,179)" stroke-linejoin="round" d="M 2000,22389 L 2000,22239"/>
 <path fill="none" stroke="rgb(179,179,179)" stroke-linejoin="round" d="M 2098,22389 L 2098,22239"/>
 <path fill="none" stroke="rgb(179,179,179)" stroke-linejoin="round" d="M 2098,22389 L 2098,22239"/>
 <path fill="none" stroke="rgb(179,179,179)" stroke-linejoin="round" d="M 2196,22389 L 2196,22239"/>
 <path fill="none" stroke="rgb(179,179,179)" stroke-linejoin="round" d="M 2196,22389 L 2196,22239"/>
 <path fill="none" stroke="rgb(179,179,179)" stroke-linejoin="round" d="M 2294,22389 L 2294,22239"/>
 <path fill="none" stroke="rgb(179,179,179)" stroke-linejoin="round" d="M 2294,22389 L 2294,22239"/>
 <path fill="none" stroke="rgb(179,179,179)" stroke-linejoin="round" d="M 2391,22389 L 2391,22239"/>
 <path fill="none" stroke="rgb(179,179,179)" stroke-linejoin="round" d="M 2391,22389 L 2391,22239"/>
 <path fill="none" stroke="rgb(179,179,179)" stroke-linejoin="round" d="M 2489,22389 L 2489,22239"/>
 <path fill="none" stroke="rgb(179,179,179)" stroke-linejoin="round" d="M 2489,22389 L 2489,22239"/>
 <path fill="none" stroke="rgb(179,179,179)" stroke-linejoin="round" d="M 2587,22389 L 2587,22239"/>
 <path fill="none" stroke="rgb(179,179,179)" stroke-linejoin="round" d="M 2587,22389 L 2587,22239"/>
 <path fill="none" stroke="rgb(179,179,179)" stroke-linejoin="round" d="M 2685,22389 L 2685,22239"/>
 <path fill="none" stroke="rgb(179,179,179)" stroke-linejoin="round" d="M 2685,22389 L 2685,22239"/>
 <path fill="none" stroke="rgb(179,179,179)" stroke-linejoin="round" d="M 2783,22389 L 2783,22239"/>
 <path fill="none" stroke="rgb(179,179,179)" stroke-linejoin="round" d="M 2783,22389 L 2783,22239"/>
 <path fill="none" stroke="rgb(179,179,179)" stroke-linejoin="round" d="M 2881,22389 L 2881,22239"/>
 <path fill="none" stroke="rgb(179,179,179)" stroke-linejoin="round" d="M 2881,22389 L 2881,22239"/>
 <path fill="none" stroke="rgb(179,179,179)" stroke-linejoin="round" d="M 2979,22389 L 2979,22239"/>
 <path fill="none" stroke="rgb(179,179,179)" stroke-linejoin="round" d="M 2979,22389 L 2979,22239"/>
 <path fill="none" stroke="rgb(179,179,179)" stroke-linejoin="round" d="M 3077,22389 L 3077,22239"/>
 <path fill="none" stroke="rgb(179,179,179)" stroke-linejoin="round" d="M 3077,22389 L 3077,22239"/>
 <path fill="none" stroke="rgb(179,179,179)" stroke-linejoin="round" d="M 3175,22389 L 3175,22239"/>
 <path fill="none" stroke="rgb(179,179,179)" stroke-linejoin="round" d="M 3175,22389 L 3175,22239"/>
 <path fill="none" stroke="rgb(179,179,179)" stroke-linejoin="round" d="M 3272,22389 L 3272,22239"/>
 <path fill="none" stroke="rgb(179,179,179)" stroke-linejoin="round" d="M 3272,22389 L 3272,22239"/>
 <path fill="none" stroke="rgb(179,179,179)" stroke-linejoin="round" d="M 3370,22389 L 3370,22239"/>
 <path fill="none" stroke="rgb(179,179,179)" stroke-linejoin="round" d="M 3370,22389 L 3370,22239"/>
 <path fill="none" stroke="rgb(179,179,179)" stroke-linejoin="round" d="M 3468,22389 L 3468,22239"/>
 <path fill="none" stroke="rgb(179,179,179)" stroke-linejoin="round" d="M 3468,22389 L 3468,22239"/>
 <path fill="none" stroke="rgb(179,179,179)" stroke-linejoin="round" d="M 3566,22389 L 3566,22239"/>
 <path fill="none" stroke="rgb(179,179,179)" stroke-linejoin="round" d="M 3566,22389 L 3566,22239"/>
 <path fill="none" stroke="rgb(179,179,179)" stroke-linejoin="round" d="M 3664,22389 L 3664,22239"/>
 <path fill="none" stroke="rgb(179,179,179)" stroke-linejoin="round" d="M 3664,22389 L 3664,22239"/>
 <path fill="none" stroke="rgb(179,179,179)" stroke-linejoin="round" d="M 3762,22389 L 3762,22239"/>
 <path fill="none" stroke="rgb(179,179,179)" stroke-linejoin="round" d="M 3762,22389 L 3762,22239"/>
 <path fill="none" stroke="rgb(179,179,179)" stroke-linejoin="round" d="M 3860,22389 L 3860,22239"/>
 <path fill="none" stroke="rgb(179,179,179)" stroke-linejoin="round" d="M 3860,22389 L 3860,22239"/>
 <path fill="none" stroke="rgb(179,179,179)" stroke-linejoin="round" d="M 3958,22389 L 3958,22239"/>
 <path fill="none" stroke="rgb(179,179,179)" stroke-linejoin="round" d="M 3958,22389 L 3958,22239"/>
 <path fill="none" stroke="rgb(179,179,179)" stroke-linejoin="round" d="M 4056,22389 L 4056,22239"/>
 <path fill="none" stroke="rgb(179,179,179)" stroke-linejoin="round" d="M 4056,22389 L 4056,22239"/>
 <path fill="none" stroke="rgb(179,179,179)" stroke-linejoin="round" d="M 4153,22389 L 4153,22239"/>
 <path fill="none" stroke="rgb(179,179,179)" stroke-linejoin="round" d="M 4153,22389 L 4153,22239"/>
 <path fill="none" stroke="rgb(179,179,179)" stroke-linejoin="round" d="M 4251,22389 L 4251,22239"/>
 <path fill="none" stroke="rgb(179,179,179)" stroke-linejoin="round" d="M 4251,22389 L 4251,22239"/>
 <path fill="none" stroke="rgb(179,179,179)" stroke-linejoin="round" d="M 4349,22389 L 4349,22239"/>
 <path fill="none" stroke="rgb(179,179,179)" stroke-linejoin="round" d="M 4349,22389 L 4349,22239"/>
 <path fill="none" stroke="rgb(179,179,179)" stroke-linejoin="round" d="M 4447,22389 L 4447,22239"/>
 <path fill="none" stroke="rgb(179,179,179)" stroke-linejoin="round" d="M 4447,22389 L 4447,22239"/>
 <path fill="none" stroke="rgb(179,179,179)" stroke-linejoin="round" d="M 4545,22389 L 4545,22239"/>
 <path fill="none" stroke="rgb(179,179,179)" stroke-linejoin="round" d="M 4545,22389 L 4545,22239"/>
 <path fill="none" stroke="rgb(179,179,179)" stroke-linejoin="round" d="M 4643,22389 L 4643,22239"/>
 <path fill="none" stroke="rgb(179,179,179)" stroke-linejoin="round" d="M 4643,22389 L 4643,22239"/>
 <path fill="none" stroke="rgb(179,179,179)" stroke-linejoin="round" d="M 4741,22389 L 4741,22239"/>
 <path fill="none" stroke="rgb(179,179,179)" stroke-linejoin="round" d="M 4741,22389 L 4741,22239"/>
 <path fill="none" stroke="rgb(179,179,179)" stroke-linejoin="round" d="M 4839,22389 L 4839,22239"/>
 <path fill="none" stroke="rgb(179,179,179)" stroke-linejoin="round" d="M 4839,22389 L 4839,22239"/>
 <path fill="none" stroke="rgb(179,179,179)" stroke-linejoin="round" d="M 4937,22389 L 4937,22239"/>
 <path fill="none" stroke="rgb(179,179,179)" stroke-linejoin="round" d="M 4937,22389 L 4937,22239"/>
 <path fill="none" stroke="rgb(179,179,179)" stroke-linejoin="round" d="M 5035,22389 L 5035,22239"/>
 <path fill="none" stroke="rgb(179,179,179)" stroke-linejoin="round" d="M 5035,22389 L 5035,22239"/>
 <path fill="none" stroke="rgb(179,179,179)" stroke-linejoin="round" d="M 5132,22389 L 5132,22239"/>
 <path fill="none" stroke="rgb(179,179,179)" stroke-linejoin="round" d="M 5132,22389 L 5132,22239"/>
 <path fill="none" stroke="rgb(179,179,179)" stroke-linejoin="round" d="M 5230,22389 L 5230,22239"/>
 <path fill="none" stroke="rgb(179,179,179)" stroke-linejoin="round" d="M 5230,22389 L 5230,22239"/>
 <path fill="none" stroke="rgb(179,179,179)" stroke-linejoin="round" d="M 5328,22389 L 5328,22239"/>
 <path fill="none" stroke="rgb(179,179,179)" stroke-linejoin="round" d="M 5328,22389 L 5328,22239"/>
 <path fill="none" stroke="rgb(179,179,179)" stroke-linejoin="round" d="M 5426,22389 L 5426,22239"/>
 <path fill="none" stroke="rgb(179,179,179)" stroke-linejoin="round" d="M 5426,22389 L 5426,22239"/>
 <path fill="none" stroke="rgb(179,179,179)" stroke-linejoin="round" d="M 5524,22389 L 5524,22239"/>
 <path fill="none" stroke="rgb(179,179,179)" stroke-linejoin="round" d="M 5524,22389 L 5524,22239"/>
 <path fill="none" stroke="rgb(179,179,179)" stroke-linejoin="round" d="M 5622,22389 L 5622,22239"/>
 <path fill="none" stroke="rgb(179,179,179)" stroke-linejoin="round" d="M 5622,22389 L 5622,22239"/>
 <path fill="none" stroke="rgb(179,179,179)" stroke-linejoin="round" d="M 5720,22389 L 5720,22239"/>
 <path fill="none" stroke="rgb(179,179,179)" stroke-linejoin="round" d="M 5720,22389 L 5720,22239"/>
 <path fill="none" stroke="rgb(179,179,179)" stroke-linejoin="round" d="M 5818,22389 L 5818,22239"/>
 <path fill="none" stroke="rgb(179,179,179)" stroke-linejoin="round" d="M 5818,22389 L 5818,22239"/>
 <path fill="none" stroke="rgb(179,179,179)" stroke-linejoin="round" d="M 5916,22389 L 5916,22239"/>
 <path fill="none" stroke="rgb(179,179,179)" stroke-linejoin="round" d="M 5916,22389 L 5916,22239"/>
 <path fill="none" stroke="rgb(179,179,179)" stroke-linejoin="round" d="M 6013,22389 L 6013,22239"/>
 <path fill="none" stroke="rgb(179,179,179)" stroke-linejoin="round" d="M 6013,22389 L 6013,22239"/>
 <path fill="none" stroke="rgb(179,179,179)" stroke-linejoin="round" d="M 6111,22389 L 6111,22239"/>
 <path fill="none" stroke="rgb(179,179,179)" stroke-linejoin="round" d="M 6111,22389 L 6111,22239"/>
 <path fill="none" stroke="rgb(179,179,179)" stroke-linejoin="round" d="M 6209,22389 L 6209,22239"/>
 <path fill="none" stroke="rgb(179,179,179)" stroke-linejoin="round" d="M 6209,22389 L 6209,22239"/>
 <path fill="none" stroke="rgb(179,179,179)" stroke-linejoin="round" d="M 6307,22389 L 6307,22239"/>
 <path fill="none" stroke="rgb(179,179,179)" stroke-linejoin="round" d="M 6307,22389 L 6307,22239"/>
 <path fill="none" stroke="rgb(179,179,179)" stroke-linejoin="round" d="M 6405,22389 L 6405,22239"/>
 <path fill="none" stroke="rgb(179,179,179)" stroke-linejoin="round" d="M 6405,22389 L 6405,22239"/>
 <path fill="none" stroke="rgb(179,179,179)" stroke-linejoin="round" d="M 6503,22389 L 6503,22239"/>
 <path fill="none" stroke="rgb(179,179,179)" stroke-linejoin="round" d="M 6503,22389 L 6503,22239"/>
 <path fill="none" stroke="rgb(179,179,179)" stroke-linejoin="round" d="M 6601,22389 L 6601,22239"/>
 <path fill="none" stroke="rgb(179,179,179)" stroke-linejoin="round" d="M 6601,22389 L 6601,22239"/>
 <path fill="none" stroke="rgb(179,179,179)" stroke-linejoin="round" d="M 6699,22389 L 6699,22239"/>
 <path fill="none" stroke="rgb(179,179,179)" stroke-linejoin="round" d="M 6699,22389 L 6699,22239"/>
 <path fill="none" stroke="rgb(179,179,179)" stroke-linejoin="round" d="M 6797,22389 L 6797,22239"/>
 <path fill="none" stroke="rgb(179,179,179)" stroke-linejoin="round" d="M 6797,22389 L 6797,22239"/>
 <path fill="none" stroke="rgb(179,179,179)" stroke-linejoin="round" d="M 6894,22389 L 6894,22239"/>
 <path fill="none" stroke="rgb(179,179,179)" stroke-linejoin="round" d="M 6894,22389 L 6894,22239"/>
 <path fill="none" stroke="rgb(179,179,179)" stroke-linejoin="round" d="M 6992,22389 L 6992,22239"/>
 <path fill="none" stroke="rgb(179,179,179)" stroke-linejoin="round" d="M 6992,22389 L 6992,22239"/>
 <path fill="none" stroke="rgb(179,179,179)" stroke-linejoin="round" d="M 7090,22389 L 7090,22239"/>
 <path fill="none" stroke="rgb(179,179,179)" stroke-linejoin="round" d="M 7090,22389 L 7090,22239"/>
 <path fill="none" stroke="rgb(179,179,179)" stroke-linejoin="round" d="M 7188,22389 L 7188,22239"/>
 <path fill="none" stroke="rgb(179,179,179)" stroke-linejoin="round" d="M 7188,22389 L 7188,22239"/>
 <path fill="none" stroke="rgb(179,179,179)" stroke-linejoin="round" d="M 7286,22389 L 7286,22239"/>
 <path fill="none" stroke="rgb(179,179,179)" stroke-linejoin="round" d="M 7286,22389 L 7286,22239"/>
 <path fill="none" stroke="rgb(179,179,179)" stroke-linejoin="round" d="M 7384,22389 L 7384,22239"/>
 <path fill="none" stroke="rgb(179,179,179)" stroke-linejoin="round" d="M 7384,22389 L 7384,22239"/>
 <path fill="none" stroke="rgb(179,179,179)" stroke-linejoin="round" d="M 7482,22389 L 7482,22239"/>
 <path fill="none" stroke="rgb(179,179,179)" stroke-linejoin="round" d="M 7482,22389 L 7482,22239"/>
 <path fill="none" stroke="rgb(179,179,179)" stroke-linejoin="round" d="M 7580,22389 L 7580,22239"/>
 <path fill="none" stroke="rgb(179,179,179)" stroke-linejoin="round" d="M 7580,22389 L 7580,22239"/>
 <path fill="none" stroke="rgb(179,179,179)" stroke-linejoin="round" d="M 7678,22389 L 7678,22239"/>
 <path fill="none" stroke="rgb(179,179,179)" stroke-linejoin="round" d="M 7678,22389 L 7678,22239"/>
 <path fill="none" stroke="rgb(179,179,179)" stroke-linejoin="round" d="M 7775,22389 L 7775,22239"/>
 <path fill="none" stroke="rgb(179,179,179)" stroke-linejoin="round" d="M 7775,22389 L 7775,22239"/>
 <path fill="none" stroke="rgb(179,179,179)" stroke-linejoin="round" d="M 7873,22389 L 7873,22239"/>
 <path fill="none" stroke="rgb(179,179,179)" stroke-linejoin="round" d="M 7873,22389 L 7873,22239"/>
 <path fill="none" stroke="rgb(179,179,179)" stroke-linejoin="round" d="M 7971,22389 L 7971,22239"/>
 <path fill="none" stroke="rgb(179,179,179)" stroke-linejoin="round" d="M 7971,22389 L 7971,22239"/>
 <path fill="none" stroke="rgb(179,179,179)" stroke-linejoin="round" d="M 8069,22389 L 8069,22239"/>
 <path fill="none" stroke="rgb(179,179,179)" stroke-linejoin="round" d="M 8069,22389 L 8069,22239"/>
 <path fill="none" stroke="rgb(179,179,179)" stroke-linejoin="round" d="M 8167,22389 L 8167,22239"/>
 <path fill="none" stroke="rgb(179,179,179)" stroke-linejoin="round" d="M 8167,22389 L 8167,22239"/>
 <path fill="none" stroke="rgb(179,179,179)" stroke-linejoin="round" d="M 8265,22389 L 8265,22239"/>
 <path fill="none" stroke="rgb(179,179,179)" stroke-linejoin="round" d="M 8265,22389 L 8265,22239"/>
 <path fill="none" stroke="rgb(179,179,179)" stroke-linejoin="round" d="M 8363,22389 L 8363,22239"/>
 <path fill="none" stroke="rgb(179,179,179)" stroke-linejoin="round" d="M 8363,22389 L 8363,22239"/>
 <path fill="none" stroke="rgb(179,179,179)" stroke-linejoin="round" d="M 8461,22389 L 8461,22239"/>
 <path fill="none" stroke="rgb(179,179,179)" stroke-linejoin="round" d="M 8461,22389 L 8461,22239"/>
 <path fill="none" stroke="rgb(179,179,179)" stroke-linejoin="round" d="M 8559,22389 L 8559,22239"/>
 <path fill="none" stroke="rgb(179,179,179)" stroke-linejoin="round" d="M 8559,22389 L 8559,22239"/>
 <path fill="none" stroke="rgb(179,179,179)" stroke-linejoin="round" d="M 8657,22389 L 8657,22239"/>
 <path fill="none" stroke="rgb(179,179,179)" stroke-linejoin="round" d="M 8657,22389 L 8657,22239"/>
 <path fill="none" stroke="rgb(179,179,179)" stroke-linejoin="round" d="M 8754,22389 L 8754,22239"/>
 <path fill="none" stroke="rgb(179,179,179)" stroke-linejoin="round" d="M 8754,22389 L 8754,22239"/>
 <path fill="none" stroke="rgb(179,179,179)" stroke-linejoin="round" d="M 8852,22389 L 8852,22239"/>
 <path fill="none" stroke="rgb(179,179,179)" stroke-linejoin="round" d="M 8852,22389 L 8852,22239"/>
 <path fill="none" stroke="rgb(179,179,179)" stroke-linejoin="round" d="M 8950,22389 L 8950,22239"/>
 <path fill="none" stroke="rgb(179,179,179)" stroke-linejoin="round" d="M 8950,22389 L 8950,22239"/>
 <path fill="none" stroke="rgb(179,179,179)" stroke-linejoin="round" d="M 9048,22389 L 9048,22239"/>
 <path fill="none" stroke="rgb(179,179,179)" stroke-linejoin="round" d="M 9048,22389 L 9048,22239"/>
 <path fill="none" stroke="rgb(179,179,179)" stroke-linejoin="round" d="M 9146,22389 L 9146,22239"/>
 <path fill="none" stroke="rgb(179,179,179)" stroke-linejoin="round" d="M 9146,22389 L 9146,22239"/>
 <path fill="none" stroke="rgb(179,179,179)" stroke-linejoin="round" d="M 9244,22389 L 9244,22239"/>
 <path fill="none" stroke="rgb(179,179,179)" stroke-linejoin="round" d="M 9244,22389 L 9244,22239"/>
 <path fill="none" stroke="rgb(179,179,179)" stroke-linejoin="round" d="M 9342,22389 L 9342,22239"/>
 <path fill="none" stroke="rgb(179,179,179)" stroke-linejoin="round" d="M 9342,22389 L 9342,22239"/>
 <path fill="none" stroke="rgb(179,179,179)" stroke-linejoin="round" d="M 9440,22389 L 9440,22239"/>
 <path fill="none" stroke="rgb(179,179,179)" stroke-linejoin="round" d="M 9440,22389 L 9440,22239"/>
 <path fill="none" stroke="rgb(179,179,179)" stroke-linejoin="round" d="M 9538,22389 L 9538,22239"/>
 <path fill="none" stroke="rgb(179,179,179)" stroke-linejoin="round" d="M 9538,22389 L 9538,22239"/>
 <path fill="none" stroke="rgb(179,179,179)" stroke-linejoin="round" d="M 9635,22389 L 9635,22239"/>
 <path fill="none" stroke="rgb(179,179,179)" stroke-linejoin="round" d="M 9635,22389 L 9635,22239"/>
 <path fill="none" stroke="rgb(179,179,179)" stroke-linejoin="round" d="M 9733,22389 L 9733,22239"/>
 <path fill="none" stroke="rgb(179,179,179)" stroke-linejoin="round" d="M 9733,22389 L 9733,22239"/>
 <path fill="none" stroke="rgb(179,179,179)" stroke-linejoin="round" d="M 9831,22389 L 9831,22239"/>
 <path fill="none" stroke="rgb(179,179,179)" stroke-linejoin="round" d="M 9831,22389 L 9831,22239"/>
 <path fill="none" stroke="rgb(179,179,179)" stroke-linejoin="round" d="M 9929,22389 L 9929,22239"/>
 <path fill="none" stroke="rgb(179,179,179)" stroke-linejoin="round" d="M 9929,22389 L 9929,22239"/>
 <path fill="none" stroke="rgb(179,179,179)" stroke-linejoin="round" d="M 10027,22389 L 10027,22239"/>
 <path fill="none" stroke="rgb(179,179,179)" stroke-linejoin="round" d="M 10027,22389 L 10027,22239"/>
 <path fill="none" stroke="rgb(179,179,179)" stroke-linejoin="round" d="M 10125,22389 L 10125,22239"/>
 <path fill="none" stroke="rgb(179,179,179)" stroke-linejoin="round" d="M 10125,22389 L 10125,22239"/>
 <path fill="none" stroke="rgb(179,179,179)" stroke-linejoin="round" d="M 10223,22389 L 10223,22239"/>
 <path fill="none" stroke="rgb(179,179,179)" stroke-linejoin="round" d="M 10223,22389 L 10223,22239"/>
 <path fill="none" stroke="rgb(179,179,179)" stroke-linejoin="round" d="M 10321,22389 L 10321,22239"/>
 <path fill="none" stroke="rgb(179,179,179)" stroke-linejoin="round" d="M 10321,22389 L 10321,22239"/>
 <path fill="none" stroke="rgb(179,179,179)" stroke-linejoin="round" d="M 10419,22389 L 10419,22239"/>
 <path fill="none" stroke="rgb(179,179,179)" stroke-linejoin="round" d="M 10419,22389 L 10419,22239"/>
 <path fill="none" stroke="rgb(179,179,179)" stroke-linejoin="round" d="M 10516,22389 L 10516,22239"/>
 <path fill="none" stroke="rgb(179,179,179)" stroke-linejoin="round" d="M 10516,22389 L 10516,22239"/>
 <path fill="none" stroke="rgb(179,179,179)" stroke-linejoin="round" d="M 10614,22389 L 10614,22239"/>
 <path fill="none" stroke="rgb(179,179,179)" stroke-linejoin="round" d="M 10614,22389 L 10614,22239"/>
 <path fill="none" stroke="rgb(179,179,179)" stroke-linejoin="round" d="M 10712,22389 L 10712,22239"/>
 <path fill="none" stroke="rgb(179,179,179)" stroke-linejoin="round" d="M 10712,22389 L 10712,22239"/>
 <path fill="none" stroke="rgb(179,179,179)" stroke-linejoin="round" d="M 10810,22389 L 10810,22239"/>
 <path fill="none" stroke="rgb(179,179,179)" stroke-linejoin="round" d="M 10810,22389 L 10810,22239"/>
 <path fill="none" stroke="rgb(179,179,179)" stroke-linejoin="round" d="M 10908,22389 L 10908,22239"/>
 <path fill="none" stroke="rgb(179,179,179)" stroke-linejoin="round" d="M 10908,22389 L 10908,22239"/>
 <path fill="none" stroke="rgb(179,179,179)" stroke-linejoin="round" d="M 11006,22389 L 11006,22239"/>
 <path fill="none" stroke="rgb(179,179,179)" stroke-linejoin="round" d="M 11006,22389 L 11006,22239"/>
 <path fill="none" stroke="rgb(179,179,179)" stroke-linejoin="round" d="M 11104,22389 L 11104,22239"/>
 <path fill="none" stroke="rgb(179,179,179)" stroke-linejoin="round" d="M 11104,22389 L 11104,22239"/>
 <path fill="none" stroke="rgb(179,179,179)" stroke-linejoin="round" d="M 11202,22389 L 11202,22239"/>
 <path fill="none" stroke="rgb(179,179,179)" stroke-linejoin="round" d="M 11202,22389 L 11202,22239"/>
 <path fill="none" stroke="rgb(179,179,179)" stroke-linejoin="round" d="M 11300,22389 L 11300,22239"/>
 <path fill="none" stroke="rgb(179,179,179)" stroke-linejoin="round" d="M 11300,22389 L 11300,22239"/>
 <path fill="none" stroke="rgb(179,179,179)" stroke-linejoin="round" d="M 11397,22389 L 11397,22239"/>
 <path fill="none" stroke="rgb(179,179,179)" stroke-linejoin="round" d="M 11397,22389 L 11397,22239"/>
 <path fill="none" stroke="rgb(179,179,179)" stroke-linejoin="round" d="M 11495,22389 L 11495,22239"/>
 <path fill="none" stroke="rgb(179,179,179)" stroke-linejoin="round" d="M 11495,22389 L 11495,22239"/>
 <path fill="none" stroke="rgb(179,179,179)" stroke-linejoin="round" d="M 11593,22389 L 11593,22239"/>
 <path fill="none" stroke="rgb(179,179,179)" stroke-linejoin="round" d="M 11593,22389 L 11593,22239"/>
 <path fill="none" stroke="rgb(179,179,179)" stroke-linejoin="round" d="M 11691,22389 L 11691,22239"/>
 <path fill="none" stroke="rgb(179,179,179)" stroke-linejoin="round" d="M 11691,22389 L 11691,22239"/>
 <path fill="none" stroke="rgb(179,179,179)" stroke-linejoin="round" d="M 11789,22389 L 11789,22239"/>
 <path fill="none" stroke="rgb(179,179,179)" stroke-linejoin="round" d="M 11789,22389 L 11789,22239"/>
 <path fill="none" stroke="rgb(179,179,179)" stroke-linejoin="round" d="M 11886,22389 L 11886,22239"/>
 <path fill="none" stroke="rgb(179,179,179)" stroke-linejoin="round" d="M 11886,22389 L 11886,22239"/>
 <path fill="none" stroke="rgb(179,179,179)" stroke-linejoin="round" d="M 11984,22389 L 11984,22239"/>
 <path fill="none" stroke="rgb(179,179,179)" stroke-linejoin="round" d="M 11984,22389 L 11984,22239"/>
 <path fill="none" stroke="rgb(179,179,179)" stroke-linejoin="round" d="M 12082,22389 L 12082,22239"/>
 <path fill="none" stroke="rgb(179,179,179)" stroke-linejoin="round" d="M 12082,22389 L 12082,22239"/>
 <path fill="none" stroke="rgb(179,179,179)" stroke-linejoin="round" d="M 12180,22389 L 12180,22239"/>
 <path fill="none" stroke="rgb(179,179,179)" stroke-linejoin="round" d="M 12180,22389 L 12180,22239"/>
 <path fill="none" stroke="rgb(179,179,179)" stroke-linejoin="round" d="M 12278,22389 L 12278,22239"/>
 <path fill="none" stroke="rgb(179,179,179)" stroke-linejoin="round" d="M 12278,22389 L 12278,22239"/>
 <path fill="none" stroke="rgb(179,179,179)" stroke-linejoin="round" d="M 12375,22389 L 12375,22239"/>
 <path fill="none" stroke="rgb(179,179,179)" stroke-linejoin="round" d="M 12375,22389 L 12375,22239"/>
 <path fill="none" stroke="rgb(179,179,179)" stroke-linejoin="round" d="M 12473,22389 L 12473,22239"/>
 <path fill="none" stroke="rgb(179,179,179)" stroke-linejoin="round" d="M 12473,22389 L 12473,22239"/>
 <path fill="none" stroke="rgb(179,179,179)" stroke-linejoin="round" d="M 12571,22389 L 12571,22239"/>
 <path fill="none" stroke="rgb(179,179,179)" stroke-linejoin="round" d="M 12571,22389 L 12571,22239"/>
 <path fill="none" stroke="rgb(179,179,179)" stroke-linejoin="round" d="M 12669,22389 L 12669,22239"/>
 <path fill="none" stroke="rgb(179,179,179)" stroke-linejoin="round" d="M 12669,22389 L 12669,22239"/>
 <path fill="none" stroke="rgb(179,179,179)" stroke-linejoin="round" d="M 12767,22389 L 12767,22239"/>
 <path fill="none" stroke="rgb(179,179,179)" stroke-linejoin="round" d="M 12767,22389 L 12767,22239"/>
 <path fill="none" stroke="rgb(179,179,179)" stroke-linejoin="round" d="M 12865,22389 L 12865,22239"/>
 <path fill="none" stroke="rgb(179,179,179)" stroke-linejoin="round" d="M 12865,22389 L 12865,22239"/>
 <path fill="none" stroke="rgb(179,179,179)" stroke-linejoin="round" d="M 12963,22389 L 12963,22239"/>
 <path fill="none" stroke="rgb(179,179,179)" stroke-linejoin="round" d="M 12963,22389 L 12963,22239"/>
 <path fill="none" stroke="rgb(179,179,179)" stroke-linejoin="round" d="M 13061,22389 L 13061,22239"/>
 <path fill="none" stroke="rgb(179,179,179)" stroke-linejoin="round" d="M 13061,22389 L 13061,22239"/>
 <path fill="none" stroke="rgb(179,179,179)" stroke-linejoin="round" d="M 13159,22389 L 13159,22239"/>
 <path fill="none" stroke="rgb(179,179,179)" stroke-linejoin="round" d="M 13159,22389 L 13159,22239"/>
 <path fill="none" stroke="rgb(179,179,179)" stroke-linejoin="round" d="M 13256,22389 L 13256,22239"/>
 <path fill="none" stroke="rgb(179,179,179)" stroke-linejoin="round" d="M 13256,22389 L 13256,22239"/>
 <path fill="none" stroke="rgb(179,179,179)" stroke-linejoin="round" d="M 13354,22389 L 13354,22239"/>
 <path fill="none" stroke="rgb(179,179,179)" stroke-linejoin="round" d="M 13354,22389 L 13354,22239"/>
 <path fill="none" stroke="rgb(179,179,179)" stroke-linejoin="round" d="M 13452,22389 L 13452,22239"/>
 <path fill="none" stroke="rgb(179,179,179)" stroke-linejoin="round" d="M 13452,22389 L 13452,22239"/>
 <path fill="none" stroke="rgb(179,179,179)" stroke-linejoin="round" d="M 13550,22389 L 13550,22239"/>
 <path fill="none" stroke="rgb(179,179,179)" stroke-linejoin="round" d="M 13550,22389 L 13550,22239"/>
 <path fill="none" stroke="rgb(179,179,179)" stroke-linejoin="round" d="M 13648,22389 L 13648,22239"/>
 <path fill="none" stroke="rgb(179,179,179)" stroke-linejoin="round" d="M 13648,22389 L 13648,22239"/>
 <path fill="none" stroke="rgb(179,179,179)" stroke-linejoin="round" d="M 13746,22389 L 13746,22239"/>
 <path fill="none" stroke="rgb(179,179,179)" stroke-linejoin="round" d="M 13746,22389 L 13746,22239"/>
 <path fill="none" stroke="rgb(179,179,179)" stroke-linejoin="round" d="M 13844,22389 L 13844,22239"/>
 <path fill="none" stroke="rgb(179,179,179)" stroke-linejoin="round" d="M 13844,22389 L 13844,22239"/>
 <path fill="none" stroke="rgb(179,179,179)" stroke-linejoin="round" d="M 13942,22389 L 13942,22239"/>
 <path fill="none" stroke="rgb(179,179,179)" stroke-linejoin="round" d="M 13942,22389 L 13942,22239"/>
 <path fill="none" stroke="rgb(179,179,179)" stroke-linejoin="round" d="M 14040,22389 L 14040,22239"/>
 <path fill="none" stroke="rgb(179,179,179)" stroke-linejoin="round" d="M 14040,22389 L 14040,22239"/>
 <path fill="none" stroke="rgb(179,179,179)" stroke-linejoin="round" d="M 14137,22389 L 14137,22239"/>
 <path fill="none" stroke="rgb(179,179,179)" stroke-linejoin="round" d="M 14137,22389 L 14137,22239"/>
 <path fill="none" stroke="rgb(179,179,179)" stroke-linejoin="round" d="M 14235,22389 L 14235,22239"/>
 <path fill="none" stroke="rgb(179,179,179)" stroke-linejoin="round" d="M 14235,22389 L 14235,22239"/>
 <path fill="none" stroke="rgb(179,179,179)" stroke-linejoin="round" d="M 14333,22389 L 14333,22239"/>
 <path fill="none" stroke="rgb(179,179,179)" stroke-linejoin="round" d="M 14333,22389 L 14333,22239"/>
 <path fill="none" stroke="rgb(179,179,179)" stroke-linejoin="round" d="M 14431,22389 L 14431,22239"/>
 <path fill="none" stroke="rgb(179,179,179)" stroke-linejoin="round" d="M 14431,22389 L 14431,22239"/>
 <path fill="none" stroke="rgb(179,179,179)" stroke-linejoin="round" d="M 14529,22389 L 14529,22239"/>
 <path fill="none" stroke="rgb(179,179,179)" stroke-linejoin="round" d="M 14529,22389 L 14529,22239"/>
 <path fill="none" stroke="rgb(179,179,179)" stroke-linejoin="round" d="M 14627,22389 L 14627,22239"/>
 <path fill="none" stroke="rgb(179,179,179)" stroke-linejoin="round" d="M 14627,22389 L 14627,22239"/>
 <path fill="none" stroke="rgb(179,179,179)" stroke-linejoin="round" d="M 14725,22389 L 14725,22239"/>
 <path fill="none" stroke="rgb(179,179,179)" stroke-linejoin="round" d="M 14725,22389 L 14725,22239"/>
 <path fill="none" stroke="rgb(179,179,179)" stroke-linejoin="round" d="M 14823,22389 L 14823,22239"/>
 <path fill="none" stroke="rgb(179,179,179)" stroke-linejoin="round" d="M 14823,22389 L 14823,22239"/>
 <path fill="none" stroke="rgb(179,179,179)" stroke-linejoin="round" d="M 14921,22389 L 14921,22239"/>
 <path fill="none" stroke="rgb(179,179,179)" stroke-linejoin="round" d="M 14921,22389 L 14921,22239"/>
 <path fill="none" stroke="rgb(179,179,179)" stroke-linejoin="round" d="M 15018,22389 L 15018,22239"/>
 <path fill="none" stroke="rgb(179,179,179)" stroke-linejoin="round" d="M 15018,22389 L 15018,22239"/>
 <path fill="none" stroke="rgb(179,179,179)" stroke-linejoin="round" d="M 15116,22389 L 15116,22239"/>
 <path fill="none" stroke="rgb(179,179,179)" stroke-linejoin="round" d="M 15116,22389 L 15116,22239"/>
 <path fill="none" stroke="rgb(179,179,179)" stroke-linejoin="round" d="M 15214,22389 L 15214,22239"/>
 <path fill="none" stroke="rgb(179,179,179)" stroke-linejoin="round" d="M 15214,22389 L 15214,22239"/>
 <path fill="none" stroke="rgb(179,179,179)" stroke-linejoin="round" d="M 15312,22389 L 15312,22239"/>
 <path fill="none" stroke="rgb(179,179,179)" stroke-linejoin="round" d="M 15312,22389 L 15312,22239"/>
 <path fill="none" stroke="rgb(179,179,179)" stroke-linejoin="round" d="M 15410,22389 L 15410,22239"/>
 <path fill="none" stroke="rgb(179,179,179)" stroke-linejoin="round" d="M 15410,22389 L 15410,22239"/>
 <path fill="none" stroke="rgb(179,179,179)" stroke-linejoin="round" d="M 15508,22389 L 15508,22239"/>
 <path fill="none" stroke="rgb(179,179,179)" stroke-linejoin="round" d="M 15508,22389 L 15508,22239"/>
 <path fill="none" stroke="rgb(179,179,179)" stroke-linejoin="round" d="M 15606,22389 L 15606,22239"/>
 <path fill="none" stroke="rgb(179,179,179)" stroke-linejoin="round" d="M 15606,22389 L 15606,22239"/>
 <path fill="none" stroke="rgb(179,179,179)" stroke-linejoin="round" d="M 15704,22389 L 15704,22239"/>
 <path fill="none" stroke="rgb(179,179,179)" stroke-linejoin="round" d="M 15704,22389 L 15704,22239"/>
 <path fill="none" stroke="rgb(179,179,179)" stroke-linejoin="round" d="M 15802,22389 L 15802,22239"/>
 <path fill="none" stroke="rgb(179,179,179)" stroke-linejoin="round" d="M 15802,22389 L 15802,22239"/>
 <path fill="none" stroke="rgb(179,179,179)" stroke-linejoin="round" d="M 15900,22389 L 15900,22239"/>
 <path fill="none" stroke="rgb(179,179,179)" stroke-linejoin="round" d="M 15900,22389 L 15900,22239"/>
 <path fill="none" stroke="rgb(179,179,179)" stroke-linejoin="round" d="M 15997,22389 L 15997,22239"/>
 <path fill="none" stroke="rgb(179,179,179)" stroke-linejoin="round" d="M 15997,22389 L 15997,22239"/>
 <path fill="none" stroke="rgb(179,179,179)" stroke-linejoin="round" d="M 16095,22389 L 16095,22239"/>
 <path fill="none" stroke="rgb(179,179,179)" stroke-linejoin="round" d="M 16095,22389 L 16095,22239"/>
 <path fill="none" stroke="rgb(179,179,179)" stroke-linejoin="round" d="M 16193,22389 L 16193,22239"/>
 <path fill="none" stroke="rgb(179,179,179)" stroke-linejoin="round" d="M 16193,22389 L 16193,22239"/>
 <path fill="none" stroke="rgb(179,179,179)" stroke-linejoin="round" d="M 16291,22389 L 16291,22239"/>
 <path fill="none" stroke="rgb(179,179,179)" stroke-linejoin="round" d="M 16291,22389 L 16291,22239"/>
 <path fill="none" stroke="rgb(179,179,179)" stroke-linejoin="round" d="M 16389,22389 L 16389,22239"/>
 <path fill="none" stroke="rgb(179,179,179)" stroke-linejoin="round" d="M 16389,22389 L 16389,22239"/>
 <path fill="none" stroke="rgb(179,179,179)" stroke-linejoin="round" d="M 16487,22389 L 16487,22239"/>
 <path fill="none" stroke="rgb(179,179,179)" stroke-linejoin="round" d="M 16487,22389 L 16487,22239"/>
 <path fill="none" stroke="rgb(179,179,179)" stroke-linejoin="round" d="M 16585,22389 L 16585,22239"/>
 <path fill="none" stroke="rgb(179,179,179)" stroke-linejoin="round" d="M 16585,22389 L 16585,22239"/>
 <path fill="none" stroke="rgb(179,179,179)" stroke-linejoin="round" d="M 16683,22389 L 16683,22239"/>
 <path fill="none" stroke="rgb(179,179,179)" stroke-linejoin="round" d="M 16683,22389 L 16683,22239"/>
 <path fill="none" stroke="rgb(179,179,179)" stroke-linejoin="round" d="M 16781,22389 L 16781,22239"/>
 <path fill="none" stroke="rgb(179,179,179)" stroke-linejoin="round" d="M 16781,22389 L 16781,22239"/>
 <path fill="none" stroke="rgb(179,179,179)" stroke-linejoin="round" d="M 16878,22389 L 16878,22239"/>
 <path fill="none" stroke="rgb(179,179,179)" stroke-linejoin="round" d="M 16878,22389 L 16878,22239"/>
 <path fill="none" stroke="rgb(179,179,179)" stroke-linejoin="round" d="M 16976,22389 L 16976,22239"/>
 <path fill="none" stroke="rgb(179,179,179)" stroke-linejoin="round" d="M 16976,22389 L 16976,22239"/>
 <path fill="none" stroke="rgb(179,179,179)" stroke-linejoin="round" d="M 17074,22389 L 17074,22239"/>
 <path fill="none" stroke="rgb(179,179,179)" stroke-linejoin="round" d="M 17074,22389 L 17074,22239"/>
 <path fill="none" stroke="rgb(179,179,179)" stroke-linejoin="round" d="M 17172,22389 L 17172,22239"/>
 <path fill="none" stroke="rgb(179,179,179)" stroke-linejoin="round" d="M 17172,22389 L 17172,22239"/>
 <path fill="none" stroke="rgb(179,179,179)" stroke-linejoin="round" d="M 17270,22389 L 17270,22239"/>
 <path fill="none" stroke="rgb(179,179,179)" stroke-linejoin="round" d="M 17270,22389 L 17270,22239"/>
 <path fill="none" stroke="rgb(179,179,179)" stroke-linejoin="round" d="M 17368,22389 L 17368,22239"/>
 <path fill="none" stroke="rgb(179,179,179)" stroke-linejoin="round" d="M 17368,22389 L 17368,22239"/>
 <path fill="none" stroke="rgb(179,179,179)" stroke-linejoin="round" d="M 17466,22389 L 17466,22239"/>
 <path fill="none" stroke="rgb(179,179,179)" stroke-linejoin="round" d="M 17466,22389 L 17466,22239"/>
 <path fill="none" stroke="rgb(179,179,179)" stroke-linejoin="round" d="M 17564,22389 L 17564,22239"/>
 <path fill="none" stroke="rgb(179,179,179)" stroke-linejoin="round" d="M 17564,22389 L 17564,22239"/>
 <path fill="none" stroke="rgb(179,179,179)" stroke-linejoin="round" d="M 17662,22389 L 17662,22239"/>
 <path fill="none" stroke="rgb(179,179,179)" stroke-linejoin="round" d="M 17662,22389 L 17662,22239"/>
 <path fill="none" stroke="rgb(179,179,179)" stroke-linejoin="round" d="M 17759,22389 L 17759,22239"/>
 <path fill="none" stroke="rgb(179,179,179)" stroke-linejoin="round" d="M 17759,22389 L 17759,22239"/>
 <path fill="none" stroke="rgb(179,179,179)" stroke-linejoin="round" d="M 17857,22389 L 17857,22239"/>
 <path fill="none" stroke="rgb(179,179,179)" stroke-linejoin="round" d="M 17857,22389 L 17857,22239"/>
 <path fill="none" stroke="rgb(179,179,179)" stroke-linejoin="round" d="M 17955,22389 L 17955,22239"/>
 <path fill="none" stroke="rgb(179,179,179)" stroke-linejoin="round" d="M 17955,22389 L 17955,22239"/>
 <path fill="none" stroke="rgb(179,179,179)" stroke-linejoin="round" d="M 18053,22389 L 18053,22239"/>
 <path fill="none" stroke="rgb(179,179,179)" stroke-linejoin="round" d="M 18053,22389 L 18053,22239"/>
 <path fill="none" stroke="rgb(179,179,179)" stroke-linejoin="round" d="M 18151,22389 L 18151,22239"/>
 <path fill="none" stroke="rgb(179,179,179)" stroke-linejoin="round" d="M 18151,22389 L 18151,22239"/>
 <path fill="none" stroke="rgb(179,179,179)" stroke-linejoin="round" d="M 18249,22389 L 18249,22239"/>
 <path fill="none" stroke="rgb(179,179,179)" stroke-linejoin="round" d="M 18249,22389 L 18249,22239"/>
 <path fill="none" stroke="rgb(179,179,179)" stroke-linejoin="round" d="M 18347,22389 L 18347,22239"/>
 <path fill="none" stroke="rgb(179,179,179)" stroke-linejoin="round" d="M 18347,22389 L 18347,22239"/>
 <path fill="none" stroke="rgb(179,179,179)" stroke-linejoin="round" d="M 18445,22389 L 18445,22239"/>
 <path fill="none" stroke="rgb(179,179,179)" stroke-linejoin="round" d="M 18445,22389 L 18445,22239"/>
 <path fill="none" stroke="rgb(179,179,179)" stroke-linejoin="round" d="M 18543,22389 L 18543,22239"/>
 <path fill="none" stroke="rgb(179,179,179)" stroke-linejoin="round" d="M 18543,22389 L 18543,22239"/>
 <path fill="none" stroke="rgb(179,179,179)" stroke-linejoin="round" d="M 18641,22389 L 18641,22239"/>
 <path fill="none" stroke="rgb(179,179,179)" stroke-linejoin="round" d="M 18641,22389 L 18641,22239"/>
 <path fill="none" stroke="rgb(179,179,179)" stroke-linejoin="round" d="M 1413,22239 L 18641,22239"/>
 <path fill="none" stroke="rgb(179,179,179)" stroke-linejoin="round" d="M 1263,22239 L 1413,22239"/>
 <path fill="none" stroke="rgb(179,179,179)" stroke-linejoin="round" d="M 1263,22239 L 1413,22239"/>
 <path fill="none" stroke="rgb(179,179,179)" stroke-linejoin="round" d="M 1263,17086 L 1413,17086"/>
 <path fill="none" stroke="rgb(179,179,179)" stroke-linejoin="round" d="M 1263,17086 L 1413,17086"/>
 <path fill="none" stroke="rgb(179,179,179)" stroke-linejoin="round" d="M 1263,11933 L 1413,11933"/>
 <path fill="none" stroke="rgb(179,179,179)" stroke-linejoin="round" d="M 1263,11933 L 1413,11933"/>
 <path fill="none" stroke="rgb(179,179,179)" stroke-linejoin="round" d="M 1263,6781 L 1413,6781"/>
 <path fill="none" stroke="rgb(179,179,179)" stroke-linejoin="round" d="M 1263,6781 L 1413,6781"/>
 <path fill="none" stroke="rgb(179,179,179)" stroke-linejoin="round" d="M 1263,1629 L 1413,1629"/>
 <path fill="none" stroke="rgb(179,179,179)" stroke-linejoin="round" d="M 1263,1629 L 1413,1629"/>
 <path fill="none" stroke="rgb(179,179,179)" stroke-linejoin="round" d="M 1413,22239 L 1413,1629"/>
 <path fill="none" stroke="rgb(141,40,30)" stroke-width="80" stroke-linejoin="round" stroke-dasharray="80,40" d="M 1461,22175 L 1559,22153 1657,22148 1755,22106 1853,22057 1951,21987 2049,21856 2147,21671 2245,21495 2342,21230 2440,20903 2538,20596 2636,20234 2734,19710 2832,19157 2930,18562 3028,18033 3126,17478 3224,16744 3321,16033 3419,15150 3517,14221 3615,13390 3713,12659 3811,11858 3909,11048 4007,10184 4105,9229 4202,8360 4300,7569 4398,6789 4496,6389 4594,5756 4692,5067 4790,4241 4888,3407 4986,2784 5083,2197 5160,1629"/>
 <path fill="none" stroke="rgb(255,64,0)" stroke-width="80" stroke-linejoin="round" stroke-dasharray="80,40" d="M 1461,22231 L 1559,22231 1657,22231 1755,22229 1853,22223 1951,22221 2049,22209 2147,22201 2245,22190 2342,22165 2440,22147 2538,22132 2636,22118 2734,22098 2832,22077 2930,22055 3028,22039 3126,22030 3224,21977 3321,21925 3419,21870 3517,21823 3615,21764 3713,21728 3811,21682 3909,21597 4007,21500 4105,21415 4202,21346 4300,21296 4398,21230 4496,21175 4594,21235 4692,21629 4790,21536 4888,21389 4986,21255 5083,21556 5181,21461 5279,21397 5377,21388 5475,21262 5573,21138 5671,20972 5769,20848 5867,20701 5964,20511 6062,20296 6160,20044 6258,19922 6356,19842 6454,19726 6552,19549 6650,19362 6748,19005 6846,18783 6943,18475 7041,18177 7139,18037 7237,17846 7335,17720 7433,17462 7531,16918 7629,16400 7727,16021 7824,15891 7922,15541 8020,15102 8118,14669 8216,14279 8314,13778 8412,13371 8510,12991 8608,12653 8705,12143 8803,11588 8901,10894 8999,10218 9097,9204 9195,8706 9293,8393 9391,7660 9489,7063 9586,6427 9684,5562 9782,4787 9880,4225 9978,8074 10076,7475 10174,6774 10272,6137 10370,5656 10468,5341 10565,5011 10663,4456 10761,3420 10859,3426 10957,3039 11035,1629"/>
 <path fill="none" stroke="rgb(0,223,255)" stroke-width="80" stroke-linejoin="round" stroke-dasharray="158,102" d="M 1461,22236 L 1559,22235 1657,22235 1755,22233 1853,22231 1951,22229 2049,22225 2147,22221 2245,22218 2342,22214 2440,22209 2538,22205 2636,22194 2734,22182 2832,22169 2930,22153 3028,22135 3126,22114 3224,22083 3321,22058 3419,22007 3517,21968 3615,21931 3713,21886 3811,21823 3909,21748 4007,21672 4105,21578 4202,21460 4300,21361 4398,21225 4496,21058 4594,20880 4692,20663 4790,20445 4888,20180 4986,19878 5083,19470 5181,19183 5279,18818 5377,18491 5475,18190 5573,17829 5671,17461 5769,17053 5867,16659 5964,16290 6062,16014 6160,15614 6258,15174 6356,14625 6454,13993 6552,13354 6650,12772 6748,12136 6846,11525 6943,10974 7041,10592 7139,9990 7237,9561 7335,9061 7433,8677 7531,8370 7629,7961 7727,7668 7824,7286 7922,6863 8020,6635 8118,6680 8216,6578 8314,6465 8412,6382 8510,6164 8608,5927 8705,6181 8803,6386 8901,6427 8999,6422 9097,6382 9195,6049 9293,5718 9391,5888 9489,5931 9586,5929 9684,5892 9782,5895 9880,5648 9978,5302 10076,5533 10174,5688 10272,5671 10370,5631 10468,5396 10565,5165 10663,4911 10761,5032 10859,5201 10957,5343 11055,5531 11153,5705 11251,5529 11349,5332 11446,5667 11544,6046 11642,5998 11740,6164 11837,6342 11935,6275 12033,6116 12131,6305 12229,6582 12326,6542 12424,6708 12522,6885 12620,6694 12718,6492 12816,6730 12914,6889 13012,7062 13110,7154 13207,7292 13305,7091 13403,6848 13501,7040 13599,7334 13697,7488 13795,7591 13893,7687 13991,7509 14089,7328 14186,7545 14284,7825 14382,8006 14480,8205 14578,8392 14676,8211 14774,8039 14872,8295 14970,8493 15067,8770 15165,9013 15263,9208 15361,9090 15459,8957 15557,9161 15655,9337 15753,9490 15851,9641 15948,9749 16046,9616 16144,9492 16242,9614 16340,9767 16438,9848 16536,9964 16634,10070 16732,9979 16829,9862 16927,9995 17025,10142 17123,10241 17221,10313 17319,10410 17417,10299 17515,10146 17613,10293 17711,10419 17808,10546 17906,10632 18004,10713 18102,10553 18200,10380 18298,10502 18396,10548 18494,10612 18592,10668"/>
 <path fill="none" stroke="rgb(21,132,102)" stroke-width="80" stroke-linejoin="round" stroke-dasharray="80,203,80,203,203,203" d="M 1461,22144 L 1559,22134 1657,22124 1755,22108 1853,22092 1951,22071 2049,22039 2147,22004 2245,21970 2342,21935 2440,21882 2538,21843 2636,21787 2734,21720 2832,21650 2930,21577 3028,21515 3126,21455 3224,21378 3321,21304 3419,21228 3517,21146 3615,21075 3713,21005 3811,20939 3909,20879 4007,20815 4105,20744 4202,20667 4300,20608 4398,20513 4496,20465 4594,20415 4692,20367 4790,20290 4888,20219 4986,20161 5083,20103 5181,20043 5279,19999 5377,19946 5475,19876 5573,19836 5671,19768 5769,19715 5867,19666 5964,19619 6062,19582 6160,19565 6258,19507 6356,19461 6454,19406 6552,19355 6650,19306 6748,19256 6846,19197 6943,19132 7041,19095 7139,19043 7237,19009 7335,18954 7433,18923 7531,18854 7629,18797 7727,18751 7824,18706 7922,18663 8020,18611 8118,18559 8216,18492 8314,18501 8412,18440 8510,18391 8608,18362 8705,18318 8803,18273 8901,18209 8999,18157 9097,18074 9195,18036 9293,17987 9391,17971 9489,17926 9586,17858 9684,17782 9782,17703 9880,17631 9978,17701 10076,17652 10174,17585 10272,17523 10370,17463 10468,17403 10565,17324 10663,17277 10761,17228 10859,17203 10957,17132 11055,17028 11153,16978 11251,16904 11349,16847 11446,16774 11544,16707 11642,16601 11740,16495 11837,16405 11935,16312 12033,16236 12131,16167 12229,16040 12326,16149 12424,16032 12522,16040 12620,15960 12718,15909 12816,15830 12914,15766 13012,15649 13110,15533 13207,15420 13305,15318 13403,15254 13501,15156 13599,15069 13697,14944 13795,14876 13893,14768 13991,14606 14089,14549 14186,14479 14284,14350 14382,14215 14480,14154 14578,14113 14676,14022 14774,13954 14872,13858 14970,13751 15067,13682 15165,13569 15263,13488 15361,13372 15459,13405 15557,13365 15655,13308 15753,13190 15851,13081 15948,13011 16046,12954 16144,12877 16242,12952 16340,12914 16438,12762 16536,12750 16634,12652 16732,12682 16829,12690 16927,12662 17025,12597 17123,12526 17221,12401 17319,12335 17417,12352 17515,12323 17613,12320 17711,12244 17808,12149 17906,12050 18004,11990 18102,11972 18200,11898 18298,11893 18396,11818 18494,11755 18592,11631"/>
 <path fill="none" stroke="rgb(191,0,65)" stroke-width="80" stroke-linejoin="round" stroke-dasharray="51,127,51,127,254,127,254,127,254,127" d="M 1461,22173 L 1559,22147 1657,22125 1755,22102 1853,22072 1951,22042 2049,21994 2147,21950 2245,21890 2342,21839 2440,21775 2538,21703 2636,21624 2734,21536 2832,21422 2930,21315 3028,21210 3126,21123 3224,21023 3321,20930 3419,20806 3517,20660 3615,20538 3713,20437 3811,20361 3909,20248 4007,20139 4105,20035 4202,19934 4300,19831 4398,19767 4496,19714 4594,19680 4692,19644 4790,19567 4888,19508 4986,19454 5083,19377 5181,19360 5279,19338 5377,19323 5475,19281 5573,19291 5671,19274 5769,19238 5867,19229 5964,19244 6062,19245 6160,19296 6258,19302 6356,19323 6454,19310 6552,19320 6650,19317 6748,19362 6846,19381 6943,19439 7041,19470 7139,19453 7237,19452 7335,19494 7433,19535 7531,19647 7629,19671 7727,19676 7824,19697 7922,19780 8020,19790 8118,19783 8216,19836 8314,19846 8412,19873 8510,19858 8608,19851 8705,19917 8803,19934 8901,19990 8999,19985 9097,20004 9195,20017 9293,20008 9391,20017 9489,20041 9586,20028 9684,20032 9782,20015 9880,19975 9978,19937 10076,19915 10174,19907 10272,19894 10370,19858 10468,19832 10565,19782 10663,19758 10761,19752 10859,19701 10957,19691 11055,19685 11153,19675 11251,19681 11349,19681 11446,19676 11544,19677 11642,19689 11740,19690 11837,19694 11935,19698 12033,19669 12131,19643 12229,19629 12326,19570 12424,19543 12522,19514 12620,19516 12718,19497 12816,19471 12914,19461 13012,19418 13110,19382 13207,19335 13305,19311 13403,19303 13501,19243 13599,19237 13697,19169 13795,19105 13893,19017 13991,18940 14089,18875 14186,18922 14284,18817 14382,18732 14480,18653 14578,18512 14676,18579 14774,18460 14872,18320 14970,18161 15067,17989 15165,17845 15263,17710 15361,17587 15459,17482 15557,17329 15655,17192 15753,17079 15851,16941 15948,16787 16046,16646 16144,16561 16242,16425 16340,16288 16438,16115 16536,15970 16634,15812 16732,15670 16829,15640 16927,15563 17025,15437 17123,15301 17221,15097 17319,14965 17417,14840 17515,14749 17613,14625 17711,14503 17808,14375 17906,14212 18004,14045 18102,13923 18200,13899 18298,13835 18396,13677 18494,13548 18592,13401"/>
 <path fill="none" stroke="rgb(128,0,128)" stroke-width="80" stroke-linejoin="round" stroke-dasharray="158,158" d="M 1461,22238 L 1559,22238 1657,22238 1755,22238 1853,22238 1951,22237 2049,22237 2147,22237 2245,22236 2342,22236 2440,22235 2538,22235 2636,22234 2734,22234 2832,22233 2930,22232 3028,22232 3126,22230 3224,22229 3321,22225 3419,22221 3517,22221 3615,22218 3713,22214 3811,22207 3909,22203 4007,22199 4105,22195 4202,22189 4300,22185 4398,22180 4496,22172 4594,22166 4692,22160 4790,22155 4888,22150 4986,22143 5083,22132 5181,22129 5279,22123 5377,22117 5475,22109 5573,22102 5671,22093 5769,22086 5867,22079 5964,22070 6062,22063 6160,22054 6258,22044 6356,22033 6454,22019 6552,21999 6650,21988 6748,21971 6846,21957 6943,21941 7041,21929 7139,21910 7237,21896 7335,21884 7433,21872 7531,21855 7629,21844 7727,21839 7824,21821 7922,21806 8020,21784 8118,21767 8216,21745 8314,21721 8412,21692 8510,21665 8608,21641 8705,21625 8803,21598 8901,21568 8999,21597 9097,21569 9195,21541 9293,21514 9391,21484 9489,21442 9586,21403 9684,21370 9782,21335 9880,21294 9978,21272 10076,21240 10174,21168 10272,21179 10370,21150 10468,21123 10565,21095 10663,21095 10761,21079 10859,21041 10957,21019 11055,20982 11153,20973 11251,20936 11349,20909 11446,20872 11544,20846 11642,20824 11740,20764 11837,20722 11935,20669 12033,20632 12131,20594 12229,20544 12326,20540 12424,20480 12522,20410 12620,20347 12718,20300 12816,20260 12914,20224 13012,20172 13110,20122 13207,20056 13305,19986 13403,19912 13501,19850 13599,19765 13697,19681 13795,19557 13893,19449 13991,19321 14089,19231 14186,19167 14284,19055 14382,18950 14480,18831 14578,18744 14676,18615 14774,18538 14872,18434 14970,18301 15067,18178 15165,18018 15263,17999 15361,17912 15459,17860 15557,17861 15655,17791 15753,17703 15851,17615 15948,17543 16046,17497 16144,17460 16242,17430 16340,17357 16438,17298 16536,17250 16634,17178 16732,17184 16829,17211 16927,17186 17025,17113 17123,17071 17221,17031 17319,16954 17417,16931 17515,16979 17613,16960 17711,16817 17808,16697 17906,16620 18004,16523 18102,16399 18200,16369 18298,16255 18396,16148 18494,16032 18592,15918"/>
 <path fill="none" stroke="rgb(255,211,32)" stroke-width="80" stroke-linejoin="round" d="M 1461,22103 L 1559,22057 1657,21995 1755,21955 1853,21860 1951,21795 2049,21574 2147,21441 2245,21287 2342,21167 2440,21056 2538,20910 2636,20662 2734,20404 2832,20065 2930,19728 3028,19554 3126,19397 3224,19128 3321,18959 3419,18633 3517,18422 3615,18067 3713,17981 3811,17790 3909,17661 4007,17446 4105,17277 4202,17170 4300,17147 4398,17053 4496,17045 4594,17130 4692,17205 4790,17146 4888,17232 4986,17236 5083,17175 5181,17285 5279,17351 5377,17489 5475,17595 5573,17727 5671,17734 5769,17774 5867,18008 5964,18073 6062,18154 6160,18262 6258,18269 6356,18342 6454,18441 6552,18620 6650,18742 6748,18864 6846,18976 6943,18975 7041,18994 7139,18996 7237,19175 7335,19304 7433,19417 7531,19528 7629,19611 7727,19605 7824,19626 7922,19690 8020,19718 8118,19749 8216,19812 8314,19856 8412,19802 8510,19773 8608,19830 8705,19868 8803,19930 8901,19966 8999,19951 9097,19963 9195,19939 9293,19988 9391,19972 9489,19964 9586,19968 9684,20005 9782,19972 9880,19919 9978,19953 10076,19958 10174,19945 10272,19966 10370,19935 10468,19887 10565,19863 10663,19892 10761,19908 10859,19900 10957,19827 11055,19738 11153,19703 11251,19676 11349,19688 11446,19586 11544,19500 11642,19471 11740,19331 11837,19095 11935,18822 12033,18667 12131,18549 12229,18485 12326,18386 12424,18276 12522,18161 12620,18098 12718,18059 12816,17981 12914,17953 13012,17967 13110,17965 13207,17873 13305,17836 13403,17896 13501,17865 13599,17799 13697,17795 13795,17755 13893,17654 13991,17595 14089,17520 14186,17383 14284,17367 14382,17324 14480,17148 14578,17183 14676,18846 14774,18663 14872,18392 14970,18110 15067,17898 15165,17790 15263,17688 15361,17609 15459,17510 15557,17339 15655,17204 15753,17407 15851,17502 15948,17348 16046,17256 16144,17310 16242,17263 16340,17160 16438,17007 16536,16880 16634,16722 16732,16642 16829,17253 16927,17488 17025,17640 17123,17665 17221,17331 17319,17146 17417,17055 17515,17052 17613,16975 17711,16870 17808,16887 17906,16598 18004,16338 18102,16083 18200,16092 18298,15910 18396,15481 18494,15153 18592,14739"/>
 <path fill="none" stroke="rgb(0,255,0)" stroke-width="80" stroke-linejoin="round" d="M 1461,20900 L 1559,20641 1657,19640 1755,19640 1853,19060 1951,18684 2049,17453 2147,16017 2245,14516 2342,13612 2440,12065 2538,10780 2636,9602 2734,8559 2832,8942 2930,7615 3028,6838 3126,5879 3224,5153 3321,5196 3419,5238 3517,5368 3615,6255 3713,5605 3811,6955 3909,7084 4007,7254 4105,7352 4202,7416 4300,7985 4398,8416 4496,9320 4594,9067 4692,10693 4790,10867 4888,11105 4986,11599 5083,12061 5181,12814 5279,13683 5377,14071 5475,14681 5573,14989 5671,15100 5769,15510 5867,15929 5964,16326 6062,16176 6160,16941 6258,17415 6356,17648 6454,17901 6552,18670 6650,18888 6748,19196 6846,19362 6943,19519 7041,19832 7139,20009 7237,20215 7335,20199 7433,20520 7531,20463 7629,20410 7727,20699 7824,20802 7922,20916 8020,21016 8118,21088 8216,21172 8314,21162 8412,21262 8510,21369 8608,21485 8705,21469 8803,21573 8901,21551 8999,21513 9097,21612 9195,21712 9293,21701 9391,21698 9489,21796 9586,21772 9684,21744 9782,21840 9880,21829 9978,21823 10076,21817 10174,21792 10272,21873 10370,21852 10468,21815 10565,21787 10663,21891 10761,21881 10859,21844 10957,21829 11055,21787 11153,21778 11251,21838 11349,21817 11446,21791 11544,21741 11642,21679 11740,21615 11837,21651 11935,21578 12033,21536 12131,21582 12229,21422 12326,21284 12424,21124 12522,21008 12620,21044 12718,20988 12816,20925 12914,20891 13012,20786 13110,20662 13207,20632 13305,20673 13403,20598 13501,20752 13599,20595 13697,20546 13795,20437 13893,20306 13991,20664 14089,20616 14186,20488 14284,20558 14382,20423 14480,20242 14578,20065 14676,20173 14774,20334 14872,20296 14970,20187 15067,19926 15165,19677 15263,19701 15361,19775 15459,19696 15557,19661 15655,19449 15753,19234 15851,19044 15948,19184 16046,19480 16144,19475 16242,19256 16340,19288 16438,19009 16536,18928 16634,18984 16732,18865 16829,18713 16927,18717 17025,18352 17123,18514 17221,18152 17319,18039 17417,18068 17515,17882 17613,17642 17711,17664 17808,17234 17906,16830 18004,16860 18102,17227 18200,17391 18298,17378 18396,17175 18494,16744 18592,16262"/>
 <path fill="none" stroke="rgb(0,169,51)" stroke-width="80" stroke-linejoin="round" d="M 1461,21670 L 1559,21497 1657,21262 1755,21084 1853,20719 1951,20370 2049,19952 2147,19523 2245,19038 2342,18168 2440,17153 2538,16236 2636,15889 2734,14517 2832,13801 2930,13110 3028,12829 3126,12084 3224,11990 3321,11794 3419,11687 3517,11559 3615,11841 3713,12113 3811,12382 3909,12684 4007,12905 4105,13418 4202,14032 4300,14383 4398,14677 4496,14995 4594,15134 4692,15550 4790,16426 4888,17135 4986,17646 5083,17895 5181,18012 5279,18335 5377,18706 5475,19051 5573,19185 5671,19368 5769,19491 5867,19535 5964,19712 6062,19901 6160,19995 6258,20142 6356,20199 6454,20212 6552,20288 6650,20428 6748,20594 6846,20585 6943,20724 7041,20762 7139,20794 7237,20864 7335,20877 7433,21015 7531,21063 7629,21083 7727,21039 7824,21037 7922,21065 8020,21082 8118,21280 8216,21300 8314,21328 8412,21312 8510,21323 8608,21369 8705,21401 8803,21417 8901,21467 8999,21506 9097,21670 9195,21701 9293,21702 9391,21711 9489,21748 9586,21760 9684,21748 9782,21738 9880,21738 9978,21716 10076,21744 10174,21756 10272,21768 10370,21776 10468,21793 10565,21812 10663,21791 10761,21759 10859,21761 10957,21742 11055,21733 11153,21712 11251,21719 11349,21725 11446,21719 11544,21696 11642,21713 11740,21694 11837,21656 11935,21608 12033,21552 12131,21571 12229,21464 12326,21412 12424,21338 12522,21262 12620,21141 12718,21081 12816,21061 12914,20996 13012,20921 13110,20871 13207,20851 13305,20823 13403,20820 13501,20821 13599,20786 13697,20734 13795,20645 13893,20681 13991,20699 14089,20667 14186,20635 14284,20672 14382,20585 14480,20567 14578,20520 14676,20464 14774,20409 14872,20425 14970,20401 15067,20397 15165,20346 15263,20427 15361,20405 15459,20403 15557,20607 15655,20656 15753,20658 15851,20606 15948,20653 16046,20649 16144,20667 16242,20638 16340,20583 16438,20496 16536,20348 16634,20151 16732,19995 16829,19904 16927,19687 17025,19496 17123,19253 17221,19067 17319,18893 17417,18848 17515,18686 17613,18709 17711,18628 17808,18450 17906,18505 18004,18364 18102,18390 18200,18258 18298,18413 18396,18331 18494,18273 18592,18255"/>
 <path fill="none" stroke="rgb(131,202,255)" stroke-width="80" stroke-linejoin="round" d="M 1461,19689 L 1559,19213 1657,18727 1755,18306 1853,17796 1951,17345 2049,16581 2147,15668 2245,14964 2342,14289 2440,13575 2538,13029 2636,12434 2734,11670 2832,10919 2930,10297 3028,9647 3126,9366 3224,9007 3321,8506 3419,8084 3517,7685 3615,7194 3713,6687 3811,6356 3909,6206 4007,6002 4105,5727 4202,5489 4300,5149 4398,4811 4496,4579 4594,4463 4692,4271 4790,4069 4888,4008 4986,3870 5083,3787 5181,3791 5279,3881 5377,3883 5475,4028 5573,4082 5671,4198 5769,4155 5867,4204 5964,4308 6062,4401 6160,4930 6258,5034 6356,5075 6454,5164 6552,5198 6650,5456 6748,6639 6846,6963 6943,7247 7041,7778 7139,8037 7237,8180 7335,8388 7433,8867 7531,9211 7629,9955 7727,10276 7824,10589 7922,10896 8020,11138 8118,11544 8216,11849 8314,12127 8412,12395 8510,12592 8608,12813 8705,13215 8803,13552 8901,14059 8999,14368 9097,14792 9195,15067 9293,15188 9391,15439 9489,15540 9586,15688 9684,15936 9782,16123 9880,16228 9978,16319 10076,16636 10174,16834 10272,17017 10370,17296 10468,17554 10565,17760 10663,17822 10761,18051 10859,18161 10957,18301 11055,18567 11153,18623 11251,18664 11349,18721 11446,18902 11544,19059 11642,19119 11740,19232 11837,19369 11935,19395 12033,19427 12131,19586 12229,19638 12326,19672 12424,19702 12522,19746 12620,19743 12718,19731 12816,19811 12914,19921 13012,19944 13110,19950 13207,19971 13305,19992 13403,19996 13501,20037 13599,20109 13697,20113 13795,20115 13893,20130 13991,20118 14089,20124 14186,20151 14284,20138 14382,20124 14480,20142 14578,20118 14676,20097 14774,20094 14872,20089 14970,20088 15067,20154 15165,20121 15263,20115 15361,20115 15459,20112 15557,20111 15655,20083 15753,20075 15851,20036 15948,20031 16046,19978 16144,19960 16242,19927 16340,19888 16438,19838 16536,19810 16634,19783 16732,19727 16829,19704 16927,19667 17025,19620 17123,19509 17221,19396 17319,19255 17417,19096 17515,18967 17613,18878 17711,18701 17808,18500 17906,18312 18004,18292 18102,18113 18200,17794 18298,17678 18396,17497 18494,17310 18592,17108"/>
 <path fill="none" stroke="rgb(0,169,51)" stroke-width="80" stroke-linejoin="round" stroke-dasharray="158,102" d="M 1461,21270 L 1559,21115 1657,21180 1755,21067 1853,21037 1951,20909 2049,20838 2147,20832 2245,20837 2342,20763 2440,20606 2538,20525 2636,20359 2734,20188 2832,19929 2930,19636 3028,19382 3126,19192 3224,18919 3321,18670 3419,18484 3517,18318 3615,18244 3713,17958 3811,18248 3909,18352 4007,18462 4105,18582 4202,18742 4300,19328 4398,19378 4496,19449 4594,19531 4692,19579 4790,19675 4888,19727 4986,19803 5083,19776 5181,19904 5279,19964 5377,20092 5475,20189 5573,20273 5671,20339 5769,20384 5867,20431 5964,20488 6062,20532 6160,20581 6258,20614 6356,20651 6454,20668 6552,20645 6650,20624 6748,20564 6846,20532 6943,20482 7041,20451 7139,20420 7237,20376 7335,20315 7433,20212 7531,20136 7629,20043 7727,19992 7824,19938 7922,19812 8020,19746 8118,19667 8216,19597 8314,19530 8412,19528 8510,19480 8608,19471 8705,19470 8803,19435 8901,19388 8999,19286 9097,19246 9195,19193 9293,19102 9391,18982 9489,18867 9586,18715 9684,18646 9782,18659 9880,18661 9978,18666 10076,18675 10174,18700 10272,18692 10370,18654 10468,18622 10565,18568 10663,18516 10761,18472 10859,18428 10957,18388 11055,18352 11153,18350 11251,18344 11349,18391 11446,18441 11544,18507 11642,18574 11740,18603 11837,18661 11935,18699 12033,18759 12131,18792 12229,18832 12326,18845 12424,18837 12522,18862 12620,18860 12718,18897 12816,18956 12914,18946 13012,19051 13110,19139 13207,19194 13305,19235 13403,19284 13501,19332 13599,19344 13697,19436 13795,19444 13893,19499 13991,19562 14089,19575 14186,19559 14284,19574 14382,19572 14480,19537 14578,19535 14676,19507 14774,19472 14872,19403 14970,19361 15067,19323 15165,19304 15263,19301 15361,19276 15459,19245 15557,19216 15655,19202 15753,19211 15851,19207 15948,19256 16046,19304 16144,19345 16242,19322 16340,19237 16438,19158 16536,19087 16634,19055 16732,19039 16829,18988 16927,18928 17025,18849 17123,18796 17221,18739 17319,18731 17417,18705 17515,18679 17613,18631 17711,18593 17808,18555 17906,18510 18004,18483 18102,18473 18200,18508 18298,18546 18396,18539 18494,18530 18592,18506"/>
 <path fill="none" stroke="rgb(0,169,51)" stroke-width="80" stroke-linejoin="round" stroke-dasharray="80,40" d="M 1461,22237 L 1559,22236 1657,22235 1755,22232 1853,22231 1951,22229 2049,22226 2147,22223 2245,22219 2342,22214 2440,22210 2538,22207 2636,22201 2734,22193 2832,22182 2930,22172 3028,22161 3126,22156 3224,22147 3321,22134 3419,22125 3517,22159 3615,22144 3713,22125 3811,22104 3909,22078 4007,22049 4105,22030 4202,22000 4300,21974 4398,22031 4496,22012 4594,21996 4692,21977 4790,21944 4888,21902 4986,21861 5083,21843 5181,21804 5279,21758 5377,21683 5475,21604 5573,21517 5671,21808 5769,21841 5867,21838 5964,21938 6062,21867 6160,21764 6258,21728 6356,21627 6454,21609 6552,21504 6650,21702 6748,21667 6846,21529 6943,21595 7041,21576 7139,21461 7237,21467 7335,21562 7433,21521 7531,21468 7629,21454 7727,21419 7824,21382 7922,21366 8020,21331 8118,21273 8216,21207 8314,21172 8412,21099 8510,21100 8608,21118 8705,21062 8803,20992 8901,20934 8999,20943 9097,20921 9195,20883 9293,20935 9391,20884 9489,20893 9586,20770 9684,20719 9782,20698 9880,20670 9978,20767 10076,20728 10174,20648 10272,20573 10370,20490 10468,20501 10565,20448 10663,20609 10761,20547 10859,20463 10957,20358 11055,20348 11153,20355 11251,20302 11349,20388 11446,20289 11544,20317 11642,20198 11740,20177 11837,20184 11935,20196 12033,20369 12131,20338 12229,20262 12326,20195 12424,20155 12522,20154 12620,20137 12718,20176 12816,20116 12914,20009 13012,19910 13110,19870 13207,19786 13305,19853 13403,19933 13501,19894 13599,19972 13697,19938 13795,19938 13893,19938 13991,18234 14089,18496 14186,18366 14284,18167 14382,17974 14480,18062 14578,18015 14676,18113 14774,18429 14872,18268 14970,18358 15067,18236 15165,18175 15263,18094 15361,18340 15459,18853 15557,18750 15655,18671 15753,18493 15851,18402 15948,18500 16046,18758 16144,19067 16242,18936 16340,18839 16438,18732 16536,18643 16634,18801 16732,18953 16829,19212 16927,19069 17025,19027 17123,18888 17221,18899 17319,18813 17417,18917 17515,19305 17613,19204 17711,19072 17808,18898 17906,18816 18004,18753 18102,18885 18200,19127 18298,19115 18396,18993 18494,19046 18592,18915"/>
 <path fill="none" stroke="rgb(180,120,4)" stroke-width="80" stroke-linejoin="round" d="M 1461,20835 L 1559,20781 1657,20715 1755,20615 1853,20456 1951,20297 2049,20110 2147,19920 2245,19782 2342,19617 2440,19535 2538,19355 2636,19116 2734,18863 2832,18585 2930,18317 3028,18012 3126,17687 3224,17220 3321,18368 3419,18258 3517,17835 3615,17470 3713,17079 3811,16649 3909,16224 4007,15920 4105,15756 4202,15532 4300,15564 4398,15590 4496,15555 4594,15742 4692,15875 4790,16035 4888,16366 4986,16892 5083,17176 5181,17262 5279,17640 5377,17961 5475,18213 5573,18237 5671,18103 5769,18120 5867,18183 5964,18216 6062,18386 6160,18459 6258,18525 6356,18663 6454,18649 6552,18585 6650,18702 6748,18847 6846,18988 6943,19147 7041,19268 7139,19298 7237,19352 7335,19645 7433,19668 7531,19843 7629,19976 7727,20128 7824,20224 7922,20283 8020,20357 8118,20444 8216,20530 8314,20657 8412,20680 8510,20668 8608,20734 8705,20802 8803,20821 8901,20900 8999,20863 9097,20951 9195,20954 9293,20993 9391,21073 9489,21118 9586,21174 9684,21127 9782,21162 9880,21183 9978,21230 10076,21262 10174,21332 10272,21388 10370,21344 10468,21353 10565,21316 10663,21314 10761,21318 10859,21346 10957,21361 11055,21349 11153,21349 11251,21349 11349,21229 11446,21251 11544,21208 11642,21237 11740,21255 11837,21255 11935,21255 12033,21305 12131,21340 12229,21374 12326,21470 12424,21524 12522,21524 12620,21522 12718,21650 12816,21721 12914,21732 13012,21781 13110,21784 13207,21784 13305,21784 13403,21720 13501,21730 13599,21714 13697,21681 13795,21622 13893,21622 13991,21616 14089,21534 14186,21482 14284,21421 14382,21396 14480,21386 14578,21384 14676,21346 14774,21288 14872,21284 14970,21246 15067,21152 15165,21132 15263,21132 15361,21138 15459,20959 15557,20879 15655,20725 15753,20533 15851,20344 15948,20339 16046,20364 16144,19860 16242,19717 16340,19623 16438,19445 16536,19299 16634,19212 16732,19088 16829,19013 16927,19011 17025,19104 17123,19137 17221,19362 17319,19168 17417,19445 17515,19553 17613,19689 17711,19853 17808,19979 17906,20056 18004,20115 18102,20142 18200,20154 18298,20149 18396,20154 18494,19998 18592,19848"/>
 <path fill="none" stroke="rgb(0,0,0)" stroke-width="80" stroke-linejoin="round" d="M 1461,21793 L 1559,21681 1657,21533 1755,21354 1853,21111 1951,20739 2049,20373 2147,19828 2245,19545 2342,19223 2440,18712 2538,18599 2636,18109 2734,17565 2832,16842 2930,16238 3028,15799 3126,15751 3224,15482 3321,15073 3419,14705 3517,14205 3615,13844 3713,13648 3811,13276 3909,13682 4007,14287 4105,14469 4202,14183 4300,14271 4398,14301 4496,14541 4594,14875 4692,15062 4790,15271 4888,15605 4986,15660 5083,15769 5181,16002 5279,16327 5377,16584 5475,16795 5573,17387 5671,17216 5769,17344 5867,17548 5964,17786 6062,17974 6160,18193 6258,18494 6356,18652 6454,18770 6552,18984 6650,19174 6748,19657 6846,19737 6943,19609 7041,19720 7139,19790 7237,19865 7335,19996 7433,20081 7531,20234 7629,20303 7727,20367 7824,20468 7922,20577 8020,20515 8118,20595 8216,20673 8314,20711 8412,20761 8510,20792 8608,20874 8705,20903 8803,20975 8901,20963 8999,20987 9097,21039 9195,21068 9293,21081 9391,21168 9489,21246 9586,21263 9684,21281 9782,21277 9880,21274 9978,21272 10076,21299 10174,21360 10272,21383 10370,21389 10468,21439 10565,21423 10663,21478 10761,21428 10859,21482 10957,21366 11055,21323 11153,21357 11251,21299 11349,21288 11446,21286 11544,21313 11642,21295 11740,21264 11837,21258 11935,21246 12033,21218 12131,21214 12229,21279 12326,21308 12424,21320 12522,21356 12620,21404 12718,21392 12816,21421 12914,21439 13012,21474 13110,21471 13207,21455 13305,21447 13403,21500 13501,21466 13599,21524 13697,21505 13795,21493 13893,21484 13991,21471 14089,21481 14186,21452 14284,21433 14382,21423 14480,21401 14578,21349 14676,21317 14774,21295 14872,21271 14970,21238 15067,21151 15165,21100 15263,21105 15361,21112 15459,21087 15557,21071 15655,20963 15753,20938 15851,20877 15948,20867 16046,20848 16144,20772 16242,20764 16340,20682 16438,20589 16536,20502 16634,20455 16732,20445 16829,20367 16927,20369 17025,20270 17123,20188 17221,20134 17319,20150 17417,20119 17515,20001 17613,20028 17711,20020 17808,19979 17906,19945 18004,19933 18102,19936 18200,19938 18298,19987 18396,20002 18494,20025 18592,20006"/>
 <path fill="none" stroke="rgb(255,0,0)" stroke-width="80" stroke-linejoin="round" stroke-dasharray="158,102" d="M 1461,22238 L 1559,22238 1657,22238 1755,22236 1853,22233 1951,22227 2049,22215 2147,22195 2245,22158 2342,22091 2440,22056 2538,22015 2636,21952 2734,21807 2832,21559 2930,21356 3028,21141 3126,20956 3224,20641 3321,20397 3419,20117 3517,19793 3615,19471 3713,19128 3811,18788 3909,18353 4007,17892 4105,17445 4202,16911 4300,16361 4398,15846 4496,15421 4594,15040 4692,14638 4790,14240 4888,13912 4986,13687 5083,13402 5181,13024 5279,12657 5377,12485 5475,12364 5573,12393 5671,12526 5769,12685 5867,13005 5964,13337 6062,13628 6160,13912 6258,14256 6356,14567 6454,14968 6552,15392 6650,15801 6748,16134 6846,16484 6943,16681 7041,16875 7139,17084 7237,17333 7335,17511 7433,17663 7531,17753 7629,17807 7727,17860 7824,17921 7922,17981 8020,18020 8118,18038 8216,18046 8314,18070 8412,18111 8510,18109 8608,18154 8705,18224 8803,18258 8901,18310 8999,18369 9097,18377 9195,18398 9293,18419 9391,18445 9489,18455 9586,18450 9684,18537 9782,18667 9880,18882 9978,19180 10076,19454 10174,19617 10272,19624 10370,19631 10468,19575 10565,19548 10663,19472 10761,19419 10859,19400 10957,19413 11055,19450 11153,19460 11251,19490 11349,19503 11446,19512 11544,19502 11642,19506 11740,19520 11837,19597 11935,19606 12033,19588 12131,19591 12229,19730 12326,19776 12424,19796 12522,19805 12620,19813 12718,19965 12816,20119 12914,20266 13012,20495 13110,20557 13207,20599 13305,20636 13403,20656 13501,20666 13599,20676 13697,20697 13795,20710 13893,20744 13991,20755 14089,20765 14186,20777 14284,20816 14382,20847 14480,20858 14578,20882 14676,20894 14774,20904 14872,20922 14970,20930 15067,20934 15165,20938 15263,20938 15361,20939 15459,20942 15557,20934 15655,20916 15753,20904 15851,20887 15948,20878 16046,20870 16144,20874 16242,20876 16340,20844 16438,20813 16536,20779 16634,20749 16732,20727 16829,20702 16927,20665 17025,20631 17123,20569 17221,20519 17319,20459 17417,20410 17515,20327 17613,20255 17711,20219 17808,20162 17906,20105 18004,20043 18102,19993 18200,19937 18298,19873 18396,19799 18494,19753 18592,19687"/>
 <path fill="none" stroke="rgb(85,48,141)" stroke-width="80" stroke-linejoin="round" stroke-dasharray="80,40" d="M 1461,22188 L 1559,22187 1657,22172 1755,22129 1853,22112 1951,22064 2049,22025 2147,21987 2245,21898 2342,21846 2440,21678 2538,21514 2636,21409 2734,21195 2832,21045 2930,20860 3028,20668 3126,20368 3224,20372 3321,20019 3419,19669 3517,19485 3615,19458 3713,18829 3811,18698 3909,18496 4007,18257 4105,18146 4202,17966 4300,17850 4398,17744 4496,17558 4594,17344 4692,17259 4790,16818 4888,16528 4986,16234 5083,16171 5181,15852 5279,15602 5377,15376 5475,15058 5573,14766 5671,14651 5769,14467 5867,14455 5964,14338 6062,14215 6160,14123 6258,14036 6356,13930 6454,13559 6552,13522 6650,13496 6748,13462 6846,13392 6943,13299 7041,13273 7139,13230 7237,13189 7335,13210 7433,13237 7531,13205 7629,13126 7727,13071 7824,12991 7922,12900 8020,12847 8118,12782 8216,12752 8314,12687 8412,12582 8510,12525 8608,12460 8705,12413 8803,12446 8901,12400 8999,12425 9097,12407 9195,12438 9293,12465 9391,12475 9489,12530 9586,12581 9684,12656 9782,12808 9880,12784 9978,12811 10076,12913 10174,13100 10272,13240 10370,13382 10468,13498 10565,13633 10663,13755 10761,13797 10859,14075 10957,14120 11055,14159 11153,14192 11251,14225 11349,14265 11446,14287 11544,14317 11642,14313 11740,14354 11837,14359 11935,14341 12033,14455 12131,14504 12229,14535 12326,14574 12424,14591 12522,14608 12620,14625 12718,14613 12816,14637 12914,14663 13012,14658 13110,14673 13207,14717 13305,14712 13403,14657 13501,14650 13599,14656 13697,14638 13795,21039 13893,20997 13991,20953 14089,20857 14186,20787 14284,20771 14382,20725 14480,20685 14578,20661 14676,20631 14774,20579 14872,20538 14970,20490 15067,20502 15165,20492 15263,20473 15361,20443 15459,20411 15557,20437 15655,20424 15753,20410 15851,20393 15948,20363 16046,20349 16144,20882 16242,20904 16340,20922 16438,20912 16536,20906 16634,20922 16732,20948 16829,20952 16927,20900 17025,20940 17123,20951 17221,20920 17319,20922 17417,20911 17515,20869 17613,20885 17711,20868 17808,20852 17906,20830 18004,20823 18102,20801 18200,20675 18298,20652 18396,20629 18494,20584 18592,20547"/>
 <path fill="none" stroke="rgb(0,0,255)" stroke-width="80" stroke-linejoin="round" stroke-dasharray="158,158" d="M 1461,20750 L 1559,20730 1657,20715 1755,20827 1853,20865 1951,20874 2049,20845 2147,20828 2245,20800 2342,21044 2440,21044 2538,21151 2636,21177 2734,21240 2832,21301 2930,21329 3028,21354 3126,21379 3224,21391 3321,21403 3419,21439 3517,21461 3615,21504 3713,21517 3811,21535 3909,21546 4007,21553 4105,21586 4202,21610 4300,21630 4398,21650 4496,21661 4594,21674 4692,21686 4790,21710 4888,21721 4986,21739 5083,21759 5181,21771 5279,21790 5377,21801 5475,21843 5573,21868 5671,21883 5769,21891 5867,21906 5964,21918 6062,21945 6160,21946 6258,21956 6356,21965 6454,21971 6552,21984 6650,21994 6748,22010 6846,22021 6943,22034 7041,22036 7139,22033 7237,22036 7335,22036 7433,22044 7531,22050 7629,22053 7727,22058 7824,22058 7922,22062 8020,22082 8118,22093 8216,22095 8314,22097 8412,22096 8510,22095 8608,22102 8705,22098 8803,22091 8901,22084 8999,22083 9097,22079 9195,22076 9293,22073 9391,22068 9489,22066 9586,22060 9684,22055 9782,22047 9880,22042 9978,22040 10076,22034 10174,22034 10272,22026 10370,22021 10468,22019 10565,22015 10663,22014 10761,22008 10859,22002 10957,21999 11055,21990 11153,21983 11251,21982 11349,21978 11446,21972 11544,21976 11642,22008 11740,22027 11837,22024 11935,22028 12033,22041 12131,22047 12229,22050 12326,22052 12424,22050 12522,22042 12620,22036 12718,22041 12816,22040 12914,22040 13012,22041 13110,22049 13207,22048 13305,22040 13403,22049 13501,22055 13599,22053 13697,22054 13795,22058 13893,22059 13991,22057 14089,22062 14186,22061 14284,22061 14382,22065 14480,22052 14578,22045 14676,22043 14774,22058 14872,22061 14970,22070 15067,22073 15165,22077 15263,22076 15361,22076 15459,22084 15557,22088 15655,22099 15753,22103 15851,22112 15948,22108 16046,22105 16144,22113 16242,22113 16340,22108 16438,22097 16536,22071 16634,22017 16732,21979 16829,21933 16927,21888 17025,21841 17123,21788 17221,21731 17319,21658 17417,21608 17515,21565 17613,21518 17711,21448 17808,21392 17906,21371 18004,21339 18102,21304 18200,21302 18298,21280 18396,21276 18494,21288 18592,21300"/>
 <text class="TextShape" transform="rotate(-90 1555 23210)"><tspan class="TextParagraph" font-family="Liberation Sans, sans-serif" font-size="282px" font-weight="400"><tspan class="TextPosition" x="1555" y="23210"><tspan fill="rgb(0,0,0)" stroke="none">13.03</tspan></tspan></tspan></text>
 <text class="TextShape" transform="rotate(-90 1947 23210)"><tspan class="TextParagraph" font-family="Liberation Sans, sans-serif" font-size="282px" font-weight="400"><tspan class="TextPosition" x="1947" y="23210"><tspan fill="rgb(0,0,0)" stroke="none">17.03</tspan></tspan></tspan></text>
 <text class="TextShape" transform="rotate(-90 2339 23210)"><tspan class="TextParagraph" font-family="Liberation Sans, sans-serif" font-size="282px" font-weight="400"><tspan class="TextPosition" x="2339" y="23210"><tspan fill="rgb(0,0,0)" stroke="none">21.03</tspan></tspan></tspan></text>
 <text class="TextShape" transform="rotate(-90 2730 23210)"><tspan class="TextParagraph" font-family="Liberation Sans, sans-serif" font-size="282px" font-weight="400"><tspan class="TextPosition" x="2730" y="23210"><tspan fill="rgb(0,0,0)" stroke="none">25.03</tspan></tspan></tspan></text>
 <text class="TextShape" transform="rotate(-90 3122 23210)"><tspan class="TextParagraph" font-family="Liberation Sans, sans-serif" font-size="282px" font-weight="400"><tspan class="TextPosition" x="3122" y="23210"><tspan fill="rgb(0,0,0)" stroke="none">29.03</tspan></tspan></tspan></text>
 <text class="TextShape" transform="rotate(-90 3513 23210)"><tspan class="TextParagraph" font-family="Liberation Sans, sans-serif" font-size="282px" font-weight="400"><tspan class="TextPosition" x="3513" y="23210"><tspan fill="rgb(0,0,0)" stroke="none">02.04</tspan></tspan></tspan></text>
 <text class="TextShape" transform="rotate(-90 3905 23210)"><tspan class="TextParagraph" font-family="Liberation Sans, sans-serif" font-size="282px" font-weight="400"><tspan class="TextPosition" x="3905" y="23210"><tspan fill="rgb(0,0,0)" stroke="none">06.04</tspan></tspan></tspan></text>
 <text class="TextShape" transform="rotate(-90 4296 23210)"><tspan class="TextParagraph" font-family="Liberation Sans, sans-serif" font-size="282px" font-weight="400"><tspan class="TextPosition" x="4296" y="23210"><tspan fill="rgb(0,0,0)" stroke="none">10.04</tspan></tspan></tspan></text>
 <text class="TextShape" transform="rotate(-90 4688 23210)"><tspan class="TextParagraph" font-family="Liberation Sans, sans-serif" font-size="282px" font-weight="400"><tspan class="TextPosition" x="4688" y="23210"><tspan fill="rgb(0,0,0)" stroke="none">14.04</tspan></tspan></tspan></text>
 <text class="TextShape" transform="rotate(-90 5080 23210)"><tspan class="TextParagraph" font-family="Liberation Sans, sans-serif" font-size="282px" font-weight="400"><tspan class="TextPosition" x="5080" y="23210"><tspan fill="rgb(0,0,0)" stroke="none">18.04</tspan></tspan></tspan></text>
 <text class="TextShape" transform="rotate(-90 5471 23210)"><tspan class="TextParagraph" font-family="Liberation Sans, sans-serif" font-size="282px" font-weight="400"><tspan class="TextPosition" x="5471" y="23210"><tspan fill="rgb(0,0,0)" stroke="none">22.04</tspan></tspan></tspan></text>
 <text class="TextShape" transform="rotate(-90 5863 23210)"><tspan class="TextParagraph" font-family="Liberation Sans, sans-serif" font-size="282px" font-weight="400"><tspan class="TextPosition" x="5863" y="23210"><tspan fill="rgb(0,0,0)" stroke="none">26.04</tspan></tspan></tspan></text>
 <text class="TextShape" transform="rotate(-90 6254 23210)"><tspan class="TextParagraph" font-family="Liberation Sans, sans-serif" font-size="282px" font-weight="400"><tspan class="TextPosition" x="6254" y="23210"><tspan fill="rgb(0,0,0)" stroke="none">30.04</tspan></tspan></tspan></text>
 <text class="TextShape" transform="rotate(-90 6646 23210)"><tspan class="TextParagraph" font-family="Liberation Sans, sans-serif" font-size="282px" font-weight="400"><tspan class="TextPosition" x="6646" y="23210"><tspan fill="rgb(0,0,0)" stroke="none">04.05</tspan></tspan></tspan></text>
 <text class="TextShape" transform="rotate(-90 7037 23210)"><tspan class="TextParagraph" font-family="Liberation Sans, sans-serif" font-size="282px" font-weight="400"><tspan class="TextPosition" x="7037" y="23210"><tspan fill="rgb(0,0,0)" stroke="none">08.05</tspan></tspan></tspan></text>
 <text class="TextShape" transform="rotate(-90 7429 23210)"><tspan class="TextParagraph" font-family="Liberation Sans, sans-serif" font-size="282px" font-weight="400"><tspan class="TextPosition" x="7429" y="23210"><tspan fill="rgb(0,0,0)" stroke="none">12.05</tspan></tspan></tspan></text>
 <text class="TextShape" transform="rotate(-90 7821 23210)"><tspan class="TextParagraph" font-family="Liberation Sans, sans-serif" font-size="282px" font-weight="400"><tspan class="TextPosition" x="7821" y="23210"><tspan fill="rgb(0,0,0)" stroke="none">16.05</tspan></tspan></tspan></text>
 <text class="TextShape" transform="rotate(-90 8212 23210)"><tspan class="TextParagraph" font-family="Liberation Sans, sans-serif" font-size="282px" font-weight="400"><tspan class="TextPosition" x="8212" y="23210"><tspan fill="rgb(0,0,0)" stroke="none">20.05</tspan></tspan></tspan></text>
 <text class="TextShape" transform="rotate(-90 8604 23210)"><tspan class="TextParagraph" font-family="Liberation Sans, sans-serif" font-size="282px" font-weight="400"><tspan class="TextPosition" x="8604" y="23210"><tspan fill="rgb(0,0,0)" stroke="none">24.05</tspan></tspan></tspan></text>
 <text class="TextShape" transform="rotate(-90 8995 23210)"><tspan class="TextParagraph" font-family="Liberation Sans, sans-serif" font-size="282px" font-weight="400"><tspan class="TextPosition" x="8995" y="23210"><tspan fill="rgb(0,0,0)" stroke="none">28.05</tspan></tspan></tspan></text>
 <text class="TextShape" transform="rotate(-90 9387 23210)"><tspan class="TextParagraph" font-family="Liberation Sans, sans-serif" font-size="282px" font-weight="400"><tspan class="TextPosition" x="9387" y="23210"><tspan fill="rgb(0,0,0)" stroke="none">01.06</tspan></tspan></tspan></text>
 <text class="TextShape" transform="rotate(-90 9778 23210)"><tspan class="TextParagraph" font-family="Liberation Sans, sans-serif" font-size="282px" font-weight="400"><tspan class="TextPosition" x="9778" y="23210"><tspan fill="rgb(0,0,0)" stroke="none">05.06</tspan></tspan></tspan></text>
 <text class="TextShape" transform="rotate(-90 10170 23210)"><tspan class="TextParagraph" font-family="Liberation Sans, sans-serif" font-size="282px" font-weight="400"><tspan class="TextPosition" x="10170" y="23210"><tspan fill="rgb(0,0,0)" stroke="none">09.06</tspan></tspan></tspan></text>
 <text class="TextShape" transform="rotate(-90 10562 23210)"><tspan class="TextParagraph" font-family="Liberation Sans, sans-serif" font-size="282px" font-weight="400"><tspan class="TextPosition" x="10562" y="23210"><tspan fill="rgb(0,0,0)" stroke="none">13.06</tspan></tspan></tspan></text>
 <text class="TextShape" transform="rotate(-90 10953 23210)"><tspan class="TextParagraph" font-family="Liberation Sans, sans-serif" font-size="282px" font-weight="400"><tspan class="TextPosition" x="10953" y="23210"><tspan fill="rgb(0,0,0)" stroke="none">17.06</tspan></tspan></tspan></text>
 <text class="TextShape" transform="rotate(-90 11345 23210)"><tspan class="TextParagraph" font-family="Liberation Sans, sans-serif" font-size="282px" font-weight="400"><tspan class="TextPosition" x="11345" y="23210"><tspan fill="rgb(0,0,0)" stroke="none">21.06</tspan></tspan></tspan></text>
 <text class="TextShape" transform="rotate(-90 11736 23210)"><tspan class="TextParagraph" font-family="Liberation Sans, sans-serif" font-size="282px" font-weight="400"><tspan class="TextPosition" x="11736" y="23210"><tspan fill="rgb(0,0,0)" stroke="none">25.06</tspan></tspan></tspan></text>
 <text class="TextShape" transform="rotate(-90 12127 23210)"><tspan class="TextParagraph" font-family="Liberation Sans, sans-serif" font-size="282px" font-weight="400"><tspan class="TextPosition" x="12127" y="23210"><tspan fill="rgb(0,0,0)" stroke="none">29.06</tspan></tspan></tspan></text>
 <text class="TextShape" transform="rotate(-90 12518 23210)"><tspan class="TextParagraph" font-family="Liberation Sans, sans-serif" font-size="282px" font-weight="400"><tspan class="TextPosition" x="12518" y="23210"><tspan fill="rgb(0,0,0)" stroke="none">03.07</tspan></tspan></tspan></text>
 <text class="TextShape" transform="rotate(-90 12910 23210)"><tspan class="TextParagraph" font-family="Liberation Sans, sans-serif" font-size="282px" font-weight="400"><tspan class="TextPosition" x="12910" y="23210"><tspan fill="rgb(0,0,0)" stroke="none">07.07</tspan></tspan></tspan></text>
 <text class="TextShape" transform="rotate(-90 13301 23210)"><tspan class="TextParagraph" font-family="Liberation Sans, sans-serif" font-size="282px" font-weight="400"><tspan class="TextPosition" x="13301" y="23210"><tspan fill="rgb(0,0,0)" stroke="none">11.07</tspan></tspan></tspan></text>
 <text class="TextShape" transform="rotate(-90 13693 23210)"><tspan class="TextParagraph" font-family="Liberation Sans, sans-serif" font-size="282px" font-weight="400"><tspan class="TextPosition" x="13693" y="23210"><tspan fill="rgb(0,0,0)" stroke="none">15.07</tspan></tspan></tspan></text>
 <text class="TextShape" transform="rotate(-90 14085 23210)"><tspan class="TextParagraph" font-family="Liberation Sans, sans-serif" font-size="282px" font-weight="400"><tspan class="TextPosition" x="14085" y="23210"><tspan fill="rgb(0,0,0)" stroke="none">19.07</tspan></tspan></tspan></text>
 <text class="TextShape" transform="rotate(-90 14476 23210)"><tspan class="TextParagraph" font-family="Liberation Sans, sans-serif" font-size="282px" font-weight="400"><tspan class="TextPosition" x="14476" y="23210"><tspan fill="rgb(0,0,0)" stroke="none">23.07</tspan></tspan></tspan></text>
 <text class="TextShape" transform="rotate(-90 14868 23210)"><tspan class="TextParagraph" font-family="Liberation Sans, sans-serif" font-size="282px" font-weight="400"><tspan class="TextPosition" x="14868" y="23210"><tspan fill="rgb(0,0,0)" stroke="none">27.07</tspan></tspan></tspan></text>
 <text class="TextShape" transform="rotate(-90 15259 23210)"><tspan class="TextParagraph" font-family="Liberation Sans, sans-serif" font-size="282px" font-weight="400"><tspan class="TextPosition" x="15259" y="23210"><tspan fill="rgb(0,0,0)" stroke="none">31.07</tspan></tspan></tspan></text>
 <text class="TextShape" transform="rotate(-90 15651 23210)"><tspan class="TextParagraph" font-family="Liberation Sans, sans-serif" font-size="282px" font-weight="400"><tspan class="TextPosition" x="15651" y="23210"><tspan fill="rgb(0,0,0)" stroke="none">04.08</tspan></tspan></tspan></text>
 <text class="TextShape" transform="rotate(-90 16042 23210)"><tspan class="TextParagraph" font-family="Liberation Sans, sans-serif" font-size="282px" font-weight="400"><tspan class="TextPosition" x="16042" y="23210"><tspan fill="rgb(0,0,0)" stroke="none">08.08</tspan></tspan></tspan></text>
 <text class="TextShape" transform="rotate(-90 16434 23210)"><tspan class="TextParagraph" font-family="Liberation Sans, sans-serif" font-size="282px" font-weight="400"><tspan class="TextPosition" x="16434" y="23210"><tspan fill="rgb(0,0,0)" stroke="none">12.08</tspan></tspan></tspan></text>
 <text class="TextShape" transform="rotate(-90 16826 23210)"><tspan class="TextParagraph" font-family="Liberation Sans, sans-serif" font-size="282px" font-weight="400"><tspan class="TextPosition" x="16826" y="23210"><tspan fill="rgb(0,0,0)" stroke="none">16.08</tspan></tspan></tspan></text>
 <text class="TextShape" transform="rotate(-90 17217 23210)"><tspan class="TextParagraph" font-family="Liberation Sans, sans-serif" font-size="282px" font-weight="400"><tspan class="TextPosition" x="17217" y="23210"><tspan fill="rgb(0,0,0)" stroke="none">20.08</tspan></tspan></tspan></text>
 <text class="TextShape" transform="rotate(-90 17609 23210)"><tspan class="TextParagraph" font-family="Liberation Sans, sans-serif" font-size="282px" font-weight="400"><tspan class="TextPosition" x="17609" y="23210"><tspan fill="rgb(0,0,0)" stroke="none">24.08</tspan></tspan></tspan></text>
 <text class="TextShape" transform="rotate(-90 18000 23210)"><tspan class="TextParagraph" font-family="Liberation Sans, sans-serif" font-size="282px" font-weight="400"><tspan class="TextPosition" x="18000" y="23210"><tspan fill="rgb(0,0,0)" stroke="none">28.08</tspan></tspan></tspan></text>
 <text class="TextShape" transform="rotate(-90 18392 23210)"><tspan class="TextParagraph" font-family="Liberation Sans, sans-serif" font-size="282px" font-weight="400"><tspan class="TextPosition" x="18392" y="23210"><tspan fill="rgb(0,0,0)" stroke="none">01.09</tspan></tspan></tspan></text>
 <text class="TextShape"><tspan class="TextParagraph" font-family="Liberation Sans, sans-serif" font-size="388px" font-weight="400"><tspan class="TextPosition" x="941" y="22372"><tspan fill="rgb(0,0,0)" stroke="none">0</tspan></tspan></tspan></text>
 <text class="TextShape"><tspan class="TextParagraph" font-family="Liberation Sans, sans-serif" font-size="388px" font-weight="400"><tspan class="TextPosition" x="496" y="17219"><tspan fill="rgb(0,0,0)" stroke="none">500</tspan></tspan></tspan></text>
 <text class="TextShape"><tspan class="TextParagraph" font-family="Liberation Sans, sans-serif" font-size="388px" font-weight="400"><tspan class="TextPosition" x="274" y="12066"><tspan fill="rgb(0,0,0)" stroke="none">1000</tspan></tspan></tspan></text>
 <text class="TextShape"><tspan class="TextParagraph" font-family="Liberation Sans, sans-serif" font-size="388px" font-weight="400"><tspan class="TextPosition" x="274" y="6913"><tspan fill="rgb(0,0,0)" stroke="none">1500</tspan></tspan></tspan></text>
 <text class="TextShape"><tspan class="TextParagraph" font-family="Liberation Sans, sans-serif" font-size="388px" font-weight="400"><tspan class="TextPosition" x="274" y="1761"><tspan fill="rgb(0,0,0)" stroke="none">2000</tspan></tspan></tspan></text>
 <text class="TextShape"><tspan class="TextParagraph" font-family="Liberation Sans, sans-serif" font-size="494px" font-weight="700"><tspan class="TextPosition" x="900" y="984"><tspan fill="rgb(0,0,0)" stroke="none">Poet aktivnch ppad na milin obyvatel (mtko do 2000 na milin obyvatel)</tspan></tspan></tspan></text>
 <path fill="none" stroke="rgb(141,40,30)" stroke-width="80" stroke-linejoin="round" stroke-dasharray="80,40" d="M 18829,2506 L 20429,2506"/>
 <path fill="none" stroke="rgb(255,64,0)" stroke-width="80" stroke-linejoin="round" stroke-dasharray="80,40" d="M 18829,3707 L 20429,3707"/>
 <path fill="none" stroke="rgb(0,223,255)" stroke-width="80" stroke-linejoin="round" stroke-dasharray="158,102" d="M 18829,4908 L 20429,4908"/>
 <path fill="none" stroke="rgb(21,132,102)" stroke-width="80" stroke-linejoin="round" stroke-dasharray="80,203,80,203,203,203" d="M 18829,6109 L 20429,6109"/>
 <path fill="none" stroke="rgb(191,0,65)" stroke-width="80" stroke-linejoin="round" stroke-dasharray="51,127,51,127,254,127,254,127,254,127" d="M 18829,7310 L 20429,7310"/>
 <path fill="none" stroke="rgb(128,0,128)" stroke-width="80" stroke-linejoin="round" stroke-dasharray="158,158" d="M 18829,8511 L 20429,8511"/>
 <path fill="none" stroke="rgb(255,211,32)" stroke-width="80" stroke-linejoin="round" d="M 18829,9712 L 20429,9712"/>
 <path fill="none" stroke="rgb(0,255,0)" stroke-width="80" stroke-linejoin="round" d="M 18829,10913 L 20429,10913"/>
 <path fill="none" stroke="rgb(0,169,51)" stroke-width="80" stroke-linejoin="round" d="M 18829,12113 L 20429,12113"/>
 <path fill="none" stroke="rgb(131,202,255)" stroke-width="80" stroke-linejoin="round" d="M 18829,13314 L 20429,13314"/>
 <path fill="none" stroke="rgb(0,169,51)" stroke-width="80" stroke-linejoin="round" stroke-dasharray="158,102" d="M 18829,14515 L 20429,14515"/>
 <path fill="none" stroke="rgb(0,169,51)" stroke-width="80" stroke-linejoin="round" stroke-dasharray="80,40" d="M 18829,15716 L 20429,15716"/>
 <path fill="none" stroke="rgb(180,120,4)" stroke-width="80" stroke-linejoin="round" d="M 18829,16917 L 20429,16917"/>
 <path fill="none" stroke="rgb(0,0,0)" stroke-width="80" stroke-linejoin="round" d="M 18829,18118 L 20429,18118"/>
 <path fill="none" stroke="rgb(255,0,0)" stroke-width="80" stroke-linejoin="round" stroke-dasharray="158,102" d="M 18829,19319 L 20429,19319"/>
 <path fill="none" stroke="rgb(85,48,141)" stroke-width="80" stroke-linejoin="round" stroke-dasharray="80,40" d="M 18829,20520 L 20429,20520"/>
 <path fill="none" stroke="rgb(0,0,255)" stroke-width="80" stroke-linejoin="round" stroke-dasharray="158,158" d="M 18829,21721 L 20429,21721"/>
 <text class="TextShape"><tspan class="TextParagraph" font-family="Liberation Sans, sans-serif" font-size="423px" font-weight="400"><tspan class="TextPosition" x="20529" y="2654"><tspan fill="rgb(0,0,0)" stroke="none">USA</tspan></tspan></tspan></text>
 <text class="TextShape"><tspan class="TextParagraph" font-family="Liberation Sans, sans-serif" font-size="423px" font-weight="400"><tspan class="TextPosition" x="20529" y="3855"><tspan fill="rgb(0,0,0)" stroke="none">Brazlie</tspan></tspan></tspan></text>
 <text class="TextShape"><tspan class="TextParagraph" font-family="Liberation Sans, sans-serif" font-size="423px" font-weight="400"><tspan class="TextPosition" x="20529" y="5056"><tspan fill="rgb(0,0,0)" stroke="none">Rusko</tspan></tspan></tspan></text>
 <text class="TextShape"><tspan class="TextParagraph" font-family="Liberation Sans, sans-serif" font-size="423px" font-weight="400"><tspan class="TextPosition" x="20529" y="6257"><tspan fill="rgb(0,0,0)" stroke="none">celosvtov</tspan></tspan></tspan></text>
 <text class="TextShape"><tspan class="TextParagraph" font-family="Liberation Sans, sans-serif" font-size="423px" font-weight="400"><tspan class="TextPosition" x="20529" y="7458"><tspan fill="rgb(0,0,0)" stroke="none">EU_nov zem</tspan></tspan></tspan></text>
 <text class="TextShape"><tspan class="TextParagraph" font-family="Liberation Sans, sans-serif" font-size="423px" font-weight="400"><tspan class="TextPosition" x="20529" y="8659"><tspan fill="rgb(0,0,0)" stroke="none">Indie</tspan></tspan></tspan></text>
 <text class="TextShape"><tspan class="TextParagraph" font-family="Liberation Sans, sans-serif" font-size="423px" font-weight="400"><tspan class="TextPosition" x="20529" y="9860"><tspan fill="rgb(0,0,0)" stroke="none">esko</tspan></tspan></tspan></text>
 <text class="TextShape"><tspan class="TextParagraph" font-family="Liberation Sans, sans-serif" font-size="423px" font-weight="400"><tspan class="TextPosition" x="20529" y="11061"><tspan fill="rgb(0,0,0)" stroke="none">vcarsko</tspan></tspan></tspan></text>
 <text class="TextShape"><tspan class="TextParagraph" font-family="Liberation Sans, sans-serif" font-size="423px" font-weight="400"><tspan class="TextPosition" x="20529" y="12261"><tspan fill="rgb(0,0,0)" stroke="none">Rakousko</tspan></tspan></tspan></text>
 <text class="TextShape"><tspan class="TextParagraph" font-family="Liberation Sans, sans-serif" font-size="423px" font-weight="400"><tspan class="TextPosition" x="20529" y="13462"><tspan fill="rgb(0,0,0)" stroke="none">Itlie</tspan></tspan></tspan></text>
 <text class="TextShape"><tspan class="TextParagraph" font-family="Liberation Sans, sans-serif" font-size="423px" font-weight="400"><tspan class="TextPosition" x="20529" y="14663"><tspan fill="rgb(0,0,0)" stroke="none">rn</tspan></tspan></tspan></text>
 <text class="TextShape"><tspan class="TextParagraph" font-family="Liberation Sans, sans-serif" font-size="423px" font-weight="400"><tspan class="TextPosition" x="20529" y="15864"><tspan fill="rgb(0,0,0)" stroke="none">Mexiko</tspan></tspan></tspan></text>
 <text class="TextShape"><tspan class="TextParagraph" font-family="Liberation Sans, sans-serif" font-size="423px" font-weight="400"><tspan class="TextPosition" x="20529" y="17065"><tspan fill="rgb(0,0,0)" stroke="none">Dnsko</tspan></tspan></tspan></text>
 <text class="TextShape"><tspan class="TextParagraph" font-family="Liberation Sans, sans-serif" font-size="423px" font-weight="400"><tspan class="TextPosition" x="20529" y="18266"><tspan fill="rgb(0,0,0)" stroke="none">Nmecko</tspan></tspan></tspan></text>
 <text class="TextShape"><tspan class="TextParagraph" font-family="Liberation Sans, sans-serif" font-size="423px" font-weight="400"><tspan class="TextPosition" x="20529" y="19467"><tspan fill="rgb(0,0,0)" stroke="none">Turecko</tspan></tspan></tspan></text>
 <text class="TextShape"><tspan class="TextParagraph" font-family="Liberation Sans, sans-serif" font-size="423px" font-weight="400"><tspan class="TextPosition" x="20529" y="20668"><tspan fill="rgb(0,0,0)" stroke="none">Kanada</tspan></tspan></tspan></text>
 <text class="TextShape"><tspan class="TextParagraph" font-family="Liberation Sans, sans-serif" font-size="423px" font-weight="400"><tspan class="TextPosition" x="20529" y="21869"><tspan fill="rgb(0,0,0)" stroke="none">Jin Korea</tspan></tspan></tspan></text>
</svg>