<?xml version="1.0" encoding="UTF-8"?>
<!DOCTYPE svg PUBLIC "-//W3C//DTD SVG 1.1//EN" "http://www.w3.org/Graphics/SVG/1.1/DTD/svg11.dtd">
<svg width="236mm" height="238mm" viewBox="0 0 23600 23800" version="1.1" xmlns="http://www.w3.org/2000/svg" xmlns:xlink="http://www.w3.org/1999/xlink" stroke-width="28.222" stroke-linejoin="round" xml:space="preserve">
 <path fill="rgb(255,255,255)" stroke="none" d="M 11801,23813 L 0,23813 0,0 23601,0 23601,23813 11801,23813 Z"/>
 <path fill="none" stroke="rgb(179,179,179)" stroke-linejoin="round" d="M 10027,22240 L 1413,22240 1413,1630 18641,1630 18641,22240 10027,22240 Z"/>
 <path fill="none" stroke="rgb(179,179,179)" stroke-linejoin="round" d="M 18641,22239 L 1413,22239"/>
 <path fill="none" stroke="rgb(179,179,179)" stroke-linejoin="round" d="M 18641,17086 L 1413,17086"/>
 <path fill="none" stroke="rgb(179,179,179)" stroke-linejoin="round" d="M 18641,11933 L 1413,11933"/>
 <path fill="none" stroke="rgb(179,179,179)" stroke-linejoin="round" d="M 18641,6781 L 1413,6781"/>
 <path fill="none" stroke="rgb(179,179,179)" stroke-linejoin="round" d="M 18641,1629 L 1413,1629"/>
 <path fill="none" stroke="rgb(221,221,221)" stroke-linejoin="round" stroke-dasharray="53,34" d="M 18641,21208 L 1413,21208"/>
 <path fill="none" stroke="rgb(221,221,221)" stroke-linejoin="round" stroke-dasharray="53,34" d="M 18641,20177 L 1413,20177"/>
 <path fill="none" stroke="rgb(221,221,221)" stroke-linejoin="round" stroke-dasharray="53,34" d="M 18641,19147 L 1413,19147"/>
 <path fill="none" stroke="rgb(221,221,221)" stroke-linejoin="round" stroke-dasharray="53,34" d="M 18641,18116 L 1413,18116"/>
 <path fill="none" stroke="rgb(221,221,221)" stroke-linejoin="round" stroke-dasharray="53,34" d="M 18641,16055 L 1413,16055"/>
 <path fill="none" stroke="rgb(221,221,221)" stroke-linejoin="round" stroke-dasharray="53,34" d="M 18641,15025 L 1413,15025"/>
 <path fill="none" stroke="rgb(221,221,221)" stroke-linejoin="round" stroke-dasharray="53,34" d="M 18641,13994 L 1413,13994"/>
 <path fill="none" stroke="rgb(221,221,221)" stroke-linejoin="round" stroke-dasharray="53,34" d="M 18641,12964 L 1413,12964"/>
 <path fill="none" stroke="rgb(221,221,221)" stroke-linejoin="round" stroke-dasharray="53,34" d="M 18641,10903 L 1413,10903"/>
 <path fill="none" stroke="rgb(221,221,221)" stroke-linejoin="round" stroke-dasharray="53,34" d="M 18641,9873 L 1413,9873"/>
 <path fill="none" stroke="rgb(221,221,221)" stroke-linejoin="round" stroke-dasharray="53,34" d="M 18641,8842 L 1413,8842"/>
 <path fill="none" stroke="rgb(221,221,221)" stroke-linejoin="round" stroke-dasharray="53,34" d="M 18641,7812 L 1413,7812"/>
 <path fill="none" stroke="rgb(221,221,221)" stroke-linejoin="round" stroke-dasharray="53,34" d="M 18641,5751 L 1413,5751"/>
 <path fill="none" stroke="rgb(221,221,221)" stroke-linejoin="round" stroke-dasharray="53,34" d="M 18641,4720 L 1413,4720"/>
 <path fill="none" stroke="rgb(221,221,221)" stroke-linejoin="round" stroke-dasharray="53,34" d="M 18641,3690 L 1413,3690"/>
 <path fill="none" stroke="rgb(221,221,221)" stroke-linejoin="round" stroke-dasharray="53,34" d="M 18641,2659 L 1413,2659"/>
 <path fill="none" stroke="rgb(179,179,179)" stroke-linejoin="round" d="M 1413,22389 L 1413,22089"/>
 <path fill="none" stroke="rgb(179,179,179)" stroke-linejoin="round" d="M 1413,22389 L 1413,22089"/>
 <path fill="none" stroke="rgb(179,179,179)" stroke-linejoin="round" d="M 2064,22389 L 2064,22089"/>
 <path fill="none" stroke="rgb(179,179,179)" stroke-linejoin="round" d="M 2064,22389 L 2064,22089"/>
 <path fill="none" stroke="rgb(179,179,179)" stroke-linejoin="round" d="M 2716,22389 L 2716,22089"/>
 <path fill="none" stroke="rgb(179,179,179)" stroke-linejoin="round" d="M 2716,22389 L 2716,22089"/>
 <path fill="none" stroke="rgb(179,179,179)" stroke-linejoin="round" d="M 3368,22389 L 3368,22089"/>
 <path fill="none" stroke="rgb(179,179,179)" stroke-linejoin="round" d="M 3368,22389 L 3368,22089"/>
 <path fill="none" stroke="rgb(179,179,179)" stroke-linejoin="round" d="M 4020,22389 L 4020,22089"/>
 <path fill="none" stroke="rgb(179,179,179)" stroke-linejoin="round" d="M 4020,22389 L 4020,22089"/>
 <path fill="none" stroke="rgb(179,179,179)" stroke-linejoin="round" d="M 4672,22389 L 4672,22089"/>
 <path fill="none" stroke="rgb(179,179,179)" stroke-linejoin="round" d="M 4672,22389 L 4672,22089"/>
 <path fill="none" stroke="rgb(179,179,179)" stroke-linejoin="round" d="M 5324,22389 L 5324,22089"/>
 <path fill="none" stroke="rgb(179,179,179)" stroke-linejoin="round" d="M 5324,22389 L 5324,22089"/>
 <path fill="none" stroke="rgb(179,179,179)" stroke-linejoin="round" d="M 5976,22389 L 5976,22089"/>
 <path fill="none" stroke="rgb(179,179,179)" stroke-linejoin="round" d="M 5976,22389 L 5976,22089"/>
 <path fill="none" stroke="rgb(179,179,179)" stroke-linejoin="round" d="M 6628,22389 L 6628,22089"/>
 <path fill="none" stroke="rgb(179,179,179)" stroke-linejoin="round" d="M 6628,22389 L 6628,22089"/>
 <path fill="none" stroke="rgb(179,179,179)" stroke-linejoin="round" d="M 7280,22389 L 7280,22089"/>
 <path fill="none" stroke="rgb(179,179,179)" stroke-linejoin="round" d="M 7280,22389 L 7280,22089"/>
 <path fill="none" stroke="rgb(179,179,179)" stroke-linejoin="round" d="M 7932,22389 L 7932,22089"/>
 <path fill="none" stroke="rgb(179,179,179)" stroke-linejoin="round" d="M 7932,22389 L 7932,22089"/>
 <path fill="none" stroke="rgb(179,179,179)" stroke-linejoin="round" d="M 8583,22389 L 8583,22089"/>
 <path fill="none" stroke="rgb(179,179,179)" stroke-linejoin="round" d="M 8583,22389 L 8583,22089"/>
 <path fill="none" stroke="rgb(179,179,179)" stroke-linejoin="round" d="M 9235,22389 L 9235,22089"/>
 <path fill="none" stroke="rgb(179,179,179)" stroke-linejoin="round" d="M 9235,22389 L 9235,22089"/>
 <path fill="none" stroke="rgb(179,179,179)" stroke-linejoin="round" d="M 9887,22389 L 9887,22089"/>
 <path fill="none" stroke="rgb(179,179,179)" stroke-linejoin="round" d="M 9887,22389 L 9887,22089"/>
 <path fill="none" stroke="rgb(179,179,179)" stroke-linejoin="round" d="M 10539,22389 L 10539,22089"/>
 <path fill="none" stroke="rgb(179,179,179)" stroke-linejoin="round" d="M 10539,22389 L 10539,22089"/>
 <path fill="none" stroke="rgb(179,179,179)" stroke-linejoin="round" d="M 11191,22389 L 11191,22089"/>
 <path fill="none" stroke="rgb(179,179,179)" stroke-linejoin="round" d="M 11191,22389 L 11191,22089"/>
 <path fill="none" stroke="rgb(179,179,179)" stroke-linejoin="round" d="M 11842,22389 L 11842,22089"/>
 <path fill="none" stroke="rgb(179,179,179)" stroke-linejoin="round" d="M 11842,22389 L 11842,22089"/>
 <path fill="none" stroke="rgb(179,179,179)" stroke-linejoin="round" d="M 12494,22389 L 12494,22089"/>
 <path fill="none" stroke="rgb(179,179,179)" stroke-linejoin="round" d="M 12494,22389 L 12494,22089"/>
 <path fill="none" stroke="rgb(179,179,179)" stroke-linejoin="round" d="M 13146,22389 L 13146,22089"/>
 <path fill="none" stroke="rgb(179,179,179)" stroke-linejoin="round" d="M 13146,22389 L 13146,22089"/>
 <path fill="none" stroke="rgb(179,179,179)" stroke-linejoin="round" d="M 13798,22389 L 13798,22089"/>
 <path fill="none" stroke="rgb(179,179,179)" stroke-linejoin="round" d="M 13798,22389 L 13798,22089"/>
 <path fill="none" stroke="rgb(179,179,179)" stroke-linejoin="round" d="M 14450,22389 L 14450,22089"/>
 <path fill="none" stroke="rgb(179,179,179)" stroke-linejoin="round" d="M 14450,22389 L 14450,22089"/>
 <path fill="none" stroke="rgb(179,179,179)" stroke-linejoin="round" d="M 15102,22389 L 15102,22089"/>
 <path fill="none" stroke="rgb(179,179,179)" stroke-linejoin="round" d="M 15102,22389 L 15102,22089"/>
 <path fill="none" stroke="rgb(179,179,179)" stroke-linejoin="round" d="M 15753,22389 L 15753,22089"/>
 <path fill="none" stroke="rgb(179,179,179)" stroke-linejoin="round" d="M 15753,22389 L 15753,22089"/>
 <path fill="none" stroke="rgb(179,179,179)" stroke-linejoin="round" d="M 16405,22389 L 16405,22089"/>
 <path fill="none" stroke="rgb(179,179,179)" stroke-linejoin="round" d="M 16405,22389 L 16405,22089"/>
 <path fill="none" stroke="rgb(179,179,179)" stroke-linejoin="round" d="M 17057,22389 L 17057,22089"/>
 <path fill="none" stroke="rgb(179,179,179)" stroke-linejoin="round" d="M 17057,22389 L 17057,22089"/>
 <path fill="none" stroke="rgb(179,179,179)" stroke-linejoin="round" d="M 17709,22389 L 17709,22089"/>
 <path fill="none" stroke="rgb(179,179,179)" stroke-linejoin="round" d="M 17709,22389 L 17709,22089"/>
 <path fill="none" stroke="rgb(179,179,179)" stroke-linejoin="round" d="M 18361,22389 L 18361,22089"/>
 <path fill="none" stroke="rgb(179,179,179)" stroke-linejoin="round" d="M 18361,22389 L 18361,22089"/>
 <path fill="none" stroke="rgb(179,179,179)" stroke-linejoin="round" d="M 1413,22351 L 1413,22239"/>
 <path fill="none" stroke="rgb(179,179,179)" stroke-linejoin="round" d="M 1413,22351 L 1413,22239"/>
 <path fill="none" stroke="rgb(179,179,179)" stroke-linejoin="round" d="M 1506,22351 L 1506,22239"/>
 <path fill="none" stroke="rgb(179,179,179)" stroke-linejoin="round" d="M 1506,22351 L 1506,22239"/>
 <path fill="none" stroke="rgb(179,179,179)" stroke-linejoin="round" d="M 1599,22351 L 1599,22239"/>
 <path fill="none" stroke="rgb(179,179,179)" stroke-linejoin="round" d="M 1599,22351 L 1599,22239"/>
 <path fill="none" stroke="rgb(179,179,179)" stroke-linejoin="round" d="M 1692,22351 L 1692,22239"/>
 <path fill="none" stroke="rgb(179,179,179)" stroke-linejoin="round" d="M 1692,22351 L 1692,22239"/>
 <path fill="none" stroke="rgb(179,179,179)" stroke-linejoin="round" d="M 1785,22351 L 1785,22239"/>
 <path fill="none" stroke="rgb(179,179,179)" stroke-linejoin="round" d="M 1785,22351 L 1785,22239"/>
 <path fill="none" stroke="rgb(179,179,179)" stroke-linejoin="round" d="M 1878,22351 L 1878,22239"/>
 <path fill="none" stroke="rgb(179,179,179)" stroke-linejoin="round" d="M 1878,22351 L 1878,22239"/>
 <path fill="none" stroke="rgb(179,179,179)" stroke-linejoin="round" d="M 1971,22351 L 1971,22239"/>
 <path fill="none" stroke="rgb(179,179,179)" stroke-linejoin="round" d="M 1971,22351 L 1971,22239"/>
 <path fill="none" stroke="rgb(179,179,179)" stroke-linejoin="round" d="M 2064,22351 L 2064,22239"/>
 <path fill="none" stroke="rgb(179,179,179)" stroke-linejoin="round" d="M 2064,22351 L 2064,22239"/>
 <path fill="none" stroke="rgb(179,179,179)" stroke-linejoin="round" d="M 2158,22351 L 2158,22239"/>
 <path fill="none" stroke="rgb(179,179,179)" stroke-linejoin="round" d="M 2158,22351 L 2158,22239"/>
 <path fill="none" stroke="rgb(179,179,179)" stroke-linejoin="round" d="M 2251,22351 L 2251,22239"/>
 <path fill="none" stroke="rgb(179,179,179)" stroke-linejoin="round" d="M 2251,22351 L 2251,22239"/>
 <path fill="none" stroke="rgb(179,179,179)" stroke-linejoin="round" d="M 2344,22351 L 2344,22239"/>
 <path fill="none" stroke="rgb(179,179,179)" stroke-linejoin="round" d="M 2344,22351 L 2344,22239"/>
 <path fill="none" stroke="rgb(179,179,179)" stroke-linejoin="round" d="M 2437,22351 L 2437,22239"/>
 <path fill="none" stroke="rgb(179,179,179)" stroke-linejoin="round" d="M 2437,22351 L 2437,22239"/>
 <path fill="none" stroke="rgb(179,179,179)" stroke-linejoin="round" d="M 2530,22351 L 2530,22239"/>
 <path fill="none" stroke="rgb(179,179,179)" stroke-linejoin="round" d="M 2530,22351 L 2530,22239"/>
 <path fill="none" stroke="rgb(179,179,179)" stroke-linejoin="round" d="M 2623,22351 L 2623,22239"/>
 <path fill="none" stroke="rgb(179,179,179)" stroke-linejoin="round" d="M 2623,22351 L 2623,22239"/>
 <path fill="none" stroke="rgb(179,179,179)" stroke-linejoin="round" d="M 2716,22351 L 2716,22239"/>
 <path fill="none" stroke="rgb(179,179,179)" stroke-linejoin="round" d="M 2716,22351 L 2716,22239"/>
 <path fill="none" stroke="rgb(179,179,179)" stroke-linejoin="round" d="M 2809,22351 L 2809,22239"/>
 <path fill="none" stroke="rgb(179,179,179)" stroke-linejoin="round" d="M 2809,22351 L 2809,22239"/>
 <path fill="none" stroke="rgb(179,179,179)" stroke-linejoin="round" d="M 2903,22351 L 2903,22239"/>
 <path fill="none" stroke="rgb(179,179,179)" stroke-linejoin="round" d="M 2903,22351 L 2903,22239"/>
 <path fill="none" stroke="rgb(179,179,179)" stroke-linejoin="round" d="M 2996,22351 L 2996,22239"/>
 <path fill="none" stroke="rgb(179,179,179)" stroke-linejoin="round" d="M 2996,22351 L 2996,22239"/>
 <path fill="none" stroke="rgb(179,179,179)" stroke-linejoin="round" d="M 3089,22351 L 3089,22239"/>
 <path fill="none" stroke="rgb(179,179,179)" stroke-linejoin="round" d="M 3089,22351 L 3089,22239"/>
 <path fill="none" stroke="rgb(179,179,179)" stroke-linejoin="round" d="M 3182,22351 L 3182,22239"/>
 <path fill="none" stroke="rgb(179,179,179)" stroke-linejoin="round" d="M 3182,22351 L 3182,22239"/>
 <path fill="none" stroke="rgb(179,179,179)" stroke-linejoin="round" d="M 3275,22351 L 3275,22239"/>
 <path fill="none" stroke="rgb(179,179,179)" stroke-linejoin="round" d="M 3275,22351 L 3275,22239"/>
 <path fill="none" stroke="rgb(179,179,179)" stroke-linejoin="round" d="M 3368,22351 L 3368,22239"/>
 <path fill="none" stroke="rgb(179,179,179)" stroke-linejoin="round" d="M 3368,22351 L 3368,22239"/>
 <path fill="none" stroke="rgb(179,179,179)" stroke-linejoin="round" d="M 3461,22351 L 3461,22239"/>
 <path fill="none" stroke="rgb(179,179,179)" stroke-linejoin="round" d="M 3461,22351 L 3461,22239"/>
 <path fill="none" stroke="rgb(179,179,179)" stroke-linejoin="round" d="M 3554,22351 L 3554,22239"/>
 <path fill="none" stroke="rgb(179,179,179)" stroke-linejoin="round" d="M 3554,22351 L 3554,22239"/>
 <path fill="none" stroke="rgb(179,179,179)" stroke-linejoin="round" d="M 3648,22351 L 3648,22239"/>
 <path fill="none" stroke="rgb(179,179,179)" stroke-linejoin="round" d="M 3648,22351 L 3648,22239"/>
 <path fill="none" stroke="rgb(179,179,179)" stroke-linejoin="round" d="M 3741,22351 L 3741,22239"/>
 <path fill="none" stroke="rgb(179,179,179)" stroke-linejoin="round" d="M 3741,22351 L 3741,22239"/>
 <path fill="none" stroke="rgb(179,179,179)" stroke-linejoin="round" d="M 3834,22351 L 3834,22239"/>
 <path fill="none" stroke="rgb(179,179,179)" stroke-linejoin="round" d="M 3834,22351 L 3834,22239"/>
 <path fill="none" stroke="rgb(179,179,179)" stroke-linejoin="round" d="M 3927,22351 L 3927,22239"/>
 <path fill="none" stroke="rgb(179,179,179)" stroke-linejoin="round" d="M 3927,22351 L 3927,22239"/>
 <path fill="none" stroke="rgb(179,179,179)" stroke-linejoin="round" d="M 4020,22351 L 4020,22239"/>
 <path fill="none" stroke="rgb(179,179,179)" stroke-linejoin="round" d="M 4020,22351 L 4020,22239"/>
 <path fill="none" stroke="rgb(179,179,179)" stroke-linejoin="round" d="M 4113,22351 L 4113,22239"/>
 <path fill="none" stroke="rgb(179,179,179)" stroke-linejoin="round" d="M 4113,22351 L 4113,22239"/>
 <path fill="none" stroke="rgb(179,179,179)" stroke-linejoin="round" d="M 4206,22351 L 4206,22239"/>
 <path fill="none" stroke="rgb(179,179,179)" stroke-linejoin="round" d="M 4206,22351 L 4206,22239"/>
 <path fill="none" stroke="rgb(179,179,179)" stroke-linejoin="round" d="M 4300,22351 L 4300,22239"/>
 <path fill="none" stroke="rgb(179,179,179)" stroke-linejoin="round" d="M 4300,22351 L 4300,22239"/>
 <path fill="none" stroke="rgb(179,179,179)" stroke-linejoin="round" d="M 4393,22351 L 4393,22239"/>
 <path fill="none" stroke="rgb(179,179,179)" stroke-linejoin="round" d="M 4393,22351 L 4393,22239"/>
 <path fill="none" stroke="rgb(179,179,179)" stroke-linejoin="round" d="M 4486,22351 L 4486,22239"/>
 <path fill="none" stroke="rgb(179,179,179)" stroke-linejoin="round" d="M 4486,22351 L 4486,22239"/>
 <path fill="none" stroke="rgb(179,179,179)" stroke-linejoin="round" d="M 4579,22351 L 4579,22239"/>
 <path fill="none" stroke="rgb(179,179,179)" stroke-linejoin="round" d="M 4579,22351 L 4579,22239"/>
 <path fill="none" stroke="rgb(179,179,179)" stroke-linejoin="round" d="M 4672,22351 L 4672,22239"/>
 <path fill="none" stroke="rgb(179,179,179)" stroke-linejoin="round" d="M 4672,22351 L 4672,22239"/>
 <path fill="none" stroke="rgb(179,179,179)" stroke-linejoin="round" d="M 4765,22351 L 4765,22239"/>
 <path fill="none" stroke="rgb(179,179,179)" stroke-linejoin="round" d="M 4765,22351 L 4765,22239"/>
 <path fill="none" stroke="rgb(179,179,179)" stroke-linejoin="round" d="M 4858,22351 L 4858,22239"/>
 <path fill="none" stroke="rgb(179,179,179)" stroke-linejoin="round" d="M 4858,22351 L 4858,22239"/>
 <path fill="none" stroke="rgb(179,179,179)" stroke-linejoin="round" d="M 4951,22351 L 4951,22239"/>
 <path fill="none" stroke="rgb(179,179,179)" stroke-linejoin="round" d="M 4951,22351 L 4951,22239"/>
 <path fill="none" stroke="rgb(179,179,179)" stroke-linejoin="round" d="M 5045,22351 L 5045,22239"/>
 <path fill="none" stroke="rgb(179,179,179)" stroke-linejoin="round" d="M 5045,22351 L 5045,22239"/>
 <path fill="none" stroke="rgb(179,179,179)" stroke-linejoin="round" d="M 5138,22351 L 5138,22239"/>
 <path fill="none" stroke="rgb(179,179,179)" stroke-linejoin="round" d="M 5138,22351 L 5138,22239"/>
 <path fill="none" stroke="rgb(179,179,179)" stroke-linejoin="round" d="M 5231,22351 L 5231,22239"/>
 <path fill="none" stroke="rgb(179,179,179)" stroke-linejoin="round" d="M 5231,22351 L 5231,22239"/>
 <path fill="none" stroke="rgb(179,179,179)" stroke-linejoin="round" d="M 5324,22351 L 5324,22239"/>
 <path fill="none" stroke="rgb(179,179,179)" stroke-linejoin="round" d="M 5324,22351 L 5324,22239"/>
 <path fill="none" stroke="rgb(179,179,179)" stroke-linejoin="round" d="M 5417,22351 L 5417,22239"/>
 <path fill="none" stroke="rgb(179,179,179)" stroke-linejoin="round" d="M 5417,22351 L 5417,22239"/>
 <path fill="none" stroke="rgb(179,179,179)" stroke-linejoin="round" d="M 5510,22351 L 5510,22239"/>
 <path fill="none" stroke="rgb(179,179,179)" stroke-linejoin="round" d="M 5510,22351 L 5510,22239"/>
 <path fill="none" stroke="rgb(179,179,179)" stroke-linejoin="round" d="M 5603,22351 L 5603,22239"/>
 <path fill="none" stroke="rgb(179,179,179)" stroke-linejoin="round" d="M 5603,22351 L 5603,22239"/>
 <path fill="none" stroke="rgb(179,179,179)" stroke-linejoin="round" d="M 5696,22351 L 5696,22239"/>
 <path fill="none" stroke="rgb(179,179,179)" stroke-linejoin="round" d="M 5696,22351 L 5696,22239"/>
 <path fill="none" stroke="rgb(179,179,179)" stroke-linejoin="round" d="M 5790,22351 L 5790,22239"/>
 <path fill="none" stroke="rgb(179,179,179)" stroke-linejoin="round" d="M 5790,22351 L 5790,22239"/>
 <path fill="none" stroke="rgb(179,179,179)" stroke-linejoin="round" d="M 5883,22351 L 5883,22239"/>
 <path fill="none" stroke="rgb(179,179,179)" stroke-linejoin="round" d="M 5883,22351 L 5883,22239"/>
 <path fill="none" stroke="rgb(179,179,179)" stroke-linejoin="round" d="M 5976,22351 L 5976,22239"/>
 <path fill="none" stroke="rgb(179,179,179)" stroke-linejoin="round" d="M 5976,22351 L 5976,22239"/>
 <path fill="none" stroke="rgb(179,179,179)" stroke-linejoin="round" d="M 6069,22351 L 6069,22239"/>
 <path fill="none" stroke="rgb(179,179,179)" stroke-linejoin="round" d="M 6069,22351 L 6069,22239"/>
 <path fill="none" stroke="rgb(179,179,179)" stroke-linejoin="round" d="M 6162,22351 L 6162,22239"/>
 <path fill="none" stroke="rgb(179,179,179)" stroke-linejoin="round" d="M 6162,22351 L 6162,22239"/>
 <path fill="none" stroke="rgb(179,179,179)" stroke-linejoin="round" d="M 6255,22351 L 6255,22239"/>
 <path fill="none" stroke="rgb(179,179,179)" stroke-linejoin="round" d="M 6255,22351 L 6255,22239"/>
 <path fill="none" stroke="rgb(179,179,179)" stroke-linejoin="round" d="M 6348,22351 L 6348,22239"/>
 <path fill="none" stroke="rgb(179,179,179)" stroke-linejoin="round" d="M 6348,22351 L 6348,22239"/>
 <path fill="none" stroke="rgb(179,179,179)" stroke-linejoin="round" d="M 6442,22351 L 6442,22239"/>
 <path fill="none" stroke="rgb(179,179,179)" stroke-linejoin="round" d="M 6442,22351 L 6442,22239"/>
 <path fill="none" stroke="rgb(179,179,179)" stroke-linejoin="round" d="M 6535,22351 L 6535,22239"/>
 <path fill="none" stroke="rgb(179,179,179)" stroke-linejoin="round" d="M 6535,22351 L 6535,22239"/>
 <path fill="none" stroke="rgb(179,179,179)" stroke-linejoin="round" d="M 6628,22351 L 6628,22239"/>
 <path fill="none" stroke="rgb(179,179,179)" stroke-linejoin="round" d="M 6628,22351 L 6628,22239"/>
 <path fill="none" stroke="rgb(179,179,179)" stroke-linejoin="round" d="M 6721,22351 L 6721,22239"/>
 <path fill="none" stroke="rgb(179,179,179)" stroke-linejoin="round" d="M 6721,22351 L 6721,22239"/>
 <path fill="none" stroke="rgb(179,179,179)" stroke-linejoin="round" d="M 6814,22351 L 6814,22239"/>
 <path fill="none" stroke="rgb(179,179,179)" stroke-linejoin="round" d="M 6814,22351 L 6814,22239"/>
 <path fill="none" stroke="rgb(179,179,179)" stroke-linejoin="round" d="M 6907,22351 L 6907,22239"/>
 <path fill="none" stroke="rgb(179,179,179)" stroke-linejoin="round" d="M 6907,22351 L 6907,22239"/>
 <path fill="none" stroke="rgb(179,179,179)" stroke-linejoin="round" d="M 7000,22351 L 7000,22239"/>
 <path fill="none" stroke="rgb(179,179,179)" stroke-linejoin="round" d="M 7000,22351 L 7000,22239"/>
 <path fill="none" stroke="rgb(179,179,179)" stroke-linejoin="round" d="M 7093,22351 L 7093,22239"/>
 <path fill="none" stroke="rgb(179,179,179)" stroke-linejoin="round" d="M 7093,22351 L 7093,22239"/>
 <path fill="none" stroke="rgb(179,179,179)" stroke-linejoin="round" d="M 7187,22351 L 7187,22239"/>
 <path fill="none" stroke="rgb(179,179,179)" stroke-linejoin="round" d="M 7187,22351 L 7187,22239"/>
 <path fill="none" stroke="rgb(179,179,179)" stroke-linejoin="round" d="M 7280,22351 L 7280,22239"/>
 <path fill="none" stroke="rgb(179,179,179)" stroke-linejoin="round" d="M 7280,22351 L 7280,22239"/>
 <path fill="none" stroke="rgb(179,179,179)" stroke-linejoin="round" d="M 7373,22351 L 7373,22239"/>
 <path fill="none" stroke="rgb(179,179,179)" stroke-linejoin="round" d="M 7373,22351 L 7373,22239"/>
 <path fill="none" stroke="rgb(179,179,179)" stroke-linejoin="round" d="M 7466,22351 L 7466,22239"/>
 <path fill="none" stroke="rgb(179,179,179)" stroke-linejoin="round" d="M 7466,22351 L 7466,22239"/>
 <path fill="none" stroke="rgb(179,179,179)" stroke-linejoin="round" d="M 7559,22351 L 7559,22239"/>
 <path fill="none" stroke="rgb(179,179,179)" stroke-linejoin="round" d="M 7559,22351 L 7559,22239"/>
 <path fill="none" stroke="rgb(179,179,179)" stroke-linejoin="round" d="M 7652,22351 L 7652,22239"/>
 <path fill="none" stroke="rgb(179,179,179)" stroke-linejoin="round" d="M 7652,22351 L 7652,22239"/>
 <path fill="none" stroke="rgb(179,179,179)" stroke-linejoin="round" d="M 7745,22351 L 7745,22239"/>
 <path fill="none" stroke="rgb(179,179,179)" stroke-linejoin="round" d="M 7745,22351 L 7745,22239"/>
 <path fill="none" stroke="rgb(179,179,179)" stroke-linejoin="round" d="M 7838,22351 L 7838,22239"/>
 <path fill="none" stroke="rgb(179,179,179)" stroke-linejoin="round" d="M 7838,22351 L 7838,22239"/>
 <path fill="none" stroke="rgb(179,179,179)" stroke-linejoin="round" d="M 7932,22351 L 7932,22239"/>
 <path fill="none" stroke="rgb(179,179,179)" stroke-linejoin="round" d="M 7932,22351 L 7932,22239"/>
 <path fill="none" stroke="rgb(179,179,179)" stroke-linejoin="round" d="M 8025,22351 L 8025,22239"/>
 <path fill="none" stroke="rgb(179,179,179)" stroke-linejoin="round" d="M 8025,22351 L 8025,22239"/>
 <path fill="none" stroke="rgb(179,179,179)" stroke-linejoin="round" d="M 8118,22351 L 8118,22239"/>
 <path fill="none" stroke="rgb(179,179,179)" stroke-linejoin="round" d="M 8118,22351 L 8118,22239"/>
 <path fill="none" stroke="rgb(179,179,179)" stroke-linejoin="round" d="M 8211,22351 L 8211,22239"/>
 <path fill="none" stroke="rgb(179,179,179)" stroke-linejoin="round" d="M 8211,22351 L 8211,22239"/>
 <path fill="none" stroke="rgb(179,179,179)" stroke-linejoin="round" d="M 8304,22351 L 8304,22239"/>
 <path fill="none" stroke="rgb(179,179,179)" stroke-linejoin="round" d="M 8304,22351 L 8304,22239"/>
 <path fill="none" stroke="rgb(179,179,179)" stroke-linejoin="round" d="M 8397,22351 L 8397,22239"/>
 <path fill="none" stroke="rgb(179,179,179)" stroke-linejoin="round" d="M 8397,22351 L 8397,22239"/>
 <path fill="none" stroke="rgb(179,179,179)" stroke-linejoin="round" d="M 8490,22351 L 8490,22239"/>
 <path fill="none" stroke="rgb(179,179,179)" stroke-linejoin="round" d="M 8490,22351 L 8490,22239"/>
 <path fill="none" stroke="rgb(179,179,179)" stroke-linejoin="round" d="M 8583,22351 L 8583,22239"/>
 <path fill="none" stroke="rgb(179,179,179)" stroke-linejoin="round" d="M 8583,22351 L 8583,22239"/>
 <path fill="none" stroke="rgb(179,179,179)" stroke-linejoin="round" d="M 8677,22351 L 8677,22239"/>
 <path fill="none" stroke="rgb(179,179,179)" stroke-linejoin="round" d="M 8677,22351 L 8677,22239"/>
 <path fill="none" stroke="rgb(179,179,179)" stroke-linejoin="round" d="M 8770,22351 L 8770,22239"/>
 <path fill="none" stroke="rgb(179,179,179)" stroke-linejoin="round" d="M 8770,22351 L 8770,22239"/>
 <path fill="none" stroke="rgb(179,179,179)" stroke-linejoin="round" d="M 8863,22351 L 8863,22239"/>
 <path fill="none" stroke="rgb(179,179,179)" stroke-linejoin="round" d="M 8863,22351 L 8863,22239"/>
 <path fill="none" stroke="rgb(179,179,179)" stroke-linejoin="round" d="M 8956,22351 L 8956,22239"/>
 <path fill="none" stroke="rgb(179,179,179)" stroke-linejoin="round" d="M 8956,22351 L 8956,22239"/>
 <path fill="none" stroke="rgb(179,179,179)" stroke-linejoin="round" d="M 9049,22351 L 9049,22239"/>
 <path fill="none" stroke="rgb(179,179,179)" stroke-linejoin="round" d="M 9049,22351 L 9049,22239"/>
 <path fill="none" stroke="rgb(179,179,179)" stroke-linejoin="round" d="M 9142,22351 L 9142,22239"/>
 <path fill="none" stroke="rgb(179,179,179)" stroke-linejoin="round" d="M 9142,22351 L 9142,22239"/>
 <path fill="none" stroke="rgb(179,179,179)" stroke-linejoin="round" d="M 9235,22351 L 9235,22239"/>
 <path fill="none" stroke="rgb(179,179,179)" stroke-linejoin="round" d="M 9235,22351 L 9235,22239"/>
 <path fill="none" stroke="rgb(179,179,179)" stroke-linejoin="round" d="M 9329,22351 L 9329,22239"/>
 <path fill="none" stroke="rgb(179,179,179)" stroke-linejoin="round" d="M 9329,22351 L 9329,22239"/>
 <path fill="none" stroke="rgb(179,179,179)" stroke-linejoin="round" d="M 9422,22351 L 9422,22239"/>
 <path fill="none" stroke="rgb(179,179,179)" stroke-linejoin="round" d="M 9422,22351 L 9422,22239"/>
 <path fill="none" stroke="rgb(179,179,179)" stroke-linejoin="round" d="M 9515,22351 L 9515,22239"/>
 <path fill="none" stroke="rgb(179,179,179)" stroke-linejoin="round" d="M 9515,22351 L 9515,22239"/>
 <path fill="none" stroke="rgb(179,179,179)" stroke-linejoin="round" d="M 9608,22351 L 9608,22239"/>
 <path fill="none" stroke="rgb(179,179,179)" stroke-linejoin="round" d="M 9608,22351 L 9608,22239"/>
 <path fill="none" stroke="rgb(179,179,179)" stroke-linejoin="round" d="M 9701,22351 L 9701,22239"/>
 <path fill="none" stroke="rgb(179,179,179)" stroke-linejoin="round" d="M 9701,22351 L 9701,22239"/>
 <path fill="none" stroke="rgb(179,179,179)" stroke-linejoin="round" d="M 9794,22351 L 9794,22239"/>
 <path fill="none" stroke="rgb(179,179,179)" stroke-linejoin="round" d="M 9794,22351 L 9794,22239"/>
 <path fill="none" stroke="rgb(179,179,179)" stroke-linejoin="round" d="M 9887,22351 L 9887,22239"/>
 <path fill="none" stroke="rgb(179,179,179)" stroke-linejoin="round" d="M 9887,22351 L 9887,22239"/>
 <path fill="none" stroke="rgb(179,179,179)" stroke-linejoin="round" d="M 9980,22351 L 9980,22239"/>
 <path fill="none" stroke="rgb(179,179,179)" stroke-linejoin="round" d="M 9980,22351 L 9980,22239"/>
 <path fill="none" stroke="rgb(179,179,179)" stroke-linejoin="round" d="M 10074,22351 L 10074,22239"/>
 <path fill="none" stroke="rgb(179,179,179)" stroke-linejoin="round" d="M 10074,22351 L 10074,22239"/>
 <path fill="none" stroke="rgb(179,179,179)" stroke-linejoin="round" d="M 10167,22351 L 10167,22239"/>
 <path fill="none" stroke="rgb(179,179,179)" stroke-linejoin="round" d="M 10167,22351 L 10167,22239"/>
 <path fill="none" stroke="rgb(179,179,179)" stroke-linejoin="round" d="M 10260,22351 L 10260,22239"/>
 <path fill="none" stroke="rgb(179,179,179)" stroke-linejoin="round" d="M 10260,22351 L 10260,22239"/>
 <path fill="none" stroke="rgb(179,179,179)" stroke-linejoin="round" d="M 10353,22351 L 10353,22239"/>
 <path fill="none" stroke="rgb(179,179,179)" stroke-linejoin="round" d="M 10353,22351 L 10353,22239"/>
 <path fill="none" stroke="rgb(179,179,179)" stroke-linejoin="round" d="M 10446,22351 L 10446,22239"/>
 <path fill="none" stroke="rgb(179,179,179)" stroke-linejoin="round" d="M 10446,22351 L 10446,22239"/>
 <path fill="none" stroke="rgb(179,179,179)" stroke-linejoin="round" d="M 10539,22351 L 10539,22239"/>
 <path fill="none" stroke="rgb(179,179,179)" stroke-linejoin="round" d="M 10539,22351 L 10539,22239"/>
 <path fill="none" stroke="rgb(179,179,179)" stroke-linejoin="round" d="M 10632,22351 L 10632,22239"/>
 <path fill="none" stroke="rgb(179,179,179)" stroke-linejoin="round" d="M 10632,22351 L 10632,22239"/>
 <path fill="none" stroke="rgb(179,179,179)" stroke-linejoin="round" d="M 10725,22351 L 10725,22239"/>
 <path fill="none" stroke="rgb(179,179,179)" stroke-linejoin="round" d="M 10725,22351 L 10725,22239"/>
 <path fill="none" stroke="rgb(179,179,179)" stroke-linejoin="round" d="M 10819,22351 L 10819,22239"/>
 <path fill="none" stroke="rgb(179,179,179)" stroke-linejoin="round" d="M 10819,22351 L 10819,22239"/>
 <path fill="none" stroke="rgb(179,179,179)" stroke-linejoin="round" d="M 10912,22351 L 10912,22239"/>
 <path fill="none" stroke="rgb(179,179,179)" stroke-linejoin="round" d="M 10912,22351 L 10912,22239"/>
 <path fill="none" stroke="rgb(179,179,179)" stroke-linejoin="round" d="M 11005,22351 L 11005,22239"/>
 <path fill="none" stroke="rgb(179,179,179)" stroke-linejoin="round" d="M 11005,22351 L 11005,22239"/>
 <path fill="none" stroke="rgb(179,179,179)" stroke-linejoin="round" d="M 11098,22351 L 11098,22239"/>
 <path fill="none" stroke="rgb(179,179,179)" stroke-linejoin="round" d="M 11098,22351 L 11098,22239"/>
 <path fill="none" stroke="rgb(179,179,179)" stroke-linejoin="round" d="M 11191,22351 L 11191,22239"/>
 <path fill="none" stroke="rgb(179,179,179)" stroke-linejoin="round" d="M 11191,22351 L 11191,22239"/>
 <path fill="none" stroke="rgb(179,179,179)" stroke-linejoin="round" d="M 11284,22351 L 11284,22239"/>
 <path fill="none" stroke="rgb(179,179,179)" stroke-linejoin="round" d="M 11284,22351 L 11284,22239"/>
 <path fill="none" stroke="rgb(179,179,179)" stroke-linejoin="round" d="M 11377,22351 L 11377,22239"/>
 <path fill="none" stroke="rgb(179,179,179)" stroke-linejoin="round" d="M 11377,22351 L 11377,22239"/>
 <path fill="none" stroke="rgb(179,179,179)" stroke-linejoin="round" d="M 11471,22351 L 11471,22239"/>
 <path fill="none" stroke="rgb(179,179,179)" stroke-linejoin="round" d="M 11471,22351 L 11471,22239"/>
 <path fill="none" stroke="rgb(179,179,179)" stroke-linejoin="round" d="M 11564,22351 L 11564,22239"/>
 <path fill="none" stroke="rgb(179,179,179)" stroke-linejoin="round" d="M 11564,22351 L 11564,22239"/>
 <path fill="none" stroke="rgb(179,179,179)" stroke-linejoin="round" d="M 11657,22351 L 11657,22239"/>
 <path fill="none" stroke="rgb(179,179,179)" stroke-linejoin="round" d="M 11657,22351 L 11657,22239"/>
 <path fill="none" stroke="rgb(179,179,179)" stroke-linejoin="round" d="M 11750,22351 L 11750,22239"/>
 <path fill="none" stroke="rgb(179,179,179)" stroke-linejoin="round" d="M 11750,22351 L 11750,22239"/>
 <path fill="none" stroke="rgb(179,179,179)" stroke-linejoin="round" d="M 11842,22351 L 11842,22239"/>
 <path fill="none" stroke="rgb(179,179,179)" stroke-linejoin="round" d="M 11842,22351 L 11842,22239"/>
 <path fill="none" stroke="rgb(179,179,179)" stroke-linejoin="round" d="M 11935,22351 L 11935,22239"/>
 <path fill="none" stroke="rgb(179,179,179)" stroke-linejoin="round" d="M 11935,22351 L 11935,22239"/>
 <path fill="none" stroke="rgb(179,179,179)" stroke-linejoin="round" d="M 12028,22351 L 12028,22239"/>
 <path fill="none" stroke="rgb(179,179,179)" stroke-linejoin="round" d="M 12028,22351 L 12028,22239"/>
 <path fill="none" stroke="rgb(179,179,179)" stroke-linejoin="round" d="M 12121,22351 L 12121,22239"/>
 <path fill="none" stroke="rgb(179,179,179)" stroke-linejoin="round" d="M 12121,22351 L 12121,22239"/>
 <path fill="none" stroke="rgb(179,179,179)" stroke-linejoin="round" d="M 12215,22351 L 12215,22239"/>
 <path fill="none" stroke="rgb(179,179,179)" stroke-linejoin="round" d="M 12215,22351 L 12215,22239"/>
 <path fill="none" stroke="rgb(179,179,179)" stroke-linejoin="round" d="M 12308,22351 L 12308,22239"/>
 <path fill="none" stroke="rgb(179,179,179)" stroke-linejoin="round" d="M 12308,22351 L 12308,22239"/>
 <path fill="none" stroke="rgb(179,179,179)" stroke-linejoin="round" d="M 12401,22351 L 12401,22239"/>
 <path fill="none" stroke="rgb(179,179,179)" stroke-linejoin="round" d="M 12401,22351 L 12401,22239"/>
 <path fill="none" stroke="rgb(179,179,179)" stroke-linejoin="round" d="M 12494,22351 L 12494,22239"/>
 <path fill="none" stroke="rgb(179,179,179)" stroke-linejoin="round" d="M 12494,22351 L 12494,22239"/>
 <path fill="none" stroke="rgb(179,179,179)" stroke-linejoin="round" d="M 12587,22351 L 12587,22239"/>
 <path fill="none" stroke="rgb(179,179,179)" stroke-linejoin="round" d="M 12587,22351 L 12587,22239"/>
 <path fill="none" stroke="rgb(179,179,179)" stroke-linejoin="round" d="M 12680,22351 L 12680,22239"/>
 <path fill="none" stroke="rgb(179,179,179)" stroke-linejoin="round" d="M 12680,22351 L 12680,22239"/>
 <path fill="none" stroke="rgb(179,179,179)" stroke-linejoin="round" d="M 12773,22351 L 12773,22239"/>
 <path fill="none" stroke="rgb(179,179,179)" stroke-linejoin="round" d="M 12773,22351 L 12773,22239"/>
 <path fill="none" stroke="rgb(179,179,179)" stroke-linejoin="round" d="M 12866,22351 L 12866,22239"/>
 <path fill="none" stroke="rgb(179,179,179)" stroke-linejoin="round" d="M 12866,22351 L 12866,22239"/>
 <path fill="none" stroke="rgb(179,179,179)" stroke-linejoin="round" d="M 12960,22351 L 12960,22239"/>
 <path fill="none" stroke="rgb(179,179,179)" stroke-linejoin="round" d="M 12960,22351 L 12960,22239"/>
 <path fill="none" stroke="rgb(179,179,179)" stroke-linejoin="round" d="M 13053,22351 L 13053,22239"/>
 <path fill="none" stroke="rgb(179,179,179)" stroke-linejoin="round" d="M 13053,22351 L 13053,22239"/>
 <path fill="none" stroke="rgb(179,179,179)" stroke-linejoin="round" d="M 13146,22351 L 13146,22239"/>
 <path fill="none" stroke="rgb(179,179,179)" stroke-linejoin="round" d="M 13146,22351 L 13146,22239"/>
 <path fill="none" stroke="rgb(179,179,179)" stroke-linejoin="round" d="M 13239,22351 L 13239,22239"/>
 <path fill="none" stroke="rgb(179,179,179)" stroke-linejoin="round" d="M 13239,22351 L 13239,22239"/>
 <path fill="none" stroke="rgb(179,179,179)" stroke-linejoin="round" d="M 13332,22351 L 13332,22239"/>
 <path fill="none" stroke="rgb(179,179,179)" stroke-linejoin="round" d="M 13332,22351 L 13332,22239"/>
 <path fill="none" stroke="rgb(179,179,179)" stroke-linejoin="round" d="M 13425,22351 L 13425,22239"/>
 <path fill="none" stroke="rgb(179,179,179)" stroke-linejoin="round" d="M 13425,22351 L 13425,22239"/>
 <path fill="none" stroke="rgb(179,179,179)" stroke-linejoin="round" d="M 13518,22351 L 13518,22239"/>
 <path fill="none" stroke="rgb(179,179,179)" stroke-linejoin="round" d="M 13518,22351 L 13518,22239"/>
 <path fill="none" stroke="rgb(179,179,179)" stroke-linejoin="round" d="M 13611,22351 L 13611,22239"/>
 <path fill="none" stroke="rgb(179,179,179)" stroke-linejoin="round" d="M 13611,22351 L 13611,22239"/>
 <path fill="none" stroke="rgb(179,179,179)" stroke-linejoin="round" d="M 13705,22351 L 13705,22239"/>
 <path fill="none" stroke="rgb(179,179,179)" stroke-linejoin="round" d="M 13705,22351 L 13705,22239"/>
 <path fill="none" stroke="rgb(179,179,179)" stroke-linejoin="round" d="M 13798,22351 L 13798,22239"/>
 <path fill="none" stroke="rgb(179,179,179)" stroke-linejoin="round" d="M 13798,22351 L 13798,22239"/>
 <path fill="none" stroke="rgb(179,179,179)" stroke-linejoin="round" d="M 13891,22351 L 13891,22239"/>
 <path fill="none" stroke="rgb(179,179,179)" stroke-linejoin="round" d="M 13891,22351 L 13891,22239"/>
 <path fill="none" stroke="rgb(179,179,179)" stroke-linejoin="round" d="M 13984,22351 L 13984,22239"/>
 <path fill="none" stroke="rgb(179,179,179)" stroke-linejoin="round" d="M 13984,22351 L 13984,22239"/>
 <path fill="none" stroke="rgb(179,179,179)" stroke-linejoin="round" d="M 14077,22351 L 14077,22239"/>
 <path fill="none" stroke="rgb(179,179,179)" stroke-linejoin="round" d="M 14077,22351 L 14077,22239"/>
 <path fill="none" stroke="rgb(179,179,179)" stroke-linejoin="round" d="M 14170,22351 L 14170,22239"/>
 <path fill="none" stroke="rgb(179,179,179)" stroke-linejoin="round" d="M 14170,22351 L 14170,22239"/>
 <path fill="none" stroke="rgb(179,179,179)" stroke-linejoin="round" d="M 14263,22351 L 14263,22239"/>
 <path fill="none" stroke="rgb(179,179,179)" stroke-linejoin="round" d="M 14263,22351 L 14263,22239"/>
 <path fill="none" stroke="rgb(179,179,179)" stroke-linejoin="round" d="M 14357,22351 L 14357,22239"/>
 <path fill="none" stroke="rgb(179,179,179)" stroke-linejoin="round" d="M 14357,22351 L 14357,22239"/>
 <path fill="none" stroke="rgb(179,179,179)" stroke-linejoin="round" d="M 14450,22351 L 14450,22239"/>
 <path fill="none" stroke="rgb(179,179,179)" stroke-linejoin="round" d="M 14450,22351 L 14450,22239"/>
 <path fill="none" stroke="rgb(179,179,179)" stroke-linejoin="round" d="M 14543,22351 L 14543,22239"/>
 <path fill="none" stroke="rgb(179,179,179)" stroke-linejoin="round" d="M 14543,22351 L 14543,22239"/>
 <path fill="none" stroke="rgb(179,179,179)" stroke-linejoin="round" d="M 14636,22351 L 14636,22239"/>
 <path fill="none" stroke="rgb(179,179,179)" stroke-linejoin="round" d="M 14636,22351 L 14636,22239"/>
 <path fill="none" stroke="rgb(179,179,179)" stroke-linejoin="round" d="M 14729,22351 L 14729,22239"/>
 <path fill="none" stroke="rgb(179,179,179)" stroke-linejoin="round" d="M 14729,22351 L 14729,22239"/>
 <path fill="none" stroke="rgb(179,179,179)" stroke-linejoin="round" d="M 14822,22351 L 14822,22239"/>
 <path fill="none" stroke="rgb(179,179,179)" stroke-linejoin="round" d="M 14822,22351 L 14822,22239"/>
 <path fill="none" stroke="rgb(179,179,179)" stroke-linejoin="round" d="M 14915,22351 L 14915,22239"/>
 <path fill="none" stroke="rgb(179,179,179)" stroke-linejoin="round" d="M 14915,22351 L 14915,22239"/>
 <path fill="none" stroke="rgb(179,179,179)" stroke-linejoin="round" d="M 15008,22351 L 15008,22239"/>
 <path fill="none" stroke="rgb(179,179,179)" stroke-linejoin="round" d="M 15008,22351 L 15008,22239"/>
 <path fill="none" stroke="rgb(179,179,179)" stroke-linejoin="round" d="M 15102,22351 L 15102,22239"/>
 <path fill="none" stroke="rgb(179,179,179)" stroke-linejoin="round" d="M 15102,22351 L 15102,22239"/>
 <path fill="none" stroke="rgb(179,179,179)" stroke-linejoin="round" d="M 15195,22351 L 15195,22239"/>
 <path fill="none" stroke="rgb(179,179,179)" stroke-linejoin="round" d="M 15195,22351 L 15195,22239"/>
 <path fill="none" stroke="rgb(179,179,179)" stroke-linejoin="round" d="M 15288,22351 L 15288,22239"/>
 <path fill="none" stroke="rgb(179,179,179)" stroke-linejoin="round" d="M 15288,22351 L 15288,22239"/>
 <path fill="none" stroke="rgb(179,179,179)" stroke-linejoin="round" d="M 15381,22351 L 15381,22239"/>
 <path fill="none" stroke="rgb(179,179,179)" stroke-linejoin="round" d="M 15381,22351 L 15381,22239"/>
 <path fill="none" stroke="rgb(179,179,179)" stroke-linejoin="round" d="M 15474,22351 L 15474,22239"/>
 <path fill="none" stroke="rgb(179,179,179)" stroke-linejoin="round" d="M 15474,22351 L 15474,22239"/>
 <path fill="none" stroke="rgb(179,179,179)" stroke-linejoin="round" d="M 15567,22351 L 15567,22239"/>
 <path fill="none" stroke="rgb(179,179,179)" stroke-linejoin="round" d="M 15567,22351 L 15567,22239"/>
 <path fill="none" stroke="rgb(179,179,179)" stroke-linejoin="round" d="M 15660,22351 L 15660,22239"/>
 <path fill="none" stroke="rgb(179,179,179)" stroke-linejoin="round" d="M 15660,22351 L 15660,22239"/>
 <path fill="none" stroke="rgb(179,179,179)" stroke-linejoin="round" d="M 15753,22351 L 15753,22239"/>
 <path fill="none" stroke="rgb(179,179,179)" stroke-linejoin="round" d="M 15753,22351 L 15753,22239"/>
 <path fill="none" stroke="rgb(179,179,179)" stroke-linejoin="round" d="M 15847,22351 L 15847,22239"/>
 <path fill="none" stroke="rgb(179,179,179)" stroke-linejoin="round" d="M 15847,22351 L 15847,22239"/>
 <path fill="none" stroke="rgb(179,179,179)" stroke-linejoin="round" d="M 15940,22351 L 15940,22239"/>
 <path fill="none" stroke="rgb(179,179,179)" stroke-linejoin="round" d="M 15940,22351 L 15940,22239"/>
 <path fill="none" stroke="rgb(179,179,179)" stroke-linejoin="round" d="M 16033,22351 L 16033,22239"/>
 <path fill="none" stroke="rgb(179,179,179)" stroke-linejoin="round" d="M 16033,22351 L 16033,22239"/>
 <path fill="none" stroke="rgb(179,179,179)" stroke-linejoin="round" d="M 16126,22351 L 16126,22239"/>
 <path fill="none" stroke="rgb(179,179,179)" stroke-linejoin="round" d="M 16126,22351 L 16126,22239"/>
 <path fill="none" stroke="rgb(179,179,179)" stroke-linejoin="round" d="M 16219,22351 L 16219,22239"/>
 <path fill="none" stroke="rgb(179,179,179)" stroke-linejoin="round" d="M 16219,22351 L 16219,22239"/>
 <path fill="none" stroke="rgb(179,179,179)" stroke-linejoin="round" d="M 16312,22351 L 16312,22239"/>
 <path fill="none" stroke="rgb(179,179,179)" stroke-linejoin="round" d="M 16312,22351 L 16312,22239"/>
 <path fill="none" stroke="rgb(179,179,179)" stroke-linejoin="round" d="M 16405,22351 L 16405,22239"/>
 <path fill="none" stroke="rgb(179,179,179)" stroke-linejoin="round" d="M 16405,22351 L 16405,22239"/>
 <path fill="none" stroke="rgb(179,179,179)" stroke-linejoin="round" d="M 16499,22351 L 16499,22239"/>
 <path fill="none" stroke="rgb(179,179,179)" stroke-linejoin="round" d="M 16499,22351 L 16499,22239"/>
 <path fill="none" stroke="rgb(179,179,179)" stroke-linejoin="round" d="M 16592,22351 L 16592,22239"/>
 <path fill="none" stroke="rgb(179,179,179)" stroke-linejoin="round" d="M 16592,22351 L 16592,22239"/>
 <path fill="none" stroke="rgb(179,179,179)" stroke-linejoin="round" d="M 16685,22351 L 16685,22239"/>
 <path fill="none" stroke="rgb(179,179,179)" stroke-linejoin="round" d="M 16685,22351 L 16685,22239"/>
 <path fill="none" stroke="rgb(179,179,179)" stroke-linejoin="round" d="M 16778,22351 L 16778,22239"/>
 <path fill="none" stroke="rgb(179,179,179)" stroke-linejoin="round" d="M 16778,22351 L 16778,22239"/>
 <path fill="none" stroke="rgb(179,179,179)" stroke-linejoin="round" d="M 16871,22351 L 16871,22239"/>
 <path fill="none" stroke="rgb(179,179,179)" stroke-linejoin="round" d="M 16871,22351 L 16871,22239"/>
 <path fill="none" stroke="rgb(179,179,179)" stroke-linejoin="round" d="M 16964,22351 L 16964,22239"/>
 <path fill="none" stroke="rgb(179,179,179)" stroke-linejoin="round" d="M 16964,22351 L 16964,22239"/>
 <path fill="none" stroke="rgb(179,179,179)" stroke-linejoin="round" d="M 17057,22351 L 17057,22239"/>
 <path fill="none" stroke="rgb(179,179,179)" stroke-linejoin="round" d="M 17057,22351 L 17057,22239"/>
 <path fill="none" stroke="rgb(179,179,179)" stroke-linejoin="round" d="M 17150,22351 L 17150,22239"/>
 <path fill="none" stroke="rgb(179,179,179)" stroke-linejoin="round" d="M 17150,22351 L 17150,22239"/>
 <path fill="none" stroke="rgb(179,179,179)" stroke-linejoin="round" d="M 17244,22351 L 17244,22239"/>
 <path fill="none" stroke="rgb(179,179,179)" stroke-linejoin="round" d="M 17244,22351 L 17244,22239"/>
 <path fill="none" stroke="rgb(179,179,179)" stroke-linejoin="round" d="M 17337,22351 L 17337,22239"/>
 <path fill="none" stroke="rgb(179,179,179)" stroke-linejoin="round" d="M 17337,22351 L 17337,22239"/>
 <path fill="none" stroke="rgb(179,179,179)" stroke-linejoin="round" d="M 17430,22351 L 17430,22239"/>
 <path fill="none" stroke="rgb(179,179,179)" stroke-linejoin="round" d="M 17430,22351 L 17430,22239"/>
 <path fill="none" stroke="rgb(179,179,179)" stroke-linejoin="round" d="M 17523,22351 L 17523,22239"/>
 <path fill="none" stroke="rgb(179,179,179)" stroke-linejoin="round" d="M 17523,22351 L 17523,22239"/>
 <path fill="none" stroke="rgb(179,179,179)" stroke-linejoin="round" d="M 17616,22351 L 17616,22239"/>
 <path fill="none" stroke="rgb(179,179,179)" stroke-linejoin="round" d="M 17616,22351 L 17616,22239"/>
 <path fill="none" stroke="rgb(179,179,179)" stroke-linejoin="round" d="M 17709,22351 L 17709,22239"/>
 <path fill="none" stroke="rgb(179,179,179)" stroke-linejoin="round" d="M 17709,22351 L 17709,22239"/>
 <path fill="none" stroke="rgb(179,179,179)" stroke-linejoin="round" d="M 17802,22351 L 17802,22239"/>
 <path fill="none" stroke="rgb(179,179,179)" stroke-linejoin="round" d="M 17802,22351 L 17802,22239"/>
 <path fill="none" stroke="rgb(179,179,179)" stroke-linejoin="round" d="M 17895,22351 L 17895,22239"/>
 <path fill="none" stroke="rgb(179,179,179)" stroke-linejoin="round" d="M 17895,22351 L 17895,22239"/>
 <path fill="none" stroke="rgb(179,179,179)" stroke-linejoin="round" d="M 17989,22351 L 17989,22239"/>
 <path fill="none" stroke="rgb(179,179,179)" stroke-linejoin="round" d="M 17989,22351 L 17989,22239"/>
 <path fill="none" stroke="rgb(179,179,179)" stroke-linejoin="round" d="M 18082,22351 L 18082,22239"/>
 <path fill="none" stroke="rgb(179,179,179)" stroke-linejoin="round" d="M 18082,22351 L 18082,22239"/>
 <path fill="none" stroke="rgb(179,179,179)" stroke-linejoin="round" d="M 18175,22351 L 18175,22239"/>
 <path fill="none" stroke="rgb(179,179,179)" stroke-linejoin="round" d="M 18175,22351 L 18175,22239"/>
 <path fill="none" stroke="rgb(179,179,179)" stroke-linejoin="round" d="M 18268,22351 L 18268,22239"/>
 <path fill="none" stroke="rgb(179,179,179)" stroke-linejoin="round" d="M 18268,22351 L 18268,22239"/>
 <path fill="none" stroke="rgb(179,179,179)" stroke-linejoin="round" d="M 18361,22351 L 18361,22239"/>
 <path fill="none" stroke="rgb(179,179,179)" stroke-linejoin="round" d="M 18361,22351 L 18361,22239"/>
 <path fill="none" stroke="rgb(179,179,179)" stroke-linejoin="round" d="M 18454,22351 L 18454,22239"/>
 <path fill="none" stroke="rgb(179,179,179)" stroke-linejoin="round" d="M 18454,22351 L 18454,22239"/>
 <path fill="none" stroke="rgb(179,179,179)" stroke-linejoin="round" d="M 18547,22351 L 18547,22239"/>
 <path fill="none" stroke="rgb(179,179,179)" stroke-linejoin="round" d="M 18547,22351 L 18547,22239"/>
 <path fill="none" stroke="rgb(179,179,179)" stroke-linejoin="round" d="M 18641,22351 L 18641,22239"/>
 <path fill="none" stroke="rgb(179,179,179)" stroke-linejoin="round" d="M 18641,22351 L 18641,22239"/>
 <path fill="none" stroke="rgb(179,179,179)" stroke-linejoin="round" d="M 1413,22239 L 18641,22239"/>
 <path fill="none" stroke="rgb(179,179,179)" stroke-linejoin="round" d="M 1263,22239 L 1413,22239"/>
 <path fill="none" stroke="rgb(179,179,179)" stroke-linejoin="round" d="M 1263,22239 L 1413,22239"/>
 <path fill="none" stroke="rgb(179,179,179)" stroke-linejoin="round" d="M 1263,17086 L 1413,17086"/>
 <path fill="none" stroke="rgb(179,179,179)" stroke-linejoin="round" d="M 1263,17086 L 1413,17086"/>
 <path fill="none" stroke="rgb(179,179,179)" stroke-linejoin="round" d="M 1263,11933 L 1413,11933"/>
 <path fill="none" stroke="rgb(179,179,179)" stroke-linejoin="round" d="M 1263,11933 L 1413,11933"/>
 <path fill="none" stroke="rgb(179,179,179)" stroke-linejoin="round" d="M 1263,6781 L 1413,6781"/>
 <path fill="none" stroke="rgb(179,179,179)" stroke-linejoin="round" d="M 1263,6781 L 1413,6781"/>
 <path fill="none" stroke="rgb(179,179,179)" stroke-linejoin="round" d="M 1263,1629 L 1413,1629"/>
 <path fill="none" stroke="rgb(179,179,179)" stroke-linejoin="round" d="M 1263,1629 L 1413,1629"/>
 <path fill="none" stroke="rgb(179,179,179)" stroke-linejoin="round" d="M 1413,22239 L 1413,1629"/>
 <path fill="none" stroke="rgb(141,40,30)" stroke-width="80" stroke-linejoin="round" stroke-dasharray="80,40" d="M 1459,22175 L 1552,22153 1645,22148 1738,22106 1832,22057 1925,21987 2018,21856 2111,21671 2204,21495 2297,21230 2390,20903 2483,20596 2577,20234 2670,19710 2763,19157 2856,18562 2949,18033 3042,17478 3135,16744 3229,16033 3322,15150 3415,14221 3508,13390 3601,12659 3694,11858 3787,11048 3880,10184 3974,9229 4067,8360 4160,7569 4253,6789 4346,6389 4439,5756 4532,5067 4625,4241 4719,3407 4812,2784 4905,2197 4978,1629"/>
 <path fill="none" stroke="rgb(255,64,0)" stroke-width="80" stroke-linejoin="round" stroke-dasharray="80,40" d="M 1459,22231 L 1552,22231 1645,22231 1738,22229 1832,22223 1925,22221 2018,22209 2111,22201 2204,22190 2297,22165 2390,22147 2483,22132 2577,22118 2670,22098 2763,22077 2856,22055 2949,22039 3042,22030 3135,21977 3229,21925 3322,21870 3415,21823 3508,21764 3601,21728 3694,21682 3787,21597 3880,21500 3974,21415 4067,21346 4160,21296 4253,21230 4346,21175 4439,21235 4532,21629 4625,21536 4719,21389 4812,21255 4905,21556 4998,21461 5091,21397 5184,21388 5277,21262 5371,21138 5464,20972 5557,20848 5650,20701 5743,20511 5836,20296 5929,20044 6022,19922 6116,19842 6209,19726 6302,19549 6395,19362 6488,19005 6581,18783 6674,18475 6767,18177 6861,18037 6954,17846 7047,17720 7140,17462 7233,16918 7326,16400 7419,16021 7512,15891 7606,15541 7699,15102 7792,14669 7885,14279 7978,13778 8071,13371 8164,12991 8258,12653 8351,12143 8444,11588 8537,10894 8630,10218 8723,9204 8816,8706 8909,8393 9003,7660 9096,7063 9189,6427 9282,5562 9375,4787 9468,4225 9561,8074 9654,7475 9748,6774 9841,6137 9934,5656 10027,5341 10120,5011 10213,4456 10306,3420 10400,3426 10493,3039 10567,1629"/>
 <path fill="none" stroke="rgb(0,223,255)" stroke-width="80" stroke-linejoin="round" stroke-dasharray="158,102" d="M 1459,22236 L 1552,22235 1645,22235 1738,22233 1832,22231 1925,22229 2018,22225 2111,22221 2204,22218 2297,22214 2390,22209 2483,22205 2577,22194 2670,22182 2763,22169 2856,22153 2949,22135 3042,22114 3135,22083 3229,22058 3322,22007 3415,21968 3508,21931 3601,21886 3694,21823 3787,21748 3880,21672 3974,21578 4067,21460 4160,21361 4253,21225 4346,21058 4439,20880 4532,20663 4625,20445 4719,20180 4812,19878 4905,19470 4998,19183 5091,18818 5184,18491 5277,18190 5371,17829 5464,17461 5557,17053 5650,16659 5743,16290 5836,16014 5929,15614 6022,15174 6116,14625 6209,13993 6302,13354 6395,12772 6488,12136 6581,11525 6674,10974 6767,10592 6861,9990 6954,9561 7047,9061 7140,8677 7233,8370 7326,7961 7419,7668 7512,7286 7606,6863 7699,6635 7792,6680 7885,6578 7978,6465 8071,6382 8164,6164 8258,5927 8351,6181 8444,6386 8537,6427 8630,6422 8723,6382 8816,6049 8909,5718 9003,5888 9096,5931 9189,5929 9282,5892 9375,5895 9468,5648 9561,5302 9654,5533 9748,5688 9841,5671 9934,5631 10027,5396 10120,5165 10213,4911 10306,5032 10400,5201 10493,5343 10586,5531 10679,5705 10772,5529 10865,5332 10958,5667 11051,6046 11145,5998 11238,6164 11331,6342 11424,6275 11517,6116 11610,6305 11703,6582 11796,6542 11889,6708 11982,6885 12075,6694 12168,6492 12261,6730 12354,6889 12447,7062 12541,7154 12634,7292 12727,7091 12820,6848 12913,7040 13006,7334 13099,7488 13192,7591 13286,7687 13379,7509 13472,7328 13565,7545 13658,7825 13751,8006 13844,8205 13937,8392 14031,8211 14124,8039 14217,8295 14310,8493 14403,8770 14496,9013 14589,9208 14682,9090 14776,8957 14869,9161 14962,9337 15055,9490 15148,9641 15241,9749 15334,9616 15428,9492 15521,9614 15614,9767 15707,9848 15800,9964 15893,10070 15986,9979 16079,9862 16173,9995 16266,10142 16359,10241 16452,10313 16545,10410 16638,10299 16731,10146 16824,10293 16918,10419 17011,10546 17104,10632 17197,10713 17290,10553 17383,10380 17476,10502 17570,10548 17663,10612 17756,10668 17849,10691 17942,10533 18035,10339 18128,10470 18221,10561 18315,10611 18408,10637 18501,10642 18594,10459"/>
 <path fill="none" stroke="rgb(21,132,102)" stroke-width="80" stroke-linejoin="round" stroke-dasharray="80,203,80,203,203,203" d="M 1459,22144 L 1552,22134 1645,22124 1738,22108 1832,22092 1925,22071 2018,22039 2111,22004 2204,21970 2297,21935 2390,21882 2483,21843 2577,21787 2670,21720 2763,21650 2856,21577 2949,21515 3042,21455 3135,21378 3229,21304 3322,21228 3415,21146 3508,21075 3601,21005 3694,20939 3787,20879 3880,20815 3974,20744 4067,20667 4160,20608 4253,20513 4346,20465 4439,20415 4532,20367 4625,20290 4719,20219 4812,20161 4905,20103 4998,20043 5091,19999 5184,19946 5277,19876 5371,19836 5464,19768 5557,19715 5650,19666 5743,19619 5836,19582 5929,19565 6022,19507 6116,19461 6209,19406 6302,19355 6395,19306 6488,19256 6581,19197 6674,19132 6767,19095 6861,19043 6954,19009 7047,18954 7140,18923 7233,18854 7326,18797 7419,18751 7512,18706 7606,18663 7699,18611 7792,18559 7885,18492 7978,18501 8071,18440 8164,18391 8258,18362 8351,18318 8444,18273 8537,18209 8630,18157 8723,18074 8816,18036 8909,17987 9003,17971 9096,17926 9189,17858 9282,17782 9375,17703 9468,17631 9561,17701 9654,17652 9748,17585 9841,17523 9934,17463 10027,17403 10120,17324 10213,17277 10306,17228 10400,17203 10493,17132 10586,17028 10679,16978 10772,16904 10865,16847 10958,16774 11051,16707 11145,16601 11238,16495 11331,16405 11424,16312 11517,16236 11610,16167 11703,16040 11796,16149 11889,16032 11982,16040 12075,15960 12168,15909 12261,15830 12354,15766 12447,15649 12541,15533 12634,15420 12727,15318 12820,15254 12913,15156 13006,15069 13099,14944 13192,14876 13286,14768 13379,14606 13472,14549 13565,14479 13658,14350 13751,14215 13844,14154 13937,14113 14031,14022 14124,13954 14217,13858 14310,13751 14403,13682 14496,13569 14589,13488 14682,13372 14776,13405 14869,13365 14962,13308 15055,13190 15148,13081 15241,13011 15334,12954 15428,12877 15521,12952 15614,12914 15707,12762 15800,12750 15893,12652 15986,12682 16079,12690 16173,12662 16266,12597 16359,12526 16452,12401 16545,12335 16638,12353 16731,12324 16824,12320 16918,12244 17011,12149 17104,12050 17197,11990 17290,11972 17383,11898 17476,11893 17570,11818 17663,11755 17756,11632 17849,11555 17942,11544 18035,11510 18128,11457 18221,11413 18315,11311 18408,11191 18501,11125 18594,11082"/>
 <path fill="none" stroke="rgb(191,0,65)" stroke-width="80" stroke-linejoin="round" stroke-dasharray="51,127,51,127,254,127,254,127,254,127" d="M 1459,22173 L 1552,22147 1645,22125 1738,22102 1832,22072 1925,22042 2018,21994 2111,21950 2204,21890 2297,21839 2390,21775 2483,21703 2577,21624 2670,21536 2763,21422 2856,21315 2949,21210 3042,21123 3135,21023 3229,20930 3322,20806 3415,20660 3508,20538 3601,20437 3694,20361 3787,20248 3880,20139 3974,20035 4067,19934 4160,19831 4253,19767 4346,19714 4439,19680 4532,19644 4625,19567 4719,19508 4812,19454 4905,19377 4998,19360 5091,19338 5184,19323 5277,19281 5371,19291 5464,19274 5557,19238 5650,19229 5743,19244 5836,19245 5929,19296 6022,19302 6116,19323 6209,19310 6302,19320 6395,19317 6488,19362 6581,19381 6674,19439 6767,19470 6861,19453 6954,19452 7047,19494 7140,19535 7233,19647 7326,19671 7419,19676 7512,19697 7606,19780 7699,19790 7792,19783 7885,19836 7978,19846 8071,19873 8164,19858 8258,19851 8351,19917 8444,19934 8537,19990 8630,19985 8723,20004 8816,20017 8909,20008 9003,20017 9096,20041 9189,20028 9282,20032 9375,20015 9468,19975 9561,19937 9654,19915 9748,19907 9841,19894 9934,19858 10027,19832 10120,19782 10213,19758 10306,19752 10400,19701 10493,19691 10586,19685 10679,19675 10772,19681 10865,19681 10958,19676 11051,19677 11145,19689 11238,19690 11331,19694 11424,19698 11517,19669 11610,19643 11703,19629 11796,19570 11889,19543 11982,19514 12075,19516 12168,19497 12261,19471 12354,19461 12447,19418 12541,19382 12634,19335 12727,19311 12820,19303 12913,19243 13006,19237 13099,19169 13192,19105 13286,19017 13379,18940 13472,18875 13565,18922 13658,18817 13751,18732 13844,18653 13937,18512 14031,18579 14124,18460 14217,18320 14310,18161 14403,17989 14496,17845 14589,17710 14682,17587 14776,17482 14869,17329 14962,17192 15055,17079 15148,16941 15241,16787 15334,16646 15428,16561 15521,16425 15614,16288 15707,16115 15800,15970 15893,15812 15986,15670 16079,15640 16173,15563 16266,15437 16359,15301 16452,15097 16545,14965 16638,14840 16731,14749 16824,14625 16918,14503 17011,14375 17104,14212 17197,14045 17290,13923 17383,13899 17476,13835 17570,13677 17663,13548 17756,13401 17849,13404 17942,13363 18035,13331 18128,13181 18221,13010 18315,12762 18408,12452 18501,12267 18594,12084"/>
 <path fill="none" stroke="rgb(255,211,32)" stroke-width="80" stroke-linejoin="round" d="M 1459,22103 L 1552,22057 1645,21995 1738,21955 1832,21860 1925,21795 2018,21574 2111,21441 2204,21287 2297,21167 2390,21056 2483,20910 2577,20662 2670,20404 2763,20065 2856,19728 2949,19554 3042,19397 3135,19128 3229,18959 3322,18633 3415,18422 3508,18067 3601,17981 3694,17790 3787,17661 3880,17446 3974,17277 4067,17170 4160,17147 4253,17053 4346,17045 4439,17130 4532,17205 4625,17146 4719,17232 4812,17236 4905,17175 4998,17285 5091,17351 5184,17489 5277,17595 5371,17727 5464,17734 5557,17774 5650,18008 5743,18073 5836,18154 5929,18262 6022,18269 6116,18342 6209,18441 6302,18620 6395,18742 6488,18864 6581,18976 6674,18975 6767,18994 6861,18996 6954,19175 7047,19304 7140,19417 7233,19528 7326,19611 7419,19605 7512,19626 7606,19690 7699,19718 7792,19749 7885,19812 7978,19856 8071,19802 8164,19773 8258,19830 8351,19868 8444,19930 8537,19966 8630,19951 8723,19963 8816,19939 8909,19988 9003,19972 9096,19964 9189,19968 9282,20005 9375,19972 9468,19919 9561,19953 9654,19958 9748,19945 9841,19966 9934,19935 10027,19887 10120,19863 10213,19892 10306,19908 10400,19900 10493,19827 10586,19738 10679,19703 10772,19676 10865,19688 10958,19586 11051,19500 11145,19471 11238,19331 11331,19095 11424,18822 11517,18667 11610,18549 11703,18485 11796,18386 11889,18276 11982,18161 12075,18098 12168,18059 12261,17981 12354,17953 12447,17967 12541,17965 12634,17873 12727,17836 12820,17896 12913,17865 13006,17799 13099,17795 13192,17755 13286,17654 13379,17595 13472,17520 13565,17383 13658,17367 13751,17324 13844,17148 13937,17183 14031,18846 14124,18663 14217,18392 14310,18110 14403,17898 14496,17790 14589,17688 14682,17609 14776,17510 14869,17339 14962,17204 15055,17407 15148,17502 15241,17348 15334,17256 15428,17310 15521,17263 15614,17160 15707,17007 15800,16880 15893,16722 15986,16642 16079,17253 16173,17488 16266,17640 16359,17665 16452,17331 16545,17146 16638,17055 16731,17052 16824,16975 16918,16870 17011,16887 17104,16598 17197,16338 17290,16083 17383,16092 17476,15910 17570,15481 17663,15153 17756,14739 17849,14269 17942,13898 18035,14132 18128,13292 18221,12405 18315,11483 18408,10432 18501,9014 18594,8345"/>
 <path fill="none" stroke="rgb(128,0,128)" stroke-width="80" stroke-linejoin="round" stroke-dasharray="158,158" d="M 1459,22238 L 1552,22238 1645,22238 1738,22238 1832,22238 1925,22237 2018,22237 2111,22237 2204,22236 2297,22236 2390,22235 2483,22235 2577,22234 2670,22234 2763,22233 2856,22232 2949,22232 3042,22230 3135,22229 3229,22225 3322,22221 3415,22221 3508,22218 3601,22214 3694,22207 3787,22203 3880,22199 3974,22195 4067,22189 4160,22185 4253,22180 4346,22172 4439,22166 4532,22160 4625,22155 4719,22150 4812,22143 4905,22132 4998,22129 5091,22123 5184,22117 5277,22109 5371,22102 5464,22093 5557,22086 5650,22079 5743,22070 5836,22063 5929,22054 6022,22044 6116,22033 6209,22019 6302,21999 6395,21988 6488,21971 6581,21957 6674,21941 6767,21929 6861,21910 6954,21896 7047,21884 7140,21872 7233,21855 7326,21844 7419,21839 7512,21821 7606,21806 7699,21784 7792,21767 7885,21745 7978,21721 8071,21692 8164,21665 8258,21641 8351,21625 8444,21598 8537,21568 8630,21597 8723,21569 8816,21541 8909,21514 9003,21484 9096,21442 9189,21403 9282,21370 9375,21335 9468,21294 9561,21272 9654,21240 9748,21168 9841,21179 9934,21150 10027,21123 10120,21095 10213,21095 10306,21079 10400,21041 10493,21019 10586,20982 10679,20973 10772,20936 10865,20909 10958,20872 11051,20846 11145,20824 11238,20764 11331,20722 11424,20669 11517,20632 11610,20594 11703,20544 11796,20540 11889,20480 11982,20410 12075,20347 12168,20300 12261,20260 12354,20224 12447,20172 12541,20122 12634,20056 12727,19986 12820,19912 12913,19850 13006,19765 13099,19681 13192,19557 13286,19449 13379,19321 13472,19231 13565,19167 13658,19055 13751,18950 13844,18831 13937,18744 14031,18615 14124,18538 14217,18434 14310,18301 14403,18178 14496,18018 14589,17999 14682,17912 14776,17860 14869,17861 14962,17791 15055,17703 15148,17615 15241,17543 15334,17497 15428,17460 15521,17430 15614,17357 15707,17298 15800,17250 15893,17178 15986,17184 16079,17211 16173,17186 16266,17113 16359,17071 16452,17031 16545,16954 16638,16931 16731,16979 16824,16960 16918,16817 17011,16697 17104,16620 17197,16523 17290,16399 17383,16369 17476,16255 17570,16148 17663,16032 17756,15918 17849,15799 17942,15648 18035,15639 18128,15537 18221,15376 18315,15193 18408,15082 18501,14971 18594,14971"/>
 <path fill="none" stroke="rgb(0,255,0)" stroke-width="80" stroke-linejoin="round" d="M 1459,20900 L 1552,20641 1645,19640 1738,19640 1832,19060 1925,18684 2018,17453 2111,16017 2204,14516 2297,13612 2390,12065 2483,10780 2577,9602 2670,8559 2763,8942 2856,7615 2949,6838 3042,5879 3135,5153 3229,5196 3322,5238 3415,5368 3508,6255 3601,5605 3694,6955 3787,7084 3880,7254 3974,7352 4067,7416 4160,7985 4253,8416 4346,9320 4439,9067 4532,10693 4625,10867 4719,11105 4812,11599 4905,12061 4998,12814 5091,13683 5184,14071 5277,14681 5371,14989 5464,15100 5557,15510 5650,15929 5743,16326 5836,16176 5929,16941 6022,17415 6116,17648 6209,17901 6302,18670 6395,18888 6488,19196 6581,19362 6674,19519 6767,19832 6861,20009 6954,20215 7047,20199 7140,20520 7233,20463 7326,20410 7419,20699 7512,20802 7606,20916 7699,21016 7792,21088 7885,21172 7978,21162 8071,21262 8164,21369 8258,21485 8351,21469 8444,21573 8537,21551 8630,21513 8723,21612 8816,21712 8909,21701 9003,21698 9096,21796 9189,21772 9282,21744 9375,21840 9468,21829 9561,21823 9654,21817 9748,21792 9841,21873 9934,21852 10027,21815 10120,21787 10213,21891 10306,21881 10400,21844 10493,21829 10586,21787 10679,21778 10772,21838 10865,21817 10958,21791 11051,21741 11145,21679 11238,21615 11331,21651 11424,21578 11517,21536 11610,21582 11703,21422 11796,21284 11889,21124 11982,21008 12075,21044 12168,20988 12261,20925 12354,20891 12447,20786 12541,20662 12634,20632 12727,20673 12820,20598 12913,20752 13006,20595 13099,20546 13192,20437 13286,20306 13379,20664 13472,20616 13565,20488 13658,20558 13751,20423 13844,20242 13937,20065 14031,20173 14124,20334 14217,20296 14310,20187 14403,19926 14496,19677 14589,19701 14682,19775 14776,19696 14869,19661 14962,19449 15055,19234 15148,19044 15241,19184 15334,19480 15428,19475 15521,19256 15614,19288 15707,19009 15800,18928 15893,18984 15986,18865 16079,18713 16173,18717 16266,18352 16359,18514 16452,18152 16545,18039 16638,18068 16731,17882 16824,17642 16918,17664 17011,17234 17104,16830 17197,16860 17290,17227 17383,17391 17476,17378 17570,17175 17663,16744 17756,16262 17849,16471 17942,15942 18035,16430 18128,16143 18221,16062 18315,15581 18408,14952 18501,14875 18594,14787"/>
 <path fill="none" stroke="rgb(131,202,255)" stroke-width="80" stroke-linejoin="round" d="M 1459,19689 L 1552,19213 1645,18727 1738,18306 1832,17796 1925,17345 2018,16581 2111,15668 2204,14964 2297,14289 2390,13575 2483,13029 2577,12434 2670,11670 2763,10919 2856,10297 2949,9647 3042,9366 3135,9007 3229,8506 3322,8084 3415,7685 3508,7194 3601,6687 3694,6356 3787,6206 3880,6002 3974,5727 4067,5489 4160,5149 4253,4811 4346,4579 4439,4463 4532,4271 4625,4069 4719,4008 4812,3870 4905,3787 4998,3791 5091,3881 5184,3883 5277,4028 5371,4082 5464,4198 5557,4155 5650,4204 5743,4308 5836,4401 5929,4930 6022,5034 6116,5075 6209,5164 6302,5198 6395,5456 6488,6639 6581,6963 6674,7247 6767,7778 6861,8037 6954,8180 7047,8388 7140,8867 7233,9211 7326,9955 7419,10276 7512,10589 7606,10896 7699,11138 7792,11544 7885,11849 7978,12127 8071,12395 8164,12592 8258,12813 8351,13215 8444,13552 8537,14059 8630,14368 8723,14792 8816,15067 8909,15188 9003,15439 9096,15540 9189,15688 9282,15936 9375,16123 9468,16228 9561,16319 9654,16636 9748,16834 9841,17017 9934,17296 10027,17554 10120,17760 10213,17822 10306,18051 10400,18161 10493,18301 10586,18567 10679,18623 10772,18664 10865,18721 10958,18902 11051,19059 11145,19119 11238,19232 11331,19369 11424,19395 11517,19427 11610,19586 11703,19638 11796,19672 11889,19702 11982,19746 12075,19743 12168,19731 12261,19811 12354,19921 12447,19944 12541,19950 12634,19971 12727,19992 12820,19996 12913,20037 13006,20109 13099,20113 13192,20115 13286,20130 13379,20118 13472,20124 13565,20151 13658,20138 13751,20124 13844,20142 13937,20118 14031,20097 14124,20094 14217,20089 14310,20088 14403,20154 14496,20121 14589,20115 14682,20115 14776,20112 14869,20111 14962,20083 15055,20075 15148,20036 15241,20031 15334,19978 15428,19960 15521,19927 15614,19888 15707,19838 15800,19810 15893,19783 15986,19727 16079,19704 16173,19667 16266,19620 16359,19509 16452,19396 16545,19255 16638,19096 16731,18967 16824,18878 16918,18701 17011,18500 17104,18312 17197,18292 17290,18113 17383,17794 17476,17678 17570,17497 17663,17310 17756,17108 17849,16922 17942,16771 18035,16615 18128,16479 18221,16318 18315,16152 18408,15972 18501,15846 18594,15675"/>
 <path fill="none" stroke="rgb(0,169,51)" stroke-width="80" stroke-linejoin="round" d="M 1459,21670 L 1552,21497 1645,21262 1738,21084 1832,20719 1925,20370 2018,19952 2111,19523 2204,19038 2297,18168 2390,17153 2483,16236 2577,15889 2670,14517 2763,13801 2856,13110 2949,12829 3042,12084 3135,11990 3229,11794 3322,11687 3415,11559 3508,11841 3601,12113 3694,12382 3787,12684 3880,12905 3974,13418 4067,14032 4160,14383 4253,14677 4346,14995 4439,15134 4532,15550 4625,16426 4719,17135 4812,17646 4905,17895 4998,18012 5091,18335 5184,18706 5277,19051 5371,19185 5464,19368 5557,19491 5650,19535 5743,19712 5836,19901 5929,19995 6022,20142 6116,20199 6209,20212 6302,20288 6395,20428 6488,20594 6581,20585 6674,20724 6767,20762 6861,20794 6954,20864 7047,20877 7140,21015 7233,21063 7326,21083 7419,21039 7512,21037 7606,21065 7699,21082 7792,21280 7885,21300 7978,21328 8071,21312 8164,21323 8258,21369 8351,21401 8444,21417 8537,21467 8630,21506 8723,21670 8816,21701 8909,21702 9003,21711 9096,21748 9189,21760 9282,21748 9375,21738 9468,21738 9561,21716 9654,21744 9748,21756 9841,21768 9934,21776 10027,21793 10120,21812 10213,21791 10306,21759 10400,21761 10493,21742 10586,21733 10679,21712 10772,21719 10865,21725 10958,21719 11051,21696 11145,21713 11238,21694 11331,21656 11424,21608 11517,21552 11610,21571 11703,21464 11796,21412 11889,21338 11982,21262 12075,21141 12168,21081 12261,21061 12354,20996 12447,20921 12541,20871 12634,20851 12727,20823 12820,20820 12913,20821 13006,20786 13099,20734 13192,20645 13286,20681 13379,20699 13472,20667 13565,20635 13658,20672 13751,20585 13844,20567 13937,20520 14031,20464 14124,20409 14217,20425 14310,20401 14403,20397 14496,20346 14589,20427 14682,20405 14776,20403 14869,20607 14962,20656 15055,20658 15148,20606 15241,20653 15334,20649 15428,20667 15521,20638 15614,20583 15707,20496 15800,20348 15893,20151 15986,19995 16079,19904 16173,19687 16266,19496 16359,19253 16452,19067 16545,18893 16638,18848 16731,18686 16824,18709 16918,18628 17011,18450 17104,18505 17197,18364 17290,18390 17383,18258 17476,18413 17570,18331 17663,18273 17756,18255 17849,18206 17942,18243 18035,18216 18128,17999 18221,17579 18315,17140 18408,16723 18501,16102 18594,15782"/>
 <path fill="none" stroke="rgb(0,169,51)" stroke-width="80" stroke-linejoin="round" stroke-dasharray="158,102" d="M 1459,21270 L 1552,21115 1645,21180 1738,21067 1832,21037 1925,20909 2018,20838 2111,20832 2204,20837 2297,20763 2390,20606 2483,20525 2577,20359 2670,20188 2763,19929 2856,19636 2949,19382 3042,19192 3135,18919 3229,18670 3322,18484 3415,18318 3508,18244 3601,17958 3694,18248 3787,18352 3880,18462 3974,18582 4067,18742 4160,19328 4253,19378 4346,19449 4439,19531 4532,19579 4625,19675 4719,19727 4812,19803 4905,19776 4998,19904 5091,19964 5184,20092 5277,20189 5371,20273 5464,20339 5557,20384 5650,20431 5743,20488 5836,20532 5929,20581 6022,20614 6116,20651 6209,20668 6302,20645 6395,20624 6488,20564 6581,20532 6674,20482 6767,20451 6861,20420 6954,20376 7047,20315 7140,20212 7233,20136 7326,20043 7419,19992 7512,19938 7606,19812 7699,19746 7792,19667 7885,19597 7978,19530 8071,19528 8164,19480 8258,19471 8351,19470 8444,19435 8537,19388 8630,19286 8723,19246 8816,19193 8909,19102 9003,18982 9096,18867 9189,18715 9282,18646 9375,18659 9468,18661 9561,18666 9654,18675 9748,18700 9841,18692 9934,18654 10027,18622 10120,18568 10213,18516 10306,18472 10400,18428 10493,18388 10586,18352 10679,18350 10772,18344 10865,18391 10958,18441 11051,18507 11145,18574 11238,18603 11331,18661 11424,18699 11517,18759 11610,18792 11703,18832 11796,18845 11889,18837 11982,18862 12075,18860 12168,18897 12261,18956 12354,18946 12447,19051 12541,19139 12634,19194 12727,19235 12820,19284 12913,19332 13006,19344 13099,19436 13192,19444 13286,19499 13379,19562 13472,19575 13565,19559 13658,19574 13751,19572 13844,19537 13937,19535 14031,19507 14124,19472 14217,19403 14310,19361 14403,19323 14496,19304 14589,19301 14682,19276 14776,19245 14869,19216 14962,19202 15055,19211 15148,19207 15241,19256 15334,19304 15428,19345 15521,19322 15614,19237 15707,19158 15800,19087 15893,19055 15986,19039 16079,18988 16173,18928 16266,18849 16359,18796 16452,18739 16545,18731 16638,18705 16731,18679 16824,18631 16918,18593 17011,18555 17104,18510 17197,18483 17290,18473 17383,18508 17476,18546 17570,18539 17663,18530 17756,18506 17849,18511 17942,18501 18035,18456 18128,18416 18221,18356 18315,18331 18408,18269 18501,18264 18594,18235"/>
 <path fill="none" stroke="rgb(0,169,51)" stroke-width="80" stroke-linejoin="round" stroke-dasharray="80,40" d="M 1459,22237 L 1552,22236 1645,22235 1738,22232 1832,22231 1925,22229 2018,22226 2111,22223 2204,22219 2297,22214 2390,22210 2483,22207 2577,22201 2670,22193 2763,22182 2856,22172 2949,22161 3042,22156 3135,22147 3229,22134 3322,22125 3415,22159 3508,22144 3601,22125 3694,22104 3787,22078 3880,22049 3974,22030 4067,22000 4160,21974 4253,22031 4346,22012 4439,21996 4532,21977 4625,21944 4719,21902 4812,21861 4905,21843 4998,21804 5091,21758 5184,21683 5277,21604 5371,21517 5464,21808 5557,21841 5650,21838 5743,21938 5836,21867 5929,21764 6022,21728 6116,21627 6209,21609 6302,21504 6395,21702 6488,21667 6581,21529 6674,21595 6767,21576 6861,21461 6954,21467 7047,21562 7140,21521 7233,21468 7326,21454 7419,21419 7512,21382 7606,21366 7699,21331 7792,21273 7885,21207 7978,21172 8071,21099 8164,21100 8258,21118 8351,21062 8444,20992 8537,20934 8630,20943 8723,20921 8816,20883 8909,20935 9003,20884 9096,20893 9189,20770 9282,20719 9375,20698 9468,20670 9561,20767 9654,20728 9748,20648 9841,20573 9934,20490 10027,20501 10120,20448 10213,20609 10306,20547 10400,20463 10493,20358 10586,20348 10679,20355 10772,20302 10865,20388 10958,20289 11051,20317 11145,20198 11238,20177 11331,20184 11424,20196 11517,20369 11610,20338 11703,20262 11796,20195 11889,20155 11982,20154 12075,20137 12168,20176 12261,20116 12354,20009 12447,19910 12541,19870 12634,19786 12727,19853 12820,19933 12913,19894 13006,19972 13099,19938 13192,19938 13286,19938 13379,18234 13472,18496 13565,18366 13658,18167 13751,17974 13844,18062 13937,18015 14031,18113 14124,18429 14217,18268 14310,18358 14403,18236 14496,18175 14589,18094 14682,18340 14776,18853 14869,18750 14962,18671 15055,18493 15148,18402 15241,18500 15334,18758 15428,19067 15521,18936 15614,18839 15707,18732 15800,18643 15893,18801 15986,18953 16079,19212 16173,19069 16266,19027 16359,18888 16452,18899 16545,18813 16638,18917 16731,19305 16824,19204 16918,19072 17011,18898 17104,18816 17197,18753 17290,18885 17383,19127 17476,19115 17570,18993 17663,19046 17756,18915 17849,18782 17942,18898 18035,19170 18128,19102 18221,19061 18315,18969 18408,18959 18501,18861 18594,19027"/>
 <path fill="none" stroke="rgb(255,0,0)" stroke-width="80" stroke-linejoin="round" stroke-dasharray="158,102" d="M 1459,22238 L 1552,22238 1645,22238 1738,22236 1832,22233 1925,22227 2018,22215 2111,22195 2204,22158 2297,22091 2390,22056 2483,22015 2577,21952 2670,21807 2763,21559 2856,21356 2949,21141 3042,20956 3135,20641 3229,20397 3322,20117 3415,19793 3508,19471 3601,19128 3694,18788 3787,18353 3880,17892 3974,17445 4067,16911 4160,16361 4253,15846 4346,15421 4439,15040 4532,14638 4625,14240 4719,13912 4812,13687 4905,13402 4998,13024 5091,12657 5184,12485 5277,12364 5371,12393 5464,12526 5557,12685 5650,13005 5743,13337 5836,13628 5929,13912 6022,14256 6116,14567 6209,14968 6302,15392 6395,15801 6488,16134 6581,16484 6674,16681 6767,16875 6861,17084 6954,17333 7047,17511 7140,17663 7233,17753 7326,17807 7419,17860 7512,17921 7606,17981 7699,18020 7792,18038 7885,18046 7978,18070 8071,18111 8164,18109 8258,18154 8351,18224 8444,18258 8537,18310 8630,18369 8723,18377 8816,18398 8909,18419 9003,18445 9096,18455 9189,18450 9282,18537 9375,18667 9468,18882 9561,19180 9654,19454 9748,19617 9841,19624 9934,19631 10027,19575 10120,19548 10213,19472 10306,19419 10400,19400 10493,19413 10586,19450 10679,19460 10772,19490 10865,19503 10958,19512 11051,19502 11145,19506 11238,19520 11331,19597 11424,19606 11517,19588 11610,19591 11703,19730 11796,19776 11889,19796 11982,19805 12075,19813 12168,19965 12261,20119 12354,20266 12447,20495 12541,20557 12634,20599 12727,20636 12820,20656 12913,20666 13006,20676 13099,20697 13192,20710 13286,20744 13379,20755 13472,20765 13565,20777 13658,20816 13751,20847 13844,20858 13937,20882 14031,20894 14124,20904 14217,20922 14310,20930 14403,20934 14496,20938 14589,20938 14682,20939 14776,20942 14869,20934 14962,20916 15055,20904 15148,20887 15241,20878 15334,20870 15428,20874 15521,20876 15614,20844 15707,20813 15800,20779 15893,20749 15986,20727 16079,20702 16173,20665 16266,20631 16359,20569 16452,20519 16545,20459 16638,20410 16731,20327 16824,20255 16918,20219 17011,20162 17104,20105 17197,20043 17290,19993 17383,19937 17476,19873 17570,19799 17663,19753 17756,19687 17849,19609 17942,19547 18035,19474 18128,19398 18221,19316 18315,19287 18408,19226 18501,19195 18594,19150"/>
 <path fill="none" stroke="rgb(180,120,4)" stroke-width="80" stroke-linejoin="round" d="M 1459,20835 L 1552,20781 1645,20715 1738,20615 1832,20456 1925,20297 2018,20110 2111,19920 2204,19782 2297,19617 2390,19535 2483,19355 2577,19116 2670,18863 2763,18585 2856,18317 2949,18012 3042,17687 3135,17220 3229,18368 3322,18258 3415,17835 3508,17470 3601,17079 3694,16649 3787,16224 3880,15920 3974,15756 4067,15532 4160,15564 4253,15590 4346,15555 4439,15742 4532,15875 4625,16035 4719,16366 4812,16892 4905,17176 4998,17262 5091,17640 5184,17961 5277,18213 5371,18237 5464,18103 5557,18120 5650,18183 5743,18216 5836,18386 5929,18459 6022,18525 6116,18663 6209,18649 6302,18585 6395,18702 6488,18847 6581,18988 6674,19147 6767,19268 6861,19298 6954,19352 7047,19645 7140,19668 7233,19843 7326,19976 7419,20128 7512,20224 7606,20283 7699,20357 7792,20444 7885,20530 7978,20657 8071,20680 8164,20668 8258,20734 8351,20802 8444,20821 8537,20900 8630,20863 8723,20951 8816,20954 8909,20993 9003,21073 9096,21118 9189,21174 9282,21127 9375,21162 9468,21183 9561,21230 9654,21262 9748,21332 9841,21388 9934,21344 10027,21353 10120,21316 10213,21314 10306,21318 10400,21346 10493,21361 10586,21349 10679,21349 10772,21349 10865,21229 10958,21251 11051,21208 11145,21237 11238,21255 11331,21255 11424,21255 11517,21305 11610,21340 11703,21374 11796,21470 11889,21524 11982,21524 12075,21522 12168,21650 12261,21721 12354,21732 12447,21781 12541,21784 12634,21784 12727,21784 12820,21720 12913,21730 13006,21714 13099,21681 13192,21622 13286,21622 13379,21616 13472,21534 13565,21482 13658,21421 13751,21396 13844,21386 13937,21384 14031,21346 14124,21288 14217,21284 14310,21246 14403,21152 14496,21132 14589,21132 14682,21138 14776,20959 14869,20879 14962,20725 15055,20533 15148,20344 15241,20339 15334,20364 15428,19860 15521,19717 15614,19623 15707,19445 15800,19299 15893,19212 15986,19088 16079,19013 16173,19011 16266,19104 16359,19137 16452,19362 16545,19168 16638,19445 16731,19553 16824,19689 16918,19853 17011,19979 17104,20056 17197,20115 17290,20142 17383,20154 17476,20149 17570,20154 17663,19998 17756,19848 17849,19666 17942,19565 18035,19345 18128,19048 18221,18754 18315,18340 18408,17951 18501,17542 18594,17103"/>
 <path fill="none" stroke="rgb(0,0,0)" stroke-width="80" stroke-linejoin="round" d="M 1459,21793 L 1552,21681 1645,21533 1738,21354 1832,21111 1925,20739 2018,20373 2111,19828 2204,19545 2297,19223 2390,18712 2483,18599 2577,18109 2670,17565 2763,16842 2856,16238 2949,15799 3042,15751 3135,15482 3229,15073 3322,14705 3415,14205 3508,13844 3601,13648 3694,13276 3787,13682 3880,14287 3974,14469 4067,14183 4160,14271 4253,14301 4346,14541 4439,14875 4532,15062 4625,15271 4719,15605 4812,15660 4905,15769 4998,16002 5091,16327 5184,16584 5277,16795 5371,17387 5464,17216 5557,17344 5650,17548 5743,17786 5836,17974 5929,18193 6022,18494 6116,18652 6209,18770 6302,18984 6395,19174 6488,19657 6581,19737 6674,19609 6767,19720 6861,19790 6954,19865 7047,19996 7140,20081 7233,20234 7326,20303 7419,20367 7512,20468 7606,20577 7699,20515 7792,20595 7885,20673 7978,20711 8071,20761 8164,20792 8258,20874 8351,20903 8444,20975 8537,20963 8630,20987 8723,21039 8816,21068 8909,21081 9003,21168 9096,21246 9189,21263 9282,21281 9375,21277 9468,21274 9561,21272 9654,21299 9748,21360 9841,21383 9934,21389 10027,21439 10120,21423 10213,21478 10306,21428 10400,21482 10493,21366 10586,21323 10679,21357 10772,21299 10865,21288 10958,21286 11051,21313 11145,21295 11238,21264 11331,21258 11424,21246 11517,21218 11610,21214 11703,21279 11796,21308 11889,21320 11982,21356 12075,21404 12168,21392 12261,21421 12354,21439 12447,21474 12541,21471 12634,21455 12727,21447 12820,21500 12913,21466 13006,21524 13099,21505 13192,21493 13286,21484 13379,21471 13472,21481 13565,21452 13658,21433 13751,21423 13844,21401 13937,21349 14031,21317 14124,21295 14217,21271 14310,21238 14403,21151 14496,21100 14589,21105 14682,21112 14776,21087 14869,21071 14962,20963 15055,20938 15148,20877 15241,20867 15334,20848 15428,20772 15521,20764 15614,20682 15707,20589 15800,20502 15893,20455 15986,20445 16079,20367 16173,20369 16266,20270 16359,20188 16452,20134 16545,20150 16638,20119 16731,20001 16824,20028 16918,20020 17011,19979 17104,19945 17197,19933 17290,19936 17383,19938 17476,19987 17570,20002 17663,20025 17756,20006 17849,20005 17942,20002 18035,19952 18128,19995 18221,19987 18315,19960 18408,19897 18501,19839 18594,19798"/>
 <path fill="none" stroke="rgb(85,48,141)" stroke-width="80" stroke-linejoin="round" stroke-dasharray="80,40" d="M 1459,22188 L 1552,22187 1645,22172 1738,22129 1832,22112 1925,22064 2018,22025 2111,21987 2204,21898 2297,21846 2390,21678 2483,21514 2577,21409 2670,21195 2763,21045 2856,20860 2949,20668 3042,20368 3135,20372 3229,20019 3322,19669 3415,19485 3508,19458 3601,18829 3694,18698 3787,18496 3880,18257 3974,18146 4067,17966 4160,17850 4253,17744 4346,17558 4439,17344 4532,17259 4625,16818 4719,16528 4812,16234 4905,16171 4998,15852 5091,15602 5184,15376 5277,15058 5371,14766 5464,14651 5557,14467 5650,14455 5743,14338 5836,14215 5929,14123 6022,14036 6116,13930 6209,13559 6302,13522 6395,13496 6488,13462 6581,13392 6674,13299 6767,13273 6861,13230 6954,13189 7047,13210 7140,13237 7233,13205 7326,13126 7419,13071 7512,12991 7606,12900 7699,12847 7792,12782 7885,12752 7978,12687 8071,12582 8164,12525 8258,12460 8351,12413 8444,12446 8537,12400 8630,12425 8723,12407 8816,12438 8909,12465 9003,12475 9096,12530 9189,12581 9282,12656 9375,12808 9468,12784 9561,12811 9654,12913 9748,13100 9841,13240 9934,13382 10027,13498 10120,13633 10213,13755 10306,13797 10400,14075 10493,14120 10586,14159 10679,14192 10772,14225 10865,14265 10958,14287 11051,14317 11145,14313 11238,14354 11331,14359 11424,14341 11517,14455 11610,14504 11703,14535 11796,14574 11889,14591 11982,14608 12075,14625 12168,14613 12261,14637 12354,14663 12447,14658 12541,14673 12634,14717 12727,14712 12820,14657 12913,14650 13006,14656 13099,14638 13192,21039 13286,20997 13379,20953 13472,20857 13565,20787 13658,20771 13751,20725 13844,20685 13937,20661 14031,20631 14124,20579 14217,20538 14310,20490 14403,20502 14496,20492 14589,20473 14682,20443 14776,20411 14869,20437 14962,20424 15055,20410 15148,20393 15241,20363 15334,20349 15428,20882 15521,20904 15614,20922 15707,20912 15800,20906 15893,20922 15986,20948 16079,20952 16173,20900 16266,20940 16359,20951 16452,20920 16545,20922 16638,20911 16731,20869 16824,20885 16918,20868 17011,20852 17104,20830 17197,20823 17290,20801 17383,20675 17476,20652 17570,20629 17663,20584 17756,20547 17849,20504 17942,20463 18035,20406 18128,20291 18221,20288 18315,20356 18408,20348 18501,20327 18594,20285"/>
 <path fill="none" stroke="rgb(0,0,255)" stroke-width="80" stroke-linejoin="round" stroke-dasharray="158,158" d="M 1459,20750 L 1552,20730 1645,20715 1738,20827 1832,20865 1925,20874 2018,20845 2111,20828 2204,20800 2297,21044 2390,21044 2483,21151 2577,21177 2670,21240 2763,21301 2856,21329 2949,21354 3042,21379 3135,21391 3229,21403 3322,21439 3415,21461 3508,21504 3601,21517 3694,21535 3787,21546 3880,21553 3974,21586 4067,21610 4160,21630 4253,21650 4346,21661 4439,21674 4532,21686 4625,21710 4719,21721 4812,21739 4905,21759 4998,21771 5091,21790 5184,21801 5277,21843 5371,21868 5464,21883 5557,21891 5650,21906 5743,21918 5836,21945 5929,21946 6022,21956 6116,21965 6209,21971 6302,21984 6395,21994 6488,22010 6581,22021 6674,22034 6767,22036 6861,22033 6954,22036 7047,22036 7140,22044 7233,22050 7326,22053 7419,22058 7512,22058 7606,22062 7699,22082 7792,22093 7885,22095 7978,22097 8071,22096 8164,22095 8258,22102 8351,22098 8444,22091 8537,22084 8630,22083 8723,22079 8816,22076 8909,22073 9003,22068 9096,22066 9189,22060 9282,22055 9375,22047 9468,22042 9561,22040 9654,22034 9748,22034 9841,22026 9934,22021 10027,22019 10120,22015 10213,22014 10306,22008 10400,22002 10493,21999 10586,21990 10679,21983 10772,21982 10865,21978 10958,21972 11051,21976 11145,22008 11238,22027 11331,22024 11424,22028 11517,22041 11610,22047 11703,22050 11796,22052 11889,22050 11982,22042 12075,22036 12168,22041 12261,22040 12354,22040 12447,22041 12541,22049 12634,22048 12727,22040 12820,22049 12913,22055 13006,22053 13099,22054 13192,22058 13286,22059 13379,22057 13472,22062 13565,22061 13658,22061 13751,22065 13844,22052 13937,22045 14031,22043 14124,22058 14217,22061 14310,22070 14403,22073 14496,22077 14589,22076 14682,22076 14776,22084 14869,22088 14962,22099 15055,22103 15148,22112 15241,22108 15334,22105 15428,22113 15521,22113 15614,22108 15707,22097 15800,22071 15893,22017 15986,21979 16079,21933 16173,21888 16266,21841 16359,21788 16452,21731 16545,21658 16638,21608 16731,21565 16824,21518 16918,21448 17011,21392 17104,21371 17197,21339 17290,21304 17383,21302 17476,21280 17570,21276 17663,21288 17756,21300 17849,21294 17942,21301 18035,21343 18128,21390 18221,21427 18315,21444 18408,21501 18501,21516 18594,21548"/>
 <text class="TextShape" transform="rotate(-90 1553 23210)"><tspan class="TextParagraph" font-family="Liberation Sans, sans-serif" font-size="282px" font-weight="400"><tspan class="TextPosition" x="1553" y="23210"><tspan fill="rgb(0,0,0)" stroke="none">13.03</tspan></tspan></tspan></text>
 <text class="TextShape" transform="rotate(-90 2205 23210)"><tspan class="TextParagraph" font-family="Liberation Sans, sans-serif" font-size="282px" font-weight="400"><tspan class="TextPosition" x="2205" y="23210"><tspan fill="rgb(0,0,0)" stroke="none">20.03</tspan></tspan></tspan></text>
 <text class="TextShape" transform="rotate(-90 2857 23210)"><tspan class="TextParagraph" font-family="Liberation Sans, sans-serif" font-size="282px" font-weight="400"><tspan class="TextPosition" x="2857" y="23210"><tspan fill="rgb(0,0,0)" stroke="none">27.03</tspan></tspan></tspan></text>
 <text class="TextShape" transform="rotate(-90 3509 23210)"><tspan class="TextParagraph" font-family="Liberation Sans, sans-serif" font-size="282px" font-weight="400"><tspan class="TextPosition" x="3509" y="23210"><tspan fill="rgb(0,0,0)" stroke="none">03.04</tspan></tspan></tspan></text>
 <text class="TextShape" transform="rotate(-90 4161 23210)"><tspan class="TextParagraph" font-family="Liberation Sans, sans-serif" font-size="282px" font-weight="400"><tspan class="TextPosition" x="4161" y="23210"><tspan fill="rgb(0,0,0)" stroke="none">10.04</tspan></tspan></tspan></text>
 <text class="TextShape" transform="rotate(-90 4813 23210)"><tspan class="TextParagraph" font-family="Liberation Sans, sans-serif" font-size="282px" font-weight="400"><tspan class="TextPosition" x="4813" y="23210"><tspan fill="rgb(0,0,0)" stroke="none">17.04</tspan></tspan></tspan></text>
 <text class="TextShape" transform="rotate(-90 5465 23210)"><tspan class="TextParagraph" font-family="Liberation Sans, sans-serif" font-size="282px" font-weight="400"><tspan class="TextPosition" x="5465" y="23210"><tspan fill="rgb(0,0,0)" stroke="none">24.04</tspan></tspan></tspan></text>
 <text class="TextShape" transform="rotate(-90 6116 23210)"><tspan class="TextParagraph" font-family="Liberation Sans, sans-serif" font-size="282px" font-weight="400"><tspan class="TextPosition" x="6116" y="23210"><tspan fill="rgb(0,0,0)" stroke="none">01.05</tspan></tspan></tspan></text>
 <text class="TextShape" transform="rotate(-90 6768 23210)"><tspan class="TextParagraph" font-family="Liberation Sans, sans-serif" font-size="282px" font-weight="400"><tspan class="TextPosition" x="6768" y="23210"><tspan fill="rgb(0,0,0)" stroke="none">08.05</tspan></tspan></tspan></text>
 <text class="TextShape" transform="rotate(-90 7420 23210)"><tspan class="TextParagraph" font-family="Liberation Sans, sans-serif" font-size="282px" font-weight="400"><tspan class="TextPosition" x="7420" y="23210"><tspan fill="rgb(0,0,0)" stroke="none">15.05</tspan></tspan></tspan></text>
 <text class="TextShape" transform="rotate(-90 8072 23210)"><tspan class="TextParagraph" font-family="Liberation Sans, sans-serif" font-size="282px" font-weight="400"><tspan class="TextPosition" x="8072" y="23210"><tspan fill="rgb(0,0,0)" stroke="none">22.05</tspan></tspan></tspan></text>
 <text class="TextShape" transform="rotate(-90 8724 23210)"><tspan class="TextParagraph" font-family="Liberation Sans, sans-serif" font-size="282px" font-weight="400"><tspan class="TextPosition" x="8724" y="23210"><tspan fill="rgb(0,0,0)" stroke="none">29.05</tspan></tspan></tspan></text>
 <text class="TextShape" transform="rotate(-90 9376 23210)"><tspan class="TextParagraph" font-family="Liberation Sans, sans-serif" font-size="282px" font-weight="400"><tspan class="TextPosition" x="9376" y="23210"><tspan fill="rgb(0,0,0)" stroke="none">05.06</tspan></tspan></tspan></text>
 <text class="TextShape" transform="rotate(-90 10028 23210)"><tspan class="TextParagraph" font-family="Liberation Sans, sans-serif" font-size="282px" font-weight="400"><tspan class="TextPosition" x="10028" y="23210"><tspan fill="rgb(0,0,0)" stroke="none">12.06</tspan></tspan></tspan></text>
 <text class="TextShape" transform="rotate(-90 10680 23210)"><tspan class="TextParagraph" font-family="Liberation Sans, sans-serif" font-size="282px" font-weight="400"><tspan class="TextPosition" x="10680" y="23210"><tspan fill="rgb(0,0,0)" stroke="none">19.06</tspan></tspan></tspan></text>
 <text class="TextShape" transform="rotate(-90 11332 23210)"><tspan class="TextParagraph" font-family="Liberation Sans, sans-serif" font-size="282px" font-weight="400"><tspan class="TextPosition" x="11332" y="23210"><tspan fill="rgb(0,0,0)" stroke="none">26.06</tspan></tspan></tspan></text>
 <text class="TextShape" transform="rotate(-90 11983 23210)"><tspan class="TextParagraph" font-family="Liberation Sans, sans-serif" font-size="282px" font-weight="400"><tspan class="TextPosition" x="11983" y="23210"><tspan fill="rgb(0,0,0)" stroke="none">03.07</tspan></tspan></tspan></text>
 <text class="TextShape" transform="rotate(-90 12635 23210)"><tspan class="TextParagraph" font-family="Liberation Sans, sans-serif" font-size="282px" font-weight="400"><tspan class="TextPosition" x="12635" y="23210"><tspan fill="rgb(0,0,0)" stroke="none">10.07</tspan></tspan></tspan></text>
 <text class="TextShape" transform="rotate(-90 13286 23210)"><tspan class="TextParagraph" font-family="Liberation Sans, sans-serif" font-size="282px" font-weight="400"><tspan class="TextPosition" x="13286" y="23210"><tspan fill="rgb(0,0,0)" stroke="none">17.07</tspan></tspan></tspan></text>
 <text class="TextShape" transform="rotate(-90 13938 23210)"><tspan class="TextParagraph" font-family="Liberation Sans, sans-serif" font-size="282px" font-weight="400"><tspan class="TextPosition" x="13938" y="23210"><tspan fill="rgb(0,0,0)" stroke="none">24.07</tspan></tspan></tspan></text>
 <text class="TextShape" transform="rotate(-90 14590 23210)"><tspan class="TextParagraph" font-family="Liberation Sans, sans-serif" font-size="282px" font-weight="400"><tspan class="TextPosition" x="14590" y="23210"><tspan fill="rgb(0,0,0)" stroke="none">31.07</tspan></tspan></tspan></text>
 <text class="TextShape" transform="rotate(-90 15242 23210)"><tspan class="TextParagraph" font-family="Liberation Sans, sans-serif" font-size="282px" font-weight="400"><tspan class="TextPosition" x="15242" y="23210"><tspan fill="rgb(0,0,0)" stroke="none">07.08</tspan></tspan></tspan></text>
 <text class="TextShape" transform="rotate(-90 15894 23210)"><tspan class="TextParagraph" font-family="Liberation Sans, sans-serif" font-size="282px" font-weight="400"><tspan class="TextPosition" x="15894" y="23210"><tspan fill="rgb(0,0,0)" stroke="none">14.08</tspan></tspan></tspan></text>
 <text class="TextShape" transform="rotate(-90 16546 23210)"><tspan class="TextParagraph" font-family="Liberation Sans, sans-serif" font-size="282px" font-weight="400"><tspan class="TextPosition" x="16546" y="23210"><tspan fill="rgb(0,0,0)" stroke="none">21.08</tspan></tspan></tspan></text>
 <text class="TextShape" transform="rotate(-90 17198 23210)"><tspan class="TextParagraph" font-family="Liberation Sans, sans-serif" font-size="282px" font-weight="400"><tspan class="TextPosition" x="17198" y="23210"><tspan fill="rgb(0,0,0)" stroke="none">28.08</tspan></tspan></tspan></text>
 <text class="TextShape" transform="rotate(-90 17850 23210)"><tspan class="TextParagraph" font-family="Liberation Sans, sans-serif" font-size="282px" font-weight="400"><tspan class="TextPosition" x="17850" y="23210"><tspan fill="rgb(0,0,0)" stroke="none">04.09</tspan></tspan></tspan></text>
 <text class="TextShape" transform="rotate(-90 18502 23210)"><tspan class="TextParagraph" font-family="Liberation Sans, sans-serif" font-size="282px" font-weight="400"><tspan class="TextPosition" x="18502" y="23210"><tspan fill="rgb(0,0,0)" stroke="none">11.09</tspan></tspan></tspan></text>
 <text class="TextShape"><tspan class="TextParagraph" font-family="Liberation Sans, sans-serif" font-size="388px" font-weight="400"><tspan class="TextPosition" x="941" y="22372"><tspan fill="rgb(0,0,0)" stroke="none">0</tspan></tspan></tspan></text>
 <text class="TextShape"><tspan class="TextParagraph" font-family="Liberation Sans, sans-serif" font-size="388px" font-weight="400"><tspan class="TextPosition" x="496" y="17219"><tspan fill="rgb(0,0,0)" stroke="none">500</tspan></tspan></tspan></text>
 <text class="TextShape"><tspan class="TextParagraph" font-family="Liberation Sans, sans-serif" font-size="388px" font-weight="400"><tspan class="TextPosition" x="274" y="12066"><tspan fill="rgb(0,0,0)" stroke="none">1000</tspan></tspan></tspan></text>
 <text class="TextShape"><tspan class="TextParagraph" font-family="Liberation Sans, sans-serif" font-size="388px" font-weight="400"><tspan class="TextPosition" x="274" y="6913"><tspan fill="rgb(0,0,0)" stroke="none">1500</tspan></tspan></tspan></text>
 <text class="TextShape"><tspan class="TextParagraph" font-family="Liberation Sans, sans-serif" font-size="388px" font-weight="400"><tspan class="TextPosition" x="274" y="1761"><tspan fill="rgb(0,0,0)" stroke="none">2000</tspan></tspan></tspan></text>
 <text class="TextShape"><tspan class="TextParagraph" font-family="Liberation Sans, sans-serif" font-size="494px" font-weight="700"><tspan class="TextPosition" x="908" y="984"><tspan fill="rgb(0,0,0)" stroke="none">Poet aktivnch ppad na milin obyvatel (mtko do 2000 na milin obyvatel)</tspan></tspan></tspan></text>
 <path fill="none" stroke="rgb(141,40,30)" stroke-width="80" stroke-linejoin="round" stroke-dasharray="80,40" d="M 18829,2506 L 20429,2506"/>
 <path fill="none" stroke="rgb(255,64,0)" stroke-width="80" stroke-linejoin="round" stroke-dasharray="80,40" d="M 18829,3707 L 20429,3707"/>
 <path fill="none" stroke="rgb(0,223,255)" stroke-width="80" stroke-linejoin="round" stroke-dasharray="158,102" d="M 18829,4908 L 20429,4908"/>
 <path fill="none" stroke="rgb(21,132,102)" stroke-width="80" stroke-linejoin="round" stroke-dasharray="80,203,80,203,203,203" d="M 18829,6109 L 20429,6109"/>
 <path fill="none" stroke="rgb(191,0,65)" stroke-width="80" stroke-linejoin="round" stroke-dasharray="51,127,51,127,254,127,254,127,254,127" d="M 18829,7310 L 20429,7310"/>
 <path fill="none" stroke="rgb(255,211,32)" stroke-width="80" stroke-linejoin="round" d="M 18829,8511 L 20429,8511"/>
 <path fill="none" stroke="rgb(128,0,128)" stroke-width="80" stroke-linejoin="round" stroke-dasharray="158,158" d="M 18829,9712 L 20429,9712"/>
 <path fill="none" stroke="rgb(0,255,0)" stroke-width="80" stroke-linejoin="round" d="M 18829,10913 L 20429,10913"/>
 <path fill="none" stroke="rgb(131,202,255)" stroke-width="80" stroke-linejoin="round" d="M 18829,12113 L 20429,12113"/>
 <path fill="none" stroke="rgb(0,169,51)" stroke-width="80" stroke-linejoin="round" d="M 18829,13314 L 20429,13314"/>
 <path fill="none" stroke="rgb(0,169,51)" stroke-width="80" stroke-linejoin="round" stroke-dasharray="158,102" d="M 18829,14515 L 20429,14515"/>
 <path fill="none" stroke="rgb(0,169,51)" stroke-width="80" stroke-linejoin="round" stroke-dasharray="80,40" d="M 18829,15716 L 20429,15716"/>
 <path fill="none" stroke="rgb(255,0,0)" stroke-width="80" stroke-linejoin="round" stroke-dasharray="158,102" d="M 18829,16917 L 20429,16917"/>
 <path fill="none" stroke="rgb(180,120,4)" stroke-width="80" stroke-linejoin="round" d="M 18829,18118 L 20429,18118"/>
 <path fill="none" stroke="rgb(0,0,0)" stroke-width="80" stroke-linejoin="round" d="M 18829,19319 L 20429,19319"/>
 <path fill="none" stroke="rgb(85,48,141)" stroke-width="80" stroke-linejoin="round" stroke-dasharray="80,40" d="M 18829,20520 L 20429,20520"/>
 <path fill="none" stroke="rgb(0,0,255)" stroke-width="80" stroke-linejoin="round" stroke-dasharray="158,158" d="M 18829,21721 L 20429,21721"/>
 <text class="TextShape"><tspan class="TextParagraph" font-family="Liberation Sans, sans-serif" font-size="423px" font-weight="400"><tspan class="TextPosition" x="20529" y="2654"><tspan fill="rgb(0,0,0)" stroke="none">USA</tspan></tspan></tspan></text>
 <text class="TextShape"><tspan class="TextParagraph" font-family="Liberation Sans, sans-serif" font-size="423px" font-weight="400"><tspan class="TextPosition" x="20529" y="3855"><tspan fill="rgb(0,0,0)" stroke="none">Brazlie</tspan></tspan></tspan></text>
 <text class="TextShape"><tspan class="TextParagraph" font-family="Liberation Sans, sans-serif" font-size="423px" font-weight="400"><tspan class="TextPosition" x="20529" y="5056"><tspan fill="rgb(0,0,0)" stroke="none">Rusko</tspan></tspan></tspan></text>
 <text class="TextShape"><tspan class="TextParagraph" font-family="Liberation Sans, sans-serif" font-size="423px" font-weight="400"><tspan class="TextPosition" x="20529" y="6257"><tspan fill="rgb(0,0,0)" stroke="none">celosvtov</tspan></tspan></tspan></text>
 <text class="TextShape"><tspan class="TextParagraph" font-family="Liberation Sans, sans-serif" font-size="423px" font-weight="400"><tspan class="TextPosition" x="20529" y="7458"><tspan fill="rgb(0,0,0)" stroke="none">EU_nov zem</tspan></tspan></tspan></text>
 <text class="TextShape"><tspan class="TextParagraph" font-family="Liberation Sans, sans-serif" font-size="423px" font-weight="400"><tspan class="TextPosition" x="20529" y="8659"><tspan fill="rgb(0,0,0)" stroke="none">esko</tspan></tspan></tspan></text>
 <text class="TextShape"><tspan class="TextParagraph" font-family="Liberation Sans, sans-serif" font-size="423px" font-weight="400"><tspan class="TextPosition" x="20529" y="9860"><tspan fill="rgb(0,0,0)" stroke="none">Indie</tspan></tspan></tspan></text>
 <text class="TextShape"><tspan class="TextParagraph" font-family="Liberation Sans, sans-serif" font-size="423px" font-weight="400"><tspan class="TextPosition" x="20529" y="11061"><tspan fill="rgb(0,0,0)" stroke="none">vcarsko</tspan></tspan></tspan></text>
 <text class="TextShape"><tspan class="TextParagraph" font-family="Liberation Sans, sans-serif" font-size="423px" font-weight="400"><tspan class="TextPosition" x="20529" y="12261"><tspan fill="rgb(0,0,0)" stroke="none">Itlie</tspan></tspan></tspan></text>
 <text class="TextShape"><tspan class="TextParagraph" font-family="Liberation Sans, sans-serif" font-size="423px" font-weight="400"><tspan class="TextPosition" x="20529" y="13462"><tspan fill="rgb(0,0,0)" stroke="none">Rakousko</tspan></tspan></tspan></text>
 <text class="TextShape"><tspan class="TextParagraph" font-family="Liberation Sans, sans-serif" font-size="423px" font-weight="400"><tspan class="TextPosition" x="20529" y="14663"><tspan fill="rgb(0,0,0)" stroke="none">rn</tspan></tspan></tspan></text>
 <text class="TextShape"><tspan class="TextParagraph" font-family="Liberation Sans, sans-serif" font-size="423px" font-weight="400"><tspan class="TextPosition" x="20529" y="15864"><tspan fill="rgb(0,0,0)" stroke="none">Mexiko</tspan></tspan></tspan></text>
 <text class="TextShape"><tspan class="TextParagraph" font-family="Liberation Sans, sans-serif" font-size="423px" font-weight="400"><tspan class="TextPosition" x="20529" y="17065"><tspan fill="rgb(0,0,0)" stroke="none">Turecko</tspan></tspan></tspan></text>
 <text class="TextShape"><tspan class="TextParagraph" font-family="Liberation Sans, sans-serif" font-size="423px" font-weight="400"><tspan class="TextPosition" x="20529" y="18266"><tspan fill="rgb(0,0,0)" stroke="none">Dnsko</tspan></tspan></tspan></text>
 <text class="TextShape"><tspan class="TextParagraph" font-family="Liberation Sans, sans-serif" font-size="423px" font-weight="400"><tspan class="TextPosition" x="20529" y="19467"><tspan fill="rgb(0,0,0)" stroke="none">Nmecko</tspan></tspan></tspan></text>
 <text class="TextShape"><tspan class="TextParagraph" font-family="Liberation Sans, sans-serif" font-size="423px" font-weight="400"><tspan class="TextPosition" x="20529" y="20668"><tspan fill="rgb(0,0,0)" stroke="none">Kanada</tspan></tspan></tspan></text>
 <text class="TextShape"><tspan class="TextParagraph" font-family="Liberation Sans, sans-serif" font-size="423px" font-weight="400"><tspan class="TextPosition" x="20529" y="21869"><tspan fill="rgb(0,0,0)" stroke="none">Jin Korea</tspan></tspan></tspan></text>
</svg>