<?xml version="1.0" encoding="UTF-8"?>
<!DOCTYPE svg PUBLIC "-//W3C//DTD SVG 1.1//EN" "http://www.w3.org/Graphics/SVG/1.1/DTD/svg11.dtd">
<svg width="236mm" height="250mm" viewBox="0 0 23600 25000" version="1.1" xmlns="http://www.w3.org/2000/svg" xmlns:xlink="http://www.w3.org/1999/xlink" stroke-width="28.222" stroke-linejoin="round" xml:space="preserve">
 <path fill="rgb(255,255,255)" stroke="none" d="M 11800,25000 L 0,25000 0,0 23600,0 23600,25000 11800,25000 Z"/>
 <path fill="none" stroke="rgb(179,179,179)" stroke-linejoin="round" d="M 9836,23331 L 1224,23331 1224,1596 18448,1596 18448,23331 9836,23331 Z"/>
 <path fill="none" stroke="rgb(179,179,179)" stroke-linejoin="round" d="M 18448,23330 L 1224,23330"/>
 <path fill="none" stroke="rgb(179,179,179)" stroke-linejoin="round" d="M 18448,21156 L 1224,21156"/>
 <path fill="none" stroke="rgb(179,179,179)" stroke-linejoin="round" d="M 18448,18982 L 1224,18982"/>
 <path fill="none" stroke="rgb(179,179,179)" stroke-linejoin="round" d="M 18448,16809 L 1224,16809"/>
 <path fill="none" stroke="rgb(179,179,179)" stroke-linejoin="round" d="M 18448,14635 L 1224,14635"/>
 <path fill="none" stroke="rgb(179,179,179)" stroke-linejoin="round" d="M 18448,12463 L 1224,12463"/>
 <path fill="none" stroke="rgb(179,179,179)" stroke-linejoin="round" d="M 18448,10289 L 1224,10289"/>
 <path fill="none" stroke="rgb(179,179,179)" stroke-linejoin="round" d="M 18448,8115 L 1224,8115"/>
 <path fill="none" stroke="rgb(179,179,179)" stroke-linejoin="round" d="M 18448,5942 L 1224,5942"/>
 <path fill="none" stroke="rgb(179,179,179)" stroke-linejoin="round" d="M 18448,3768 L 1224,3768"/>
 <path fill="none" stroke="rgb(179,179,179)" stroke-linejoin="round" d="M 18448,1595 L 1224,1595"/>
 <path fill="none" stroke="rgb(179,179,179)" stroke-linejoin="round" d="M 1224,23480 L 1224,23330"/>
 <path fill="none" stroke="rgb(179,179,179)" stroke-linejoin="round" d="M 1224,23480 L 1224,23330"/>
 <path fill="none" stroke="rgb(179,179,179)" stroke-linejoin="round" d="M 2038,23480 L 2038,23330"/>
 <path fill="none" stroke="rgb(179,179,179)" stroke-linejoin="round" d="M 2038,23480 L 2038,23330"/>
 <path fill="none" stroke="rgb(179,179,179)" stroke-linejoin="round" d="M 2853,23480 L 2853,23330"/>
 <path fill="none" stroke="rgb(179,179,179)" stroke-linejoin="round" d="M 2853,23480 L 2853,23330"/>
 <path fill="none" stroke="rgb(179,179,179)" stroke-linejoin="round" d="M 3668,23480 L 3668,23330"/>
 <path fill="none" stroke="rgb(179,179,179)" stroke-linejoin="round" d="M 3668,23480 L 3668,23330"/>
 <path fill="none" stroke="rgb(179,179,179)" stroke-linejoin="round" d="M 4482,23480 L 4482,23330"/>
 <path fill="none" stroke="rgb(179,179,179)" stroke-linejoin="round" d="M 4482,23480 L 4482,23330"/>
 <path fill="none" stroke="rgb(179,179,179)" stroke-linejoin="round" d="M 5297,23480 L 5297,23330"/>
 <path fill="none" stroke="rgb(179,179,179)" stroke-linejoin="round" d="M 5297,23480 L 5297,23330"/>
 <path fill="none" stroke="rgb(179,179,179)" stroke-linejoin="round" d="M 6112,23480 L 6112,23330"/>
 <path fill="none" stroke="rgb(179,179,179)" stroke-linejoin="round" d="M 6112,23480 L 6112,23330"/>
 <path fill="none" stroke="rgb(179,179,179)" stroke-linejoin="round" d="M 6926,23480 L 6926,23330"/>
 <path fill="none" stroke="rgb(179,179,179)" stroke-linejoin="round" d="M 6926,23480 L 6926,23330"/>
 <path fill="none" stroke="rgb(179,179,179)" stroke-linejoin="round" d="M 7741,23480 L 7741,23330"/>
 <path fill="none" stroke="rgb(179,179,179)" stroke-linejoin="round" d="M 7741,23480 L 7741,23330"/>
 <path fill="none" stroke="rgb(179,179,179)" stroke-linejoin="round" d="M 8556,23480 L 8556,23330"/>
 <path fill="none" stroke="rgb(179,179,179)" stroke-linejoin="round" d="M 8556,23480 L 8556,23330"/>
 <path fill="none" stroke="rgb(179,179,179)" stroke-linejoin="round" d="M 9370,23480 L 9370,23330"/>
 <path fill="none" stroke="rgb(179,179,179)" stroke-linejoin="round" d="M 9370,23480 L 9370,23330"/>
 <path fill="none" stroke="rgb(179,179,179)" stroke-linejoin="round" d="M 10185,23480 L 10185,23330"/>
 <path fill="none" stroke="rgb(179,179,179)" stroke-linejoin="round" d="M 10185,23480 L 10185,23330"/>
 <path fill="none" stroke="rgb(179,179,179)" stroke-linejoin="round" d="M 11000,23480 L 11000,23330"/>
 <path fill="none" stroke="rgb(179,179,179)" stroke-linejoin="round" d="M 11000,23480 L 11000,23330"/>
 <path fill="none" stroke="rgb(179,179,179)" stroke-linejoin="round" d="M 11814,23480 L 11814,23330"/>
 <path fill="none" stroke="rgb(179,179,179)" stroke-linejoin="round" d="M 11814,23480 L 11814,23330"/>
 <path fill="none" stroke="rgb(179,179,179)" stroke-linejoin="round" d="M 12628,23480 L 12628,23330"/>
 <path fill="none" stroke="rgb(179,179,179)" stroke-linejoin="round" d="M 12628,23480 L 12628,23330"/>
 <path fill="none" stroke="rgb(179,179,179)" stroke-linejoin="round" d="M 13443,23480 L 13443,23330"/>
 <path fill="none" stroke="rgb(179,179,179)" stroke-linejoin="round" d="M 13443,23480 L 13443,23330"/>
 <path fill="none" stroke="rgb(179,179,179)" stroke-linejoin="round" d="M 14258,23480 L 14258,23330"/>
 <path fill="none" stroke="rgb(179,179,179)" stroke-linejoin="round" d="M 14258,23480 L 14258,23330"/>
 <path fill="none" stroke="rgb(179,179,179)" stroke-linejoin="round" d="M 15072,23480 L 15072,23330"/>
 <path fill="none" stroke="rgb(179,179,179)" stroke-linejoin="round" d="M 15072,23480 L 15072,23330"/>
 <path fill="none" stroke="rgb(179,179,179)" stroke-linejoin="round" d="M 15887,23480 L 15887,23330"/>
 <path fill="none" stroke="rgb(179,179,179)" stroke-linejoin="round" d="M 15887,23480 L 15887,23330"/>
 <path fill="none" stroke="rgb(179,179,179)" stroke-linejoin="round" d="M 16702,23480 L 16702,23330"/>
 <path fill="none" stroke="rgb(179,179,179)" stroke-linejoin="round" d="M 16702,23480 L 16702,23330"/>
 <path fill="none" stroke="rgb(179,179,179)" stroke-linejoin="round" d="M 17516,23480 L 17516,23330"/>
 <path fill="none" stroke="rgb(179,179,179)" stroke-linejoin="round" d="M 17516,23480 L 17516,23330"/>
 <path fill="none" stroke="rgb(179,179,179)" stroke-linejoin="round" d="M 18331,23480 L 18331,23330"/>
 <path fill="none" stroke="rgb(179,179,179)" stroke-linejoin="round" d="M 18331,23480 L 18331,23330"/>
 <path fill="none" stroke="rgb(179,179,179)" stroke-linejoin="round" d="M 1224,23330 L 18448,23330"/>
 <path fill="none" stroke="rgb(179,179,179)" stroke-linejoin="round" d="M 1074,23330 L 1224,23330"/>
 <path fill="none" stroke="rgb(179,179,179)" stroke-linejoin="round" d="M 1074,23330 L 1224,23330"/>
 <path fill="none" stroke="rgb(179,179,179)" stroke-linejoin="round" d="M 1074,21156 L 1224,21156"/>
 <path fill="none" stroke="rgb(179,179,179)" stroke-linejoin="round" d="M 1074,21156 L 1224,21156"/>
 <path fill="none" stroke="rgb(179,179,179)" stroke-linejoin="round" d="M 1074,18982 L 1224,18982"/>
 <path fill="none" stroke="rgb(179,179,179)" stroke-linejoin="round" d="M 1074,18982 L 1224,18982"/>
 <path fill="none" stroke="rgb(179,179,179)" stroke-linejoin="round" d="M 1074,16809 L 1224,16809"/>
 <path fill="none" stroke="rgb(179,179,179)" stroke-linejoin="round" d="M 1074,16809 L 1224,16809"/>
 <path fill="none" stroke="rgb(179,179,179)" stroke-linejoin="round" d="M 1074,14635 L 1224,14635"/>
 <path fill="none" stroke="rgb(179,179,179)" stroke-linejoin="round" d="M 1074,14635 L 1224,14635"/>
 <path fill="none" stroke="rgb(179,179,179)" stroke-linejoin="round" d="M 1074,12463 L 1224,12463"/>
 <path fill="none" stroke="rgb(179,179,179)" stroke-linejoin="round" d="M 1074,12463 L 1224,12463"/>
 <path fill="none" stroke="rgb(179,179,179)" stroke-linejoin="round" d="M 1074,10289 L 1224,10289"/>
 <path fill="none" stroke="rgb(179,179,179)" stroke-linejoin="round" d="M 1074,10289 L 1224,10289"/>
 <path fill="none" stroke="rgb(179,179,179)" stroke-linejoin="round" d="M 1074,8115 L 1224,8115"/>
 <path fill="none" stroke="rgb(179,179,179)" stroke-linejoin="round" d="M 1074,8115 L 1224,8115"/>
 <path fill="none" stroke="rgb(179,179,179)" stroke-linejoin="round" d="M 1074,5942 L 1224,5942"/>
 <path fill="none" stroke="rgb(179,179,179)" stroke-linejoin="round" d="M 1074,5942 L 1224,5942"/>
 <path fill="none" stroke="rgb(179,179,179)" stroke-linejoin="round" d="M 1074,3768 L 1224,3768"/>
 <path fill="none" stroke="rgb(179,179,179)" stroke-linejoin="round" d="M 1074,3768 L 1224,3768"/>
 <path fill="none" stroke="rgb(179,179,179)" stroke-linejoin="round" d="M 1074,1595 L 1224,1595"/>
 <path fill="none" stroke="rgb(179,179,179)" stroke-linejoin="round" d="M 1074,1595 L 1224,1595"/>
 <path fill="none" stroke="rgb(179,179,179)" stroke-linejoin="round" d="M 1224,23330 L 1224,1595"/>
 <path fill="none" stroke="rgb(255,128,0)" stroke-width="80" stroke-linejoin="round" stroke-dasharray="80,40" d="M 1282,23121 L 1398,23073 1514,22999 1631,22935 1747,22867 1864,22789 1980,22676 2096,22497 2213,22397 2329,22181 2446,22057 2562,21947 2678,21750 2795,21326 2911,21028 3027,20435 3144,19936 3260,19631 3377,19438 3493,19202 3609,18888 3726,18545 3842,18115 3959,17893 4075,17630 4191,17327 4308,17147 4424,16842 4540,16548 4657,16320 4773,15984 4890,15835 5006,15792 5122,15068 5239,14931 5355,14697 5472,14559 5588,14306 5704,13855 5821,13594 5937,13504 6053,13387 6170,13017 6286,12830 6403,12731 6519,12601 6635,12430 6752,12425 6868,12322 6985,12289 7101,12250 7217,12170 7334,12091 7450,12058 7566,12186 7683,12068 7799,11969 7916,11851 8032,11784 8148,11686 8265,11595 8381,11627 8498,11600 8614,11559 8730,11506 8847,11478 8963,11394 9079,11329 9196,11333 9312,11305 9429,11261 9545,11171 9661,11125 9778,11053 9894,11027 10011,11041 10127,10994 10243,10972 10360,10966 10476,10942 10593,10910 10709,10886 10825,10876 10942,10888 11058,10866 11174,10839 11291,10825 11407,10792 11524,10767 11640,10747 11756,10719 11872,10699 11988,10682 12105,10658 12221,10641 12337,10627 12454,10620 12570,10599 12686,10566 12803,10546 12919,10546 13036,10546 13152,10455 13268,10425 13385,10431 13501,10406 13618,10376 13734,10344 13850,10319 13967,10316 14083,10302 14199,10280 14316,10244 14432,10211 14549,10144 14665,10130 14781,10141 14898,10124 15014,10100 15131,10053 15247,10018 15363,9929 15480,9929 15596,9913 15712,9886 15829,9756 15945,9673 16062,9596 16178,9596 16294,9464 16411,9406 16527,9275 16644,9202 16760,9081 16876,8897 16993,8789 17109,8644 17225,8569 17342,8324 17458,8082 17575,7815 17691,7583 17807,7421 17924,7252 18040,7143 18157,6962 18273,6656 18389,6380"/>
 <path fill="none" stroke="rgb(0,0,255)" stroke-width="80" stroke-linejoin="round" d="M 1282,23093 L 1398,22982 1514,22927 1631,22802 1747,22364 1864,21934 1980,21031 2096,19996 2213,18732 2329,17885 2446,17350 2562,15795 2678,14170 2795,13343 2911,12565 3027,11018 3144,10212 3260,9955 3377,8920 3493,7983 3609,6823 3726,8879 3842,8066 3959,7580 4075,7344 4191,6483 4308,6052 4424,5531 4540,4795 4657,4524 4773,4476 4890,4420 5006,4302 5122,4038 5239,3726 5355,3684 5472,3441 5588,3538 5704,3566 5821,3399 5937,3448 6053,3510 6170,19142 6286,19593 6403,19642 6519,19732 6635,19656 6752,19538 6868,19989 6985,19878 7101,20538 7217,20906 7334,21059 7450,21024 7566,21239 7683,21566 7799,21628 7916,21760 8032,21948 8148,22045 8265,22066 8381,22135 8498,22309 8614,22378 8730,22448 8847,22385 8963,22461 9079,22420 9196,22399 9312,22427 9429,22468 9545,22475 9661,22531 9778,22621 9894,22621 10011,22635 10127,22670 10243,22725 10360,22698 10476,22809 10593,22885 10709,22899 10825,22961 10942,23031 11058,23073 11174,23073 11291,23121 11407,23128 11524,23093 11640,23086 11756,23107 11872,23142 11988,23114 12105,23114 12221,23114 12337,23107 12454,23052 12570,23045 12686,23017 12803,23024 12919,22954 13036,22968 13152,22885 13268,22878 13385,22823 13501,22670 13618,22434 13734,22260 13850,22295 13967,22003 14083,21718 14199,21434 14316,21100 14432,20899 14549,20579 14665,20441 14781,20295 14898,19968 15014,19489 15131,19295 15247,18843 15363,18274 15480,18732 15596,18121 15712,18024 15829,17086 15945,16628 16062,16114 16178,15267 16294,15940 16411,15447 16527,14906 16644,14656 16760,14322 16876,13399 16993,12822 17109,13718 17225,13558 17342,13190 17458,13086 17575,13683 17691,13017 17807,12593 17924,14663 18040,14565 18157,14538 18273,14968 18389,15371"/>
 <path fill="none" stroke="rgb(0,0,255)" stroke-width="80" stroke-linejoin="round" stroke-dasharray="80,40" d="M 1282,23100 L 1398,23049 1514,23047 1631,22913 1747,22848 1864,22758 1980,22646 2096,22545 2213,22443 2329,22477 2446,22241 2562,22164 2678,22030 2795,21868 2911,21690 3027,21411 3144,21360 3260,21149 3377,20791 3493,20632 3609,20651 3726,20487 3842,20372 3959,20332 4075,20204 4191,20184 4308,20093 4424,20029 4540,19927 4657,19862 4773,18236 4890,18071 5006,17853 5122,17877 5239,17246 5355,17269 5472,17410 5588,17159 5704,17094 5821,17064 5937,17333 6053,17309 6170,17318 6286,17304 6403,17302 6519,17130 6635,17044 6752,17317 6868,17367 6985,17428 7101,17390 7217,17387 7334,17402 7450,17440 7566,17310 7683,17348 7799,17327 7916,17311 8032,17307 8148,17327 8265,17366 8381,17439 8498,17469 8614,17489 8730,17489 8847,17571 8963,17589 9079,17572 9196,17581 9312,17602 9429,17604 9545,17606 9661,17612 9778,17632 9894,17694 10011,17731 10127,17562 10243,17569 10360,17485 10476,17476 10593,17462 10709,17542 10825,17565 10942,17552 11058,17550 11174,17534 11291,17516 11407,17520 11524,17528 11640,17515 11756,17510 11872,17493 11988,17476 12105,17454 12221,17458 12337,17461 12454,17455 12570,17441 12686,17405 12803,17378 12919,17364 13036,17357 13152,17344 13268,17356 13385,17371 13501,17291 13618,17291 13734,17337 13850,17231 13967,17216 14083,17176 14199,17151 14316,17131 14432,17131 14549,17131 14665,17062 14781,17054 14898,17054 15014,17008 15131,16981 15247,16981 15363,16981 15480,16892 15596,16892 15712,16853 15829,16834 15945,16795 16062,16795 16178,16795 16294,16682 16411,16657 16527,16608 16644,16574 16760,16524 16876,16524 16993,16524 17109,16379 17225,16348 17342,16349 17458,16273 17575,16109 17691,16109 17807,16109 17924,16109 18040,15895 18157,15929 18273,15774 18389,15551"/>
 <path fill="none" stroke="rgb(255,0,0)" stroke-width="80" stroke-linejoin="round" stroke-dasharray="158,158" d="M 1282,23311 L 1398,23304 1514,23302 1631,23296 1747,23292 1864,23275 1980,23273 2096,23266 2213,23258 2329,23247 2446,23215 2562,23170 2678,23148 2795,23123 2911,23069 3027,23041 3144,22976 3260,22915 3377,22890 3493,22851 3609,22797 3726,22704 3842,22620 3959,22575 4075,22544 4191,22480 4308,22423 4424,22356 4540,22320 4657,22213 4773,22170 4890,22112 5006,22092 5122,22058 5239,21983 5355,21940 5472,21913 5588,21883 5704,21874 5821,21840 5937,21797 6053,21731 6170,21740 6286,21715 6403,21666 6519,21622 6635,21624 6752,21586 6868,21633 6985,21636 7101,21654 7217,21634 7334,21652 7450,21625 7566,21645 7683,21642 7799,21643 7916,21684 8032,21669 8148,21666 8265,21727 8381,21747 8498,21942 8614,21974 8730,21966 8847,22002 8963,21977 9079,21999 9196,22000 9312,22008 9429,22026 9545,22088 9661,22090 9778,22098 9894,22123 10011,22153 10127,22216 10243,22221 10360,22239 10476,22260 10593,22268 10709,22267 10825,22296 10942,22271 11058,22281 11174,22302 11291,22311 11407,22326 11524,22316 11640,22317 11756,22306 11872,22295 11988,22279 12105,22229 12221,22217 12337,22221 12454,22156 12570,22132 12686,22118 12803,22088 12919,22059 13036,22033 13152,22024 13268,22001 13385,22015 13501,21988 13618,21996 13734,21999 13850,21966 13967,21913 14083,21902 14199,21816 14316,21767 14432,21748 14549,21703 14665,21693 14781,21683 14898,21621 15014,21525 15131,21430 15247,21342 15363,21272 15480,21216 15596,21103 15712,21019 15829,20879 15945,20730 16062,20574 16178,20434 16294,20312 16411,20481 16527,20302 16644,20101 16760,19964 16876,19682 16993,19495 17109,19284 17225,19107 17342,18919 17458,18657 17575,18463 17691,18271 17807,18091 17924,17945 18040,17736 18157,17580 18273,17378 18389,17145"/>
 <path fill="none" stroke="rgb(128,0,128)" stroke-width="80" stroke-linejoin="round" stroke-dasharray="158,158" d="M 1282,23282 L 1398,23258 1514,23226 1631,23190 1747,23140 1864,23141 1980,22997 2096,22899 2213,22791 2329,22655 2446,22463 2562,22346 2678,22080 2795,21862 2911,21561 3027,21186 3144,20857 3260,20676 3377,20243 3493,19910 3609,19596 3726,19249 3842,18988 3959,18679 4075,18521 4191,18251 4308,17973 4424,17641 4540,17018 4657,16827 4773,16592 4890,16456 5006,16280 5122,16035 5239,15775 5355,15721 5472,15490 5588,15279 5704,15008 5821,14931 5937,14780 6053,14661 6170,14498 6286,14276 6403,14107 6519,14060 6635,13957 6752,13924 6868,13721 6985,13653 7101,13739 7217,13716 7334,13631 7450,13573 7566,13517 7683,13374 7799,13212 7916,13191 8032,13141 8148,13103 8265,13210 8381,13193 8498,13124 8614,13070 8730,13189 8847,13446 8963,14143 9079,14055 9196,13974 9312,13872 9429,14240 9545,14179 9661,18317 9778,18369 9894,18397 10011,18390 10127,18388 10243,18362 10360,18375 10476,18349 10593,18331 10709,18388 10825,18326 10942,18293 11058,18223 11174,18184 11291,18120 11407,18109 11524,18011 11640,18060 11756,18041 11872,18011 11988,17995 12105,17999 12221,17930 12337,17957 12454,17971 12570,17977 12686,18017 12803,18040 12919,18117 13036,18081 13152,18057 13268,18010 13385,18007 13501,17924 13618,17888 13734,17780 13850,17728 13967,17762 14083,17754 14199,17745 14316,17730 14432,17705 14549,17674 14665,17641 14781,17641 14898,17568 15014,17538 15131,17496 15247,17398 15363,17384 15480,17322 15596,17432 15712,17514 15829,17527 15945,17529 16062,17551 16178,17541 16294,17560 16411,17603 16527,17596 16644,17657 16760,17662 16876,17690 16993,17689 17109,17700 17225,17761 17342,17782 17458,17787 17575,17849 17691,17877 17807,17898 17924,17907 18040,17947 18157,17982 18273,18010 18389,17993"/>
 <path fill="none" stroke="rgb(0,169,51)" stroke-width="80" stroke-linejoin="round" stroke-dasharray="158,158" d="M 1282,23316 L 1398,23305 1514,23299 1631,23298 1747,23289 1864,23273 1980,23273 2096,23252 2213,23231 2329,23216 2446,23208 2562,23197 2678,23182 2795,23171 2911,23154 3027,23134 3144,23127 3260,23121 3377,23096 3493,23084 3609,23065 3726,23054 3842,23047 3959,23033 4075,23024 4191,23009 4308,23000 4424,22988 4540,22982 4657,22972 4773,22968 4890,22965 5006,22956 5122,22950 5239,22929 5355,22914 5472,22902 5588,22897 5704,22880 5821,22854 5937,22828 6053,22795 6170,22714 6286,22707 6403,22679 6519,22642 6635,22629 6752,22616 6868,22595 6985,22572 7101,22557 7217,22556 7334,22546 7450,22527 7566,22495 7683,22478 7799,22463 7916,22448 8032,22435 8148,22431 8265,22421 8381,22407 8498,22410 8614,22397 8730,22393 8847,22388 8963,22383 9079,22390 9196,22396 9312,22401 9429,22405 9545,22407 9661,22418 9778,22428 9894,22433 10011,22444 10127,22467 10243,22496 10360,22519 10476,22517 10593,22523 10709,22534 10825,22574 10942,22631 11058,22655 11174,22700 11291,22692 11407,22667 11524,22642 11640,22603 11756,22560 11872,22514 11988,22472 12105,22462 12221,22465 12337,22419 12454,22405 12570,22364 12686,22357 12803,22300 12919,22308 13036,22325 13152,22273 13268,22222 13385,22186 13501,22178 13618,22120 13734,22101 13850,22062 13967,22026 14083,21953 14199,21902 14316,21849 14432,21742 14549,21716 14665,21663 14781,21571 14898,21505 15014,21339 15131,21209 15247,21079 15363,21037 15480,21066 15596,21015 15712,20985 15829,20875 15945,20757 16062,20666 16178,20622 16294,20567 16411,20564 16527,20439 16644,20519 16760,20493 16876,20409 16993,20369 17109,20396 17225,20358 17342,20316 17458,20281 17575,20209 17691,20167 17807,20109 17924,20157 18040,20179 18157,20114 18273,20073 18389,20111"/>
 <path fill="none" stroke="rgb(255,191,0)" stroke-width="80" stroke-linejoin="round" d="M 1282,23272 L 1398,23253 1514,23227 1631,23210 1747,23170 1864,23142 1980,23049 2096,22993 2213,22928 2329,22878 2446,22831 2562,22769 2678,22665 2795,22556 2911,22412 3027,22270 3144,22197 3260,22131 3377,22018 3493,21946 3609,21808 3726,21720 3842,21570 3959,21534 4075,21453 4191,21398 4308,21308 4424,21236 4540,21191 4657,21182 4773,21142 4890,21139 5006,21175 5122,21206 5239,21181 5355,21218 5472,21219 5588,21193 5704,21240 5821,21268 5937,21326 6053,21371 6170,21426 6286,21429 6403,21446 6519,21545 6635,21572 6752,21607 6868,21652 6985,21655 7101,21686 7217,21728 7334,21803 7450,21855 7566,21906 7683,21953 7799,21953 7916,21961 8032,21962 8148,22037 8265,22092 8381,22139 8498,22186 8614,22221 8730,22218 8847,22227 8963,22255 9079,22266 9196,22279 9312,22306 9429,22324 9545,22302 9661,22289 9778,22313 9894,22330 10011,22356 10127,22371 10243,22365 10360,22369 10476,22359 10593,22380 10709,22374 10825,22370 10942,22372 11058,22387 11174,22374 11291,22351 11407,22365 11524,22367 11640,22362 11756,22371 11872,22358 11988,22337 12105,22327 12221,22340 12337,22346 12454,22343 12570,22312 12686,22275 12803,22260 12919,22248 13036,22254 13152,22211 13268,22174 13385,22162 13501,22103 13618,22003 13734,21888 13850,21823 13967,21773 14083,21746 14199,21705 14316,21658 14432,21610 14549,21583 14665,21567 14781,21534 14898,21522 15014,21528 15131,21527 15247,21488 15363,21472 15480,21498 15596,21485 15712,21457 15829,21455 15945,21438 16062,21396 16178,21371 16294,21339 16411,21281 16527,21275 16644,21256 16760,21182 16876,21197 16993,21899 17109,21821 17225,21707 17342,21588 17458,21499 17575,21453 17691,21410 17807,21377 17924,21335 18040,21263 18157,21206 18273,21291 18389,21331"/>
 <path fill="none" stroke="rgb(191,0,65)" stroke-width="80" stroke-linejoin="round" stroke-dasharray="51,127,51,127,254,127,254,127,254,127" d="M 1282,23302 L 1398,23291 1514,23281 1631,23272 1747,23259 1864,23247 1980,23226 2096,23208 2213,23182 2329,23161 2446,23134 2562,23104 2678,23070 2795,23033 2911,22985 3027,22940 3144,22895 3260,22859 3377,22817 3493,22777 3609,22725 3726,22664 3842,22612 3959,22570 4075,22538 4191,22490 4308,22444 4424,22400 4540,22357 4657,22314 4773,22287 4890,22265 5006,22250 5122,22235 5239,22203 5355,22177 5472,22155 5588,22122 5704,22115 5821,22106 5937,22100 6053,22082 6170,22086 6286,22079 6403,22064 6519,22060 6635,22066 6752,22067 6868,22088 6985,22091 7101,22100 7217,22094 7334,22098 7450,22097 7566,22116 7683,22124 7799,22149 7916,22162 8032,22154 8148,22154 8265,22172 8381,22189 8498,22236 8614,22246 8730,22249 8847,22257 8963,22293 9079,22297 9196,22294 9312,22316 9429,22320 9545,22332 9661,22325 9778,22322 9894,22350 10011,22357 10127,22381 10243,22379 10360,22387 10476,22392 10593,22388 10709,22392 10825,22402 10942,22397 11058,22399 11174,22391 11291,22375 11407,22359 11524,22350 11640,22346 11756,22340 11872,22325 11988,22314 12105,22293 12221,22283 12337,22280 12454,22259 12570,22255 12686,22252 12803,22248 12919,22251 13036,22251 13152,22249 13268,22249 13385,22254 13501,22255 13618,22256 13734,22258 13850,22246 13967,22234 14083,22229 14199,22204 14316,22192 14432,22180 14549,22181 14665,22173 14781,22162 14898,22158 15014,22140 15131,22125 15247,22105 15363,22095 15480,22091 15596,22066 15712,22063 15829,22035 15945,22008 16062,21971 16178,21938 16294,21911 16411,21930 16527,21886 16644,21850 16760,21817 16876,21758 16993,21786 17109,21735 17225,21677 17342,21610 17458,21537 17575,21476 17691,21419 17807,21367 17924,21323 18040,21258 18157,21201 18273,21153 18389,21095"/>
 <path fill="none" stroke="rgb(0,0,0)" stroke-width="80" stroke-linejoin="round" stroke-dasharray="158,158" d="M 1282,23221 L 1398,23162 1514,23133 1631,23054 1747,22975 1864,22975 1980,22827 2096,22719 2213,22630 2329,22463 2446,22296 2562,22266 2678,22079 2795,22030 2911,21981 3027,21882 3144,21863 3260,21813 3377,21685 3493,21498 3609,21419 3726,21360 3842,21252 3959,21144 4075,21006 4191,20494 4308,20553 4424,20189 4540,20061 4657,19874 4773,20071 4890,20012 5006,19923 5122,19864 5239,20110 5355,20100 5472,20140 5588,20317 5704,20356 5821,20474 5937,20612 6053,20986 6170,21154 6286,21410 6403,21735 6519,21754 6635,21843 6752,22148 6868,22246 6985,22542 7101,22493 7217,22532 7334,22571 7450,22601 7566,22621 7683,22660 7799,22690 7916,22758 8032,22758 8148,22699 8265,22670 8381,22680 8498,22611 8614,22660 8730,22443 8847,22414 8963,22384 9079,22315 9196,22217 9312,22099 9429,22099 9545,22050 9661,22069 9778,22148 9894,22148 10011,22207 10127,22266 10243,22414 10360,22502 10476,22591 10593,22611 10709,22768 10825,22827 10942,22965 11058,23005 11174,23113 11291,23093 11407,23083 11524,23074 11640,23044 11756,23024 11872,22975 11988,22975 12105,22965 12221,22955 12337,22946 12454,22906 12570,22896 12686,22926 12803,22946 12919,22936 13036,22946 13152,22955 13268,23014 13385,23014 13501,23044 13618,23074 13734,23083 13850,23113 13967,23123 14083,23182 14199,23202 14316,23202 14432,23211 14549,23221 14665,23221 14781,23221 14898,23231 15014,23241 15131,23261 15247,23261 15363,23280 15480,23280 15596,23280 15712,23290 15829,23290 15945,23300 16062,23290 16178,23270 16294,23290 16411,23290 16527,23280 16644,23270 16760,23211 16876,23211 16993,23074 17109,23064 17225,22995 17342,22877 17458,21951 17575,21853 17691,21646 17807,21508 17924,21370 18040,21213 18157,20878 18273,20701 18389,20268"/>
 <path fill="none" stroke="rgb(180,120,4)" stroke-width="80" stroke-linejoin="round" stroke-dasharray="80,40" d="M 1282,23251 L 1398,23239 1514,23196 1631,23196 1747,23174 1864,23161 1980,23161 2096,23133 2213,23122 2329,23083 2446,23055 2562,23040 2678,23011 2795,22983 2911,22960 3027,22922 3144,22885 3260,22864 3377,22824 3493,22782 3609,22733 3726,22716 3842,22693 3959,22669 4075,22743 4191,22711 4308,22691 4424,22663 4540,22641 4657,22613 4773,22601 4890,22588 5006,22579 5122,22570 5239,22565 5355,22559 5472,22555 5588,22557 5704,22554 5821,22619 5937,22616 6053,22595 6170,22586 6286,22579 6403,22576 6519,22570 6635,22557 6752,22554 6868,22880 6985,22872 7101,22869 7217,22867 7334,22866 7450,22862 7566,22853 7683,22847 7799,22843 7916,22835 8032,22833 8148,22829 8265,22822 8381,22816 8498,22812 8614,22797 8730,22794 8847,22789 8963,22789 9079,22787 9196,22783 9312,22783 9429,22774 9545,22774 9661,22774 9778,22772 9894,22769 10011,22764 10127,22764 10243,22762 10360,22760 10476,22759 10593,22760 10709,22752 10825,22752 10942,22746 11058,22740 11174,22735 11291,22728 11407,22707 11524,22703 11640,22699 11756,22691 11872,22683 11988,22681 12105,22677 12221,22672 12337,22667 12454,22645 12570,22635 12686,22631 12803,22624 12919,22620 13036,22611 13152,22605 13268,22601 13385,22597 13501,22588 13618,22578 13734,22574 13850,22568 13967,22561 14083,22551 14199,22540 14316,22529 14432,22518 14549,22515 14665,22497 14781,22486 14898,22472 15014,22452 15131,22427 15247,22410 15363,22397 15480,22387 15596,22364 15712,22352 15829,22340 15945,22330 16062,22322 16178,22312 16294,22311 16411,22296 16527,22286 16644,22272 16760,22262 16876,22249 16993,22238 17109,22224 17225,22203 17342,22179 17458,22152 17575,22121 17691,22075 17807,22045 17924,22014 18040,21965 18157,21916 18273,21853 18389,21792"/>
 <path fill="none" stroke="rgb(0,169,51)" stroke-width="80" stroke-linejoin="round" stroke-dasharray="80,40" d="M 1282,23322 L 1398,23318 1514,23316 1631,23311 1747,23304 1864,23303 1980,23289 2096,23281 2213,23269 2329,23258 2446,23245 2562,23227 2678,23211 2795,23192 2911,23173 3027,23144 3144,23119 3260,23098 3377,23069 3493,23046 3609,23004 3726,22956 3842,22935 3959,22885 4075,22854 4191,22809 4308,22775 4424,22742 4540,22703 4657,22666 4773,22640 4890,22617 5006,22603 5122,22568 5239,22545 5355,22505 5472,22478 5588,22424 5704,22401 5821,22392 5937,22384 6053,22374 6170,22358 6286,22339 6403,22317 6519,22310 6635,22300 6752,22297 6868,22296 6985,22300 7101,22302 7217,22288 7334,22271 7450,22246 7566,22255 7683,22246 7799,22249 7916,22246 8032,22239 8148,22215 8265,22186 8381,22189 8498,22177 8614,22159 8730,22162 8847,22163 8963,22144 9079,22133 9196,22113 9312,22098 9429,22077 9545,22070 9661,22050 9778,22026 9894,22063 10011,22053 10127,22040 10243,22019 10360,22009 10476,22014 10593,21992 10709,22000 10825,22002 10942,21985 11058,21967 11174,21929 11291,21888 11407,21837 11524,21815 11640,21810 11756,21803 11872,21773 11988,21759 12105,21731 12221,21704 12337,21691 12454,21665 12570,21678 12686,21689 12803,21711 12919,21734 13036,21745 13152,21770 13268,21803 13385,21830 13501,21865 13618,21916 13734,21960 13850,21973 13967,21991 14083,22008 14199,22015 14316,22038 14432,22057 14549,22102 14665,22104 14781,22107 14898,22150 15014,22190 15131,22226 15247,22259 15363,22276 15480,22284 15596,22283 15712,22338 15829,22351 15945,22377 16062,22387 16178,22389 16294,22386 16411,22368 16527,22367 16644,22366 16760,22366 16876,22349 16993,22337 17109,22311 17225,22275 17342,22235 17458,22218 17575,22183 17691,22152 17807,22129 17924,22083 18040,22025 18157,21984 18273,21940 18389,21894"/>
 <path fill="none" stroke="rgb(241,13,12)" stroke-width="80" stroke-linejoin="round" stroke-dasharray="80,40" d="M 1282,23279 L 1398,23236 1514,23236 1631,23211 1747,23164 1864,23153 1980,23088 2096,23088 2213,23027 2329,23002 2446,22926 2562,22905 2678,22876 2795,22829 2911,22818 3027,22757 3144,22631 3260,22606 3377,22498 3493,22311 3609,22185 3726,22044 3842,21954 3959,21889 4075,21850 4191,21752 4308,21655 4424,21526 4540,21432 4657,21367 4773,21324 4890,21223 5006,21104 5122,21032 5239,21004 5355,20950 5472,20917 5588,20903 5704,20885 5821,20903 5937,20885 6053,20867 6170,20838 6286,20996 6403,20971 6519,20957 6635,20903 6752,20881 6868,21389 6985,21364 7101,21338 7217,21310 7334,21302 7450,21288 7566,21270 7683,21623 7799,21616 7916,21616 8032,21598 8148,21587 8265,21752 8381,21749 8498,21857 8614,21846 8730,21954 8847,21947 8963,21943 9079,21940 9196,21929 9312,22087 9429,22073 9545,22192 9661,22163 9778,22156 9894,22149 10011,22149 10127,22825 10243,22822 10360,22836 10476,22836 10593,22818 10709,22807 10825,22786 10942,22786 11058,22840 11174,22843 11291,22829 11407,22807 11524,22800 11640,22793 11756,22789 11872,22771 11988,22771 12105,22761 12221,22753 12337,22786 12454,22786 12570,22797 12686,22797 12803,22818 12919,22815 13036,22807 13152,22800 13268,22797 13385,22793 13501,22793 13618,22786 13734,22818 13850,22811 13967,22804 14083,22800 14199,22800 14316,22822 14432,22811 14549,22807 14665,22804 14781,22800 14898,22789 15014,22782 15131,22771 15247,22768 15363,22743 15480,22739 15596,22735 15712,22728 15829,22728 15945,22721 16062,22707 16178,22703 16294,22710 16411,22703 16527,22703 16644,22685 16760,22678 16876,22674 16993,22660 17109,22649 17225,22624 17342,22577 17458,22541 17575,22455 17691,22419 17807,22339 17924,22321 18040,22231 18157,22177 18273,22131 18389,22080"/>
 <path fill="none" stroke="rgb(129,212,26)" stroke-width="80" stroke-linejoin="round" stroke-dasharray="80,40" d="M 1282,23251 L 1398,23218 1514,23218 1631,23182 1747,23139 1864,23079 1980,22846 2096,22735 2213,22645 2329,22540 2446,22349 2562,22170 2678,21965 2795,21749 2911,21486 3027,21239 3144,21072 3260,20819 3377,20548 3493,20374 3609,20032 3726,19678 3842,19419 3959,19094 4075,18782 4191,18510 4308,18211 4424,17795 4540,16483 4657,15773 4773,15145 4890,14299 5006,13603 5122,12742 5239,12142 5355,11557 5472,10908 5588,10508 5704,10223 5821,17979 5937,17458 6053,16656 6170,16342 6286,16053 6403,15457 6519,15130 6635,14979 6752,18332 6868,18052 6985,17887 7101,17603 7217,17328 7334,17108 7450,16940 7566,20017 7683,19921 7799,19806 7916,19628 8032,19431 8148,19317 8265,19241 8381,21187 8498,20819 8614,20716 8730,20649 8847,20601 8963,20527 9079,20495 9196,21847 9312,21791 9429,21697 9545,21641 9661,21594 9778,21541 9894,21516 10011,22376 10127,22350 10243,22324 10360,22283 10476,22230 10593,22165 10709,22168 10825,22666 10942,22643 11058,22630 11174,22619 11291,22604 11407,22602 11524,22602 11640,22592 11756,22593 11872,22584 11988,22544 12105,22538 12221,22522 12337,22513 12454,22508 12570,22499 12686,22488 12803,22483 12919,22479 13036,22477 13152,22473 13268,23060 13385,23053 13501,23048 13618,23031 13734,23030 13850,23010 13967,23001 14083,22999 14199,22989 14316,22983 14432,22974 14549,22958 14665,22954 14781,22949 14898,22942 15014,22926 15131,22906 15247,22888 15363,22873 15480,22865 15596,22836 15712,22827 15829,22814 15945,22789 16062,22772 16178,22763 16294,22758 16411,22726 16527,22712 16644,22714 16760,22697 16876,22677 16993,22667 17109,22657 17225,22624 17342,22613 17458,22537 17575,22504 17691,22465 17807,22418 17924,22378 18040,22338 18157,22294 18273,22238 18389,22155"/>
 <path fill="none" stroke="rgb(131,202,255)" stroke-width="80" stroke-linejoin="round" d="M 1282,22254 L 1398,22053 1514,21848 1631,21671 1747,21456 1864,21265 1980,20943 2096,20558 2213,20261 2329,19976 2446,19675 2562,19445 2678,19194 2795,18871 2911,18554 3027,18292 3144,18018 3260,17899 3377,17748 3493,17536 3609,17358 3726,17190 3842,16983 3959,16769 4075,16629 4191,16566 4308,16480 4424,16364 4540,16264 4657,16120 4773,15978 4890,15880 5006,15831 5122,15750 5239,15664 5355,15639 5472,15581 5588,15546 5704,15547 5821,15585 5937,15586 6053,15647 6170,15670 6286,15719 6403,15701 6519,15722 6635,15765 6752,15805 6868,16028 6985,16072 7101,16089 7217,16127 7334,16141 7450,16250 7566,16749 7683,16886 7799,17005 7916,17229 8032,17339 8148,17399 8265,17486 8381,17688 8498,17833 8614,18148 8730,18283 8847,18415 8963,18544 9079,18647 9196,18818 9312,18946 9429,19064 9545,19177 9661,19260 9778,19353 9894,19523 10011,19665 10127,19879 10243,20010 10360,20188 10476,20304 10593,20355 10709,20461 10825,20504 10942,20566 11058,20671 11174,20750 11291,20794 11407,20832 11524,20966 11640,21050 11756,21127 11872,21245 11988,21353 12105,21440 12221,21467 12337,21563 12454,21609 12570,21669 12686,21781 12803,21804 12919,21822 13036,21846 13152,21922 13268,21988 13385,22014 13501,22061 13618,22119 13734,22130 13850,22143 13967,22211 14083,22233 14199,22247 14316,22259 14432,22278 14549,22277 14665,22272 14781,22306 14898,22352 15014,22362 15131,22364 15247,22373 15363,22382 15480,22384 15596,22401 15712,22431 15829,22433 15945,22434 16062,22440 16178,22435 16294,22438 16411,22449 16527,22444 16644,22438 16760,22445 16876,22435 16993,22426 17109,22425 17225,22423 17342,22422 17458,22450 17575,22436 17691,22434 17807,22434 17924,22433 18040,22432 18157,22420 18273,22417 18389,22400"/>
 <path fill="none" stroke="rgb(131,202,255)" stroke-width="80" stroke-linejoin="round" stroke-dasharray="80,40" d="M 1282,23297 L 1398,23290 1514,23279 1631,23271 1747,23265 1864,23248 1980,23225 2096,23200 2213,23118 2329,23067 2446,23002 2562,22931 2678,22886 2795,22832 2911,22751 3027,22687 3144,22636 3260,22570 3377,22489 3493,22393 3609,22360 3726,22293 3842,22276 3959,22226 4075,22190 4191,22168 4308,22117 4424,22093 4540,22013 4657,22069 4773,22055 4890,22032 5006,21997 5122,22022 5239,22030 5355,22082 5472,22082 5588,22149 5704,22204 5821,22208 5937,22236 6053,22220 6170,22296 6286,22347 6403,22406 6519,22468 6635,22533 6752,22581 6868,22632 6985,22706 7101,22749 7217,22770 7334,22801 7450,22833 7566,22871 7683,22908 7799,22921 7916,22945 8032,22977 8148,22990 8265,23003 8381,23028 8498,23036 8614,23056 8730,23101 8847,23123 8963,23131 9079,23151 9196,23160 9312,23158 9429,23189 9545,23201 9661,23205 9778,23214 9894,23227 10011,23228 10127,23232 10243,23242 10360,23245 10476,23254 10593,23260 10709,23271 10825,23279 10942,23288 11058,23297 11174,23306 11291,23311 11407,23314 11524,23318 11640,23316 11756,23318 11872,23320 11988,23319 12105,23318 12221,23322 12337,23321 12454,23319 12570,23308 12686,23297 12803,23277 12919,23257 13036,23237 13152,23206 13268,23185 13385,23089 13501,23031 13618,22943 13734,22872 13850,22839 13967,22784 14083,22728 14199,22644 14316,22559 14432,22484 14549,22438 14665,22380 14781,22345 14898,22340 15014,22294 15131,22230 15247,22177 15363,22147 15480,22120 15596,22113 15712,22055 15829,22069 15945,22067 16062,22055 16178,22051 16294,22115 16411,22148 16527,22136 16644,22152 16760,22237 16876,22397 16993,22424 17109,22476 17225,22536 17342,22532 17458,22536 17575,22560 17691,22548 17807,22548 17924,22585 18040,22644 18157,22659 18273,22735 18389,22744"/>
 <path fill="none" stroke="rgb(0,169,51)" stroke-width="80" stroke-linejoin="round" d="M 1282,23090 L 1398,23017 1514,22918 1631,22842 1747,22689 1864,22541 1980,22365 2096,22184 2213,21979 2329,21613 2446,21184 2562,20797 2678,20651 2795,20072 2911,19770 3027,19479 3144,19360 3260,19046 3377,19006 3493,18923 3609,18878 3726,18824 3842,18943 3959,19058 4075,19172 4191,19299 4308,19392 4424,19609 4540,19868 4657,20016 4773,20140 4890,20274 5006,20333 5122,20508 5239,20877 5355,21177 5472,21392 5588,21497 5704,21546 5821,21683 5937,21839 6053,21985 6170,22041 6286,22118 6403,22171 6519,22189 6635,22264 6752,22343 6868,22383 6985,22445 7101,22469 7217,22475 7334,22507 7450,22566 7566,22636 7683,22632 7799,22690 7916,22707 8032,22720 8148,22750 8265,22755 8381,22814 8498,22834 8614,22842 8730,22824 8847,22823 8963,22834 9079,22842 9196,22925 9312,22934 9429,22945 9545,22939 9661,22943 9778,22963 9894,22976 10011,22983 10127,23004 10243,23021 10360,23090 10476,23103 10593,23103 10709,23107 10825,23122 10942,23128 11058,23122 11174,23119 11291,23119 11407,23109 11524,23121 11640,23126 11756,23131 11872,23134 11988,23142 12105,23149 12221,23141 12337,23127 12454,23128 12570,23120 12686,23116 12803,23107 12919,23110 13036,23113 13152,23110 13268,23101 13385,23108 13501,23100 13618,23084 13734,23064 13850,23040 13967,23048 14083,23003 14199,22981 14316,22950 14432,22918 14549,22867 14665,22841 14781,22833 14898,22805 15014,22774 15131,22753 15247,22744 15363,22732 15480,22731 15596,22731 15712,22717 15829,22695 15945,22657 16062,22673 16178,22680 16294,22667 16411,22653 16527,22669 16644,22632 16760,22624 16876,22605 16993,22581 17109,22558 17225,22564 17342,22554 17458,22553 17575,22531 17691,22565 17807,22556 17924,22555 18040,22641 18157,22662 18273,22663 18389,22641"/>
 <path fill="none" stroke="rgb(128,0,128)" stroke-width="80" stroke-linejoin="round" stroke-dasharray="80,40" d="M 1282,23320 L 1398,23317 1514,23312 1631,23304 1747,23291 1864,23288 1980,23274 2096,23253 2213,23200 2329,23104 2446,23047 2562,23001 2678,22900 2795,22860 2911,22767 3027,22713 3144,22608 3260,22568 3377,22496 3493,22426 3609,22319 3726,22244 3842,22127 3959,22066 4075,22020 4191,21961 4308,21910 4424,21843 4540,21856 4657,21814 4773,21840 4890,21833 5006,21828 5122,21856 5239,21864 5355,21883 5472,21768 5588,21699 5704,21658 5821,21710 5937,21773 6053,21798 6170,21828 6286,21852 6403,21844 6519,21838 6635,22109 6752,22105 6868,22130 6985,22116 7101,22167 7217,22165 7334,22156 7450,22213 7566,22272 7683,22300 7799,22336 7916,22424 8032,22370 8148,22368 8265,22386 8381,22462 8498,22494 8614,22525 8730,22545 8847,22550 8963,22545 9079,22568 9196,22582 9312,22558 9429,22640 9545,22662 9661,22656 9778,22636 9894,22676 10011,22696 10127,22699 10243,22726 10360,22737 10476,22740 10593,22735 10709,22751 10825,22766 10942,22782 11058,22817 11174,22830 11291,22826 11407,22822 11524,22823 11640,22866 11756,22841 11872,22879 11988,22895 12105,22905 12221,22902 12337,22916 12454,22922 12570,22916 12686,22924 12803,22932 12919,22935 13036,22930 13152,22941 13268,22943 13385,22956 13501,22964 13618,22959 13734,22956 13850,22969 13967,22972 14083,22985 14199,22993 14316,22994 14432,22999 14549,22991 14665,22986 14781,22981 14898,22973 15014,22988 15131,22989 15247,22999 15363,22980 15480,22972 15596,22970 15712,22977 15829,22962 15945,22956 16062,22954 16178,22927 16294,22905 16411,22902 16527,22908 16644,22900 16760,22866 16876,22842 16993,22831 17109,22820 17225,22812 17342,22818 17458,22788 17575,22769 17691,22740 17807,22713 17924,22699 18040,22675 18157,22665 18273,22636 18389,22603"/>
 <path fill="none" stroke="rgb(131,202,255)" stroke-width="80" stroke-linejoin="round" stroke-dasharray="158,158" d="M 1282,23035 L 1398,22953 1514,22874 1631,22803 1747,22757 1864,22757 1980,22734 2096,22619 2213,22531 2329,22468 2446,22412 2562,22334 2678,22257 2795,22188 2911,22048 3027,21939 3144,21847 3260,21793 3377,21705 3493,21623 3609,21636 3726,21565 3842,21498 3959,21468 4075,21471 4191,21404 4308,21383 4424,21337 4540,21284 4657,21259 4773,21234 4890,21228 5006,21213 5122,21192 5239,21169 5355,21105 5472,21119 5588,21105 5704,21103 5821,21092 5937,21094 6053,21080 6170,21067 6286,21054 6403,21044 6519,21034 6635,21031 6752,21031 6868,21019 6985,21011 7101,21017 7217,21025 7334,21027 7450,21023 7566,21023 7683,21023 7799,21034 7916,21034 8032,21031 8148,21025 8265,21029 8381,21029 8498,21042 8614,21046 8730,21050 8847,21052 8963,23273 9079,23277 9196,23281 9312,23283 9429,23283 9545,23283 9661,23286 9778,23296 9894,23298 10011,23311 10127,23311 10243,23313 10360,23313 10476,23315 10593,23317 10709,23313 10825,23309 10942,23311 11058,23306 11174,23296 11291,23294 11407,23294 11524,23292 11640,23288 11756,23288 11872,23283 11988,23279 12105,23273 12221,23271 12337,23265 12454,23256 12570,23240 12686,23235 12803,23223 12919,23256 13036,23254 13152,23227 13268,23212 13385,23200 13501,23177 13618,23148 13734,23150 13850,23141 13967,23110 14083,23083 14199,23039 14316,23005 14432,22945 14549,22901 14665,22867 14781,22901 14898,22863 15014,22836 15131,22800 15247,22729 15363,22784 15480,22775 15596,22786 15712,22773 15829,22777 15945,22738 16062,22784 16178,22773 16294,22834 16411,22832 16527,22821 16644,22792 16760,22788 16876,22761 16993,22727 17109,22832 17225,22823 17342,22834 17458,22823 17575,22828 17691,22846 17807,22840 17924,22853 18040,22884 18157,22911 18273,22934 18389,22951"/>
 <path fill="none" stroke="rgb(52,42,6)" stroke-width="80" stroke-linejoin="round" d="M 1282,23142 L 1398,23094 1514,23032 1631,22957 1747,22854 1864,22697 1980,22543 2096,22312 2213,22193 2329,22058 2446,21842 2562,21794 2678,21588 2795,21358 2911,21053 3027,20798 3144,20613 3260,20593 3377,20479 3493,20307 3609,20152 3726,19941 3842,19788 3959,19706 4075,19549 4191,19720 4308,19975 4424,20052 4540,19931 4657,19969 4773,19981 4890,20083 5006,20223 5122,20302 5239,20390 5355,20531 5472,20554 5588,20600 5704,20699 5821,20836 5937,20944 6053,21033 6170,21283 6286,21211 6403,21265 6519,21351 6635,21451 6752,21531 6868,21623 6985,21750 7101,21817 7217,21866 7334,21957 7450,22037 7566,22241 7683,22274 7799,22220 7916,22267 8032,22296 8148,22328 8265,22383 8381,22420 8498,22484 8614,22513 8730,22540 8847,22583 8963,22629 9079,22602 9196,22636 9312,22669 9429,22685 9545,22706 9661,22719 9778,22754 9894,22766 10011,22796 10127,22792 10243,22802 10360,22824 10476,22836 10593,22841 10709,22878 10825,22911 10942,22918 11058,22926 11174,22924 11291,22923 11407,22922 11524,22933 11640,22959 11756,22968 11872,22971 11988,22992 12105,22986 12221,23009 12337,22988 12454,23010 12570,22961 12686,22943 12803,22958 12919,22933 13036,22929 13152,22928 13268,22939 13385,22932 13501,22918 13618,22916 13734,22911 13850,22899 13967,22897 14083,22925 14199,22937 14316,22942 14432,22957 14549,22978 14665,22972 14781,22984 14898,22992 15014,23007 15131,23006 15247,22999 15363,22996 15480,23018 15596,23004 15712,23028 15829,23020 15945,23015 16062,23011 16178,23006 16294,23010 16411,22998 16527,22990 16644,22985 16760,22976 16876,22954 16993,22941 17109,22931 17225,22921 17342,22908 17458,22871 17575,22849 17691,22851 17807,22854 17924,22844 18040,22837 18157,22792 18273,22781 18389,22755"/>
 <path fill="none" stroke="rgb(180,120,4)" stroke-width="80" stroke-linejoin="round" d="M 1282,22738 L 1398,22715 1514,22687 1631,22645 1747,22578 1864,22511 1980,22432 2096,22351 2213,22293 2329,22224 2446,22189 2562,22113 2678,22012 2795,21905 2911,21788 3027,21675 3144,21546 3260,21409 3377,21213 3493,21697 3609,21650 3726,21472 3842,21318 3959,21153 4075,20972 4191,20792 4308,20664 4424,20595 4540,20501 4657,20514 4773,20525 4890,20510 5006,20589 5122,20645 5239,20713 5355,20852 5472,21074 5588,21194 5704,21230 5821,21389 5937,21525 6053,21631 6170,21642 6286,21585 6403,21592 6519,21619 6635,21633 6752,21704 6868,21735 6985,21763 7101,21821 7217,21816 7334,21788 7450,21838 7566,21899 7683,21959 7799,22026 7916,22076 8032,22089 8148,22112 8265,22236 8381,22245 8498,22319 8614,22375 8730,22439 8847,22480 8963,22505 9079,22536 9196,22573 9312,22609 9429,22662 9545,22672 9661,22667 9778,22695 9894,22724 10011,22732 10127,22765 10243,22749 10360,22786 10476,22788 10593,22804 10709,22838 10825,22857 10942,22881 11058,22861 11174,22875 11291,22884 11407,22904 11524,22917 11640,22947 11756,22971 11872,22952 11988,22956 12105,22940 12221,22940 12337,22941 12454,22953 12570,22959 12686,22954 12803,22954 12919,22954 13036,22903 13152,22913 13268,22895 13385,22907 13501,22915 13618,22915 13734,22915 13850,22936 13967,22951 14083,22965 14199,23005 14316,23028 14432,23028 14549,23027 14665,23081 14781,23111 14898,23116 15014,23136 15131,23138 15247,23138 15363,23138 15480,23111 15596,23115 15712,23108 15829,23094 15945,23069 16062,23069 16178,23067 16294,23032 16411,23010 16527,22985 16644,22974 16760,22970 16876,22969 16993,22953 17109,22929 17225,22927 17342,22911 17458,22871 17575,22863 17691,22863 17807,22865 17924,22790 18040,22756 18157,22691 18273,22610 18389,22531"/>
 <path fill="none" stroke="rgb(0,0,255)" stroke-width="80" stroke-linejoin="round" stroke-dasharray="158,158" d="M 1282,23304 L 1398,23294 1514,23287 1631,23279 1747,23272 1864,23247 1980,23232 2096,23221 2213,23189 2329,23188 2446,23187 2562,23173 2678,23163 2795,23151 2911,23117 3027,23099 3144,23081 3260,23068 3377,23043 3493,23014 3609,22995 3726,22980 3842,22963 3959,22952 4075,22912 4191,22879 4308,22801 4424,22791 4540,22780 4657,22770 4773,22759 4890,22804 5006,22756 5122,22767 5239,22691 5355,22641 5472,22641 5588,22597 5704,22606 5821,22591 5937,22576 6053,22516 6170,22543 6286,22557 6403,22560 6519,22565 6635,22580 6752,22625 6868,22653 6985,22675 7101,22712 7217,22720 7334,22736 7450,22808 7566,22818 7683,22841 7799,22912 7916,22923 8032,22939 8148,22954 8265,22967 8381,23025 8498,23060 8614,23073 8730,23079 8847,23088 8963,23105 9079,23111 9196,23141 9312,23147 9429,23155 9545,23173 9661,23186 9778,23189 9894,23200 10011,23202 10127,23202 10243,23207 10360,23220 10476,23228 10593,23229 10709,23232 10825,23232 10942,23232 11058,23235 11174,23233 11291,23241 11407,23245 11524,23249 11640,23249 11756,23247 11872,23246 11988,23244 12105,23242 12221,23239 12337,23251 12454,23253 12570,23257 12686,23249 12803,23241 12919,23240 13036,23240 13152,23240 13268,23225 13385,23210 13501,23202 13618,23191 13734,23190 13850,23192 13967,23190 14083,23176 14199,23165 14316,23150 14432,23126 14549,23115 14665,23114 14781,23118 14898,23093 15014,23054 15131,23042 15247,23033 15363,23027 15480,23026 15596,23021 15712,23017 15829,23004 15945,23000 16062,22991 16178,22994 16294,23000 16411,22967 16527,22952 16644,22927 16760,22921 16876,22903 16993,22872 17109,22902 17225,22906 17342,22886 17458,22882 17575,22877 17691,22879 17807,22873 17924,22868 18040,22877 18157,22843 18273,22830 18389,22815"/>
 <path fill="none" stroke="rgb(255,191,0)" stroke-width="80" stroke-linejoin="round" stroke-dasharray="158,158" d="M 1282,23293 L 1398,23272 1514,23263 1631,23253 1747,23219 1864,23168 1980,23134 2096,23076 2213,23046 2329,23011 2446,22917 2562,22878 2678,22822 2795,22769 2911,22686 3027,22629 3144,22532 3260,22465 3377,22415 3493,22304 3609,22345 3726,22198 3842,22161 3959,22106 4075,22120 4191,22108 4308,22041 4424,22016 4540,21963 4657,21921 4773,21878 4890,21868 5006,21864 5122,21907 5239,21917 5355,21972 5472,21903 5588,21868 5704,21841 5821,21933 5937,21907 6053,21868 6170,22166 6286,22120 6403,22101 6519,22090 6635,22048 6752,22209 6868,22189 6985,22163 7101,22161 7217,22143 7334,22103 7450,22106 7566,22364 7683,22345 7799,22302 7916,22297 8032,22276 8148,22260 8265,22627 8381,22627 8498,22601 8614,22663 8730,22601 8847,22576 8963,22574 9079,22645 9196,22636 9312,22617 9429,22647 9545,22610 9661,22608 9778,22604 9894,22661 10011,22654 10127,22647 10243,22650 10360,22647 10476,22645 10593,22645 10709,22668 10825,22650 10942,22645 11058,22686 11174,22684 11291,22680 11407,22682 11524,22710 11640,22703 11756,22753 11872,22751 11988,22813 12105,22813 12221,22813 12337,22880 12454,22871 12570,22926 12686,22922 12803,22919 12919,22919 13036,22919 13152,22919 13268,22919 13385,22919 13501,22984 13618,22977 13734,22975 13850,22972 13967,23067 14083,23060 14199,23090 14316,23111 14432,23115 14549,23113 14665,23106 14781,23108 14898,23092 15014,23088 15131,23062 15247,23044 15363,23044 15480,23044 15596,23051 15712,23041 15829,23039 15945,23025 16062,23016 16178,23009 16294,23009 16411,23060 16527,23051 16644,23037 16760,23032 16876,23030 16993,23000 17109,23000 17225,23014 17342,23005 17458,22995 17575,22991 17691,22975 17807,22963 17924,22956 18040,22991 18157,22972 18273,22931 18389,22917"/>
 <path fill="none" stroke="rgb(85,48,141)" stroke-width="80" stroke-linejoin="round" stroke-dasharray="80,40" d="M 1282,23071 L 1398,22953 1514,22772 1631,22661 1747,22595 1864,22487 1980,22458 2096,22405 2213,22330 2329,22268 2446,22183 2562,22143 2678,22035 2795,21596 2911,21484 3027,21285 3144,21180 3260,21062 3377,20986 3493,20901 3609,20701 3726,20377 3842,20161 3959,19987 4075,19964 4191,19859 4308,19761 4424,19725 4540,19590 4657,19440 4773,19443 4890,19390 5006,19308 5122,19240 5239,19184 5355,19148 5472,19030 5588,18991 5704,18971 5821,18938 5937,18968 6053,18889 6170,18896 6286,18869 6403,18869 6519,18860 6635,18840 6752,18807 6868,18781 6985,18778 7101,18774 7217,18787 7334,18778 7450,18758 7566,18761 7683,18771 7799,20167 7916,20295 8032,20285 8148,20285 8265,20354 8381,20337 8498,20750 8614,20773 8730,20796 8847,20796 8963,20767 9079,20744 9196,20793 9312,22517 9429,22559 9545,22572 9661,22586 9778,22605 9894,22618 10011,22631 10127,22638 10243,22733 10360,22753 10476,22749 10593,22749 10709,22772 10825,22802 10942,22812 11058,22759 11174,22717 11291,22710 11407,22713 11524,22694 11640,22677 11756,22677 11872,22681 11988,22677 12105,22677 12221,22713 12337,22746 12454,22789 12570,22805 12686,22822 12803,22825 12919,22844 13036,22848 13152,22864 13268,22900 13385,22920 13501,22936 13618,22985 13734,23002 13850,23002 13967,23031 14083,23054 14199,23071 14316,23123 14432,23153 14549,23166 14665,23166 14781,23179 14898,23159 15014,23156 15131,23166 15247,23166 15363,23166 15480,23166 15596,23169 15712,23179 15829,23189 15945,23195 16062,23198 16178,23198 16294,23198 16411,23195 16527,23185 16644,23179 16760,23185 16876,23169 16993,23189 17109,23192 17225,23182 17342,23175 17458,23146 17575,23116 17691,23103 17807,23061 17924,23061 18040,23031 18157,22995 18273,22979 18389,22956"/>
 <path fill="none" stroke="rgb(255,128,0)" stroke-width="80" stroke-linejoin="round" stroke-dasharray="158,158" d="M 1282,23321 L 1398,23316 1514,23316 1631,23313 1747,23308 1864,23305 1980,23298 2096,23293 2213,23288 2329,23280 2446,23265 2562,23259 2678,23242 2795,23229 2911,23214 3027,23195 3144,23167 3260,23150 3377,23132 3493,23120 3609,23095 3726,23080 3842,23065 3959,23045 4075,23042 4191,23015 4308,22995 4424,22961 4540,22879 4657,22830 4773,22793 4890,22776 5006,22759 5122,22766 5239,22740 5355,22699 5472,22686 5588,22665 5704,22646 5821,22610 5937,22588 6053,22585 6170,22554 6286,22554 6403,22545 6519,22517 6635,22501 6752,22479 6868,22483 6985,22461 7101,22438 7217,22416 7334,22405 7450,22433 7566,22439 7683,22445 7799,22465 7916,22473 8032,22467 8148,22472 8265,22483 8381,22515 8498,22531 8614,22570 8730,22585 8847,22582 8963,22577 9079,22575 9196,22576 9312,22583 9429,22603 9545,22620 9661,22625 9778,22630 9894,22683 10011,22685 10127,22740 10243,22744 10360,22789 10476,22788 10593,22785 10709,22776 10825,22786 10942,22785 11058,22797 11174,22805 11291,22797 11407,22798 11524,22815 11640,22825 11756,22837 11872,22857 11988,22866 12105,22868 12221,22867 12337,22881 12454,22896 12570,22903 12686,22910 12803,22911 12919,22909 13036,22906 13152,22909 13268,22915 13385,22922 13501,22931 13618,22934 13734,22935 13850,22936 13967,22934 14083,22944 14199,22943 14316,22955 14432,22969 14549,22977 14665,22996 14781,22996 14898,22998 15014,22996 15131,23019 15247,23032 15363,23058 15480,23069 15596,23079 15712,23086 15829,23092 15945,23114 16062,23106 16178,23098 16294,23100 16411,23107 16527,23110 16644,23112 16760,23109 16876,23103 16993,23100 17109,23094 17225,23091 17342,23091 17458,23086 17575,23079 17691,23075 17807,23082 17924,23089 18040,23086 18157,23089 18273,23089 18389,23080"/>
 <path fill="none" stroke="rgb(129,212,26)" stroke-width="80" stroke-linejoin="round" stroke-dasharray="158,158" d="M 1282,23209 L 1398,23154 1514,23146 1631,23120 1747,23085 1864,23074 1980,23024 2096,22984 2213,22928 2329,22847 2446,22789 2562,22717 2678,22649 2795,22590 2911,22526 3027,22429 3144,22373 3260,22287 3377,22238 3493,22216 3609,22389 3726,22313 3842,22108 3959,22075 4075,21879 4191,21781 4308,21645 4424,21554 4540,21430 4657,21324 4773,21275 4890,21207 5006,21135 5122,21082 5239,22079 5355,21990 5472,21846 5588,21769 5704,21941 5821,21860 5937,21776 6053,21672 6170,21982 6286,21926 6403,21850 6519,21759 6635,21964 6752,21839 6868,21930 6985,21891 7101,21795 7217,21741 7334,22084 7450,22022 7566,21901 7683,21825 7799,22170 7916,22062 8032,22000 8148,21985 8265,22209 8381,22176 8498,22107 8614,22596 8730,22554 8847,22506 8963,22482 9079,22468 9196,22279 9312,22241 9429,22207 9545,22182 9661,22175 9778,22395 9894,22375 10011,22326 10127,22600 10243,22575 10360,22537 10476,22514 10593,22492 10709,22492 10825,22474 10942,22710 11058,22687 11174,22669 11291,22656 11407,22641 11524,22623 11640,22611 11756,22907 11872,22900 11988,22889 12105,22876 12221,22873 12337,22870 12454,22866 12570,22864 12686,22853 12803,22846 12919,22845 13036,23002 13152,22994 13268,23141 13385,23137 13501,23123 13618,23118 13734,23118 13850,23109 13967,23105 14083,23166 14199,23162 14316,23162 14432,23158 14549,23154 14665,23151 14781,23147 14898,23223 15014,23217 15131,23212 15247,23202 15363,23200 15480,23199 15596,23195 15712,23260 15829,23263 15945,23257 16062,23243 16178,23230 16294,23226 16411,23217 16527,23240 16644,23232 16760,23227 16876,23220 16993,23217 17109,23213 17225,23208 17342,23224 17458,23217 17575,23209 17691,23201 17807,23193 17924,23183 18040,23171 18157,23172 18273,23156 18389,23139"/>
 <text class="TextShape" transform="rotate(-90 1408 24534)"><tspan class="TextParagraph" font-family="Liberation Sans, sans-serif" font-size="388px" font-weight="400"><tspan class="TextPosition" x="1408" y="24534"><tspan fill="rgb(0,0,0)" stroke="none">13.03</tspan></tspan></tspan></text>
 <text class="TextShape" transform="rotate(-90 2222 24534)"><tspan class="TextParagraph" font-family="Liberation Sans, sans-serif" font-size="388px" font-weight="400"><tspan class="TextPosition" x="2222" y="24534"><tspan fill="rgb(0,0,0)" stroke="none">20.03</tspan></tspan></tspan></text>
 <text class="TextShape" transform="rotate(-90 3037 24534)"><tspan class="TextParagraph" font-family="Liberation Sans, sans-serif" font-size="388px" font-weight="400"><tspan class="TextPosition" x="3037" y="24534"><tspan fill="rgb(0,0,0)" stroke="none">27.03</tspan></tspan></tspan></text>
 <text class="TextShape" transform="rotate(-90 3852 24534)"><tspan class="TextParagraph" font-family="Liberation Sans, sans-serif" font-size="388px" font-weight="400"><tspan class="TextPosition" x="3852" y="24534"><tspan fill="rgb(0,0,0)" stroke="none">03.04</tspan></tspan></tspan></text>
 <text class="TextShape" transform="rotate(-90 4666 24534)"><tspan class="TextParagraph" font-family="Liberation Sans, sans-serif" font-size="388px" font-weight="400"><tspan class="TextPosition" x="4666" y="24534"><tspan fill="rgb(0,0,0)" stroke="none">10.04</tspan></tspan></tspan></text>
 <text class="TextShape" transform="rotate(-90 5481 24534)"><tspan class="TextParagraph" font-family="Liberation Sans, sans-serif" font-size="388px" font-weight="400"><tspan class="TextPosition" x="5481" y="24534"><tspan fill="rgb(0,0,0)" stroke="none">17.04</tspan></tspan></tspan></text>
 <text class="TextShape" transform="rotate(-90 6296 24534)"><tspan class="TextParagraph" font-family="Liberation Sans, sans-serif" font-size="388px" font-weight="400"><tspan class="TextPosition" x="6296" y="24534"><tspan fill="rgb(0,0,0)" stroke="none">24.04</tspan></tspan></tspan></text>
 <text class="TextShape" transform="rotate(-90 7111 24534)"><tspan class="TextParagraph" font-family="Liberation Sans, sans-serif" font-size="388px" font-weight="400"><tspan class="TextPosition" x="7111" y="24534"><tspan fill="rgb(0,0,0)" stroke="none">01.05</tspan></tspan></tspan></text>
 <text class="TextShape" transform="rotate(-90 7925 24534)"><tspan class="TextParagraph" font-family="Liberation Sans, sans-serif" font-size="388px" font-weight="400"><tspan class="TextPosition" x="7925" y="24534"><tspan fill="rgb(0,0,0)" stroke="none">08.05</tspan></tspan></tspan></text>
 <text class="TextShape" transform="rotate(-90 8740 24534)"><tspan class="TextParagraph" font-family="Liberation Sans, sans-serif" font-size="388px" font-weight="400"><tspan class="TextPosition" x="8740" y="24534"><tspan fill="rgb(0,0,0)" stroke="none">15.05</tspan></tspan></tspan></text>
 <text class="TextShape" transform="rotate(-90 9555 24534)"><tspan class="TextParagraph" font-family="Liberation Sans, sans-serif" font-size="388px" font-weight="400"><tspan class="TextPosition" x="9555" y="24534"><tspan fill="rgb(0,0,0)" stroke="none">22.05</tspan></tspan></tspan></text>
 <text class="TextShape" transform="rotate(-90 10369 24534)"><tspan class="TextParagraph" font-family="Liberation Sans, sans-serif" font-size="388px" font-weight="400"><tspan class="TextPosition" x="10369" y="24534"><tspan fill="rgb(0,0,0)" stroke="none">29.05</tspan></tspan></tspan></text>
 <text class="TextShape" transform="rotate(-90 11184 24534)"><tspan class="TextParagraph" font-family="Liberation Sans, sans-serif" font-size="388px" font-weight="400"><tspan class="TextPosition" x="11184" y="24534"><tspan fill="rgb(0,0,0)" stroke="none">05.06</tspan></tspan></tspan></text>
 <text class="TextShape" transform="rotate(-90 11998 24534)"><tspan class="TextParagraph" font-family="Liberation Sans, sans-serif" font-size="388px" font-weight="400"><tspan class="TextPosition" x="11998" y="24534"><tspan fill="rgb(0,0,0)" stroke="none">12.06</tspan></tspan></tspan></text>
 <text class="TextShape" transform="rotate(-90 12812 24534)"><tspan class="TextParagraph" font-family="Liberation Sans, sans-serif" font-size="388px" font-weight="400"><tspan class="TextPosition" x="12812" y="24534"><tspan fill="rgb(0,0,0)" stroke="none">19.06</tspan></tspan></tspan></text>
 <text class="TextShape" transform="rotate(-90 13627 24534)"><tspan class="TextParagraph" font-family="Liberation Sans, sans-serif" font-size="388px" font-weight="400"><tspan class="TextPosition" x="13627" y="24534"><tspan fill="rgb(0,0,0)" stroke="none">26.06</tspan></tspan></tspan></text>
 <text class="TextShape" transform="rotate(-90 14442 24534)"><tspan class="TextParagraph" font-family="Liberation Sans, sans-serif" font-size="388px" font-weight="400"><tspan class="TextPosition" x="14442" y="24534"><tspan fill="rgb(0,0,0)" stroke="none">03.07</tspan></tspan></tspan></text>
 <text class="TextShape" transform="rotate(-90 15257 24534)"><tspan class="TextParagraph" font-family="Liberation Sans, sans-serif" font-size="388px" font-weight="400"><tspan class="TextPosition" x="15257" y="24534"><tspan fill="rgb(0,0,0)" stroke="none">10.07</tspan></tspan></tspan></text>
 <text class="TextShape" transform="rotate(-90 16071 24534)"><tspan class="TextParagraph" font-family="Liberation Sans, sans-serif" font-size="388px" font-weight="400"><tspan class="TextPosition" x="16071" y="24534"><tspan fill="rgb(0,0,0)" stroke="none">17.07</tspan></tspan></tspan></text>
 <text class="TextShape" transform="rotate(-90 16886 24534)"><tspan class="TextParagraph" font-family="Liberation Sans, sans-serif" font-size="388px" font-weight="400"><tspan class="TextPosition" x="16886" y="24534"><tspan fill="rgb(0,0,0)" stroke="none">24.07</tspan></tspan></tspan></text>
 <text class="TextShape" transform="rotate(-90 17701 24534)"><tspan class="TextParagraph" font-family="Liberation Sans, sans-serif" font-size="388px" font-weight="400"><tspan class="TextPosition" x="17701" y="24534"><tspan fill="rgb(0,0,0)" stroke="none">31.07</tspan></tspan></tspan></text>
 <text class="TextShape" transform="rotate(-90 18515 24534)"><tspan class="TextParagraph" font-family="Liberation Sans, sans-serif" font-size="388px" font-weight="400"><tspan class="TextPosition" x="18515" y="24534"><tspan fill="rgb(0,0,0)" stroke="none">07.08</tspan></tspan></tspan></text>
 <text class="TextShape"><tspan class="TextParagraph" font-family="Liberation Sans, sans-serif" font-size="388px" font-weight="400"><tspan class="TextPosition" x="762" y="23458"><tspan fill="rgb(0,0,0)" stroke="none">0</tspan></tspan></tspan></text>
 <text class="TextShape"><tspan class="TextParagraph" font-family="Liberation Sans, sans-serif" font-size="388px" font-weight="400"><tspan class="TextPosition" x="339" y="21284"><tspan fill="rgb(0,0,0)" stroke="none">500</tspan></tspan></tspan></text>
 <text class="TextShape"><tspan class="TextParagraph" font-family="Liberation Sans, sans-serif" font-size="388px" font-weight="400"><tspan class="TextPosition" x="127" y="19110"><tspan fill="rgb(0,0,0)" stroke="none">1000</tspan></tspan></tspan></text>
 <text class="TextShape"><tspan class="TextParagraph" font-family="Liberation Sans, sans-serif" font-size="388px" font-weight="400"><tspan class="TextPosition" x="127" y="16937"><tspan fill="rgb(0,0,0)" stroke="none">1500</tspan></tspan></tspan></text>
 <text class="TextShape"><tspan class="TextParagraph" font-family="Liberation Sans, sans-serif" font-size="388px" font-weight="400"><tspan class="TextPosition" x="127" y="14763"><tspan fill="rgb(0,0,0)" stroke="none">2000</tspan></tspan></tspan></text>
 <text class="TextShape"><tspan class="TextParagraph" font-family="Liberation Sans, sans-serif" font-size="388px" font-weight="400"><tspan class="TextPosition" x="127" y="12590"><tspan fill="rgb(0,0,0)" stroke="none">2500</tspan></tspan></tspan></text>
 <text class="TextShape"><tspan class="TextParagraph" font-family="Liberation Sans, sans-serif" font-size="388px" font-weight="400"><tspan class="TextPosition" x="127" y="10416"><tspan fill="rgb(0,0,0)" stroke="none">3000</tspan></tspan></tspan></text>
 <text class="TextShape"><tspan class="TextParagraph" font-family="Liberation Sans, sans-serif" font-size="388px" font-weight="400"><tspan class="TextPosition" x="127" y="8242"><tspan fill="rgb(0,0,0)" stroke="none">3500</tspan></tspan></tspan></text>
 <text class="TextShape"><tspan class="TextParagraph" font-family="Liberation Sans, sans-serif" font-size="388px" font-weight="400"><tspan class="TextPosition" x="127" y="6069"><tspan fill="rgb(0,0,0)" stroke="none">4000</tspan></tspan></tspan></text>
 <text class="TextShape"><tspan class="TextParagraph" font-family="Liberation Sans, sans-serif" font-size="388px" font-weight="400"><tspan class="TextPosition" x="127" y="3895"><tspan fill="rgb(0,0,0)" stroke="none">4500</tspan></tspan></tspan></text>
 <text class="TextShape"><tspan class="TextParagraph" font-family="Liberation Sans, sans-serif" font-size="388px" font-weight="400"><tspan class="TextPosition" x="127" y="1722"><tspan fill="rgb(0,0,0)" stroke="none">5000</tspan></tspan></tspan></text>
 <text class="TextShape"><tspan class="TextParagraph" font-family="Liberation Sans, sans-serif" font-size="494px" font-weight="700"><tspan class="TextPosition" x="828" y="990"><tspan fill="rgb(0,0,0)" stroke="none">EU - poet aktivnch ppad na milin obyvatel</tspan></tspan></tspan></text>
 <path fill="none" stroke="rgb(255,128,0)" stroke-width="80" stroke-linejoin="round" stroke-dasharray="80,40" d="M 18768,2162 L 20368,2162"/>
 <path fill="none" stroke="rgb(0,0,255)" stroke-width="80" stroke-linejoin="round" d="M 18768,3017 L 20368,3017"/>
 <path fill="none" stroke="rgb(0,0,255)" stroke-width="80" stroke-linejoin="round" stroke-dasharray="80,40" d="M 18768,3872 L 20368,3872"/>
 <path fill="none" stroke="rgb(255,0,0)" stroke-width="80" stroke-linejoin="round" stroke-dasharray="158,158" d="M 18768,4727 L 20368,4727"/>
 <path fill="none" stroke="rgb(128,0,128)" stroke-width="80" stroke-linejoin="round" stroke-dasharray="158,158" d="M 18768,5582 L 20368,5582"/>
 <path fill="none" stroke="rgb(0,169,51)" stroke-width="80" stroke-linejoin="round" stroke-dasharray="158,158" d="M 18768,6437 L 20368,6437"/>
 <path fill="none" stroke="rgb(255,191,0)" stroke-width="80" stroke-linejoin="round" d="M 18768,7292 L 20368,7292"/>
 <path fill="none" stroke="rgb(191,0,65)" stroke-width="80" stroke-linejoin="round" stroke-dasharray="51,127,51,127,254,127,254,127,254,127" d="M 18768,8147 L 20368,8147"/>
 <path fill="none" stroke="rgb(0,0,0)" stroke-width="80" stroke-linejoin="round" stroke-dasharray="158,158" d="M 18768,9002 L 20368,9002"/>
 <path fill="none" stroke="rgb(180,120,4)" stroke-width="80" stroke-linejoin="round" stroke-dasharray="80,40" d="M 18768,9857 L 20368,9857"/>
 <path fill="none" stroke="rgb(0,169,51)" stroke-width="80" stroke-linejoin="round" stroke-dasharray="80,40" d="M 18768,10712 L 20368,10712"/>
 <path fill="none" stroke="rgb(241,13,12)" stroke-width="80" stroke-linejoin="round" stroke-dasharray="80,40" d="M 18768,11567 L 20368,11567"/>
 <path fill="none" stroke="rgb(129,212,26)" stroke-width="80" stroke-linejoin="round" stroke-dasharray="80,40" d="M 18768,12422 L 20368,12422"/>
 <path fill="none" stroke="rgb(131,202,255)" stroke-width="80" stroke-linejoin="round" d="M 18768,13276 L 20368,13276"/>
 <path fill="none" stroke="rgb(131,202,255)" stroke-width="80" stroke-linejoin="round" stroke-dasharray="80,40" d="M 18768,14131 L 20368,14131"/>
 <path fill="none" stroke="rgb(0,169,51)" stroke-width="80" stroke-linejoin="round" d="M 18768,14986 L 20368,14986"/>
 <path fill="none" stroke="rgb(128,0,128)" stroke-width="80" stroke-linejoin="round" stroke-dasharray="80,40" d="M 18768,15841 L 20368,15841"/>
 <path fill="none" stroke="rgb(131,202,255)" stroke-width="80" stroke-linejoin="round" stroke-dasharray="158,158" d="M 18768,16696 L 20368,16696"/>
 <path fill="none" stroke="rgb(52,42,6)" stroke-width="80" stroke-linejoin="round" d="M 18768,17551 L 20368,17551"/>
 <path fill="none" stroke="rgb(180,120,4)" stroke-width="80" stroke-linejoin="round" d="M 18768,18406 L 20368,18406"/>
 <path fill="none" stroke="rgb(0,0,255)" stroke-width="80" stroke-linejoin="round" stroke-dasharray="158,158" d="M 18768,19261 L 20368,19261"/>
 <path fill="none" stroke="rgb(255,191,0)" stroke-width="80" stroke-linejoin="round" stroke-dasharray="158,158" d="M 18768,20116 L 20368,20116"/>
 <path fill="none" stroke="rgb(85,48,141)" stroke-width="80" stroke-linejoin="round" stroke-dasharray="80,40" d="M 18768,20971 L 20368,20971"/>
 <path fill="none" stroke="rgb(255,128,0)" stroke-width="80" stroke-linejoin="round" stroke-dasharray="158,158" d="M 18768,21826 L 20368,21826"/>
 <path fill="none" stroke="rgb(129,212,26)" stroke-width="80" stroke-linejoin="round" stroke-dasharray="158,158" d="M 18768,22681 L 20368,22681"/>
 <text class="TextShape"><tspan class="TextParagraph" font-family="Liberation Sans, sans-serif" font-size="423px" font-weight="400"><tspan class="TextPosition" x="20468" y="2310"><tspan fill="rgb(0,0,0)" stroke="none">Belgie</tspan></tspan></tspan></text>
 <text class="TextShape"><tspan class="TextParagraph" font-family="Liberation Sans, sans-serif" font-size="423px" font-weight="400"><tspan class="TextPosition" x="20468" y="3165"><tspan fill="rgb(0,0,0)" stroke="none">Luxembursko</tspan></tspan></tspan></text>
 <text class="TextShape"><tspan class="TextParagraph" font-family="Liberation Sans, sans-serif" font-size="423px" font-weight="400"><tspan class="TextPosition" x="20468" y="4020"><tspan fill="rgb(0,0,0)" stroke="none">Francie</tspan></tspan></tspan></text>
 <text class="TextShape"><tspan class="TextParagraph" font-family="Liberation Sans, sans-serif" font-size="423px" font-weight="400"><tspan class="TextPosition" x="20468" y="4875"><tspan fill="rgb(0,0,0)" stroke="none">Rumunsko</tspan></tspan></tspan></text>
 <text class="TextShape"><tspan class="TextParagraph" font-family="Liberation Sans, sans-serif" font-size="423px" font-weight="400"><tspan class="TextPosition" x="20468" y="5730"><tspan fill="rgb(0,0,0)" stroke="none">Portugalsko</tspan></tspan></tspan></text>
 <text class="TextShape"><tspan class="TextParagraph" font-family="Liberation Sans, sans-serif" font-size="423px" font-weight="400"><tspan class="TextPosition" x="20468" y="6585"><tspan fill="rgb(0,0,0)" stroke="none">Bulharsko</tspan></tspan></tspan></text>
 <text class="TextShape"><tspan class="TextParagraph" font-family="Liberation Sans, sans-serif" font-size="423px" font-weight="400"><tspan class="TextPosition" x="20468" y="7440"><tspan fill="rgb(0,0,0)" stroke="none">esko</tspan></tspan></tspan></text>
 <text class="TextShape"><tspan class="TextParagraph" font-family="Liberation Sans, sans-serif" font-size="423px" font-weight="400"><tspan class="TextPosition" x="20468" y="8295"><tspan fill="rgb(0,0,0)" stroke="none">EU_nov zem</tspan></tspan></tspan></text>
 <text class="TextShape"><tspan class="TextParagraph" font-family="Liberation Sans, sans-serif" font-size="423px" font-weight="400"><tspan class="TextPosition" x="20468" y="9150"><tspan fill="rgb(0,0,0)" stroke="none">Malta</tspan></tspan></tspan></text>
 <text class="TextShape"><tspan class="TextParagraph" font-family="Liberation Sans, sans-serif" font-size="423px" font-weight="400"><tspan class="TextPosition" x="20468" y="10005"><tspan fill="rgb(0,0,0)" stroke="none">ecko</tspan></tspan></tspan></text>
 <text class="TextShape"><tspan class="TextParagraph" font-family="Liberation Sans, sans-serif" font-size="423px" font-weight="400"><tspan class="TextPosition" x="20468" y="10860"><tspan fill="rgb(0,0,0)" stroke="none">Polsko</tspan></tspan></tspan></text>
 <text class="TextShape"><tspan class="TextParagraph" font-family="Liberation Sans, sans-serif" font-size="423px" font-weight="400"><tspan class="TextPosition" x="20468" y="11715"><tspan fill="rgb(0,0,0)" stroke="none">Kypr</tspan></tspan></tspan></text>
 <text class="TextShape"><tspan class="TextParagraph" font-family="Liberation Sans, sans-serif" font-size="423px" font-weight="400"><tspan class="TextPosition" x="20468" y="12569"><tspan fill="rgb(0,0,0)" stroke="none">Irsko</tspan></tspan></tspan></text>
 <text class="TextShape"><tspan class="TextParagraph" font-family="Liberation Sans, sans-serif" font-size="423px" font-weight="400"><tspan class="TextPosition" x="20468" y="13424"><tspan fill="rgb(0,0,0)" stroke="none">Itlie</tspan></tspan></tspan></text>
 <text class="TextShape"><tspan class="TextParagraph" font-family="Liberation Sans, sans-serif" font-size="423px" font-weight="400"><tspan class="TextPosition" x="20468" y="14279"><tspan fill="rgb(0,0,0)" stroke="none">Chorvatsko</tspan></tspan></tspan></text>
 <text class="TextShape"><tspan class="TextParagraph" font-family="Liberation Sans, sans-serif" font-size="423px" font-weight="400"><tspan class="TextPosition" x="20468" y="15134"><tspan fill="rgb(0,0,0)" stroke="none">Rakousko</tspan></tspan></tspan></text>
 <text class="TextShape"><tspan class="TextParagraph" font-family="Liberation Sans, sans-serif" font-size="423px" font-weight="400"><tspan class="TextPosition" x="20468" y="15989"><tspan fill="rgb(0,0,0)" stroke="none">Litva</tspan></tspan></tspan></text>
 <text class="TextShape"><tspan class="TextParagraph" font-family="Liberation Sans, sans-serif" font-size="423px" font-weight="400"><tspan class="TextPosition" x="20468" y="16844"><tspan fill="rgb(0,0,0)" stroke="none">Slovinsko</tspan></tspan></tspan></text>
 <text class="TextShape"><tspan class="TextParagraph" font-family="Liberation Sans, sans-serif" font-size="423px" font-weight="400"><tspan class="TextPosition" x="20468" y="17699"><tspan fill="rgb(0,0,0)" stroke="none">Nmecko</tspan></tspan></tspan></text>
 <text class="TextShape"><tspan class="TextParagraph" font-family="Liberation Sans, sans-serif" font-size="423px" font-weight="400"><tspan class="TextPosition" x="20468" y="18554"><tspan fill="rgb(0,0,0)" stroke="none">Dnsko</tspan></tspan></tspan></text>
 <text class="TextShape"><tspan class="TextParagraph" font-family="Liberation Sans, sans-serif" font-size="423px" font-weight="400"><tspan class="TextPosition" x="20468" y="19409"><tspan fill="rgb(0,0,0)" stroke="none">Slovensko</tspan></tspan></tspan></text>
 <text class="TextShape"><tspan class="TextParagraph" font-family="Liberation Sans, sans-serif" font-size="423px" font-weight="400"><tspan class="TextPosition" x="20468" y="20264"><tspan fill="rgb(0,0,0)" stroke="none">Lotysko</tspan></tspan></tspan></text>
 <text class="TextShape"><tspan class="TextParagraph" font-family="Liberation Sans, sans-serif" font-size="423px" font-weight="400"><tspan class="TextPosition" x="20468" y="21119"><tspan fill="rgb(0,0,0)" stroke="none">Estonsko</tspan></tspan></tspan></text>
 <text class="TextShape"><tspan class="TextParagraph" font-family="Liberation Sans, sans-serif" font-size="423px" font-weight="400"><tspan class="TextPosition" x="20468" y="21974"><tspan fill="rgb(0,0,0)" stroke="none">Maarsko</tspan></tspan></tspan></text>
 <text class="TextShape"><tspan class="TextParagraph" font-family="Liberation Sans, sans-serif" font-size="423px" font-weight="400"><tspan class="TextPosition" x="20468" y="22829"><tspan fill="rgb(0,0,0)" stroke="none">Finsko</tspan></tspan></tspan></text>
</svg>