<?xml version="1.0" encoding="UTF-8"?>
<!DOCTYPE svg PUBLIC "-//W3C//DTD SVG 1.1//EN" "http://www.w3.org/Graphics/SVG/1.1/DTD/svg11.dtd">
<svg width="236mm" height="250mm" viewBox="0 0 23600 25000" version="1.1" xmlns="http://www.w3.org/2000/svg" xmlns:xlink="http://www.w3.org/1999/xlink" stroke-width="28.222" stroke-linejoin="round" xml:space="preserve">
 <path fill="rgb(255,255,255)" stroke="none" d="M 11800,25000 L 0,25000 0,0 23600,0 23600,25000 11800,25000 Z"/>
 <path fill="none" stroke="rgb(179,179,179)" stroke-linejoin="round" d="M 10027,23350 L 1413,23350 1413,1712 18641,1712 18641,23350 10027,23350 Z"/>
 <path fill="none" stroke="rgb(179,179,179)" stroke-linejoin="round" d="M 18641,23349 L 1413,23349"/>
 <path fill="none" stroke="rgb(179,179,179)" stroke-linejoin="round" d="M 18641,19742 L 1413,19742"/>
 <path fill="none" stroke="rgb(179,179,179)" stroke-linejoin="round" d="M 18641,16136 L 1413,16136"/>
 <path fill="none" stroke="rgb(179,179,179)" stroke-linejoin="round" d="M 18641,12529 L 1413,12529"/>
 <path fill="none" stroke="rgb(179,179,179)" stroke-linejoin="round" d="M 18641,8924 L 1413,8924"/>
 <path fill="none" stroke="rgb(179,179,179)" stroke-linejoin="round" d="M 18641,5317 L 1413,5317"/>
 <path fill="none" stroke="rgb(179,179,179)" stroke-linejoin="round" d="M 18641,1711 L 1413,1711"/>
 <path fill="none" stroke="rgb(179,179,179)" stroke-linejoin="round" d="M 1413,23499 L 1413,23349"/>
 <path fill="none" stroke="rgb(179,179,179)" stroke-linejoin="round" d="M 1413,23499 L 1413,23349"/>
 <path fill="none" stroke="rgb(179,179,179)" stroke-linejoin="round" d="M 1522,23499 L 1522,23349"/>
 <path fill="none" stroke="rgb(179,179,179)" stroke-linejoin="round" d="M 1522,23499 L 1522,23349"/>
 <path fill="none" stroke="rgb(179,179,179)" stroke-linejoin="round" d="M 1632,23499 L 1632,23349"/>
 <path fill="none" stroke="rgb(179,179,179)" stroke-linejoin="round" d="M 1632,23499 L 1632,23349"/>
 <path fill="none" stroke="rgb(179,179,179)" stroke-linejoin="round" d="M 1742,23499 L 1742,23349"/>
 <path fill="none" stroke="rgb(179,179,179)" stroke-linejoin="round" d="M 1742,23499 L 1742,23349"/>
 <path fill="none" stroke="rgb(179,179,179)" stroke-linejoin="round" d="M 1851,23499 L 1851,23349"/>
 <path fill="none" stroke="rgb(179,179,179)" stroke-linejoin="round" d="M 1851,23499 L 1851,23349"/>
 <path fill="none" stroke="rgb(179,179,179)" stroke-linejoin="round" d="M 1961,23499 L 1961,23349"/>
 <path fill="none" stroke="rgb(179,179,179)" stroke-linejoin="round" d="M 1961,23499 L 1961,23349"/>
 <path fill="none" stroke="rgb(179,179,179)" stroke-linejoin="round" d="M 2071,23499 L 2071,23349"/>
 <path fill="none" stroke="rgb(179,179,179)" stroke-linejoin="round" d="M 2071,23499 L 2071,23349"/>
 <path fill="none" stroke="rgb(179,179,179)" stroke-linejoin="round" d="M 2181,23499 L 2181,23349"/>
 <path fill="none" stroke="rgb(179,179,179)" stroke-linejoin="round" d="M 2181,23499 L 2181,23349"/>
 <path fill="none" stroke="rgb(179,179,179)" stroke-linejoin="round" d="M 2290,23499 L 2290,23349"/>
 <path fill="none" stroke="rgb(179,179,179)" stroke-linejoin="round" d="M 2290,23499 L 2290,23349"/>
 <path fill="none" stroke="rgb(179,179,179)" stroke-linejoin="round" d="M 2400,23499 L 2400,23349"/>
 <path fill="none" stroke="rgb(179,179,179)" stroke-linejoin="round" d="M 2400,23499 L 2400,23349"/>
 <path fill="none" stroke="rgb(179,179,179)" stroke-linejoin="round" d="M 2510,23499 L 2510,23349"/>
 <path fill="none" stroke="rgb(179,179,179)" stroke-linejoin="round" d="M 2510,23499 L 2510,23349"/>
 <path fill="none" stroke="rgb(179,179,179)" stroke-linejoin="round" d="M 2620,23499 L 2620,23349"/>
 <path fill="none" stroke="rgb(179,179,179)" stroke-linejoin="round" d="M 2620,23499 L 2620,23349"/>
 <path fill="none" stroke="rgb(179,179,179)" stroke-linejoin="round" d="M 2729,23499 L 2729,23349"/>
 <path fill="none" stroke="rgb(179,179,179)" stroke-linejoin="round" d="M 2729,23499 L 2729,23349"/>
 <path fill="none" stroke="rgb(179,179,179)" stroke-linejoin="round" d="M 2839,23499 L 2839,23349"/>
 <path fill="none" stroke="rgb(179,179,179)" stroke-linejoin="round" d="M 2839,23499 L 2839,23349"/>
 <path fill="none" stroke="rgb(179,179,179)" stroke-linejoin="round" d="M 2949,23499 L 2949,23349"/>
 <path fill="none" stroke="rgb(179,179,179)" stroke-linejoin="round" d="M 2949,23499 L 2949,23349"/>
 <path fill="none" stroke="rgb(179,179,179)" stroke-linejoin="round" d="M 3059,23499 L 3059,23349"/>
 <path fill="none" stroke="rgb(179,179,179)" stroke-linejoin="round" d="M 3059,23499 L 3059,23349"/>
 <path fill="none" stroke="rgb(179,179,179)" stroke-linejoin="round" d="M 3168,23499 L 3168,23349"/>
 <path fill="none" stroke="rgb(179,179,179)" stroke-linejoin="round" d="M 3168,23499 L 3168,23349"/>
 <path fill="none" stroke="rgb(179,179,179)" stroke-linejoin="round" d="M 3278,23499 L 3278,23349"/>
 <path fill="none" stroke="rgb(179,179,179)" stroke-linejoin="round" d="M 3278,23499 L 3278,23349"/>
 <path fill="none" stroke="rgb(179,179,179)" stroke-linejoin="round" d="M 3388,23499 L 3388,23349"/>
 <path fill="none" stroke="rgb(179,179,179)" stroke-linejoin="round" d="M 3388,23499 L 3388,23349"/>
 <path fill="none" stroke="rgb(179,179,179)" stroke-linejoin="round" d="M 3498,23499 L 3498,23349"/>
 <path fill="none" stroke="rgb(179,179,179)" stroke-linejoin="round" d="M 3498,23499 L 3498,23349"/>
 <path fill="none" stroke="rgb(179,179,179)" stroke-linejoin="round" d="M 3607,23499 L 3607,23349"/>
 <path fill="none" stroke="rgb(179,179,179)" stroke-linejoin="round" d="M 3607,23499 L 3607,23349"/>
 <path fill="none" stroke="rgb(179,179,179)" stroke-linejoin="round" d="M 3717,23499 L 3717,23349"/>
 <path fill="none" stroke="rgb(179,179,179)" stroke-linejoin="round" d="M 3717,23499 L 3717,23349"/>
 <path fill="none" stroke="rgb(179,179,179)" stroke-linejoin="round" d="M 3827,23499 L 3827,23349"/>
 <path fill="none" stroke="rgb(179,179,179)" stroke-linejoin="round" d="M 3827,23499 L 3827,23349"/>
 <path fill="none" stroke="rgb(179,179,179)" stroke-linejoin="round" d="M 3936,23499 L 3936,23349"/>
 <path fill="none" stroke="rgb(179,179,179)" stroke-linejoin="round" d="M 3936,23499 L 3936,23349"/>
 <path fill="none" stroke="rgb(179,179,179)" stroke-linejoin="round" d="M 4046,23499 L 4046,23349"/>
 <path fill="none" stroke="rgb(179,179,179)" stroke-linejoin="round" d="M 4046,23499 L 4046,23349"/>
 <path fill="none" stroke="rgb(179,179,179)" stroke-linejoin="round" d="M 4156,23499 L 4156,23349"/>
 <path fill="none" stroke="rgb(179,179,179)" stroke-linejoin="round" d="M 4156,23499 L 4156,23349"/>
 <path fill="none" stroke="rgb(179,179,179)" stroke-linejoin="round" d="M 4266,23499 L 4266,23349"/>
 <path fill="none" stroke="rgb(179,179,179)" stroke-linejoin="round" d="M 4266,23499 L 4266,23349"/>
 <path fill="none" stroke="rgb(179,179,179)" stroke-linejoin="round" d="M 4375,23499 L 4375,23349"/>
 <path fill="none" stroke="rgb(179,179,179)" stroke-linejoin="round" d="M 4375,23499 L 4375,23349"/>
 <path fill="none" stroke="rgb(179,179,179)" stroke-linejoin="round" d="M 4485,23499 L 4485,23349"/>
 <path fill="none" stroke="rgb(179,179,179)" stroke-linejoin="round" d="M 4485,23499 L 4485,23349"/>
 <path fill="none" stroke="rgb(179,179,179)" stroke-linejoin="round" d="M 4595,23499 L 4595,23349"/>
 <path fill="none" stroke="rgb(179,179,179)" stroke-linejoin="round" d="M 4595,23499 L 4595,23349"/>
 <path fill="none" stroke="rgb(179,179,179)" stroke-linejoin="round" d="M 4705,23499 L 4705,23349"/>
 <path fill="none" stroke="rgb(179,179,179)" stroke-linejoin="round" d="M 4705,23499 L 4705,23349"/>
 <path fill="none" stroke="rgb(179,179,179)" stroke-linejoin="round" d="M 4814,23499 L 4814,23349"/>
 <path fill="none" stroke="rgb(179,179,179)" stroke-linejoin="round" d="M 4814,23499 L 4814,23349"/>
 <path fill="none" stroke="rgb(179,179,179)" stroke-linejoin="round" d="M 4924,23499 L 4924,23349"/>
 <path fill="none" stroke="rgb(179,179,179)" stroke-linejoin="round" d="M 4924,23499 L 4924,23349"/>
 <path fill="none" stroke="rgb(179,179,179)" stroke-linejoin="round" d="M 5034,23499 L 5034,23349"/>
 <path fill="none" stroke="rgb(179,179,179)" stroke-linejoin="round" d="M 5034,23499 L 5034,23349"/>
 <path fill="none" stroke="rgb(179,179,179)" stroke-linejoin="round" d="M 5144,23499 L 5144,23349"/>
 <path fill="none" stroke="rgb(179,179,179)" stroke-linejoin="round" d="M 5144,23499 L 5144,23349"/>
 <path fill="none" stroke="rgb(179,179,179)" stroke-linejoin="round" d="M 5253,23499 L 5253,23349"/>
 <path fill="none" stroke="rgb(179,179,179)" stroke-linejoin="round" d="M 5253,23499 L 5253,23349"/>
 <path fill="none" stroke="rgb(179,179,179)" stroke-linejoin="round" d="M 5363,23499 L 5363,23349"/>
 <path fill="none" stroke="rgb(179,179,179)" stroke-linejoin="round" d="M 5363,23499 L 5363,23349"/>
 <path fill="none" stroke="rgb(179,179,179)" stroke-linejoin="round" d="M 5473,23499 L 5473,23349"/>
 <path fill="none" stroke="rgb(179,179,179)" stroke-linejoin="round" d="M 5473,23499 L 5473,23349"/>
 <path fill="none" stroke="rgb(179,179,179)" stroke-linejoin="round" d="M 5583,23499 L 5583,23349"/>
 <path fill="none" stroke="rgb(179,179,179)" stroke-linejoin="round" d="M 5583,23499 L 5583,23349"/>
 <path fill="none" stroke="rgb(179,179,179)" stroke-linejoin="round" d="M 5692,23499 L 5692,23349"/>
 <path fill="none" stroke="rgb(179,179,179)" stroke-linejoin="round" d="M 5692,23499 L 5692,23349"/>
 <path fill="none" stroke="rgb(179,179,179)" stroke-linejoin="round" d="M 5802,23499 L 5802,23349"/>
 <path fill="none" stroke="rgb(179,179,179)" stroke-linejoin="round" d="M 5802,23499 L 5802,23349"/>
 <path fill="none" stroke="rgb(179,179,179)" stroke-linejoin="round" d="M 5912,23499 L 5912,23349"/>
 <path fill="none" stroke="rgb(179,179,179)" stroke-linejoin="round" d="M 5912,23499 L 5912,23349"/>
 <path fill="none" stroke="rgb(179,179,179)" stroke-linejoin="round" d="M 6022,23499 L 6022,23349"/>
 <path fill="none" stroke="rgb(179,179,179)" stroke-linejoin="round" d="M 6022,23499 L 6022,23349"/>
 <path fill="none" stroke="rgb(179,179,179)" stroke-linejoin="round" d="M 6131,23499 L 6131,23349"/>
 <path fill="none" stroke="rgb(179,179,179)" stroke-linejoin="round" d="M 6131,23499 L 6131,23349"/>
 <path fill="none" stroke="rgb(179,179,179)" stroke-linejoin="round" d="M 6241,23499 L 6241,23349"/>
 <path fill="none" stroke="rgb(179,179,179)" stroke-linejoin="round" d="M 6241,23499 L 6241,23349"/>
 <path fill="none" stroke="rgb(179,179,179)" stroke-linejoin="round" d="M 6351,23499 L 6351,23349"/>
 <path fill="none" stroke="rgb(179,179,179)" stroke-linejoin="round" d="M 6351,23499 L 6351,23349"/>
 <path fill="none" stroke="rgb(179,179,179)" stroke-linejoin="round" d="M 6460,23499 L 6460,23349"/>
 <path fill="none" stroke="rgb(179,179,179)" stroke-linejoin="round" d="M 6460,23499 L 6460,23349"/>
 <path fill="none" stroke="rgb(179,179,179)" stroke-linejoin="round" d="M 6570,23499 L 6570,23349"/>
 <path fill="none" stroke="rgb(179,179,179)" stroke-linejoin="round" d="M 6570,23499 L 6570,23349"/>
 <path fill="none" stroke="rgb(179,179,179)" stroke-linejoin="round" d="M 6680,23499 L 6680,23349"/>
 <path fill="none" stroke="rgb(179,179,179)" stroke-linejoin="round" d="M 6680,23499 L 6680,23349"/>
 <path fill="none" stroke="rgb(179,179,179)" stroke-linejoin="round" d="M 6790,23499 L 6790,23349"/>
 <path fill="none" stroke="rgb(179,179,179)" stroke-linejoin="round" d="M 6790,23499 L 6790,23349"/>
 <path fill="none" stroke="rgb(179,179,179)" stroke-linejoin="round" d="M 6899,23499 L 6899,23349"/>
 <path fill="none" stroke="rgb(179,179,179)" stroke-linejoin="round" d="M 6899,23499 L 6899,23349"/>
 <path fill="none" stroke="rgb(179,179,179)" stroke-linejoin="round" d="M 7009,23499 L 7009,23349"/>
 <path fill="none" stroke="rgb(179,179,179)" stroke-linejoin="round" d="M 7009,23499 L 7009,23349"/>
 <path fill="none" stroke="rgb(179,179,179)" stroke-linejoin="round" d="M 7119,23499 L 7119,23349"/>
 <path fill="none" stroke="rgb(179,179,179)" stroke-linejoin="round" d="M 7119,23499 L 7119,23349"/>
 <path fill="none" stroke="rgb(179,179,179)" stroke-linejoin="round" d="M 7229,23499 L 7229,23349"/>
 <path fill="none" stroke="rgb(179,179,179)" stroke-linejoin="round" d="M 7229,23499 L 7229,23349"/>
 <path fill="none" stroke="rgb(179,179,179)" stroke-linejoin="round" d="M 7338,23499 L 7338,23349"/>
 <path fill="none" stroke="rgb(179,179,179)" stroke-linejoin="round" d="M 7338,23499 L 7338,23349"/>
 <path fill="none" stroke="rgb(179,179,179)" stroke-linejoin="round" d="M 7448,23499 L 7448,23349"/>
 <path fill="none" stroke="rgb(179,179,179)" stroke-linejoin="round" d="M 7448,23499 L 7448,23349"/>
 <path fill="none" stroke="rgb(179,179,179)" stroke-linejoin="round" d="M 7558,23499 L 7558,23349"/>
 <path fill="none" stroke="rgb(179,179,179)" stroke-linejoin="round" d="M 7558,23499 L 7558,23349"/>
 <path fill="none" stroke="rgb(179,179,179)" stroke-linejoin="round" d="M 7668,23499 L 7668,23349"/>
 <path fill="none" stroke="rgb(179,179,179)" stroke-linejoin="round" d="M 7668,23499 L 7668,23349"/>
 <path fill="none" stroke="rgb(179,179,179)" stroke-linejoin="round" d="M 7777,23499 L 7777,23349"/>
 <path fill="none" stroke="rgb(179,179,179)" stroke-linejoin="round" d="M 7777,23499 L 7777,23349"/>
 <path fill="none" stroke="rgb(179,179,179)" stroke-linejoin="round" d="M 7887,23499 L 7887,23349"/>
 <path fill="none" stroke="rgb(179,179,179)" stroke-linejoin="round" d="M 7887,23499 L 7887,23349"/>
 <path fill="none" stroke="rgb(179,179,179)" stroke-linejoin="round" d="M 7997,23499 L 7997,23349"/>
 <path fill="none" stroke="rgb(179,179,179)" stroke-linejoin="round" d="M 7997,23499 L 7997,23349"/>
 <path fill="none" stroke="rgb(179,179,179)" stroke-linejoin="round" d="M 8107,23499 L 8107,23349"/>
 <path fill="none" stroke="rgb(179,179,179)" stroke-linejoin="round" d="M 8107,23499 L 8107,23349"/>
 <path fill="none" stroke="rgb(179,179,179)" stroke-linejoin="round" d="M 8216,23499 L 8216,23349"/>
 <path fill="none" stroke="rgb(179,179,179)" stroke-linejoin="round" d="M 8216,23499 L 8216,23349"/>
 <path fill="none" stroke="rgb(179,179,179)" stroke-linejoin="round" d="M 8326,23499 L 8326,23349"/>
 <path fill="none" stroke="rgb(179,179,179)" stroke-linejoin="round" d="M 8326,23499 L 8326,23349"/>
 <path fill="none" stroke="rgb(179,179,179)" stroke-linejoin="round" d="M 8436,23499 L 8436,23349"/>
 <path fill="none" stroke="rgb(179,179,179)" stroke-linejoin="round" d="M 8436,23499 L 8436,23349"/>
 <path fill="none" stroke="rgb(179,179,179)" stroke-linejoin="round" d="M 8546,23499 L 8546,23349"/>
 <path fill="none" stroke="rgb(179,179,179)" stroke-linejoin="round" d="M 8546,23499 L 8546,23349"/>
 <path fill="none" stroke="rgb(179,179,179)" stroke-linejoin="round" d="M 8655,23499 L 8655,23349"/>
 <path fill="none" stroke="rgb(179,179,179)" stroke-linejoin="round" d="M 8655,23499 L 8655,23349"/>
 <path fill="none" stroke="rgb(179,179,179)" stroke-linejoin="round" d="M 8765,23499 L 8765,23349"/>
 <path fill="none" stroke="rgb(179,179,179)" stroke-linejoin="round" d="M 8765,23499 L 8765,23349"/>
 <path fill="none" stroke="rgb(179,179,179)" stroke-linejoin="round" d="M 8875,23499 L 8875,23349"/>
 <path fill="none" stroke="rgb(179,179,179)" stroke-linejoin="round" d="M 8875,23499 L 8875,23349"/>
 <path fill="none" stroke="rgb(179,179,179)" stroke-linejoin="round" d="M 8984,23499 L 8984,23349"/>
 <path fill="none" stroke="rgb(179,179,179)" stroke-linejoin="round" d="M 8984,23499 L 8984,23349"/>
 <path fill="none" stroke="rgb(179,179,179)" stroke-linejoin="round" d="M 9094,23499 L 9094,23349"/>
 <path fill="none" stroke="rgb(179,179,179)" stroke-linejoin="round" d="M 9094,23499 L 9094,23349"/>
 <path fill="none" stroke="rgb(179,179,179)" stroke-linejoin="round" d="M 9204,23499 L 9204,23349"/>
 <path fill="none" stroke="rgb(179,179,179)" stroke-linejoin="round" d="M 9204,23499 L 9204,23349"/>
 <path fill="none" stroke="rgb(179,179,179)" stroke-linejoin="round" d="M 9314,23499 L 9314,23349"/>
 <path fill="none" stroke="rgb(179,179,179)" stroke-linejoin="round" d="M 9314,23499 L 9314,23349"/>
 <path fill="none" stroke="rgb(179,179,179)" stroke-linejoin="round" d="M 9423,23499 L 9423,23349"/>
 <path fill="none" stroke="rgb(179,179,179)" stroke-linejoin="round" d="M 9423,23499 L 9423,23349"/>
 <path fill="none" stroke="rgb(179,179,179)" stroke-linejoin="round" d="M 9533,23499 L 9533,23349"/>
 <path fill="none" stroke="rgb(179,179,179)" stroke-linejoin="round" d="M 9533,23499 L 9533,23349"/>
 <path fill="none" stroke="rgb(179,179,179)" stroke-linejoin="round" d="M 9643,23499 L 9643,23349"/>
 <path fill="none" stroke="rgb(179,179,179)" stroke-linejoin="round" d="M 9643,23499 L 9643,23349"/>
 <path fill="none" stroke="rgb(179,179,179)" stroke-linejoin="round" d="M 9753,23499 L 9753,23349"/>
 <path fill="none" stroke="rgb(179,179,179)" stroke-linejoin="round" d="M 9753,23499 L 9753,23349"/>
 <path fill="none" stroke="rgb(179,179,179)" stroke-linejoin="round" d="M 9862,23499 L 9862,23349"/>
 <path fill="none" stroke="rgb(179,179,179)" stroke-linejoin="round" d="M 9862,23499 L 9862,23349"/>
 <path fill="none" stroke="rgb(179,179,179)" stroke-linejoin="round" d="M 9972,23499 L 9972,23349"/>
 <path fill="none" stroke="rgb(179,179,179)" stroke-linejoin="round" d="M 9972,23499 L 9972,23349"/>
 <path fill="none" stroke="rgb(179,179,179)" stroke-linejoin="round" d="M 10082,23499 L 10082,23349"/>
 <path fill="none" stroke="rgb(179,179,179)" stroke-linejoin="round" d="M 10082,23499 L 10082,23349"/>
 <path fill="none" stroke="rgb(179,179,179)" stroke-linejoin="round" d="M 10192,23499 L 10192,23349"/>
 <path fill="none" stroke="rgb(179,179,179)" stroke-linejoin="round" d="M 10192,23499 L 10192,23349"/>
 <path fill="none" stroke="rgb(179,179,179)" stroke-linejoin="round" d="M 10301,23499 L 10301,23349"/>
 <path fill="none" stroke="rgb(179,179,179)" stroke-linejoin="round" d="M 10301,23499 L 10301,23349"/>
 <path fill="none" stroke="rgb(179,179,179)" stroke-linejoin="round" d="M 10411,23499 L 10411,23349"/>
 <path fill="none" stroke="rgb(179,179,179)" stroke-linejoin="round" d="M 10411,23499 L 10411,23349"/>
 <path fill="none" stroke="rgb(179,179,179)" stroke-linejoin="round" d="M 10521,23499 L 10521,23349"/>
 <path fill="none" stroke="rgb(179,179,179)" stroke-linejoin="round" d="M 10521,23499 L 10521,23349"/>
 <path fill="none" stroke="rgb(179,179,179)" stroke-linejoin="round" d="M 10631,23499 L 10631,23349"/>
 <path fill="none" stroke="rgb(179,179,179)" stroke-linejoin="round" d="M 10631,23499 L 10631,23349"/>
 <path fill="none" stroke="rgb(179,179,179)" stroke-linejoin="round" d="M 10740,23499 L 10740,23349"/>
 <path fill="none" stroke="rgb(179,179,179)" stroke-linejoin="round" d="M 10740,23499 L 10740,23349"/>
 <path fill="none" stroke="rgb(179,179,179)" stroke-linejoin="round" d="M 10850,23499 L 10850,23349"/>
 <path fill="none" stroke="rgb(179,179,179)" stroke-linejoin="round" d="M 10850,23499 L 10850,23349"/>
 <path fill="none" stroke="rgb(179,179,179)" stroke-linejoin="round" d="M 10960,23499 L 10960,23349"/>
 <path fill="none" stroke="rgb(179,179,179)" stroke-linejoin="round" d="M 10960,23499 L 10960,23349"/>
 <path fill="none" stroke="rgb(179,179,179)" stroke-linejoin="round" d="M 11070,23499 L 11070,23349"/>
 <path fill="none" stroke="rgb(179,179,179)" stroke-linejoin="round" d="M 11070,23499 L 11070,23349"/>
 <path fill="none" stroke="rgb(179,179,179)" stroke-linejoin="round" d="M 11179,23499 L 11179,23349"/>
 <path fill="none" stroke="rgb(179,179,179)" stroke-linejoin="round" d="M 11179,23499 L 11179,23349"/>
 <path fill="none" stroke="rgb(179,179,179)" stroke-linejoin="round" d="M 11289,23499 L 11289,23349"/>
 <path fill="none" stroke="rgb(179,179,179)" stroke-linejoin="round" d="M 11289,23499 L 11289,23349"/>
 <path fill="none" stroke="rgb(179,179,179)" stroke-linejoin="round" d="M 11399,23499 L 11399,23349"/>
 <path fill="none" stroke="rgb(179,179,179)" stroke-linejoin="round" d="M 11399,23499 L 11399,23349"/>
 <path fill="none" stroke="rgb(179,179,179)" stroke-linejoin="round" d="M 11508,23499 L 11508,23349"/>
 <path fill="none" stroke="rgb(179,179,179)" stroke-linejoin="round" d="M 11508,23499 L 11508,23349"/>
 <path fill="none" stroke="rgb(179,179,179)" stroke-linejoin="round" d="M 11618,23499 L 11618,23349"/>
 <path fill="none" stroke="rgb(179,179,179)" stroke-linejoin="round" d="M 11618,23499 L 11618,23349"/>
 <path fill="none" stroke="rgb(179,179,179)" stroke-linejoin="round" d="M 11728,23499 L 11728,23349"/>
 <path fill="none" stroke="rgb(179,179,179)" stroke-linejoin="round" d="M 11728,23499 L 11728,23349"/>
 <path fill="none" stroke="rgb(179,179,179)" stroke-linejoin="round" d="M 11837,23499 L 11837,23349"/>
 <path fill="none" stroke="rgb(179,179,179)" stroke-linejoin="round" d="M 11837,23499 L 11837,23349"/>
 <path fill="none" stroke="rgb(179,179,179)" stroke-linejoin="round" d="M 11946,23499 L 11946,23349"/>
 <path fill="none" stroke="rgb(179,179,179)" stroke-linejoin="round" d="M 11946,23499 L 11946,23349"/>
 <path fill="none" stroke="rgb(179,179,179)" stroke-linejoin="round" d="M 12056,23499 L 12056,23349"/>
 <path fill="none" stroke="rgb(179,179,179)" stroke-linejoin="round" d="M 12056,23499 L 12056,23349"/>
 <path fill="none" stroke="rgb(179,179,179)" stroke-linejoin="round" d="M 12166,23499 L 12166,23349"/>
 <path fill="none" stroke="rgb(179,179,179)" stroke-linejoin="round" d="M 12166,23499 L 12166,23349"/>
 <path fill="none" stroke="rgb(179,179,179)" stroke-linejoin="round" d="M 12276,23499 L 12276,23349"/>
 <path fill="none" stroke="rgb(179,179,179)" stroke-linejoin="round" d="M 12276,23499 L 12276,23349"/>
 <path fill="none" stroke="rgb(179,179,179)" stroke-linejoin="round" d="M 12385,23499 L 12385,23349"/>
 <path fill="none" stroke="rgb(179,179,179)" stroke-linejoin="round" d="M 12385,23499 L 12385,23349"/>
 <path fill="none" stroke="rgb(179,179,179)" stroke-linejoin="round" d="M 12495,23499 L 12495,23349"/>
 <path fill="none" stroke="rgb(179,179,179)" stroke-linejoin="round" d="M 12495,23499 L 12495,23349"/>
 <path fill="none" stroke="rgb(179,179,179)" stroke-linejoin="round" d="M 12605,23499 L 12605,23349"/>
 <path fill="none" stroke="rgb(179,179,179)" stroke-linejoin="round" d="M 12605,23499 L 12605,23349"/>
 <path fill="none" stroke="rgb(179,179,179)" stroke-linejoin="round" d="M 12715,23499 L 12715,23349"/>
 <path fill="none" stroke="rgb(179,179,179)" stroke-linejoin="round" d="M 12715,23499 L 12715,23349"/>
 <path fill="none" stroke="rgb(179,179,179)" stroke-linejoin="round" d="M 12824,23499 L 12824,23349"/>
 <path fill="none" stroke="rgb(179,179,179)" stroke-linejoin="round" d="M 12824,23499 L 12824,23349"/>
 <path fill="none" stroke="rgb(179,179,179)" stroke-linejoin="round" d="M 12934,23499 L 12934,23349"/>
 <path fill="none" stroke="rgb(179,179,179)" stroke-linejoin="round" d="M 12934,23499 L 12934,23349"/>
 <path fill="none" stroke="rgb(179,179,179)" stroke-linejoin="round" d="M 13044,23499 L 13044,23349"/>
 <path fill="none" stroke="rgb(179,179,179)" stroke-linejoin="round" d="M 13044,23499 L 13044,23349"/>
 <path fill="none" stroke="rgb(179,179,179)" stroke-linejoin="round" d="M 13154,23499 L 13154,23349"/>
 <path fill="none" stroke="rgb(179,179,179)" stroke-linejoin="round" d="M 13154,23499 L 13154,23349"/>
 <path fill="none" stroke="rgb(179,179,179)" stroke-linejoin="round" d="M 13263,23499 L 13263,23349"/>
 <path fill="none" stroke="rgb(179,179,179)" stroke-linejoin="round" d="M 13263,23499 L 13263,23349"/>
 <path fill="none" stroke="rgb(179,179,179)" stroke-linejoin="round" d="M 13373,23499 L 13373,23349"/>
 <path fill="none" stroke="rgb(179,179,179)" stroke-linejoin="round" d="M 13373,23499 L 13373,23349"/>
 <path fill="none" stroke="rgb(179,179,179)" stroke-linejoin="round" d="M 13483,23499 L 13483,23349"/>
 <path fill="none" stroke="rgb(179,179,179)" stroke-linejoin="round" d="M 13483,23499 L 13483,23349"/>
 <path fill="none" stroke="rgb(179,179,179)" stroke-linejoin="round" d="M 13593,23499 L 13593,23349"/>
 <path fill="none" stroke="rgb(179,179,179)" stroke-linejoin="round" d="M 13593,23499 L 13593,23349"/>
 <path fill="none" stroke="rgb(179,179,179)" stroke-linejoin="round" d="M 13702,23499 L 13702,23349"/>
 <path fill="none" stroke="rgb(179,179,179)" stroke-linejoin="round" d="M 13702,23499 L 13702,23349"/>
 <path fill="none" stroke="rgb(179,179,179)" stroke-linejoin="round" d="M 13812,23499 L 13812,23349"/>
 <path fill="none" stroke="rgb(179,179,179)" stroke-linejoin="round" d="M 13812,23499 L 13812,23349"/>
 <path fill="none" stroke="rgb(179,179,179)" stroke-linejoin="round" d="M 13922,23499 L 13922,23349"/>
 <path fill="none" stroke="rgb(179,179,179)" stroke-linejoin="round" d="M 13922,23499 L 13922,23349"/>
 <path fill="none" stroke="rgb(179,179,179)" stroke-linejoin="round" d="M 14031,23499 L 14031,23349"/>
 <path fill="none" stroke="rgb(179,179,179)" stroke-linejoin="round" d="M 14031,23499 L 14031,23349"/>
 <path fill="none" stroke="rgb(179,179,179)" stroke-linejoin="round" d="M 14141,23499 L 14141,23349"/>
 <path fill="none" stroke="rgb(179,179,179)" stroke-linejoin="round" d="M 14141,23499 L 14141,23349"/>
 <path fill="none" stroke="rgb(179,179,179)" stroke-linejoin="round" d="M 14251,23499 L 14251,23349"/>
 <path fill="none" stroke="rgb(179,179,179)" stroke-linejoin="round" d="M 14251,23499 L 14251,23349"/>
 <path fill="none" stroke="rgb(179,179,179)" stroke-linejoin="round" d="M 14361,23499 L 14361,23349"/>
 <path fill="none" stroke="rgb(179,179,179)" stroke-linejoin="round" d="M 14361,23499 L 14361,23349"/>
 <path fill="none" stroke="rgb(179,179,179)" stroke-linejoin="round" d="M 14470,23499 L 14470,23349"/>
 <path fill="none" stroke="rgb(179,179,179)" stroke-linejoin="round" d="M 14470,23499 L 14470,23349"/>
 <path fill="none" stroke="rgb(179,179,179)" stroke-linejoin="round" d="M 14580,23499 L 14580,23349"/>
 <path fill="none" stroke="rgb(179,179,179)" stroke-linejoin="round" d="M 14580,23499 L 14580,23349"/>
 <path fill="none" stroke="rgb(179,179,179)" stroke-linejoin="round" d="M 14690,23499 L 14690,23349"/>
 <path fill="none" stroke="rgb(179,179,179)" stroke-linejoin="round" d="M 14690,23499 L 14690,23349"/>
 <path fill="none" stroke="rgb(179,179,179)" stroke-linejoin="round" d="M 14800,23499 L 14800,23349"/>
 <path fill="none" stroke="rgb(179,179,179)" stroke-linejoin="round" d="M 14800,23499 L 14800,23349"/>
 <path fill="none" stroke="rgb(179,179,179)" stroke-linejoin="round" d="M 14909,23499 L 14909,23349"/>
 <path fill="none" stroke="rgb(179,179,179)" stroke-linejoin="round" d="M 14909,23499 L 14909,23349"/>
 <path fill="none" stroke="rgb(179,179,179)" stroke-linejoin="round" d="M 15019,23499 L 15019,23349"/>
 <path fill="none" stroke="rgb(179,179,179)" stroke-linejoin="round" d="M 15019,23499 L 15019,23349"/>
 <path fill="none" stroke="rgb(179,179,179)" stroke-linejoin="round" d="M 15129,23499 L 15129,23349"/>
 <path fill="none" stroke="rgb(179,179,179)" stroke-linejoin="round" d="M 15129,23499 L 15129,23349"/>
 <path fill="none" stroke="rgb(179,179,179)" stroke-linejoin="round" d="M 15239,23499 L 15239,23349"/>
 <path fill="none" stroke="rgb(179,179,179)" stroke-linejoin="round" d="M 15239,23499 L 15239,23349"/>
 <path fill="none" stroke="rgb(179,179,179)" stroke-linejoin="round" d="M 15348,23499 L 15348,23349"/>
 <path fill="none" stroke="rgb(179,179,179)" stroke-linejoin="round" d="M 15348,23499 L 15348,23349"/>
 <path fill="none" stroke="rgb(179,179,179)" stroke-linejoin="round" d="M 15458,23499 L 15458,23349"/>
 <path fill="none" stroke="rgb(179,179,179)" stroke-linejoin="round" d="M 15458,23499 L 15458,23349"/>
 <path fill="none" stroke="rgb(179,179,179)" stroke-linejoin="round" d="M 15568,23499 L 15568,23349"/>
 <path fill="none" stroke="rgb(179,179,179)" stroke-linejoin="round" d="M 15568,23499 L 15568,23349"/>
 <path fill="none" stroke="rgb(179,179,179)" stroke-linejoin="round" d="M 15678,23499 L 15678,23349"/>
 <path fill="none" stroke="rgb(179,179,179)" stroke-linejoin="round" d="M 15678,23499 L 15678,23349"/>
 <path fill="none" stroke="rgb(179,179,179)" stroke-linejoin="round" d="M 15787,23499 L 15787,23349"/>
 <path fill="none" stroke="rgb(179,179,179)" stroke-linejoin="round" d="M 15787,23499 L 15787,23349"/>
 <path fill="none" stroke="rgb(179,179,179)" stroke-linejoin="round" d="M 15897,23499 L 15897,23349"/>
 <path fill="none" stroke="rgb(179,179,179)" stroke-linejoin="round" d="M 15897,23499 L 15897,23349"/>
 <path fill="none" stroke="rgb(179,179,179)" stroke-linejoin="round" d="M 16007,23499 L 16007,23349"/>
 <path fill="none" stroke="rgb(179,179,179)" stroke-linejoin="round" d="M 16007,23499 L 16007,23349"/>
 <path fill="none" stroke="rgb(179,179,179)" stroke-linejoin="round" d="M 16117,23499 L 16117,23349"/>
 <path fill="none" stroke="rgb(179,179,179)" stroke-linejoin="round" d="M 16117,23499 L 16117,23349"/>
 <path fill="none" stroke="rgb(179,179,179)" stroke-linejoin="round" d="M 16226,23499 L 16226,23349"/>
 <path fill="none" stroke="rgb(179,179,179)" stroke-linejoin="round" d="M 16226,23499 L 16226,23349"/>
 <path fill="none" stroke="rgb(179,179,179)" stroke-linejoin="round" d="M 16336,23499 L 16336,23349"/>
 <path fill="none" stroke="rgb(179,179,179)" stroke-linejoin="round" d="M 16336,23499 L 16336,23349"/>
 <path fill="none" stroke="rgb(179,179,179)" stroke-linejoin="round" d="M 16446,23499 L 16446,23349"/>
 <path fill="none" stroke="rgb(179,179,179)" stroke-linejoin="round" d="M 16446,23499 L 16446,23349"/>
 <path fill="none" stroke="rgb(179,179,179)" stroke-linejoin="round" d="M 16555,23499 L 16555,23349"/>
 <path fill="none" stroke="rgb(179,179,179)" stroke-linejoin="round" d="M 16555,23499 L 16555,23349"/>
 <path fill="none" stroke="rgb(179,179,179)" stroke-linejoin="round" d="M 16665,23499 L 16665,23349"/>
 <path fill="none" stroke="rgb(179,179,179)" stroke-linejoin="round" d="M 16665,23499 L 16665,23349"/>
 <path fill="none" stroke="rgb(179,179,179)" stroke-linejoin="round" d="M 16775,23499 L 16775,23349"/>
 <path fill="none" stroke="rgb(179,179,179)" stroke-linejoin="round" d="M 16775,23499 L 16775,23349"/>
 <path fill="none" stroke="rgb(179,179,179)" stroke-linejoin="round" d="M 16885,23499 L 16885,23349"/>
 <path fill="none" stroke="rgb(179,179,179)" stroke-linejoin="round" d="M 16885,23499 L 16885,23349"/>
 <path fill="none" stroke="rgb(179,179,179)" stroke-linejoin="round" d="M 16994,23499 L 16994,23349"/>
 <path fill="none" stroke="rgb(179,179,179)" stroke-linejoin="round" d="M 16994,23499 L 16994,23349"/>
 <path fill="none" stroke="rgb(179,179,179)" stroke-linejoin="round" d="M 17104,23499 L 17104,23349"/>
 <path fill="none" stroke="rgb(179,179,179)" stroke-linejoin="round" d="M 17104,23499 L 17104,23349"/>
 <path fill="none" stroke="rgb(179,179,179)" stroke-linejoin="round" d="M 17214,23499 L 17214,23349"/>
 <path fill="none" stroke="rgb(179,179,179)" stroke-linejoin="round" d="M 17214,23499 L 17214,23349"/>
 <path fill="none" stroke="rgb(179,179,179)" stroke-linejoin="round" d="M 17324,23499 L 17324,23349"/>
 <path fill="none" stroke="rgb(179,179,179)" stroke-linejoin="round" d="M 17324,23499 L 17324,23349"/>
 <path fill="none" stroke="rgb(179,179,179)" stroke-linejoin="round" d="M 17433,23499 L 17433,23349"/>
 <path fill="none" stroke="rgb(179,179,179)" stroke-linejoin="round" d="M 17433,23499 L 17433,23349"/>
 <path fill="none" stroke="rgb(179,179,179)" stroke-linejoin="round" d="M 17543,23499 L 17543,23349"/>
 <path fill="none" stroke="rgb(179,179,179)" stroke-linejoin="round" d="M 17543,23499 L 17543,23349"/>
 <path fill="none" stroke="rgb(179,179,179)" stroke-linejoin="round" d="M 17653,23499 L 17653,23349"/>
 <path fill="none" stroke="rgb(179,179,179)" stroke-linejoin="round" d="M 17653,23499 L 17653,23349"/>
 <path fill="none" stroke="rgb(179,179,179)" stroke-linejoin="round" d="M 17763,23499 L 17763,23349"/>
 <path fill="none" stroke="rgb(179,179,179)" stroke-linejoin="round" d="M 17763,23499 L 17763,23349"/>
 <path fill="none" stroke="rgb(179,179,179)" stroke-linejoin="round" d="M 17872,23499 L 17872,23349"/>
 <path fill="none" stroke="rgb(179,179,179)" stroke-linejoin="round" d="M 17872,23499 L 17872,23349"/>
 <path fill="none" stroke="rgb(179,179,179)" stroke-linejoin="round" d="M 17982,23499 L 17982,23349"/>
 <path fill="none" stroke="rgb(179,179,179)" stroke-linejoin="round" d="M 17982,23499 L 17982,23349"/>
 <path fill="none" stroke="rgb(179,179,179)" stroke-linejoin="round" d="M 18092,23499 L 18092,23349"/>
 <path fill="none" stroke="rgb(179,179,179)" stroke-linejoin="round" d="M 18092,23499 L 18092,23349"/>
 <path fill="none" stroke="rgb(179,179,179)" stroke-linejoin="round" d="M 18202,23499 L 18202,23349"/>
 <path fill="none" stroke="rgb(179,179,179)" stroke-linejoin="round" d="M 18202,23499 L 18202,23349"/>
 <path fill="none" stroke="rgb(179,179,179)" stroke-linejoin="round" d="M 18311,23499 L 18311,23349"/>
 <path fill="none" stroke="rgb(179,179,179)" stroke-linejoin="round" d="M 18311,23499 L 18311,23349"/>
 <path fill="none" stroke="rgb(179,179,179)" stroke-linejoin="round" d="M 18421,23499 L 18421,23349"/>
 <path fill="none" stroke="rgb(179,179,179)" stroke-linejoin="round" d="M 18421,23499 L 18421,23349"/>
 <path fill="none" stroke="rgb(179,179,179)" stroke-linejoin="round" d="M 18531,23499 L 18531,23349"/>
 <path fill="none" stroke="rgb(179,179,179)" stroke-linejoin="round" d="M 18531,23499 L 18531,23349"/>
 <path fill="none" stroke="rgb(179,179,179)" stroke-linejoin="round" d="M 18641,23499 L 18641,23349"/>
 <path fill="none" stroke="rgb(179,179,179)" stroke-linejoin="round" d="M 18641,23499 L 18641,23349"/>
 <path fill="none" stroke="rgb(179,179,179)" stroke-linejoin="round" d="M 1413,23349 L 18641,23349"/>
 <path fill="none" stroke="rgb(179,179,179)" stroke-linejoin="round" d="M 1263,23349 L 1413,23349"/>
 <path fill="none" stroke="rgb(179,179,179)" stroke-linejoin="round" d="M 1263,23349 L 1413,23349"/>
 <path fill="none" stroke="rgb(179,179,179)" stroke-linejoin="round" d="M 1263,19742 L 1413,19742"/>
 <path fill="none" stroke="rgb(179,179,179)" stroke-linejoin="round" d="M 1263,19742 L 1413,19742"/>
 <path fill="none" stroke="rgb(179,179,179)" stroke-linejoin="round" d="M 1263,16136 L 1413,16136"/>
 <path fill="none" stroke="rgb(179,179,179)" stroke-linejoin="round" d="M 1263,16136 L 1413,16136"/>
 <path fill="none" stroke="rgb(179,179,179)" stroke-linejoin="round" d="M 1263,12529 L 1413,12529"/>
 <path fill="none" stroke="rgb(179,179,179)" stroke-linejoin="round" d="M 1263,12529 L 1413,12529"/>
 <path fill="none" stroke="rgb(179,179,179)" stroke-linejoin="round" d="M 1263,8924 L 1413,8924"/>
 <path fill="none" stroke="rgb(179,179,179)" stroke-linejoin="round" d="M 1263,8924 L 1413,8924"/>
 <path fill="none" stroke="rgb(179,179,179)" stroke-linejoin="round" d="M 1263,5317 L 1413,5317"/>
 <path fill="none" stroke="rgb(179,179,179)" stroke-linejoin="round" d="M 1263,5317 L 1413,5317"/>
 <path fill="none" stroke="rgb(179,179,179)" stroke-linejoin="round" d="M 1263,1711 L 1413,1711"/>
 <path fill="none" stroke="rgb(179,179,179)" stroke-linejoin="round" d="M 1263,1711 L 1413,1711"/>
 <path fill="none" stroke="rgb(179,179,179)" stroke-linejoin="round" d="M 1413,23349 L 1413,1711"/>
 <path fill="none" stroke="rgb(141,40,30)" stroke-width="80" stroke-linejoin="round" stroke-dasharray="80,40" d="M 1467,23337 L 1577,23333 1687,23333 1797,23325 1906,23316 2016,23302 2126,23273 2236,23245 2345,23211 2455,23169 2565,23115 2674,23061 2784,22998 2894,22904 3004,22809 3113,22706 3223,22614 3333,22517 3443,22390 3552,22266 3662,22112 3772,21949 3882,21802 3991,21674 4101,21534 4211,21391 4321,21240 4430,21072 4540,20920 4650,20781 4760,20645 4869,20575 4979,20464 5089,20344 5198,20199 5308,20056 5418,19950 5528,19845 5637,19717 5747,19606 5857,19478 5967,19321 6076,19238 6186,19075 6296,18967 6406,18877 6515,18780 6625,18670 6735,18702 6845,18581 6954,18493 7064,18386 7174,18309 7284,18204 7393,18080 7503,17967 7613,17850 7722,17791 7832,17708 7942,17701 8052,17576 8161,17543 8271,17419 8381,17313 8491,17279 8600,17201 8710,17146 8820,17077 8930,16983 9039,16874 9149,17031 9259,16979 9369,16899 9478,16866 9588,16798 9698,16743 9808,16671 9917,16579 10027,16506 10137,16555 10246,16538 10356,16460 10466,16441 10576,16361 10685,16266 10795,16195 10905,16131 11015,16106 11124,16046 11234,15985 11344,15902 11454,15807 11563,15722 11673,15644 11783,15619 11892,15533 12001,15445 12111,15335 12221,15209 12331,15092 12440,14975 12550,14910 12660,14762 12769,14623 12879,14449 12989,14246 13099,14062 13208,13880 13318,13768 13428,13607 13538,13383 13647,13374 13757,13133 13867,13450 13977,13248 14086,13100 14196,12847 14306,12624 14416,12372 14525,12084 14635,11827 14745,11566 14855,11385 14964,11117 15074,10901 15184,10566 15293,10271 15403,10014 15513,9725 15623,9551 15732,9325 15842,9102 15952,8856 16062,8615 16171,8355 16281,8159 16391,8010 16501,7819 16610,7627 16720,7398 16830,7170 16940,6987 17049,6767 17159,6766 17269,6545 17379,6531 17488,6326 17598,6153 17708,5958 17817,5780 17927,5589 18037,5580 18147,5494 18256,5332 18366,5108 18476,4973 18586,4826"/>
 <path fill="none" stroke="rgb(255,64,0)" stroke-width="80" stroke-linejoin="round" stroke-dasharray="80,40" d="M 1467,23347 L 1577,23347 1687,23347 1797,23347 1906,23346 2016,23345 2126,23343 2236,23342 2345,23340 2455,23336 2565,23332 2674,23330 2784,23327 2894,23324 3004,23320 3113,23316 3223,23314 3333,23312 3443,23303 3552,23294 3662,23284 3772,23276 3882,23265 3991,23259 4101,23251 4211,23236 4321,23219 4430,23204 4540,23192 4650,23184 4760,23172 4869,23162 4979,23173 5089,23242 5198,23226 5308,23200 5418,23176 5528,23229 5637,23212 5747,23201 5857,23200 5967,23178 6076,23156 6186,23127 6296,23105 6406,23079 6515,23046 6625,23009 6735,22964 6845,22943 6954,22929 7064,22909 7174,22878 7284,22845 7393,22783 7503,22744 7613,22690 7722,22638 7832,22613 7942,22580 8052,22558 8161,22513 8271,22417 8381,22327 8491,22261 8600,22238 8710,22177 8820,22100 8930,22024 9039,21956 9149,21868 9259,21797 9369,21730 9478,21671 9588,21582 9698,21485 9808,21363 9917,21245 10027,21068 10137,20980 10246,20926 10356,20797 10466,20693 10576,20582 10685,20430 10795,20295 10905,20196 11015,20870 11124,20765 11234,20642 11344,20531 11454,20447 11563,20392 11673,20334 11783,20237 11892,20056 12001,20057 12111,19989 12221,19679 12331,19607 12440,19574 12550,19499 12660,19399 12769,19322 12879,19159 12989,18963 13099,18859 13208,18761 13318,18662 13428,18645 13538,18506 13647,19297 13757,19178 13867,18918 13977,19027 14086,19145 14196,19148 14306,19059 14416,18976 14525,18993 14635,18898 14745,18869 14855,18927 14964,18856 15074,18754 15184,18782 15293,18765 15403,18691 15513,18597 15623,18899 15732,18911 15842,18656 15952,18399 16062,18553 16171,18912 16281,18942 16391,19036 16501,18885 16610,18771 16720,18578 16830,18585 16940,18456 17049,18453 17159,18623 17269,18692 17379,18498 17488,18398 17598,18336 17708,18337 17817,18447 17927,18554 18037,18618 18147,18643 18256,18270 18366,19071 18476,18366 18586,18448"/>
 <path fill="none" stroke="rgb(0,223,255)" stroke-width="80" stroke-linejoin="round" stroke-dasharray="158,102" d="M 1467,23348 L 1577,23348 1687,23348 1797,23347 1906,23347 2016,23347 2126,23346 2236,23345 2345,23345 2455,23344 2565,23343 2674,23343 2784,23341 2894,23339 3004,23336 3113,23334 3223,23330 3333,23327 3443,23321 3552,23317 3662,23308 3772,23301 3882,23295 3991,23287 4101,23276 4211,23263 4321,23249 4430,23233 4540,23212 4650,23195 4760,23171 4869,23142 4979,23111 5089,23073 5198,23035 5308,22988 5418,22936 5528,22864 5637,22814 5747,22750 5857,22693 5967,22640 6076,22577 6186,22512 6296,22441 6406,22372 6515,22308 6625,22259 6735,22189 6845,22112 6954,22016 7064,21906 7174,21794 7284,21692 7393,21581 7503,21474 7613,21377 7722,21310 7832,21205 7942,21130 8052,21043 8161,20975 8271,20922 8381,20850 8491,20799 8600,20732 8710,20658 8820,20618 8930,20626 9039,20608 9149,20588 9259,20574 9369,20536 9478,20494 9588,20539 9698,20574 9808,20582 9917,20581 10027,20574 10137,20516 10246,20457 10356,20487 10466,20495 10576,20495 10685,20488 10795,20489 10905,20445 11015,20385 11124,20425 11234,20452 11344,20449 11454,20442 11563,20401 11673,20361 11783,20316 11892,20338 12001,20367 12111,20392 12221,20425 12331,20455 12440,20424 12550,20390 12660,20449 12769,20515 12879,20507 12989,20536 13099,20567 13208,20555 13318,20527 13428,20560 13538,20609 13647,20602 13757,20631 13867,20662 13977,20628 14086,20593 14196,20635 14306,20662 14416,20693 14525,20709 14635,20733 14745,20698 14855,20655 14964,20689 15074,20740 15184,20767 15293,20785 15403,20802 15513,20771 15623,20739 15732,20777 15842,20826 15952,20858 16062,20893 16171,20925 16281,20894 16391,20864 16501,20908 16610,20943 16720,20992 16830,21034 16940,21068 17049,21048 17159,21024 17269,21060 17379,21091 17488,21118 17598,21144 17708,21163 17817,21140 17927,21118 18037,21139 18147,21166 18256,21180 18366,21200 18476,21219 18586,21203"/>
 <path fill="none" stroke="rgb(21,132,102)" stroke-width="80" stroke-linejoin="round" stroke-dasharray="80,203,80,203,203,203" d="M 1467,23332 L 1577,23330 1687,23328 1797,23326 1906,23323 2016,23319 2126,23313 2236,23307 2345,23301 2455,23295 2565,23286 2674,23279 2784,23270 2894,23258 3004,23246 3113,23233 3223,23222 3333,23212 3443,23198 3552,23185 3662,23172 3772,23158 3882,23145 3991,23133 4101,23121 4211,23111 4321,23099 4430,23087 4540,23073 4650,23063 4760,23047 4869,23038 4979,23029 5089,23021 5198,23007 5308,22995 5418,22985 5528,22975 5637,22964 5747,22957 5857,22948 5967,22935 6076,22928 6186,22916 6296,22907 6406,22898 6515,22890 6625,22884 6735,22881 6845,22871 6954,22863 7064,22853 7174,22844 7284,22835 7393,22827 7503,22816 7613,22805 7722,22799 7832,22790 7942,22784 8052,22774 8161,22769 8271,22757 8381,22747 8491,22739 8600,22731 8710,22723 8820,22714 8930,22705 9039,22693 9149,22695 9259,22684 9369,22676 9478,22671 9588,22663 9698,22655 9808,22644 9917,22635 10027,22620 10137,22614 10246,22605 10356,22602 10466,22594 10576,22582 10685,22569 10795,22555 10905,22543 11015,22555 11124,22546 11234,22535 11344,22524 11454,22513 11563,22503 11673,22489 11783,22481 11892,22472 12001,22468 12111,22456 12221,22437 12331,22429 12440,22416 12550,22406 12660,22393 12769,22381 12879,22363 12989,22344 13099,22329 13208,22313 13318,22299 13428,22287 13538,22264 13647,22283 13757,22263 13867,22264 13977,22251 14086,22241 14196,22228 14306,22216 14416,22196 14525,22176 14635,22156 14745,22138 14855,22127 14964,22110 15074,22094 15184,22072 15293,22060 15403,22042 15513,22013 15623,22003 15732,21991 15842,21968 15952,21945 16062,21934 16171,21927 16281,21911 16391,21899 16501,21882 16610,21864 16720,21852 16830,21832 16940,21818 17049,21797 17159,21803 17269,21796 17379,21786 17488,21766 17598,21747 17708,21734 17817,21724 17927,21711 18037,21724 18147,21717 18256,21691 18366,21700 18476,21672 18586,21677"/>
 <path fill="none" stroke="rgb(191,0,65)" stroke-width="80" stroke-linejoin="round" stroke-dasharray="51,127,51,127,254,127,254,127,254,127" d="M 1467,23337 L 1577,23332 1687,23329 1797,23325 1906,23319 2016,23314 2126,23306 2236,23298 2345,23287 2455,23279 2565,23267 2674,23255 2784,23241 2894,23225 3004,23206 3113,23187 3223,23168 3333,23153 3443,23136 3552,23119 3662,23098 3772,23072 3882,23051 3991,23033 4101,23020 4211,23000 4321,22981 4430,22963 4540,22945 4650,22927 4760,22916 4869,22907 4979,22901 5089,22895 5198,22881 5308,22871 5418,22861 5528,22848 5637,22845 5747,22841 5857,22838 5967,22831 6076,22833 6186,22830 6296,22823 6406,22822 6515,22825 6625,22825 6735,22834 6845,22835 6954,22838 7064,22836 7174,22838 7284,22837 7393,22845 7503,22849 7613,22859 7722,22864 7832,22861 7942,22861 8052,22868 8161,22875 8271,22895 8381,22899 8491,22900 8600,22904 8710,22918 8820,22920 8930,22919 9039,22928 9149,22930 9259,22935 9369,22932 9478,22931 9588,22942 9698,22945 9808,22955 9917,22954 10027,22957 10137,22960 10246,22958 10356,22960 10466,22964 10576,22962 10685,22962 10795,22959 10905,22952 11015,22946 11124,22942 11234,22941 11344,22938 11454,22932 11563,22927 11673,22919 11783,22914 11892,22913 12001,22905 12111,22903 12221,22902 12331,22900 12440,22901 12550,22901 12660,22900 12769,22900 12879,22902 12989,22903 13099,22903 13208,22904 13318,22899 13428,22894 13538,22892 13647,22882 13757,22877 13867,22872 13977,22872 14086,22869 14196,22864 14306,22863 14416,22855 14525,22849 14635,22840 14745,22836 14855,22835 14964,22824 15074,22823 15184,22811 15293,22800 15403,22785 15513,22771 15623,22760 15732,22768 15842,22750 15952,22735 16062,22721 16171,22696 16281,22708 16391,22687 16501,22663 16610,22635 16720,22605 16830,22580 16940,22556 17049,22535 17159,22516 17269,22489 17379,22465 17488,22446 17598,22422 17708,22395 17817,22370 17927,22355 18037,22331 18147,22307 18256,22277 18366,22252 18476,22224 18586,22199"/>
 <path fill="none" stroke="rgb(255,211,32)" stroke-width="80" stroke-linejoin="round" d="M 1467,23325 L 1577,23317 1687,23306 1797,23299 1906,23282 2016,23271 2126,23232 2236,23209 2345,23182 2455,23161 2565,23142 2674,23116 2784,23073 2894,23028 3004,22968 3113,22909 3223,22879 3333,22851 3443,22804 3552,22775 3662,22718 3772,22681 3882,22619 3991,22604 4101,22570 4211,22547 4321,22510 4430,22480 4540,22462 4650,22458 4760,22441 4869,22440 4979,22455 5089,22468 5198,22457 5308,22473 5418,22473 5528,22462 5637,22482 5747,22493 5857,22518 5967,22536 6076,22559 6186,22560 6296,22567 6406,22608 6515,22620 6625,22634 6735,22653 6845,22654 6954,22667 7064,22684 7174,22715 7284,22737 7393,22758 7503,22778 7613,22778 7722,22781 7832,22781 7942,22813 8052,22835 8161,22855 8271,22874 8381,22889 8491,22888 8600,22891 8710,22903 8820,22907 8930,22913 9039,22924 9149,22932 9259,22922 9369,22917 9478,22927 9588,22934 9698,22945 9808,22951 9917,22948 10027,22950 10137,22946 10246,22955 10356,22952 10466,22950 10576,22951 10685,22958 10795,22952 10905,22943 11015,22949 11124,22949 11234,22947 11344,22951 11454,22945 11563,22937 11673,22933 11783,22938 11892,22941 12001,22939 12111,22927 12221,22911 12331,22905 12440,22900 12550,22902 12660,22884 12769,22869 12879,22864 12989,22840 13099,22798 13208,22751 13318,22724 13428,22703 13538,22692 13647,22674 13757,22655 13867,22635 13977,22624 14086,22617 14196,22604 14306,22599 14416,22601 14525,22601 14635,22585 14745,22578 14855,22589 14964,22583 15074,22572 15184,22571 15293,22564 15403,22546 15513,22536 15623,22523 15732,22499 15842,22496 15952,22489 16062,22458 16171,22464 16281,22755 16391,22723 16501,22675 16610,22626 16720,22589 16830,22570 16940,22552 17049,22538 17159,22521 17269,22491 17379,22468 17488,22503 17598,22520 17708,22493 17817,22477 17927,22486 18037,22478 18147,22460 18256,22433 18366,22411 18476,22383 18586,22369"/>
 <path fill="none" stroke="rgb(128,0,128)" stroke-width="80" stroke-linejoin="round" stroke-dasharray="158,158" d="M 1467,23348 L 1577,23348 1687,23348 1797,23348 1906,23348 2016,23348 2126,23348 2236,23348 2345,23348 2455,23348 2565,23348 2674,23348 2784,23348 2894,23348 3004,23347 3113,23347 3223,23347 3333,23347 3443,23347 3552,23346 3662,23346 3772,23345 3882,23345 3991,23344 4101,23343 4211,23342 4321,23342 4430,23341 4540,23340 4650,23339 4760,23338 4869,23337 4979,23336 5089,23335 5198,23334 5308,23333 5418,23332 5528,23330 5637,23329 5747,23328 5857,23327 5967,23326 6076,23325 6186,23323 6296,23322 6406,23321 6515,23319 6625,23318 6735,23316 6845,23314 6954,23312 7064,23310 7174,23307 7284,23305 7393,23302 7503,23299 7613,23296 7722,23294 7832,23291 7942,23288 8052,23286 8161,23284 8271,23281 8381,23280 8491,23279 8600,23275 8710,23273 8820,23269 8930,23266 9039,23262 9149,23258 9259,23253 9369,23248 9478,23244 9588,23241 9698,23236 9808,23231 9917,23236 10027,23231 10137,23227 10246,23222 10356,23216 10466,23209 10576,23202 10685,23197 10795,23190 10905,23183 11015,23179 11124,23174 11234,23161 11344,23163 11454,23158 11563,23153 11673,23148 11783,23148 11892,23146 12001,23139 12111,23135 12221,23129 12331,23127 12440,23121 12550,23116 12660,23109 12769,23105 12879,23101 12989,23091 13099,23083 13208,23074 13318,23067 13428,23061 13538,23052 13647,23051 13757,23041 13867,23029 13977,23018 14086,23009 14196,23002 14306,22996 14416,22987 14525,22978 14635,22967 14745,22954 14855,22941 14964,22931 15074,22916 15184,22901 15293,22879 15403,22860 15513,22838 15623,22822 15732,22811 15842,22791 15952,22773 16062,22752 16171,22737 16281,22714 16391,22701 16501,22683 16610,22660 16720,22638 16830,22610 16940,22607 17049,22591 17159,22582 17269,22582 17379,22570 17488,22555 17598,22540 17708,22527 17817,22519 17927,22512 18037,22507 18147,22494 18256,22484 18366,22476 18476,22463 18586,22464"/>
 <path fill="none" stroke="rgb(0,169,51)" stroke-width="80" stroke-linejoin="round" stroke-dasharray="80,40" d="M 1467,23348 L 1577,23348 1687,23348 1797,23347 1906,23347 2016,23347 2126,23346 2236,23346 2345,23345 2455,23344 2565,23343 2674,23343 2784,23342 2894,23340 3004,23339 3113,23337 3223,23335 3333,23334 3443,23332 3552,23330 3662,23329 3772,23335 3882,23332 3991,23329 4101,23325 4211,23320 4321,23315 4430,23312 4540,23307 4650,23302 4760,23312 4869,23309 4979,23306 5089,23303 5198,23297 5308,23290 5418,23282 5528,23279 5637,23273 5747,23264 5857,23251 5967,23237 6076,23222 6186,23273 6296,23279 6406,23278 6515,23296 6625,23284 6735,23265 6845,23259 6954,23242 7064,23238 7174,23220 7284,23255 7393,23249 7503,23224 7613,23236 7722,23233 7832,23212 7942,23213 8052,23230 8161,23223 8271,23214 8381,23211 8491,23205 8600,23199 8710,23196 8820,23190 8930,23179 9039,23168 9149,23162 9259,23149 9369,23149 9478,23152 9588,23143 9698,23130 9808,23120 9917,23122 10027,23118 10137,23111 10246,23120 10356,23112 10466,23113 10576,23091 10685,23083 10795,23079 10905,23074 11015,23091 11124,23084 11234,23070 11344,23057 11454,23043 11563,23044 11673,23035 11783,23063 11892,23053 12001,23038 12111,23019 12221,23018 12331,23019 12440,23010 12550,23025 12660,23007 12769,23012 12879,22991 12989,22988 13099,22989 13208,22991 13318,23021 13428,23016 13538,23003 13647,22991 13757,22984 13867,22984 13977,22981 14086,22988 14196,22977 14306,22958 14416,22941 14525,22934 14635,22919 14745,22931 14855,22945 14964,22938 15074,22952 15184,22946 15293,22946 15403,22946 15513,22648 15623,22694 15732,22671 15842,22636 15952,22602 16062,22618 16171,22609 16281,22627 16391,22682 16501,22654 16610,22669 16720,22648 16830,22638 16940,22623 17049,22666 17159,22756 17269,22738 17379,22724 17488,22693 17598,22677 17708,22694 17817,22739 17927,22794 18037,22771 18147,22754 18256,22735 18366,22719 18476,22747 18586,22774"/>
 <path fill="none" stroke="rgb(0,255,0)" stroke-width="80" stroke-linejoin="round" d="M 1467,23114 L 1577,23069 1687,22894 1797,22894 1906,22792 2016,22727 2126,22511 2236,22260 2345,21997 2455,21839 2565,21568 2674,21343 2784,21137 2894,20955 3004,21022 3113,20789 3223,20654 3333,20486 3443,20359 3552,20366 3662,20374 3772,20396 3882,20552 3991,20438 4101,20674 4211,20697 4321,20726 4430,20743 4540,20755 4650,20854 4760,20930 4869,21088 4979,21044 5089,21328 5198,21358 5308,21400 5418,21487 5528,21568 5637,21699 5747,21851 5857,21919 5967,22026 6076,22080 6186,22099 6296,22171 6406,22244 6515,22314 6625,22288 6735,22422 6845,22504 6954,22545 7064,22589 7174,22724 7284,22762 7393,22816 7503,22845 7613,22873 7722,22927 7832,22958 7942,22995 8052,22992 8161,23048 8271,23038 8381,23028 8491,23079 8600,23097 8710,23117 8820,23135 8930,23147 9039,23162 9149,23160 9259,23178 9369,23196 9478,23217 9588,23214 9698,23232 9808,23228 9917,23222 10027,23239 10137,23256 10246,23255 10356,23254 10466,23271 10576,23267 10685,23262 10795,23279 10905,23277 11015,23276 11124,23275 11234,23270 11344,23285 11454,23281 11563,23274 11673,23270 11783,23288 11892,23286 12001,23280 12111,23277 12221,23270 12331,23268 12440,23278 12550,23275 12660,23270 12769,23261 12879,23251 12989,23239 13099,23246 13208,23233 13318,23226 13428,23234 13538,23206 13647,23181 13757,23153 13867,23133 13977,23140 14086,23130 14196,23119 14306,23113 14416,23094 14525,23073 14635,23067 14745,23075 14855,23061 14964,23088 15074,23061 15184,23052 15293,23033 15403,23010 15513,23073 15623,23065 15732,23042 15842,23055 15952,23031 16062,22999 16171,22968 16281,22987 16391,23015 16501,23009 16610,22990 16720,22944 16830,22900 16940,22904 17049,22917 17159,22904 17269,22897 17379,22860 17488,22823 17598,22789 17708,22814 17817,22866 17927,22865 18037,22827 18147,22832 18256,22783 18366,22769 18476,22779 18586,22758"/>
 <path fill="none" stroke="rgb(0,169,51)" stroke-width="80" stroke-linejoin="round" stroke-dasharray="158,102" d="M 1467,23179 L 1577,23152 1687,23163 1797,23144 1906,23138 2016,23116 2126,23103 2236,23102 2345,23103 2455,23090 2565,23063 2674,23049 2784,23020 2894,22990 3004,22944 3113,22893 3223,22849 3333,22815 3443,22768 3552,22724 3662,22692 3772,22662 3882,22650 3991,22600 4101,22650 4211,22668 4321,22688 4430,22709 4540,22737 4650,22839 4760,22848 4869,22860 4979,22875 5089,22883 5198,22900 5308,22909 5418,22922 5528,22918 5637,22940 5747,22950 5857,22973 5967,22990 6076,23005 6186,23016 6296,23024 6406,23032 6515,23042 6625,23050 6735,23058 6845,23064 6954,23071 7064,23074 7174,23070 7284,23066 7393,23056 7503,23050 7613,23041 7722,23036 7832,23030 7942,23023 8052,23012 8161,22994 8271,22981 8381,22964 8491,22955 8600,22946 8710,22924 8820,22912 8930,22899 9039,22886 9149,22875 9259,22874 9369,22866 9478,22864 9588,22864 9698,22858 9808,22850 9917,22832 10027,22825 10137,22816 10246,22800 10356,22779 10466,22759 10576,22732 10685,22720 10795,22722 10905,22722 11015,22723 11124,22725 11234,22729 11344,22728 11454,22721 11563,22716 11673,22706 11783,22697 11892,22689 12001,22682 12111,22675 12221,22668 12331,22668 12440,22667 12550,22675 12660,22684 12769,22696 12879,22707 12989,22712 13099,22723 13208,22729 13318,22740 13428,22745 13538,22752 13647,22755 13757,22753 13867,22758 13977,22757 14086,22764 14196,22774 14306,22772 14416,22791 14525,22806 14635,22816 14745,22823 14855,22832 14964,22840 15074,22842 15184,22858 15293,22860 15403,22869 15513,22880 15623,22882 15732,22880 15842,22882 15952,22882 16062,22876 16171,22875 16281,22871 16391,22864 16501,22852 16610,22845 16720,22838 16830,22835 16940,22835 17049,22830 17159,22825 17269,22820 17379,22817 17488,22819 17598,22818 17708,22827 17817,22835 17927,22842 18037,22838 18147,22823 18256,22810 18366,22797 18476,22791 18586,22789"/>
 <path fill="none" stroke="rgb(180,120,4)" stroke-width="80" stroke-linejoin="round" d="M 1467,23103 L 1577,23094 1687,23082 1797,23064 1906,23037 2016,23009 2126,22976 2236,22943 2345,22919 2455,22890 2565,22876 2674,22844 2784,22802 2894,22758 3004,22709 3113,22662 3223,22609 3333,22552 3443,22470 3552,22671 3662,22652 3772,22578 3882,22514 3991,22446 4101,22370 4211,22296 4321,22243 4430,22214 4540,22175 4650,22181 4760,22185 4869,22179 4979,22212 5089,22235 5198,22263 5308,22321 5418,22413 5528,22463 5637,22478 5747,22544 5857,22600 5967,22644 6076,22648 6186,22625 6296,22628 6406,22639 6515,22645 6625,22674 6735,22687 6845,22699 6954,22723 7064,22720 7174,22709 7284,22730 7393,22755 7503,22780 7613,22808 7722,22829 7832,22834 7942,22843 8052,22895 8161,22899 8271,22929 8381,22953 8491,22979 8600,22996 8710,23006 8820,23019 8930,23034 9039,23049 9149,23072 9259,23076 9369,23074 9478,23085 9588,23097 9698,23101 9808,23114 9917,23108 10027,23123 10137,23124 10246,23131 10356,23145 10466,23153 10576,23162 10685,23154 10795,23160 10905,23164 11015,23172 11124,23178 11234,23190 11344,23200 11454,23192 11563,23193 11673,23187 11783,23187 11892,23187 12001,23192 12111,23195 12221,23193 12331,23193 12440,23193 12550,23172 12660,23176 12769,23168 12879,23173 12989,23176 13099,23176 13208,23176 13318,23185 13428,23191 13538,23197 13647,23214 13757,23223 13867,23223 13977,23223 14086,23245 14196,23258 14306,23260 14416,23268 14525,23269 14635,23269 14745,23269 14855,23258 14964,23260 15074,23257 15184,23251 15293,23241 15403,23241 15513,23240 15623,23225 15732,23216 15842,23205 15952,23201 16062,23199 16171,23199 16281,23192 16391,23182 16501,23182 16610,23175 16720,23158 16830,23155 16940,23155 17049,23156 17159,23125 17269,23111 17379,23084 17488,23050 17598,23017 17708,23016 17817,23020 17927,22932 18037,22907 18147,22891 18256,22860 18366,22834 18476,22819 18586,22797"/>
 <path fill="none" stroke="rgb(0,127,255)" stroke-width="80" stroke-linejoin="round" d="M 1467,22902 L 1577,22819 1687,22734 1797,22660 1906,22571 2016,22492 2126,22359 2236,22199 2345,22076 2455,21958 2565,21833 2674,21737 2784,21633 2894,21499 3004,21368 3113,21259 3223,21145 3333,21096 3443,21033 3552,20945 3662,20872 3772,20802 3882,20716 3991,20627 4101,20569 4211,20543 4321,20507 4430,20459 4540,20418 4650,20358 4760,20299 4869,20258 4979,20238 5089,20204 5198,20169 5308,20158 5418,20134 5528,20120 5637,20120 5747,20136 5857,20136 5967,20162 6076,20171 6186,20192 6296,20184 6406,20193 6515,20211 6625,20227 6735,20320 6845,20338 6954,20345 7064,20361 7174,20367 7284,20412 7393,20619 7503,20675 7613,20725 7722,20818 7832,20863 7942,20888 8052,20925 8161,21009 8271,21069 8381,21199 8491,21255 8600,21310 8710,21364 8820,21406 8930,21477 9039,21530 9149,21579 9259,21626 9369,21661 9478,21699 9588,21770 9698,21828 9808,21917 9917,21971 10027,22045 10137,22094 10246,22115 10356,22159 10466,22176 10576,22202 10685,22246 10795,22278 10905,22297 11015,22313 11124,22368 11234,22403 11344,22435 11454,22484 11563,22529 11673,22565 11783,22576 11892,22616 12001,22635 12111,22660 12221,22706 12331,22716 12440,22723 12550,22733 12660,22765 12769,22792 12879,22803 12989,22822 13099,22846 13208,22851 13318,22857 13428,22884 13538,22894 13647,22899 13757,22905 13867,22912 13977,22912 14086,22910 14196,22924 14306,22943 14416,22947 14525,22948 14635,22952 14745,22955 14855,22956 14964,22963 15074,22976 15184,22976 15293,22977 15403,22980 15513,22977 15623,22979 15732,22983 15842,22981 15952,22979 16062,22982 16171,22977 16281,22974 16391,22973 16501,22972 16610,22972 16720,22984 16830,22978 16940,22977 17049,22977 17159,22976 17269,22976 17379,22971 17488,22970 17598,22963 17708,22962 17817,22953 17927,22950 18037,22944 18147,22937 18256,22929 18366,22924 18476,22919 18586,22909"/>
 <path fill="none" stroke="rgb(0,169,51)" stroke-width="80" stroke-linejoin="round" d="M 1467,23249 L 1577,23219 1687,23178 1797,23146 1906,23083 2016,23022 2126,22948 2236,22873 2345,22788 2455,22636 2565,22459 2674,22298 2784,22237 2894,21997 3004,21872 3113,21751 3223,21702 3333,21572 3443,21555 3552,21521 3662,21502 3772,21480 3882,21529 3991,21577 4101,21624 4211,21677 4321,21715 4430,21805 4540,21913 4650,21974 4760,22025 4869,22081 4979,22105 5089,22178 5198,22331 5308,22456 5418,22545 5528,22588 5637,22609 5747,22666 5857,22730 5967,22791 6076,22814 6186,22846 6296,22868 6406,22875 6515,22906 6625,22939 6735,22956 6845,22982 6954,22992 7064,22994 7174,23007 7284,23032 7393,23061 7503,23059 7613,23083 7722,23090 7832,23096 7942,23108 8052,23110 8161,23134 8271,23143 8381,23146 8491,23139 8600,23138 8710,23143 8820,23146 8930,23181 9039,23184 9149,23189 9259,23186 9369,23188 9478,23196 9588,23202 9698,23205 9808,23214 9917,23220 10027,23249 10137,23254 10246,23255 10356,23256 10466,23263 10576,23265 10685,23263 10795,23261 10905,23261 11015,23257 11124,23262 11234,23264 11344,23266 11454,23268 11563,23271 11673,23274 11783,23270 11892,23265 12001,23265 12111,23262 12221,23260 12331,23256 12440,23258 12550,23259 12660,23258 12769,23254 12879,23257 12989,23253 13099,23247 13208,23238 13318,23228 13428,23232 13538,23213 13647,23204 13757,23191 13867,23178 13977,23156 14086,23146 14196,23142 14306,23131 14416,23118 14525,23109 14635,23106 14745,23101 14855,23100 14964,23100 15074,23094 15184,23085 15293,23070 15403,23076 15513,23079 15623,23074 15732,23068 15842,23074 15952,23059 16062,23056 16171,23048 16281,23038 16391,23028 16501,23031 16610,23027 16720,23026 16830,23017 16940,23032 17049,23028 17159,23027 17269,23063 17379,23072 17488,23072 17598,23063 17708,23071 17817,23070 17927,23074 18037,23068 18147,23059 18256,23044 18366,23018 18476,22983 18586,22956"/>
 <path fill="none" stroke="rgb(0,0,0)" stroke-width="80" stroke-linejoin="round" d="M 1467,23271 L 1577,23251 1687,23225 1797,23194 1906,23151 2016,23086 2126,23022 2236,22927 2345,22877 2455,22821 2565,22732 2674,22712 2784,22626 2894,22531 3004,22404 3113,22299 3223,22222 3333,22213 3443,22166 3552,22095 3662,22030 3772,21943 3882,21880 3991,21845 4101,21780 4211,21851 4321,21957 4430,21989 4540,21939 4650,21954 4760,21960 4869,22002 4979,22060 5089,22093 5198,22129 5308,22188 5418,22197 5528,22216 5637,22257 5747,22314 5857,22359 5967,22396 6076,22500 6186,22470 6296,22492 6406,22528 6515,22569 6625,22602 6735,22641 6845,22693 6954,22721 7064,22742 7174,22779 7284,22812 7393,22897 7503,22911 7613,22888 7722,22908 7832,22920 7942,22933 8052,22956 8161,22971 8271,22998 8381,23010 8491,23021 8600,23039 8710,23058 8820,23047 8930,23061 9039,23074 9149,23081 9259,23090 9369,23095 9478,23110 9588,23115 9698,23127 9808,23125 9917,23130 10027,23139 10137,23144 10246,23146 10356,23161 10466,23175 10576,23178 10685,23181 10795,23180 10905,23180 11015,23179 11124,23184 11234,23195 11344,23199 11454,23200 11563,23209 11673,23206 11783,23215 11892,23207 12001,23216 12111,23196 12221,23188 12331,23194 12440,23184 12550,23182 12660,23182 12769,23187 12879,23183 12989,23178 13099,23177 13208,23175 13318,23170 13428,23169 13538,23181 13647,23186 13757,23188 13867,23194 13977,23203 14086,23200 14196,23205 14306,23209 14416,23215 14525,23214 14635,23211 14745,23210 14855,23219 14964,23213 15074,23223 15184,23220 15293,23218 15403,23216 15513,23214 15623,23216 15732,23211 15842,23208 15952,23206 16062,23202 16171,23193 16281,23187 16391,23183 16501,23179 16610,23173 16720,23158 16830,23149 16940,23150 17049,23151 17159,23147 17269,23144 17379,23125 17488,23121 17598,23110 17708,23108 17817,23105 17927,23092 18037,23091 18147,23076 18256,23060 18366,23045 18476,23036 18586,23035"/>
 <path fill="none" stroke="rgb(255,0,0)" stroke-width="80" stroke-linejoin="round" stroke-dasharray="158,102" d="M 1467,23348 L 1577,23348 1687,23348 1797,23348 1906,23348 2016,23346 2126,23344 2236,23341 2345,23334 2455,23323 2565,23317 2674,23309 2784,23298 2894,23273 3004,23230 3113,23194 3223,23156 3333,23124 3443,23069 3552,23026 3662,22977 3772,22921 3882,22864 3991,22804 4101,22745 4211,22669 4321,22588 4430,22510 4540,22416 4650,22320 4760,22230 4869,22156 4979,22089 5089,22019 5198,21949 5308,21891 5418,21852 5528,21802 5637,21736 5747,21672 5857,21642 5967,21621 6076,21626 6186,21649 6296,21677 6406,21733 6515,21791 6625,21842 6735,21892 6845,21952 6954,22006 7064,22076 7174,22150 7284,22222 7393,22280 7503,22342 7613,22376 7722,22410 7832,22447 7942,22490 8052,22521 8161,22548 8271,22564 8381,22573 8491,22582 8600,22593 8710,22603 8820,22610 8930,22613 9039,22615 9149,22619 9259,22626 9369,22626 9478,22634 9588,22646 9698,22652 9808,22661 9917,22671 10027,22673 10137,22677 10246,22680 10356,22685 10466,22687 10576,22686 10685,22701 10795,22724 10905,22761 11015,22813 11124,22861 11234,22890 11344,22891 11454,22892 11563,22882 11673,22878 11783,22864 11892,22855 12001,22852 12111,22854 12221,22861 12331,22862 12440,22868 12550,22870 12660,22871 12769,22870 12879,22870 12989,22873 13099,22886 13208,22888 13318,22885 13428,22885 13538,22910 13647,22918 13757,22921 13867,22923 13977,22924 14086,22951 14196,22978 14306,23003 14416,23043 14525,23054 14635,23062 14745,23068 14855,23072 14964,23073 15074,23075 15184,23079 15293,23081 15403,23087 15513,23089 15623,23091 15732,23093 15842,23100 15952,23105 16062,23107 16171,23111 16281,23113 16391,23115 16501,23118 16610,23120 16720,23120 16830,23121 16940,23121 17049,23121 17159,23122 17269,23120 17379,23117 17488,23115 17598,23112 17708,23110 17817,23109 17927,23110 18037,23110 18147,23105 18256,23099 18366,23093 18476,23088 18586,23084"/>
 <path fill="none" stroke="rgb(85,48,141)" stroke-width="80" stroke-linejoin="round" stroke-dasharray="80,40" d="M 1467,23340 L 1577,23339 1687,23337 1797,23329 1906,23326 2016,23318 2126,23311 2236,23304 2345,23289 2455,23280 2565,23250 2674,23222 2784,23203 2894,23166 3004,23140 3113,23107 3223,23074 3333,23021 3443,23022 3552,22960 3662,22899 3772,22867 3882,22862 3991,22752 4101,22729 4211,22694 4321,22652 4430,22632 4540,22601 4650,22581 4760,22562 4869,22530 4979,22492 5089,22477 5198,22400 5308,22349 5418,22298 5528,22287 5637,22231 5747,22187 5857,22148 5967,22092 6076,22041 6186,22021 6296,21989 6406,21986 6515,21966 6625,21945 6735,21928 6845,21913 6954,21895 7064,21830 7174,21823 7284,21819 7393,21813 7503,21800 7613,21784 7722,21780 7832,21772 7942,21765 8052,21769 8161,21773 8271,21768 8381,21754 8491,21744 8600,21730 8710,21714 8820,21705 8930,21694 9039,21688 9149,21677 9259,21659 9369,21649 9478,21637 9588,21629 9698,21635 9808,21627 9917,21631 10027,21628 10137,21634 10246,21638 10356,21640 10466,21650 10576,21659 10685,21672 10795,21698 10905,21694 11015,21699 11124,21717 11234,21750 11344,21774 11454,21799 11563,21819 11673,21843 11783,21864 11892,21871 12001,21920 12111,21928 12221,21935 12331,21940 12440,21946 12550,21953 12660,21957 12769,21962 12879,21962 12989,21969 13099,21970 13208,21967 13318,21987 13428,21995 13538,22001 13647,22007 13757,22010 13867,22013 13977,22016 14086,22014 14196,22018 14306,22023 14416,22022 14525,22025 14635,22032 14745,22031 14855,22022 14964,22021 15074,22022 15184,22019 15293,23139 15403,23131 15513,23124 15623,23107 15732,23094 15842,23092 15952,23084 16062,23077 16171,23073 16281,23067 16391,23058 16501,23051 16610,23043 16720,23045 16830,23043 16940,23040 17049,23034 17159,23029 17269,23033 17379,23031 17488,23029 17598,23026 17708,23020 17817,23018 17927,23111 18037,23115 18147,23118 18256,23116 18366,23115 18476,23118 18586,23123"/>
 <path fill="none" stroke="rgb(0,0,255)" stroke-width="80" stroke-linejoin="round" stroke-dasharray="158,158" d="M 1467,23088 L 1577,23085 1687,23082 1797,23101 1906,23108 2016,23110 2126,23105 2236,23102 2345,23097 2455,23140 2565,23140 2674,23158 2784,23163 2894,23174 3004,23184 3113,23189 3223,23194 3333,23198 3443,23200 3552,23202 3662,23209 3772,23212 3882,23220 3991,23222 4101,23225 4211,23227 4321,23229 4430,23234 4540,23239 4650,23242 4760,23245 4869,23247 4979,23250 5089,23252 5198,23256 5308,23258 5418,23261 5528,23265 5637,23267 5747,23270 5857,23272 5967,23279 6076,23284 6186,23286 6296,23288 6406,23290 6515,23292 6625,23297 6735,23297 6845,23299 6954,23301 7064,23302 7174,23304 7284,23306 7393,23309 7503,23310 7613,23313 7722,23313 7832,23313 7942,23313 8052,23313 8161,23314 8271,23316 8381,23316 8491,23317 8600,23317 8710,23318 8820,23321 8930,23323 9039,23323 9149,23324 9259,23323 9369,23323 9478,23325 9588,23324 9698,23323 9808,23321 9917,23321 10027,23321 10137,23320 10246,23320 10356,23319 10466,23318 10576,23317 10685,23316 10795,23315 10905,23314 11015,23314 11124,23313 11234,23313 11344,23311 11454,23310 11563,23310 11673,23309 11783,23309 11892,23308 12001,23307 12111,23307 12221,23305 12331,23304 12440,23304 12550,23303 12660,23302 12769,23303 12879,23308 12989,23311 13099,23311 13208,23312 13318,23314 13428,23315 13538,23316 13647,23316 13757,23316 13867,23314 13977,23313 14086,23314 14196,23314 14306,23314 14416,23314 14525,23315 14635,23315 14745,23314 14855,23315 14964,23316 15074,23316 15184,23316 15293,23317 15403,23317 15513,23317 15623,23318 15732,23317 15842,23317 15952,23318 16062,23316 16171,23315 16281,23314 16391,23317 16501,23317 16610,23319 16720,23320 16830,23320 16940,23320 17049,23320 17159,23321 17269,23322 17379,23324 17488,23325 17598,23326 17708,23326 17817,23325 17927,23326 18037,23327 18147,23326 18256,23324 18366,23319 18476,23310 18586,23303"/>
 <text class="TextShape" transform="rotate(-90 1561 24277)"><tspan class="TextParagraph" font-family="Liberation Sans, sans-serif" font-size="282px" font-weight="400"><tspan class="TextPosition" x="1561" y="24277"><tspan fill="rgb(0,0,0)" stroke="none">13.03</tspan></tspan></tspan></text>
 <text class="TextShape" transform="rotate(-90 1891 24277)"><tspan class="TextParagraph" font-family="Liberation Sans, sans-serif" font-size="282px" font-weight="400"><tspan class="TextPosition" x="1891" y="24277"><tspan fill="rgb(0,0,0)" stroke="none">16.03</tspan></tspan></tspan></text>
 <text class="TextShape" transform="rotate(-90 2220 24277)"><tspan class="TextParagraph" font-family="Liberation Sans, sans-serif" font-size="282px" font-weight="400"><tspan class="TextPosition" x="2220" y="24277"><tspan fill="rgb(0,0,0)" stroke="none">19.03</tspan></tspan></tspan></text>
 <text class="TextShape" transform="rotate(-90 2549 24277)"><tspan class="TextParagraph" font-family="Liberation Sans, sans-serif" font-size="282px" font-weight="400"><tspan class="TextPosition" x="2549" y="24277"><tspan fill="rgb(0,0,0)" stroke="none">22.03</tspan></tspan></tspan></text>
 <text class="TextShape" transform="rotate(-90 2878 24277)"><tspan class="TextParagraph" font-family="Liberation Sans, sans-serif" font-size="282px" font-weight="400"><tspan class="TextPosition" x="2878" y="24277"><tspan fill="rgb(0,0,0)" stroke="none">25.03</tspan></tspan></tspan></text>
 <text class="TextShape" transform="rotate(-90 3207 24277)"><tspan class="TextParagraph" font-family="Liberation Sans, sans-serif" font-size="282px" font-weight="400"><tspan class="TextPosition" x="3207" y="24277"><tspan fill="rgb(0,0,0)" stroke="none">28.03</tspan></tspan></tspan></text>
 <text class="TextShape" transform="rotate(-90 3537 24277)"><tspan class="TextParagraph" font-family="Liberation Sans, sans-serif" font-size="282px" font-weight="400"><tspan class="TextPosition" x="3537" y="24277"><tspan fill="rgb(0,0,0)" stroke="none">31.03</tspan></tspan></tspan></text>
 <text class="TextShape" transform="rotate(-90 3866 24277)"><tspan class="TextParagraph" font-family="Liberation Sans, sans-serif" font-size="282px" font-weight="400"><tspan class="TextPosition" x="3866" y="24277"><tspan fill="rgb(0,0,0)" stroke="none">03.04</tspan></tspan></tspan></text>
 <text class="TextShape" transform="rotate(-90 4195 24277)"><tspan class="TextParagraph" font-family="Liberation Sans, sans-serif" font-size="282px" font-weight="400"><tspan class="TextPosition" x="4195" y="24277"><tspan fill="rgb(0,0,0)" stroke="none">06.04</tspan></tspan></tspan></text>
 <text class="TextShape" transform="rotate(-90 4524 24277)"><tspan class="TextParagraph" font-family="Liberation Sans, sans-serif" font-size="282px" font-weight="400"><tspan class="TextPosition" x="4524" y="24277"><tspan fill="rgb(0,0,0)" stroke="none">09.04</tspan></tspan></tspan></text>
 <text class="TextShape" transform="rotate(-90 4854 24277)"><tspan class="TextParagraph" font-family="Liberation Sans, sans-serif" font-size="282px" font-weight="400"><tspan class="TextPosition" x="4854" y="24277"><tspan fill="rgb(0,0,0)" stroke="none">12.04</tspan></tspan></tspan></text>
 <text class="TextShape" transform="rotate(-90 5183 24277)"><tspan class="TextParagraph" font-family="Liberation Sans, sans-serif" font-size="282px" font-weight="400"><tspan class="TextPosition" x="5183" y="24277"><tspan fill="rgb(0,0,0)" stroke="none">15.04</tspan></tspan></tspan></text>
 <text class="TextShape" transform="rotate(-90 5512 24277)"><tspan class="TextParagraph" font-family="Liberation Sans, sans-serif" font-size="282px" font-weight="400"><tspan class="TextPosition" x="5512" y="24277"><tspan fill="rgb(0,0,0)" stroke="none">18.04</tspan></tspan></tspan></text>
 <text class="TextShape" transform="rotate(-90 5841 24277)"><tspan class="TextParagraph" font-family="Liberation Sans, sans-serif" font-size="282px" font-weight="400"><tspan class="TextPosition" x="5841" y="24277"><tspan fill="rgb(0,0,0)" stroke="none">21.04</tspan></tspan></tspan></text>
 <text class="TextShape" transform="rotate(-90 6170 24277)"><tspan class="TextParagraph" font-family="Liberation Sans, sans-serif" font-size="282px" font-weight="400"><tspan class="TextPosition" x="6170" y="24277"><tspan fill="rgb(0,0,0)" stroke="none">24.04</tspan></tspan></tspan></text>
 <text class="TextShape" transform="rotate(-90 6500 24277)"><tspan class="TextParagraph" font-family="Liberation Sans, sans-serif" font-size="282px" font-weight="400"><tspan class="TextPosition" x="6500" y="24277"><tspan fill="rgb(0,0,0)" stroke="none">27.04</tspan></tspan></tspan></text>
 <text class="TextShape" transform="rotate(-90 6829 24277)"><tspan class="TextParagraph" font-family="Liberation Sans, sans-serif" font-size="282px" font-weight="400"><tspan class="TextPosition" x="6829" y="24277"><tspan fill="rgb(0,0,0)" stroke="none">30.04</tspan></tspan></tspan></text>
 <text class="TextShape" transform="rotate(-90 7158 24277)"><tspan class="TextParagraph" font-family="Liberation Sans, sans-serif" font-size="282px" font-weight="400"><tspan class="TextPosition" x="7158" y="24277"><tspan fill="rgb(0,0,0)" stroke="none">03.05</tspan></tspan></tspan></text>
 <text class="TextShape" transform="rotate(-90 7487 24277)"><tspan class="TextParagraph" font-family="Liberation Sans, sans-serif" font-size="282px" font-weight="400"><tspan class="TextPosition" x="7487" y="24277"><tspan fill="rgb(0,0,0)" stroke="none">06.05</tspan></tspan></tspan></text>
 <text class="TextShape" transform="rotate(-90 7816 24277)"><tspan class="TextParagraph" font-family="Liberation Sans, sans-serif" font-size="282px" font-weight="400"><tspan class="TextPosition" x="7816" y="24277"><tspan fill="rgb(0,0,0)" stroke="none">09.05</tspan></tspan></tspan></text>
 <text class="TextShape" transform="rotate(-90 8146 24277)"><tspan class="TextParagraph" font-family="Liberation Sans, sans-serif" font-size="282px" font-weight="400"><tspan class="TextPosition" x="8146" y="24277"><tspan fill="rgb(0,0,0)" stroke="none">12.05</tspan></tspan></tspan></text>
 <text class="TextShape" transform="rotate(-90 8475 24277)"><tspan class="TextParagraph" font-family="Liberation Sans, sans-serif" font-size="282px" font-weight="400"><tspan class="TextPosition" x="8475" y="24277"><tspan fill="rgb(0,0,0)" stroke="none">15.05</tspan></tspan></tspan></text>
 <text class="TextShape" transform="rotate(-90 8804 24277)"><tspan class="TextParagraph" font-family="Liberation Sans, sans-serif" font-size="282px" font-weight="400"><tspan class="TextPosition" x="8804" y="24277"><tspan fill="rgb(0,0,0)" stroke="none">18.05</tspan></tspan></tspan></text>
 <text class="TextShape" transform="rotate(-90 9133 24277)"><tspan class="TextParagraph" font-family="Liberation Sans, sans-serif" font-size="282px" font-weight="400"><tspan class="TextPosition" x="9133" y="24277"><tspan fill="rgb(0,0,0)" stroke="none">21.05</tspan></tspan></tspan></text>
 <text class="TextShape" transform="rotate(-90 9463 24277)"><tspan class="TextParagraph" font-family="Liberation Sans, sans-serif" font-size="282px" font-weight="400"><tspan class="TextPosition" x="9463" y="24277"><tspan fill="rgb(0,0,0)" stroke="none">24.05</tspan></tspan></tspan></text>
 <text class="TextShape" transform="rotate(-90 9792 24277)"><tspan class="TextParagraph" font-family="Liberation Sans, sans-serif" font-size="282px" font-weight="400"><tspan class="TextPosition" x="9792" y="24277"><tspan fill="rgb(0,0,0)" stroke="none">27.05</tspan></tspan></tspan></text>
 <text class="TextShape" transform="rotate(-90 10121 24277)"><tspan class="TextParagraph" font-family="Liberation Sans, sans-serif" font-size="282px" font-weight="400"><tspan class="TextPosition" x="10121" y="24277"><tspan fill="rgb(0,0,0)" stroke="none">30.05</tspan></tspan></tspan></text>
 <text class="TextShape" transform="rotate(-90 10450 24277)"><tspan class="TextParagraph" font-family="Liberation Sans, sans-serif" font-size="282px" font-weight="400"><tspan class="TextPosition" x="10450" y="24277"><tspan fill="rgb(0,0,0)" stroke="none">02.06</tspan></tspan></tspan></text>
 <text class="TextShape" transform="rotate(-90 10779 24277)"><tspan class="TextParagraph" font-family="Liberation Sans, sans-serif" font-size="282px" font-weight="400"><tspan class="TextPosition" x="10779" y="24277"><tspan fill="rgb(0,0,0)" stroke="none">05.06</tspan></tspan></tspan></text>
 <text class="TextShape" transform="rotate(-90 11109 24277)"><tspan class="TextParagraph" font-family="Liberation Sans, sans-serif" font-size="282px" font-weight="400"><tspan class="TextPosition" x="11109" y="24277"><tspan fill="rgb(0,0,0)" stroke="none">08.06</tspan></tspan></tspan></text>
 <text class="TextShape" transform="rotate(-90 11438 24277)"><tspan class="TextParagraph" font-family="Liberation Sans, sans-serif" font-size="282px" font-weight="400"><tspan class="TextPosition" x="11438" y="24277"><tspan fill="rgb(0,0,0)" stroke="none">11.06</tspan></tspan></tspan></text>
 <text class="TextShape" transform="rotate(-90 11767 24277)"><tspan class="TextParagraph" font-family="Liberation Sans, sans-serif" font-size="282px" font-weight="400"><tspan class="TextPosition" x="11767" y="24277"><tspan fill="rgb(0,0,0)" stroke="none">14.06</tspan></tspan></tspan></text>
 <text class="TextShape" transform="rotate(-90 12095 24277)"><tspan class="TextParagraph" font-family="Liberation Sans, sans-serif" font-size="282px" font-weight="400"><tspan class="TextPosition" x="12095" y="24277"><tspan fill="rgb(0,0,0)" stroke="none">17.06</tspan></tspan></tspan></text>
 <text class="TextShape" transform="rotate(-90 12425 24277)"><tspan class="TextParagraph" font-family="Liberation Sans, sans-serif" font-size="282px" font-weight="400"><tspan class="TextPosition" x="12425" y="24277"><tspan fill="rgb(0,0,0)" stroke="none">20.06</tspan></tspan></tspan></text>
 <text class="TextShape" transform="rotate(-90 12754 24277)"><tspan class="TextParagraph" font-family="Liberation Sans, sans-serif" font-size="282px" font-weight="400"><tspan class="TextPosition" x="12754" y="24277"><tspan fill="rgb(0,0,0)" stroke="none">23.06</tspan></tspan></tspan></text>
 <text class="TextShape" transform="rotate(-90 13083 24277)"><tspan class="TextParagraph" font-family="Liberation Sans, sans-serif" font-size="282px" font-weight="400"><tspan class="TextPosition" x="13083" y="24277"><tspan fill="rgb(0,0,0)" stroke="none">26.06</tspan></tspan></tspan></text>
 <text class="TextShape" transform="rotate(-90 13412 24277)"><tspan class="TextParagraph" font-family="Liberation Sans, sans-serif" font-size="282px" font-weight="400"><tspan class="TextPosition" x="13412" y="24277"><tspan fill="rgb(0,0,0)" stroke="none">29.06</tspan></tspan></tspan></text>
 <text class="TextShape" transform="rotate(-90 13741 24277)"><tspan class="TextParagraph" font-family="Liberation Sans, sans-serif" font-size="282px" font-weight="400"><tspan class="TextPosition" x="13741" y="24277"><tspan fill="rgb(0,0,0)" stroke="none">02.07</tspan></tspan></tspan></text>
 <text class="TextShape" transform="rotate(-90 14071 24277)"><tspan class="TextParagraph" font-family="Liberation Sans, sans-serif" font-size="282px" font-weight="400"><tspan class="TextPosition" x="14071" y="24277"><tspan fill="rgb(0,0,0)" stroke="none">05.07</tspan></tspan></tspan></text>
 <text class="TextShape" transform="rotate(-90 14400 24277)"><tspan class="TextParagraph" font-family="Liberation Sans, sans-serif" font-size="282px" font-weight="400"><tspan class="TextPosition" x="14400" y="24277"><tspan fill="rgb(0,0,0)" stroke="none">08.07</tspan></tspan></tspan></text>
 <text class="TextShape" transform="rotate(-90 14729 24277)"><tspan class="TextParagraph" font-family="Liberation Sans, sans-serif" font-size="282px" font-weight="400"><tspan class="TextPosition" x="14729" y="24277"><tspan fill="rgb(0,0,0)" stroke="none">11.07</tspan></tspan></tspan></text>
 <text class="TextShape" transform="rotate(-90 15058 24277)"><tspan class="TextParagraph" font-family="Liberation Sans, sans-serif" font-size="282px" font-weight="400"><tspan class="TextPosition" x="15058" y="24277"><tspan fill="rgb(0,0,0)" stroke="none">14.07</tspan></tspan></tspan></text>
 <text class="TextShape" transform="rotate(-90 15387 24277)"><tspan class="TextParagraph" font-family="Liberation Sans, sans-serif" font-size="282px" font-weight="400"><tspan class="TextPosition" x="15387" y="24277"><tspan fill="rgb(0,0,0)" stroke="none">17.07</tspan></tspan></tspan></text>
 <text class="TextShape" transform="rotate(-90 15717 24277)"><tspan class="TextParagraph" font-family="Liberation Sans, sans-serif" font-size="282px" font-weight="400"><tspan class="TextPosition" x="15717" y="24277"><tspan fill="rgb(0,0,0)" stroke="none">20.07</tspan></tspan></tspan></text>
 <text class="TextShape" transform="rotate(-90 16046 24277)"><tspan class="TextParagraph" font-family="Liberation Sans, sans-serif" font-size="282px" font-weight="400"><tspan class="TextPosition" x="16046" y="24277"><tspan fill="rgb(0,0,0)" stroke="none">23.07</tspan></tspan></tspan></text>
 <text class="TextShape" transform="rotate(-90 16375 24277)"><tspan class="TextParagraph" font-family="Liberation Sans, sans-serif" font-size="282px" font-weight="400"><tspan class="TextPosition" x="16375" y="24277"><tspan fill="rgb(0,0,0)" stroke="none">26.07</tspan></tspan></tspan></text>
 <text class="TextShape" transform="rotate(-90 16704 24277)"><tspan class="TextParagraph" font-family="Liberation Sans, sans-serif" font-size="282px" font-weight="400"><tspan class="TextPosition" x="16704" y="24277"><tspan fill="rgb(0,0,0)" stroke="none">29.07</tspan></tspan></tspan></text>
 <text class="TextShape" transform="rotate(-90 17034 24277)"><tspan class="TextParagraph" font-family="Liberation Sans, sans-serif" font-size="282px" font-weight="400"><tspan class="TextPosition" x="17034" y="24277"><tspan fill="rgb(0,0,0)" stroke="none">01.08</tspan></tspan></tspan></text>
 <text class="TextShape" transform="rotate(-90 17363 24277)"><tspan class="TextParagraph" font-family="Liberation Sans, sans-serif" font-size="282px" font-weight="400"><tspan class="TextPosition" x="17363" y="24277"><tspan fill="rgb(0,0,0)" stroke="none">04.08</tspan></tspan></tspan></text>
 <text class="TextShape" transform="rotate(-90 17692 24277)"><tspan class="TextParagraph" font-family="Liberation Sans, sans-serif" font-size="282px" font-weight="400"><tspan class="TextPosition" x="17692" y="24277"><tspan fill="rgb(0,0,0)" stroke="none">07.08</tspan></tspan></tspan></text>
 <text class="TextShape" transform="rotate(-90 18021 24277)"><tspan class="TextParagraph" font-family="Liberation Sans, sans-serif" font-size="282px" font-weight="400"><tspan class="TextPosition" x="18021" y="24277"><tspan fill="rgb(0,0,0)" stroke="none">10.08</tspan></tspan></tspan></text>
 <text class="TextShape" transform="rotate(-90 18350 24277)"><tspan class="TextParagraph" font-family="Liberation Sans, sans-serif" font-size="282px" font-weight="400"><tspan class="TextPosition" x="18350" y="24277"><tspan fill="rgb(0,0,0)" stroke="none">13.08</tspan></tspan></tspan></text>
 <text class="TextShape" transform="rotate(-90 18680 24277)"><tspan class="TextParagraph" font-family="Liberation Sans, sans-serif" font-size="282px" font-weight="400"><tspan class="TextPosition" x="18680" y="24277"><tspan fill="rgb(0,0,0)" stroke="none">16.08</tspan></tspan></tspan></text>
 <text class="TextShape"><tspan class="TextParagraph" font-family="Liberation Sans, sans-serif" font-size="388px" font-weight="400"><tspan class="TextPosition" x="951" y="23477"><tspan fill="rgb(0,0,0)" stroke="none">0</tspan></tspan></tspan></text>
 <text class="TextShape"><tspan class="TextParagraph" font-family="Liberation Sans, sans-serif" font-size="388px" font-weight="400"><tspan class="TextPosition" x="316" y="19870"><tspan fill="rgb(0,0,0)" stroke="none">2000</tspan></tspan></tspan></text>
 <text class="TextShape"><tspan class="TextParagraph" font-family="Liberation Sans, sans-serif" font-size="388px" font-weight="400"><tspan class="TextPosition" x="316" y="16264"><tspan fill="rgb(0,0,0)" stroke="none">4000</tspan></tspan></tspan></text>
 <text class="TextShape"><tspan class="TextParagraph" font-family="Liberation Sans, sans-serif" font-size="388px" font-weight="400"><tspan class="TextPosition" x="316" y="12657"><tspan fill="rgb(0,0,0)" stroke="none">6000</tspan></tspan></tspan></text>
 <text class="TextShape"><tspan class="TextParagraph" font-family="Liberation Sans, sans-serif" font-size="388px" font-weight="400"><tspan class="TextPosition" x="316" y="9051"><tspan fill="rgb(0,0,0)" stroke="none">8000</tspan></tspan></tspan></text>
 <text class="TextShape"><tspan class="TextParagraph" font-family="Liberation Sans, sans-serif" font-size="388px" font-weight="400"><tspan class="TextPosition" x="105" y="5444"><tspan fill="rgb(0,0,0)" stroke="none">10000</tspan></tspan></tspan></text>
 <text class="TextShape"><tspan class="TextParagraph" font-family="Liberation Sans, sans-serif" font-size="388px" font-weight="400"><tspan class="TextPosition" x="105" y="1838"><tspan fill="rgb(0,0,0)" stroke="none">12000</tspan></tspan></tspan></text>
 <text class="TextShape"><tspan class="TextParagraph" font-family="Liberation Sans, sans-serif" font-size="494px" font-weight="700"><tspan class="TextPosition" x="707" y="990"><tspan fill="rgb(0,0,0)" stroke="none">Poet aktivnch ppad na milin obyvatel</tspan></tspan></tspan></text>
 <path fill="none" stroke="rgb(141,40,30)" stroke-width="80" stroke-linejoin="round" stroke-dasharray="80,40" d="M 18829,2641 L 20429,2641"/>
 <path fill="none" stroke="rgb(255,64,0)" stroke-width="80" stroke-linejoin="round" stroke-dasharray="80,40" d="M 18829,3900 L 20429,3900"/>
 <path fill="none" stroke="rgb(0,223,255)" stroke-width="80" stroke-linejoin="round" stroke-dasharray="158,102" d="M 18829,5159 L 20429,5159"/>
 <path fill="none" stroke="rgb(21,132,102)" stroke-width="80" stroke-linejoin="round" stroke-dasharray="80,203,80,203,203,203" d="M 18829,6418 L 20429,6418"/>
 <path fill="none" stroke="rgb(191,0,65)" stroke-width="80" stroke-linejoin="round" stroke-dasharray="51,127,51,127,254,127,254,127,254,127" d="M 18829,7677 L 20429,7677"/>
 <path fill="none" stroke="rgb(255,211,32)" stroke-width="80" stroke-linejoin="round" d="M 18829,8936 L 20429,8936"/>
 <path fill="none" stroke="rgb(128,0,128)" stroke-width="80" stroke-linejoin="round" stroke-dasharray="158,158" d="M 18829,10195 L 20429,10195"/>
 <path fill="none" stroke="rgb(0,169,51)" stroke-width="80" stroke-linejoin="round" stroke-dasharray="80,40" d="M 18829,11454 L 20429,11454"/>
 <path fill="none" stroke="rgb(0,255,0)" stroke-width="80" stroke-linejoin="round" d="M 18829,12712 L 20429,12712"/>
 <path fill="none" stroke="rgb(0,169,51)" stroke-width="80" stroke-linejoin="round" stroke-dasharray="158,102" d="M 18829,13971 L 20429,13971"/>
 <path fill="none" stroke="rgb(180,120,4)" stroke-width="80" stroke-linejoin="round" d="M 18829,15230 L 20429,15230"/>
 <path fill="none" stroke="rgb(0,127,255)" stroke-width="80" stroke-linejoin="round" d="M 18829,16489 L 20429,16489"/>
 <path fill="none" stroke="rgb(0,169,51)" stroke-width="80" stroke-linejoin="round" d="M 18829,17748 L 20429,17748"/>
 <path fill="none" stroke="rgb(0,0,0)" stroke-width="80" stroke-linejoin="round" d="M 18829,19007 L 20429,19007"/>
 <path fill="none" stroke="rgb(255,0,0)" stroke-width="80" stroke-linejoin="round" stroke-dasharray="158,102" d="M 18829,20266 L 20429,20266"/>
 <path fill="none" stroke="rgb(85,48,141)" stroke-width="80" stroke-linejoin="round" stroke-dasharray="80,40" d="M 18829,21525 L 20429,21525"/>
 <path fill="none" stroke="rgb(0,0,255)" stroke-width="80" stroke-linejoin="round" stroke-dasharray="158,158" d="M 18829,22784 L 20429,22784"/>
 <text class="TextShape"><tspan class="TextParagraph" font-family="Liberation Sans, sans-serif" font-size="423px" font-weight="400"><tspan class="TextPosition" x="20529" y="2789"><tspan fill="rgb(0,0,0)" stroke="none">USA</tspan></tspan></tspan></text>
 <text class="TextShape"><tspan class="TextParagraph" font-family="Liberation Sans, sans-serif" font-size="423px" font-weight="400"><tspan class="TextPosition" x="20529" y="4048"><tspan fill="rgb(0,0,0)" stroke="none">Brazlie</tspan></tspan></tspan></text>
 <text class="TextShape"><tspan class="TextParagraph" font-family="Liberation Sans, sans-serif" font-size="423px" font-weight="400"><tspan class="TextPosition" x="20529" y="5307"><tspan fill="rgb(0,0,0)" stroke="none">Rusko</tspan></tspan></tspan></text>
 <text class="TextShape"><tspan class="TextParagraph" font-family="Liberation Sans, sans-serif" font-size="423px" font-weight="400"><tspan class="TextPosition" x="20529" y="6566"><tspan fill="rgb(0,0,0)" stroke="none">celosvtov</tspan></tspan></tspan></text>
 <text class="TextShape"><tspan class="TextParagraph" font-family="Liberation Sans, sans-serif" font-size="423px" font-weight="400"><tspan class="TextPosition" x="20529" y="7825"><tspan fill="rgb(0,0,0)" stroke="none">EU_nov zem</tspan></tspan></tspan></text>
 <text class="TextShape"><tspan class="TextParagraph" font-family="Liberation Sans, sans-serif" font-size="423px" font-weight="400"><tspan class="TextPosition" x="20529" y="9084"><tspan fill="rgb(0,0,0)" stroke="none">esko</tspan></tspan></tspan></text>
 <text class="TextShape"><tspan class="TextParagraph" font-family="Liberation Sans, sans-serif" font-size="423px" font-weight="400"><tspan class="TextPosition" x="20529" y="10343"><tspan fill="rgb(0,0,0)" stroke="none">Indie</tspan></tspan></tspan></text>
 <text class="TextShape"><tspan class="TextParagraph" font-family="Liberation Sans, sans-serif" font-size="423px" font-weight="400"><tspan class="TextPosition" x="20529" y="11602"><tspan fill="rgb(0,0,0)" stroke="none">Mexiko</tspan></tspan></tspan></text>
 <text class="TextShape"><tspan class="TextParagraph" font-family="Liberation Sans, sans-serif" font-size="423px" font-weight="400"><tspan class="TextPosition" x="20529" y="12860"><tspan fill="rgb(0,0,0)" stroke="none">vcarsko</tspan></tspan></tspan></text>
 <text class="TextShape"><tspan class="TextParagraph" font-family="Liberation Sans, sans-serif" font-size="423px" font-weight="400"><tspan class="TextPosition" x="20529" y="14119"><tspan fill="rgb(0,0,0)" stroke="none">rn</tspan></tspan></tspan></text>
 <text class="TextShape"><tspan class="TextParagraph" font-family="Liberation Sans, sans-serif" font-size="423px" font-weight="400"><tspan class="TextPosition" x="20529" y="15378"><tspan fill="rgb(0,0,0)" stroke="none">Dnsko</tspan></tspan></tspan></text>
 <text class="TextShape"><tspan class="TextParagraph" font-family="Liberation Sans, sans-serif" font-size="423px" font-weight="400"><tspan class="TextPosition" x="20529" y="16637"><tspan fill="rgb(0,0,0)" stroke="none">Itlie</tspan></tspan></tspan></text>
 <text class="TextShape"><tspan class="TextParagraph" font-family="Liberation Sans, sans-serif" font-size="423px" font-weight="400"><tspan class="TextPosition" x="20529" y="17896"><tspan fill="rgb(0,0,0)" stroke="none">Rakousko</tspan></tspan></tspan></text>
 <text class="TextShape"><tspan class="TextParagraph" font-family="Liberation Sans, sans-serif" font-size="423px" font-weight="400"><tspan class="TextPosition" x="20529" y="19155"><tspan fill="rgb(0,0,0)" stroke="none">Nmecko</tspan></tspan></tspan></text>
 <text class="TextShape"><tspan class="TextParagraph" font-family="Liberation Sans, sans-serif" font-size="423px" font-weight="400"><tspan class="TextPosition" x="20529" y="20414"><tspan fill="rgb(0,0,0)" stroke="none">Turecko</tspan></tspan></tspan></text>
 <text class="TextShape"><tspan class="TextParagraph" font-family="Liberation Sans, sans-serif" font-size="423px" font-weight="400"><tspan class="TextPosition" x="20529" y="21673"><tspan fill="rgb(0,0,0)" stroke="none">Kanada</tspan></tspan></tspan></text>
 <text class="TextShape"><tspan class="TextParagraph" font-family="Liberation Sans, sans-serif" font-size="423px" font-weight="400"><tspan class="TextPosition" x="20529" y="22932"><tspan fill="rgb(0,0,0)" stroke="none">Jin Korea</tspan></tspan></tspan></text>
</svg>