<?xml version="1.0" encoding="UTF-8"?>
<!DOCTYPE svg PUBLIC "-//W3C//DTD SVG 1.1//EN" "http://www.w3.org/Graphics/SVG/1.1/DTD/svg11.dtd">
<svg width="236mm" height="250mm" viewBox="0 0 23600 25000" version="1.1" xmlns="http://www.w3.org/2000/svg" xmlns:xlink="http://www.w3.org/1999/xlink" stroke-width="28.222" stroke-linejoin="round" xml:space="preserve">
 <path fill="rgb(255,255,255)" stroke="none" d="M 11800,25000 L 0,25000 0,0 23600,0 23600,25000 11800,25000 Z"/>
 <path fill="none" stroke="rgb(179,179,179)" stroke-linejoin="round" d="M 10027,23350 L 1413,23350 1413,1712 18641,1712 18641,23350 10027,23350 Z"/>
 <path fill="none" stroke="rgb(179,179,179)" stroke-linejoin="round" d="M 18641,23349 L 1413,23349"/>
 <path fill="none" stroke="rgb(179,179,179)" stroke-linejoin="round" d="M 18641,19742 L 1413,19742"/>
 <path fill="none" stroke="rgb(179,179,179)" stroke-linejoin="round" d="M 18641,16136 L 1413,16136"/>
 <path fill="none" stroke="rgb(179,179,179)" stroke-linejoin="round" d="M 18641,12529 L 1413,12529"/>
 <path fill="none" stroke="rgb(179,179,179)" stroke-linejoin="round" d="M 18641,8924 L 1413,8924"/>
 <path fill="none" stroke="rgb(179,179,179)" stroke-linejoin="round" d="M 18641,5317 L 1413,5317"/>
 <path fill="none" stroke="rgb(179,179,179)" stroke-linejoin="round" d="M 18641,1711 L 1413,1711"/>
 <path fill="none" stroke="rgb(179,179,179)" stroke-linejoin="round" d="M 1413,23499 L 1413,23349"/>
 <path fill="none" stroke="rgb(179,179,179)" stroke-linejoin="round" d="M 1413,23499 L 1413,23349"/>
 <path fill="none" stroke="rgb(179,179,179)" stroke-linejoin="round" d="M 2217,23499 L 2217,23349"/>
 <path fill="none" stroke="rgb(179,179,179)" stroke-linejoin="round" d="M 2217,23499 L 2217,23349"/>
 <path fill="none" stroke="rgb(179,179,179)" stroke-linejoin="round" d="M 3021,23499 L 3021,23349"/>
 <path fill="none" stroke="rgb(179,179,179)" stroke-linejoin="round" d="M 3021,23499 L 3021,23349"/>
 <path fill="none" stroke="rgb(179,179,179)" stroke-linejoin="round" d="M 3825,23499 L 3825,23349"/>
 <path fill="none" stroke="rgb(179,179,179)" stroke-linejoin="round" d="M 3825,23499 L 3825,23349"/>
 <path fill="none" stroke="rgb(179,179,179)" stroke-linejoin="round" d="M 4629,23499 L 4629,23349"/>
 <path fill="none" stroke="rgb(179,179,179)" stroke-linejoin="round" d="M 4629,23499 L 4629,23349"/>
 <path fill="none" stroke="rgb(179,179,179)" stroke-linejoin="round" d="M 5433,23499 L 5433,23349"/>
 <path fill="none" stroke="rgb(179,179,179)" stroke-linejoin="round" d="M 5433,23499 L 5433,23349"/>
 <path fill="none" stroke="rgb(179,179,179)" stroke-linejoin="round" d="M 6237,23499 L 6237,23349"/>
 <path fill="none" stroke="rgb(179,179,179)" stroke-linejoin="round" d="M 6237,23499 L 6237,23349"/>
 <path fill="none" stroke="rgb(179,179,179)" stroke-linejoin="round" d="M 7041,23499 L 7041,23349"/>
 <path fill="none" stroke="rgb(179,179,179)" stroke-linejoin="round" d="M 7041,23499 L 7041,23349"/>
 <path fill="none" stroke="rgb(179,179,179)" stroke-linejoin="round" d="M 7845,23499 L 7845,23349"/>
 <path fill="none" stroke="rgb(179,179,179)" stroke-linejoin="round" d="M 7845,23499 L 7845,23349"/>
 <path fill="none" stroke="rgb(179,179,179)" stroke-linejoin="round" d="M 8649,23499 L 8649,23349"/>
 <path fill="none" stroke="rgb(179,179,179)" stroke-linejoin="round" d="M 8649,23499 L 8649,23349"/>
 <path fill="none" stroke="rgb(179,179,179)" stroke-linejoin="round" d="M 9453,23499 L 9453,23349"/>
 <path fill="none" stroke="rgb(179,179,179)" stroke-linejoin="round" d="M 9453,23499 L 9453,23349"/>
 <path fill="none" stroke="rgb(179,179,179)" stroke-linejoin="round" d="M 10257,23499 L 10257,23349"/>
 <path fill="none" stroke="rgb(179,179,179)" stroke-linejoin="round" d="M 10257,23499 L 10257,23349"/>
 <path fill="none" stroke="rgb(179,179,179)" stroke-linejoin="round" d="M 11061,23499 L 11061,23349"/>
 <path fill="none" stroke="rgb(179,179,179)" stroke-linejoin="round" d="M 11061,23499 L 11061,23349"/>
 <path fill="none" stroke="rgb(179,179,179)" stroke-linejoin="round" d="M 11864,23499 L 11864,23349"/>
 <path fill="none" stroke="rgb(179,179,179)" stroke-linejoin="round" d="M 11864,23499 L 11864,23349"/>
 <path fill="none" stroke="rgb(179,179,179)" stroke-linejoin="round" d="M 12668,23499 L 12668,23349"/>
 <path fill="none" stroke="rgb(179,179,179)" stroke-linejoin="round" d="M 12668,23499 L 12668,23349"/>
 <path fill="none" stroke="rgb(179,179,179)" stroke-linejoin="round" d="M 13472,23499 L 13472,23349"/>
 <path fill="none" stroke="rgb(179,179,179)" stroke-linejoin="round" d="M 13472,23499 L 13472,23349"/>
 <path fill="none" stroke="rgb(179,179,179)" stroke-linejoin="round" d="M 14276,23499 L 14276,23349"/>
 <path fill="none" stroke="rgb(179,179,179)" stroke-linejoin="round" d="M 14276,23499 L 14276,23349"/>
 <path fill="none" stroke="rgb(179,179,179)" stroke-linejoin="round" d="M 15080,23499 L 15080,23349"/>
 <path fill="none" stroke="rgb(179,179,179)" stroke-linejoin="round" d="M 15080,23499 L 15080,23349"/>
 <path fill="none" stroke="rgb(179,179,179)" stroke-linejoin="round" d="M 15884,23499 L 15884,23349"/>
 <path fill="none" stroke="rgb(179,179,179)" stroke-linejoin="round" d="M 15884,23499 L 15884,23349"/>
 <path fill="none" stroke="rgb(179,179,179)" stroke-linejoin="round" d="M 16688,23499 L 16688,23349"/>
 <path fill="none" stroke="rgb(179,179,179)" stroke-linejoin="round" d="M 16688,23499 L 16688,23349"/>
 <path fill="none" stroke="rgb(179,179,179)" stroke-linejoin="round" d="M 17492,23499 L 17492,23349"/>
 <path fill="none" stroke="rgb(179,179,179)" stroke-linejoin="round" d="M 17492,23499 L 17492,23349"/>
 <path fill="none" stroke="rgb(179,179,179)" stroke-linejoin="round" d="M 18296,23499 L 18296,23349"/>
 <path fill="none" stroke="rgb(179,179,179)" stroke-linejoin="round" d="M 18296,23499 L 18296,23349"/>
 <path fill="none" stroke="rgb(179,179,179)" stroke-linejoin="round" d="M 1413,23349 L 18641,23349"/>
 <path fill="none" stroke="rgb(179,179,179)" stroke-linejoin="round" d="M 1263,23349 L 1413,23349"/>
 <path fill="none" stroke="rgb(179,179,179)" stroke-linejoin="round" d="M 1263,23349 L 1413,23349"/>
 <path fill="none" stroke="rgb(179,179,179)" stroke-linejoin="round" d="M 1263,19742 L 1413,19742"/>
 <path fill="none" stroke="rgb(179,179,179)" stroke-linejoin="round" d="M 1263,19742 L 1413,19742"/>
 <path fill="none" stroke="rgb(179,179,179)" stroke-linejoin="round" d="M 1263,16136 L 1413,16136"/>
 <path fill="none" stroke="rgb(179,179,179)" stroke-linejoin="round" d="M 1263,16136 L 1413,16136"/>
 <path fill="none" stroke="rgb(179,179,179)" stroke-linejoin="round" d="M 1263,12529 L 1413,12529"/>
 <path fill="none" stroke="rgb(179,179,179)" stroke-linejoin="round" d="M 1263,12529 L 1413,12529"/>
 <path fill="none" stroke="rgb(179,179,179)" stroke-linejoin="round" d="M 1263,8924 L 1413,8924"/>
 <path fill="none" stroke="rgb(179,179,179)" stroke-linejoin="round" d="M 1263,8924 L 1413,8924"/>
 <path fill="none" stroke="rgb(179,179,179)" stroke-linejoin="round" d="M 1263,5317 L 1413,5317"/>
 <path fill="none" stroke="rgb(179,179,179)" stroke-linejoin="round" d="M 1263,5317 L 1413,5317"/>
 <path fill="none" stroke="rgb(179,179,179)" stroke-linejoin="round" d="M 1263,1711 L 1413,1711"/>
 <path fill="none" stroke="rgb(179,179,179)" stroke-linejoin="round" d="M 1263,1711 L 1413,1711"/>
 <path fill="none" stroke="rgb(179,179,179)" stroke-linejoin="round" d="M 1413,23349 L 1413,1711"/>
 <path fill="none" stroke="rgb(141,40,30)" stroke-width="80" stroke-linejoin="round" stroke-dasharray="80,40" d="M 1470,23337 L 1585,23333 1700,23333 1815,23325 1929,23316 2044,23302 2159,23273 2274,23245 2389,23211 2504,23169 2619,23115 2733,23061 2848,22998 2963,22904 3078,22809 3193,22706 3308,22614 3423,22517 3537,22390 3652,22266 3767,22112 3882,21949 3997,21802 4112,21674 4227,21534 4341,21391 4456,21240 4571,21072 4686,20920 4801,20781 4916,20645 5031,20575 5145,20464 5260,20344 5375,20199 5490,20056 5605,19950 5720,19845 5835,19717 5949,19606 6064,19478 6179,19321 6294,19238 6409,19075 6524,18967 6639,18877 6753,18780 6868,18670 6983,18702 7098,18581 7213,18493 7328,18386 7443,18309 7558,18204 7672,18080 7787,17967 7902,17850 8017,17791 8132,17708 8247,17701 8362,17576 8476,17543 8591,17419 8706,17313 8821,17279 8936,17201 9051,17146 9166,17077 9280,16983 9395,16874 9510,17031 9625,16979 9740,16899 9855,16866 9970,16798 10084,16743 10199,16671 10314,16579 10429,16506 10544,16555 10659,16538 10774,16460 10888,16441 11003,16361 11118,16266 11233,16195 11348,16131 11463,16106 11578,16046 11692,15985 11806,15902 11921,15807 12036,15722 12151,15644 12266,15619 12381,15533 12495,15445 12610,15335 12725,15209 12840,15092 12955,14975 13070,14910 13185,14762 13300,14623 13414,14449 13529,14246 13644,14062 13759,13880 13874,13768 13989,13607 14104,13383 14218,13374 14333,13133 14448,13450 14563,13248 14678,13100 14793,12847 14908,12624 15022,12372 15137,12084 15252,11827 15367,11566 15482,11385 15597,11117 15712,10901 15826,10566 15941,10271 16056,10014 16171,9725 16286,9551 16401,9325 16516,9102 16630,8856 16745,8615 16860,8355 16975,8159 17090,8010 17205,7819 17320,7627 17434,7398 17549,7170 17664,6987 17779,6767 17894,6766 18009,6545 18124,6531 18238,6326 18353,6153 18468,5958 18583,5780"/>
 <path fill="none" stroke="rgb(255,64,0)" stroke-width="80" stroke-linejoin="round" stroke-dasharray="80,40" d="M 1470,23347 L 1585,23347 1700,23347 1815,23347 1929,23346 2044,23345 2159,23343 2274,23342 2389,23340 2504,23336 2619,23332 2733,23330 2848,23327 2963,23324 3078,23320 3193,23316 3308,23314 3423,23312 3537,23303 3652,23294 3767,23284 3882,23276 3997,23265 4112,23259 4227,23251 4341,23236 4456,23219 4571,23204 4686,23192 4801,23184 4916,23172 5031,23162 5145,23173 5260,23242 5375,23226 5490,23200 5605,23176 5720,23229 5835,23212 5949,23201 6064,23200 6179,23178 6294,23156 6409,23127 6524,23105 6639,23079 6753,23046 6868,23009 6983,22964 7098,22943 7213,22929 7328,22909 7443,22878 7558,22845 7672,22783 7787,22744 7902,22690 8017,22638 8132,22613 8247,22580 8362,22558 8476,22513 8591,22417 8706,22327 8821,22261 8936,22238 9051,22177 9166,22100 9280,22024 9395,21956 9510,21868 9625,21797 9740,21730 9855,21671 9970,21582 10084,21485 10199,21363 10314,21245 10429,21068 10544,20980 10659,20926 10774,20797 10888,20693 11003,20582 11118,20430 11233,20295 11348,20196 11463,20870 11578,20765 11692,20642 11806,20531 11921,20447 12036,20392 12151,20334 12266,20237 12381,20056 12495,20057 12610,19989 12725,19679 12840,19607 12955,19574 13070,19499 13185,19399 13300,19322 13414,19159 13529,18963 13644,18859 13759,18761 13874,18662 13989,18645 14104,18506 14218,19297 14333,19178 14448,18918 14563,19027 14678,19145 14793,19148 14908,19059 15022,18976 15137,18993 15252,18898 15367,18869 15482,18927 15597,18856 15712,18754 15826,18782 15941,18765 16056,18691 16171,18597 16286,18899 16401,18911 16516,18656 16630,18399 16745,18553 16860,18912 16975,18942 17090,19036 17205,18885 17320,18771 17434,18578 17549,18585 17664,18456 17779,18453 17894,18623 18009,18692 18124,18498 18238,18398 18353,18336 18468,18337 18583,18447"/>
 <path fill="none" stroke="rgb(21,132,102)" stroke-width="80" stroke-linejoin="round" stroke-dasharray="80,203,80,203,203,203" d="M 1470,23332 L 1585,23330 1700,23328 1815,23326 1929,23323 2044,23319 2159,23313 2274,23307 2389,23301 2504,23295 2619,23286 2733,23279 2848,23270 2963,23258 3078,23246 3193,23233 3308,23222 3423,23212 3537,23198 3652,23185 3767,23172 3882,23158 3997,23145 4112,23133 4227,23121 4341,23111 4456,23099 4571,23087 4686,23073 4801,23063 4916,23047 5031,23038 5145,23029 5260,23021 5375,23007 5490,22995 5605,22985 5720,22975 5835,22964 5949,22957 6064,22948 6179,22935 6294,22928 6409,22916 6524,22907 6639,22898 6753,22890 6868,22884 6983,22881 7098,22871 7213,22863 7328,22853 7443,22844 7558,22835 7672,22827 7787,22816 7902,22805 8017,22799 8132,22790 8247,22784 8362,22774 8476,22769 8591,22757 8706,22747 8821,22739 8936,22731 9051,22723 9166,22714 9280,22705 9395,22693 9510,22695 9625,22684 9740,22676 9855,22671 9970,22663 10084,22655 10199,22644 10314,22635 10429,22620 10544,22614 10659,22605 10774,22602 10888,22594 11003,22582 11118,22569 11233,22555 11348,22543 11463,22555 11578,22546 11692,22535 11806,22524 11921,22513 12036,22503 12151,22489 12266,22481 12381,22472 12495,22468 12610,22456 12725,22437 12840,22429 12955,22416 13070,22406 13185,22393 13300,22381 13414,22363 13529,22344 13644,22329 13759,22313 13874,22299 13989,22287 14104,22264 14218,22283 14333,22263 14448,22264 14563,22251 14678,22241 14793,22228 14908,22216 15022,22196 15137,22176 15252,22156 15367,22138 15482,22127 15597,22110 15712,22094 15826,22072 15941,22060 16056,22042 16171,22013 16286,22003 16401,21991 16516,21968 16630,21945 16745,21934 16860,21927 16975,21911 17090,21899 17205,21882 17320,21864 17434,21852 17549,21832 17664,21818 17779,21797 17894,21803 18009,21796 18124,21786 18238,21766 18353,21747 18468,21734 18583,21724"/>
 <path fill="none" stroke="rgb(255,211,32)" stroke-width="80" stroke-linejoin="round" d="M 1470,23325 L 1585,23317 1700,23306 1815,23299 1929,23282 2044,23271 2159,23232 2274,23209 2389,23182 2504,23161 2619,23142 2733,23116 2848,23073 2963,23028 3078,22968 3193,22909 3308,22879 3423,22851 3537,22804 3652,22775 3767,22718 3882,22681 3997,22619 4112,22604 4227,22570 4341,22547 4456,22510 4571,22480 4686,22462 4801,22458 4916,22441 5031,22440 5145,22455 5260,22468 5375,22457 5490,22473 5605,22473 5720,22462 5835,22482 5949,22493 6064,22518 6179,22536 6294,22559 6409,22560 6524,22567 6639,22608 6753,22620 6868,22634 6983,22653 7098,22654 7213,22667 7328,22684 7443,22715 7558,22737 7672,22758 7787,22778 7902,22778 8017,22781 8132,22781 8247,22813 8362,22835 8476,22855 8591,22874 8706,22889 8821,22888 8936,22891 9051,22903 9166,22907 9280,22913 9395,22924 9510,22932 9625,22922 9740,22917 9855,22927 9970,22934 10084,22945 10199,22951 10314,22948 10429,22950 10544,22946 10659,22955 10774,22952 10888,22950 11003,22951 11118,22958 11233,22952 11348,22943 11463,22949 11578,22949 11692,22947 11806,22951 11921,22945 12036,22937 12151,22933 12266,22938 12381,22941 12495,22939 12610,22927 12725,22911 12840,22905 12955,22900 13070,22902 13185,22884 13300,22869 13414,22864 13529,22840 13644,22798 13759,22751 13874,22724 13989,22703 14104,22692 14218,22674 14333,22655 14448,22635 14563,22624 14678,22617 14793,22604 14908,22599 15022,22601 15137,22601 15252,22585 15367,22578 15482,22589 15597,22583 15712,22572 15826,22571 15941,22564 16056,22546 16171,22536 16286,22523 16401,22499 16516,22496 16630,22489 16745,22458 16860,22464 16975,22755 17090,22723 17205,22675 17320,22626 17434,22589 17549,22570 17664,22552 17779,22538 17894,22521 18009,22491 18124,22468 18238,22503 18353,22520 18468,22493 18583,22477"/>
 <path fill="none" stroke="rgb(191,0,65)" stroke-width="80" stroke-linejoin="round" stroke-dasharray="51,127,51,127,254,127,254,127,254,127" d="M 1470,23337 L 1585,23332 1700,23329 1815,23325 1929,23319 2044,23314 2159,23306 2274,23298 2389,23287 2504,23279 2619,23267 2733,23255 2848,23241 2963,23225 3078,23206 3193,23187 3308,23168 3423,23153 3537,23136 3652,23119 3767,23098 3882,23072 3997,23051 4112,23033 4227,23020 4341,23000 4456,22981 4571,22963 4686,22945 4801,22927 4916,22916 5031,22907 5145,22901 5260,22895 5375,22881 5490,22871 5605,22861 5720,22848 5835,22845 5949,22841 6064,22838 6179,22831 6294,22833 6409,22830 6524,22823 6639,22822 6753,22825 6868,22825 6983,22834 7098,22835 7213,22838 7328,22836 7443,22838 7558,22837 7672,22845 7787,22849 7902,22859 8017,22864 8132,22861 8247,22861 8362,22868 8476,22875 8591,22895 8706,22899 8821,22900 8936,22904 9051,22918 9166,22920 9280,22919 9395,22928 9510,22930 9625,22935 9740,22932 9855,22931 9970,22942 10084,22945 10199,22955 10314,22954 10429,22957 10544,22960 10659,22958 10774,22960 10888,22964 11003,22962 11118,22962 11233,22959 11348,22952 11463,22946 11578,22942 11692,22941 11806,22938 11921,22932 12036,22927 12151,22919 12266,22914 12381,22913 12495,22905 12610,22903 12725,22902 12840,22900 12955,22901 13070,22901 13185,22900 13300,22900 13414,22902 13529,22903 13644,22903 13759,22904 13874,22899 13989,22894 14104,22892 14218,22882 14333,22877 14448,22872 14563,22872 14678,22869 14793,22864 14908,22863 15022,22855 15137,22849 15252,22840 15367,22836 15482,22835 15597,22824 15712,22823 15826,22811 15941,22800 16056,22785 16171,22771 16286,22760 16401,22768 16516,22750 16630,22735 16745,22721 16860,22696 16975,22708 17090,22687 17205,22663 17320,22635 17434,22605 17549,22580 17664,22556 17779,22535 17894,22516 18009,22489 18124,22465 18238,22446 18353,22422 18468,22395 18583,22370"/>
 <path fill="none" stroke="rgb(128,0,128)" stroke-width="80" stroke-linejoin="round" stroke-dasharray="158,158" d="M 1470,23348 L 1585,23348 1700,23348 1815,23348 1929,23348 2044,23348 2159,23348 2274,23348 2389,23348 2504,23348 2619,23348 2733,23348 2848,23348 2963,23348 3078,23347 3193,23347 3308,23347 3423,23347 3537,23347 3652,23346 3767,23346 3882,23345 3997,23345 4112,23344 4227,23343 4341,23342 4456,23342 4571,23341 4686,23340 4801,23339 4916,23338 5031,23337 5145,23336 5260,23335 5375,23334 5490,23333 5605,23332 5720,23330 5835,23329 5949,23328 6064,23327 6179,23326 6294,23325 6409,23323 6524,23322 6639,23321 6753,23319 6868,23318 6983,23316 7098,23314 7213,23312 7328,23310 7443,23307 7558,23305 7672,23302 7787,23299 7902,23296 8017,23294 8132,23291 8247,23288 8362,23286 8476,23284 8591,23281 8706,23280 8821,23279 8936,23275 9051,23273 9166,23269 9280,23266 9395,23262 9510,23258 9625,23253 9740,23248 9855,23244 9970,23241 10084,23236 10199,23231 10314,23236 10429,23231 10544,23227 10659,23222 10774,23216 10888,23209 11003,23202 11118,23197 11233,23190 11348,23183 11463,23179 11578,23174 11692,23161 11806,23163 11921,23158 12036,23153 12151,23148 12266,23148 12381,23146 12495,23139 12610,23135 12725,23129 12840,23127 12955,23121 13070,23116 13185,23109 13300,23105 13414,23101 13529,23091 13644,23083 13759,23074 13874,23067 13989,23061 14104,23052 14218,23051 14333,23041 14448,23029 14563,23018 14678,23009 14793,23002 14908,22996 15022,22987 15137,22978 15252,22967 15367,22954 15482,22941 15597,22931 15712,22916 15826,22901 15941,22879 16056,22860 16171,22838 16286,22822 16401,22811 16516,22791 16630,22773 16745,22752 16860,22737 16975,22714 17090,22701 17205,22683 17320,22660 17434,22638 17549,22610 17664,22607 17779,22591 17894,22582 18009,22582 18124,22570 18238,22555 18353,22540 18468,22527 18583,22519"/>
 <path fill="none" stroke="rgb(0,169,51)" stroke-width="80" stroke-linejoin="round" stroke-dasharray="80,40" d="M 1470,23348 L 1585,23348 1700,23348 1815,23347 1929,23347 2044,23347 2159,23346 2274,23346 2389,23345 2504,23344 2619,23343 2733,23343 2848,23342 2963,23340 3078,23339 3193,23337 3308,23335 3423,23334 3537,23332 3652,23330 3767,23329 3882,23335 3997,23332 4112,23329 4227,23325 4341,23320 4456,23315 4571,23312 4686,23307 4801,23302 4916,23312 5031,23309 5145,23306 5260,23303 5375,23297 5490,23290 5605,23282 5720,23279 5835,23273 5949,23264 6064,23251 6179,23237 6294,23222 6409,23273 6524,23279 6639,23278 6753,23296 6868,23284 6983,23265 7098,23259 7213,23242 7328,23238 7443,23220 7558,23255 7672,23249 7787,23224 7902,23236 8017,23233 8132,23212 8247,23213 8362,23230 8476,23223 8591,23214 8706,23211 8821,23205 8936,23199 9051,23196 9166,23190 9280,23179 9395,23168 9510,23162 9625,23149 9740,23149 9855,23152 9970,23143 10084,23130 10199,23120 10314,23122 10429,23118 10544,23111 10659,23120 10774,23112 10888,23113 11003,23091 11118,23083 11233,23079 11348,23074 11463,23091 11578,23084 11692,23070 11806,23057 11921,23043 12036,23044 12151,23035 12266,23063 12381,23053 12495,23038 12610,23019 12725,23018 12840,23019 12955,23010 13070,23025 13185,23007 13300,23012 13414,22991 13529,22988 13644,22989 13759,22991 13874,23021 13989,23016 14104,23003 14218,22991 14333,22984 14448,22984 14563,22981 14678,22988 14793,22977 14908,22958 15022,22941 15137,22934 15252,22919 15367,22931 15482,22945 15597,22938 15712,22952 15826,22946 15941,22946 16056,22946 16171,22648 16286,22694 16401,22671 16516,22636 16630,22602 16745,22618 16860,22609 16975,22627 17090,22682 17205,22654 17320,22669 17434,22648 17549,22638 17664,22623 17779,22666 17894,22756 18009,22738 18124,22724 18238,22693 18353,22677 18468,22694 18583,22739"/>
 <path fill="none" stroke="rgb(0,255,0)" stroke-width="80" stroke-linejoin="round" d="M 1470,23114 L 1585,23069 1700,22894 1815,22894 1929,22792 2044,22727 2159,22511 2274,22260 2389,21997 2504,21839 2619,21568 2733,21343 2848,21137 2963,20955 3078,21022 3193,20789 3308,20654 3423,20486 3537,20359 3652,20366 3767,20374 3882,20396 3997,20552 4112,20438 4227,20674 4341,20697 4456,20726 4571,20743 4686,20755 4801,20854 4916,20930 5031,21088 5145,21044 5260,21328 5375,21358 5490,21400 5605,21487 5720,21568 5835,21699 5949,21851 6064,21919 6179,22026 6294,22080 6409,22099 6524,22171 6639,22244 6753,22314 6868,22288 6983,22422 7098,22504 7213,22545 7328,22589 7443,22724 7558,22762 7672,22816 7787,22845 7902,22873 8017,22927 8132,22958 8247,22995 8362,22992 8476,23048 8591,23038 8706,23028 8821,23079 8936,23097 9051,23117 9166,23135 9280,23147 9395,23162 9510,23160 9625,23178 9740,23196 9855,23217 9970,23214 10084,23232 10199,23228 10314,23222 10429,23239 10544,23256 10659,23255 10774,23254 10888,23271 11003,23267 11118,23262 11233,23279 11348,23277 11463,23276 11578,23275 11692,23270 11806,23285 11921,23281 12036,23274 12151,23270 12266,23288 12381,23286 12495,23280 12610,23277 12725,23270 12840,23268 12955,23278 13070,23275 13185,23270 13300,23261 13414,23251 13529,23239 13644,23246 13759,23233 13874,23226 13989,23234 14104,23206 14218,23181 14333,23153 14448,23133 14563,23140 14678,23130 14793,23119 14908,23113 15022,23094 15137,23073 15252,23067 15367,23075 15482,23061 15597,23088 15712,23061 15826,23052 15941,23033 16056,23010 16171,23073 16286,23065 16401,23042 16516,23055 16630,23031 16745,22999 16860,22968 16975,22987 17090,23015 17205,23009 17320,22990 17434,22944 17549,22900 17664,22904 17779,22917 17894,22904 18009,22897 18124,22860 18238,22823 18353,22789 18468,22814 18583,22866"/>
 <path fill="none" stroke="rgb(0,127,255)" stroke-width="80" stroke-linejoin="round" d="M 1470,22902 L 1585,22819 1700,22734 1815,22660 1929,22571 2044,22492 2159,22359 2274,22199 2389,22076 2504,21958 2619,21833 2733,21737 2848,21633 2963,21499 3078,21368 3193,21259 3308,21145 3423,21096 3537,21033 3652,20945 3767,20872 3882,20802 3997,20716 4112,20627 4227,20569 4341,20543 4456,20507 4571,20459 4686,20418 4801,20358 4916,20299 5031,20258 5145,20238 5260,20204 5375,20169 5490,20158 5605,20134 5720,20120 5835,20120 5949,20136 6064,20136 6179,20162 6294,20171 6409,20192 6524,20184 6639,20193 6753,20211 6868,20227 6983,20320 7098,20338 7213,20345 7328,20361 7443,20367 7558,20412 7672,20619 7787,20675 7902,20725 8017,20818 8132,20863 8247,20888 8362,20925 8476,21009 8591,21069 8706,21199 8821,21255 8936,21310 9051,21364 9166,21406 9280,21477 9395,21530 9510,21579 9625,21626 9740,21661 9855,21699 9970,21770 10084,21828 10199,21917 10314,21971 10429,22045 10544,22094 10659,22115 10774,22159 10888,22176 11003,22202 11118,22246 11233,22278 11348,22297 11463,22313 11578,22368 11692,22403 11806,22435 11921,22484 12036,22529 12151,22565 12266,22576 12381,22616 12495,22635 12610,22660 12725,22706 12840,22716 12955,22723 13070,22733 13185,22765 13300,22792 13414,22803 13529,22822 13644,22846 13759,22851 13874,22857 13989,22884 14104,22894 14218,22899 14333,22905 14448,22912 14563,22912 14678,22910 14793,22924 14908,22943 15022,22947 15137,22948 15252,22952 15367,22955 15482,22956 15597,22963 15712,22976 15826,22976 15941,22977 16056,22980 16171,22977 16286,22979 16401,22983 16516,22981 16630,22979 16745,22982 16860,22977 16975,22974 17090,22973 17205,22972 17320,22972 17434,22984 17549,22978 17664,22977 17779,22977 17894,22976 18009,22976 18124,22971 18238,22970 18353,22963 18468,22962 18583,22953"/>
 <path fill="none" stroke="rgb(0,169,51)" stroke-width="80" stroke-linejoin="round" d="M 1470,23249 L 1585,23219 1700,23178 1815,23146 1929,23083 2044,23022 2159,22948 2274,22873 2389,22788 2504,22636 2619,22459 2733,22298 2848,22237 2963,21997 3078,21872 3193,21751 3308,21702 3423,21572 3537,21555 3652,21521 3767,21502 3882,21480 3997,21529 4112,21577 4227,21624 4341,21677 4456,21715 4571,21805 4686,21913 4801,21974 4916,22025 5031,22081 5145,22105 5260,22178 5375,22331 5490,22456 5605,22545 5720,22588 5835,22609 5949,22666 6064,22730 6179,22791 6294,22814 6409,22846 6524,22868 6639,22875 6753,22906 6868,22939 6983,22956 7098,22982 7213,22992 7328,22994 7443,23007 7558,23032 7672,23061 7787,23059 7902,23083 8017,23090 8132,23096 8247,23108 8362,23110 8476,23134 8591,23143 8706,23146 8821,23139 8936,23138 9051,23143 9166,23146 9280,23181 9395,23184 9510,23189 9625,23186 9740,23188 9855,23196 9970,23202 10084,23205 10199,23214 10314,23220 10429,23249 10544,23254 10659,23255 10774,23256 10888,23263 11003,23265 11118,23263 11233,23261 11348,23261 11463,23257 11578,23262 11692,23264 11806,23266 11921,23268 12036,23271 12151,23274 12266,23270 12381,23265 12495,23265 12610,23262 12725,23260 12840,23256 12955,23258 13070,23259 13185,23258 13300,23254 13414,23257 13529,23253 13644,23247 13759,23238 13874,23228 13989,23232 14104,23213 14218,23204 14333,23191 14448,23178 14563,23156 14678,23146 14793,23142 14908,23131 15022,23118 15137,23109 15252,23106 15367,23101 15482,23100 15597,23100 15712,23094 15826,23085 15941,23070 16056,23076 16171,23079 16286,23074 16401,23068 16516,23074 16630,23059 16745,23056 16860,23048 16975,23038 17090,23028 17205,23031 17320,23027 17434,23026 17549,23017 17664,23032 17779,23028 17894,23027 18009,23063 18124,23072 18238,23072 18353,23063 18468,23071 18583,23070"/>
 <path fill="none" stroke="rgb(85,48,141)" stroke-width="80" stroke-linejoin="round" stroke-dasharray="80,40" d="M 1470,23340 L 1585,23339 1700,23337 1815,23329 1929,23326 2044,23318 2159,23311 2274,23304 2389,23289 2504,23280 2619,23250 2733,23222 2848,23203 2963,23166 3078,23140 3193,23107 3308,23074 3423,23021 3537,23022 3652,22960 3767,22899 3882,22867 3997,22862 4112,22752 4227,22729 4341,22694 4456,22652 4571,22632 4686,22601 4801,22581 4916,22562 5031,22530 5145,22492 5260,22477 5375,22400 5490,22349 5605,22298 5720,22287 5835,22231 5949,22187 6064,22148 6179,22092 6294,22041 6409,22021 6524,21989 6639,21986 6753,21966 6868,21945 6983,21928 7098,21913 7213,21895 7328,21830 7443,21823 7558,21819 7672,21813 7787,21800 7902,21784 8017,21780 8132,21772 8247,21765 8362,21769 8476,21773 8591,21768 8706,21754 8821,21744 8936,21730 9051,21714 9166,21705 9280,21694 9395,21688 9510,21677 9625,21659 9740,21649 9855,21637 9970,21629 10084,21635 10199,21627 10314,21631 10429,21628 10544,21634 10659,21638 10774,21640 10888,21650 11003,21659 11118,21672 11233,21698 11348,21694 11463,21699 11578,21717 11692,21750 11806,21774 11921,21799 12036,21819 12151,21843 12266,21864 12381,21871 12495,21920 12610,21928 12725,21935 12840,21940 12955,21946 13070,21953 13185,21957 13300,21962 13414,21962 13529,21969 13644,21970 13759,21967 13874,21987 13989,21995 14104,22001 14218,22007 14333,22010 14448,22013 14563,22016 14678,22014 14793,22018 14908,22023 15022,22022 15137,22025 15252,22032 15367,22031 15482,22022 15597,22021 15712,22022 15826,22019 15941,23139 16056,23131 16171,23124 16286,23107 16401,23094 16516,23092 16630,23084 16745,23077 16860,23073 16975,23067 17090,23058 17205,23051 17320,23043 17434,23045 17549,23043 17664,23040 17779,23034 17894,23029 18009,23033 18124,23031 18238,23029 18353,23026 18468,23020 18583,23018"/>
 <path fill="none" stroke="rgb(0,0,0)" stroke-width="80" stroke-linejoin="round" d="M 1470,23271 L 1585,23251 1700,23225 1815,23194 1929,23151 2044,23086 2159,23022 2274,22927 2389,22877 2504,22821 2619,22732 2733,22712 2848,22626 2963,22531 3078,22404 3193,22299 3308,22222 3423,22213 3537,22166 3652,22095 3767,22030 3882,21943 3997,21880 4112,21845 4227,21780 4341,21851 4456,21957 4571,21989 4686,21939 4801,21954 4916,21960 5031,22002 5145,22060 5260,22093 5375,22129 5490,22188 5605,22197 5720,22216 5835,22257 5949,22314 6064,22359 6179,22396 6294,22500 6409,22470 6524,22492 6639,22528 6753,22569 6868,22602 6983,22641 7098,22693 7213,22721 7328,22742 7443,22779 7558,22812 7672,22897 7787,22911 7902,22888 8017,22908 8132,22920 8247,22933 8362,22956 8476,22971 8591,22998 8706,23010 8821,23021 8936,23039 9051,23058 9166,23047 9280,23061 9395,23074 9510,23081 9625,23090 9740,23095 9855,23110 9970,23115 10084,23127 10199,23125 10314,23130 10429,23139 10544,23144 10659,23146 10774,23161 10888,23175 11003,23178 11118,23181 11233,23180 11348,23180 11463,23179 11578,23184 11692,23195 11806,23199 11921,23200 12036,23209 12151,23206 12266,23215 12381,23207 12495,23216 12610,23196 12725,23188 12840,23194 12955,23184 13070,23182 13185,23182 13300,23187 13414,23183 13529,23178 13644,23177 13759,23175 13874,23170 13989,23169 14104,23181 14218,23186 14333,23188 14448,23194 14563,23203 14678,23200 14793,23205 14908,23209 15022,23215 15137,23214 15252,23211 15367,23210 15482,23219 15597,23213 15712,23223 15826,23220 15941,23218 16056,23216 16171,23214 16286,23216 16401,23211 16516,23208 16630,23206 16745,23202 16860,23193 16975,23187 17090,23183 17205,23179 17320,23173 17434,23158 17549,23149 17664,23150 17779,23151 17894,23147 18009,23144 18124,23125 18238,23121 18353,23110 18468,23108 18583,23105"/>
 <path fill="none" stroke="rgb(180,120,4)" stroke-width="80" stroke-linejoin="round" d="M 1470,23103 L 1585,23094 1700,23082 1815,23064 1929,23037 2044,23009 2159,22976 2274,22943 2389,22919 2504,22890 2619,22876 2733,22844 2848,22802 2963,22758 3078,22709 3193,22662 3308,22609 3423,22552 3537,22470 3652,22671 3767,22652 3882,22578 3997,22514 4112,22446 4227,22370 4341,22296 4456,22243 4571,22214 4686,22175 4801,22181 4916,22185 5031,22179 5145,22212 5260,22235 5375,22263 5490,22321 5605,22413 5720,22463 5835,22478 5949,22544 6064,22600 6179,22644 6294,22648 6409,22625 6524,22628 6639,22639 6753,22645 6868,22674 6983,22687 7098,22699 7213,22723 7328,22720 7443,22709 7558,22730 7672,22755 7787,22780 7902,22808 8017,22829 8132,22834 8247,22843 8362,22895 8476,22899 8591,22929 8706,22953 8821,22979 8936,22996 9051,23006 9166,23019 9280,23034 9395,23049 9510,23072 9625,23076 9740,23074 9855,23085 9970,23097 10084,23101 10199,23114 10314,23108 10429,23123 10544,23124 10659,23131 10774,23145 10888,23153 11003,23162 11118,23154 11233,23160 11348,23164 11463,23172 11578,23178 11692,23190 11806,23200 11921,23192 12036,23193 12151,23187 12266,23187 12381,23187 12495,23192 12610,23195 12725,23193 12840,23193 12955,23193 13070,23172 13185,23176 13300,23168 13414,23173 13529,23176 13644,23176 13759,23176 13874,23185 13989,23191 14104,23197 14218,23214 14333,23223 14448,23223 14563,23223 14678,23245 14793,23258 14908,23260 15022,23268 15137,23269 15252,23269 15367,23269 15482,23258 15597,23260 15712,23257 15826,23251 15941,23241 16056,23241 16171,23240 16286,23225 16401,23216 16516,23205 16630,23201 16745,23199 16860,23199 16975,23192 17090,23182 17205,23182 17320,23175 17434,23158 17549,23155 17664,23155 17779,23156 17894,23125 18009,23111 18124,23084 18238,23050 18353,23017 18468,23016 18583,23020"/>
 <path fill="none" stroke="rgb(0,0,255)" stroke-width="80" stroke-linejoin="round" stroke-dasharray="158,158" d="M 1470,23088 L 1585,23085 1700,23082 1815,23101 1929,23108 2044,23110 2159,23105 2274,23102 2389,23097 2504,23140 2619,23140 2733,23158 2848,23163 2963,23174 3078,23184 3193,23189 3308,23194 3423,23198 3537,23200 3652,23202 3767,23209 3882,23212 3997,23220 4112,23222 4227,23225 4341,23227 4456,23229 4571,23234 4686,23239 4801,23242 4916,23245 5031,23247 5145,23250 5260,23252 5375,23256 5490,23258 5605,23261 5720,23265 5835,23267 5949,23270 6064,23272 6179,23279 6294,23284 6409,23286 6524,23288 6639,23290 6753,23292 6868,23297 6983,23297 7098,23299 7213,23301 7328,23302 7443,23304 7558,23306 7672,23309 7787,23310 7902,23313 8017,23313 8132,23313 8247,23313 8362,23313 8476,23314 8591,23316 8706,23316 8821,23317 8936,23317 9051,23318 9166,23321 9280,23323 9395,23323 9510,23324 9625,23323 9740,23323 9855,23325 9970,23324 10084,23323 10199,23321 10314,23321 10429,23321 10544,23320 10659,23320 10774,23319 10888,23318 11003,23317 11118,23316 11233,23315 11348,23314 11463,23314 11578,23313 11692,23313 11806,23311 11921,23310 12036,23310 12151,23309 12266,23309 12381,23308 12495,23307 12610,23307 12725,23305 12840,23304 12955,23304 13070,23303 13185,23302 13300,23303 13414,23308 13529,23311 13644,23311 13759,23312 13874,23314 13989,23315 14104,23316 14218,23316 14333,23316 14448,23314 14563,23313 14678,23314 14793,23314 14908,23314 15022,23314 15137,23315 15252,23315 15367,23314 15482,23315 15597,23316 15712,23316 15826,23316 15941,23317 16056,23317 16171,23317 16286,23318 16401,23317 16516,23317 16630,23318 16745,23316 16860,23315 16975,23314 17090,23317 17205,23317 17320,23319 17434,23320 17549,23320 17664,23320 17779,23320 17894,23321 18009,23322 18124,23324 18238,23325 18353,23326 18468,23326 18583,23325"/>
 <text class="TextShape" transform="rotate(-90 1596 24553)"><tspan class="TextParagraph" font-family="Liberation Sans, sans-serif" font-size="388px" font-weight="400"><tspan class="TextPosition" x="1596" y="24553"><tspan fill="rgb(0,0,0)" stroke="none">13.03</tspan></tspan></tspan></text>
 <text class="TextShape" transform="rotate(-90 2400 24553)"><tspan class="TextParagraph" font-family="Liberation Sans, sans-serif" font-size="388px" font-weight="400"><tspan class="TextPosition" x="2400" y="24553"><tspan fill="rgb(0,0,0)" stroke="none">20.03</tspan></tspan></tspan></text>
 <text class="TextShape" transform="rotate(-90 3204 24553)"><tspan class="TextParagraph" font-family="Liberation Sans, sans-serif" font-size="388px" font-weight="400"><tspan class="TextPosition" x="3204" y="24553"><tspan fill="rgb(0,0,0)" stroke="none">27.03</tspan></tspan></tspan></text>
 <text class="TextShape" transform="rotate(-90 4008 24553)"><tspan class="TextParagraph" font-family="Liberation Sans, sans-serif" font-size="388px" font-weight="400"><tspan class="TextPosition" x="4008" y="24553"><tspan fill="rgb(0,0,0)" stroke="none">03.04</tspan></tspan></tspan></text>
 <text class="TextShape" transform="rotate(-90 4812 24553)"><tspan class="TextParagraph" font-family="Liberation Sans, sans-serif" font-size="388px" font-weight="400"><tspan class="TextPosition" x="4812" y="24553"><tspan fill="rgb(0,0,0)" stroke="none">10.04</tspan></tspan></tspan></text>
 <text class="TextShape" transform="rotate(-90 5616 24553)"><tspan class="TextParagraph" font-family="Liberation Sans, sans-serif" font-size="388px" font-weight="400"><tspan class="TextPosition" x="5616" y="24553"><tspan fill="rgb(0,0,0)" stroke="none">17.04</tspan></tspan></tspan></text>
 <text class="TextShape" transform="rotate(-90 6420 24553)"><tspan class="TextParagraph" font-family="Liberation Sans, sans-serif" font-size="388px" font-weight="400"><tspan class="TextPosition" x="6420" y="24553"><tspan fill="rgb(0,0,0)" stroke="none">24.04</tspan></tspan></tspan></text>
 <text class="TextShape" transform="rotate(-90 7224 24553)"><tspan class="TextParagraph" font-family="Liberation Sans, sans-serif" font-size="388px" font-weight="400"><tspan class="TextPosition" x="7224" y="24553"><tspan fill="rgb(0,0,0)" stroke="none">01.05</tspan></tspan></tspan></text>
 <text class="TextShape" transform="rotate(-90 8028 24553)"><tspan class="TextParagraph" font-family="Liberation Sans, sans-serif" font-size="388px" font-weight="400"><tspan class="TextPosition" x="8028" y="24553"><tspan fill="rgb(0,0,0)" stroke="none">08.05</tspan></tspan></tspan></text>
 <text class="TextShape" transform="rotate(-90 8832 24553)"><tspan class="TextParagraph" font-family="Liberation Sans, sans-serif" font-size="388px" font-weight="400"><tspan class="TextPosition" x="8832" y="24553"><tspan fill="rgb(0,0,0)" stroke="none">15.05</tspan></tspan></tspan></text>
 <text class="TextShape" transform="rotate(-90 9636 24553)"><tspan class="TextParagraph" font-family="Liberation Sans, sans-serif" font-size="388px" font-weight="400"><tspan class="TextPosition" x="9636" y="24553"><tspan fill="rgb(0,0,0)" stroke="none">22.05</tspan></tspan></tspan></text>
 <text class="TextShape" transform="rotate(-90 10440 24553)"><tspan class="TextParagraph" font-family="Liberation Sans, sans-serif" font-size="388px" font-weight="400"><tspan class="TextPosition" x="10440" y="24553"><tspan fill="rgb(0,0,0)" stroke="none">29.05</tspan></tspan></tspan></text>
 <text class="TextShape" transform="rotate(-90 11244 24553)"><tspan class="TextParagraph" font-family="Liberation Sans, sans-serif" font-size="388px" font-weight="400"><tspan class="TextPosition" x="11244" y="24553"><tspan fill="rgb(0,0,0)" stroke="none">05.06</tspan></tspan></tspan></text>
 <text class="TextShape" transform="rotate(-90 12047 24553)"><tspan class="TextParagraph" font-family="Liberation Sans, sans-serif" font-size="388px" font-weight="400"><tspan class="TextPosition" x="12047" y="24553"><tspan fill="rgb(0,0,0)" stroke="none">12.06</tspan></tspan></tspan></text>
 <text class="TextShape" transform="rotate(-90 12851 24553)"><tspan class="TextParagraph" font-family="Liberation Sans, sans-serif" font-size="388px" font-weight="400"><tspan class="TextPosition" x="12851" y="24553"><tspan fill="rgb(0,0,0)" stroke="none">19.06</tspan></tspan></tspan></text>
 <text class="TextShape" transform="rotate(-90 13655 24553)"><tspan class="TextParagraph" font-family="Liberation Sans, sans-serif" font-size="388px" font-weight="400"><tspan class="TextPosition" x="13655" y="24553"><tspan fill="rgb(0,0,0)" stroke="none">26.06</tspan></tspan></tspan></text>
 <text class="TextShape" transform="rotate(-90 14459 24553)"><tspan class="TextParagraph" font-family="Liberation Sans, sans-serif" font-size="388px" font-weight="400"><tspan class="TextPosition" x="14459" y="24553"><tspan fill="rgb(0,0,0)" stroke="none">03.07</tspan></tspan></tspan></text>
 <text class="TextShape" transform="rotate(-90 15263 24553)"><tspan class="TextParagraph" font-family="Liberation Sans, sans-serif" font-size="388px" font-weight="400"><tspan class="TextPosition" x="15263" y="24553"><tspan fill="rgb(0,0,0)" stroke="none">10.07</tspan></tspan></tspan></text>
 <text class="TextShape" transform="rotate(-90 16067 24553)"><tspan class="TextParagraph" font-family="Liberation Sans, sans-serif" font-size="388px" font-weight="400"><tspan class="TextPosition" x="16067" y="24553"><tspan fill="rgb(0,0,0)" stroke="none">17.07</tspan></tspan></tspan></text>
 <text class="TextShape" transform="rotate(-90 16871 24553)"><tspan class="TextParagraph" font-family="Liberation Sans, sans-serif" font-size="388px" font-weight="400"><tspan class="TextPosition" x="16871" y="24553"><tspan fill="rgb(0,0,0)" stroke="none">24.07</tspan></tspan></tspan></text>
 <text class="TextShape" transform="rotate(-90 17675 24553)"><tspan class="TextParagraph" font-family="Liberation Sans, sans-serif" font-size="388px" font-weight="400"><tspan class="TextPosition" x="17675" y="24553"><tspan fill="rgb(0,0,0)" stroke="none">31.07</tspan></tspan></tspan></text>
 <text class="TextShape" transform="rotate(-90 18479 24553)"><tspan class="TextParagraph" font-family="Liberation Sans, sans-serif" font-size="388px" font-weight="400"><tspan class="TextPosition" x="18479" y="24553"><tspan fill="rgb(0,0,0)" stroke="none">07.08</tspan></tspan></tspan></text>
 <text class="TextShape"><tspan class="TextParagraph" font-family="Liberation Sans, sans-serif" font-size="388px" font-weight="400"><tspan class="TextPosition" x="951" y="23477"><tspan fill="rgb(0,0,0)" stroke="none">0</tspan></tspan></tspan></text>
 <text class="TextShape"><tspan class="TextParagraph" font-family="Liberation Sans, sans-serif" font-size="388px" font-weight="400"><tspan class="TextPosition" x="316" y="19870"><tspan fill="rgb(0,0,0)" stroke="none">2000</tspan></tspan></tspan></text>
 <text class="TextShape"><tspan class="TextParagraph" font-family="Liberation Sans, sans-serif" font-size="388px" font-weight="400"><tspan class="TextPosition" x="316" y="16264"><tspan fill="rgb(0,0,0)" stroke="none">4000</tspan></tspan></tspan></text>
 <text class="TextShape"><tspan class="TextParagraph" font-family="Liberation Sans, sans-serif" font-size="388px" font-weight="400"><tspan class="TextPosition" x="316" y="12657"><tspan fill="rgb(0,0,0)" stroke="none">6000</tspan></tspan></tspan></text>
 <text class="TextShape"><tspan class="TextParagraph" font-family="Liberation Sans, sans-serif" font-size="388px" font-weight="400"><tspan class="TextPosition" x="316" y="9051"><tspan fill="rgb(0,0,0)" stroke="none">8000</tspan></tspan></tspan></text>
 <text class="TextShape"><tspan class="TextParagraph" font-family="Liberation Sans, sans-serif" font-size="388px" font-weight="400"><tspan class="TextPosition" x="105" y="5444"><tspan fill="rgb(0,0,0)" stroke="none">10000</tspan></tspan></tspan></text>
 <text class="TextShape"><tspan class="TextParagraph" font-family="Liberation Sans, sans-serif" font-size="388px" font-weight="400"><tspan class="TextPosition" x="105" y="1838"><tspan fill="rgb(0,0,0)" stroke="none">12000</tspan></tspan></tspan></text>
 <text class="TextShape"><tspan class="TextParagraph" font-family="Liberation Sans, sans-serif" font-size="494px" font-weight="700"><tspan class="TextPosition" x="707" y="990"><tspan fill="rgb(0,0,0)" stroke="none">Počet aktivních případů na milión obyvatel</tspan></tspan></tspan></text>
 <path fill="none" stroke="rgb(141,40,30)" stroke-width="80" stroke-linejoin="round" stroke-dasharray="80,40" d="M 18829,2893 L 20429,2893"/>
 <path fill="none" stroke="rgb(255,64,0)" stroke-width="80" stroke-linejoin="round" stroke-dasharray="80,40" d="M 18829,4404 L 20429,4404"/>
 <path fill="none" stroke="rgb(21,132,102)" stroke-width="80" stroke-linejoin="round" stroke-dasharray="80,203,80,203,203,203" d="M 18829,5915 L 20429,5915"/>
 <path fill="none" stroke="rgb(255,211,32)" stroke-width="80" stroke-linejoin="round" d="M 18829,7426 L 20429,7426"/>
 <path fill="none" stroke="rgb(191,0,65)" stroke-width="80" stroke-linejoin="round" stroke-dasharray="51,127,51,127,254,127,254,127,254,127" d="M 18829,8937 L 20429,8937"/>
 <path fill="none" stroke="rgb(128,0,128)" stroke-width="80" stroke-linejoin="round" stroke-dasharray="158,158" d="M 18829,10448 L 20429,10448"/>
 <path fill="none" stroke="rgb(0,169,51)" stroke-width="80" stroke-linejoin="round" stroke-dasharray="80,40" d="M 18829,11959 L 20429,11959"/>
 <path fill="none" stroke="rgb(0,255,0)" stroke-width="80" stroke-linejoin="round" d="M 18829,13469 L 20429,13469"/>
 <path fill="none" stroke="rgb(0,127,255)" stroke-width="80" stroke-linejoin="round" d="M 18829,14980 L 20429,14980"/>
 <path fill="none" stroke="rgb(0,169,51)" stroke-width="80" stroke-linejoin="round" d="M 18829,16491 L 20429,16491"/>
 <path fill="none" stroke="rgb(85,48,141)" stroke-width="80" stroke-linejoin="round" stroke-dasharray="80,40" d="M 18829,18002 L 20429,18002"/>
 <path fill="none" stroke="rgb(0,0,0)" stroke-width="80" stroke-linejoin="round" d="M 18829,19513 L 20429,19513"/>
 <path fill="none" stroke="rgb(180,120,4)" stroke-width="80" stroke-linejoin="round" d="M 18829,21024 L 20429,21024"/>
 <path fill="none" stroke="rgb(0,0,255)" stroke-width="80" stroke-linejoin="round" stroke-dasharray="158,158" d="M 18829,22535 L 20429,22535"/>
 <text class="TextShape"><tspan class="TextParagraph" font-family="Liberation Sans, sans-serif" font-size="423px" font-weight="400"><tspan class="TextPosition" x="20529" y="3041"><tspan fill="rgb(0,0,0)" stroke="none">USA</tspan></tspan></tspan></text>
 <text class="TextShape"><tspan class="TextParagraph" font-family="Liberation Sans, sans-serif" font-size="423px" font-weight="400"><tspan class="TextPosition" x="20529" y="4552"><tspan fill="rgb(0,0,0)" stroke="none">Brazílie</tspan></tspan></tspan></text>
 <text class="TextShape"><tspan class="TextParagraph" font-family="Liberation Sans, sans-serif" font-size="423px" font-weight="400"><tspan class="TextPosition" x="20529" y="6063"><tspan fill="rgb(0,0,0)" stroke="none">celosvětově</tspan></tspan></tspan></text>
 <text class="TextShape"><tspan class="TextParagraph" font-family="Liberation Sans, sans-serif" font-size="423px" font-weight="400"><tspan class="TextPosition" x="20529" y="7574"><tspan fill="rgb(0,0,0)" stroke="none">Česko</tspan></tspan></tspan></text>
 <text class="TextShape"><tspan class="TextParagraph" font-family="Liberation Sans, sans-serif" font-size="423px" font-weight="400"><tspan class="TextPosition" x="20529" y="9085"><tspan fill="rgb(0,0,0)" stroke="none">EU_nové země</tspan></tspan></tspan></text>
 <text class="TextShape"><tspan class="TextParagraph" font-family="Liberation Sans, sans-serif" font-size="423px" font-weight="400"><tspan class="TextPosition" x="20529" y="10596"><tspan fill="rgb(0,0,0)" stroke="none">Indie</tspan></tspan></tspan></text>
 <text class="TextShape"><tspan class="TextParagraph" font-family="Liberation Sans, sans-serif" font-size="423px" font-weight="400"><tspan class="TextPosition" x="20529" y="12107"><tspan fill="rgb(0,0,0)" stroke="none">Mexiko</tspan></tspan></tspan></text>
 <text class="TextShape"><tspan class="TextParagraph" font-family="Liberation Sans, sans-serif" font-size="423px" font-weight="400"><tspan class="TextPosition" x="20529" y="13617"><tspan fill="rgb(0,0,0)" stroke="none">Švýcarsko</tspan></tspan></tspan></text>
 <text class="TextShape"><tspan class="TextParagraph" font-family="Liberation Sans, sans-serif" font-size="423px" font-weight="400"><tspan class="TextPosition" x="20529" y="15128"><tspan fill="rgb(0,0,0)" stroke="none">Itálie</tspan></tspan></tspan></text>
 <text class="TextShape"><tspan class="TextParagraph" font-family="Liberation Sans, sans-serif" font-size="423px" font-weight="400"><tspan class="TextPosition" x="20529" y="16639"><tspan fill="rgb(0,0,0)" stroke="none">Rakousko</tspan></tspan></tspan></text>
 <text class="TextShape"><tspan class="TextParagraph" font-family="Liberation Sans, sans-serif" font-size="423px" font-weight="400"><tspan class="TextPosition" x="20529" y="18150"><tspan fill="rgb(0,0,0)" stroke="none">Kanada</tspan></tspan></tspan></text>
 <text class="TextShape"><tspan class="TextParagraph" font-family="Liberation Sans, sans-serif" font-size="423px" font-weight="400"><tspan class="TextPosition" x="20529" y="19661"><tspan fill="rgb(0,0,0)" stroke="none">Německo</tspan></tspan></tspan></text>
 <text class="TextShape"><tspan class="TextParagraph" font-family="Liberation Sans, sans-serif" font-size="423px" font-weight="400"><tspan class="TextPosition" x="20529" y="21172"><tspan fill="rgb(0,0,0)" stroke="none">Dánsko</tspan></tspan></tspan></text>
 <text class="TextShape"><tspan class="TextParagraph" font-family="Liberation Sans, sans-serif" font-size="423px" font-weight="400"><tspan class="TextPosition" x="20529" y="22683"><tspan fill="rgb(0,0,0)" stroke="none">Jižní Korea</tspan></tspan></tspan></text>
</svg>