<?xml version="1.0" encoding="UTF-8"?>
<!DOCTYPE svg PUBLIC "-//W3C//DTD SVG 1.1//EN" "http://www.w3.org/Graphics/SVG/1.1/DTD/svg11.dtd">
<svg width="236mm" height="238mm" viewBox="0 0 23600 23800" version="1.1" xmlns="http://www.w3.org/2000/svg" xmlns:xlink="http://www.w3.org/1999/xlink" stroke-width="28.222" stroke-linejoin="round" xml:space="preserve">
 <path fill="rgb(255,255,255)" stroke="none" d="M 11801,23813 L 0,23813 0,0 23601,0 23601,23813 11801,23813 Z"/>
 <path fill="none" stroke="rgb(179,179,179)" stroke-linejoin="round" d="M 10027,22240 L 1413,22240 1413,1630 18641,1630 18641,22240 10027,22240 Z"/>
 <path fill="none" stroke="rgb(179,179,179)" stroke-linejoin="round" d="M 18640,22239 L 1412,22239"/>
 <path fill="none" stroke="rgb(179,179,179)" stroke-linejoin="round" d="M 18640,17086 L 1412,17086"/>
 <path fill="none" stroke="rgb(179,179,179)" stroke-linejoin="round" d="M 18640,11933 L 1412,11933"/>
 <path fill="none" stroke="rgb(179,179,179)" stroke-linejoin="round" d="M 18640,6781 L 1412,6781"/>
 <path fill="none" stroke="rgb(179,179,179)" stroke-linejoin="round" d="M 18640,1629 L 1412,1629"/>
 <path fill="none" stroke="rgb(221,221,221)" stroke-linejoin="round" stroke-dasharray="53,34" d="M 18640,21208 L 1412,21208"/>
 <path fill="none" stroke="rgb(221,221,221)" stroke-linejoin="round" stroke-dasharray="53,34" d="M 18640,20177 L 1412,20177"/>
 <path fill="none" stroke="rgb(221,221,221)" stroke-linejoin="round" stroke-dasharray="53,34" d="M 18640,19147 L 1412,19147"/>
 <path fill="none" stroke="rgb(221,221,221)" stroke-linejoin="round" stroke-dasharray="53,34" d="M 18640,18116 L 1412,18116"/>
 <path fill="none" stroke="rgb(221,221,221)" stroke-linejoin="round" stroke-dasharray="53,34" d="M 18640,16055 L 1412,16055"/>
 <path fill="none" stroke="rgb(221,221,221)" stroke-linejoin="round" stroke-dasharray="53,34" d="M 18640,15025 L 1412,15025"/>
 <path fill="none" stroke="rgb(221,221,221)" stroke-linejoin="round" stroke-dasharray="53,34" d="M 18640,13994 L 1412,13994"/>
 <path fill="none" stroke="rgb(221,221,221)" stroke-linejoin="round" stroke-dasharray="53,34" d="M 18640,12964 L 1412,12964"/>
 <path fill="none" stroke="rgb(221,221,221)" stroke-linejoin="round" stroke-dasharray="53,34" d="M 18640,10903 L 1412,10903"/>
 <path fill="none" stroke="rgb(221,221,221)" stroke-linejoin="round" stroke-dasharray="53,34" d="M 18640,9873 L 1412,9873"/>
 <path fill="none" stroke="rgb(221,221,221)" stroke-linejoin="round" stroke-dasharray="53,34" d="M 18640,8842 L 1412,8842"/>
 <path fill="none" stroke="rgb(221,221,221)" stroke-linejoin="round" stroke-dasharray="53,34" d="M 18640,7812 L 1412,7812"/>
 <path fill="none" stroke="rgb(221,221,221)" stroke-linejoin="round" stroke-dasharray="53,34" d="M 18640,5751 L 1412,5751"/>
 <path fill="none" stroke="rgb(221,221,221)" stroke-linejoin="round" stroke-dasharray="53,34" d="M 18640,4720 L 1412,4720"/>
 <path fill="none" stroke="rgb(221,221,221)" stroke-linejoin="round" stroke-dasharray="53,34" d="M 18640,3690 L 1412,3690"/>
 <path fill="none" stroke="rgb(221,221,221)" stroke-linejoin="round" stroke-dasharray="53,34" d="M 18640,2659 L 1412,2659"/>
 <path fill="none" stroke="rgb(179,179,179)" stroke-linejoin="round" d="M 1412,22389 L 1412,22089"/>
 <path fill="none" stroke="rgb(179,179,179)" stroke-linejoin="round" d="M 1412,22389 L 1412,22089"/>
 <path fill="none" stroke="rgb(179,179,179)" stroke-linejoin="round" d="M 2090,22389 L 2090,22089"/>
 <path fill="none" stroke="rgb(179,179,179)" stroke-linejoin="round" d="M 2090,22389 L 2090,22089"/>
 <path fill="none" stroke="rgb(179,179,179)" stroke-linejoin="round" d="M 2768,22389 L 2768,22089"/>
 <path fill="none" stroke="rgb(179,179,179)" stroke-linejoin="round" d="M 2768,22389 L 2768,22089"/>
 <path fill="none" stroke="rgb(179,179,179)" stroke-linejoin="round" d="M 3445,22389 L 3445,22089"/>
 <path fill="none" stroke="rgb(179,179,179)" stroke-linejoin="round" d="M 3445,22389 L 3445,22089"/>
 <path fill="none" stroke="rgb(179,179,179)" stroke-linejoin="round" d="M 4123,22389 L 4123,22089"/>
 <path fill="none" stroke="rgb(179,179,179)" stroke-linejoin="round" d="M 4123,22389 L 4123,22089"/>
 <path fill="none" stroke="rgb(179,179,179)" stroke-linejoin="round" d="M 4800,22389 L 4800,22089"/>
 <path fill="none" stroke="rgb(179,179,179)" stroke-linejoin="round" d="M 4800,22389 L 4800,22089"/>
 <path fill="none" stroke="rgb(179,179,179)" stroke-linejoin="round" d="M 5478,22389 L 5478,22089"/>
 <path fill="none" stroke="rgb(179,179,179)" stroke-linejoin="round" d="M 5478,22389 L 5478,22089"/>
 <path fill="none" stroke="rgb(179,179,179)" stroke-linejoin="round" d="M 6155,22389 L 6155,22089"/>
 <path fill="none" stroke="rgb(179,179,179)" stroke-linejoin="round" d="M 6155,22389 L 6155,22089"/>
 <path fill="none" stroke="rgb(179,179,179)" stroke-linejoin="round" d="M 6833,22389 L 6833,22089"/>
 <path fill="none" stroke="rgb(179,179,179)" stroke-linejoin="round" d="M 6833,22389 L 6833,22089"/>
 <path fill="none" stroke="rgb(179,179,179)" stroke-linejoin="round" d="M 7510,22389 L 7510,22089"/>
 <path fill="none" stroke="rgb(179,179,179)" stroke-linejoin="round" d="M 7510,22389 L 7510,22089"/>
 <path fill="none" stroke="rgb(179,179,179)" stroke-linejoin="round" d="M 8188,22389 L 8188,22089"/>
 <path fill="none" stroke="rgb(179,179,179)" stroke-linejoin="round" d="M 8188,22389 L 8188,22089"/>
 <path fill="none" stroke="rgb(179,179,179)" stroke-linejoin="round" d="M 8865,22389 L 8865,22089"/>
 <path fill="none" stroke="rgb(179,179,179)" stroke-linejoin="round" d="M 8865,22389 L 8865,22089"/>
 <path fill="none" stroke="rgb(179,179,179)" stroke-linejoin="round" d="M 9543,22389 L 9543,22089"/>
 <path fill="none" stroke="rgb(179,179,179)" stroke-linejoin="round" d="M 9543,22389 L 9543,22089"/>
 <path fill="none" stroke="rgb(179,179,179)" stroke-linejoin="round" d="M 10221,22389 L 10221,22089"/>
 <path fill="none" stroke="rgb(179,179,179)" stroke-linejoin="round" d="M 10221,22389 L 10221,22089"/>
 <path fill="none" stroke="rgb(179,179,179)" stroke-linejoin="round" d="M 10898,22389 L 10898,22089"/>
 <path fill="none" stroke="rgb(179,179,179)" stroke-linejoin="round" d="M 10898,22389 L 10898,22089"/>
 <path fill="none" stroke="rgb(179,179,179)" stroke-linejoin="round" d="M 11576,22389 L 11576,22089"/>
 <path fill="none" stroke="rgb(179,179,179)" stroke-linejoin="round" d="M 11576,22389 L 11576,22089"/>
 <path fill="none" stroke="rgb(179,179,179)" stroke-linejoin="round" d="M 12252,22389 L 12252,22089"/>
 <path fill="none" stroke="rgb(179,179,179)" stroke-linejoin="round" d="M 12252,22389 L 12252,22089"/>
 <path fill="none" stroke="rgb(179,179,179)" stroke-linejoin="round" d="M 12930,22389 L 12930,22089"/>
 <path fill="none" stroke="rgb(179,179,179)" stroke-linejoin="round" d="M 12930,22389 L 12930,22089"/>
 <path fill="none" stroke="rgb(179,179,179)" stroke-linejoin="round" d="M 13607,22389 L 13607,22089"/>
 <path fill="none" stroke="rgb(179,179,179)" stroke-linejoin="round" d="M 13607,22389 L 13607,22089"/>
 <path fill="none" stroke="rgb(179,179,179)" stroke-linejoin="round" d="M 14285,22389 L 14285,22089"/>
 <path fill="none" stroke="rgb(179,179,179)" stroke-linejoin="round" d="M 14285,22389 L 14285,22089"/>
 <path fill="none" stroke="rgb(179,179,179)" stroke-linejoin="round" d="M 14962,22389 L 14962,22089"/>
 <path fill="none" stroke="rgb(179,179,179)" stroke-linejoin="round" d="M 14962,22389 L 14962,22089"/>
 <path fill="none" stroke="rgb(179,179,179)" stroke-linejoin="round" d="M 15640,22389 L 15640,22089"/>
 <path fill="none" stroke="rgb(179,179,179)" stroke-linejoin="round" d="M 15640,22389 L 15640,22089"/>
 <path fill="none" stroke="rgb(179,179,179)" stroke-linejoin="round" d="M 16317,22389 L 16317,22089"/>
 <path fill="none" stroke="rgb(179,179,179)" stroke-linejoin="round" d="M 16317,22389 L 16317,22089"/>
 <path fill="none" stroke="rgb(179,179,179)" stroke-linejoin="round" d="M 16995,22389 L 16995,22089"/>
 <path fill="none" stroke="rgb(179,179,179)" stroke-linejoin="round" d="M 16995,22389 L 16995,22089"/>
 <path fill="none" stroke="rgb(179,179,179)" stroke-linejoin="round" d="M 17673,22389 L 17673,22089"/>
 <path fill="none" stroke="rgb(179,179,179)" stroke-linejoin="round" d="M 17673,22389 L 17673,22089"/>
 <path fill="none" stroke="rgb(179,179,179)" stroke-linejoin="round" d="M 18350,22389 L 18350,22089"/>
 <path fill="none" stroke="rgb(179,179,179)" stroke-linejoin="round" d="M 18350,22389 L 18350,22089"/>
 <path fill="none" stroke="rgb(179,179,179)" stroke-linejoin="round" d="M 1412,22351 L 1412,22239"/>
 <path fill="none" stroke="rgb(179,179,179)" stroke-linejoin="round" d="M 1412,22351 L 1412,22239"/>
 <path fill="none" stroke="rgb(179,179,179)" stroke-linejoin="round" d="M 1509,22351 L 1509,22239"/>
 <path fill="none" stroke="rgb(179,179,179)" stroke-linejoin="round" d="M 1509,22351 L 1509,22239"/>
 <path fill="none" stroke="rgb(179,179,179)" stroke-linejoin="round" d="M 1606,22351 L 1606,22239"/>
 <path fill="none" stroke="rgb(179,179,179)" stroke-linejoin="round" d="M 1606,22351 L 1606,22239"/>
 <path fill="none" stroke="rgb(179,179,179)" stroke-linejoin="round" d="M 1703,22351 L 1703,22239"/>
 <path fill="none" stroke="rgb(179,179,179)" stroke-linejoin="round" d="M 1703,22351 L 1703,22239"/>
 <path fill="none" stroke="rgb(179,179,179)" stroke-linejoin="round" d="M 1800,22351 L 1800,22239"/>
 <path fill="none" stroke="rgb(179,179,179)" stroke-linejoin="round" d="M 1800,22351 L 1800,22239"/>
 <path fill="none" stroke="rgb(179,179,179)" stroke-linejoin="round" d="M 1896,22351 L 1896,22239"/>
 <path fill="none" stroke="rgb(179,179,179)" stroke-linejoin="round" d="M 1896,22351 L 1896,22239"/>
 <path fill="none" stroke="rgb(179,179,179)" stroke-linejoin="round" d="M 1993,22351 L 1993,22239"/>
 <path fill="none" stroke="rgb(179,179,179)" stroke-linejoin="round" d="M 1993,22351 L 1993,22239"/>
 <path fill="none" stroke="rgb(179,179,179)" stroke-linejoin="round" d="M 2090,22351 L 2090,22239"/>
 <path fill="none" stroke="rgb(179,179,179)" stroke-linejoin="round" d="M 2090,22351 L 2090,22239"/>
 <path fill="none" stroke="rgb(179,179,179)" stroke-linejoin="round" d="M 2187,22351 L 2187,22239"/>
 <path fill="none" stroke="rgb(179,179,179)" stroke-linejoin="round" d="M 2187,22351 L 2187,22239"/>
 <path fill="none" stroke="rgb(179,179,179)" stroke-linejoin="round" d="M 2284,22351 L 2284,22239"/>
 <path fill="none" stroke="rgb(179,179,179)" stroke-linejoin="round" d="M 2284,22351 L 2284,22239"/>
 <path fill="none" stroke="rgb(179,179,179)" stroke-linejoin="round" d="M 2380,22351 L 2380,22239"/>
 <path fill="none" stroke="rgb(179,179,179)" stroke-linejoin="round" d="M 2380,22351 L 2380,22239"/>
 <path fill="none" stroke="rgb(179,179,179)" stroke-linejoin="round" d="M 2477,22351 L 2477,22239"/>
 <path fill="none" stroke="rgb(179,179,179)" stroke-linejoin="round" d="M 2477,22351 L 2477,22239"/>
 <path fill="none" stroke="rgb(179,179,179)" stroke-linejoin="round" d="M 2574,22351 L 2574,22239"/>
 <path fill="none" stroke="rgb(179,179,179)" stroke-linejoin="round" d="M 2574,22351 L 2574,22239"/>
 <path fill="none" stroke="rgb(179,179,179)" stroke-linejoin="round" d="M 2671,22351 L 2671,22239"/>
 <path fill="none" stroke="rgb(179,179,179)" stroke-linejoin="round" d="M 2671,22351 L 2671,22239"/>
 <path fill="none" stroke="rgb(179,179,179)" stroke-linejoin="round" d="M 2768,22351 L 2768,22239"/>
 <path fill="none" stroke="rgb(179,179,179)" stroke-linejoin="round" d="M 2768,22351 L 2768,22239"/>
 <path fill="none" stroke="rgb(179,179,179)" stroke-linejoin="round" d="M 2864,22351 L 2864,22239"/>
 <path fill="none" stroke="rgb(179,179,179)" stroke-linejoin="round" d="M 2864,22351 L 2864,22239"/>
 <path fill="none" stroke="rgb(179,179,179)" stroke-linejoin="round" d="M 2961,22351 L 2961,22239"/>
 <path fill="none" stroke="rgb(179,179,179)" stroke-linejoin="round" d="M 2961,22351 L 2961,22239"/>
 <path fill="none" stroke="rgb(179,179,179)" stroke-linejoin="round" d="M 3058,22351 L 3058,22239"/>
 <path fill="none" stroke="rgb(179,179,179)" stroke-linejoin="round" d="M 3058,22351 L 3058,22239"/>
 <path fill="none" stroke="rgb(179,179,179)" stroke-linejoin="round" d="M 3155,22351 L 3155,22239"/>
 <path fill="none" stroke="rgb(179,179,179)" stroke-linejoin="round" d="M 3155,22351 L 3155,22239"/>
 <path fill="none" stroke="rgb(179,179,179)" stroke-linejoin="round" d="M 3252,22351 L 3252,22239"/>
 <path fill="none" stroke="rgb(179,179,179)" stroke-linejoin="round" d="M 3252,22351 L 3252,22239"/>
 <path fill="none" stroke="rgb(179,179,179)" stroke-linejoin="round" d="M 3348,22351 L 3348,22239"/>
 <path fill="none" stroke="rgb(179,179,179)" stroke-linejoin="round" d="M 3348,22351 L 3348,22239"/>
 <path fill="none" stroke="rgb(179,179,179)" stroke-linejoin="round" d="M 3445,22351 L 3445,22239"/>
 <path fill="none" stroke="rgb(179,179,179)" stroke-linejoin="round" d="M 3445,22351 L 3445,22239"/>
 <path fill="none" stroke="rgb(179,179,179)" stroke-linejoin="round" d="M 3542,22351 L 3542,22239"/>
 <path fill="none" stroke="rgb(179,179,179)" stroke-linejoin="round" d="M 3542,22351 L 3542,22239"/>
 <path fill="none" stroke="rgb(179,179,179)" stroke-linejoin="round" d="M 3639,22351 L 3639,22239"/>
 <path fill="none" stroke="rgb(179,179,179)" stroke-linejoin="round" d="M 3639,22351 L 3639,22239"/>
 <path fill="none" stroke="rgb(179,179,179)" stroke-linejoin="round" d="M 3736,22351 L 3736,22239"/>
 <path fill="none" stroke="rgb(179,179,179)" stroke-linejoin="round" d="M 3736,22351 L 3736,22239"/>
 <path fill="none" stroke="rgb(179,179,179)" stroke-linejoin="round" d="M 3832,22351 L 3832,22239"/>
 <path fill="none" stroke="rgb(179,179,179)" stroke-linejoin="round" d="M 3832,22351 L 3832,22239"/>
 <path fill="none" stroke="rgb(179,179,179)" stroke-linejoin="round" d="M 3929,22351 L 3929,22239"/>
 <path fill="none" stroke="rgb(179,179,179)" stroke-linejoin="round" d="M 3929,22351 L 3929,22239"/>
 <path fill="none" stroke="rgb(179,179,179)" stroke-linejoin="round" d="M 4026,22351 L 4026,22239"/>
 <path fill="none" stroke="rgb(179,179,179)" stroke-linejoin="round" d="M 4026,22351 L 4026,22239"/>
 <path fill="none" stroke="rgb(179,179,179)" stroke-linejoin="round" d="M 4123,22351 L 4123,22239"/>
 <path fill="none" stroke="rgb(179,179,179)" stroke-linejoin="round" d="M 4123,22351 L 4123,22239"/>
 <path fill="none" stroke="rgb(179,179,179)" stroke-linejoin="round" d="M 4219,22351 L 4219,22239"/>
 <path fill="none" stroke="rgb(179,179,179)" stroke-linejoin="round" d="M 4219,22351 L 4219,22239"/>
 <path fill="none" stroke="rgb(179,179,179)" stroke-linejoin="round" d="M 4316,22351 L 4316,22239"/>
 <path fill="none" stroke="rgb(179,179,179)" stroke-linejoin="round" d="M 4316,22351 L 4316,22239"/>
 <path fill="none" stroke="rgb(179,179,179)" stroke-linejoin="round" d="M 4413,22351 L 4413,22239"/>
 <path fill="none" stroke="rgb(179,179,179)" stroke-linejoin="round" d="M 4413,22351 L 4413,22239"/>
 <path fill="none" stroke="rgb(179,179,179)" stroke-linejoin="round" d="M 4510,22351 L 4510,22239"/>
 <path fill="none" stroke="rgb(179,179,179)" stroke-linejoin="round" d="M 4510,22351 L 4510,22239"/>
 <path fill="none" stroke="rgb(179,179,179)" stroke-linejoin="round" d="M 4607,22351 L 4607,22239"/>
 <path fill="none" stroke="rgb(179,179,179)" stroke-linejoin="round" d="M 4607,22351 L 4607,22239"/>
 <path fill="none" stroke="rgb(179,179,179)" stroke-linejoin="round" d="M 4703,22351 L 4703,22239"/>
 <path fill="none" stroke="rgb(179,179,179)" stroke-linejoin="round" d="M 4703,22351 L 4703,22239"/>
 <path fill="none" stroke="rgb(179,179,179)" stroke-linejoin="round" d="M 4800,22351 L 4800,22239"/>
 <path fill="none" stroke="rgb(179,179,179)" stroke-linejoin="round" d="M 4800,22351 L 4800,22239"/>
 <path fill="none" stroke="rgb(179,179,179)" stroke-linejoin="round" d="M 4897,22351 L 4897,22239"/>
 <path fill="none" stroke="rgb(179,179,179)" stroke-linejoin="round" d="M 4897,22351 L 4897,22239"/>
 <path fill="none" stroke="rgb(179,179,179)" stroke-linejoin="round" d="M 4994,22351 L 4994,22239"/>
 <path fill="none" stroke="rgb(179,179,179)" stroke-linejoin="round" d="M 4994,22351 L 4994,22239"/>
 <path fill="none" stroke="rgb(179,179,179)" stroke-linejoin="round" d="M 5091,22351 L 5091,22239"/>
 <path fill="none" stroke="rgb(179,179,179)" stroke-linejoin="round" d="M 5091,22351 L 5091,22239"/>
 <path fill="none" stroke="rgb(179,179,179)" stroke-linejoin="round" d="M 5187,22351 L 5187,22239"/>
 <path fill="none" stroke="rgb(179,179,179)" stroke-linejoin="round" d="M 5187,22351 L 5187,22239"/>
 <path fill="none" stroke="rgb(179,179,179)" stroke-linejoin="round" d="M 5284,22351 L 5284,22239"/>
 <path fill="none" stroke="rgb(179,179,179)" stroke-linejoin="round" d="M 5284,22351 L 5284,22239"/>
 <path fill="none" stroke="rgb(179,179,179)" stroke-linejoin="round" d="M 5381,22351 L 5381,22239"/>
 <path fill="none" stroke="rgb(179,179,179)" stroke-linejoin="round" d="M 5381,22351 L 5381,22239"/>
 <path fill="none" stroke="rgb(179,179,179)" stroke-linejoin="round" d="M 5478,22351 L 5478,22239"/>
 <path fill="none" stroke="rgb(179,179,179)" stroke-linejoin="round" d="M 5478,22351 L 5478,22239"/>
 <path fill="none" stroke="rgb(179,179,179)" stroke-linejoin="round" d="M 5575,22351 L 5575,22239"/>
 <path fill="none" stroke="rgb(179,179,179)" stroke-linejoin="round" d="M 5575,22351 L 5575,22239"/>
 <path fill="none" stroke="rgb(179,179,179)" stroke-linejoin="round" d="M 5671,22351 L 5671,22239"/>
 <path fill="none" stroke="rgb(179,179,179)" stroke-linejoin="round" d="M 5671,22351 L 5671,22239"/>
 <path fill="none" stroke="rgb(179,179,179)" stroke-linejoin="round" d="M 5768,22351 L 5768,22239"/>
 <path fill="none" stroke="rgb(179,179,179)" stroke-linejoin="round" d="M 5768,22351 L 5768,22239"/>
 <path fill="none" stroke="rgb(179,179,179)" stroke-linejoin="round" d="M 5865,22351 L 5865,22239"/>
 <path fill="none" stroke="rgb(179,179,179)" stroke-linejoin="round" d="M 5865,22351 L 5865,22239"/>
 <path fill="none" stroke="rgb(179,179,179)" stroke-linejoin="round" d="M 5962,22351 L 5962,22239"/>
 <path fill="none" stroke="rgb(179,179,179)" stroke-linejoin="round" d="M 5962,22351 L 5962,22239"/>
 <path fill="none" stroke="rgb(179,179,179)" stroke-linejoin="round" d="M 6059,22351 L 6059,22239"/>
 <path fill="none" stroke="rgb(179,179,179)" stroke-linejoin="round" d="M 6059,22351 L 6059,22239"/>
 <path fill="none" stroke="rgb(179,179,179)" stroke-linejoin="round" d="M 6155,22351 L 6155,22239"/>
 <path fill="none" stroke="rgb(179,179,179)" stroke-linejoin="round" d="M 6155,22351 L 6155,22239"/>
 <path fill="none" stroke="rgb(179,179,179)" stroke-linejoin="round" d="M 6252,22351 L 6252,22239"/>
 <path fill="none" stroke="rgb(179,179,179)" stroke-linejoin="round" d="M 6252,22351 L 6252,22239"/>
 <path fill="none" stroke="rgb(179,179,179)" stroke-linejoin="round" d="M 6349,22351 L 6349,22239"/>
 <path fill="none" stroke="rgb(179,179,179)" stroke-linejoin="round" d="M 6349,22351 L 6349,22239"/>
 <path fill="none" stroke="rgb(179,179,179)" stroke-linejoin="round" d="M 6446,22351 L 6446,22239"/>
 <path fill="none" stroke="rgb(179,179,179)" stroke-linejoin="round" d="M 6446,22351 L 6446,22239"/>
 <path fill="none" stroke="rgb(179,179,179)" stroke-linejoin="round" d="M 6542,22351 L 6542,22239"/>
 <path fill="none" stroke="rgb(179,179,179)" stroke-linejoin="round" d="M 6542,22351 L 6542,22239"/>
 <path fill="none" stroke="rgb(179,179,179)" stroke-linejoin="round" d="M 6639,22351 L 6639,22239"/>
 <path fill="none" stroke="rgb(179,179,179)" stroke-linejoin="round" d="M 6639,22351 L 6639,22239"/>
 <path fill="none" stroke="rgb(179,179,179)" stroke-linejoin="round" d="M 6736,22351 L 6736,22239"/>
 <path fill="none" stroke="rgb(179,179,179)" stroke-linejoin="round" d="M 6736,22351 L 6736,22239"/>
 <path fill="none" stroke="rgb(179,179,179)" stroke-linejoin="round" d="M 6833,22351 L 6833,22239"/>
 <path fill="none" stroke="rgb(179,179,179)" stroke-linejoin="round" d="M 6833,22351 L 6833,22239"/>
 <path fill="none" stroke="rgb(179,179,179)" stroke-linejoin="round" d="M 6930,22351 L 6930,22239"/>
 <path fill="none" stroke="rgb(179,179,179)" stroke-linejoin="round" d="M 6930,22351 L 6930,22239"/>
 <path fill="none" stroke="rgb(179,179,179)" stroke-linejoin="round" d="M 7026,22351 L 7026,22239"/>
 <path fill="none" stroke="rgb(179,179,179)" stroke-linejoin="round" d="M 7026,22351 L 7026,22239"/>
 <path fill="none" stroke="rgb(179,179,179)" stroke-linejoin="round" d="M 7123,22351 L 7123,22239"/>
 <path fill="none" stroke="rgb(179,179,179)" stroke-linejoin="round" d="M 7123,22351 L 7123,22239"/>
 <path fill="none" stroke="rgb(179,179,179)" stroke-linejoin="round" d="M 7220,22351 L 7220,22239"/>
 <path fill="none" stroke="rgb(179,179,179)" stroke-linejoin="round" d="M 7220,22351 L 7220,22239"/>
 <path fill="none" stroke="rgb(179,179,179)" stroke-linejoin="round" d="M 7317,22351 L 7317,22239"/>
 <path fill="none" stroke="rgb(179,179,179)" stroke-linejoin="round" d="M 7317,22351 L 7317,22239"/>
 <path fill="none" stroke="rgb(179,179,179)" stroke-linejoin="round" d="M 7414,22351 L 7414,22239"/>
 <path fill="none" stroke="rgb(179,179,179)" stroke-linejoin="round" d="M 7414,22351 L 7414,22239"/>
 <path fill="none" stroke="rgb(179,179,179)" stroke-linejoin="round" d="M 7510,22351 L 7510,22239"/>
 <path fill="none" stroke="rgb(179,179,179)" stroke-linejoin="round" d="M 7510,22351 L 7510,22239"/>
 <path fill="none" stroke="rgb(179,179,179)" stroke-linejoin="round" d="M 7607,22351 L 7607,22239"/>
 <path fill="none" stroke="rgb(179,179,179)" stroke-linejoin="round" d="M 7607,22351 L 7607,22239"/>
 <path fill="none" stroke="rgb(179,179,179)" stroke-linejoin="round" d="M 7704,22351 L 7704,22239"/>
 <path fill="none" stroke="rgb(179,179,179)" stroke-linejoin="round" d="M 7704,22351 L 7704,22239"/>
 <path fill="none" stroke="rgb(179,179,179)" stroke-linejoin="round" d="M 7801,22351 L 7801,22239"/>
 <path fill="none" stroke="rgb(179,179,179)" stroke-linejoin="round" d="M 7801,22351 L 7801,22239"/>
 <path fill="none" stroke="rgb(179,179,179)" stroke-linejoin="round" d="M 7898,22351 L 7898,22239"/>
 <path fill="none" stroke="rgb(179,179,179)" stroke-linejoin="round" d="M 7898,22351 L 7898,22239"/>
 <path fill="none" stroke="rgb(179,179,179)" stroke-linejoin="round" d="M 7994,22351 L 7994,22239"/>
 <path fill="none" stroke="rgb(179,179,179)" stroke-linejoin="round" d="M 7994,22351 L 7994,22239"/>
 <path fill="none" stroke="rgb(179,179,179)" stroke-linejoin="round" d="M 8091,22351 L 8091,22239"/>
 <path fill="none" stroke="rgb(179,179,179)" stroke-linejoin="round" d="M 8091,22351 L 8091,22239"/>
 <path fill="none" stroke="rgb(179,179,179)" stroke-linejoin="round" d="M 8188,22351 L 8188,22239"/>
 <path fill="none" stroke="rgb(179,179,179)" stroke-linejoin="round" d="M 8188,22351 L 8188,22239"/>
 <path fill="none" stroke="rgb(179,179,179)" stroke-linejoin="round" d="M 8285,22351 L 8285,22239"/>
 <path fill="none" stroke="rgb(179,179,179)" stroke-linejoin="round" d="M 8285,22351 L 8285,22239"/>
 <path fill="none" stroke="rgb(179,179,179)" stroke-linejoin="round" d="M 8382,22351 L 8382,22239"/>
 <path fill="none" stroke="rgb(179,179,179)" stroke-linejoin="round" d="M 8382,22351 L 8382,22239"/>
 <path fill="none" stroke="rgb(179,179,179)" stroke-linejoin="round" d="M 8478,22351 L 8478,22239"/>
 <path fill="none" stroke="rgb(179,179,179)" stroke-linejoin="round" d="M 8478,22351 L 8478,22239"/>
 <path fill="none" stroke="rgb(179,179,179)" stroke-linejoin="round" d="M 8575,22351 L 8575,22239"/>
 <path fill="none" stroke="rgb(179,179,179)" stroke-linejoin="round" d="M 8575,22351 L 8575,22239"/>
 <path fill="none" stroke="rgb(179,179,179)" stroke-linejoin="round" d="M 8672,22351 L 8672,22239"/>
 <path fill="none" stroke="rgb(179,179,179)" stroke-linejoin="round" d="M 8672,22351 L 8672,22239"/>
 <path fill="none" stroke="rgb(179,179,179)" stroke-linejoin="round" d="M 8769,22351 L 8769,22239"/>
 <path fill="none" stroke="rgb(179,179,179)" stroke-linejoin="round" d="M 8769,22351 L 8769,22239"/>
 <path fill="none" stroke="rgb(179,179,179)" stroke-linejoin="round" d="M 8865,22351 L 8865,22239"/>
 <path fill="none" stroke="rgb(179,179,179)" stroke-linejoin="round" d="M 8865,22351 L 8865,22239"/>
 <path fill="none" stroke="rgb(179,179,179)" stroke-linejoin="round" d="M 8962,22351 L 8962,22239"/>
 <path fill="none" stroke="rgb(179,179,179)" stroke-linejoin="round" d="M 8962,22351 L 8962,22239"/>
 <path fill="none" stroke="rgb(179,179,179)" stroke-linejoin="round" d="M 9059,22351 L 9059,22239"/>
 <path fill="none" stroke="rgb(179,179,179)" stroke-linejoin="round" d="M 9059,22351 L 9059,22239"/>
 <path fill="none" stroke="rgb(179,179,179)" stroke-linejoin="round" d="M 9156,22351 L 9156,22239"/>
 <path fill="none" stroke="rgb(179,179,179)" stroke-linejoin="round" d="M 9156,22351 L 9156,22239"/>
 <path fill="none" stroke="rgb(179,179,179)" stroke-linejoin="round" d="M 9253,22351 L 9253,22239"/>
 <path fill="none" stroke="rgb(179,179,179)" stroke-linejoin="round" d="M 9253,22351 L 9253,22239"/>
 <path fill="none" stroke="rgb(179,179,179)" stroke-linejoin="round" d="M 9349,22351 L 9349,22239"/>
 <path fill="none" stroke="rgb(179,179,179)" stroke-linejoin="round" d="M 9349,22351 L 9349,22239"/>
 <path fill="none" stroke="rgb(179,179,179)" stroke-linejoin="round" d="M 9446,22351 L 9446,22239"/>
 <path fill="none" stroke="rgb(179,179,179)" stroke-linejoin="round" d="M 9446,22351 L 9446,22239"/>
 <path fill="none" stroke="rgb(179,179,179)" stroke-linejoin="round" d="M 9543,22351 L 9543,22239"/>
 <path fill="none" stroke="rgb(179,179,179)" stroke-linejoin="round" d="M 9543,22351 L 9543,22239"/>
 <path fill="none" stroke="rgb(179,179,179)" stroke-linejoin="round" d="M 9640,22351 L 9640,22239"/>
 <path fill="none" stroke="rgb(179,179,179)" stroke-linejoin="round" d="M 9640,22351 L 9640,22239"/>
 <path fill="none" stroke="rgb(179,179,179)" stroke-linejoin="round" d="M 9737,22351 L 9737,22239"/>
 <path fill="none" stroke="rgb(179,179,179)" stroke-linejoin="round" d="M 9737,22351 L 9737,22239"/>
 <path fill="none" stroke="rgb(179,179,179)" stroke-linejoin="round" d="M 9833,22351 L 9833,22239"/>
 <path fill="none" stroke="rgb(179,179,179)" stroke-linejoin="round" d="M 9833,22351 L 9833,22239"/>
 <path fill="none" stroke="rgb(179,179,179)" stroke-linejoin="round" d="M 9930,22351 L 9930,22239"/>
 <path fill="none" stroke="rgb(179,179,179)" stroke-linejoin="round" d="M 9930,22351 L 9930,22239"/>
 <path fill="none" stroke="rgb(179,179,179)" stroke-linejoin="round" d="M 10027,22351 L 10027,22239"/>
 <path fill="none" stroke="rgb(179,179,179)" stroke-linejoin="round" d="M 10027,22351 L 10027,22239"/>
 <path fill="none" stroke="rgb(179,179,179)" stroke-linejoin="round" d="M 10124,22351 L 10124,22239"/>
 <path fill="none" stroke="rgb(179,179,179)" stroke-linejoin="round" d="M 10124,22351 L 10124,22239"/>
 <path fill="none" stroke="rgb(179,179,179)" stroke-linejoin="round" d="M 10221,22351 L 10221,22239"/>
 <path fill="none" stroke="rgb(179,179,179)" stroke-linejoin="round" d="M 10221,22351 L 10221,22239"/>
 <path fill="none" stroke="rgb(179,179,179)" stroke-linejoin="round" d="M 10317,22351 L 10317,22239"/>
 <path fill="none" stroke="rgb(179,179,179)" stroke-linejoin="round" d="M 10317,22351 L 10317,22239"/>
 <path fill="none" stroke="rgb(179,179,179)" stroke-linejoin="round" d="M 10414,22351 L 10414,22239"/>
 <path fill="none" stroke="rgb(179,179,179)" stroke-linejoin="round" d="M 10414,22351 L 10414,22239"/>
 <path fill="none" stroke="rgb(179,179,179)" stroke-linejoin="round" d="M 10511,22351 L 10511,22239"/>
 <path fill="none" stroke="rgb(179,179,179)" stroke-linejoin="round" d="M 10511,22351 L 10511,22239"/>
 <path fill="none" stroke="rgb(179,179,179)" stroke-linejoin="round" d="M 10608,22351 L 10608,22239"/>
 <path fill="none" stroke="rgb(179,179,179)" stroke-linejoin="round" d="M 10608,22351 L 10608,22239"/>
 <path fill="none" stroke="rgb(179,179,179)" stroke-linejoin="round" d="M 10705,22351 L 10705,22239"/>
 <path fill="none" stroke="rgb(179,179,179)" stroke-linejoin="round" d="M 10705,22351 L 10705,22239"/>
 <path fill="none" stroke="rgb(179,179,179)" stroke-linejoin="round" d="M 10801,22351 L 10801,22239"/>
 <path fill="none" stroke="rgb(179,179,179)" stroke-linejoin="round" d="M 10801,22351 L 10801,22239"/>
 <path fill="none" stroke="rgb(179,179,179)" stroke-linejoin="round" d="M 10898,22351 L 10898,22239"/>
 <path fill="none" stroke="rgb(179,179,179)" stroke-linejoin="round" d="M 10898,22351 L 10898,22239"/>
 <path fill="none" stroke="rgb(179,179,179)" stroke-linejoin="round" d="M 10995,22351 L 10995,22239"/>
 <path fill="none" stroke="rgb(179,179,179)" stroke-linejoin="round" d="M 10995,22351 L 10995,22239"/>
 <path fill="none" stroke="rgb(179,179,179)" stroke-linejoin="round" d="M 11092,22351 L 11092,22239"/>
 <path fill="none" stroke="rgb(179,179,179)" stroke-linejoin="round" d="M 11092,22351 L 11092,22239"/>
 <path fill="none" stroke="rgb(179,179,179)" stroke-linejoin="round" d="M 11189,22351 L 11189,22239"/>
 <path fill="none" stroke="rgb(179,179,179)" stroke-linejoin="round" d="M 11189,22351 L 11189,22239"/>
 <path fill="none" stroke="rgb(179,179,179)" stroke-linejoin="round" d="M 11285,22351 L 11285,22239"/>
 <path fill="none" stroke="rgb(179,179,179)" stroke-linejoin="round" d="M 11285,22351 L 11285,22239"/>
 <path fill="none" stroke="rgb(179,179,179)" stroke-linejoin="round" d="M 11382,22351 L 11382,22239"/>
 <path fill="none" stroke="rgb(179,179,179)" stroke-linejoin="round" d="M 11382,22351 L 11382,22239"/>
 <path fill="none" stroke="rgb(179,179,179)" stroke-linejoin="round" d="M 11479,22351 L 11479,22239"/>
 <path fill="none" stroke="rgb(179,179,179)" stroke-linejoin="round" d="M 11479,22351 L 11479,22239"/>
 <path fill="none" stroke="rgb(179,179,179)" stroke-linejoin="round" d="M 11576,22351 L 11576,22239"/>
 <path fill="none" stroke="rgb(179,179,179)" stroke-linejoin="round" d="M 11576,22351 L 11576,22239"/>
 <path fill="none" stroke="rgb(179,179,179)" stroke-linejoin="round" d="M 11672,22351 L 11672,22239"/>
 <path fill="none" stroke="rgb(179,179,179)" stroke-linejoin="round" d="M 11672,22351 L 11672,22239"/>
 <path fill="none" stroke="rgb(179,179,179)" stroke-linejoin="round" d="M 11769,22351 L 11769,22239"/>
 <path fill="none" stroke="rgb(179,179,179)" stroke-linejoin="round" d="M 11769,22351 L 11769,22239"/>
 <path fill="none" stroke="rgb(179,179,179)" stroke-linejoin="round" d="M 11865,22351 L 11865,22239"/>
 <path fill="none" stroke="rgb(179,179,179)" stroke-linejoin="round" d="M 11865,22351 L 11865,22239"/>
 <path fill="none" stroke="rgb(179,179,179)" stroke-linejoin="round" d="M 11962,22351 L 11962,22239"/>
 <path fill="none" stroke="rgb(179,179,179)" stroke-linejoin="round" d="M 11962,22351 L 11962,22239"/>
 <path fill="none" stroke="rgb(179,179,179)" stroke-linejoin="round" d="M 12059,22351 L 12059,22239"/>
 <path fill="none" stroke="rgb(179,179,179)" stroke-linejoin="round" d="M 12059,22351 L 12059,22239"/>
 <path fill="none" stroke="rgb(179,179,179)" stroke-linejoin="round" d="M 12155,22351 L 12155,22239"/>
 <path fill="none" stroke="rgb(179,179,179)" stroke-linejoin="round" d="M 12155,22351 L 12155,22239"/>
 <path fill="none" stroke="rgb(179,179,179)" stroke-linejoin="round" d="M 12252,22351 L 12252,22239"/>
 <path fill="none" stroke="rgb(179,179,179)" stroke-linejoin="round" d="M 12252,22351 L 12252,22239"/>
 <path fill="none" stroke="rgb(179,179,179)" stroke-linejoin="round" d="M 12349,22351 L 12349,22239"/>
 <path fill="none" stroke="rgb(179,179,179)" stroke-linejoin="round" d="M 12349,22351 L 12349,22239"/>
 <path fill="none" stroke="rgb(179,179,179)" stroke-linejoin="round" d="M 12446,22351 L 12446,22239"/>
 <path fill="none" stroke="rgb(179,179,179)" stroke-linejoin="round" d="M 12446,22351 L 12446,22239"/>
 <path fill="none" stroke="rgb(179,179,179)" stroke-linejoin="round" d="M 12543,22351 L 12543,22239"/>
 <path fill="none" stroke="rgb(179,179,179)" stroke-linejoin="round" d="M 12543,22351 L 12543,22239"/>
 <path fill="none" stroke="rgb(179,179,179)" stroke-linejoin="round" d="M 12639,22351 L 12639,22239"/>
 <path fill="none" stroke="rgb(179,179,179)" stroke-linejoin="round" d="M 12639,22351 L 12639,22239"/>
 <path fill="none" stroke="rgb(179,179,179)" stroke-linejoin="round" d="M 12736,22351 L 12736,22239"/>
 <path fill="none" stroke="rgb(179,179,179)" stroke-linejoin="round" d="M 12736,22351 L 12736,22239"/>
 <path fill="none" stroke="rgb(179,179,179)" stroke-linejoin="round" d="M 12833,22351 L 12833,22239"/>
 <path fill="none" stroke="rgb(179,179,179)" stroke-linejoin="round" d="M 12833,22351 L 12833,22239"/>
 <path fill="none" stroke="rgb(179,179,179)" stroke-linejoin="round" d="M 12930,22351 L 12930,22239"/>
 <path fill="none" stroke="rgb(179,179,179)" stroke-linejoin="round" d="M 12930,22351 L 12930,22239"/>
 <path fill="none" stroke="rgb(179,179,179)" stroke-linejoin="round" d="M 13027,22351 L 13027,22239"/>
 <path fill="none" stroke="rgb(179,179,179)" stroke-linejoin="round" d="M 13027,22351 L 13027,22239"/>
 <path fill="none" stroke="rgb(179,179,179)" stroke-linejoin="round" d="M 13123,22351 L 13123,22239"/>
 <path fill="none" stroke="rgb(179,179,179)" stroke-linejoin="round" d="M 13123,22351 L 13123,22239"/>
 <path fill="none" stroke="rgb(179,179,179)" stroke-linejoin="round" d="M 13220,22351 L 13220,22239"/>
 <path fill="none" stroke="rgb(179,179,179)" stroke-linejoin="round" d="M 13220,22351 L 13220,22239"/>
 <path fill="none" stroke="rgb(179,179,179)" stroke-linejoin="round" d="M 13317,22351 L 13317,22239"/>
 <path fill="none" stroke="rgb(179,179,179)" stroke-linejoin="round" d="M 13317,22351 L 13317,22239"/>
 <path fill="none" stroke="rgb(179,179,179)" stroke-linejoin="round" d="M 13414,22351 L 13414,22239"/>
 <path fill="none" stroke="rgb(179,179,179)" stroke-linejoin="round" d="M 13414,22351 L 13414,22239"/>
 <path fill="none" stroke="rgb(179,179,179)" stroke-linejoin="round" d="M 13511,22351 L 13511,22239"/>
 <path fill="none" stroke="rgb(179,179,179)" stroke-linejoin="round" d="M 13511,22351 L 13511,22239"/>
 <path fill="none" stroke="rgb(179,179,179)" stroke-linejoin="round" d="M 13607,22351 L 13607,22239"/>
 <path fill="none" stroke="rgb(179,179,179)" stroke-linejoin="round" d="M 13607,22351 L 13607,22239"/>
 <path fill="none" stroke="rgb(179,179,179)" stroke-linejoin="round" d="M 13704,22351 L 13704,22239"/>
 <path fill="none" stroke="rgb(179,179,179)" stroke-linejoin="round" d="M 13704,22351 L 13704,22239"/>
 <path fill="none" stroke="rgb(179,179,179)" stroke-linejoin="round" d="M 13801,22351 L 13801,22239"/>
 <path fill="none" stroke="rgb(179,179,179)" stroke-linejoin="round" d="M 13801,22351 L 13801,22239"/>
 <path fill="none" stroke="rgb(179,179,179)" stroke-linejoin="round" d="M 13898,22351 L 13898,22239"/>
 <path fill="none" stroke="rgb(179,179,179)" stroke-linejoin="round" d="M 13898,22351 L 13898,22239"/>
 <path fill="none" stroke="rgb(179,179,179)" stroke-linejoin="round" d="M 13994,22351 L 13994,22239"/>
 <path fill="none" stroke="rgb(179,179,179)" stroke-linejoin="round" d="M 13994,22351 L 13994,22239"/>
 <path fill="none" stroke="rgb(179,179,179)" stroke-linejoin="round" d="M 14091,22351 L 14091,22239"/>
 <path fill="none" stroke="rgb(179,179,179)" stroke-linejoin="round" d="M 14091,22351 L 14091,22239"/>
 <path fill="none" stroke="rgb(179,179,179)" stroke-linejoin="round" d="M 14188,22351 L 14188,22239"/>
 <path fill="none" stroke="rgb(179,179,179)" stroke-linejoin="round" d="M 14188,22351 L 14188,22239"/>
 <path fill="none" stroke="rgb(179,179,179)" stroke-linejoin="round" d="M 14285,22351 L 14285,22239"/>
 <path fill="none" stroke="rgb(179,179,179)" stroke-linejoin="round" d="M 14285,22351 L 14285,22239"/>
 <path fill="none" stroke="rgb(179,179,179)" stroke-linejoin="round" d="M 14382,22351 L 14382,22239"/>
 <path fill="none" stroke="rgb(179,179,179)" stroke-linejoin="round" d="M 14382,22351 L 14382,22239"/>
 <path fill="none" stroke="rgb(179,179,179)" stroke-linejoin="round" d="M 14478,22351 L 14478,22239"/>
 <path fill="none" stroke="rgb(179,179,179)" stroke-linejoin="round" d="M 14478,22351 L 14478,22239"/>
 <path fill="none" stroke="rgb(179,179,179)" stroke-linejoin="round" d="M 14575,22351 L 14575,22239"/>
 <path fill="none" stroke="rgb(179,179,179)" stroke-linejoin="round" d="M 14575,22351 L 14575,22239"/>
 <path fill="none" stroke="rgb(179,179,179)" stroke-linejoin="round" d="M 14672,22351 L 14672,22239"/>
 <path fill="none" stroke="rgb(179,179,179)" stroke-linejoin="round" d="M 14672,22351 L 14672,22239"/>
 <path fill="none" stroke="rgb(179,179,179)" stroke-linejoin="round" d="M 14769,22351 L 14769,22239"/>
 <path fill="none" stroke="rgb(179,179,179)" stroke-linejoin="round" d="M 14769,22351 L 14769,22239"/>
 <path fill="none" stroke="rgb(179,179,179)" stroke-linejoin="round" d="M 14866,22351 L 14866,22239"/>
 <path fill="none" stroke="rgb(179,179,179)" stroke-linejoin="round" d="M 14866,22351 L 14866,22239"/>
 <path fill="none" stroke="rgb(179,179,179)" stroke-linejoin="round" d="M 14962,22351 L 14962,22239"/>
 <path fill="none" stroke="rgb(179,179,179)" stroke-linejoin="round" d="M 14962,22351 L 14962,22239"/>
 <path fill="none" stroke="rgb(179,179,179)" stroke-linejoin="round" d="M 15059,22351 L 15059,22239"/>
 <path fill="none" stroke="rgb(179,179,179)" stroke-linejoin="round" d="M 15059,22351 L 15059,22239"/>
 <path fill="none" stroke="rgb(179,179,179)" stroke-linejoin="round" d="M 15156,22351 L 15156,22239"/>
 <path fill="none" stroke="rgb(179,179,179)" stroke-linejoin="round" d="M 15156,22351 L 15156,22239"/>
 <path fill="none" stroke="rgb(179,179,179)" stroke-linejoin="round" d="M 15253,22351 L 15253,22239"/>
 <path fill="none" stroke="rgb(179,179,179)" stroke-linejoin="round" d="M 15253,22351 L 15253,22239"/>
 <path fill="none" stroke="rgb(179,179,179)" stroke-linejoin="round" d="M 15350,22351 L 15350,22239"/>
 <path fill="none" stroke="rgb(179,179,179)" stroke-linejoin="round" d="M 15350,22351 L 15350,22239"/>
 <path fill="none" stroke="rgb(179,179,179)" stroke-linejoin="round" d="M 15446,22351 L 15446,22239"/>
 <path fill="none" stroke="rgb(179,179,179)" stroke-linejoin="round" d="M 15446,22351 L 15446,22239"/>
 <path fill="none" stroke="rgb(179,179,179)" stroke-linejoin="round" d="M 15543,22351 L 15543,22239"/>
 <path fill="none" stroke="rgb(179,179,179)" stroke-linejoin="round" d="M 15543,22351 L 15543,22239"/>
 <path fill="none" stroke="rgb(179,179,179)" stroke-linejoin="round" d="M 15640,22351 L 15640,22239"/>
 <path fill="none" stroke="rgb(179,179,179)" stroke-linejoin="round" d="M 15640,22351 L 15640,22239"/>
 <path fill="none" stroke="rgb(179,179,179)" stroke-linejoin="round" d="M 15737,22351 L 15737,22239"/>
 <path fill="none" stroke="rgb(179,179,179)" stroke-linejoin="round" d="M 15737,22351 L 15737,22239"/>
 <path fill="none" stroke="rgb(179,179,179)" stroke-linejoin="round" d="M 15834,22351 L 15834,22239"/>
 <path fill="none" stroke="rgb(179,179,179)" stroke-linejoin="round" d="M 15834,22351 L 15834,22239"/>
 <path fill="none" stroke="rgb(179,179,179)" stroke-linejoin="round" d="M 15930,22351 L 15930,22239"/>
 <path fill="none" stroke="rgb(179,179,179)" stroke-linejoin="round" d="M 15930,22351 L 15930,22239"/>
 <path fill="none" stroke="rgb(179,179,179)" stroke-linejoin="round" d="M 16027,22351 L 16027,22239"/>
 <path fill="none" stroke="rgb(179,179,179)" stroke-linejoin="round" d="M 16027,22351 L 16027,22239"/>
 <path fill="none" stroke="rgb(179,179,179)" stroke-linejoin="round" d="M 16124,22351 L 16124,22239"/>
 <path fill="none" stroke="rgb(179,179,179)" stroke-linejoin="round" d="M 16124,22351 L 16124,22239"/>
 <path fill="none" stroke="rgb(179,179,179)" stroke-linejoin="round" d="M 16221,22351 L 16221,22239"/>
 <path fill="none" stroke="rgb(179,179,179)" stroke-linejoin="round" d="M 16221,22351 L 16221,22239"/>
 <path fill="none" stroke="rgb(179,179,179)" stroke-linejoin="round" d="M 16317,22351 L 16317,22239"/>
 <path fill="none" stroke="rgb(179,179,179)" stroke-linejoin="round" d="M 16317,22351 L 16317,22239"/>
 <path fill="none" stroke="rgb(179,179,179)" stroke-linejoin="round" d="M 16414,22351 L 16414,22239"/>
 <path fill="none" stroke="rgb(179,179,179)" stroke-linejoin="round" d="M 16414,22351 L 16414,22239"/>
 <path fill="none" stroke="rgb(179,179,179)" stroke-linejoin="round" d="M 16511,22351 L 16511,22239"/>
 <path fill="none" stroke="rgb(179,179,179)" stroke-linejoin="round" d="M 16511,22351 L 16511,22239"/>
 <path fill="none" stroke="rgb(179,179,179)" stroke-linejoin="round" d="M 16608,22351 L 16608,22239"/>
 <path fill="none" stroke="rgb(179,179,179)" stroke-linejoin="round" d="M 16608,22351 L 16608,22239"/>
 <path fill="none" stroke="rgb(179,179,179)" stroke-linejoin="round" d="M 16705,22351 L 16705,22239"/>
 <path fill="none" stroke="rgb(179,179,179)" stroke-linejoin="round" d="M 16705,22351 L 16705,22239"/>
 <path fill="none" stroke="rgb(179,179,179)" stroke-linejoin="round" d="M 16801,22351 L 16801,22239"/>
 <path fill="none" stroke="rgb(179,179,179)" stroke-linejoin="round" d="M 16801,22351 L 16801,22239"/>
 <path fill="none" stroke="rgb(179,179,179)" stroke-linejoin="round" d="M 16898,22351 L 16898,22239"/>
 <path fill="none" stroke="rgb(179,179,179)" stroke-linejoin="round" d="M 16898,22351 L 16898,22239"/>
 <path fill="none" stroke="rgb(179,179,179)" stroke-linejoin="round" d="M 16995,22351 L 16995,22239"/>
 <path fill="none" stroke="rgb(179,179,179)" stroke-linejoin="round" d="M 16995,22351 L 16995,22239"/>
 <path fill="none" stroke="rgb(179,179,179)" stroke-linejoin="round" d="M 17092,22351 L 17092,22239"/>
 <path fill="none" stroke="rgb(179,179,179)" stroke-linejoin="round" d="M 17092,22351 L 17092,22239"/>
 <path fill="none" stroke="rgb(179,179,179)" stroke-linejoin="round" d="M 17189,22351 L 17189,22239"/>
 <path fill="none" stroke="rgb(179,179,179)" stroke-linejoin="round" d="M 17189,22351 L 17189,22239"/>
 <path fill="none" stroke="rgb(179,179,179)" stroke-linejoin="round" d="M 17285,22351 L 17285,22239"/>
 <path fill="none" stroke="rgb(179,179,179)" stroke-linejoin="round" d="M 17285,22351 L 17285,22239"/>
 <path fill="none" stroke="rgb(179,179,179)" stroke-linejoin="round" d="M 17382,22351 L 17382,22239"/>
 <path fill="none" stroke="rgb(179,179,179)" stroke-linejoin="round" d="M 17382,22351 L 17382,22239"/>
 <path fill="none" stroke="rgb(179,179,179)" stroke-linejoin="round" d="M 17479,22351 L 17479,22239"/>
 <path fill="none" stroke="rgb(179,179,179)" stroke-linejoin="round" d="M 17479,22351 L 17479,22239"/>
 <path fill="none" stroke="rgb(179,179,179)" stroke-linejoin="round" d="M 17576,22351 L 17576,22239"/>
 <path fill="none" stroke="rgb(179,179,179)" stroke-linejoin="round" d="M 17576,22351 L 17576,22239"/>
 <path fill="none" stroke="rgb(179,179,179)" stroke-linejoin="round" d="M 17673,22351 L 17673,22239"/>
 <path fill="none" stroke="rgb(179,179,179)" stroke-linejoin="round" d="M 17673,22351 L 17673,22239"/>
 <path fill="none" stroke="rgb(179,179,179)" stroke-linejoin="round" d="M 17769,22351 L 17769,22239"/>
 <path fill="none" stroke="rgb(179,179,179)" stroke-linejoin="round" d="M 17769,22351 L 17769,22239"/>
 <path fill="none" stroke="rgb(179,179,179)" stroke-linejoin="round" d="M 17866,22351 L 17866,22239"/>
 <path fill="none" stroke="rgb(179,179,179)" stroke-linejoin="round" d="M 17866,22351 L 17866,22239"/>
 <path fill="none" stroke="rgb(179,179,179)" stroke-linejoin="round" d="M 17963,22351 L 17963,22239"/>
 <path fill="none" stroke="rgb(179,179,179)" stroke-linejoin="round" d="M 17963,22351 L 17963,22239"/>
 <path fill="none" stroke="rgb(179,179,179)" stroke-linejoin="round" d="M 18060,22351 L 18060,22239"/>
 <path fill="none" stroke="rgb(179,179,179)" stroke-linejoin="round" d="M 18060,22351 L 18060,22239"/>
 <path fill="none" stroke="rgb(179,179,179)" stroke-linejoin="round" d="M 18157,22351 L 18157,22239"/>
 <path fill="none" stroke="rgb(179,179,179)" stroke-linejoin="round" d="M 18157,22351 L 18157,22239"/>
 <path fill="none" stroke="rgb(179,179,179)" stroke-linejoin="round" d="M 18253,22351 L 18253,22239"/>
 <path fill="none" stroke="rgb(179,179,179)" stroke-linejoin="round" d="M 18253,22351 L 18253,22239"/>
 <path fill="none" stroke="rgb(179,179,179)" stroke-linejoin="round" d="M 18350,22351 L 18350,22239"/>
 <path fill="none" stroke="rgb(179,179,179)" stroke-linejoin="round" d="M 18350,22351 L 18350,22239"/>
 <path fill="none" stroke="rgb(179,179,179)" stroke-linejoin="round" d="M 18447,22351 L 18447,22239"/>
 <path fill="none" stroke="rgb(179,179,179)" stroke-linejoin="round" d="M 18447,22351 L 18447,22239"/>
 <path fill="none" stroke="rgb(179,179,179)" stroke-linejoin="round" d="M 18544,22351 L 18544,22239"/>
 <path fill="none" stroke="rgb(179,179,179)" stroke-linejoin="round" d="M 18544,22351 L 18544,22239"/>
 <path fill="none" stroke="rgb(179,179,179)" stroke-linejoin="round" d="M 18640,22351 L 18640,22239"/>
 <path fill="none" stroke="rgb(179,179,179)" stroke-linejoin="round" d="M 18640,22351 L 18640,22239"/>
 <path fill="none" stroke="rgb(179,179,179)" stroke-linejoin="round" d="M 1412,22239 L 18640,22239"/>
 <path fill="none" stroke="rgb(179,179,179)" stroke-linejoin="round" d="M 1262,22239 L 1412,22239"/>
 <path fill="none" stroke="rgb(179,179,179)" stroke-linejoin="round" d="M 1262,22239 L 1412,22239"/>
 <path fill="none" stroke="rgb(179,179,179)" stroke-linejoin="round" d="M 1262,17086 L 1412,17086"/>
 <path fill="none" stroke="rgb(179,179,179)" stroke-linejoin="round" d="M 1262,17086 L 1412,17086"/>
 <path fill="none" stroke="rgb(179,179,179)" stroke-linejoin="round" d="M 1262,11933 L 1412,11933"/>
 <path fill="none" stroke="rgb(179,179,179)" stroke-linejoin="round" d="M 1262,11933 L 1412,11933"/>
 <path fill="none" stroke="rgb(179,179,179)" stroke-linejoin="round" d="M 1262,6781 L 1412,6781"/>
 <path fill="none" stroke="rgb(179,179,179)" stroke-linejoin="round" d="M 1262,6781 L 1412,6781"/>
 <path fill="none" stroke="rgb(179,179,179)" stroke-linejoin="round" d="M 1262,1629 L 1412,1629"/>
 <path fill="none" stroke="rgb(179,179,179)" stroke-linejoin="round" d="M 1262,1629 L 1412,1629"/>
 <path fill="none" stroke="rgb(179,179,179)" stroke-linejoin="round" d="M 1412,22239 L 1412,1629"/>
 <path fill="none" stroke="rgb(141,40,30)" stroke-width="80" stroke-linejoin="round" stroke-dasharray="80,40" d="M 1461,22175 L 1558,22153 1654,22148 1751,22106 1848,22057 1945,21987 2042,21856 2138,21671 2235,21495 2332,21230 2429,20903 2526,20596 2622,20234 2719,19710 2816,19157 2913,18562 3010,18033 3106,17478 3203,16744 3300,16033 3397,15150 3494,14221 3590,13390 3687,12659 3784,11858 3881,11048 3977,10184 4074,9229 4171,8360 4268,7569 4365,6789 4461,6389 4558,5756 4655,5067 4752,4241 4849,3407 4945,2784 5042,2197 5118,1629"/>
 <path fill="none" stroke="rgb(255,64,0)" stroke-width="80" stroke-linejoin="round" stroke-dasharray="80,40" d="M 1461,22231 L 1558,22231 1654,22231 1751,22229 1848,22223 1945,22221 2042,22209 2138,22201 2235,22190 2332,22165 2429,22147 2526,22132 2622,22118 2719,22098 2816,22077 2913,22055 3010,22039 3106,22030 3203,21977 3300,21925 3397,21870 3494,21823 3590,21764 3687,21728 3784,21682 3881,21597 3977,21500 4074,21415 4171,21346 4268,21296 4365,21230 4461,21175 4558,21235 4655,21629 4752,21536 4849,21389 4945,21255 5042,21556 5139,21461 5236,21397 5333,21388 5429,21262 5526,21138 5623,20972 5720,20848 5817,20701 5913,20511 6010,20296 6107,20044 6204,19922 6301,19842 6397,19726 6494,19549 6591,19362 6688,19005 6784,18783 6881,18475 6978,18177 7075,18037 7172,17846 7268,17720 7365,17462 7462,16918 7559,16400 7656,16021 7752,15891 7849,15541 7946,15102 8043,14669 8140,14279 8236,13778 8333,13371 8430,12991 8527,12653 8624,12143 8720,11588 8817,10894 8914,10218 9011,9204 9107,8706 9204,8393 9301,7660 9398,7063 9495,6427 9591,5562 9688,4787 9785,4225 9882,8074 9979,7475 10075,6774 10172,6137 10269,5656 10366,5341 10463,5011 10559,4456 10656,3420 10753,3426 10850,3039 10927,1629"/>
 <path fill="none" stroke="rgb(0,223,255)" stroke-width="80" stroke-linejoin="round" stroke-dasharray="158,102" d="M 1461,22236 L 1558,22235 1654,22235 1751,22233 1848,22231 1945,22229 2042,22225 2138,22221 2235,22218 2332,22214 2429,22209 2526,22205 2622,22194 2719,22182 2816,22169 2913,22153 3010,22135 3106,22114 3203,22083 3300,22058 3397,22007 3494,21968 3590,21931 3687,21886 3784,21823 3881,21748 3977,21672 4074,21578 4171,21460 4268,21361 4365,21225 4461,21058 4558,20880 4655,20663 4752,20445 4849,20180 4945,19878 5042,19470 5139,19183 5236,18818 5333,18491 5429,18190 5526,17829 5623,17461 5720,17053 5817,16659 5913,16290 6010,16014 6107,15614 6204,15174 6301,14625 6397,13993 6494,13354 6591,12772 6688,12136 6784,11525 6881,10974 6978,10592 7075,9990 7172,9561 7268,9061 7365,8677 7462,8370 7559,7961 7656,7668 7752,7286 7849,6863 7946,6635 8043,6680 8140,6578 8236,6465 8333,6382 8430,6164 8527,5927 8624,6181 8720,6386 8817,6427 8914,6422 9011,6382 9107,6049 9204,5718 9301,5888 9398,5931 9495,5929 9591,5892 9688,5895 9785,5648 9882,5302 9979,5533 10075,5688 10172,5671 10269,5631 10366,5396 10463,5165 10559,4911 10656,5032 10753,5201 10850,5343 10947,5531 11043,5705 11140,5529 11237,5332 11334,5667 11430,6046 11527,5998 11624,6164 11721,6342 11817,6275 11913,6116 12010,6305 12107,6582 12204,6542 12301,6708 12397,6885 12494,6694 12591,6492 12688,6730 12785,6889 12881,7062 12978,7154 13075,7292 13172,7091 13269,6848 13365,7040 13462,7334 13559,7488 13656,7591 13752,7687 13849,7509 13946,7328 14043,7545 14140,7825 14236,8006 14333,8205 14430,8392 14527,8211 14624,8039 14720,8295 14817,8493 14914,8770 15011,9013 15108,9208 15204,9090 15301,8957 15398,9161 15495,9337 15592,9490 15688,9641 15785,9749 15882,9616 15979,9492 16076,9614 16172,9767 16269,9848 16366,9964 16463,10070 16559,9979 16656,9862 16753,9995 16850,10142 16947,10241 17043,10313 17140,10410 17237,10299 17334,10146 17431,10293 17527,10419 17624,10546 17721,10632 17818,10713 17915,10553 18011,10380 18108,10502 18205,10548 18302,10612 18399,10668 18495,10691 18592,10533"/>
 <path fill="none" stroke="rgb(21,132,102)" stroke-width="80" stroke-linejoin="round" stroke-dasharray="80,203,80,203,203,203" d="M 1461,22144 L 1558,22134 1654,22124 1751,22108 1848,22092 1945,22071 2042,22039 2138,22004 2235,21970 2332,21935 2429,21882 2526,21843 2622,21787 2719,21720 2816,21650 2913,21577 3010,21515 3106,21455 3203,21378 3300,21304 3397,21228 3494,21146 3590,21075 3687,21005 3784,20939 3881,20879 3977,20815 4074,20744 4171,20667 4268,20608 4365,20513 4461,20465 4558,20415 4655,20367 4752,20290 4849,20219 4945,20161 5042,20103 5139,20043 5236,19999 5333,19946 5429,19876 5526,19836 5623,19768 5720,19715 5817,19666 5913,19619 6010,19582 6107,19565 6204,19507 6301,19461 6397,19406 6494,19355 6591,19306 6688,19256 6784,19197 6881,19132 6978,19095 7075,19043 7172,19009 7268,18954 7365,18923 7462,18854 7559,18797 7656,18751 7752,18706 7849,18663 7946,18611 8043,18559 8140,18492 8236,18501 8333,18440 8430,18391 8527,18362 8624,18318 8720,18273 8817,18209 8914,18157 9011,18074 9107,18036 9204,17987 9301,17971 9398,17926 9495,17858 9591,17782 9688,17703 9785,17631 9882,17701 9979,17652 10075,17585 10172,17523 10269,17463 10366,17403 10463,17324 10559,17277 10656,17228 10753,17203 10850,17132 10947,17028 11043,16978 11140,16904 11237,16847 11334,16774 11430,16707 11527,16601 11624,16495 11721,16405 11817,16312 11913,16236 12010,16167 12107,16040 12204,16149 12301,16032 12397,16040 12494,15960 12591,15909 12688,15830 12785,15766 12881,15649 12978,15533 13075,15420 13172,15318 13269,15254 13365,15156 13462,15069 13559,14944 13656,14876 13752,14768 13849,14606 13946,14549 14043,14479 14140,14350 14236,14215 14333,14154 14430,14113 14527,14022 14624,13954 14720,13858 14817,13751 14914,13682 15011,13569 15108,13488 15204,13372 15301,13405 15398,13365 15495,13308 15592,13190 15688,13081 15785,13011 15882,12954 15979,12877 16076,12952 16172,12914 16269,12762 16366,12750 16463,12652 16559,12682 16656,12690 16753,12662 16850,12597 16947,12526 17043,12401 17140,12335 17237,12353 17334,12324 17431,12320 17527,12244 17624,12149 17721,12050 17818,11990 17915,11972 18011,11898 18108,11893 18205,11818 18302,11755 18399,11631 18495,11553 18592,11544"/>
 <path fill="none" stroke="rgb(191,0,65)" stroke-width="80" stroke-linejoin="round" stroke-dasharray="51,127,51,127,254,127,254,127,254,127" d="M 1461,22173 L 1558,22147 1654,22125 1751,22102 1848,22072 1945,22042 2042,21994 2138,21950 2235,21890 2332,21839 2429,21775 2526,21703 2622,21624 2719,21536 2816,21422 2913,21315 3010,21210 3106,21123 3203,21023 3300,20930 3397,20806 3494,20660 3590,20538 3687,20437 3784,20361 3881,20248 3977,20139 4074,20035 4171,19934 4268,19831 4365,19767 4461,19714 4558,19680 4655,19644 4752,19567 4849,19508 4945,19454 5042,19377 5139,19360 5236,19338 5333,19323 5429,19281 5526,19291 5623,19274 5720,19238 5817,19229 5913,19244 6010,19245 6107,19296 6204,19302 6301,19323 6397,19310 6494,19320 6591,19317 6688,19362 6784,19381 6881,19439 6978,19470 7075,19453 7172,19452 7268,19494 7365,19535 7462,19647 7559,19671 7656,19676 7752,19697 7849,19780 7946,19790 8043,19783 8140,19836 8236,19846 8333,19873 8430,19858 8527,19851 8624,19917 8720,19934 8817,19990 8914,19985 9011,20004 9107,20017 9204,20008 9301,20017 9398,20041 9495,20028 9591,20032 9688,20015 9785,19975 9882,19937 9979,19915 10075,19907 10172,19894 10269,19858 10366,19832 10463,19782 10559,19758 10656,19752 10753,19701 10850,19691 10947,19685 11043,19675 11140,19681 11237,19681 11334,19676 11430,19677 11527,19689 11624,19690 11721,19694 11817,19698 11913,19669 12010,19643 12107,19629 12204,19570 12301,19543 12397,19514 12494,19516 12591,19497 12688,19471 12785,19461 12881,19418 12978,19382 13075,19335 13172,19311 13269,19303 13365,19243 13462,19237 13559,19169 13656,19105 13752,19017 13849,18940 13946,18875 14043,18922 14140,18817 14236,18732 14333,18653 14430,18512 14527,18579 14624,18460 14720,18320 14817,18161 14914,17989 15011,17845 15108,17710 15204,17587 15301,17482 15398,17329 15495,17192 15592,17079 15688,16941 15785,16787 15882,16646 15979,16561 16076,16425 16172,16288 16269,16115 16366,15970 16463,15812 16559,15670 16656,15640 16753,15563 16850,15437 16947,15301 17043,15097 17140,14965 17237,14840 17334,14749 17431,14625 17527,14503 17624,14375 17721,14212 17818,14045 17915,13923 18011,13899 18108,13835 18205,13677 18302,13548 18399,13401 18495,13404 18592,13363"/>
 <path fill="none" stroke="rgb(255,211,32)" stroke-width="80" stroke-linejoin="round" d="M 1461,22103 L 1558,22057 1654,21995 1751,21955 1848,21860 1945,21795 2042,21574 2138,21441 2235,21287 2332,21167 2429,21056 2526,20910 2622,20662 2719,20404 2816,20065 2913,19728 3010,19554 3106,19397 3203,19128 3300,18959 3397,18633 3494,18422 3590,18067 3687,17981 3784,17790 3881,17661 3977,17446 4074,17277 4171,17170 4268,17147 4365,17053 4461,17045 4558,17130 4655,17205 4752,17146 4849,17232 4945,17236 5042,17175 5139,17285 5236,17351 5333,17489 5429,17595 5526,17727 5623,17734 5720,17774 5817,18008 5913,18073 6010,18154 6107,18262 6204,18269 6301,18342 6397,18441 6494,18620 6591,18742 6688,18864 6784,18976 6881,18975 6978,18994 7075,18996 7172,19175 7268,19304 7365,19417 7462,19528 7559,19611 7656,19605 7752,19626 7849,19690 7946,19718 8043,19749 8140,19812 8236,19856 8333,19802 8430,19773 8527,19830 8624,19868 8720,19930 8817,19966 8914,19951 9011,19963 9107,19939 9204,19988 9301,19972 9398,19964 9495,19968 9591,20005 9688,19972 9785,19919 9882,19953 9979,19958 10075,19945 10172,19966 10269,19935 10366,19887 10463,19863 10559,19892 10656,19908 10753,19900 10850,19827 10947,19738 11043,19703 11140,19676 11237,19688 11334,19586 11430,19500 11527,19471 11624,19331 11721,19095 11817,18822 11913,18667 12010,18549 12107,18485 12204,18386 12301,18276 12397,18161 12494,18098 12591,18059 12688,17981 12785,17953 12881,17967 12978,17965 13075,17873 13172,17836 13269,17896 13365,17865 13462,17799 13559,17795 13656,17755 13752,17654 13849,17595 13946,17520 14043,17383 14140,17367 14236,17324 14333,17148 14430,17183 14527,18846 14624,18663 14720,18392 14817,18110 14914,17898 15011,17790 15108,17688 15204,17609 15301,17510 15398,17339 15495,17204 15592,17407 15688,17502 15785,17348 15882,17256 15979,17310 16076,17263 16172,17160 16269,17007 16366,16880 16463,16722 16559,16642 16656,17253 16753,17488 16850,17640 16947,17665 17043,17331 17140,17146 17237,17055 17334,17052 17431,16975 17527,16870 17624,16887 17721,16598 17818,16338 17915,16083 18011,16092 18108,15910 18205,15481 18302,15153 18399,14739 18495,14269 18592,13898"/>
 <path fill="none" stroke="rgb(128,0,128)" stroke-width="80" stroke-linejoin="round" stroke-dasharray="158,158" d="M 1461,22238 L 1558,22238 1654,22238 1751,22238 1848,22238 1945,22237 2042,22237 2138,22237 2235,22236 2332,22236 2429,22235 2526,22235 2622,22234 2719,22234 2816,22233 2913,22232 3010,22232 3106,22230 3203,22229 3300,22225 3397,22221 3494,22221 3590,22218 3687,22214 3784,22207 3881,22203 3977,22199 4074,22195 4171,22189 4268,22185 4365,22180 4461,22172 4558,22166 4655,22160 4752,22155 4849,22150 4945,22143 5042,22132 5139,22129 5236,22123 5333,22117 5429,22109 5526,22102 5623,22093 5720,22086 5817,22079 5913,22070 6010,22063 6107,22054 6204,22044 6301,22033 6397,22019 6494,21999 6591,21988 6688,21971 6784,21957 6881,21941 6978,21929 7075,21910 7172,21896 7268,21884 7365,21872 7462,21855 7559,21844 7656,21839 7752,21821 7849,21806 7946,21784 8043,21767 8140,21745 8236,21721 8333,21692 8430,21665 8527,21641 8624,21625 8720,21598 8817,21568 8914,21597 9011,21569 9107,21541 9204,21514 9301,21484 9398,21442 9495,21403 9591,21370 9688,21335 9785,21294 9882,21272 9979,21240 10075,21168 10172,21179 10269,21150 10366,21123 10463,21095 10559,21095 10656,21079 10753,21041 10850,21019 10947,20982 11043,20973 11140,20936 11237,20909 11334,20872 11430,20846 11527,20824 11624,20764 11721,20722 11817,20669 11913,20632 12010,20594 12107,20544 12204,20540 12301,20480 12397,20410 12494,20347 12591,20300 12688,20260 12785,20224 12881,20172 12978,20122 13075,20056 13172,19986 13269,19912 13365,19850 13462,19765 13559,19681 13656,19557 13752,19449 13849,19321 13946,19231 14043,19167 14140,19055 14236,18950 14333,18831 14430,18744 14527,18615 14624,18538 14720,18434 14817,18301 14914,18178 15011,18018 15108,17999 15204,17912 15301,17860 15398,17861 15495,17791 15592,17703 15688,17615 15785,17543 15882,17497 15979,17460 16076,17430 16172,17357 16269,17298 16366,17250 16463,17178 16559,17184 16656,17211 16753,17186 16850,17113 16947,17071 17043,17031 17140,16954 17237,16931 17334,16979 17431,16960 17527,16817 17624,16697 17721,16620 17818,16523 17915,16399 18011,16369 18108,16255 18205,16148 18302,16032 18399,15918 18495,15799 18592,15648"/>
 <path fill="none" stroke="rgb(0,255,0)" stroke-width="80" stroke-linejoin="round" d="M 1461,20900 L 1558,20641 1654,19640 1751,19640 1848,19060 1945,18684 2042,17453 2138,16017 2235,14516 2332,13612 2429,12065 2526,10780 2622,9602 2719,8559 2816,8942 2913,7615 3010,6838 3106,5879 3203,5153 3300,5196 3397,5238 3494,5368 3590,6255 3687,5605 3784,6955 3881,7084 3977,7254 4074,7352 4171,7416 4268,7985 4365,8416 4461,9320 4558,9067 4655,10693 4752,10867 4849,11105 4945,11599 5042,12061 5139,12814 5236,13683 5333,14071 5429,14681 5526,14989 5623,15100 5720,15510 5817,15929 5913,16326 6010,16176 6107,16941 6204,17415 6301,17648 6397,17901 6494,18670 6591,18888 6688,19196 6784,19362 6881,19519 6978,19832 7075,20009 7172,20215 7268,20199 7365,20520 7462,20463 7559,20410 7656,20699 7752,20802 7849,20916 7946,21016 8043,21088 8140,21172 8236,21162 8333,21262 8430,21369 8527,21485 8624,21469 8720,21573 8817,21551 8914,21513 9011,21612 9107,21712 9204,21701 9301,21698 9398,21796 9495,21772 9591,21744 9688,21840 9785,21829 9882,21823 9979,21817 10075,21792 10172,21873 10269,21852 10366,21815 10463,21787 10559,21891 10656,21881 10753,21844 10850,21829 10947,21787 11043,21778 11140,21838 11237,21817 11334,21791 11430,21741 11527,21679 11624,21615 11721,21651 11817,21578 11913,21536 12010,21582 12107,21422 12204,21284 12301,21124 12397,21008 12494,21044 12591,20988 12688,20925 12785,20891 12881,20786 12978,20662 13075,20632 13172,20673 13269,20598 13365,20752 13462,20595 13559,20546 13656,20437 13752,20306 13849,20664 13946,20616 14043,20488 14140,20558 14236,20423 14333,20242 14430,20065 14527,20173 14624,20334 14720,20296 14817,20187 14914,19926 15011,19677 15108,19701 15204,19775 15301,19696 15398,19661 15495,19449 15592,19234 15688,19044 15785,19184 15882,19480 15979,19475 16076,19256 16172,19288 16269,19009 16366,18928 16463,18984 16559,18865 16656,18713 16753,18717 16850,18352 16947,18514 17043,18152 17140,18039 17237,18068 17334,17882 17431,17642 17527,17664 17624,17234 17721,16830 17818,16860 17915,17227 18011,17391 18108,17378 18205,17175 18302,16744 18399,16262 18495,16471 18592,15942"/>
 <path fill="none" stroke="rgb(131,202,255)" stroke-width="80" stroke-linejoin="round" d="M 1461,19689 L 1558,19213 1654,18727 1751,18306 1848,17796 1945,17345 2042,16581 2138,15668 2235,14964 2332,14289 2429,13575 2526,13029 2622,12434 2719,11670 2816,10919 2913,10297 3010,9647 3106,9366 3203,9007 3300,8506 3397,8084 3494,7685 3590,7194 3687,6687 3784,6356 3881,6206 3977,6002 4074,5727 4171,5489 4268,5149 4365,4811 4461,4579 4558,4463 4655,4271 4752,4069 4849,4008 4945,3870 5042,3787 5139,3791 5236,3881 5333,3883 5429,4028 5526,4082 5623,4198 5720,4155 5817,4204 5913,4308 6010,4401 6107,4930 6204,5034 6301,5075 6397,5164 6494,5198 6591,5456 6688,6639 6784,6963 6881,7247 6978,7778 7075,8037 7172,8180 7268,8388 7365,8867 7462,9211 7559,9955 7656,10276 7752,10589 7849,10896 7946,11138 8043,11544 8140,11849 8236,12127 8333,12395 8430,12592 8527,12813 8624,13215 8720,13552 8817,14059 8914,14368 9011,14792 9107,15067 9204,15188 9301,15439 9398,15540 9495,15688 9591,15936 9688,16123 9785,16228 9882,16319 9979,16636 10075,16834 10172,17017 10269,17296 10366,17554 10463,17760 10559,17822 10656,18051 10753,18161 10850,18301 10947,18567 11043,18623 11140,18664 11237,18721 11334,18902 11430,19059 11527,19119 11624,19232 11721,19369 11817,19395 11913,19427 12010,19586 12107,19638 12204,19672 12301,19702 12397,19746 12494,19743 12591,19731 12688,19811 12785,19921 12881,19944 12978,19950 13075,19971 13172,19992 13269,19996 13365,20037 13462,20109 13559,20113 13656,20115 13752,20130 13849,20118 13946,20124 14043,20151 14140,20138 14236,20124 14333,20142 14430,20118 14527,20097 14624,20094 14720,20089 14817,20088 14914,20154 15011,20121 15108,20115 15204,20115 15301,20112 15398,20111 15495,20083 15592,20075 15688,20036 15785,20031 15882,19978 15979,19960 16076,19927 16172,19888 16269,19838 16366,19810 16463,19783 16559,19727 16656,19704 16753,19667 16850,19620 16947,19509 17043,19396 17140,19255 17237,19096 17334,18967 17431,18878 17527,18701 17624,18500 17721,18312 17818,18292 17915,18113 18011,17794 18108,17678 18205,17497 18302,17310 18399,17108 18495,16922 18592,16771"/>
 <path fill="none" stroke="rgb(0,169,51)" stroke-width="80" stroke-linejoin="round" d="M 1461,21670 L 1558,21497 1654,21262 1751,21084 1848,20719 1945,20370 2042,19952 2138,19523 2235,19038 2332,18168 2429,17153 2526,16236 2622,15889 2719,14517 2816,13801 2913,13110 3010,12829 3106,12084 3203,11990 3300,11794 3397,11687 3494,11559 3590,11841 3687,12113 3784,12382 3881,12684 3977,12905 4074,13418 4171,14032 4268,14383 4365,14677 4461,14995 4558,15134 4655,15550 4752,16426 4849,17135 4945,17646 5042,17895 5139,18012 5236,18335 5333,18706 5429,19051 5526,19185 5623,19368 5720,19491 5817,19535 5913,19712 6010,19901 6107,19995 6204,20142 6301,20199 6397,20212 6494,20288 6591,20428 6688,20594 6784,20585 6881,20724 6978,20762 7075,20794 7172,20864 7268,20877 7365,21015 7462,21063 7559,21083 7656,21039 7752,21037 7849,21065 7946,21082 8043,21280 8140,21300 8236,21328 8333,21312 8430,21323 8527,21369 8624,21401 8720,21417 8817,21467 8914,21506 9011,21670 9107,21701 9204,21702 9301,21711 9398,21748 9495,21760 9591,21748 9688,21738 9785,21738 9882,21716 9979,21744 10075,21756 10172,21768 10269,21776 10366,21793 10463,21812 10559,21791 10656,21759 10753,21761 10850,21742 10947,21733 11043,21712 11140,21719 11237,21725 11334,21719 11430,21696 11527,21713 11624,21694 11721,21656 11817,21608 11913,21552 12010,21571 12107,21464 12204,21412 12301,21338 12397,21262 12494,21141 12591,21081 12688,21061 12785,20996 12881,20921 12978,20871 13075,20851 13172,20823 13269,20820 13365,20821 13462,20786 13559,20734 13656,20645 13752,20681 13849,20699 13946,20667 14043,20635 14140,20672 14236,20585 14333,20567 14430,20520 14527,20464 14624,20409 14720,20425 14817,20401 14914,20397 15011,20346 15108,20427 15204,20405 15301,20403 15398,20607 15495,20656 15592,20658 15688,20606 15785,20653 15882,20649 15979,20667 16076,20638 16172,20583 16269,20496 16366,20348 16463,20151 16559,19995 16656,19904 16753,19687 16850,19496 16947,19253 17043,19067 17140,18893 17237,18848 17334,18686 17431,18709 17527,18628 17624,18450 17721,18505 17818,18364 17915,18390 18011,18258 18108,18413 18205,18331 18302,18273 18399,18255 18495,18206 18592,18243"/>
 <path fill="none" stroke="rgb(0,169,51)" stroke-width="80" stroke-linejoin="round" stroke-dasharray="158,102" d="M 1461,21270 L 1558,21115 1654,21180 1751,21067 1848,21037 1945,20909 2042,20838 2138,20832 2235,20837 2332,20763 2429,20606 2526,20525 2622,20359 2719,20188 2816,19929 2913,19636 3010,19382 3106,19192 3203,18919 3300,18670 3397,18484 3494,18318 3590,18244 3687,17958 3784,18248 3881,18352 3977,18462 4074,18582 4171,18742 4268,19328 4365,19378 4461,19449 4558,19531 4655,19579 4752,19675 4849,19727 4945,19803 5042,19776 5139,19904 5236,19964 5333,20092 5429,20189 5526,20273 5623,20339 5720,20384 5817,20431 5913,20488 6010,20532 6107,20581 6204,20614 6301,20651 6397,20668 6494,20645 6591,20624 6688,20564 6784,20532 6881,20482 6978,20451 7075,20420 7172,20376 7268,20315 7365,20212 7462,20136 7559,20043 7656,19992 7752,19938 7849,19812 7946,19746 8043,19667 8140,19597 8236,19530 8333,19528 8430,19480 8527,19471 8624,19470 8720,19435 8817,19388 8914,19286 9011,19246 9107,19193 9204,19102 9301,18982 9398,18867 9495,18715 9591,18646 9688,18659 9785,18661 9882,18666 9979,18675 10075,18700 10172,18692 10269,18654 10366,18622 10463,18568 10559,18516 10656,18472 10753,18428 10850,18388 10947,18352 11043,18350 11140,18344 11237,18391 11334,18441 11430,18507 11527,18574 11624,18603 11721,18661 11817,18699 11913,18759 12010,18792 12107,18832 12204,18845 12301,18837 12397,18862 12494,18860 12591,18897 12688,18956 12785,18946 12881,19051 12978,19139 13075,19194 13172,19235 13269,19284 13365,19332 13462,19344 13559,19436 13656,19444 13752,19499 13849,19562 13946,19575 14043,19559 14140,19574 14236,19572 14333,19537 14430,19535 14527,19507 14624,19472 14720,19403 14817,19361 14914,19323 15011,19304 15108,19301 15204,19276 15301,19245 15398,19216 15495,19202 15592,19211 15688,19207 15785,19256 15882,19304 15979,19345 16076,19322 16172,19237 16269,19158 16366,19087 16463,19055 16559,19039 16656,18988 16753,18928 16850,18849 16947,18796 17043,18739 17140,18731 17237,18705 17334,18679 17431,18631 17527,18593 17624,18555 17721,18510 17818,18483 17915,18473 18011,18508 18108,18546 18205,18539 18302,18530 18399,18506 18495,18511 18592,18501"/>
 <path fill="none" stroke="rgb(0,169,51)" stroke-width="80" stroke-linejoin="round" stroke-dasharray="80,40" d="M 1461,22237 L 1558,22236 1654,22235 1751,22232 1848,22231 1945,22229 2042,22226 2138,22223 2235,22219 2332,22214 2429,22210 2526,22207 2622,22201 2719,22193 2816,22182 2913,22172 3010,22161 3106,22156 3203,22147 3300,22134 3397,22125 3494,22159 3590,22144 3687,22125 3784,22104 3881,22078 3977,22049 4074,22030 4171,22000 4268,21974 4365,22031 4461,22012 4558,21996 4655,21977 4752,21944 4849,21902 4945,21861 5042,21843 5139,21804 5236,21758 5333,21683 5429,21604 5526,21517 5623,21808 5720,21841 5817,21838 5913,21938 6010,21867 6107,21764 6204,21728 6301,21627 6397,21609 6494,21504 6591,21702 6688,21667 6784,21529 6881,21595 6978,21576 7075,21461 7172,21467 7268,21562 7365,21521 7462,21468 7559,21454 7656,21419 7752,21382 7849,21366 7946,21331 8043,21273 8140,21207 8236,21172 8333,21099 8430,21100 8527,21118 8624,21062 8720,20992 8817,20934 8914,20943 9011,20921 9107,20883 9204,20935 9301,20884 9398,20893 9495,20770 9591,20719 9688,20698 9785,20670 9882,20767 9979,20728 10075,20648 10172,20573 10269,20490 10366,20501 10463,20448 10559,20609 10656,20547 10753,20463 10850,20358 10947,20348 11043,20355 11140,20302 11237,20388 11334,20289 11430,20317 11527,20198 11624,20177 11721,20184 11817,20196 11913,20369 12010,20338 12107,20262 12204,20195 12301,20155 12397,20154 12494,20137 12591,20176 12688,20116 12785,20009 12881,19910 12978,19870 13075,19786 13172,19853 13269,19933 13365,19894 13462,19972 13559,19938 13656,19938 13752,19938 13849,18234 13946,18496 14043,18366 14140,18167 14236,17974 14333,18062 14430,18015 14527,18113 14624,18429 14720,18268 14817,18358 14914,18236 15011,18175 15108,18094 15204,18340 15301,18853 15398,18750 15495,18671 15592,18493 15688,18402 15785,18500 15882,18758 15979,19067 16076,18936 16172,18839 16269,18732 16366,18643 16463,18801 16559,18953 16656,19212 16753,19069 16850,19027 16947,18888 17043,18899 17140,18813 17237,18917 17334,19305 17431,19204 17527,19072 17624,18898 17721,18816 17818,18753 17915,18885 18011,19127 18108,19115 18205,18993 18302,19046 18399,18915 18495,18782 18592,18898"/>
 <path fill="none" stroke="rgb(255,0,0)" stroke-width="80" stroke-linejoin="round" stroke-dasharray="158,102" d="M 1461,22238 L 1558,22238 1654,22238 1751,22236 1848,22233 1945,22227 2042,22215 2138,22195 2235,22158 2332,22091 2429,22056 2526,22015 2622,21952 2719,21807 2816,21559 2913,21356 3010,21141 3106,20956 3203,20641 3300,20397 3397,20117 3494,19793 3590,19471 3687,19128 3784,18788 3881,18353 3977,17892 4074,17445 4171,16911 4268,16361 4365,15846 4461,15421 4558,15040 4655,14638 4752,14240 4849,13912 4945,13687 5042,13402 5139,13024 5236,12657 5333,12485 5429,12364 5526,12393 5623,12526 5720,12685 5817,13005 5913,13337 6010,13628 6107,13912 6204,14256 6301,14567 6397,14968 6494,15392 6591,15801 6688,16134 6784,16484 6881,16681 6978,16875 7075,17084 7172,17333 7268,17511 7365,17663 7462,17753 7559,17807 7656,17860 7752,17921 7849,17981 7946,18020 8043,18038 8140,18046 8236,18070 8333,18111 8430,18109 8527,18154 8624,18224 8720,18258 8817,18310 8914,18369 9011,18377 9107,18398 9204,18419 9301,18445 9398,18455 9495,18450 9591,18537 9688,18667 9785,18882 9882,19180 9979,19454 10075,19617 10172,19624 10269,19631 10366,19575 10463,19548 10559,19472 10656,19419 10753,19400 10850,19413 10947,19450 11043,19460 11140,19490 11237,19503 11334,19512 11430,19502 11527,19506 11624,19520 11721,19597 11817,19606 11913,19588 12010,19591 12107,19730 12204,19776 12301,19796 12397,19805 12494,19813 12591,19965 12688,20119 12785,20266 12881,20495 12978,20557 13075,20599 13172,20636 13269,20656 13365,20666 13462,20676 13559,20697 13656,20710 13752,20744 13849,20755 13946,20765 14043,20777 14140,20816 14236,20847 14333,20858 14430,20882 14527,20894 14624,20904 14720,20922 14817,20930 14914,20934 15011,20938 15108,20938 15204,20939 15301,20942 15398,20934 15495,20916 15592,20904 15688,20887 15785,20878 15882,20870 15979,20874 16076,20876 16172,20844 16269,20813 16366,20779 16463,20749 16559,20727 16656,20702 16753,20665 16850,20631 16947,20569 17043,20519 17140,20459 17237,20410 17334,20327 17431,20255 17527,20219 17624,20162 17721,20105 17818,20043 17915,19993 18011,19937 18108,19873 18205,19799 18302,19753 18399,19687 18495,19609 18592,19547"/>
 <path fill="none" stroke="rgb(180,120,4)" stroke-width="80" stroke-linejoin="round" d="M 1461,20835 L 1558,20781 1654,20715 1751,20615 1848,20456 1945,20297 2042,20110 2138,19920 2235,19782 2332,19617 2429,19535 2526,19355 2622,19116 2719,18863 2816,18585 2913,18317 3010,18012 3106,17687 3203,17220 3300,18368 3397,18258 3494,17835 3590,17470 3687,17079 3784,16649 3881,16224 3977,15920 4074,15756 4171,15532 4268,15564 4365,15590 4461,15555 4558,15742 4655,15875 4752,16035 4849,16366 4945,16892 5042,17176 5139,17262 5236,17640 5333,17961 5429,18213 5526,18237 5623,18103 5720,18120 5817,18183 5913,18216 6010,18386 6107,18459 6204,18525 6301,18663 6397,18649 6494,18585 6591,18702 6688,18847 6784,18988 6881,19147 6978,19268 7075,19298 7172,19352 7268,19645 7365,19668 7462,19843 7559,19976 7656,20128 7752,20224 7849,20283 7946,20357 8043,20444 8140,20530 8236,20657 8333,20680 8430,20668 8527,20734 8624,20802 8720,20821 8817,20900 8914,20863 9011,20951 9107,20954 9204,20993 9301,21073 9398,21118 9495,21174 9591,21127 9688,21162 9785,21183 9882,21230 9979,21262 10075,21332 10172,21388 10269,21344 10366,21353 10463,21316 10559,21314 10656,21318 10753,21346 10850,21361 10947,21349 11043,21349 11140,21349 11237,21229 11334,21251 11430,21208 11527,21237 11624,21255 11721,21255 11817,21255 11913,21305 12010,21340 12107,21374 12204,21470 12301,21524 12397,21524 12494,21522 12591,21650 12688,21721 12785,21732 12881,21781 12978,21784 13075,21784 13172,21784 13269,21720 13365,21730 13462,21714 13559,21681 13656,21622 13752,21622 13849,21616 13946,21534 14043,21482 14140,21421 14236,21396 14333,21386 14430,21384 14527,21346 14624,21288 14720,21284 14817,21246 14914,21152 15011,21132 15108,21132 15204,21138 15301,20959 15398,20879 15495,20725 15592,20533 15688,20344 15785,20339 15882,20364 15979,19860 16076,19717 16172,19623 16269,19445 16366,19299 16463,19212 16559,19088 16656,19013 16753,19011 16850,19104 16947,19137 17043,19362 17140,19168 17237,19445 17334,19553 17431,19689 17527,19853 17624,19979 17721,20056 17818,20115 17915,20142 18011,20154 18108,20149 18205,20154 18302,19998 18399,19848 18495,19666 18592,19565"/>
 <path fill="none" stroke="rgb(0,0,0)" stroke-width="80" stroke-linejoin="round" d="M 1461,21793 L 1558,21681 1654,21533 1751,21354 1848,21111 1945,20739 2042,20373 2138,19828 2235,19545 2332,19223 2429,18712 2526,18599 2622,18109 2719,17565 2816,16842 2913,16238 3010,15799 3106,15751 3203,15482 3300,15073 3397,14705 3494,14205 3590,13844 3687,13648 3784,13276 3881,13682 3977,14287 4074,14469 4171,14183 4268,14271 4365,14301 4461,14541 4558,14875 4655,15062 4752,15271 4849,15605 4945,15660 5042,15769 5139,16002 5236,16327 5333,16584 5429,16795 5526,17387 5623,17216 5720,17344 5817,17548 5913,17786 6010,17974 6107,18193 6204,18494 6301,18652 6397,18770 6494,18984 6591,19174 6688,19657 6784,19737 6881,19609 6978,19720 7075,19790 7172,19865 7268,19996 7365,20081 7462,20234 7559,20303 7656,20367 7752,20468 7849,20577 7946,20515 8043,20595 8140,20673 8236,20711 8333,20761 8430,20792 8527,20874 8624,20903 8720,20975 8817,20963 8914,20987 9011,21039 9107,21068 9204,21081 9301,21168 9398,21246 9495,21263 9591,21281 9688,21277 9785,21274 9882,21272 9979,21299 10075,21360 10172,21383 10269,21389 10366,21439 10463,21423 10559,21478 10656,21428 10753,21482 10850,21366 10947,21323 11043,21357 11140,21299 11237,21288 11334,21286 11430,21313 11527,21295 11624,21264 11721,21258 11817,21246 11913,21218 12010,21214 12107,21279 12204,21308 12301,21320 12397,21356 12494,21404 12591,21392 12688,21421 12785,21439 12881,21474 12978,21471 13075,21455 13172,21447 13269,21500 13365,21466 13462,21524 13559,21505 13656,21493 13752,21484 13849,21471 13946,21481 14043,21452 14140,21433 14236,21423 14333,21401 14430,21349 14527,21317 14624,21295 14720,21271 14817,21238 14914,21151 15011,21100 15108,21105 15204,21112 15301,21087 15398,21071 15495,20963 15592,20938 15688,20877 15785,20867 15882,20848 15979,20772 16076,20764 16172,20682 16269,20589 16366,20502 16463,20455 16559,20445 16656,20367 16753,20369 16850,20270 16947,20188 17043,20134 17140,20150 17237,20119 17334,20001 17431,20028 17527,20020 17624,19979 17721,19945 17818,19933 17915,19936 18011,19938 18108,19987 18205,20002 18302,20025 18399,20006 18495,20005 18592,20002"/>
 <path fill="none" stroke="rgb(85,48,141)" stroke-width="80" stroke-linejoin="round" stroke-dasharray="80,40" d="M 1461,22188 L 1558,22187 1654,22172 1751,22129 1848,22112 1945,22064 2042,22025 2138,21987 2235,21898 2332,21846 2429,21678 2526,21514 2622,21409 2719,21195 2816,21045 2913,20860 3010,20668 3106,20368 3203,20372 3300,20019 3397,19669 3494,19485 3590,19458 3687,18829 3784,18698 3881,18496 3977,18257 4074,18146 4171,17966 4268,17850 4365,17744 4461,17558 4558,17344 4655,17259 4752,16818 4849,16528 4945,16234 5042,16171 5139,15852 5236,15602 5333,15376 5429,15058 5526,14766 5623,14651 5720,14467 5817,14455 5913,14338 6010,14215 6107,14123 6204,14036 6301,13930 6397,13559 6494,13522 6591,13496 6688,13462 6784,13392 6881,13299 6978,13273 7075,13230 7172,13189 7268,13210 7365,13237 7462,13205 7559,13126 7656,13071 7752,12991 7849,12900 7946,12847 8043,12782 8140,12752 8236,12687 8333,12582 8430,12525 8527,12460 8624,12413 8720,12446 8817,12400 8914,12425 9011,12407 9107,12438 9204,12465 9301,12475 9398,12530 9495,12581 9591,12656 9688,12808 9785,12784 9882,12811 9979,12913 10075,13100 10172,13240 10269,13382 10366,13498 10463,13633 10559,13755 10656,13797 10753,14075 10850,14120 10947,14159 11043,14192 11140,14225 11237,14265 11334,14287 11430,14317 11527,14313 11624,14354 11721,14359 11817,14341 11913,14455 12010,14504 12107,14535 12204,14574 12301,14591 12397,14608 12494,14625 12591,14613 12688,14637 12785,14663 12881,14658 12978,14673 13075,14717 13172,14712 13269,14657 13365,14650 13462,14656 13559,14638 13656,21039 13752,20997 13849,20953 13946,20857 14043,20787 14140,20771 14236,20725 14333,20685 14430,20661 14527,20631 14624,20579 14720,20538 14817,20490 14914,20502 15011,20492 15108,20473 15204,20443 15301,20411 15398,20437 15495,20424 15592,20410 15688,20393 15785,20363 15882,20349 15979,20882 16076,20904 16172,20922 16269,20912 16366,20906 16463,20922 16559,20948 16656,20952 16753,20900 16850,20940 16947,20951 17043,20920 17140,20922 17237,20911 17334,20869 17431,20885 17527,20868 17624,20852 17721,20830 17818,20823 17915,20801 18011,20675 18108,20652 18205,20629 18302,20584 18399,20547 18495,20504 18592,20463"/>
 <path fill="none" stroke="rgb(0,0,255)" stroke-width="80" stroke-linejoin="round" stroke-dasharray="158,158" d="M 1461,20750 L 1558,20730 1654,20715 1751,20827 1848,20865 1945,20874 2042,20845 2138,20828 2235,20800 2332,21044 2429,21044 2526,21151 2622,21177 2719,21240 2816,21301 2913,21329 3010,21354 3106,21379 3203,21391 3300,21403 3397,21439 3494,21461 3590,21504 3687,21517 3784,21535 3881,21546 3977,21553 4074,21586 4171,21610 4268,21630 4365,21650 4461,21661 4558,21674 4655,21686 4752,21710 4849,21721 4945,21739 5042,21759 5139,21771 5236,21790 5333,21801 5429,21843 5526,21868 5623,21883 5720,21891 5817,21906 5913,21918 6010,21945 6107,21946 6204,21956 6301,21965 6397,21971 6494,21984 6591,21994 6688,22010 6784,22021 6881,22034 6978,22036 7075,22033 7172,22036 7268,22036 7365,22044 7462,22050 7559,22053 7656,22058 7752,22058 7849,22062 7946,22082 8043,22093 8140,22095 8236,22097 8333,22096 8430,22095 8527,22102 8624,22098 8720,22091 8817,22084 8914,22083 9011,22079 9107,22076 9204,22073 9301,22068 9398,22066 9495,22060 9591,22055 9688,22047 9785,22042 9882,22040 9979,22034 10075,22034 10172,22026 10269,22021 10366,22019 10463,22015 10559,22014 10656,22008 10753,22002 10850,21999 10947,21990 11043,21983 11140,21982 11237,21978 11334,21972 11430,21976 11527,22008 11624,22027 11721,22024 11817,22028 11913,22041 12010,22047 12107,22050 12204,22052 12301,22050 12397,22042 12494,22036 12591,22041 12688,22040 12785,22040 12881,22041 12978,22049 13075,22048 13172,22040 13269,22049 13365,22055 13462,22053 13559,22054 13656,22058 13752,22059 13849,22057 13946,22062 14043,22061 14140,22061 14236,22065 14333,22052 14430,22045 14527,22043 14624,22058 14720,22061 14817,22070 14914,22073 15011,22077 15108,22076 15204,22076 15301,22084 15398,22088 15495,22099 15592,22103 15688,22112 15785,22108 15882,22105 15979,22113 16076,22113 16172,22108 16269,22097 16366,22071 16463,22017 16559,21979 16656,21933 16753,21888 16850,21841 16947,21788 17043,21731 17140,21658 17237,21608 17334,21565 17431,21518 17527,21448 17624,21392 17721,21371 17818,21339 17915,21304 18011,21302 18108,21280 18205,21276 18302,21288 18399,21300 18495,21294 18592,21301"/>
 <text class="TextShape" transform="rotate(-90 1555 23210)"><tspan class="TextParagraph" font-family="Liberation Sans, sans-serif" font-size="282px" font-weight="400"><tspan class="TextPosition" x="1555" y="23210"><tspan fill="rgb(0,0,0)" stroke="none">13.03</tspan></tspan></tspan></text>
 <text class="TextShape" transform="rotate(-90 2232 23210)"><tspan class="TextParagraph" font-family="Liberation Sans, sans-serif" font-size="282px" font-weight="400"><tspan class="TextPosition" x="2232" y="23210"><tspan fill="rgb(0,0,0)" stroke="none">20.03</tspan></tspan></tspan></text>
 <text class="TextShape" transform="rotate(-90 2910 23210)"><tspan class="TextParagraph" font-family="Liberation Sans, sans-serif" font-size="282px" font-weight="400"><tspan class="TextPosition" x="2910" y="23210"><tspan fill="rgb(0,0,0)" stroke="none">27.03</tspan></tspan></tspan></text>
 <text class="TextShape" transform="rotate(-90 3588 23210)"><tspan class="TextParagraph" font-family="Liberation Sans, sans-serif" font-size="282px" font-weight="400"><tspan class="TextPosition" x="3588" y="23210"><tspan fill="rgb(0,0,0)" stroke="none">03.04</tspan></tspan></tspan></text>
 <text class="TextShape" transform="rotate(-90 4265 23210)"><tspan class="TextParagraph" font-family="Liberation Sans, sans-serif" font-size="282px" font-weight="400"><tspan class="TextPosition" x="4265" y="23210"><tspan fill="rgb(0,0,0)" stroke="none">10.04</tspan></tspan></tspan></text>
 <text class="TextShape" transform="rotate(-90 4943 23210)"><tspan class="TextParagraph" font-family="Liberation Sans, sans-serif" font-size="282px" font-weight="400"><tspan class="TextPosition" x="4943" y="23210"><tspan fill="rgb(0,0,0)" stroke="none">17.04</tspan></tspan></tspan></text>
 <text class="TextShape" transform="rotate(-90 5620 23210)"><tspan class="TextParagraph" font-family="Liberation Sans, sans-serif" font-size="282px" font-weight="400"><tspan class="TextPosition" x="5620" y="23210"><tspan fill="rgb(0,0,0)" stroke="none">24.04</tspan></tspan></tspan></text>
 <text class="TextShape" transform="rotate(-90 6298 23210)"><tspan class="TextParagraph" font-family="Liberation Sans, sans-serif" font-size="282px" font-weight="400"><tspan class="TextPosition" x="6298" y="23210"><tspan fill="rgb(0,0,0)" stroke="none">01.05</tspan></tspan></tspan></text>
 <text class="TextShape" transform="rotate(-90 6975 23210)"><tspan class="TextParagraph" font-family="Liberation Sans, sans-serif" font-size="282px" font-weight="400"><tspan class="TextPosition" x="6975" y="23210"><tspan fill="rgb(0,0,0)" stroke="none">08.05</tspan></tspan></tspan></text>
 <text class="TextShape" transform="rotate(-90 7653 23210)"><tspan class="TextParagraph" font-family="Liberation Sans, sans-serif" font-size="282px" font-weight="400"><tspan class="TextPosition" x="7653" y="23210"><tspan fill="rgb(0,0,0)" stroke="none">15.05</tspan></tspan></tspan></text>
 <text class="TextShape" transform="rotate(-90 8330 23210)"><tspan class="TextParagraph" font-family="Liberation Sans, sans-serif" font-size="282px" font-weight="400"><tspan class="TextPosition" x="8330" y="23210"><tspan fill="rgb(0,0,0)" stroke="none">22.05</tspan></tspan></tspan></text>
 <text class="TextShape" transform="rotate(-90 9008 23210)"><tspan class="TextParagraph" font-family="Liberation Sans, sans-serif" font-size="282px" font-weight="400"><tspan class="TextPosition" x="9008" y="23210"><tspan fill="rgb(0,0,0)" stroke="none">29.05</tspan></tspan></tspan></text>
 <text class="TextShape" transform="rotate(-90 9685 23210)"><tspan class="TextParagraph" font-family="Liberation Sans, sans-serif" font-size="282px" font-weight="400"><tspan class="TextPosition" x="9685" y="23210"><tspan fill="rgb(0,0,0)" stroke="none">05.06</tspan></tspan></tspan></text>
 <text class="TextShape" transform="rotate(-90 10363 23210)"><tspan class="TextParagraph" font-family="Liberation Sans, sans-serif" font-size="282px" font-weight="400"><tspan class="TextPosition" x="10363" y="23210"><tspan fill="rgb(0,0,0)" stroke="none">12.06</tspan></tspan></tspan></text>
 <text class="TextShape" transform="rotate(-90 11041 23210)"><tspan class="TextParagraph" font-family="Liberation Sans, sans-serif" font-size="282px" font-weight="400"><tspan class="TextPosition" x="11041" y="23210"><tspan fill="rgb(0,0,0)" stroke="none">19.06</tspan></tspan></tspan></text>
 <text class="TextShape" transform="rotate(-90 11718 23210)"><tspan class="TextParagraph" font-family="Liberation Sans, sans-serif" font-size="282px" font-weight="400"><tspan class="TextPosition" x="11718" y="23210"><tspan fill="rgb(0,0,0)" stroke="none">26.06</tspan></tspan></tspan></text>
 <text class="TextShape" transform="rotate(-90 12395 23210)"><tspan class="TextParagraph" font-family="Liberation Sans, sans-serif" font-size="282px" font-weight="400"><tspan class="TextPosition" x="12395" y="23210"><tspan fill="rgb(0,0,0)" stroke="none">03.07</tspan></tspan></tspan></text>
 <text class="TextShape" transform="rotate(-90 13072 23210)"><tspan class="TextParagraph" font-family="Liberation Sans, sans-serif" font-size="282px" font-weight="400"><tspan class="TextPosition" x="13072" y="23210"><tspan fill="rgb(0,0,0)" stroke="none">10.07</tspan></tspan></tspan></text>
 <text class="TextShape" transform="rotate(-90 13750 23210)"><tspan class="TextParagraph" font-family="Liberation Sans, sans-serif" font-size="282px" font-weight="400"><tspan class="TextPosition" x="13750" y="23210"><tspan fill="rgb(0,0,0)" stroke="none">17.07</tspan></tspan></tspan></text>
 <text class="TextShape" transform="rotate(-90 14427 23210)"><tspan class="TextParagraph" font-family="Liberation Sans, sans-serif" font-size="282px" font-weight="400"><tspan class="TextPosition" x="14427" y="23210"><tspan fill="rgb(0,0,0)" stroke="none">24.07</tspan></tspan></tspan></text>
 <text class="TextShape" transform="rotate(-90 15105 23210)"><tspan class="TextParagraph" font-family="Liberation Sans, sans-serif" font-size="282px" font-weight="400"><tspan class="TextPosition" x="15105" y="23210"><tspan fill="rgb(0,0,0)" stroke="none">31.07</tspan></tspan></tspan></text>
 <text class="TextShape" transform="rotate(-90 15782 23210)"><tspan class="TextParagraph" font-family="Liberation Sans, sans-serif" font-size="282px" font-weight="400"><tspan class="TextPosition" x="15782" y="23210"><tspan fill="rgb(0,0,0)" stroke="none">07.08</tspan></tspan></tspan></text>
 <text class="TextShape" transform="rotate(-90 16460 23210)"><tspan class="TextParagraph" font-family="Liberation Sans, sans-serif" font-size="282px" font-weight="400"><tspan class="TextPosition" x="16460" y="23210"><tspan fill="rgb(0,0,0)" stroke="none">14.08</tspan></tspan></tspan></text>
 <text class="TextShape" transform="rotate(-90 17137 23210)"><tspan class="TextParagraph" font-family="Liberation Sans, sans-serif" font-size="282px" font-weight="400"><tspan class="TextPosition" x="17137" y="23210"><tspan fill="rgb(0,0,0)" stroke="none">21.08</tspan></tspan></tspan></text>
 <text class="TextShape" transform="rotate(-90 17815 23210)"><tspan class="TextParagraph" font-family="Liberation Sans, sans-serif" font-size="282px" font-weight="400"><tspan class="TextPosition" x="17815" y="23210"><tspan fill="rgb(0,0,0)" stroke="none">28.08</tspan></tspan></tspan></text>
 <text class="TextShape" transform="rotate(-90 18493 23210)"><tspan class="TextParagraph" font-family="Liberation Sans, sans-serif" font-size="282px" font-weight="400"><tspan class="TextPosition" x="18493" y="23210"><tspan fill="rgb(0,0,0)" stroke="none">04.09</tspan></tspan></tspan></text>
 <text class="TextShape"><tspan class="TextParagraph" font-family="Liberation Sans, sans-serif" font-size="388px" font-weight="400"><tspan class="TextPosition" x="940" y="22372"><tspan fill="rgb(0,0,0)" stroke="none">0</tspan></tspan></tspan></text>
 <text class="TextShape"><tspan class="TextParagraph" font-family="Liberation Sans, sans-serif" font-size="388px" font-weight="400"><tspan class="TextPosition" x="495" y="17219"><tspan fill="rgb(0,0,0)" stroke="none">500</tspan></tspan></tspan></text>
 <text class="TextShape"><tspan class="TextParagraph" font-family="Liberation Sans, sans-serif" font-size="388px" font-weight="400"><tspan class="TextPosition" x="273" y="12066"><tspan fill="rgb(0,0,0)" stroke="none">1000</tspan></tspan></tspan></text>
 <text class="TextShape"><tspan class="TextParagraph" font-family="Liberation Sans, sans-serif" font-size="388px" font-weight="400"><tspan class="TextPosition" x="273" y="6913"><tspan fill="rgb(0,0,0)" stroke="none">1500</tspan></tspan></tspan></text>
 <text class="TextShape"><tspan class="TextParagraph" font-family="Liberation Sans, sans-serif" font-size="388px" font-weight="400"><tspan class="TextPosition" x="273" y="1761"><tspan fill="rgb(0,0,0)" stroke="none">2000</tspan></tspan></tspan></text>
 <text class="TextShape"><tspan class="TextParagraph" font-family="Liberation Sans, sans-serif" font-size="494px" font-weight="700"><tspan class="TextPosition" x="903" y="984"><tspan fill="rgb(0,0,0)" stroke="none">Poet aktivnch ppad na milin obyvatel (mtko do 2000 na milin obyvatel)</tspan></tspan></tspan></text>
 <path fill="none" stroke="rgb(141,40,30)" stroke-width="80" stroke-linejoin="round" stroke-dasharray="80,40" d="M 18829,2506 L 20429,2506"/>
 <path fill="none" stroke="rgb(255,64,0)" stroke-width="80" stroke-linejoin="round" stroke-dasharray="80,40" d="M 18829,3707 L 20429,3707"/>
 <path fill="none" stroke="rgb(0,223,255)" stroke-width="80" stroke-linejoin="round" stroke-dasharray="158,102" d="M 18829,4908 L 20429,4908"/>
 <path fill="none" stroke="rgb(21,132,102)" stroke-width="80" stroke-linejoin="round" stroke-dasharray="80,203,80,203,203,203" d="M 18829,6109 L 20429,6109"/>
 <path fill="none" stroke="rgb(191,0,65)" stroke-width="80" stroke-linejoin="round" stroke-dasharray="51,127,51,127,254,127,254,127,254,127" d="M 18829,7310 L 20429,7310"/>
 <path fill="none" stroke="rgb(255,211,32)" stroke-width="80" stroke-linejoin="round" d="M 18829,8511 L 20429,8511"/>
 <path fill="none" stroke="rgb(128,0,128)" stroke-width="80" stroke-linejoin="round" stroke-dasharray="158,158" d="M 18829,9712 L 20429,9712"/>
 <path fill="none" stroke="rgb(0,255,0)" stroke-width="80" stroke-linejoin="round" d="M 18829,10913 L 20429,10913"/>
 <path fill="none" stroke="rgb(131,202,255)" stroke-width="80" stroke-linejoin="round" d="M 18829,12113 L 20429,12113"/>
 <path fill="none" stroke="rgb(0,169,51)" stroke-width="80" stroke-linejoin="round" d="M 18829,13314 L 20429,13314"/>
 <path fill="none" stroke="rgb(0,169,51)" stroke-width="80" stroke-linejoin="round" stroke-dasharray="158,102" d="M 18829,14515 L 20429,14515"/>
 <path fill="none" stroke="rgb(0,169,51)" stroke-width="80" stroke-linejoin="round" stroke-dasharray="80,40" d="M 18829,15716 L 20429,15716"/>
 <path fill="none" stroke="rgb(255,0,0)" stroke-width="80" stroke-linejoin="round" stroke-dasharray="158,102" d="M 18829,16917 L 20429,16917"/>
 <path fill="none" stroke="rgb(180,120,4)" stroke-width="80" stroke-linejoin="round" d="M 18829,18118 L 20429,18118"/>
 <path fill="none" stroke="rgb(0,0,0)" stroke-width="80" stroke-linejoin="round" d="M 18829,19319 L 20429,19319"/>
 <path fill="none" stroke="rgb(85,48,141)" stroke-width="80" stroke-linejoin="round" stroke-dasharray="80,40" d="M 18829,20520 L 20429,20520"/>
 <path fill="none" stroke="rgb(0,0,255)" stroke-width="80" stroke-linejoin="round" stroke-dasharray="158,158" d="M 18829,21721 L 20429,21721"/>
 <text class="TextShape"><tspan class="TextParagraph" font-family="Liberation Sans, sans-serif" font-size="423px" font-weight="400"><tspan class="TextPosition" x="20529" y="2654"><tspan fill="rgb(0,0,0)" stroke="none">USA</tspan></tspan></tspan></text>
 <text class="TextShape"><tspan class="TextParagraph" font-family="Liberation Sans, sans-serif" font-size="423px" font-weight="400"><tspan class="TextPosition" x="20529" y="3855"><tspan fill="rgb(0,0,0)" stroke="none">Brazlie</tspan></tspan></tspan></text>
 <text class="TextShape"><tspan class="TextParagraph" font-family="Liberation Sans, sans-serif" font-size="423px" font-weight="400"><tspan class="TextPosition" x="20529" y="5056"><tspan fill="rgb(0,0,0)" stroke="none">Rusko</tspan></tspan></tspan></text>
 <text class="TextShape"><tspan class="TextParagraph" font-family="Liberation Sans, sans-serif" font-size="423px" font-weight="400"><tspan class="TextPosition" x="20529" y="6257"><tspan fill="rgb(0,0,0)" stroke="none">celosvtov</tspan></tspan></tspan></text>
 <text class="TextShape"><tspan class="TextParagraph" font-family="Liberation Sans, sans-serif" font-size="423px" font-weight="400"><tspan class="TextPosition" x="20529" y="7458"><tspan fill="rgb(0,0,0)" stroke="none">EU_nov zem</tspan></tspan></tspan></text>
 <text class="TextShape"><tspan class="TextParagraph" font-family="Liberation Sans, sans-serif" font-size="423px" font-weight="400"><tspan class="TextPosition" x="20529" y="8659"><tspan fill="rgb(0,0,0)" stroke="none">esko</tspan></tspan></tspan></text>
 <text class="TextShape"><tspan class="TextParagraph" font-family="Liberation Sans, sans-serif" font-size="423px" font-weight="400"><tspan class="TextPosition" x="20529" y="9860"><tspan fill="rgb(0,0,0)" stroke="none">Indie</tspan></tspan></tspan></text>
 <text class="TextShape"><tspan class="TextParagraph" font-family="Liberation Sans, sans-serif" font-size="423px" font-weight="400"><tspan class="TextPosition" x="20529" y="11061"><tspan fill="rgb(0,0,0)" stroke="none">vcarsko</tspan></tspan></tspan></text>
 <text class="TextShape"><tspan class="TextParagraph" font-family="Liberation Sans, sans-serif" font-size="423px" font-weight="400"><tspan class="TextPosition" x="20529" y="12261"><tspan fill="rgb(0,0,0)" stroke="none">Itlie</tspan></tspan></tspan></text>
 <text class="TextShape"><tspan class="TextParagraph" font-family="Liberation Sans, sans-serif" font-size="423px" font-weight="400"><tspan class="TextPosition" x="20529" y="13462"><tspan fill="rgb(0,0,0)" stroke="none">Rakousko</tspan></tspan></tspan></text>
 <text class="TextShape"><tspan class="TextParagraph" font-family="Liberation Sans, sans-serif" font-size="423px" font-weight="400"><tspan class="TextPosition" x="20529" y="14663"><tspan fill="rgb(0,0,0)" stroke="none">rn</tspan></tspan></tspan></text>
 <text class="TextShape"><tspan class="TextParagraph" font-family="Liberation Sans, sans-serif" font-size="423px" font-weight="400"><tspan class="TextPosition" x="20529" y="15864"><tspan fill="rgb(0,0,0)" stroke="none">Mexiko</tspan></tspan></tspan></text>
 <text class="TextShape"><tspan class="TextParagraph" font-family="Liberation Sans, sans-serif" font-size="423px" font-weight="400"><tspan class="TextPosition" x="20529" y="17065"><tspan fill="rgb(0,0,0)" stroke="none">Turecko</tspan></tspan></tspan></text>
 <text class="TextShape"><tspan class="TextParagraph" font-family="Liberation Sans, sans-serif" font-size="423px" font-weight="400"><tspan class="TextPosition" x="20529" y="18266"><tspan fill="rgb(0,0,0)" stroke="none">Dnsko</tspan></tspan></tspan></text>
 <text class="TextShape"><tspan class="TextParagraph" font-family="Liberation Sans, sans-serif" font-size="423px" font-weight="400"><tspan class="TextPosition" x="20529" y="19467"><tspan fill="rgb(0,0,0)" stroke="none">Nmecko</tspan></tspan></tspan></text>
 <text class="TextShape"><tspan class="TextParagraph" font-family="Liberation Sans, sans-serif" font-size="423px" font-weight="400"><tspan class="TextPosition" x="20529" y="20668"><tspan fill="rgb(0,0,0)" stroke="none">Kanada</tspan></tspan></tspan></text>
 <text class="TextShape"><tspan class="TextParagraph" font-family="Liberation Sans, sans-serif" font-size="423px" font-weight="400"><tspan class="TextPosition" x="20529" y="21869"><tspan fill="rgb(0,0,0)" stroke="none">Jin Korea</tspan></tspan></tspan></text>
</svg>