<?xml version="1.0" encoding="UTF-8"?>
<!DOCTYPE svg PUBLIC "-//W3C//DTD SVG 1.1//EN" "http://www.w3.org/Graphics/SVG/1.1/DTD/svg11.dtd">
<svg width="236mm" height="238mm" viewBox="0 0 23600 23800" version="1.1" xmlns="http://www.w3.org/2000/svg" xmlns:xlink="http://www.w3.org/1999/xlink" stroke-width="28.222" stroke-linejoin="round" xml:space="preserve">
 <path fill="rgb(255,255,255)" stroke="none" d="M 11815,23813 L 14,23813 14,0 23615,0 23615,23813 11815,23813 Z"/>
 <path fill="none" stroke="rgb(179,179,179)" stroke-linejoin="round" d="M 10041,22240 L 1427,22240 1427,1630 18655,1630 18655,22240 10041,22240 Z"/>
 <path fill="none" stroke="rgb(179,179,179)" stroke-linejoin="round" d="M 18655,22239 L 1427,22239"/>
 <path fill="none" stroke="rgb(179,179,179)" stroke-linejoin="round" d="M 18655,17086 L 1427,17086"/>
 <path fill="none" stroke="rgb(179,179,179)" stroke-linejoin="round" d="M 18655,11933 L 1427,11933"/>
 <path fill="none" stroke="rgb(179,179,179)" stroke-linejoin="round" d="M 18655,6781 L 1427,6781"/>
 <path fill="none" stroke="rgb(179,179,179)" stroke-linejoin="round" d="M 18655,1629 L 1427,1629"/>
 <path fill="none" stroke="rgb(221,221,221)" stroke-linejoin="round" stroke-dasharray="53,34" d="M 18655,21208 L 1427,21208"/>
 <path fill="none" stroke="rgb(221,221,221)" stroke-linejoin="round" stroke-dasharray="53,34" d="M 18655,20177 L 1427,20177"/>
 <path fill="none" stroke="rgb(221,221,221)" stroke-linejoin="round" stroke-dasharray="53,34" d="M 18655,19147 L 1427,19147"/>
 <path fill="none" stroke="rgb(221,221,221)" stroke-linejoin="round" stroke-dasharray="53,34" d="M 18655,18116 L 1427,18116"/>
 <path fill="none" stroke="rgb(221,221,221)" stroke-linejoin="round" stroke-dasharray="53,34" d="M 18655,16055 L 1427,16055"/>
 <path fill="none" stroke="rgb(221,221,221)" stroke-linejoin="round" stroke-dasharray="53,34" d="M 18655,15025 L 1427,15025"/>
 <path fill="none" stroke="rgb(221,221,221)" stroke-linejoin="round" stroke-dasharray="53,34" d="M 18655,13994 L 1427,13994"/>
 <path fill="none" stroke="rgb(221,221,221)" stroke-linejoin="round" stroke-dasharray="53,34" d="M 18655,12964 L 1427,12964"/>
 <path fill="none" stroke="rgb(221,221,221)" stroke-linejoin="round" stroke-dasharray="53,34" d="M 18655,10903 L 1427,10903"/>
 <path fill="none" stroke="rgb(221,221,221)" stroke-linejoin="round" stroke-dasharray="53,34" d="M 18655,9873 L 1427,9873"/>
 <path fill="none" stroke="rgb(221,221,221)" stroke-linejoin="round" stroke-dasharray="53,34" d="M 18655,8842 L 1427,8842"/>
 <path fill="none" stroke="rgb(221,221,221)" stroke-linejoin="round" stroke-dasharray="53,34" d="M 18655,7812 L 1427,7812"/>
 <path fill="none" stroke="rgb(221,221,221)" stroke-linejoin="round" stroke-dasharray="53,34" d="M 18655,5751 L 1427,5751"/>
 <path fill="none" stroke="rgb(221,221,221)" stroke-linejoin="round" stroke-dasharray="53,34" d="M 18655,4720 L 1427,4720"/>
 <path fill="none" stroke="rgb(221,221,221)" stroke-linejoin="round" stroke-dasharray="53,34" d="M 18655,3690 L 1427,3690"/>
 <path fill="none" stroke="rgb(221,221,221)" stroke-linejoin="round" stroke-dasharray="53,34" d="M 18655,2659 L 1427,2659"/>
 <path fill="none" stroke="rgb(179,179,179)" stroke-linejoin="round" d="M 1427,22389 L 1427,22089"/>
 <path fill="none" stroke="rgb(179,179,179)" stroke-linejoin="round" d="M 1427,22389 L 1427,22089"/>
 <path fill="none" stroke="rgb(179,179,179)" stroke-linejoin="round" d="M 2089,22389 L 2089,22089"/>
 <path fill="none" stroke="rgb(179,179,179)" stroke-linejoin="round" d="M 2089,22389 L 2089,22089"/>
 <path fill="none" stroke="rgb(179,179,179)" stroke-linejoin="round" d="M 2752,22389 L 2752,22089"/>
 <path fill="none" stroke="rgb(179,179,179)" stroke-linejoin="round" d="M 2752,22389 L 2752,22089"/>
 <path fill="none" stroke="rgb(179,179,179)" stroke-linejoin="round" d="M 3414,22389 L 3414,22089"/>
 <path fill="none" stroke="rgb(179,179,179)" stroke-linejoin="round" d="M 3414,22389 L 3414,22089"/>
 <path fill="none" stroke="rgb(179,179,179)" stroke-linejoin="round" d="M 4077,22389 L 4077,22089"/>
 <path fill="none" stroke="rgb(179,179,179)" stroke-linejoin="round" d="M 4077,22389 L 4077,22089"/>
 <path fill="none" stroke="rgb(179,179,179)" stroke-linejoin="round" d="M 4740,22389 L 4740,22089"/>
 <path fill="none" stroke="rgb(179,179,179)" stroke-linejoin="round" d="M 4740,22389 L 4740,22089"/>
 <path fill="none" stroke="rgb(179,179,179)" stroke-linejoin="round" d="M 5402,22389 L 5402,22089"/>
 <path fill="none" stroke="rgb(179,179,179)" stroke-linejoin="round" d="M 5402,22389 L 5402,22089"/>
 <path fill="none" stroke="rgb(179,179,179)" stroke-linejoin="round" d="M 6065,22389 L 6065,22089"/>
 <path fill="none" stroke="rgb(179,179,179)" stroke-linejoin="round" d="M 6065,22389 L 6065,22089"/>
 <path fill="none" stroke="rgb(179,179,179)" stroke-linejoin="round" d="M 6728,22389 L 6728,22089"/>
 <path fill="none" stroke="rgb(179,179,179)" stroke-linejoin="round" d="M 6728,22389 L 6728,22089"/>
 <path fill="none" stroke="rgb(179,179,179)" stroke-linejoin="round" d="M 7390,22389 L 7390,22089"/>
 <path fill="none" stroke="rgb(179,179,179)" stroke-linejoin="round" d="M 7390,22389 L 7390,22089"/>
 <path fill="none" stroke="rgb(179,179,179)" stroke-linejoin="round" d="M 8053,22389 L 8053,22089"/>
 <path fill="none" stroke="rgb(179,179,179)" stroke-linejoin="round" d="M 8053,22389 L 8053,22089"/>
 <path fill="none" stroke="rgb(179,179,179)" stroke-linejoin="round" d="M 8716,22389 L 8716,22089"/>
 <path fill="none" stroke="rgb(179,179,179)" stroke-linejoin="round" d="M 8716,22389 L 8716,22089"/>
 <path fill="none" stroke="rgb(179,179,179)" stroke-linejoin="round" d="M 9378,22389 L 9378,22089"/>
 <path fill="none" stroke="rgb(179,179,179)" stroke-linejoin="round" d="M 9378,22389 L 9378,22089"/>
 <path fill="none" stroke="rgb(179,179,179)" stroke-linejoin="round" d="M 10041,22389 L 10041,22089"/>
 <path fill="none" stroke="rgb(179,179,179)" stroke-linejoin="round" d="M 10041,22389 L 10041,22089"/>
 <path fill="none" stroke="rgb(179,179,179)" stroke-linejoin="round" d="M 10704,22389 L 10704,22089"/>
 <path fill="none" stroke="rgb(179,179,179)" stroke-linejoin="round" d="M 10704,22389 L 10704,22089"/>
 <path fill="none" stroke="rgb(179,179,179)" stroke-linejoin="round" d="M 11366,22389 L 11366,22089"/>
 <path fill="none" stroke="rgb(179,179,179)" stroke-linejoin="round" d="M 11366,22389 L 11366,22089"/>
 <path fill="none" stroke="rgb(179,179,179)" stroke-linejoin="round" d="M 12028,22389 L 12028,22089"/>
 <path fill="none" stroke="rgb(179,179,179)" stroke-linejoin="round" d="M 12028,22389 L 12028,22089"/>
 <path fill="none" stroke="rgb(179,179,179)" stroke-linejoin="round" d="M 12691,22389 L 12691,22089"/>
 <path fill="none" stroke="rgb(179,179,179)" stroke-linejoin="round" d="M 12691,22389 L 12691,22089"/>
 <path fill="none" stroke="rgb(179,179,179)" stroke-linejoin="round" d="M 13353,22389 L 13353,22089"/>
 <path fill="none" stroke="rgb(179,179,179)" stroke-linejoin="round" d="M 13353,22389 L 13353,22089"/>
 <path fill="none" stroke="rgb(179,179,179)" stroke-linejoin="round" d="M 14016,22389 L 14016,22089"/>
 <path fill="none" stroke="rgb(179,179,179)" stroke-linejoin="round" d="M 14016,22389 L 14016,22089"/>
 <path fill="none" stroke="rgb(179,179,179)" stroke-linejoin="round" d="M 14679,22389 L 14679,22089"/>
 <path fill="none" stroke="rgb(179,179,179)" stroke-linejoin="round" d="M 14679,22389 L 14679,22089"/>
 <path fill="none" stroke="rgb(179,179,179)" stroke-linejoin="round" d="M 15341,22389 L 15341,22089"/>
 <path fill="none" stroke="rgb(179,179,179)" stroke-linejoin="round" d="M 15341,22389 L 15341,22089"/>
 <path fill="none" stroke="rgb(179,179,179)" stroke-linejoin="round" d="M 16004,22389 L 16004,22089"/>
 <path fill="none" stroke="rgb(179,179,179)" stroke-linejoin="round" d="M 16004,22389 L 16004,22089"/>
 <path fill="none" stroke="rgb(179,179,179)" stroke-linejoin="round" d="M 16667,22389 L 16667,22089"/>
 <path fill="none" stroke="rgb(179,179,179)" stroke-linejoin="round" d="M 16667,22389 L 16667,22089"/>
 <path fill="none" stroke="rgb(179,179,179)" stroke-linejoin="round" d="M 17329,22389 L 17329,22089"/>
 <path fill="none" stroke="rgb(179,179,179)" stroke-linejoin="round" d="M 17329,22389 L 17329,22089"/>
 <path fill="none" stroke="rgb(179,179,179)" stroke-linejoin="round" d="M 17992,22389 L 17992,22089"/>
 <path fill="none" stroke="rgb(179,179,179)" stroke-linejoin="round" d="M 17992,22389 L 17992,22089"/>
 <path fill="none" stroke="rgb(179,179,179)" stroke-linejoin="round" d="M 18655,22389 L 18655,22089"/>
 <path fill="none" stroke="rgb(179,179,179)" stroke-linejoin="round" d="M 18655,22389 L 18655,22089"/>
 <path fill="none" stroke="rgb(179,179,179)" stroke-linejoin="round" d="M 1427,22351 L 1427,22239"/>
 <path fill="none" stroke="rgb(179,179,179)" stroke-linejoin="round" d="M 1427,22351 L 1427,22239"/>
 <path fill="none" stroke="rgb(179,179,179)" stroke-linejoin="round" d="M 1521,22351 L 1521,22239"/>
 <path fill="none" stroke="rgb(179,179,179)" stroke-linejoin="round" d="M 1521,22351 L 1521,22239"/>
 <path fill="none" stroke="rgb(179,179,179)" stroke-linejoin="round" d="M 1616,22351 L 1616,22239"/>
 <path fill="none" stroke="rgb(179,179,179)" stroke-linejoin="round" d="M 1616,22351 L 1616,22239"/>
 <path fill="none" stroke="rgb(179,179,179)" stroke-linejoin="round" d="M 1710,22351 L 1710,22239"/>
 <path fill="none" stroke="rgb(179,179,179)" stroke-linejoin="round" d="M 1710,22351 L 1710,22239"/>
 <path fill="none" stroke="rgb(179,179,179)" stroke-linejoin="round" d="M 1805,22351 L 1805,22239"/>
 <path fill="none" stroke="rgb(179,179,179)" stroke-linejoin="round" d="M 1805,22351 L 1805,22239"/>
 <path fill="none" stroke="rgb(179,179,179)" stroke-linejoin="round" d="M 1900,22351 L 1900,22239"/>
 <path fill="none" stroke="rgb(179,179,179)" stroke-linejoin="round" d="M 1900,22351 L 1900,22239"/>
 <path fill="none" stroke="rgb(179,179,179)" stroke-linejoin="round" d="M 1994,22351 L 1994,22239"/>
 <path fill="none" stroke="rgb(179,179,179)" stroke-linejoin="round" d="M 1994,22351 L 1994,22239"/>
 <path fill="none" stroke="rgb(179,179,179)" stroke-linejoin="round" d="M 2089,22351 L 2089,22239"/>
 <path fill="none" stroke="rgb(179,179,179)" stroke-linejoin="round" d="M 2089,22351 L 2089,22239"/>
 <path fill="none" stroke="rgb(179,179,179)" stroke-linejoin="round" d="M 2184,22351 L 2184,22239"/>
 <path fill="none" stroke="rgb(179,179,179)" stroke-linejoin="round" d="M 2184,22351 L 2184,22239"/>
 <path fill="none" stroke="rgb(179,179,179)" stroke-linejoin="round" d="M 2278,22351 L 2278,22239"/>
 <path fill="none" stroke="rgb(179,179,179)" stroke-linejoin="round" d="M 2278,22351 L 2278,22239"/>
 <path fill="none" stroke="rgb(179,179,179)" stroke-linejoin="round" d="M 2373,22351 L 2373,22239"/>
 <path fill="none" stroke="rgb(179,179,179)" stroke-linejoin="round" d="M 2373,22351 L 2373,22239"/>
 <path fill="none" stroke="rgb(179,179,179)" stroke-linejoin="round" d="M 2468,22351 L 2468,22239"/>
 <path fill="none" stroke="rgb(179,179,179)" stroke-linejoin="round" d="M 2468,22351 L 2468,22239"/>
 <path fill="none" stroke="rgb(179,179,179)" stroke-linejoin="round" d="M 2562,22351 L 2562,22239"/>
 <path fill="none" stroke="rgb(179,179,179)" stroke-linejoin="round" d="M 2562,22351 L 2562,22239"/>
 <path fill="none" stroke="rgb(179,179,179)" stroke-linejoin="round" d="M 2657,22351 L 2657,22239"/>
 <path fill="none" stroke="rgb(179,179,179)" stroke-linejoin="round" d="M 2657,22351 L 2657,22239"/>
 <path fill="none" stroke="rgb(179,179,179)" stroke-linejoin="round" d="M 2752,22351 L 2752,22239"/>
 <path fill="none" stroke="rgb(179,179,179)" stroke-linejoin="round" d="M 2752,22351 L 2752,22239"/>
 <path fill="none" stroke="rgb(179,179,179)" stroke-linejoin="round" d="M 2846,22351 L 2846,22239"/>
 <path fill="none" stroke="rgb(179,179,179)" stroke-linejoin="round" d="M 2846,22351 L 2846,22239"/>
 <path fill="none" stroke="rgb(179,179,179)" stroke-linejoin="round" d="M 2941,22351 L 2941,22239"/>
 <path fill="none" stroke="rgb(179,179,179)" stroke-linejoin="round" d="M 2941,22351 L 2941,22239"/>
 <path fill="none" stroke="rgb(179,179,179)" stroke-linejoin="round" d="M 3036,22351 L 3036,22239"/>
 <path fill="none" stroke="rgb(179,179,179)" stroke-linejoin="round" d="M 3036,22351 L 3036,22239"/>
 <path fill="none" stroke="rgb(179,179,179)" stroke-linejoin="round" d="M 3130,22351 L 3130,22239"/>
 <path fill="none" stroke="rgb(179,179,179)" stroke-linejoin="round" d="M 3130,22351 L 3130,22239"/>
 <path fill="none" stroke="rgb(179,179,179)" stroke-linejoin="round" d="M 3225,22351 L 3225,22239"/>
 <path fill="none" stroke="rgb(179,179,179)" stroke-linejoin="round" d="M 3225,22351 L 3225,22239"/>
 <path fill="none" stroke="rgb(179,179,179)" stroke-linejoin="round" d="M 3320,22351 L 3320,22239"/>
 <path fill="none" stroke="rgb(179,179,179)" stroke-linejoin="round" d="M 3320,22351 L 3320,22239"/>
 <path fill="none" stroke="rgb(179,179,179)" stroke-linejoin="round" d="M 3414,22351 L 3414,22239"/>
 <path fill="none" stroke="rgb(179,179,179)" stroke-linejoin="round" d="M 3414,22351 L 3414,22239"/>
 <path fill="none" stroke="rgb(179,179,179)" stroke-linejoin="round" d="M 3509,22351 L 3509,22239"/>
 <path fill="none" stroke="rgb(179,179,179)" stroke-linejoin="round" d="M 3509,22351 L 3509,22239"/>
 <path fill="none" stroke="rgb(179,179,179)" stroke-linejoin="round" d="M 3604,22351 L 3604,22239"/>
 <path fill="none" stroke="rgb(179,179,179)" stroke-linejoin="round" d="M 3604,22351 L 3604,22239"/>
 <path fill="none" stroke="rgb(179,179,179)" stroke-linejoin="round" d="M 3698,22351 L 3698,22239"/>
 <path fill="none" stroke="rgb(179,179,179)" stroke-linejoin="round" d="M 3698,22351 L 3698,22239"/>
 <path fill="none" stroke="rgb(179,179,179)" stroke-linejoin="round" d="M 3793,22351 L 3793,22239"/>
 <path fill="none" stroke="rgb(179,179,179)" stroke-linejoin="round" d="M 3793,22351 L 3793,22239"/>
 <path fill="none" stroke="rgb(179,179,179)" stroke-linejoin="round" d="M 3888,22351 L 3888,22239"/>
 <path fill="none" stroke="rgb(179,179,179)" stroke-linejoin="round" d="M 3888,22351 L 3888,22239"/>
 <path fill="none" stroke="rgb(179,179,179)" stroke-linejoin="round" d="M 3982,22351 L 3982,22239"/>
 <path fill="none" stroke="rgb(179,179,179)" stroke-linejoin="round" d="M 3982,22351 L 3982,22239"/>
 <path fill="none" stroke="rgb(179,179,179)" stroke-linejoin="round" d="M 4077,22351 L 4077,22239"/>
 <path fill="none" stroke="rgb(179,179,179)" stroke-linejoin="round" d="M 4077,22351 L 4077,22239"/>
 <path fill="none" stroke="rgb(179,179,179)" stroke-linejoin="round" d="M 4172,22351 L 4172,22239"/>
 <path fill="none" stroke="rgb(179,179,179)" stroke-linejoin="round" d="M 4172,22351 L 4172,22239"/>
 <path fill="none" stroke="rgb(179,179,179)" stroke-linejoin="round" d="M 4266,22351 L 4266,22239"/>
 <path fill="none" stroke="rgb(179,179,179)" stroke-linejoin="round" d="M 4266,22351 L 4266,22239"/>
 <path fill="none" stroke="rgb(179,179,179)" stroke-linejoin="round" d="M 4361,22351 L 4361,22239"/>
 <path fill="none" stroke="rgb(179,179,179)" stroke-linejoin="round" d="M 4361,22351 L 4361,22239"/>
 <path fill="none" stroke="rgb(179,179,179)" stroke-linejoin="round" d="M 4456,22351 L 4456,22239"/>
 <path fill="none" stroke="rgb(179,179,179)" stroke-linejoin="round" d="M 4456,22351 L 4456,22239"/>
 <path fill="none" stroke="rgb(179,179,179)" stroke-linejoin="round" d="M 4550,22351 L 4550,22239"/>
 <path fill="none" stroke="rgb(179,179,179)" stroke-linejoin="round" d="M 4550,22351 L 4550,22239"/>
 <path fill="none" stroke="rgb(179,179,179)" stroke-linejoin="round" d="M 4645,22351 L 4645,22239"/>
 <path fill="none" stroke="rgb(179,179,179)" stroke-linejoin="round" d="M 4645,22351 L 4645,22239"/>
 <path fill="none" stroke="rgb(179,179,179)" stroke-linejoin="round" d="M 4740,22351 L 4740,22239"/>
 <path fill="none" stroke="rgb(179,179,179)" stroke-linejoin="round" d="M 4740,22351 L 4740,22239"/>
 <path fill="none" stroke="rgb(179,179,179)" stroke-linejoin="round" d="M 4834,22351 L 4834,22239"/>
 <path fill="none" stroke="rgb(179,179,179)" stroke-linejoin="round" d="M 4834,22351 L 4834,22239"/>
 <path fill="none" stroke="rgb(179,179,179)" stroke-linejoin="round" d="M 4929,22351 L 4929,22239"/>
 <path fill="none" stroke="rgb(179,179,179)" stroke-linejoin="round" d="M 4929,22351 L 4929,22239"/>
 <path fill="none" stroke="rgb(179,179,179)" stroke-linejoin="round" d="M 5024,22351 L 5024,22239"/>
 <path fill="none" stroke="rgb(179,179,179)" stroke-linejoin="round" d="M 5024,22351 L 5024,22239"/>
 <path fill="none" stroke="rgb(179,179,179)" stroke-linejoin="round" d="M 5118,22351 L 5118,22239"/>
 <path fill="none" stroke="rgb(179,179,179)" stroke-linejoin="round" d="M 5118,22351 L 5118,22239"/>
 <path fill="none" stroke="rgb(179,179,179)" stroke-linejoin="round" d="M 5213,22351 L 5213,22239"/>
 <path fill="none" stroke="rgb(179,179,179)" stroke-linejoin="round" d="M 5213,22351 L 5213,22239"/>
 <path fill="none" stroke="rgb(179,179,179)" stroke-linejoin="round" d="M 5308,22351 L 5308,22239"/>
 <path fill="none" stroke="rgb(179,179,179)" stroke-linejoin="round" d="M 5308,22351 L 5308,22239"/>
 <path fill="none" stroke="rgb(179,179,179)" stroke-linejoin="round" d="M 5402,22351 L 5402,22239"/>
 <path fill="none" stroke="rgb(179,179,179)" stroke-linejoin="round" d="M 5402,22351 L 5402,22239"/>
 <path fill="none" stroke="rgb(179,179,179)" stroke-linejoin="round" d="M 5497,22351 L 5497,22239"/>
 <path fill="none" stroke="rgb(179,179,179)" stroke-linejoin="round" d="M 5497,22351 L 5497,22239"/>
 <path fill="none" stroke="rgb(179,179,179)" stroke-linejoin="round" d="M 5592,22351 L 5592,22239"/>
 <path fill="none" stroke="rgb(179,179,179)" stroke-linejoin="round" d="M 5592,22351 L 5592,22239"/>
 <path fill="none" stroke="rgb(179,179,179)" stroke-linejoin="round" d="M 5686,22351 L 5686,22239"/>
 <path fill="none" stroke="rgb(179,179,179)" stroke-linejoin="round" d="M 5686,22351 L 5686,22239"/>
 <path fill="none" stroke="rgb(179,179,179)" stroke-linejoin="round" d="M 5781,22351 L 5781,22239"/>
 <path fill="none" stroke="rgb(179,179,179)" stroke-linejoin="round" d="M 5781,22351 L 5781,22239"/>
 <path fill="none" stroke="rgb(179,179,179)" stroke-linejoin="round" d="M 5876,22351 L 5876,22239"/>
 <path fill="none" stroke="rgb(179,179,179)" stroke-linejoin="round" d="M 5876,22351 L 5876,22239"/>
 <path fill="none" stroke="rgb(179,179,179)" stroke-linejoin="round" d="M 5970,22351 L 5970,22239"/>
 <path fill="none" stroke="rgb(179,179,179)" stroke-linejoin="round" d="M 5970,22351 L 5970,22239"/>
 <path fill="none" stroke="rgb(179,179,179)" stroke-linejoin="round" d="M 6065,22351 L 6065,22239"/>
 <path fill="none" stroke="rgb(179,179,179)" stroke-linejoin="round" d="M 6065,22351 L 6065,22239"/>
 <path fill="none" stroke="rgb(179,179,179)" stroke-linejoin="round" d="M 6160,22351 L 6160,22239"/>
 <path fill="none" stroke="rgb(179,179,179)" stroke-linejoin="round" d="M 6160,22351 L 6160,22239"/>
 <path fill="none" stroke="rgb(179,179,179)" stroke-linejoin="round" d="M 6254,22351 L 6254,22239"/>
 <path fill="none" stroke="rgb(179,179,179)" stroke-linejoin="round" d="M 6254,22351 L 6254,22239"/>
 <path fill="none" stroke="rgb(179,179,179)" stroke-linejoin="round" d="M 6349,22351 L 6349,22239"/>
 <path fill="none" stroke="rgb(179,179,179)" stroke-linejoin="round" d="M 6349,22351 L 6349,22239"/>
 <path fill="none" stroke="rgb(179,179,179)" stroke-linejoin="round" d="M 6444,22351 L 6444,22239"/>
 <path fill="none" stroke="rgb(179,179,179)" stroke-linejoin="round" d="M 6444,22351 L 6444,22239"/>
 <path fill="none" stroke="rgb(179,179,179)" stroke-linejoin="round" d="M 6538,22351 L 6538,22239"/>
 <path fill="none" stroke="rgb(179,179,179)" stroke-linejoin="round" d="M 6538,22351 L 6538,22239"/>
 <path fill="none" stroke="rgb(179,179,179)" stroke-linejoin="round" d="M 6633,22351 L 6633,22239"/>
 <path fill="none" stroke="rgb(179,179,179)" stroke-linejoin="round" d="M 6633,22351 L 6633,22239"/>
 <path fill="none" stroke="rgb(179,179,179)" stroke-linejoin="round" d="M 6728,22351 L 6728,22239"/>
 <path fill="none" stroke="rgb(179,179,179)" stroke-linejoin="round" d="M 6728,22351 L 6728,22239"/>
 <path fill="none" stroke="rgb(179,179,179)" stroke-linejoin="round" d="M 6822,22351 L 6822,22239"/>
 <path fill="none" stroke="rgb(179,179,179)" stroke-linejoin="round" d="M 6822,22351 L 6822,22239"/>
 <path fill="none" stroke="rgb(179,179,179)" stroke-linejoin="round" d="M 6917,22351 L 6917,22239"/>
 <path fill="none" stroke="rgb(179,179,179)" stroke-linejoin="round" d="M 6917,22351 L 6917,22239"/>
 <path fill="none" stroke="rgb(179,179,179)" stroke-linejoin="round" d="M 7012,22351 L 7012,22239"/>
 <path fill="none" stroke="rgb(179,179,179)" stroke-linejoin="round" d="M 7012,22351 L 7012,22239"/>
 <path fill="none" stroke="rgb(179,179,179)" stroke-linejoin="round" d="M 7106,22351 L 7106,22239"/>
 <path fill="none" stroke="rgb(179,179,179)" stroke-linejoin="round" d="M 7106,22351 L 7106,22239"/>
 <path fill="none" stroke="rgb(179,179,179)" stroke-linejoin="round" d="M 7201,22351 L 7201,22239"/>
 <path fill="none" stroke="rgb(179,179,179)" stroke-linejoin="round" d="M 7201,22351 L 7201,22239"/>
 <path fill="none" stroke="rgb(179,179,179)" stroke-linejoin="round" d="M 7296,22351 L 7296,22239"/>
 <path fill="none" stroke="rgb(179,179,179)" stroke-linejoin="round" d="M 7296,22351 L 7296,22239"/>
 <path fill="none" stroke="rgb(179,179,179)" stroke-linejoin="round" d="M 7390,22351 L 7390,22239"/>
 <path fill="none" stroke="rgb(179,179,179)" stroke-linejoin="round" d="M 7390,22351 L 7390,22239"/>
 <path fill="none" stroke="rgb(179,179,179)" stroke-linejoin="round" d="M 7485,22351 L 7485,22239"/>
 <path fill="none" stroke="rgb(179,179,179)" stroke-linejoin="round" d="M 7485,22351 L 7485,22239"/>
 <path fill="none" stroke="rgb(179,179,179)" stroke-linejoin="round" d="M 7580,22351 L 7580,22239"/>
 <path fill="none" stroke="rgb(179,179,179)" stroke-linejoin="round" d="M 7580,22351 L 7580,22239"/>
 <path fill="none" stroke="rgb(179,179,179)" stroke-linejoin="round" d="M 7674,22351 L 7674,22239"/>
 <path fill="none" stroke="rgb(179,179,179)" stroke-linejoin="round" d="M 7674,22351 L 7674,22239"/>
 <path fill="none" stroke="rgb(179,179,179)" stroke-linejoin="round" d="M 7769,22351 L 7769,22239"/>
 <path fill="none" stroke="rgb(179,179,179)" stroke-linejoin="round" d="M 7769,22351 L 7769,22239"/>
 <path fill="none" stroke="rgb(179,179,179)" stroke-linejoin="round" d="M 7864,22351 L 7864,22239"/>
 <path fill="none" stroke="rgb(179,179,179)" stroke-linejoin="round" d="M 7864,22351 L 7864,22239"/>
 <path fill="none" stroke="rgb(179,179,179)" stroke-linejoin="round" d="M 7958,22351 L 7958,22239"/>
 <path fill="none" stroke="rgb(179,179,179)" stroke-linejoin="round" d="M 7958,22351 L 7958,22239"/>
 <path fill="none" stroke="rgb(179,179,179)" stroke-linejoin="round" d="M 8053,22351 L 8053,22239"/>
 <path fill="none" stroke="rgb(179,179,179)" stroke-linejoin="round" d="M 8053,22351 L 8053,22239"/>
 <path fill="none" stroke="rgb(179,179,179)" stroke-linejoin="round" d="M 8148,22351 L 8148,22239"/>
 <path fill="none" stroke="rgb(179,179,179)" stroke-linejoin="round" d="M 8148,22351 L 8148,22239"/>
 <path fill="none" stroke="rgb(179,179,179)" stroke-linejoin="round" d="M 8242,22351 L 8242,22239"/>
 <path fill="none" stroke="rgb(179,179,179)" stroke-linejoin="round" d="M 8242,22351 L 8242,22239"/>
 <path fill="none" stroke="rgb(179,179,179)" stroke-linejoin="round" d="M 8337,22351 L 8337,22239"/>
 <path fill="none" stroke="rgb(179,179,179)" stroke-linejoin="round" d="M 8337,22351 L 8337,22239"/>
 <path fill="none" stroke="rgb(179,179,179)" stroke-linejoin="round" d="M 8432,22351 L 8432,22239"/>
 <path fill="none" stroke="rgb(179,179,179)" stroke-linejoin="round" d="M 8432,22351 L 8432,22239"/>
 <path fill="none" stroke="rgb(179,179,179)" stroke-linejoin="round" d="M 8526,22351 L 8526,22239"/>
 <path fill="none" stroke="rgb(179,179,179)" stroke-linejoin="round" d="M 8526,22351 L 8526,22239"/>
 <path fill="none" stroke="rgb(179,179,179)" stroke-linejoin="round" d="M 8621,22351 L 8621,22239"/>
 <path fill="none" stroke="rgb(179,179,179)" stroke-linejoin="round" d="M 8621,22351 L 8621,22239"/>
 <path fill="none" stroke="rgb(179,179,179)" stroke-linejoin="round" d="M 8716,22351 L 8716,22239"/>
 <path fill="none" stroke="rgb(179,179,179)" stroke-linejoin="round" d="M 8716,22351 L 8716,22239"/>
 <path fill="none" stroke="rgb(179,179,179)" stroke-linejoin="round" d="M 8810,22351 L 8810,22239"/>
 <path fill="none" stroke="rgb(179,179,179)" stroke-linejoin="round" d="M 8810,22351 L 8810,22239"/>
 <path fill="none" stroke="rgb(179,179,179)" stroke-linejoin="round" d="M 8905,22351 L 8905,22239"/>
 <path fill="none" stroke="rgb(179,179,179)" stroke-linejoin="round" d="M 8905,22351 L 8905,22239"/>
 <path fill="none" stroke="rgb(179,179,179)" stroke-linejoin="round" d="M 9000,22351 L 9000,22239"/>
 <path fill="none" stroke="rgb(179,179,179)" stroke-linejoin="round" d="M 9000,22351 L 9000,22239"/>
 <path fill="none" stroke="rgb(179,179,179)" stroke-linejoin="round" d="M 9094,22351 L 9094,22239"/>
 <path fill="none" stroke="rgb(179,179,179)" stroke-linejoin="round" d="M 9094,22351 L 9094,22239"/>
 <path fill="none" stroke="rgb(179,179,179)" stroke-linejoin="round" d="M 9189,22351 L 9189,22239"/>
 <path fill="none" stroke="rgb(179,179,179)" stroke-linejoin="round" d="M 9189,22351 L 9189,22239"/>
 <path fill="none" stroke="rgb(179,179,179)" stroke-linejoin="round" d="M 9284,22351 L 9284,22239"/>
 <path fill="none" stroke="rgb(179,179,179)" stroke-linejoin="round" d="M 9284,22351 L 9284,22239"/>
 <path fill="none" stroke="rgb(179,179,179)" stroke-linejoin="round" d="M 9378,22351 L 9378,22239"/>
 <path fill="none" stroke="rgb(179,179,179)" stroke-linejoin="round" d="M 9378,22351 L 9378,22239"/>
 <path fill="none" stroke="rgb(179,179,179)" stroke-linejoin="round" d="M 9473,22351 L 9473,22239"/>
 <path fill="none" stroke="rgb(179,179,179)" stroke-linejoin="round" d="M 9473,22351 L 9473,22239"/>
 <path fill="none" stroke="rgb(179,179,179)" stroke-linejoin="round" d="M 9568,22351 L 9568,22239"/>
 <path fill="none" stroke="rgb(179,179,179)" stroke-linejoin="round" d="M 9568,22351 L 9568,22239"/>
 <path fill="none" stroke="rgb(179,179,179)" stroke-linejoin="round" d="M 9662,22351 L 9662,22239"/>
 <path fill="none" stroke="rgb(179,179,179)" stroke-linejoin="round" d="M 9662,22351 L 9662,22239"/>
 <path fill="none" stroke="rgb(179,179,179)" stroke-linejoin="round" d="M 9757,22351 L 9757,22239"/>
 <path fill="none" stroke="rgb(179,179,179)" stroke-linejoin="round" d="M 9757,22351 L 9757,22239"/>
 <path fill="none" stroke="rgb(179,179,179)" stroke-linejoin="round" d="M 9852,22351 L 9852,22239"/>
 <path fill="none" stroke="rgb(179,179,179)" stroke-linejoin="round" d="M 9852,22351 L 9852,22239"/>
 <path fill="none" stroke="rgb(179,179,179)" stroke-linejoin="round" d="M 9946,22351 L 9946,22239"/>
 <path fill="none" stroke="rgb(179,179,179)" stroke-linejoin="round" d="M 9946,22351 L 9946,22239"/>
 <path fill="none" stroke="rgb(179,179,179)" stroke-linejoin="round" d="M 10041,22351 L 10041,22239"/>
 <path fill="none" stroke="rgb(179,179,179)" stroke-linejoin="round" d="M 10041,22351 L 10041,22239"/>
 <path fill="none" stroke="rgb(179,179,179)" stroke-linejoin="round" d="M 10136,22351 L 10136,22239"/>
 <path fill="none" stroke="rgb(179,179,179)" stroke-linejoin="round" d="M 10136,22351 L 10136,22239"/>
 <path fill="none" stroke="rgb(179,179,179)" stroke-linejoin="round" d="M 10230,22351 L 10230,22239"/>
 <path fill="none" stroke="rgb(179,179,179)" stroke-linejoin="round" d="M 10230,22351 L 10230,22239"/>
 <path fill="none" stroke="rgb(179,179,179)" stroke-linejoin="round" d="M 10325,22351 L 10325,22239"/>
 <path fill="none" stroke="rgb(179,179,179)" stroke-linejoin="round" d="M 10325,22351 L 10325,22239"/>
 <path fill="none" stroke="rgb(179,179,179)" stroke-linejoin="round" d="M 10420,22351 L 10420,22239"/>
 <path fill="none" stroke="rgb(179,179,179)" stroke-linejoin="round" d="M 10420,22351 L 10420,22239"/>
 <path fill="none" stroke="rgb(179,179,179)" stroke-linejoin="round" d="M 10514,22351 L 10514,22239"/>
 <path fill="none" stroke="rgb(179,179,179)" stroke-linejoin="round" d="M 10514,22351 L 10514,22239"/>
 <path fill="none" stroke="rgb(179,179,179)" stroke-linejoin="round" d="M 10609,22351 L 10609,22239"/>
 <path fill="none" stroke="rgb(179,179,179)" stroke-linejoin="round" d="M 10609,22351 L 10609,22239"/>
 <path fill="none" stroke="rgb(179,179,179)" stroke-linejoin="round" d="M 10704,22351 L 10704,22239"/>
 <path fill="none" stroke="rgb(179,179,179)" stroke-linejoin="round" d="M 10704,22351 L 10704,22239"/>
 <path fill="none" stroke="rgb(179,179,179)" stroke-linejoin="round" d="M 10798,22351 L 10798,22239"/>
 <path fill="none" stroke="rgb(179,179,179)" stroke-linejoin="round" d="M 10798,22351 L 10798,22239"/>
 <path fill="none" stroke="rgb(179,179,179)" stroke-linejoin="round" d="M 10893,22351 L 10893,22239"/>
 <path fill="none" stroke="rgb(179,179,179)" stroke-linejoin="round" d="M 10893,22351 L 10893,22239"/>
 <path fill="none" stroke="rgb(179,179,179)" stroke-linejoin="round" d="M 10988,22351 L 10988,22239"/>
 <path fill="none" stroke="rgb(179,179,179)" stroke-linejoin="round" d="M 10988,22351 L 10988,22239"/>
 <path fill="none" stroke="rgb(179,179,179)" stroke-linejoin="round" d="M 11082,22351 L 11082,22239"/>
 <path fill="none" stroke="rgb(179,179,179)" stroke-linejoin="round" d="M 11082,22351 L 11082,22239"/>
 <path fill="none" stroke="rgb(179,179,179)" stroke-linejoin="round" d="M 11177,22351 L 11177,22239"/>
 <path fill="none" stroke="rgb(179,179,179)" stroke-linejoin="round" d="M 11177,22351 L 11177,22239"/>
 <path fill="none" stroke="rgb(179,179,179)" stroke-linejoin="round" d="M 11272,22351 L 11272,22239"/>
 <path fill="none" stroke="rgb(179,179,179)" stroke-linejoin="round" d="M 11272,22351 L 11272,22239"/>
 <path fill="none" stroke="rgb(179,179,179)" stroke-linejoin="round" d="M 11366,22351 L 11366,22239"/>
 <path fill="none" stroke="rgb(179,179,179)" stroke-linejoin="round" d="M 11366,22351 L 11366,22239"/>
 <path fill="none" stroke="rgb(179,179,179)" stroke-linejoin="round" d="M 11461,22351 L 11461,22239"/>
 <path fill="none" stroke="rgb(179,179,179)" stroke-linejoin="round" d="M 11461,22351 L 11461,22239"/>
 <path fill="none" stroke="rgb(179,179,179)" stroke-linejoin="round" d="M 11556,22351 L 11556,22239"/>
 <path fill="none" stroke="rgb(179,179,179)" stroke-linejoin="round" d="M 11556,22351 L 11556,22239"/>
 <path fill="none" stroke="rgb(179,179,179)" stroke-linejoin="round" d="M 11650,22351 L 11650,22239"/>
 <path fill="none" stroke="rgb(179,179,179)" stroke-linejoin="round" d="M 11650,22351 L 11650,22239"/>
 <path fill="none" stroke="rgb(179,179,179)" stroke-linejoin="round" d="M 11745,22351 L 11745,22239"/>
 <path fill="none" stroke="rgb(179,179,179)" stroke-linejoin="round" d="M 11745,22351 L 11745,22239"/>
 <path fill="none" stroke="rgb(179,179,179)" stroke-linejoin="round" d="M 11839,22351 L 11839,22239"/>
 <path fill="none" stroke="rgb(179,179,179)" stroke-linejoin="round" d="M 11839,22351 L 11839,22239"/>
 <path fill="none" stroke="rgb(179,179,179)" stroke-linejoin="round" d="M 11933,22351 L 11933,22239"/>
 <path fill="none" stroke="rgb(179,179,179)" stroke-linejoin="round" d="M 11933,22351 L 11933,22239"/>
 <path fill="none" stroke="rgb(179,179,179)" stroke-linejoin="round" d="M 12028,22351 L 12028,22239"/>
 <path fill="none" stroke="rgb(179,179,179)" stroke-linejoin="round" d="M 12028,22351 L 12028,22239"/>
 <path fill="none" stroke="rgb(179,179,179)" stroke-linejoin="round" d="M 12123,22351 L 12123,22239"/>
 <path fill="none" stroke="rgb(179,179,179)" stroke-linejoin="round" d="M 12123,22351 L 12123,22239"/>
 <path fill="none" stroke="rgb(179,179,179)" stroke-linejoin="round" d="M 12217,22351 L 12217,22239"/>
 <path fill="none" stroke="rgb(179,179,179)" stroke-linejoin="round" d="M 12217,22351 L 12217,22239"/>
 <path fill="none" stroke="rgb(179,179,179)" stroke-linejoin="round" d="M 12312,22351 L 12312,22239"/>
 <path fill="none" stroke="rgb(179,179,179)" stroke-linejoin="round" d="M 12312,22351 L 12312,22239"/>
 <path fill="none" stroke="rgb(179,179,179)" stroke-linejoin="round" d="M 12407,22351 L 12407,22239"/>
 <path fill="none" stroke="rgb(179,179,179)" stroke-linejoin="round" d="M 12407,22351 L 12407,22239"/>
 <path fill="none" stroke="rgb(179,179,179)" stroke-linejoin="round" d="M 12501,22351 L 12501,22239"/>
 <path fill="none" stroke="rgb(179,179,179)" stroke-linejoin="round" d="M 12501,22351 L 12501,22239"/>
 <path fill="none" stroke="rgb(179,179,179)" stroke-linejoin="round" d="M 12596,22351 L 12596,22239"/>
 <path fill="none" stroke="rgb(179,179,179)" stroke-linejoin="round" d="M 12596,22351 L 12596,22239"/>
 <path fill="none" stroke="rgb(179,179,179)" stroke-linejoin="round" d="M 12691,22351 L 12691,22239"/>
 <path fill="none" stroke="rgb(179,179,179)" stroke-linejoin="round" d="M 12691,22351 L 12691,22239"/>
 <path fill="none" stroke="rgb(179,179,179)" stroke-linejoin="round" d="M 12785,22351 L 12785,22239"/>
 <path fill="none" stroke="rgb(179,179,179)" stroke-linejoin="round" d="M 12785,22351 L 12785,22239"/>
 <path fill="none" stroke="rgb(179,179,179)" stroke-linejoin="round" d="M 12880,22351 L 12880,22239"/>
 <path fill="none" stroke="rgb(179,179,179)" stroke-linejoin="round" d="M 12880,22351 L 12880,22239"/>
 <path fill="none" stroke="rgb(179,179,179)" stroke-linejoin="round" d="M 12975,22351 L 12975,22239"/>
 <path fill="none" stroke="rgb(179,179,179)" stroke-linejoin="round" d="M 12975,22351 L 12975,22239"/>
 <path fill="none" stroke="rgb(179,179,179)" stroke-linejoin="round" d="M 13069,22351 L 13069,22239"/>
 <path fill="none" stroke="rgb(179,179,179)" stroke-linejoin="round" d="M 13069,22351 L 13069,22239"/>
 <path fill="none" stroke="rgb(179,179,179)" stroke-linejoin="round" d="M 13164,22351 L 13164,22239"/>
 <path fill="none" stroke="rgb(179,179,179)" stroke-linejoin="round" d="M 13164,22351 L 13164,22239"/>
 <path fill="none" stroke="rgb(179,179,179)" stroke-linejoin="round" d="M 13259,22351 L 13259,22239"/>
 <path fill="none" stroke="rgb(179,179,179)" stroke-linejoin="round" d="M 13259,22351 L 13259,22239"/>
 <path fill="none" stroke="rgb(179,179,179)" stroke-linejoin="round" d="M 13353,22351 L 13353,22239"/>
 <path fill="none" stroke="rgb(179,179,179)" stroke-linejoin="round" d="M 13353,22351 L 13353,22239"/>
 <path fill="none" stroke="rgb(179,179,179)" stroke-linejoin="round" d="M 13448,22351 L 13448,22239"/>
 <path fill="none" stroke="rgb(179,179,179)" stroke-linejoin="round" d="M 13448,22351 L 13448,22239"/>
 <path fill="none" stroke="rgb(179,179,179)" stroke-linejoin="round" d="M 13543,22351 L 13543,22239"/>
 <path fill="none" stroke="rgb(179,179,179)" stroke-linejoin="round" d="M 13543,22351 L 13543,22239"/>
 <path fill="none" stroke="rgb(179,179,179)" stroke-linejoin="round" d="M 13637,22351 L 13637,22239"/>
 <path fill="none" stroke="rgb(179,179,179)" stroke-linejoin="round" d="M 13637,22351 L 13637,22239"/>
 <path fill="none" stroke="rgb(179,179,179)" stroke-linejoin="round" d="M 13732,22351 L 13732,22239"/>
 <path fill="none" stroke="rgb(179,179,179)" stroke-linejoin="round" d="M 13732,22351 L 13732,22239"/>
 <path fill="none" stroke="rgb(179,179,179)" stroke-linejoin="round" d="M 13827,22351 L 13827,22239"/>
 <path fill="none" stroke="rgb(179,179,179)" stroke-linejoin="round" d="M 13827,22351 L 13827,22239"/>
 <path fill="none" stroke="rgb(179,179,179)" stroke-linejoin="round" d="M 13921,22351 L 13921,22239"/>
 <path fill="none" stroke="rgb(179,179,179)" stroke-linejoin="round" d="M 13921,22351 L 13921,22239"/>
 <path fill="none" stroke="rgb(179,179,179)" stroke-linejoin="round" d="M 14016,22351 L 14016,22239"/>
 <path fill="none" stroke="rgb(179,179,179)" stroke-linejoin="round" d="M 14016,22351 L 14016,22239"/>
 <path fill="none" stroke="rgb(179,179,179)" stroke-linejoin="round" d="M 14111,22351 L 14111,22239"/>
 <path fill="none" stroke="rgb(179,179,179)" stroke-linejoin="round" d="M 14111,22351 L 14111,22239"/>
 <path fill="none" stroke="rgb(179,179,179)" stroke-linejoin="round" d="M 14205,22351 L 14205,22239"/>
 <path fill="none" stroke="rgb(179,179,179)" stroke-linejoin="round" d="M 14205,22351 L 14205,22239"/>
 <path fill="none" stroke="rgb(179,179,179)" stroke-linejoin="round" d="M 14300,22351 L 14300,22239"/>
 <path fill="none" stroke="rgb(179,179,179)" stroke-linejoin="round" d="M 14300,22351 L 14300,22239"/>
 <path fill="none" stroke="rgb(179,179,179)" stroke-linejoin="round" d="M 14395,22351 L 14395,22239"/>
 <path fill="none" stroke="rgb(179,179,179)" stroke-linejoin="round" d="M 14395,22351 L 14395,22239"/>
 <path fill="none" stroke="rgb(179,179,179)" stroke-linejoin="round" d="M 14489,22351 L 14489,22239"/>
 <path fill="none" stroke="rgb(179,179,179)" stroke-linejoin="round" d="M 14489,22351 L 14489,22239"/>
 <path fill="none" stroke="rgb(179,179,179)" stroke-linejoin="round" d="M 14584,22351 L 14584,22239"/>
 <path fill="none" stroke="rgb(179,179,179)" stroke-linejoin="round" d="M 14584,22351 L 14584,22239"/>
 <path fill="none" stroke="rgb(179,179,179)" stroke-linejoin="round" d="M 14679,22351 L 14679,22239"/>
 <path fill="none" stroke="rgb(179,179,179)" stroke-linejoin="round" d="M 14679,22351 L 14679,22239"/>
 <path fill="none" stroke="rgb(179,179,179)" stroke-linejoin="round" d="M 14773,22351 L 14773,22239"/>
 <path fill="none" stroke="rgb(179,179,179)" stroke-linejoin="round" d="M 14773,22351 L 14773,22239"/>
 <path fill="none" stroke="rgb(179,179,179)" stroke-linejoin="round" d="M 14868,22351 L 14868,22239"/>
 <path fill="none" stroke="rgb(179,179,179)" stroke-linejoin="round" d="M 14868,22351 L 14868,22239"/>
 <path fill="none" stroke="rgb(179,179,179)" stroke-linejoin="round" d="M 14963,22351 L 14963,22239"/>
 <path fill="none" stroke="rgb(179,179,179)" stroke-linejoin="round" d="M 14963,22351 L 14963,22239"/>
 <path fill="none" stroke="rgb(179,179,179)" stroke-linejoin="round" d="M 15057,22351 L 15057,22239"/>
 <path fill="none" stroke="rgb(179,179,179)" stroke-linejoin="round" d="M 15057,22351 L 15057,22239"/>
 <path fill="none" stroke="rgb(179,179,179)" stroke-linejoin="round" d="M 15152,22351 L 15152,22239"/>
 <path fill="none" stroke="rgb(179,179,179)" stroke-linejoin="round" d="M 15152,22351 L 15152,22239"/>
 <path fill="none" stroke="rgb(179,179,179)" stroke-linejoin="round" d="M 15247,22351 L 15247,22239"/>
 <path fill="none" stroke="rgb(179,179,179)" stroke-linejoin="round" d="M 15247,22351 L 15247,22239"/>
 <path fill="none" stroke="rgb(179,179,179)" stroke-linejoin="round" d="M 15341,22351 L 15341,22239"/>
 <path fill="none" stroke="rgb(179,179,179)" stroke-linejoin="round" d="M 15341,22351 L 15341,22239"/>
 <path fill="none" stroke="rgb(179,179,179)" stroke-linejoin="round" d="M 15436,22351 L 15436,22239"/>
 <path fill="none" stroke="rgb(179,179,179)" stroke-linejoin="round" d="M 15436,22351 L 15436,22239"/>
 <path fill="none" stroke="rgb(179,179,179)" stroke-linejoin="round" d="M 15531,22351 L 15531,22239"/>
 <path fill="none" stroke="rgb(179,179,179)" stroke-linejoin="round" d="M 15531,22351 L 15531,22239"/>
 <path fill="none" stroke="rgb(179,179,179)" stroke-linejoin="round" d="M 15625,22351 L 15625,22239"/>
 <path fill="none" stroke="rgb(179,179,179)" stroke-linejoin="round" d="M 15625,22351 L 15625,22239"/>
 <path fill="none" stroke="rgb(179,179,179)" stroke-linejoin="round" d="M 15720,22351 L 15720,22239"/>
 <path fill="none" stroke="rgb(179,179,179)" stroke-linejoin="round" d="M 15720,22351 L 15720,22239"/>
 <path fill="none" stroke="rgb(179,179,179)" stroke-linejoin="round" d="M 15815,22351 L 15815,22239"/>
 <path fill="none" stroke="rgb(179,179,179)" stroke-linejoin="round" d="M 15815,22351 L 15815,22239"/>
 <path fill="none" stroke="rgb(179,179,179)" stroke-linejoin="round" d="M 15909,22351 L 15909,22239"/>
 <path fill="none" stroke="rgb(179,179,179)" stroke-linejoin="round" d="M 15909,22351 L 15909,22239"/>
 <path fill="none" stroke="rgb(179,179,179)" stroke-linejoin="round" d="M 16004,22351 L 16004,22239"/>
 <path fill="none" stroke="rgb(179,179,179)" stroke-linejoin="round" d="M 16004,22351 L 16004,22239"/>
 <path fill="none" stroke="rgb(179,179,179)" stroke-linejoin="round" d="M 16099,22351 L 16099,22239"/>
 <path fill="none" stroke="rgb(179,179,179)" stroke-linejoin="round" d="M 16099,22351 L 16099,22239"/>
 <path fill="none" stroke="rgb(179,179,179)" stroke-linejoin="round" d="M 16193,22351 L 16193,22239"/>
 <path fill="none" stroke="rgb(179,179,179)" stroke-linejoin="round" d="M 16193,22351 L 16193,22239"/>
 <path fill="none" stroke="rgb(179,179,179)" stroke-linejoin="round" d="M 16288,22351 L 16288,22239"/>
 <path fill="none" stroke="rgb(179,179,179)" stroke-linejoin="round" d="M 16288,22351 L 16288,22239"/>
 <path fill="none" stroke="rgb(179,179,179)" stroke-linejoin="round" d="M 16383,22351 L 16383,22239"/>
 <path fill="none" stroke="rgb(179,179,179)" stroke-linejoin="round" d="M 16383,22351 L 16383,22239"/>
 <path fill="none" stroke="rgb(179,179,179)" stroke-linejoin="round" d="M 16477,22351 L 16477,22239"/>
 <path fill="none" stroke="rgb(179,179,179)" stroke-linejoin="round" d="M 16477,22351 L 16477,22239"/>
 <path fill="none" stroke="rgb(179,179,179)" stroke-linejoin="round" d="M 16572,22351 L 16572,22239"/>
 <path fill="none" stroke="rgb(179,179,179)" stroke-linejoin="round" d="M 16572,22351 L 16572,22239"/>
 <path fill="none" stroke="rgb(179,179,179)" stroke-linejoin="round" d="M 16667,22351 L 16667,22239"/>
 <path fill="none" stroke="rgb(179,179,179)" stroke-linejoin="round" d="M 16667,22351 L 16667,22239"/>
 <path fill="none" stroke="rgb(179,179,179)" stroke-linejoin="round" d="M 16761,22351 L 16761,22239"/>
 <path fill="none" stroke="rgb(179,179,179)" stroke-linejoin="round" d="M 16761,22351 L 16761,22239"/>
 <path fill="none" stroke="rgb(179,179,179)" stroke-linejoin="round" d="M 16856,22351 L 16856,22239"/>
 <path fill="none" stroke="rgb(179,179,179)" stroke-linejoin="round" d="M 16856,22351 L 16856,22239"/>
 <path fill="none" stroke="rgb(179,179,179)" stroke-linejoin="round" d="M 16951,22351 L 16951,22239"/>
 <path fill="none" stroke="rgb(179,179,179)" stroke-linejoin="round" d="M 16951,22351 L 16951,22239"/>
 <path fill="none" stroke="rgb(179,179,179)" stroke-linejoin="round" d="M 17045,22351 L 17045,22239"/>
 <path fill="none" stroke="rgb(179,179,179)" stroke-linejoin="round" d="M 17045,22351 L 17045,22239"/>
 <path fill="none" stroke="rgb(179,179,179)" stroke-linejoin="round" d="M 17140,22351 L 17140,22239"/>
 <path fill="none" stroke="rgb(179,179,179)" stroke-linejoin="round" d="M 17140,22351 L 17140,22239"/>
 <path fill="none" stroke="rgb(179,179,179)" stroke-linejoin="round" d="M 17235,22351 L 17235,22239"/>
 <path fill="none" stroke="rgb(179,179,179)" stroke-linejoin="round" d="M 17235,22351 L 17235,22239"/>
 <path fill="none" stroke="rgb(179,179,179)" stroke-linejoin="round" d="M 17329,22351 L 17329,22239"/>
 <path fill="none" stroke="rgb(179,179,179)" stroke-linejoin="round" d="M 17329,22351 L 17329,22239"/>
 <path fill="none" stroke="rgb(179,179,179)" stroke-linejoin="round" d="M 17424,22351 L 17424,22239"/>
 <path fill="none" stroke="rgb(179,179,179)" stroke-linejoin="round" d="M 17424,22351 L 17424,22239"/>
 <path fill="none" stroke="rgb(179,179,179)" stroke-linejoin="round" d="M 17519,22351 L 17519,22239"/>
 <path fill="none" stroke="rgb(179,179,179)" stroke-linejoin="round" d="M 17519,22351 L 17519,22239"/>
 <path fill="none" stroke="rgb(179,179,179)" stroke-linejoin="round" d="M 17613,22351 L 17613,22239"/>
 <path fill="none" stroke="rgb(179,179,179)" stroke-linejoin="round" d="M 17613,22351 L 17613,22239"/>
 <path fill="none" stroke="rgb(179,179,179)" stroke-linejoin="round" d="M 17708,22351 L 17708,22239"/>
 <path fill="none" stroke="rgb(179,179,179)" stroke-linejoin="round" d="M 17708,22351 L 17708,22239"/>
 <path fill="none" stroke="rgb(179,179,179)" stroke-linejoin="round" d="M 17803,22351 L 17803,22239"/>
 <path fill="none" stroke="rgb(179,179,179)" stroke-linejoin="round" d="M 17803,22351 L 17803,22239"/>
 <path fill="none" stroke="rgb(179,179,179)" stroke-linejoin="round" d="M 17897,22351 L 17897,22239"/>
 <path fill="none" stroke="rgb(179,179,179)" stroke-linejoin="round" d="M 17897,22351 L 17897,22239"/>
 <path fill="none" stroke="rgb(179,179,179)" stroke-linejoin="round" d="M 17992,22351 L 17992,22239"/>
 <path fill="none" stroke="rgb(179,179,179)" stroke-linejoin="round" d="M 17992,22351 L 17992,22239"/>
 <path fill="none" stroke="rgb(179,179,179)" stroke-linejoin="round" d="M 18087,22351 L 18087,22239"/>
 <path fill="none" stroke="rgb(179,179,179)" stroke-linejoin="round" d="M 18087,22351 L 18087,22239"/>
 <path fill="none" stroke="rgb(179,179,179)" stroke-linejoin="round" d="M 18181,22351 L 18181,22239"/>
 <path fill="none" stroke="rgb(179,179,179)" stroke-linejoin="round" d="M 18181,22351 L 18181,22239"/>
 <path fill="none" stroke="rgb(179,179,179)" stroke-linejoin="round" d="M 18276,22351 L 18276,22239"/>
 <path fill="none" stroke="rgb(179,179,179)" stroke-linejoin="round" d="M 18276,22351 L 18276,22239"/>
 <path fill="none" stroke="rgb(179,179,179)" stroke-linejoin="round" d="M 18371,22351 L 18371,22239"/>
 <path fill="none" stroke="rgb(179,179,179)" stroke-linejoin="round" d="M 18371,22351 L 18371,22239"/>
 <path fill="none" stroke="rgb(179,179,179)" stroke-linejoin="round" d="M 18465,22351 L 18465,22239"/>
 <path fill="none" stroke="rgb(179,179,179)" stroke-linejoin="round" d="M 18465,22351 L 18465,22239"/>
 <path fill="none" stroke="rgb(179,179,179)" stroke-linejoin="round" d="M 18560,22351 L 18560,22239"/>
 <path fill="none" stroke="rgb(179,179,179)" stroke-linejoin="round" d="M 18560,22351 L 18560,22239"/>
 <path fill="none" stroke="rgb(179,179,179)" stroke-linejoin="round" d="M 18655,22351 L 18655,22239"/>
 <path fill="none" stroke="rgb(179,179,179)" stroke-linejoin="round" d="M 18655,22351 L 18655,22239"/>
 <path fill="none" stroke="rgb(179,179,179)" stroke-linejoin="round" d="M 1427,22239 L 18655,22239"/>
 <path fill="none" stroke="rgb(179,179,179)" stroke-linejoin="round" d="M 1277,22239 L 1427,22239"/>
 <path fill="none" stroke="rgb(179,179,179)" stroke-linejoin="round" d="M 1277,22239 L 1427,22239"/>
 <path fill="none" stroke="rgb(179,179,179)" stroke-linejoin="round" d="M 1277,17086 L 1427,17086"/>
 <path fill="none" stroke="rgb(179,179,179)" stroke-linejoin="round" d="M 1277,17086 L 1427,17086"/>
 <path fill="none" stroke="rgb(179,179,179)" stroke-linejoin="round" d="M 1277,11933 L 1427,11933"/>
 <path fill="none" stroke="rgb(179,179,179)" stroke-linejoin="round" d="M 1277,11933 L 1427,11933"/>
 <path fill="none" stroke="rgb(179,179,179)" stroke-linejoin="round" d="M 1277,6781 L 1427,6781"/>
 <path fill="none" stroke="rgb(179,179,179)" stroke-linejoin="round" d="M 1277,6781 L 1427,6781"/>
 <path fill="none" stroke="rgb(179,179,179)" stroke-linejoin="round" d="M 1277,1629 L 1427,1629"/>
 <path fill="none" stroke="rgb(179,179,179)" stroke-linejoin="round" d="M 1277,1629 L 1427,1629"/>
 <path fill="none" stroke="rgb(179,179,179)" stroke-linejoin="round" d="M 1427,22239 L 1427,1629"/>
 <path fill="none" stroke="rgb(141,40,30)" stroke-width="80" stroke-linejoin="round" stroke-dasharray="80,40" d="M 1474,22175 L 1568,22153 1663,22148 1758,22106 1852,22057 1947,21987 2042,21856 2136,21671 2231,21495 2326,21230 2420,20903 2515,20596 2610,20234 2704,19710 2799,19157 2894,18562 2988,18033 3083,17478 3178,16744 3272,16033 3367,15150 3462,14221 3556,13390 3651,12659 3746,11858 3840,11048 3935,10184 4030,9229 4124,8360 4219,7569 4314,6789 4408,6389 4503,5756 4598,5067 4692,4241 4787,3407 4882,2784 4976,2197 5051,1629"/>
 <path fill="none" stroke="rgb(255,64,0)" stroke-width="80" stroke-linejoin="round" stroke-dasharray="80,40" d="M 1474,22231 L 1568,22231 1663,22231 1758,22229 1852,22223 1947,22221 2042,22209 2136,22201 2231,22190 2326,22165 2420,22147 2515,22132 2610,22118 2704,22098 2799,22077 2894,22055 2988,22039 3083,22030 3178,21977 3272,21925 3367,21870 3462,21823 3556,21764 3651,21728 3746,21682 3840,21597 3935,21500 4030,21415 4124,21346 4219,21296 4314,21230 4408,21175 4503,21235 4598,21629 4692,21536 4787,21389 4882,21255 4976,21556 5071,21461 5166,21397 5260,21388 5355,21262 5450,21138 5544,20972 5639,20848 5734,20701 5828,20511 5923,20296 6018,20044 6112,19922 6207,19842 6302,19726 6396,19549 6491,19362 6586,19005 6680,18783 6775,18475 6870,18177 6964,18037 7059,17846 7154,17720 7248,17462 7343,16918 7438,16400 7532,16021 7627,15891 7722,15541 7816,15102 7911,14669 8006,14279 8100,13778 8195,13371 8290,12991 8384,12653 8479,12143 8574,11588 8668,10894 8763,10218 8858,9204 8952,8706 9047,8393 9142,7660 9236,7063 9331,6427 9426,5562 9520,4787 9615,4225 9710,8074 9804,7475 9899,6774 9994,6137 10088,5656 10183,5341 10278,5011 10372,4456 10467,3420 10562,3426 10656,3039 10732,1629"/>
 <path fill="none" stroke="rgb(0,223,255)" stroke-width="80" stroke-linejoin="round" stroke-dasharray="158,102" d="M 1474,22236 L 1568,22235 1663,22235 1758,22233 1852,22231 1947,22229 2042,22225 2136,22221 2231,22218 2326,22214 2420,22209 2515,22205 2610,22194 2704,22182 2799,22169 2894,22153 2988,22135 3083,22114 3178,22083 3272,22058 3367,22007 3462,21968 3556,21931 3651,21886 3746,21823 3840,21748 3935,21672 4030,21578 4124,21460 4219,21361 4314,21225 4408,21058 4503,20880 4598,20663 4692,20445 4787,20180 4882,19878 4976,19470 5071,19183 5166,18818 5260,18491 5355,18190 5450,17829 5544,17461 5639,17053 5734,16659 5828,16290 5923,16014 6018,15614 6112,15174 6207,14625 6302,13993 6396,13354 6491,12772 6586,12136 6680,11525 6775,10974 6870,10592 6964,9990 7059,9561 7154,9061 7248,8677 7343,8370 7438,7961 7532,7668 7627,7286 7722,6863 7816,6635 7911,6680 8006,6578 8100,6465 8195,6382 8290,6164 8384,5927 8479,6181 8574,6386 8668,6427 8763,6422 8858,6382 8952,6049 9047,5718 9142,5888 9236,5931 9331,5929 9426,5892 9520,5895 9615,5648 9710,5302 9804,5533 9899,5688 9994,5671 10088,5631 10183,5396 10278,5165 10372,4911 10467,5032 10562,5201 10656,5343 10751,5531 10846,5705 10940,5529 11035,5332 11130,5667 11224,6046 11319,5998 11414,6164 11508,6342 11603,6275 11698,6116 11792,6305 11886,6582 11981,6542 12075,6708 12170,6885 12265,6694 12359,6492 12454,6730 12549,6889 12643,7062 12738,7154 12833,7292 12927,7091 13022,6848 13117,7040 13211,7334 13306,7488 13401,7591 13495,7687 13590,7509 13685,7328 13779,7545 13874,7825 13969,8006 14063,8205 14158,8392 14253,8211 14347,8039 14442,8295 14537,8493 14631,8770 14726,9013 14821,9208 14915,9090 15010,8957 15105,9161 15199,9337 15294,9490 15389,9641 15483,9749 15578,9616 15673,9492 15767,9614 15862,9767 15957,9848 16051,9964 16146,10070 16241,9979 16335,9862 16430,9995 16525,10142 16619,10241 16714,10313 16809,10410 16903,10299 16998,10146 17093,10293 17187,10419 17282,10546 17377,10632 17471,10713 17566,10553 17661,10380 17755,10502 17850,10548 17945,10612 18039,10668 18134,10691 18229,10533 18323,10339 18418,10470 18513,10561 18607,10611"/>
 <path fill="none" stroke="rgb(21,132,102)" stroke-width="80" stroke-linejoin="round" stroke-dasharray="80,203,80,203,203,203" d="M 1474,22144 L 1568,22134 1663,22124 1758,22108 1852,22092 1947,22071 2042,22039 2136,22004 2231,21970 2326,21935 2420,21882 2515,21843 2610,21787 2704,21720 2799,21650 2894,21577 2988,21515 3083,21455 3178,21378 3272,21304 3367,21228 3462,21146 3556,21075 3651,21005 3746,20939 3840,20879 3935,20815 4030,20744 4124,20667 4219,20608 4314,20513 4408,20465 4503,20415 4598,20367 4692,20290 4787,20219 4882,20161 4976,20103 5071,20043 5166,19999 5260,19946 5355,19876 5450,19836 5544,19768 5639,19715 5734,19666 5828,19619 5923,19582 6018,19565 6112,19507 6207,19461 6302,19406 6396,19355 6491,19306 6586,19256 6680,19197 6775,19132 6870,19095 6964,19043 7059,19009 7154,18954 7248,18923 7343,18854 7438,18797 7532,18751 7627,18706 7722,18663 7816,18611 7911,18559 8006,18492 8100,18501 8195,18440 8290,18391 8384,18362 8479,18318 8574,18273 8668,18209 8763,18157 8858,18074 8952,18036 9047,17987 9142,17971 9236,17926 9331,17858 9426,17782 9520,17703 9615,17631 9710,17701 9804,17652 9899,17585 9994,17523 10088,17463 10183,17403 10278,17324 10372,17277 10467,17228 10562,17203 10656,17132 10751,17028 10846,16978 10940,16904 11035,16847 11130,16774 11224,16707 11319,16601 11414,16495 11508,16405 11603,16312 11698,16236 11792,16167 11886,16040 11981,16149 12075,16032 12170,16040 12265,15960 12359,15909 12454,15830 12549,15766 12643,15649 12738,15533 12833,15420 12927,15318 13022,15254 13117,15156 13211,15069 13306,14944 13401,14876 13495,14768 13590,14606 13685,14549 13779,14479 13874,14350 13969,14215 14063,14154 14158,14113 14253,14022 14347,13954 14442,13858 14537,13751 14631,13682 14726,13569 14821,13488 14915,13372 15010,13405 15105,13365 15199,13308 15294,13190 15389,13081 15483,13011 15578,12954 15673,12877 15767,12952 15862,12914 15957,12762 16051,12750 16146,12652 16241,12682 16335,12690 16430,12662 16525,12597 16619,12526 16714,12401 16809,12335 16903,12353 16998,12324 17093,12320 17187,12244 17282,12149 17377,12050 17471,11990 17566,11972 17661,11898 17755,11893 17850,11818 17945,11755 18039,11632 18134,11555 18229,11544 18323,11510 18418,11457 18513,11412 18607,11310"/>
 <path fill="none" stroke="rgb(191,0,65)" stroke-width="80" stroke-linejoin="round" stroke-dasharray="51,127,51,127,254,127,254,127,254,127" d="M 1474,22173 L 1568,22147 1663,22125 1758,22102 1852,22072 1947,22042 2042,21994 2136,21950 2231,21890 2326,21839 2420,21775 2515,21703 2610,21624 2704,21536 2799,21422 2894,21315 2988,21210 3083,21123 3178,21023 3272,20930 3367,20806 3462,20660 3556,20538 3651,20437 3746,20361 3840,20248 3935,20139 4030,20035 4124,19934 4219,19831 4314,19767 4408,19714 4503,19680 4598,19644 4692,19567 4787,19508 4882,19454 4976,19377 5071,19360 5166,19338 5260,19323 5355,19281 5450,19291 5544,19274 5639,19238 5734,19229 5828,19244 5923,19245 6018,19296 6112,19302 6207,19323 6302,19310 6396,19320 6491,19317 6586,19362 6680,19381 6775,19439 6870,19470 6964,19453 7059,19452 7154,19494 7248,19535 7343,19647 7438,19671 7532,19676 7627,19697 7722,19780 7816,19790 7911,19783 8006,19836 8100,19846 8195,19873 8290,19858 8384,19851 8479,19917 8574,19934 8668,19990 8763,19985 8858,20004 8952,20017 9047,20008 9142,20017 9236,20041 9331,20028 9426,20032 9520,20015 9615,19975 9710,19937 9804,19915 9899,19907 9994,19894 10088,19858 10183,19832 10278,19782 10372,19758 10467,19752 10562,19701 10656,19691 10751,19685 10846,19675 10940,19681 11035,19681 11130,19676 11224,19677 11319,19689 11414,19690 11508,19694 11603,19698 11698,19669 11792,19643 11886,19629 11981,19570 12075,19543 12170,19514 12265,19516 12359,19497 12454,19471 12549,19461 12643,19418 12738,19382 12833,19335 12927,19311 13022,19303 13117,19243 13211,19237 13306,19169 13401,19105 13495,19017 13590,18940 13685,18875 13779,18922 13874,18817 13969,18732 14063,18653 14158,18512 14253,18579 14347,18460 14442,18320 14537,18161 14631,17989 14726,17845 14821,17710 14915,17587 15010,17482 15105,17329 15199,17192 15294,17079 15389,16941 15483,16787 15578,16646 15673,16561 15767,16425 15862,16288 15957,16115 16051,15970 16146,15812 16241,15670 16335,15640 16430,15563 16525,15437 16619,15301 16714,15097 16809,14965 16903,14840 16998,14749 17093,14625 17187,14503 17282,14375 17377,14212 17471,14045 17566,13923 17661,13899 17755,13835 17850,13677 17945,13548 18039,13401 18134,13404 18229,13363 18323,13331 18418,13181 18513,13010 18607,12762"/>
 <path fill="none" stroke="rgb(255,211,32)" stroke-width="80" stroke-linejoin="round" d="M 1474,22103 L 1568,22057 1663,21995 1758,21955 1852,21860 1947,21795 2042,21574 2136,21441 2231,21287 2326,21167 2420,21056 2515,20910 2610,20662 2704,20404 2799,20065 2894,19728 2988,19554 3083,19397 3178,19128 3272,18959 3367,18633 3462,18422 3556,18067 3651,17981 3746,17790 3840,17661 3935,17446 4030,17277 4124,17170 4219,17147 4314,17053 4408,17045 4503,17130 4598,17205 4692,17146 4787,17232 4882,17236 4976,17175 5071,17285 5166,17351 5260,17489 5355,17595 5450,17727 5544,17734 5639,17774 5734,18008 5828,18073 5923,18154 6018,18262 6112,18269 6207,18342 6302,18441 6396,18620 6491,18742 6586,18864 6680,18976 6775,18975 6870,18994 6964,18996 7059,19175 7154,19304 7248,19417 7343,19528 7438,19611 7532,19605 7627,19626 7722,19690 7816,19718 7911,19749 8006,19812 8100,19856 8195,19802 8290,19773 8384,19830 8479,19868 8574,19930 8668,19966 8763,19951 8858,19963 8952,19939 9047,19988 9142,19972 9236,19964 9331,19968 9426,20005 9520,19972 9615,19919 9710,19953 9804,19958 9899,19945 9994,19966 10088,19935 10183,19887 10278,19863 10372,19892 10467,19908 10562,19900 10656,19827 10751,19738 10846,19703 10940,19676 11035,19688 11130,19586 11224,19500 11319,19471 11414,19331 11508,19095 11603,18822 11698,18667 11792,18549 11886,18485 11981,18386 12075,18276 12170,18161 12265,18098 12359,18059 12454,17981 12549,17953 12643,17967 12738,17965 12833,17873 12927,17836 13022,17896 13117,17865 13211,17799 13306,17795 13401,17755 13495,17654 13590,17595 13685,17520 13779,17383 13874,17367 13969,17324 14063,17148 14158,17183 14253,18846 14347,18663 14442,18392 14537,18110 14631,17898 14726,17790 14821,17688 14915,17609 15010,17510 15105,17339 15199,17204 15294,17407 15389,17502 15483,17348 15578,17256 15673,17310 15767,17263 15862,17160 15957,17007 16051,16880 16146,16722 16241,16642 16335,17253 16430,17488 16525,17640 16619,17665 16714,17331 16809,17146 16903,17055 16998,17052 17093,16975 17187,16870 17282,16887 17377,16598 17471,16338 17566,16083 17661,16092 17755,15910 17850,15481 17945,15153 18039,14739 18134,14269 18229,13898 18323,14132 18418,13292 18513,12405 18607,11483"/>
 <path fill="none" stroke="rgb(128,0,128)" stroke-width="80" stroke-linejoin="round" stroke-dasharray="158,158" d="M 1474,22238 L 1568,22238 1663,22238 1758,22238 1852,22238 1947,22237 2042,22237 2136,22237 2231,22236 2326,22236 2420,22235 2515,22235 2610,22234 2704,22234 2799,22233 2894,22232 2988,22232 3083,22230 3178,22229 3272,22225 3367,22221 3462,22221 3556,22218 3651,22214 3746,22207 3840,22203 3935,22199 4030,22195 4124,22189 4219,22185 4314,22180 4408,22172 4503,22166 4598,22160 4692,22155 4787,22150 4882,22143 4976,22132 5071,22129 5166,22123 5260,22117 5355,22109 5450,22102 5544,22093 5639,22086 5734,22079 5828,22070 5923,22063 6018,22054 6112,22044 6207,22033 6302,22019 6396,21999 6491,21988 6586,21971 6680,21957 6775,21941 6870,21929 6964,21910 7059,21896 7154,21884 7248,21872 7343,21855 7438,21844 7532,21839 7627,21821 7722,21806 7816,21784 7911,21767 8006,21745 8100,21721 8195,21692 8290,21665 8384,21641 8479,21625 8574,21598 8668,21568 8763,21597 8858,21569 8952,21541 9047,21514 9142,21484 9236,21442 9331,21403 9426,21370 9520,21335 9615,21294 9710,21272 9804,21240 9899,21168 9994,21179 10088,21150 10183,21123 10278,21095 10372,21095 10467,21079 10562,21041 10656,21019 10751,20982 10846,20973 10940,20936 11035,20909 11130,20872 11224,20846 11319,20824 11414,20764 11508,20722 11603,20669 11698,20632 11792,20594 11886,20544 11981,20540 12075,20480 12170,20410 12265,20347 12359,20300 12454,20260 12549,20224 12643,20172 12738,20122 12833,20056 12927,19986 13022,19912 13117,19850 13211,19765 13306,19681 13401,19557 13495,19449 13590,19321 13685,19231 13779,19167 13874,19055 13969,18950 14063,18831 14158,18744 14253,18615 14347,18538 14442,18434 14537,18301 14631,18178 14726,18018 14821,17999 14915,17912 15010,17860 15105,17861 15199,17791 15294,17703 15389,17615 15483,17543 15578,17497 15673,17460 15767,17430 15862,17357 15957,17298 16051,17250 16146,17178 16241,17184 16335,17211 16430,17186 16525,17113 16619,17071 16714,17031 16809,16954 16903,16931 16998,16979 17093,16960 17187,16817 17282,16697 17377,16620 17471,16523 17566,16399 17661,16369 17755,16255 17850,16148 17945,16032 18039,15918 18134,15799 18229,15648 18323,15639 18418,15537 18513,15376 18607,15193"/>
 <path fill="none" stroke="rgb(0,255,0)" stroke-width="80" stroke-linejoin="round" d="M 1474,20900 L 1568,20641 1663,19640 1758,19640 1852,19060 1947,18684 2042,17453 2136,16017 2231,14516 2326,13612 2420,12065 2515,10780 2610,9602 2704,8559 2799,8942 2894,7615 2988,6838 3083,5879 3178,5153 3272,5196 3367,5238 3462,5368 3556,6255 3651,5605 3746,6955 3840,7084 3935,7254 4030,7352 4124,7416 4219,7985 4314,8416 4408,9320 4503,9067 4598,10693 4692,10867 4787,11105 4882,11599 4976,12061 5071,12814 5166,13683 5260,14071 5355,14681 5450,14989 5544,15100 5639,15510 5734,15929 5828,16326 5923,16176 6018,16941 6112,17415 6207,17648 6302,17901 6396,18670 6491,18888 6586,19196 6680,19362 6775,19519 6870,19832 6964,20009 7059,20215 7154,20199 7248,20520 7343,20463 7438,20410 7532,20699 7627,20802 7722,20916 7816,21016 7911,21088 8006,21172 8100,21162 8195,21262 8290,21369 8384,21485 8479,21469 8574,21573 8668,21551 8763,21513 8858,21612 8952,21712 9047,21701 9142,21698 9236,21796 9331,21772 9426,21744 9520,21840 9615,21829 9710,21823 9804,21817 9899,21792 9994,21873 10088,21852 10183,21815 10278,21787 10372,21891 10467,21881 10562,21844 10656,21829 10751,21787 10846,21778 10940,21838 11035,21817 11130,21791 11224,21741 11319,21679 11414,21615 11508,21651 11603,21578 11698,21536 11792,21582 11886,21422 11981,21284 12075,21124 12170,21008 12265,21044 12359,20988 12454,20925 12549,20891 12643,20786 12738,20662 12833,20632 12927,20673 13022,20598 13117,20752 13211,20595 13306,20546 13401,20437 13495,20306 13590,20664 13685,20616 13779,20488 13874,20558 13969,20423 14063,20242 14158,20065 14253,20173 14347,20334 14442,20296 14537,20187 14631,19926 14726,19677 14821,19701 14915,19775 15010,19696 15105,19661 15199,19449 15294,19234 15389,19044 15483,19184 15578,19480 15673,19475 15767,19256 15862,19288 15957,19009 16051,18928 16146,18984 16241,18865 16335,18713 16430,18717 16525,18352 16619,18514 16714,18152 16809,18039 16903,18068 16998,17882 17093,17642 17187,17664 17282,17234 17377,16830 17471,16860 17566,17227 17661,17391 17755,17378 17850,17175 17945,16744 18039,16262 18134,16471 18229,15942 18323,16430 18418,16143 18513,16062 18607,15581"/>
 <path fill="none" stroke="rgb(131,202,255)" stroke-width="80" stroke-linejoin="round" d="M 1474,19689 L 1568,19213 1663,18727 1758,18306 1852,17796 1947,17345 2042,16581 2136,15668 2231,14964 2326,14289 2420,13575 2515,13029 2610,12434 2704,11670 2799,10919 2894,10297 2988,9647 3083,9366 3178,9007 3272,8506 3367,8084 3462,7685 3556,7194 3651,6687 3746,6356 3840,6206 3935,6002 4030,5727 4124,5489 4219,5149 4314,4811 4408,4579 4503,4463 4598,4271 4692,4069 4787,4008 4882,3870 4976,3787 5071,3791 5166,3881 5260,3883 5355,4028 5450,4082 5544,4198 5639,4155 5734,4204 5828,4308 5923,4401 6018,4930 6112,5034 6207,5075 6302,5164 6396,5198 6491,5456 6586,6639 6680,6963 6775,7247 6870,7778 6964,8037 7059,8180 7154,8388 7248,8867 7343,9211 7438,9955 7532,10276 7627,10589 7722,10896 7816,11138 7911,11544 8006,11849 8100,12127 8195,12395 8290,12592 8384,12813 8479,13215 8574,13552 8668,14059 8763,14368 8858,14792 8952,15067 9047,15188 9142,15439 9236,15540 9331,15688 9426,15936 9520,16123 9615,16228 9710,16319 9804,16636 9899,16834 9994,17017 10088,17296 10183,17554 10278,17760 10372,17822 10467,18051 10562,18161 10656,18301 10751,18567 10846,18623 10940,18664 11035,18721 11130,18902 11224,19059 11319,19119 11414,19232 11508,19369 11603,19395 11698,19427 11792,19586 11886,19638 11981,19672 12075,19702 12170,19746 12265,19743 12359,19731 12454,19811 12549,19921 12643,19944 12738,19950 12833,19971 12927,19992 13022,19996 13117,20037 13211,20109 13306,20113 13401,20115 13495,20130 13590,20118 13685,20124 13779,20151 13874,20138 13969,20124 14063,20142 14158,20118 14253,20097 14347,20094 14442,20089 14537,20088 14631,20154 14726,20121 14821,20115 14915,20115 15010,20112 15105,20111 15199,20083 15294,20075 15389,20036 15483,20031 15578,19978 15673,19960 15767,19927 15862,19888 15957,19838 16051,19810 16146,19783 16241,19727 16335,19704 16430,19667 16525,19620 16619,19509 16714,19396 16809,19255 16903,19096 16998,18967 17093,18878 17187,18701 17282,18500 17377,18312 17471,18292 17566,18113 17661,17794 17755,17678 17850,17497 17945,17310 18039,17108 18134,16922 18229,16771 18323,16615 18418,16479 18513,16318 18607,16152"/>
 <path fill="none" stroke="rgb(0,169,51)" stroke-width="80" stroke-linejoin="round" d="M 1474,21670 L 1568,21497 1663,21262 1758,21084 1852,20719 1947,20370 2042,19952 2136,19523 2231,19038 2326,18168 2420,17153 2515,16236 2610,15889 2704,14517 2799,13801 2894,13110 2988,12829 3083,12084 3178,11990 3272,11794 3367,11687 3462,11559 3556,11841 3651,12113 3746,12382 3840,12684 3935,12905 4030,13418 4124,14032 4219,14383 4314,14677 4408,14995 4503,15134 4598,15550 4692,16426 4787,17135 4882,17646 4976,17895 5071,18012 5166,18335 5260,18706 5355,19051 5450,19185 5544,19368 5639,19491 5734,19535 5828,19712 5923,19901 6018,19995 6112,20142 6207,20199 6302,20212 6396,20288 6491,20428 6586,20594 6680,20585 6775,20724 6870,20762 6964,20794 7059,20864 7154,20877 7248,21015 7343,21063 7438,21083 7532,21039 7627,21037 7722,21065 7816,21082 7911,21280 8006,21300 8100,21328 8195,21312 8290,21323 8384,21369 8479,21401 8574,21417 8668,21467 8763,21506 8858,21670 8952,21701 9047,21702 9142,21711 9236,21748 9331,21760 9426,21748 9520,21738 9615,21738 9710,21716 9804,21744 9899,21756 9994,21768 10088,21776 10183,21793 10278,21812 10372,21791 10467,21759 10562,21761 10656,21742 10751,21733 10846,21712 10940,21719 11035,21725 11130,21719 11224,21696 11319,21713 11414,21694 11508,21656 11603,21608 11698,21552 11792,21571 11886,21464 11981,21412 12075,21338 12170,21262 12265,21141 12359,21081 12454,21061 12549,20996 12643,20921 12738,20871 12833,20851 12927,20823 13022,20820 13117,20821 13211,20786 13306,20734 13401,20645 13495,20681 13590,20699 13685,20667 13779,20635 13874,20672 13969,20585 14063,20567 14158,20520 14253,20464 14347,20409 14442,20425 14537,20401 14631,20397 14726,20346 14821,20427 14915,20405 15010,20403 15105,20607 15199,20656 15294,20658 15389,20606 15483,20653 15578,20649 15673,20667 15767,20638 15862,20583 15957,20496 16051,20348 16146,20151 16241,19995 16335,19904 16430,19687 16525,19496 16619,19253 16714,19067 16809,18893 16903,18848 16998,18686 17093,18709 17187,18628 17282,18450 17377,18505 17471,18364 17566,18390 17661,18258 17755,18413 17850,18331 17945,18273 18039,18255 18134,18206 18229,18243 18323,18216 18418,17999 18513,17579 18607,17140"/>
 <path fill="none" stroke="rgb(0,169,51)" stroke-width="80" stroke-linejoin="round" stroke-dasharray="158,102" d="M 1474,21270 L 1568,21115 1663,21180 1758,21067 1852,21037 1947,20909 2042,20838 2136,20832 2231,20837 2326,20763 2420,20606 2515,20525 2610,20359 2704,20188 2799,19929 2894,19636 2988,19382 3083,19192 3178,18919 3272,18670 3367,18484 3462,18318 3556,18244 3651,17958 3746,18248 3840,18352 3935,18462 4030,18582 4124,18742 4219,19328 4314,19378 4408,19449 4503,19531 4598,19579 4692,19675 4787,19727 4882,19803 4976,19776 5071,19904 5166,19964 5260,20092 5355,20189 5450,20273 5544,20339 5639,20384 5734,20431 5828,20488 5923,20532 6018,20581 6112,20614 6207,20651 6302,20668 6396,20645 6491,20624 6586,20564 6680,20532 6775,20482 6870,20451 6964,20420 7059,20376 7154,20315 7248,20212 7343,20136 7438,20043 7532,19992 7627,19938 7722,19812 7816,19746 7911,19667 8006,19597 8100,19530 8195,19528 8290,19480 8384,19471 8479,19470 8574,19435 8668,19388 8763,19286 8858,19246 8952,19193 9047,19102 9142,18982 9236,18867 9331,18715 9426,18646 9520,18659 9615,18661 9710,18666 9804,18675 9899,18700 9994,18692 10088,18654 10183,18622 10278,18568 10372,18516 10467,18472 10562,18428 10656,18388 10751,18352 10846,18350 10940,18344 11035,18391 11130,18441 11224,18507 11319,18574 11414,18603 11508,18661 11603,18699 11698,18759 11792,18792 11886,18832 11981,18845 12075,18837 12170,18862 12265,18860 12359,18897 12454,18956 12549,18946 12643,19051 12738,19139 12833,19194 12927,19235 13022,19284 13117,19332 13211,19344 13306,19436 13401,19444 13495,19499 13590,19562 13685,19575 13779,19559 13874,19574 13969,19572 14063,19537 14158,19535 14253,19507 14347,19472 14442,19403 14537,19361 14631,19323 14726,19304 14821,19301 14915,19276 15010,19245 15105,19216 15199,19202 15294,19211 15389,19207 15483,19256 15578,19304 15673,19345 15767,19322 15862,19237 15957,19158 16051,19087 16146,19055 16241,19039 16335,18988 16430,18928 16525,18849 16619,18796 16714,18739 16809,18731 16903,18705 16998,18679 17093,18631 17187,18593 17282,18555 17377,18510 17471,18483 17566,18473 17661,18508 17755,18546 17850,18539 17945,18530 18039,18506 18134,18511 18229,18501 18323,18456 18418,18416 18513,18356 18607,18331"/>
 <path fill="none" stroke="rgb(0,169,51)" stroke-width="80" stroke-linejoin="round" stroke-dasharray="80,40" d="M 1474,22237 L 1568,22236 1663,22235 1758,22232 1852,22231 1947,22229 2042,22226 2136,22223 2231,22219 2326,22214 2420,22210 2515,22207 2610,22201 2704,22193 2799,22182 2894,22172 2988,22161 3083,22156 3178,22147 3272,22134 3367,22125 3462,22159 3556,22144 3651,22125 3746,22104 3840,22078 3935,22049 4030,22030 4124,22000 4219,21974 4314,22031 4408,22012 4503,21996 4598,21977 4692,21944 4787,21902 4882,21861 4976,21843 5071,21804 5166,21758 5260,21683 5355,21604 5450,21517 5544,21808 5639,21841 5734,21838 5828,21938 5923,21867 6018,21764 6112,21728 6207,21627 6302,21609 6396,21504 6491,21702 6586,21667 6680,21529 6775,21595 6870,21576 6964,21461 7059,21467 7154,21562 7248,21521 7343,21468 7438,21454 7532,21419 7627,21382 7722,21366 7816,21331 7911,21273 8006,21207 8100,21172 8195,21099 8290,21100 8384,21118 8479,21062 8574,20992 8668,20934 8763,20943 8858,20921 8952,20883 9047,20935 9142,20884 9236,20893 9331,20770 9426,20719 9520,20698 9615,20670 9710,20767 9804,20728 9899,20648 9994,20573 10088,20490 10183,20501 10278,20448 10372,20609 10467,20547 10562,20463 10656,20358 10751,20348 10846,20355 10940,20302 11035,20388 11130,20289 11224,20317 11319,20198 11414,20177 11508,20184 11603,20196 11698,20369 11792,20338 11886,20262 11981,20195 12075,20155 12170,20154 12265,20137 12359,20176 12454,20116 12549,20009 12643,19910 12738,19870 12833,19786 12927,19853 13022,19933 13117,19894 13211,19972 13306,19938 13401,19938 13495,19938 13590,18234 13685,18496 13779,18366 13874,18167 13969,17974 14063,18062 14158,18015 14253,18113 14347,18429 14442,18268 14537,18358 14631,18236 14726,18175 14821,18094 14915,18340 15010,18853 15105,18750 15199,18671 15294,18493 15389,18402 15483,18500 15578,18758 15673,19067 15767,18936 15862,18839 15957,18732 16051,18643 16146,18801 16241,18953 16335,19212 16430,19069 16525,19027 16619,18888 16714,18899 16809,18813 16903,18917 16998,19305 17093,19204 17187,19072 17282,18898 17377,18816 17471,18753 17566,18885 17661,19127 17755,19115 17850,18993 17945,19046 18039,18915 18134,18782 18229,18898 18323,19170 18418,19102 18513,19061 18607,18969"/>
 <path fill="none" stroke="rgb(255,0,0)" stroke-width="80" stroke-linejoin="round" stroke-dasharray="158,102" d="M 1474,22238 L 1568,22238 1663,22238 1758,22236 1852,22233 1947,22227 2042,22215 2136,22195 2231,22158 2326,22091 2420,22056 2515,22015 2610,21952 2704,21807 2799,21559 2894,21356 2988,21141 3083,20956 3178,20641 3272,20397 3367,20117 3462,19793 3556,19471 3651,19128 3746,18788 3840,18353 3935,17892 4030,17445 4124,16911 4219,16361 4314,15846 4408,15421 4503,15040 4598,14638 4692,14240 4787,13912 4882,13687 4976,13402 5071,13024 5166,12657 5260,12485 5355,12364 5450,12393 5544,12526 5639,12685 5734,13005 5828,13337 5923,13628 6018,13912 6112,14256 6207,14567 6302,14968 6396,15392 6491,15801 6586,16134 6680,16484 6775,16681 6870,16875 6964,17084 7059,17333 7154,17511 7248,17663 7343,17753 7438,17807 7532,17860 7627,17921 7722,17981 7816,18020 7911,18038 8006,18046 8100,18070 8195,18111 8290,18109 8384,18154 8479,18224 8574,18258 8668,18310 8763,18369 8858,18377 8952,18398 9047,18419 9142,18445 9236,18455 9331,18450 9426,18537 9520,18667 9615,18882 9710,19180 9804,19454 9899,19617 9994,19624 10088,19631 10183,19575 10278,19548 10372,19472 10467,19419 10562,19400 10656,19413 10751,19450 10846,19460 10940,19490 11035,19503 11130,19512 11224,19502 11319,19506 11414,19520 11508,19597 11603,19606 11698,19588 11792,19591 11886,19730 11981,19776 12075,19796 12170,19805 12265,19813 12359,19965 12454,20119 12549,20266 12643,20495 12738,20557 12833,20599 12927,20636 13022,20656 13117,20666 13211,20676 13306,20697 13401,20710 13495,20744 13590,20755 13685,20765 13779,20777 13874,20816 13969,20847 14063,20858 14158,20882 14253,20894 14347,20904 14442,20922 14537,20930 14631,20934 14726,20938 14821,20938 14915,20939 15010,20942 15105,20934 15199,20916 15294,20904 15389,20887 15483,20878 15578,20870 15673,20874 15767,20876 15862,20844 15957,20813 16051,20779 16146,20749 16241,20727 16335,20702 16430,20665 16525,20631 16619,20569 16714,20519 16809,20459 16903,20410 16998,20327 17093,20255 17187,20219 17282,20162 17377,20105 17471,20043 17566,19993 17661,19937 17755,19873 17850,19799 17945,19753 18039,19687 18134,19609 18229,19547 18323,19474 18418,19398 18513,19316 18607,19287"/>
 <path fill="none" stroke="rgb(180,120,4)" stroke-width="80" stroke-linejoin="round" d="M 1474,20835 L 1568,20781 1663,20715 1758,20615 1852,20456 1947,20297 2042,20110 2136,19920 2231,19782 2326,19617 2420,19535 2515,19355 2610,19116 2704,18863 2799,18585 2894,18317 2988,18012 3083,17687 3178,17220 3272,18368 3367,18258 3462,17835 3556,17470 3651,17079 3746,16649 3840,16224 3935,15920 4030,15756 4124,15532 4219,15564 4314,15590 4408,15555 4503,15742 4598,15875 4692,16035 4787,16366 4882,16892 4976,17176 5071,17262 5166,17640 5260,17961 5355,18213 5450,18237 5544,18103 5639,18120 5734,18183 5828,18216 5923,18386 6018,18459 6112,18525 6207,18663 6302,18649 6396,18585 6491,18702 6586,18847 6680,18988 6775,19147 6870,19268 6964,19298 7059,19352 7154,19645 7248,19668 7343,19843 7438,19976 7532,20128 7627,20224 7722,20283 7816,20357 7911,20444 8006,20530 8100,20657 8195,20680 8290,20668 8384,20734 8479,20802 8574,20821 8668,20900 8763,20863 8858,20951 8952,20954 9047,20993 9142,21073 9236,21118 9331,21174 9426,21127 9520,21162 9615,21183 9710,21230 9804,21262 9899,21332 9994,21388 10088,21344 10183,21353 10278,21316 10372,21314 10467,21318 10562,21346 10656,21361 10751,21349 10846,21349 10940,21349 11035,21229 11130,21251 11224,21208 11319,21237 11414,21255 11508,21255 11603,21255 11698,21305 11792,21340 11886,21374 11981,21470 12075,21524 12170,21524 12265,21522 12359,21650 12454,21721 12549,21732 12643,21781 12738,21784 12833,21784 12927,21784 13022,21720 13117,21730 13211,21714 13306,21681 13401,21622 13495,21622 13590,21616 13685,21534 13779,21482 13874,21421 13969,21396 14063,21386 14158,21384 14253,21346 14347,21288 14442,21284 14537,21246 14631,21152 14726,21132 14821,21132 14915,21138 15010,20959 15105,20879 15199,20725 15294,20533 15389,20344 15483,20339 15578,20364 15673,19860 15767,19717 15862,19623 15957,19445 16051,19299 16146,19212 16241,19088 16335,19013 16430,19011 16525,19104 16619,19137 16714,19362 16809,19168 16903,19445 16998,19553 17093,19689 17187,19853 17282,19979 17377,20056 17471,20115 17566,20142 17661,20154 17755,20149 17850,20154 17945,19998 18039,19848 18134,19666 18229,19565 18323,19345 18418,19048 18513,18754 18607,18340"/>
 <path fill="none" stroke="rgb(0,0,0)" stroke-width="80" stroke-linejoin="round" d="M 1474,21793 L 1568,21681 1663,21533 1758,21354 1852,21111 1947,20739 2042,20373 2136,19828 2231,19545 2326,19223 2420,18712 2515,18599 2610,18109 2704,17565 2799,16842 2894,16238 2988,15799 3083,15751 3178,15482 3272,15073 3367,14705 3462,14205 3556,13844 3651,13648 3746,13276 3840,13682 3935,14287 4030,14469 4124,14183 4219,14271 4314,14301 4408,14541 4503,14875 4598,15062 4692,15271 4787,15605 4882,15660 4976,15769 5071,16002 5166,16327 5260,16584 5355,16795 5450,17387 5544,17216 5639,17344 5734,17548 5828,17786 5923,17974 6018,18193 6112,18494 6207,18652 6302,18770 6396,18984 6491,19174 6586,19657 6680,19737 6775,19609 6870,19720 6964,19790 7059,19865 7154,19996 7248,20081 7343,20234 7438,20303 7532,20367 7627,20468 7722,20577 7816,20515 7911,20595 8006,20673 8100,20711 8195,20761 8290,20792 8384,20874 8479,20903 8574,20975 8668,20963 8763,20987 8858,21039 8952,21068 9047,21081 9142,21168 9236,21246 9331,21263 9426,21281 9520,21277 9615,21274 9710,21272 9804,21299 9899,21360 9994,21383 10088,21389 10183,21439 10278,21423 10372,21478 10467,21428 10562,21482 10656,21366 10751,21323 10846,21357 10940,21299 11035,21288 11130,21286 11224,21313 11319,21295 11414,21264 11508,21258 11603,21246 11698,21218 11792,21214 11886,21279 11981,21308 12075,21320 12170,21356 12265,21404 12359,21392 12454,21421 12549,21439 12643,21474 12738,21471 12833,21455 12927,21447 13022,21500 13117,21466 13211,21524 13306,21505 13401,21493 13495,21484 13590,21471 13685,21481 13779,21452 13874,21433 13969,21423 14063,21401 14158,21349 14253,21317 14347,21295 14442,21271 14537,21238 14631,21151 14726,21100 14821,21105 14915,21112 15010,21087 15105,21071 15199,20963 15294,20938 15389,20877 15483,20867 15578,20848 15673,20772 15767,20764 15862,20682 15957,20589 16051,20502 16146,20455 16241,20445 16335,20367 16430,20369 16525,20270 16619,20188 16714,20134 16809,20150 16903,20119 16998,20001 17093,20028 17187,20020 17282,19979 17377,19945 17471,19933 17566,19936 17661,19938 17755,19987 17850,20002 17945,20025 18039,20006 18134,20005 18229,20002 18323,19952 18418,19995 18513,19987 18607,19960"/>
 <path fill="none" stroke="rgb(85,48,141)" stroke-width="80" stroke-linejoin="round" stroke-dasharray="80,40" d="M 1474,22188 L 1568,22187 1663,22172 1758,22129 1852,22112 1947,22064 2042,22025 2136,21987 2231,21898 2326,21846 2420,21678 2515,21514 2610,21409 2704,21195 2799,21045 2894,20860 2988,20668 3083,20368 3178,20372 3272,20019 3367,19669 3462,19485 3556,19458 3651,18829 3746,18698 3840,18496 3935,18257 4030,18146 4124,17966 4219,17850 4314,17744 4408,17558 4503,17344 4598,17259 4692,16818 4787,16528 4882,16234 4976,16171 5071,15852 5166,15602 5260,15376 5355,15058 5450,14766 5544,14651 5639,14467 5734,14455 5828,14338 5923,14215 6018,14123 6112,14036 6207,13930 6302,13559 6396,13522 6491,13496 6586,13462 6680,13392 6775,13299 6870,13273 6964,13230 7059,13189 7154,13210 7248,13237 7343,13205 7438,13126 7532,13071 7627,12991 7722,12900 7816,12847 7911,12782 8006,12752 8100,12687 8195,12582 8290,12525 8384,12460 8479,12413 8574,12446 8668,12400 8763,12425 8858,12407 8952,12438 9047,12465 9142,12475 9236,12530 9331,12581 9426,12656 9520,12808 9615,12784 9710,12811 9804,12913 9899,13100 9994,13240 10088,13382 10183,13498 10278,13633 10372,13755 10467,13797 10562,14075 10656,14120 10751,14159 10846,14192 10940,14225 11035,14265 11130,14287 11224,14317 11319,14313 11414,14354 11508,14359 11603,14341 11698,14455 11792,14504 11886,14535 11981,14574 12075,14591 12170,14608 12265,14625 12359,14613 12454,14637 12549,14663 12643,14658 12738,14673 12833,14717 12927,14712 13022,14657 13117,14650 13211,14656 13306,14638 13401,21039 13495,20997 13590,20953 13685,20857 13779,20787 13874,20771 13969,20725 14063,20685 14158,20661 14253,20631 14347,20579 14442,20538 14537,20490 14631,20502 14726,20492 14821,20473 14915,20443 15010,20411 15105,20437 15199,20424 15294,20410 15389,20393 15483,20363 15578,20349 15673,20882 15767,20904 15862,20922 15957,20912 16051,20906 16146,20922 16241,20948 16335,20952 16430,20900 16525,20940 16619,20951 16714,20920 16809,20922 16903,20911 16998,20869 17093,20885 17187,20868 17282,20852 17377,20830 17471,20823 17566,20801 17661,20675 17755,20652 17850,20629 17945,20584 18039,20547 18134,20504 18229,20463 18323,20406 18418,20291 18513,20288 18607,20356"/>
 <path fill="none" stroke="rgb(0,0,255)" stroke-width="80" stroke-linejoin="round" stroke-dasharray="158,158" d="M 1474,20750 L 1568,20730 1663,20715 1758,20827 1852,20865 1947,20874 2042,20845 2136,20828 2231,20800 2326,21044 2420,21044 2515,21151 2610,21177 2704,21240 2799,21301 2894,21329 2988,21354 3083,21379 3178,21391 3272,21403 3367,21439 3462,21461 3556,21504 3651,21517 3746,21535 3840,21546 3935,21553 4030,21586 4124,21610 4219,21630 4314,21650 4408,21661 4503,21674 4598,21686 4692,21710 4787,21721 4882,21739 4976,21759 5071,21771 5166,21790 5260,21801 5355,21843 5450,21868 5544,21883 5639,21891 5734,21906 5828,21918 5923,21945 6018,21946 6112,21956 6207,21965 6302,21971 6396,21984 6491,21994 6586,22010 6680,22021 6775,22034 6870,22036 6964,22033 7059,22036 7154,22036 7248,22044 7343,22050 7438,22053 7532,22058 7627,22058 7722,22062 7816,22082 7911,22093 8006,22095 8100,22097 8195,22096 8290,22095 8384,22102 8479,22098 8574,22091 8668,22084 8763,22083 8858,22079 8952,22076 9047,22073 9142,22068 9236,22066 9331,22060 9426,22055 9520,22047 9615,22042 9710,22040 9804,22034 9899,22034 9994,22026 10088,22021 10183,22019 10278,22015 10372,22014 10467,22008 10562,22002 10656,21999 10751,21990 10846,21983 10940,21982 11035,21978 11130,21972 11224,21976 11319,22008 11414,22027 11508,22024 11603,22028 11698,22041 11792,22047 11886,22050 11981,22052 12075,22050 12170,22042 12265,22036 12359,22041 12454,22040 12549,22040 12643,22041 12738,22049 12833,22048 12927,22040 13022,22049 13117,22055 13211,22053 13306,22054 13401,22058 13495,22059 13590,22057 13685,22062 13779,22061 13874,22061 13969,22065 14063,22052 14158,22045 14253,22043 14347,22058 14442,22061 14537,22070 14631,22073 14726,22077 14821,22076 14915,22076 15010,22084 15105,22088 15199,22099 15294,22103 15389,22112 15483,22108 15578,22105 15673,22113 15767,22113 15862,22108 15957,22097 16051,22071 16146,22017 16241,21979 16335,21933 16430,21888 16525,21841 16619,21788 16714,21731 16809,21658 16903,21608 16998,21565 17093,21518 17187,21448 17282,21392 17377,21371 17471,21339 17566,21304 17661,21302 17755,21280 17850,21276 17945,21288 18039,21300 18134,21294 18229,21301 18323,21343 18418,21390 18513,21427 18607,21444"/>
 <text class="TextShape" transform="rotate(-90 1568 23167)"><tspan class="TextParagraph" font-family="Liberation Sans, sans-serif" font-size="282px" font-weight="400"><tspan class="TextPosition" x="1568" y="23167"><tspan fill="rgb(0,0,0)" stroke="none">13.03</tspan></tspan></tspan></text>
 <text class="TextShape" transform="rotate(-90 2230 23167)"><tspan class="TextParagraph" font-family="Liberation Sans, sans-serif" font-size="282px" font-weight="400"><tspan class="TextPosition" x="2230" y="23167"><tspan fill="rgb(0,0,0)" stroke="none">20.03</tspan></tspan></tspan></text>
 <text class="TextShape" transform="rotate(-90 2893 23167)"><tspan class="TextParagraph" font-family="Liberation Sans, sans-serif" font-size="282px" font-weight="400"><tspan class="TextPosition" x="2893" y="23167"><tspan fill="rgb(0,0,0)" stroke="none">27.03</tspan></tspan></tspan></text>
 <text class="TextShape" transform="rotate(-90 3556 23167)"><tspan class="TextParagraph" font-family="Liberation Sans, sans-serif" font-size="282px" font-weight="400"><tspan class="TextPosition" x="3556" y="23167"><tspan fill="rgb(0,0,0)" stroke="none">03.04</tspan></tspan></tspan></text>
 <text class="TextShape" transform="rotate(-90 4218 23167)"><tspan class="TextParagraph" font-family="Liberation Sans, sans-serif" font-size="282px" font-weight="400"><tspan class="TextPosition" x="4218" y="23167"><tspan fill="rgb(0,0,0)" stroke="none">10.04</tspan></tspan></tspan></text>
 <text class="TextShape" transform="rotate(-90 4881 23167)"><tspan class="TextParagraph" font-family="Liberation Sans, sans-serif" font-size="282px" font-weight="400"><tspan class="TextPosition" x="4881" y="23167"><tspan fill="rgb(0,0,0)" stroke="none">17.04</tspan></tspan></tspan></text>
 <text class="TextShape" transform="rotate(-90 5544 23167)"><tspan class="TextParagraph" font-family="Liberation Sans, sans-serif" font-size="282px" font-weight="400"><tspan class="TextPosition" x="5544" y="23167"><tspan fill="rgb(0,0,0)" stroke="none">24.04</tspan></tspan></tspan></text>
 <text class="TextShape" transform="rotate(-90 6206 23167)"><tspan class="TextParagraph" font-family="Liberation Sans, sans-serif" font-size="282px" font-weight="400"><tspan class="TextPosition" x="6206" y="23167"><tspan fill="rgb(0,0,0)" stroke="none">01.05</tspan></tspan></tspan></text>
 <text class="TextShape" transform="rotate(-90 6869 23167)"><tspan class="TextParagraph" font-family="Liberation Sans, sans-serif" font-size="282px" font-weight="400"><tspan class="TextPosition" x="6869" y="23167"><tspan fill="rgb(0,0,0)" stroke="none">08.05</tspan></tspan></tspan></text>
 <text class="TextShape" transform="rotate(-90 7532 23167)"><tspan class="TextParagraph" font-family="Liberation Sans, sans-serif" font-size="282px" font-weight="400"><tspan class="TextPosition" x="7532" y="23167"><tspan fill="rgb(0,0,0)" stroke="none">15.05</tspan></tspan></tspan></text>
 <text class="TextShape" transform="rotate(-90 8194 23167)"><tspan class="TextParagraph" font-family="Liberation Sans, sans-serif" font-size="282px" font-weight="400"><tspan class="TextPosition" x="8194" y="23167"><tspan fill="rgb(0,0,0)" stroke="none">22.05</tspan></tspan></tspan></text>
 <text class="TextShape" transform="rotate(-90 8857 23167)"><tspan class="TextParagraph" font-family="Liberation Sans, sans-serif" font-size="282px" font-weight="400"><tspan class="TextPosition" x="8857" y="23167"><tspan fill="rgb(0,0,0)" stroke="none">29.05</tspan></tspan></tspan></text>
 <text class="TextShape" transform="rotate(-90 9520 23167)"><tspan class="TextParagraph" font-family="Liberation Sans, sans-serif" font-size="282px" font-weight="400"><tspan class="TextPosition" x="9520" y="23167"><tspan fill="rgb(0,0,0)" stroke="none">05.06</tspan></tspan></tspan></text>
 <text class="TextShape" transform="rotate(-90 10182 23167)"><tspan class="TextParagraph" font-family="Liberation Sans, sans-serif" font-size="282px" font-weight="400"><tspan class="TextPosition" x="10182" y="23167"><tspan fill="rgb(0,0,0)" stroke="none">12.06</tspan></tspan></tspan></text>
 <text class="TextShape" transform="rotate(-90 10845 23167)"><tspan class="TextParagraph" font-family="Liberation Sans, sans-serif" font-size="282px" font-weight="400"><tspan class="TextPosition" x="10845" y="23167"><tspan fill="rgb(0,0,0)" stroke="none">19.06</tspan></tspan></tspan></text>
 <text class="TextShape" transform="rotate(-90 11508 23167)"><tspan class="TextParagraph" font-family="Liberation Sans, sans-serif" font-size="282px" font-weight="400"><tspan class="TextPosition" x="11508" y="23167"><tspan fill="rgb(0,0,0)" stroke="none">26.06</tspan></tspan></tspan></text>
 <text class="TextShape" transform="rotate(-90 12169 23167)"><tspan class="TextParagraph" font-family="Liberation Sans, sans-serif" font-size="282px" font-weight="400"><tspan class="TextPosition" x="12169" y="23167"><tspan fill="rgb(0,0,0)" stroke="none">03.07</tspan></tspan></tspan></text>
 <text class="TextShape" transform="rotate(-90 12832 23167)"><tspan class="TextParagraph" font-family="Liberation Sans, sans-serif" font-size="282px" font-weight="400"><tspan class="TextPosition" x="12832" y="23167"><tspan fill="rgb(0,0,0)" stroke="none">10.07</tspan></tspan></tspan></text>
 <text class="TextShape" transform="rotate(-90 13495 23167)"><tspan class="TextParagraph" font-family="Liberation Sans, sans-serif" font-size="282px" font-weight="400"><tspan class="TextPosition" x="13495" y="23167"><tspan fill="rgb(0,0,0)" stroke="none">17.07</tspan></tspan></tspan></text>
 <text class="TextShape" transform="rotate(-90 14157 23167)"><tspan class="TextParagraph" font-family="Liberation Sans, sans-serif" font-size="282px" font-weight="400"><tspan class="TextPosition" x="14157" y="23167"><tspan fill="rgb(0,0,0)" stroke="none">24.07</tspan></tspan></tspan></text>
 <text class="TextShape" transform="rotate(-90 14820 23167)"><tspan class="TextParagraph" font-family="Liberation Sans, sans-serif" font-size="282px" font-weight="400"><tspan class="TextPosition" x="14820" y="23167"><tspan fill="rgb(0,0,0)" stroke="none">31.07</tspan></tspan></tspan></text>
 <text class="TextShape" transform="rotate(-90 15483 23167)"><tspan class="TextParagraph" font-family="Liberation Sans, sans-serif" font-size="282px" font-weight="400"><tspan class="TextPosition" x="15483" y="23167"><tspan fill="rgb(0,0,0)" stroke="none">07.08</tspan></tspan></tspan></text>
 <text class="TextShape" transform="rotate(-90 16145 23167)"><tspan class="TextParagraph" font-family="Liberation Sans, sans-serif" font-size="282px" font-weight="400"><tspan class="TextPosition" x="16145" y="23167"><tspan fill="rgb(0,0,0)" stroke="none">14.08</tspan></tspan></tspan></text>
 <text class="TextShape" transform="rotate(-90 16808 23167)"><tspan class="TextParagraph" font-family="Liberation Sans, sans-serif" font-size="282px" font-weight="400"><tspan class="TextPosition" x="16808" y="23167"><tspan fill="rgb(0,0,0)" stroke="none">21.08</tspan></tspan></tspan></text>
 <text class="TextShape" transform="rotate(-90 17471 23167)"><tspan class="TextParagraph" font-family="Liberation Sans, sans-serif" font-size="282px" font-weight="400"><tspan class="TextPosition" x="17471" y="23167"><tspan fill="rgb(0,0,0)" stroke="none">28.08</tspan></tspan></tspan></text>
 <text class="TextShape" transform="rotate(-90 18133 23167)"><tspan class="TextParagraph" font-family="Liberation Sans, sans-serif" font-size="282px" font-weight="400"><tspan class="TextPosition" x="18133" y="23167"><tspan fill="rgb(0,0,0)" stroke="none">04.09</tspan></tspan></tspan></text>
 <text class="TextShape"><tspan class="TextParagraph" font-family="Liberation Sans, sans-serif" font-size="388px" font-weight="400"><tspan class="TextPosition" x="965" y="22367"><tspan fill="rgb(0,0,0)" stroke="none">0</tspan></tspan></tspan></text>
 <text class="TextShape"><tspan class="TextParagraph" font-family="Liberation Sans, sans-serif" font-size="388px" font-weight="400"><tspan class="TextPosition" x="542" y="17214"><tspan fill="rgb(0,0,0)" stroke="none">500</tspan></tspan></tspan></text>
 <text class="TextShape"><tspan class="TextParagraph" font-family="Liberation Sans, sans-serif" font-size="388px" font-weight="400"><tspan class="TextPosition" x="330" y="12061"><tspan fill="rgb(0,0,0)" stroke="none">1000</tspan></tspan></tspan></text>
 <text class="TextShape"><tspan class="TextParagraph" font-family="Liberation Sans, sans-serif" font-size="388px" font-weight="400"><tspan class="TextPosition" x="330" y="6908"><tspan fill="rgb(0,0,0)" stroke="none">1500</tspan></tspan></tspan></text>
 <text class="TextShape"><tspan class="TextParagraph" font-family="Liberation Sans, sans-serif" font-size="388px" font-weight="400"><tspan class="TextPosition" x="330" y="1756"><tspan fill="rgb(0,0,0)" stroke="none">2000</tspan></tspan></tspan></text>
 <text class="TextShape"><tspan class="TextParagraph" font-family="Liberation Sans, sans-serif" font-size="494px" font-weight="700"><tspan class="TextPosition" x="921" y="974"><tspan fill="rgb(0,0,0)" stroke="none">Poet aktivnch ppad na milin obyvatel (mtko do 2000 na milin obyvatel)</tspan></tspan></tspan></text>
 <path fill="none" stroke="rgb(141,40,30)" stroke-width="80" stroke-linejoin="round" stroke-dasharray="80,40" d="M 18843,2506 L 20443,2506"/>
 <path fill="none" stroke="rgb(255,64,0)" stroke-width="80" stroke-linejoin="round" stroke-dasharray="80,40" d="M 18843,3707 L 20443,3707"/>
 <path fill="none" stroke="rgb(0,223,255)" stroke-width="80" stroke-linejoin="round" stroke-dasharray="158,102" d="M 18843,4908 L 20443,4908"/>
 <path fill="none" stroke="rgb(21,132,102)" stroke-width="80" stroke-linejoin="round" stroke-dasharray="80,203,80,203,203,203" d="M 18843,6109 L 20443,6109"/>
 <path fill="none" stroke="rgb(191,0,65)" stroke-width="80" stroke-linejoin="round" stroke-dasharray="51,127,51,127,254,127,254,127,254,127" d="M 18843,7310 L 20443,7310"/>
 <path fill="none" stroke="rgb(255,211,32)" stroke-width="80" stroke-linejoin="round" d="M 18843,8511 L 20443,8511"/>
 <path fill="none" stroke="rgb(128,0,128)" stroke-width="80" stroke-linejoin="round" stroke-dasharray="158,158" d="M 18843,9712 L 20443,9712"/>
 <path fill="none" stroke="rgb(0,255,0)" stroke-width="80" stroke-linejoin="round" d="M 18843,10913 L 20443,10913"/>
 <path fill="none" stroke="rgb(131,202,255)" stroke-width="80" stroke-linejoin="round" d="M 18843,12113 L 20443,12113"/>
 <path fill="none" stroke="rgb(0,169,51)" stroke-width="80" stroke-linejoin="round" d="M 18843,13314 L 20443,13314"/>
 <path fill="none" stroke="rgb(0,169,51)" stroke-width="80" stroke-linejoin="round" stroke-dasharray="158,102" d="M 18843,14515 L 20443,14515"/>
 <path fill="none" stroke="rgb(0,169,51)" stroke-width="80" stroke-linejoin="round" stroke-dasharray="80,40" d="M 18843,15716 L 20443,15716"/>
 <path fill="none" stroke="rgb(255,0,0)" stroke-width="80" stroke-linejoin="round" stroke-dasharray="158,102" d="M 18843,16917 L 20443,16917"/>
 <path fill="none" stroke="rgb(180,120,4)" stroke-width="80" stroke-linejoin="round" d="M 18843,18118 L 20443,18118"/>
 <path fill="none" stroke="rgb(0,0,0)" stroke-width="80" stroke-linejoin="round" d="M 18843,19319 L 20443,19319"/>
 <path fill="none" stroke="rgb(85,48,141)" stroke-width="80" stroke-linejoin="round" stroke-dasharray="80,40" d="M 18843,20520 L 20443,20520"/>
 <path fill="none" stroke="rgb(0,0,255)" stroke-width="80" stroke-linejoin="round" stroke-dasharray="158,158" d="M 18843,21721 L 20443,21721"/>
 <text class="TextShape"><tspan class="TextParagraph" font-family="Liberation Sans, sans-serif" font-size="423px" font-weight="400"><tspan class="TextPosition" x="20543" y="2654"><tspan fill="rgb(0,0,0)" stroke="none">USA</tspan></tspan></tspan></text>
 <text class="TextShape"><tspan class="TextParagraph" font-family="Liberation Sans, sans-serif" font-size="423px" font-weight="400"><tspan class="TextPosition" x="20543" y="3855"><tspan fill="rgb(0,0,0)" stroke="none">Brazlie</tspan></tspan></tspan></text>
 <text class="TextShape"><tspan class="TextParagraph" font-family="Liberation Sans, sans-serif" font-size="423px" font-weight="400"><tspan class="TextPosition" x="20543" y="5056"><tspan fill="rgb(0,0,0)" stroke="none">Rusko</tspan></tspan></tspan></text>
 <text class="TextShape"><tspan class="TextParagraph" font-family="Liberation Sans, sans-serif" font-size="423px" font-weight="400"><tspan class="TextPosition" x="20543" y="6257"><tspan fill="rgb(0,0,0)" stroke="none">celosvtov</tspan></tspan></tspan></text>
 <text class="TextShape"><tspan class="TextParagraph" font-family="Liberation Sans, sans-serif" font-size="423px" font-weight="400"><tspan class="TextPosition" x="20543" y="7458"><tspan fill="rgb(0,0,0)" stroke="none">EU_nov zem</tspan></tspan></tspan></text>
 <text class="TextShape"><tspan class="TextParagraph" font-family="Liberation Sans, sans-serif" font-size="423px" font-weight="400"><tspan class="TextPosition" x="20543" y="8659"><tspan fill="rgb(0,0,0)" stroke="none">esko</tspan></tspan></tspan></text>
 <text class="TextShape"><tspan class="TextParagraph" font-family="Liberation Sans, sans-serif" font-size="423px" font-weight="400"><tspan class="TextPosition" x="20543" y="9860"><tspan fill="rgb(0,0,0)" stroke="none">Indie</tspan></tspan></tspan></text>
 <text class="TextShape"><tspan class="TextParagraph" font-family="Liberation Sans, sans-serif" font-size="423px" font-weight="400"><tspan class="TextPosition" x="20543" y="11061"><tspan fill="rgb(0,0,0)" stroke="none">vcarsko</tspan></tspan></tspan></text>
 <text class="TextShape"><tspan class="TextParagraph" font-family="Liberation Sans, sans-serif" font-size="423px" font-weight="400"><tspan class="TextPosition" x="20543" y="12261"><tspan fill="rgb(0,0,0)" stroke="none">Itlie</tspan></tspan></tspan></text>
 <text class="TextShape"><tspan class="TextParagraph" font-family="Liberation Sans, sans-serif" font-size="423px" font-weight="400"><tspan class="TextPosition" x="20543" y="13462"><tspan fill="rgb(0,0,0)" stroke="none">Rakousko</tspan></tspan></tspan></text>
 <text class="TextShape"><tspan class="TextParagraph" font-family="Liberation Sans, sans-serif" font-size="423px" font-weight="400"><tspan class="TextPosition" x="20543" y="14663"><tspan fill="rgb(0,0,0)" stroke="none">rn</tspan></tspan></tspan></text>
 <text class="TextShape"><tspan class="TextParagraph" font-family="Liberation Sans, sans-serif" font-size="423px" font-weight="400"><tspan class="TextPosition" x="20543" y="15864"><tspan fill="rgb(0,0,0)" stroke="none">Mexiko</tspan></tspan></tspan></text>
 <text class="TextShape"><tspan class="TextParagraph" font-family="Liberation Sans, sans-serif" font-size="423px" font-weight="400"><tspan class="TextPosition" x="20543" y="17065"><tspan fill="rgb(0,0,0)" stroke="none">Turecko</tspan></tspan></tspan></text>
 <text class="TextShape"><tspan class="TextParagraph" font-family="Liberation Sans, sans-serif" font-size="423px" font-weight="400"><tspan class="TextPosition" x="20543" y="18266"><tspan fill="rgb(0,0,0)" stroke="none">Dnsko</tspan></tspan></tspan></text>
 <text class="TextShape"><tspan class="TextParagraph" font-family="Liberation Sans, sans-serif" font-size="423px" font-weight="400"><tspan class="TextPosition" x="20543" y="19467"><tspan fill="rgb(0,0,0)" stroke="none">Nmecko</tspan></tspan></tspan></text>
 <text class="TextShape"><tspan class="TextParagraph" font-family="Liberation Sans, sans-serif" font-size="423px" font-weight="400"><tspan class="TextPosition" x="20543" y="20668"><tspan fill="rgb(0,0,0)" stroke="none">Kanada</tspan></tspan></tspan></text>
 <text class="TextShape"><tspan class="TextParagraph" font-family="Liberation Sans, sans-serif" font-size="423px" font-weight="400"><tspan class="TextPosition" x="20543" y="21869"><tspan fill="rgb(0,0,0)" stroke="none">Jin Korea</tspan></tspan></tspan></text>
</svg>