<?xml version="1.0" encoding="UTF-8"?>
<!DOCTYPE svg PUBLIC "-//W3C//DTD SVG 1.1//EN" "http://www.w3.org/Graphics/SVG/1.1/DTD/svg11.dtd">
<svg width="236mm" height="250mm" viewBox="0 0 23600 25000" version="1.1" xmlns="http://www.w3.org/2000/svg" xmlns:xlink="http://www.w3.org/1999/xlink" stroke-width="28.222" stroke-linejoin="round" xml:space="preserve">
 <path fill="rgb(255,255,255)" stroke="none" d="M 11800,25000 L 0,25000 0,0 23600,0 23600,25000 11800,25000 Z"/>
 <path fill="none" stroke="rgb(179,179,179)" stroke-linejoin="round" d="M 10027,23350 L 1413,23350 1413,1712 18641,1712 18641,23350 10027,23350 Z"/>
 <path fill="none" stroke="rgb(179,179,179)" stroke-linejoin="round" d="M 18641,23349 L 1413,23349"/>
 <path fill="none" stroke="rgb(179,179,179)" stroke-linejoin="round" d="M 18641,19742 L 1413,19742"/>
 <path fill="none" stroke="rgb(179,179,179)" stroke-linejoin="round" d="M 18641,16136 L 1413,16136"/>
 <path fill="none" stroke="rgb(179,179,179)" stroke-linejoin="round" d="M 18641,12529 L 1413,12529"/>
 <path fill="none" stroke="rgb(179,179,179)" stroke-linejoin="round" d="M 18641,8924 L 1413,8924"/>
 <path fill="none" stroke="rgb(179,179,179)" stroke-linejoin="round" d="M 18641,5317 L 1413,5317"/>
 <path fill="none" stroke="rgb(179,179,179)" stroke-linejoin="round" d="M 18641,1711 L 1413,1711"/>
 <path fill="none" stroke="rgb(179,179,179)" stroke-linejoin="round" d="M 1413,23499 L 1413,23349"/>
 <path fill="none" stroke="rgb(179,179,179)" stroke-linejoin="round" d="M 1413,23499 L 1413,23349"/>
 <path fill="none" stroke="rgb(179,179,179)" stroke-linejoin="round" d="M 1520,23499 L 1520,23349"/>
 <path fill="none" stroke="rgb(179,179,179)" stroke-linejoin="round" d="M 1520,23499 L 1520,23349"/>
 <path fill="none" stroke="rgb(179,179,179)" stroke-linejoin="round" d="M 1627,23499 L 1627,23349"/>
 <path fill="none" stroke="rgb(179,179,179)" stroke-linejoin="round" d="M 1627,23499 L 1627,23349"/>
 <path fill="none" stroke="rgb(179,179,179)" stroke-linejoin="round" d="M 1734,23499 L 1734,23349"/>
 <path fill="none" stroke="rgb(179,179,179)" stroke-linejoin="round" d="M 1734,23499 L 1734,23349"/>
 <path fill="none" stroke="rgb(179,179,179)" stroke-linejoin="round" d="M 1841,23499 L 1841,23349"/>
 <path fill="none" stroke="rgb(179,179,179)" stroke-linejoin="round" d="M 1841,23499 L 1841,23349"/>
 <path fill="none" stroke="rgb(179,179,179)" stroke-linejoin="round" d="M 1948,23499 L 1948,23349"/>
 <path fill="none" stroke="rgb(179,179,179)" stroke-linejoin="round" d="M 1948,23499 L 1948,23349"/>
 <path fill="none" stroke="rgb(179,179,179)" stroke-linejoin="round" d="M 2055,23499 L 2055,23349"/>
 <path fill="none" stroke="rgb(179,179,179)" stroke-linejoin="round" d="M 2055,23499 L 2055,23349"/>
 <path fill="none" stroke="rgb(179,179,179)" stroke-linejoin="round" d="M 2162,23499 L 2162,23349"/>
 <path fill="none" stroke="rgb(179,179,179)" stroke-linejoin="round" d="M 2162,23499 L 2162,23349"/>
 <path fill="none" stroke="rgb(179,179,179)" stroke-linejoin="round" d="M 2269,23499 L 2269,23349"/>
 <path fill="none" stroke="rgb(179,179,179)" stroke-linejoin="round" d="M 2269,23499 L 2269,23349"/>
 <path fill="none" stroke="rgb(179,179,179)" stroke-linejoin="round" d="M 2376,23499 L 2376,23349"/>
 <path fill="none" stroke="rgb(179,179,179)" stroke-linejoin="round" d="M 2376,23499 L 2376,23349"/>
 <path fill="none" stroke="rgb(179,179,179)" stroke-linejoin="round" d="M 2483,23499 L 2483,23349"/>
 <path fill="none" stroke="rgb(179,179,179)" stroke-linejoin="round" d="M 2483,23499 L 2483,23349"/>
 <path fill="none" stroke="rgb(179,179,179)" stroke-linejoin="round" d="M 2590,23499 L 2590,23349"/>
 <path fill="none" stroke="rgb(179,179,179)" stroke-linejoin="round" d="M 2590,23499 L 2590,23349"/>
 <path fill="none" stroke="rgb(179,179,179)" stroke-linejoin="round" d="M 2697,23499 L 2697,23349"/>
 <path fill="none" stroke="rgb(179,179,179)" stroke-linejoin="round" d="M 2697,23499 L 2697,23349"/>
 <path fill="none" stroke="rgb(179,179,179)" stroke-linejoin="round" d="M 2804,23499 L 2804,23349"/>
 <path fill="none" stroke="rgb(179,179,179)" stroke-linejoin="round" d="M 2804,23499 L 2804,23349"/>
 <path fill="none" stroke="rgb(179,179,179)" stroke-linejoin="round" d="M 2911,23499 L 2911,23349"/>
 <path fill="none" stroke="rgb(179,179,179)" stroke-linejoin="round" d="M 2911,23499 L 2911,23349"/>
 <path fill="none" stroke="rgb(179,179,179)" stroke-linejoin="round" d="M 3018,23499 L 3018,23349"/>
 <path fill="none" stroke="rgb(179,179,179)" stroke-linejoin="round" d="M 3018,23499 L 3018,23349"/>
 <path fill="none" stroke="rgb(179,179,179)" stroke-linejoin="round" d="M 3125,23499 L 3125,23349"/>
 <path fill="none" stroke="rgb(179,179,179)" stroke-linejoin="round" d="M 3125,23499 L 3125,23349"/>
 <path fill="none" stroke="rgb(179,179,179)" stroke-linejoin="round" d="M 3232,23499 L 3232,23349"/>
 <path fill="none" stroke="rgb(179,179,179)" stroke-linejoin="round" d="M 3232,23499 L 3232,23349"/>
 <path fill="none" stroke="rgb(179,179,179)" stroke-linejoin="round" d="M 3339,23499 L 3339,23349"/>
 <path fill="none" stroke="rgb(179,179,179)" stroke-linejoin="round" d="M 3339,23499 L 3339,23349"/>
 <path fill="none" stroke="rgb(179,179,179)" stroke-linejoin="round" d="M 3446,23499 L 3446,23349"/>
 <path fill="none" stroke="rgb(179,179,179)" stroke-linejoin="round" d="M 3446,23499 L 3446,23349"/>
 <path fill="none" stroke="rgb(179,179,179)" stroke-linejoin="round" d="M 3553,23499 L 3553,23349"/>
 <path fill="none" stroke="rgb(179,179,179)" stroke-linejoin="round" d="M 3553,23499 L 3553,23349"/>
 <path fill="none" stroke="rgb(179,179,179)" stroke-linejoin="round" d="M 3660,23499 L 3660,23349"/>
 <path fill="none" stroke="rgb(179,179,179)" stroke-linejoin="round" d="M 3660,23499 L 3660,23349"/>
 <path fill="none" stroke="rgb(179,179,179)" stroke-linejoin="round" d="M 3767,23499 L 3767,23349"/>
 <path fill="none" stroke="rgb(179,179,179)" stroke-linejoin="round" d="M 3767,23499 L 3767,23349"/>
 <path fill="none" stroke="rgb(179,179,179)" stroke-linejoin="round" d="M 3874,23499 L 3874,23349"/>
 <path fill="none" stroke="rgb(179,179,179)" stroke-linejoin="round" d="M 3874,23499 L 3874,23349"/>
 <path fill="none" stroke="rgb(179,179,179)" stroke-linejoin="round" d="M 3981,23499 L 3981,23349"/>
 <path fill="none" stroke="rgb(179,179,179)" stroke-linejoin="round" d="M 3981,23499 L 3981,23349"/>
 <path fill="none" stroke="rgb(179,179,179)" stroke-linejoin="round" d="M 4088,23499 L 4088,23349"/>
 <path fill="none" stroke="rgb(179,179,179)" stroke-linejoin="round" d="M 4088,23499 L 4088,23349"/>
 <path fill="none" stroke="rgb(179,179,179)" stroke-linejoin="round" d="M 4195,23499 L 4195,23349"/>
 <path fill="none" stroke="rgb(179,179,179)" stroke-linejoin="round" d="M 4195,23499 L 4195,23349"/>
 <path fill="none" stroke="rgb(179,179,179)" stroke-linejoin="round" d="M 4302,23499 L 4302,23349"/>
 <path fill="none" stroke="rgb(179,179,179)" stroke-linejoin="round" d="M 4302,23499 L 4302,23349"/>
 <path fill="none" stroke="rgb(179,179,179)" stroke-linejoin="round" d="M 4409,23499 L 4409,23349"/>
 <path fill="none" stroke="rgb(179,179,179)" stroke-linejoin="round" d="M 4409,23499 L 4409,23349"/>
 <path fill="none" stroke="rgb(179,179,179)" stroke-linejoin="round" d="M 4516,23499 L 4516,23349"/>
 <path fill="none" stroke="rgb(179,179,179)" stroke-linejoin="round" d="M 4516,23499 L 4516,23349"/>
 <path fill="none" stroke="rgb(179,179,179)" stroke-linejoin="round" d="M 4623,23499 L 4623,23349"/>
 <path fill="none" stroke="rgb(179,179,179)" stroke-linejoin="round" d="M 4623,23499 L 4623,23349"/>
 <path fill="none" stroke="rgb(179,179,179)" stroke-linejoin="round" d="M 4730,23499 L 4730,23349"/>
 <path fill="none" stroke="rgb(179,179,179)" stroke-linejoin="round" d="M 4730,23499 L 4730,23349"/>
 <path fill="none" stroke="rgb(179,179,179)" stroke-linejoin="round" d="M 4837,23499 L 4837,23349"/>
 <path fill="none" stroke="rgb(179,179,179)" stroke-linejoin="round" d="M 4837,23499 L 4837,23349"/>
 <path fill="none" stroke="rgb(179,179,179)" stroke-linejoin="round" d="M 4944,23499 L 4944,23349"/>
 <path fill="none" stroke="rgb(179,179,179)" stroke-linejoin="round" d="M 4944,23499 L 4944,23349"/>
 <path fill="none" stroke="rgb(179,179,179)" stroke-linejoin="round" d="M 5051,23499 L 5051,23349"/>
 <path fill="none" stroke="rgb(179,179,179)" stroke-linejoin="round" d="M 5051,23499 L 5051,23349"/>
 <path fill="none" stroke="rgb(179,179,179)" stroke-linejoin="round" d="M 5158,23499 L 5158,23349"/>
 <path fill="none" stroke="rgb(179,179,179)" stroke-linejoin="round" d="M 5158,23499 L 5158,23349"/>
 <path fill="none" stroke="rgb(179,179,179)" stroke-linejoin="round" d="M 5265,23499 L 5265,23349"/>
 <path fill="none" stroke="rgb(179,179,179)" stroke-linejoin="round" d="M 5265,23499 L 5265,23349"/>
 <path fill="none" stroke="rgb(179,179,179)" stroke-linejoin="round" d="M 5372,23499 L 5372,23349"/>
 <path fill="none" stroke="rgb(179,179,179)" stroke-linejoin="round" d="M 5372,23499 L 5372,23349"/>
 <path fill="none" stroke="rgb(179,179,179)" stroke-linejoin="round" d="M 5479,23499 L 5479,23349"/>
 <path fill="none" stroke="rgb(179,179,179)" stroke-linejoin="round" d="M 5479,23499 L 5479,23349"/>
 <path fill="none" stroke="rgb(179,179,179)" stroke-linejoin="round" d="M 5586,23499 L 5586,23349"/>
 <path fill="none" stroke="rgb(179,179,179)" stroke-linejoin="round" d="M 5586,23499 L 5586,23349"/>
 <path fill="none" stroke="rgb(179,179,179)" stroke-linejoin="round" d="M 5693,23499 L 5693,23349"/>
 <path fill="none" stroke="rgb(179,179,179)" stroke-linejoin="round" d="M 5693,23499 L 5693,23349"/>
 <path fill="none" stroke="rgb(179,179,179)" stroke-linejoin="round" d="M 5800,23499 L 5800,23349"/>
 <path fill="none" stroke="rgb(179,179,179)" stroke-linejoin="round" d="M 5800,23499 L 5800,23349"/>
 <path fill="none" stroke="rgb(179,179,179)" stroke-linejoin="round" d="M 5907,23499 L 5907,23349"/>
 <path fill="none" stroke="rgb(179,179,179)" stroke-linejoin="round" d="M 5907,23499 L 5907,23349"/>
 <path fill="none" stroke="rgb(179,179,179)" stroke-linejoin="round" d="M 6014,23499 L 6014,23349"/>
 <path fill="none" stroke="rgb(179,179,179)" stroke-linejoin="round" d="M 6014,23499 L 6014,23349"/>
 <path fill="none" stroke="rgb(179,179,179)" stroke-linejoin="round" d="M 6121,23499 L 6121,23349"/>
 <path fill="none" stroke="rgb(179,179,179)" stroke-linejoin="round" d="M 6121,23499 L 6121,23349"/>
 <path fill="none" stroke="rgb(179,179,179)" stroke-linejoin="round" d="M 6228,23499 L 6228,23349"/>
 <path fill="none" stroke="rgb(179,179,179)" stroke-linejoin="round" d="M 6228,23499 L 6228,23349"/>
 <path fill="none" stroke="rgb(179,179,179)" stroke-linejoin="round" d="M 6335,23499 L 6335,23349"/>
 <path fill="none" stroke="rgb(179,179,179)" stroke-linejoin="round" d="M 6335,23499 L 6335,23349"/>
 <path fill="none" stroke="rgb(179,179,179)" stroke-linejoin="round" d="M 6442,23499 L 6442,23349"/>
 <path fill="none" stroke="rgb(179,179,179)" stroke-linejoin="round" d="M 6442,23499 L 6442,23349"/>
 <path fill="none" stroke="rgb(179,179,179)" stroke-linejoin="round" d="M 6549,23499 L 6549,23349"/>
 <path fill="none" stroke="rgb(179,179,179)" stroke-linejoin="round" d="M 6549,23499 L 6549,23349"/>
 <path fill="none" stroke="rgb(179,179,179)" stroke-linejoin="round" d="M 6656,23499 L 6656,23349"/>
 <path fill="none" stroke="rgb(179,179,179)" stroke-linejoin="round" d="M 6656,23499 L 6656,23349"/>
 <path fill="none" stroke="rgb(179,179,179)" stroke-linejoin="round" d="M 6763,23499 L 6763,23349"/>
 <path fill="none" stroke="rgb(179,179,179)" stroke-linejoin="round" d="M 6763,23499 L 6763,23349"/>
 <path fill="none" stroke="rgb(179,179,179)" stroke-linejoin="round" d="M 6870,23499 L 6870,23349"/>
 <path fill="none" stroke="rgb(179,179,179)" stroke-linejoin="round" d="M 6870,23499 L 6870,23349"/>
 <path fill="none" stroke="rgb(179,179,179)" stroke-linejoin="round" d="M 6977,23499 L 6977,23349"/>
 <path fill="none" stroke="rgb(179,179,179)" stroke-linejoin="round" d="M 6977,23499 L 6977,23349"/>
 <path fill="none" stroke="rgb(179,179,179)" stroke-linejoin="round" d="M 7084,23499 L 7084,23349"/>
 <path fill="none" stroke="rgb(179,179,179)" stroke-linejoin="round" d="M 7084,23499 L 7084,23349"/>
 <path fill="none" stroke="rgb(179,179,179)" stroke-linejoin="round" d="M 7191,23499 L 7191,23349"/>
 <path fill="none" stroke="rgb(179,179,179)" stroke-linejoin="round" d="M 7191,23499 L 7191,23349"/>
 <path fill="none" stroke="rgb(179,179,179)" stroke-linejoin="round" d="M 7298,23499 L 7298,23349"/>
 <path fill="none" stroke="rgb(179,179,179)" stroke-linejoin="round" d="M 7298,23499 L 7298,23349"/>
 <path fill="none" stroke="rgb(179,179,179)" stroke-linejoin="round" d="M 7405,23499 L 7405,23349"/>
 <path fill="none" stroke="rgb(179,179,179)" stroke-linejoin="round" d="M 7405,23499 L 7405,23349"/>
 <path fill="none" stroke="rgb(179,179,179)" stroke-linejoin="round" d="M 7512,23499 L 7512,23349"/>
 <path fill="none" stroke="rgb(179,179,179)" stroke-linejoin="round" d="M 7512,23499 L 7512,23349"/>
 <path fill="none" stroke="rgb(179,179,179)" stroke-linejoin="round" d="M 7619,23499 L 7619,23349"/>
 <path fill="none" stroke="rgb(179,179,179)" stroke-linejoin="round" d="M 7619,23499 L 7619,23349"/>
 <path fill="none" stroke="rgb(179,179,179)" stroke-linejoin="round" d="M 7726,23499 L 7726,23349"/>
 <path fill="none" stroke="rgb(179,179,179)" stroke-linejoin="round" d="M 7726,23499 L 7726,23349"/>
 <path fill="none" stroke="rgb(179,179,179)" stroke-linejoin="round" d="M 7833,23499 L 7833,23349"/>
 <path fill="none" stroke="rgb(179,179,179)" stroke-linejoin="round" d="M 7833,23499 L 7833,23349"/>
 <path fill="none" stroke="rgb(179,179,179)" stroke-linejoin="round" d="M 7940,23499 L 7940,23349"/>
 <path fill="none" stroke="rgb(179,179,179)" stroke-linejoin="round" d="M 7940,23499 L 7940,23349"/>
 <path fill="none" stroke="rgb(179,179,179)" stroke-linejoin="round" d="M 8047,23499 L 8047,23349"/>
 <path fill="none" stroke="rgb(179,179,179)" stroke-linejoin="round" d="M 8047,23499 L 8047,23349"/>
 <path fill="none" stroke="rgb(179,179,179)" stroke-linejoin="round" d="M 8154,23499 L 8154,23349"/>
 <path fill="none" stroke="rgb(179,179,179)" stroke-linejoin="round" d="M 8154,23499 L 8154,23349"/>
 <path fill="none" stroke="rgb(179,179,179)" stroke-linejoin="round" d="M 8261,23499 L 8261,23349"/>
 <path fill="none" stroke="rgb(179,179,179)" stroke-linejoin="round" d="M 8261,23499 L 8261,23349"/>
 <path fill="none" stroke="rgb(179,179,179)" stroke-linejoin="round" d="M 8368,23499 L 8368,23349"/>
 <path fill="none" stroke="rgb(179,179,179)" stroke-linejoin="round" d="M 8368,23499 L 8368,23349"/>
 <path fill="none" stroke="rgb(179,179,179)" stroke-linejoin="round" d="M 8475,23499 L 8475,23349"/>
 <path fill="none" stroke="rgb(179,179,179)" stroke-linejoin="round" d="M 8475,23499 L 8475,23349"/>
 <path fill="none" stroke="rgb(179,179,179)" stroke-linejoin="round" d="M 8582,23499 L 8582,23349"/>
 <path fill="none" stroke="rgb(179,179,179)" stroke-linejoin="round" d="M 8582,23499 L 8582,23349"/>
 <path fill="none" stroke="rgb(179,179,179)" stroke-linejoin="round" d="M 8689,23499 L 8689,23349"/>
 <path fill="none" stroke="rgb(179,179,179)" stroke-linejoin="round" d="M 8689,23499 L 8689,23349"/>
 <path fill="none" stroke="rgb(179,179,179)" stroke-linejoin="round" d="M 8796,23499 L 8796,23349"/>
 <path fill="none" stroke="rgb(179,179,179)" stroke-linejoin="round" d="M 8796,23499 L 8796,23349"/>
 <path fill="none" stroke="rgb(179,179,179)" stroke-linejoin="round" d="M 8903,23499 L 8903,23349"/>
 <path fill="none" stroke="rgb(179,179,179)" stroke-linejoin="round" d="M 8903,23499 L 8903,23349"/>
 <path fill="none" stroke="rgb(179,179,179)" stroke-linejoin="round" d="M 9010,23499 L 9010,23349"/>
 <path fill="none" stroke="rgb(179,179,179)" stroke-linejoin="round" d="M 9010,23499 L 9010,23349"/>
 <path fill="none" stroke="rgb(179,179,179)" stroke-linejoin="round" d="M 9117,23499 L 9117,23349"/>
 <path fill="none" stroke="rgb(179,179,179)" stroke-linejoin="round" d="M 9117,23499 L 9117,23349"/>
 <path fill="none" stroke="rgb(179,179,179)" stroke-linejoin="round" d="M 9224,23499 L 9224,23349"/>
 <path fill="none" stroke="rgb(179,179,179)" stroke-linejoin="round" d="M 9224,23499 L 9224,23349"/>
 <path fill="none" stroke="rgb(179,179,179)" stroke-linejoin="round" d="M 9331,23499 L 9331,23349"/>
 <path fill="none" stroke="rgb(179,179,179)" stroke-linejoin="round" d="M 9331,23499 L 9331,23349"/>
 <path fill="none" stroke="rgb(179,179,179)" stroke-linejoin="round" d="M 9438,23499 L 9438,23349"/>
 <path fill="none" stroke="rgb(179,179,179)" stroke-linejoin="round" d="M 9438,23499 L 9438,23349"/>
 <path fill="none" stroke="rgb(179,179,179)" stroke-linejoin="round" d="M 9545,23499 L 9545,23349"/>
 <path fill="none" stroke="rgb(179,179,179)" stroke-linejoin="round" d="M 9545,23499 L 9545,23349"/>
 <path fill="none" stroke="rgb(179,179,179)" stroke-linejoin="round" d="M 9652,23499 L 9652,23349"/>
 <path fill="none" stroke="rgb(179,179,179)" stroke-linejoin="round" d="M 9652,23499 L 9652,23349"/>
 <path fill="none" stroke="rgb(179,179,179)" stroke-linejoin="round" d="M 9759,23499 L 9759,23349"/>
 <path fill="none" stroke="rgb(179,179,179)" stroke-linejoin="round" d="M 9759,23499 L 9759,23349"/>
 <path fill="none" stroke="rgb(179,179,179)" stroke-linejoin="round" d="M 9866,23499 L 9866,23349"/>
 <path fill="none" stroke="rgb(179,179,179)" stroke-linejoin="round" d="M 9866,23499 L 9866,23349"/>
 <path fill="none" stroke="rgb(179,179,179)" stroke-linejoin="round" d="M 9973,23499 L 9973,23349"/>
 <path fill="none" stroke="rgb(179,179,179)" stroke-linejoin="round" d="M 9973,23499 L 9973,23349"/>
 <path fill="none" stroke="rgb(179,179,179)" stroke-linejoin="round" d="M 10081,23499 L 10081,23349"/>
 <path fill="none" stroke="rgb(179,179,179)" stroke-linejoin="round" d="M 10081,23499 L 10081,23349"/>
 <path fill="none" stroke="rgb(179,179,179)" stroke-linejoin="round" d="M 10188,23499 L 10188,23349"/>
 <path fill="none" stroke="rgb(179,179,179)" stroke-linejoin="round" d="M 10188,23499 L 10188,23349"/>
 <path fill="none" stroke="rgb(179,179,179)" stroke-linejoin="round" d="M 10295,23499 L 10295,23349"/>
 <path fill="none" stroke="rgb(179,179,179)" stroke-linejoin="round" d="M 10295,23499 L 10295,23349"/>
 <path fill="none" stroke="rgb(179,179,179)" stroke-linejoin="round" d="M 10402,23499 L 10402,23349"/>
 <path fill="none" stroke="rgb(179,179,179)" stroke-linejoin="round" d="M 10402,23499 L 10402,23349"/>
 <path fill="none" stroke="rgb(179,179,179)" stroke-linejoin="round" d="M 10509,23499 L 10509,23349"/>
 <path fill="none" stroke="rgb(179,179,179)" stroke-linejoin="round" d="M 10509,23499 L 10509,23349"/>
 <path fill="none" stroke="rgb(179,179,179)" stroke-linejoin="round" d="M 10616,23499 L 10616,23349"/>
 <path fill="none" stroke="rgb(179,179,179)" stroke-linejoin="round" d="M 10616,23499 L 10616,23349"/>
 <path fill="none" stroke="rgb(179,179,179)" stroke-linejoin="round" d="M 10723,23499 L 10723,23349"/>
 <path fill="none" stroke="rgb(179,179,179)" stroke-linejoin="round" d="M 10723,23499 L 10723,23349"/>
 <path fill="none" stroke="rgb(179,179,179)" stroke-linejoin="round" d="M 10830,23499 L 10830,23349"/>
 <path fill="none" stroke="rgb(179,179,179)" stroke-linejoin="round" d="M 10830,23499 L 10830,23349"/>
 <path fill="none" stroke="rgb(179,179,179)" stroke-linejoin="round" d="M 10937,23499 L 10937,23349"/>
 <path fill="none" stroke="rgb(179,179,179)" stroke-linejoin="round" d="M 10937,23499 L 10937,23349"/>
 <path fill="none" stroke="rgb(179,179,179)" stroke-linejoin="round" d="M 11044,23499 L 11044,23349"/>
 <path fill="none" stroke="rgb(179,179,179)" stroke-linejoin="round" d="M 11044,23499 L 11044,23349"/>
 <path fill="none" stroke="rgb(179,179,179)" stroke-linejoin="round" d="M 11151,23499 L 11151,23349"/>
 <path fill="none" stroke="rgb(179,179,179)" stroke-linejoin="round" d="M 11151,23499 L 11151,23349"/>
 <path fill="none" stroke="rgb(179,179,179)" stroke-linejoin="round" d="M 11258,23499 L 11258,23349"/>
 <path fill="none" stroke="rgb(179,179,179)" stroke-linejoin="round" d="M 11258,23499 L 11258,23349"/>
 <path fill="none" stroke="rgb(179,179,179)" stroke-linejoin="round" d="M 11365,23499 L 11365,23349"/>
 <path fill="none" stroke="rgb(179,179,179)" stroke-linejoin="round" d="M 11365,23499 L 11365,23349"/>
 <path fill="none" stroke="rgb(179,179,179)" stroke-linejoin="round" d="M 11472,23499 L 11472,23349"/>
 <path fill="none" stroke="rgb(179,179,179)" stroke-linejoin="round" d="M 11472,23499 L 11472,23349"/>
 <path fill="none" stroke="rgb(179,179,179)" stroke-linejoin="round" d="M 11579,23499 L 11579,23349"/>
 <path fill="none" stroke="rgb(179,179,179)" stroke-linejoin="round" d="M 11579,23499 L 11579,23349"/>
 <path fill="none" stroke="rgb(179,179,179)" stroke-linejoin="round" d="M 11686,23499 L 11686,23349"/>
 <path fill="none" stroke="rgb(179,179,179)" stroke-linejoin="round" d="M 11686,23499 L 11686,23349"/>
 <path fill="none" stroke="rgb(179,179,179)" stroke-linejoin="round" d="M 11793,23499 L 11793,23349"/>
 <path fill="none" stroke="rgb(179,179,179)" stroke-linejoin="round" d="M 11793,23499 L 11793,23349"/>
 <path fill="none" stroke="rgb(179,179,179)" stroke-linejoin="round" d="M 11899,23499 L 11899,23349"/>
 <path fill="none" stroke="rgb(179,179,179)" stroke-linejoin="round" d="M 11899,23499 L 11899,23349"/>
 <path fill="none" stroke="rgb(179,179,179)" stroke-linejoin="round" d="M 12006,23499 L 12006,23349"/>
 <path fill="none" stroke="rgb(179,179,179)" stroke-linejoin="round" d="M 12006,23499 L 12006,23349"/>
 <path fill="none" stroke="rgb(179,179,179)" stroke-linejoin="round" d="M 12113,23499 L 12113,23349"/>
 <path fill="none" stroke="rgb(179,179,179)" stroke-linejoin="round" d="M 12113,23499 L 12113,23349"/>
 <path fill="none" stroke="rgb(179,179,179)" stroke-linejoin="round" d="M 12220,23499 L 12220,23349"/>
 <path fill="none" stroke="rgb(179,179,179)" stroke-linejoin="round" d="M 12220,23499 L 12220,23349"/>
 <path fill="none" stroke="rgb(179,179,179)" stroke-linejoin="round" d="M 12327,23499 L 12327,23349"/>
 <path fill="none" stroke="rgb(179,179,179)" stroke-linejoin="round" d="M 12327,23499 L 12327,23349"/>
 <path fill="none" stroke="rgb(179,179,179)" stroke-linejoin="round" d="M 12434,23499 L 12434,23349"/>
 <path fill="none" stroke="rgb(179,179,179)" stroke-linejoin="round" d="M 12434,23499 L 12434,23349"/>
 <path fill="none" stroke="rgb(179,179,179)" stroke-linejoin="round" d="M 12541,23499 L 12541,23349"/>
 <path fill="none" stroke="rgb(179,179,179)" stroke-linejoin="round" d="M 12541,23499 L 12541,23349"/>
 <path fill="none" stroke="rgb(179,179,179)" stroke-linejoin="round" d="M 12648,23499 L 12648,23349"/>
 <path fill="none" stroke="rgb(179,179,179)" stroke-linejoin="round" d="M 12648,23499 L 12648,23349"/>
 <path fill="none" stroke="rgb(179,179,179)" stroke-linejoin="round" d="M 12755,23499 L 12755,23349"/>
 <path fill="none" stroke="rgb(179,179,179)" stroke-linejoin="round" d="M 12755,23499 L 12755,23349"/>
 <path fill="none" stroke="rgb(179,179,179)" stroke-linejoin="round" d="M 12862,23499 L 12862,23349"/>
 <path fill="none" stroke="rgb(179,179,179)" stroke-linejoin="round" d="M 12862,23499 L 12862,23349"/>
 <path fill="none" stroke="rgb(179,179,179)" stroke-linejoin="round" d="M 12969,23499 L 12969,23349"/>
 <path fill="none" stroke="rgb(179,179,179)" stroke-linejoin="round" d="M 12969,23499 L 12969,23349"/>
 <path fill="none" stroke="rgb(179,179,179)" stroke-linejoin="round" d="M 13076,23499 L 13076,23349"/>
 <path fill="none" stroke="rgb(179,179,179)" stroke-linejoin="round" d="M 13076,23499 L 13076,23349"/>
 <path fill="none" stroke="rgb(179,179,179)" stroke-linejoin="round" d="M 13183,23499 L 13183,23349"/>
 <path fill="none" stroke="rgb(179,179,179)" stroke-linejoin="round" d="M 13183,23499 L 13183,23349"/>
 <path fill="none" stroke="rgb(179,179,179)" stroke-linejoin="round" d="M 13290,23499 L 13290,23349"/>
 <path fill="none" stroke="rgb(179,179,179)" stroke-linejoin="round" d="M 13290,23499 L 13290,23349"/>
 <path fill="none" stroke="rgb(179,179,179)" stroke-linejoin="round" d="M 13397,23499 L 13397,23349"/>
 <path fill="none" stroke="rgb(179,179,179)" stroke-linejoin="round" d="M 13397,23499 L 13397,23349"/>
 <path fill="none" stroke="rgb(179,179,179)" stroke-linejoin="round" d="M 13504,23499 L 13504,23349"/>
 <path fill="none" stroke="rgb(179,179,179)" stroke-linejoin="round" d="M 13504,23499 L 13504,23349"/>
 <path fill="none" stroke="rgb(179,179,179)" stroke-linejoin="round" d="M 13611,23499 L 13611,23349"/>
 <path fill="none" stroke="rgb(179,179,179)" stroke-linejoin="round" d="M 13611,23499 L 13611,23349"/>
 <path fill="none" stroke="rgb(179,179,179)" stroke-linejoin="round" d="M 13718,23499 L 13718,23349"/>
 <path fill="none" stroke="rgb(179,179,179)" stroke-linejoin="round" d="M 13718,23499 L 13718,23349"/>
 <path fill="none" stroke="rgb(179,179,179)" stroke-linejoin="round" d="M 13825,23499 L 13825,23349"/>
 <path fill="none" stroke="rgb(179,179,179)" stroke-linejoin="round" d="M 13825,23499 L 13825,23349"/>
 <path fill="none" stroke="rgb(179,179,179)" stroke-linejoin="round" d="M 13932,23499 L 13932,23349"/>
 <path fill="none" stroke="rgb(179,179,179)" stroke-linejoin="round" d="M 13932,23499 L 13932,23349"/>
 <path fill="none" stroke="rgb(179,179,179)" stroke-linejoin="round" d="M 14039,23499 L 14039,23349"/>
 <path fill="none" stroke="rgb(179,179,179)" stroke-linejoin="round" d="M 14039,23499 L 14039,23349"/>
 <path fill="none" stroke="rgb(179,179,179)" stroke-linejoin="round" d="M 14146,23499 L 14146,23349"/>
 <path fill="none" stroke="rgb(179,179,179)" stroke-linejoin="round" d="M 14146,23499 L 14146,23349"/>
 <path fill="none" stroke="rgb(179,179,179)" stroke-linejoin="round" d="M 14253,23499 L 14253,23349"/>
 <path fill="none" stroke="rgb(179,179,179)" stroke-linejoin="round" d="M 14253,23499 L 14253,23349"/>
 <path fill="none" stroke="rgb(179,179,179)" stroke-linejoin="round" d="M 14360,23499 L 14360,23349"/>
 <path fill="none" stroke="rgb(179,179,179)" stroke-linejoin="round" d="M 14360,23499 L 14360,23349"/>
 <path fill="none" stroke="rgb(179,179,179)" stroke-linejoin="round" d="M 14467,23499 L 14467,23349"/>
 <path fill="none" stroke="rgb(179,179,179)" stroke-linejoin="round" d="M 14467,23499 L 14467,23349"/>
 <path fill="none" stroke="rgb(179,179,179)" stroke-linejoin="round" d="M 14574,23499 L 14574,23349"/>
 <path fill="none" stroke="rgb(179,179,179)" stroke-linejoin="round" d="M 14574,23499 L 14574,23349"/>
 <path fill="none" stroke="rgb(179,179,179)" stroke-linejoin="round" d="M 14681,23499 L 14681,23349"/>
 <path fill="none" stroke="rgb(179,179,179)" stroke-linejoin="round" d="M 14681,23499 L 14681,23349"/>
 <path fill="none" stroke="rgb(179,179,179)" stroke-linejoin="round" d="M 14788,23499 L 14788,23349"/>
 <path fill="none" stroke="rgb(179,179,179)" stroke-linejoin="round" d="M 14788,23499 L 14788,23349"/>
 <path fill="none" stroke="rgb(179,179,179)" stroke-linejoin="round" d="M 14895,23499 L 14895,23349"/>
 <path fill="none" stroke="rgb(179,179,179)" stroke-linejoin="round" d="M 14895,23499 L 14895,23349"/>
 <path fill="none" stroke="rgb(179,179,179)" stroke-linejoin="round" d="M 15002,23499 L 15002,23349"/>
 <path fill="none" stroke="rgb(179,179,179)" stroke-linejoin="round" d="M 15002,23499 L 15002,23349"/>
 <path fill="none" stroke="rgb(179,179,179)" stroke-linejoin="round" d="M 15109,23499 L 15109,23349"/>
 <path fill="none" stroke="rgb(179,179,179)" stroke-linejoin="round" d="M 15109,23499 L 15109,23349"/>
 <path fill="none" stroke="rgb(179,179,179)" stroke-linejoin="round" d="M 15216,23499 L 15216,23349"/>
 <path fill="none" stroke="rgb(179,179,179)" stroke-linejoin="round" d="M 15216,23499 L 15216,23349"/>
 <path fill="none" stroke="rgb(179,179,179)" stroke-linejoin="round" d="M 15323,23499 L 15323,23349"/>
 <path fill="none" stroke="rgb(179,179,179)" stroke-linejoin="round" d="M 15323,23499 L 15323,23349"/>
 <path fill="none" stroke="rgb(179,179,179)" stroke-linejoin="round" d="M 15430,23499 L 15430,23349"/>
 <path fill="none" stroke="rgb(179,179,179)" stroke-linejoin="round" d="M 15430,23499 L 15430,23349"/>
 <path fill="none" stroke="rgb(179,179,179)" stroke-linejoin="round" d="M 15537,23499 L 15537,23349"/>
 <path fill="none" stroke="rgb(179,179,179)" stroke-linejoin="round" d="M 15537,23499 L 15537,23349"/>
 <path fill="none" stroke="rgb(179,179,179)" stroke-linejoin="round" d="M 15644,23499 L 15644,23349"/>
 <path fill="none" stroke="rgb(179,179,179)" stroke-linejoin="round" d="M 15644,23499 L 15644,23349"/>
 <path fill="none" stroke="rgb(179,179,179)" stroke-linejoin="round" d="M 15751,23499 L 15751,23349"/>
 <path fill="none" stroke="rgb(179,179,179)" stroke-linejoin="round" d="M 15751,23499 L 15751,23349"/>
 <path fill="none" stroke="rgb(179,179,179)" stroke-linejoin="round" d="M 15858,23499 L 15858,23349"/>
 <path fill="none" stroke="rgb(179,179,179)" stroke-linejoin="round" d="M 15858,23499 L 15858,23349"/>
 <path fill="none" stroke="rgb(179,179,179)" stroke-linejoin="round" d="M 15965,23499 L 15965,23349"/>
 <path fill="none" stroke="rgb(179,179,179)" stroke-linejoin="round" d="M 15965,23499 L 15965,23349"/>
 <path fill="none" stroke="rgb(179,179,179)" stroke-linejoin="round" d="M 16072,23499 L 16072,23349"/>
 <path fill="none" stroke="rgb(179,179,179)" stroke-linejoin="round" d="M 16072,23499 L 16072,23349"/>
 <path fill="none" stroke="rgb(179,179,179)" stroke-linejoin="round" d="M 16179,23499 L 16179,23349"/>
 <path fill="none" stroke="rgb(179,179,179)" stroke-linejoin="round" d="M 16179,23499 L 16179,23349"/>
 <path fill="none" stroke="rgb(179,179,179)" stroke-linejoin="round" d="M 16286,23499 L 16286,23349"/>
 <path fill="none" stroke="rgb(179,179,179)" stroke-linejoin="round" d="M 16286,23499 L 16286,23349"/>
 <path fill="none" stroke="rgb(179,179,179)" stroke-linejoin="round" d="M 16393,23499 L 16393,23349"/>
 <path fill="none" stroke="rgb(179,179,179)" stroke-linejoin="round" d="M 16393,23499 L 16393,23349"/>
 <path fill="none" stroke="rgb(179,179,179)" stroke-linejoin="round" d="M 16500,23499 L 16500,23349"/>
 <path fill="none" stroke="rgb(179,179,179)" stroke-linejoin="round" d="M 16500,23499 L 16500,23349"/>
 <path fill="none" stroke="rgb(179,179,179)" stroke-linejoin="round" d="M 16607,23499 L 16607,23349"/>
 <path fill="none" stroke="rgb(179,179,179)" stroke-linejoin="round" d="M 16607,23499 L 16607,23349"/>
 <path fill="none" stroke="rgb(179,179,179)" stroke-linejoin="round" d="M 16714,23499 L 16714,23349"/>
 <path fill="none" stroke="rgb(179,179,179)" stroke-linejoin="round" d="M 16714,23499 L 16714,23349"/>
 <path fill="none" stroke="rgb(179,179,179)" stroke-linejoin="round" d="M 16821,23499 L 16821,23349"/>
 <path fill="none" stroke="rgb(179,179,179)" stroke-linejoin="round" d="M 16821,23499 L 16821,23349"/>
 <path fill="none" stroke="rgb(179,179,179)" stroke-linejoin="round" d="M 16928,23499 L 16928,23349"/>
 <path fill="none" stroke="rgb(179,179,179)" stroke-linejoin="round" d="M 16928,23499 L 16928,23349"/>
 <path fill="none" stroke="rgb(179,179,179)" stroke-linejoin="round" d="M 17035,23499 L 17035,23349"/>
 <path fill="none" stroke="rgb(179,179,179)" stroke-linejoin="round" d="M 17035,23499 L 17035,23349"/>
 <path fill="none" stroke="rgb(179,179,179)" stroke-linejoin="round" d="M 17142,23499 L 17142,23349"/>
 <path fill="none" stroke="rgb(179,179,179)" stroke-linejoin="round" d="M 17142,23499 L 17142,23349"/>
 <path fill="none" stroke="rgb(179,179,179)" stroke-linejoin="round" d="M 17249,23499 L 17249,23349"/>
 <path fill="none" stroke="rgb(179,179,179)" stroke-linejoin="round" d="M 17249,23499 L 17249,23349"/>
 <path fill="none" stroke="rgb(179,179,179)" stroke-linejoin="round" d="M 17356,23499 L 17356,23349"/>
 <path fill="none" stroke="rgb(179,179,179)" stroke-linejoin="round" d="M 17356,23499 L 17356,23349"/>
 <path fill="none" stroke="rgb(179,179,179)" stroke-linejoin="round" d="M 17463,23499 L 17463,23349"/>
 <path fill="none" stroke="rgb(179,179,179)" stroke-linejoin="round" d="M 17463,23499 L 17463,23349"/>
 <path fill="none" stroke="rgb(179,179,179)" stroke-linejoin="round" d="M 17570,23499 L 17570,23349"/>
 <path fill="none" stroke="rgb(179,179,179)" stroke-linejoin="round" d="M 17570,23499 L 17570,23349"/>
 <path fill="none" stroke="rgb(179,179,179)" stroke-linejoin="round" d="M 17677,23499 L 17677,23349"/>
 <path fill="none" stroke="rgb(179,179,179)" stroke-linejoin="round" d="M 17677,23499 L 17677,23349"/>
 <path fill="none" stroke="rgb(179,179,179)" stroke-linejoin="round" d="M 17784,23499 L 17784,23349"/>
 <path fill="none" stroke="rgb(179,179,179)" stroke-linejoin="round" d="M 17784,23499 L 17784,23349"/>
 <path fill="none" stroke="rgb(179,179,179)" stroke-linejoin="round" d="M 17891,23499 L 17891,23349"/>
 <path fill="none" stroke="rgb(179,179,179)" stroke-linejoin="round" d="M 17891,23499 L 17891,23349"/>
 <path fill="none" stroke="rgb(179,179,179)" stroke-linejoin="round" d="M 17998,23499 L 17998,23349"/>
 <path fill="none" stroke="rgb(179,179,179)" stroke-linejoin="round" d="M 17998,23499 L 17998,23349"/>
 <path fill="none" stroke="rgb(179,179,179)" stroke-linejoin="round" d="M 18105,23499 L 18105,23349"/>
 <path fill="none" stroke="rgb(179,179,179)" stroke-linejoin="round" d="M 18105,23499 L 18105,23349"/>
 <path fill="none" stroke="rgb(179,179,179)" stroke-linejoin="round" d="M 18212,23499 L 18212,23349"/>
 <path fill="none" stroke="rgb(179,179,179)" stroke-linejoin="round" d="M 18212,23499 L 18212,23349"/>
 <path fill="none" stroke="rgb(179,179,179)" stroke-linejoin="round" d="M 18319,23499 L 18319,23349"/>
 <path fill="none" stroke="rgb(179,179,179)" stroke-linejoin="round" d="M 18319,23499 L 18319,23349"/>
 <path fill="none" stroke="rgb(179,179,179)" stroke-linejoin="round" d="M 18426,23499 L 18426,23349"/>
 <path fill="none" stroke="rgb(179,179,179)" stroke-linejoin="round" d="M 18426,23499 L 18426,23349"/>
 <path fill="none" stroke="rgb(179,179,179)" stroke-linejoin="round" d="M 18533,23499 L 18533,23349"/>
 <path fill="none" stroke="rgb(179,179,179)" stroke-linejoin="round" d="M 18533,23499 L 18533,23349"/>
 <path fill="none" stroke="rgb(179,179,179)" stroke-linejoin="round" d="M 18640,23499 L 18640,23349"/>
 <path fill="none" stroke="rgb(179,179,179)" stroke-linejoin="round" d="M 18640,23499 L 18640,23349"/>
 <path fill="none" stroke="rgb(179,179,179)" stroke-linejoin="round" d="M 1413,23349 L 18641,23349"/>
 <path fill="none" stroke="rgb(179,179,179)" stroke-linejoin="round" d="M 1263,23349 L 1413,23349"/>
 <path fill="none" stroke="rgb(179,179,179)" stroke-linejoin="round" d="M 1263,23349 L 1413,23349"/>
 <path fill="none" stroke="rgb(179,179,179)" stroke-linejoin="round" d="M 1263,19742 L 1413,19742"/>
 <path fill="none" stroke="rgb(179,179,179)" stroke-linejoin="round" d="M 1263,19742 L 1413,19742"/>
 <path fill="none" stroke="rgb(179,179,179)" stroke-linejoin="round" d="M 1263,16136 L 1413,16136"/>
 <path fill="none" stroke="rgb(179,179,179)" stroke-linejoin="round" d="M 1263,16136 L 1413,16136"/>
 <path fill="none" stroke="rgb(179,179,179)" stroke-linejoin="round" d="M 1263,12529 L 1413,12529"/>
 <path fill="none" stroke="rgb(179,179,179)" stroke-linejoin="round" d="M 1263,12529 L 1413,12529"/>
 <path fill="none" stroke="rgb(179,179,179)" stroke-linejoin="round" d="M 1263,8924 L 1413,8924"/>
 <path fill="none" stroke="rgb(179,179,179)" stroke-linejoin="round" d="M 1263,8924 L 1413,8924"/>
 <path fill="none" stroke="rgb(179,179,179)" stroke-linejoin="round" d="M 1263,5317 L 1413,5317"/>
 <path fill="none" stroke="rgb(179,179,179)" stroke-linejoin="round" d="M 1263,5317 L 1413,5317"/>
 <path fill="none" stroke="rgb(179,179,179)" stroke-linejoin="round" d="M 1263,1711 L 1413,1711"/>
 <path fill="none" stroke="rgb(179,179,179)" stroke-linejoin="round" d="M 1263,1711 L 1413,1711"/>
 <path fill="none" stroke="rgb(179,179,179)" stroke-linejoin="round" d="M 1413,23349 L 1413,1711"/>
 <path fill="none" stroke="rgb(141,40,30)" stroke-width="80" stroke-linejoin="round" stroke-dasharray="80,40" d="M 1466,23337 L 1573,23333 1680,23333 1787,23325 1894,23316 2001,23302 2108,23273 2215,23245 2322,23211 2429,23169 2536,23115 2643,23061 2750,22998 2857,22904 2964,22809 3071,22706 3178,22614 3285,22517 3392,22390 3499,22266 3606,22112 3713,21949 3820,21802 3927,21674 4034,21534 4141,21391 4248,21240 4355,21072 4462,20920 4569,20781 4676,20645 4783,20575 4890,20464 4997,20344 5104,20199 5211,20056 5318,19950 5425,19845 5532,19717 5639,19606 5747,19478 5854,19321 5961,19238 6068,19075 6175,18967 6282,18877 6389,18780 6496,18670 6603,18702 6710,18581 6817,18493 6924,18386 7031,18309 7138,18204 7245,18080 7352,17967 7459,17850 7566,17791 7673,17708 7780,17701 7887,17576 7994,17543 8101,17419 8208,17313 8315,17279 8422,17201 8529,17146 8636,17077 8743,16983 8850,16874 8957,17031 9064,16979 9171,16899 9278,16866 9385,16798 9492,16743 9599,16671 9706,16579 9813,16506 9920,16555 10027,16538 10134,16460 10241,16441 10348,16361 10455,16266 10562,16195 10669,16131 10776,16106 10883,16046 10990,15985 11097,15902 11204,15807 11311,15722 11418,15644 11525,15619 11632,15533 11739,15445 11845,15335 11952,15209 12059,15092 12166,14975 12273,14910 12380,14762 12487,14623 12594,14449 12701,14246 12808,14062 12915,13880 13022,13768 13129,13607 13236,13383 13343,13374 13450,13133 13557,13450 13664,13248 13771,13100 13878,12847 13985,12624 14092,12372 14199,12084 14306,11827 14414,11566 14521,11385 14628,11117 14735,10901 14842,10566 14949,10271 15056,10014 15163,9725 15270,9551 15377,9325 15484,9102 15591,8856 15698,8615 15805,8355 15912,8159 16019,8010 16126,7819 16233,7627 16340,7398 16447,7170 16554,6987 16661,6767 16768,6766 16875,6545 16982,6531 17089,6326 17196,6153 17303,5958 17410,5780 17517,5589 17624,5580 17731,5494 17838,5332 17945,5108 18052,4973 18159,4826 18266,4815 18373,4759 18480,4655 18587,4541"/>
 <path fill="none" stroke="rgb(255,64,0)" stroke-width="80" stroke-linejoin="round" stroke-dasharray="80,40" d="M 1466,23347 L 1573,23347 1680,23347 1787,23347 1894,23346 2001,23345 2108,23343 2215,23342 2322,23340 2429,23336 2536,23332 2643,23330 2750,23327 2857,23324 2964,23320 3071,23316 3178,23314 3285,23312 3392,23303 3499,23294 3606,23284 3713,23276 3820,23265 3927,23259 4034,23251 4141,23236 4248,23219 4355,23204 4462,23192 4569,23184 4676,23172 4783,23162 4890,23173 4997,23242 5104,23226 5211,23200 5318,23176 5425,23229 5532,23212 5639,23201 5747,23200 5854,23178 5961,23156 6068,23127 6175,23105 6282,23079 6389,23046 6496,23009 6603,22964 6710,22943 6817,22929 6924,22909 7031,22878 7138,22845 7245,22783 7352,22744 7459,22690 7566,22638 7673,22613 7780,22580 7887,22558 7994,22513 8101,22417 8208,22327 8315,22261 8422,22238 8529,22177 8636,22100 8743,22024 8850,21956 8957,21868 9064,21797 9171,21730 9278,21671 9385,21582 9492,21485 9599,21363 9706,21245 9813,21068 9920,20980 10027,20926 10134,20797 10241,20693 10348,20582 10455,20430 10562,20295 10669,20196 10776,20870 10883,20765 10990,20642 11097,20531 11204,20447 11311,20392 11418,20334 11525,20237 11632,20056 11739,20057 11845,19989 11952,19679 12059,19607 12166,19574 12273,19499 12380,19399 12487,19322 12594,19159 12701,18963 12808,18859 12915,18761 13022,18662 13129,18645 13236,18506 13343,19297 13450,19178 13557,18918 13664,19027 13771,19145 13878,19148 13985,19059 14092,18976 14199,18993 14306,18898 14414,18869 14521,18927 14628,18856 14735,18754 14842,18782 14949,18765 15056,18691 15163,18597 15270,18899 15377,18911 15484,18656 15591,18399 15698,18553 15805,18912 15912,18942 16019,19036 16126,18885 16233,18771 16340,18578 16447,18585 16554,18456 16661,18453 16768,18623 16875,18692 16982,18498 17089,18398 17196,18336 17303,18337 17410,18447 17517,18554 17624,18618 17731,18643 17838,18270 17945,18663 18052,18366 18159,18448 18266,18663 18373,18712 18480,18734 18587,18719"/>
 <path fill="none" stroke="rgb(0,223,255)" stroke-width="80" stroke-linejoin="round" stroke-dasharray="158,102" d="M 1466,23348 L 1573,23348 1680,23348 1787,23347 1894,23347 2001,23347 2108,23346 2215,23345 2322,23345 2429,23344 2536,23343 2643,23343 2750,23341 2857,23339 2964,23336 3071,23334 3178,23330 3285,23327 3392,23321 3499,23317 3606,23308 3713,23301 3820,23295 3927,23287 4034,23276 4141,23263 4248,23249 4355,23233 4462,23212 4569,23195 4676,23171 4783,23142 4890,23111 4997,23073 5104,23035 5211,22988 5318,22936 5425,22864 5532,22814 5639,22750 5747,22693 5854,22640 5961,22577 6068,22512 6175,22441 6282,22372 6389,22308 6496,22259 6603,22189 6710,22112 6817,22016 6924,21906 7031,21794 7138,21692 7245,21581 7352,21474 7459,21377 7566,21310 7673,21205 7780,21130 7887,21043 7994,20975 8101,20922 8208,20850 8315,20799 8422,20732 8529,20658 8636,20618 8743,20626 8850,20608 8957,20588 9064,20574 9171,20536 9278,20494 9385,20539 9492,20574 9599,20582 9706,20581 9813,20574 9920,20516 10027,20457 10134,20487 10241,20495 10348,20495 10455,20488 10562,20489 10669,20445 10776,20385 10883,20425 10990,20452 11097,20449 11204,20442 11311,20401 11418,20361 11525,20316 11632,20338 11739,20367 11845,20392 11952,20425 12059,20455 12166,20424 12273,20390 12380,20449 12487,20515 12594,20507 12701,20536 12808,20567 12915,20555 13022,20527 13129,20560 13236,20609 13343,20602 13450,20631 13557,20662 13664,20628 13771,20593 13878,20635 13985,20662 14092,20693 14199,20709 14306,20733 14414,20698 14521,20655 14628,20689 14735,20740 14842,20767 14949,20785 15056,20802 15163,20771 15270,20739 15377,20777 15484,20826 15591,20858 15698,20893 15805,20925 15912,20894 16019,20864 16126,20908 16233,20943 16340,20992 16447,21034 16554,21068 16661,21048 16768,21024 16875,21060 16982,21091 17089,21118 17196,21144 17303,21163 17410,21140 17517,21118 17624,21139 17731,21166 17838,21180 17945,21200 18052,21219 18159,21203 18266,21183 18373,21206 18480,21232 18587,21249"/>
 <path fill="none" stroke="rgb(21,132,102)" stroke-width="80" stroke-linejoin="round" stroke-dasharray="80,203,80,203,203,203" d="M 1466,23332 L 1573,23330 1680,23328 1787,23326 1894,23323 2001,23319 2108,23313 2215,23307 2322,23301 2429,23295 2536,23286 2643,23279 2750,23270 2857,23258 2964,23246 3071,23233 3178,23222 3285,23212 3392,23198 3499,23185 3606,23172 3713,23158 3820,23145 3927,23133 4034,23121 4141,23111 4248,23099 4355,23087 4462,23073 4569,23063 4676,23047 4783,23038 4890,23029 4997,23021 5104,23008 5211,22995 5318,22985 5425,22975 5532,22964 5639,22957 5747,22948 5854,22935 5961,22928 6068,22916 6175,22907 6282,22898 6389,22890 6496,22884 6603,22881 6710,22871 6817,22862 6924,22853 7031,22844 7138,22835 7245,22827 7352,22816 7459,22805 7566,22798 7673,22789 7780,22783 7887,22774 7994,22768 8101,22756 8208,22746 8315,22738 8422,22730 8529,22723 8636,22714 8743,22705 8850,22693 8957,22695 9064,22684 9171,22675 9278,22670 9385,22663 9492,22655 9599,22644 9706,22635 9813,22620 9920,22613 10027,22605 10134,22602 10241,22594 10348,22582 10455,22569 10562,22555 10669,22542 10776,22555 10883,22546 10990,22534 11097,22523 11204,22513 11311,22502 11418,22489 11525,22480 11632,22472 11739,22468 11845,22455 11952,22437 12059,22428 12166,22415 12273,22405 12380,22392 12487,22381 12594,22362 12701,22343 12808,22328 12915,22312 13022,22298 13129,22286 13236,22264 13343,22283 13450,22262 13557,22264 13664,22250 13771,22241 13878,22227 13985,22215 14092,22195 14199,22175 14306,22155 14414,22137 14521,22126 14628,22109 14735,22093 14842,22071 14949,22059 15056,22041 15163,22012 15270,22002 15377,21990 15484,21967 15591,21944 15698,21933 15805,21926 15912,21910 16019,21898 16126,21881 16233,21863 16340,21851 16447,21831 16554,21817 16661,21796 16768,21802 16875,21795 16982,21785 17089,21764 17196,21745 17303,21733 17410,21723 17517,21710 17624,21723 17731,21716 17838,21690 17945,21687 18052,21670 18159,21676 18266,21677 18373,21672 18480,21661 18587,21648"/>
 <path fill="none" stroke="rgb(191,0,65)" stroke-width="80" stroke-linejoin="round" stroke-dasharray="51,127,51,127,254,127,254,127,254,127" d="M 1466,23337 L 1573,23332 1680,23329 1787,23325 1894,23319 2001,23314 2108,23306 2215,23298 2322,23287 2429,23279 2536,23267 2643,23255 2750,23241 2857,23225 2964,23206 3071,23187 3178,23168 3285,23153 3392,23136 3499,23119 3606,23098 3713,23072 3820,23051 3927,23033 4034,23020 4141,23000 4248,22981 4355,22963 4462,22945 4569,22927 4676,22916 4783,22907 4890,22901 4997,22895 5104,22881 5211,22871 5318,22861 5425,22848 5532,22845 5639,22841 5747,22838 5854,22831 5961,22833 6068,22830 6175,22823 6282,22822 6389,22825 6496,22825 6603,22834 6710,22835 6817,22838 6924,22836 7031,22838 7138,22837 7245,22845 7352,22849 7459,22859 7566,22864 7673,22861 7780,22861 7887,22868 7994,22875 8101,22895 8208,22899 8315,22900 8422,22904 8529,22918 8636,22920 8743,22919 8850,22928 8957,22930 9064,22935 9171,22932 9278,22931 9385,22942 9492,22945 9599,22955 9706,22954 9813,22957 9920,22960 10027,22958 10134,22960 10241,22964 10348,22962 10455,22962 10562,22959 10669,22952 10776,22946 10883,22942 10990,22941 11097,22938 11204,22932 11311,22927 11418,22919 11525,22914 11632,22913 11739,22905 11845,22903 11952,22902 12059,22900 12166,22901 12273,22901 12380,22900 12487,22900 12594,22902 12701,22903 12808,22903 12915,22904 13022,22899 13129,22894 13236,22892 13343,22882 13450,22877 13557,22872 13664,22872 13771,22869 13878,22864 13985,22863 14092,22855 14199,22849 14306,22840 14414,22836 14521,22835 14628,22824 14735,22823 14842,22811 14949,22800 15056,22785 15163,22771 15270,22760 15377,22768 15484,22750 15591,22735 15698,22721 15805,22696 15912,22708 16019,22687 16126,22663 16233,22635 16340,22605 16447,22580 16554,22556 16661,22535 16768,22516 16875,22489 16982,22465 17089,22446 17196,22422 17303,22395 17410,22370 17517,22355 17624,22331 17731,22307 17838,22277 17945,22252 18052,22224 18159,22199 18266,22194 18373,22181 18480,22158 18587,22135"/>
 <path fill="none" stroke="rgb(128,0,128)" stroke-width="80" stroke-linejoin="round" stroke-dasharray="158,158" d="M 1466,23348 L 1573,23348 1680,23348 1787,23348 1894,23348 2001,23348 2108,23348 2215,23348 2322,23348 2429,23348 2536,23348 2643,23348 2750,23348 2857,23348 2964,23347 3071,23347 3178,23347 3285,23347 3392,23347 3499,23346 3606,23346 3713,23345 3820,23345 3927,23344 4034,23343 4141,23342 4248,23342 4355,23341 4462,23340 4569,23339 4676,23338 4783,23337 4890,23336 4997,23335 5104,23334 5211,23333 5318,23332 5425,23330 5532,23329 5639,23328 5747,23327 5854,23326 5961,23325 6068,23323 6175,23322 6282,23321 6389,23319 6496,23318 6603,23316 6710,23314 6817,23312 6924,23310 7031,23307 7138,23305 7245,23302 7352,23299 7459,23296 7566,23294 7673,23291 7780,23288 7887,23286 7994,23284 8101,23281 8208,23280 8315,23279 8422,23275 8529,23273 8636,23269 8743,23266 8850,23262 8957,23258 9064,23253 9171,23248 9278,23244 9385,23241 9492,23236 9599,23231 9706,23236 9813,23231 9920,23227 10027,23222 10134,23216 10241,23209 10348,23202 10455,23197 10562,23190 10669,23183 10776,23179 10883,23174 10990,23161 11097,23163 11204,23158 11311,23153 11418,23148 11525,23148 11632,23146 11739,23139 11845,23135 11952,23129 12059,23127 12166,23121 12273,23116 12380,23109 12487,23105 12594,23101 12701,23091 12808,23083 12915,23074 13022,23067 13129,23061 13236,23052 13343,23051 13450,23041 13557,23029 13664,23018 13771,23009 13878,23002 13985,22996 14092,22987 14199,22978 14306,22967 14414,22954 14521,22941 14628,22931 14735,22916 14842,22901 14949,22879 15056,22860 15163,22838 15270,22822 15377,22811 15484,22791 15591,22773 15698,22752 15805,22737 15912,22714 16019,22701 16126,22683 16233,22660 16340,22638 16447,22610 16554,22607 16661,22591 16768,22582 16875,22582 16982,22570 17089,22555 17196,22540 17303,22527 17410,22519 17517,22512 17624,22507 17731,22494 17838,22484 17945,22476 18052,22463 18159,22464 18266,22469 18373,22464 18480,22452 18587,22444"/>
 <path fill="none" stroke="rgb(255,211,32)" stroke-width="80" stroke-linejoin="round" d="M 1466,23325 L 1573,23317 1680,23306 1787,23299 1894,23282 2001,23271 2108,23232 2215,23209 2322,23182 2429,23161 2536,23142 2643,23116 2750,23073 2857,23028 2964,22968 3071,22909 3178,22879 3285,22851 3392,22804 3499,22775 3606,22718 3713,22681 3820,22619 3927,22604 4034,22570 4141,22547 4248,22510 4355,22480 4462,22462 4569,22458 4676,22441 4783,22440 4890,22455 4997,22468 5104,22457 5211,22473 5318,22473 5425,22462 5532,22482 5639,22493 5747,22518 5854,22536 5961,22559 6068,22560 6175,22567 6282,22608 6389,22620 6496,22634 6603,22653 6710,22654 6817,22667 6924,22684 7031,22715 7138,22737 7245,22758 7352,22778 7459,22778 7566,22781 7673,22781 7780,22813 7887,22835 7994,22855 8101,22874 8208,22889 8315,22888 8422,22891 8529,22903 8636,22907 8743,22913 8850,22924 8957,22932 9064,22922 9171,22917 9278,22927 9385,22934 9492,22945 9599,22951 9706,22948 9813,22950 9920,22946 10027,22955 10134,22952 10241,22950 10348,22951 10455,22958 10562,22952 10669,22943 10776,22949 10883,22949 10990,22947 11097,22951 11204,22945 11311,22937 11418,22933 11525,22938 11632,22941 11739,22939 11845,22927 11952,22911 12059,22905 12166,22900 12273,22902 12380,22884 12487,22869 12594,22864 12701,22840 12808,22798 12915,22751 13022,22724 13129,22703 13236,22692 13343,22674 13450,22655 13557,22635 13664,22624 13771,22617 13878,22604 13985,22599 14092,22601 14199,22601 14306,22585 14414,22578 14521,22589 14628,22583 14735,22572 14842,22571 14949,22564 15056,22546 15163,22536 15270,22523 15377,22499 15484,22496 15591,22489 15698,22458 15805,22464 15912,22755 16019,22723 16126,22675 16233,22626 16340,22589 16447,22570 16554,22552 16661,22538 16768,22521 16875,22491 16982,22468 17089,22503 17196,22520 17303,22493 17410,22477 17517,22486 17624,22478 17731,22460 17838,22433 17945,22411 18052,22383 18159,22369 18266,22476 18373,22517 18480,22544 18587,22548"/>
 <path fill="none" stroke="rgb(0,255,0)" stroke-width="80" stroke-linejoin="round" d="M 1466,23114 L 1573,23069 1680,22894 1787,22894 1894,22792 2001,22727 2108,22511 2215,22260 2322,21997 2429,21839 2536,21568 2643,21343 2750,21137 2857,20955 2964,21022 3071,20789 3178,20654 3285,20486 3392,20359 3499,20366 3606,20374 3713,20396 3820,20552 3927,20438 4034,20674 4141,20697 4248,20726 4355,20743 4462,20755 4569,20854 4676,20930 4783,21088 4890,21044 4997,21328 5104,21358 5211,21400 5318,21487 5425,21568 5532,21699 5639,21851 5747,21919 5854,22026 5961,22080 6068,22099 6175,22171 6282,22244 6389,22314 6496,22288 6603,22422 6710,22504 6817,22545 6924,22589 7031,22724 7138,22762 7245,22816 7352,22845 7459,22873 7566,22927 7673,22958 7780,22995 7887,22992 7994,23048 8101,23038 8208,23028 8315,23079 8422,23097 8529,23117 8636,23135 8743,23147 8850,23162 8957,23160 9064,23178 9171,23196 9278,23217 9385,23214 9492,23232 9599,23228 9706,23222 9813,23239 9920,23256 10027,23255 10134,23254 10241,23271 10348,23267 10455,23262 10562,23279 10669,23277 10776,23276 10883,23275 10990,23270 11097,23285 11204,23281 11311,23274 11418,23270 11525,23288 11632,23286 11739,23280 11845,23277 11952,23270 12059,23268 12166,23278 12273,23275 12380,23270 12487,23261 12594,23251 12701,23239 12808,23246 12915,23233 13022,23226 13129,23234 13236,23206 13343,23181 13450,23153 13557,23133 13664,23140 13771,23130 13878,23119 13985,23113 14092,23094 14199,23073 14306,23067 14414,23075 14521,23061 14628,23088 14735,23061 14842,23052 14949,23033 15056,23010 15163,23073 15270,23065 15377,23042 15484,23055 15591,23031 15698,22999 15805,22968 15912,22987 16019,23015 16126,23009 16233,22990 16340,22944 16447,22900 16554,22904 16661,22917 16768,22904 16875,22897 16982,22860 17089,22823 17196,22789 17303,22814 17410,22866 17517,22865 17624,22827 17731,22832 17838,22783 17945,22769 18052,22779 18159,22758 18266,22732 18373,22732 18480,22668 18587,22697"/>
 <path fill="none" stroke="rgb(0,169,51)" stroke-width="80" stroke-linejoin="round" stroke-dasharray="80,40" d="M 1466,23348 L 1573,23348 1680,23348 1787,23347 1894,23347 2001,23347 2108,23346 2215,23346 2322,23345 2429,23344 2536,23343 2643,23343 2750,23342 2857,23340 2964,23339 3071,23337 3178,23335 3285,23334 3392,23332 3499,23330 3606,23329 3713,23335 3820,23332 3927,23329 4034,23325 4141,23320 4248,23315 4355,23312 4462,23307 4569,23302 4676,23312 4783,23309 4890,23306 4997,23303 5104,23297 5211,23290 5318,23282 5425,23279 5532,23273 5639,23264 5747,23251 5854,23237 5961,23222 6068,23273 6175,23279 6282,23278 6389,23296 6496,23284 6603,23265 6710,23259 6817,23242 6924,23238 7031,23220 7138,23255 7245,23249 7352,23224 7459,23236 7566,23233 7673,23212 7780,23213 7887,23230 7994,23223 8101,23214 8208,23211 8315,23205 8422,23199 8529,23196 8636,23190 8743,23179 8850,23168 8957,23162 9064,23149 9171,23149 9278,23152 9385,23143 9492,23130 9599,23120 9706,23122 9813,23118 9920,23111 10027,23120 10134,23112 10241,23113 10348,23091 10455,23083 10562,23079 10669,23074 10776,23091 10883,23084 10990,23070 11097,23057 11204,23043 11311,23044 11418,23035 11525,23063 11632,23053 11739,23038 11845,23019 11952,23018 12059,23019 12166,23010 12273,23025 12380,23007 12487,23012 12594,22991 12701,22988 12808,22989 12915,22991 13022,23021 13129,23016 13236,23003 13343,22991 13450,22984 13557,22984 13664,22981 13771,22988 13878,22977 13985,22958 14092,22941 14199,22934 14306,22919 14414,22931 14521,22945 14628,22938 14735,22952 14842,22946 14949,22946 15056,22946 15163,22648 15270,22694 15377,22671 15484,22636 15591,22602 15698,22618 15805,22609 15912,22627 16019,22682 16126,22654 16233,22669 16340,22648 16447,22638 16554,22623 16661,22666 16768,22756 16875,22738 16982,22724 17089,22693 17196,22677 17303,22694 17410,22739 17517,22794 17624,22771 17731,22754 17838,22735 17945,22719 18052,22747 18159,22774 18266,22819 18373,22794 18480,22787 18587,22762"/>
 <path fill="none" stroke="rgb(180,120,4)" stroke-width="80" stroke-linejoin="round" d="M 1466,23103 L 1573,23094 1680,23082 1787,23064 1894,23037 2001,23009 2108,22976 2215,22943 2322,22919 2429,22890 2536,22876 2643,22844 2750,22802 2857,22758 2964,22709 3071,22662 3178,22609 3285,22552 3392,22470 3499,22671 3606,22652 3713,22578 3820,22514 3927,22446 4034,22370 4141,22296 4248,22243 4355,22214 4462,22175 4569,22181 4676,22185 4783,22179 4890,22212 4997,22235 5104,22263 5211,22321 5318,22413 5425,22463 5532,22478 5639,22544 5747,22600 5854,22644 5961,22648 6068,22625 6175,22628 6282,22639 6389,22645 6496,22674 6603,22687 6710,22699 6817,22723 6924,22720 7031,22709 7138,22730 7245,22755 7352,22780 7459,22808 7566,22829 7673,22834 7780,22843 7887,22895 7994,22899 8101,22929 8208,22953 8315,22979 8422,22996 8529,23006 8636,23019 8743,23034 8850,23049 8957,23072 9064,23076 9171,23074 9278,23085 9385,23097 9492,23101 9599,23114 9706,23108 9813,23123 9920,23124 10027,23131 10134,23145 10241,23153 10348,23162 10455,23154 10562,23160 10669,23164 10776,23172 10883,23178 10990,23190 11097,23200 11204,23192 11311,23193 11418,23187 11525,23187 11632,23187 11739,23192 11845,23195 11952,23193 12059,23193 12166,23193 12273,23172 12380,23176 12487,23168 12594,23173 12701,23176 12808,23176 12915,23176 13022,23185 13129,23191 13236,23197 13343,23214 13450,23223 13557,23223 13664,23223 13771,23245 13878,23258 13985,23260 14092,23268 14199,23269 14306,23269 14414,23269 14521,23258 14628,23260 14735,23257 14842,23251 14949,23241 15056,23241 15163,23240 15270,23225 15377,23216 15484,23205 15591,23201 15698,23199 15805,23199 15912,23192 16019,23182 16126,23182 16233,23175 16340,23158 16447,23155 16554,23155 16661,23156 16768,23125 16875,23111 16982,23084 17089,23050 17196,23017 17303,23016 17410,23020 17517,22932 17624,22907 17731,22891 17838,22860 17945,22834 18052,22819 18159,22797 18266,22784 18373,22784 18480,22800 18587,22806"/>
 <path fill="none" stroke="rgb(0,169,51)" stroke-width="80" stroke-linejoin="round" stroke-dasharray="158,102" d="M 1466,23179 L 1573,23152 1680,23163 1787,23144 1894,23138 2001,23116 2108,23103 2215,23102 2322,23103 2429,23090 2536,23063 2643,23049 2750,23020 2857,22990 2964,22944 3071,22893 3178,22849 3285,22815 3392,22768 3499,22724 3606,22692 3713,22662 3820,22650 3927,22600 4034,22650 4141,22668 4248,22688 4355,22709 4462,22737 4569,22839 4676,22848 4783,22860 4890,22875 4997,22883 5104,22900 5211,22909 5318,22922 5425,22918 5532,22940 5639,22950 5747,22973 5854,22990 5961,23005 6068,23016 6175,23024 6282,23032 6389,23042 6496,23050 6603,23058 6710,23064 6817,23071 6924,23074 7031,23070 7138,23066 7245,23056 7352,23050 7459,23041 7566,23036 7673,23030 7780,23023 7887,23012 7994,22994 8101,22981 8208,22964 8315,22955 8422,22946 8529,22924 8636,22912 8743,22899 8850,22886 8957,22875 9064,22874 9171,22866 9278,22864 9385,22864 9492,22858 9599,22850 9706,22832 9813,22825 9920,22816 10027,22800 10134,22779 10241,22759 10348,22732 10455,22720 10562,22722 10669,22722 10776,22723 10883,22725 10990,22729 11097,22728 11204,22721 11311,22716 11418,22706 11525,22697 11632,22689 11739,22682 11845,22675 11952,22668 12059,22668 12166,22667 12273,22675 12380,22684 12487,22696 12594,22707 12701,22712 12808,22723 12915,22729 13022,22740 13129,22745 13236,22752 13343,22755 13450,22753 13557,22758 13664,22757 13771,22764 13878,22774 13985,22772 14092,22791 14199,22806 14306,22816 14414,22823 14521,22832 14628,22840 14735,22842 14842,22858 14949,22860 15056,22869 15163,22880 15270,22882 15377,22880 15484,22882 15591,22882 15698,22876 15805,22875 15912,22871 16019,22864 16126,22852 16233,22845 16340,22838 16447,22835 16554,22835 16661,22830 16768,22825 16875,22820 16982,22817 17089,22819 17196,22818 17303,22827 17410,22835 17517,22842 17624,22838 17731,22823 17838,22810 17945,22797 18052,22791 18159,22789 18266,22780 18373,22769 18480,22755 18587,22746"/>
 <path fill="none" stroke="rgb(0,127,255)" stroke-width="80" stroke-linejoin="round" d="M 1466,22902 L 1573,22819 1680,22734 1787,22660 1894,22571 2001,22492 2108,22359 2215,22199 2322,22076 2429,21958 2536,21833 2643,21737 2750,21633 2857,21499 2964,21368 3071,21259 3178,21145 3285,21096 3392,21033 3499,20945 3606,20872 3713,20802 3820,20716 3927,20627 4034,20569 4141,20543 4248,20507 4355,20459 4462,20418 4569,20358 4676,20299 4783,20258 4890,20238 4997,20204 5104,20169 5211,20158 5318,20134 5425,20120 5532,20120 5639,20136 5747,20136 5854,20162 5961,20171 6068,20192 6175,20184 6282,20193 6389,20211 6496,20227 6603,20320 6710,20338 6817,20345 6924,20361 7031,20367 7138,20412 7245,20619 7352,20675 7459,20725 7566,20818 7673,20863 7780,20888 7887,20925 7994,21009 8101,21069 8208,21199 8315,21255 8422,21310 8529,21364 8636,21406 8743,21477 8850,21530 8957,21579 9064,21626 9171,21661 9278,21699 9385,21770 9492,21828 9599,21917 9706,21971 9813,22045 9920,22094 10027,22115 10134,22159 10241,22176 10348,22202 10455,22246 10562,22278 10669,22297 10776,22313 10883,22368 10990,22403 11097,22435 11204,22484 11311,22529 11418,22565 11525,22576 11632,22616 11739,22635 11845,22660 11952,22706 12059,22716 12166,22723 12273,22733 12380,22765 12487,22792 12594,22803 12701,22822 12808,22846 12915,22851 13022,22857 13129,22884 13236,22894 13343,22899 13450,22905 13557,22912 13664,22912 13771,22910 13878,22924 13985,22943 14092,22947 14199,22948 14306,22952 14414,22955 14521,22956 14628,22963 14735,22976 14842,22976 14949,22977 15056,22980 15163,22977 15270,22979 15377,22983 15484,22981 15591,22979 15698,22982 15805,22977 15912,22974 16019,22973 16126,22972 16233,22972 16340,22984 16447,22978 16554,22977 16661,22977 16768,22976 16875,22976 16982,22971 17089,22970 17196,22963 17303,22962 17410,22953 17517,22950 17624,22944 17731,22937 17838,22929 17945,22924 18052,22919 18159,22909 18266,22905 18373,22898 18480,22890 18587,22871"/>
 <path fill="none" stroke="rgb(0,169,51)" stroke-width="80" stroke-linejoin="round" d="M 1466,23249 L 1573,23219 1680,23178 1787,23146 1894,23083 2001,23022 2108,22948 2215,22873 2322,22788 2429,22636 2536,22459 2643,22298 2750,22237 2857,21997 2964,21872 3071,21751 3178,21702 3285,21572 3392,21555 3499,21521 3606,21502 3713,21480 3820,21529 3927,21577 4034,21624 4141,21677 4248,21715 4355,21805 4462,21913 4569,21974 4676,22025 4783,22081 4890,22105 4997,22178 5104,22331 5211,22456 5318,22545 5425,22588 5532,22609 5639,22666 5747,22730 5854,22791 5961,22814 6068,22846 6175,22868 6282,22875 6389,22906 6496,22939 6603,22956 6710,22982 6817,22992 6924,22994 7031,23007 7138,23032 7245,23061 7352,23059 7459,23083 7566,23090 7673,23096 7780,23108 7887,23110 7994,23134 8101,23143 8208,23146 8315,23139 8422,23138 8529,23143 8636,23146 8743,23181 8850,23184 8957,23189 9064,23186 9171,23188 9278,23196 9385,23202 9492,23205 9599,23214 9706,23220 9813,23249 9920,23254 10027,23255 10134,23256 10241,23263 10348,23265 10455,23263 10562,23261 10669,23261 10776,23257 10883,23262 10990,23264 11097,23266 11204,23268 11311,23271 11418,23274 11525,23270 11632,23265 11739,23265 11845,23262 11952,23260 12059,23256 12166,23258 12273,23259 12380,23258 12487,23254 12594,23257 12701,23253 12808,23247 12915,23238 13022,23228 13129,23232 13236,23213 13343,23204 13450,23191 13557,23178 13664,23156 13771,23146 13878,23142 13985,23131 14092,23118 14199,23109 14306,23106 14414,23101 14521,23100 14628,23100 14735,23094 14842,23085 14949,23070 15056,23076 15163,23079 15270,23074 15377,23068 15484,23074 15591,23059 15698,23056 15805,23048 15912,23038 16019,23028 16126,23031 16233,23027 16340,23026 16447,23017 16554,23032 16661,23028 16768,23027 16875,23063 16982,23072 17089,23072 17196,23063 17303,23071 17410,23070 17517,23074 17624,23068 17731,23059 17838,23044 17945,23018 18052,22983 18159,22956 18266,22940 18373,22902 18480,22869 18587,22826"/>
 <path fill="none" stroke="rgb(0,0,0)" stroke-width="80" stroke-linejoin="round" d="M 1466,23271 L 1573,23251 1680,23225 1787,23194 1894,23151 2001,23086 2108,23022 2215,22927 2322,22877 2429,22821 2536,22732 2643,22712 2750,22626 2857,22531 2964,22404 3071,22299 3178,22222 3285,22213 3392,22166 3499,22095 3606,22030 3713,21943 3820,21880 3927,21845 4034,21780 4141,21851 4248,21957 4355,21989 4462,21939 4569,21954 4676,21960 4783,22002 4890,22060 4997,22093 5104,22129 5211,22188 5318,22197 5425,22216 5532,22257 5639,22314 5747,22359 5854,22396 5961,22500 6068,22470 6175,22492 6282,22528 6389,22569 6496,22602 6603,22641 6710,22693 6817,22721 6924,22742 7031,22779 7138,22812 7245,22897 7352,22911 7459,22888 7566,22908 7673,22920 7780,22933 7887,22956 7994,22971 8101,22998 8208,23010 8315,23021 8422,23039 8529,23058 8636,23047 8743,23061 8850,23074 8957,23081 9064,23090 9171,23095 9278,23110 9385,23115 9492,23127 9599,23125 9706,23130 9813,23139 9920,23144 10027,23146 10134,23161 10241,23175 10348,23178 10455,23181 10562,23180 10669,23180 10776,23179 10883,23184 10990,23195 11097,23199 11204,23200 11311,23209 11418,23206 11525,23215 11632,23207 11739,23216 11845,23196 11952,23188 12059,23194 12166,23184 12273,23182 12380,23182 12487,23187 12594,23183 12701,23178 12808,23177 12915,23175 13022,23170 13129,23169 13236,23181 13343,23186 13450,23188 13557,23194 13664,23203 13771,23200 13878,23205 13985,23209 14092,23215 14199,23214 14306,23211 14414,23210 14521,23219 14628,23213 14735,23223 14842,23220 14949,23218 15056,23216 15163,23214 15270,23216 15377,23211 15484,23208 15591,23206 15698,23202 15805,23193 15912,23187 16019,23183 16126,23179 16233,23173 16340,23158 16447,23149 16554,23150 16661,23151 16768,23147 16875,23144 16982,23125 17089,23121 17196,23110 17303,23108 17410,23105 17517,23092 17624,23091 17731,23076 17838,23060 17945,23045 18052,23036 18159,23035 18266,23021 18373,23021 18480,23004 18587,22990"/>
 <path fill="none" stroke="rgb(255,0,0)" stroke-width="80" stroke-linejoin="round" stroke-dasharray="158,102" d="M 1466,23348 L 1573,23348 1680,23348 1787,23348 1894,23348 2001,23346 2108,23344 2215,23341 2322,23334 2429,23323 2536,23317 2643,23309 2750,23298 2857,23273 2964,23230 3071,23194 3178,23156 3285,23124 3392,23069 3499,23026 3606,22977 3713,22921 3820,22864 3927,22804 4034,22745 4141,22669 4248,22588 4355,22510 4462,22416 4569,22320 4676,22230 4783,22156 4890,22089 4997,22019 5104,21949 5211,21891 5318,21852 5425,21802 5532,21736 5639,21672 5747,21642 5854,21621 5961,21626 6068,21649 6175,21677 6282,21733 6389,21791 6496,21842 6603,21892 6710,21952 6817,22006 6924,22076 7031,22150 7138,22222 7245,22280 7352,22342 7459,22376 7566,22410 7673,22447 7780,22490 7887,22521 7994,22548 8101,22564 8208,22573 8315,22582 8422,22593 8529,22603 8636,22610 8743,22613 8850,22615 8957,22619 9064,22626 9171,22626 9278,22634 9385,22646 9492,22652 9599,22661 9706,22671 9813,22673 9920,22677 10027,22680 10134,22685 10241,22687 10348,22686 10455,22701 10562,22724 10669,22761 10776,22813 10883,22861 10990,22890 11097,22891 11204,22892 11311,22882 11418,22878 11525,22864 11632,22855 11739,22852 11845,22854 11952,22861 12059,22862 12166,22868 12273,22870 12380,22871 12487,22870 12594,22870 12701,22873 12808,22886 12915,22888 13022,22885 13129,22885 13236,22910 13343,22918 13450,22921 13557,22923 13664,22924 13771,22951 13878,22978 13985,23003 14092,23043 14199,23054 14306,23062 14414,23068 14521,23072 14628,23073 14735,23075 14842,23079 14949,23081 15056,23087 15163,23089 15270,23091 15377,23093 15484,23100 15591,23105 15698,23107 15805,23111 15912,23113 16019,23115 16126,23118 16233,23120 16340,23120 16447,23121 16554,23121 16661,23121 16768,23122 16875,23120 16982,23117 17089,23115 17196,23112 17303,23110 17410,23109 17517,23110 17624,23110 17731,23105 17838,23099 17945,23093 18052,23088 18159,23084 18266,23080 18373,23073 18480,23067 18587,23056"/>
 <path fill="none" stroke="rgb(85,48,141)" stroke-width="80" stroke-linejoin="round" stroke-dasharray="80,40" d="M 1466,23340 L 1573,23339 1680,23337 1787,23329 1894,23326 2001,23318 2108,23311 2215,23304 2322,23289 2429,23280 2536,23250 2643,23222 2750,23203 2857,23166 2964,23140 3071,23107 3178,23074 3285,23021 3392,23022 3499,22960 3606,22899 3713,22867 3820,22862 3927,22752 4034,22729 4141,22694 4248,22652 4355,22632 4462,22601 4569,22581 4676,22562 4783,22530 4890,22492 4997,22477 5104,22400 5211,22349 5318,22298 5425,22287 5532,22231 5639,22187 5747,22148 5854,22092 5961,22041 6068,22021 6175,21989 6282,21986 6389,21966 6496,21945 6603,21928 6710,21913 6817,21895 6924,21830 7031,21823 7138,21819 7245,21813 7352,21800 7459,21784 7566,21780 7673,21772 7780,21765 7887,21769 7994,21773 8101,21768 8208,21754 8315,21744 8422,21730 8529,21714 8636,21705 8743,21694 8850,21688 8957,21677 9064,21659 9171,21649 9278,21637 9385,21629 9492,21635 9599,21627 9706,21631 9813,21628 9920,21634 10027,21638 10134,21640 10241,21650 10348,21659 10455,21672 10562,21698 10669,21694 10776,21699 10883,21717 10990,21750 11097,21774 11204,21799 11311,21819 11418,21843 11525,21864 11632,21871 11739,21920 11845,21928 11952,21935 12059,21940 12166,21946 12273,21953 12380,21957 12487,21962 12594,21962 12701,21969 12808,21970 12915,21967 13022,21987 13129,21995 13236,22001 13343,22007 13450,22010 13557,22013 13664,22016 13771,22014 13878,22018 13985,22023 14092,22022 14199,22025 14306,22032 14414,22031 14521,22022 14628,22021 14735,22022 14842,22019 14949,23139 15056,23131 15163,23124 15270,23107 15377,23094 15484,23092 15591,23084 15698,23077 15805,23073 15912,23067 16019,23058 16126,23051 16233,23043 16340,23045 16447,23043 16554,23040 16661,23034 16768,23029 16875,23033 16982,23031 17089,23029 17196,23026 17303,23020 17410,23018 17517,23111 17624,23115 17731,23118 17838,23116 17945,23115 18052,23118 18159,23123 18266,23123 18373,23114 18480,23121 18587,23123"/>
 <path fill="none" stroke="rgb(0,0,255)" stroke-width="80" stroke-linejoin="round" stroke-dasharray="158,158" d="M 1466,23088 L 1573,23085 1680,23082 1787,23101 1894,23108 2001,23110 2108,23105 2215,23102 2322,23097 2429,23140 2536,23140 2643,23158 2750,23163 2857,23174 2964,23184 3071,23189 3178,23194 3285,23198 3392,23200 3499,23202 3606,23209 3713,23212 3820,23220 3927,23222 4034,23225 4141,23227 4248,23229 4355,23234 4462,23239 4569,23242 4676,23245 4783,23247 4890,23250 4997,23252 5104,23256 5211,23258 5318,23261 5425,23265 5532,23267 5639,23270 5747,23272 5854,23279 5961,23284 6068,23286 6175,23288 6282,23290 6389,23292 6496,23297 6603,23297 6710,23299 6817,23301 6924,23302 7031,23304 7138,23306 7245,23309 7352,23310 7459,23313 7566,23313 7673,23313 7780,23313 7887,23313 7994,23314 8101,23316 8208,23316 8315,23317 8422,23317 8529,23318 8636,23321 8743,23323 8850,23323 8957,23324 9064,23323 9171,23323 9278,23325 9385,23324 9492,23323 9599,23321 9706,23321 9813,23321 9920,23320 10027,23320 10134,23319 10241,23318 10348,23317 10455,23316 10562,23315 10669,23314 10776,23314 10883,23313 10990,23313 11097,23311 11204,23310 11311,23310 11418,23309 11525,23309 11632,23308 11739,23307 11845,23307 11952,23305 12059,23304 12166,23304 12273,23303 12380,23302 12487,23303 12594,23308 12701,23311 12808,23311 12915,23312 13022,23314 13129,23315 13236,23316 13343,23316 13450,23316 13557,23314 13664,23313 13771,23314 13878,23314 13985,23314 14092,23314 14199,23315 14306,23315 14414,23314 14521,23315 14628,23316 14735,23316 14842,23316 14949,23317 15056,23317 15163,23317 15270,23318 15377,23317 15484,23317 15591,23318 15698,23316 15805,23315 15912,23314 16019,23317 16126,23317 16233,23319 16340,23320 16447,23320 16554,23320 16661,23320 16768,23321 16875,23322 16982,23324 17089,23325 17196,23326 17303,23326 17410,23325 17517,23326 17624,23327 17731,23326 17838,23324 17945,23319 18052,23310 18159,23303 18266,23295 18373,23287 18480,23279 18587,23270"/>
 <text class="TextShape" transform="rotate(-90 1560 24320)"><tspan class="TextParagraph" font-family="Liberation Sans, sans-serif" font-size="282px" font-weight="400"><tspan class="TextPosition" x="1560" y="24320"><tspan fill="rgb(0,0,0)" stroke="none">13.03</tspan></tspan></tspan></text>
 <text class="TextShape" transform="rotate(-90 1881 24320)"><tspan class="TextParagraph" font-family="Liberation Sans, sans-serif" font-size="282px" font-weight="400"><tspan class="TextPosition" x="1881" y="24320"><tspan fill="rgb(0,0,0)" stroke="none">16.03</tspan></tspan></tspan></text>
 <text class="TextShape" transform="rotate(-90 2202 24320)"><tspan class="TextParagraph" font-family="Liberation Sans, sans-serif" font-size="282px" font-weight="400"><tspan class="TextPosition" x="2202" y="24320"><tspan fill="rgb(0,0,0)" stroke="none">19.03</tspan></tspan></tspan></text>
 <text class="TextShape" transform="rotate(-90 2523 24320)"><tspan class="TextParagraph" font-family="Liberation Sans, sans-serif" font-size="282px" font-weight="400"><tspan class="TextPosition" x="2523" y="24320"><tspan fill="rgb(0,0,0)" stroke="none">22.03</tspan></tspan></tspan></text>
 <text class="TextShape" transform="rotate(-90 2844 24320)"><tspan class="TextParagraph" font-family="Liberation Sans, sans-serif" font-size="282px" font-weight="400"><tspan class="TextPosition" x="2844" y="24320"><tspan fill="rgb(0,0,0)" stroke="none">25.03</tspan></tspan></tspan></text>
 <text class="TextShape" transform="rotate(-90 3165 24320)"><tspan class="TextParagraph" font-family="Liberation Sans, sans-serif" font-size="282px" font-weight="400"><tspan class="TextPosition" x="3165" y="24320"><tspan fill="rgb(0,0,0)" stroke="none">28.03</tspan></tspan></tspan></text>
 <text class="TextShape" transform="rotate(-90 3486 24320)"><tspan class="TextParagraph" font-family="Liberation Sans, sans-serif" font-size="282px" font-weight="400"><tspan class="TextPosition" x="3486" y="24320"><tspan fill="rgb(0,0,0)" stroke="none">31.03</tspan></tspan></tspan></text>
 <text class="TextShape" transform="rotate(-90 3807 24320)"><tspan class="TextParagraph" font-family="Liberation Sans, sans-serif" font-size="282px" font-weight="400"><tspan class="TextPosition" x="3807" y="24320"><tspan fill="rgb(0,0,0)" stroke="none">03.04</tspan></tspan></tspan></text>
 <text class="TextShape" transform="rotate(-90 4128 24320)"><tspan class="TextParagraph" font-family="Liberation Sans, sans-serif" font-size="282px" font-weight="400"><tspan class="TextPosition" x="4128" y="24320"><tspan fill="rgb(0,0,0)" stroke="none">06.04</tspan></tspan></tspan></text>
 <text class="TextShape" transform="rotate(-90 4449 24320)"><tspan class="TextParagraph" font-family="Liberation Sans, sans-serif" font-size="282px" font-weight="400"><tspan class="TextPosition" x="4449" y="24320"><tspan fill="rgb(0,0,0)" stroke="none">09.04</tspan></tspan></tspan></text>
 <text class="TextShape" transform="rotate(-90 4770 24320)"><tspan class="TextParagraph" font-family="Liberation Sans, sans-serif" font-size="282px" font-weight="400"><tspan class="TextPosition" x="4770" y="24320"><tspan fill="rgb(0,0,0)" stroke="none">12.04</tspan></tspan></tspan></text>
 <text class="TextShape" transform="rotate(-90 5091 24320)"><tspan class="TextParagraph" font-family="Liberation Sans, sans-serif" font-size="282px" font-weight="400"><tspan class="TextPosition" x="5091" y="24320"><tspan fill="rgb(0,0,0)" stroke="none">15.04</tspan></tspan></tspan></text>
 <text class="TextShape" transform="rotate(-90 5412 24320)"><tspan class="TextParagraph" font-family="Liberation Sans, sans-serif" font-size="282px" font-weight="400"><tspan class="TextPosition" x="5412" y="24320"><tspan fill="rgb(0,0,0)" stroke="none">18.04</tspan></tspan></tspan></text>
 <text class="TextShape" transform="rotate(-90 5733 24320)"><tspan class="TextParagraph" font-family="Liberation Sans, sans-serif" font-size="282px" font-weight="400"><tspan class="TextPosition" x="5733" y="24320"><tspan fill="rgb(0,0,0)" stroke="none">21.04</tspan></tspan></tspan></text>
 <text class="TextShape" transform="rotate(-90 6055 24320)"><tspan class="TextParagraph" font-family="Liberation Sans, sans-serif" font-size="282px" font-weight="400"><tspan class="TextPosition" x="6055" y="24320"><tspan fill="rgb(0,0,0)" stroke="none">24.04</tspan></tspan></tspan></text>
 <text class="TextShape" transform="rotate(-90 6376 24320)"><tspan class="TextParagraph" font-family="Liberation Sans, sans-serif" font-size="282px" font-weight="400"><tspan class="TextPosition" x="6376" y="24320"><tspan fill="rgb(0,0,0)" stroke="none">27.04</tspan></tspan></tspan></text>
 <text class="TextShape" transform="rotate(-90 6697 24320)"><tspan class="TextParagraph" font-family="Liberation Sans, sans-serif" font-size="282px" font-weight="400"><tspan class="TextPosition" x="6697" y="24320"><tspan fill="rgb(0,0,0)" stroke="none">30.04</tspan></tspan></tspan></text>
 <text class="TextShape" transform="rotate(-90 7018 24320)"><tspan class="TextParagraph" font-family="Liberation Sans, sans-serif" font-size="282px" font-weight="400"><tspan class="TextPosition" x="7018" y="24320"><tspan fill="rgb(0,0,0)" stroke="none">03.05</tspan></tspan></tspan></text>
 <text class="TextShape" transform="rotate(-90 7339 24320)"><tspan class="TextParagraph" font-family="Liberation Sans, sans-serif" font-size="282px" font-weight="400"><tspan class="TextPosition" x="7339" y="24320"><tspan fill="rgb(0,0,0)" stroke="none">06.05</tspan></tspan></tspan></text>
 <text class="TextShape" transform="rotate(-90 7660 24320)"><tspan class="TextParagraph" font-family="Liberation Sans, sans-serif" font-size="282px" font-weight="400"><tspan class="TextPosition" x="7660" y="24320"><tspan fill="rgb(0,0,0)" stroke="none">09.05</tspan></tspan></tspan></text>
 <text class="TextShape" transform="rotate(-90 7981 24320)"><tspan class="TextParagraph" font-family="Liberation Sans, sans-serif" font-size="282px" font-weight="400"><tspan class="TextPosition" x="7981" y="24320"><tspan fill="rgb(0,0,0)" stroke="none">12.05</tspan></tspan></tspan></text>
 <text class="TextShape" transform="rotate(-90 8302 24320)"><tspan class="TextParagraph" font-family="Liberation Sans, sans-serif" font-size="282px" font-weight="400"><tspan class="TextPosition" x="8302" y="24320"><tspan fill="rgb(0,0,0)" stroke="none">15.05</tspan></tspan></tspan></text>
 <text class="TextShape" transform="rotate(-90 8623 24320)"><tspan class="TextParagraph" font-family="Liberation Sans, sans-serif" font-size="282px" font-weight="400"><tspan class="TextPosition" x="8623" y="24320"><tspan fill="rgb(0,0,0)" stroke="none">18.05</tspan></tspan></tspan></text>
 <text class="TextShape" transform="rotate(-90 8944 24320)"><tspan class="TextParagraph" font-family="Liberation Sans, sans-serif" font-size="282px" font-weight="400"><tspan class="TextPosition" x="8944" y="24320"><tspan fill="rgb(0,0,0)" stroke="none">21.05</tspan></tspan></tspan></text>
 <text class="TextShape" transform="rotate(-90 9265 24320)"><tspan class="TextParagraph" font-family="Liberation Sans, sans-serif" font-size="282px" font-weight="400"><tspan class="TextPosition" x="9265" y="24320"><tspan fill="rgb(0,0,0)" stroke="none">24.05</tspan></tspan></tspan></text>
 <text class="TextShape" transform="rotate(-90 9586 24320)"><tspan class="TextParagraph" font-family="Liberation Sans, sans-serif" font-size="282px" font-weight="400"><tspan class="TextPosition" x="9586" y="24320"><tspan fill="rgb(0,0,0)" stroke="none">27.05</tspan></tspan></tspan></text>
 <text class="TextShape" transform="rotate(-90 9907 24320)"><tspan class="TextParagraph" font-family="Liberation Sans, sans-serif" font-size="282px" font-weight="400"><tspan class="TextPosition" x="9907" y="24320"><tspan fill="rgb(0,0,0)" stroke="none">30.05</tspan></tspan></tspan></text>
 <text class="TextShape" transform="rotate(-90 10228 24320)"><tspan class="TextParagraph" font-family="Liberation Sans, sans-serif" font-size="282px" font-weight="400"><tspan class="TextPosition" x="10228" y="24320"><tspan fill="rgb(0,0,0)" stroke="none">02.06</tspan></tspan></tspan></text>
 <text class="TextShape" transform="rotate(-90 10549 24320)"><tspan class="TextParagraph" font-family="Liberation Sans, sans-serif" font-size="282px" font-weight="400"><tspan class="TextPosition" x="10549" y="24320"><tspan fill="rgb(0,0,0)" stroke="none">05.06</tspan></tspan></tspan></text>
 <text class="TextShape" transform="rotate(-90 10870 24320)"><tspan class="TextParagraph" font-family="Liberation Sans, sans-serif" font-size="282px" font-weight="400"><tspan class="TextPosition" x="10870" y="24320"><tspan fill="rgb(0,0,0)" stroke="none">08.06</tspan></tspan></tspan></text>
 <text class="TextShape" transform="rotate(-90 11191 24320)"><tspan class="TextParagraph" font-family="Liberation Sans, sans-serif" font-size="282px" font-weight="400"><tspan class="TextPosition" x="11191" y="24320"><tspan fill="rgb(0,0,0)" stroke="none">11.06</tspan></tspan></tspan></text>
 <text class="TextShape" transform="rotate(-90 11512 24320)"><tspan class="TextParagraph" font-family="Liberation Sans, sans-serif" font-size="282px" font-weight="400"><tspan class="TextPosition" x="11512" y="24320"><tspan fill="rgb(0,0,0)" stroke="none">14.06</tspan></tspan></tspan></text>
 <text class="TextShape" transform="rotate(-90 11832 24320)"><tspan class="TextParagraph" font-family="Liberation Sans, sans-serif" font-size="282px" font-weight="400"><tspan class="TextPosition" x="11832" y="24320"><tspan fill="rgb(0,0,0)" stroke="none">17.06</tspan></tspan></tspan></text>
 <text class="TextShape" transform="rotate(-90 12153 24320)"><tspan class="TextParagraph" font-family="Liberation Sans, sans-serif" font-size="282px" font-weight="400"><tspan class="TextPosition" x="12153" y="24320"><tspan fill="rgb(0,0,0)" stroke="none">20.06</tspan></tspan></tspan></text>
 <text class="TextShape" transform="rotate(-90 12474 24320)"><tspan class="TextParagraph" font-family="Liberation Sans, sans-serif" font-size="282px" font-weight="400"><tspan class="TextPosition" x="12474" y="24320"><tspan fill="rgb(0,0,0)" stroke="none">23.06</tspan></tspan></tspan></text>
 <text class="TextShape" transform="rotate(-90 12795 24320)"><tspan class="TextParagraph" font-family="Liberation Sans, sans-serif" font-size="282px" font-weight="400"><tspan class="TextPosition" x="12795" y="24320"><tspan fill="rgb(0,0,0)" stroke="none">26.06</tspan></tspan></tspan></text>
 <text class="TextShape" transform="rotate(-90 13116 24320)"><tspan class="TextParagraph" font-family="Liberation Sans, sans-serif" font-size="282px" font-weight="400"><tspan class="TextPosition" x="13116" y="24320"><tspan fill="rgb(0,0,0)" stroke="none">29.06</tspan></tspan></tspan></text>
 <text class="TextShape" transform="rotate(-90 13437 24320)"><tspan class="TextParagraph" font-family="Liberation Sans, sans-serif" font-size="282px" font-weight="400"><tspan class="TextPosition" x="13437" y="24320"><tspan fill="rgb(0,0,0)" stroke="none">02.07</tspan></tspan></tspan></text>
 <text class="TextShape" transform="rotate(-90 13758 24320)"><tspan class="TextParagraph" font-family="Liberation Sans, sans-serif" font-size="282px" font-weight="400"><tspan class="TextPosition" x="13758" y="24320"><tspan fill="rgb(0,0,0)" stroke="none">05.07</tspan></tspan></tspan></text>
 <text class="TextShape" transform="rotate(-90 14079 24320)"><tspan class="TextParagraph" font-family="Liberation Sans, sans-serif" font-size="282px" font-weight="400"><tspan class="TextPosition" x="14079" y="24320"><tspan fill="rgb(0,0,0)" stroke="none">08.07</tspan></tspan></tspan></text>
 <text class="TextShape" transform="rotate(-90 14400 24320)"><tspan class="TextParagraph" font-family="Liberation Sans, sans-serif" font-size="282px" font-weight="400"><tspan class="TextPosition" x="14400" y="24320"><tspan fill="rgb(0,0,0)" stroke="none">11.07</tspan></tspan></tspan></text>
 <text class="TextShape" transform="rotate(-90 14722 24320)"><tspan class="TextParagraph" font-family="Liberation Sans, sans-serif" font-size="282px" font-weight="400"><tspan class="TextPosition" x="14722" y="24320"><tspan fill="rgb(0,0,0)" stroke="none">14.07</tspan></tspan></tspan></text>
 <text class="TextShape" transform="rotate(-90 15043 24320)"><tspan class="TextParagraph" font-family="Liberation Sans, sans-serif" font-size="282px" font-weight="400"><tspan class="TextPosition" x="15043" y="24320"><tspan fill="rgb(0,0,0)" stroke="none">17.07</tspan></tspan></tspan></text>
 <text class="TextShape" transform="rotate(-90 15364 24320)"><tspan class="TextParagraph" font-family="Liberation Sans, sans-serif" font-size="282px" font-weight="400"><tspan class="TextPosition" x="15364" y="24320"><tspan fill="rgb(0,0,0)" stroke="none">20.07</tspan></tspan></tspan></text>
 <text class="TextShape" transform="rotate(-90 15685 24320)"><tspan class="TextParagraph" font-family="Liberation Sans, sans-serif" font-size="282px" font-weight="400"><tspan class="TextPosition" x="15685" y="24320"><tspan fill="rgb(0,0,0)" stroke="none">23.07</tspan></tspan></tspan></text>
 <text class="TextShape" transform="rotate(-90 16006 24320)"><tspan class="TextParagraph" font-family="Liberation Sans, sans-serif" font-size="282px" font-weight="400"><tspan class="TextPosition" x="16006" y="24320"><tspan fill="rgb(0,0,0)" stroke="none">26.07</tspan></tspan></tspan></text>
 <text class="TextShape" transform="rotate(-90 16327 24320)"><tspan class="TextParagraph" font-family="Liberation Sans, sans-serif" font-size="282px" font-weight="400"><tspan class="TextPosition" x="16327" y="24320"><tspan fill="rgb(0,0,0)" stroke="none">29.07</tspan></tspan></tspan></text>
 <text class="TextShape" transform="rotate(-90 16648 24320)"><tspan class="TextParagraph" font-family="Liberation Sans, sans-serif" font-size="282px" font-weight="400"><tspan class="TextPosition" x="16648" y="24320"><tspan fill="rgb(0,0,0)" stroke="none">01.08</tspan></tspan></tspan></text>
 <text class="TextShape" transform="rotate(-90 16969 24320)"><tspan class="TextParagraph" font-family="Liberation Sans, sans-serif" font-size="282px" font-weight="400"><tspan class="TextPosition" x="16969" y="24320"><tspan fill="rgb(0,0,0)" stroke="none">04.08</tspan></tspan></tspan></text>
 <text class="TextShape" transform="rotate(-90 17290 24320)"><tspan class="TextParagraph" font-family="Liberation Sans, sans-serif" font-size="282px" font-weight="400"><tspan class="TextPosition" x="17290" y="24320"><tspan fill="rgb(0,0,0)" stroke="none">07.08</tspan></tspan></tspan></text>
 <text class="TextShape" transform="rotate(-90 17611 24320)"><tspan class="TextParagraph" font-family="Liberation Sans, sans-serif" font-size="282px" font-weight="400"><tspan class="TextPosition" x="17611" y="24320"><tspan fill="rgb(0,0,0)" stroke="none">10.08</tspan></tspan></tspan></text>
 <text class="TextShape" transform="rotate(-90 17932 24320)"><tspan class="TextParagraph" font-family="Liberation Sans, sans-serif" font-size="282px" font-weight="400"><tspan class="TextPosition" x="17932" y="24320"><tspan fill="rgb(0,0,0)" stroke="none">13.08</tspan></tspan></tspan></text>
 <text class="TextShape" transform="rotate(-90 18253 24320)"><tspan class="TextParagraph" font-family="Liberation Sans, sans-serif" font-size="282px" font-weight="400"><tspan class="TextPosition" x="18253" y="24320"><tspan fill="rgb(0,0,0)" stroke="none">16.08</tspan></tspan></tspan></text>
 <text class="TextShape" transform="rotate(-90 18574 24320)"><tspan class="TextParagraph" font-family="Liberation Sans, sans-serif" font-size="282px" font-weight="400"><tspan class="TextPosition" x="18574" y="24320"><tspan fill="rgb(0,0,0)" stroke="none">19.08</tspan></tspan></tspan></text>
 <text class="TextShape"><tspan class="TextParagraph" font-family="Liberation Sans, sans-serif" font-size="388px" font-weight="400"><tspan class="TextPosition" x="941" y="23482"><tspan fill="rgb(0,0,0)" stroke="none">0</tspan></tspan></tspan></text>
 <text class="TextShape"><tspan class="TextParagraph" font-family="Liberation Sans, sans-serif" font-size="388px" font-weight="400"><tspan class="TextPosition" x="274" y="19875"><tspan fill="rgb(0,0,0)" stroke="none">2000</tspan></tspan></tspan></text>
 <text class="TextShape"><tspan class="TextParagraph" font-family="Liberation Sans, sans-serif" font-size="388px" font-weight="400"><tspan class="TextPosition" x="274" y="16269"><tspan fill="rgb(0,0,0)" stroke="none">4000</tspan></tspan></tspan></text>
 <text class="TextShape"><tspan class="TextParagraph" font-family="Liberation Sans, sans-serif" font-size="388px" font-weight="400"><tspan class="TextPosition" x="274" y="12662"><tspan fill="rgb(0,0,0)" stroke="none">6000</tspan></tspan></tspan></text>
 <text class="TextShape"><tspan class="TextParagraph" font-family="Liberation Sans, sans-serif" font-size="388px" font-weight="400"><tspan class="TextPosition" x="274" y="9056"><tspan fill="rgb(0,0,0)" stroke="none">8000</tspan></tspan></tspan></text>
 <text class="TextShape"><tspan class="TextParagraph" font-family="Liberation Sans, sans-serif" font-size="388px" font-weight="400"><tspan class="TextPosition" x="52" y="5449"><tspan fill="rgb(0,0,0)" stroke="none">10000</tspan></tspan></tspan></text>
 <text class="TextShape"><tspan class="TextParagraph" font-family="Liberation Sans, sans-serif" font-size="388px" font-weight="400"><tspan class="TextPosition" x="52" y="1843"><tspan fill="rgb(0,0,0)" stroke="none">12000</tspan></tspan></tspan></text>
 <text class="TextShape"><tspan class="TextParagraph" font-family="Liberation Sans, sans-serif" font-size="494px" font-weight="700"><tspan class="TextPosition" x="707" y="1000"><tspan fill="rgb(0,0,0)" stroke="none">Poet aktivnch ppad na milin obyvatel</tspan></tspan></tspan></text>
 <path fill="none" stroke="rgb(141,40,30)" stroke-width="80" stroke-linejoin="round" stroke-dasharray="80,40" d="M 18829,2641 L 20429,2641"/>
 <path fill="none" stroke="rgb(255,64,0)" stroke-width="80" stroke-linejoin="round" stroke-dasharray="80,40" d="M 18829,3900 L 20429,3900"/>
 <path fill="none" stroke="rgb(0,223,255)" stroke-width="80" stroke-linejoin="round" stroke-dasharray="158,102" d="M 18829,5159 L 20429,5159"/>
 <path fill="none" stroke="rgb(21,132,102)" stroke-width="80" stroke-linejoin="round" stroke-dasharray="80,203,80,203,203,203" d="M 18829,6418 L 20429,6418"/>
 <path fill="none" stroke="rgb(191,0,65)" stroke-width="80" stroke-linejoin="round" stroke-dasharray="51,127,51,127,254,127,254,127,254,127" d="M 18829,7677 L 20429,7677"/>
 <path fill="none" stroke="rgb(128,0,128)" stroke-width="80" stroke-linejoin="round" stroke-dasharray="158,158" d="M 18829,8936 L 20429,8936"/>
 <path fill="none" stroke="rgb(255,211,32)" stroke-width="80" stroke-linejoin="round" d="M 18829,10195 L 20429,10195"/>
 <path fill="none" stroke="rgb(0,255,0)" stroke-width="80" stroke-linejoin="round" d="M 18829,11454 L 20429,11454"/>
 <path fill="none" stroke="rgb(0,169,51)" stroke-width="80" stroke-linejoin="round" stroke-dasharray="80,40" d="M 18829,12712 L 20429,12712"/>
 <path fill="none" stroke="rgb(180,120,4)" stroke-width="80" stroke-linejoin="round" d="M 18829,13971 L 20429,13971"/>
 <path fill="none" stroke="rgb(0,169,51)" stroke-width="80" stroke-linejoin="round" stroke-dasharray="158,102" d="M 18829,15230 L 20429,15230"/>
 <path fill="none" stroke="rgb(0,127,255)" stroke-width="80" stroke-linejoin="round" d="M 18829,16489 L 20429,16489"/>
 <path fill="none" stroke="rgb(0,169,51)" stroke-width="80" stroke-linejoin="round" d="M 18829,17748 L 20429,17748"/>
 <path fill="none" stroke="rgb(0,0,0)" stroke-width="80" stroke-linejoin="round" d="M 18829,19007 L 20429,19007"/>
 <path fill="none" stroke="rgb(255,0,0)" stroke-width="80" stroke-linejoin="round" stroke-dasharray="158,102" d="M 18829,20266 L 20429,20266"/>
 <path fill="none" stroke="rgb(85,48,141)" stroke-width="80" stroke-linejoin="round" stroke-dasharray="80,40" d="M 18829,21525 L 20429,21525"/>
 <path fill="none" stroke="rgb(0,0,255)" stroke-width="80" stroke-linejoin="round" stroke-dasharray="158,158" d="M 18829,22784 L 20429,22784"/>
 <text class="TextShape"><tspan class="TextParagraph" font-family="Liberation Sans, sans-serif" font-size="423px" font-weight="400"><tspan class="TextPosition" x="20529" y="2789"><tspan fill="rgb(0,0,0)" stroke="none">USA</tspan></tspan></tspan></text>
 <text class="TextShape"><tspan class="TextParagraph" font-family="Liberation Sans, sans-serif" font-size="423px" font-weight="400"><tspan class="TextPosition" x="20529" y="4048"><tspan fill="rgb(0,0,0)" stroke="none">Brazlie</tspan></tspan></tspan></text>
 <text class="TextShape"><tspan class="TextParagraph" font-family="Liberation Sans, sans-serif" font-size="423px" font-weight="400"><tspan class="TextPosition" x="20529" y="5307"><tspan fill="rgb(0,0,0)" stroke="none">Rusko</tspan></tspan></tspan></text>
 <text class="TextShape"><tspan class="TextParagraph" font-family="Liberation Sans, sans-serif" font-size="423px" font-weight="400"><tspan class="TextPosition" x="20529" y="6566"><tspan fill="rgb(0,0,0)" stroke="none">celosvtov</tspan></tspan></tspan></text>
 <text class="TextShape"><tspan class="TextParagraph" font-family="Liberation Sans, sans-serif" font-size="423px" font-weight="400"><tspan class="TextPosition" x="20529" y="7825"><tspan fill="rgb(0,0,0)" stroke="none">EU_nov zem</tspan></tspan></tspan></text>
 <text class="TextShape"><tspan class="TextParagraph" font-family="Liberation Sans, sans-serif" font-size="423px" font-weight="400"><tspan class="TextPosition" x="20529" y="9084"><tspan fill="rgb(0,0,0)" stroke="none">Indie</tspan></tspan></tspan></text>
 <text class="TextShape"><tspan class="TextParagraph" font-family="Liberation Sans, sans-serif" font-size="423px" font-weight="400"><tspan class="TextPosition" x="20529" y="10343"><tspan fill="rgb(0,0,0)" stroke="none">esko</tspan></tspan></tspan></text>
 <text class="TextShape"><tspan class="TextParagraph" font-family="Liberation Sans, sans-serif" font-size="423px" font-weight="400"><tspan class="TextPosition" x="20529" y="11602"><tspan fill="rgb(0,0,0)" stroke="none">vcarsko</tspan></tspan></tspan></text>
 <text class="TextShape"><tspan class="TextParagraph" font-family="Liberation Sans, sans-serif" font-size="423px" font-weight="400"><tspan class="TextPosition" x="20529" y="12860"><tspan fill="rgb(0,0,0)" stroke="none">Mexiko</tspan></tspan></tspan></text>
 <text class="TextShape"><tspan class="TextParagraph" font-family="Liberation Sans, sans-serif" font-size="423px" font-weight="400"><tspan class="TextPosition" x="20529" y="14119"><tspan fill="rgb(0,0,0)" stroke="none">Dnsko</tspan></tspan></tspan></text>
 <text class="TextShape"><tspan class="TextParagraph" font-family="Liberation Sans, sans-serif" font-size="423px" font-weight="400"><tspan class="TextPosition" x="20529" y="15378"><tspan fill="rgb(0,0,0)" stroke="none">rn</tspan></tspan></tspan></text>
 <text class="TextShape"><tspan class="TextParagraph" font-family="Liberation Sans, sans-serif" font-size="423px" font-weight="400"><tspan class="TextPosition" x="20529" y="16637"><tspan fill="rgb(0,0,0)" stroke="none">Itlie</tspan></tspan></tspan></text>
 <text class="TextShape"><tspan class="TextParagraph" font-family="Liberation Sans, sans-serif" font-size="423px" font-weight="400"><tspan class="TextPosition" x="20529" y="17896"><tspan fill="rgb(0,0,0)" stroke="none">Rakousko</tspan></tspan></tspan></text>
 <text class="TextShape"><tspan class="TextParagraph" font-family="Liberation Sans, sans-serif" font-size="423px" font-weight="400"><tspan class="TextPosition" x="20529" y="19155"><tspan fill="rgb(0,0,0)" stroke="none">Nmecko</tspan></tspan></tspan></text>
 <text class="TextShape"><tspan class="TextParagraph" font-family="Liberation Sans, sans-serif" font-size="423px" font-weight="400"><tspan class="TextPosition" x="20529" y="20414"><tspan fill="rgb(0,0,0)" stroke="none">Turecko</tspan></tspan></tspan></text>
 <text class="TextShape"><tspan class="TextParagraph" font-family="Liberation Sans, sans-serif" font-size="423px" font-weight="400"><tspan class="TextPosition" x="20529" y="21673"><tspan fill="rgb(0,0,0)" stroke="none">Kanada</tspan></tspan></tspan></text>
 <text class="TextShape"><tspan class="TextParagraph" font-family="Liberation Sans, sans-serif" font-size="423px" font-weight="400"><tspan class="TextPosition" x="20529" y="22932"><tspan fill="rgb(0,0,0)" stroke="none">Jin Korea</tspan></tspan></tspan></text>
</svg>