<?xml version="1.0" encoding="UTF-8"?>
<!DOCTYPE svg PUBLIC "-//W3C//DTD SVG 1.1//EN" "http://www.w3.org/Graphics/SVG/1.1/DTD/svg11.dtd">
<svg width="236mm" height="250mm" viewBox="0 0 23600 25000" version="1.1" xmlns="http://www.w3.org/2000/svg" xmlns:xlink="http://www.w3.org/1999/xlink" stroke-width="28.222" stroke-linejoin="round" xml:space="preserve">
 <path fill="rgb(255,255,255)" stroke="none" d="M 11800,25000 L 0,25000 0,0 23600,0 23600,25000 11800,25000 Z"/>
 <path fill="none" stroke="rgb(179,179,179)" stroke-linejoin="round" d="M 9905,22794 L 1293,22794 1293,1799 18517,1799 18517,22794 9905,22794 Z"/>
 <path fill="none" stroke="rgb(179,179,179)" stroke-linejoin="round" d="M 18517,22793 L 1293,22793"/>
 <path fill="none" stroke="rgb(179,179,179)" stroke-linejoin="round" d="M 18517,18593 L 1293,18593"/>
 <path fill="none" stroke="rgb(179,179,179)" stroke-linejoin="round" d="M 18517,14394 L 1293,14394"/>
 <path fill="none" stroke="rgb(179,179,179)" stroke-linejoin="round" d="M 18517,10196 L 1293,10196"/>
 <path fill="none" stroke="rgb(179,179,179)" stroke-linejoin="round" d="M 18517,5997 L 1293,5997"/>
 <path fill="none" stroke="rgb(179,179,179)" stroke-linejoin="round" d="M 18517,1798 L 1293,1798"/>
 <path fill="none" stroke="rgb(179,179,179)" stroke-linejoin="round" d="M 1293,22943 L 1293,22793"/>
 <path fill="none" stroke="rgb(179,179,179)" stroke-linejoin="round" d="M 1293,22943 L 1293,22793"/>
 <path fill="none" stroke="rgb(179,179,179)" stroke-linejoin="round" d="M 1404,22943 L 1404,22793"/>
 <path fill="none" stroke="rgb(179,179,179)" stroke-linejoin="round" d="M 1404,22943 L 1404,22793"/>
 <path fill="none" stroke="rgb(179,179,179)" stroke-linejoin="round" d="M 1516,22943 L 1516,22793"/>
 <path fill="none" stroke="rgb(179,179,179)" stroke-linejoin="round" d="M 1516,22943 L 1516,22793"/>
 <path fill="none" stroke="rgb(179,179,179)" stroke-linejoin="round" d="M 1628,22943 L 1628,22793"/>
 <path fill="none" stroke="rgb(179,179,179)" stroke-linejoin="round" d="M 1628,22943 L 1628,22793"/>
 <path fill="none" stroke="rgb(179,179,179)" stroke-linejoin="round" d="M 1740,22943 L 1740,22793"/>
 <path fill="none" stroke="rgb(179,179,179)" stroke-linejoin="round" d="M 1740,22943 L 1740,22793"/>
 <path fill="none" stroke="rgb(179,179,179)" stroke-linejoin="round" d="M 1852,22943 L 1852,22793"/>
 <path fill="none" stroke="rgb(179,179,179)" stroke-linejoin="round" d="M 1852,22943 L 1852,22793"/>
 <path fill="none" stroke="rgb(179,179,179)" stroke-linejoin="round" d="M 1964,22943 L 1964,22793"/>
 <path fill="none" stroke="rgb(179,179,179)" stroke-linejoin="round" d="M 1964,22943 L 1964,22793"/>
 <path fill="none" stroke="rgb(179,179,179)" stroke-linejoin="round" d="M 2075,22943 L 2075,22793"/>
 <path fill="none" stroke="rgb(179,179,179)" stroke-linejoin="round" d="M 2075,22943 L 2075,22793"/>
 <path fill="none" stroke="rgb(179,179,179)" stroke-linejoin="round" d="M 2187,22943 L 2187,22793"/>
 <path fill="none" stroke="rgb(179,179,179)" stroke-linejoin="round" d="M 2187,22943 L 2187,22793"/>
 <path fill="none" stroke="rgb(179,179,179)" stroke-linejoin="round" d="M 2299,22943 L 2299,22793"/>
 <path fill="none" stroke="rgb(179,179,179)" stroke-linejoin="round" d="M 2299,22943 L 2299,22793"/>
 <path fill="none" stroke="rgb(179,179,179)" stroke-linejoin="round" d="M 2411,22943 L 2411,22793"/>
 <path fill="none" stroke="rgb(179,179,179)" stroke-linejoin="round" d="M 2411,22943 L 2411,22793"/>
 <path fill="none" stroke="rgb(179,179,179)" stroke-linejoin="round" d="M 2523,22943 L 2523,22793"/>
 <path fill="none" stroke="rgb(179,179,179)" stroke-linejoin="round" d="M 2523,22943 L 2523,22793"/>
 <path fill="none" stroke="rgb(179,179,179)" stroke-linejoin="round" d="M 2635,22943 L 2635,22793"/>
 <path fill="none" stroke="rgb(179,179,179)" stroke-linejoin="round" d="M 2635,22943 L 2635,22793"/>
 <path fill="none" stroke="rgb(179,179,179)" stroke-linejoin="round" d="M 2747,22943 L 2747,22793"/>
 <path fill="none" stroke="rgb(179,179,179)" stroke-linejoin="round" d="M 2747,22943 L 2747,22793"/>
 <path fill="none" stroke="rgb(179,179,179)" stroke-linejoin="round" d="M 2858,22943 L 2858,22793"/>
 <path fill="none" stroke="rgb(179,179,179)" stroke-linejoin="round" d="M 2858,22943 L 2858,22793"/>
 <path fill="none" stroke="rgb(179,179,179)" stroke-linejoin="round" d="M 2970,22943 L 2970,22793"/>
 <path fill="none" stroke="rgb(179,179,179)" stroke-linejoin="round" d="M 2970,22943 L 2970,22793"/>
 <path fill="none" stroke="rgb(179,179,179)" stroke-linejoin="round" d="M 3082,22943 L 3082,22793"/>
 <path fill="none" stroke="rgb(179,179,179)" stroke-linejoin="round" d="M 3082,22943 L 3082,22793"/>
 <path fill="none" stroke="rgb(179,179,179)" stroke-linejoin="round" d="M 3194,22943 L 3194,22793"/>
 <path fill="none" stroke="rgb(179,179,179)" stroke-linejoin="round" d="M 3194,22943 L 3194,22793"/>
 <path fill="none" stroke="rgb(179,179,179)" stroke-linejoin="round" d="M 3306,22943 L 3306,22793"/>
 <path fill="none" stroke="rgb(179,179,179)" stroke-linejoin="round" d="M 3306,22943 L 3306,22793"/>
 <path fill="none" stroke="rgb(179,179,179)" stroke-linejoin="round" d="M 3418,22943 L 3418,22793"/>
 <path fill="none" stroke="rgb(179,179,179)" stroke-linejoin="round" d="M 3418,22943 L 3418,22793"/>
 <path fill="none" stroke="rgb(179,179,179)" stroke-linejoin="round" d="M 3530,22943 L 3530,22793"/>
 <path fill="none" stroke="rgb(179,179,179)" stroke-linejoin="round" d="M 3530,22943 L 3530,22793"/>
 <path fill="none" stroke="rgb(179,179,179)" stroke-linejoin="round" d="M 3641,22943 L 3641,22793"/>
 <path fill="none" stroke="rgb(179,179,179)" stroke-linejoin="round" d="M 3641,22943 L 3641,22793"/>
 <path fill="none" stroke="rgb(179,179,179)" stroke-linejoin="round" d="M 3753,22943 L 3753,22793"/>
 <path fill="none" stroke="rgb(179,179,179)" stroke-linejoin="round" d="M 3753,22943 L 3753,22793"/>
 <path fill="none" stroke="rgb(179,179,179)" stroke-linejoin="round" d="M 3865,22943 L 3865,22793"/>
 <path fill="none" stroke="rgb(179,179,179)" stroke-linejoin="round" d="M 3865,22943 L 3865,22793"/>
 <path fill="none" stroke="rgb(179,179,179)" stroke-linejoin="round" d="M 3977,22943 L 3977,22793"/>
 <path fill="none" stroke="rgb(179,179,179)" stroke-linejoin="round" d="M 3977,22943 L 3977,22793"/>
 <path fill="none" stroke="rgb(179,179,179)" stroke-linejoin="round" d="M 4089,22943 L 4089,22793"/>
 <path fill="none" stroke="rgb(179,179,179)" stroke-linejoin="round" d="M 4089,22943 L 4089,22793"/>
 <path fill="none" stroke="rgb(179,179,179)" stroke-linejoin="round" d="M 4201,22943 L 4201,22793"/>
 <path fill="none" stroke="rgb(179,179,179)" stroke-linejoin="round" d="M 4201,22943 L 4201,22793"/>
 <path fill="none" stroke="rgb(179,179,179)" stroke-linejoin="round" d="M 4312,22943 L 4312,22793"/>
 <path fill="none" stroke="rgb(179,179,179)" stroke-linejoin="round" d="M 4312,22943 L 4312,22793"/>
 <path fill="none" stroke="rgb(179,179,179)" stroke-linejoin="round" d="M 4424,22943 L 4424,22793"/>
 <path fill="none" stroke="rgb(179,179,179)" stroke-linejoin="round" d="M 4424,22943 L 4424,22793"/>
 <path fill="none" stroke="rgb(179,179,179)" stroke-linejoin="round" d="M 4536,22943 L 4536,22793"/>
 <path fill="none" stroke="rgb(179,179,179)" stroke-linejoin="round" d="M 4536,22943 L 4536,22793"/>
 <path fill="none" stroke="rgb(179,179,179)" stroke-linejoin="round" d="M 4648,22943 L 4648,22793"/>
 <path fill="none" stroke="rgb(179,179,179)" stroke-linejoin="round" d="M 4648,22943 L 4648,22793"/>
 <path fill="none" stroke="rgb(179,179,179)" stroke-linejoin="round" d="M 4760,22943 L 4760,22793"/>
 <path fill="none" stroke="rgb(179,179,179)" stroke-linejoin="round" d="M 4760,22943 L 4760,22793"/>
 <path fill="none" stroke="rgb(179,179,179)" stroke-linejoin="round" d="M 4872,22943 L 4872,22793"/>
 <path fill="none" stroke="rgb(179,179,179)" stroke-linejoin="round" d="M 4872,22943 L 4872,22793"/>
 <path fill="none" stroke="rgb(179,179,179)" stroke-linejoin="round" d="M 4984,22943 L 4984,22793"/>
 <path fill="none" stroke="rgb(179,179,179)" stroke-linejoin="round" d="M 4984,22943 L 4984,22793"/>
 <path fill="none" stroke="rgb(179,179,179)" stroke-linejoin="round" d="M 5095,22943 L 5095,22793"/>
 <path fill="none" stroke="rgb(179,179,179)" stroke-linejoin="round" d="M 5095,22943 L 5095,22793"/>
 <path fill="none" stroke="rgb(179,179,179)" stroke-linejoin="round" d="M 5207,22943 L 5207,22793"/>
 <path fill="none" stroke="rgb(179,179,179)" stroke-linejoin="round" d="M 5207,22943 L 5207,22793"/>
 <path fill="none" stroke="rgb(179,179,179)" stroke-linejoin="round" d="M 5319,22943 L 5319,22793"/>
 <path fill="none" stroke="rgb(179,179,179)" stroke-linejoin="round" d="M 5319,22943 L 5319,22793"/>
 <path fill="none" stroke="rgb(179,179,179)" stroke-linejoin="round" d="M 5431,22943 L 5431,22793"/>
 <path fill="none" stroke="rgb(179,179,179)" stroke-linejoin="round" d="M 5431,22943 L 5431,22793"/>
 <path fill="none" stroke="rgb(179,179,179)" stroke-linejoin="round" d="M 5543,22943 L 5543,22793"/>
 <path fill="none" stroke="rgb(179,179,179)" stroke-linejoin="round" d="M 5543,22943 L 5543,22793"/>
 <path fill="none" stroke="rgb(179,179,179)" stroke-linejoin="round" d="M 5655,22943 L 5655,22793"/>
 <path fill="none" stroke="rgb(179,179,179)" stroke-linejoin="round" d="M 5655,22943 L 5655,22793"/>
 <path fill="none" stroke="rgb(179,179,179)" stroke-linejoin="round" d="M 5767,22943 L 5767,22793"/>
 <path fill="none" stroke="rgb(179,179,179)" stroke-linejoin="round" d="M 5767,22943 L 5767,22793"/>
 <path fill="none" stroke="rgb(179,179,179)" stroke-linejoin="round" d="M 5878,22943 L 5878,22793"/>
 <path fill="none" stroke="rgb(179,179,179)" stroke-linejoin="round" d="M 5878,22943 L 5878,22793"/>
 <path fill="none" stroke="rgb(179,179,179)" stroke-linejoin="round" d="M 5990,22943 L 5990,22793"/>
 <path fill="none" stroke="rgb(179,179,179)" stroke-linejoin="round" d="M 5990,22943 L 5990,22793"/>
 <path fill="none" stroke="rgb(179,179,179)" stroke-linejoin="round" d="M 6102,22943 L 6102,22793"/>
 <path fill="none" stroke="rgb(179,179,179)" stroke-linejoin="round" d="M 6102,22943 L 6102,22793"/>
 <path fill="none" stroke="rgb(179,179,179)" stroke-linejoin="round" d="M 6214,22943 L 6214,22793"/>
 <path fill="none" stroke="rgb(179,179,179)" stroke-linejoin="round" d="M 6214,22943 L 6214,22793"/>
 <path fill="none" stroke="rgb(179,179,179)" stroke-linejoin="round" d="M 6326,22943 L 6326,22793"/>
 <path fill="none" stroke="rgb(179,179,179)" stroke-linejoin="round" d="M 6326,22943 L 6326,22793"/>
 <path fill="none" stroke="rgb(179,179,179)" stroke-linejoin="round" d="M 6438,22943 L 6438,22793"/>
 <path fill="none" stroke="rgb(179,179,179)" stroke-linejoin="round" d="M 6438,22943 L 6438,22793"/>
 <path fill="none" stroke="rgb(179,179,179)" stroke-linejoin="round" d="M 6549,22943 L 6549,22793"/>
 <path fill="none" stroke="rgb(179,179,179)" stroke-linejoin="round" d="M 6549,22943 L 6549,22793"/>
 <path fill="none" stroke="rgb(179,179,179)" stroke-linejoin="round" d="M 6661,22943 L 6661,22793"/>
 <path fill="none" stroke="rgb(179,179,179)" stroke-linejoin="round" d="M 6661,22943 L 6661,22793"/>
 <path fill="none" stroke="rgb(179,179,179)" stroke-linejoin="round" d="M 6773,22943 L 6773,22793"/>
 <path fill="none" stroke="rgb(179,179,179)" stroke-linejoin="round" d="M 6773,22943 L 6773,22793"/>
 <path fill="none" stroke="rgb(179,179,179)" stroke-linejoin="round" d="M 6885,22943 L 6885,22793"/>
 <path fill="none" stroke="rgb(179,179,179)" stroke-linejoin="round" d="M 6885,22943 L 6885,22793"/>
 <path fill="none" stroke="rgb(179,179,179)" stroke-linejoin="round" d="M 6997,22943 L 6997,22793"/>
 <path fill="none" stroke="rgb(179,179,179)" stroke-linejoin="round" d="M 6997,22943 L 6997,22793"/>
 <path fill="none" stroke="rgb(179,179,179)" stroke-linejoin="round" d="M 7109,22943 L 7109,22793"/>
 <path fill="none" stroke="rgb(179,179,179)" stroke-linejoin="round" d="M 7109,22943 L 7109,22793"/>
 <path fill="none" stroke="rgb(179,179,179)" stroke-linejoin="round" d="M 7221,22943 L 7221,22793"/>
 <path fill="none" stroke="rgb(179,179,179)" stroke-linejoin="round" d="M 7221,22943 L 7221,22793"/>
 <path fill="none" stroke="rgb(179,179,179)" stroke-linejoin="round" d="M 7332,22943 L 7332,22793"/>
 <path fill="none" stroke="rgb(179,179,179)" stroke-linejoin="round" d="M 7332,22943 L 7332,22793"/>
 <path fill="none" stroke="rgb(179,179,179)" stroke-linejoin="round" d="M 7444,22943 L 7444,22793"/>
 <path fill="none" stroke="rgb(179,179,179)" stroke-linejoin="round" d="M 7444,22943 L 7444,22793"/>
 <path fill="none" stroke="rgb(179,179,179)" stroke-linejoin="round" d="M 7556,22943 L 7556,22793"/>
 <path fill="none" stroke="rgb(179,179,179)" stroke-linejoin="round" d="M 7556,22943 L 7556,22793"/>
 <path fill="none" stroke="rgb(179,179,179)" stroke-linejoin="round" d="M 7668,22943 L 7668,22793"/>
 <path fill="none" stroke="rgb(179,179,179)" stroke-linejoin="round" d="M 7668,22943 L 7668,22793"/>
 <path fill="none" stroke="rgb(179,179,179)" stroke-linejoin="round" d="M 7780,22943 L 7780,22793"/>
 <path fill="none" stroke="rgb(179,179,179)" stroke-linejoin="round" d="M 7780,22943 L 7780,22793"/>
 <path fill="none" stroke="rgb(179,179,179)" stroke-linejoin="round" d="M 7892,22943 L 7892,22793"/>
 <path fill="none" stroke="rgb(179,179,179)" stroke-linejoin="round" d="M 7892,22943 L 7892,22793"/>
 <path fill="none" stroke="rgb(179,179,179)" stroke-linejoin="round" d="M 8004,22943 L 8004,22793"/>
 <path fill="none" stroke="rgb(179,179,179)" stroke-linejoin="round" d="M 8004,22943 L 8004,22793"/>
 <path fill="none" stroke="rgb(179,179,179)" stroke-linejoin="round" d="M 8115,22943 L 8115,22793"/>
 <path fill="none" stroke="rgb(179,179,179)" stroke-linejoin="round" d="M 8115,22943 L 8115,22793"/>
 <path fill="none" stroke="rgb(179,179,179)" stroke-linejoin="round" d="M 8227,22943 L 8227,22793"/>
 <path fill="none" stroke="rgb(179,179,179)" stroke-linejoin="round" d="M 8227,22943 L 8227,22793"/>
 <path fill="none" stroke="rgb(179,179,179)" stroke-linejoin="round" d="M 8339,22943 L 8339,22793"/>
 <path fill="none" stroke="rgb(179,179,179)" stroke-linejoin="round" d="M 8339,22943 L 8339,22793"/>
 <path fill="none" stroke="rgb(179,179,179)" stroke-linejoin="round" d="M 8451,22943 L 8451,22793"/>
 <path fill="none" stroke="rgb(179,179,179)" stroke-linejoin="round" d="M 8451,22943 L 8451,22793"/>
 <path fill="none" stroke="rgb(179,179,179)" stroke-linejoin="round" d="M 8563,22943 L 8563,22793"/>
 <path fill="none" stroke="rgb(179,179,179)" stroke-linejoin="round" d="M 8563,22943 L 8563,22793"/>
 <path fill="none" stroke="rgb(179,179,179)" stroke-linejoin="round" d="M 8675,22943 L 8675,22793"/>
 <path fill="none" stroke="rgb(179,179,179)" stroke-linejoin="round" d="M 8675,22943 L 8675,22793"/>
 <path fill="none" stroke="rgb(179,179,179)" stroke-linejoin="round" d="M 8786,22943 L 8786,22793"/>
 <path fill="none" stroke="rgb(179,179,179)" stroke-linejoin="round" d="M 8786,22943 L 8786,22793"/>
 <path fill="none" stroke="rgb(179,179,179)" stroke-linejoin="round" d="M 8898,22943 L 8898,22793"/>
 <path fill="none" stroke="rgb(179,179,179)" stroke-linejoin="round" d="M 8898,22943 L 8898,22793"/>
 <path fill="none" stroke="rgb(179,179,179)" stroke-linejoin="round" d="M 9010,22943 L 9010,22793"/>
 <path fill="none" stroke="rgb(179,179,179)" stroke-linejoin="round" d="M 9010,22943 L 9010,22793"/>
 <path fill="none" stroke="rgb(179,179,179)" stroke-linejoin="round" d="M 9122,22943 L 9122,22793"/>
 <path fill="none" stroke="rgb(179,179,179)" stroke-linejoin="round" d="M 9122,22943 L 9122,22793"/>
 <path fill="none" stroke="rgb(179,179,179)" stroke-linejoin="round" d="M 9234,22943 L 9234,22793"/>
 <path fill="none" stroke="rgb(179,179,179)" stroke-linejoin="round" d="M 9234,22943 L 9234,22793"/>
 <path fill="none" stroke="rgb(179,179,179)" stroke-linejoin="round" d="M 9346,22943 L 9346,22793"/>
 <path fill="none" stroke="rgb(179,179,179)" stroke-linejoin="round" d="M 9346,22943 L 9346,22793"/>
 <path fill="none" stroke="rgb(179,179,179)" stroke-linejoin="round" d="M 9458,22943 L 9458,22793"/>
 <path fill="none" stroke="rgb(179,179,179)" stroke-linejoin="round" d="M 9458,22943 L 9458,22793"/>
 <path fill="none" stroke="rgb(179,179,179)" stroke-linejoin="round" d="M 9569,22943 L 9569,22793"/>
 <path fill="none" stroke="rgb(179,179,179)" stroke-linejoin="round" d="M 9569,22943 L 9569,22793"/>
 <path fill="none" stroke="rgb(179,179,179)" stroke-linejoin="round" d="M 9681,22943 L 9681,22793"/>
 <path fill="none" stroke="rgb(179,179,179)" stroke-linejoin="round" d="M 9681,22943 L 9681,22793"/>
 <path fill="none" stroke="rgb(179,179,179)" stroke-linejoin="round" d="M 9793,22943 L 9793,22793"/>
 <path fill="none" stroke="rgb(179,179,179)" stroke-linejoin="round" d="M 9793,22943 L 9793,22793"/>
 <path fill="none" stroke="rgb(179,179,179)" stroke-linejoin="round" d="M 9905,22943 L 9905,22793"/>
 <path fill="none" stroke="rgb(179,179,179)" stroke-linejoin="round" d="M 9905,22943 L 9905,22793"/>
 <path fill="none" stroke="rgb(179,179,179)" stroke-linejoin="round" d="M 10017,22943 L 10017,22793"/>
 <path fill="none" stroke="rgb(179,179,179)" stroke-linejoin="round" d="M 10017,22943 L 10017,22793"/>
 <path fill="none" stroke="rgb(179,179,179)" stroke-linejoin="round" d="M 10129,22943 L 10129,22793"/>
 <path fill="none" stroke="rgb(179,179,179)" stroke-linejoin="round" d="M 10129,22943 L 10129,22793"/>
 <path fill="none" stroke="rgb(179,179,179)" stroke-linejoin="round" d="M 10241,22943 L 10241,22793"/>
 <path fill="none" stroke="rgb(179,179,179)" stroke-linejoin="round" d="M 10241,22943 L 10241,22793"/>
 <path fill="none" stroke="rgb(179,179,179)" stroke-linejoin="round" d="M 10352,22943 L 10352,22793"/>
 <path fill="none" stroke="rgb(179,179,179)" stroke-linejoin="round" d="M 10352,22943 L 10352,22793"/>
 <path fill="none" stroke="rgb(179,179,179)" stroke-linejoin="round" d="M 10464,22943 L 10464,22793"/>
 <path fill="none" stroke="rgb(179,179,179)" stroke-linejoin="round" d="M 10464,22943 L 10464,22793"/>
 <path fill="none" stroke="rgb(179,179,179)" stroke-linejoin="round" d="M 10576,22943 L 10576,22793"/>
 <path fill="none" stroke="rgb(179,179,179)" stroke-linejoin="round" d="M 10576,22943 L 10576,22793"/>
 <path fill="none" stroke="rgb(179,179,179)" stroke-linejoin="round" d="M 10688,22943 L 10688,22793"/>
 <path fill="none" stroke="rgb(179,179,179)" stroke-linejoin="round" d="M 10688,22943 L 10688,22793"/>
 <path fill="none" stroke="rgb(179,179,179)" stroke-linejoin="round" d="M 10800,22943 L 10800,22793"/>
 <path fill="none" stroke="rgb(179,179,179)" stroke-linejoin="round" d="M 10800,22943 L 10800,22793"/>
 <path fill="none" stroke="rgb(179,179,179)" stroke-linejoin="round" d="M 10912,22943 L 10912,22793"/>
 <path fill="none" stroke="rgb(179,179,179)" stroke-linejoin="round" d="M 10912,22943 L 10912,22793"/>
 <path fill="none" stroke="rgb(179,179,179)" stroke-linejoin="round" d="M 11024,22943 L 11024,22793"/>
 <path fill="none" stroke="rgb(179,179,179)" stroke-linejoin="round" d="M 11024,22943 L 11024,22793"/>
 <path fill="none" stroke="rgb(179,179,179)" stroke-linejoin="round" d="M 11135,22943 L 11135,22793"/>
 <path fill="none" stroke="rgb(179,179,179)" stroke-linejoin="round" d="M 11135,22943 L 11135,22793"/>
 <path fill="none" stroke="rgb(179,179,179)" stroke-linejoin="round" d="M 11247,22943 L 11247,22793"/>
 <path fill="none" stroke="rgb(179,179,179)" stroke-linejoin="round" d="M 11247,22943 L 11247,22793"/>
 <path fill="none" stroke="rgb(179,179,179)" stroke-linejoin="round" d="M 11359,22943 L 11359,22793"/>
 <path fill="none" stroke="rgb(179,179,179)" stroke-linejoin="round" d="M 11359,22943 L 11359,22793"/>
 <path fill="none" stroke="rgb(179,179,179)" stroke-linejoin="round" d="M 11471,22943 L 11471,22793"/>
 <path fill="none" stroke="rgb(179,179,179)" stroke-linejoin="round" d="M 11471,22943 L 11471,22793"/>
 <path fill="none" stroke="rgb(179,179,179)" stroke-linejoin="round" d="M 11583,22943 L 11583,22793"/>
 <path fill="none" stroke="rgb(179,179,179)" stroke-linejoin="round" d="M 11583,22943 L 11583,22793"/>
 <path fill="none" stroke="rgb(179,179,179)" stroke-linejoin="round" d="M 11695,22943 L 11695,22793"/>
 <path fill="none" stroke="rgb(179,179,179)" stroke-linejoin="round" d="M 11695,22943 L 11695,22793"/>
 <path fill="none" stroke="rgb(179,179,179)" stroke-linejoin="round" d="M 11805,22943 L 11805,22793"/>
 <path fill="none" stroke="rgb(179,179,179)" stroke-linejoin="round" d="M 11805,22943 L 11805,22793"/>
 <path fill="none" stroke="rgb(179,179,179)" stroke-linejoin="round" d="M 11917,22943 L 11917,22793"/>
 <path fill="none" stroke="rgb(179,179,179)" stroke-linejoin="round" d="M 11917,22943 L 11917,22793"/>
 <path fill="none" stroke="rgb(179,179,179)" stroke-linejoin="round" d="M 12029,22943 L 12029,22793"/>
 <path fill="none" stroke="rgb(179,179,179)" stroke-linejoin="round" d="M 12029,22943 L 12029,22793"/>
 <path fill="none" stroke="rgb(179,179,179)" stroke-linejoin="round" d="M 12141,22943 L 12141,22793"/>
 <path fill="none" stroke="rgb(179,179,179)" stroke-linejoin="round" d="M 12141,22943 L 12141,22793"/>
 <path fill="none" stroke="rgb(179,179,179)" stroke-linejoin="round" d="M 12253,22943 L 12253,22793"/>
 <path fill="none" stroke="rgb(179,179,179)" stroke-linejoin="round" d="M 12253,22943 L 12253,22793"/>
 <path fill="none" stroke="rgb(179,179,179)" stroke-linejoin="round" d="M 12365,22943 L 12365,22793"/>
 <path fill="none" stroke="rgb(179,179,179)" stroke-linejoin="round" d="M 12365,22943 L 12365,22793"/>
 <path fill="none" stroke="rgb(179,179,179)" stroke-linejoin="round" d="M 12477,22943 L 12477,22793"/>
 <path fill="none" stroke="rgb(179,179,179)" stroke-linejoin="round" d="M 12477,22943 L 12477,22793"/>
 <path fill="none" stroke="rgb(179,179,179)" stroke-linejoin="round" d="M 12588,22943 L 12588,22793"/>
 <path fill="none" stroke="rgb(179,179,179)" stroke-linejoin="round" d="M 12588,22943 L 12588,22793"/>
 <path fill="none" stroke="rgb(179,179,179)" stroke-linejoin="round" d="M 12700,22943 L 12700,22793"/>
 <path fill="none" stroke="rgb(179,179,179)" stroke-linejoin="round" d="M 12700,22943 L 12700,22793"/>
 <path fill="none" stroke="rgb(179,179,179)" stroke-linejoin="round" d="M 12812,22943 L 12812,22793"/>
 <path fill="none" stroke="rgb(179,179,179)" stroke-linejoin="round" d="M 12812,22943 L 12812,22793"/>
 <path fill="none" stroke="rgb(179,179,179)" stroke-linejoin="round" d="M 12924,22943 L 12924,22793"/>
 <path fill="none" stroke="rgb(179,179,179)" stroke-linejoin="round" d="M 12924,22943 L 12924,22793"/>
 <path fill="none" stroke="rgb(179,179,179)" stroke-linejoin="round" d="M 13036,22943 L 13036,22793"/>
 <path fill="none" stroke="rgb(179,179,179)" stroke-linejoin="round" d="M 13036,22943 L 13036,22793"/>
 <path fill="none" stroke="rgb(179,179,179)" stroke-linejoin="round" d="M 13148,22943 L 13148,22793"/>
 <path fill="none" stroke="rgb(179,179,179)" stroke-linejoin="round" d="M 13148,22943 L 13148,22793"/>
 <path fill="none" stroke="rgb(179,179,179)" stroke-linejoin="round" d="M 13260,22943 L 13260,22793"/>
 <path fill="none" stroke="rgb(179,179,179)" stroke-linejoin="round" d="M 13260,22943 L 13260,22793"/>
 <path fill="none" stroke="rgb(179,179,179)" stroke-linejoin="round" d="M 13371,22943 L 13371,22793"/>
 <path fill="none" stroke="rgb(179,179,179)" stroke-linejoin="round" d="M 13371,22943 L 13371,22793"/>
 <path fill="none" stroke="rgb(179,179,179)" stroke-linejoin="round" d="M 13483,22943 L 13483,22793"/>
 <path fill="none" stroke="rgb(179,179,179)" stroke-linejoin="round" d="M 13483,22943 L 13483,22793"/>
 <path fill="none" stroke="rgb(179,179,179)" stroke-linejoin="round" d="M 13595,22943 L 13595,22793"/>
 <path fill="none" stroke="rgb(179,179,179)" stroke-linejoin="round" d="M 13595,22943 L 13595,22793"/>
 <path fill="none" stroke="rgb(179,179,179)" stroke-linejoin="round" d="M 13707,22943 L 13707,22793"/>
 <path fill="none" stroke="rgb(179,179,179)" stroke-linejoin="round" d="M 13707,22943 L 13707,22793"/>
 <path fill="none" stroke="rgb(179,179,179)" stroke-linejoin="round" d="M 13819,22943 L 13819,22793"/>
 <path fill="none" stroke="rgb(179,179,179)" stroke-linejoin="round" d="M 13819,22943 L 13819,22793"/>
 <path fill="none" stroke="rgb(179,179,179)" stroke-linejoin="round" d="M 13931,22943 L 13931,22793"/>
 <path fill="none" stroke="rgb(179,179,179)" stroke-linejoin="round" d="M 13931,22943 L 13931,22793"/>
 <path fill="none" stroke="rgb(179,179,179)" stroke-linejoin="round" d="M 14042,22943 L 14042,22793"/>
 <path fill="none" stroke="rgb(179,179,179)" stroke-linejoin="round" d="M 14042,22943 L 14042,22793"/>
 <path fill="none" stroke="rgb(179,179,179)" stroke-linejoin="round" d="M 14154,22943 L 14154,22793"/>
 <path fill="none" stroke="rgb(179,179,179)" stroke-linejoin="round" d="M 14154,22943 L 14154,22793"/>
 <path fill="none" stroke="rgb(179,179,179)" stroke-linejoin="round" d="M 14266,22943 L 14266,22793"/>
 <path fill="none" stroke="rgb(179,179,179)" stroke-linejoin="round" d="M 14266,22943 L 14266,22793"/>
 <path fill="none" stroke="rgb(179,179,179)" stroke-linejoin="round" d="M 14378,22943 L 14378,22793"/>
 <path fill="none" stroke="rgb(179,179,179)" stroke-linejoin="round" d="M 14378,22943 L 14378,22793"/>
 <path fill="none" stroke="rgb(179,179,179)" stroke-linejoin="round" d="M 14490,22943 L 14490,22793"/>
 <path fill="none" stroke="rgb(179,179,179)" stroke-linejoin="round" d="M 14490,22943 L 14490,22793"/>
 <path fill="none" stroke="rgb(179,179,179)" stroke-linejoin="round" d="M 14602,22943 L 14602,22793"/>
 <path fill="none" stroke="rgb(179,179,179)" stroke-linejoin="round" d="M 14602,22943 L 14602,22793"/>
 <path fill="none" stroke="rgb(179,179,179)" stroke-linejoin="round" d="M 14714,22943 L 14714,22793"/>
 <path fill="none" stroke="rgb(179,179,179)" stroke-linejoin="round" d="M 14714,22943 L 14714,22793"/>
 <path fill="none" stroke="rgb(179,179,179)" stroke-linejoin="round" d="M 14825,22943 L 14825,22793"/>
 <path fill="none" stroke="rgb(179,179,179)" stroke-linejoin="round" d="M 14825,22943 L 14825,22793"/>
 <path fill="none" stroke="rgb(179,179,179)" stroke-linejoin="round" d="M 14937,22943 L 14937,22793"/>
 <path fill="none" stroke="rgb(179,179,179)" stroke-linejoin="round" d="M 14937,22943 L 14937,22793"/>
 <path fill="none" stroke="rgb(179,179,179)" stroke-linejoin="round" d="M 15049,22943 L 15049,22793"/>
 <path fill="none" stroke="rgb(179,179,179)" stroke-linejoin="round" d="M 15049,22943 L 15049,22793"/>
 <path fill="none" stroke="rgb(179,179,179)" stroke-linejoin="round" d="M 15161,22943 L 15161,22793"/>
 <path fill="none" stroke="rgb(179,179,179)" stroke-linejoin="round" d="M 15161,22943 L 15161,22793"/>
 <path fill="none" stroke="rgb(179,179,179)" stroke-linejoin="round" d="M 15273,22943 L 15273,22793"/>
 <path fill="none" stroke="rgb(179,179,179)" stroke-linejoin="round" d="M 15273,22943 L 15273,22793"/>
 <path fill="none" stroke="rgb(179,179,179)" stroke-linejoin="round" d="M 15385,22943 L 15385,22793"/>
 <path fill="none" stroke="rgb(179,179,179)" stroke-linejoin="round" d="M 15385,22943 L 15385,22793"/>
 <path fill="none" stroke="rgb(179,179,179)" stroke-linejoin="round" d="M 15497,22943 L 15497,22793"/>
 <path fill="none" stroke="rgb(179,179,179)" stroke-linejoin="round" d="M 15497,22943 L 15497,22793"/>
 <path fill="none" stroke="rgb(179,179,179)" stroke-linejoin="round" d="M 15608,22943 L 15608,22793"/>
 <path fill="none" stroke="rgb(179,179,179)" stroke-linejoin="round" d="M 15608,22943 L 15608,22793"/>
 <path fill="none" stroke="rgb(179,179,179)" stroke-linejoin="round" d="M 15720,22943 L 15720,22793"/>
 <path fill="none" stroke="rgb(179,179,179)" stroke-linejoin="round" d="M 15720,22943 L 15720,22793"/>
 <path fill="none" stroke="rgb(179,179,179)" stroke-linejoin="round" d="M 15832,22943 L 15832,22793"/>
 <path fill="none" stroke="rgb(179,179,179)" stroke-linejoin="round" d="M 15832,22943 L 15832,22793"/>
 <path fill="none" stroke="rgb(179,179,179)" stroke-linejoin="round" d="M 15944,22943 L 15944,22793"/>
 <path fill="none" stroke="rgb(179,179,179)" stroke-linejoin="round" d="M 15944,22943 L 15944,22793"/>
 <path fill="none" stroke="rgb(179,179,179)" stroke-linejoin="round" d="M 16056,22943 L 16056,22793"/>
 <path fill="none" stroke="rgb(179,179,179)" stroke-linejoin="round" d="M 16056,22943 L 16056,22793"/>
 <path fill="none" stroke="rgb(179,179,179)" stroke-linejoin="round" d="M 16168,22943 L 16168,22793"/>
 <path fill="none" stroke="rgb(179,179,179)" stroke-linejoin="round" d="M 16168,22943 L 16168,22793"/>
 <path fill="none" stroke="rgb(179,179,179)" stroke-linejoin="round" d="M 16279,22943 L 16279,22793"/>
 <path fill="none" stroke="rgb(179,179,179)" stroke-linejoin="round" d="M 16279,22943 L 16279,22793"/>
 <path fill="none" stroke="rgb(179,179,179)" stroke-linejoin="round" d="M 16391,22943 L 16391,22793"/>
 <path fill="none" stroke="rgb(179,179,179)" stroke-linejoin="round" d="M 16391,22943 L 16391,22793"/>
 <path fill="none" stroke="rgb(179,179,179)" stroke-linejoin="round" d="M 16503,22943 L 16503,22793"/>
 <path fill="none" stroke="rgb(179,179,179)" stroke-linejoin="round" d="M 16503,22943 L 16503,22793"/>
 <path fill="none" stroke="rgb(179,179,179)" stroke-linejoin="round" d="M 16615,22943 L 16615,22793"/>
 <path fill="none" stroke="rgb(179,179,179)" stroke-linejoin="round" d="M 16615,22943 L 16615,22793"/>
 <path fill="none" stroke="rgb(179,179,179)" stroke-linejoin="round" d="M 16727,22943 L 16727,22793"/>
 <path fill="none" stroke="rgb(179,179,179)" stroke-linejoin="round" d="M 16727,22943 L 16727,22793"/>
 <path fill="none" stroke="rgb(179,179,179)" stroke-linejoin="round" d="M 16839,22943 L 16839,22793"/>
 <path fill="none" stroke="rgb(179,179,179)" stroke-linejoin="round" d="M 16839,22943 L 16839,22793"/>
 <path fill="none" stroke="rgb(179,179,179)" stroke-linejoin="round" d="M 16951,22943 L 16951,22793"/>
 <path fill="none" stroke="rgb(179,179,179)" stroke-linejoin="round" d="M 16951,22943 L 16951,22793"/>
 <path fill="none" stroke="rgb(179,179,179)" stroke-linejoin="round" d="M 17062,22943 L 17062,22793"/>
 <path fill="none" stroke="rgb(179,179,179)" stroke-linejoin="round" d="M 17062,22943 L 17062,22793"/>
 <path fill="none" stroke="rgb(179,179,179)" stroke-linejoin="round" d="M 17174,22943 L 17174,22793"/>
 <path fill="none" stroke="rgb(179,179,179)" stroke-linejoin="round" d="M 17174,22943 L 17174,22793"/>
 <path fill="none" stroke="rgb(179,179,179)" stroke-linejoin="round" d="M 17286,22943 L 17286,22793"/>
 <path fill="none" stroke="rgb(179,179,179)" stroke-linejoin="round" d="M 17286,22943 L 17286,22793"/>
 <path fill="none" stroke="rgb(179,179,179)" stroke-linejoin="round" d="M 17398,22943 L 17398,22793"/>
 <path fill="none" stroke="rgb(179,179,179)" stroke-linejoin="round" d="M 17398,22943 L 17398,22793"/>
 <path fill="none" stroke="rgb(179,179,179)" stroke-linejoin="round" d="M 17510,22943 L 17510,22793"/>
 <path fill="none" stroke="rgb(179,179,179)" stroke-linejoin="round" d="M 17510,22943 L 17510,22793"/>
 <path fill="none" stroke="rgb(179,179,179)" stroke-linejoin="round" d="M 17622,22943 L 17622,22793"/>
 <path fill="none" stroke="rgb(179,179,179)" stroke-linejoin="round" d="M 17622,22943 L 17622,22793"/>
 <path fill="none" stroke="rgb(179,179,179)" stroke-linejoin="round" d="M 17734,22943 L 17734,22793"/>
 <path fill="none" stroke="rgb(179,179,179)" stroke-linejoin="round" d="M 17734,22943 L 17734,22793"/>
 <path fill="none" stroke="rgb(179,179,179)" stroke-linejoin="round" d="M 17845,22943 L 17845,22793"/>
 <path fill="none" stroke="rgb(179,179,179)" stroke-linejoin="round" d="M 17845,22943 L 17845,22793"/>
 <path fill="none" stroke="rgb(179,179,179)" stroke-linejoin="round" d="M 17957,22943 L 17957,22793"/>
 <path fill="none" stroke="rgb(179,179,179)" stroke-linejoin="round" d="M 17957,22943 L 17957,22793"/>
 <path fill="none" stroke="rgb(179,179,179)" stroke-linejoin="round" d="M 18069,22943 L 18069,22793"/>
 <path fill="none" stroke="rgb(179,179,179)" stroke-linejoin="round" d="M 18069,22943 L 18069,22793"/>
 <path fill="none" stroke="rgb(179,179,179)" stroke-linejoin="round" d="M 18181,22943 L 18181,22793"/>
 <path fill="none" stroke="rgb(179,179,179)" stroke-linejoin="round" d="M 18181,22943 L 18181,22793"/>
 <path fill="none" stroke="rgb(179,179,179)" stroke-linejoin="round" d="M 18293,22943 L 18293,22793"/>
 <path fill="none" stroke="rgb(179,179,179)" stroke-linejoin="round" d="M 18293,22943 L 18293,22793"/>
 <path fill="none" stroke="rgb(179,179,179)" stroke-linejoin="round" d="M 18405,22943 L 18405,22793"/>
 <path fill="none" stroke="rgb(179,179,179)" stroke-linejoin="round" d="M 18405,22943 L 18405,22793"/>
 <path fill="none" stroke="rgb(179,179,179)" stroke-linejoin="round" d="M 18517,22943 L 18517,22793"/>
 <path fill="none" stroke="rgb(179,179,179)" stroke-linejoin="round" d="M 18517,22943 L 18517,22793"/>
 <path fill="none" stroke="rgb(179,179,179)" stroke-linejoin="round" d="M 1293,22793 L 18517,22793"/>
 <path fill="none" stroke="rgb(179,179,179)" stroke-linejoin="round" d="M 1143,22793 L 1293,22793"/>
 <path fill="none" stroke="rgb(179,179,179)" stroke-linejoin="round" d="M 1143,22793 L 1293,22793"/>
 <path fill="none" stroke="rgb(179,179,179)" stroke-linejoin="round" d="M 1143,18593 L 1293,18593"/>
 <path fill="none" stroke="rgb(179,179,179)" stroke-linejoin="round" d="M 1143,18593 L 1293,18593"/>
 <path fill="none" stroke="rgb(179,179,179)" stroke-linejoin="round" d="M 1143,14394 L 1293,14394"/>
 <path fill="none" stroke="rgb(179,179,179)" stroke-linejoin="round" d="M 1143,14394 L 1293,14394"/>
 <path fill="none" stroke="rgb(179,179,179)" stroke-linejoin="round" d="M 1143,10196 L 1293,10196"/>
 <path fill="none" stroke="rgb(179,179,179)" stroke-linejoin="round" d="M 1143,10196 L 1293,10196"/>
 <path fill="none" stroke="rgb(179,179,179)" stroke-linejoin="round" d="M 1143,5997 L 1293,5997"/>
 <path fill="none" stroke="rgb(179,179,179)" stroke-linejoin="round" d="M 1143,5997 L 1293,5997"/>
 <path fill="none" stroke="rgb(179,179,179)" stroke-linejoin="round" d="M 1143,1798 L 1293,1798"/>
 <path fill="none" stroke="rgb(179,179,179)" stroke-linejoin="round" d="M 1143,1798 L 1293,1798"/>
 <path fill="none" stroke="rgb(179,179,179)" stroke-linejoin="round" d="M 1293,22793 L 1293,1798"/>
 <path fill="none" stroke="rgb(255,128,0)" stroke-width="80" stroke-linejoin="round" d="M 1348,21054 L 1460,19060 1572,18730 1684,18532 1796,18945 1908,18501 2020,17723 2131,17470 2243,17083 2355,17409 2467,17262 2579,16249 2691,15290 2802,14586 2914,13388 3026,13184 3138,13504 3250,13158 3362,13060 3474,12040 3585,11146 3697,10266 3809,9983 3921,10082 4033,10431 4145,9892 4257,9468 4368,8793 4480,8048 4592,8164 4704,8478 4816,8625 4928,8397 5039,8302 5151,7921 5263,7643 5375,7335 5487,7583 5599,7863 5711,7697 5822,7732 5934,7815 6046,7599 6158,7622 6270,7895 6382,8272 6494,8261 6605,8297 6717,8283 6829,8208 6941,8308 7053,8557 7165,8864 7277,8925 7388,8985 7500,8980 7612,8919 7724,9012 7836,9156 7948,9328 8059,9317 8171,9314 8283,9280 8395,9276 8507,9314 8619,9458 8731,9595 8842,9544 8954,9554 9066,9550 9178,9525 9290,9569 9402,9584 9514,9690 9625,9781 9737,9738 9849,9676 9961,9621 10073,9629 10185,9677 10296,9734 10408,9716 10520,9673 10632,9671 10744,9609 10856,9616 10968,9665 11079,9715 11191,9684 11303,9659 11415,9651 11527,9622 11639,9618 11751,9664 11861,9710 11973,9685 12085,9679 12197,9680 12309,9665 12421,9675 12532,9713 12644,9756 12756,9752 12868,9752 12980,9738 13092,9712 13204,9724 13315,9754 13427,9783 13539,9768 13651,9746 13763,9748 13875,9727 13987,9736 14098,9748 14210,9746 14322,9700 14434,9686 14546,9690 14658,9700 14770,9673 14881,9693 14993,9719 15105,9708 15217,9707 15329,9725 15441,9721 15552,9734 15664,9782 15776,9802 15888,9799 16000,9807 16112,9828 16224,9825 16335,9833 16447,9849 16559,9871 16671,9872 16783,9882 16895,9904 17007,9903 17118,9911 17230,9933 17342,9964 17454,9995 17566,9995 17678,10013 17789,10018 17901,10042 18013,10068 18125,10118 18237,10130 18349,10145 18461,10177"/>
 <path fill="none" stroke="rgb(131,202,255)" stroke-width="80" stroke-linejoin="round" d="M 1348,8377 L 1460,9599 1572,7824 1684,8250 1796,8884 1908,8631 2020,9277 2131,9110 2243,8311 2355,8196 2467,8503 2579,8835 2691,9392 2802,9916 2914,9822 3026,9626 3138,9707 3250,9707 3362,9842 3474,10021 3585,10156 3697,10172 3809,10112 3921,10181 4033,10244 4145,10312 4257,10410 4368,10476 4480,10517 4592,10458 4704,10468 4816,10466 4928,10475 5039,10476 5151,10566 5263,10577 5375,10565 5487,10565 5599,10531 5711,10540 5822,10576 5934,10597 6046,10607 6158,10567 6270,10629 6382,10699 6494,10699 6605,10747 6717,10770 6829,10797 6941,10702 7053,10755 7165,10798 7277,10811 7388,10775 7500,10774 7612,10756 7724,10749 7836,10745 7948,10756 8059,10767 8171,10765 8283,10724 8395,10675 8507,10658 8619,10680 8731,10691 8842,10684 8954,10666 9066,10655 9178,10643 9290,10623 9402,10648 9514,10649 9625,10655 9737,10646 9849,10656 9961,10653 10073,10628 10185,10621 10296,10630 10408,10642 10520,10643 10632,10633 10744,10620 10856,10604 10968,10602 11079,10595 11191,10576 11303,10578 11415,10573 11527,10563 11639,10550 11751,10549 11861,10550 11973,10557 12085,10551 12197,10545 12309,10546 12421,10544 12532,10546 12644,10555 12756,10566 12868,10569 12980,10571 13092,10572 13204,10580 13315,10578 13427,10605 13539,10612 13651,10618 13763,10616 13875,10620 13987,10619 14098,10624 14210,10630 14322,10630 14434,10636 14546,10644 14658,10649 14770,10657 14881,10661 14993,10666 15105,10671 15217,10680 15329,10683 15441,10690 15552,10694 15664,10699 15776,10702 15888,10708 16000,10717 16112,10726 16224,10735 16335,10742 16447,10747 16559,10759 16671,10770 16783,10780 16895,10793 17007,10802 17118,10809 17230,10816 17342,10826 17454,10842 17566,10857 17678,10870 17789,10880 17901,10883 18013,10892 18125,10909 18237,10926 18349,10949 18461,10963"/>
 <path fill="none" stroke="rgb(0,169,51)" stroke-width="80" stroke-linejoin="round" stroke-dasharray="80,40" d="M 1348,22793 L 1460,22793 1572,22793 1684,22793 1796,22793 1908,22793 2020,20744 2131,19623 2243,20744 2355,20083 2467,19946 2579,20232 2691,20310 2802,20116 2914,19603 3026,19131 3138,18645 3250,17842 3362,18629 3474,18459 3585,17841 3697,17718 3809,16728 3921,16295 4033,15174 4145,14950 4257,14135 4368,14172 4480,13661 4592,13392 4704,13866 4816,14027 4928,12883 5039,12983 5151,13118 5263,12954 5375,11906 5487,12122 5599,12566 5711,11364 5822,10944 5934,10818 6046,10380 6158,10299 6270,10851 6382,11372 6494,11466 6605,11493 6717,11514 6829,11509 6941,11647 7053,11995 7165,12078 7277,11841 7388,11843 7500,11535 7612,11486 7724,11487 7836,11612 7948,11935 8059,11660 8171,11550 8283,11556 8395,11362 8507,11130 8619,11449 8731,11650 8842,11622 8954,11436 9066,11196 9178,10868 9290,11116 9402,11367 9514,11466 9625,11325 9737,11246 9849,11260 9961,11270 10073,11243 10185,11608 10296,11850 10408,11819 10520,11154 10632,10754 10744,10594 10856,10649 10968,10972 11079,11136 11191,11152 11303,11071 11415,11008 11527,10997 11639,10995 11751,11212 11861,11365 11973,11316 12085,11282 12197,11171 12309,11129 12421,11179 12532,10958 12644,10924 12756,10927 12868,10811 12980,10781 13092,10802 13204,10825 13315,11101 13427,11222 13539,11302 13651,11304 13763,11274 13875,11236 13987,11236 14098,11412 14210,11517 14322,11521 14434,11563 14546,11628 14658,11614 14770,11650 14881,11824 14993,11955 15105,11986 15217,12075 15329,12106 15441,12060 15552,12066 15664,12229 15776,12354 15888,12323 16000,12352 16112,12409 16224,12389 16335,12368 16447,12496 16559,12587 16671,12626 16783,12722 16895,12759 17007,12752 17118,12712 17230,12835 17342,12920 17454,12931 17566,12963 17678,13021 17789,12977 17901,12951 18013,13031 18125,13033 18237,13004 18349,13012 18461,13035"/>
 <path fill="none" stroke="rgb(34,75,18)" stroke-width="80" stroke-linejoin="round" stroke-dasharray="51,127,51,127,254,127,254,127,254,127" d="M 1348,11512 L 1460,12092 1572,11580 1684,12049 1796,11475 1908,13299 2020,13370 2131,12805 2243,12574 2355,12499 2467,12550 2579,12850 2691,12877 2802,12930 2914,12701 3026,12840 3138,12884 3250,13076 3362,13349 3474,13418 3585,13434 3697,13271 3809,13228 3921,13458 4033,13533 4145,13377 4257,13465 4368,13357 4480,13221 4592,13212 4704,13225 4816,13287 4928,13339 5039,13188 5151,13107 5263,13343 5375,13335 5487,13328 5599,13352 5711,13482 5822,13466 5934,13358 6046,13387 6158,13344 6270,13385 6382,13363 6494,13386 6605,13220 6717,13221 6829,13231 6941,13202 7053,13237 7165,13204 7277,13188 7388,13110 7500,13088 7612,13033 7724,13019 7836,13035 7948,13062 8059,13050 8171,13049 8283,13014 8395,12992 8507,13016 8619,12994 8731,12991 8842,13022 8954,13014 9066,13007 9178,12948 9290,12945 9402,12966 9514,13136 9625,13116 9737,13130 9849,13132 9961,13126 10073,13118 10185,13131 10296,13142 10408,13190 10520,13202 10632,13223 10744,13222 10856,13223 10968,13227 11079,13249 11191,13258 11303,13274 11415,13294 11527,13305 11639,13312 11751,13331 11861,13346 11973,13360 12085,13376 12197,13392 12309,13316 12421,13327 12532,13348 12644,13372 12756,13399 12868,13429 12980,13444 13092,13449 13204,13463 13315,13495 13427,13517 13539,13534 13651,13566 13763,13572 13875,13572 13987,13614 14098,13633 14210,13659 14322,13679 14434,13698 14546,13701 14658,13706 14770,13746 14881,13759 14993,13772 15105,13796 15217,13812 15329,13818 15441,13823 15552,13863 15664,13876 15776,13898 15888,13927 16000,13956 16112,13963 16224,13967 16335,14030 16447,14052 16559,14084 16671,14120 16783,14156 16895,14168 17007,14176 17118,14248 17230,14276 17342,14306 17454,14351 17566,14406 17678,14420 17789,14428 17901,14499 18013,14570 18125,14604 18237,14670 18349,14739 18461,14751"/>
 <path fill="none" stroke="rgb(128,0,128)" stroke-width="80" stroke-linejoin="round" d="M 1348,6196 L 1460,7531 1572,8474 1684,10179 1796,3135 1908,12792 2020,11886 2131,11560 2243,11178 2355,10126 2467,8840 2579,9665 2691,7787 2802,8346 2914,7794 3026,8495 3138,8469 3250,9706 3362,10492 3474,10798 3585,10927 3697,11054 3809,11386 3921,11726 4033,12032 4145,12268 4257,12372 4368,12510 4480,12534 4592,12588 4704,12610 4816,12732 4928,12896 5039,12866 5151,12842 5263,12723 5375,12897 5487,12837 5599,12934 5711,13128 5822,13235 5934,13087 6046,13271 6158,13186 6270,13254 6382,13313 6494,13401 6605,12749 6717,12782 6829,12865 6941,12729 7053,12726 7165,12763 7277,12714 7388,12702 7500,12683 7612,12636 7724,12592 7836,12599 7948,12598 8059,12583 8171,12578 8283,12530 8395,12513 8507,12614 8619,12641 8731,12617 8842,12629 8954,12617 9066,12621 9178,12372 9290,12394 9402,12387 9514,13102 9625,13020 9737,13094 9849,13113 9961,13132 10073,13115 10185,13150 10296,13150 10408,13216 10520,13242 10632,13267 10744,13277 10856,13283 10968,13294 11079,13310 11191,13323 11303,13335 11415,13348 11527,13358 11639,13364 11751,13374 11861,13386 11973,13403 12085,13422 12197,13437 12309,13044 12421,13049 12532,13057 12644,13071 12756,13094 12868,13105 12980,13118 13092,13129 13204,13137 13315,13146 13427,13158 13539,13170 13651,13183 13763,13204 13875,13210 13987,13218 14098,13229 14210,13243 14322,13259 14434,13274 14546,13272 14658,13272 14770,13319 14881,13332 14993,13345 15105,13364 15217,13394 15329,13393 15441,13392 15552,13467 15664,13491 15776,13522 15888,13570 16000,13619 16112,13618 16224,13618 16335,13776 16447,13822 16559,13867 16671,13953 16783,14024 16895,14024 17007,14023 17118,14223 17230,14279 17342,14332 17454,14407 17566,14497 17678,14497 17789,14496 17901,14734 18013,14887 18125,14944 18237,15046 18349,15157 18461,15150"/>
 <path fill="none" stroke="rgb(0,0,255)" stroke-width="80" stroke-linejoin="round" stroke-dasharray="51,127,51,127,254,127,254,127,254,127" d="M 1348,11604 L 1460,12154 1572,11666 1684,12175 1796,11617 1908,13458 2020,13555 2131,13015 2243,12792 2355,12723 2467,12770 2579,13063 2691,13082 2802,13144 2914,12928 3026,13060 3138,13108 3250,13291 3362,13553 3474,13627 3585,13641 3697,13486 3809,13443 3921,13666 4033,13735 4145,13588 4257,13674 4368,13574 4480,13445 4592,13433 4704,13448 4816,13513 4928,13564 5039,13420 5151,13346 5263,13565 5375,13556 5487,13546 5599,13569 5711,13695 5822,13680 5934,13579 6046,13606 6158,13563 6270,13605 6382,13586 6494,13608 6605,13454 6717,13453 6829,13465 6941,13436 7053,13470 7165,13441 7277,13426 7388,13353 7500,13329 7612,13279 7724,13268 7836,13286 7948,13312 8059,13303 8171,13301 8283,13269 8395,13250 8507,13274 8619,13258 8731,13257 8842,13289 8954,13284 9066,13280 9178,13227 9290,13226 9402,13250 9514,13414 9625,13397 9737,13414 9849,13418 9961,13415 10073,13409 10185,13425 10296,13439 10408,13484 10520,13497 10632,13520 10744,13518 10856,13521 10968,13527 11079,13549 11191,13560 11303,13577 11415,13601 11527,13616 11639,13626 11751,13646 11861,13663 11973,13678 12085,13696 12197,13712 12309,13644 12421,13656 12532,13680 12644,13707 12756,13735 12868,13765 12980,13782 13092,13790 13204,13806 13315,13838 13427,13862 13539,13882 13651,13915 13763,13926 13875,13929 13987,13970 14098,13992 14210,14021 14322,14044 14434,14066 14546,14074 14658,14082 14770,14120 14881,14138 14993,14156 15105,14184 15217,14205 15329,14217 15441,14226 15552,14266 15664,14284 15776,14311 15888,14343 16000,14376 16112,14390 16224,14400 16335,14461 16447,14490 16559,14529 16671,14570 16783,14611 16895,14631 17007,14645 17118,14715 17230,14749 17342,14786 17454,14835 17566,14892 17678,14912 17789,14925 17901,14991 18013,15062 18125,15102 18237,15167 18349,15236 18461,15256"/>
 <path fill="none" stroke="rgb(112,110,12)" stroke-width="80" stroke-linejoin="round" stroke-dasharray="80,40" d="M 1348,21208 L 1460,19835 1572,17194 1684,14776 1796,13803 1908,10824 2020,10189 2131,2719 2243,5858 2355,7519 2467,12095 2579,15225 2691,16166 2802,16261 2914,16270 3026,16354 3138,16151 3250,15753 3362,15600 3474,15352 3585,15080 3697,15022 3809,15095 3921,15115 4033,14827 4145,14583 4257,14615 4368,14676 4480,14712 4592,14652 4704,14535 4816,14603 4928,14688 5039,14802 5151,14841 5263,14711 5375,14540 5487,14889 5599,15068 5711,15152 5822,15193 5934,15181 6046,15175 6158,15182 6270,15201 6382,15182 6494,15227 6605,15315 6717,15484 6829,15526 6941,15541 7053,15537 7165,15549 7277,15583 7388,15520 7500,15567 7612,15561 7724,15560 7836,15565 7948,15576 8059,15597 8171,15610 8283,15627 8395,15610 8507,15602 8619,15601 8731,15626 8842,15627 8954,15655 9066,15683 9178,15697 9290,15677 9402,15686 9514,15693 9625,15721 9737,15711 9849,15738 9961,15744 10073,15748 10185,15755 10296,15746 10408,15768 10520,15784 10632,15781 10744,15788 10856,15794 10968,15798 11079,15805 11191,15817 11303,15819 11415,15833 11527,15813 11639,15822 11751,15828 11861,15834 11973,15835 12085,15845 12197,15856 12309,15864 12421,15858 12532,15861 12644,15864 12756,15862 12868,15870 12980,15874 13092,15882 13204,15888 13315,15898 13427,15904 13539,15902 13651,15914 13763,15922 13875,15917 13987,15919 14098,15918 14210,15926 14322,15936 14434,15950 14546,15956 14658,15955 14770,15962 14881,15970 14993,15973 15105,15980 15217,15989 15329,15998 15441,16006 15552,16012 15664,16024 15776,16035 15888,16045 16000,16050 16112,16055 16224,16063 16335,16069 16447,16079 16559,16087 16671,16099 16783,16110 16895,16117 17007,16125 17118,16134 17230,16139 17342,16149 17454,16160 17566,16164 17678,16176 17789,16183 17901,16191 18013,16201 18125,16210 18237,16220 18349,16229 18461,16238"/>
 <path fill="none" stroke="rgb(85,48,141)" stroke-width="80" stroke-linejoin="round" stroke-dasharray="80,40" d="M 1348,21480 L 1460,21702 1572,21729 1684,19682 1796,19203 1908,19311 2020,18975 2131,18793 2243,18947 2355,19103 2467,19597 2579,20063 2691,20121 2802,20293 2914,19705 3026,20339 3138,20866 3250,20726 3362,20694 3474,20837 3585,20699 3697,20399 3809,20318 3921,20242 4033,19814 4145,20001 4257,20044 4368,19537 4480,19824 4592,19476 4704,19437 4816,19366 4928,19129 5039,18955 5151,18258 5263,18106 5375,18211 5487,17931 5599,17651 5711,17586 5822,17474 5934,17314 6046,17131 6158,17059 6270,17065 6382,17066 6494,17007 6605,16894 6717,16798 6829,16608 6941,16557 7053,16561 7165,16433 7277,16331 7388,16285 7500,16209 7612,16273 7724,16255 7836,16162 7948,16152 8059,16069 8171,16060 8283,15978 8395,15988 8507,15957 8619,15947 8731,15989 8842,16023 8954,15993 9066,15975 9178,15974 9290,15954 9402,15975 9514,15941 9625,15938 9737,15913 9849,15906 9961,15904 10073,15891 10185,15762 10296,15805 10408,15813 10520,15791 10632,15723 10744,15729 10856,15725 10968,15752 11079,15773 11191,15767 11303,15757 11415,15766 11527,15771 11639,15764 11751,15767 11861,15793 11973,15787 12085,15783 12197,15774 12309,15760 12421,15736 12532,15746 12644,15764 12756,15775 12868,15779 12980,15791 13092,15809 13204,15828 13315,15847 13427,15831 13539,15838 13651,15827 13763,15826 13875,15829 13987,15863 14098,15875 14210,15880 14322,15890 14434,15894 14546,15900 14658,15902 14770,15924 14881,15928 14993,15943 15105,15956 15217,15967 15329,15964 15441,15969 15552,16003 15664,16022 15776,16038 15888,16061 16000,16083 16112,16097 16224,16112 16335,16153 16447,16180 16559,16191 16671,16217 16783,16254 16895,16266 17007,16279 17118,16313 17230,16332 17342,16355 17454,16366 17566,16395 17678,16406 17789,16416 17901,16422 18013,16456 18125,16472 18237,16487 18349,16505 18461,16510"/>
 <path fill="none" stroke="rgb(241,13,12)" stroke-width="80" stroke-linejoin="round" d="M 1348,22379 L 1460,22115 1572,22083 1684,21785 1796,21811 1908,21761 2020,21831 2131,21478 2243,21270 2355,21310 2467,21151 2579,20691 2691,19616 2802,19124 2914,18233 3026,18482 3138,18751 3250,17938 3362,17470 3474,16252 3585,15288 3697,14666 3809,15015 3921,15199 4033,14695 4145,13878 4257,13382 4368,12457 4480,12096 4592,12456 4704,12978 4816,13625 4928,13302 5039,12362 5151,11765 5263,11577 5375,11202 5487,11493 5599,11668 5711,10973 5822,10484 5934,10514 6046,10229 6158,10335 6270,10768 6382,10860 6494,10989 6605,11023 6717,10845 6829,10840 6941,10950 7053,11327 7165,11339 7277,11429 7388,11316 7500,11232 7612,10845 7724,10891 7836,11127 7948,11361 8059,11494 8171,11292 8283,11360 8395,11160 8507,11224 8619,11464 8731,11665 8842,11795 8954,11778 9066,11839 9178,11858 9290,11757 9402,11892 9514,12059 9625,12025 9737,11991 9849,11998 9961,11875 10073,11887 10185,12076 10296,12255 10408,12291 10520,12336 10632,12470 10744,12416 10856,12453 10968,12653 11079,13131 11191,13334 11303,13414 11415,13580 11527,13679 11639,13723 11751,13879 11861,14018 11973,14202 12085,14271 12197,14460 12309,14486 12421,14601 12532,14743 12644,14909 12756,15058 12868,15260 12980,15296 13092,15257 13204,15268 13315,15504 13427,15637 13539,15782 13651,15869 13763,15816 13875,15804 13987,16066 14098,16143 14210,16245 14322,16316 14434,16346 14546,16325 14658,16294 14770,16440 14881,16465 14993,16498 15105,16528 15217,16545 15329,16521 15441,16492 15552,16569 15664,16583 15776,16601 15888,16625 16000,16634 16112,16624 16224,16601 16335,16662 16447,16671 16559,16695 16671,16713 16783,16701 16895,16691 17007,16687 17118,16718 17230,16725 17342,16746 17454,16767 17566,16777 17678,16771 17789,16774 17901,16818 18013,16831 18125,16854 18237,16881 18349,16902 18461,16900"/>
 <path fill="none" stroke="rgb(129,212,26)" stroke-width="80" stroke-linejoin="round" d="M 1348,20051 L 1460,19873 1572,20398 1684,20989 1796,19315 1908,20728 2020,20259 2131,20731 2243,19929 2355,19744 2467,19464 2579,20278 2691,20365 2802,20353 2914,20197 3026,20272 3138,20242 3250,20026 3362,19714 3474,19622 3585,19594 3697,19445 3809,19280 3921,19176 4033,19177 4145,19130 4257,18959 4368,18910 4480,18804 4592,18775 4704,18618 4816,18687 4928,18693 5039,18554 5151,18507 5263,18407 5375,18320 5487,18282 5599,18236 5711,18149 5822,18112 5934,18045 6046,17982 6158,17987 6270,17974 6382,17846 6494,17785 6605,17767 6717,17744 6829,17724 6941,17718 7053,17736 7165,17698 7277,17697 7388,17689 7500,17694 7612,17673 7724,17666 7836,17663 7948,17638 8059,17588 8171,17593 8283,17595 8395,17588 8507,17592 8619,17593 8731,17584 8842,17579 8954,17585 9066,17579 9178,17567 9290,17564 9402,17564 9514,17552 9625,17553 9737,17549 9849,17547 9961,17549 10073,17551 10185,17550 10296,17553 10408,17556 10520,17559 10632,17562 10744,17565 10856,17566 10968,17567 11079,17565 11191,17538 11303,17537 11415,17537 11527,17536 11639,17537 11751,17540 11861,17541 11973,17506 12085,17504 12197,17509 12309,17513 12421,17516 12532,17520 12644,17525 12756,17527 12868,17528 12980,17529 13092,17527 13204,17530 13315,17533 13427,17541 13539,17547 13651,17551 13763,17563 13875,17573 13987,17579 14098,17589 14210,17611 14322,17627 14434,17649 14546,17664 14658,17676 14770,17678 14881,17686 14993,17707 15105,17720 15217,17737 15329,17754 15441,17764 15552,17773 15664,17784 15776,17799 15888,17818 16000,17831 16112,17840 16224,17850 16335,17856 16447,17872 16559,17890 16671,17907 16783,17926 16895,17945 17007,17958 17118,17967 17230,17985 17342,18012 17454,18042 17566,18063 17678,18085 17789,18101 17901,18109 18013,18126 18125,18148 18237,18164 18349,18182 18461,18205"/>
 <path fill="none" stroke="rgb(180,120,4)" stroke-width="80" stroke-linejoin="round" d="M 1348,22793 L 1460,21880 1572,22156 1684,22225 1796,22248 1908,22375 2020,22190 2131,21929 2243,21622 2355,21727 2467,20986 2579,20599 2691,20657 2802,20368 2914,19908 3026,19320 3138,19273 3250,19319 3362,19056 3474,18822 3585,18426 3697,18240 3809,17885 3921,17846 4033,18019 4145,18021 4257,18153 4368,18130 4480,18244 4592,18313 4704,18439 4816,18516 4928,18485 5039,18477 5151,18438 5263,18362 5375,18331 5487,18347 5599,18347 5711,18400 5822,18355 5934,18343 6046,18327 6158,18240 6270,18301 6382,18370 6494,18386 6605,18368 6717,18400 6829,18389 6941,18308 7053,18300 7165,18295 7277,18277 7388,18323 7500,18298 7612,18283 7724,18316 7836,18358 7948,18376 8059,18488 8171,18495 8283,18504 8395,18549 8507,18535 8619,18535 8731,18557 8842,18551 8954,18559 9066,18531 9178,18557 9290,18573 9402,18594 9514,18614 9625,18638 9737,18640 9849,18640 9961,18666 10073,18653 10185,18646 10296,18651 10408,18633 10520,18662 10632,18662 10744,18646 10856,18649 10968,18647 11079,18632 11191,18646 11303,18668 11415,18685 11527,18686 11639,18670 11751,18683 11861,18681 11973,18688 12085,18709 12197,18709 12309,18726 12421,18734 12532,18745 12644,18746 12756,18755 12868,18770 12980,18770 13092,18764 13204,18807 13315,18817 13427,18828 13539,18834 13651,18840 13763,18840 13875,18840 13987,18863 14098,18868 14210,18869 14322,18863 14434,18868 14546,18868 14658,18868 14770,18882 14881,18885 14993,18882 15105,18887 15217,18896 15329,18896 15441,18889 15552,18916 15664,18923 15776,18932 15888,18942 16000,18956 16112,18949 16224,18944 16335,18969 16447,18981 16559,18994 16671,19005 16783,19013 16895,19007 17007,19013 17118,19043 17230,19053 17342,19062 17454,19088 17566,19105 17678,19099 17789,19099 17901,19152 18013,19172 18125,19187 18237,19217 18349,19256 18461,19257"/>
 <path fill="none" stroke="rgb(52,42,6)" stroke-width="80" stroke-linejoin="round" d="M 1348,22227 L 1460,22150 1572,22158 1684,22044 1796,21823 1908,22153 2020,21987 2131,21822 2243,21822 2355,21940 2467,21954 2579,21932 2691,21921 2802,21783 2914,21638 3026,21541 3138,21435 3250,21341 3362,21311 3474,21274 3585,21181 3697,21068 3809,20979 3921,20940 4033,20840 4145,20796 4257,20628 4368,20514 4480,20472 4592,20570 4704,20435 4816,20425 4928,20452 5039,20178 5151,20068 5263,19934 5375,19913 5487,19860 5599,19762 5711,19723 5822,19657 5934,19526 6046,19461 6158,19436 6270,19408 6382,19377 6494,19330 6605,19288 6717,19239 6829,19207 6941,19189 7053,19187 7165,19157 7277,19190 7388,19069 7500,19029 7612,18985 7724,18977 7836,18986 7948,18966 8059,18957 8171,18922 8283,18928 8395,18934 8507,18929 8619,18931 8731,18932 8842,18903 8954,18889 9066,18873 9178,18874 9290,18863 9402,18880 9514,18883 9625,18865 9737,18854 9849,18840 9961,18832 10073,18826 10185,18834 10296,18834 10408,18845 10520,18843 10632,18834 10744,18828 10856,18825 10968,18826 11079,18826 11191,18815 11303,18818 11415,18820 11527,18821 11639,18825 11751,18829 11861,18827 11973,18825 12085,18822 12197,18812 12309,18812 12421,18812 12532,18824 12644,18830 12756,18849 12868,18852 12980,18855 13092,18856 13204,18865 13315,18880 13427,18884 13539,18888 13651,18899 13763,18903 13875,18906 13987,18909 14098,18915 14210,18925 14322,18930 14434,18932 14546,18935 14658,18939 14770,18947 14881,18952 14993,18957 15105,18961 15217,18967 15329,18971 15441,18975 15552,18978 15664,18983 15776,18991 15888,18999 16000,19009 16112,19013 16224,19014 16335,19024 16447,19031 16559,19041 16671,19050 16783,19061 16895,19070 17007,19075 17118,19081 17230,19091 17342,19106 17454,19120 17566,19129 17678,19138 17789,19136 17901,19149 18013,19161 18125,19183 18237,19196 18349,19214 18461,19224"/>
 <path fill="none" stroke="rgb(191,0,65)" stroke-width="80" stroke-linejoin="round" stroke-dasharray="51,127,51,127,254,127,254,127,254,127" d="M 1348,20602 L 1460,18856 1572,19562 1684,20653 1796,20788 1908,21545 2020,21723 2131,21786 2243,21844 2355,21579 2467,21468 2579,21257 2691,20975 2802,20973 2914,21032 3026,20853 3138,20772 3250,20492 3362,20380 3474,20358 3585,20178 3697,20015 3809,19922 3921,19875 4033,19712 4145,19599 4257,19468 4368,19401 4480,19359 4592,19210 4704,19125 4816,19150 4928,19068 5039,19008 5151,18990 5263,18934 5375,18883 5487,18765 5599,18714 5711,18707 5822,18666 5934,18623 6046,18550 6158,18476 6270,18483 6382,18459 6494,18414 6605,18369 6717,18306 6829,18292 6941,18247 7053,18230 7165,18208 7277,18167 7388,18133 7500,18072 7612,18037 7724,18029 7836,18025 7948,18026 8059,18018 8171,17966 8283,17952 8395,17938 8507,17932 8619,17963 8731,17960 8842,17967 8954,17981 9066,17995 9178,17990 9290,18001 9402,18025 9514,18036 9625,18041 9737,18062 9849,18072 9961,18075 10073,18076 10185,18106 10296,18123 10408,18118 10520,18114 10632,18136 10744,18106 10856,18112 10968,18124 11079,18135 11191,18135 11303,18140 11415,18178 11527,18202 11639,18219 11751,18226 11861,18233 11973,18242 12085,18250 12197,18236 12309,18245 12421,18245 12532,18268 12644,18300 12756,18311 12868,18311 12980,18325 13092,18324 13204,18343 13315,18353 13427,18365 13539,18381 13651,18400 13763,18417 13875,18419 13987,18434 14098,18458 14210,18481 14322,18499 14434,18517 14546,18540 14658,18549 14770,18555 14881,18584 14993,18613 15105,18631 15217,18660 15329,18692 15441,18708 15552,18722 15664,18751 15776,18783 15888,18803 16000,18828 16112,18854 16224,18873 16335,18896 16447,18937 16559,18980 16671,19014 16783,19045 16895,19071 17007,19086 17118,19110 17230,19142 17342,19180 17454,19212 17566,19232 17678,19245 17789,19251 17901,19261 18013,19291 18125,19326 18237,19353 18349,19382 18461,19404"/>
 <path fill="none" stroke="rgb(21,132,102)" stroke-width="80" stroke-linejoin="round" stroke-dasharray="80,203,80,203,203,203" d="M 1348,18659 L 1460,18493 1572,18222 1684,18047 1796,17742 1908,17724 2020,17491 2131,17106 2243,16779 2355,16541 2467,16363 2579,16316 2691,16165 2802,16039 2914,15833 3026,15788 3138,15779 3250,15790 3362,15848 3474,15812 3585,15724 3697,15610 3809,15572 3921,15715 4033,15761 4145,15667 4257,15686 4368,15623 4480,15543 4592,15551 4704,15600 4816,15675 4928,15696 5039,15647 5151,15609 5263,15579 5375,15555 5487,15614 5599,15672 5711,15711 5822,15733 5934,15709 6046,15712 6158,15731 6270,15810 6382,15864 6494,15891 6605,15901 6717,15930 6829,15952 6941,15955 7053,16027 7165,16081 7277,16102 7388,16111 7500,16137 7612,16150 7724,16191 7836,16253 7948,16332 8059,16360 8171,16398 8283,16424 8395,16435 8507,16468 8619,16526 8731,16584 8842,16630 8954,16670 9066,16709 9178,16716 9290,16758 9402,16823 9514,16926 9625,16978 9737,17013 9849,17053 9961,17081 10073,17107 10185,17158 10296,17214 10408,17259 10520,17293 10632,17346 10744,17376 10856,17406 10968,17472 11079,17522 11191,17560 11303,17597 11415,17641 11527,17671 11639,17695 11751,17743 11861,17796 11973,17811 12085,17837 12197,17869 12309,17886 12421,17914 12532,17958 12644,18004 12756,18031 12868,18079 12980,18118 13092,18140 13204,18169 13315,18223 13427,18273 13539,18312 13651,18356 13763,18392 13875,18421 13987,18453 14098,18497 14210,18554 14322,18588 14434,18625 14546,18655 14658,18682 14770,18706 14881,18751 14993,18795 15105,18830 15217,18867 15329,18895 15441,18909 15552,18930 15664,18969 15776,19008 15888,19039 16000,19062 16112,19066 16224,19085 16335,19106 16447,19143 16559,19181 16671,19212 16783,19241 16895,19266 17007,19279 17118,19299 17230,19330 17342,19368 17454,19390 17566,19412 17678,19429 17789,19442 17901,19454 18013,19480 18125,19506 18237,19526 18349,19545 18461,19561"/>
 <path fill="none" stroke="rgb(255,64,0)" stroke-width="80" stroke-linejoin="round" stroke-dasharray="80,40" d="M 1348,22793 L 1460,22793 1572,22793 1684,22793 1796,21177 1908,21124 2020,19455 2131,17090 2243,16494 2355,16252 2467,15117 2579,16571 2691,16544 2802,16459 2914,17795 3026,17947 3138,17709 3250,17564 3362,17137 3474,16894 3585,15823 3697,15708 3809,14631 3921,15653 4033,15863 4145,15630 4257,15197 4368,15091 4480,14817 4592,15030 4704,15474 4816,15895 4928,15681 5039,15368 5151,14997 5263,14690 5375,14355 5487,14608 5599,15121 5711,15226 5822,15547 5934,15161 6046,14745 6158,14430 6270,14437 6382,14344 6494,14261 6605,14225 6717,14290 6829,14258 6941,14374 7053,14707 7165,15028 7277,15146 7388,14970 7500,14844 7612,14531 7724,14553 7836,14701 7948,15063 8059,15085 8171,15223 8283,15259 8395,15069 8507,15037 8619,15197 8731,15348 8842,15359 8954,15603 9066,15582 9178,15460 9290,15553 9402,15791 9514,16032 9625,16154 9737,16295 9849,16325 9961,16346 10073,16333 10185,16500 10296,16687 10408,16814 10520,16916 10632,17060 10744,17079 10856,17061 10968,17280 11079,17452 11191,17547 11303,17632 11415,17685 11527,17714 11639,17721 11751,17871 11861,18013 11973,18060 12085,18080 12197,18078 12309,18054 12421,18067 12532,18190 12644,18285 12756,18272 12868,18416 12980,18468 13092,18454 13204,18461 13315,18569 13427,18672 13539,18717 13651,18799 13763,18836 13875,18845 13987,18848 14098,18907 14210,18996 14322,19048 14434,19084 14546,19108 14658,19104 14770,19095 14881,19164 14993,19222 15105,19247 15217,19278 15329,19292 15441,19286 15552,19283 15664,19328 15776,19371 15888,19391 16000,19395 16112,19389 16224,19381 16335,19366 16447,19409 16559,19489 16671,19542 16783,19562 16895,19592 17007,19582 17118,19575 17230,19610 17342,19677 17454,19709 17566,19725 17678,19738 17789,19733 17901,19724 18013,19764 18125,19804 18237,19821 18349,19838 18461,19852"/>
 <path fill="none" stroke="rgb(141,40,30)" stroke-width="80" stroke-linejoin="round" stroke-dasharray="80,40" d="M 1348,13109 L 1460,13407 1572,14524 1684,15447 1796,15691 1908,15356 2020,14921 2131,12380 2243,13874 2355,14436 2467,15277 2579,16623 2691,16946 2802,17010 2914,16969 3026,17056 3138,17160 3250,17118 3362,17082 3474,17056 3585,16876 3697,16883 3809,16979 3921,17112 4033,17106 4145,16996 4257,17003 4368,17039 4480,16980 4592,16964 4704,17024 4816,17077 4928,17060 5039,17006 5151,16989 5263,16885 5375,16788 5487,16879 5599,16908 5711,16869 5822,16854 5934,16800 6046,16768 6158,16796 6270,16848 6382,16900 6494,16915 6605,16917 6717,16915 6829,16919 6941,16909 7053,16958 7165,17005 7277,16983 7388,16983 7500,16989 7612,16991 7724,16996 7836,17049 7948,17098 8059,17116 8171,17120 8283,17117 8395,17096 8507,17100 8619,17145 8731,17183 8842,17200 8954,17207 9066,17231 9178,17231 9290,17248 9402,17288 9514,17344 9625,17394 9737,17396 9849,17407 9961,17415 10073,17427 10185,17458 10296,17477 10408,17496 10520,17522 10632,17546 10744,17560 10856,17578 10968,17617 11079,17649 11191,17665 11303,17693 11415,17714 11527,17725 11639,17737 11751,17770 11861,17806 11973,17828 12085,17858 12197,17890 12309,17910 12421,17931 12532,17973 12644,18015 12756,18043 12868,18082 12980,18129 13092,18161 13204,18204 13315,18264 13427,18317 13539,18366 13651,18423 13763,18473 13875,18519 13987,18578 14098,18641 14210,18709 14322,18753 14434,18804 14546,18839 14658,18883 14770,18923 14881,18988 14993,19050 15105,19101 15217,19154 15329,19197 15441,19238 15552,19279 15664,19337 15776,19391 15888,19438 16000,19476 16112,19508 16224,19537 16335,19569 16447,19612 16559,19645 16671,19670 16783,19697 16895,19722 17007,19737 17118,19755 17230,19793 17342,19831 17454,19850 17566,19868 17678,19882 17789,19890 17901,19899 18013,19924 18125,19947 18237,19963 18349,19971 18461,19984"/>
 <path fill="none" stroke="rgb(0,169,51)" stroke-width="80" stroke-linejoin="round" d="M 1348,21985 L 1460,22151 1572,22331 1684,21768 1796,21958 1908,22126 2020,22023 2131,22207 2243,22133 2355,21784 2467,21721 2579,21624 2691,21737 2802,21330 2914,21433 3026,21516 3138,21425 3250,21169 3362,21237 3474,21191 3585,21188 3697,21187 3809,21168 3921,21110 4033,21067 4145,20959 4257,20803 4368,20690 4480,20569 4592,20491 4704,20467 4816,20404 4928,20357 5039,20358 5151,20298 5263,20197 5375,20143 5487,20124 5599,20039 5711,19944 5822,19858 5934,19804 6046,19775 6158,19750 6270,19732 6382,19703 6494,19607 6605,19560 6717,19555 6829,19543 6941,19515 7053,19522 7165,19521 7277,19499 7388,19505 7500,19505 7612,19486 7724,19486 7836,19476 7948,19473 8059,19471 8171,19470 8283,19472 8395,19469 8507,19466 8619,19483 8731,19490 8842,19487 8954,19492 9066,19511 9178,19509 9290,19494 9402,19499 9514,19501 9625,19501 9737,19497 9849,19390 9961,19393 10073,19400 10185,19404 10296,19411 10408,19414 10520,19414 10632,19420 10744,19419 10856,19420 10968,19425 11079,19427 11191,19434 11303,19437 11415,19443 11527,19439 11639,19442 11751,19444 11861,19444 11973,19435 12085,19411 12197,19409 12309,19415 12421,19420 12532,19421 12644,19424 12756,19413 12868,19423 12980,19409 13092,19412 13204,19410 13315,19406 13427,19409 13539,19405 13651,19413 13763,19425 13875,19439 13987,19452 14098,19455 14210,19475 14322,19488 14434,19508 14546,19528 14658,19549 14770,19564 14881,19565 14993,19581 15105,19594 15217,19605 15329,19613 15441,19633 15552,19641 15664,19653 15776,19675 15888,19698 16000,19721 16112,19742 16224,19754 16335,19764 16447,19777 16559,19788 16671,19813 16783,19818 16895,19828 17007,19847 17118,19859 17230,19876 17342,19900 17454,19911 17566,19935 17678,19946 17789,19954 17901,19961 18013,19974 18125,19977 18237,19994 18349,20008 18461,20015"/>
 <path fill="none" stroke="rgb(0,132,209)" stroke-width="80" stroke-linejoin="round" d="M 1348,22793 L 1460,21563 1572,22163 1684,22371 1796,22434 1908,22287 2020,22253 2131,22311 2243,22351 2355,22391 2467,22251 2579,22215 2691,22178 2802,22237 2914,22123 3026,22056 3138,22059 3250,21921 3362,21820 3474,21808 3585,21747 3697,21636 3809,21621 3921,21508 4033,21480 4145,21340 4257,21213 4368,21158 4480,21124 4592,21088 4704,21026 4816,20943 4928,20913 5039,20797 5151,20801 5263,20720 5375,20707 5487,20700 5599,20537 5711,20576 5822,20529 5934,20477 6046,20431 6158,20434 6270,20445 6382,20446 6494,20455 6605,20463 6717,20441 6829,20449 6941,20461 7053,20479 7165,20461 7277,20459 7388,20462 7500,20459 7612,20459 7724,20466 7836,20480 7948,20440 8059,20409 8171,20409 8283,20387 8395,20389 8507,20396 8619,20404 8731,20399 8842,20405 8954,20401 9066,20396 9178,20400 9290,20402 9402,20405 9514,20409 9625,20417 9737,20424 9849,20418 9961,20419 10073,20423 10185,20428 10296,20433 10408,20426 10520,20429 10632,20423 10744,20424 10856,20426 10968,20428 11079,20425 11191,20432 11303,20437 11415,20410 11527,20415 11639,20418 11751,20423 11861,20428 11973,20431 12085,20425 12197,20417 12309,20418 12421,20423 12532,20426 12644,20396 12756,20401 12868,20396 12980,20400 13092,20401 13204,20403 13315,20409 13427,20413 13539,20403 13651,20406 13763,20410 13875,20412 13987,20414 14098,20418 14210,20423 14322,20424 14434,20430 14546,20421 14658,20423 14770,20424 14881,20427 14993,20418 15105,20422 15217,20425 15329,20416 15441,20408 15552,20409 15664,20413 15776,20416 15888,20417 16000,20420 16112,20420 16224,20420 16335,20422 16447,20427 16559,20428 16671,20435 16783,20437 16895,20442 17007,20443 17118,20447 17230,20452 17342,20448 17454,20458 17566,20466 17678,20469 17789,20473 17901,20489 18013,20496 18125,20507 18237,20522 18349,20541 18461,20544"/>
 <path fill="none" stroke="rgb(255,191,0)" stroke-width="80" stroke-linejoin="round" d="M 1348,22793 L 1460,22793 1572,22793 1684,22793 1796,22793 1908,22793 2020,22793 2131,22793 2243,22793 2355,22580 2467,22612 2579,22429 2691,22188 2802,22033 2914,22118 3026,22045 3138,21829 3250,21625 3362,21440 3474,21355 3585,21388 3697,21212 3809,21141 3921,21091 4033,20925 4145,20877 4257,20760 4368,20689 4480,20614 4592,20546 4704,20482 4816,20532 4928,20365 5039,20360 5151,20358 5263,20367 5375,20284 5487,20236 5599,20171 5711,20168 5822,20125 5934,20123 6046,20128 6158,20139 6270,20165 6382,20167 6494,20140 6605,20171 6717,20097 6829,20070 6941,20029 7053,20017 7165,20000 7277,19983 7388,19949 7500,19868 7612,19846 7724,19828 7836,19814 7948,19822 8059,19833 8171,19777 8283,19753 8395,19742 8507,19752 8619,19748 8731,19776 8842,19755 8954,19755 9066,19753 9178,19701 9290,19721 9402,19733 9514,19740 9625,19751 9737,19772 9849,19779 9961,19801 10073,19816 10185,19823 10296,19825 10408,19825 10520,19824 10632,19826 10744,19829 10856,19840 10968,19860 11079,19874 11191,19891 11303,19884 11415,19913 11527,19923 11639,19952 11751,19959 11861,19971 11973,19972 12085,19978 12197,19985 12309,19986 12421,19989 12532,20002 12644,20016 12756,20023 12868,20024 12980,20019 13092,20001 13204,20007 13315,20048 13427,20081 13539,20096 13651,20137 13763,20168 13875,20237 13987,20295 14098,20348 14210,20352 14322,20372 14434,20400 14546,20416 14658,20430 14770,20440 14881,20462 14993,20479 15105,20485 15217,20499 15329,20519 15441,20510 15552,20521 15664,20533 15776,20555 15888,20571 16000,20568 16112,20580 16224,20570 16335,20594 16447,20617 16559,20642 16671,20670 16783,20710 16895,20700 17007,20699 17118,20719 17230,20751 17342,20778 17454,20828 17566,20826 17678,20831 17789,20848 17901,20872 18013,20898 18125,20924 18237,20941 18349,20974 18461,20992"/>
 <path fill="none" stroke="rgb(128,0,128)" stroke-width="80" stroke-linejoin="round" stroke-dasharray="158,158" d="M 1348,18486 L 1460,18886 1572,19793 1684,20083 1796,19341 1908,19720 2020,19499 2131,19076 2243,19970 2355,18652 2467,17409 2579,18463 2691,18662 2802,17703 2914,18551 3026,18753 3138,18562 3250,18702 3362,18749 3474,17301 3585,16666 3697,16887 3809,17019 3921,16841 4033,17076 4145,17839 4257,16969 4368,16634 4480,17034 4592,17730 4704,17558 4816,17710 4928,17885 5039,18316 5151,18338 5263,18358 5375,18607 5487,18706 5599,18758 5711,18759 5822,18807 5934,18941 6046,19074 6158,19055 6270,19108 6382,19102 6494,19124 6605,19098 6717,19105 6829,19110 6941,19020 7053,19063 7165,18815 7277,18714 7388,18769 7500,18796 7612,18870 7724,18993 7836,19032 7948,19157 8059,19193 8171,19204 8283,19250 8395,19350 8507,19385 8619,19373 8731,19397 8842,19410 8954,19431 9066,19472 9178,19523 9290,19555 9402,19619 9514,19665 9625,19707 9737,19741 9849,19782 9961,19773 10073,19788 10185,19781 10296,19813 10408,19832 10520,19845 10632,19853 10744,19863 10856,19852 10968,19871 11079,19898 11191,19922 11303,19912 11415,19899 11527,19895 11639,19889 11751,19897 11861,19891 11973,19433 12085,19466 12197,19502 12309,19521 12421,19548 12532,19543 12644,19586 12756,19598 12868,19626 12980,19662 13092,19695 13204,19722 13315,19759 13427,19794 13539,19813 13651,19850 13763,19900 13875,19935 13987,19938 14098,19968 14210,19992 14322,20021 14434,20055 14546,20097 14658,20128 14770,20147 14881,20171 14993,20195 15105,20221 15217,20244 15329,20261 15441,20280 15552,20309 15664,20326 15776,20358 15888,20389 16000,20379 16112,20408 16224,20437 16335,20462 16447,20486 16559,20528 16671,20563 16783,20597 16895,20628 17007,20657 17118,20672 17230,20701 17342,20725 17454,20748 17566,20777 17678,20798 17789,20813 17901,20829 18013,20839 18125,20858 18237,20883 18349,20901 18461,20919"/>
 <path fill="none" stroke="rgb(0,0,255)" stroke-width="80" stroke-linejoin="round" stroke-dasharray="158,158" d="M 1348,22035 L 1460,21984 1572,21954 1684,21980 1796,21928 1908,21908 2020,21847 2131,21825 2243,21752 2355,21672 2467,21684 2579,21616 2691,21569 2802,21542 2914,21490 3026,21443 3138,21380 3250,21340 3362,21320 3474,21308 3585,21295 3697,21268 3809,21254 3921,21222 4033,21213 4145,21176 4257,21123 4368,21106 4480,21086 4592,21069 4704,21053 4816,21037 4928,21004 5039,20984 5151,20957 5263,20955 5375,20943 5487,20932 5599,20921 5711,20917 5822,20913 5934,20900 6046,20902 6158,20888 6270,20882 6382,20876 6494,20863 6605,20857 6717,20851 6829,20837 6941,20840 7053,20826 7165,20811 7277,20805 7388,20798 7500,20800 7612,20802 7724,20803 7836,20803 7948,20788 8059,20783 8171,20778 8283,20784 8395,20775 8507,20780 8619,20778 8731,20783 8842,20788 8954,20784 9066,20786 9178,20774 9290,20776 9402,20774 9514,20761 9625,20765 9737,20769 9849,20774 9961,20776 10073,20772 10185,20772 10296,20779 10408,20782 10520,20789 10632,20793 10744,20799 10856,20806 10968,20814 11079,20814 11191,20806 11303,20815 11415,20817 11527,20823 11639,20830 11751,20838 11861,20838 11973,20840 12085,20841 12197,20847 12309,20852 12421,20858 12532,20865 12644,20867 12756,20875 12868,20878 12980,20886 13092,20888 13204,20895 13315,20903 13427,20907 13539,20913 13651,20921 13763,20930 13875,20929 13987,20936 14098,20936 14210,20938 14322,20947 14434,20943 14546,20945 14658,20951 14770,20951 14881,20960 14993,20967 15105,20973 15217,20965 15329,20958 15441,20961 15552,20959 15664,20958 15776,20966 15888,20968 16000,20973 16112,20972 16224,20975 16335,20981 16447,20983 16559,20985 16671,20990 16783,21005 16895,21006 17007,21009 17118,21013 17230,21019 17342,21021 17454,21019 17566,21023 17678,21021 17789,21018 17901,21017 18013,21021 18125,21026 18237,21028 18349,21033 18461,21038"/>
 <text class="TextShape" transform="rotate(-90 1442 23721)"><tspan class="TextParagraph" font-family="Liberation Sans, sans-serif" font-size="282px" font-weight="400"><tspan class="TextPosition" x="1442" y="23721"><tspan fill="rgb(0,0,0)" stroke="none">13.03</tspan></tspan></tspan></text>
 <text class="TextShape" transform="rotate(-90 1778 23721)"><tspan class="TextParagraph" font-family="Liberation Sans, sans-serif" font-size="282px" font-weight="400"><tspan class="TextPosition" x="1778" y="23721"><tspan fill="rgb(0,0,0)" stroke="none">16.03</tspan></tspan></tspan></text>
 <text class="TextShape" transform="rotate(-90 2114 23721)"><tspan class="TextParagraph" font-family="Liberation Sans, sans-serif" font-size="282px" font-weight="400"><tspan class="TextPosition" x="2114" y="23721"><tspan fill="rgb(0,0,0)" stroke="none">19.03</tspan></tspan></tspan></text>
 <text class="TextShape" transform="rotate(-90 2449 23721)"><tspan class="TextParagraph" font-family="Liberation Sans, sans-serif" font-size="282px" font-weight="400"><tspan class="TextPosition" x="2449" y="23721"><tspan fill="rgb(0,0,0)" stroke="none">22.03</tspan></tspan></tspan></text>
 <text class="TextShape" transform="rotate(-90 2785 23721)"><tspan class="TextParagraph" font-family="Liberation Sans, sans-serif" font-size="282px" font-weight="400"><tspan class="TextPosition" x="2785" y="23721"><tspan fill="rgb(0,0,0)" stroke="none">25.03</tspan></tspan></tspan></text>
 <text class="TextShape" transform="rotate(-90 3120 23721)"><tspan class="TextParagraph" font-family="Liberation Sans, sans-serif" font-size="282px" font-weight="400"><tspan class="TextPosition" x="3120" y="23721"><tspan fill="rgb(0,0,0)" stroke="none">28.03</tspan></tspan></tspan></text>
 <text class="TextShape" transform="rotate(-90 3456 23721)"><tspan class="TextParagraph" font-family="Liberation Sans, sans-serif" font-size="282px" font-weight="400"><tspan class="TextPosition" x="3456" y="23721"><tspan fill="rgb(0,0,0)" stroke="none">31.03</tspan></tspan></tspan></text>
 <text class="TextShape" transform="rotate(-90 3791 23721)"><tspan class="TextParagraph" font-family="Liberation Sans, sans-serif" font-size="282px" font-weight="400"><tspan class="TextPosition" x="3791" y="23721"><tspan fill="rgb(0,0,0)" stroke="none">03.04</tspan></tspan></tspan></text>
 <text class="TextShape" transform="rotate(-90 4127 23721)"><tspan class="TextParagraph" font-family="Liberation Sans, sans-serif" font-size="282px" font-weight="400"><tspan class="TextPosition" x="4127" y="23721"><tspan fill="rgb(0,0,0)" stroke="none">06.04</tspan></tspan></tspan></text>
 <text class="TextShape" transform="rotate(-90 4462 23721)"><tspan class="TextParagraph" font-family="Liberation Sans, sans-serif" font-size="282px" font-weight="400"><tspan class="TextPosition" x="4462" y="23721"><tspan fill="rgb(0,0,0)" stroke="none">09.04</tspan></tspan></tspan></text>
 <text class="TextShape" transform="rotate(-90 4798 23721)"><tspan class="TextParagraph" font-family="Liberation Sans, sans-serif" font-size="282px" font-weight="400"><tspan class="TextPosition" x="4798" y="23721"><tspan fill="rgb(0,0,0)" stroke="none">12.04</tspan></tspan></tspan></text>
 <text class="TextShape" transform="rotate(-90 5133 23721)"><tspan class="TextParagraph" font-family="Liberation Sans, sans-serif" font-size="282px" font-weight="400"><tspan class="TextPosition" x="5133" y="23721"><tspan fill="rgb(0,0,0)" stroke="none">15.04</tspan></tspan></tspan></text>
 <text class="TextShape" transform="rotate(-90 5469 23721)"><tspan class="TextParagraph" font-family="Liberation Sans, sans-serif" font-size="282px" font-weight="400"><tspan class="TextPosition" x="5469" y="23721"><tspan fill="rgb(0,0,0)" stroke="none">18.04</tspan></tspan></tspan></text>
 <text class="TextShape" transform="rotate(-90 5805 23721)"><tspan class="TextParagraph" font-family="Liberation Sans, sans-serif" font-size="282px" font-weight="400"><tspan class="TextPosition" x="5805" y="23721"><tspan fill="rgb(0,0,0)" stroke="none">21.04</tspan></tspan></tspan></text>
 <text class="TextShape" transform="rotate(-90 6140 23721)"><tspan class="TextParagraph" font-family="Liberation Sans, sans-serif" font-size="282px" font-weight="400"><tspan class="TextPosition" x="6140" y="23721"><tspan fill="rgb(0,0,0)" stroke="none">24.04</tspan></tspan></tspan></text>
 <text class="TextShape" transform="rotate(-90 6476 23721)"><tspan class="TextParagraph" font-family="Liberation Sans, sans-serif" font-size="282px" font-weight="400"><tspan class="TextPosition" x="6476" y="23721"><tspan fill="rgb(0,0,0)" stroke="none">27.04</tspan></tspan></tspan></text>
 <text class="TextShape" transform="rotate(-90 6811 23721)"><tspan class="TextParagraph" font-family="Liberation Sans, sans-serif" font-size="282px" font-weight="400"><tspan class="TextPosition" x="6811" y="23721"><tspan fill="rgb(0,0,0)" stroke="none">30.04</tspan></tspan></tspan></text>
 <text class="TextShape" transform="rotate(-90 7147 23721)"><tspan class="TextParagraph" font-family="Liberation Sans, sans-serif" font-size="282px" font-weight="400"><tspan class="TextPosition" x="7147" y="23721"><tspan fill="rgb(0,0,0)" stroke="none">03.05</tspan></tspan></tspan></text>
 <text class="TextShape" transform="rotate(-90 7482 23721)"><tspan class="TextParagraph" font-family="Liberation Sans, sans-serif" font-size="282px" font-weight="400"><tspan class="TextPosition" x="7482" y="23721"><tspan fill="rgb(0,0,0)" stroke="none">06.05</tspan></tspan></tspan></text>
 <text class="TextShape" transform="rotate(-90 7818 23721)"><tspan class="TextParagraph" font-family="Liberation Sans, sans-serif" font-size="282px" font-weight="400"><tspan class="TextPosition" x="7818" y="23721"><tspan fill="rgb(0,0,0)" stroke="none">09.05</tspan></tspan></tspan></text>
 <text class="TextShape" transform="rotate(-90 8153 23721)"><tspan class="TextParagraph" font-family="Liberation Sans, sans-serif" font-size="282px" font-weight="400"><tspan class="TextPosition" x="8153" y="23721"><tspan fill="rgb(0,0,0)" stroke="none">12.05</tspan></tspan></tspan></text>
 <text class="TextShape" transform="rotate(-90 8489 23721)"><tspan class="TextParagraph" font-family="Liberation Sans, sans-serif" font-size="282px" font-weight="400"><tspan class="TextPosition" x="8489" y="23721"><tspan fill="rgb(0,0,0)" stroke="none">15.05</tspan></tspan></tspan></text>
 <text class="TextShape" transform="rotate(-90 8825 23721)"><tspan class="TextParagraph" font-family="Liberation Sans, sans-serif" font-size="282px" font-weight="400"><tspan class="TextPosition" x="8825" y="23721"><tspan fill="rgb(0,0,0)" stroke="none">18.05</tspan></tspan></tspan></text>
 <text class="TextShape" transform="rotate(-90 9160 23721)"><tspan class="TextParagraph" font-family="Liberation Sans, sans-serif" font-size="282px" font-weight="400"><tspan class="TextPosition" x="9160" y="23721"><tspan fill="rgb(0,0,0)" stroke="none">21.05</tspan></tspan></tspan></text>
 <text class="TextShape" transform="rotate(-90 9496 23721)"><tspan class="TextParagraph" font-family="Liberation Sans, sans-serif" font-size="282px" font-weight="400"><tspan class="TextPosition" x="9496" y="23721"><tspan fill="rgb(0,0,0)" stroke="none">24.05</tspan></tspan></tspan></text>
 <text class="TextShape" transform="rotate(-90 9831 23721)"><tspan class="TextParagraph" font-family="Liberation Sans, sans-serif" font-size="282px" font-weight="400"><tspan class="TextPosition" x="9831" y="23721"><tspan fill="rgb(0,0,0)" stroke="none">27.05</tspan></tspan></tspan></text>
 <text class="TextShape" transform="rotate(-90 10167 23721)"><tspan class="TextParagraph" font-family="Liberation Sans, sans-serif" font-size="282px" font-weight="400"><tspan class="TextPosition" x="10167" y="23721"><tspan fill="rgb(0,0,0)" stroke="none">30.05</tspan></tspan></tspan></text>
 <text class="TextShape" transform="rotate(-90 10502 23721)"><tspan class="TextParagraph" font-family="Liberation Sans, sans-serif" font-size="282px" font-weight="400"><tspan class="TextPosition" x="10502" y="23721"><tspan fill="rgb(0,0,0)" stroke="none">02.06</tspan></tspan></tspan></text>
 <text class="TextShape" transform="rotate(-90 10838 23721)"><tspan class="TextParagraph" font-family="Liberation Sans, sans-serif" font-size="282px" font-weight="400"><tspan class="TextPosition" x="10838" y="23721"><tspan fill="rgb(0,0,0)" stroke="none">05.06</tspan></tspan></tspan></text>
 <text class="TextShape" transform="rotate(-90 11173 23721)"><tspan class="TextParagraph" font-family="Liberation Sans, sans-serif" font-size="282px" font-weight="400"><tspan class="TextPosition" x="11173" y="23721"><tspan fill="rgb(0,0,0)" stroke="none">08.06</tspan></tspan></tspan></text>
 <text class="TextShape" transform="rotate(-90 11509 23721)"><tspan class="TextParagraph" font-family="Liberation Sans, sans-serif" font-size="282px" font-weight="400"><tspan class="TextPosition" x="11509" y="23721"><tspan fill="rgb(0,0,0)" stroke="none">11.06</tspan></tspan></tspan></text>
 <text class="TextShape" transform="rotate(-90 11844 23721)"><tspan class="TextParagraph" font-family="Liberation Sans, sans-serif" font-size="282px" font-weight="400"><tspan class="TextPosition" x="11844" y="23721"><tspan fill="rgb(0,0,0)" stroke="none">14.06</tspan></tspan></tspan></text>
 <text class="TextShape" transform="rotate(-90 12179 23721)"><tspan class="TextParagraph" font-family="Liberation Sans, sans-serif" font-size="282px" font-weight="400"><tspan class="TextPosition" x="12179" y="23721"><tspan fill="rgb(0,0,0)" stroke="none">17.06</tspan></tspan></tspan></text>
 <text class="TextShape" transform="rotate(-90 12515 23721)"><tspan class="TextParagraph" font-family="Liberation Sans, sans-serif" font-size="282px" font-weight="400"><tspan class="TextPosition" x="12515" y="23721"><tspan fill="rgb(0,0,0)" stroke="none">20.06</tspan></tspan></tspan></text>
 <text class="TextShape" transform="rotate(-90 12850 23721)"><tspan class="TextParagraph" font-family="Liberation Sans, sans-serif" font-size="282px" font-weight="400"><tspan class="TextPosition" x="12850" y="23721"><tspan fill="rgb(0,0,0)" stroke="none">23.06</tspan></tspan></tspan></text>
 <text class="TextShape" transform="rotate(-90 13186 23721)"><tspan class="TextParagraph" font-family="Liberation Sans, sans-serif" font-size="282px" font-weight="400"><tspan class="TextPosition" x="13186" y="23721"><tspan fill="rgb(0,0,0)" stroke="none">26.06</tspan></tspan></tspan></text>
 <text class="TextShape" transform="rotate(-90 13521 23721)"><tspan class="TextParagraph" font-family="Liberation Sans, sans-serif" font-size="282px" font-weight="400"><tspan class="TextPosition" x="13521" y="23721"><tspan fill="rgb(0,0,0)" stroke="none">29.06</tspan></tspan></tspan></text>
 <text class="TextShape" transform="rotate(-90 13857 23721)"><tspan class="TextParagraph" font-family="Liberation Sans, sans-serif" font-size="282px" font-weight="400"><tspan class="TextPosition" x="13857" y="23721"><tspan fill="rgb(0,0,0)" stroke="none">02.07</tspan></tspan></tspan></text>
 <text class="TextShape" transform="rotate(-90 14192 23721)"><tspan class="TextParagraph" font-family="Liberation Sans, sans-serif" font-size="282px" font-weight="400"><tspan class="TextPosition" x="14192" y="23721"><tspan fill="rgb(0,0,0)" stroke="none">05.07</tspan></tspan></tspan></text>
 <text class="TextShape" transform="rotate(-90 14528 23721)"><tspan class="TextParagraph" font-family="Liberation Sans, sans-serif" font-size="282px" font-weight="400"><tspan class="TextPosition" x="14528" y="23721"><tspan fill="rgb(0,0,0)" stroke="none">08.07</tspan></tspan></tspan></text>
 <text class="TextShape" transform="rotate(-90 14864 23721)"><tspan class="TextParagraph" font-family="Liberation Sans, sans-serif" font-size="282px" font-weight="400"><tspan class="TextPosition" x="14864" y="23721"><tspan fill="rgb(0,0,0)" stroke="none">11.07</tspan></tspan></tspan></text>
 <text class="TextShape" transform="rotate(-90 15199 23721)"><tspan class="TextParagraph" font-family="Liberation Sans, sans-serif" font-size="282px" font-weight="400"><tspan class="TextPosition" x="15199" y="23721"><tspan fill="rgb(0,0,0)" stroke="none">14.07</tspan></tspan></tspan></text>
 <text class="TextShape" transform="rotate(-90 15535 23721)"><tspan class="TextParagraph" font-family="Liberation Sans, sans-serif" font-size="282px" font-weight="400"><tspan class="TextPosition" x="15535" y="23721"><tspan fill="rgb(0,0,0)" stroke="none">17.07</tspan></tspan></tspan></text>
 <text class="TextShape" transform="rotate(-90 15870 23721)"><tspan class="TextParagraph" font-family="Liberation Sans, sans-serif" font-size="282px" font-weight="400"><tspan class="TextPosition" x="15870" y="23721"><tspan fill="rgb(0,0,0)" stroke="none">20.07</tspan></tspan></tspan></text>
 <text class="TextShape" transform="rotate(-90 16206 23721)"><tspan class="TextParagraph" font-family="Liberation Sans, sans-serif" font-size="282px" font-weight="400"><tspan class="TextPosition" x="16206" y="23721"><tspan fill="rgb(0,0,0)" stroke="none">23.07</tspan></tspan></tspan></text>
 <text class="TextShape" transform="rotate(-90 16541 23721)"><tspan class="TextParagraph" font-family="Liberation Sans, sans-serif" font-size="282px" font-weight="400"><tspan class="TextPosition" x="16541" y="23721"><tspan fill="rgb(0,0,0)" stroke="none">26.07</tspan></tspan></tspan></text>
 <text class="TextShape" transform="rotate(-90 16877 23721)"><tspan class="TextParagraph" font-family="Liberation Sans, sans-serif" font-size="282px" font-weight="400"><tspan class="TextPosition" x="16877" y="23721"><tspan fill="rgb(0,0,0)" stroke="none">29.07</tspan></tspan></tspan></text>
 <text class="TextShape" transform="rotate(-90 17212 23721)"><tspan class="TextParagraph" font-family="Liberation Sans, sans-serif" font-size="282px" font-weight="400"><tspan class="TextPosition" x="17212" y="23721"><tspan fill="rgb(0,0,0)" stroke="none">01.08</tspan></tspan></tspan></text>
 <text class="TextShape" transform="rotate(-90 17548 23721)"><tspan class="TextParagraph" font-family="Liberation Sans, sans-serif" font-size="282px" font-weight="400"><tspan class="TextPosition" x="17548" y="23721"><tspan fill="rgb(0,0,0)" stroke="none">04.08</tspan></tspan></tspan></text>
 <text class="TextShape" transform="rotate(-90 17883 23721)"><tspan class="TextParagraph" font-family="Liberation Sans, sans-serif" font-size="282px" font-weight="400"><tspan class="TextPosition" x="17883" y="23721"><tspan fill="rgb(0,0,0)" stroke="none">07.08</tspan></tspan></tspan></text>
 <text class="TextShape" transform="rotate(-90 18219 23721)"><tspan class="TextParagraph" font-family="Liberation Sans, sans-serif" font-size="282px" font-weight="400"><tspan class="TextPosition" x="18219" y="23721"><tspan fill="rgb(0,0,0)" stroke="none">10.08</tspan></tspan></tspan></text>
 <text class="TextShape" transform="rotate(-90 18555 23721)"><tspan class="TextParagraph" font-family="Liberation Sans, sans-serif" font-size="282px" font-weight="400"><tspan class="TextPosition" x="18555" y="23721"><tspan fill="rgb(0,0,0)" stroke="none">13.08</tspan></tspan></tspan></text>
 <text class="TextShape"><tspan class="TextParagraph" font-family="Liberation Sans, sans-serif" font-size="388px" font-weight="400"><tspan class="TextPosition" x="493" y="22921"><tspan fill="rgb(0,0,0)" stroke="none">0%</tspan></tspan></tspan></text>
 <text class="TextShape"><tspan class="TextParagraph" font-family="Liberation Sans, sans-serif" font-size="388px" font-weight="400"><tspan class="TextPosition" x="493" y="18721"><tspan fill="rgb(0,0,0)" stroke="none">5%</tspan></tspan></tspan></text>
 <text class="TextShape"><tspan class="TextParagraph" font-family="Liberation Sans, sans-serif" font-size="388px" font-weight="400"><tspan class="TextPosition" x="281" y="14522"><tspan fill="rgb(0,0,0)" stroke="none">10%</tspan></tspan></tspan></text>
 <text class="TextShape"><tspan class="TextParagraph" font-family="Liberation Sans, sans-serif" font-size="388px" font-weight="400"><tspan class="TextPosition" x="281" y="10323"><tspan fill="rgb(0,0,0)" stroke="none">15%</tspan></tspan></tspan></text>
 <text class="TextShape"><tspan class="TextParagraph" font-family="Liberation Sans, sans-serif" font-size="388px" font-weight="400"><tspan class="TextPosition" x="281" y="6124"><tspan fill="rgb(0,0,0)" stroke="none">20%</tspan></tspan></tspan></text>
 <text class="TextShape"><tspan class="TextParagraph" font-family="Liberation Sans, sans-serif" font-size="388px" font-weight="400"><tspan class="TextPosition" x="281" y="1925"><tspan fill="rgb(0,0,0)" stroke="none">25%</tspan></tspan></tspan></text>
 <text class="TextShape"><tspan class="TextParagraph" font-family="Liberation Sans, sans-serif" font-size="494px" font-weight="700"><tspan class="TextPosition" x="887" y="990"><tspan fill="rgb(0,0,0)" stroke="none">Pomr celkovho potu obt ke 5 dn zpodnmu celkovmu potu infikovanch</tspan></tspan></tspan></text>
 <path fill="none" stroke="rgb(255,128,0)" stroke-width="80" stroke-linejoin="round" d="M 18747,2317 L 20347,2317"/>
 <path fill="none" stroke="rgb(131,202,255)" stroke-width="80" stroke-linejoin="round" d="M 18747,3327 L 20347,3327"/>
 <path fill="none" stroke="rgb(0,169,51)" stroke-width="80" stroke-linejoin="round" stroke-dasharray="80,40" d="M 18747,4337 L 20347,4337"/>
 <path fill="none" stroke="rgb(34,75,18)" stroke-width="80" stroke-linejoin="round" stroke-dasharray="51,127,51,127,254,127,254,127,254,127" d="M 18747,5347 L 20347,5347"/>
 <path fill="none" stroke="rgb(128,0,128)" stroke-width="80" stroke-linejoin="round" d="M 18747,6357 L 20347,6357"/>
 <path fill="none" stroke="rgb(0,0,255)" stroke-width="80" stroke-linejoin="round" stroke-dasharray="51,127,51,127,254,127,254,127,254,127" d="M 18747,7367 L 20347,7367"/>
 <path fill="none" stroke="rgb(112,110,12)" stroke-width="80" stroke-linejoin="round" stroke-dasharray="80,40" d="M 18747,8377 L 20347,8377"/>
 <path fill="none" stroke="rgb(85,48,141)" stroke-width="80" stroke-linejoin="round" stroke-dasharray="80,40" d="M 18747,9387 L 20347,9387"/>
 <path fill="none" stroke="rgb(241,13,12)" stroke-width="80" stroke-linejoin="round" d="M 18747,10397 L 20347,10397"/>
 <path fill="none" stroke="rgb(129,212,26)" stroke-width="80" stroke-linejoin="round" d="M 18747,11407 L 20347,11407"/>
 <path fill="none" stroke="rgb(180,120,4)" stroke-width="80" stroke-linejoin="round" d="M 18747,12417 L 20347,12417"/>
 <path fill="none" stroke="rgb(52,42,6)" stroke-width="80" stroke-linejoin="round" d="M 18747,13426 L 20347,13426"/>
 <path fill="none" stroke="rgb(191,0,65)" stroke-width="80" stroke-linejoin="round" stroke-dasharray="51,127,51,127,254,127,254,127,254,127" d="M 18747,14436 L 20347,14436"/>
 <path fill="none" stroke="rgb(21,132,102)" stroke-width="80" stroke-linejoin="round" stroke-dasharray="80,203,80,203,203,203" d="M 18747,15446 L 20347,15446"/>
 <path fill="none" stroke="rgb(255,64,0)" stroke-width="80" stroke-linejoin="round" stroke-dasharray="80,40" d="M 18747,16456 L 20347,16456"/>
 <path fill="none" stroke="rgb(141,40,30)" stroke-width="80" stroke-linejoin="round" stroke-dasharray="80,40" d="M 18747,17466 L 20347,17466"/>
 <path fill="none" stroke="rgb(0,169,51)" stroke-width="80" stroke-linejoin="round" d="M 18747,18476 L 20347,18476"/>
 <path fill="none" stroke="rgb(0,132,209)" stroke-width="80" stroke-linejoin="round" d="M 18747,19486 L 20347,19486"/>
 <path fill="none" stroke="rgb(255,191,0)" stroke-width="80" stroke-linejoin="round" d="M 18747,20496 L 20347,20496"/>
 <path fill="none" stroke="rgb(128,0,128)" stroke-width="80" stroke-linejoin="round" stroke-dasharray="158,158" d="M 18747,21506 L 20347,21506"/>
 <path fill="none" stroke="rgb(0,0,255)" stroke-width="80" stroke-linejoin="round" stroke-dasharray="158,158" d="M 18747,22516 L 20347,22516"/>
 <text class="TextShape"><tspan class="TextParagraph" font-family="Liberation Sans, sans-serif" font-size="423px" font-weight="400"><tspan class="TextPosition" x="20447" y="2465"><tspan fill="rgb(0,0,0)" stroke="none">Velk Britnie</tspan></tspan></tspan></text>
 <text class="TextShape"><tspan class="TextParagraph" font-family="Liberation Sans, sans-serif" font-size="423px" font-weight="400"><tspan class="TextPosition" x="20447" y="3475"><tspan fill="rgb(0,0,0)" stroke="none">Itlie</tspan></tspan></tspan></text>
 <text class="TextShape"><tspan class="TextParagraph" font-family="Liberation Sans, sans-serif" font-size="423px" font-weight="400"><tspan class="TextPosition" x="20447" y="4485"><tspan fill="rgb(0,0,0)" stroke="none">Mexiko</tspan></tspan></tspan></text>
 <text class="TextShape"><tspan class="TextParagraph" font-family="Liberation Sans, sans-serif" font-size="423px" font-weight="400"><tspan class="TextPosition" x="20447" y="5495"><tspan fill="rgb(0,0,0)" stroke="none">EU_star zem</tspan></tspan></tspan></text>
 <text class="TextShape"><tspan class="TextParagraph" font-family="Liberation Sans, sans-serif" font-size="423px" font-weight="400"><tspan class="TextPosition" x="20447" y="6505"><tspan fill="rgb(0,0,0)" stroke="none">panlsko</tspan></tspan></tspan></text>
 <text class="TextShape"><tspan class="TextParagraph" font-family="Liberation Sans, sans-serif" font-size="423px" font-weight="400"><tspan class="TextPosition" x="20447" y="7515"><tspan fill="rgb(0,0,0)" stroke="none">EU</tspan></tspan></tspan></text>
 <text class="TextShape"><tspan class="TextParagraph" font-family="Liberation Sans, sans-serif" font-size="423px" font-weight="400"><tspan class="TextPosition" x="20447" y="8525"><tspan fill="rgb(0,0,0)" stroke="none">Stt New York</tspan></tspan></tspan></text>
 <text class="TextShape"><tspan class="TextParagraph" font-family="Liberation Sans, sans-serif" font-size="423px" font-weight="400"><tspan class="TextPosition" x="20447" y="9535"><tspan fill="rgb(0,0,0)" stroke="none">Kanada</tspan></tspan></tspan></text>
 <text class="TextShape"><tspan class="TextParagraph" font-family="Liberation Sans, sans-serif" font-size="423px" font-weight="400"><tspan class="TextPosition" x="20447" y="10545"><tspan fill="rgb(0,0,0)" stroke="none">vdsko</tspan></tspan></tspan></text>
 <text class="TextShape"><tspan class="TextParagraph" font-family="Liberation Sans, sans-serif" font-size="423px" font-weight="400"><tspan class="TextPosition" x="20447" y="11555"><tspan fill="rgb(0,0,0)" stroke="none">vcarsko</tspan></tspan></tspan></text>
 <text class="TextShape"><tspan class="TextParagraph" font-family="Liberation Sans, sans-serif" font-size="423px" font-weight="400"><tspan class="TextPosition" x="20447" y="12564"><tspan fill="rgb(0,0,0)" stroke="none">Dnsko</tspan></tspan></tspan></text>
 <text class="TextShape"><tspan class="TextParagraph" font-family="Liberation Sans, sans-serif" font-size="423px" font-weight="400"><tspan class="TextPosition" x="20447" y="13574"><tspan fill="rgb(0,0,0)" stroke="none">Nmecko</tspan></tspan></tspan></text>
 <text class="TextShape"><tspan class="TextParagraph" font-family="Liberation Sans, sans-serif" font-size="423px" font-weight="400"><tspan class="TextPosition" x="20447" y="14584"><tspan fill="rgb(0,0,0)" stroke="none">EU_nov zem</tspan></tspan></tspan></text>
 <text class="TextShape"><tspan class="TextParagraph" font-family="Liberation Sans, sans-serif" font-size="423px" font-weight="400"><tspan class="TextPosition" x="20447" y="15594"><tspan fill="rgb(0,0,0)" stroke="none">celosvtov</tspan></tspan></tspan></text>
 <text class="TextShape"><tspan class="TextParagraph" font-family="Liberation Sans, sans-serif" font-size="423px" font-weight="400"><tspan class="TextPosition" x="20447" y="16604"><tspan fill="rgb(0,0,0)" stroke="none">Brazlie</tspan></tspan></tspan></text>
 <text class="TextShape"><tspan class="TextParagraph" font-family="Liberation Sans, sans-serif" font-size="423px" font-weight="400"><tspan class="TextPosition" x="20447" y="17614"><tspan fill="rgb(0,0,0)" stroke="none">USA</tspan></tspan></tspan></text>
 <text class="TextShape"><tspan class="TextParagraph" font-family="Liberation Sans, sans-serif" font-size="423px" font-weight="400"><tspan class="TextPosition" x="20447" y="18624"><tspan fill="rgb(0,0,0)" stroke="none">Rakousko</tspan></tspan></tspan></text>
 <text class="TextShape"><tspan class="TextParagraph" font-family="Liberation Sans, sans-serif" font-size="423px" font-weight="400"><tspan class="TextPosition" x="20447" y="19634"><tspan fill="rgb(0,0,0)" stroke="none">Norsko</tspan></tspan></tspan></text>
 <text class="TextShape"><tspan class="TextParagraph" font-family="Liberation Sans, sans-serif" font-size="423px" font-weight="400"><tspan class="TextPosition" x="20447" y="20644"><tspan fill="rgb(0,0,0)" stroke="none">esko</tspan></tspan></tspan></text>
 <text class="TextShape"><tspan class="TextParagraph" font-family="Liberation Sans, sans-serif" font-size="423px" font-weight="400"><tspan class="TextPosition" x="20447" y="21654"><tspan fill="rgb(0,0,0)" stroke="none">Indie</tspan></tspan></tspan></text>
 <text class="TextShape"><tspan class="TextParagraph" font-family="Liberation Sans, sans-serif" font-size="423px" font-weight="400"><tspan class="TextPosition" x="20447" y="22664"><tspan fill="rgb(0,0,0)" stroke="none">Jin Korea</tspan></tspan></tspan></text>
</svg>