<?xml version="1.0" encoding="UTF-8"?>
<!DOCTYPE svg PUBLIC "-//W3C//DTD SVG 1.1//EN" "http://www.w3.org/Graphics/SVG/1.1/DTD/svg11.dtd">
<svg width="236mm" height="238mm" viewBox="0 0 23600 23800" version="1.1" xmlns="http://www.w3.org/2000/svg" xmlns:xlink="http://www.w3.org/1999/xlink" stroke-width="28.222" stroke-linejoin="round" xml:space="preserve">
 <path fill="rgb(255,255,255)" stroke="none" d="M 11800,23813 L 0,23813 0,0 23600,0 23600,23813 11800,23813 Z"/>
 <path fill="none" stroke="rgb(179,179,179)" stroke-linejoin="round" d="M 9834,21713 L 1220,21713 1220,1712 18448,1712 18448,21713 9834,21713 Z"/>
 <path fill="none" stroke="rgb(179,179,179)" stroke-linejoin="round" d="M 18448,21712 L 1220,21712"/>
 <path fill="none" stroke="rgb(179,179,179)" stroke-linejoin="round" d="M 18448,17711 L 1220,17711"/>
 <path fill="none" stroke="rgb(179,179,179)" stroke-linejoin="round" d="M 18448,13711 L 1220,13711"/>
 <path fill="none" stroke="rgb(179,179,179)" stroke-linejoin="round" d="M 18448,9711 L 1220,9711"/>
 <path fill="none" stroke="rgb(179,179,179)" stroke-linejoin="round" d="M 18448,5711 L 1220,5711"/>
 <path fill="none" stroke="rgb(179,179,179)" stroke-linejoin="round" d="M 18448,1711 L 1220,1711"/>
 <path fill="none" stroke="rgb(221,221,221)" stroke-linejoin="round" stroke-dasharray="53,34" d="M 18448,20911 L 1220,20911"/>
 <path fill="none" stroke="rgb(221,221,221)" stroke-linejoin="round" stroke-dasharray="53,34" d="M 18448,20111 L 1220,20111"/>
 <path fill="none" stroke="rgb(221,221,221)" stroke-linejoin="round" stroke-dasharray="53,34" d="M 18448,19311 L 1220,19311"/>
 <path fill="none" stroke="rgb(221,221,221)" stroke-linejoin="round" stroke-dasharray="53,34" d="M 18448,18511 L 1220,18511"/>
 <path fill="none" stroke="rgb(221,221,221)" stroke-linejoin="round" stroke-dasharray="53,34" d="M 18448,16911 L 1220,16911"/>
 <path fill="none" stroke="rgb(221,221,221)" stroke-linejoin="round" stroke-dasharray="53,34" d="M 18448,16111 L 1220,16111"/>
 <path fill="none" stroke="rgb(221,221,221)" stroke-linejoin="round" stroke-dasharray="53,34" d="M 18448,15311 L 1220,15311"/>
 <path fill="none" stroke="rgb(221,221,221)" stroke-linejoin="round" stroke-dasharray="53,34" d="M 18448,14511 L 1220,14511"/>
 <path fill="none" stroke="rgb(221,221,221)" stroke-linejoin="round" stroke-dasharray="53,34" d="M 18448,12911 L 1220,12911"/>
 <path fill="none" stroke="rgb(221,221,221)" stroke-linejoin="round" stroke-dasharray="53,34" d="M 18448,12111 L 1220,12111"/>
 <path fill="none" stroke="rgb(221,221,221)" stroke-linejoin="round" stroke-dasharray="53,34" d="M 18448,11311 L 1220,11311"/>
 <path fill="none" stroke="rgb(221,221,221)" stroke-linejoin="round" stroke-dasharray="53,34" d="M 18448,10511 L 1220,10511"/>
 <path fill="none" stroke="rgb(221,221,221)" stroke-linejoin="round" stroke-dasharray="53,34" d="M 18448,8911 L 1220,8911"/>
 <path fill="none" stroke="rgb(221,221,221)" stroke-linejoin="round" stroke-dasharray="53,34" d="M 18448,8111 L 1220,8111"/>
 <path fill="none" stroke="rgb(221,221,221)" stroke-linejoin="round" stroke-dasharray="53,34" d="M 18448,7311 L 1220,7311"/>
 <path fill="none" stroke="rgb(221,221,221)" stroke-linejoin="round" stroke-dasharray="53,34" d="M 18448,6511 L 1220,6511"/>
 <path fill="none" stroke="rgb(221,221,221)" stroke-linejoin="round" stroke-dasharray="53,34" d="M 18448,4911 L 1220,4911"/>
 <path fill="none" stroke="rgb(221,221,221)" stroke-linejoin="round" stroke-dasharray="53,34" d="M 18448,4111 L 1220,4111"/>
 <path fill="none" stroke="rgb(221,221,221)" stroke-linejoin="round" stroke-dasharray="53,34" d="M 18448,3311 L 1220,3311"/>
 <path fill="none" stroke="rgb(221,221,221)" stroke-linejoin="round" stroke-dasharray="53,34" d="M 18448,2511 L 1220,2511"/>
 <path fill="none" stroke="rgb(179,179,179)" stroke-linejoin="round" d="M 1220,21862 L 1220,21712"/>
 <path fill="none" stroke="rgb(179,179,179)" stroke-linejoin="round" d="M 1220,21862 L 1220,21712"/>
 <path fill="none" stroke="rgb(179,179,179)" stroke-linejoin="round" d="M 1325,21862 L 1325,21712"/>
 <path fill="none" stroke="rgb(179,179,179)" stroke-linejoin="round" d="M 1325,21862 L 1325,21712"/>
 <path fill="none" stroke="rgb(179,179,179)" stroke-linejoin="round" d="M 1430,21862 L 1430,21712"/>
 <path fill="none" stroke="rgb(179,179,179)" stroke-linejoin="round" d="M 1430,21862 L 1430,21712"/>
 <path fill="none" stroke="rgb(179,179,179)" stroke-linejoin="round" d="M 1535,21862 L 1535,21712"/>
 <path fill="none" stroke="rgb(179,179,179)" stroke-linejoin="round" d="M 1535,21862 L 1535,21712"/>
 <path fill="none" stroke="rgb(179,179,179)" stroke-linejoin="round" d="M 1640,21862 L 1640,21712"/>
 <path fill="none" stroke="rgb(179,179,179)" stroke-linejoin="round" d="M 1640,21862 L 1640,21712"/>
 <path fill="none" stroke="rgb(179,179,179)" stroke-linejoin="round" d="M 1745,21862 L 1745,21712"/>
 <path fill="none" stroke="rgb(179,179,179)" stroke-linejoin="round" d="M 1745,21862 L 1745,21712"/>
 <path fill="none" stroke="rgb(179,179,179)" stroke-linejoin="round" d="M 1850,21862 L 1850,21712"/>
 <path fill="none" stroke="rgb(179,179,179)" stroke-linejoin="round" d="M 1850,21862 L 1850,21712"/>
 <path fill="none" stroke="rgb(179,179,179)" stroke-linejoin="round" d="M 1955,21862 L 1955,21712"/>
 <path fill="none" stroke="rgb(179,179,179)" stroke-linejoin="round" d="M 1955,21862 L 1955,21712"/>
 <path fill="none" stroke="rgb(179,179,179)" stroke-linejoin="round" d="M 2060,21862 L 2060,21712"/>
 <path fill="none" stroke="rgb(179,179,179)" stroke-linejoin="round" d="M 2060,21862 L 2060,21712"/>
 <path fill="none" stroke="rgb(179,179,179)" stroke-linejoin="round" d="M 2165,21862 L 2165,21712"/>
 <path fill="none" stroke="rgb(179,179,179)" stroke-linejoin="round" d="M 2165,21862 L 2165,21712"/>
 <path fill="none" stroke="rgb(179,179,179)" stroke-linejoin="round" d="M 2270,21862 L 2270,21712"/>
 <path fill="none" stroke="rgb(179,179,179)" stroke-linejoin="round" d="M 2270,21862 L 2270,21712"/>
 <path fill="none" stroke="rgb(179,179,179)" stroke-linejoin="round" d="M 2375,21862 L 2375,21712"/>
 <path fill="none" stroke="rgb(179,179,179)" stroke-linejoin="round" d="M 2375,21862 L 2375,21712"/>
 <path fill="none" stroke="rgb(179,179,179)" stroke-linejoin="round" d="M 2480,21862 L 2480,21712"/>
 <path fill="none" stroke="rgb(179,179,179)" stroke-linejoin="round" d="M 2480,21862 L 2480,21712"/>
 <path fill="none" stroke="rgb(179,179,179)" stroke-linejoin="round" d="M 2585,21862 L 2585,21712"/>
 <path fill="none" stroke="rgb(179,179,179)" stroke-linejoin="round" d="M 2585,21862 L 2585,21712"/>
 <path fill="none" stroke="rgb(179,179,179)" stroke-linejoin="round" d="M 2690,21862 L 2690,21712"/>
 <path fill="none" stroke="rgb(179,179,179)" stroke-linejoin="round" d="M 2690,21862 L 2690,21712"/>
 <path fill="none" stroke="rgb(179,179,179)" stroke-linejoin="round" d="M 2795,21862 L 2795,21712"/>
 <path fill="none" stroke="rgb(179,179,179)" stroke-linejoin="round" d="M 2795,21862 L 2795,21712"/>
 <path fill="none" stroke="rgb(179,179,179)" stroke-linejoin="round" d="M 2900,21862 L 2900,21712"/>
 <path fill="none" stroke="rgb(179,179,179)" stroke-linejoin="round" d="M 2900,21862 L 2900,21712"/>
 <path fill="none" stroke="rgb(179,179,179)" stroke-linejoin="round" d="M 3005,21862 L 3005,21712"/>
 <path fill="none" stroke="rgb(179,179,179)" stroke-linejoin="round" d="M 3005,21862 L 3005,21712"/>
 <path fill="none" stroke="rgb(179,179,179)" stroke-linejoin="round" d="M 3110,21862 L 3110,21712"/>
 <path fill="none" stroke="rgb(179,179,179)" stroke-linejoin="round" d="M 3110,21862 L 3110,21712"/>
 <path fill="none" stroke="rgb(179,179,179)" stroke-linejoin="round" d="M 3216,21862 L 3216,21712"/>
 <path fill="none" stroke="rgb(179,179,179)" stroke-linejoin="round" d="M 3216,21862 L 3216,21712"/>
 <path fill="none" stroke="rgb(179,179,179)" stroke-linejoin="round" d="M 3321,21862 L 3321,21712"/>
 <path fill="none" stroke="rgb(179,179,179)" stroke-linejoin="round" d="M 3321,21862 L 3321,21712"/>
 <path fill="none" stroke="rgb(179,179,179)" stroke-linejoin="round" d="M 3426,21862 L 3426,21712"/>
 <path fill="none" stroke="rgb(179,179,179)" stroke-linejoin="round" d="M 3426,21862 L 3426,21712"/>
 <path fill="none" stroke="rgb(179,179,179)" stroke-linejoin="round" d="M 3531,21862 L 3531,21712"/>
 <path fill="none" stroke="rgb(179,179,179)" stroke-linejoin="round" d="M 3531,21862 L 3531,21712"/>
 <path fill="none" stroke="rgb(179,179,179)" stroke-linejoin="round" d="M 3636,21862 L 3636,21712"/>
 <path fill="none" stroke="rgb(179,179,179)" stroke-linejoin="round" d="M 3636,21862 L 3636,21712"/>
 <path fill="none" stroke="rgb(179,179,179)" stroke-linejoin="round" d="M 3741,21862 L 3741,21712"/>
 <path fill="none" stroke="rgb(179,179,179)" stroke-linejoin="round" d="M 3741,21862 L 3741,21712"/>
 <path fill="none" stroke="rgb(179,179,179)" stroke-linejoin="round" d="M 3846,21862 L 3846,21712"/>
 <path fill="none" stroke="rgb(179,179,179)" stroke-linejoin="round" d="M 3846,21862 L 3846,21712"/>
 <path fill="none" stroke="rgb(179,179,179)" stroke-linejoin="round" d="M 3951,21862 L 3951,21712"/>
 <path fill="none" stroke="rgb(179,179,179)" stroke-linejoin="round" d="M 3951,21862 L 3951,21712"/>
 <path fill="none" stroke="rgb(179,179,179)" stroke-linejoin="round" d="M 4056,21862 L 4056,21712"/>
 <path fill="none" stroke="rgb(179,179,179)" stroke-linejoin="round" d="M 4056,21862 L 4056,21712"/>
 <path fill="none" stroke="rgb(179,179,179)" stroke-linejoin="round" d="M 4161,21862 L 4161,21712"/>
 <path fill="none" stroke="rgb(179,179,179)" stroke-linejoin="round" d="M 4161,21862 L 4161,21712"/>
 <path fill="none" stroke="rgb(179,179,179)" stroke-linejoin="round" d="M 4266,21862 L 4266,21712"/>
 <path fill="none" stroke="rgb(179,179,179)" stroke-linejoin="round" d="M 4266,21862 L 4266,21712"/>
 <path fill="none" stroke="rgb(179,179,179)" stroke-linejoin="round" d="M 4371,21862 L 4371,21712"/>
 <path fill="none" stroke="rgb(179,179,179)" stroke-linejoin="round" d="M 4371,21862 L 4371,21712"/>
 <path fill="none" stroke="rgb(179,179,179)" stroke-linejoin="round" d="M 4476,21862 L 4476,21712"/>
 <path fill="none" stroke="rgb(179,179,179)" stroke-linejoin="round" d="M 4476,21862 L 4476,21712"/>
 <path fill="none" stroke="rgb(179,179,179)" stroke-linejoin="round" d="M 4581,21862 L 4581,21712"/>
 <path fill="none" stroke="rgb(179,179,179)" stroke-linejoin="round" d="M 4581,21862 L 4581,21712"/>
 <path fill="none" stroke="rgb(179,179,179)" stroke-linejoin="round" d="M 4686,21862 L 4686,21712"/>
 <path fill="none" stroke="rgb(179,179,179)" stroke-linejoin="round" d="M 4686,21862 L 4686,21712"/>
 <path fill="none" stroke="rgb(179,179,179)" stroke-linejoin="round" d="M 4791,21862 L 4791,21712"/>
 <path fill="none" stroke="rgb(179,179,179)" stroke-linejoin="round" d="M 4791,21862 L 4791,21712"/>
 <path fill="none" stroke="rgb(179,179,179)" stroke-linejoin="round" d="M 4896,21862 L 4896,21712"/>
 <path fill="none" stroke="rgb(179,179,179)" stroke-linejoin="round" d="M 4896,21862 L 4896,21712"/>
 <path fill="none" stroke="rgb(179,179,179)" stroke-linejoin="round" d="M 5001,21862 L 5001,21712"/>
 <path fill="none" stroke="rgb(179,179,179)" stroke-linejoin="round" d="M 5001,21862 L 5001,21712"/>
 <path fill="none" stroke="rgb(179,179,179)" stroke-linejoin="round" d="M 5107,21862 L 5107,21712"/>
 <path fill="none" stroke="rgb(179,179,179)" stroke-linejoin="round" d="M 5107,21862 L 5107,21712"/>
 <path fill="none" stroke="rgb(179,179,179)" stroke-linejoin="round" d="M 5212,21862 L 5212,21712"/>
 <path fill="none" stroke="rgb(179,179,179)" stroke-linejoin="round" d="M 5212,21862 L 5212,21712"/>
 <path fill="none" stroke="rgb(179,179,179)" stroke-linejoin="round" d="M 5317,21862 L 5317,21712"/>
 <path fill="none" stroke="rgb(179,179,179)" stroke-linejoin="round" d="M 5317,21862 L 5317,21712"/>
 <path fill="none" stroke="rgb(179,179,179)" stroke-linejoin="round" d="M 5422,21862 L 5422,21712"/>
 <path fill="none" stroke="rgb(179,179,179)" stroke-linejoin="round" d="M 5422,21862 L 5422,21712"/>
 <path fill="none" stroke="rgb(179,179,179)" stroke-linejoin="round" d="M 5527,21862 L 5527,21712"/>
 <path fill="none" stroke="rgb(179,179,179)" stroke-linejoin="round" d="M 5527,21862 L 5527,21712"/>
 <path fill="none" stroke="rgb(179,179,179)" stroke-linejoin="round" d="M 5632,21862 L 5632,21712"/>
 <path fill="none" stroke="rgb(179,179,179)" stroke-linejoin="round" d="M 5632,21862 L 5632,21712"/>
 <path fill="none" stroke="rgb(179,179,179)" stroke-linejoin="round" d="M 5737,21862 L 5737,21712"/>
 <path fill="none" stroke="rgb(179,179,179)" stroke-linejoin="round" d="M 5737,21862 L 5737,21712"/>
 <path fill="none" stroke="rgb(179,179,179)" stroke-linejoin="round" d="M 5842,21862 L 5842,21712"/>
 <path fill="none" stroke="rgb(179,179,179)" stroke-linejoin="round" d="M 5842,21862 L 5842,21712"/>
 <path fill="none" stroke="rgb(179,179,179)" stroke-linejoin="round" d="M 5947,21862 L 5947,21712"/>
 <path fill="none" stroke="rgb(179,179,179)" stroke-linejoin="round" d="M 5947,21862 L 5947,21712"/>
 <path fill="none" stroke="rgb(179,179,179)" stroke-linejoin="round" d="M 6052,21862 L 6052,21712"/>
 <path fill="none" stroke="rgb(179,179,179)" stroke-linejoin="round" d="M 6052,21862 L 6052,21712"/>
 <path fill="none" stroke="rgb(179,179,179)" stroke-linejoin="round" d="M 6157,21862 L 6157,21712"/>
 <path fill="none" stroke="rgb(179,179,179)" stroke-linejoin="round" d="M 6157,21862 L 6157,21712"/>
 <path fill="none" stroke="rgb(179,179,179)" stroke-linejoin="round" d="M 6262,21862 L 6262,21712"/>
 <path fill="none" stroke="rgb(179,179,179)" stroke-linejoin="round" d="M 6262,21862 L 6262,21712"/>
 <path fill="none" stroke="rgb(179,179,179)" stroke-linejoin="round" d="M 6367,21862 L 6367,21712"/>
 <path fill="none" stroke="rgb(179,179,179)" stroke-linejoin="round" d="M 6367,21862 L 6367,21712"/>
 <path fill="none" stroke="rgb(179,179,179)" stroke-linejoin="round" d="M 6472,21862 L 6472,21712"/>
 <path fill="none" stroke="rgb(179,179,179)" stroke-linejoin="round" d="M 6472,21862 L 6472,21712"/>
 <path fill="none" stroke="rgb(179,179,179)" stroke-linejoin="round" d="M 6577,21862 L 6577,21712"/>
 <path fill="none" stroke="rgb(179,179,179)" stroke-linejoin="round" d="M 6577,21862 L 6577,21712"/>
 <path fill="none" stroke="rgb(179,179,179)" stroke-linejoin="round" d="M 6682,21862 L 6682,21712"/>
 <path fill="none" stroke="rgb(179,179,179)" stroke-linejoin="round" d="M 6682,21862 L 6682,21712"/>
 <path fill="none" stroke="rgb(179,179,179)" stroke-linejoin="round" d="M 6787,21862 L 6787,21712"/>
 <path fill="none" stroke="rgb(179,179,179)" stroke-linejoin="round" d="M 6787,21862 L 6787,21712"/>
 <path fill="none" stroke="rgb(179,179,179)" stroke-linejoin="round" d="M 6892,21862 L 6892,21712"/>
 <path fill="none" stroke="rgb(179,179,179)" stroke-linejoin="round" d="M 6892,21862 L 6892,21712"/>
 <path fill="none" stroke="rgb(179,179,179)" stroke-linejoin="round" d="M 6998,21862 L 6998,21712"/>
 <path fill="none" stroke="rgb(179,179,179)" stroke-linejoin="round" d="M 6998,21862 L 6998,21712"/>
 <path fill="none" stroke="rgb(179,179,179)" stroke-linejoin="round" d="M 7103,21862 L 7103,21712"/>
 <path fill="none" stroke="rgb(179,179,179)" stroke-linejoin="round" d="M 7103,21862 L 7103,21712"/>
 <path fill="none" stroke="rgb(179,179,179)" stroke-linejoin="round" d="M 7208,21862 L 7208,21712"/>
 <path fill="none" stroke="rgb(179,179,179)" stroke-linejoin="round" d="M 7208,21862 L 7208,21712"/>
 <path fill="none" stroke="rgb(179,179,179)" stroke-linejoin="round" d="M 7313,21862 L 7313,21712"/>
 <path fill="none" stroke="rgb(179,179,179)" stroke-linejoin="round" d="M 7313,21862 L 7313,21712"/>
 <path fill="none" stroke="rgb(179,179,179)" stroke-linejoin="round" d="M 7418,21862 L 7418,21712"/>
 <path fill="none" stroke="rgb(179,179,179)" stroke-linejoin="round" d="M 7418,21862 L 7418,21712"/>
 <path fill="none" stroke="rgb(179,179,179)" stroke-linejoin="round" d="M 7523,21862 L 7523,21712"/>
 <path fill="none" stroke="rgb(179,179,179)" stroke-linejoin="round" d="M 7523,21862 L 7523,21712"/>
 <path fill="none" stroke="rgb(179,179,179)" stroke-linejoin="round" d="M 7628,21862 L 7628,21712"/>
 <path fill="none" stroke="rgb(179,179,179)" stroke-linejoin="round" d="M 7628,21862 L 7628,21712"/>
 <path fill="none" stroke="rgb(179,179,179)" stroke-linejoin="round" d="M 7733,21862 L 7733,21712"/>
 <path fill="none" stroke="rgb(179,179,179)" stroke-linejoin="round" d="M 7733,21862 L 7733,21712"/>
 <path fill="none" stroke="rgb(179,179,179)" stroke-linejoin="round" d="M 7838,21862 L 7838,21712"/>
 <path fill="none" stroke="rgb(179,179,179)" stroke-linejoin="round" d="M 7838,21862 L 7838,21712"/>
 <path fill="none" stroke="rgb(179,179,179)" stroke-linejoin="round" d="M 7943,21862 L 7943,21712"/>
 <path fill="none" stroke="rgb(179,179,179)" stroke-linejoin="round" d="M 7943,21862 L 7943,21712"/>
 <path fill="none" stroke="rgb(179,179,179)" stroke-linejoin="round" d="M 8048,21862 L 8048,21712"/>
 <path fill="none" stroke="rgb(179,179,179)" stroke-linejoin="round" d="M 8048,21862 L 8048,21712"/>
 <path fill="none" stroke="rgb(179,179,179)" stroke-linejoin="round" d="M 8153,21862 L 8153,21712"/>
 <path fill="none" stroke="rgb(179,179,179)" stroke-linejoin="round" d="M 8153,21862 L 8153,21712"/>
 <path fill="none" stroke="rgb(179,179,179)" stroke-linejoin="round" d="M 8258,21862 L 8258,21712"/>
 <path fill="none" stroke="rgb(179,179,179)" stroke-linejoin="round" d="M 8258,21862 L 8258,21712"/>
 <path fill="none" stroke="rgb(179,179,179)" stroke-linejoin="round" d="M 8363,21862 L 8363,21712"/>
 <path fill="none" stroke="rgb(179,179,179)" stroke-linejoin="round" d="M 8363,21862 L 8363,21712"/>
 <path fill="none" stroke="rgb(179,179,179)" stroke-linejoin="round" d="M 8468,21862 L 8468,21712"/>
 <path fill="none" stroke="rgb(179,179,179)" stroke-linejoin="round" d="M 8468,21862 L 8468,21712"/>
 <path fill="none" stroke="rgb(179,179,179)" stroke-linejoin="round" d="M 8573,21862 L 8573,21712"/>
 <path fill="none" stroke="rgb(179,179,179)" stroke-linejoin="round" d="M 8573,21862 L 8573,21712"/>
 <path fill="none" stroke="rgb(179,179,179)" stroke-linejoin="round" d="M 8678,21862 L 8678,21712"/>
 <path fill="none" stroke="rgb(179,179,179)" stroke-linejoin="round" d="M 8678,21862 L 8678,21712"/>
 <path fill="none" stroke="rgb(179,179,179)" stroke-linejoin="round" d="M 8783,21862 L 8783,21712"/>
 <path fill="none" stroke="rgb(179,179,179)" stroke-linejoin="round" d="M 8783,21862 L 8783,21712"/>
 <path fill="none" stroke="rgb(179,179,179)" stroke-linejoin="round" d="M 8889,21862 L 8889,21712"/>
 <path fill="none" stroke="rgb(179,179,179)" stroke-linejoin="round" d="M 8889,21862 L 8889,21712"/>
 <path fill="none" stroke="rgb(179,179,179)" stroke-linejoin="round" d="M 8994,21862 L 8994,21712"/>
 <path fill="none" stroke="rgb(179,179,179)" stroke-linejoin="round" d="M 8994,21862 L 8994,21712"/>
 <path fill="none" stroke="rgb(179,179,179)" stroke-linejoin="round" d="M 9099,21862 L 9099,21712"/>
 <path fill="none" stroke="rgb(179,179,179)" stroke-linejoin="round" d="M 9099,21862 L 9099,21712"/>
 <path fill="none" stroke="rgb(179,179,179)" stroke-linejoin="round" d="M 9204,21862 L 9204,21712"/>
 <path fill="none" stroke="rgb(179,179,179)" stroke-linejoin="round" d="M 9204,21862 L 9204,21712"/>
 <path fill="none" stroke="rgb(179,179,179)" stroke-linejoin="round" d="M 9309,21862 L 9309,21712"/>
 <path fill="none" stroke="rgb(179,179,179)" stroke-linejoin="round" d="M 9309,21862 L 9309,21712"/>
 <path fill="none" stroke="rgb(179,179,179)" stroke-linejoin="round" d="M 9414,21862 L 9414,21712"/>
 <path fill="none" stroke="rgb(179,179,179)" stroke-linejoin="round" d="M 9414,21862 L 9414,21712"/>
 <path fill="none" stroke="rgb(179,179,179)" stroke-linejoin="round" d="M 9519,21862 L 9519,21712"/>
 <path fill="none" stroke="rgb(179,179,179)" stroke-linejoin="round" d="M 9519,21862 L 9519,21712"/>
 <path fill="none" stroke="rgb(179,179,179)" stroke-linejoin="round" d="M 9624,21862 L 9624,21712"/>
 <path fill="none" stroke="rgb(179,179,179)" stroke-linejoin="round" d="M 9624,21862 L 9624,21712"/>
 <path fill="none" stroke="rgb(179,179,179)" stroke-linejoin="round" d="M 9729,21862 L 9729,21712"/>
 <path fill="none" stroke="rgb(179,179,179)" stroke-linejoin="round" d="M 9729,21862 L 9729,21712"/>
 <path fill="none" stroke="rgb(179,179,179)" stroke-linejoin="round" d="M 9834,21862 L 9834,21712"/>
 <path fill="none" stroke="rgb(179,179,179)" stroke-linejoin="round" d="M 9834,21862 L 9834,21712"/>
 <path fill="none" stroke="rgb(179,179,179)" stroke-linejoin="round" d="M 9939,21862 L 9939,21712"/>
 <path fill="none" stroke="rgb(179,179,179)" stroke-linejoin="round" d="M 9939,21862 L 9939,21712"/>
 <path fill="none" stroke="rgb(179,179,179)" stroke-linejoin="round" d="M 10044,21862 L 10044,21712"/>
 <path fill="none" stroke="rgb(179,179,179)" stroke-linejoin="round" d="M 10044,21862 L 10044,21712"/>
 <path fill="none" stroke="rgb(179,179,179)" stroke-linejoin="round" d="M 10149,21862 L 10149,21712"/>
 <path fill="none" stroke="rgb(179,179,179)" stroke-linejoin="round" d="M 10149,21862 L 10149,21712"/>
 <path fill="none" stroke="rgb(179,179,179)" stroke-linejoin="round" d="M 10254,21862 L 10254,21712"/>
 <path fill="none" stroke="rgb(179,179,179)" stroke-linejoin="round" d="M 10254,21862 L 10254,21712"/>
 <path fill="none" stroke="rgb(179,179,179)" stroke-linejoin="round" d="M 10359,21862 L 10359,21712"/>
 <path fill="none" stroke="rgb(179,179,179)" stroke-linejoin="round" d="M 10359,21862 L 10359,21712"/>
 <path fill="none" stroke="rgb(179,179,179)" stroke-linejoin="round" d="M 10464,21862 L 10464,21712"/>
 <path fill="none" stroke="rgb(179,179,179)" stroke-linejoin="round" d="M 10464,21862 L 10464,21712"/>
 <path fill="none" stroke="rgb(179,179,179)" stroke-linejoin="round" d="M 10569,21862 L 10569,21712"/>
 <path fill="none" stroke="rgb(179,179,179)" stroke-linejoin="round" d="M 10569,21862 L 10569,21712"/>
 <path fill="none" stroke="rgb(179,179,179)" stroke-linejoin="round" d="M 10674,21862 L 10674,21712"/>
 <path fill="none" stroke="rgb(179,179,179)" stroke-linejoin="round" d="M 10674,21862 L 10674,21712"/>
 <path fill="none" stroke="rgb(179,179,179)" stroke-linejoin="round" d="M 10779,21862 L 10779,21712"/>
 <path fill="none" stroke="rgb(179,179,179)" stroke-linejoin="round" d="M 10779,21862 L 10779,21712"/>
 <path fill="none" stroke="rgb(179,179,179)" stroke-linejoin="round" d="M 10885,21862 L 10885,21712"/>
 <path fill="none" stroke="rgb(179,179,179)" stroke-linejoin="round" d="M 10885,21862 L 10885,21712"/>
 <path fill="none" stroke="rgb(179,179,179)" stroke-linejoin="round" d="M 10990,21862 L 10990,21712"/>
 <path fill="none" stroke="rgb(179,179,179)" stroke-linejoin="round" d="M 10990,21862 L 10990,21712"/>
 <path fill="none" stroke="rgb(179,179,179)" stroke-linejoin="round" d="M 11095,21862 L 11095,21712"/>
 <path fill="none" stroke="rgb(179,179,179)" stroke-linejoin="round" d="M 11095,21862 L 11095,21712"/>
 <path fill="none" stroke="rgb(179,179,179)" stroke-linejoin="round" d="M 11200,21862 L 11200,21712"/>
 <path fill="none" stroke="rgb(179,179,179)" stroke-linejoin="round" d="M 11200,21862 L 11200,21712"/>
 <path fill="none" stroke="rgb(179,179,179)" stroke-linejoin="round" d="M 11305,21862 L 11305,21712"/>
 <path fill="none" stroke="rgb(179,179,179)" stroke-linejoin="round" d="M 11305,21862 L 11305,21712"/>
 <path fill="none" stroke="rgb(179,179,179)" stroke-linejoin="round" d="M 11410,21862 L 11410,21712"/>
 <path fill="none" stroke="rgb(179,179,179)" stroke-linejoin="round" d="M 11410,21862 L 11410,21712"/>
 <path fill="none" stroke="rgb(179,179,179)" stroke-linejoin="round" d="M 11515,21862 L 11515,21712"/>
 <path fill="none" stroke="rgb(179,179,179)" stroke-linejoin="round" d="M 11515,21862 L 11515,21712"/>
 <path fill="none" stroke="rgb(179,179,179)" stroke-linejoin="round" d="M 11620,21862 L 11620,21712"/>
 <path fill="none" stroke="rgb(179,179,179)" stroke-linejoin="round" d="M 11620,21862 L 11620,21712"/>
 <path fill="none" stroke="rgb(179,179,179)" stroke-linejoin="round" d="M 11725,21862 L 11725,21712"/>
 <path fill="none" stroke="rgb(179,179,179)" stroke-linejoin="round" d="M 11725,21862 L 11725,21712"/>
 <path fill="none" stroke="rgb(179,179,179)" stroke-linejoin="round" d="M 11829,21862 L 11829,21712"/>
 <path fill="none" stroke="rgb(179,179,179)" stroke-linejoin="round" d="M 11829,21862 L 11829,21712"/>
 <path fill="none" stroke="rgb(179,179,179)" stroke-linejoin="round" d="M 11934,21862 L 11934,21712"/>
 <path fill="none" stroke="rgb(179,179,179)" stroke-linejoin="round" d="M 11934,21862 L 11934,21712"/>
 <path fill="none" stroke="rgb(179,179,179)" stroke-linejoin="round" d="M 12039,21862 L 12039,21712"/>
 <path fill="none" stroke="rgb(179,179,179)" stroke-linejoin="round" d="M 12039,21862 L 12039,21712"/>
 <path fill="none" stroke="rgb(179,179,179)" stroke-linejoin="round" d="M 12144,21862 L 12144,21712"/>
 <path fill="none" stroke="rgb(179,179,179)" stroke-linejoin="round" d="M 12144,21862 L 12144,21712"/>
 <path fill="none" stroke="rgb(179,179,179)" stroke-linejoin="round" d="M 12249,21862 L 12249,21712"/>
 <path fill="none" stroke="rgb(179,179,179)" stroke-linejoin="round" d="M 12249,21862 L 12249,21712"/>
 <path fill="none" stroke="rgb(179,179,179)" stroke-linejoin="round" d="M 12354,21862 L 12354,21712"/>
 <path fill="none" stroke="rgb(179,179,179)" stroke-linejoin="round" d="M 12354,21862 L 12354,21712"/>
 <path fill="none" stroke="rgb(179,179,179)" stroke-linejoin="round" d="M 12459,21862 L 12459,21712"/>
 <path fill="none" stroke="rgb(179,179,179)" stroke-linejoin="round" d="M 12459,21862 L 12459,21712"/>
 <path fill="none" stroke="rgb(179,179,179)" stroke-linejoin="round" d="M 12564,21862 L 12564,21712"/>
 <path fill="none" stroke="rgb(179,179,179)" stroke-linejoin="round" d="M 12564,21862 L 12564,21712"/>
 <path fill="none" stroke="rgb(179,179,179)" stroke-linejoin="round" d="M 12669,21862 L 12669,21712"/>
 <path fill="none" stroke="rgb(179,179,179)" stroke-linejoin="round" d="M 12669,21862 L 12669,21712"/>
 <path fill="none" stroke="rgb(179,179,179)" stroke-linejoin="round" d="M 12775,21862 L 12775,21712"/>
 <path fill="none" stroke="rgb(179,179,179)" stroke-linejoin="round" d="M 12775,21862 L 12775,21712"/>
 <path fill="none" stroke="rgb(179,179,179)" stroke-linejoin="round" d="M 12880,21862 L 12880,21712"/>
 <path fill="none" stroke="rgb(179,179,179)" stroke-linejoin="round" d="M 12880,21862 L 12880,21712"/>
 <path fill="none" stroke="rgb(179,179,179)" stroke-linejoin="round" d="M 12985,21862 L 12985,21712"/>
 <path fill="none" stroke="rgb(179,179,179)" stroke-linejoin="round" d="M 12985,21862 L 12985,21712"/>
 <path fill="none" stroke="rgb(179,179,179)" stroke-linejoin="round" d="M 13090,21862 L 13090,21712"/>
 <path fill="none" stroke="rgb(179,179,179)" stroke-linejoin="round" d="M 13090,21862 L 13090,21712"/>
 <path fill="none" stroke="rgb(179,179,179)" stroke-linejoin="round" d="M 13195,21862 L 13195,21712"/>
 <path fill="none" stroke="rgb(179,179,179)" stroke-linejoin="round" d="M 13195,21862 L 13195,21712"/>
 <path fill="none" stroke="rgb(179,179,179)" stroke-linejoin="round" d="M 13300,21862 L 13300,21712"/>
 <path fill="none" stroke="rgb(179,179,179)" stroke-linejoin="round" d="M 13300,21862 L 13300,21712"/>
 <path fill="none" stroke="rgb(179,179,179)" stroke-linejoin="round" d="M 13405,21862 L 13405,21712"/>
 <path fill="none" stroke="rgb(179,179,179)" stroke-linejoin="round" d="M 13405,21862 L 13405,21712"/>
 <path fill="none" stroke="rgb(179,179,179)" stroke-linejoin="round" d="M 13510,21862 L 13510,21712"/>
 <path fill="none" stroke="rgb(179,179,179)" stroke-linejoin="round" d="M 13510,21862 L 13510,21712"/>
 <path fill="none" stroke="rgb(179,179,179)" stroke-linejoin="round" d="M 13615,21862 L 13615,21712"/>
 <path fill="none" stroke="rgb(179,179,179)" stroke-linejoin="round" d="M 13615,21862 L 13615,21712"/>
 <path fill="none" stroke="rgb(179,179,179)" stroke-linejoin="round" d="M 13720,21862 L 13720,21712"/>
 <path fill="none" stroke="rgb(179,179,179)" stroke-linejoin="round" d="M 13720,21862 L 13720,21712"/>
 <path fill="none" stroke="rgb(179,179,179)" stroke-linejoin="round" d="M 13825,21862 L 13825,21712"/>
 <path fill="none" stroke="rgb(179,179,179)" stroke-linejoin="round" d="M 13825,21862 L 13825,21712"/>
 <path fill="none" stroke="rgb(179,179,179)" stroke-linejoin="round" d="M 13930,21862 L 13930,21712"/>
 <path fill="none" stroke="rgb(179,179,179)" stroke-linejoin="round" d="M 13930,21862 L 13930,21712"/>
 <path fill="none" stroke="rgb(179,179,179)" stroke-linejoin="round" d="M 14035,21862 L 14035,21712"/>
 <path fill="none" stroke="rgb(179,179,179)" stroke-linejoin="round" d="M 14035,21862 L 14035,21712"/>
 <path fill="none" stroke="rgb(179,179,179)" stroke-linejoin="round" d="M 14140,21862 L 14140,21712"/>
 <path fill="none" stroke="rgb(179,179,179)" stroke-linejoin="round" d="M 14140,21862 L 14140,21712"/>
 <path fill="none" stroke="rgb(179,179,179)" stroke-linejoin="round" d="M 14245,21862 L 14245,21712"/>
 <path fill="none" stroke="rgb(179,179,179)" stroke-linejoin="round" d="M 14245,21862 L 14245,21712"/>
 <path fill="none" stroke="rgb(179,179,179)" stroke-linejoin="round" d="M 14350,21862 L 14350,21712"/>
 <path fill="none" stroke="rgb(179,179,179)" stroke-linejoin="round" d="M 14350,21862 L 14350,21712"/>
 <path fill="none" stroke="rgb(179,179,179)" stroke-linejoin="round" d="M 14455,21862 L 14455,21712"/>
 <path fill="none" stroke="rgb(179,179,179)" stroke-linejoin="round" d="M 14455,21862 L 14455,21712"/>
 <path fill="none" stroke="rgb(179,179,179)" stroke-linejoin="round" d="M 14560,21862 L 14560,21712"/>
 <path fill="none" stroke="rgb(179,179,179)" stroke-linejoin="round" d="M 14560,21862 L 14560,21712"/>
 <path fill="none" stroke="rgb(179,179,179)" stroke-linejoin="round" d="M 14666,21862 L 14666,21712"/>
 <path fill="none" stroke="rgb(179,179,179)" stroke-linejoin="round" d="M 14666,21862 L 14666,21712"/>
 <path fill="none" stroke="rgb(179,179,179)" stroke-linejoin="round" d="M 14771,21862 L 14771,21712"/>
 <path fill="none" stroke="rgb(179,179,179)" stroke-linejoin="round" d="M 14771,21862 L 14771,21712"/>
 <path fill="none" stroke="rgb(179,179,179)" stroke-linejoin="round" d="M 14876,21862 L 14876,21712"/>
 <path fill="none" stroke="rgb(179,179,179)" stroke-linejoin="round" d="M 14876,21862 L 14876,21712"/>
 <path fill="none" stroke="rgb(179,179,179)" stroke-linejoin="round" d="M 14981,21862 L 14981,21712"/>
 <path fill="none" stroke="rgb(179,179,179)" stroke-linejoin="round" d="M 14981,21862 L 14981,21712"/>
 <path fill="none" stroke="rgb(179,179,179)" stroke-linejoin="round" d="M 15086,21862 L 15086,21712"/>
 <path fill="none" stroke="rgb(179,179,179)" stroke-linejoin="round" d="M 15086,21862 L 15086,21712"/>
 <path fill="none" stroke="rgb(179,179,179)" stroke-linejoin="round" d="M 15191,21862 L 15191,21712"/>
 <path fill="none" stroke="rgb(179,179,179)" stroke-linejoin="round" d="M 15191,21862 L 15191,21712"/>
 <path fill="none" stroke="rgb(179,179,179)" stroke-linejoin="round" d="M 15296,21862 L 15296,21712"/>
 <path fill="none" stroke="rgb(179,179,179)" stroke-linejoin="round" d="M 15296,21862 L 15296,21712"/>
 <path fill="none" stroke="rgb(179,179,179)" stroke-linejoin="round" d="M 15401,21862 L 15401,21712"/>
 <path fill="none" stroke="rgb(179,179,179)" stroke-linejoin="round" d="M 15401,21862 L 15401,21712"/>
 <path fill="none" stroke="rgb(179,179,179)" stroke-linejoin="round" d="M 15506,21862 L 15506,21712"/>
 <path fill="none" stroke="rgb(179,179,179)" stroke-linejoin="round" d="M 15506,21862 L 15506,21712"/>
 <path fill="none" stroke="rgb(179,179,179)" stroke-linejoin="round" d="M 15611,21862 L 15611,21712"/>
 <path fill="none" stroke="rgb(179,179,179)" stroke-linejoin="round" d="M 15611,21862 L 15611,21712"/>
 <path fill="none" stroke="rgb(179,179,179)" stroke-linejoin="round" d="M 15716,21862 L 15716,21712"/>
 <path fill="none" stroke="rgb(179,179,179)" stroke-linejoin="round" d="M 15716,21862 L 15716,21712"/>
 <path fill="none" stroke="rgb(179,179,179)" stroke-linejoin="round" d="M 15821,21862 L 15821,21712"/>
 <path fill="none" stroke="rgb(179,179,179)" stroke-linejoin="round" d="M 15821,21862 L 15821,21712"/>
 <path fill="none" stroke="rgb(179,179,179)" stroke-linejoin="round" d="M 15926,21862 L 15926,21712"/>
 <path fill="none" stroke="rgb(179,179,179)" stroke-linejoin="round" d="M 15926,21862 L 15926,21712"/>
 <path fill="none" stroke="rgb(179,179,179)" stroke-linejoin="round" d="M 16031,21862 L 16031,21712"/>
 <path fill="none" stroke="rgb(179,179,179)" stroke-linejoin="round" d="M 16031,21862 L 16031,21712"/>
 <path fill="none" stroke="rgb(179,179,179)" stroke-linejoin="round" d="M 16136,21862 L 16136,21712"/>
 <path fill="none" stroke="rgb(179,179,179)" stroke-linejoin="round" d="M 16136,21862 L 16136,21712"/>
 <path fill="none" stroke="rgb(179,179,179)" stroke-linejoin="round" d="M 16241,21862 L 16241,21712"/>
 <path fill="none" stroke="rgb(179,179,179)" stroke-linejoin="round" d="M 16241,21862 L 16241,21712"/>
 <path fill="none" stroke="rgb(179,179,179)" stroke-linejoin="round" d="M 16346,21862 L 16346,21712"/>
 <path fill="none" stroke="rgb(179,179,179)" stroke-linejoin="round" d="M 16346,21862 L 16346,21712"/>
 <path fill="none" stroke="rgb(179,179,179)" stroke-linejoin="round" d="M 16451,21862 L 16451,21712"/>
 <path fill="none" stroke="rgb(179,179,179)" stroke-linejoin="round" d="M 16451,21862 L 16451,21712"/>
 <path fill="none" stroke="rgb(179,179,179)" stroke-linejoin="round" d="M 16557,21862 L 16557,21712"/>
 <path fill="none" stroke="rgb(179,179,179)" stroke-linejoin="round" d="M 16557,21862 L 16557,21712"/>
 <path fill="none" stroke="rgb(179,179,179)" stroke-linejoin="round" d="M 16662,21862 L 16662,21712"/>
 <path fill="none" stroke="rgb(179,179,179)" stroke-linejoin="round" d="M 16662,21862 L 16662,21712"/>
 <path fill="none" stroke="rgb(179,179,179)" stroke-linejoin="round" d="M 16767,21862 L 16767,21712"/>
 <path fill="none" stroke="rgb(179,179,179)" stroke-linejoin="round" d="M 16767,21862 L 16767,21712"/>
 <path fill="none" stroke="rgb(179,179,179)" stroke-linejoin="round" d="M 16872,21862 L 16872,21712"/>
 <path fill="none" stroke="rgb(179,179,179)" stroke-linejoin="round" d="M 16872,21862 L 16872,21712"/>
 <path fill="none" stroke="rgb(179,179,179)" stroke-linejoin="round" d="M 16977,21862 L 16977,21712"/>
 <path fill="none" stroke="rgb(179,179,179)" stroke-linejoin="round" d="M 16977,21862 L 16977,21712"/>
 <path fill="none" stroke="rgb(179,179,179)" stroke-linejoin="round" d="M 17082,21862 L 17082,21712"/>
 <path fill="none" stroke="rgb(179,179,179)" stroke-linejoin="round" d="M 17082,21862 L 17082,21712"/>
 <path fill="none" stroke="rgb(179,179,179)" stroke-linejoin="round" d="M 17187,21862 L 17187,21712"/>
 <path fill="none" stroke="rgb(179,179,179)" stroke-linejoin="round" d="M 17187,21862 L 17187,21712"/>
 <path fill="none" stroke="rgb(179,179,179)" stroke-linejoin="round" d="M 17292,21862 L 17292,21712"/>
 <path fill="none" stroke="rgb(179,179,179)" stroke-linejoin="round" d="M 17292,21862 L 17292,21712"/>
 <path fill="none" stroke="rgb(179,179,179)" stroke-linejoin="round" d="M 17397,21862 L 17397,21712"/>
 <path fill="none" stroke="rgb(179,179,179)" stroke-linejoin="round" d="M 17397,21862 L 17397,21712"/>
 <path fill="none" stroke="rgb(179,179,179)" stroke-linejoin="round" d="M 17502,21862 L 17502,21712"/>
 <path fill="none" stroke="rgb(179,179,179)" stroke-linejoin="round" d="M 17502,21862 L 17502,21712"/>
 <path fill="none" stroke="rgb(179,179,179)" stroke-linejoin="round" d="M 17607,21862 L 17607,21712"/>
 <path fill="none" stroke="rgb(179,179,179)" stroke-linejoin="round" d="M 17607,21862 L 17607,21712"/>
 <path fill="none" stroke="rgb(179,179,179)" stroke-linejoin="round" d="M 17712,21862 L 17712,21712"/>
 <path fill="none" stroke="rgb(179,179,179)" stroke-linejoin="round" d="M 17712,21862 L 17712,21712"/>
 <path fill="none" stroke="rgb(179,179,179)" stroke-linejoin="round" d="M 17817,21862 L 17817,21712"/>
 <path fill="none" stroke="rgb(179,179,179)" stroke-linejoin="round" d="M 17817,21862 L 17817,21712"/>
 <path fill="none" stroke="rgb(179,179,179)" stroke-linejoin="round" d="M 17922,21862 L 17922,21712"/>
 <path fill="none" stroke="rgb(179,179,179)" stroke-linejoin="round" d="M 17922,21862 L 17922,21712"/>
 <path fill="none" stroke="rgb(179,179,179)" stroke-linejoin="round" d="M 18027,21862 L 18027,21712"/>
 <path fill="none" stroke="rgb(179,179,179)" stroke-linejoin="round" d="M 18027,21862 L 18027,21712"/>
 <path fill="none" stroke="rgb(179,179,179)" stroke-linejoin="round" d="M 18132,21862 L 18132,21712"/>
 <path fill="none" stroke="rgb(179,179,179)" stroke-linejoin="round" d="M 18132,21862 L 18132,21712"/>
 <path fill="none" stroke="rgb(179,179,179)" stroke-linejoin="round" d="M 18237,21862 L 18237,21712"/>
 <path fill="none" stroke="rgb(179,179,179)" stroke-linejoin="round" d="M 18237,21862 L 18237,21712"/>
 <path fill="none" stroke="rgb(179,179,179)" stroke-linejoin="round" d="M 18342,21862 L 18342,21712"/>
 <path fill="none" stroke="rgb(179,179,179)" stroke-linejoin="round" d="M 18342,21862 L 18342,21712"/>
 <path fill="none" stroke="rgb(179,179,179)" stroke-linejoin="round" d="M 18448,21862 L 18448,21712"/>
 <path fill="none" stroke="rgb(179,179,179)" stroke-linejoin="round" d="M 18448,21862 L 18448,21712"/>
 <path fill="none" stroke="rgb(179,179,179)" stroke-linejoin="round" d="M 1220,21712 L 18448,21712"/>
 <path fill="none" stroke="rgb(179,179,179)" stroke-linejoin="round" d="M 1070,21712 L 1220,21712"/>
 <path fill="none" stroke="rgb(179,179,179)" stroke-linejoin="round" d="M 1070,21712 L 1220,21712"/>
 <path fill="none" stroke="rgb(179,179,179)" stroke-linejoin="round" d="M 1070,17711 L 1220,17711"/>
 <path fill="none" stroke="rgb(179,179,179)" stroke-linejoin="round" d="M 1070,17711 L 1220,17711"/>
 <path fill="none" stroke="rgb(179,179,179)" stroke-linejoin="round" d="M 1070,13711 L 1220,13711"/>
 <path fill="none" stroke="rgb(179,179,179)" stroke-linejoin="round" d="M 1070,13711 L 1220,13711"/>
 <path fill="none" stroke="rgb(179,179,179)" stroke-linejoin="round" d="M 1070,9711 L 1220,9711"/>
 <path fill="none" stroke="rgb(179,179,179)" stroke-linejoin="round" d="M 1070,9711 L 1220,9711"/>
 <path fill="none" stroke="rgb(179,179,179)" stroke-linejoin="round" d="M 1070,5711 L 1220,5711"/>
 <path fill="none" stroke="rgb(179,179,179)" stroke-linejoin="round" d="M 1070,5711 L 1220,5711"/>
 <path fill="none" stroke="rgb(179,179,179)" stroke-linejoin="round" d="M 1070,1711 L 1220,1711"/>
 <path fill="none" stroke="rgb(179,179,179)" stroke-linejoin="round" d="M 1070,1711 L 1220,1711"/>
 <path fill="none" stroke="rgb(179,179,179)" stroke-linejoin="round" d="M 1220,21712 L 1220,1711"/>
 <path fill="none" stroke="rgb(255,128,0)" stroke-width="80" stroke-linejoin="round" d="M 1272,13429 L 1377,3298 1482,2363 1555,1711"/>
 <path fill="none" stroke="rgb(255,128,0)" stroke-width="80" stroke-linejoin="round" d="M 1605,1711 L 1692,3163 1766,1711"/>
 <path fill="none" stroke="rgb(0,169,51)" stroke-width="80" stroke-linejoin="round" stroke-dasharray="80,40" d="M 1272,21712 L 1377,21712 1482,21712 1587,21712 1692,21712 1797,21712 1902,11954 2007,6617 2112,11954 2218,8808 2323,8152 2428,9516 2533,9889 2638,8962 2743,6521 2848,4272 2953,1957 2960,1711"/>
 <path fill="none" stroke="rgb(0,169,51)" stroke-width="80" stroke-linejoin="round" stroke-dasharray="80,40" d="M 3158,1711 L 3163,1881 3185,1711"/>
 <path fill="none" stroke="rgb(112,110,12)" stroke-width="80" stroke-linejoin="round" stroke-dasharray="80,40" d="M 1272,14164 L 1377,7627 1426,1711"/>
 <path fill="none" stroke="rgb(85,48,141)" stroke-width="80" stroke-linejoin="round" stroke-dasharray="80,40" d="M 1272,15461 L 1377,16516 1482,16648 1587,6896 1692,4617 1797,5131 1902,3529 2007,2663 2112,3397 2218,4138 2323,6490 2428,8711 2533,8986 2638,9808 2743,7007 2848,10026 2953,12535 3058,11868 3163,11716 3268,12398 3373,11740 3478,10310 3583,9924 3688,9562 3793,7527 3898,8418 4003,8621 4109,6208 4214,7570 4319,5917 4424,5731 4529,5390 4634,4261 4739,3432 4793,1711"/>
 <path fill="none" stroke="rgb(241,13,12)" stroke-width="80" stroke-linejoin="round" d="M 1272,19741 L 1377,18485 1482,18331 1587,16911 1692,17037 1797,16797 1902,17132 2007,15449 2112,14458 2218,14652 2323,13892 2428,11705 2533,6580 2638,4241 2700,1711"/>
 <path fill="none" stroke="rgb(241,13,12)" stroke-width="80" stroke-linejoin="round" d="M 2891,1711 L 2953,2463 2973,1711"/>
 <path fill="none" stroke="rgb(0,169,51)" stroke-width="80" stroke-linejoin="round" stroke-dasharray="158,102" d="M 11787,1711 L 11882,1732 11987,1750 12092,1745 12192,1711"/>
 <path fill="none" stroke="rgb(0,169,51)" stroke-width="80" stroke-linejoin="round" stroke-dasharray="158,102" d="M 12206,1711 L 12302,1727 12407,1734 12466,1711"/>
 <path fill="none" stroke="rgb(129,212,26)" stroke-width="80" stroke-linejoin="round" d="M 1272,8655 L 1377,7807 1482,10306 1587,13122 1692,5146 1797,11878 1902,9644 2007,11893 2112,8075 2218,7193 2323,5859 2428,9736 2533,10151 2638,10092 2743,9348 2848,9704 2953,9562 3058,8533 3163,7047 3268,6612 3373,6479 3478,5769 3583,4979 3688,4487 3793,4489 3898,4268 4003,3451 4109,3218 4214,2715 4319,2576 4424,1830 4529,2157 4634,2185 4709,1711"/>
 <path fill="none" stroke="rgb(52,42,6)" stroke-width="80" stroke-linejoin="round" d="M 1272,19019 L 1377,18650 1482,18691 1587,18147 1692,17091 1797,18664 1902,17873 2007,17086 2112,17091 2218,17649 2323,17720 2428,17612 2533,17560 2638,16903 2743,16211 2848,15750 2953,15248 3058,14798 3163,14655 3268,14477 3373,14036 3478,13497 3583,13075 3688,12887 3793,12413 3898,12200 4003,11404 4109,10859 4214,10657 4319,11125 4424,10484 4529,10435 4634,10562 4739,9257 4844,8735 4949,8096 5054,7999 5159,7746 5264,7279 5369,7091 5474,6777 5579,6154 5684,5841 5789,5726 5894,5591 5999,5445 6105,5218 6210,5022 6315,4784 6420,4633 6525,4548 6630,4536 6735,4395 6840,4551 6945,3975 7050,3787 7155,3578 7260,3537 7365,3582 7470,3488 7575,3442 7680,3278 7785,3303 7890,3333 7996,3312 8101,3320 8206,3323 8311,3185 8416,3121 8521,3041 8626,3050 8731,2994 8836,3074 8941,3088 9046,3004 9151,2952 9256,2887 9361,2847 9466,2818 9571,2859 9676,2859 9781,2911 9887,2900 9992,2856 10097,2828 10202,2815 10307,2818 10412,2821 10517,2768 10622,2780 10727,2790 10832,2797 10937,2812 11042,2835 11147,2824 11252,2813 11357,2801 11462,2754 11567,2753 11672,2753 11778,2810 11882,2837 11987,2926 12092,2944 12197,2956 12302,2962 12407,3005 12512,3074 12617,3095 12722,3114 12827,3168 12932,3185 13037,3199 13142,3212 13247,3242 13352,3288 13457,3313 13562,3323 13668,3339 13773,3357 13878,3393 13983,3417 14088,3444 14193,3464 14298,3490 14403,3510 14508,3527 14613,3545 14718,3568 14823,3603 14928,3644 15033,3691 15138,3709 15243,3717 15348,3761 15453,3796 15558,3843 15664,3884 15769,3940 15874,3979 15979,4007 16084,4031 16189,4082 16294,4153 16399,4219 16504,4260 16609,4306 16714,4298 16819,4359 16924,4416 17029,4518 17134,4583 17239,4665 17344,4713 17449,4720 17555,4805 17660,4885 17765,4983 17870,5081 17975,5179 18080,5206 18185,5238 18290,5351 18395,5448"/>
 <path fill="none" stroke="rgb(180,120,4)" stroke-width="80" stroke-linejoin="round" d="M 1272,21712 L 1377,17363 1482,18681 1587,19009 1692,19118 1797,19721 1902,18840 2007,17597 2112,16138 2218,16638 2323,13108 2428,11262 2533,11539 2638,10162 2743,7973 2848,5171 2953,4947 3058,5169 3163,3915 3268,2802 3329,1711"/>
 <path fill="none" stroke="rgb(180,120,4)" stroke-width="80" stroke-linejoin="round" d="M 8832,1711 L 8836,1714 8941,1808 9046,1921 9151,1935 9256,1932 9361,2055 9466,1997 9571,1963 9676,1985 9781,1902 9887,2038 9992,2037 10097,1962 10202,1978 10307,1969 10412,1896 10517,1962 10622,2067 10727,2146 10832,2152 10937,2076 11042,2138 11147,2130 11252,2160 11357,2262 11462,2260 11567,2345 11672,2382 11778,2433 11882,2437 11987,2482 12092,2554 12197,2554 12302,2522 12407,2727 12512,2778 12617,2826 12722,2857 12827,2883 12932,2883 13037,2883 13142,2994 13247,3018 13352,3025 13457,2994 13562,3018 13668,3018 13773,3020 13878,3085 13983,3100 14088,3086 14193,3109 14298,3151 14403,3151 14508,3121 14613,3249 14718,3282 14823,3325 14928,3369 15033,3436 15138,3406 15243,3381 15348,3502 15453,3556 15558,3620 15664,3673 15769,3707 15874,3679 15979,3709 16084,3852 16189,3899 16294,3943 16399,4065 16504,4146 16609,4117 16714,4117 16819,4373 16924,4469 17029,4536 17134,4681 17239,4867 17344,4871 17449,4880 17555,5299 17660,5466 17765,5605 17870,5778 17975,5948 18080,6056 18185,6189 18290,6283 18395,6396"/>
 <path fill="none" stroke="rgb(191,0,65)" stroke-width="80" stroke-linejoin="round" stroke-dasharray="51,127,51,127,254,127,254,127,254,127" d="M 1272,11277 L 1377,2961 1482,6326 1587,11520 1692,12161 1797,15767 1902,16615 2007,16917 2112,17191 2218,15931 2323,15402 2428,14398 2533,13056 2638,13046 2743,13327 2848,12472 2953,12086 3058,10754 3163,10219 3268,10114 3373,9258 3478,8483 3583,8041 3688,7817 3793,7040 3898,6499 4003,5877 4109,5559 4214,5360 4319,4649 4424,4244 4529,4363 4634,3973 4739,3685 4844,3601 4949,3333 5054,3091 5159,2530 5264,2285 5369,2251 5474,2057 5579,1850 5621,1711"/>
 <path fill="none" stroke="rgb(191,0,65)" stroke-width="80" stroke-linejoin="round" stroke-dasharray="51,127,51,127,254,127,254,127,254,127" d="M 14017,1711 L 14088,1802 14193,1889 14298,2027 14403,2182 14508,2256 14613,2323 14718,2460 14823,2615 14928,2711 15033,2830 15138,2951 15243,3044 15348,3152 15453,3348 15558,3554 15664,3714 15769,3862 15874,3987 15979,4057 16084,4170 16189,4326 16294,4504 16399,4657 16504,4755 16609,4814 16714,4842 16819,4889 16924,5034 17029,5200 17134,5328 17239,5470 17344,5572 17449,5607 17555,5619 17660,5731 17765,5858 17870,5973 17975,6119 18080,6207 18185,6225 18290,6267 18395,6353"/>
 <path fill="none" stroke="rgb(21,132,102)" stroke-width="80" stroke-linejoin="round" stroke-dasharray="80,203,80,203,203,203" d="M 1272,2022 L 1313,1711"/>
 <path fill="none" stroke="rgb(21,132,102)" stroke-width="80" stroke-linejoin="round" stroke-dasharray="80,203,80,203,203,203" d="M 13385,1711 L 13457,1821 13562,1996 13668,2142 13773,2268 13878,2384 13983,2594 14088,2803 14193,2972 14298,3146 14403,3280 14508,3348 14613,3447 14718,3630 14823,3814 14928,3963 15033,4071 15138,4087 15243,4181 15348,4276 15453,4451 15558,4633 15664,4781 15769,4916 15874,5033 15979,5099 16084,5195 16189,5341 16294,5518 16399,5620 16504,5727 16609,5806 16714,5868 16819,5925 16924,6048 17029,6168 17134,6266 17239,6354 17344,6429 17449,6398 17555,6465 17660,6573 17765,6697 17870,6770 17975,6857 18080,6917 18185,6959 18290,7006 18395,7099"/>
 <path fill="none" stroke="rgb(255,64,0)" stroke-width="80" stroke-linejoin="round" stroke-dasharray="80,40" d="M 1272,21712 L 1377,21712 1482,21712 1587,21712 1692,14018 1797,13764 1902,5817 1941,1711"/>
 <path fill="none" stroke="rgb(255,64,0)" stroke-width="80" stroke-linejoin="round" stroke-dasharray="80,40" d="M 12536,1711 L 12617,2087 12722,2301 12827,2688 12932,2867 13037,2911 13142,2922 13247,3204 13352,3630 13457,3876 13562,4047 13668,4163 13773,4145 13878,4100 13983,4427 14088,4705 14193,4822 14298,4971 14403,5038 14508,5011 14613,4995 14718,5209 14823,5416 14928,5512 15033,5531 15138,5501 15243,5463 15348,5389 15453,5596 15558,5977 15664,6229 15769,6326 15874,6466 15979,6420 16084,6388 16189,6552 16294,6875 16399,7027 16504,7100 16609,7162 16714,7141 16819,7098 16924,7285 17029,7475 17134,7560 17239,7641 17344,7707 17449,7674 17555,7682 17660,7838 17765,7993 17870,8081 17975,8144 18080,8169 18185,8136 18290,8108 18395,8241"/>
 <path fill="none" stroke="rgb(141,40,30)" stroke-width="80" stroke-linejoin="round" stroke-dasharray="80,40" d="M 13168,1711 L 13247,1938 13352,2263 13457,2470 13562,2716 13668,2880 13773,3090 13878,3281 13983,3590 14088,3887 14193,4129 14298,4382 14403,4586 14508,4780 14613,4975 14718,5252 14823,5510 14928,5736 15033,5916 15138,6067 15243,6204 15348,6358 15453,6564 15558,6721 15664,6840 15769,6967 15874,7085 15979,7157 16084,7245 16189,7427 16294,7606 16399,7697 16504,7783 16609,7851 16714,7886 16819,7928 16924,8051 17029,8157 17134,8235 17239,8272 17344,8337 17449,8355 17555,8404 17660,8481 17765,8590 17870,8617 17975,8674 18080,8710 18185,8729 18290,8740 18395,8812"/>
 <path fill="none" stroke="rgb(0,169,51)" stroke-width="80" stroke-linejoin="round" d="M 1272,17865 L 1377,18658 1482,19513 1587,16833 1692,17738 1797,18537 1902,18047 2007,18921 2112,18568 2218,16906 2323,16608 2428,16147 2533,16686 2638,14746 2743,15234 2848,15631 2953,15199 3058,13980 3163,14300 3268,14084 3373,14070 3478,14064 3583,13975 3688,13695 3793,13495 3898,12977 4003,12235 4109,11695 4214,11123 4319,10749 4424,10635 4529,10338 4634,10114 4739,10114 4844,9832 4949,9348 5054,9091 5159,9002 5264,8597 5369,8144 5474,7734 5579,7479 5684,7337 5789,7220 5894,7134 5999,6997 6105,6540 6210,6317 6315,6290 6420,6236 6525,6103 6630,6135 6735,6129 6840,6024 6945,6052 7050,6053 7155,5964 7260,5963 7365,5915 7470,5899 7575,5891 7680,5887 7785,5896 7890,5883 7996,5869 8101,5948 8206,5983 8311,5968 8416,5993 8521,6082 8626,6072 8731,6000 8836,6026 8941,6032 9046,6032 9151,6014 9256,5503 9361,5520 9466,5555 9571,5573 9676,5606 9781,5618 9887,5620 9992,5649 10097,5645 10202,5647 10307,5672 10412,5683 10517,5716 10622,5728 10727,5756 10832,5736 10937,5751 11042,5762 11147,5763 11252,5719 11357,5607 11462,5597 11567,5626 11672,5650 11778,5654 11882,5667 11987,5616 12092,5661 12197,5594 12302,5610 12407,5600 12512,5580 12617,5595 12722,5575 12827,5617 12932,5670 13037,5737 13142,5799 13247,5815 13352,5911 13457,5970 13562,6066 13668,6165 13773,6262 13878,6334 13983,6337 14088,6414 14193,6476 14298,6531 14403,6570 14508,6661 14613,6701 14718,6759 14823,6863 14928,6973 15033,7081 15138,7181 15243,7241 15348,7286 15453,7347 15558,7400 15664,7521 15769,7543 15874,7590 15979,7682 16084,7741 16189,7821 16294,7937 16399,7986 16504,8100 16609,8153 16714,8193 16819,8225 16924,8285 17029,8301 17134,8382 17239,8449 17344,8481 17449,8549 17555,8538 17660,8621 17765,8716 17870,8805 17975,8964 18080,9131 18185,9217 18290,9270 18395,9424"/>
 <path fill="none" stroke="rgb(0,132,209)" stroke-width="80" stroke-linejoin="round" d="M 1272,21712 L 1377,15857 1482,18711 1587,19705 1692,20002 1797,19302 1902,19142 2007,19418 2112,19611 2218,19797 2323,19131 2428,18962 2533,18785 2638,19067 2743,18525 2848,18201 2953,18218 3058,17561 3163,17081 3268,17024 3373,16730 3478,16202 3583,16132 3688,15592 3793,15460 3898,14794 4003,14187 4109,13927 4214,13763 4319,13595 4424,13298 4529,12904 4634,12759 4739,12208 4844,12224 4949,11842 5054,11777 5159,11746 5264,10970 5369,11155 5474,10929 5579,10682 5684,10465 5789,10476 5894,10531 5999,10537 6105,10578 6210,10617 6315,10510 6420,10552 6525,10605 6630,10693 6735,10609 6840,10597 6945,10610 7050,10596 7155,10599 7260,10628 7365,10699 7470,10506 7575,10360 7680,10361 7785,10253 7890,10262 7996,10300 8101,10335 8206,10311 8311,10340 8416,10323 8521,10299 8626,10316 8731,10327 8836,10341 8941,10360 9046,10398 9151,10430 9256,10401 9361,10409 9466,10425 9571,10450 9676,10475 9781,10440 9887,10455 9992,10428 10097,10432 10202,10440 10307,10452 10412,10434 10517,10470 10622,10493 10727,10365 10832,10386 10937,10404 11042,10424 11147,10448 11252,10466 11357,10435 11462,10399 11567,10403 11672,10424 11778,10441 11882,10299 11987,10320 12092,10297 12197,10318 12302,10322 12407,10330 12512,10357 12617,10378 12722,10332 12827,10344 12932,10362 13037,10373 13142,10382 13247,10404 13352,10425 13457,10433 13562,10457 13668,10419 13773,10424 13878,10431 13983,10445 14088,10404 14193,10423 14298,10434 14403,10394 14508,10354 14613,10358 14718,10379 14823,10392 14928,10397 15033,10409 15138,10413 15243,10413 15348,10421 15453,10444 15558,10452 15664,10484 15769,10493 15874,10516 15979,10523 16084,10542 16189,10564 16294,10547 16399,10591 16504,10629 16609,10645 16714,10663 16819,10741 16924,10774 17029,10828 17134,10896 17239,10990 17344,11002 17449,10879 17555,10931 17660,11005 17765,11040 17870,11073 17975,11134 18080,11114 18185,11157 18290,11214 18395,11267"/>
 <path fill="none" stroke="rgb(255,0,0)" stroke-width="80" stroke-linejoin="round" stroke-dasharray="158,102" d="M 1587,21712 L 1592,1711"/>
 <path fill="none" stroke="rgb(255,0,0)" stroke-width="80" stroke-linejoin="round" stroke-dasharray="158,102" d="M 3254,1711 L 3268,2265 3373,2473 3478,3266 3583,3201 3688,4742 3793,5154 3898,5720 4003,6186 4109,6536 4214,6845 4319,7136 4424,7662 4529,8150 4634,8438 4739,8800 4844,9113 4949,9288 5054,9328 5159,9320 5264,9376 5369,9532 5474,9611 5579,9609 5684,9661 5789,9814 5894,9974 5999,9955 6105,9954 6210,9964 6315,9931 6420,9878 6525,9825 6630,9860 6735,9938 6840,9998 6945,9998 7050,10002 7155,10004 7260,9996 7365,10016 7470,10049 7575,10063 7680,10051 7785,10022 7890,10013 7996,9989 8101,10006 8206,10053 8311,10108 8416,10180 8521,10233 8626,10266 8731,10269 8836,10261 8941,10258 9046,10257 9151,10240 9256,10250 9361,10262 9466,10268 9571,10273 9676,10289 9781,10319 9887,10340 9992,10357 10097,10371 10202,10377 10307,10375 10412,10388 10517,10412 10622,10434 10727,10453 10832,10478 10937,10510 11042,10540 11147,10558 11252,10582 11357,10614 11462,10658 11567,10704 11672,10752 11778,10790 11882,10823 11987,10842 12092,10861 12197,10888 12302,10917 12407,10950 12512,10990 12617,11036 12722,11084 12827,11121 12932,11160 13037,11194 13142,11227 13247,11257 13352,11287 13457,11310 13562,11327 13668,11350 13773,11363 13878,11377 13983,11393 14088,11408 14193,11420 14298,11437 14403,11446 14508,11461 14613,11478 14718,11495 14823,11509 14928,11519 15033,11528 15138,11538 15243,11549 15348,11563 15453,11575 15558,11586 15664,11600 15769,11617 15874,11632 15979,11643 16084,11651 16189,11662 16294,11670 16399,11681 16504,11690 16609,11709 16714,11726 16819,11741 16924,11761 17029,11787 17134,11810 17239,11829 17344,11843 17449,11855 17555,11868 17660,11885 17765,11898 17870,11914 17975,11925 18080,11944 18185,11956 18290,11968 18395,11987"/>
 <path fill="none" stroke="rgb(128,0,128)" stroke-width="80" stroke-linejoin="round" stroke-dasharray="158,158" d="M 1300,1711 L 1377,3106 1482,7425 1587,8808 1692,5273 1797,7077 1902,6025 2007,4012 2112,8266 2218,1992 2223,1711"/>
 <path fill="none" stroke="rgb(128,0,128)" stroke-width="80" stroke-linejoin="round" stroke-dasharray="158,158" d="M 2496,1711 L 2533,2038 2540,1711"/>
 <path fill="none" stroke="rgb(128,0,128)" stroke-width="80" stroke-linejoin="round" stroke-dasharray="158,158" d="M 2765,1711 L 2848,2472 2936,1711"/>
 <path fill="none" stroke="rgb(128,0,128)" stroke-width="80" stroke-linejoin="round" stroke-dasharray="158,158" d="M 2976,1711 L 3058,2228 3163,2453 3174,1711"/>
 <path fill="none" stroke="rgb(128,0,128)" stroke-width="80" stroke-linejoin="round" stroke-dasharray="158,158" d="M 5048,1711 L 5054,1774 5159,2245 5264,2493 5369,2500 5474,2731 5579,3367 5684,3999 5789,3910 5894,4161 5999,4135 6105,4239 6210,4116 6315,4148 6420,4170 6525,3742 6630,3948 6735,2764 6840,2286 6945,2546 7050,2677 7155,3030 7260,3613 7365,3800 7470,4393 7575,4568 7680,4617 7785,4840 7890,5314 7996,5483 8101,5424 8206,5538 8311,5603 8416,5699 8521,5896 8626,6137 8731,6290 8836,6594 8941,6815 9046,7014 9151,7178 9256,7373 9361,7332 9466,7403 9571,7366 9676,7521 9781,7613 9887,7675 9992,7713 10097,7758 10202,7705 10307,7797 10412,7925 10517,8037 10622,7990 10727,7928 10832,7910 10937,7880 11042,7921 11147,7894 11252,5709 11357,5870 11462,6040 11567,6131 11672,6258 11778,6235 11882,6438 11987,6494 12092,6630 12197,6800 12302,6958 12407,7086 12512,7265 12617,7428 12722,7519 12827,7695 12932,7936 13037,8102 13142,8114 13247,8257 13352,8375 13457,8512 13562,8675 13668,8874 13773,9023 13878,9109 13983,9226 14088,9342 14193,9462 14298,9572 14403,9657 14508,9745 14613,9882 14718,9963 14823,10117 14928,10262 15033,10216 15138,10354 15243,10494 15348,10612 15453,10724 15558,10924 15664,11093 15769,11254 15874,11401 15979,11539 16084,11614 16189,11752 16294,11866 16399,11973 16504,12112 16609,12209 16714,12281 16819,12360 16924,12407 17029,12496 17134,12616 17239,12703 17344,12785 17449,12856 17555,12898 17660,12967 17765,13066 17870,13115 17975,13181 18080,13240 18185,13281 18290,13318 18395,13393"/>
 <path fill="none" stroke="rgb(0,0,255)" stroke-width="80" stroke-linejoin="round" stroke-dasharray="80,40" d="M 1272,21712 L 1377,21712 1482,21712 1587,21712 1692,6896 1718,1711"/>
 <path fill="none" stroke="rgb(0,0,255)" stroke-width="80" stroke-linejoin="round" stroke-dasharray="80,40" d="M 2376,1711 L 2428,2103 2533,3995 2638,4529 2712,1711"/>
 <path fill="none" stroke="rgb(0,0,255)" stroke-width="80" stroke-linejoin="round" stroke-dasharray="80,40" d="M 2916,1711 L 2953,2025 3058,3159 3163,4308 3268,4158 3373,5418 3478,4805 3583,4552 3688,4593 3793,4994 3898,6323 4003,6294 4109,6666 4214,6619 4319,6592 4424,7145 4529,7351 4634,7864 4739,7766 4844,7490 4949,7000 5054,6888 5159,7157 5264,7554 5369,7466 5474,7682 5579,7254 5684,7194 5789,7130 5894,7425 5999,7453 6105,7583 6210,7601 6315,6988 6420,7068 6525,7025 6630,7324 6735,7505 6840,7857 6945,7903 7050,8023 7155,8010 7260,7899 7365,8052 7470,8243 7575,8313 7680,8469 7785,8209 7890,7966 7996,8070 8101,8166 8206,8527 8311,8591 8416,8553 8521,8797 8626,8942 8731,9079 8836,8948 8941,9193 9046,9346 9151,9160 9256,9188 9361,9373 9466,9167 9571,9214 9676,9433 9781,9551 9887,9455 9992,9627 10097,9733 10202,9777 10307,10028 10412,10213 10517,10373 10622,10480 10727,10604 10832,10572 10937,10595 11042,10730 11147,11000 11252,11002 11357,11095 11462,11131 11567,11192 11672,11269 11778,11588 11882,11950 11987,12147 12092,12367 12197,12534 12302,12651 12407,12871 12512,13160 12617,13422 12722,13661 12827,13806 12932,13938 13037,13996 13142,14178 13247,14352 13352,14605 13457,14583 13562,14604 13668,14550 13773,14506 13878,14634 13983,14788 14088,14905 14193,15046 14298,15035 14403,15005 14508,14952 14613,14926 14718,15016 14823,15116 14928,15282 15033,15200 15138,15154 15243,15121 15348,15073 15453,15105 15558,14579 15664,14470 15769,14280 15874,14343 15979,14292 16084,14141 16189,14287 16294,14343 16399,14283 16504,14127 16609,14004 16714,13814 16819,13776 16924,13851 17029,13971 17134,14088 17239,13954 17344,13857 17449,13702 17555,13651 17660,13678 17765,13736 17870,13665 17975,13607 18080,13533 18185,13487 18290,13455 18395,13484"/>
 <path fill="none" stroke="rgb(255,191,0)" stroke-width="80" stroke-linejoin="round" d="M 1272,21712 L 1377,21712 1482,21712 1587,21712 1692,21712 1797,21712 1902,21712 2007,21712 2112,21712 2218,20701 2323,20849 2428,19982 2533,18830 2638,18093 2743,18497 2848,18151 2953,17120 3058,16149 3163,15269 3268,14866 3373,15021 3478,14185 3583,13847 3688,13609 3793,12817 3898,12587 4003,12031 4109,11694 4214,11334 4319,11010 4424,10709 4529,10943 4634,10147 4739,10127 4844,10118 4949,10161 5054,9762 5159,9537 5264,9227 5369,9213 5474,9007 5579,8996 5684,9022 5789,9074 5894,9199 5999,9204 6105,9077 6210,9227 6315,8871 6420,8745 6525,8548 6630,8492 6735,8411 6840,8329 6945,8166 7050,7785 7155,7677 7260,7592 7365,7527 7470,7565 7575,7616 7680,7349 7785,7233 7890,7184 7996,7230 8101,7212 8206,7344 8311,7246 8416,7245 8521,7234 8626,6985 8731,7083 8836,7140 8941,7171 9046,7226 9151,7323 9256,7358 9361,7462 9466,7536 9571,7567 9676,7579 9781,7575 9887,7575 9992,7583 10097,7598 10202,7650 10307,7743 10412,7810 10517,7892 10622,7859 10727,7997 10832,8043 10937,8181 11042,8215 11147,8275 11252,8276 11357,8308 11462,8339 11567,8343 11672,8357 11778,8419 11882,8485 11987,8521 12092,8526 12197,8503 12302,8413 12407,8445 12512,8641 12617,8795 12722,8869 12827,9064 12932,9213 13037,9542 13142,9818 13247,10067 13352,10089 13457,10182 13562,10314 13668,10393 13773,10461 13878,10507 13983,10612 14088,10692 14193,10720 14298,10789 14403,10884 14508,10842 14613,10894 14718,10948 14823,11055 14928,11133 15033,11116 15138,11174 15243,11127 15348,11242 15453,11351 15558,11471 15664,11603 15769,11792 15874,11746 15979,11740 16084,11838 16189,11988 16294,12116 16399,12353 16504,12346 16609,12369 16714,12449 16819,12562 16924,12686 17029,12811 17134,12890 17239,13051 17344,13134 17449,13123 17555,13167 17660,13256 17765,13344 17870,13443 17975,13505 18080,13546 18185,13496 18290,13573 18395,13665"/>
 <path fill="none" stroke="rgb(0,0,255)" stroke-width="80" stroke-linejoin="round" stroke-dasharray="158,158" d="M 1272,18102 L 1377,17860 1482,17718 1587,17843 1692,17594 1797,17500 1902,17209 2007,17104 2112,16757 2218,16374 2323,16433 2428,16107 2533,15886 2638,15756 2743,15506 2848,15283 2953,14983 3058,14794 3163,14699 3268,14638 3373,14578 3478,14448 3583,14382 3688,14231 3793,14186 3898,14012 4003,13760 4109,13676 4214,13583 4319,13504 4424,13425 4529,13352 4634,13191 4739,13098 4844,12970 4949,12959 5054,12904 5159,12850 5264,12797 5369,12778 5474,12759 5579,12699 5684,12706 5789,12642 5894,12612 5999,12584 6105,12521 6210,12492 6315,12464 6420,12398 6525,12410 6630,12343 6735,12273 6840,12243 6945,12211 7050,12223 7155,12230 7260,12233 7365,12234 7470,12164 7575,12137 7680,12116 7785,12146 7890,12104 7996,12128 8101,12114 8206,12139 8311,12163 8416,12143 8521,12154 8626,12095 8731,12106 8836,12098 8941,12036 9046,12053 9151,12073 9256,12095 9361,12109 9466,12089 9571,12088 9676,12120 9781,12133 9887,12166 9992,12188 10097,12217 10202,12249 10307,12289 10412,12286 10517,12249 10622,12290 10727,12302 10832,12332 10937,12362 11042,12401 11147,12403 11252,12413 11357,12417 11462,12443 11567,12470 11672,12496 11778,12529 11882,12540 11987,12577 12092,12594 12197,12629 12302,12642 12407,12675 12512,12712 12617,12732 12722,12760 12827,12796 12932,12839 13037,12837 13142,12867 13247,12870 13352,12876 13457,12919 13562,12900 13668,12911 13773,12941 13878,12940 13983,12982 14088,13014 14193,13044 14298,13007 14403,12975 14508,12986 14613,12978 14718,12973 14823,13012 14928,13021 15033,13046 15138,13038 15243,13055 15348,13083 15453,13093 15558,13101 15664,13126 15769,13195 15874,13202 15979,13217 16084,13234 16189,13262 16294,13273 16399,13266 16504,13284 16609,13274 16714,13260 16819,13252 16924,13271 17029,13296 17134,13308 17239,13333 17344,13353 17449,13369 17555,13389 17660,13419 17765,13424 17870,13481 17975,13545 18080,13642 18185,13744 18290,13869 18395,14014"/>
 <path fill="none" stroke="rgb(255,191,0)" stroke-width="80" stroke-linejoin="round" stroke-dasharray="80,40" d="M 1272,4869 L 1377,9830 1482,7822 1587,5981 1662,1711"/>
 <path fill="none" stroke="rgb(255,191,0)" stroke-width="80" stroke-linejoin="round" stroke-dasharray="80,40" d="M 1883,1711 L 1902,2356 1913,1711"/>
 <path fill="none" stroke="rgb(255,191,0)" stroke-width="80" stroke-linejoin="round" stroke-dasharray="80,40" d="M 2085,1711 L 2112,3757 2218,4568 2323,2938 2428,1889 2445,1711"/>
 <path fill="none" stroke="rgb(255,191,0)" stroke-width="80" stroke-linejoin="round" stroke-dasharray="80,40" d="M 2914,1711 L 2953,2198 3058,2302 3163,4013 3268,4699 3373,3081 3478,3631 3583,5554 3688,4803 3793,5558 3898,5696 4003,5233 4109,4760 4214,6199 4319,6634 4424,6957 4529,6597 4634,6145 4739,5393 4844,4102 4949,3518 5054,2658 5159,3167 5264,3349 5369,3183 5474,2216 5562,1711"/>
 <path fill="none" stroke="rgb(255,191,0)" stroke-width="80" stroke-linejoin="round" stroke-dasharray="80,40" d="M 5799,1711 L 5894,2263 5999,2659 6105,2864 6210,2888 6315,2536 6420,2188 6525,2321 6630,2509 6735,3018 6840,2712 6945,2766 7050,2703 7155,2673 7260,2478 7365,3126 7470,3372 7575,3181 7680,3171 7785,3373 7890,3154 7996,3202 8101,3452 8206,3694 8311,3530 8416,3472 8521,3506 8626,3424 8731,3374 8836,3789 8941,4189 9046,4367 9151,4458 9256,4456 9361,4375 9466,4528 9571,4938 9676,5022 9781,5123 9887,5304 9992,5535 10097,5529 10202,5649 10307,5904 10412,6106 10517,6178 10622,6275 10727,6365 10832,6471 10937,6538 11042,6789 11147,7070 11252,7210 11357,7335 11462,7434 11567,7465 11672,7599 11778,7833 11882,8035 11987,8246 12092,8309 12197,8459 12302,8573 12407,8940 12512,9319 12617,9503 12722,9615 12827,9782 12932,9817 13037,9989 13142,10383 13247,10696 13352,10917 13457,11047 13562,10985 13668,10863 13773,11201 13878,11341 13983,11781 14088,12018 14193,12123 14298,12222 14403,12313 14508,12340 14613,12469 14718,12797 14823,12953 14928,13059 15033,13087 15138,13095 15243,13091 15348,13258 15453,13455 15558,13646 15664,13652 15769,13616 15874,13624 15979,13562 16084,13551 16189,13727 16294,13923 16399,13852 16504,13873 16609,13799 16714,13797 16819,13734 16924,13830 17029,13813 17134,13935 17239,13845 17344,13868 17449,13744 17555,13896 17660,13943 17765,14070 17870,14016 17975,14084 18080,14067 18185,14051 18290,14001 18395,14093"/>
 <path fill="none" stroke="rgb(191,0,65)" stroke-width="80" stroke-linejoin="round" stroke-dasharray="80,40" d="M 2377,1711 L 2428,5044 2533,5399 2638,6508 2743,7767 2848,4107 2953,5847 3058,6729 3163,7286 3268,9711 3373,4278 3478,5696 3583,7459 3688,8597 3793,8140 3898,9145 4003,9674 4109,9438 4214,9080 4319,8562 4424,9033 4529,8797 4634,7754 4739,8112 4844,7263 4949,7135 5054,7476 5159,7396 5264,7105 5369,6854 5474,7284 5579,6224 5684,5811 5789,6115 5894,6282 5999,6338 6105,5912 6210,5754 6315,5264 6420,5042 6525,4734 6630,4918 6735,4852 6840,4246 6945,3984 7050,3664 7155,3206 7260,3118 7365,3323 7470,3448 7575,3384 7680,3067 7785,2961 7890,2822 7996,2541 8101,2886 8206,2872 8311,2715 8416,2716 8521,2572 8626,2495 8731,2478 8836,2650 8941,2735 9046,3147 9151,2953 9256,2847 9361,2736 9466,2795 9571,2949 9676,3015 9781,2718 9887,2877 9992,2896 10097,2766 10202,2791 10307,2911 10412,3250 10517,3333 10622,3489 10727,3558 10832,3712 10937,3684 11042,3947 11147,4267 11252,4377 11357,4701 11462,5064 11567,5281 11672,5447 11778,5927 11882,6367 11987,6638 12092,7088 12197,7523 12302,7872 12407,8181 12512,8498 12617,9063 12722,9415 12827,10163 12932,10796 13037,11266 13142,11593 13247,11920 13352,12206 13457,12625 13562,13000 13668,13273 13773,13511 13878,13579 13983,13774 14088,14066 14193,14132 14298,14304 14403,14360 14508,14587 14613,14778 14718,14877 14823,14989 14928,15116 15033,15177 15138,15172 15243,15251 15348,15299 15453,15379 15558,15461 15664,15435 15769,15414 15874,15355 15979,15253 16084,15220 16189,15300 16294,15369 16399,15294 16504,15225 16609,15255 16714,15202 16819,15117 16924,15127 17029,15125 17134,15008 17239,14943 17344,14940 17449,14848 17555,14749 17660,14745 17765,14785 17870,14705 17975,14658 18080,14654 18185,14618 18290,14577 18395,14589"/>
 <path fill="none" stroke="rgb(0,223,255)" stroke-width="80" stroke-linejoin="round" stroke-dasharray="158,102" d="M 1272,21712 L 1377,21712 1482,21712 1587,21712 1692,21712 1797,21712 1902,14931 2007,15362 2112,17267 2218,18202 2323,18990 2428,19701 2533,16968 2638,17790 2743,17351 2848,18058 2953,15246 3058,16240 3163,13615 3268,12444 3373,12217 3478,12845 3583,12342 3688,14009 3793,14941 3898,15172 4003,15637 4109,15285 4214,14734 4319,15026 4424,14775 4529,14884 4634,14999 4739,15065 4844,14879 4949,14786 5054,14880 5159,14868 5264,15096 5369,15182 5474,15300 5579,15677 5684,15970 5789,15930 5894,16048 5999,16235 6105,16186 6210,16045 6315,15957 6420,15934 6525,16102 6630,16238 6735,16254 6840,16261 6945,16338 7050,16471 7155,16594 7260,16680 7365,16781 7470,16868 7575,16933 7680,17001 7785,17070 7890,17098 7996,17126 8101,17180 8206,17217 8311,17212 8416,17188 8521,17154 8626,17098 8731,17049 8836,16989 8941,17004 9046,16916 9151,16849 9256,16778 9361,16632 9466,16556 9571,16530 9676,16478 9781,16402 9887,16337 9992,16289 10097,16270 10202,16192 10307,16181 10412,16186 10517,16141 10622,16057 10727,16016 10832,15969 10937,15981 11042,15984 11147,15966 11252,15913 11357,15862 11462,15820 11567,15781 11672,15752 11778,15762 11882,15778 11987,15751 12092,15726 12197,15745 12302,15703 12407,15653 12512,15660 12617,15670 12722,15640 12827,15568 12932,15541 13037,15496 13142,15456 13247,15438 13352,15418 13457,15363 13562,15323 13668,15282 13773,15243 13878,15195 13983,15180 14088,15182 14193,15143 14298,15116 14403,15084 14508,15041 14613,15034 14718,15039 14823,15051 14928,15026 15033,14995 15138,14973 15243,14947 15348,14923 15453,14934 15558,14941 15664,14916 15769,14882 15874,14867 15979,14836 16084,14837 16189,14848 16294,14855 16399,14831 16504,14810 16609,14800 16714,14788 16819,14771 16924,14777 17029,14786 17134,14768 17239,14751 17344,14737 17449,14726 17555,14713 17660,14720 17765,14736 17870,14717 17975,14705 18080,14697 18185,14695 18290,14680 18395,14684"/>
 <text class="TextShape" transform="rotate(-90 1366 22683)"><tspan class="TextParagraph" font-family="Liberation Sans, sans-serif" font-size="282px" font-weight="400"><tspan class="TextPosition" x="1366" y="22683"><tspan fill="rgb(0,0,0)" stroke="none">13.03</tspan></tspan></tspan></text>
 <text class="TextShape" transform="rotate(-90 1786 22683)"><tspan class="TextParagraph" font-family="Liberation Sans, sans-serif" font-size="282px" font-weight="400"><tspan class="TextPosition" x="1786" y="22683"><tspan fill="rgb(0,0,0)" stroke="none">17.03</tspan></tspan></tspan></text>
 <text class="TextShape" transform="rotate(-90 2206 22683)"><tspan class="TextParagraph" font-family="Liberation Sans, sans-serif" font-size="282px" font-weight="400"><tspan class="TextPosition" x="2206" y="22683"><tspan fill="rgb(0,0,0)" stroke="none">21.03</tspan></tspan></tspan></text>
 <text class="TextShape" transform="rotate(-90 2627 22683)"><tspan class="TextParagraph" font-family="Liberation Sans, sans-serif" font-size="282px" font-weight="400"><tspan class="TextPosition" x="2627" y="22683"><tspan fill="rgb(0,0,0)" stroke="none">25.03</tspan></tspan></tspan></text>
 <text class="TextShape" transform="rotate(-90 3047 22683)"><tspan class="TextParagraph" font-family="Liberation Sans, sans-serif" font-size="282px" font-weight="400"><tspan class="TextPosition" x="3047" y="22683"><tspan fill="rgb(0,0,0)" stroke="none">29.03</tspan></tspan></tspan></text>
 <text class="TextShape" transform="rotate(-90 3467 22683)"><tspan class="TextParagraph" font-family="Liberation Sans, sans-serif" font-size="282px" font-weight="400"><tspan class="TextPosition" x="3467" y="22683"><tspan fill="rgb(0,0,0)" stroke="none">02.04</tspan></tspan></tspan></text>
 <text class="TextShape" transform="rotate(-90 3887 22683)"><tspan class="TextParagraph" font-family="Liberation Sans, sans-serif" font-size="282px" font-weight="400"><tspan class="TextPosition" x="3887" y="22683"><tspan fill="rgb(0,0,0)" stroke="none">06.04</tspan></tspan></tspan></text>
 <text class="TextShape" transform="rotate(-90 4308 22683)"><tspan class="TextParagraph" font-family="Liberation Sans, sans-serif" font-size="282px" font-weight="400"><tspan class="TextPosition" x="4308" y="22683"><tspan fill="rgb(0,0,0)" stroke="none">10.04</tspan></tspan></tspan></text>
 <text class="TextShape" transform="rotate(-90 4728 22683)"><tspan class="TextParagraph" font-family="Liberation Sans, sans-serif" font-size="282px" font-weight="400"><tspan class="TextPosition" x="4728" y="22683"><tspan fill="rgb(0,0,0)" stroke="none">14.04</tspan></tspan></tspan></text>
 <text class="TextShape" transform="rotate(-90 5148 22683)"><tspan class="TextParagraph" font-family="Liberation Sans, sans-serif" font-size="282px" font-weight="400"><tspan class="TextPosition" x="5148" y="22683"><tspan fill="rgb(0,0,0)" stroke="none">18.04</tspan></tspan></tspan></text>
 <text class="TextShape" transform="rotate(-90 5568 22683)"><tspan class="TextParagraph" font-family="Liberation Sans, sans-serif" font-size="282px" font-weight="400"><tspan class="TextPosition" x="5568" y="22683"><tspan fill="rgb(0,0,0)" stroke="none">22.04</tspan></tspan></tspan></text>
 <text class="TextShape" transform="rotate(-90 5988 22683)"><tspan class="TextParagraph" font-family="Liberation Sans, sans-serif" font-size="282px" font-weight="400"><tspan class="TextPosition" x="5988" y="22683"><tspan fill="rgb(0,0,0)" stroke="none">26.04</tspan></tspan></tspan></text>
 <text class="TextShape" transform="rotate(-90 6409 22683)"><tspan class="TextParagraph" font-family="Liberation Sans, sans-serif" font-size="282px" font-weight="400"><tspan class="TextPosition" x="6409" y="22683"><tspan fill="rgb(0,0,0)" stroke="none">30.04</tspan></tspan></tspan></text>
 <text class="TextShape" transform="rotate(-90 6829 22683)"><tspan class="TextParagraph" font-family="Liberation Sans, sans-serif" font-size="282px" font-weight="400"><tspan class="TextPosition" x="6829" y="22683"><tspan fill="rgb(0,0,0)" stroke="none">04.05</tspan></tspan></tspan></text>
 <text class="TextShape" transform="rotate(-90 7249 22683)"><tspan class="TextParagraph" font-family="Liberation Sans, sans-serif" font-size="282px" font-weight="400"><tspan class="TextPosition" x="7249" y="22683"><tspan fill="rgb(0,0,0)" stroke="none">08.05</tspan></tspan></tspan></text>
 <text class="TextShape" transform="rotate(-90 7669 22683)"><tspan class="TextParagraph" font-family="Liberation Sans, sans-serif" font-size="282px" font-weight="400"><tspan class="TextPosition" x="7669" y="22683"><tspan fill="rgb(0,0,0)" stroke="none">12.05</tspan></tspan></tspan></text>
 <text class="TextShape" transform="rotate(-90 8090 22683)"><tspan class="TextParagraph" font-family="Liberation Sans, sans-serif" font-size="282px" font-weight="400"><tspan class="TextPosition" x="8090" y="22683"><tspan fill="rgb(0,0,0)" stroke="none">16.05</tspan></tspan></tspan></text>
 <text class="TextShape" transform="rotate(-90 8510 22683)"><tspan class="TextParagraph" font-family="Liberation Sans, sans-serif" font-size="282px" font-weight="400"><tspan class="TextPosition" x="8510" y="22683"><tspan fill="rgb(0,0,0)" stroke="none">20.05</tspan></tspan></tspan></text>
 <text class="TextShape" transform="rotate(-90 8930 22683)"><tspan class="TextParagraph" font-family="Liberation Sans, sans-serif" font-size="282px" font-weight="400"><tspan class="TextPosition" x="8930" y="22683"><tspan fill="rgb(0,0,0)" stroke="none">24.05</tspan></tspan></tspan></text>
 <text class="TextShape" transform="rotate(-90 9350 22683)"><tspan class="TextParagraph" font-family="Liberation Sans, sans-serif" font-size="282px" font-weight="400"><tspan class="TextPosition" x="9350" y="22683"><tspan fill="rgb(0,0,0)" stroke="none">28.05</tspan></tspan></tspan></text>
 <text class="TextShape" transform="rotate(-90 9770 22683)"><tspan class="TextParagraph" font-family="Liberation Sans, sans-serif" font-size="282px" font-weight="400"><tspan class="TextPosition" x="9770" y="22683"><tspan fill="rgb(0,0,0)" stroke="none">01.06</tspan></tspan></tspan></text>
 <text class="TextShape" transform="rotate(-90 10191 22683)"><tspan class="TextParagraph" font-family="Liberation Sans, sans-serif" font-size="282px" font-weight="400"><tspan class="TextPosition" x="10191" y="22683"><tspan fill="rgb(0,0,0)" stroke="none">05.06</tspan></tspan></tspan></text>
 <text class="TextShape" transform="rotate(-90 10611 22683)"><tspan class="TextParagraph" font-family="Liberation Sans, sans-serif" font-size="282px" font-weight="400"><tspan class="TextPosition" x="10611" y="22683"><tspan fill="rgb(0,0,0)" stroke="none">09.06</tspan></tspan></tspan></text>
 <text class="TextShape" transform="rotate(-90 11031 22683)"><tspan class="TextParagraph" font-family="Liberation Sans, sans-serif" font-size="282px" font-weight="400"><tspan class="TextPosition" x="11031" y="22683"><tspan fill="rgb(0,0,0)" stroke="none">13.06</tspan></tspan></tspan></text>
 <text class="TextShape" transform="rotate(-90 11451 22683)"><tspan class="TextParagraph" font-family="Liberation Sans, sans-serif" font-size="282px" font-weight="400"><tspan class="TextPosition" x="11451" y="22683"><tspan fill="rgb(0,0,0)" stroke="none">17.06</tspan></tspan></tspan></text>
 <text class="TextShape" transform="rotate(-90 11871 22683)"><tspan class="TextParagraph" font-family="Liberation Sans, sans-serif" font-size="282px" font-weight="400"><tspan class="TextPosition" x="11871" y="22683"><tspan fill="rgb(0,0,0)" stroke="none">21.06</tspan></tspan></tspan></text>
 <text class="TextShape" transform="rotate(-90 12291 22683)"><tspan class="TextParagraph" font-family="Liberation Sans, sans-serif" font-size="282px" font-weight="400"><tspan class="TextPosition" x="12291" y="22683"><tspan fill="rgb(0,0,0)" stroke="none">25.06</tspan></tspan></tspan></text>
 <text class="TextShape" transform="rotate(-90 12711 22683)"><tspan class="TextParagraph" font-family="Liberation Sans, sans-serif" font-size="282px" font-weight="400"><tspan class="TextPosition" x="12711" y="22683"><tspan fill="rgb(0,0,0)" stroke="none">29.06</tspan></tspan></tspan></text>
 <text class="TextShape" transform="rotate(-90 13131 22683)"><tspan class="TextParagraph" font-family="Liberation Sans, sans-serif" font-size="282px" font-weight="400"><tspan class="TextPosition" x="13131" y="22683"><tspan fill="rgb(0,0,0)" stroke="none">03.07</tspan></tspan></tspan></text>
 <text class="TextShape" transform="rotate(-90 13551 22683)"><tspan class="TextParagraph" font-family="Liberation Sans, sans-serif" font-size="282px" font-weight="400"><tspan class="TextPosition" x="13551" y="22683"><tspan fill="rgb(0,0,0)" stroke="none">07.07</tspan></tspan></tspan></text>
 <text class="TextShape" transform="rotate(-90 13972 22683)"><tspan class="TextParagraph" font-family="Liberation Sans, sans-serif" font-size="282px" font-weight="400"><tspan class="TextPosition" x="13972" y="22683"><tspan fill="rgb(0,0,0)" stroke="none">11.07</tspan></tspan></tspan></text>
 <text class="TextShape" transform="rotate(-90 14392 22683)"><tspan class="TextParagraph" font-family="Liberation Sans, sans-serif" font-size="282px" font-weight="400"><tspan class="TextPosition" x="14392" y="22683"><tspan fill="rgb(0,0,0)" stroke="none">15.07</tspan></tspan></tspan></text>
 <text class="TextShape" transform="rotate(-90 14812 22683)"><tspan class="TextParagraph" font-family="Liberation Sans, sans-serif" font-size="282px" font-weight="400"><tspan class="TextPosition" x="14812" y="22683"><tspan fill="rgb(0,0,0)" stroke="none">19.07</tspan></tspan></tspan></text>
 <text class="TextShape" transform="rotate(-90 15232 22683)"><tspan class="TextParagraph" font-family="Liberation Sans, sans-serif" font-size="282px" font-weight="400"><tspan class="TextPosition" x="15232" y="22683"><tspan fill="rgb(0,0,0)" stroke="none">23.07</tspan></tspan></tspan></text>
 <text class="TextShape" transform="rotate(-90 15652 22683)"><tspan class="TextParagraph" font-family="Liberation Sans, sans-serif" font-size="282px" font-weight="400"><tspan class="TextPosition" x="15652" y="22683"><tspan fill="rgb(0,0,0)" stroke="none">27.07</tspan></tspan></tspan></text>
 <text class="TextShape" transform="rotate(-90 16073 22683)"><tspan class="TextParagraph" font-family="Liberation Sans, sans-serif" font-size="282px" font-weight="400"><tspan class="TextPosition" x="16073" y="22683"><tspan fill="rgb(0,0,0)" stroke="none">31.07</tspan></tspan></tspan></text>
 <text class="TextShape" transform="rotate(-90 16493 22683)"><tspan class="TextParagraph" font-family="Liberation Sans, sans-serif" font-size="282px" font-weight="400"><tspan class="TextPosition" x="16493" y="22683"><tspan fill="rgb(0,0,0)" stroke="none">04.08</tspan></tspan></tspan></text>
 <text class="TextShape" transform="rotate(-90 16913 22683)"><tspan class="TextParagraph" font-family="Liberation Sans, sans-serif" font-size="282px" font-weight="400"><tspan class="TextPosition" x="16913" y="22683"><tspan fill="rgb(0,0,0)" stroke="none">08.08</tspan></tspan></tspan></text>
 <text class="TextShape" transform="rotate(-90 17333 22683)"><tspan class="TextParagraph" font-family="Liberation Sans, sans-serif" font-size="282px" font-weight="400"><tspan class="TextPosition" x="17333" y="22683"><tspan fill="rgb(0,0,0)" stroke="none">12.08</tspan></tspan></tspan></text>
 <text class="TextShape" transform="rotate(-90 17754 22683)"><tspan class="TextParagraph" font-family="Liberation Sans, sans-serif" font-size="282px" font-weight="400"><tspan class="TextPosition" x="17754" y="22683"><tspan fill="rgb(0,0,0)" stroke="none">16.08</tspan></tspan></tspan></text>
 <text class="TextShape" transform="rotate(-90 18174 22683)"><tspan class="TextParagraph" font-family="Liberation Sans, sans-serif" font-size="282px" font-weight="400"><tspan class="TextPosition" x="18174" y="22683"><tspan fill="rgb(0,0,0)" stroke="none">20.08</tspan></tspan></tspan></text>
 <text class="TextShape"><tspan class="TextParagraph" font-family="Liberation Sans, sans-serif" font-size="388px" font-weight="400"><tspan class="TextPosition" x="398" y="21845"><tspan fill="rgb(0,0,0)" stroke="none">0%</tspan></tspan></tspan></text>
 <text class="TextShape"><tspan class="TextParagraph" font-family="Liberation Sans, sans-serif" font-size="388px" font-weight="400"><tspan class="TextPosition" x="398" y="17844"><tspan fill="rgb(0,0,0)" stroke="none">1%</tspan></tspan></tspan></text>
 <text class="TextShape"><tspan class="TextParagraph" font-family="Liberation Sans, sans-serif" font-size="388px" font-weight="400"><tspan class="TextPosition" x="398" y="13844"><tspan fill="rgb(0,0,0)" stroke="none">2%</tspan></tspan></tspan></text>
 <text class="TextShape"><tspan class="TextParagraph" font-family="Liberation Sans, sans-serif" font-size="388px" font-weight="400"><tspan class="TextPosition" x="398" y="9843"><tspan fill="rgb(0,0,0)" stroke="none">3%</tspan></tspan></tspan></text>
 <text class="TextShape"><tspan class="TextParagraph" font-family="Liberation Sans, sans-serif" font-size="388px" font-weight="400"><tspan class="TextPosition" x="398" y="5843"><tspan fill="rgb(0,0,0)" stroke="none">4%</tspan></tspan></tspan></text>
 <text class="TextShape"><tspan class="TextParagraph" font-family="Liberation Sans, sans-serif" font-size="388px" font-weight="400"><tspan class="TextPosition" x="398" y="1843"><tspan fill="rgb(0,0,0)" stroke="none">5%</tspan></tspan></tspan></text>
 <text class="TextShape"><tspan class="TextParagraph" font-family="Liberation Sans, sans-serif" font-size="494px" font-weight="700"><tspan class="TextPosition" x="1305" y="918"><tspan fill="rgb(0,0,0)" stroke="none">Pomr celkovho potu obt ke 5 dn zpodnmu celkovmu potu infikovanch </tspan></tspan></tspan><tspan class="TextParagraph" font-family="Liberation Sans, sans-serif" font-size="494px" font-weight="700"><tspan class="TextPosition" x="1305" y="1479"><tspan fill="rgb(0,0,0)" stroke="none">(mtko do 5 %)</tspan></tspan></tspan></text>
 <path fill="none" stroke="rgb(131,202,255)" stroke-width="80" stroke-linejoin="round" d="M 18758,1990 L 20358,1990"/>
 <path fill="none" stroke="rgb(255,128,0)" stroke-width="80" stroke-linejoin="round" d="M 18758,2747 L 20358,2747"/>
 <path fill="none" stroke="rgb(0,169,51)" stroke-width="80" stroke-linejoin="round" stroke-dasharray="80,40" d="M 18758,3504 L 20358,3504"/>
 <path fill="none" stroke="rgb(34,75,18)" stroke-width="80" stroke-linejoin="round" stroke-dasharray="51,127,51,127,254,127,254,127,254,127" d="M 18758,4261 L 20358,4261"/>
 <path fill="none" stroke="rgb(0,0,255)" stroke-width="80" stroke-linejoin="round" stroke-dasharray="51,127,51,127,254,127,254,127,254,127" d="M 18758,5018 L 20358,5018"/>
 <path fill="none" stroke="rgb(128,0,128)" stroke-width="80" stroke-linejoin="round" d="M 18758,5775 L 20358,5775"/>
 <path fill="none" stroke="rgb(112,110,12)" stroke-width="80" stroke-linejoin="round" stroke-dasharray="80,40" d="M 18758,6532 L 20358,6532"/>
 <path fill="none" stroke="rgb(85,48,141)" stroke-width="80" stroke-linejoin="round" stroke-dasharray="80,40" d="M 18758,7289 L 20358,7289"/>
 <path fill="none" stroke="rgb(241,13,12)" stroke-width="80" stroke-linejoin="round" d="M 18758,8046 L 20358,8046"/>
 <path fill="none" stroke="rgb(0,169,51)" stroke-width="80" stroke-linejoin="round" stroke-dasharray="158,102" d="M 18758,8803 L 20358,8803"/>
 <path fill="none" stroke="rgb(129,212,26)" stroke-width="80" stroke-linejoin="round" d="M 18758,9560 L 20358,9560"/>
 <path fill="none" stroke="rgb(52,42,6)" stroke-width="80" stroke-linejoin="round" d="M 18758,10317 L 20358,10317"/>
 <path fill="none" stroke="rgb(180,120,4)" stroke-width="80" stroke-linejoin="round" d="M 18758,11074 L 20358,11074"/>
 <path fill="none" stroke="rgb(191,0,65)" stroke-width="80" stroke-linejoin="round" stroke-dasharray="51,127,51,127,254,127,254,127,254,127" d="M 18758,11831 L 20358,11831"/>
 <path fill="none" stroke="rgb(21,132,102)" stroke-width="80" stroke-linejoin="round" stroke-dasharray="80,203,80,203,203,203" d="M 18758,12587 L 20358,12587"/>
 <path fill="none" stroke="rgb(255,64,0)" stroke-width="80" stroke-linejoin="round" stroke-dasharray="80,40" d="M 18758,13344 L 20358,13344"/>
 <path fill="none" stroke="rgb(141,40,30)" stroke-width="80" stroke-linejoin="round" stroke-dasharray="80,40" d="M 18758,14101 L 20358,14101"/>
 <path fill="none" stroke="rgb(0,169,51)" stroke-width="80" stroke-linejoin="round" d="M 18758,14858 L 20358,14858"/>
 <path fill="none" stroke="rgb(0,132,209)" stroke-width="80" stroke-linejoin="round" d="M 18758,15615 L 20358,15615"/>
 <path fill="none" stroke="rgb(255,0,0)" stroke-width="80" stroke-linejoin="round" stroke-dasharray="158,102" d="M 18758,16372 L 20358,16372"/>
 <path fill="none" stroke="rgb(128,0,128)" stroke-width="80" stroke-linejoin="round" stroke-dasharray="158,158" d="M 18758,17129 L 20358,17129"/>
 <path fill="none" stroke="rgb(0,0,255)" stroke-width="80" stroke-linejoin="round" stroke-dasharray="80,40" d="M 18758,17886 L 20358,17886"/>
 <path fill="none" stroke="rgb(255,191,0)" stroke-width="80" stroke-linejoin="round" d="M 18758,18643 L 20358,18643"/>
 <path fill="none" stroke="rgb(0,0,255)" stroke-width="80" stroke-linejoin="round" stroke-dasharray="158,158" d="M 18758,19400 L 20358,19400"/>
 <path fill="none" stroke="rgb(255,191,0)" stroke-width="80" stroke-linejoin="round" stroke-dasharray="80,40" d="M 18758,20157 L 20358,20157"/>
 <path fill="none" stroke="rgb(191,0,65)" stroke-width="80" stroke-linejoin="round" stroke-dasharray="80,40" d="M 18758,20914 L 20358,20914"/>
 <path fill="none" stroke="rgb(0,223,255)" stroke-width="80" stroke-linejoin="round" stroke-dasharray="158,102" d="M 18758,21671 L 20358,21671"/>
 <text class="TextShape"><tspan class="TextParagraph" font-family="Liberation Sans, sans-serif" font-size="423px" font-weight="400"><tspan class="TextPosition" x="20458" y="2138"><tspan fill="rgb(0,0,0)" stroke="none">Itlie</tspan></tspan></tspan></text>
 <text class="TextShape"><tspan class="TextParagraph" font-family="Liberation Sans, sans-serif" font-size="423px" font-weight="400"><tspan class="TextPosition" x="20458" y="2895"><tspan fill="rgb(0,0,0)" stroke="none">Velk Britnie</tspan></tspan></tspan></text>
 <text class="TextShape"><tspan class="TextParagraph" font-family="Liberation Sans, sans-serif" font-size="423px" font-weight="400"><tspan class="TextPosition" x="20458" y="3652"><tspan fill="rgb(0,0,0)" stroke="none">Mexiko</tspan></tspan></tspan></text>
 <text class="TextShape"><tspan class="TextParagraph" font-family="Liberation Sans, sans-serif" font-size="423px" font-weight="400"><tspan class="TextPosition" x="20458" y="4409"><tspan fill="rgb(0,0,0)" stroke="none">EU_star zem</tspan></tspan></tspan></text>
 <text class="TextShape"><tspan class="TextParagraph" font-family="Liberation Sans, sans-serif" font-size="423px" font-weight="400"><tspan class="TextPosition" x="20458" y="5166"><tspan fill="rgb(0,0,0)" stroke="none">EU</tspan></tspan></tspan></text>
 <text class="TextShape"><tspan class="TextParagraph" font-family="Liberation Sans, sans-serif" font-size="423px" font-weight="400"><tspan class="TextPosition" x="20458" y="5923"><tspan fill="rgb(0,0,0)" stroke="none">panlsko</tspan></tspan></tspan></text>
 <text class="TextShape"><tspan class="TextParagraph" font-family="Liberation Sans, sans-serif" font-size="423px" font-weight="400"><tspan class="TextPosition" x="20458" y="6680"><tspan fill="rgb(0,0,0)" stroke="none">Stt New York</tspan></tspan></tspan></text>
 <text class="TextShape"><tspan class="TextParagraph" font-family="Liberation Sans, sans-serif" font-size="423px" font-weight="400"><tspan class="TextPosition" x="20458" y="7437"><tspan fill="rgb(0,0,0)" stroke="none">Kanada</tspan></tspan></tspan></text>
 <text class="TextShape"><tspan class="TextParagraph" font-family="Liberation Sans, sans-serif" font-size="423px" font-weight="400"><tspan class="TextPosition" x="20458" y="8194"><tspan fill="rgb(0,0,0)" stroke="none">vdsko</tspan></tspan></tspan></text>
 <text class="TextShape"><tspan class="TextParagraph" font-family="Liberation Sans, sans-serif" font-size="423px" font-weight="400"><tspan class="TextPosition" x="20458" y="8951"><tspan fill="rgb(0,0,0)" stroke="none">rn</tspan></tspan></tspan></text>
 <text class="TextShape"><tspan class="TextParagraph" font-family="Liberation Sans, sans-serif" font-size="423px" font-weight="400"><tspan class="TextPosition" x="20458" y="9708"><tspan fill="rgb(0,0,0)" stroke="none">vcarsko</tspan></tspan></tspan></text>
 <text class="TextShape"><tspan class="TextParagraph" font-family="Liberation Sans, sans-serif" font-size="423px" font-weight="400"><tspan class="TextPosition" x="20458" y="10465"><tspan fill="rgb(0,0,0)" stroke="none">Nmecko</tspan></tspan></tspan></text>
 <text class="TextShape"><tspan class="TextParagraph" font-family="Liberation Sans, sans-serif" font-size="423px" font-weight="400"><tspan class="TextPosition" x="20458" y="11222"><tspan fill="rgb(0,0,0)" stroke="none">Dnsko</tspan></tspan></tspan></text>
 <text class="TextShape"><tspan class="TextParagraph" font-family="Liberation Sans, sans-serif" font-size="423px" font-weight="400"><tspan class="TextPosition" x="20458" y="11978"><tspan fill="rgb(0,0,0)" stroke="none">EU_nov zem</tspan></tspan></tspan></text>
 <text class="TextShape"><tspan class="TextParagraph" font-family="Liberation Sans, sans-serif" font-size="423px" font-weight="400"><tspan class="TextPosition" x="20458" y="12735"><tspan fill="rgb(0,0,0)" stroke="none">celosvtov</tspan></tspan></tspan></text>
 <text class="TextShape"><tspan class="TextParagraph" font-family="Liberation Sans, sans-serif" font-size="423px" font-weight="400"><tspan class="TextPosition" x="20458" y="13492"><tspan fill="rgb(0,0,0)" stroke="none">Brazlie</tspan></tspan></tspan></text>
 <text class="TextShape"><tspan class="TextParagraph" font-family="Liberation Sans, sans-serif" font-size="423px" font-weight="400"><tspan class="TextPosition" x="20458" y="14249"><tspan fill="rgb(0,0,0)" stroke="none">USA</tspan></tspan></tspan></text>
 <text class="TextShape"><tspan class="TextParagraph" font-family="Liberation Sans, sans-serif" font-size="423px" font-weight="400"><tspan class="TextPosition" x="20458" y="15006"><tspan fill="rgb(0,0,0)" stroke="none">Rakousko</tspan></tspan></tspan></text>
 <text class="TextShape"><tspan class="TextParagraph" font-family="Liberation Sans, sans-serif" font-size="423px" font-weight="400"><tspan class="TextPosition" x="20458" y="15763"><tspan fill="rgb(0,0,0)" stroke="none">Norsko</tspan></tspan></tspan></text>
 <text class="TextShape"><tspan class="TextParagraph" font-family="Liberation Sans, sans-serif" font-size="423px" font-weight="400"><tspan class="TextPosition" x="20458" y="16520"><tspan fill="rgb(0,0,0)" stroke="none">Turecko</tspan></tspan></tspan></text>
 <text class="TextShape"><tspan class="TextParagraph" font-family="Liberation Sans, sans-serif" font-size="423px" font-weight="400"><tspan class="TextPosition" x="20458" y="17277"><tspan fill="rgb(0,0,0)" stroke="none">Indie</tspan></tspan></tspan></text>
 <text class="TextShape"><tspan class="TextParagraph" font-family="Liberation Sans, sans-serif" font-size="423px" font-weight="400"><tspan class="TextPosition" x="20458" y="18034"><tspan fill="rgb(0,0,0)" stroke="none">Stt Texas</tspan></tspan></tspan></text>
 <text class="TextShape"><tspan class="TextParagraph" font-family="Liberation Sans, sans-serif" font-size="423px" font-weight="400"><tspan class="TextPosition" x="20458" y="18791"><tspan fill="rgb(0,0,0)" stroke="none">esko</tspan></tspan></tspan></text>
 <text class="TextShape"><tspan class="TextParagraph" font-family="Liberation Sans, sans-serif" font-size="423px" font-weight="400"><tspan class="TextPosition" x="20458" y="19548"><tspan fill="rgb(0,0,0)" stroke="none">Jin Korea</tspan></tspan></tspan></text>
 <text class="TextShape"><tspan class="TextParagraph" font-family="Liberation Sans, sans-serif" font-size="423px" font-weight="400"><tspan class="TextPosition" x="20458" y="20305"><tspan fill="rgb(0,0,0)" stroke="none">Stt Kalifornie</tspan></tspan></tspan></text>
 <text class="TextShape"><tspan class="TextParagraph" font-family="Liberation Sans, sans-serif" font-size="423px" font-weight="400"><tspan class="TextPosition" x="20458" y="21062"><tspan fill="rgb(0,0,0)" stroke="none">Stt Florida</tspan></tspan></tspan></text>
 <text class="TextShape"><tspan class="TextParagraph" font-family="Liberation Sans, sans-serif" font-size="423px" font-weight="400"><tspan class="TextPosition" x="20458" y="21819"><tspan fill="rgb(0,0,0)" stroke="none">Rusko</tspan></tspan></tspan></text>
</svg>