<?xml version="1.0" encoding="UTF-8"?>
<!DOCTYPE svg PUBLIC "-//W3C//DTD SVG 1.1//EN" "http://www.w3.org/Graphics/SVG/1.1/DTD/svg11.dtd">
<svg width="236mm" height="250mm" viewBox="0 0 23600 25000" version="1.1" xmlns="http://www.w3.org/2000/svg" xmlns:xlink="http://www.w3.org/1999/xlink" stroke-width="28.222" stroke-linejoin="round" xml:space="preserve">
 <path fill="rgb(255,255,255)" stroke="none" d="M 11800,25000 L 0,25000 0,0 23600,0 23600,25000 11800,25000 Z"/>
 <path fill="none" stroke="rgb(179,179,179)" stroke-linejoin="round" d="M 9905,22794 L 1293,22794 1293,1799 18517,1799 18517,22794 9905,22794 Z"/>
 <path fill="none" stroke="rgb(179,179,179)" stroke-linejoin="round" d="M 18517,22793 L 1293,22793"/>
 <path fill="none" stroke="rgb(179,179,179)" stroke-linejoin="round" d="M 18517,18593 L 1293,18593"/>
 <path fill="none" stroke="rgb(179,179,179)" stroke-linejoin="round" d="M 18517,14394 L 1293,14394"/>
 <path fill="none" stroke="rgb(179,179,179)" stroke-linejoin="round" d="M 18517,10196 L 1293,10196"/>
 <path fill="none" stroke="rgb(179,179,179)" stroke-linejoin="round" d="M 18517,5997 L 1293,5997"/>
 <path fill="none" stroke="rgb(179,179,179)" stroke-linejoin="round" d="M 18517,1798 L 1293,1798"/>
 <path fill="none" stroke="rgb(179,179,179)" stroke-linejoin="round" d="M 1293,22943 L 1293,22793"/>
 <path fill="none" stroke="rgb(179,179,179)" stroke-linejoin="round" d="M 1293,22943 L 1293,22793"/>
 <path fill="none" stroke="rgb(179,179,179)" stroke-linejoin="round" d="M 2118,22943 L 2118,22793"/>
 <path fill="none" stroke="rgb(179,179,179)" stroke-linejoin="round" d="M 2118,22943 L 2118,22793"/>
 <path fill="none" stroke="rgb(179,179,179)" stroke-linejoin="round" d="M 2944,22943 L 2944,22793"/>
 <path fill="none" stroke="rgb(179,179,179)" stroke-linejoin="round" d="M 2944,22943 L 2944,22793"/>
 <path fill="none" stroke="rgb(179,179,179)" stroke-linejoin="round" d="M 3770,22943 L 3770,22793"/>
 <path fill="none" stroke="rgb(179,179,179)" stroke-linejoin="round" d="M 3770,22943 L 3770,22793"/>
 <path fill="none" stroke="rgb(179,179,179)" stroke-linejoin="round" d="M 4596,22943 L 4596,22793"/>
 <path fill="none" stroke="rgb(179,179,179)" stroke-linejoin="round" d="M 4596,22943 L 4596,22793"/>
 <path fill="none" stroke="rgb(179,179,179)" stroke-linejoin="round" d="M 5422,22943 L 5422,22793"/>
 <path fill="none" stroke="rgb(179,179,179)" stroke-linejoin="round" d="M 5422,22943 L 5422,22793"/>
 <path fill="none" stroke="rgb(179,179,179)" stroke-linejoin="round" d="M 6248,22943 L 6248,22793"/>
 <path fill="none" stroke="rgb(179,179,179)" stroke-linejoin="round" d="M 6248,22943 L 6248,22793"/>
 <path fill="none" stroke="rgb(179,179,179)" stroke-linejoin="round" d="M 7073,22943 L 7073,22793"/>
 <path fill="none" stroke="rgb(179,179,179)" stroke-linejoin="round" d="M 7073,22943 L 7073,22793"/>
 <path fill="none" stroke="rgb(179,179,179)" stroke-linejoin="round" d="M 7899,22943 L 7899,22793"/>
 <path fill="none" stroke="rgb(179,179,179)" stroke-linejoin="round" d="M 7899,22943 L 7899,22793"/>
 <path fill="none" stroke="rgb(179,179,179)" stroke-linejoin="round" d="M 8725,22943 L 8725,22793"/>
 <path fill="none" stroke="rgb(179,179,179)" stroke-linejoin="round" d="M 8725,22943 L 8725,22793"/>
 <path fill="none" stroke="rgb(179,179,179)" stroke-linejoin="round" d="M 9551,22943 L 9551,22793"/>
 <path fill="none" stroke="rgb(179,179,179)" stroke-linejoin="round" d="M 9551,22943 L 9551,22793"/>
 <path fill="none" stroke="rgb(179,179,179)" stroke-linejoin="round" d="M 10377,22943 L 10377,22793"/>
 <path fill="none" stroke="rgb(179,179,179)" stroke-linejoin="round" d="M 10377,22943 L 10377,22793"/>
 <path fill="none" stroke="rgb(179,179,179)" stroke-linejoin="round" d="M 11203,22943 L 11203,22793"/>
 <path fill="none" stroke="rgb(179,179,179)" stroke-linejoin="round" d="M 11203,22943 L 11203,22793"/>
 <path fill="none" stroke="rgb(179,179,179)" stroke-linejoin="round" d="M 12028,22943 L 12028,22793"/>
 <path fill="none" stroke="rgb(179,179,179)" stroke-linejoin="round" d="M 12028,22943 L 12028,22793"/>
 <path fill="none" stroke="rgb(179,179,179)" stroke-linejoin="round" d="M 12853,22943 L 12853,22793"/>
 <path fill="none" stroke="rgb(179,179,179)" stroke-linejoin="round" d="M 12853,22943 L 12853,22793"/>
 <path fill="none" stroke="rgb(179,179,179)" stroke-linejoin="round" d="M 13679,22943 L 13679,22793"/>
 <path fill="none" stroke="rgb(179,179,179)" stroke-linejoin="round" d="M 13679,22943 L 13679,22793"/>
 <path fill="none" stroke="rgb(179,179,179)" stroke-linejoin="round" d="M 14505,22943 L 14505,22793"/>
 <path fill="none" stroke="rgb(179,179,179)" stroke-linejoin="round" d="M 14505,22943 L 14505,22793"/>
 <path fill="none" stroke="rgb(179,179,179)" stroke-linejoin="round" d="M 15331,22943 L 15331,22793"/>
 <path fill="none" stroke="rgb(179,179,179)" stroke-linejoin="round" d="M 15331,22943 L 15331,22793"/>
 <path fill="none" stroke="rgb(179,179,179)" stroke-linejoin="round" d="M 16157,22943 L 16157,22793"/>
 <path fill="none" stroke="rgb(179,179,179)" stroke-linejoin="round" d="M 16157,22943 L 16157,22793"/>
 <path fill="none" stroke="rgb(179,179,179)" stroke-linejoin="round" d="M 16983,22943 L 16983,22793"/>
 <path fill="none" stroke="rgb(179,179,179)" stroke-linejoin="round" d="M 16983,22943 L 16983,22793"/>
 <path fill="none" stroke="rgb(179,179,179)" stroke-linejoin="round" d="M 17809,22943 L 17809,22793"/>
 <path fill="none" stroke="rgb(179,179,179)" stroke-linejoin="round" d="M 17809,22943 L 17809,22793"/>
 <path fill="none" stroke="rgb(179,179,179)" stroke-linejoin="round" d="M 1293,22793 L 18517,22793"/>
 <path fill="none" stroke="rgb(179,179,179)" stroke-linejoin="round" d="M 1143,22793 L 1293,22793"/>
 <path fill="none" stroke="rgb(179,179,179)" stroke-linejoin="round" d="M 1143,22793 L 1293,22793"/>
 <path fill="none" stroke="rgb(179,179,179)" stroke-linejoin="round" d="M 1143,18593 L 1293,18593"/>
 <path fill="none" stroke="rgb(179,179,179)" stroke-linejoin="round" d="M 1143,18593 L 1293,18593"/>
 <path fill="none" stroke="rgb(179,179,179)" stroke-linejoin="round" d="M 1143,14394 L 1293,14394"/>
 <path fill="none" stroke="rgb(179,179,179)" stroke-linejoin="round" d="M 1143,14394 L 1293,14394"/>
 <path fill="none" stroke="rgb(179,179,179)" stroke-linejoin="round" d="M 1143,10196 L 1293,10196"/>
 <path fill="none" stroke="rgb(179,179,179)" stroke-linejoin="round" d="M 1143,10196 L 1293,10196"/>
 <path fill="none" stroke="rgb(179,179,179)" stroke-linejoin="round" d="M 1143,5997 L 1293,5997"/>
 <path fill="none" stroke="rgb(179,179,179)" stroke-linejoin="round" d="M 1143,5997 L 1293,5997"/>
 <path fill="none" stroke="rgb(179,179,179)" stroke-linejoin="round" d="M 1143,1798 L 1293,1798"/>
 <path fill="none" stroke="rgb(179,179,179)" stroke-linejoin="round" d="M 1143,1798 L 1293,1798"/>
 <path fill="none" stroke="rgb(179,179,179)" stroke-linejoin="round" d="M 1293,22793 L 1293,1798"/>
 <path fill="none" stroke="rgb(255,128,0)" stroke-width="80" stroke-linejoin="round" d="M 1351,21054 L 1469,19060 1587,18730 1705,18532 1823,18945 1941,18501 2059,17723 2177,17470 2295,17083 2413,17409 2531,17262 2649,16249 2767,15290 2885,14586 3003,13388 3121,13184 3239,13504 3357,13158 3475,13060 3593,12040 3711,11146 3829,10266 3947,9983 4065,10082 4183,10431 4301,9892 4419,9468 4537,8793 4655,8048 4773,8164 4891,8478 5009,8625 5127,8397 5245,8302 5363,7921 5481,7643 5599,7335 5717,7583 5835,7863 5953,7697 6071,7732 6189,7815 6307,7599 6425,7622 6543,7895 6661,8272 6779,8261 6897,8297 7015,8283 7132,8208 7250,8308 7368,8557 7486,8864 7604,8925 7722,8985 7840,8980 7958,8919 8076,9012 8194,9156 8312,9328 8430,9317 8548,9314 8666,9280 8784,9276 8902,9314 9020,9458 9138,9595 9256,9544 9374,9554 9492,9550 9610,9525 9728,9569 9846,9584 9964,9690 10082,9781 10200,9738 10318,9676 10436,9621 10554,9629 10672,9677 10790,9734 10908,9716 11026,9673 11144,9671 11262,9609 11380,9616 11498,9665 11616,9715 11734,9684 11851,9659 11969,9651 12087,9622 12205,9618 12323,9664 12441,9710 12559,9685 12677,9679 12794,9680 12912,9665 13030,9675 13148,9713 13266,9756 13384,9752 13502,9752 13620,9738 13738,9712 13856,9724 13974,9754 14092,9783 14210,9768 14328,9746 14446,9748 14564,9727 14682,9736 14800,9748 14918,9746 15036,9700 15154,9686 15272,9690 15390,9700 15508,9673 15626,9693 15744,9719 15862,9708 15980,9707 16098,9725 16216,9721 16334,9734 16452,9782 16570,9802 16688,9799 16806,9807 16924,9828 17042,9825 17160,9833 17278,9849 17396,9871 17514,9872 17632,9882 17750,9904 17868,9903 17986,9911 18104,9933 18222,9964 18340,10000 18458,10037"/>
 <path fill="none" stroke="rgb(131,202,255)" stroke-width="80" stroke-linejoin="round" d="M 1351,8377 L 1469,9599 1587,7824 1705,8250 1823,8884 1941,8631 2059,9277 2177,9110 2295,8311 2413,8196 2531,8503 2649,8835 2767,9392 2885,9916 3003,9822 3121,9626 3239,9707 3357,9707 3475,9842 3593,10021 3711,10156 3829,10172 3947,10112 4065,10181 4183,10244 4301,10312 4419,10410 4537,10476 4655,10517 4773,10458 4891,10468 5009,10466 5127,10475 5245,10476 5363,10566 5481,10577 5599,10565 5717,10565 5835,10531 5953,10540 6071,10576 6189,10597 6307,10607 6425,10567 6543,10629 6661,10699 6779,10699 6897,10747 7015,10770 7132,10797 7250,10702 7368,10755 7486,10798 7604,10811 7722,10775 7840,10774 7958,10756 8076,10749 8194,10745 8312,10756 8430,10767 8548,10765 8666,10724 8784,10675 8902,10658 9020,10680 9138,10691 9256,10684 9374,10666 9492,10655 9610,10643 9728,10623 9846,10648 9964,10649 10082,10655 10200,10646 10318,10656 10436,10653 10554,10628 10672,10621 10790,10630 10908,10642 11026,10643 11144,10633 11262,10620 11380,10604 11498,10602 11616,10595 11734,10576 11851,10578 11969,10573 12087,10563 12205,10550 12323,10549 12441,10550 12559,10557 12677,10551 12794,10545 12912,10546 13030,10544 13148,10546 13266,10555 13384,10566 13502,10569 13620,10571 13738,10572 13856,10580 13974,10578 14092,10605 14210,10612 14328,10618 14446,10616 14564,10620 14682,10619 14800,10624 14918,10630 15036,10630 15154,10636 15272,10644 15390,10649 15508,10657 15626,10661 15744,10666 15862,10671 15980,10680 16098,10683 16216,10690 16334,10694 16452,10699 16570,10702 16688,10708 16806,10717 16924,10726 17042,10735 17160,10742 17278,10747 17396,10759 17514,10770 17632,10780 17750,10793 17868,10802 17986,10809 18104,10816 18222,10826 18340,10842 18458,10857"/>
 <path fill="none" stroke="rgb(0,169,51)" stroke-width="80" stroke-linejoin="round" stroke-dasharray="80,40" d="M 1351,22793 L 1469,22793 1587,22793 1705,22793 1823,22793 1941,22793 2059,20744 2177,19623 2295,20744 2413,20083 2531,19946 2649,20232 2767,20310 2885,20116 3003,19603 3121,19131 3239,18645 3357,17842 3475,18629 3593,18459 3711,17841 3829,17718 3947,16728 4065,16295 4183,15174 4301,14950 4419,14135 4537,14172 4655,13661 4773,13392 4891,13866 5009,14027 5127,12883 5245,12983 5363,13118 5481,12954 5599,11906 5717,12122 5835,12566 5953,11364 6071,10944 6189,10818 6307,10380 6425,10299 6543,10851 6661,11372 6779,11466 6897,11493 7015,11514 7132,11509 7250,11647 7368,11995 7486,12078 7604,11841 7722,11843 7840,11535 7958,11486 8076,11487 8194,11612 8312,11935 8430,11660 8548,11550 8666,11556 8784,11362 8902,11130 9020,11449 9138,11650 9256,11622 9374,11436 9492,11196 9610,10868 9728,11116 9846,11367 9964,11466 10082,11325 10200,11246 10318,11260 10436,11270 10554,11243 10672,11608 10790,11850 10908,11819 11026,11154 11144,10754 11262,10594 11380,10649 11498,10972 11616,11136 11734,11152 11851,11071 11969,11008 12087,10997 12205,10995 12323,11212 12441,11365 12559,11316 12677,11282 12794,11171 12912,11129 13030,11179 13148,10958 13266,10924 13384,10927 13502,10811 13620,10781 13738,10802 13856,10825 13974,11101 14092,11222 14210,11302 14328,11304 14446,11274 14564,11236 14682,11236 14800,11412 14918,11517 15036,11521 15154,11563 15272,11628 15390,11614 15508,11650 15626,11824 15744,11955 15862,11986 15980,12075 16098,12106 16216,12060 16334,12066 16452,12229 16570,12354 16688,12323 16806,12352 16924,12409 17042,12389 17160,12368 17278,12496 17396,12587 17514,12626 17632,12722 17750,12759 17868,12752 17986,12712 18104,12835 18222,12920 18340,12931 18458,12963"/>
 <path fill="none" stroke="rgb(21,132,102)" stroke-width="80" stroke-linejoin="round" stroke-dasharray="51,127,51,127,254,127,254,127,254,127" d="M 1351,11512 L 1469,12092 1587,11580 1705,12049 1823,11475 1941,13299 2059,13370 2177,12805 2295,12574 2413,12499 2531,12550 2649,12850 2767,12877 2885,12930 3003,12701 3121,12840 3239,12884 3357,13076 3475,13349 3593,13418 3711,13434 3829,13271 3947,13228 4065,13458 4183,13533 4301,13377 4419,13465 4537,13357 4655,13221 4773,13212 4891,13225 5009,13287 5127,13339 5245,13188 5363,13107 5481,13343 5599,13335 5717,13328 5835,13352 5953,13482 6071,13466 6189,13358 6307,13387 6425,13344 6543,13385 6661,13363 6779,13386 6897,13220 7015,13221 7132,13231 7250,13202 7368,13237 7486,13204 7604,13188 7722,13110 7840,13088 7958,13033 8076,13019 8194,13035 8312,13062 8430,13050 8548,13049 8666,13014 8784,12992 8902,13016 9020,12994 9138,12991 9256,13022 9374,13014 9492,13007 9610,12948 9728,12945 9846,12966 9964,13136 10082,13116 10200,13130 10318,13132 10436,13126 10554,13118 10672,13131 10790,13142 10908,13190 11026,13202 11144,13223 11262,13222 11380,13223 11498,13227 11616,13249 11734,13258 11851,13274 11969,13294 12087,13305 12205,13312 12323,13331 12441,13346 12559,13360 12677,13376 12794,13392 12912,13316 13030,13327 13148,13348 13266,13372 13384,13399 13502,13429 13620,13444 13738,13449 13856,13463 13974,13495 14092,13517 14210,13534 14328,13566 14446,13572 14564,13572 14682,13614 14800,13633 14918,13659 15036,13679 15154,13698 15272,13701 15390,13706 15508,13746 15626,13759 15744,13772 15862,13796 15980,13812 16098,13818 16216,13823 16334,13863 16452,13876 16570,13898 16688,13927 16806,13956 16924,13963 17042,13967 17160,14030 17278,14052 17396,14084 17514,14120 17632,14156 17750,14168 17868,14176 17986,14248 18104,14276 18222,14306 18340,14351 18458,14406"/>
 <path fill="none" stroke="rgb(128,0,128)" stroke-width="80" stroke-linejoin="round" d="M 1351,6196 L 1469,7531 1587,8474 1705,10179 1823,3135 1941,12792 2059,11886 2177,11560 2295,11178 2413,10126 2531,8840 2649,9665 2767,7787 2885,8346 3003,7794 3121,8495 3239,8469 3357,9706 3475,10492 3593,10798 3711,10927 3829,11054 3947,11386 4065,11726 4183,12032 4301,12268 4419,12372 4537,12510 4655,12534 4773,12588 4891,12610 5009,12732 5127,12896 5245,12866 5363,12842 5481,12723 5599,12897 5717,12837 5835,12934 5953,13128 6071,13235 6189,13087 6307,13271 6425,13186 6543,13254 6661,13313 6779,13401 6897,12749 7015,12782 7132,12865 7250,12729 7368,12726 7486,12763 7604,12714 7722,12702 7840,12683 7958,12636 8076,12592 8194,12599 8312,12598 8430,12583 8548,12578 8666,12530 8784,12513 8902,12614 9020,12641 9138,12617 9256,12629 9374,12617 9492,12621 9610,12372 9728,12394 9846,12387 9964,13102 10082,13020 10200,13094 10318,13113 10436,13132 10554,13115 10672,13150 10790,13150 10908,13216 11026,13242 11144,13267 11262,13277 11380,13283 11498,13294 11616,13310 11734,13323 11851,13335 11969,13348 12087,13358 12205,13364 12323,13374 12441,13386 12559,13403 12677,13422 12794,13437 12912,13044 13030,13049 13148,13057 13266,13071 13384,13094 13502,13105 13620,13118 13738,13129 13856,13137 13974,13146 14092,13158 14210,13170 14328,13183 14446,13204 14564,13210 14682,13218 14800,13229 14918,13243 15036,13259 15154,13274 15272,13272 15390,13272 15508,13319 15626,13332 15744,13345 15862,13364 15980,13394 16098,13393 16216,13392 16334,13467 16452,13491 16570,13522 16688,13570 16806,13619 16924,13618 17042,13618 17160,13776 17278,13822 17396,13867 17514,13953 17632,14024 17750,14024 17868,14023 17986,14223 18104,14279 18222,14332 18340,14407 18458,14497"/>
 <path fill="none" stroke="rgb(0,0,255)" stroke-width="80" stroke-linejoin="round" stroke-dasharray="51,127,51,127,254,127,254,127,254,127" d="M 1351,11604 L 1469,12154 1587,11666 1705,12175 1823,11617 1941,13458 2059,13555 2177,13015 2295,12792 2413,12723 2531,12770 2649,13063 2767,13082 2885,13144 3003,12928 3121,13060 3239,13108 3357,13291 3475,13553 3593,13627 3711,13641 3829,13486 3947,13443 4065,13666 4183,13735 4301,13588 4419,13674 4537,13574 4655,13445 4773,13433 4891,13448 5009,13513 5127,13564 5245,13420 5363,13346 5481,13565 5599,13556 5717,13546 5835,13569 5953,13695 6071,13680 6189,13579 6307,13606 6425,13563 6543,13605 6661,13586 6779,13608 6897,13454 7015,13453 7132,13465 7250,13436 7368,13470 7486,13441 7604,13426 7722,13353 7840,13329 7958,13279 8076,13268 8194,13286 8312,13312 8430,13303 8548,13301 8666,13269 8784,13250 8902,13274 9020,13258 9138,13257 9256,13289 9374,13284 9492,13280 9610,13227 9728,13226 9846,13250 9964,13414 10082,13397 10200,13414 10318,13418 10436,13415 10554,13409 10672,13425 10790,13439 10908,13484 11026,13497 11144,13520 11262,13518 11380,13521 11498,13527 11616,13549 11734,13560 11851,13577 11969,13601 12087,13616 12205,13626 12323,13646 12441,13663 12559,13678 12677,13696 12794,13712 12912,13644 13030,13656 13148,13680 13266,13707 13384,13735 13502,13765 13620,13782 13738,13790 13856,13806 13974,13838 14092,13862 14210,13882 14328,13915 14446,13926 14564,13929 14682,13970 14800,13992 14918,14021 15036,14044 15154,14066 15272,14074 15390,14082 15508,14120 15626,14138 15744,14156 15862,14184 15980,14205 16098,14217 16216,14226 16334,14266 16452,14284 16570,14311 16688,14343 16806,14376 16924,14390 17042,14400 17160,14461 17278,14490 17396,14529 17514,14570 17632,14611 17750,14631 17868,14645 17986,14715 18104,14749 18222,14786 18340,14835 18458,14892"/>
 <path fill="none" stroke="rgb(112,110,12)" stroke-width="80" stroke-linejoin="round" stroke-dasharray="80,40" d="M 1351,21208 L 1469,19835 1587,17194 1705,14776 1823,13803 1941,10824 2059,10189 2177,2719 2295,5858 2413,7519 2531,12095 2649,15225 2767,16166 2885,16261 3003,16270 3121,16354 3239,16151 3357,15753 3475,15600 3593,15352 3711,15080 3829,15022 3947,15095 4065,15115 4183,14827 4301,14583 4419,14615 4537,14676 4655,14712 4773,14652 4891,14535 5009,14603 5127,14688 5245,14802 5363,14841 5481,14711 5599,14540 5717,14889 5835,15068 5953,15152 6071,15193 6189,15181 6307,15175 6425,15182 6543,15201 6661,15182 6779,15227 6897,15315 7015,15484 7132,15526 7250,15541 7368,15537 7486,15549 7604,15583 7722,15520 7840,15567 7958,15561 8076,15560 8194,15565 8312,15576 8430,15597 8548,15610 8666,15627 8784,15610 8902,15602 9020,15601 9138,15626 9256,15627 9374,15655 9492,15683 9610,15697 9728,15677 9846,15686 9964,15693 10082,15721 10200,15711 10318,15738 10436,15744 10554,15748 10672,15755 10790,15746 10908,15768 11026,15784 11144,15781 11262,15788 11380,15794 11498,15798 11616,15805 11734,15817 11851,15819 11969,15833 12087,15813 12205,15822 12323,15828 12441,15834 12559,15835 12677,15845 12794,15856 12912,15864 13030,15858 13148,15861 13266,15864 13384,15862 13502,15870 13620,15874 13738,15882 13856,15888 13974,15898 14092,15904 14210,15902 14328,15914 14446,15922 14564,15917 14682,15919 14800,15918 14918,15926 15036,15936 15154,15950 15272,15956 15390,15955 15508,15962 15626,15970 15744,15973 15862,15980 15980,15989 16098,15998 16216,16006 16334,16012 16452,16024 16570,16035 16688,16045 16806,16050 16924,16055 17042,16063 17160,16069 17278,16079 17396,16087 17514,16099 17632,16110 17750,16117 17868,16125 17986,16134 18104,16139 18222,16149 18340,16160 18458,16164"/>
 <path fill="none" stroke="rgb(85,48,141)" stroke-width="80" stroke-linejoin="round" stroke-dasharray="80,40" d="M 1351,21480 L 1469,21702 1587,21729 1705,19682 1823,19203 1941,19311 2059,18975 2177,18793 2295,18947 2413,19103 2531,19597 2649,20063 2767,20121 2885,20293 3003,19705 3121,20339 3239,20866 3357,20726 3475,20694 3593,20837 3711,20699 3829,20399 3947,20318 4065,20242 4183,19814 4301,20001 4419,20044 4537,19537 4655,19824 4773,19476 4891,19437 5009,19366 5127,19129 5245,18955 5363,18258 5481,18106 5599,18211 5717,17931 5835,17651 5953,17586 6071,17474 6189,17314 6307,17131 6425,17059 6543,17065 6661,17066 6779,17007 6897,16894 7015,16798 7132,16608 7250,16557 7368,16561 7486,16433 7604,16331 7722,16285 7840,16209 7958,16273 8076,16255 8194,16162 8312,16152 8430,16069 8548,16060 8666,15978 8784,15988 8902,15957 9020,15947 9138,15989 9256,16023 9374,15993 9492,15975 9610,15974 9728,15954 9846,15975 9964,15941 10082,15938 10200,15913 10318,15906 10436,15904 10554,15891 10672,15762 10790,15805 10908,15813 11026,15791 11144,15723 11262,15729 11380,15725 11498,15752 11616,15773 11734,15767 11851,15757 11969,15766 12087,15771 12205,15764 12323,15767 12441,15793 12559,15787 12677,15783 12794,15774 12912,15760 13030,15736 13148,15746 13266,15764 13384,15775 13502,15779 13620,15791 13738,15809 13856,15828 13974,15847 14092,15831 14210,15838 14328,15827 14446,15826 14564,15829 14682,15863 14800,15875 14918,15880 15036,15890 15154,15894 15272,15900 15390,15902 15508,15924 15626,15928 15744,15943 15862,15956 15980,15967 16098,15964 16216,15969 16334,16003 16452,16022 16570,16038 16688,16061 16806,16083 16924,16097 17042,16112 17160,16153 17278,16180 17396,16191 17514,16217 17632,16254 17750,16266 17868,16279 17986,16313 18104,16332 18222,16355 18340,16366 18458,16395"/>
 <path fill="none" stroke="rgb(241,13,12)" stroke-width="80" stroke-linejoin="round" d="M 1351,22379 L 1469,22115 1587,22083 1705,21785 1823,21811 1941,21761 2059,21831 2177,21478 2295,21270 2413,21310 2531,21151 2649,20691 2767,19616 2885,19124 3003,18233 3121,18482 3239,18751 3357,17938 3475,17470 3593,16252 3711,15288 3829,14666 3947,15015 4065,15199 4183,14695 4301,13878 4419,13382 4537,12457 4655,12096 4773,12456 4891,12978 5009,13625 5127,13302 5245,12362 5363,11765 5481,11577 5599,11202 5717,11493 5835,11668 5953,10973 6071,10484 6189,10514 6307,10229 6425,10335 6543,10768 6661,10860 6779,10989 6897,11023 7015,10845 7132,10840 7250,10950 7368,11327 7486,11339 7604,11429 7722,11316 7840,11232 7958,10845 8076,10891 8194,11127 8312,11361 8430,11494 8548,11292 8666,11360 8784,11160 8902,11224 9020,11464 9138,11665 9256,11795 9374,11778 9492,11839 9610,11858 9728,11757 9846,11892 9964,12059 10082,12025 10200,11991 10318,11998 10436,11875 10554,11887 10672,12076 10790,12255 10908,12291 11026,12336 11144,12470 11262,12416 11380,12453 11498,12653 11616,13131 11734,13334 11851,13414 11969,13580 12087,13679 12205,13723 12323,13879 12441,14018 12559,14202 12677,14271 12794,14460 12912,14486 13030,14601 13148,14743 13266,14909 13384,15058 13502,15260 13620,15296 13738,15257 13856,15268 13974,15504 14092,15637 14210,15782 14328,15869 14446,15816 14564,15804 14682,16066 14800,16143 14918,16245 15036,16316 15154,16346 15272,16325 15390,16294 15508,16440 15626,16465 15744,16498 15862,16528 15980,16545 16098,16521 16216,16492 16334,16569 16452,16583 16570,16601 16688,16625 16806,16634 16924,16624 17042,16601 17160,16662 17278,16671 17396,16695 17514,16713 17632,16701 17750,16691 17868,16687 17986,16718 18104,16725 18222,16746 18340,16767 18458,16777"/>
 <path fill="none" stroke="rgb(129,212,26)" stroke-width="80" stroke-linejoin="round" d="M 1351,20051 L 1469,19873 1587,20398 1705,20989 1823,19315 1941,20728 2059,20259 2177,20731 2295,19929 2413,19744 2531,19464 2649,20278 2767,20365 2885,20353 3003,20197 3121,20272 3239,20242 3357,20026 3475,19714 3593,19622 3711,19594 3829,19445 3947,19280 4065,19176 4183,19177 4301,19130 4419,18959 4537,18910 4655,18804 4773,18775 4891,18618 5009,18687 5127,18693 5245,18554 5363,18507 5481,18407 5599,18320 5717,18282 5835,18236 5953,18149 6071,18112 6189,18045 6307,17982 6425,17987 6543,17974 6661,17846 6779,17785 6897,17767 7015,17744 7132,17724 7250,17718 7368,17736 7486,17698 7604,17697 7722,17689 7840,17694 7958,17673 8076,17666 8194,17663 8312,17638 8430,17588 8548,17593 8666,17595 8784,17588 8902,17592 9020,17593 9138,17584 9256,17579 9374,17585 9492,17579 9610,17567 9728,17564 9846,17564 9964,17552 10082,17553 10200,17549 10318,17547 10436,17549 10554,17551 10672,17550 10790,17553 10908,17556 11026,17559 11144,17562 11262,17565 11380,17566 11498,17567 11616,17565 11734,17538 11851,17537 11969,17537 12087,17536 12205,17537 12323,17540 12441,17541 12559,17506 12677,17504 12794,17509 12912,17513 13030,17516 13148,17520 13266,17525 13384,17527 13502,17528 13620,17529 13738,17527 13856,17530 13974,17533 14092,17541 14210,17547 14328,17551 14446,17563 14564,17573 14682,17579 14800,17589 14918,17611 15036,17627 15154,17649 15272,17664 15390,17676 15508,17678 15626,17686 15744,17707 15862,17720 15980,17737 16098,17754 16216,17764 16334,17773 16452,17784 16570,17799 16688,17818 16806,17831 16924,17840 17042,17850 17160,17856 17278,17872 17396,17890 17514,17907 17632,17926 17750,17945 17868,17958 17986,17967 18104,17985 18222,18012 18340,18042 18458,18063"/>
 <path fill="none" stroke="rgb(180,120,4)" stroke-width="80" stroke-linejoin="round" d="M 1351,22793 L 1469,21880 1587,22156 1705,22225 1823,22248 1941,22375 2059,22190 2177,21929 2295,21622 2413,21727 2531,20986 2649,20599 2767,20657 2885,20368 3003,19908 3121,19320 3239,19273 3357,19319 3475,19056 3593,18822 3711,18426 3829,18240 3947,17885 4065,17846 4183,18019 4301,18021 4419,18153 4537,18130 4655,18244 4773,18313 4891,18439 5009,18516 5127,18485 5245,18477 5363,18438 5481,18362 5599,18331 5717,18347 5835,18347 5953,18400 6071,18355 6189,18343 6307,18327 6425,18240 6543,18301 6661,18370 6779,18386 6897,18368 7015,18400 7132,18389 7250,18308 7368,18300 7486,18295 7604,18277 7722,18323 7840,18298 7958,18283 8076,18316 8194,18358 8312,18376 8430,18488 8548,18495 8666,18504 8784,18549 8902,18535 9020,18535 9138,18557 9256,18551 9374,18559 9492,18531 9610,18557 9728,18573 9846,18594 9964,18614 10082,18638 10200,18640 10318,18640 10436,18666 10554,18653 10672,18646 10790,18651 10908,18633 11026,18662 11144,18662 11262,18646 11380,18649 11498,18647 11616,18632 11734,18646 11851,18668 11969,18685 12087,18686 12205,18670 12323,18683 12441,18681 12559,18688 12677,18709 12794,18709 12912,18726 13030,18734 13148,18745 13266,18746 13384,18755 13502,18770 13620,18770 13738,18764 13856,18807 13974,18817 14092,18828 14210,18834 14328,18840 14446,18840 14564,18840 14682,18863 14800,18868 14918,18869 15036,18863 15154,18868 15272,18868 15390,18868 15508,18882 15626,18885 15744,18882 15862,18887 15980,18896 16098,18896 16216,18889 16334,18916 16452,18923 16570,18932 16688,18942 16806,18956 16924,18949 17042,18944 17160,18969 17278,18981 17396,18994 17514,19005 17632,19013 17750,19007 17868,19013 17986,19043 18104,19053 18222,19062 18340,19088 18458,19105"/>
 <path fill="none" stroke="rgb(52,42,6)" stroke-width="80" stroke-linejoin="round" d="M 1351,22227 L 1469,22150 1587,22158 1705,22044 1823,21823 1941,22153 2059,21987 2177,21822 2295,21822 2413,21940 2531,21954 2649,21932 2767,21921 2885,21783 3003,21638 3121,21541 3239,21435 3357,21341 3475,21311 3593,21274 3711,21181 3829,21068 3947,20979 4065,20940 4183,20840 4301,20796 4419,20628 4537,20514 4655,20472 4773,20570 4891,20435 5009,20425 5127,20452 5245,20178 5363,20068 5481,19934 5599,19913 5717,19860 5835,19762 5953,19723 6071,19657 6189,19526 6307,19461 6425,19436 6543,19408 6661,19377 6779,19330 6897,19288 7015,19239 7132,19207 7250,19189 7368,19187 7486,19157 7604,19190 7722,19069 7840,19029 7958,18985 8076,18977 8194,18986 8312,18966 8430,18957 8548,18922 8666,18928 8784,18934 8902,18929 9020,18931 9138,18932 9256,18903 9374,18889 9492,18873 9610,18874 9728,18863 9846,18880 9964,18883 10082,18865 10200,18854 10318,18840 10436,18832 10554,18826 10672,18834 10790,18834 10908,18845 11026,18843 11144,18834 11262,18828 11380,18825 11498,18826 11616,18826 11734,18815 11851,18818 11969,18820 12087,18821 12205,18825 12323,18829 12441,18827 12559,18825 12677,18822 12794,18812 12912,18812 13030,18812 13148,18824 13266,18830 13384,18849 13502,18852 13620,18855 13738,18856 13856,18865 13974,18880 14092,18884 14210,18888 14328,18899 14446,18903 14564,18906 14682,18909 14800,18915 14918,18925 15036,18930 15154,18932 15272,18935 15390,18939 15508,18947 15626,18952 15744,18957 15862,18961 15980,18967 16098,18971 16216,18975 16334,18978 16452,18983 16570,18991 16688,18999 16806,19009 16924,19013 17042,19014 17160,19024 17278,19031 17396,19041 17514,19050 17632,19061 17750,19070 17868,19075 17986,19081 18104,19091 18222,19106 18340,19120 18458,19129"/>
 <path fill="none" stroke="rgb(191,0,65)" stroke-width="80" stroke-linejoin="round" stroke-dasharray="51,127,51,127,254,127,254,127,254,127" d="M 1351,20602 L 1469,18856 1587,19562 1705,20653 1823,20788 1941,21545 2059,21723 2177,21786 2295,21844 2413,21579 2531,21468 2649,21257 2767,20975 2885,20973 3003,21032 3121,20853 3239,20772 3357,20492 3475,20380 3593,20358 3711,20178 3829,20015 3947,19922 4065,19875 4183,19712 4301,19599 4419,19468 4537,19401 4655,19359 4773,19210 4891,19125 5009,19150 5127,19068 5245,19008 5363,18990 5481,18934 5599,18883 5717,18765 5835,18714 5953,18707 6071,18666 6189,18623 6307,18550 6425,18476 6543,18483 6661,18459 6779,18414 6897,18369 7015,18306 7132,18292 7250,18247 7368,18230 7486,18208 7604,18167 7722,18133 7840,18072 7958,18037 8076,18029 8194,18025 8312,18026 8430,18018 8548,17966 8666,17952 8784,17938 8902,17932 9020,17963 9138,17960 9256,17967 9374,17981 9492,17995 9610,17990 9728,18001 9846,18025 9964,18036 10082,18041 10200,18062 10318,18072 10436,18075 10554,18076 10672,18106 10790,18123 10908,18118 11026,18114 11144,18136 11262,18106 11380,18112 11498,18124 11616,18135 11734,18135 11851,18140 11969,18178 12087,18202 12205,18219 12323,18226 12441,18233 12559,18242 12677,18250 12794,18236 12912,18245 13030,18245 13148,18268 13266,18300 13384,18311 13502,18311 13620,18325 13738,18324 13856,18343 13974,18353 14092,18365 14210,18381 14328,18400 14446,18417 14564,18419 14682,18434 14800,18458 14918,18481 15036,18499 15154,18517 15272,18540 15390,18549 15508,18555 15626,18584 15744,18613 15862,18631 15980,18660 16098,18692 16216,18708 16334,18722 16452,18751 16570,18783 16688,18803 16806,18828 16924,18854 17042,18873 17160,18896 17278,18937 17396,18980 17514,19014 17632,19045 17750,19071 17868,19086 17986,19110 18104,19142 18222,19180 18340,19212 18458,19232"/>
 <path fill="none" stroke="rgb(21,132,102)" stroke-width="80" stroke-linejoin="round" stroke-dasharray="80,203,80,203,203,203" d="M 1351,18659 L 1469,18493 1587,18222 1705,18047 1823,17742 1941,17724 2059,17491 2177,17106 2295,16780 2413,16541 2531,16363 2649,16317 2767,16166 2885,16040 3003,15835 3121,15790 3239,15781 3357,15793 3475,15850 3593,15815 3711,15727 3829,15612 3947,15574 4065,15718 4183,15764 4301,15670 4419,15689 4537,15626 4655,15545 4773,15553 4891,15602 5009,15678 5127,15699 5245,15650 5363,15612 5481,15581 5599,15557 5717,15617 5835,15675 5953,15713 6071,15736 6189,15712 6307,15715 6425,15734 6543,15813 6661,15867 6779,15893 6897,15904 7015,15932 7132,15954 7250,15957 7368,16029 7486,16083 7604,16104 7722,16113 7840,16139 7958,16152 8076,16193 8194,16255 8312,16333 8430,16362 8548,16399 8666,16426 8784,16437 8902,16469 9020,16527 9138,16586 9256,16631 9374,16671 9492,16710 9610,16717 9728,16759 9846,16824 9964,16927 10082,16980 10200,17015 10318,17055 10436,17082 10554,17109 10672,17160 10790,17216 10908,17261 11026,17294 11144,17348 11262,17378 11380,17408 11498,17474 11616,17523 11734,17562 11851,17598 11969,17642 12087,17673 12205,17697 12323,17745 12441,17797 12559,17812 12677,17839 12794,17871 12912,17887 13030,17916 13148,17959 13266,18006 13384,18032 13502,18081 13620,18120 13738,18142 13856,18171 13974,18225 14092,18275 14210,18314 14328,18359 14446,18395 14564,18424 14682,18455 14800,18500 14918,18557 15036,18591 15154,18628 15272,18659 15390,18686 15508,18710 15626,18754 15744,18799 15862,18834 15980,18871 16098,18899 16216,18913 16334,18934 16452,18973 16570,19013 16688,19044 16806,19067 16924,19070 17042,19089 17160,19110 17278,19147 17396,19185 17514,19216 17632,19244 17750,19269 17868,19283 17986,19303 18104,19334 18222,19371 18340,19393 18458,19416"/>
 <path fill="none" stroke="rgb(255,64,0)" stroke-width="80" stroke-linejoin="round" stroke-dasharray="80,40" d="M 1351,22793 L 1469,22793 1587,22793 1705,22793 1823,21177 1941,21124 2059,19455 2177,17090 2295,16494 2413,16252 2531,15117 2649,16571 2767,16544 2885,16459 3003,17795 3121,17947 3239,17709 3357,17564 3475,17137 3593,16894 3711,15823 3829,15708 3947,14631 4065,15653 4183,15863 4301,15630 4419,15197 4537,15091 4655,14817 4773,15030 4891,15474 5009,15895 5127,15681 5245,15368 5363,14997 5481,14690 5599,14355 5717,14608 5835,15121 5953,15226 6071,15547 6189,15161 6307,14745 6425,14430 6543,14437 6661,14344 6779,14261 6897,14225 7015,14290 7132,14258 7250,14374 7368,14707 7486,15028 7604,15146 7722,14970 7840,14844 7958,14531 8076,14553 8194,14701 8312,15063 8430,15085 8548,15223 8666,15259 8784,15069 8902,15037 9020,15197 9138,15348 9256,15359 9374,15603 9492,15582 9610,15460 9728,15553 9846,15791 9964,16032 10082,16154 10200,16295 10318,16325 10436,16346 10554,16333 10672,16500 10790,16687 10908,16814 11026,16916 11144,17060 11262,17079 11380,17061 11498,17280 11616,17452 11734,17547 11851,17632 11969,17685 12087,17714 12205,17721 12323,17871 12441,18013 12559,18060 12677,18080 12794,18078 12912,18054 13030,18067 13148,18190 13266,18285 13384,18272 13502,18416 13620,18468 13738,18454 13856,18461 13974,18569 14092,18672 14210,18717 14328,18799 14446,18836 14564,18845 14682,18848 14800,18907 14918,18996 15036,19048 15154,19084 15272,19108 15390,19104 15508,19095 15626,19164 15744,19222 15862,19247 15980,19278 16098,19292 16216,19286 16334,19283 16452,19328 16570,19371 16688,19391 16806,19395 16924,19389 17042,19381 17160,19366 17278,19409 17396,19489 17514,19542 17632,19562 17750,19592 17868,19582 17986,19575 18104,19610 18222,19677 18340,19709 18458,19725"/>
 <path fill="none" stroke="rgb(141,40,30)" stroke-width="80" stroke-linejoin="round" stroke-dasharray="80,40" d="M 1351,13109 L 1469,13407 1587,14524 1705,15447 1823,15691 1941,15395 2059,14921 2177,12409 2295,13893 2413,14450 2531,15286 2649,16641 2767,16963 2885,17023 3003,16989 3121,17074 3239,17176 3357,17133 3475,17096 3593,17072 3711,16892 3829,16894 3947,16989 4065,17124 4183,17118 4301,17008 4419,17012 4537,17049 4655,16989 4773,16972 4891,17033 5009,17086 5127,17069 5245,17014 5363,16997 5481,16892 5599,16796 5717,16887 5835,16915 5953,16877 6071,16862 6189,16809 6307,16776 6425,16805 6543,16857 6661,16909 6779,16923 6897,16924 7015,16922 7132,16926 7250,16915 7368,16964 7486,17011 7604,16989 7722,16989 7840,16995 7958,16996 8076,17000 8194,17054 8312,17102 8430,17119 8548,17124 8666,17121 8784,17100 8902,17104 9020,17149 9138,17187 9256,17205 9374,17211 9492,17236 9610,17235 9728,17252 9846,17293 9964,17349 10082,17399 10200,17401 10318,17412 10436,17421 10554,17433 10672,17463 10790,17482 10908,17502 11026,17528 11144,17552 11262,17565 11380,17584 11498,17622 11616,17655 11734,17671 11851,17699 11969,17720 12087,17731 12205,17744 12323,17777 12441,17813 12559,17834 12677,17865 12794,17897 12912,17916 13030,17937 13148,17980 13266,18022 13384,18051 13502,18089 13620,18137 13738,18168 13856,18212 13974,18272 14092,18326 14210,18374 14328,18432 14446,18483 14564,18529 14682,18588 14800,18653 14918,18721 15036,18766 15154,18818 15272,18853 15390,18897 15508,18937 15626,19003 15744,19065 15862,19117 15980,19170 16098,19213 16216,19254 16334,19295 16452,19353 16570,19407 16688,19455 16806,19493 16924,19524 17042,19553 17160,19585 17278,19628 17396,19660 17514,19685 17632,19711 17750,19736 17868,19750 17986,19768 18104,19806 18222,19843 18340,19862 18458,19879"/>
 <path fill="none" stroke="rgb(0,169,51)" stroke-width="80" stroke-linejoin="round" d="M 1351,21985 L 1469,22151 1587,22331 1705,21768 1823,21958 1941,22126 2059,22023 2177,22207 2295,22133 2413,21784 2531,21721 2649,21624 2767,21737 2885,21330 3003,21433 3121,21516 3239,21425 3357,21169 3475,21237 3593,21191 3711,21188 3829,21187 3947,21168 4065,21110 4183,21067 4301,20959 4419,20803 4537,20690 4655,20569 4773,20491 4891,20467 5009,20404 5127,20357 5245,20358 5363,20298 5481,20197 5599,20143 5717,20124 5835,20039 5953,19944 6071,19858 6189,19804 6307,19775 6425,19750 6543,19732 6661,19703 6779,19607 6897,19560 7015,19555 7132,19543 7250,19515 7368,19522 7486,19521 7604,19499 7722,19505 7840,19505 7958,19486 8076,19486 8194,19476 8312,19473 8430,19471 8548,19470 8666,19472 8784,19469 8902,19466 9020,19483 9138,19490 9256,19487 9374,19492 9492,19511 9610,19509 9728,19494 9846,19499 9964,19501 10082,19501 10200,19497 10318,19390 10436,19393 10554,19400 10672,19404 10790,19411 10908,19414 11026,19414 11144,19420 11262,19419 11380,19420 11498,19425 11616,19427 11734,19434 11851,19437 11969,19443 12087,19439 12205,19442 12323,19444 12441,19444 12559,19435 12677,19411 12794,19409 12912,19415 13030,19420 13148,19421 13266,19424 13384,19413 13502,19423 13620,19409 13738,19412 13856,19410 13974,19406 14092,19409 14210,19405 14328,19413 14446,19425 14564,19439 14682,19452 14800,19455 14918,19475 15036,19488 15154,19508 15272,19528 15390,19549 15508,19564 15626,19565 15744,19581 15862,19594 15980,19605 16098,19613 16216,19633 16334,19641 16452,19653 16570,19675 16688,19698 16806,19721 16924,19742 17042,19754 17160,19764 17278,19777 17396,19788 17514,19813 17632,19818 17750,19828 17868,19847 17986,19859 18104,19876 18222,19900 18340,19911 18458,19935"/>
 <path fill="none" stroke="rgb(0,132,209)" stroke-width="80" stroke-linejoin="round" d="M 1351,22793 L 1469,21563 1587,22163 1705,22371 1823,22434 1941,22287 2059,22253 2177,22311 2295,22351 2413,22391 2531,22251 2649,22215 2767,22178 2885,22237 3003,22123 3121,22056 3239,22059 3357,21921 3475,21820 3593,21808 3711,21747 3829,21636 3947,21621 4065,21508 4183,21480 4301,21340 4419,21213 4537,21158 4655,21124 4773,21088 4891,21026 5009,20943 5127,20913 5245,20797 5363,20801 5481,20720 5599,20707 5717,20700 5835,20537 5953,20576 6071,20529 6189,20477 6307,20431 6425,20434 6543,20445 6661,20446 6779,20455 6897,20463 7015,20441 7132,20449 7250,20461 7368,20479 7486,20461 7604,20459 7722,20462 7840,20459 7958,20459 8076,20466 8194,20480 8312,20440 8430,20409 8548,20409 8666,20387 8784,20389 8902,20396 9020,20404 9138,20399 9256,20405 9374,20401 9492,20396 9610,20400 9728,20402 9846,20405 9964,20409 10082,20417 10200,20424 10318,20418 10436,20419 10554,20423 10672,20428 10790,20433 10908,20426 11026,20429 11144,20423 11262,20424 11380,20426 11498,20428 11616,20425 11734,20432 11851,20437 11969,20410 12087,20415 12205,20418 12323,20423 12441,20428 12559,20431 12677,20425 12794,20417 12912,20418 13030,20423 13148,20426 13266,20396 13384,20401 13502,20396 13620,20400 13738,20401 13856,20403 13974,20409 14092,20413 14210,20403 14328,20406 14446,20410 14564,20412 14682,20414 14800,20418 14918,20423 15036,20424 15154,20430 15272,20421 15390,20423 15508,20424 15626,20427 15744,20418 15862,20422 15980,20425 16098,20416 16216,20408 16334,20409 16452,20413 16570,20416 16688,20417 16806,20420 16924,20420 17042,20420 17160,20422 17278,20427 17396,20428 17514,20435 17632,20437 17750,20442 17868,20443 17986,20447 18104,20452 18222,20448 18340,20458 18458,20466"/>
 <path fill="none" stroke="rgb(255,191,0)" stroke-width="80" stroke-linejoin="round" d="M 1351,22793 L 1469,22793 1587,22793 1705,22793 1823,22793 1941,22793 2059,22793 2177,22793 2295,22793 2413,22580 2531,22612 2649,22429 2767,22188 2885,22033 3003,22118 3121,22045 3239,21829 3357,21625 3475,21440 3593,21355 3711,21388 3829,21212 3947,21141 4065,21091 4183,20925 4301,20877 4419,20760 4537,20689 4655,20614 4773,20546 4891,20482 5009,20532 5127,20365 5245,20360 5363,20358 5481,20367 5599,20284 5717,20236 5835,20171 5953,20168 6071,20125 6189,20123 6307,20128 6425,20139 6543,20165 6661,20167 6779,20140 6897,20171 7015,20097 7132,20070 7250,20029 7368,20017 7486,20000 7604,19983 7722,19949 7840,19868 7958,19846 8076,19828 8194,19814 8312,19822 8430,19833 8548,19777 8666,19753 8784,19742 8902,19752 9020,19748 9138,19776 9256,19755 9374,19755 9492,19753 9610,19701 9728,19721 9846,19733 9964,19740 10082,19751 10200,19772 10318,19779 10436,19801 10554,19816 10672,19823 10790,19825 10908,19825 11026,19824 11144,19826 11262,19829 11380,19840 11498,19860 11616,19874 11734,19891 11851,19884 11969,19913 12087,19923 12205,19952 12323,19959 12441,19971 12559,19972 12677,19978 12794,19985 12912,19986 13030,19989 13148,20002 13266,20016 13384,20023 13502,20024 13620,20019 13738,20001 13856,20007 13974,20048 14092,20081 14210,20096 14328,20137 14446,20168 14564,20237 14682,20295 14800,20348 14918,20352 15036,20372 15154,20400 15272,20416 15390,20430 15508,20440 15626,20462 15744,20479 15862,20485 15980,20499 16098,20519 16216,20510 16334,20521 16452,20533 16570,20555 16688,20571 16806,20568 16924,20580 17042,20570 17160,20594 17278,20617 17396,20642 17514,20670 17632,20710 17750,20700 17868,20699 17986,20719 18104,20751 18222,20778 18340,20828 18458,20826"/>
 <path fill="none" stroke="rgb(128,0,128)" stroke-width="80" stroke-linejoin="round" stroke-dasharray="158,158" d="M 1351,18486 L 1469,18886 1587,19793 1705,20083 1823,19341 1941,19720 2059,19499 2177,19076 2295,19970 2413,18652 2531,17409 2649,18463 2767,18662 2885,17703 3003,18551 3121,18753 3239,18562 3357,18702 3475,18749 3593,17301 3711,16666 3829,16887 3947,17019 4065,16841 4183,17076 4301,17839 4419,16969 4537,16634 4655,17034 4773,17730 4891,17558 5009,17710 5127,17885 5245,18316 5363,18338 5481,18358 5599,18607 5717,18706 5835,18758 5953,18759 6071,18807 6189,18941 6307,19074 6425,19055 6543,19108 6661,19102 6779,19124 6897,19098 7015,19105 7132,19110 7250,19020 7368,19063 7486,18815 7604,18714 7722,18769 7840,18796 7958,18870 8076,18993 8194,19032 8312,19157 8430,19193 8548,19204 8666,19250 8784,19350 8902,19385 9020,19373 9138,19397 9256,19410 9374,19431 9492,19472 9610,19523 9728,19555 9846,19619 9964,19665 10082,19707 10200,19741 10318,19782 10436,19773 10554,19788 10672,19781 10790,19813 10908,19832 11026,19845 11144,19853 11262,19863 11380,19852 11498,19871 11616,19898 11734,19922 11851,19912 11969,19899 12087,19895 12205,19889 12323,19897 12441,19891 12559,19433 12677,19466 12794,19502 12912,19521 13030,19548 13148,19543 13266,19586 13384,19598 13502,19626 13620,19662 13738,19695 13856,19722 13974,19759 14092,19794 14210,19813 14328,19850 14446,19900 14564,19935 14682,19938 14800,19968 14918,19992 15036,20021 15154,20055 15272,20097 15390,20128 15508,20147 15626,20171 15744,20195 15862,20221 15980,20244 16098,20261 16216,20280 16334,20309 16452,20326 16570,20358 16688,20389 16806,20379 16924,20408 17042,20437 17160,20462 17278,20486 17396,20528 17514,20563 17632,20597 17750,20628 17868,20657 17986,20672 18104,20701 18222,20725 18340,20748 18458,20777"/>
 <path fill="none" stroke="rgb(0,0,255)" stroke-width="80" stroke-linejoin="round" stroke-dasharray="158,158" d="M 1351,22035 L 1469,21984 1587,21954 1705,21980 1823,21928 1941,21908 2059,21847 2177,21825 2295,21752 2413,21672 2531,21684 2649,21616 2767,21569 2885,21542 3003,21490 3121,21443 3239,21380 3357,21340 3475,21320 3593,21308 3711,21295 3829,21268 3947,21254 4065,21222 4183,21213 4301,21176 4419,21123 4537,21106 4655,21086 4773,21069 4891,21053 5009,21037 5127,21004 5245,20984 5363,20957 5481,20955 5599,20943 5717,20932 5835,20921 5953,20917 6071,20913 6189,20900 6307,20902 6425,20888 6543,20882 6661,20876 6779,20863 6897,20857 7015,20851 7132,20837 7250,20840 7368,20826 7486,20811 7604,20805 7722,20798 7840,20800 7958,20802 8076,20803 8194,20803 8312,20788 8430,20783 8548,20778 8666,20784 8784,20775 8902,20780 9020,20778 9138,20783 9256,20788 9374,20784 9492,20786 9610,20774 9728,20776 9846,20774 9964,20761 10082,20765 10200,20769 10318,20774 10436,20776 10554,20772 10672,20772 10790,20779 10908,20782 11026,20789 11144,20793 11262,20799 11380,20806 11498,20814 11616,20814 11734,20806 11851,20815 11969,20817 12087,20823 12205,20830 12323,20838 12441,20838 12559,20840 12677,20841 12794,20847 12912,20852 13030,20858 13148,20865 13266,20867 13384,20875 13502,20878 13620,20886 13738,20888 13856,20895 13974,20903 14092,20907 14210,20913 14328,20921 14446,20930 14564,20929 14682,20936 14800,20936 14918,20938 15036,20947 15154,20943 15272,20945 15390,20951 15508,20951 15626,20960 15744,20967 15862,20973 15980,20965 16098,20958 16216,20961 16334,20959 16452,20958 16570,20966 16688,20968 16806,20973 16924,20972 17042,20975 17160,20981 17278,20983 17396,20985 17514,20990 17632,21005 17750,21006 17868,21009 17986,21013 18104,21019 18222,21021 18340,21019 18458,21023"/>
 <text class="TextShape" transform="rotate(-90 1477 23997)"><tspan class="TextParagraph" font-family="Liberation Sans, sans-serif" font-size="388px" font-weight="400"><tspan class="TextPosition" x="1477" y="23997"><tspan fill="rgb(0,0,0)" stroke="none">13.03</tspan></tspan></tspan></text>
 <text class="TextShape" transform="rotate(-90 2303 23997)"><tspan class="TextParagraph" font-family="Liberation Sans, sans-serif" font-size="388px" font-weight="400"><tspan class="TextPosition" x="2303" y="23997"><tspan fill="rgb(0,0,0)" stroke="none">20.03</tspan></tspan></tspan></text>
 <text class="TextShape" transform="rotate(-90 3129 23997)"><tspan class="TextParagraph" font-family="Liberation Sans, sans-serif" font-size="388px" font-weight="400"><tspan class="TextPosition" x="3129" y="23997"><tspan fill="rgb(0,0,0)" stroke="none">27.03</tspan></tspan></tspan></text>
 <text class="TextShape" transform="rotate(-90 3955 23997)"><tspan class="TextParagraph" font-family="Liberation Sans, sans-serif" font-size="388px" font-weight="400"><tspan class="TextPosition" x="3955" y="23997"><tspan fill="rgb(0,0,0)" stroke="none">03.04</tspan></tspan></tspan></text>
 <text class="TextShape" transform="rotate(-90 4781 23997)"><tspan class="TextParagraph" font-family="Liberation Sans, sans-serif" font-size="388px" font-weight="400"><tspan class="TextPosition" x="4781" y="23997"><tspan fill="rgb(0,0,0)" stroke="none">10.04</tspan></tspan></tspan></text>
 <text class="TextShape" transform="rotate(-90 5607 23997)"><tspan class="TextParagraph" font-family="Liberation Sans, sans-serif" font-size="388px" font-weight="400"><tspan class="TextPosition" x="5607" y="23997"><tspan fill="rgb(0,0,0)" stroke="none">17.04</tspan></tspan></tspan></text>
 <text class="TextShape" transform="rotate(-90 6433 23997)"><tspan class="TextParagraph" font-family="Liberation Sans, sans-serif" font-size="388px" font-weight="400"><tspan class="TextPosition" x="6433" y="23997"><tspan fill="rgb(0,0,0)" stroke="none">24.04</tspan></tspan></tspan></text>
 <text class="TextShape" transform="rotate(-90 7258 23997)"><tspan class="TextParagraph" font-family="Liberation Sans, sans-serif" font-size="388px" font-weight="400"><tspan class="TextPosition" x="7258" y="23997"><tspan fill="rgb(0,0,0)" stroke="none">01.05</tspan></tspan></tspan></text>
 <text class="TextShape" transform="rotate(-90 8084 23997)"><tspan class="TextParagraph" font-family="Liberation Sans, sans-serif" font-size="388px" font-weight="400"><tspan class="TextPosition" x="8084" y="23997"><tspan fill="rgb(0,0,0)" stroke="none">08.05</tspan></tspan></tspan></text>
 <text class="TextShape" transform="rotate(-90 8910 23997)"><tspan class="TextParagraph" font-family="Liberation Sans, sans-serif" font-size="388px" font-weight="400"><tspan class="TextPosition" x="8910" y="23997"><tspan fill="rgb(0,0,0)" stroke="none">15.05</tspan></tspan></tspan></text>
 <text class="TextShape" transform="rotate(-90 9736 23997)"><tspan class="TextParagraph" font-family="Liberation Sans, sans-serif" font-size="388px" font-weight="400"><tspan class="TextPosition" x="9736" y="23997"><tspan fill="rgb(0,0,0)" stroke="none">22.05</tspan></tspan></tspan></text>
 <text class="TextShape" transform="rotate(-90 10562 23997)"><tspan class="TextParagraph" font-family="Liberation Sans, sans-serif" font-size="388px" font-weight="400"><tspan class="TextPosition" x="10562" y="23997"><tspan fill="rgb(0,0,0)" stroke="none">29.05</tspan></tspan></tspan></text>
 <text class="TextShape" transform="rotate(-90 11388 23997)"><tspan class="TextParagraph" font-family="Liberation Sans, sans-serif" font-size="388px" font-weight="400"><tspan class="TextPosition" x="11388" y="23997"><tspan fill="rgb(0,0,0)" stroke="none">05.06</tspan></tspan></tspan></text>
 <text class="TextShape" transform="rotate(-90 12213 23997)"><tspan class="TextParagraph" font-family="Liberation Sans, sans-serif" font-size="388px" font-weight="400"><tspan class="TextPosition" x="12213" y="23997"><tspan fill="rgb(0,0,0)" stroke="none">12.06</tspan></tspan></tspan></text>
 <text class="TextShape" transform="rotate(-90 13038 23997)"><tspan class="TextParagraph" font-family="Liberation Sans, sans-serif" font-size="388px" font-weight="400"><tspan class="TextPosition" x="13038" y="23997"><tspan fill="rgb(0,0,0)" stroke="none">19.06</tspan></tspan></tspan></text>
 <text class="TextShape" transform="rotate(-90 13864 23997)"><tspan class="TextParagraph" font-family="Liberation Sans, sans-serif" font-size="388px" font-weight="400"><tspan class="TextPosition" x="13864" y="23997"><tspan fill="rgb(0,0,0)" stroke="none">26.06</tspan></tspan></tspan></text>
 <text class="TextShape" transform="rotate(-90 14690 23997)"><tspan class="TextParagraph" font-family="Liberation Sans, sans-serif" font-size="388px" font-weight="400"><tspan class="TextPosition" x="14690" y="23997"><tspan fill="rgb(0,0,0)" stroke="none">03.07</tspan></tspan></tspan></text>
 <text class="TextShape" transform="rotate(-90 15516 23997)"><tspan class="TextParagraph" font-family="Liberation Sans, sans-serif" font-size="388px" font-weight="400"><tspan class="TextPosition" x="15516" y="23997"><tspan fill="rgb(0,0,0)" stroke="none">10.07</tspan></tspan></tspan></text>
 <text class="TextShape" transform="rotate(-90 16342 23997)"><tspan class="TextParagraph" font-family="Liberation Sans, sans-serif" font-size="388px" font-weight="400"><tspan class="TextPosition" x="16342" y="23997"><tspan fill="rgb(0,0,0)" stroke="none">17.07</tspan></tspan></tspan></text>
 <text class="TextShape" transform="rotate(-90 17168 23997)"><tspan class="TextParagraph" font-family="Liberation Sans, sans-serif" font-size="388px" font-weight="400"><tspan class="TextPosition" x="17168" y="23997"><tspan fill="rgb(0,0,0)" stroke="none">24.07</tspan></tspan></tspan></text>
 <text class="TextShape" transform="rotate(-90 17994 23997)"><tspan class="TextParagraph" font-family="Liberation Sans, sans-serif" font-size="388px" font-weight="400"><tspan class="TextPosition" x="17994" y="23997"><tspan fill="rgb(0,0,0)" stroke="none">31.07</tspan></tspan></tspan></text>
 <text class="TextShape"><tspan class="TextParagraph" font-family="Liberation Sans, sans-serif" font-size="388px" font-weight="400"><tspan class="TextPosition" x="493" y="22921"><tspan fill="rgb(0,0,0)" stroke="none">0%</tspan></tspan></tspan></text>
 <text class="TextShape"><tspan class="TextParagraph" font-family="Liberation Sans, sans-serif" font-size="388px" font-weight="400"><tspan class="TextPosition" x="493" y="18721"><tspan fill="rgb(0,0,0)" stroke="none">5%</tspan></tspan></tspan></text>
 <text class="TextShape"><tspan class="TextParagraph" font-family="Liberation Sans, sans-serif" font-size="388px" font-weight="400"><tspan class="TextPosition" x="281" y="14522"><tspan fill="rgb(0,0,0)" stroke="none">10%</tspan></tspan></tspan></text>
 <text class="TextShape"><tspan class="TextParagraph" font-family="Liberation Sans, sans-serif" font-size="388px" font-weight="400"><tspan class="TextPosition" x="281" y="10323"><tspan fill="rgb(0,0,0)" stroke="none">15%</tspan></tspan></tspan></text>
 <text class="TextShape"><tspan class="TextParagraph" font-family="Liberation Sans, sans-serif" font-size="388px" font-weight="400"><tspan class="TextPosition" x="281" y="6124"><tspan fill="rgb(0,0,0)" stroke="none">20%</tspan></tspan></tspan></text>
 <text class="TextShape"><tspan class="TextParagraph" font-family="Liberation Sans, sans-serif" font-size="388px" font-weight="400"><tspan class="TextPosition" x="281" y="1925"><tspan fill="rgb(0,0,0)" stroke="none">25%</tspan></tspan></tspan></text>
 <text class="TextShape"><tspan class="TextParagraph" font-family="Liberation Sans, sans-serif" font-size="494px" font-weight="700"><tspan class="TextPosition" x="887" y="990"><tspan fill="rgb(0,0,0)" stroke="none">Pomr celkovho potu obt ke 5 dn zpodnmu celkovmu potu infikovanch</tspan></tspan></tspan></text>
 <path fill="none" stroke="rgb(255,128,0)" stroke-width="80" stroke-linejoin="round" d="M 18747,2317 L 20347,2317"/>
 <path fill="none" stroke="rgb(131,202,255)" stroke-width="80" stroke-linejoin="round" d="M 18747,3327 L 20347,3327"/>
 <path fill="none" stroke="rgb(0,169,51)" stroke-width="80" stroke-linejoin="round" stroke-dasharray="80,40" d="M 18747,4337 L 20347,4337"/>
 <path fill="none" stroke="rgb(21,132,102)" stroke-width="80" stroke-linejoin="round" stroke-dasharray="51,127,51,127,254,127,254,127,254,127" d="M 18747,5347 L 20347,5347"/>
 <path fill="none" stroke="rgb(128,0,128)" stroke-width="80" stroke-linejoin="round" d="M 18747,6357 L 20347,6357"/>
 <path fill="none" stroke="rgb(0,0,255)" stroke-width="80" stroke-linejoin="round" stroke-dasharray="51,127,51,127,254,127,254,127,254,127" d="M 18747,7367 L 20347,7367"/>
 <path fill="none" stroke="rgb(112,110,12)" stroke-width="80" stroke-linejoin="round" stroke-dasharray="80,40" d="M 18747,8377 L 20347,8377"/>
 <path fill="none" stroke="rgb(85,48,141)" stroke-width="80" stroke-linejoin="round" stroke-dasharray="80,40" d="M 18747,9387 L 20347,9387"/>
 <path fill="none" stroke="rgb(241,13,12)" stroke-width="80" stroke-linejoin="round" d="M 18747,10397 L 20347,10397"/>
 <path fill="none" stroke="rgb(129,212,26)" stroke-width="80" stroke-linejoin="round" d="M 18747,11407 L 20347,11407"/>
 <path fill="none" stroke="rgb(180,120,4)" stroke-width="80" stroke-linejoin="round" d="M 18747,12417 L 20347,12417"/>
 <path fill="none" stroke="rgb(52,42,6)" stroke-width="80" stroke-linejoin="round" d="M 18747,13426 L 20347,13426"/>
 <path fill="none" stroke="rgb(191,0,65)" stroke-width="80" stroke-linejoin="round" stroke-dasharray="51,127,51,127,254,127,254,127,254,127" d="M 18747,14436 L 20347,14436"/>
 <path fill="none" stroke="rgb(21,132,102)" stroke-width="80" stroke-linejoin="round" stroke-dasharray="80,203,80,203,203,203" d="M 18747,15446 L 20347,15446"/>
 <path fill="none" stroke="rgb(255,64,0)" stroke-width="80" stroke-linejoin="round" stroke-dasharray="80,40" d="M 18747,16456 L 20347,16456"/>
 <path fill="none" stroke="rgb(141,40,30)" stroke-width="80" stroke-linejoin="round" stroke-dasharray="80,40" d="M 18747,17466 L 20347,17466"/>
 <path fill="none" stroke="rgb(0,169,51)" stroke-width="80" stroke-linejoin="round" d="M 18747,18476 L 20347,18476"/>
 <path fill="none" stroke="rgb(0,132,209)" stroke-width="80" stroke-linejoin="round" d="M 18747,19486 L 20347,19486"/>
 <path fill="none" stroke="rgb(255,191,0)" stroke-width="80" stroke-linejoin="round" d="M 18747,20496 L 20347,20496"/>
 <path fill="none" stroke="rgb(128,0,128)" stroke-width="80" stroke-linejoin="round" stroke-dasharray="158,158" d="M 18747,21506 L 20347,21506"/>
 <path fill="none" stroke="rgb(0,0,255)" stroke-width="80" stroke-linejoin="round" stroke-dasharray="158,158" d="M 18747,22516 L 20347,22516"/>
 <text class="TextShape"><tspan class="TextParagraph" font-family="Liberation Sans, sans-serif" font-size="423px" font-weight="400"><tspan class="TextPosition" x="20447" y="2465"><tspan fill="rgb(0,0,0)" stroke="none">Velk Britnie</tspan></tspan></tspan></text>
 <text class="TextShape"><tspan class="TextParagraph" font-family="Liberation Sans, sans-serif" font-size="423px" font-weight="400"><tspan class="TextPosition" x="20447" y="3475"><tspan fill="rgb(0,0,0)" stroke="none">Itlie</tspan></tspan></tspan></text>
 <text class="TextShape"><tspan class="TextParagraph" font-family="Liberation Sans, sans-serif" font-size="423px" font-weight="400"><tspan class="TextPosition" x="20447" y="4485"><tspan fill="rgb(0,0,0)" stroke="none">Mexiko</tspan></tspan></tspan></text>
 <text class="TextShape"><tspan class="TextParagraph" font-family="Liberation Sans, sans-serif" font-size="423px" font-weight="400"><tspan class="TextPosition" x="20447" y="5495"><tspan fill="rgb(0,0,0)" stroke="none">EU_star zem</tspan></tspan></tspan></text>
 <text class="TextShape"><tspan class="TextParagraph" font-family="Liberation Sans, sans-serif" font-size="423px" font-weight="400"><tspan class="TextPosition" x="20447" y="6505"><tspan fill="rgb(0,0,0)" stroke="none">panlsko</tspan></tspan></tspan></text>
 <text class="TextShape"><tspan class="TextParagraph" font-family="Liberation Sans, sans-serif" font-size="423px" font-weight="400"><tspan class="TextPosition" x="20447" y="7515"><tspan fill="rgb(0,0,0)" stroke="none">EU</tspan></tspan></tspan></text>
 <text class="TextShape"><tspan class="TextParagraph" font-family="Liberation Sans, sans-serif" font-size="423px" font-weight="400"><tspan class="TextPosition" x="20447" y="8525"><tspan fill="rgb(0,0,0)" stroke="none">Stt New York</tspan></tspan></tspan></text>
 <text class="TextShape"><tspan class="TextParagraph" font-family="Liberation Sans, sans-serif" font-size="423px" font-weight="400"><tspan class="TextPosition" x="20447" y="9535"><tspan fill="rgb(0,0,0)" stroke="none">Kanada</tspan></tspan></tspan></text>
 <text class="TextShape"><tspan class="TextParagraph" font-family="Liberation Sans, sans-serif" font-size="423px" font-weight="400"><tspan class="TextPosition" x="20447" y="10545"><tspan fill="rgb(0,0,0)" stroke="none">vdsko</tspan></tspan></tspan></text>
 <text class="TextShape"><tspan class="TextParagraph" font-family="Liberation Sans, sans-serif" font-size="423px" font-weight="400"><tspan class="TextPosition" x="20447" y="11555"><tspan fill="rgb(0,0,0)" stroke="none">vcarsko</tspan></tspan></tspan></text>
 <text class="TextShape"><tspan class="TextParagraph" font-family="Liberation Sans, sans-serif" font-size="423px" font-weight="400"><tspan class="TextPosition" x="20447" y="12564"><tspan fill="rgb(0,0,0)" stroke="none">Dnsko</tspan></tspan></tspan></text>
 <text class="TextShape"><tspan class="TextParagraph" font-family="Liberation Sans, sans-serif" font-size="423px" font-weight="400"><tspan class="TextPosition" x="20447" y="13574"><tspan fill="rgb(0,0,0)" stroke="none">Nmecko</tspan></tspan></tspan></text>
 <text class="TextShape"><tspan class="TextParagraph" font-family="Liberation Sans, sans-serif" font-size="423px" font-weight="400"><tspan class="TextPosition" x="20447" y="14584"><tspan fill="rgb(0,0,0)" stroke="none">EU_nov zem</tspan></tspan></tspan></text>
 <text class="TextShape"><tspan class="TextParagraph" font-family="Liberation Sans, sans-serif" font-size="423px" font-weight="400"><tspan class="TextPosition" x="20447" y="15594"><tspan fill="rgb(0,0,0)" stroke="none">celosvtov</tspan></tspan></tspan></text>
 <text class="TextShape"><tspan class="TextParagraph" font-family="Liberation Sans, sans-serif" font-size="423px" font-weight="400"><tspan class="TextPosition" x="20447" y="16604"><tspan fill="rgb(0,0,0)" stroke="none">Brazlie</tspan></tspan></tspan></text>
 <text class="TextShape"><tspan class="TextParagraph" font-family="Liberation Sans, sans-serif" font-size="423px" font-weight="400"><tspan class="TextPosition" x="20447" y="17614"><tspan fill="rgb(0,0,0)" stroke="none">USA</tspan></tspan></tspan></text>
 <text class="TextShape"><tspan class="TextParagraph" font-family="Liberation Sans, sans-serif" font-size="423px" font-weight="400"><tspan class="TextPosition" x="20447" y="18624"><tspan fill="rgb(0,0,0)" stroke="none">Rakousko</tspan></tspan></tspan></text>
 <text class="TextShape"><tspan class="TextParagraph" font-family="Liberation Sans, sans-serif" font-size="423px" font-weight="400"><tspan class="TextPosition" x="20447" y="19634"><tspan fill="rgb(0,0,0)" stroke="none">Norsko</tspan></tspan></tspan></text>
 <text class="TextShape"><tspan class="TextParagraph" font-family="Liberation Sans, sans-serif" font-size="423px" font-weight="400"><tspan class="TextPosition" x="20447" y="20644"><tspan fill="rgb(0,0,0)" stroke="none">esko</tspan></tspan></tspan></text>
 <text class="TextShape"><tspan class="TextParagraph" font-family="Liberation Sans, sans-serif" font-size="423px" font-weight="400"><tspan class="TextPosition" x="20447" y="21654"><tspan fill="rgb(0,0,0)" stroke="none">Indie</tspan></tspan></tspan></text>
 <text class="TextShape"><tspan class="TextParagraph" font-family="Liberation Sans, sans-serif" font-size="423px" font-weight="400"><tspan class="TextPosition" x="20447" y="22664"><tspan fill="rgb(0,0,0)" stroke="none">Jin Korea</tspan></tspan></tspan></text>
</svg>