<?xml version="1.0" encoding="UTF-8"?>
<!DOCTYPE svg PUBLIC "-//W3C//DTD SVG 1.1//EN" "http://www.w3.org/Graphics/SVG/1.1/DTD/svg11.dtd">
<svg width="236mm" height="250mm" viewBox="0 0 23600 25000" version="1.1" xmlns="http://www.w3.org/2000/svg" xmlns:xlink="http://www.w3.org/1999/xlink" stroke-width="28.222" stroke-linejoin="round" xml:space="preserve">
 <path fill="rgb(255,255,255)" stroke="none" d="M 11800,25000 L 0,25000 0,0 23600,0 23600,25000 11800,25000 Z"/>
 <path fill="none" stroke="rgb(179,179,179)" stroke-linejoin="round" d="M 9834,22797 L 1220,22797 1220,1799 18448,1799 18448,22797 9834,22797 Z"/>
 <path fill="none" stroke="rgb(179,179,179)" stroke-linejoin="round" d="M 18448,22796 L 1220,22796"/>
 <path fill="none" stroke="rgb(179,179,179)" stroke-linejoin="round" d="M 18448,20696 L 1220,20696"/>
 <path fill="none" stroke="rgb(179,179,179)" stroke-linejoin="round" d="M 18448,18596 L 1220,18596"/>
 <path fill="none" stroke="rgb(179,179,179)" stroke-linejoin="round" d="M 18448,16496 L 1220,16496"/>
 <path fill="none" stroke="rgb(179,179,179)" stroke-linejoin="round" d="M 18448,14396 L 1220,14396"/>
 <path fill="none" stroke="rgb(179,179,179)" stroke-linejoin="round" d="M 18448,12297 L 1220,12297"/>
 <path fill="none" stroke="rgb(179,179,179)" stroke-linejoin="round" d="M 18448,10197 L 1220,10197"/>
 <path fill="none" stroke="rgb(179,179,179)" stroke-linejoin="round" d="M 18448,8097 L 1220,8097"/>
 <path fill="none" stroke="rgb(179,179,179)" stroke-linejoin="round" d="M 18448,5997 L 1220,5997"/>
 <path fill="none" stroke="rgb(179,179,179)" stroke-linejoin="round" d="M 18448,3897 L 1220,3897"/>
 <path fill="none" stroke="rgb(179,179,179)" stroke-linejoin="round" d="M 18448,1798 L 1220,1798"/>
 <path fill="none" stroke="rgb(179,179,179)" stroke-linejoin="round" d="M 1220,22946 L 1220,22796"/>
 <path fill="none" stroke="rgb(179,179,179)" stroke-linejoin="round" d="M 1220,22946 L 1220,22796"/>
 <path fill="none" stroke="rgb(179,179,179)" stroke-linejoin="round" d="M 2057,22946 L 2057,22796"/>
 <path fill="none" stroke="rgb(179,179,179)" stroke-linejoin="round" d="M 2057,22946 L 2057,22796"/>
 <path fill="none" stroke="rgb(179,179,179)" stroke-linejoin="round" d="M 2895,22946 L 2895,22796"/>
 <path fill="none" stroke="rgb(179,179,179)" stroke-linejoin="round" d="M 2895,22946 L 2895,22796"/>
 <path fill="none" stroke="rgb(179,179,179)" stroke-linejoin="round" d="M 3732,22946 L 3732,22796"/>
 <path fill="none" stroke="rgb(179,179,179)" stroke-linejoin="round" d="M 3732,22946 L 3732,22796"/>
 <path fill="none" stroke="rgb(179,179,179)" stroke-linejoin="round" d="M 4570,22946 L 4570,22796"/>
 <path fill="none" stroke="rgb(179,179,179)" stroke-linejoin="round" d="M 4570,22946 L 4570,22796"/>
 <path fill="none" stroke="rgb(179,179,179)" stroke-linejoin="round" d="M 5407,22946 L 5407,22796"/>
 <path fill="none" stroke="rgb(179,179,179)" stroke-linejoin="round" d="M 5407,22946 L 5407,22796"/>
 <path fill="none" stroke="rgb(179,179,179)" stroke-linejoin="round" d="M 6245,22946 L 6245,22796"/>
 <path fill="none" stroke="rgb(179,179,179)" stroke-linejoin="round" d="M 6245,22946 L 6245,22796"/>
 <path fill="none" stroke="rgb(179,179,179)" stroke-linejoin="round" d="M 7082,22946 L 7082,22796"/>
 <path fill="none" stroke="rgb(179,179,179)" stroke-linejoin="round" d="M 7082,22946 L 7082,22796"/>
 <path fill="none" stroke="rgb(179,179,179)" stroke-linejoin="round" d="M 7920,22946 L 7920,22796"/>
 <path fill="none" stroke="rgb(179,179,179)" stroke-linejoin="round" d="M 7920,22946 L 7920,22796"/>
 <path fill="none" stroke="rgb(179,179,179)" stroke-linejoin="round" d="M 8757,22946 L 8757,22796"/>
 <path fill="none" stroke="rgb(179,179,179)" stroke-linejoin="round" d="M 8757,22946 L 8757,22796"/>
 <path fill="none" stroke="rgb(179,179,179)" stroke-linejoin="round" d="M 9595,22946 L 9595,22796"/>
 <path fill="none" stroke="rgb(179,179,179)" stroke-linejoin="round" d="M 9595,22946 L 9595,22796"/>
 <path fill="none" stroke="rgb(179,179,179)" stroke-linejoin="round" d="M 10432,22946 L 10432,22796"/>
 <path fill="none" stroke="rgb(179,179,179)" stroke-linejoin="round" d="M 10432,22946 L 10432,22796"/>
 <path fill="none" stroke="rgb(179,179,179)" stroke-linejoin="round" d="M 11270,22946 L 11270,22796"/>
 <path fill="none" stroke="rgb(179,179,179)" stroke-linejoin="round" d="M 11270,22946 L 11270,22796"/>
 <path fill="none" stroke="rgb(179,179,179)" stroke-linejoin="round" d="M 12106,22946 L 12106,22796"/>
 <path fill="none" stroke="rgb(179,179,179)" stroke-linejoin="round" d="M 12106,22946 L 12106,22796"/>
 <path fill="none" stroke="rgb(179,179,179)" stroke-linejoin="round" d="M 12944,22946 L 12944,22796"/>
 <path fill="none" stroke="rgb(179,179,179)" stroke-linejoin="round" d="M 12944,22946 L 12944,22796"/>
 <path fill="none" stroke="rgb(179,179,179)" stroke-linejoin="round" d="M 13781,22946 L 13781,22796"/>
 <path fill="none" stroke="rgb(179,179,179)" stroke-linejoin="round" d="M 13781,22946 L 13781,22796"/>
 <path fill="none" stroke="rgb(179,179,179)" stroke-linejoin="round" d="M 14619,22946 L 14619,22796"/>
 <path fill="none" stroke="rgb(179,179,179)" stroke-linejoin="round" d="M 14619,22946 L 14619,22796"/>
 <path fill="none" stroke="rgb(179,179,179)" stroke-linejoin="round" d="M 15456,22946 L 15456,22796"/>
 <path fill="none" stroke="rgb(179,179,179)" stroke-linejoin="round" d="M 15456,22946 L 15456,22796"/>
 <path fill="none" stroke="rgb(179,179,179)" stroke-linejoin="round" d="M 16294,22946 L 16294,22796"/>
 <path fill="none" stroke="rgb(179,179,179)" stroke-linejoin="round" d="M 16294,22946 L 16294,22796"/>
 <path fill="none" stroke="rgb(179,179,179)" stroke-linejoin="round" d="M 17131,22946 L 17131,22796"/>
 <path fill="none" stroke="rgb(179,179,179)" stroke-linejoin="round" d="M 17131,22946 L 17131,22796"/>
 <path fill="none" stroke="rgb(179,179,179)" stroke-linejoin="round" d="M 17969,22946 L 17969,22796"/>
 <path fill="none" stroke="rgb(179,179,179)" stroke-linejoin="round" d="M 17969,22946 L 17969,22796"/>
 <path fill="none" stroke="rgb(179,179,179)" stroke-linejoin="round" d="M 1220,22796 L 18448,22796"/>
 <path fill="none" stroke="rgb(179,179,179)" stroke-linejoin="round" d="M 1070,22796 L 1220,22796"/>
 <path fill="none" stroke="rgb(179,179,179)" stroke-linejoin="round" d="M 1070,22796 L 1220,22796"/>
 <path fill="none" stroke="rgb(179,179,179)" stroke-linejoin="round" d="M 1070,20696 L 1220,20696"/>
 <path fill="none" stroke="rgb(179,179,179)" stroke-linejoin="round" d="M 1070,20696 L 1220,20696"/>
 <path fill="none" stroke="rgb(179,179,179)" stroke-linejoin="round" d="M 1070,18596 L 1220,18596"/>
 <path fill="none" stroke="rgb(179,179,179)" stroke-linejoin="round" d="M 1070,18596 L 1220,18596"/>
 <path fill="none" stroke="rgb(179,179,179)" stroke-linejoin="round" d="M 1070,16496 L 1220,16496"/>
 <path fill="none" stroke="rgb(179,179,179)" stroke-linejoin="round" d="M 1070,16496 L 1220,16496"/>
 <path fill="none" stroke="rgb(179,179,179)" stroke-linejoin="round" d="M 1070,14396 L 1220,14396"/>
 <path fill="none" stroke="rgb(179,179,179)" stroke-linejoin="round" d="M 1070,14396 L 1220,14396"/>
 <path fill="none" stroke="rgb(179,179,179)" stroke-linejoin="round" d="M 1070,12297 L 1220,12297"/>
 <path fill="none" stroke="rgb(179,179,179)" stroke-linejoin="round" d="M 1070,12297 L 1220,12297"/>
 <path fill="none" stroke="rgb(179,179,179)" stroke-linejoin="round" d="M 1070,10197 L 1220,10197"/>
 <path fill="none" stroke="rgb(179,179,179)" stroke-linejoin="round" d="M 1070,10197 L 1220,10197"/>
 <path fill="none" stroke="rgb(179,179,179)" stroke-linejoin="round" d="M 1070,8097 L 1220,8097"/>
 <path fill="none" stroke="rgb(179,179,179)" stroke-linejoin="round" d="M 1070,8097 L 1220,8097"/>
 <path fill="none" stroke="rgb(179,179,179)" stroke-linejoin="round" d="M 1070,5997 L 1220,5997"/>
 <path fill="none" stroke="rgb(179,179,179)" stroke-linejoin="round" d="M 1070,5997 L 1220,5997"/>
 <path fill="none" stroke="rgb(179,179,179)" stroke-linejoin="round" d="M 1070,3897 L 1220,3897"/>
 <path fill="none" stroke="rgb(179,179,179)" stroke-linejoin="round" d="M 1070,3897 L 1220,3897"/>
 <path fill="none" stroke="rgb(179,179,179)" stroke-linejoin="round" d="M 1070,1798 L 1220,1798"/>
 <path fill="none" stroke="rgb(179,179,179)" stroke-linejoin="round" d="M 1070,1798 L 1220,1798"/>
 <path fill="none" stroke="rgb(179,179,179)" stroke-linejoin="round" d="M 1220,22796 L 1220,1798"/>
 <path fill="none" stroke="rgb(255,128,0)" stroke-width="80" stroke-linejoin="round" stroke-dasharray="80,40" d="M 1279,19646 L 1399,19281 1519,19650 1638,19452 1758,16108 1878,17536 1997,16395 2117,14026 2236,9498 2356,10126 2476,10361 2595,8524 2715,6235 2835,6385 2954,4953 3074,2992 3176,1798"/>
 <path fill="none" stroke="rgb(0,0,255)" stroke-width="80" stroke-linejoin="round" stroke-dasharray="80,40" d="M 1279,8193 L 1399,7120 1519,12145 1638,9151 1758,9151 1878,14295 1997,11400 2117,1899 2236,5106 2356,4397 2476,2957 2586,1798"/>
 <path fill="none" stroke="rgb(255,128,0)" stroke-width="80" stroke-linejoin="round" stroke-dasharray="158,158" d="M 1279,22796 L 1399,22796 1507,1798"/>
 <path fill="none" stroke="rgb(255,128,0)" stroke-width="80" stroke-linejoin="round" stroke-dasharray="158,158" d="M 1557,1798 L 1638,6643 1758,6643 1878,11744 1997,15796 2117,3110 2202,1798"/>
 <path fill="none" stroke="rgb(255,128,0)" stroke-width="80" stroke-linejoin="round" stroke-dasharray="158,158" d="M 2818,1798 L 2835,2409 2954,6767 3074,8965 3194,8198 3313,8859 3433,9924 3553,8797 3672,9940 3792,9415 3912,7764 4031,8285 4151,7597 4270,5926 4390,3247 4510,2355 4551,1798"/>
 <path fill="none" stroke="rgb(255,128,0)" stroke-width="80" stroke-linejoin="round" d="M 1279,14871 L 1399,14945 1519,11802 1638,12776 1758,4845 1878,7686 1997,5989 2117,3052 2236,2480 2282,1798"/>
 <path fill="none" stroke="rgb(0,0,255)" stroke-width="80" stroke-linejoin="round" stroke-dasharray="51,127,51,127,254,127,254,127,254,127" d="M 17120,1798 L 17191,1812 17311,1966 17431,2038 17550,2134 17670,2238 17789,2340 17909,2390 18029,2426 18148,2600 18268,2685 18388,2777"/>
 <path fill="none" stroke="rgb(255,0,0)" stroke-width="80" stroke-linejoin="round" d="M 1279,21761 L 1399,21102 1519,21021 1638,20276 1758,20342 1878,20216 1997,20392 2117,19508 2236,18988 2356,19090 2476,18691 2595,17542 2715,14852 2835,13624 2954,11396 3074,12020 3194,12691 3313,10659 3433,9487 3553,6443 3672,4033 3792,2479 3912,3351 4031,3810 4151,2549 4195,1798"/>
 <path fill="none" stroke="rgb(255,0,0)" stroke-width="80" stroke-linejoin="round" d="M 12842,1798 L 12884,1963 13004,2027 13123,2316 13243,2669 13363,3084 13482,3459 13602,3962 13721,4052 13841,3956 13961,3982 14080,4572 14200,4905 14320,5268 14439,5485 14559,5352 14679,5323 14798,5977 14918,6169 15038,6426 15157,6604 15277,6678 15397,6625 15516,6549 15636,6914 15755,6975 15875,7057 15995,7132 16114,7174 16234,7116 16354,7043 16473,7235 16593,7271 16713,7316 16832,7374 16952,7398 17072,7374 17191,7316 17311,7469 17431,7492 17550,7550 17670,7594 17789,7565 17909,7541 18029,7530 18148,7607 18268,7626 18388,7678"/>
 <path fill="none" stroke="rgb(129,212,26)" stroke-width="80" stroke-linejoin="round" stroke-dasharray="80,40" d="M 1279,11744 L 1399,2797 1519,10444 1638,13029 1758,13029 1878,18129 1997,17912 2117,17912 2236,19068 2356,19029 2476,18481 2595,20156 2715,20028 2835,17713 2954,17696 3074,16076 3194,15527 3313,15545 3433,14599 3553,14380 3672,14274 3792,13159 3912,12909 4031,12539 4151,12196 4270,11340 4390,11248 4510,10801 4629,10729 4749,10269 4869,10511 4988,10178 5108,9828 5228,11270 5347,11366 5467,11269 5587,11535 5706,11638 5826,11299 5946,11246 6065,11246 6185,11499 6304,8835 6424,8535 6544,8566 6663,8916 6783,8974 6903,9054 7022,8858 7142,9006 7262,9052 7381,9031 7501,9121 7621,9155 7740,8937 7860,8884 7979,8843 8099,8850 8219,8869 8338,8950 8458,8838 8578,8851 8697,8902 8817,8935 8937,8882 9056,8856 9176,8914 9296,9039 9415,9026 9535,8974 9655,8932 9774,8878 9894,8873 10013,8927 10133,8892 10253,8821 10372,8795 10492,8777 10612,8759 10731,8772 10851,8827 10971,8781 11090,8792 11210,8780 11330,8764 11449,8737 11569,8731 11689,8722 11807,8673 11927,8651 12046,8596 12166,8589 12286,8593 12405,8589 12525,8598 12645,8577 12764,8575 12884,8567 13004,8572 13123,8574 13243,8581 13363,8568 13482,8551 13602,8509 13721,8504 13841,8482 13961,8451 14080,8448 14200,8450 14320,8447 14439,8436 14559,8449 14679,8433 14798,8438 14918,8444 15038,8447 15157,8445 15277,8483 15397,8448 15516,8450 15636,8436 15755,8440 15875,8442 15995,8455 16114,8452 16234,8456 16354,8441 16473,8438 16593,8456 16713,8464 16832,8472 16952,8482 17072,8419 17191,8425 17311,8420 17431,8440 17550,8450 17670,8453 17789,8464 17909,8485 18029,8492 18148,8498 18268,8519 18388,8526"/>
 <path fill="none" stroke="rgb(131,202,255)" stroke-width="80" stroke-linejoin="round" stroke-dasharray="158,158" d="M 1279,22796 L 1399,9672 1519,16022 1638,19111 1758,20436 1878,21306 1997,21635 2117,21837 2236,21966 2356,21268 2476,20505 2595,19859 2715,19716 2835,19506 2954,18231 3074,18520 3194,17983 3313,18421 3433,17191 3553,17812 3672,17576 3792,17042 3912,16685 4031,15464 4151,15305 4270,14368 4390,13802 4510,13553 4629,13318 4749,12512 4869,12287 4988,12210 5108,12334 5228,11754 5347,12014 5467,11295 5587,10668 5706,10059 5826,9840 5946,10045 6065,10075 6185,10200 6304,10166 6424,10056 6544,9985 6663,9915 6783,9576 6903,9185 7022,9029 7142,8958 7262,8717 7381,8479 7501,8432 7621,8396 7740,8299 7860,8350 7979,8204 8099,8058 8219,7974 8338,8004 8458,8015 8578,7880 8697,7921 8817,7952 8937,7982 9056,7849 9176,7869 9296,7879 9415,7746 9535,7603 9655,7613 9774,7613 9894,7480 10013,7491 10133,7348 10253,7348 10372,7348 10492,7348 10612,7358 10731,7358 10851,7236 10971,7258 11090,7258 11210,7258 11330,7258 11449,7258 11569,7279 11689,7300 11807,7300 11927,7321 12046,7373 12166,7383 12286,7383 12405,7393 12525,7414 12645,7414 12764,7435 12884,7455 13004,7486 13123,7496 13243,7527 13363,7568 13482,7648 13602,7668 13721,7728 13841,7738 13961,7748 14080,7602 14200,7671 14320,7729 14439,7836 14559,7969 14679,8053 14798,8091 14918,8228 15038,8346 15157,8532 15277,8670 15397,8914 15516,9085 15636,9213 15755,9393 15875,9575 15995,9672 16114,9797 16234,10038 16354,10136 16473,10190 16593,10145 16713,10161 16832,10177 16952,10193 17072,10349 17191,10387 17311,10324 17431,10475 17550,10654 17670,10711 17789,10823 17909,10905 18029,10794 18148,10823 18268,10803 18388,10684"/>
 <path fill="none" stroke="rgb(255,0,0)" stroke-width="80" stroke-linejoin="round" stroke-dasharray="158,158" d="M 1279,22796 L 1399,22796 1519,22796 1638,22796 1758,22796 1878,22796 1997,22796 2117,22796 2236,22796 2356,19372 2476,17142 2595,14457 2715,11206 2835,9636 2954,10187 3074,9308 3194,11424 3313,7731 3433,6063 3553,7844 3672,6165 3792,7409 3912,8259 4031,8672 4151,7773 4270,7688 4390,8283 4510,8383 4629,8123 4749,7734 4869,7773 4988,8197 5108,8628 5228,8508 5347,9054 5467,9097 5587,9468 5706,9029 5826,8886 5946,9228 6065,9156 6185,9201 6304,9183 6424,8673 6544,8732 6663,8934 6783,9007 6903,8827 7022,8639 7142,8640 7262,8518 7381,8515 7501,8456 7621,8368 7740,8359 7860,8151 7979,8072 8099,8204 8219,8212 8338,8179 8458,8284 8578,8108 8697,8183 8817,8170 8937,8059 9056,8063 9176,8099 9296,8101 9415,8143 9535,8264 9655,8284 9774,8301 9894,8322 10013,8243 10133,8276 10253,8249 10372,8273 10492,8294 10612,8336 10731,8371 10851,8386 10971,8403 11090,8459 11210,8474 11330,8446 11449,8485 11569,8454 11689,8501 11807,8514 11927,8590 12046,8628 12166,8646 12286,8589 12405,8527 12525,8490 12645,8551 12764,8561 12884,8529 13004,8631 13123,8586 13243,8632 13363,8745 13482,8794 13602,8842 13721,8948 13841,9007 13961,9060 14080,8983 14200,8975 14320,9086 14439,9174 14559,9183 14679,9166 14798,9122 14918,9171 15038,9195 15157,9181 15277,9250 15397,9322 15516,9410 15636,9352 15755,9440 15875,9567 15995,9627 16114,9734 16234,9894 16354,9965 16473,9992 16593,10129 16713,10293 16832,10354 16952,10473 17072,10629 17191,10744 17311,10876 17431,11061 17550,11263 17670,11405 17789,11557 17909,11720 18029,11814 18148,11913 18268,12028 18388,12209"/>
 <path fill="none" stroke="rgb(180,120,4)" stroke-width="80" stroke-linejoin="round" stroke-dasharray="80,40" d="M 1279,19919 L 1399,14166 1519,13358 1638,14311 1758,12191 1878,17269 1997,17269 2117,18989 2236,14548 2356,14656 2476,14255 2595,12748 2715,13463 2835,12495 2954,13373 3074,13127 3194,12057 3313,11798 3433,11261 3553,11927 3672,12307 3792,11352 3912,11015 4031,11130 4151,11073 4270,11780 4390,11991 4510,11877 4629,11662 4749,11669 4869,11563 4988,11762 5108,11948 5228,12146 5347,12201 5467,12069 5587,12028 5706,11862 5826,11684 5946,11284 6065,11372 6185,11052 6304,10582 6424,10637 6544,11077 6663,10937 6783,11031 6903,11074 7022,11065 7142,11116 7262,10946 7381,11012 7501,10895 7621,10964 7740,10979 7860,10934 7979,10802 8099,10749 8219,10795 8338,10889 8458,10878 8578,10701 8697,10709 8817,10426 8937,10317 9056,10323 9176,10243 9296,10288 9415,10391 9535,10282 9655,10274 9774,10135 9894,10153 10013,10123 10133,10063 10253,10156 10372,10019 10492,10028 10612,10046 10731,10090 10851,9848 10971,9862 11090,9875 11210,9830 11330,9839 11449,9843 11569,9927 11689,9784 11807,9779 11927,9845 12046,9901 12166,9974 12286,10193 12405,10230 12525,10203 12645,10216 12764,10162 12884,10111 13004,10080 13123,10066 13243,10122 13363,10340 13482,10433 13602,10471 13721,10478 13841,10516 13961,10594 14080,10650 14200,10679 14320,10656 14439,10736 14559,10818 14679,10854 14798,10903 14918,10970 15038,11049 15157,11076 15277,11171 15397,11253 15516,11280 15636,11419 15755,11504 15875,11607 15995,11759 16114,11937 16234,12052 16354,12084 16473,12149 16593,12305 16713,12324 16832,12294 16952,12202 17072,12199 17191,12263 17311,12276 17431,12318 17550,12392 17670,12425 17789,12487 17909,12563 18029,12480 18148,12562 18268,12588 18388,12674"/>
 <path fill="none" stroke="rgb(180,120,4)" stroke-width="80" stroke-linejoin="round" d="M 1279,22796 L 1399,20513 1519,21205 1638,21377 1758,21434 1878,21751 1997,21288 2117,20636 2236,19870 2356,20132 2476,18280 2595,17310 2715,17455 2835,16732 2954,15583 3074,14113 3194,13995 3313,14112 3433,13453 3553,12869 3672,11880 3792,11412 3912,10525 4031,10428 4151,10861 4270,10866 4390,11195 4510,11139 4629,11425 4749,11597 4869,11910 4988,12104 5108,12027 5228,12007 5347,11909 5467,11718 5587,11641 5706,11680 5826,11680 5946,11813 6065,11702 6185,11672 6304,11632 6424,11413 6544,11567 6663,11738 6783,11778 6903,11733 7022,11815 7142,11786 7262,11584 7381,11565 7501,11551 7621,11507 7740,11622 7860,11559 7979,11520 8099,11603 8219,11709 8338,11754 8458,12032 8578,12051 8697,12074 8817,12185 8937,12151 9056,12150 9176,12205 9296,12192 9415,12210 9535,12141 9655,12207 9774,12246 9894,12299 10013,12348 10133,12408 10253,12415 10372,12413 10492,12478 10612,12447 10731,12430 10851,12441 10971,12397 11090,12469 11210,12468 11330,12429 11449,12437 11569,12432 11689,12394 11807,12429 11927,12484 12046,12525 12166,12528 12286,12489 12405,12521 12525,12516 12645,12532 12764,12585 12884,12584 13004,12629 13123,12649 13243,12676 13363,12678 13482,12701 13602,12739 13721,12739 13841,12722 13961,12830 14080,12856 14200,12882 14320,12898 14439,12912 14559,12912 14679,12912 14798,12970 14918,12983 15038,12986 15157,12970 15277,12982 15397,12982 15516,12983 15636,13018 15755,13025 15875,13018 15995,13030 16114,13052 16234,13052 16354,13036 16473,13103 16593,13121 16713,13144 16832,13167 16952,13202 17072,13186 17191,13173 17311,13236 17431,13265 17550,13298 17670,13326 17789,13344 17909,13330 18029,13345 18148,13420 18268,13445 18388,13468"/>
 <path fill="none" stroke="rgb(52,42,6)" stroke-width="80" stroke-linejoin="round" d="M 1279,21382 L 1399,21188 1519,21210 1638,20925 1758,20370 1878,21196 1997,20780 2117,20368 2236,20370 2356,20663 2476,20700 2595,20644 2715,20616 2835,20271 2954,19908 3074,19666 3194,19402 3313,19167 3433,19092 3553,18998 3672,18766 3792,18484 3912,18262 4031,18163 4151,17915 4270,17803 4390,17384 4510,17098 4629,16992 4749,17238 4869,16901 4988,16876 5108,16943 5228,16257 5347,15983 5467,15648 5587,15597 5706,15464 5826,15219 5946,15120 6065,14956 6185,14628 6304,14464 6424,14404 6544,14333 6663,14256 6783,14137 6903,14034 7022,13910 7142,13830 7262,13785 7381,13779 7501,13705 7621,13787 7740,13485 7860,13386 7979,13276 8099,13255 8219,13278 8338,13229 8458,13205 8578,13119 8697,13132 8817,13147 8937,13137 9056,13141 9176,13143 9296,13070 9415,13036 9535,12994 9655,12999 9774,12970 9894,13012 10013,13019 10133,12975 10253,12947 10372,12914 10492,12893 10612,12877 10731,12899 10851,12899 10971,12926 11090,12921 11210,12897 11330,12883 11449,12876 11569,12877 11689,12879 11807,12851 11927,12857 12046,12863 12166,12866 12286,12874 12405,12886 12525,12880 12645,12875 12764,12868 12884,12844 13004,12843 13123,12843 13243,12873 13363,12887 13482,12934 13602,12944 13721,12950 13841,12953 13961,12975 14080,13012 14200,13023 14320,13033 14439,13061 14559,13070 14679,13078 14798,13084 14918,13100 15038,13124 15157,13137 15277,13142 15397,13151 15516,13160 15636,13179 15755,13192 15875,13206 15995,13216 16114,13230 16234,13241 16354,13250 16473,13259 16593,13271 16713,13290 16832,13311 16952,13336 17072,13345 17191,13349 17311,13372 17431,13391 17550,13415 17670,13437 17789,13466 17909,13487 18029,13501 18148,13514 18268,13541 18388,13578"/>
 <path fill="none" stroke="rgb(129,212,26)" stroke-width="80" stroke-linejoin="round" stroke-dasharray="158,158" d="M 1279,22796 L 1399,22796 1519,22796 1638,22796 1758,22796 1878,22796 1997,22796 2117,22796 2236,22037 2356,22141 2476,22171 2595,22271 2715,21396 2835,20788 2954,20447 3074,20096 3194,19879 3313,19693 3433,19069 3553,19366 3672,19377 3792,19409 3912,18913 4031,18649 4151,18875 4270,18092 4390,17595 4510,18109 4629,17565 4749,18067 4869,17700 4988,17814 5108,17636 5228,17335 5347,17374 5467,17006 5587,16627 5706,16551 5826,16438 5946,14007 6065,13828 6185,12983 6304,12970 6424,12698 6544,12856 6663,12980 6783,13041 6903,12953 7022,12894 7142,12792 7262,12956 7381,12606 7501,12523 7621,12455 7740,12320 7860,12451 7979,12405 8099,12350 8219,12437 8338,12584 8458,12616 8578,12403 8697,12546 8817,12477 8937,12374 9056,12372 9176,12391 9296,12510 9415,12546 9535,12573 9655,12672 9774,12724 9894,12721 10013,12757 10133,12705 10253,12741 10372,12788 10492,12773 10612,12740 10731,12657 10851,12817 10971,12830 11090,12848 11210,12890 11330,12937 11449,12975 11569,12947 11689,12981 11807,12951 11927,12993 12046,12996 12166,13019 12286,13047 12405,13051 12525,13072 12645,13105 12764,13117 12884,13136 13004,13159 13123,13165 13243,13170 13363,13147 13482,13150 13602,13169 13721,13181 13841,13153 13961,13154 14080,13169 14200,13185 14320,13192 14439,13217 14559,13227 14679,13197 14798,13212 14918,13219 15038,13248 15157,13254 15277,13256 15397,13264 15516,13270 15636,13275 15755,13282 15875,13286 15995,13296 16114,13333 16234,13349 16354,13353 16473,13354 16593,13362 16713,13355 16832,13351 16952,13362 17072,13384 17191,13377 17311,13383 17431,13397 17550,13411 17670,13424 17789,13434 17909,13444 18029,13451 18148,13457 18268,13465 18388,13477"/>
 <path fill="none" stroke="rgb(191,0,65)" stroke-width="80" stroke-linejoin="round" stroke-dasharray="51,127,51,127,254,127,254,127,254,127" d="M 1279,17318 L 1399,12952 1519,14719 1638,17445 1758,17782 1878,19675 1997,20120 2117,20278 2236,20423 2356,19761 2476,19484 2595,18956 2715,18252 2835,18247 2954,18394 3074,17946 3194,17743 3313,17043 3433,16762 3553,16707 3672,16258 3792,15851 3912,15619 4031,15502 4151,15094 4270,14809 4390,14483 4510,14316 4629,14212 4749,13839 4869,13626 4988,13689 5108,13483 5228,13333 5347,13289 5467,13147 5587,13020 5706,12726 5826,12597 5946,12580 6065,12479 6185,12370 6304,12188 6424,12004 6544,12022 6663,11962 6783,11849 6903,11735 7022,11579 7142,11545 7262,11431 7381,11390 7501,11333 7621,11232 7740,11146 7860,10993 7979,10905 8099,10885 8219,10877 8338,10877 8458,10858 8578,10729 8697,10694 8817,10659 8937,10644 9056,10721 9176,10714 9296,10731 9415,10767 9535,10800 9655,10788 9774,10817 9894,10875 10013,10905 10133,10917 10253,10969 10372,10995 10492,11001 10612,11004 10731,11077 10851,11121 10971,11108 11090,11099 11210,11152 11330,11080 11449,11094 11569,11125 11689,11152 11807,11152 11927,11164 12046,11259 12166,11319 12286,11361 12405,11378 12525,11397 12645,11418 12764,11439 12884,11402 13004,11426 13123,11425 13243,11484 13363,11563 13482,11590 13602,11591 13721,11625 13841,11624 13961,11670 14080,11696 14200,11726 14320,11766 14439,11815 14559,11856 14679,11861 14798,11899 14918,11959 15038,12017 15157,12062 15277,12106 15397,12164 15516,12187 15636,12200 15755,12274 15875,12345 15995,12391 16114,12463 16234,12543 16354,12582 16473,12618 16593,12689 16713,12771 16832,12821 16952,12884 17072,12947 17191,12996 17311,13053 17431,13156 17550,13264 17670,13348 17789,13425 17909,13491 18029,13528 18148,13587 18268,13669 18388,13762"/>
 <path fill="none" stroke="rgb(128,0,128)" stroke-width="80" stroke-linejoin="round" stroke-dasharray="80,40" d="M 1279,22796 L 1399,22796 1519,22796 1638,22796 1758,22796 1878,22796 1997,22796 2117,22796 2236,10444 2356,14396 2476,15018 2595,11130 2715,5654 2835,12676 2954,15453 3074,14584 3194,15762 3313,17431 3433,17177 3553,18103 3672,17999 3792,18687 3912,18091 4031,17712 4151,17374 4270,17942 4390,18270 4510,18438 4629,17099 4749,17066 4869,17307 4988,17269 5108,16419 5228,16489 5347,16246 5467,16215 5587,16270 5706,15927 5826,15674 5946,15721 6065,15851 6185,16016 6304,16324 6424,16303 6544,16418 6663,16511 6783,16186 6903,16094 7022,16169 7142,16224 7262,16129 7381,15608 7501,15770 7621,15821 7740,15591 7860,15477 7979,15498 8099,15544 8219,15417 8338,15443 8458,15469 8578,14899 8697,14943 8817,15129 8937,15018 9056,14909 9176,14563 9296,14457 9415,14523 9535,14445 9655,14483 9774,14244 9894,14326 10013,14407 10133,14227 10253,14155 10372,13959 10492,13997 10612,13805 10731,13827 10851,13871 10971,13792 11090,13825 11210,13868 11330,13894 11449,13910 11569,13931 11689,13942 11807,13833 11927,13622 12046,13682 12166,13729 12286,13639 12405,13676 12525,13586 12645,13686 12764,13707 12884,13743 13004,13769 13123,13794 13243,13809 13363,13820 13482,13732 13602,13655 13721,13671 13841,13686 13961,13701 14080,13711 14200,13716 14320,13726 14439,13736 14559,13761 14679,13655 14798,13660 14918,13666 15038,13671 15157,13706 15277,13720 15397,13735 15516,13760 15636,13785 15755,13799 15875,13848 15995,13862 16114,13881 16234,13900 16354,13920 16473,13831 16593,13836 16713,13869 16832,13963 16952,13991 17072,14023 17191,14100 17311,14167 17431,14176 17550,14185 17670,14224 17789,14337 17909,14400 18029,14429 18148,14475 18268,14508 18388,14573"/>
 <path fill="none" stroke="rgb(0,169,51)" stroke-width="80" stroke-linejoin="round" stroke-dasharray="80,40" d="M 1766,1798 L 1878,7356 1997,12602 2117,13972 2236,16864 2356,16619 2476,16103 2595,16880 2715,15878 2835,16527 2954,17496 3074,17749 3194,17668 3313,16602 3433,17120 3553,16295 3672,15488 3792,14788 3912,14723 4031,14254 4151,13998 4270,13600 4390,12926 4510,12722 4629,13530 4749,12898 4869,12746 4988,12911 5108,12889 5228,12710 5347,12423 5467,12350 5587,12288 5706,12300 5826,12272 5946,12162 6065,12120 6185,11891 6304,11627 6424,11326 6544,11398 6663,11191 6783,10890 6903,10766 7022,10800 7142,11029 7262,11081 7381,11144 7501,11201 7621,11120 7740,11051 7860,10943 7979,10896 8099,11027 8219,11155 8338,11243 8458,11088 8578,11030 8697,10949 8817,10890 8937,11027 9056,11317 9176,11372 9296,11495 9415,11584 9535,11617 9655,11667 9774,11755 9894,11942 10013,12084 10133,12121 10253,12327 10372,12383 10492,12448 10612,12496 10731,12674 10851,12760 10971,12749 11090,12684 11210,12844 11330,12758 11449,12776 11569,12836 11689,12877 11807,12878 11927,12829 12046,12977 12166,13134 12286,13232 12405,13294 12525,13322 12645,13324 12764,13346 12884,13272 13004,13265 13123,13307 13243,13365 13363,13500 13482,13486 13602,13435 13721,13418 13841,13398 13961,13445 14080,13512 14200,13557 14320,13519 14439,13508 14559,13502 14679,13462 14798,13499 14918,13533 15038,13611 15157,13666 15277,13650 15397,13677 15516,13672 15636,13688 15755,13735 15875,13775 15995,13771 16114,13801 16234,13813 16354,13862 16473,13899 16593,13928 16713,13972 16832,13999 16952,14046 17072,14073 17191,14130 17311,14143 17431,14191 17550,14245 17670,14301 17789,14334 17909,14376 18029,14428 18148,14469 18268,14516 18388,14607"/>
 <path fill="none" stroke="rgb(0,169,51)" stroke-width="80" stroke-linejoin="round" stroke-dasharray="158,158" d="M 1870,1798 L 1878,4537 1997,7431 2117,10444 2236,10682 2356,13393 2476,15948 2595,16094 2715,17835 2835,18931 2954,19427 3074,15482 3194,15089 3313,15854 3433,16432 3553,15629 3672,16451 3792,14299 3912,12852 4031,12271 4151,11849 4270,12228 4390,12405 4510,12776 4629,12909 4749,12087 4869,12242 4988,11465 5108,10904 5228,10892 5347,10724 5467,10042 5587,10228 5706,10427 5826,10709 5946,10985 6065,10634 6185,10360 6304,10113 6424,10364 6544,10736 6663,10903 6783,11694 6903,11906 7022,11682 7142,11812 7262,11704 7381,11839 7501,11477 7621,11642 7740,11453 7860,11731 7979,11635 8099,11356 8219,11582 8338,11813 8458,11889 8578,12028 8697,11975 8817,11896 8937,11717 9056,11586 9176,11632 9296,11597 9415,11403 9535,11211 9655,10925 9774,10958 9894,10712 10013,10886 10133,11085 10253,11022 10372,11111 10492,11029 10612,10800 10731,10763 10851,10846 10971,10589 11090,10459 11210,10444 11330,9510 11449,9459 11569,9558 11689,9344 11807,9230 11927,9447 12046,9783 12166,9552 12286,9943 12405,10149 12525,10448 12645,10480 12764,10688 12884,10580 13004,10478 13123,10289 13243,10695 13363,10524 13482,10908 13602,11109 13721,11353 13841,11235 13961,11412 14080,11618 14200,11757 14320,11840 14439,12002 14559,12263 14679,12098 14798,12321 14918,12442 15038,12610 15157,12760 15277,12901 15397,13104 15516,13028 15636,13315 15755,13573 15875,13657 15995,13889 16114,14081 16234,14220 16354,14196 16473,14323 16593,14555 16713,14585 16832,14725 16952,14811 17072,14798 17191,14692 17311,14847 17431,15080 17550,15193 17670,15230 17789,15162 17909,15179 18029,15082 18148,15184 18268,15301 18388,15190"/>
 <path fill="none" stroke="rgb(0,169,51)" stroke-width="80" stroke-linejoin="round" d="M 1279,20776 L 1399,21193 1519,21642 1638,20235 1758,20710 1878,21129 1997,20872 2117,21330 2236,21145 2356,20273 2476,20116 2595,19875 2715,20157 2835,19139 2954,19395 3074,19604 3194,19377 3313,18737 3433,18905 3553,18792 3672,18784 3792,18781 3912,18735 4031,18587 4151,18482 4270,18210 4390,17821 4510,17537 4629,17237 4749,17041 4869,16980 4988,16825 5108,16707 5228,16707 5347,16559 5467,16305 5587,16170 5706,16124 5826,15911 5946,15673 6065,15458 6185,15324 6304,15250 6424,15188 6544,15143 6663,15071 6783,14831 6903,14714 7022,14700 7142,14672 7262,14602 7381,14619 7501,14615 7621,14560 7740,14575 7860,14576 7979,14529 8099,14528 8219,14503 8338,14494 8458,14490 8578,14489 8697,14493 8817,14486 8937,14479 9056,14520 9176,14539 9296,14531 9415,14544 9535,14591 9655,14586 9774,14548 9894,14561 10013,14564 10133,14564 10253,14555 10372,14287 10492,14296 10612,14314 10731,14323 10851,14341 10971,14347 11090,14348 11210,14363 11330,14361 11449,14362 11569,14375 11689,14381 11807,14398 11927,14405 12046,14420 12166,14409 12286,14417 12405,14423 12525,14423 12645,14400 12764,14341 12884,14336 13004,14351 13123,14364 13243,14366 13363,14373 13482,14346 13602,14370 13721,14334 13841,14343 13961,14338 14080,14327 14200,14335 14320,14325 14439,14347 14559,14374 14679,14410 14798,14442 14918,14451 15038,14501 15157,14532 15277,14582 15397,14634 15516,14685 15636,14723 15755,14725 15875,14765 15995,14797 16114,14826 16234,14847 16354,14895 16473,14916 16593,14946 16713,15001 16832,15058 16952,15115 17072,15167 17191,15199 17311,15223 17431,15255 17550,15283 17670,15346 17789,15357 17909,15382 18029,15431 18148,15461 18268,15504 18388,15564"/>
 <path fill="none" stroke="rgb(128,0,128)" stroke-width="80" stroke-linejoin="round" stroke-dasharray="158,158" d="M 1279,22796 L 1399,22796 1519,22796 1638,22796 1758,19236 1878,19046 1997,19068 2117,17653 2236,15183 2356,16233 2476,12016 2595,13968 2715,13943 2835,12952 2954,12821 3074,12602 3194,12217 3313,12980 3433,13315 3553,13595 3672,14307 3792,14131 3912,14079 4031,14473 4151,14880 4270,14776 4390,14724 4510,14635 4629,14696 4749,14382 4869,14289 4988,14246 5108,14264 5228,14666 5347,14534 5467,14477 5587,14276 5706,14202 5826,14264 5946,14303 6065,14130 6185,14048 6304,13920 6424,13938 6544,13926 6663,13930 6783,13890 6903,13833 7022,13917 7142,13934 7262,13855 7381,13791 7501,13686 7621,13791 7740,13775 7860,13584 7979,13543 8099,13532 8219,13522 8338,13620 8458,13654 8578,13747 8697,13723 8817,13735 8937,13669 9056,13632 9176,13607 9296,13549 9415,13517 9535,13488 9655,13473 9774,13435 9894,13406 10013,13379 10133,13374 10253,13367 10372,13361 10492,13312 10612,13274 10731,13246 10851,13240 10971,13252 11090,13284 11210,13308 11330,13330 11449,13330 11569,13354 11689,13420 11807,13469 11927,13541 12046,13601 12166,13686 12286,13694 12405,13773 12525,13830 12645,13895 12764,13956 12884,14019 13004,14056 13123,14132 13243,14190 13363,14245 13482,14305 13602,14372 13721,14421 13841,14451 13961,14474 14080,14531 14200,14585 14320,14607 14439,14682 14559,14705 14679,14738 14798,14754 14918,14753 15038,14783 15157,14800 15277,14859 15397,14872 15516,14922 15636,14925 15755,14947 15875,15015 15995,15059 16114,15091 16234,15168 16354,15202 16473,15242 16593,15257 16713,15308 16832,15335 16952,15362 17072,15397 17191,15404 17311,15407 17431,15422 17550,15451 17670,15472 17789,15506 17909,15536 18029,15533 18148,15544 18268,15556 18388,15585"/>
 <path fill="none" stroke="rgb(85,48,141)" stroke-width="80" stroke-linejoin="round" stroke-dasharray="80,40" d="M 1279,22796 L 1399,22796 1519,22796 1638,22796 1758,22796 1878,22796 1997,22796 2117,22796 2236,22796 2356,22796 2476,22796 2595,22796 2715,22053 2835,22109 2954,22151 3074,22199 3194,21088 3313,21236 3433,21234 3553,20970 3672,19214 3792,19084 3912,18978 4031,18568 4151,17674 4270,17656 4390,17551 4510,17945 4629,18201 4749,18247 4869,18227 4988,17834 5108,17402 5228,16953 5347,16998 5467,16700 5587,16805 5706,16678 5826,16796 5946,16499 6065,16463 6185,16546 6304,16474 6424,16503 6544,16166 6663,16061 6783,16200 6903,16254 7022,16117 7142,16149 7262,16038 7381,15838 7501,15863 7621,15957 7740,15978 7860,15874 7979,15878 8099,15397 8219,15432 8338,15318 8458,15348 8578,15370 8697,15283 8817,15188 8937,15197 9056,15219 9176,15120 9296,15151 9415,15185 9535,15203 9655,15220 9774,15262 9894,15292 10013,15187 10133,15213 10253,15126 10372,15185 10492,15078 10612,15082 10731,15010 10851,15035 10971,15081 11090,15001 11210,15026 11330,15043 11449,15047 11569,15047 11689,15088 11807,15129 11927,15209 12046,15292 12166,15323 12286,15327 12405,15354 12525,15395 12645,15422 12764,15441 12884,15452 13004,15452 13123,15455 13243,15459 13363,15467 13482,15467 13602,15474 13721,15481 13841,15481 13961,15481 14080,15485 14200,15489 14320,15492 14439,15500 14559,15500 14679,15503 14798,15503 14918,15511 15038,15511 15157,15514 15277,15518 15397,15525 15516,15525 15636,15529 15755,15533 15875,15562 15995,15590 16114,15598 16234,15601 16354,15601 16473,15601 16593,15605 16713,15608 16832,15608 16952,15623 17072,15626 17191,15626 17311,15626 17431,15630 17550,15640 17670,15647 17789,15651 17909,15668 18029,15672 18148,15672 18268,16304 18388,16317"/>
 <path fill="none" stroke="rgb(131,202,255)" stroke-width="80" stroke-linejoin="round" stroke-dasharray="80,40" d="M 1279,22796 L 1399,22796 1519,22796 1638,22796 1758,22796 1878,22796 1997,17269 2117,18510 2236,19111 2356,19565 2476,20203 2595,20796 2715,21155 2835,19737 2954,20315 3074,19462 3194,19497 3313,19945 3433,20250 3553,20645 3672,20558 3792,20439 3912,19606 4031,19162 4151,19307 4270,19057 4390,19098 4510,19066 4629,19065 4749,19187 4869,19028 4988,18887 5108,18169 5228,18160 5347,18004 5467,18071 5587,17832 5706,17004 5826,17127 5946,17168 6065,17239 6185,17064 6304,17072 6424,16767 6544,16742 6663,16442 6783,16117 6903,15792 7022,15608 7142,15037 7262,14866 7381,14691 7501,14648 7621,14400 7740,14235 7860,14146 7979,14179 8099,14100 8219,13847 8338,13778 8458,13803 8578,13661 8697,13724 8817,13674 8937,13711 9056,13757 9176,13781 9296,13719 9415,13723 9535,13637 9655,13456 9774,13465 9894,13481 10013,13396 10133,13315 10253,13340 10372,13246 10492,13157 10612,13157 10731,13157 10851,13157 10971,13161 11090,13161 11210,13166 11330,13166 11449,13072 11569,13072 11689,13072 11807,12889 11927,12889 12046,12889 12166,12796 12286,12796 12405,12796 12525,12805 12645,12805 12764,12805 12884,12814 13004,12818 13123,12827 13243,12831 13363,12845 13482,12893 13602,12941 13721,13022 13841,13098 13961,13177 14080,13299 14200,13386 14320,13746 14439,13863 14559,13993 14679,14056 14798,14088 14918,14251 15038,14414 15157,14647 15277,14837 15397,14990 15516,14998 15636,15100 15755,15158 15875,15280 15995,15419 16114,15661 16234,15933 16354,16025 16473,16120 16593,16211 16713,16315 16832,16401 16952,16451 17072,16476 17191,16609 17311,16405 17431,16337 17550,16352 17670,16451 17789,16516 17909,16485 18029,16526 18148,16557 18268,16440 18388,16361"/>
 <path fill="none" stroke="rgb(255,191,0)" stroke-width="80" stroke-linejoin="round" stroke-dasharray="158,158" d="M 1279,22796 L 1399,22796 1519,22796 1638,22796 1758,22796 1878,22796 1997,22796 2117,22796 2236,22796 2356,22796 2476,22796 2595,22796 2715,22796 2835,22796 2954,22796 3074,22796 3194,22796 3313,22796 3433,22796 3553,22796 3672,22796 3792,22190 3912,22237 4031,22268 4151,22325 4270,21879 4390,21944 4510,21558 4629,21614 4749,21633 4869,20880 4988,20976 5108,21013 5228,21080 5347,21129 5467,21183 5587,21193 5706,21197 5826,21219 5946,19996 6065,19409 6185,19551 6304,19329 6424,19386 6544,19427 6663,19208 6783,19287 6903,18778 7022,18878 7142,18658 7262,18688 7381,18777 7501,18838 7621,18635 7740,18692 7860,18456 7979,18495 8099,18577 8219,18577 8338,18596 8458,18637 8578,18496 8697,18505 8817,18547 8937,18578 9056,18596 9176,18600 9296,18212 9415,18249 9535,18162 9655,18212 9774,18217 9894,18231 10013,18248 10133,18288 10253,18106 10372,17977 10492,17982 10612,17991 10731,18009 10851,18028 10971,18045 11090,18059 11210,17866 11330,17871 11449,17871 11569,17894 11689,17736 11807,17750 11927,17763 12046,17768 12166,17584 12286,17391 12405,17396 12525,17411 12645,17421 12764,17048 12884,17053 13004,17053 13123,17053 13243,17058 13363,17089 13482,17110 13602,17120 13721,17125 13841,17125 13961,17125 14080,17125 14200,17125 14320,17125 14439,17130 14559,17146 14679,17151 14798,17156 14918,17161 15038,17176 15157,17181 15277,17181 15397,17186 15516,17191 15636,17206 15755,17240 15875,17090 15995,17155 16114,17208 16234,17246 16354,17246 16473,17251 16593,17251 16713,17269 16832,17274 16952,17302 17072,17321 17191,17334 17311,17334 17431,17339 17550,17357 17670,17384 17789,17393 17909,17398 18029,17283 18148,17283 18268,17288 18388,17306"/>
 <path fill="none" stroke="rgb(255,191,0)" stroke-width="80" stroke-linejoin="round" d="M 1279,22796 L 1399,22796 1519,22796 1638,22796 1758,22796 1878,22796 1997,22796 2117,22796 2236,22796 2356,22265 2476,22343 2595,21888 2715,21283 2835,20896 2954,21108 3074,20927 3194,20385 3313,19875 3433,19414 3553,19202 3672,19284 3792,18845 3912,18667 4031,18542 4151,18126 4270,18006 4390,17714 4510,17536 4629,17348 4749,17178 4869,17019 4988,17143 5108,16725 5228,16714 5347,16709 5467,16732 5587,16522 5706,16404 5826,16242 5946,16234 6065,16126 6185,16120 6304,16134 6424,16161 6544,16227 6663,16230 6783,16163 6903,16241 7022,16055 7142,15989 7262,15885 7381,15856 7501,15813 7621,15770 7740,15685 7860,15484 7979,15428 8099,15383 8219,15349 8338,15369 8458,15396 8578,15256 8697,15195 8817,15169 8937,15193 9056,15184 9176,15253 9296,15202 9415,15201 9535,15196 9655,15065 9774,15116 9894,15146 10013,15163 10133,15191 10253,15242 10372,15260 10492,15315 10612,15354 10731,15370 10851,15377 10971,15375 11090,15374 11210,15379 11330,15386 11449,15414 11569,15462 11689,15498 11807,15541 11927,15523 12046,15596 12166,15620 12286,15693 12405,15710 12525,15742 12645,15743 12764,15759 12884,15776 13004,15778 13123,15785 13243,15817 13363,15852 13482,15871 13602,15874 13721,15861 13841,15815 13961,15831 14080,15934 14200,16015 14320,16053 14439,16156 14559,16234 14679,16407 14798,16552 14918,16682 15038,16694 15157,16743 15277,16812 15397,16854 15516,16889 15636,16913 15755,16968 15875,17011 15995,17025 16114,17062 16234,17111 16354,17089 16473,17117 16593,17145 16713,17201 16832,17242 16952,17233 17072,17263 17191,17239 17311,17299 17431,17357 17550,17420 17670,17489 17789,17588 17909,17564 18029,17561 18148,17612 18268,17692 18388,17759"/>
 <path fill="none" stroke="rgb(0,0,255)" stroke-width="80" stroke-linejoin="round" d="M 1279,22796 L 1315,1798"/>
 <path fill="none" stroke="rgb(0,0,255)" stroke-width="80" stroke-linejoin="round" d="M 1695,1798 L 1758,11744 1878,10444 1997,6327 2117,8560 2224,1798"/>
 <path fill="none" stroke="rgb(0,0,255)" stroke-width="80" stroke-linejoin="round" d="M 2246,1798 L 2356,10797 2476,14520 2595,17781 2715,19325 2835,19975 2954,18848 3074,18476 3194,18783 3313,19330 3433,19472 3553,19001 3672,19355 3792,19457 3912,19521 4031,19325 4151,19083 4270,19080 4390,19097 4510,18794 4629,18751 4749,18216 4869,18129 4988,18020 5108,18279 5228,18300 5347,18365 5467,18187 5587,18203 5706,18160 5826,18126 5946,18040 6065,17968 6185,17868 6304,17768 6424,17779 6544,17688 6663,17738 6783,17696 6903,17738 7022,17703 7142,17606 7262,17615 7381,17407 7501,17447 7621,17468 7740,17383 7860,17287 7979,17304 8099,17255 8219,17272 8338,17288 8458,17245 8578,17208 8697,17217 8817,17176 8937,17178 9056,17025 9176,17040 9296,16949 9415,16961 9535,16971 9655,16993 9774,16996 9894,16959 10013,16979 10133,16992 10253,16993 10372,17006 10492,17009 10612,17011 10731,17014 10851,17022 10971,17032 11090,17038 11210,17044 11330,17047 11449,17048 11569,17050 11689,17055 11807,17059 11927,17067 12046,17071 12166,17077 12286,17078 12405,17086 12525,17091 12645,17095 12764,17099 12884,17110 13004,17120 13123,17123 13243,17127 13363,17141 13482,17149 13602,17160 13721,17168 13841,17189 13961,17190 14080,17207 14200,17216 14320,17231 14439,17260 14559,17318 14679,17350 14798,17368 14918,17422 15038,17479 15157,17540 15277,17601 15397,17635 15516,17687 15636,17710 15755,17732 15875,17783 15995,17856 16114,17916 16234,17982 16354,18063 16473,18092 16593,18185 16713,18245 16832,18385 16952,18486 17072,18506 17191,18599 17311,18625 17431,18687 17550,18778 17670,18809 17789,18843 17909,18928 18029,18979 18148,18942 18268,18942 18388,19003"/>
 <path fill="none" stroke="rgb(241,13,12)" stroke-width="80" stroke-linejoin="round" stroke-dasharray="80,40" d="M 1399,22796 L 1519,22796 1638,22796 1758,22796 1878,22796 1997,22796 2117,22796 2236,22796 2356,18231 2476,18510 2595,13393 2715,13393 2835,15296 2954,11744 3074,13744 3194,14328 3313,11661 3433,11290 3553,11130 3672,11065 3792,12003 3912,12753 4031,15582 4151,16890 4270,17487 4390,18023 4510,17866 4629,18087 4749,18280 4869,18120 4988,18005 5108,18328 5228,18560 5347,18705 5467,18815 5587,18989 5706,19170 5826,19271 5946,19367 6065,19156 6185,19208 6304,18963 6424,18987 6544,19046 6663,18808 6783,18833 6903,18878 7022,18907 7142,18940 7262,18964 7381,19032 7501,19059 7621,19090 7740,19120 7860,19150 7979,19183 8099,19192 8219,18969 8338,18990 8458,19016 8578,18789 8697,18793 8817,18820 8937,18833 9056,18842 9176,18851 9296,18860 9415,18873 9535,18890 9655,18898 9774,18903 9894,18907 10013,18924 10133,18928 10253,18945 10372,18945 10492,18978 10612,18986 10731,18994 10851,18994 10971,19002 11090,19006 11210,19014 11330,19014 11449,18813 11569,18825 11689,18850 11807,18850 11927,18858 12046,18858 12166,18875 12286,18899 12405,18907 12525,18915 12645,18919 12764,18939 12884,18724 13004,18737 13123,18745 13243,18745 13363,18745 13482,18745 13602,18745 13721,18745 13841,18749 13961,18757 14080,18765 14200,18769 14320,18774 14439,18774 14559,18782 14679,18782 14798,18790 14918,18798 15038,18802 15157,18802 15277,18802 15397,18814 15516,18818 15636,18822 15755,18826 15875,18837 15995,18845 16114,18857 16234,18861 16354,18888 16473,18892 16593,18895 16713,18903 16832,18926 16952,18933 17072,18948 17191,18952 17311,18952 17431,18959 17550,18959 17670,18978 17789,18985 17909,19007 18029,19021 18148,19032 18268,19056 18388,19101"/>
 <path fill="none" stroke="rgb(0,0,255)" stroke-width="80" stroke-linejoin="round" stroke-dasharray="158,158" d="M 1279,22796 L 1399,22796 1519,22796 1638,22796 1758,22796 1878,16233 1997,18023 2117,18907 2236,19462 2356,22796 2476,22796 2595,22796 2715,22796 2835,22796 2954,22796 3074,22796 3194,22796 3313,22796 3433,22796 3553,22015 3672,22076 3792,22127 3912,22171 4031,22217 4151,21746 4270,21810 4390,21862 4510,21904 4629,21930 4749,22009 4869,22073 4988,22180 5108,22196 5228,21033 5347,20488 5467,20248 5587,19792 5706,19778 5826,19632 5946,19786 6065,19993 6185,19903 6304,19721 6424,19752 6544,19643 6663,19757 6783,19626 6903,19399 7022,19278 7142,19293 7262,19146 7381,19154 7501,19021 7621,19035 7740,19054 7860,18915 7979,18918 8099,18932 8219,18953 8338,18975 8458,18872 8578,18899 8697,18899 8817,18904 8937,18760 9056,18782 9176,18793 9296,18815 9415,18823 9535,18857 9655,18860 9774,18863 9894,18863 10013,18865 10133,18881 10253,18884 10372,18886 10492,18899 10612,18904 10731,18909 10851,18914 10971,18927 11090,18927 11210,18930 11330,18930 11449,18932 11569,18932 11689,18940 11807,18942 11927,18942 12046,18948 12166,18948 12286,18953 12405,18955 12525,18960 12645,18980 12764,18982 12884,18990 13004,18997 13123,19007 13243,19007 13363,19029 13482,19031 13602,19065 13721,19088 13841,19091 13961,19093 14080,19095 14200,19137 14320,19188 14439,19217 14559,19247 14679,19262 14798,19264 14918,19268 15038,19310 15157,19337 15277,19377 15397,19434 15516,19462 15636,19464 15755,19468 15875,19525 15995,19619 16114,19651 16234,19689 16354,19703 16473,19704 16593,19714 16713,19744 16832,19782 16952,19803 17072,19820 17191,19824 17311,19826 17431,19886 17550,19938 17670,19981 17789,20019 17909,20049 18029,20001 18148,20003 18268,20032 18388,20083"/>
 <path fill="none" stroke="rgb(0,0,0)" stroke-width="80" stroke-linejoin="round" stroke-dasharray="158,158" d="M 1279,22796 L 1399,22796 1519,22796 1638,22796 1758,22796 1878,22796 1997,22796 2117,22796 2236,22796 2356,22796 2476,22796 2595,22796 2715,22796 2835,22796 2954,22796 3074,22796 3194,22796 3313,22796 3433,22796 3553,22796 3672,22796 3792,22796 3912,22796 4031,22796 4151,22796 4270,22796 4390,21756 4510,20824 4629,20945 4749,20182 4869,20645 4988,20689 5108,20926 5228,20996 5347,21093 5467,21129 5587,21155 5706,21193 5826,21217 5946,21266 6065,21303 6185,21317 6304,21320 6424,20847 6544,20899 6663,20904 6783,20908 6903,20916 7022,20921 7142,20921 7262,20929 7381,20962 7501,20981 7621,20538 7740,20547 7860,20552 7979,20594 8099,20608 8219,20617 8338,20626 8458,20635 8578,20219 8697,20224 8817,20255 8937,20291 9056,20306 9176,20315 9296,20382 9415,20427 9535,20488 9655,20517 9774,20538 9894,20581 10013,20638 10133,20692 10253,20346 10372,20382 10492,19697 10612,19702 10731,19702 10851,19707 10971,19727 11090,19727 11210,19737 11330,19737 11449,19742 11569,19747 11689,19757 11807,19757 11927,19772 12046,19781 12166,19791 12286,19796 12405,19805 12525,19819 12645,19843 12764,19865 12884,19870 13004,19883 13123,19888 13243,19915 13363,19941 13482,19945 13602,19945 13721,19949 13841,19954 13961,19954 14080,19954 14200,19954 14320,19966 14439,19975 14559,19975 14679,19975 14798,19975 14918,19975 15038,19979 15157,19979 15277,19983 15397,19983 15516,19983 15636,19983 15755,19987 15875,19987 15995,19991 16114,19991 16234,19991 16354,19991 16473,19991 16593,19991 16713,19991 16832,19991 16952,19991 17072,19996 17191,20004 17311,20004 17431,20004 17550,20012 17670,20016 17789,20041 17909,20041 18029,20096 18148,20099 18268,20126 18388,20171"/>
 <text class="TextShape" transform="rotate(-90 1405 24000)"><tspan class="TextParagraph" font-family="Liberation Sans, sans-serif" font-size="388px" font-weight="400"><tspan class="TextPosition" x="1405" y="24000"><tspan fill="rgb(0,0,0)" stroke="none">13.03</tspan></tspan></tspan></text>
 <text class="TextShape" transform="rotate(-90 2243 24000)"><tspan class="TextParagraph" font-family="Liberation Sans, sans-serif" font-size="388px" font-weight="400"><tspan class="TextPosition" x="2243" y="24000"><tspan fill="rgb(0,0,0)" stroke="none">20.03</tspan></tspan></tspan></text>
 <text class="TextShape" transform="rotate(-90 3080 24000)"><tspan class="TextParagraph" font-family="Liberation Sans, sans-serif" font-size="388px" font-weight="400"><tspan class="TextPosition" x="3080" y="24000"><tspan fill="rgb(0,0,0)" stroke="none">27.03</tspan></tspan></tspan></text>
 <text class="TextShape" transform="rotate(-90 3918 24000)"><tspan class="TextParagraph" font-family="Liberation Sans, sans-serif" font-size="388px" font-weight="400"><tspan class="TextPosition" x="3918" y="24000"><tspan fill="rgb(0,0,0)" stroke="none">03.04</tspan></tspan></tspan></text>
 <text class="TextShape" transform="rotate(-90 4755 24000)"><tspan class="TextParagraph" font-family="Liberation Sans, sans-serif" font-size="388px" font-weight="400"><tspan class="TextPosition" x="4755" y="24000"><tspan fill="rgb(0,0,0)" stroke="none">10.04</tspan></tspan></tspan></text>
 <text class="TextShape" transform="rotate(-90 5593 24000)"><tspan class="TextParagraph" font-family="Liberation Sans, sans-serif" font-size="388px" font-weight="400"><tspan class="TextPosition" x="5593" y="24000"><tspan fill="rgb(0,0,0)" stroke="none">17.04</tspan></tspan></tspan></text>
 <text class="TextShape" transform="rotate(-90 6430 24000)"><tspan class="TextParagraph" font-family="Liberation Sans, sans-serif" font-size="388px" font-weight="400"><tspan class="TextPosition" x="6430" y="24000"><tspan fill="rgb(0,0,0)" stroke="none">24.04</tspan></tspan></tspan></text>
 <text class="TextShape" transform="rotate(-90 7268 24000)"><tspan class="TextParagraph" font-family="Liberation Sans, sans-serif" font-size="388px" font-weight="400"><tspan class="TextPosition" x="7268" y="24000"><tspan fill="rgb(0,0,0)" stroke="none">01.05</tspan></tspan></tspan></text>
 <text class="TextShape" transform="rotate(-90 8105 24000)"><tspan class="TextParagraph" font-family="Liberation Sans, sans-serif" font-size="388px" font-weight="400"><tspan class="TextPosition" x="8105" y="24000"><tspan fill="rgb(0,0,0)" stroke="none">08.05</tspan></tspan></tspan></text>
 <text class="TextShape" transform="rotate(-90 8943 24000)"><tspan class="TextParagraph" font-family="Liberation Sans, sans-serif" font-size="388px" font-weight="400"><tspan class="TextPosition" x="8943" y="24000"><tspan fill="rgb(0,0,0)" stroke="none">15.05</tspan></tspan></tspan></text>
 <text class="TextShape" transform="rotate(-90 9781 24000)"><tspan class="TextParagraph" font-family="Liberation Sans, sans-serif" font-size="388px" font-weight="400"><tspan class="TextPosition" x="9781" y="24000"><tspan fill="rgb(0,0,0)" stroke="none">22.05</tspan></tspan></tspan></text>
 <text class="TextShape" transform="rotate(-90 10618 24000)"><tspan class="TextParagraph" font-family="Liberation Sans, sans-serif" font-size="388px" font-weight="400"><tspan class="TextPosition" x="10618" y="24000"><tspan fill="rgb(0,0,0)" stroke="none">29.05</tspan></tspan></tspan></text>
 <text class="TextShape" transform="rotate(-90 11456 24000)"><tspan class="TextParagraph" font-family="Liberation Sans, sans-serif" font-size="388px" font-weight="400"><tspan class="TextPosition" x="11456" y="24000"><tspan fill="rgb(0,0,0)" stroke="none">05.06</tspan></tspan></tspan></text>
 <text class="TextShape" transform="rotate(-90 12292 24000)"><tspan class="TextParagraph" font-family="Liberation Sans, sans-serif" font-size="388px" font-weight="400"><tspan class="TextPosition" x="12292" y="24000"><tspan fill="rgb(0,0,0)" stroke="none">12.06</tspan></tspan></tspan></text>
 <text class="TextShape" transform="rotate(-90 13130 24000)"><tspan class="TextParagraph" font-family="Liberation Sans, sans-serif" font-size="388px" font-weight="400"><tspan class="TextPosition" x="13130" y="24000"><tspan fill="rgb(0,0,0)" stroke="none">19.06</tspan></tspan></tspan></text>
 <text class="TextShape" transform="rotate(-90 13967 24000)"><tspan class="TextParagraph" font-family="Liberation Sans, sans-serif" font-size="388px" font-weight="400"><tspan class="TextPosition" x="13967" y="24000"><tspan fill="rgb(0,0,0)" stroke="none">26.06</tspan></tspan></tspan></text>
 <text class="TextShape" transform="rotate(-90 14805 24000)"><tspan class="TextParagraph" font-family="Liberation Sans, sans-serif" font-size="388px" font-weight="400"><tspan class="TextPosition" x="14805" y="24000"><tspan fill="rgb(0,0,0)" stroke="none">03.07</tspan></tspan></tspan></text>
 <text class="TextShape" transform="rotate(-90 15642 24000)"><tspan class="TextParagraph" font-family="Liberation Sans, sans-serif" font-size="388px" font-weight="400"><tspan class="TextPosition" x="15642" y="24000"><tspan fill="rgb(0,0,0)" stroke="none">10.07</tspan></tspan></tspan></text>
 <text class="TextShape" transform="rotate(-90 16480 24000)"><tspan class="TextParagraph" font-family="Liberation Sans, sans-serif" font-size="388px" font-weight="400"><tspan class="TextPosition" x="16480" y="24000"><tspan fill="rgb(0,0,0)" stroke="none">17.07</tspan></tspan></tspan></text>
 <text class="TextShape" transform="rotate(-90 17317 24000)"><tspan class="TextParagraph" font-family="Liberation Sans, sans-serif" font-size="388px" font-weight="400"><tspan class="TextPosition" x="17317" y="24000"><tspan fill="rgb(0,0,0)" stroke="none">24.07</tspan></tspan></tspan></text>
 <text class="TextShape" transform="rotate(-90 18155 24000)"><tspan class="TextParagraph" font-family="Liberation Sans, sans-serif" font-size="388px" font-weight="400"><tspan class="TextPosition" x="18155" y="24000"><tspan fill="rgb(0,0,0)" stroke="none">31.07</tspan></tspan></tspan></text>
 <text class="TextShape"><tspan class="TextParagraph" font-family="Liberation Sans, sans-serif" font-size="388px" font-weight="400"><tspan class="TextPosition" x="420" y="22924"><tspan fill="rgb(0,0,0)" stroke="none">0%</tspan></tspan></tspan></text>
 <text class="TextShape"><tspan class="TextParagraph" font-family="Liberation Sans, sans-serif" font-size="388px" font-weight="400"><tspan class="TextPosition" x="420" y="20824"><tspan fill="rgb(0,0,0)" stroke="none">1%</tspan></tspan></tspan></text>
 <text class="TextShape"><tspan class="TextParagraph" font-family="Liberation Sans, sans-serif" font-size="388px" font-weight="400"><tspan class="TextPosition" x="420" y="18724"><tspan fill="rgb(0,0,0)" stroke="none">2%</tspan></tspan></tspan></text>
 <text class="TextShape"><tspan class="TextParagraph" font-family="Liberation Sans, sans-serif" font-size="388px" font-weight="400"><tspan class="TextPosition" x="420" y="16624"><tspan fill="rgb(0,0,0)" stroke="none">3%</tspan></tspan></tspan></text>
 <text class="TextShape"><tspan class="TextParagraph" font-family="Liberation Sans, sans-serif" font-size="388px" font-weight="400"><tspan class="TextPosition" x="420" y="14524"><tspan fill="rgb(0,0,0)" stroke="none">4%</tspan></tspan></tspan></text>
 <text class="TextShape"><tspan class="TextParagraph" font-family="Liberation Sans, sans-serif" font-size="388px" font-weight="400"><tspan class="TextPosition" x="420" y="12424"><tspan fill="rgb(0,0,0)" stroke="none">5%</tspan></tspan></tspan></text>
 <text class="TextShape"><tspan class="TextParagraph" font-family="Liberation Sans, sans-serif" font-size="388px" font-weight="400"><tspan class="TextPosition" x="420" y="10324"><tspan fill="rgb(0,0,0)" stroke="none">6%</tspan></tspan></tspan></text>
 <text class="TextShape"><tspan class="TextParagraph" font-family="Liberation Sans, sans-serif" font-size="388px" font-weight="400"><tspan class="TextPosition" x="420" y="8224"><tspan fill="rgb(0,0,0)" stroke="none">7%</tspan></tspan></tspan></text>
 <text class="TextShape"><tspan class="TextParagraph" font-family="Liberation Sans, sans-serif" font-size="388px" font-weight="400"><tspan class="TextPosition" x="420" y="6124"><tspan fill="rgb(0,0,0)" stroke="none">8%</tspan></tspan></tspan></text>
 <text class="TextShape"><tspan class="TextParagraph" font-family="Liberation Sans, sans-serif" font-size="388px" font-weight="400"><tspan class="TextPosition" x="420" y="4024"><tspan fill="rgb(0,0,0)" stroke="none">9%</tspan></tspan></tspan></text>
 <text class="TextShape"><tspan class="TextParagraph" font-family="Liberation Sans, sans-serif" font-size="388px" font-weight="400"><tspan class="TextPosition" x="208" y="1925"><tspan fill="rgb(0,0,0)" stroke="none">10%</tspan></tspan></tspan></text>
 <text class="TextShape"><tspan class="TextParagraph" font-family="Liberation Sans, sans-serif" font-size="494px" font-weight="700"><tspan class="TextPosition" x="1227" y="926"><tspan fill="rgb(0,0,0)" stroke="none">EU - pomr celkovho potu obt ke 5 dn zpodnmu celkovmu potu infikovanch</tspan></tspan></tspan><tspan class="TextParagraph" font-family="Liberation Sans, sans-serif" font-size="494px" font-weight="700"><tspan class="TextPosition" x="1227" y="1477"><tspan fill="rgb(0,0,0)" stroke="none">(mtko do 10 %)</tspan></tspan></tspan></text>
 <path fill="none" stroke="rgb(255,128,0)" stroke-width="80" stroke-linejoin="round" stroke-dasharray="80,40" d="M 18747,2024 L 20347,2024"/>
 <path fill="none" stroke="rgb(0,0,255)" stroke-width="80" stroke-linejoin="round" stroke-dasharray="80,40" d="M 18747,2741 L 20347,2741"/>
 <path fill="none" stroke="rgb(131,202,255)" stroke-width="80" stroke-linejoin="round" d="M 18747,3458 L 20347,3458"/>
 <path fill="none" stroke="rgb(255,128,0)" stroke-width="80" stroke-linejoin="round" stroke-dasharray="158,158" d="M 18747,4175 L 20347,4175"/>
 <path fill="none" stroke="rgb(255,128,0)" stroke-width="80" stroke-linejoin="round" d="M 18747,4892 L 20347,4892"/>
 <path fill="none" stroke="rgb(21,132,102)" stroke-width="80" stroke-linejoin="round" stroke-dasharray="51,127,51,127,254,127,254,127,254,127" d="M 18747,5609 L 20347,5609"/>
 <path fill="none" stroke="rgb(128,0,128)" stroke-width="80" stroke-linejoin="round" d="M 18747,6326 L 20347,6326"/>
 <path fill="none" stroke="rgb(0,0,255)" stroke-width="80" stroke-linejoin="round" stroke-dasharray="51,127,51,127,254,127,254,127,254,127" d="M 18747,7043 L 20347,7043"/>
 <path fill="none" stroke="rgb(255,0,0)" stroke-width="80" stroke-linejoin="round" d="M 18747,7760 L 20347,7760"/>
 <path fill="none" stroke="rgb(129,212,26)" stroke-width="80" stroke-linejoin="round" stroke-dasharray="80,40" d="M 18747,8477 L 20347,8477"/>
 <path fill="none" stroke="rgb(131,202,255)" stroke-width="80" stroke-linejoin="round" stroke-dasharray="158,158" d="M 18747,9194 L 20347,9194"/>
 <path fill="none" stroke="rgb(255,0,0)" stroke-width="80" stroke-linejoin="round" stroke-dasharray="158,158" d="M 18747,9911 L 20347,9911"/>
 <path fill="none" stroke="rgb(180,120,4)" stroke-width="80" stroke-linejoin="round" stroke-dasharray="80,40" d="M 18747,10628 L 20347,10628"/>
 <path fill="none" stroke="rgb(180,120,4)" stroke-width="80" stroke-linejoin="round" d="M 18747,11345 L 20347,11345"/>
 <path fill="none" stroke="rgb(52,42,6)" stroke-width="80" stroke-linejoin="round" d="M 18747,12062 L 20347,12062"/>
 <path fill="none" stroke="rgb(129,212,26)" stroke-width="80" stroke-linejoin="round" stroke-dasharray="158,158" d="M 18747,12778 L 20347,12778"/>
 <path fill="none" stroke="rgb(191,0,65)" stroke-width="80" stroke-linejoin="round" stroke-dasharray="51,127,51,127,254,127,254,127,254,127" d="M 18747,13495 L 20347,13495"/>
 <path fill="none" stroke="rgb(128,0,128)" stroke-width="80" stroke-linejoin="round" stroke-dasharray="80,40" d="M 18747,14212 L 20347,14212"/>
 <path fill="none" stroke="rgb(0,169,51)" stroke-width="80" stroke-linejoin="round" stroke-dasharray="80,40" d="M 18747,14929 L 20347,14929"/>
 <path fill="none" stroke="rgb(0,169,51)" stroke-width="80" stroke-linejoin="round" stroke-dasharray="158,158" d="M 18747,15646 L 20347,15646"/>
 <path fill="none" stroke="rgb(0,169,51)" stroke-width="80" stroke-linejoin="round" d="M 18747,16363 L 20347,16363"/>
 <path fill="none" stroke="rgb(128,0,128)" stroke-width="80" stroke-linejoin="round" stroke-dasharray="158,158" d="M 18747,17080 L 20347,17080"/>
 <path fill="none" stroke="rgb(85,48,141)" stroke-width="80" stroke-linejoin="round" stroke-dasharray="80,40" d="M 18747,17797 L 20347,17797"/>
 <path fill="none" stroke="rgb(131,202,255)" stroke-width="80" stroke-linejoin="round" stroke-dasharray="80,40" d="M 18747,18514 L 20347,18514"/>
 <path fill="none" stroke="rgb(255,191,0)" stroke-width="80" stroke-linejoin="round" stroke-dasharray="158,158" d="M 18747,19231 L 20347,19231"/>
 <path fill="none" stroke="rgb(255,191,0)" stroke-width="80" stroke-linejoin="round" d="M 18747,19948 L 20347,19948"/>
 <path fill="none" stroke="rgb(0,0,255)" stroke-width="80" stroke-linejoin="round" d="M 18747,20665 L 20347,20665"/>
 <path fill="none" stroke="rgb(241,13,12)" stroke-width="80" stroke-linejoin="round" stroke-dasharray="80,40" d="M 18747,21382 L 20347,21382"/>
 <path fill="none" stroke="rgb(0,0,255)" stroke-width="80" stroke-linejoin="round" stroke-dasharray="158,158" d="M 18747,22099 L 20347,22099"/>
 <path fill="none" stroke="rgb(0,0,0)" stroke-width="80" stroke-linejoin="round" stroke-dasharray="158,158" d="M 18747,22816 L 20347,22816"/>
 <text class="TextShape"><tspan class="TextParagraph" font-family="Liberation Sans, sans-serif" font-size="423px" font-weight="400"><tspan class="TextPosition" x="20447" y="2172"><tspan fill="rgb(0,0,0)" stroke="none">Belgie</tspan></tspan></tspan></text>
 <text class="TextShape"><tspan class="TextParagraph" font-family="Liberation Sans, sans-serif" font-size="423px" font-weight="400"><tspan class="TextPosition" x="20447" y="2889"><tspan fill="rgb(0,0,0)" stroke="none">Francie</tspan></tspan></tspan></text>
 <text class="TextShape"><tspan class="TextParagraph" font-family="Liberation Sans, sans-serif" font-size="423px" font-weight="400"><tspan class="TextPosition" x="20447" y="3606"><tspan fill="rgb(0,0,0)" stroke="none">Itlie</tspan></tspan></tspan></text>
 <text class="TextShape"><tspan class="TextParagraph" font-family="Liberation Sans, sans-serif" font-size="423px" font-weight="400"><tspan class="TextPosition" x="20447" y="4323"><tspan fill="rgb(0,0,0)" stroke="none">Maarsko</tspan></tspan></tspan></text>
 <text class="TextShape"><tspan class="TextParagraph" font-family="Liberation Sans, sans-serif" font-size="423px" font-weight="400"><tspan class="TextPosition" x="20447" y="5040"><tspan fill="rgb(0,0,0)" stroke="none">Nizozemsko</tspan></tspan></tspan></text>
 <text class="TextShape"><tspan class="TextParagraph" font-family="Liberation Sans, sans-serif" font-size="423px" font-weight="400"><tspan class="TextPosition" x="20447" y="5757"><tspan fill="rgb(0,0,0)" stroke="none">EU_star zem</tspan></tspan></tspan></text>
 <text class="TextShape"><tspan class="TextParagraph" font-family="Liberation Sans, sans-serif" font-size="423px" font-weight="400"><tspan class="TextPosition" x="20447" y="6474"><tspan fill="rgb(0,0,0)" stroke="none">panlsko</tspan></tspan></tspan></text>
 <text class="TextShape"><tspan class="TextParagraph" font-family="Liberation Sans, sans-serif" font-size="423px" font-weight="400"><tspan class="TextPosition" x="20447" y="7191"><tspan fill="rgb(0,0,0)" stroke="none">EU</tspan></tspan></tspan></text>
 <text class="TextShape"><tspan class="TextParagraph" font-family="Liberation Sans, sans-serif" font-size="423px" font-weight="400"><tspan class="TextPosition" x="20447" y="7908"><tspan fill="rgb(0,0,0)" stroke="none">vdsko</tspan></tspan></tspan></text>
 <text class="TextShape"><tspan class="TextParagraph" font-family="Liberation Sans, sans-serif" font-size="423px" font-weight="400"><tspan class="TextPosition" x="20447" y="8625"><tspan fill="rgb(0,0,0)" stroke="none">Irsko</tspan></tspan></tspan></text>
 <text class="TextShape"><tspan class="TextParagraph" font-family="Liberation Sans, sans-serif" font-size="423px" font-weight="400"><tspan class="TextPosition" x="20447" y="9342"><tspan fill="rgb(0,0,0)" stroke="none">Slovinsko</tspan></tspan></tspan></text>
 <text class="TextShape"><tspan class="TextParagraph" font-family="Liberation Sans, sans-serif" font-size="423px" font-weight="400"><tspan class="TextPosition" x="20447" y="10059"><tspan fill="rgb(0,0,0)" stroke="none">Rumunsko</tspan></tspan></tspan></text>
 <text class="TextShape"><tspan class="TextParagraph" font-family="Liberation Sans, sans-serif" font-size="423px" font-weight="400"><tspan class="TextPosition" x="20447" y="10776"><tspan fill="rgb(0,0,0)" stroke="none">ecko</tspan></tspan></tspan></text>
 <text class="TextShape"><tspan class="TextParagraph" font-family="Liberation Sans, sans-serif" font-size="423px" font-weight="400"><tspan class="TextPosition" x="20447" y="11493"><tspan fill="rgb(0,0,0)" stroke="none">Dnsko</tspan></tspan></tspan></text>
 <text class="TextShape"><tspan class="TextParagraph" font-family="Liberation Sans, sans-serif" font-size="423px" font-weight="400"><tspan class="TextPosition" x="20447" y="12210"><tspan fill="rgb(0,0,0)" stroke="none">Nmecko</tspan></tspan></tspan></text>
 <text class="TextShape"><tspan class="TextParagraph" font-family="Liberation Sans, sans-serif" font-size="423px" font-weight="400"><tspan class="TextPosition" x="20447" y="12926"><tspan fill="rgb(0,0,0)" stroke="none">Finsko</tspan></tspan></tspan></text>
 <text class="TextShape"><tspan class="TextParagraph" font-family="Liberation Sans, sans-serif" font-size="423px" font-weight="400"><tspan class="TextPosition" x="20447" y="13643"><tspan fill="rgb(0,0,0)" stroke="none">EU_nov zem</tspan></tspan></tspan></text>
 <text class="TextShape"><tspan class="TextParagraph" font-family="Liberation Sans, sans-serif" font-size="423px" font-weight="400"><tspan class="TextPosition" x="20447" y="14360"><tspan fill="rgb(0,0,0)" stroke="none">Litva</tspan></tspan></tspan></text>
 <text class="TextShape"><tspan class="TextParagraph" font-family="Liberation Sans, sans-serif" font-size="423px" font-weight="400"><tspan class="TextPosition" x="20447" y="15077"><tspan fill="rgb(0,0,0)" stroke="none">Polsko</tspan></tspan></tspan></text>
 <text class="TextShape"><tspan class="TextParagraph" font-family="Liberation Sans, sans-serif" font-size="423px" font-weight="400"><tspan class="TextPosition" x="20447" y="15794"><tspan fill="rgb(0,0,0)" stroke="none">Bulharsko</tspan></tspan></tspan></text>
 <text class="TextShape"><tspan class="TextParagraph" font-family="Liberation Sans, sans-serif" font-size="423px" font-weight="400"><tspan class="TextPosition" x="20447" y="16511"><tspan fill="rgb(0,0,0)" stroke="none">Rakousko</tspan></tspan></tspan></text>
 <text class="TextShape"><tspan class="TextParagraph" font-family="Liberation Sans, sans-serif" font-size="423px" font-weight="400"><tspan class="TextPosition" x="20447" y="17228"><tspan fill="rgb(0,0,0)" stroke="none">Portugalsko</tspan></tspan></tspan></text>
 <text class="TextShape"><tspan class="TextParagraph" font-family="Liberation Sans, sans-serif" font-size="423px" font-weight="400"><tspan class="TextPosition" x="20447" y="17945"><tspan fill="rgb(0,0,0)" stroke="none">Estonsko</tspan></tspan></tspan></text>
 <text class="TextShape"><tspan class="TextParagraph" font-family="Liberation Sans, sans-serif" font-size="423px" font-weight="400"><tspan class="TextPosition" x="20447" y="18662"><tspan fill="rgb(0,0,0)" stroke="none">Chorvatsko</tspan></tspan></tspan></text>
 <text class="TextShape"><tspan class="TextParagraph" font-family="Liberation Sans, sans-serif" font-size="423px" font-weight="400"><tspan class="TextPosition" x="20447" y="19379"><tspan fill="rgb(0,0,0)" stroke="none">Lotysko</tspan></tspan></tspan></text>
 <text class="TextShape"><tspan class="TextParagraph" font-family="Liberation Sans, sans-serif" font-size="423px" font-weight="400"><tspan class="TextPosition" x="20447" y="20096"><tspan fill="rgb(0,0,0)" stroke="none">esko</tspan></tspan></tspan></text>
 <text class="TextShape"><tspan class="TextParagraph" font-family="Liberation Sans, sans-serif" font-size="423px" font-weight="400"><tspan class="TextPosition" x="20447" y="20813"><tspan fill="rgb(0,0,0)" stroke="none">Luxembursko</tspan></tspan></tspan></text>
 <text class="TextShape"><tspan class="TextParagraph" font-family="Liberation Sans, sans-serif" font-size="423px" font-weight="400"><tspan class="TextPosition" x="20447" y="21530"><tspan fill="rgb(0,0,0)" stroke="none">Kypr</tspan></tspan></tspan></text>
 <text class="TextShape"><tspan class="TextParagraph" font-family="Liberation Sans, sans-serif" font-size="423px" font-weight="400"><tspan class="TextPosition" x="20447" y="22247"><tspan fill="rgb(0,0,0)" stroke="none">Slovensko</tspan></tspan></tspan></text>
 <text class="TextShape"><tspan class="TextParagraph" font-family="Liberation Sans, sans-serif" font-size="423px" font-weight="400"><tspan class="TextPosition" x="20447" y="22964"><tspan fill="rgb(0,0,0)" stroke="none">Malta</tspan></tspan></tspan></text>
</svg>