<?xml version="1.0" encoding="UTF-8"?>
<!DOCTYPE svg PUBLIC "-//W3C//DTD SVG 1.1//EN" "http://www.w3.org/Graphics/SVG/1.1/DTD/svg11.dtd">
<svg width="236mm" height="250mm" viewBox="0 0 23600 25000" version="1.1" xmlns="http://www.w3.org/2000/svg" xmlns:xlink="http://www.w3.org/1999/xlink" stroke-width="28.222" stroke-linejoin="round" xml:space="preserve">
 <path fill="rgb(255,255,255)" stroke="none" d="M 11800,25000 L 0,25000 0,0 23600,0 23600,25000 11800,25000 Z"/>
 <path fill="none" stroke="rgb(179,179,179)" stroke-linejoin="round" d="M 10022,22797 L 1408,22797 1408,1799 18636,1799 18636,22797 10022,22797 Z"/>
 <path fill="none" stroke="rgb(179,179,179)" stroke-linejoin="round" d="M 18636,22796 L 1408,22796"/>
 <path fill="none" stroke="rgb(179,179,179)" stroke-linejoin="round" d="M 18636,20696 L 1408,20696"/>
 <path fill="none" stroke="rgb(179,179,179)" stroke-linejoin="round" d="M 18636,18596 L 1408,18596"/>
 <path fill="none" stroke="rgb(179,179,179)" stroke-linejoin="round" d="M 18636,16496 L 1408,16496"/>
 <path fill="none" stroke="rgb(179,179,179)" stroke-linejoin="round" d="M 18636,14396 L 1408,14396"/>
 <path fill="none" stroke="rgb(179,179,179)" stroke-linejoin="round" d="M 18636,12297 L 1408,12297"/>
 <path fill="none" stroke="rgb(179,179,179)" stroke-linejoin="round" d="M 18636,10197 L 1408,10197"/>
 <path fill="none" stroke="rgb(179,179,179)" stroke-linejoin="round" d="M 18636,8097 L 1408,8097"/>
 <path fill="none" stroke="rgb(179,179,179)" stroke-linejoin="round" d="M 18636,5997 L 1408,5997"/>
 <path fill="none" stroke="rgb(179,179,179)" stroke-linejoin="round" d="M 18636,3897 L 1408,3897"/>
 <path fill="none" stroke="rgb(179,179,179)" stroke-linejoin="round" d="M 18636,1798 L 1408,1798"/>
 <path fill="none" stroke="rgb(179,179,179)" stroke-linejoin="round" d="M 1408,22946 L 1408,22796"/>
 <path fill="none" stroke="rgb(179,179,179)" stroke-linejoin="round" d="M 1408,22946 L 1408,22796"/>
 <path fill="none" stroke="rgb(179,179,179)" stroke-linejoin="round" d="M 1516,22946 L 1516,22796"/>
 <path fill="none" stroke="rgb(179,179,179)" stroke-linejoin="round" d="M 1516,22946 L 1516,22796"/>
 <path fill="none" stroke="rgb(179,179,179)" stroke-linejoin="round" d="M 1624,22946 L 1624,22796"/>
 <path fill="none" stroke="rgb(179,179,179)" stroke-linejoin="round" d="M 1624,22946 L 1624,22796"/>
 <path fill="none" stroke="rgb(179,179,179)" stroke-linejoin="round" d="M 1733,22946 L 1733,22796"/>
 <path fill="none" stroke="rgb(179,179,179)" stroke-linejoin="round" d="M 1733,22946 L 1733,22796"/>
 <path fill="none" stroke="rgb(179,179,179)" stroke-linejoin="round" d="M 1841,22946 L 1841,22796"/>
 <path fill="none" stroke="rgb(179,179,179)" stroke-linejoin="round" d="M 1841,22946 L 1841,22796"/>
 <path fill="none" stroke="rgb(179,179,179)" stroke-linejoin="round" d="M 1949,22946 L 1949,22796"/>
 <path fill="none" stroke="rgb(179,179,179)" stroke-linejoin="round" d="M 1949,22946 L 1949,22796"/>
 <path fill="none" stroke="rgb(179,179,179)" stroke-linejoin="round" d="M 2058,22946 L 2058,22796"/>
 <path fill="none" stroke="rgb(179,179,179)" stroke-linejoin="round" d="M 2058,22946 L 2058,22796"/>
 <path fill="none" stroke="rgb(179,179,179)" stroke-linejoin="round" d="M 2166,22946 L 2166,22796"/>
 <path fill="none" stroke="rgb(179,179,179)" stroke-linejoin="round" d="M 2166,22946 L 2166,22796"/>
 <path fill="none" stroke="rgb(179,179,179)" stroke-linejoin="round" d="M 2274,22946 L 2274,22796"/>
 <path fill="none" stroke="rgb(179,179,179)" stroke-linejoin="round" d="M 2274,22946 L 2274,22796"/>
 <path fill="none" stroke="rgb(179,179,179)" stroke-linejoin="round" d="M 2383,22946 L 2383,22796"/>
 <path fill="none" stroke="rgb(179,179,179)" stroke-linejoin="round" d="M 2383,22946 L 2383,22796"/>
 <path fill="none" stroke="rgb(179,179,179)" stroke-linejoin="round" d="M 2491,22946 L 2491,22796"/>
 <path fill="none" stroke="rgb(179,179,179)" stroke-linejoin="round" d="M 2491,22946 L 2491,22796"/>
 <path fill="none" stroke="rgb(179,179,179)" stroke-linejoin="round" d="M 2599,22946 L 2599,22796"/>
 <path fill="none" stroke="rgb(179,179,179)" stroke-linejoin="round" d="M 2599,22946 L 2599,22796"/>
 <path fill="none" stroke="rgb(179,179,179)" stroke-linejoin="round" d="M 2708,22946 L 2708,22796"/>
 <path fill="none" stroke="rgb(179,179,179)" stroke-linejoin="round" d="M 2708,22946 L 2708,22796"/>
 <path fill="none" stroke="rgb(179,179,179)" stroke-linejoin="round" d="M 2816,22946 L 2816,22796"/>
 <path fill="none" stroke="rgb(179,179,179)" stroke-linejoin="round" d="M 2816,22946 L 2816,22796"/>
 <path fill="none" stroke="rgb(179,179,179)" stroke-linejoin="round" d="M 2925,22946 L 2925,22796"/>
 <path fill="none" stroke="rgb(179,179,179)" stroke-linejoin="round" d="M 2925,22946 L 2925,22796"/>
 <path fill="none" stroke="rgb(179,179,179)" stroke-linejoin="round" d="M 3033,22946 L 3033,22796"/>
 <path fill="none" stroke="rgb(179,179,179)" stroke-linejoin="round" d="M 3033,22946 L 3033,22796"/>
 <path fill="none" stroke="rgb(179,179,179)" stroke-linejoin="round" d="M 3141,22946 L 3141,22796"/>
 <path fill="none" stroke="rgb(179,179,179)" stroke-linejoin="round" d="M 3141,22946 L 3141,22796"/>
 <path fill="none" stroke="rgb(179,179,179)" stroke-linejoin="round" d="M 3250,22946 L 3250,22796"/>
 <path fill="none" stroke="rgb(179,179,179)" stroke-linejoin="round" d="M 3250,22946 L 3250,22796"/>
 <path fill="none" stroke="rgb(179,179,179)" stroke-linejoin="round" d="M 3358,22946 L 3358,22796"/>
 <path fill="none" stroke="rgb(179,179,179)" stroke-linejoin="round" d="M 3358,22946 L 3358,22796"/>
 <path fill="none" stroke="rgb(179,179,179)" stroke-linejoin="round" d="M 3466,22946 L 3466,22796"/>
 <path fill="none" stroke="rgb(179,179,179)" stroke-linejoin="round" d="M 3466,22946 L 3466,22796"/>
 <path fill="none" stroke="rgb(179,179,179)" stroke-linejoin="round" d="M 3575,22946 L 3575,22796"/>
 <path fill="none" stroke="rgb(179,179,179)" stroke-linejoin="round" d="M 3575,22946 L 3575,22796"/>
 <path fill="none" stroke="rgb(179,179,179)" stroke-linejoin="round" d="M 3683,22946 L 3683,22796"/>
 <path fill="none" stroke="rgb(179,179,179)" stroke-linejoin="round" d="M 3683,22946 L 3683,22796"/>
 <path fill="none" stroke="rgb(179,179,179)" stroke-linejoin="round" d="M 3791,22946 L 3791,22796"/>
 <path fill="none" stroke="rgb(179,179,179)" stroke-linejoin="round" d="M 3791,22946 L 3791,22796"/>
 <path fill="none" stroke="rgb(179,179,179)" stroke-linejoin="round" d="M 3900,22946 L 3900,22796"/>
 <path fill="none" stroke="rgb(179,179,179)" stroke-linejoin="round" d="M 3900,22946 L 3900,22796"/>
 <path fill="none" stroke="rgb(179,179,179)" stroke-linejoin="round" d="M 4008,22946 L 4008,22796"/>
 <path fill="none" stroke="rgb(179,179,179)" stroke-linejoin="round" d="M 4008,22946 L 4008,22796"/>
 <path fill="none" stroke="rgb(179,179,179)" stroke-linejoin="round" d="M 4116,22946 L 4116,22796"/>
 <path fill="none" stroke="rgb(179,179,179)" stroke-linejoin="round" d="M 4116,22946 L 4116,22796"/>
 <path fill="none" stroke="rgb(179,179,179)" stroke-linejoin="round" d="M 4225,22946 L 4225,22796"/>
 <path fill="none" stroke="rgb(179,179,179)" stroke-linejoin="round" d="M 4225,22946 L 4225,22796"/>
 <path fill="none" stroke="rgb(179,179,179)" stroke-linejoin="round" d="M 4333,22946 L 4333,22796"/>
 <path fill="none" stroke="rgb(179,179,179)" stroke-linejoin="round" d="M 4333,22946 L 4333,22796"/>
 <path fill="none" stroke="rgb(179,179,179)" stroke-linejoin="round" d="M 4442,22946 L 4442,22796"/>
 <path fill="none" stroke="rgb(179,179,179)" stroke-linejoin="round" d="M 4442,22946 L 4442,22796"/>
 <path fill="none" stroke="rgb(179,179,179)" stroke-linejoin="round" d="M 4550,22946 L 4550,22796"/>
 <path fill="none" stroke="rgb(179,179,179)" stroke-linejoin="round" d="M 4550,22946 L 4550,22796"/>
 <path fill="none" stroke="rgb(179,179,179)" stroke-linejoin="round" d="M 4658,22946 L 4658,22796"/>
 <path fill="none" stroke="rgb(179,179,179)" stroke-linejoin="round" d="M 4658,22946 L 4658,22796"/>
 <path fill="none" stroke="rgb(179,179,179)" stroke-linejoin="round" d="M 4767,22946 L 4767,22796"/>
 <path fill="none" stroke="rgb(179,179,179)" stroke-linejoin="round" d="M 4767,22946 L 4767,22796"/>
 <path fill="none" stroke="rgb(179,179,179)" stroke-linejoin="round" d="M 4875,22946 L 4875,22796"/>
 <path fill="none" stroke="rgb(179,179,179)" stroke-linejoin="round" d="M 4875,22946 L 4875,22796"/>
 <path fill="none" stroke="rgb(179,179,179)" stroke-linejoin="round" d="M 4983,22946 L 4983,22796"/>
 <path fill="none" stroke="rgb(179,179,179)" stroke-linejoin="round" d="M 4983,22946 L 4983,22796"/>
 <path fill="none" stroke="rgb(179,179,179)" stroke-linejoin="round" d="M 5092,22946 L 5092,22796"/>
 <path fill="none" stroke="rgb(179,179,179)" stroke-linejoin="round" d="M 5092,22946 L 5092,22796"/>
 <path fill="none" stroke="rgb(179,179,179)" stroke-linejoin="round" d="M 5200,22946 L 5200,22796"/>
 <path fill="none" stroke="rgb(179,179,179)" stroke-linejoin="round" d="M 5200,22946 L 5200,22796"/>
 <path fill="none" stroke="rgb(179,179,179)" stroke-linejoin="round" d="M 5308,22946 L 5308,22796"/>
 <path fill="none" stroke="rgb(179,179,179)" stroke-linejoin="round" d="M 5308,22946 L 5308,22796"/>
 <path fill="none" stroke="rgb(179,179,179)" stroke-linejoin="round" d="M 5417,22946 L 5417,22796"/>
 <path fill="none" stroke="rgb(179,179,179)" stroke-linejoin="round" d="M 5417,22946 L 5417,22796"/>
 <path fill="none" stroke="rgb(179,179,179)" stroke-linejoin="round" d="M 5525,22946 L 5525,22796"/>
 <path fill="none" stroke="rgb(179,179,179)" stroke-linejoin="round" d="M 5525,22946 L 5525,22796"/>
 <path fill="none" stroke="rgb(179,179,179)" stroke-linejoin="round" d="M 5633,22946 L 5633,22796"/>
 <path fill="none" stroke="rgb(179,179,179)" stroke-linejoin="round" d="M 5633,22946 L 5633,22796"/>
 <path fill="none" stroke="rgb(179,179,179)" stroke-linejoin="round" d="M 5742,22946 L 5742,22796"/>
 <path fill="none" stroke="rgb(179,179,179)" stroke-linejoin="round" d="M 5742,22946 L 5742,22796"/>
 <path fill="none" stroke="rgb(179,179,179)" stroke-linejoin="round" d="M 5850,22946 L 5850,22796"/>
 <path fill="none" stroke="rgb(179,179,179)" stroke-linejoin="round" d="M 5850,22946 L 5850,22796"/>
 <path fill="none" stroke="rgb(179,179,179)" stroke-linejoin="round" d="M 5959,22946 L 5959,22796"/>
 <path fill="none" stroke="rgb(179,179,179)" stroke-linejoin="round" d="M 5959,22946 L 5959,22796"/>
 <path fill="none" stroke="rgb(179,179,179)" stroke-linejoin="round" d="M 6067,22946 L 6067,22796"/>
 <path fill="none" stroke="rgb(179,179,179)" stroke-linejoin="round" d="M 6067,22946 L 6067,22796"/>
 <path fill="none" stroke="rgb(179,179,179)" stroke-linejoin="round" d="M 6175,22946 L 6175,22796"/>
 <path fill="none" stroke="rgb(179,179,179)" stroke-linejoin="round" d="M 6175,22946 L 6175,22796"/>
 <path fill="none" stroke="rgb(179,179,179)" stroke-linejoin="round" d="M 6284,22946 L 6284,22796"/>
 <path fill="none" stroke="rgb(179,179,179)" stroke-linejoin="round" d="M 6284,22946 L 6284,22796"/>
 <path fill="none" stroke="rgb(179,179,179)" stroke-linejoin="round" d="M 6392,22946 L 6392,22796"/>
 <path fill="none" stroke="rgb(179,179,179)" stroke-linejoin="round" d="M 6392,22946 L 6392,22796"/>
 <path fill="none" stroke="rgb(179,179,179)" stroke-linejoin="round" d="M 6500,22946 L 6500,22796"/>
 <path fill="none" stroke="rgb(179,179,179)" stroke-linejoin="round" d="M 6500,22946 L 6500,22796"/>
 <path fill="none" stroke="rgb(179,179,179)" stroke-linejoin="round" d="M 6609,22946 L 6609,22796"/>
 <path fill="none" stroke="rgb(179,179,179)" stroke-linejoin="round" d="M 6609,22946 L 6609,22796"/>
 <path fill="none" stroke="rgb(179,179,179)" stroke-linejoin="round" d="M 6717,22946 L 6717,22796"/>
 <path fill="none" stroke="rgb(179,179,179)" stroke-linejoin="round" d="M 6717,22946 L 6717,22796"/>
 <path fill="none" stroke="rgb(179,179,179)" stroke-linejoin="round" d="M 6825,22946 L 6825,22796"/>
 <path fill="none" stroke="rgb(179,179,179)" stroke-linejoin="round" d="M 6825,22946 L 6825,22796"/>
 <path fill="none" stroke="rgb(179,179,179)" stroke-linejoin="round" d="M 6934,22946 L 6934,22796"/>
 <path fill="none" stroke="rgb(179,179,179)" stroke-linejoin="round" d="M 6934,22946 L 6934,22796"/>
 <path fill="none" stroke="rgb(179,179,179)" stroke-linejoin="round" d="M 7042,22946 L 7042,22796"/>
 <path fill="none" stroke="rgb(179,179,179)" stroke-linejoin="round" d="M 7042,22946 L 7042,22796"/>
 <path fill="none" stroke="rgb(179,179,179)" stroke-linejoin="round" d="M 7151,22946 L 7151,22796"/>
 <path fill="none" stroke="rgb(179,179,179)" stroke-linejoin="round" d="M 7151,22946 L 7151,22796"/>
 <path fill="none" stroke="rgb(179,179,179)" stroke-linejoin="round" d="M 7259,22946 L 7259,22796"/>
 <path fill="none" stroke="rgb(179,179,179)" stroke-linejoin="round" d="M 7259,22946 L 7259,22796"/>
 <path fill="none" stroke="rgb(179,179,179)" stroke-linejoin="round" d="M 7367,22946 L 7367,22796"/>
 <path fill="none" stroke="rgb(179,179,179)" stroke-linejoin="round" d="M 7367,22946 L 7367,22796"/>
 <path fill="none" stroke="rgb(179,179,179)" stroke-linejoin="round" d="M 7476,22946 L 7476,22796"/>
 <path fill="none" stroke="rgb(179,179,179)" stroke-linejoin="round" d="M 7476,22946 L 7476,22796"/>
 <path fill="none" stroke="rgb(179,179,179)" stroke-linejoin="round" d="M 7584,22946 L 7584,22796"/>
 <path fill="none" stroke="rgb(179,179,179)" stroke-linejoin="round" d="M 7584,22946 L 7584,22796"/>
 <path fill="none" stroke="rgb(179,179,179)" stroke-linejoin="round" d="M 7692,22946 L 7692,22796"/>
 <path fill="none" stroke="rgb(179,179,179)" stroke-linejoin="round" d="M 7692,22946 L 7692,22796"/>
 <path fill="none" stroke="rgb(179,179,179)" stroke-linejoin="round" d="M 7801,22946 L 7801,22796"/>
 <path fill="none" stroke="rgb(179,179,179)" stroke-linejoin="round" d="M 7801,22946 L 7801,22796"/>
 <path fill="none" stroke="rgb(179,179,179)" stroke-linejoin="round" d="M 7909,22946 L 7909,22796"/>
 <path fill="none" stroke="rgb(179,179,179)" stroke-linejoin="round" d="M 7909,22946 L 7909,22796"/>
 <path fill="none" stroke="rgb(179,179,179)" stroke-linejoin="round" d="M 8017,22946 L 8017,22796"/>
 <path fill="none" stroke="rgb(179,179,179)" stroke-linejoin="round" d="M 8017,22946 L 8017,22796"/>
 <path fill="none" stroke="rgb(179,179,179)" stroke-linejoin="round" d="M 8126,22946 L 8126,22796"/>
 <path fill="none" stroke="rgb(179,179,179)" stroke-linejoin="round" d="M 8126,22946 L 8126,22796"/>
 <path fill="none" stroke="rgb(179,179,179)" stroke-linejoin="round" d="M 8234,22946 L 8234,22796"/>
 <path fill="none" stroke="rgb(179,179,179)" stroke-linejoin="round" d="M 8234,22946 L 8234,22796"/>
 <path fill="none" stroke="rgb(179,179,179)" stroke-linejoin="round" d="M 8342,22946 L 8342,22796"/>
 <path fill="none" stroke="rgb(179,179,179)" stroke-linejoin="round" d="M 8342,22946 L 8342,22796"/>
 <path fill="none" stroke="rgb(179,179,179)" stroke-linejoin="round" d="M 8451,22946 L 8451,22796"/>
 <path fill="none" stroke="rgb(179,179,179)" stroke-linejoin="round" d="M 8451,22946 L 8451,22796"/>
 <path fill="none" stroke="rgb(179,179,179)" stroke-linejoin="round" d="M 8559,22946 L 8559,22796"/>
 <path fill="none" stroke="rgb(179,179,179)" stroke-linejoin="round" d="M 8559,22946 L 8559,22796"/>
 <path fill="none" stroke="rgb(179,179,179)" stroke-linejoin="round" d="M 8668,22946 L 8668,22796"/>
 <path fill="none" stroke="rgb(179,179,179)" stroke-linejoin="round" d="M 8668,22946 L 8668,22796"/>
 <path fill="none" stroke="rgb(179,179,179)" stroke-linejoin="round" d="M 8776,22946 L 8776,22796"/>
 <path fill="none" stroke="rgb(179,179,179)" stroke-linejoin="round" d="M 8776,22946 L 8776,22796"/>
 <path fill="none" stroke="rgb(179,179,179)" stroke-linejoin="round" d="M 8884,22946 L 8884,22796"/>
 <path fill="none" stroke="rgb(179,179,179)" stroke-linejoin="round" d="M 8884,22946 L 8884,22796"/>
 <path fill="none" stroke="rgb(179,179,179)" stroke-linejoin="round" d="M 8993,22946 L 8993,22796"/>
 <path fill="none" stroke="rgb(179,179,179)" stroke-linejoin="round" d="M 8993,22946 L 8993,22796"/>
 <path fill="none" stroke="rgb(179,179,179)" stroke-linejoin="round" d="M 9101,22946 L 9101,22796"/>
 <path fill="none" stroke="rgb(179,179,179)" stroke-linejoin="round" d="M 9101,22946 L 9101,22796"/>
 <path fill="none" stroke="rgb(179,179,179)" stroke-linejoin="round" d="M 9209,22946 L 9209,22796"/>
 <path fill="none" stroke="rgb(179,179,179)" stroke-linejoin="round" d="M 9209,22946 L 9209,22796"/>
 <path fill="none" stroke="rgb(179,179,179)" stroke-linejoin="round" d="M 9318,22946 L 9318,22796"/>
 <path fill="none" stroke="rgb(179,179,179)" stroke-linejoin="round" d="M 9318,22946 L 9318,22796"/>
 <path fill="none" stroke="rgb(179,179,179)" stroke-linejoin="round" d="M 9426,22946 L 9426,22796"/>
 <path fill="none" stroke="rgb(179,179,179)" stroke-linejoin="round" d="M 9426,22946 L 9426,22796"/>
 <path fill="none" stroke="rgb(179,179,179)" stroke-linejoin="round" d="M 9534,22946 L 9534,22796"/>
 <path fill="none" stroke="rgb(179,179,179)" stroke-linejoin="round" d="M 9534,22946 L 9534,22796"/>
 <path fill="none" stroke="rgb(179,179,179)" stroke-linejoin="round" d="M 9643,22946 L 9643,22796"/>
 <path fill="none" stroke="rgb(179,179,179)" stroke-linejoin="round" d="M 9643,22946 L 9643,22796"/>
 <path fill="none" stroke="rgb(179,179,179)" stroke-linejoin="round" d="M 9751,22946 L 9751,22796"/>
 <path fill="none" stroke="rgb(179,179,179)" stroke-linejoin="round" d="M 9751,22946 L 9751,22796"/>
 <path fill="none" stroke="rgb(179,179,179)" stroke-linejoin="round" d="M 9859,22946 L 9859,22796"/>
 <path fill="none" stroke="rgb(179,179,179)" stroke-linejoin="round" d="M 9859,22946 L 9859,22796"/>
 <path fill="none" stroke="rgb(179,179,179)" stroke-linejoin="round" d="M 9968,22946 L 9968,22796"/>
 <path fill="none" stroke="rgb(179,179,179)" stroke-linejoin="round" d="M 9968,22946 L 9968,22796"/>
 <path fill="none" stroke="rgb(179,179,179)" stroke-linejoin="round" d="M 10076,22946 L 10076,22796"/>
 <path fill="none" stroke="rgb(179,179,179)" stroke-linejoin="round" d="M 10076,22946 L 10076,22796"/>
 <path fill="none" stroke="rgb(179,179,179)" stroke-linejoin="round" d="M 10185,22946 L 10185,22796"/>
 <path fill="none" stroke="rgb(179,179,179)" stroke-linejoin="round" d="M 10185,22946 L 10185,22796"/>
 <path fill="none" stroke="rgb(179,179,179)" stroke-linejoin="round" d="M 10293,22946 L 10293,22796"/>
 <path fill="none" stroke="rgb(179,179,179)" stroke-linejoin="round" d="M 10293,22946 L 10293,22796"/>
 <path fill="none" stroke="rgb(179,179,179)" stroke-linejoin="round" d="M 10401,22946 L 10401,22796"/>
 <path fill="none" stroke="rgb(179,179,179)" stroke-linejoin="round" d="M 10401,22946 L 10401,22796"/>
 <path fill="none" stroke="rgb(179,179,179)" stroke-linejoin="round" d="M 10510,22946 L 10510,22796"/>
 <path fill="none" stroke="rgb(179,179,179)" stroke-linejoin="round" d="M 10510,22946 L 10510,22796"/>
 <path fill="none" stroke="rgb(179,179,179)" stroke-linejoin="round" d="M 10618,22946 L 10618,22796"/>
 <path fill="none" stroke="rgb(179,179,179)" stroke-linejoin="round" d="M 10618,22946 L 10618,22796"/>
 <path fill="none" stroke="rgb(179,179,179)" stroke-linejoin="round" d="M 10726,22946 L 10726,22796"/>
 <path fill="none" stroke="rgb(179,179,179)" stroke-linejoin="round" d="M 10726,22946 L 10726,22796"/>
 <path fill="none" stroke="rgb(179,179,179)" stroke-linejoin="round" d="M 10835,22946 L 10835,22796"/>
 <path fill="none" stroke="rgb(179,179,179)" stroke-linejoin="round" d="M 10835,22946 L 10835,22796"/>
 <path fill="none" stroke="rgb(179,179,179)" stroke-linejoin="round" d="M 10943,22946 L 10943,22796"/>
 <path fill="none" stroke="rgb(179,179,179)" stroke-linejoin="round" d="M 10943,22946 L 10943,22796"/>
 <path fill="none" stroke="rgb(179,179,179)" stroke-linejoin="round" d="M 11051,22946 L 11051,22796"/>
 <path fill="none" stroke="rgb(179,179,179)" stroke-linejoin="round" d="M 11051,22946 L 11051,22796"/>
 <path fill="none" stroke="rgb(179,179,179)" stroke-linejoin="round" d="M 11160,22946 L 11160,22796"/>
 <path fill="none" stroke="rgb(179,179,179)" stroke-linejoin="round" d="M 11160,22946 L 11160,22796"/>
 <path fill="none" stroke="rgb(179,179,179)" stroke-linejoin="round" d="M 11268,22946 L 11268,22796"/>
 <path fill="none" stroke="rgb(179,179,179)" stroke-linejoin="round" d="M 11268,22946 L 11268,22796"/>
 <path fill="none" stroke="rgb(179,179,179)" stroke-linejoin="round" d="M 11376,22946 L 11376,22796"/>
 <path fill="none" stroke="rgb(179,179,179)" stroke-linejoin="round" d="M 11376,22946 L 11376,22796"/>
 <path fill="none" stroke="rgb(179,179,179)" stroke-linejoin="round" d="M 11485,22946 L 11485,22796"/>
 <path fill="none" stroke="rgb(179,179,179)" stroke-linejoin="round" d="M 11485,22946 L 11485,22796"/>
 <path fill="none" stroke="rgb(179,179,179)" stroke-linejoin="round" d="M 11593,22946 L 11593,22796"/>
 <path fill="none" stroke="rgb(179,179,179)" stroke-linejoin="round" d="M 11593,22946 L 11593,22796"/>
 <path fill="none" stroke="rgb(179,179,179)" stroke-linejoin="round" d="M 11702,22946 L 11702,22796"/>
 <path fill="none" stroke="rgb(179,179,179)" stroke-linejoin="round" d="M 11702,22946 L 11702,22796"/>
 <path fill="none" stroke="rgb(179,179,179)" stroke-linejoin="round" d="M 11809,22946 L 11809,22796"/>
 <path fill="none" stroke="rgb(179,179,179)" stroke-linejoin="round" d="M 11809,22946 L 11809,22796"/>
 <path fill="none" stroke="rgb(179,179,179)" stroke-linejoin="round" d="M 11917,22946 L 11917,22796"/>
 <path fill="none" stroke="rgb(179,179,179)" stroke-linejoin="round" d="M 11917,22946 L 11917,22796"/>
 <path fill="none" stroke="rgb(179,179,179)" stroke-linejoin="round" d="M 12026,22946 L 12026,22796"/>
 <path fill="none" stroke="rgb(179,179,179)" stroke-linejoin="round" d="M 12026,22946 L 12026,22796"/>
 <path fill="none" stroke="rgb(179,179,179)" stroke-linejoin="round" d="M 12134,22946 L 12134,22796"/>
 <path fill="none" stroke="rgb(179,179,179)" stroke-linejoin="round" d="M 12134,22946 L 12134,22796"/>
 <path fill="none" stroke="rgb(179,179,179)" stroke-linejoin="round" d="M 12242,22946 L 12242,22796"/>
 <path fill="none" stroke="rgb(179,179,179)" stroke-linejoin="round" d="M 12242,22946 L 12242,22796"/>
 <path fill="none" stroke="rgb(179,179,179)" stroke-linejoin="round" d="M 12351,22946 L 12351,22796"/>
 <path fill="none" stroke="rgb(179,179,179)" stroke-linejoin="round" d="M 12351,22946 L 12351,22796"/>
 <path fill="none" stroke="rgb(179,179,179)" stroke-linejoin="round" d="M 12459,22946 L 12459,22796"/>
 <path fill="none" stroke="rgb(179,179,179)" stroke-linejoin="round" d="M 12459,22946 L 12459,22796"/>
 <path fill="none" stroke="rgb(179,179,179)" stroke-linejoin="round" d="M 12567,22946 L 12567,22796"/>
 <path fill="none" stroke="rgb(179,179,179)" stroke-linejoin="round" d="M 12567,22946 L 12567,22796"/>
 <path fill="none" stroke="rgb(179,179,179)" stroke-linejoin="round" d="M 12676,22946 L 12676,22796"/>
 <path fill="none" stroke="rgb(179,179,179)" stroke-linejoin="round" d="M 12676,22946 L 12676,22796"/>
 <path fill="none" stroke="rgb(179,179,179)" stroke-linejoin="round" d="M 12784,22946 L 12784,22796"/>
 <path fill="none" stroke="rgb(179,179,179)" stroke-linejoin="round" d="M 12784,22946 L 12784,22796"/>
 <path fill="none" stroke="rgb(179,179,179)" stroke-linejoin="round" d="M 12893,22946 L 12893,22796"/>
 <path fill="none" stroke="rgb(179,179,179)" stroke-linejoin="round" d="M 12893,22946 L 12893,22796"/>
 <path fill="none" stroke="rgb(179,179,179)" stroke-linejoin="round" d="M 13001,22946 L 13001,22796"/>
 <path fill="none" stroke="rgb(179,179,179)" stroke-linejoin="round" d="M 13001,22946 L 13001,22796"/>
 <path fill="none" stroke="rgb(179,179,179)" stroke-linejoin="round" d="M 13109,22946 L 13109,22796"/>
 <path fill="none" stroke="rgb(179,179,179)" stroke-linejoin="round" d="M 13109,22946 L 13109,22796"/>
 <path fill="none" stroke="rgb(179,179,179)" stroke-linejoin="round" d="M 13218,22946 L 13218,22796"/>
 <path fill="none" stroke="rgb(179,179,179)" stroke-linejoin="round" d="M 13218,22946 L 13218,22796"/>
 <path fill="none" stroke="rgb(179,179,179)" stroke-linejoin="round" d="M 13326,22946 L 13326,22796"/>
 <path fill="none" stroke="rgb(179,179,179)" stroke-linejoin="round" d="M 13326,22946 L 13326,22796"/>
 <path fill="none" stroke="rgb(179,179,179)" stroke-linejoin="round" d="M 13434,22946 L 13434,22796"/>
 <path fill="none" stroke="rgb(179,179,179)" stroke-linejoin="round" d="M 13434,22946 L 13434,22796"/>
 <path fill="none" stroke="rgb(179,179,179)" stroke-linejoin="round" d="M 13543,22946 L 13543,22796"/>
 <path fill="none" stroke="rgb(179,179,179)" stroke-linejoin="round" d="M 13543,22946 L 13543,22796"/>
 <path fill="none" stroke="rgb(179,179,179)" stroke-linejoin="round" d="M 13651,22946 L 13651,22796"/>
 <path fill="none" stroke="rgb(179,179,179)" stroke-linejoin="round" d="M 13651,22946 L 13651,22796"/>
 <path fill="none" stroke="rgb(179,179,179)" stroke-linejoin="round" d="M 13759,22946 L 13759,22796"/>
 <path fill="none" stroke="rgb(179,179,179)" stroke-linejoin="round" d="M 13759,22946 L 13759,22796"/>
 <path fill="none" stroke="rgb(179,179,179)" stroke-linejoin="round" d="M 13868,22946 L 13868,22796"/>
 <path fill="none" stroke="rgb(179,179,179)" stroke-linejoin="round" d="M 13868,22946 L 13868,22796"/>
 <path fill="none" stroke="rgb(179,179,179)" stroke-linejoin="round" d="M 13976,22946 L 13976,22796"/>
 <path fill="none" stroke="rgb(179,179,179)" stroke-linejoin="round" d="M 13976,22946 L 13976,22796"/>
 <path fill="none" stroke="rgb(179,179,179)" stroke-linejoin="round" d="M 14084,22946 L 14084,22796"/>
 <path fill="none" stroke="rgb(179,179,179)" stroke-linejoin="round" d="M 14084,22946 L 14084,22796"/>
 <path fill="none" stroke="rgb(179,179,179)" stroke-linejoin="round" d="M 14193,22946 L 14193,22796"/>
 <path fill="none" stroke="rgb(179,179,179)" stroke-linejoin="round" d="M 14193,22946 L 14193,22796"/>
 <path fill="none" stroke="rgb(179,179,179)" stroke-linejoin="round" d="M 14301,22946 L 14301,22796"/>
 <path fill="none" stroke="rgb(179,179,179)" stroke-linejoin="round" d="M 14301,22946 L 14301,22796"/>
 <path fill="none" stroke="rgb(179,179,179)" stroke-linejoin="round" d="M 14410,22946 L 14410,22796"/>
 <path fill="none" stroke="rgb(179,179,179)" stroke-linejoin="round" d="M 14410,22946 L 14410,22796"/>
 <path fill="none" stroke="rgb(179,179,179)" stroke-linejoin="round" d="M 14518,22946 L 14518,22796"/>
 <path fill="none" stroke="rgb(179,179,179)" stroke-linejoin="round" d="M 14518,22946 L 14518,22796"/>
 <path fill="none" stroke="rgb(179,179,179)" stroke-linejoin="round" d="M 14626,22946 L 14626,22796"/>
 <path fill="none" stroke="rgb(179,179,179)" stroke-linejoin="round" d="M 14626,22946 L 14626,22796"/>
 <path fill="none" stroke="rgb(179,179,179)" stroke-linejoin="round" d="M 14735,22946 L 14735,22796"/>
 <path fill="none" stroke="rgb(179,179,179)" stroke-linejoin="round" d="M 14735,22946 L 14735,22796"/>
 <path fill="none" stroke="rgb(179,179,179)" stroke-linejoin="round" d="M 14843,22946 L 14843,22796"/>
 <path fill="none" stroke="rgb(179,179,179)" stroke-linejoin="round" d="M 14843,22946 L 14843,22796"/>
 <path fill="none" stroke="rgb(179,179,179)" stroke-linejoin="round" d="M 14951,22946 L 14951,22796"/>
 <path fill="none" stroke="rgb(179,179,179)" stroke-linejoin="round" d="M 14951,22946 L 14951,22796"/>
 <path fill="none" stroke="rgb(179,179,179)" stroke-linejoin="round" d="M 15060,22946 L 15060,22796"/>
 <path fill="none" stroke="rgb(179,179,179)" stroke-linejoin="round" d="M 15060,22946 L 15060,22796"/>
 <path fill="none" stroke="rgb(179,179,179)" stroke-linejoin="round" d="M 15168,22946 L 15168,22796"/>
 <path fill="none" stroke="rgb(179,179,179)" stroke-linejoin="round" d="M 15168,22946 L 15168,22796"/>
 <path fill="none" stroke="rgb(179,179,179)" stroke-linejoin="round" d="M 15276,22946 L 15276,22796"/>
 <path fill="none" stroke="rgb(179,179,179)" stroke-linejoin="round" d="M 15276,22946 L 15276,22796"/>
 <path fill="none" stroke="rgb(179,179,179)" stroke-linejoin="round" d="M 15385,22946 L 15385,22796"/>
 <path fill="none" stroke="rgb(179,179,179)" stroke-linejoin="round" d="M 15385,22946 L 15385,22796"/>
 <path fill="none" stroke="rgb(179,179,179)" stroke-linejoin="round" d="M 15493,22946 L 15493,22796"/>
 <path fill="none" stroke="rgb(179,179,179)" stroke-linejoin="round" d="M 15493,22946 L 15493,22796"/>
 <path fill="none" stroke="rgb(179,179,179)" stroke-linejoin="round" d="M 15601,22946 L 15601,22796"/>
 <path fill="none" stroke="rgb(179,179,179)" stroke-linejoin="round" d="M 15601,22946 L 15601,22796"/>
 <path fill="none" stroke="rgb(179,179,179)" stroke-linejoin="round" d="M 15710,22946 L 15710,22796"/>
 <path fill="none" stroke="rgb(179,179,179)" stroke-linejoin="round" d="M 15710,22946 L 15710,22796"/>
 <path fill="none" stroke="rgb(179,179,179)" stroke-linejoin="round" d="M 15818,22946 L 15818,22796"/>
 <path fill="none" stroke="rgb(179,179,179)" stroke-linejoin="round" d="M 15818,22946 L 15818,22796"/>
 <path fill="none" stroke="rgb(179,179,179)" stroke-linejoin="round" d="M 15927,22946 L 15927,22796"/>
 <path fill="none" stroke="rgb(179,179,179)" stroke-linejoin="round" d="M 15927,22946 L 15927,22796"/>
 <path fill="none" stroke="rgb(179,179,179)" stroke-linejoin="round" d="M 16035,22946 L 16035,22796"/>
 <path fill="none" stroke="rgb(179,179,179)" stroke-linejoin="round" d="M 16035,22946 L 16035,22796"/>
 <path fill="none" stroke="rgb(179,179,179)" stroke-linejoin="round" d="M 16143,22946 L 16143,22796"/>
 <path fill="none" stroke="rgb(179,179,179)" stroke-linejoin="round" d="M 16143,22946 L 16143,22796"/>
 <path fill="none" stroke="rgb(179,179,179)" stroke-linejoin="round" d="M 16252,22946 L 16252,22796"/>
 <path fill="none" stroke="rgb(179,179,179)" stroke-linejoin="round" d="M 16252,22946 L 16252,22796"/>
 <path fill="none" stroke="rgb(179,179,179)" stroke-linejoin="round" d="M 16360,22946 L 16360,22796"/>
 <path fill="none" stroke="rgb(179,179,179)" stroke-linejoin="round" d="M 16360,22946 L 16360,22796"/>
 <path fill="none" stroke="rgb(179,179,179)" stroke-linejoin="round" d="M 16468,22946 L 16468,22796"/>
 <path fill="none" stroke="rgb(179,179,179)" stroke-linejoin="round" d="M 16468,22946 L 16468,22796"/>
 <path fill="none" stroke="rgb(179,179,179)" stroke-linejoin="round" d="M 16577,22946 L 16577,22796"/>
 <path fill="none" stroke="rgb(179,179,179)" stroke-linejoin="round" d="M 16577,22946 L 16577,22796"/>
 <path fill="none" stroke="rgb(179,179,179)" stroke-linejoin="round" d="M 16685,22946 L 16685,22796"/>
 <path fill="none" stroke="rgb(179,179,179)" stroke-linejoin="round" d="M 16685,22946 L 16685,22796"/>
 <path fill="none" stroke="rgb(179,179,179)" stroke-linejoin="round" d="M 16793,22946 L 16793,22796"/>
 <path fill="none" stroke="rgb(179,179,179)" stroke-linejoin="round" d="M 16793,22946 L 16793,22796"/>
 <path fill="none" stroke="rgb(179,179,179)" stroke-linejoin="round" d="M 16902,22946 L 16902,22796"/>
 <path fill="none" stroke="rgb(179,179,179)" stroke-linejoin="round" d="M 16902,22946 L 16902,22796"/>
 <path fill="none" stroke="rgb(179,179,179)" stroke-linejoin="round" d="M 17010,22946 L 17010,22796"/>
 <path fill="none" stroke="rgb(179,179,179)" stroke-linejoin="round" d="M 17010,22946 L 17010,22796"/>
 <path fill="none" stroke="rgb(179,179,179)" stroke-linejoin="round" d="M 17118,22946 L 17118,22796"/>
 <path fill="none" stroke="rgb(179,179,179)" stroke-linejoin="round" d="M 17118,22946 L 17118,22796"/>
 <path fill="none" stroke="rgb(179,179,179)" stroke-linejoin="round" d="M 17227,22946 L 17227,22796"/>
 <path fill="none" stroke="rgb(179,179,179)" stroke-linejoin="round" d="M 17227,22946 L 17227,22796"/>
 <path fill="none" stroke="rgb(179,179,179)" stroke-linejoin="round" d="M 17335,22946 L 17335,22796"/>
 <path fill="none" stroke="rgb(179,179,179)" stroke-linejoin="round" d="M 17335,22946 L 17335,22796"/>
 <path fill="none" stroke="rgb(179,179,179)" stroke-linejoin="round" d="M 17444,22946 L 17444,22796"/>
 <path fill="none" stroke="rgb(179,179,179)" stroke-linejoin="round" d="M 17444,22946 L 17444,22796"/>
 <path fill="none" stroke="rgb(179,179,179)" stroke-linejoin="round" d="M 17552,22946 L 17552,22796"/>
 <path fill="none" stroke="rgb(179,179,179)" stroke-linejoin="round" d="M 17552,22946 L 17552,22796"/>
 <path fill="none" stroke="rgb(179,179,179)" stroke-linejoin="round" d="M 17660,22946 L 17660,22796"/>
 <path fill="none" stroke="rgb(179,179,179)" stroke-linejoin="round" d="M 17660,22946 L 17660,22796"/>
 <path fill="none" stroke="rgb(179,179,179)" stroke-linejoin="round" d="M 17769,22946 L 17769,22796"/>
 <path fill="none" stroke="rgb(179,179,179)" stroke-linejoin="round" d="M 17769,22946 L 17769,22796"/>
 <path fill="none" stroke="rgb(179,179,179)" stroke-linejoin="round" d="M 17877,22946 L 17877,22796"/>
 <path fill="none" stroke="rgb(179,179,179)" stroke-linejoin="round" d="M 17877,22946 L 17877,22796"/>
 <path fill="none" stroke="rgb(179,179,179)" stroke-linejoin="round" d="M 17985,22946 L 17985,22796"/>
 <path fill="none" stroke="rgb(179,179,179)" stroke-linejoin="round" d="M 17985,22946 L 17985,22796"/>
 <path fill="none" stroke="rgb(179,179,179)" stroke-linejoin="round" d="M 18094,22946 L 18094,22796"/>
 <path fill="none" stroke="rgb(179,179,179)" stroke-linejoin="round" d="M 18094,22946 L 18094,22796"/>
 <path fill="none" stroke="rgb(179,179,179)" stroke-linejoin="round" d="M 18202,22946 L 18202,22796"/>
 <path fill="none" stroke="rgb(179,179,179)" stroke-linejoin="round" d="M 18202,22946 L 18202,22796"/>
 <path fill="none" stroke="rgb(179,179,179)" stroke-linejoin="round" d="M 18310,22946 L 18310,22796"/>
 <path fill="none" stroke="rgb(179,179,179)" stroke-linejoin="round" d="M 18310,22946 L 18310,22796"/>
 <path fill="none" stroke="rgb(179,179,179)" stroke-linejoin="round" d="M 18419,22946 L 18419,22796"/>
 <path fill="none" stroke="rgb(179,179,179)" stroke-linejoin="round" d="M 18419,22946 L 18419,22796"/>
 <path fill="none" stroke="rgb(179,179,179)" stroke-linejoin="round" d="M 18527,22946 L 18527,22796"/>
 <path fill="none" stroke="rgb(179,179,179)" stroke-linejoin="round" d="M 18527,22946 L 18527,22796"/>
 <path fill="none" stroke="rgb(179,179,179)" stroke-linejoin="round" d="M 18636,22946 L 18636,22796"/>
 <path fill="none" stroke="rgb(179,179,179)" stroke-linejoin="round" d="M 18636,22946 L 18636,22796"/>
 <path fill="none" stroke="rgb(179,179,179)" stroke-linejoin="round" d="M 1408,22796 L 18636,22796"/>
 <path fill="none" stroke="rgb(179,179,179)" stroke-linejoin="round" d="M 1258,22796 L 1408,22796"/>
 <path fill="none" stroke="rgb(179,179,179)" stroke-linejoin="round" d="M 1258,22796 L 1408,22796"/>
 <path fill="none" stroke="rgb(179,179,179)" stroke-linejoin="round" d="M 1258,20696 L 1408,20696"/>
 <path fill="none" stroke="rgb(179,179,179)" stroke-linejoin="round" d="M 1258,20696 L 1408,20696"/>
 <path fill="none" stroke="rgb(179,179,179)" stroke-linejoin="round" d="M 1258,18596 L 1408,18596"/>
 <path fill="none" stroke="rgb(179,179,179)" stroke-linejoin="round" d="M 1258,18596 L 1408,18596"/>
 <path fill="none" stroke="rgb(179,179,179)" stroke-linejoin="round" d="M 1258,16496 L 1408,16496"/>
 <path fill="none" stroke="rgb(179,179,179)" stroke-linejoin="round" d="M 1258,16496 L 1408,16496"/>
 <path fill="none" stroke="rgb(179,179,179)" stroke-linejoin="round" d="M 1258,14396 L 1408,14396"/>
 <path fill="none" stroke="rgb(179,179,179)" stroke-linejoin="round" d="M 1258,14396 L 1408,14396"/>
 <path fill="none" stroke="rgb(179,179,179)" stroke-linejoin="round" d="M 1258,12297 L 1408,12297"/>
 <path fill="none" stroke="rgb(179,179,179)" stroke-linejoin="round" d="M 1258,12297 L 1408,12297"/>
 <path fill="none" stroke="rgb(179,179,179)" stroke-linejoin="round" d="M 1258,10197 L 1408,10197"/>
 <path fill="none" stroke="rgb(179,179,179)" stroke-linejoin="round" d="M 1258,10197 L 1408,10197"/>
 <path fill="none" stroke="rgb(179,179,179)" stroke-linejoin="round" d="M 1258,8097 L 1408,8097"/>
 <path fill="none" stroke="rgb(179,179,179)" stroke-linejoin="round" d="M 1258,8097 L 1408,8097"/>
 <path fill="none" stroke="rgb(179,179,179)" stroke-linejoin="round" d="M 1258,5997 L 1408,5997"/>
 <path fill="none" stroke="rgb(179,179,179)" stroke-linejoin="round" d="M 1258,5997 L 1408,5997"/>
 <path fill="none" stroke="rgb(179,179,179)" stroke-linejoin="round" d="M 1258,3897 L 1408,3897"/>
 <path fill="none" stroke="rgb(179,179,179)" stroke-linejoin="round" d="M 1258,3897 L 1408,3897"/>
 <path fill="none" stroke="rgb(179,179,179)" stroke-linejoin="round" d="M 1258,1798 L 1408,1798"/>
 <path fill="none" stroke="rgb(179,179,179)" stroke-linejoin="round" d="M 1258,1798 L 1408,1798"/>
 <path fill="none" stroke="rgb(179,179,179)" stroke-linejoin="round" d="M 1408,22796 L 1408,1798"/>
 <path fill="none" stroke="rgb(0,127,255)" stroke-width="80" stroke-linejoin="round" d="M 11166,1798 L 11214,1859 11322,2037 11431,2201 11539,2351 11647,2409 11756,2562 11863,2642 11971,2725 12080,2848 12188,2880 12297,2914 12405,2958 12513,3073 12622,3252 12730,3297 12838,3373 12947,3468 13055,3487 13163,3515 13272,3609 13380,3645 13488,3665 13597,3695 13705,3731 13814,3744 13922,3752 14030,3793 14139,3866 14247,3892 14355,3914 14464,3940 14572,3969 14680,3979 14789,4002 14897,4051 15005,4062 15114,4079 15222,4102 15331,4114 15439,4127 15547,4144 15656,4158 15764,4173 15872,4203 15981,4213 16089,4222 16197,4233 16306,4242 16414,4265 16523,4334 16631,4346 16739,4367 16848,4384 16956,4389 17064,4403 17173,4417 17281,4446 17389,4473 17498,4494 17606,4507 17714,4518 17823,4534 17931,4550 18040,4568 18148,4602 18256,4549 18365,4560 18473,4574 18581,4587"/>
 <path fill="none" stroke="rgb(0,169,51)" stroke-width="80" stroke-linejoin="round" stroke-dasharray="80,40" d="M 3729,1798 L 3737,12843 3846,9693 3954,7205 4062,2063 4073,1798"/>
 <path fill="none" stroke="rgb(0,169,51)" stroke-width="80" stroke-linejoin="round" stroke-dasharray="80,40" d="M 4699,1798 L 4712,5258 4821,3883 4902,1798"/>
 <path fill="none" stroke="rgb(0,169,51)" stroke-width="80" stroke-linejoin="round" stroke-dasharray="80,40" d="M 6114,1798 L 6121,3630 6229,5817 6338,6226 6446,8375 6555,6877 6663,5709 6771,6068 6880,5313 6988,5978 7096,5064 7205,7138 7313,6830 7421,5312 7530,6464 7638,6665 7746,6126 7855,6556 7963,6903 8072,6380 8180,6289 8288,6360 8397,6164 8505,6488 8613,6977 8722,6858 8830,6153 8938,5773 9047,5404 9155,5829 9263,6271 9372,6590 9480,6280 9589,6029 9697,5852 9805,6043 9914,6032 10022,6448 10130,6856 10239,6784 10347,5853 10455,5177 10564,5032 10672,5246 10781,5628 10889,5959 10997,5848 11106,5630 11214,5574 11322,5677 11431,5776 11539,6023 11647,6359 11756,6137 11863,5892 11971,5827 12080,5861 12188,6122 12297,5759 12405,5784 12513,5710 12622,5597 12730,5527 12838,5538 12947,5562 13055,5803 13163,6061 13272,6092 13380,6029 13488,6119 13597,6248 13705,6507 13814,6705 13922,6845 14030,6747 14139,6729 14247,6769 14355,6867 14464,6932 14572,7150 14680,7276 14789,7281 14897,7442 15005,7487 15114,7572 15222,7743 15331,6659 15439,7039 15547,6934 15656,6788 15764,6822 15872,6996 15981,7029 16089,7262 16197,7583 16306,7506 16414,7655 16523,7708 16631,7811 16739,7912 16848,8161 16956,8534 17064,8442 17173,8373 17281,8277 17389,8240 17498,8318 17606,8513 17714,8642 17823,8544 17931,8490 18040,8518 18148,8496 18256,8599 18365,8752 18473,8900 18581,8813"/>
 <path fill="none" stroke="rgb(141,40,30)" stroke-width="80" stroke-linejoin="round" stroke-dasharray="80,40" d="M 12110,1798 L 12188,1986 12297,2095 12405,2615 12513,2707 12622,2849 12730,2983 12838,3101 12947,3270 13055,3398 13163,3895 13272,4193 13380,4333 13488,5463 13597,5561 13705,7532 13814,7707 13922,7951 14030,8009 14139,8179 14247,8305 14355,8424 14464,8530 14572,8635 14680,8947 14789,9081 14897,9328 15005,9418 15114,9531 15222,9633 15331,9690 15439,9970 15547,10110 15656,10307 15764,10439 15872,10623 15981,10718 16089,10851 16197,11014 16306,11165 16414,11342 16523,11452 16631,11550 16739,11653 16848,11675 16956,11967 17064,11982 17173,12226 17281,12281 17389,12364 17498,12418 17606,12471 17714,12523 17823,12723 17931,12855 18040,12909 18148,12950 18256,13010 18365,13055 18473,13200 18581,13291"/>
 <path fill="none" stroke="rgb(85,48,141)" stroke-width="80" stroke-linejoin="round" stroke-dasharray="80,40" d="M 1462,9672 L 1570,9672 1678,9672 1704,1798"/>
 <path fill="none" stroke="rgb(85,48,141)" stroke-width="80" stroke-linejoin="round" stroke-dasharray="80,40" d="M 2708,1798 L 2762,5584 2854,1798"/>
 <path fill="none" stroke="rgb(85,48,141)" stroke-width="80" stroke-linejoin="round" stroke-dasharray="80,40" d="M 2994,1798 L 3087,9053 3195,8377 3304,4772 3412,16134 3520,14152 3629,14384 3737,14155 3846,13914 3954,13767 4062,11865 4171,12411 4279,12508 4387,12564 4496,12807 4604,12375 4712,12272 4821,12227 4929,11274 5038,10992 5146,9166 5254,9295 5363,9380 5471,8927 5579,8340 5688,7590 5796,7702 5904,6856 6013,6149 6121,5939 6229,6086 6338,6468 6446,6510 6555,6500 6663,6575 6771,6483 6880,6554 6988,6808 7096,6650 7205,6506 7313,6532 7421,6502 7530,6488 7638,6598 7746,6476 7855,6526 7963,6456 8072,6604 8180,6534 8288,6641 8397,6700 8505,6724 8613,6854 8722,7001 8830,6967 8938,7029 9047,7124 9155,7124 9263,7204 9372,7148 9480,7163 9589,7186 9697,7186 9805,7316 9914,7304 10022,7064 10130,7277 10239,7318 10347,7347 10455,7270 10564,7409 10672,7558 10781,7670 10889,7790 10997,7885 11106,8046 11214,8219 11322,8346 11431,8441 11539,8574 11647,8742 11756,8767 11863,9005 11971,9033 12080,9071 12188,9085 12297,9148 12405,9227 12513,9283 12622,9313 12730,9345 12838,9401 12947,9446 13055,9485 13163,9610 13272,9657 13380,9667 13488,9723 13597,9757 13705,9793 13814,9832 13922,9886 14030,9911 14139,9949 14247,9985 14355,10030 14464,10076 14572,10090 14680,10154 14789,10198 14897,10241 15005,10277 15114,13305 15222,13311 15331,13319 15439,13352 15547,13372 15656,13390 15764,13425 15872,13474 15981,13492 16089,13505 16197,13538 16306,13547 16414,13570 16523,13589 16631,13633 16739,13642 16848,13649 16956,13651 17064,13709 17173,13732 17281,13755 17389,13790 17498,13794 17606,13804 17714,14017 17823,14047 17931,14062 18040,14086 18148,14113 18256,14131 18365,14150 18473,14167 18581,14204"/>
 <path fill="none" stroke="rgb(0,169,51)" stroke-width="80" stroke-linejoin="round" stroke-dasharray="158,102" d="M 1462,4558 L 1549,1798"/>
 <path fill="none" stroke="rgb(0,169,51)" stroke-width="80" stroke-linejoin="round" stroke-dasharray="158,102" d="M 1584,1798 L 1678,6235 1787,3284 1895,3547 1961,1798"/>
 <path fill="none" stroke="rgb(0,169,51)" stroke-width="80" stroke-linejoin="round" stroke-dasharray="158,102" d="M 3291,1798 L 3304,1988 3412,2035 3520,2195 3629,2942 3737,3513 3846,4432 3954,3629 4062,6598 4171,7761 4279,8734 4387,9440 4496,10268 4604,11891 4712,12095 4821,12327 4929,12579 5038,12751 5146,13007 5254,13167 5363,13361 5471,13372 5579,13568 5688,13673 5796,13827 5904,13921 6013,14008 6121,14096 6229,14189 6338,14201 6446,14277 6555,14319 6663,14368 6771,14416 6880,14439 6988,14491 7096,14493 7205,14524 7313,14536 7421,14565 7530,14604 7638,14663 7746,14702 7855,14767 7963,14795 8072,14832 8180,14847 8288,14905 8397,14976 8505,15028 8613,15050 8722,15103 8830,15163 8938,15227 9047,15301 9155,15371 9263,15435 9372,15533 9480,15592 9589,15652 9697,15708 9805,15782 9914,15845 10022,15907 10130,15960 10239,16020 10347,16077 10455,16148 10564,16213 10672,16268 10781,16324 10889,16365 10997,16407 11106,16443 11214,16478 11322,16510 11431,16549 11539,16555 11647,16555 11756,16561 11863,16566 11971,16594 12080,16601 12188,16610 12297,16619 12405,16649 12513,16674 12622,16697 12730,16721 12838,16751 12947,16772 13055,16777 13163,16778 13272,16779 13380,16787 13488,16788 13597,16777 13705,16775 13814,16761 13922,16760 14030,16744 14139,16738 14247,16706 14355,16717 14464,16701 14572,16673 14680,16647 14789,16638 14897,16608 15005,16600 15114,16578 15222,16558 15331,16531 15439,16496 15547,16456 15656,16426 15764,16394 15872,16354 15981,16327 16089,16285 16197,16248 16306,16199 16414,16173 16523,16135 16631,16115 16739,16088 16848,16063 16956,16033 17064,16008 17173,15997 17281,15993 17389,15990 17498,15998 17606,15992 17714,15977 17823,15956 17931,15927 18040,15907 18148,15887 18256,15873 18365,15864 18473,15845 18581,15826"/>
 <path fill="none" stroke="rgb(255,0,0)" stroke-width="80" stroke-linejoin="round" stroke-dasharray="158,102" d="M 5276,1798 L 5363,3812 5471,5113 5579,6066 5688,6897 5796,7656 5904,8652 6013,10238 6121,11690 6229,12689 6338,13785 6446,14701 6555,15450 6663,15979 6771,16438 6880,16783 6988,17148 7096,17465 7205,17752 7313,17984 7421,18189 7530,18312 7638,18408 7746,18507 7855,18585 7963,18661 8072,18716 8180,18751 8288,18784 8397,18819 8505,18843 8613,18871 8722,18890 8830,18907 8938,18916 9047,18929 9155,18949 9263,18956 9372,18973 9480,18996 9589,19007 9697,19029 9805,19054 9914,19062 10022,19071 10130,19080 10239,19090 10347,19097 10455,19107 10564,19137 10672,19173 10781,19225 10889,19297 10997,19362 11106,19402 11214,19413 11322,19431 11431,19443 11539,19462 11647,19471 11756,19481 11863,19495 11971,19510 12080,19526 12188,19538 12297,19552 12405,19562 12513,19571 12622,19583 12730,19598 12838,19615 12947,19642 13055,19658 13163,19670 13272,19683 13380,19713 13488,19730 13597,19741 13705,19750 13814,19759 13922,19788 14030,19815 14139,19838 14247,19873 14355,19883 14464,19892 14572,19901 14680,19908 14789,19912 14897,19918 15005,19923 15114,19928 15222,19936 15331,19942 15439,19947 15547,19952 15656,19958 15764,19965 15872,19970 15981,19977 16089,19982 16197,19987 16306,19994 16414,20000 16523,20006 16631,20010 16739,20014 16848,20018 16956,20021 17064,20025 17173,20029 17281,20035 17389,20041 17498,20047 17606,20053 17714,20062 17823,20069 17931,20072 18040,20074 18148,20075 18256,20077 18365,20080 18473,20082 18581,20084"/>
 <path fill="none" stroke="rgb(0,255,0)" stroke-width="80" stroke-linejoin="round" d="M 2975,1798 L 2979,6944 3087,4680 3195,3048 3304,2120 3312,1798"/>
 <path fill="none" stroke="rgb(0,255,0)" stroke-width="80" stroke-linejoin="round" d="M 3468,1798 L 3520,5527 3629,8773 3737,9992 3846,11896 3954,11094 4062,12825 4171,12892 4279,13207 4387,13405 4496,13318 4604,13806 4712,13652 4821,14074 4929,13798 5038,14348 5146,14336 5254,14300 5363,14396 5471,14579 5579,14729 5688,14796 5796,14834 5904,14900 6013,14851 6121,14913 6229,15041 6338,14921 6446,14902 6555,14823 6663,15002 6771,15090 6880,15151 6988,15244 7096,15363 7205,15376 7313,15421 7421,15458 7530,15462 7638,15517 7746,15560 7855,15567 7963,15481 8072,15550 8180,15543 8288,15519 8397,15595 8505,15614 8613,15621 8722,15628 8830,15650 8938,15653 9047,15634 9155,15652 9263,15674 9372,15673 9480,15666 9589,15683 9697,15676 9805,15676 9914,15701 10022,15722 10130,15722 10239,15722 10347,15743 10455,15743 10564,15743 10672,15768 10781,15768 10889,15760 10997,15720 11106,15713 11214,15734 11322,15730 11431,15730 11539,15730 11647,15751 11756,15697 11863,15689 11971,15689 12080,15689 12188,15689 12297,15714 12405,15714 12513,15714 12622,15707 12730,15707 12838,15692 12947,15716 13055,15716 13163,15716 13272,15737 13380,15730 13488,15730 13597,15730 13705,15730 13814,15754 13922,15754 14030,15750 14139,15774 14247,15774 14355,15774 14464,15791 14572,15815 14680,15815 14789,15862 14897,15862 15005,15881 15114,15881 15222,15881 15331,15973 15439,15966 15547,15962 15656,16007 15764,15997 15872,15990 15981,15990 16089,16034 16197,16074 16306,16096 16414,16114 16523,16111 16631,16108 16739,16150 16848,16192 16956,16192 17064,16213 17173,16203 17281,16200 17389,16197 17498,16259 17606,16340 17714,16356 17823,16347 17931,16403 18040,16403 18148,16442 18256,16499 18365,16518 18473,16518 18581,16552"/>
 <path fill="none" stroke="rgb(191,0,65)" stroke-width="80" stroke-linejoin="round" stroke-dasharray="51,127,51,127,254,127,254,127,254,127" d="M 5743,1798 L 5796,2432 5904,3095 6013,4361 6121,4575 6229,5008 6338,5373 6446,5747 6555,6322 6663,7142 6771,7543 6880,7789 6988,8111 7096,8384 7205,8663 7313,9164 7421,9473 7530,9927 7638,10244 7746,10285 7855,10410 7963,10798 8072,10928 8180,11528 8288,11693 8397,11809 8505,11955 8613,12321 8722,12409 8830,12531 8938,12803 9047,12928 9155,13073 9263,13157 9372,13171 9480,13382 9589,13494 9697,13689 9805,13706 9914,13798 10022,13870 10130,13910 10239,13915 10347,13980 10455,14047 10564,14068 10672,14143 10781,14192 10889,14229 10997,14222 11106,14249 11214,14316 11322,14333 11431,14359 11539,14333 11647,14335 11756,14385 11863,14389 11971,14387 12080,14442 12188,14479 12297,14553 12405,14603 12513,14639 12622,14680 12730,14795 12838,14861 12947,14982 13055,15045 13163,15056 13272,15069 13380,15120 13488,15125 13597,15145 13705,15196 13814,15253 13922,15272 14030,15289 14139,15361 14247,15420 14355,15475 14464,15531 14572,15582 14680,15624 14789,15615 14897,15696 15005,15738 15114,15792 15222,15822 15331,15844 15439,15870 15547,16008 15656,16036 15764,16083 15872,16148 15981,16179 16089,16325 16197,16330 16306,16332 16414,16325 16523,16322 16631,16328 16739,16345 16848,16340 16956,16345 17064,16339 17173,16341 17281,16360 17389,16378 17498,16388 17606,16378 17714,16385 17823,16385 17931,16414 18040,16415 18148,16448 18256,16449 18365,16435 18473,16464 18581,16489"/>
 <path fill="none" stroke="rgb(21,132,102)" stroke-width="80" stroke-linejoin="round" stroke-dasharray="80,203,80,203,203,203" d="M 1462,14705 L 1570,14365 1678,13859 1787,13180 1895,12462 2003,11637 2112,10480 2220,9052 2329,7734 2437,6865 2545,4886 2654,4274 2762,2646 2838,1798"/>
 <path fill="none" stroke="rgb(21,132,102)" stroke-width="80" stroke-linejoin="round" stroke-dasharray="80,203,80,203,203,203" d="M 7830,1798 L 7855,1900 7963,2029 8072,2427 8180,2593 8288,2853 8397,3267 8505,3532 8613,3911 8722,4176 8830,4486 8938,4713 9047,5403 9155,5661 9263,5950 9372,6377 9480,6580 9589,6786 9697,7028 9805,7321 9914,7579 10022,7907 10130,8092 10239,8461 10347,8655 10455,8809 10564,8968 10672,9161 10781,9309 10889,9812 10997,9978 11106,10116 11214,10284 11322,10437 11431,10605 11539,10740 11647,10898 11756,11013 11863,11223 11971,11323 12080,11427 12188,11628 12297,11707 12405,11849 12513,11976 12622,12125 12730,12227 12838,12355 12947,12483 13055,12597 13163,12707 13272,12829 13380,12945 13488,13340 13597,13429 13705,13656 13814,13774 13922,13887 14030,13989 14139,14116 14247,14204 14355,14297 14464,14378 14572,14452 14680,14558 14789,14637 14897,14733 15005,14814 15114,14911 15222,14985 15331,15018 15439,15114 15547,15196 15656,15267 15764,15294 15872,15414 15981,15526 16089,15593 16197,15664 16306,15723 16414,15797 16523,15888 16631,15958 16739,16023 16848,16067 16956,16163 17064,16229 17173,16293 17281,16341 17389,16390 17498,16451 17606,16504 17714,16546 17823,16644 17931,16706 18040,16733 18148,16782 18256,16816 18365,16885 18473,16944 18581,16987"/>
 <path fill="none" stroke="rgb(180,120,4)" stroke-width="80" stroke-linejoin="round" d="M 3511,1798 L 3520,11551 3629,11777 3737,11457 3846,10538 3954,9645 4062,9610 4171,9648 4279,9814 4387,9582 4496,9352 4604,9865 4712,10285 4821,10344 4929,11122 5038,11705 5146,12274 5254,12916 5363,13783 5471,14183 5579,14301 5688,14849 5796,15154 5904,15373 6013,15392 6121,15304 6229,15403 6338,15503 6446,15577 6555,15703 6663,15755 6771,15820 6880,15755 6988,15721 7096,15689 7205,15746 7313,15886 7421,15970 7530,16050 7638,16134 7746,16195 7855,16232 7963,16492 8072,16480 8180,16533 8288,16638 8397,16668 8505,16702 8613,16738 8722,16778 8830,16820 8938,16810 9047,16883 9155,16925 9263,16952 9372,16979 9480,17024 9589,17038 9697,17049 9805,17082 9914,17099 10022,17088 10130,17095 10239,17097 10347,17131 10455,17148 10564,17126 10672,17152 10781,17150 10889,17131 10997,17160 11106,17188 11214,17214 11322,17224 11431,17216 11539,17233 11647,17234 11756,17251 11863,17281 11971,17290 12080,17309 12188,17309 12297,17309 12405,17322 12513,17334 12622,17348 12730,17366 12838,17379 12947,17379 13055,17379 13163,17418 13272,17435 13380,17446 13488,17480 13597,17501 13705,17501 13814,17501 13922,17544 14030,17547 14139,17555 14247,17574 14355,17588 14464,17588 14572,17588 14680,17602 14789,17614 14897,17623 15005,17629 15114,17626 15222,17626 15331,17626 15439,17644 15547,17648 15656,17653 15764,17655 15872,17663 15981,17663 16089,17663 16197,17695 16306,17708 16414,17714 16523,17722 16631,17743 16739,17743 16848,17744 16956,17777 17064,17790 17173,17804 17281,17810 17389,17830 17498,17830 17606,17839 17714,17847 17823,17866 17931,17895 18040,17919 18148,17950 18256,17971 18365,17994 18473,18022 18581,18063"/>
 <path fill="none" stroke="rgb(0,0,0)" stroke-width="80" stroke-linejoin="round" d="M 1462,6819 L 1570,2254 1581,1798"/>
 <path fill="none" stroke="rgb(0,0,0)" stroke-width="80" stroke-linejoin="round" d="M 2614,1798 L 2654,17712 2762,16698 2870,17854 2979,17402 3087,17435 3195,16720 3304,17779 3412,17741 3520,17630 3629,17616 3737,17348 3846,17053 3954,17001 4062,16174 4171,16929 4279,17469 4387,17572 4496,17407 4604,17791 4712,17534 4821,17580 4929,17724 5038,17294 5146,17270 5254,17298 5363,17313 5471,17324 5579,17216 5688,17245 5796,17219 5904,17129 6013,17288 6121,17176 6229,17193 6338,17178 6446,17149 6555,17156 6663,17165 6771,17222 6880,17251 6988,17276 7096,17262 7205,17361 7313,17336 7421,17318 7530,17231 7638,17264 7746,17292 7855,17272 7963,17276 8072,17245 8180,17288 8288,17326 8397,17334 8505,17368 8613,17376 8722,17345 8830,17348 8938,17347 9047,17364 9155,17365 9263,17370 9372,17384 9480,17368 9589,17361 9697,17352 9805,17359 9914,17365 10022,17373 10130,17372 10239,17399 10347,17402 10455,17396 10564,17400 10672,17406 10781,17407 10889,17411 10997,17404 11106,17410 11214,17408 11322,17420 11431,17427 11539,17426 11647,17441 11756,17438 11863,17442 11971,17435 12080,17432 12188,17447 12297,17451 12405,17461 12513,17472 12622,17482 12730,17485 12838,17482 12947,17491 13055,17495 13163,17494 13272,17496 13380,17522 13488,17536 13597,17549 13705,17563 13814,17582 13922,17595 14030,17604 14139,17610 14247,17620 14355,17625 14464,17627 14572,17631 14680,17648 14789,17646 14897,17670 15005,17677 15114,17690 15222,17697 15331,17702 15439,17719 15547,17720 15656,17729 15764,17738 15872,17748 15981,17751 16089,17755 16197,17761 16306,17768 16414,17781 16523,17783 16631,17793 16739,17806 16848,17813 16956,17831 17064,17841 17173,17842 17281,17859 17389,17868 17498,17880 17606,17886 17714,17900 17823,17921 17931,17934 18040,17948 18148,17961 18256,17966 18365,17976 18473,18001 18581,18032"/>
 <path fill="none" stroke="rgb(255,64,0)" stroke-width="80" stroke-linejoin="round" stroke-dasharray="80,40" d="M 5016,1798 L 5038,9801 5146,8394 5254,6770 5363,5175 5471,11116 5579,10523 5688,10279 5796,10745 5904,9635 6013,8734 6121,8189 6229,7872 6338,7278 6446,6397 6555,5838 6663,5248 6771,5098 6880,5456 6988,5576 7096,5913 7205,5513 7313,5244 7421,5364 7530,5060 7638,4659 7746,4818 7855,4639 7963,4775 8072,5071 8180,4303 8288,4308 8397,4458 8505,4817 8613,5183 8722,5116 8830,5827 8938,6086 9047,6479 9155,6587 9263,6922 9372,6776 9480,6569 9589,6669 9697,6980 9805,7348 9914,7727 10022,7896 10130,7905 10239,8149 10347,8475 10455,8786 10564,9020 10672,9185 10781,9317 10889,12489 10997,12631 11106,12730 11214,12803 11322,12929 11431,13033 11539,13098 11647,13134 11756,13102 11863,13423 11971,13417 12080,13478 12188,13698 12297,13764 12405,13849 12513,13993 12622,14238 12730,14302 12838,14430 12947,14561 13055,14686 13163,14716 13272,14858 13380,15010 13488,16011 13597,16059 13705,15985 13814,16177 13922,16324 14030,16465 14139,16535 14247,16595 14355,16724 14464,16764 14572,16810 14680,16873 14789,16914 14897,16934 15005,17034 15114,17074 15222,17081 15331,17076 15439,17240 15547,17295 15656,17337 15764,17347 15872,17510 15981,17712 16089,17757 16197,17814 16306,17821 16414,17874 16523,17899 16631,17962 16739,17975 16848,18006 16956,18060 17064,18132 17173,18134 17281,18159 17389,18195 17498,18251 17606,18294 17714,18327 17823,18379 17931,18430 18040,18403 18148,18522 18256,18503 18365,18530 18473,18573 18581,18602"/>
 <path fill="none" stroke="rgb(0,169,51)" stroke-width="80" stroke-linejoin="round" d="M 1462,5297 L 1570,5297 1678,5297 1689,1798"/>
 <path fill="none" stroke="rgb(0,169,51)" stroke-width="80" stroke-linejoin="round" d="M 3177,1798 L 3195,3946 3304,4967 3412,10523 3520,12122 3629,13311 3737,14072 3846,15006 3954,15651 4062,16125 4171,16490 4279,16443 4387,16885 4496,17272 4604,17438 4712,17536 4821,17534 4929,17513 5038,17700 5146,18005 5254,18132 5363,18242 5471,18276 5579,18154 5688,18097 5796,18069 5904,18109 6013,18108 6121,18146 6229,18162 6338,18133 6446,18047 6555,18030 6663,18045 6771,18078 6880,18048 6988,18049 7096,18065 7205,18069 7313,18115 7421,18128 7530,18136 7638,18159 7746,18158 7855,18166 7963,18172 8072,18215 8180,18233 8288,18239 8397,18248 8505,18261 8613,18276 8722,18275 8830,18330 8938,18350 9047,18352 9155,18334 9263,18334 9372,18350 9480,18349 9589,18348 9697,18207 9805,18225 9914,18276 10022,18298 10130,18298 10239,18301 10347,18307 10455,18320 10564,18313 10672,18327 10781,18328 10889,18341 10997,18351 11106,18354 11214,18358 11322,18362 11431,18356 11539,18369 11647,18365 11756,18351 11863,18315 11971,18309 12080,18320 12188,18330 12297,18323 12405,18335 12513,18321 12622,18327 12730,18305 12838,18313 12947,18306 13055,18301 13163,18300 13272,18303 13380,18307 13488,18313 13597,18325 13705,18338 13814,18334 13922,18343 14030,18353 14139,18362 14247,18372 14355,18385 14464,18400 14572,18410 14680,18423 14789,18435 14897,18455 15005,18466 15114,18489 15222,18530 15331,18554 15439,18568 15547,18588 15656,18613 15764,18635 15872,18658 15981,18671 16089,18690 16197,18693 16306,18722 16414,18738 16523,18749 16631,18777 16739,18809 16848,18824 16956,18841 17064,18891 17173,18917 17281,18943 17389,18956 17498,18975 17606,18996 17714,19002 17823,19023 17931,19045 18040,19054 18148,19082 18256,19090 18365,19100 18473,19109 18581,19128"/>
 <path fill="none" stroke="rgb(255,211,32)" stroke-width="80" stroke-linejoin="round" d="M 2437,5297 L 2545,5297 2572,1798"/>
 <path fill="none" stroke="rgb(255,211,32)" stroke-width="80" stroke-linejoin="round" d="M 5048,1798 L 5146,4541 5254,7324 5363,7308 5471,7751 5579,9731 5688,10758 5796,11817 5904,12550 6013,13319 6121,13465 6229,13719 6338,14510 6446,14711 6555,15127 6663,15318 6771,15323 6880,15363 6988,15536 7096,15845 7205,16060 7313,16254 7421,16310 7530,16300 7638,16279 7746,16225 7855,16511 7963,16718 8072,16763 8180,16926 8288,17039 8397,17064 8505,17067 8613,17267 8722,17258 8830,17321 8938,17374 9047,17358 9155,17341 9263,17354 9372,17412 9480,17487 9589,17570 9697,17611 9805,17643 9914,17679 10022,17672 10130,17721 10239,17723 10347,17739 10455,17769 10564,17806 10672,17809 10781,17813 10889,17872 10997,17913 11106,17923 11214,17990 11322,18008 11431,18025 11539,18015 11647,18047 11756,18072 11863,18070 11971,18082 12080,18089 12188,18077 12297,18091 12405,18115 12513,18084 12622,18049 12730,18060 12838,18017 12947,18025 13055,18053 13163,18078 13272,18080 13380,18096 13488,18057 13597,18073 13705,18102 13814,18149 13922,18128 14030,18136 14139,18195 14247,18248 14355,18293 14464,18303 14572,18314 14680,18369 14789,18380 14897,18414 15005,18481 15114,18487 15222,18491 15331,18493 15439,18530 15547,18557 15656,18616 15764,18687 15872,18684 15981,18756 16089,19387 16197,19369 16306,19359 16414,19360 16523,19330 16631,19329 16739,19325 16848,19321 16956,19334 17064,19391 17173,19375 17281,19472 17389,19592 17498,19596 17606,19593 17714,19642 17823,19691 17931,19733 18040,19771 18148,19783 18256,19782 18365,19775 18473,19930 18581,20016"/>
 <path fill="none" stroke="rgb(128,0,128)" stroke-width="80" stroke-linejoin="round" stroke-dasharray="158,158" d="M 1664,1798 L 1678,6643 1787,6643 1870,1798"/>
 <path fill="none" stroke="rgb(128,0,128)" stroke-width="80" stroke-linejoin="round" stroke-dasharray="158,158" d="M 2291,1798 L 2329,4537 2362,1798"/>
 <path fill="none" stroke="rgb(128,0,128)" stroke-width="80" stroke-linejoin="round" stroke-dasharray="158,158" d="M 5442,1798 L 5471,2232 5579,3806 5688,5760 5796,6435 5904,7692 6013,7901 6121,8211 6229,8616 6338,8983 6446,9135 6555,9369 6663,9435 6771,9965 6880,9957 6988,10393 7096,9998 7205,10227 7313,10572 7421,10974 7530,11145 7638,11367 7746,11721 7855,12115 7963,12413 8072,12650 8180,12851 8288,13243 8397,13988 8505,14164 8613,14349 8722,14601 8830,14858 8938,15045 9047,15247 9155,15328 9263,15472 9372,15580 9480,15700 9589,15769 9697,15821 9805,16467 9914,16533 10022,16614 10130,16646 10239,16693 10347,16653 10455,16635 10564,16630 10672,16651 10781,16686 10889,16718 10997,16753 11106,16504 11214,16734 11322,16751 11431,16850 11539,16909 11647,17021 11756,16110 11863,16184 11971,16347 12080,16438 12188,16685 12297,16732 12405,16868 12513,16920 12622,17040 12730,17171 12838,17230 12947,17339 13055,17419 13163,17498 13272,17544 13380,17592 13488,17762 13597,17827 13705,17850 13814,17924 13922,17984 14030,18051 14139,18139 14247,18218 14355,18289 14464,18343 14572,18399 14680,18436 14789,18484 14897,18527 15005,18567 15114,18576 15222,18639 15331,18672 15439,18726 15547,18790 15656,18789 15764,18864 15872,18919 15981,18994 16089,19046 16197,19108 16306,19162 16414,19196 16523,19242 16631,19293 16739,19371 16848,19420 16956,19473 17064,19537 17173,19579 17281,19627 17389,19667 17498,19720 17606,19761 17714,19795 17823,19844 17931,19884 18040,19916 18148,19949 18256,19978 18365,20011 18473,20046 18581,20071"/>
 <path fill="none" stroke="rgb(0,0,255)" stroke-width="80" stroke-linejoin="round" stroke-dasharray="158,158" d="M 1462,9209 L 1570,7974 1678,7356 1787,15870 1895,16751 2003,17069 2112,16591 2220,16387 2329,15841 2437,18789 2545,18789 2654,19203 2762,19249 2870,19476 2979,19572 3087,19653 3195,19625 3304,19622 3412,19650 3520,19684 3629,19751 3737,19761 3846,19857 3954,19823 4062,19836 4171,19784 4279,19696 4387,19724 4496,19727 4604,19737 4712,19746 4821,19736 4929,19702 5038,19694 5146,19696 5254,19711 5363,19726 5471,19740 5579,19742 5688,19766 5796,19776 5904,19831 6013,19877 6121,19881 6229,19884 6338,19902 6446,19901 6555,19933 6663,19925 6771,19918 6880,19937 6988,19925 7096,19923 7205,19927 7313,19942 7421,19961 7530,19986 7638,19999 7746,20005 7855,19994 7963,19991 8072,19999 8180,20016 8288,20003 8397,20013 8505,20007 8613,20017 8722,20052 8830,20061 8938,20068 9047,20056 9155,20061 9263,20054 9372,20047 9480,20052 9589,20064 9697,20070 9805,20079 9914,20071 10022,20065 10130,20062 10239,20057 10347,20065 10455,20067 10564,20074 10672,20079 10781,20082 10889,20079 10997,20065 11106,20076 11214,20070 11322,20075 11431,20082 11539,20085 11647,20083 11756,20077 11863,20073 11971,20082 12080,20087 12188,20090 12297,20094 12405,20091 12513,20096 12622,20097 12730,20145 12838,20179 12947,20190 13055,20205 13163,20229 13272,20246 13380,20261 13488,20278 13597,20280 13705,20284 13814,20279 13922,20284 14030,20296 14139,20288 14247,20289 14355,20306 14464,20304 14572,20309 14680,20325 14789,20338 14897,20331 15005,20327 15114,20330 15222,20329 15331,20323 15439,20337 15547,20340 15656,20351 15764,20354 15872,20364 15981,20368 16089,20363 16197,20374 16306,20385 16414,20397 16523,20398 16631,20407 16739,20412 16848,20416 16956,20429 17064,20430 17173,20447 17281,20446 17389,20454 17498,20448 17606,20451 17714,20463 17823,20473 17931,20478 18040,20486 18148,20492 18256,20493 18365,20494 18473,20490 18581,20502"/>
 <path fill="none" stroke="rgb(0,223,255)" stroke-width="80" stroke-linejoin="round" stroke-dasharray="158,102" d="M 2112,11130 L 2220,11130 2329,14046 2437,16233 2545,16233 2654,18023 2762,11935 2870,14506 2979,13463 3087,14224 3195,9672 3304,8479 3412,8045 3520,9534 3629,9393 3737,10092 3846,9239 3954,9487 4062,10642 4171,10469 4279,11392 4387,11364 4496,10382 4604,12146 4712,12224 4821,12226 4929,12260 5038,12329 5146,12224 5254,11729 5363,12046 5471,11279 5579,10457 5688,10435 5796,10610 5904,10882 6013,11200 6121,11356 6229,11206 6338,11448 6446,12031 6555,12874 6663,13099 6771,13511 6880,14249 6988,14718 7096,14927 7205,15126 7313,15229 7421,15628 7530,15997 7638,16785 7746,16935 7855,17496 7963,17690 8072,17957 8180,18274 8288,18435 8397,18578 8505,18695 8613,18725 8722,18883 8830,19141 8938,19285 9047,19378 9155,19500 9263,19514 9372,19585 9480,19747 9589,19866 9697,19915 9805,19912 9914,19940 10022,19929 10130,19895 10239,19965 10347,19999 10455,20031 10564,20065 10672,20079 10781,20081 10889,20076 10997,20133 11106,20153 11214,20168 11322,20177 11431,20184 11539,20190 11647,20178 11756,20196 11863,20215 11971,20233 12080,20257 12188,20283 12297,20288 12405,20293 12513,20332 12622,20371 12730,20386 12838,20395 12947,20400 13055,20408 13163,20410 13272,20424 13380,20428 13488,20425 13597,20431 13705,20439 13814,20428 13922,20416 14030,20420 14139,20425 14247,20430 14355,20430 14464,20430 14572,20420 14680,20412 14789,20417 14897,20433 15005,20438 15114,20435 15222,20444 15331,20440 15439,20438 15547,20446 15656,20456 15764,20462 15872,20468 15981,20475 16089,20474 16197,20471 16306,20479 16414,20481 16523,20494 16631,20499 16739,20512 16848,20514 16956,20513 17064,20517 17173,20521 17281,20528 17389,20534 17498,20536 17606,20535 17714,20535 17823,20536 17931,20540 18040,20541 18148,20545 18256,20547 18365,20549 18473,20550 18581,20552"/>
 <text class="TextShape" transform="rotate(-90 1556 23724)"><tspan class="TextParagraph" font-family="Liberation Sans, sans-serif" font-size="282px" font-weight="400"><tspan class="TextPosition" x="1556" y="23724"><tspan fill="rgb(0,0,0)" stroke="none">13.03</tspan></tspan></tspan></text>
 <text class="TextShape" transform="rotate(-90 1881 23724)"><tspan class="TextParagraph" font-family="Liberation Sans, sans-serif" font-size="282px" font-weight="400"><tspan class="TextPosition" x="1881" y="23724"><tspan fill="rgb(0,0,0)" stroke="none">16.03</tspan></tspan></tspan></text>
 <text class="TextShape" transform="rotate(-90 2206 23724)"><tspan class="TextParagraph" font-family="Liberation Sans, sans-serif" font-size="282px" font-weight="400"><tspan class="TextPosition" x="2206" y="23724"><tspan fill="rgb(0,0,0)" stroke="none">19.03</tspan></tspan></tspan></text>
 <text class="TextShape" transform="rotate(-90 2531 23724)"><tspan class="TextParagraph" font-family="Liberation Sans, sans-serif" font-size="282px" font-weight="400"><tspan class="TextPosition" x="2531" y="23724"><tspan fill="rgb(0,0,0)" stroke="none">22.03</tspan></tspan></tspan></text>
 <text class="TextShape" transform="rotate(-90 2856 23724)"><tspan class="TextParagraph" font-family="Liberation Sans, sans-serif" font-size="282px" font-weight="400"><tspan class="TextPosition" x="2856" y="23724"><tspan fill="rgb(0,0,0)" stroke="none">25.03</tspan></tspan></tspan></text>
 <text class="TextShape" transform="rotate(-90 3181 23724)"><tspan class="TextParagraph" font-family="Liberation Sans, sans-serif" font-size="282px" font-weight="400"><tspan class="TextPosition" x="3181" y="23724"><tspan fill="rgb(0,0,0)" stroke="none">28.03</tspan></tspan></tspan></text>
 <text class="TextShape" transform="rotate(-90 3506 23724)"><tspan class="TextParagraph" font-family="Liberation Sans, sans-serif" font-size="282px" font-weight="400"><tspan class="TextPosition" x="3506" y="23724"><tspan fill="rgb(0,0,0)" stroke="none">31.03</tspan></tspan></tspan></text>
 <text class="TextShape" transform="rotate(-90 3831 23724)"><tspan class="TextParagraph" font-family="Liberation Sans, sans-serif" font-size="282px" font-weight="400"><tspan class="TextPosition" x="3831" y="23724"><tspan fill="rgb(0,0,0)" stroke="none">03.04</tspan></tspan></tspan></text>
 <text class="TextShape" transform="rotate(-90 4156 23724)"><tspan class="TextParagraph" font-family="Liberation Sans, sans-serif" font-size="282px" font-weight="400"><tspan class="TextPosition" x="4156" y="23724"><tspan fill="rgb(0,0,0)" stroke="none">06.04</tspan></tspan></tspan></text>
 <text class="TextShape" transform="rotate(-90 4481 23724)"><tspan class="TextParagraph" font-family="Liberation Sans, sans-serif" font-size="282px" font-weight="400"><tspan class="TextPosition" x="4481" y="23724"><tspan fill="rgb(0,0,0)" stroke="none">09.04</tspan></tspan></tspan></text>
 <text class="TextShape" transform="rotate(-90 4806 23724)"><tspan class="TextParagraph" font-family="Liberation Sans, sans-serif" font-size="282px" font-weight="400"><tspan class="TextPosition" x="4806" y="23724"><tspan fill="rgb(0,0,0)" stroke="none">12.04</tspan></tspan></tspan></text>
 <text class="TextShape" transform="rotate(-90 5132 23724)"><tspan class="TextParagraph" font-family="Liberation Sans, sans-serif" font-size="282px" font-weight="400"><tspan class="TextPosition" x="5132" y="23724"><tspan fill="rgb(0,0,0)" stroke="none">15.04</tspan></tspan></tspan></text>
 <text class="TextShape" transform="rotate(-90 5457 23724)"><tspan class="TextParagraph" font-family="Liberation Sans, sans-serif" font-size="282px" font-weight="400"><tspan class="TextPosition" x="5457" y="23724"><tspan fill="rgb(0,0,0)" stroke="none">18.04</tspan></tspan></tspan></text>
 <text class="TextShape" transform="rotate(-90 5782 23724)"><tspan class="TextParagraph" font-family="Liberation Sans, sans-serif" font-size="282px" font-weight="400"><tspan class="TextPosition" x="5782" y="23724"><tspan fill="rgb(0,0,0)" stroke="none">21.04</tspan></tspan></tspan></text>
 <text class="TextShape" transform="rotate(-90 6107 23724)"><tspan class="TextParagraph" font-family="Liberation Sans, sans-serif" font-size="282px" font-weight="400"><tspan class="TextPosition" x="6107" y="23724"><tspan fill="rgb(0,0,0)" stroke="none">24.04</tspan></tspan></tspan></text>
 <text class="TextShape" transform="rotate(-90 6432 23724)"><tspan class="TextParagraph" font-family="Liberation Sans, sans-serif" font-size="282px" font-weight="400"><tspan class="TextPosition" x="6432" y="23724"><tspan fill="rgb(0,0,0)" stroke="none">27.04</tspan></tspan></tspan></text>
 <text class="TextShape" transform="rotate(-90 6757 23724)"><tspan class="TextParagraph" font-family="Liberation Sans, sans-serif" font-size="282px" font-weight="400"><tspan class="TextPosition" x="6757" y="23724"><tspan fill="rgb(0,0,0)" stroke="none">30.04</tspan></tspan></tspan></text>
 <text class="TextShape" transform="rotate(-90 7082 23724)"><tspan class="TextParagraph" font-family="Liberation Sans, sans-serif" font-size="282px" font-weight="400"><tspan class="TextPosition" x="7082" y="23724"><tspan fill="rgb(0,0,0)" stroke="none">03.05</tspan></tspan></tspan></text>
 <text class="TextShape" transform="rotate(-90 7407 23724)"><tspan class="TextParagraph" font-family="Liberation Sans, sans-serif" font-size="282px" font-weight="400"><tspan class="TextPosition" x="7407" y="23724"><tspan fill="rgb(0,0,0)" stroke="none">06.05</tspan></tspan></tspan></text>
 <text class="TextShape" transform="rotate(-90 7732 23724)"><tspan class="TextParagraph" font-family="Liberation Sans, sans-serif" font-size="282px" font-weight="400"><tspan class="TextPosition" x="7732" y="23724"><tspan fill="rgb(0,0,0)" stroke="none">09.05</tspan></tspan></tspan></text>
 <text class="TextShape" transform="rotate(-90 8057 23724)"><tspan class="TextParagraph" font-family="Liberation Sans, sans-serif" font-size="282px" font-weight="400"><tspan class="TextPosition" x="8057" y="23724"><tspan fill="rgb(0,0,0)" stroke="none">12.05</tspan></tspan></tspan></text>
 <text class="TextShape" transform="rotate(-90 8382 23724)"><tspan class="TextParagraph" font-family="Liberation Sans, sans-serif" font-size="282px" font-weight="400"><tspan class="TextPosition" x="8382" y="23724"><tspan fill="rgb(0,0,0)" stroke="none">15.05</tspan></tspan></tspan></text>
 <text class="TextShape" transform="rotate(-90 8707 23724)"><tspan class="TextParagraph" font-family="Liberation Sans, sans-serif" font-size="282px" font-weight="400"><tspan class="TextPosition" x="8707" y="23724"><tspan fill="rgb(0,0,0)" stroke="none">18.05</tspan></tspan></tspan></text>
 <text class="TextShape" transform="rotate(-90 9032 23724)"><tspan class="TextParagraph" font-family="Liberation Sans, sans-serif" font-size="282px" font-weight="400"><tspan class="TextPosition" x="9032" y="23724"><tspan fill="rgb(0,0,0)" stroke="none">21.05</tspan></tspan></tspan></text>
 <text class="TextShape" transform="rotate(-90 9357 23724)"><tspan class="TextParagraph" font-family="Liberation Sans, sans-serif" font-size="282px" font-weight="400"><tspan class="TextPosition" x="9357" y="23724"><tspan fill="rgb(0,0,0)" stroke="none">24.05</tspan></tspan></tspan></text>
 <text class="TextShape" transform="rotate(-90 9683 23724)"><tspan class="TextParagraph" font-family="Liberation Sans, sans-serif" font-size="282px" font-weight="400"><tspan class="TextPosition" x="9683" y="23724"><tspan fill="rgb(0,0,0)" stroke="none">27.05</tspan></tspan></tspan></text>
 <text class="TextShape" transform="rotate(-90 10008 23724)"><tspan class="TextParagraph" font-family="Liberation Sans, sans-serif" font-size="282px" font-weight="400"><tspan class="TextPosition" x="10008" y="23724"><tspan fill="rgb(0,0,0)" stroke="none">30.05</tspan></tspan></tspan></text>
 <text class="TextShape" transform="rotate(-90 10333 23724)"><tspan class="TextParagraph" font-family="Liberation Sans, sans-serif" font-size="282px" font-weight="400"><tspan class="TextPosition" x="10333" y="23724"><tspan fill="rgb(0,0,0)" stroke="none">02.06</tspan></tspan></tspan></text>
 <text class="TextShape" transform="rotate(-90 10658 23724)"><tspan class="TextParagraph" font-family="Liberation Sans, sans-serif" font-size="282px" font-weight="400"><tspan class="TextPosition" x="10658" y="23724"><tspan fill="rgb(0,0,0)" stroke="none">05.06</tspan></tspan></tspan></text>
 <text class="TextShape" transform="rotate(-90 10983 23724)"><tspan class="TextParagraph" font-family="Liberation Sans, sans-serif" font-size="282px" font-weight="400"><tspan class="TextPosition" x="10983" y="23724"><tspan fill="rgb(0,0,0)" stroke="none">08.06</tspan></tspan></tspan></text>
 <text class="TextShape" transform="rotate(-90 11308 23724)"><tspan class="TextParagraph" font-family="Liberation Sans, sans-serif" font-size="282px" font-weight="400"><tspan class="TextPosition" x="11308" y="23724"><tspan fill="rgb(0,0,0)" stroke="none">11.06</tspan></tspan></tspan></text>
 <text class="TextShape" transform="rotate(-90 11633 23724)"><tspan class="TextParagraph" font-family="Liberation Sans, sans-serif" font-size="282px" font-weight="400"><tspan class="TextPosition" x="11633" y="23724"><tspan fill="rgb(0,0,0)" stroke="none">14.06</tspan></tspan></tspan></text>
 <text class="TextShape" transform="rotate(-90 11957 23724)"><tspan class="TextParagraph" font-family="Liberation Sans, sans-serif" font-size="282px" font-weight="400"><tspan class="TextPosition" x="11957" y="23724"><tspan fill="rgb(0,0,0)" stroke="none">17.06</tspan></tspan></tspan></text>
 <text class="TextShape" transform="rotate(-90 12282 23724)"><tspan class="TextParagraph" font-family="Liberation Sans, sans-serif" font-size="282px" font-weight="400"><tspan class="TextPosition" x="12282" y="23724"><tspan fill="rgb(0,0,0)" stroke="none">20.06</tspan></tspan></tspan></text>
 <text class="TextShape" transform="rotate(-90 12607 23724)"><tspan class="TextParagraph" font-family="Liberation Sans, sans-serif" font-size="282px" font-weight="400"><tspan class="TextPosition" x="12607" y="23724"><tspan fill="rgb(0,0,0)" stroke="none">23.06</tspan></tspan></tspan></text>
 <text class="TextShape" transform="rotate(-90 12932 23724)"><tspan class="TextParagraph" font-family="Liberation Sans, sans-serif" font-size="282px" font-weight="400"><tspan class="TextPosition" x="12932" y="23724"><tspan fill="rgb(0,0,0)" stroke="none">26.06</tspan></tspan></tspan></text>
 <text class="TextShape" transform="rotate(-90 13257 23724)"><tspan class="TextParagraph" font-family="Liberation Sans, sans-serif" font-size="282px" font-weight="400"><tspan class="TextPosition" x="13257" y="23724"><tspan fill="rgb(0,0,0)" stroke="none">29.06</tspan></tspan></tspan></text>
 <text class="TextShape" transform="rotate(-90 13582 23724)"><tspan class="TextParagraph" font-family="Liberation Sans, sans-serif" font-size="282px" font-weight="400"><tspan class="TextPosition" x="13582" y="23724"><tspan fill="rgb(0,0,0)" stroke="none">02.07</tspan></tspan></tspan></text>
 <text class="TextShape" transform="rotate(-90 13908 23724)"><tspan class="TextParagraph" font-family="Liberation Sans, sans-serif" font-size="282px" font-weight="400"><tspan class="TextPosition" x="13908" y="23724"><tspan fill="rgb(0,0,0)" stroke="none">05.07</tspan></tspan></tspan></text>
 <text class="TextShape" transform="rotate(-90 14233 23724)"><tspan class="TextParagraph" font-family="Liberation Sans, sans-serif" font-size="282px" font-weight="400"><tspan class="TextPosition" x="14233" y="23724"><tspan fill="rgb(0,0,0)" stroke="none">08.07</tspan></tspan></tspan></text>
 <text class="TextShape" transform="rotate(-90 14558 23724)"><tspan class="TextParagraph" font-family="Liberation Sans, sans-serif" font-size="282px" font-weight="400"><tspan class="TextPosition" x="14558" y="23724"><tspan fill="rgb(0,0,0)" stroke="none">11.07</tspan></tspan></tspan></text>
 <text class="TextShape" transform="rotate(-90 14883 23724)"><tspan class="TextParagraph" font-family="Liberation Sans, sans-serif" font-size="282px" font-weight="400"><tspan class="TextPosition" x="14883" y="23724"><tspan fill="rgb(0,0,0)" stroke="none">14.07</tspan></tspan></tspan></text>
 <text class="TextShape" transform="rotate(-90 15208 23724)"><tspan class="TextParagraph" font-family="Liberation Sans, sans-serif" font-size="282px" font-weight="400"><tspan class="TextPosition" x="15208" y="23724"><tspan fill="rgb(0,0,0)" stroke="none">17.07</tspan></tspan></tspan></text>
 <text class="TextShape" transform="rotate(-90 15533 23724)"><tspan class="TextParagraph" font-family="Liberation Sans, sans-serif" font-size="282px" font-weight="400"><tspan class="TextPosition" x="15533" y="23724"><tspan fill="rgb(0,0,0)" stroke="none">20.07</tspan></tspan></tspan></text>
 <text class="TextShape" transform="rotate(-90 15858 23724)"><tspan class="TextParagraph" font-family="Liberation Sans, sans-serif" font-size="282px" font-weight="400"><tspan class="TextPosition" x="15858" y="23724"><tspan fill="rgb(0,0,0)" stroke="none">23.07</tspan></tspan></tspan></text>
 <text class="TextShape" transform="rotate(-90 16183 23724)"><tspan class="TextParagraph" font-family="Liberation Sans, sans-serif" font-size="282px" font-weight="400"><tspan class="TextPosition" x="16183" y="23724"><tspan fill="rgb(0,0,0)" stroke="none">26.07</tspan></tspan></tspan></text>
 <text class="TextShape" transform="rotate(-90 16508 23724)"><tspan class="TextParagraph" font-family="Liberation Sans, sans-serif" font-size="282px" font-weight="400"><tspan class="TextPosition" x="16508" y="23724"><tspan fill="rgb(0,0,0)" stroke="none">29.07</tspan></tspan></tspan></text>
 <text class="TextShape" transform="rotate(-90 16833 23724)"><tspan class="TextParagraph" font-family="Liberation Sans, sans-serif" font-size="282px" font-weight="400"><tspan class="TextPosition" x="16833" y="23724"><tspan fill="rgb(0,0,0)" stroke="none">01.08</tspan></tspan></tspan></text>
 <text class="TextShape" transform="rotate(-90 17158 23724)"><tspan class="TextParagraph" font-family="Liberation Sans, sans-serif" font-size="282px" font-weight="400"><tspan class="TextPosition" x="17158" y="23724"><tspan fill="rgb(0,0,0)" stroke="none">04.08</tspan></tspan></tspan></text>
 <text class="TextShape" transform="rotate(-90 17483 23724)"><tspan class="TextParagraph" font-family="Liberation Sans, sans-serif" font-size="282px" font-weight="400"><tspan class="TextPosition" x="17483" y="23724"><tspan fill="rgb(0,0,0)" stroke="none">07.08</tspan></tspan></tspan></text>
 <text class="TextShape" transform="rotate(-90 17808 23724)"><tspan class="TextParagraph" font-family="Liberation Sans, sans-serif" font-size="282px" font-weight="400"><tspan class="TextPosition" x="17808" y="23724"><tspan fill="rgb(0,0,0)" stroke="none">10.08</tspan></tspan></tspan></text>
 <text class="TextShape" transform="rotate(-90 18134 23724)"><tspan class="TextParagraph" font-family="Liberation Sans, sans-serif" font-size="282px" font-weight="400"><tspan class="TextPosition" x="18134" y="23724"><tspan fill="rgb(0,0,0)" stroke="none">13.08</tspan></tspan></tspan></text>
 <text class="TextShape" transform="rotate(-90 18459 23724)"><tspan class="TextParagraph" font-family="Liberation Sans, sans-serif" font-size="282px" font-weight="400"><tspan class="TextPosition" x="18459" y="23724"><tspan fill="rgb(0,0,0)" stroke="none">16.08</tspan></tspan></tspan></text>
 <text class="TextShape"><tspan class="TextParagraph" font-family="Liberation Sans, sans-serif" font-size="388px" font-weight="400"><tspan class="TextPosition" x="608" y="22924"><tspan fill="rgb(0,0,0)" stroke="none">0%</tspan></tspan></tspan></text>
 <text class="TextShape"><tspan class="TextParagraph" font-family="Liberation Sans, sans-serif" font-size="388px" font-weight="400"><tspan class="TextPosition" x="608" y="20824"><tspan fill="rgb(0,0,0)" stroke="none">2%</tspan></tspan></tspan></text>
 <text class="TextShape"><tspan class="TextParagraph" font-family="Liberation Sans, sans-serif" font-size="388px" font-weight="400"><tspan class="TextPosition" x="608" y="18724"><tspan fill="rgb(0,0,0)" stroke="none">4%</tspan></tspan></tspan></text>
 <text class="TextShape"><tspan class="TextParagraph" font-family="Liberation Sans, sans-serif" font-size="388px" font-weight="400"><tspan class="TextPosition" x="608" y="16624"><tspan fill="rgb(0,0,0)" stroke="none">6%</tspan></tspan></tspan></text>
 <text class="TextShape"><tspan class="TextParagraph" font-family="Liberation Sans, sans-serif" font-size="388px" font-weight="400"><tspan class="TextPosition" x="608" y="14524"><tspan fill="rgb(0,0,0)" stroke="none">8%</tspan></tspan></tspan></text>
 <text class="TextShape"><tspan class="TextParagraph" font-family="Liberation Sans, sans-serif" font-size="388px" font-weight="400"><tspan class="TextPosition" x="396" y="12424"><tspan fill="rgb(0,0,0)" stroke="none">10%</tspan></tspan></tspan></text>
 <text class="TextShape"><tspan class="TextParagraph" font-family="Liberation Sans, sans-serif" font-size="388px" font-weight="400"><tspan class="TextPosition" x="396" y="10324"><tspan fill="rgb(0,0,0)" stroke="none">12%</tspan></tspan></tspan></text>
 <text class="TextShape"><tspan class="TextParagraph" font-family="Liberation Sans, sans-serif" font-size="388px" font-weight="400"><tspan class="TextPosition" x="396" y="8224"><tspan fill="rgb(0,0,0)" stroke="none">14%</tspan></tspan></tspan></text>
 <text class="TextShape"><tspan class="TextParagraph" font-family="Liberation Sans, sans-serif" font-size="388px" font-weight="400"><tspan class="TextPosition" x="396" y="6124"><tspan fill="rgb(0,0,0)" stroke="none">16%</tspan></tspan></tspan></text>
 <text class="TextShape"><tspan class="TextParagraph" font-family="Liberation Sans, sans-serif" font-size="388px" font-weight="400"><tspan class="TextPosition" x="396" y="4024"><tspan fill="rgb(0,0,0)" stroke="none">18%</tspan></tspan></tspan></text>
 <text class="TextShape"><tspan class="TextParagraph" font-family="Liberation Sans, sans-serif" font-size="388px" font-weight="400"><tspan class="TextPosition" x="396" y="1925"><tspan fill="rgb(0,0,0)" stroke="none">20%</tspan></tspan></tspan></text>
 <text class="TextShape"><tspan class="TextParagraph" font-family="Liberation Sans, sans-serif" font-size="494px" font-weight="700"><tspan class="TextPosition" x="862" y="990"><tspan fill="rgb(0,0,0)" stroke="none">Pomr potu obt k potu vylench (mtko do 20 %)</tspan></tspan></tspan></text>
 <path fill="none" stroke="rgb(0,127,255)" stroke-width="80" stroke-linejoin="round" d="M 18829,2641 L 20429,2641"/>
 <path fill="none" stroke="rgb(0,169,51)" stroke-width="80" stroke-linejoin="round" stroke-dasharray="80,40" d="M 18829,3900 L 20429,3900"/>
 <path fill="none" stroke="rgb(141,40,30)" stroke-width="80" stroke-linejoin="round" stroke-dasharray="80,40" d="M 18829,5159 L 20429,5159"/>
 <path fill="none" stroke="rgb(85,48,141)" stroke-width="80" stroke-linejoin="round" stroke-dasharray="80,40" d="M 18829,6418 L 20429,6418"/>
 <path fill="none" stroke="rgb(0,169,51)" stroke-width="80" stroke-linejoin="round" stroke-dasharray="158,102" d="M 18829,7677 L 20429,7677"/>
 <path fill="none" stroke="rgb(255,0,0)" stroke-width="80" stroke-linejoin="round" stroke-dasharray="158,102" d="M 18829,8936 L 20429,8936"/>
 <path fill="none" stroke="rgb(0,255,0)" stroke-width="80" stroke-linejoin="round" d="M 18829,10195 L 20429,10195"/>
 <path fill="none" stroke="rgb(191,0,65)" stroke-width="80" stroke-linejoin="round" stroke-dasharray="51,127,51,127,254,127,254,127,254,127" d="M 18829,11454 L 20429,11454"/>
 <path fill="none" stroke="rgb(21,132,102)" stroke-width="80" stroke-linejoin="round" stroke-dasharray="80,203,80,203,203,203" d="M 18829,12712 L 20429,12712"/>
 <path fill="none" stroke="rgb(180,120,4)" stroke-width="80" stroke-linejoin="round" d="M 18829,13971 L 20429,13971"/>
 <path fill="none" stroke="rgb(0,0,0)" stroke-width="80" stroke-linejoin="round" d="M 18829,15230 L 20429,15230"/>
 <path fill="none" stroke="rgb(255,64,0)" stroke-width="80" stroke-linejoin="round" stroke-dasharray="80,40" d="M 18829,16489 L 20429,16489"/>
 <path fill="none" stroke="rgb(0,169,51)" stroke-width="80" stroke-linejoin="round" d="M 18829,17748 L 20429,17748"/>
 <path fill="none" stroke="rgb(255,211,32)" stroke-width="80" stroke-linejoin="round" d="M 18829,19007 L 20429,19007"/>
 <path fill="none" stroke="rgb(128,0,128)" stroke-width="80" stroke-linejoin="round" stroke-dasharray="158,158" d="M 18829,20266 L 20429,20266"/>
 <path fill="none" stroke="rgb(0,0,255)" stroke-width="80" stroke-linejoin="round" stroke-dasharray="158,158" d="M 18829,21525 L 20429,21525"/>
 <path fill="none" stroke="rgb(0,223,255)" stroke-width="80" stroke-linejoin="round" stroke-dasharray="158,102" d="M 18829,22784 L 20429,22784"/>
 <text class="TextShape"><tspan class="TextParagraph" font-family="Liberation Sans, sans-serif" font-size="423px" font-weight="400"><tspan class="TextPosition" x="20529" y="2789"><tspan fill="rgb(0,0,0)" stroke="none">Itlie</tspan></tspan></tspan></text>
 <text class="TextShape"><tspan class="TextParagraph" font-family="Liberation Sans, sans-serif" font-size="423px" font-weight="400"><tspan class="TextPosition" x="20529" y="4048"><tspan fill="rgb(0,0,0)" stroke="none">Mexiko</tspan></tspan></tspan></text>
 <text class="TextShape"><tspan class="TextParagraph" font-family="Liberation Sans, sans-serif" font-size="423px" font-weight="400"><tspan class="TextPosition" x="20529" y="5307"><tspan fill="rgb(0,0,0)" stroke="none">USA</tspan></tspan></tspan></text>
 <text class="TextShape"><tspan class="TextParagraph" font-family="Liberation Sans, sans-serif" font-size="423px" font-weight="400"><tspan class="TextPosition" x="20529" y="6566"><tspan fill="rgb(0,0,0)" stroke="none">Kanada</tspan></tspan></tspan></text>
 <text class="TextShape"><tspan class="TextParagraph" font-family="Liberation Sans, sans-serif" font-size="423px" font-weight="400"><tspan class="TextPosition" x="20529" y="7825"><tspan fill="rgb(0,0,0)" stroke="none">rn</tspan></tspan></tspan></text>
 <text class="TextShape"><tspan class="TextParagraph" font-family="Liberation Sans, sans-serif" font-size="423px" font-weight="400"><tspan class="TextPosition" x="20529" y="9084"><tspan fill="rgb(0,0,0)" stroke="none">Turecko</tspan></tspan></tspan></text>
 <text class="TextShape"><tspan class="TextParagraph" font-family="Liberation Sans, sans-serif" font-size="423px" font-weight="400"><tspan class="TextPosition" x="20529" y="10343"><tspan fill="rgb(0,0,0)" stroke="none">vcarsko</tspan></tspan></tspan></text>
 <text class="TextShape"><tspan class="TextParagraph" font-family="Liberation Sans, sans-serif" font-size="423px" font-weight="400"><tspan class="TextPosition" x="20529" y="11602"><tspan fill="rgb(0,0,0)" stroke="none">EU_nov zem</tspan></tspan></tspan></text>
 <text class="TextShape"><tspan class="TextParagraph" font-family="Liberation Sans, sans-serif" font-size="423px" font-weight="400"><tspan class="TextPosition" x="20529" y="12860"><tspan fill="rgb(0,0,0)" stroke="none">celosvtov</tspan></tspan></tspan></text>
 <text class="TextShape"><tspan class="TextParagraph" font-family="Liberation Sans, sans-serif" font-size="423px" font-weight="400"><tspan class="TextPosition" x="20529" y="14119"><tspan fill="rgb(0,0,0)" stroke="none">Dnsko</tspan></tspan></tspan></text>
 <text class="TextShape"><tspan class="TextParagraph" font-family="Liberation Sans, sans-serif" font-size="423px" font-weight="400"><tspan class="TextPosition" x="20529" y="15378"><tspan fill="rgb(0,0,0)" stroke="none">Nmecko</tspan></tspan></tspan></text>
 <text class="TextShape"><tspan class="TextParagraph" font-family="Liberation Sans, sans-serif" font-size="423px" font-weight="400"><tspan class="TextPosition" x="20529" y="16637"><tspan fill="rgb(0,0,0)" stroke="none">Brazlie</tspan></tspan></tspan></text>
 <text class="TextShape"><tspan class="TextParagraph" font-family="Liberation Sans, sans-serif" font-size="423px" font-weight="400"><tspan class="TextPosition" x="20529" y="17896"><tspan fill="rgb(0,0,0)" stroke="none">Rakousko</tspan></tspan></tspan></text>
 <text class="TextShape"><tspan class="TextParagraph" font-family="Liberation Sans, sans-serif" font-size="423px" font-weight="400"><tspan class="TextPosition" x="20529" y="19155"><tspan fill="rgb(0,0,0)" stroke="none">esko</tspan></tspan></tspan></text>
 <text class="TextShape"><tspan class="TextParagraph" font-family="Liberation Sans, sans-serif" font-size="423px" font-weight="400"><tspan class="TextPosition" x="20529" y="20414"><tspan fill="rgb(0,0,0)" stroke="none">Indie</tspan></tspan></tspan></text>
 <text class="TextShape"><tspan class="TextParagraph" font-family="Liberation Sans, sans-serif" font-size="423px" font-weight="400"><tspan class="TextPosition" x="20529" y="21673"><tspan fill="rgb(0,0,0)" stroke="none">Jin Korea</tspan></tspan></tspan></text>
 <text class="TextShape"><tspan class="TextParagraph" font-family="Liberation Sans, sans-serif" font-size="423px" font-weight="400"><tspan class="TextPosition" x="20529" y="22932"><tspan fill="rgb(0,0,0)" stroke="none">Rusko</tspan></tspan></tspan></text>
</svg>