<?xml version="1.0" encoding="UTF-8"?>
<!DOCTYPE svg PUBLIC "-//W3C//DTD SVG 1.1//EN" "http://www.w3.org/Graphics/SVG/1.1/DTD/svg11.dtd">
<svg width="236mm" height="238mm" viewBox="0 0 23600 23800" version="1.1" xmlns="http://www.w3.org/2000/svg" xmlns:xlink="http://www.w3.org/1999/xlink" stroke-width="28.222" stroke-linejoin="round" xml:space="preserve">
 <path fill="rgb(255,255,255)" stroke="none" d="M 11800,23800 L 0,23800 0,0 23600,0 23600,23800 11800,23800 Z"/>
 <path fill="none" stroke="rgb(179,179,179)" stroke-linejoin="round" d="M 10022,21702 L 1408,21702 1408,1712 18636,1712 18636,21702 10022,21702 Z"/>
 <path fill="none" stroke="rgb(179,179,179)" stroke-linejoin="round" d="M 18636,21701 L 1408,21701"/>
 <path fill="none" stroke="rgb(179,179,179)" stroke-linejoin="round" d="M 18636,19202 L 1408,19202"/>
 <path fill="none" stroke="rgb(179,179,179)" stroke-linejoin="round" d="M 18636,16703 L 1408,16703"/>
 <path fill="none" stroke="rgb(179,179,179)" stroke-linejoin="round" d="M 18636,14204 L 1408,14204"/>
 <path fill="none" stroke="rgb(179,179,179)" stroke-linejoin="round" d="M 18636,11706 L 1408,11706"/>
 <path fill="none" stroke="rgb(179,179,179)" stroke-linejoin="round" d="M 18636,9207 L 1408,9207"/>
 <path fill="none" stroke="rgb(179,179,179)" stroke-linejoin="round" d="M 18636,6708 L 1408,6708"/>
 <path fill="none" stroke="rgb(179,179,179)" stroke-linejoin="round" d="M 18636,4209 L 1408,4209"/>
 <path fill="none" stroke="rgb(179,179,179)" stroke-linejoin="round" d="M 18636,1711 L 1408,1711"/>
 <path fill="none" stroke="rgb(221,221,221)" stroke-linejoin="round" stroke-dasharray="53,34" d="M 18636,21201 L 1408,21201"/>
 <path fill="none" stroke="rgb(221,221,221)" stroke-linejoin="round" stroke-dasharray="53,34" d="M 18636,20701 L 1408,20701"/>
 <path fill="none" stroke="rgb(221,221,221)" stroke-linejoin="round" stroke-dasharray="53,34" d="M 18636,20201 L 1408,20201"/>
 <path fill="none" stroke="rgb(221,221,221)" stroke-linejoin="round" stroke-dasharray="53,34" d="M 18636,19701 L 1408,19701"/>
 <path fill="none" stroke="rgb(221,221,221)" stroke-linejoin="round" stroke-dasharray="53,34" d="M 18636,18702 L 1408,18702"/>
 <path fill="none" stroke="rgb(221,221,221)" stroke-linejoin="round" stroke-dasharray="53,34" d="M 18636,18202 L 1408,18202"/>
 <path fill="none" stroke="rgb(221,221,221)" stroke-linejoin="round" stroke-dasharray="53,34" d="M 18636,17702 L 1408,17702"/>
 <path fill="none" stroke="rgb(221,221,221)" stroke-linejoin="round" stroke-dasharray="53,34" d="M 18636,17203 L 1408,17203"/>
 <path fill="none" stroke="rgb(221,221,221)" stroke-linejoin="round" stroke-dasharray="53,34" d="M 18636,16203 L 1408,16203"/>
 <path fill="none" stroke="rgb(221,221,221)" stroke-linejoin="round" stroke-dasharray="53,34" d="M 18636,15703 L 1408,15703"/>
 <path fill="none" stroke="rgb(221,221,221)" stroke-linejoin="round" stroke-dasharray="53,34" d="M 18636,15203 L 1408,15203"/>
 <path fill="none" stroke="rgb(221,221,221)" stroke-linejoin="round" stroke-dasharray="53,34" d="M 18636,14704 L 1408,14704"/>
 <path fill="none" stroke="rgb(221,221,221)" stroke-linejoin="round" stroke-dasharray="53,34" d="M 18636,13704 L 1408,13704"/>
 <path fill="none" stroke="rgb(221,221,221)" stroke-linejoin="round" stroke-dasharray="53,34" d="M 18636,13204 L 1408,13204"/>
 <path fill="none" stroke="rgb(221,221,221)" stroke-linejoin="round" stroke-dasharray="53,34" d="M 18636,12705 L 1408,12705"/>
 <path fill="none" stroke="rgb(221,221,221)" stroke-linejoin="round" stroke-dasharray="53,34" d="M 18636,12205 L 1408,12205"/>
 <path fill="none" stroke="rgb(221,221,221)" stroke-linejoin="round" stroke-dasharray="53,34" d="M 18636,11206 L 1408,11206"/>
 <path fill="none" stroke="rgb(221,221,221)" stroke-linejoin="round" stroke-dasharray="53,34" d="M 18636,10706 L 1408,10706"/>
 <path fill="none" stroke="rgb(221,221,221)" stroke-linejoin="round" stroke-dasharray="53,34" d="M 18636,10207 L 1408,10207"/>
 <path fill="none" stroke="rgb(221,221,221)" stroke-linejoin="round" stroke-dasharray="53,34" d="M 18636,9707 L 1408,9707"/>
 <path fill="none" stroke="rgb(221,221,221)" stroke-linejoin="round" stroke-dasharray="53,34" d="M 18636,8707 L 1408,8707"/>
 <path fill="none" stroke="rgb(221,221,221)" stroke-linejoin="round" stroke-dasharray="53,34" d="M 18636,8208 L 1408,8208"/>
 <path fill="none" stroke="rgb(221,221,221)" stroke-linejoin="round" stroke-dasharray="53,34" d="M 18636,7708 L 1408,7708"/>
 <path fill="none" stroke="rgb(221,221,221)" stroke-linejoin="round" stroke-dasharray="53,34" d="M 18636,7208 L 1408,7208"/>
 <path fill="none" stroke="rgb(221,221,221)" stroke-linejoin="round" stroke-dasharray="53,34" d="M 18636,6208 L 1408,6208"/>
 <path fill="none" stroke="rgb(221,221,221)" stroke-linejoin="round" stroke-dasharray="53,34" d="M 18636,5709 L 1408,5709"/>
 <path fill="none" stroke="rgb(221,221,221)" stroke-linejoin="round" stroke-dasharray="53,34" d="M 18636,5209 L 1408,5209"/>
 <path fill="none" stroke="rgb(221,221,221)" stroke-linejoin="round" stroke-dasharray="53,34" d="M 18636,4709 L 1408,4709"/>
 <path fill="none" stroke="rgb(221,221,221)" stroke-linejoin="round" stroke-dasharray="53,34" d="M 18636,3710 L 1408,3710"/>
 <path fill="none" stroke="rgb(221,221,221)" stroke-linejoin="round" stroke-dasharray="53,34" d="M 18636,3210 L 1408,3210"/>
 <path fill="none" stroke="rgb(221,221,221)" stroke-linejoin="round" stroke-dasharray="53,34" d="M 18636,2710 L 1408,2710"/>
 <path fill="none" stroke="rgb(221,221,221)" stroke-linejoin="round" stroke-dasharray="53,34" d="M 18636,2210 L 1408,2210"/>
 <path fill="none" stroke="rgb(179,179,179)" stroke-linejoin="round" d="M 1408,21851 L 1408,21701"/>
 <path fill="none" stroke="rgb(179,179,179)" stroke-linejoin="round" d="M 1408,21851 L 1408,21701"/>
 <path fill="none" stroke="rgb(179,179,179)" stroke-linejoin="round" d="M 1511,21851 L 1511,21701"/>
 <path fill="none" stroke="rgb(179,179,179)" stroke-linejoin="round" d="M 1511,21851 L 1511,21701"/>
 <path fill="none" stroke="rgb(179,179,179)" stroke-linejoin="round" d="M 1615,21851 L 1615,21701"/>
 <path fill="none" stroke="rgb(179,179,179)" stroke-linejoin="round" d="M 1615,21851 L 1615,21701"/>
 <path fill="none" stroke="rgb(179,179,179)" stroke-linejoin="round" d="M 1719,21851 L 1719,21701"/>
 <path fill="none" stroke="rgb(179,179,179)" stroke-linejoin="round" d="M 1719,21851 L 1719,21701"/>
 <path fill="none" stroke="rgb(179,179,179)" stroke-linejoin="round" d="M 1823,21851 L 1823,21701"/>
 <path fill="none" stroke="rgb(179,179,179)" stroke-linejoin="round" d="M 1823,21851 L 1823,21701"/>
 <path fill="none" stroke="rgb(179,179,179)" stroke-linejoin="round" d="M 1926,21851 L 1926,21701"/>
 <path fill="none" stroke="rgb(179,179,179)" stroke-linejoin="round" d="M 1926,21851 L 1926,21701"/>
 <path fill="none" stroke="rgb(179,179,179)" stroke-linejoin="round" d="M 2030,21851 L 2030,21701"/>
 <path fill="none" stroke="rgb(179,179,179)" stroke-linejoin="round" d="M 2030,21851 L 2030,21701"/>
 <path fill="none" stroke="rgb(179,179,179)" stroke-linejoin="round" d="M 2134,21851 L 2134,21701"/>
 <path fill="none" stroke="rgb(179,179,179)" stroke-linejoin="round" d="M 2134,21851 L 2134,21701"/>
 <path fill="none" stroke="rgb(179,179,179)" stroke-linejoin="round" d="M 2238,21851 L 2238,21701"/>
 <path fill="none" stroke="rgb(179,179,179)" stroke-linejoin="round" d="M 2238,21851 L 2238,21701"/>
 <path fill="none" stroke="rgb(179,179,179)" stroke-linejoin="round" d="M 2342,21851 L 2342,21701"/>
 <path fill="none" stroke="rgb(179,179,179)" stroke-linejoin="round" d="M 2342,21851 L 2342,21701"/>
 <path fill="none" stroke="rgb(179,179,179)" stroke-linejoin="round" d="M 2445,21851 L 2445,21701"/>
 <path fill="none" stroke="rgb(179,179,179)" stroke-linejoin="round" d="M 2445,21851 L 2445,21701"/>
 <path fill="none" stroke="rgb(179,179,179)" stroke-linejoin="round" d="M 2549,21851 L 2549,21701"/>
 <path fill="none" stroke="rgb(179,179,179)" stroke-linejoin="round" d="M 2549,21851 L 2549,21701"/>
 <path fill="none" stroke="rgb(179,179,179)" stroke-linejoin="round" d="M 2653,21851 L 2653,21701"/>
 <path fill="none" stroke="rgb(179,179,179)" stroke-linejoin="round" d="M 2653,21851 L 2653,21701"/>
 <path fill="none" stroke="rgb(179,179,179)" stroke-linejoin="round" d="M 2757,21851 L 2757,21701"/>
 <path fill="none" stroke="rgb(179,179,179)" stroke-linejoin="round" d="M 2757,21851 L 2757,21701"/>
 <path fill="none" stroke="rgb(179,179,179)" stroke-linejoin="round" d="M 2861,21851 L 2861,21701"/>
 <path fill="none" stroke="rgb(179,179,179)" stroke-linejoin="round" d="M 2861,21851 L 2861,21701"/>
 <path fill="none" stroke="rgb(179,179,179)" stroke-linejoin="round" d="M 2964,21851 L 2964,21701"/>
 <path fill="none" stroke="rgb(179,179,179)" stroke-linejoin="round" d="M 2964,21851 L 2964,21701"/>
 <path fill="none" stroke="rgb(179,179,179)" stroke-linejoin="round" d="M 3068,21851 L 3068,21701"/>
 <path fill="none" stroke="rgb(179,179,179)" stroke-linejoin="round" d="M 3068,21851 L 3068,21701"/>
 <path fill="none" stroke="rgb(179,179,179)" stroke-linejoin="round" d="M 3172,21851 L 3172,21701"/>
 <path fill="none" stroke="rgb(179,179,179)" stroke-linejoin="round" d="M 3172,21851 L 3172,21701"/>
 <path fill="none" stroke="rgb(179,179,179)" stroke-linejoin="round" d="M 3276,21851 L 3276,21701"/>
 <path fill="none" stroke="rgb(179,179,179)" stroke-linejoin="round" d="M 3276,21851 L 3276,21701"/>
 <path fill="none" stroke="rgb(179,179,179)" stroke-linejoin="round" d="M 3379,21851 L 3379,21701"/>
 <path fill="none" stroke="rgb(179,179,179)" stroke-linejoin="round" d="M 3379,21851 L 3379,21701"/>
 <path fill="none" stroke="rgb(179,179,179)" stroke-linejoin="round" d="M 3483,21851 L 3483,21701"/>
 <path fill="none" stroke="rgb(179,179,179)" stroke-linejoin="round" d="M 3483,21851 L 3483,21701"/>
 <path fill="none" stroke="rgb(179,179,179)" stroke-linejoin="round" d="M 3587,21851 L 3587,21701"/>
 <path fill="none" stroke="rgb(179,179,179)" stroke-linejoin="round" d="M 3587,21851 L 3587,21701"/>
 <path fill="none" stroke="rgb(179,179,179)" stroke-linejoin="round" d="M 3691,21851 L 3691,21701"/>
 <path fill="none" stroke="rgb(179,179,179)" stroke-linejoin="round" d="M 3691,21851 L 3691,21701"/>
 <path fill="none" stroke="rgb(179,179,179)" stroke-linejoin="round" d="M 3795,21851 L 3795,21701"/>
 <path fill="none" stroke="rgb(179,179,179)" stroke-linejoin="round" d="M 3795,21851 L 3795,21701"/>
 <path fill="none" stroke="rgb(179,179,179)" stroke-linejoin="round" d="M 3898,21851 L 3898,21701"/>
 <path fill="none" stroke="rgb(179,179,179)" stroke-linejoin="round" d="M 3898,21851 L 3898,21701"/>
 <path fill="none" stroke="rgb(179,179,179)" stroke-linejoin="round" d="M 4002,21851 L 4002,21701"/>
 <path fill="none" stroke="rgb(179,179,179)" stroke-linejoin="round" d="M 4002,21851 L 4002,21701"/>
 <path fill="none" stroke="rgb(179,179,179)" stroke-linejoin="round" d="M 4106,21851 L 4106,21701"/>
 <path fill="none" stroke="rgb(179,179,179)" stroke-linejoin="round" d="M 4106,21851 L 4106,21701"/>
 <path fill="none" stroke="rgb(179,179,179)" stroke-linejoin="round" d="M 4210,21851 L 4210,21701"/>
 <path fill="none" stroke="rgb(179,179,179)" stroke-linejoin="round" d="M 4210,21851 L 4210,21701"/>
 <path fill="none" stroke="rgb(179,179,179)" stroke-linejoin="round" d="M 4314,21851 L 4314,21701"/>
 <path fill="none" stroke="rgb(179,179,179)" stroke-linejoin="round" d="M 4314,21851 L 4314,21701"/>
 <path fill="none" stroke="rgb(179,179,179)" stroke-linejoin="round" d="M 4417,21851 L 4417,21701"/>
 <path fill="none" stroke="rgb(179,179,179)" stroke-linejoin="round" d="M 4417,21851 L 4417,21701"/>
 <path fill="none" stroke="rgb(179,179,179)" stroke-linejoin="round" d="M 4521,21851 L 4521,21701"/>
 <path fill="none" stroke="rgb(179,179,179)" stroke-linejoin="round" d="M 4521,21851 L 4521,21701"/>
 <path fill="none" stroke="rgb(179,179,179)" stroke-linejoin="round" d="M 4625,21851 L 4625,21701"/>
 <path fill="none" stroke="rgb(179,179,179)" stroke-linejoin="round" d="M 4625,21851 L 4625,21701"/>
 <path fill="none" stroke="rgb(179,179,179)" stroke-linejoin="round" d="M 4729,21851 L 4729,21701"/>
 <path fill="none" stroke="rgb(179,179,179)" stroke-linejoin="round" d="M 4729,21851 L 4729,21701"/>
 <path fill="none" stroke="rgb(179,179,179)" stroke-linejoin="round" d="M 4833,21851 L 4833,21701"/>
 <path fill="none" stroke="rgb(179,179,179)" stroke-linejoin="round" d="M 4833,21851 L 4833,21701"/>
 <path fill="none" stroke="rgb(179,179,179)" stroke-linejoin="round" d="M 4936,21851 L 4936,21701"/>
 <path fill="none" stroke="rgb(179,179,179)" stroke-linejoin="round" d="M 4936,21851 L 4936,21701"/>
 <path fill="none" stroke="rgb(179,179,179)" stroke-linejoin="round" d="M 5040,21851 L 5040,21701"/>
 <path fill="none" stroke="rgb(179,179,179)" stroke-linejoin="round" d="M 5040,21851 L 5040,21701"/>
 <path fill="none" stroke="rgb(179,179,179)" stroke-linejoin="round" d="M 5144,21851 L 5144,21701"/>
 <path fill="none" stroke="rgb(179,179,179)" stroke-linejoin="round" d="M 5144,21851 L 5144,21701"/>
 <path fill="none" stroke="rgb(179,179,179)" stroke-linejoin="round" d="M 5248,21851 L 5248,21701"/>
 <path fill="none" stroke="rgb(179,179,179)" stroke-linejoin="round" d="M 5248,21851 L 5248,21701"/>
 <path fill="none" stroke="rgb(179,179,179)" stroke-linejoin="round" d="M 5351,21851 L 5351,21701"/>
 <path fill="none" stroke="rgb(179,179,179)" stroke-linejoin="round" d="M 5351,21851 L 5351,21701"/>
 <path fill="none" stroke="rgb(179,179,179)" stroke-linejoin="round" d="M 5455,21851 L 5455,21701"/>
 <path fill="none" stroke="rgb(179,179,179)" stroke-linejoin="round" d="M 5455,21851 L 5455,21701"/>
 <path fill="none" stroke="rgb(179,179,179)" stroke-linejoin="round" d="M 5559,21851 L 5559,21701"/>
 <path fill="none" stroke="rgb(179,179,179)" stroke-linejoin="round" d="M 5559,21851 L 5559,21701"/>
 <path fill="none" stroke="rgb(179,179,179)" stroke-linejoin="round" d="M 5663,21851 L 5663,21701"/>
 <path fill="none" stroke="rgb(179,179,179)" stroke-linejoin="round" d="M 5663,21851 L 5663,21701"/>
 <path fill="none" stroke="rgb(179,179,179)" stroke-linejoin="round" d="M 5767,21851 L 5767,21701"/>
 <path fill="none" stroke="rgb(179,179,179)" stroke-linejoin="round" d="M 5767,21851 L 5767,21701"/>
 <path fill="none" stroke="rgb(179,179,179)" stroke-linejoin="round" d="M 5870,21851 L 5870,21701"/>
 <path fill="none" stroke="rgb(179,179,179)" stroke-linejoin="round" d="M 5870,21851 L 5870,21701"/>
 <path fill="none" stroke="rgb(179,179,179)" stroke-linejoin="round" d="M 5974,21851 L 5974,21701"/>
 <path fill="none" stroke="rgb(179,179,179)" stroke-linejoin="round" d="M 5974,21851 L 5974,21701"/>
 <path fill="none" stroke="rgb(179,179,179)" stroke-linejoin="round" d="M 6078,21851 L 6078,21701"/>
 <path fill="none" stroke="rgb(179,179,179)" stroke-linejoin="round" d="M 6078,21851 L 6078,21701"/>
 <path fill="none" stroke="rgb(179,179,179)" stroke-linejoin="round" d="M 6182,21851 L 6182,21701"/>
 <path fill="none" stroke="rgb(179,179,179)" stroke-linejoin="round" d="M 6182,21851 L 6182,21701"/>
 <path fill="none" stroke="rgb(179,179,179)" stroke-linejoin="round" d="M 6286,21851 L 6286,21701"/>
 <path fill="none" stroke="rgb(179,179,179)" stroke-linejoin="round" d="M 6286,21851 L 6286,21701"/>
 <path fill="none" stroke="rgb(179,179,179)" stroke-linejoin="round" d="M 6389,21851 L 6389,21701"/>
 <path fill="none" stroke="rgb(179,179,179)" stroke-linejoin="round" d="M 6389,21851 L 6389,21701"/>
 <path fill="none" stroke="rgb(179,179,179)" stroke-linejoin="round" d="M 6493,21851 L 6493,21701"/>
 <path fill="none" stroke="rgb(179,179,179)" stroke-linejoin="round" d="M 6493,21851 L 6493,21701"/>
 <path fill="none" stroke="rgb(179,179,179)" stroke-linejoin="round" d="M 6597,21851 L 6597,21701"/>
 <path fill="none" stroke="rgb(179,179,179)" stroke-linejoin="round" d="M 6597,21851 L 6597,21701"/>
 <path fill="none" stroke="rgb(179,179,179)" stroke-linejoin="round" d="M 6701,21851 L 6701,21701"/>
 <path fill="none" stroke="rgb(179,179,179)" stroke-linejoin="round" d="M 6701,21851 L 6701,21701"/>
 <path fill="none" stroke="rgb(179,179,179)" stroke-linejoin="round" d="M 6805,21851 L 6805,21701"/>
 <path fill="none" stroke="rgb(179,179,179)" stroke-linejoin="round" d="M 6805,21851 L 6805,21701"/>
 <path fill="none" stroke="rgb(179,179,179)" stroke-linejoin="round" d="M 6908,21851 L 6908,21701"/>
 <path fill="none" stroke="rgb(179,179,179)" stroke-linejoin="round" d="M 6908,21851 L 6908,21701"/>
 <path fill="none" stroke="rgb(179,179,179)" stroke-linejoin="round" d="M 7012,21851 L 7012,21701"/>
 <path fill="none" stroke="rgb(179,179,179)" stroke-linejoin="round" d="M 7012,21851 L 7012,21701"/>
 <path fill="none" stroke="rgb(179,179,179)" stroke-linejoin="round" d="M 7116,21851 L 7116,21701"/>
 <path fill="none" stroke="rgb(179,179,179)" stroke-linejoin="round" d="M 7116,21851 L 7116,21701"/>
 <path fill="none" stroke="rgb(179,179,179)" stroke-linejoin="round" d="M 7220,21851 L 7220,21701"/>
 <path fill="none" stroke="rgb(179,179,179)" stroke-linejoin="round" d="M 7220,21851 L 7220,21701"/>
 <path fill="none" stroke="rgb(179,179,179)" stroke-linejoin="round" d="M 7323,21851 L 7323,21701"/>
 <path fill="none" stroke="rgb(179,179,179)" stroke-linejoin="round" d="M 7323,21851 L 7323,21701"/>
 <path fill="none" stroke="rgb(179,179,179)" stroke-linejoin="round" d="M 7427,21851 L 7427,21701"/>
 <path fill="none" stroke="rgb(179,179,179)" stroke-linejoin="round" d="M 7427,21851 L 7427,21701"/>
 <path fill="none" stroke="rgb(179,179,179)" stroke-linejoin="round" d="M 7531,21851 L 7531,21701"/>
 <path fill="none" stroke="rgb(179,179,179)" stroke-linejoin="round" d="M 7531,21851 L 7531,21701"/>
 <path fill="none" stroke="rgb(179,179,179)" stroke-linejoin="round" d="M 7635,21851 L 7635,21701"/>
 <path fill="none" stroke="rgb(179,179,179)" stroke-linejoin="round" d="M 7635,21851 L 7635,21701"/>
 <path fill="none" stroke="rgb(179,179,179)" stroke-linejoin="round" d="M 7739,21851 L 7739,21701"/>
 <path fill="none" stroke="rgb(179,179,179)" stroke-linejoin="round" d="M 7739,21851 L 7739,21701"/>
 <path fill="none" stroke="rgb(179,179,179)" stroke-linejoin="round" d="M 7842,21851 L 7842,21701"/>
 <path fill="none" stroke="rgb(179,179,179)" stroke-linejoin="round" d="M 7842,21851 L 7842,21701"/>
 <path fill="none" stroke="rgb(179,179,179)" stroke-linejoin="round" d="M 7946,21851 L 7946,21701"/>
 <path fill="none" stroke="rgb(179,179,179)" stroke-linejoin="round" d="M 7946,21851 L 7946,21701"/>
 <path fill="none" stroke="rgb(179,179,179)" stroke-linejoin="round" d="M 8050,21851 L 8050,21701"/>
 <path fill="none" stroke="rgb(179,179,179)" stroke-linejoin="round" d="M 8050,21851 L 8050,21701"/>
 <path fill="none" stroke="rgb(179,179,179)" stroke-linejoin="round" d="M 8154,21851 L 8154,21701"/>
 <path fill="none" stroke="rgb(179,179,179)" stroke-linejoin="round" d="M 8154,21851 L 8154,21701"/>
 <path fill="none" stroke="rgb(179,179,179)" stroke-linejoin="round" d="M 8258,21851 L 8258,21701"/>
 <path fill="none" stroke="rgb(179,179,179)" stroke-linejoin="round" d="M 8258,21851 L 8258,21701"/>
 <path fill="none" stroke="rgb(179,179,179)" stroke-linejoin="round" d="M 8361,21851 L 8361,21701"/>
 <path fill="none" stroke="rgb(179,179,179)" stroke-linejoin="round" d="M 8361,21851 L 8361,21701"/>
 <path fill="none" stroke="rgb(179,179,179)" stroke-linejoin="round" d="M 8465,21851 L 8465,21701"/>
 <path fill="none" stroke="rgb(179,179,179)" stroke-linejoin="round" d="M 8465,21851 L 8465,21701"/>
 <path fill="none" stroke="rgb(179,179,179)" stroke-linejoin="round" d="M 8569,21851 L 8569,21701"/>
 <path fill="none" stroke="rgb(179,179,179)" stroke-linejoin="round" d="M 8569,21851 L 8569,21701"/>
 <path fill="none" stroke="rgb(179,179,179)" stroke-linejoin="round" d="M 8673,21851 L 8673,21701"/>
 <path fill="none" stroke="rgb(179,179,179)" stroke-linejoin="round" d="M 8673,21851 L 8673,21701"/>
 <path fill="none" stroke="rgb(179,179,179)" stroke-linejoin="round" d="M 8777,21851 L 8777,21701"/>
 <path fill="none" stroke="rgb(179,179,179)" stroke-linejoin="round" d="M 8777,21851 L 8777,21701"/>
 <path fill="none" stroke="rgb(179,179,179)" stroke-linejoin="round" d="M 8880,21851 L 8880,21701"/>
 <path fill="none" stroke="rgb(179,179,179)" stroke-linejoin="round" d="M 8880,21851 L 8880,21701"/>
 <path fill="none" stroke="rgb(179,179,179)" stroke-linejoin="round" d="M 8984,21851 L 8984,21701"/>
 <path fill="none" stroke="rgb(179,179,179)" stroke-linejoin="round" d="M 8984,21851 L 8984,21701"/>
 <path fill="none" stroke="rgb(179,179,179)" stroke-linejoin="round" d="M 9088,21851 L 9088,21701"/>
 <path fill="none" stroke="rgb(179,179,179)" stroke-linejoin="round" d="M 9088,21851 L 9088,21701"/>
 <path fill="none" stroke="rgb(179,179,179)" stroke-linejoin="round" d="M 9192,21851 L 9192,21701"/>
 <path fill="none" stroke="rgb(179,179,179)" stroke-linejoin="round" d="M 9192,21851 L 9192,21701"/>
 <path fill="none" stroke="rgb(179,179,179)" stroke-linejoin="round" d="M 9295,21851 L 9295,21701"/>
 <path fill="none" stroke="rgb(179,179,179)" stroke-linejoin="round" d="M 9295,21851 L 9295,21701"/>
 <path fill="none" stroke="rgb(179,179,179)" stroke-linejoin="round" d="M 9399,21851 L 9399,21701"/>
 <path fill="none" stroke="rgb(179,179,179)" stroke-linejoin="round" d="M 9399,21851 L 9399,21701"/>
 <path fill="none" stroke="rgb(179,179,179)" stroke-linejoin="round" d="M 9503,21851 L 9503,21701"/>
 <path fill="none" stroke="rgb(179,179,179)" stroke-linejoin="round" d="M 9503,21851 L 9503,21701"/>
 <path fill="none" stroke="rgb(179,179,179)" stroke-linejoin="round" d="M 9607,21851 L 9607,21701"/>
 <path fill="none" stroke="rgb(179,179,179)" stroke-linejoin="round" d="M 9607,21851 L 9607,21701"/>
 <path fill="none" stroke="rgb(179,179,179)" stroke-linejoin="round" d="M 9711,21851 L 9711,21701"/>
 <path fill="none" stroke="rgb(179,179,179)" stroke-linejoin="round" d="M 9711,21851 L 9711,21701"/>
 <path fill="none" stroke="rgb(179,179,179)" stroke-linejoin="round" d="M 9814,21851 L 9814,21701"/>
 <path fill="none" stroke="rgb(179,179,179)" stroke-linejoin="round" d="M 9814,21851 L 9814,21701"/>
 <path fill="none" stroke="rgb(179,179,179)" stroke-linejoin="round" d="M 9918,21851 L 9918,21701"/>
 <path fill="none" stroke="rgb(179,179,179)" stroke-linejoin="round" d="M 9918,21851 L 9918,21701"/>
 <path fill="none" stroke="rgb(179,179,179)" stroke-linejoin="round" d="M 10022,21851 L 10022,21701"/>
 <path fill="none" stroke="rgb(179,179,179)" stroke-linejoin="round" d="M 10022,21851 L 10022,21701"/>
 <path fill="none" stroke="rgb(179,179,179)" stroke-linejoin="round" d="M 10126,21851 L 10126,21701"/>
 <path fill="none" stroke="rgb(179,179,179)" stroke-linejoin="round" d="M 10126,21851 L 10126,21701"/>
 <path fill="none" stroke="rgb(179,179,179)" stroke-linejoin="round" d="M 10230,21851 L 10230,21701"/>
 <path fill="none" stroke="rgb(179,179,179)" stroke-linejoin="round" d="M 10230,21851 L 10230,21701"/>
 <path fill="none" stroke="rgb(179,179,179)" stroke-linejoin="round" d="M 10333,21851 L 10333,21701"/>
 <path fill="none" stroke="rgb(179,179,179)" stroke-linejoin="round" d="M 10333,21851 L 10333,21701"/>
 <path fill="none" stroke="rgb(179,179,179)" stroke-linejoin="round" d="M 10437,21851 L 10437,21701"/>
 <path fill="none" stroke="rgb(179,179,179)" stroke-linejoin="round" d="M 10437,21851 L 10437,21701"/>
 <path fill="none" stroke="rgb(179,179,179)" stroke-linejoin="round" d="M 10541,21851 L 10541,21701"/>
 <path fill="none" stroke="rgb(179,179,179)" stroke-linejoin="round" d="M 10541,21851 L 10541,21701"/>
 <path fill="none" stroke="rgb(179,179,179)" stroke-linejoin="round" d="M 10645,21851 L 10645,21701"/>
 <path fill="none" stroke="rgb(179,179,179)" stroke-linejoin="round" d="M 10645,21851 L 10645,21701"/>
 <path fill="none" stroke="rgb(179,179,179)" stroke-linejoin="round" d="M 10749,21851 L 10749,21701"/>
 <path fill="none" stroke="rgb(179,179,179)" stroke-linejoin="round" d="M 10749,21851 L 10749,21701"/>
 <path fill="none" stroke="rgb(179,179,179)" stroke-linejoin="round" d="M 10852,21851 L 10852,21701"/>
 <path fill="none" stroke="rgb(179,179,179)" stroke-linejoin="round" d="M 10852,21851 L 10852,21701"/>
 <path fill="none" stroke="rgb(179,179,179)" stroke-linejoin="round" d="M 10956,21851 L 10956,21701"/>
 <path fill="none" stroke="rgb(179,179,179)" stroke-linejoin="round" d="M 10956,21851 L 10956,21701"/>
 <path fill="none" stroke="rgb(179,179,179)" stroke-linejoin="round" d="M 11060,21851 L 11060,21701"/>
 <path fill="none" stroke="rgb(179,179,179)" stroke-linejoin="round" d="M 11060,21851 L 11060,21701"/>
 <path fill="none" stroke="rgb(179,179,179)" stroke-linejoin="round" d="M 11164,21851 L 11164,21701"/>
 <path fill="none" stroke="rgb(179,179,179)" stroke-linejoin="round" d="M 11164,21851 L 11164,21701"/>
 <path fill="none" stroke="rgb(179,179,179)" stroke-linejoin="round" d="M 11267,21851 L 11267,21701"/>
 <path fill="none" stroke="rgb(179,179,179)" stroke-linejoin="round" d="M 11267,21851 L 11267,21701"/>
 <path fill="none" stroke="rgb(179,179,179)" stroke-linejoin="round" d="M 11371,21851 L 11371,21701"/>
 <path fill="none" stroke="rgb(179,179,179)" stroke-linejoin="round" d="M 11371,21851 L 11371,21701"/>
 <path fill="none" stroke="rgb(179,179,179)" stroke-linejoin="round" d="M 11475,21851 L 11475,21701"/>
 <path fill="none" stroke="rgb(179,179,179)" stroke-linejoin="round" d="M 11475,21851 L 11475,21701"/>
 <path fill="none" stroke="rgb(179,179,179)" stroke-linejoin="round" d="M 11579,21851 L 11579,21701"/>
 <path fill="none" stroke="rgb(179,179,179)" stroke-linejoin="round" d="M 11579,21851 L 11579,21701"/>
 <path fill="none" stroke="rgb(179,179,179)" stroke-linejoin="round" d="M 11683,21851 L 11683,21701"/>
 <path fill="none" stroke="rgb(179,179,179)" stroke-linejoin="round" d="M 11683,21851 L 11683,21701"/>
 <path fill="none" stroke="rgb(179,179,179)" stroke-linejoin="round" d="M 11786,21851 L 11786,21701"/>
 <path fill="none" stroke="rgb(179,179,179)" stroke-linejoin="round" d="M 11786,21851 L 11786,21701"/>
 <path fill="none" stroke="rgb(179,179,179)" stroke-linejoin="round" d="M 11889,21851 L 11889,21701"/>
 <path fill="none" stroke="rgb(179,179,179)" stroke-linejoin="round" d="M 11889,21851 L 11889,21701"/>
 <path fill="none" stroke="rgb(179,179,179)" stroke-linejoin="round" d="M 11993,21851 L 11993,21701"/>
 <path fill="none" stroke="rgb(179,179,179)" stroke-linejoin="round" d="M 11993,21851 L 11993,21701"/>
 <path fill="none" stroke="rgb(179,179,179)" stroke-linejoin="round" d="M 12097,21851 L 12097,21701"/>
 <path fill="none" stroke="rgb(179,179,179)" stroke-linejoin="round" d="M 12097,21851 L 12097,21701"/>
 <path fill="none" stroke="rgb(179,179,179)" stroke-linejoin="round" d="M 12201,21851 L 12201,21701"/>
 <path fill="none" stroke="rgb(179,179,179)" stroke-linejoin="round" d="M 12201,21851 L 12201,21701"/>
 <path fill="none" stroke="rgb(179,179,179)" stroke-linejoin="round" d="M 12304,21851 L 12304,21701"/>
 <path fill="none" stroke="rgb(179,179,179)" stroke-linejoin="round" d="M 12304,21851 L 12304,21701"/>
 <path fill="none" stroke="rgb(179,179,179)" stroke-linejoin="round" d="M 12408,21851 L 12408,21701"/>
 <path fill="none" stroke="rgb(179,179,179)" stroke-linejoin="round" d="M 12408,21851 L 12408,21701"/>
 <path fill="none" stroke="rgb(179,179,179)" stroke-linejoin="round" d="M 12512,21851 L 12512,21701"/>
 <path fill="none" stroke="rgb(179,179,179)" stroke-linejoin="round" d="M 12512,21851 L 12512,21701"/>
 <path fill="none" stroke="rgb(179,179,179)" stroke-linejoin="round" d="M 12616,21851 L 12616,21701"/>
 <path fill="none" stroke="rgb(179,179,179)" stroke-linejoin="round" d="M 12616,21851 L 12616,21701"/>
 <path fill="none" stroke="rgb(179,179,179)" stroke-linejoin="round" d="M 12720,21851 L 12720,21701"/>
 <path fill="none" stroke="rgb(179,179,179)" stroke-linejoin="round" d="M 12720,21851 L 12720,21701"/>
 <path fill="none" stroke="rgb(179,179,179)" stroke-linejoin="round" d="M 12823,21851 L 12823,21701"/>
 <path fill="none" stroke="rgb(179,179,179)" stroke-linejoin="round" d="M 12823,21851 L 12823,21701"/>
 <path fill="none" stroke="rgb(179,179,179)" stroke-linejoin="round" d="M 12927,21851 L 12927,21701"/>
 <path fill="none" stroke="rgb(179,179,179)" stroke-linejoin="round" d="M 12927,21851 L 12927,21701"/>
 <path fill="none" stroke="rgb(179,179,179)" stroke-linejoin="round" d="M 13031,21851 L 13031,21701"/>
 <path fill="none" stroke="rgb(179,179,179)" stroke-linejoin="round" d="M 13031,21851 L 13031,21701"/>
 <path fill="none" stroke="rgb(179,179,179)" stroke-linejoin="round" d="M 13135,21851 L 13135,21701"/>
 <path fill="none" stroke="rgb(179,179,179)" stroke-linejoin="round" d="M 13135,21851 L 13135,21701"/>
 <path fill="none" stroke="rgb(179,179,179)" stroke-linejoin="round" d="M 13238,21851 L 13238,21701"/>
 <path fill="none" stroke="rgb(179,179,179)" stroke-linejoin="round" d="M 13238,21851 L 13238,21701"/>
 <path fill="none" stroke="rgb(179,179,179)" stroke-linejoin="round" d="M 13342,21851 L 13342,21701"/>
 <path fill="none" stroke="rgb(179,179,179)" stroke-linejoin="round" d="M 13342,21851 L 13342,21701"/>
 <path fill="none" stroke="rgb(179,179,179)" stroke-linejoin="round" d="M 13446,21851 L 13446,21701"/>
 <path fill="none" stroke="rgb(179,179,179)" stroke-linejoin="round" d="M 13446,21851 L 13446,21701"/>
 <path fill="none" stroke="rgb(179,179,179)" stroke-linejoin="round" d="M 13550,21851 L 13550,21701"/>
 <path fill="none" stroke="rgb(179,179,179)" stroke-linejoin="round" d="M 13550,21851 L 13550,21701"/>
 <path fill="none" stroke="rgb(179,179,179)" stroke-linejoin="round" d="M 13654,21851 L 13654,21701"/>
 <path fill="none" stroke="rgb(179,179,179)" stroke-linejoin="round" d="M 13654,21851 L 13654,21701"/>
 <path fill="none" stroke="rgb(179,179,179)" stroke-linejoin="round" d="M 13757,21851 L 13757,21701"/>
 <path fill="none" stroke="rgb(179,179,179)" stroke-linejoin="round" d="M 13757,21851 L 13757,21701"/>
 <path fill="none" stroke="rgb(179,179,179)" stroke-linejoin="round" d="M 13861,21851 L 13861,21701"/>
 <path fill="none" stroke="rgb(179,179,179)" stroke-linejoin="round" d="M 13861,21851 L 13861,21701"/>
 <path fill="none" stroke="rgb(179,179,179)" stroke-linejoin="round" d="M 13965,21851 L 13965,21701"/>
 <path fill="none" stroke="rgb(179,179,179)" stroke-linejoin="round" d="M 13965,21851 L 13965,21701"/>
 <path fill="none" stroke="rgb(179,179,179)" stroke-linejoin="round" d="M 14069,21851 L 14069,21701"/>
 <path fill="none" stroke="rgb(179,179,179)" stroke-linejoin="round" d="M 14069,21851 L 14069,21701"/>
 <path fill="none" stroke="rgb(179,179,179)" stroke-linejoin="round" d="M 14173,21851 L 14173,21701"/>
 <path fill="none" stroke="rgb(179,179,179)" stroke-linejoin="round" d="M 14173,21851 L 14173,21701"/>
 <path fill="none" stroke="rgb(179,179,179)" stroke-linejoin="round" d="M 14276,21851 L 14276,21701"/>
 <path fill="none" stroke="rgb(179,179,179)" stroke-linejoin="round" d="M 14276,21851 L 14276,21701"/>
 <path fill="none" stroke="rgb(179,179,179)" stroke-linejoin="round" d="M 14380,21851 L 14380,21701"/>
 <path fill="none" stroke="rgb(179,179,179)" stroke-linejoin="round" d="M 14380,21851 L 14380,21701"/>
 <path fill="none" stroke="rgb(179,179,179)" stroke-linejoin="round" d="M 14484,21851 L 14484,21701"/>
 <path fill="none" stroke="rgb(179,179,179)" stroke-linejoin="round" d="M 14484,21851 L 14484,21701"/>
 <path fill="none" stroke="rgb(179,179,179)" stroke-linejoin="round" d="M 14588,21851 L 14588,21701"/>
 <path fill="none" stroke="rgb(179,179,179)" stroke-linejoin="round" d="M 14588,21851 L 14588,21701"/>
 <path fill="none" stroke="rgb(179,179,179)" stroke-linejoin="round" d="M 14692,21851 L 14692,21701"/>
 <path fill="none" stroke="rgb(179,179,179)" stroke-linejoin="round" d="M 14692,21851 L 14692,21701"/>
 <path fill="none" stroke="rgb(179,179,179)" stroke-linejoin="round" d="M 14795,21851 L 14795,21701"/>
 <path fill="none" stroke="rgb(179,179,179)" stroke-linejoin="round" d="M 14795,21851 L 14795,21701"/>
 <path fill="none" stroke="rgb(179,179,179)" stroke-linejoin="round" d="M 14899,21851 L 14899,21701"/>
 <path fill="none" stroke="rgb(179,179,179)" stroke-linejoin="round" d="M 14899,21851 L 14899,21701"/>
 <path fill="none" stroke="rgb(179,179,179)" stroke-linejoin="round" d="M 15003,21851 L 15003,21701"/>
 <path fill="none" stroke="rgb(179,179,179)" stroke-linejoin="round" d="M 15003,21851 L 15003,21701"/>
 <path fill="none" stroke="rgb(179,179,179)" stroke-linejoin="round" d="M 15107,21851 L 15107,21701"/>
 <path fill="none" stroke="rgb(179,179,179)" stroke-linejoin="round" d="M 15107,21851 L 15107,21701"/>
 <path fill="none" stroke="rgb(179,179,179)" stroke-linejoin="round" d="M 15210,21851 L 15210,21701"/>
 <path fill="none" stroke="rgb(179,179,179)" stroke-linejoin="round" d="M 15210,21851 L 15210,21701"/>
 <path fill="none" stroke="rgb(179,179,179)" stroke-linejoin="round" d="M 15314,21851 L 15314,21701"/>
 <path fill="none" stroke="rgb(179,179,179)" stroke-linejoin="round" d="M 15314,21851 L 15314,21701"/>
 <path fill="none" stroke="rgb(179,179,179)" stroke-linejoin="round" d="M 15418,21851 L 15418,21701"/>
 <path fill="none" stroke="rgb(179,179,179)" stroke-linejoin="round" d="M 15418,21851 L 15418,21701"/>
 <path fill="none" stroke="rgb(179,179,179)" stroke-linejoin="round" d="M 15522,21851 L 15522,21701"/>
 <path fill="none" stroke="rgb(179,179,179)" stroke-linejoin="round" d="M 15522,21851 L 15522,21701"/>
 <path fill="none" stroke="rgb(179,179,179)" stroke-linejoin="round" d="M 15626,21851 L 15626,21701"/>
 <path fill="none" stroke="rgb(179,179,179)" stroke-linejoin="round" d="M 15626,21851 L 15626,21701"/>
 <path fill="none" stroke="rgb(179,179,179)" stroke-linejoin="round" d="M 15729,21851 L 15729,21701"/>
 <path fill="none" stroke="rgb(179,179,179)" stroke-linejoin="round" d="M 15729,21851 L 15729,21701"/>
 <path fill="none" stroke="rgb(179,179,179)" stroke-linejoin="round" d="M 15833,21851 L 15833,21701"/>
 <path fill="none" stroke="rgb(179,179,179)" stroke-linejoin="round" d="M 15833,21851 L 15833,21701"/>
 <path fill="none" stroke="rgb(179,179,179)" stroke-linejoin="round" d="M 15937,21851 L 15937,21701"/>
 <path fill="none" stroke="rgb(179,179,179)" stroke-linejoin="round" d="M 15937,21851 L 15937,21701"/>
 <path fill="none" stroke="rgb(179,179,179)" stroke-linejoin="round" d="M 16041,21851 L 16041,21701"/>
 <path fill="none" stroke="rgb(179,179,179)" stroke-linejoin="round" d="M 16041,21851 L 16041,21701"/>
 <path fill="none" stroke="rgb(179,179,179)" stroke-linejoin="round" d="M 16145,21851 L 16145,21701"/>
 <path fill="none" stroke="rgb(179,179,179)" stroke-linejoin="round" d="M 16145,21851 L 16145,21701"/>
 <path fill="none" stroke="rgb(179,179,179)" stroke-linejoin="round" d="M 16248,21851 L 16248,21701"/>
 <path fill="none" stroke="rgb(179,179,179)" stroke-linejoin="round" d="M 16248,21851 L 16248,21701"/>
 <path fill="none" stroke="rgb(179,179,179)" stroke-linejoin="round" d="M 16352,21851 L 16352,21701"/>
 <path fill="none" stroke="rgb(179,179,179)" stroke-linejoin="round" d="M 16352,21851 L 16352,21701"/>
 <path fill="none" stroke="rgb(179,179,179)" stroke-linejoin="round" d="M 16456,21851 L 16456,21701"/>
 <path fill="none" stroke="rgb(179,179,179)" stroke-linejoin="round" d="M 16456,21851 L 16456,21701"/>
 <path fill="none" stroke="rgb(179,179,179)" stroke-linejoin="round" d="M 16560,21851 L 16560,21701"/>
 <path fill="none" stroke="rgb(179,179,179)" stroke-linejoin="round" d="M 16560,21851 L 16560,21701"/>
 <path fill="none" stroke="rgb(179,179,179)" stroke-linejoin="round" d="M 16664,21851 L 16664,21701"/>
 <path fill="none" stroke="rgb(179,179,179)" stroke-linejoin="round" d="M 16664,21851 L 16664,21701"/>
 <path fill="none" stroke="rgb(179,179,179)" stroke-linejoin="round" d="M 16767,21851 L 16767,21701"/>
 <path fill="none" stroke="rgb(179,179,179)" stroke-linejoin="round" d="M 16767,21851 L 16767,21701"/>
 <path fill="none" stroke="rgb(179,179,179)" stroke-linejoin="round" d="M 16871,21851 L 16871,21701"/>
 <path fill="none" stroke="rgb(179,179,179)" stroke-linejoin="round" d="M 16871,21851 L 16871,21701"/>
 <path fill="none" stroke="rgb(179,179,179)" stroke-linejoin="round" d="M 16975,21851 L 16975,21701"/>
 <path fill="none" stroke="rgb(179,179,179)" stroke-linejoin="round" d="M 16975,21851 L 16975,21701"/>
 <path fill="none" stroke="rgb(179,179,179)" stroke-linejoin="round" d="M 17079,21851 L 17079,21701"/>
 <path fill="none" stroke="rgb(179,179,179)" stroke-linejoin="round" d="M 17079,21851 L 17079,21701"/>
 <path fill="none" stroke="rgb(179,179,179)" stroke-linejoin="round" d="M 17182,21851 L 17182,21701"/>
 <path fill="none" stroke="rgb(179,179,179)" stroke-linejoin="round" d="M 17182,21851 L 17182,21701"/>
 <path fill="none" stroke="rgb(179,179,179)" stroke-linejoin="round" d="M 17286,21851 L 17286,21701"/>
 <path fill="none" stroke="rgb(179,179,179)" stroke-linejoin="round" d="M 17286,21851 L 17286,21701"/>
 <path fill="none" stroke="rgb(179,179,179)" stroke-linejoin="round" d="M 17390,21851 L 17390,21701"/>
 <path fill="none" stroke="rgb(179,179,179)" stroke-linejoin="round" d="M 17390,21851 L 17390,21701"/>
 <path fill="none" stroke="rgb(179,179,179)" stroke-linejoin="round" d="M 17494,21851 L 17494,21701"/>
 <path fill="none" stroke="rgb(179,179,179)" stroke-linejoin="round" d="M 17494,21851 L 17494,21701"/>
 <path fill="none" stroke="rgb(179,179,179)" stroke-linejoin="round" d="M 17598,21851 L 17598,21701"/>
 <path fill="none" stroke="rgb(179,179,179)" stroke-linejoin="round" d="M 17598,21851 L 17598,21701"/>
 <path fill="none" stroke="rgb(179,179,179)" stroke-linejoin="round" d="M 17701,21851 L 17701,21701"/>
 <path fill="none" stroke="rgb(179,179,179)" stroke-linejoin="round" d="M 17701,21851 L 17701,21701"/>
 <path fill="none" stroke="rgb(179,179,179)" stroke-linejoin="round" d="M 17805,21851 L 17805,21701"/>
 <path fill="none" stroke="rgb(179,179,179)" stroke-linejoin="round" d="M 17805,21851 L 17805,21701"/>
 <path fill="none" stroke="rgb(179,179,179)" stroke-linejoin="round" d="M 17909,21851 L 17909,21701"/>
 <path fill="none" stroke="rgb(179,179,179)" stroke-linejoin="round" d="M 17909,21851 L 17909,21701"/>
 <path fill="none" stroke="rgb(179,179,179)" stroke-linejoin="round" d="M 18013,21851 L 18013,21701"/>
 <path fill="none" stroke="rgb(179,179,179)" stroke-linejoin="round" d="M 18013,21851 L 18013,21701"/>
 <path fill="none" stroke="rgb(179,179,179)" stroke-linejoin="round" d="M 18117,21851 L 18117,21701"/>
 <path fill="none" stroke="rgb(179,179,179)" stroke-linejoin="round" d="M 18117,21851 L 18117,21701"/>
 <path fill="none" stroke="rgb(179,179,179)" stroke-linejoin="round" d="M 18220,21851 L 18220,21701"/>
 <path fill="none" stroke="rgb(179,179,179)" stroke-linejoin="round" d="M 18220,21851 L 18220,21701"/>
 <path fill="none" stroke="rgb(179,179,179)" stroke-linejoin="round" d="M 18324,21851 L 18324,21701"/>
 <path fill="none" stroke="rgb(179,179,179)" stroke-linejoin="round" d="M 18324,21851 L 18324,21701"/>
 <path fill="none" stroke="rgb(179,179,179)" stroke-linejoin="round" d="M 18428,21851 L 18428,21701"/>
 <path fill="none" stroke="rgb(179,179,179)" stroke-linejoin="round" d="M 18428,21851 L 18428,21701"/>
 <path fill="none" stroke="rgb(179,179,179)" stroke-linejoin="round" d="M 18532,21851 L 18532,21701"/>
 <path fill="none" stroke="rgb(179,179,179)" stroke-linejoin="round" d="M 18532,21851 L 18532,21701"/>
 <path fill="none" stroke="rgb(179,179,179)" stroke-linejoin="round" d="M 18636,21851 L 18636,21701"/>
 <path fill="none" stroke="rgb(179,179,179)" stroke-linejoin="round" d="M 18636,21851 L 18636,21701"/>
 <path fill="none" stroke="rgb(179,179,179)" stroke-linejoin="round" d="M 1408,21701 L 18636,21701"/>
 <path fill="none" stroke="rgb(179,179,179)" stroke-linejoin="round" d="M 1258,21701 L 1408,21701"/>
 <path fill="none" stroke="rgb(179,179,179)" stroke-linejoin="round" d="M 1258,21701 L 1408,21701"/>
 <path fill="none" stroke="rgb(179,179,179)" stroke-linejoin="round" d="M 1258,19202 L 1408,19202"/>
 <path fill="none" stroke="rgb(179,179,179)" stroke-linejoin="round" d="M 1258,19202 L 1408,19202"/>
 <path fill="none" stroke="rgb(179,179,179)" stroke-linejoin="round" d="M 1258,16703 L 1408,16703"/>
 <path fill="none" stroke="rgb(179,179,179)" stroke-linejoin="round" d="M 1258,16703 L 1408,16703"/>
 <path fill="none" stroke="rgb(179,179,179)" stroke-linejoin="round" d="M 1258,14204 L 1408,14204"/>
 <path fill="none" stroke="rgb(179,179,179)" stroke-linejoin="round" d="M 1258,14204 L 1408,14204"/>
 <path fill="none" stroke="rgb(179,179,179)" stroke-linejoin="round" d="M 1258,11706 L 1408,11706"/>
 <path fill="none" stroke="rgb(179,179,179)" stroke-linejoin="round" d="M 1258,11706 L 1408,11706"/>
 <path fill="none" stroke="rgb(179,179,179)" stroke-linejoin="round" d="M 1258,9207 L 1408,9207"/>
 <path fill="none" stroke="rgb(179,179,179)" stroke-linejoin="round" d="M 1258,9207 L 1408,9207"/>
 <path fill="none" stroke="rgb(179,179,179)" stroke-linejoin="round" d="M 1258,6708 L 1408,6708"/>
 <path fill="none" stroke="rgb(179,179,179)" stroke-linejoin="round" d="M 1258,6708 L 1408,6708"/>
 <path fill="none" stroke="rgb(179,179,179)" stroke-linejoin="round" d="M 1258,4209 L 1408,4209"/>
 <path fill="none" stroke="rgb(179,179,179)" stroke-linejoin="round" d="M 1258,4209 L 1408,4209"/>
 <path fill="none" stroke="rgb(179,179,179)" stroke-linejoin="round" d="M 1258,1711 L 1408,1711"/>
 <path fill="none" stroke="rgb(179,179,179)" stroke-linejoin="round" d="M 1258,1711 L 1408,1711"/>
 <path fill="none" stroke="rgb(179,179,179)" stroke-linejoin="round" d="M 1408,21701 L 1408,1711"/>
 <path fill="none" stroke="rgb(131,202,255)" stroke-width="80" stroke-linejoin="round" d="M 6193,1711 L 6234,1868 6337,2285 6441,3297 6545,3667 6649,3747 6753,4023 6856,4166 6960,4512 7064,5791 7168,6150 7272,6459 7375,6958 7479,7181 7583,7288 7687,7534 7791,7888 7894,8103 7998,8559 8102,8776 8206,8962 8309,9138 8413,9277 8517,9487 8621,9636 8725,9779 8828,9918 8932,10038 9036,10129 9140,10316 9244,10465 9347,10703 9451,10836 9555,10995 9659,11099 9763,11137 9866,11234 9970,11267 10074,11302 10178,11395 10281,11455 10385,11486 10489,11512 10593,11613 10697,11669 10800,11735 10904,11820 11008,11898 11112,11968 11216,11996 11319,12069 11423,12107 11527,12146 11631,12205 11735,12220 11837,12236 11941,12258 12045,12312 12149,12397 12252,12419 12356,12455 12460,12500 12564,12509 12668,12523 12771,12567 12875,12584 12979,12594 13083,12608 13187,12625 13290,12631 13394,12635 13498,12655 13602,12689 13706,12702 13809,12713 13913,12725 14017,12739 14121,12744 14224,12755 14328,12777 14432,12783 14536,12791 14640,12802 14743,12808 14847,12814 14951,12822 15055,12829 15159,12836 15262,12850 15366,12855 15470,12859 15574,12864 15678,12869 15781,12879 15885,12912 15989,12918 16093,12928 16196,12936 16300,12939 16404,12945 16508,12952 16612,12965 16715,12979 16819,12989 16923,12995 17027,13000 17131,13008 17234,13015 17338,13024 17442,13040 17546,13015 17650,13020 17753,13027 17857,13033 17961,13046 18065,13053 18168,13062 18272,13071 18376,13081 18480,13088 18584,13102"/>
 <path fill="none" stroke="rgb(0,169,51)" stroke-width="80" stroke-linejoin="round" stroke-dasharray="80,40" d="M 2082,9207 L 2144,1711"/>
 <path fill="none" stroke="rgb(0,169,51)" stroke-width="80" stroke-linejoin="round" stroke-dasharray="80,40" d="M 3615,1711 L 3639,16963 3743,15463 3847,14279 3950,11832 4054,10569 4158,7964 4262,6385 4365,3305 4418,1711"/>
 <path fill="none" stroke="rgb(0,169,51)" stroke-width="80" stroke-linejoin="round" stroke-dasharray="80,40" d="M 4482,1711 L 4573,13352 4677,12697 4781,11370 4884,11142 4988,10271 5092,8860 5196,6414 5300,8651 5403,8156 5507,5397 5611,3248 5696,1711"/>
 <path fill="none" stroke="rgb(0,169,51)" stroke-width="80" stroke-linejoin="round" stroke-dasharray="80,40" d="M 5842,1711 L 5922,12577 6026,13618 6130,13813 6234,14836 6337,14123 6441,13567 6545,13738 6649,13378 6753,13695 6856,13260 6960,14247 7064,14100 7168,13378 7272,13926 7375,14022 7479,13766 7583,13970 7687,14135 7791,13886 7894,13843 7998,13877 8102,13784 8206,13937 8309,14170 8413,14114 8517,13778 8621,13597 8725,13422 8828,13624 8932,13835 9036,13986 9140,13839 9244,13719 9347,13635 9451,13726 9555,13721 9659,13918 9763,14113 9866,14079 9970,13635 10074,13314 10178,13245 10281,13347 10385,13528 10489,13686 10593,13633 10697,13529 10800,13502 10904,13552 11008,13599 11112,13717 11216,13876 11319,13770 11423,13654 11527,13623 11631,13639 11735,13764 11837,13590 11941,13603 12045,13567 12149,13514 12252,13480 12356,13485 12460,13497 12564,13612 12668,13734 12771,13749 12875,13719 12979,13762 13083,13823 13187,13947 13290,14041 13394,14107 13498,14061 13602,14053 13706,14071 13809,14118 13913,14149 14017,14253 14121,14313 14224,14315 14328,14392 14432,14413 14536,14454 14640,14535 14743,14019 14847,14200 14951,14150 15055,14080 15159,14097 15262,14180 15366,14195 15470,14306 15574,14459 15678,14422 15781,14493 15885,14518 15989,14567 16093,14616 16196,14734 16300,14911 16404,14868 16508,14835 16612,14789 16715,14772 16819,14809 16923,14902 17027,14963 17131,14916 17234,14890 17338,14904 17442,14893 17546,14943 17650,15015 17753,15086 17857,15045 17961,15033 18065,15029 18168,15056 18272,15054 18376,15103 18480,15183 18584,15155"/>
 <path fill="none" stroke="rgb(141,40,30)" stroke-width="80" stroke-linejoin="round" stroke-dasharray="80,40" d="M 6624,1711 L 6649,1918 6753,2131 6856,2510 6960,2163 7037,1711"/>
 <path fill="none" stroke="rgb(141,40,30)" stroke-width="80" stroke-linejoin="round" stroke-dasharray="80,40" d="M 7290,1711 L 7375,2482 7479,2599 7583,3740 7687,3197 7791,3834 7894,3689 7998,3665 8102,4623 8206,4728 8309,5245 8413,5330 8517,5336 8621,5354 8725,7587 8828,7865 8932,7988 9036,8369 9140,8477 9244,8507 9347,8638 9451,8701 9555,8896 9659,9645 9763,9914 9866,9945 9970,10217 10074,10248 10178,10308 10281,10447 10385,10526 10489,10738 10593,10780 10697,10871 10800,10925 10904,10989 11008,11098 11112,11169 11216,11400 11319,11455 11423,11542 11527,11600 11631,11671 11735,11796 11837,11847 11941,12094 12045,12138 12149,12205 12252,12269 12356,12325 12460,12406 12564,12467 12668,12704 12771,12845 12875,12912 12979,13450 13083,13496 13187,14435 13290,14518 13394,14634 13498,14662 13602,14742 13706,14803 13809,14859 13913,14910 14017,14960 14121,15108 14224,15172 14328,15289 14432,15333 14536,15386 14640,15435 14743,15462 14847,15595 14951,15662 15055,15755 15159,15818 15262,15906 15366,15951 15470,16015 15574,16092 15678,16164 15781,16248 15885,16300 15989,16347 16093,16396 16196,16407 16300,16546 16404,16553 16508,16669 16612,16695 16715,16735 16819,16760 16923,16786 17027,16811 17131,16906 17234,16969 17338,16994 17442,17014 17546,17043 17650,17064 17753,17133 17857,17177 17961,17205 18065,17228 18168,17240 18272,17261 18376,17277 18480,17317 18584,17357"/>
 <path fill="none" stroke="rgb(85,48,141)" stroke-width="80" stroke-linejoin="round" stroke-dasharray="80,40" d="M 1459,15453 L 1563,15453 1667,15453 1756,1711"/>
 <path fill="none" stroke="rgb(85,48,141)" stroke-width="80" stroke-linejoin="round" stroke-dasharray="80,40" d="M 2594,1711 L 2601,9889 2705,13507 2809,11380 2912,11159 3016,15158 3120,14837 3224,13121 3328,18530 3431,17586 3535,17697 3639,17587 3743,17473 3847,17403 3950,16497 4054,16757 4158,16804 4262,16831 4365,16946 4469,16740 4573,16691 4677,16669 4781,16216 4884,16082 4988,15212 5092,15274 5196,15314 5300,15098 5403,14819 5507,14462 5611,14515 5715,14113 5819,13776 5922,13676 6026,13746 6130,13928 6234,13948 6337,13943 6441,13979 6545,13935 6649,13969 6753,14090 6856,14015 6960,13946 7064,13958 7168,13944 7272,13938 7375,13990 7479,13932 7583,13956 7687,13922 7791,13993 7894,13960 7998,14011 8102,14038 8206,14050 8309,14112 8413,14182 8517,14166 8621,14195 8725,14240 8828,14240 8932,14279 9036,14252 9140,14259 9244,14270 9347,14270 9451,14332 9555,14326 9659,14212 9763,14313 9866,14333 9970,14346 10074,14310 10178,14376 10281,14447 10385,14500 10489,14557 10593,14602 10697,14679 10800,14762 10904,14822 11008,14867 11112,14931 11216,15010 11319,15022 11423,15136 11527,15149 11631,15167 11735,15174 11837,15204 11941,15241 12045,15268 12149,15283 12252,15298 12356,15324 12460,15346 12564,15364 12668,15424 12771,15446 12875,15451 12979,15478 13083,15494 13187,15511 13290,15529 13394,15555 13498,15567 13602,15585 13706,15602 13809,15624 13913,15646 14017,15652 14121,15683 14224,15704 14328,15724 14432,15741 14536,17183 14640,17186 14743,17190 14847,17205 14951,17215 15055,17224 15159,17240 15262,17263 15366,17272 15470,17278 15574,17294 15678,17298 15781,17309 15885,17318 15989,17339 16093,17343 16196,17347 16300,17348 16404,17376 16508,17386 16612,17397 16715,17414 16819,17416 16923,17421 17027,17522 17131,17536 17234,17544 17338,17555 17442,17568 17546,17576 17650,17585 17753,17594 17857,17611 17961,17626 18065,17634 18168,17649 18272,17655 18376,17661 18480,17679 18584,17689"/>
 <path fill="none" stroke="rgb(0,169,51)" stroke-width="80" stroke-linejoin="round" stroke-dasharray="158,102" d="M 1459,13019 L 1563,11382 1667,13817 1771,12413 1875,12538 1978,11176 2082,10463 2186,11084 2290,11516 2393,11083 2497,10283 2601,10857 2705,10917 2809,11024 2912,11026 3016,10931 3120,11053 3224,11797 3328,11819 3431,11895 3535,12250 3639,12521 3743,12959 3847,12577 3950,13990 4054,14544 4158,15007 4262,15343 4365,15737 4469,16509 4573,16606 4677,16717 4781,16838 4884,16919 4988,17041 5092,17117 5196,17210 5300,17215 5403,17308 5507,17358 5611,17432 5715,17476 5819,17518 5922,17560 6026,17604 6130,17610 6234,17646 6337,17666 6441,17689 6545,17712 6649,17723 6753,17747 6856,17748 6960,17763 7064,17769 7168,17783 7272,17801 7375,17829 7479,17848 7583,17879 7687,17892 7791,17910 7894,17917 7998,17944 8102,17978 8206,18003 8309,18014 8413,18039 8517,18067 8621,18098 8725,18133 8828,18167 8932,18197 9036,18243 9140,18272 9244,18300 9347,18327 9451,18362 9555,18392 9659,18422 9763,18447 9866,18476 9970,18502 10074,18536 10178,18567 10281,18593 10385,18620 10489,18640 10593,18659 10697,18677 10800,18693 10904,18709 11008,18727 11112,18730 11216,18730 11319,18733 11423,18735 11527,18749 11631,18752 11735,18756 11837,18761 11941,18775 12045,18787 12149,18798 12252,18809 12356,18823 12460,18833 12564,18836 12668,18836 12771,18836 12875,18840 12979,18841 13083,18836 13187,18835 13290,18828 13394,18828 13498,18820 13602,18817 13706,18802 13809,18807 13913,18799 14017,18786 14121,18774 14224,18770 14328,18755 14432,18751 14536,18741 14640,18731 14743,18719 14847,18702 14951,18683 15055,18669 15159,18653 15262,18634 15366,18621 15470,18602 15574,18584 15678,18561 15781,18548 15885,18530 15989,18521 16093,18508 16196,18496 16300,18482 16404,18470 16508,18464 16612,18463 16715,18461 16819,18465 16923,18462 17027,18455 17131,18445 17234,18431 17338,18421 17442,18412 17546,18405 17650,18401 17753,18392 17857,18383 17961,18376 18065,18372 18168,18371 18272,18371 18376,18367 18480,18366 18584,18364"/>
 <path fill="none" stroke="rgb(0,255,0)" stroke-width="80" stroke-linejoin="round" d="M 2893,1711 L 2912,14155 3016,13077 3120,12300 3224,11860 3328,9831 3431,13480 3535,15025 3639,15605 3743,16512 3847,16130 3950,16955 4054,16986 4158,17136 4262,17231 4365,17189 4469,17421 4573,17348 4677,17549 4781,17418 4884,17680 4988,17674 5092,17657 5196,17702 5300,17789 5403,17861 5507,17893 5611,17911 5715,17942 5819,17919 5922,17949 6026,18010 6130,17952 6234,17943 6337,17906 6441,17991 6545,18033 6649,18062 6753,18106 6856,18162 6960,18169 7064,18190 7168,18208 7272,18210 7375,18236 7479,18257 7583,18260 7687,18219 7791,18252 7894,18248 7998,18237 8102,18273 8206,18282 8309,18285 8413,18289 8517,18299 8621,18301 8725,18292 8828,18300 8932,18311 9036,18310 9140,18307 9244,18315 9347,18312 9451,18312 9555,18323 9659,18334 9763,18334 9866,18334 9970,18344 10074,18344 10178,18344 10281,18355 10385,18355 10489,18352 10593,18333 10697,18329 10800,18339 10904,18337 11008,18337 11112,18337 11216,18347 11319,18321 11423,18318 11527,18318 11631,18318 11735,18318 11837,18330 11941,18330 12045,18330 12149,18326 12252,18326 12356,18319 12460,18331 12564,18331 12668,18331 12771,18341 12875,18337 12979,18337 13083,18337 13187,18337 13290,18349 13394,18349 13498,18347 13602,18358 13706,18358 13809,18358 13913,18366 14017,18378 14121,18378 14224,18400 14328,18400 14432,18409 14536,18409 14640,18409 14743,18453 14847,18449 14951,18448 15055,18469 15159,18464 15262,18461 15366,18461 15470,18482 15574,18501 15678,18512 15781,18520 15885,18519 15989,18517 16093,18537 16196,18557 16300,18557 16404,18567 16508,18563 16612,18561 16715,18560 16819,18589 16923,18628 17027,18636 17131,18631 17234,18658 17338,18658 17442,18676 17546,18703 17650,18712 17753,18712 17857,18729 17961,18723 18065,18755 18168,18752 18272,18769 18376,18793 18480,18793 18584,18792"/>
 <path fill="none" stroke="rgb(191,0,65)" stroke-width="80" stroke-linejoin="round" stroke-dasharray="51,127,51,127,254,127,254,127,254,127" d="M 1459,6708 L 1524,1711"/>
 <path fill="none" stroke="rgb(191,0,65)" stroke-width="80" stroke-linejoin="round" stroke-dasharray="51,127,51,127,254,127,254,127,254,127" d="M 1698,1711 L 1771,9586 1875,11241 1978,10837 2082,7074 2186,5042 2290,11579 2393,10445 2497,7294 2601,5280 2705,4127 2809,1913 2912,4650 3016,3086 3120,3843 3202,1711"/>
 <path fill="none" stroke="rgb(191,0,65)" stroke-width="80" stroke-linejoin="round" stroke-dasharray="51,127,51,127,254,127,254,127,254,127" d="M 4222,1711 L 4262,2355 4365,3397 4469,3848 4573,4627 4677,5343 4781,6136 4884,7665 4988,8774 5092,9656 5196,10257 5300,10444 5403,10885 5507,11389 5611,12007 5715,12322 5819,12925 5922,13027 6026,13233 6130,13407 6234,13585 6337,13859 6441,14249 6545,14440 6649,14557 6753,14710 6856,14840 6960,14973 7064,15211 7168,15358 7272,15575 7375,15726 7479,15745 7583,15804 7687,15989 7791,16051 7894,16337 7998,16415 8102,16471 8206,16540 8309,16714 8413,16756 8517,16814 8621,16944 8725,17003 8828,17073 8932,17112 9036,17119 9140,17220 9244,17273 9347,17366 9451,17374 9555,17417 9659,17452 9763,17471 9866,17474 9970,17505 10074,17536 10178,17546 10281,17582 10385,17605 10489,17623 10593,17619 10697,17633 10800,17664 10904,17672 11008,17685 11112,17672 11216,17674 11319,17697 11423,17699 11527,17698 11631,17724 11735,17742 11837,17777 11941,17801 12045,17818 12149,17838 12252,17893 12356,17923 12460,17981 12564,18011 12668,18017 12771,18023 12875,18047 12979,18049 13083,18059 13187,18083 13290,18110 13394,18119 13498,18128 13602,18162 13706,18190 13809,18216 13913,18242 14017,18267 14121,18287 14224,18283 14328,18321 14432,18341 14536,18367 14640,18381 14743,18392 14847,18404 14951,18470 15055,18483 15159,18506 15262,18536 15366,18551 15470,18621 15574,18623 15678,18624 15781,18621 15885,18619 15989,18622 16093,18630 16196,18627 16300,18630 16404,18627 16508,18628 16612,18637 16715,18646 16819,18650 16923,18646 17027,18649 17131,18649 17234,18663 17338,18663 17442,18679 17546,18680 17650,18673 17753,18686 17857,18699 17961,18717 18065,18728 18168,18733 18272,18748 18376,18750 18480,18749 18584,18748"/>
 <path fill="none" stroke="rgb(21,132,102)" stroke-width="80" stroke-linejoin="round" stroke-dasharray="80,203,80,203,203,203" d="M 1459,17850 L 1563,17688 1667,17447 1771,17124 1875,16781 1978,16389 2082,15838 2186,15158 2290,14531 2393,14117 2497,13175 2601,12884 2705,12109 2809,11534 2912,10868 3016,10203 3120,9767 3224,9618 3328,9159 3431,8694 3535,8241 3639,7827 3743,7784 3847,7556 3950,7337 4054,7118 4158,7359 4262,7297 4365,7162 4469,7347 4573,7323 4677,7547 4781,7560 4884,7753 4988,7869 5092,7720 5196,7734 5300,8079 5403,8118 5507,8281 5611,8377 5715,8433 5819,8850 5922,8945 6026,9148 6130,9280 6234,9375 6337,9567 6441,10052 6545,10230 6649,10411 6753,10584 6856,10733 6960,10821 7064,10959 7168,11082 7272,11166 7375,11425 7479,11545 7583,11755 7687,11816 7791,12005 7894,12084 7998,12207 8102,12404 8206,12531 8309,12711 8413,12837 8517,12985 8621,13093 8725,13421 8828,13544 8932,13682 9036,13885 9140,13982 9244,14079 9347,14195 9451,14334 9555,14457 9659,14613 9763,14701 9866,14877 9970,14969 10074,15042 10178,15118 10281,15210 10385,15281 10489,15520 10593,15599 10697,15665 10800,15745 10904,15817 11008,15898 11112,15962 11216,16037 11319,16091 11423,16191 11527,16239 11631,16289 11735,16384 11837,16422 11941,16489 12045,16550 12149,16621 12252,16670 12356,16730 12460,16791 12564,16846 12668,16898 12771,16956 12875,17012 12979,17200 13083,17242 13187,17350 13290,17406 13394,17460 13498,17509 13602,17569 13706,17611 13809,17655 13913,17694 14017,17729 14121,17779 14224,17817 14328,17863 14432,17901 14536,17947 14640,17983 14743,17998 14847,18044 14951,18083 15055,18117 15159,18130 15262,18187 15366,18240 15470,18272 15574,18306 15678,18334 15781,18369 15885,18413 15989,18446 16093,18477 16196,18498 16300,18543 16404,18575 16508,18605 16612,18628 16715,18652 16819,18680 16923,18706 17027,18726 17131,18772 17234,18802 17338,18815 17442,18838 17546,18854 17650,18887 17753,18915 17857,18936 17961,18954 18065,18973 18168,18985 18272,19004 18376,19031 18480,19051 18584,19070"/>
 <path fill="none" stroke="rgb(0,0,0)" stroke-width="80" stroke-linejoin="round" d="M 1459,14095 L 1563,11922 1667,9750 1771,9021 1875,3799 1978,8374 2082,2241 2186,3099 2290,3684 2393,4040 2438,1711"/>
 <path fill="none" stroke="rgb(0,0,0)" stroke-width="80" stroke-linejoin="round" d="M 2513,1711 L 2601,19281 2705,18798 2809,19348 2912,19133 3016,19149 3120,18809 3224,19313 3328,19295 3431,19242 3535,19235 3639,19108 3743,18967 3847,18942 3950,18549 4054,18908 4158,19165 4262,19214 4365,19135 4469,19318 4573,19196 4677,19218 4781,19287 4884,19082 4988,19071 5092,19084 5196,19091 5300,19096 5403,19045 5507,19058 5611,19046 5715,19003 5819,19079 5922,19025 6026,19034 6130,19027 6234,19013 6337,19016 6441,19020 6545,19048 6649,19061 6753,19073 6856,19067 6960,19114 7064,19102 7168,19093 7272,19052 7375,19068 7479,19081 7583,19071 7687,19073 7791,19058 7894,19079 7998,19097 8102,19101 8206,19117 8309,19121 8413,19106 8517,19107 8621,19107 8725,19115 8828,19116 8932,19118 9036,19124 9140,19117 9244,19114 9347,19109 9451,19113 9555,19115 9659,19119 9763,19119 9866,19132 9970,19133 10074,19130 10178,19132 10281,19135 10385,19136 10489,19138 10593,19134 10697,19137 10800,19136 10904,19142 11008,19145 11112,19145 11216,19152 11319,19150 11423,19152 11527,19149 11631,19148 11735,19155 11837,19156 11941,19161 12045,19167 12149,19171 12252,19173 12356,19171 12460,19176 12564,19178 12668,19177 12771,19178 12875,19190 12979,19197 13083,19203 13187,19210 13290,19219 13394,19225 13498,19229 13602,19232 13706,19237 13809,19239 13913,19240 14017,19242 14121,19250 14224,19249 14328,19261 14432,19264 14536,19270 14640,19273 14743,19276 14847,19284 14951,19284 15055,19289 15159,19293 15262,19298 15366,19300 15470,19301 15574,19304 15678,19308 15781,19314 15885,19315 15989,19319 16093,19326 16196,19329 16300,19337 16404,19342 16508,19343 16612,19351 16715,19355 16819,19361 16923,19363 17027,19370 17131,19380 17234,19387 17338,19393 17442,19399 17546,19401 17650,19406 17753,19418 17857,19433 17961,19440 18065,19446 18168,19460 18272,19468 18376,19472 18480,19479 18584,19495"/>
 <path fill="none" stroke="rgb(180,120,4)" stroke-width="80" stroke-linejoin="round" d="M 3403,1711 L 3431,16348 3535,16455 3639,16303 3743,15866 3847,15440 3950,15424 4054,15442 4158,15521 4262,15410 4365,15301 4469,15545 4573,15745 4677,15773 4781,16143 4884,16421 4988,16692 5092,16998 5196,17411 5300,17601 5403,17657 5507,17918 5611,18063 5715,18167 5819,18176 5922,18134 6026,18182 6130,18229 6234,18265 6337,18324 6441,18349 6545,18380 6649,18349 6753,18333 6856,18318 6960,18345 7064,18412 7168,18452 7272,18490 7375,18530 7479,18559 7583,18576 7687,18700 7791,18694 7894,18720 7998,18770 8102,18784 8206,18800 8309,18817 8413,18836 8517,18856 8621,18851 8725,18886 8828,18906 8932,18919 9036,18932 9140,18953 9244,18960 9347,18965 9451,18981 9555,18989 9659,18984 9763,18987 9866,18988 9970,19004 10074,19012 10178,19002 10281,19014 10385,19013 10489,19004 10593,19018 10697,19031 10800,19044 10904,19048 11008,19045 11112,19053 11216,19053 11319,19062 11423,19075 11527,19080 11631,19089 11735,19089 11837,19089 11941,19095 12045,19101 12149,19107 12252,19116 12356,19122 12460,19122 12564,19122 12668,19141 12771,19149 12875,19154 12979,19170 13083,19180 13187,19180 13290,19180 13394,19201 13498,19202 13602,19206 13706,19215 13809,19222 13913,19222 14017,19222 14121,19228 14224,19234 14328,19239 14432,19241 14536,19240 14640,19240 14743,19240 14847,19248 14951,19250 15055,19253 15159,19254 15262,19258 15366,19258 15470,19258 15574,19273 15678,19279 15781,19282 15885,19285 15989,19295 16093,19295 16196,19296 16300,19312 16404,19318 16508,19325 16612,19327 16715,19337 16819,19337 16923,19341 17027,19345 17131,19354 17234,19368 17338,19379 17442,19394 17546,19404 17650,19415 17753,19428 17857,19448 17961,19471 18065,19493 18168,19524 18272,19520 18376,19556 18480,19577 18584,19600"/>
 <path fill="none" stroke="rgb(255,64,0)" stroke-width="80" stroke-linejoin="round" stroke-dasharray="80,40" d="M 4809,1711 L 4884,15515 4988,14845 5092,14072 5196,13313 5300,16140 5403,15858 5507,15742 5611,15964 5715,15436 5819,15007 5922,14747 6026,14596 6130,14313 6234,13895 6337,13628 6441,13348 6545,13276 6649,13446 6753,13504 6856,13664 6960,13473 7064,13345 7168,13403 7272,13258 7375,13067 7479,13143 7583,13058 7687,13122 7791,13263 7894,12898 7998,12900 8102,12971 8206,13142 8309,13316 8413,13285 8517,13623 8621,13746 8725,13933 8828,13985 8932,14144 9036,14075 9140,13976 9244,14024 9347,14172 9451,14347 9555,14527 9659,14608 9763,14612 9866,14728 9970,14883 10074,15032 10178,15143 10281,15221 10385,15284 10489,16794 10593,16862 10697,16909 10800,16944 10904,17004 11008,17053 11112,17084 11216,17102 11319,17086 11423,17239 11527,17237 11631,17265 11735,17370 11837,17401 11941,17442 12045,17511 12149,17627 12252,17658 12356,17719 12460,17781 12564,17840 12668,17855 12771,17922 12875,17994 12979,18471 13083,18494 13187,18459 13290,18550 13394,18620 13498,18687 13602,18721 13706,18749 13809,18810 13913,18829 14017,18852 14121,18882 14224,18901 14328,18911 14432,18958 14536,18977 14640,18981 14743,18978 14847,19056 14951,19082 15055,19102 15159,19107 15262,19185 15366,19281 15470,19302 15574,19329 15678,19333 15781,19358 15885,19370 15989,19400 16093,19406 16196,19421 16300,19446 16404,19481 16508,19481 16612,19494 16715,19510 16819,19537 16923,19558 17027,19573 17131,19598 17234,19623 17338,19610 17442,19666 17546,19657 17650,19670 17753,19691 17857,19704 17961,19719 18065,19727 18168,19717 18272,19741 18376,19755 18480,19764 18584,19779"/>
 <path fill="none" stroke="rgb(0,169,51)" stroke-width="80" stroke-linejoin="round" d="M 1459,13371 L 1563,13371 1667,13371 1740,1711"/>
 <path fill="none" stroke="rgb(0,169,51)" stroke-width="80" stroke-linejoin="round" d="M 2830,1711 L 2912,8818 3016,6597 3120,12728 3224,13214 3328,15858 3431,16619 3535,17186 3639,17548 3743,17993 3847,18300 3950,18525 4054,18699 4158,18677 4262,18887 4365,19071 4469,19150 4573,19197 4677,19196 4781,19186 4884,19275 4988,19420 5092,19481 5196,19533 5300,19549 5403,19491 5507,19464 5611,19450 5715,19470 5819,19469 5922,19487 6026,19495 6130,19481 6234,19440 6337,19432 6441,19439 6545,19455 6649,19441 6753,19441 6856,19449 6960,19451 7064,19473 7168,19479 7272,19483 7375,19494 7479,19493 7583,19497 7687,19500 7791,19520 7894,19529 7998,19532 8102,19536 8206,19542 8309,19549 8413,19549 8517,19575 8621,19585 8725,19585 8828,19577 8932,19577 9036,19584 9140,19584 9244,19584 9347,19516 9451,19525 9555,19549 9659,19559 9763,19560 9866,19561 9970,19564 10074,19570 10178,19567 10281,19573 10385,19574 10489,19580 10593,19585 10697,19586 10800,19588 10904,19590 11008,19587 11112,19594 11216,19591 11319,19585 11423,19568 11527,19565 11631,19570 11735,19575 11837,19571 11941,19577 12045,19571 12149,19573 12252,19563 12356,19567 12460,19564 12564,19561 12668,19561 12771,19562 12875,19564 12979,19567 13083,19573 13187,19579 13290,19577 13394,19581 13498,19586 13602,19590 13706,19595 13809,19601 13913,19608 14017,19613 14121,19619 14224,19625 14328,19634 14432,19640 14536,19651 14640,19670 14743,19681 14847,19688 14951,19698 15055,19710 15159,19720 15262,19731 15366,19737 15470,19746 15574,19748 15678,19762 15781,19769 15885,19774 15989,19788 16093,19803 16196,19810 16300,19818 16404,19842 16508,19854 16612,19867 16715,19873 16819,19882 16923,19892 17027,19895 17131,19905 17234,19915 17338,19920 17442,19933 17546,19937 17650,19941 17753,19946 17857,19955 17961,19962 18065,19973 18168,19984 18272,19991 18376,20004 18480,20009 18584,20027"/>
 <path fill="none" stroke="rgb(255,0,0)" stroke-width="80" stroke-linejoin="round" stroke-dasharray="158,102" d="M 4401,1711 L 4469,3143 4573,4327 4677,5333 4781,7090 4884,8331 4988,10118 5092,11458 5196,12664 5300,13283 5403,13737 5507,14133 5611,14494 5715,14968 5819,15723 5922,16414 6026,16890 6130,17411 6234,17847 6337,18204 6441,18456 6545,18674 6649,18839 6753,19012 6856,19163 6960,19300 7064,19410 7168,19508 7272,19567 7375,19612 7479,19659 7583,19696 7687,19733 7791,19759 7894,19775 7998,19791 8102,19807 8206,19819 8309,19832 8413,19842 8517,19849 8621,19854 8725,19860 8828,19870 8932,19873 9036,19881 9140,19892 9244,19897 9347,19908 9451,19919 9555,19924 9659,19927 9763,19932 9866,19937 9970,19940 10074,19945 10178,19959 10281,19976 10385,20001 10489,20035 10593,20066 10697,20085 10800,20091 10904,20099 11008,20105 11112,20114 11216,20118 11319,20123 11423,20129 11527,20137 11631,20144 11735,20150 11837,20157 11941,20162 12045,20166 12149,20171 12252,20179 12356,20187 12460,20199 12564,20207 12668,20213 12771,20219 12875,20233 12979,20241 13083,20247 13187,20251 13290,20255 13394,20269 13498,20282 13602,20293 13706,20309 13809,20314 13913,20318 14017,20323 14121,20326 14224,20328 14328,20331 14432,20333 14536,20335 14640,20339 14743,20342 14847,20344 14951,20347 15055,20350 15159,20353 15262,20356 15366,20359 15470,20361 15574,20364 15678,20367 15781,20370 15885,20373 15989,20375 16093,20376 16196,20378 16300,20380 16404,20382 16508,20384 16612,20387 16715,20389 16819,20392 16923,20395 17027,20399 17131,20403 17234,20404 17338,20405 17442,20405 17546,20406 17650,20408 17753,20409 17857,20410 17961,20410 18065,20411 18168,20411 18272,20410 18376,20411 18480,20411 18584,20411"/>
 <path fill="none" stroke="rgb(255,211,32)" stroke-width="80" stroke-linejoin="round" d="M 2393,13371 L 2497,13371 2601,6708 2636,1711"/>
 <path fill="none" stroke="rgb(255,211,32)" stroke-width="80" stroke-linejoin="round" d="M 4207,1711 L 4262,3105 4365,4513 4469,6015 4573,6838 4677,7931 4781,9168 4884,11572 4988,13011 5092,14336 5196,14328 5300,14539 5403,15481 5507,15970 5611,16474 5715,16824 5819,17190 5922,17259 6026,17380 6130,17757 6234,17852 6337,18050 6441,18141 6545,18143 6649,18163 6753,18245 6856,18392 6960,18494 7064,18587 7168,18613 7272,18609 7375,18599 7479,18573 7583,18709 7687,18808 7791,18829 7894,18906 7998,18961 8102,18972 8206,18974 8309,19069 8413,19065 8517,19094 8621,19120 8725,19112 8828,19104 8932,19110 9036,19138 9140,19174 9244,19213 9347,19233 9451,19248 9555,19265 9659,19262 9763,19285 9866,19286 9970,19294 10074,19308 10178,19325 10281,19327 10385,19329 10489,19357 10593,19376 10697,19381 10800,19413 10904,19422 11008,19430 11112,19425 11216,19440 11319,19452 11423,19451 11527,19457 11631,19460 11735,19455 11837,19461 11941,19472 12045,19458 12149,19441 12252,19446 12356,19426 12460,19430 12564,19443 12668,19455 12771,19456 12875,19463 12979,19445 13083,19453 13187,19466 13290,19489 13394,19479 13498,19483 13602,19510 13706,19536 13809,19557 13913,19562 14017,19567 14121,19593 14224,19599 14328,19615 14432,19647 14536,19650 14640,19652 14743,19653 14847,19670 14951,19683 15055,19711 15159,19745 15262,19743 15366,19777 15470,20078 15574,20069 15678,20065 15781,20065 15885,20051 15989,20050 16093,20049 16196,20047 16300,20053 16404,20080 16508,20072 16612,20118 16715,20176 16819,20177 16923,20176 17027,20199 17131,20223 17234,20243 17338,20261 17442,20266 17546,20266 17650,20263 17753,20337 17857,20377 17961,20407 18065,20423 18168,20420 18272,20424 18376,20424 18480,20434 18584,20453"/>
 <path fill="none" stroke="rgb(128,0,128)" stroke-width="80" stroke-linejoin="round" stroke-dasharray="158,158" d="M 1593,1711 L 1667,14012 1771,14012 1875,10992 1978,10992 2082,8374 2186,9207 2290,13009 2393,8744 2497,3191 2601,9207 2705,7754 2781,1711"/>
 <path fill="none" stroke="rgb(128,0,128)" stroke-width="80" stroke-linejoin="round" stroke-dasharray="158,158" d="M 2836,1711 L 2912,8009 3016,7422 3120,7497 3224,6022 3328,7480 3431,2116 3535,2862 3639,2960 3743,2933 3787,1711"/>
 <path fill="none" stroke="rgb(128,0,128)" stroke-width="80" stroke-linejoin="round" stroke-dasharray="158,158" d="M 3895,1711 L 3950,3576 4054,3895 4158,4120 4262,3484 4365,5817 4469,6848 4573,6384 4677,6552 4781,7249 4884,7567 4988,9038 5092,9801 5196,11130 5300,11912 5403,12661 5507,13591 5611,13912 5715,14511 5819,14610 5922,14758 6026,14951 6130,15125 6234,15198 6337,15309 6441,15340 6545,15593 6649,15589 6753,15797 6856,15608 6960,15717 7064,15882 7168,16073 7272,16154 7375,16260 7479,16428 7583,16616 7687,16758 7791,16871 7894,16967 7998,17153 8102,17508 8206,17592 8309,17680 8413,17800 8517,17922 8621,18011 8725,18107 8828,18146 8932,18215 9036,18266 9140,18323 9244,18356 9347,18381 9451,18688 9555,18720 9659,18758 9763,18773 9866,18796 9970,18777 10074,18768 10178,18766 10281,18776 10385,18792 10489,18807 10593,18824 10697,18706 10800,18815 10904,18824 11008,18870 11112,18898 11216,18952 11319,18518 11423,18553 11527,18631 11631,18674 11735,18792 11837,18814 11941,18879 12045,18904 12149,18961 12252,19023 12356,19051 12460,19103 12564,19141 12668,19179 12771,19201 12875,19224 12979,19304 13083,19336 13187,19347 13290,19382 13394,19410 13498,19442 13602,19484 13706,19522 13809,19555 13913,19581 14017,19608 14121,19625 14224,19648 14328,19669 14432,19688 14536,19692 14640,19722 14743,19738 14847,19764 14951,19794 15055,19794 15159,19829 15262,19856 15366,19891 15470,19916 15574,19945 15678,19971 15781,19987 15885,20009 15989,20033 16093,20071 16196,20094 16300,20119 16404,20149 16508,20169 16612,20192 16715,20211 16819,20237 16923,20256 17027,20272 17131,20296 17234,20315 17338,20330 17442,20346 17546,20359 17650,20375 17753,20392 17857,20403 17961,20417 18065,20431 18168,20446 18272,20458 18376,20470 18480,20487 18584,20494"/>
 <path fill="none" stroke="rgb(0,0,255)" stroke-width="80" stroke-linejoin="round" stroke-dasharray="158,158" d="M 1459,15233 L 1563,14645 1667,14351 1771,18404 1875,18823 1978,18974 2082,18747 2186,18650 2290,18390 2393,19793 2497,19793 2601,19990 2705,20012 2809,20121 2912,20166 3016,20205 3120,20191 3224,20190 3328,20203 3431,20219 3535,20251 3639,20256 3743,20302 3847,20285 3950,20292 4054,20267 4158,20225 4262,20238 4365,20240 4469,20245 4573,20249 4677,20244 4781,20228 4884,20224 4988,20225 5092,20232 5196,20240 5300,20246 5403,20247 5507,20258 5611,20263 5715,20290 5819,20311 5922,20313 6026,20315 6130,20323 6234,20323 6337,20338 6441,20334 6545,20331 6649,20340 6753,20334 6856,20333 6960,20335 7064,20342 7168,20351 7272,20363 7375,20369 7479,20372 7583,20367 7687,20365 7791,20369 7894,20377 7998,20371 8102,20376 8206,20373 8309,20378 8413,20395 8517,20399 8621,20402 8725,20396 8828,20399 8932,20396 9036,20392 9140,20395 9244,20400 9347,20403 9451,20408 9555,20404 9659,20401 9763,20399 9866,20397 9970,20401 10074,20402 10178,20405 10281,20407 10385,20409 10489,20407 10593,20401 10697,20406 10800,20403 10904,20406 11008,20409 11112,20410 11216,20409 11319,20406 11423,20405 11527,20409 11631,20411 11735,20413 11837,20414 11941,20413 12045,20416 12149,20416 12252,20439 12356,20455 12460,20460 12564,20467 12668,20479 12771,20487 12875,20494 12979,20502 13083,20503 13187,20505 13290,20503 13394,20505 13498,20511 13602,20507 13706,20508 13809,20515 13913,20514 14017,20517 14121,20525 14224,20531 14328,20527 14432,20525 14536,20527 14640,20526 14743,20524 14847,20530 14951,20532 15055,20537 15159,20539 15262,20543 15366,20545 15470,20543 15574,20548 15678,20553 15781,20559 15885,20559 15989,20564 16093,20566 16196,20568 16300,20574 16404,20575 16508,20583 16612,20582 16715,20586 16819,20583 16923,20584 17027,20590 17131,20595 17234,20597 17338,20601 17442,20604 17546,20605 17650,20605 17753,20603 17857,20609 17961,20609 18065,20607 18168,20611 18272,20613 18376,20614 18480,20616 18584,20615"/>
 <path fill="none" stroke="rgb(0,223,255)" stroke-width="80" stroke-linejoin="round" stroke-dasharray="158,102" d="M 2082,16147 L 2186,16147 2290,17536 2393,18577 2497,18577 2601,19429 2705,16530 2809,17755 2912,17258 3016,17621 3120,15453 3224,14885 3328,14679 3431,15388 3535,15320 3639,15653 3743,15247 3847,15365 3950,15915 4054,15833 4158,16272 4262,16259 4365,15791 4469,16631 4573,16668 4677,16669 4781,16685 4884,16718 4988,16668 5092,16433 5196,16583 5300,16218 5403,15827 5507,15816 5611,15900 5715,16029 5819,16180 5922,16255 6026,16184 6130,16299 6234,16576 6337,16978 6441,17085 6545,17281 6649,17633 6753,17856 6856,17955 6960,18050 7064,18099 7168,18289 7272,18464 7375,18840 7479,18911 7583,19178 7687,19270 7791,19398 7894,19548 7998,19625 8102,19693 8206,19749 8309,19763 8413,19838 8517,19961 8621,20029 8725,20074 8828,20132 8932,20139 9036,20172 9140,20250 9244,20306 9347,20330 9451,20328 9555,20341 9659,20336 9763,20320 9866,20353 9970,20370 10074,20385 10178,20401 10281,20407 10385,20408 10489,20406 10593,20433 10697,20443 10800,20450 10904,20454 11008,20457 11112,20460 11216,20454 11319,20463 11423,20472 11527,20481 11631,20492 11735,20505 11837,20507 11941,20509 12045,20528 12149,20546 12252,20554 12356,20558 12460,20560 12564,20564 12668,20565 12771,20572 12875,20574 12979,20572 13083,20575 13187,20579 13290,20574 13394,20568 13498,20570 13602,20572 13706,20574 13809,20574 13913,20575 14017,20570 14121,20566 14224,20568 14328,20576 14432,20578 14536,20577 14640,20581 14743,20579 14847,20578 14951,20582 15055,20587 15159,20590 15262,20593 15366,20596 15470,20595 15574,20594 15678,20598 15781,20599 15885,20605 15989,20607 16093,20614 16196,20614 16300,20614 16404,20616 16508,20618 16612,20621 16715,20624 16819,20625 16923,20624 17027,20624 17131,20625 17234,20627 17338,20627 17442,20629 17546,20630 17650,20631 17753,20632 17857,20632 17961,20634 18065,20636 18168,20638 18272,20639 18376,20638 18480,20638 18584,20639"/>
 <text class="TextShape" transform="rotate(-90 1553 22672)"><tspan class="TextParagraph" font-family="Liberation Sans, sans-serif" font-size="282px" font-weight="400"><tspan class="TextPosition" x="1553" y="22672"><tspan fill="rgb(0,0,0)" stroke="none">13.03</tspan></tspan></tspan></text>
 <text class="TextShape" transform="rotate(-90 1969 22672)"><tspan class="TextParagraph" font-family="Liberation Sans, sans-serif" font-size="282px" font-weight="400"><tspan class="TextPosition" x="1969" y="22672"><tspan fill="rgb(0,0,0)" stroke="none">17.03</tspan></tspan></tspan></text>
 <text class="TextShape" transform="rotate(-90 2384 22672)"><tspan class="TextParagraph" font-family="Liberation Sans, sans-serif" font-size="282px" font-weight="400"><tspan class="TextPosition" x="2384" y="22672"><tspan fill="rgb(0,0,0)" stroke="none">21.03</tspan></tspan></tspan></text>
 <text class="TextShape" transform="rotate(-90 2799 22672)"><tspan class="TextParagraph" font-family="Liberation Sans, sans-serif" font-size="282px" font-weight="400"><tspan class="TextPosition" x="2799" y="22672"><tspan fill="rgb(0,0,0)" stroke="none">25.03</tspan></tspan></tspan></text>
 <text class="TextShape" transform="rotate(-90 3214 22672)"><tspan class="TextParagraph" font-family="Liberation Sans, sans-serif" font-size="282px" font-weight="400"><tspan class="TextPosition" x="3214" y="22672"><tspan fill="rgb(0,0,0)" stroke="none">29.03</tspan></tspan></tspan></text>
 <text class="TextShape" transform="rotate(-90 3629 22672)"><tspan class="TextParagraph" font-family="Liberation Sans, sans-serif" font-size="282px" font-weight="400"><tspan class="TextPosition" x="3629" y="22672"><tspan fill="rgb(0,0,0)" stroke="none">02.04</tspan></tspan></tspan></text>
 <text class="TextShape" transform="rotate(-90 4044 22672)"><tspan class="TextParagraph" font-family="Liberation Sans, sans-serif" font-size="282px" font-weight="400"><tspan class="TextPosition" x="4044" y="22672"><tspan fill="rgb(0,0,0)" stroke="none">06.04</tspan></tspan></tspan></text>
 <text class="TextShape" transform="rotate(-90 4459 22672)"><tspan class="TextParagraph" font-family="Liberation Sans, sans-serif" font-size="282px" font-weight="400"><tspan class="TextPosition" x="4459" y="22672"><tspan fill="rgb(0,0,0)" stroke="none">10.04</tspan></tspan></tspan></text>
 <text class="TextShape" transform="rotate(-90 4875 22672)"><tspan class="TextParagraph" font-family="Liberation Sans, sans-serif" font-size="282px" font-weight="400"><tspan class="TextPosition" x="4875" y="22672"><tspan fill="rgb(0,0,0)" stroke="none">14.04</tspan></tspan></tspan></text>
 <text class="TextShape" transform="rotate(-90 5290 22672)"><tspan class="TextParagraph" font-family="Liberation Sans, sans-serif" font-size="282px" font-weight="400"><tspan class="TextPosition" x="5290" y="22672"><tspan fill="rgb(0,0,0)" stroke="none">18.04</tspan></tspan></tspan></text>
 <text class="TextShape" transform="rotate(-90 5705 22672)"><tspan class="TextParagraph" font-family="Liberation Sans, sans-serif" font-size="282px" font-weight="400"><tspan class="TextPosition" x="5705" y="22672"><tspan fill="rgb(0,0,0)" stroke="none">22.04</tspan></tspan></tspan></text>
 <text class="TextShape" transform="rotate(-90 6120 22672)"><tspan class="TextParagraph" font-family="Liberation Sans, sans-serif" font-size="282px" font-weight="400"><tspan class="TextPosition" x="6120" y="22672"><tspan fill="rgb(0,0,0)" stroke="none">26.04</tspan></tspan></tspan></text>
 <text class="TextShape" transform="rotate(-90 6535 22672)"><tspan class="TextParagraph" font-family="Liberation Sans, sans-serif" font-size="282px" font-weight="400"><tspan class="TextPosition" x="6535" y="22672"><tspan fill="rgb(0,0,0)" stroke="none">30.04</tspan></tspan></tspan></text>
 <text class="TextShape" transform="rotate(-90 6950 22672)"><tspan class="TextParagraph" font-family="Liberation Sans, sans-serif" font-size="282px" font-weight="400"><tspan class="TextPosition" x="6950" y="22672"><tspan fill="rgb(0,0,0)" stroke="none">04.05</tspan></tspan></tspan></text>
 <text class="TextShape" transform="rotate(-90 7366 22672)"><tspan class="TextParagraph" font-family="Liberation Sans, sans-serif" font-size="282px" font-weight="400"><tspan class="TextPosition" x="7366" y="22672"><tspan fill="rgb(0,0,0)" stroke="none">08.05</tspan></tspan></tspan></text>
 <text class="TextShape" transform="rotate(-90 7781 22672)"><tspan class="TextParagraph" font-family="Liberation Sans, sans-serif" font-size="282px" font-weight="400"><tspan class="TextPosition" x="7781" y="22672"><tspan fill="rgb(0,0,0)" stroke="none">12.05</tspan></tspan></tspan></text>
 <text class="TextShape" transform="rotate(-90 8196 22672)"><tspan class="TextParagraph" font-family="Liberation Sans, sans-serif" font-size="282px" font-weight="400"><tspan class="TextPosition" x="8196" y="22672"><tspan fill="rgb(0,0,0)" stroke="none">16.05</tspan></tspan></tspan></text>
 <text class="TextShape" transform="rotate(-90 8611 22672)"><tspan class="TextParagraph" font-family="Liberation Sans, sans-serif" font-size="282px" font-weight="400"><tspan class="TextPosition" x="8611" y="22672"><tspan fill="rgb(0,0,0)" stroke="none">20.05</tspan></tspan></tspan></text>
 <text class="TextShape" transform="rotate(-90 9026 22672)"><tspan class="TextParagraph" font-family="Liberation Sans, sans-serif" font-size="282px" font-weight="400"><tspan class="TextPosition" x="9026" y="22672"><tspan fill="rgb(0,0,0)" stroke="none">24.05</tspan></tspan></tspan></text>
 <text class="TextShape" transform="rotate(-90 9441 22672)"><tspan class="TextParagraph" font-family="Liberation Sans, sans-serif" font-size="282px" font-weight="400"><tspan class="TextPosition" x="9441" y="22672"><tspan fill="rgb(0,0,0)" stroke="none">28.05</tspan></tspan></tspan></text>
 <text class="TextShape" transform="rotate(-90 9857 22672)"><tspan class="TextParagraph" font-family="Liberation Sans, sans-serif" font-size="282px" font-weight="400"><tspan class="TextPosition" x="9857" y="22672"><tspan fill="rgb(0,0,0)" stroke="none">01.06</tspan></tspan></tspan></text>
 <text class="TextShape" transform="rotate(-90 10272 22672)"><tspan class="TextParagraph" font-family="Liberation Sans, sans-serif" font-size="282px" font-weight="400"><tspan class="TextPosition" x="10272" y="22672"><tspan fill="rgb(0,0,0)" stroke="none">05.06</tspan></tspan></tspan></text>
 <text class="TextShape" transform="rotate(-90 10687 22672)"><tspan class="TextParagraph" font-family="Liberation Sans, sans-serif" font-size="282px" font-weight="400"><tspan class="TextPosition" x="10687" y="22672"><tspan fill="rgb(0,0,0)" stroke="none">09.06</tspan></tspan></tspan></text>
 <text class="TextShape" transform="rotate(-90 11102 22672)"><tspan class="TextParagraph" font-family="Liberation Sans, sans-serif" font-size="282px" font-weight="400"><tspan class="TextPosition" x="11102" y="22672"><tspan fill="rgb(0,0,0)" stroke="none">13.06</tspan></tspan></tspan></text>
 <text class="TextShape" transform="rotate(-90 11517 22672)"><tspan class="TextParagraph" font-family="Liberation Sans, sans-serif" font-size="282px" font-weight="400"><tspan class="TextPosition" x="11517" y="22672"><tspan fill="rgb(0,0,0)" stroke="none">17.06</tspan></tspan></tspan></text>
 <text class="TextShape" transform="rotate(-90 11931 22672)"><tspan class="TextParagraph" font-family="Liberation Sans, sans-serif" font-size="282px" font-weight="400"><tspan class="TextPosition" x="11931" y="22672"><tspan fill="rgb(0,0,0)" stroke="none">21.06</tspan></tspan></tspan></text>
 <text class="TextShape" transform="rotate(-90 12346 22672)"><tspan class="TextParagraph" font-family="Liberation Sans, sans-serif" font-size="282px" font-weight="400"><tspan class="TextPosition" x="12346" y="22672"><tspan fill="rgb(0,0,0)" stroke="none">25.06</tspan></tspan></tspan></text>
 <text class="TextShape" transform="rotate(-90 12762 22672)"><tspan class="TextParagraph" font-family="Liberation Sans, sans-serif" font-size="282px" font-weight="400"><tspan class="TextPosition" x="12762" y="22672"><tspan fill="rgb(0,0,0)" stroke="none">29.06</tspan></tspan></tspan></text>
 <text class="TextShape" transform="rotate(-90 13177 22672)"><tspan class="TextParagraph" font-family="Liberation Sans, sans-serif" font-size="282px" font-weight="400"><tspan class="TextPosition" x="13177" y="22672"><tspan fill="rgb(0,0,0)" stroke="none">03.07</tspan></tspan></tspan></text>
 <text class="TextShape" transform="rotate(-90 13592 22672)"><tspan class="TextParagraph" font-family="Liberation Sans, sans-serif" font-size="282px" font-weight="400"><tspan class="TextPosition" x="13592" y="22672"><tspan fill="rgb(0,0,0)" stroke="none">07.07</tspan></tspan></tspan></text>
 <text class="TextShape" transform="rotate(-90 14007 22672)"><tspan class="TextParagraph" font-family="Liberation Sans, sans-serif" font-size="282px" font-weight="400"><tspan class="TextPosition" x="14007" y="22672"><tspan fill="rgb(0,0,0)" stroke="none">11.07</tspan></tspan></tspan></text>
 <text class="TextShape" transform="rotate(-90 14422 22672)"><tspan class="TextParagraph" font-family="Liberation Sans, sans-serif" font-size="282px" font-weight="400"><tspan class="TextPosition" x="14422" y="22672"><tspan fill="rgb(0,0,0)" stroke="none">15.07</tspan></tspan></tspan></text>
 <text class="TextShape" transform="rotate(-90 14837 22672)"><tspan class="TextParagraph" font-family="Liberation Sans, sans-serif" font-size="282px" font-weight="400"><tspan class="TextPosition" x="14837" y="22672"><tspan fill="rgb(0,0,0)" stroke="none">19.07</tspan></tspan></tspan></text>
 <text class="TextShape" transform="rotate(-90 15253 22672)"><tspan class="TextParagraph" font-family="Liberation Sans, sans-serif" font-size="282px" font-weight="400"><tspan class="TextPosition" x="15253" y="22672"><tspan fill="rgb(0,0,0)" stroke="none">23.07</tspan></tspan></tspan></text>
 <text class="TextShape" transform="rotate(-90 15668 22672)"><tspan class="TextParagraph" font-family="Liberation Sans, sans-serif" font-size="282px" font-weight="400"><tspan class="TextPosition" x="15668" y="22672"><tspan fill="rgb(0,0,0)" stroke="none">27.07</tspan></tspan></tspan></text>
 <text class="TextShape" transform="rotate(-90 16083 22672)"><tspan class="TextParagraph" font-family="Liberation Sans, sans-serif" font-size="282px" font-weight="400"><tspan class="TextPosition" x="16083" y="22672"><tspan fill="rgb(0,0,0)" stroke="none">31.07</tspan></tspan></tspan></text>
 <text class="TextShape" transform="rotate(-90 16498 22672)"><tspan class="TextParagraph" font-family="Liberation Sans, sans-serif" font-size="282px" font-weight="400"><tspan class="TextPosition" x="16498" y="22672"><tspan fill="rgb(0,0,0)" stroke="none">04.08</tspan></tspan></tspan></text>
 <text class="TextShape" transform="rotate(-90 16913 22672)"><tspan class="TextParagraph" font-family="Liberation Sans, sans-serif" font-size="282px" font-weight="400"><tspan class="TextPosition" x="16913" y="22672"><tspan fill="rgb(0,0,0)" stroke="none">08.08</tspan></tspan></tspan></text>
 <text class="TextShape" transform="rotate(-90 17328 22672)"><tspan class="TextParagraph" font-family="Liberation Sans, sans-serif" font-size="282px" font-weight="400"><tspan class="TextPosition" x="17328" y="22672"><tspan fill="rgb(0,0,0)" stroke="none">12.08</tspan></tspan></tspan></text>
 <text class="TextShape" transform="rotate(-90 17744 22672)"><tspan class="TextParagraph" font-family="Liberation Sans, sans-serif" font-size="282px" font-weight="400"><tspan class="TextPosition" x="17744" y="22672"><tspan fill="rgb(0,0,0)" stroke="none">16.08</tspan></tspan></tspan></text>
 <text class="TextShape" transform="rotate(-90 18159 22672)"><tspan class="TextParagraph" font-family="Liberation Sans, sans-serif" font-size="282px" font-weight="400"><tspan class="TextPosition" x="18159" y="22672"><tspan fill="rgb(0,0,0)" stroke="none">20.08</tspan></tspan></tspan></text>
 <text class="TextShape" transform="rotate(-90 18574 22672)"><tspan class="TextParagraph" font-family="Liberation Sans, sans-serif" font-size="282px" font-weight="400"><tspan class="TextPosition" x="18574" y="22672"><tspan fill="rgb(0,0,0)" stroke="none">24.08</tspan></tspan></tspan></text>
 <text class="TextShape"><tspan class="TextParagraph" font-family="Liberation Sans, sans-serif" font-size="388px" font-weight="400"><tspan class="TextPosition" x="586" y="21834"><tspan fill="rgb(0,0,0)" stroke="none">0%</tspan></tspan></tspan></text>
 <text class="TextShape"><tspan class="TextParagraph" font-family="Liberation Sans, sans-serif" font-size="388px" font-weight="400"><tspan class="TextPosition" x="586" y="19335"><tspan fill="rgb(0,0,0)" stroke="none">5%</tspan></tspan></tspan></text>
 <text class="TextShape"><tspan class="TextParagraph" font-family="Liberation Sans, sans-serif" font-size="388px" font-weight="400"><tspan class="TextPosition" x="364" y="16836"><tspan fill="rgb(0,0,0)" stroke="none">10%</tspan></tspan></tspan></text>
 <text class="TextShape"><tspan class="TextParagraph" font-family="Liberation Sans, sans-serif" font-size="388px" font-weight="400"><tspan class="TextPosition" x="364" y="14337"><tspan fill="rgb(0,0,0)" stroke="none">15%</tspan></tspan></tspan></text>
 <text class="TextShape"><tspan class="TextParagraph" font-family="Liberation Sans, sans-serif" font-size="388px" font-weight="400"><tspan class="TextPosition" x="364" y="11838"><tspan fill="rgb(0,0,0)" stroke="none">20%</tspan></tspan></tspan></text>
 <text class="TextShape"><tspan class="TextParagraph" font-family="Liberation Sans, sans-serif" font-size="388px" font-weight="400"><tspan class="TextPosition" x="364" y="9339"><tspan fill="rgb(0,0,0)" stroke="none">25%</tspan></tspan></tspan></text>
 <text class="TextShape"><tspan class="TextParagraph" font-family="Liberation Sans, sans-serif" font-size="388px" font-weight="400"><tspan class="TextPosition" x="364" y="6840"><tspan fill="rgb(0,0,0)" stroke="none">30%</tspan></tspan></tspan></text>
 <text class="TextShape"><tspan class="TextParagraph" font-family="Liberation Sans, sans-serif" font-size="388px" font-weight="400"><tspan class="TextPosition" x="364" y="4341"><tspan fill="rgb(0,0,0)" stroke="none">35%</tspan></tspan></tspan></text>
 <text class="TextShape"><tspan class="TextParagraph" font-family="Liberation Sans, sans-serif" font-size="388px" font-weight="400"><tspan class="TextPosition" x="364" y="1843"><tspan fill="rgb(0,0,0)" stroke="none">40%</tspan></tspan></tspan></text>
 <text class="TextShape"><tspan class="TextParagraph" font-family="Liberation Sans, sans-serif" font-size="494px" font-weight="700"><tspan class="TextPosition" x="850" y="981"><tspan fill="rgb(0,0,0)" stroke="none">Pomr potu obt k potu vylench</tspan></tspan></tspan></text>
 <path fill="none" stroke="rgb(131,202,255)" stroke-width="80" stroke-linejoin="round" d="M 18829,2504 L 20429,2504"/>
 <path fill="none" stroke="rgb(0,169,51)" stroke-width="80" stroke-linejoin="round" stroke-dasharray="80,40" d="M 18829,3704 L 20429,3704"/>
 <path fill="none" stroke="rgb(141,40,30)" stroke-width="80" stroke-linejoin="round" stroke-dasharray="80,40" d="M 18829,4904 L 20429,4904"/>
 <path fill="none" stroke="rgb(85,48,141)" stroke-width="80" stroke-linejoin="round" stroke-dasharray="80,40" d="M 18829,6104 L 20429,6104"/>
 <path fill="none" stroke="rgb(0,169,51)" stroke-width="80" stroke-linejoin="round" stroke-dasharray="158,102" d="M 18829,7304 L 20429,7304"/>
 <path fill="none" stroke="rgb(0,255,0)" stroke-width="80" stroke-linejoin="round" d="M 18829,8504 L 20429,8504"/>
 <path fill="none" stroke="rgb(191,0,65)" stroke-width="80" stroke-linejoin="round" stroke-dasharray="51,127,51,127,254,127,254,127,254,127" d="M 18829,9704 L 20429,9704"/>
 <path fill="none" stroke="rgb(21,132,102)" stroke-width="80" stroke-linejoin="round" stroke-dasharray="80,203,80,203,203,203" d="M 18829,10904 L 20429,10904"/>
 <path fill="none" stroke="rgb(0,0,0)" stroke-width="80" stroke-linejoin="round" d="M 18829,12103 L 20429,12103"/>
 <path fill="none" stroke="rgb(180,120,4)" stroke-width="80" stroke-linejoin="round" d="M 18829,13303 L 20429,13303"/>
 <path fill="none" stroke="rgb(255,64,0)" stroke-width="80" stroke-linejoin="round" stroke-dasharray="80,40" d="M 18829,14503 L 20429,14503"/>
 <path fill="none" stroke="rgb(0,169,51)" stroke-width="80" stroke-linejoin="round" d="M 18829,15703 L 20429,15703"/>
 <path fill="none" stroke="rgb(255,0,0)" stroke-width="80" stroke-linejoin="round" stroke-dasharray="158,102" d="M 18829,16903 L 20429,16903"/>
 <path fill="none" stroke="rgb(255,211,32)" stroke-width="80" stroke-linejoin="round" d="M 18829,18103 L 20429,18103"/>
 <path fill="none" stroke="rgb(128,0,128)" stroke-width="80" stroke-linejoin="round" stroke-dasharray="158,158" d="M 18829,19303 L 20429,19303"/>
 <path fill="none" stroke="rgb(0,0,255)" stroke-width="80" stroke-linejoin="round" stroke-dasharray="158,158" d="M 18829,20503 L 20429,20503"/>
 <path fill="none" stroke="rgb(0,223,255)" stroke-width="80" stroke-linejoin="round" stroke-dasharray="158,102" d="M 18829,21703 L 20429,21703"/>
 <text class="TextShape"><tspan class="TextParagraph" font-family="Liberation Sans, sans-serif" font-size="423px" font-weight="400"><tspan class="TextPosition" x="20529" y="2652"><tspan fill="rgb(0,0,0)" stroke="none">Itlie</tspan></tspan></tspan></text>
 <text class="TextShape"><tspan class="TextParagraph" font-family="Liberation Sans, sans-serif" font-size="423px" font-weight="400"><tspan class="TextPosition" x="20529" y="3852"><tspan fill="rgb(0,0,0)" stroke="none">Mexiko</tspan></tspan></tspan></text>
 <text class="TextShape"><tspan class="TextParagraph" font-family="Liberation Sans, sans-serif" font-size="423px" font-weight="400"><tspan class="TextPosition" x="20529" y="5052"><tspan fill="rgb(0,0,0)" stroke="none">USA</tspan></tspan></tspan></text>
 <text class="TextShape"><tspan class="TextParagraph" font-family="Liberation Sans, sans-serif" font-size="423px" font-weight="400"><tspan class="TextPosition" x="20529" y="6252"><tspan fill="rgb(0,0,0)" stroke="none">Kanada</tspan></tspan></tspan></text>
 <text class="TextShape"><tspan class="TextParagraph" font-family="Liberation Sans, sans-serif" font-size="423px" font-weight="400"><tspan class="TextPosition" x="20529" y="7452"><tspan fill="rgb(0,0,0)" stroke="none">rn</tspan></tspan></tspan></text>
 <text class="TextShape"><tspan class="TextParagraph" font-family="Liberation Sans, sans-serif" font-size="423px" font-weight="400"><tspan class="TextPosition" x="20529" y="8652"><tspan fill="rgb(0,0,0)" stroke="none">vcarsko</tspan></tspan></tspan></text>
 <text class="TextShape"><tspan class="TextParagraph" font-family="Liberation Sans, sans-serif" font-size="423px" font-weight="400"><tspan class="TextPosition" x="20529" y="9852"><tspan fill="rgb(0,0,0)" stroke="none">EU_nov zem</tspan></tspan></tspan></text>
 <text class="TextShape"><tspan class="TextParagraph" font-family="Liberation Sans, sans-serif" font-size="423px" font-weight="400"><tspan class="TextPosition" x="20529" y="11052"><tspan fill="rgb(0,0,0)" stroke="none">celosvtov</tspan></tspan></tspan></text>
 <text class="TextShape"><tspan class="TextParagraph" font-family="Liberation Sans, sans-serif" font-size="423px" font-weight="400"><tspan class="TextPosition" x="20529" y="12251"><tspan fill="rgb(0,0,0)" stroke="none">Nmecko</tspan></tspan></tspan></text>
 <text class="TextShape"><tspan class="TextParagraph" font-family="Liberation Sans, sans-serif" font-size="423px" font-weight="400"><tspan class="TextPosition" x="20529" y="13451"><tspan fill="rgb(0,0,0)" stroke="none">Dnsko</tspan></tspan></tspan></text>
 <text class="TextShape"><tspan class="TextParagraph" font-family="Liberation Sans, sans-serif" font-size="423px" font-weight="400"><tspan class="TextPosition" x="20529" y="14651"><tspan fill="rgb(0,0,0)" stroke="none">Brazlie</tspan></tspan></tspan></text>
 <text class="TextShape"><tspan class="TextParagraph" font-family="Liberation Sans, sans-serif" font-size="423px" font-weight="400"><tspan class="TextPosition" x="20529" y="15851"><tspan fill="rgb(0,0,0)" stroke="none">Rakousko</tspan></tspan></tspan></text>
 <text class="TextShape"><tspan class="TextParagraph" font-family="Liberation Sans, sans-serif" font-size="423px" font-weight="400"><tspan class="TextPosition" x="20529" y="17051"><tspan fill="rgb(0,0,0)" stroke="none">Turecko</tspan></tspan></tspan></text>
 <text class="TextShape"><tspan class="TextParagraph" font-family="Liberation Sans, sans-serif" font-size="423px" font-weight="400"><tspan class="TextPosition" x="20529" y="18251"><tspan fill="rgb(0,0,0)" stroke="none">esko</tspan></tspan></tspan></text>
 <text class="TextShape"><tspan class="TextParagraph" font-family="Liberation Sans, sans-serif" font-size="423px" font-weight="400"><tspan class="TextPosition" x="20529" y="19451"><tspan fill="rgb(0,0,0)" stroke="none">Indie</tspan></tspan></tspan></text>
 <text class="TextShape"><tspan class="TextParagraph" font-family="Liberation Sans, sans-serif" font-size="423px" font-weight="400"><tspan class="TextPosition" x="20529" y="20651"><tspan fill="rgb(0,0,0)" stroke="none">Jin Korea</tspan></tspan></tspan></text>
 <text class="TextShape"><tspan class="TextParagraph" font-family="Liberation Sans, sans-serif" font-size="423px" font-weight="400"><tspan class="TextPosition" x="20529" y="21851"><tspan fill="rgb(0,0,0)" stroke="none">Rusko</tspan></tspan></tspan></text>
</svg>