<?xml version="1.0" encoding="UTF-8"?>
<!DOCTYPE svg PUBLIC "-//W3C//DTD SVG 1.1//EN" "http://www.w3.org/Graphics/SVG/1.1/DTD/svg11.dtd">
<svg width="236mm" height="250mm" viewBox="0 0 23600 25000" version="1.1" xmlns="http://www.w3.org/2000/svg" xmlns:xlink="http://www.w3.org/1999/xlink" stroke-width="28.222" stroke-linejoin="round" xml:space="preserve">
 <path fill="rgb(255,255,255)" stroke="none" d="M 11800,25000 L 0,25000 0,0 23600,0 23600,25000 11800,25000 Z"/>
 <path fill="none" stroke="rgb(179,179,179)" stroke-linejoin="round" d="M 10022,22797 L 1408,22797 1408,1799 18636,1799 18636,22797 10022,22797 Z"/>
 <path fill="none" stroke="rgb(179,179,179)" stroke-linejoin="round" d="M 18636,22796 L 1408,22796"/>
 <path fill="none" stroke="rgb(179,179,179)" stroke-linejoin="round" d="M 18636,20696 L 1408,20696"/>
 <path fill="none" stroke="rgb(179,179,179)" stroke-linejoin="round" d="M 18636,18596 L 1408,18596"/>
 <path fill="none" stroke="rgb(179,179,179)" stroke-linejoin="round" d="M 18636,16496 L 1408,16496"/>
 <path fill="none" stroke="rgb(179,179,179)" stroke-linejoin="round" d="M 18636,14396 L 1408,14396"/>
 <path fill="none" stroke="rgb(179,179,179)" stroke-linejoin="round" d="M 18636,12297 L 1408,12297"/>
 <path fill="none" stroke="rgb(179,179,179)" stroke-linejoin="round" d="M 18636,10197 L 1408,10197"/>
 <path fill="none" stroke="rgb(179,179,179)" stroke-linejoin="round" d="M 18636,8097 L 1408,8097"/>
 <path fill="none" stroke="rgb(179,179,179)" stroke-linejoin="round" d="M 18636,5997 L 1408,5997"/>
 <path fill="none" stroke="rgb(179,179,179)" stroke-linejoin="round" d="M 18636,3897 L 1408,3897"/>
 <path fill="none" stroke="rgb(179,179,179)" stroke-linejoin="round" d="M 18636,1798 L 1408,1798"/>
 <path fill="none" stroke="rgb(179,179,179)" stroke-linejoin="round" d="M 1408,22946 L 1408,22796"/>
 <path fill="none" stroke="rgb(179,179,179)" stroke-linejoin="round" d="M 1408,22946 L 1408,22796"/>
 <path fill="none" stroke="rgb(179,179,179)" stroke-linejoin="round" d="M 2217,22946 L 2217,22796"/>
 <path fill="none" stroke="rgb(179,179,179)" stroke-linejoin="round" d="M 2217,22946 L 2217,22796"/>
 <path fill="none" stroke="rgb(179,179,179)" stroke-linejoin="round" d="M 3026,22946 L 3026,22796"/>
 <path fill="none" stroke="rgb(179,179,179)" stroke-linejoin="round" d="M 3026,22946 L 3026,22796"/>
 <path fill="none" stroke="rgb(179,179,179)" stroke-linejoin="round" d="M 3836,22946 L 3836,22796"/>
 <path fill="none" stroke="rgb(179,179,179)" stroke-linejoin="round" d="M 3836,22946 L 3836,22796"/>
 <path fill="none" stroke="rgb(179,179,179)" stroke-linejoin="round" d="M 4645,22946 L 4645,22796"/>
 <path fill="none" stroke="rgb(179,179,179)" stroke-linejoin="round" d="M 4645,22946 L 4645,22796"/>
 <path fill="none" stroke="rgb(179,179,179)" stroke-linejoin="round" d="M 5455,22946 L 5455,22796"/>
 <path fill="none" stroke="rgb(179,179,179)" stroke-linejoin="round" d="M 5455,22946 L 5455,22796"/>
 <path fill="none" stroke="rgb(179,179,179)" stroke-linejoin="round" d="M 6264,22946 L 6264,22796"/>
 <path fill="none" stroke="rgb(179,179,179)" stroke-linejoin="round" d="M 6264,22946 L 6264,22796"/>
 <path fill="none" stroke="rgb(179,179,179)" stroke-linejoin="round" d="M 7073,22946 L 7073,22796"/>
 <path fill="none" stroke="rgb(179,179,179)" stroke-linejoin="round" d="M 7073,22946 L 7073,22796"/>
 <path fill="none" stroke="rgb(179,179,179)" stroke-linejoin="round" d="M 7883,22946 L 7883,22796"/>
 <path fill="none" stroke="rgb(179,179,179)" stroke-linejoin="round" d="M 7883,22946 L 7883,22796"/>
 <path fill="none" stroke="rgb(179,179,179)" stroke-linejoin="round" d="M 8692,22946 L 8692,22796"/>
 <path fill="none" stroke="rgb(179,179,179)" stroke-linejoin="round" d="M 8692,22946 L 8692,22796"/>
 <path fill="none" stroke="rgb(179,179,179)" stroke-linejoin="round" d="M 9502,22946 L 9502,22796"/>
 <path fill="none" stroke="rgb(179,179,179)" stroke-linejoin="round" d="M 9502,22946 L 9502,22796"/>
 <path fill="none" stroke="rgb(179,179,179)" stroke-linejoin="round" d="M 10311,22946 L 10311,22796"/>
 <path fill="none" stroke="rgb(179,179,179)" stroke-linejoin="round" d="M 10311,22946 L 10311,22796"/>
 <path fill="none" stroke="rgb(179,179,179)" stroke-linejoin="round" d="M 11120,22946 L 11120,22796"/>
 <path fill="none" stroke="rgb(179,179,179)" stroke-linejoin="round" d="M 11120,22946 L 11120,22796"/>
 <path fill="none" stroke="rgb(179,179,179)" stroke-linejoin="round" d="M 11929,22946 L 11929,22796"/>
 <path fill="none" stroke="rgb(179,179,179)" stroke-linejoin="round" d="M 11929,22946 L 11929,22796"/>
 <path fill="none" stroke="rgb(179,179,179)" stroke-linejoin="round" d="M 12738,22946 L 12738,22796"/>
 <path fill="none" stroke="rgb(179,179,179)" stroke-linejoin="round" d="M 12738,22946 L 12738,22796"/>
 <path fill="none" stroke="rgb(179,179,179)" stroke-linejoin="round" d="M 13548,22946 L 13548,22796"/>
 <path fill="none" stroke="rgb(179,179,179)" stroke-linejoin="round" d="M 13548,22946 L 13548,22796"/>
 <path fill="none" stroke="rgb(179,179,179)" stroke-linejoin="round" d="M 14357,22946 L 14357,22796"/>
 <path fill="none" stroke="rgb(179,179,179)" stroke-linejoin="round" d="M 14357,22946 L 14357,22796"/>
 <path fill="none" stroke="rgb(179,179,179)" stroke-linejoin="round" d="M 15167,22946 L 15167,22796"/>
 <path fill="none" stroke="rgb(179,179,179)" stroke-linejoin="round" d="M 15167,22946 L 15167,22796"/>
 <path fill="none" stroke="rgb(179,179,179)" stroke-linejoin="round" d="M 15976,22946 L 15976,22796"/>
 <path fill="none" stroke="rgb(179,179,179)" stroke-linejoin="round" d="M 15976,22946 L 15976,22796"/>
 <path fill="none" stroke="rgb(179,179,179)" stroke-linejoin="round" d="M 16785,22946 L 16785,22796"/>
 <path fill="none" stroke="rgb(179,179,179)" stroke-linejoin="round" d="M 16785,22946 L 16785,22796"/>
 <path fill="none" stroke="rgb(179,179,179)" stroke-linejoin="round" d="M 17595,22946 L 17595,22796"/>
 <path fill="none" stroke="rgb(179,179,179)" stroke-linejoin="round" d="M 17595,22946 L 17595,22796"/>
 <path fill="none" stroke="rgb(179,179,179)" stroke-linejoin="round" d="M 18404,22946 L 18404,22796"/>
 <path fill="none" stroke="rgb(179,179,179)" stroke-linejoin="round" d="M 18404,22946 L 18404,22796"/>
 <path fill="none" stroke="rgb(179,179,179)" stroke-linejoin="round" d="M 1408,22796 L 18636,22796"/>
 <path fill="none" stroke="rgb(179,179,179)" stroke-linejoin="round" d="M 1258,22796 L 1408,22796"/>
 <path fill="none" stroke="rgb(179,179,179)" stroke-linejoin="round" d="M 1258,22796 L 1408,22796"/>
 <path fill="none" stroke="rgb(179,179,179)" stroke-linejoin="round" d="M 1258,20696 L 1408,20696"/>
 <path fill="none" stroke="rgb(179,179,179)" stroke-linejoin="round" d="M 1258,20696 L 1408,20696"/>
 <path fill="none" stroke="rgb(179,179,179)" stroke-linejoin="round" d="M 1258,18596 L 1408,18596"/>
 <path fill="none" stroke="rgb(179,179,179)" stroke-linejoin="round" d="M 1258,18596 L 1408,18596"/>
 <path fill="none" stroke="rgb(179,179,179)" stroke-linejoin="round" d="M 1258,16496 L 1408,16496"/>
 <path fill="none" stroke="rgb(179,179,179)" stroke-linejoin="round" d="M 1258,16496 L 1408,16496"/>
 <path fill="none" stroke="rgb(179,179,179)" stroke-linejoin="round" d="M 1258,14396 L 1408,14396"/>
 <path fill="none" stroke="rgb(179,179,179)" stroke-linejoin="round" d="M 1258,14396 L 1408,14396"/>
 <path fill="none" stroke="rgb(179,179,179)" stroke-linejoin="round" d="M 1258,12297 L 1408,12297"/>
 <path fill="none" stroke="rgb(179,179,179)" stroke-linejoin="round" d="M 1258,12297 L 1408,12297"/>
 <path fill="none" stroke="rgb(179,179,179)" stroke-linejoin="round" d="M 1258,10197 L 1408,10197"/>
 <path fill="none" stroke="rgb(179,179,179)" stroke-linejoin="round" d="M 1258,10197 L 1408,10197"/>
 <path fill="none" stroke="rgb(179,179,179)" stroke-linejoin="round" d="M 1258,8097 L 1408,8097"/>
 <path fill="none" stroke="rgb(179,179,179)" stroke-linejoin="round" d="M 1258,8097 L 1408,8097"/>
 <path fill="none" stroke="rgb(179,179,179)" stroke-linejoin="round" d="M 1258,5997 L 1408,5997"/>
 <path fill="none" stroke="rgb(179,179,179)" stroke-linejoin="round" d="M 1258,5997 L 1408,5997"/>
 <path fill="none" stroke="rgb(179,179,179)" stroke-linejoin="round" d="M 1258,3897 L 1408,3897"/>
 <path fill="none" stroke="rgb(179,179,179)" stroke-linejoin="round" d="M 1258,3897 L 1408,3897"/>
 <path fill="none" stroke="rgb(179,179,179)" stroke-linejoin="round" d="M 1258,1798 L 1408,1798"/>
 <path fill="none" stroke="rgb(179,179,179)" stroke-linejoin="round" d="M 1258,1798 L 1408,1798"/>
 <path fill="none" stroke="rgb(179,179,179)" stroke-linejoin="round" d="M 1408,22796 L 1408,1798"/>
 <path fill="none" stroke="rgb(0,127,255)" stroke-width="80" stroke-linejoin="round" d="M 5778,1798 L 5859,2076 5975,2735 6091,3481 6206,4160 6322,4769 6437,5241 6553,5562 6669,5791 6784,6130 6900,6480 7016,7331 7131,7642 7247,7708 7362,7940 7478,8061 7594,8351 7709,9427 7825,9728 7941,9988 8056,10407 8172,10595 8288,10685 8403,10891 8519,11188 8634,11370 8750,11752 8866,11934 8981,12091 9097,12239 9213,12356 9328,12531 9444,12656 9559,12776 9675,12893 9791,12994 9906,13070 10022,13228 10138,13353 10253,13553 10369,13665 10485,13799 10600,13886 10716,13917 10831,13999 10947,14027 11063,14056 11178,14135 11294,14185 11410,14211 11525,14233 11641,14318 11756,14365 11871,14421 11987,14492 12102,14557 12218,14617 12334,14641 12449,14702 12565,14734 12681,14767 12796,14816 12912,14829 13027,14842 13143,14860 13259,14906 13374,14978 13490,14996 13606,15026 13721,15064 13837,15072 13952,15083 14068,15121 14184,15135 14299,15143 14415,15155 14531,15169 14646,15174 14762,15178 14877,15194 14993,15223 15109,15234 15224,15243 15340,15253 15456,15265 15571,15269 15687,15278 15803,15297 15918,15302 16034,15308 16149,15318 16265,15322 16381,15328 16496,15335 16612,15340 16728,15346 16843,15358 16959,15362 17074,15366 17190,15370 17306,15374 17421,15383 17537,15411 17653,15415 17768,15424 17884,15430 18000,15433 18115,15438 18231,15444 18346,15455 18462,15466 18578,15474"/>
 <path fill="none" stroke="rgb(0,169,51)" stroke-width="80" stroke-linejoin="round" stroke-dasharray="80,40" d="M 2159,12297 L 2275,1798 2390,1798"/>
 <path fill="none" stroke="rgb(0,169,51)" stroke-width="80" stroke-linejoin="round" stroke-dasharray="80,40" d="M 3858,1798 L 3894,18815 4009,17554 4125,16559 4240,14502 4356,13440 4472,11252 4587,9925 4703,7338 4819,4684 4934,15780 5050,15230 5166,14114 5281,13922 5397,13190 5512,12005 5628,9950 5744,11829 5859,11414 5975,9096 6091,7289 6206,5706 6322,3276 6437,15129 6553,16004 6669,16167 6784,17027 6900,16428 7016,15961 7131,16104 7247,15802 7362,16068 7478,15703 7594,16532 7709,16409 7825,15802 7941,16262 8056,16343 8172,16127 8288,16299 8403,16438 8519,16229 8634,16192 8750,16221 8866,16143 8981,16272 9097,16468 9213,16420 9328,16138 9444,15986 9559,15838 9675,16009 9791,16185 9906,16313 10022,16189 10138,16089 10253,16018 10369,16094 10485,16090 10600,16256 10716,16419 10831,16391 10947,16018 11063,15748 11178,15690 11294,15775 11410,15928 11525,16061 11641,16016 11756,15929 11871,15906 11987,15948 12102,15987 12218,16086 12334,16220 12449,16132 12565,16034 12681,16008 12796,16021 12912,16126 13027,15980 13143,15991 13259,15961 13374,15916 13490,15888 13606,15892 13721,15902 13837,15998 13952,16101 14068,16114 14184,16089 14299,16124 14415,16176 14531,16280 14646,16359 14762,16415 14877,16376 14993,16369 15109,16385 15224,16424 15340,16450 15456,16537 15571,16587 15687,16589 15803,16654 15918,16672 16034,16706 16149,16774 16265,16340 16381,16492 16496,16450 16612,16392 16728,16406 16843,16475 16959,16488 17074,16582 17190,16710 17306,16679 17421,16739 17537,16760 17653,16801 17768,16842 17884,16941 18000,17090 18115,17054 18231,17026 18346,16988 18462,16973 18578,17004"/>
 <path fill="none" stroke="rgb(141,40,30)" stroke-width="80" stroke-linejoin="round" stroke-dasharray="80,40" d="M 6931,1798 L 7016,4834 7131,5453 7247,6172 7362,6350 7478,6669 7594,6378 7709,5865 7825,5894 7941,5861 8056,6646 8172,6744 8288,7703 8403,7246 8519,7782 8634,7660 8750,7640 8866,8445 8981,8533 9097,8968 9213,9039 9328,9044 9444,9059 9559,10936 9675,11169 9791,11273 9906,11592 10022,11684 10138,11708 10253,11818 10369,11872 10485,12036 10600,12664 10716,12890 10831,12916 10947,13145 11063,13171 11178,13221 11294,13338 11410,13404 11525,13582 11641,13618 11756,13695 11871,13740 11987,13793 12102,13885 12218,13945 12334,14139 12449,14185 12565,14258 12681,14307 12796,14366 12912,14471 13027,14515 13143,14723 13259,14760 13374,14816 13490,14870 13606,14917 13721,14985 13837,15036 13952,15235 14068,15354 14184,15410 14299,15862 14415,15901 14531,16690 14646,16760 14762,16857 14877,16880 14993,16948 15109,16999 15224,17046 15340,17089 15456,17131 15571,17256 15687,17309 15803,17408 15918,17444 16034,17489 16149,17530 16265,17553 16381,17665 16496,17721 16612,17800 16728,17852 16843,17926 16959,17964 17074,18017 17190,18082 17306,18143 17421,18214 17537,18258 17653,18297 17768,18338 17884,18347 18000,18464 18115,18470 18231,18567 18346,18589 18462,18623 18578,18644"/>
 <path fill="none" stroke="rgb(85,48,141)" stroke-width="80" stroke-linejoin="round" stroke-dasharray="80,40" d="M 1465,17546 L 1581,17546 1697,17546 1812,4131 1870,1798"/>
 <path fill="none" stroke="rgb(85,48,141)" stroke-width="80" stroke-linejoin="round" stroke-dasharray="80,40" d="M 2724,1798 L 2737,12869 2853,15911 2969,14122 3084,13937 3200,17298 3315,17028 3431,15586 3547,20131 3662,19338 3778,19431 3894,19339 4009,19243 4125,19184 4240,18423 4356,18641 4472,18681 4587,18703 4703,18800 4819,18627 4934,18586 5050,18568 5166,18186 5281,18074 5397,17343 5512,17395 5628,17429 5744,17248 5859,17013 5975,16713 6091,16758 6206,16419 6322,16136 6437,16052 6553,16111 6669,16264 6784,16281 6900,16277 7016,16307 7131,16270 7247,16298 7362,16400 7478,16337 7594,16279 7709,16290 7825,16278 7941,16272 8056,16316 8172,16267 8288,16287 8403,16259 8519,16319 8634,16291 8750,16333 8866,16357 8981,16367 9097,16418 9213,16477 9328,16464 9444,16488 9559,16527 9675,16527 9791,16559 9906,16536 10022,16542 10138,16551 10253,16551 10369,16603 10485,16598 10600,16503 10716,16588 10831,16604 10947,16616 11063,16585 11178,16641 11294,16700 11410,16745 11525,16793 11641,16831 11756,16895 11871,16964 11987,17015 12102,17053 12218,17107 12334,17174 12449,17184 12565,17279 12681,17290 12796,17305 12912,17311 13027,17336 13143,17368 13259,17390 13374,17402 13490,17415 13606,17437 13721,17455 13837,17471 13952,17521 14068,17540 14184,17544 14299,17566 14415,17580 14531,17594 14646,17610 14762,17631 14877,17641 14993,17657 15109,17671 15224,17689 15340,17707 15456,17713 15571,17738 15687,17756 15803,17773 15918,17788 16034,18999 16149,19002 16265,19005 16381,19018 16496,19026 16612,19033 16728,19047 16843,19067 16959,19074 17074,19079 17190,19092 17306,19096 17421,19105 17537,19113 17653,19131 17768,19134 17884,19137 18000,19138 18115,19161 18231,19170 18346,19179 18462,19193 18578,19195"/>
 <path fill="none" stroke="rgb(0,255,0)" stroke-width="80" stroke-linejoin="round" d="M 3053,1798 L 3084,16455 3200,15549 3315,14896 3431,14525 3547,12820 3662,15888 3778,17186 3894,17674 4009,18435 4125,18115 4240,18807 4356,18834 4472,18960 4587,19039 4703,19004 4819,19200 4934,19138 5050,19307 5166,19197 5281,19417 5397,19412 5512,19397 5628,19436 5744,19509 5859,19569 5975,19596 6091,19611 6206,19637 6322,19618 6437,19643 6553,19694 6669,19646 6784,19638 6900,19607 7016,19678 7131,19713 7247,19738 7362,19775 7478,19822 7594,19828 7709,19846 7825,19861 7941,19862 8056,19884 8172,19901 8288,19904 8403,19870 8519,19897 8634,19894 8750,19885 8866,19915 8981,19923 9097,19926 9213,19928 9328,19937 9444,19938 9559,19931 9675,19938 9791,19947 9906,19946 10022,19944 10138,19951 10253,19948 10369,19948 10485,19958 10600,19966 10716,19966 10831,19966 10947,19975 11063,19975 11178,19975 11294,19984 11410,19984 11525,19981 11641,19965 11756,19962 11871,19971 11987,19969 12102,19969 12218,19969 12334,19978 12449,19956 12565,19953 12681,19953 12796,19953 12912,19953 13027,19963 13143,19963 13259,19963 13374,19960 13490,19960 13606,19954 13721,19964 13837,19964 13952,19964 14068,19972 14184,19969 14299,19969 14415,19969 14531,19969 14646,19979 14762,19979 14877,19977 14993,19987 15109,19987 15224,19987 15340,19994 15456,20003 15571,20003 15687,20022 15803,20022 15918,20030 16034,20030 16149,20030 16265,20066 16381,20064 16496,20062 16612,20080 16728,20076 16843,20073 16959,20073 17074,20091 17190,20107 17306,20116 17421,20123 17537,20122 17653,20120 17768,20137 17884,20154 18000,20154 18115,20163 18231,20159 18346,20157 18462,20156 18578,20181"/>
 <path fill="none" stroke="rgb(191,0,65)" stroke-width="80" stroke-linejoin="round" stroke-dasharray="51,127,51,127,254,127,254,127,254,127" d="M 1465,10197 L 1581,3413 1697,3197 1812,12614 1928,14005 2043,13666 2159,10504 2275,8797 2390,14290 2506,13336 2622,10689 2737,8997 2853,8028 2969,6168 3084,8468 3200,7153 3315,7789 3431,5526 3547,3739 3662,4745 3778,5493 3894,2477 4009,4454 4125,4582 4240,4398 4356,4709 4472,5135 4587,6539 4703,7415 4819,7794 4934,8448 5050,9050 5166,9716 5281,11001 5397,11933 5512,12673 5628,13179 5744,13336 5859,13706 5975,14130 6091,14650 6206,14915 6322,15421 6437,15507 6553,15680 6669,15826 6784,15976 6900,16206 7016,16534 7131,16694 7247,16793 7362,16921 7478,17031 7594,17142 7709,17342 7825,17466 7941,17648 8056,17775 8172,17791 8288,17841 8403,17996 8519,18048 8634,18288 8750,18354 8866,18401 8981,18459 9097,18605 9213,18640 9328,18690 9444,18798 9559,18848 9675,18907 9791,18940 9906,18946 10022,19030 10138,19075 10253,19153 10369,19160 10485,19196 10600,19225 10716,19241 10831,19243 10947,19269 11063,19296 11178,19304 11294,19334 11410,19354 11525,19369 11641,19366 11756,19377 11871,19404 11987,19411 12102,19421 12218,19410 12334,19411 12449,19431 12565,19433 12681,19432 12796,19454 12912,19469 13027,19498 13143,19518 13259,19533 13374,19549 13490,19595 13606,19622 13721,19670 13837,19695 13952,19700 14068,19705 14184,19725 14299,19727 14415,19735 14531,19756 14646,19778 14762,19786 14877,19793 14993,19822 15109,19845 15224,19867 15340,19890 15456,19910 15571,19927 15687,19923 15803,19956 15918,19973 16034,19994 16149,20006 16265,20015 16381,20025 16496,20080 16612,20092 16728,20111 16843,20137 16959,20149 17074,20207 17190,20209 17306,20210 17421,20207 17537,20206 17653,20208 17768,20215 17884,20213 18000,20215 18115,20213 18231,20214 18346,20221 18462,20229 18578,20232"/>
 <path fill="none" stroke="rgb(21,132,102)" stroke-width="80" stroke-linejoin="round" stroke-dasharray="80,203,80,203,203,203" d="M 1465,19559 L 1581,19424 1697,19221 1812,18949 1928,18662 2043,18332 2159,17871 2275,17298 2390,16771 2506,16424 2622,15633 2737,15388 2853,14738 2969,14254 3084,13695 3200,13136 3315,12768 3431,12643 3547,12263 3662,11872 3778,11492 3894,11148 4009,11110 4125,10911 4240,10727 4356,10552 4472,10752 4587,10701 4703,10584 4819,10739 4934,10716 5050,10902 5166,10916 5281,11081 5397,11178 5512,11051 5628,11062 5744,11347 5859,11381 5975,11521 6091,11602 6206,11647 6322,11997 6437,12075 6553,12243 6669,12353 6784,12436 6900,12596 7016,13001 7131,13150 7247,13301 7362,13444 7478,13569 7594,13644 7709,13761 7825,13861 7941,13931 8056,14146 8172,14246 8288,14422 8403,14474 8519,14632 8634,14697 8750,14800 8866,14965 8981,15069 9097,15221 9213,15326 9328,15450 9444,15540 9559,15816 9675,15918 9791,16033 9906,16204 10022,16286 10138,16369 10253,16465 10369,16581 10485,16684 10600,16815 10716,16889 10831,17036 10947,17113 11063,17174 11178,17237 11294,17314 11410,17374 11525,17576 11641,17642 11756,17697 11871,17764 11987,17825 12102,17892 12218,17946 12334,18009 12449,18055 12565,18139 12681,18179 12796,18220 12912,18301 13027,18332 13143,18390 13259,18441 13374,18500 13490,18541 13606,18592 13721,18643 13837,18690 13952,18734 14068,18783 14184,18829 14299,18988 14415,19023 14531,19115 14646,19162 14762,19208 14877,19249 14993,19300 15109,19335 15224,19373 15340,19405 15456,19435 15571,19477 15687,19509 15803,19548 15918,19580 16034,19619 16149,19649 16265,19662 16381,19701 16496,19734 16612,19762 16728,19773 16843,19821 16959,19867 17074,19894 17190,19923 17306,19946 17421,19976 17537,20013 17653,20040 17768,20066 17884,20085 18000,20123 18115,20150 18231,20176 18346,20195 18462,20215 18578,20239"/>
 <path fill="none" stroke="rgb(180,120,4)" stroke-width="80" stroke-linejoin="round" d="M 3620,1798 L 3662,18297 3778,18388 3894,18260 4009,17892 4125,17535 4240,17521 4356,17536 4472,17602 4587,17510 4703,17418 4819,17623 4934,17791 5050,17814 5166,18126 5281,18359 5397,18587 5512,18844 5628,19191 5744,19351 5859,19398 5975,19617 6091,19739 6206,19826 6322,19834 6437,19799 6553,19839 6669,19879 6784,19908 6900,19958 7016,19979 7131,20005 7247,19979 7362,19966 7478,19953 7594,19976 7709,20032 7825,20065 7941,20097 8056,20131 8172,20155 8288,20170 8403,20274 8519,20269 8634,20290 8750,20333 8866,20345 8981,20358 9097,20373 9213,20389 9328,20405 9444,20401 9559,20430 9675,20447 9791,20458 9906,20469 10022,20487 10138,20493 10253,20497 10369,20510 10485,20517 10600,20513 10716,20515 10831,20516 10947,20530 11063,20536 11178,20528 11294,20538 11410,20537 11525,20530 11641,20541 11756,20553 11871,20563 11987,20567 12102,20564 12218,20570 12334,20571 12449,20578 12565,20590 12681,20593 12796,20601 12912,20601 13027,20601 13143,20606 13259,20611 13374,20616 13490,20624 13606,20629 13721,20629 13837,20629 13952,20644 14068,20651 14184,20656 14299,20669 14415,20678 14531,20678 14646,20678 14762,20695 14877,20696 14993,20699 15109,20707 15224,20712 15340,20712 15456,20712 15571,20718 15687,20723 15803,20727 15918,20729 16034,20728 16149,20728 16265,20728 16381,20735 16496,20736 16612,20739 16728,20739 16843,20743 16959,20743 17074,20743 17190,20755 17306,20761 17421,20763 17537,20766 17653,20774 17768,20774 17884,20775 18000,20788 18115,20793 18231,20799 18346,20801 18462,20809 18578,20809"/>
 <path fill="none" stroke="rgb(0,0,0)" stroke-width="80" stroke-linejoin="round" d="M 1465,16405 L 1581,14579 1697,12753 1812,12140 1928,7752 2043,11597 2159,6443 2275,7164 2390,7656 2506,7955 2622,3376 2737,20762 2853,20356 2969,20819 3084,20638 3200,20651 3315,20365 3431,20789 3547,20774 3662,20729 3778,20724 3894,20617 4009,20498 4125,20478 4240,20147 4356,20449 4472,20665 4587,20706 4703,20640 4819,20794 4934,20691 5050,20709 5166,20767 5281,20595 5397,20585 5512,20596 5628,20603 5744,20607 5859,20564 5975,20575 6091,20565 6206,20529 6322,20592 6437,20548 6553,20555 6669,20549 6784,20537 6900,20540 7016,20543 7131,20566 7247,20578 7362,20588 7478,20582 7594,20622 7709,20612 7825,20605 7941,20570 8056,20583 8172,20594 8288,20586 8403,20588 8519,20575 8634,20592 8750,20608 8866,20611 8981,20624 9097,20628 9213,20615 9328,20616 9444,20616 9559,20623 9675,20623 9791,20625 9906,20631 10022,20625 10138,20622 10253,20618 10369,20621 10485,20623 10600,20626 10716,20626 10831,20637 10947,20638 11063,20636 11178,20637 11294,20640 11410,20640 11525,20642 11641,20639 11756,20641 11871,20641 11987,20645 12102,20648 12218,20648 12334,20654 12449,20652 12565,20654 12681,20651 12796,20650 12912,20656 13027,20658 13143,20662 13259,20666 13374,20670 13490,20671 13606,20670 13721,20674 13837,20675 13952,20675 14068,20676 14184,20686 14299,20692 14415,20697 14531,20703 14646,20710 14762,20715 14877,20719 14993,20721 15109,20725 15224,20727 15340,20728 15456,20730 15571,20737 15687,20736 15803,20745 15918,20748 16034,20753 16149,20756 16265,20758 16381,20765 16496,20765 16612,20769 16728,20773 16843,20776 16959,20778 17074,20779 17190,20782 17306,20785 17421,20790 17537,20791 17653,20795 17768,20800 17884,20803 18000,20810 18115,20814 18231,20814 18346,20821 18462,20825 18578,20829"/>
 <path fill="none" stroke="rgb(255,64,0)" stroke-width="80" stroke-linejoin="round" stroke-dasharray="80,40" d=""/>
 <path fill="none" stroke="rgb(255,64,0)" stroke-width="80" stroke-linejoin="round" stroke-dasharray="80,40" d="M 5166,1798 L 5281,17597 5397,17034 5512,16385 5628,15747 5744,18123 5859,17886 5975,17788 6091,17975 6206,17531 6322,17170 6437,16952 6553,16826 6669,16588 6784,16236 6900,16012 7016,15776 7131,15716 7247,15859 7362,15907 7478,16042 7594,15882 7709,15774 7825,15822 7941,15701 8056,15540 8172,15604 8288,15533 8403,15587 8519,15705 8634,15398 8750,15400 8866,15460 8981,15604 9097,15750 9213,15723 9328,16008 9444,16111 9559,16268 9675,16312 9791,16446 9906,16387 10022,16304 10138,16344 10253,16469 10369,16616 10485,16768 10600,16835 10716,16839 10831,16936 10947,17067 11063,17191 11178,17285 11294,17351 11410,17404 11525,18672 11641,18730 11756,18769 11871,18799 11987,18849 12102,18890 12218,18916 12334,18931 12449,18918 12565,19047 12681,19044 12796,19068 12912,19157 13027,19183 13143,19217 13259,19275 13374,19373 13490,19398 13606,19449 13721,19502 13837,19552 13952,19564 14068,19621 14184,19681 14299,20082 14415,20101 14531,20071 14646,20148 14762,20207 14877,20263 14993,20291 15109,20315 15224,20367 15340,20383 15456,20401 15571,20427 15687,20443 15803,20451 15918,20491 16034,20507 16149,20510 16265,20508 16381,20573 16496,20595 16612,20612 16728,20616 16843,20681 16959,20762 17074,20780 17190,20803 17306,20806 17421,20827 17537,20837 17653,20862 17768,20867 17884,20880 18000,20901 18115,20930 18231,20931 18346,20941 18462,20955 18578,20978"/>
 <path fill="none" stroke="rgb(0,169,51)" stroke-width="80" stroke-linejoin="round" d="M 1465,15796 L 1581,15796 1697,15796 1812,1798"/>
 <path fill="none" stroke="rgb(0,169,51)" stroke-width="80" stroke-linejoin="round" d="M 2041,1798 L 2043,4131 2072,1798"/>
 <path fill="none" stroke="rgb(0,169,51)" stroke-width="80" stroke-linejoin="round" d="M 2966,1798 L 2969,4422 3084,11970 3200,10104 3315,15255 3431,15664 3547,17886 3662,18526 3778,19002 3894,19306 4009,19680 4125,19938 4240,20127 4356,20273 4472,20254 4587,20431 4703,20586 4819,20652 4934,20692 5050,20691 5166,20683 5281,20757 5397,20879 5512,20930 5628,20974 5744,20988 5859,20939 5975,20916 6091,20905 6206,20921 6322,20921 6437,20936 6553,20942 6669,20930 6784,20896 6900,20889 7016,20895 7131,20909 7247,20896 7362,20897 7478,20903 7594,20905 7709,20923 7825,20928 7941,20932 8056,20941 8172,20940 8288,20944 8403,20946 8519,20963 8634,20970 8750,20973 8866,20977 8981,20982 9097,20988 9213,20987 9328,21009 9444,21017 9559,21018 9675,21011 9791,21011 9906,21017 10022,21017 10138,21017 10253,20960 10369,20967 10485,20988 10600,20996 10716,20997 10831,20998 10947,21000 11063,21005 11178,21003 11294,21008 11410,21008 11525,21014 11641,21018 11756,21019 11871,21021 11987,21022 12102,21020 12218,21025 12334,21023 12449,21018 12565,21003 12681,21001 12796,21005 12912,21009 13027,21006 13143,21011 13259,21006 13374,21008 13490,20999 13606,21002 13721,21000 13837,20998 13952,20997 14068,20999 14184,21000 14299,21003 14415,21007 14531,21013 14646,21011 14762,21014 14877,21019 14993,21022 15109,21026 15224,21031 15340,21037 15456,21041 15571,21046 15687,21051 15803,21059 15918,21064 16034,21073 16149,21089 16265,21099 16381,21105 16496,21112 16612,21123 16728,21131 16843,21140 16959,21146 17074,21153 17190,21154 17306,21166 17421,21173 17537,21177 17653,21188 17768,21201 17884,21207 18000,21214 18115,21234 18231,21244 18346,21255 18462,21260 18578,21267"/>
 <path fill="none" stroke="rgb(255,211,32)" stroke-width="80" stroke-linejoin="round" d="M 2506,15796 L 2622,15796 2737,10197 2814,1798"/>
 <path fill="none" stroke="rgb(255,211,32)" stroke-width="80" stroke-linejoin="round" d="M 4372,1798 L 4472,4952 4587,7169 4703,8352 4819,9615 4934,10306 5050,11225 5166,12264 5281,14283 5397,15493 5512,16607 5628,16600 5744,16777 5859,17569 5975,17980 6091,18404 6206,18697 6322,19005 6437,19063 6553,19165 6669,19481 6784,19562 6900,19728 7016,19805 7131,19806 7247,19823 7362,19892 7478,20015 7594,20101 7709,20179 7825,20201 7941,20197 8056,20189 8172,20167 8288,20282 8403,20364 8519,20382 8634,20448 8750,20493 8866,20503 8981,20504 9097,20584 9213,20580 9328,20606 9444,20627 9559,20621 9675,20614 9791,20619 9906,20642 10022,20672 10138,20705 10253,20722 10369,20734 10485,20749 10600,20746 10716,20766 10831,20767 10947,20773 11063,20785 11178,20800 11294,20801 11410,20803 11525,20826 11641,20842 11756,20846 11871,20873 11987,20880 12102,20887 12218,20883 12334,20896 12449,20906 12565,20905 12681,20910 12796,20913 12912,20908 13027,20914 13143,20923 13259,20911 13374,20897 13490,20901 13606,20884 13721,20887 13837,20899 13952,20909 14068,20909 14184,20916 14299,20900 14415,20906 14531,20918 14646,20937 14762,20928 14877,20932 14993,20955 15109,20977 15224,20994 15340,20999 15456,21003 15571,21025 15687,21029 15803,21043 15918,21070 16034,21072 16149,21074 16265,21075 16381,21089 16496,21100 16612,21124 16728,21152 16843,21151 16959,21180 17074,21432 17190,21425 17306,21421 17421,21421 17537,21409 17653,21409 17768,21407 17884,21406 18000,21411 18115,21434 18231,21427 18346,21466 18462,21514 18578,21516"/>
 <path fill="none" stroke="rgb(128,0,128)" stroke-width="80" stroke-linejoin="round" stroke-dasharray="158,158" d="M 1465,1798 L 1581,1798 1697,16334 1812,16334 1928,13796 2043,13796 2159,11597 2275,12297 2390,15492 2506,11908 2622,7242 2737,12297 2853,11076 2969,4131 3084,11290 3200,10797 3315,10860 3431,9621 3547,10846 3662,6338 3778,6965 3894,7047 4009,7024 4125,4640 4240,7565 4356,7833 4472,8022 4587,7488 4703,9448 4819,10314 4934,9925 5050,10066 5166,10651 5281,10919 5397,12154 5512,12795 5628,13912 5744,14570 5859,15199 5975,15981 6091,16251 6206,16754 6322,16837 6437,16961 6553,17123 6669,17270 6784,17331 6900,17424 7016,17451 7131,17663 7247,17660 7362,17834 7478,17676 7594,17768 7709,17906 7825,18066 7941,18135 8056,18224 8172,18365 8288,18523 8403,18642 8519,18737 8634,18818 8750,18974 8866,19272 8981,19343 9097,19417 9213,19518 9328,19620 9444,19695 9559,19776 9675,19808 9791,19866 9906,19909 10022,19957 10138,19985 10253,20006 10369,20264 10485,20291 10600,20323 10716,20336 10831,20354 10947,20339 11063,20331 11178,20329 11294,20338 11410,20352 11525,20364 11641,20379 11756,20279 11871,20371 11987,20378 12102,20417 12218,20441 12334,20486 12449,20121 12565,20151 12681,20216 12796,20252 12912,20351 13027,20370 13143,20425 13259,20445 13374,20493 13490,20546 13606,20569 13721,20613 13837,20645 13952,20677 14068,20695 14184,20714 14299,20782 14415,20808 14531,20817 14646,20847 14762,20871 14877,20898 14993,20933 15109,20964 15224,20993 15340,21014 15456,21037 15571,21052 15687,21071 15803,21088 15918,21104 16034,21108 16149,21133 16265,21146 16381,21168 16496,21193 16612,21193 16728,21223 16843,21245 16959,21275 17074,21296 17190,21320 17306,21342 17421,21356 17537,21374 17653,21394 17768,21426 17884,21445 18000,21467 18115,21492 18231,21509 18346,21528 18462,21544 18578,21565"/>
 <path fill="none" stroke="rgb(0,0,255)" stroke-width="80" stroke-linejoin="round" stroke-dasharray="158,158" d="M 1465,17360 L 1581,16866 1697,16619 1812,20025 1928,20378 2043,20505 2159,20314 2275,20232 2390,20014 2506,21193 2622,21193 2737,21358 2853,21377 2969,21468 3084,21506 3200,21538 3315,21527 3431,21526 3547,21537 3662,21551 3778,21578 3894,21582 4009,21620 4125,21606 4240,21612 4356,21591 4472,21556 4587,21567 4703,21568 4819,21572 4934,21576 5050,21572 5166,21558 5281,21555 5397,21556 5512,21562 5628,21568 5744,21573 5859,21574 5975,21584 6091,21588 6206,21610 6322,21628 6437,21630 6553,21631 6669,21638 6784,21638 6900,21650 7016,21647 7131,21645 7247,21652 7362,21647 7478,21646 7594,21648 7709,21654 7825,21662 7941,21672 8056,21677 8172,21679 8288,21675 8403,21674 8519,21677 8634,21684 8750,21679 8866,21683 8981,21680 9097,21684 9213,21698 9328,21702 9444,21704 9559,21700 9675,21702 9791,21699 9906,21696 10022,21698 10138,21703 10253,21705 10369,21709 10485,21706 10600,21703 10716,21702 10831,21700 10947,21703 11063,21704 11178,21707 11294,21709 11410,21710 11525,21709 11641,21703 11756,21708 11871,21705 11987,21707 12102,21710 12218,21711 12334,21710 12449,21708 12565,21707 12681,21710 12796,21712 12912,21713 13027,21715 13143,21714 13259,21716 13374,21716 13490,21735 13606,21749 13721,21753 13837,21759 13952,21769 14068,21776 14184,21782 14299,21788 14415,21789 14531,21791 14646,21789 14762,21791 14877,21796 14993,21793 15109,21793 15224,21800 15340,21799 15456,21801 15571,21807 15687,21813 15803,21810 15918,21808 16034,21809 16149,21809 16265,21807 16381,21812 16496,21813 16612,21818 16728,21819 16843,21823 16959,21825 17074,21822 17190,21827 17306,21831 17421,21836 17537,21837 17653,21840 17768,21842 17884,21844 18000,21849 18115,21849 18231,21856 18346,21856 18462,21859 18578,21857"/>
 <text class="TextShape" transform="rotate(-90 1591 24000)"><tspan class="TextParagraph" font-family="Liberation Sans, sans-serif" font-size="388px" font-weight="400"><tspan class="TextPosition" x="1591" y="24000"><tspan fill="rgb(0,0,0)" stroke="none">13.03</tspan></tspan></tspan></text>
 <text class="TextShape" transform="rotate(-90 2401 24000)"><tspan class="TextParagraph" font-family="Liberation Sans, sans-serif" font-size="388px" font-weight="400"><tspan class="TextPosition" x="2401" y="24000"><tspan fill="rgb(0,0,0)" stroke="none">20.03</tspan></tspan></tspan></text>
 <text class="TextShape" transform="rotate(-90 3210 24000)"><tspan class="TextParagraph" font-family="Liberation Sans, sans-serif" font-size="388px" font-weight="400"><tspan class="TextPosition" x="3210" y="24000"><tspan fill="rgb(0,0,0)" stroke="none">27.03</tspan></tspan></tspan></text>
 <text class="TextShape" transform="rotate(-90 4020 24000)"><tspan class="TextParagraph" font-family="Liberation Sans, sans-serif" font-size="388px" font-weight="400"><tspan class="TextPosition" x="4020" y="24000"><tspan fill="rgb(0,0,0)" stroke="none">03.04</tspan></tspan></tspan></text>
 <text class="TextShape" transform="rotate(-90 4829 24000)"><tspan class="TextParagraph" font-family="Liberation Sans, sans-serif" font-size="388px" font-weight="400"><tspan class="TextPosition" x="4829" y="24000"><tspan fill="rgb(0,0,0)" stroke="none">10.04</tspan></tspan></tspan></text>
 <text class="TextShape" transform="rotate(-90 5638 24000)"><tspan class="TextParagraph" font-family="Liberation Sans, sans-serif" font-size="388px" font-weight="400"><tspan class="TextPosition" x="5638" y="24000"><tspan fill="rgb(0,0,0)" stroke="none">17.04</tspan></tspan></tspan></text>
 <text class="TextShape" transform="rotate(-90 6448 24000)"><tspan class="TextParagraph" font-family="Liberation Sans, sans-serif" font-size="388px" font-weight="400"><tspan class="TextPosition" x="6448" y="24000"><tspan fill="rgb(0,0,0)" stroke="none">24.04</tspan></tspan></tspan></text>
 <text class="TextShape" transform="rotate(-90 7257 24000)"><tspan class="TextParagraph" font-family="Liberation Sans, sans-serif" font-size="388px" font-weight="400"><tspan class="TextPosition" x="7257" y="24000"><tspan fill="rgb(0,0,0)" stroke="none">01.05</tspan></tspan></tspan></text>
 <text class="TextShape" transform="rotate(-90 8067 24000)"><tspan class="TextParagraph" font-family="Liberation Sans, sans-serif" font-size="388px" font-weight="400"><tspan class="TextPosition" x="8067" y="24000"><tspan fill="rgb(0,0,0)" stroke="none">08.05</tspan></tspan></tspan></text>
 <text class="TextShape" transform="rotate(-90 8876 24000)"><tspan class="TextParagraph" font-family="Liberation Sans, sans-serif" font-size="388px" font-weight="400"><tspan class="TextPosition" x="8876" y="24000"><tspan fill="rgb(0,0,0)" stroke="none">15.05</tspan></tspan></tspan></text>
 <text class="TextShape" transform="rotate(-90 9685 24000)"><tspan class="TextParagraph" font-family="Liberation Sans, sans-serif" font-size="388px" font-weight="400"><tspan class="TextPosition" x="9685" y="24000"><tspan fill="rgb(0,0,0)" stroke="none">22.05</tspan></tspan></tspan></text>
 <text class="TextShape" transform="rotate(-90 10495 24000)"><tspan class="TextParagraph" font-family="Liberation Sans, sans-serif" font-size="388px" font-weight="400"><tspan class="TextPosition" x="10495" y="24000"><tspan fill="rgb(0,0,0)" stroke="none">29.05</tspan></tspan></tspan></text>
 <text class="TextShape" transform="rotate(-90 11304 24000)"><tspan class="TextParagraph" font-family="Liberation Sans, sans-serif" font-size="388px" font-weight="400"><tspan class="TextPosition" x="11304" y="24000"><tspan fill="rgb(0,0,0)" stroke="none">05.06</tspan></tspan></tspan></text>
 <text class="TextShape" transform="rotate(-90 12113 24000)"><tspan class="TextParagraph" font-family="Liberation Sans, sans-serif" font-size="388px" font-weight="400"><tspan class="TextPosition" x="12113" y="24000"><tspan fill="rgb(0,0,0)" stroke="none">12.06</tspan></tspan></tspan></text>
 <text class="TextShape" transform="rotate(-90 12922 24000)"><tspan class="TextParagraph" font-family="Liberation Sans, sans-serif" font-size="388px" font-weight="400"><tspan class="TextPosition" x="12922" y="24000"><tspan fill="rgb(0,0,0)" stroke="none">19.06</tspan></tspan></tspan></text>
 <text class="TextShape" transform="rotate(-90 13732 24000)"><tspan class="TextParagraph" font-family="Liberation Sans, sans-serif" font-size="388px" font-weight="400"><tspan class="TextPosition" x="13732" y="24000"><tspan fill="rgb(0,0,0)" stroke="none">26.06</tspan></tspan></tspan></text>
 <text class="TextShape" transform="rotate(-90 14541 24000)"><tspan class="TextParagraph" font-family="Liberation Sans, sans-serif" font-size="388px" font-weight="400"><tspan class="TextPosition" x="14541" y="24000"><tspan fill="rgb(0,0,0)" stroke="none">03.07</tspan></tspan></tspan></text>
 <text class="TextShape" transform="rotate(-90 15350 24000)"><tspan class="TextParagraph" font-family="Liberation Sans, sans-serif" font-size="388px" font-weight="400"><tspan class="TextPosition" x="15350" y="24000"><tspan fill="rgb(0,0,0)" stroke="none">10.07</tspan></tspan></tspan></text>
 <text class="TextShape" transform="rotate(-90 16160 24000)"><tspan class="TextParagraph" font-family="Liberation Sans, sans-serif" font-size="388px" font-weight="400"><tspan class="TextPosition" x="16160" y="24000"><tspan fill="rgb(0,0,0)" stroke="none">17.07</tspan></tspan></tspan></text>
 <text class="TextShape" transform="rotate(-90 16969 24000)"><tspan class="TextParagraph" font-family="Liberation Sans, sans-serif" font-size="388px" font-weight="400"><tspan class="TextPosition" x="16969" y="24000"><tspan fill="rgb(0,0,0)" stroke="none">24.07</tspan></tspan></tspan></text>
 <text class="TextShape" transform="rotate(-90 17779 24000)"><tspan class="TextParagraph" font-family="Liberation Sans, sans-serif" font-size="388px" font-weight="400"><tspan class="TextPosition" x="17779" y="24000"><tspan fill="rgb(0,0,0)" stroke="none">31.07</tspan></tspan></tspan></text>
 <text class="TextShape" transform="rotate(-90 18588 24000)"><tspan class="TextParagraph" font-family="Liberation Sans, sans-serif" font-size="388px" font-weight="400"><tspan class="TextPosition" x="18588" y="24000"><tspan fill="rgb(0,0,0)" stroke="none">07.08</tspan></tspan></tspan></text>
 <text class="TextShape"><tspan class="TextParagraph" font-family="Liberation Sans, sans-serif" font-size="388px" font-weight="400"><tspan class="TextPosition" x="608" y="22924"><tspan fill="rgb(0,0,0)" stroke="none">0%</tspan></tspan></tspan></text>
 <text class="TextShape"><tspan class="TextParagraph" font-family="Liberation Sans, sans-serif" font-size="388px" font-weight="400"><tspan class="TextPosition" x="608" y="20824"><tspan fill="rgb(0,0,0)" stroke="none">5%</tspan></tspan></tspan></text>
 <text class="TextShape"><tspan class="TextParagraph" font-family="Liberation Sans, sans-serif" font-size="388px" font-weight="400"><tspan class="TextPosition" x="396" y="18724"><tspan fill="rgb(0,0,0)" stroke="none">10%</tspan></tspan></tspan></text>
 <text class="TextShape"><tspan class="TextParagraph" font-family="Liberation Sans, sans-serif" font-size="388px" font-weight="400"><tspan class="TextPosition" x="396" y="16624"><tspan fill="rgb(0,0,0)" stroke="none">15%</tspan></tspan></tspan></text>
 <text class="TextShape"><tspan class="TextParagraph" font-family="Liberation Sans, sans-serif" font-size="388px" font-weight="400"><tspan class="TextPosition" x="396" y="14524"><tspan fill="rgb(0,0,0)" stroke="none">20%</tspan></tspan></tspan></text>
 <text class="TextShape"><tspan class="TextParagraph" font-family="Liberation Sans, sans-serif" font-size="388px" font-weight="400"><tspan class="TextPosition" x="396" y="12424"><tspan fill="rgb(0,0,0)" stroke="none">25%</tspan></tspan></tspan></text>
 <text class="TextShape"><tspan class="TextParagraph" font-family="Liberation Sans, sans-serif" font-size="388px" font-weight="400"><tspan class="TextPosition" x="396" y="10324"><tspan fill="rgb(0,0,0)" stroke="none">30%</tspan></tspan></tspan></text>
 <text class="TextShape"><tspan class="TextParagraph" font-family="Liberation Sans, sans-serif" font-size="388px" font-weight="400"><tspan class="TextPosition" x="396" y="8224"><tspan fill="rgb(0,0,0)" stroke="none">35%</tspan></tspan></tspan></text>
 <text class="TextShape"><tspan class="TextParagraph" font-family="Liberation Sans, sans-serif" font-size="388px" font-weight="400"><tspan class="TextPosition" x="396" y="6124"><tspan fill="rgb(0,0,0)" stroke="none">40%</tspan></tspan></tspan></text>
 <text class="TextShape"><tspan class="TextParagraph" font-family="Liberation Sans, sans-serif" font-size="388px" font-weight="400"><tspan class="TextPosition" x="396" y="4024"><tspan fill="rgb(0,0,0)" stroke="none">45%</tspan></tspan></tspan></text>
 <text class="TextShape"><tspan class="TextParagraph" font-family="Liberation Sans, sans-serif" font-size="388px" font-weight="400"><tspan class="TextPosition" x="396" y="1925"><tspan fill="rgb(0,0,0)" stroke="none">50%</tspan></tspan></tspan></text>
 <text class="TextShape"><tspan class="TextParagraph" font-family="Liberation Sans, sans-serif" font-size="494px" font-weight="700"><tspan class="TextPosition" x="806" y="990"><tspan fill="rgb(0,0,0)" stroke="none">Poměr počtu obětí k počtu vyléčených</tspan></tspan></tspan></text>
 <path fill="none" stroke="rgb(0,127,255)" stroke-width="80" stroke-linejoin="round" d="M 18829,2893 L 20429,2893"/>
 <path fill="none" stroke="rgb(0,169,51)" stroke-width="80" stroke-linejoin="round" stroke-dasharray="80,40" d="M 18829,4404 L 20429,4404"/>
 <path fill="none" stroke="rgb(141,40,30)" stroke-width="80" stroke-linejoin="round" stroke-dasharray="80,40" d="M 18829,5915 L 20429,5915"/>
 <path fill="none" stroke="rgb(85,48,141)" stroke-width="80" stroke-linejoin="round" stroke-dasharray="80,40" d="M 18829,7426 L 20429,7426"/>
 <path fill="none" stroke="rgb(0,255,0)" stroke-width="80" stroke-linejoin="round" d="M 18829,8937 L 20429,8937"/>
 <path fill="none" stroke="rgb(191,0,65)" stroke-width="80" stroke-linejoin="round" stroke-dasharray="51,127,51,127,254,127,254,127,254,127" d="M 18829,10448 L 20429,10448"/>
 <path fill="none" stroke="rgb(21,132,102)" stroke-width="80" stroke-linejoin="round" stroke-dasharray="80,203,80,203,203,203" d="M 18829,11959 L 20429,11959"/>
 <path fill="none" stroke="rgb(180,120,4)" stroke-width="80" stroke-linejoin="round" d="M 18829,13469 L 20429,13469"/>
 <path fill="none" stroke="rgb(0,0,0)" stroke-width="80" stroke-linejoin="round" d="M 18829,14980 L 20429,14980"/>
 <path fill="none" stroke="rgb(255,64,0)" stroke-width="80" stroke-linejoin="round" stroke-dasharray="80,40" d="M 18829,16491 L 20429,16491"/>
 <path fill="none" stroke="rgb(0,169,51)" stroke-width="80" stroke-linejoin="round" d="M 18829,18002 L 20429,18002"/>
 <path fill="none" stroke="rgb(255,211,32)" stroke-width="80" stroke-linejoin="round" d="M 18829,19513 L 20429,19513"/>
 <path fill="none" stroke="rgb(128,0,128)" stroke-width="80" stroke-linejoin="round" stroke-dasharray="158,158" d="M 18829,21024 L 20429,21024"/>
 <path fill="none" stroke="rgb(0,0,255)" stroke-width="80" stroke-linejoin="round" stroke-dasharray="158,158" d="M 18829,22535 L 20429,22535"/>
 <text class="TextShape"><tspan class="TextParagraph" font-family="Liberation Sans, sans-serif" font-size="423px" font-weight="400"><tspan class="TextPosition" x="20529" y="3041"><tspan fill="rgb(0,0,0)" stroke="none">Itálie</tspan></tspan></tspan></text>
 <text class="TextShape"><tspan class="TextParagraph" font-family="Liberation Sans, sans-serif" font-size="423px" font-weight="400"><tspan class="TextPosition" x="20529" y="4552"><tspan fill="rgb(0,0,0)" stroke="none">Mexiko</tspan></tspan></tspan></text>
 <text class="TextShape"><tspan class="TextParagraph" font-family="Liberation Sans, sans-serif" font-size="423px" font-weight="400"><tspan class="TextPosition" x="20529" y="6063"><tspan fill="rgb(0,0,0)" stroke="none">USA</tspan></tspan></tspan></text>
 <text class="TextShape"><tspan class="TextParagraph" font-family="Liberation Sans, sans-serif" font-size="423px" font-weight="400"><tspan class="TextPosition" x="20529" y="7574"><tspan fill="rgb(0,0,0)" stroke="none">Kanada</tspan></tspan></tspan></text>
 <text class="TextShape"><tspan class="TextParagraph" font-family="Liberation Sans, sans-serif" font-size="423px" font-weight="400"><tspan class="TextPosition" x="20529" y="9085"><tspan fill="rgb(0,0,0)" stroke="none">Švýcarsko</tspan></tspan></tspan></text>
 <text class="TextShape"><tspan class="TextParagraph" font-family="Liberation Sans, sans-serif" font-size="423px" font-weight="400"><tspan class="TextPosition" x="20529" y="10596"><tspan fill="rgb(0,0,0)" stroke="none">EU_nové země</tspan></tspan></tspan></text>
 <text class="TextShape"><tspan class="TextParagraph" font-family="Liberation Sans, sans-serif" font-size="423px" font-weight="400"><tspan class="TextPosition" x="20529" y="12107"><tspan fill="rgb(0,0,0)" stroke="none">celosvětově</tspan></tspan></tspan></text>
 <text class="TextShape"><tspan class="TextParagraph" font-family="Liberation Sans, sans-serif" font-size="423px" font-weight="400"><tspan class="TextPosition" x="20529" y="13617"><tspan fill="rgb(0,0,0)" stroke="none">Dánsko</tspan></tspan></tspan></text>
 <text class="TextShape"><tspan class="TextParagraph" font-family="Liberation Sans, sans-serif" font-size="423px" font-weight="400"><tspan class="TextPosition" x="20529" y="15128"><tspan fill="rgb(0,0,0)" stroke="none">Německo</tspan></tspan></tspan></text>
 <text class="TextShape"><tspan class="TextParagraph" font-family="Liberation Sans, sans-serif" font-size="423px" font-weight="400"><tspan class="TextPosition" x="20529" y="16639"><tspan fill="rgb(0,0,0)" stroke="none">Brazílie</tspan></tspan></tspan></text>
 <text class="TextShape"><tspan class="TextParagraph" font-family="Liberation Sans, sans-serif" font-size="423px" font-weight="400"><tspan class="TextPosition" x="20529" y="18150"><tspan fill="rgb(0,0,0)" stroke="none">Rakousko</tspan></tspan></tspan></text>
 <text class="TextShape"><tspan class="TextParagraph" font-family="Liberation Sans, sans-serif" font-size="423px" font-weight="400"><tspan class="TextPosition" x="20529" y="19661"><tspan fill="rgb(0,0,0)" stroke="none">Česko</tspan></tspan></tspan></text>
 <text class="TextShape"><tspan class="TextParagraph" font-family="Liberation Sans, sans-serif" font-size="423px" font-weight="400"><tspan class="TextPosition" x="20529" y="21172"><tspan fill="rgb(0,0,0)" stroke="none">Indie</tspan></tspan></tspan></text>
 <text class="TextShape"><tspan class="TextParagraph" font-family="Liberation Sans, sans-serif" font-size="423px" font-weight="400"><tspan class="TextPosition" x="20529" y="22683"><tspan fill="rgb(0,0,0)" stroke="none">Jižní Korea</tspan></tspan></tspan></text>
</svg>