<?xml version="1.0" encoding="UTF-8"?>
<!DOCTYPE svg PUBLIC "-//W3C//DTD SVG 1.1//EN" "http://www.w3.org/Graphics/SVG/1.1/DTD/svg11.dtd">
<svg width="236mm" height="250mm" viewBox="0 0 23600 25000" version="1.1" xmlns="http://www.w3.org/2000/svg" xmlns:xlink="http://www.w3.org/1999/xlink" stroke-width="28.222" stroke-linejoin="round" xml:space="preserve">
 <path fill="rgb(255,255,255)" stroke="none" d="M 11800,25000 L 0,25000 0,0 23600,0 23600,25000 11800,25000 Z"/>
 <path fill="none" stroke="rgb(179,179,179)" stroke-linejoin="round" d="M 10022,22797 L 1408,22797 1408,1799 18636,1799 18636,22797 10022,22797 Z"/>
 <path fill="none" stroke="rgb(179,179,179)" stroke-linejoin="round" d="M 18636,22796 L 1408,22796"/>
 <path fill="none" stroke="rgb(179,179,179)" stroke-linejoin="round" d="M 18636,20696 L 1408,20696"/>
 <path fill="none" stroke="rgb(179,179,179)" stroke-linejoin="round" d="M 18636,18596 L 1408,18596"/>
 <path fill="none" stroke="rgb(179,179,179)" stroke-linejoin="round" d="M 18636,16496 L 1408,16496"/>
 <path fill="none" stroke="rgb(179,179,179)" stroke-linejoin="round" d="M 18636,14396 L 1408,14396"/>
 <path fill="none" stroke="rgb(179,179,179)" stroke-linejoin="round" d="M 18636,12297 L 1408,12297"/>
 <path fill="none" stroke="rgb(179,179,179)" stroke-linejoin="round" d="M 18636,10197 L 1408,10197"/>
 <path fill="none" stroke="rgb(179,179,179)" stroke-linejoin="round" d="M 18636,8097 L 1408,8097"/>
 <path fill="none" stroke="rgb(179,179,179)" stroke-linejoin="round" d="M 18636,5997 L 1408,5997"/>
 <path fill="none" stroke="rgb(179,179,179)" stroke-linejoin="round" d="M 18636,3897 L 1408,3897"/>
 <path fill="none" stroke="rgb(179,179,179)" stroke-linejoin="round" d="M 18636,1798 L 1408,1798"/>
 <path fill="none" stroke="rgb(179,179,179)" stroke-linejoin="round" d="M 1408,22946 L 1408,22796"/>
 <path fill="none" stroke="rgb(179,179,179)" stroke-linejoin="round" d="M 1408,22946 L 1408,22796"/>
 <path fill="none" stroke="rgb(179,179,179)" stroke-linejoin="round" d="M 2212,22946 L 2212,22796"/>
 <path fill="none" stroke="rgb(179,179,179)" stroke-linejoin="round" d="M 2212,22946 L 2212,22796"/>
 <path fill="none" stroke="rgb(179,179,179)" stroke-linejoin="round" d="M 3016,22946 L 3016,22796"/>
 <path fill="none" stroke="rgb(179,179,179)" stroke-linejoin="round" d="M 3016,22946 L 3016,22796"/>
 <path fill="none" stroke="rgb(179,179,179)" stroke-linejoin="round" d="M 3820,22946 L 3820,22796"/>
 <path fill="none" stroke="rgb(179,179,179)" stroke-linejoin="round" d="M 3820,22946 L 3820,22796"/>
 <path fill="none" stroke="rgb(179,179,179)" stroke-linejoin="round" d="M 4624,22946 L 4624,22796"/>
 <path fill="none" stroke="rgb(179,179,179)" stroke-linejoin="round" d="M 4624,22946 L 4624,22796"/>
 <path fill="none" stroke="rgb(179,179,179)" stroke-linejoin="round" d="M 5428,22946 L 5428,22796"/>
 <path fill="none" stroke="rgb(179,179,179)" stroke-linejoin="round" d="M 5428,22946 L 5428,22796"/>
 <path fill="none" stroke="rgb(179,179,179)" stroke-linejoin="round" d="M 6232,22946 L 6232,22796"/>
 <path fill="none" stroke="rgb(179,179,179)" stroke-linejoin="round" d="M 6232,22946 L 6232,22796"/>
 <path fill="none" stroke="rgb(179,179,179)" stroke-linejoin="round" d="M 7036,22946 L 7036,22796"/>
 <path fill="none" stroke="rgb(179,179,179)" stroke-linejoin="round" d="M 7036,22946 L 7036,22796"/>
 <path fill="none" stroke="rgb(179,179,179)" stroke-linejoin="round" d="M 7840,22946 L 7840,22796"/>
 <path fill="none" stroke="rgb(179,179,179)" stroke-linejoin="round" d="M 7840,22946 L 7840,22796"/>
 <path fill="none" stroke="rgb(179,179,179)" stroke-linejoin="round" d="M 8644,22946 L 8644,22796"/>
 <path fill="none" stroke="rgb(179,179,179)" stroke-linejoin="round" d="M 8644,22946 L 8644,22796"/>
 <path fill="none" stroke="rgb(179,179,179)" stroke-linejoin="round" d="M 9448,22946 L 9448,22796"/>
 <path fill="none" stroke="rgb(179,179,179)" stroke-linejoin="round" d="M 9448,22946 L 9448,22796"/>
 <path fill="none" stroke="rgb(179,179,179)" stroke-linejoin="round" d="M 10252,22946 L 10252,22796"/>
 <path fill="none" stroke="rgb(179,179,179)" stroke-linejoin="round" d="M 10252,22946 L 10252,22796"/>
 <path fill="none" stroke="rgb(179,179,179)" stroke-linejoin="round" d="M 11056,22946 L 11056,22796"/>
 <path fill="none" stroke="rgb(179,179,179)" stroke-linejoin="round" d="M 11056,22946 L 11056,22796"/>
 <path fill="none" stroke="rgb(179,179,179)" stroke-linejoin="round" d="M 11859,22946 L 11859,22796"/>
 <path fill="none" stroke="rgb(179,179,179)" stroke-linejoin="round" d="M 11859,22946 L 11859,22796"/>
 <path fill="none" stroke="rgb(179,179,179)" stroke-linejoin="round" d="M 12663,22946 L 12663,22796"/>
 <path fill="none" stroke="rgb(179,179,179)" stroke-linejoin="round" d="M 12663,22946 L 12663,22796"/>
 <path fill="none" stroke="rgb(179,179,179)" stroke-linejoin="round" d="M 13467,22946 L 13467,22796"/>
 <path fill="none" stroke="rgb(179,179,179)" stroke-linejoin="round" d="M 13467,22946 L 13467,22796"/>
 <path fill="none" stroke="rgb(179,179,179)" stroke-linejoin="round" d="M 14271,22946 L 14271,22796"/>
 <path fill="none" stroke="rgb(179,179,179)" stroke-linejoin="round" d="M 14271,22946 L 14271,22796"/>
 <path fill="none" stroke="rgb(179,179,179)" stroke-linejoin="round" d="M 15075,22946 L 15075,22796"/>
 <path fill="none" stroke="rgb(179,179,179)" stroke-linejoin="round" d="M 15075,22946 L 15075,22796"/>
 <path fill="none" stroke="rgb(179,179,179)" stroke-linejoin="round" d="M 15879,22946 L 15879,22796"/>
 <path fill="none" stroke="rgb(179,179,179)" stroke-linejoin="round" d="M 15879,22946 L 15879,22796"/>
 <path fill="none" stroke="rgb(179,179,179)" stroke-linejoin="round" d="M 16683,22946 L 16683,22796"/>
 <path fill="none" stroke="rgb(179,179,179)" stroke-linejoin="round" d="M 16683,22946 L 16683,22796"/>
 <path fill="none" stroke="rgb(179,179,179)" stroke-linejoin="round" d="M 17487,22946 L 17487,22796"/>
 <path fill="none" stroke="rgb(179,179,179)" stroke-linejoin="round" d="M 17487,22946 L 17487,22796"/>
 <path fill="none" stroke="rgb(179,179,179)" stroke-linejoin="round" d="M 18291,22946 L 18291,22796"/>
 <path fill="none" stroke="rgb(179,179,179)" stroke-linejoin="round" d="M 18291,22946 L 18291,22796"/>
 <path fill="none" stroke="rgb(179,179,179)" stroke-linejoin="round" d="M 1408,22796 L 18636,22796"/>
 <path fill="none" stroke="rgb(179,179,179)" stroke-linejoin="round" d="M 1258,22796 L 1408,22796"/>
 <path fill="none" stroke="rgb(179,179,179)" stroke-linejoin="round" d="M 1258,22796 L 1408,22796"/>
 <path fill="none" stroke="rgb(179,179,179)" stroke-linejoin="round" d="M 1258,20696 L 1408,20696"/>
 <path fill="none" stroke="rgb(179,179,179)" stroke-linejoin="round" d="M 1258,20696 L 1408,20696"/>
 <path fill="none" stroke="rgb(179,179,179)" stroke-linejoin="round" d="M 1258,18596 L 1408,18596"/>
 <path fill="none" stroke="rgb(179,179,179)" stroke-linejoin="round" d="M 1258,18596 L 1408,18596"/>
 <path fill="none" stroke="rgb(179,179,179)" stroke-linejoin="round" d="M 1258,16496 L 1408,16496"/>
 <path fill="none" stroke="rgb(179,179,179)" stroke-linejoin="round" d="M 1258,16496 L 1408,16496"/>
 <path fill="none" stroke="rgb(179,179,179)" stroke-linejoin="round" d="M 1258,14396 L 1408,14396"/>
 <path fill="none" stroke="rgb(179,179,179)" stroke-linejoin="round" d="M 1258,14396 L 1408,14396"/>
 <path fill="none" stroke="rgb(179,179,179)" stroke-linejoin="round" d="M 1258,12297 L 1408,12297"/>
 <path fill="none" stroke="rgb(179,179,179)" stroke-linejoin="round" d="M 1258,12297 L 1408,12297"/>
 <path fill="none" stroke="rgb(179,179,179)" stroke-linejoin="round" d="M 1258,10197 L 1408,10197"/>
 <path fill="none" stroke="rgb(179,179,179)" stroke-linejoin="round" d="M 1258,10197 L 1408,10197"/>
 <path fill="none" stroke="rgb(179,179,179)" stroke-linejoin="round" d="M 1258,8097 L 1408,8097"/>
 <path fill="none" stroke="rgb(179,179,179)" stroke-linejoin="round" d="M 1258,8097 L 1408,8097"/>
 <path fill="none" stroke="rgb(179,179,179)" stroke-linejoin="round" d="M 1258,5997 L 1408,5997"/>
 <path fill="none" stroke="rgb(179,179,179)" stroke-linejoin="round" d="M 1258,5997 L 1408,5997"/>
 <path fill="none" stroke="rgb(179,179,179)" stroke-linejoin="round" d="M 1258,3897 L 1408,3897"/>
 <path fill="none" stroke="rgb(179,179,179)" stroke-linejoin="round" d="M 1258,3897 L 1408,3897"/>
 <path fill="none" stroke="rgb(179,179,179)" stroke-linejoin="round" d="M 1258,1798 L 1408,1798"/>
 <path fill="none" stroke="rgb(179,179,179)" stroke-linejoin="round" d="M 1258,1798 L 1408,1798"/>
 <path fill="none" stroke="rgb(179,179,179)" stroke-linejoin="round" d="M 1408,22796 L 1408,1798"/>
 <path fill="none" stroke="rgb(0,127,255)" stroke-width="80" stroke-linejoin="round" d="M 11752,1798 L 11801,1859 11916,2037 12031,2201 12146,2351 12261,2409 12376,2562 12490,2642 12605,2725 12720,2848 12835,2880 12950,2914 13065,2958 13180,3073 13295,3252 13409,3297 13524,3373 13639,3468 13754,3487 13869,3515 13984,3609 14099,3645 14213,3665 14328,3695 14443,3731 14558,3744 14673,3752 14788,3793 14903,3866 15017,3892 15132,3914 15247,3940 15362,3969 15477,3979 15592,4002 15707,4051 15821,4062 15936,4079 16051,4102 16166,4114 16281,4127 16396,4144 16511,4158 16625,4173 16740,4203 16855,4213 16970,4222 17085,4233 17200,4242 17315,4265 17429,4334 17544,4346 17659,4367 17774,4384 17889,4389 18004,4403 18119,4417 18233,4446 18348,4473 18463,4494 18578,4507"/>
 <path fill="none" stroke="rgb(0,169,51)" stroke-width="80" stroke-linejoin="round" stroke-dasharray="80,40" d="M 3868,1798 L 3877,12843 3992,9693 4107,7205 4222,2063 4233,1798"/>
 <path fill="none" stroke="rgb(0,169,51)" stroke-width="80" stroke-linejoin="round" stroke-dasharray="80,40" d="M 4896,1798 L 4911,5258 5026,3883 5111,1798"/>
 <path fill="none" stroke="rgb(0,169,51)" stroke-width="80" stroke-linejoin="round" stroke-dasharray="80,40" d="M 6397,1798 L 6404,3630 6519,5817 6634,6226 6748,8375 6863,6877 6978,5709 7093,6068 7208,5313 7323,5978 7438,5064 7553,7138 7667,6830 7782,5312 7897,6464 8012,6665 8127,6126 8242,6556 8357,6903 8471,6380 8586,6289 8701,6360 8816,6164 8931,6488 9046,6977 9161,6858 9275,6153 9390,5773 9505,5404 9620,5829 9735,6271 9850,6590 9965,6280 10079,6029 10194,5852 10309,6043 10424,6032 10539,6448 10654,6856 10769,6784 10883,5853 10998,5177 11113,5032 11228,5246 11343,5628 11458,5959 11573,5848 11687,5630 11801,5574 11916,5677 12031,5776 12146,6023 12261,6359 12376,6137 12490,5892 12605,5827 12720,5861 12835,6122 12950,5759 13065,5784 13180,5710 13295,5597 13409,5527 13524,5538 13639,5562 13754,5803 13869,6061 13984,6092 14099,6029 14213,6119 14328,6248 14443,6507 14558,6705 14673,6845 14788,6747 14903,6729 15017,6769 15132,6867 15247,6932 15362,7150 15477,7276 15592,7281 15707,7442 15821,7487 15936,7572 16051,7743 16166,6659 16281,7039 16396,6934 16511,6788 16625,6822 16740,6996 16855,7029 16970,7262 17085,7583 17200,7506 17315,7655 17429,7708 17544,7811 17659,7912 17774,8161 17889,8534 18004,8442 18119,8373 18233,8277 18348,8240 18463,8318 18578,8513"/>
 <path fill="none" stroke="rgb(141,40,30)" stroke-width="80" stroke-linejoin="round" stroke-dasharray="80,40" d="M 12752,1798 L 12835,1986 12950,2095 13065,2615 13180,2707 13295,2849 13409,2983 13524,3101 13639,3270 13754,3398 13869,3895 13984,4193 14099,4333 14213,5463 14328,5561 14443,7532 14558,7707 14673,7951 14788,8009 14903,8179 15017,8305 15132,8424 15247,8530 15362,8635 15477,8947 15592,9081 15707,9328 15821,9418 15936,9531 16051,9633 16166,9690 16281,9970 16396,10110 16511,10307 16625,10439 16740,10623 16855,10718 16970,10851 17085,11014 17200,11165 17315,11342 17429,11452 17544,11550 17659,11653 17774,11675 17889,11967 18004,11982 18119,12226 18233,12281 18348,12364 18463,12418 18578,12471"/>
 <path fill="none" stroke="rgb(85,48,141)" stroke-width="80" stroke-linejoin="round" stroke-dasharray="80,40" d="M 1465,9672 L 1580,9672 1695,9672 1722,1798"/>
 <path fill="none" stroke="rgb(85,48,141)" stroke-width="80" stroke-linejoin="round" stroke-dasharray="80,40" d="M 2786,1798 L 2843,5584 2941,1798"/>
 <path fill="none" stroke="rgb(85,48,141)" stroke-width="80" stroke-linejoin="round" stroke-dasharray="80,40" d="M 3089,1798 L 3188,9053 3303,8377 3418,4772 3532,16134 3647,14152 3762,14384 3877,14155 3992,13914 4107,13767 4222,11865 4336,12411 4451,12508 4566,12564 4681,12807 4796,12375 4911,12272 5026,12227 5140,11274 5255,10992 5370,9166 5485,9295 5600,9380 5715,8927 5830,8340 5944,7590 6059,7702 6174,6856 6289,6149 6404,5939 6519,6086 6634,6468 6748,6510 6863,6500 6978,6575 7093,6483 7208,6554 7323,6808 7438,6650 7553,6506 7667,6532 7782,6502 7897,6488 8012,6598 8127,6476 8242,6526 8357,6456 8471,6604 8586,6534 8701,6641 8816,6700 8931,6724 9046,6854 9161,7001 9275,6967 9390,7029 9505,7124 9620,7124 9735,7204 9850,7148 9965,7163 10079,7186 10194,7186 10309,7316 10424,7304 10539,7064 10654,7277 10769,7318 10883,7347 10998,7270 11113,7409 11228,7558 11343,7670 11458,7790 11573,7885 11687,8046 11801,8219 11916,8346 12031,8441 12146,8574 12261,8742 12376,8767 12490,9005 12605,9033 12720,9071 12835,9085 12950,9148 13065,9227 13180,9283 13295,9313 13409,9345 13524,9401 13639,9446 13754,9485 13869,9610 13984,9657 14099,9667 14213,9723 14328,9757 14443,9793 14558,9832 14673,9886 14788,9911 14903,9949 15017,9985 15132,10030 15247,10076 15362,10090 15477,10154 15592,10198 15707,10241 15821,10277 15936,13305 16051,13311 16166,13319 16281,13352 16396,13372 16511,13390 16625,13425 16740,13474 16855,13492 16970,13505 17085,13538 17200,13547 17315,13570 17429,13589 17544,13633 17659,13642 17774,13649 17889,13651 18004,13709 18119,13732 18233,13755 18348,13790 18463,13794 18578,13804"/>
 <path fill="none" stroke="rgb(0,255,0)" stroke-width="80" stroke-linejoin="round" d="M 3069,1798 L 3073,6944 3188,4680 3303,3048 3418,2120 3426,1798"/>
 <path fill="none" stroke="rgb(0,255,0)" stroke-width="80" stroke-linejoin="round" d="M 3591,1798 L 3647,5527 3762,8773 3877,9992 3992,11896 4107,11094 4222,12825 4336,12892 4451,13207 4566,13405 4681,13318 4796,13806 4911,13652 5026,14074 5140,13798 5255,14348 5370,14336 5485,14300 5600,14396 5715,14579 5830,14729 5944,14796 6059,14834 6174,14900 6289,14851 6404,14913 6519,15041 6634,14921 6748,14902 6863,14823 6978,15002 7093,15090 7208,15151 7323,15244 7438,15363 7553,15376 7667,15421 7782,15458 7897,15462 8012,15517 8127,15560 8242,15567 8357,15481 8471,15550 8586,15543 8701,15519 8816,15595 8931,15614 9046,15621 9161,15628 9275,15650 9390,15653 9505,15634 9620,15652 9735,15674 9850,15673 9965,15666 10079,15683 10194,15676 10309,15676 10424,15701 10539,15722 10654,15722 10769,15722 10883,15743 10998,15743 11113,15743 11228,15768 11343,15768 11458,15760 11573,15720 11687,15713 11801,15734 11916,15730 12031,15730 12146,15730 12261,15751 12376,15697 12490,15689 12605,15689 12720,15689 12835,15689 12950,15714 13065,15714 13180,15714 13295,15707 13409,15707 13524,15692 13639,15716 13754,15716 13869,15716 13984,15737 14099,15730 14213,15730 14328,15730 14443,15730 14558,15754 14673,15754 14788,15750 14903,15774 15017,15774 15132,15774 15247,15791 15362,15815 15477,15815 15592,15862 15707,15862 15821,15881 15936,15881 16051,15881 16166,15973 16281,15966 16396,15962 16511,16007 16625,15997 16740,15990 16855,15990 16970,16034 17085,16074 17200,16096 17315,16114 17429,16111 17544,16108 17659,16150 17774,16192 17889,16192 18004,16213 18119,16203 18233,16200 18348,16197 18463,16259 18578,16340"/>
 <path fill="none" stroke="rgb(191,0,65)" stroke-width="80" stroke-linejoin="round" stroke-dasharray="51,127,51,127,254,127,254,127,254,127" d="M 6003,1798 L 6059,2432 6174,3095 6289,4361 6404,4575 6519,5008 6634,5373 6748,5747 6863,6322 6978,7142 7093,7543 7208,7789 7323,8111 7438,8384 7553,8663 7667,9164 7782,9473 7897,9927 8012,10244 8127,10285 8242,10410 8357,10798 8471,10928 8586,11528 8701,11693 8816,11809 8931,11955 9046,12321 9161,12409 9275,12531 9390,12803 9505,12928 9620,13073 9735,13157 9850,13171 9965,13382 10079,13494 10194,13689 10309,13706 10424,13798 10539,13870 10654,13910 10769,13915 10883,13980 10998,14047 11113,14068 11228,14143 11343,14192 11458,14229 11573,14222 11687,14249 11801,14316 11916,14333 12031,14359 12146,14333 12261,14335 12376,14385 12490,14389 12605,14387 12720,14442 12835,14479 12950,14553 13065,14603 13180,14639 13295,14680 13409,14795 13524,14861 13639,14982 13754,15045 13869,15056 13984,15069 14099,15120 14213,15125 14328,15145 14443,15196 14558,15253 14673,15272 14788,15289 14903,15361 15017,15420 15132,15475 15247,15531 15362,15582 15477,15624 15592,15615 15707,15696 15821,15738 15936,15792 16051,15822 16166,15844 16281,15870 16396,16008 16511,16036 16625,16083 16740,16148 16855,16179 16970,16325 17085,16330 17200,16332 17315,16325 17429,16322 17544,16328 17659,16345 17774,16340 17889,16345 18004,16339 18119,16341 18233,16360 18348,16378 18463,16388 18578,16378"/>
 <path fill="none" stroke="rgb(21,132,102)" stroke-width="80" stroke-linejoin="round" stroke-dasharray="80,203,80,203,203,203" d="M 1465,14705 L 1580,14367 1695,13859 1810,13180 1924,12463 2039,11638 2154,10485 2269,9052 2384,7736 2499,6868 2614,4891 2728,4278 2843,2653 2924,1798"/>
 <path fill="none" stroke="rgb(21,132,102)" stroke-width="80" stroke-linejoin="round" stroke-dasharray="80,203,80,203,203,203" d="M 8225,1798 L 8242,1863 8357,1992 8471,2388 8586,2550 8701,2809 8816,3220 8931,3480 9046,3859 9161,4123 9275,4433 9390,4658 9505,5347 9620,5603 9735,5891 9850,6319 9965,6523 10079,6729 10194,6970 10309,7261 10424,7518 10539,7845 10654,8030 10769,8398 10883,8590 10998,8744 11113,8901 11228,9093 11343,9242 11458,9748 11573,9913 11687,10050 11801,10217 11916,10369 12031,10537 12146,10672 12261,10831 12376,10945 12490,11155 12605,11255 12720,11358 12835,11559 12950,11639 13065,11782 13180,11909 13295,12058 13409,12161 13524,12288 13639,12416 13754,12531 13869,12642 13984,12763 14099,12880 14213,13277 14328,13365 14443,13594 14558,13713 14673,13827 14788,13929 14903,14056 15017,14145 15132,14239 15247,14319 15362,14393 15477,14500 15592,14579 15707,14676 15821,14757 15936,14854 16051,14929 16166,14962 16281,15059 16396,15141 16511,15212 16625,15240 16740,15360 16855,15473 16970,15542 17085,15613 17200,15672 17315,15747 17429,15838 17544,15908 17659,15973 17774,16018 17889,16115 18004,16182 18119,16246 18233,16294 18348,16343 18463,16404 18578,16458"/>
 <path fill="none" stroke="rgb(180,120,4)" stroke-width="80" stroke-linejoin="round" d="M 3637,1798 L 3647,11551 3762,11777 3877,11457 3992,10538 4107,9645 4222,9610 4336,9648 4451,9814 4566,9582 4681,9352 4796,9865 4911,10285 5026,10344 5140,11122 5255,11705 5370,12274 5485,12916 5600,13783 5715,14183 5830,14301 5944,14849 6059,15154 6174,15373 6289,15392 6404,15304 6519,15403 6634,15503 6748,15577 6863,15703 6978,15755 7093,15820 7208,15755 7323,15721 7438,15689 7553,15746 7667,15886 7782,15970 7897,16050 8012,16134 8127,16195 8242,16232 8357,16492 8471,16480 8586,16533 8701,16638 8816,16668 8931,16702 9046,16738 9161,16778 9275,16820 9390,16810 9505,16883 9620,16925 9735,16952 9850,16979 9965,17024 10079,17038 10194,17049 10309,17082 10424,17099 10539,17088 10654,17095 10769,17097 10883,17131 10998,17148 11113,17126 11228,17152 11343,17150 11458,17131 11573,17160 11687,17188 11801,17214 11916,17224 12031,17216 12146,17233 12261,17234 12376,17251 12490,17281 12605,17290 12720,17309 12835,17309 12950,17309 13065,17322 13180,17334 13295,17348 13409,17366 13524,17379 13639,17379 13754,17379 13869,17418 13984,17435 14099,17446 14213,17480 14328,17501 14443,17501 14558,17501 14673,17544 14788,17547 14903,17555 15017,17574 15132,17588 15247,17588 15362,17588 15477,17602 15592,17614 15707,17623 15821,17629 15936,17626 16051,17626 16166,17626 16281,17644 16396,17648 16511,17653 16625,17655 16740,17663 16855,17663 16970,17663 17085,17695 17200,17708 17315,17714 17429,17722 17544,17743 17659,17743 17774,17744 17889,17777 18004,17790 18119,17804 18233,17810 18348,17830 18463,17830 18578,17839"/>
 <path fill="none" stroke="rgb(0,0,0)" stroke-width="80" stroke-linejoin="round" d="M 1465,6819 L 1580,2254 1591,1798"/>
 <path fill="none" stroke="rgb(0,0,0)" stroke-width="80" stroke-linejoin="round" d="M 2686,1798 L 2728,17712 2843,16698 2958,17854 3073,17402 3188,17435 3303,16720 3418,17779 3532,17741 3647,17630 3762,17616 3877,17348 3992,17053 4107,17001 4222,16174 4336,16929 4451,17469 4566,17572 4681,17407 4796,17791 4911,17534 5026,17580 5140,17724 5255,17294 5370,17270 5485,17298 5600,17313 5715,17324 5830,17216 5944,17245 6059,17219 6174,17129 6289,17288 6404,17176 6519,17193 6634,17178 6748,17149 6863,17156 6978,17165 7093,17222 7208,17251 7323,17276 7438,17262 7553,17361 7667,17336 7782,17318 7897,17231 8012,17264 8127,17292 8242,17272 8357,17276 8471,17245 8586,17288 8701,17326 8816,17334 8931,17368 9046,17376 9161,17345 9275,17348 9390,17347 9505,17364 9620,17365 9735,17370 9850,17384 9965,17368 10079,17361 10194,17352 10309,17359 10424,17365 10539,17373 10654,17372 10769,17399 10883,17402 10998,17396 11113,17400 11228,17406 11343,17407 11458,17411 11573,17404 11687,17410 11801,17408 11916,17420 12031,17427 12146,17426 12261,17441 12376,17438 12490,17442 12605,17435 12720,17432 12835,17447 12950,17451 13065,17461 13180,17472 13295,17482 13409,17485 13524,17482 13639,17491 13754,17495 13869,17494 13984,17496 14099,17522 14213,17536 14328,17549 14443,17563 14558,17582 14673,17595 14788,17604 14903,17610 15017,17620 15132,17625 15247,17627 15362,17631 15477,17648 15592,17646 15707,17670 15821,17677 15936,17690 16051,17697 16166,17702 16281,17719 16396,17720 16511,17729 16625,17738 16740,17748 16855,17751 16970,17755 17085,17761 17200,17768 17315,17781 17429,17783 17544,17793 17659,17806 17774,17813 17889,17831 18004,17841 18119,17842 18233,17859 18348,17868 18463,17880 18578,17886"/>
 <path fill="none" stroke="rgb(255,64,0)" stroke-width="80" stroke-linejoin="round" stroke-dasharray="80,40" d="M 5232,1798 L 5255,9801 5370,8394 5485,6770 5600,5175 5715,11116 5830,10523 5944,10279 6059,10745 6174,9635 6289,8734 6404,8189 6519,7872 6634,7278 6748,6397 6863,5838 6978,5248 7093,5098 7208,5456 7323,5576 7438,5913 7553,5513 7667,5244 7782,5364 7897,5060 8012,4659 8127,4818 8242,4639 8357,4775 8471,5071 8586,4303 8701,4308 8816,4458 8931,4817 9046,5183 9161,5116 9275,5827 9390,6086 9505,6479 9620,6587 9735,6922 9850,6776 9965,6569 10079,6669 10194,6980 10309,7348 10424,7727 10539,7896 10654,7905 10769,8149 10883,8475 10998,8786 11113,9020 11228,9185 11343,9317 11458,12489 11573,12631 11687,12730 11801,12803 11916,12929 12031,13033 12146,13098 12261,13134 12376,13102 12490,13423 12605,13417 12720,13478 12835,13698 12950,13764 13065,13849 13180,13993 13295,14238 13409,14302 13524,14430 13639,14561 13754,14686 13869,14716 13984,14858 14099,15010 14213,16011 14328,16059 14443,15985 14558,16177 14673,16324 14788,16465 14903,16535 15017,16595 15132,16724 15247,16764 15362,16810 15477,16873 15592,16914 15707,16934 15821,17034 15936,17074 16051,17081 16166,17076 16281,17240 16396,17295 16511,17337 16625,17347 16740,17510 16855,17712 16970,17757 17085,17814 17200,17821 17315,17874 17429,17899 17544,17962 17659,17975 17774,18006 17889,18060 18004,18132 18119,18134 18233,18159 18348,18195 18463,18251 18578,18294"/>
 <path fill="none" stroke="rgb(0,169,51)" stroke-width="80" stroke-linejoin="round" d="M 1465,5297 L 1580,5297 1695,5297 1706,1798"/>
 <path fill="none" stroke="rgb(0,169,51)" stroke-width="80" stroke-linejoin="round" d="M 3284,1798 L 3303,3946 3418,4967 3532,10523 3647,12122 3762,13311 3877,14072 3992,15006 4107,15651 4222,16125 4336,16490 4451,16443 4566,16885 4681,17272 4796,17438 4911,17536 5026,17534 5140,17513 5255,17700 5370,18005 5485,18132 5600,18242 5715,18276 5830,18154 5944,18097 6059,18069 6174,18109 6289,18108 6404,18146 6519,18162 6634,18133 6748,18047 6863,18030 6978,18045 7093,18078 7208,18048 7323,18049 7438,18065 7553,18069 7667,18115 7782,18128 7897,18136 8012,18159 8127,18158 8242,18166 8357,18172 8471,18215 8586,18233 8701,18239 8816,18248 8931,18261 9046,18276 9161,18275 9275,18330 9390,18350 9505,18352 9620,18334 9735,18334 9850,18350 9965,18349 10079,18348 10194,18207 10309,18225 10424,18276 10539,18298 10654,18298 10769,18301 10883,18307 10998,18320 11113,18313 11228,18327 11343,18328 11458,18341 11573,18351 11687,18354 11801,18358 11916,18362 12031,18356 12146,18369 12261,18365 12376,18351 12490,18315 12605,18309 12720,18320 12835,18330 12950,18323 13065,18335 13180,18321 13295,18327 13409,18305 13524,18313 13639,18306 13754,18301 13869,18300 13984,18303 14099,18307 14213,18313 14328,18325 14443,18338 14558,18334 14673,18343 14788,18353 14903,18362 15017,18372 15132,18385 15247,18400 15362,18410 15477,18423 15592,18435 15707,18455 15821,18466 15936,18489 16051,18530 16166,18554 16281,18568 16396,18588 16511,18613 16625,18635 16740,18658 16855,18671 16970,18690 17085,18693 17200,18722 17315,18738 17429,18749 17544,18777 17659,18809 17774,18824 17889,18841 18004,18891 18119,18917 18233,18943 18348,18956 18463,18975 18578,18996"/>
 <path fill="none" stroke="rgb(255,211,32)" stroke-width="80" stroke-linejoin="round" d="M 2499,5297 L 2614,5297 2642,1798"/>
 <path fill="none" stroke="rgb(255,211,32)" stroke-width="80" stroke-linejoin="round" d="M 5266,1798 L 5370,4541 5485,7324 5600,7308 5715,7751 5830,9731 5944,10758 6059,11817 6174,12550 6289,13319 6404,13465 6519,13719 6634,14510 6748,14711 6863,15127 6978,15318 7093,15323 7208,15363 7323,15536 7438,15845 7553,16060 7667,16254 7782,16310 7897,16300 8012,16279 8127,16225 8242,16511 8357,16718 8471,16763 8586,16926 8701,17039 8816,17064 8931,17067 9046,17267 9161,17258 9275,17321 9390,17374 9505,17358 9620,17341 9735,17354 9850,17412 9965,17487 10079,17570 10194,17611 10309,17643 10424,17679 10539,17672 10654,17721 10769,17723 10883,17739 10998,17769 11113,17806 11228,17809 11343,17813 11458,17872 11573,17913 11687,17923 11801,17990 11916,18008 12031,18025 12146,18015 12261,18047 12376,18072 12490,18070 12605,18082 12720,18089 12835,18077 12950,18091 13065,18115 13180,18084 13295,18049 13409,18060 13524,18017 13639,18025 13754,18053 13869,18078 13984,18080 14099,18096 14213,18057 14328,18073 14443,18102 14558,18149 14673,18128 14788,18136 14903,18195 15017,18248 15132,18293 15247,18303 15362,18314 15477,18369 15592,18380 15707,18414 15821,18481 15936,18487 16051,18491 16166,18493 16281,18530 16396,18557 16511,18616 16625,18687 16740,18684 16855,18756 16970,19387 17085,19369 17200,19359 17315,19360 17429,19330 17544,19329 17659,19325 17774,19321 17889,19334 18004,19391 18119,19375 18233,19472 18348,19592 18463,19596 18578,19593"/>
 <path fill="none" stroke="rgb(128,0,128)" stroke-width="80" stroke-linejoin="round" stroke-dasharray="158,158" d="M 1679,1798 L 1695,6643 1810,6643 1897,1798"/>
 <path fill="none" stroke="rgb(128,0,128)" stroke-width="80" stroke-linejoin="round" stroke-dasharray="158,158" d="M 2344,1798 L 2384,4537 2419,1798"/>
 <path fill="none" stroke="rgb(128,0,128)" stroke-width="80" stroke-linejoin="round" stroke-dasharray="158,158" d="M 5684,1798 L 5715,2232 5830,3806 5944,5760 6059,6435 6174,7692 6289,7901 6404,8211 6519,8616 6634,8983 6748,9135 6863,9369 6978,9435 7093,9965 7208,9957 7323,10393 7438,9998 7553,10227 7667,10572 7782,10974 7897,11145 8012,11367 8127,11721 8242,12115 8357,12413 8471,12650 8586,12851 8701,13243 8816,13988 8931,14164 9046,14349 9161,14601 9275,14858 9390,15045 9505,15247 9620,15328 9735,15472 9850,15580 9965,15700 10079,15769 10194,15821 10309,16467 10424,16533 10539,16614 10654,16646 10769,16693 10883,16653 10998,16635 11113,16630 11228,16651 11343,16686 11458,16718 11573,16753 11687,16504 11801,16734 11916,16751 12031,16850 12146,16909 12261,17021 12376,16110 12490,16184 12605,16347 12720,16438 12835,16685 12950,16732 13065,16868 13180,16920 13295,17040 13409,17171 13524,17230 13639,17339 13754,17419 13869,17498 13984,17544 14099,17592 14213,17762 14328,17827 14443,17850 14558,17924 14673,17984 14788,18051 14903,18139 15017,18218 15132,18289 15247,18343 15362,18399 15477,18436 15592,18484 15707,18527 15821,18567 15936,18576 16051,18639 16166,18672 16281,18726 16396,18790 16511,18789 16625,18864 16740,18919 16855,18994 16970,19046 17085,19108 17200,19162 17315,19196 17429,19242 17544,19293 17659,19371 17774,19420 17889,19473 18004,19537 18119,19579 18233,19627 18348,19667 18463,19720 18578,19761"/>
 <path fill="none" stroke="rgb(0,0,255)" stroke-width="80" stroke-linejoin="round" stroke-dasharray="158,158" d="M 1465,9209 L 1580,7974 1695,7356 1810,15870 1924,16751 2039,17069 2154,16591 2269,16387 2384,15841 2499,18789 2614,18789 2728,19203 2843,19249 2958,19476 3073,19572 3188,19653 3303,19625 3418,19622 3532,19650 3647,19684 3762,19751 3877,19761 3992,19857 4107,19823 4222,19836 4336,19784 4451,19696 4566,19724 4681,19727 4796,19737 4911,19746 5026,19736 5140,19702 5255,19694 5370,19696 5485,19711 5600,19726 5715,19740 5830,19742 5944,19766 6059,19776 6174,19831 6289,19877 6404,19881 6519,19884 6634,19902 6748,19901 6863,19933 6978,19925 7093,19918 7208,19937 7323,19925 7438,19923 7553,19927 7667,19942 7782,19961 7897,19986 8012,19999 8127,20005 8242,19994 8357,19991 8471,19999 8586,20016 8701,20003 8816,20013 8931,20007 9046,20017 9161,20052 9275,20061 9390,20068 9505,20056 9620,20061 9735,20054 9850,20047 9965,20052 10079,20064 10194,20070 10309,20079 10424,20071 10539,20065 10654,20062 10769,20057 10883,20065 10998,20067 11113,20074 11228,20079 11343,20082 11458,20079 11573,20065 11687,20076 11801,20070 11916,20075 12031,20082 12146,20085 12261,20083 12376,20077 12490,20073 12605,20082 12720,20087 12835,20090 12950,20094 13065,20091 13180,20096 13295,20097 13409,20145 13524,20179 13639,20190 13754,20205 13869,20229 13984,20246 14099,20261 14213,20278 14328,20280 14443,20284 14558,20279 14673,20284 14788,20296 14903,20288 15017,20289 15132,20306 15247,20304 15362,20309 15477,20325 15592,20338 15707,20331 15821,20327 15936,20330 16051,20329 16166,20323 16281,20337 16396,20340 16511,20351 16625,20354 16740,20364 16855,20368 16970,20363 17085,20374 17200,20385 17315,20397 17429,20398 17544,20407 17659,20412 17774,20416 17889,20429 18004,20430 18119,20447 18233,20446 18348,20454 18463,20448 18578,20451"/>
 <text class="TextShape" transform="rotate(-90 1591 24000)"><tspan class="TextParagraph" font-family="Liberation Sans, sans-serif" font-size="388px" font-weight="400"><tspan class="TextPosition" x="1591" y="24000"><tspan fill="rgb(0,0,0)" stroke="none">13.03</tspan></tspan></tspan></text>
 <text class="TextShape" transform="rotate(-90 2395 24000)"><tspan class="TextParagraph" font-family="Liberation Sans, sans-serif" font-size="388px" font-weight="400"><tspan class="TextPosition" x="2395" y="24000"><tspan fill="rgb(0,0,0)" stroke="none">20.03</tspan></tspan></tspan></text>
 <text class="TextShape" transform="rotate(-90 3199 24000)"><tspan class="TextParagraph" font-family="Liberation Sans, sans-serif" font-size="388px" font-weight="400"><tspan class="TextPosition" x="3199" y="24000"><tspan fill="rgb(0,0,0)" stroke="none">27.03</tspan></tspan></tspan></text>
 <text class="TextShape" transform="rotate(-90 4003 24000)"><tspan class="TextParagraph" font-family="Liberation Sans, sans-serif" font-size="388px" font-weight="400"><tspan class="TextPosition" x="4003" y="24000"><tspan fill="rgb(0,0,0)" stroke="none">03.04</tspan></tspan></tspan></text>
 <text class="TextShape" transform="rotate(-90 4807 24000)"><tspan class="TextParagraph" font-family="Liberation Sans, sans-serif" font-size="388px" font-weight="400"><tspan class="TextPosition" x="4807" y="24000"><tspan fill="rgb(0,0,0)" stroke="none">10.04</tspan></tspan></tspan></text>
 <text class="TextShape" transform="rotate(-90 5611 24000)"><tspan class="TextParagraph" font-family="Liberation Sans, sans-serif" font-size="388px" font-weight="400"><tspan class="TextPosition" x="5611" y="24000"><tspan fill="rgb(0,0,0)" stroke="none">17.04</tspan></tspan></tspan></text>
 <text class="TextShape" transform="rotate(-90 6415 24000)"><tspan class="TextParagraph" font-family="Liberation Sans, sans-serif" font-size="388px" font-weight="400"><tspan class="TextPosition" x="6415" y="24000"><tspan fill="rgb(0,0,0)" stroke="none">24.04</tspan></tspan></tspan></text>
 <text class="TextShape" transform="rotate(-90 7219 24000)"><tspan class="TextParagraph" font-family="Liberation Sans, sans-serif" font-size="388px" font-weight="400"><tspan class="TextPosition" x="7219" y="24000"><tspan fill="rgb(0,0,0)" stroke="none">01.05</tspan></tspan></tspan></text>
 <text class="TextShape" transform="rotate(-90 8023 24000)"><tspan class="TextParagraph" font-family="Liberation Sans, sans-serif" font-size="388px" font-weight="400"><tspan class="TextPosition" x="8023" y="24000"><tspan fill="rgb(0,0,0)" stroke="none">08.05</tspan></tspan></tspan></text>
 <text class="TextShape" transform="rotate(-90 8827 24000)"><tspan class="TextParagraph" font-family="Liberation Sans, sans-serif" font-size="388px" font-weight="400"><tspan class="TextPosition" x="8827" y="24000"><tspan fill="rgb(0,0,0)" stroke="none">15.05</tspan></tspan></tspan></text>
 <text class="TextShape" transform="rotate(-90 9631 24000)"><tspan class="TextParagraph" font-family="Liberation Sans, sans-serif" font-size="388px" font-weight="400"><tspan class="TextPosition" x="9631" y="24000"><tspan fill="rgb(0,0,0)" stroke="none">22.05</tspan></tspan></tspan></text>
 <text class="TextShape" transform="rotate(-90 10435 24000)"><tspan class="TextParagraph" font-family="Liberation Sans, sans-serif" font-size="388px" font-weight="400"><tspan class="TextPosition" x="10435" y="24000"><tspan fill="rgb(0,0,0)" stroke="none">29.05</tspan></tspan></tspan></text>
 <text class="TextShape" transform="rotate(-90 11239 24000)"><tspan class="TextParagraph" font-family="Liberation Sans, sans-serif" font-size="388px" font-weight="400"><tspan class="TextPosition" x="11239" y="24000"><tspan fill="rgb(0,0,0)" stroke="none">05.06</tspan></tspan></tspan></text>
 <text class="TextShape" transform="rotate(-90 12042 24000)"><tspan class="TextParagraph" font-family="Liberation Sans, sans-serif" font-size="388px" font-weight="400"><tspan class="TextPosition" x="12042" y="24000"><tspan fill="rgb(0,0,0)" stroke="none">12.06</tspan></tspan></tspan></text>
 <text class="TextShape" transform="rotate(-90 12846 24000)"><tspan class="TextParagraph" font-family="Liberation Sans, sans-serif" font-size="388px" font-weight="400"><tspan class="TextPosition" x="12846" y="24000"><tspan fill="rgb(0,0,0)" stroke="none">19.06</tspan></tspan></tspan></text>
 <text class="TextShape" transform="rotate(-90 13650 24000)"><tspan class="TextParagraph" font-family="Liberation Sans, sans-serif" font-size="388px" font-weight="400"><tspan class="TextPosition" x="13650" y="24000"><tspan fill="rgb(0,0,0)" stroke="none">26.06</tspan></tspan></tspan></text>
 <text class="TextShape" transform="rotate(-90 14454 24000)"><tspan class="TextParagraph" font-family="Liberation Sans, sans-serif" font-size="388px" font-weight="400"><tspan class="TextPosition" x="14454" y="24000"><tspan fill="rgb(0,0,0)" stroke="none">03.07</tspan></tspan></tspan></text>
 <text class="TextShape" transform="rotate(-90 15258 24000)"><tspan class="TextParagraph" font-family="Liberation Sans, sans-serif" font-size="388px" font-weight="400"><tspan class="TextPosition" x="15258" y="24000"><tspan fill="rgb(0,0,0)" stroke="none">10.07</tspan></tspan></tspan></text>
 <text class="TextShape" transform="rotate(-90 16062 24000)"><tspan class="TextParagraph" font-family="Liberation Sans, sans-serif" font-size="388px" font-weight="400"><tspan class="TextPosition" x="16062" y="24000"><tspan fill="rgb(0,0,0)" stroke="none">17.07</tspan></tspan></tspan></text>
 <text class="TextShape" transform="rotate(-90 16866 24000)"><tspan class="TextParagraph" font-family="Liberation Sans, sans-serif" font-size="388px" font-weight="400"><tspan class="TextPosition" x="16866" y="24000"><tspan fill="rgb(0,0,0)" stroke="none">24.07</tspan></tspan></tspan></text>
 <text class="TextShape" transform="rotate(-90 17670 24000)"><tspan class="TextParagraph" font-family="Liberation Sans, sans-serif" font-size="388px" font-weight="400"><tspan class="TextPosition" x="17670" y="24000"><tspan fill="rgb(0,0,0)" stroke="none">31.07</tspan></tspan></tspan></text>
 <text class="TextShape" transform="rotate(-90 18474 24000)"><tspan class="TextParagraph" font-family="Liberation Sans, sans-serif" font-size="388px" font-weight="400"><tspan class="TextPosition" x="18474" y="24000"><tspan fill="rgb(0,0,0)" stroke="none">07.08</tspan></tspan></tspan></text>
 <text class="TextShape"><tspan class="TextParagraph" font-family="Liberation Sans, sans-serif" font-size="388px" font-weight="400"><tspan class="TextPosition" x="608" y="22924"><tspan fill="rgb(0,0,0)" stroke="none">0%</tspan></tspan></tspan></text>
 <text class="TextShape"><tspan class="TextParagraph" font-family="Liberation Sans, sans-serif" font-size="388px" font-weight="400"><tspan class="TextPosition" x="608" y="20824"><tspan fill="rgb(0,0,0)" stroke="none">2%</tspan></tspan></tspan></text>
 <text class="TextShape"><tspan class="TextParagraph" font-family="Liberation Sans, sans-serif" font-size="388px" font-weight="400"><tspan class="TextPosition" x="608" y="18724"><tspan fill="rgb(0,0,0)" stroke="none">4%</tspan></tspan></tspan></text>
 <text class="TextShape"><tspan class="TextParagraph" font-family="Liberation Sans, sans-serif" font-size="388px" font-weight="400"><tspan class="TextPosition" x="608" y="16624"><tspan fill="rgb(0,0,0)" stroke="none">6%</tspan></tspan></tspan></text>
 <text class="TextShape"><tspan class="TextParagraph" font-family="Liberation Sans, sans-serif" font-size="388px" font-weight="400"><tspan class="TextPosition" x="608" y="14524"><tspan fill="rgb(0,0,0)" stroke="none">8%</tspan></tspan></tspan></text>
 <text class="TextShape"><tspan class="TextParagraph" font-family="Liberation Sans, sans-serif" font-size="388px" font-weight="400"><tspan class="TextPosition" x="396" y="12424"><tspan fill="rgb(0,0,0)" stroke="none">10%</tspan></tspan></tspan></text>
 <text class="TextShape"><tspan class="TextParagraph" font-family="Liberation Sans, sans-serif" font-size="388px" font-weight="400"><tspan class="TextPosition" x="396" y="10324"><tspan fill="rgb(0,0,0)" stroke="none">12%</tspan></tspan></tspan></text>
 <text class="TextShape"><tspan class="TextParagraph" font-family="Liberation Sans, sans-serif" font-size="388px" font-weight="400"><tspan class="TextPosition" x="396" y="8224"><tspan fill="rgb(0,0,0)" stroke="none">14%</tspan></tspan></tspan></text>
 <text class="TextShape"><tspan class="TextParagraph" font-family="Liberation Sans, sans-serif" font-size="388px" font-weight="400"><tspan class="TextPosition" x="396" y="6124"><tspan fill="rgb(0,0,0)" stroke="none">16%</tspan></tspan></tspan></text>
 <text class="TextShape"><tspan class="TextParagraph" font-family="Liberation Sans, sans-serif" font-size="388px" font-weight="400"><tspan class="TextPosition" x="396" y="4024"><tspan fill="rgb(0,0,0)" stroke="none">18%</tspan></tspan></tspan></text>
 <text class="TextShape"><tspan class="TextParagraph" font-family="Liberation Sans, sans-serif" font-size="388px" font-weight="400"><tspan class="TextPosition" x="396" y="1925"><tspan fill="rgb(0,0,0)" stroke="none">20%</tspan></tspan></tspan></text>
 <text class="TextShape"><tspan class="TextParagraph" font-family="Liberation Sans, sans-serif" font-size="494px" font-weight="700"><tspan class="TextPosition" x="840" y="990"><tspan fill="rgb(0,0,0)" stroke="none">Poměr počtu obětí k počtu vyléčených (měřítko do 20 %)</tspan></tspan></tspan></text>
 <path fill="none" stroke="rgb(0,127,255)" stroke-width="80" stroke-linejoin="round" d="M 18829,2893 L 20429,2893"/>
 <path fill="none" stroke="rgb(0,169,51)" stroke-width="80" stroke-linejoin="round" stroke-dasharray="80,40" d="M 18829,4404 L 20429,4404"/>
 <path fill="none" stroke="rgb(141,40,30)" stroke-width="80" stroke-linejoin="round" stroke-dasharray="80,40" d="M 18829,5915 L 20429,5915"/>
 <path fill="none" stroke="rgb(85,48,141)" stroke-width="80" stroke-linejoin="round" stroke-dasharray="80,40" d="M 18829,7426 L 20429,7426"/>
 <path fill="none" stroke="rgb(0,255,0)" stroke-width="80" stroke-linejoin="round" d="M 18829,8937 L 20429,8937"/>
 <path fill="none" stroke="rgb(191,0,65)" stroke-width="80" stroke-linejoin="round" stroke-dasharray="51,127,51,127,254,127,254,127,254,127" d="M 18829,10448 L 20429,10448"/>
 <path fill="none" stroke="rgb(21,132,102)" stroke-width="80" stroke-linejoin="round" stroke-dasharray="80,203,80,203,203,203" d="M 18829,11959 L 20429,11959"/>
 <path fill="none" stroke="rgb(180,120,4)" stroke-width="80" stroke-linejoin="round" d="M 18829,13469 L 20429,13469"/>
 <path fill="none" stroke="rgb(0,0,0)" stroke-width="80" stroke-linejoin="round" d="M 18829,14980 L 20429,14980"/>
 <path fill="none" stroke="rgb(255,64,0)" stroke-width="80" stroke-linejoin="round" stroke-dasharray="80,40" d="M 18829,16491 L 20429,16491"/>
 <path fill="none" stroke="rgb(0,169,51)" stroke-width="80" stroke-linejoin="round" d="M 18829,18002 L 20429,18002"/>
 <path fill="none" stroke="rgb(255,211,32)" stroke-width="80" stroke-linejoin="round" d="M 18829,19513 L 20429,19513"/>
 <path fill="none" stroke="rgb(128,0,128)" stroke-width="80" stroke-linejoin="round" stroke-dasharray="158,158" d="M 18829,21024 L 20429,21024"/>
 <path fill="none" stroke="rgb(0,0,255)" stroke-width="80" stroke-linejoin="round" stroke-dasharray="158,158" d="M 18829,22535 L 20429,22535"/>
 <text class="TextShape"><tspan class="TextParagraph" font-family="Liberation Sans, sans-serif" font-size="423px" font-weight="400"><tspan class="TextPosition" x="20529" y="3041"><tspan fill="rgb(0,0,0)" stroke="none">Itálie</tspan></tspan></tspan></text>
 <text class="TextShape"><tspan class="TextParagraph" font-family="Liberation Sans, sans-serif" font-size="423px" font-weight="400"><tspan class="TextPosition" x="20529" y="4552"><tspan fill="rgb(0,0,0)" stroke="none">Mexiko</tspan></tspan></tspan></text>
 <text class="TextShape"><tspan class="TextParagraph" font-family="Liberation Sans, sans-serif" font-size="423px" font-weight="400"><tspan class="TextPosition" x="20529" y="6063"><tspan fill="rgb(0,0,0)" stroke="none">USA</tspan></tspan></tspan></text>
 <text class="TextShape"><tspan class="TextParagraph" font-family="Liberation Sans, sans-serif" font-size="423px" font-weight="400"><tspan class="TextPosition" x="20529" y="7574"><tspan fill="rgb(0,0,0)" stroke="none">Kanada</tspan></tspan></tspan></text>
 <text class="TextShape"><tspan class="TextParagraph" font-family="Liberation Sans, sans-serif" font-size="423px" font-weight="400"><tspan class="TextPosition" x="20529" y="9085"><tspan fill="rgb(0,0,0)" stroke="none">Švýcarsko</tspan></tspan></tspan></text>
 <text class="TextShape"><tspan class="TextParagraph" font-family="Liberation Sans, sans-serif" font-size="423px" font-weight="400"><tspan class="TextPosition" x="20529" y="10596"><tspan fill="rgb(0,0,0)" stroke="none">EU_nové země</tspan></tspan></tspan></text>
 <text class="TextShape"><tspan class="TextParagraph" font-family="Liberation Sans, sans-serif" font-size="423px" font-weight="400"><tspan class="TextPosition" x="20529" y="12107"><tspan fill="rgb(0,0,0)" stroke="none">celosvětově</tspan></tspan></tspan></text>
 <text class="TextShape"><tspan class="TextParagraph" font-family="Liberation Sans, sans-serif" font-size="423px" font-weight="400"><tspan class="TextPosition" x="20529" y="13617"><tspan fill="rgb(0,0,0)" stroke="none">Dánsko</tspan></tspan></tspan></text>
 <text class="TextShape"><tspan class="TextParagraph" font-family="Liberation Sans, sans-serif" font-size="423px" font-weight="400"><tspan class="TextPosition" x="20529" y="15128"><tspan fill="rgb(0,0,0)" stroke="none">Německo</tspan></tspan></tspan></text>
 <text class="TextShape"><tspan class="TextParagraph" font-family="Liberation Sans, sans-serif" font-size="423px" font-weight="400"><tspan class="TextPosition" x="20529" y="16639"><tspan fill="rgb(0,0,0)" stroke="none">Brazílie</tspan></tspan></tspan></text>
 <text class="TextShape"><tspan class="TextParagraph" font-family="Liberation Sans, sans-serif" font-size="423px" font-weight="400"><tspan class="TextPosition" x="20529" y="18150"><tspan fill="rgb(0,0,0)" stroke="none">Rakousko</tspan></tspan></tspan></text>
 <text class="TextShape"><tspan class="TextParagraph" font-family="Liberation Sans, sans-serif" font-size="423px" font-weight="400"><tspan class="TextPosition" x="20529" y="19661"><tspan fill="rgb(0,0,0)" stroke="none">Česko</tspan></tspan></tspan></text>
 <text class="TextShape"><tspan class="TextParagraph" font-family="Liberation Sans, sans-serif" font-size="423px" font-weight="400"><tspan class="TextPosition" x="20529" y="21172"><tspan fill="rgb(0,0,0)" stroke="none">Indie</tspan></tspan></tspan></text>
 <text class="TextShape"><tspan class="TextParagraph" font-family="Liberation Sans, sans-serif" font-size="423px" font-weight="400"><tspan class="TextPosition" x="20529" y="22683"><tspan fill="rgb(0,0,0)" stroke="none">Jižní Korea</tspan></tspan></tspan></text>
</svg>