<?xml version="1.0" encoding="UTF-8"?>
<!DOCTYPE svg PUBLIC "-//W3C//DTD SVG 1.1//EN" "http://www.w3.org/Graphics/SVG/1.1/DTD/svg11.dtd">
<svg width="236mm" height="250mm" viewBox="0 0 23600 25000" version="1.1" xmlns="http://www.w3.org/2000/svg" xmlns:xlink="http://www.w3.org/1999/xlink" stroke-width="28.222" stroke-linejoin="round" xml:space="preserve">
 <path fill="rgb(255,255,255)" stroke="none" d="M 11800,25000 L 0,25000 0,0 23600,0 23600,25000 11800,25000 Z"/>
 <path fill="none" stroke="rgb(179,179,179)" stroke-linejoin="round" d="M 9834,22797 L 1220,22797 1220,1799 18448,1799 18448,22797 9834,22797 Z"/>
 <path fill="none" stroke="rgb(179,179,179)" stroke-linejoin="round" d="M 18448,22796 L 1220,22796"/>
 <path fill="none" stroke="rgb(179,179,179)" stroke-linejoin="round" d="M 18448,19796 L 1220,19796"/>
 <path fill="none" stroke="rgb(179,179,179)" stroke-linejoin="round" d="M 18448,16796 L 1220,16796"/>
 <path fill="none" stroke="rgb(179,179,179)" stroke-linejoin="round" d="M 18448,13796 L 1220,13796"/>
 <path fill="none" stroke="rgb(179,179,179)" stroke-linejoin="round" d="M 18448,10797 L 1220,10797"/>
 <path fill="none" stroke="rgb(179,179,179)" stroke-linejoin="round" d="M 18448,7797 L 1220,7797"/>
 <path fill="none" stroke="rgb(179,179,179)" stroke-linejoin="round" d="M 18448,4797 L 1220,4797"/>
 <path fill="none" stroke="rgb(179,179,179)" stroke-linejoin="round" d="M 18448,1798 L 1220,1798"/>
 <path fill="none" stroke="rgb(179,179,179)" stroke-linejoin="round" d="M 1220,22946 L 1220,22796"/>
 <path fill="none" stroke="rgb(179,179,179)" stroke-linejoin="round" d="M 1220,22946 L 1220,22796"/>
 <path fill="none" stroke="rgb(179,179,179)" stroke-linejoin="round" d="M 2051,22946 L 2051,22796"/>
 <path fill="none" stroke="rgb(179,179,179)" stroke-linejoin="round" d="M 2051,22946 L 2051,22796"/>
 <path fill="none" stroke="rgb(179,179,179)" stroke-linejoin="round" d="M 2883,22946 L 2883,22796"/>
 <path fill="none" stroke="rgb(179,179,179)" stroke-linejoin="round" d="M 2883,22946 L 2883,22796"/>
 <path fill="none" stroke="rgb(179,179,179)" stroke-linejoin="round" d="M 3715,22946 L 3715,22796"/>
 <path fill="none" stroke="rgb(179,179,179)" stroke-linejoin="round" d="M 3715,22946 L 3715,22796"/>
 <path fill="none" stroke="rgb(179,179,179)" stroke-linejoin="round" d="M 4546,22946 L 4546,22796"/>
 <path fill="none" stroke="rgb(179,179,179)" stroke-linejoin="round" d="M 4546,22946 L 4546,22796"/>
 <path fill="none" stroke="rgb(179,179,179)" stroke-linejoin="round" d="M 5378,22946 L 5378,22796"/>
 <path fill="none" stroke="rgb(179,179,179)" stroke-linejoin="round" d="M 5378,22946 L 5378,22796"/>
 <path fill="none" stroke="rgb(179,179,179)" stroke-linejoin="round" d="M 6210,22946 L 6210,22796"/>
 <path fill="none" stroke="rgb(179,179,179)" stroke-linejoin="round" d="M 6210,22946 L 6210,22796"/>
 <path fill="none" stroke="rgb(179,179,179)" stroke-linejoin="round" d="M 7042,22946 L 7042,22796"/>
 <path fill="none" stroke="rgb(179,179,179)" stroke-linejoin="round" d="M 7042,22946 L 7042,22796"/>
 <path fill="none" stroke="rgb(179,179,179)" stroke-linejoin="round" d="M 7873,22946 L 7873,22796"/>
 <path fill="none" stroke="rgb(179,179,179)" stroke-linejoin="round" d="M 7873,22946 L 7873,22796"/>
 <path fill="none" stroke="rgb(179,179,179)" stroke-linejoin="round" d="M 8705,22946 L 8705,22796"/>
 <path fill="none" stroke="rgb(179,179,179)" stroke-linejoin="round" d="M 8705,22946 L 8705,22796"/>
 <path fill="none" stroke="rgb(179,179,179)" stroke-linejoin="round" d="M 9537,22946 L 9537,22796"/>
 <path fill="none" stroke="rgb(179,179,179)" stroke-linejoin="round" d="M 9537,22946 L 9537,22796"/>
 <path fill="none" stroke="rgb(179,179,179)" stroke-linejoin="round" d="M 10369,22946 L 10369,22796"/>
 <path fill="none" stroke="rgb(179,179,179)" stroke-linejoin="round" d="M 10369,22946 L 10369,22796"/>
 <path fill="none" stroke="rgb(179,179,179)" stroke-linejoin="round" d="M 11200,22946 L 11200,22796"/>
 <path fill="none" stroke="rgb(179,179,179)" stroke-linejoin="round" d="M 11200,22946 L 11200,22796"/>
 <path fill="none" stroke="rgb(179,179,179)" stroke-linejoin="round" d="M 12031,22946 L 12031,22796"/>
 <path fill="none" stroke="rgb(179,179,179)" stroke-linejoin="round" d="M 12031,22946 L 12031,22796"/>
 <path fill="none" stroke="rgb(179,179,179)" stroke-linejoin="round" d="M 12863,22946 L 12863,22796"/>
 <path fill="none" stroke="rgb(179,179,179)" stroke-linejoin="round" d="M 12863,22946 L 12863,22796"/>
 <path fill="none" stroke="rgb(179,179,179)" stroke-linejoin="round" d="M 13695,22946 L 13695,22796"/>
 <path fill="none" stroke="rgb(179,179,179)" stroke-linejoin="round" d="M 13695,22946 L 13695,22796"/>
 <path fill="none" stroke="rgb(179,179,179)" stroke-linejoin="round" d="M 14526,22946 L 14526,22796"/>
 <path fill="none" stroke="rgb(179,179,179)" stroke-linejoin="round" d="M 14526,22946 L 14526,22796"/>
 <path fill="none" stroke="rgb(179,179,179)" stroke-linejoin="round" d="M 15358,22946 L 15358,22796"/>
 <path fill="none" stroke="rgb(179,179,179)" stroke-linejoin="round" d="M 15358,22946 L 15358,22796"/>
 <path fill="none" stroke="rgb(179,179,179)" stroke-linejoin="round" d="M 16190,22946 L 16190,22796"/>
 <path fill="none" stroke="rgb(179,179,179)" stroke-linejoin="round" d="M 16190,22946 L 16190,22796"/>
 <path fill="none" stroke="rgb(179,179,179)" stroke-linejoin="round" d="M 17022,22946 L 17022,22796"/>
 <path fill="none" stroke="rgb(179,179,179)" stroke-linejoin="round" d="M 17022,22946 L 17022,22796"/>
 <path fill="none" stroke="rgb(179,179,179)" stroke-linejoin="round" d="M 17853,22946 L 17853,22796"/>
 <path fill="none" stroke="rgb(179,179,179)" stroke-linejoin="round" d="M 17853,22946 L 17853,22796"/>
 <path fill="none" stroke="rgb(179,179,179)" stroke-linejoin="round" d="M 1220,22796 L 18448,22796"/>
 <path fill="none" stroke="rgb(179,179,179)" stroke-linejoin="round" d="M 1070,22796 L 1220,22796"/>
 <path fill="none" stroke="rgb(179,179,179)" stroke-linejoin="round" d="M 1070,22796 L 1220,22796"/>
 <path fill="none" stroke="rgb(179,179,179)" stroke-linejoin="round" d="M 1070,19796 L 1220,19796"/>
 <path fill="none" stroke="rgb(179,179,179)" stroke-linejoin="round" d="M 1070,19796 L 1220,19796"/>
 <path fill="none" stroke="rgb(179,179,179)" stroke-linejoin="round" d="M 1070,16796 L 1220,16796"/>
 <path fill="none" stroke="rgb(179,179,179)" stroke-linejoin="round" d="M 1070,16796 L 1220,16796"/>
 <path fill="none" stroke="rgb(179,179,179)" stroke-linejoin="round" d="M 1070,13796 L 1220,13796"/>
 <path fill="none" stroke="rgb(179,179,179)" stroke-linejoin="round" d="M 1070,13796 L 1220,13796"/>
 <path fill="none" stroke="rgb(179,179,179)" stroke-linejoin="round" d="M 1070,10797 L 1220,10797"/>
 <path fill="none" stroke="rgb(179,179,179)" stroke-linejoin="round" d="M 1070,10797 L 1220,10797"/>
 <path fill="none" stroke="rgb(179,179,179)" stroke-linejoin="round" d="M 1070,7797 L 1220,7797"/>
 <path fill="none" stroke="rgb(179,179,179)" stroke-linejoin="round" d="M 1070,7797 L 1220,7797"/>
 <path fill="none" stroke="rgb(179,179,179)" stroke-linejoin="round" d="M 1070,4797 L 1220,4797"/>
 <path fill="none" stroke="rgb(179,179,179)" stroke-linejoin="round" d="M 1070,4797 L 1220,4797"/>
 <path fill="none" stroke="rgb(179,179,179)" stroke-linejoin="round" d="M 1070,1798 L 1220,1798"/>
 <path fill="none" stroke="rgb(179,179,179)" stroke-linejoin="round" d="M 1070,1798 L 1220,1798"/>
 <path fill="none" stroke="rgb(179,179,179)" stroke-linejoin="round" d="M 1220,22796 L 1220,1798"/>
 <path fill="none" stroke="rgb(255,128,0)" stroke-width="80" stroke-linejoin="round" stroke-dasharray="80,40" d="M 1870,1798 L 1873,9249 1992,2475 1992,1798"/>
 <path fill="none" stroke="rgb(255,128,0)" stroke-width="80" stroke-linejoin="round" stroke-dasharray="80,40" d="M 2228,1798 L 2229,15153 2348,14241 2467,12758 2586,14857 2705,13034 2824,13018 2942,12691 3061,12834 3180,13282 3299,12717 3418,10327 3537,11146 3655,10641 3774,10858 3893,10943 4012,11224 4131,10514 4249,8111 4368,8441 4487,8140 4606,6531 4725,6028 4844,6087 4962,5339 5081,4639 5200,4055 5319,3529 5438,3341 5556,3201 5675,3328 5794,3141 5913,2809 6032,2882 6151,2930 6269,3002 6388,2877 6507,3064 6626,2922 6745,2700 6863,2853 6982,3117 7101,3365 7220,3720 7339,3680 7458,3592 7576,3468 7695,3147 7814,3348 7933,3433 8052,3602 8171,3762 8289,3727 8408,3657 8527,3762 8646,3870 8765,4004 8883,4115 9002,4236 9121,4212 9240,4193 9359,4309 9478,4411 9596,4523 9715,4512 9834,4568 9953,4535 10072,4519 10190,4632 10309,4711 10428,4758 10547,4813 10666,4920 10785,4921 10903,4902 11022,4898 11141,4948 11260,4986 11379,5046 11497,5128 11616,5134 11735,5120 11853,5175 11972,5227 12091,5257 12209,5302 12328,5337 12447,5348 12566,5360 12685,5400 12804,5428 12922,5434 13041,5453 13160,5453 13279,5453 13398,5423 13516,5407 13635,5522 13754,5542 13873,5563 13992,5563 14111,5563 14229,5581 14348,5606 14467,5616 14586,5639 14705,5646 14823,5646 14942,5641 15061,5672 15180,5684 15299,5702 15418,5717 15536,5732 15655,5732 15774,5732 15893,5750 16012,5767 16130,5765 16249,5792 16368,5792 16487,5792 16606,5815 16725,5824 16843,5835 16962,5850 17081,5866 17200,5889 17319,5901 17438,5913 17556,5918 17675,5927 17794,5941 17913,5971 18032,5990 18150,6007 18269,6006 18388,6041"/>
 <path fill="none" stroke="rgb(0,0,255)" stroke-width="80" stroke-linejoin="round" stroke-dasharray="80,40" d="M 2347,1798 L 2348,13603 2467,11074 2586,12624 2705,12561 2824,12515 2942,12299 3061,10653 3180,11957 3299,11383 3418,11659 3537,10817 3655,9891 3774,8959 3893,8206 4012,7947 4131,7432 4249,6904 4368,7572 4487,7129 4606,7062 4725,7213 4844,7057 4962,6741 5081,6414 5200,6158 5319,6411 5438,6513 5556,6685 5675,6624 5794,6544 5913,6873 6032,7049 6151,7217 6269,7451 6388,7582 6507,7525 6626,7442 6745,7656 6863,7812 6982,8015 7101,8101 7220,8134 7339,8117 7458,8108 7576,8299 7695,8478 7814,8670 7933,8717 8052,8738 8171,8745 8289,8732 8408,8810 8527,8979 8646,9019 8765,9159 8883,9159 9002,9046 9121,9097 9240,9383 9359,9499 9478,9565 9596,9603 9715,9652 9834,9650 9953,9725 10072,9827 10190,9934 10309,10021 10428,10113 10547,10174 10666,10177 10785,10179 10903,10200 11022,10282 11141,10356 11260,10430 11379,10469 11497,10470 11616,10486 11735,10525 11853,10571 11972,10614 12091,10674 12209,10703 12328,10708 12447,10727 12566,10729 12685,10772 12804,10796 12922,10828 13041,10853 13160,10860 13279,10889 13398,10907 13516,10943 13635,10970 13754,11006 13873,11006 13992,11006 14111,11047 14229,11077 14348,11112 14467,11145 14586,11177 14705,11177 14823,11177 14942,11206 15061,11251 15180,11251 15299,11309 15418,11331 15536,11331 15655,11331 15774,11352 15893,11352 16012,11350 16130,11374 16249,11399 16368,11399 16487,11399 16606,11432 16725,11464 16843,11493 16962,11562 17081,11606 17200,11606 17319,11606 17438,11637 17556,11663 17675,11663 17794,11683 17913,11691 18032,11691 18150,11691 18269,11691 18388,11681"/>
 <path fill="none" stroke="rgb(131,202,255)" stroke-width="80" stroke-linejoin="round" d="M 4257,1798 L 4368,2788 4487,3536 4606,4230 4725,4846 4844,5348 4962,5471 5081,5776 5200,5750 5319,6238 5438,6827 5556,7287 5675,7713 5794,7996 5913,8467 6032,9000 6151,9485 6269,9919 6388,10257 6507,10486 6626,10650 6745,10892 6863,11142 6982,11749 7101,11972 7220,12019 7339,12185 7458,12271 7576,12479 7695,13246 7814,13461 7933,13646 8052,13946 8171,14080 8289,14144 8408,14291 8527,14504 8646,14633 8765,14907 8883,15037 9002,15149 9121,15255 9240,15338 9359,15464 9478,15553 9596,15639 9715,15723 9834,15794 9953,15849 10072,15961 10190,16051 10309,16194 10428,16274 10547,16369 10666,16431 10785,16454 10903,16513 11022,16532 11141,16553 11260,16609 11379,16645 11497,16663 11616,16679 11735,16740 11853,16774 11972,16813 12091,16864 12209,16911 12328,16954 12447,16971 12566,17014 12685,17037 12804,17061 12922,17096 13041,17105 13160,17115 13279,17127 13398,17160 13516,17211 13635,17224 13754,17246 13873,17273 13992,17279 14111,17287 14229,17313 14348,17324 14467,17329 14586,17338 14705,17348 14823,17352 14942,17354 15061,17366 15180,17387 15299,17394 15418,17401 15536,17408 15655,17416 15774,17419 15893,17426 16012,17440 16130,17443 16249,17448 16368,17454 16487,17458 16606,17461 16725,17466 16843,17470 16962,17475 17081,17483 17200,17486 17319,17488 17438,17492 17556,17494 17675,17501 17794,17521 17913,17524 18032,17530 18150,17535 18269,17536 18388,17540"/>
 <path fill="none" stroke="rgb(255,128,0)" stroke-width="80" stroke-linejoin="round" stroke-dasharray="158,158" d="M 1707,1798 L 1754,7797 1873,7797 1992,7797 2016,1798"/>
 <path fill="none" stroke="rgb(255,128,0)" stroke-width="80" stroke-linejoin="round" stroke-dasharray="158,158" d="M 2213,1798 L 2229,5654 2348,11547 2467,9672 2586,9940 2705,8511 2824,12083 2942,13972 3061,13090 3180,11326 3299,9562 3418,9824 3537,7797 3655,7797 3774,4658 3893,6246 4012,7343 4131,5782 4249,2938 4368,4287 4487,2172 4606,2172 4635,1798"/>
 <path fill="none" stroke="rgb(255,128,0)" stroke-width="80" stroke-linejoin="round" stroke-dasharray="158,158" d="M 5199,1798 L 5200,1860 5216,1798"/>
 <path fill="none" stroke="rgb(255,128,0)" stroke-width="80" stroke-linejoin="round" stroke-dasharray="158,158" d="M 6081,1798 L 6151,4413 6269,5636 6388,5636 6507,5973 6626,5930 6745,5879 6863,6006 6982,6687 7101,6886 7220,6717 7339,6581 7458,6083 7576,7438 7695,8054 7814,8453 7933,9202 8052,9357 8171,9517 8289,9613 8408,10136 8527,11091 8646,11608 8765,12494 8883,12993 9002,13104 9121,12896 9240,12874 9359,13099 9478,13392 9596,13798 9715,14059 9834,14169 9953,14187 10072,14642 10190,14633 10309,15146 10428,15133 10547,15457 10666,15446 10785,15463 10903,15407 11022,15481 11141,15463 11260,15553 11379,15622 11497,15608 11616,15598 11735,15696 11853,15777 11972,15857 12091,15992 12209,16023 12328,16003 12447,15999 12566,16059 12685,16117 12804,16150 12922,16194 13041,16181 13160,16191 13279,16170 13398,16184 13516,16195 13635,16239 13754,16284 13873,16328 13992,16304 14111,16259 14229,16276 14348,16318 14467,16324 14586,16386 14705,16449 14823,16510 14942,16617 15061,16648 15180,16671 15299,16654 15418,16747 15536,16794 15655,16916 15774,16987 15893,17049 16012,17086 16130,17140 16249,17252 16368,17246 16487,17248 16606,17264 16725,17306 16843,17350 16962,17378 17081,17397 17200,17417 17319,17425 17438,17425 17556,17428 17675,17441 17794,17452 17913,17463 18032,17472 18150,17511 18269,17548 18388,17542"/>
 <path fill="none" stroke="rgb(180,120,4)" stroke-width="80" stroke-linejoin="round" stroke-dasharray="80,40" d="M 1398,11547 L 1517,7797 1635,7797 1754,4047 1873,4047 1944,1798"/>
 <path fill="none" stroke="rgb(180,120,4)" stroke-width="80" stroke-linejoin="round" stroke-dasharray="80,40" d="M 2006,1798 L 2111,13322 2229,2271 2247,1798"/>
 <path fill="none" stroke="rgb(180,120,4)" stroke-width="80" stroke-linejoin="round" stroke-dasharray="80,40" d="M 2580,1798 L 2586,2108 2705,4464 2800,1798"/>
 <path fill="none" stroke="rgb(180,120,4)" stroke-width="80" stroke-linejoin="round" stroke-dasharray="80,40" d="M 2838,1798 L 2942,6643 3061,4336 3148,1798"/>
 <path fill="none" stroke="rgb(180,120,4)" stroke-width="80" stroke-linejoin="round" stroke-dasharray="80,40" d="M 4055,1798 L 4131,13986 4249,13762 4368,13539 4487,13093 4606,12536 4725,12425 4844,11868 4962,11756 5081,11533 5200,11422 5319,11087 5438,10752 5556,10529 5675,10195 5794,9860 5913,16505 6032,16505 6151,16297 6269,16037 6388,16037 6507,15829 6626,15725 6745,15621 6863,15569 6982,19739 7101,19739 7220,19673 7339,19652 7458,19608 7576,19608 7695,19586 7814,19564 7933,19521 8052,19499 8171,19499 8289,19499 8408,19477 8527,19411 8646,19390 8765,19302 8883,19259 9002,19237 9121,19193 9240,19193 9359,19171 9478,19128 9596,19106 9715,19062 9834,19062 9953,19040 10072,19018 10190,19018 10309,18975 10428,18975 10547,18975 10666,18975 10785,18887 10903,18887 11022,18887 11141,18866 11260,18866 11379,18866 11497,18866 11616,18822 11735,18800 11853,18800 11972,18800 12091,18800 12209,18800 12328,18800 12447,18778 12566,18756 12685,18713 12804,18691 12922,18669 13041,18647 13160,18647 13279,18647 13398,18647 13516,18647 13635,18625 13754,18625 13873,18625 13992,18625 14111,18625 14229,18604 14348,18604 14467,18604 14586,18604 14705,18604 14823,18604 14942,18604 15061,18582 15180,18582 15299,18582 15418,18582 15536,18582 15655,18582 15774,18582 15893,18582 16012,18582 16130,18582 16249,18560 16368,18560 16487,18560 16606,18538 16725,18494 16843,18429 16962,18407 17081,18407 17200,18407 17319,18385 17438,18385 17556,18363 17675,18363 17794,18363 17913,18298 18032,18298 18150,18254 18269,18232 18388,18232"/>
 <path fill="none" stroke="rgb(255,0,0)" stroke-width="80" stroke-linejoin="round" stroke-dasharray="158,158" d="M 2348,21389 L 2467,19514 2586,18618 2705,16866 2824,15455 2942,16013 3061,14810 3180,16534 3299,13466 3418,11615 3537,11845 3655,9876 3774,8698 3893,9484 4012,10685 4131,9792 4249,9949 4368,10297 4487,11298 4606,11686 4725,11280 4844,11670 4962,11933 5081,12777 5200,13626 5319,14130 5438,14619 5556,15495 5675,15645 5794,15686 5913,15857 6032,16262 6151,16198 6269,16757 6388,16557 6507,16715 6626,16674 6745,16953 6863,16971 6982,17441 7101,17639 7220,17709 7339,17928 7458,18138 7576,18170 7695,18317 7814,18460 7933,18485 8052,18720 8171,18707 8289,18729 8408,18884 8527,18892 8646,19306 8765,19370 8883,19368 9002,19438 9121,19412 9240,19440 9359,19473 9478,19518 9596,19550 9715,19642 9834,19677 9953,19687 10072,19723 10190,19769 10309,19862 10428,19877 10547,19900 10666,19931 10785,19944 10903,19939 11022,19978 11141,19983 11260,20005 11379,20045 11497,20064 11616,20086 11735,20071 11853,20094 11972,20108 12091,20115 12209,20121 12328,20105 12447,20089 12566,20113 12685,20095 12804,20086 12922,20106 13041,20107 13160,20113 13279,20113 13398,20109 13516,20113 13635,20174 13754,20190 13873,20223 13992,20225 14111,20204 14229,20196 14348,20206 14467,20182 14586,20174 14705,20180 14823,20174 14942,20172 15061,20167 15180,20175 15299,20172 15418,20173 15536,20174 15655,20172 15774,20167 15893,20139 16012,20140 16130,20131 16249,20123 16368,20116 16487,20108 16606,20108 16725,20251 16843,20240 16962,20230 17081,20251 17200,20236 17319,20237 17438,20230 17556,20225 17675,20222 17794,20198 17913,20193 18032,20186 18150,20172 18269,20166 18388,20139"/>
 <path fill="none" stroke="rgb(129,212,26)" stroke-width="80" stroke-linejoin="round" stroke-dasharray="80,40" d="M 1754,10797 L 1873,10797 1992,4797 2111,4797 2229,4797 2289,1798"/>
 <path fill="none" stroke="rgb(129,212,26)" stroke-width="80" stroke-linejoin="round" stroke-dasharray="80,40" d="M 5905,1798 L 5913,20424 6032,20297 6151,20216 6269,19501 6388,19342 6507,19264 6626,19215 6745,19030 6863,20129 6982,20035 7101,19961 7220,19914 7339,19875 7458,19840 7576,19795 7695,20385 7814,20336 7933,20290 8052,20260 8171,20239 8289,20223 8408,20187 8527,20489 8646,20475 8765,20457 8883,20434 9002,20418 9121,20412 9240,20390 9359,20558 9478,20541 9596,20528 9715,20511 9834,20505 9953,20508 10072,20495 10190,20580 10309,20570 10428,20561 10547,20553 10666,20552 10785,20555 10903,20544 11022,20603 11141,20596 11260,20588 11379,20578 11497,20576 11616,20571 11735,20561 11853,20555 11972,20545 12091,20542 12209,20542 12328,20541 12447,20541 12566,20537 12685,20535 12804,20530 12922,20530 13041,20529 13160,20529 13279,20526 13398,20522 13516,20579 13635,20578 13754,20574 13873,20569 13992,20568 14111,20568 14229,20567 14348,20564 14467,20564 14586,20561 14705,20560 14823,20560 14942,20560 15061,20559 15180,20564 15299,20558 15418,20556 15536,20554 15655,20554 15774,20554 15893,20554 16012,20551 16130,20550 16249,20546 16368,20545 16487,20545 16606,20545 16725,20545 16843,20543 16962,20532 17081,20532 17200,20531 17319,20531 17438,20531 17556,20531 17675,20531 17794,20532 17913,20532 18032,20532 18150,20532 18269,20532 18388,20532"/>
 <path fill="none" stroke="rgb(131,202,255)" stroke-width="80" stroke-linejoin="round" stroke-dasharray="158,158" d="M 2705,7797 L 2824,4797 2863,1798"/>
 <path fill="none" stroke="rgb(131,202,255)" stroke-width="80" stroke-linejoin="round" stroke-dasharray="158,158" d="M 3612,1798 L 3655,15510 3774,14224 3893,14441 4012,12164 4131,13972 4249,12209 4368,12796 4487,12718 4606,12942 4725,12661 4844,12197 4962,11942 5081,11744 5200,11706 5319,12280 5438,11418 5556,11744 5675,11235 5794,10828 5913,11071 6032,11236 6151,11565 6269,11423 6388,11701 6507,11666 6626,11530 6745,11228 6863,11188 6982,11080 7101,10952 7220,10998 7339,10847 7458,10722 7576,10748 7695,10724 7814,10773 7933,10892 8052,10915 8171,10844 8289,10844 8408,10982 8527,10912 8646,11224 8765,11353 8883,11437 9002,11368 9121,20459 9240,20464 9359,20445 9478,20422 9596,20422 9715,20422 9834,20400 9953,20411 10072,20388 10190,20403 10309,20406 10428,20408 10547,20408 10666,20410 10785,20388 10903,20388 11022,20388 11141,20389 11260,20389 11379,20389 11497,20389 11616,20389 11735,20389 11853,20389 11972,20389 12091,20389 12209,20389 12328,20389 12447,20389 12566,20389 12685,20389 12804,20389 12922,20389 13041,20389 13160,20419 13279,20419 13398,20419 13516,20419 13635,20419 13754,20419 13873,20419 13992,20390 14111,20390 14229,20390 14348,20390 14467,20390 14586,20390 14705,20390 14823,20390 14942,20390 15061,20455 15180,20465 15299,20465 15418,20465 15536,20465 15655,20529 15774,20535 15893,20558 16012,20577 16130,20608 16249,20608 16368,20672 16487,20653 16606,20681 16725,20691 16843,20702 16962,20719 17081,20740 17200,20722 17319,20722 17438,20788 17556,20781 17675,20802 17794,20824 17913,20809 18032,20835 18150,20824 18269,20797 18388,20805"/>
 <path fill="none" stroke="rgb(191,0,65)" stroke-width="80" stroke-linejoin="round" stroke-dasharray="51,127,51,127,254,127,254,127,254,127" d="M 1279,13796 L 1398,8951 1517,8797 1635,15523 1754,16517 1873,16274 1992,14015 2111,12796 2229,16720 2348,16039 2467,14147 2586,12939 2705,12248 2824,10919 2942,12561 3061,11623 3180,12077 3299,10461 3418,9184 3537,9903 3655,10437 3774,8282 3893,9694 4012,9786 4131,9655 4249,9877 4368,10181 4487,11184 4606,11809 4725,12080 4844,12547 4962,12977 5081,13452 5200,14370 5319,15036 5438,15565 5556,15926 5675,16038 5794,16303 5913,16606 6032,16977 6151,17166 6269,17528 6388,17589 6507,17713 6626,17817 6745,17924 6863,18089 6982,18323 7101,18437 7220,18508 7339,18600 7458,18678 7576,18757 7695,18900 7814,18989 7933,19118 8052,19209 8171,19221 8289,19256 8408,19367 8527,19404 8646,19576 8765,19623 8883,19656 9002,19698 9121,19802 9240,19828 9359,19863 9478,19940 9596,19976 9715,20018 9834,20042 9953,20046 10072,20106 10190,20138 10309,20194 10428,20199 10547,20225 10666,20245 10785,20257 10903,20258 11022,20277 11141,20296 11260,20302 11379,20323 11497,20337 11616,20348 11735,20346 11853,20354 11972,20373 12091,20378 12209,20385 12328,20378 12447,20378 12566,20393 12685,20394 12804,20393 12922,20409 13041,20419 13160,20440 13279,20455 13398,20465 13516,20477 13635,20510 13754,20528 13873,20563 13992,20581 14111,20584 14229,20588 14348,20603 14467,20604 14586,20610 14705,20624 14823,20640 14942,20646 15061,20651 15180,20671 15299,20688 15418,20704 15536,20720 15655,20734 15774,20747 15893,20744 16012,20767 16130,20779 16249,20795 16368,20803 16487,20809 16606,20817 16725,20856 16843,20864 16962,20878 17081,20896 17200,20905 17319,20947 17438,20948 17556,20949 17675,20947 17794,20946 17913,20948 18032,20952 18150,20951 18269,20952 18388,20951"/>
 <path fill="none" stroke="rgb(0,169,51)" stroke-width="80" stroke-linejoin="round" stroke-dasharray="158,158" d="M 2721,1798 L 2824,11547 2942,12796 3061,3707 3180,5654 3299,8680 3418,8680 3537,7797 3655,10797 3774,8797 3893,7797 4012,6581 4131,5874 4249,6369 4368,5654 4487,7797 4606,8908 4725,9249 4844,10003 4962,9276 5081,9834 5200,12510 5319,13452 5438,14073 5556,14757 5675,14970 5794,15071 5913,14855 6032,14348 6151,14585 6269,14573 6388,14420 6507,14601 6626,14349 6745,14958 6863,14895 6982,15352 7101,15405 7220,15270 7339,15685 7458,15506 7576,15778 7695,15796 7814,16233 7933,16362 8052,16398 8171,16647 8289,16744 8408,16808 8527,17024 8646,17203 8765,17181 8883,17298 9002,17378 9121,17404 9240,17595 9359,17708 9478,17844 9596,17919 9715,18118 9834,18153 9953,18271 10072,18364 10190,18421 10309,18630 10428,18780 10547,18877 10666,18885 10785,18942 10903,18949 11022,19164 11141,19460 11260,19364 11379,19689 11497,19695 11616,19695 11735,19709 11853,19785 11972,19810 12091,19789 12209,19801 12328,19778 12447,19836 12566,19807 12685,19859 12804,19859 12922,19912 13041,19850 13160,19917 13279,19935 13398,19981 13516,20025 13635,20125 13754,20170 13873,20177 13992,20176 14111,20205 14229,20217 14348,20239 14467,20312 14586,20316 14705,20301 14823,20264 14942,20296 15061,20287 15180,20341 15299,20361 15418,20374 15536,20376 15655,20373 15774,20441 15893,20478 16012,20538 16130,20557 16249,20586 16368,20598 16487,20604 16606,20598 16725,20719 16843,20722 16962,20834 17081,20871 17200,20885 17319,20891 17438,20932 17556,20949 17675,20947 17794,20978 17913,20977 18032,20990 18150,20983 18269,20982 18388,21008"/>
 <path fill="none" stroke="rgb(0,169,51)" stroke-width="80" stroke-linejoin="round" stroke-dasharray="80,40" d="M 1635,13565 L 1754,11259 1873,11259 1881,1798"/>
 <path fill="none" stroke="rgb(0,169,51)" stroke-width="80" stroke-linejoin="round" stroke-dasharray="80,40" d="M 3889,1798 L 3893,2366 4003,1798"/>
 <path fill="none" stroke="rgb(0,169,51)" stroke-width="80" stroke-linejoin="round" stroke-dasharray="80,40" d="M 4016,1798 L 4131,2983 4249,2536 4321,1798"/>
 <path fill="none" stroke="rgb(0,169,51)" stroke-width="80" stroke-linejoin="round" stroke-dasharray="80,40" d="M 4387,1798 L 4487,4417 4606,5722 4725,6157 4844,6943 4962,7705 5081,10030 5200,9953 5319,10627 5438,11296 5556,12185 5675,12412 5794,12734 5913,13521 6032,14349 6151,14968 6269,15172 6388,15402 6507,15710 6626,15959 6745,16061 6863,16607 6982,16825 7101,17201 7220,17501 7339,17640 7458,17682 7576,17777 7695,18072 7814,18137 7933,18305 8052,18464 8171,18584 8289,18612 8408,18690 8527,18766 8646,18840 8765,18862 8883,18970 9002,19071 9121,19115 9240,19197 9359,19269 9478,19346 9596,19421 9715,19477 9834,19546 9953,19539 10072,19730 10190,19810 10309,19847 10428,19847 10547,19906 10666,19964 10785,19981 10903,20002 11022,20011 11141,20055 11260,20047 11379,20059 11497,20096 11616,20104 11735,20106 11853,20098 11972,20134 12091,20140 12209,20164 12328,20166 12447,20176 12566,20192 12685,20210 12804,20218 12922,20246 13041,20300 13160,20357 13279,20408 13398,20448 13516,20486 13635,20525 13754,20565 13873,20640 13992,20696 14111,20723 14229,20733 14348,20762 14467,20780 14586,20800 14705,20834 14823,20879 14942,20892 15061,20904 15180,20936 15299,20969 15418,20997 15536,21029 15655,21060 15774,21077 15893,21079 16012,21117 16130,21131 16249,21157 16368,21173 16487,21187 16606,21197 16725,21201 16843,21214 16962,21225 17081,21244 17200,21256 17319,21265 17438,21265 17556,21268 17675,21264 17794,21272 17913,21281 18032,21294 18150,21299 18269,21306 18388,21308"/>
 <path fill="none" stroke="rgb(128,0,128)" stroke-width="80" stroke-linejoin="round" stroke-dasharray="80,40" d="M 4584,1798 L 4606,10575 4725,10019 4844,15682 4962,15667 5081,14182 5200,16274 5319,17402 5438,18081 5556,18454 5675,18457 5794,18209 5913,18970 6032,19602 6151,19788 6269,20005 6388,20122 6507,20162 6626,20201 6745,20333 6863,20398 6982,20504 7101,20523 7220,20612 7339,20622 7458,20633 7576,20760 7695,20790 7814,20806 7933,20874 8052,21020 8171,20984 8289,20995 8408,21031 8527,21011 8646,21061 8765,21117 8883,21126 9002,21111 9121,21020 9240,21039 9359,21080 9478,21051 9596,21148 9715,21130 9834,21135 9953,21135 10072,21122 10190,21123 10309,21086 10428,21118 10547,21087 10666,21097 10785,21097 10903,21090 11022,21105 11141,21122 11260,21160 11379,21183 11497,21192 11616,21195 11735,21181 11853,21174 11972,21178 12091,21210 12209,21207 12328,21219 12447,21200 12566,21213 12685,21220 12804,21222 12922,21236 13041,21245 13160,21250 13279,21250 13398,21238 13516,21219 13635,21229 13754,21237 13873,21239 13992,21239 14111,21248 14229,21251 14348,21260 14467,21272 14586,21256 14705,21262 14823,21262 14942,21264 15061,21264 15180,21269 15299,21280 15418,21285 15536,21295 15655,21287 15774,21287 15893,21287 16012,21297 16130,21308 16249,21310 16368,21296 16487,21296 16606,21297 16725,21297 16843,21302 16962,21306 17081,21310 17200,21310 17319,21310 17438,21314 17556,21317 17675,21335 17794,21335 17913,21336 18032,21336 18150,21336 18269,21337 18388,21338"/>
 <path fill="none" stroke="rgb(128,0,128)" stroke-width="80" stroke-linejoin="round" stroke-dasharray="158,158" d="M 1754,12796 L 1873,2797 1885,1798"/>
 <path fill="none" stroke="rgb(128,0,128)" stroke-width="80" stroke-linejoin="round" stroke-dasharray="158,158" d="M 6021,1798 L 6032,2194 6151,2315 6269,1934 6388,2124 6507,2414 6626,2282 6745,2322 6863,2940 6982,3265 7101,4455 7220,4431 7339,4272 7458,4170 7576,4312 7695,7060 7814,8116 7933,8999 8052,9280 8171,9439 8289,9333 8408,11217 8527,11719 8646,11690 8765,12070 8883,13353 9002,14914 9121,17052 9240,16979 9359,16923 9478,16858 9596,17701 9715,17726 9834,20546 9953,20557 10072,20571 10190,20579 10309,20592 10428,20602 10547,20613 10666,20616 10785,20611 10903,20627 11022,20634 11141,20648 11260,20654 11379,20670 11497,20682 11616,20690 11735,20698 11853,20730 11972,20745 12091,20762 12209,20774 12328,20788 12447,20800 12566,20829 12685,20858 12804,20891 12922,20924 13041,20955 13160,20987 13279,20994 13398,21007 13516,21021 13635,21034 13754,21044 13873,21052 13992,21062 14111,21066 14229,21077 14348,21092 14467,21101 14586,21109 14705,21122 14823,21127 14942,21129 15061,21136 15180,21149 15299,21154 15418,21169 15536,21177 15655,21184 15774,21191 15893,21210 16012,21230 16130,21245 16249,21257 16368,21272 16487,21277 16606,21283 16725,21288 16843,21294 16962,21307 17081,21315 17200,21325 17319,21333 17438,21338 17556,21346 17675,21353 17794,21362 17913,21369 18032,21379 18150,21386 18269,21391 18388,21398"/>
 <path fill="none" stroke="rgb(180,120,4)" stroke-width="80" stroke-linejoin="round" d="M 3470,1798 L 3537,19582 3655,19647 3774,19556 3893,19293 4012,19038 4131,19028 4249,19039 4368,19086 4487,19020 4606,18954 4725,19101 4844,19221 4962,19238 5081,19460 5200,19626 5319,19789 5438,19973 5556,20221 5675,20335 5794,20368 5913,20525 6032,20612 6151,20675 6269,20680 6388,20655 6507,20683 6626,20712 6745,20733 6863,20769 6982,20784 7101,20803 7220,20784 7339,20774 7458,20765 7576,20781 7695,20821 7814,20845 7933,20868 8052,20892 8171,20910 8289,20920 8408,20994 8527,20991 8646,21006 8765,21036 8883,21045 9002,21054 9121,21065 9240,21076 9359,21088 9478,21085 9596,21106 9715,21118 9834,21126 9953,21134 10072,21146 10190,21151 10309,21154 10428,21163 10547,21168 10666,21165 10785,21167 10903,21167 11022,21177 11141,21182 11260,21176 11379,21183 11497,21183 11616,21177 11735,21185 11853,21193 11972,21201 12091,21204 12209,21201 12328,21206 12447,21207 12566,21211 12685,21220 12804,21222 12922,21228 13041,21228 13160,21228 13279,21232 13398,21235 13516,21239 13635,21244 13754,21248 13873,21248 13992,21248 14111,21259 14229,21264 14348,21267 14467,21277 14586,21283 14705,21283 14823,21283 14942,21295 15061,21296 15180,21298 15299,21304 15418,21308 15536,21308 15655,21308 15774,21312 15893,21315 16012,21318 16130,21319 16249,21319 16368,21319 16487,21319 16606,21324 16725,21325 16843,21326 16962,21327 17081,21329 17200,21329 17319,21329 17438,21338 17556,21342 17675,21344 17794,21346 17913,21352 18032,21352 18150,21352 18269,21362 18388,21365"/>
 <path fill="none" stroke="rgb(52,42,6)" stroke-width="80" stroke-linejoin="round" d="M 1279,18231 L 1398,16926 1517,15622 1635,15184 1754,12051 1873,14796 1992,11116 2111,11630 2229,11982 2348,12196 2467,8925 2586,21343 2705,21053 2824,21384 2942,21255 3061,21264 3180,21060 3299,21362 3418,21351 3537,21320 3655,21316 3774,21239 3893,21155 4012,21140 4131,20904 4249,21119 4368,21274 4487,21303 4606,21256 4725,21366 4844,21292 4962,21305 5081,21347 5200,21224 5319,21217 5438,21225 5556,21229 5675,21232 5794,21201 5913,21210 6032,21202 6151,21177 6269,21222 6388,21190 6507,21195 6626,21191 6745,21182 6863,21184 6982,21187 7101,21203 7220,21211 7339,21218 7458,21215 7576,21243 7695,21236 7814,21231 7933,21206 8052,21215 8171,21223 8289,21217 8408,21219 8527,21210 8646,21222 8765,21233 8883,21235 9002,21245 9121,21247 9240,21238 9359,21239 9478,21239 9596,21244 9715,21244 9834,21245 9953,21249 10072,21245 10190,21243 10309,21240 10428,21242 10547,21244 10666,21246 10785,21246 10903,21254 11022,21254 11141,21253 11260,21254 11379,21256 11497,21256 11616,21257 11735,21255 11853,21257 11972,21256 12091,21260 12209,21262 12328,21261 12447,21266 12566,21265 12685,21266 12804,21264 12922,21263 13041,21267 13160,21268 13279,21271 13398,21275 13516,21277 13635,21278 13754,21277 13873,21280 13992,21281 14111,21281 14229,21281 14348,21289 14467,21293 14586,21296 14705,21301 14823,21306 14942,21310 15061,21312 15180,21314 15299,21317 15418,21318 15536,21319 15655,21320 15774,21325 15893,21324 16012,21331 16130,21333 16249,21337 16368,21339 16487,21340 16606,21345 16725,21345 16843,21348 16962,21351 17081,21353 17200,21354 17319,21355 17438,21357 17556,21359 17675,21363 17794,21363 17913,21366 18032,21370 18150,21372 18269,21377 18388,21380"/>
 <path fill="none" stroke="rgb(129,212,26)" stroke-width="80" stroke-linejoin="round" stroke-dasharray="158,158" d="M 2229,19796 L 2348,19796 2467,19796 2586,19796 2705,13796 2824,7797 2942,1798 2942,1798"/>
 <path fill="none" stroke="rgb(129,212,26)" stroke-width="80" stroke-linejoin="round" stroke-dasharray="158,158" d="M 3609,1798 L 3655,20896 3774,20796 3893,20296 4012,19996 4131,20096 4249,19396 4368,18796 4487,18596 4606,17996 4725,17896 4844,17196 4962,16896 5081,16396 5200,15596 5319,21472 5438,21349 5556,21207 5675,21137 5794,21326 5913,20681 6032,20561 6151,20216 6269,20672 6388,20564 6507,20516 6626,20480 6745,20663 6863,20588 6982,20686 7101,20616 7220,20596 7339,20496 7458,20738 7576,20687 7695,20636 7814,20610 7933,20846 8052,20808 8171,20793 8289,20763 8408,20877 8527,20814 8646,20793 8765,21038 8883,21014 9002,21008 9121,20996 9240,20990 9359,20896 9478,20883 9596,20883 9715,20883 9834,20877 9953,20984 10072,20960 10190,20954 10309,21088 10428,21083 10547,21072 10666,21050 10785,21061 10903,21050 11022,21045 11141,21130 11260,21130 11379,21130 11497,21125 11616,21125 11735,21120 11853,21120 11972,21223 12091,21223 12209,21223 12328,21218 12447,21218 12566,21218 12685,21218 12804,21218 12922,21218 13041,21218 13160,21218 13279,21263 13398,21263 13516,21309 13635,21309 13754,21305 13873,21305 13992,21305 14111,21305 14229,21305 14348,21327 14467,21327 14586,21322 14705,21322 14823,21322 14942,21322 15061,21322 15180,21344 15299,21344 15418,21344 15536,21344 15655,21344 15774,21344 15893,21344 16012,21365 16130,21365 16249,21365 16368,21365 16487,21365 16606,21365 16725,21365 16843,21374 16962,21374 17081,21369 17200,21369 17319,21369 17438,21369 17556,21369 17675,21375 17794,21375 17913,21375 18032,21375 18150,21375 18269,21375 18388,21367"/>
 <path fill="none" stroke="rgb(0,169,51)" stroke-width="80" stroke-linejoin="round" d="M 1279,17796 L 1398,17796 1517,17796 1635,7797 1645,1798"/>
 <path fill="none" stroke="rgb(0,169,51)" stroke-width="80" stroke-linejoin="round" d="M 1861,1798 L 1873,9464 1992,2797 2111,2797 2128,1798"/>
 <path fill="none" stroke="rgb(0,169,51)" stroke-width="80" stroke-linejoin="round" d="M 2813,1798 L 2824,9672 2942,15063 3061,13729 3180,17410 3299,17701 3418,19289 3537,19746 3655,20086 3774,20303 3893,20570 4012,20754 4131,20890 4249,20994 4368,20980 4487,21107 4606,21217 4725,21265 4844,21293 4962,21292 5081,21286 5200,21340 5319,21427 5438,21463 5556,21494 5675,21504 5794,21469 5913,21453 6032,21445 6151,21456 6269,21456 6388,21467 6507,21472 6626,21463 6745,21439 6863,21434 6982,21438 7101,21448 7220,21439 7339,21439 7458,21444 7576,21445 7695,21458 7814,21462 7933,21464 8052,21471 8171,21470 8289,21473 8408,21475 8527,21487 8646,21492 8765,21494 8883,21496 9002,21500 9121,21504 9240,21504 9359,21520 9478,21525 9596,21526 9715,21521 9834,21521 9953,21525 10072,21525 10190,21525 10309,21485 10428,21490 10547,21504 10666,21510 10785,21511 10903,21511 11022,21513 11141,21517 11260,21515 11379,21519 11497,21519 11616,21523 11735,21526 11853,21527 11972,21528 12091,21529 12209,21527 12328,21531 12447,21530 12566,21526 12685,21515 12804,21514 12922,21517 13041,21520 13160,21518 13279,21521 13398,21517 13516,21519 13635,21512 13754,21515 13873,21513 13992,21511 14111,21511 14229,21512 14348,21513 14467,21515 14586,21518 14705,21522 14823,21521 14942,21523 15061,21526 15180,21529 15299,21532 15418,21535 15536,21540 15655,21543 15774,21546 15893,21550 16012,21555 16130,21559 16249,21565 16368,21577 16487,21584 16606,21588 16725,21593 16843,21601 16962,21607 17081,21613 17200,21617 17319,21623 17438,21623 17556,21632 17675,21636 17794,21639 17913,21647 18032,21657 18150,21661 18269,21666 18388,21680"/>
 <path fill="none" stroke="rgb(255,191,0)" stroke-width="80" stroke-linejoin="round" d="M 2348,17796 L 2467,17796 2586,13796 2705,4797 2744,1798"/>
 <path fill="none" stroke="rgb(255,191,0)" stroke-width="80" stroke-linejoin="round" d="M 3412,1798 L 3418,2131 3537,3617 3655,3096 3720,1798"/>
 <path fill="none" stroke="rgb(255,191,0)" stroke-width="80" stroke-linejoin="round" d="M 4008,1798 L 4012,1860 4131,3459 4249,7448 4368,10050 4487,11634 4606,12479 4725,13380 4844,13874 4962,14530 5081,15272 5200,16715 5319,17580 5438,18375 5556,18370 5675,18497 5794,19063 5913,19356 6032,19658 6151,19868 6269,20088 6388,20130 6507,20202 6626,20428 6745,20486 6863,20604 6982,20659 7101,20660 7220,20672 7339,20721 7458,20810 7576,20871 7695,20926 7814,20942 7933,20940 8052,20934 8171,20918 8289,21000 8408,21059 8527,21072 8646,21118 8765,21151 8883,21158 9002,21159 9121,21216 9240,21213 9359,21231 9478,21246 9596,21242 9715,21237 9834,21241 9953,21257 10072,21279 10190,21303 10309,21314 10428,21323 10547,21334 10666,21332 10785,21346 10903,21346 11022,21351 11141,21359 11260,21370 11379,21371 11497,21372 11616,21389 11735,21400 11853,21403 11972,21422 12091,21428 12209,21432 12328,21430 12447,21439 12566,21446 12685,21445 12804,21449 12922,21451 13041,21447 13160,21451 13279,21458 13398,21449 13516,21439 13635,21442 13754,21430 13873,21433 13992,21441 14111,21448 14229,21448 14348,21453 14467,21442 14586,21446 14705,21455 14823,21468 14942,21462 15061,21464 15180,21481 15299,21496 15418,21509 15536,21512 15655,21515 15774,21531 15893,21534 16012,21544 16130,21563 16249,21565 16368,21566 16487,21566 16606,21577 16725,21585 16843,21601 16962,21622 17081,21621 17200,21641 17319,21822 17438,21816 17556,21814 17675,21814 17794,21805 17913,21805 18032,21804 18150,21803 18269,21806 18388,21823"/>
 <path fill="none" stroke="rgb(85,48,141)" stroke-width="80" stroke-linejoin="round" stroke-dasharray="80,40" d="M 2705,19046 L 2824,19046 2942,20068 3061,21296 3180,18296 3299,18296 3418,18180 3537,18250 3655,15463 3774,15296 3893,16186 4012,15538 4131,13602 4249,13666 4368,12796 4487,14121 4606,15054 4725,15054 4844,15143 4962,14561 5081,14709 5200,13822 5319,14676 5438,14934 5556,15759 5675,15479 5794,15523 5913,15163 6032,15622 6151,15765 6269,16097 6388,16743 6507,16487 6626,16358 6745,16546 6863,16440 6982,16531 7101,16630 7220,16585 7339,16425 7458,16425 7576,16474 7695,16546 7814,16642 7933,20409 8052,20386 8171,20396 8289,20359 8408,20440 8527,20440 8646,20749 8765,20748 8883,20772 9002,20781 9121,20749 9240,20749 9359,20787 9478,21505 9596,21522 9715,21537 9834,21542 9953,21528 10072,21539 10190,21527 10309,21538 10428,21547 10547,21556 10666,21539 10785,21540 10903,21546 11022,21541 11141,21551 11260,21554 11379,21560 11497,21564 11616,21566 11735,21566 11853,21571 11972,21576 12091,21580 12209,21581 12328,21581 12447,21590 12566,21598 12685,21608 12804,21611 12922,21616 13041,21618 13160,21622 13279,21623 13398,21627 13516,21635 13635,21639 13754,21644 13873,21653 13992,21657 14111,21657 14229,21664 14348,21668 14467,21672 14586,21682 14705,21689 14823,21691 14942,21692 15061,21694 15180,21696 15299,21700 15418,21703 15536,21703 15655,21703 15774,21703 15893,21704 16012,21707 16130,21708 16249,21712 16368,21713 16487,21713 16606,21713 16725,21713 16843,21713 16962,21713 17081,21715 17200,21715 17319,21719 17438,21719 17556,21720 17675,21721 17794,21721 17913,21723 18032,21725 18150,21818 18269,21819 18388,21820"/>
 <path fill="none" stroke="rgb(131,202,255)" stroke-width="80" stroke-linejoin="round" stroke-dasharray="80,40" d="M 1992,16796 L 2111,16796 2229,16796 2348,16796 2467,16796 2586,16796 2705,21432 2824,18705 2942,20363 3061,19462 3180,19334 3299,20109 3418,20109 3537,20330 3655,20409 3774,20187 3893,19770 4012,19196 4131,19103 4249,19562 4368,19611 4487,20056 4606,20068 4725,20845 4844,20946 4962,20921 5081,20555 5200,20703 5319,20811 5438,20996 5556,20893 5675,20807 5794,20967 5913,20998 6032,21139 6151,21097 6269,21238 6388,21229 6507,21300 6626,21278 6745,21261 6863,21235 6982,21260 7101,21212 7220,21217 7339,21204 7458,21219 7576,21199 7695,21203 7814,21223 7933,21268 8052,21283 8171,21265 8289,21265 8408,21286 8527,21258 8646,21271 8765,21271 8883,21306 9002,21323 9121,21331 9240,21331 9359,21340 9478,21324 9596,21319 9715,21327 9834,21330 9953,21321 10072,21315 10190,21315 10309,21304 10428,21295 10547,21298 10666,21304 10785,21308 10903,21316 11022,21321 11141,21328 11260,21333 11379,21325 11497,21328 11616,21329 11735,21303 11853,21303 11972,21304 12091,21291 12209,21291 12328,21291 12447,21296 12566,21296 12685,21296 12804,21297 12922,21297 13041,21297 13160,21297 13279,21297 13398,21297 13516,21299 13635,21302 13754,21303 13873,21304 13992,21304 14111,21306 14229,21306 14348,21292 14467,21264 14586,21246 14705,21243 14823,21252 14942,21262 15061,21275 15180,21294 15299,21310 15418,21319 15536,21360 15655,21360 15774,21376 15893,21388 16012,21426 16130,21476 16249,21521 16368,21566 16487,21603 16606,21615 16725,21636 16843,21652 16962,21664 17081,21715 17200,21739 17319,21740 17438,21736 17556,21754 17675,21764 17794,21762 17913,21776 18032,21793 18150,21773 18269,21761 18388,21773"/>
 <path fill="none" stroke="rgb(255,191,0)" stroke-width="80" stroke-linejoin="round" stroke-dasharray="158,158" d="M 4050,1798 L 4131,20921 4249,19046 4368,19046 4487,17171 4606,17171 4725,17171 4844,13421 4962,13421 5081,13421 5200,19387 5319,20164 5438,21091 5556,21091 5675,21091 5794,21091 5913,20766 6032,20314 6151,20314 6269,21447 6388,21447 6507,21447 6626,21335 6745,21335 6863,21502 6982,21502 7101,21416 7220,21416 7339,21416 7458,21416 7576,21330 7695,21696 7814,21632 7933,21632 8052,21632 8171,21632 8289,21632 8408,21934 8527,21886 8646,21886 8765,21935 8883,21935 9002,21935 9121,21935 9240,21888 9359,21888 9478,21845 9596,21869 9715,21869 9834,21869 9953,21869 10072,21905 10190,21864 10309,21824 10428,21829 10547,21829 10666,21829 10785,21829 10903,21848 11022,21848 11141,21809 11260,21835 11379,21835 11497,21835 11616,21797 11735,21813 11853,21813 11972,21842 12091,21805 12209,21801 12328,21801 12447,21801 12566,21836 12685,21767 12804,21799 12922,21799 13041,21799 13160,21799 13279,21799 13398,21799 13516,21799 13635,21799 13754,21830 13873,21830 13992,21830 14111,21830 14229,21872 14348,21872 14467,21885 14586,21893 14705,21896 14823,21896 14942,21896 15061,21903 15180,21903 15299,21912 15418,21912 15536,21912 15655,21912 15774,21883 15893,21886 16012,21886 16130,21886 16249,21886 16368,21886 16487,21886 16606,21886 16725,21906 16843,21906 16962,21906 17081,21906 17200,21906 17319,21906 17438,21906 17556,21912 17675,21912 17794,21912 17913,21883 18032,21883 18150,21883 18269,21883 18388,21898"/>
 <path fill="none" stroke="rgb(241,13,12)" stroke-width="80" stroke-linejoin="round" stroke-dasharray="80,40" d="M 2348,12796 L 2467,12796 2532,1798"/>
 <path fill="none" stroke="rgb(241,13,12)" stroke-width="80" stroke-linejoin="round" stroke-dasharray="80,40" d="M 2838,1798 L 2942,12796 3061,12796 3180,12796 3299,13251 3418,12362 3537,13153 3655,12083 3774,11011 3893,12796 4012,15499 4131,16796 4249,17051 4368,17603 4487,17135 4606,17623 4725,17878 4844,17719 4962,17257 5081,17257 5200,17257 5319,18120 5438,18120 5556,18239 5675,18351 5794,18351 5913,19122 6032,18816 6151,18816 6269,18510 6388,19958 6507,19958 6626,19755 6745,19755 6863,19755 6982,21275 7101,21275 7220,21275 7339,21275 7458,21275 7576,21275 7695,21275 7814,21671 7933,21671 8052,21673 8171,21599 8289,21599 8408,21727 8527,21660 8646,21735 8765,21735 8883,21805 9002,21805 9121,21805 9240,21805 9359,21807 9478,21886 9596,21886 9715,21937 9834,21937 9953,21937 10072,21937 10190,21937 10309,22145 10428,22145 10547,22150 10666,22150 10785,22150 10903,22150 11022,22150 11141,22150 11260,22164 11379,22126 11497,22126 11616,22126 11735,22126 11853,22126 11972,22126 12091,22126 12209,22126 12328,22126 12447,22126 12566,22134 12685,22134 12804,22099 12922,22099 13041,22104 13160,22104 13279,22104 13398,22104 13516,22104 13635,22104 13754,22104 13873,22104 13992,22111 14111,22111 14229,22111 14348,22111 14467,22111 14586,22116 14705,22116 14823,22116 14942,22116 15061,22116 15180,22116 15299,22116 15418,22116 15536,22116 15655,22116 15774,22116 15893,22116 16012,22116 16130,22121 16249,22121 16368,22121 16487,22121 16606,22123 16725,22123 16843,22123 16962,22123 17081,22123 17200,22127 17319,22127 17438,22127 17556,22127 17675,22127 17794,22127 17913,22127 18032,22127 18150,22130 18269,22130 18388,22130"/>
 <path fill="none" stroke="rgb(0,0,255)" stroke-width="80" stroke-linejoin="round" d="M 2908,1798 L 2942,11547 3061,9297 3180,7047 3299,6297 3418,14171 3537,11922 3655,11547 3774,20936 3893,20936 4012,20636 4131,20336 4249,20156 4368,20036 4487,19676 4606,19556 4725,19076 4844,18836 4962,18656 5081,18776 5200,18860 5319,19046 5438,19065 5556,19202 5675,19303 5794,19263 5913,19303 6032,19420 6151,19375 6269,21948 6388,21970 6507,21945 6626,21950 6745,21941 6863,21944 6982,21955 7101,21937 7220,21964 7339,21943 7458,21950 7576,21951 7695,21944 7814,21940 7933,21945 8052,21942 8171,21951 8289,21954 8408,21948 8527,21944 8646,21952 8765,21948 8883,21952 9002,21928 9121,21931 9240,21916 9359,21918 9478,21921 9596,21923 9715,21925 9834,21920 9953,21923 10072,21923 10190,21925 10309,21928 10428,21931 10547,21931 10666,21935 10785,21937 10903,21938 11022,21941 11141,21944 11260,21946 11379,21947 11497,21949 11616,21950 11735,21950 11853,21950 11972,21952 12091,21953 12209,21954 12328,21956 12447,21956 12566,21956 12685,21957 12804,21958 12922,21959 13041,21960 13160,21961 13279,21962 13398,21962 13516,21963 13635,21964 13754,21964 13873,21966 13992,21966 14111,21970 14229,21970 14348,21971 14467,21973 14586,21974 14705,21974 14823,21974 14942,21974 15061,21982 15180,21982 15299,21982 15418,21988 15536,21988 15655,21981 15774,21999 15893,22002 16012,22011 16130,22017 16249,22027 16368,22027 16487,22027 16606,22050 16725,22052 16843,22060 16962,22064 17081,22072 17200,22072 17319,22072 17438,22099 17556,22097 17675,22106 17794,22115 17913,22137 18032,22125 18150,22119 18269,22152 18388,22156"/>
 <path fill="none" stroke="rgb(0,0,255)" stroke-width="80" stroke-linejoin="round" stroke-dasharray="158,158" d="M 3537,12796 L 3655,16796 3774,19796 3893,19796 4012,19796 4131,15296 4249,18180 4368,19046 4487,20187 4606,20187 4725,20187 4844,20187 4962,22235 5081,22265 5200,21604 5319,21358 5438,21253 5556,21246 5675,21224 5794,21242 5913,21168 6032,21317 6151,21233 6269,21359 6388,21474 6507,21425 6626,21456 6745,21377 6863,21432 6982,21479 7101,21559 7220,21611 7339,21632 7458,21629 7576,21783 7695,21811 7814,21828 7933,21934 8052,21947 8171,21967 8289,21982 8408,21972 8527,22031 8646,22067 8765,22079 8883,22066 9002,22073 9121,22087 9240,22091 9359,22113 9478,22121 9596,22127 9715,22139 9834,22150 9953,22153 10072,22160 10190,22163 10309,22165 10428,22168 10547,22176 10666,22181 10785,22181 10903,22183 11022,22185 11141,22185 11260,22186 11379,22186 11497,22191 11616,22194 11735,22196 11853,22197 11972,22199 12091,22199 12209,22200 12328,22200 12447,22200 12566,22206 12685,22211 12804,22213 12922,22215 13041,22215 13160,22215 13279,22215 13398,22215 13516,22215 13635,22217 13754,22218 13873,22218 13992,22221 14111,22222 14229,22222 14348,22223 14467,22223 14586,22223 14705,22223 14823,22223 14942,22223 15061,22225 15180,22225 15299,22227 15418,22228 15536,22233 15655,22233 15774,22233 15893,22233 16012,22238 16130,22241 16249,22244 16368,22244 16487,22247 16606,22249 16725,22249 16843,22256 16962,22256 17081,22263 17200,22263 17319,22263 17438,22276 17556,22285 17675,22290 17794,22294 17913,22282 18032,22296 18150,22296 18269,22297 18388,22304"/>
 <path fill="none" stroke="rgb(0,0,0)" stroke-width="80" stroke-linejoin="round" stroke-dasharray="158,158" d="M 4368,20921 L 4487,19046 4606,19046 4725,17171 4844,20750 4962,20750 5081,20750 5200,20750 5319,21698 5438,21807 5556,21886 5675,22033 5794,22081 5913,22196 6032,22250 6151,22354 6269,22392 6388,22314 6507,22370 6626,22376 6745,22399 6863,22442 6982,22454 7101,22482 7220,22479 7339,22489 7458,22495 7576,22423 7695,22427 7814,22432 7933,22438 8052,22444 8171,22449 8289,22450 8408,22450 8527,22383 8646,22389 8765,22403 8883,22396 9002,22399 9121,22401 9240,22404 9359,22408 9478,22411 9596,22412 9715,22415 9834,22417 9953,22424 10072,22424 10190,22368 10309,22376 10428,22270 10547,22281 10666,22290 10785,22293 10903,22308 11022,22315 11141,22327 11260,22332 11379,22343 11497,22343 11616,22343 11735,22343 11853,22343 11972,22346 12091,22346 12209,22346 12328,22348 12447,22348 12566,22351 12685,22353 12804,22353 12922,22355 13041,22357 13160,22357 13279,22358 13398,22359 13516,22363 13635,22365 13754,22368 13873,22370 13992,22371 14111,22373 14229,22374 14348,22378 14467,22379 14586,22380 14705,22381 14823,22381 14942,22381 15061,22382 15180,22383 15299,22384 15418,22385 15536,22385 15655,22386 15774,22386 15893,22386 16012,22387 16130,22387 16249,22388 16368,22388 16487,22388 16606,22389 16725,22389 16843,22390 16962,22390 17081,22390 17200,22390 17319,22390 17438,22390 17556,22390 17675,22390 17794,22390 17913,22390 18032,22390 18150,22390 18269,22390 18388,22390"/>
 <text class="TextShape" transform="rotate(-90 1405 24000)"><tspan class="TextParagraph" font-family="Liberation Sans, sans-serif" font-size="388px" font-weight="400"><tspan class="TextPosition" x="1405" y="24000"><tspan fill="rgb(0,0,0)" stroke="none">13.03</tspan></tspan></tspan></text>
 <text class="TextShape" transform="rotate(-90 2237 24000)"><tspan class="TextParagraph" font-family="Liberation Sans, sans-serif" font-size="388px" font-weight="400"><tspan class="TextPosition" x="2237" y="24000"><tspan fill="rgb(0,0,0)" stroke="none">20.03</tspan></tspan></tspan></text>
 <text class="TextShape" transform="rotate(-90 3068 24000)"><tspan class="TextParagraph" font-family="Liberation Sans, sans-serif" font-size="388px" font-weight="400"><tspan class="TextPosition" x="3068" y="24000"><tspan fill="rgb(0,0,0)" stroke="none">27.03</tspan></tspan></tspan></text>
 <text class="TextShape" transform="rotate(-90 3900 24000)"><tspan class="TextParagraph" font-family="Liberation Sans, sans-serif" font-size="388px" font-weight="400"><tspan class="TextPosition" x="3900" y="24000"><tspan fill="rgb(0,0,0)" stroke="none">03.04</tspan></tspan></tspan></text>
 <text class="TextShape" transform="rotate(-90 4732 24000)"><tspan class="TextParagraph" font-family="Liberation Sans, sans-serif" font-size="388px" font-weight="400"><tspan class="TextPosition" x="4732" y="24000"><tspan fill="rgb(0,0,0)" stroke="none">10.04</tspan></tspan></tspan></text>
 <text class="TextShape" transform="rotate(-90 5564 24000)"><tspan class="TextParagraph" font-family="Liberation Sans, sans-serif" font-size="388px" font-weight="400"><tspan class="TextPosition" x="5564" y="24000"><tspan fill="rgb(0,0,0)" stroke="none">17.04</tspan></tspan></tspan></text>
 <text class="TextShape" transform="rotate(-90 6395 24000)"><tspan class="TextParagraph" font-family="Liberation Sans, sans-serif" font-size="388px" font-weight="400"><tspan class="TextPosition" x="6395" y="24000"><tspan fill="rgb(0,0,0)" stroke="none">24.04</tspan></tspan></tspan></text>
 <text class="TextShape" transform="rotate(-90 7227 24000)"><tspan class="TextParagraph" font-family="Liberation Sans, sans-serif" font-size="388px" font-weight="400"><tspan class="TextPosition" x="7227" y="24000"><tspan fill="rgb(0,0,0)" stroke="none">01.05</tspan></tspan></tspan></text>
 <text class="TextShape" transform="rotate(-90 8059 24000)"><tspan class="TextParagraph" font-family="Liberation Sans, sans-serif" font-size="388px" font-weight="400"><tspan class="TextPosition" x="8059" y="24000"><tspan fill="rgb(0,0,0)" stroke="none">08.05</tspan></tspan></tspan></text>
 <text class="TextShape" transform="rotate(-90 8891 24000)"><tspan class="TextParagraph" font-family="Liberation Sans, sans-serif" font-size="388px" font-weight="400"><tspan class="TextPosition" x="8891" y="24000"><tspan fill="rgb(0,0,0)" stroke="none">15.05</tspan></tspan></tspan></text>
 <text class="TextShape" transform="rotate(-90 9722 24000)"><tspan class="TextParagraph" font-family="Liberation Sans, sans-serif" font-size="388px" font-weight="400"><tspan class="TextPosition" x="9722" y="24000"><tspan fill="rgb(0,0,0)" stroke="none">22.05</tspan></tspan></tspan></text>
 <text class="TextShape" transform="rotate(-90 10554 24000)"><tspan class="TextParagraph" font-family="Liberation Sans, sans-serif" font-size="388px" font-weight="400"><tspan class="TextPosition" x="10554" y="24000"><tspan fill="rgb(0,0,0)" stroke="none">29.05</tspan></tspan></tspan></text>
 <text class="TextShape" transform="rotate(-90 11386 24000)"><tspan class="TextParagraph" font-family="Liberation Sans, sans-serif" font-size="388px" font-weight="400"><tspan class="TextPosition" x="11386" y="24000"><tspan fill="rgb(0,0,0)" stroke="none">05.06</tspan></tspan></tspan></text>
 <text class="TextShape" transform="rotate(-90 12217 24000)"><tspan class="TextParagraph" font-family="Liberation Sans, sans-serif" font-size="388px" font-weight="400"><tspan class="TextPosition" x="12217" y="24000"><tspan fill="rgb(0,0,0)" stroke="none">12.06</tspan></tspan></tspan></text>
 <text class="TextShape" transform="rotate(-90 13048 24000)"><tspan class="TextParagraph" font-family="Liberation Sans, sans-serif" font-size="388px" font-weight="400"><tspan class="TextPosition" x="13048" y="24000"><tspan fill="rgb(0,0,0)" stroke="none">19.06</tspan></tspan></tspan></text>
 <text class="TextShape" transform="rotate(-90 13880 24000)"><tspan class="TextParagraph" font-family="Liberation Sans, sans-serif" font-size="388px" font-weight="400"><tspan class="TextPosition" x="13880" y="24000"><tspan fill="rgb(0,0,0)" stroke="none">26.06</tspan></tspan></tspan></text>
 <text class="TextShape" transform="rotate(-90 14712 24000)"><tspan class="TextParagraph" font-family="Liberation Sans, sans-serif" font-size="388px" font-weight="400"><tspan class="TextPosition" x="14712" y="24000"><tspan fill="rgb(0,0,0)" stroke="none">03.07</tspan></tspan></tspan></text>
 <text class="TextShape" transform="rotate(-90 15544 24000)"><tspan class="TextParagraph" font-family="Liberation Sans, sans-serif" font-size="388px" font-weight="400"><tspan class="TextPosition" x="15544" y="24000"><tspan fill="rgb(0,0,0)" stroke="none">10.07</tspan></tspan></tspan></text>
 <text class="TextShape" transform="rotate(-90 16375 24000)"><tspan class="TextParagraph" font-family="Liberation Sans, sans-serif" font-size="388px" font-weight="400"><tspan class="TextPosition" x="16375" y="24000"><tspan fill="rgb(0,0,0)" stroke="none">17.07</tspan></tspan></tspan></text>
 <text class="TextShape" transform="rotate(-90 17207 24000)"><tspan class="TextParagraph" font-family="Liberation Sans, sans-serif" font-size="388px" font-weight="400"><tspan class="TextPosition" x="17207" y="24000"><tspan fill="rgb(0,0,0)" stroke="none">24.07</tspan></tspan></tspan></text>
 <text class="TextShape" transform="rotate(-90 18039 24000)"><tspan class="TextParagraph" font-family="Liberation Sans, sans-serif" font-size="388px" font-weight="400"><tspan class="TextPosition" x="18039" y="24000"><tspan fill="rgb(0,0,0)" stroke="none">31.07</tspan></tspan></tspan></text>
 <text class="TextShape"><tspan class="TextParagraph" font-family="Liberation Sans, sans-serif" font-size="388px" font-weight="400"><tspan class="TextPosition" x="420" y="22924"><tspan fill="rgb(0,0,0)" stroke="none">0%</tspan></tspan></tspan></text>
 <text class="TextShape"><tspan class="TextParagraph" font-family="Liberation Sans, sans-serif" font-size="388px" font-weight="400"><tspan class="TextPosition" x="208" y="19924"><tspan fill="rgb(0,0,0)" stroke="none">10%</tspan></tspan></tspan></text>
 <text class="TextShape"><tspan class="TextParagraph" font-family="Liberation Sans, sans-serif" font-size="388px" font-weight="400"><tspan class="TextPosition" x="208" y="16924"><tspan fill="rgb(0,0,0)" stroke="none">20%</tspan></tspan></tspan></text>
 <text class="TextShape"><tspan class="TextParagraph" font-family="Liberation Sans, sans-serif" font-size="388px" font-weight="400"><tspan class="TextPosition" x="208" y="13924"><tspan fill="rgb(0,0,0)" stroke="none">30%</tspan></tspan></tspan></text>
 <text class="TextShape"><tspan class="TextParagraph" font-family="Liberation Sans, sans-serif" font-size="388px" font-weight="400"><tspan class="TextPosition" x="208" y="10924"><tspan fill="rgb(0,0,0)" stroke="none">40%</tspan></tspan></tspan></text>
 <text class="TextShape"><tspan class="TextParagraph" font-family="Liberation Sans, sans-serif" font-size="388px" font-weight="400"><tspan class="TextPosition" x="208" y="7924"><tspan fill="rgb(0,0,0)" stroke="none">50%</tspan></tspan></tspan></text>
 <text class="TextShape"><tspan class="TextParagraph" font-family="Liberation Sans, sans-serif" font-size="388px" font-weight="400"><tspan class="TextPosition" x="208" y="4924"><tspan fill="rgb(0,0,0)" stroke="none">60%</tspan></tspan></tspan></text>
 <text class="TextShape"><tspan class="TextParagraph" font-family="Liberation Sans, sans-serif" font-size="388px" font-weight="400"><tspan class="TextPosition" x="208" y="1925"><tspan fill="rgb(0,0,0)" stroke="none">70%</tspan></tspan></tspan></text>
 <text class="TextShape"><tspan class="TextParagraph" font-family="Liberation Sans, sans-serif" font-size="494px" font-weight="700"><tspan class="TextPosition" x="887" y="990"><tspan fill="rgb(0,0,0)" stroke="none">EU - pomr potu obt k potu vylench</tspan></tspan></tspan></text>
 <path fill="none" stroke="rgb(255,128,0)" stroke-width="80" stroke-linejoin="round" stroke-dasharray="80,40" d="M 18768,2162 L 20368,2162"/>
 <path fill="none" stroke="rgb(0,0,255)" stroke-width="80" stroke-linejoin="round" stroke-dasharray="80,40" d="M 18768,3017 L 20368,3017"/>
 <path fill="none" stroke="rgb(131,202,255)" stroke-width="80" stroke-linejoin="round" d="M 18768,3872 L 20368,3872"/>
 <path fill="none" stroke="rgb(255,128,0)" stroke-width="80" stroke-linejoin="round" stroke-dasharray="158,158" d="M 18768,4727 L 20368,4727"/>
 <path fill="none" stroke="rgb(180,120,4)" stroke-width="80" stroke-linejoin="round" stroke-dasharray="80,40" d="M 18768,5582 L 20368,5582"/>
 <path fill="none" stroke="rgb(255,0,0)" stroke-width="80" stroke-linejoin="round" stroke-dasharray="158,158" d="M 18768,6437 L 20368,6437"/>
 <path fill="none" stroke="rgb(129,212,26)" stroke-width="80" stroke-linejoin="round" stroke-dasharray="80,40" d="M 18768,7292 L 20368,7292"/>
 <path fill="none" stroke="rgb(131,202,255)" stroke-width="80" stroke-linejoin="round" stroke-dasharray="158,158" d="M 18768,8147 L 20368,8147"/>
 <path fill="none" stroke="rgb(191,0,65)" stroke-width="80" stroke-linejoin="round" stroke-dasharray="51,127,51,127,254,127,254,127,254,127" d="M 18768,9002 L 20368,9002"/>
 <path fill="none" stroke="rgb(0,169,51)" stroke-width="80" stroke-linejoin="round" stroke-dasharray="158,158" d="M 18768,9857 L 20368,9857"/>
 <path fill="none" stroke="rgb(0,169,51)" stroke-width="80" stroke-linejoin="round" stroke-dasharray="80,40" d="M 18768,10712 L 20368,10712"/>
 <path fill="none" stroke="rgb(128,0,128)" stroke-width="80" stroke-linejoin="round" stroke-dasharray="80,40" d="M 18768,11567 L 20368,11567"/>
 <path fill="none" stroke="rgb(128,0,128)" stroke-width="80" stroke-linejoin="round" stroke-dasharray="158,158" d="M 18768,12422 L 20368,12422"/>
 <path fill="none" stroke="rgb(180,120,4)" stroke-width="80" stroke-linejoin="round" d="M 18768,13276 L 20368,13276"/>
 <path fill="none" stroke="rgb(52,42,6)" stroke-width="80" stroke-linejoin="round" d="M 18768,14131 L 20368,14131"/>
 <path fill="none" stroke="rgb(129,212,26)" stroke-width="80" stroke-linejoin="round" stroke-dasharray="158,158" d="M 18768,14986 L 20368,14986"/>
 <path fill="none" stroke="rgb(0,169,51)" stroke-width="80" stroke-linejoin="round" d="M 18768,15841 L 20368,15841"/>
 <path fill="none" stroke="rgb(255,191,0)" stroke-width="80" stroke-linejoin="round" d="M 18768,16696 L 20368,16696"/>
 <path fill="none" stroke="rgb(85,48,141)" stroke-width="80" stroke-linejoin="round" stroke-dasharray="80,40" d="M 18768,17551 L 20368,17551"/>
 <path fill="none" stroke="rgb(131,202,255)" stroke-width="80" stroke-linejoin="round" stroke-dasharray="80,40" d="M 18768,18406 L 20368,18406"/>
 <path fill="none" stroke="rgb(255,191,0)" stroke-width="80" stroke-linejoin="round" stroke-dasharray="158,158" d="M 18768,19261 L 20368,19261"/>
 <path fill="none" stroke="rgb(241,13,12)" stroke-width="80" stroke-linejoin="round" stroke-dasharray="80,40" d="M 18768,20116 L 20368,20116"/>
 <path fill="none" stroke="rgb(0,0,255)" stroke-width="80" stroke-linejoin="round" d="M 18768,20971 L 20368,20971"/>
 <path fill="none" stroke="rgb(0,0,255)" stroke-width="80" stroke-linejoin="round" stroke-dasharray="158,158" d="M 18768,21826 L 20368,21826"/>
 <path fill="none" stroke="rgb(0,0,0)" stroke-width="80" stroke-linejoin="round" stroke-dasharray="158,158" d="M 18768,22681 L 20368,22681"/>
 <text class="TextShape"><tspan class="TextParagraph" font-family="Liberation Sans, sans-serif" font-size="423px" font-weight="400"><tspan class="TextPosition" x="20468" y="2310"><tspan fill="rgb(0,0,0)" stroke="none">Belgie</tspan></tspan></tspan></text>
 <text class="TextShape"><tspan class="TextParagraph" font-family="Liberation Sans, sans-serif" font-size="423px" font-weight="400"><tspan class="TextPosition" x="20468" y="3165"><tspan fill="rgb(0,0,0)" stroke="none">Francie</tspan></tspan></tspan></text>
 <text class="TextShape"><tspan class="TextParagraph" font-family="Liberation Sans, sans-serif" font-size="423px" font-weight="400"><tspan class="TextPosition" x="20468" y="4020"><tspan fill="rgb(0,0,0)" stroke="none">Itlie</tspan></tspan></tspan></text>
 <text class="TextShape"><tspan class="TextParagraph" font-family="Liberation Sans, sans-serif" font-size="423px" font-weight="400"><tspan class="TextPosition" x="20468" y="4875"><tspan fill="rgb(0,0,0)" stroke="none">Maarsko</tspan></tspan></tspan></text>
 <text class="TextShape"><tspan class="TextParagraph" font-family="Liberation Sans, sans-serif" font-size="423px" font-weight="400"><tspan class="TextPosition" x="20468" y="5730"><tspan fill="rgb(0,0,0)" stroke="none">ecko</tspan></tspan></tspan></text>
 <text class="TextShape"><tspan class="TextParagraph" font-family="Liberation Sans, sans-serif" font-size="423px" font-weight="400"><tspan class="TextPosition" x="20468" y="6585"><tspan fill="rgb(0,0,0)" stroke="none">Rumunsko</tspan></tspan></tspan></text>
 <text class="TextShape"><tspan class="TextParagraph" font-family="Liberation Sans, sans-serif" font-size="423px" font-weight="400"><tspan class="TextPosition" x="20468" y="7440"><tspan fill="rgb(0,0,0)" stroke="none">Irsko</tspan></tspan></tspan></text>
 <text class="TextShape"><tspan class="TextParagraph" font-family="Liberation Sans, sans-serif" font-size="423px" font-weight="400"><tspan class="TextPosition" x="20468" y="8295"><tspan fill="rgb(0,0,0)" stroke="none">Slovinsko</tspan></tspan></tspan></text>
 <text class="TextShape"><tspan class="TextParagraph" font-family="Liberation Sans, sans-serif" font-size="423px" font-weight="400"><tspan class="TextPosition" x="20468" y="9150"><tspan fill="rgb(0,0,0)" stroke="none">EU_nov zem</tspan></tspan></tspan></text>
 <text class="TextShape"><tspan class="TextParagraph" font-family="Liberation Sans, sans-serif" font-size="423px" font-weight="400"><tspan class="TextPosition" x="20468" y="10005"><tspan fill="rgb(0,0,0)" stroke="none">Bulharsko</tspan></tspan></tspan></text>
 <text class="TextShape"><tspan class="TextParagraph" font-family="Liberation Sans, sans-serif" font-size="423px" font-weight="400"><tspan class="TextPosition" x="20468" y="10860"><tspan fill="rgb(0,0,0)" stroke="none">Polsko</tspan></tspan></tspan></text>
 <text class="TextShape"><tspan class="TextParagraph" font-family="Liberation Sans, sans-serif" font-size="423px" font-weight="400"><tspan class="TextPosition" x="20468" y="11715"><tspan fill="rgb(0,0,0)" stroke="none">Litva</tspan></tspan></tspan></text>
 <text class="TextShape"><tspan class="TextParagraph" font-family="Liberation Sans, sans-serif" font-size="423px" font-weight="400"><tspan class="TextPosition" x="20468" y="12569"><tspan fill="rgb(0,0,0)" stroke="none">Portugalsko</tspan></tspan></tspan></text>
 <text class="TextShape"><tspan class="TextParagraph" font-family="Liberation Sans, sans-serif" font-size="423px" font-weight="400"><tspan class="TextPosition" x="20468" y="13424"><tspan fill="rgb(0,0,0)" stroke="none">Dnsko</tspan></tspan></tspan></text>
 <text class="TextShape"><tspan class="TextParagraph" font-family="Liberation Sans, sans-serif" font-size="423px" font-weight="400"><tspan class="TextPosition" x="20468" y="14279"><tspan fill="rgb(0,0,0)" stroke="none">Nmecko</tspan></tspan></tspan></text>
 <text class="TextShape"><tspan class="TextParagraph" font-family="Liberation Sans, sans-serif" font-size="423px" font-weight="400"><tspan class="TextPosition" x="20468" y="15134"><tspan fill="rgb(0,0,0)" stroke="none">Finsko</tspan></tspan></tspan></text>
 <text class="TextShape"><tspan class="TextParagraph" font-family="Liberation Sans, sans-serif" font-size="423px" font-weight="400"><tspan class="TextPosition" x="20468" y="15989"><tspan fill="rgb(0,0,0)" stroke="none">Rakousko</tspan></tspan></tspan></text>
 <text class="TextShape"><tspan class="TextParagraph" font-family="Liberation Sans, sans-serif" font-size="423px" font-weight="400"><tspan class="TextPosition" x="20468" y="16844"><tspan fill="rgb(0,0,0)" stroke="none">esko</tspan></tspan></tspan></text>
 <text class="TextShape"><tspan class="TextParagraph" font-family="Liberation Sans, sans-serif" font-size="423px" font-weight="400"><tspan class="TextPosition" x="20468" y="17699"><tspan fill="rgb(0,0,0)" stroke="none">Estonsko</tspan></tspan></tspan></text>
 <text class="TextShape"><tspan class="TextParagraph" font-family="Liberation Sans, sans-serif" font-size="423px" font-weight="400"><tspan class="TextPosition" x="20468" y="18554"><tspan fill="rgb(0,0,0)" stroke="none">Chorvatsko</tspan></tspan></tspan></text>
 <text class="TextShape"><tspan class="TextParagraph" font-family="Liberation Sans, sans-serif" font-size="423px" font-weight="400"><tspan class="TextPosition" x="20468" y="19409"><tspan fill="rgb(0,0,0)" stroke="none">Lotysko</tspan></tspan></tspan></text>
 <text class="TextShape"><tspan class="TextParagraph" font-family="Liberation Sans, sans-serif" font-size="423px" font-weight="400"><tspan class="TextPosition" x="20468" y="20264"><tspan fill="rgb(0,0,0)" stroke="none">Kypr</tspan></tspan></tspan></text>
 <text class="TextShape"><tspan class="TextParagraph" font-family="Liberation Sans, sans-serif" font-size="423px" font-weight="400"><tspan class="TextPosition" x="20468" y="21119"><tspan fill="rgb(0,0,0)" stroke="none">Luxembursko</tspan></tspan></tspan></text>
 <text class="TextShape"><tspan class="TextParagraph" font-family="Liberation Sans, sans-serif" font-size="423px" font-weight="400"><tspan class="TextPosition" x="20468" y="21974"><tspan fill="rgb(0,0,0)" stroke="none">Slovensko</tspan></tspan></tspan></text>
 <text class="TextShape"><tspan class="TextParagraph" font-family="Liberation Sans, sans-serif" font-size="423px" font-weight="400"><tspan class="TextPosition" x="20468" y="22829"><tspan fill="rgb(0,0,0)" stroke="none">Malta</tspan></tspan></tspan></text>
</svg>