<?xml version="1.0" encoding="UTF-8"?>
<!DOCTYPE svg PUBLIC "-//W3C//DTD SVG 1.1//EN" "http://www.w3.org/Graphics/SVG/1.1/DTD/svg11.dtd">
<svg width="236mm" height="250mm" viewBox="0 0 23600 25000" version="1.1" xmlns="http://www.w3.org/2000/svg" xmlns:xlink="http://www.w3.org/1999/xlink" stroke-width="28.222" stroke-linejoin="round" xml:space="preserve">
 <path fill="rgb(255,255,255)" stroke="none" d="M 11800,25000 L 0,25000 0,0 23600,0 23600,25000 11800,25000 Z"/>
 <path fill="none" stroke="rgb(179,179,179)" stroke-linejoin="round" d="M 9834,22797 L 1220,22797 1220,1799 18448,1799 18448,22797 9834,22797 Z"/>
 <path fill="none" stroke="rgb(179,179,179)" stroke-linejoin="round" d="M 18448,22796 L 1220,22796"/>
 <path fill="none" stroke="rgb(179,179,179)" stroke-linejoin="round" d="M 18448,20696 L 1220,20696"/>
 <path fill="none" stroke="rgb(179,179,179)" stroke-linejoin="round" d="M 18448,18596 L 1220,18596"/>
 <path fill="none" stroke="rgb(179,179,179)" stroke-linejoin="round" d="M 18448,16496 L 1220,16496"/>
 <path fill="none" stroke="rgb(179,179,179)" stroke-linejoin="round" d="M 18448,14396 L 1220,14396"/>
 <path fill="none" stroke="rgb(179,179,179)" stroke-linejoin="round" d="M 18448,12297 L 1220,12297"/>
 <path fill="none" stroke="rgb(179,179,179)" stroke-linejoin="round" d="M 18448,10197 L 1220,10197"/>
 <path fill="none" stroke="rgb(179,179,179)" stroke-linejoin="round" d="M 18448,8097 L 1220,8097"/>
 <path fill="none" stroke="rgb(179,179,179)" stroke-linejoin="round" d="M 18448,5997 L 1220,5997"/>
 <path fill="none" stroke="rgb(179,179,179)" stroke-linejoin="round" d="M 18448,3897 L 1220,3897"/>
 <path fill="none" stroke="rgb(179,179,179)" stroke-linejoin="round" d="M 18448,1798 L 1220,1798"/>
 <path fill="none" stroke="rgb(179,179,179)" stroke-linejoin="round" d="M 1220,22946 L 1220,22796"/>
 <path fill="none" stroke="rgb(179,179,179)" stroke-linejoin="round" d="M 1220,22946 L 1220,22796"/>
 <path fill="none" stroke="rgb(179,179,179)" stroke-linejoin="round" d="M 1329,22946 L 1329,22796"/>
 <path fill="none" stroke="rgb(179,179,179)" stroke-linejoin="round" d="M 1329,22946 L 1329,22796"/>
 <path fill="none" stroke="rgb(179,179,179)" stroke-linejoin="round" d="M 1439,22946 L 1439,22796"/>
 <path fill="none" stroke="rgb(179,179,179)" stroke-linejoin="round" d="M 1439,22946 L 1439,22796"/>
 <path fill="none" stroke="rgb(179,179,179)" stroke-linejoin="round" d="M 1549,22946 L 1549,22796"/>
 <path fill="none" stroke="rgb(179,179,179)" stroke-linejoin="round" d="M 1549,22946 L 1549,22796"/>
 <path fill="none" stroke="rgb(179,179,179)" stroke-linejoin="round" d="M 1658,22946 L 1658,22796"/>
 <path fill="none" stroke="rgb(179,179,179)" stroke-linejoin="round" d="M 1658,22946 L 1658,22796"/>
 <path fill="none" stroke="rgb(179,179,179)" stroke-linejoin="round" d="M 1768,22946 L 1768,22796"/>
 <path fill="none" stroke="rgb(179,179,179)" stroke-linejoin="round" d="M 1768,22946 L 1768,22796"/>
 <path fill="none" stroke="rgb(179,179,179)" stroke-linejoin="round" d="M 1878,22946 L 1878,22796"/>
 <path fill="none" stroke="rgb(179,179,179)" stroke-linejoin="round" d="M 1878,22946 L 1878,22796"/>
 <path fill="none" stroke="rgb(179,179,179)" stroke-linejoin="round" d="M 1988,22946 L 1988,22796"/>
 <path fill="none" stroke="rgb(179,179,179)" stroke-linejoin="round" d="M 1988,22946 L 1988,22796"/>
 <path fill="none" stroke="rgb(179,179,179)" stroke-linejoin="round" d="M 2097,22946 L 2097,22796"/>
 <path fill="none" stroke="rgb(179,179,179)" stroke-linejoin="round" d="M 2097,22946 L 2097,22796"/>
 <path fill="none" stroke="rgb(179,179,179)" stroke-linejoin="round" d="M 2207,22946 L 2207,22796"/>
 <path fill="none" stroke="rgb(179,179,179)" stroke-linejoin="round" d="M 2207,22946 L 2207,22796"/>
 <path fill="none" stroke="rgb(179,179,179)" stroke-linejoin="round" d="M 2317,22946 L 2317,22796"/>
 <path fill="none" stroke="rgb(179,179,179)" stroke-linejoin="round" d="M 2317,22946 L 2317,22796"/>
 <path fill="none" stroke="rgb(179,179,179)" stroke-linejoin="round" d="M 2427,22946 L 2427,22796"/>
 <path fill="none" stroke="rgb(179,179,179)" stroke-linejoin="round" d="M 2427,22946 L 2427,22796"/>
 <path fill="none" stroke="rgb(179,179,179)" stroke-linejoin="round" d="M 2536,22946 L 2536,22796"/>
 <path fill="none" stroke="rgb(179,179,179)" stroke-linejoin="round" d="M 2536,22946 L 2536,22796"/>
 <path fill="none" stroke="rgb(179,179,179)" stroke-linejoin="round" d="M 2646,22946 L 2646,22796"/>
 <path fill="none" stroke="rgb(179,179,179)" stroke-linejoin="round" d="M 2646,22946 L 2646,22796"/>
 <path fill="none" stroke="rgb(179,179,179)" stroke-linejoin="round" d="M 2756,22946 L 2756,22796"/>
 <path fill="none" stroke="rgb(179,179,179)" stroke-linejoin="round" d="M 2756,22946 L 2756,22796"/>
 <path fill="none" stroke="rgb(179,179,179)" stroke-linejoin="round" d="M 2866,22946 L 2866,22796"/>
 <path fill="none" stroke="rgb(179,179,179)" stroke-linejoin="round" d="M 2866,22946 L 2866,22796"/>
 <path fill="none" stroke="rgb(179,179,179)" stroke-linejoin="round" d="M 2975,22946 L 2975,22796"/>
 <path fill="none" stroke="rgb(179,179,179)" stroke-linejoin="round" d="M 2975,22946 L 2975,22796"/>
 <path fill="none" stroke="rgb(179,179,179)" stroke-linejoin="round" d="M 3085,22946 L 3085,22796"/>
 <path fill="none" stroke="rgb(179,179,179)" stroke-linejoin="round" d="M 3085,22946 L 3085,22796"/>
 <path fill="none" stroke="rgb(179,179,179)" stroke-linejoin="round" d="M 3195,22946 L 3195,22796"/>
 <path fill="none" stroke="rgb(179,179,179)" stroke-linejoin="round" d="M 3195,22946 L 3195,22796"/>
 <path fill="none" stroke="rgb(179,179,179)" stroke-linejoin="round" d="M 3305,22946 L 3305,22796"/>
 <path fill="none" stroke="rgb(179,179,179)" stroke-linejoin="round" d="M 3305,22946 L 3305,22796"/>
 <path fill="none" stroke="rgb(179,179,179)" stroke-linejoin="round" d="M 3414,22946 L 3414,22796"/>
 <path fill="none" stroke="rgb(179,179,179)" stroke-linejoin="round" d="M 3414,22946 L 3414,22796"/>
 <path fill="none" stroke="rgb(179,179,179)" stroke-linejoin="round" d="M 3524,22946 L 3524,22796"/>
 <path fill="none" stroke="rgb(179,179,179)" stroke-linejoin="round" d="M 3524,22946 L 3524,22796"/>
 <path fill="none" stroke="rgb(179,179,179)" stroke-linejoin="round" d="M 3634,22946 L 3634,22796"/>
 <path fill="none" stroke="rgb(179,179,179)" stroke-linejoin="round" d="M 3634,22946 L 3634,22796"/>
 <path fill="none" stroke="rgb(179,179,179)" stroke-linejoin="round" d="M 3743,22946 L 3743,22796"/>
 <path fill="none" stroke="rgb(179,179,179)" stroke-linejoin="round" d="M 3743,22946 L 3743,22796"/>
 <path fill="none" stroke="rgb(179,179,179)" stroke-linejoin="round" d="M 3853,22946 L 3853,22796"/>
 <path fill="none" stroke="rgb(179,179,179)" stroke-linejoin="round" d="M 3853,22946 L 3853,22796"/>
 <path fill="none" stroke="rgb(179,179,179)" stroke-linejoin="round" d="M 3963,22946 L 3963,22796"/>
 <path fill="none" stroke="rgb(179,179,179)" stroke-linejoin="round" d="M 3963,22946 L 3963,22796"/>
 <path fill="none" stroke="rgb(179,179,179)" stroke-linejoin="round" d="M 4073,22946 L 4073,22796"/>
 <path fill="none" stroke="rgb(179,179,179)" stroke-linejoin="round" d="M 4073,22946 L 4073,22796"/>
 <path fill="none" stroke="rgb(179,179,179)" stroke-linejoin="round" d="M 4182,22946 L 4182,22796"/>
 <path fill="none" stroke="rgb(179,179,179)" stroke-linejoin="round" d="M 4182,22946 L 4182,22796"/>
 <path fill="none" stroke="rgb(179,179,179)" stroke-linejoin="round" d="M 4292,22946 L 4292,22796"/>
 <path fill="none" stroke="rgb(179,179,179)" stroke-linejoin="round" d="M 4292,22946 L 4292,22796"/>
 <path fill="none" stroke="rgb(179,179,179)" stroke-linejoin="round" d="M 4402,22946 L 4402,22796"/>
 <path fill="none" stroke="rgb(179,179,179)" stroke-linejoin="round" d="M 4402,22946 L 4402,22796"/>
 <path fill="none" stroke="rgb(179,179,179)" stroke-linejoin="round" d="M 4512,22946 L 4512,22796"/>
 <path fill="none" stroke="rgb(179,179,179)" stroke-linejoin="round" d="M 4512,22946 L 4512,22796"/>
 <path fill="none" stroke="rgb(179,179,179)" stroke-linejoin="round" d="M 4621,22946 L 4621,22796"/>
 <path fill="none" stroke="rgb(179,179,179)" stroke-linejoin="round" d="M 4621,22946 L 4621,22796"/>
 <path fill="none" stroke="rgb(179,179,179)" stroke-linejoin="round" d="M 4731,22946 L 4731,22796"/>
 <path fill="none" stroke="rgb(179,179,179)" stroke-linejoin="round" d="M 4731,22946 L 4731,22796"/>
 <path fill="none" stroke="rgb(179,179,179)" stroke-linejoin="round" d="M 4841,22946 L 4841,22796"/>
 <path fill="none" stroke="rgb(179,179,179)" stroke-linejoin="round" d="M 4841,22946 L 4841,22796"/>
 <path fill="none" stroke="rgb(179,179,179)" stroke-linejoin="round" d="M 4951,22946 L 4951,22796"/>
 <path fill="none" stroke="rgb(179,179,179)" stroke-linejoin="round" d="M 4951,22946 L 4951,22796"/>
 <path fill="none" stroke="rgb(179,179,179)" stroke-linejoin="round" d="M 5060,22946 L 5060,22796"/>
 <path fill="none" stroke="rgb(179,179,179)" stroke-linejoin="round" d="M 5060,22946 L 5060,22796"/>
 <path fill="none" stroke="rgb(179,179,179)" stroke-linejoin="round" d="M 5170,22946 L 5170,22796"/>
 <path fill="none" stroke="rgb(179,179,179)" stroke-linejoin="round" d="M 5170,22946 L 5170,22796"/>
 <path fill="none" stroke="rgb(179,179,179)" stroke-linejoin="round" d="M 5280,22946 L 5280,22796"/>
 <path fill="none" stroke="rgb(179,179,179)" stroke-linejoin="round" d="M 5280,22946 L 5280,22796"/>
 <path fill="none" stroke="rgb(179,179,179)" stroke-linejoin="round" d="M 5390,22946 L 5390,22796"/>
 <path fill="none" stroke="rgb(179,179,179)" stroke-linejoin="round" d="M 5390,22946 L 5390,22796"/>
 <path fill="none" stroke="rgb(179,179,179)" stroke-linejoin="round" d="M 5499,22946 L 5499,22796"/>
 <path fill="none" stroke="rgb(179,179,179)" stroke-linejoin="round" d="M 5499,22946 L 5499,22796"/>
 <path fill="none" stroke="rgb(179,179,179)" stroke-linejoin="round" d="M 5609,22946 L 5609,22796"/>
 <path fill="none" stroke="rgb(179,179,179)" stroke-linejoin="round" d="M 5609,22946 L 5609,22796"/>
 <path fill="none" stroke="rgb(179,179,179)" stroke-linejoin="round" d="M 5719,22946 L 5719,22796"/>
 <path fill="none" stroke="rgb(179,179,179)" stroke-linejoin="round" d="M 5719,22946 L 5719,22796"/>
 <path fill="none" stroke="rgb(179,179,179)" stroke-linejoin="round" d="M 5829,22946 L 5829,22796"/>
 <path fill="none" stroke="rgb(179,179,179)" stroke-linejoin="round" d="M 5829,22946 L 5829,22796"/>
 <path fill="none" stroke="rgb(179,179,179)" stroke-linejoin="round" d="M 5938,22946 L 5938,22796"/>
 <path fill="none" stroke="rgb(179,179,179)" stroke-linejoin="round" d="M 5938,22946 L 5938,22796"/>
 <path fill="none" stroke="rgb(179,179,179)" stroke-linejoin="round" d="M 6048,22946 L 6048,22796"/>
 <path fill="none" stroke="rgb(179,179,179)" stroke-linejoin="round" d="M 6048,22946 L 6048,22796"/>
 <path fill="none" stroke="rgb(179,179,179)" stroke-linejoin="round" d="M 6158,22946 L 6158,22796"/>
 <path fill="none" stroke="rgb(179,179,179)" stroke-linejoin="round" d="M 6158,22946 L 6158,22796"/>
 <path fill="none" stroke="rgb(179,179,179)" stroke-linejoin="round" d="M 6267,22946 L 6267,22796"/>
 <path fill="none" stroke="rgb(179,179,179)" stroke-linejoin="round" d="M 6267,22946 L 6267,22796"/>
 <path fill="none" stroke="rgb(179,179,179)" stroke-linejoin="round" d="M 6377,22946 L 6377,22796"/>
 <path fill="none" stroke="rgb(179,179,179)" stroke-linejoin="round" d="M 6377,22946 L 6377,22796"/>
 <path fill="none" stroke="rgb(179,179,179)" stroke-linejoin="round" d="M 6487,22946 L 6487,22796"/>
 <path fill="none" stroke="rgb(179,179,179)" stroke-linejoin="round" d="M 6487,22946 L 6487,22796"/>
 <path fill="none" stroke="rgb(179,179,179)" stroke-linejoin="round" d="M 6597,22946 L 6597,22796"/>
 <path fill="none" stroke="rgb(179,179,179)" stroke-linejoin="round" d="M 6597,22946 L 6597,22796"/>
 <path fill="none" stroke="rgb(179,179,179)" stroke-linejoin="round" d="M 6706,22946 L 6706,22796"/>
 <path fill="none" stroke="rgb(179,179,179)" stroke-linejoin="round" d="M 6706,22946 L 6706,22796"/>
 <path fill="none" stroke="rgb(179,179,179)" stroke-linejoin="round" d="M 6816,22946 L 6816,22796"/>
 <path fill="none" stroke="rgb(179,179,179)" stroke-linejoin="round" d="M 6816,22946 L 6816,22796"/>
 <path fill="none" stroke="rgb(179,179,179)" stroke-linejoin="round" d="M 6926,22946 L 6926,22796"/>
 <path fill="none" stroke="rgb(179,179,179)" stroke-linejoin="round" d="M 6926,22946 L 6926,22796"/>
 <path fill="none" stroke="rgb(179,179,179)" stroke-linejoin="round" d="M 7036,22946 L 7036,22796"/>
 <path fill="none" stroke="rgb(179,179,179)" stroke-linejoin="round" d="M 7036,22946 L 7036,22796"/>
 <path fill="none" stroke="rgb(179,179,179)" stroke-linejoin="round" d="M 7145,22946 L 7145,22796"/>
 <path fill="none" stroke="rgb(179,179,179)" stroke-linejoin="round" d="M 7145,22946 L 7145,22796"/>
 <path fill="none" stroke="rgb(179,179,179)" stroke-linejoin="round" d="M 7255,22946 L 7255,22796"/>
 <path fill="none" stroke="rgb(179,179,179)" stroke-linejoin="round" d="M 7255,22946 L 7255,22796"/>
 <path fill="none" stroke="rgb(179,179,179)" stroke-linejoin="round" d="M 7365,22946 L 7365,22796"/>
 <path fill="none" stroke="rgb(179,179,179)" stroke-linejoin="round" d="M 7365,22946 L 7365,22796"/>
 <path fill="none" stroke="rgb(179,179,179)" stroke-linejoin="round" d="M 7475,22946 L 7475,22796"/>
 <path fill="none" stroke="rgb(179,179,179)" stroke-linejoin="round" d="M 7475,22946 L 7475,22796"/>
 <path fill="none" stroke="rgb(179,179,179)" stroke-linejoin="round" d="M 7584,22946 L 7584,22796"/>
 <path fill="none" stroke="rgb(179,179,179)" stroke-linejoin="round" d="M 7584,22946 L 7584,22796"/>
 <path fill="none" stroke="rgb(179,179,179)" stroke-linejoin="round" d="M 7694,22946 L 7694,22796"/>
 <path fill="none" stroke="rgb(179,179,179)" stroke-linejoin="round" d="M 7694,22946 L 7694,22796"/>
 <path fill="none" stroke="rgb(179,179,179)" stroke-linejoin="round" d="M 7804,22946 L 7804,22796"/>
 <path fill="none" stroke="rgb(179,179,179)" stroke-linejoin="round" d="M 7804,22946 L 7804,22796"/>
 <path fill="none" stroke="rgb(179,179,179)" stroke-linejoin="round" d="M 7914,22946 L 7914,22796"/>
 <path fill="none" stroke="rgb(179,179,179)" stroke-linejoin="round" d="M 7914,22946 L 7914,22796"/>
 <path fill="none" stroke="rgb(179,179,179)" stroke-linejoin="round" d="M 8023,22946 L 8023,22796"/>
 <path fill="none" stroke="rgb(179,179,179)" stroke-linejoin="round" d="M 8023,22946 L 8023,22796"/>
 <path fill="none" stroke="rgb(179,179,179)" stroke-linejoin="round" d="M 8133,22946 L 8133,22796"/>
 <path fill="none" stroke="rgb(179,179,179)" stroke-linejoin="round" d="M 8133,22946 L 8133,22796"/>
 <path fill="none" stroke="rgb(179,179,179)" stroke-linejoin="round" d="M 8243,22946 L 8243,22796"/>
 <path fill="none" stroke="rgb(179,179,179)" stroke-linejoin="round" d="M 8243,22946 L 8243,22796"/>
 <path fill="none" stroke="rgb(179,179,179)" stroke-linejoin="round" d="M 8353,22946 L 8353,22796"/>
 <path fill="none" stroke="rgb(179,179,179)" stroke-linejoin="round" d="M 8353,22946 L 8353,22796"/>
 <path fill="none" stroke="rgb(179,179,179)" stroke-linejoin="round" d="M 8462,22946 L 8462,22796"/>
 <path fill="none" stroke="rgb(179,179,179)" stroke-linejoin="round" d="M 8462,22946 L 8462,22796"/>
 <path fill="none" stroke="rgb(179,179,179)" stroke-linejoin="round" d="M 8572,22946 L 8572,22796"/>
 <path fill="none" stroke="rgb(179,179,179)" stroke-linejoin="round" d="M 8572,22946 L 8572,22796"/>
 <path fill="none" stroke="rgb(179,179,179)" stroke-linejoin="round" d="M 8682,22946 L 8682,22796"/>
 <path fill="none" stroke="rgb(179,179,179)" stroke-linejoin="round" d="M 8682,22946 L 8682,22796"/>
 <path fill="none" stroke="rgb(179,179,179)" stroke-linejoin="round" d="M 8791,22946 L 8791,22796"/>
 <path fill="none" stroke="rgb(179,179,179)" stroke-linejoin="round" d="M 8791,22946 L 8791,22796"/>
 <path fill="none" stroke="rgb(179,179,179)" stroke-linejoin="round" d="M 8901,22946 L 8901,22796"/>
 <path fill="none" stroke="rgb(179,179,179)" stroke-linejoin="round" d="M 8901,22946 L 8901,22796"/>
 <path fill="none" stroke="rgb(179,179,179)" stroke-linejoin="round" d="M 9011,22946 L 9011,22796"/>
 <path fill="none" stroke="rgb(179,179,179)" stroke-linejoin="round" d="M 9011,22946 L 9011,22796"/>
 <path fill="none" stroke="rgb(179,179,179)" stroke-linejoin="round" d="M 9121,22946 L 9121,22796"/>
 <path fill="none" stroke="rgb(179,179,179)" stroke-linejoin="round" d="M 9121,22946 L 9121,22796"/>
 <path fill="none" stroke="rgb(179,179,179)" stroke-linejoin="round" d="M 9230,22946 L 9230,22796"/>
 <path fill="none" stroke="rgb(179,179,179)" stroke-linejoin="round" d="M 9230,22946 L 9230,22796"/>
 <path fill="none" stroke="rgb(179,179,179)" stroke-linejoin="round" d="M 9340,22946 L 9340,22796"/>
 <path fill="none" stroke="rgb(179,179,179)" stroke-linejoin="round" d="M 9340,22946 L 9340,22796"/>
 <path fill="none" stroke="rgb(179,179,179)" stroke-linejoin="round" d="M 9450,22946 L 9450,22796"/>
 <path fill="none" stroke="rgb(179,179,179)" stroke-linejoin="round" d="M 9450,22946 L 9450,22796"/>
 <path fill="none" stroke="rgb(179,179,179)" stroke-linejoin="round" d="M 9560,22946 L 9560,22796"/>
 <path fill="none" stroke="rgb(179,179,179)" stroke-linejoin="round" d="M 9560,22946 L 9560,22796"/>
 <path fill="none" stroke="rgb(179,179,179)" stroke-linejoin="round" d="M 9669,22946 L 9669,22796"/>
 <path fill="none" stroke="rgb(179,179,179)" stroke-linejoin="round" d="M 9669,22946 L 9669,22796"/>
 <path fill="none" stroke="rgb(179,179,179)" stroke-linejoin="round" d="M 9779,22946 L 9779,22796"/>
 <path fill="none" stroke="rgb(179,179,179)" stroke-linejoin="round" d="M 9779,22946 L 9779,22796"/>
 <path fill="none" stroke="rgb(179,179,179)" stroke-linejoin="round" d="M 9889,22946 L 9889,22796"/>
 <path fill="none" stroke="rgb(179,179,179)" stroke-linejoin="round" d="M 9889,22946 L 9889,22796"/>
 <path fill="none" stroke="rgb(179,179,179)" stroke-linejoin="round" d="M 9999,22946 L 9999,22796"/>
 <path fill="none" stroke="rgb(179,179,179)" stroke-linejoin="round" d="M 9999,22946 L 9999,22796"/>
 <path fill="none" stroke="rgb(179,179,179)" stroke-linejoin="round" d="M 10108,22946 L 10108,22796"/>
 <path fill="none" stroke="rgb(179,179,179)" stroke-linejoin="round" d="M 10108,22946 L 10108,22796"/>
 <path fill="none" stroke="rgb(179,179,179)" stroke-linejoin="round" d="M 10218,22946 L 10218,22796"/>
 <path fill="none" stroke="rgb(179,179,179)" stroke-linejoin="round" d="M 10218,22946 L 10218,22796"/>
 <path fill="none" stroke="rgb(179,179,179)" stroke-linejoin="round" d="M 10328,22946 L 10328,22796"/>
 <path fill="none" stroke="rgb(179,179,179)" stroke-linejoin="round" d="M 10328,22946 L 10328,22796"/>
 <path fill="none" stroke="rgb(179,179,179)" stroke-linejoin="round" d="M 10438,22946 L 10438,22796"/>
 <path fill="none" stroke="rgb(179,179,179)" stroke-linejoin="round" d="M 10438,22946 L 10438,22796"/>
 <path fill="none" stroke="rgb(179,179,179)" stroke-linejoin="round" d="M 10547,22946 L 10547,22796"/>
 <path fill="none" stroke="rgb(179,179,179)" stroke-linejoin="round" d="M 10547,22946 L 10547,22796"/>
 <path fill="none" stroke="rgb(179,179,179)" stroke-linejoin="round" d="M 10657,22946 L 10657,22796"/>
 <path fill="none" stroke="rgb(179,179,179)" stroke-linejoin="round" d="M 10657,22946 L 10657,22796"/>
 <path fill="none" stroke="rgb(179,179,179)" stroke-linejoin="round" d="M 10767,22946 L 10767,22796"/>
 <path fill="none" stroke="rgb(179,179,179)" stroke-linejoin="round" d="M 10767,22946 L 10767,22796"/>
 <path fill="none" stroke="rgb(179,179,179)" stroke-linejoin="round" d="M 10877,22946 L 10877,22796"/>
 <path fill="none" stroke="rgb(179,179,179)" stroke-linejoin="round" d="M 10877,22946 L 10877,22796"/>
 <path fill="none" stroke="rgb(179,179,179)" stroke-linejoin="round" d="M 10986,22946 L 10986,22796"/>
 <path fill="none" stroke="rgb(179,179,179)" stroke-linejoin="round" d="M 10986,22946 L 10986,22796"/>
 <path fill="none" stroke="rgb(179,179,179)" stroke-linejoin="round" d="M 11096,22946 L 11096,22796"/>
 <path fill="none" stroke="rgb(179,179,179)" stroke-linejoin="round" d="M 11096,22946 L 11096,22796"/>
 <path fill="none" stroke="rgb(179,179,179)" stroke-linejoin="round" d="M 11206,22946 L 11206,22796"/>
 <path fill="none" stroke="rgb(179,179,179)" stroke-linejoin="round" d="M 11206,22946 L 11206,22796"/>
 <path fill="none" stroke="rgb(179,179,179)" stroke-linejoin="round" d="M 11315,22946 L 11315,22796"/>
 <path fill="none" stroke="rgb(179,179,179)" stroke-linejoin="round" d="M 11315,22946 L 11315,22796"/>
 <path fill="none" stroke="rgb(179,179,179)" stroke-linejoin="round" d="M 11425,22946 L 11425,22796"/>
 <path fill="none" stroke="rgb(179,179,179)" stroke-linejoin="round" d="M 11425,22946 L 11425,22796"/>
 <path fill="none" stroke="rgb(179,179,179)" stroke-linejoin="round" d="M 11535,22946 L 11535,22796"/>
 <path fill="none" stroke="rgb(179,179,179)" stroke-linejoin="round" d="M 11535,22946 L 11535,22796"/>
 <path fill="none" stroke="rgb(179,179,179)" stroke-linejoin="round" d="M 11645,22946 L 11645,22796"/>
 <path fill="none" stroke="rgb(179,179,179)" stroke-linejoin="round" d="M 11645,22946 L 11645,22796"/>
 <path fill="none" stroke="rgb(179,179,179)" stroke-linejoin="round" d="M 11754,22946 L 11754,22796"/>
 <path fill="none" stroke="rgb(179,179,179)" stroke-linejoin="round" d="M 11754,22946 L 11754,22796"/>
 <path fill="none" stroke="rgb(179,179,179)" stroke-linejoin="round" d="M 11863,22946 L 11863,22796"/>
 <path fill="none" stroke="rgb(179,179,179)" stroke-linejoin="round" d="M 11863,22946 L 11863,22796"/>
 <path fill="none" stroke="rgb(179,179,179)" stroke-linejoin="round" d="M 11973,22946 L 11973,22796"/>
 <path fill="none" stroke="rgb(179,179,179)" stroke-linejoin="round" d="M 11973,22946 L 11973,22796"/>
 <path fill="none" stroke="rgb(179,179,179)" stroke-linejoin="round" d="M 12083,22946 L 12083,22796"/>
 <path fill="none" stroke="rgb(179,179,179)" stroke-linejoin="round" d="M 12083,22946 L 12083,22796"/>
 <path fill="none" stroke="rgb(179,179,179)" stroke-linejoin="round" d="M 12192,22946 L 12192,22796"/>
 <path fill="none" stroke="rgb(179,179,179)" stroke-linejoin="round" d="M 12192,22946 L 12192,22796"/>
 <path fill="none" stroke="rgb(179,179,179)" stroke-linejoin="round" d="M 12302,22946 L 12302,22796"/>
 <path fill="none" stroke="rgb(179,179,179)" stroke-linejoin="round" d="M 12302,22946 L 12302,22796"/>
 <path fill="none" stroke="rgb(179,179,179)" stroke-linejoin="round" d="M 12412,22946 L 12412,22796"/>
 <path fill="none" stroke="rgb(179,179,179)" stroke-linejoin="round" d="M 12412,22946 L 12412,22796"/>
 <path fill="none" stroke="rgb(179,179,179)" stroke-linejoin="round" d="M 12522,22946 L 12522,22796"/>
 <path fill="none" stroke="rgb(179,179,179)" stroke-linejoin="round" d="M 12522,22946 L 12522,22796"/>
 <path fill="none" stroke="rgb(179,179,179)" stroke-linejoin="round" d="M 12631,22946 L 12631,22796"/>
 <path fill="none" stroke="rgb(179,179,179)" stroke-linejoin="round" d="M 12631,22946 L 12631,22796"/>
 <path fill="none" stroke="rgb(179,179,179)" stroke-linejoin="round" d="M 12741,22946 L 12741,22796"/>
 <path fill="none" stroke="rgb(179,179,179)" stroke-linejoin="round" d="M 12741,22946 L 12741,22796"/>
 <path fill="none" stroke="rgb(179,179,179)" stroke-linejoin="round" d="M 12851,22946 L 12851,22796"/>
 <path fill="none" stroke="rgb(179,179,179)" stroke-linejoin="round" d="M 12851,22946 L 12851,22796"/>
 <path fill="none" stroke="rgb(179,179,179)" stroke-linejoin="round" d="M 12961,22946 L 12961,22796"/>
 <path fill="none" stroke="rgb(179,179,179)" stroke-linejoin="round" d="M 12961,22946 L 12961,22796"/>
 <path fill="none" stroke="rgb(179,179,179)" stroke-linejoin="round" d="M 13070,22946 L 13070,22796"/>
 <path fill="none" stroke="rgb(179,179,179)" stroke-linejoin="round" d="M 13070,22946 L 13070,22796"/>
 <path fill="none" stroke="rgb(179,179,179)" stroke-linejoin="round" d="M 13180,22946 L 13180,22796"/>
 <path fill="none" stroke="rgb(179,179,179)" stroke-linejoin="round" d="M 13180,22946 L 13180,22796"/>
 <path fill="none" stroke="rgb(179,179,179)" stroke-linejoin="round" d="M 13290,22946 L 13290,22796"/>
 <path fill="none" stroke="rgb(179,179,179)" stroke-linejoin="round" d="M 13290,22946 L 13290,22796"/>
 <path fill="none" stroke="rgb(179,179,179)" stroke-linejoin="round" d="M 13400,22946 L 13400,22796"/>
 <path fill="none" stroke="rgb(179,179,179)" stroke-linejoin="round" d="M 13400,22946 L 13400,22796"/>
 <path fill="none" stroke="rgb(179,179,179)" stroke-linejoin="round" d="M 13509,22946 L 13509,22796"/>
 <path fill="none" stroke="rgb(179,179,179)" stroke-linejoin="round" d="M 13509,22946 L 13509,22796"/>
 <path fill="none" stroke="rgb(179,179,179)" stroke-linejoin="round" d="M 13619,22946 L 13619,22796"/>
 <path fill="none" stroke="rgb(179,179,179)" stroke-linejoin="round" d="M 13619,22946 L 13619,22796"/>
 <path fill="none" stroke="rgb(179,179,179)" stroke-linejoin="round" d="M 13729,22946 L 13729,22796"/>
 <path fill="none" stroke="rgb(179,179,179)" stroke-linejoin="round" d="M 13729,22946 L 13729,22796"/>
 <path fill="none" stroke="rgb(179,179,179)" stroke-linejoin="round" d="M 13838,22946 L 13838,22796"/>
 <path fill="none" stroke="rgb(179,179,179)" stroke-linejoin="round" d="M 13838,22946 L 13838,22796"/>
 <path fill="none" stroke="rgb(179,179,179)" stroke-linejoin="round" d="M 13948,22946 L 13948,22796"/>
 <path fill="none" stroke="rgb(179,179,179)" stroke-linejoin="round" d="M 13948,22946 L 13948,22796"/>
 <path fill="none" stroke="rgb(179,179,179)" stroke-linejoin="round" d="M 14058,22946 L 14058,22796"/>
 <path fill="none" stroke="rgb(179,179,179)" stroke-linejoin="round" d="M 14058,22946 L 14058,22796"/>
 <path fill="none" stroke="rgb(179,179,179)" stroke-linejoin="round" d="M 14168,22946 L 14168,22796"/>
 <path fill="none" stroke="rgb(179,179,179)" stroke-linejoin="round" d="M 14168,22946 L 14168,22796"/>
 <path fill="none" stroke="rgb(179,179,179)" stroke-linejoin="round" d="M 14277,22946 L 14277,22796"/>
 <path fill="none" stroke="rgb(179,179,179)" stroke-linejoin="round" d="M 14277,22946 L 14277,22796"/>
 <path fill="none" stroke="rgb(179,179,179)" stroke-linejoin="round" d="M 14387,22946 L 14387,22796"/>
 <path fill="none" stroke="rgb(179,179,179)" stroke-linejoin="round" d="M 14387,22946 L 14387,22796"/>
 <path fill="none" stroke="rgb(179,179,179)" stroke-linejoin="round" d="M 14497,22946 L 14497,22796"/>
 <path fill="none" stroke="rgb(179,179,179)" stroke-linejoin="round" d="M 14497,22946 L 14497,22796"/>
 <path fill="none" stroke="rgb(179,179,179)" stroke-linejoin="round" d="M 14607,22946 L 14607,22796"/>
 <path fill="none" stroke="rgb(179,179,179)" stroke-linejoin="round" d="M 14607,22946 L 14607,22796"/>
 <path fill="none" stroke="rgb(179,179,179)" stroke-linejoin="round" d="M 14716,22946 L 14716,22796"/>
 <path fill="none" stroke="rgb(179,179,179)" stroke-linejoin="round" d="M 14716,22946 L 14716,22796"/>
 <path fill="none" stroke="rgb(179,179,179)" stroke-linejoin="round" d="M 14826,22946 L 14826,22796"/>
 <path fill="none" stroke="rgb(179,179,179)" stroke-linejoin="round" d="M 14826,22946 L 14826,22796"/>
 <path fill="none" stroke="rgb(179,179,179)" stroke-linejoin="round" d="M 14936,22946 L 14936,22796"/>
 <path fill="none" stroke="rgb(179,179,179)" stroke-linejoin="round" d="M 14936,22946 L 14936,22796"/>
 <path fill="none" stroke="rgb(179,179,179)" stroke-linejoin="round" d="M 15046,22946 L 15046,22796"/>
 <path fill="none" stroke="rgb(179,179,179)" stroke-linejoin="round" d="M 15046,22946 L 15046,22796"/>
 <path fill="none" stroke="rgb(179,179,179)" stroke-linejoin="round" d="M 15155,22946 L 15155,22796"/>
 <path fill="none" stroke="rgb(179,179,179)" stroke-linejoin="round" d="M 15155,22946 L 15155,22796"/>
 <path fill="none" stroke="rgb(179,179,179)" stroke-linejoin="round" d="M 15265,22946 L 15265,22796"/>
 <path fill="none" stroke="rgb(179,179,179)" stroke-linejoin="round" d="M 15265,22946 L 15265,22796"/>
 <path fill="none" stroke="rgb(179,179,179)" stroke-linejoin="round" d="M 15375,22946 L 15375,22796"/>
 <path fill="none" stroke="rgb(179,179,179)" stroke-linejoin="round" d="M 15375,22946 L 15375,22796"/>
 <path fill="none" stroke="rgb(179,179,179)" stroke-linejoin="round" d="M 15485,22946 L 15485,22796"/>
 <path fill="none" stroke="rgb(179,179,179)" stroke-linejoin="round" d="M 15485,22946 L 15485,22796"/>
 <path fill="none" stroke="rgb(179,179,179)" stroke-linejoin="round" d="M 15594,22946 L 15594,22796"/>
 <path fill="none" stroke="rgb(179,179,179)" stroke-linejoin="round" d="M 15594,22946 L 15594,22796"/>
 <path fill="none" stroke="rgb(179,179,179)" stroke-linejoin="round" d="M 15704,22946 L 15704,22796"/>
 <path fill="none" stroke="rgb(179,179,179)" stroke-linejoin="round" d="M 15704,22946 L 15704,22796"/>
 <path fill="none" stroke="rgb(179,179,179)" stroke-linejoin="round" d="M 15814,22946 L 15814,22796"/>
 <path fill="none" stroke="rgb(179,179,179)" stroke-linejoin="round" d="M 15814,22946 L 15814,22796"/>
 <path fill="none" stroke="rgb(179,179,179)" stroke-linejoin="round" d="M 15924,22946 L 15924,22796"/>
 <path fill="none" stroke="rgb(179,179,179)" stroke-linejoin="round" d="M 15924,22946 L 15924,22796"/>
 <path fill="none" stroke="rgb(179,179,179)" stroke-linejoin="round" d="M 16033,22946 L 16033,22796"/>
 <path fill="none" stroke="rgb(179,179,179)" stroke-linejoin="round" d="M 16033,22946 L 16033,22796"/>
 <path fill="none" stroke="rgb(179,179,179)" stroke-linejoin="round" d="M 16143,22946 L 16143,22796"/>
 <path fill="none" stroke="rgb(179,179,179)" stroke-linejoin="round" d="M 16143,22946 L 16143,22796"/>
 <path fill="none" stroke="rgb(179,179,179)" stroke-linejoin="round" d="M 16253,22946 L 16253,22796"/>
 <path fill="none" stroke="rgb(179,179,179)" stroke-linejoin="round" d="M 16253,22946 L 16253,22796"/>
 <path fill="none" stroke="rgb(179,179,179)" stroke-linejoin="round" d="M 16362,22946 L 16362,22796"/>
 <path fill="none" stroke="rgb(179,179,179)" stroke-linejoin="round" d="M 16362,22946 L 16362,22796"/>
 <path fill="none" stroke="rgb(179,179,179)" stroke-linejoin="round" d="M 16472,22946 L 16472,22796"/>
 <path fill="none" stroke="rgb(179,179,179)" stroke-linejoin="round" d="M 16472,22946 L 16472,22796"/>
 <path fill="none" stroke="rgb(179,179,179)" stroke-linejoin="round" d="M 16582,22946 L 16582,22796"/>
 <path fill="none" stroke="rgb(179,179,179)" stroke-linejoin="round" d="M 16582,22946 L 16582,22796"/>
 <path fill="none" stroke="rgb(179,179,179)" stroke-linejoin="round" d="M 16692,22946 L 16692,22796"/>
 <path fill="none" stroke="rgb(179,179,179)" stroke-linejoin="round" d="M 16692,22946 L 16692,22796"/>
 <path fill="none" stroke="rgb(179,179,179)" stroke-linejoin="round" d="M 16801,22946 L 16801,22796"/>
 <path fill="none" stroke="rgb(179,179,179)" stroke-linejoin="round" d="M 16801,22946 L 16801,22796"/>
 <path fill="none" stroke="rgb(179,179,179)" stroke-linejoin="round" d="M 16911,22946 L 16911,22796"/>
 <path fill="none" stroke="rgb(179,179,179)" stroke-linejoin="round" d="M 16911,22946 L 16911,22796"/>
 <path fill="none" stroke="rgb(179,179,179)" stroke-linejoin="round" d="M 17021,22946 L 17021,22796"/>
 <path fill="none" stroke="rgb(179,179,179)" stroke-linejoin="round" d="M 17021,22946 L 17021,22796"/>
 <path fill="none" stroke="rgb(179,179,179)" stroke-linejoin="round" d="M 17131,22946 L 17131,22796"/>
 <path fill="none" stroke="rgb(179,179,179)" stroke-linejoin="round" d="M 17131,22946 L 17131,22796"/>
 <path fill="none" stroke="rgb(179,179,179)" stroke-linejoin="round" d="M 17240,22946 L 17240,22796"/>
 <path fill="none" stroke="rgb(179,179,179)" stroke-linejoin="round" d="M 17240,22946 L 17240,22796"/>
 <path fill="none" stroke="rgb(179,179,179)" stroke-linejoin="round" d="M 17350,22946 L 17350,22796"/>
 <path fill="none" stroke="rgb(179,179,179)" stroke-linejoin="round" d="M 17350,22946 L 17350,22796"/>
 <path fill="none" stroke="rgb(179,179,179)" stroke-linejoin="round" d="M 17460,22946 L 17460,22796"/>
 <path fill="none" stroke="rgb(179,179,179)" stroke-linejoin="round" d="M 17460,22946 L 17460,22796"/>
 <path fill="none" stroke="rgb(179,179,179)" stroke-linejoin="round" d="M 17570,22946 L 17570,22796"/>
 <path fill="none" stroke="rgb(179,179,179)" stroke-linejoin="round" d="M 17570,22946 L 17570,22796"/>
 <path fill="none" stroke="rgb(179,179,179)" stroke-linejoin="round" d="M 17679,22946 L 17679,22796"/>
 <path fill="none" stroke="rgb(179,179,179)" stroke-linejoin="round" d="M 17679,22946 L 17679,22796"/>
 <path fill="none" stroke="rgb(179,179,179)" stroke-linejoin="round" d="M 17789,22946 L 17789,22796"/>
 <path fill="none" stroke="rgb(179,179,179)" stroke-linejoin="round" d="M 17789,22946 L 17789,22796"/>
 <path fill="none" stroke="rgb(179,179,179)" stroke-linejoin="round" d="M 17899,22946 L 17899,22796"/>
 <path fill="none" stroke="rgb(179,179,179)" stroke-linejoin="round" d="M 17899,22946 L 17899,22796"/>
 <path fill="none" stroke="rgb(179,179,179)" stroke-linejoin="round" d="M 18009,22946 L 18009,22796"/>
 <path fill="none" stroke="rgb(179,179,179)" stroke-linejoin="round" d="M 18009,22946 L 18009,22796"/>
 <path fill="none" stroke="rgb(179,179,179)" stroke-linejoin="round" d="M 18118,22946 L 18118,22796"/>
 <path fill="none" stroke="rgb(179,179,179)" stroke-linejoin="round" d="M 18118,22946 L 18118,22796"/>
 <path fill="none" stroke="rgb(179,179,179)" stroke-linejoin="round" d="M 18228,22946 L 18228,22796"/>
 <path fill="none" stroke="rgb(179,179,179)" stroke-linejoin="round" d="M 18228,22946 L 18228,22796"/>
 <path fill="none" stroke="rgb(179,179,179)" stroke-linejoin="round" d="M 18338,22946 L 18338,22796"/>
 <path fill="none" stroke="rgb(179,179,179)" stroke-linejoin="round" d="M 18338,22946 L 18338,22796"/>
 <path fill="none" stroke="rgb(179,179,179)" stroke-linejoin="round" d="M 18448,22946 L 18448,22796"/>
 <path fill="none" stroke="rgb(179,179,179)" stroke-linejoin="round" d="M 18448,22946 L 18448,22796"/>
 <path fill="none" stroke="rgb(179,179,179)" stroke-linejoin="round" d="M 1220,22796 L 18448,22796"/>
 <path fill="none" stroke="rgb(179,179,179)" stroke-linejoin="round" d="M 1070,22796 L 1220,22796"/>
 <path fill="none" stroke="rgb(179,179,179)" stroke-linejoin="round" d="M 1070,22796 L 1220,22796"/>
 <path fill="none" stroke="rgb(179,179,179)" stroke-linejoin="round" d="M 1070,20696 L 1220,20696"/>
 <path fill="none" stroke="rgb(179,179,179)" stroke-linejoin="round" d="M 1070,20696 L 1220,20696"/>
 <path fill="none" stroke="rgb(179,179,179)" stroke-linejoin="round" d="M 1070,18596 L 1220,18596"/>
 <path fill="none" stroke="rgb(179,179,179)" stroke-linejoin="round" d="M 1070,18596 L 1220,18596"/>
 <path fill="none" stroke="rgb(179,179,179)" stroke-linejoin="round" d="M 1070,16496 L 1220,16496"/>
 <path fill="none" stroke="rgb(179,179,179)" stroke-linejoin="round" d="M 1070,16496 L 1220,16496"/>
 <path fill="none" stroke="rgb(179,179,179)" stroke-linejoin="round" d="M 1070,14396 L 1220,14396"/>
 <path fill="none" stroke="rgb(179,179,179)" stroke-linejoin="round" d="M 1070,14396 L 1220,14396"/>
 <path fill="none" stroke="rgb(179,179,179)" stroke-linejoin="round" d="M 1070,12297 L 1220,12297"/>
 <path fill="none" stroke="rgb(179,179,179)" stroke-linejoin="round" d="M 1070,12297 L 1220,12297"/>
 <path fill="none" stroke="rgb(179,179,179)" stroke-linejoin="round" d="M 1070,10197 L 1220,10197"/>
 <path fill="none" stroke="rgb(179,179,179)" stroke-linejoin="round" d="M 1070,10197 L 1220,10197"/>
 <path fill="none" stroke="rgb(179,179,179)" stroke-linejoin="round" d="M 1070,8097 L 1220,8097"/>
 <path fill="none" stroke="rgb(179,179,179)" stroke-linejoin="round" d="M 1070,8097 L 1220,8097"/>
 <path fill="none" stroke="rgb(179,179,179)" stroke-linejoin="round" d="M 1070,5997 L 1220,5997"/>
 <path fill="none" stroke="rgb(179,179,179)" stroke-linejoin="round" d="M 1070,5997 L 1220,5997"/>
 <path fill="none" stroke="rgb(179,179,179)" stroke-linejoin="round" d="M 1070,3897 L 1220,3897"/>
 <path fill="none" stroke="rgb(179,179,179)" stroke-linejoin="round" d="M 1070,3897 L 1220,3897"/>
 <path fill="none" stroke="rgb(179,179,179)" stroke-linejoin="round" d="M 1070,1798 L 1220,1798"/>
 <path fill="none" stroke="rgb(179,179,179)" stroke-linejoin="round" d="M 1070,1798 L 1220,1798"/>
 <path fill="none" stroke="rgb(179,179,179)" stroke-linejoin="round" d="M 1220,22796 L 1220,1798"/>
 <path fill="none" stroke="rgb(131,202,255)" stroke-width="80" stroke-linejoin="round" d="M 11102,1798 L 11151,1859 11261,2037 11370,2201 11480,2351 11590,2409 11700,2562 11808,2642 11918,2725 12028,2848 12138,2880 12247,2914 12357,2958 12467,3073 12576,3252 12686,3297 12796,3373 12906,3468 13015,3487 13125,3515 13235,3609 13345,3645 13454,3665 13564,3695 13674,3731 13784,3744 13893,3752 14003,3793 14113,3866 14223,3892 14332,3914 14442,3940 14552,3969 14662,3979 14771,4002 14881,4051 14991,4062 15100,4079 15210,4102 15320,4114 15430,4127 15539,4144 15649,4158 15759,4173 15869,4203 15978,4213 16088,4222 16198,4233 16308,4242 16417,4265 16527,4334 16637,4346 16747,4367 16856,4384 16966,4389 17076,4403 17186,4417 17295,4446 17405,4473 17515,4494 17624,4507 17734,4518 17844,4534 17954,4550 18063,4568 18173,4602 18283,4549 18393,4560"/>
 <path fill="none" stroke="rgb(255,128,0)" stroke-width="80" stroke-linejoin="round" stroke-dasharray="158,158" d="M 14444,1798 L 14552,2219 14662,2467 14771,2683 14881,2812 14991,3002 15100,3395 15210,3375 15320,3381 15430,3435 15539,3583 15649,3736 15759,3834 15869,3902 15978,3971 16088,3999 16198,3999 16308,4010 16417,4055 16527,4094 16637,4134 16747,4163 16856,4301 16966,4431 17076,4411 17186,4466 17295,4605 17405,4550 17515,4691 17624,4732 17734,4776 17844,4786 17954,4797 18063,4899 18173,5044 18283,5123 18393,5177"/>
 <path fill="none" stroke="rgb(180,120,4)" stroke-width="80" stroke-linejoin="round" stroke-dasharray="80,40" d="M 6464,1798 L 6542,12098 6652,12098 6761,11869 6871,11793 6981,11640 7091,11640 7200,11563 7310,11487 7420,11334 7529,11258 7639,11258 7749,11258 7859,11181 7968,10952 8078,10876 8188,10570 8298,10417 8407,10341 8517,10188 8627,10188 8737,10112 8846,9959 8956,9882 9066,9729 9176,9729 9285,9653 9395,9577 9505,9577 9615,9424 9724,9424 9834,9424 9944,9424 10053,9118 10163,9118 10273,9118 10383,9042 10492,9042 10602,9042 10712,9042 10822,8889 10931,8812 11041,8812 11151,8812 11261,8812 11370,8812 11480,8812 11590,8736 11700,8660 11808,8507 11918,8430 12028,8354 12138,8278 12247,8278 12357,8278 12467,8278 12576,8278 12686,8201 12796,8201 12906,8201 13015,8201 13125,8201 13235,8125 13345,8125 13454,8125 13564,8125 13674,8125 13784,8125 13893,8125 14003,8048 14113,8048 14223,8048 14332,8048 14442,8048 14552,8048 14662,8048 14771,8048 14881,8048 14991,8048 15100,7972 15210,7972 15320,7972 15430,7895 15539,7743 15649,7513 15759,7437 15869,7437 15978,7437 16088,7361 16198,7361 16308,7284 16417,7284 16527,7284 16637,7055 16747,7055 16856,6902 16966,6826 17076,6826 17186,6749 17295,6749 17405,6749 17515,6673 17624,6272 17734,6194 17844,6116 17954,5960 18063,5570 18173,5414 18283,5180 18393,5025"/>
 <path fill="none" stroke="rgb(255,0,0)" stroke-width="80" stroke-linejoin="round" stroke-dasharray="158,158" d="M 2262,17874 L 2372,11313 2481,8177 2591,2042 2597,1798"/>
 <path fill="none" stroke="rgb(255,0,0)" stroke-width="80" stroke-linejoin="round" stroke-dasharray="158,158" d="M 6261,1798 L 6322,2347 6432,2409 6542,4056 6652,4747 6761,4993 6871,5761 6981,6496 7091,6606 7200,7123 7310,7621 7420,7708 7529,8533 7639,8486 7749,8565 7859,9107 7968,9133 8078,10584 8188,10807 8298,10799 8407,11044 8517,10954 8627,11054 8737,11168 8846,11326 8956,11437 9066,11759 9176,11882 9285,11918 9395,12044 9505,12204 9615,12528 9724,12582 9834,12663 9944,12768 10053,12817 10163,12797 10273,12935 10383,12952 10492,13027 10602,13169 10712,13234 10822,13313 10931,13261 11041,13341 11151,13390 11261,13414 11370,13434 11480,13377 11590,13323 11700,13407 11808,13343 11918,13312 12028,13384 12138,13385 12247,13408 12357,13406 12467,13394 12576,13407 12686,13619 12796,13677 12906,13792 13015,13799 13125,13724 13235,13696 13345,13733 13454,13648 13564,13620 13674,13641 13784,13620 13893,13612 14003,13597 14113,13623 14223,13612 14332,13617 14442,13622 14552,13614 14662,13594 14771,13497 14881,13500 14991,13469 15100,13440 15210,13416 15320,13390 15430,13389 15539,13891 15649,13851 15759,13817 15869,13890 15978,13837 16088,13841 16198,13816 16308,13798 16417,13787 16527,13704 16637,13687 16747,13661 16856,13613 16966,13594 17076,13498 17186,13535 17295,13503 17405,13418 17515,13450 17624,13383 17734,13342 17844,13307 17954,13303 18063,13277 18173,13243 18283,13203 18393,13159"/>
 <path fill="none" stroke="rgb(129,212,26)" stroke-width="80" stroke-linejoin="round" stroke-dasharray="80,40" d="M 5553,1798 L 5554,14494 5664,14051 5774,13766 5883,11266 5993,10708 6103,10435 6213,10265 6322,9617 6432,13462 6542,13132 6652,12873 6761,12709 6871,12575 6981,12451 7091,12294 7200,14358 7310,14186 7420,14026 7529,13922 7639,13849 7749,13793 7859,13664 7968,14723 8078,14674 8188,14609 8298,14529 8407,14475 8517,14453 8627,14378 8737,14963 8846,14903 8956,14859 9066,14799 9176,14779 9285,14789 9395,14744 9505,15043 9615,15005 9724,14976 9834,14948 9944,14943 10053,14953 10163,14915 10273,15121 10383,15098 10492,15071 10602,15034 10712,15029 10822,15010 10931,14973 11041,14955 11151,14918 11261,14909 11370,14909 11480,14904 11590,14904 11700,14890 11808,14885 11918,14867 12028,14867 12138,14862 12247,14862 12357,14853 12467,14839 12576,15039 12686,15035 12796,15021 12906,15003 13015,14999 13125,14999 13235,14994 13345,14985 13454,14985 13564,14976 13674,14972 13784,14972 13893,14972 14003,14967 14113,14985 14223,14963 14332,14958 14442,14949 14552,14949 14662,14949 14771,14949 14881,14940 14991,14936 15100,14922 15210,14918 15320,14918 15430,14918 15539,14918 15649,14913 15759,14873 15869,14873 15978,14868 16088,14868 16198,14868 16308,14868 16417,14868 16527,14873 16637,14873 16747,14873 16856,14873 16966,14873 17076,14873 17186,14873 17295,14850 17405,14832 17515,14832 17624,14832 17734,14832 17844,14828 17954,14823 18063,14823 18173,14823 18283,14823 18393,14823"/>
 <path fill="none" stroke="rgb(131,202,255)" stroke-width="80" stroke-linejoin="round" stroke-dasharray="158,158" d="M 8473,1798 L 8517,14616 8627,14634 8737,14568 8846,14490 8956,14490 9066,14490 9176,14412 9285,14449 9395,14371 9505,14421 9615,14433 9724,14439 9834,14439 9944,14445 10053,14368 10163,14368 10273,14368 10383,14374 10492,14374 10602,14374 10712,14374 10822,14374 10931,14374 11041,14374 11151,14374 11261,14374 11370,14374 11480,14374 11590,14374 11700,14374 11808,14374 11918,14374 12028,14374 12138,14374 12247,14478 12357,14478 12467,14478 12576,14478 12686,14478 12796,14478 12906,14478 13015,14375 13125,14375 13235,14375 13345,14375 13454,14375 13564,14375 13674,14375 13784,14375 13893,14375 14003,14605 14113,14640 14223,14640 14332,14640 14442,14640 14552,14862 14662,14883 14771,14963 14881,15031 14991,15138 15100,15138 15210,15363 15320,15296 15430,15394 15539,15430 15649,15469 15759,15526 15869,15600 15978,15537 16088,15537 16198,15768 16308,15744 16417,15820 16527,15894 16637,15843 16747,15934 16856,15896 16966,15800 17076,15830 17186,15885 17295,15921 17405,15985 17515,15930 17624,15876 17734,15939 17844,15885 17954,15885 18063,15885 18173,16114 18283,16163 18393,16192"/>
 <path fill="none" stroke="rgb(191,0,65)" stroke-width="80" stroke-linejoin="round" stroke-dasharray="51,127,51,127,254,127,254,127,254,127" d="M 5610,1798 L 5664,2432 5774,3095 5883,4361 5993,4575 6103,5008 6213,5373 6322,5747 6432,6322 6542,7142 6652,7543 6761,7789 6871,8111 6981,8384 7091,8663 7200,9164 7310,9473 7420,9927 7529,10244 7639,10285 7749,10410 7859,10798 7968,10928 8078,11528 8188,11693 8298,11809 8407,11955 8517,12321 8627,12409 8737,12531 8846,12803 8956,12928 9066,13073 9176,13157 9285,13171 9395,13382 9505,13494 9615,13689 9724,13706 9834,13798 9944,13870 10053,13910 10163,13915 10273,13980 10383,14047 10492,14068 10602,14143 10712,14192 10822,14229 10931,14222 11041,14249 11151,14316 11261,14333 11370,14359 11480,14333 11590,14335 11700,14385 11808,14389 11918,14387 12028,14442 12138,14479 12247,14553 12357,14603 12467,14639 12576,14680 12686,14795 12796,14861 12906,14982 13015,15045 13125,15056 13235,15069 13345,15120 13454,15125 13564,15145 13674,15196 13784,15253 13893,15272 14003,15289 14113,15361 14223,15420 14332,15475 14442,15531 14552,15582 14662,15624 14771,15615 14881,15696 14991,15738 15100,15792 15210,15822 15320,15844 15430,15870 15539,16008 15649,16036 15759,16083 15869,16148 15978,16179 16088,16325 16198,16330 16308,16332 16417,16325 16527,16322 16637,16328 16747,16345 16856,16340 16966,16345 17076,16339 17186,16341 17295,16360 17405,16378 17515,16388 17624,16378 17734,16385 17844,16385 17954,16414 18063,16415 18173,16448 18283,16449 18393,16435"/>
 <path fill="none" stroke="rgb(0,169,51)" stroke-width="80" stroke-linejoin="round" stroke-dasharray="158,158" d="M 7837,1798 L 7859,1842 7968,2597 8078,3221 8188,3146 8298,3557 8407,3834 8517,3925 8627,4593 8737,4990 8846,5466 8956,5730 9066,6424 9176,6547 9285,6962 9395,7286 9505,7485 9615,8217 9724,8742 9834,9080 9944,9110 10053,9311 10163,9333 10273,10086 10383,11122 10492,10786 10602,11923 10712,11944 10822,11946 10931,11993 11041,12259 11151,12347 11261,12273 11370,12315 11480,12236 11590,12438 11700,12337 11808,12519 11918,12518 12028,12704 12138,12489 12247,12721 12357,12784 12467,12945 12576,13099 12686,13448 12796,13608 12906,13632 13015,13627 13125,13727 13235,13771 13345,13847 13454,14102 13564,14119 13674,14064 13784,13935 13893,14046 14003,14014 14113,14206 14223,14276 14332,14321 14442,14329 14552,14317 14662,14556 14771,14684 14881,14896 14991,14962 15100,15063 15210,15103 15320,15124 15430,15105 15539,15526 15649,15537 15759,15929 15869,16058 15978,16107 16088,16129 16198,16272 16308,16331 16417,16325 16527,16434 16637,16432 16747,16475 16856,16450 16966,16449 17076,16539 17186,16573 17295,16602 17405,16707 17515,16742 17624,16757 17734,16756 17844,16731 17954,16827 18063,16827 18173,17128 18283,17122 18393,17103"/>
 <path fill="none" stroke="rgb(0,169,51)" stroke-width="80" stroke-linejoin="round" stroke-dasharray="80,40" d="M 6527,1798 L 6542,1901 6652,3217 6761,4265 6871,4752 6981,4900 7091,5232 7200,6263 7310,6492 7420,7080 7529,7637 7639,8055 7749,8156 7859,8428 7968,8693 8078,8951 8188,9031 8298,9407 8407,9762 8517,9913 8627,10202 8737,10453 8846,10722 8956,10987 9066,11182 9176,11422 9285,11398 9395,12066 9505,12348 9615,12476 9724,12476 9834,12683 9944,12884 10053,12946 10163,13018 10273,13051 10383,13204 10492,13176 10602,13219 10712,13346 10822,13377 10931,13383 11041,13354 11151,13481 11261,13501 11370,13587 11480,13592 11590,13627 11700,13682 11808,13746 11918,13775 12028,13873 12138,14062 12247,14261 12357,14439 12467,14580 12576,14713 12686,14848 12796,14988 12906,15252 13015,15448 13125,15540 13235,15577 13345,15679 13454,15742 13564,15810 13674,15931 13784,16088 13893,16132 14003,16176 14113,16288 14223,16404 14332,16499 14442,16614 14552,16720 14662,16782 14771,16788 14881,16921 14991,16970 15100,17059 15210,17118 15320,17167 15430,17202 15539,17213 15649,17259 15759,17300 15869,17365 15978,17406 16088,17439 16198,17440 16308,17451 16417,17437 16527,17462 16637,17494 16747,17539 16856,17559 16966,17582 17076,17590 17186,17576 17295,17570 17405,17590 17515,17604 17624,17625 17734,17645 17844,17649 17954,17687 18063,17695 18173,17710 18283,17745 18393,17759"/>
 <path fill="none" stroke="rgb(128,0,128)" stroke-width="80" stroke-linejoin="round" stroke-dasharray="80,40" d="M 4946,1798 L 5005,3921 5115,6297 5225,7600 5335,7611 5444,6744 5554,9408 5664,11621 5774,12271 5883,13029 5993,13437 6103,13578 6213,13714 6322,14177 6432,14403 6542,14774 6652,14841 6761,15153 6871,15190 6981,15225 7091,15672 7200,15776 7310,15834 7420,16070 7529,16582 7639,16455 7749,16493 7859,16619 7968,16551 8078,16725 8188,16920 8298,16951 8407,16898 8517,16582 8627,16649 8737,16790 8846,16690 8956,17031 9066,16968 9176,16983 9285,16983 9395,16937 9505,16943 9615,16811 9724,16924 9834,16815 9944,16849 10053,16849 10163,16827 10273,16879 10383,16940 10492,17070 10602,17152 10712,17182 10822,17195 10931,17146 11041,17120 11151,17133 11261,17246 11370,17234 11480,17277 11590,17211 11700,17258 11808,17281 11918,17289 12028,17337 12138,17367 12247,17386 12357,17386 12467,17344 12576,17277 12686,17314 12796,17339 12906,17347 13015,17347 13125,17379 13235,17390 13345,17422 13454,17464 13564,17406 13674,17427 13784,17427 13893,17434 14003,17434 14113,17451 14223,17492 14332,17509 14442,17542 14552,17516 14662,17516 14771,17516 14881,17552 14991,17589 15100,17595 15210,17546 15320,17546 15430,17549 15539,17549 15649,17569 15759,17582 15869,17598 15978,17598 16088,17598 16198,17611 16308,17620 16417,17683 16527,17683 16637,17686 16747,17686 16856,17686 16966,17689 17076,17696 17186,17641 17295,17660 17405,17666 17515,17697 17624,17703 17734,17703 17844,17730 17954,17742 18063,17760 18173,17766 18283,17805 18393,17805"/>
 <path fill="none" stroke="rgb(129,212,26)" stroke-width="80" stroke-linejoin="round" stroke-dasharray="158,158" d="M 2152,12297 L 2262,12297 2372,12297 2481,12297 2536,1798"/>
 <path fill="none" stroke="rgb(129,212,26)" stroke-width="80" stroke-linejoin="round" stroke-dasharray="158,158" d="M 3460,1798 L 3469,16146 3579,15796 3689,14046 3798,12996 3908,13346 4018,10897 4128,8797 4237,8097 4347,5997 4457,5647 4567,3197 4676,2147 4698,1798"/>
 <path fill="none" stroke="rgb(129,212,26)" stroke-width="80" stroke-linejoin="round" stroke-dasharray="158,158" d="M 4918,1798 L 5005,18163 5115,17731 5225,17237 5335,16990 5444,17651 5554,15393 5664,14973 5774,13766 5883,15362 5993,14984 6103,14816 6213,14690 6322,15333 6432,15071 6542,15411 6652,15166 6761,15096 6871,14746 6981,15596 7091,15416 7200,15236 7310,15146 7420,15971 7529,15840 7639,15787 7749,15682 7859,16081 7968,15861 8078,15788 8188,16643 8298,16559 8407,16538 8517,16496 8627,16475 8737,16146 8846,16102 8956,16102 9066,16102 9176,16080 9285,16455 9395,16372 9505,16352 9615,16820 9724,16801 9834,16763 9944,16687 10053,16725 10163,16687 10273,16668 10383,16966 10492,16966 10602,16966 10712,16948 10822,16948 10931,16930 11041,16930 11151,17292 11261,17292 11370,17292 11480,17275 11590,17275 11700,17275 11808,17275 11918,17275 12028,17275 12138,17275 12247,17275 12357,17431 12467,17431 12576,17593 12686,17593 12796,17578 12906,17578 13015,17578 13125,17578 13235,17578 13345,17655 13454,17655 13564,17640 13674,17640 13784,17640 13893,17640 14003,17640 14113,17716 14223,17716 14332,17716 14442,17716 14552,17716 14662,17716 14771,17716 14881,17790 14991,17790 15100,17790 15210,17790 15320,17790 15430,17790 15539,17790 15649,17819 15759,17819 15869,17804 15978,17804 16088,17804 16198,17804 16308,17804 16417,17825 16527,17825 16637,17825 16747,17825 16856,17825 16966,17825 17076,17795 17186,17817 17295,17817 17405,17817 17515,17817 17624,17817 17734,17786 17844,17786 17954,17836 18063,17836 18173,17836 18283,17836 18393,17836"/>
 <path fill="none" stroke="rgb(180,120,4)" stroke-width="80" stroke-linejoin="round" d="M 3350,1798 L 3359,11551 3469,11777 3579,11457 3689,10538 3798,9645 3908,9610 4018,9648 4128,9814 4237,9582 4347,9352 4457,9865 4567,10285 4676,10344 4786,11122 4896,11705 5005,12274 5115,12916 5225,13783 5335,14183 5444,14301 5554,14849 5664,15154 5774,15373 5883,15392 5993,15304 6103,15403 6213,15503 6322,15577 6432,15703 6542,15755 6652,15820 6761,15755 6871,15721 6981,15689 7091,15746 7200,15886 7310,15970 7420,16050 7529,16134 7639,16195 7749,16232 7859,16492 7968,16480 8078,16533 8188,16638 8298,16668 8407,16702 8517,16738 8627,16778 8737,16820 8846,16810 8956,16883 9066,16925 9176,16952 9285,16979 9395,17024 9505,17038 9615,17049 9724,17082 9834,17099 9944,17088 10053,17095 10163,17097 10273,17131 10383,17148 10492,17126 10602,17152 10712,17150 10822,17131 10931,17160 11041,17188 11151,17214 11261,17224 11370,17216 11480,17233 11590,17234 11700,17251 11808,17281 11918,17290 12028,17309 12138,17309 12247,17309 12357,17322 12467,17334 12576,17348 12686,17366 12796,17379 12906,17379 13015,17379 13125,17418 13235,17435 13345,17446 13454,17480 13564,17501 13674,17501 13784,17501 13893,17544 14003,17547 14113,17555 14223,17574 14332,17588 14442,17588 14552,17588 14662,17602 14771,17614 14881,17623 14991,17629 15100,17626 15210,17626 15320,17626 15430,17644 15539,17648 15649,17653 15759,17655 15869,17663 15978,17663 16088,17663 16198,17695 16308,17708 16417,17714 16527,17722 16637,17743 16747,17743 16856,17744 16966,17777 17076,17790 17186,17804 17295,17810 17405,17830 17515,17830 17624,17839 17734,17847 17844,17866 17954,17895 18063,17919 18173,17950 18283,17971 18393,17994"/>
 <path fill="none" stroke="rgb(52,42,6)" stroke-width="80" stroke-linejoin="round" d="M 1274,6819 L 1384,2254 1395,1798"/>
 <path fill="none" stroke="rgb(52,42,6)" stroke-width="80" stroke-linejoin="round" d="M 2441,1798 L 2481,17712 2591,16698 2701,17854 2811,17402 2920,17435 3030,16720 3140,17779 3250,17741 3359,17630 3469,17616 3579,17348 3689,17053 3798,17001 3908,16174 4018,16929 4128,17469 4237,17572 4347,17407 4457,17791 4567,17534 4676,17580 4786,17724 4896,17294 5005,17270 5115,17298 5225,17313 5335,17324 5444,17216 5554,17245 5664,17219 5774,17129 5883,17288 5993,17176 6103,17193 6213,17178 6322,17149 6432,17156 6542,17165 6652,17222 6761,17251 6871,17276 6981,17262 7091,17361 7200,17336 7310,17318 7420,17231 7529,17264 7639,17292 7749,17272 7859,17276 7968,17245 8078,17288 8188,17326 8298,17334 8407,17368 8517,17376 8627,17345 8737,17348 8846,17347 8956,17364 9066,17365 9176,17370 9285,17384 9395,17368 9505,17361 9615,17352 9724,17359 9834,17365 9944,17373 10053,17372 10163,17399 10273,17402 10383,17396 10492,17400 10602,17406 10712,17407 10822,17411 10931,17404 11041,17410 11151,17408 11261,17420 11370,17427 11480,17426 11590,17441 11700,17438 11808,17442 11918,17435 12028,17432 12138,17447 12247,17451 12357,17461 12467,17472 12576,17482 12686,17485 12796,17482 12906,17491 13015,17495 13125,17494 13235,17496 13345,17522 13454,17536 13564,17549 13674,17563 13784,17582 13893,17595 14003,17604 14113,17610 14223,17620 14332,17625 14442,17627 14552,17631 14662,17648 14771,17646 14881,17670 14991,17677 15100,17690 15210,17697 15320,17702 15430,17719 15539,17720 15649,17729 15759,17738 15869,17748 15978,17751 16088,17755 16198,17761 16308,17768 16417,17781 16527,17783 16637,17793 16747,17806 16856,17813 16966,17831 17076,17841 17186,17842 17295,17859 17405,17868 17515,17880 17624,17886 17734,17900 17844,17921 17954,17934 18063,17948 18173,17961 18283,17966 18393,17976"/>
 <path fill="none" stroke="rgb(128,0,128)" stroke-width="80" stroke-linejoin="round" stroke-dasharray="158,158" d="M 8504,1798 L 8517,2696 8627,2437 8737,2243 8846,2016 8956,4965 9066,5054 9176,14922 9285,14960 9395,15009 9505,15036 9615,15083 9724,15117 9834,15156 9944,15168 10053,15149 10163,15207 10273,15229 10383,15279 10492,15302 10602,15357 10712,15399 10822,15426 10931,15454 11041,15566 11151,15618 11261,15678 11370,15720 11480,15769 11590,15812 11700,15911 11808,16014 11918,16131 12028,16245 12138,16354 12247,16465 12357,16491 12467,16535 12576,16584 12686,16631 12796,16665 12906,16695 13015,16728 13125,16744 13235,16779 13345,16832 13454,16865 13564,16893 13674,16939 13784,16955 13893,16964 14003,16987 14113,17032 14223,17051 14332,17101 14442,17130 14552,17156 14662,17178 14771,17245 14881,17315 14991,17367 15100,17410 15210,17462 15320,17481 15430,17503 15539,17519 15649,17539 15759,17587 15869,17613 15978,17649 16088,17676 16198,17693 16308,17721 16417,17747 16527,17778 16637,17802 16747,17837 16856,17861 16966,17878 17076,17903 17186,17932 17295,17959 17405,17982 17515,18006 17624,18008 17734,18011 17844,18025 17954,18039 18063,18052 18173,18070 18283,18088 18393,18093"/>
 <path fill="none" stroke="rgb(0,169,51)" stroke-width="80" stroke-linejoin="round" d="M 1274,5297 L 1384,5297 1494,5297 1505,1798"/>
 <path fill="none" stroke="rgb(0,169,51)" stroke-width="80" stroke-linejoin="round" d="M 3012,1798 L 3030,3946 3140,4967 3250,10523 3359,12122 3469,13311 3579,14072 3689,15006 3798,15651 3908,16125 4018,16490 4128,16443 4237,16885 4347,17272 4457,17438 4567,17536 4676,17534 4786,17513 4896,17700 5005,18005 5115,18132 5225,18242 5335,18276 5444,18154 5554,18097 5664,18069 5774,18109 5883,18108 5993,18146 6103,18162 6213,18133 6322,18047 6432,18030 6542,18045 6652,18078 6761,18048 6871,18049 6981,18065 7091,18069 7200,18115 7310,18128 7420,18136 7529,18159 7639,18158 7749,18166 7859,18172 7968,18215 8078,18233 8188,18239 8298,18248 8407,18261 8517,18276 8627,18275 8737,18330 8846,18350 8956,18352 9066,18334 9176,18334 9285,18350 9395,18349 9505,18348 9615,18207 9724,18225 9834,18276 9944,18298 10053,18298 10163,18301 10273,18307 10383,18320 10492,18313 10602,18327 10712,18328 10822,18341 10931,18351 11041,18354 11151,18358 11261,18362 11370,18356 11480,18369 11590,18365 11700,18351 11808,18315 11918,18309 12028,18320 12138,18330 12247,18323 12357,18335 12467,18321 12576,18327 12686,18305 12796,18313 12906,18306 13015,18301 13125,18300 13235,18303 13345,18307 13454,18313 13564,18325 13674,18338 13784,18334 13893,18343 14003,18353 14113,18362 14223,18372 14332,18385 14442,18400 14552,18410 14662,18423 14771,18435 14881,18455 14991,18466 15100,18489 15210,18530 15320,18554 15430,18568 15539,18588 15649,18613 15759,18635 15869,18658 15978,18671 16088,18690 16198,18693 16308,18722 16417,18738 16527,18749 16637,18777 16747,18809 16856,18824 16966,18841 17076,18891 17186,18917 17295,18943 17405,18956 17515,18975 17624,18996 17734,19002 17844,19023 17954,19045 18063,19054 18173,19082 18283,19090 18393,19100"/>
 <path fill="none" stroke="rgb(85,48,141)" stroke-width="80" stroke-linejoin="round" stroke-dasharray="80,40" d="M 2591,9672 L 2701,9672 2811,13251 2920,17546 3030,7047 3140,7047 3250,6643 3359,6888 3417,1798"/>
 <path fill="none" stroke="rgb(85,48,141)" stroke-width="80" stroke-linejoin="round" stroke-dasharray="80,40" d="M 7314,1798 L 7420,14444 7529,14362 7639,14396 7749,14267 7859,14553 7968,14553 8078,15634 8188,15629 8298,15713 8407,15744 8517,15632 8627,15632 8737,15767 8846,18280 8956,18339 9066,18392 9176,18409 9285,18358 9395,18398 9505,18356 9615,18393 9724,18426 9834,18458 9944,18399 10053,18402 10163,18421 10273,18405 10383,18439 10492,18450 10602,18470 10712,18486 10822,18491 10931,18493 11041,18509 11151,18526 11261,18541 11370,18546 11480,18546 11590,18576 11700,18603 11808,18639 11918,18651 12028,18667 12138,18675 12247,18689 12357,18691 12467,18705 12576,18732 12686,18748 12796,18764 12906,18797 13015,18811 13125,18811 13235,18835 13345,18850 13454,18862 13564,18898 13674,18921 13784,18930 13893,18932 14003,18942 14113,18946 14223,18960 14332,18970 14442,18972 14552,18972 14662,18972 14771,18976 14881,18985 14991,18991 15100,19002 15210,19006 15320,19006 15430,19006 15539,19006 15649,19006 15759,19006 15869,19012 15978,19012 16088,19026 16198,19028 16308,19030 16417,19034 16527,19034 16637,19042 16747,19050 16856,19375 16966,19377 17076,19381 17186,19400 17295,19410 17405,19414 17515,19422 17624,19422 17734,19424 17844,19434 17954,19446 18063,19446 18173,19448 18283,19448 18393,19448"/>
 <path fill="none" stroke="rgb(131,202,255)" stroke-width="80" stroke-linejoin="round" stroke-dasharray="80,40" d="M 1933,1798 L 2043,1798 2152,1798 2262,1798 2372,1798 2481,1798 2591,18023 2701,8479 2811,14282 2920,11130 3030,10682 3140,13393 3250,13393 3359,14166 3469,14444 3579,13666 3689,12209 3798,10197 3908,9874 4018,11480 4128,11652 4237,13207 4347,13251 4457,15969 4567,16321 4676,16233 4786,14953 4896,15470 5005,15849 5115,16496 5225,16137 5335,15835 5444,16395 5554,16504 5664,16996 5774,16850 5883,17343 5993,17312 6103,17560 6213,17483 6322,17426 6432,17334 6542,17421 6652,17254 6761,17269 6871,17225 6981,17277 7091,17209 7200,17221 7310,17293 7420,17449 7529,17503 7639,17439 7749,17440 7859,17511 7968,17414 8078,17461 8188,17459 8298,17581 8407,17643 8517,17670 8627,17671 8737,17700 8846,17647 8956,17627 9066,17657 9176,17667 9285,17636 9395,17612 9505,17615 9615,17574 9724,17543 9834,17553 9944,17576 10053,17589 10163,17616 10273,17633 10383,17658 10492,17677 10602,17647 10712,17659 10822,17664 10931,17570 11041,17570 11151,17575 11261,17529 11370,17531 11480,17531 11590,17546 11700,17546 11808,17548 11918,17551 12028,17551 12138,17551 12247,17551 12357,17551 12467,17551 12576,17558 12686,17568 12796,17570 12906,17575 13015,17575 13125,17582 13235,17582 13345,17534 13454,17436 13564,17371 13674,17361 13784,17393 13893,17427 14003,17473 14113,17539 14223,17598 14332,17627 14442,17771 14552,17770 14662,17826 14771,17870 14881,18003 14991,18179 15100,18336 15210,18494 15320,18621 15430,18665 15539,18738 15649,18792 15759,18836 15869,19015 15978,19099 16088,19102 16198,19088 16308,19152 16417,19184 16527,19177 16637,19228 16747,19288 16856,19218 16966,19176 17076,19216 17186,19272 17295,19324 17405,19375 17515,19373 17624,19404 17734,19414 17844,19410 17954,19452 18063,19467 18173,19462 18283,19459 18393,19457"/>
 <path fill="none" stroke="rgb(255,191,0)" stroke-width="80" stroke-linejoin="round" stroke-dasharray="158,158" d="M 3892,1798 L 3908,16233 4018,9672 4128,9672 4237,3110 4347,3110 4457,3110 4468,1798"/>
 <path fill="none" stroke="rgb(255,191,0)" stroke-width="80" stroke-linejoin="round" stroke-dasharray="158,158" d="M 4848,1798 L 4896,10865 5005,13585 5115,16830 5225,16830 5335,16830 5444,16830 5554,15691 5664,14112 5774,14112 5883,18077 5993,18077 6103,18077 6213,17683 6322,17683 6432,18270 6542,18270 6652,17968 6761,17968 6871,17968 6981,17968 7091,17666 7200,18949 7310,18722 7420,18722 7529,18722 7639,18722 7749,18722 7859,19781 7968,19614 8078,19614 8188,19782 8298,19782 8407,19782 8517,19782 8627,19618 8737,19618 8846,19467 8956,19551 9066,19551 9176,19551 9285,19551 9395,19678 9505,19537 9615,19395 9724,19413 9834,19413 9944,19413 10053,19413 10163,19480 10273,19480 10383,19342 10492,19435 10602,19435 10712,19435 10822,19300 10931,19357 11041,19357 11151,19458 11261,19330 11370,19316 11480,19316 11590,19316 11700,19436 11808,19196 11918,19307 12028,19307 12138,19307 12247,19307 12357,19307 12467,19307 12576,19307 12686,19307 12796,19416 12906,19416 13015,19416 13125,19416 13235,19562 13345,19562 13454,19607 13564,19636 13674,19646 13784,19646 13893,19646 14003,19671 14113,19671 14223,19704 14332,19704 14442,19704 14552,19704 14662,19601 14771,19611 14881,19611 14991,19611 15100,19611 15210,19611 15320,19611 15430,19611 15539,19681 15649,19681 15759,19681 15869,19681 15978,19681 16088,19681 16198,19681 16308,19702 16417,19702 16527,19702 16637,19602 16747,19602 16856,19602 16966,19602 17076,19655 17186,19655 17295,19655 17405,19655 17515,19655 17624,19655 17734,19655 17844,19679 17954,19679 18063,19679 18173,19679 18283,19679 18393,19679"/>
 <path fill="none" stroke="rgb(255,191,0)" stroke-width="80" stroke-linejoin="round" d="M 2262,5297 L 2372,5297 2399,1798"/>
 <path fill="none" stroke="rgb(255,191,0)" stroke-width="80" stroke-linejoin="round" d="M 4906,1798 L 5005,4541 5115,7324 5225,7308 5335,7751 5444,9731 5554,10758 5664,11817 5774,12550 5883,13319 5993,13465 6103,13719 6213,14510 6322,14711 6432,15127 6542,15318 6652,15323 6761,15363 6871,15536 6981,15845 7091,16060 7200,16254 7310,16310 7420,16300 7529,16279 7639,16225 7749,16511 7859,16718 7968,16763 8078,16926 8188,17039 8298,17064 8407,17067 8517,17267 8627,17258 8737,17321 8846,17374 8956,17358 9066,17341 9176,17354 9285,17412 9395,17487 9505,17570 9615,17611 9724,17643 9834,17679 9944,17672 10053,17721 10163,17723 10273,17739 10383,17769 10492,17806 10602,17809 10712,17813 10822,17872 10931,17913 11041,17923 11151,17990 11261,18008 11370,18025 11480,18015 11590,18047 11700,18072 11808,18070 11918,18082 12028,18089 12138,18077 12247,18091 12357,18115 12467,18084 12576,18049 12686,18060 12796,18017 12906,18025 13015,18053 13125,18078 13235,18080 13345,18096 13454,18057 13564,18073 13674,18102 13784,18149 13893,18128 14003,18136 14113,18195 14223,18248 14332,18293 14442,18303 14552,18314 14662,18369 14771,18380 14881,18414 14991,18481 15100,18487 15210,18491 15320,18493 15430,18530 15539,18557 15649,18616 15759,18687 15869,18684 15978,18756 16088,19387 16198,19369 16308,19359 16417,19360 16527,19330 16637,19329 16747,19325 16856,19321 16966,19334 17076,19391 17186,19375 17295,19472 17405,19592 17515,19596 17624,19593 17734,19642 17844,19691 17954,19733 18063,19771 18173,19783 18283,19782 18393,19775"/>
 <path fill="none" stroke="rgb(241,13,12)" stroke-width="80" stroke-linejoin="round" stroke-dasharray="80,40" d="M 3908,1798 L 4018,2691 4128,4624 4237,2986 4347,4694 4457,5584 4567,5028 4676,3413 4786,3413 4896,3413 5005,6434 5115,6434 5225,6848 5335,7242 5444,7242 5554,9940 5664,8869 5774,8869 5883,7797 5993,12864 6103,12864 6213,12155 6322,12155 6432,12155 6542,17475 6652,17475 6761,17475 6871,17475 6981,17475 7091,17475 7200,17475 7310,18858 7420,18858 7529,18868 7639,18606 7749,18606 7859,19054 7968,18820 8078,19085 8188,19085 8298,19330 8407,19330 8517,19330 8627,19330 8737,19336 8846,19614 8956,19614 9066,19791 9176,19791 9285,19791 9395,19791 9505,19791 9615,20519 9724,20519 9834,20536 9944,20536 10053,20536 10163,20536 10273,20536 10383,20536 10492,20584 10602,20454 10712,20454 10822,20454 10931,20454 11041,20454 11151,20454 11261,20454 11370,20454 11480,20454 11590,20454 11700,20479 11808,20479 11918,20357 12028,20357 12138,20374 12247,20374 12357,20374 12467,20374 12576,20374 12686,20374 12796,20374 12906,20374 13015,20401 13125,20401 13235,20401 13345,20401 13454,20401 13564,20418 13674,20418 13784,20418 13893,20418 14003,20418 14113,20418 14223,20418 14332,20418 14442,20418 14552,20418 14662,20418 14771,20418 14881,20418 14991,20435 15100,20435 15210,20435 15320,20435 15430,20440 15539,20440 15649,20440 15759,20440 15869,20440 15978,20454 16088,20454 16198,20454 16308,20454 16417,20454 16527,20454 16637,20454 16747,20454 16856,20465 16966,20465 17076,20465 17186,20465 17295,20465 17405,20465 17515,20465 17624,20503 17734,20503 17844,20382 17954,20382 18063,20382 18173,20382 18283,20382 18393,20382"/>
 <path fill="none" stroke="rgb(0,0,255)" stroke-width="80" stroke-linejoin="round" d="M 3531,1798 L 3579,16286 3689,16286 3798,15236 3908,14186 4018,13556 4128,13136 4237,11877 4347,11457 4457,9777 4567,8937 4676,8307 4786,8727 4896,9023 5005,9672 5115,9740 5225,10218 5335,10572 5444,10434 5554,10573 5664,10983 5774,10826 5883,19828 5993,19905 6103,19819 6213,19837 6322,19803 6432,19814 6542,19854 6652,19789 6761,19884 6871,19813 6981,19835 7091,19841 7200,19815 7310,19800 7420,19818 7529,19808 7639,19838 7749,19851 7859,19829 7968,19815 8078,19845 8188,19830 8298,19843 8407,19761 8517,19771 8627,19717 8737,19726 8846,19736 8956,19742 9066,19750 9176,19730 9285,19741 9395,19743 9505,19749 9615,19759 9724,19768 9834,19768 9944,19782 10053,19792 10163,19794 10273,19804 10383,19814 10492,19823 10602,19825 10712,19833 10822,19835 10931,19836 11041,19837 11151,19842 11261,19848 11370,19851 11480,19856 11590,19857 11700,19859 11808,19860 11918,19864 12028,19867 12138,19872 12247,19876 12357,19878 12467,19878 12576,19883 12686,19885 12796,19885 12906,19892 13015,19892 13125,19906 13235,19907 13345,19910 13454,19917 13564,19920 13674,19920 13784,19920 13893,19920 14003,19948 14113,19948 14223,19948 14332,19969 14442,19969 14552,19943 14662,20009 14771,20017 14881,20051 14991,20069 15100,20106 15210,20106 15320,20106 15430,20185 15539,20193 15649,20223 15759,20234 15869,20265 15978,20265 16088,20265 16198,20358 16308,20352 16417,20382 16527,20414 16637,20490 16747,20450 16856,20429 16966,20542 17076,20558 17186,20592 17295,20623 17405,20659 17515,20641 17624,20641 17734,20736 17844,20737 17954,20750 18063,20798 18173,20825 18283,20809 18393,20809"/>
 <path fill="none" stroke="rgb(0,0,255)" stroke-width="80" stroke-linejoin="round" stroke-dasharray="158,158" d="M 3469,1798 L 3579,12297 3689,12297 3798,12297 3872,1798"/>
 <path fill="none" stroke="rgb(0,0,255)" stroke-width="80" stroke-linejoin="round" stroke-dasharray="158,158" d="M 3965,1798 L 4018,6643 4128,9672 4237,13666 4347,13666 4457,13666 4567,13666 4676,20833 4786,20937 4896,18624 5005,17766 5115,17396 5225,17373 5335,17294 5444,17358 5554,17098 5664,17620 5774,17327 5883,17768 5993,18171 6103,17999 6213,18106 6322,17831 6432,18023 6542,18187 6652,18468 6761,18651 6871,18725 6981,18713 7091,19253 7200,19351 7310,19409 7420,19779 7529,19825 7639,19894 7749,19949 7859,19912 7968,20121 8078,20246 8188,20289 8298,20241 8407,20268 8517,20315 8627,20329 8737,20407 8846,20434 8956,20455 9066,20499 9176,20536 9285,20546 9395,20572 9505,20580 9615,20588 9724,20598 9834,20627 9944,20643 10053,20646 10163,20653 10273,20657 10383,20659 10492,20664 10602,20664 10712,20679 10822,20690 10931,20699 11041,20702 11151,20709 11261,20709 11370,20710 11480,20710 11590,20710 11700,20734 11808,20750 11918,20758 12028,20764 12138,20764 12247,20764 12357,20764 12467,20765 12576,20765 12686,20771 12796,20775 12906,20775 13015,20783 13125,20787 13235,20787 13345,20790 13454,20790 13564,20790 13674,20790 13784,20790 13893,20790 14003,20800 14113,20800 14223,20805 14332,20810 14442,20826 14552,20826 14662,20826 14771,20826 14881,20845 14991,20854 15100,20865 15210,20865 15320,20874 15430,20884 15539,20884 15649,20906 15759,20906 15869,20931 15978,20931 16088,20931 16198,20976 16308,21007 16417,21025 16527,21040 16637,20999 16747,21048 16856,21048 16966,21052 17076,21076 17186,21082 17295,21126 17405,21032 17515,21047 17624,21049 17734,21051 17844,21059 17954,21068 18063,21117 18173,21121 18283,21142 18393,21142"/>
 <path fill="none" stroke="rgb(0,0,0)" stroke-width="80" stroke-linejoin="round" stroke-dasharray="158,158" d="M 4128,16233 L 4237,9672 4347,9672 4457,3110 4567,15637 4676,15637 4786,15637 4896,15637 5005,18954 5115,19334 5225,19614 5335,20126 5444,20296 5554,20696 5664,20887 5774,21251 5883,21383 5993,21109 6103,21306 6213,21327 6322,21409 6432,21557 6542,21599 6652,21699 6761,21687 6871,21724 6981,21743 7091,21493 7200,21506 7310,21524 7420,21543 7529,21566 7639,21583 7749,21586 7859,21586 7968,21351 8078,21373 8188,21420 8298,21396 8407,21408 8517,21414 8627,21426 8737,21441 8846,21449 8956,21452 9066,21464 9176,21472 9285,21497 9395,21497 9505,21299 9615,21329 9724,20957 9834,20996 9944,21026 10053,21036 10163,21090 10273,21114 10383,21155 10492,21175 10602,21210 10712,21210 10822,21210 10931,21213 11041,21213 11151,21221 11261,21221 11370,21223 11480,21228 11590,21228 11700,21241 11808,21246 11918,21246 12028,21254 12138,21261 12247,21261 12357,21264 12467,21266 12576,21281 12686,21288 12796,21300 12906,21307 13015,21310 13125,21317 13235,21319 13345,21335 13454,21339 13564,21342 13674,21344 13784,21346 13893,21346 14003,21348 14113,21351 14223,21355 14332,21359 14442,21359 14552,21364 14662,21364 14771,21364 14881,21366 14991,21366 15100,21368 15210,21368 15320,21368 15430,21372 15539,21372 15649,21375 15759,21375 15869,21375 15978,21375 16088,21375 16198,21375 16308,21375 16417,21375 16527,21375 16637,21375 16747,21375 16856,21377 16966,21377 17076,21377 17186,21381 17295,21385 17405,21396 17515,21396 17624,21414 17734,21422 17844,21430 17954,21436 18063,21461 18173,21555 18283,21587 18393,21534"/>
 <text class="TextShape" transform="rotate(-90 1368 23724)"><tspan class="TextParagraph" font-family="Liberation Sans, sans-serif" font-size="282px" font-weight="400"><tspan class="TextPosition" x="1368" y="23724"><tspan fill="rgb(0,0,0)" stroke="none">13.03</tspan></tspan></tspan></text>
 <text class="TextShape" transform="rotate(-90 1698 23724)"><tspan class="TextParagraph" font-family="Liberation Sans, sans-serif" font-size="282px" font-weight="400"><tspan class="TextPosition" x="1698" y="23724"><tspan fill="rgb(0,0,0)" stroke="none">16.03</tspan></tspan></tspan></text>
 <text class="TextShape" transform="rotate(-90 2027 23724)"><tspan class="TextParagraph" font-family="Liberation Sans, sans-serif" font-size="282px" font-weight="400"><tspan class="TextPosition" x="2027" y="23724"><tspan fill="rgb(0,0,0)" stroke="none">19.03</tspan></tspan></tspan></text>
 <text class="TextShape" transform="rotate(-90 2356 23724)"><tspan class="TextParagraph" font-family="Liberation Sans, sans-serif" font-size="282px" font-weight="400"><tspan class="TextPosition" x="2356" y="23724"><tspan fill="rgb(0,0,0)" stroke="none">22.03</tspan></tspan></tspan></text>
 <text class="TextShape" transform="rotate(-90 2685 23724)"><tspan class="TextParagraph" font-family="Liberation Sans, sans-serif" font-size="282px" font-weight="400"><tspan class="TextPosition" x="2685" y="23724"><tspan fill="rgb(0,0,0)" stroke="none">25.03</tspan></tspan></tspan></text>
 <text class="TextShape" transform="rotate(-90 3014 23724)"><tspan class="TextParagraph" font-family="Liberation Sans, sans-serif" font-size="282px" font-weight="400"><tspan class="TextPosition" x="3014" y="23724"><tspan fill="rgb(0,0,0)" stroke="none">28.03</tspan></tspan></tspan></text>
 <text class="TextShape" transform="rotate(-90 3344 23724)"><tspan class="TextParagraph" font-family="Liberation Sans, sans-serif" font-size="282px" font-weight="400"><tspan class="TextPosition" x="3344" y="23724"><tspan fill="rgb(0,0,0)" stroke="none">31.03</tspan></tspan></tspan></text>
 <text class="TextShape" transform="rotate(-90 3673 23724)"><tspan class="TextParagraph" font-family="Liberation Sans, sans-serif" font-size="282px" font-weight="400"><tspan class="TextPosition" x="3673" y="23724"><tspan fill="rgb(0,0,0)" stroke="none">03.04</tspan></tspan></tspan></text>
 <text class="TextShape" transform="rotate(-90 4002 23724)"><tspan class="TextParagraph" font-family="Liberation Sans, sans-serif" font-size="282px" font-weight="400"><tspan class="TextPosition" x="4002" y="23724"><tspan fill="rgb(0,0,0)" stroke="none">06.04</tspan></tspan></tspan></text>
 <text class="TextShape" transform="rotate(-90 4331 23724)"><tspan class="TextParagraph" font-family="Liberation Sans, sans-serif" font-size="282px" font-weight="400"><tspan class="TextPosition" x="4331" y="23724"><tspan fill="rgb(0,0,0)" stroke="none">09.04</tspan></tspan></tspan></text>
 <text class="TextShape" transform="rotate(-90 4661 23724)"><tspan class="TextParagraph" font-family="Liberation Sans, sans-serif" font-size="282px" font-weight="400"><tspan class="TextPosition" x="4661" y="23724"><tspan fill="rgb(0,0,0)" stroke="none">12.04</tspan></tspan></tspan></text>
 <text class="TextShape" transform="rotate(-90 4990 23724)"><tspan class="TextParagraph" font-family="Liberation Sans, sans-serif" font-size="282px" font-weight="400"><tspan class="TextPosition" x="4990" y="23724"><tspan fill="rgb(0,0,0)" stroke="none">15.04</tspan></tspan></tspan></text>
 <text class="TextShape" transform="rotate(-90 5319 23724)"><tspan class="TextParagraph" font-family="Liberation Sans, sans-serif" font-size="282px" font-weight="400"><tspan class="TextPosition" x="5319" y="23724"><tspan fill="rgb(0,0,0)" stroke="none">18.04</tspan></tspan></tspan></text>
 <text class="TextShape" transform="rotate(-90 5648 23724)"><tspan class="TextParagraph" font-family="Liberation Sans, sans-serif" font-size="282px" font-weight="400"><tspan class="TextPosition" x="5648" y="23724"><tspan fill="rgb(0,0,0)" stroke="none">21.04</tspan></tspan></tspan></text>
 <text class="TextShape" transform="rotate(-90 5977 23724)"><tspan class="TextParagraph" font-family="Liberation Sans, sans-serif" font-size="282px" font-weight="400"><tspan class="TextPosition" x="5977" y="23724"><tspan fill="rgb(0,0,0)" stroke="none">24.04</tspan></tspan></tspan></text>
 <text class="TextShape" transform="rotate(-90 6307 23724)"><tspan class="TextParagraph" font-family="Liberation Sans, sans-serif" font-size="282px" font-weight="400"><tspan class="TextPosition" x="6307" y="23724"><tspan fill="rgb(0,0,0)" stroke="none">27.04</tspan></tspan></tspan></text>
 <text class="TextShape" transform="rotate(-90 6636 23724)"><tspan class="TextParagraph" font-family="Liberation Sans, sans-serif" font-size="282px" font-weight="400"><tspan class="TextPosition" x="6636" y="23724"><tspan fill="rgb(0,0,0)" stroke="none">30.04</tspan></tspan></tspan></text>
 <text class="TextShape" transform="rotate(-90 6965 23724)"><tspan class="TextParagraph" font-family="Liberation Sans, sans-serif" font-size="282px" font-weight="400"><tspan class="TextPosition" x="6965" y="23724"><tspan fill="rgb(0,0,0)" stroke="none">03.05</tspan></tspan></tspan></text>
 <text class="TextShape" transform="rotate(-90 7294 23724)"><tspan class="TextParagraph" font-family="Liberation Sans, sans-serif" font-size="282px" font-weight="400"><tspan class="TextPosition" x="7294" y="23724"><tspan fill="rgb(0,0,0)" stroke="none">06.05</tspan></tspan></tspan></text>
 <text class="TextShape" transform="rotate(-90 7623 23724)"><tspan class="TextParagraph" font-family="Liberation Sans, sans-serif" font-size="282px" font-weight="400"><tspan class="TextPosition" x="7623" y="23724"><tspan fill="rgb(0,0,0)" stroke="none">09.05</tspan></tspan></tspan></text>
 <text class="TextShape" transform="rotate(-90 7953 23724)"><tspan class="TextParagraph" font-family="Liberation Sans, sans-serif" font-size="282px" font-weight="400"><tspan class="TextPosition" x="7953" y="23724"><tspan fill="rgb(0,0,0)" stroke="none">12.05</tspan></tspan></tspan></text>
 <text class="TextShape" transform="rotate(-90 8282 23724)"><tspan class="TextParagraph" font-family="Liberation Sans, sans-serif" font-size="282px" font-weight="400"><tspan class="TextPosition" x="8282" y="23724"><tspan fill="rgb(0,0,0)" stroke="none">15.05</tspan></tspan></tspan></text>
 <text class="TextShape" transform="rotate(-90 8611 23724)"><tspan class="TextParagraph" font-family="Liberation Sans, sans-serif" font-size="282px" font-weight="400"><tspan class="TextPosition" x="8611" y="23724"><tspan fill="rgb(0,0,0)" stroke="none">18.05</tspan></tspan></tspan></text>
 <text class="TextShape" transform="rotate(-90 8940 23724)"><tspan class="TextParagraph" font-family="Liberation Sans, sans-serif" font-size="282px" font-weight="400"><tspan class="TextPosition" x="8940" y="23724"><tspan fill="rgb(0,0,0)" stroke="none">21.05</tspan></tspan></tspan></text>
 <text class="TextShape" transform="rotate(-90 9270 23724)"><tspan class="TextParagraph" font-family="Liberation Sans, sans-serif" font-size="282px" font-weight="400"><tspan class="TextPosition" x="9270" y="23724"><tspan fill="rgb(0,0,0)" stroke="none">24.05</tspan></tspan></tspan></text>
 <text class="TextShape" transform="rotate(-90 9599 23724)"><tspan class="TextParagraph" font-family="Liberation Sans, sans-serif" font-size="282px" font-weight="400"><tspan class="TextPosition" x="9599" y="23724"><tspan fill="rgb(0,0,0)" stroke="none">27.05</tspan></tspan></tspan></text>
 <text class="TextShape" transform="rotate(-90 9928 23724)"><tspan class="TextParagraph" font-family="Liberation Sans, sans-serif" font-size="282px" font-weight="400"><tspan class="TextPosition" x="9928" y="23724"><tspan fill="rgb(0,0,0)" stroke="none">30.05</tspan></tspan></tspan></text>
 <text class="TextShape" transform="rotate(-90 10257 23724)"><tspan class="TextParagraph" font-family="Liberation Sans, sans-serif" font-size="282px" font-weight="400"><tspan class="TextPosition" x="10257" y="23724"><tspan fill="rgb(0,0,0)" stroke="none">02.06</tspan></tspan></tspan></text>
 <text class="TextShape" transform="rotate(-90 10586 23724)"><tspan class="TextParagraph" font-family="Liberation Sans, sans-serif" font-size="282px" font-weight="400"><tspan class="TextPosition" x="10586" y="23724"><tspan fill="rgb(0,0,0)" stroke="none">05.06</tspan></tspan></tspan></text>
 <text class="TextShape" transform="rotate(-90 10916 23724)"><tspan class="TextParagraph" font-family="Liberation Sans, sans-serif" font-size="282px" font-weight="400"><tspan class="TextPosition" x="10916" y="23724"><tspan fill="rgb(0,0,0)" stroke="none">08.06</tspan></tspan></tspan></text>
 <text class="TextShape" transform="rotate(-90 11245 23724)"><tspan class="TextParagraph" font-family="Liberation Sans, sans-serif" font-size="282px" font-weight="400"><tspan class="TextPosition" x="11245" y="23724"><tspan fill="rgb(0,0,0)" stroke="none">11.06</tspan></tspan></tspan></text>
 <text class="TextShape" transform="rotate(-90 11574 23724)"><tspan class="TextParagraph" font-family="Liberation Sans, sans-serif" font-size="282px" font-weight="400"><tspan class="TextPosition" x="11574" y="23724"><tspan fill="rgb(0,0,0)" stroke="none">14.06</tspan></tspan></tspan></text>
 <text class="TextShape" transform="rotate(-90 11902 23724)"><tspan class="TextParagraph" font-family="Liberation Sans, sans-serif" font-size="282px" font-weight="400"><tspan class="TextPosition" x="11902" y="23724"><tspan fill="rgb(0,0,0)" stroke="none">17.06</tspan></tspan></tspan></text>
 <text class="TextShape" transform="rotate(-90 12232 23724)"><tspan class="TextParagraph" font-family="Liberation Sans, sans-serif" font-size="282px" font-weight="400"><tspan class="TextPosition" x="12232" y="23724"><tspan fill="rgb(0,0,0)" stroke="none">20.06</tspan></tspan></tspan></text>
 <text class="TextShape" transform="rotate(-90 12561 23724)"><tspan class="TextParagraph" font-family="Liberation Sans, sans-serif" font-size="282px" font-weight="400"><tspan class="TextPosition" x="12561" y="23724"><tspan fill="rgb(0,0,0)" stroke="none">23.06</tspan></tspan></tspan></text>
 <text class="TextShape" transform="rotate(-90 12890 23724)"><tspan class="TextParagraph" font-family="Liberation Sans, sans-serif" font-size="282px" font-weight="400"><tspan class="TextPosition" x="12890" y="23724"><tspan fill="rgb(0,0,0)" stroke="none">26.06</tspan></tspan></tspan></text>
 <text class="TextShape" transform="rotate(-90 13219 23724)"><tspan class="TextParagraph" font-family="Liberation Sans, sans-serif" font-size="282px" font-weight="400"><tspan class="TextPosition" x="13219" y="23724"><tspan fill="rgb(0,0,0)" stroke="none">29.06</tspan></tspan></tspan></text>
 <text class="TextShape" transform="rotate(-90 13548 23724)"><tspan class="TextParagraph" font-family="Liberation Sans, sans-serif" font-size="282px" font-weight="400"><tspan class="TextPosition" x="13548" y="23724"><tspan fill="rgb(0,0,0)" stroke="none">02.07</tspan></tspan></tspan></text>
 <text class="TextShape" transform="rotate(-90 13878 23724)"><tspan class="TextParagraph" font-family="Liberation Sans, sans-serif" font-size="282px" font-weight="400"><tspan class="TextPosition" x="13878" y="23724"><tspan fill="rgb(0,0,0)" stroke="none">05.07</tspan></tspan></tspan></text>
 <text class="TextShape" transform="rotate(-90 14207 23724)"><tspan class="TextParagraph" font-family="Liberation Sans, sans-serif" font-size="282px" font-weight="400"><tspan class="TextPosition" x="14207" y="23724"><tspan fill="rgb(0,0,0)" stroke="none">08.07</tspan></tspan></tspan></text>
 <text class="TextShape" transform="rotate(-90 14536 23724)"><tspan class="TextParagraph" font-family="Liberation Sans, sans-serif" font-size="282px" font-weight="400"><tspan class="TextPosition" x="14536" y="23724"><tspan fill="rgb(0,0,0)" stroke="none">11.07</tspan></tspan></tspan></text>
 <text class="TextShape" transform="rotate(-90 14865 23724)"><tspan class="TextParagraph" font-family="Liberation Sans, sans-serif" font-size="282px" font-weight="400"><tspan class="TextPosition" x="14865" y="23724"><tspan fill="rgb(0,0,0)" stroke="none">14.07</tspan></tspan></tspan></text>
 <text class="TextShape" transform="rotate(-90 15194 23724)"><tspan class="TextParagraph" font-family="Liberation Sans, sans-serif" font-size="282px" font-weight="400"><tspan class="TextPosition" x="15194" y="23724"><tspan fill="rgb(0,0,0)" stroke="none">17.07</tspan></tspan></tspan></text>
 <text class="TextShape" transform="rotate(-90 15524 23724)"><tspan class="TextParagraph" font-family="Liberation Sans, sans-serif" font-size="282px" font-weight="400"><tspan class="TextPosition" x="15524" y="23724"><tspan fill="rgb(0,0,0)" stroke="none">20.07</tspan></tspan></tspan></text>
 <text class="TextShape" transform="rotate(-90 15853 23724)"><tspan class="TextParagraph" font-family="Liberation Sans, sans-serif" font-size="282px" font-weight="400"><tspan class="TextPosition" x="15853" y="23724"><tspan fill="rgb(0,0,0)" stroke="none">23.07</tspan></tspan></tspan></text>
 <text class="TextShape" transform="rotate(-90 16182 23724)"><tspan class="TextParagraph" font-family="Liberation Sans, sans-serif" font-size="282px" font-weight="400"><tspan class="TextPosition" x="16182" y="23724"><tspan fill="rgb(0,0,0)" stroke="none">26.07</tspan></tspan></tspan></text>
 <text class="TextShape" transform="rotate(-90 16511 23724)"><tspan class="TextParagraph" font-family="Liberation Sans, sans-serif" font-size="282px" font-weight="400"><tspan class="TextPosition" x="16511" y="23724"><tspan fill="rgb(0,0,0)" stroke="none">29.07</tspan></tspan></tspan></text>
 <text class="TextShape" transform="rotate(-90 16841 23724)"><tspan class="TextParagraph" font-family="Liberation Sans, sans-serif" font-size="282px" font-weight="400"><tspan class="TextPosition" x="16841" y="23724"><tspan fill="rgb(0,0,0)" stroke="none">01.08</tspan></tspan></tspan></text>
 <text class="TextShape" transform="rotate(-90 17170 23724)"><tspan class="TextParagraph" font-family="Liberation Sans, sans-serif" font-size="282px" font-weight="400"><tspan class="TextPosition" x="17170" y="23724"><tspan fill="rgb(0,0,0)" stroke="none">04.08</tspan></tspan></tspan></text>
 <text class="TextShape" transform="rotate(-90 17499 23724)"><tspan class="TextParagraph" font-family="Liberation Sans, sans-serif" font-size="282px" font-weight="400"><tspan class="TextPosition" x="17499" y="23724"><tspan fill="rgb(0,0,0)" stroke="none">07.08</tspan></tspan></tspan></text>
 <text class="TextShape" transform="rotate(-90 17828 23724)"><tspan class="TextParagraph" font-family="Liberation Sans, sans-serif" font-size="282px" font-weight="400"><tspan class="TextPosition" x="17828" y="23724"><tspan fill="rgb(0,0,0)" stroke="none">10.08</tspan></tspan></tspan></text>
 <text class="TextShape" transform="rotate(-90 18157 23724)"><tspan class="TextParagraph" font-family="Liberation Sans, sans-serif" font-size="282px" font-weight="400"><tspan class="TextPosition" x="18157" y="23724"><tspan fill="rgb(0,0,0)" stroke="none">13.08</tspan></tspan></tspan></text>
 <text class="TextShape" transform="rotate(-90 18487 23724)"><tspan class="TextParagraph" font-family="Liberation Sans, sans-serif" font-size="282px" font-weight="400"><tspan class="TextPosition" x="18487" y="23724"><tspan fill="rgb(0,0,0)" stroke="none">16.08</tspan></tspan></tspan></text>
 <text class="TextShape"><tspan class="TextParagraph" font-family="Liberation Sans, sans-serif" font-size="388px" font-weight="400"><tspan class="TextPosition" x="420" y="22924"><tspan fill="rgb(0,0,0)" stroke="none">0%</tspan></tspan></tspan></text>
 <text class="TextShape"><tspan class="TextParagraph" font-family="Liberation Sans, sans-serif" font-size="388px" font-weight="400"><tspan class="TextPosition" x="420" y="20824"><tspan fill="rgb(0,0,0)" stroke="none">2%</tspan></tspan></tspan></text>
 <text class="TextShape"><tspan class="TextParagraph" font-family="Liberation Sans, sans-serif" font-size="388px" font-weight="400"><tspan class="TextPosition" x="420" y="18724"><tspan fill="rgb(0,0,0)" stroke="none">4%</tspan></tspan></tspan></text>
 <text class="TextShape"><tspan class="TextParagraph" font-family="Liberation Sans, sans-serif" font-size="388px" font-weight="400"><tspan class="TextPosition" x="420" y="16624"><tspan fill="rgb(0,0,0)" stroke="none">6%</tspan></tspan></tspan></text>
 <text class="TextShape"><tspan class="TextParagraph" font-family="Liberation Sans, sans-serif" font-size="388px" font-weight="400"><tspan class="TextPosition" x="420" y="14524"><tspan fill="rgb(0,0,0)" stroke="none">8%</tspan></tspan></tspan></text>
 <text class="TextShape"><tspan class="TextParagraph" font-family="Liberation Sans, sans-serif" font-size="388px" font-weight="400"><tspan class="TextPosition" x="208" y="12424"><tspan fill="rgb(0,0,0)" stroke="none">10%</tspan></tspan></tspan></text>
 <text class="TextShape"><tspan class="TextParagraph" font-family="Liberation Sans, sans-serif" font-size="388px" font-weight="400"><tspan class="TextPosition" x="208" y="10324"><tspan fill="rgb(0,0,0)" stroke="none">12%</tspan></tspan></tspan></text>
 <text class="TextShape"><tspan class="TextParagraph" font-family="Liberation Sans, sans-serif" font-size="388px" font-weight="400"><tspan class="TextPosition" x="208" y="8224"><tspan fill="rgb(0,0,0)" stroke="none">14%</tspan></tspan></tspan></text>
 <text class="TextShape"><tspan class="TextParagraph" font-family="Liberation Sans, sans-serif" font-size="388px" font-weight="400"><tspan class="TextPosition" x="208" y="6124"><tspan fill="rgb(0,0,0)" stroke="none">16%</tspan></tspan></tspan></text>
 <text class="TextShape"><tspan class="TextParagraph" font-family="Liberation Sans, sans-serif" font-size="388px" font-weight="400"><tspan class="TextPosition" x="208" y="4024"><tspan fill="rgb(0,0,0)" stroke="none">18%</tspan></tspan></tspan></text>
 <text class="TextShape"><tspan class="TextParagraph" font-family="Liberation Sans, sans-serif" font-size="388px" font-weight="400"><tspan class="TextPosition" x="208" y="1925"><tspan fill="rgb(0,0,0)" stroke="none">20%</tspan></tspan></tspan></text>
 <text class="TextShape"><tspan class="TextParagraph" font-family="Liberation Sans, sans-serif" font-size="494px" font-weight="700"><tspan class="TextPosition" x="828" y="990"><tspan fill="rgb(0,0,0)" stroke="none">EU - pomr potu obt k potu vylench (mtko do 20 %)</tspan></tspan></tspan></text>
 <path fill="none" stroke="rgb(255,128,0)" stroke-width="80" stroke-linejoin="round" stroke-dasharray="80,40" d="M 18768,2162 L 20368,2162"/>
 <path fill="none" stroke="rgb(0,0,255)" stroke-width="80" stroke-linejoin="round" stroke-dasharray="80,40" d="M 18768,3017 L 20368,3017"/>
 <path fill="none" stroke="rgb(131,202,255)" stroke-width="80" stroke-linejoin="round" d="M 18768,3872 L 20368,3872"/>
 <path fill="none" stroke="rgb(255,128,0)" stroke-width="80" stroke-linejoin="round" stroke-dasharray="158,158" d="M 18768,4727 L 20368,4727"/>
 <path fill="none" stroke="rgb(180,120,4)" stroke-width="80" stroke-linejoin="round" stroke-dasharray="80,40" d="M 18768,5582 L 20368,5582"/>
 <path fill="none" stroke="rgb(255,0,0)" stroke-width="80" stroke-linejoin="round" stroke-dasharray="158,158" d="M 18768,6437 L 20368,6437"/>
 <path fill="none" stroke="rgb(129,212,26)" stroke-width="80" stroke-linejoin="round" stroke-dasharray="80,40" d="M 18768,7292 L 20368,7292"/>
 <path fill="none" stroke="rgb(131,202,255)" stroke-width="80" stroke-linejoin="round" stroke-dasharray="158,158" d="M 18768,8147 L 20368,8147"/>
 <path fill="none" stroke="rgb(191,0,65)" stroke-width="80" stroke-linejoin="round" stroke-dasharray="51,127,51,127,254,127,254,127,254,127" d="M 18768,9002 L 20368,9002"/>
 <path fill="none" stroke="rgb(0,169,51)" stroke-width="80" stroke-linejoin="round" stroke-dasharray="158,158" d="M 18768,9857 L 20368,9857"/>
 <path fill="none" stroke="rgb(0,169,51)" stroke-width="80" stroke-linejoin="round" stroke-dasharray="80,40" d="M 18768,10712 L 20368,10712"/>
 <path fill="none" stroke="rgb(128,0,128)" stroke-width="80" stroke-linejoin="round" stroke-dasharray="80,40" d="M 18768,11567 L 20368,11567"/>
 <path fill="none" stroke="rgb(129,212,26)" stroke-width="80" stroke-linejoin="round" stroke-dasharray="158,158" d="M 18768,12422 L 20368,12422"/>
 <path fill="none" stroke="rgb(180,120,4)" stroke-width="80" stroke-linejoin="round" d="M 18768,13276 L 20368,13276"/>
 <path fill="none" stroke="rgb(52,42,6)" stroke-width="80" stroke-linejoin="round" d="M 18768,14131 L 20368,14131"/>
 <path fill="none" stroke="rgb(128,0,128)" stroke-width="80" stroke-linejoin="round" stroke-dasharray="158,158" d="M 18768,14986 L 20368,14986"/>
 <path fill="none" stroke="rgb(0,169,51)" stroke-width="80" stroke-linejoin="round" d="M 18768,15841 L 20368,15841"/>
 <path fill="none" stroke="rgb(85,48,141)" stroke-width="80" stroke-linejoin="round" stroke-dasharray="80,40" d="M 18768,16696 L 20368,16696"/>
 <path fill="none" stroke="rgb(131,202,255)" stroke-width="80" stroke-linejoin="round" stroke-dasharray="80,40" d="M 18768,17551 L 20368,17551"/>
 <path fill="none" stroke="rgb(255,191,0)" stroke-width="80" stroke-linejoin="round" stroke-dasharray="158,158" d="M 18768,18406 L 20368,18406"/>
 <path fill="none" stroke="rgb(255,191,0)" stroke-width="80" stroke-linejoin="round" d="M 18768,19261 L 20368,19261"/>
 <path fill="none" stroke="rgb(241,13,12)" stroke-width="80" stroke-linejoin="round" stroke-dasharray="80,40" d="M 18768,20116 L 20368,20116"/>
 <path fill="none" stroke="rgb(0,0,255)" stroke-width="80" stroke-linejoin="round" d="M 18768,20971 L 20368,20971"/>
 <path fill="none" stroke="rgb(0,0,255)" stroke-width="80" stroke-linejoin="round" stroke-dasharray="158,158" d="M 18768,21826 L 20368,21826"/>
 <path fill="none" stroke="rgb(0,0,0)" stroke-width="80" stroke-linejoin="round" stroke-dasharray="158,158" d="M 18768,22681 L 20368,22681"/>
 <text class="TextShape"><tspan class="TextParagraph" font-family="Liberation Sans, sans-serif" font-size="423px" font-weight="400"><tspan class="TextPosition" x="20468" y="2310"><tspan fill="rgb(0,0,0)" stroke="none">Belgie</tspan></tspan></tspan></text>
 <text class="TextShape"><tspan class="TextParagraph" font-family="Liberation Sans, sans-serif" font-size="423px" font-weight="400"><tspan class="TextPosition" x="20468" y="3165"><tspan fill="rgb(0,0,0)" stroke="none">Francie</tspan></tspan></tspan></text>
 <text class="TextShape"><tspan class="TextParagraph" font-family="Liberation Sans, sans-serif" font-size="423px" font-weight="400"><tspan class="TextPosition" x="20468" y="4020"><tspan fill="rgb(0,0,0)" stroke="none">Itlie</tspan></tspan></tspan></text>
 <text class="TextShape"><tspan class="TextParagraph" font-family="Liberation Sans, sans-serif" font-size="423px" font-weight="400"><tspan class="TextPosition" x="20468" y="4875"><tspan fill="rgb(0,0,0)" stroke="none">Maarsko</tspan></tspan></tspan></text>
 <text class="TextShape"><tspan class="TextParagraph" font-family="Liberation Sans, sans-serif" font-size="423px" font-weight="400"><tspan class="TextPosition" x="20468" y="5730"><tspan fill="rgb(0,0,0)" stroke="none">ecko</tspan></tspan></tspan></text>
 <text class="TextShape"><tspan class="TextParagraph" font-family="Liberation Sans, sans-serif" font-size="423px" font-weight="400"><tspan class="TextPosition" x="20468" y="6585"><tspan fill="rgb(0,0,0)" stroke="none">Rumunsko</tspan></tspan></tspan></text>
 <text class="TextShape"><tspan class="TextParagraph" font-family="Liberation Sans, sans-serif" font-size="423px" font-weight="400"><tspan class="TextPosition" x="20468" y="7440"><tspan fill="rgb(0,0,0)" stroke="none">Irsko</tspan></tspan></tspan></text>
 <text class="TextShape"><tspan class="TextParagraph" font-family="Liberation Sans, sans-serif" font-size="423px" font-weight="400"><tspan class="TextPosition" x="20468" y="8295"><tspan fill="rgb(0,0,0)" stroke="none">Slovinsko</tspan></tspan></tspan></text>
 <text class="TextShape"><tspan class="TextParagraph" font-family="Liberation Sans, sans-serif" font-size="423px" font-weight="400"><tspan class="TextPosition" x="20468" y="9150"><tspan fill="rgb(0,0,0)" stroke="none">EU_nov zem</tspan></tspan></tspan></text>
 <text class="TextShape"><tspan class="TextParagraph" font-family="Liberation Sans, sans-serif" font-size="423px" font-weight="400"><tspan class="TextPosition" x="20468" y="10005"><tspan fill="rgb(0,0,0)" stroke="none">Bulharsko</tspan></tspan></tspan></text>
 <text class="TextShape"><tspan class="TextParagraph" font-family="Liberation Sans, sans-serif" font-size="423px" font-weight="400"><tspan class="TextPosition" x="20468" y="10860"><tspan fill="rgb(0,0,0)" stroke="none">Polsko</tspan></tspan></tspan></text>
 <text class="TextShape"><tspan class="TextParagraph" font-family="Liberation Sans, sans-serif" font-size="423px" font-weight="400"><tspan class="TextPosition" x="20468" y="11715"><tspan fill="rgb(0,0,0)" stroke="none">Litva</tspan></tspan></tspan></text>
 <text class="TextShape"><tspan class="TextParagraph" font-family="Liberation Sans, sans-serif" font-size="423px" font-weight="400"><tspan class="TextPosition" x="20468" y="12569"><tspan fill="rgb(0,0,0)" stroke="none">Finsko</tspan></tspan></tspan></text>
 <text class="TextShape"><tspan class="TextParagraph" font-family="Liberation Sans, sans-serif" font-size="423px" font-weight="400"><tspan class="TextPosition" x="20468" y="13424"><tspan fill="rgb(0,0,0)" stroke="none">Dnsko</tspan></tspan></tspan></text>
 <text class="TextShape"><tspan class="TextParagraph" font-family="Liberation Sans, sans-serif" font-size="423px" font-weight="400"><tspan class="TextPosition" x="20468" y="14279"><tspan fill="rgb(0,0,0)" stroke="none">Nmecko</tspan></tspan></tspan></text>
 <text class="TextShape"><tspan class="TextParagraph" font-family="Liberation Sans, sans-serif" font-size="423px" font-weight="400"><tspan class="TextPosition" x="20468" y="15134"><tspan fill="rgb(0,0,0)" stroke="none">Portugalsko</tspan></tspan></tspan></text>
 <text class="TextShape"><tspan class="TextParagraph" font-family="Liberation Sans, sans-serif" font-size="423px" font-weight="400"><tspan class="TextPosition" x="20468" y="15989"><tspan fill="rgb(0,0,0)" stroke="none">Rakousko</tspan></tspan></tspan></text>
 <text class="TextShape"><tspan class="TextParagraph" font-family="Liberation Sans, sans-serif" font-size="423px" font-weight="400"><tspan class="TextPosition" x="20468" y="16844"><tspan fill="rgb(0,0,0)" stroke="none">Estonsko</tspan></tspan></tspan></text>
 <text class="TextShape"><tspan class="TextParagraph" font-family="Liberation Sans, sans-serif" font-size="423px" font-weight="400"><tspan class="TextPosition" x="20468" y="17699"><tspan fill="rgb(0,0,0)" stroke="none">Chorvatsko</tspan></tspan></tspan></text>
 <text class="TextShape"><tspan class="TextParagraph" font-family="Liberation Sans, sans-serif" font-size="423px" font-weight="400"><tspan class="TextPosition" x="20468" y="18554"><tspan fill="rgb(0,0,0)" stroke="none">Lotysko</tspan></tspan></tspan></text>
 <text class="TextShape"><tspan class="TextParagraph" font-family="Liberation Sans, sans-serif" font-size="423px" font-weight="400"><tspan class="TextPosition" x="20468" y="19409"><tspan fill="rgb(0,0,0)" stroke="none">esko</tspan></tspan></tspan></text>
 <text class="TextShape"><tspan class="TextParagraph" font-family="Liberation Sans, sans-serif" font-size="423px" font-weight="400"><tspan class="TextPosition" x="20468" y="20264"><tspan fill="rgb(0,0,0)" stroke="none">Kypr</tspan></tspan></tspan></text>
 <text class="TextShape"><tspan class="TextParagraph" font-family="Liberation Sans, sans-serif" font-size="423px" font-weight="400"><tspan class="TextPosition" x="20468" y="21119"><tspan fill="rgb(0,0,0)" stroke="none">Luxembursko</tspan></tspan></tspan></text>
 <text class="TextShape"><tspan class="TextParagraph" font-family="Liberation Sans, sans-serif" font-size="423px" font-weight="400"><tspan class="TextPosition" x="20468" y="21974"><tspan fill="rgb(0,0,0)" stroke="none">Slovensko</tspan></tspan></tspan></text>
 <text class="TextShape"><tspan class="TextParagraph" font-family="Liberation Sans, sans-serif" font-size="423px" font-weight="400"><tspan class="TextPosition" x="20468" y="22829"><tspan fill="rgb(0,0,0)" stroke="none">Malta</tspan></tspan></tspan></text>
</svg>