<?xml version="1.0" encoding="UTF-8"?>
<!DOCTYPE svg PUBLIC "-//W3C//DTD SVG 1.1//EN" "http://www.w3.org/Graphics/SVG/1.1/DTD/svg11.dtd">
<svg width="236mm" height="250mm" viewBox="0 0 23600 25000" version="1.1" xmlns="http://www.w3.org/2000/svg" xmlns:xlink="http://www.w3.org/1999/xlink" stroke-width="28.222" stroke-linejoin="round" xml:space="preserve">
 <path fill="rgb(255,255,255)" stroke="none" d="M 11800,25000 L 0,25000 0,0 23600,0 23600,25000 11800,25000 Z"/>
 <path fill="none" stroke="rgb(179,179,179)" stroke-linejoin="round" d="M 10022,22797 L 1408,22797 1408,1799 18636,1799 18636,22797 10022,22797 Z"/>
 <path fill="none" stroke="rgb(179,179,179)" stroke-linejoin="round" d="M 18636,22796 L 1408,22796"/>
 <path fill="none" stroke="rgb(179,179,179)" stroke-linejoin="round" d="M 18636,20696 L 1408,20696"/>
 <path fill="none" stroke="rgb(179,179,179)" stroke-linejoin="round" d="M 18636,18596 L 1408,18596"/>
 <path fill="none" stroke="rgb(179,179,179)" stroke-linejoin="round" d="M 18636,16496 L 1408,16496"/>
 <path fill="none" stroke="rgb(179,179,179)" stroke-linejoin="round" d="M 18636,14396 L 1408,14396"/>
 <path fill="none" stroke="rgb(179,179,179)" stroke-linejoin="round" d="M 18636,12297 L 1408,12297"/>
 <path fill="none" stroke="rgb(179,179,179)" stroke-linejoin="round" d="M 18636,10197 L 1408,10197"/>
 <path fill="none" stroke="rgb(179,179,179)" stroke-linejoin="round" d="M 18636,8097 L 1408,8097"/>
 <path fill="none" stroke="rgb(179,179,179)" stroke-linejoin="round" d="M 18636,5997 L 1408,5997"/>
 <path fill="none" stroke="rgb(179,179,179)" stroke-linejoin="round" d="M 18636,3897 L 1408,3897"/>
 <path fill="none" stroke="rgb(179,179,179)" stroke-linejoin="round" d="M 18636,1798 L 1408,1798"/>
 <path fill="none" stroke="rgb(179,179,179)" stroke-linejoin="round" d="M 1408,22946 L 1408,22796"/>
 <path fill="none" stroke="rgb(179,179,179)" stroke-linejoin="round" d="M 1408,22946 L 1408,22796"/>
 <path fill="none" stroke="rgb(179,179,179)" stroke-linejoin="round" d="M 2217,22946 L 2217,22796"/>
 <path fill="none" stroke="rgb(179,179,179)" stroke-linejoin="round" d="M 2217,22946 L 2217,22796"/>
 <path fill="none" stroke="rgb(179,179,179)" stroke-linejoin="round" d="M 3026,22946 L 3026,22796"/>
 <path fill="none" stroke="rgb(179,179,179)" stroke-linejoin="round" d="M 3026,22946 L 3026,22796"/>
 <path fill="none" stroke="rgb(179,179,179)" stroke-linejoin="round" d="M 3836,22946 L 3836,22796"/>
 <path fill="none" stroke="rgb(179,179,179)" stroke-linejoin="round" d="M 3836,22946 L 3836,22796"/>
 <path fill="none" stroke="rgb(179,179,179)" stroke-linejoin="round" d="M 4645,22946 L 4645,22796"/>
 <path fill="none" stroke="rgb(179,179,179)" stroke-linejoin="round" d="M 4645,22946 L 4645,22796"/>
 <path fill="none" stroke="rgb(179,179,179)" stroke-linejoin="round" d="M 5455,22946 L 5455,22796"/>
 <path fill="none" stroke="rgb(179,179,179)" stroke-linejoin="round" d="M 5455,22946 L 5455,22796"/>
 <path fill="none" stroke="rgb(179,179,179)" stroke-linejoin="round" d="M 6264,22946 L 6264,22796"/>
 <path fill="none" stroke="rgb(179,179,179)" stroke-linejoin="round" d="M 6264,22946 L 6264,22796"/>
 <path fill="none" stroke="rgb(179,179,179)" stroke-linejoin="round" d="M 7073,22946 L 7073,22796"/>
 <path fill="none" stroke="rgb(179,179,179)" stroke-linejoin="round" d="M 7073,22946 L 7073,22796"/>
 <path fill="none" stroke="rgb(179,179,179)" stroke-linejoin="round" d="M 7883,22946 L 7883,22796"/>
 <path fill="none" stroke="rgb(179,179,179)" stroke-linejoin="round" d="M 7883,22946 L 7883,22796"/>
 <path fill="none" stroke="rgb(179,179,179)" stroke-linejoin="round" d="M 8692,22946 L 8692,22796"/>
 <path fill="none" stroke="rgb(179,179,179)" stroke-linejoin="round" d="M 8692,22946 L 8692,22796"/>
 <path fill="none" stroke="rgb(179,179,179)" stroke-linejoin="round" d="M 9502,22946 L 9502,22796"/>
 <path fill="none" stroke="rgb(179,179,179)" stroke-linejoin="round" d="M 9502,22946 L 9502,22796"/>
 <path fill="none" stroke="rgb(179,179,179)" stroke-linejoin="round" d="M 10311,22946 L 10311,22796"/>
 <path fill="none" stroke="rgb(179,179,179)" stroke-linejoin="round" d="M 10311,22946 L 10311,22796"/>
 <path fill="none" stroke="rgb(179,179,179)" stroke-linejoin="round" d="M 11120,22946 L 11120,22796"/>
 <path fill="none" stroke="rgb(179,179,179)" stroke-linejoin="round" d="M 11120,22946 L 11120,22796"/>
 <path fill="none" stroke="rgb(179,179,179)" stroke-linejoin="round" d="M 11929,22946 L 11929,22796"/>
 <path fill="none" stroke="rgb(179,179,179)" stroke-linejoin="round" d="M 11929,22946 L 11929,22796"/>
 <path fill="none" stroke="rgb(179,179,179)" stroke-linejoin="round" d="M 12738,22946 L 12738,22796"/>
 <path fill="none" stroke="rgb(179,179,179)" stroke-linejoin="round" d="M 12738,22946 L 12738,22796"/>
 <path fill="none" stroke="rgb(179,179,179)" stroke-linejoin="round" d="M 13548,22946 L 13548,22796"/>
 <path fill="none" stroke="rgb(179,179,179)" stroke-linejoin="round" d="M 13548,22946 L 13548,22796"/>
 <path fill="none" stroke="rgb(179,179,179)" stroke-linejoin="round" d="M 14357,22946 L 14357,22796"/>
 <path fill="none" stroke="rgb(179,179,179)" stroke-linejoin="round" d="M 14357,22946 L 14357,22796"/>
 <path fill="none" stroke="rgb(179,179,179)" stroke-linejoin="round" d="M 15167,22946 L 15167,22796"/>
 <path fill="none" stroke="rgb(179,179,179)" stroke-linejoin="round" d="M 15167,22946 L 15167,22796"/>
 <path fill="none" stroke="rgb(179,179,179)" stroke-linejoin="round" d="M 15976,22946 L 15976,22796"/>
 <path fill="none" stroke="rgb(179,179,179)" stroke-linejoin="round" d="M 15976,22946 L 15976,22796"/>
 <path fill="none" stroke="rgb(179,179,179)" stroke-linejoin="round" d="M 16785,22946 L 16785,22796"/>
 <path fill="none" stroke="rgb(179,179,179)" stroke-linejoin="round" d="M 16785,22946 L 16785,22796"/>
 <path fill="none" stroke="rgb(179,179,179)" stroke-linejoin="round" d="M 17595,22946 L 17595,22796"/>
 <path fill="none" stroke="rgb(179,179,179)" stroke-linejoin="round" d="M 17595,22946 L 17595,22796"/>
 <path fill="none" stroke="rgb(179,179,179)" stroke-linejoin="round" d="M 18404,22946 L 18404,22796"/>
 <path fill="none" stroke="rgb(179,179,179)" stroke-linejoin="round" d="M 18404,22946 L 18404,22796"/>
 <path fill="none" stroke="rgb(179,179,179)" stroke-linejoin="round" d="M 1408,22796 L 18636,22796"/>
 <path fill="none" stroke="rgb(179,179,179)" stroke-linejoin="round" d="M 1258,22796 L 1408,22796"/>
 <path fill="none" stroke="rgb(179,179,179)" stroke-linejoin="round" d="M 1258,22796 L 1408,22796"/>
 <path fill="none" stroke="rgb(179,179,179)" stroke-linejoin="round" d="M 1258,20696 L 1408,20696"/>
 <path fill="none" stroke="rgb(179,179,179)" stroke-linejoin="round" d="M 1258,20696 L 1408,20696"/>
 <path fill="none" stroke="rgb(179,179,179)" stroke-linejoin="round" d="M 1258,18596 L 1408,18596"/>
 <path fill="none" stroke="rgb(179,179,179)" stroke-linejoin="round" d="M 1258,18596 L 1408,18596"/>
 <path fill="none" stroke="rgb(179,179,179)" stroke-linejoin="round" d="M 1258,16496 L 1408,16496"/>
 <path fill="none" stroke="rgb(179,179,179)" stroke-linejoin="round" d="M 1258,16496 L 1408,16496"/>
 <path fill="none" stroke="rgb(179,179,179)" stroke-linejoin="round" d="M 1258,14396 L 1408,14396"/>
 <path fill="none" stroke="rgb(179,179,179)" stroke-linejoin="round" d="M 1258,14396 L 1408,14396"/>
 <path fill="none" stroke="rgb(179,179,179)" stroke-linejoin="round" d="M 1258,12297 L 1408,12297"/>
 <path fill="none" stroke="rgb(179,179,179)" stroke-linejoin="round" d="M 1258,12297 L 1408,12297"/>
 <path fill="none" stroke="rgb(179,179,179)" stroke-linejoin="round" d="M 1258,10197 L 1408,10197"/>
 <path fill="none" stroke="rgb(179,179,179)" stroke-linejoin="round" d="M 1258,10197 L 1408,10197"/>
 <path fill="none" stroke="rgb(179,179,179)" stroke-linejoin="round" d="M 1258,8097 L 1408,8097"/>
 <path fill="none" stroke="rgb(179,179,179)" stroke-linejoin="round" d="M 1258,8097 L 1408,8097"/>
 <path fill="none" stroke="rgb(179,179,179)" stroke-linejoin="round" d="M 1258,5997 L 1408,5997"/>
 <path fill="none" stroke="rgb(179,179,179)" stroke-linejoin="round" d="M 1258,5997 L 1408,5997"/>
 <path fill="none" stroke="rgb(179,179,179)" stroke-linejoin="round" d="M 1258,3897 L 1408,3897"/>
 <path fill="none" stroke="rgb(179,179,179)" stroke-linejoin="round" d="M 1258,3897 L 1408,3897"/>
 <path fill="none" stroke="rgb(179,179,179)" stroke-linejoin="round" d="M 1258,1798 L 1408,1798"/>
 <path fill="none" stroke="rgb(179,179,179)" stroke-linejoin="round" d="M 1258,1798 L 1408,1798"/>
 <path fill="none" stroke="rgb(179,179,179)" stroke-linejoin="round" d="M 1408,22796 L 1408,1798"/>
 <path fill="none" stroke="rgb(0,127,255)" stroke-width="80" stroke-linejoin="round" d="M 11820,1798 L 11871,1859 11987,2037 12102,2201 12218,2351 12334,2409 12449,2562 12565,2642 12681,2725 12796,2848 12912,2880 13027,2914 13143,2958 13259,3073 13374,3252 13490,3297 13606,3373 13721,3468 13837,3487 13952,3515 14068,3609 14184,3645 14299,3665 14415,3695 14531,3731 14646,3744 14762,3752 14877,3793 14993,3866 15109,3892 15224,3914 15340,3940 15456,3969 15571,3979 15687,4002 15803,4051 15918,4062 16034,4079 16149,4102 16265,4114 16381,4127 16496,4144 16612,4158 16728,4173 16843,4203 16959,4213 17074,4222 17190,4233 17306,4242 17421,4265 17537,4334 17653,4346 17768,4367 17884,4384 18000,4389 18115,4403 18231,4417 18346,4446 18462,4473 18578,4494"/>
 <path fill="none" stroke="rgb(0,169,51)" stroke-width="80" stroke-linejoin="round" stroke-dasharray="80,40" d="M 3884,1798 L 3894,12843 4009,9693 4125,7205 4240,2063 4252,1798"/>
 <path fill="none" stroke="rgb(0,169,51)" stroke-width="80" stroke-linejoin="round" stroke-dasharray="80,40" d="M 4920,1798 L 4934,5258 5050,3883 5136,1798"/>
 <path fill="none" stroke="rgb(0,169,51)" stroke-width="80" stroke-linejoin="round" stroke-dasharray="80,40" d="M 6430,1798 L 6437,3630 6553,5817 6669,6226 6784,8375 6900,6877 7016,5709 7131,6068 7247,5313 7362,5978 7478,5064 7594,7138 7709,6830 7825,5312 7941,6464 8056,6665 8172,6126 8288,6556 8403,6903 8519,6380 8634,6289 8750,6360 8866,6164 8981,6488 9097,6977 9213,6858 9328,6153 9444,5773 9559,5404 9675,5829 9791,6271 9906,6590 10022,6280 10138,6029 10253,5852 10369,6043 10485,6032 10600,6448 10716,6856 10831,6784 10947,5853 11063,5177 11178,5032 11294,5246 11410,5628 11525,5959 11641,5848 11756,5630 11871,5574 11987,5677 12102,5776 12218,6023 12334,6359 12449,6137 12565,5892 12681,5827 12796,5861 12912,6122 13027,5759 13143,5784 13259,5710 13374,5597 13490,5527 13606,5538 13721,5562 13837,5803 13952,6061 14068,6092 14184,6029 14299,6119 14415,6248 14531,6507 14646,6705 14762,6845 14877,6747 14993,6729 15109,6769 15224,6867 15340,6932 15456,7150 15571,7276 15687,7281 15803,7442 15918,7487 16034,7572 16149,7743 16265,6659 16381,7039 16496,6934 16612,6788 16728,6822 16843,6996 16959,7029 17074,7262 17190,7583 17306,7506 17421,7655 17537,7708 17653,7811 17768,7912 17884,8161 18000,8534 18115,8442 18231,8373 18346,8277 18462,8240 18578,8318"/>
 <path fill="none" stroke="rgb(141,40,30)" stroke-width="80" stroke-linejoin="round" stroke-dasharray="80,40" d="M 12829,1798 L 12912,1986 13027,2095 13143,2615 13259,2707 13374,2849 13490,2983 13606,3101 13721,3270 13837,3398 13952,3895 14068,4193 14184,4333 14299,5463 14415,5561 14531,7532 14646,7707 14762,7951 14877,8009 14993,8179 15109,8305 15224,8424 15340,8530 15456,8635 15571,8947 15687,9081 15803,9328 15918,9418 16034,9531 16149,9633 16265,9690 16381,9970 16496,10110 16612,10307 16728,10439 16843,10623 16959,10718 17074,10851 17190,11014 17306,11165 17421,11342 17537,11452 17653,11550 17768,11653 17884,11675 18000,11967 18115,11982 18231,12226 18346,12281 18462,12364 18578,12418"/>
 <path fill="none" stroke="rgb(85,48,141)" stroke-width="80" stroke-linejoin="round" stroke-dasharray="80,40" d="M 1465,9672 L 1581,9672 1697,9672 1724,1798"/>
 <path fill="none" stroke="rgb(85,48,141)" stroke-width="80" stroke-linejoin="round" stroke-dasharray="80,40" d="M 2795,1798 L 2853,5584 2951,1798"/>
 <path fill="none" stroke="rgb(85,48,141)" stroke-width="80" stroke-linejoin="round" stroke-dasharray="80,40" d="M 3100,1798 L 3200,9053 3315,8377 3431,4772 3547,16134 3662,14152 3778,14384 3894,14155 4009,13914 4125,13767 4240,11865 4356,12411 4472,12508 4587,12564 4703,12807 4819,12375 4934,12272 5050,12227 5166,11274 5281,10992 5397,9166 5512,9295 5628,9380 5744,8927 5859,8340 5975,7590 6091,7702 6206,6856 6322,6149 6437,5939 6553,6086 6669,6468 6784,6510 6900,6500 7016,6575 7131,6483 7247,6554 7362,6808 7478,6650 7594,6506 7709,6532 7825,6502 7941,6488 8056,6598 8172,6476 8288,6526 8403,6456 8519,6604 8634,6534 8750,6641 8866,6700 8981,6724 9097,6854 9213,7001 9328,6967 9444,7029 9559,7124 9675,7124 9791,7204 9906,7148 10022,7163 10138,7186 10253,7186 10369,7316 10485,7304 10600,7064 10716,7277 10831,7318 10947,7347 11063,7270 11178,7409 11294,7558 11410,7670 11525,7790 11641,7885 11756,8046 11871,8219 11987,8346 12102,8441 12218,8574 12334,8742 12449,8767 12565,9005 12681,9033 12796,9071 12912,9085 13027,9148 13143,9227 13259,9283 13374,9313 13490,9345 13606,9401 13721,9446 13837,9485 13952,9610 14068,9657 14184,9667 14299,9723 14415,9757 14531,9793 14646,9832 14762,9886 14877,9911 14993,9949 15109,9985 15224,10030 15340,10076 15456,10090 15571,10154 15687,10198 15803,10241 15918,10277 16034,13305 16149,13311 16265,13319 16381,13352 16496,13372 16612,13390 16728,13425 16843,13474 16959,13492 17074,13505 17190,13538 17306,13547 17421,13570 17537,13589 17653,13633 17768,13642 17884,13649 18000,13651 18115,13709 18231,13732 18346,13755 18462,13790 18578,13794"/>
 <path fill="none" stroke="rgb(0,255,0)" stroke-width="80" stroke-linejoin="round" d="M 3080,1798 L 3084,6944 3200,4680 3315,3048 3431,2120 3440,1798"/>
 <path fill="none" stroke="rgb(0,255,0)" stroke-width="80" stroke-linejoin="round" d="M 3606,1798 L 3662,5527 3778,8773 3894,9992 4009,11896 4125,11094 4240,12825 4356,12892 4472,13207 4587,13405 4703,13318 4819,13806 4934,13652 5050,14074 5166,13798 5281,14348 5397,14336 5512,14300 5628,14396 5744,14579 5859,14729 5975,14796 6091,14834 6206,14900 6322,14851 6437,14913 6553,15041 6669,14921 6784,14902 6900,14823 7016,15002 7131,15090 7247,15151 7362,15244 7478,15363 7594,15376 7709,15421 7825,15458 7941,15462 8056,15517 8172,15560 8288,15567 8403,15481 8519,15550 8634,15543 8750,15519 8866,15595 8981,15614 9097,15621 9213,15628 9328,15650 9444,15653 9559,15634 9675,15652 9791,15674 9906,15673 10022,15666 10138,15683 10253,15676 10369,15676 10485,15701 10600,15722 10716,15722 10831,15722 10947,15743 11063,15743 11178,15743 11294,15768 11410,15768 11525,15760 11641,15720 11756,15713 11871,15734 11987,15730 12102,15730 12218,15730 12334,15751 12449,15697 12565,15689 12681,15689 12796,15689 12912,15689 13027,15714 13143,15714 13259,15714 13374,15707 13490,15707 13606,15692 13721,15716 13837,15716 13952,15716 14068,15737 14184,15730 14299,15730 14415,15730 14531,15730 14646,15754 14762,15754 14877,15750 14993,15774 15109,15774 15224,15774 15340,15791 15456,15815 15571,15815 15687,15862 15803,15862 15918,15881 16034,15881 16149,15881 16265,15973 16381,15966 16496,15962 16612,16007 16728,15997 16843,15990 16959,15990 17074,16034 17190,16074 17306,16096 17421,16114 17537,16111 17653,16108 17768,16150 17884,16192 18000,16192 18115,16213 18231,16203 18346,16200 18462,16197 18578,16259"/>
 <path fill="none" stroke="rgb(191,0,65)" stroke-width="80" stroke-linejoin="round" stroke-dasharray="51,127,51,127,254,127,254,127,254,127" d="M 6034,1798 L 6091,2432 6206,3095 6322,4361 6437,4575 6553,5008 6669,5373 6784,5747 6900,6322 7016,7142 7131,7543 7247,7789 7362,8111 7478,8384 7594,8663 7709,9164 7825,9473 7941,9927 8056,10244 8172,10285 8288,10410 8403,10798 8519,10928 8634,11528 8750,11693 8866,11809 8981,11955 9097,12321 9213,12409 9328,12531 9444,12803 9559,12928 9675,13073 9791,13157 9906,13171 10022,13382 10138,13494 10253,13689 10369,13706 10485,13798 10600,13870 10716,13910 10831,13915 10947,13980 11063,14047 11178,14068 11294,14143 11410,14192 11525,14229 11641,14222 11756,14249 11871,14316 11987,14333 12102,14359 12218,14333 12334,14335 12449,14385 12565,14389 12681,14387 12796,14442 12912,14479 13027,14553 13143,14603 13259,14639 13374,14680 13490,14795 13606,14861 13721,14982 13837,15045 13952,15056 14068,15069 14184,15120 14299,15125 14415,15145 14531,15196 14646,15253 14762,15272 14877,15289 14993,15361 15109,15420 15224,15475 15340,15531 15456,15582 15571,15624 15687,15615 15803,15696 15918,15738 16034,15792 16149,15822 16265,15844 16381,15870 16496,16008 16612,16036 16728,16083 16843,16148 16959,16179 17074,16325 17190,16330 17306,16332 17421,16325 17537,16322 17653,16328 17768,16345 17884,16340 18000,16345 18115,16339 18231,16341 18346,16360 18462,16378 18578,16388"/>
 <path fill="none" stroke="rgb(21,132,102)" stroke-width="80" stroke-linejoin="round" stroke-dasharray="80,203,80,203,203,203" d="M 1465,14705 L 1581,14367 1697,13859 1812,13180 1928,12463 2043,11638 2159,10485 2275,9052 2390,7736 2506,6868 2622,4891 2737,4278 2853,2653 2935,1798"/>
 <path fill="none" stroke="rgb(21,132,102)" stroke-width="80" stroke-linejoin="round" stroke-dasharray="80,203,80,203,203,203" d="M 8270,1798 L 8288,1863 8403,1992 8519,2388 8634,2550 8750,2809 8866,3220 8981,3480 9097,3859 9213,4123 9328,4433 9444,4658 9559,5347 9675,5603 9791,5891 9906,6319 10022,6523 10138,6729 10253,6970 10369,7261 10485,7518 10600,7845 10716,8030 10831,8398 10947,8590 11063,8744 11178,8901 11294,9093 11410,9242 11525,9748 11641,9913 11756,10050 11871,10217 11987,10369 12102,10537 12218,10672 12334,10831 12449,10945 12565,11155 12681,11255 12796,11358 12912,11559 13027,11639 13143,11782 13259,11909 13374,12058 13490,12161 13606,12288 13721,12416 13837,12531 13952,12642 14068,12763 14184,12880 14299,13277 14415,13365 14531,13594 14646,13713 14762,13827 14877,13929 14993,14056 15109,14145 15224,14239 15340,14319 15456,14393 15571,14500 15687,14579 15803,14676 15918,14757 16034,14854 16149,14929 16265,14962 16381,15059 16496,15141 16612,15212 16728,15240 16843,15360 16959,15473 17074,15542 17190,15613 17306,15672 17421,15747 17537,15838 17653,15908 17768,15973 17884,16018 18000,16115 18115,16182 18231,16246 18346,16294 18462,16343 18578,16404"/>
 <path fill="none" stroke="rgb(180,120,4)" stroke-width="80" stroke-linejoin="round" d="M 3652,1798 L 3662,11551 3778,11777 3894,11457 4009,10538 4125,9645 4240,9610 4356,9648 4472,9814 4587,9582 4703,9352 4819,9865 4934,10285 5050,10344 5166,11122 5281,11705 5397,12274 5512,12916 5628,13783 5744,14183 5859,14301 5975,14849 6091,15154 6206,15373 6322,15392 6437,15304 6553,15403 6669,15503 6784,15577 6900,15703 7016,15755 7131,15820 7247,15755 7362,15721 7478,15689 7594,15746 7709,15886 7825,15970 7941,16050 8056,16134 8172,16195 8288,16232 8403,16492 8519,16480 8634,16533 8750,16638 8866,16668 8981,16702 9097,16738 9213,16778 9328,16820 9444,16810 9559,16883 9675,16925 9791,16952 9906,16979 10022,17024 10138,17038 10253,17049 10369,17082 10485,17099 10600,17088 10716,17095 10831,17097 10947,17131 11063,17148 11178,17126 11294,17152 11410,17150 11525,17131 11641,17160 11756,17188 11871,17214 11987,17224 12102,17216 12218,17233 12334,17234 12449,17251 12565,17281 12681,17290 12796,17309 12912,17309 13027,17309 13143,17322 13259,17334 13374,17348 13490,17366 13606,17379 13721,17379 13837,17379 13952,17418 14068,17435 14184,17446 14299,17480 14415,17501 14531,17501 14646,17501 14762,17544 14877,17547 14993,17555 15109,17574 15224,17588 15340,17588 15456,17588 15571,17602 15687,17614 15803,17623 15918,17629 16034,17626 16149,17626 16265,17626 16381,17644 16496,17648 16612,17653 16728,17655 16843,17663 16959,17663 17074,17663 17190,17695 17306,17708 17421,17714 17537,17722 17653,17743 17768,17743 17884,17744 18000,17777 18115,17790 18231,17804 18346,17810 18462,17830 18578,17830"/>
 <path fill="none" stroke="rgb(0,0,0)" stroke-width="80" stroke-linejoin="round" d="M 1465,6819 L 1581,2254 1593,1798"/>
 <path fill="none" stroke="rgb(0,0,0)" stroke-width="80" stroke-linejoin="round" d="M 2695,1798 L 2737,17712 2853,16698 2969,17854 3084,17402 3200,17435 3315,16720 3431,17779 3547,17741 3662,17630 3778,17616 3894,17348 4009,17053 4125,17001 4240,16174 4356,16929 4472,17469 4587,17572 4703,17407 4819,17791 4934,17534 5050,17580 5166,17724 5281,17294 5397,17270 5512,17298 5628,17313 5744,17324 5859,17216 5975,17245 6091,17219 6206,17129 6322,17288 6437,17176 6553,17193 6669,17178 6784,17149 6900,17156 7016,17165 7131,17222 7247,17251 7362,17276 7478,17262 7594,17361 7709,17336 7825,17318 7941,17231 8056,17264 8172,17292 8288,17272 8403,17276 8519,17245 8634,17288 8750,17326 8866,17334 8981,17368 9097,17376 9213,17345 9328,17348 9444,17347 9559,17364 9675,17365 9791,17370 9906,17384 10022,17368 10138,17361 10253,17352 10369,17359 10485,17365 10600,17373 10716,17372 10831,17399 10947,17402 11063,17396 11178,17400 11294,17406 11410,17407 11525,17411 11641,17404 11756,17410 11871,17408 11987,17420 12102,17427 12218,17426 12334,17441 12449,17438 12565,17442 12681,17435 12796,17432 12912,17447 13027,17451 13143,17461 13259,17472 13374,17482 13490,17485 13606,17482 13721,17491 13837,17495 13952,17494 14068,17496 14184,17522 14299,17536 14415,17549 14531,17563 14646,17582 14762,17595 14877,17604 14993,17610 15109,17620 15224,17625 15340,17627 15456,17631 15571,17648 15687,17646 15803,17670 15918,17677 16034,17690 16149,17697 16265,17702 16381,17719 16496,17720 16612,17729 16728,17738 16843,17748 16959,17751 17074,17755 17190,17761 17306,17768 17421,17781 17537,17783 17653,17793 17768,17806 17884,17813 18000,17831 18115,17841 18231,17842 18346,17859 18462,17868 18578,17880"/>
 <path fill="none" stroke="rgb(255,64,0)" stroke-width="80" stroke-linejoin="round" stroke-dasharray="80,40" d="M 5258,1798 L 5281,9801 5397,8394 5512,6770 5628,5175 5744,11116 5859,10523 5975,10279 6091,10745 6206,9635 6322,8734 6437,8189 6553,7872 6669,7278 6784,6397 6900,5838 7016,5248 7131,5098 7247,5456 7362,5576 7478,5913 7594,5513 7709,5244 7825,5364 7941,5060 8056,4659 8172,4818 8288,4639 8403,4775 8519,5071 8634,4303 8750,4308 8866,4458 8981,4817 9097,5183 9213,5116 9328,5827 9444,6086 9559,6479 9675,6587 9791,6922 9906,6776 10022,6569 10138,6669 10253,6980 10369,7348 10485,7727 10600,7896 10716,7905 10831,8149 10947,8475 11063,8786 11178,9020 11294,9185 11410,9317 11525,12489 11641,12631 11756,12730 11871,12803 11987,12929 12102,13033 12218,13098 12334,13134 12449,13102 12565,13423 12681,13417 12796,13478 12912,13698 13027,13764 13143,13849 13259,13993 13374,14238 13490,14302 13606,14430 13721,14561 13837,14686 13952,14716 14068,14858 14184,15010 14299,16011 14415,16059 14531,15985 14646,16177 14762,16324 14877,16465 14993,16535 15109,16595 15224,16724 15340,16764 15456,16810 15571,16873 15687,16914 15803,16934 15918,17034 16034,17074 16149,17081 16265,17076 16381,17240 16496,17295 16612,17337 16728,17347 16843,17510 16959,17712 17074,17757 17190,17814 17306,17821 17421,17874 17537,17899 17653,17962 17768,17975 17884,18006 18000,18060 18115,18132 18231,18134 18346,18159 18462,18195 18578,18251"/>
 <path fill="none" stroke="rgb(0,169,51)" stroke-width="80" stroke-linejoin="round" d="M 1465,5297 L 1581,5297 1697,5297 1708,1798"/>
 <path fill="none" stroke="rgb(0,169,51)" stroke-width="80" stroke-linejoin="round" d="M 3296,1798 L 3315,3946 3431,4967 3547,10523 3662,12122 3778,13311 3894,14072 4009,15006 4125,15651 4240,16125 4356,16490 4472,16443 4587,16885 4703,17272 4819,17438 4934,17536 5050,17534 5166,17513 5281,17700 5397,18005 5512,18132 5628,18242 5744,18276 5859,18154 5975,18097 6091,18069 6206,18109 6322,18108 6437,18146 6553,18162 6669,18133 6784,18047 6900,18030 7016,18045 7131,18078 7247,18048 7362,18049 7478,18065 7594,18069 7709,18115 7825,18128 7941,18136 8056,18159 8172,18158 8288,18166 8403,18172 8519,18215 8634,18233 8750,18239 8866,18248 8981,18261 9097,18276 9213,18275 9328,18330 9444,18350 9559,18352 9675,18334 9791,18334 9906,18350 10022,18349 10138,18348 10253,18207 10369,18225 10485,18276 10600,18298 10716,18298 10831,18301 10947,18307 11063,18320 11178,18313 11294,18327 11410,18328 11525,18341 11641,18351 11756,18354 11871,18358 11987,18362 12102,18356 12218,18369 12334,18365 12449,18351 12565,18315 12681,18309 12796,18320 12912,18330 13027,18323 13143,18335 13259,18321 13374,18327 13490,18305 13606,18313 13721,18306 13837,18301 13952,18300 14068,18303 14184,18307 14299,18313 14415,18325 14531,18338 14646,18334 14762,18343 14877,18353 14993,18362 15109,18372 15224,18385 15340,18400 15456,18410 15571,18423 15687,18435 15803,18455 15918,18466 16034,18489 16149,18530 16265,18554 16381,18568 16496,18588 16612,18613 16728,18635 16843,18658 16959,18671 17074,18690 17190,18693 17306,18722 17421,18738 17537,18749 17653,18777 17768,18809 17884,18824 18000,18841 18115,18891 18231,18917 18346,18943 18462,18956 18578,18975"/>
 <path fill="none" stroke="rgb(255,211,32)" stroke-width="80" stroke-linejoin="round" d="M 2506,5297 L 2622,5297 2651,1798"/>
 <path fill="none" stroke="rgb(255,211,32)" stroke-width="80" stroke-linejoin="round" d="M 5292,1798 L 5397,4541 5512,7324 5628,7308 5744,7751 5859,9731 5975,10758 6091,11817 6206,12550 6322,13319 6437,13465 6553,13719 6669,14510 6784,14711 6900,15127 7016,15318 7131,15323 7247,15363 7362,15536 7478,15845 7594,16060 7709,16254 7825,16310 7941,16300 8056,16279 8172,16225 8288,16511 8403,16718 8519,16763 8634,16926 8750,17039 8866,17064 8981,17067 9097,17267 9213,17258 9328,17321 9444,17374 9559,17358 9675,17341 9791,17354 9906,17412 10022,17487 10138,17570 10253,17611 10369,17643 10485,17679 10600,17672 10716,17721 10831,17723 10947,17739 11063,17769 11178,17806 11294,17809 11410,17813 11525,17872 11641,17913 11756,17923 11871,17990 11987,18008 12102,18025 12218,18015 12334,18047 12449,18072 12565,18070 12681,18082 12796,18089 12912,18077 13027,18091 13143,18115 13259,18084 13374,18049 13490,18060 13606,18017 13721,18025 13837,18053 13952,18078 14068,18080 14184,18096 14299,18057 14415,18073 14531,18102 14646,18149 14762,18128 14877,18136 14993,18195 15109,18248 15224,18293 15340,18303 15456,18314 15571,18369 15687,18380 15803,18414 15918,18481 16034,18487 16149,18491 16265,18493 16381,18530 16496,18557 16612,18616 16728,18687 16843,18684 16959,18756 17074,19387 17190,19369 17306,19359 17421,19360 17537,19330 17653,19329 17768,19325 17884,19321 18000,19334 18115,19391 18231,19375 18346,19472 18462,19592 18578,19596"/>
 <path fill="none" stroke="rgb(128,0,128)" stroke-width="80" stroke-linejoin="round" stroke-dasharray="158,158" d="M 1681,1798 L 1697,6643 1812,6643 1901,1798"/>
 <path fill="none" stroke="rgb(128,0,128)" stroke-width="80" stroke-linejoin="round" stroke-dasharray="158,158" d="M 2351,1798 L 2390,4537 2426,1798"/>
 <path fill="none" stroke="rgb(128,0,128)" stroke-width="80" stroke-linejoin="round" stroke-dasharray="158,158" d="M 5713,1798 L 5744,2232 5859,3806 5975,5760 6091,6435 6206,7692 6322,7901 6437,8211 6553,8616 6669,8983 6784,9135 6900,9369 7016,9435 7131,9965 7247,9957 7362,10393 7478,9998 7594,10227 7709,10572 7825,10974 7941,11145 8056,11367 8172,11721 8288,12115 8403,12413 8519,12650 8634,12851 8750,13243 8866,13988 8981,14164 9097,14349 9213,14601 9328,14858 9444,15045 9559,15247 9675,15328 9791,15472 9906,15580 10022,15700 10138,15769 10253,15821 10369,16467 10485,16533 10600,16614 10716,16646 10831,16693 10947,16653 11063,16635 11178,16630 11294,16651 11410,16686 11525,16718 11641,16753 11756,16504 11871,16734 11987,16751 12102,16850 12218,16909 12334,17021 12449,16110 12565,16184 12681,16347 12796,16438 12912,16685 13027,16732 13143,16868 13259,16920 13374,17040 13490,17171 13606,17230 13721,17339 13837,17419 13952,17498 14068,17544 14184,17592 14299,17762 14415,17827 14531,17850 14646,17924 14762,17984 14877,18051 14993,18139 15109,18218 15224,18289 15340,18343 15456,18399 15571,18436 15687,18484 15803,18527 15918,18567 16034,18576 16149,18639 16265,18672 16381,18726 16496,18790 16612,18789 16728,18864 16843,18919 16959,18994 17074,19046 17190,19108 17306,19162 17421,19196 17537,19242 17653,19293 17768,19371 17884,19420 18000,19473 18115,19537 18231,19579 18346,19627 18462,19667 18578,19720"/>
 <path fill="none" stroke="rgb(0,0,255)" stroke-width="80" stroke-linejoin="round" stroke-dasharray="158,158" d="M 1465,9209 L 1581,7974 1697,7356 1812,15870 1928,16751 2043,17069 2159,16591 2275,16387 2390,15841 2506,18789 2622,18789 2737,19203 2853,19249 2969,19476 3084,19572 3200,19653 3315,19625 3431,19622 3547,19650 3662,19684 3778,19751 3894,19761 4009,19857 4125,19823 4240,19836 4356,19784 4472,19696 4587,19724 4703,19727 4819,19737 4934,19746 5050,19736 5166,19702 5281,19694 5397,19696 5512,19711 5628,19726 5744,19740 5859,19742 5975,19766 6091,19776 6206,19831 6322,19877 6437,19881 6553,19884 6669,19902 6784,19901 6900,19933 7016,19925 7131,19918 7247,19937 7362,19925 7478,19923 7594,19927 7709,19942 7825,19961 7941,19986 8056,19999 8172,20005 8288,19994 8403,19991 8519,19999 8634,20016 8750,20003 8866,20013 8981,20007 9097,20017 9213,20052 9328,20061 9444,20068 9559,20056 9675,20061 9791,20054 9906,20047 10022,20052 10138,20064 10253,20070 10369,20079 10485,20071 10600,20065 10716,20062 10831,20057 10947,20065 11063,20067 11178,20074 11294,20079 11410,20082 11525,20079 11641,20065 11756,20076 11871,20070 11987,20075 12102,20082 12218,20085 12334,20083 12449,20077 12565,20073 12681,20082 12796,20087 12912,20090 13027,20094 13143,20091 13259,20096 13374,20097 13490,20145 13606,20179 13721,20190 13837,20205 13952,20229 14068,20246 14184,20261 14299,20278 14415,20280 14531,20284 14646,20279 14762,20284 14877,20296 14993,20288 15109,20289 15224,20306 15340,20304 15456,20309 15571,20325 15687,20338 15803,20331 15918,20327 16034,20330 16149,20329 16265,20323 16381,20337 16496,20340 16612,20351 16728,20354 16843,20364 16959,20368 17074,20363 17190,20374 17306,20385 17421,20397 17537,20398 17653,20407 17768,20412 17884,20416 18000,20429 18115,20430 18231,20447 18346,20446 18462,20454 18578,20448"/>
 <text class="TextShape" transform="rotate(-90 1591 24000)"><tspan class="TextParagraph" font-family="Liberation Sans, sans-serif" font-size="388px" font-weight="400"><tspan class="TextPosition" x="1591" y="24000"><tspan fill="rgb(0,0,0)" stroke="none">13.03</tspan></tspan></tspan></text>
 <text class="TextShape" transform="rotate(-90 2401 24000)"><tspan class="TextParagraph" font-family="Liberation Sans, sans-serif" font-size="388px" font-weight="400"><tspan class="TextPosition" x="2401" y="24000"><tspan fill="rgb(0,0,0)" stroke="none">20.03</tspan></tspan></tspan></text>
 <text class="TextShape" transform="rotate(-90 3210 24000)"><tspan class="TextParagraph" font-family="Liberation Sans, sans-serif" font-size="388px" font-weight="400"><tspan class="TextPosition" x="3210" y="24000"><tspan fill="rgb(0,0,0)" stroke="none">27.03</tspan></tspan></tspan></text>
 <text class="TextShape" transform="rotate(-90 4020 24000)"><tspan class="TextParagraph" font-family="Liberation Sans, sans-serif" font-size="388px" font-weight="400"><tspan class="TextPosition" x="4020" y="24000"><tspan fill="rgb(0,0,0)" stroke="none">03.04</tspan></tspan></tspan></text>
 <text class="TextShape" transform="rotate(-90 4829 24000)"><tspan class="TextParagraph" font-family="Liberation Sans, sans-serif" font-size="388px" font-weight="400"><tspan class="TextPosition" x="4829" y="24000"><tspan fill="rgb(0,0,0)" stroke="none">10.04</tspan></tspan></tspan></text>
 <text class="TextShape" transform="rotate(-90 5638 24000)"><tspan class="TextParagraph" font-family="Liberation Sans, sans-serif" font-size="388px" font-weight="400"><tspan class="TextPosition" x="5638" y="24000"><tspan fill="rgb(0,0,0)" stroke="none">17.04</tspan></tspan></tspan></text>
 <text class="TextShape" transform="rotate(-90 6448 24000)"><tspan class="TextParagraph" font-family="Liberation Sans, sans-serif" font-size="388px" font-weight="400"><tspan class="TextPosition" x="6448" y="24000"><tspan fill="rgb(0,0,0)" stroke="none">24.04</tspan></tspan></tspan></text>
 <text class="TextShape" transform="rotate(-90 7257 24000)"><tspan class="TextParagraph" font-family="Liberation Sans, sans-serif" font-size="388px" font-weight="400"><tspan class="TextPosition" x="7257" y="24000"><tspan fill="rgb(0,0,0)" stroke="none">01.05</tspan></tspan></tspan></text>
 <text class="TextShape" transform="rotate(-90 8067 24000)"><tspan class="TextParagraph" font-family="Liberation Sans, sans-serif" font-size="388px" font-weight="400"><tspan class="TextPosition" x="8067" y="24000"><tspan fill="rgb(0,0,0)" stroke="none">08.05</tspan></tspan></tspan></text>
 <text class="TextShape" transform="rotate(-90 8876 24000)"><tspan class="TextParagraph" font-family="Liberation Sans, sans-serif" font-size="388px" font-weight="400"><tspan class="TextPosition" x="8876" y="24000"><tspan fill="rgb(0,0,0)" stroke="none">15.05</tspan></tspan></tspan></text>
 <text class="TextShape" transform="rotate(-90 9685 24000)"><tspan class="TextParagraph" font-family="Liberation Sans, sans-serif" font-size="388px" font-weight="400"><tspan class="TextPosition" x="9685" y="24000"><tspan fill="rgb(0,0,0)" stroke="none">22.05</tspan></tspan></tspan></text>
 <text class="TextShape" transform="rotate(-90 10495 24000)"><tspan class="TextParagraph" font-family="Liberation Sans, sans-serif" font-size="388px" font-weight="400"><tspan class="TextPosition" x="10495" y="24000"><tspan fill="rgb(0,0,0)" stroke="none">29.05</tspan></tspan></tspan></text>
 <text class="TextShape" transform="rotate(-90 11304 24000)"><tspan class="TextParagraph" font-family="Liberation Sans, sans-serif" font-size="388px" font-weight="400"><tspan class="TextPosition" x="11304" y="24000"><tspan fill="rgb(0,0,0)" stroke="none">05.06</tspan></tspan></tspan></text>
 <text class="TextShape" transform="rotate(-90 12113 24000)"><tspan class="TextParagraph" font-family="Liberation Sans, sans-serif" font-size="388px" font-weight="400"><tspan class="TextPosition" x="12113" y="24000"><tspan fill="rgb(0,0,0)" stroke="none">12.06</tspan></tspan></tspan></text>
 <text class="TextShape" transform="rotate(-90 12922 24000)"><tspan class="TextParagraph" font-family="Liberation Sans, sans-serif" font-size="388px" font-weight="400"><tspan class="TextPosition" x="12922" y="24000"><tspan fill="rgb(0,0,0)" stroke="none">19.06</tspan></tspan></tspan></text>
 <text class="TextShape" transform="rotate(-90 13732 24000)"><tspan class="TextParagraph" font-family="Liberation Sans, sans-serif" font-size="388px" font-weight="400"><tspan class="TextPosition" x="13732" y="24000"><tspan fill="rgb(0,0,0)" stroke="none">26.06</tspan></tspan></tspan></text>
 <text class="TextShape" transform="rotate(-90 14541 24000)"><tspan class="TextParagraph" font-family="Liberation Sans, sans-serif" font-size="388px" font-weight="400"><tspan class="TextPosition" x="14541" y="24000"><tspan fill="rgb(0,0,0)" stroke="none">03.07</tspan></tspan></tspan></text>
 <text class="TextShape" transform="rotate(-90 15350 24000)"><tspan class="TextParagraph" font-family="Liberation Sans, sans-serif" font-size="388px" font-weight="400"><tspan class="TextPosition" x="15350" y="24000"><tspan fill="rgb(0,0,0)" stroke="none">10.07</tspan></tspan></tspan></text>
 <text class="TextShape" transform="rotate(-90 16160 24000)"><tspan class="TextParagraph" font-family="Liberation Sans, sans-serif" font-size="388px" font-weight="400"><tspan class="TextPosition" x="16160" y="24000"><tspan fill="rgb(0,0,0)" stroke="none">17.07</tspan></tspan></tspan></text>
 <text class="TextShape" transform="rotate(-90 16969 24000)"><tspan class="TextParagraph" font-family="Liberation Sans, sans-serif" font-size="388px" font-weight="400"><tspan class="TextPosition" x="16969" y="24000"><tspan fill="rgb(0,0,0)" stroke="none">24.07</tspan></tspan></tspan></text>
 <text class="TextShape" transform="rotate(-90 17779 24000)"><tspan class="TextParagraph" font-family="Liberation Sans, sans-serif" font-size="388px" font-weight="400"><tspan class="TextPosition" x="17779" y="24000"><tspan fill="rgb(0,0,0)" stroke="none">31.07</tspan></tspan></tspan></text>
 <text class="TextShape" transform="rotate(-90 18588 24000)"><tspan class="TextParagraph" font-family="Liberation Sans, sans-serif" font-size="388px" font-weight="400"><tspan class="TextPosition" x="18588" y="24000"><tspan fill="rgb(0,0,0)" stroke="none">07.08</tspan></tspan></tspan></text>
 <text class="TextShape"><tspan class="TextParagraph" font-family="Liberation Sans, sans-serif" font-size="388px" font-weight="400"><tspan class="TextPosition" x="608" y="22924"><tspan fill="rgb(0,0,0)" stroke="none">0%</tspan></tspan></tspan></text>
 <text class="TextShape"><tspan class="TextParagraph" font-family="Liberation Sans, sans-serif" font-size="388px" font-weight="400"><tspan class="TextPosition" x="608" y="20824"><tspan fill="rgb(0,0,0)" stroke="none">2%</tspan></tspan></tspan></text>
 <text class="TextShape"><tspan class="TextParagraph" font-family="Liberation Sans, sans-serif" font-size="388px" font-weight="400"><tspan class="TextPosition" x="608" y="18724"><tspan fill="rgb(0,0,0)" stroke="none">4%</tspan></tspan></tspan></text>
 <text class="TextShape"><tspan class="TextParagraph" font-family="Liberation Sans, sans-serif" font-size="388px" font-weight="400"><tspan class="TextPosition" x="608" y="16624"><tspan fill="rgb(0,0,0)" stroke="none">6%</tspan></tspan></tspan></text>
 <text class="TextShape"><tspan class="TextParagraph" font-family="Liberation Sans, sans-serif" font-size="388px" font-weight="400"><tspan class="TextPosition" x="608" y="14524"><tspan fill="rgb(0,0,0)" stroke="none">8%</tspan></tspan></tspan></text>
 <text class="TextShape"><tspan class="TextParagraph" font-family="Liberation Sans, sans-serif" font-size="388px" font-weight="400"><tspan class="TextPosition" x="396" y="12424"><tspan fill="rgb(0,0,0)" stroke="none">10%</tspan></tspan></tspan></text>
 <text class="TextShape"><tspan class="TextParagraph" font-family="Liberation Sans, sans-serif" font-size="388px" font-weight="400"><tspan class="TextPosition" x="396" y="10324"><tspan fill="rgb(0,0,0)" stroke="none">12%</tspan></tspan></tspan></text>
 <text class="TextShape"><tspan class="TextParagraph" font-family="Liberation Sans, sans-serif" font-size="388px" font-weight="400"><tspan class="TextPosition" x="396" y="8224"><tspan fill="rgb(0,0,0)" stroke="none">14%</tspan></tspan></tspan></text>
 <text class="TextShape"><tspan class="TextParagraph" font-family="Liberation Sans, sans-serif" font-size="388px" font-weight="400"><tspan class="TextPosition" x="396" y="6124"><tspan fill="rgb(0,0,0)" stroke="none">16%</tspan></tspan></tspan></text>
 <text class="TextShape"><tspan class="TextParagraph" font-family="Liberation Sans, sans-serif" font-size="388px" font-weight="400"><tspan class="TextPosition" x="396" y="4024"><tspan fill="rgb(0,0,0)" stroke="none">18%</tspan></tspan></tspan></text>
 <text class="TextShape"><tspan class="TextParagraph" font-family="Liberation Sans, sans-serif" font-size="388px" font-weight="400"><tspan class="TextPosition" x="396" y="1925"><tspan fill="rgb(0,0,0)" stroke="none">20%</tspan></tspan></tspan></text>
 <text class="TextShape"><tspan class="TextParagraph" font-family="Liberation Sans, sans-serif" font-size="494px" font-weight="700"><tspan class="TextPosition" x="836" y="990"><tspan fill="rgb(0,0,0)" stroke="none">Poměr počtu obětí k počtu vyléčených (měřítko do 20 %)</tspan></tspan></tspan></text>
 <path fill="none" stroke="rgb(0,127,255)" stroke-width="80" stroke-linejoin="round" d="M 18829,2893 L 20429,2893"/>
 <path fill="none" stroke="rgb(0,169,51)" stroke-width="80" stroke-linejoin="round" stroke-dasharray="80,40" d="M 18829,4404 L 20429,4404"/>
 <path fill="none" stroke="rgb(141,40,30)" stroke-width="80" stroke-linejoin="round" stroke-dasharray="80,40" d="M 18829,5915 L 20429,5915"/>
 <path fill="none" stroke="rgb(85,48,141)" stroke-width="80" stroke-linejoin="round" stroke-dasharray="80,40" d="M 18829,7426 L 20429,7426"/>
 <path fill="none" stroke="rgb(0,255,0)" stroke-width="80" stroke-linejoin="round" d="M 18829,8937 L 20429,8937"/>
 <path fill="none" stroke="rgb(191,0,65)" stroke-width="80" stroke-linejoin="round" stroke-dasharray="51,127,51,127,254,127,254,127,254,127" d="M 18829,10448 L 20429,10448"/>
 <path fill="none" stroke="rgb(21,132,102)" stroke-width="80" stroke-linejoin="round" stroke-dasharray="80,203,80,203,203,203" d="M 18829,11959 L 20429,11959"/>
 <path fill="none" stroke="rgb(180,120,4)" stroke-width="80" stroke-linejoin="round" d="M 18829,13469 L 20429,13469"/>
 <path fill="none" stroke="rgb(0,0,0)" stroke-width="80" stroke-linejoin="round" d="M 18829,14980 L 20429,14980"/>
 <path fill="none" stroke="rgb(255,64,0)" stroke-width="80" stroke-linejoin="round" stroke-dasharray="80,40" d="M 18829,16491 L 20429,16491"/>
 <path fill="none" stroke="rgb(0,169,51)" stroke-width="80" stroke-linejoin="round" d="M 18829,18002 L 20429,18002"/>
 <path fill="none" stroke="rgb(255,211,32)" stroke-width="80" stroke-linejoin="round" d="M 18829,19513 L 20429,19513"/>
 <path fill="none" stroke="rgb(128,0,128)" stroke-width="80" stroke-linejoin="round" stroke-dasharray="158,158" d="M 18829,21024 L 20429,21024"/>
 <path fill="none" stroke="rgb(0,0,255)" stroke-width="80" stroke-linejoin="round" stroke-dasharray="158,158" d="M 18829,22535 L 20429,22535"/>
 <text class="TextShape"><tspan class="TextParagraph" font-family="Liberation Sans, sans-serif" font-size="423px" font-weight="400"><tspan class="TextPosition" x="20529" y="3041"><tspan fill="rgb(0,0,0)" stroke="none">Itálie</tspan></tspan></tspan></text>
 <text class="TextShape"><tspan class="TextParagraph" font-family="Liberation Sans, sans-serif" font-size="423px" font-weight="400"><tspan class="TextPosition" x="20529" y="4552"><tspan fill="rgb(0,0,0)" stroke="none">Mexiko</tspan></tspan></tspan></text>
 <text class="TextShape"><tspan class="TextParagraph" font-family="Liberation Sans, sans-serif" font-size="423px" font-weight="400"><tspan class="TextPosition" x="20529" y="6063"><tspan fill="rgb(0,0,0)" stroke="none">USA</tspan></tspan></tspan></text>
 <text class="TextShape"><tspan class="TextParagraph" font-family="Liberation Sans, sans-serif" font-size="423px" font-weight="400"><tspan class="TextPosition" x="20529" y="7574"><tspan fill="rgb(0,0,0)" stroke="none">Kanada</tspan></tspan></tspan></text>
 <text class="TextShape"><tspan class="TextParagraph" font-family="Liberation Sans, sans-serif" font-size="423px" font-weight="400"><tspan class="TextPosition" x="20529" y="9085"><tspan fill="rgb(0,0,0)" stroke="none">Švýcarsko</tspan></tspan></tspan></text>
 <text class="TextShape"><tspan class="TextParagraph" font-family="Liberation Sans, sans-serif" font-size="423px" font-weight="400"><tspan class="TextPosition" x="20529" y="10596"><tspan fill="rgb(0,0,0)" stroke="none">EU_nové země</tspan></tspan></tspan></text>
 <text class="TextShape"><tspan class="TextParagraph" font-family="Liberation Sans, sans-serif" font-size="423px" font-weight="400"><tspan class="TextPosition" x="20529" y="12107"><tspan fill="rgb(0,0,0)" stroke="none">celosvětově</tspan></tspan></tspan></text>
 <text class="TextShape"><tspan class="TextParagraph" font-family="Liberation Sans, sans-serif" font-size="423px" font-weight="400"><tspan class="TextPosition" x="20529" y="13617"><tspan fill="rgb(0,0,0)" stroke="none">Dánsko</tspan></tspan></tspan></text>
 <text class="TextShape"><tspan class="TextParagraph" font-family="Liberation Sans, sans-serif" font-size="423px" font-weight="400"><tspan class="TextPosition" x="20529" y="15128"><tspan fill="rgb(0,0,0)" stroke="none">Německo</tspan></tspan></tspan></text>
 <text class="TextShape"><tspan class="TextParagraph" font-family="Liberation Sans, sans-serif" font-size="423px" font-weight="400"><tspan class="TextPosition" x="20529" y="16639"><tspan fill="rgb(0,0,0)" stroke="none">Brazílie</tspan></tspan></tspan></text>
 <text class="TextShape"><tspan class="TextParagraph" font-family="Liberation Sans, sans-serif" font-size="423px" font-weight="400"><tspan class="TextPosition" x="20529" y="18150"><tspan fill="rgb(0,0,0)" stroke="none">Rakousko</tspan></tspan></tspan></text>
 <text class="TextShape"><tspan class="TextParagraph" font-family="Liberation Sans, sans-serif" font-size="423px" font-weight="400"><tspan class="TextPosition" x="20529" y="19661"><tspan fill="rgb(0,0,0)" stroke="none">Česko</tspan></tspan></tspan></text>
 <text class="TextShape"><tspan class="TextParagraph" font-family="Liberation Sans, sans-serif" font-size="423px" font-weight="400"><tspan class="TextPosition" x="20529" y="21172"><tspan fill="rgb(0,0,0)" stroke="none">Indie</tspan></tspan></tspan></text>
 <text class="TextShape"><tspan class="TextParagraph" font-family="Liberation Sans, sans-serif" font-size="423px" font-weight="400"><tspan class="TextPosition" x="20529" y="22683"><tspan fill="rgb(0,0,0)" stroke="none">Jižní Korea</tspan></tspan></tspan></text>
</svg>