<?xml version="1.0" encoding="UTF-8"?>
<!DOCTYPE svg PUBLIC "-//W3C//DTD SVG 1.1//EN" "http://www.w3.org/Graphics/SVG/1.1/DTD/svg11.dtd">
<svg width="236mm" height="250mm" viewBox="0 0 23600 25000" version="1.1" xmlns="http://www.w3.org/2000/svg" xmlns:xlink="http://www.w3.org/1999/xlink" stroke-width="28.222" stroke-linejoin="round" xml:space="preserve">
 <path fill="rgb(255,255,255)" stroke="none" d="M 11800,25000 L 0,25000 0,0 23600,0 23600,25000 11800,25000 Z"/>
 <path fill="none" stroke="rgb(179,179,179)" stroke-linejoin="round" d="M 9834,22797 L 1220,22797 1220,1799 18448,1799 18448,22797 9834,22797 Z"/>
 <path fill="none" stroke="rgb(179,179,179)" stroke-linejoin="round" d="M 18448,22796 L 1220,22796"/>
 <path fill="none" stroke="rgb(179,179,179)" stroke-linejoin="round" d="M 18448,20696 L 1220,20696"/>
 <path fill="none" stroke="rgb(179,179,179)" stroke-linejoin="round" d="M 18448,18596 L 1220,18596"/>
 <path fill="none" stroke="rgb(179,179,179)" stroke-linejoin="round" d="M 18448,16496 L 1220,16496"/>
 <path fill="none" stroke="rgb(179,179,179)" stroke-linejoin="round" d="M 18448,14396 L 1220,14396"/>
 <path fill="none" stroke="rgb(179,179,179)" stroke-linejoin="round" d="M 18448,12297 L 1220,12297"/>
 <path fill="none" stroke="rgb(179,179,179)" stroke-linejoin="round" d="M 18448,10197 L 1220,10197"/>
 <path fill="none" stroke="rgb(179,179,179)" stroke-linejoin="round" d="M 18448,8097 L 1220,8097"/>
 <path fill="none" stroke="rgb(179,179,179)" stroke-linejoin="round" d="M 18448,5997 L 1220,5997"/>
 <path fill="none" stroke="rgb(179,179,179)" stroke-linejoin="round" d="M 18448,3897 L 1220,3897"/>
 <path fill="none" stroke="rgb(179,179,179)" stroke-linejoin="round" d="M 18448,1798 L 1220,1798"/>
 <path fill="none" stroke="rgb(179,179,179)" stroke-linejoin="round" d="M 1220,22946 L 1220,22796"/>
 <path fill="none" stroke="rgb(179,179,179)" stroke-linejoin="round" d="M 1220,22946 L 1220,22796"/>
 <path fill="none" stroke="rgb(179,179,179)" stroke-linejoin="round" d="M 2018,22946 L 2018,22796"/>
 <path fill="none" stroke="rgb(179,179,179)" stroke-linejoin="round" d="M 2018,22946 L 2018,22796"/>
 <path fill="none" stroke="rgb(179,179,179)" stroke-linejoin="round" d="M 2817,22946 L 2817,22796"/>
 <path fill="none" stroke="rgb(179,179,179)" stroke-linejoin="round" d="M 2817,22946 L 2817,22796"/>
 <path fill="none" stroke="rgb(179,179,179)" stroke-linejoin="round" d="M 3616,22946 L 3616,22796"/>
 <path fill="none" stroke="rgb(179,179,179)" stroke-linejoin="round" d="M 3616,22946 L 3616,22796"/>
 <path fill="none" stroke="rgb(179,179,179)" stroke-linejoin="round" d="M 4414,22946 L 4414,22796"/>
 <path fill="none" stroke="rgb(179,179,179)" stroke-linejoin="round" d="M 4414,22946 L 4414,22796"/>
 <path fill="none" stroke="rgb(179,179,179)" stroke-linejoin="round" d="M 5213,22946 L 5213,22796"/>
 <path fill="none" stroke="rgb(179,179,179)" stroke-linejoin="round" d="M 5213,22946 L 5213,22796"/>
 <path fill="none" stroke="rgb(179,179,179)" stroke-linejoin="round" d="M 6012,22946 L 6012,22796"/>
 <path fill="none" stroke="rgb(179,179,179)" stroke-linejoin="round" d="M 6012,22946 L 6012,22796"/>
 <path fill="none" stroke="rgb(179,179,179)" stroke-linejoin="round" d="M 6810,22946 L 6810,22796"/>
 <path fill="none" stroke="rgb(179,179,179)" stroke-linejoin="round" d="M 6810,22946 L 6810,22796"/>
 <path fill="none" stroke="rgb(179,179,179)" stroke-linejoin="round" d="M 7609,22946 L 7609,22796"/>
 <path fill="none" stroke="rgb(179,179,179)" stroke-linejoin="round" d="M 7609,22946 L 7609,22796"/>
 <path fill="none" stroke="rgb(179,179,179)" stroke-linejoin="round" d="M 8408,22946 L 8408,22796"/>
 <path fill="none" stroke="rgb(179,179,179)" stroke-linejoin="round" d="M 8408,22946 L 8408,22796"/>
 <path fill="none" stroke="rgb(179,179,179)" stroke-linejoin="round" d="M 9206,22946 L 9206,22796"/>
 <path fill="none" stroke="rgb(179,179,179)" stroke-linejoin="round" d="M 9206,22946 L 9206,22796"/>
 <path fill="none" stroke="rgb(179,179,179)" stroke-linejoin="round" d="M 10005,22946 L 10005,22796"/>
 <path fill="none" stroke="rgb(179,179,179)" stroke-linejoin="round" d="M 10005,22946 L 10005,22796"/>
 <path fill="none" stroke="rgb(179,179,179)" stroke-linejoin="round" d="M 10804,22946 L 10804,22796"/>
 <path fill="none" stroke="rgb(179,179,179)" stroke-linejoin="round" d="M 10804,22946 L 10804,22796"/>
 <path fill="none" stroke="rgb(179,179,179)" stroke-linejoin="round" d="M 11603,22946 L 11603,22796"/>
 <path fill="none" stroke="rgb(179,179,179)" stroke-linejoin="round" d="M 11603,22946 L 11603,22796"/>
 <path fill="none" stroke="rgb(179,179,179)" stroke-linejoin="round" d="M 12400,22946 L 12400,22796"/>
 <path fill="none" stroke="rgb(179,179,179)" stroke-linejoin="round" d="M 12400,22946 L 12400,22796"/>
 <path fill="none" stroke="rgb(179,179,179)" stroke-linejoin="round" d="M 13199,22946 L 13199,22796"/>
 <path fill="none" stroke="rgb(179,179,179)" stroke-linejoin="round" d="M 13199,22946 L 13199,22796"/>
 <path fill="none" stroke="rgb(179,179,179)" stroke-linejoin="round" d="M 13998,22946 L 13998,22796"/>
 <path fill="none" stroke="rgb(179,179,179)" stroke-linejoin="round" d="M 13998,22946 L 13998,22796"/>
 <path fill="none" stroke="rgb(179,179,179)" stroke-linejoin="round" d="M 14796,22946 L 14796,22796"/>
 <path fill="none" stroke="rgb(179,179,179)" stroke-linejoin="round" d="M 14796,22946 L 14796,22796"/>
 <path fill="none" stroke="rgb(179,179,179)" stroke-linejoin="round" d="M 15595,22946 L 15595,22796"/>
 <path fill="none" stroke="rgb(179,179,179)" stroke-linejoin="round" d="M 15595,22946 L 15595,22796"/>
 <path fill="none" stroke="rgb(179,179,179)" stroke-linejoin="round" d="M 16394,22946 L 16394,22796"/>
 <path fill="none" stroke="rgb(179,179,179)" stroke-linejoin="round" d="M 16394,22946 L 16394,22796"/>
 <path fill="none" stroke="rgb(179,179,179)" stroke-linejoin="round" d="M 17192,22946 L 17192,22796"/>
 <path fill="none" stroke="rgb(179,179,179)" stroke-linejoin="round" d="M 17192,22946 L 17192,22796"/>
 <path fill="none" stroke="rgb(179,179,179)" stroke-linejoin="round" d="M 17991,22946 L 17991,22796"/>
 <path fill="none" stroke="rgb(179,179,179)" stroke-linejoin="round" d="M 17991,22946 L 17991,22796"/>
 <path fill="none" stroke="rgb(179,179,179)" stroke-linejoin="round" d="M 1220,22796 L 18448,22796"/>
 <path fill="none" stroke="rgb(179,179,179)" stroke-linejoin="round" d="M 1070,22796 L 1220,22796"/>
 <path fill="none" stroke="rgb(179,179,179)" stroke-linejoin="round" d="M 1070,22796 L 1220,22796"/>
 <path fill="none" stroke="rgb(179,179,179)" stroke-linejoin="round" d="M 1070,20696 L 1220,20696"/>
 <path fill="none" stroke="rgb(179,179,179)" stroke-linejoin="round" d="M 1070,20696 L 1220,20696"/>
 <path fill="none" stroke="rgb(179,179,179)" stroke-linejoin="round" d="M 1070,18596 L 1220,18596"/>
 <path fill="none" stroke="rgb(179,179,179)" stroke-linejoin="round" d="M 1070,18596 L 1220,18596"/>
 <path fill="none" stroke="rgb(179,179,179)" stroke-linejoin="round" d="M 1070,16496 L 1220,16496"/>
 <path fill="none" stroke="rgb(179,179,179)" stroke-linejoin="round" d="M 1070,16496 L 1220,16496"/>
 <path fill="none" stroke="rgb(179,179,179)" stroke-linejoin="round" d="M 1070,14396 L 1220,14396"/>
 <path fill="none" stroke="rgb(179,179,179)" stroke-linejoin="round" d="M 1070,14396 L 1220,14396"/>
 <path fill="none" stroke="rgb(179,179,179)" stroke-linejoin="round" d="M 1070,12297 L 1220,12297"/>
 <path fill="none" stroke="rgb(179,179,179)" stroke-linejoin="round" d="M 1070,12297 L 1220,12297"/>
 <path fill="none" stroke="rgb(179,179,179)" stroke-linejoin="round" d="M 1070,10197 L 1220,10197"/>
 <path fill="none" stroke="rgb(179,179,179)" stroke-linejoin="round" d="M 1070,10197 L 1220,10197"/>
 <path fill="none" stroke="rgb(179,179,179)" stroke-linejoin="round" d="M 1070,8097 L 1220,8097"/>
 <path fill="none" stroke="rgb(179,179,179)" stroke-linejoin="round" d="M 1070,8097 L 1220,8097"/>
 <path fill="none" stroke="rgb(179,179,179)" stroke-linejoin="round" d="M 1070,5997 L 1220,5997"/>
 <path fill="none" stroke="rgb(179,179,179)" stroke-linejoin="round" d="M 1070,5997 L 1220,5997"/>
 <path fill="none" stroke="rgb(179,179,179)" stroke-linejoin="round" d="M 1070,3897 L 1220,3897"/>
 <path fill="none" stroke="rgb(179,179,179)" stroke-linejoin="round" d="M 1070,3897 L 1220,3897"/>
 <path fill="none" stroke="rgb(179,179,179)" stroke-linejoin="round" d="M 1070,1798 L 1220,1798"/>
 <path fill="none" stroke="rgb(179,179,179)" stroke-linejoin="round" d="M 1070,1798 L 1220,1798"/>
 <path fill="none" stroke="rgb(179,179,179)" stroke-linejoin="round" d="M 1220,22796 L 1220,1798"/>
 <path fill="none" stroke="rgb(131,202,255)" stroke-width="80" stroke-linejoin="round" d="M 11495,1798 L 11545,1859 11660,2037 11774,2201 11887,2351 12001,2409 12115,2562 12229,2642 12343,2725 12457,2848 12571,2880 12685,2914 12800,2958 12914,3073 13028,3252 13142,3297 13256,3373 13370,3468 13484,3487 13598,3515 13712,3609 13826,3645 13941,3665 14055,3695 14169,3731 14283,3744 14397,3752 14511,3793 14625,3866 14739,3892 14853,3914 14967,3940 15082,3969 15196,3979 15310,4002 15424,4051 15538,4062 15652,4079 15766,4102 15880,4114 15994,4127 16108,4144 16223,4158 16337,4173 16451,4203 16565,4213 16679,4222 16793,4233 16907,4242 17021,4265 17135,4334 17249,4346 17364,4367 17478,4384 17592,4389 17706,4403 17820,4417 17934,4446 18048,4473 18162,4494 18276,4507 18390,4518"/>
 <path fill="none" stroke="rgb(255,128,0)" stroke-width="80" stroke-linejoin="round" stroke-dasharray="158,158" d="M 14969,1798 L 15082,2219 15196,2467 15310,2683 15424,2812 15538,3002 15652,3395 15766,3375 15880,3381 15994,3435 16108,3583 16223,3736 16337,3834 16451,3902 16565,3971 16679,3999 16793,3999 16907,4010 17021,4055 17135,4094 17249,4134 17364,4163 17478,4301 17592,4431 17706,4411 17820,4466 17934,4605 18048,4550 18162,4691 18276,4732 18390,4776"/>
 <path fill="none" stroke="rgb(180,120,4)" stroke-width="80" stroke-linejoin="round" stroke-dasharray="80,40" d="M 6673,1798 L 6753,12098 6867,12098 6982,11869 7096,11793 7210,11640 7324,11640 7438,11563 7552,11487 7666,11334 7780,11258 7894,11258 8008,11258 8123,11181 8237,10952 8351,10876 8465,10570 8579,10417 8693,10341 8807,10188 8921,10188 9035,10112 9149,9959 9264,9882 9378,9729 9492,9729 9606,9653 9720,9577 9834,9577 9948,9424 10062,9424 10176,9424 10290,9424 10404,9118 10519,9118 10633,9118 10747,9042 10861,9042 10975,9042 11089,9042 11203,8889 11317,8812 11431,8812 11545,8812 11660,8812 11774,8812 11887,8812 12001,8736 12115,8660 12229,8507 12343,8430 12457,8354 12571,8278 12685,8278 12800,8278 12914,8278 13028,8278 13142,8201 13256,8201 13370,8201 13484,8201 13598,8201 13712,8125 13826,8125 13941,8125 14055,8125 14169,8125 14283,8125 14397,8125 14511,8048 14625,8048 14739,8048 14853,8048 14967,8048 15082,8048 15196,8048 15310,8048 15424,8048 15538,8048 15652,7972 15766,7972 15880,7972 15994,7895 16108,7743 16223,7513 16337,7437 16451,7437 16565,7437 16679,7361 16793,7361 16907,7284 17021,7284 17135,7284 17249,7055 17364,7055 17478,6902 17592,6826 17706,6826 17820,6749 17934,6749 18048,6749 18162,6673 18276,6272 18390,6194"/>
 <path fill="none" stroke="rgb(255,0,0)" stroke-width="80" stroke-linejoin="round" stroke-dasharray="158,158" d="M 2303,17874 L 2418,11313 2532,8177 2646,2042 2651,1798"/>
 <path fill="none" stroke="rgb(255,0,0)" stroke-width="80" stroke-linejoin="round" stroke-dasharray="158,158" d="M 6461,1798 L 6525,2347 6639,2409 6753,4056 6867,4747 6982,4993 7096,5761 7210,6496 7324,6606 7438,7123 7552,7621 7666,7708 7780,8533 7894,8486 8008,8565 8123,9107 8237,9133 8351,10584 8465,10807 8579,10799 8693,11044 8807,10954 8921,11054 9035,11168 9149,11326 9264,11437 9378,11759 9492,11882 9606,11918 9720,12044 9834,12204 9948,12528 10062,12582 10176,12663 10290,12768 10404,12817 10519,12797 10633,12935 10747,12952 10861,13027 10975,13169 11089,13234 11203,13313 11317,13261 11431,13341 11545,13390 11660,13414 11774,13434 11887,13377 12001,13323 12115,13407 12229,13343 12343,13312 12457,13384 12571,13385 12685,13408 12800,13406 12914,13394 13028,13407 13142,13619 13256,13677 13370,13792 13484,13799 13598,13724 13712,13696 13826,13733 13941,13648 14055,13620 14169,13641 14283,13620 14397,13612 14511,13597 14625,13623 14739,13612 14853,13617 14967,13622 15082,13614 15196,13594 15310,13497 15424,13500 15538,13469 15652,13440 15766,13416 15880,13390 15994,13389 16108,13891 16223,13851 16337,13817 16451,13890 16565,13837 16679,13841 16793,13816 16907,13798 17021,13787 17135,13704 17249,13687 17364,13661 17478,13613 17592,13594 17706,13498 17820,13535 17934,13503 18048,13418 18162,13450 18276,13383 18390,13342"/>
 <path fill="none" stroke="rgb(129,212,26)" stroke-width="80" stroke-linejoin="round" stroke-dasharray="80,40" d="M 5725,1798 L 5726,14494 5841,14051 5955,13766 6069,11266 6183,10708 6297,10435 6411,10265 6525,9617 6639,13462 6753,13132 6867,12873 6982,12709 7096,12575 7210,12451 7324,12294 7438,14358 7552,14186 7666,14026 7780,13922 7894,13849 8008,13793 8123,13664 8237,14723 8351,14674 8465,14609 8579,14529 8693,14475 8807,14453 8921,14378 9035,14963 9149,14903 9264,14859 9378,14799 9492,14779 9606,14789 9720,14744 9834,15043 9948,15005 10062,14976 10176,14948 10290,14943 10404,14953 10519,14915 10633,15121 10747,15098 10861,15071 10975,15034 11089,15029 11203,15010 11317,14973 11431,14955 11545,14918 11660,14909 11774,14909 11887,14904 12001,14904 12115,14890 12229,14885 12343,14867 12457,14867 12571,14862 12685,14862 12800,14853 12914,14839 13028,15039 13142,15035 13256,15021 13370,15003 13484,14999 13598,14999 13712,14994 13826,14985 13941,14985 14055,14976 14169,14972 14283,14972 14397,14972 14511,14967 14625,14985 14739,14963 14853,14958 14967,14949 15082,14949 15196,14949 15310,14949 15424,14940 15538,14936 15652,14922 15766,14918 15880,14918 15994,14918 16108,14918 16223,14913 16337,14873 16451,14873 16565,14868 16679,14868 16793,14868 16907,14868 17021,14868 17135,14873 17249,14873 17364,14873 17478,14873 17592,14873 17706,14873 17820,14873 17934,14850 18048,14832 18162,14832 18276,14832 18390,14832"/>
 <path fill="none" stroke="rgb(131,202,255)" stroke-width="80" stroke-linejoin="round" stroke-dasharray="158,158" d="M 8761,1798 L 8807,14616 8921,14634 9035,14568 9149,14490 9264,14490 9378,14490 9492,14412 9606,14449 9720,14371 9834,14421 9948,14433 10062,14439 10176,14439 10290,14445 10404,14368 10519,14368 10633,14368 10747,14374 10861,14374 10975,14374 11089,14374 11203,14374 11317,14374 11431,14374 11545,14374 11660,14374 11774,14374 11887,14374 12001,14374 12115,14374 12229,14374 12343,14374 12457,14374 12571,14374 12685,14478 12800,14478 12914,14478 13028,14478 13142,14478 13256,14478 13370,14478 13484,14375 13598,14375 13712,14375 13826,14375 13941,14375 14055,14375 14169,14375 14283,14375 14397,14375 14511,14605 14625,14640 14739,14640 14853,14640 14967,14640 15082,14862 15196,14883 15310,14963 15424,15031 15538,15138 15652,15138 15766,15363 15880,15296 15994,15394 16108,15430 16223,15469 16337,15526 16451,15600 16565,15537 16679,15537 16793,15768 16907,15744 17021,15820 17135,15894 17249,15843 17364,15934 17478,15896 17592,15800 17706,15830 17820,15885 17934,15921 18048,15985 18162,15930 18276,15876 18390,15939"/>
 <path fill="none" stroke="rgb(191,0,65)" stroke-width="80" stroke-linejoin="round" stroke-dasharray="51,127,51,127,254,127,254,127,254,127" d="M 5785,1798 L 5841,2432 5955,3095 6069,4361 6183,4575 6297,5008 6411,5373 6525,5747 6639,6322 6753,7142 6867,7543 6982,7789 7096,8111 7210,8384 7324,8663 7438,9164 7552,9473 7666,9927 7780,10244 7894,10285 8008,10410 8123,10798 8237,10928 8351,11528 8465,11693 8579,11809 8693,11955 8807,12321 8921,12409 9035,12531 9149,12803 9264,12928 9378,13073 9492,13157 9606,13171 9720,13382 9834,13494 9948,13689 10062,13706 10176,13798 10290,13870 10404,13910 10519,13915 10633,13980 10747,14047 10861,14068 10975,14143 11089,14192 11203,14229 11317,14222 11431,14249 11545,14316 11660,14333 11774,14359 11887,14333 12001,14335 12115,14385 12229,14389 12343,14387 12457,14442 12571,14479 12685,14553 12800,14603 12914,14639 13028,14680 13142,14795 13256,14861 13370,14982 13484,15045 13598,15056 13712,15069 13826,15120 13941,15125 14055,15145 14169,15196 14283,15253 14397,15272 14511,15289 14625,15361 14739,15420 14853,15475 14967,15531 15082,15582 15196,15624 15310,15615 15424,15696 15538,15738 15652,15792 15766,15822 15880,15844 15994,15870 16108,16008 16223,16036 16337,16083 16451,16148 16565,16179 16679,16325 16793,16330 16907,16332 17021,16325 17135,16322 17249,16328 17364,16345 17478,16340 17592,16345 17706,16339 17820,16341 17934,16360 18048,16378 18162,16388 18276,16378 18390,16385"/>
 <path fill="none" stroke="rgb(0,169,51)" stroke-width="80" stroke-linejoin="round" stroke-dasharray="158,158" d="M 8100,1798 L 8123,1842 8237,2597 8351,3221 8465,3146 8579,3557 8693,3834 8807,3925 8921,4593 9035,4990 9149,5466 9264,5730 9378,6424 9492,6547 9606,6962 9720,7286 9834,7485 9948,8217 10062,8742 10176,9080 10290,9110 10404,9311 10519,9333 10633,10086 10747,11122 10861,10786 10975,11923 11089,11944 11203,11946 11317,11993 11431,12259 11545,12347 11660,12273 11774,12315 11887,12236 12001,12438 12115,12337 12229,12519 12343,12518 12457,12704 12571,12489 12685,12721 12800,12784 12914,12945 13028,13099 13142,13448 13256,13608 13370,13632 13484,13627 13598,13727 13712,13771 13826,13847 13941,14102 14055,14119 14169,14064 14283,13935 14397,14046 14511,14014 14625,14206 14739,14276 14853,14321 14967,14329 15082,14317 15196,14556 15310,14684 15424,14896 15538,14962 15652,15063 15766,15103 15880,15124 15994,15105 16108,15526 16223,15537 16337,15929 16451,16058 16565,16107 16679,16129 16793,16272 16907,16331 17021,16325 17135,16434 17249,16432 17364,16475 17478,16450 17592,16449 17706,16539 17820,16573 17934,16602 18048,16707 18162,16742 18276,16757 18390,16756"/>
 <path fill="none" stroke="rgb(0,169,51)" stroke-width="80" stroke-linejoin="round" stroke-dasharray="80,40" d="M 6738,1798 L 6753,1901 6867,3217 6982,4265 7096,4752 7210,4900 7324,5232 7438,6263 7552,6492 7666,7080 7780,7637 7894,8055 8008,8156 8123,8428 8237,8693 8351,8951 8465,9031 8579,9407 8693,9762 8807,9913 8921,10202 9035,10453 9149,10722 9264,10987 9378,11182 9492,11422 9606,11398 9720,12066 9834,12348 9948,12476 10062,12476 10176,12683 10290,12884 10404,12946 10519,13018 10633,13051 10747,13204 10861,13176 10975,13219 11089,13346 11203,13377 11317,13383 11431,13354 11545,13481 11660,13501 11774,13587 11887,13592 12001,13627 12115,13682 12229,13746 12343,13775 12457,13873 12571,14062 12685,14261 12800,14439 12914,14580 13028,14713 13142,14848 13256,14988 13370,15252 13484,15448 13598,15540 13712,15577 13826,15679 13941,15742 14055,15810 14169,15931 14283,16088 14397,16132 14511,16176 14625,16288 14739,16404 14853,16499 14967,16614 15082,16720 15196,16782 15310,16788 15424,16921 15538,16970 15652,17059 15766,17118 15880,17167 15994,17202 16108,17213 16223,17259 16337,17300 16451,17365 16565,17406 16679,17439 16793,17440 16907,17451 17021,17437 17135,17462 17249,17494 17364,17539 17478,17559 17592,17582 17706,17590 17820,17576 17934,17570 18048,17590 18162,17604 18276,17625 18390,17645"/>
 <path fill="none" stroke="rgb(128,0,128)" stroke-width="80" stroke-linejoin="round" stroke-dasharray="80,40" d="M 5095,1798 L 5156,3921 5270,6297 5384,7600 5498,7611 5612,6744 5726,9408 5841,11621 5955,12271 6069,13029 6183,13437 6297,13578 6411,13714 6525,14177 6639,14403 6753,14774 6867,14841 6982,15153 7096,15190 7210,15225 7324,15672 7438,15776 7552,15834 7666,16070 7780,16582 7894,16455 8008,16493 8123,16619 8237,16551 8351,16725 8465,16920 8579,16951 8693,16898 8807,16582 8921,16649 9035,16790 9149,16690 9264,17031 9378,16968 9492,16983 9606,16983 9720,16937 9834,16943 9948,16811 10062,16924 10176,16815 10290,16849 10404,16849 10519,16827 10633,16879 10747,16940 10861,17070 10975,17152 11089,17182 11203,17195 11317,17146 11431,17120 11545,17133 11660,17246 11774,17234 11887,17277 12001,17211 12115,17258 12229,17281 12343,17289 12457,17337 12571,17367 12685,17386 12800,17386 12914,17344 13028,17277 13142,17314 13256,17339 13370,17347 13484,17347 13598,17379 13712,17390 13826,17422 13941,17464 14055,17406 14169,17427 14283,17427 14397,17434 14511,17434 14625,17451 14739,17492 14853,17509 14967,17542 15082,17516 15196,17516 15310,17516 15424,17552 15538,17589 15652,17595 15766,17546 15880,17546 15994,17549 16108,17549 16223,17569 16337,17582 16451,17598 16565,17598 16679,17598 16793,17611 16907,17620 17021,17683 17135,17683 17249,17686 17364,17686 17478,17686 17592,17689 17706,17696 17820,17641 17934,17660 18048,17666 18162,17697 18276,17703 18390,17703"/>
 <path fill="none" stroke="rgb(128,0,128)" stroke-width="80" stroke-linejoin="round" stroke-dasharray="158,158" d="M 8793,1798 L 8807,2696 8921,2437 9035,2243 9149,2016 9264,4965 9378,5054 9492,14922 9606,14960 9720,15009 9834,15036 9948,15083 10062,15117 10176,15156 10290,15168 10404,15149 10519,15207 10633,15229 10747,15279 10861,15302 10975,15357 11089,15399 11203,15426 11317,15454 11431,15566 11545,15618 11660,15678 11774,15720 11887,15769 12001,15812 12115,15911 12229,16014 12343,16131 12457,16245 12571,16354 12685,16465 12800,16491 12914,16535 13028,16584 13142,16631 13256,16665 13370,16695 13484,16728 13598,16744 13712,16779 13826,16832 13941,16865 14055,16893 14169,16939 14283,16955 14397,16964 14511,16987 14625,17032 14739,17051 14853,17101 14967,17130 15082,17156 15196,17178 15310,17245 15424,17315 15538,17367 15652,17410 15766,17462 15880,17481 15994,17503 16108,17519 16223,17539 16337,17587 16451,17613 16565,17649 16679,17676 16793,17693 16907,17721 17021,17747 17135,17778 17249,17802 17364,17837 17478,17861 17592,17878 17706,17903 17820,17932 17934,17959 18048,17982 18162,18006 18276,18008 18390,18011"/>
 <path fill="none" stroke="rgb(180,120,4)" stroke-width="80" stroke-linejoin="round" d="M 3434,1798 L 3444,11551 3559,11777 3673,11457 3787,10538 3901,9645 4015,9610 4129,9648 4243,9814 4357,9582 4471,9352 4585,9865 4700,10285 4814,10344 4928,11122 5042,11705 5156,12274 5270,12916 5384,13783 5498,14183 5612,14301 5726,14849 5841,15154 5955,15373 6069,15392 6183,15304 6297,15403 6411,15503 6525,15577 6639,15703 6753,15755 6867,15820 6982,15755 7096,15721 7210,15689 7324,15746 7438,15886 7552,15970 7666,16050 7780,16134 7894,16195 8008,16232 8123,16492 8237,16480 8351,16533 8465,16638 8579,16668 8693,16702 8807,16738 8921,16778 9035,16820 9149,16810 9264,16883 9378,16925 9492,16952 9606,16979 9720,17024 9834,17038 9948,17049 10062,17082 10176,17099 10290,17088 10404,17095 10519,17097 10633,17131 10747,17148 10861,17126 10975,17152 11089,17150 11203,17131 11317,17160 11431,17188 11545,17214 11660,17224 11774,17216 11887,17233 12001,17234 12115,17251 12229,17281 12343,17290 12457,17309 12571,17309 12685,17309 12800,17322 12914,17334 13028,17348 13142,17366 13256,17379 13370,17379 13484,17379 13598,17418 13712,17435 13826,17446 13941,17480 14055,17501 14169,17501 14283,17501 14397,17544 14511,17547 14625,17555 14739,17574 14853,17588 14967,17588 15082,17588 15196,17602 15310,17614 15424,17623 15538,17629 15652,17626 15766,17626 15880,17626 15994,17644 16108,17648 16223,17653 16337,17655 16451,17663 16565,17663 16679,17663 16793,17695 16907,17708 17021,17714 17135,17722 17249,17743 17364,17743 17478,17744 17592,17777 17706,17790 17820,17804 17934,17810 18048,17830 18162,17830 18276,17839 18390,17847"/>
 <path fill="none" stroke="rgb(52,42,6)" stroke-width="80" stroke-linejoin="round" d="M 1277,6819 L 1391,2254 1402,1798"/>
 <path fill="none" stroke="rgb(52,42,6)" stroke-width="80" stroke-linejoin="round" d="M 2490,1798 L 2532,17712 2646,16698 2760,17854 2874,17402 2988,17435 3102,16720 3216,17779 3330,17741 3444,17630 3559,17616 3673,17348 3787,17053 3901,17001 4015,16174 4129,16929 4243,17469 4357,17572 4471,17407 4585,17791 4700,17534 4814,17580 4928,17724 5042,17294 5156,17270 5270,17298 5384,17313 5498,17324 5612,17216 5726,17245 5841,17219 5955,17129 6069,17288 6183,17176 6297,17193 6411,17178 6525,17149 6639,17156 6753,17165 6867,17222 6982,17251 7096,17276 7210,17262 7324,17361 7438,17336 7552,17318 7666,17231 7780,17264 7894,17292 8008,17272 8123,17276 8237,17245 8351,17288 8465,17326 8579,17334 8693,17368 8807,17376 8921,17345 9035,17348 9149,17347 9264,17364 9378,17365 9492,17370 9606,17384 9720,17368 9834,17361 9948,17352 10062,17359 10176,17365 10290,17373 10404,17372 10519,17399 10633,17402 10747,17396 10861,17400 10975,17406 11089,17407 11203,17411 11317,17404 11431,17410 11545,17408 11660,17420 11774,17427 11887,17426 12001,17441 12115,17438 12229,17442 12343,17435 12457,17432 12571,17447 12685,17451 12800,17461 12914,17472 13028,17482 13142,17485 13256,17482 13370,17491 13484,17495 13598,17494 13712,17496 13826,17522 13941,17536 14055,17549 14169,17563 14283,17582 14397,17595 14511,17604 14625,17610 14739,17620 14853,17625 14967,17627 15082,17631 15196,17648 15310,17646 15424,17670 15538,17677 15652,17690 15766,17697 15880,17702 15994,17719 16108,17720 16223,17729 16337,17738 16451,17748 16565,17751 16679,17755 16793,17761 16907,17768 17021,17781 17135,17783 17249,17793 17364,17806 17478,17813 17592,17831 17706,17841 17820,17842 17934,17859 18048,17868 18162,17880 18276,17886 18390,17900"/>
 <path fill="none" stroke="rgb(129,212,26)" stroke-width="80" stroke-linejoin="round" stroke-dasharray="158,158" d="M 2189,12297 L 2303,12297 2418,12297 2532,12297 2589,1798"/>
 <path fill="none" stroke="rgb(129,212,26)" stroke-width="80" stroke-linejoin="round" stroke-dasharray="158,158" d="M 3549,1798 L 3559,16146 3673,15796 3787,14046 3901,12996 4015,13346 4129,10897 4243,8797 4357,8097 4471,5997 4585,5647 4700,3197 4814,2147 4836,1798"/>
 <path fill="none" stroke="rgb(129,212,26)" stroke-width="80" stroke-linejoin="round" stroke-dasharray="158,158" d="M 5065,1798 L 5156,18163 5270,17731 5384,17237 5498,16990 5612,17651 5726,15393 5841,14973 5955,13766 6069,15362 6183,14984 6297,14816 6411,14690 6525,15333 6639,15071 6753,15411 6867,15166 6982,15096 7096,14746 7210,15596 7324,15416 7438,15236 7552,15146 7666,15971 7780,15840 7894,15787 8008,15682 8123,16081 8237,15861 8351,15788 8465,16643 8579,16559 8693,16538 8807,16496 8921,16475 9035,16146 9149,16102 9264,16102 9378,16102 9492,16080 9606,16455 9720,16372 9834,16352 9948,16820 10062,16801 10176,16763 10290,16687 10404,16725 10519,16687 10633,16668 10747,16966 10861,16966 10975,16966 11089,16948 11203,16948 11317,16930 11431,16930 11545,17292 11660,17292 11774,17292 11887,17275 12001,17275 12115,17275 12229,17275 12343,17275 12457,17275 12571,17275 12685,17275 12800,17431 12914,17431 13028,17593 13142,17593 13256,17578 13370,17578 13484,17578 13598,17578 13712,17578 13826,17655 13941,17655 14055,17640 14169,17640 14283,17640 14397,17640 14511,17640 14625,17716 14739,17716 14853,17716 14967,17716 15082,17716 15196,17716 15310,17716 15424,17790 15538,17790 15652,17790 15766,17790 15880,17790 15994,17790 16108,17790 16223,17819 16337,17819 16451,17804 16565,17804 16679,17804 16793,17804 16907,17804 17021,17825 17135,17825 17249,17825 17364,17825 17478,17825 17592,17825 17706,17795 17820,17817 17934,17817 18048,17817 18162,17817 18276,17817 18390,17786"/>
 <path fill="none" stroke="rgb(0,169,51)" stroke-width="80" stroke-linejoin="round" d="M 1277,5297 L 1391,5297 1505,5297 1516,1798"/>
 <path fill="none" stroke="rgb(0,169,51)" stroke-width="80" stroke-linejoin="round" d="M 3083,1798 L 3102,3946 3216,4967 3330,10523 3444,12122 3559,13311 3673,14072 3787,15006 3901,15651 4015,16125 4129,16490 4243,16443 4357,16885 4471,17272 4585,17438 4700,17536 4814,17534 4928,17513 5042,17700 5156,18005 5270,18132 5384,18242 5498,18276 5612,18154 5726,18097 5841,18069 5955,18109 6069,18108 6183,18146 6297,18162 6411,18133 6525,18047 6639,18030 6753,18045 6867,18078 6982,18048 7096,18049 7210,18065 7324,18069 7438,18115 7552,18128 7666,18136 7780,18159 7894,18158 8008,18166 8123,18172 8237,18215 8351,18233 8465,18239 8579,18248 8693,18261 8807,18276 8921,18275 9035,18330 9149,18350 9264,18352 9378,18334 9492,18334 9606,18350 9720,18349 9834,18348 9948,18207 10062,18225 10176,18276 10290,18298 10404,18298 10519,18301 10633,18307 10747,18320 10861,18313 10975,18327 11089,18328 11203,18341 11317,18351 11431,18354 11545,18358 11660,18362 11774,18356 11887,18369 12001,18365 12115,18351 12229,18315 12343,18309 12457,18320 12571,18330 12685,18323 12800,18335 12914,18321 13028,18327 13142,18305 13256,18313 13370,18306 13484,18301 13598,18300 13712,18303 13826,18307 13941,18313 14055,18325 14169,18338 14283,18334 14397,18343 14511,18353 14625,18362 14739,18372 14853,18385 14967,18400 15082,18410 15196,18423 15310,18435 15424,18455 15538,18466 15652,18489 15766,18530 15880,18554 15994,18568 16108,18588 16223,18613 16337,18635 16451,18658 16565,18671 16679,18690 16793,18693 16907,18722 17021,18738 17135,18749 17249,18777 17364,18809 17478,18824 17592,18841 17706,18891 17820,18917 17934,18943 18048,18956 18162,18975 18276,18996 18390,19002"/>
 <path fill="none" stroke="rgb(255,191,0)" stroke-width="80" stroke-linejoin="round" d="M 2303,5297 L 2418,5297 2446,1798"/>
 <path fill="none" stroke="rgb(255,191,0)" stroke-width="80" stroke-linejoin="round" d="M 5052,1798 L 5156,4541 5270,7324 5384,7308 5498,7751 5612,9731 5726,10758 5841,11817 5955,12550 6069,13319 6183,13465 6297,13719 6411,14510 6525,14711 6639,15127 6753,15318 6867,15323 6982,15363 7096,15536 7210,15845 7324,16060 7438,16254 7552,16310 7666,16300 7780,16279 7894,16225 8008,16511 8123,16718 8237,16763 8351,16926 8465,17039 8579,17064 8693,17067 8807,17267 8921,17258 9035,17321 9149,17374 9264,17358 9378,17341 9492,17354 9606,17412 9720,17487 9834,17570 9948,17611 10062,17643 10176,17679 10290,17672 10404,17721 10519,17723 10633,17739 10747,17769 10861,17806 10975,17809 11089,17813 11203,17872 11317,17913 11431,17923 11545,17990 11660,18008 11774,18025 11887,18015 12001,18047 12115,18072 12229,18070 12343,18082 12457,18089 12571,18077 12685,18091 12800,18115 12914,18084 13028,18049 13142,18060 13256,18017 13370,18025 13484,18053 13598,18078 13712,18080 13826,18096 13941,18057 14055,18073 14169,18102 14283,18149 14397,18128 14511,18136 14625,18195 14739,18248 14853,18293 14967,18303 15082,18314 15196,18369 15310,18380 15424,18414 15538,18481 15652,18487 15766,18491 15880,18493 15994,18530 16108,18557 16223,18616 16337,18687 16451,18684 16565,18756 16679,19387 16793,19369 16907,19359 17021,19360 17135,19330 17249,19329 17364,19325 17478,19321 17592,19334 17706,19391 17820,19375 17934,19472 18048,19592 18162,19596 18276,19593 18390,19642"/>
 <path fill="none" stroke="rgb(85,48,141)" stroke-width="80" stroke-linejoin="round" stroke-dasharray="80,40" d="M 2646,9672 L 2760,9672 2874,13251 2988,17546 3102,7047 3216,7047 3330,6643 3444,6888 3504,1798"/>
 <path fill="none" stroke="rgb(85,48,141)" stroke-width="80" stroke-linejoin="round" stroke-dasharray="80,40" d="M 7557,1798 L 7666,14444 7780,14362 7894,14396 8008,14267 8123,14553 8237,14553 8351,15634 8465,15629 8579,15713 8693,15744 8807,15632 8921,15632 9035,15767 9149,18280 9264,18339 9378,18392 9492,18409 9606,18358 9720,18398 9834,18356 9948,18393 10062,18426 10176,18458 10290,18399 10404,18402 10519,18421 10633,18405 10747,18439 10861,18450 10975,18470 11089,18486 11203,18491 11317,18493 11431,18509 11545,18526 11660,18541 11774,18546 11887,18546 12001,18576 12115,18603 12229,18639 12343,18651 12457,18667 12571,18675 12685,18689 12800,18691 12914,18705 13028,18732 13142,18748 13256,18764 13370,18797 13484,18811 13598,18811 13712,18835 13826,18850 13941,18862 14055,18898 14169,18921 14283,18930 14397,18932 14511,18942 14625,18946 14739,18960 14853,18970 14967,18972 15082,18972 15196,18972 15310,18976 15424,18985 15538,18991 15652,19002 15766,19006 15880,19006 15994,19006 16108,19006 16223,19006 16337,19006 16451,19012 16565,19012 16679,19026 16793,19028 16907,19030 17021,19034 17135,19034 17249,19042 17364,19050 17478,19375 17592,19377 17706,19381 17820,19400 17934,19410 18048,19414 18162,19422 18276,19422 18390,19424"/>
 <path fill="none" stroke="rgb(131,202,255)" stroke-width="80" stroke-linejoin="round" stroke-dasharray="80,40" d="M 1961,1798 L 2075,1798 2189,1798 2303,1798 2418,1798 2532,1798 2646,18023 2760,8479 2874,14282 2988,11130 3102,10682 3216,13393 3330,13393 3444,14166 3559,14444 3673,13666 3787,12209 3901,10197 4015,9874 4129,11480 4243,11652 4357,13207 4471,13251 4585,15969 4700,16321 4814,16233 4928,14953 5042,15470 5156,15849 5270,16496 5384,16137 5498,15835 5612,16395 5726,16504 5841,16996 5955,16850 6069,17343 6183,17312 6297,17560 6411,17483 6525,17426 6639,17334 6753,17421 6867,17254 6982,17269 7096,17225 7210,17277 7324,17209 7438,17221 7552,17293 7666,17449 7780,17503 7894,17439 8008,17440 8123,17511 8237,17414 8351,17461 8465,17459 8579,17581 8693,17643 8807,17670 8921,17671 9035,17700 9149,17647 9264,17627 9378,17657 9492,17667 9606,17636 9720,17612 9834,17615 9948,17574 10062,17543 10176,17553 10290,17576 10404,17589 10519,17616 10633,17633 10747,17658 10861,17677 10975,17647 11089,17659 11203,17664 11317,17570 11431,17570 11545,17575 11660,17529 11774,17531 11887,17531 12001,17546 12115,17546 12229,17548 12343,17551 12457,17551 12571,17551 12685,17551 12800,17551 12914,17551 13028,17558 13142,17568 13256,17570 13370,17575 13484,17575 13598,17582 13712,17582 13826,17534 13941,17436 14055,17371 14169,17361 14283,17393 14397,17427 14511,17473 14625,17539 14739,17598 14853,17627 14967,17771 15082,17770 15196,17826 15310,17870 15424,18003 15538,18179 15652,18336 15766,18494 15880,18621 15994,18665 16108,18738 16223,18792 16337,18836 16451,19015 16565,19099 16679,19102 16793,19088 16907,19152 17021,19184 17135,19177 17249,19228 17364,19288 17478,19218 17592,19176 17706,19216 17820,19272 17934,19324 18048,19375 18162,19373 18276,19404 18390,19414"/>
 <path fill="none" stroke="rgb(255,191,0)" stroke-width="80" stroke-linejoin="round" stroke-dasharray="158,158" d="M 3998,1798 L 4015,16233 4129,9672 4243,9672 4357,3110 4471,3110 4585,3110 4597,1798"/>
 <path fill="none" stroke="rgb(255,191,0)" stroke-width="80" stroke-linejoin="round" stroke-dasharray="158,158" d="M 4992,1798 L 5042,10865 5156,13585 5270,16830 5384,16830 5498,16830 5612,16830 5726,15691 5841,14112 5955,14112 6069,18077 6183,18077 6297,18077 6411,17683 6525,17683 6639,18270 6753,18270 6867,17968 6982,17968 7096,17968 7210,17968 7324,17666 7438,18949 7552,18722 7666,18722 7780,18722 7894,18722 8008,18722 8123,19781 8237,19614 8351,19614 8465,19782 8579,19782 8693,19782 8807,19782 8921,19618 9035,19618 9149,19467 9264,19551 9378,19551 9492,19551 9606,19551 9720,19678 9834,19537 9948,19395 10062,19413 10176,19413 10290,19413 10404,19413 10519,19480 10633,19480 10747,19342 10861,19435 10975,19435 11089,19435 11203,19300 11317,19357 11431,19357 11545,19458 11660,19330 11774,19316 11887,19316 12001,19316 12115,19436 12229,19196 12343,19307 12457,19307 12571,19307 12685,19307 12800,19307 12914,19307 13028,19307 13142,19307 13256,19416 13370,19416 13484,19416 13598,19416 13712,19562 13826,19562 13941,19607 14055,19636 14169,19646 14283,19646 14397,19646 14511,19671 14625,19671 14739,19704 14853,19704 14967,19704 15082,19704 15196,19601 15310,19611 15424,19611 15538,19611 15652,19611 15766,19611 15880,19611 15994,19611 16108,19681 16223,19681 16337,19681 16451,19681 16565,19681 16679,19681 16793,19681 16907,19702 17021,19702 17135,19702 17249,19602 17364,19602 17478,19602 17592,19602 17706,19655 17820,19655 17934,19655 18048,19655 18162,19655 18276,19655 18390,19655"/>
 <path fill="none" stroke="rgb(241,13,12)" stroke-width="80" stroke-linejoin="round" stroke-dasharray="80,40" d="M 4015,1798 L 4129,2691 4243,4624 4357,2986 4471,4694 4585,5584 4700,5028 4814,3413 4928,3413 5042,3413 5156,6434 5270,6434 5384,6848 5498,7242 5612,7242 5726,9940 5841,8869 5955,8869 6069,7797 6183,12864 6297,12864 6411,12155 6525,12155 6639,12155 6753,17475 6867,17475 6982,17475 7096,17475 7210,17475 7324,17475 7438,17475 7552,18858 7666,18858 7780,18868 7894,18606 8008,18606 8123,19054 8237,18820 8351,19085 8465,19085 8579,19330 8693,19330 8807,19330 8921,19330 9035,19336 9149,19614 9264,19614 9378,19791 9492,19791 9606,19791 9720,19791 9834,19791 9948,20519 10062,20519 10176,20536 10290,20536 10404,20536 10519,20536 10633,20536 10747,20536 10861,20584 10975,20454 11089,20454 11203,20454 11317,20454 11431,20454 11545,20454 11660,20454 11774,20454 11887,20454 12001,20454 12115,20479 12229,20479 12343,20357 12457,20357 12571,20374 12685,20374 12800,20374 12914,20374 13028,20374 13142,20374 13256,20374 13370,20374 13484,20401 13598,20401 13712,20401 13826,20401 13941,20401 14055,20418 14169,20418 14283,20418 14397,20418 14511,20418 14625,20418 14739,20418 14853,20418 14967,20418 15082,20418 15196,20418 15310,20418 15424,20418 15538,20435 15652,20435 15766,20435 15880,20435 15994,20440 16108,20440 16223,20440 16337,20440 16451,20440 16565,20454 16679,20454 16793,20454 16907,20454 17021,20454 17135,20454 17249,20454 17364,20454 17478,20465 17592,20465 17706,20465 17820,20465 17934,20465 18048,20465 18162,20465 18276,20503 18390,20503"/>
 <path fill="none" stroke="rgb(0,0,255)" stroke-width="80" stroke-linejoin="round" d="M 3622,1798 L 3673,16286 3787,16286 3901,15236 4015,14186 4129,13556 4243,13136 4357,11877 4471,11457 4585,9777 4700,8937 4814,8307 4928,8727 5042,9023 5156,9672 5270,9740 5384,10218 5498,10572 5612,10434 5726,10573 5841,10983 5955,10826 6069,19828 6183,19905 6297,19819 6411,19837 6525,19803 6639,19814 6753,19854 6867,19789 6982,19884 7096,19813 7210,19835 7324,19841 7438,19815 7552,19800 7666,19818 7780,19808 7894,19838 8008,19851 8123,19829 8237,19815 8351,19845 8465,19830 8579,19843 8693,19761 8807,19771 8921,19717 9035,19726 9149,19736 9264,19742 9378,19750 9492,19730 9606,19741 9720,19743 9834,19749 9948,19759 10062,19768 10176,19768 10290,19782 10404,19792 10519,19794 10633,19804 10747,19814 10861,19823 10975,19825 11089,19833 11203,19835 11317,19836 11431,19837 11545,19842 11660,19848 11774,19851 11887,19856 12001,19857 12115,19859 12229,19860 12343,19864 12457,19867 12571,19872 12685,19876 12800,19878 12914,19878 13028,19883 13142,19885 13256,19885 13370,19892 13484,19892 13598,19906 13712,19907 13826,19910 13941,19917 14055,19920 14169,19920 14283,19920 14397,19920 14511,19948 14625,19948 14739,19948 14853,19969 14967,19969 15082,19943 15196,20009 15310,20017 15424,20051 15538,20069 15652,20106 15766,20106 15880,20106 15994,20185 16108,20193 16223,20223 16337,20234 16451,20265 16565,20265 16679,20265 16793,20358 16907,20352 17021,20382 17135,20414 17249,20490 17364,20450 17478,20429 17592,20542 17706,20558 17820,20592 17934,20623 18048,20659 18162,20641 18276,20641 18390,20736"/>
 <path fill="none" stroke="rgb(0,0,255)" stroke-width="80" stroke-linejoin="round" stroke-dasharray="158,158" d="M 3559,1798 L 3673,12297 3787,12297 3901,12297 3977,1798"/>
 <path fill="none" stroke="rgb(0,0,255)" stroke-width="80" stroke-linejoin="round" stroke-dasharray="158,158" d="M 4074,1798 L 4129,6643 4243,9672 4357,13666 4471,13666 4585,13666 4700,13666 4814,20833 4928,20937 5042,18624 5156,17766 5270,17396 5384,17373 5498,17294 5612,17358 5726,17098 5841,17620 5955,17327 6069,17768 6183,18171 6297,17999 6411,18106 6525,17831 6639,18023 6753,18187 6867,18468 6982,18651 7096,18725 7210,18713 7324,19253 7438,19351 7552,19409 7666,19779 7780,19825 7894,19894 8008,19949 8123,19912 8237,20121 8351,20246 8465,20289 8579,20241 8693,20268 8807,20315 8921,20329 9035,20407 9149,20434 9264,20455 9378,20499 9492,20536 9606,20546 9720,20572 9834,20580 9948,20588 10062,20598 10176,20627 10290,20643 10404,20646 10519,20653 10633,20657 10747,20659 10861,20664 10975,20664 11089,20679 11203,20690 11317,20699 11431,20702 11545,20709 11660,20709 11774,20710 11887,20710 12001,20710 12115,20734 12229,20750 12343,20758 12457,20764 12571,20764 12685,20764 12800,20764 12914,20765 13028,20765 13142,20771 13256,20775 13370,20775 13484,20783 13598,20787 13712,20787 13826,20790 13941,20790 14055,20790 14169,20790 14283,20790 14397,20790 14511,20800 14625,20800 14739,20805 14853,20810 14967,20826 15082,20826 15196,20826 15310,20826 15424,20845 15538,20854 15652,20865 15766,20865 15880,20874 15994,20884 16108,20884 16223,20906 16337,20906 16451,20931 16565,20931 16679,20931 16793,20976 16907,21007 17021,21025 17135,21040 17249,20999 17364,21048 17478,21048 17592,21052 17706,21076 17820,21082 17934,21126 18048,21032 18162,21047 18276,21049 18390,21051"/>
 <path fill="none" stroke="rgb(0,0,0)" stroke-width="80" stroke-linejoin="round" stroke-dasharray="158,158" d="M 4243,16233 L 4357,9672 4471,9672 4585,3110 4700,15637 4814,15637 4928,15637 5042,15637 5156,18954 5270,19334 5384,19614 5498,20126 5612,20296 5726,20696 5841,20887 5955,21251 6069,21383 6183,21109 6297,21306 6411,21327 6525,21409 6639,21557 6753,21599 6867,21699 6982,21687 7096,21724 7210,21743 7324,21493 7438,21506 7552,21524 7666,21543 7780,21566 7894,21583 8008,21586 8123,21586 8237,21351 8351,21373 8465,21420 8579,21396 8693,21408 8807,21414 8921,21426 9035,21441 9149,21449 9264,21452 9378,21464 9492,21472 9606,21497 9720,21497 9834,21299 9948,21329 10062,20957 10176,20996 10290,21026 10404,21036 10519,21090 10633,21114 10747,21155 10861,21175 10975,21210 11089,21210 11203,21210 11317,21213 11431,21213 11545,21221 11660,21221 11774,21223 11887,21228 12001,21228 12115,21241 12229,21246 12343,21246 12457,21254 12571,21261 12685,21261 12800,21264 12914,21266 13028,21281 13142,21288 13256,21300 13370,21307 13484,21310 13598,21317 13712,21319 13826,21335 13941,21339 14055,21342 14169,21344 14283,21346 14397,21346 14511,21348 14625,21351 14739,21355 14853,21359 14967,21359 15082,21364 15196,21364 15310,21364 15424,21366 15538,21366 15652,21368 15766,21368 15880,21368 15994,21372 16108,21372 16223,21375 16337,21375 16451,21375 16565,21375 16679,21375 16793,21375 16907,21375 17021,21375 17135,21375 17249,21375 17364,21375 17478,21377 17592,21377 17706,21377 17820,21381 17934,21385 18048,21396 18162,21396 18276,21414 18390,21422"/>
 <text class="TextShape" transform="rotate(-90 1403 24000)"><tspan class="TextParagraph" font-family="Liberation Sans, sans-serif" font-size="388px" font-weight="400"><tspan class="TextPosition" x="1403" y="24000"><tspan fill="rgb(0,0,0)" stroke="none">13.03</tspan></tspan></tspan></text>
 <text class="TextShape" transform="rotate(-90 2201 24000)"><tspan class="TextParagraph" font-family="Liberation Sans, sans-serif" font-size="388px" font-weight="400"><tspan class="TextPosition" x="2201" y="24000"><tspan fill="rgb(0,0,0)" stroke="none">20.03</tspan></tspan></tspan></text>
 <text class="TextShape" transform="rotate(-90 3000 24000)"><tspan class="TextParagraph" font-family="Liberation Sans, sans-serif" font-size="388px" font-weight="400"><tspan class="TextPosition" x="3000" y="24000"><tspan fill="rgb(0,0,0)" stroke="none">27.03</tspan></tspan></tspan></text>
 <text class="TextShape" transform="rotate(-90 3799 24000)"><tspan class="TextParagraph" font-family="Liberation Sans, sans-serif" font-size="388px" font-weight="400"><tspan class="TextPosition" x="3799" y="24000"><tspan fill="rgb(0,0,0)" stroke="none">03.04</tspan></tspan></tspan></text>
 <text class="TextShape" transform="rotate(-90 4597 24000)"><tspan class="TextParagraph" font-family="Liberation Sans, sans-serif" font-size="388px" font-weight="400"><tspan class="TextPosition" x="4597" y="24000"><tspan fill="rgb(0,0,0)" stroke="none">10.04</tspan></tspan></tspan></text>
 <text class="TextShape" transform="rotate(-90 5396 24000)"><tspan class="TextParagraph" font-family="Liberation Sans, sans-serif" font-size="388px" font-weight="400"><tspan class="TextPosition" x="5396" y="24000"><tspan fill="rgb(0,0,0)" stroke="none">17.04</tspan></tspan></tspan></text>
 <text class="TextShape" transform="rotate(-90 6195 24000)"><tspan class="TextParagraph" font-family="Liberation Sans, sans-serif" font-size="388px" font-weight="400"><tspan class="TextPosition" x="6195" y="24000"><tspan fill="rgb(0,0,0)" stroke="none">24.04</tspan></tspan></tspan></text>
 <text class="TextShape" transform="rotate(-90 6993 24000)"><tspan class="TextParagraph" font-family="Liberation Sans, sans-serif" font-size="388px" font-weight="400"><tspan class="TextPosition" x="6993" y="24000"><tspan fill="rgb(0,0,0)" stroke="none">01.05</tspan></tspan></tspan></text>
 <text class="TextShape" transform="rotate(-90 7792 24000)"><tspan class="TextParagraph" font-family="Liberation Sans, sans-serif" font-size="388px" font-weight="400"><tspan class="TextPosition" x="7792" y="24000"><tspan fill="rgb(0,0,0)" stroke="none">08.05</tspan></tspan></tspan></text>
 <text class="TextShape" transform="rotate(-90 8591 24000)"><tspan class="TextParagraph" font-family="Liberation Sans, sans-serif" font-size="388px" font-weight="400"><tspan class="TextPosition" x="8591" y="24000"><tspan fill="rgb(0,0,0)" stroke="none">15.05</tspan></tspan></tspan></text>
 <text class="TextShape" transform="rotate(-90 9390 24000)"><tspan class="TextParagraph" font-family="Liberation Sans, sans-serif" font-size="388px" font-weight="400"><tspan class="TextPosition" x="9390" y="24000"><tspan fill="rgb(0,0,0)" stroke="none">22.05</tspan></tspan></tspan></text>
 <text class="TextShape" transform="rotate(-90 10188 24000)"><tspan class="TextParagraph" font-family="Liberation Sans, sans-serif" font-size="388px" font-weight="400"><tspan class="TextPosition" x="10188" y="24000"><tspan fill="rgb(0,0,0)" stroke="none">29.05</tspan></tspan></tspan></text>
 <text class="TextShape" transform="rotate(-90 10987 24000)"><tspan class="TextParagraph" font-family="Liberation Sans, sans-serif" font-size="388px" font-weight="400"><tspan class="TextPosition" x="10987" y="24000"><tspan fill="rgb(0,0,0)" stroke="none">05.06</tspan></tspan></tspan></text>
 <text class="TextShape" transform="rotate(-90 11786 24000)"><tspan class="TextParagraph" font-family="Liberation Sans, sans-serif" font-size="388px" font-weight="400"><tspan class="TextPosition" x="11786" y="24000"><tspan fill="rgb(0,0,0)" stroke="none">12.06</tspan></tspan></tspan></text>
 <text class="TextShape" transform="rotate(-90 12583 24000)"><tspan class="TextParagraph" font-family="Liberation Sans, sans-serif" font-size="388px" font-weight="400"><tspan class="TextPosition" x="12583" y="24000"><tspan fill="rgb(0,0,0)" stroke="none">19.06</tspan></tspan></tspan></text>
 <text class="TextShape" transform="rotate(-90 13382 24000)"><tspan class="TextParagraph" font-family="Liberation Sans, sans-serif" font-size="388px" font-weight="400"><tspan class="TextPosition" x="13382" y="24000"><tspan fill="rgb(0,0,0)" stroke="none">26.06</tspan></tspan></tspan></text>
 <text class="TextShape" transform="rotate(-90 14181 24000)"><tspan class="TextParagraph" font-family="Liberation Sans, sans-serif" font-size="388px" font-weight="400"><tspan class="TextPosition" x="14181" y="24000"><tspan fill="rgb(0,0,0)" stroke="none">03.07</tspan></tspan></tspan></text>
 <text class="TextShape" transform="rotate(-90 14979 24000)"><tspan class="TextParagraph" font-family="Liberation Sans, sans-serif" font-size="388px" font-weight="400"><tspan class="TextPosition" x="14979" y="24000"><tspan fill="rgb(0,0,0)" stroke="none">10.07</tspan></tspan></tspan></text>
 <text class="TextShape" transform="rotate(-90 15778 24000)"><tspan class="TextParagraph" font-family="Liberation Sans, sans-serif" font-size="388px" font-weight="400"><tspan class="TextPosition" x="15778" y="24000"><tspan fill="rgb(0,0,0)" stroke="none">17.07</tspan></tspan></tspan></text>
 <text class="TextShape" transform="rotate(-90 16577 24000)"><tspan class="TextParagraph" font-family="Liberation Sans, sans-serif" font-size="388px" font-weight="400"><tspan class="TextPosition" x="16577" y="24000"><tspan fill="rgb(0,0,0)" stroke="none">24.07</tspan></tspan></tspan></text>
 <text class="TextShape" transform="rotate(-90 17375 24000)"><tspan class="TextParagraph" font-family="Liberation Sans, sans-serif" font-size="388px" font-weight="400"><tspan class="TextPosition" x="17375" y="24000"><tspan fill="rgb(0,0,0)" stroke="none">31.07</tspan></tspan></tspan></text>
 <text class="TextShape" transform="rotate(-90 18174 24000)"><tspan class="TextParagraph" font-family="Liberation Sans, sans-serif" font-size="388px" font-weight="400"><tspan class="TextPosition" x="18174" y="24000"><tspan fill="rgb(0,0,0)" stroke="none">07.08</tspan></tspan></tspan></text>
 <text class="TextShape"><tspan class="TextParagraph" font-family="Liberation Sans, sans-serif" font-size="388px" font-weight="400"><tspan class="TextPosition" x="420" y="22924"><tspan fill="rgb(0,0,0)" stroke="none">0%</tspan></tspan></tspan></text>
 <text class="TextShape"><tspan class="TextParagraph" font-family="Liberation Sans, sans-serif" font-size="388px" font-weight="400"><tspan class="TextPosition" x="420" y="20824"><tspan fill="rgb(0,0,0)" stroke="none">2%</tspan></tspan></tspan></text>
 <text class="TextShape"><tspan class="TextParagraph" font-family="Liberation Sans, sans-serif" font-size="388px" font-weight="400"><tspan class="TextPosition" x="420" y="18724"><tspan fill="rgb(0,0,0)" stroke="none">4%</tspan></tspan></tspan></text>
 <text class="TextShape"><tspan class="TextParagraph" font-family="Liberation Sans, sans-serif" font-size="388px" font-weight="400"><tspan class="TextPosition" x="420" y="16624"><tspan fill="rgb(0,0,0)" stroke="none">6%</tspan></tspan></tspan></text>
 <text class="TextShape"><tspan class="TextParagraph" font-family="Liberation Sans, sans-serif" font-size="388px" font-weight="400"><tspan class="TextPosition" x="420" y="14524"><tspan fill="rgb(0,0,0)" stroke="none">8%</tspan></tspan></tspan></text>
 <text class="TextShape"><tspan class="TextParagraph" font-family="Liberation Sans, sans-serif" font-size="388px" font-weight="400"><tspan class="TextPosition" x="208" y="12424"><tspan fill="rgb(0,0,0)" stroke="none">10%</tspan></tspan></tspan></text>
 <text class="TextShape"><tspan class="TextParagraph" font-family="Liberation Sans, sans-serif" font-size="388px" font-weight="400"><tspan class="TextPosition" x="208" y="10324"><tspan fill="rgb(0,0,0)" stroke="none">12%</tspan></tspan></tspan></text>
 <text class="TextShape"><tspan class="TextParagraph" font-family="Liberation Sans, sans-serif" font-size="388px" font-weight="400"><tspan class="TextPosition" x="208" y="8224"><tspan fill="rgb(0,0,0)" stroke="none">14%</tspan></tspan></tspan></text>
 <text class="TextShape"><tspan class="TextParagraph" font-family="Liberation Sans, sans-serif" font-size="388px" font-weight="400"><tspan class="TextPosition" x="208" y="6124"><tspan fill="rgb(0,0,0)" stroke="none">16%</tspan></tspan></tspan></text>
 <text class="TextShape"><tspan class="TextParagraph" font-family="Liberation Sans, sans-serif" font-size="388px" font-weight="400"><tspan class="TextPosition" x="208" y="4024"><tspan fill="rgb(0,0,0)" stroke="none">18%</tspan></tspan></tspan></text>
 <text class="TextShape"><tspan class="TextParagraph" font-family="Liberation Sans, sans-serif" font-size="388px" font-weight="400"><tspan class="TextPosition" x="208" y="1925"><tspan fill="rgb(0,0,0)" stroke="none">20%</tspan></tspan></tspan></text>
 <text class="TextShape"><tspan class="TextParagraph" font-family="Liberation Sans, sans-serif" font-size="494px" font-weight="700"><tspan class="TextPosition" x="828" y="990"><tspan fill="rgb(0,0,0)" stroke="none">EU - pomr potu obt k potu vylench (mtko do 20 %)</tspan></tspan></tspan></text>
 <path fill="none" stroke="rgb(255,128,0)" stroke-width="80" stroke-linejoin="round" stroke-dasharray="80,40" d="M 18768,2162 L 20368,2162"/>
 <path fill="none" stroke="rgb(0,0,255)" stroke-width="80" stroke-linejoin="round" stroke-dasharray="80,40" d="M 18768,3017 L 20368,3017"/>
 <path fill="none" stroke="rgb(131,202,255)" stroke-width="80" stroke-linejoin="round" d="M 18768,3872 L 20368,3872"/>
 <path fill="none" stroke="rgb(255,128,0)" stroke-width="80" stroke-linejoin="round" stroke-dasharray="158,158" d="M 18768,4727 L 20368,4727"/>
 <path fill="none" stroke="rgb(180,120,4)" stroke-width="80" stroke-linejoin="round" stroke-dasharray="80,40" d="M 18768,5582 L 20368,5582"/>
 <path fill="none" stroke="rgb(255,0,0)" stroke-width="80" stroke-linejoin="round" stroke-dasharray="158,158" d="M 18768,6437 L 20368,6437"/>
 <path fill="none" stroke="rgb(129,212,26)" stroke-width="80" stroke-linejoin="round" stroke-dasharray="80,40" d="M 18768,7292 L 20368,7292"/>
 <path fill="none" stroke="rgb(131,202,255)" stroke-width="80" stroke-linejoin="round" stroke-dasharray="158,158" d="M 18768,8147 L 20368,8147"/>
 <path fill="none" stroke="rgb(191,0,65)" stroke-width="80" stroke-linejoin="round" stroke-dasharray="51,127,51,127,254,127,254,127,254,127" d="M 18768,9002 L 20368,9002"/>
 <path fill="none" stroke="rgb(0,169,51)" stroke-width="80" stroke-linejoin="round" stroke-dasharray="158,158" d="M 18768,9857 L 20368,9857"/>
 <path fill="none" stroke="rgb(0,169,51)" stroke-width="80" stroke-linejoin="round" stroke-dasharray="80,40" d="M 18768,10712 L 20368,10712"/>
 <path fill="none" stroke="rgb(128,0,128)" stroke-width="80" stroke-linejoin="round" stroke-dasharray="80,40" d="M 18768,11567 L 20368,11567"/>
 <path fill="none" stroke="rgb(128,0,128)" stroke-width="80" stroke-linejoin="round" stroke-dasharray="158,158" d="M 18768,12422 L 20368,12422"/>
 <path fill="none" stroke="rgb(180,120,4)" stroke-width="80" stroke-linejoin="round" d="M 18768,13276 L 20368,13276"/>
 <path fill="none" stroke="rgb(52,42,6)" stroke-width="80" stroke-linejoin="round" d="M 18768,14131 L 20368,14131"/>
 <path fill="none" stroke="rgb(129,212,26)" stroke-width="80" stroke-linejoin="round" stroke-dasharray="158,158" d="M 18768,14986 L 20368,14986"/>
 <path fill="none" stroke="rgb(0,169,51)" stroke-width="80" stroke-linejoin="round" d="M 18768,15841 L 20368,15841"/>
 <path fill="none" stroke="rgb(255,191,0)" stroke-width="80" stroke-linejoin="round" d="M 18768,16696 L 20368,16696"/>
 <path fill="none" stroke="rgb(85,48,141)" stroke-width="80" stroke-linejoin="round" stroke-dasharray="80,40" d="M 18768,17551 L 20368,17551"/>
 <path fill="none" stroke="rgb(131,202,255)" stroke-width="80" stroke-linejoin="round" stroke-dasharray="80,40" d="M 18768,18406 L 20368,18406"/>
 <path fill="none" stroke="rgb(255,191,0)" stroke-width="80" stroke-linejoin="round" stroke-dasharray="158,158" d="M 18768,19261 L 20368,19261"/>
 <path fill="none" stroke="rgb(241,13,12)" stroke-width="80" stroke-linejoin="round" stroke-dasharray="80,40" d="M 18768,20116 L 20368,20116"/>
 <path fill="none" stroke="rgb(0,0,255)" stroke-width="80" stroke-linejoin="round" d="M 18768,20971 L 20368,20971"/>
 <path fill="none" stroke="rgb(0,0,255)" stroke-width="80" stroke-linejoin="round" stroke-dasharray="158,158" d="M 18768,21826 L 20368,21826"/>
 <path fill="none" stroke="rgb(0,0,0)" stroke-width="80" stroke-linejoin="round" stroke-dasharray="158,158" d="M 18768,22681 L 20368,22681"/>
 <text class="TextShape"><tspan class="TextParagraph" font-family="Liberation Sans, sans-serif" font-size="423px" font-weight="400"><tspan class="TextPosition" x="20468" y="2310"><tspan fill="rgb(0,0,0)" stroke="none">Belgie</tspan></tspan></tspan></text>
 <text class="TextShape"><tspan class="TextParagraph" font-family="Liberation Sans, sans-serif" font-size="423px" font-weight="400"><tspan class="TextPosition" x="20468" y="3165"><tspan fill="rgb(0,0,0)" stroke="none">Francie</tspan></tspan></tspan></text>
 <text class="TextShape"><tspan class="TextParagraph" font-family="Liberation Sans, sans-serif" font-size="423px" font-weight="400"><tspan class="TextPosition" x="20468" y="4020"><tspan fill="rgb(0,0,0)" stroke="none">Itlie</tspan></tspan></tspan></text>
 <text class="TextShape"><tspan class="TextParagraph" font-family="Liberation Sans, sans-serif" font-size="423px" font-weight="400"><tspan class="TextPosition" x="20468" y="4875"><tspan fill="rgb(0,0,0)" stroke="none">Maarsko</tspan></tspan></tspan></text>
 <text class="TextShape"><tspan class="TextParagraph" font-family="Liberation Sans, sans-serif" font-size="423px" font-weight="400"><tspan class="TextPosition" x="20468" y="5730"><tspan fill="rgb(0,0,0)" stroke="none">ecko</tspan></tspan></tspan></text>
 <text class="TextShape"><tspan class="TextParagraph" font-family="Liberation Sans, sans-serif" font-size="423px" font-weight="400"><tspan class="TextPosition" x="20468" y="6585"><tspan fill="rgb(0,0,0)" stroke="none">Rumunsko</tspan></tspan></tspan></text>
 <text class="TextShape"><tspan class="TextParagraph" font-family="Liberation Sans, sans-serif" font-size="423px" font-weight="400"><tspan class="TextPosition" x="20468" y="7440"><tspan fill="rgb(0,0,0)" stroke="none">Irsko</tspan></tspan></tspan></text>
 <text class="TextShape"><tspan class="TextParagraph" font-family="Liberation Sans, sans-serif" font-size="423px" font-weight="400"><tspan class="TextPosition" x="20468" y="8295"><tspan fill="rgb(0,0,0)" stroke="none">Slovinsko</tspan></tspan></tspan></text>
 <text class="TextShape"><tspan class="TextParagraph" font-family="Liberation Sans, sans-serif" font-size="423px" font-weight="400"><tspan class="TextPosition" x="20468" y="9150"><tspan fill="rgb(0,0,0)" stroke="none">EU_nov zem</tspan></tspan></tspan></text>
 <text class="TextShape"><tspan class="TextParagraph" font-family="Liberation Sans, sans-serif" font-size="423px" font-weight="400"><tspan class="TextPosition" x="20468" y="10005"><tspan fill="rgb(0,0,0)" stroke="none">Bulharsko</tspan></tspan></tspan></text>
 <text class="TextShape"><tspan class="TextParagraph" font-family="Liberation Sans, sans-serif" font-size="423px" font-weight="400"><tspan class="TextPosition" x="20468" y="10860"><tspan fill="rgb(0,0,0)" stroke="none">Polsko</tspan></tspan></tspan></text>
 <text class="TextShape"><tspan class="TextParagraph" font-family="Liberation Sans, sans-serif" font-size="423px" font-weight="400"><tspan class="TextPosition" x="20468" y="11715"><tspan fill="rgb(0,0,0)" stroke="none">Litva</tspan></tspan></tspan></text>
 <text class="TextShape"><tspan class="TextParagraph" font-family="Liberation Sans, sans-serif" font-size="423px" font-weight="400"><tspan class="TextPosition" x="20468" y="12569"><tspan fill="rgb(0,0,0)" stroke="none">Portugalsko</tspan></tspan></tspan></text>
 <text class="TextShape"><tspan class="TextParagraph" font-family="Liberation Sans, sans-serif" font-size="423px" font-weight="400"><tspan class="TextPosition" x="20468" y="13424"><tspan fill="rgb(0,0,0)" stroke="none">Dnsko</tspan></tspan></tspan></text>
 <text class="TextShape"><tspan class="TextParagraph" font-family="Liberation Sans, sans-serif" font-size="423px" font-weight="400"><tspan class="TextPosition" x="20468" y="14279"><tspan fill="rgb(0,0,0)" stroke="none">Nmecko</tspan></tspan></tspan></text>
 <text class="TextShape"><tspan class="TextParagraph" font-family="Liberation Sans, sans-serif" font-size="423px" font-weight="400"><tspan class="TextPosition" x="20468" y="15134"><tspan fill="rgb(0,0,0)" stroke="none">Finsko</tspan></tspan></tspan></text>
 <text class="TextShape"><tspan class="TextParagraph" font-family="Liberation Sans, sans-serif" font-size="423px" font-weight="400"><tspan class="TextPosition" x="20468" y="15989"><tspan fill="rgb(0,0,0)" stroke="none">Rakousko</tspan></tspan></tspan></text>
 <text class="TextShape"><tspan class="TextParagraph" font-family="Liberation Sans, sans-serif" font-size="423px" font-weight="400"><tspan class="TextPosition" x="20468" y="16844"><tspan fill="rgb(0,0,0)" stroke="none">esko</tspan></tspan></tspan></text>
 <text class="TextShape"><tspan class="TextParagraph" font-family="Liberation Sans, sans-serif" font-size="423px" font-weight="400"><tspan class="TextPosition" x="20468" y="17699"><tspan fill="rgb(0,0,0)" stroke="none">Estonsko</tspan></tspan></tspan></text>
 <text class="TextShape"><tspan class="TextParagraph" font-family="Liberation Sans, sans-serif" font-size="423px" font-weight="400"><tspan class="TextPosition" x="20468" y="18554"><tspan fill="rgb(0,0,0)" stroke="none">Chorvatsko</tspan></tspan></tspan></text>
 <text class="TextShape"><tspan class="TextParagraph" font-family="Liberation Sans, sans-serif" font-size="423px" font-weight="400"><tspan class="TextPosition" x="20468" y="19409"><tspan fill="rgb(0,0,0)" stroke="none">Lotysko</tspan></tspan></tspan></text>
 <text class="TextShape"><tspan class="TextParagraph" font-family="Liberation Sans, sans-serif" font-size="423px" font-weight="400"><tspan class="TextPosition" x="20468" y="20264"><tspan fill="rgb(0,0,0)" stroke="none">Kypr</tspan></tspan></tspan></text>
 <text class="TextShape"><tspan class="TextParagraph" font-family="Liberation Sans, sans-serif" font-size="423px" font-weight="400"><tspan class="TextPosition" x="20468" y="21119"><tspan fill="rgb(0,0,0)" stroke="none">Luxembursko</tspan></tspan></tspan></text>
 <text class="TextShape"><tspan class="TextParagraph" font-family="Liberation Sans, sans-serif" font-size="423px" font-weight="400"><tspan class="TextPosition" x="20468" y="21974"><tspan fill="rgb(0,0,0)" stroke="none">Slovensko</tspan></tspan></tspan></text>
 <text class="TextShape"><tspan class="TextParagraph" font-family="Liberation Sans, sans-serif" font-size="423px" font-weight="400"><tspan class="TextPosition" x="20468" y="22829"><tspan fill="rgb(0,0,0)" stroke="none">Malta</tspan></tspan></tspan></text>
</svg>