<?xml version="1.0" encoding="UTF-8"?>
<!DOCTYPE svg PUBLIC "-//W3C//DTD SVG 1.1//EN" "http://www.w3.org/Graphics/SVG/1.1/DTD/svg11.dtd">
<svg width="236mm" height="250mm" viewBox="0 0 23600 25000" version="1.1" xmlns="http://www.w3.org/2000/svg" xmlns:xlink="http://www.w3.org/1999/xlink" stroke-width="28.222" stroke-linejoin="round" xml:space="preserve">
 <path fill="rgb(255,255,255)" stroke="none" d="M 11800,25000 L 0,25000 0,0 23600,0 23600,25000 11800,25000 Z"/>
 <path fill="none" stroke="rgb(179,179,179)" stroke-linejoin="round" d="M 9834,22797 L 1220,22797 1220,1799 18448,1799 18448,22797 9834,22797 Z"/>
 <path fill="none" stroke="rgb(179,179,179)" stroke-linejoin="round" d="M 18448,22796 L 1220,22796"/>
 <path fill="none" stroke="rgb(179,179,179)" stroke-linejoin="round" d="M 18448,19796 L 1220,19796"/>
 <path fill="none" stroke="rgb(179,179,179)" stroke-linejoin="round" d="M 18448,16796 L 1220,16796"/>
 <path fill="none" stroke="rgb(179,179,179)" stroke-linejoin="round" d="M 18448,13796 L 1220,13796"/>
 <path fill="none" stroke="rgb(179,179,179)" stroke-linejoin="round" d="M 18448,10797 L 1220,10797"/>
 <path fill="none" stroke="rgb(179,179,179)" stroke-linejoin="round" d="M 18448,7797 L 1220,7797"/>
 <path fill="none" stroke="rgb(179,179,179)" stroke-linejoin="round" d="M 18448,4797 L 1220,4797"/>
 <path fill="none" stroke="rgb(179,179,179)" stroke-linejoin="round" d="M 18448,1798 L 1220,1798"/>
 <path fill="none" stroke="rgb(179,179,179)" stroke-linejoin="round" d="M 1220,22946 L 1220,22796"/>
 <path fill="none" stroke="rgb(179,179,179)" stroke-linejoin="round" d="M 1220,22946 L 1220,22796"/>
 <path fill="none" stroke="rgb(179,179,179)" stroke-linejoin="round" d="M 2003,22946 L 2003,22796"/>
 <path fill="none" stroke="rgb(179,179,179)" stroke-linejoin="round" d="M 2003,22946 L 2003,22796"/>
 <path fill="none" stroke="rgb(179,179,179)" stroke-linejoin="round" d="M 2786,22946 L 2786,22796"/>
 <path fill="none" stroke="rgb(179,179,179)" stroke-linejoin="round" d="M 2786,22946 L 2786,22796"/>
 <path fill="none" stroke="rgb(179,179,179)" stroke-linejoin="round" d="M 3569,22946 L 3569,22796"/>
 <path fill="none" stroke="rgb(179,179,179)" stroke-linejoin="round" d="M 3569,22946 L 3569,22796"/>
 <path fill="none" stroke="rgb(179,179,179)" stroke-linejoin="round" d="M 4352,22946 L 4352,22796"/>
 <path fill="none" stroke="rgb(179,179,179)" stroke-linejoin="round" d="M 4352,22946 L 4352,22796"/>
 <path fill="none" stroke="rgb(179,179,179)" stroke-linejoin="round" d="M 5135,22946 L 5135,22796"/>
 <path fill="none" stroke="rgb(179,179,179)" stroke-linejoin="round" d="M 5135,22946 L 5135,22796"/>
 <path fill="none" stroke="rgb(179,179,179)" stroke-linejoin="round" d="M 5918,22946 L 5918,22796"/>
 <path fill="none" stroke="rgb(179,179,179)" stroke-linejoin="round" d="M 5918,22946 L 5918,22796"/>
 <path fill="none" stroke="rgb(179,179,179)" stroke-linejoin="round" d="M 6701,22946 L 6701,22796"/>
 <path fill="none" stroke="rgb(179,179,179)" stroke-linejoin="round" d="M 6701,22946 L 6701,22796"/>
 <path fill="none" stroke="rgb(179,179,179)" stroke-linejoin="round" d="M 7485,22946 L 7485,22796"/>
 <path fill="none" stroke="rgb(179,179,179)" stroke-linejoin="round" d="M 7485,22946 L 7485,22796"/>
 <path fill="none" stroke="rgb(179,179,179)" stroke-linejoin="round" d="M 8268,22946 L 8268,22796"/>
 <path fill="none" stroke="rgb(179,179,179)" stroke-linejoin="round" d="M 8268,22946 L 8268,22796"/>
 <path fill="none" stroke="rgb(179,179,179)" stroke-linejoin="round" d="M 9051,22946 L 9051,22796"/>
 <path fill="none" stroke="rgb(179,179,179)" stroke-linejoin="round" d="M 9051,22946 L 9051,22796"/>
 <path fill="none" stroke="rgb(179,179,179)" stroke-linejoin="round" d="M 9834,22946 L 9834,22796"/>
 <path fill="none" stroke="rgb(179,179,179)" stroke-linejoin="round" d="M 9834,22946 L 9834,22796"/>
 <path fill="none" stroke="rgb(179,179,179)" stroke-linejoin="round" d="M 10617,22946 L 10617,22796"/>
 <path fill="none" stroke="rgb(179,179,179)" stroke-linejoin="round" d="M 10617,22946 L 10617,22796"/>
 <path fill="none" stroke="rgb(179,179,179)" stroke-linejoin="round" d="M 11400,22946 L 11400,22796"/>
 <path fill="none" stroke="rgb(179,179,179)" stroke-linejoin="round" d="M 11400,22946 L 11400,22796"/>
 <path fill="none" stroke="rgb(179,179,179)" stroke-linejoin="round" d="M 12182,22946 L 12182,22796"/>
 <path fill="none" stroke="rgb(179,179,179)" stroke-linejoin="round" d="M 12182,22946 L 12182,22796"/>
 <path fill="none" stroke="rgb(179,179,179)" stroke-linejoin="round" d="M 12966,22946 L 12966,22796"/>
 <path fill="none" stroke="rgb(179,179,179)" stroke-linejoin="round" d="M 12966,22946 L 12966,22796"/>
 <path fill="none" stroke="rgb(179,179,179)" stroke-linejoin="round" d="M 13749,22946 L 13749,22796"/>
 <path fill="none" stroke="rgb(179,179,179)" stroke-linejoin="round" d="M 13749,22946 L 13749,22796"/>
 <path fill="none" stroke="rgb(179,179,179)" stroke-linejoin="round" d="M 14532,22946 L 14532,22796"/>
 <path fill="none" stroke="rgb(179,179,179)" stroke-linejoin="round" d="M 14532,22946 L 14532,22796"/>
 <path fill="none" stroke="rgb(179,179,179)" stroke-linejoin="round" d="M 15315,22946 L 15315,22796"/>
 <path fill="none" stroke="rgb(179,179,179)" stroke-linejoin="round" d="M 15315,22946 L 15315,22796"/>
 <path fill="none" stroke="rgb(179,179,179)" stroke-linejoin="round" d="M 16098,22946 L 16098,22796"/>
 <path fill="none" stroke="rgb(179,179,179)" stroke-linejoin="round" d="M 16098,22946 L 16098,22796"/>
 <path fill="none" stroke="rgb(179,179,179)" stroke-linejoin="round" d="M 16881,22946 L 16881,22796"/>
 <path fill="none" stroke="rgb(179,179,179)" stroke-linejoin="round" d="M 16881,22946 L 16881,22796"/>
 <path fill="none" stroke="rgb(179,179,179)" stroke-linejoin="round" d="M 17664,22946 L 17664,22796"/>
 <path fill="none" stroke="rgb(179,179,179)" stroke-linejoin="round" d="M 17664,22946 L 17664,22796"/>
 <path fill="none" stroke="rgb(179,179,179)" stroke-linejoin="round" d="M 18448,22946 L 18448,22796"/>
 <path fill="none" stroke="rgb(179,179,179)" stroke-linejoin="round" d="M 18448,22946 L 18448,22796"/>
 <path fill="none" stroke="rgb(179,179,179)" stroke-linejoin="round" d="M 1220,22796 L 18448,22796"/>
 <path fill="none" stroke="rgb(179,179,179)" stroke-linejoin="round" d="M 1070,22796 L 1220,22796"/>
 <path fill="none" stroke="rgb(179,179,179)" stroke-linejoin="round" d="M 1070,22796 L 1220,22796"/>
 <path fill="none" stroke="rgb(179,179,179)" stroke-linejoin="round" d="M 1070,19796 L 1220,19796"/>
 <path fill="none" stroke="rgb(179,179,179)" stroke-linejoin="round" d="M 1070,19796 L 1220,19796"/>
 <path fill="none" stroke="rgb(179,179,179)" stroke-linejoin="round" d="M 1070,16796 L 1220,16796"/>
 <path fill="none" stroke="rgb(179,179,179)" stroke-linejoin="round" d="M 1070,16796 L 1220,16796"/>
 <path fill="none" stroke="rgb(179,179,179)" stroke-linejoin="round" d="M 1070,13796 L 1220,13796"/>
 <path fill="none" stroke="rgb(179,179,179)" stroke-linejoin="round" d="M 1070,13796 L 1220,13796"/>
 <path fill="none" stroke="rgb(179,179,179)" stroke-linejoin="round" d="M 1070,10797 L 1220,10797"/>
 <path fill="none" stroke="rgb(179,179,179)" stroke-linejoin="round" d="M 1070,10797 L 1220,10797"/>
 <path fill="none" stroke="rgb(179,179,179)" stroke-linejoin="round" d="M 1070,7797 L 1220,7797"/>
 <path fill="none" stroke="rgb(179,179,179)" stroke-linejoin="round" d="M 1070,7797 L 1220,7797"/>
 <path fill="none" stroke="rgb(179,179,179)" stroke-linejoin="round" d="M 1070,4797 L 1220,4797"/>
 <path fill="none" stroke="rgb(179,179,179)" stroke-linejoin="round" d="M 1070,4797 L 1220,4797"/>
 <path fill="none" stroke="rgb(179,179,179)" stroke-linejoin="round" d="M 1070,1798 L 1220,1798"/>
 <path fill="none" stroke="rgb(179,179,179)" stroke-linejoin="round" d="M 1070,1798 L 1220,1798"/>
 <path fill="none" stroke="rgb(179,179,179)" stroke-linejoin="round" d="M 1220,22796 L 1220,1798"/>
 <path fill="none" stroke="rgb(255,128,0)" stroke-width="80" stroke-linejoin="round" stroke-dasharray="80,40" d="M 1832,1798 L 1835,9249 1947,2475 1947,1798"/>
 <path fill="none" stroke="rgb(255,128,0)" stroke-width="80" stroke-linejoin="round" stroke-dasharray="80,40" d="M 2169,1798 L 2170,15153 2282,14241 2394,12758 2506,14857 2618,13034 2730,13018 2842,12691 2954,12834 3065,13282 3177,12717 3289,10327 3401,11146 3513,10641 3625,10858 3737,10943 3849,11224 3960,10514 4072,8111 4184,8441 4296,8140 4408,6531 4520,6028 4632,6087 4744,5339 4855,4639 4967,4055 5079,3529 5191,3341 5303,3201 5415,3328 5527,3141 5639,2809 5751,2882 5862,2930 5974,3002 6086,2877 6198,3064 6310,2922 6422,2700 6534,2853 6646,3117 6757,3365 6869,3720 6981,3680 7093,3592 7205,3468 7317,3147 7429,3348 7541,3433 7652,3602 7764,3762 7876,3727 7988,3657 8100,3762 8212,3870 8324,4004 8436,4115 8547,4236 8659,4212 8771,4193 8883,4309 8995,4411 9107,4523 9219,4512 9331,4568 9442,4535 9554,4519 9666,4632 9778,4711 9890,4758 10002,4813 10114,4920 10226,4921 10337,4902 10449,4898 10561,4948 10673,4986 10785,5046 10897,5128 11009,5134 11121,5120 11232,5175 11344,5227 11456,5257 11568,5302 11680,5337 11792,5348 11903,5360 12015,5400 12126,5428 12238,5434 12350,5453 12462,5453 12574,5453 12686,5423 12798,5407 12910,5522 13021,5542 13133,5563 13245,5563 13357,5563 13469,5581 13581,5606 13693,5616 13805,5639 13916,5646 14028,5646 14140,5641 14252,5672 14364,5684 14476,5702 14588,5717 14700,5732 14812,5732 14923,5732 15035,5750 15147,5767 15259,5765 15371,5792 15483,5792 15595,5792 15707,5815 15818,5824 15930,5835 16042,5850 16154,5866 16266,5889 16378,5901 16490,5913 16602,5918 16713,5927 16825,5941 16937,5971 17049,5990 17161,6007 17273,6006 17385,6041 17497,6050 17608,6084 17720,6102 17832,6131 17944,6140 18056,6140 18168,6175 18280,6189 18392,6190"/>
 <path fill="none" stroke="rgb(0,0,255)" stroke-width="80" stroke-linejoin="round" stroke-dasharray="80,40" d="M 2281,1798 L 2282,13603 2394,11074 2506,12624 2618,12561 2730,12515 2842,12299 2954,10653 3065,11957 3177,11383 3289,11659 3401,10817 3513,9891 3625,8959 3737,8206 3849,7947 3960,7432 4072,6904 4184,7572 4296,7129 4408,7062 4520,7213 4632,7057 4744,6741 4855,6414 4967,6158 5079,6411 5191,6513 5303,6685 5415,6624 5527,6544 5639,6873 5751,7049 5862,7217 5974,7451 6086,7582 6198,7525 6310,7442 6422,7656 6534,7812 6646,8015 6757,8101 6869,8134 6981,8117 7093,8108 7205,8299 7317,8478 7429,8670 7541,8717 7652,8738 7764,8745 7876,8732 7988,8810 8100,8979 8212,9019 8324,9159 8436,9159 8547,9046 8659,9097 8771,9383 8883,9499 8995,9565 9107,9603 9219,9652 9331,9650 9442,9725 9554,9827 9666,9934 9778,10021 9890,10113 10002,10174 10114,10177 10226,10179 10337,10200 10449,10282 10561,10356 10673,10430 10785,10469 10897,10470 11009,10486 11121,10525 11232,10571 11344,10614 11456,10674 11568,10703 11680,10708 11792,10727 11903,10729 12015,10772 12126,10796 12238,10828 12350,10853 12462,10860 12574,10889 12686,10907 12798,10943 12910,10970 13021,11006 13133,11006 13245,11006 13357,11047 13469,11077 13581,11112 13693,11145 13805,11177 13916,11177 14028,11177 14140,11206 14252,11251 14364,11251 14476,11309 14588,11331 14700,11331 14812,11331 14923,11352 15035,11352 15147,11350 15259,11374 15371,11399 15483,11399 15595,11399 15707,11432 15818,11464 15930,11493 16042,11562 16154,11606 16266,11606 16378,11606 16490,11637 16602,11663 16713,11663 16825,11683 16937,11691 17049,11691 17161,11691 17273,11691 17385,11681 17497,11753 17608,11788 17720,11831 17832,11831 17944,11832 18056,11832 18168,11831 18280,11898 18392,11892"/>
 <path fill="none" stroke="rgb(131,202,255)" stroke-width="80" stroke-linejoin="round" d="M 4079,1798 L 4184,2788 4296,3536 4408,4230 4520,4846 4632,5348 4744,5471 4855,5776 4967,5750 5079,6238 5191,6827 5303,7287 5415,7713 5527,7996 5639,8467 5751,9000 5862,9485 5974,9919 6086,10257 6198,10486 6310,10650 6422,10892 6534,11142 6646,11749 6757,11972 6869,12019 6981,12185 7093,12271 7205,12479 7317,13246 7429,13461 7541,13646 7652,13946 7764,14080 7876,14144 7988,14291 8100,14504 8212,14633 8324,14907 8436,15037 8547,15149 8659,15255 8771,15338 8883,15464 8995,15553 9107,15639 9219,15723 9331,15794 9442,15849 9554,15961 9666,16051 9778,16194 9890,16274 10002,16369 10114,16431 10226,16454 10337,16513 10449,16532 10561,16553 10673,16609 10785,16645 10897,16663 11009,16679 11121,16740 11232,16774 11344,16813 11456,16864 11568,16911 11680,16954 11792,16971 11903,17014 12015,17037 12126,17061 12238,17096 12350,17105 12462,17115 12574,17127 12686,17160 12798,17211 12910,17224 13021,17246 13133,17273 13245,17279 13357,17287 13469,17313 13581,17324 13693,17329 13805,17338 13916,17348 14028,17352 14140,17354 14252,17366 14364,17387 14476,17394 14588,17401 14700,17408 14812,17416 14923,17419 15035,17426 15147,17440 15259,17443 15371,17448 15483,17454 15595,17458 15707,17461 15818,17466 15930,17470 16042,17475 16154,17483 16266,17486 16378,17488 16490,17492 16602,17494 16713,17501 16825,17521 16937,17524 17049,17530 17161,17535 17273,17536 17385,17540 17497,17544 17608,17552 17720,17560 17832,17566 17944,17570 18056,17573 18168,17578 18280,17582 18392,17587"/>
 <path fill="none" stroke="rgb(255,128,0)" stroke-width="80" stroke-linejoin="round" stroke-dasharray="158,158" d="M 1678,1798 L 1723,7797 1835,7797 1947,7797 1969,1798"/>
 <path fill="none" stroke="rgb(255,128,0)" stroke-width="80" stroke-linejoin="round" stroke-dasharray="158,158" d="M 2155,1798 L 2170,5654 2282,11547 2394,9672 2506,9940 2618,8511 2730,12083 2842,13972 2954,13090 3065,11326 3177,9562 3289,9824 3401,7797 3513,7797 3625,4658 3737,6246 3849,7343 3960,5782 4072,2938 4184,4287 4296,2172 4408,2172 4435,1798"/>
 <path fill="none" stroke="rgb(255,128,0)" stroke-width="80" stroke-linejoin="round" stroke-dasharray="158,158" d="M 4967,1798 L 4967,1860 4982,1798"/>
 <path fill="none" stroke="rgb(255,128,0)" stroke-width="80" stroke-linejoin="round" stroke-dasharray="158,158" d="M 5797,1798 L 5862,4413 5974,5636 6086,5636 6198,5973 6310,5930 6422,5879 6534,6006 6646,6687 6757,6886 6869,6717 6981,6581 7093,6083 7205,7438 7317,8054 7429,8453 7541,9202 7652,9357 7764,9517 7876,9613 7988,10136 8100,11091 8212,11608 8324,12494 8436,12993 8547,13104 8659,12896 8771,12874 8883,13099 8995,13392 9107,13798 9219,14059 9331,14169 9442,14187 9554,14642 9666,14633 9778,15146 9890,15133 10002,15457 10114,15446 10226,15463 10337,15407 10449,15481 10561,15463 10673,15553 10785,15622 10897,15608 11009,15598 11121,15696 11232,15777 11344,15857 11456,15992 11568,16023 11680,16003 11792,15999 11903,16059 12015,16117 12126,16150 12238,16194 12350,16181 12462,16191 12574,16170 12686,16184 12798,16195 12910,16239 13021,16284 13133,16328 13245,16304 13357,16259 13469,16276 13581,16318 13693,16324 13805,16386 13916,16449 14028,16510 14140,16617 14252,16648 14364,16671 14476,16654 14588,16747 14700,16794 14812,16916 14923,16987 15035,17049 15147,17086 15259,17140 15371,17252 15483,17246 15595,17248 15707,17264 15818,17306 15930,17350 16042,17378 16154,17397 16266,17417 16378,17425 16490,17425 16602,17428 16713,17441 16825,17452 16937,17463 17049,17472 17161,17511 17273,17548 17385,17542 17497,17558 17608,17598 17720,17582 17832,17622 17944,17634 18056,17647 18168,17650 18280,17653 18392,17682"/>
 <path fill="none" stroke="rgb(180,120,4)" stroke-width="80" stroke-linejoin="round" stroke-dasharray="80,40" d="M 1387,11547 L 1499,7797 1611,7797 1723,4047 1835,4047 1902,1798"/>
 <path fill="none" stroke="rgb(180,120,4)" stroke-width="80" stroke-linejoin="round" stroke-dasharray="80,40" d="M 1960,1798 L 2059,13322 2170,2271 2187,1798"/>
 <path fill="none" stroke="rgb(180,120,4)" stroke-width="80" stroke-linejoin="round" stroke-dasharray="80,40" d="M 2500,1798 L 2506,2108 2618,4464 2707,1798"/>
 <path fill="none" stroke="rgb(180,120,4)" stroke-width="80" stroke-linejoin="round" stroke-dasharray="80,40" d="M 2743,1798 L 2842,6643 2954,4336 3036,1798"/>
 <path fill="none" stroke="rgb(180,120,4)" stroke-width="80" stroke-linejoin="round" stroke-dasharray="80,40" d="M 3890,1798 L 3960,13986 4072,13762 4184,13539 4296,13093 4408,12536 4520,12425 4632,11868 4744,11756 4855,11533 4967,11422 5079,11087 5191,10752 5303,10529 5415,10195 5527,9860 5639,16505 5751,16505 5862,16297 5974,16037 6086,16037 6198,15829 6310,15725 6422,15621 6534,15569 6646,19739 6757,19739 6869,19673 6981,19652 7093,19608 7205,19608 7317,19586 7429,19564 7541,19521 7652,19499 7764,19499 7876,19499 7988,19477 8100,19411 8212,19390 8324,19302 8436,19259 8547,19237 8659,19193 8771,19193 8883,19171 8995,19128 9107,19106 9219,19062 9331,19062 9442,19040 9554,19018 9666,19018 9778,18975 9890,18975 10002,18975 10114,18975 10226,18887 10337,18887 10449,18887 10561,18866 10673,18866 10785,18866 10897,18866 11009,18822 11121,18800 11232,18800 11344,18800 11456,18800 11568,18800 11680,18800 11792,18778 11903,18756 12015,18713 12126,18691 12238,18669 12350,18647 12462,18647 12574,18647 12686,18647 12798,18647 12910,18625 13021,18625 13133,18625 13245,18625 13357,18625 13469,18604 13581,18604 13693,18604 13805,18604 13916,18604 14028,18604 14140,18604 14252,18582 14364,18582 14476,18582 14588,18582 14700,18582 14812,18582 14923,18582 15035,18582 15147,18582 15259,18582 15371,18560 15483,18560 15595,18560 15707,18538 15818,18494 15930,18429 16042,18407 16154,18407 16266,18407 16378,18385 16490,18385 16602,18363 16713,18363 16825,18363 16937,18298 17049,18298 17161,18254 17273,18232 17385,18232 17497,18211 17608,18211 17720,18211 17832,18189 17944,18074 18056,18052 18168,18030 18280,17985 18392,17874"/>
 <path fill="none" stroke="rgb(255,0,0)" stroke-width="80" stroke-linejoin="round" stroke-dasharray="158,158" d="M 2282,21389 L 2394,19514 2506,18618 2618,16866 2730,15455 2842,16013 2954,14810 3065,16534 3177,13466 3289,11615 3401,11845 3513,9876 3625,8698 3737,9484 3849,10685 3960,9792 4072,9949 4184,10297 4296,11298 4408,11686 4520,11280 4632,11670 4744,11933 4855,12777 4967,13626 5079,14130 5191,14619 5303,15495 5415,15645 5527,15686 5639,15857 5751,16262 5862,16198 5974,16757 6086,16557 6198,16715 6310,16674 6422,16953 6534,16971 6646,17441 6757,17639 6869,17709 6981,17928 7093,18138 7205,18170 7317,18317 7429,18460 7541,18485 7652,18720 7764,18707 7876,18729 7988,18884 8100,18892 8212,19306 8324,19370 8436,19368 8547,19438 8659,19412 8771,19440 8883,19473 8995,19518 9107,19550 9219,19642 9331,19677 9442,19687 9554,19723 9666,19769 9778,19862 9890,19877 10002,19900 10114,19931 10226,19944 10337,19939 10449,19978 10561,19983 10673,20005 10785,20045 10897,20064 11009,20086 11121,20071 11232,20094 11344,20108 11456,20115 11568,20121 11680,20105 11792,20089 11903,20113 12015,20095 12126,20086 12238,20106 12350,20107 12462,20113 12574,20113 12686,20109 12798,20113 12910,20174 13021,20190 13133,20223 13245,20225 13357,20204 13469,20196 13581,20206 13693,20182 13805,20174 13916,20180 14028,20174 14140,20172 14252,20167 14364,20175 14476,20172 14588,20173 14700,20174 14812,20172 14923,20167 15035,20139 15147,20140 15259,20131 15371,20123 15483,20116 15595,20108 15707,20108 15818,20251 15930,20240 16042,20230 16154,20251 16266,20236 16378,20237 16490,20230 16602,20225 16713,20222 16825,20198 16937,20193 17049,20186 17161,20172 17273,20166 17385,20139 17497,20150 17608,20140 17720,20116 17832,20125 17944,20106 18056,20095 18168,20084 18280,20083 18392,20076"/>
 <path fill="none" stroke="rgb(129,212,26)" stroke-width="80" stroke-linejoin="round" stroke-dasharray="80,40" d="M 1723,10797 L 1835,10797 1947,4797 2059,4797 2170,4797 2226,1798"/>
 <path fill="none" stroke="rgb(129,212,26)" stroke-width="80" stroke-linejoin="round" stroke-dasharray="80,40" d="M 5631,1798 L 5639,20424 5751,20297 5862,20216 5974,19501 6086,19342 6198,19264 6310,19215 6422,19030 6534,20129 6646,20035 6757,19961 6869,19914 6981,19875 7093,19840 7205,19795 7317,20385 7429,20336 7541,20290 7652,20260 7764,20239 7876,20223 7988,20187 8100,20489 8212,20475 8324,20457 8436,20434 8547,20418 8659,20412 8771,20390 8883,20558 8995,20541 9107,20528 9219,20511 9331,20505 9442,20508 9554,20495 9666,20580 9778,20570 9890,20561 10002,20553 10114,20552 10226,20555 10337,20544 10449,20603 10561,20596 10673,20588 10785,20578 10897,20576 11009,20571 11121,20561 11232,20555 11344,20545 11456,20542 11568,20542 11680,20541 11792,20541 11903,20537 12015,20535 12126,20530 12238,20530 12350,20529 12462,20529 12574,20526 12686,20522 12798,20579 12910,20578 13021,20574 13133,20569 13245,20568 13357,20568 13469,20567 13581,20564 13693,20564 13805,20561 13916,20560 14028,20560 14140,20560 14252,20559 14364,20564 14476,20558 14588,20556 14700,20554 14812,20554 14923,20554 15035,20554 15147,20551 15259,20550 15371,20546 15483,20545 15595,20545 15707,20545 15818,20545 15930,20543 16042,20532 16154,20532 16266,20531 16378,20531 16490,20531 16602,20531 16713,20531 16825,20532 16937,20532 17049,20532 17161,20532 17273,20532 17385,20532 17497,20532 17608,20525 17720,20520 17832,20520 17944,20520 18056,20520 18168,20519 18280,20518 18392,20518"/>
 <path fill="none" stroke="rgb(131,202,255)" stroke-width="80" stroke-linejoin="round" stroke-dasharray="158,158" d="M 2618,7797 L 2730,4797 2767,1798"/>
 <path fill="none" stroke="rgb(131,202,255)" stroke-width="80" stroke-linejoin="round" stroke-dasharray="158,158" d="M 3472,1798 L 3513,15510 3625,14224 3737,14441 3849,12164 3960,13972 4072,12209 4184,12796 4296,12718 4408,12942 4520,12661 4632,12197 4744,11942 4855,11744 4967,11706 5079,12280 5191,11418 5303,11744 5415,11235 5527,10828 5639,11071 5751,11236 5862,11565 5974,11423 6086,11701 6198,11666 6310,11530 6422,11228 6534,11188 6646,11080 6757,10952 6869,10998 6981,10847 7093,10722 7205,10748 7317,10724 7429,10773 7541,10892 7652,10915 7764,10844 7876,10844 7988,10982 8100,10912 8212,11224 8324,11353 8436,11437 8547,11368 8659,20459 8771,20464 8883,20445 8995,20422 9107,20422 9219,20422 9331,20400 9442,20411 9554,20388 9666,20403 9778,20406 9890,20408 10002,20408 10114,20410 10226,20388 10337,20388 10449,20388 10561,20389 10673,20389 10785,20389 10897,20389 11009,20389 11121,20389 11232,20389 11344,20389 11456,20389 11568,20389 11680,20389 11792,20389 11903,20389 12015,20389 12126,20389 12238,20389 12350,20389 12462,20419 12574,20419 12686,20419 12798,20419 12910,20419 13021,20419 13133,20419 13245,20390 13357,20390 13469,20390 13581,20390 13693,20390 13805,20390 13916,20390 14028,20390 14140,20390 14252,20455 14364,20465 14476,20465 14588,20465 14700,20465 14812,20529 14923,20535 15035,20558 15147,20577 15259,20608 15371,20608 15483,20672 15595,20653 15707,20681 15818,20691 15930,20702 16042,20719 16154,20740 16266,20722 16378,20722 16490,20788 16602,20781 16713,20802 16825,20824 16937,20809 17049,20835 17161,20824 17273,20797 17385,20805 17497,20821 17608,20831 17720,20850 17832,20834 17944,20818 18056,20836 18168,20821 18280,20821 18392,20821"/>
 <path fill="none" stroke="rgb(191,0,65)" stroke-width="80" stroke-linejoin="round" stroke-dasharray="51,127,51,127,254,127,254,127,254,127" d="M 1275,13796 L 1387,8951 1499,8797 1611,15523 1723,16517 1835,16274 1947,14015 2059,12796 2170,16720 2282,16039 2394,14147 2506,12939 2618,12248 2730,10919 2842,12561 2954,11623 3065,12077 3177,10461 3289,9184 3401,9903 3513,10437 3625,8282 3737,9694 3849,9786 3960,9655 4072,9877 4184,10181 4296,11184 4408,11809 4520,12080 4632,12547 4744,12977 4855,13452 4967,14370 5079,15036 5191,15565 5303,15926 5415,16038 5527,16303 5639,16606 5751,16977 5862,17166 5974,17528 6086,17589 6198,17713 6310,17817 6422,17924 6534,18089 6646,18323 6757,18437 6869,18508 6981,18600 7093,18678 7205,18757 7317,18900 7429,18989 7541,19118 7652,19209 7764,19221 7876,19256 7988,19367 8100,19404 8212,19576 8324,19623 8436,19656 8547,19698 8659,19802 8771,19828 8883,19863 8995,19940 9107,19976 9219,20018 9331,20042 9442,20046 9554,20106 9666,20138 9778,20194 9890,20199 10002,20225 10114,20245 10226,20257 10337,20258 10449,20277 10561,20296 10673,20302 10785,20323 10897,20337 11009,20348 11121,20346 11232,20354 11344,20373 11456,20378 11568,20385 11680,20378 11792,20378 11903,20393 12015,20394 12126,20393 12238,20409 12350,20419 12462,20440 12574,20455 12686,20465 12798,20477 12910,20510 13021,20528 13133,20563 13245,20581 13357,20584 13469,20588 13581,20603 13693,20604 13805,20610 13916,20624 14028,20640 14140,20646 14252,20651 14364,20671 14476,20688 14588,20704 14700,20720 14812,20734 14923,20747 15035,20744 15147,20767 15259,20779 15371,20795 15483,20803 15595,20809 15707,20817 15818,20856 15930,20864 16042,20878 16154,20896 16266,20905 16378,20947 16490,20948 16602,20949 16713,20947 16825,20946 16937,20948 17049,20952 17161,20951 17273,20952 17385,20951 17497,20951 17608,20957 17720,20962 17832,20965 17944,20962 18056,20964 18168,20964 18280,20972 18392,20973"/>
 <path fill="none" stroke="rgb(0,169,51)" stroke-width="80" stroke-linejoin="round" stroke-dasharray="158,158" d="M 2633,1798 L 2730,11547 2842,12796 2954,3707 3065,5654 3177,8680 3289,8680 3401,7797 3513,10797 3625,8797 3737,7797 3849,6581 3960,5874 4072,6369 4184,5654 4296,7797 4408,8908 4520,9249 4632,10003 4744,9276 4855,9834 4967,12510 5079,13452 5191,14073 5303,14757 5415,14970 5527,15071 5639,14855 5751,14348 5862,14585 5974,14573 6086,14420 6198,14601 6310,14349 6422,14958 6534,14895 6646,15352 6757,15405 6869,15270 6981,15685 7093,15506 7205,15778 7317,15796 7429,16233 7541,16362 7652,16398 7764,16647 7876,16744 7988,16808 8100,17024 8212,17203 8324,17181 8436,17298 8547,17378 8659,17404 8771,17595 8883,17708 8995,17844 9107,17919 9219,18118 9331,18153 9442,18271 9554,18364 9666,18421 9778,18630 9890,18780 10002,18877 10114,18885 10226,18942 10337,18949 10449,19164 10561,19460 10673,19364 10785,19689 10897,19695 11009,19695 11121,19709 11232,19785 11344,19810 11456,19789 11568,19801 11680,19778 11792,19836 11903,19807 12015,19859 12126,19859 12238,19912 12350,19850 12462,19917 12574,19935 12686,19981 12798,20025 12910,20125 13021,20170 13133,20177 13245,20176 13357,20205 13469,20217 13581,20239 13693,20312 13805,20316 13916,20301 14028,20264 14140,20296 14252,20287 14364,20341 14476,20361 14588,20374 14700,20376 14812,20373 14923,20441 15035,20478 15147,20538 15259,20557 15371,20586 15483,20598 15595,20604 15707,20598 15818,20719 15930,20722 16042,20834 16154,20871 16266,20885 16378,20891 16490,20932 16602,20949 16713,20947 16825,20978 16937,20977 17049,20990 17161,20983 17273,20982 17385,21008 17497,21018 17608,21026 17720,21056 17832,21066 17944,21070 18056,21070 18168,21063 18280,21090 18392,21090"/>
 <path fill="none" stroke="rgb(0,169,51)" stroke-width="80" stroke-linejoin="round" stroke-dasharray="80,40" d="M 1611,13565 L 1723,11259 1835,11259 1842,1798"/>
 <path fill="none" stroke="rgb(0,169,51)" stroke-width="80" stroke-linejoin="round" stroke-dasharray="80,40" d="M 3733,1798 L 3737,2366 3840,1798"/>
 <path fill="none" stroke="rgb(0,169,51)" stroke-width="80" stroke-linejoin="round" stroke-dasharray="80,40" d="M 3853,1798 L 3960,2983 4072,2536 4140,1798"/>
 <path fill="none" stroke="rgb(0,169,51)" stroke-width="80" stroke-linejoin="round" stroke-dasharray="80,40" d="M 4202,1798 L 4296,4417 4408,5722 4520,6157 4632,6943 4744,7705 4855,10030 4967,9953 5079,10627 5191,11296 5303,12185 5415,12412 5527,12734 5639,13521 5751,14349 5862,14968 5974,15172 6086,15402 6198,15710 6310,15959 6422,16061 6534,16607 6646,16825 6757,17201 6869,17501 6981,17640 7093,17682 7205,17777 7317,18072 7429,18137 7541,18305 7652,18464 7764,18584 7876,18612 7988,18690 8100,18766 8212,18840 8324,18862 8436,18970 8547,19071 8659,19115 8771,19197 8883,19269 8995,19346 9107,19421 9219,19477 9331,19546 9442,19539 9554,19730 9666,19810 9778,19847 9890,19847 10002,19906 10114,19964 10226,19981 10337,20002 10449,20011 10561,20055 10673,20047 10785,20059 10897,20096 11009,20104 11121,20106 11232,20098 11344,20134 11456,20140 11568,20164 11680,20166 11792,20176 11903,20192 12015,20210 12126,20218 12238,20246 12350,20300 12462,20357 12574,20408 12686,20448 12798,20486 12910,20525 13021,20565 13133,20640 13245,20696 13357,20723 13469,20733 13581,20762 13693,20780 13805,20800 13916,20834 14028,20879 14140,20892 14252,20904 14364,20936 14476,20969 14588,20997 14700,21029 14812,21060 14923,21077 15035,21079 15147,21117 15259,21131 15371,21157 15483,21173 15595,21187 15707,21197 15818,21201 15930,21214 16042,21225 16154,21244 16266,21256 16378,21265 16490,21265 16602,21268 16713,21264 16825,21272 16937,21281 17049,21294 17161,21299 17273,21306 17385,21308 17497,21304 17608,21302 17720,21308 17832,21312 17944,21318 18056,21324 18168,21325 18280,21336 18392,21338"/>
 <path fill="none" stroke="rgb(128,0,128)" stroke-width="80" stroke-linejoin="round" stroke-dasharray="80,40" d="M 4387,1798 L 4408,10575 4520,10019 4632,15682 4744,15667 4855,14182 4967,16274 5079,17402 5191,18081 5303,18454 5415,18457 5527,18209 5639,18970 5751,19602 5862,19788 5974,20005 6086,20122 6198,20162 6310,20201 6422,20333 6534,20398 6646,20504 6757,20523 6869,20612 6981,20622 7093,20633 7205,20760 7317,20790 7429,20806 7541,20874 7652,21020 7764,20984 7876,20995 7988,21031 8100,21011 8212,21061 8324,21117 8436,21126 8547,21111 8659,21020 8771,21039 8883,21080 8995,21051 9107,21148 9219,21130 9331,21135 9442,21135 9554,21122 9666,21123 9778,21086 9890,21118 10002,21087 10114,21097 10226,21097 10337,21090 10449,21105 10561,21122 10673,21160 10785,21183 10897,21192 11009,21195 11121,21181 11232,21174 11344,21178 11456,21210 11568,21207 11680,21219 11792,21200 11903,21213 12015,21220 12126,21222 12238,21236 12350,21245 12462,21250 12574,21250 12686,21238 12798,21219 12910,21229 13021,21237 13133,21239 13245,21239 13357,21248 13469,21251 13581,21260 13693,21272 13805,21256 13916,21262 14028,21262 14140,21264 14252,21264 14364,21269 14476,21280 14588,21285 14700,21295 14812,21287 14923,21287 15035,21287 15147,21297 15259,21308 15371,21310 15483,21296 15595,21296 15707,21297 15818,21297 15930,21302 16042,21306 16154,21310 16266,21310 16378,21310 16490,21314 16602,21317 16713,21335 16825,21335 16937,21336 17049,21336 17161,21336 17273,21337 17385,21338 17497,21323 17608,21328 17720,21330 17832,21339 17944,21340 18056,21340 18168,21348 18280,21352 18392,21357"/>
 <path fill="none" stroke="rgb(128,0,128)" stroke-width="80" stroke-linejoin="round" stroke-dasharray="158,158" d="M 1723,12796 L 1835,2797 1846,1798"/>
 <path fill="none" stroke="rgb(128,0,128)" stroke-width="80" stroke-linejoin="round" stroke-dasharray="158,158" d="M 5740,1798 L 5751,2194 5862,2315 5974,1934 6086,2124 6198,2414 6310,2282 6422,2322 6534,2940 6646,3265 6757,4455 6869,4431 6981,4272 7093,4170 7205,4312 7317,7060 7429,8116 7541,8999 7652,9280 7764,9439 7876,9333 7988,11217 8100,11719 8212,11690 8324,12070 8436,13353 8547,14914 8659,17052 8771,16979 8883,16923 8995,16858 9107,17701 9219,17726 9331,20546 9442,20557 9554,20571 9666,20579 9778,20592 9890,20602 10002,20613 10114,20616 10226,20611 10337,20627 10449,20634 10561,20648 10673,20654 10785,20670 10897,20682 11009,20690 11121,20698 11232,20730 11344,20745 11456,20762 11568,20774 11680,20788 11792,20800 11903,20829 12015,20858 12126,20891 12238,20924 12350,20955 12462,20987 12574,20994 12686,21007 12798,21021 12910,21034 13021,21044 13133,21052 13245,21062 13357,21066 13469,21077 13581,21092 13693,21101 13805,21109 13916,21122 14028,21127 14140,21129 14252,21136 14364,21149 14476,21154 14588,21169 14700,21177 14812,21184 14923,21191 15035,21210 15147,21230 15259,21245 15371,21257 15483,21272 15595,21277 15707,21283 15818,21288 15930,21294 16042,21307 16154,21315 16266,21325 16378,21333 16490,21338 16602,21346 16713,21353 16825,21362 16937,21369 17049,21379 17161,21386 17273,21391 17385,21398 17497,21406 17608,21414 17720,21420 17832,21427 17944,21428 18056,21428 18168,21433 18280,21437 18392,21440"/>
 <path fill="none" stroke="rgb(180,120,4)" stroke-width="80" stroke-linejoin="round" d="M 3339,1798 L 3401,19582 3513,19647 3625,19556 3737,19293 3849,19038 3960,19028 4072,19039 4184,19086 4296,19020 4408,18954 4520,19101 4632,19221 4744,19238 4855,19460 4967,19626 5079,19789 5191,19973 5303,20221 5415,20335 5527,20368 5639,20525 5751,20612 5862,20675 5974,20680 6086,20655 6198,20683 6310,20712 6422,20733 6534,20769 6646,20784 6757,20803 6869,20784 6981,20774 7093,20765 7205,20781 7317,20821 7429,20845 7541,20868 7652,20892 7764,20910 7876,20920 7988,20994 8100,20991 8212,21006 8324,21036 8436,21045 8547,21054 8659,21065 8771,21076 8883,21088 8995,21085 9107,21106 9219,21118 9331,21126 9442,21134 9554,21146 9666,21151 9778,21154 9890,21163 10002,21168 10114,21165 10226,21167 10337,21167 10449,21177 10561,21182 10673,21176 10785,21183 10897,21183 11009,21177 11121,21185 11232,21193 11344,21201 11456,21204 11568,21201 11680,21206 11792,21207 11903,21211 12015,21220 12126,21222 12238,21228 12350,21228 12462,21228 12574,21232 12686,21235 12798,21239 12910,21244 13021,21248 13133,21248 13245,21248 13357,21259 13469,21264 13581,21267 13693,21277 13805,21283 13916,21283 14028,21283 14140,21295 14252,21296 14364,21298 14476,21304 14588,21308 14700,21308 14812,21308 14923,21312 15035,21315 15147,21318 15259,21319 15371,21319 15483,21319 15595,21319 15707,21324 15818,21325 15930,21326 16042,21327 16154,21329 16266,21329 16378,21329 16490,21338 16602,21342 16713,21344 16825,21346 16937,21352 17049,21352 17161,21352 17273,21362 17385,21365 17497,21369 17608,21371 17720,21377 17832,21377 17944,21379 18056,21382 18168,21387 18280,21395 18392,21402"/>
 <path fill="none" stroke="rgb(52,42,6)" stroke-width="80" stroke-linejoin="round" d="M 1275,18231 L 1387,16926 1499,15622 1611,15184 1723,12051 1835,14796 1947,11116 2059,11630 2170,11982 2282,12196 2394,8925 2506,21343 2618,21053 2730,21384 2842,21255 2954,21264 3065,21060 3177,21362 3289,21351 3401,21320 3513,21316 3625,21239 3737,21155 3849,21140 3960,20904 4072,21119 4184,21274 4296,21303 4408,21256 4520,21366 4632,21292 4744,21305 4855,21347 4967,21224 5079,21217 5191,21225 5303,21229 5415,21232 5527,21201 5639,21210 5751,21202 5862,21177 5974,21222 6086,21190 6198,21195 6310,21191 6422,21182 6534,21184 6646,21187 6757,21203 6869,21211 6981,21218 7093,21215 7205,21243 7317,21236 7429,21231 7541,21206 7652,21215 7764,21223 7876,21217 7988,21219 8100,21210 8212,21222 8324,21233 8436,21235 8547,21245 8659,21247 8771,21238 8883,21239 8995,21239 9107,21244 9219,21244 9331,21245 9442,21249 9554,21245 9666,21243 9778,21240 9890,21242 10002,21244 10114,21246 10226,21246 10337,21254 10449,21254 10561,21253 10673,21254 10785,21256 10897,21256 11009,21257 11121,21255 11232,21257 11344,21256 11456,21260 11568,21262 11680,21261 11792,21266 11903,21265 12015,21266 12126,21264 12238,21263 12350,21267 12462,21268 12574,21271 12686,21275 12798,21277 12910,21278 13021,21277 13133,21280 13245,21281 13357,21281 13469,21281 13581,21289 13693,21293 13805,21296 13916,21301 14028,21306 14140,21310 14252,21312 14364,21314 14476,21317 14588,21318 14700,21319 14812,21320 14923,21325 15035,21324 15147,21331 15259,21333 15371,21337 15483,21339 15595,21340 15707,21345 15818,21345 15930,21348 16042,21351 16154,21353 16266,21354 16378,21355 16490,21357 16602,21359 16713,21363 16825,21363 16937,21366 17049,21370 17161,21372 17273,21377 17385,21380 17497,21380 17608,21385 17720,21388 17832,21391 17944,21393 18056,21397 18168,21403 18280,21407 18392,21411"/>
 <path fill="none" stroke="rgb(129,212,26)" stroke-width="80" stroke-linejoin="round" stroke-dasharray="158,158" d="M 2170,19796 L 2282,19796 2394,19796 2506,19796 2618,13796 2730,7797 2842,1798 2842,1798"/>
 <path fill="none" stroke="rgb(129,212,26)" stroke-width="80" stroke-linejoin="round" stroke-dasharray="158,158" d="M 3469,1798 L 3513,20896 3625,20796 3737,20296 3849,19996 3960,20096 4072,19396 4184,18796 4296,18596 4408,17996 4520,17896 4632,17196 4744,16896 4855,16396 4967,15596 5079,21472 5191,21349 5303,21207 5415,21137 5527,21326 5639,20681 5751,20561 5862,20216 5974,20672 6086,20564 6198,20516 6310,20480 6422,20663 6534,20588 6646,20686 6757,20616 6869,20596 6981,20496 7093,20738 7205,20687 7317,20636 7429,20610 7541,20846 7652,20808 7764,20793 7876,20763 7988,20877 8100,20814 8212,20793 8324,21038 8436,21014 8547,21008 8659,20996 8771,20990 8883,20896 8995,20883 9107,20883 9219,20883 9331,20877 9442,20984 9554,20960 9666,20954 9778,21088 9890,21083 10002,21072 10114,21050 10226,21061 10337,21050 10449,21045 10561,21130 10673,21130 10785,21130 10897,21125 11009,21125 11121,21120 11232,21120 11344,21223 11456,21223 11568,21223 11680,21218 11792,21218 11903,21218 12015,21218 12126,21218 12238,21218 12350,21218 12462,21218 12574,21263 12686,21263 12798,21309 12910,21309 13021,21305 13133,21305 13245,21305 13357,21305 13469,21305 13581,21327 13693,21327 13805,21322 13916,21322 14028,21322 14140,21322 14252,21322 14364,21344 14476,21344 14588,21344 14700,21344 14812,21344 14923,21344 15035,21344 15147,21365 15259,21365 15371,21365 15483,21365 15595,21365 15707,21365 15818,21365 15930,21374 16042,21374 16154,21369 16266,21369 16378,21369 16490,21369 16602,21369 16713,21375 16825,21375 16937,21375 17049,21375 17161,21375 17273,21375 17385,21367 17497,21373 17608,21373 17720,21373 17832,21373 17944,21373 18056,21364 18168,21364 18280,21379 18392,21379"/>
 <path fill="none" stroke="rgb(0,169,51)" stroke-width="80" stroke-linejoin="round" d="M 1275,17796 L 1387,17796 1499,17796 1611,7797 1620,1798"/>
 <path fill="none" stroke="rgb(0,169,51)" stroke-width="80" stroke-linejoin="round" d="M 1824,1798 L 1835,9464 1947,2797 2059,2797 2075,1798"/>
 <path fill="none" stroke="rgb(0,169,51)" stroke-width="80" stroke-linejoin="round" d="M 2720,1798 L 2730,9672 2842,15063 2954,13729 3065,17410 3177,17701 3289,19289 3401,19746 3513,20086 3625,20303 3737,20570 3849,20754 3960,20890 4072,20994 4184,20980 4296,21107 4408,21217 4520,21265 4632,21293 4744,21292 4855,21286 4967,21340 5079,21427 5191,21463 5303,21494 5415,21504 5527,21469 5639,21453 5751,21445 5862,21456 5974,21456 6086,21467 6198,21472 6310,21463 6422,21439 6534,21434 6646,21438 6757,21448 6869,21439 6981,21439 7093,21444 7205,21445 7317,21458 7429,21462 7541,21464 7652,21471 7764,21470 7876,21473 7988,21475 8100,21487 8212,21492 8324,21494 8436,21496 8547,21500 8659,21504 8771,21504 8883,21520 8995,21525 9107,21526 9219,21521 9331,21521 9442,21525 9554,21525 9666,21525 9778,21485 9890,21490 10002,21504 10114,21510 10226,21511 10337,21511 10449,21513 10561,21517 10673,21515 10785,21519 10897,21519 11009,21523 11121,21526 11232,21527 11344,21528 11456,21529 11568,21527 11680,21531 11792,21530 11903,21526 12015,21515 12126,21514 12238,21517 12350,21520 12462,21518 12574,21521 12686,21517 12798,21519 12910,21512 13021,21515 13133,21513 13245,21511 13357,21511 13469,21512 13581,21513 13693,21515 13805,21518 13916,21522 14028,21521 14140,21523 14252,21526 14364,21529 14476,21532 14588,21535 14700,21540 14812,21543 14923,21546 15035,21550 15147,21555 15259,21559 15371,21565 15483,21577 15595,21584 15707,21588 15818,21593 15930,21601 16042,21607 16154,21613 16266,21617 16378,21623 16490,21623 16602,21632 16713,21636 16825,21639 16937,21647 17049,21657 17161,21661 17273,21666 17385,21680 17497,21687 17608,21695 17720,21699 17832,21704 17944,21710 18056,21712 18168,21718 18280,21724 18392,21727"/>
 <path fill="none" stroke="rgb(255,191,0)" stroke-width="80" stroke-linejoin="round" d="M 2282,17796 L 2394,17796 2506,13796 2618,4797 2655,1798"/>
 <path fill="none" stroke="rgb(255,191,0)" stroke-width="80" stroke-linejoin="round" d="M 3284,1798 L 3289,2131 3401,3617 3513,3096 3574,1798"/>
 <path fill="none" stroke="rgb(255,191,0)" stroke-width="80" stroke-linejoin="round" d="M 3845,1798 L 3849,1860 3960,3459 4072,7448 4184,10050 4296,11634 4408,12479 4520,13380 4632,13874 4744,14530 4855,15272 4967,16715 5079,17580 5191,18375 5303,18370 5415,18497 5527,19063 5639,19356 5751,19658 5862,19868 5974,20088 6086,20130 6198,20202 6310,20428 6422,20486 6534,20604 6646,20659 6757,20660 6869,20672 6981,20721 7093,20810 7205,20871 7317,20926 7429,20942 7541,20940 7652,20934 7764,20918 7876,21000 7988,21059 8100,21072 8212,21118 8324,21151 8436,21158 8547,21159 8659,21216 8771,21213 8883,21231 8995,21246 9107,21242 9219,21237 9331,21241 9442,21257 9554,21279 9666,21303 9778,21314 9890,21323 10002,21334 10114,21332 10226,21346 10337,21346 10449,21351 10561,21359 10673,21370 10785,21371 10897,21372 11009,21389 11121,21400 11232,21403 11344,21422 11456,21428 11568,21432 11680,21430 11792,21439 11903,21446 12015,21445 12126,21449 12238,21451 12350,21447 12462,21451 12574,21458 12686,21449 12798,21439 12910,21442 13021,21430 13133,21433 13245,21441 13357,21448 13469,21448 13581,21453 13693,21442 13805,21446 13916,21455 14028,21468 14140,21462 14252,21464 14364,21481 14476,21496 14588,21509 14700,21512 14812,21515 14923,21531 15035,21534 15147,21544 15259,21563 15371,21565 15483,21566 15595,21566 15707,21577 15818,21585 15930,21601 16042,21622 16154,21621 16266,21641 16378,21822 16490,21816 16602,21814 16713,21814 16825,21805 16937,21805 17049,21804 17161,21803 17273,21806 17385,21823 17497,21818 17608,21846 17720,21880 17832,21881 17944,21880 18056,21894 18168,21908 18280,21921 18392,21931"/>
 <path fill="none" stroke="rgb(85,48,141)" stroke-width="80" stroke-linejoin="round" stroke-dasharray="80,40" d="M 2618,19046 L 2730,19046 2842,20068 2954,21296 3065,18296 3177,18296 3289,18180 3401,18250 3513,15463 3625,15296 3737,16186 3849,15538 3960,13602 4072,13666 4184,12796 4296,14121 4408,15054 4520,15054 4632,15143 4744,14561 4855,14709 4967,13822 5079,14676 5191,14934 5303,15759 5415,15479 5527,15523 5639,15163 5751,15622 5862,15765 5974,16097 6086,16743 6198,16487 6310,16358 6422,16546 6534,16440 6646,16531 6757,16630 6869,16585 6981,16425 7093,16425 7205,16474 7317,16546 7429,16642 7541,20409 7652,20386 7764,20396 7876,20359 7988,20440 8100,20440 8212,20749 8324,20748 8436,20772 8547,20781 8659,20749 8771,20749 8883,20787 8995,21505 9107,21522 9219,21537 9331,21542 9442,21528 9554,21539 9666,21527 9778,21538 9890,21547 10002,21556 10114,21539 10226,21540 10337,21546 10449,21541 10561,21551 10673,21554 10785,21560 10897,21564 11009,21566 11121,21566 11232,21571 11344,21576 11456,21580 11568,21581 11680,21581 11792,21590 11903,21598 12015,21608 12126,21611 12238,21616 12350,21618 12462,21622 12574,21623 12686,21627 12798,21635 12910,21639 13021,21644 13133,21653 13245,21657 13357,21657 13469,21664 13581,21668 13693,21672 13805,21682 13916,21689 14028,21691 14140,21692 14252,21694 14364,21696 14476,21700 14588,21703 14700,21703 14812,21703 14923,21703 15035,21704 15147,21707 15259,21708 15371,21712 15483,21713 15595,21713 15707,21713 15818,21713 15930,21713 16042,21713 16154,21715 16266,21715 16378,21719 16490,21719 16602,21720 16713,21721 16825,21721 16937,21723 17049,21725 17161,21818 17273,21819 17385,21820 17497,21825 17608,21828 17720,21829 17832,21832 17944,21832 18056,21832 18168,21835 18280,21839 18392,21839"/>
 <path fill="none" stroke="rgb(131,202,255)" stroke-width="80" stroke-linejoin="round" stroke-dasharray="80,40" d="M 1947,16796 L 2059,16796 2170,16796 2282,16796 2394,16796 2506,16796 2618,21432 2730,18705 2842,20363 2954,19462 3065,19334 3177,20109 3289,20109 3401,20330 3513,20409 3625,20187 3737,19770 3849,19196 3960,19103 4072,19562 4184,19611 4296,20056 4408,20068 4520,20845 4632,20946 4744,20921 4855,20555 4967,20703 5079,20811 5191,20996 5303,20893 5415,20807 5527,20967 5639,20998 5751,21139 5862,21097 5974,21238 6086,21229 6198,21300 6310,21278 6422,21261 6534,21235 6646,21260 6757,21212 6869,21217 6981,21204 7093,21219 7205,21199 7317,21203 7429,21223 7541,21268 7652,21283 7764,21265 7876,21265 7988,21286 8100,21258 8212,21271 8324,21271 8436,21306 8547,21323 8659,21331 8771,21331 8883,21340 8995,21324 9107,21319 9219,21327 9331,21330 9442,21321 9554,21315 9666,21315 9778,21304 9890,21295 10002,21298 10114,21304 10226,21308 10337,21316 10449,21321 10561,21328 10673,21333 10785,21325 10897,21328 11009,21329 11121,21303 11232,21303 11344,21304 11456,21291 11568,21291 11680,21291 11792,21296 11903,21296 12015,21296 12126,21297 12238,21297 12350,21297 12462,21297 12574,21297 12686,21297 12798,21299 12910,21302 13021,21303 13133,21304 13245,21304 13357,21306 13469,21306 13581,21292 13693,21264 13805,21246 13916,21243 14028,21252 14140,21262 14252,21275 14364,21294 14476,21310 14588,21319 14700,21360 14812,21360 14923,21376 15035,21388 15147,21426 15259,21476 15371,21521 15483,21566 15595,21603 15707,21615 15818,21636 15930,21652 16042,21664 16154,21715 16266,21739 16378,21740 16490,21736 16602,21754 16713,21764 16825,21762 16937,21776 17049,21793 17161,21773 17273,21761 17385,21773 17497,21789 17608,21804 17720,21818 17832,21818 17944,21827 18056,21829 18168,21828 18280,21840 18392,21844"/>
 <path fill="none" stroke="rgb(255,191,0)" stroke-width="80" stroke-linejoin="round" stroke-dasharray="158,158" d="M 3884,1798 L 3960,20921 4072,19046 4184,19046 4296,17171 4408,17171 4520,17171 4632,13421 4744,13421 4855,13421 4967,19387 5079,20164 5191,21091 5303,21091 5415,21091 5527,21091 5639,20766 5751,20314 5862,20314 5974,21447 6086,21447 6198,21447 6310,21335 6422,21335 6534,21502 6646,21502 6757,21416 6869,21416 6981,21416 7093,21416 7205,21330 7317,21696 7429,21632 7541,21632 7652,21632 7764,21632 7876,21632 7988,21934 8100,21886 8212,21886 8324,21935 8436,21935 8547,21935 8659,21935 8771,21888 8883,21888 8995,21845 9107,21869 9219,21869 9331,21869 9442,21869 9554,21905 9666,21864 9778,21824 9890,21829 10002,21829 10114,21829 10226,21829 10337,21848 10449,21848 10561,21809 10673,21835 10785,21835 10897,21835 11009,21797 11121,21813 11232,21813 11344,21842 11456,21805 11568,21801 11680,21801 11792,21801 11903,21836 12015,21767 12126,21799 12238,21799 12350,21799 12462,21799 12574,21799 12686,21799 12798,21799 12910,21799 13021,21830 13133,21830 13245,21830 13357,21830 13469,21872 13581,21872 13693,21885 13805,21893 13916,21896 14028,21896 14140,21896 14252,21903 14364,21903 14476,21912 14588,21912 14700,21912 14812,21912 14923,21883 15035,21886 15147,21886 15259,21886 15371,21886 15483,21886 15595,21886 15707,21886 15818,21906 15930,21906 16042,21906 16154,21906 16266,21906 16378,21906 16490,21906 16602,21912 16713,21912 16825,21912 16937,21883 17049,21883 17161,21883 17273,21883 17385,21898 17497,21898 17608,21898 17720,21898 17832,21898 17944,21898 18056,21898 18168,21905 18280,21905 18392,21905"/>
 <path fill="none" stroke="rgb(241,13,12)" stroke-width="80" stroke-linejoin="round" stroke-dasharray="80,40" d="M 2282,12796 L 2394,12796 2456,1798"/>
 <path fill="none" stroke="rgb(241,13,12)" stroke-width="80" stroke-linejoin="round" stroke-dasharray="80,40" d="M 2743,1798 L 2842,12796 2954,12796 3065,12796 3177,13251 3289,12362 3401,13153 3513,12083 3625,11011 3737,12796 3849,15499 3960,16796 4072,17051 4184,17603 4296,17135 4408,17623 4520,17878 4632,17719 4744,17257 4855,17257 4967,17257 5079,18120 5191,18120 5303,18239 5415,18351 5527,18351 5639,19122 5751,18816 5862,18816 5974,18510 6086,19958 6198,19958 6310,19755 6422,19755 6534,19755 6646,21275 6757,21275 6869,21275 6981,21275 7093,21275 7205,21275 7317,21275 7429,21671 7541,21671 7652,21673 7764,21599 7876,21599 7988,21727 8100,21660 8212,21735 8324,21735 8436,21805 8547,21805 8659,21805 8771,21805 8883,21807 8995,21886 9107,21886 9219,21937 9331,21937 9442,21937 9554,21937 9666,21937 9778,22145 9890,22145 10002,22150 10114,22150 10226,22150 10337,22150 10449,22150 10561,22150 10673,22164 10785,22126 10897,22126 11009,22126 11121,22126 11232,22126 11344,22126 11456,22126 11568,22126 11680,22126 11792,22126 11903,22134 12015,22134 12126,22099 12238,22099 12350,22104 12462,22104 12574,22104 12686,22104 12798,22104 12910,22104 13021,22104 13133,22104 13245,22111 13357,22111 13469,22111 13581,22111 13693,22111 13805,22116 13916,22116 14028,22116 14140,22116 14252,22116 14364,22116 14476,22116 14588,22116 14700,22116 14812,22116 14923,22116 15035,22116 15147,22116 15259,22121 15371,22121 15483,22121 15595,22121 15707,22123 15818,22123 15930,22123 16042,22123 16154,22123 16266,22127 16378,22127 16490,22127 16602,22127 16713,22127 16825,22127 16937,22127 17049,22127 17161,22130 17273,22130 17385,22130 17497,22130 17608,22130 17720,22130 17832,22130 17944,22140 18056,22140 18168,22106 18280,22106 18392,22106"/>
 <path fill="none" stroke="rgb(0,0,255)" stroke-width="80" stroke-linejoin="round" d="M 2809,1798 L 2842,11547 2954,9297 3065,7047 3177,6297 3289,14171 3401,11922 3513,11547 3625,20936 3737,20936 3849,20636 3960,20336 4072,20156 4184,20036 4296,19676 4408,19556 4520,19076 4632,18836 4744,18656 4855,18776 4967,18860 5079,19046 5191,19065 5303,19202 5415,19303 5527,19263 5639,19303 5751,19420 5862,19375 5974,21948 6086,21970 6198,21945 6310,21950 6422,21941 6534,21944 6646,21955 6757,21937 6869,21964 6981,21943 7093,21950 7205,21951 7317,21944 7429,21940 7541,21945 7652,21942 7764,21951 7876,21954 7988,21948 8100,21944 8212,21952 8324,21948 8436,21952 8547,21928 8659,21931 8771,21916 8883,21918 8995,21921 9107,21923 9219,21925 9331,21920 9442,21923 9554,21923 9666,21925 9778,21928 9890,21931 10002,21931 10114,21935 10226,21937 10337,21938 10449,21941 10561,21944 10673,21946 10785,21947 10897,21949 11009,21950 11121,21950 11232,21950 11344,21952 11456,21953 11568,21954 11680,21956 11792,21956 11903,21956 12015,21957 12126,21958 12238,21959 12350,21960 12462,21961 12574,21962 12686,21962 12798,21963 12910,21964 13021,21964 13133,21966 13245,21966 13357,21970 13469,21970 13581,21971 13693,21973 13805,21974 13916,21974 14028,21974 14140,21974 14252,21982 14364,21982 14476,21982 14588,21988 14700,21988 14812,21981 14923,21999 15035,22002 15147,22011 15259,22017 15371,22027 15483,22027 15595,22027 15707,22050 15818,22052 15930,22060 16042,22064 16154,22072 16266,22072 16378,22072 16490,22099 16602,22097 16713,22106 16825,22115 16937,22137 17049,22125 17161,22119 17273,22152 17385,22156 17497,22166 17608,22175 17720,22185 17832,22180 17944,22180 18056,22207 18168,22207 18280,22211 18392,22225"/>
 <path fill="none" stroke="rgb(0,0,255)" stroke-width="80" stroke-linejoin="round" stroke-dasharray="158,158" d="M 3401,12796 L 3513,16796 3625,19796 3737,19796 3849,19796 3960,15296 4072,18180 4184,19046 4296,20187 4408,20187 4520,20187 4632,20187 4744,22235 4855,22265 4967,21604 5079,21358 5191,21253 5303,21246 5415,21224 5527,21242 5639,21168 5751,21317 5862,21233 5974,21359 6086,21474 6198,21425 6310,21456 6422,21377 6534,21432 6646,21479 6757,21559 6869,21611 6981,21632 7093,21629 7205,21783 7317,21811 7429,21828 7541,21934 7652,21947 7764,21967 7876,21982 7988,21972 8100,22031 8212,22067 8324,22079 8436,22066 8547,22073 8659,22087 8771,22091 8883,22113 8995,22121 9107,22127 9219,22139 9331,22150 9442,22153 9554,22160 9666,22163 9778,22165 9890,22168 10002,22176 10114,22181 10226,22181 10337,22183 10449,22185 10561,22185 10673,22186 10785,22186 10897,22191 11009,22194 11121,22196 11232,22197 11344,22199 11456,22199 11568,22200 11680,22200 11792,22200 11903,22206 12015,22211 12126,22213 12238,22215 12350,22215 12462,22215 12574,22215 12686,22215 12798,22215 12910,22217 13021,22218 13133,22218 13245,22221 13357,22222 13469,22222 13581,22223 13693,22223 13805,22223 13916,22223 14028,22223 14140,22223 14252,22225 14364,22225 14476,22227 14588,22228 14700,22233 14812,22233 14923,22233 15035,22233 15147,22238 15259,22241 15371,22244 15483,22244 15595,22247 15707,22249 15818,22249 15930,22256 16042,22256 16154,22263 16266,22263 16378,22263 16490,22276 16602,22285 16713,22290 16825,22294 16937,22282 17049,22296 17161,22296 17273,22297 17385,22304 17497,22306 17608,22319 17720,22292 17832,22296 17944,22297 18056,22297 18168,22299 18280,22302 18392,22316"/>
 <path fill="none" stroke="rgb(0,0,0)" stroke-width="80" stroke-linejoin="round" stroke-dasharray="158,158" d="M 4184,20921 L 4296,19046 4408,19046 4520,17171 4632,20750 4744,20750 4855,20750 4967,20750 5079,21698 5191,21807 5303,21886 5415,22033 5527,22081 5639,22196 5751,22250 5862,22354 5974,22392 6086,22314 6198,22370 6310,22376 6422,22399 6534,22442 6646,22454 6757,22482 6869,22479 6981,22489 7093,22495 7205,22423 7317,22427 7429,22432 7541,22438 7652,22444 7764,22449 7876,22450 7988,22450 8100,22383 8212,22389 8324,22403 8436,22396 8547,22399 8659,22401 8771,22404 8883,22408 8995,22411 9107,22412 9219,22415 9331,22417 9442,22424 9554,22424 9666,22368 9778,22376 9890,22270 10002,22281 10114,22290 10226,22293 10337,22308 10449,22315 10561,22327 10673,22332 10785,22343 10897,22343 11009,22343 11121,22343 11232,22343 11344,22346 11456,22346 11568,22346 11680,22348 11792,22348 11903,22351 12015,22353 12126,22353 12238,22355 12350,22357 12462,22357 12574,22358 12686,22359 12798,22363 12910,22365 13021,22368 13133,22370 13245,22371 13357,22373 13469,22374 13581,22378 13693,22379 13805,22380 13916,22381 14028,22381 14140,22381 14252,22382 14364,22383 14476,22384 14588,22385 14700,22385 14812,22386 14923,22386 15035,22386 15147,22387 15259,22387 15371,22388 15483,22388 15595,22388 15707,22389 15818,22389 15930,22390 16042,22390 16154,22390 16266,22390 16378,22390 16490,22390 16602,22390 16713,22390 16825,22390 16937,22390 17049,22390 17161,22390 17273,22390 17385,22390 17497,22391 17608,22393 17720,22396 17832,22396 17944,22401 18056,22403 18168,22405 18280,22407 18392,22414"/>
 <text class="TextShape" transform="rotate(-90 1401 24000)"><tspan class="TextParagraph" font-family="Liberation Sans, sans-serif" font-size="388px" font-weight="400"><tspan class="TextPosition" x="1401" y="24000"><tspan fill="rgb(0,0,0)" stroke="none">13.03</tspan></tspan></tspan></text>
 <text class="TextShape" transform="rotate(-90 2185 24000)"><tspan class="TextParagraph" font-family="Liberation Sans, sans-serif" font-size="388px" font-weight="400"><tspan class="TextPosition" x="2185" y="24000"><tspan fill="rgb(0,0,0)" stroke="none">20.03</tspan></tspan></tspan></text>
 <text class="TextShape" transform="rotate(-90 2968 24000)"><tspan class="TextParagraph" font-family="Liberation Sans, sans-serif" font-size="388px" font-weight="400"><tspan class="TextPosition" x="2968" y="24000"><tspan fill="rgb(0,0,0)" stroke="none">27.03</tspan></tspan></tspan></text>
 <text class="TextShape" transform="rotate(-90 3751 24000)"><tspan class="TextParagraph" font-family="Liberation Sans, sans-serif" font-size="388px" font-weight="400"><tspan class="TextPosition" x="3751" y="24000"><tspan fill="rgb(0,0,0)" stroke="none">03.04</tspan></tspan></tspan></text>
 <text class="TextShape" transform="rotate(-90 4534 24000)"><tspan class="TextParagraph" font-family="Liberation Sans, sans-serif" font-size="388px" font-weight="400"><tspan class="TextPosition" x="4534" y="24000"><tspan fill="rgb(0,0,0)" stroke="none">10.04</tspan></tspan></tspan></text>
 <text class="TextShape" transform="rotate(-90 5317 24000)"><tspan class="TextParagraph" font-family="Liberation Sans, sans-serif" font-size="388px" font-weight="400"><tspan class="TextPosition" x="5317" y="24000"><tspan fill="rgb(0,0,0)" stroke="none">17.04</tspan></tspan></tspan></text>
 <text class="TextShape" transform="rotate(-90 6100 24000)"><tspan class="TextParagraph" font-family="Liberation Sans, sans-serif" font-size="388px" font-weight="400"><tspan class="TextPosition" x="6100" y="24000"><tspan fill="rgb(0,0,0)" stroke="none">24.04</tspan></tspan></tspan></text>
 <text class="TextShape" transform="rotate(-90 6883 24000)"><tspan class="TextParagraph" font-family="Liberation Sans, sans-serif" font-size="388px" font-weight="400"><tspan class="TextPosition" x="6883" y="24000"><tspan fill="rgb(0,0,0)" stroke="none">01.05</tspan></tspan></tspan></text>
 <text class="TextShape" transform="rotate(-90 7667 24000)"><tspan class="TextParagraph" font-family="Liberation Sans, sans-serif" font-size="388px" font-weight="400"><tspan class="TextPosition" x="7667" y="24000"><tspan fill="rgb(0,0,0)" stroke="none">08.05</tspan></tspan></tspan></text>
 <text class="TextShape" transform="rotate(-90 8450 24000)"><tspan class="TextParagraph" font-family="Liberation Sans, sans-serif" font-size="388px" font-weight="400"><tspan class="TextPosition" x="8450" y="24000"><tspan fill="rgb(0,0,0)" stroke="none">15.05</tspan></tspan></tspan></text>
 <text class="TextShape" transform="rotate(-90 9233 24000)"><tspan class="TextParagraph" font-family="Liberation Sans, sans-serif" font-size="388px" font-weight="400"><tspan class="TextPosition" x="9233" y="24000"><tspan fill="rgb(0,0,0)" stroke="none">22.05</tspan></tspan></tspan></text>
 <text class="TextShape" transform="rotate(-90 10016 24000)"><tspan class="TextParagraph" font-family="Liberation Sans, sans-serif" font-size="388px" font-weight="400"><tspan class="TextPosition" x="10016" y="24000"><tspan fill="rgb(0,0,0)" stroke="none">29.05</tspan></tspan></tspan></text>
 <text class="TextShape" transform="rotate(-90 10799 24000)"><tspan class="TextParagraph" font-family="Liberation Sans, sans-serif" font-size="388px" font-weight="400"><tspan class="TextPosition" x="10799" y="24000"><tspan fill="rgb(0,0,0)" stroke="none">05.06</tspan></tspan></tspan></text>
 <text class="TextShape" transform="rotate(-90 11582 24000)"><tspan class="TextParagraph" font-family="Liberation Sans, sans-serif" font-size="388px" font-weight="400"><tspan class="TextPosition" x="11582" y="24000"><tspan fill="rgb(0,0,0)" stroke="none">12.06</tspan></tspan></tspan></text>
 <text class="TextShape" transform="rotate(-90 12364 24000)"><tspan class="TextParagraph" font-family="Liberation Sans, sans-serif" font-size="388px" font-weight="400"><tspan class="TextPosition" x="12364" y="24000"><tspan fill="rgb(0,0,0)" stroke="none">19.06</tspan></tspan></tspan></text>
 <text class="TextShape" transform="rotate(-90 13147 24000)"><tspan class="TextParagraph" font-family="Liberation Sans, sans-serif" font-size="388px" font-weight="400"><tspan class="TextPosition" x="13147" y="24000"><tspan fill="rgb(0,0,0)" stroke="none">26.06</tspan></tspan></tspan></text>
 <text class="TextShape" transform="rotate(-90 13931 24000)"><tspan class="TextParagraph" font-family="Liberation Sans, sans-serif" font-size="388px" font-weight="400"><tspan class="TextPosition" x="13931" y="24000"><tspan fill="rgb(0,0,0)" stroke="none">03.07</tspan></tspan></tspan></text>
 <text class="TextShape" transform="rotate(-90 14714 24000)"><tspan class="TextParagraph" font-family="Liberation Sans, sans-serif" font-size="388px" font-weight="400"><tspan class="TextPosition" x="14714" y="24000"><tspan fill="rgb(0,0,0)" stroke="none">10.07</tspan></tspan></tspan></text>
 <text class="TextShape" transform="rotate(-90 15497 24000)"><tspan class="TextParagraph" font-family="Liberation Sans, sans-serif" font-size="388px" font-weight="400"><tspan class="TextPosition" x="15497" y="24000"><tspan fill="rgb(0,0,0)" stroke="none">17.07</tspan></tspan></tspan></text>
 <text class="TextShape" transform="rotate(-90 16280 24000)"><tspan class="TextParagraph" font-family="Liberation Sans, sans-serif" font-size="388px" font-weight="400"><tspan class="TextPosition" x="16280" y="24000"><tspan fill="rgb(0,0,0)" stroke="none">24.07</tspan></tspan></tspan></text>
 <text class="TextShape" transform="rotate(-90 17063 24000)"><tspan class="TextParagraph" font-family="Liberation Sans, sans-serif" font-size="388px" font-weight="400"><tspan class="TextPosition" x="17063" y="24000"><tspan fill="rgb(0,0,0)" stroke="none">31.07</tspan></tspan></tspan></text>
 <text class="TextShape" transform="rotate(-90 17846 24000)"><tspan class="TextParagraph" font-family="Liberation Sans, sans-serif" font-size="388px" font-weight="400"><tspan class="TextPosition" x="17846" y="24000"><tspan fill="rgb(0,0,0)" stroke="none">07.08</tspan></tspan></tspan></text>
 <text class="TextShape"><tspan class="TextParagraph" font-family="Liberation Sans, sans-serif" font-size="388px" font-weight="400"><tspan class="TextPosition" x="420" y="22924"><tspan fill="rgb(0,0,0)" stroke="none">0%</tspan></tspan></tspan></text>
 <text class="TextShape"><tspan class="TextParagraph" font-family="Liberation Sans, sans-serif" font-size="388px" font-weight="400"><tspan class="TextPosition" x="208" y="19924"><tspan fill="rgb(0,0,0)" stroke="none">10%</tspan></tspan></tspan></text>
 <text class="TextShape"><tspan class="TextParagraph" font-family="Liberation Sans, sans-serif" font-size="388px" font-weight="400"><tspan class="TextPosition" x="208" y="16924"><tspan fill="rgb(0,0,0)" stroke="none">20%</tspan></tspan></tspan></text>
 <text class="TextShape"><tspan class="TextParagraph" font-family="Liberation Sans, sans-serif" font-size="388px" font-weight="400"><tspan class="TextPosition" x="208" y="13924"><tspan fill="rgb(0,0,0)" stroke="none">30%</tspan></tspan></tspan></text>
 <text class="TextShape"><tspan class="TextParagraph" font-family="Liberation Sans, sans-serif" font-size="388px" font-weight="400"><tspan class="TextPosition" x="208" y="10924"><tspan fill="rgb(0,0,0)" stroke="none">40%</tspan></tspan></tspan></text>
 <text class="TextShape"><tspan class="TextParagraph" font-family="Liberation Sans, sans-serif" font-size="388px" font-weight="400"><tspan class="TextPosition" x="208" y="7924"><tspan fill="rgb(0,0,0)" stroke="none">50%</tspan></tspan></tspan></text>
 <text class="TextShape"><tspan class="TextParagraph" font-family="Liberation Sans, sans-serif" font-size="388px" font-weight="400"><tspan class="TextPosition" x="208" y="4924"><tspan fill="rgb(0,0,0)" stroke="none">60%</tspan></tspan></tspan></text>
 <text class="TextShape"><tspan class="TextParagraph" font-family="Liberation Sans, sans-serif" font-size="388px" font-weight="400"><tspan class="TextPosition" x="208" y="1925"><tspan fill="rgb(0,0,0)" stroke="none">70%</tspan></tspan></tspan></text>
 <text class="TextShape"><tspan class="TextParagraph" font-family="Liberation Sans, sans-serif" font-size="494px" font-weight="700"><tspan class="TextPosition" x="887" y="990"><tspan fill="rgb(0,0,0)" stroke="none">EU - pomr potu obt k potu vylench</tspan></tspan></tspan></text>
 <path fill="none" stroke="rgb(255,128,0)" stroke-width="80" stroke-linejoin="round" stroke-dasharray="80,40" d="M 18768,2162 L 20368,2162"/>
 <path fill="none" stroke="rgb(0,0,255)" stroke-width="80" stroke-linejoin="round" stroke-dasharray="80,40" d="M 18768,3017 L 20368,3017"/>
 <path fill="none" stroke="rgb(131,202,255)" stroke-width="80" stroke-linejoin="round" d="M 18768,3872 L 20368,3872"/>
 <path fill="none" stroke="rgb(255,128,0)" stroke-width="80" stroke-linejoin="round" stroke-dasharray="158,158" d="M 18768,4727 L 20368,4727"/>
 <path fill="none" stroke="rgb(180,120,4)" stroke-width="80" stroke-linejoin="round" stroke-dasharray="80,40" d="M 18768,5582 L 20368,5582"/>
 <path fill="none" stroke="rgb(255,0,0)" stroke-width="80" stroke-linejoin="round" stroke-dasharray="158,158" d="M 18768,6437 L 20368,6437"/>
 <path fill="none" stroke="rgb(129,212,26)" stroke-width="80" stroke-linejoin="round" stroke-dasharray="80,40" d="M 18768,7292 L 20368,7292"/>
 <path fill="none" stroke="rgb(131,202,255)" stroke-width="80" stroke-linejoin="round" stroke-dasharray="158,158" d="M 18768,8147 L 20368,8147"/>
 <path fill="none" stroke="rgb(191,0,65)" stroke-width="80" stroke-linejoin="round" stroke-dasharray="51,127,51,127,254,127,254,127,254,127" d="M 18768,9002 L 20368,9002"/>
 <path fill="none" stroke="rgb(0,169,51)" stroke-width="80" stroke-linejoin="round" stroke-dasharray="158,158" d="M 18768,9857 L 20368,9857"/>
 <path fill="none" stroke="rgb(0,169,51)" stroke-width="80" stroke-linejoin="round" stroke-dasharray="80,40" d="M 18768,10712 L 20368,10712"/>
 <path fill="none" stroke="rgb(128,0,128)" stroke-width="80" stroke-linejoin="round" stroke-dasharray="80,40" d="M 18768,11567 L 20368,11567"/>
 <path fill="none" stroke="rgb(128,0,128)" stroke-width="80" stroke-linejoin="round" stroke-dasharray="158,158" d="M 18768,12422 L 20368,12422"/>
 <path fill="none" stroke="rgb(180,120,4)" stroke-width="80" stroke-linejoin="round" d="M 18768,13276 L 20368,13276"/>
 <path fill="none" stroke="rgb(52,42,6)" stroke-width="80" stroke-linejoin="round" d="M 18768,14131 L 20368,14131"/>
 <path fill="none" stroke="rgb(129,212,26)" stroke-width="80" stroke-linejoin="round" stroke-dasharray="158,158" d="M 18768,14986 L 20368,14986"/>
 <path fill="none" stroke="rgb(0,169,51)" stroke-width="80" stroke-linejoin="round" d="M 18768,15841 L 20368,15841"/>
 <path fill="none" stroke="rgb(255,191,0)" stroke-width="80" stroke-linejoin="round" d="M 18768,16696 L 20368,16696"/>
 <path fill="none" stroke="rgb(85,48,141)" stroke-width="80" stroke-linejoin="round" stroke-dasharray="80,40" d="M 18768,17551 L 20368,17551"/>
 <path fill="none" stroke="rgb(131,202,255)" stroke-width="80" stroke-linejoin="round" stroke-dasharray="80,40" d="M 18768,18406 L 20368,18406"/>
 <path fill="none" stroke="rgb(255,191,0)" stroke-width="80" stroke-linejoin="round" stroke-dasharray="158,158" d="M 18768,19261 L 20368,19261"/>
 <path fill="none" stroke="rgb(241,13,12)" stroke-width="80" stroke-linejoin="round" stroke-dasharray="80,40" d="M 18768,20116 L 20368,20116"/>
 <path fill="none" stroke="rgb(0,0,255)" stroke-width="80" stroke-linejoin="round" d="M 18768,20971 L 20368,20971"/>
 <path fill="none" stroke="rgb(0,0,255)" stroke-width="80" stroke-linejoin="round" stroke-dasharray="158,158" d="M 18768,21826 L 20368,21826"/>
 <path fill="none" stroke="rgb(0,0,0)" stroke-width="80" stroke-linejoin="round" stroke-dasharray="158,158" d="M 18768,22681 L 20368,22681"/>
 <text class="TextShape"><tspan class="TextParagraph" font-family="Liberation Sans, sans-serif" font-size="423px" font-weight="400"><tspan class="TextPosition" x="20468" y="2310"><tspan fill="rgb(0,0,0)" stroke="none">Belgie</tspan></tspan></tspan></text>
 <text class="TextShape"><tspan class="TextParagraph" font-family="Liberation Sans, sans-serif" font-size="423px" font-weight="400"><tspan class="TextPosition" x="20468" y="3165"><tspan fill="rgb(0,0,0)" stroke="none">Francie</tspan></tspan></tspan></text>
 <text class="TextShape"><tspan class="TextParagraph" font-family="Liberation Sans, sans-serif" font-size="423px" font-weight="400"><tspan class="TextPosition" x="20468" y="4020"><tspan fill="rgb(0,0,0)" stroke="none">Itlie</tspan></tspan></tspan></text>
 <text class="TextShape"><tspan class="TextParagraph" font-family="Liberation Sans, sans-serif" font-size="423px" font-weight="400"><tspan class="TextPosition" x="20468" y="4875"><tspan fill="rgb(0,0,0)" stroke="none">Maarsko</tspan></tspan></tspan></text>
 <text class="TextShape"><tspan class="TextParagraph" font-family="Liberation Sans, sans-serif" font-size="423px" font-weight="400"><tspan class="TextPosition" x="20468" y="5730"><tspan fill="rgb(0,0,0)" stroke="none">ecko</tspan></tspan></tspan></text>
 <text class="TextShape"><tspan class="TextParagraph" font-family="Liberation Sans, sans-serif" font-size="423px" font-weight="400"><tspan class="TextPosition" x="20468" y="6585"><tspan fill="rgb(0,0,0)" stroke="none">Rumunsko</tspan></tspan></tspan></text>
 <text class="TextShape"><tspan class="TextParagraph" font-family="Liberation Sans, sans-serif" font-size="423px" font-weight="400"><tspan class="TextPosition" x="20468" y="7440"><tspan fill="rgb(0,0,0)" stroke="none">Irsko</tspan></tspan></tspan></text>
 <text class="TextShape"><tspan class="TextParagraph" font-family="Liberation Sans, sans-serif" font-size="423px" font-weight="400"><tspan class="TextPosition" x="20468" y="8295"><tspan fill="rgb(0,0,0)" stroke="none">Slovinsko</tspan></tspan></tspan></text>
 <text class="TextShape"><tspan class="TextParagraph" font-family="Liberation Sans, sans-serif" font-size="423px" font-weight="400"><tspan class="TextPosition" x="20468" y="9150"><tspan fill="rgb(0,0,0)" stroke="none">EU_nov zem</tspan></tspan></tspan></text>
 <text class="TextShape"><tspan class="TextParagraph" font-family="Liberation Sans, sans-serif" font-size="423px" font-weight="400"><tspan class="TextPosition" x="20468" y="10005"><tspan fill="rgb(0,0,0)" stroke="none">Bulharsko</tspan></tspan></tspan></text>
 <text class="TextShape"><tspan class="TextParagraph" font-family="Liberation Sans, sans-serif" font-size="423px" font-weight="400"><tspan class="TextPosition" x="20468" y="10860"><tspan fill="rgb(0,0,0)" stroke="none">Polsko</tspan></tspan></tspan></text>
 <text class="TextShape"><tspan class="TextParagraph" font-family="Liberation Sans, sans-serif" font-size="423px" font-weight="400"><tspan class="TextPosition" x="20468" y="11715"><tspan fill="rgb(0,0,0)" stroke="none">Litva</tspan></tspan></tspan></text>
 <text class="TextShape"><tspan class="TextParagraph" font-family="Liberation Sans, sans-serif" font-size="423px" font-weight="400"><tspan class="TextPosition" x="20468" y="12569"><tspan fill="rgb(0,0,0)" stroke="none">Portugalsko</tspan></tspan></tspan></text>
 <text class="TextShape"><tspan class="TextParagraph" font-family="Liberation Sans, sans-serif" font-size="423px" font-weight="400"><tspan class="TextPosition" x="20468" y="13424"><tspan fill="rgb(0,0,0)" stroke="none">Dnsko</tspan></tspan></tspan></text>
 <text class="TextShape"><tspan class="TextParagraph" font-family="Liberation Sans, sans-serif" font-size="423px" font-weight="400"><tspan class="TextPosition" x="20468" y="14279"><tspan fill="rgb(0,0,0)" stroke="none">Nmecko</tspan></tspan></tspan></text>
 <text class="TextShape"><tspan class="TextParagraph" font-family="Liberation Sans, sans-serif" font-size="423px" font-weight="400"><tspan class="TextPosition" x="20468" y="15134"><tspan fill="rgb(0,0,0)" stroke="none">Finsko</tspan></tspan></tspan></text>
 <text class="TextShape"><tspan class="TextParagraph" font-family="Liberation Sans, sans-serif" font-size="423px" font-weight="400"><tspan class="TextPosition" x="20468" y="15989"><tspan fill="rgb(0,0,0)" stroke="none">Rakousko</tspan></tspan></tspan></text>
 <text class="TextShape"><tspan class="TextParagraph" font-family="Liberation Sans, sans-serif" font-size="423px" font-weight="400"><tspan class="TextPosition" x="20468" y="16844"><tspan fill="rgb(0,0,0)" stroke="none">esko</tspan></tspan></tspan></text>
 <text class="TextShape"><tspan class="TextParagraph" font-family="Liberation Sans, sans-serif" font-size="423px" font-weight="400"><tspan class="TextPosition" x="20468" y="17699"><tspan fill="rgb(0,0,0)" stroke="none">Estonsko</tspan></tspan></tspan></text>
 <text class="TextShape"><tspan class="TextParagraph" font-family="Liberation Sans, sans-serif" font-size="423px" font-weight="400"><tspan class="TextPosition" x="20468" y="18554"><tspan fill="rgb(0,0,0)" stroke="none">Chorvatsko</tspan></tspan></tspan></text>
 <text class="TextShape"><tspan class="TextParagraph" font-family="Liberation Sans, sans-serif" font-size="423px" font-weight="400"><tspan class="TextPosition" x="20468" y="19409"><tspan fill="rgb(0,0,0)" stroke="none">Lotysko</tspan></tspan></tspan></text>
 <text class="TextShape"><tspan class="TextParagraph" font-family="Liberation Sans, sans-serif" font-size="423px" font-weight="400"><tspan class="TextPosition" x="20468" y="20264"><tspan fill="rgb(0,0,0)" stroke="none">Kypr</tspan></tspan></tspan></text>
 <text class="TextShape"><tspan class="TextParagraph" font-family="Liberation Sans, sans-serif" font-size="423px" font-weight="400"><tspan class="TextPosition" x="20468" y="21119"><tspan fill="rgb(0,0,0)" stroke="none">Luxembursko</tspan></tspan></tspan></text>
 <text class="TextShape"><tspan class="TextParagraph" font-family="Liberation Sans, sans-serif" font-size="423px" font-weight="400"><tspan class="TextPosition" x="20468" y="21974"><tspan fill="rgb(0,0,0)" stroke="none">Slovensko</tspan></tspan></tspan></text>
 <text class="TextShape"><tspan class="TextParagraph" font-family="Liberation Sans, sans-serif" font-size="423px" font-weight="400"><tspan class="TextPosition" x="20468" y="22829"><tspan fill="rgb(0,0,0)" stroke="none">Malta</tspan></tspan></tspan></text>
</svg>