<?xml version="1.0" encoding="UTF-8"?>
<!DOCTYPE svg PUBLIC "-//W3C//DTD SVG 1.1//EN" "http://www.w3.org/Graphics/SVG/1.1/DTD/svg11.dtd">
<svg width="236mm" height="161mm" viewBox="0 0 23600 16100" version="1.1" xmlns="http://www.w3.org/2000/svg" xmlns:xlink="http://www.w3.org/1999/xlink" stroke-width="28.222" stroke-linejoin="round" xml:space="preserve">
 <path fill="rgb(255,255,255)" stroke="none" d="M 11801,16126 L 0,16126 0,0 23601,0 23601,16126 11801,16126 Z"/>
 <path fill="none" stroke="rgb(179,179,179)" stroke-linejoin="round" d="M 10781,14425 L 1714,14425 1714,1595 19847,1595 19847,14425 10781,14425 Z"/>
 <path fill="none" stroke="rgb(179,179,179)" stroke-linejoin="round" d="M 19847,14424 L 1714,14424"/>
 <path fill="none" stroke="rgb(179,179,179)" stroke-linejoin="round" d="M 19847,13140 L 1714,13140"/>
 <path fill="none" stroke="rgb(179,179,179)" stroke-linejoin="round" d="M 19847,11857 L 1714,11857"/>
 <path fill="none" stroke="rgb(179,179,179)" stroke-linejoin="round" d="M 19847,10574 L 1714,10574"/>
 <path fill="none" stroke="rgb(179,179,179)" stroke-linejoin="round" d="M 19847,9291 L 1714,9291"/>
 <path fill="none" stroke="rgb(179,179,179)" stroke-linejoin="round" d="M 19847,8009 L 1714,8009"/>
 <path fill="none" stroke="rgb(179,179,179)" stroke-linejoin="round" d="M 19847,6726 L 1714,6726"/>
 <path fill="none" stroke="rgb(179,179,179)" stroke-linejoin="round" d="M 19847,5443 L 1714,5443"/>
 <path fill="none" stroke="rgb(179,179,179)" stroke-linejoin="round" d="M 19847,4160 L 1714,4160"/>
 <path fill="none" stroke="rgb(179,179,179)" stroke-linejoin="round" d="M 19847,2877 L 1714,2877"/>
 <path fill="none" stroke="rgb(179,179,179)" stroke-linejoin="round" d="M 19847,1594 L 1714,1594"/>
 <path fill="none" stroke="rgb(179,179,179)" stroke-linejoin="round" d="M 1714,14574 L 1714,14424"/>
 <path fill="none" stroke="rgb(179,179,179)" stroke-linejoin="round" d="M 1714,14574 L 1714,14424"/>
 <path fill="none" stroke="rgb(179,179,179)" stroke-linejoin="round" d="M 1823,14574 L 1823,14424"/>
 <path fill="none" stroke="rgb(179,179,179)" stroke-linejoin="round" d="M 1823,14574 L 1823,14424"/>
 <path fill="none" stroke="rgb(179,179,179)" stroke-linejoin="round" d="M 1933,14574 L 1933,14424"/>
 <path fill="none" stroke="rgb(179,179,179)" stroke-linejoin="round" d="M 1933,14574 L 1933,14424"/>
 <path fill="none" stroke="rgb(179,179,179)" stroke-linejoin="round" d="M 2043,14574 L 2043,14424"/>
 <path fill="none" stroke="rgb(179,179,179)" stroke-linejoin="round" d="M 2043,14574 L 2043,14424"/>
 <path fill="none" stroke="rgb(179,179,179)" stroke-linejoin="round" d="M 2153,14574 L 2153,14424"/>
 <path fill="none" stroke="rgb(179,179,179)" stroke-linejoin="round" d="M 2153,14574 L 2153,14424"/>
 <path fill="none" stroke="rgb(179,179,179)" stroke-linejoin="round" d="M 2263,14574 L 2263,14424"/>
 <path fill="none" stroke="rgb(179,179,179)" stroke-linejoin="round" d="M 2263,14574 L 2263,14424"/>
 <path fill="none" stroke="rgb(179,179,179)" stroke-linejoin="round" d="M 2373,14574 L 2373,14424"/>
 <path fill="none" stroke="rgb(179,179,179)" stroke-linejoin="round" d="M 2373,14574 L 2373,14424"/>
 <path fill="none" stroke="rgb(179,179,179)" stroke-linejoin="round" d="M 2483,14574 L 2483,14424"/>
 <path fill="none" stroke="rgb(179,179,179)" stroke-linejoin="round" d="M 2483,14574 L 2483,14424"/>
 <path fill="none" stroke="rgb(179,179,179)" stroke-linejoin="round" d="M 2593,14574 L 2593,14424"/>
 <path fill="none" stroke="rgb(179,179,179)" stroke-linejoin="round" d="M 2593,14574 L 2593,14424"/>
 <path fill="none" stroke="rgb(179,179,179)" stroke-linejoin="round" d="M 2703,14574 L 2703,14424"/>
 <path fill="none" stroke="rgb(179,179,179)" stroke-linejoin="round" d="M 2703,14574 L 2703,14424"/>
 <path fill="none" stroke="rgb(179,179,179)" stroke-linejoin="round" d="M 2813,14574 L 2813,14424"/>
 <path fill="none" stroke="rgb(179,179,179)" stroke-linejoin="round" d="M 2813,14574 L 2813,14424"/>
 <path fill="none" stroke="rgb(179,179,179)" stroke-linejoin="round" d="M 2922,14574 L 2922,14424"/>
 <path fill="none" stroke="rgb(179,179,179)" stroke-linejoin="round" d="M 2922,14574 L 2922,14424"/>
 <path fill="none" stroke="rgb(179,179,179)" stroke-linejoin="round" d="M 3032,14574 L 3032,14424"/>
 <path fill="none" stroke="rgb(179,179,179)" stroke-linejoin="round" d="M 3032,14574 L 3032,14424"/>
 <path fill="none" stroke="rgb(179,179,179)" stroke-linejoin="round" d="M 3142,14574 L 3142,14424"/>
 <path fill="none" stroke="rgb(179,179,179)" stroke-linejoin="round" d="M 3142,14574 L 3142,14424"/>
 <path fill="none" stroke="rgb(179,179,179)" stroke-linejoin="round" d="M 3252,14574 L 3252,14424"/>
 <path fill="none" stroke="rgb(179,179,179)" stroke-linejoin="round" d="M 3252,14574 L 3252,14424"/>
 <path fill="none" stroke="rgb(179,179,179)" stroke-linejoin="round" d="M 3362,14574 L 3362,14424"/>
 <path fill="none" stroke="rgb(179,179,179)" stroke-linejoin="round" d="M 3362,14574 L 3362,14424"/>
 <path fill="none" stroke="rgb(179,179,179)" stroke-linejoin="round" d="M 3472,14574 L 3472,14424"/>
 <path fill="none" stroke="rgb(179,179,179)" stroke-linejoin="round" d="M 3472,14574 L 3472,14424"/>
 <path fill="none" stroke="rgb(179,179,179)" stroke-linejoin="round" d="M 3582,14574 L 3582,14424"/>
 <path fill="none" stroke="rgb(179,179,179)" stroke-linejoin="round" d="M 3582,14574 L 3582,14424"/>
 <path fill="none" stroke="rgb(179,179,179)" stroke-linejoin="round" d="M 3692,14574 L 3692,14424"/>
 <path fill="none" stroke="rgb(179,179,179)" stroke-linejoin="round" d="M 3692,14574 L 3692,14424"/>
 <path fill="none" stroke="rgb(179,179,179)" stroke-linejoin="round" d="M 3802,14574 L 3802,14424"/>
 <path fill="none" stroke="rgb(179,179,179)" stroke-linejoin="round" d="M 3802,14574 L 3802,14424"/>
 <path fill="none" stroke="rgb(179,179,179)" stroke-linejoin="round" d="M 3912,14574 L 3912,14424"/>
 <path fill="none" stroke="rgb(179,179,179)" stroke-linejoin="round" d="M 3912,14574 L 3912,14424"/>
 <path fill="none" stroke="rgb(179,179,179)" stroke-linejoin="round" d="M 4021,14574 L 4021,14424"/>
 <path fill="none" stroke="rgb(179,179,179)" stroke-linejoin="round" d="M 4021,14574 L 4021,14424"/>
 <path fill="none" stroke="rgb(179,179,179)" stroke-linejoin="round" d="M 4131,14574 L 4131,14424"/>
 <path fill="none" stroke="rgb(179,179,179)" stroke-linejoin="round" d="M 4131,14574 L 4131,14424"/>
 <path fill="none" stroke="rgb(179,179,179)" stroke-linejoin="round" d="M 4241,14574 L 4241,14424"/>
 <path fill="none" stroke="rgb(179,179,179)" stroke-linejoin="round" d="M 4241,14574 L 4241,14424"/>
 <path fill="none" stroke="rgb(179,179,179)" stroke-linejoin="round" d="M 4351,14574 L 4351,14424"/>
 <path fill="none" stroke="rgb(179,179,179)" stroke-linejoin="round" d="M 4351,14574 L 4351,14424"/>
 <path fill="none" stroke="rgb(179,179,179)" stroke-linejoin="round" d="M 4461,14574 L 4461,14424"/>
 <path fill="none" stroke="rgb(179,179,179)" stroke-linejoin="round" d="M 4461,14574 L 4461,14424"/>
 <path fill="none" stroke="rgb(179,179,179)" stroke-linejoin="round" d="M 4571,14574 L 4571,14424"/>
 <path fill="none" stroke="rgb(179,179,179)" stroke-linejoin="round" d="M 4571,14574 L 4571,14424"/>
 <path fill="none" stroke="rgb(179,179,179)" stroke-linejoin="round" d="M 4681,14574 L 4681,14424"/>
 <path fill="none" stroke="rgb(179,179,179)" stroke-linejoin="round" d="M 4681,14574 L 4681,14424"/>
 <path fill="none" stroke="rgb(179,179,179)" stroke-linejoin="round" d="M 4791,14574 L 4791,14424"/>
 <path fill="none" stroke="rgb(179,179,179)" stroke-linejoin="round" d="M 4791,14574 L 4791,14424"/>
 <path fill="none" stroke="rgb(179,179,179)" stroke-linejoin="round" d="M 4901,14574 L 4901,14424"/>
 <path fill="none" stroke="rgb(179,179,179)" stroke-linejoin="round" d="M 4901,14574 L 4901,14424"/>
 <path fill="none" stroke="rgb(179,179,179)" stroke-linejoin="round" d="M 5011,14574 L 5011,14424"/>
 <path fill="none" stroke="rgb(179,179,179)" stroke-linejoin="round" d="M 5011,14574 L 5011,14424"/>
 <path fill="none" stroke="rgb(179,179,179)" stroke-linejoin="round" d="M 5120,14574 L 5120,14424"/>
 <path fill="none" stroke="rgb(179,179,179)" stroke-linejoin="round" d="M 5120,14574 L 5120,14424"/>
 <path fill="none" stroke="rgb(179,179,179)" stroke-linejoin="round" d="M 5230,14574 L 5230,14424"/>
 <path fill="none" stroke="rgb(179,179,179)" stroke-linejoin="round" d="M 5230,14574 L 5230,14424"/>
 <path fill="none" stroke="rgb(179,179,179)" stroke-linejoin="round" d="M 5340,14574 L 5340,14424"/>
 <path fill="none" stroke="rgb(179,179,179)" stroke-linejoin="round" d="M 5340,14574 L 5340,14424"/>
 <path fill="none" stroke="rgb(179,179,179)" stroke-linejoin="round" d="M 5450,14574 L 5450,14424"/>
 <path fill="none" stroke="rgb(179,179,179)" stroke-linejoin="round" d="M 5450,14574 L 5450,14424"/>
 <path fill="none" stroke="rgb(179,179,179)" stroke-linejoin="round" d="M 5560,14574 L 5560,14424"/>
 <path fill="none" stroke="rgb(179,179,179)" stroke-linejoin="round" d="M 5560,14574 L 5560,14424"/>
 <path fill="none" stroke="rgb(179,179,179)" stroke-linejoin="round" d="M 5670,14574 L 5670,14424"/>
 <path fill="none" stroke="rgb(179,179,179)" stroke-linejoin="round" d="M 5670,14574 L 5670,14424"/>
 <path fill="none" stroke="rgb(179,179,179)" stroke-linejoin="round" d="M 5780,14574 L 5780,14424"/>
 <path fill="none" stroke="rgb(179,179,179)" stroke-linejoin="round" d="M 5780,14574 L 5780,14424"/>
 <path fill="none" stroke="rgb(179,179,179)" stroke-linejoin="round" d="M 5890,14574 L 5890,14424"/>
 <path fill="none" stroke="rgb(179,179,179)" stroke-linejoin="round" d="M 5890,14574 L 5890,14424"/>
 <path fill="none" stroke="rgb(179,179,179)" stroke-linejoin="round" d="M 6000,14574 L 6000,14424"/>
 <path fill="none" stroke="rgb(179,179,179)" stroke-linejoin="round" d="M 6000,14574 L 6000,14424"/>
 <path fill="none" stroke="rgb(179,179,179)" stroke-linejoin="round" d="M 6110,14574 L 6110,14424"/>
 <path fill="none" stroke="rgb(179,179,179)" stroke-linejoin="round" d="M 6110,14574 L 6110,14424"/>
 <path fill="none" stroke="rgb(179,179,179)" stroke-linejoin="round" d="M 6220,14574 L 6220,14424"/>
 <path fill="none" stroke="rgb(179,179,179)" stroke-linejoin="round" d="M 6220,14574 L 6220,14424"/>
 <path fill="none" stroke="rgb(179,179,179)" stroke-linejoin="round" d="M 6329,14574 L 6329,14424"/>
 <path fill="none" stroke="rgb(179,179,179)" stroke-linejoin="round" d="M 6329,14574 L 6329,14424"/>
 <path fill="none" stroke="rgb(179,179,179)" stroke-linejoin="round" d="M 6439,14574 L 6439,14424"/>
 <path fill="none" stroke="rgb(179,179,179)" stroke-linejoin="round" d="M 6439,14574 L 6439,14424"/>
 <path fill="none" stroke="rgb(179,179,179)" stroke-linejoin="round" d="M 6549,14574 L 6549,14424"/>
 <path fill="none" stroke="rgb(179,179,179)" stroke-linejoin="round" d="M 6549,14574 L 6549,14424"/>
 <path fill="none" stroke="rgb(179,179,179)" stroke-linejoin="round" d="M 6659,14574 L 6659,14424"/>
 <path fill="none" stroke="rgb(179,179,179)" stroke-linejoin="round" d="M 6659,14574 L 6659,14424"/>
 <path fill="none" stroke="rgb(179,179,179)" stroke-linejoin="round" d="M 6769,14574 L 6769,14424"/>
 <path fill="none" stroke="rgb(179,179,179)" stroke-linejoin="round" d="M 6769,14574 L 6769,14424"/>
 <path fill="none" stroke="rgb(179,179,179)" stroke-linejoin="round" d="M 6879,14574 L 6879,14424"/>
 <path fill="none" stroke="rgb(179,179,179)" stroke-linejoin="round" d="M 6879,14574 L 6879,14424"/>
 <path fill="none" stroke="rgb(179,179,179)" stroke-linejoin="round" d="M 6989,14574 L 6989,14424"/>
 <path fill="none" stroke="rgb(179,179,179)" stroke-linejoin="round" d="M 6989,14574 L 6989,14424"/>
 <path fill="none" stroke="rgb(179,179,179)" stroke-linejoin="round" d="M 7099,14574 L 7099,14424"/>
 <path fill="none" stroke="rgb(179,179,179)" stroke-linejoin="round" d="M 7099,14574 L 7099,14424"/>
 <path fill="none" stroke="rgb(179,179,179)" stroke-linejoin="round" d="M 7209,14574 L 7209,14424"/>
 <path fill="none" stroke="rgb(179,179,179)" stroke-linejoin="round" d="M 7209,14574 L 7209,14424"/>
 <path fill="none" stroke="rgb(179,179,179)" stroke-linejoin="round" d="M 7319,14574 L 7319,14424"/>
 <path fill="none" stroke="rgb(179,179,179)" stroke-linejoin="round" d="M 7319,14574 L 7319,14424"/>
 <path fill="none" stroke="rgb(179,179,179)" stroke-linejoin="round" d="M 7428,14574 L 7428,14424"/>
 <path fill="none" stroke="rgb(179,179,179)" stroke-linejoin="round" d="M 7428,14574 L 7428,14424"/>
 <path fill="none" stroke="rgb(179,179,179)" stroke-linejoin="round" d="M 7538,14574 L 7538,14424"/>
 <path fill="none" stroke="rgb(179,179,179)" stroke-linejoin="round" d="M 7538,14574 L 7538,14424"/>
 <path fill="none" stroke="rgb(179,179,179)" stroke-linejoin="round" d="M 7648,14574 L 7648,14424"/>
 <path fill="none" stroke="rgb(179,179,179)" stroke-linejoin="round" d="M 7648,14574 L 7648,14424"/>
 <path fill="none" stroke="rgb(179,179,179)" stroke-linejoin="round" d="M 7758,14574 L 7758,14424"/>
 <path fill="none" stroke="rgb(179,179,179)" stroke-linejoin="round" d="M 7758,14574 L 7758,14424"/>
 <path fill="none" stroke="rgb(179,179,179)" stroke-linejoin="round" d="M 7868,14574 L 7868,14424"/>
 <path fill="none" stroke="rgb(179,179,179)" stroke-linejoin="round" d="M 7868,14574 L 7868,14424"/>
 <path fill="none" stroke="rgb(179,179,179)" stroke-linejoin="round" d="M 7978,14574 L 7978,14424"/>
 <path fill="none" stroke="rgb(179,179,179)" stroke-linejoin="round" d="M 7978,14574 L 7978,14424"/>
 <path fill="none" stroke="rgb(179,179,179)" stroke-linejoin="round" d="M 8088,14574 L 8088,14424"/>
 <path fill="none" stroke="rgb(179,179,179)" stroke-linejoin="round" d="M 8088,14574 L 8088,14424"/>
 <path fill="none" stroke="rgb(179,179,179)" stroke-linejoin="round" d="M 8198,14574 L 8198,14424"/>
 <path fill="none" stroke="rgb(179,179,179)" stroke-linejoin="round" d="M 8198,14574 L 8198,14424"/>
 <path fill="none" stroke="rgb(179,179,179)" stroke-linejoin="round" d="M 8308,14574 L 8308,14424"/>
 <path fill="none" stroke="rgb(179,179,179)" stroke-linejoin="round" d="M 8308,14574 L 8308,14424"/>
 <path fill="none" stroke="rgb(179,179,179)" stroke-linejoin="round" d="M 8418,14574 L 8418,14424"/>
 <path fill="none" stroke="rgb(179,179,179)" stroke-linejoin="round" d="M 8418,14574 L 8418,14424"/>
 <path fill="none" stroke="rgb(179,179,179)" stroke-linejoin="round" d="M 8527,14574 L 8527,14424"/>
 <path fill="none" stroke="rgb(179,179,179)" stroke-linejoin="round" d="M 8527,14574 L 8527,14424"/>
 <path fill="none" stroke="rgb(179,179,179)" stroke-linejoin="round" d="M 8637,14574 L 8637,14424"/>
 <path fill="none" stroke="rgb(179,179,179)" stroke-linejoin="round" d="M 8637,14574 L 8637,14424"/>
 <path fill="none" stroke="rgb(179,179,179)" stroke-linejoin="round" d="M 8747,14574 L 8747,14424"/>
 <path fill="none" stroke="rgb(179,179,179)" stroke-linejoin="round" d="M 8747,14574 L 8747,14424"/>
 <path fill="none" stroke="rgb(179,179,179)" stroke-linejoin="round" d="M 8857,14574 L 8857,14424"/>
 <path fill="none" stroke="rgb(179,179,179)" stroke-linejoin="round" d="M 8857,14574 L 8857,14424"/>
 <path fill="none" stroke="rgb(179,179,179)" stroke-linejoin="round" d="M 8967,14574 L 8967,14424"/>
 <path fill="none" stroke="rgb(179,179,179)" stroke-linejoin="round" d="M 8967,14574 L 8967,14424"/>
 <path fill="none" stroke="rgb(179,179,179)" stroke-linejoin="round" d="M 9077,14574 L 9077,14424"/>
 <path fill="none" stroke="rgb(179,179,179)" stroke-linejoin="round" d="M 9077,14574 L 9077,14424"/>
 <path fill="none" stroke="rgb(179,179,179)" stroke-linejoin="round" d="M 9187,14574 L 9187,14424"/>
 <path fill="none" stroke="rgb(179,179,179)" stroke-linejoin="round" d="M 9187,14574 L 9187,14424"/>
 <path fill="none" stroke="rgb(179,179,179)" stroke-linejoin="round" d="M 9297,14574 L 9297,14424"/>
 <path fill="none" stroke="rgb(179,179,179)" stroke-linejoin="round" d="M 9297,14574 L 9297,14424"/>
 <path fill="none" stroke="rgb(179,179,179)" stroke-linejoin="round" d="M 9407,14574 L 9407,14424"/>
 <path fill="none" stroke="rgb(179,179,179)" stroke-linejoin="round" d="M 9407,14574 L 9407,14424"/>
 <path fill="none" stroke="rgb(179,179,179)" stroke-linejoin="round" d="M 9517,14574 L 9517,14424"/>
 <path fill="none" stroke="rgb(179,179,179)" stroke-linejoin="round" d="M 9517,14574 L 9517,14424"/>
 <path fill="none" stroke="rgb(179,179,179)" stroke-linejoin="round" d="M 9627,14574 L 9627,14424"/>
 <path fill="none" stroke="rgb(179,179,179)" stroke-linejoin="round" d="M 9627,14574 L 9627,14424"/>
 <path fill="none" stroke="rgb(179,179,179)" stroke-linejoin="round" d="M 9736,14574 L 9736,14424"/>
 <path fill="none" stroke="rgb(179,179,179)" stroke-linejoin="round" d="M 9736,14574 L 9736,14424"/>
 <path fill="none" stroke="rgb(179,179,179)" stroke-linejoin="round" d="M 9846,14574 L 9846,14424"/>
 <path fill="none" stroke="rgb(179,179,179)" stroke-linejoin="round" d="M 9846,14574 L 9846,14424"/>
 <path fill="none" stroke="rgb(179,179,179)" stroke-linejoin="round" d="M 9956,14574 L 9956,14424"/>
 <path fill="none" stroke="rgb(179,179,179)" stroke-linejoin="round" d="M 9956,14574 L 9956,14424"/>
 <path fill="none" stroke="rgb(179,179,179)" stroke-linejoin="round" d="M 10066,14574 L 10066,14424"/>
 <path fill="none" stroke="rgb(179,179,179)" stroke-linejoin="round" d="M 10066,14574 L 10066,14424"/>
 <path fill="none" stroke="rgb(179,179,179)" stroke-linejoin="round" d="M 10176,14574 L 10176,14424"/>
 <path fill="none" stroke="rgb(179,179,179)" stroke-linejoin="round" d="M 10176,14574 L 10176,14424"/>
 <path fill="none" stroke="rgb(179,179,179)" stroke-linejoin="round" d="M 10286,14574 L 10286,14424"/>
 <path fill="none" stroke="rgb(179,179,179)" stroke-linejoin="round" d="M 10286,14574 L 10286,14424"/>
 <path fill="none" stroke="rgb(179,179,179)" stroke-linejoin="round" d="M 10396,14574 L 10396,14424"/>
 <path fill="none" stroke="rgb(179,179,179)" stroke-linejoin="round" d="M 10396,14574 L 10396,14424"/>
 <path fill="none" stroke="rgb(179,179,179)" stroke-linejoin="round" d="M 10506,14574 L 10506,14424"/>
 <path fill="none" stroke="rgb(179,179,179)" stroke-linejoin="round" d="M 10506,14574 L 10506,14424"/>
 <path fill="none" stroke="rgb(179,179,179)" stroke-linejoin="round" d="M 10616,14574 L 10616,14424"/>
 <path fill="none" stroke="rgb(179,179,179)" stroke-linejoin="round" d="M 10616,14574 L 10616,14424"/>
 <path fill="none" stroke="rgb(179,179,179)" stroke-linejoin="round" d="M 10726,14574 L 10726,14424"/>
 <path fill="none" stroke="rgb(179,179,179)" stroke-linejoin="round" d="M 10726,14574 L 10726,14424"/>
 <path fill="none" stroke="rgb(179,179,179)" stroke-linejoin="round" d="M 10835,14574 L 10835,14424"/>
 <path fill="none" stroke="rgb(179,179,179)" stroke-linejoin="round" d="M 10835,14574 L 10835,14424"/>
 <path fill="none" stroke="rgb(179,179,179)" stroke-linejoin="round" d="M 10945,14574 L 10945,14424"/>
 <path fill="none" stroke="rgb(179,179,179)" stroke-linejoin="round" d="M 10945,14574 L 10945,14424"/>
 <path fill="none" stroke="rgb(179,179,179)" stroke-linejoin="round" d="M 11055,14574 L 11055,14424"/>
 <path fill="none" stroke="rgb(179,179,179)" stroke-linejoin="round" d="M 11055,14574 L 11055,14424"/>
 <path fill="none" stroke="rgb(179,179,179)" stroke-linejoin="round" d="M 11165,14574 L 11165,14424"/>
 <path fill="none" stroke="rgb(179,179,179)" stroke-linejoin="round" d="M 11165,14574 L 11165,14424"/>
 <path fill="none" stroke="rgb(179,179,179)" stroke-linejoin="round" d="M 11275,14574 L 11275,14424"/>
 <path fill="none" stroke="rgb(179,179,179)" stroke-linejoin="round" d="M 11275,14574 L 11275,14424"/>
 <path fill="none" stroke="rgb(179,179,179)" stroke-linejoin="round" d="M 11385,14574 L 11385,14424"/>
 <path fill="none" stroke="rgb(179,179,179)" stroke-linejoin="round" d="M 11385,14574 L 11385,14424"/>
 <path fill="none" stroke="rgb(179,179,179)" stroke-linejoin="round" d="M 11495,14574 L 11495,14424"/>
 <path fill="none" stroke="rgb(179,179,179)" stroke-linejoin="round" d="M 11495,14574 L 11495,14424"/>
 <path fill="none" stroke="rgb(179,179,179)" stroke-linejoin="round" d="M 11605,14574 L 11605,14424"/>
 <path fill="none" stroke="rgb(179,179,179)" stroke-linejoin="round" d="M 11605,14574 L 11605,14424"/>
 <path fill="none" stroke="rgb(179,179,179)" stroke-linejoin="round" d="M 11715,14574 L 11715,14424"/>
 <path fill="none" stroke="rgb(179,179,179)" stroke-linejoin="round" d="M 11715,14574 L 11715,14424"/>
 <path fill="none" stroke="rgb(179,179,179)" stroke-linejoin="round" d="M 11824,14574 L 11824,14424"/>
 <path fill="none" stroke="rgb(179,179,179)" stroke-linejoin="round" d="M 11824,14574 L 11824,14424"/>
 <path fill="none" stroke="rgb(179,179,179)" stroke-linejoin="round" d="M 11933,14574 L 11933,14424"/>
 <path fill="none" stroke="rgb(179,179,179)" stroke-linejoin="round" d="M 11933,14574 L 11933,14424"/>
 <path fill="none" stroke="rgb(179,179,179)" stroke-linejoin="round" d="M 12043,14574 L 12043,14424"/>
 <path fill="none" stroke="rgb(179,179,179)" stroke-linejoin="round" d="M 12043,14574 L 12043,14424"/>
 <path fill="none" stroke="rgb(179,179,179)" stroke-linejoin="round" d="M 12153,14574 L 12153,14424"/>
 <path fill="none" stroke="rgb(179,179,179)" stroke-linejoin="round" d="M 12153,14574 L 12153,14424"/>
 <path fill="none" stroke="rgb(179,179,179)" stroke-linejoin="round" d="M 12263,14574 L 12263,14424"/>
 <path fill="none" stroke="rgb(179,179,179)" stroke-linejoin="round" d="M 12263,14574 L 12263,14424"/>
 <path fill="none" stroke="rgb(179,179,179)" stroke-linejoin="round" d="M 12373,14574 L 12373,14424"/>
 <path fill="none" stroke="rgb(179,179,179)" stroke-linejoin="round" d="M 12373,14574 L 12373,14424"/>
 <path fill="none" stroke="rgb(179,179,179)" stroke-linejoin="round" d="M 12483,14574 L 12483,14424"/>
 <path fill="none" stroke="rgb(179,179,179)" stroke-linejoin="round" d="M 12483,14574 L 12483,14424"/>
 <path fill="none" stroke="rgb(179,179,179)" stroke-linejoin="round" d="M 12593,14574 L 12593,14424"/>
 <path fill="none" stroke="rgb(179,179,179)" stroke-linejoin="round" d="M 12593,14574 L 12593,14424"/>
 <path fill="none" stroke="rgb(179,179,179)" stroke-linejoin="round" d="M 12703,14574 L 12703,14424"/>
 <path fill="none" stroke="rgb(179,179,179)" stroke-linejoin="round" d="M 12703,14574 L 12703,14424"/>
 <path fill="none" stroke="rgb(179,179,179)" stroke-linejoin="round" d="M 12813,14574 L 12813,14424"/>
 <path fill="none" stroke="rgb(179,179,179)" stroke-linejoin="round" d="M 12813,14574 L 12813,14424"/>
 <path fill="none" stroke="rgb(179,179,179)" stroke-linejoin="round" d="M 12923,14574 L 12923,14424"/>
 <path fill="none" stroke="rgb(179,179,179)" stroke-linejoin="round" d="M 12923,14574 L 12923,14424"/>
 <path fill="none" stroke="rgb(179,179,179)" stroke-linejoin="round" d="M 13033,14574 L 13033,14424"/>
 <path fill="none" stroke="rgb(179,179,179)" stroke-linejoin="round" d="M 13033,14574 L 13033,14424"/>
 <path fill="none" stroke="rgb(179,179,179)" stroke-linejoin="round" d="M 13142,14574 L 13142,14424"/>
 <path fill="none" stroke="rgb(179,179,179)" stroke-linejoin="round" d="M 13142,14574 L 13142,14424"/>
 <path fill="none" stroke="rgb(179,179,179)" stroke-linejoin="round" d="M 13252,14574 L 13252,14424"/>
 <path fill="none" stroke="rgb(179,179,179)" stroke-linejoin="round" d="M 13252,14574 L 13252,14424"/>
 <path fill="none" stroke="rgb(179,179,179)" stroke-linejoin="round" d="M 13362,14574 L 13362,14424"/>
 <path fill="none" stroke="rgb(179,179,179)" stroke-linejoin="round" d="M 13362,14574 L 13362,14424"/>
 <path fill="none" stroke="rgb(179,179,179)" stroke-linejoin="round" d="M 13472,14574 L 13472,14424"/>
 <path fill="none" stroke="rgb(179,179,179)" stroke-linejoin="round" d="M 13472,14574 L 13472,14424"/>
 <path fill="none" stroke="rgb(179,179,179)" stroke-linejoin="round" d="M 13582,14574 L 13582,14424"/>
 <path fill="none" stroke="rgb(179,179,179)" stroke-linejoin="round" d="M 13582,14574 L 13582,14424"/>
 <path fill="none" stroke="rgb(179,179,179)" stroke-linejoin="round" d="M 13692,14574 L 13692,14424"/>
 <path fill="none" stroke="rgb(179,179,179)" stroke-linejoin="round" d="M 13692,14574 L 13692,14424"/>
 <path fill="none" stroke="rgb(179,179,179)" stroke-linejoin="round" d="M 13802,14574 L 13802,14424"/>
 <path fill="none" stroke="rgb(179,179,179)" stroke-linejoin="round" d="M 13802,14574 L 13802,14424"/>
 <path fill="none" stroke="rgb(179,179,179)" stroke-linejoin="round" d="M 13912,14574 L 13912,14424"/>
 <path fill="none" stroke="rgb(179,179,179)" stroke-linejoin="round" d="M 13912,14574 L 13912,14424"/>
 <path fill="none" stroke="rgb(179,179,179)" stroke-linejoin="round" d="M 14022,14574 L 14022,14424"/>
 <path fill="none" stroke="rgb(179,179,179)" stroke-linejoin="round" d="M 14022,14574 L 14022,14424"/>
 <path fill="none" stroke="rgb(179,179,179)" stroke-linejoin="round" d="M 14132,14574 L 14132,14424"/>
 <path fill="none" stroke="rgb(179,179,179)" stroke-linejoin="round" d="M 14132,14574 L 14132,14424"/>
 <path fill="none" stroke="rgb(179,179,179)" stroke-linejoin="round" d="M 14241,14574 L 14241,14424"/>
 <path fill="none" stroke="rgb(179,179,179)" stroke-linejoin="round" d="M 14241,14574 L 14241,14424"/>
 <path fill="none" stroke="rgb(179,179,179)" stroke-linejoin="round" d="M 14351,14574 L 14351,14424"/>
 <path fill="none" stroke="rgb(179,179,179)" stroke-linejoin="round" d="M 14351,14574 L 14351,14424"/>
 <path fill="none" stroke="rgb(179,179,179)" stroke-linejoin="round" d="M 14461,14574 L 14461,14424"/>
 <path fill="none" stroke="rgb(179,179,179)" stroke-linejoin="round" d="M 14461,14574 L 14461,14424"/>
 <path fill="none" stroke="rgb(179,179,179)" stroke-linejoin="round" d="M 14571,14574 L 14571,14424"/>
 <path fill="none" stroke="rgb(179,179,179)" stroke-linejoin="round" d="M 14571,14574 L 14571,14424"/>
 <path fill="none" stroke="rgb(179,179,179)" stroke-linejoin="round" d="M 14681,14574 L 14681,14424"/>
 <path fill="none" stroke="rgb(179,179,179)" stroke-linejoin="round" d="M 14681,14574 L 14681,14424"/>
 <path fill="none" stroke="rgb(179,179,179)" stroke-linejoin="round" d="M 14791,14574 L 14791,14424"/>
 <path fill="none" stroke="rgb(179,179,179)" stroke-linejoin="round" d="M 14791,14574 L 14791,14424"/>
 <path fill="none" stroke="rgb(179,179,179)" stroke-linejoin="round" d="M 14901,14574 L 14901,14424"/>
 <path fill="none" stroke="rgb(179,179,179)" stroke-linejoin="round" d="M 14901,14574 L 14901,14424"/>
 <path fill="none" stroke="rgb(179,179,179)" stroke-linejoin="round" d="M 15011,14574 L 15011,14424"/>
 <path fill="none" stroke="rgb(179,179,179)" stroke-linejoin="round" d="M 15011,14574 L 15011,14424"/>
 <path fill="none" stroke="rgb(179,179,179)" stroke-linejoin="round" d="M 15121,14574 L 15121,14424"/>
 <path fill="none" stroke="rgb(179,179,179)" stroke-linejoin="round" d="M 15121,14574 L 15121,14424"/>
 <path fill="none" stroke="rgb(179,179,179)" stroke-linejoin="round" d="M 15231,14574 L 15231,14424"/>
 <path fill="none" stroke="rgb(179,179,179)" stroke-linejoin="round" d="M 15231,14574 L 15231,14424"/>
 <path fill="none" stroke="rgb(179,179,179)" stroke-linejoin="round" d="M 15340,14574 L 15340,14424"/>
 <path fill="none" stroke="rgb(179,179,179)" stroke-linejoin="round" d="M 15340,14574 L 15340,14424"/>
 <path fill="none" stroke="rgb(179,179,179)" stroke-linejoin="round" d="M 15450,14574 L 15450,14424"/>
 <path fill="none" stroke="rgb(179,179,179)" stroke-linejoin="round" d="M 15450,14574 L 15450,14424"/>
 <path fill="none" stroke="rgb(179,179,179)" stroke-linejoin="round" d="M 15560,14574 L 15560,14424"/>
 <path fill="none" stroke="rgb(179,179,179)" stroke-linejoin="round" d="M 15560,14574 L 15560,14424"/>
 <path fill="none" stroke="rgb(179,179,179)" stroke-linejoin="round" d="M 15670,14574 L 15670,14424"/>
 <path fill="none" stroke="rgb(179,179,179)" stroke-linejoin="round" d="M 15670,14574 L 15670,14424"/>
 <path fill="none" stroke="rgb(179,179,179)" stroke-linejoin="round" d="M 15780,14574 L 15780,14424"/>
 <path fill="none" stroke="rgb(179,179,179)" stroke-linejoin="round" d="M 15780,14574 L 15780,14424"/>
 <path fill="none" stroke="rgb(179,179,179)" stroke-linejoin="round" d="M 15890,14574 L 15890,14424"/>
 <path fill="none" stroke="rgb(179,179,179)" stroke-linejoin="round" d="M 15890,14574 L 15890,14424"/>
 <path fill="none" stroke="rgb(179,179,179)" stroke-linejoin="round" d="M 16000,14574 L 16000,14424"/>
 <path fill="none" stroke="rgb(179,179,179)" stroke-linejoin="round" d="M 16000,14574 L 16000,14424"/>
 <path fill="none" stroke="rgb(179,179,179)" stroke-linejoin="round" d="M 16110,14574 L 16110,14424"/>
 <path fill="none" stroke="rgb(179,179,179)" stroke-linejoin="round" d="M 16110,14574 L 16110,14424"/>
 <path fill="none" stroke="rgb(179,179,179)" stroke-linejoin="round" d="M 16220,14574 L 16220,14424"/>
 <path fill="none" stroke="rgb(179,179,179)" stroke-linejoin="round" d="M 16220,14574 L 16220,14424"/>
 <path fill="none" stroke="rgb(179,179,179)" stroke-linejoin="round" d="M 16330,14574 L 16330,14424"/>
 <path fill="none" stroke="rgb(179,179,179)" stroke-linejoin="round" d="M 16330,14574 L 16330,14424"/>
 <path fill="none" stroke="rgb(179,179,179)" stroke-linejoin="round" d="M 16440,14574 L 16440,14424"/>
 <path fill="none" stroke="rgb(179,179,179)" stroke-linejoin="round" d="M 16440,14574 L 16440,14424"/>
 <path fill="none" stroke="rgb(179,179,179)" stroke-linejoin="round" d="M 16549,14574 L 16549,14424"/>
 <path fill="none" stroke="rgb(179,179,179)" stroke-linejoin="round" d="M 16549,14574 L 16549,14424"/>
 <path fill="none" stroke="rgb(179,179,179)" stroke-linejoin="round" d="M 16659,14574 L 16659,14424"/>
 <path fill="none" stroke="rgb(179,179,179)" stroke-linejoin="round" d="M 16659,14574 L 16659,14424"/>
 <path fill="none" stroke="rgb(179,179,179)" stroke-linejoin="round" d="M 16769,14574 L 16769,14424"/>
 <path fill="none" stroke="rgb(179,179,179)" stroke-linejoin="round" d="M 16769,14574 L 16769,14424"/>
 <path fill="none" stroke="rgb(179,179,179)" stroke-linejoin="round" d="M 16879,14574 L 16879,14424"/>
 <path fill="none" stroke="rgb(179,179,179)" stroke-linejoin="round" d="M 16879,14574 L 16879,14424"/>
 <path fill="none" stroke="rgb(179,179,179)" stroke-linejoin="round" d="M 16989,14574 L 16989,14424"/>
 <path fill="none" stroke="rgb(179,179,179)" stroke-linejoin="round" d="M 16989,14574 L 16989,14424"/>
 <path fill="none" stroke="rgb(179,179,179)" stroke-linejoin="round" d="M 17099,14574 L 17099,14424"/>
 <path fill="none" stroke="rgb(179,179,179)" stroke-linejoin="round" d="M 17099,14574 L 17099,14424"/>
 <path fill="none" stroke="rgb(179,179,179)" stroke-linejoin="round" d="M 17209,14574 L 17209,14424"/>
 <path fill="none" stroke="rgb(179,179,179)" stroke-linejoin="round" d="M 17209,14574 L 17209,14424"/>
 <path fill="none" stroke="rgb(179,179,179)" stroke-linejoin="round" d="M 17319,14574 L 17319,14424"/>
 <path fill="none" stroke="rgb(179,179,179)" stroke-linejoin="round" d="M 17319,14574 L 17319,14424"/>
 <path fill="none" stroke="rgb(179,179,179)" stroke-linejoin="round" d="M 17429,14574 L 17429,14424"/>
 <path fill="none" stroke="rgb(179,179,179)" stroke-linejoin="round" d="M 17429,14574 L 17429,14424"/>
 <path fill="none" stroke="rgb(179,179,179)" stroke-linejoin="round" d="M 17539,14574 L 17539,14424"/>
 <path fill="none" stroke="rgb(179,179,179)" stroke-linejoin="round" d="M 17539,14574 L 17539,14424"/>
 <path fill="none" stroke="rgb(179,179,179)" stroke-linejoin="round" d="M 17648,14574 L 17648,14424"/>
 <path fill="none" stroke="rgb(179,179,179)" stroke-linejoin="round" d="M 17648,14574 L 17648,14424"/>
 <path fill="none" stroke="rgb(179,179,179)" stroke-linejoin="round" d="M 17758,14574 L 17758,14424"/>
 <path fill="none" stroke="rgb(179,179,179)" stroke-linejoin="round" d="M 17758,14574 L 17758,14424"/>
 <path fill="none" stroke="rgb(179,179,179)" stroke-linejoin="round" d="M 17868,14574 L 17868,14424"/>
 <path fill="none" stroke="rgb(179,179,179)" stroke-linejoin="round" d="M 17868,14574 L 17868,14424"/>
 <path fill="none" stroke="rgb(179,179,179)" stroke-linejoin="round" d="M 17978,14574 L 17978,14424"/>
 <path fill="none" stroke="rgb(179,179,179)" stroke-linejoin="round" d="M 17978,14574 L 17978,14424"/>
 <path fill="none" stroke="rgb(179,179,179)" stroke-linejoin="round" d="M 18088,14574 L 18088,14424"/>
 <path fill="none" stroke="rgb(179,179,179)" stroke-linejoin="round" d="M 18088,14574 L 18088,14424"/>
 <path fill="none" stroke="rgb(179,179,179)" stroke-linejoin="round" d="M 18198,14574 L 18198,14424"/>
 <path fill="none" stroke="rgb(179,179,179)" stroke-linejoin="round" d="M 18198,14574 L 18198,14424"/>
 <path fill="none" stroke="rgb(179,179,179)" stroke-linejoin="round" d="M 18308,14574 L 18308,14424"/>
 <path fill="none" stroke="rgb(179,179,179)" stroke-linejoin="round" d="M 18308,14574 L 18308,14424"/>
 <path fill="none" stroke="rgb(179,179,179)" stroke-linejoin="round" d="M 18418,14574 L 18418,14424"/>
 <path fill="none" stroke="rgb(179,179,179)" stroke-linejoin="round" d="M 18418,14574 L 18418,14424"/>
 <path fill="none" stroke="rgb(179,179,179)" stroke-linejoin="round" d="M 18528,14574 L 18528,14424"/>
 <path fill="none" stroke="rgb(179,179,179)" stroke-linejoin="round" d="M 18528,14574 L 18528,14424"/>
 <path fill="none" stroke="rgb(179,179,179)" stroke-linejoin="round" d="M 18638,14574 L 18638,14424"/>
 <path fill="none" stroke="rgb(179,179,179)" stroke-linejoin="round" d="M 18638,14574 L 18638,14424"/>
 <path fill="none" stroke="rgb(179,179,179)" stroke-linejoin="round" d="M 18747,14574 L 18747,14424"/>
 <path fill="none" stroke="rgb(179,179,179)" stroke-linejoin="round" d="M 18747,14574 L 18747,14424"/>
 <path fill="none" stroke="rgb(179,179,179)" stroke-linejoin="round" d="M 18857,14574 L 18857,14424"/>
 <path fill="none" stroke="rgb(179,179,179)" stroke-linejoin="round" d="M 18857,14574 L 18857,14424"/>
 <path fill="none" stroke="rgb(179,179,179)" stroke-linejoin="round" d="M 18967,14574 L 18967,14424"/>
 <path fill="none" stroke="rgb(179,179,179)" stroke-linejoin="round" d="M 18967,14574 L 18967,14424"/>
 <path fill="none" stroke="rgb(179,179,179)" stroke-linejoin="round" d="M 19077,14574 L 19077,14424"/>
 <path fill="none" stroke="rgb(179,179,179)" stroke-linejoin="round" d="M 19077,14574 L 19077,14424"/>
 <path fill="none" stroke="rgb(179,179,179)" stroke-linejoin="round" d="M 19187,14574 L 19187,14424"/>
 <path fill="none" stroke="rgb(179,179,179)" stroke-linejoin="round" d="M 19187,14574 L 19187,14424"/>
 <path fill="none" stroke="rgb(179,179,179)" stroke-linejoin="round" d="M 19297,14574 L 19297,14424"/>
 <path fill="none" stroke="rgb(179,179,179)" stroke-linejoin="round" d="M 19297,14574 L 19297,14424"/>
 <path fill="none" stroke="rgb(179,179,179)" stroke-linejoin="round" d="M 19407,14574 L 19407,14424"/>
 <path fill="none" stroke="rgb(179,179,179)" stroke-linejoin="round" d="M 19407,14574 L 19407,14424"/>
 <path fill="none" stroke="rgb(179,179,179)" stroke-linejoin="round" d="M 19517,14574 L 19517,14424"/>
 <path fill="none" stroke="rgb(179,179,179)" stroke-linejoin="round" d="M 19517,14574 L 19517,14424"/>
 <path fill="none" stroke="rgb(179,179,179)" stroke-linejoin="round" d="M 19627,14574 L 19627,14424"/>
 <path fill="none" stroke="rgb(179,179,179)" stroke-linejoin="round" d="M 19627,14574 L 19627,14424"/>
 <path fill="none" stroke="rgb(179,179,179)" stroke-linejoin="round" d="M 19737,14574 L 19737,14424"/>
 <path fill="none" stroke="rgb(179,179,179)" stroke-linejoin="round" d="M 19737,14574 L 19737,14424"/>
 <path fill="none" stroke="rgb(179,179,179)" stroke-linejoin="round" d="M 19847,14574 L 19847,14424"/>
 <path fill="none" stroke="rgb(179,179,179)" stroke-linejoin="round" d="M 19847,14574 L 19847,14424"/>
 <path fill="none" stroke="rgb(179,179,179)" stroke-linejoin="round" d="M 1714,14424 L 19847,14424"/>
 <path fill="none" stroke="rgb(179,179,179)" stroke-linejoin="round" d="M 1564,14424 L 1714,14424"/>
 <path fill="none" stroke="rgb(179,179,179)" stroke-linejoin="round" d="M 1564,14424 L 1714,14424"/>
 <path fill="none" stroke="rgb(179,179,179)" stroke-linejoin="round" d="M 1564,13140 L 1714,13140"/>
 <path fill="none" stroke="rgb(179,179,179)" stroke-linejoin="round" d="M 1564,13140 L 1714,13140"/>
 <path fill="none" stroke="rgb(179,179,179)" stroke-linejoin="round" d="M 1564,11857 L 1714,11857"/>
 <path fill="none" stroke="rgb(179,179,179)" stroke-linejoin="round" d="M 1564,11857 L 1714,11857"/>
 <path fill="none" stroke="rgb(179,179,179)" stroke-linejoin="round" d="M 1564,10574 L 1714,10574"/>
 <path fill="none" stroke="rgb(179,179,179)" stroke-linejoin="round" d="M 1564,10574 L 1714,10574"/>
 <path fill="none" stroke="rgb(179,179,179)" stroke-linejoin="round" d="M 1564,9291 L 1714,9291"/>
 <path fill="none" stroke="rgb(179,179,179)" stroke-linejoin="round" d="M 1564,9291 L 1714,9291"/>
 <path fill="none" stroke="rgb(179,179,179)" stroke-linejoin="round" d="M 1564,8009 L 1714,8009"/>
 <path fill="none" stroke="rgb(179,179,179)" stroke-linejoin="round" d="M 1564,8009 L 1714,8009"/>
 <path fill="none" stroke="rgb(179,179,179)" stroke-linejoin="round" d="M 1564,6726 L 1714,6726"/>
 <path fill="none" stroke="rgb(179,179,179)" stroke-linejoin="round" d="M 1564,6726 L 1714,6726"/>
 <path fill="none" stroke="rgb(179,179,179)" stroke-linejoin="round" d="M 1564,5443 L 1714,5443"/>
 <path fill="none" stroke="rgb(179,179,179)" stroke-linejoin="round" d="M 1564,5443 L 1714,5443"/>
 <path fill="none" stroke="rgb(179,179,179)" stroke-linejoin="round" d="M 1564,4160 L 1714,4160"/>
 <path fill="none" stroke="rgb(179,179,179)" stroke-linejoin="round" d="M 1564,4160 L 1714,4160"/>
 <path fill="none" stroke="rgb(179,179,179)" stroke-linejoin="round" d="M 1564,2877 L 1714,2877"/>
 <path fill="none" stroke="rgb(179,179,179)" stroke-linejoin="round" d="M 1564,2877 L 1714,2877"/>
 <path fill="none" stroke="rgb(179,179,179)" stroke-linejoin="round" d="M 1564,1594 L 1714,1594"/>
 <path fill="none" stroke="rgb(179,179,179)" stroke-linejoin="round" d="M 1564,1594 L 1714,1594"/>
 <path fill="none" stroke="rgb(179,179,179)" stroke-linejoin="round" d="M 1714,14424 L 1714,1594"/>
 <path fill="none" stroke="rgb(0,69,134)" stroke-width="80" stroke-linejoin="round" d="M 2538,14424 L 2648,14424 2758,14424 2867,14424 2977,14424 3087,14424 3197,14424 3307,10284 3417,10284 3527,5036 3637,5965 3747,2140 3857,6235 3967,6957 4076,6310 4186,4521 4296,4380 4406,3640 4516,6290 4626,6261 4736,6816 4846,6749 4956,6327 5066,6325 5175,6745 5285,6959 5395,7725 5505,8132 5615,8138 5725,8309 5835,8179 5945,8352 6055,8803 6165,8998 6274,9230 6384,9221 6494,9261 6604,9283 6714,9399 6824,9585 6934,9633 7044,9626 7154,9712 7264,9701 7374,9657 7483,9738 7593,9716 7703,9721 7813,9665 7923,9707 8033,9737 8143,9735 8253,9710 8363,9603 8473,9607 8582,9607 8692,9571 8802,9563 8912,9585 9022,9514 9132,9530 9242,9531 9352,9526 9462,9509 9572,9550 9681,9516 9791,9532 9901,9535 10011,9467 10121,9446 10231,9448 10341,9449 10451,9476 10561,9505 10671,9522 10781,9554 10890,9582 11000,9579 11110,9626 11220,9631 11330,9642 11440,9645 11550,9663 11660,9704 11770,9738 11879,9748 11988,9773 12098,9763 12208,9819 12318,9833 12428,9864 12538,9869 12648,9872 12758,9888 12868,9896 12978,9910 13087,9913 13197,9917 13307,9946 13417,9978 13527,9963 13637,9944 13747,9932 13857,9918 13967,9941 14077,9969 14186,9987 14296,9995 14406,10017 14516,10018 14626,10071 14736,10113 14846,10170 14956,10156 15066,10195 15176,10245 15286,10268 15395,10332 15505,10426 15615,10531 15725,10587 15835,10613 15945,10642 16055,10683 16165,10695 16275,10731 16385,10743 16494,10758 16604,10782 16714,10779 16824,10798 16934,10782 17044,10813 17154,10810 17264,10808 17374,10826 17484,10862 17593,10851 17703,10857 17813,10877 17923,10890 18033,10910 18143,10993 18253,11007 18363,11042 18473,11114 18583,11142 18693,11158 18802,11198 18912,11248 19022,11306 19132,11359 19242,11373 19352,11388 19462,11391 19572,11413 19682,11447 19792,11466"/>
 <path fill="none" stroke="rgb(255,66,14)" stroke-width="80" stroke-linejoin="round" d="M 2428,14424 L 2538,14424 2648,14424 2758,14424 2867,14424 2977,14424 3087,14424 3197,14424 3307,10284 3417,11294 3527,10194 3637,6235 3747,6235 3857,8314 3967,8845 4076,7535 4186,6972 4296,5852 4406,7214 4516,7647 4626,7590 4736,7665 4846,7469 4956,7245 5066,7598 5175,7826 5285,8118 5395,8620 5505,8548 5615,8523 5725,8877 5835,8535 5945,8903 6055,9123 6165,9460 6274,9360 6384,9474 6494,9462 6604,9568 6714,9631 6824,9723 6934,9714 7044,9755 7154,9765 7264,9741 7374,9738 7483,9896 7593,9800 7703,9762 7813,9764 7923,9812 8033,9826 8143,9800 8253,9746 8363,9660 8473,9659 8582,9640 8692,9598 8802,9602 8912,9632 9022,9580 9132,9564 9242,9543 9352,9542 9462,9533 9572,9597 9681,9564 9791,9567 9901,9562 10011,9478 10121,9464 10231,9480 10341,9476 10451,9505 10561,9553 10671,9554 10781,9582 10890,9594 11000,9641 11110,9660 11220,9671 11330,9660 11440,9677 11550,9704 11660,9738 11770,9763 11879,9773 11988,9792 12098,9791 12208,9847 12318,9850 12428,9883 12538,9885 12648,9902 12758,9924 12868,9923 12978,9926 13087,9931 13197,9946 13307,9978 13417,10002 13527,9996 13637,9958 13747,9969 13857,9941 13967,9956 14077,9987 14186,10007 14296,10017 14406,10067 14516,10071 14626,10088 14736,10133 14846,10180 14956,10207 15066,10245 15176,10280 15286,10332 15395,10426 15505,10531 15615,10598 15725,10635 15835,10642 15945,10683 16055,10726 16165,10731 16275,10753 16385,10758 16494,10792 16604,10819 16714,10808 16824,10821 16934,10813 17044,10830 17154,10828 17264,10836 17374,10862 17484,10898 17593,10885 17703,10886 17813,10899 17923,10929 18033,10966 18143,11051 18253,11060 18363,11105 18473,11142 18583,11166 18693,11198 18802,11256 18912,11306 19022,11359 19132,11397 19242,11396 19352,11407 19462,11428 19572,11462 19682,11488 19792,11500"/>
 <path fill="none" stroke="rgb(255,211,32)" stroke-width="80" stroke-linejoin="round" d="M 2318,14424 L 2428,14424 2538,14424 2648,14424 2758,14424 2867,14424 2977,14424 3087,14424 3197,14424 3307,11294 3417,13014 3527,10329 3637,8964 3747,8314 3857,9859 3967,9687 4076,9239 4186,8063 4296,8692 4406,8416 4516,8749 4626,8352 4736,8299 4846,8257 4956,8373 5066,8558 5175,8850 5285,8961 5395,9003 5505,8908 5615,9071 5725,9193 5835,9069 5945,9217 6055,9575 6165,9584 6274,9607 6384,9667 6494,9737 6604,9792 6714,9767 6824,9802 6934,9840 7044,9807 7154,9804 7264,9820 7374,9896 7483,9976 7593,9840 7703,9859 7813,9868 7923,9899 8033,9890 8143,9835 8253,9801 8363,9711 8473,9692 8582,9667 8692,9636 8802,9649 8912,9697 9022,9614 9132,9576 9242,9559 9352,9566 9462,9581 9572,9644 9681,9598 9791,9594 9901,9573 10011,9495 10121,9496 10231,9507 10341,9505 10451,9553 10561,9585 10671,9582 10781,9594 10890,9656 11000,9675 11110,9701 11220,9689 11330,9692 11440,9718 11550,9738 11660,9763 11770,9787 11879,9792 11988,9819 12098,9819 12208,9864 12318,9869 12428,9899 12538,9915 12648,9937 12758,9950 12868,9940 12978,9944 13087,9959 13197,9978 13307,10002 13417,10035 13527,10010 13637,9995 13747,9993 13857,9956 13967,9974 14077,10007 14186,10029 14296,10067 14406,10120 14516,10088 14626,10109 14736,10144 14846,10231 14956,10256 15066,10280 15176,10343 15286,10426 15395,10531 15505,10598 15615,10645 15725,10663 15835,10683 15945,10726 16055,10762 16165,10753 16275,10768 16385,10792 16494,10829 16604,10848 16714,10831 16824,10853 16934,10830 17044,10847 17154,10855 17264,10872 17374,10898 17484,10931 17593,10914 17703,10909 17813,10938 17923,10984 18033,11024 18143,11103 18253,11122 18363,11134 18473,11166 18583,11207 18693,11256 18802,11314 18912,11359 19022,11397 19132,11419 19242,11414 19352,11444 19462,11477 19572,11503 19682,11522 19792,11553"/>
 <path fill="none" stroke="rgb(87,157,28)" stroke-width="80" stroke-linejoin="round" d="M 2208,14424 L 2318,14424 2428,14424 2538,14424 2648,14424 2758,14424 2867,14424 2977,14424 3087,14424 3197,14424 3307,13014 3417,13059 3527,11694 3637,10350 3747,9859 3857,10548 3967,10859 4076,9999 4186,10171 4296,9648 4406,9394 4516,9383 4626,8922 4736,8993 4846,9226 4956,9224 5066,9469 5175,9595 5285,9322 5395,9336 5505,9420 5615,9376 5725,9668 5835,9374 5945,9661 6055,9696 6165,9820 6274,9794 6384,9931 6494,9954 6604,9924 6714,9847 6824,9926 6934,9892 7044,9846 7154,9882 7264,9976 7374,9976 7483,10014 7593,9935 7703,9961 7813,9954 7923,9962 8033,9925 8143,9890 8253,9851 8363,9744 8473,9719 8582,9704 8692,9683 8802,9713 8912,9730 9022,9625 9132,9592 9242,9583 9352,9614 9462,9628 9572,9678 9681,9626 9791,9605 9901,9590 10011,9527 10121,9523 10231,9536 10341,9553 10451,9585 10561,9613 10671,9594 10781,9656 10890,9690 11000,9715 11110,9719 11220,9721 11330,9733 11440,9752 11550,9763 11660,9787 11770,9806 11879,9819 11988,9847 12098,9836 12208,9883 12318,9885 12428,9929 12538,9951 12648,9964 12758,9967 12868,9957 12978,9972 13087,9991 13197,10002 13307,10035 13417,10049 13527,10047 13637,10019 13747,10007 13857,9974 13967,9995 14077,10029 14186,10080 14296,10120 14406,10137 14516,10109 14626,10119 14736,10195 14846,10280 14956,10292 15066,10343 15176,10437 15286,10531 15395,10598 15505,10645 15615,10674 15725,10704 15835,10726 15945,10762 16055,10784 16165,10768 16275,10802 16385,10829 16494,10858 16604,10871 16714,10862 16824,10869 16934,10847 17044,10875 17154,10891 17264,10908 17374,10931 17484,10960 17593,10936 17703,10947 17813,10993 17923,11042 18033,11077 18143,11165 18253,11151 18363,11158 18473,11207 18583,11264 18693,11314 18802,11367 18912,11397 19022,11419 19132,11437 19242,11451 19352,11492 19462,11518 19572,11536 19682,11575 19792,11581"/>
 <path fill="none" stroke="rgb(126,0,33)" stroke-width="80" stroke-linejoin="round" d="M 2098,14424 L 2208,14424 2318,14424 2428,14424 2538,14424 2648,14424 2758,14424 2867,14424 2977,14424 3087,14424 3197,14424 3307,13059 3417,13514 3527,12387 3637,11381 3747,10548 3857,11507 3967,11382 4076,11465 4186,10881 4296,10426 4406,9956 4516,9856 4626,9545 4736,9847 4846,9958 4956,10032 5066,10132 5175,9914 5285,9635 5395,9808 5505,9705 5615,9834 5725,9938 5835,9804 5945,9780 6055,9927 6165,9999 6274,10051 6384,10138 6494,10081 6604,10001 6714,9969 6824,9976 6934,9930 7044,9924 7154,10035 7264,10054 7374,10014 7483,10106 7593,10035 7703,10045 7813,10016 7923,9996 8033,9978 8143,9938 8253,9883 8363,9770 8473,9756 8582,9751 8692,9747 8802,9747 8912,9741 9022,9641 9132,9615 9242,9630 9352,9661 9462,9662 9572,9705 9681,9637 9791,9622 9901,9621 10011,9554 10121,9551 10231,9584 10341,9585 10451,9613 10561,9624 10671,9656 10781,9690 10890,9730 11000,9733 11110,9750 11220,9762 11330,9767 11440,9777 11550,9787 11660,9806 11770,9833 11879,9847 11988,9864 12098,9855 12208,9899 12318,9915 12428,9964 12538,9977 12648,9980 12758,9984 12868,9986 12978,10004 13087,10015 13197,10035 13307,10049 13417,10085 13527,10070 13637,10033 13747,10025 13857,9995 13967,10017 14077,10080 14186,10133 14296,10137 14406,10158 14516,10119 14626,10171 14736,10245 14846,10316 14956,10355 15066,10437 15176,10542 15286,10598 15395,10645 15505,10674 15615,10715 15725,10747 15835,10762 15945,10784 16055,10799 16165,10802 16275,10839 16385,10858 16494,10880 16604,10901 16714,10878 16824,10886 16934,10875 17044,10910 17154,10926 17264,10941 17374,10960 17484,10982 17593,10974 17703,11002 17813,11051 17923,11094 18033,11139 18143,11193 18253,11175 18363,11198 18473,11264 18583,11322 18693,11367 18802,11404 18912,11419 19022,11437 19132,11474 19242,11499 19352,11532 19462,11551 19572,11589 19682,11602 19792,11599"/>
 <path fill="none" stroke="rgb(131,202,255)" stroke-width="80" stroke-linejoin="round" d="M 1988,14424 L 2098,14424 2208,14424 2318,14424 2428,14424 2538,14424 2648,14424 2758,14424 2867,14424 2977,14424 3087,14424 3197,14424 3307,13514 3417,13745 3527,12902 3637,11840 3747,11507 3857,11935 3967,12390 4076,11959 4186,11458 4296,10872 4406,10375 4516,10374 4626,10312 4736,10491 4846,10651 4956,10620 5066,10415 5175,10191 5285,10079 5395,10071 5505,10133 5615,10095 5725,10321 5835,9920 5945,10006 6055,10101 6165,10245 6274,10253 6384,10260 6494,10155 6604,10119 6714,10019 6824,10014 6934,10006 7044,10075 7154,10113 7264,10092 7374,10106 7483,10202 7593,10118 7703,10106 7813,10049 7923,10048 8033,10025 8143,9970 8253,9908 8363,9807 8473,9802 8582,9814 8692,9780 8802,9758 8912,9757 9022,9665 9132,9662 9242,9677 9352,9694 9462,9690 9572,9716 9681,9653 9791,9653 9901,9648 10011,9582 10121,9599 10231,9615 10341,9613 10451,9624 10561,9686 10671,9690 10781,9730 10890,9748 11000,9765 11110,9790 11220,9795 11330,9791 11440,9802 11550,9806 11660,9833 11770,9861 11879,9864 11988,9883 12098,9872 12208,9929 12318,9951 12428,9991 12538,9993 12648,9998 12758,10012 12868,10017 12978,10029 13087,10048 13197,10049 13307,10085 13417,10108 13527,10084 13637,10050 13747,10045 13857,10017 13967,10067 14077,10133 14186,10150 14296,10158 14406,10168 14516,10171 14626,10221 14736,10280 14846,10378 14956,10449 15066,10542 15176,10608 15286,10645 15395,10674 15505,10715 15615,10757 15725,10783 15835,10784 15945,10799 16055,10833 16165,10839 16275,10868 16385,10880 16494,10911 16604,10917 16714,10895 16824,10913 16934,10910 17044,10945 17154,10959 17264,10969 17374,10982 17484,11020 17593,11029 17703,11059 17813,11103 17923,11156 18033,11168 18143,11217 18253,11215 18363,11256 18473,11322 18583,11375 18693,11404 18802,11427 18912,11437 19022,11474 19132,11521 19242,11539 19352,11565 19462,11603 19572,11616 19682,11620 19792,11621"/>
 <path fill="none" stroke="rgb(49,64,4)" stroke-width="80" stroke-linejoin="round" d="M 1878,14424 L 1988,14424 2098,14424 2208,14424 2318,14424 2428,14424 2538,14424 2648,14424 2758,14424 2867,14424 2977,14424 3087,14424 3197,14424 3307,13745 3417,13916 3527,13132 3637,12479 3747,11935 3857,12760 3967,12729 4076,12360 4186,11789 4296,11205 4406,10834 4516,11010 4626,10891 4736,11102 4846,11156 4956,10871 5066,10661 5175,10584 5285,10327 5395,10466 5505,10378 5615,10464 5725,10423 5835,10139 5945,10178 6055,10341 6165,10438 6274,10372 6384,10331 6494,10269 6604,10167 6714,10056 6824,10089 6934,10155 7044,10152 7154,10150 7264,10182 7374,10202 7483,10282 7593,10178 7703,10139 7813,10101 7923,10095 8033,10056 8143,9994 8253,9944 8363,9852 8473,9864 8582,9846 8692,9791 8802,9773 8912,9779 9022,9711 9132,9709 9242,9710 9352,9721 9462,9700 9572,9732 9681,9684 9791,9679 9901,9675 10011,9630 10121,9631 10231,9643 10341,9624 10451,9686 10561,9720 10671,9730 10781,9748 10890,9779 11000,9805 11110,9824 11220,9820 11330,9816 11440,9820 11550,9833 11660,9861 11770,9878 11879,9883 11988,9899 12098,9902 12208,9964 12318,9977 12428,10007 12538,10011 12648,10026 12758,10044 12868,10042 12978,10061 13087,10062 13197,10085 13307,10108 13417,10123 13527,10101 13637,10071 13747,10067 13857,10067 13967,10120 14077,10150 14186,10170 14296,10168 14406,10219 14516,10221 14626,10257 14736,10343 14846,10471 14956,10553 15066,10608 15176,10656 15286,10674 15395,10715 15505,10757 15615,10793 15725,10804 15835,10799 15945,10833 16055,10869 16165,10868 16275,10890 16385,10911 16494,10927 16604,10934 16714,10923 16824,10948 16934,10945 17044,10978 17154,10988 17264,10991 17374,11020 17484,11073 17593,11086 17703,11112 17813,11165 17923,11185 18033,11191 18143,11256 18253,11272 18363,11314 18473,11375 18583,11412 18693,11427 18802,11445 18912,11474 19022,11521 19132,11561 19242,11572 19352,11617 19462,11630 19572,11634 19682,11641 19792,11664"/>
 <path fill="none" stroke="rgb(174,207,0)" stroke-width="80" stroke-linejoin="round" d="M 1768,14424 L 1878,14424 1988,14424 2098,14424 2208,14424 2318,14424 2428,14424 2538,14424 2648,14424 2758,14424 2867,14424 2977,14424 3087,14424 3197,14424 3307,13916 3417,13993 3527,13451 3637,12764 3747,12760 3857,13037 3967,13005 4076,12591 4186,12036 4296,11570 4406,11398 4516,11491 4626,11440 4736,11546 4846,11372 4956,11089 5066,11010 5175,10802 5285,10699 5395,10691 5505,10722 5615,10563 5725,10618 5835,10306 5945,10414 6055,10530 6165,10551 6274,10441 6384,10440 6494,10315 6604,10203 6714,10130 6824,10235 6934,10231 7044,10189 7154,10239 7264,10277 7374,10282 7483,10340 7593,10210 7703,10189 7813,10148 7923,10126 8033,10080 8143,10029 8253,9988 8363,9914 8473,9896 8582,9857 8692,9806 8802,9796 8912,9825 9022,9757 9132,9742 9242,9737 9352,9732 9462,9716 9572,9763 9681,9710 9791,9706 9901,9722 10011,9661 10121,9658 10231,9654 10341,9686 10451,9720 10561,9760 10671,9748 10781,9779 10890,9819 11000,9838 11110,9848 11220,9844 11330,9834 11440,9847 11550,9861 11660,9878 11770,9896 11879,9899 11988,9929 12098,9937 12208,9991 12318,9993 12428,10024 12538,10039 12648,10057 12758,10068 12868,10074 12978,10075 13087,10098 13197,10108 13307,10123 13417,10140 13527,10122 13637,10093 13747,10117 13857,10120 13967,10137 14077,10170 14186,10180 14296,10219 14406,10268 14516,10257 14626,10320 14736,10437 14846,10575 14956,10619 15066,10656 15176,10685 15286,10715 15395,10757 15505,10793 15615,10815 15725,10819 15835,10833 15945,10869 16055,10898 16165,10890 16275,10921 16385,10927 16494,10944 16604,10961 16714,10957 16824,10983 16934,10978 17044,11006 17154,11010 17264,11029 17374,11073 17484,11130 17593,11138 17703,11173 17813,11193 17923,11208 18033,11231 18143,11313 18253,11330 18363,11367 18473,11412 18583,11435 18693,11445 18802,11481 18912,11521 19022,11561 19132,11594 19242,11624 19352,11644 19462,11648 19572,11655 19682,11684 19792,11706"/>
 <path fill="none" stroke="rgb(75,31,111)" stroke-width="80" stroke-linejoin="round" d="M 1768,14424 L 1878,14424 1988,14424 2098,14424 2208,14424 2318,14424 2428,14424 2538,14424 2648,14424 2758,14424 2867,14424 2977,14424 3087,14424 3197,14424 3307,13993 3417,14099 3527,13594 3637,13314 3747,13037 3857,13263 3967,13163 4076,12763 4186,12306 4296,12019 4406,11824 4516,11946 4626,11839 4736,11736 4846,11559 4956,11398 5066,11205 5175,11131 5285,10911 5395,11009 5505,10815 5615,10751 5725,10766 5835,10535 5945,10599 6055,10640 6165,10617 6274,10547 6384,10485 6494,10350 6604,10274 6714,10275 6824,10309 6934,10267 7044,10277 7154,10332 7264,10355 7374,10340 7483,10371 7593,10260 7703,10235 7813,10178 7923,10149 8033,10115 8143,10073 8253,10047 8363,9946 8473,9907 8582,9872 8692,9829 8802,9841 8912,9870 9022,9790 9132,9769 9242,9748 9352,9748 9462,9747 9572,9788 9681,9737 9791,9753 9901,9753 10011,9689 10121,9670 10231,9716 10341,9720 10451,9760 10561,9777 10671,9779 10781,9819 10890,9853 11000,9862 11110,9872 11220,9862 11330,9861 11440,9875 11550,9878 11660,9896 11770,9913 11879,9929 11988,9964 12098,9964 12208,10007 12318,10011 12428,10052 12538,10070 12648,10081 12758,10100 12868,10088 12978,10111 13087,10121 13197,10123 13307,10140 13417,10160 13527,10143 13637,10142 13747,10170 13857,10137 13967,10158 14077,10180 14186,10231 14296,10268 14406,10304 14516,10320 14626,10415 14736,10542 14846,10641 14956,10667 15066,10685 15176,10725 15286,10757 15395,10793 15505,10815 15615,10829 15725,10853 15835,10869 15945,10898 16055,10920 16165,10921 16275,10937 16385,10944 16494,10971 16604,10996 16714,10992 16824,11015 16934,11006 17044,11028 17154,11047 17264,11082 17374,11130 17484,11181 17593,11199 17703,11201 17813,11217 17923,11248 18033,11289 18143,11370 18253,11382 18363,11404 18473,11435 18583,11453 18693,11481 18802,11529 18912,11561 19022,11594 19132,11646 19242,11651 19352,11662 19462,11669 19572,11698 19682,11726 19792,11752"/>
 <path fill="none" stroke="rgb(255,149,14)" stroke-width="80" stroke-linejoin="round" d="M 1768,14424 L 1878,14424 1988,14424 2098,14424 2208,14424 2318,14424 2428,14424 2538,14424 2648,14424 2758,14424 2867,14424 2977,14424 3087,14424 3197,14424 3307,14099 3417,14147 3527,13869 3637,13499 3747,13263 3857,13392 3967,13282 4076,12951 4186,12639 4296,12357 4406,12228 4516,12278 4626,12009 4736,11901 4846,11825 4956,11571 5066,11497 5175,11318 5285,11210 5395,11095 5505,10991 5615,10894 5725,10969 5835,10714 5945,10708 6055,10705 6165,10718 6274,10591 6384,10518 6494,10419 6604,10414 6714,10348 6824,10345 6934,10353 7044,10370 7154,10410 7264,10412 7374,10371 7483,10419 7593,10305 7703,10264 7813,10201 7923,10183 8033,10157 8143,10131 8253,10079 8363,9956 8473,9922 8582,9894 8692,9874 8802,9886 8912,9902 9022,9817 9132,9779 9242,9764 9352,9778 9462,9772 9572,9815 9681,9783 9791,9783 9901,9780 10011,9700 10121,9731 10231,9749 10341,9760 10451,9777 10561,9808 10671,9819 10781,9853 10890,9877 11000,9887 11110,9890 11220,9889 11330,9889 11440,9892 11550,9896 11660,9913 11770,9943 11879,9964 11988,9991 12098,9980 12208,10024 12318,10039 12428,10083 12538,10094 12648,10113 12758,10114 12868,10124 12978,10134 13087,10135 13197,10140 13307,10160 13417,10181 13527,10192 13637,10194 13747,10187 13857,10158 13967,10168 14077,10231 14186,10280 14296,10304 14406,10367 14516,10415 14626,10520 14736,10608 14846,10688 14956,10695 15066,10725 15176,10768 15286,10793 15395,10815 15505,10829 15615,10863 15725,10889 15835,10898 15945,10920 16055,10950 16165,10937 16275,10954 16385,10971 16494,11005 16604,11030 16714,11025 16824,11043 16934,11028 17044,11065 17154,11100 17264,11139 17374,11181 17484,11241 17593,11227 17703,11225 17813,11256 17923,11305 18033,11346 18143,11422 18253,11420 18363,11427 18473,11453 18583,11489 18693,11529 18802,11569 18912,11594 19022,11646 19132,11672 19242,11669 19352,11683 19462,11712 19572,11740 19682,11771 19792,11791"/>
 <path fill="none" stroke="rgb(197,0,11)" stroke-width="80" stroke-linejoin="round" d="M 1768,14424 L 1878,14424 1988,14424 2098,14424 2208,14424 2318,14424 2428,14424 2538,14424 2648,14424 2758,14424 2867,14424 2977,14424 3087,14424 3197,14424 3307,14147 3417,14239 3527,13961 3637,13650 3747,13392 3857,13489 3967,13411 4076,13182 4186,12890 4296,12678 4406,12522 4516,12419 4626,12157 4736,12135 4846,11973 4956,11829 5066,11663 5175,11583 5285,11291 5395,11257 5505,11124 5615,11090 5725,11129 5835,10820 5945,10771 6055,10804 6165,10760 6274,10623 6384,10584 6494,10554 6604,10485 6714,10383 6824,10429 6934,10444 7044,10446 7154,10466 7264,10442 7374,10419 7483,10462 7593,10334 7703,10287 7813,10234 7923,10225 8033,10214 8143,10161 8253,10089 8363,9971 8473,9944 8582,9939 8692,9918 8802,9918 8912,9928 9022,9827 9132,9795 9242,9794 9352,9804 9462,9799 9572,9860 9681,9814 9791,9810 9901,9791 10011,9761 10121,9764 10231,9789 10341,9777 10451,9808 10561,9848 10671,9853 10781,9877 10890,9901 11000,9905 11110,9917 11220,9917 11330,9906 11440,9910 11550,9913 11660,9943 11770,9978 11879,9991 11988,10007 12098,9998 12208,10052 12318,10070 12428,10107 12538,10126 12648,10127 12758,10150 12868,10147 12978,10148 13087,10152 13197,10160 13307,10181 13417,10230 13527,10243 13637,10211 13747,10207 13857,10168 13967,10219 14077,10280 14186,10316 14296,10367 14406,10460 14516,10520 14626,10587 14736,10656 14846,10717 14956,10736 15066,10768 15176,10803 15286,10815 15395,10829 15505,10863 15615,10899 15725,10918 15835,10920 15945,10950 16055,10966 16165,10954 16275,10980 16385,11005 16494,11039 16604,11062 16714,11053 16824,11065 16934,11065 17044,11118 17154,11156 17264,11190 17374,11241 17484,11269 17593,11250 17703,11265 17813,11313 17923,11362 18033,11398 18143,11458 18253,11442 18363,11445 18473,11489 18583,11536 18693,11569 18802,11601 18912,11646 19022,11672 19132,11690 19242,11690 19352,11725 19462,11753 19572,11785 19682,11811 19792,11817"/>
 <path fill="none" stroke="rgb(0,132,209)" stroke-width="80" stroke-linejoin="round" d="M 1768,14424 L 1878,14424 1988,14424 2098,14424 2208,14424 2318,14424 2428,14424 2538,14424 2648,14424 2758,14424 2867,14424 2977,14424 3087,14424 3197,14424 3307,14239 3417,14269 3527,14037 3637,13736 3747,13489 3857,13595 3967,13570 4076,13357 4186,13129 4296,12912 4406,12647 4516,12542 4626,12368 4736,12265 4846,12195 4956,11977 5066,11899 5175,11654 5285,11443 5395,11380 5505,11308 5615,11244 5725,11222 5835,10881 5945,10868 6055,10845 6165,10791 6274,10687 6384,10714 6494,10623 6604,10519 6714,10467 6824,10518 6934,10519 7044,10502 7154,10496 7264,10489 7374,10462 7483,10490 7593,10356 7703,10320 7813,10276 7923,10281 8033,10244 8143,10171 8253,10103 8363,9993 8473,9987 8582,9982 8692,9950 8802,9944 8912,9938 9022,9843 9132,9825 9242,9819 9352,9830 9462,9845 9572,9890 9681,9840 9791,9821 9901,9851 10011,9794 10121,9804 10231,9806 10341,9808 10451,9848 10561,9881 10671,9877 10781,9901 10890,9919 11000,9931 11110,9945 11220,9933 11330,9924 11440,9927 11550,9943 11660,9978 11770,10004 11879,10007 11988,10024 12098,10026 12208,10083 12318,10094 12428,10140 12538,10140 12648,10163 12758,10173 12868,10161 12978,10165 13087,10172 13197,10181 13307,10230 13417,10280 13527,10260 13637,10231 13747,10217 13857,10219 13967,10268 14077,10316 14186,10378 14296,10460 14406,10564 14516,10587 14626,10635 14736,10685 14846,10757 14956,10778 15066,10803 15176,10825 15286,10829 15395,10863 15505,10899 15615,10927 15725,10940 15835,10950 15945,10966 16055,10983 16165,10980 16275,11015 16385,11039 16494,11071 16604,11090 16714,11074 16824,11102 16934,11118 17044,11174 17154,11207 17264,11250 17374,11269 17484,11292 17593,11289 17703,11321 17813,11370 17923,11414 18033,11435 18143,11481 18253,11460 18363,11481 18473,11536 18583,11576 18693,11601 18802,11653 18912,11672 19022,11690 19132,11711 19242,11732 19352,11766 19462,11798 19572,11824 19682,11837 19792,11833"/>
 <path fill="none" stroke="rgb(0,69,134)" stroke-width="80" stroke-linejoin="round" d="M 1768,14424 L 1878,14424 1988,14424 2098,14424 2208,14424 2318,14424 2428,14424 2538,14424 2648,14424 2758,14424 2867,14424 2977,14424 3087,14424 3197,14424 3307,14269 3417,14295 3527,14080 3637,13801 3747,13595 3857,13725 3967,13690 4076,13523 4186,13302 4296,13011 4406,12756 4516,12717 4626,12485 4736,12461 4846,12322 4956,12186 5066,11962 5175,11789 5285,11559 5395,11549 5505,11451 5615,11334 5725,11277 5835,10975 5945,10908 6055,10875 6165,10852 6274,10813 6384,10779 6494,10655 6604,10600 6714,10556 6824,10592 6934,10573 7044,10532 7154,10542 7264,10532 7374,10490 7483,10511 7593,10388 7703,10360 7813,10331 7923,10311 8033,10254 8143,10186 8253,10124 8363,10036 8473,10031 8582,10014 8692,9975 8802,9954 8912,9953 9022,9872 9132,9850 9242,9846 9352,9876 9462,9875 9572,9916 9681,9851 9791,9880 9901,9883 10011,9833 10121,9821 10231,9837 10341,9848 10451,9881 10561,9905 10671,9901 10781,9919 10890,9945 11000,9959 11110,9961 11220,9952 11330,9941 11440,9956 11550,9978 11660,10004 11770,10020 11879,10024 11988,10052 12098,10057 12208,10107 12318,10126 12428,10153 12538,10176 12648,10185 12758,10187 12868,10178 12978,10185 13087,10194 13197,10230 13307,10280 13417,10297 13527,10280 13637,10241 13747,10267 13857,10268 13967,10304 14077,10378 14186,10471 14296,10564 14406,10630 14516,10635 14626,10663 14736,10725 14846,10799 14956,10813 15066,10825 15176,10839 15286,10863 15395,10899 15505,10927 15615,10950 15725,10970 15835,10966 15945,10983 16055,11009 16165,11015 16275,11049 16385,11071 16494,11099 16604,11111 16714,11111 16824,11154 16934,11174 17044,11224 17154,11267 17264,11277 17374,11292 17484,11331 17593,11345 17703,11378 17813,11422 17923,11451 18033,11458 18143,11498 18253,11496 18363,11529 18473,11576 18583,11609 18693,11653 18802,11679 18912,11690 19022,11711 19132,11753 19242,11773 19352,11811 19462,11837 19572,11850 19682,11852 19792,11858"/>
 <path fill="none" stroke="rgb(255,66,14)" stroke-width="80" stroke-linejoin="round" d="M 1768,14424 L 1878,14424 1988,14424 2098,14424 2208,14424 2318,14424 2428,14424 2538,14424 2648,14424 2758,14424 2867,14424 2977,14424 3087,14424 3197,14424 3307,14295 3417,14309 3527,14112 3637,13871 3747,13725 3857,13824 3967,13804 4076,13643 4186,13376 4296,13098 4406,12911 4516,12814 4626,12661 4736,12573 4846,12501 4956,12242 5066,12082 5175,11892 5285,11718 5395,11682 5505,11536 5615,11387 5725,11361 5835,11014 5945,10938 6055,10935 6165,10973 6274,10877 6384,10811 6494,10734 6604,10686 6714,10629 6824,10645 6934,10603 7044,10578 7154,10584 7264,10559 7374,10511 7483,10542 7593,10428 7703,10415 7813,10360 7923,10320 8033,10268 8143,10206 8253,10166 8363,10079 8473,10062 8582,10039 8692,9985 8802,9969 8912,9982 9022,9897 9132,9877 9242,9891 9352,9905 9462,9901 9572,9927 9681,9910 9791,9913 9901,9921 10011,9850 10121,9852 10231,9877 10341,9881 10451,9905 10561,9929 10671,9919 10781,9945 10890,9973 11000,9975 11110,9979 11220,9968 11330,9970 11440,9992 11550,10004 11660,10020 11770,10038 11879,10052 11988,10083 12098,10081 12208,10140 12318,10140 12428,10189 12538,10198 12648,10199 12758,10203 12868,10198 12978,10206 13087,10242 13197,10280 13307,10297 13417,10317 13527,10290 13637,10291 13747,10316 13857,10304 13967,10367 14077,10471 14186,10575 14296,10630 14406,10677 14516,10663 14626,10704 14736,10768 14846,10834 14956,10835 15066,10839 15176,10873 15286,10899 15395,10927 15505,10950 15615,10980 15725,10985 15835,10983 15945,11009 16055,11043 16165,11049 16275,11081 16385,11099 16494,11120 16604,11147 16714,11163 16824,11209 16934,11224 17044,11284 17154,11294 17264,11300 17374,11331 17484,11386 17593,11402 17703,11430 17813,11458 17923,11473 18033,11475 18143,11534 18253,11543 18363,11569 18473,11609 18583,11660 18693,11679 18802,11697 18912,11711 19022,11753 19132,11793 19242,11818 19352,11850 19462,11863 19572,11865 19682,11877 19792,11893"/>
 <path fill="none" stroke="rgb(255,211,32)" stroke-width="80" stroke-linejoin="round" d="M 1768,14424 L 1878,14424 1988,14424 2098,14424 2208,14424 2318,14424 2428,14424 2538,14424 2648,14424 2758,14424 2867,14424 2977,14424 3087,14424 3197,14424 3307,14309 3417,14320 3527,14147 3637,13958 3747,13824 3857,13917 3967,13887 4076,13695 4186,13440 4296,13221 4406,12997 4516,12960 4626,12761 4736,12731 4846,12549 4956,12348 5066,12173 5175,12032 5285,11843 5395,11760 5505,11585 5615,11468 5725,11395 5835,11043 5945,10997 6055,11053 6165,11034 6274,10908 6384,10886 6494,10816 6604,10756 6714,10681 6824,10674 6934,10648 7044,10619 7154,10611 7264,10580 7374,10542 7483,10580 7593,10482 7703,10443 7813,10370 7923,10334 8033,10288 8143,10247 8253,10208 8363,10110 8473,10087 8582,10049 8692,10001 8802,9998 8912,10007 9022,9924 9132,9922 9242,9921 9352,9932 9462,9912 9572,9985 9681,9942 9791,9951 9901,9938 10011,9881 10121,9892 10231,9910 10341,9905 10451,9929 10561,9947 10671,9945 10781,9973 10890,9989 11000,9993 11110,9996 11220,9998 11330,10005 11440,10018 11550,10020 11660,10038 11770,10066 11879,10083 11988,10107 12098,10113 12208,10153 12318,10176 12428,10211 12538,10212 12648,10216 12758,10223 12868,10219 12978,10255 13087,10293 13197,10297 13307,10317 13417,10327 13527,10339 13637,10340 13747,10351 13857,10367 13967,10460 14077,10575 14186,10641 14296,10677 14406,10706 14516,10704 14626,10747 14736,10803 14846,10856 14956,10850 15066,10873 15176,10909 15286,10927 15395,10950 15505,10980 15615,10995 15725,11002 15835,11009 15945,11043 16055,11077 16165,11081 16275,11108 16385,11120 16494,11156 16604,11199 16714,11218 16824,11259 16934,11284 17044,11311 17154,11317 17264,11339 17374,11386 17484,11442 17593,11453 17703,11466 17813,11481 17923,11491 18033,11511 18143,11581 18253,11583 18363,11601 18473,11660 18583,11686 18693,11697 18802,11718 18912,11753 19022,11793 19132,11838 19242,11856 19352,11875 19462,11878 19572,11889 19682,11912 19792,11931"/>
 <text class="TextShape" transform="rotate(-90 1862 15352)"><tspan class="TextParagraph" font-family="Liberation Sans, sans-serif" font-size="282px" font-weight="400"><tspan class="TextPosition" x="1862" y="15352"><tspan fill="rgb(0,0,0)" stroke="none">08.03</tspan></tspan></tspan></text>
 <text class="TextShape" transform="rotate(-90 2192 15352)"><tspan class="TextParagraph" font-family="Liberation Sans, sans-serif" font-size="282px" font-weight="400"><tspan class="TextPosition" x="2192" y="15352"><tspan fill="rgb(0,0,0)" stroke="none">11.03</tspan></tspan></tspan></text>
 <text class="TextShape" transform="rotate(-90 2522 15352)"><tspan class="TextParagraph" font-family="Liberation Sans, sans-serif" font-size="282px" font-weight="400"><tspan class="TextPosition" x="2522" y="15352"><tspan fill="rgb(0,0,0)" stroke="none">14.03</tspan></tspan></tspan></text>
 <text class="TextShape" transform="rotate(-90 2852 15352)"><tspan class="TextParagraph" font-family="Liberation Sans, sans-serif" font-size="282px" font-weight="400"><tspan class="TextPosition" x="2852" y="15352"><tspan fill="rgb(0,0,0)" stroke="none">17.03</tspan></tspan></tspan></text>
 <text class="TextShape" transform="rotate(-90 3181 15352)"><tspan class="TextParagraph" font-family="Liberation Sans, sans-serif" font-size="282px" font-weight="400"><tspan class="TextPosition" x="3181" y="15352"><tspan fill="rgb(0,0,0)" stroke="none">20.03</tspan></tspan></tspan></text>
 <text class="TextShape" transform="rotate(-90 3511 15352)"><tspan class="TextParagraph" font-family="Liberation Sans, sans-serif" font-size="282px" font-weight="400"><tspan class="TextPosition" x="3511" y="15352"><tspan fill="rgb(0,0,0)" stroke="none">23.03</tspan></tspan></tspan></text>
 <text class="TextShape" transform="rotate(-90 3841 15352)"><tspan class="TextParagraph" font-family="Liberation Sans, sans-serif" font-size="282px" font-weight="400"><tspan class="TextPosition" x="3841" y="15352"><tspan fill="rgb(0,0,0)" stroke="none">26.03</tspan></tspan></tspan></text>
 <text class="TextShape" transform="rotate(-90 4170 15352)"><tspan class="TextParagraph" font-family="Liberation Sans, sans-serif" font-size="282px" font-weight="400"><tspan class="TextPosition" x="4170" y="15352"><tspan fill="rgb(0,0,0)" stroke="none">29.03</tspan></tspan></tspan></text>
 <text class="TextShape" transform="rotate(-90 4500 15352)"><tspan class="TextParagraph" font-family="Liberation Sans, sans-serif" font-size="282px" font-weight="400"><tspan class="TextPosition" x="4500" y="15352"><tspan fill="rgb(0,0,0)" stroke="none">01.04</tspan></tspan></tspan></text>
 <text class="TextShape" transform="rotate(-90 4830 15352)"><tspan class="TextParagraph" font-family="Liberation Sans, sans-serif" font-size="282px" font-weight="400"><tspan class="TextPosition" x="4830" y="15352"><tspan fill="rgb(0,0,0)" stroke="none">04.04</tspan></tspan></tspan></text>
 <text class="TextShape" transform="rotate(-90 5160 15352)"><tspan class="TextParagraph" font-family="Liberation Sans, sans-serif" font-size="282px" font-weight="400"><tspan class="TextPosition" x="5160" y="15352"><tspan fill="rgb(0,0,0)" stroke="none">07.04</tspan></tspan></tspan></text>
 <text class="TextShape" transform="rotate(-90 5489 15352)"><tspan class="TextParagraph" font-family="Liberation Sans, sans-serif" font-size="282px" font-weight="400"><tspan class="TextPosition" x="5489" y="15352"><tspan fill="rgb(0,0,0)" stroke="none">10.04</tspan></tspan></tspan></text>
 <text class="TextShape" transform="rotate(-90 5819 15352)"><tspan class="TextParagraph" font-family="Liberation Sans, sans-serif" font-size="282px" font-weight="400"><tspan class="TextPosition" x="5819" y="15352"><tspan fill="rgb(0,0,0)" stroke="none">13.04</tspan></tspan></tspan></text>
 <text class="TextShape" transform="rotate(-90 6149 15352)"><tspan class="TextParagraph" font-family="Liberation Sans, sans-serif" font-size="282px" font-weight="400"><tspan class="TextPosition" x="6149" y="15352"><tspan fill="rgb(0,0,0)" stroke="none">16.04</tspan></tspan></tspan></text>
 <text class="TextShape" transform="rotate(-90 6478 15352)"><tspan class="TextParagraph" font-family="Liberation Sans, sans-serif" font-size="282px" font-weight="400"><tspan class="TextPosition" x="6478" y="15352"><tspan fill="rgb(0,0,0)" stroke="none">19.04</tspan></tspan></tspan></text>
 <text class="TextShape" transform="rotate(-90 6808 15352)"><tspan class="TextParagraph" font-family="Liberation Sans, sans-serif" font-size="282px" font-weight="400"><tspan class="TextPosition" x="6808" y="15352"><tspan fill="rgb(0,0,0)" stroke="none">22.04</tspan></tspan></tspan></text>
 <text class="TextShape" transform="rotate(-90 7138 15352)"><tspan class="TextParagraph" font-family="Liberation Sans, sans-serif" font-size="282px" font-weight="400"><tspan class="TextPosition" x="7138" y="15352"><tspan fill="rgb(0,0,0)" stroke="none">25.04</tspan></tspan></tspan></text>
 <text class="TextShape" transform="rotate(-90 7468 15352)"><tspan class="TextParagraph" font-family="Liberation Sans, sans-serif" font-size="282px" font-weight="400"><tspan class="TextPosition" x="7468" y="15352"><tspan fill="rgb(0,0,0)" stroke="none">28.04</tspan></tspan></tspan></text>
 <text class="TextShape" transform="rotate(-90 7797 15352)"><tspan class="TextParagraph" font-family="Liberation Sans, sans-serif" font-size="282px" font-weight="400"><tspan class="TextPosition" x="7797" y="15352"><tspan fill="rgb(0,0,0)" stroke="none">01.05</tspan></tspan></tspan></text>
 <text class="TextShape" transform="rotate(-90 8127 15352)"><tspan class="TextParagraph" font-family="Liberation Sans, sans-serif" font-size="282px" font-weight="400"><tspan class="TextPosition" x="8127" y="15352"><tspan fill="rgb(0,0,0)" stroke="none">04.05</tspan></tspan></tspan></text>
 <text class="TextShape" transform="rotate(-90 8457 15352)"><tspan class="TextParagraph" font-family="Liberation Sans, sans-serif" font-size="282px" font-weight="400"><tspan class="TextPosition" x="8457" y="15352"><tspan fill="rgb(0,0,0)" stroke="none">07.05</tspan></tspan></tspan></text>
 <text class="TextShape" transform="rotate(-90 8786 15352)"><tspan class="TextParagraph" font-family="Liberation Sans, sans-serif" font-size="282px" font-weight="400"><tspan class="TextPosition" x="8786" y="15352"><tspan fill="rgb(0,0,0)" stroke="none">10.05</tspan></tspan></tspan></text>
 <text class="TextShape" transform="rotate(-90 9116 15352)"><tspan class="TextParagraph" font-family="Liberation Sans, sans-serif" font-size="282px" font-weight="400"><tspan class="TextPosition" x="9116" y="15352"><tspan fill="rgb(0,0,0)" stroke="none">13.05</tspan></tspan></tspan></text>
 <text class="TextShape" transform="rotate(-90 9446 15352)"><tspan class="TextParagraph" font-family="Liberation Sans, sans-serif" font-size="282px" font-weight="400"><tspan class="TextPosition" x="9446" y="15352"><tspan fill="rgb(0,0,0)" stroke="none">16.05</tspan></tspan></tspan></text>
 <text class="TextShape" transform="rotate(-90 9775 15352)"><tspan class="TextParagraph" font-family="Liberation Sans, sans-serif" font-size="282px" font-weight="400"><tspan class="TextPosition" x="9775" y="15352"><tspan fill="rgb(0,0,0)" stroke="none">19.05</tspan></tspan></tspan></text>
 <text class="TextShape" transform="rotate(-90 10105 15352)"><tspan class="TextParagraph" font-family="Liberation Sans, sans-serif" font-size="282px" font-weight="400"><tspan class="TextPosition" x="10105" y="15352"><tspan fill="rgb(0,0,0)" stroke="none">22.05</tspan></tspan></tspan></text>
 <text class="TextShape" transform="rotate(-90 10435 15352)"><tspan class="TextParagraph" font-family="Liberation Sans, sans-serif" font-size="282px" font-weight="400"><tspan class="TextPosition" x="10435" y="15352"><tspan fill="rgb(0,0,0)" stroke="none">25.05</tspan></tspan></tspan></text>
 <text class="TextShape" transform="rotate(-90 10765 15352)"><tspan class="TextParagraph" font-family="Liberation Sans, sans-serif" font-size="282px" font-weight="400"><tspan class="TextPosition" x="10765" y="15352"><tspan fill="rgb(0,0,0)" stroke="none">28.05</tspan></tspan></tspan></text>
 <text class="TextShape" transform="rotate(-90 11094 15352)"><tspan class="TextParagraph" font-family="Liberation Sans, sans-serif" font-size="282px" font-weight="400"><tspan class="TextPosition" x="11094" y="15352"><tspan fill="rgb(0,0,0)" stroke="none">31.05</tspan></tspan></tspan></text>
 <text class="TextShape" transform="rotate(-90 11424 15352)"><tspan class="TextParagraph" font-family="Liberation Sans, sans-serif" font-size="282px" font-weight="400"><tspan class="TextPosition" x="11424" y="15352"><tspan fill="rgb(0,0,0)" stroke="none">03.06</tspan></tspan></tspan></text>
 <text class="TextShape" transform="rotate(-90 11754 15352)"><tspan class="TextParagraph" font-family="Liberation Sans, sans-serif" font-size="282px" font-weight="400"><tspan class="TextPosition" x="11754" y="15352"><tspan fill="rgb(0,0,0)" stroke="none">06.06</tspan></tspan></tspan></text>
 <text class="TextShape" transform="rotate(-90 12082 15352)"><tspan class="TextParagraph" font-family="Liberation Sans, sans-serif" font-size="282px" font-weight="400"><tspan class="TextPosition" x="12082" y="15352"><tspan fill="rgb(0,0,0)" stroke="none">09.06</tspan></tspan></tspan></text>
 <text class="TextShape" transform="rotate(-90 12412 15352)"><tspan class="TextParagraph" font-family="Liberation Sans, sans-serif" font-size="282px" font-weight="400"><tspan class="TextPosition" x="12412" y="15352"><tspan fill="rgb(0,0,0)" stroke="none">12.06</tspan></tspan></tspan></text>
 <text class="TextShape" transform="rotate(-90 12742 15352)"><tspan class="TextParagraph" font-family="Liberation Sans, sans-serif" font-size="282px" font-weight="400"><tspan class="TextPosition" x="12742" y="15352"><tspan fill="rgb(0,0,0)" stroke="none">15.06</tspan></tspan></tspan></text>
 <text class="TextShape" transform="rotate(-90 13072 15352)"><tspan class="TextParagraph" font-family="Liberation Sans, sans-serif" font-size="282px" font-weight="400"><tspan class="TextPosition" x="13072" y="15352"><tspan fill="rgb(0,0,0)" stroke="none">18.06</tspan></tspan></tspan></text>
 <text class="TextShape" transform="rotate(-90 13401 15352)"><tspan class="TextParagraph" font-family="Liberation Sans, sans-serif" font-size="282px" font-weight="400"><tspan class="TextPosition" x="13401" y="15352"><tspan fill="rgb(0,0,0)" stroke="none">21.06</tspan></tspan></tspan></text>
 <text class="TextShape" transform="rotate(-90 13731 15352)"><tspan class="TextParagraph" font-family="Liberation Sans, sans-serif" font-size="282px" font-weight="400"><tspan class="TextPosition" x="13731" y="15352"><tspan fill="rgb(0,0,0)" stroke="none">24.06</tspan></tspan></tspan></text>
 <text class="TextShape" transform="rotate(-90 14061 15352)"><tspan class="TextParagraph" font-family="Liberation Sans, sans-serif" font-size="282px" font-weight="400"><tspan class="TextPosition" x="14061" y="15352"><tspan fill="rgb(0,0,0)" stroke="none">27.06</tspan></tspan></tspan></text>
 <text class="TextShape" transform="rotate(-90 14390 15352)"><tspan class="TextParagraph" font-family="Liberation Sans, sans-serif" font-size="282px" font-weight="400"><tspan class="TextPosition" x="14390" y="15352"><tspan fill="rgb(0,0,0)" stroke="none">30.06</tspan></tspan></tspan></text>
 <text class="TextShape" transform="rotate(-90 14720 15352)"><tspan class="TextParagraph" font-family="Liberation Sans, sans-serif" font-size="282px" font-weight="400"><tspan class="TextPosition" x="14720" y="15352"><tspan fill="rgb(0,0,0)" stroke="none">03.07</tspan></tspan></tspan></text>
 <text class="TextShape" transform="rotate(-90 15050 15352)"><tspan class="TextParagraph" font-family="Liberation Sans, sans-serif" font-size="282px" font-weight="400"><tspan class="TextPosition" x="15050" y="15352"><tspan fill="rgb(0,0,0)" stroke="none">06.07</tspan></tspan></tspan></text>
 <text class="TextShape" transform="rotate(-90 15380 15352)"><tspan class="TextParagraph" font-family="Liberation Sans, sans-serif" font-size="282px" font-weight="400"><tspan class="TextPosition" x="15380" y="15352"><tspan fill="rgb(0,0,0)" stroke="none">09.07</tspan></tspan></tspan></text>
 <text class="TextShape" transform="rotate(-90 15709 15352)"><tspan class="TextParagraph" font-family="Liberation Sans, sans-serif" font-size="282px" font-weight="400"><tspan class="TextPosition" x="15709" y="15352"><tspan fill="rgb(0,0,0)" stroke="none">12.07</tspan></tspan></tspan></text>
 <text class="TextShape" transform="rotate(-90 16039 15352)"><tspan class="TextParagraph" font-family="Liberation Sans, sans-serif" font-size="282px" font-weight="400"><tspan class="TextPosition" x="16039" y="15352"><tspan fill="rgb(0,0,0)" stroke="none">15.07</tspan></tspan></tspan></text>
 <text class="TextShape" transform="rotate(-90 16369 15352)"><tspan class="TextParagraph" font-family="Liberation Sans, sans-serif" font-size="282px" font-weight="400"><tspan class="TextPosition" x="16369" y="15352"><tspan fill="rgb(0,0,0)" stroke="none">18.07</tspan></tspan></tspan></text>
 <text class="TextShape" transform="rotate(-90 16698 15352)"><tspan class="TextParagraph" font-family="Liberation Sans, sans-serif" font-size="282px" font-weight="400"><tspan class="TextPosition" x="16698" y="15352"><tspan fill="rgb(0,0,0)" stroke="none">21.07</tspan></tspan></tspan></text>
 <text class="TextShape" transform="rotate(-90 17028 15352)"><tspan class="TextParagraph" font-family="Liberation Sans, sans-serif" font-size="282px" font-weight="400"><tspan class="TextPosition" x="17028" y="15352"><tspan fill="rgb(0,0,0)" stroke="none">24.07</tspan></tspan></tspan></text>
 <text class="TextShape" transform="rotate(-90 17358 15352)"><tspan class="TextParagraph" font-family="Liberation Sans, sans-serif" font-size="282px" font-weight="400"><tspan class="TextPosition" x="17358" y="15352"><tspan fill="rgb(0,0,0)" stroke="none">27.07</tspan></tspan></tspan></text>
 <text class="TextShape" transform="rotate(-90 17687 15352)"><tspan class="TextParagraph" font-family="Liberation Sans, sans-serif" font-size="282px" font-weight="400"><tspan class="TextPosition" x="17687" y="15352"><tspan fill="rgb(0,0,0)" stroke="none">30.07</tspan></tspan></tspan></text>
 <text class="TextShape" transform="rotate(-90 18017 15352)"><tspan class="TextParagraph" font-family="Liberation Sans, sans-serif" font-size="282px" font-weight="400"><tspan class="TextPosition" x="18017" y="15352"><tspan fill="rgb(0,0,0)" stroke="none">02.08</tspan></tspan></tspan></text>
 <text class="TextShape" transform="rotate(-90 18347 15352)"><tspan class="TextParagraph" font-family="Liberation Sans, sans-serif" font-size="282px" font-weight="400"><tspan class="TextPosition" x="18347" y="15352"><tspan fill="rgb(0,0,0)" stroke="none">05.08</tspan></tspan></tspan></text>
 <text class="TextShape" transform="rotate(-90 18677 15352)"><tspan class="TextParagraph" font-family="Liberation Sans, sans-serif" font-size="282px" font-weight="400"><tspan class="TextPosition" x="18677" y="15352"><tspan fill="rgb(0,0,0)" stroke="none">08.08</tspan></tspan></tspan></text>
 <text class="TextShape" transform="rotate(-90 19006 15352)"><tspan class="TextParagraph" font-family="Liberation Sans, sans-serif" font-size="282px" font-weight="400"><tspan class="TextPosition" x="19006" y="15352"><tspan fill="rgb(0,0,0)" stroke="none">11.08</tspan></tspan></tspan></text>
 <text class="TextShape" transform="rotate(-90 19336 15352)"><tspan class="TextParagraph" font-family="Liberation Sans, sans-serif" font-size="282px" font-weight="400"><tspan class="TextPosition" x="19336" y="15352"><tspan fill="rgb(0,0,0)" stroke="none">14.08</tspan></tspan></tspan></text>
 <text class="TextShape" transform="rotate(-90 19666 15352)"><tspan class="TextParagraph" font-family="Liberation Sans, sans-serif" font-size="282px" font-weight="400"><tspan class="TextPosition" x="19666" y="15352"><tspan fill="rgb(0,0,0)" stroke="none">17.08</tspan></tspan></tspan></text>
 <text class="TextShape"><tspan class="TextParagraph" font-family="Liberation Sans, sans-serif" font-size="353px" font-weight="400"><tspan class="TextPosition" x="363" y="14542"><tspan fill="rgb(0,0,0)" stroke="none">0,00 %</tspan></tspan></tspan></text>
 <text class="TextShape"><tspan class="TextParagraph" font-family="Liberation Sans, sans-serif" font-size="353px" font-weight="400"><tspan class="TextPosition" x="363" y="13258"><tspan fill="rgb(0,0,0)" stroke="none">1,00 %</tspan></tspan></tspan></text>
 <text class="TextShape"><tspan class="TextParagraph" font-family="Liberation Sans, sans-serif" font-size="353px" font-weight="400"><tspan class="TextPosition" x="363" y="11975"><tspan fill="rgb(0,0,0)" stroke="none">2,00 %</tspan></tspan></tspan></text>
 <text class="TextShape"><tspan class="TextParagraph" font-family="Liberation Sans, sans-serif" font-size="353px" font-weight="400"><tspan class="TextPosition" x="363" y="10692"><tspan fill="rgb(0,0,0)" stroke="none">3,00 %</tspan></tspan></tspan></text>
 <text class="TextShape"><tspan class="TextParagraph" font-family="Liberation Sans, sans-serif" font-size="353px" font-weight="400"><tspan class="TextPosition" x="363" y="9409"><tspan fill="rgb(0,0,0)" stroke="none">4,00 %</tspan></tspan></tspan></text>
 <text class="TextShape"><tspan class="TextParagraph" font-family="Liberation Sans, sans-serif" font-size="353px" font-weight="400"><tspan class="TextPosition" x="363" y="8126"><tspan fill="rgb(0,0,0)" stroke="none">5,00 %</tspan></tspan></tspan></text>
 <text class="TextShape"><tspan class="TextParagraph" font-family="Liberation Sans, sans-serif" font-size="353px" font-weight="400"><tspan class="TextPosition" x="363" y="6843"><tspan fill="rgb(0,0,0)" stroke="none">6,00 %</tspan></tspan></tspan></text>
 <text class="TextShape"><tspan class="TextParagraph" font-family="Liberation Sans, sans-serif" font-size="353px" font-weight="400"><tspan class="TextPosition" x="363" y="5560"><tspan fill="rgb(0,0,0)" stroke="none">7,00 %</tspan></tspan></tspan></text>
 <text class="TextShape"><tspan class="TextParagraph" font-family="Liberation Sans, sans-serif" font-size="353px" font-weight="400"><tspan class="TextPosition" x="363" y="4277"><tspan fill="rgb(0,0,0)" stroke="none">8,00 %</tspan></tspan></tspan></text>
 <text class="TextShape"><tspan class="TextParagraph" font-family="Liberation Sans, sans-serif" font-size="353px" font-weight="400"><tspan class="TextPosition" x="363" y="2994"><tspan fill="rgb(0,0,0)" stroke="none">9,00 %</tspan></tspan></tspan></text>
 <text class="TextShape"><tspan class="TextParagraph" font-family="Liberation Sans, sans-serif" font-size="353px" font-weight="400"><tspan class="TextPosition" x="173" y="1711"><tspan fill="rgb(0,0,0)" stroke="none">10,00 %</tspan></tspan></tspan></text>
 <text class="TextShape"><tspan class="TextParagraph" font-family="Liberation Sans, sans-serif" font-size="459px" font-weight="700"><tspan class="TextPosition" x="1609" y="1019"><tspan fill="rgb(0,0,0)" stroke="none">esk Republika - pomr celkovho potu obt k posunutmu celkovmu potu infikovanch</tspan></tspan></tspan></text>
 <path fill="none" stroke="rgb(0,69,134)" stroke-width="80" stroke-linejoin="round" d="M 20014,1917 L 20814,1917"/>
 <path fill="none" stroke="rgb(255,66,14)" stroke-width="80" stroke-linejoin="round" d="M 20014,2790 L 20814,2790"/>
 <path fill="none" stroke="rgb(255,211,32)" stroke-width="80" stroke-linejoin="round" d="M 20014,3663 L 20814,3663"/>
 <path fill="none" stroke="rgb(87,157,28)" stroke-width="80" stroke-linejoin="round" d="M 20014,4536 L 20814,4536"/>
 <path fill="none" stroke="rgb(126,0,33)" stroke-width="80" stroke-linejoin="round" d="M 20014,5409 L 20814,5409"/>
 <path fill="none" stroke="rgb(131,202,255)" stroke-width="80" stroke-linejoin="round" d="M 20014,6282 L 20814,6282"/>
 <path fill="none" stroke="rgb(49,64,4)" stroke-width="80" stroke-linejoin="round" d="M 20014,7155 L 20814,7155"/>
 <path fill="none" stroke="rgb(174,207,0)" stroke-width="80" stroke-linejoin="round" d="M 20014,8028 L 20814,8028"/>
 <path fill="none" stroke="rgb(75,31,111)" stroke-width="80" stroke-linejoin="round" d="M 20014,8900 L 20814,8900"/>
 <path fill="none" stroke="rgb(255,149,14)" stroke-width="80" stroke-linejoin="round" d="M 20014,9773 L 20814,9773"/>
 <path fill="none" stroke="rgb(197,0,11)" stroke-width="80" stroke-linejoin="round" d="M 20014,10646 L 20814,10646"/>
 <path fill="none" stroke="rgb(0,132,209)" stroke-width="80" stroke-linejoin="round" d="M 20014,11519 L 20814,11519"/>
 <path fill="none" stroke="rgb(0,69,134)" stroke-width="80" stroke-linejoin="round" d="M 20014,12392 L 20814,12392"/>
 <path fill="none" stroke="rgb(255,66,14)" stroke-width="80" stroke-linejoin="round" d="M 20014,13265 L 20814,13265"/>
 <path fill="none" stroke="rgb(255,211,32)" stroke-width="80" stroke-linejoin="round" d="M 20014,14138 L 20814,14138"/>
 <text class="TextShape"><tspan class="TextParagraph" font-family="Liberation Sans, sans-serif" font-size="353px" font-weight="400"><tspan class="TextPosition" x="20914" y="2034"><tspan fill="rgb(0,0,0)" stroke="none">14 dn zpodn</tspan></tspan></tspan></text>
 <text class="TextShape"><tspan class="TextParagraph" font-family="Liberation Sans, sans-serif" font-size="353px" font-weight="400"><tspan class="TextPosition" x="20914" y="2907"><tspan fill="rgb(0,0,0)" stroke="none">13 dn zpodn</tspan></tspan></tspan></text>
 <text class="TextShape"><tspan class="TextParagraph" font-family="Liberation Sans, sans-serif" font-size="353px" font-weight="400"><tspan class="TextPosition" x="20914" y="3780"><tspan fill="rgb(0,0,0)" stroke="none">12 dn zpodn</tspan></tspan></tspan></text>
 <text class="TextShape"><tspan class="TextParagraph" font-family="Liberation Sans, sans-serif" font-size="353px" font-weight="400"><tspan class="TextPosition" x="20914" y="4653"><tspan fill="rgb(0,0,0)" stroke="none">11 dn zpodn</tspan></tspan></tspan></text>
 <text class="TextShape"><tspan class="TextParagraph" font-family="Liberation Sans, sans-serif" font-size="353px" font-weight="400"><tspan class="TextPosition" x="20914" y="5526"><tspan fill="rgb(0,0,0)" stroke="none">10 dn zpodn</tspan></tspan></tspan></text>
 <text class="TextShape"><tspan class="TextParagraph" font-family="Liberation Sans, sans-serif" font-size="353px" font-weight="400"><tspan class="TextPosition" x="20914" y="6399"><tspan fill="rgb(0,0,0)" stroke="none">9 dn zpodn</tspan></tspan></tspan></text>
 <text class="TextShape"><tspan class="TextParagraph" font-family="Liberation Sans, sans-serif" font-size="353px" font-weight="400"><tspan class="TextPosition" x="20914" y="7272"><tspan fill="rgb(0,0,0)" stroke="none">8 dn zpodn</tspan></tspan></tspan></text>
 <text class="TextShape"><tspan class="TextParagraph" font-family="Liberation Sans, sans-serif" font-size="353px" font-weight="400"><tspan class="TextPosition" x="20914" y="8144"><tspan fill="rgb(0,0,0)" stroke="none">7 dn zpodn</tspan></tspan></tspan></text>
 <text class="TextShape"><tspan class="TextParagraph" font-family="Liberation Sans, sans-serif" font-size="353px" font-weight="400"><tspan class="TextPosition" x="20914" y="9017"><tspan fill="rgb(0,0,0)" stroke="none">6 dn zpodn</tspan></tspan></tspan></text>
 <text class="TextShape"><tspan class="TextParagraph" font-family="Liberation Sans, sans-serif" font-size="353px" font-weight="400"><tspan class="TextPosition" x="20914" y="9890"><tspan fill="rgb(0,0,0)" stroke="none">5 dn zpodn</tspan></tspan></tspan></text>
 <text class="TextShape"><tspan class="TextParagraph" font-family="Liberation Sans, sans-serif" font-size="353px" font-weight="400"><tspan class="TextPosition" x="20914" y="10763"><tspan fill="rgb(0,0,0)" stroke="none">4 dny zpodn</tspan></tspan></tspan></text>
 <text class="TextShape"><tspan class="TextParagraph" font-family="Liberation Sans, sans-serif" font-size="353px" font-weight="400"><tspan class="TextPosition" x="20914" y="11636"><tspan fill="rgb(0,0,0)" stroke="none">3 dny zpodn</tspan></tspan></tspan></text>
 <text class="TextShape"><tspan class="TextParagraph" font-family="Liberation Sans, sans-serif" font-size="353px" font-weight="400"><tspan class="TextPosition" x="20914" y="12509"><tspan fill="rgb(0,0,0)" stroke="none">2 dny zpodn</tspan></tspan></tspan></text>
 <text class="TextShape"><tspan class="TextParagraph" font-family="Liberation Sans, sans-serif" font-size="353px" font-weight="400"><tspan class="TextPosition" x="20914" y="13382"><tspan fill="rgb(0,0,0)" stroke="none">1 den zpodn</tspan></tspan></tspan></text>
 <text class="TextShape"><tspan class="TextParagraph" font-family="Liberation Sans, sans-serif" font-size="353px" font-weight="400"><tspan class="TextPosition" x="20914" y="14255"><tspan fill="rgb(0,0,0)" stroke="none">0 dn zpodn</tspan></tspan></tspan></text>
</svg>