<?xml version="1.0" encoding="UTF-8"?>
<!DOCTYPE svg PUBLIC "-//W3C//DTD SVG 1.1//EN" "http://www.w3.org/Graphics/SVG/1.1/DTD/svg11.dtd">
<svg width="236mm" height="161mm" viewBox="0 0 23600 16100" version="1.1" xmlns="http://www.w3.org/2000/svg" xmlns:xlink="http://www.w3.org/1999/xlink" stroke-width="28.222" stroke-linejoin="round" xml:space="preserve">
 <path fill="rgb(255,255,255)" stroke="none" d="M 11801,16126 L 0,16126 0,0 23601,0 23601,16126 11801,16126 Z"/>
 <path fill="none" stroke="rgb(179,179,179)" stroke-linejoin="round" d="M 10781,14425 L 1714,14425 1714,1595 19847,1595 19847,14425 10781,14425 Z"/>
 <path fill="none" stroke="rgb(179,179,179)" stroke-linejoin="round" d="M 19846,14424 L 1713,14424"/>
 <path fill="none" stroke="rgb(179,179,179)" stroke-linejoin="round" d="M 19846,13140 L 1713,13140"/>
 <path fill="none" stroke="rgb(179,179,179)" stroke-linejoin="round" d="M 19846,11857 L 1713,11857"/>
 <path fill="none" stroke="rgb(179,179,179)" stroke-linejoin="round" d="M 19846,10574 L 1713,10574"/>
 <path fill="none" stroke="rgb(179,179,179)" stroke-linejoin="round" d="M 19846,9291 L 1713,9291"/>
 <path fill="none" stroke="rgb(179,179,179)" stroke-linejoin="round" d="M 19846,8009 L 1713,8009"/>
 <path fill="none" stroke="rgb(179,179,179)" stroke-linejoin="round" d="M 19846,6726 L 1713,6726"/>
 <path fill="none" stroke="rgb(179,179,179)" stroke-linejoin="round" d="M 19846,5443 L 1713,5443"/>
 <path fill="none" stroke="rgb(179,179,179)" stroke-linejoin="round" d="M 19846,4160 L 1713,4160"/>
 <path fill="none" stroke="rgb(179,179,179)" stroke-linejoin="round" d="M 19846,2877 L 1713,2877"/>
 <path fill="none" stroke="rgb(179,179,179)" stroke-linejoin="round" d="M 19846,1594 L 1713,1594"/>
 <path fill="none" stroke="rgb(179,179,179)" stroke-linejoin="round" d="M 1713,14574 L 1713,14424"/>
 <path fill="none" stroke="rgb(179,179,179)" stroke-linejoin="round" d="M 1713,14574 L 1713,14424"/>
 <path fill="none" stroke="rgb(179,179,179)" stroke-linejoin="round" d="M 1827,14574 L 1827,14424"/>
 <path fill="none" stroke="rgb(179,179,179)" stroke-linejoin="round" d="M 1827,14574 L 1827,14424"/>
 <path fill="none" stroke="rgb(179,179,179)" stroke-linejoin="round" d="M 1940,14574 L 1940,14424"/>
 <path fill="none" stroke="rgb(179,179,179)" stroke-linejoin="round" d="M 1940,14574 L 1940,14424"/>
 <path fill="none" stroke="rgb(179,179,179)" stroke-linejoin="round" d="M 2054,14574 L 2054,14424"/>
 <path fill="none" stroke="rgb(179,179,179)" stroke-linejoin="round" d="M 2054,14574 L 2054,14424"/>
 <path fill="none" stroke="rgb(179,179,179)" stroke-linejoin="round" d="M 2167,14574 L 2167,14424"/>
 <path fill="none" stroke="rgb(179,179,179)" stroke-linejoin="round" d="M 2167,14574 L 2167,14424"/>
 <path fill="none" stroke="rgb(179,179,179)" stroke-linejoin="round" d="M 2280,14574 L 2280,14424"/>
 <path fill="none" stroke="rgb(179,179,179)" stroke-linejoin="round" d="M 2280,14574 L 2280,14424"/>
 <path fill="none" stroke="rgb(179,179,179)" stroke-linejoin="round" d="M 2394,14574 L 2394,14424"/>
 <path fill="none" stroke="rgb(179,179,179)" stroke-linejoin="round" d="M 2394,14574 L 2394,14424"/>
 <path fill="none" stroke="rgb(179,179,179)" stroke-linejoin="round" d="M 2507,14574 L 2507,14424"/>
 <path fill="none" stroke="rgb(179,179,179)" stroke-linejoin="round" d="M 2507,14574 L 2507,14424"/>
 <path fill="none" stroke="rgb(179,179,179)" stroke-linejoin="round" d="M 2620,14574 L 2620,14424"/>
 <path fill="none" stroke="rgb(179,179,179)" stroke-linejoin="round" d="M 2620,14574 L 2620,14424"/>
 <path fill="none" stroke="rgb(179,179,179)" stroke-linejoin="round" d="M 2734,14574 L 2734,14424"/>
 <path fill="none" stroke="rgb(179,179,179)" stroke-linejoin="round" d="M 2734,14574 L 2734,14424"/>
 <path fill="none" stroke="rgb(179,179,179)" stroke-linejoin="round" d="M 2847,14574 L 2847,14424"/>
 <path fill="none" stroke="rgb(179,179,179)" stroke-linejoin="round" d="M 2847,14574 L 2847,14424"/>
 <path fill="none" stroke="rgb(179,179,179)" stroke-linejoin="round" d="M 2960,14574 L 2960,14424"/>
 <path fill="none" stroke="rgb(179,179,179)" stroke-linejoin="round" d="M 2960,14574 L 2960,14424"/>
 <path fill="none" stroke="rgb(179,179,179)" stroke-linejoin="round" d="M 3074,14574 L 3074,14424"/>
 <path fill="none" stroke="rgb(179,179,179)" stroke-linejoin="round" d="M 3074,14574 L 3074,14424"/>
 <path fill="none" stroke="rgb(179,179,179)" stroke-linejoin="round" d="M 3187,14574 L 3187,14424"/>
 <path fill="none" stroke="rgb(179,179,179)" stroke-linejoin="round" d="M 3187,14574 L 3187,14424"/>
 <path fill="none" stroke="rgb(179,179,179)" stroke-linejoin="round" d="M 3300,14574 L 3300,14424"/>
 <path fill="none" stroke="rgb(179,179,179)" stroke-linejoin="round" d="M 3300,14574 L 3300,14424"/>
 <path fill="none" stroke="rgb(179,179,179)" stroke-linejoin="round" d="M 3414,14574 L 3414,14424"/>
 <path fill="none" stroke="rgb(179,179,179)" stroke-linejoin="round" d="M 3414,14574 L 3414,14424"/>
 <path fill="none" stroke="rgb(179,179,179)" stroke-linejoin="round" d="M 3527,14574 L 3527,14424"/>
 <path fill="none" stroke="rgb(179,179,179)" stroke-linejoin="round" d="M 3527,14574 L 3527,14424"/>
 <path fill="none" stroke="rgb(179,179,179)" stroke-linejoin="round" d="M 3640,14574 L 3640,14424"/>
 <path fill="none" stroke="rgb(179,179,179)" stroke-linejoin="round" d="M 3640,14574 L 3640,14424"/>
 <path fill="none" stroke="rgb(179,179,179)" stroke-linejoin="round" d="M 3754,14574 L 3754,14424"/>
 <path fill="none" stroke="rgb(179,179,179)" stroke-linejoin="round" d="M 3754,14574 L 3754,14424"/>
 <path fill="none" stroke="rgb(179,179,179)" stroke-linejoin="round" d="M 3867,14574 L 3867,14424"/>
 <path fill="none" stroke="rgb(179,179,179)" stroke-linejoin="round" d="M 3867,14574 L 3867,14424"/>
 <path fill="none" stroke="rgb(179,179,179)" stroke-linejoin="round" d="M 3980,14574 L 3980,14424"/>
 <path fill="none" stroke="rgb(179,179,179)" stroke-linejoin="round" d="M 3980,14574 L 3980,14424"/>
 <path fill="none" stroke="rgb(179,179,179)" stroke-linejoin="round" d="M 4094,14574 L 4094,14424"/>
 <path fill="none" stroke="rgb(179,179,179)" stroke-linejoin="round" d="M 4094,14574 L 4094,14424"/>
 <path fill="none" stroke="rgb(179,179,179)" stroke-linejoin="round" d="M 4207,14574 L 4207,14424"/>
 <path fill="none" stroke="rgb(179,179,179)" stroke-linejoin="round" d="M 4207,14574 L 4207,14424"/>
 <path fill="none" stroke="rgb(179,179,179)" stroke-linejoin="round" d="M 4320,14574 L 4320,14424"/>
 <path fill="none" stroke="rgb(179,179,179)" stroke-linejoin="round" d="M 4320,14574 L 4320,14424"/>
 <path fill="none" stroke="rgb(179,179,179)" stroke-linejoin="round" d="M 4434,14574 L 4434,14424"/>
 <path fill="none" stroke="rgb(179,179,179)" stroke-linejoin="round" d="M 4434,14574 L 4434,14424"/>
 <path fill="none" stroke="rgb(179,179,179)" stroke-linejoin="round" d="M 4547,14574 L 4547,14424"/>
 <path fill="none" stroke="rgb(179,179,179)" stroke-linejoin="round" d="M 4547,14574 L 4547,14424"/>
 <path fill="none" stroke="rgb(179,179,179)" stroke-linejoin="round" d="M 4660,14574 L 4660,14424"/>
 <path fill="none" stroke="rgb(179,179,179)" stroke-linejoin="round" d="M 4660,14574 L 4660,14424"/>
 <path fill="none" stroke="rgb(179,179,179)" stroke-linejoin="round" d="M 4774,14574 L 4774,14424"/>
 <path fill="none" stroke="rgb(179,179,179)" stroke-linejoin="round" d="M 4774,14574 L 4774,14424"/>
 <path fill="none" stroke="rgb(179,179,179)" stroke-linejoin="round" d="M 4887,14574 L 4887,14424"/>
 <path fill="none" stroke="rgb(179,179,179)" stroke-linejoin="round" d="M 4887,14574 L 4887,14424"/>
 <path fill="none" stroke="rgb(179,179,179)" stroke-linejoin="round" d="M 5000,14574 L 5000,14424"/>
 <path fill="none" stroke="rgb(179,179,179)" stroke-linejoin="round" d="M 5000,14574 L 5000,14424"/>
 <path fill="none" stroke="rgb(179,179,179)" stroke-linejoin="round" d="M 5114,14574 L 5114,14424"/>
 <path fill="none" stroke="rgb(179,179,179)" stroke-linejoin="round" d="M 5114,14574 L 5114,14424"/>
 <path fill="none" stroke="rgb(179,179,179)" stroke-linejoin="round" d="M 5227,14574 L 5227,14424"/>
 <path fill="none" stroke="rgb(179,179,179)" stroke-linejoin="round" d="M 5227,14574 L 5227,14424"/>
 <path fill="none" stroke="rgb(179,179,179)" stroke-linejoin="round" d="M 5340,14574 L 5340,14424"/>
 <path fill="none" stroke="rgb(179,179,179)" stroke-linejoin="round" d="M 5340,14574 L 5340,14424"/>
 <path fill="none" stroke="rgb(179,179,179)" stroke-linejoin="round" d="M 5454,14574 L 5454,14424"/>
 <path fill="none" stroke="rgb(179,179,179)" stroke-linejoin="round" d="M 5454,14574 L 5454,14424"/>
 <path fill="none" stroke="rgb(179,179,179)" stroke-linejoin="round" d="M 5567,14574 L 5567,14424"/>
 <path fill="none" stroke="rgb(179,179,179)" stroke-linejoin="round" d="M 5567,14574 L 5567,14424"/>
 <path fill="none" stroke="rgb(179,179,179)" stroke-linejoin="round" d="M 5680,14574 L 5680,14424"/>
 <path fill="none" stroke="rgb(179,179,179)" stroke-linejoin="round" d="M 5680,14574 L 5680,14424"/>
 <path fill="none" stroke="rgb(179,179,179)" stroke-linejoin="round" d="M 5794,14574 L 5794,14424"/>
 <path fill="none" stroke="rgb(179,179,179)" stroke-linejoin="round" d="M 5794,14574 L 5794,14424"/>
 <path fill="none" stroke="rgb(179,179,179)" stroke-linejoin="round" d="M 5907,14574 L 5907,14424"/>
 <path fill="none" stroke="rgb(179,179,179)" stroke-linejoin="round" d="M 5907,14574 L 5907,14424"/>
 <path fill="none" stroke="rgb(179,179,179)" stroke-linejoin="round" d="M 6020,14574 L 6020,14424"/>
 <path fill="none" stroke="rgb(179,179,179)" stroke-linejoin="round" d="M 6020,14574 L 6020,14424"/>
 <path fill="none" stroke="rgb(179,179,179)" stroke-linejoin="round" d="M 6134,14574 L 6134,14424"/>
 <path fill="none" stroke="rgb(179,179,179)" stroke-linejoin="round" d="M 6134,14574 L 6134,14424"/>
 <path fill="none" stroke="rgb(179,179,179)" stroke-linejoin="round" d="M 6247,14574 L 6247,14424"/>
 <path fill="none" stroke="rgb(179,179,179)" stroke-linejoin="round" d="M 6247,14574 L 6247,14424"/>
 <path fill="none" stroke="rgb(179,179,179)" stroke-linejoin="round" d="M 6360,14574 L 6360,14424"/>
 <path fill="none" stroke="rgb(179,179,179)" stroke-linejoin="round" d="M 6360,14574 L 6360,14424"/>
 <path fill="none" stroke="rgb(179,179,179)" stroke-linejoin="round" d="M 6474,14574 L 6474,14424"/>
 <path fill="none" stroke="rgb(179,179,179)" stroke-linejoin="round" d="M 6474,14574 L 6474,14424"/>
 <path fill="none" stroke="rgb(179,179,179)" stroke-linejoin="round" d="M 6587,14574 L 6587,14424"/>
 <path fill="none" stroke="rgb(179,179,179)" stroke-linejoin="round" d="M 6587,14574 L 6587,14424"/>
 <path fill="none" stroke="rgb(179,179,179)" stroke-linejoin="round" d="M 6700,14574 L 6700,14424"/>
 <path fill="none" stroke="rgb(179,179,179)" stroke-linejoin="round" d="M 6700,14574 L 6700,14424"/>
 <path fill="none" stroke="rgb(179,179,179)" stroke-linejoin="round" d="M 6814,14574 L 6814,14424"/>
 <path fill="none" stroke="rgb(179,179,179)" stroke-linejoin="round" d="M 6814,14574 L 6814,14424"/>
 <path fill="none" stroke="rgb(179,179,179)" stroke-linejoin="round" d="M 6927,14574 L 6927,14424"/>
 <path fill="none" stroke="rgb(179,179,179)" stroke-linejoin="round" d="M 6927,14574 L 6927,14424"/>
 <path fill="none" stroke="rgb(179,179,179)" stroke-linejoin="round" d="M 7040,14574 L 7040,14424"/>
 <path fill="none" stroke="rgb(179,179,179)" stroke-linejoin="round" d="M 7040,14574 L 7040,14424"/>
 <path fill="none" stroke="rgb(179,179,179)" stroke-linejoin="round" d="M 7154,14574 L 7154,14424"/>
 <path fill="none" stroke="rgb(179,179,179)" stroke-linejoin="round" d="M 7154,14574 L 7154,14424"/>
 <path fill="none" stroke="rgb(179,179,179)" stroke-linejoin="round" d="M 7267,14574 L 7267,14424"/>
 <path fill="none" stroke="rgb(179,179,179)" stroke-linejoin="round" d="M 7267,14574 L 7267,14424"/>
 <path fill="none" stroke="rgb(179,179,179)" stroke-linejoin="round" d="M 7380,14574 L 7380,14424"/>
 <path fill="none" stroke="rgb(179,179,179)" stroke-linejoin="round" d="M 7380,14574 L 7380,14424"/>
 <path fill="none" stroke="rgb(179,179,179)" stroke-linejoin="round" d="M 7494,14574 L 7494,14424"/>
 <path fill="none" stroke="rgb(179,179,179)" stroke-linejoin="round" d="M 7494,14574 L 7494,14424"/>
 <path fill="none" stroke="rgb(179,179,179)" stroke-linejoin="round" d="M 7607,14574 L 7607,14424"/>
 <path fill="none" stroke="rgb(179,179,179)" stroke-linejoin="round" d="M 7607,14574 L 7607,14424"/>
 <path fill="none" stroke="rgb(179,179,179)" stroke-linejoin="round" d="M 7720,14574 L 7720,14424"/>
 <path fill="none" stroke="rgb(179,179,179)" stroke-linejoin="round" d="M 7720,14574 L 7720,14424"/>
 <path fill="none" stroke="rgb(179,179,179)" stroke-linejoin="round" d="M 7834,14574 L 7834,14424"/>
 <path fill="none" stroke="rgb(179,179,179)" stroke-linejoin="round" d="M 7834,14574 L 7834,14424"/>
 <path fill="none" stroke="rgb(179,179,179)" stroke-linejoin="round" d="M 7947,14574 L 7947,14424"/>
 <path fill="none" stroke="rgb(179,179,179)" stroke-linejoin="round" d="M 7947,14574 L 7947,14424"/>
 <path fill="none" stroke="rgb(179,179,179)" stroke-linejoin="round" d="M 8060,14574 L 8060,14424"/>
 <path fill="none" stroke="rgb(179,179,179)" stroke-linejoin="round" d="M 8060,14574 L 8060,14424"/>
 <path fill="none" stroke="rgb(179,179,179)" stroke-linejoin="round" d="M 8174,14574 L 8174,14424"/>
 <path fill="none" stroke="rgb(179,179,179)" stroke-linejoin="round" d="M 8174,14574 L 8174,14424"/>
 <path fill="none" stroke="rgb(179,179,179)" stroke-linejoin="round" d="M 8287,14574 L 8287,14424"/>
 <path fill="none" stroke="rgb(179,179,179)" stroke-linejoin="round" d="M 8287,14574 L 8287,14424"/>
 <path fill="none" stroke="rgb(179,179,179)" stroke-linejoin="round" d="M 8400,14574 L 8400,14424"/>
 <path fill="none" stroke="rgb(179,179,179)" stroke-linejoin="round" d="M 8400,14574 L 8400,14424"/>
 <path fill="none" stroke="rgb(179,179,179)" stroke-linejoin="round" d="M 8514,14574 L 8514,14424"/>
 <path fill="none" stroke="rgb(179,179,179)" stroke-linejoin="round" d="M 8514,14574 L 8514,14424"/>
 <path fill="none" stroke="rgb(179,179,179)" stroke-linejoin="round" d="M 8627,14574 L 8627,14424"/>
 <path fill="none" stroke="rgb(179,179,179)" stroke-linejoin="round" d="M 8627,14574 L 8627,14424"/>
 <path fill="none" stroke="rgb(179,179,179)" stroke-linejoin="round" d="M 8740,14574 L 8740,14424"/>
 <path fill="none" stroke="rgb(179,179,179)" stroke-linejoin="round" d="M 8740,14574 L 8740,14424"/>
 <path fill="none" stroke="rgb(179,179,179)" stroke-linejoin="round" d="M 8854,14574 L 8854,14424"/>
 <path fill="none" stroke="rgb(179,179,179)" stroke-linejoin="round" d="M 8854,14574 L 8854,14424"/>
 <path fill="none" stroke="rgb(179,179,179)" stroke-linejoin="round" d="M 8967,14574 L 8967,14424"/>
 <path fill="none" stroke="rgb(179,179,179)" stroke-linejoin="round" d="M 8967,14574 L 8967,14424"/>
 <path fill="none" stroke="rgb(179,179,179)" stroke-linejoin="round" d="M 9080,14574 L 9080,14424"/>
 <path fill="none" stroke="rgb(179,179,179)" stroke-linejoin="round" d="M 9080,14574 L 9080,14424"/>
 <path fill="none" stroke="rgb(179,179,179)" stroke-linejoin="round" d="M 9194,14574 L 9194,14424"/>
 <path fill="none" stroke="rgb(179,179,179)" stroke-linejoin="round" d="M 9194,14574 L 9194,14424"/>
 <path fill="none" stroke="rgb(179,179,179)" stroke-linejoin="round" d="M 9307,14574 L 9307,14424"/>
 <path fill="none" stroke="rgb(179,179,179)" stroke-linejoin="round" d="M 9307,14574 L 9307,14424"/>
 <path fill="none" stroke="rgb(179,179,179)" stroke-linejoin="round" d="M 9420,14574 L 9420,14424"/>
 <path fill="none" stroke="rgb(179,179,179)" stroke-linejoin="round" d="M 9420,14574 L 9420,14424"/>
 <path fill="none" stroke="rgb(179,179,179)" stroke-linejoin="round" d="M 9534,14574 L 9534,14424"/>
 <path fill="none" stroke="rgb(179,179,179)" stroke-linejoin="round" d="M 9534,14574 L 9534,14424"/>
 <path fill="none" stroke="rgb(179,179,179)" stroke-linejoin="round" d="M 9647,14574 L 9647,14424"/>
 <path fill="none" stroke="rgb(179,179,179)" stroke-linejoin="round" d="M 9647,14574 L 9647,14424"/>
 <path fill="none" stroke="rgb(179,179,179)" stroke-linejoin="round" d="M 9760,14574 L 9760,14424"/>
 <path fill="none" stroke="rgb(179,179,179)" stroke-linejoin="round" d="M 9760,14574 L 9760,14424"/>
 <path fill="none" stroke="rgb(179,179,179)" stroke-linejoin="round" d="M 9874,14574 L 9874,14424"/>
 <path fill="none" stroke="rgb(179,179,179)" stroke-linejoin="round" d="M 9874,14574 L 9874,14424"/>
 <path fill="none" stroke="rgb(179,179,179)" stroke-linejoin="round" d="M 9987,14574 L 9987,14424"/>
 <path fill="none" stroke="rgb(179,179,179)" stroke-linejoin="round" d="M 9987,14574 L 9987,14424"/>
 <path fill="none" stroke="rgb(179,179,179)" stroke-linejoin="round" d="M 10100,14574 L 10100,14424"/>
 <path fill="none" stroke="rgb(179,179,179)" stroke-linejoin="round" d="M 10100,14574 L 10100,14424"/>
 <path fill="none" stroke="rgb(179,179,179)" stroke-linejoin="round" d="M 10214,14574 L 10214,14424"/>
 <path fill="none" stroke="rgb(179,179,179)" stroke-linejoin="round" d="M 10214,14574 L 10214,14424"/>
 <path fill="none" stroke="rgb(179,179,179)" stroke-linejoin="round" d="M 10327,14574 L 10327,14424"/>
 <path fill="none" stroke="rgb(179,179,179)" stroke-linejoin="round" d="M 10327,14574 L 10327,14424"/>
 <path fill="none" stroke="rgb(179,179,179)" stroke-linejoin="round" d="M 10440,14574 L 10440,14424"/>
 <path fill="none" stroke="rgb(179,179,179)" stroke-linejoin="round" d="M 10440,14574 L 10440,14424"/>
 <path fill="none" stroke="rgb(179,179,179)" stroke-linejoin="round" d="M 10554,14574 L 10554,14424"/>
 <path fill="none" stroke="rgb(179,179,179)" stroke-linejoin="round" d="M 10554,14574 L 10554,14424"/>
 <path fill="none" stroke="rgb(179,179,179)" stroke-linejoin="round" d="M 10667,14574 L 10667,14424"/>
 <path fill="none" stroke="rgb(179,179,179)" stroke-linejoin="round" d="M 10667,14574 L 10667,14424"/>
 <path fill="none" stroke="rgb(179,179,179)" stroke-linejoin="round" d="M 10780,14574 L 10780,14424"/>
 <path fill="none" stroke="rgb(179,179,179)" stroke-linejoin="round" d="M 10780,14574 L 10780,14424"/>
 <path fill="none" stroke="rgb(179,179,179)" stroke-linejoin="round" d="M 10894,14574 L 10894,14424"/>
 <path fill="none" stroke="rgb(179,179,179)" stroke-linejoin="round" d="M 10894,14574 L 10894,14424"/>
 <path fill="none" stroke="rgb(179,179,179)" stroke-linejoin="round" d="M 11007,14574 L 11007,14424"/>
 <path fill="none" stroke="rgb(179,179,179)" stroke-linejoin="round" d="M 11007,14574 L 11007,14424"/>
 <path fill="none" stroke="rgb(179,179,179)" stroke-linejoin="round" d="M 11121,14574 L 11121,14424"/>
 <path fill="none" stroke="rgb(179,179,179)" stroke-linejoin="round" d="M 11121,14574 L 11121,14424"/>
 <path fill="none" stroke="rgb(179,179,179)" stroke-linejoin="round" d="M 11234,14574 L 11234,14424"/>
 <path fill="none" stroke="rgb(179,179,179)" stroke-linejoin="round" d="M 11234,14574 L 11234,14424"/>
 <path fill="none" stroke="rgb(179,179,179)" stroke-linejoin="round" d="M 11347,14574 L 11347,14424"/>
 <path fill="none" stroke="rgb(179,179,179)" stroke-linejoin="round" d="M 11347,14574 L 11347,14424"/>
 <path fill="none" stroke="rgb(179,179,179)" stroke-linejoin="round" d="M 11461,14574 L 11461,14424"/>
 <path fill="none" stroke="rgb(179,179,179)" stroke-linejoin="round" d="M 11461,14574 L 11461,14424"/>
 <path fill="none" stroke="rgb(179,179,179)" stroke-linejoin="round" d="M 11574,14574 L 11574,14424"/>
 <path fill="none" stroke="rgb(179,179,179)" stroke-linejoin="round" d="M 11574,14574 L 11574,14424"/>
 <path fill="none" stroke="rgb(179,179,179)" stroke-linejoin="round" d="M 11687,14574 L 11687,14424"/>
 <path fill="none" stroke="rgb(179,179,179)" stroke-linejoin="round" d="M 11687,14574 L 11687,14424"/>
 <path fill="none" stroke="rgb(179,179,179)" stroke-linejoin="round" d="M 11801,14574 L 11801,14424"/>
 <path fill="none" stroke="rgb(179,179,179)" stroke-linejoin="round" d="M 11801,14574 L 11801,14424"/>
 <path fill="none" stroke="rgb(179,179,179)" stroke-linejoin="round" d="M 11913,14574 L 11913,14424"/>
 <path fill="none" stroke="rgb(179,179,179)" stroke-linejoin="round" d="M 11913,14574 L 11913,14424"/>
 <path fill="none" stroke="rgb(179,179,179)" stroke-linejoin="round" d="M 12026,14574 L 12026,14424"/>
 <path fill="none" stroke="rgb(179,179,179)" stroke-linejoin="round" d="M 12026,14574 L 12026,14424"/>
 <path fill="none" stroke="rgb(179,179,179)" stroke-linejoin="round" d="M 12140,14574 L 12140,14424"/>
 <path fill="none" stroke="rgb(179,179,179)" stroke-linejoin="round" d="M 12140,14574 L 12140,14424"/>
 <path fill="none" stroke="rgb(179,179,179)" stroke-linejoin="round" d="M 12253,14574 L 12253,14424"/>
 <path fill="none" stroke="rgb(179,179,179)" stroke-linejoin="round" d="M 12253,14574 L 12253,14424"/>
 <path fill="none" stroke="rgb(179,179,179)" stroke-linejoin="round" d="M 12366,14574 L 12366,14424"/>
 <path fill="none" stroke="rgb(179,179,179)" stroke-linejoin="round" d="M 12366,14574 L 12366,14424"/>
 <path fill="none" stroke="rgb(179,179,179)" stroke-linejoin="round" d="M 12480,14574 L 12480,14424"/>
 <path fill="none" stroke="rgb(179,179,179)" stroke-linejoin="round" d="M 12480,14574 L 12480,14424"/>
 <path fill="none" stroke="rgb(179,179,179)" stroke-linejoin="round" d="M 12593,14574 L 12593,14424"/>
 <path fill="none" stroke="rgb(179,179,179)" stroke-linejoin="round" d="M 12593,14574 L 12593,14424"/>
 <path fill="none" stroke="rgb(179,179,179)" stroke-linejoin="round" d="M 12706,14574 L 12706,14424"/>
 <path fill="none" stroke="rgb(179,179,179)" stroke-linejoin="round" d="M 12706,14574 L 12706,14424"/>
 <path fill="none" stroke="rgb(179,179,179)" stroke-linejoin="round" d="M 12820,14574 L 12820,14424"/>
 <path fill="none" stroke="rgb(179,179,179)" stroke-linejoin="round" d="M 12820,14574 L 12820,14424"/>
 <path fill="none" stroke="rgb(179,179,179)" stroke-linejoin="round" d="M 12933,14574 L 12933,14424"/>
 <path fill="none" stroke="rgb(179,179,179)" stroke-linejoin="round" d="M 12933,14574 L 12933,14424"/>
 <path fill="none" stroke="rgb(179,179,179)" stroke-linejoin="round" d="M 13046,14574 L 13046,14424"/>
 <path fill="none" stroke="rgb(179,179,179)" stroke-linejoin="round" d="M 13046,14574 L 13046,14424"/>
 <path fill="none" stroke="rgb(179,179,179)" stroke-linejoin="round" d="M 13160,14574 L 13160,14424"/>
 <path fill="none" stroke="rgb(179,179,179)" stroke-linejoin="round" d="M 13160,14574 L 13160,14424"/>
 <path fill="none" stroke="rgb(179,179,179)" stroke-linejoin="round" d="M 13273,14574 L 13273,14424"/>
 <path fill="none" stroke="rgb(179,179,179)" stroke-linejoin="round" d="M 13273,14574 L 13273,14424"/>
 <path fill="none" stroke="rgb(179,179,179)" stroke-linejoin="round" d="M 13386,14574 L 13386,14424"/>
 <path fill="none" stroke="rgb(179,179,179)" stroke-linejoin="round" d="M 13386,14574 L 13386,14424"/>
 <path fill="none" stroke="rgb(179,179,179)" stroke-linejoin="round" d="M 13500,14574 L 13500,14424"/>
 <path fill="none" stroke="rgb(179,179,179)" stroke-linejoin="round" d="M 13500,14574 L 13500,14424"/>
 <path fill="none" stroke="rgb(179,179,179)" stroke-linejoin="round" d="M 13613,14574 L 13613,14424"/>
 <path fill="none" stroke="rgb(179,179,179)" stroke-linejoin="round" d="M 13613,14574 L 13613,14424"/>
 <path fill="none" stroke="rgb(179,179,179)" stroke-linejoin="round" d="M 13726,14574 L 13726,14424"/>
 <path fill="none" stroke="rgb(179,179,179)" stroke-linejoin="round" d="M 13726,14574 L 13726,14424"/>
 <path fill="none" stroke="rgb(179,179,179)" stroke-linejoin="round" d="M 13840,14574 L 13840,14424"/>
 <path fill="none" stroke="rgb(179,179,179)" stroke-linejoin="round" d="M 13840,14574 L 13840,14424"/>
 <path fill="none" stroke="rgb(179,179,179)" stroke-linejoin="round" d="M 13953,14574 L 13953,14424"/>
 <path fill="none" stroke="rgb(179,179,179)" stroke-linejoin="round" d="M 13953,14574 L 13953,14424"/>
 <path fill="none" stroke="rgb(179,179,179)" stroke-linejoin="round" d="M 14066,14574 L 14066,14424"/>
 <path fill="none" stroke="rgb(179,179,179)" stroke-linejoin="round" d="M 14066,14574 L 14066,14424"/>
 <path fill="none" stroke="rgb(179,179,179)" stroke-linejoin="round" d="M 14180,14574 L 14180,14424"/>
 <path fill="none" stroke="rgb(179,179,179)" stroke-linejoin="round" d="M 14180,14574 L 14180,14424"/>
 <path fill="none" stroke="rgb(179,179,179)" stroke-linejoin="round" d="M 14293,14574 L 14293,14424"/>
 <path fill="none" stroke="rgb(179,179,179)" stroke-linejoin="round" d="M 14293,14574 L 14293,14424"/>
 <path fill="none" stroke="rgb(179,179,179)" stroke-linejoin="round" d="M 14406,14574 L 14406,14424"/>
 <path fill="none" stroke="rgb(179,179,179)" stroke-linejoin="round" d="M 14406,14574 L 14406,14424"/>
 <path fill="none" stroke="rgb(179,179,179)" stroke-linejoin="round" d="M 14520,14574 L 14520,14424"/>
 <path fill="none" stroke="rgb(179,179,179)" stroke-linejoin="round" d="M 14520,14574 L 14520,14424"/>
 <path fill="none" stroke="rgb(179,179,179)" stroke-linejoin="round" d="M 14633,14574 L 14633,14424"/>
 <path fill="none" stroke="rgb(179,179,179)" stroke-linejoin="round" d="M 14633,14574 L 14633,14424"/>
 <path fill="none" stroke="rgb(179,179,179)" stroke-linejoin="round" d="M 14746,14574 L 14746,14424"/>
 <path fill="none" stroke="rgb(179,179,179)" stroke-linejoin="round" d="M 14746,14574 L 14746,14424"/>
 <path fill="none" stroke="rgb(179,179,179)" stroke-linejoin="round" d="M 14860,14574 L 14860,14424"/>
 <path fill="none" stroke="rgb(179,179,179)" stroke-linejoin="round" d="M 14860,14574 L 14860,14424"/>
 <path fill="none" stroke="rgb(179,179,179)" stroke-linejoin="round" d="M 14973,14574 L 14973,14424"/>
 <path fill="none" stroke="rgb(179,179,179)" stroke-linejoin="round" d="M 14973,14574 L 14973,14424"/>
 <path fill="none" stroke="rgb(179,179,179)" stroke-linejoin="round" d="M 15086,14574 L 15086,14424"/>
 <path fill="none" stroke="rgb(179,179,179)" stroke-linejoin="round" d="M 15086,14574 L 15086,14424"/>
 <path fill="none" stroke="rgb(179,179,179)" stroke-linejoin="round" d="M 15200,14574 L 15200,14424"/>
 <path fill="none" stroke="rgb(179,179,179)" stroke-linejoin="round" d="M 15200,14574 L 15200,14424"/>
 <path fill="none" stroke="rgb(179,179,179)" stroke-linejoin="round" d="M 15313,14574 L 15313,14424"/>
 <path fill="none" stroke="rgb(179,179,179)" stroke-linejoin="round" d="M 15313,14574 L 15313,14424"/>
 <path fill="none" stroke="rgb(179,179,179)" stroke-linejoin="round" d="M 15426,14574 L 15426,14424"/>
 <path fill="none" stroke="rgb(179,179,179)" stroke-linejoin="round" d="M 15426,14574 L 15426,14424"/>
 <path fill="none" stroke="rgb(179,179,179)" stroke-linejoin="round" d="M 15540,14574 L 15540,14424"/>
 <path fill="none" stroke="rgb(179,179,179)" stroke-linejoin="round" d="M 15540,14574 L 15540,14424"/>
 <path fill="none" stroke="rgb(179,179,179)" stroke-linejoin="round" d="M 15653,14574 L 15653,14424"/>
 <path fill="none" stroke="rgb(179,179,179)" stroke-linejoin="round" d="M 15653,14574 L 15653,14424"/>
 <path fill="none" stroke="rgb(179,179,179)" stroke-linejoin="round" d="M 15766,14574 L 15766,14424"/>
 <path fill="none" stroke="rgb(179,179,179)" stroke-linejoin="round" d="M 15766,14574 L 15766,14424"/>
 <path fill="none" stroke="rgb(179,179,179)" stroke-linejoin="round" d="M 15880,14574 L 15880,14424"/>
 <path fill="none" stroke="rgb(179,179,179)" stroke-linejoin="round" d="M 15880,14574 L 15880,14424"/>
 <path fill="none" stroke="rgb(179,179,179)" stroke-linejoin="round" d="M 15993,14574 L 15993,14424"/>
 <path fill="none" stroke="rgb(179,179,179)" stroke-linejoin="round" d="M 15993,14574 L 15993,14424"/>
 <path fill="none" stroke="rgb(179,179,179)" stroke-linejoin="round" d="M 16106,14574 L 16106,14424"/>
 <path fill="none" stroke="rgb(179,179,179)" stroke-linejoin="round" d="M 16106,14574 L 16106,14424"/>
 <path fill="none" stroke="rgb(179,179,179)" stroke-linejoin="round" d="M 16220,14574 L 16220,14424"/>
 <path fill="none" stroke="rgb(179,179,179)" stroke-linejoin="round" d="M 16220,14574 L 16220,14424"/>
 <path fill="none" stroke="rgb(179,179,179)" stroke-linejoin="round" d="M 16333,14574 L 16333,14424"/>
 <path fill="none" stroke="rgb(179,179,179)" stroke-linejoin="round" d="M 16333,14574 L 16333,14424"/>
 <path fill="none" stroke="rgb(179,179,179)" stroke-linejoin="round" d="M 16446,14574 L 16446,14424"/>
 <path fill="none" stroke="rgb(179,179,179)" stroke-linejoin="round" d="M 16446,14574 L 16446,14424"/>
 <path fill="none" stroke="rgb(179,179,179)" stroke-linejoin="round" d="M 16560,14574 L 16560,14424"/>
 <path fill="none" stroke="rgb(179,179,179)" stroke-linejoin="round" d="M 16560,14574 L 16560,14424"/>
 <path fill="none" stroke="rgb(179,179,179)" stroke-linejoin="round" d="M 16673,14574 L 16673,14424"/>
 <path fill="none" stroke="rgb(179,179,179)" stroke-linejoin="round" d="M 16673,14574 L 16673,14424"/>
 <path fill="none" stroke="rgb(179,179,179)" stroke-linejoin="round" d="M 16786,14574 L 16786,14424"/>
 <path fill="none" stroke="rgb(179,179,179)" stroke-linejoin="round" d="M 16786,14574 L 16786,14424"/>
 <path fill="none" stroke="rgb(179,179,179)" stroke-linejoin="round" d="M 16900,14574 L 16900,14424"/>
 <path fill="none" stroke="rgb(179,179,179)" stroke-linejoin="round" d="M 16900,14574 L 16900,14424"/>
 <path fill="none" stroke="rgb(179,179,179)" stroke-linejoin="round" d="M 17013,14574 L 17013,14424"/>
 <path fill="none" stroke="rgb(179,179,179)" stroke-linejoin="round" d="M 17013,14574 L 17013,14424"/>
 <path fill="none" stroke="rgb(179,179,179)" stroke-linejoin="round" d="M 17126,14574 L 17126,14424"/>
 <path fill="none" stroke="rgb(179,179,179)" stroke-linejoin="round" d="M 17126,14574 L 17126,14424"/>
 <path fill="none" stroke="rgb(179,179,179)" stroke-linejoin="round" d="M 17240,14574 L 17240,14424"/>
 <path fill="none" stroke="rgb(179,179,179)" stroke-linejoin="round" d="M 17240,14574 L 17240,14424"/>
 <path fill="none" stroke="rgb(179,179,179)" stroke-linejoin="round" d="M 17353,14574 L 17353,14424"/>
 <path fill="none" stroke="rgb(179,179,179)" stroke-linejoin="round" d="M 17353,14574 L 17353,14424"/>
 <path fill="none" stroke="rgb(179,179,179)" stroke-linejoin="round" d="M 17466,14574 L 17466,14424"/>
 <path fill="none" stroke="rgb(179,179,179)" stroke-linejoin="round" d="M 17466,14574 L 17466,14424"/>
 <path fill="none" stroke="rgb(179,179,179)" stroke-linejoin="round" d="M 17580,14574 L 17580,14424"/>
 <path fill="none" stroke="rgb(179,179,179)" stroke-linejoin="round" d="M 17580,14574 L 17580,14424"/>
 <path fill="none" stroke="rgb(179,179,179)" stroke-linejoin="round" d="M 17693,14574 L 17693,14424"/>
 <path fill="none" stroke="rgb(179,179,179)" stroke-linejoin="round" d="M 17693,14574 L 17693,14424"/>
 <path fill="none" stroke="rgb(179,179,179)" stroke-linejoin="round" d="M 17806,14574 L 17806,14424"/>
 <path fill="none" stroke="rgb(179,179,179)" stroke-linejoin="round" d="M 17806,14574 L 17806,14424"/>
 <path fill="none" stroke="rgb(179,179,179)" stroke-linejoin="round" d="M 17920,14574 L 17920,14424"/>
 <path fill="none" stroke="rgb(179,179,179)" stroke-linejoin="round" d="M 17920,14574 L 17920,14424"/>
 <path fill="none" stroke="rgb(179,179,179)" stroke-linejoin="round" d="M 18033,14574 L 18033,14424"/>
 <path fill="none" stroke="rgb(179,179,179)" stroke-linejoin="round" d="M 18033,14574 L 18033,14424"/>
 <path fill="none" stroke="rgb(179,179,179)" stroke-linejoin="round" d="M 18146,14574 L 18146,14424"/>
 <path fill="none" stroke="rgb(179,179,179)" stroke-linejoin="round" d="M 18146,14574 L 18146,14424"/>
 <path fill="none" stroke="rgb(179,179,179)" stroke-linejoin="round" d="M 18260,14574 L 18260,14424"/>
 <path fill="none" stroke="rgb(179,179,179)" stroke-linejoin="round" d="M 18260,14574 L 18260,14424"/>
 <path fill="none" stroke="rgb(179,179,179)" stroke-linejoin="round" d="M 18373,14574 L 18373,14424"/>
 <path fill="none" stroke="rgb(179,179,179)" stroke-linejoin="round" d="M 18373,14574 L 18373,14424"/>
 <path fill="none" stroke="rgb(179,179,179)" stroke-linejoin="round" d="M 18486,14574 L 18486,14424"/>
 <path fill="none" stroke="rgb(179,179,179)" stroke-linejoin="round" d="M 18486,14574 L 18486,14424"/>
 <path fill="none" stroke="rgb(179,179,179)" stroke-linejoin="round" d="M 18600,14574 L 18600,14424"/>
 <path fill="none" stroke="rgb(179,179,179)" stroke-linejoin="round" d="M 18600,14574 L 18600,14424"/>
 <path fill="none" stroke="rgb(179,179,179)" stroke-linejoin="round" d="M 18713,14574 L 18713,14424"/>
 <path fill="none" stroke="rgb(179,179,179)" stroke-linejoin="round" d="M 18713,14574 L 18713,14424"/>
 <path fill="none" stroke="rgb(179,179,179)" stroke-linejoin="round" d="M 18826,14574 L 18826,14424"/>
 <path fill="none" stroke="rgb(179,179,179)" stroke-linejoin="round" d="M 18826,14574 L 18826,14424"/>
 <path fill="none" stroke="rgb(179,179,179)" stroke-linejoin="round" d="M 18940,14574 L 18940,14424"/>
 <path fill="none" stroke="rgb(179,179,179)" stroke-linejoin="round" d="M 18940,14574 L 18940,14424"/>
 <path fill="none" stroke="rgb(179,179,179)" stroke-linejoin="round" d="M 19053,14574 L 19053,14424"/>
 <path fill="none" stroke="rgb(179,179,179)" stroke-linejoin="round" d="M 19053,14574 L 19053,14424"/>
 <path fill="none" stroke="rgb(179,179,179)" stroke-linejoin="round" d="M 19166,14574 L 19166,14424"/>
 <path fill="none" stroke="rgb(179,179,179)" stroke-linejoin="round" d="M 19166,14574 L 19166,14424"/>
 <path fill="none" stroke="rgb(179,179,179)" stroke-linejoin="round" d="M 19280,14574 L 19280,14424"/>
 <path fill="none" stroke="rgb(179,179,179)" stroke-linejoin="round" d="M 19280,14574 L 19280,14424"/>
 <path fill="none" stroke="rgb(179,179,179)" stroke-linejoin="round" d="M 19393,14574 L 19393,14424"/>
 <path fill="none" stroke="rgb(179,179,179)" stroke-linejoin="round" d="M 19393,14574 L 19393,14424"/>
 <path fill="none" stroke="rgb(179,179,179)" stroke-linejoin="round" d="M 19506,14574 L 19506,14424"/>
 <path fill="none" stroke="rgb(179,179,179)" stroke-linejoin="round" d="M 19506,14574 L 19506,14424"/>
 <path fill="none" stroke="rgb(179,179,179)" stroke-linejoin="round" d="M 19620,14574 L 19620,14424"/>
 <path fill="none" stroke="rgb(179,179,179)" stroke-linejoin="round" d="M 19620,14574 L 19620,14424"/>
 <path fill="none" stroke="rgb(179,179,179)" stroke-linejoin="round" d="M 19733,14574 L 19733,14424"/>
 <path fill="none" stroke="rgb(179,179,179)" stroke-linejoin="round" d="M 19733,14574 L 19733,14424"/>
 <path fill="none" stroke="rgb(179,179,179)" stroke-linejoin="round" d="M 19846,14574 L 19846,14424"/>
 <path fill="none" stroke="rgb(179,179,179)" stroke-linejoin="round" d="M 19846,14574 L 19846,14424"/>
 <path fill="none" stroke="rgb(179,179,179)" stroke-linejoin="round" d="M 1713,14424 L 19846,14424"/>
 <path fill="none" stroke="rgb(179,179,179)" stroke-linejoin="round" d="M 1563,14424 L 1713,14424"/>
 <path fill="none" stroke="rgb(179,179,179)" stroke-linejoin="round" d="M 1563,14424 L 1713,14424"/>
 <path fill="none" stroke="rgb(179,179,179)" stroke-linejoin="round" d="M 1563,13140 L 1713,13140"/>
 <path fill="none" stroke="rgb(179,179,179)" stroke-linejoin="round" d="M 1563,13140 L 1713,13140"/>
 <path fill="none" stroke="rgb(179,179,179)" stroke-linejoin="round" d="M 1563,11857 L 1713,11857"/>
 <path fill="none" stroke="rgb(179,179,179)" stroke-linejoin="round" d="M 1563,11857 L 1713,11857"/>
 <path fill="none" stroke="rgb(179,179,179)" stroke-linejoin="round" d="M 1563,10574 L 1713,10574"/>
 <path fill="none" stroke="rgb(179,179,179)" stroke-linejoin="round" d="M 1563,10574 L 1713,10574"/>
 <path fill="none" stroke="rgb(179,179,179)" stroke-linejoin="round" d="M 1563,9291 L 1713,9291"/>
 <path fill="none" stroke="rgb(179,179,179)" stroke-linejoin="round" d="M 1563,9291 L 1713,9291"/>
 <path fill="none" stroke="rgb(179,179,179)" stroke-linejoin="round" d="M 1563,8009 L 1713,8009"/>
 <path fill="none" stroke="rgb(179,179,179)" stroke-linejoin="round" d="M 1563,8009 L 1713,8009"/>
 <path fill="none" stroke="rgb(179,179,179)" stroke-linejoin="round" d="M 1563,6726 L 1713,6726"/>
 <path fill="none" stroke="rgb(179,179,179)" stroke-linejoin="round" d="M 1563,6726 L 1713,6726"/>
 <path fill="none" stroke="rgb(179,179,179)" stroke-linejoin="round" d="M 1563,5443 L 1713,5443"/>
 <path fill="none" stroke="rgb(179,179,179)" stroke-linejoin="round" d="M 1563,5443 L 1713,5443"/>
 <path fill="none" stroke="rgb(179,179,179)" stroke-linejoin="round" d="M 1563,4160 L 1713,4160"/>
 <path fill="none" stroke="rgb(179,179,179)" stroke-linejoin="round" d="M 1563,4160 L 1713,4160"/>
 <path fill="none" stroke="rgb(179,179,179)" stroke-linejoin="round" d="M 1563,2877 L 1713,2877"/>
 <path fill="none" stroke="rgb(179,179,179)" stroke-linejoin="round" d="M 1563,2877 L 1713,2877"/>
 <path fill="none" stroke="rgb(179,179,179)" stroke-linejoin="round" d="M 1563,1594 L 1713,1594"/>
 <path fill="none" stroke="rgb(179,179,179)" stroke-linejoin="round" d="M 1563,1594 L 1713,1594"/>
 <path fill="none" stroke="rgb(179,179,179)" stroke-linejoin="round" d="M 1713,14424 L 1713,1594"/>
 <path fill="none" stroke="rgb(0,69,134)" stroke-width="80" stroke-linejoin="round" d="M 2564,14424 L 2677,14424 2790,14424 2904,14424 3017,14424 3130,14424 3244,14424 3357,10284 3470,10284 3584,5036 3697,5965 3810,2140 3924,6235 4037,6957 4150,6310 4264,4521 4377,4380 4490,3640 4604,6290 4717,6261 4830,6816 4944,6749 5057,6327 5170,6325 5284,6745 5397,6959 5510,7725 5624,8132 5737,8138 5850,8309 5964,8179 6077,8352 6190,8803 6304,8998 6417,9230 6530,9221 6644,9261 6757,9283 6870,9399 6984,9585 7097,9633 7210,9626 7324,9712 7437,9701 7550,9657 7664,9738 7777,9716 7890,9721 8004,9665 8117,9707 8230,9737 8344,9735 8457,9710 8570,9603 8684,9607 8797,9607 8910,9571 9024,9563 9137,9585 9250,9514 9364,9530 9477,9531 9590,9526 9704,9509 9817,9550 9930,9516 10044,9532 10157,9535 10270,9467 10384,9446 10497,9448 10610,9449 10724,9476 10837,9505 10951,9522 11064,9554 11177,9582 11291,9579 11404,9626 11517,9631 11631,9642 11744,9645 11856,9663 11970,9704 12083,9738 12196,9748 12310,9773 12423,9763 12536,9819 12650,9833 12763,9864 12876,9869 12990,9872 13103,9888 13216,9896 13330,9910 13443,9913 13556,9917 13670,9946 13783,9978 13896,9963 14010,9944 14123,9932 14236,9918 14350,9941 14463,9969 14576,9987 14690,9995 14803,10017 14916,10018 15030,10071 15143,10113 15256,10170 15370,10156 15483,10195 15596,10245 15710,10268 15823,10332 15936,10426 16050,10531 16163,10587 16276,10613 16390,10642 16503,10683 16616,10695 16730,10731 16843,10743 16956,10758 17070,10782 17183,10779 17296,10798 17410,10782 17523,10813 17636,10810 17750,10808 17863,10826 17976,10862 18090,10851 18203,10857 18316,10877 18430,10890 18543,10910 18656,10993 18770,11007 18883,11042 18996,11114 19110,11142 19223,11158 19336,11198 19450,11248 19563,11306 19676,11359 19790,11373"/>
 <path fill="none" stroke="rgb(255,66,14)" stroke-width="80" stroke-linejoin="round" d="M 2450,14424 L 2564,14424 2677,14424 2790,14424 2904,14424 3017,14424 3130,14424 3244,14424 3357,10284 3470,11294 3584,10194 3697,6235 3810,6235 3924,8314 4037,8845 4150,7535 4264,6972 4377,5852 4490,7214 4604,7647 4717,7590 4830,7665 4944,7469 5057,7245 5170,7598 5284,7826 5397,8118 5510,8620 5624,8548 5737,8523 5850,8877 5964,8535 6077,8903 6190,9123 6304,9460 6417,9360 6530,9474 6644,9462 6757,9568 6870,9631 6984,9723 7097,9714 7210,9755 7324,9765 7437,9741 7550,9738 7664,9896 7777,9800 7890,9762 8004,9764 8117,9812 8230,9826 8344,9800 8457,9746 8570,9660 8684,9659 8797,9640 8910,9598 9024,9602 9137,9632 9250,9580 9364,9564 9477,9543 9590,9542 9704,9533 9817,9597 9930,9564 10044,9567 10157,9562 10270,9478 10384,9464 10497,9480 10610,9476 10724,9505 10837,9553 10951,9554 11064,9582 11177,9594 11291,9641 11404,9660 11517,9671 11631,9660 11744,9677 11856,9704 11970,9738 12083,9763 12196,9773 12310,9792 12423,9791 12536,9847 12650,9850 12763,9883 12876,9885 12990,9902 13103,9924 13216,9923 13330,9926 13443,9931 13556,9946 13670,9978 13783,10002 13896,9996 14010,9958 14123,9969 14236,9941 14350,9956 14463,9987 14576,10007 14690,10017 14803,10067 14916,10071 15030,10088 15143,10133 15256,10180 15370,10207 15483,10245 15596,10280 15710,10332 15823,10426 15936,10531 16050,10598 16163,10635 16276,10642 16390,10683 16503,10726 16616,10731 16730,10753 16843,10758 16956,10792 17070,10819 17183,10808 17296,10821 17410,10813 17523,10830 17636,10828 17750,10836 17863,10862 17976,10898 18090,10885 18203,10886 18316,10899 18430,10929 18543,10966 18656,11051 18770,11060 18883,11105 18996,11142 19110,11166 19223,11198 19336,11256 19450,11306 19563,11359 19676,11397 19790,11396"/>
 <path fill="none" stroke="rgb(255,211,32)" stroke-width="80" stroke-linejoin="round" d="M 2337,14424 L 2450,14424 2564,14424 2677,14424 2790,14424 2904,14424 3017,14424 3130,14424 3244,14424 3357,11294 3470,13014 3584,10329 3697,8964 3810,8314 3924,9859 4037,9687 4150,9239 4264,8063 4377,8692 4490,8416 4604,8749 4717,8352 4830,8299 4944,8257 5057,8373 5170,8558 5284,8850 5397,8961 5510,9003 5624,8908 5737,9071 5850,9193 5964,9069 6077,9217 6190,9575 6304,9584 6417,9607 6530,9667 6644,9737 6757,9792 6870,9767 6984,9802 7097,9840 7210,9807 7324,9804 7437,9820 7550,9896 7664,9976 7777,9840 7890,9859 8004,9868 8117,9899 8230,9890 8344,9835 8457,9801 8570,9711 8684,9692 8797,9667 8910,9636 9024,9649 9137,9697 9250,9614 9364,9576 9477,9559 9590,9566 9704,9581 9817,9644 9930,9598 10044,9594 10157,9573 10270,9495 10384,9496 10497,9507 10610,9505 10724,9553 10837,9585 10951,9582 11064,9594 11177,9656 11291,9675 11404,9701 11517,9689 11631,9692 11744,9718 11856,9738 11970,9763 12083,9787 12196,9792 12310,9819 12423,9819 12536,9864 12650,9869 12763,9899 12876,9915 12990,9937 13103,9950 13216,9940 13330,9944 13443,9959 13556,9978 13670,10002 13783,10035 13896,10010 14010,9995 14123,9993 14236,9956 14350,9974 14463,10007 14576,10029 14690,10067 14803,10120 14916,10088 15030,10109 15143,10144 15256,10231 15370,10256 15483,10280 15596,10343 15710,10426 15823,10531 15936,10598 16050,10645 16163,10663 16276,10683 16390,10726 16503,10762 16616,10753 16730,10768 16843,10792 16956,10829 17070,10848 17183,10831 17296,10853 17410,10830 17523,10847 17636,10855 17750,10872 17863,10898 17976,10931 18090,10914 18203,10909 18316,10938 18430,10984 18543,11024 18656,11103 18770,11122 18883,11134 18996,11166 19110,11207 19223,11256 19336,11314 19450,11359 19563,11397 19676,11419 19790,11414"/>
 <path fill="none" stroke="rgb(87,157,28)" stroke-width="80" stroke-linejoin="round" d="M 2224,14424 L 2337,14424 2450,14424 2564,14424 2677,14424 2790,14424 2904,14424 3017,14424 3130,14424 3244,14424 3357,13014 3470,13059 3584,11694 3697,10350 3810,9859 3924,10548 4037,10859 4150,9999 4264,10171 4377,9648 4490,9394 4604,9383 4717,8922 4830,8993 4944,9226 5057,9224 5170,9469 5284,9595 5397,9322 5510,9336 5624,9420 5737,9376 5850,9668 5964,9374 6077,9661 6190,9696 6304,9820 6417,9794 6530,9931 6644,9954 6757,9924 6870,9847 6984,9926 7097,9892 7210,9846 7324,9882 7437,9976 7550,9976 7664,10014 7777,9935 7890,9961 8004,9954 8117,9962 8230,9925 8344,9890 8457,9851 8570,9744 8684,9719 8797,9704 8910,9683 9024,9713 9137,9730 9250,9625 9364,9592 9477,9583 9590,9614 9704,9628 9817,9678 9930,9626 10044,9605 10157,9590 10270,9527 10384,9523 10497,9536 10610,9553 10724,9585 10837,9613 10951,9594 11064,9656 11177,9690 11291,9715 11404,9719 11517,9721 11631,9733 11744,9752 11856,9763 11970,9787 12083,9806 12196,9819 12310,9847 12423,9836 12536,9883 12650,9885 12763,9929 12876,9951 12990,9964 13103,9967 13216,9957 13330,9972 13443,9991 13556,10002 13670,10035 13783,10049 13896,10047 14010,10019 14123,10007 14236,9974 14350,9995 14463,10029 14576,10080 14690,10120 14803,10137 14916,10109 15030,10119 15143,10195 15256,10280 15370,10292 15483,10343 15596,10437 15710,10531 15823,10598 15936,10645 16050,10674 16163,10704 16276,10726 16390,10762 16503,10784 16616,10768 16730,10802 16843,10829 16956,10858 17070,10871 17183,10862 17296,10869 17410,10847 17523,10875 17636,10891 17750,10908 17863,10931 17976,10960 18090,10936 18203,10947 18316,10993 18430,11042 18543,11077 18656,11165 18770,11151 18883,11158 18996,11207 19110,11264 19223,11314 19336,11367 19450,11397 19563,11419 19676,11437 19790,11451"/>
 <path fill="none" stroke="rgb(126,0,33)" stroke-width="80" stroke-linejoin="round" d="M 2110,14424 L 2224,14424 2337,14424 2450,14424 2564,14424 2677,14424 2790,14424 2904,14424 3017,14424 3130,14424 3244,14424 3357,13059 3470,13514 3584,12387 3697,11381 3810,10548 3924,11507 4037,11382 4150,11465 4264,10881 4377,10426 4490,9956 4604,9856 4717,9545 4830,9847 4944,9958 5057,10032 5170,10132 5284,9914 5397,9635 5510,9808 5624,9705 5737,9834 5850,9938 5964,9804 6077,9780 6190,9927 6304,9999 6417,10051 6530,10138 6644,10081 6757,10001 6870,9969 6984,9976 7097,9930 7210,9924 7324,10035 7437,10054 7550,10014 7664,10106 7777,10035 7890,10045 8004,10016 8117,9996 8230,9978 8344,9938 8457,9883 8570,9770 8684,9756 8797,9751 8910,9747 9024,9747 9137,9741 9250,9641 9364,9615 9477,9630 9590,9661 9704,9662 9817,9705 9930,9637 10044,9622 10157,9621 10270,9554 10384,9551 10497,9584 10610,9585 10724,9613 10837,9624 10951,9656 11064,9690 11177,9730 11291,9733 11404,9750 11517,9762 11631,9767 11744,9777 11856,9787 11970,9806 12083,9833 12196,9847 12310,9864 12423,9855 12536,9899 12650,9915 12763,9964 12876,9977 12990,9980 13103,9984 13216,9986 13330,10004 13443,10015 13556,10035 13670,10049 13783,10085 13896,10070 14010,10033 14123,10025 14236,9995 14350,10017 14463,10080 14576,10133 14690,10137 14803,10158 14916,10119 15030,10171 15143,10245 15256,10316 15370,10355 15483,10437 15596,10542 15710,10598 15823,10645 15936,10674 16050,10715 16163,10747 16276,10762 16390,10784 16503,10799 16616,10802 16730,10839 16843,10858 16956,10880 17070,10901 17183,10878 17296,10886 17410,10875 17523,10910 17636,10926 17750,10941 17863,10960 17976,10982 18090,10974 18203,11002 18316,11051 18430,11094 18543,11139 18656,11193 18770,11175 18883,11198 18996,11264 19110,11322 19223,11367 19336,11404 19450,11419 19563,11437 19676,11474 19790,11499"/>
 <path fill="none" stroke="rgb(131,202,255)" stroke-width="80" stroke-linejoin="round" d="M 1997,14424 L 2110,14424 2224,14424 2337,14424 2450,14424 2564,14424 2677,14424 2790,14424 2904,14424 3017,14424 3130,14424 3244,14424 3357,13514 3470,13745 3584,12902 3697,11840 3810,11507 3924,11935 4037,12390 4150,11959 4264,11458 4377,10872 4490,10375 4604,10374 4717,10312 4830,10491 4944,10651 5057,10620 5170,10415 5284,10191 5397,10079 5510,10071 5624,10133 5737,10095 5850,10321 5964,9920 6077,10006 6190,10101 6304,10245 6417,10253 6530,10260 6644,10155 6757,10119 6870,10019 6984,10014 7097,10006 7210,10075 7324,10113 7437,10092 7550,10106 7664,10202 7777,10118 7890,10106 8004,10049 8117,10048 8230,10025 8344,9970 8457,9908 8570,9807 8684,9802 8797,9814 8910,9780 9024,9758 9137,9757 9250,9665 9364,9662 9477,9677 9590,9694 9704,9690 9817,9716 9930,9653 10044,9653 10157,9648 10270,9582 10384,9599 10497,9615 10610,9613 10724,9624 10837,9686 10951,9690 11064,9730 11177,9748 11291,9765 11404,9790 11517,9795 11631,9791 11744,9802 11856,9806 11970,9833 12083,9861 12196,9864 12310,9883 12423,9872 12536,9929 12650,9951 12763,9991 12876,9993 12990,9998 13103,10012 13216,10017 13330,10029 13443,10048 13556,10049 13670,10085 13783,10108 13896,10084 14010,10050 14123,10045 14236,10017 14350,10067 14463,10133 14576,10150 14690,10158 14803,10168 14916,10171 15030,10221 15143,10280 15256,10378 15370,10449 15483,10542 15596,10608 15710,10645 15823,10674 15936,10715 16050,10757 16163,10783 16276,10784 16390,10799 16503,10833 16616,10839 16730,10868 16843,10880 16956,10911 17070,10917 17183,10895 17296,10913 17410,10910 17523,10945 17636,10959 17750,10969 17863,10982 17976,11020 18090,11029 18203,11059 18316,11103 18430,11156 18543,11168 18656,11217 18770,11215 18883,11256 18996,11322 19110,11375 19223,11404 19336,11427 19450,11437 19563,11474 19676,11521 19790,11539"/>
 <path fill="none" stroke="rgb(49,64,4)" stroke-width="80" stroke-linejoin="round" d="M 1884,14424 L 1997,14424 2110,14424 2224,14424 2337,14424 2450,14424 2564,14424 2677,14424 2790,14424 2904,14424 3017,14424 3130,14424 3244,14424 3357,13745 3470,13916 3584,13132 3697,12479 3810,11935 3924,12760 4037,12729 4150,12360 4264,11789 4377,11205 4490,10834 4604,11010 4717,10891 4830,11102 4944,11156 5057,10871 5170,10661 5284,10584 5397,10327 5510,10466 5624,10378 5737,10464 5850,10423 5964,10139 6077,10178 6190,10341 6304,10438 6417,10372 6530,10331 6644,10269 6757,10167 6870,10056 6984,10089 7097,10155 7210,10152 7324,10150 7437,10182 7550,10202 7664,10282 7777,10178 7890,10139 8004,10101 8117,10095 8230,10056 8344,9994 8457,9944 8570,9852 8684,9864 8797,9846 8910,9791 9024,9773 9137,9779 9250,9711 9364,9709 9477,9710 9590,9721 9704,9700 9817,9732 9930,9684 10044,9679 10157,9675 10270,9630 10384,9631 10497,9643 10610,9624 10724,9686 10837,9720 10951,9730 11064,9748 11177,9779 11291,9805 11404,9824 11517,9820 11631,9816 11744,9820 11856,9833 11970,9861 12083,9878 12196,9883 12310,9899 12423,9902 12536,9964 12650,9977 12763,10007 12876,10011 12990,10026 13103,10044 13216,10042 13330,10061 13443,10062 13556,10085 13670,10108 13783,10123 13896,10101 14010,10071 14123,10067 14236,10067 14350,10120 14463,10150 14576,10170 14690,10168 14803,10219 14916,10221 15030,10257 15143,10343 15256,10471 15370,10553 15483,10608 15596,10656 15710,10674 15823,10715 15936,10757 16050,10793 16163,10804 16276,10799 16390,10833 16503,10869 16616,10868 16730,10890 16843,10911 16956,10927 17070,10934 17183,10923 17296,10948 17410,10945 17523,10978 17636,10988 17750,10991 17863,11020 17976,11073 18090,11086 18203,11112 18316,11165 18430,11185 18543,11191 18656,11256 18770,11272 18883,11314 18996,11375 19110,11412 19223,11427 19336,11445 19450,11474 19563,11521 19676,11561 19790,11572"/>
 <path fill="none" stroke="rgb(174,207,0)" stroke-width="80" stroke-linejoin="round" d="M 1770,14424 L 1884,14424 1997,14424 2110,14424 2224,14424 2337,14424 2450,14424 2564,14424 2677,14424 2790,14424 2904,14424 3017,14424 3130,14424 3244,14424 3357,13916 3470,13993 3584,13451 3697,12764 3810,12760 3924,13037 4037,13005 4150,12591 4264,12036 4377,11570 4490,11398 4604,11491 4717,11440 4830,11546 4944,11372 5057,11089 5170,11010 5284,10802 5397,10699 5510,10691 5624,10722 5737,10563 5850,10618 5964,10306 6077,10414 6190,10530 6304,10551 6417,10441 6530,10440 6644,10315 6757,10203 6870,10130 6984,10235 7097,10231 7210,10189 7324,10239 7437,10277 7550,10282 7664,10340 7777,10210 7890,10189 8004,10148 8117,10126 8230,10080 8344,10029 8457,9988 8570,9914 8684,9896 8797,9857 8910,9806 9024,9796 9137,9825 9250,9757 9364,9742 9477,9737 9590,9732 9704,9716 9817,9763 9930,9710 10044,9706 10157,9722 10270,9661 10384,9658 10497,9654 10610,9686 10724,9720 10837,9760 10951,9748 11064,9779 11177,9819 11291,9838 11404,9848 11517,9844 11631,9834 11744,9847 11856,9861 11970,9878 12083,9896 12196,9899 12310,9929 12423,9937 12536,9991 12650,9993 12763,10024 12876,10039 12990,10057 13103,10068 13216,10074 13330,10075 13443,10098 13556,10108 13670,10123 13783,10140 13896,10122 14010,10093 14123,10117 14236,10120 14350,10137 14463,10170 14576,10180 14690,10219 14803,10268 14916,10257 15030,10320 15143,10437 15256,10575 15370,10619 15483,10656 15596,10685 15710,10715 15823,10757 15936,10793 16050,10815 16163,10819 16276,10833 16390,10869 16503,10898 16616,10890 16730,10921 16843,10927 16956,10944 17070,10961 17183,10957 17296,10983 17410,10978 17523,11006 17636,11010 17750,11029 17863,11073 17976,11130 18090,11138 18203,11173 18316,11193 18430,11208 18543,11231 18656,11313 18770,11330 18883,11367 18996,11412 19110,11435 19223,11445 19336,11481 19450,11521 19563,11561 19676,11594 19790,11624"/>
 <path fill="none" stroke="rgb(75,31,111)" stroke-width="80" stroke-linejoin="round" d="M 1770,14424 L 1884,14424 1997,14424 2110,14424 2224,14424 2337,14424 2450,14424 2564,14424 2677,14424 2790,14424 2904,14424 3017,14424 3130,14424 3244,14424 3357,13993 3470,14099 3584,13594 3697,13314 3810,13037 3924,13263 4037,13163 4150,12763 4264,12306 4377,12019 4490,11824 4604,11946 4717,11839 4830,11736 4944,11559 5057,11398 5170,11205 5284,11131 5397,10911 5510,11009 5624,10815 5737,10751 5850,10766 5964,10535 6077,10599 6190,10640 6304,10617 6417,10547 6530,10485 6644,10350 6757,10274 6870,10275 6984,10309 7097,10267 7210,10277 7324,10332 7437,10355 7550,10340 7664,10371 7777,10260 7890,10235 8004,10178 8117,10149 8230,10115 8344,10073 8457,10047 8570,9946 8684,9907 8797,9872 8910,9829 9024,9841 9137,9870 9250,9790 9364,9769 9477,9748 9590,9748 9704,9747 9817,9788 9930,9737 10044,9753 10157,9753 10270,9689 10384,9670 10497,9716 10610,9720 10724,9760 10837,9777 10951,9779 11064,9819 11177,9853 11291,9862 11404,9872 11517,9862 11631,9861 11744,9875 11856,9878 11970,9896 12083,9913 12196,9929 12310,9964 12423,9964 12536,10007 12650,10011 12763,10052 12876,10070 12990,10081 13103,10100 13216,10088 13330,10111 13443,10121 13556,10123 13670,10140 13783,10160 13896,10143 14010,10142 14123,10170 14236,10137 14350,10158 14463,10180 14576,10231 14690,10268 14803,10304 14916,10320 15030,10415 15143,10542 15256,10641 15370,10667 15483,10685 15596,10725 15710,10757 15823,10793 15936,10815 16050,10829 16163,10853 16276,10869 16390,10898 16503,10920 16616,10921 16730,10937 16843,10944 16956,10971 17070,10996 17183,10992 17296,11015 17410,11006 17523,11028 17636,11047 17750,11082 17863,11130 17976,11181 18090,11199 18203,11201 18316,11217 18430,11248 18543,11289 18656,11370 18770,11382 18883,11404 18996,11435 19110,11453 19223,11481 19336,11529 19450,11561 19563,11594 19676,11646 19790,11651"/>
 <path fill="none" stroke="rgb(255,149,14)" stroke-width="80" stroke-linejoin="round" d="M 1770,14424 L 1884,14424 1997,14424 2110,14424 2224,14424 2337,14424 2450,14424 2564,14424 2677,14424 2790,14424 2904,14424 3017,14424 3130,14424 3244,14424 3357,14099 3470,14147 3584,13869 3697,13499 3810,13263 3924,13392 4037,13282 4150,12951 4264,12639 4377,12357 4490,12228 4604,12278 4717,12009 4830,11901 4944,11825 5057,11571 5170,11497 5284,11318 5397,11210 5510,11095 5624,10991 5737,10894 5850,10969 5964,10714 6077,10708 6190,10705 6304,10718 6417,10591 6530,10518 6644,10419 6757,10414 6870,10348 6984,10345 7097,10353 7210,10370 7324,10410 7437,10412 7550,10371 7664,10419 7777,10305 7890,10264 8004,10201 8117,10183 8230,10157 8344,10131 8457,10079 8570,9956 8684,9922 8797,9894 8910,9874 9024,9886 9137,9902 9250,9817 9364,9779 9477,9764 9590,9778 9704,9772 9817,9815 9930,9783 10044,9783 10157,9780 10270,9700 10384,9731 10497,9749 10610,9760 10724,9777 10837,9808 10951,9819 11064,9853 11177,9877 11291,9887 11404,9890 11517,9889 11631,9889 11744,9892 11856,9896 11970,9913 12083,9943 12196,9964 12310,9991 12423,9980 12536,10024 12650,10039 12763,10083 12876,10094 12990,10113 13103,10114 13216,10124 13330,10134 13443,10135 13556,10140 13670,10160 13783,10181 13896,10192 14010,10194 14123,10187 14236,10158 14350,10168 14463,10231 14576,10280 14690,10304 14803,10367 14916,10415 15030,10520 15143,10608 15256,10688 15370,10695 15483,10725 15596,10768 15710,10793 15823,10815 15936,10829 16050,10863 16163,10889 16276,10898 16390,10920 16503,10950 16616,10937 16730,10954 16843,10971 16956,11005 17070,11030 17183,11025 17296,11043 17410,11028 17523,11065 17636,11100 17750,11139 17863,11181 17976,11241 18090,11227 18203,11225 18316,11256 18430,11305 18543,11346 18656,11422 18770,11420 18883,11427 18996,11453 19110,11489 19223,11529 19336,11569 19450,11594 19563,11646 19676,11672 19790,11669"/>
 <path fill="none" stroke="rgb(197,0,11)" stroke-width="80" stroke-linejoin="round" d="M 1770,14424 L 1884,14424 1997,14424 2110,14424 2224,14424 2337,14424 2450,14424 2564,14424 2677,14424 2790,14424 2904,14424 3017,14424 3130,14424 3244,14424 3357,14147 3470,14239 3584,13961 3697,13650 3810,13392 3924,13489 4037,13411 4150,13182 4264,12890 4377,12678 4490,12522 4604,12419 4717,12157 4830,12135 4944,11973 5057,11829 5170,11663 5284,11583 5397,11291 5510,11257 5624,11124 5737,11090 5850,11129 5964,10820 6077,10771 6190,10804 6304,10760 6417,10623 6530,10584 6644,10554 6757,10485 6870,10383 6984,10429 7097,10444 7210,10446 7324,10466 7437,10442 7550,10419 7664,10462 7777,10334 7890,10287 8004,10234 8117,10225 8230,10214 8344,10161 8457,10089 8570,9971 8684,9944 8797,9939 8910,9918 9024,9918 9137,9928 9250,9827 9364,9795 9477,9794 9590,9804 9704,9799 9817,9860 9930,9814 10044,9810 10157,9791 10270,9761 10384,9764 10497,9789 10610,9777 10724,9808 10837,9848 10951,9853 11064,9877 11177,9901 11291,9905 11404,9917 11517,9917 11631,9906 11744,9910 11856,9913 11970,9943 12083,9978 12196,9991 12310,10007 12423,9998 12536,10052 12650,10070 12763,10107 12876,10126 12990,10127 13103,10150 13216,10147 13330,10148 13443,10152 13556,10160 13670,10181 13783,10230 13896,10243 14010,10211 14123,10207 14236,10168 14350,10219 14463,10280 14576,10316 14690,10367 14803,10460 14916,10520 15030,10587 15143,10656 15256,10717 15370,10736 15483,10768 15596,10803 15710,10815 15823,10829 15936,10863 16050,10899 16163,10918 16276,10920 16390,10950 16503,10966 16616,10954 16730,10980 16843,11005 16956,11039 17070,11062 17183,11053 17296,11065 17410,11065 17523,11118 17636,11156 17750,11190 17863,11241 17976,11269 18090,11250 18203,11265 18316,11313 18430,11362 18543,11398 18656,11458 18770,11442 18883,11445 18996,11489 19110,11536 19223,11569 19336,11601 19450,11646 19563,11672 19676,11690 19790,11690"/>
 <path fill="none" stroke="rgb(0,132,209)" stroke-width="80" stroke-linejoin="round" d="M 1770,14424 L 1884,14424 1997,14424 2110,14424 2224,14424 2337,14424 2450,14424 2564,14424 2677,14424 2790,14424 2904,14424 3017,14424 3130,14424 3244,14424 3357,14239 3470,14269 3584,14037 3697,13736 3810,13489 3924,13595 4037,13570 4150,13357 4264,13129 4377,12912 4490,12647 4604,12542 4717,12368 4830,12265 4944,12195 5057,11977 5170,11899 5284,11654 5397,11443 5510,11380 5624,11308 5737,11244 5850,11222 5964,10881 6077,10868 6190,10845 6304,10791 6417,10687 6530,10714 6644,10623 6757,10519 6870,10467 6984,10518 7097,10519 7210,10502 7324,10496 7437,10489 7550,10462 7664,10490 7777,10356 7890,10320 8004,10276 8117,10281 8230,10244 8344,10171 8457,10103 8570,9993 8684,9987 8797,9982 8910,9950 9024,9944 9137,9938 9250,9843 9364,9825 9477,9819 9590,9830 9704,9845 9817,9890 9930,9840 10044,9821 10157,9851 10270,9794 10384,9804 10497,9806 10610,9808 10724,9848 10837,9881 10951,9877 11064,9901 11177,9919 11291,9931 11404,9945 11517,9933 11631,9924 11744,9927 11856,9943 11970,9978 12083,10004 12196,10007 12310,10024 12423,10026 12536,10083 12650,10094 12763,10140 12876,10140 12990,10163 13103,10173 13216,10161 13330,10165 13443,10172 13556,10181 13670,10230 13783,10280 13896,10260 14010,10231 14123,10217 14236,10219 14350,10268 14463,10316 14576,10378 14690,10460 14803,10564 14916,10587 15030,10635 15143,10685 15256,10757 15370,10778 15483,10803 15596,10825 15710,10829 15823,10863 15936,10899 16050,10927 16163,10940 16276,10950 16390,10966 16503,10983 16616,10980 16730,11015 16843,11039 16956,11071 17070,11090 17183,11074 17296,11102 17410,11118 17523,11174 17636,11207 17750,11250 17863,11269 17976,11292 18090,11289 18203,11321 18316,11370 18430,11414 18543,11435 18656,11481 18770,11460 18883,11481 18996,11536 19110,11576 19223,11601 19336,11653 19450,11672 19563,11690 19676,11711 19790,11732"/>
 <path fill="none" stroke="rgb(0,69,134)" stroke-width="80" stroke-linejoin="round" d="M 1770,14424 L 1884,14424 1997,14424 2110,14424 2224,14424 2337,14424 2450,14424 2564,14424 2677,14424 2790,14424 2904,14424 3017,14424 3130,14424 3244,14424 3357,14269 3470,14295 3584,14080 3697,13801 3810,13595 3924,13725 4037,13690 4150,13523 4264,13302 4377,13011 4490,12756 4604,12717 4717,12485 4830,12461 4944,12322 5057,12186 5170,11962 5284,11789 5397,11559 5510,11549 5624,11451 5737,11334 5850,11277 5964,10975 6077,10908 6190,10875 6304,10852 6417,10813 6530,10779 6644,10655 6757,10600 6870,10556 6984,10592 7097,10573 7210,10532 7324,10542 7437,10532 7550,10490 7664,10511 7777,10388 7890,10360 8004,10331 8117,10311 8230,10254 8344,10186 8457,10124 8570,10036 8684,10031 8797,10014 8910,9975 9024,9954 9137,9953 9250,9872 9364,9850 9477,9846 9590,9876 9704,9875 9817,9916 9930,9851 10044,9880 10157,9883 10270,9833 10384,9821 10497,9837 10610,9848 10724,9881 10837,9905 10951,9901 11064,9919 11177,9945 11291,9959 11404,9961 11517,9952 11631,9941 11744,9956 11856,9978 11970,10004 12083,10020 12196,10024 12310,10052 12423,10057 12536,10107 12650,10126 12763,10153 12876,10176 12990,10185 13103,10187 13216,10178 13330,10185 13443,10194 13556,10230 13670,10280 13783,10297 13896,10280 14010,10241 14123,10267 14236,10268 14350,10304 14463,10378 14576,10471 14690,10564 14803,10630 14916,10635 15030,10663 15143,10725 15256,10799 15370,10813 15483,10825 15596,10839 15710,10863 15823,10899 15936,10927 16050,10950 16163,10970 16276,10966 16390,10983 16503,11009 16616,11015 16730,11049 16843,11071 16956,11099 17070,11111 17183,11111 17296,11154 17410,11174 17523,11224 17636,11267 17750,11277 17863,11292 17976,11331 18090,11345 18203,11378 18316,11422 18430,11451 18543,11458 18656,11498 18770,11496 18883,11529 18996,11576 19110,11609 19223,11653 19336,11679 19450,11690 19563,11711 19676,11753 19790,11773"/>
 <path fill="none" stroke="rgb(255,66,14)" stroke-width="80" stroke-linejoin="round" d="M 1770,14424 L 1884,14424 1997,14424 2110,14424 2224,14424 2337,14424 2450,14424 2564,14424 2677,14424 2790,14424 2904,14424 3017,14424 3130,14424 3244,14424 3357,14295 3470,14309 3584,14112 3697,13871 3810,13725 3924,13824 4037,13804 4150,13643 4264,13376 4377,13098 4490,12911 4604,12814 4717,12661 4830,12573 4944,12501 5057,12242 5170,12082 5284,11892 5397,11718 5510,11682 5624,11536 5737,11387 5850,11361 5964,11014 6077,10938 6190,10935 6304,10973 6417,10877 6530,10811 6644,10734 6757,10686 6870,10629 6984,10645 7097,10603 7210,10578 7324,10584 7437,10559 7550,10511 7664,10542 7777,10428 7890,10415 8004,10360 8117,10320 8230,10268 8344,10206 8457,10166 8570,10079 8684,10062 8797,10039 8910,9985 9024,9969 9137,9982 9250,9897 9364,9877 9477,9891 9590,9905 9704,9901 9817,9927 9930,9910 10044,9913 10157,9921 10270,9850 10384,9852 10497,9877 10610,9881 10724,9905 10837,9929 10951,9919 11064,9945 11177,9973 11291,9975 11404,9979 11517,9968 11631,9970 11744,9992 11856,10004 11970,10020 12083,10038 12196,10052 12310,10083 12423,10081 12536,10140 12650,10140 12763,10189 12876,10198 12990,10199 13103,10203 13216,10198 13330,10206 13443,10242 13556,10280 13670,10297 13783,10317 13896,10290 14010,10291 14123,10316 14236,10304 14350,10367 14463,10471 14576,10575 14690,10630 14803,10677 14916,10663 15030,10704 15143,10768 15256,10834 15370,10835 15483,10839 15596,10873 15710,10899 15823,10927 15936,10950 16050,10980 16163,10985 16276,10983 16390,11009 16503,11043 16616,11049 16730,11081 16843,11099 16956,11120 17070,11147 17183,11163 17296,11209 17410,11224 17523,11284 17636,11294 17750,11300 17863,11331 17976,11386 18090,11402 18203,11430 18316,11458 18430,11473 18543,11475 18656,11534 18770,11543 18883,11569 18996,11609 19110,11660 19223,11679 19336,11697 19450,11711 19563,11753 19676,11793 19790,11818"/>
 <path fill="none" stroke="rgb(255,211,32)" stroke-width="80" stroke-linejoin="round" d="M 1770,14424 L 1884,14424 1997,14424 2110,14424 2224,14424 2337,14424 2450,14424 2564,14424 2677,14424 2790,14424 2904,14424 3017,14424 3130,14424 3244,14424 3357,14309 3470,14320 3584,14147 3697,13958 3810,13824 3924,13917 4037,13887 4150,13695 4264,13440 4377,13221 4490,12997 4604,12960 4717,12761 4830,12731 4944,12549 5057,12348 5170,12173 5284,12032 5397,11843 5510,11760 5624,11585 5737,11468 5850,11395 5964,11043 6077,10997 6190,11053 6304,11034 6417,10908 6530,10886 6644,10816 6757,10756 6870,10681 6984,10674 7097,10648 7210,10619 7324,10611 7437,10580 7550,10542 7664,10580 7777,10482 7890,10443 8004,10370 8117,10334 8230,10288 8344,10247 8457,10208 8570,10110 8684,10087 8797,10049 8910,10001 9024,9998 9137,10007 9250,9924 9364,9922 9477,9921 9590,9932 9704,9912 9817,9985 9930,9942 10044,9951 10157,9938 10270,9881 10384,9892 10497,9910 10610,9905 10724,9929 10837,9947 10951,9945 11064,9973 11177,9989 11291,9993 11404,9996 11517,9998 11631,10005 11744,10018 11856,10020 11970,10038 12083,10066 12196,10083 12310,10107 12423,10113 12536,10153 12650,10176 12763,10211 12876,10212 12990,10216 13103,10223 13216,10219 13330,10255 13443,10293 13556,10297 13670,10317 13783,10327 13896,10339 14010,10340 14123,10351 14236,10367 14350,10460 14463,10575 14576,10641 14690,10677 14803,10706 14916,10704 15030,10747 15143,10803 15256,10856 15370,10850 15483,10873 15596,10909 15710,10927 15823,10950 15936,10980 16050,10995 16163,11002 16276,11009 16390,11043 16503,11077 16616,11081 16730,11108 16843,11120 16956,11156 17070,11199 17183,11218 17296,11259 17410,11284 17523,11311 17636,11317 17750,11339 17863,11386 17976,11442 18090,11453 18203,11466 18316,11481 18430,11491 18543,11511 18656,11581 18770,11583 18883,11601 18996,11660 19110,11686 19223,11697 19336,11718 19450,11753 19563,11793 19676,11838 19790,11856"/>
 <text class="TextShape" transform="rotate(-90 1864 15352)"><tspan class="TextParagraph" font-family="Liberation Sans, sans-serif" font-size="282px" font-weight="400"><tspan class="TextPosition" x="1864" y="15352"><tspan fill="rgb(0,0,0)" stroke="none">08.03</tspan></tspan></tspan></text>
 <text class="TextShape" transform="rotate(-90 2204 15352)"><tspan class="TextParagraph" font-family="Liberation Sans, sans-serif" font-size="282px" font-weight="400"><tspan class="TextPosition" x="2204" y="15352"><tspan fill="rgb(0,0,0)" stroke="none">11.03</tspan></tspan></tspan></text>
 <text class="TextShape" transform="rotate(-90 2544 15352)"><tspan class="TextParagraph" font-family="Liberation Sans, sans-serif" font-size="282px" font-weight="400"><tspan class="TextPosition" x="2544" y="15352"><tspan fill="rgb(0,0,0)" stroke="none">14.03</tspan></tspan></tspan></text>
 <text class="TextShape" transform="rotate(-90 2884 15352)"><tspan class="TextParagraph" font-family="Liberation Sans, sans-serif" font-size="282px" font-weight="400"><tspan class="TextPosition" x="2884" y="15352"><tspan fill="rgb(0,0,0)" stroke="none">17.03</tspan></tspan></tspan></text>
 <text class="TextShape" transform="rotate(-90 3224 15352)"><tspan class="TextParagraph" font-family="Liberation Sans, sans-serif" font-size="282px" font-weight="400"><tspan class="TextPosition" x="3224" y="15352"><tspan fill="rgb(0,0,0)" stroke="none">20.03</tspan></tspan></tspan></text>
 <text class="TextShape" transform="rotate(-90 3564 15352)"><tspan class="TextParagraph" font-family="Liberation Sans, sans-serif" font-size="282px" font-weight="400"><tspan class="TextPosition" x="3564" y="15352"><tspan fill="rgb(0,0,0)" stroke="none">23.03</tspan></tspan></tspan></text>
 <text class="TextShape" transform="rotate(-90 3904 15352)"><tspan class="TextParagraph" font-family="Liberation Sans, sans-serif" font-size="282px" font-weight="400"><tspan class="TextPosition" x="3904" y="15352"><tspan fill="rgb(0,0,0)" stroke="none">26.03</tspan></tspan></tspan></text>
 <text class="TextShape" transform="rotate(-90 4244 15352)"><tspan class="TextParagraph" font-family="Liberation Sans, sans-serif" font-size="282px" font-weight="400"><tspan class="TextPosition" x="4244" y="15352"><tspan fill="rgb(0,0,0)" stroke="none">29.03</tspan></tspan></tspan></text>
 <text class="TextShape" transform="rotate(-90 4584 15352)"><tspan class="TextParagraph" font-family="Liberation Sans, sans-serif" font-size="282px" font-weight="400"><tspan class="TextPosition" x="4584" y="15352"><tspan fill="rgb(0,0,0)" stroke="none">01.04</tspan></tspan></tspan></text>
 <text class="TextShape" transform="rotate(-90 4924 15352)"><tspan class="TextParagraph" font-family="Liberation Sans, sans-serif" font-size="282px" font-weight="400"><tspan class="TextPosition" x="4924" y="15352"><tspan fill="rgb(0,0,0)" stroke="none">04.04</tspan></tspan></tspan></text>
 <text class="TextShape" transform="rotate(-90 5264 15352)"><tspan class="TextParagraph" font-family="Liberation Sans, sans-serif" font-size="282px" font-weight="400"><tspan class="TextPosition" x="5264" y="15352"><tspan fill="rgb(0,0,0)" stroke="none">07.04</tspan></tspan></tspan></text>
 <text class="TextShape" transform="rotate(-90 5604 15352)"><tspan class="TextParagraph" font-family="Liberation Sans, sans-serif" font-size="282px" font-weight="400"><tspan class="TextPosition" x="5604" y="15352"><tspan fill="rgb(0,0,0)" stroke="none">10.04</tspan></tspan></tspan></text>
 <text class="TextShape" transform="rotate(-90 5944 15352)"><tspan class="TextParagraph" font-family="Liberation Sans, sans-serif" font-size="282px" font-weight="400"><tspan class="TextPosition" x="5944" y="15352"><tspan fill="rgb(0,0,0)" stroke="none">13.04</tspan></tspan></tspan></text>
 <text class="TextShape" transform="rotate(-90 6284 15352)"><tspan class="TextParagraph" font-family="Liberation Sans, sans-serif" font-size="282px" font-weight="400"><tspan class="TextPosition" x="6284" y="15352"><tspan fill="rgb(0,0,0)" stroke="none">16.04</tspan></tspan></tspan></text>
 <text class="TextShape" transform="rotate(-90 6624 15352)"><tspan class="TextParagraph" font-family="Liberation Sans, sans-serif" font-size="282px" font-weight="400"><tspan class="TextPosition" x="6624" y="15352"><tspan fill="rgb(0,0,0)" stroke="none">19.04</tspan></tspan></tspan></text>
 <text class="TextShape" transform="rotate(-90 6964 15352)"><tspan class="TextParagraph" font-family="Liberation Sans, sans-serif" font-size="282px" font-weight="400"><tspan class="TextPosition" x="6964" y="15352"><tspan fill="rgb(0,0,0)" stroke="none">22.04</tspan></tspan></tspan></text>
 <text class="TextShape" transform="rotate(-90 7304 15352)"><tspan class="TextParagraph" font-family="Liberation Sans, sans-serif" font-size="282px" font-weight="400"><tspan class="TextPosition" x="7304" y="15352"><tspan fill="rgb(0,0,0)" stroke="none">25.04</tspan></tspan></tspan></text>
 <text class="TextShape" transform="rotate(-90 7644 15352)"><tspan class="TextParagraph" font-family="Liberation Sans, sans-serif" font-size="282px" font-weight="400"><tspan class="TextPosition" x="7644" y="15352"><tspan fill="rgb(0,0,0)" stroke="none">28.04</tspan></tspan></tspan></text>
 <text class="TextShape" transform="rotate(-90 7984 15352)"><tspan class="TextParagraph" font-family="Liberation Sans, sans-serif" font-size="282px" font-weight="400"><tspan class="TextPosition" x="7984" y="15352"><tspan fill="rgb(0,0,0)" stroke="none">01.05</tspan></tspan></tspan></text>
 <text class="TextShape" transform="rotate(-90 8324 15352)"><tspan class="TextParagraph" font-family="Liberation Sans, sans-serif" font-size="282px" font-weight="400"><tspan class="TextPosition" x="8324" y="15352"><tspan fill="rgb(0,0,0)" stroke="none">04.05</tspan></tspan></tspan></text>
 <text class="TextShape" transform="rotate(-90 8664 15352)"><tspan class="TextParagraph" font-family="Liberation Sans, sans-serif" font-size="282px" font-weight="400"><tspan class="TextPosition" x="8664" y="15352"><tspan fill="rgb(0,0,0)" stroke="none">07.05</tspan></tspan></tspan></text>
 <text class="TextShape" transform="rotate(-90 9004 15352)"><tspan class="TextParagraph" font-family="Liberation Sans, sans-serif" font-size="282px" font-weight="400"><tspan class="TextPosition" x="9004" y="15352"><tspan fill="rgb(0,0,0)" stroke="none">10.05</tspan></tspan></tspan></text>
 <text class="TextShape" transform="rotate(-90 9344 15352)"><tspan class="TextParagraph" font-family="Liberation Sans, sans-serif" font-size="282px" font-weight="400"><tspan class="TextPosition" x="9344" y="15352"><tspan fill="rgb(0,0,0)" stroke="none">13.05</tspan></tspan></tspan></text>
 <text class="TextShape" transform="rotate(-90 9684 15352)"><tspan class="TextParagraph" font-family="Liberation Sans, sans-serif" font-size="282px" font-weight="400"><tspan class="TextPosition" x="9684" y="15352"><tspan fill="rgb(0,0,0)" stroke="none">16.05</tspan></tspan></tspan></text>
 <text class="TextShape" transform="rotate(-90 10024 15352)"><tspan class="TextParagraph" font-family="Liberation Sans, sans-serif" font-size="282px" font-weight="400"><tspan class="TextPosition" x="10024" y="15352"><tspan fill="rgb(0,0,0)" stroke="none">19.05</tspan></tspan></tspan></text>
 <text class="TextShape" transform="rotate(-90 10364 15352)"><tspan class="TextParagraph" font-family="Liberation Sans, sans-serif" font-size="282px" font-weight="400"><tspan class="TextPosition" x="10364" y="15352"><tspan fill="rgb(0,0,0)" stroke="none">22.05</tspan></tspan></tspan></text>
 <text class="TextShape" transform="rotate(-90 10704 15352)"><tspan class="TextParagraph" font-family="Liberation Sans, sans-serif" font-size="282px" font-weight="400"><tspan class="TextPosition" x="10704" y="15352"><tspan fill="rgb(0,0,0)" stroke="none">25.05</tspan></tspan></tspan></text>
 <text class="TextShape" transform="rotate(-90 11045 15352)"><tspan class="TextParagraph" font-family="Liberation Sans, sans-serif" font-size="282px" font-weight="400"><tspan class="TextPosition" x="11045" y="15352"><tspan fill="rgb(0,0,0)" stroke="none">28.05</tspan></tspan></tspan></text>
 <text class="TextShape" transform="rotate(-90 11385 15352)"><tspan class="TextParagraph" font-family="Liberation Sans, sans-serif" font-size="282px" font-weight="400"><tspan class="TextPosition" x="11385" y="15352"><tspan fill="rgb(0,0,0)" stroke="none">31.05</tspan></tspan></tspan></text>
 <text class="TextShape" transform="rotate(-90 11725 15352)"><tspan class="TextParagraph" font-family="Liberation Sans, sans-serif" font-size="282px" font-weight="400"><tspan class="TextPosition" x="11725" y="15352"><tspan fill="rgb(0,0,0)" stroke="none">03.06</tspan></tspan></tspan></text>
 <text class="TextShape" transform="rotate(-90 12064 15352)"><tspan class="TextParagraph" font-family="Liberation Sans, sans-serif" font-size="282px" font-weight="400"><tspan class="TextPosition" x="12064" y="15352"><tspan fill="rgb(0,0,0)" stroke="none">06.06</tspan></tspan></tspan></text>
 <text class="TextShape" transform="rotate(-90 12404 15352)"><tspan class="TextParagraph" font-family="Liberation Sans, sans-serif" font-size="282px" font-weight="400"><tspan class="TextPosition" x="12404" y="15352"><tspan fill="rgb(0,0,0)" stroke="none">09.06</tspan></tspan></tspan></text>
 <text class="TextShape" transform="rotate(-90 12744 15352)"><tspan class="TextParagraph" font-family="Liberation Sans, sans-serif" font-size="282px" font-weight="400"><tspan class="TextPosition" x="12744" y="15352"><tspan fill="rgb(0,0,0)" stroke="none">12.06</tspan></tspan></tspan></text>
 <text class="TextShape" transform="rotate(-90 13084 15352)"><tspan class="TextParagraph" font-family="Liberation Sans, sans-serif" font-size="282px" font-weight="400"><tspan class="TextPosition" x="13084" y="15352"><tspan fill="rgb(0,0,0)" stroke="none">15.06</tspan></tspan></tspan></text>
 <text class="TextShape" transform="rotate(-90 13424 15352)"><tspan class="TextParagraph" font-family="Liberation Sans, sans-serif" font-size="282px" font-weight="400"><tspan class="TextPosition" x="13424" y="15352"><tspan fill="rgb(0,0,0)" stroke="none">18.06</tspan></tspan></tspan></text>
 <text class="TextShape" transform="rotate(-90 13764 15352)"><tspan class="TextParagraph" font-family="Liberation Sans, sans-serif" font-size="282px" font-weight="400"><tspan class="TextPosition" x="13764" y="15352"><tspan fill="rgb(0,0,0)" stroke="none">21.06</tspan></tspan></tspan></text>
 <text class="TextShape" transform="rotate(-90 14104 15352)"><tspan class="TextParagraph" font-family="Liberation Sans, sans-serif" font-size="282px" font-weight="400"><tspan class="TextPosition" x="14104" y="15352"><tspan fill="rgb(0,0,0)" stroke="none">24.06</tspan></tspan></tspan></text>
 <text class="TextShape" transform="rotate(-90 14444 15352)"><tspan class="TextParagraph" font-family="Liberation Sans, sans-serif" font-size="282px" font-weight="400"><tspan class="TextPosition" x="14444" y="15352"><tspan fill="rgb(0,0,0)" stroke="none">27.06</tspan></tspan></tspan></text>
 <text class="TextShape" transform="rotate(-90 14784 15352)"><tspan class="TextParagraph" font-family="Liberation Sans, sans-serif" font-size="282px" font-weight="400"><tspan class="TextPosition" x="14784" y="15352"><tspan fill="rgb(0,0,0)" stroke="none">30.06</tspan></tspan></tspan></text>
 <text class="TextShape" transform="rotate(-90 15124 15352)"><tspan class="TextParagraph" font-family="Liberation Sans, sans-serif" font-size="282px" font-weight="400"><tspan class="TextPosition" x="15124" y="15352"><tspan fill="rgb(0,0,0)" stroke="none">03.07</tspan></tspan></tspan></text>
 <text class="TextShape" transform="rotate(-90 15464 15352)"><tspan class="TextParagraph" font-family="Liberation Sans, sans-serif" font-size="282px" font-weight="400"><tspan class="TextPosition" x="15464" y="15352"><tspan fill="rgb(0,0,0)" stroke="none">06.07</tspan></tspan></tspan></text>
 <text class="TextShape" transform="rotate(-90 15804 15352)"><tspan class="TextParagraph" font-family="Liberation Sans, sans-serif" font-size="282px" font-weight="400"><tspan class="TextPosition" x="15804" y="15352"><tspan fill="rgb(0,0,0)" stroke="none">09.07</tspan></tspan></tspan></text>
 <text class="TextShape" transform="rotate(-90 16144 15352)"><tspan class="TextParagraph" font-family="Liberation Sans, sans-serif" font-size="282px" font-weight="400"><tspan class="TextPosition" x="16144" y="15352"><tspan fill="rgb(0,0,0)" stroke="none">12.07</tspan></tspan></tspan></text>
 <text class="TextShape" transform="rotate(-90 16484 15352)"><tspan class="TextParagraph" font-family="Liberation Sans, sans-serif" font-size="282px" font-weight="400"><tspan class="TextPosition" x="16484" y="15352"><tspan fill="rgb(0,0,0)" stroke="none">15.07</tspan></tspan></tspan></text>
 <text class="TextShape" transform="rotate(-90 16824 15352)"><tspan class="TextParagraph" font-family="Liberation Sans, sans-serif" font-size="282px" font-weight="400"><tspan class="TextPosition" x="16824" y="15352"><tspan fill="rgb(0,0,0)" stroke="none">18.07</tspan></tspan></tspan></text>
 <text class="TextShape" transform="rotate(-90 17164 15352)"><tspan class="TextParagraph" font-family="Liberation Sans, sans-serif" font-size="282px" font-weight="400"><tspan class="TextPosition" x="17164" y="15352"><tspan fill="rgb(0,0,0)" stroke="none">21.07</tspan></tspan></tspan></text>
 <text class="TextShape" transform="rotate(-90 17504 15352)"><tspan class="TextParagraph" font-family="Liberation Sans, sans-serif" font-size="282px" font-weight="400"><tspan class="TextPosition" x="17504" y="15352"><tspan fill="rgb(0,0,0)" stroke="none">24.07</tspan></tspan></tspan></text>
 <text class="TextShape" transform="rotate(-90 17844 15352)"><tspan class="TextParagraph" font-family="Liberation Sans, sans-serif" font-size="282px" font-weight="400"><tspan class="TextPosition" x="17844" y="15352"><tspan fill="rgb(0,0,0)" stroke="none">27.07</tspan></tspan></tspan></text>
 <text class="TextShape" transform="rotate(-90 18184 15352)"><tspan class="TextParagraph" font-family="Liberation Sans, sans-serif" font-size="282px" font-weight="400"><tspan class="TextPosition" x="18184" y="15352"><tspan fill="rgb(0,0,0)" stroke="none">30.07</tspan></tspan></tspan></text>
 <text class="TextShape" transform="rotate(-90 18524 15352)"><tspan class="TextParagraph" font-family="Liberation Sans, sans-serif" font-size="282px" font-weight="400"><tspan class="TextPosition" x="18524" y="15352"><tspan fill="rgb(0,0,0)" stroke="none">02.08</tspan></tspan></tspan></text>
 <text class="TextShape" transform="rotate(-90 18864 15352)"><tspan class="TextParagraph" font-family="Liberation Sans, sans-serif" font-size="282px" font-weight="400"><tspan class="TextPosition" x="18864" y="15352"><tspan fill="rgb(0,0,0)" stroke="none">05.08</tspan></tspan></tspan></text>
 <text class="TextShape" transform="rotate(-90 19204 15352)"><tspan class="TextParagraph" font-family="Liberation Sans, sans-serif" font-size="282px" font-weight="400"><tspan class="TextPosition" x="19204" y="15352"><tspan fill="rgb(0,0,0)" stroke="none">08.08</tspan></tspan></tspan></text>
 <text class="TextShape" transform="rotate(-90 19544 15352)"><tspan class="TextParagraph" font-family="Liberation Sans, sans-serif" font-size="282px" font-weight="400"><tspan class="TextPosition" x="19544" y="15352"><tspan fill="rgb(0,0,0)" stroke="none">11.08</tspan></tspan></tspan></text>
 <text class="TextShape" transform="rotate(-90 19884 15352)"><tspan class="TextParagraph" font-family="Liberation Sans, sans-serif" font-size="282px" font-weight="400"><tspan class="TextPosition" x="19884" y="15352"><tspan fill="rgb(0,0,0)" stroke="none">14.08</tspan></tspan></tspan></text>
 <text class="TextShape"><tspan class="TextParagraph" font-family="Liberation Sans, sans-serif" font-size="353px" font-weight="400"><tspan class="TextPosition" x="362" y="14542"><tspan fill="rgb(0,0,0)" stroke="none">0,00 %</tspan></tspan></tspan></text>
 <text class="TextShape"><tspan class="TextParagraph" font-family="Liberation Sans, sans-serif" font-size="353px" font-weight="400"><tspan class="TextPosition" x="362" y="13258"><tspan fill="rgb(0,0,0)" stroke="none">1,00 %</tspan></tspan></tspan></text>
 <text class="TextShape"><tspan class="TextParagraph" font-family="Liberation Sans, sans-serif" font-size="353px" font-weight="400"><tspan class="TextPosition" x="362" y="11975"><tspan fill="rgb(0,0,0)" stroke="none">2,00 %</tspan></tspan></tspan></text>
 <text class="TextShape"><tspan class="TextParagraph" font-family="Liberation Sans, sans-serif" font-size="353px" font-weight="400"><tspan class="TextPosition" x="362" y="10692"><tspan fill="rgb(0,0,0)" stroke="none">3,00 %</tspan></tspan></tspan></text>
 <text class="TextShape"><tspan class="TextParagraph" font-family="Liberation Sans, sans-serif" font-size="353px" font-weight="400"><tspan class="TextPosition" x="362" y="9409"><tspan fill="rgb(0,0,0)" stroke="none">4,00 %</tspan></tspan></tspan></text>
 <text class="TextShape"><tspan class="TextParagraph" font-family="Liberation Sans, sans-serif" font-size="353px" font-weight="400"><tspan class="TextPosition" x="362" y="8126"><tspan fill="rgb(0,0,0)" stroke="none">5,00 %</tspan></tspan></tspan></text>
 <text class="TextShape"><tspan class="TextParagraph" font-family="Liberation Sans, sans-serif" font-size="353px" font-weight="400"><tspan class="TextPosition" x="362" y="6843"><tspan fill="rgb(0,0,0)" stroke="none">6,00 %</tspan></tspan></tspan></text>
 <text class="TextShape"><tspan class="TextParagraph" font-family="Liberation Sans, sans-serif" font-size="353px" font-weight="400"><tspan class="TextPosition" x="362" y="5560"><tspan fill="rgb(0,0,0)" stroke="none">7,00 %</tspan></tspan></tspan></text>
 <text class="TextShape"><tspan class="TextParagraph" font-family="Liberation Sans, sans-serif" font-size="353px" font-weight="400"><tspan class="TextPosition" x="362" y="4277"><tspan fill="rgb(0,0,0)" stroke="none">8,00 %</tspan></tspan></tspan></text>
 <text class="TextShape"><tspan class="TextParagraph" font-family="Liberation Sans, sans-serif" font-size="353px" font-weight="400"><tspan class="TextPosition" x="362" y="2994"><tspan fill="rgb(0,0,0)" stroke="none">9,00 %</tspan></tspan></tspan></text>
 <text class="TextShape"><tspan class="TextParagraph" font-family="Liberation Sans, sans-serif" font-size="353px" font-weight="400"><tspan class="TextPosition" x="172" y="1711"><tspan fill="rgb(0,0,0)" stroke="none">10,00 %</tspan></tspan></tspan></text>
 <text class="TextShape"><tspan class="TextParagraph" font-family="Liberation Sans, sans-serif" font-size="459px" font-weight="700"><tspan class="TextPosition" x="1609" y="1019"><tspan fill="rgb(0,0,0)" stroke="none">esk Republika - pomr celkovho potu obt k posunutmu celkovmu potu infikovanch</tspan></tspan></tspan></text>
 <path fill="none" stroke="rgb(0,69,134)" stroke-width="80" stroke-linejoin="round" d="M 20014,1917 L 20814,1917"/>
 <path fill="none" stroke="rgb(255,66,14)" stroke-width="80" stroke-linejoin="round" d="M 20014,2790 L 20814,2790"/>
 <path fill="none" stroke="rgb(255,211,32)" stroke-width="80" stroke-linejoin="round" d="M 20014,3663 L 20814,3663"/>
 <path fill="none" stroke="rgb(87,157,28)" stroke-width="80" stroke-linejoin="round" d="M 20014,4536 L 20814,4536"/>
 <path fill="none" stroke="rgb(126,0,33)" stroke-width="80" stroke-linejoin="round" d="M 20014,5409 L 20814,5409"/>
 <path fill="none" stroke="rgb(131,202,255)" stroke-width="80" stroke-linejoin="round" d="M 20014,6282 L 20814,6282"/>
 <path fill="none" stroke="rgb(49,64,4)" stroke-width="80" stroke-linejoin="round" d="M 20014,7155 L 20814,7155"/>
 <path fill="none" stroke="rgb(174,207,0)" stroke-width="80" stroke-linejoin="round" d="M 20014,8028 L 20814,8028"/>
 <path fill="none" stroke="rgb(75,31,111)" stroke-width="80" stroke-linejoin="round" d="M 20014,8900 L 20814,8900"/>
 <path fill="none" stroke="rgb(255,149,14)" stroke-width="80" stroke-linejoin="round" d="M 20014,9773 L 20814,9773"/>
 <path fill="none" stroke="rgb(197,0,11)" stroke-width="80" stroke-linejoin="round" d="M 20014,10646 L 20814,10646"/>
 <path fill="none" stroke="rgb(0,132,209)" stroke-width="80" stroke-linejoin="round" d="M 20014,11519 L 20814,11519"/>
 <path fill="none" stroke="rgb(0,69,134)" stroke-width="80" stroke-linejoin="round" d="M 20014,12392 L 20814,12392"/>
 <path fill="none" stroke="rgb(255,66,14)" stroke-width="80" stroke-linejoin="round" d="M 20014,13265 L 20814,13265"/>
 <path fill="none" stroke="rgb(255,211,32)" stroke-width="80" stroke-linejoin="round" d="M 20014,14138 L 20814,14138"/>
 <text class="TextShape"><tspan class="TextParagraph" font-family="Liberation Sans, sans-serif" font-size="353px" font-weight="400"><tspan class="TextPosition" x="20914" y="2034"><tspan fill="rgb(0,0,0)" stroke="none">14 dn zpodn</tspan></tspan></tspan></text>
 <text class="TextShape"><tspan class="TextParagraph" font-family="Liberation Sans, sans-serif" font-size="353px" font-weight="400"><tspan class="TextPosition" x="20914" y="2907"><tspan fill="rgb(0,0,0)" stroke="none">13 dn zpodn</tspan></tspan></tspan></text>
 <text class="TextShape"><tspan class="TextParagraph" font-family="Liberation Sans, sans-serif" font-size="353px" font-weight="400"><tspan class="TextPosition" x="20914" y="3780"><tspan fill="rgb(0,0,0)" stroke="none">12 dn zpodn</tspan></tspan></tspan></text>
 <text class="TextShape"><tspan class="TextParagraph" font-family="Liberation Sans, sans-serif" font-size="353px" font-weight="400"><tspan class="TextPosition" x="20914" y="4653"><tspan fill="rgb(0,0,0)" stroke="none">11 dn zpodn</tspan></tspan></tspan></text>
 <text class="TextShape"><tspan class="TextParagraph" font-family="Liberation Sans, sans-serif" font-size="353px" font-weight="400"><tspan class="TextPosition" x="20914" y="5526"><tspan fill="rgb(0,0,0)" stroke="none">10 dn zpodn</tspan></tspan></tspan></text>
 <text class="TextShape"><tspan class="TextParagraph" font-family="Liberation Sans, sans-serif" font-size="353px" font-weight="400"><tspan class="TextPosition" x="20914" y="6399"><tspan fill="rgb(0,0,0)" stroke="none">9 dn zpodn</tspan></tspan></tspan></text>
 <text class="TextShape"><tspan class="TextParagraph" font-family="Liberation Sans, sans-serif" font-size="353px" font-weight="400"><tspan class="TextPosition" x="20914" y="7272"><tspan fill="rgb(0,0,0)" stroke="none">8 dn zpodn</tspan></tspan></tspan></text>
 <text class="TextShape"><tspan class="TextParagraph" font-family="Liberation Sans, sans-serif" font-size="353px" font-weight="400"><tspan class="TextPosition" x="20914" y="8144"><tspan fill="rgb(0,0,0)" stroke="none">7 dn zpodn</tspan></tspan></tspan></text>
 <text class="TextShape"><tspan class="TextParagraph" font-family="Liberation Sans, sans-serif" font-size="353px" font-weight="400"><tspan class="TextPosition" x="20914" y="9017"><tspan fill="rgb(0,0,0)" stroke="none">6 dn zpodn</tspan></tspan></tspan></text>
 <text class="TextShape"><tspan class="TextParagraph" font-family="Liberation Sans, sans-serif" font-size="353px" font-weight="400"><tspan class="TextPosition" x="20914" y="9890"><tspan fill="rgb(0,0,0)" stroke="none">5 dn zpodn</tspan></tspan></tspan></text>
 <text class="TextShape"><tspan class="TextParagraph" font-family="Liberation Sans, sans-serif" font-size="353px" font-weight="400"><tspan class="TextPosition" x="20914" y="10763"><tspan fill="rgb(0,0,0)" stroke="none">4 dny zpodn</tspan></tspan></tspan></text>
 <text class="TextShape"><tspan class="TextParagraph" font-family="Liberation Sans, sans-serif" font-size="353px" font-weight="400"><tspan class="TextPosition" x="20914" y="11636"><tspan fill="rgb(0,0,0)" stroke="none">3 dny zpodn</tspan></tspan></tspan></text>
 <text class="TextShape"><tspan class="TextParagraph" font-family="Liberation Sans, sans-serif" font-size="353px" font-weight="400"><tspan class="TextPosition" x="20914" y="12509"><tspan fill="rgb(0,0,0)" stroke="none">2 dny zpodn</tspan></tspan></tspan></text>
 <text class="TextShape"><tspan class="TextParagraph" font-family="Liberation Sans, sans-serif" font-size="353px" font-weight="400"><tspan class="TextPosition" x="20914" y="13382"><tspan fill="rgb(0,0,0)" stroke="none">1 den zpodn</tspan></tspan></tspan></text>
 <text class="TextShape"><tspan class="TextParagraph" font-family="Liberation Sans, sans-serif" font-size="353px" font-weight="400"><tspan class="TextPosition" x="20914" y="14255"><tspan fill="rgb(0,0,0)" stroke="none">0 dn zpodn</tspan></tspan></tspan></text>
</svg>