<?xml version="1.0" encoding="UTF-8"?>
<!DOCTYPE svg PUBLIC "-//W3C//DTD SVG 1.1//EN" "http://www.w3.org/Graphics/SVG/1.1/DTD/svg11.dtd">
<svg width="236mm" height="161mm" viewBox="0 0 23600 16100" version="1.1" xmlns="http://www.w3.org/2000/svg" xmlns:xlink="http://www.w3.org/1999/xlink" stroke-width="28.222" stroke-linejoin="round" xml:space="preserve">
 <path fill="rgb(255,255,255)" stroke="none" d="M 11801,16126 L 0,16126 0,0 23601,0 23601,16126 11801,16126 Z"/>
 <path fill="none" stroke="rgb(179,179,179)" stroke-linejoin="round" d="M 10781,14425 L 1714,14425 1714,1595 19847,1595 19847,14425 10781,14425 Z"/>
 <path fill="none" stroke="rgb(179,179,179)" stroke-linejoin="round" stroke-dasharray="53,34" d="M 1714,1594 L 1714,14424"/>
 <path fill="none" stroke="rgb(179,179,179)" stroke-linejoin="round" stroke-dasharray="53,34" d="M 2460,1594 L 2460,14424"/>
 <path fill="none" stroke="rgb(179,179,179)" stroke-linejoin="round" stroke-dasharray="53,34" d="M 3207,1594 L 3207,14424"/>
 <path fill="none" stroke="rgb(179,179,179)" stroke-linejoin="round" stroke-dasharray="53,34" d="M 3954,1594 L 3954,14424"/>
 <path fill="none" stroke="rgb(179,179,179)" stroke-linejoin="round" stroke-dasharray="53,34" d="M 4700,1594 L 4700,14424"/>
 <path fill="none" stroke="rgb(179,179,179)" stroke-linejoin="round" stroke-dasharray="53,34" d="M 5447,1594 L 5447,14424"/>
 <path fill="none" stroke="rgb(179,179,179)" stroke-linejoin="round" stroke-dasharray="53,34" d="M 6194,1594 L 6194,14424"/>
 <path fill="none" stroke="rgb(179,179,179)" stroke-linejoin="round" stroke-dasharray="53,34" d="M 6940,1594 L 6940,14424"/>
 <path fill="none" stroke="rgb(179,179,179)" stroke-linejoin="round" stroke-dasharray="53,34" d="M 7687,1594 L 7687,14424"/>
 <path fill="none" stroke="rgb(179,179,179)" stroke-linejoin="round" stroke-dasharray="53,34" d="M 8434,1594 L 8434,14424"/>
 <path fill="none" stroke="rgb(179,179,179)" stroke-linejoin="round" stroke-dasharray="53,34" d="M 9180,1594 L 9180,14424"/>
 <path fill="none" stroke="rgb(179,179,179)" stroke-linejoin="round" stroke-dasharray="53,34" d="M 9927,1594 L 9927,14424"/>
 <path fill="none" stroke="rgb(179,179,179)" stroke-linejoin="round" stroke-dasharray="53,34" d="M 10674,1594 L 10674,14424"/>
 <path fill="none" stroke="rgb(179,179,179)" stroke-linejoin="round" stroke-dasharray="53,34" d="M 11421,1594 L 11421,14424"/>
 <path fill="none" stroke="rgb(179,179,179)" stroke-linejoin="round" stroke-dasharray="53,34" d="M 12166,1594 L 12166,14424"/>
 <path fill="none" stroke="rgb(179,179,179)" stroke-linejoin="round" stroke-dasharray="53,34" d="M 12913,1594 L 12913,14424"/>
 <path fill="none" stroke="rgb(179,179,179)" stroke-linejoin="round" stroke-dasharray="53,34" d="M 13660,1594 L 13660,14424"/>
 <path fill="none" stroke="rgb(179,179,179)" stroke-linejoin="round" stroke-dasharray="53,34" d="M 14406,1594 L 14406,14424"/>
 <path fill="none" stroke="rgb(179,179,179)" stroke-linejoin="round" stroke-dasharray="53,34" d="M 15153,1594 L 15153,14424"/>
 <path fill="none" stroke="rgb(179,179,179)" stroke-linejoin="round" stroke-dasharray="53,34" d="M 15900,1594 L 15900,14424"/>
 <path fill="none" stroke="rgb(179,179,179)" stroke-linejoin="round" stroke-dasharray="53,34" d="M 16646,1594 L 16646,14424"/>
 <path fill="none" stroke="rgb(179,179,179)" stroke-linejoin="round" stroke-dasharray="53,34" d="M 17393,1594 L 17393,14424"/>
 <path fill="none" stroke="rgb(179,179,179)" stroke-linejoin="round" stroke-dasharray="53,34" d="M 18140,1594 L 18140,14424"/>
 <path fill="none" stroke="rgb(179,179,179)" stroke-linejoin="round" stroke-dasharray="53,34" d="M 18886,1594 L 18886,14424"/>
 <path fill="none" stroke="rgb(179,179,179)" stroke-linejoin="round" stroke-dasharray="53,34" d="M 19633,1594 L 19633,14424"/>
 <path fill="none" stroke="rgb(179,179,179)" stroke-linejoin="round" stroke-dasharray="53,34" d="M 19847,14424 L 1714,14424"/>
 <path fill="none" stroke="rgb(179,179,179)" stroke-linejoin="round" stroke-dasharray="53,34" d="M 19847,13140 L 1714,13140"/>
 <path fill="none" stroke="rgb(179,179,179)" stroke-linejoin="round" stroke-dasharray="53,34" d="M 19847,11857 L 1714,11857"/>
 <path fill="none" stroke="rgb(179,179,179)" stroke-linejoin="round" stroke-dasharray="53,34" d="M 19847,10574 L 1714,10574"/>
 <path fill="none" stroke="rgb(179,179,179)" stroke-linejoin="round" stroke-dasharray="53,34" d="M 19847,9291 L 1714,9291"/>
 <path fill="none" stroke="rgb(179,179,179)" stroke-linejoin="round" stroke-dasharray="53,34" d="M 19847,8009 L 1714,8009"/>
 <path fill="none" stroke="rgb(179,179,179)" stroke-linejoin="round" stroke-dasharray="53,34" d="M 19847,6726 L 1714,6726"/>
 <path fill="none" stroke="rgb(179,179,179)" stroke-linejoin="round" stroke-dasharray="53,34" d="M 19847,5443 L 1714,5443"/>
 <path fill="none" stroke="rgb(179,179,179)" stroke-linejoin="round" stroke-dasharray="53,34" d="M 19847,4160 L 1714,4160"/>
 <path fill="none" stroke="rgb(179,179,179)" stroke-linejoin="round" stroke-dasharray="53,34" d="M 19847,2877 L 1714,2877"/>
 <path fill="none" stroke="rgb(179,179,179)" stroke-linejoin="round" stroke-dasharray="53,34" d="M 19847,1594 L 1714,1594"/>
 <path fill="none" stroke="rgb(179,179,179)" stroke-linejoin="round" d="M 1714,14574 L 1714,14274"/>
 <path fill="none" stroke="rgb(179,179,179)" stroke-linejoin="round" d="M 1714,14574 L 1714,14274"/>
 <path fill="none" stroke="rgb(179,179,179)" stroke-linejoin="round" d="M 2460,14574 L 2460,14274"/>
 <path fill="none" stroke="rgb(179,179,179)" stroke-linejoin="round" d="M 2460,14574 L 2460,14274"/>
 <path fill="none" stroke="rgb(179,179,179)" stroke-linejoin="round" d="M 3207,14574 L 3207,14274"/>
 <path fill="none" stroke="rgb(179,179,179)" stroke-linejoin="round" d="M 3207,14574 L 3207,14274"/>
 <path fill="none" stroke="rgb(179,179,179)" stroke-linejoin="round" d="M 3954,14574 L 3954,14274"/>
 <path fill="none" stroke="rgb(179,179,179)" stroke-linejoin="round" d="M 3954,14574 L 3954,14274"/>
 <path fill="none" stroke="rgb(179,179,179)" stroke-linejoin="round" d="M 4700,14574 L 4700,14274"/>
 <path fill="none" stroke="rgb(179,179,179)" stroke-linejoin="round" d="M 4700,14574 L 4700,14274"/>
 <path fill="none" stroke="rgb(179,179,179)" stroke-linejoin="round" d="M 5447,14574 L 5447,14274"/>
 <path fill="none" stroke="rgb(179,179,179)" stroke-linejoin="round" d="M 5447,14574 L 5447,14274"/>
 <path fill="none" stroke="rgb(179,179,179)" stroke-linejoin="round" d="M 6194,14574 L 6194,14274"/>
 <path fill="none" stroke="rgb(179,179,179)" stroke-linejoin="round" d="M 6194,14574 L 6194,14274"/>
 <path fill="none" stroke="rgb(179,179,179)" stroke-linejoin="round" d="M 6940,14574 L 6940,14274"/>
 <path fill="none" stroke="rgb(179,179,179)" stroke-linejoin="round" d="M 6940,14574 L 6940,14274"/>
 <path fill="none" stroke="rgb(179,179,179)" stroke-linejoin="round" d="M 7687,14574 L 7687,14274"/>
 <path fill="none" stroke="rgb(179,179,179)" stroke-linejoin="round" d="M 7687,14574 L 7687,14274"/>
 <path fill="none" stroke="rgb(179,179,179)" stroke-linejoin="round" d="M 8434,14574 L 8434,14274"/>
 <path fill="none" stroke="rgb(179,179,179)" stroke-linejoin="round" d="M 8434,14574 L 8434,14274"/>
 <path fill="none" stroke="rgb(179,179,179)" stroke-linejoin="round" d="M 9180,14574 L 9180,14274"/>
 <path fill="none" stroke="rgb(179,179,179)" stroke-linejoin="round" d="M 9180,14574 L 9180,14274"/>
 <path fill="none" stroke="rgb(179,179,179)" stroke-linejoin="round" d="M 9927,14574 L 9927,14274"/>
 <path fill="none" stroke="rgb(179,179,179)" stroke-linejoin="round" d="M 9927,14574 L 9927,14274"/>
 <path fill="none" stroke="rgb(179,179,179)" stroke-linejoin="round" d="M 10674,14574 L 10674,14274"/>
 <path fill="none" stroke="rgb(179,179,179)" stroke-linejoin="round" d="M 10674,14574 L 10674,14274"/>
 <path fill="none" stroke="rgb(179,179,179)" stroke-linejoin="round" d="M 11421,14574 L 11421,14274"/>
 <path fill="none" stroke="rgb(179,179,179)" stroke-linejoin="round" d="M 11421,14574 L 11421,14274"/>
 <path fill="none" stroke="rgb(179,179,179)" stroke-linejoin="round" d="M 12166,14574 L 12166,14274"/>
 <path fill="none" stroke="rgb(179,179,179)" stroke-linejoin="round" d="M 12166,14574 L 12166,14274"/>
 <path fill="none" stroke="rgb(179,179,179)" stroke-linejoin="round" d="M 12913,14574 L 12913,14274"/>
 <path fill="none" stroke="rgb(179,179,179)" stroke-linejoin="round" d="M 12913,14574 L 12913,14274"/>
 <path fill="none" stroke="rgb(179,179,179)" stroke-linejoin="round" d="M 13660,14574 L 13660,14274"/>
 <path fill="none" stroke="rgb(179,179,179)" stroke-linejoin="round" d="M 13660,14574 L 13660,14274"/>
 <path fill="none" stroke="rgb(179,179,179)" stroke-linejoin="round" d="M 14406,14574 L 14406,14274"/>
 <path fill="none" stroke="rgb(179,179,179)" stroke-linejoin="round" d="M 14406,14574 L 14406,14274"/>
 <path fill="none" stroke="rgb(179,179,179)" stroke-linejoin="round" d="M 15153,14574 L 15153,14274"/>
 <path fill="none" stroke="rgb(179,179,179)" stroke-linejoin="round" d="M 15153,14574 L 15153,14274"/>
 <path fill="none" stroke="rgb(179,179,179)" stroke-linejoin="round" d="M 15900,14574 L 15900,14274"/>
 <path fill="none" stroke="rgb(179,179,179)" stroke-linejoin="round" d="M 15900,14574 L 15900,14274"/>
 <path fill="none" stroke="rgb(179,179,179)" stroke-linejoin="round" d="M 16646,14574 L 16646,14274"/>
 <path fill="none" stroke="rgb(179,179,179)" stroke-linejoin="round" d="M 16646,14574 L 16646,14274"/>
 <path fill="none" stroke="rgb(179,179,179)" stroke-linejoin="round" d="M 17393,14574 L 17393,14274"/>
 <path fill="none" stroke="rgb(179,179,179)" stroke-linejoin="round" d="M 17393,14574 L 17393,14274"/>
 <path fill="none" stroke="rgb(179,179,179)" stroke-linejoin="round" d="M 18140,14574 L 18140,14274"/>
 <path fill="none" stroke="rgb(179,179,179)" stroke-linejoin="round" d="M 18140,14574 L 18140,14274"/>
 <path fill="none" stroke="rgb(179,179,179)" stroke-linejoin="round" d="M 18886,14574 L 18886,14274"/>
 <path fill="none" stroke="rgb(179,179,179)" stroke-linejoin="round" d="M 18886,14574 L 18886,14274"/>
 <path fill="none" stroke="rgb(179,179,179)" stroke-linejoin="round" d="M 19633,14574 L 19633,14274"/>
 <path fill="none" stroke="rgb(179,179,179)" stroke-linejoin="round" d="M 19633,14574 L 19633,14274"/>
 <path fill="none" stroke="rgb(179,179,179)" stroke-linejoin="round" d="M 1714,14536 L 1714,14424"/>
 <path fill="none" stroke="rgb(179,179,179)" stroke-linejoin="round" d="M 1714,14536 L 1714,14424"/>
 <path fill="none" stroke="rgb(179,179,179)" stroke-linejoin="round" d="M 1820,14536 L 1820,14424"/>
 <path fill="none" stroke="rgb(179,179,179)" stroke-linejoin="round" d="M 1820,14536 L 1820,14424"/>
 <path fill="none" stroke="rgb(179,179,179)" stroke-linejoin="round" d="M 1927,14536 L 1927,14424"/>
 <path fill="none" stroke="rgb(179,179,179)" stroke-linejoin="round" d="M 1927,14536 L 1927,14424"/>
 <path fill="none" stroke="rgb(179,179,179)" stroke-linejoin="round" d="M 2034,14536 L 2034,14424"/>
 <path fill="none" stroke="rgb(179,179,179)" stroke-linejoin="round" d="M 2034,14536 L 2034,14424"/>
 <path fill="none" stroke="rgb(179,179,179)" stroke-linejoin="round" d="M 2140,14536 L 2140,14424"/>
 <path fill="none" stroke="rgb(179,179,179)" stroke-linejoin="round" d="M 2140,14536 L 2140,14424"/>
 <path fill="none" stroke="rgb(179,179,179)" stroke-linejoin="round" d="M 2247,14536 L 2247,14424"/>
 <path fill="none" stroke="rgb(179,179,179)" stroke-linejoin="round" d="M 2247,14536 L 2247,14424"/>
 <path fill="none" stroke="rgb(179,179,179)" stroke-linejoin="round" d="M 2354,14536 L 2354,14424"/>
 <path fill="none" stroke="rgb(179,179,179)" stroke-linejoin="round" d="M 2354,14536 L 2354,14424"/>
 <path fill="none" stroke="rgb(179,179,179)" stroke-linejoin="round" d="M 2460,14536 L 2460,14424"/>
 <path fill="none" stroke="rgb(179,179,179)" stroke-linejoin="round" d="M 2460,14536 L 2460,14424"/>
 <path fill="none" stroke="rgb(179,179,179)" stroke-linejoin="round" d="M 2567,14536 L 2567,14424"/>
 <path fill="none" stroke="rgb(179,179,179)" stroke-linejoin="round" d="M 2567,14536 L 2567,14424"/>
 <path fill="none" stroke="rgb(179,179,179)" stroke-linejoin="round" d="M 2674,14536 L 2674,14424"/>
 <path fill="none" stroke="rgb(179,179,179)" stroke-linejoin="round" d="M 2674,14536 L 2674,14424"/>
 <path fill="none" stroke="rgb(179,179,179)" stroke-linejoin="round" d="M 2780,14536 L 2780,14424"/>
 <path fill="none" stroke="rgb(179,179,179)" stroke-linejoin="round" d="M 2780,14536 L 2780,14424"/>
 <path fill="none" stroke="rgb(179,179,179)" stroke-linejoin="round" d="M 2887,14536 L 2887,14424"/>
 <path fill="none" stroke="rgb(179,179,179)" stroke-linejoin="round" d="M 2887,14536 L 2887,14424"/>
 <path fill="none" stroke="rgb(179,179,179)" stroke-linejoin="round" d="M 2994,14536 L 2994,14424"/>
 <path fill="none" stroke="rgb(179,179,179)" stroke-linejoin="round" d="M 2994,14536 L 2994,14424"/>
 <path fill="none" stroke="rgb(179,179,179)" stroke-linejoin="round" d="M 3100,14536 L 3100,14424"/>
 <path fill="none" stroke="rgb(179,179,179)" stroke-linejoin="round" d="M 3100,14536 L 3100,14424"/>
 <path fill="none" stroke="rgb(179,179,179)" stroke-linejoin="round" d="M 3207,14536 L 3207,14424"/>
 <path fill="none" stroke="rgb(179,179,179)" stroke-linejoin="round" d="M 3207,14536 L 3207,14424"/>
 <path fill="none" stroke="rgb(179,179,179)" stroke-linejoin="round" d="M 3314,14536 L 3314,14424"/>
 <path fill="none" stroke="rgb(179,179,179)" stroke-linejoin="round" d="M 3314,14536 L 3314,14424"/>
 <path fill="none" stroke="rgb(179,179,179)" stroke-linejoin="round" d="M 3420,14536 L 3420,14424"/>
 <path fill="none" stroke="rgb(179,179,179)" stroke-linejoin="round" d="M 3420,14536 L 3420,14424"/>
 <path fill="none" stroke="rgb(179,179,179)" stroke-linejoin="round" d="M 3527,14536 L 3527,14424"/>
 <path fill="none" stroke="rgb(179,179,179)" stroke-linejoin="round" d="M 3527,14536 L 3527,14424"/>
 <path fill="none" stroke="rgb(179,179,179)" stroke-linejoin="round" d="M 3634,14536 L 3634,14424"/>
 <path fill="none" stroke="rgb(179,179,179)" stroke-linejoin="round" d="M 3634,14536 L 3634,14424"/>
 <path fill="none" stroke="rgb(179,179,179)" stroke-linejoin="round" d="M 3740,14536 L 3740,14424"/>
 <path fill="none" stroke="rgb(179,179,179)" stroke-linejoin="round" d="M 3740,14536 L 3740,14424"/>
 <path fill="none" stroke="rgb(179,179,179)" stroke-linejoin="round" d="M 3847,14536 L 3847,14424"/>
 <path fill="none" stroke="rgb(179,179,179)" stroke-linejoin="round" d="M 3847,14536 L 3847,14424"/>
 <path fill="none" stroke="rgb(179,179,179)" stroke-linejoin="round" d="M 3954,14536 L 3954,14424"/>
 <path fill="none" stroke="rgb(179,179,179)" stroke-linejoin="round" d="M 3954,14536 L 3954,14424"/>
 <path fill="none" stroke="rgb(179,179,179)" stroke-linejoin="round" d="M 4060,14536 L 4060,14424"/>
 <path fill="none" stroke="rgb(179,179,179)" stroke-linejoin="round" d="M 4060,14536 L 4060,14424"/>
 <path fill="none" stroke="rgb(179,179,179)" stroke-linejoin="round" d="M 4167,14536 L 4167,14424"/>
 <path fill="none" stroke="rgb(179,179,179)" stroke-linejoin="round" d="M 4167,14536 L 4167,14424"/>
 <path fill="none" stroke="rgb(179,179,179)" stroke-linejoin="round" d="M 4274,14536 L 4274,14424"/>
 <path fill="none" stroke="rgb(179,179,179)" stroke-linejoin="round" d="M 4274,14536 L 4274,14424"/>
 <path fill="none" stroke="rgb(179,179,179)" stroke-linejoin="round" d="M 4380,14536 L 4380,14424"/>
 <path fill="none" stroke="rgb(179,179,179)" stroke-linejoin="round" d="M 4380,14536 L 4380,14424"/>
 <path fill="none" stroke="rgb(179,179,179)" stroke-linejoin="round" d="M 4487,14536 L 4487,14424"/>
 <path fill="none" stroke="rgb(179,179,179)" stroke-linejoin="round" d="M 4487,14536 L 4487,14424"/>
 <path fill="none" stroke="rgb(179,179,179)" stroke-linejoin="round" d="M 4594,14536 L 4594,14424"/>
 <path fill="none" stroke="rgb(179,179,179)" stroke-linejoin="round" d="M 4594,14536 L 4594,14424"/>
 <path fill="none" stroke="rgb(179,179,179)" stroke-linejoin="round" d="M 4700,14536 L 4700,14424"/>
 <path fill="none" stroke="rgb(179,179,179)" stroke-linejoin="round" d="M 4700,14536 L 4700,14424"/>
 <path fill="none" stroke="rgb(179,179,179)" stroke-linejoin="round" d="M 4807,14536 L 4807,14424"/>
 <path fill="none" stroke="rgb(179,179,179)" stroke-linejoin="round" d="M 4807,14536 L 4807,14424"/>
 <path fill="none" stroke="rgb(179,179,179)" stroke-linejoin="round" d="M 4914,14536 L 4914,14424"/>
 <path fill="none" stroke="rgb(179,179,179)" stroke-linejoin="round" d="M 4914,14536 L 4914,14424"/>
 <path fill="none" stroke="rgb(179,179,179)" stroke-linejoin="round" d="M 5020,14536 L 5020,14424"/>
 <path fill="none" stroke="rgb(179,179,179)" stroke-linejoin="round" d="M 5020,14536 L 5020,14424"/>
 <path fill="none" stroke="rgb(179,179,179)" stroke-linejoin="round" d="M 5127,14536 L 5127,14424"/>
 <path fill="none" stroke="rgb(179,179,179)" stroke-linejoin="round" d="M 5127,14536 L 5127,14424"/>
 <path fill="none" stroke="rgb(179,179,179)" stroke-linejoin="round" d="M 5234,14536 L 5234,14424"/>
 <path fill="none" stroke="rgb(179,179,179)" stroke-linejoin="round" d="M 5234,14536 L 5234,14424"/>
 <path fill="none" stroke="rgb(179,179,179)" stroke-linejoin="round" d="M 5340,14536 L 5340,14424"/>
 <path fill="none" stroke="rgb(179,179,179)" stroke-linejoin="round" d="M 5340,14536 L 5340,14424"/>
 <path fill="none" stroke="rgb(179,179,179)" stroke-linejoin="round" d="M 5447,14536 L 5447,14424"/>
 <path fill="none" stroke="rgb(179,179,179)" stroke-linejoin="round" d="M 5447,14536 L 5447,14424"/>
 <path fill="none" stroke="rgb(179,179,179)" stroke-linejoin="round" d="M 5554,14536 L 5554,14424"/>
 <path fill="none" stroke="rgb(179,179,179)" stroke-linejoin="round" d="M 5554,14536 L 5554,14424"/>
 <path fill="none" stroke="rgb(179,179,179)" stroke-linejoin="round" d="M 5660,14536 L 5660,14424"/>
 <path fill="none" stroke="rgb(179,179,179)" stroke-linejoin="round" d="M 5660,14536 L 5660,14424"/>
 <path fill="none" stroke="rgb(179,179,179)" stroke-linejoin="round" d="M 5767,14536 L 5767,14424"/>
 <path fill="none" stroke="rgb(179,179,179)" stroke-linejoin="round" d="M 5767,14536 L 5767,14424"/>
 <path fill="none" stroke="rgb(179,179,179)" stroke-linejoin="round" d="M 5874,14536 L 5874,14424"/>
 <path fill="none" stroke="rgb(179,179,179)" stroke-linejoin="round" d="M 5874,14536 L 5874,14424"/>
 <path fill="none" stroke="rgb(179,179,179)" stroke-linejoin="round" d="M 5980,14536 L 5980,14424"/>
 <path fill="none" stroke="rgb(179,179,179)" stroke-linejoin="round" d="M 5980,14536 L 5980,14424"/>
 <path fill="none" stroke="rgb(179,179,179)" stroke-linejoin="round" d="M 6087,14536 L 6087,14424"/>
 <path fill="none" stroke="rgb(179,179,179)" stroke-linejoin="round" d="M 6087,14536 L 6087,14424"/>
 <path fill="none" stroke="rgb(179,179,179)" stroke-linejoin="round" d="M 6194,14536 L 6194,14424"/>
 <path fill="none" stroke="rgb(179,179,179)" stroke-linejoin="round" d="M 6194,14536 L 6194,14424"/>
 <path fill="none" stroke="rgb(179,179,179)" stroke-linejoin="round" d="M 6300,14536 L 6300,14424"/>
 <path fill="none" stroke="rgb(179,179,179)" stroke-linejoin="round" d="M 6300,14536 L 6300,14424"/>
 <path fill="none" stroke="rgb(179,179,179)" stroke-linejoin="round" d="M 6407,14536 L 6407,14424"/>
 <path fill="none" stroke="rgb(179,179,179)" stroke-linejoin="round" d="M 6407,14536 L 6407,14424"/>
 <path fill="none" stroke="rgb(179,179,179)" stroke-linejoin="round" d="M 6514,14536 L 6514,14424"/>
 <path fill="none" stroke="rgb(179,179,179)" stroke-linejoin="round" d="M 6514,14536 L 6514,14424"/>
 <path fill="none" stroke="rgb(179,179,179)" stroke-linejoin="round" d="M 6620,14536 L 6620,14424"/>
 <path fill="none" stroke="rgb(179,179,179)" stroke-linejoin="round" d="M 6620,14536 L 6620,14424"/>
 <path fill="none" stroke="rgb(179,179,179)" stroke-linejoin="round" d="M 6727,14536 L 6727,14424"/>
 <path fill="none" stroke="rgb(179,179,179)" stroke-linejoin="round" d="M 6727,14536 L 6727,14424"/>
 <path fill="none" stroke="rgb(179,179,179)" stroke-linejoin="round" d="M 6834,14536 L 6834,14424"/>
 <path fill="none" stroke="rgb(179,179,179)" stroke-linejoin="round" d="M 6834,14536 L 6834,14424"/>
 <path fill="none" stroke="rgb(179,179,179)" stroke-linejoin="round" d="M 6940,14536 L 6940,14424"/>
 <path fill="none" stroke="rgb(179,179,179)" stroke-linejoin="round" d="M 6940,14536 L 6940,14424"/>
 <path fill="none" stroke="rgb(179,179,179)" stroke-linejoin="round" d="M 7047,14536 L 7047,14424"/>
 <path fill="none" stroke="rgb(179,179,179)" stroke-linejoin="round" d="M 7047,14536 L 7047,14424"/>
 <path fill="none" stroke="rgb(179,179,179)" stroke-linejoin="round" d="M 7154,14536 L 7154,14424"/>
 <path fill="none" stroke="rgb(179,179,179)" stroke-linejoin="round" d="M 7154,14536 L 7154,14424"/>
 <path fill="none" stroke="rgb(179,179,179)" stroke-linejoin="round" d="M 7260,14536 L 7260,14424"/>
 <path fill="none" stroke="rgb(179,179,179)" stroke-linejoin="round" d="M 7260,14536 L 7260,14424"/>
 <path fill="none" stroke="rgb(179,179,179)" stroke-linejoin="round" d="M 7367,14536 L 7367,14424"/>
 <path fill="none" stroke="rgb(179,179,179)" stroke-linejoin="round" d="M 7367,14536 L 7367,14424"/>
 <path fill="none" stroke="rgb(179,179,179)" stroke-linejoin="round" d="M 7474,14536 L 7474,14424"/>
 <path fill="none" stroke="rgb(179,179,179)" stroke-linejoin="round" d="M 7474,14536 L 7474,14424"/>
 <path fill="none" stroke="rgb(179,179,179)" stroke-linejoin="round" d="M 7580,14536 L 7580,14424"/>
 <path fill="none" stroke="rgb(179,179,179)" stroke-linejoin="round" d="M 7580,14536 L 7580,14424"/>
 <path fill="none" stroke="rgb(179,179,179)" stroke-linejoin="round" d="M 7687,14536 L 7687,14424"/>
 <path fill="none" stroke="rgb(179,179,179)" stroke-linejoin="round" d="M 7687,14536 L 7687,14424"/>
 <path fill="none" stroke="rgb(179,179,179)" stroke-linejoin="round" d="M 7794,14536 L 7794,14424"/>
 <path fill="none" stroke="rgb(179,179,179)" stroke-linejoin="round" d="M 7794,14536 L 7794,14424"/>
 <path fill="none" stroke="rgb(179,179,179)" stroke-linejoin="round" d="M 7900,14536 L 7900,14424"/>
 <path fill="none" stroke="rgb(179,179,179)" stroke-linejoin="round" d="M 7900,14536 L 7900,14424"/>
 <path fill="none" stroke="rgb(179,179,179)" stroke-linejoin="round" d="M 8007,14536 L 8007,14424"/>
 <path fill="none" stroke="rgb(179,179,179)" stroke-linejoin="round" d="M 8007,14536 L 8007,14424"/>
 <path fill="none" stroke="rgb(179,179,179)" stroke-linejoin="round" d="M 8114,14536 L 8114,14424"/>
 <path fill="none" stroke="rgb(179,179,179)" stroke-linejoin="round" d="M 8114,14536 L 8114,14424"/>
 <path fill="none" stroke="rgb(179,179,179)" stroke-linejoin="round" d="M 8220,14536 L 8220,14424"/>
 <path fill="none" stroke="rgb(179,179,179)" stroke-linejoin="round" d="M 8220,14536 L 8220,14424"/>
 <path fill="none" stroke="rgb(179,179,179)" stroke-linejoin="round" d="M 8327,14536 L 8327,14424"/>
 <path fill="none" stroke="rgb(179,179,179)" stroke-linejoin="round" d="M 8327,14536 L 8327,14424"/>
 <path fill="none" stroke="rgb(179,179,179)" stroke-linejoin="round" d="M 8434,14536 L 8434,14424"/>
 <path fill="none" stroke="rgb(179,179,179)" stroke-linejoin="round" d="M 8434,14536 L 8434,14424"/>
 <path fill="none" stroke="rgb(179,179,179)" stroke-linejoin="round" d="M 8540,14536 L 8540,14424"/>
 <path fill="none" stroke="rgb(179,179,179)" stroke-linejoin="round" d="M 8540,14536 L 8540,14424"/>
 <path fill="none" stroke="rgb(179,179,179)" stroke-linejoin="round" d="M 8647,14536 L 8647,14424"/>
 <path fill="none" stroke="rgb(179,179,179)" stroke-linejoin="round" d="M 8647,14536 L 8647,14424"/>
 <path fill="none" stroke="rgb(179,179,179)" stroke-linejoin="round" d="M 8754,14536 L 8754,14424"/>
 <path fill="none" stroke="rgb(179,179,179)" stroke-linejoin="round" d="M 8754,14536 L 8754,14424"/>
 <path fill="none" stroke="rgb(179,179,179)" stroke-linejoin="round" d="M 8860,14536 L 8860,14424"/>
 <path fill="none" stroke="rgb(179,179,179)" stroke-linejoin="round" d="M 8860,14536 L 8860,14424"/>
 <path fill="none" stroke="rgb(179,179,179)" stroke-linejoin="round" d="M 8967,14536 L 8967,14424"/>
 <path fill="none" stroke="rgb(179,179,179)" stroke-linejoin="round" d="M 8967,14536 L 8967,14424"/>
 <path fill="none" stroke="rgb(179,179,179)" stroke-linejoin="round" d="M 9074,14536 L 9074,14424"/>
 <path fill="none" stroke="rgb(179,179,179)" stroke-linejoin="round" d="M 9074,14536 L 9074,14424"/>
 <path fill="none" stroke="rgb(179,179,179)" stroke-linejoin="round" d="M 9180,14536 L 9180,14424"/>
 <path fill="none" stroke="rgb(179,179,179)" stroke-linejoin="round" d="M 9180,14536 L 9180,14424"/>
 <path fill="none" stroke="rgb(179,179,179)" stroke-linejoin="round" d="M 9287,14536 L 9287,14424"/>
 <path fill="none" stroke="rgb(179,179,179)" stroke-linejoin="round" d="M 9287,14536 L 9287,14424"/>
 <path fill="none" stroke="rgb(179,179,179)" stroke-linejoin="round" d="M 9394,14536 L 9394,14424"/>
 <path fill="none" stroke="rgb(179,179,179)" stroke-linejoin="round" d="M 9394,14536 L 9394,14424"/>
 <path fill="none" stroke="rgb(179,179,179)" stroke-linejoin="round" d="M 9500,14536 L 9500,14424"/>
 <path fill="none" stroke="rgb(179,179,179)" stroke-linejoin="round" d="M 9500,14536 L 9500,14424"/>
 <path fill="none" stroke="rgb(179,179,179)" stroke-linejoin="round" d="M 9607,14536 L 9607,14424"/>
 <path fill="none" stroke="rgb(179,179,179)" stroke-linejoin="round" d="M 9607,14536 L 9607,14424"/>
 <path fill="none" stroke="rgb(179,179,179)" stroke-linejoin="round" d="M 9714,14536 L 9714,14424"/>
 <path fill="none" stroke="rgb(179,179,179)" stroke-linejoin="round" d="M 9714,14536 L 9714,14424"/>
 <path fill="none" stroke="rgb(179,179,179)" stroke-linejoin="round" d="M 9820,14536 L 9820,14424"/>
 <path fill="none" stroke="rgb(179,179,179)" stroke-linejoin="round" d="M 9820,14536 L 9820,14424"/>
 <path fill="none" stroke="rgb(179,179,179)" stroke-linejoin="round" d="M 9927,14536 L 9927,14424"/>
 <path fill="none" stroke="rgb(179,179,179)" stroke-linejoin="round" d="M 9927,14536 L 9927,14424"/>
 <path fill="none" stroke="rgb(179,179,179)" stroke-linejoin="round" d="M 10034,14536 L 10034,14424"/>
 <path fill="none" stroke="rgb(179,179,179)" stroke-linejoin="round" d="M 10034,14536 L 10034,14424"/>
 <path fill="none" stroke="rgb(179,179,179)" stroke-linejoin="round" d="M 10140,14536 L 10140,14424"/>
 <path fill="none" stroke="rgb(179,179,179)" stroke-linejoin="round" d="M 10140,14536 L 10140,14424"/>
 <path fill="none" stroke="rgb(179,179,179)" stroke-linejoin="round" d="M 10247,14536 L 10247,14424"/>
 <path fill="none" stroke="rgb(179,179,179)" stroke-linejoin="round" d="M 10247,14536 L 10247,14424"/>
 <path fill="none" stroke="rgb(179,179,179)" stroke-linejoin="round" d="M 10354,14536 L 10354,14424"/>
 <path fill="none" stroke="rgb(179,179,179)" stroke-linejoin="round" d="M 10354,14536 L 10354,14424"/>
 <path fill="none" stroke="rgb(179,179,179)" stroke-linejoin="round" d="M 10460,14536 L 10460,14424"/>
 <path fill="none" stroke="rgb(179,179,179)" stroke-linejoin="round" d="M 10460,14536 L 10460,14424"/>
 <path fill="none" stroke="rgb(179,179,179)" stroke-linejoin="round" d="M 10567,14536 L 10567,14424"/>
 <path fill="none" stroke="rgb(179,179,179)" stroke-linejoin="round" d="M 10567,14536 L 10567,14424"/>
 <path fill="none" stroke="rgb(179,179,179)" stroke-linejoin="round" d="M 10674,14536 L 10674,14424"/>
 <path fill="none" stroke="rgb(179,179,179)" stroke-linejoin="round" d="M 10674,14536 L 10674,14424"/>
 <path fill="none" stroke="rgb(179,179,179)" stroke-linejoin="round" d="M 10781,14536 L 10781,14424"/>
 <path fill="none" stroke="rgb(179,179,179)" stroke-linejoin="round" d="M 10781,14536 L 10781,14424"/>
 <path fill="none" stroke="rgb(179,179,179)" stroke-linejoin="round" d="M 10887,14536 L 10887,14424"/>
 <path fill="none" stroke="rgb(179,179,179)" stroke-linejoin="round" d="M 10887,14536 L 10887,14424"/>
 <path fill="none" stroke="rgb(179,179,179)" stroke-linejoin="round" d="M 10994,14536 L 10994,14424"/>
 <path fill="none" stroke="rgb(179,179,179)" stroke-linejoin="round" d="M 10994,14536 L 10994,14424"/>
 <path fill="none" stroke="rgb(179,179,179)" stroke-linejoin="round" d="M 11101,14536 L 11101,14424"/>
 <path fill="none" stroke="rgb(179,179,179)" stroke-linejoin="round" d="M 11101,14536 L 11101,14424"/>
 <path fill="none" stroke="rgb(179,179,179)" stroke-linejoin="round" d="M 11207,14536 L 11207,14424"/>
 <path fill="none" stroke="rgb(179,179,179)" stroke-linejoin="round" d="M 11207,14536 L 11207,14424"/>
 <path fill="none" stroke="rgb(179,179,179)" stroke-linejoin="round" d="M 11314,14536 L 11314,14424"/>
 <path fill="none" stroke="rgb(179,179,179)" stroke-linejoin="round" d="M 11314,14536 L 11314,14424"/>
 <path fill="none" stroke="rgb(179,179,179)" stroke-linejoin="round" d="M 11421,14536 L 11421,14424"/>
 <path fill="none" stroke="rgb(179,179,179)" stroke-linejoin="round" d="M 11421,14536 L 11421,14424"/>
 <path fill="none" stroke="rgb(179,179,179)" stroke-linejoin="round" d="M 11527,14536 L 11527,14424"/>
 <path fill="none" stroke="rgb(179,179,179)" stroke-linejoin="round" d="M 11527,14536 L 11527,14424"/>
 <path fill="none" stroke="rgb(179,179,179)" stroke-linejoin="round" d="M 11634,14536 L 11634,14424"/>
 <path fill="none" stroke="rgb(179,179,179)" stroke-linejoin="round" d="M 11634,14536 L 11634,14424"/>
 <path fill="none" stroke="rgb(179,179,179)" stroke-linejoin="round" d="M 11741,14536 L 11741,14424"/>
 <path fill="none" stroke="rgb(179,179,179)" stroke-linejoin="round" d="M 11741,14536 L 11741,14424"/>
 <path fill="none" stroke="rgb(179,179,179)" stroke-linejoin="round" d="M 11846,14536 L 11846,14424"/>
 <path fill="none" stroke="rgb(179,179,179)" stroke-linejoin="round" d="M 11846,14536 L 11846,14424"/>
 <path fill="none" stroke="rgb(179,179,179)" stroke-linejoin="round" d="M 11953,14536 L 11953,14424"/>
 <path fill="none" stroke="rgb(179,179,179)" stroke-linejoin="round" d="M 11953,14536 L 11953,14424"/>
 <path fill="none" stroke="rgb(179,179,179)" stroke-linejoin="round" d="M 12060,14536 L 12060,14424"/>
 <path fill="none" stroke="rgb(179,179,179)" stroke-linejoin="round" d="M 12060,14536 L 12060,14424"/>
 <path fill="none" stroke="rgb(179,179,179)" stroke-linejoin="round" d="M 12166,14536 L 12166,14424"/>
 <path fill="none" stroke="rgb(179,179,179)" stroke-linejoin="round" d="M 12166,14536 L 12166,14424"/>
 <path fill="none" stroke="rgb(179,179,179)" stroke-linejoin="round" d="M 12273,14536 L 12273,14424"/>
 <path fill="none" stroke="rgb(179,179,179)" stroke-linejoin="round" d="M 12273,14536 L 12273,14424"/>
 <path fill="none" stroke="rgb(179,179,179)" stroke-linejoin="round" d="M 12380,14536 L 12380,14424"/>
 <path fill="none" stroke="rgb(179,179,179)" stroke-linejoin="round" d="M 12380,14536 L 12380,14424"/>
 <path fill="none" stroke="rgb(179,179,179)" stroke-linejoin="round" d="M 12486,14536 L 12486,14424"/>
 <path fill="none" stroke="rgb(179,179,179)" stroke-linejoin="round" d="M 12486,14536 L 12486,14424"/>
 <path fill="none" stroke="rgb(179,179,179)" stroke-linejoin="round" d="M 12593,14536 L 12593,14424"/>
 <path fill="none" stroke="rgb(179,179,179)" stroke-linejoin="round" d="M 12593,14536 L 12593,14424"/>
 <path fill="none" stroke="rgb(179,179,179)" stroke-linejoin="round" d="M 12700,14536 L 12700,14424"/>
 <path fill="none" stroke="rgb(179,179,179)" stroke-linejoin="round" d="M 12700,14536 L 12700,14424"/>
 <path fill="none" stroke="rgb(179,179,179)" stroke-linejoin="round" d="M 12806,14536 L 12806,14424"/>
 <path fill="none" stroke="rgb(179,179,179)" stroke-linejoin="round" d="M 12806,14536 L 12806,14424"/>
 <path fill="none" stroke="rgb(179,179,179)" stroke-linejoin="round" d="M 12913,14536 L 12913,14424"/>
 <path fill="none" stroke="rgb(179,179,179)" stroke-linejoin="round" d="M 12913,14536 L 12913,14424"/>
 <path fill="none" stroke="rgb(179,179,179)" stroke-linejoin="round" d="M 13020,14536 L 13020,14424"/>
 <path fill="none" stroke="rgb(179,179,179)" stroke-linejoin="round" d="M 13020,14536 L 13020,14424"/>
 <path fill="none" stroke="rgb(179,179,179)" stroke-linejoin="round" d="M 13126,14536 L 13126,14424"/>
 <path fill="none" stroke="rgb(179,179,179)" stroke-linejoin="round" d="M 13126,14536 L 13126,14424"/>
 <path fill="none" stroke="rgb(179,179,179)" stroke-linejoin="round" d="M 13233,14536 L 13233,14424"/>
 <path fill="none" stroke="rgb(179,179,179)" stroke-linejoin="round" d="M 13233,14536 L 13233,14424"/>
 <path fill="none" stroke="rgb(179,179,179)" stroke-linejoin="round" d="M 13340,14536 L 13340,14424"/>
 <path fill="none" stroke="rgb(179,179,179)" stroke-linejoin="round" d="M 13340,14536 L 13340,14424"/>
 <path fill="none" stroke="rgb(179,179,179)" stroke-linejoin="round" d="M 13446,14536 L 13446,14424"/>
 <path fill="none" stroke="rgb(179,179,179)" stroke-linejoin="round" d="M 13446,14536 L 13446,14424"/>
 <path fill="none" stroke="rgb(179,179,179)" stroke-linejoin="round" d="M 13553,14536 L 13553,14424"/>
 <path fill="none" stroke="rgb(179,179,179)" stroke-linejoin="round" d="M 13553,14536 L 13553,14424"/>
 <path fill="none" stroke="rgb(179,179,179)" stroke-linejoin="round" d="M 13660,14536 L 13660,14424"/>
 <path fill="none" stroke="rgb(179,179,179)" stroke-linejoin="round" d="M 13660,14536 L 13660,14424"/>
 <path fill="none" stroke="rgb(179,179,179)" stroke-linejoin="round" d="M 13766,14536 L 13766,14424"/>
 <path fill="none" stroke="rgb(179,179,179)" stroke-linejoin="round" d="M 13766,14536 L 13766,14424"/>
 <path fill="none" stroke="rgb(179,179,179)" stroke-linejoin="round" d="M 13873,14536 L 13873,14424"/>
 <path fill="none" stroke="rgb(179,179,179)" stroke-linejoin="round" d="M 13873,14536 L 13873,14424"/>
 <path fill="none" stroke="rgb(179,179,179)" stroke-linejoin="round" d="M 13980,14536 L 13980,14424"/>
 <path fill="none" stroke="rgb(179,179,179)" stroke-linejoin="round" d="M 13980,14536 L 13980,14424"/>
 <path fill="none" stroke="rgb(179,179,179)" stroke-linejoin="round" d="M 14086,14536 L 14086,14424"/>
 <path fill="none" stroke="rgb(179,179,179)" stroke-linejoin="round" d="M 14086,14536 L 14086,14424"/>
 <path fill="none" stroke="rgb(179,179,179)" stroke-linejoin="round" d="M 14193,14536 L 14193,14424"/>
 <path fill="none" stroke="rgb(179,179,179)" stroke-linejoin="round" d="M 14193,14536 L 14193,14424"/>
 <path fill="none" stroke="rgb(179,179,179)" stroke-linejoin="round" d="M 14300,14536 L 14300,14424"/>
 <path fill="none" stroke="rgb(179,179,179)" stroke-linejoin="round" d="M 14300,14536 L 14300,14424"/>
 <path fill="none" stroke="rgb(179,179,179)" stroke-linejoin="round" d="M 14406,14536 L 14406,14424"/>
 <path fill="none" stroke="rgb(179,179,179)" stroke-linejoin="round" d="M 14406,14536 L 14406,14424"/>
 <path fill="none" stroke="rgb(179,179,179)" stroke-linejoin="round" d="M 14513,14536 L 14513,14424"/>
 <path fill="none" stroke="rgb(179,179,179)" stroke-linejoin="round" d="M 14513,14536 L 14513,14424"/>
 <path fill="none" stroke="rgb(179,179,179)" stroke-linejoin="round" d="M 14620,14536 L 14620,14424"/>
 <path fill="none" stroke="rgb(179,179,179)" stroke-linejoin="round" d="M 14620,14536 L 14620,14424"/>
 <path fill="none" stroke="rgb(179,179,179)" stroke-linejoin="round" d="M 14726,14536 L 14726,14424"/>
 <path fill="none" stroke="rgb(179,179,179)" stroke-linejoin="round" d="M 14726,14536 L 14726,14424"/>
 <path fill="none" stroke="rgb(179,179,179)" stroke-linejoin="round" d="M 14833,14536 L 14833,14424"/>
 <path fill="none" stroke="rgb(179,179,179)" stroke-linejoin="round" d="M 14833,14536 L 14833,14424"/>
 <path fill="none" stroke="rgb(179,179,179)" stroke-linejoin="round" d="M 14940,14536 L 14940,14424"/>
 <path fill="none" stroke="rgb(179,179,179)" stroke-linejoin="round" d="M 14940,14536 L 14940,14424"/>
 <path fill="none" stroke="rgb(179,179,179)" stroke-linejoin="round" d="M 15046,14536 L 15046,14424"/>
 <path fill="none" stroke="rgb(179,179,179)" stroke-linejoin="round" d="M 15046,14536 L 15046,14424"/>
 <path fill="none" stroke="rgb(179,179,179)" stroke-linejoin="round" d="M 15153,14536 L 15153,14424"/>
 <path fill="none" stroke="rgb(179,179,179)" stroke-linejoin="round" d="M 15153,14536 L 15153,14424"/>
 <path fill="none" stroke="rgb(179,179,179)" stroke-linejoin="round" d="M 15260,14536 L 15260,14424"/>
 <path fill="none" stroke="rgb(179,179,179)" stroke-linejoin="round" d="M 15260,14536 L 15260,14424"/>
 <path fill="none" stroke="rgb(179,179,179)" stroke-linejoin="round" d="M 15366,14536 L 15366,14424"/>
 <path fill="none" stroke="rgb(179,179,179)" stroke-linejoin="round" d="M 15366,14536 L 15366,14424"/>
 <path fill="none" stroke="rgb(179,179,179)" stroke-linejoin="round" d="M 15473,14536 L 15473,14424"/>
 <path fill="none" stroke="rgb(179,179,179)" stroke-linejoin="round" d="M 15473,14536 L 15473,14424"/>
 <path fill="none" stroke="rgb(179,179,179)" stroke-linejoin="round" d="M 15580,14536 L 15580,14424"/>
 <path fill="none" stroke="rgb(179,179,179)" stroke-linejoin="round" d="M 15580,14536 L 15580,14424"/>
 <path fill="none" stroke="rgb(179,179,179)" stroke-linejoin="round" d="M 15686,14536 L 15686,14424"/>
 <path fill="none" stroke="rgb(179,179,179)" stroke-linejoin="round" d="M 15686,14536 L 15686,14424"/>
 <path fill="none" stroke="rgb(179,179,179)" stroke-linejoin="round" d="M 15793,14536 L 15793,14424"/>
 <path fill="none" stroke="rgb(179,179,179)" stroke-linejoin="round" d="M 15793,14536 L 15793,14424"/>
 <path fill="none" stroke="rgb(179,179,179)" stroke-linejoin="round" d="M 15900,14536 L 15900,14424"/>
 <path fill="none" stroke="rgb(179,179,179)" stroke-linejoin="round" d="M 15900,14536 L 15900,14424"/>
 <path fill="none" stroke="rgb(179,179,179)" stroke-linejoin="round" d="M 16006,14536 L 16006,14424"/>
 <path fill="none" stroke="rgb(179,179,179)" stroke-linejoin="round" d="M 16006,14536 L 16006,14424"/>
 <path fill="none" stroke="rgb(179,179,179)" stroke-linejoin="round" d="M 16113,14536 L 16113,14424"/>
 <path fill="none" stroke="rgb(179,179,179)" stroke-linejoin="round" d="M 16113,14536 L 16113,14424"/>
 <path fill="none" stroke="rgb(179,179,179)" stroke-linejoin="round" d="M 16220,14536 L 16220,14424"/>
 <path fill="none" stroke="rgb(179,179,179)" stroke-linejoin="round" d="M 16220,14536 L 16220,14424"/>
 <path fill="none" stroke="rgb(179,179,179)" stroke-linejoin="round" d="M 16326,14536 L 16326,14424"/>
 <path fill="none" stroke="rgb(179,179,179)" stroke-linejoin="round" d="M 16326,14536 L 16326,14424"/>
 <path fill="none" stroke="rgb(179,179,179)" stroke-linejoin="round" d="M 16433,14536 L 16433,14424"/>
 <path fill="none" stroke="rgb(179,179,179)" stroke-linejoin="round" d="M 16433,14536 L 16433,14424"/>
 <path fill="none" stroke="rgb(179,179,179)" stroke-linejoin="round" d="M 16540,14536 L 16540,14424"/>
 <path fill="none" stroke="rgb(179,179,179)" stroke-linejoin="round" d="M 16540,14536 L 16540,14424"/>
 <path fill="none" stroke="rgb(179,179,179)" stroke-linejoin="round" d="M 16646,14536 L 16646,14424"/>
 <path fill="none" stroke="rgb(179,179,179)" stroke-linejoin="round" d="M 16646,14536 L 16646,14424"/>
 <path fill="none" stroke="rgb(179,179,179)" stroke-linejoin="round" d="M 16753,14536 L 16753,14424"/>
 <path fill="none" stroke="rgb(179,179,179)" stroke-linejoin="round" d="M 16753,14536 L 16753,14424"/>
 <path fill="none" stroke="rgb(179,179,179)" stroke-linejoin="round" d="M 16860,14536 L 16860,14424"/>
 <path fill="none" stroke="rgb(179,179,179)" stroke-linejoin="round" d="M 16860,14536 L 16860,14424"/>
 <path fill="none" stroke="rgb(179,179,179)" stroke-linejoin="round" d="M 16966,14536 L 16966,14424"/>
 <path fill="none" stroke="rgb(179,179,179)" stroke-linejoin="round" d="M 16966,14536 L 16966,14424"/>
 <path fill="none" stroke="rgb(179,179,179)" stroke-linejoin="round" d="M 17073,14536 L 17073,14424"/>
 <path fill="none" stroke="rgb(179,179,179)" stroke-linejoin="round" d="M 17073,14536 L 17073,14424"/>
 <path fill="none" stroke="rgb(179,179,179)" stroke-linejoin="round" d="M 17180,14536 L 17180,14424"/>
 <path fill="none" stroke="rgb(179,179,179)" stroke-linejoin="round" d="M 17180,14536 L 17180,14424"/>
 <path fill="none" stroke="rgb(179,179,179)" stroke-linejoin="round" d="M 17286,14536 L 17286,14424"/>
 <path fill="none" stroke="rgb(179,179,179)" stroke-linejoin="round" d="M 17286,14536 L 17286,14424"/>
 <path fill="none" stroke="rgb(179,179,179)" stroke-linejoin="round" d="M 17393,14536 L 17393,14424"/>
 <path fill="none" stroke="rgb(179,179,179)" stroke-linejoin="round" d="M 17393,14536 L 17393,14424"/>
 <path fill="none" stroke="rgb(179,179,179)" stroke-linejoin="round" d="M 17500,14536 L 17500,14424"/>
 <path fill="none" stroke="rgb(179,179,179)" stroke-linejoin="round" d="M 17500,14536 L 17500,14424"/>
 <path fill="none" stroke="rgb(179,179,179)" stroke-linejoin="round" d="M 17606,14536 L 17606,14424"/>
 <path fill="none" stroke="rgb(179,179,179)" stroke-linejoin="round" d="M 17606,14536 L 17606,14424"/>
 <path fill="none" stroke="rgb(179,179,179)" stroke-linejoin="round" d="M 17713,14536 L 17713,14424"/>
 <path fill="none" stroke="rgb(179,179,179)" stroke-linejoin="round" d="M 17713,14536 L 17713,14424"/>
 <path fill="none" stroke="rgb(179,179,179)" stroke-linejoin="round" d="M 17820,14536 L 17820,14424"/>
 <path fill="none" stroke="rgb(179,179,179)" stroke-linejoin="round" d="M 17820,14536 L 17820,14424"/>
 <path fill="none" stroke="rgb(179,179,179)" stroke-linejoin="round" d="M 17926,14536 L 17926,14424"/>
 <path fill="none" stroke="rgb(179,179,179)" stroke-linejoin="round" d="M 17926,14536 L 17926,14424"/>
 <path fill="none" stroke="rgb(179,179,179)" stroke-linejoin="round" d="M 18033,14536 L 18033,14424"/>
 <path fill="none" stroke="rgb(179,179,179)" stroke-linejoin="round" d="M 18033,14536 L 18033,14424"/>
 <path fill="none" stroke="rgb(179,179,179)" stroke-linejoin="round" d="M 18140,14536 L 18140,14424"/>
 <path fill="none" stroke="rgb(179,179,179)" stroke-linejoin="round" d="M 18140,14536 L 18140,14424"/>
 <path fill="none" stroke="rgb(179,179,179)" stroke-linejoin="round" d="M 18246,14536 L 18246,14424"/>
 <path fill="none" stroke="rgb(179,179,179)" stroke-linejoin="round" d="M 18246,14536 L 18246,14424"/>
 <path fill="none" stroke="rgb(179,179,179)" stroke-linejoin="round" d="M 18353,14536 L 18353,14424"/>
 <path fill="none" stroke="rgb(179,179,179)" stroke-linejoin="round" d="M 18353,14536 L 18353,14424"/>
 <path fill="none" stroke="rgb(179,179,179)" stroke-linejoin="round" d="M 18460,14536 L 18460,14424"/>
 <path fill="none" stroke="rgb(179,179,179)" stroke-linejoin="round" d="M 18460,14536 L 18460,14424"/>
 <path fill="none" stroke="rgb(179,179,179)" stroke-linejoin="round" d="M 18566,14536 L 18566,14424"/>
 <path fill="none" stroke="rgb(179,179,179)" stroke-linejoin="round" d="M 18566,14536 L 18566,14424"/>
 <path fill="none" stroke="rgb(179,179,179)" stroke-linejoin="round" d="M 18673,14536 L 18673,14424"/>
 <path fill="none" stroke="rgb(179,179,179)" stroke-linejoin="round" d="M 18673,14536 L 18673,14424"/>
 <path fill="none" stroke="rgb(179,179,179)" stroke-linejoin="round" d="M 18780,14536 L 18780,14424"/>
 <path fill="none" stroke="rgb(179,179,179)" stroke-linejoin="round" d="M 18780,14536 L 18780,14424"/>
 <path fill="none" stroke="rgb(179,179,179)" stroke-linejoin="round" d="M 18886,14536 L 18886,14424"/>
 <path fill="none" stroke="rgb(179,179,179)" stroke-linejoin="round" d="M 18886,14536 L 18886,14424"/>
 <path fill="none" stroke="rgb(179,179,179)" stroke-linejoin="round" d="M 18993,14536 L 18993,14424"/>
 <path fill="none" stroke="rgb(179,179,179)" stroke-linejoin="round" d="M 18993,14536 L 18993,14424"/>
 <path fill="none" stroke="rgb(179,179,179)" stroke-linejoin="round" d="M 19100,14536 L 19100,14424"/>
 <path fill="none" stroke="rgb(179,179,179)" stroke-linejoin="round" d="M 19100,14536 L 19100,14424"/>
 <path fill="none" stroke="rgb(179,179,179)" stroke-linejoin="round" d="M 19206,14536 L 19206,14424"/>
 <path fill="none" stroke="rgb(179,179,179)" stroke-linejoin="round" d="M 19206,14536 L 19206,14424"/>
 <path fill="none" stroke="rgb(179,179,179)" stroke-linejoin="round" d="M 19313,14536 L 19313,14424"/>
 <path fill="none" stroke="rgb(179,179,179)" stroke-linejoin="round" d="M 19313,14536 L 19313,14424"/>
 <path fill="none" stroke="rgb(179,179,179)" stroke-linejoin="round" d="M 19420,14536 L 19420,14424"/>
 <path fill="none" stroke="rgb(179,179,179)" stroke-linejoin="round" d="M 19420,14536 L 19420,14424"/>
 <path fill="none" stroke="rgb(179,179,179)" stroke-linejoin="round" d="M 19526,14536 L 19526,14424"/>
 <path fill="none" stroke="rgb(179,179,179)" stroke-linejoin="round" d="M 19526,14536 L 19526,14424"/>
 <path fill="none" stroke="rgb(179,179,179)" stroke-linejoin="round" d="M 19633,14536 L 19633,14424"/>
 <path fill="none" stroke="rgb(179,179,179)" stroke-linejoin="round" d="M 19633,14536 L 19633,14424"/>
 <path fill="none" stroke="rgb(179,179,179)" stroke-linejoin="round" d="M 19740,14536 L 19740,14424"/>
 <path fill="none" stroke="rgb(179,179,179)" stroke-linejoin="round" d="M 19740,14536 L 19740,14424"/>
 <path fill="none" stroke="rgb(179,179,179)" stroke-linejoin="round" d="M 19847,14536 L 19847,14424"/>
 <path fill="none" stroke="rgb(179,179,179)" stroke-linejoin="round" d="M 19847,14536 L 19847,14424"/>
 <path fill="none" stroke="rgb(179,179,179)" stroke-linejoin="round" d="M 1714,14424 L 19847,14424"/>
 <path fill="none" stroke="rgb(179,179,179)" stroke-linejoin="round" d="M 1564,14424 L 1714,14424"/>
 <path fill="none" stroke="rgb(179,179,179)" stroke-linejoin="round" d="M 1564,14424 L 1714,14424"/>
 <path fill="none" stroke="rgb(179,179,179)" stroke-linejoin="round" d="M 1564,13140 L 1714,13140"/>
 <path fill="none" stroke="rgb(179,179,179)" stroke-linejoin="round" d="M 1564,13140 L 1714,13140"/>
 <path fill="none" stroke="rgb(179,179,179)" stroke-linejoin="round" d="M 1564,11857 L 1714,11857"/>
 <path fill="none" stroke="rgb(179,179,179)" stroke-linejoin="round" d="M 1564,11857 L 1714,11857"/>
 <path fill="none" stroke="rgb(179,179,179)" stroke-linejoin="round" d="M 1564,10574 L 1714,10574"/>
 <path fill="none" stroke="rgb(179,179,179)" stroke-linejoin="round" d="M 1564,10574 L 1714,10574"/>
 <path fill="none" stroke="rgb(179,179,179)" stroke-linejoin="round" d="M 1564,9291 L 1714,9291"/>
 <path fill="none" stroke="rgb(179,179,179)" stroke-linejoin="round" d="M 1564,9291 L 1714,9291"/>
 <path fill="none" stroke="rgb(179,179,179)" stroke-linejoin="round" d="M 1564,8009 L 1714,8009"/>
 <path fill="none" stroke="rgb(179,179,179)" stroke-linejoin="round" d="M 1564,8009 L 1714,8009"/>
 <path fill="none" stroke="rgb(179,179,179)" stroke-linejoin="round" d="M 1564,6726 L 1714,6726"/>
 <path fill="none" stroke="rgb(179,179,179)" stroke-linejoin="round" d="M 1564,6726 L 1714,6726"/>
 <path fill="none" stroke="rgb(179,179,179)" stroke-linejoin="round" d="M 1564,5443 L 1714,5443"/>
 <path fill="none" stroke="rgb(179,179,179)" stroke-linejoin="round" d="M 1564,5443 L 1714,5443"/>
 <path fill="none" stroke="rgb(179,179,179)" stroke-linejoin="round" d="M 1564,4160 L 1714,4160"/>
 <path fill="none" stroke="rgb(179,179,179)" stroke-linejoin="round" d="M 1564,4160 L 1714,4160"/>
 <path fill="none" stroke="rgb(179,179,179)" stroke-linejoin="round" d="M 1564,2877 L 1714,2877"/>
 <path fill="none" stroke="rgb(179,179,179)" stroke-linejoin="round" d="M 1564,2877 L 1714,2877"/>
 <path fill="none" stroke="rgb(179,179,179)" stroke-linejoin="round" d="M 1564,1594 L 1714,1594"/>
 <path fill="none" stroke="rgb(179,179,179)" stroke-linejoin="round" d="M 1564,1594 L 1714,1594"/>
 <path fill="none" stroke="rgb(179,179,179)" stroke-linejoin="round" d="M 1714,14424 L 1714,1594"/>
 <path fill="none" stroke="rgb(0,69,134)" stroke-width="80" stroke-linejoin="round" d="M 2407,14424 L 2514,14424 2620,14424 2727,14424 2834,14424 2940,14424 3047,14424 3154,10284 3260,10284 3367,5036 3474,5965 3580,2140 3687,6235 3794,6957 3900,6310 4007,4521 4114,4380 4220,3640 4327,6290 4434,6261 4540,6816 4647,6749 4754,6327 4860,6325 4967,6745 5074,6959 5180,7725 5287,8132 5394,8138 5500,8309 5607,8179 5714,8352 5820,8803 5927,8998 6034,9230 6140,9221 6247,9261 6354,9283 6460,9399 6567,9585 6674,9633 6780,9626 6887,9712 6994,9701 7100,9657 7207,9738 7314,9716 7420,9721 7527,9665 7634,9707 7740,9737 7847,9735 7954,9710 8060,9603 8167,9607 8274,9607 8380,9571 8487,9563 8594,9585 8700,9514 8807,9530 8914,9531 9020,9526 9127,9509 9234,9550 9340,9516 9447,9532 9554,9535 9660,9467 9767,9446 9874,9448 9980,9449 10087,9476 10194,9505 10300,9522 10407,9554 10514,9582 10620,9579 10727,9626 10834,9631 10941,9642 11047,9645 11154,9663 11261,9704 11367,9738 11474,9748 11581,9773 11687,9763 11794,9819 11900,9833 12006,9864 12113,9869 12220,9872 12326,9888 12433,9896 12540,9910 12646,9913 12753,9917 12860,9946 12966,9978 13073,9963 13180,9944 13286,9932 13393,9918 13500,9941 13606,9969 13713,9987 13820,9995 13926,10017 14033,10018 14140,10071 14246,10113 14353,10170 14460,10156 14566,10195 14673,10245 14780,10268 14886,10332 14993,10426 15100,10531 15206,10587 15313,10613 15420,10642 15526,10683 15633,10695 15740,10731 15846,10743 15953,10758 16060,10782 16166,10779 16273,10798 16380,10782 16486,10813 16593,10810 16700,10808 16806,10826 16913,10862 17020,10851 17126,10857 17233,10877 17340,10890 17446,10910 17553,10993 17660,11007 17766,11042 17873,11114 17980,11142 18086,11158 18193,11198 18300,11248 18406,11306 18513,11359 18620,11373 18726,11388 18833,11391 18940,11413 19046,11447 19153,11466 19260,11485 19366,11503 19473,11532 19580,11543 19686,11544 19793,11582"/>
 <path fill="none" stroke="rgb(255,66,14)" stroke-width="80" stroke-linejoin="round" d="M 2300,14424 L 2407,14424 2514,14424 2620,14424 2727,14424 2834,14424 2940,14424 3047,14424 3154,10284 3260,11294 3367,10194 3474,6235 3580,6235 3687,8314 3794,8845 3900,7535 4007,6972 4114,5852 4220,7214 4327,7647 4434,7590 4540,7665 4647,7469 4754,7245 4860,7598 4967,7826 5074,8118 5180,8620 5287,8548 5394,8523 5500,8877 5607,8535 5714,8903 5820,9123 5927,9460 6034,9360 6140,9474 6247,9462 6354,9568 6460,9631 6567,9723 6674,9714 6780,9755 6887,9765 6994,9741 7100,9738 7207,9896 7314,9800 7420,9762 7527,9764 7634,9812 7740,9826 7847,9800 7954,9746 8060,9660 8167,9659 8274,9640 8380,9598 8487,9602 8594,9632 8700,9580 8807,9564 8914,9543 9020,9542 9127,9533 9234,9597 9340,9564 9447,9567 9554,9562 9660,9478 9767,9464 9874,9480 9980,9476 10087,9505 10194,9553 10300,9554 10407,9582 10514,9594 10620,9641 10727,9660 10834,9671 10941,9660 11047,9677 11154,9704 11261,9738 11367,9763 11474,9773 11581,9792 11687,9791 11794,9847 11900,9850 12006,9883 12113,9885 12220,9902 12326,9924 12433,9923 12540,9926 12646,9931 12753,9946 12860,9978 12966,10002 13073,9996 13180,9958 13286,9969 13393,9941 13500,9956 13606,9987 13713,10007 13820,10017 13926,10067 14033,10071 14140,10088 14246,10133 14353,10180 14460,10207 14566,10245 14673,10280 14780,10332 14886,10426 14993,10531 15100,10598 15206,10635 15313,10642 15420,10683 15526,10726 15633,10731 15740,10753 15846,10758 15953,10792 16060,10819 16166,10808 16273,10821 16380,10813 16486,10830 16593,10828 16700,10836 16806,10862 16913,10898 17020,10885 17126,10886 17233,10899 17340,10929 17446,10966 17553,11051 17660,11060 17766,11105 17873,11142 17980,11166 18086,11198 18193,11256 18300,11306 18406,11359 18513,11397 18620,11396 18726,11407 18833,11428 18940,11462 19046,11488 19153,11500 19260,11539 19366,11532 19473,11550 19580,11565 19686,11589 19793,11625"/>
 <path fill="none" stroke="rgb(255,211,32)" stroke-width="80" stroke-linejoin="round" d="M 2194,14424 L 2300,14424 2407,14424 2514,14424 2620,14424 2727,14424 2834,14424 2940,14424 3047,14424 3154,11294 3260,13014 3367,10329 3474,8964 3580,8314 3687,9859 3794,9687 3900,9239 4007,8063 4114,8692 4220,8416 4327,8749 4434,8352 4540,8299 4647,8257 4754,8373 4860,8558 4967,8850 5074,8961 5180,9003 5287,8908 5394,9071 5500,9193 5607,9069 5714,9217 5820,9575 5927,9584 6034,9607 6140,9667 6247,9737 6354,9792 6460,9767 6567,9802 6674,9840 6780,9807 6887,9804 6994,9820 7100,9896 7207,9976 7314,9840 7420,9859 7527,9868 7634,9899 7740,9890 7847,9835 7954,9801 8060,9711 8167,9692 8274,9667 8380,9636 8487,9649 8594,9697 8700,9614 8807,9576 8914,9559 9020,9566 9127,9581 9234,9644 9340,9598 9447,9594 9554,9573 9660,9495 9767,9496 9874,9507 9980,9505 10087,9553 10194,9585 10300,9582 10407,9594 10514,9656 10620,9675 10727,9701 10834,9689 10941,9692 11047,9718 11154,9738 11261,9763 11367,9787 11474,9792 11581,9819 11687,9819 11794,9864 11900,9869 12006,9899 12113,9915 12220,9937 12326,9950 12433,9940 12540,9944 12646,9959 12753,9978 12860,10002 12966,10035 13073,10010 13180,9995 13286,9993 13393,9956 13500,9974 13606,10007 13713,10029 13820,10067 13926,10120 14033,10088 14140,10109 14246,10144 14353,10231 14460,10256 14566,10280 14673,10343 14780,10426 14886,10531 14993,10598 15100,10645 15206,10663 15313,10683 15420,10726 15526,10762 15633,10753 15740,10768 15846,10792 15953,10829 16060,10848 16166,10831 16273,10853 16380,10830 16486,10847 16593,10855 16700,10872 16806,10898 16913,10931 17020,10914 17126,10909 17233,10938 17340,10984 17446,11024 17553,11103 17660,11122 17766,11134 17873,11166 17980,11207 18086,11256 18193,11314 18300,11359 18406,11397 18513,11419 18620,11414 18726,11444 18833,11477 18940,11503 19046,11522 19153,11553 19260,11567 19366,11550 19473,11572 19580,11609 19686,11632 19793,11672"/>
 <path fill="none" stroke="rgb(87,157,28)" stroke-width="80" stroke-linejoin="round" d="M 2087,14424 L 2194,14424 2300,14424 2407,14424 2514,14424 2620,14424 2727,14424 2834,14424 2940,14424 3047,14424 3154,13014 3260,13059 3367,11694 3474,10350 3580,9859 3687,10548 3794,10859 3900,9999 4007,10171 4114,9648 4220,9394 4327,9383 4434,8922 4540,8993 4647,9226 4754,9224 4860,9469 4967,9595 5074,9322 5180,9336 5287,9420 5394,9376 5500,9668 5607,9374 5714,9661 5820,9696 5927,9820 6034,9794 6140,9931 6247,9954 6354,9924 6460,9847 6567,9926 6674,9892 6780,9846 6887,9882 6994,9976 7100,9976 7207,10014 7314,9935 7420,9961 7527,9954 7634,9962 7740,9925 7847,9890 7954,9851 8060,9744 8167,9719 8274,9704 8380,9683 8487,9713 8594,9730 8700,9625 8807,9592 8914,9583 9020,9614 9127,9628 9234,9678 9340,9626 9447,9605 9554,9590 9660,9527 9767,9523 9874,9536 9980,9553 10087,9585 10194,9613 10300,9594 10407,9656 10514,9690 10620,9715 10727,9719 10834,9721 10941,9733 11047,9752 11154,9763 11261,9787 11367,9806 11474,9819 11581,9847 11687,9836 11794,9883 11900,9885 12006,9929 12113,9951 12220,9964 12326,9967 12433,9957 12540,9972 12646,9991 12753,10002 12860,10035 12966,10049 13073,10047 13180,10019 13286,10007 13393,9974 13500,9995 13606,10029 13713,10080 13820,10120 13926,10137 14033,10109 14140,10119 14246,10195 14353,10280 14460,10292 14566,10343 14673,10437 14780,10531 14886,10598 14993,10645 15100,10674 15206,10704 15313,10726 15420,10762 15526,10784 15633,10768 15740,10802 15846,10829 15953,10858 16060,10871 16166,10862 16273,10869 16380,10847 16486,10875 16593,10891 16700,10908 16806,10931 16913,10960 17020,10936 17126,10947 17233,10993 17340,11042 17446,11077 17553,11165 17660,11151 17766,11158 17873,11207 17980,11264 18086,11314 18193,11367 18300,11397 18406,11419 18513,11437 18620,11451 18726,11492 18833,11518 18940,11536 19046,11575 19153,11581 19260,11585 19366,11572 19473,11616 19580,11652 19686,11679 19793,11713"/>
 <path fill="none" stroke="rgb(126,0,33)" stroke-width="80" stroke-linejoin="round" d="M 1980,14424 L 2087,14424 2194,14424 2300,14424 2407,14424 2514,14424 2620,14424 2727,14424 2834,14424 2940,14424 3047,14424 3154,13059 3260,13514 3367,12387 3474,11381 3580,10548 3687,11507 3794,11382 3900,11465 4007,10881 4114,10426 4220,9956 4327,9856 4434,9545 4540,9847 4647,9958 4754,10032 4860,10132 4967,9914 5074,9635 5180,9808 5287,9705 5394,9834 5500,9938 5607,9804 5714,9780 5820,9927 5927,9999 6034,10051 6140,10138 6247,10081 6354,10001 6460,9969 6567,9976 6674,9930 6780,9924 6887,10035 6994,10054 7100,10014 7207,10106 7314,10035 7420,10045 7527,10016 7634,9996 7740,9978 7847,9938 7954,9883 8060,9770 8167,9756 8274,9751 8380,9747 8487,9747 8594,9741 8700,9641 8807,9615 8914,9630 9020,9661 9127,9662 9234,9705 9340,9637 9447,9622 9554,9621 9660,9554 9767,9551 9874,9584 9980,9585 10087,9613 10194,9624 10300,9656 10407,9690 10514,9730 10620,9733 10727,9750 10834,9762 10941,9767 11047,9777 11154,9787 11261,9806 11367,9833 11474,9847 11581,9864 11687,9855 11794,9899 11900,9915 12006,9964 12113,9977 12220,9980 12326,9984 12433,9986 12540,10004 12646,10015 12753,10035 12860,10049 12966,10085 13073,10070 13180,10033 13286,10025 13393,9995 13500,10017 13606,10080 13713,10133 13820,10137 13926,10158 14033,10119 14140,10171 14246,10245 14353,10316 14460,10355 14566,10437 14673,10542 14780,10598 14886,10645 14993,10674 15100,10715 15206,10747 15313,10762 15420,10784 15526,10799 15633,10802 15740,10839 15846,10858 15953,10880 16060,10901 16166,10878 16273,10886 16380,10875 16486,10910 16593,10926 16700,10941 16806,10960 16913,10982 17020,10974 17126,11002 17233,11051 17340,11094 17446,11139 17553,11193 17660,11175 17766,11198 17873,11264 17980,11322 18086,11367 18193,11404 18300,11419 18406,11437 18513,11474 18620,11499 18726,11532 18833,11551 18940,11589 19046,11602 19153,11599 19260,11607 19366,11616 19473,11659 19580,11699 19686,11720 19793,11740"/>
 <path fill="none" stroke="rgb(131,202,255)" stroke-width="80" stroke-linejoin="round" d="M 1874,14424 L 1980,14424 2087,14424 2194,14424 2300,14424 2407,14424 2514,14424 2620,14424 2727,14424 2834,14424 2940,14424 3047,14424 3154,13514 3260,13745 3367,12902 3474,11840 3580,11507 3687,11935 3794,12390 3900,11959 4007,11458 4114,10872 4220,10375 4327,10374 4434,10312 4540,10491 4647,10651 4754,10620 4860,10415 4967,10191 5074,10079 5180,10071 5287,10133 5394,10095 5500,10321 5607,9920 5714,10006 5820,10101 5927,10245 6034,10253 6140,10260 6247,10155 6354,10119 6460,10019 6567,10014 6674,10006 6780,10075 6887,10113 6994,10092 7100,10106 7207,10202 7314,10118 7420,10106 7527,10049 7634,10048 7740,10025 7847,9970 7954,9908 8060,9807 8167,9802 8274,9814 8380,9780 8487,9758 8594,9757 8700,9665 8807,9662 8914,9677 9020,9694 9127,9690 9234,9716 9340,9653 9447,9653 9554,9648 9660,9582 9767,9599 9874,9615 9980,9613 10087,9624 10194,9686 10300,9690 10407,9730 10514,9748 10620,9765 10727,9790 10834,9795 10941,9791 11047,9802 11154,9806 11261,9833 11367,9861 11474,9864 11581,9883 11687,9872 11794,9929 11900,9951 12006,9991 12113,9993 12220,9998 12326,10012 12433,10017 12540,10029 12646,10048 12753,10049 12860,10085 12966,10108 13073,10084 13180,10050 13286,10045 13393,10017 13500,10067 13606,10133 13713,10150 13820,10158 13926,10168 14033,10171 14140,10221 14246,10280 14353,10378 14460,10449 14566,10542 14673,10608 14780,10645 14886,10674 14993,10715 15100,10757 15206,10783 15313,10784 15420,10799 15526,10833 15633,10839 15740,10868 15846,10880 15953,10911 16060,10917 16166,10895 16273,10913 16380,10910 16486,10945 16593,10959 16700,10969 16806,10982 16913,11020 17020,11029 17126,11059 17233,11103 17340,11156 17446,11168 17553,11217 17660,11215 17766,11256 17873,11322 17980,11375 18086,11404 18193,11427 18300,11437 18406,11474 18513,11521 18620,11539 18726,11565 18833,11603 18940,11616 19046,11620 19153,11621 19260,11650 19366,11659 19473,11705 19580,11739 19686,11746 19793,11756"/>
 <path fill="none" stroke="rgb(49,64,4)" stroke-width="80" stroke-linejoin="round" d="M 1767,14424 L 1874,14424 1980,14424 2087,14424 2194,14424 2300,14424 2407,14424 2514,14424 2620,14424 2727,14424 2834,14424 2940,14424 3047,14424 3154,13745 3260,13916 3367,13132 3474,12479 3580,11935 3687,12760 3794,12729 3900,12360 4007,11789 4114,11205 4220,10834 4327,11010 4434,10891 4540,11102 4647,11156 4754,10871 4860,10661 4967,10584 5074,10327 5180,10466 5287,10378 5394,10464 5500,10423 5607,10139 5714,10178 5820,10341 5927,10438 6034,10372 6140,10331 6247,10269 6354,10167 6460,10056 6567,10089 6674,10155 6780,10152 6887,10150 6994,10182 7100,10202 7207,10282 7314,10178 7420,10139 7527,10101 7634,10095 7740,10056 7847,9994 7954,9944 8060,9852 8167,9864 8274,9846 8380,9791 8487,9773 8594,9779 8700,9711 8807,9709 8914,9710 9020,9721 9127,9700 9234,9732 9340,9684 9447,9679 9554,9675 9660,9630 9767,9631 9874,9643 9980,9624 10087,9686 10194,9720 10300,9730 10407,9748 10514,9779 10620,9805 10727,9824 10834,9820 10941,9816 11047,9820 11154,9833 11261,9861 11367,9878 11474,9883 11581,9899 11687,9902 11794,9964 11900,9977 12006,10007 12113,10011 12220,10026 12326,10044 12433,10042 12540,10061 12646,10062 12753,10085 12860,10108 12966,10123 13073,10101 13180,10071 13286,10067 13393,10067 13500,10120 13606,10150 13713,10170 13820,10168 13926,10219 14033,10221 14140,10257 14246,10343 14353,10471 14460,10553 14566,10608 14673,10656 14780,10674 14886,10715 14993,10757 15100,10793 15206,10804 15313,10799 15420,10833 15526,10869 15633,10868 15740,10890 15846,10911 15953,10927 16060,10934 16166,10923 16273,10948 16380,10945 16486,10978 16593,10988 16700,10991 16806,11020 16913,11073 17020,11086 17126,11112 17233,11165 17340,11185 17446,11191 17553,11256 17660,11272 17766,11314 17873,11375 17980,11412 18086,11427 18193,11445 18300,11474 18406,11521 18513,11561 18620,11572 18726,11617 18833,11630 18940,11634 19046,11641 19153,11664 19260,11692 19366,11705 19473,11746 19580,11766 19686,11763 19793,11781"/>
 <path fill="none" stroke="rgb(174,207,0)" stroke-width="80" stroke-linejoin="round" d="M 1767,14424 L 1874,14424 1980,14424 2087,14424 2194,14424 2300,14424 2407,14424 2514,14424 2620,14424 2727,14424 2834,14424 2940,14424 3047,14424 3154,13916 3260,13993 3367,13451 3474,12764 3580,12760 3687,13037 3794,13005 3900,12591 4007,12036 4114,11570 4220,11398 4327,11491 4434,11440 4540,11546 4647,11372 4754,11089 4860,11010 4967,10802 5074,10699 5180,10691 5287,10722 5394,10563 5500,10618 5607,10306 5714,10414 5820,10530 5927,10551 6034,10441 6140,10440 6247,10315 6354,10203 6460,10130 6567,10235 6674,10231 6780,10189 6887,10239 6994,10277 7100,10282 7207,10340 7314,10210 7420,10189 7527,10148 7634,10126 7740,10080 7847,10029 7954,9988 8060,9914 8167,9896 8274,9857 8380,9806 8487,9796 8594,9825 8700,9757 8807,9742 8914,9737 9020,9732 9127,9716 9234,9763 9340,9710 9447,9706 9554,9722 9660,9661 9767,9658 9874,9654 9980,9686 10087,9720 10194,9760 10300,9748 10407,9779 10514,9819 10620,9838 10727,9848 10834,9844 10941,9834 11047,9847 11154,9861 11261,9878 11367,9896 11474,9899 11581,9929 11687,9937 11794,9991 11900,9993 12006,10024 12113,10039 12220,10057 12326,10068 12433,10074 12540,10075 12646,10098 12753,10108 12860,10123 12966,10140 13073,10122 13180,10093 13286,10117 13393,10120 13500,10137 13606,10170 13713,10180 13820,10219 13926,10268 14033,10257 14140,10320 14246,10437 14353,10575 14460,10619 14566,10656 14673,10685 14780,10715 14886,10757 14993,10793 15100,10815 15206,10819 15313,10833 15420,10869 15526,10898 15633,10890 15740,10921 15846,10927 15953,10944 16060,10961 16166,10957 16273,10983 16380,10978 16486,11006 16593,11010 16700,11029 16806,11073 16913,11130 17020,11138 17126,11173 17233,11193 17340,11208 17446,11231 17553,11313 17660,11330 17766,11367 17873,11412 17980,11435 18086,11445 18193,11481 18300,11521 18406,11561 18513,11594 18620,11624 18726,11644 18833,11648 18940,11655 19046,11684 19153,11706 19260,11738 19366,11746 19473,11772 19580,11782 19686,11788 19793,11818"/>
 <path fill="none" stroke="rgb(75,31,111)" stroke-width="80" stroke-linejoin="round" d="M 1767,14424 L 1874,14424 1980,14424 2087,14424 2194,14424 2300,14424 2407,14424 2514,14424 2620,14424 2727,14424 2834,14424 2940,14424 3047,14424 3154,13993 3260,14099 3367,13594 3474,13314 3580,13037 3687,13263 3794,13163 3900,12763 4007,12306 4114,12019 4220,11824 4327,11946 4434,11839 4540,11736 4647,11559 4754,11398 4860,11205 4967,11131 5074,10911 5180,11009 5287,10815 5394,10751 5500,10766 5607,10535 5714,10599 5820,10640 5927,10617 6034,10547 6140,10485 6247,10350 6354,10274 6460,10275 6567,10309 6674,10267 6780,10277 6887,10332 6994,10355 7100,10340 7207,10371 7314,10260 7420,10235 7527,10178 7634,10149 7740,10115 7847,10073 7954,10047 8060,9946 8167,9907 8274,9872 8380,9829 8487,9841 8594,9870 8700,9790 8807,9769 8914,9748 9020,9748 9127,9747 9234,9788 9340,9737 9447,9753 9554,9753 9660,9689 9767,9670 9874,9716 9980,9720 10087,9760 10194,9777 10300,9779 10407,9819 10514,9853 10620,9862 10727,9872 10834,9862 10941,9861 11047,9875 11154,9878 11261,9896 11367,9913 11474,9929 11581,9964 11687,9964 11794,10007 11900,10011 12006,10052 12113,10070 12220,10081 12326,10100 12433,10088 12540,10111 12646,10121 12753,10123 12860,10140 12966,10160 13073,10143 13180,10142 13286,10170 13393,10137 13500,10158 13606,10180 13713,10231 13820,10268 13926,10304 14033,10320 14140,10415 14246,10542 14353,10641 14460,10667 14566,10685 14673,10725 14780,10757 14886,10793 14993,10815 15100,10829 15206,10853 15313,10869 15420,10898 15526,10920 15633,10921 15740,10937 15846,10944 15953,10971 16060,10996 16166,10992 16273,11015 16380,11006 16486,11028 16593,11047 16700,11082 16806,11130 16913,11181 17020,11199 17126,11201 17233,11217 17340,11248 17446,11289 17553,11370 17660,11382 17766,11404 17873,11435 17980,11453 18086,11481 18193,11529 18300,11561 18406,11594 18513,11646 18620,11651 18726,11662 18833,11669 18940,11698 19046,11726 19153,11752 19260,11778 19366,11772 19473,11788 19580,11807 19686,11824 19793,11857"/>
 <path fill="none" stroke="rgb(255,149,14)" stroke-width="80" stroke-linejoin="round" d="M 1767,14424 L 1874,14424 1980,14424 2087,14424 2194,14424 2300,14424 2407,14424 2514,14424 2620,14424 2727,14424 2834,14424 2940,14424 3047,14424 3154,14099 3260,14147 3367,13869 3474,13499 3580,13263 3687,13392 3794,13282 3900,12951 4007,12639 4114,12357 4220,12228 4327,12278 4434,12009 4540,11901 4647,11825 4754,11571 4860,11497 4967,11318 5074,11210 5180,11095 5287,10991 5394,10894 5500,10969 5607,10714 5714,10708 5820,10705 5927,10718 6034,10591 6140,10518 6247,10419 6354,10414 6460,10348 6567,10345 6674,10353 6780,10370 6887,10410 6994,10412 7100,10371 7207,10419 7314,10305 7420,10264 7527,10201 7634,10183 7740,10157 7847,10131 7954,10079 8060,9956 8167,9922 8274,9894 8380,9874 8487,9886 8594,9902 8700,9817 8807,9779 8914,9764 9020,9778 9127,9772 9234,9815 9340,9783 9447,9783 9554,9780 9660,9700 9767,9731 9874,9749 9980,9760 10087,9777 10194,9808 10300,9819 10407,9853 10514,9877 10620,9887 10727,9890 10834,9889 10941,9889 11047,9892 11154,9896 11261,9913 11367,9943 11474,9964 11581,9991 11687,9980 11794,10024 11900,10039 12006,10083 12113,10094 12220,10113 12326,10114 12433,10124 12540,10134 12646,10135 12753,10140 12860,10160 12966,10181 13073,10192 13180,10194 13286,10187 13393,10158 13500,10168 13606,10231 13713,10280 13820,10304 13926,10367 14033,10415 14140,10520 14246,10608 14353,10688 14460,10695 14566,10725 14673,10768 14780,10793 14886,10815 14993,10829 15100,10863 15206,10889 15313,10898 15420,10920 15526,10950 15633,10937 15740,10954 15846,10971 15953,11005 16060,11030 16166,11025 16273,11043 16380,11028 16486,11065 16593,11100 16700,11139 16806,11181 16913,11241 17020,11227 17126,11225 17233,11256 17340,11305 17446,11346 17553,11422 17660,11420 17766,11427 17873,11453 17980,11489 18086,11529 18193,11569 18300,11594 18406,11646 18513,11672 18620,11669 18726,11683 18833,11712 18940,11740 19046,11771 19153,11791 19260,11805 19366,11788 19473,11813 19580,11843 19686,11863 19793,11887"/>
 <path fill="none" stroke="rgb(197,0,11)" stroke-width="80" stroke-linejoin="round" d="M 1767,14424 L 1874,14424 1980,14424 2087,14424 2194,14424 2300,14424 2407,14424 2514,14424 2620,14424 2727,14424 2834,14424 2940,14424 3047,14424 3154,14147 3260,14239 3367,13961 3474,13650 3580,13392 3687,13489 3794,13411 3900,13182 4007,12890 4114,12678 4220,12522 4327,12419 4434,12157 4540,12135 4647,11973 4754,11829 4860,11663 4967,11583 5074,11291 5180,11257 5287,11124 5394,11090 5500,11129 5607,10820 5714,10771 5820,10804 5927,10760 6034,10623 6140,10584 6247,10554 6354,10485 6460,10383 6567,10429 6674,10444 6780,10446 6887,10466 6994,10442 7100,10419 7207,10462 7314,10334 7420,10287 7527,10234 7634,10225 7740,10214 7847,10161 7954,10089 8060,9971 8167,9944 8274,9939 8380,9918 8487,9918 8594,9928 8700,9827 8807,9795 8914,9794 9020,9804 9127,9799 9234,9860 9340,9814 9447,9810 9554,9791 9660,9761 9767,9764 9874,9789 9980,9777 10087,9808 10194,9848 10300,9853 10407,9877 10514,9901 10620,9905 10727,9917 10834,9917 10941,9906 11047,9910 11154,9913 11261,9943 11367,9978 11474,9991 11581,10007 11687,9998 11794,10052 11900,10070 12006,10107 12113,10126 12220,10127 12326,10150 12433,10147 12540,10148 12646,10152 12753,10160 12860,10181 12966,10230 13073,10243 13180,10211 13286,10207 13393,10168 13500,10219 13606,10280 13713,10316 13820,10367 13926,10460 14033,10520 14140,10587 14246,10656 14353,10717 14460,10736 14566,10768 14673,10803 14780,10815 14886,10829 14993,10863 15100,10899 15206,10918 15313,10920 15420,10950 15526,10966 15633,10954 15740,10980 15846,11005 15953,11039 16060,11062 16166,11053 16273,11065 16380,11065 16486,11118 16593,11156 16700,11190 16806,11241 16913,11269 17020,11250 17126,11265 17233,11313 17340,11362 17446,11398 17553,11458 17660,11442 17766,11445 17873,11489 17980,11536 18086,11569 18193,11601 18300,11646 18406,11672 18513,11690 18620,11690 18726,11725 18833,11753 18940,11785 19046,11811 19153,11817 19260,11820 19366,11813 19473,11849 19580,11882 19686,11893 19793,11947"/>
 <path fill="none" stroke="rgb(0,132,209)" stroke-width="80" stroke-linejoin="round" d="M 1767,14424 L 1874,14424 1980,14424 2087,14424 2194,14424 2300,14424 2407,14424 2514,14424 2620,14424 2727,14424 2834,14424 2940,14424 3047,14424 3154,14239 3260,14269 3367,14037 3474,13736 3580,13489 3687,13595 3794,13570 3900,13357 4007,13129 4114,12912 4220,12647 4327,12542 4434,12368 4540,12265 4647,12195 4754,11977 4860,11899 4967,11654 5074,11443 5180,11380 5287,11308 5394,11244 5500,11222 5607,10881 5714,10868 5820,10845 5927,10791 6034,10687 6140,10714 6247,10623 6354,10519 6460,10467 6567,10518 6674,10519 6780,10502 6887,10496 6994,10489 7100,10462 7207,10490 7314,10356 7420,10320 7527,10276 7634,10281 7740,10244 7847,10171 7954,10103 8060,9993 8167,9987 8274,9982 8380,9950 8487,9944 8594,9938 8700,9843 8807,9825 8914,9819 9020,9830 9127,9845 9234,9890 9340,9840 9447,9821 9554,9851 9660,9794 9767,9804 9874,9806 9980,9808 10087,9848 10194,9881 10300,9877 10407,9901 10514,9919 10620,9931 10727,9945 10834,9933 10941,9924 11047,9927 11154,9943 11261,9978 11367,10004 11474,10007 11581,10024 11687,10026 11794,10083 11900,10094 12006,10140 12113,10140 12220,10163 12326,10173 12433,10161 12540,10165 12646,10172 12753,10181 12860,10230 12966,10280 13073,10260 13180,10231 13286,10217 13393,10219 13500,10268 13606,10316 13713,10378 13820,10460 13926,10564 14033,10587 14140,10635 14246,10685 14353,10757 14460,10778 14566,10803 14673,10825 14780,10829 14886,10863 14993,10899 15100,10927 15206,10940 15313,10950 15420,10966 15526,10983 15633,10980 15740,11015 15846,11039 15953,11071 16060,11090 16166,11074 16273,11102 16380,11118 16486,11174 16593,11207 16700,11250 16806,11269 16913,11292 17020,11289 17126,11321 17233,11370 17340,11414 17446,11435 17553,11481 17660,11460 17766,11481 17873,11536 17980,11576 18086,11601 18193,11653 18300,11672 18406,11690 18513,11711 18620,11732 18726,11766 18833,11798 18940,11824 19046,11837 19153,11833 19260,11845 19366,11849 19473,11888 19580,11912 19686,11953 19793,11974"/>
 <path fill="none" stroke="rgb(0,69,134)" stroke-width="80" stroke-linejoin="round" d="M 1767,14424 L 1874,14424 1980,14424 2087,14424 2194,14424 2300,14424 2407,14424 2514,14424 2620,14424 2727,14424 2834,14424 2940,14424 3047,14424 3154,14269 3260,14295 3367,14080 3474,13801 3580,13595 3687,13725 3794,13690 3900,13523 4007,13302 4114,13011 4220,12756 4327,12717 4434,12485 4540,12461 4647,12322 4754,12186 4860,11962 4967,11789 5074,11559 5180,11549 5287,11451 5394,11334 5500,11277 5607,10975 5714,10908 5820,10875 5927,10852 6034,10813 6140,10779 6247,10655 6354,10600 6460,10556 6567,10592 6674,10573 6780,10532 6887,10542 6994,10532 7100,10490 7207,10511 7314,10388 7420,10360 7527,10331 7634,10311 7740,10254 7847,10186 7954,10124 8060,10036 8167,10031 8274,10014 8380,9975 8487,9954 8594,9953 8700,9872 8807,9850 8914,9846 9020,9876 9127,9875 9234,9916 9340,9851 9447,9880 9554,9883 9660,9833 9767,9821 9874,9837 9980,9848 10087,9881 10194,9905 10300,9901 10407,9919 10514,9945 10620,9959 10727,9961 10834,9952 10941,9941 11047,9956 11154,9978 11261,10004 11367,10020 11474,10024 11581,10052 11687,10057 11794,10107 11900,10126 12006,10153 12113,10176 12220,10185 12326,10187 12433,10178 12540,10185 12646,10194 12753,10230 12860,10280 12966,10297 13073,10280 13180,10241 13286,10267 13393,10268 13500,10304 13606,10378 13713,10471 13820,10564 13926,10630 14033,10635 14140,10663 14246,10725 14353,10799 14460,10813 14566,10825 14673,10839 14780,10863 14886,10899 14993,10927 15100,10950 15206,10970 15313,10966 15420,10983 15526,11009 15633,11015 15740,11049 15846,11071 15953,11099 16060,11111 16166,11111 16273,11154 16380,11174 16486,11224 16593,11267 16700,11277 16806,11292 16913,11331 17020,11345 17126,11378 17233,11422 17340,11451 17446,11458 17553,11498 17660,11496 17766,11529 17873,11576 17980,11609 18086,11653 18193,11679 18300,11690 18406,11711 18513,11753 18620,11773 18726,11811 18833,11837 18940,11850 19046,11852 19153,11858 19260,11880 19366,11888 19473,11918 19580,11971 19686,11980 19793,11989"/>
 <path fill="none" stroke="rgb(255,66,14)" stroke-width="80" stroke-linejoin="round" d="M 1767,14424 L 1874,14424 1980,14424 2087,14424 2194,14424 2300,14424 2407,14424 2514,14424 2620,14424 2727,14424 2834,14424 2940,14424 3047,14424 3154,14295 3260,14309 3367,14112 3474,13871 3580,13725 3687,13824 3794,13804 3900,13643 4007,13376 4114,13098 4220,12911 4327,12814 4434,12661 4540,12573 4647,12501 4754,12242 4860,12082 4967,11892 5074,11718 5180,11682 5287,11536 5394,11387 5500,11361 5607,11014 5714,10938 5820,10935 5927,10973 6034,10877 6140,10811 6247,10734 6354,10686 6460,10629 6567,10645 6674,10603 6780,10578 6887,10584 6994,10559 7100,10511 7207,10542 7314,10428 7420,10415 7527,10360 7634,10320 7740,10268 7847,10206 7954,10166 8060,10079 8167,10062 8274,10039 8380,9985 8487,9969 8594,9982 8700,9897 8807,9877 8914,9891 9020,9905 9127,9901 9234,9927 9340,9910 9447,9913 9554,9921 9660,9850 9767,9852 9874,9877 9980,9881 10087,9905 10194,9929 10300,9919 10407,9945 10514,9973 10620,9975 10727,9979 10834,9968 10941,9970 11047,9992 11154,10004 11261,10020 11367,10038 11474,10052 11581,10083 11687,10081 11794,10140 11900,10140 12006,10189 12113,10198 12220,10199 12326,10203 12433,10198 12540,10206 12646,10242 12753,10280 12860,10297 12966,10317 13073,10290 13180,10291 13286,10316 13393,10304 13500,10367 13606,10471 13713,10575 13820,10630 13926,10677 14033,10663 14140,10704 14246,10768 14353,10834 14460,10835 14566,10839 14673,10873 14780,10899 14886,10927 14993,10950 15100,10980 15206,10985 15313,10983 15420,11009 15526,11043 15633,11049 15740,11081 15846,11099 15953,11120 16060,11147 16166,11163 16273,11209 16380,11224 16486,11284 16593,11294 16700,11300 16806,11331 16913,11386 17020,11402 17126,11430 17233,11458 17340,11473 17446,11475 17553,11534 17660,11543 17766,11569 17873,11609 17980,11660 18086,11679 18193,11697 18300,11711 18406,11753 18513,11793 18620,11818 18726,11850 18833,11863 18940,11865 19046,11877 19153,11893 19260,11919 19366,11918 19473,11976 19580,11997 19686,11995 19793,12017"/>
 <path fill="none" stroke="rgb(255,211,32)" stroke-width="80" stroke-linejoin="round" d="M 1767,14424 L 1874,14424 1980,14424 2087,14424 2194,14424 2300,14424 2407,14424 2514,14424 2620,14424 2727,14424 2834,14424 2940,14424 3047,14424 3154,14309 3260,14320 3367,14147 3474,13958 3580,13824 3687,13917 3794,13887 3900,13695 4007,13440 4114,13221 4220,12997 4327,12960 4434,12761 4540,12731 4647,12549 4754,12348 4860,12173 4967,12032 5074,11843 5180,11760 5287,11585 5394,11468 5500,11395 5607,11043 5714,10997 5820,11053 5927,11034 6034,10908 6140,10886 6247,10816 6354,10756 6460,10681 6567,10674 6674,10648 6780,10619 6887,10611 6994,10580 7100,10542 7207,10580 7314,10482 7420,10443 7527,10370 7634,10334 7740,10288 7847,10247 7954,10208 8060,10110 8167,10087 8274,10049 8380,10001 8487,9998 8594,10007 8700,9924 8807,9922 8914,9921 9020,9932 9127,9912 9234,9985 9340,9942 9447,9951 9554,9938 9660,9881 9767,9892 9874,9910 9980,9905 10087,9929 10194,9947 10300,9945 10407,9973 10514,9989 10620,9993 10727,9996 10834,9998 10941,10005 11047,10018 11154,10020 11261,10038 11367,10066 11474,10083 11581,10107 11687,10113 11794,10153 11900,10176 12006,10211 12113,10212 12220,10216 12326,10223 12433,10219 12540,10255 12646,10293 12753,10297 12860,10317 12966,10327 13073,10339 13180,10340 13286,10351 13393,10367 13500,10460 13606,10575 13713,10641 13820,10677 13926,10706 14033,10704 14140,10747 14246,10803 14353,10856 14460,10850 14566,10873 14673,10909 14780,10927 14886,10950 14993,10980 15100,10995 15206,11002 15313,11009 15420,11043 15526,11077 15633,11081 15740,11108 15846,11120 15953,11156 16060,11199 16166,11218 16273,11259 16380,11284 16486,11311 16593,11317 16700,11339 16806,11386 16913,11442 17020,11453 17126,11466 17233,11481 17340,11491 17446,11511 17553,11581 17660,11583 17766,11601 17873,11660 17980,11686 18086,11697 18193,11718 18300,11753 18406,11793 18513,11838 18620,11856 18726,11875 18833,11878 18940,11889 19046,11912 19153,11931 19260,11948 19366,11976 19473,12003 19580,12012 19686,12023 19793,12056"/>
 <text class="TextShape" transform="rotate(-90 1861 15395)"><tspan class="TextParagraph" font-family="Liberation Sans, sans-serif" font-size="282px" font-weight="400"><tspan class="TextPosition" x="1861" y="15395"><tspan fill="rgb(0,0,0)" stroke="none">09.03</tspan></tspan></tspan></text>
 <text class="TextShape" transform="rotate(-90 2608 15395)"><tspan class="TextParagraph" font-family="Liberation Sans, sans-serif" font-size="282px" font-weight="400"><tspan class="TextPosition" x="2608" y="15395"><tspan fill="rgb(0,0,0)" stroke="none">16.03</tspan></tspan></tspan></text>
 <text class="TextShape" transform="rotate(-90 3354 15395)"><tspan class="TextParagraph" font-family="Liberation Sans, sans-serif" font-size="282px" font-weight="400"><tspan class="TextPosition" x="3354" y="15395"><tspan fill="rgb(0,0,0)" stroke="none">23.03</tspan></tspan></tspan></text>
 <text class="TextShape" transform="rotate(-90 4101 15395)"><tspan class="TextParagraph" font-family="Liberation Sans, sans-serif" font-size="282px" font-weight="400"><tspan class="TextPosition" x="4101" y="15395"><tspan fill="rgb(0,0,0)" stroke="none">30.03</tspan></tspan></tspan></text>
 <text class="TextShape" transform="rotate(-90 4848 15395)"><tspan class="TextParagraph" font-family="Liberation Sans, sans-serif" font-size="282px" font-weight="400"><tspan class="TextPosition" x="4848" y="15395"><tspan fill="rgb(0,0,0)" stroke="none">06.04</tspan></tspan></tspan></text>
 <text class="TextShape" transform="rotate(-90 5594 15395)"><tspan class="TextParagraph" font-family="Liberation Sans, sans-serif" font-size="282px" font-weight="400"><tspan class="TextPosition" x="5594" y="15395"><tspan fill="rgb(0,0,0)" stroke="none">13.04</tspan></tspan></tspan></text>
 <text class="TextShape" transform="rotate(-90 6341 15395)"><tspan class="TextParagraph" font-family="Liberation Sans, sans-serif" font-size="282px" font-weight="400"><tspan class="TextPosition" x="6341" y="15395"><tspan fill="rgb(0,0,0)" stroke="none">20.04</tspan></tspan></tspan></text>
 <text class="TextShape" transform="rotate(-90 7088 15395)"><tspan class="TextParagraph" font-family="Liberation Sans, sans-serif" font-size="282px" font-weight="400"><tspan class="TextPosition" x="7088" y="15395"><tspan fill="rgb(0,0,0)" stroke="none">27.04</tspan></tspan></tspan></text>
 <text class="TextShape" transform="rotate(-90 7834 15395)"><tspan class="TextParagraph" font-family="Liberation Sans, sans-serif" font-size="282px" font-weight="400"><tspan class="TextPosition" x="7834" y="15395"><tspan fill="rgb(0,0,0)" stroke="none">04.05</tspan></tspan></tspan></text>
 <text class="TextShape" transform="rotate(-90 8581 15395)"><tspan class="TextParagraph" font-family="Liberation Sans, sans-serif" font-size="282px" font-weight="400"><tspan class="TextPosition" x="8581" y="15395"><tspan fill="rgb(0,0,0)" stroke="none">11.05</tspan></tspan></tspan></text>
 <text class="TextShape" transform="rotate(-90 9328 15395)"><tspan class="TextParagraph" font-family="Liberation Sans, sans-serif" font-size="282px" font-weight="400"><tspan class="TextPosition" x="9328" y="15395"><tspan fill="rgb(0,0,0)" stroke="none">18.05</tspan></tspan></tspan></text>
 <text class="TextShape" transform="rotate(-90 10074 15395)"><tspan class="TextParagraph" font-family="Liberation Sans, sans-serif" font-size="282px" font-weight="400"><tspan class="TextPosition" x="10074" y="15395"><tspan fill="rgb(0,0,0)" stroke="none">25.05</tspan></tspan></tspan></text>
 <text class="TextShape" transform="rotate(-90 10821 15395)"><tspan class="TextParagraph" font-family="Liberation Sans, sans-serif" font-size="282px" font-weight="400"><tspan class="TextPosition" x="10821" y="15395"><tspan fill="rgb(0,0,0)" stroke="none">01.06</tspan></tspan></tspan></text>
 <text class="TextShape" transform="rotate(-90 11568 15395)"><tspan class="TextParagraph" font-family="Liberation Sans, sans-serif" font-size="282px" font-weight="400"><tspan class="TextPosition" x="11568" y="15395"><tspan fill="rgb(0,0,0)" stroke="none">08.06</tspan></tspan></tspan></text>
 <text class="TextShape" transform="rotate(-90 12314 15395)"><tspan class="TextParagraph" font-family="Liberation Sans, sans-serif" font-size="282px" font-weight="400"><tspan class="TextPosition" x="12314" y="15395"><tspan fill="rgb(0,0,0)" stroke="none">15.06</tspan></tspan></tspan></text>
 <text class="TextShape" transform="rotate(-90 13060 15395)"><tspan class="TextParagraph" font-family="Liberation Sans, sans-serif" font-size="282px" font-weight="400"><tspan class="TextPosition" x="13060" y="15395"><tspan fill="rgb(0,0,0)" stroke="none">22.06</tspan></tspan></tspan></text>
 <text class="TextShape" transform="rotate(-90 13807 15395)"><tspan class="TextParagraph" font-family="Liberation Sans, sans-serif" font-size="282px" font-weight="400"><tspan class="TextPosition" x="13807" y="15395"><tspan fill="rgb(0,0,0)" stroke="none">29.06</tspan></tspan></tspan></text>
 <text class="TextShape" transform="rotate(-90 14554 15395)"><tspan class="TextParagraph" font-family="Liberation Sans, sans-serif" font-size="282px" font-weight="400"><tspan class="TextPosition" x="14554" y="15395"><tspan fill="rgb(0,0,0)" stroke="none">06.07</tspan></tspan></tspan></text>
 <text class="TextShape" transform="rotate(-90 15300 15395)"><tspan class="TextParagraph" font-family="Liberation Sans, sans-serif" font-size="282px" font-weight="400"><tspan class="TextPosition" x="15300" y="15395"><tspan fill="rgb(0,0,0)" stroke="none">13.07</tspan></tspan></tspan></text>
 <text class="TextShape" transform="rotate(-90 16047 15395)"><tspan class="TextParagraph" font-family="Liberation Sans, sans-serif" font-size="282px" font-weight="400"><tspan class="TextPosition" x="16047" y="15395"><tspan fill="rgb(0,0,0)" stroke="none">20.07</tspan></tspan></tspan></text>
 <text class="TextShape" transform="rotate(-90 16794 15395)"><tspan class="TextParagraph" font-family="Liberation Sans, sans-serif" font-size="282px" font-weight="400"><tspan class="TextPosition" x="16794" y="15395"><tspan fill="rgb(0,0,0)" stroke="none">27.07</tspan></tspan></tspan></text>
 <text class="TextShape" transform="rotate(-90 17540 15395)"><tspan class="TextParagraph" font-family="Liberation Sans, sans-serif" font-size="282px" font-weight="400"><tspan class="TextPosition" x="17540" y="15395"><tspan fill="rgb(0,0,0)" stroke="none">03.08</tspan></tspan></tspan></text>
 <text class="TextShape" transform="rotate(-90 18287 15395)"><tspan class="TextParagraph" font-family="Liberation Sans, sans-serif" font-size="282px" font-weight="400"><tspan class="TextPosition" x="18287" y="15395"><tspan fill="rgb(0,0,0)" stroke="none">10.08</tspan></tspan></tspan></text>
 <text class="TextShape" transform="rotate(-90 19034 15395)"><tspan class="TextParagraph" font-family="Liberation Sans, sans-serif" font-size="282px" font-weight="400"><tspan class="TextPosition" x="19034" y="15395"><tspan fill="rgb(0,0,0)" stroke="none">17.08</tspan></tspan></tspan></text>
 <text class="TextShape" transform="rotate(-90 19780 15395)"><tspan class="TextParagraph" font-family="Liberation Sans, sans-serif" font-size="282px" font-weight="400"><tspan class="TextPosition" x="19780" y="15395"><tspan fill="rgb(0,0,0)" stroke="none">24.08</tspan></tspan></tspan></text>
 <text class="TextShape"><tspan class="TextParagraph" font-family="Liberation Sans, sans-serif" font-size="353px" font-weight="400"><tspan class="TextPosition" x="967" y="14547"><tspan fill="rgb(0,0,0)" stroke="none">0%</tspan></tspan></tspan></text>
 <text class="TextShape"><tspan class="TextParagraph" font-family="Liberation Sans, sans-serif" font-size="353px" font-weight="400"><tspan class="TextPosition" x="967" y="13263"><tspan fill="rgb(0,0,0)" stroke="none">1%</tspan></tspan></tspan></text>
 <text class="TextShape"><tspan class="TextParagraph" font-family="Liberation Sans, sans-serif" font-size="353px" font-weight="400"><tspan class="TextPosition" x="967" y="11980"><tspan fill="rgb(0,0,0)" stroke="none">2%</tspan></tspan></tspan></text>
 <text class="TextShape"><tspan class="TextParagraph" font-family="Liberation Sans, sans-serif" font-size="353px" font-weight="400"><tspan class="TextPosition" x="967" y="10697"><tspan fill="rgb(0,0,0)" stroke="none">3%</tspan></tspan></tspan></text>
 <text class="TextShape"><tspan class="TextParagraph" font-family="Liberation Sans, sans-serif" font-size="353px" font-weight="400"><tspan class="TextPosition" x="967" y="9414"><tspan fill="rgb(0,0,0)" stroke="none">4%</tspan></tspan></tspan></text>
 <text class="TextShape"><tspan class="TextParagraph" font-family="Liberation Sans, sans-serif" font-size="353px" font-weight="400"><tspan class="TextPosition" x="967" y="8131"><tspan fill="rgb(0,0,0)" stroke="none">5%</tspan></tspan></tspan></text>
 <text class="TextShape"><tspan class="TextParagraph" font-family="Liberation Sans, sans-serif" font-size="353px" font-weight="400"><tspan class="TextPosition" x="967" y="6848"><tspan fill="rgb(0,0,0)" stroke="none">6%</tspan></tspan></tspan></text>
 <text class="TextShape"><tspan class="TextParagraph" font-family="Liberation Sans, sans-serif" font-size="353px" font-weight="400"><tspan class="TextPosition" x="967" y="5565"><tspan fill="rgb(0,0,0)" stroke="none">7%</tspan></tspan></tspan></text>
 <text class="TextShape"><tspan class="TextParagraph" font-family="Liberation Sans, sans-serif" font-size="353px" font-weight="400"><tspan class="TextPosition" x="967" y="4282"><tspan fill="rgb(0,0,0)" stroke="none">8%</tspan></tspan></tspan></text>
 <text class="TextShape"><tspan class="TextParagraph" font-family="Liberation Sans, sans-serif" font-size="353px" font-weight="400"><tspan class="TextPosition" x="967" y="2999"><tspan fill="rgb(0,0,0)" stroke="none">9%</tspan></tspan></tspan></text>
 <text class="TextShape"><tspan class="TextParagraph" font-family="Liberation Sans, sans-serif" font-size="353px" font-weight="400"><tspan class="TextPosition" x="776" y="1716"><tspan fill="rgb(0,0,0)" stroke="none">10%</tspan></tspan></tspan></text>
 <text class="TextShape"><tspan class="TextParagraph" font-family="Liberation Sans, sans-serif" font-size="459px" font-weight="700"><tspan class="TextPosition" x="1657" y="1008"><tspan fill="rgb(0,0,0)" stroke="none">esk Republika - pomr celkovho potu obt k posunutmu celkovmu potu infikovanch</tspan></tspan></tspan></text>
 <path fill="none" stroke="rgb(0,69,134)" stroke-width="80" stroke-linejoin="round" d="M 20046,1922 L 20846,1922"/>
 <path fill="none" stroke="rgb(255,66,14)" stroke-width="80" stroke-linejoin="round" d="M 20046,2794 L 20846,2794"/>
 <path fill="none" stroke="rgb(255,211,32)" stroke-width="80" stroke-linejoin="round" d="M 20046,3666 L 20846,3666"/>
 <path fill="none" stroke="rgb(87,157,28)" stroke-width="80" stroke-linejoin="round" d="M 20046,4538 L 20846,4538"/>
 <path fill="none" stroke="rgb(126,0,33)" stroke-width="80" stroke-linejoin="round" d="M 20046,5410 L 20846,5410"/>
 <path fill="none" stroke="rgb(131,202,255)" stroke-width="80" stroke-linejoin="round" d="M 20046,6282 L 20846,6282"/>
 <path fill="none" stroke="rgb(49,64,4)" stroke-width="80" stroke-linejoin="round" d="M 20046,7154 L 20846,7154"/>
 <path fill="none" stroke="rgb(174,207,0)" stroke-width="80" stroke-linejoin="round" d="M 20046,8026 L 20846,8026"/>
 <path fill="none" stroke="rgb(75,31,111)" stroke-width="80" stroke-linejoin="round" d="M 20046,8897 L 20846,8897"/>
 <path fill="none" stroke="rgb(255,149,14)" stroke-width="80" stroke-linejoin="round" d="M 20046,9769 L 20846,9769"/>
 <path fill="none" stroke="rgb(197,0,11)" stroke-width="80" stroke-linejoin="round" d="M 20046,10641 L 20846,10641"/>
 <path fill="none" stroke="rgb(0,132,209)" stroke-width="80" stroke-linejoin="round" d="M 20046,11513 L 20846,11513"/>
 <path fill="none" stroke="rgb(0,69,134)" stroke-width="80" stroke-linejoin="round" d="M 20046,12385 L 20846,12385"/>
 <path fill="none" stroke="rgb(255,66,14)" stroke-width="80" stroke-linejoin="round" d="M 20046,13257 L 20846,13257"/>
 <path fill="none" stroke="rgb(255,211,32)" stroke-width="80" stroke-linejoin="round" d="M 20046,14129 L 20846,14129"/>
 <text class="TextShape"><tspan class="TextParagraph" font-family="Liberation Sans, sans-serif" font-size="353px" font-weight="400"><tspan class="TextPosition" x="20946" y="2044"><tspan fill="rgb(0,0,0)" stroke="none">14 dn zpodn</tspan></tspan></tspan></text>
 <text class="TextShape"><tspan class="TextParagraph" font-family="Liberation Sans, sans-serif" font-size="353px" font-weight="400"><tspan class="TextPosition" x="20946" y="2916"><tspan fill="rgb(0,0,0)" stroke="none">13 dn zpodn</tspan></tspan></tspan></text>
 <text class="TextShape"><tspan class="TextParagraph" font-family="Liberation Sans, sans-serif" font-size="353px" font-weight="400"><tspan class="TextPosition" x="20946" y="3788"><tspan fill="rgb(0,0,0)" stroke="none">12 dn zpodn</tspan></tspan></tspan></text>
 <text class="TextShape"><tspan class="TextParagraph" font-family="Liberation Sans, sans-serif" font-size="353px" font-weight="400"><tspan class="TextPosition" x="20946" y="4660"><tspan fill="rgb(0,0,0)" stroke="none">11 dn zpodn</tspan></tspan></tspan></text>
 <text class="TextShape"><tspan class="TextParagraph" font-family="Liberation Sans, sans-serif" font-size="353px" font-weight="400"><tspan class="TextPosition" x="20946" y="5532"><tspan fill="rgb(0,0,0)" stroke="none">10 dn zpodn</tspan></tspan></tspan></text>
 <text class="TextShape"><tspan class="TextParagraph" font-family="Liberation Sans, sans-serif" font-size="353px" font-weight="400"><tspan class="TextPosition" x="20946" y="6404"><tspan fill="rgb(0,0,0)" stroke="none">9 dn zpodn</tspan></tspan></tspan></text>
 <text class="TextShape"><tspan class="TextParagraph" font-family="Liberation Sans, sans-serif" font-size="353px" font-weight="400"><tspan class="TextPosition" x="20946" y="7276"><tspan fill="rgb(0,0,0)" stroke="none">8 dn zpodn</tspan></tspan></tspan></text>
 <text class="TextShape"><tspan class="TextParagraph" font-family="Liberation Sans, sans-serif" font-size="353px" font-weight="400"><tspan class="TextPosition" x="20946" y="8147"><tspan fill="rgb(0,0,0)" stroke="none">7 dn zpodn</tspan></tspan></tspan></text>
 <text class="TextShape"><tspan class="TextParagraph" font-family="Liberation Sans, sans-serif" font-size="353px" font-weight="400"><tspan class="TextPosition" x="20946" y="9019"><tspan fill="rgb(0,0,0)" stroke="none">6 dn zpodn</tspan></tspan></tspan></text>
 <text class="TextShape"><tspan class="TextParagraph" font-family="Liberation Sans, sans-serif" font-size="353px" font-weight="400"><tspan class="TextPosition" x="20946" y="9891"><tspan fill="rgb(0,0,0)" stroke="none">5 dn zpodn</tspan></tspan></tspan></text>
 <text class="TextShape"><tspan class="TextParagraph" font-family="Liberation Sans, sans-serif" font-size="353px" font-weight="400"><tspan class="TextPosition" x="20946" y="10763"><tspan fill="rgb(0,0,0)" stroke="none">4 dny zpodn</tspan></tspan></tspan></text>
 <text class="TextShape"><tspan class="TextParagraph" font-family="Liberation Sans, sans-serif" font-size="353px" font-weight="400"><tspan class="TextPosition" x="20946" y="11635"><tspan fill="rgb(0,0,0)" stroke="none">3 dny zpodn</tspan></tspan></tspan></text>
 <text class="TextShape"><tspan class="TextParagraph" font-family="Liberation Sans, sans-serif" font-size="353px" font-weight="400"><tspan class="TextPosition" x="20946" y="12507"><tspan fill="rgb(0,0,0)" stroke="none">2 dny zpodn</tspan></tspan></tspan></text>
 <text class="TextShape"><tspan class="TextParagraph" font-family="Liberation Sans, sans-serif" font-size="353px" font-weight="400"><tspan class="TextPosition" x="20946" y="13379"><tspan fill="rgb(0,0,0)" stroke="none">1 den zpodn</tspan></tspan></tspan></text>
 <text class="TextShape"><tspan class="TextParagraph" font-family="Liberation Sans, sans-serif" font-size="353px" font-weight="400"><tspan class="TextPosition" x="20946" y="14251"><tspan fill="rgb(0,0,0)" stroke="none">0 dn zpodn</tspan></tspan></tspan></text>
</svg>