<?xml version="1.0" encoding="UTF-8"?>
<!DOCTYPE svg PUBLIC "-//W3C//DTD SVG 1.1//EN" "http://www.w3.org/Graphics/SVG/1.1/DTD/svg11.dtd">
<svg width="236mm" height="125mm" viewBox="0 0 23600 12500" version="1.1" xmlns="http://www.w3.org/2000/svg" xmlns:xlink="http://www.w3.org/1999/xlink" stroke-width="28.222" stroke-linejoin="round" xml:space="preserve">
 <path fill="rgb(255,255,255)" stroke="none" d="M 11800,12500 L 0,12500 0,0 23600,0 23600,12500 11800,12500 Z"/>
 <path fill="none" stroke="rgb(179,179,179)" stroke-linejoin="round" d="M 12658,10656 L 1905,10656 1905,1618 23411,1618 23411,10656 12658,10656 Z"/>
 <path fill="none" stroke="rgb(179,179,179)" stroke-linejoin="round" d="M 23411,10655 L 1905,10655"/>
 <path fill="none" stroke="rgb(179,179,179)" stroke-linejoin="round" d="M 23411,9525 L 1905,9525"/>
 <path fill="none" stroke="rgb(179,179,179)" stroke-linejoin="round" d="M 23411,8395 L 1905,8395"/>
 <path fill="none" stroke="rgb(179,179,179)" stroke-linejoin="round" d="M 23411,7265 L 1905,7265"/>
 <path fill="none" stroke="rgb(179,179,179)" stroke-linejoin="round" d="M 23411,6136 L 1905,6136"/>
 <path fill="none" stroke="rgb(179,179,179)" stroke-linejoin="round" d="M 23411,5006 L 1905,5006"/>
 <path fill="none" stroke="rgb(179,179,179)" stroke-linejoin="round" d="M 23411,3876 L 1905,3876"/>
 <path fill="none" stroke="rgb(179,179,179)" stroke-linejoin="round" d="M 23411,2746 L 1905,2746"/>
 <path fill="none" stroke="rgb(179,179,179)" stroke-linejoin="round" d="M 23411,1617 L 1905,1617"/>
 <path fill="none" stroke="rgb(179,179,179)" stroke-linejoin="round" d="M 1905,10805 L 1905,10655"/>
 <path fill="none" stroke="rgb(179,179,179)" stroke-linejoin="round" d="M 1905,10805 L 1905,10655"/>
 <path fill="none" stroke="rgb(179,179,179)" stroke-linejoin="round" d="M 2785,10805 L 2785,10655"/>
 <path fill="none" stroke="rgb(179,179,179)" stroke-linejoin="round" d="M 2785,10805 L 2785,10655"/>
 <path fill="none" stroke="rgb(179,179,179)" stroke-linejoin="round" d="M 3665,10805 L 3665,10655"/>
 <path fill="none" stroke="rgb(179,179,179)" stroke-linejoin="round" d="M 3665,10805 L 3665,10655"/>
 <path fill="none" stroke="rgb(179,179,179)" stroke-linejoin="round" d="M 4546,10805 L 4546,10655"/>
 <path fill="none" stroke="rgb(179,179,179)" stroke-linejoin="round" d="M 4546,10805 L 4546,10655"/>
 <path fill="none" stroke="rgb(179,179,179)" stroke-linejoin="round" d="M 5426,10805 L 5426,10655"/>
 <path fill="none" stroke="rgb(179,179,179)" stroke-linejoin="round" d="M 5426,10805 L 5426,10655"/>
 <path fill="none" stroke="rgb(179,179,179)" stroke-linejoin="round" d="M 6307,10805 L 6307,10655"/>
 <path fill="none" stroke="rgb(179,179,179)" stroke-linejoin="round" d="M 6307,10805 L 6307,10655"/>
 <path fill="none" stroke="rgb(179,179,179)" stroke-linejoin="round" d="M 7187,10805 L 7187,10655"/>
 <path fill="none" stroke="rgb(179,179,179)" stroke-linejoin="round" d="M 7187,10805 L 7187,10655"/>
 <path fill="none" stroke="rgb(179,179,179)" stroke-linejoin="round" d="M 8067,10805 L 8067,10655"/>
 <path fill="none" stroke="rgb(179,179,179)" stroke-linejoin="round" d="M 8067,10805 L 8067,10655"/>
 <path fill="none" stroke="rgb(179,179,179)" stroke-linejoin="round" d="M 8948,10805 L 8948,10655"/>
 <path fill="none" stroke="rgb(179,179,179)" stroke-linejoin="round" d="M 8948,10805 L 8948,10655"/>
 <path fill="none" stroke="rgb(179,179,179)" stroke-linejoin="round" d="M 9828,10805 L 9828,10655"/>
 <path fill="none" stroke="rgb(179,179,179)" stroke-linejoin="round" d="M 9828,10805 L 9828,10655"/>
 <path fill="none" stroke="rgb(179,179,179)" stroke-linejoin="round" d="M 10709,10805 L 10709,10655"/>
 <path fill="none" stroke="rgb(179,179,179)" stroke-linejoin="round" d="M 10709,10805 L 10709,10655"/>
 <path fill="none" stroke="rgb(179,179,179)" stroke-linejoin="round" d="M 11589,10805 L 11589,10655"/>
 <path fill="none" stroke="rgb(179,179,179)" stroke-linejoin="round" d="M 11589,10805 L 11589,10655"/>
 <path fill="none" stroke="rgb(179,179,179)" stroke-linejoin="round" d="M 12468,10805 L 12468,10655"/>
 <path fill="none" stroke="rgb(179,179,179)" stroke-linejoin="round" d="M 12468,10805 L 12468,10655"/>
 <path fill="none" stroke="rgb(179,179,179)" stroke-linejoin="round" d="M 13349,10805 L 13349,10655"/>
 <path fill="none" stroke="rgb(179,179,179)" stroke-linejoin="round" d="M 13349,10805 L 13349,10655"/>
 <path fill="none" stroke="rgb(179,179,179)" stroke-linejoin="round" d="M 14229,10805 L 14229,10655"/>
 <path fill="none" stroke="rgb(179,179,179)" stroke-linejoin="round" d="M 14229,10805 L 14229,10655"/>
 <path fill="none" stroke="rgb(179,179,179)" stroke-linejoin="round" d="M 15110,10805 L 15110,10655"/>
 <path fill="none" stroke="rgb(179,179,179)" stroke-linejoin="round" d="M 15110,10805 L 15110,10655"/>
 <path fill="none" stroke="rgb(179,179,179)" stroke-linejoin="round" d="M 15990,10805 L 15990,10655"/>
 <path fill="none" stroke="rgb(179,179,179)" stroke-linejoin="round" d="M 15990,10805 L 15990,10655"/>
 <path fill="none" stroke="rgb(179,179,179)" stroke-linejoin="round" d="M 16870,10805 L 16870,10655"/>
 <path fill="none" stroke="rgb(179,179,179)" stroke-linejoin="round" d="M 16870,10805 L 16870,10655"/>
 <path fill="none" stroke="rgb(179,179,179)" stroke-linejoin="round" d="M 17751,10805 L 17751,10655"/>
 <path fill="none" stroke="rgb(179,179,179)" stroke-linejoin="round" d="M 17751,10805 L 17751,10655"/>
 <path fill="none" stroke="rgb(179,179,179)" stroke-linejoin="round" d="M 18631,10805 L 18631,10655"/>
 <path fill="none" stroke="rgb(179,179,179)" stroke-linejoin="round" d="M 18631,10805 L 18631,10655"/>
 <path fill="none" stroke="rgb(179,179,179)" stroke-linejoin="round" d="M 19512,10805 L 19512,10655"/>
 <path fill="none" stroke="rgb(179,179,179)" stroke-linejoin="round" d="M 19512,10805 L 19512,10655"/>
 <path fill="none" stroke="rgb(179,179,179)" stroke-linejoin="round" d="M 20392,10805 L 20392,10655"/>
 <path fill="none" stroke="rgb(179,179,179)" stroke-linejoin="round" d="M 20392,10805 L 20392,10655"/>
 <path fill="none" stroke="rgb(179,179,179)" stroke-linejoin="round" d="M 21272,10805 L 21272,10655"/>
 <path fill="none" stroke="rgb(179,179,179)" stroke-linejoin="round" d="M 21272,10805 L 21272,10655"/>
 <path fill="none" stroke="rgb(179,179,179)" stroke-linejoin="round" d="M 22153,10805 L 22153,10655"/>
 <path fill="none" stroke="rgb(179,179,179)" stroke-linejoin="round" d="M 22153,10805 L 22153,10655"/>
 <path fill="none" stroke="rgb(179,179,179)" stroke-linejoin="round" d="M 23033,10805 L 23033,10655"/>
 <path fill="none" stroke="rgb(179,179,179)" stroke-linejoin="round" d="M 23033,10805 L 23033,10655"/>
 <path fill="none" stroke="rgb(179,179,179)" stroke-linejoin="round" d="M 1905,10655 L 23411,10655"/>
 <path fill="none" stroke="rgb(179,179,179)" stroke-linejoin="round" d="M 1755,10655 L 1905,10655"/>
 <path fill="none" stroke="rgb(179,179,179)" stroke-linejoin="round" d="M 1755,10655 L 1905,10655"/>
 <path fill="none" stroke="rgb(179,179,179)" stroke-linejoin="round" d="M 1755,9525 L 1905,9525"/>
 <path fill="none" stroke="rgb(179,179,179)" stroke-linejoin="round" d="M 1755,9525 L 1905,9525"/>
 <path fill="none" stroke="rgb(179,179,179)" stroke-linejoin="round" d="M 1755,8395 L 1905,8395"/>
 <path fill="none" stroke="rgb(179,179,179)" stroke-linejoin="round" d="M 1755,8395 L 1905,8395"/>
 <path fill="none" stroke="rgb(179,179,179)" stroke-linejoin="round" d="M 1755,7265 L 1905,7265"/>
 <path fill="none" stroke="rgb(179,179,179)" stroke-linejoin="round" d="M 1755,7265 L 1905,7265"/>
 <path fill="none" stroke="rgb(179,179,179)" stroke-linejoin="round" d="M 1755,6136 L 1905,6136"/>
 <path fill="none" stroke="rgb(179,179,179)" stroke-linejoin="round" d="M 1755,6136 L 1905,6136"/>
 <path fill="none" stroke="rgb(179,179,179)" stroke-linejoin="round" d="M 1755,5006 L 1905,5006"/>
 <path fill="none" stroke="rgb(179,179,179)" stroke-linejoin="round" d="M 1755,5006 L 1905,5006"/>
 <path fill="none" stroke="rgb(179,179,179)" stroke-linejoin="round" d="M 1755,3876 L 1905,3876"/>
 <path fill="none" stroke="rgb(179,179,179)" stroke-linejoin="round" d="M 1755,3876 L 1905,3876"/>
 <path fill="none" stroke="rgb(179,179,179)" stroke-linejoin="round" d="M 1755,2746 L 1905,2746"/>
 <path fill="none" stroke="rgb(179,179,179)" stroke-linejoin="round" d="M 1755,2746 L 1905,2746"/>
 <path fill="none" stroke="rgb(179,179,179)" stroke-linejoin="round" d="M 1755,1617 L 1905,1617"/>
 <path fill="none" stroke="rgb(179,179,179)" stroke-linejoin="round" d="M 1755,1617 L 1905,1617"/>
 <path fill="none" stroke="rgb(179,179,179)" stroke-linejoin="round" d="M 1905,10655 L 1905,1617"/>
 <path fill="none" stroke="rgb(255,128,0)" stroke-width="80" stroke-linejoin="round" d="M 1967,10654 L 2093,10654 2219,10654 2345,10654 2470,10654 2596,10653 2722,10653 2848,10653 2974,10652 3099,10651 3225,10650 3351,10648 3477,10646 3602,10643 3728,10640 3854,10632 3980,10625 4106,10615 4231,10601 4357,10590 4483,10569 4609,10555 4734,10528 4860,10501 4986,10468 5112,10435 5237,10391 5363,10327 5489,10251 5615,10181 5741,10099 5866,10005 5992,9892 6118,9775 6244,9643 6369,9508 6495,9380 6621,9234 6747,9080 6872,8904 6998,8710 7124,8518 7250,8343 7376,8211 7501,8048 7627,7829 7753,7670 7879,7468 8004,7287 8130,7151 8256,7015 8382,6878 8508,6741 8633,6515 8759,6343 8885,6173 9011,6061 9136,5955 9262,5834 9388,5698 9514,5561 9639,5429 9765,5307 9891,5202 10017,5131 10143,5040 10268,4944 10394,4834 10520,4752 10646,4696 10771,4607 10897,4561 11023,4498 11149,4434 11275,4336 11400,4270 11526,4198 11652,4155 11778,4122 11902,4076 12028,4017 12154,3961 12280,3900 12405,3854 12531,3827 12657,3777 12783,3747 12909,3731 13034,3693 13160,3664 13286,3603 13412,3579 13537,3563 13663,3653 13789,3613 13915,3588 14040,3567 14166,3545 14292,3526 14418,3516 14544,3506 14669,3487 14795,3468 14921,3453 15047,3434 15172,3423 15298,3416 15424,3403 15550,3386 15676,3371 15801,3362 15927,3352 16053,3341 16179,3335 16304,3328 16430,3313 16556,3298 16682,3286 16807,3210 16933,3202 17059,3199 17185,3193 17311,3182 17436,3176 17562,3168 17688,3157 17814,3154 17939,3150 18065,3143 18191,3133 18317,3125 18443,3116 18568,3109 18694,3104 18820,3102 18946,3097 19071,3089 19197,3083 19323,3075 19449,3069 19574,3065 19700,3063 19826,3058 19952,3053 20078,3043 20203,3036 20329,3030 20455,3028 20581,3026 20706,3020 20832,3016 20958,3010 21084,3004 21209,2998 21335,2995 21461,2992 21587,2989 21713,2983 21838,2977 21964,2970 22090,2964 22216,2960 22341,2957 22467,2951 22593,2943 22719,2936 22845,2929 22970,2922 23096,2917 23222,2913 23348,2905"/>
 <text class="TextShape" transform="rotate(-90 2093 11859)"><tspan class="TextParagraph" font-family="Liberation Sans, sans-serif" font-size="388px" font-weight="400"><tspan class="TextPosition" x="2093" y="11859"><tspan fill="rgb(0,0,0)" stroke="none">22.02</tspan></tspan></tspan></text>
 <text class="TextShape" transform="rotate(-90 2974 11859)"><tspan class="TextParagraph" font-family="Liberation Sans, sans-serif" font-size="388px" font-weight="400"><tspan class="TextPosition" x="2974" y="11859"><tspan fill="rgb(0,0,0)" stroke="none">29.02</tspan></tspan></tspan></text>
 <text class="TextShape" transform="rotate(-90 3854 11859)"><tspan class="TextParagraph" font-family="Liberation Sans, sans-serif" font-size="388px" font-weight="400"><tspan class="TextPosition" x="3854" y="11859"><tspan fill="rgb(0,0,0)" stroke="none">07.03</tspan></tspan></tspan></text>
 <text class="TextShape" transform="rotate(-90 4735 11859)"><tspan class="TextParagraph" font-family="Liberation Sans, sans-serif" font-size="388px" font-weight="400"><tspan class="TextPosition" x="4735" y="11859"><tspan fill="rgb(0,0,0)" stroke="none">14.03</tspan></tspan></tspan></text>
 <text class="TextShape" transform="rotate(-90 5615 11859)"><tspan class="TextParagraph" font-family="Liberation Sans, sans-serif" font-size="388px" font-weight="400"><tspan class="TextPosition" x="5615" y="11859"><tspan fill="rgb(0,0,0)" stroke="none">21.03</tspan></tspan></tspan></text>
 <text class="TextShape" transform="rotate(-90 6495 11859)"><tspan class="TextParagraph" font-family="Liberation Sans, sans-serif" font-size="388px" font-weight="400"><tspan class="TextPosition" x="6495" y="11859"><tspan fill="rgb(0,0,0)" stroke="none">28.03</tspan></tspan></tspan></text>
 <text class="TextShape" transform="rotate(-90 7376 11859)"><tspan class="TextParagraph" font-family="Liberation Sans, sans-serif" font-size="388px" font-weight="400"><tspan class="TextPosition" x="7376" y="11859"><tspan fill="rgb(0,0,0)" stroke="none">04.04</tspan></tspan></tspan></text>
 <text class="TextShape" transform="rotate(-90 8256 11859)"><tspan class="TextParagraph" font-family="Liberation Sans, sans-serif" font-size="388px" font-weight="400"><tspan class="TextPosition" x="8256" y="11859"><tspan fill="rgb(0,0,0)" stroke="none">11.04</tspan></tspan></tspan></text>
 <text class="TextShape" transform="rotate(-90 9137 11859)"><tspan class="TextParagraph" font-family="Liberation Sans, sans-serif" font-size="388px" font-weight="400"><tspan class="TextPosition" x="9137" y="11859"><tspan fill="rgb(0,0,0)" stroke="none">18.04</tspan></tspan></tspan></text>
 <text class="TextShape" transform="rotate(-90 10017 11859)"><tspan class="TextParagraph" font-family="Liberation Sans, sans-serif" font-size="388px" font-weight="400"><tspan class="TextPosition" x="10017" y="11859"><tspan fill="rgb(0,0,0)" stroke="none">25.04</tspan></tspan></tspan></text>
 <text class="TextShape" transform="rotate(-90 10897 11859)"><tspan class="TextParagraph" font-family="Liberation Sans, sans-serif" font-size="388px" font-weight="400"><tspan class="TextPosition" x="10897" y="11859"><tspan fill="rgb(0,0,0)" stroke="none">02.05</tspan></tspan></tspan></text>
 <text class="TextShape" transform="rotate(-90 11778 11859)"><tspan class="TextParagraph" font-family="Liberation Sans, sans-serif" font-size="388px" font-weight="400"><tspan class="TextPosition" x="11778" y="11859"><tspan fill="rgb(0,0,0)" stroke="none">09.05</tspan></tspan></tspan></text>
 <text class="TextShape" transform="rotate(-90 12657 11859)"><tspan class="TextParagraph" font-family="Liberation Sans, sans-serif" font-size="388px" font-weight="400"><tspan class="TextPosition" x="12657" y="11859"><tspan fill="rgb(0,0,0)" stroke="none">16.05</tspan></tspan></tspan></text>
 <text class="TextShape" transform="rotate(-90 13538 11859)"><tspan class="TextParagraph" font-family="Liberation Sans, sans-serif" font-size="388px" font-weight="400"><tspan class="TextPosition" x="13538" y="11859"><tspan fill="rgb(0,0,0)" stroke="none">23.05</tspan></tspan></tspan></text>
 <text class="TextShape" transform="rotate(-90 14418 11859)"><tspan class="TextParagraph" font-family="Liberation Sans, sans-serif" font-size="388px" font-weight="400"><tspan class="TextPosition" x="14418" y="11859"><tspan fill="rgb(0,0,0)" stroke="none">30.05</tspan></tspan></tspan></text>
 <text class="TextShape" transform="rotate(-90 15298 11859)"><tspan class="TextParagraph" font-family="Liberation Sans, sans-serif" font-size="388px" font-weight="400"><tspan class="TextPosition" x="15298" y="11859"><tspan fill="rgb(0,0,0)" stroke="none">06.06</tspan></tspan></tspan></text>
 <text class="TextShape" transform="rotate(-90 16179 11859)"><tspan class="TextParagraph" font-family="Liberation Sans, sans-serif" font-size="388px" font-weight="400"><tspan class="TextPosition" x="16179" y="11859"><tspan fill="rgb(0,0,0)" stroke="none">13.06</tspan></tspan></tspan></text>
 <text class="TextShape" transform="rotate(-90 17059 11859)"><tspan class="TextParagraph" font-family="Liberation Sans, sans-serif" font-size="388px" font-weight="400"><tspan class="TextPosition" x="17059" y="11859"><tspan fill="rgb(0,0,0)" stroke="none">20.06</tspan></tspan></tspan></text>
 <text class="TextShape" transform="rotate(-90 17940 11859)"><tspan class="TextParagraph" font-family="Liberation Sans, sans-serif" font-size="388px" font-weight="400"><tspan class="TextPosition" x="17940" y="11859"><tspan fill="rgb(0,0,0)" stroke="none">27.06</tspan></tspan></tspan></text>
 <text class="TextShape" transform="rotate(-90 18820 11859)"><tspan class="TextParagraph" font-family="Liberation Sans, sans-serif" font-size="388px" font-weight="400"><tspan class="TextPosition" x="18820" y="11859"><tspan fill="rgb(0,0,0)" stroke="none">04.07</tspan></tspan></tspan></text>
 <text class="TextShape" transform="rotate(-90 19700 11859)"><tspan class="TextParagraph" font-family="Liberation Sans, sans-serif" font-size="388px" font-weight="400"><tspan class="TextPosition" x="19700" y="11859"><tspan fill="rgb(0,0,0)" stroke="none">11.07</tspan></tspan></tspan></text>
 <text class="TextShape" transform="rotate(-90 20581 11859)"><tspan class="TextParagraph" font-family="Liberation Sans, sans-serif" font-size="388px" font-weight="400"><tspan class="TextPosition" x="20581" y="11859"><tspan fill="rgb(0,0,0)" stroke="none">18.07</tspan></tspan></tspan></text>
 <text class="TextShape" transform="rotate(-90 21461 11859)"><tspan class="TextParagraph" font-family="Liberation Sans, sans-serif" font-size="388px" font-weight="400"><tspan class="TextPosition" x="21461" y="11859"><tspan fill="rgb(0,0,0)" stroke="none">25.07</tspan></tspan></tspan></text>
 <text class="TextShape" transform="rotate(-90 22342 11859)"><tspan class="TextParagraph" font-family="Liberation Sans, sans-serif" font-size="388px" font-weight="400"><tspan class="TextPosition" x="22342" y="11859"><tspan fill="rgb(0,0,0)" stroke="none">01.08</tspan></tspan></tspan></text>
 <text class="TextShape" transform="rotate(-90 23222 11859)"><tspan class="TextParagraph" font-family="Liberation Sans, sans-serif" font-size="388px" font-weight="400"><tspan class="TextPosition" x="23222" y="11859"><tspan fill="rgb(0,0,0)" stroke="none">08.08</tspan></tspan></tspan></text>
 <text class="TextShape"><tspan class="TextParagraph" font-family="Liberation Sans, sans-serif" font-size="388px" font-weight="400"><tspan class="TextPosition" x="1443" y="10783"><tspan fill="rgb(0,0,0)" stroke="none">0</tspan></tspan></tspan></text>
 <text class="TextShape"><tspan class="TextParagraph" font-family="Liberation Sans, sans-serif" font-size="388px" font-weight="400"><tspan class="TextPosition" x="491" y="9653"><tspan fill="rgb(0,0,0)" stroke="none">20 000</tspan></tspan></tspan></text>
 <text class="TextShape"><tspan class="TextParagraph" font-family="Liberation Sans, sans-serif" font-size="388px" font-weight="400"><tspan class="TextPosition" x="491" y="8523"><tspan fill="rgb(0,0,0)" stroke="none">40 000</tspan></tspan></tspan></text>
 <text class="TextShape"><tspan class="TextParagraph" font-family="Liberation Sans, sans-serif" font-size="388px" font-weight="400"><tspan class="TextPosition" x="491" y="7393"><tspan fill="rgb(0,0,0)" stroke="none">60 000</tspan></tspan></tspan></text>
 <text class="TextShape"><tspan class="TextParagraph" font-family="Liberation Sans, sans-serif" font-size="388px" font-weight="400"><tspan class="TextPosition" x="491" y="6263"><tspan fill="rgb(0,0,0)" stroke="none">80 000</tspan></tspan></tspan></text>
 <text class="TextShape"><tspan class="TextParagraph" font-family="Liberation Sans, sans-serif" font-size="388px" font-weight="400"><tspan class="TextPosition" x="279" y="5133"><tspan fill="rgb(0,0,0)" stroke="none">100 000</tspan></tspan></tspan></text>
 <text class="TextShape"><tspan class="TextParagraph" font-family="Liberation Sans, sans-serif" font-size="388px" font-weight="400"><tspan class="TextPosition" x="279" y="4003"><tspan fill="rgb(0,0,0)" stroke="none">120 000</tspan></tspan></tspan></text>
 <text class="TextShape"><tspan class="TextParagraph" font-family="Liberation Sans, sans-serif" font-size="388px" font-weight="400"><tspan class="TextPosition" x="279" y="2873"><tspan fill="rgb(0,0,0)" stroke="none">140 000</tspan></tspan></tspan></text>
 <text class="TextShape"><tspan class="TextParagraph" font-family="Liberation Sans, sans-serif" font-size="388px" font-weight="400"><tspan class="TextPosition" x="279" y="1744"><tspan fill="rgb(0,0,0)" stroke="none">160 000</tspan></tspan></tspan></text>
 <text class="TextShape"><tspan class="TextParagraph" font-family="Liberation Sans, sans-serif" font-size="494px" font-weight="700"><tspan class="TextPosition" x="389" y="698"><tspan fill="rgb(0,0,0)" stroke="none">EU</tspan></tspan></tspan></text>
 <path fill="none" stroke="rgb(255,128,0)" stroke-width="80" stroke-linejoin="round" d="M 9239,970 L 10039,970"/>
 <text class="TextShape"><tspan class="TextParagraph" font-family="Liberation Sans, sans-serif" font-size="494px" font-weight="400"><tspan class="TextPosition" x="10147" y="1139"><tspan fill="rgb(0,0,0)" stroke="none">celkový počet obětí</tspan></tspan></tspan></text>
</svg>