<?xml version="1.0" encoding="UTF-8"?>
<!DOCTYPE svg PUBLIC "-//W3C//DTD SVG 1.1//EN" "http://www.w3.org/Graphics/SVG/1.1/DTD/svg11.dtd">
<svg width="236mm" height="161mm" viewBox="0 0 23600 16100" version="1.1" xmlns="http://www.w3.org/2000/svg" xmlns:xlink="http://www.w3.org/1999/xlink" stroke-width="28.222" stroke-linejoin="round" xml:space="preserve">
 <path fill="rgb(255,255,255)" stroke="none" d="M 11801,16109 L 0,16109 0,-17 23601,-17 23601,16109 11801,16109 Z"/>
 <path fill="none" stroke="rgb(179,179,179)" stroke-linejoin="round" d="M 10781,14408 L 1714,14408 1714,1578 19847,1578 19847,14408 10781,14408 Z"/>
 <path fill="none" stroke="rgb(179,179,179)" stroke-linejoin="round" d="M 19847,14407 L 1714,14407"/>
 <path fill="none" stroke="rgb(179,179,179)" stroke-linejoin="round" d="M 19847,13123 L 1714,13123"/>
 <path fill="none" stroke="rgb(179,179,179)" stroke-linejoin="round" d="M 19847,11840 L 1714,11840"/>
 <path fill="none" stroke="rgb(179,179,179)" stroke-linejoin="round" d="M 19847,10557 L 1714,10557"/>
 <path fill="none" stroke="rgb(179,179,179)" stroke-linejoin="round" d="M 19847,9274 L 1714,9274"/>
 <path fill="none" stroke="rgb(179,179,179)" stroke-linejoin="round" d="M 19847,7992 L 1714,7992"/>
 <path fill="none" stroke="rgb(179,179,179)" stroke-linejoin="round" d="M 19847,6709 L 1714,6709"/>
 <path fill="none" stroke="rgb(179,179,179)" stroke-linejoin="round" d="M 19847,5426 L 1714,5426"/>
 <path fill="none" stroke="rgb(179,179,179)" stroke-linejoin="round" d="M 19847,4143 L 1714,4143"/>
 <path fill="none" stroke="rgb(179,179,179)" stroke-linejoin="round" d="M 19847,2860 L 1714,2860"/>
 <path fill="none" stroke="rgb(179,179,179)" stroke-linejoin="round" d="M 19847,1577 L 1714,1577"/>
 <path fill="none" stroke="rgb(179,179,179)" stroke-linejoin="round" d="M 1714,14557 L 1714,14407"/>
 <path fill="none" stroke="rgb(179,179,179)" stroke-linejoin="round" d="M 1714,14557 L 1714,14407"/>
 <path fill="none" stroke="rgb(179,179,179)" stroke-linejoin="round" d="M 2460,14557 L 2460,14407"/>
 <path fill="none" stroke="rgb(179,179,179)" stroke-linejoin="round" d="M 2460,14557 L 2460,14407"/>
 <path fill="none" stroke="rgb(179,179,179)" stroke-linejoin="round" d="M 3207,14557 L 3207,14407"/>
 <path fill="none" stroke="rgb(179,179,179)" stroke-linejoin="round" d="M 3207,14557 L 3207,14407"/>
 <path fill="none" stroke="rgb(179,179,179)" stroke-linejoin="round" d="M 3954,14557 L 3954,14407"/>
 <path fill="none" stroke="rgb(179,179,179)" stroke-linejoin="round" d="M 3954,14557 L 3954,14407"/>
 <path fill="none" stroke="rgb(179,179,179)" stroke-linejoin="round" d="M 4700,14557 L 4700,14407"/>
 <path fill="none" stroke="rgb(179,179,179)" stroke-linejoin="round" d="M 4700,14557 L 4700,14407"/>
 <path fill="none" stroke="rgb(179,179,179)" stroke-linejoin="round" d="M 5447,14557 L 5447,14407"/>
 <path fill="none" stroke="rgb(179,179,179)" stroke-linejoin="round" d="M 5447,14557 L 5447,14407"/>
 <path fill="none" stroke="rgb(179,179,179)" stroke-linejoin="round" d="M 6194,14557 L 6194,14407"/>
 <path fill="none" stroke="rgb(179,179,179)" stroke-linejoin="round" d="M 6194,14557 L 6194,14407"/>
 <path fill="none" stroke="rgb(179,179,179)" stroke-linejoin="round" d="M 6940,14557 L 6940,14407"/>
 <path fill="none" stroke="rgb(179,179,179)" stroke-linejoin="round" d="M 6940,14557 L 6940,14407"/>
 <path fill="none" stroke="rgb(179,179,179)" stroke-linejoin="round" d="M 7687,14557 L 7687,14407"/>
 <path fill="none" stroke="rgb(179,179,179)" stroke-linejoin="round" d="M 7687,14557 L 7687,14407"/>
 <path fill="none" stroke="rgb(179,179,179)" stroke-linejoin="round" d="M 8434,14557 L 8434,14407"/>
 <path fill="none" stroke="rgb(179,179,179)" stroke-linejoin="round" d="M 8434,14557 L 8434,14407"/>
 <path fill="none" stroke="rgb(179,179,179)" stroke-linejoin="round" d="M 9180,14557 L 9180,14407"/>
 <path fill="none" stroke="rgb(179,179,179)" stroke-linejoin="round" d="M 9180,14557 L 9180,14407"/>
 <path fill="none" stroke="rgb(179,179,179)" stroke-linejoin="round" d="M 9927,14557 L 9927,14407"/>
 <path fill="none" stroke="rgb(179,179,179)" stroke-linejoin="round" d="M 9927,14557 L 9927,14407"/>
 <path fill="none" stroke="rgb(179,179,179)" stroke-linejoin="round" d="M 10674,14557 L 10674,14407"/>
 <path fill="none" stroke="rgb(179,179,179)" stroke-linejoin="round" d="M 10674,14557 L 10674,14407"/>
 <path fill="none" stroke="rgb(179,179,179)" stroke-linejoin="round" d="M 11421,14557 L 11421,14407"/>
 <path fill="none" stroke="rgb(179,179,179)" stroke-linejoin="round" d="M 11421,14557 L 11421,14407"/>
 <path fill="none" stroke="rgb(179,179,179)" stroke-linejoin="round" d="M 12166,14557 L 12166,14407"/>
 <path fill="none" stroke="rgb(179,179,179)" stroke-linejoin="round" d="M 12166,14557 L 12166,14407"/>
 <path fill="none" stroke="rgb(179,179,179)" stroke-linejoin="round" d="M 12913,14557 L 12913,14407"/>
 <path fill="none" stroke="rgb(179,179,179)" stroke-linejoin="round" d="M 12913,14557 L 12913,14407"/>
 <path fill="none" stroke="rgb(179,179,179)" stroke-linejoin="round" d="M 13660,14557 L 13660,14407"/>
 <path fill="none" stroke="rgb(179,179,179)" stroke-linejoin="round" d="M 13660,14557 L 13660,14407"/>
 <path fill="none" stroke="rgb(179,179,179)" stroke-linejoin="round" d="M 14406,14557 L 14406,14407"/>
 <path fill="none" stroke="rgb(179,179,179)" stroke-linejoin="round" d="M 14406,14557 L 14406,14407"/>
 <path fill="none" stroke="rgb(179,179,179)" stroke-linejoin="round" d="M 15153,14557 L 15153,14407"/>
 <path fill="none" stroke="rgb(179,179,179)" stroke-linejoin="round" d="M 15153,14557 L 15153,14407"/>
 <path fill="none" stroke="rgb(179,179,179)" stroke-linejoin="round" d="M 15900,14557 L 15900,14407"/>
 <path fill="none" stroke="rgb(179,179,179)" stroke-linejoin="round" d="M 15900,14557 L 15900,14407"/>
 <path fill="none" stroke="rgb(179,179,179)" stroke-linejoin="round" d="M 16646,14557 L 16646,14407"/>
 <path fill="none" stroke="rgb(179,179,179)" stroke-linejoin="round" d="M 16646,14557 L 16646,14407"/>
 <path fill="none" stroke="rgb(179,179,179)" stroke-linejoin="round" d="M 17393,14557 L 17393,14407"/>
 <path fill="none" stroke="rgb(179,179,179)" stroke-linejoin="round" d="M 17393,14557 L 17393,14407"/>
 <path fill="none" stroke="rgb(179,179,179)" stroke-linejoin="round" d="M 18140,14557 L 18140,14407"/>
 <path fill="none" stroke="rgb(179,179,179)" stroke-linejoin="round" d="M 18140,14557 L 18140,14407"/>
 <path fill="none" stroke="rgb(179,179,179)" stroke-linejoin="round" d="M 18886,14557 L 18886,14407"/>
 <path fill="none" stroke="rgb(179,179,179)" stroke-linejoin="round" d="M 18886,14557 L 18886,14407"/>
 <path fill="none" stroke="rgb(179,179,179)" stroke-linejoin="round" d="M 19633,14557 L 19633,14407"/>
 <path fill="none" stroke="rgb(179,179,179)" stroke-linejoin="round" d="M 19633,14557 L 19633,14407"/>
 <path fill="none" stroke="rgb(179,179,179)" stroke-linejoin="round" d="M 1714,14407 L 19847,14407"/>
 <path fill="none" stroke="rgb(179,179,179)" stroke-linejoin="round" d="M 1564,14407 L 1714,14407"/>
 <path fill="none" stroke="rgb(179,179,179)" stroke-linejoin="round" d="M 1564,14407 L 1714,14407"/>
 <path fill="none" stroke="rgb(179,179,179)" stroke-linejoin="round" d="M 1564,13123 L 1714,13123"/>
 <path fill="none" stroke="rgb(179,179,179)" stroke-linejoin="round" d="M 1564,13123 L 1714,13123"/>
 <path fill="none" stroke="rgb(179,179,179)" stroke-linejoin="round" d="M 1564,11840 L 1714,11840"/>
 <path fill="none" stroke="rgb(179,179,179)" stroke-linejoin="round" d="M 1564,11840 L 1714,11840"/>
 <path fill="none" stroke="rgb(179,179,179)" stroke-linejoin="round" d="M 1564,10557 L 1714,10557"/>
 <path fill="none" stroke="rgb(179,179,179)" stroke-linejoin="round" d="M 1564,10557 L 1714,10557"/>
 <path fill="none" stroke="rgb(179,179,179)" stroke-linejoin="round" d="M 1564,9274 L 1714,9274"/>
 <path fill="none" stroke="rgb(179,179,179)" stroke-linejoin="round" d="M 1564,9274 L 1714,9274"/>
 <path fill="none" stroke="rgb(179,179,179)" stroke-linejoin="round" d="M 1564,7992 L 1714,7992"/>
 <path fill="none" stroke="rgb(179,179,179)" stroke-linejoin="round" d="M 1564,7992 L 1714,7992"/>
 <path fill="none" stroke="rgb(179,179,179)" stroke-linejoin="round" d="M 1564,6709 L 1714,6709"/>
 <path fill="none" stroke="rgb(179,179,179)" stroke-linejoin="round" d="M 1564,6709 L 1714,6709"/>
 <path fill="none" stroke="rgb(179,179,179)" stroke-linejoin="round" d="M 1564,5426 L 1714,5426"/>
 <path fill="none" stroke="rgb(179,179,179)" stroke-linejoin="round" d="M 1564,5426 L 1714,5426"/>
 <path fill="none" stroke="rgb(179,179,179)" stroke-linejoin="round" d="M 1564,4143 L 1714,4143"/>
 <path fill="none" stroke="rgb(179,179,179)" stroke-linejoin="round" d="M 1564,4143 L 1714,4143"/>
 <path fill="none" stroke="rgb(179,179,179)" stroke-linejoin="round" d="M 1564,2860 L 1714,2860"/>
 <path fill="none" stroke="rgb(179,179,179)" stroke-linejoin="round" d="M 1564,2860 L 1714,2860"/>
 <path fill="none" stroke="rgb(179,179,179)" stroke-linejoin="round" d="M 1564,1577 L 1714,1577"/>
 <path fill="none" stroke="rgb(179,179,179)" stroke-linejoin="round" d="M 1564,1577 L 1714,1577"/>
 <path fill="none" stroke="rgb(179,179,179)" stroke-linejoin="round" d="M 1714,14407 L 1714,1577"/>
 <path fill="none" stroke="rgb(0,69,134)" stroke-width="80" stroke-linejoin="round" d="M 1767,3715 L 1778,1577"/>
 <path fill="none" stroke="rgb(0,69,134)" stroke-width="80" stroke-linejoin="round" d="M 3270,1577 L 3367,3751 3474,6244 3580,7316 3687,8301 3794,9611 3900,10783 4007,11474 4114,11831 4220,12187 4327,12402 4434,12489 4540,12489 4647,12577 4754,12548 4860,12459 4967,12502 5074,12357 5180,12322 5287,12270 5394,12171 5500,12121 5607,12017 5714,11945 5820,11908 5927,11890 6034,11875 6140,11826 6247,11825 6354,11786 6460,11743 6567,11680 6674,11598 6780,11574 6887,11547 6994,11550 7100,11541 7207,11524 7314,11496 7420,11487 7527,11461 7634,11474 7740,11475 7847,11474 7954,11462 8060,11463 8167,11466 8274,11452 8380,11460 8487,11444 8594,11440 8700,11435 8807,11419 8914,11414 9020,11408 9127,11390 9234,11395 9340,11374 9447,11353 9554,11344 9660,11335 9767,11339 9874,11342 9980,11345 10087,11348 10194,11328 10300,11318 10407,11308 10514,11310 10620,11288 10727,11292 10834,11282 10941,11283 11047,11284 11154,11273 11261,11276 11367,11258 11474,11268 11581,11266 11687,11250 11794,11258 11900,11266 12006,11274 12113,11279 12220,11271 12326,11264 12433,11256 12540,11254 12646,11257 12753,11263 12860,11269 12966,11276 13073,11281 13180,11274 13286,11263 13393,11285 13500,11289 13606,11300 13713,11307 13820,11317 13926,11316 14033,11318 14140,11317 14246,11327 14353,11341 14460,11356 14566,11365 14673,11364 14780,11377 14886,11378 14993,11392 15100,11404 15206,11412 15313,11421 15420,11430 15526,11440 15633,11454 15740,11466 15846,11472 15953,11483 16060,11477 16166,11477 16273,11489 16380,11475 16486,11474 16593,11486 16700,11490 16806,11500 16913,11510 17020,11521 17126,11513 17233,11507 17340,11511 17446,11515 17553,11515 17660,11525 17766,11529 17873,11540 17980,11540 18086,11547 18193,11557 18300,11560 18406,11558 18513,11566 18620,11579 18726,11582 18833,11590 18940,11597 19046,11602 19153,11611 19260,11615 19366,11626 19473,11625 19580,11639 19686,11641 19793,11646"/>
 <path fill="none" stroke="rgb(255,66,14)" stroke-width="80" stroke-linejoin="round" d="M 1767,4143 L 1782,1577"/>
 <path fill="none" stroke="rgb(255,66,14)" stroke-width="80" stroke-linejoin="round" d="M 3149,1577 L 3154,1962 3260,5029 3367,6706 3474,7447 3580,8912 3687,10047 3794,10783 3900,11718 4007,11934 4114,12187 4220,12551 4327,12558 4434,12636 4540,12635 4647,12694 4754,12617 4860,12502 4967,12511 5074,12421 5180,12352 5287,12300 5394,12201 5500,12143 5607,12038 5714,11970 5820,11936 5927,11935 6034,11900 6140,11869 6247,11872 6354,11786 6460,11766 6567,11710 6674,11630 6780,11602 6887,11591 6994,11581 7100,11564 7207,11561 7314,11525 7420,11513 7527,11486 7634,11501 7740,11499 7847,11487 7954,11475 8060,11478 8167,11477 8274,11460 8380,11468 8487,11453 8594,11447 8700,11443 8807,11426 8914,11420 9020,11414 9127,11395 9234,11398 9340,11377 9447,11356 9554,11347 9660,11339 9767,11342 9874,11345 9980,11348 10087,11352 10194,11330 10300,11319 10407,11310 10514,11312 10620,11292 10727,11294 10834,11283 10941,11284 11047,11285 11154,11276 11261,11282 11367,11268 11474,11278 11581,11274 11687,11258 11794,11266 11900,11274 12006,11279 12113,11283 12220,11276 12326,11268 12433,11265 12540,11257 12646,11263 12753,11269 12860,11276 12966,11281 13073,11286 13180,11286 13286,11285 13393,11301 13500,11300 13606,11307 13713,11317 13820,11327 13926,11329 14033,11328 14140,11327 14246,11341 14353,11356 14460,11365 14566,11375 14673,11377 14780,11389 14886,11392 14993,11404 15100,11412 15206,11421 15313,11430 15420,11440 15526,11454 15633,11466 15740,11482 15846,11483 15953,11487 16060,11488 16166,11489 16273,11496 16380,11484 16486,11486 16593,11500 16700,11500 16806,11510 16913,11521 17020,11533 17126,11527 17233,11521 17340,11525 17446,11525 17553,11525 17660,11539 17766,11540 17873,11549 17980,11547 18086,11557 18193,11570 18300,11567 18406,11566 18513,11579 18620,11591 18726,11590 18833,11597 18940,11602 19046,11611 19153,11624 19260,11626 19366,11635 19473,11648 19580,11650 19686,11646 19793,11651"/>
 <path fill="none" stroke="rgb(255,211,32)" stroke-width="80" stroke-linejoin="round" d="M 1767,4903 L 1787,1577"/>
 <path fill="none" stroke="rgb(255,211,32)" stroke-width="80" stroke-linejoin="round" d="M 3024,1577 L 3047,4036 3154,5456 3260,7630 3367,7841 3474,9014 3580,10483 3687,11112 3794,11718 3900,12140 4007,12275 4114,12551 4220,12694 4327,12699 4434,12772 4540,12748 4647,12757 4754,12656 4860,12511 4967,12570 5074,12450 5180,12380 5287,12328 5394,12221 5500,12163 5607,12062 5714,11997 5820,11980 5927,11960 6034,11942 6140,11915 6247,11872 6354,11808 6460,11795 6567,11741 6674,11657 6780,11645 6887,11622 6994,11604 7100,11601 7207,11590 7314,11551 7420,11537 7527,11513 7634,11524 7740,11512 7847,11500 7954,11490 8060,11489 8167,11484 8274,11468 8380,11477 8487,11460 8594,11455 8700,11450 8807,11432 8914,11426 9020,11419 9127,11398 9234,11401 9340,11380 9447,11359 9554,11351 9660,11342 9767,11345 9874,11348 9980,11352 10087,11354 10194,11331 10300,11322 10407,11312 10514,11316 10620,11294 10727,11295 10834,11284 10941,11285 11047,11288 11154,11282 11261,11291 11367,11278 11474,11286 11581,11281 11687,11266 11794,11274 11900,11279 12006,11283 12113,11287 12220,11279 12326,11277 12433,11269 12540,11263 12646,11269 12753,11276 12860,11281 12966,11286 13073,11297 13180,11307 13286,11301 13393,11311 13500,11307 13606,11317 13713,11327 13820,11340 13926,11339 14033,11338 14140,11341 14246,11356 14353,11365 14460,11375 14566,11388 14673,11389 14780,11403 14886,11404 14993,11412 15100,11421 15206,11430 15313,11440 15420,11454 15526,11466 15633,11482 15740,11493 15846,11487 15953,11498 16060,11499 16166,11496 16273,11505 16380,11496 16486,11500 16593,11510 16700,11510 16806,11521 16913,11533 17020,11547 17126,11541 17233,11535 17340,11535 17446,11535 17553,11539 17660,11549 17766,11549 17873,11557 17980,11557 18086,11570 18193,11577 18300,11575 18406,11579 18513,11591 18620,11599 18726,11597 18833,11602 18940,11611 19046,11624 19153,11636 19260,11635 19366,11657 19473,11659 19580,11655 19686,11651 19793,11660"/>
 <path fill="none" stroke="rgb(87,157,28)" stroke-width="80" stroke-linejoin="round" d="M 1767,5243 L 1788,1577"/>
 <path fill="none" stroke="rgb(87,157,28)" stroke-width="80" stroke-linejoin="round" d="M 2904,1577 L 2940,4036 3047,6948 3154,7938 3260,8628 3367,9319 3474,10556 3580,11442 3687,11963 3794,12140 3900,12453 4007,12625 4114,12694 4220,12826 4327,12830 4434,12876 4540,12810 4647,12794 4754,12665 4860,12570 4967,12597 5074,12477 5180,12407 5287,12347 5394,12241 5500,12186 5607,12088 5714,12040 5820,12004 5927,12000 6034,11987 6140,11915 6247,11893 6354,11837 6460,11824 6567,11767 6674,11699 6780,11675 6887,11644 6994,11640 7100,11629 7207,11615 7314,11576 7420,11564 7527,11536 7634,11537 7740,11525 7847,11515 7954,11501 8060,11497 8167,11493 8274,11477 8380,11484 8487,11467 8594,11463 8700,11457 8807,11439 8914,11432 9020,11422 9127,11401 9234,11404 9340,11383 9447,11363 9554,11354 9660,11345 9767,11348 9874,11352 9980,11354 10087,11355 10194,11334 10300,11324 10407,11316 10514,11318 10620,11295 10727,11296 10834,11285 10941,11288 11047,11293 11154,11291 11261,11301 11367,11286 11474,11293 11581,11290 11687,11274 11794,11279 11900,11283 12006,11287 12113,11291 12220,11288 12326,11280 12433,11274 12540,11269 12646,11276 12753,11281 12860,11286 12966,11297 13073,11319 13180,11323 13286,11311 13393,11318 13500,11317 13606,11327 13713,11340 13820,11350 13926,11349 14033,11352 14140,11356 14246,11365 14353,11375 14460,11388 14566,11399 14673,11403 14780,11415 14886,11412 14993,11421 15100,11430 15206,11440 15313,11454 15420,11466 15526,11482 15633,11493 15740,11497 15846,11498 15953,11510 16060,11506 16166,11505 16273,11516 16380,11510 16486,11510 16593,11520 16700,11521 16806,11533 16913,11547 17020,11561 17126,11554 17233,11545 17340,11545 17446,11548 17553,11549 17660,11559 17766,11557 17873,11566 17980,11570 18086,11577 18193,11585 18300,11588 18406,11591 18513,11599 18620,11606 18726,11602 18833,11611 18940,11624 19046,11636 19153,11644 19260,11657 19366,11668 19473,11664 19580,11660 19686,11660 19793,11664"/>
 <path fill="none" stroke="rgb(126,0,33)" stroke-width="80" stroke-linejoin="round" d="M 1767,5243 L 1788,1577"/>
 <path fill="none" stroke="rgb(126,0,33)" stroke-width="80" stroke-linejoin="round" d="M 2782,1577 L 2834,6110 2940,6948 3047,9015 3154,8891 3260,9929 3367,10774 3474,11497 3580,12207 3687,12346 3794,12453 3900,12774 4007,12763 4114,12826 4220,12947 4327,12930 4434,12933 4540,12845 4647,12801 4754,12719 4860,12597 4967,12622 5074,12502 5180,12426 5287,12366 5394,12263 5500,12210 5607,12129 5714,12063 5820,12044 5927,12044 6034,11987 6140,11936 6247,11921 6354,11866 6460,11849 6567,11807 6674,11729 6780,11697 6887,11679 6994,11668 7100,11654 7207,11639 7314,11602 7420,11586 7527,11549 7634,11550 7740,11540 7847,11526 7954,11509 8060,11505 8167,11501 8274,11484 8380,11491 8487,11475 8594,11469 8700,11463 8807,11444 8914,11434 9020,11425 9127,11404 9234,11407 9340,11387 9447,11366 9554,11357 9660,11348 9767,11352 9874,11354 9980,11355 10087,11358 10194,11336 10300,11327 10407,11318 10514,11319 10620,11296 10727,11297 10834,11288 10941,11293 11047,11303 11154,11301 11261,11309 11367,11293 11474,11301 11581,11297 11687,11279 11794,11283 11900,11287 12006,11291 12113,11300 12220,11292 12326,11286 12433,11281 12540,11276 12646,11281 12753,11286 12860,11297 12966,11319 13073,11334 13180,11334 13286,11318 13393,11328 13500,11327 13606,11340 13713,11350 13820,11360 13926,11363 14033,11367 14140,11365 14246,11375 14353,11388 14460,11399 14566,11413 14673,11415 14780,11423 14886,11421 14993,11430 15100,11440 15206,11454 15313,11466 15420,11482 15526,11493 15633,11497 15740,11508 15846,11510 15953,11516 16060,11515 16166,11516 16273,11530 16380,11520 16486,11520 16593,11531 16700,11533 16806,11547 16913,11561 17020,11574 17126,11564 17233,11554 17340,11558 17446,11559 17553,11559 17660,11566 17766,11566 17873,11579 17980,11577 18086,11585 18193,11597 18300,11600 18406,11599 18513,11606 18620,11611 18726,11611 18833,11624 18940,11636 19046,11644 19153,11666 19260,11668 19366,11673 19473,11669 19580,11669 19686,11664 19793,11671"/>
 <path fill="none" stroke="rgb(131,202,255)" stroke-width="80" stroke-linejoin="round" d="M 1767,5243 L 1788,1577"/>
 <path fill="none" stroke="rgb(131,202,255)" stroke-width="80" stroke-linejoin="round" d="M 2595,1577 L 2620,3715 2727,6110 2834,8439 2940,9015 3047,9810 3154,10133 3260,11210 3367,11661 3474,12248 3580,12552 3687,12631 3794,12774 3900,12900 4007,12889 4114,12947 4220,13040 4327,12986 4434,12965 4540,12852 4647,12851 4754,12743 4860,12622 4967,12645 5074,12520 5180,12444 5287,12386 5394,12287 5500,12249 5607,12152 5714,12102 5820,12087 5927,12044 6034,12007 6140,11963 6247,11949 6354,11890 6460,11888 6567,11836 6674,11750 6780,11732 6887,11707 6994,11693 7100,11678 7207,11665 7314,11624 7420,11599 7527,11562 7634,11565 7740,11551 7847,11533 7954,11517 8060,11514 8167,11508 8274,11491 8380,11499 8487,11481 8594,11475 8700,11468 8807,11446 8914,11437 9020,11428 9127,11407 9234,11411 9340,11390 9447,11369 9554,11359 9660,11352 9767,11354 9874,11355 9980,11358 10087,11359 10194,11339 10300,11330 10407,11319 10514,11319 10620,11297 10727,11300 10834,11293 10941,11303 11047,11313 11154,11309 11261,11316 11367,11301 11474,11309 11581,11303 11687,11283 11794,11287 11900,11291 12006,11300 12113,11303 12220,11297 12326,11292 12433,11288 12540,11281 12646,11286 12753,11297 12860,11319 12966,11334 13073,11345 13180,11341 13286,11328 13393,11338 13500,11340 13606,11350 13713,11360 13820,11374 13926,11377 14033,11376 14140,11375 14246,11388 14353,11399 14460,11413 14566,11425 14673,11423 14780,11432 14886,11430 14993,11440 15100,11454 15206,11466 15313,11482 15420,11493 15526,11497 15633,11508 15740,11520 15846,11516 15953,11525 16060,11527 16166,11530 16273,11540 16380,11530 16486,11531 16593,11543 16700,11547 16806,11561 16913,11574 17020,11584 17126,11574 17233,11568 17340,11569 17446,11569 17553,11566 17660,11576 17766,11579 17873,11586 17980,11585 18086,11597 18193,11610 18300,11608 18406,11606 18513,11611 18620,11620 18726,11624 18833,11636 18940,11644 19046,11666 19153,11677 19260,11673 19366,11678 19473,11678 19580,11673 19686,11671 19793,11677"/>
 <path fill="none" stroke="rgb(49,64,4)" stroke-width="80" stroke-linejoin="round" d="M 1767,5243 L 1788,1577"/>
 <path fill="none" stroke="rgb(49,64,4)" stroke-width="80" stroke-linejoin="round" d="M 2464,1577 L 2514,4344 2620,9369 2727,8439 2834,10094 2940,9810 3047,10845 3154,11355 3260,11991 3367,12370 3474,12586 3580,12808 3687,12922 3794,12900 3900,13015 4007,13005 4114,13040 4220,13091 4327,13017 4434,12972 4540,12901 4647,12874 4754,12766 4860,12645 4967,12662 5074,12537 5180,12463 5287,12409 5394,12324 5500,12271 5607,12190 5714,12144 5820,12087 5927,12064 6034,12033 6140,11991 6247,11973 6354,11929 6460,11916 6567,11857 6674,11784 6780,11759 6887,11731 6994,11716 7100,11703 7207,11687 7314,11637 7420,11612 7527,11577 7634,11575 7740,11558 7847,11542 7954,11526 8060,11521 8167,11516 8274,11499 8380,11505 8487,11487 8594,11480 8700,11470 8807,11449 8914,11440 9020,11431 9127,11411 9234,11414 9340,11393 9447,11371 9554,11363 9660,11354 9767,11355 9874,11358 9980,11359 10087,11363 10194,11342 10300,11331 10407,11319 10514,11320 10620,11300 10727,11305 10834,11303 10941,11313 11047,11321 11154,11316 11261,11325 11367,11309 11474,11314 11581,11306 11687,11287 11794,11291 11900,11300 12006,11303 12113,11309 12220,11304 12326,11299 12433,11292 12540,11286 12646,11297 12753,11319 12860,11334 12966,11345 13073,11352 13180,11350 13286,11338 13393,11351 13500,11350 13606,11360 13713,11374 13820,11388 13926,11387 14033,11386 14140,11388 14246,11399 14353,11413 14460,11425 14566,11434 14673,11432 14780,11440 14886,11440 14993,11454 15100,11466 15206,11482 15313,11493 15420,11497 15526,11508 15633,11520 15740,11526 15846,11525 15953,11537 16060,11541 16166,11540 16273,11550 16380,11541 16486,11543 16593,11557 16700,11561 16806,11574 16913,11584 17020,11593 17126,11587 17233,11578 17340,11578 17446,11576 17553,11576 17660,11589 17766,11586 17873,11594 17980,11597 18086,11610 18193,11618 18300,11615 18406,11611 18513,11620 18620,11633 18726,11636 18833,11644 18940,11666 19046,11677 19153,11682 19260,11678 19366,11687 19473,11682 19580,11680 19686,11677 19793,11682"/>
 <path fill="none" stroke="rgb(174,207,0)" stroke-width="80" stroke-linejoin="round" d="M 1767,5243 L 1789,1577"/>
 <path fill="none" stroke="rgb(174,207,0)" stroke-width="80" stroke-linejoin="round" d="M 2344,1577 L 2407,6231 2514,9665 2620,10783 2727,10094 2834,10729 2940,10845 3047,11864 3154,12101 3260,12614 3367,12689 3474,12838 3580,13070 3687,13037 3794,13015 3900,13122 4007,13094 4114,13091 4220,13120 4327,13023 4434,13017 4540,12923 4647,12895 4754,12788 4860,12662 4967,12677 5074,12556 5180,12485 5287,12444 5394,12345 5500,12307 5607,12230 5714,12144 5820,12106 5927,12089 6034,12060 6140,12014 6247,12010 6354,11956 6460,11936 6567,11889 6674,11811 6780,11783 6887,11754 6994,11741 7100,11724 7207,11699 7314,11649 7420,11626 7527,11587 7634,11582 7740,11566 7847,11550 7954,11533 8060,11528 8167,11523 8274,11505 8380,11511 8487,11492 8594,11482 8700,11473 8807,11452 8914,11443 9020,11435 9127,11414 9234,11416 9340,11395 9447,11375 9554,11366 9660,11355 9767,11358 9874,11359 9980,11363 10087,11365 10194,11342 10300,11331 10407,11320 10514,11324 10620,11305 10727,11315 10834,11313 10941,11321 11047,11328 11154,11325 11261,11332 11367,11314 11474,11318 11581,11310 11687,11291 11794,11300 11900,11303 12006,11309 12113,11315 12220,11311 12326,11304 12433,11297 12540,11297 12646,11319 12753,11334 12860,11345 12966,11352 13073,11361 13180,11360 13286,11351 13393,11361 13500,11360 13606,11374 13713,11388 13820,11398 13926,11397 14033,11399 14140,11399 14246,11413 14353,11425 14460,11434 14566,11442 14673,11440 14780,11451 14886,11454 14993,11466 15100,11482 15206,11493 15313,11497 15420,11508 15526,11520 15633,11526 15740,11535 15846,11537 15953,11551 16060,11550 16166,11550 16273,11561 16380,11553 16486,11557 16593,11570 16700,11574 16806,11584 16913,11593 17020,11607 17126,11598 17233,11588 17340,11586 17446,11585 17553,11589 17660,11596 17766,11594 17873,11607 17980,11610 18086,11618 18193,11625 18300,11621 18406,11620 18513,11633 18620,11645 18726,11644 18833,11666 18940,11677 19046,11682 19153,11687 19260,11687 19366,11691 19473,11689 19580,11686 19686,11682 19793,11687"/>
 <path fill="none" stroke="rgb(75,31,111)" stroke-width="80" stroke-linejoin="round" d="M 1767,5559 L 1792,1577"/>
 <path fill="none" stroke="rgb(75,31,111)" stroke-width="80" stroke-linejoin="round" d="M 2225,1577 L 2300,6231 2407,10554 2514,10996 2620,11788 2727,10729 2834,11557 2940,11864 3047,12485 3154,12696 3260,12895 3367,12927 3474,13095 3580,13174 3687,13142 3794,13122 3900,13204 4007,13143 4114,13120 4220,13126 4327,13066 4434,13037 4540,12943 4647,12915 4754,12803 4860,12677 4967,12695 5074,12576 5180,12519 5287,12464 5394,12380 5500,12345 5607,12230 5714,12163 5820,12132 5927,12115 6034,12083 6140,12051 6247,12037 6354,11976 6460,11968 6567,11915 6674,11834 6780,11805 6887,11779 6994,11762 7100,11736 7207,11711 7314,11663 7420,11637 7527,11595 7634,11591 7740,11575 7847,11557 7954,11540 8060,11535 8167,11529 8274,11511 8380,11516 8487,11494 8594,11485 8700,11476 8807,11455 8914,11447 9020,11438 9127,11416 9234,11419 9340,11399 9447,11378 9554,11367 9660,11358 9767,11359 9874,11363 9980,11365 10087,11366 10194,11343 10300,11332 10407,11324 10514,11329 10620,11315 10727,11325 10834,11321 10941,11328 11047,11336 11154,11332 11261,11337 11367,11318 11474,11322 11581,11314 11687,11300 11794,11303 11900,11309 12006,11315 12113,11322 12220,11315 12326,11309 12433,11308 12540,11319 12646,11334 12753,11345 12860,11352 12966,11361 13073,11371 13180,11373 13286,11361 13393,11371 13500,11374 13606,11388 13713,11398 13820,11408 13926,11410 14033,11410 14140,11413 14246,11425 14353,11434 14460,11442 14566,11451 14673,11451 14780,11465 14886,11466 14993,11482 15100,11493 15206,11497 15313,11508 15420,11520 15526,11526 15633,11535 15740,11547 15846,11551 15953,11560 16060,11560 16166,11561 16273,11573 16380,11567 16486,11570 16593,11584 16700,11584 16806,11593 16913,11607 17020,11617 17126,11607 17233,11595 17340,11595 17446,11598 17553,11596 17660,11604 17766,11607 17873,11619 17980,11618 18086,11625 18193,11630 18300,11630 18406,11633 18513,11645 18620,11653 18726,11666 18833,11677 18940,11682 19046,11687 19153,11696 19260,11691 19366,11698 19473,11695 19580,11691 19686,11687 19793,11693"/>
 <path fill="none" stroke="rgb(255,149,14)" stroke-width="80" stroke-linejoin="round" d="M 1767,5854 L 1795,1577"/>
 <path fill="none" stroke="rgb(255,149,14)" stroke-width="80" stroke-linejoin="round" d="M 2084,1577 L 2087,2070 2194,6860 2300,10554 2407,11636 2514,11942 2620,12174 2727,11557 2834,12372 2940,12485 3047,12981 3154,12964 3260,13104 3367,13169 3474,13197 3580,13268 3687,13239 3794,13204 3900,13249 4007,13171 4114,13126 4220,13166 4327,13086 4434,13056 4540,12962 4647,12929 4754,12817 4860,12695 4967,12714 5074,12609 5180,12538 5287,12496 5394,12416 5500,12345 5607,12248 5714,12188 5820,12157 5927,12138 6034,12119 6140,12077 6247,12056 6354,12007 6460,11993 6567,11937 6674,11856 6780,11829 6887,11799 6994,11774 7100,11749 7207,11725 7314,11674 7420,11644 7527,11603 7634,11599 7740,11581 7847,11564 7954,11547 8060,11541 8167,11535 8274,11516 8380,11518 8487,11497 8594,11488 8700,11479 8807,11459 8914,11450 9020,11440 9127,11419 9234,11423 9340,11402 9447,11379 9554,11370 9660,11359 9767,11363 9874,11365 9980,11366 10087,11367 10194,11344 10300,11336 10407,11329 10514,11339 10620,11325 10727,11333 10834,11328 10941,11336 11047,11344 11154,11337 11261,11341 11367,11322 11474,11326 11581,11323 11687,11303 11794,11309 11900,11315 12006,11322 12113,11326 12220,11320 12326,11320 12433,11330 12540,11334 12646,11345 12753,11352 12860,11361 12966,11371 13073,11384 13180,11383 13286,11371 13393,11385 13500,11388 13606,11398 13713,11408 13820,11420 13926,11421 14033,11424 14140,11425 14246,11434 14353,11442 14460,11451 14566,11461 14673,11465 14780,11477 14886,11482 14993,11493 15100,11497 15206,11508 15313,11520 15420,11526 15526,11535 15633,11547 15740,11561 15846,11560 15953,11570 16060,11571 16166,11573 16273,11586 16380,11580 16486,11584 16593,11594 16700,11593 16806,11607 16913,11617 17020,11626 17126,11614 17233,11604 17340,11608 17446,11605 17553,11604 17660,11616 17766,11619 17873,11627 17980,11625 18086,11630 18193,11639 18300,11642 18406,11645 18513,11653 18620,11675 18726,11677 18833,11682 18940,11687 19046,11696 19153,11700 19260,11698 19366,11704 19473,11700 19580,11696 19686,11693 19793,11699"/>
 <path fill="none" stroke="rgb(197,0,11)" stroke-width="80" stroke-linejoin="round" d="M 1767,6129 L 1796,1577"/>
 <path fill="none" stroke="rgb(197,0,11)" stroke-width="80" stroke-linejoin="round" d="M 1959,1577 L 1980,4538 2087,8117 2194,10851 2300,11636 2407,12404 2514,12305 2620,12677 2727,12372 2834,12869 2940,12981 3047,13204 3154,13163 3260,13318 3367,13265 3474,13289 3580,13356 3687,13313 3794,13249 3900,13274 4007,13177 4114,13166 4220,13184 4327,13104 4434,13074 4540,12976 4647,12942 4754,12833 4860,12714 4967,12744 5074,12627 5180,12569 5287,12531 5394,12416 5500,12362 5607,12272 5714,12213 5820,12179 5927,12173 6034,12144 6140,12096 6247,12086 6354,12032 6460,12014 6567,11958 6674,11880 6780,11850 6887,11811 6994,11786 7100,11762 7207,11735 7314,11681 7420,11652 7527,11611 7634,11606 7740,11589 7847,11572 7954,11553 8060,11547 8167,11540 8274,11518 8380,11522 8487,11500 8594,11491 8700,11483 8807,11462 8914,11452 9020,11443 9127,11423 9234,11426 9340,11403 9447,11382 9554,11371 9660,11363 9767,11365 9874,11366 9980,11367 10087,11368 10194,11348 10300,11341 10407,11339 10514,11348 10620,11333 10727,11340 10834,11336 10941,11344 11047,11349 11154,11341 11261,11345 11367,11326 11474,11334 11581,11326 11687,11309 11794,11315 11900,11322 12006,11326 12113,11332 12220,11331 12326,11341 12433,11346 12540,11345 12646,11352 12753,11361 12860,11371 12966,11384 13073,11394 13180,11393 13286,11385 13393,11399 13500,11398 13606,11408 13713,11420 13820,11432 13926,11435 14033,11436 14140,11434 14246,11442 14353,11451 14460,11461 14566,11475 14673,11477 14780,11492 14886,11493 14993,11497 15100,11508 15206,11520 15313,11526 15420,11535 15526,11547 15633,11561 15740,11570 15846,11570 15953,11581 16060,11583 16166,11586 16273,11600 16380,11594 16486,11594 16593,11603 16700,11607 16806,11617 16913,11626 17020,11634 17126,11624 17233,11617 17340,11615 17446,11613 17553,11616 17660,11629 17766,11627 17873,11634 17980,11630 18086,11639 18193,11652 18300,11654 18406,11653 18513,11675 18620,11686 18726,11682 18833,11687 18940,11696 19046,11700 19153,11707 19260,11704 19366,11709 19473,11705 19580,11702 19686,11699 19793,11707"/>
 <path fill="none" stroke="rgb(0,132,209)" stroke-width="80" stroke-linejoin="round" d="M 1767,6129 L 1874,7005 1980,9375 2087,11443 2194,11849 2300,12404 2407,12699 2514,12778 2620,13171 2727,12869 2834,13266 2940,13204 3047,13371 3154,13367 3260,13402 3367,13353 3474,13375 3580,13422 3687,13354 3794,13274 3900,13279 4007,13215 4114,13184 4220,13200 4327,13121 4434,13086 4540,12989 4647,12957 4754,12851 4860,12744 4967,12760 5074,12657 5180,12602 5287,12531 5394,12433 5500,12384 5607,12296 5714,12234 5820,12213 5927,12197 6034,12162 6140,12125 6247,12109 6354,12053 6460,12035 6567,11981 6674,11900 6780,11861 6887,11823 6994,11799 7100,11772 7207,11742 7314,11688 7420,11660 7527,11618 7634,11613 7740,11596 7847,11577 7954,11559 8060,11552 8167,11542 8274,11522 8380,11524 8487,11503 8594,11495 8700,11485 8807,11464 8914,11455 9020,11447 9127,11426 9234,11427 9340,11405 9447,11383 9554,11375 9660,11365 9767,11366 9874,11367 9980,11368 10087,11371 10194,11353 10300,11350 10407,11348 10514,11356 10620,11340 10727,11348 10834,11344 10941,11349 11047,11353 11154,11345 11261,11349 11367,11334 11474,11338 11581,11332 11687,11315 11794,11322 11900,11326 12006,11332 12113,11343 12220,11353 12326,11357 12433,11356 12540,11352 12646,11361 12753,11371 12860,11384 12966,11394 13073,11404 13180,11407 13286,11399 13393,11409 13500,11408 13606,11420 13713,11432 13820,11445 13926,11447 14033,11444 14140,11442 14246,11451 14353,11461 14460,11475 14566,11487 14673,11492 14780,11504 14886,11497 14993,11508 15100,11520 15206,11526 15313,11535 15420,11547 15526,11561 15633,11570 15740,11580 15846,11581 15953,11593 16060,11596 16166,11600 16273,11613 16380,11603 16486,11603 16593,11616 16700,11617 16806,11626 16913,11634 17020,11643 17126,11636 17233,11624 17340,11623 17446,11626 17553,11629 17660,11636 17766,11634 17873,11639 17980,11639 18086,11652 18193,11663 18300,11662 18406,11675 18513,11686 18620,11691 18726,11687 18833,11696 18940,11700 19046,11707 19153,11712 19260,11709 19366,11713 19473,11711 19580,11708 19686,11707 19793,11711"/>
 <path fill="none" stroke="rgb(0,69,134)" stroke-width="80" stroke-linejoin="round" d="M 1767,11939 L 1874,10633 1980,12036 2087,12275 2194,12558 2300,12699 2407,13084 2514,13244 2620,13473 2727,13266 2834,13445 2940,13371 3047,13541 3154,13448 3260,13479 3367,13433 3474,13441 3580,13459 3687,13377 3794,13279 3900,13315 4007,13232 4114,13200 4220,13216 4327,13133 4434,13098 4540,13003 4647,12973 4754,12878 4860,12760 4967,12788 5074,12688 5180,12602 5287,12547 5394,12455 5500,12407 5607,12317 5714,12268 5820,12237 5927,12215 6034,12191 6140,12148 6247,12130 6354,12073 6460,12057 6567,12000 6674,11911 6780,11873 6887,11836 6994,11809 7100,11779 7207,11750 7314,11697 7420,11667 7527,11625 7634,11620 7740,11602 7847,11583 7954,11564 8060,11554 8167,11546 8274,11524 8380,11527 8487,11507 8594,11497 8700,11488 8807,11467 8914,11459 9020,11449 9127,11427 9234,11429 9340,11407 9447,11387 9554,11377 9660,11366 9767,11367 9874,11368 9980,11371 10087,11376 10194,11362 10300,11360 10407,11356 10514,11363 10620,11348 10727,11355 10834,11349 10941,11353 11047,11357 11154,11349 11261,11358 11367,11338 11474,11343 11581,11338 11687,11322 11794,11326 11900,11332 12006,11343 12113,11364 12220,11368 12326,11367 12433,11363 12540,11361 12646,11371 12753,11384 12860,11394 12966,11404 13073,11417 13180,11421 13286,11409 13393,11419 13500,11420 13606,11432 13713,11445 13820,11457 13926,11455 14033,11453 14140,11451 14246,11461 14353,11475 14460,11487 14566,11503 14673,11504 14780,11508 14886,11508 14993,11520 15100,11526 15206,11535 15313,11547 15420,11561 15526,11570 15633,11580 15740,11591 15846,11593 15953,11606 16060,11610 16166,11613 16273,11623 16380,11613 16486,11616 16593,11627 16700,11626 16806,11634 16913,11643 17020,11655 17126,11643 17233,11632 17340,11635 17446,11638 17553,11636 17660,11643 17766,11639 17873,11648 17980,11652 18086,11663 18193,11671 18300,11684 18406,11686 18513,11691 18620,11696 18726,11696 18833,11700 18940,11707 19046,11712 19153,11718 19260,11713 19366,11720 19473,11717 19580,11716 19686,11711 19793,11719"/>
 <path fill="none" stroke="rgb(255,66,14)" stroke-width="80" stroke-linejoin="round" d="M 1767,13149 L 1874,12629 1980,12701 2087,12866 2194,12831 2300,13084 2407,13462 2514,13528 2620,13714 2727,13445 2834,13578 2940,13541 3047,13608 3154,13521 3260,13550 3367,13495 3474,13477 3580,13480 3687,13382 3794,13315 3900,13330 4007,13249 4114,13216 4220,13227 4327,13145 4434,13111 4540,13019 4647,12998 4754,12894 4860,12788 4967,12817 5074,12688 5180,12618 5287,12567 5394,12477 5500,12427 5607,12349 5714,12291 5820,12255 5927,12243 6034,12213 6140,12169 6247,12149 6354,12094 6460,12075 6567,12011 6674,11923 6780,11886 6887,11846 6994,11816 7100,11786 7207,11758 7314,11703 7420,11674 7527,11632 7634,11626 7740,11607 7847,11588 7954,11566 8060,11558 8167,11548 8274,11527 8380,11531 8487,11509 8594,11500 8700,11491 8807,11471 8914,11461 9020,11451 9127,11429 9234,11431 9340,11411 9447,11389 9554,11378 9660,11367 9767,11368 9874,11371 9980,11376 10087,11386 10194,11372 10300,11368 10407,11363 10514,11371 10620,11355 10727,11361 10834,11353 10941,11357 11047,11360 11154,11358 11261,11361 11367,11343 11474,11350 11581,11345 11687,11326 11794,11332 11900,11343 12006,11364 12113,11379 12220,11378 12326,11374 12433,11372 12540,11371 12646,11384 12753,11394 12860,11404 12966,11417 13073,11432 13180,11431 13286,11419 13393,11431 13500,11432 13606,11445 13713,11457 13820,11466 13926,11464 14033,11461 14140,11461 14246,11475 14353,11487 14460,11503 14566,11514 14673,11508 14780,11518 14886,11520 14993,11526 15100,11535 15206,11547 15313,11561 15420,11570 15526,11580 15633,11591 15740,11602 15846,11606 15953,11620 16060,11623 16166,11623 16273,11632 16380,11626 16486,11627 16593,11636 16700,11634 16806,11643 16913,11655 17020,11662 17126,11651 17233,11645 17340,11647 17446,11646 17553,11643 17660,11649 17766,11648 17873,11661 17980,11663 18086,11671 18193,11693 18300,11695 18406,11691 18513,11696 18620,11705 18726,11700 18833,11707 18940,11712 19046,11718 19153,11722 19260,11720 19366,11726 19473,11725 19580,11720 19686,11719 19793,11726"/>
 <path fill="none" stroke="rgb(255,211,32)" stroke-width="80" stroke-linejoin="round" d="M 1767,13814 L 1874,13128 1980,13174 2087,13093 2194,13185 2300,13462 2407,13693 2514,13755 2620,13823 2727,13578 2834,13714 2940,13608 3047,13669 3154,13589 3260,13605 3367,13529 3474,13497 3580,13484 3687,13414 3794,13330 3900,13345 4007,13264 4114,13227 4220,13238 4327,13157 4434,13125 4540,13043 4647,13012 4754,12919 4860,12817 4967,12817 5074,12703 5180,12637 5287,12588 5394,12495 5500,12457 5607,12371 5714,12308 5820,12282 5927,12265 6034,12233 6140,12188 6247,12170 6354,12113 6460,12086 6567,12022 6674,11935 6780,11895 6887,11853 6994,11823 7100,11794 7207,11764 7314,11710 7420,11681 7527,11638 7634,11632 7740,11612 7847,11590 7954,11570 8060,11560 8167,11551 8274,11531 8380,11533 8487,11512 8594,11503 8700,11495 8807,11473 8914,11462 9020,11453 9127,11431 9234,11434 9340,11413 9447,11390 9554,11379 9660,11368 9767,11371 9874,11376 9980,11386 10087,11395 10194,11379 10300,11375 10407,11371 10514,11379 10620,11361 10727,11364 10834,11357 10941,11360 11047,11369 11154,11361 11261,11366 11367,11350 11474,11356 11581,11349 11687,11332 11794,11343 11900,11364 12006,11379 12113,11390 12220,11386 12326,11384 12433,11382 12540,11384 12646,11394 12753,11404 12860,11417 12966,11432 13073,11441 13180,11440 13286,11431 13393,11442 13500,11445 13606,11457 13713,11466 13820,11474 13926,11472 14033,11472 14140,11475 14246,11487 14353,11503 14460,11514 14566,11518 14673,11518 14780,11530 14886,11526 14993,11535 15100,11547 15206,11561 15313,11570 15420,11580 15526,11591 15633,11602 15740,11616 15846,11620 15953,11633 16060,11633 16166,11632 16273,11645 16380,11636 16486,11636 16593,11643 16700,11643 16806,11655 16913,11662 17020,11670 17126,11663 17233,11657 17340,11655 17446,11653 17553,11649 17660,11658 17766,11661 17873,11672 17980,11671 18086,11693 18193,11704 18300,11700 18406,11696 18513,11705 18620,11709 18726,11707 18833,11712 18940,11718 19046,11722 19153,11729 19260,11726 19366,11734 19473,11729 19580,11728 19686,11726 19793,11731"/>
 <text class="TextShape" transform="rotate(-90 1883 15526)"><tspan class="TextParagraph" font-family="Liberation Sans, sans-serif" font-size="353px" font-weight="400"><tspan class="TextPosition" x="1883" y="15526"><tspan fill="rgb(0,0,0)" stroke="none">22.02</tspan></tspan></tspan></text>
 <text class="TextShape" transform="rotate(-90 2630 15526)"><tspan class="TextParagraph" font-family="Liberation Sans, sans-serif" font-size="353px" font-weight="400"><tspan class="TextPosition" x="2630" y="15526"><tspan fill="rgb(0,0,0)" stroke="none">29.02</tspan></tspan></tspan></text>
 <text class="TextShape" transform="rotate(-90 3376 15526)"><tspan class="TextParagraph" font-family="Liberation Sans, sans-serif" font-size="353px" font-weight="400"><tspan class="TextPosition" x="3376" y="15526"><tspan fill="rgb(0,0,0)" stroke="none">07.03</tspan></tspan></tspan></text>
 <text class="TextShape" transform="rotate(-90 4123 15526)"><tspan class="TextParagraph" font-family="Liberation Sans, sans-serif" font-size="353px" font-weight="400"><tspan class="TextPosition" x="4123" y="15526"><tspan fill="rgb(0,0,0)" stroke="none">14.03</tspan></tspan></tspan></text>
 <text class="TextShape" transform="rotate(-90 4870 15526)"><tspan class="TextParagraph" font-family="Liberation Sans, sans-serif" font-size="353px" font-weight="400"><tspan class="TextPosition" x="4870" y="15526"><tspan fill="rgb(0,0,0)" stroke="none">21.03</tspan></tspan></tspan></text>
 <text class="TextShape" transform="rotate(-90 5616 15526)"><tspan class="TextParagraph" font-family="Liberation Sans, sans-serif" font-size="353px" font-weight="400"><tspan class="TextPosition" x="5616" y="15526"><tspan fill="rgb(0,0,0)" stroke="none">28.03</tspan></tspan></tspan></text>
 <text class="TextShape" transform="rotate(-90 6363 15526)"><tspan class="TextParagraph" font-family="Liberation Sans, sans-serif" font-size="353px" font-weight="400"><tspan class="TextPosition" x="6363" y="15526"><tspan fill="rgb(0,0,0)" stroke="none">04.04</tspan></tspan></tspan></text>
 <text class="TextShape" transform="rotate(-90 7110 15526)"><tspan class="TextParagraph" font-family="Liberation Sans, sans-serif" font-size="353px" font-weight="400"><tspan class="TextPosition" x="7110" y="15526"><tspan fill="rgb(0,0,0)" stroke="none">11.04</tspan></tspan></tspan></text>
 <text class="TextShape" transform="rotate(-90 7856 15526)"><tspan class="TextParagraph" font-family="Liberation Sans, sans-serif" font-size="353px" font-weight="400"><tspan class="TextPosition" x="7856" y="15526"><tspan fill="rgb(0,0,0)" stroke="none">18.04</tspan></tspan></tspan></text>
 <text class="TextShape" transform="rotate(-90 8603 15526)"><tspan class="TextParagraph" font-family="Liberation Sans, sans-serif" font-size="353px" font-weight="400"><tspan class="TextPosition" x="8603" y="15526"><tspan fill="rgb(0,0,0)" stroke="none">25.04</tspan></tspan></tspan></text>
 <text class="TextShape" transform="rotate(-90 9350 15526)"><tspan class="TextParagraph" font-family="Liberation Sans, sans-serif" font-size="353px" font-weight="400"><tspan class="TextPosition" x="9350" y="15526"><tspan fill="rgb(0,0,0)" stroke="none">02.05</tspan></tspan></tspan></text>
 <text class="TextShape" transform="rotate(-90 10096 15526)"><tspan class="TextParagraph" font-family="Liberation Sans, sans-serif" font-size="353px" font-weight="400"><tspan class="TextPosition" x="10096" y="15526"><tspan fill="rgb(0,0,0)" stroke="none">09.05</tspan></tspan></tspan></text>
 <text class="TextShape" transform="rotate(-90 10843 15526)"><tspan class="TextParagraph" font-family="Liberation Sans, sans-serif" font-size="353px" font-weight="400"><tspan class="TextPosition" x="10843" y="15526"><tspan fill="rgb(0,0,0)" stroke="none">16.05</tspan></tspan></tspan></text>
 <text class="TextShape" transform="rotate(-90 11590 15526)"><tspan class="TextParagraph" font-family="Liberation Sans, sans-serif" font-size="353px" font-weight="400"><tspan class="TextPosition" x="11590" y="15526"><tspan fill="rgb(0,0,0)" stroke="none">23.05</tspan></tspan></tspan></text>
 <text class="TextShape" transform="rotate(-90 12336 15526)"><tspan class="TextParagraph" font-family="Liberation Sans, sans-serif" font-size="353px" font-weight="400"><tspan class="TextPosition" x="12336" y="15526"><tspan fill="rgb(0,0,0)" stroke="none">30.05</tspan></tspan></tspan></text>
 <text class="TextShape" transform="rotate(-90 13082 15526)"><tspan class="TextParagraph" font-family="Liberation Sans, sans-serif" font-size="353px" font-weight="400"><tspan class="TextPosition" x="13082" y="15526"><tspan fill="rgb(0,0,0)" stroke="none">06.06</tspan></tspan></tspan></text>
 <text class="TextShape" transform="rotate(-90 13829 15526)"><tspan class="TextParagraph" font-family="Liberation Sans, sans-serif" font-size="353px" font-weight="400"><tspan class="TextPosition" x="13829" y="15526"><tspan fill="rgb(0,0,0)" stroke="none">13.06</tspan></tspan></tspan></text>
 <text class="TextShape" transform="rotate(-90 14576 15526)"><tspan class="TextParagraph" font-family="Liberation Sans, sans-serif" font-size="353px" font-weight="400"><tspan class="TextPosition" x="14576" y="15526"><tspan fill="rgb(0,0,0)" stroke="none">20.06</tspan></tspan></tspan></text>
 <text class="TextShape" transform="rotate(-90 15322 15526)"><tspan class="TextParagraph" font-family="Liberation Sans, sans-serif" font-size="353px" font-weight="400"><tspan class="TextPosition" x="15322" y="15526"><tspan fill="rgb(0,0,0)" stroke="none">27.06</tspan></tspan></tspan></text>
 <text class="TextShape" transform="rotate(-90 16069 15526)"><tspan class="TextParagraph" font-family="Liberation Sans, sans-serif" font-size="353px" font-weight="400"><tspan class="TextPosition" x="16069" y="15526"><tspan fill="rgb(0,0,0)" stroke="none">04.07</tspan></tspan></tspan></text>
 <text class="TextShape" transform="rotate(-90 16816 15526)"><tspan class="TextParagraph" font-family="Liberation Sans, sans-serif" font-size="353px" font-weight="400"><tspan class="TextPosition" x="16816" y="15526"><tspan fill="rgb(0,0,0)" stroke="none">11.07</tspan></tspan></tspan></text>
 <text class="TextShape" transform="rotate(-90 17562 15526)"><tspan class="TextParagraph" font-family="Liberation Sans, sans-serif" font-size="353px" font-weight="400"><tspan class="TextPosition" x="17562" y="15526"><tspan fill="rgb(0,0,0)" stroke="none">18.07</tspan></tspan></tspan></text>
 <text class="TextShape" transform="rotate(-90 18309 15526)"><tspan class="TextParagraph" font-family="Liberation Sans, sans-serif" font-size="353px" font-weight="400"><tspan class="TextPosition" x="18309" y="15526"><tspan fill="rgb(0,0,0)" stroke="none">25.07</tspan></tspan></tspan></text>
 <text class="TextShape" transform="rotate(-90 19056 15526)"><tspan class="TextParagraph" font-family="Liberation Sans, sans-serif" font-size="353px" font-weight="400"><tspan class="TextPosition" x="19056" y="15526"><tspan fill="rgb(0,0,0)" stroke="none">01.08</tspan></tspan></tspan></text>
 <text class="TextShape" transform="rotate(-90 19802 15526)"><tspan class="TextParagraph" font-family="Liberation Sans, sans-serif" font-size="353px" font-weight="400"><tspan class="TextPosition" x="19802" y="15526"><tspan fill="rgb(0,0,0)" stroke="none">08.08</tspan></tspan></tspan></text>
 <text class="TextShape"><tspan class="TextParagraph" font-family="Liberation Sans, sans-serif" font-size="353px" font-weight="400"><tspan class="TextPosition" x="363" y="14525"><tspan fill="rgb(0,0,0)" stroke="none">0,00 %</tspan></tspan></tspan></text>
 <text class="TextShape"><tspan class="TextParagraph" font-family="Liberation Sans, sans-serif" font-size="353px" font-weight="400"><tspan class="TextPosition" x="363" y="13241"><tspan fill="rgb(0,0,0)" stroke="none">1,00 %</tspan></tspan></tspan></text>
 <text class="TextShape"><tspan class="TextParagraph" font-family="Liberation Sans, sans-serif" font-size="353px" font-weight="400"><tspan class="TextPosition" x="363" y="11958"><tspan fill="rgb(0,0,0)" stroke="none">2,00 %</tspan></tspan></tspan></text>
 <text class="TextShape"><tspan class="TextParagraph" font-family="Liberation Sans, sans-serif" font-size="353px" font-weight="400"><tspan class="TextPosition" x="363" y="10675"><tspan fill="rgb(0,0,0)" stroke="none">3,00 %</tspan></tspan></tspan></text>
 <text class="TextShape"><tspan class="TextParagraph" font-family="Liberation Sans, sans-serif" font-size="353px" font-weight="400"><tspan class="TextPosition" x="363" y="9392"><tspan fill="rgb(0,0,0)" stroke="none">4,00 %</tspan></tspan></tspan></text>
 <text class="TextShape"><tspan class="TextParagraph" font-family="Liberation Sans, sans-serif" font-size="353px" font-weight="400"><tspan class="TextPosition" x="363" y="8109"><tspan fill="rgb(0,0,0)" stroke="none">5,00 %</tspan></tspan></tspan></text>
 <text class="TextShape"><tspan class="TextParagraph" font-family="Liberation Sans, sans-serif" font-size="353px" font-weight="400"><tspan class="TextPosition" x="363" y="6826"><tspan fill="rgb(0,0,0)" stroke="none">6,00 %</tspan></tspan></tspan></text>
 <text class="TextShape"><tspan class="TextParagraph" font-family="Liberation Sans, sans-serif" font-size="353px" font-weight="400"><tspan class="TextPosition" x="363" y="5543"><tspan fill="rgb(0,0,0)" stroke="none">7,00 %</tspan></tspan></tspan></text>
 <text class="TextShape"><tspan class="TextParagraph" font-family="Liberation Sans, sans-serif" font-size="353px" font-weight="400"><tspan class="TextPosition" x="363" y="4260"><tspan fill="rgb(0,0,0)" stroke="none">8,00 %</tspan></tspan></tspan></text>
 <text class="TextShape"><tspan class="TextParagraph" font-family="Liberation Sans, sans-serif" font-size="353px" font-weight="400"><tspan class="TextPosition" x="363" y="2977"><tspan fill="rgb(0,0,0)" stroke="none">9,00 %</tspan></tspan></tspan></text>
 <text class="TextShape"><tspan class="TextParagraph" font-family="Liberation Sans, sans-serif" font-size="353px" font-weight="400"><tspan class="TextPosition" x="173" y="1694"><tspan fill="rgb(0,0,0)" stroke="none">10,00 %</tspan></tspan></tspan></text>
 <text class="TextShape"><tspan class="TextParagraph" font-family="Liberation Sans, sans-serif" font-size="459px" font-weight="700"><tspan class="TextPosition" x="2212" y="1002"><tspan fill="rgb(0,0,0)" stroke="none">Jin Korea - pomr celkovho potu obt k posunutmu celkovmu potu infikovanch</tspan></tspan></tspan></text>
 <path fill="none" stroke="rgb(0,69,134)" stroke-width="80" stroke-linejoin="round" d="M 20014,1900 L 20814,1900"/>
 <path fill="none" stroke="rgb(255,66,14)" stroke-width="80" stroke-linejoin="round" d="M 20014,2773 L 20814,2773"/>
 <path fill="none" stroke="rgb(255,211,32)" stroke-width="80" stroke-linejoin="round" d="M 20014,3646 L 20814,3646"/>
 <path fill="none" stroke="rgb(87,157,28)" stroke-width="80" stroke-linejoin="round" d="M 20014,4519 L 20814,4519"/>
 <path fill="none" stroke="rgb(126,0,33)" stroke-width="80" stroke-linejoin="round" d="M 20014,5392 L 20814,5392"/>
 <path fill="none" stroke="rgb(131,202,255)" stroke-width="80" stroke-linejoin="round" d="M 20014,6265 L 20814,6265"/>
 <path fill="none" stroke="rgb(49,64,4)" stroke-width="80" stroke-linejoin="round" d="M 20014,7138 L 20814,7138"/>
 <path fill="none" stroke="rgb(174,207,0)" stroke-width="80" stroke-linejoin="round" d="M 20014,8011 L 20814,8011"/>
 <path fill="none" stroke="rgb(75,31,111)" stroke-width="80" stroke-linejoin="round" d="M 20014,8883 L 20814,8883"/>
 <path fill="none" stroke="rgb(255,149,14)" stroke-width="80" stroke-linejoin="round" d="M 20014,9756 L 20814,9756"/>
 <path fill="none" stroke="rgb(197,0,11)" stroke-width="80" stroke-linejoin="round" d="M 20014,10629 L 20814,10629"/>
 <path fill="none" stroke="rgb(0,132,209)" stroke-width="80" stroke-linejoin="round" d="M 20014,11502 L 20814,11502"/>
 <path fill="none" stroke="rgb(0,69,134)" stroke-width="80" stroke-linejoin="round" d="M 20014,12375 L 20814,12375"/>
 <path fill="none" stroke="rgb(255,66,14)" stroke-width="80" stroke-linejoin="round" d="M 20014,13248 L 20814,13248"/>
 <path fill="none" stroke="rgb(255,211,32)" stroke-width="80" stroke-linejoin="round" d="M 20014,14121 L 20814,14121"/>
 <text class="TextShape"><tspan class="TextParagraph" font-family="Liberation Sans, sans-serif" font-size="353px" font-weight="400"><tspan class="TextPosition" x="20914" y="2017"><tspan fill="rgb(0,0,0)" stroke="none">14 dn zpodn</tspan></tspan></tspan></text>
 <text class="TextShape"><tspan class="TextParagraph" font-family="Liberation Sans, sans-serif" font-size="353px" font-weight="400"><tspan class="TextPosition" x="20914" y="2890"><tspan fill="rgb(0,0,0)" stroke="none">13 dn zpodn</tspan></tspan></tspan></text>
 <text class="TextShape"><tspan class="TextParagraph" font-family="Liberation Sans, sans-serif" font-size="353px" font-weight="400"><tspan class="TextPosition" x="20914" y="3763"><tspan fill="rgb(0,0,0)" stroke="none">12 dn zpodn</tspan></tspan></tspan></text>
 <text class="TextShape"><tspan class="TextParagraph" font-family="Liberation Sans, sans-serif" font-size="353px" font-weight="400"><tspan class="TextPosition" x="20914" y="4636"><tspan fill="rgb(0,0,0)" stroke="none">11 dn zpodn</tspan></tspan></tspan></text>
 <text class="TextShape"><tspan class="TextParagraph" font-family="Liberation Sans, sans-serif" font-size="353px" font-weight="400"><tspan class="TextPosition" x="20914" y="5509"><tspan fill="rgb(0,0,0)" stroke="none">10 dn zpodn</tspan></tspan></tspan></text>
 <text class="TextShape"><tspan class="TextParagraph" font-family="Liberation Sans, sans-serif" font-size="353px" font-weight="400"><tspan class="TextPosition" x="20914" y="6382"><tspan fill="rgb(0,0,0)" stroke="none">9 dn zpodn</tspan></tspan></tspan></text>
 <text class="TextShape"><tspan class="TextParagraph" font-family="Liberation Sans, sans-serif" font-size="353px" font-weight="400"><tspan class="TextPosition" x="20914" y="7255"><tspan fill="rgb(0,0,0)" stroke="none">8 dn zpodn</tspan></tspan></tspan></text>
 <text class="TextShape"><tspan class="TextParagraph" font-family="Liberation Sans, sans-serif" font-size="353px" font-weight="400"><tspan class="TextPosition" x="20914" y="8127"><tspan fill="rgb(0,0,0)" stroke="none">7 dn zpodn</tspan></tspan></tspan></text>
 <text class="TextShape"><tspan class="TextParagraph" font-family="Liberation Sans, sans-serif" font-size="353px" font-weight="400"><tspan class="TextPosition" x="20914" y="9000"><tspan fill="rgb(0,0,0)" stroke="none">6 dn zpodn</tspan></tspan></tspan></text>
 <text class="TextShape"><tspan class="TextParagraph" font-family="Liberation Sans, sans-serif" font-size="353px" font-weight="400"><tspan class="TextPosition" x="20914" y="9873"><tspan fill="rgb(0,0,0)" stroke="none">5 dn zpodn</tspan></tspan></tspan></text>
 <text class="TextShape"><tspan class="TextParagraph" font-family="Liberation Sans, sans-serif" font-size="353px" font-weight="400"><tspan class="TextPosition" x="20914" y="10746"><tspan fill="rgb(0,0,0)" stroke="none">4 dny zpodn</tspan></tspan></tspan></text>
 <text class="TextShape"><tspan class="TextParagraph" font-family="Liberation Sans, sans-serif" font-size="353px" font-weight="400"><tspan class="TextPosition" x="20914" y="11619"><tspan fill="rgb(0,0,0)" stroke="none">3 dny zpodn</tspan></tspan></tspan></text>
 <text class="TextShape"><tspan class="TextParagraph" font-family="Liberation Sans, sans-serif" font-size="353px" font-weight="400"><tspan class="TextPosition" x="20914" y="12492"><tspan fill="rgb(0,0,0)" stroke="none">2 dny zpodn</tspan></tspan></tspan></text>
 <text class="TextShape"><tspan class="TextParagraph" font-family="Liberation Sans, sans-serif" font-size="353px" font-weight="400"><tspan class="TextPosition" x="20914" y="13365"><tspan fill="rgb(0,0,0)" stroke="none">1 den zpodn</tspan></tspan></tspan></text>
 <text class="TextShape"><tspan class="TextParagraph" font-family="Liberation Sans, sans-serif" font-size="353px" font-weight="400"><tspan class="TextPosition" x="20914" y="14238"><tspan fill="rgb(0,0,0)" stroke="none">0 dn zpodn</tspan></tspan></tspan></text>
</svg>