<?xml version="1.0" encoding="UTF-8"?>
<!DOCTYPE svg PUBLIC "-//W3C//DTD SVG 1.1//EN" "http://www.w3.org/Graphics/SVG/1.1/DTD/svg11.dtd">
<svg width="236mm" height="125mm" viewBox="0 0 23600 12500" version="1.1" xmlns="http://www.w3.org/2000/svg" xmlns:xlink="http://www.w3.org/1999/xlink" stroke-width="28.222" stroke-linejoin="round" xml:space="preserve">
 <path fill="rgb(255,255,255)" stroke="none" d="M 11800,12500 L 0,12500 0,0 23600,0 23600,12500 11800,12500 Z"/>
 <path fill="none" stroke="rgb(179,179,179)" stroke-linejoin="round" d="M 12999,10859 L 2561,10859 2561,1692 23438,1692 23438,10859 12999,10859 Z"/>
 <path fill="none" stroke="rgb(179,179,179)" stroke-linejoin="round" d="M 23438,10858 L 2561,10858"/>
 <path fill="none" stroke="rgb(179,179,179)" stroke-linejoin="round" d="M 23438,9839 L 2561,9839"/>
 <path fill="none" stroke="rgb(179,179,179)" stroke-linejoin="round" d="M 23438,8820 L 2561,8820"/>
 <path fill="none" stroke="rgb(179,179,179)" stroke-linejoin="round" d="M 23438,7802 L 2561,7802"/>
 <path fill="none" stroke="rgb(179,179,179)" stroke-linejoin="round" d="M 23438,6783 L 2561,6783"/>
 <path fill="none" stroke="rgb(179,179,179)" stroke-linejoin="round" d="M 23438,5765 L 2561,5765"/>
 <path fill="none" stroke="rgb(179,179,179)" stroke-linejoin="round" d="M 23438,4747 L 2561,4747"/>
 <path fill="none" stroke="rgb(179,179,179)" stroke-linejoin="round" d="M 23438,3728 L 2561,3728"/>
 <path fill="none" stroke="rgb(179,179,179)" stroke-linejoin="round" d="M 23438,2709 L 2561,2709"/>
 <path fill="none" stroke="rgb(179,179,179)" stroke-linejoin="round" d="M 23438,1691 L 2561,1691"/>
 <path fill="none" stroke="rgb(179,179,179)" stroke-linejoin="round" d="M 2561,11008 L 2561,10858"/>
 <path fill="none" stroke="rgb(179,179,179)" stroke-linejoin="round" d="M 2561,11008 L 2561,10858"/>
 <path fill="none" stroke="rgb(179,179,179)" stroke-linejoin="round" d="M 3425,11008 L 3425,10858"/>
 <path fill="none" stroke="rgb(179,179,179)" stroke-linejoin="round" d="M 3425,11008 L 3425,10858"/>
 <path fill="none" stroke="rgb(179,179,179)" stroke-linejoin="round" d="M 4290,11008 L 4290,10858"/>
 <path fill="none" stroke="rgb(179,179,179)" stroke-linejoin="round" d="M 4290,11008 L 4290,10858"/>
 <path fill="none" stroke="rgb(179,179,179)" stroke-linejoin="round" d="M 5155,11008 L 5155,10858"/>
 <path fill="none" stroke="rgb(179,179,179)" stroke-linejoin="round" d="M 5155,11008 L 5155,10858"/>
 <path fill="none" stroke="rgb(179,179,179)" stroke-linejoin="round" d="M 6020,11008 L 6020,10858"/>
 <path fill="none" stroke="rgb(179,179,179)" stroke-linejoin="round" d="M 6020,11008 L 6020,10858"/>
 <path fill="none" stroke="rgb(179,179,179)" stroke-linejoin="round" d="M 6884,11008 L 6884,10858"/>
 <path fill="none" stroke="rgb(179,179,179)" stroke-linejoin="round" d="M 6884,11008 L 6884,10858"/>
 <path fill="none" stroke="rgb(179,179,179)" stroke-linejoin="round" d="M 7749,11008 L 7749,10858"/>
 <path fill="none" stroke="rgb(179,179,179)" stroke-linejoin="round" d="M 7749,11008 L 7749,10858"/>
 <path fill="none" stroke="rgb(179,179,179)" stroke-linejoin="round" d="M 8614,11008 L 8614,10858"/>
 <path fill="none" stroke="rgb(179,179,179)" stroke-linejoin="round" d="M 8614,11008 L 8614,10858"/>
 <path fill="none" stroke="rgb(179,179,179)" stroke-linejoin="round" d="M 9479,11008 L 9479,10858"/>
 <path fill="none" stroke="rgb(179,179,179)" stroke-linejoin="round" d="M 9479,11008 L 9479,10858"/>
 <path fill="none" stroke="rgb(179,179,179)" stroke-linejoin="round" d="M 10343,11008 L 10343,10858"/>
 <path fill="none" stroke="rgb(179,179,179)" stroke-linejoin="round" d="M 10343,11008 L 10343,10858"/>
 <path fill="none" stroke="rgb(179,179,179)" stroke-linejoin="round" d="M 11208,11008 L 11208,10858"/>
 <path fill="none" stroke="rgb(179,179,179)" stroke-linejoin="round" d="M 11208,11008 L 11208,10858"/>
 <path fill="none" stroke="rgb(179,179,179)" stroke-linejoin="round" d="M 12072,11008 L 12072,10858"/>
 <path fill="none" stroke="rgb(179,179,179)" stroke-linejoin="round" d="M 12072,11008 L 12072,10858"/>
 <path fill="none" stroke="rgb(179,179,179)" stroke-linejoin="round" d="M 12937,11008 L 12937,10858"/>
 <path fill="none" stroke="rgb(179,179,179)" stroke-linejoin="round" d="M 12937,11008 L 12937,10858"/>
 <path fill="none" stroke="rgb(179,179,179)" stroke-linejoin="round" d="M 13802,11008 L 13802,10858"/>
 <path fill="none" stroke="rgb(179,179,179)" stroke-linejoin="round" d="M 13802,11008 L 13802,10858"/>
 <path fill="none" stroke="rgb(179,179,179)" stroke-linejoin="round" d="M 14666,11008 L 14666,10858"/>
 <path fill="none" stroke="rgb(179,179,179)" stroke-linejoin="round" d="M 14666,11008 L 14666,10858"/>
 <path fill="none" stroke="rgb(179,179,179)" stroke-linejoin="round" d="M 15531,11008 L 15531,10858"/>
 <path fill="none" stroke="rgb(179,179,179)" stroke-linejoin="round" d="M 15531,11008 L 15531,10858"/>
 <path fill="none" stroke="rgb(179,179,179)" stroke-linejoin="round" d="M 16396,11008 L 16396,10858"/>
 <path fill="none" stroke="rgb(179,179,179)" stroke-linejoin="round" d="M 16396,11008 L 16396,10858"/>
 <path fill="none" stroke="rgb(179,179,179)" stroke-linejoin="round" d="M 17261,11008 L 17261,10858"/>
 <path fill="none" stroke="rgb(179,179,179)" stroke-linejoin="round" d="M 17261,11008 L 17261,10858"/>
 <path fill="none" stroke="rgb(179,179,179)" stroke-linejoin="round" d="M 18125,11008 L 18125,10858"/>
 <path fill="none" stroke="rgb(179,179,179)" stroke-linejoin="round" d="M 18125,11008 L 18125,10858"/>
 <path fill="none" stroke="rgb(179,179,179)" stroke-linejoin="round" d="M 18990,11008 L 18990,10858"/>
 <path fill="none" stroke="rgb(179,179,179)" stroke-linejoin="round" d="M 18990,11008 L 18990,10858"/>
 <path fill="none" stroke="rgb(179,179,179)" stroke-linejoin="round" d="M 19855,11008 L 19855,10858"/>
 <path fill="none" stroke="rgb(179,179,179)" stroke-linejoin="round" d="M 19855,11008 L 19855,10858"/>
 <path fill="none" stroke="rgb(179,179,179)" stroke-linejoin="round" d="M 20720,11008 L 20720,10858"/>
 <path fill="none" stroke="rgb(179,179,179)" stroke-linejoin="round" d="M 20720,11008 L 20720,10858"/>
 <path fill="none" stroke="rgb(179,179,179)" stroke-linejoin="round" d="M 21584,11008 L 21584,10858"/>
 <path fill="none" stroke="rgb(179,179,179)" stroke-linejoin="round" d="M 21584,11008 L 21584,10858"/>
 <path fill="none" stroke="rgb(179,179,179)" stroke-linejoin="round" d="M 22449,11008 L 22449,10858"/>
 <path fill="none" stroke="rgb(179,179,179)" stroke-linejoin="round" d="M 22449,11008 L 22449,10858"/>
 <path fill="none" stroke="rgb(179,179,179)" stroke-linejoin="round" d="M 23314,11008 L 23314,10858"/>
 <path fill="none" stroke="rgb(179,179,179)" stroke-linejoin="round" d="M 23314,11008 L 23314,10858"/>
 <path fill="none" stroke="rgb(179,179,179)" stroke-linejoin="round" d="M 2561,10858 L 23438,10858"/>
 <path fill="none" stroke="rgb(179,179,179)" stroke-linejoin="round" d="M 2411,10858 L 2561,10858"/>
 <path fill="none" stroke="rgb(179,179,179)" stroke-linejoin="round" d="M 2411,10858 L 2561,10858"/>
 <path fill="none" stroke="rgb(179,179,179)" stroke-linejoin="round" d="M 2411,9839 L 2561,9839"/>
 <path fill="none" stroke="rgb(179,179,179)" stroke-linejoin="round" d="M 2411,9839 L 2561,9839"/>
 <path fill="none" stroke="rgb(179,179,179)" stroke-linejoin="round" d="M 2411,8820 L 2561,8820"/>
 <path fill="none" stroke="rgb(179,179,179)" stroke-linejoin="round" d="M 2411,8820 L 2561,8820"/>
 <path fill="none" stroke="rgb(179,179,179)" stroke-linejoin="round" d="M 2411,7802 L 2561,7802"/>
 <path fill="none" stroke="rgb(179,179,179)" stroke-linejoin="round" d="M 2411,7802 L 2561,7802"/>
 <path fill="none" stroke="rgb(179,179,179)" stroke-linejoin="round" d="M 2411,6783 L 2561,6783"/>
 <path fill="none" stroke="rgb(179,179,179)" stroke-linejoin="round" d="M 2411,6783 L 2561,6783"/>
 <path fill="none" stroke="rgb(179,179,179)" stroke-linejoin="round" d="M 2411,5765 L 2561,5765"/>
 <path fill="none" stroke="rgb(179,179,179)" stroke-linejoin="round" d="M 2411,5765 L 2561,5765"/>
 <path fill="none" stroke="rgb(179,179,179)" stroke-linejoin="round" d="M 2411,4747 L 2561,4747"/>
 <path fill="none" stroke="rgb(179,179,179)" stroke-linejoin="round" d="M 2411,4747 L 2561,4747"/>
 <path fill="none" stroke="rgb(179,179,179)" stroke-linejoin="round" d="M 2411,3728 L 2561,3728"/>
 <path fill="none" stroke="rgb(179,179,179)" stroke-linejoin="round" d="M 2411,3728 L 2561,3728"/>
 <path fill="none" stroke="rgb(179,179,179)" stroke-linejoin="round" d="M 2411,2709 L 2561,2709"/>
 <path fill="none" stroke="rgb(179,179,179)" stroke-linejoin="round" d="M 2411,2709 L 2561,2709"/>
 <path fill="none" stroke="rgb(179,179,179)" stroke-linejoin="round" d="M 2411,1691 L 2561,1691"/>
 <path fill="none" stroke="rgb(179,179,179)" stroke-linejoin="round" d="M 2411,1691 L 2561,1691"/>
 <path fill="none" stroke="rgb(179,179,179)" stroke-linejoin="round" d="M 2561,10858 L 2561,1691"/>
 <path fill="none" stroke="rgb(255,191,0)" stroke-width="80" stroke-linejoin="round" d="M 2622,10857 L 2746,10857 2869,10856 2993,10856 3116,10855 3240,10854 3364,10852 3487,10850 3611,10847 3734,10844 3858,10841 3981,10837 4105,10830 4228,10822 4352,10812 4475,10800 4599,10786 4722,10771 4846,10748 4970,10731 5093,10679 5217,10641 5340,10604 5464,10552 5587,10501 5711,10438 5834,10352 5958,10263 6081,10168 6205,10081 6328,9966 6452,9861 6576,9726 6699,9567 6823,9411 6946,9249 7070,9120 7193,8985 7317,8831 7440,8679 7564,8533 7687,8379 7811,8240 7934,8130 8058,8023 8182,7908 8305,7776 8429,7646 8552,7513 8676,7402 8799,7179 8923,7091 9046,7008 9170,6900 9293,6732 9417,6625 9540,6563 9664,6449 9788,6383 9911,6304 10035,6240 10158,6150 10282,6139 10405,6073 10529,6020 10652,5963 10776,5909 10899,5873 11023,5829 11146,5789 11270,5749 11394,5719 11517,5691 11641,5655 11764,5603 11887,5561 12010,5518 12134,5487 12257,5461 12381,5426 12504,5396 12628,5372 12751,5342 12875,5314 12999,5293 13122,5276 13246,5258 13369,5231 13493,5205 13616,5183 13740,5152 13863,5133 13987,5117 14110,5105 14234,5088 14357,5071 14481,5028 14605,5004 14728,4977 14852,4963 14975,4951 15099,4942 15222,4918 15346,4896 15469,4873 15593,4850 15716,4832 15840,4817 15963,4799 16087,4781 16211,4759 16334,4734 16458,4713 16581,4696 16705,4681 16828,4662 16952,4640 17075,4611 17199,4585 17322,4566 17446,4551 17569,4538 17693,4512 17817,4489 17940,4466 18064,4436 18187,4421 18311,4412 18434,4378 18558,4359 18681,4334 18805,4310 18928,4288 19052,4275 19175,4264 19299,4232 19423,4216 19546,4198 19670,4172 19793,4146 19917,4131 20040,4119 20164,4085 20287,4069 20411,4042 20534,4012 20658,3980 20781,3963 20905,3950 21029,3896 21152,3869 21276,3834 21399,3793 21523,3752 21646,3729 21770,3710 21893,3645 22017,3611 22140,3573 22264,3520 22387,3460 22511,3435 22635,3416 22758,3348 22882,3276 23005,3228 23129,3158 23252,3078 23376,3049"/>
 <path fill="none" stroke="rgb(85,48,141)" stroke-width="80" stroke-linejoin="round" d="M 2622,10857 L 2746,10857 2869,10856 2993,10856 3116,10855 3240,10854 3364,10853 3487,10851 3611,10848 3734,10845 3858,10843 3981,10839 4105,10833 4228,10826 4352,10817 4475,10806 4599,10793 4722,10779 4846,10759 4970,10744 5093,10696 5217,10663 5340,10630 5464,10583 5587,10539 5711,10485 5834,10405 5958,10325 6081,10249 6205,10188 6328,10079 6452,10018 6576,9912 6699,9795 6823,9677 6946,9559 7070,9472 7193,9397 7317,9299 7440,9216 7564,9150 7687,9065 7811,8990 7934,8936 8058,8873 8182,8854 8305,8840 8429,8809 8552,8745 8676,8707 8799,8548 8923,8519 9046,8501 9170,8477 9293,8407 9417,8379 9540,8367 9664,8311 9788,8311 9911,8354 10035,8374 10158,8365 10282,8459 10405,8446 10529,8442 10652,8435 10776,8439 10899,8511 11023,8552 11146,8558 11270,8581 11394,8586 11517,8605 11641,8624 11764,8695 11887,8712 12010,8719 12134,8744 12257,8756 12381,8750 12504,8773 12628,8814 12751,8841 12875,8872 12999,8888 13122,8909 13246,8950 13369,8947 13493,8963 13616,8972 13740,8977 13863,8981 13987,9032 14110,9034 14234,9050 14357,9068 14481,9061 14605,9063 14728,9066 14852,9070 14975,9069 15099,9082 15222,9080 15346,9077 15469,9076 15593,9071 15716,9063 15840,9059 15963,9062 16087,9063 16211,9059 16334,9053 16458,9050 16581,9045 16705,9041 16828,9040 16952,9034 17075,9020 17199,9017 17322,9012 17446,9007 17569,9006 17693,8998 17817,8998 17940,8991 18064,8976 18187,8975 18311,8976 18434,8950 18558,8947 18681,8938 18805,8927 18928,8918 19052,8917 19175,8917 19299,8894 19423,8892 19546,8890 19670,8879 19793,8866 19917,8861 20040,8857 20164,8836 20287,8828 20411,8822 20534,8805 20658,8786 20781,8780 20905,8773 21029,8732 21152,8722 21276,8700 21399,8675 21523,8651 21646,8637 21770,8635 21893,8579 22017,8556 22140,8530 22264,8492 22387,8446 22511,8433 22635,8422 22758,8365 22882,8306 23005,8274 23129,8223 23252,8160 23376,8145"/>
 <path fill="none" stroke="rgb(0,169,51)" stroke-width="80" stroke-linejoin="round" d="M 2622,10857 L 2746,10857 2869,10857 2993,10857 3116,10857 3240,10857 3364,10857 3487,10857 3611,10857 3734,10857 3858,10857 3981,10856 4105,10855 4228,10855 4352,10854 4475,10854 4599,10853 4722,10853 4846,10851 4970,10851 5093,10849 5217,10844 5340,10842 5464,10840 5587,10837 5711,10830 5834,10828 5958,10825 6081,10813 6205,10794 6328,10794 6452,10759 6576,10740 6699,10709 6823,10683 6946,10650 7070,10620 7193,10574 7317,10531 7440,10478 7564,10416 7687,10364 7811,10316 7934,10271 8058,10242 8182,10166 8305,10062 8429,9981 8552,9929 8676,9868 8799,9817 8923,9770 9046,9717 9170,9653 9293,9571 9417,9508 9540,9467 9664,9419 9788,9365 9911,9255 10035,9182 10158,9113 10282,9018 10405,8976 10529,8933 10652,8891 10776,8841 10899,8744 11023,8667 11146,8625 11270,8570 11394,8538 11517,8497 11641,8449 11764,8334 11887,8282 12010,8238 12134,8185 12257,8151 12381,8126 12504,8078 12628,8018 12751,7966 12875,7912 12999,7877 13122,7844 13246,7787 13369,7765 13493,7726 13616,7698 13740,7668 13863,7646 13987,7581 14110,7559 14234,7529 14357,7497 14481,7462 14605,7438 14728,7411 14852,7393 14975,7383 15099,7363 15222,7342 15346,7325 15469,7305 15593,7288 15716,7279 15840,7268 15963,7249 16087,7232 16211,7214 16334,7196 16458,7179 16581,7168 16705,7157 16828,7141 16952,7126 17075,7111 17199,7096 17322,7083 17446,7073 17569,7061 17693,7045 17817,7022 17940,7007 18064,6992 18187,6978 18311,6970 18434,6961 18558,6947 18681,6931 18805,6919 18928,6907 19052,6894 19175,6884 19299,6876 19423,6862 19546,6847 19670,6832 19793,6821 19917,6811 20040,6803 20164,6791 20287,6782 20411,6763 20534,6751 20658,6738 20781,6728 20905,6721 21029,6710 21152,6692 21276,6680 21399,6664 21523,6647 21646,6639 21770,6623 21893,6613 22017,6603 22140,6591 22264,6578 22387,6564 22511,6552 22635,6545 22758,6533 22882,6522 23005,6506 23129,6488 23252,6471 23376,6458"/>
 <text class="TextShape" transform="rotate(-90 2748 12062)"><tspan class="TextParagraph" font-family="Liberation Sans, sans-serif" font-size="388px" font-weight="400"><tspan class="TextPosition" x="2748" y="12062"><tspan fill="rgb(0,0,0)" stroke="none">22.02</tspan></tspan></tspan></text>
 <text class="TextShape" transform="rotate(-90 3613 12062)"><tspan class="TextParagraph" font-family="Liberation Sans, sans-serif" font-size="388px" font-weight="400"><tspan class="TextPosition" x="3613" y="12062"><tspan fill="rgb(0,0,0)" stroke="none">29.02</tspan></tspan></tspan></text>
 <text class="TextShape" transform="rotate(-90 4478 12062)"><tspan class="TextParagraph" font-family="Liberation Sans, sans-serif" font-size="388px" font-weight="400"><tspan class="TextPosition" x="4478" y="12062"><tspan fill="rgb(0,0,0)" stroke="none">07.03</tspan></tspan></tspan></text>
 <text class="TextShape" transform="rotate(-90 5343 12062)"><tspan class="TextParagraph" font-family="Liberation Sans, sans-serif" font-size="388px" font-weight="400"><tspan class="TextPosition" x="5343" y="12062"><tspan fill="rgb(0,0,0)" stroke="none">14.03</tspan></tspan></tspan></text>
 <text class="TextShape" transform="rotate(-90 6207 12062)"><tspan class="TextParagraph" font-family="Liberation Sans, sans-serif" font-size="388px" font-weight="400"><tspan class="TextPosition" x="6207" y="12062"><tspan fill="rgb(0,0,0)" stroke="none">21.03</tspan></tspan></tspan></text>
 <text class="TextShape" transform="rotate(-90 7072 12062)"><tspan class="TextParagraph" font-family="Liberation Sans, sans-serif" font-size="388px" font-weight="400"><tspan class="TextPosition" x="7072" y="12062"><tspan fill="rgb(0,0,0)" stroke="none">28.03</tspan></tspan></tspan></text>
 <text class="TextShape" transform="rotate(-90 7937 12062)"><tspan class="TextParagraph" font-family="Liberation Sans, sans-serif" font-size="388px" font-weight="400"><tspan class="TextPosition" x="7937" y="12062"><tspan fill="rgb(0,0,0)" stroke="none">04.04</tspan></tspan></tspan></text>
 <text class="TextShape" transform="rotate(-90 8802 12062)"><tspan class="TextParagraph" font-family="Liberation Sans, sans-serif" font-size="388px" font-weight="400"><tspan class="TextPosition" x="8802" y="12062"><tspan fill="rgb(0,0,0)" stroke="none">11.04</tspan></tspan></tspan></text>
 <text class="TextShape" transform="rotate(-90 9666 12062)"><tspan class="TextParagraph" font-family="Liberation Sans, sans-serif" font-size="388px" font-weight="400"><tspan class="TextPosition" x="9666" y="12062"><tspan fill="rgb(0,0,0)" stroke="none">18.04</tspan></tspan></tspan></text>
 <text class="TextShape" transform="rotate(-90 10531 12062)"><tspan class="TextParagraph" font-family="Liberation Sans, sans-serif" font-size="388px" font-weight="400"><tspan class="TextPosition" x="10531" y="12062"><tspan fill="rgb(0,0,0)" stroke="none">25.04</tspan></tspan></tspan></text>
 <text class="TextShape" transform="rotate(-90 11396 12062)"><tspan class="TextParagraph" font-family="Liberation Sans, sans-serif" font-size="388px" font-weight="400"><tspan class="TextPosition" x="11396" y="12062"><tspan fill="rgb(0,0,0)" stroke="none">02.05</tspan></tspan></tspan></text>
 <text class="TextShape" transform="rotate(-90 12260 12062)"><tspan class="TextParagraph" font-family="Liberation Sans, sans-serif" font-size="388px" font-weight="400"><tspan class="TextPosition" x="12260" y="12062"><tspan fill="rgb(0,0,0)" stroke="none">09.05</tspan></tspan></tspan></text>
 <text class="TextShape" transform="rotate(-90 13125 12062)"><tspan class="TextParagraph" font-family="Liberation Sans, sans-serif" font-size="388px" font-weight="400"><tspan class="TextPosition" x="13125" y="12062"><tspan fill="rgb(0,0,0)" stroke="none">16.05</tspan></tspan></tspan></text>
 <text class="TextShape" transform="rotate(-90 13989 12062)"><tspan class="TextParagraph" font-family="Liberation Sans, sans-serif" font-size="388px" font-weight="400"><tspan class="TextPosition" x="13989" y="12062"><tspan fill="rgb(0,0,0)" stroke="none">23.05</tspan></tspan></tspan></text>
 <text class="TextShape" transform="rotate(-90 14854 12062)"><tspan class="TextParagraph" font-family="Liberation Sans, sans-serif" font-size="388px" font-weight="400"><tspan class="TextPosition" x="14854" y="12062"><tspan fill="rgb(0,0,0)" stroke="none">30.05</tspan></tspan></tspan></text>
 <text class="TextShape" transform="rotate(-90 15719 12062)"><tspan class="TextParagraph" font-family="Liberation Sans, sans-serif" font-size="388px" font-weight="400"><tspan class="TextPosition" x="15719" y="12062"><tspan fill="rgb(0,0,0)" stroke="none">06.06</tspan></tspan></tspan></text>
 <text class="TextShape" transform="rotate(-90 16584 12062)"><tspan class="TextParagraph" font-family="Liberation Sans, sans-serif" font-size="388px" font-weight="400"><tspan class="TextPosition" x="16584" y="12062"><tspan fill="rgb(0,0,0)" stroke="none">13.06</tspan></tspan></tspan></text>
 <text class="TextShape" transform="rotate(-90 17448 12062)"><tspan class="TextParagraph" font-family="Liberation Sans, sans-serif" font-size="388px" font-weight="400"><tspan class="TextPosition" x="17448" y="12062"><tspan fill="rgb(0,0,0)" stroke="none">20.06</tspan></tspan></tspan></text>
 <text class="TextShape" transform="rotate(-90 18313 12062)"><tspan class="TextParagraph" font-family="Liberation Sans, sans-serif" font-size="388px" font-weight="400"><tspan class="TextPosition" x="18313" y="12062"><tspan fill="rgb(0,0,0)" stroke="none">27.06</tspan></tspan></tspan></text>
 <text class="TextShape" transform="rotate(-90 19178 12062)"><tspan class="TextParagraph" font-family="Liberation Sans, sans-serif" font-size="388px" font-weight="400"><tspan class="TextPosition" x="19178" y="12062"><tspan fill="rgb(0,0,0)" stroke="none">04.07</tspan></tspan></tspan></text>
 <text class="TextShape" transform="rotate(-90 20043 12062)"><tspan class="TextParagraph" font-family="Liberation Sans, sans-serif" font-size="388px" font-weight="400"><tspan class="TextPosition" x="20043" y="12062"><tspan fill="rgb(0,0,0)" stroke="none">11.07</tspan></tspan></tspan></text>
 <text class="TextShape" transform="rotate(-90 20907 12062)"><tspan class="TextParagraph" font-family="Liberation Sans, sans-serif" font-size="388px" font-weight="400"><tspan class="TextPosition" x="20907" y="12062"><tspan fill="rgb(0,0,0)" stroke="none">18.07</tspan></tspan></tspan></text>
 <text class="TextShape" transform="rotate(-90 21772 12062)"><tspan class="TextParagraph" font-family="Liberation Sans, sans-serif" font-size="388px" font-weight="400"><tspan class="TextPosition" x="21772" y="12062"><tspan fill="rgb(0,0,0)" stroke="none">25.07</tspan></tspan></tspan></text>
 <text class="TextShape" transform="rotate(-90 22637 12062)"><tspan class="TextParagraph" font-family="Liberation Sans, sans-serif" font-size="388px" font-weight="400"><tspan class="TextPosition" x="22637" y="12062"><tspan fill="rgb(0,0,0)" stroke="none">01.08</tspan></tspan></tspan></text>
 <text class="TextShape" transform="rotate(-90 23502 12062)"><tspan class="TextParagraph" font-family="Liberation Sans, sans-serif" font-size="388px" font-weight="400"><tspan class="TextPosition" x="23502" y="12062"><tspan fill="rgb(0,0,0)" stroke="none">08.08</tspan></tspan></tspan></text>
 <text class="TextShape"><tspan class="TextParagraph" font-family="Liberation Sans, sans-serif" font-size="388px" font-weight="400"><tspan class="TextPosition" x="2099" y="10986"><tspan fill="rgb(0,0,0)" stroke="none">0</tspan></tspan></tspan></text>
 <text class="TextShape"><tspan class="TextParagraph" font-family="Liberation Sans, sans-serif" font-size="388px" font-weight="400"><tspan class="TextPosition" x="935" y="9967"><tspan fill="rgb(0,0,0)" stroke="none">200 000</tspan></tspan></tspan></text>
 <text class="TextShape"><tspan class="TextParagraph" font-family="Liberation Sans, sans-serif" font-size="388px" font-weight="400"><tspan class="TextPosition" x="935" y="8948"><tspan fill="rgb(0,0,0)" stroke="none">400 000</tspan></tspan></tspan></text>
 <text class="TextShape"><tspan class="TextParagraph" font-family="Liberation Sans, sans-serif" font-size="388px" font-weight="400"><tspan class="TextPosition" x="935" y="7930"><tspan fill="rgb(0,0,0)" stroke="none">600 000</tspan></tspan></tspan></text>
 <text class="TextShape"><tspan class="TextParagraph" font-family="Liberation Sans, sans-serif" font-size="388px" font-weight="400"><tspan class="TextPosition" x="935" y="6911"><tspan fill="rgb(0,0,0)" stroke="none">800 000</tspan></tspan></tspan></text>
 <text class="TextShape"><tspan class="TextParagraph" font-family="Liberation Sans, sans-serif" font-size="388px" font-weight="400"><tspan class="TextPosition" x="618" y="5892"><tspan fill="rgb(0,0,0)" stroke="none">1 000 000</tspan></tspan></tspan></text>
 <text class="TextShape"><tspan class="TextParagraph" font-family="Liberation Sans, sans-serif" font-size="388px" font-weight="400"><tspan class="TextPosition" x="618" y="4874"><tspan fill="rgb(0,0,0)" stroke="none">1 200 000</tspan></tspan></tspan></text>
 <text class="TextShape"><tspan class="TextParagraph" font-family="Liberation Sans, sans-serif" font-size="388px" font-weight="400"><tspan class="TextPosition" x="618" y="3855"><tspan fill="rgb(0,0,0)" stroke="none">1 400 000</tspan></tspan></tspan></text>
 <text class="TextShape"><tspan class="TextParagraph" font-family="Liberation Sans, sans-serif" font-size="388px" font-weight="400"><tspan class="TextPosition" x="618" y="2836"><tspan fill="rgb(0,0,0)" stroke="none">1 600 000</tspan></tspan></tspan></text>
 <text class="TextShape"><tspan class="TextParagraph" font-family="Liberation Sans, sans-serif" font-size="388px" font-weight="400"><tspan class="TextPosition" x="618" y="1818"><tspan fill="rgb(0,0,0)" stroke="none">1 800 000</tspan></tspan></tspan></text>
 <text class="TextShape"><tspan class="TextParagraph" font-family="Liberation Sans, sans-serif" font-size="494px" font-weight="700"><tspan class="TextPosition" x="389" y="705"><tspan fill="rgb(0,0,0)" stroke="none">EU</tspan></tspan></tspan></text>
 <path fill="none" stroke="rgb(255,191,0)" stroke-width="80" stroke-linejoin="round" d="M 998,1101 L 1798,1101"/>
 <path fill="none" stroke="rgb(85,48,141)" stroke-width="80" stroke-linejoin="round" d="M 8932,1101 L 9732,1101"/>
 <path fill="none" stroke="rgb(0,169,51)" stroke-width="80" stroke-linejoin="round" d="M 16082,1101 L 16882,1101"/>
 <text class="TextShape"><tspan class="TextParagraph" font-family="Liberation Sans, sans-serif" font-size="494px" font-weight="400"><tspan class="TextPosition" x="1906" y="1270"><tspan fill="rgb(0,0,0)" stroke="none">celkový počet infikovaných</tspan></tspan></tspan></text>
 <text class="TextShape"><tspan class="TextParagraph" font-family="Liberation Sans, sans-serif" font-size="494px" font-weight="400"><tspan class="TextPosition" x="9840" y="1270"><tspan fill="rgb(0,0,0)" stroke="none">počet aktivních případů</tspan></tspan></tspan></text>
 <text class="TextShape"><tspan class="TextParagraph" font-family="Liberation Sans, sans-serif" font-size="494px" font-weight="400"><tspan class="TextPosition" x="16990" y="1270"><tspan fill="rgb(0,0,0)" stroke="none">celkový počet vyléčených</tspan></tspan></tspan></text>
</svg>