<?xml version="1.0" encoding="UTF-8"?>
<!DOCTYPE svg PUBLIC "-//W3C//DTD SVG 1.1//EN" "http://www.w3.org/Graphics/SVG/1.1/DTD/svg11.dtd">
<svg width="236mm" height="125mm" viewBox="0 0 23600 12500" version="1.1" xmlns="http://www.w3.org/2000/svg" xmlns:xlink="http://www.w3.org/1999/xlink" stroke-width="28.222" stroke-linejoin="round" xml:space="preserve">
 <path fill="rgb(255,255,255)" stroke="none" d="M 11800,12500 L 0,12500 0,0 23600,0 23600,12500 11800,12500 Z"/>
 <path fill="none" stroke="rgb(179,179,179)" stroke-linejoin="round" d="M 12999,10859 L 2561,10859 2561,1692 23438,1692 23438,10859 12999,10859 Z"/>
 <path fill="none" stroke="rgb(179,179,179)" stroke-linejoin="round" d="M 23437,10858 L 2560,10858"/>
 <path fill="none" stroke="rgb(179,179,179)" stroke-linejoin="round" d="M 23437,9839 L 2560,9839"/>
 <path fill="none" stroke="rgb(179,179,179)" stroke-linejoin="round" d="M 23437,8820 L 2560,8820"/>
 <path fill="none" stroke="rgb(179,179,179)" stroke-linejoin="round" d="M 23437,7802 L 2560,7802"/>
 <path fill="none" stroke="rgb(179,179,179)" stroke-linejoin="round" d="M 23437,6783 L 2560,6783"/>
 <path fill="none" stroke="rgb(179,179,179)" stroke-linejoin="round" d="M 23437,5765 L 2560,5765"/>
 <path fill="none" stroke="rgb(179,179,179)" stroke-linejoin="round" d="M 23437,4747 L 2560,4747"/>
 <path fill="none" stroke="rgb(179,179,179)" stroke-linejoin="round" d="M 23437,3728 L 2560,3728"/>
 <path fill="none" stroke="rgb(179,179,179)" stroke-linejoin="round" d="M 23437,2709 L 2560,2709"/>
 <path fill="none" stroke="rgb(179,179,179)" stroke-linejoin="round" d="M 23437,1691 L 2560,1691"/>
 <path fill="none" stroke="rgb(179,179,179)" stroke-linejoin="round" d="M 2560,11008 L 2560,10858"/>
 <path fill="none" stroke="rgb(179,179,179)" stroke-linejoin="round" d="M 2560,11008 L 2560,10858"/>
 <path fill="none" stroke="rgb(179,179,179)" stroke-linejoin="round" d="M 3400,11008 L 3400,10858"/>
 <path fill="none" stroke="rgb(179,179,179)" stroke-linejoin="round" d="M 3400,11008 L 3400,10858"/>
 <path fill="none" stroke="rgb(179,179,179)" stroke-linejoin="round" d="M 4240,11008 L 4240,10858"/>
 <path fill="none" stroke="rgb(179,179,179)" stroke-linejoin="round" d="M 4240,11008 L 4240,10858"/>
 <path fill="none" stroke="rgb(179,179,179)" stroke-linejoin="round" d="M 5080,11008 L 5080,10858"/>
 <path fill="none" stroke="rgb(179,179,179)" stroke-linejoin="round" d="M 5080,11008 L 5080,10858"/>
 <path fill="none" stroke="rgb(179,179,179)" stroke-linejoin="round" d="M 5920,11008 L 5920,10858"/>
 <path fill="none" stroke="rgb(179,179,179)" stroke-linejoin="round" d="M 5920,11008 L 5920,10858"/>
 <path fill="none" stroke="rgb(179,179,179)" stroke-linejoin="round" d="M 6760,11008 L 6760,10858"/>
 <path fill="none" stroke="rgb(179,179,179)" stroke-linejoin="round" d="M 6760,11008 L 6760,10858"/>
 <path fill="none" stroke="rgb(179,179,179)" stroke-linejoin="round" d="M 7600,11008 L 7600,10858"/>
 <path fill="none" stroke="rgb(179,179,179)" stroke-linejoin="round" d="M 7600,11008 L 7600,10858"/>
 <path fill="none" stroke="rgb(179,179,179)" stroke-linejoin="round" d="M 8440,11008 L 8440,10858"/>
 <path fill="none" stroke="rgb(179,179,179)" stroke-linejoin="round" d="M 8440,11008 L 8440,10858"/>
 <path fill="none" stroke="rgb(179,179,179)" stroke-linejoin="round" d="M 9280,11008 L 9280,10858"/>
 <path fill="none" stroke="rgb(179,179,179)" stroke-linejoin="round" d="M 9280,11008 L 9280,10858"/>
 <path fill="none" stroke="rgb(179,179,179)" stroke-linejoin="round" d="M 10120,11008 L 10120,10858"/>
 <path fill="none" stroke="rgb(179,179,179)" stroke-linejoin="round" d="M 10120,11008 L 10120,10858"/>
 <path fill="none" stroke="rgb(179,179,179)" stroke-linejoin="round" d="M 10960,11008 L 10960,10858"/>
 <path fill="none" stroke="rgb(179,179,179)" stroke-linejoin="round" d="M 10960,11008 L 10960,10858"/>
 <path fill="none" stroke="rgb(179,179,179)" stroke-linejoin="round" d="M 11800,11008 L 11800,10858"/>
 <path fill="none" stroke="rgb(179,179,179)" stroke-linejoin="round" d="M 11800,11008 L 11800,10858"/>
 <path fill="none" stroke="rgb(179,179,179)" stroke-linejoin="round" d="M 12639,11008 L 12639,10858"/>
 <path fill="none" stroke="rgb(179,179,179)" stroke-linejoin="round" d="M 12639,11008 L 12639,10858"/>
 <path fill="none" stroke="rgb(179,179,179)" stroke-linejoin="round" d="M 13478,11008 L 13478,10858"/>
 <path fill="none" stroke="rgb(179,179,179)" stroke-linejoin="round" d="M 13478,11008 L 13478,10858"/>
 <path fill="none" stroke="rgb(179,179,179)" stroke-linejoin="round" d="M 14318,11008 L 14318,10858"/>
 <path fill="none" stroke="rgb(179,179,179)" stroke-linejoin="round" d="M 14318,11008 L 14318,10858"/>
 <path fill="none" stroke="rgb(179,179,179)" stroke-linejoin="round" d="M 15158,11008 L 15158,10858"/>
 <path fill="none" stroke="rgb(179,179,179)" stroke-linejoin="round" d="M 15158,11008 L 15158,10858"/>
 <path fill="none" stroke="rgb(179,179,179)" stroke-linejoin="round" d="M 15998,11008 L 15998,10858"/>
 <path fill="none" stroke="rgb(179,179,179)" stroke-linejoin="round" d="M 15998,11008 L 15998,10858"/>
 <path fill="none" stroke="rgb(179,179,179)" stroke-linejoin="round" d="M 16838,11008 L 16838,10858"/>
 <path fill="none" stroke="rgb(179,179,179)" stroke-linejoin="round" d="M 16838,11008 L 16838,10858"/>
 <path fill="none" stroke="rgb(179,179,179)" stroke-linejoin="round" d="M 17678,11008 L 17678,10858"/>
 <path fill="none" stroke="rgb(179,179,179)" stroke-linejoin="round" d="M 17678,11008 L 17678,10858"/>
 <path fill="none" stroke="rgb(179,179,179)" stroke-linejoin="round" d="M 18518,11008 L 18518,10858"/>
 <path fill="none" stroke="rgb(179,179,179)" stroke-linejoin="round" d="M 18518,11008 L 18518,10858"/>
 <path fill="none" stroke="rgb(179,179,179)" stroke-linejoin="round" d="M 19358,11008 L 19358,10858"/>
 <path fill="none" stroke="rgb(179,179,179)" stroke-linejoin="round" d="M 19358,11008 L 19358,10858"/>
 <path fill="none" stroke="rgb(179,179,179)" stroke-linejoin="round" d="M 20198,11008 L 20198,10858"/>
 <path fill="none" stroke="rgb(179,179,179)" stroke-linejoin="round" d="M 20198,11008 L 20198,10858"/>
 <path fill="none" stroke="rgb(179,179,179)" stroke-linejoin="round" d="M 21038,11008 L 21038,10858"/>
 <path fill="none" stroke="rgb(179,179,179)" stroke-linejoin="round" d="M 21038,11008 L 21038,10858"/>
 <path fill="none" stroke="rgb(179,179,179)" stroke-linejoin="round" d="M 21878,11008 L 21878,10858"/>
 <path fill="none" stroke="rgb(179,179,179)" stroke-linejoin="round" d="M 21878,11008 L 21878,10858"/>
 <path fill="none" stroke="rgb(179,179,179)" stroke-linejoin="round" d="M 22718,11008 L 22718,10858"/>
 <path fill="none" stroke="rgb(179,179,179)" stroke-linejoin="round" d="M 22718,11008 L 22718,10858"/>
 <path fill="none" stroke="rgb(179,179,179)" stroke-linejoin="round" d="M 2560,10858 L 23437,10858"/>
 <path fill="none" stroke="rgb(179,179,179)" stroke-linejoin="round" d="M 2410,10858 L 2560,10858"/>
 <path fill="none" stroke="rgb(179,179,179)" stroke-linejoin="round" d="M 2410,10858 L 2560,10858"/>
 <path fill="none" stroke="rgb(179,179,179)" stroke-linejoin="round" d="M 2410,9839 L 2560,9839"/>
 <path fill="none" stroke="rgb(179,179,179)" stroke-linejoin="round" d="M 2410,9839 L 2560,9839"/>
 <path fill="none" stroke="rgb(179,179,179)" stroke-linejoin="round" d="M 2410,8820 L 2560,8820"/>
 <path fill="none" stroke="rgb(179,179,179)" stroke-linejoin="round" d="M 2410,8820 L 2560,8820"/>
 <path fill="none" stroke="rgb(179,179,179)" stroke-linejoin="round" d="M 2410,7802 L 2560,7802"/>
 <path fill="none" stroke="rgb(179,179,179)" stroke-linejoin="round" d="M 2410,7802 L 2560,7802"/>
 <path fill="none" stroke="rgb(179,179,179)" stroke-linejoin="round" d="M 2410,6783 L 2560,6783"/>
 <path fill="none" stroke="rgb(179,179,179)" stroke-linejoin="round" d="M 2410,6783 L 2560,6783"/>
 <path fill="none" stroke="rgb(179,179,179)" stroke-linejoin="round" d="M 2410,5765 L 2560,5765"/>
 <path fill="none" stroke="rgb(179,179,179)" stroke-linejoin="round" d="M 2410,5765 L 2560,5765"/>
 <path fill="none" stroke="rgb(179,179,179)" stroke-linejoin="round" d="M 2410,4747 L 2560,4747"/>
 <path fill="none" stroke="rgb(179,179,179)" stroke-linejoin="round" d="M 2410,4747 L 2560,4747"/>
 <path fill="none" stroke="rgb(179,179,179)" stroke-linejoin="round" d="M 2410,3728 L 2560,3728"/>
 <path fill="none" stroke="rgb(179,179,179)" stroke-linejoin="round" d="M 2410,3728 L 2560,3728"/>
 <path fill="none" stroke="rgb(179,179,179)" stroke-linejoin="round" d="M 2410,2709 L 2560,2709"/>
 <path fill="none" stroke="rgb(179,179,179)" stroke-linejoin="round" d="M 2410,2709 L 2560,2709"/>
 <path fill="none" stroke="rgb(179,179,179)" stroke-linejoin="round" d="M 2410,1691 L 2560,1691"/>
 <path fill="none" stroke="rgb(179,179,179)" stroke-linejoin="round" d="M 2410,1691 L 2560,1691"/>
 <path fill="none" stroke="rgb(179,179,179)" stroke-linejoin="round" d="M 2560,10858 L 2560,1691"/>
 <path fill="none" stroke="rgb(255,191,0)" stroke-width="80" stroke-linejoin="round" d="M 2620,10857 L 2740,10857 2860,10856 2980,10856 3100,10855 3220,10854 3340,10852 3460,10850 3580,10847 3700,10844 3820,10841 3940,10837 4060,10830 4180,10822 4300,10812 4420,10800 4540,10786 4660,10771 4780,10748 4900,10731 5020,10679 5140,10641 5260,10604 5380,10552 5500,10501 5620,10438 5740,10352 5860,10263 5980,10168 6100,10081 6220,9966 6340,9861 6460,9726 6580,9567 6700,9411 6820,9249 6940,9120 7060,8985 7180,8831 7300,8679 7420,8533 7540,8379 7660,8240 7780,8130 7900,8023 8020,7908 8140,7776 8260,7646 8380,7513 8500,7402 8620,7179 8740,7091 8860,7008 8980,6900 9100,6732 9220,6625 9340,6563 9460,6449 9580,6383 9700,6304 9820,6240 9940,6150 10060,6139 10180,6073 10300,6020 10420,5963 10540,5909 10660,5873 10780,5829 10900,5789 11020,5749 11140,5719 11260,5691 11380,5655 11500,5603 11620,5561 11740,5518 11859,5487 11979,5461 12099,5426 12219,5396 12339,5372 12459,5342 12579,5314 12699,5293 12819,5276 12939,5258 13058,5231 13178,5205 13298,5183 13418,5152 13538,5133 13658,5117 13778,5105 13898,5088 14018,5071 14138,5028 14258,5004 14378,4977 14498,4963 14618,4951 14738,4942 14858,4918 14978,4896 15098,4873 15218,4850 15338,4832 15458,4817 15578,4799 15698,4781 15818,4759 15938,4734 16058,4713 16178,4696 16298,4681 16418,4662 16538,4640 16658,4611 16778,4585 16898,4566 17018,4551 17138,4538 17258,4512 17378,4489 17498,4466 17618,4436 17738,4421 17858,4412 17978,4378 18098,4359 18218,4334 18338,4310 18458,4288 18578,4275 18698,4264 18818,4232 18938,4216 19058,4198 19178,4172 19298,4146 19418,4131 19538,4119 19658,4085 19778,4069 19898,4042 20018,4012 20138,3980 20258,3963 20378,3950 20498,3896 20618,3869 20738,3834 20858,3793 20978,3752 21098,3729 21218,3710 21338,3645 21458,3611 21578,3573 21698,3520 21818,3460 21938,3435 22058,3416 22178,3348 22298,3276 22418,3228 22538,3158 22658,3078 22778,3049 22898,3023 23018,2928 23138,2882 23258,2801 23378,2723"/>
 <path fill="none" stroke="rgb(85,48,141)" stroke-width="80" stroke-linejoin="round" d="M 2620,10857 L 2740,10857 2860,10856 2980,10856 3100,10855 3220,10854 3340,10853 3460,10851 3580,10848 3700,10845 3820,10843 3940,10839 4060,10833 4180,10826 4300,10817 4420,10806 4540,10793 4660,10779 4780,10759 4900,10744 5020,10696 5140,10663 5260,10630 5380,10583 5500,10539 5620,10485 5740,10405 5860,10325 5980,10249 6100,10188 6220,10079 6340,10018 6460,9912 6580,9795 6700,9677 6820,9559 6940,9472 7060,9397 7180,9299 7300,9216 7420,9150 7540,9065 7660,8990 7780,8936 7900,8873 8020,8854 8140,8840 8260,8809 8380,8745 8500,8707 8620,8548 8740,8519 8860,8501 8980,8477 9100,8407 9220,8379 9340,8367 9460,8311 9580,8311 9700,8354 9820,8374 9940,8365 10060,8459 10180,8446 10300,8442 10420,8435 10540,8439 10660,8511 10780,8552 10900,8558 11020,8581 11140,8586 11260,8605 11380,8624 11500,8695 11620,8712 11740,8719 11859,8744 11979,8756 12099,8750 12219,8773 12339,8814 12459,8841 12579,8872 12699,8888 12819,8909 12939,8950 13058,8947 13178,8963 13298,8972 13418,8977 13538,8981 13658,9032 13778,9034 13898,9050 14018,9068 14138,9061 14258,9063 14378,9066 14498,9070 14618,9069 14738,9082 14858,9080 14978,9077 15098,9076 15218,9071 15338,9063 15458,9059 15578,9062 15698,9063 15818,9059 15938,9053 16058,9050 16178,9045 16298,9041 16418,9040 16538,9034 16658,9020 16778,9017 16898,9012 17018,9007 17138,9006 17258,8998 17378,8998 17498,8991 17618,8976 17738,8975 17858,8976 17978,8950 18098,8947 18218,8938 18338,8927 18458,8918 18578,8917 18698,8917 18818,8894 18938,8892 19058,8890 19178,8879 19298,8866 19418,8861 19538,8857 19658,8836 19778,8828 19898,8822 20018,8805 20138,8786 20258,8780 20378,8773 20498,8732 20618,8722 20738,8700 20858,8675 20978,8651 21098,8637 21218,8635 21338,8579 21458,8556 21578,8530 21698,8492 21818,8446 21938,8433 22058,8422 22178,8365 22298,8306 22418,8274 22538,8223 22658,8160 22778,8145 22898,8126 23018,8043 23138,8011 23258,7949 23378,7886"/>
 <path fill="none" stroke="rgb(0,169,51)" stroke-width="80" stroke-linejoin="round" d="M 2620,10857 L 2740,10857 2860,10857 2980,10857 3100,10857 3220,10857 3340,10857 3460,10857 3580,10857 3700,10857 3820,10857 3940,10856 4060,10855 4180,10855 4300,10854 4420,10854 4540,10853 4660,10853 4780,10851 4900,10851 5020,10849 5140,10844 5260,10842 5380,10840 5500,10837 5620,10830 5740,10828 5860,10825 5980,10813 6100,10794 6220,10794 6340,10759 6460,10740 6580,10709 6700,10683 6820,10650 6940,10620 7060,10574 7180,10531 7300,10478 7420,10416 7540,10364 7660,10316 7780,10271 7900,10242 8020,10166 8140,10062 8260,9981 8380,9929 8500,9868 8620,9817 8740,9770 8860,9717 8980,9653 9100,9571 9220,9508 9340,9467 9460,9419 9580,9365 9700,9255 9820,9182 9940,9113 10060,9018 10180,8976 10300,8933 10420,8891 10540,8841 10660,8744 10780,8667 10900,8625 11020,8570 11140,8538 11260,8497 11380,8449 11500,8334 11620,8282 11740,8238 11859,8185 11979,8151 12099,8126 12219,8078 12339,8018 12459,7966 12579,7912 12699,7877 12819,7844 12939,7787 13058,7765 13178,7726 13298,7698 13418,7668 13538,7646 13658,7581 13778,7559 13898,7529 14018,7497 14138,7462 14258,7438 14378,7411 14498,7393 14618,7383 14738,7363 14858,7342 14978,7325 15098,7305 15218,7288 15338,7279 15458,7268 15578,7249 15698,7232 15818,7214 15938,7196 16058,7179 16178,7168 16298,7157 16418,7141 16538,7126 16658,7111 16778,7096 16898,7083 17018,7073 17138,7061 17258,7045 17378,7022 17498,7007 17618,6992 17738,6978 17858,6970 17978,6961 18098,6947 18218,6931 18338,6919 18458,6907 18578,6894 18698,6884 18818,6876 18938,6862 19058,6847 19178,6832 19298,6821 19418,6811 19538,6803 19658,6791 19778,6782 19898,6763 20018,6751 20138,6738 20258,6728 20378,6721 20498,6710 20618,6692 20738,6680 20858,6664 20978,6647 21098,6639 21218,6623 21338,6613 21458,6603 21578,6591 21698,6578 21818,6564 21938,6552 22058,6545 22178,6533 22298,6522 22418,6506 22538,6488 22658,6471 22778,6458 22898,6451 23018,6440 23138,6426 23258,6408 23378,6395"/>
 <text class="TextShape" transform="rotate(-90 2746 12062)"><tspan class="TextParagraph" font-family="Liberation Sans, sans-serif" font-size="388px" font-weight="400"><tspan class="TextPosition" x="2746" y="12062"><tspan fill="rgb(0,0,0)" stroke="none">22.02</tspan></tspan></tspan></text>
 <text class="TextShape" transform="rotate(-90 3586 12062)"><tspan class="TextParagraph" font-family="Liberation Sans, sans-serif" font-size="388px" font-weight="400"><tspan class="TextPosition" x="3586" y="12062"><tspan fill="rgb(0,0,0)" stroke="none">29.02</tspan></tspan></tspan></text>
 <text class="TextShape" transform="rotate(-90 4426 12062)"><tspan class="TextParagraph" font-family="Liberation Sans, sans-serif" font-size="388px" font-weight="400"><tspan class="TextPosition" x="4426" y="12062"><tspan fill="rgb(0,0,0)" stroke="none">07.03</tspan></tspan></tspan></text>
 <text class="TextShape" transform="rotate(-90 5266 12062)"><tspan class="TextParagraph" font-family="Liberation Sans, sans-serif" font-size="388px" font-weight="400"><tspan class="TextPosition" x="5266" y="12062"><tspan fill="rgb(0,0,0)" stroke="none">14.03</tspan></tspan></tspan></text>
 <text class="TextShape" transform="rotate(-90 6106 12062)"><tspan class="TextParagraph" font-family="Liberation Sans, sans-serif" font-size="388px" font-weight="400"><tspan class="TextPosition" x="6106" y="12062"><tspan fill="rgb(0,0,0)" stroke="none">21.03</tspan></tspan></tspan></text>
 <text class="TextShape" transform="rotate(-90 6946 12062)"><tspan class="TextParagraph" font-family="Liberation Sans, sans-serif" font-size="388px" font-weight="400"><tspan class="TextPosition" x="6946" y="12062"><tspan fill="rgb(0,0,0)" stroke="none">28.03</tspan></tspan></tspan></text>
 <text class="TextShape" transform="rotate(-90 7786 12062)"><tspan class="TextParagraph" font-family="Liberation Sans, sans-serif" font-size="388px" font-weight="400"><tspan class="TextPosition" x="7786" y="12062"><tspan fill="rgb(0,0,0)" stroke="none">04.04</tspan></tspan></tspan></text>
 <text class="TextShape" transform="rotate(-90 8626 12062)"><tspan class="TextParagraph" font-family="Liberation Sans, sans-serif" font-size="388px" font-weight="400"><tspan class="TextPosition" x="8626" y="12062"><tspan fill="rgb(0,0,0)" stroke="none">11.04</tspan></tspan></tspan></text>
 <text class="TextShape" transform="rotate(-90 9466 12062)"><tspan class="TextParagraph" font-family="Liberation Sans, sans-serif" font-size="388px" font-weight="400"><tspan class="TextPosition" x="9466" y="12062"><tspan fill="rgb(0,0,0)" stroke="none">18.04</tspan></tspan></tspan></text>
 <text class="TextShape" transform="rotate(-90 10306 12062)"><tspan class="TextParagraph" font-family="Liberation Sans, sans-serif" font-size="388px" font-weight="400"><tspan class="TextPosition" x="10306" y="12062"><tspan fill="rgb(0,0,0)" stroke="none">25.04</tspan></tspan></tspan></text>
 <text class="TextShape" transform="rotate(-90 11146 12062)"><tspan class="TextParagraph" font-family="Liberation Sans, sans-serif" font-size="388px" font-weight="400"><tspan class="TextPosition" x="11146" y="12062"><tspan fill="rgb(0,0,0)" stroke="none">02.05</tspan></tspan></tspan></text>
 <text class="TextShape" transform="rotate(-90 11985 12062)"><tspan class="TextParagraph" font-family="Liberation Sans, sans-serif" font-size="388px" font-weight="400"><tspan class="TextPosition" x="11985" y="12062"><tspan fill="rgb(0,0,0)" stroke="none">09.05</tspan></tspan></tspan></text>
 <text class="TextShape" transform="rotate(-90 12825 12062)"><tspan class="TextParagraph" font-family="Liberation Sans, sans-serif" font-size="388px" font-weight="400"><tspan class="TextPosition" x="12825" y="12062"><tspan fill="rgb(0,0,0)" stroke="none">16.05</tspan></tspan></tspan></text>
 <text class="TextShape" transform="rotate(-90 13664 12062)"><tspan class="TextParagraph" font-family="Liberation Sans, sans-serif" font-size="388px" font-weight="400"><tspan class="TextPosition" x="13664" y="12062"><tspan fill="rgb(0,0,0)" stroke="none">23.05</tspan></tspan></tspan></text>
 <text class="TextShape" transform="rotate(-90 14504 12062)"><tspan class="TextParagraph" font-family="Liberation Sans, sans-serif" font-size="388px" font-weight="400"><tspan class="TextPosition" x="14504" y="12062"><tspan fill="rgb(0,0,0)" stroke="none">30.05</tspan></tspan></tspan></text>
 <text class="TextShape" transform="rotate(-90 15344 12062)"><tspan class="TextParagraph" font-family="Liberation Sans, sans-serif" font-size="388px" font-weight="400"><tspan class="TextPosition" x="15344" y="12062"><tspan fill="rgb(0,0,0)" stroke="none">06.06</tspan></tspan></tspan></text>
 <text class="TextShape" transform="rotate(-90 16184 12062)"><tspan class="TextParagraph" font-family="Liberation Sans, sans-serif" font-size="388px" font-weight="400"><tspan class="TextPosition" x="16184" y="12062"><tspan fill="rgb(0,0,0)" stroke="none">13.06</tspan></tspan></tspan></text>
 <text class="TextShape" transform="rotate(-90 17024 12062)"><tspan class="TextParagraph" font-family="Liberation Sans, sans-serif" font-size="388px" font-weight="400"><tspan class="TextPosition" x="17024" y="12062"><tspan fill="rgb(0,0,0)" stroke="none">20.06</tspan></tspan></tspan></text>
 <text class="TextShape" transform="rotate(-90 17864 12062)"><tspan class="TextParagraph" font-family="Liberation Sans, sans-serif" font-size="388px" font-weight="400"><tspan class="TextPosition" x="17864" y="12062"><tspan fill="rgb(0,0,0)" stroke="none">27.06</tspan></tspan></tspan></text>
 <text class="TextShape" transform="rotate(-90 18704 12062)"><tspan class="TextParagraph" font-family="Liberation Sans, sans-serif" font-size="388px" font-weight="400"><tspan class="TextPosition" x="18704" y="12062"><tspan fill="rgb(0,0,0)" stroke="none">04.07</tspan></tspan></tspan></text>
 <text class="TextShape" transform="rotate(-90 19544 12062)"><tspan class="TextParagraph" font-family="Liberation Sans, sans-serif" font-size="388px" font-weight="400"><tspan class="TextPosition" x="19544" y="12062"><tspan fill="rgb(0,0,0)" stroke="none">11.07</tspan></tspan></tspan></text>
 <text class="TextShape" transform="rotate(-90 20384 12062)"><tspan class="TextParagraph" font-family="Liberation Sans, sans-serif" font-size="388px" font-weight="400"><tspan class="TextPosition" x="20384" y="12062"><tspan fill="rgb(0,0,0)" stroke="none">18.07</tspan></tspan></tspan></text>
 <text class="TextShape" transform="rotate(-90 21224 12062)"><tspan class="TextParagraph" font-family="Liberation Sans, sans-serif" font-size="388px" font-weight="400"><tspan class="TextPosition" x="21224" y="12062"><tspan fill="rgb(0,0,0)" stroke="none">25.07</tspan></tspan></tspan></text>
 <text class="TextShape" transform="rotate(-90 22064 12062)"><tspan class="TextParagraph" font-family="Liberation Sans, sans-serif" font-size="388px" font-weight="400"><tspan class="TextPosition" x="22064" y="12062"><tspan fill="rgb(0,0,0)" stroke="none">01.08</tspan></tspan></tspan></text>
 <text class="TextShape" transform="rotate(-90 22904 12062)"><tspan class="TextParagraph" font-family="Liberation Sans, sans-serif" font-size="388px" font-weight="400"><tspan class="TextPosition" x="22904" y="12062"><tspan fill="rgb(0,0,0)" stroke="none">08.08</tspan></tspan></tspan></text>
 <text class="TextShape"><tspan class="TextParagraph" font-family="Liberation Sans, sans-serif" font-size="388px" font-weight="400"><tspan class="TextPosition" x="2098" y="10986"><tspan fill="rgb(0,0,0)" stroke="none">0</tspan></tspan></tspan></text>
 <text class="TextShape"><tspan class="TextParagraph" font-family="Liberation Sans, sans-serif" font-size="388px" font-weight="400"><tspan class="TextPosition" x="934" y="9967"><tspan fill="rgb(0,0,0)" stroke="none">200 000</tspan></tspan></tspan></text>
 <text class="TextShape"><tspan class="TextParagraph" font-family="Liberation Sans, sans-serif" font-size="388px" font-weight="400"><tspan class="TextPosition" x="934" y="8948"><tspan fill="rgb(0,0,0)" stroke="none">400 000</tspan></tspan></tspan></text>
 <text class="TextShape"><tspan class="TextParagraph" font-family="Liberation Sans, sans-serif" font-size="388px" font-weight="400"><tspan class="TextPosition" x="934" y="7930"><tspan fill="rgb(0,0,0)" stroke="none">600 000</tspan></tspan></tspan></text>
 <text class="TextShape"><tspan class="TextParagraph" font-family="Liberation Sans, sans-serif" font-size="388px" font-weight="400"><tspan class="TextPosition" x="934" y="6911"><tspan fill="rgb(0,0,0)" stroke="none">800 000</tspan></tspan></tspan></text>
 <text class="TextShape"><tspan class="TextParagraph" font-family="Liberation Sans, sans-serif" font-size="388px" font-weight="400"><tspan class="TextPosition" x="617" y="5892"><tspan fill="rgb(0,0,0)" stroke="none">1 000 000</tspan></tspan></tspan></text>
 <text class="TextShape"><tspan class="TextParagraph" font-family="Liberation Sans, sans-serif" font-size="388px" font-weight="400"><tspan class="TextPosition" x="617" y="4874"><tspan fill="rgb(0,0,0)" stroke="none">1 200 000</tspan></tspan></tspan></text>
 <text class="TextShape"><tspan class="TextParagraph" font-family="Liberation Sans, sans-serif" font-size="388px" font-weight="400"><tspan class="TextPosition" x="617" y="3855"><tspan fill="rgb(0,0,0)" stroke="none">1 400 000</tspan></tspan></tspan></text>
 <text class="TextShape"><tspan class="TextParagraph" font-family="Liberation Sans, sans-serif" font-size="388px" font-weight="400"><tspan class="TextPosition" x="617" y="2836"><tspan fill="rgb(0,0,0)" stroke="none">1 600 000</tspan></tspan></tspan></text>
 <text class="TextShape"><tspan class="TextParagraph" font-family="Liberation Sans, sans-serif" font-size="388px" font-weight="400"><tspan class="TextPosition" x="617" y="1818"><tspan fill="rgb(0,0,0)" stroke="none">1 800 000</tspan></tspan></tspan></text>
 <text class="TextShape"><tspan class="TextParagraph" font-family="Liberation Sans, sans-serif" font-size="494px" font-weight="700"><tspan class="TextPosition" x="389" y="705"><tspan fill="rgb(0,0,0)" stroke="none">EU</tspan></tspan></tspan></text>
 <path fill="none" stroke="rgb(255,191,0)" stroke-width="80" stroke-linejoin="round" d="M 998,1101 L 1798,1101"/>
 <path fill="none" stroke="rgb(85,48,141)" stroke-width="80" stroke-linejoin="round" d="M 8932,1101 L 9732,1101"/>
 <path fill="none" stroke="rgb(0,169,51)" stroke-width="80" stroke-linejoin="round" d="M 16082,1101 L 16882,1101"/>
 <text class="TextShape"><tspan class="TextParagraph" font-family="Liberation Sans, sans-serif" font-size="494px" font-weight="400"><tspan class="TextPosition" x="1906" y="1270"><tspan fill="rgb(0,0,0)" stroke="none">celkový počet infikovaných</tspan></tspan></tspan></text>
 <text class="TextShape"><tspan class="TextParagraph" font-family="Liberation Sans, sans-serif" font-size="494px" font-weight="400"><tspan class="TextPosition" x="9840" y="1270"><tspan fill="rgb(0,0,0)" stroke="none">počet aktivních případů</tspan></tspan></tspan></text>
 <text class="TextShape"><tspan class="TextParagraph" font-family="Liberation Sans, sans-serif" font-size="494px" font-weight="400"><tspan class="TextPosition" x="16990" y="1270"><tspan fill="rgb(0,0,0)" stroke="none">celkový počet vyléčených</tspan></tspan></tspan></text>
</svg>