<?xml version="1.0" encoding="UTF-8"?>
<!DOCTYPE svg PUBLIC "-//W3C//DTD SVG 1.1//EN" "http://www.w3.org/Graphics/SVG/1.1/DTD/svg11.dtd">
<svg width="236mm" height="125mm" viewBox="0 0 23600 12500" version="1.1" xmlns="http://www.w3.org/2000/svg" xmlns:xlink="http://www.w3.org/1999/xlink" stroke-width="28.222" stroke-linejoin="round" xml:space="preserve">
 <path fill="rgb(255,255,255)" stroke="none" d="M 11800,12500 L 0,12500 0,0 23600,0 23600,12500 11800,12500 Z"/>
 <path fill="none" stroke="rgb(179,179,179)" stroke-linejoin="round" d="M 12999,10859 L 2561,10859 2561,1692 23438,1692 23438,10859 12999,10859 Z"/>
 <path fill="none" stroke="rgb(179,179,179)" stroke-linejoin="round" d="M 23438,10858 L 2561,10858"/>
 <path fill="none" stroke="rgb(179,179,179)" stroke-linejoin="round" d="M 23438,9330 L 2561,9330"/>
 <path fill="none" stroke="rgb(179,179,179)" stroke-linejoin="round" d="M 23438,7802 L 2561,7802"/>
 <path fill="none" stroke="rgb(179,179,179)" stroke-linejoin="round" d="M 23438,6274 L 2561,6274"/>
 <path fill="none" stroke="rgb(179,179,179)" stroke-linejoin="round" d="M 23438,4747 L 2561,4747"/>
 <path fill="none" stroke="rgb(179,179,179)" stroke-linejoin="round" d="M 23438,3219 L 2561,3219"/>
 <path fill="none" stroke="rgb(179,179,179)" stroke-linejoin="round" d="M 23438,1691 L 2561,1691"/>
 <path fill="none" stroke="rgb(179,179,179)" stroke-linejoin="round" d="M 2561,11008 L 2561,10858"/>
 <path fill="none" stroke="rgb(179,179,179)" stroke-linejoin="round" d="M 2561,11008 L 2561,10858"/>
 <path fill="none" stroke="rgb(179,179,179)" stroke-linejoin="round" d="M 3430,11008 L 3430,10858"/>
 <path fill="none" stroke="rgb(179,179,179)" stroke-linejoin="round" d="M 3430,11008 L 3430,10858"/>
 <path fill="none" stroke="rgb(179,179,179)" stroke-linejoin="round" d="M 4300,11008 L 4300,10858"/>
 <path fill="none" stroke="rgb(179,179,179)" stroke-linejoin="round" d="M 4300,11008 L 4300,10858"/>
 <path fill="none" stroke="rgb(179,179,179)" stroke-linejoin="round" d="M 5170,11008 L 5170,10858"/>
 <path fill="none" stroke="rgb(179,179,179)" stroke-linejoin="round" d="M 5170,11008 L 5170,10858"/>
 <path fill="none" stroke="rgb(179,179,179)" stroke-linejoin="round" d="M 6040,11008 L 6040,10858"/>
 <path fill="none" stroke="rgb(179,179,179)" stroke-linejoin="round" d="M 6040,11008 L 6040,10858"/>
 <path fill="none" stroke="rgb(179,179,179)" stroke-linejoin="round" d="M 6910,11008 L 6910,10858"/>
 <path fill="none" stroke="rgb(179,179,179)" stroke-linejoin="round" d="M 6910,11008 L 6910,10858"/>
 <path fill="none" stroke="rgb(179,179,179)" stroke-linejoin="round" d="M 7780,11008 L 7780,10858"/>
 <path fill="none" stroke="rgb(179,179,179)" stroke-linejoin="round" d="M 7780,11008 L 7780,10858"/>
 <path fill="none" stroke="rgb(179,179,179)" stroke-linejoin="round" d="M 8650,11008 L 8650,10858"/>
 <path fill="none" stroke="rgb(179,179,179)" stroke-linejoin="round" d="M 8650,11008 L 8650,10858"/>
 <path fill="none" stroke="rgb(179,179,179)" stroke-linejoin="round" d="M 9520,11008 L 9520,10858"/>
 <path fill="none" stroke="rgb(179,179,179)" stroke-linejoin="round" d="M 9520,11008 L 9520,10858"/>
 <path fill="none" stroke="rgb(179,179,179)" stroke-linejoin="round" d="M 10390,11008 L 10390,10858"/>
 <path fill="none" stroke="rgb(179,179,179)" stroke-linejoin="round" d="M 10390,11008 L 10390,10858"/>
 <path fill="none" stroke="rgb(179,179,179)" stroke-linejoin="round" d="M 11260,11008 L 11260,10858"/>
 <path fill="none" stroke="rgb(179,179,179)" stroke-linejoin="round" d="M 11260,11008 L 11260,10858"/>
 <path fill="none" stroke="rgb(179,179,179)" stroke-linejoin="round" d="M 12129,11008 L 12129,10858"/>
 <path fill="none" stroke="rgb(179,179,179)" stroke-linejoin="round" d="M 12129,11008 L 12129,10858"/>
 <path fill="none" stroke="rgb(179,179,179)" stroke-linejoin="round" d="M 12999,11008 L 12999,10858"/>
 <path fill="none" stroke="rgb(179,179,179)" stroke-linejoin="round" d="M 12999,11008 L 12999,10858"/>
 <path fill="none" stroke="rgb(179,179,179)" stroke-linejoin="round" d="M 13868,11008 L 13868,10858"/>
 <path fill="none" stroke="rgb(179,179,179)" stroke-linejoin="round" d="M 13868,11008 L 13868,10858"/>
 <path fill="none" stroke="rgb(179,179,179)" stroke-linejoin="round" d="M 14738,11008 L 14738,10858"/>
 <path fill="none" stroke="rgb(179,179,179)" stroke-linejoin="round" d="M 14738,11008 L 14738,10858"/>
 <path fill="none" stroke="rgb(179,179,179)" stroke-linejoin="round" d="M 15608,11008 L 15608,10858"/>
 <path fill="none" stroke="rgb(179,179,179)" stroke-linejoin="round" d="M 15608,11008 L 15608,10858"/>
 <path fill="none" stroke="rgb(179,179,179)" stroke-linejoin="round" d="M 16478,11008 L 16478,10858"/>
 <path fill="none" stroke="rgb(179,179,179)" stroke-linejoin="round" d="M 16478,11008 L 16478,10858"/>
 <path fill="none" stroke="rgb(179,179,179)" stroke-linejoin="round" d="M 17348,11008 L 17348,10858"/>
 <path fill="none" stroke="rgb(179,179,179)" stroke-linejoin="round" d="M 17348,11008 L 17348,10858"/>
 <path fill="none" stroke="rgb(179,179,179)" stroke-linejoin="round" d="M 18218,11008 L 18218,10858"/>
 <path fill="none" stroke="rgb(179,179,179)" stroke-linejoin="round" d="M 18218,11008 L 18218,10858"/>
 <path fill="none" stroke="rgb(179,179,179)" stroke-linejoin="round" d="M 19088,11008 L 19088,10858"/>
 <path fill="none" stroke="rgb(179,179,179)" stroke-linejoin="round" d="M 19088,11008 L 19088,10858"/>
 <path fill="none" stroke="rgb(179,179,179)" stroke-linejoin="round" d="M 19958,11008 L 19958,10858"/>
 <path fill="none" stroke="rgb(179,179,179)" stroke-linejoin="round" d="M 19958,11008 L 19958,10858"/>
 <path fill="none" stroke="rgb(179,179,179)" stroke-linejoin="round" d="M 20828,11008 L 20828,10858"/>
 <path fill="none" stroke="rgb(179,179,179)" stroke-linejoin="round" d="M 20828,11008 L 20828,10858"/>
 <path fill="none" stroke="rgb(179,179,179)" stroke-linejoin="round" d="M 21698,11008 L 21698,10858"/>
 <path fill="none" stroke="rgb(179,179,179)" stroke-linejoin="round" d="M 21698,11008 L 21698,10858"/>
 <path fill="none" stroke="rgb(179,179,179)" stroke-linejoin="round" d="M 22568,11008 L 22568,10858"/>
 <path fill="none" stroke="rgb(179,179,179)" stroke-linejoin="round" d="M 22568,11008 L 22568,10858"/>
 <path fill="none" stroke="rgb(179,179,179)" stroke-linejoin="round" d="M 23438,11008 L 23438,10858"/>
 <path fill="none" stroke="rgb(179,179,179)" stroke-linejoin="round" d="M 23438,11008 L 23438,10858"/>
 <path fill="none" stroke="rgb(179,179,179)" stroke-linejoin="round" d="M 2561,10858 L 23438,10858"/>
 <path fill="none" stroke="rgb(179,179,179)" stroke-linejoin="round" d="M 2411,10858 L 2561,10858"/>
 <path fill="none" stroke="rgb(179,179,179)" stroke-linejoin="round" d="M 2411,10858 L 2561,10858"/>
 <path fill="none" stroke="rgb(179,179,179)" stroke-linejoin="round" d="M 2411,9330 L 2561,9330"/>
 <path fill="none" stroke="rgb(179,179,179)" stroke-linejoin="round" d="M 2411,9330 L 2561,9330"/>
 <path fill="none" stroke="rgb(179,179,179)" stroke-linejoin="round" d="M 2411,7802 L 2561,7802"/>
 <path fill="none" stroke="rgb(179,179,179)" stroke-linejoin="round" d="M 2411,7802 L 2561,7802"/>
 <path fill="none" stroke="rgb(179,179,179)" stroke-linejoin="round" d="M 2411,6274 L 2561,6274"/>
 <path fill="none" stroke="rgb(179,179,179)" stroke-linejoin="round" d="M 2411,6274 L 2561,6274"/>
 <path fill="none" stroke="rgb(179,179,179)" stroke-linejoin="round" d="M 2411,4746 L 2561,4746"/>
 <path fill="none" stroke="rgb(179,179,179)" stroke-linejoin="round" d="M 2411,4746 L 2561,4746"/>
 <path fill="none" stroke="rgb(179,179,179)" stroke-linejoin="round" d="M 2411,3219 L 2561,3219"/>
 <path fill="none" stroke="rgb(179,179,179)" stroke-linejoin="round" d="M 2411,3219 L 2561,3219"/>
 <path fill="none" stroke="rgb(179,179,179)" stroke-linejoin="round" d="M 2411,1691 L 2561,1691"/>
 <path fill="none" stroke="rgb(179,179,179)" stroke-linejoin="round" d="M 2411,1691 L 2561,1691"/>
 <path fill="none" stroke="rgb(179,179,179)" stroke-linejoin="round" d="M 2561,10858 L 2561,1691"/>
 <path fill="none" stroke="rgb(255,191,0)" stroke-width="80" stroke-linejoin="round" d="M 2623,10857 L 2747,10857 2871,10857 2995,10857 3120,10857 3244,10857 3368,10857 3493,10857 3617,10857 3741,10857 3865,10857 3990,10857 4114,10857 4238,10857 4362,10857 4487,10857 4611,10857 4735,10856 4860,10856 4984,10855 5108,10854 5232,10853 5357,10853 5481,10851 5605,10848 5729,10844 5854,10836 5978,10828 6102,10818 6227,10806 6351,10790 6475,10775 6599,10757 6724,10729 6848,10701 6972,10671 7096,10642 7221,10609 7345,10569 7469,10530 7594,10484 7718,10435 7842,10384 7966,10342 8091,10296 8215,10249 8339,10201 8464,10148 8588,10097 8712,10051 8836,10007 8961,9968 9085,9927 9209,9883 9333,9835 9458,9785 9582,9742 9706,9702 9831,9660 9955,9621 10079,9578 10203,9526 10328,9470 10452,9420 10576,9378 10700,9343 10825,9306 10949,9264 11073,9218 11198,9166 11322,9122 11446,9083 11570,9048 11695,9011 11818,8973 11942,8930 12066,8889 12191,8849 12315,8819 12439,8790 12564,8756 12688,8724 12812,8682 12936,8643 13061,8605 13185,8576 13309,8543 13433,8511 13558,8475 13682,8436 13806,8399 13931,8366 14055,8334 14179,8305 14303,8276 14428,8249 14552,8214 14676,8176 14800,8139 14925,8108 15049,8082 15173,8050 15298,8019 15422,7987 15546,7948 15670,7914 15795,7887 15919,7860 16043,7832 16167,7800 16292,7765 16416,7727 16540,7688 16665,7657 16789,7627 16913,7591 17037,7552 17162,7510 17286,7461 17410,7411 17534,7371 17659,7324 17783,7271 17907,7217 18032,7156 18156,7087 18280,7022 18404,6961 18529,6899 18653,6829 18777,6751 18902,6668 19026,6586 19150,6516 19274,6440 19399,6371 19523,6279 19647,6191 19771,6094 19896,5991 20020,5899 20144,5809 20269,5718 20393,5615 20517,5512 20641,5394 20766,5285 20890,5187 21014,5093 21138,4999 21263,4901 21387,4792 21511,4687 21636,4575 21760,4473 21884,4389 22008,4303 22133,4202 22257,4094 22381,3990 22505,3888 22630,3798 22754,3726 22878,3656 23003,3568 23127,3488 23251,3396 23375,3307"/>
 <path fill="none" stroke="rgb(85,48,141)" stroke-width="80" stroke-linejoin="round" d="M 2623,10857 L 2747,10857 2871,10857 2995,10857 3120,10857 3244,10857 3368,10857 3493,10857 3617,10857 3741,10857 3865,10857 3990,10857 4114,10857 4238,10857 4362,10857 4487,10857 4611,10857 4735,10856 4860,10856 4984,10855 5108,10854 5232,10853 5357,10853 5481,10851 5605,10848 5729,10844 5854,10836 5978,10829 6102,10819 6227,10807 6351,10792 6475,10777 6599,10759 6724,10733 6848,10706 6972,10677 7096,10651 7221,10624 7345,10589 7469,10554 7594,10511 7718,10465 7842,10424 7966,10388 8091,10348 8215,10308 8339,10266 8464,10219 8588,10176 8712,10137 8836,10099 8961,10080 9085,10049 9209,10015 9333,9974 9458,9934 9582,9904 9706,9875 9831,9839 9955,9808 10079,9772 10203,9728 10328,9705 10452,9659 10576,9629 10700,9603 10825,9576 10949,9545 11073,9554 11198,9520 11322,9496 11446,9466 11570,9444 11695,9415 11818,9380 11942,9348 12066,9315 12191,9299 12315,9276 12439,9274 12564,9238 12688,9229 12812,9194 12936,9165 13061,9155 13185,9133 13309,9118 13433,9099 13558,9072 13682,9041 13806,9086 13931,9071 14055,9048 14179,9039 14303,9020 14428,9005 14552,8985 14676,8959 14800,8938 14925,8952 15049,8947 15173,8926 15298,8920 15422,8898 15546,8871 15670,8851 15795,8833 15919,8826 16043,8809 16167,8792 16292,8769 16416,8742 16540,8719 16665,8697 16789,8689 16913,8665 17037,8641 17162,8610 17286,8575 17410,8542 17534,8509 17659,8491 17783,8449 17907,8410 18032,8361 18156,8304 18280,8253 18404,8202 18529,8170 18653,8125 18777,8062 18902,8060 19026,7992 19150,8081 19274,8025 19399,7983 19523,7912 19647,7850 19771,7778 19896,7698 20020,7626 20144,7553 20269,7502 20393,7426 20517,7366 20641,7272 20766,7189 20890,7117 21014,7036 21138,6987 21263,6924 21387,6861 21511,6792 21636,6725 21760,6652 21884,6597 22008,6555 22133,6502 22257,6448 22381,6383 22505,6319 22630,6268 22754,6207 22878,6207 23003,6145 23127,6141 23251,6084 23375,6035"/>
 <path fill="none" stroke="rgb(0,169,51)" stroke-width="80" stroke-linejoin="round" d="M 2623,10857 L 2747,10857 2871,10857 2995,10857 3120,10857 3244,10857 3368,10857 3493,10857 3617,10857 3741,10857 3865,10857 3990,10857 4114,10857 4238,10857 4362,10857 4487,10857 4611,10857 4735,10857 4860,10857 4984,10857 5108,10857 5232,10857 5357,10857 5481,10857 5605,10857 5729,10857 5854,10857 5978,10857 6102,10857 6227,10857 6351,10857 6475,10857 6599,10857 6724,10856 6848,10856 6972,10856 7096,10853 7221,10849 7345,10847 7469,10845 7594,10844 7718,10843 7842,10835 7966,10831 8091,10828 8215,10824 8339,10822 8464,10819 8588,10814 8712,10810 8836,10807 8961,10791 9085,10785 9209,10778 9333,10774 9458,10768 9582,10758 9706,10750 9831,10747 9955,10743 10079,10739 10203,10735 10328,10706 10452,10704 10576,10694 10700,10687 10825,10680 10949,10673 11073,10622 11198,10607 11322,10590 11446,10582 11570,10571 11695,10567 11818,10567 11942,10559 12066,10553 12191,10533 12315,10527 12439,10502 12564,10506 12688,10486 12812,10481 12936,10474 13061,10447 13185,10441 13309,10425 13433,10415 13558,10408 13682,10402 13806,10322 13931,10306 14055,10297 14179,10278 14303,10269 14428,10259 14552,10246 14676,10236 14800,10221 14925,10178 15049,10157 15173,10149 15298,10125 15422,10116 15546,10106 15670,10092 15795,10084 15919,10065 16043,10056 16167,10042 16292,10032 16416,10021 16540,10007 16665,9999 16789,9977 16913,9966 17037,9953 17162,9942 17286,9930 17410,9914 17534,9907 17659,9879 17783,9868 17907,9855 18032,9844 18156,9833 18280,9820 18404,9811 18529,9780 18653,9756 18777,9742 18902,9663 19026,9650 19150,9491 19274,9472 19399,9445 19523,9427 19647,9401 19771,9377 19896,9355 20020,9336 20144,9320 20269,9281 20393,9254 20517,9214 20641,9191 20766,9166 20890,9142 21014,9129 21138,9085 21263,9051 21387,9007 21511,8973 21636,8930 21760,8903 21884,8874 22008,8832 22133,8787 22257,8734 22381,8697 22505,8660 22630,8624 22754,8613 22878,8545 23003,8521 23127,8447 23251,8415 23375,8376"/>
 <text class="TextShape" transform="rotate(-90 2749 12062)"><tspan class="TextParagraph" font-family="Liberation Sans, sans-serif" font-size="388px" font-weight="400"><tspan class="TextPosition" x="2749" y="12062"><tspan fill="rgb(0,0,0)" stroke="none">22.02</tspan></tspan></tspan></text>
 <text class="TextShape" transform="rotate(-90 3619 12062)"><tspan class="TextParagraph" font-family="Liberation Sans, sans-serif" font-size="388px" font-weight="400"><tspan class="TextPosition" x="3619" y="12062"><tspan fill="rgb(0,0,0)" stroke="none">29.02</tspan></tspan></tspan></text>
 <text class="TextShape" transform="rotate(-90 4488 12062)"><tspan class="TextParagraph" font-family="Liberation Sans, sans-serif" font-size="388px" font-weight="400"><tspan class="TextPosition" x="4488" y="12062"><tspan fill="rgb(0,0,0)" stroke="none">07.03</tspan></tspan></tspan></text>
 <text class="TextShape" transform="rotate(-90 5358 12062)"><tspan class="TextParagraph" font-family="Liberation Sans, sans-serif" font-size="388px" font-weight="400"><tspan class="TextPosition" x="5358" y="12062"><tspan fill="rgb(0,0,0)" stroke="none">14.03</tspan></tspan></tspan></text>
 <text class="TextShape" transform="rotate(-90 6228 12062)"><tspan class="TextParagraph" font-family="Liberation Sans, sans-serif" font-size="388px" font-weight="400"><tspan class="TextPosition" x="6228" y="12062"><tspan fill="rgb(0,0,0)" stroke="none">21.03</tspan></tspan></tspan></text>
 <text class="TextShape" transform="rotate(-90 7098 12062)"><tspan class="TextParagraph" font-family="Liberation Sans, sans-serif" font-size="388px" font-weight="400"><tspan class="TextPosition" x="7098" y="12062"><tspan fill="rgb(0,0,0)" stroke="none">28.03</tspan></tspan></tspan></text>
 <text class="TextShape" transform="rotate(-90 7968 12062)"><tspan class="TextParagraph" font-family="Liberation Sans, sans-serif" font-size="388px" font-weight="400"><tspan class="TextPosition" x="7968" y="12062"><tspan fill="rgb(0,0,0)" stroke="none">04.04</tspan></tspan></tspan></text>
 <text class="TextShape" transform="rotate(-90 8838 12062)"><tspan class="TextParagraph" font-family="Liberation Sans, sans-serif" font-size="388px" font-weight="400"><tspan class="TextPosition" x="8838" y="12062"><tspan fill="rgb(0,0,0)" stroke="none">11.04</tspan></tspan></tspan></text>
 <text class="TextShape" transform="rotate(-90 9708 12062)"><tspan class="TextParagraph" font-family="Liberation Sans, sans-serif" font-size="388px" font-weight="400"><tspan class="TextPosition" x="9708" y="12062"><tspan fill="rgb(0,0,0)" stroke="none">18.04</tspan></tspan></tspan></text>
 <text class="TextShape" transform="rotate(-90 10578 12062)"><tspan class="TextParagraph" font-family="Liberation Sans, sans-serif" font-size="388px" font-weight="400"><tspan class="TextPosition" x="10578" y="12062"><tspan fill="rgb(0,0,0)" stroke="none">25.04</tspan></tspan></tspan></text>
 <text class="TextShape" transform="rotate(-90 11448 12062)"><tspan class="TextParagraph" font-family="Liberation Sans, sans-serif" font-size="388px" font-weight="400"><tspan class="TextPosition" x="11448" y="12062"><tspan fill="rgb(0,0,0)" stroke="none">02.05</tspan></tspan></tspan></text>
 <text class="TextShape" transform="rotate(-90 12317 12062)"><tspan class="TextParagraph" font-family="Liberation Sans, sans-serif" font-size="388px" font-weight="400"><tspan class="TextPosition" x="12317" y="12062"><tspan fill="rgb(0,0,0)" stroke="none">09.05</tspan></tspan></tspan></text>
 <text class="TextShape" transform="rotate(-90 13187 12062)"><tspan class="TextParagraph" font-family="Liberation Sans, sans-serif" font-size="388px" font-weight="400"><tspan class="TextPosition" x="13187" y="12062"><tspan fill="rgb(0,0,0)" stroke="none">16.05</tspan></tspan></tspan></text>
 <text class="TextShape" transform="rotate(-90 14057 12062)"><tspan class="TextParagraph" font-family="Liberation Sans, sans-serif" font-size="388px" font-weight="400"><tspan class="TextPosition" x="14057" y="12062"><tspan fill="rgb(0,0,0)" stroke="none">23.05</tspan></tspan></tspan></text>
 <text class="TextShape" transform="rotate(-90 14926 12062)"><tspan class="TextParagraph" font-family="Liberation Sans, sans-serif" font-size="388px" font-weight="400"><tspan class="TextPosition" x="14926" y="12062"><tspan fill="rgb(0,0,0)" stroke="none">30.05</tspan></tspan></tspan></text>
 <text class="TextShape" transform="rotate(-90 15796 12062)"><tspan class="TextParagraph" font-family="Liberation Sans, sans-serif" font-size="388px" font-weight="400"><tspan class="TextPosition" x="15796" y="12062"><tspan fill="rgb(0,0,0)" stroke="none">06.06</tspan></tspan></tspan></text>
 <text class="TextShape" transform="rotate(-90 16666 12062)"><tspan class="TextParagraph" font-family="Liberation Sans, sans-serif" font-size="388px" font-weight="400"><tspan class="TextPosition" x="16666" y="12062"><tspan fill="rgb(0,0,0)" stroke="none">13.06</tspan></tspan></tspan></text>
 <text class="TextShape" transform="rotate(-90 17536 12062)"><tspan class="TextParagraph" font-family="Liberation Sans, sans-serif" font-size="388px" font-weight="400"><tspan class="TextPosition" x="17536" y="12062"><tspan fill="rgb(0,0,0)" stroke="none">20.06</tspan></tspan></tspan></text>
 <text class="TextShape" transform="rotate(-90 18406 12062)"><tspan class="TextParagraph" font-family="Liberation Sans, sans-serif" font-size="388px" font-weight="400"><tspan class="TextPosition" x="18406" y="12062"><tspan fill="rgb(0,0,0)" stroke="none">27.06</tspan></tspan></tspan></text>
 <text class="TextShape" transform="rotate(-90 19276 12062)"><tspan class="TextParagraph" font-family="Liberation Sans, sans-serif" font-size="388px" font-weight="400"><tspan class="TextPosition" x="19276" y="12062"><tspan fill="rgb(0,0,0)" stroke="none">04.07</tspan></tspan></tspan></text>
 <text class="TextShape" transform="rotate(-90 20146 12062)"><tspan class="TextParagraph" font-family="Liberation Sans, sans-serif" font-size="388px" font-weight="400"><tspan class="TextPosition" x="20146" y="12062"><tspan fill="rgb(0,0,0)" stroke="none">11.07</tspan></tspan></tspan></text>
 <text class="TextShape" transform="rotate(-90 21016 12062)"><tspan class="TextParagraph" font-family="Liberation Sans, sans-serif" font-size="388px" font-weight="400"><tspan class="TextPosition" x="21016" y="12062"><tspan fill="rgb(0,0,0)" stroke="none">18.07</tspan></tspan></tspan></text>
 <text class="TextShape" transform="rotate(-90 21886 12062)"><tspan class="TextParagraph" font-family="Liberation Sans, sans-serif" font-size="388px" font-weight="400"><tspan class="TextPosition" x="21886" y="12062"><tspan fill="rgb(0,0,0)" stroke="none">25.07</tspan></tspan></tspan></text>
 <text class="TextShape" transform="rotate(-90 22756 12062)"><tspan class="TextParagraph" font-family="Liberation Sans, sans-serif" font-size="388px" font-weight="400"><tspan class="TextPosition" x="22756" y="12062"><tspan fill="rgb(0,0,0)" stroke="none">01.08</tspan></tspan></tspan></text>
 <text class="TextShape"><tspan class="TextParagraph" font-family="Liberation Sans, sans-serif" font-size="388px" font-weight="400"><tspan class="TextPosition" x="2099" y="10986"><tspan fill="rgb(0,0,0)" stroke="none">0</tspan></tspan></tspan></text>
 <text class="TextShape"><tspan class="TextParagraph" font-family="Liberation Sans, sans-serif" font-size="388px" font-weight="400"><tspan class="TextPosition" x="618" y="9458"><tspan fill="rgb(0,0,0)" stroke="none">1 000 000</tspan></tspan></tspan></text>
 <text class="TextShape"><tspan class="TextParagraph" font-family="Liberation Sans, sans-serif" font-size="388px" font-weight="400"><tspan class="TextPosition" x="618" y="7930"><tspan fill="rgb(0,0,0)" stroke="none">2 000 000</tspan></tspan></tspan></text>
 <text class="TextShape"><tspan class="TextParagraph" font-family="Liberation Sans, sans-serif" font-size="388px" font-weight="400"><tspan class="TextPosition" x="618" y="6402"><tspan fill="rgb(0,0,0)" stroke="none">3 000 000</tspan></tspan></tspan></text>
 <text class="TextShape"><tspan class="TextParagraph" font-family="Liberation Sans, sans-serif" font-size="388px" font-weight="400"><tspan class="TextPosition" x="618" y="4873"><tspan fill="rgb(0,0,0)" stroke="none">4 000 000</tspan></tspan></tspan></text>
 <text class="TextShape"><tspan class="TextParagraph" font-family="Liberation Sans, sans-serif" font-size="388px" font-weight="400"><tspan class="TextPosition" x="618" y="3346"><tspan fill="rgb(0,0,0)" stroke="none">5 000 000</tspan></tspan></tspan></text>
 <text class="TextShape"><tspan class="TextParagraph" font-family="Liberation Sans, sans-serif" font-size="388px" font-weight="400"><tspan class="TextPosition" x="618" y="1818"><tspan fill="rgb(0,0,0)" stroke="none">6 000 000</tspan></tspan></tspan></text>
 <text class="TextShape"><tspan class="TextParagraph" font-family="Liberation Sans, sans-serif" font-size="494px" font-weight="700"><tspan class="TextPosition" x="389" y="698"><tspan fill="rgb(0,0,0)" stroke="none">USA</tspan></tspan></tspan></text>
 <path fill="none" stroke="rgb(255,191,0)" stroke-width="80" stroke-linejoin="round" d="M 998,1106 L 1798,1106"/>
 <path fill="none" stroke="rgb(85,48,141)" stroke-width="80" stroke-linejoin="round" d="M 8932,1106 L 9732,1106"/>
 <path fill="none" stroke="rgb(0,169,51)" stroke-width="80" stroke-linejoin="round" d="M 16082,1106 L 16882,1106"/>
 <text class="TextShape"><tspan class="TextParagraph" font-family="Liberation Sans, sans-serif" font-size="494px" font-weight="400"><tspan class="TextPosition" x="1906" y="1275"><tspan fill="rgb(0,0,0)" stroke="none">celkový počet infikovaných</tspan></tspan></tspan></text>
 <text class="TextShape"><tspan class="TextParagraph" font-family="Liberation Sans, sans-serif" font-size="494px" font-weight="400"><tspan class="TextPosition" x="9840" y="1275"><tspan fill="rgb(0,0,0)" stroke="none">počet aktivních případů</tspan></tspan></tspan></text>
 <text class="TextShape"><tspan class="TextParagraph" font-family="Liberation Sans, sans-serif" font-size="494px" font-weight="400"><tspan class="TextPosition" x="16990" y="1275"><tspan fill="rgb(0,0,0)" stroke="none">celkový počet vyléčených</tspan></tspan></tspan></text>
</svg>