<?xml version="1.0" encoding="UTF-8"?>
<!DOCTYPE svg PUBLIC "-//W3C//DTD SVG 1.1//EN" "http://www.w3.org/Graphics/SVG/1.1/DTD/svg11.dtd">
<svg width="236mm" height="161mm" viewBox="0 0 23600 16100" version="1.1" xmlns="http://www.w3.org/2000/svg" xmlns:xlink="http://www.w3.org/1999/xlink" stroke-width="28.222" stroke-linejoin="round" xml:space="preserve">
 <path fill="rgb(255,255,255)" stroke="none" d="M 11800,16126 L 0,16126 0,0 23601,0 23601,16126 11800,16126 Z"/>
 <path fill="none" stroke="rgb(179,179,179)" stroke-linejoin="round" d="M 10781,14425 L 1714,14425 1714,1595 19847,1595 19847,14425 10781,14425 Z"/>
 <path fill="none" stroke="rgb(179,179,179)" stroke-linejoin="round" d="M 19847,14424 L 1714,14424"/>
 <path fill="none" stroke="rgb(179,179,179)" stroke-linejoin="round" d="M 19847,13910 L 1714,13910"/>
 <path fill="none" stroke="rgb(179,179,179)" stroke-linejoin="round" d="M 19847,13397 L 1714,13397"/>
 <path fill="none" stroke="rgb(179,179,179)" stroke-linejoin="round" d="M 19847,12884 L 1714,12884"/>
 <path fill="none" stroke="rgb(179,179,179)" stroke-linejoin="round" d="M 19847,12371 L 1714,12371"/>
 <path fill="none" stroke="rgb(179,179,179)" stroke-linejoin="round" d="M 19847,11857 L 1714,11857"/>
 <path fill="none" stroke="rgb(179,179,179)" stroke-linejoin="round" d="M 19847,11344 L 1714,11344"/>
 <path fill="none" stroke="rgb(179,179,179)" stroke-linejoin="round" d="M 19847,10831 L 1714,10831"/>
 <path fill="none" stroke="rgb(179,179,179)" stroke-linejoin="round" d="M 19847,10318 L 1714,10318"/>
 <path fill="none" stroke="rgb(179,179,179)" stroke-linejoin="round" d="M 19847,9804 L 1714,9804"/>
 <path fill="none" stroke="rgb(179,179,179)" stroke-linejoin="round" d="M 19847,9291 L 1714,9291"/>
 <path fill="none" stroke="rgb(179,179,179)" stroke-linejoin="round" d="M 19847,8778 L 1714,8778"/>
 <path fill="none" stroke="rgb(179,179,179)" stroke-linejoin="round" d="M 19847,8265 L 1714,8265"/>
 <path fill="none" stroke="rgb(179,179,179)" stroke-linejoin="round" d="M 19847,7752 L 1714,7752"/>
 <path fill="none" stroke="rgb(179,179,179)" stroke-linejoin="round" d="M 19847,7239 L 1714,7239"/>
 <path fill="none" stroke="rgb(179,179,179)" stroke-linejoin="round" d="M 19847,6726 L 1714,6726"/>
 <path fill="none" stroke="rgb(179,179,179)" stroke-linejoin="round" d="M 19847,6213 L 1714,6213"/>
 <path fill="none" stroke="rgb(179,179,179)" stroke-linejoin="round" d="M 19847,5699 L 1714,5699"/>
 <path fill="none" stroke="rgb(179,179,179)" stroke-linejoin="round" d="M 19847,5186 L 1714,5186"/>
 <path fill="none" stroke="rgb(179,179,179)" stroke-linejoin="round" d="M 19847,4673 L 1714,4673"/>
 <path fill="none" stroke="rgb(179,179,179)" stroke-linejoin="round" d="M 19847,4160 L 1714,4160"/>
 <path fill="none" stroke="rgb(179,179,179)" stroke-linejoin="round" d="M 19847,3646 L 1714,3646"/>
 <path fill="none" stroke="rgb(179,179,179)" stroke-linejoin="round" d="M 19847,3133 L 1714,3133"/>
 <path fill="none" stroke="rgb(179,179,179)" stroke-linejoin="round" d="M 19847,2620 L 1714,2620"/>
 <path fill="none" stroke="rgb(179,179,179)" stroke-linejoin="round" d="M 19847,2107 L 1714,2107"/>
 <path fill="none" stroke="rgb(179,179,179)" stroke-linejoin="round" d="M 19847,1594 L 1714,1594"/>
 <path fill="none" stroke="rgb(179,179,179)" stroke-linejoin="round" d="M 1714,14574 L 1714,14424"/>
 <path fill="none" stroke="rgb(179,179,179)" stroke-linejoin="round" d="M 1714,14574 L 1714,14424"/>
 <path fill="none" stroke="rgb(179,179,179)" stroke-linejoin="round" d="M 2333,14574 L 2333,14424"/>
 <path fill="none" stroke="rgb(179,179,179)" stroke-linejoin="round" d="M 2333,14574 L 2333,14424"/>
 <path fill="none" stroke="rgb(179,179,179)" stroke-linejoin="round" d="M 2952,14574 L 2952,14424"/>
 <path fill="none" stroke="rgb(179,179,179)" stroke-linejoin="round" d="M 2952,14574 L 2952,14424"/>
 <path fill="none" stroke="rgb(179,179,179)" stroke-linejoin="round" d="M 3571,14574 L 3571,14424"/>
 <path fill="none" stroke="rgb(179,179,179)" stroke-linejoin="round" d="M 3571,14574 L 3571,14424"/>
 <path fill="none" stroke="rgb(179,179,179)" stroke-linejoin="round" d="M 4190,14574 L 4190,14424"/>
 <path fill="none" stroke="rgb(179,179,179)" stroke-linejoin="round" d="M 4190,14574 L 4190,14424"/>
 <path fill="none" stroke="rgb(179,179,179)" stroke-linejoin="round" d="M 4810,14574 L 4810,14424"/>
 <path fill="none" stroke="rgb(179,179,179)" stroke-linejoin="round" d="M 4810,14574 L 4810,14424"/>
 <path fill="none" stroke="rgb(179,179,179)" stroke-linejoin="round" d="M 5429,14574 L 5429,14424"/>
 <path fill="none" stroke="rgb(179,179,179)" stroke-linejoin="round" d="M 5429,14574 L 5429,14424"/>
 <path fill="none" stroke="rgb(179,179,179)" stroke-linejoin="round" d="M 6048,14574 L 6048,14424"/>
 <path fill="none" stroke="rgb(179,179,179)" stroke-linejoin="round" d="M 6048,14574 L 6048,14424"/>
 <path fill="none" stroke="rgb(179,179,179)" stroke-linejoin="round" d="M 6667,14574 L 6667,14424"/>
 <path fill="none" stroke="rgb(179,179,179)" stroke-linejoin="round" d="M 6667,14574 L 6667,14424"/>
 <path fill="none" stroke="rgb(179,179,179)" stroke-linejoin="round" d="M 7286,14574 L 7286,14424"/>
 <path fill="none" stroke="rgb(179,179,179)" stroke-linejoin="round" d="M 7286,14574 L 7286,14424"/>
 <path fill="none" stroke="rgb(179,179,179)" stroke-linejoin="round" d="M 7906,14574 L 7906,14424"/>
 <path fill="none" stroke="rgb(179,179,179)" stroke-linejoin="round" d="M 7906,14574 L 7906,14424"/>
 <path fill="none" stroke="rgb(179,179,179)" stroke-linejoin="round" d="M 8525,14574 L 8525,14424"/>
 <path fill="none" stroke="rgb(179,179,179)" stroke-linejoin="round" d="M 8525,14574 L 8525,14424"/>
 <path fill="none" stroke="rgb(179,179,179)" stroke-linejoin="round" d="M 9144,14574 L 9144,14424"/>
 <path fill="none" stroke="rgb(179,179,179)" stroke-linejoin="round" d="M 9144,14574 L 9144,14424"/>
 <path fill="none" stroke="rgb(179,179,179)" stroke-linejoin="round" d="M 9763,14574 L 9763,14424"/>
 <path fill="none" stroke="rgb(179,179,179)" stroke-linejoin="round" d="M 9763,14574 L 9763,14424"/>
 <path fill="none" stroke="rgb(179,179,179)" stroke-linejoin="round" d="M 10382,14574 L 10382,14424"/>
 <path fill="none" stroke="rgb(179,179,179)" stroke-linejoin="round" d="M 10382,14574 L 10382,14424"/>
 <path fill="none" stroke="rgb(179,179,179)" stroke-linejoin="round" d="M 11002,14574 L 11002,14424"/>
 <path fill="none" stroke="rgb(179,179,179)" stroke-linejoin="round" d="M 11002,14574 L 11002,14424"/>
 <path fill="none" stroke="rgb(179,179,179)" stroke-linejoin="round" d="M 11621,14574 L 11621,14424"/>
 <path fill="none" stroke="rgb(179,179,179)" stroke-linejoin="round" d="M 11621,14574 L 11621,14424"/>
 <path fill="none" stroke="rgb(179,179,179)" stroke-linejoin="round" d="M 12239,14574 L 12239,14424"/>
 <path fill="none" stroke="rgb(179,179,179)" stroke-linejoin="round" d="M 12239,14574 L 12239,14424"/>
 <path fill="none" stroke="rgb(179,179,179)" stroke-linejoin="round" d="M 12858,14574 L 12858,14424"/>
 <path fill="none" stroke="rgb(179,179,179)" stroke-linejoin="round" d="M 12858,14574 L 12858,14424"/>
 <path fill="none" stroke="rgb(179,179,179)" stroke-linejoin="round" d="M 13477,14574 L 13477,14424"/>
 <path fill="none" stroke="rgb(179,179,179)" stroke-linejoin="round" d="M 13477,14574 L 13477,14424"/>
 <path fill="none" stroke="rgb(179,179,179)" stroke-linejoin="round" d="M 14097,14574 L 14097,14424"/>
 <path fill="none" stroke="rgb(179,179,179)" stroke-linejoin="round" d="M 14097,14574 L 14097,14424"/>
 <path fill="none" stroke="rgb(179,179,179)" stroke-linejoin="round" d="M 14716,14574 L 14716,14424"/>
 <path fill="none" stroke="rgb(179,179,179)" stroke-linejoin="round" d="M 14716,14574 L 14716,14424"/>
 <path fill="none" stroke="rgb(179,179,179)" stroke-linejoin="round" d="M 15335,14574 L 15335,14424"/>
 <path fill="none" stroke="rgb(179,179,179)" stroke-linejoin="round" d="M 15335,14574 L 15335,14424"/>
 <path fill="none" stroke="rgb(179,179,179)" stroke-linejoin="round" d="M 15954,14574 L 15954,14424"/>
 <path fill="none" stroke="rgb(179,179,179)" stroke-linejoin="round" d="M 15954,14574 L 15954,14424"/>
 <path fill="none" stroke="rgb(179,179,179)" stroke-linejoin="round" d="M 16574,14574 L 16574,14424"/>
 <path fill="none" stroke="rgb(179,179,179)" stroke-linejoin="round" d="M 16574,14574 L 16574,14424"/>
 <path fill="none" stroke="rgb(179,179,179)" stroke-linejoin="round" d="M 17193,14574 L 17193,14424"/>
 <path fill="none" stroke="rgb(179,179,179)" stroke-linejoin="round" d="M 17193,14574 L 17193,14424"/>
 <path fill="none" stroke="rgb(179,179,179)" stroke-linejoin="round" d="M 17812,14574 L 17812,14424"/>
 <path fill="none" stroke="rgb(179,179,179)" stroke-linejoin="round" d="M 17812,14574 L 17812,14424"/>
 <path fill="none" stroke="rgb(179,179,179)" stroke-linejoin="round" d="M 18431,14574 L 18431,14424"/>
 <path fill="none" stroke="rgb(179,179,179)" stroke-linejoin="round" d="M 18431,14574 L 18431,14424"/>
 <path fill="none" stroke="rgb(179,179,179)" stroke-linejoin="round" d="M 19050,14574 L 19050,14424"/>
 <path fill="none" stroke="rgb(179,179,179)" stroke-linejoin="round" d="M 19050,14574 L 19050,14424"/>
 <path fill="none" stroke="rgb(179,179,179)" stroke-linejoin="round" d="M 19670,14574 L 19670,14424"/>
 <path fill="none" stroke="rgb(179,179,179)" stroke-linejoin="round" d="M 19670,14574 L 19670,14424"/>
 <path fill="none" stroke="rgb(179,179,179)" stroke-linejoin="round" d="M 1714,14424 L 19847,14424"/>
 <path fill="none" stroke="rgb(179,179,179)" stroke-linejoin="round" d="M 1564,14424 L 1714,14424"/>
 <path fill="none" stroke="rgb(179,179,179)" stroke-linejoin="round" d="M 1564,14424 L 1714,14424"/>
 <path fill="none" stroke="rgb(179,179,179)" stroke-linejoin="round" d="M 1564,13910 L 1714,13910"/>
 <path fill="none" stroke="rgb(179,179,179)" stroke-linejoin="round" d="M 1564,13910 L 1714,13910"/>
 <path fill="none" stroke="rgb(179,179,179)" stroke-linejoin="round" d="M 1564,13397 L 1714,13397"/>
 <path fill="none" stroke="rgb(179,179,179)" stroke-linejoin="round" d="M 1564,13397 L 1714,13397"/>
 <path fill="none" stroke="rgb(179,179,179)" stroke-linejoin="round" d="M 1564,12884 L 1714,12884"/>
 <path fill="none" stroke="rgb(179,179,179)" stroke-linejoin="round" d="M 1564,12884 L 1714,12884"/>
 <path fill="none" stroke="rgb(179,179,179)" stroke-linejoin="round" d="M 1564,12371 L 1714,12371"/>
 <path fill="none" stroke="rgb(179,179,179)" stroke-linejoin="round" d="M 1564,12371 L 1714,12371"/>
 <path fill="none" stroke="rgb(179,179,179)" stroke-linejoin="round" d="M 1564,11857 L 1714,11857"/>
 <path fill="none" stroke="rgb(179,179,179)" stroke-linejoin="round" d="M 1564,11857 L 1714,11857"/>
 <path fill="none" stroke="rgb(179,179,179)" stroke-linejoin="round" d="M 1564,11344 L 1714,11344"/>
 <path fill="none" stroke="rgb(179,179,179)" stroke-linejoin="round" d="M 1564,11344 L 1714,11344"/>
 <path fill="none" stroke="rgb(179,179,179)" stroke-linejoin="round" d="M 1564,10831 L 1714,10831"/>
 <path fill="none" stroke="rgb(179,179,179)" stroke-linejoin="round" d="M 1564,10831 L 1714,10831"/>
 <path fill="none" stroke="rgb(179,179,179)" stroke-linejoin="round" d="M 1564,10318 L 1714,10318"/>
 <path fill="none" stroke="rgb(179,179,179)" stroke-linejoin="round" d="M 1564,10318 L 1714,10318"/>
 <path fill="none" stroke="rgb(179,179,179)" stroke-linejoin="round" d="M 1564,9804 L 1714,9804"/>
 <path fill="none" stroke="rgb(179,179,179)" stroke-linejoin="round" d="M 1564,9804 L 1714,9804"/>
 <path fill="none" stroke="rgb(179,179,179)" stroke-linejoin="round" d="M 1564,9291 L 1714,9291"/>
 <path fill="none" stroke="rgb(179,179,179)" stroke-linejoin="round" d="M 1564,9291 L 1714,9291"/>
 <path fill="none" stroke="rgb(179,179,179)" stroke-linejoin="round" d="M 1564,8778 L 1714,8778"/>
 <path fill="none" stroke="rgb(179,179,179)" stroke-linejoin="round" d="M 1564,8778 L 1714,8778"/>
 <path fill="none" stroke="rgb(179,179,179)" stroke-linejoin="round" d="M 1564,8265 L 1714,8265"/>
 <path fill="none" stroke="rgb(179,179,179)" stroke-linejoin="round" d="M 1564,8265 L 1714,8265"/>
 <path fill="none" stroke="rgb(179,179,179)" stroke-linejoin="round" d="M 1564,7752 L 1714,7752"/>
 <path fill="none" stroke="rgb(179,179,179)" stroke-linejoin="round" d="M 1564,7752 L 1714,7752"/>
 <path fill="none" stroke="rgb(179,179,179)" stroke-linejoin="round" d="M 1564,7239 L 1714,7239"/>
 <path fill="none" stroke="rgb(179,179,179)" stroke-linejoin="round" d="M 1564,7239 L 1714,7239"/>
 <path fill="none" stroke="rgb(179,179,179)" stroke-linejoin="round" d="M 1564,6726 L 1714,6726"/>
 <path fill="none" stroke="rgb(179,179,179)" stroke-linejoin="round" d="M 1564,6726 L 1714,6726"/>
 <path fill="none" stroke="rgb(179,179,179)" stroke-linejoin="round" d="M 1564,6213 L 1714,6213"/>
 <path fill="none" stroke="rgb(179,179,179)" stroke-linejoin="round" d="M 1564,6213 L 1714,6213"/>
 <path fill="none" stroke="rgb(179,179,179)" stroke-linejoin="round" d="M 1564,5699 L 1714,5699"/>
 <path fill="none" stroke="rgb(179,179,179)" stroke-linejoin="round" d="M 1564,5699 L 1714,5699"/>
 <path fill="none" stroke="rgb(179,179,179)" stroke-linejoin="round" d="M 1564,5186 L 1714,5186"/>
 <path fill="none" stroke="rgb(179,179,179)" stroke-linejoin="round" d="M 1564,5186 L 1714,5186"/>
 <path fill="none" stroke="rgb(179,179,179)" stroke-linejoin="round" d="M 1564,4673 L 1714,4673"/>
 <path fill="none" stroke="rgb(179,179,179)" stroke-linejoin="round" d="M 1564,4673 L 1714,4673"/>
 <path fill="none" stroke="rgb(179,179,179)" stroke-linejoin="round" d="M 1564,4160 L 1714,4160"/>
 <path fill="none" stroke="rgb(179,179,179)" stroke-linejoin="round" d="M 1564,4160 L 1714,4160"/>
 <path fill="none" stroke="rgb(179,179,179)" stroke-linejoin="round" d="M 1564,3646 L 1714,3646"/>
 <path fill="none" stroke="rgb(179,179,179)" stroke-linejoin="round" d="M 1564,3646 L 1714,3646"/>
 <path fill="none" stroke="rgb(179,179,179)" stroke-linejoin="round" d="M 1564,3133 L 1714,3133"/>
 <path fill="none" stroke="rgb(179,179,179)" stroke-linejoin="round" d="M 1564,3133 L 1714,3133"/>
 <path fill="none" stroke="rgb(179,179,179)" stroke-linejoin="round" d="M 1564,2620 L 1714,2620"/>
 <path fill="none" stroke="rgb(179,179,179)" stroke-linejoin="round" d="M 1564,2620 L 1714,2620"/>
 <path fill="none" stroke="rgb(179,179,179)" stroke-linejoin="round" d="M 1564,2107 L 1714,2107"/>
 <path fill="none" stroke="rgb(179,179,179)" stroke-linejoin="round" d="M 1564,2107 L 1714,2107"/>
 <path fill="none" stroke="rgb(179,179,179)" stroke-linejoin="round" d="M 1564,1594 L 1714,1594"/>
 <path fill="none" stroke="rgb(179,179,179)" stroke-linejoin="round" d="M 1564,1594 L 1714,1594"/>
 <path fill="none" stroke="rgb(179,179,179)" stroke-linejoin="round" d="M 1714,14424 L 1714,1594"/>
 <path fill="none" stroke="rgb(0,69,134)" stroke-width="80" stroke-linejoin="round" d="M 3496,1594 L 3527,4184 3615,5119 3704,5879 3792,6550 3881,7322 3969,9012 4058,9603 4146,10111 4235,10482 4323,10678 4411,11063 4500,11024 4588,11267 4677,11267 4765,11320 4854,11279 4942,12032 5031,12220 5119,12237 5208,12265 5296,12262 5385,12265 5473,12215 5561,12169 5650,12112 5738,12100 5827,11952 5915,11851 6004,11700 6092,11515 6181,11374 6269,11121 6358,10945 6446,10666 6534,10362 6623,10030 6711,9652 6800,9208 6888,8665 6977,8059 7065,7494 7154,6865 7242,6202 7331,5572 7419,4788 7508,4500 7596,3996 7684,3627 7773,3322 7861,2949 7950,2668 8038,2681 8127,2824 8215,3060 8304,3407 8392,3827 8481,3891 8569,4282 8657,4731 8746,5143 8834,5608 8923,5919 9011,6234 9100,6542 9188,6723 9277,6966 9365,7111 9454,7323 9542,7538 9631,7702 9719,7806 9807,7943 9896,8074 9984,8200 10073,8309 10161,8521 10250,8610 10338,8646 10427,8704 10515,8817 10604,8917 10692,8972 10781,9080 10869,9152 10957,9190 11046,9214 11134,9282 11223,9339 11311,9413 11400,9474 11488,9527 11577,9554 11665,9587 11754,9628 11841,9673 11929,9723 12018,9779 12106,9830 12195,9863 12283,9905 12372,9946 12460,9981 12549,10025 12637,10067 12726,10132 12814,10165 12903,10187 12991,10225 13079,10260 13168,10300 13256,10337 13345,10379 13433,10408 13522,10434 13610,10465 13699,10499 13787,10539 13876,10582 13964,10608 14052,10626 14141,10647 14229,10682 14318,10721 14406,10769 14495,10805 14583,10832 14672,10845 14760,10869 14849,10898 14937,10918 15026,10956 15114,10982 15202,11006 15291,11027 15379,11052 15468,11081 15556,11105 15645,11133 15733,11168 15822,11193 15910,11217 15999,11240 16087,11262 16175,11298 16264,11329 16352,11353 16441,11378 16529,11398 16618,11424 16706,11451 16795,11481 16883,11508 16972,11535 17060,11560 17149,11580 17237,11611 17325,11637 17414,11657 17502,11679 17591,11705 17679,11725 17768,11746 17856,11764 17945,11771 18033,11795 18122,11818 18210,11842 18298,11860 18387,11878 18475,11896 18564,11919 18652,11940 18741,11961 18829,11982 18918,12001 19006,12015 19095,12036 19183,12058 19272,12079 19360,12099 19448,12115 19537,12132 19625,12146 19714,12165 19802,12183"/>
 <path fill="none" stroke="rgb(255,66,14)" stroke-width="80" stroke-linejoin="round" d="M 3391,1594 L 3438,5104 3527,5160 3615,7456 3704,7336 3792,7931 3881,9330 3969,9856 4058,10412 4146,10695 4235,10886 4323,11069 4411,11311 4500,11281 4588,11459 4677,11411 4765,11348 4854,12068 4942,12265 5031,12288 5119,12304 5208,12325 5296,12317 5385,12280 5473,12231 5561,12187 5650,12164 5738,12111 5827,11970 5915,11878 6004,11733 6092,11563 6181,11424 6269,11193 6358,11038 6446,10748 6534,10475 6623,10136 6711,9788 6800,9410 6888,8884 6977,8287 7065,7731 7154,7185 7242,6700 7331,5957 7419,5734 7508,5199 7596,4684 7684,4489 7773,4204 7861,3976 7950,3997 8038,3938 8127,4037 8215,4169 8304,4615 8392,4852 8481,5014 8569,5464 8657,5765 8746,6078 8834,6326 8923,6610 9011,6952 9100,7176 9188,7332 9277,7523 9365,7604 9454,7725 9542,7912 9631,8066 9719,8175 9807,8296 9896,8406 9984,8474 10073,8630 10161,8735 10250,8814 10338,8872 10427,8960 10515,9036 10604,9093 10692,9154 10781,9238 10869,9308 10957,9342 11046,9385 11134,9441 11223,9489 11311,9536 11400,9586 11488,9646 11577,9672 11665,9711 11754,9753 11841,9786 11929,9827 12018,9877 12106,9930 12195,9972 12283,10010 12372,10050 12460,10076 12549,10106 12637,10147 12726,10216 12814,10248 12903,10279 12991,10314 13079,10346 13168,10368 13256,10412 13345,10459 13433,10491 13522,10517 13610,10546 13699,10577 13787,10607 13876,10642 13964,10671 14052,10694 14141,10725 14229,10759 14318,10805 14406,10833 14495,10860 14583,10900 14672,10910 14760,10937 14849,10966 14937,10987 15026,11011 15114,11031 15202,11064 15291,11088 15379,11113 15468,11137 15556,11163 15645,11189 15733,11217 15822,11249 15910,11271 15999,11293 16087,11328 16175,11354 16264,11373 16352,11400 16441,11433 16529,11453 16618,11480 16706,11509 16795,11534 16883,11555 16972,11579 17060,11608 17149,11638 17237,11665 17325,11689 17414,11705 17502,11723 17591,11744 17679,11773 17768,11793 17856,11813 17945,11821 18033,11840 18122,11856 18210,11880 18298,11902 18387,11921 18475,11942 18564,11963 18652,11981 18741,11997 18829,12017 18918,12039 19006,12060 19095,12079 19183,12100 19272,12117 19360,12130 19448,12147 19537,12166 19625,12185 19714,12202 19802,12220"/>
 <path fill="none" stroke="rgb(255,211,32)" stroke-width="80" stroke-linejoin="round" d="M 3281,1594 L 3350,6088 3438,5993 3527,7487 3615,8643 3704,8578 3792,9767 3881,10124 3969,10622 4058,10955 4146,11078 4235,11256 4323,11316 4411,11545 4500,11473 4588,11594 4677,11439 4765,12120 4854,12298 4942,12332 5031,12354 5119,12363 5208,12377 5296,12331 5385,12295 5473,12249 5561,12237 5650,12175 5738,12127 5827,11996 5915,11909 6004,11777 6092,11610 6181,11490 6269,11281 6358,11112 6446,10850 6534,10570 6623,10258 6711,9967 6800,9601 6888,9084 6977,8497 7065,8014 7154,7623 7242,7036 7331,6789 7419,6346 7508,5807 7596,5462 7684,5278 7773,5118 7861,5157 7950,5113 8038,5035 8127,5051 8215,5294 8304,5564 8392,5873 8481,6112 8569,6420 8657,6638 8746,6758 8834,6984 8923,7294 9011,7552 9100,7749 9188,7862 9277,7988 9365,7990 9454,8088 9542,8265 9631,8422 9719,8517 9807,8617 9896,8671 9984,8786 10073,8840 10161,8935 10250,9034 10338,9121 10427,9173 10515,9207 10604,9271 10692,9310 10781,9391 10869,9457 10957,9509 11046,9541 11134,9588 11223,9610 11311,9647 11400,9703 11488,9761 11577,9794 11665,9833 11754,9864 11841,9888 11929,9925 12018,9976 12106,10037 12195,10075 12283,10112 12372,10143 12460,10156 12549,10185 12637,10230 12726,10298 12814,10340 12903,10367 12991,10398 13079,10414 13168,10443 13256,10491 13345,10540 13433,10573 13522,10597 13610,10622 13699,10644 13787,10668 13876,10705 13964,10738 14052,10770 14141,10800 14229,10842 14318,10868 14406,10887 14495,10927 14583,10964 14672,10977 14760,11004 14849,11034 14937,11042 15026,11060 15114,11089 15202,11125 15291,11149 15379,11169 15468,11195 15556,11218 15645,11237 15733,11272 15822,11303 15910,11323 15999,11359 16087,11383 16175,11398 16264,11419 16352,11454 16441,11487 16529,11509 16618,11538 16706,11561 16795,11580 16883,11599 16972,11626 17060,11665 17149,11691 17237,11716 17325,11736 17414,11748 17502,11762 17591,11792 17679,11820 17768,11842 17856,11862 17945,11865 18033,11879 18122,11894 18210,11922 18298,11945 18387,11967 18475,11985 18564,12003 18652,12017 18741,12032 18829,12054 18918,12083 19006,12103 19095,12121 19183,12137 19272,12147 19360,12161 19448,12181 19537,12205 19625,12221 19714,12238 19802,12251"/>
 <path fill="none" stroke="rgb(87,157,28)" stroke-width="80" stroke-linejoin="round" d="M 3166,1594 L 3173,1817 3262,7008 3350,6883 3438,8109 3527,8669 3615,9657 3704,10232 3792,10493 3881,10846 3969,11137 4058,11311 4146,11427 4235,11489 4323,11551 4411,11721 4500,11607 4588,11621 4677,12188 4765,12345 4854,12364 4942,12396 5031,12411 5119,12414 5208,12391 5296,12346 5385,12313 5473,12298 5561,12248 5650,12191 5738,12152 5827,12025 5915,11950 6004,11821 6092,11672 6181,11569 6269,11349 6358,11204 6446,10937 6534,10680 6623,10419 6711,10137 6800,9774 6888,9266 6977,8747 7065,8401 7154,7918 7242,7762 7331,7326 7419,6879 7508,6496 7596,6174 7684,6097 7773,6170 7861,6149 7950,6087 8038,5952 8127,6079 8215,6177 8304,6509 8392,6870 8481,6998 8569,7227 8657,7272 8746,7381 8834,7636 8923,7867 9011,8094 9100,8247 9188,8303 9277,8352 9365,8339 9454,8433 9542,8609 9631,8750 9719,8826 9807,8873 9896,8972 9984,8991 10073,9037 10161,9150 10250,9274 10338,9327 10427,9340 10515,9382 10604,9423 10692,9461 10781,9538 10869,9620 10957,9661 11046,9684 11134,9707 11223,9719 11311,9762 11400,9817 11488,9881 11577,9914 11665,9943 11754,9964 11841,9984 11929,10023 12018,10082 12106,10139 12195,10176 12283,10204 12372,10223 12460,10234 12549,10268 12637,10312 12726,10388 12814,10426 12903,10451 12991,10465 13079,10487 13168,10521 13256,10572 13345,10621 13433,10652 13522,10672 13610,10689 13699,10704 13787,10730 13876,10772 13964,10814 14052,10845 14141,10882 14229,10904 14318,10922 14406,10954 14495,10991 14583,11030 14672,11044 14760,11071 14849,11088 14937,11090 15026,11118 15114,11150 15202,11186 15291,11205 15379,11226 15468,11249 15556,11265 15645,11292 15733,11326 15822,11355 15910,11388 15999,11413 16087,11427 16175,11444 16264,11473 16352,11508 16441,11541 16529,11566 16618,11589 16706,11607 16795,11623 16883,11646 16972,11683 17060,11718 17149,11741 17237,11762 17325,11778 17414,11787 17502,11809 17591,11838 17679,11868 17768,11890 17856,11905 17945,11903 18033,11916 18122,11936 18210,11965 18298,11990 18387,12009 18475,12025 18564,12039 18652,12051 18741,12069 18829,12098 18918,12126 19006,12144 19095,12158 19183,12167 19272,12178 19360,12195 19448,12219 19537,12241 19625,12258 19714,12269 19802,12279"/>
 <path fill="none" stroke="rgb(126,0,33)" stroke-width="80" stroke-linejoin="round" d="M 3025,1594 L 3085,3308 3173,7809 3262,7716 3350,8776 3438,9186 3527,9678 3615,11005 3704,10885 3792,11153 3881,11330 3969,11474 4058,11636 4146,11648 4235,11710 4323,11726 4411,11844 4500,11633 4588,12324 4677,12406 4765,12409 4854,12427 4942,12452 5031,12461 5119,12428 5208,12406 5296,12363 5385,12360 5473,12308 5561,12263 5650,12215 5738,12179 5827,12064 5915,11991 6004,11878 6092,11746 6181,11632 6269,11435 6358,11282 6446,11036 6534,10825 6623,10572 6711,10291 6800,9933 6888,9484 6977,9091 7065,8663 7154,8556 7242,8229 7331,7794 7419,7481 7508,7125 7596,6912 7684,7038 7773,7053 7861,7014 7950,6901 8038,6881 8127,6886 8215,7056 8304,7432 8392,7676 8481,7747 8569,7813 8657,7853 8746,7998 8834,8181 8923,8385 9011,8567 9100,8663 9188,8650 9277,8682 9365,8670 9454,8768 9542,8927 9631,9047 9719,9072 9807,9164 9896,9171 9984,9182 10073,9247 10161,9386 10250,9475 10338,9489 10427,9510 10515,9531 10604,9571 10692,9606 10781,9698 10869,9768 10957,9801 11046,9801 11134,9814 11223,9833 11311,9875 11400,9935 11488,9999 11577,10021 11665,10041 11754,10059 11841,10081 11929,10128 12018,10183 12106,10238 12195,10267 12283,10283 12372,10299 12460,10316 12549,10349 12637,10402 12726,10474 12814,10508 12903,10517 12991,10538 13079,10565 13168,10602 13256,10652 13345,10699 13433,10726 13522,10738 13610,10748 13699,10765 13787,10796 13876,10847 13964,10887 14052,10926 14141,10944 14229,10957 14318,10988 14406,11018 14495,11057 14583,11096 14672,11110 14760,11125 14849,11136 14937,11148 15026,11177 15114,11210 15202,11240 15291,11261 15379,11280 15468,11296 15556,11320 15645,11345 15733,11377 15822,11419 15910,11443 15999,11457 16087,11472 16175,11497 16264,11527 16352,11562 16441,11598 16529,11617 16618,11635 16706,11650 16795,11670 16883,11703 16972,11736 17060,11767 17149,11787 17237,11804 17325,11816 17414,11834 17502,11855 17591,11886 17679,11916 17768,11933 17856,11943 17945,11940 18033,11958 18122,11979 18210,12010 18298,12032 18387,12049 18475,12061 18564,12073 18652,12088 18741,12112 18829,12140 18918,12167 19006,12180 19095,12188 19183,12198 19272,12212 19360,12233 19448,12255 19537,12277 19625,12288 19714,12296 19802,12302"/>
 <path fill="none" stroke="rgb(131,202,255)" stroke-width="80" stroke-linejoin="round" d="M 2884,1594 L 2908,2502 2996,4535 3085,8590 3173,8439 3262,9400 3350,9739 3438,10105 3527,11021 3615,11538 3704,11479 3792,11596 3881,11648 3969,11782 4058,11841 4146,11857 4235,11876 4323,11849 4411,11868 4500,12333 4588,12529 4677,12469 4765,12471 4854,12482 4942,12502 5031,12474 5119,12442 5208,12422 5296,12409 5385,12370 5473,12323 5561,12286 5650,12241 5738,12216 5827,12103 5915,12044 6004,11947 6092,11805 6181,11709 6269,11507 6358,11371 6446,11167 6534,10962 6623,10710 6711,10432 6800,10123 6888,9783 6977,9323 7065,9229 7154,8969 7242,8638 7331,8323 7419,8033 7508,7778 7596,7761 7684,7829 7773,7824 7861,7738 7950,7726 8038,7610 8127,7690 8215,7916 8304,8177 8392,8355 8481,8290 8569,8349 8657,8428 8746,8514 8834,8674 8923,8836 9011,8962 9100,8990 9188,8964 9277,8994 9365,8991 9454,9077 9542,9215 9631,9284 9719,9353 9807,9355 9896,9355 9984,9387 10073,9479 10161,9582 10250,9632 10338,9654 10427,9655 10515,9675 10604,9712 10692,9764 10781,9844 10869,9905 10957,9914 11046,9905 11134,9925 11223,9944 11311,9992 11400,10052 11488,10104 11577,10118 11665,10134 11754,10154 11841,10185 11929,10227 12018,10281 12106,10328 12195,10344 12283,10358 12372,10380 12460,10396 12549,10438 12637,10487 12726,10555 12814,10574 12903,10589 12991,10615 13079,10644 13168,10681 13256,10729 13345,10773 13433,10791 13522,10796 13610,10809 13699,10831 13787,10871 13876,10919 13964,10968 14052,10987 14141,10996 14229,11023 14318,11051 14406,11083 14495,11122 14583,11161 14672,11163 14760,11172 14849,11192 14937,11207 15026,11237 15114,11264 15202,11296 15291,11314 15379,11327 15468,11350 15556,11373 15645,11396 15733,11441 15822,11473 15910,11486 15999,11502 16087,11525 16175,11551 16264,11581 16352,11618 16441,11648 16529,11662 16618,11677 16706,11696 16795,11726 16883,11755 16972,11785 17060,11813 17149,11829 17237,11842 17325,11863 17414,11879 17502,11903 17591,11933 17679,11959 17768,11970 17856,11979 17945,11981 18033,12000 18122,12023 18210,12051 18298,12072 18387,12084 18475,12094 18564,12110 18652,12131 18741,12154 18829,12181 18918,12203 19006,12210 19095,12218 19183,12232 19272,12250 19360,12269 19448,12291 19537,12307 19625,12315 19714,12320 19802,12332"/>
 <path fill="none" stroke="rgb(49,64,4)" stroke-width="80" stroke-linejoin="round" d="M 2735,1594 L 2819,4102 2908,5797 2996,9234 3085,9146 3173,9942 3262,10256 3350,10561 3438,11326 3527,11551 3615,12022 3704,11878 3792,11886 3881,11938 3969,11977 4058,12036 4146,12014 4235,11992 4323,11873 4411,12509 4500,12537 4588,12588 4677,12529 4765,12525 4854,12531 4942,12514 5031,12489 5119,12458 5208,12467 5296,12419 5385,12385 5473,12346 5561,12312 5650,12277 5738,12252 5827,12154 5915,12109 6004,12001 6092,11877 6181,11774 6269,11590 6358,11489 6446,11291 6534,11086 6623,10838 6711,10601 6800,10384 6888,9985 6977,9824 7065,9594 7154,9329 7242,9100 7331,8808 7419,8604 7508,8529 7596,8473 7684,8517 7773,8468 7861,8470 7950,8373 8038,8336 8127,8474 8215,8609 8304,8806 8392,8849 8481,8788 8569,8882 8657,8910 8746,8981 8834,9104 8923,9213 9011,9272 9100,9285 9188,9260 9277,9298 9365,9288 9454,9357 9542,9444 9631,9553 9719,9537 9807,9533 9896,9554 9984,9612 10073,9671 10161,9736 10250,9793 10338,9796 10427,9796 10515,9814 10604,9867 10692,9908 10781,9979 10869,10016 10957,10017 11046,10015 11134,10034 11223,10059 11311,10106 11400,10156 11488,10199 11577,10209 11665,10228 11754,10256 11841,10283 11929,10325 12018,10370 12106,10404 12195,10418 12283,10438 12372,10459 12460,10484 12549,10523 12637,10568 12726,10619 12814,10644 12903,10664 12991,10693 13079,10723 13168,10758 13256,10802 13345,10837 13433,10849 13522,10856 13610,10874 13699,10905 13787,10943 13876,10999 13964,11028 14052,11039 14141,11061 14229,11085 14318,11116 14406,11147 14495,11186 14583,11213 14672,11210 14760,11228 14849,11251 14937,11266 15026,11291 15114,11319 15202,11348 15291,11360 15379,11380 15468,11403 15556,11423 15645,11459 15733,11494 15822,11515 15910,11530 15999,11554 16087,11578 16175,11604 16264,11636 16352,11668 16441,11693 16529,11704 16618,11723 16706,11752 16795,11778 16883,11804 16972,11831 17060,11855 17149,11867 17237,11888 17325,11908 17414,11927 17502,11950 17591,11975 17679,11995 17768,12007 17856,12020 17945,12023 18033,12044 18122,12065 18210,12091 18298,12107 18387,12117 18475,12130 18564,12152 18652,12173 18741,12195 18829,12217 18918,12232 19006,12240 19095,12252 19183,12269 19272,12285 19360,12304 19448,12321 19537,12334 19625,12339 19714,12349 19802,12362"/>
 <path fill="none" stroke="rgb(174,207,0)" stroke-width="80" stroke-linejoin="round" d="M 2377,2125 L 2419,1594"/>
 <path fill="none" stroke="rgb(174,207,0)" stroke-width="80" stroke-linejoin="round" d="M 2494,1594 L 2554,2807 2642,5155 2731,5652 2819,6955 2908,9897 2996,9729 3085,10472 3173,10706 3262,10987 3350,11654 3438,11809 3527,12033 3615,12348 3704,12139 3792,12151 3881,12121 3969,12161 4058,12182 4146,12124 4235,12014 4323,12513 4411,12696 4500,12596 4588,12644 4677,12581 4765,12573 4854,12544 4942,12528 5031,12505 5119,12502 5208,12477 5296,12433 5385,12406 5473,12371 5561,12347 5650,12312 5738,12300 5827,12215 5915,12159 6004,12068 6092,11939 6181,11850 6269,11699 6358,11601 6446,11403 6534,11200 6623,10989 6711,10832 6800,10559 6888,10421 6977,10147 7065,9913 7154,9736 7242,9523 7331,9310 7419,9261 7508,9160 7596,9096 7684,9094 7773,9121 7861,9046 7950,9018 8038,9046 8127,9109 8215,9195 8304,9264 8392,9302 8481,9282 8569,9327 8657,9346 8746,9387 8834,9463 8923,9508 9011,9552 9100,9564 9188,9549 9277,9578 9365,9557 9454,9580 9542,9705 9631,9730 9719,9709 9807,9725 9896,9771 9984,9800 10073,9823 10161,9893 10250,9930 10338,9932 10427,9931 10515,9965 10604,10008 10692,10040 10781,10088 10869,10116 10957,10123 11046,10121 11134,10146 11223,10172 11311,10209 11400,10250 11488,10289 11577,10301 11665,10328 11754,10353 11841,10379 11929,10412 12018,10445 12106,10477 12195,10497 12283,10515 12372,10545 12460,10568 12549,10603 12637,10632 12726,10689 12814,10719 12903,10741 12991,10771 13079,10799 13168,10830 13256,10866 13345,10894 13433,10908 13522,10921 13610,10947 13699,10977 13787,11022 13876,11058 13964,11079 14052,11103 14141,11123 14229,11149 14318,11179 14406,11212 14495,11238 14583,11259 14672,11265 14760,11286 14849,11309 14937,11319 15026,11345 15114,11371 15202,11394 15291,11413 15379,11432 15468,11453 15556,11486 15645,11512 15733,11537 15822,11559 15910,11582 15999,11606 16087,11631 16175,11659 16264,11686 16352,11712 16441,11735 16529,11749 16618,11778 16706,11803 16795,11826 16883,11849 16972,11872 17060,11892 17149,11912 17237,11933 17325,11955 17414,11973 17502,11992 17591,12012 17679,12031 17768,12047 17856,12061 17945,12067 18033,12085 18122,12104 18210,12125 18298,12139 18387,12153 18475,12173 18564,12194 18652,12213 18741,12230 18829,12246 18918,12262 19006,12273 19095,12288 19183,12304 19272,12320 19360,12334 19448,12347 19537,12357 19625,12368 19714,12379 19802,12393"/>
 <path fill="none" stroke="rgb(75,31,111)" stroke-width="80" stroke-linejoin="round" d="M 2288,2310 L 2377,3987 2465,5098 2554,6801 2642,8147 2731,8076 2819,10504 2908,10328 2996,10908 3085,11146 3173,11358 3262,11959 3350,12085 3438,12248 3527,12357 3615,12561 3704,12378 3792,12318 3881,12294 3969,12299 4058,12284 4146,12145 4235,12619 4323,12699 4411,12750 4500,12652 4588,12693 4677,12627 4765,12585 4854,12557 4942,12544 5031,12548 5119,12512 5208,12490 5296,12454 5385,12430 5473,12404 5561,12381 5650,12359 5738,12357 5827,12264 5915,12222 6004,12125 6092,12010 6181,11949 6269,11803 6358,11703 6446,11507 6534,11337 6623,11197 6711,10989 6800,10939 6888,10703 6977,10430 7065,10273 7154,10108 7242,9961 7331,9888 7419,9814 7508,9710 7596,9616 7684,9678 7773,9634 7861,9619 7950,9648 8038,9620 8127,9644 8215,9621 8304,9683 8392,9751 8481,9695 8569,9730 8657,9725 8746,9727 8834,9744 8923,9775 9011,9816 9100,9836 9188,9816 9277,9832 9365,9771 9454,9834 9542,9877 9631,9895 9719,9893 9807,9935 9896,9953 9984,9947 10073,9976 10161,10027 10250,10062 10338,10063 10427,10078 10515,10103 10604,10137 10692,10148 10781,10186 10869,10220 10957,10227 11046,10232 11134,10257 11223,10273 11311,10302 11400,10338 11488,10379 11577,10400 11665,10423 11754,10447 11841,10465 11929,10487 12018,10517 12106,10554 12195,10573 12283,10601 12372,10628 12460,10647 12549,10667 12637,10702 12726,10763 12814,10795 12903,10818 12991,10845 13079,10870 13168,10894 13256,10922 13345,10952 13433,10971 13522,10992 13610,11018 13699,11055 13787,11081 13876,11109 13964,11142 14052,11164 14141,11186 14229,11212 14318,11243 14406,11263 14495,11284 14583,11313 14672,11322 14760,11343 14849,11361 14937,11373 15026,11397 15114,11417 15202,11447 15291,11465 15379,11482 15468,11515 15556,11539 15645,11554 15733,11580 15822,11610 15910,11634 15999,11658 16087,11686 16175,11709 16264,11730 16352,11754 16441,11780 16529,11804 16618,11829 16706,11851 16795,11871 16883,11890 16972,11909 17060,11937 17149,11956 17237,11979 17325,12001 17414,12015 17502,12028 17591,12047 17679,12071 17768,12087 17856,12104 17945,12107 18033,12124 18122,12138 18210,12158 18298,12175 18387,12195 18475,12214 18564,12233 18652,12248 18741,12259 18829,12275 18918,12295 19006,12310 19095,12323 19183,12339 19272,12350 19360,12360 19448,12370 19537,12386 19625,12397 19714,12410 19802,12422"/>
 <path fill="none" stroke="rgb(255,149,14)" stroke-width="80" stroke-linejoin="round" d="M 2200,6841 L 2288,4144 2377,7170 2465,8303 2554,9262 2642,9882 2731,11093 2819,10878 2908,11357 2996,11508 3085,11720 3173,12225 3262,12343 3350,12478 3438,12543 3527,12569 3615,12755 3704,12528 3792,12477 3881,12424 3969,12396 4058,12304 4146,12717 4235,12795 4323,12753 4411,12801 4500,12701 4588,12737 4677,12639 4765,12598 4854,12573 4942,12586 5031,12557 5119,12525 5208,12511 5296,12478 5385,12463 5473,12437 5561,12426 5650,12415 5738,12402 5827,12324 5915,12275 6004,12190 6092,12103 6181,12044 6269,11897 6358,11796 6446,11630 6534,11524 6623,11337 6711,11326 6800,11184 6888,10948 6977,10749 7065,10603 7154,10494 7242,10466 7331,10373 7419,10296 7508,10170 7596,10143 7684,10137 7773,10144 7861,10180 7950,10158 8038,10104 8127,10034 8215,10011 8304,10098 8392,10127 8481,10069 8569,10081 8657,10042 8746,9993 8834,9998 8923,10028 9011,10074 9100,10087 9188,10057 9277,10034 9365,10015 9454,10001 9542,10037 9631,10072 9719,10096 9807,10109 9896,10095 9984,10096 10073,10108 10161,10156 10250,10190 10338,10206 10427,10212 10515,10230 10604,10243 10692,10245 10781,10289 10869,10322 10957,10335 11046,10340 11134,10356 11223,10364 11311,10389 11400,10427 11488,10475 11577,10493 11665,10516 11754,10532 11841,10539 11929,10558 12018,10594 12106,10630 12195,10657 12283,10682 12372,10706 12460,10710 12549,10736 12637,10775 12726,10838 12814,10870 12903,10892 12991,10916 13079,10933 13168,10949 13256,10980 13345,11014 13433,11042 13522,11062 13610,11095 13699,11113 13787,11132 13876,11172 13964,11202 14052,11226 14141,11248 14229,11275 14318,11294 14406,11308 14495,11338 14583,11370 14672,11379 14760,11395 14849,11415 14937,11425 15026,11442 15114,11469 15202,11497 15291,11513 15379,11543 15468,11567 15556,11580 15645,11598 15733,11631 15822,11662 15910,11685 15999,11713 16087,11735 16175,11752 16264,11771 16352,11798 16441,11833 16529,11854 16618,11876 16706,11895 16795,11912 16883,11926 16972,11953 17060,11980 17149,12002 17237,12025 17325,12042 17414,12051 17502,12063 17591,12087 17679,12111 17768,12130 17856,12144 17945,12146 18033,12158 18122,12170 18210,12193 18298,12217 18387,12236 18475,12253 18564,12268 18652,12277 18741,12289 18829,12308 18918,12331 19006,12344 19095,12358 19183,12368 19272,12376 19360,12383 19448,12399 19537,12415 19625,12427 19714,12439 19802,12449"/>
 <path fill="none" stroke="rgb(197,0,11)" stroke-width="80" stroke-linejoin="round" d="M 2112,9245 L 2200,7989 2288,7280 2377,9663 2465,10280 2554,10689 2642,12040 2731,11410 2819,11768 2908,11880 2996,12019 3085,12485 3173,12568 3262,12693 3350,12741 3438,12736 3527,12763 3615,12878 3704,12671 3792,12596 3881,12515 3969,12415 4058,12836 4146,12883 4235,12846 4323,12804 4411,12846 4500,12744 4588,12748 4677,12652 4765,12613 4854,12614 4942,12595 5031,12570 5119,12545 5208,12534 5296,12510 5385,12495 5473,12481 5561,12480 5650,12458 5738,12458 5827,12374 5915,12336 6004,12277 6092,12191 6181,12129 6269,11984 6358,11907 6446,11799 6534,11650 6623,11640 6711,11544 6800,11398 6888,11226 6977,11041 7065,10945 7154,10938 7242,10889 7331,10797 7419,10699 7508,10637 7596,10557 7684,10594 7773,10643 7861,10632 7950,10588 8038,10456 8127,10391 8215,10398 8304,10446 8392,10466 8481,10394 8569,10373 8657,10290 8746,10234 8834,10239 8923,10274 9011,10312 9100,10314 9188,10249 9277,10264 9365,10176 9454,10156 9542,10208 9631,10267 9719,10264 9807,10247 9896,10240 9984,10225 10073,10235 10161,10281 10250,10328 10338,10336 10427,10336 10515,10333 10604,10338 10692,10346 10781,10389 10869,10427 10957,10441 11046,10437 11134,10446 11223,10450 11311,10477 11400,10523 11488,10567 11577,10584 11665,10599 11754,10604 11841,10609 11929,10634 12018,10669 12106,10712 12195,10737 12283,10759 12372,10768 12460,10778 12549,10808 12637,10850 12726,10913 12814,10943 12903,10962 12991,10978 13079,10988 13168,11007 13256,11042 13345,11084 13433,11111 13522,11139 13610,11153 13699,11164 13787,11194 13876,11232 13964,11264 14052,11288 14141,11311 14229,11325 14318,11339 14406,11362 14495,11394 14583,11426 14672,11430 14760,11448 14849,11465 14937,11469 15026,11494 15114,11519 15202,11546 15291,11574 15379,11595 15468,11608 15556,11623 15645,11648 15733,11682 15822,11713 15910,11739 15999,11761 16087,11778 16175,11793 16264,11815 16352,11852 16441,11883 16529,11901 16618,11920 16706,11936 16795,11948 16883,11971 16972,11997 17060,12026 17149,12047 17237,12065 17325,12077 17414,12085 17502,12103 17591,12127 17679,12153 17768,12169 17856,12182 17945,12180 18033,12190 18122,12206 18210,12234 18298,12257 18387,12275 18475,12287 18564,12296 18652,12306 18741,12321 18829,12344 18918,12365 19006,12378 19095,12387 19183,12394 19272,12399 19360,12412 19448,12428 19537,12445 19625,12456 19714,12465 19802,12471"/>
 <path fill="none" stroke="rgb(0,132,209)" stroke-width="80" stroke-linejoin="round" d="M 2023,10540 L 2112,10029 2200,9951 2288,9735 2377,11201 2465,11425 2554,12464 2642,12268 2731,12167 2819,12221 2908,12326 2996,12699 3085,12787 3173,12879 3262,12927 3350,12914 3438,12912 3527,12885 3615,12995 3704,12778 3792,12679 3881,12533 3969,12919 4058,12991 4146,12931 4235,12894 4323,12849 4411,12886 4500,12755 4588,12760 4677,12667 4765,12654 4854,12623 4942,12608 5031,12589 5119,12568 5208,12565 5296,12541 5385,12538 5473,12534 5561,12522 5650,12513 5738,12506 5827,12433 5915,12417 6004,12358 6092,12272 6181,12208 6269,12087 6358,12059 6446,11913 6534,11922 6623,11836 6711,11734 6800,11639 6888,11480 6977,11343 7065,11338 7154,11312 7242,11259 7331,11151 7419,11107 7508,11003 7596,10969 7684,11041 7773,11047 7861,11014 7950,10900 8038,10778 8127,10744 8215,10721 8304,10761 8392,10762 8481,10666 8569,10603 8657,10515 8746,10462 8834,10473 8923,10500 9011,10527 9100,10495 9188,10468 9277,10415 9365,10325 9454,10323 9542,10397 9631,10429 9719,10397 9807,10386 9896,10363 9984,10348 10073,10357 10161,10417 10250,10455 10338,10456 10427,10437 10515,10426 10604,10437 10692,10445 10781,10492 10869,10531 10957,10535 11046,10525 11134,10530 11223,10537 11311,10572 11400,10613 11488,10656 11577,10666 11665,10670 11754,10674 11841,10684 11929,10708 12018,10751 12106,10791 12195,10813 12283,10820 12372,10835 12460,10850 12549,10883 12637,10925 12726,10985 12814,11012 12903,11023 12991,11032 13079,11045 13168,11068 13256,11111 13345,11152 13433,11186 13522,11196 13610,11202 13699,11225 13787,11253 13876,11292 13964,11325 14052,11349 14141,11360 14229,11370 14318,11392 14406,11417 14495,11449 14583,11476 14672,11483 14760,11498 14849,11509 14937,11521 15026,11544 15114,11567 15202,11606 15291,11625 15379,11635 15468,11651 15556,11673 15645,11699 15733,11733 15822,11766 15910,11787 15999,11804 16087,11818 16175,11837 16264,11869 16352,11901 16441,11930 16529,11945 16618,11960 16706,11971 16795,11992 16883,12014 16972,12042 17060,12070 17149,12087 17237,12100 17325,12112 17414,12124 17502,12142 17591,12169 17679,12192 17768,12207 17856,12215 17945,12211 18033,12225 18122,12246 18210,12274 18298,12295 18387,12309 18475,12316 18564,12326 18652,12338 18741,12357 18829,12377 18918,12399 19006,12407 19095,12412 19183,12416 19272,12427 19360,12441 19448,12458 19537,12474 19625,12482 19714,12487 19802,12493"/>
 <path fill="none" stroke="rgb(0,69,134)" stroke-width="80" stroke-linejoin="round" d="M 1935,12019 L 2023,11127 2112,11369 2200,11489 2288,11249 2377,12091 2465,12850 2554,12651 2642,12809 2731,12552 2819,12607 2908,12919 2996,12968 3085,13062 3173,13089 3262,13080 3350,13072 3438,13023 3527,13001 3615,13082 3704,12853 3792,12695 3881,13007 3969,13066 4058,13035 4146,12977 4235,12936 4323,12888 4411,12896 4500,12767 4588,12774 4677,12706 4765,12662 4854,12636 4942,12627 5031,12611 5119,12599 5208,12595 5296,12583 5385,12589 5473,12575 5561,12575 5650,12559 5738,12560 5827,12510 5915,12493 6004,12433 6092,12345 6181,12301 6269,12228 6358,12162 6446,12160 6534,12098 6623,12007 6711,11949 6800,11860 6888,11743 6977,11691 7065,11668 7154,11637 7242,11568 7331,11510 7419,11428 7508,11368 7596,11372 7684,11402 7773,11387 7861,11292 7950,11186 8038,11097 8127,11040 8215,11014 8304,11034 8392,11009 8481,10879 8569,10811 8657,10727 8746,10683 8834,10689 8923,10706 9011,10699 9100,10701 9188,10612 9277,10556 9365,10485 9454,10506 9542,10554 9631,10556 9719,10532 9807,10506 9896,10483 9984,10467 10073,10491 10161,10541 10250,10571 10338,10554 10427,10527 10515,10522 10604,10533 10692,10547 10781,10594 10869,10623 10957,10621 11046,10608 11134,10615 11223,10630 11311,10661 11400,10702 11488,10737 11577,10736 11665,10738 11754,10747 11841,10757 11929,10789 12018,10828 12106,10866 12195,10873 12283,10886 12372,10905 12460,10924 12549,10956 12637,10996 12726,11053 12814,11072 12903,11076 12991,11088 13079,11106 13168,11137 13256,11179 13345,11227 13433,11242 13522,11245 13610,11263 13699,11284 13787,11314 13876,11353 13964,11386 14052,11398 14141,11404 14229,11422 14318,11447 14406,11472 14495,11499 14583,11528 14672,11532 14760,11542 14849,11560 14937,11570 15026,11591 15114,11627 15202,11656 15291,11666 15379,11678 15468,11700 15556,11723 15645,11749 15733,11785 15822,11813 15910,11829 15999,11844 16087,11862 16175,11890 16264,11917 16352,11947 16441,11972 16529,11984 16618,11996 16706,12015 16795,12035 16883,12059 16972,12086 17060,12110 17149,12122 17237,12135 17325,12150 17414,12163 17502,12184 17591,12208 17679,12229 17768,12240 17856,12246 17945,12246 18033,12265 18122,12286 18210,12312 18298,12329 18387,12337 18475,12344 18564,12357 18652,12373 18741,12390 18829,12411 18918,12427 19006,12433 19095,12435 19183,12444 19272,12456 19360,12470 19448,12487 19537,12499 19625,12504 19714,12509 19802,12517"/>
 <path fill="none" stroke="rgb(255,66,14)" stroke-width="80" stroke-linejoin="round" d="M 1846,12759 L 1935,12383 2023,12133 2112,12419 2200,12436 2288,12126 2377,13200 2465,13000 2554,13096 2642,13084 2731,12880 2819,13121 2908,13154 2996,13212 3085,13246 3173,13225 3262,13221 3350,13171 3438,13129 3527,13088 3615,13143 3704,12868 3792,13129 3881,13146 3969,13108 4058,13078 4146,13017 4235,12974 4323,12898 4411,12907 4500,12781 4588,12811 4677,12714 4765,12675 4854,12655 4942,12649 5031,12641 5119,12628 5208,12636 5296,12632 5385,12629 5473,12626 5561,12619 5650,12612 5738,12632 5827,12582 5915,12563 6004,12501 6092,12433 6181,12430 6269,12324 6358,12384 6446,12319 6534,12251 6623,12200 6711,12145 6800,12090 6888,12046 6977,11984 7065,11956 7154,11909 7242,11881 7331,11792 7419,11748 7508,11724 7596,11698 7684,11706 7773,11634 7861,11546 7950,11470 8038,11365 8127,11307 8215,11269 8304,11263 8392,11202 8481,11072 8569,11007 8657,10934 8746,10888 8834,10884 8923,10869 9011,10894 9100,10836 9188,10746 9277,10707 9365,10661 9454,10659 9542,10677 9631,10685 9719,10647 9807,10621 9896,10598 9984,10597 10073,10612 10161,10655 10250,10666 10338,10642 10427,10621 10515,10617 10604,10633 10692,10647 10781,10685 10869,10707 10957,10702 11046,10691 11134,10706 11223,10718 11311,10748 11400,10781 11488,10805 11577,10803 11665,10811 11754,10819 11841,10837 11929,10866 12018,10902 12106,10925 12195,10938 12283,10956 12372,10978 12460,10996 12549,11027 12637,11064 12726,11112 12814,11125 12903,11132 12991,11148 13079,11174 13168,11204 13256,11253 13345,11282 13433,11290 13522,11305 13610,11321 13699,11344 13787,11374 13876,11413 13964,11434 14052,11442 14141,11456 14229,11477 14318,11501 14406,11522 14495,11550 14583,11577 14672,11575 14760,11591 14849,11609 14937,11617 15026,11651 15114,11677 15202,11696 15291,11707 15379,11727 15468,11750 15556,11774 15645,11802 15733,11833 15822,11855 15910,11869 15999,11887 16087,11914 16175,11938 16264,11963 16352,11990 16441,12012 16529,12019 16618,12039 16706,12057 16795,12079 16883,12103 16972,12126 17060,12145 17149,12156 17237,12173 17325,12189 17414,12205 17502,12222 17591,12244 17679,12262 17768,12270 17856,12280 17945,12286 18033,12305 18122,12324 18210,12346 18298,12357 18387,12365 18475,12376 18564,12392 18652,12407 18741,12424 18829,12439 18918,12452 19006,12455 19095,12462 19183,12473 19272,12485 19360,12499 19448,12512 19537,12521 19625,12526 19714,12533 19802,12543"/>
 <path fill="none" stroke="rgb(255,211,32)" stroke-width="80" stroke-linejoin="round" d="M 1758,12851 L 1846,13011 1935,13005 2023,12920 2112,13066 2200,12986 2288,13218 2377,13316 2465,13358 2554,13322 2642,13319 2731,13317 2819,13324 2908,13367 2996,13376 3085,13367 3173,13351 3262,13309 3350,13266 3438,13208 3527,13149 3615,13155 3704,13258 3792,13255 3881,13185 3969,13148 4058,13115 4146,13052 4235,12983 4323,12910 4411,12919 4500,12818 4588,12818 4677,12727 4765,12694 4854,12676 4942,12678 5031,12671 5119,12668 5208,12684 5296,12671 5385,12679 5473,12670 5561,12671 5650,12682 5738,12701 5827,12649 5915,12626 6004,12582 6092,12554 6181,12517 6269,12530 6358,12528 6446,12458 6534,12425 6623,12377 6711,12349 6800,12354 6888,12300 6977,12239 7065,12197 7154,12185 7242,12127 7331,12072 7419,12060 7508,12012 7596,11972 7684,11928 7773,11861 7861,11799 7950,11707 8038,11607 8127,11540 8215,11481 8304,11442 8392,11377 8481,11254 8569,11198 8657,11125 8746,11073 8834,11040 8923,11056 9011,11022 9100,10962 9188,10890 9277,10873 9365,10808 9454,10779 9542,10802 9631,10796 9719,10758 9807,10732 9896,10723 9984,10715 10073,10724 10161,10747 10250,10751 10338,10733 10427,10713 10515,10714 10604,10731 10692,10737 10781,10768 10869,10786 10957,10783 11046,10780 11134,10792 11223,10804 11311,10826 11400,10848 11488,10871 11577,10874 11665,10881 11754,10898 11841,10913 11929,10939 12018,10961 12106,10989 12195,11007 12283,11027 12372,11049 12460,11067 12549,11094 12637,11123 12726,11164 12814,11180 12903,11191 12991,11216 13079,11240 13168,11277 13256,11308 13345,11330 13433,11349 13522,11362 13610,11380 13699,11403 13787,11434 13876,11461 13964,11477 14052,11493 14141,11510 14229,11531 14318,11551 14406,11573 14495,11599 14583,11619 14672,11624 14760,11640 14849,11655 14937,11676 15026,11700 15114,11717 15202,11737 15291,11756 15379,11776 15468,11799 15556,11825 15645,11849 15733,11874 15822,11895 15910,11912 15999,11939 16087,11962 16175,11984 16264,12006 16352,12029 16441,12046 16529,12062 16618,12081 16706,12101 16795,12123 16883,12142 16972,12160 17060,12178 17149,12194 17237,12211 17325,12230 17414,12243 17502,12259 17591,12277 17679,12292 17768,12304 17856,12320 17945,12325 18033,12342 18122,12358 18210,12373 18298,12385 18387,12396 18475,12411 18564,12425 18652,12440 18741,12452 18829,12465 18918,12474 19006,12482 19095,12491 19183,12502 19272,12513 19360,12524 19448,12534 19537,12543 19625,12550 19714,12558 19802,12569"/>
 <text class="TextShape" transform="rotate(-90 1874 15543)"><tspan class="TextParagraph" font-family="Liberation Sans, sans-serif" font-size="353px" font-weight="400"><tspan class="TextPosition" x="1874" y="15543"><tspan fill="rgb(0,0,0)" stroke="none">22.01</tspan></tspan></tspan></text>
 <text class="TextShape" transform="rotate(-90 2493 15543)"><tspan class="TextParagraph" font-family="Liberation Sans, sans-serif" font-size="353px" font-weight="400"><tspan class="TextPosition" x="2493" y="15543"><tspan fill="rgb(0,0,0)" stroke="none">29.01</tspan></tspan></tspan></text>
 <text class="TextShape" transform="rotate(-90 3112 15543)"><tspan class="TextParagraph" font-family="Liberation Sans, sans-serif" font-size="353px" font-weight="400"><tspan class="TextPosition" x="3112" y="15543"><tspan fill="rgb(0,0,0)" stroke="none">05.02</tspan></tspan></tspan></text>
 <text class="TextShape" transform="rotate(-90 3731 15543)"><tspan class="TextParagraph" font-family="Liberation Sans, sans-serif" font-size="353px" font-weight="400"><tspan class="TextPosition" x="3731" y="15543"><tspan fill="rgb(0,0,0)" stroke="none">12.02</tspan></tspan></tspan></text>
 <text class="TextShape" transform="rotate(-90 4351 15543)"><tspan class="TextParagraph" font-family="Liberation Sans, sans-serif" font-size="353px" font-weight="400"><tspan class="TextPosition" x="4351" y="15543"><tspan fill="rgb(0,0,0)" stroke="none">19.02</tspan></tspan></tspan></text>
 <text class="TextShape" transform="rotate(-90 4970 15543)"><tspan class="TextParagraph" font-family="Liberation Sans, sans-serif" font-size="353px" font-weight="400"><tspan class="TextPosition" x="4970" y="15543"><tspan fill="rgb(0,0,0)" stroke="none">26.02</tspan></tspan></tspan></text>
 <text class="TextShape" transform="rotate(-90 5589 15543)"><tspan class="TextParagraph" font-family="Liberation Sans, sans-serif" font-size="353px" font-weight="400"><tspan class="TextPosition" x="5589" y="15543"><tspan fill="rgb(0,0,0)" stroke="none">04.03</tspan></tspan></tspan></text>
 <text class="TextShape" transform="rotate(-90 6208 15543)"><tspan class="TextParagraph" font-family="Liberation Sans, sans-serif" font-size="353px" font-weight="400"><tspan class="TextPosition" x="6208" y="15543"><tspan fill="rgb(0,0,0)" stroke="none">11.03</tspan></tspan></tspan></text>
 <text class="TextShape" transform="rotate(-90 6827 15543)"><tspan class="TextParagraph" font-family="Liberation Sans, sans-serif" font-size="353px" font-weight="400"><tspan class="TextPosition" x="6827" y="15543"><tspan fill="rgb(0,0,0)" stroke="none">18.03</tspan></tspan></tspan></text>
 <text class="TextShape" transform="rotate(-90 7447 15543)"><tspan class="TextParagraph" font-family="Liberation Sans, sans-serif" font-size="353px" font-weight="400"><tspan class="TextPosition" x="7447" y="15543"><tspan fill="rgb(0,0,0)" stroke="none">25.03</tspan></tspan></tspan></text>
 <text class="TextShape" transform="rotate(-90 8066 15543)"><tspan class="TextParagraph" font-family="Liberation Sans, sans-serif" font-size="353px" font-weight="400"><tspan class="TextPosition" x="8066" y="15543"><tspan fill="rgb(0,0,0)" stroke="none">01.04</tspan></tspan></tspan></text>
 <text class="TextShape" transform="rotate(-90 8685 15543)"><tspan class="TextParagraph" font-family="Liberation Sans, sans-serif" font-size="353px" font-weight="400"><tspan class="TextPosition" x="8685" y="15543"><tspan fill="rgb(0,0,0)" stroke="none">08.04</tspan></tspan></tspan></text>
 <text class="TextShape" transform="rotate(-90 9304 15543)"><tspan class="TextParagraph" font-family="Liberation Sans, sans-serif" font-size="353px" font-weight="400"><tspan class="TextPosition" x="9304" y="15543"><tspan fill="rgb(0,0,0)" stroke="none">15.04</tspan></tspan></tspan></text>
 <text class="TextShape" transform="rotate(-90 9923 15543)"><tspan class="TextParagraph" font-family="Liberation Sans, sans-serif" font-size="353px" font-weight="400"><tspan class="TextPosition" x="9923" y="15543"><tspan fill="rgb(0,0,0)" stroke="none">22.04</tspan></tspan></tspan></text>
 <text class="TextShape" transform="rotate(-90 10543 15543)"><tspan class="TextParagraph" font-family="Liberation Sans, sans-serif" font-size="353px" font-weight="400"><tspan class="TextPosition" x="10543" y="15543"><tspan fill="rgb(0,0,0)" stroke="none">29.04</tspan></tspan></tspan></text>
 <text class="TextShape" transform="rotate(-90 11162 15543)"><tspan class="TextParagraph" font-family="Liberation Sans, sans-serif" font-size="353px" font-weight="400"><tspan class="TextPosition" x="11162" y="15543"><tspan fill="rgb(0,0,0)" stroke="none">06.05</tspan></tspan></tspan></text>
 <text class="TextShape" transform="rotate(-90 11781 15543)"><tspan class="TextParagraph" font-family="Liberation Sans, sans-serif" font-size="353px" font-weight="400"><tspan class="TextPosition" x="11781" y="15543"><tspan fill="rgb(0,0,0)" stroke="none">13.05</tspan></tspan></tspan></text>
 <text class="TextShape" transform="rotate(-90 12399 15543)"><tspan class="TextParagraph" font-family="Liberation Sans, sans-serif" font-size="353px" font-weight="400"><tspan class="TextPosition" x="12399" y="15543"><tspan fill="rgb(0,0,0)" stroke="none">20.05</tspan></tspan></tspan></text>
 <text class="TextShape" transform="rotate(-90 13019 15543)"><tspan class="TextParagraph" font-family="Liberation Sans, sans-serif" font-size="353px" font-weight="400"><tspan class="TextPosition" x="13019" y="15543"><tspan fill="rgb(0,0,0)" stroke="none">27.05</tspan></tspan></tspan></text>
 <text class="TextShape" transform="rotate(-90 13638 15543)"><tspan class="TextParagraph" font-family="Liberation Sans, sans-serif" font-size="353px" font-weight="400"><tspan class="TextPosition" x="13638" y="15543"><tspan fill="rgb(0,0,0)" stroke="none">03.06</tspan></tspan></tspan></text>
 <text class="TextShape" transform="rotate(-90 14257 15543)"><tspan class="TextParagraph" font-family="Liberation Sans, sans-serif" font-size="353px" font-weight="400"><tspan class="TextPosition" x="14257" y="15543"><tspan fill="rgb(0,0,0)" stroke="none">10.06</tspan></tspan></tspan></text>
 <text class="TextShape" transform="rotate(-90 14876 15543)"><tspan class="TextParagraph" font-family="Liberation Sans, sans-serif" font-size="353px" font-weight="400"><tspan class="TextPosition" x="14876" y="15543"><tspan fill="rgb(0,0,0)" stroke="none">17.06</tspan></tspan></tspan></text>
 <text class="TextShape" transform="rotate(-90 15495 15543)"><tspan class="TextParagraph" font-family="Liberation Sans, sans-serif" font-size="353px" font-weight="400"><tspan class="TextPosition" x="15495" y="15543"><tspan fill="rgb(0,0,0)" stroke="none">24.06</tspan></tspan></tspan></text>
 <text class="TextShape" transform="rotate(-90 16115 15543)"><tspan class="TextParagraph" font-family="Liberation Sans, sans-serif" font-size="353px" font-weight="400"><tspan class="TextPosition" x="16115" y="15543"><tspan fill="rgb(0,0,0)" stroke="none">01.07</tspan></tspan></tspan></text>
 <text class="TextShape" transform="rotate(-90 16734 15543)"><tspan class="TextParagraph" font-family="Liberation Sans, sans-serif" font-size="353px" font-weight="400"><tspan class="TextPosition" x="16734" y="15543"><tspan fill="rgb(0,0,0)" stroke="none">08.07</tspan></tspan></tspan></text>
 <text class="TextShape" transform="rotate(-90 17353 15543)"><tspan class="TextParagraph" font-family="Liberation Sans, sans-serif" font-size="353px" font-weight="400"><tspan class="TextPosition" x="17353" y="15543"><tspan fill="rgb(0,0,0)" stroke="none">15.07</tspan></tspan></tspan></text>
 <text class="TextShape" transform="rotate(-90 17972 15543)"><tspan class="TextParagraph" font-family="Liberation Sans, sans-serif" font-size="353px" font-weight="400"><tspan class="TextPosition" x="17972" y="15543"><tspan fill="rgb(0,0,0)" stroke="none">22.07</tspan></tspan></tspan></text>
 <text class="TextShape" transform="rotate(-90 18591 15543)"><tspan class="TextParagraph" font-family="Liberation Sans, sans-serif" font-size="353px" font-weight="400"><tspan class="TextPosition" x="18591" y="15543"><tspan fill="rgb(0,0,0)" stroke="none">29.07</tspan></tspan></tspan></text>
 <text class="TextShape" transform="rotate(-90 19211 15543)"><tspan class="TextParagraph" font-family="Liberation Sans, sans-serif" font-size="353px" font-weight="400"><tspan class="TextPosition" x="19211" y="15543"><tspan fill="rgb(0,0,0)" stroke="none">05.08</tspan></tspan></tspan></text>
 <text class="TextShape" transform="rotate(-90 19830 15543)"><tspan class="TextParagraph" font-family="Liberation Sans, sans-serif" font-size="353px" font-weight="400"><tspan class="TextPosition" x="19830" y="15543"><tspan fill="rgb(0,0,0)" stroke="none">12.08</tspan></tspan></tspan></text>
 <text class="TextShape"><tspan class="TextParagraph" font-family="Liberation Sans, sans-serif" font-size="353px" font-weight="400"><tspan class="TextPosition" x="363" y="14542"><tspan fill="rgb(0,0,0)" stroke="none">0,00 %</tspan></tspan></tspan></text>
 <text class="TextShape"><tspan class="TextParagraph" font-family="Liberation Sans, sans-serif" font-size="353px" font-weight="400"><tspan class="TextPosition" x="363" y="14028"><tspan fill="rgb(0,0,0)" stroke="none">1,00 %</tspan></tspan></tspan></text>
 <text class="TextShape"><tspan class="TextParagraph" font-family="Liberation Sans, sans-serif" font-size="353px" font-weight="400"><tspan class="TextPosition" x="363" y="13515"><tspan fill="rgb(0,0,0)" stroke="none">2,00 %</tspan></tspan></tspan></text>
 <text class="TextShape"><tspan class="TextParagraph" font-family="Liberation Sans, sans-serif" font-size="353px" font-weight="400"><tspan class="TextPosition" x="363" y="13002"><tspan fill="rgb(0,0,0)" stroke="none">3,00 %</tspan></tspan></tspan></text>
 <text class="TextShape"><tspan class="TextParagraph" font-family="Liberation Sans, sans-serif" font-size="353px" font-weight="400"><tspan class="TextPosition" x="363" y="12489"><tspan fill="rgb(0,0,0)" stroke="none">4,00 %</tspan></tspan></tspan></text>
 <text class="TextShape"><tspan class="TextParagraph" font-family="Liberation Sans, sans-serif" font-size="353px" font-weight="400"><tspan class="TextPosition" x="363" y="11975"><tspan fill="rgb(0,0,0)" stroke="none">5,00 %</tspan></tspan></tspan></text>
 <text class="TextShape"><tspan class="TextParagraph" font-family="Liberation Sans, sans-serif" font-size="353px" font-weight="400"><tspan class="TextPosition" x="363" y="11462"><tspan fill="rgb(0,0,0)" stroke="none">6,00 %</tspan></tspan></tspan></text>
 <text class="TextShape"><tspan class="TextParagraph" font-family="Liberation Sans, sans-serif" font-size="353px" font-weight="400"><tspan class="TextPosition" x="363" y="10949"><tspan fill="rgb(0,0,0)" stroke="none">7,00 %</tspan></tspan></tspan></text>
 <text class="TextShape"><tspan class="TextParagraph" font-family="Liberation Sans, sans-serif" font-size="353px" font-weight="400"><tspan class="TextPosition" x="363" y="10436"><tspan fill="rgb(0,0,0)" stroke="none">8,00 %</tspan></tspan></tspan></text>
 <text class="TextShape"><tspan class="TextParagraph" font-family="Liberation Sans, sans-serif" font-size="353px" font-weight="400"><tspan class="TextPosition" x="363" y="9922"><tspan fill="rgb(0,0,0)" stroke="none">9,00 %</tspan></tspan></tspan></text>
 <text class="TextShape"><tspan class="TextParagraph" font-family="Liberation Sans, sans-serif" font-size="353px" font-weight="400"><tspan class="TextPosition" x="173" y="9409"><tspan fill="rgb(0,0,0)" stroke="none">10,00 %</tspan></tspan></tspan></text>
 <text class="TextShape"><tspan class="TextParagraph" font-family="Liberation Sans, sans-serif" font-size="353px" font-weight="400"><tspan class="TextPosition" x="173" y="8896"><tspan fill="rgb(0,0,0)" stroke="none">11,00 %</tspan></tspan></tspan></text>
 <text class="TextShape"><tspan class="TextParagraph" font-family="Liberation Sans, sans-serif" font-size="353px" font-weight="400"><tspan class="TextPosition" x="173" y="8383"><tspan fill="rgb(0,0,0)" stroke="none">12,00 %</tspan></tspan></tspan></text>
 <text class="TextShape"><tspan class="TextParagraph" font-family="Liberation Sans, sans-serif" font-size="353px" font-weight="400"><tspan class="TextPosition" x="173" y="7869"><tspan fill="rgb(0,0,0)" stroke="none">13,00 %</tspan></tspan></tspan></text>
 <text class="TextShape"><tspan class="TextParagraph" font-family="Liberation Sans, sans-serif" font-size="353px" font-weight="400"><tspan class="TextPosition" x="173" y="7356"><tspan fill="rgb(0,0,0)" stroke="none">14,00 %</tspan></tspan></tspan></text>
 <text class="TextShape"><tspan class="TextParagraph" font-family="Liberation Sans, sans-serif" font-size="353px" font-weight="400"><tspan class="TextPosition" x="173" y="6843"><tspan fill="rgb(0,0,0)" stroke="none">15,00 %</tspan></tspan></tspan></text>
 <text class="TextShape"><tspan class="TextParagraph" font-family="Liberation Sans, sans-serif" font-size="353px" font-weight="400"><tspan class="TextPosition" x="173" y="6330"><tspan fill="rgb(0,0,0)" stroke="none">16,00 %</tspan></tspan></tspan></text>
 <text class="TextShape"><tspan class="TextParagraph" font-family="Liberation Sans, sans-serif" font-size="353px" font-weight="400"><tspan class="TextPosition" x="173" y="5816"><tspan fill="rgb(0,0,0)" stroke="none">17,00 %</tspan></tspan></tspan></text>
 <text class="TextShape"><tspan class="TextParagraph" font-family="Liberation Sans, sans-serif" font-size="353px" font-weight="400"><tspan class="TextPosition" x="173" y="5303"><tspan fill="rgb(0,0,0)" stroke="none">18,00 %</tspan></tspan></tspan></text>
 <text class="TextShape"><tspan class="TextParagraph" font-family="Liberation Sans, sans-serif" font-size="353px" font-weight="400"><tspan class="TextPosition" x="173" y="4790"><tspan fill="rgb(0,0,0)" stroke="none">19,00 %</tspan></tspan></tspan></text>
 <text class="TextShape"><tspan class="TextParagraph" font-family="Liberation Sans, sans-serif" font-size="353px" font-weight="400"><tspan class="TextPosition" x="173" y="4277"><tspan fill="rgb(0,0,0)" stroke="none">20,00 %</tspan></tspan></tspan></text>
 <text class="TextShape"><tspan class="TextParagraph" font-family="Liberation Sans, sans-serif" font-size="353px" font-weight="400"><tspan class="TextPosition" x="173" y="3763"><tspan fill="rgb(0,0,0)" stroke="none">21,00 %</tspan></tspan></tspan></text>
 <text class="TextShape"><tspan class="TextParagraph" font-family="Liberation Sans, sans-serif" font-size="353px" font-weight="400"><tspan class="TextPosition" x="173" y="3250"><tspan fill="rgb(0,0,0)" stroke="none">22,00 %</tspan></tspan></tspan></text>
 <text class="TextShape"><tspan class="TextParagraph" font-family="Liberation Sans, sans-serif" font-size="353px" font-weight="400"><tspan class="TextPosition" x="173" y="2737"><tspan fill="rgb(0,0,0)" stroke="none">23,00 %</tspan></tspan></tspan></text>
 <text class="TextShape"><tspan class="TextParagraph" font-family="Liberation Sans, sans-serif" font-size="353px" font-weight="400"><tspan class="TextPosition" x="173" y="2224"><tspan fill="rgb(0,0,0)" stroke="none">24,00 %</tspan></tspan></tspan></text>
 <text class="TextShape"><tspan class="TextParagraph" font-family="Liberation Sans, sans-serif" font-size="353px" font-weight="400"><tspan class="TextPosition" x="173" y="1711"><tspan fill="rgb(0,0,0)" stroke="none">25,00 %</tspan></tspan></tspan></text>
 <text class="TextShape"><tspan class="TextParagraph" font-family="Liberation Sans, sans-serif" font-size="459px" font-weight="700"><tspan class="TextPosition" x="2096" y="1019"><tspan fill="rgb(0,0,0)" stroke="none">Celosvtov - pomr celkovho potu obt k posunutmu celkovmu potu infikovanch</tspan></tspan></tspan></text>
 <path fill="none" stroke="rgb(0,69,134)" stroke-width="80" stroke-linejoin="round" d="M 20014,1917 L 20814,1917"/>
 <path fill="none" stroke="rgb(255,66,14)" stroke-width="80" stroke-linejoin="round" d="M 20014,2790 L 20814,2790"/>
 <path fill="none" stroke="rgb(255,211,32)" stroke-width="80" stroke-linejoin="round" d="M 20014,3663 L 20814,3663"/>
 <path fill="none" stroke="rgb(87,157,28)" stroke-width="80" stroke-linejoin="round" d="M 20014,4536 L 20814,4536"/>
 <path fill="none" stroke="rgb(126,0,33)" stroke-width="80" stroke-linejoin="round" d="M 20014,5409 L 20814,5409"/>
 <path fill="none" stroke="rgb(131,202,255)" stroke-width="80" stroke-linejoin="round" d="M 20014,6282 L 20814,6282"/>
 <path fill="none" stroke="rgb(49,64,4)" stroke-width="80" stroke-linejoin="round" d="M 20014,7155 L 20814,7155"/>
 <path fill="none" stroke="rgb(174,207,0)" stroke-width="80" stroke-linejoin="round" d="M 20014,8028 L 20814,8028"/>
 <path fill="none" stroke="rgb(75,31,111)" stroke-width="80" stroke-linejoin="round" d="M 20014,8900 L 20814,8900"/>
 <path fill="none" stroke="rgb(255,149,14)" stroke-width="80" stroke-linejoin="round" d="M 20014,9773 L 20814,9773"/>
 <path fill="none" stroke="rgb(197,0,11)" stroke-width="80" stroke-linejoin="round" d="M 20014,10646 L 20814,10646"/>
 <path fill="none" stroke="rgb(0,132,209)" stroke-width="80" stroke-linejoin="round" d="M 20014,11519 L 20814,11519"/>
 <path fill="none" stroke="rgb(0,69,134)" stroke-width="80" stroke-linejoin="round" d="M 20014,12392 L 20814,12392"/>
 <path fill="none" stroke="rgb(255,66,14)" stroke-width="80" stroke-linejoin="round" d="M 20014,13265 L 20814,13265"/>
 <path fill="none" stroke="rgb(255,211,32)" stroke-width="80" stroke-linejoin="round" d="M 20014,14138 L 20814,14138"/>
 <text class="TextShape"><tspan class="TextParagraph" font-family="Liberation Sans, sans-serif" font-size="353px" font-weight="400"><tspan class="TextPosition" x="20914" y="2034"><tspan fill="rgb(0,0,0)" stroke="none">14 dn zpodn</tspan></tspan></tspan></text>
 <text class="TextShape"><tspan class="TextParagraph" font-family="Liberation Sans, sans-serif" font-size="353px" font-weight="400"><tspan class="TextPosition" x="20914" y="2907"><tspan fill="rgb(0,0,0)" stroke="none">13 dn zpodn</tspan></tspan></tspan></text>
 <text class="TextShape"><tspan class="TextParagraph" font-family="Liberation Sans, sans-serif" font-size="353px" font-weight="400"><tspan class="TextPosition" x="20914" y="3780"><tspan fill="rgb(0,0,0)" stroke="none">12 dn zpodn</tspan></tspan></tspan></text>
 <text class="TextShape"><tspan class="TextParagraph" font-family="Liberation Sans, sans-serif" font-size="353px" font-weight="400"><tspan class="TextPosition" x="20914" y="4653"><tspan fill="rgb(0,0,0)" stroke="none">11 dn zpodn</tspan></tspan></tspan></text>
 <text class="TextShape"><tspan class="TextParagraph" font-family="Liberation Sans, sans-serif" font-size="353px" font-weight="400"><tspan class="TextPosition" x="20914" y="5526"><tspan fill="rgb(0,0,0)" stroke="none">10 dn zpodn</tspan></tspan></tspan></text>
 <text class="TextShape"><tspan class="TextParagraph" font-family="Liberation Sans, sans-serif" font-size="353px" font-weight="400"><tspan class="TextPosition" x="20914" y="6399"><tspan fill="rgb(0,0,0)" stroke="none">9 dn zpodn</tspan></tspan></tspan></text>
 <text class="TextShape"><tspan class="TextParagraph" font-family="Liberation Sans, sans-serif" font-size="353px" font-weight="400"><tspan class="TextPosition" x="20914" y="7272"><tspan fill="rgb(0,0,0)" stroke="none">8 dn zpodn</tspan></tspan></tspan></text>
 <text class="TextShape"><tspan class="TextParagraph" font-family="Liberation Sans, sans-serif" font-size="353px" font-weight="400"><tspan class="TextPosition" x="20914" y="8144"><tspan fill="rgb(0,0,0)" stroke="none">7 dn zpodn</tspan></tspan></tspan></text>
 <text class="TextShape"><tspan class="TextParagraph" font-family="Liberation Sans, sans-serif" font-size="353px" font-weight="400"><tspan class="TextPosition" x="20914" y="9017"><tspan fill="rgb(0,0,0)" stroke="none">6 dn zpodn</tspan></tspan></tspan></text>
 <text class="TextShape"><tspan class="TextParagraph" font-family="Liberation Sans, sans-serif" font-size="353px" font-weight="400"><tspan class="TextPosition" x="20914" y="9890"><tspan fill="rgb(0,0,0)" stroke="none">5 dn zpodn</tspan></tspan></tspan></text>
 <text class="TextShape"><tspan class="TextParagraph" font-family="Liberation Sans, sans-serif" font-size="353px" font-weight="400"><tspan class="TextPosition" x="20914" y="10763"><tspan fill="rgb(0,0,0)" stroke="none">4 dny zpodn</tspan></tspan></tspan></text>
 <text class="TextShape"><tspan class="TextParagraph" font-family="Liberation Sans, sans-serif" font-size="353px" font-weight="400"><tspan class="TextPosition" x="20914" y="11636"><tspan fill="rgb(0,0,0)" stroke="none">3 dny zpodn</tspan></tspan></tspan></text>
 <text class="TextShape"><tspan class="TextParagraph" font-family="Liberation Sans, sans-serif" font-size="353px" font-weight="400"><tspan class="TextPosition" x="20914" y="12509"><tspan fill="rgb(0,0,0)" stroke="none">2 dny zpodn</tspan></tspan></tspan></text>
 <text class="TextShape"><tspan class="TextParagraph" font-family="Liberation Sans, sans-serif" font-size="353px" font-weight="400"><tspan class="TextPosition" x="20914" y="13382"><tspan fill="rgb(0,0,0)" stroke="none">1 den zpodn</tspan></tspan></tspan></text>
 <text class="TextShape"><tspan class="TextParagraph" font-family="Liberation Sans, sans-serif" font-size="353px" font-weight="400"><tspan class="TextPosition" x="20914" y="14255"><tspan fill="rgb(0,0,0)" stroke="none">0 dn zpodn</tspan></tspan></tspan></text>
</svg>