<?xml version="1.0" encoding="UTF-8"?>
<!DOCTYPE svg PUBLIC "-//W3C//DTD SVG 1.1//EN" "http://www.w3.org/Graphics/SVG/1.1/DTD/svg11.dtd">
<svg width="236mm" height="125mm" viewBox="0 0 23600 12500" version="1.1" xmlns="http://www.w3.org/2000/svg" xmlns:xlink="http://www.w3.org/1999/xlink" stroke-width="28.222" stroke-linejoin="round" xml:space="preserve">
 <path fill="rgb(255,255,255)" stroke="none" d="M 11800,12500 L 0,12500 0,0 23600,0 23600,12500 11800,12500 Z"/>
 <path fill="none" stroke="rgb(179,179,179)" stroke-linejoin="round" d="M 12568,10855 L 1757,10855 1757,1692 23380,1692 23380,10855 12568,10855 Z"/>
 <path fill="none" stroke="rgb(179,179,179)" stroke-linejoin="round" d="M 23380,10854 L 1757,10854"/>
 <path fill="none" stroke="rgb(179,179,179)" stroke-linejoin="round" d="M 23380,9937 L 1757,9937"/>
 <path fill="none" stroke="rgb(179,179,179)" stroke-linejoin="round" d="M 23380,9021 L 1757,9021"/>
 <path fill="none" stroke="rgb(179,179,179)" stroke-linejoin="round" d="M 23380,8104 L 1757,8104"/>
 <path fill="none" stroke="rgb(179,179,179)" stroke-linejoin="round" d="M 23380,7188 L 1757,7188"/>
 <path fill="none" stroke="rgb(179,179,179)" stroke-linejoin="round" d="M 23380,6272 L 1757,6272"/>
 <path fill="none" stroke="rgb(179,179,179)" stroke-linejoin="round" d="M 23380,5356 L 1757,5356"/>
 <path fill="none" stroke="rgb(179,179,179)" stroke-linejoin="round" d="M 23380,4440 L 1757,4440"/>
 <path fill="none" stroke="rgb(179,179,179)" stroke-linejoin="round" d="M 23380,3523 L 1757,3523"/>
 <path fill="none" stroke="rgb(179,179,179)" stroke-linejoin="round" d="M 23380,2607 L 1757,2607"/>
 <path fill="none" stroke="rgb(179,179,179)" stroke-linejoin="round" d="M 23380,1691 L 1757,1691"/>
 <path fill="none" stroke="rgb(179,179,179)" stroke-linejoin="round" d="M 1757,11004 L 1757,10854"/>
 <path fill="none" stroke="rgb(179,179,179)" stroke-linejoin="round" d="M 1757,11004 L 1757,10854"/>
 <path fill="none" stroke="rgb(179,179,179)" stroke-linejoin="round" d="M 2727,11004 L 2727,10854"/>
 <path fill="none" stroke="rgb(179,179,179)" stroke-linejoin="round" d="M 2727,11004 L 2727,10854"/>
 <path fill="none" stroke="rgb(179,179,179)" stroke-linejoin="round" d="M 3697,11004 L 3697,10854"/>
 <path fill="none" stroke="rgb(179,179,179)" stroke-linejoin="round" d="M 3697,11004 L 3697,10854"/>
 <path fill="none" stroke="rgb(179,179,179)" stroke-linejoin="round" d="M 4667,11004 L 4667,10854"/>
 <path fill="none" stroke="rgb(179,179,179)" stroke-linejoin="round" d="M 4667,11004 L 4667,10854"/>
 <path fill="none" stroke="rgb(179,179,179)" stroke-linejoin="round" d="M 5638,11004 L 5638,10854"/>
 <path fill="none" stroke="rgb(179,179,179)" stroke-linejoin="round" d="M 5638,11004 L 5638,10854"/>
 <path fill="none" stroke="rgb(179,179,179)" stroke-linejoin="round" d="M 6608,11004 L 6608,10854"/>
 <path fill="none" stroke="rgb(179,179,179)" stroke-linejoin="round" d="M 6608,11004 L 6608,10854"/>
 <path fill="none" stroke="rgb(179,179,179)" stroke-linejoin="round" d="M 7578,11004 L 7578,10854"/>
 <path fill="none" stroke="rgb(179,179,179)" stroke-linejoin="round" d="M 7578,11004 L 7578,10854"/>
 <path fill="none" stroke="rgb(179,179,179)" stroke-linejoin="round" d="M 8549,11004 L 8549,10854"/>
 <path fill="none" stroke="rgb(179,179,179)" stroke-linejoin="round" d="M 8549,11004 L 8549,10854"/>
 <path fill="none" stroke="rgb(179,179,179)" stroke-linejoin="round" d="M 9519,11004 L 9519,10854"/>
 <path fill="none" stroke="rgb(179,179,179)" stroke-linejoin="round" d="M 9519,11004 L 9519,10854"/>
 <path fill="none" stroke="rgb(179,179,179)" stroke-linejoin="round" d="M 10489,11004 L 10489,10854"/>
 <path fill="none" stroke="rgb(179,179,179)" stroke-linejoin="round" d="M 10489,11004 L 10489,10854"/>
 <path fill="none" stroke="rgb(179,179,179)" stroke-linejoin="round" d="M 11460,11004 L 11460,10854"/>
 <path fill="none" stroke="rgb(179,179,179)" stroke-linejoin="round" d="M 11460,11004 L 11460,10854"/>
 <path fill="none" stroke="rgb(179,179,179)" stroke-linejoin="round" d="M 12429,11004 L 12429,10854"/>
 <path fill="none" stroke="rgb(179,179,179)" stroke-linejoin="round" d="M 12429,11004 L 12429,10854"/>
 <path fill="none" stroke="rgb(179,179,179)" stroke-linejoin="round" d="M 13399,11004 L 13399,10854"/>
 <path fill="none" stroke="rgb(179,179,179)" stroke-linejoin="round" d="M 13399,11004 L 13399,10854"/>
 <path fill="none" stroke="rgb(179,179,179)" stroke-linejoin="round" d="M 14369,11004 L 14369,10854"/>
 <path fill="none" stroke="rgb(179,179,179)" stroke-linejoin="round" d="M 14369,11004 L 14369,10854"/>
 <path fill="none" stroke="rgb(179,179,179)" stroke-linejoin="round" d="M 15340,11004 L 15340,10854"/>
 <path fill="none" stroke="rgb(179,179,179)" stroke-linejoin="round" d="M 15340,11004 L 15340,10854"/>
 <path fill="none" stroke="rgb(179,179,179)" stroke-linejoin="round" d="M 16310,11004 L 16310,10854"/>
 <path fill="none" stroke="rgb(179,179,179)" stroke-linejoin="round" d="M 16310,11004 L 16310,10854"/>
 <path fill="none" stroke="rgb(179,179,179)" stroke-linejoin="round" d="M 17280,11004 L 17280,10854"/>
 <path fill="none" stroke="rgb(179,179,179)" stroke-linejoin="round" d="M 17280,11004 L 17280,10854"/>
 <path fill="none" stroke="rgb(179,179,179)" stroke-linejoin="round" d="M 18251,11004 L 18251,10854"/>
 <path fill="none" stroke="rgb(179,179,179)" stroke-linejoin="round" d="M 18251,11004 L 18251,10854"/>
 <path fill="none" stroke="rgb(179,179,179)" stroke-linejoin="round" d="M 19221,11004 L 19221,10854"/>
 <path fill="none" stroke="rgb(179,179,179)" stroke-linejoin="round" d="M 19221,11004 L 19221,10854"/>
 <path fill="none" stroke="rgb(179,179,179)" stroke-linejoin="round" d="M 20191,11004 L 20191,10854"/>
 <path fill="none" stroke="rgb(179,179,179)" stroke-linejoin="round" d="M 20191,11004 L 20191,10854"/>
 <path fill="none" stroke="rgb(179,179,179)" stroke-linejoin="round" d="M 21162,11004 L 21162,10854"/>
 <path fill="none" stroke="rgb(179,179,179)" stroke-linejoin="round" d="M 21162,11004 L 21162,10854"/>
 <path fill="none" stroke="rgb(179,179,179)" stroke-linejoin="round" d="M 22132,11004 L 22132,10854"/>
 <path fill="none" stroke="rgb(179,179,179)" stroke-linejoin="round" d="M 22132,11004 L 22132,10854"/>
 <path fill="none" stroke="rgb(179,179,179)" stroke-linejoin="round" d="M 23102,11004 L 23102,10854"/>
 <path fill="none" stroke="rgb(179,179,179)" stroke-linejoin="round" d="M 23102,11004 L 23102,10854"/>
 <path fill="none" stroke="rgb(179,179,179)" stroke-linejoin="round" d="M 1757,10854 L 23380,10854"/>
 <path fill="none" stroke="rgb(179,179,179)" stroke-linejoin="round" d="M 1607,10854 L 1757,10854"/>
 <path fill="none" stroke="rgb(179,179,179)" stroke-linejoin="round" d="M 1607,10854 L 1757,10854"/>
 <path fill="none" stroke="rgb(179,179,179)" stroke-linejoin="round" d="M 1607,9937 L 1757,9937"/>
 <path fill="none" stroke="rgb(179,179,179)" stroke-linejoin="round" d="M 1607,9937 L 1757,9937"/>
 <path fill="none" stroke="rgb(179,179,179)" stroke-linejoin="round" d="M 1607,9021 L 1757,9021"/>
 <path fill="none" stroke="rgb(179,179,179)" stroke-linejoin="round" d="M 1607,9021 L 1757,9021"/>
 <path fill="none" stroke="rgb(179,179,179)" stroke-linejoin="round" d="M 1607,8104 L 1757,8104"/>
 <path fill="none" stroke="rgb(179,179,179)" stroke-linejoin="round" d="M 1607,8104 L 1757,8104"/>
 <path fill="none" stroke="rgb(179,179,179)" stroke-linejoin="round" d="M 1607,7188 L 1757,7188"/>
 <path fill="none" stroke="rgb(179,179,179)" stroke-linejoin="round" d="M 1607,7188 L 1757,7188"/>
 <path fill="none" stroke="rgb(179,179,179)" stroke-linejoin="round" d="M 1607,6272 L 1757,6272"/>
 <path fill="none" stroke="rgb(179,179,179)" stroke-linejoin="round" d="M 1607,6272 L 1757,6272"/>
 <path fill="none" stroke="rgb(179,179,179)" stroke-linejoin="round" d="M 1607,5356 L 1757,5356"/>
 <path fill="none" stroke="rgb(179,179,179)" stroke-linejoin="round" d="M 1607,5356 L 1757,5356"/>
 <path fill="none" stroke="rgb(179,179,179)" stroke-linejoin="round" d="M 1607,4440 L 1757,4440"/>
 <path fill="none" stroke="rgb(179,179,179)" stroke-linejoin="round" d="M 1607,4440 L 1757,4440"/>
 <path fill="none" stroke="rgb(179,179,179)" stroke-linejoin="round" d="M 1607,3523 L 1757,3523"/>
 <path fill="none" stroke="rgb(179,179,179)" stroke-linejoin="round" d="M 1607,3523 L 1757,3523"/>
 <path fill="none" stroke="rgb(179,179,179)" stroke-linejoin="round" d="M 1607,2607 L 1757,2607"/>
 <path fill="none" stroke="rgb(179,179,179)" stroke-linejoin="round" d="M 1607,2607 L 1757,2607"/>
 <path fill="none" stroke="rgb(179,179,179)" stroke-linejoin="round" d="M 1607,1691 L 1757,1691"/>
 <path fill="none" stroke="rgb(179,179,179)" stroke-linejoin="round" d="M 1607,1691 L 1757,1691"/>
 <path fill="none" stroke="rgb(179,179,179)" stroke-linejoin="round" d="M 1757,10854 L 1757,1691"/>
 <path fill="none" stroke="rgb(255,191,0)" stroke-width="80" stroke-linejoin="round" d="M 1826,10839 L 1964,10839 2103,10835 2242,10812 2380,10810 2519,10789 2658,10767 2796,10738 2935,10717 3073,10672 3212,10641 3351,10536 3489,10472 3628,10398 3766,10340 3905,10287 4044,10215 4182,10096 4321,9971 4460,9809 4598,9648 4737,9563 4875,9478 5014,9338 5153,9246 5291,9086 5430,8979 5568,8804 5707,8752 5846,8644 5984,8555 6123,8420 6262,8302 6400,8227 6539,8182 6677,8108 6816,8077 6955,8053 7093,8005 7232,7906 7370,7853 7509,7827 7648,7762 7786,7692 7925,7631 8064,7586 8202,7560 8341,7521 8479,7485 8618,7461 8757,7442 8895,7415 9034,7381 9172,7334 9311,7308 9450,7300 9588,7288 9727,7271 9866,7236 10004,7200 10143,7174 10281,7153 10420,7144 10559,7132 10697,7107 10836,7087 10974,7065 11113,7027 11252,7002 11390,6979 11529,6970 11668,6919 11805,6891 11944,6858 12082,6842 12221,6815 12360,6780 12498,6750 12637,6729 12775,6707 12914,6690 13053,6666 13191,6640 13330,6624 13469,6607 13607,6591 13746,6563 13884,6529 14023,6503 14162,6487 14300,6470 14439,6442 14577,6410 14716,6386 14855,6352 14993,6338 15132,6300 15271,6276 15409,6261 15548,6243 15686,6222 15825,6198 15964,6144 16102,6086 16241,6067 16379,6044 16518,6033 16657,5975 16795,5916 16934,5874 17073,5797 17211,5678 17350,5538 17488,5445 17627,5377 17766,5335 17904,5275 18043,5210 18181,5154 18320,5120 18459,5097 18597,5042 18736,4983 18875,4935 19013,4897 19152,4845 19290,4818 19429,4789 19568,4742 19706,4680 19845,4617 19983,4558 20122,4506 20261,4465 20399,4395 20538,4291 20677,4179 20815,4073 20954,3944 21092,3884 21231,3833 21370,3745 21508,3615 21647,3481 21785,3353 21924,3260 22063,3203 22201,3157 22340,3061 22479,2934 22617,2823 22756,2730 22894,2579 23033,2499 23172,2445 23310,2381"/>
 <path fill="none" stroke="rgb(85,48,141)" stroke-width="80" stroke-linejoin="round" d="M 1826,10839 L 1964,10839 2103,10835 2242,10812 2380,10810 2519,10789 2658,10767 2796,10738 2935,10718 3073,10673 3212,10642 3351,10537 3489,10474 3628,10400 3766,10344 3905,10290 4044,10221 4182,10103 4321,9980 4460,9818 4598,9658 4737,9575 4875,9500 5014,9373 5153,9292 5291,9137 5430,9036 5568,8867 5707,8826 5846,8735 5984,8674 6123,8572 6262,8491 6400,8440 6539,8429 6677,8384 6816,8381 6955,8421 7093,8457 7232,8429 7370,8470 7509,8472 7648,8442 7786,8495 7925,8526 8064,8592 8202,8643 8341,8705 8479,8709 8618,8728 8757,8839 8895,8870 9034,8909 9172,8960 9311,8963 9450,8998 9588,9045 9727,9131 9866,9189 10004,9247 10143,9300 10281,9300 10420,9308 10559,9310 10697,9395 10836,9456 10974,9510 11113,9563 11252,9603 11390,9599 11529,9609 11668,9640 11805,9653 11944,9668 12082,9698 12221,9719 12360,9693 12498,9680 12637,9707 12775,9725 12914,9754 13053,9772 13191,9764 13330,9770 13469,9758 13607,9782 13746,9774 13884,9770 14023,9773 14162,9790 14300,9774 14439,9749 14577,9765 14716,9768 14855,9762 14993,9772 15132,9757 15271,9734 15409,9722 15548,9736 15686,9744 15825,9740 15964,9705 16102,9663 16241,9646 16379,9633 16518,9639 16657,9591 16795,9549 16934,9536 17073,9469 17211,9357 17350,9227 17488,9153 17627,9097 17766,9067 17904,9019 18043,8967 18181,8912 18320,8882 18459,8864 18597,8826 18736,8813 18875,8820 19013,8819 19152,8775 19290,8757 19429,8786 19568,8771 19706,8740 19845,8738 19983,8719 20122,8671 20261,8643 20399,8607 20538,8541 20677,8534 20815,8513 20954,8430 21092,8447 21231,9238 21370,9151 21508,9022 21647,8888 21785,8787 21924,8735 22063,8687 22201,8649 22340,8602 22479,8521 22617,8456 22756,8553 22894,8598 23033,8525 23172,8481 23310,8507"/>
 <path fill="none" stroke="rgb(0,169,51)" stroke-width="80" stroke-linejoin="round" d="M 1826,10854 L 1964,10854 2103,10854 2242,10854 2380,10854 2519,10854 2658,10854 2796,10854 2935,10852 3073,10852 3212,10852 3351,10852 3489,10852 3628,10851 3766,10851 3905,10851 4044,10849 4182,10849 4321,10849 4460,10848 4598,10848 4737,10848 4875,10842 5014,10833 5153,10826 5291,10823 5430,10821 5568,10818 5707,10810 5846,10798 5984,10775 6123,10747 6262,10716 6400,10695 6539,10665 6677,10641 6816,10616 6955,10559 7093,10478 7232,10408 7370,10316 7509,10291 7648,10259 7786,10139 7925,10050 8064,9942 8202,9867 8341,9767 8479,9730 8618,9687 8757,9559 8895,9503 9034,9429 9172,9335 9311,9308 9450,9268 9588,9210 9727,9109 9866,9018 10004,8927 10143,8851 10281,8831 10420,8816 10559,8804 10697,8695 10836,8613 10974,8541 11113,8452 11252,8388 11390,8369 11529,8351 11668,8269 11805,8230 11944,8182 12082,8138 12221,8093 12360,8084 12498,8069 12637,8021 12775,7981 12914,7935 13053,7894 13191,7875 13330,7854 13469,7849 13607,7810 13746,7790 13884,7761 14023,7734 14162,7701 14300,7699 14439,7696 14577,7649 14716,7622 14855,7595 14993,7570 15132,7548 15271,7546 15409,7543 15548,7510 15686,7482 15825,7463 15964,7444 16102,7429 16241,7428 16379,7417 16518,7400 16657,7392 16795,7377 16934,7349 17073,7340 17211,7334 17350,7323 17488,7304 17627,7293 17766,7281 17904,7269 18043,7258 18181,7256 18320,7250 18459,7246 18597,7229 18736,7183 18875,7129 19013,7093 19152,7084 19290,7075 19429,7017 19568,6986 19706,6956 19845,6895 19983,6856 20122,6852 20261,6839 20399,6805 20538,6767 20677,6664 20815,6579 20954,6536 21092,6459 21231,5618 21370,5618 21508,5618 21647,5618 21785,5593 21924,5554 22063,5545 22201,5537 22340,5490 22479,5442 22617,5398 22756,5209 22894,5013 23033,5006 23172,4996 23310,4906"/>
 <text class="TextShape" transform="rotate(-90 1952 12058)"><tspan class="TextParagraph" font-family="Liberation Sans, sans-serif" font-size="388px" font-weight="400"><tspan class="TextPosition" x="1952" y="12058"><tspan fill="rgb(0,0,0)" stroke="none">08.03</tspan></tspan></tspan></text>
 <text class="TextShape" transform="rotate(-90 2922 12058)"><tspan class="TextParagraph" font-family="Liberation Sans, sans-serif" font-size="388px" font-weight="400"><tspan class="TextPosition" x="2922" y="12058"><tspan fill="rgb(0,0,0)" stroke="none">15.03</tspan></tspan></tspan></text>
 <text class="TextShape" transform="rotate(-90 3892 12058)"><tspan class="TextParagraph" font-family="Liberation Sans, sans-serif" font-size="388px" font-weight="400"><tspan class="TextPosition" x="3892" y="12058"><tspan fill="rgb(0,0,0)" stroke="none">22.03</tspan></tspan></tspan></text>
 <text class="TextShape" transform="rotate(-90 4863 12058)"><tspan class="TextParagraph" font-family="Liberation Sans, sans-serif" font-size="388px" font-weight="400"><tspan class="TextPosition" x="4863" y="12058"><tspan fill="rgb(0,0,0)" stroke="none">29.03</tspan></tspan></tspan></text>
 <text class="TextShape" transform="rotate(-90 5833 12058)"><tspan class="TextParagraph" font-family="Liberation Sans, sans-serif" font-size="388px" font-weight="400"><tspan class="TextPosition" x="5833" y="12058"><tspan fill="rgb(0,0,0)" stroke="none">05.04</tspan></tspan></tspan></text>
 <text class="TextShape" transform="rotate(-90 6803 12058)"><tspan class="TextParagraph" font-family="Liberation Sans, sans-serif" font-size="388px" font-weight="400"><tspan class="TextPosition" x="6803" y="12058"><tspan fill="rgb(0,0,0)" stroke="none">12.04</tspan></tspan></tspan></text>
 <text class="TextShape" transform="rotate(-90 7774 12058)"><tspan class="TextParagraph" font-family="Liberation Sans, sans-serif" font-size="388px" font-weight="400"><tspan class="TextPosition" x="7774" y="12058"><tspan fill="rgb(0,0,0)" stroke="none">19.04</tspan></tspan></tspan></text>
 <text class="TextShape" transform="rotate(-90 8744 12058)"><tspan class="TextParagraph" font-family="Liberation Sans, sans-serif" font-size="388px" font-weight="400"><tspan class="TextPosition" x="8744" y="12058"><tspan fill="rgb(0,0,0)" stroke="none">26.04</tspan></tspan></tspan></text>
 <text class="TextShape" transform="rotate(-90 9714 12058)"><tspan class="TextParagraph" font-family="Liberation Sans, sans-serif" font-size="388px" font-weight="400"><tspan class="TextPosition" x="9714" y="12058"><tspan fill="rgb(0,0,0)" stroke="none">03.05</tspan></tspan></tspan></text>
 <text class="TextShape" transform="rotate(-90 10685 12058)"><tspan class="TextParagraph" font-family="Liberation Sans, sans-serif" font-size="388px" font-weight="400"><tspan class="TextPosition" x="10685" y="12058"><tspan fill="rgb(0,0,0)" stroke="none">10.05</tspan></tspan></tspan></text>
 <text class="TextShape" transform="rotate(-90 11655 12058)"><tspan class="TextParagraph" font-family="Liberation Sans, sans-serif" font-size="388px" font-weight="400"><tspan class="TextPosition" x="11655" y="12058"><tspan fill="rgb(0,0,0)" stroke="none">17.05</tspan></tspan></tspan></text>
 <text class="TextShape" transform="rotate(-90 12624 12058)"><tspan class="TextParagraph" font-family="Liberation Sans, sans-serif" font-size="388px" font-weight="400"><tspan class="TextPosition" x="12624" y="12058"><tspan fill="rgb(0,0,0)" stroke="none">24.05</tspan></tspan></tspan></text>
 <text class="TextShape" transform="rotate(-90 13595 12058)"><tspan class="TextParagraph" font-family="Liberation Sans, sans-serif" font-size="388px" font-weight="400"><tspan class="TextPosition" x="13595" y="12058"><tspan fill="rgb(0,0,0)" stroke="none">31.05</tspan></tspan></tspan></text>
 <text class="TextShape" transform="rotate(-90 14565 12058)"><tspan class="TextParagraph" font-family="Liberation Sans, sans-serif" font-size="388px" font-weight="400"><tspan class="TextPosition" x="14565" y="12058"><tspan fill="rgb(0,0,0)" stroke="none">07.06</tspan></tspan></tspan></text>
 <text class="TextShape" transform="rotate(-90 15535 12058)"><tspan class="TextParagraph" font-family="Liberation Sans, sans-serif" font-size="388px" font-weight="400"><tspan class="TextPosition" x="15535" y="12058"><tspan fill="rgb(0,0,0)" stroke="none">14.06</tspan></tspan></tspan></text>
 <text class="TextShape" transform="rotate(-90 16505 12058)"><tspan class="TextParagraph" font-family="Liberation Sans, sans-serif" font-size="388px" font-weight="400"><tspan class="TextPosition" x="16505" y="12058"><tspan fill="rgb(0,0,0)" stroke="none">21.06</tspan></tspan></tspan></text>
 <text class="TextShape" transform="rotate(-90 17476 12058)"><tspan class="TextParagraph" font-family="Liberation Sans, sans-serif" font-size="388px" font-weight="400"><tspan class="TextPosition" x="17476" y="12058"><tspan fill="rgb(0,0,0)" stroke="none">28.06</tspan></tspan></tspan></text>
 <text class="TextShape" transform="rotate(-90 18446 12058)"><tspan class="TextParagraph" font-family="Liberation Sans, sans-serif" font-size="388px" font-weight="400"><tspan class="TextPosition" x="18446" y="12058"><tspan fill="rgb(0,0,0)" stroke="none">05.07</tspan></tspan></tspan></text>
 <text class="TextShape" transform="rotate(-90 19416 12058)"><tspan class="TextParagraph" font-family="Liberation Sans, sans-serif" font-size="388px" font-weight="400"><tspan class="TextPosition" x="19416" y="12058"><tspan fill="rgb(0,0,0)" stroke="none">12.07</tspan></tspan></tspan></text>
 <text class="TextShape" transform="rotate(-90 20387 12058)"><tspan class="TextParagraph" font-family="Liberation Sans, sans-serif" font-size="388px" font-weight="400"><tspan class="TextPosition" x="20387" y="12058"><tspan fill="rgb(0,0,0)" stroke="none">19.07</tspan></tspan></tspan></text>
 <text class="TextShape" transform="rotate(-90 21357 12058)"><tspan class="TextParagraph" font-family="Liberation Sans, sans-serif" font-size="388px" font-weight="400"><tspan class="TextPosition" x="21357" y="12058"><tspan fill="rgb(0,0,0)" stroke="none">26.07</tspan></tspan></tspan></text>
 <text class="TextShape" transform="rotate(-90 22327 12058)"><tspan class="TextParagraph" font-family="Liberation Sans, sans-serif" font-size="388px" font-weight="400"><tspan class="TextPosition" x="22327" y="12058"><tspan fill="rgb(0,0,0)" stroke="none">02.08</tspan></tspan></tspan></text>
 <text class="TextShape" transform="rotate(-90 23298 12058)"><tspan class="TextParagraph" font-family="Liberation Sans, sans-serif" font-size="388px" font-weight="400"><tspan class="TextPosition" x="23298" y="12058"><tspan fill="rgb(0,0,0)" stroke="none">09.08</tspan></tspan></tspan></text>
 <text class="TextShape"><tspan class="TextParagraph" font-family="Liberation Sans, sans-serif" font-size="388px" font-weight="400"><tspan class="TextPosition" x="1295" y="10982"><tspan fill="rgb(0,0,0)" stroke="none">0</tspan></tspan></tspan></text>
 <text class="TextShape"><tspan class="TextParagraph" font-family="Liberation Sans, sans-serif" font-size="388px" font-weight="400"><tspan class="TextPosition" x="554" y="10065"><tspan fill="rgb(0,0,0)" stroke="none">2 000</tspan></tspan></tspan></text>
 <text class="TextShape"><tspan class="TextParagraph" font-family="Liberation Sans, sans-serif" font-size="388px" font-weight="400"><tspan class="TextPosition" x="554" y="9149"><tspan fill="rgb(0,0,0)" stroke="none">4 000</tspan></tspan></tspan></text>
 <text class="TextShape"><tspan class="TextParagraph" font-family="Liberation Sans, sans-serif" font-size="388px" font-weight="400"><tspan class="TextPosition" x="554" y="8232"><tspan fill="rgb(0,0,0)" stroke="none">6 000</tspan></tspan></tspan></text>
 <text class="TextShape"><tspan class="TextParagraph" font-family="Liberation Sans, sans-serif" font-size="388px" font-weight="400"><tspan class="TextPosition" x="554" y="7316"><tspan fill="rgb(0,0,0)" stroke="none">8 000</tspan></tspan></tspan></text>
 <text class="TextShape"><tspan class="TextParagraph" font-family="Liberation Sans, sans-serif" font-size="388px" font-weight="400"><tspan class="TextPosition" x="343" y="6400"><tspan fill="rgb(0,0,0)" stroke="none">10 000</tspan></tspan></tspan></text>
 <text class="TextShape"><tspan class="TextParagraph" font-family="Liberation Sans, sans-serif" font-size="388px" font-weight="400"><tspan class="TextPosition" x="343" y="5483"><tspan fill="rgb(0,0,0)" stroke="none">12 000</tspan></tspan></tspan></text>
 <text class="TextShape"><tspan class="TextParagraph" font-family="Liberation Sans, sans-serif" font-size="388px" font-weight="400"><tspan class="TextPosition" x="343" y="4567"><tspan fill="rgb(0,0,0)" stroke="none">14 000</tspan></tspan></tspan></text>
 <text class="TextShape"><tspan class="TextParagraph" font-family="Liberation Sans, sans-serif" font-size="388px" font-weight="400"><tspan class="TextPosition" x="343" y="3650"><tspan fill="rgb(0,0,0)" stroke="none">16 000</tspan></tspan></tspan></text>
 <text class="TextShape"><tspan class="TextParagraph" font-family="Liberation Sans, sans-serif" font-size="388px" font-weight="400"><tspan class="TextPosition" x="343" y="2734"><tspan fill="rgb(0,0,0)" stroke="none">18 000</tspan></tspan></tspan></text>
 <text class="TextShape"><tspan class="TextParagraph" font-family="Liberation Sans, sans-serif" font-size="388px" font-weight="400"><tspan class="TextPosition" x="343" y="1818"><tspan fill="rgb(0,0,0)" stroke="none">20 000</tspan></tspan></tspan></text>
 <text class="TextShape"><tspan class="TextParagraph" font-family="Liberation Sans, sans-serif" font-size="494px" font-weight="700"><tspan class="TextPosition" x="414" y="698"><tspan fill="rgb(0,0,0)" stroke="none">Česká Republika</tspan></tspan></tspan></text>
 <path fill="none" stroke="rgb(255,191,0)" stroke-width="80" stroke-linejoin="round" d="M 998,1208 L 1798,1208"/>
 <path fill="none" stroke="rgb(85,48,141)" stroke-width="80" stroke-linejoin="round" d="M 8932,1208 L 9732,1208"/>
 <path fill="none" stroke="rgb(0,169,51)" stroke-width="80" stroke-linejoin="round" d="M 16082,1208 L 16882,1208"/>
 <text class="TextShape"><tspan class="TextParagraph" font-family="Liberation Sans, sans-serif" font-size="494px" font-weight="400"><tspan class="TextPosition" x="1906" y="1377"><tspan fill="rgb(0,0,0)" stroke="none">celkový počet infikovaných</tspan></tspan></tspan></text>
 <text class="TextShape"><tspan class="TextParagraph" font-family="Liberation Sans, sans-serif" font-size="494px" font-weight="400"><tspan class="TextPosition" x="9840" y="1377"><tspan fill="rgb(0,0,0)" stroke="none">počet aktivních případů</tspan></tspan></tspan></text>
 <text class="TextShape"><tspan class="TextParagraph" font-family="Liberation Sans, sans-serif" font-size="494px" font-weight="400"><tspan class="TextPosition" x="16990" y="1377"><tspan fill="rgb(0,0,0)" stroke="none">celkový počet vyléčených</tspan></tspan></tspan></text>
</svg>