<?xml version="1.0" encoding="UTF-8"?>
<!DOCTYPE svg PUBLIC "-//W3C//DTD SVG 1.1//EN" "http://www.w3.org/Graphics/SVG/1.1/DTD/svg11.dtd">
<svg width="236mm" height="161mm" viewBox="0 0 23600 16100" version="1.1" xmlns="http://www.w3.org/2000/svg" xmlns:xlink="http://www.w3.org/1999/xlink" stroke-width="28.222" stroke-linejoin="round" xml:space="preserve">
 <path fill="rgb(255,255,255)" stroke="none" d="M 11801,16126 L 0,16126 0,0 23601,0 23601,16126 11801,16126 Z"/>
 <path fill="none" stroke="rgb(179,179,179)" stroke-linejoin="round" d="M 10781,14425 L 1714,14425 1714,1595 19847,1595 19847,14425 10781,14425 Z"/>
 <path fill="none" stroke="rgb(179,179,179)" stroke-linejoin="round" d="M 19847,14424 L 1714,14424"/>
 <path fill="none" stroke="rgb(179,179,179)" stroke-linejoin="round" d="M 19847,13140 L 1714,13140"/>
 <path fill="none" stroke="rgb(179,179,179)" stroke-linejoin="round" d="M 19847,11857 L 1714,11857"/>
 <path fill="none" stroke="rgb(179,179,179)" stroke-linejoin="round" d="M 19847,10574 L 1714,10574"/>
 <path fill="none" stroke="rgb(179,179,179)" stroke-linejoin="round" d="M 19847,9291 L 1714,9291"/>
 <path fill="none" stroke="rgb(179,179,179)" stroke-linejoin="round" d="M 19847,8009 L 1714,8009"/>
 <path fill="none" stroke="rgb(179,179,179)" stroke-linejoin="round" d="M 19847,6726 L 1714,6726"/>
 <path fill="none" stroke="rgb(179,179,179)" stroke-linejoin="round" d="M 19847,5443 L 1714,5443"/>
 <path fill="none" stroke="rgb(179,179,179)" stroke-linejoin="round" d="M 19847,4160 L 1714,4160"/>
 <path fill="none" stroke="rgb(179,179,179)" stroke-linejoin="round" d="M 19847,2877 L 1714,2877"/>
 <path fill="none" stroke="rgb(179,179,179)" stroke-linejoin="round" d="M 19847,1594 L 1714,1594"/>
 <path fill="none" stroke="rgb(179,179,179)" stroke-linejoin="round" d="M 1714,14574 L 1714,14424"/>
 <path fill="none" stroke="rgb(179,179,179)" stroke-linejoin="round" d="M 1714,14574 L 1714,14424"/>
 <path fill="none" stroke="rgb(179,179,179)" stroke-linejoin="round" d="M 2527,14574 L 2527,14424"/>
 <path fill="none" stroke="rgb(179,179,179)" stroke-linejoin="round" d="M 2527,14574 L 2527,14424"/>
 <path fill="none" stroke="rgb(179,179,179)" stroke-linejoin="round" d="M 3341,14574 L 3341,14424"/>
 <path fill="none" stroke="rgb(179,179,179)" stroke-linejoin="round" d="M 3341,14574 L 3341,14424"/>
 <path fill="none" stroke="rgb(179,179,179)" stroke-linejoin="round" d="M 4155,14574 L 4155,14424"/>
 <path fill="none" stroke="rgb(179,179,179)" stroke-linejoin="round" d="M 4155,14574 L 4155,14424"/>
 <path fill="none" stroke="rgb(179,179,179)" stroke-linejoin="round" d="M 4968,14574 L 4968,14424"/>
 <path fill="none" stroke="rgb(179,179,179)" stroke-linejoin="round" d="M 4968,14574 L 4968,14424"/>
 <path fill="none" stroke="rgb(179,179,179)" stroke-linejoin="round" d="M 5782,14574 L 5782,14424"/>
 <path fill="none" stroke="rgb(179,179,179)" stroke-linejoin="round" d="M 5782,14574 L 5782,14424"/>
 <path fill="none" stroke="rgb(179,179,179)" stroke-linejoin="round" d="M 6596,14574 L 6596,14424"/>
 <path fill="none" stroke="rgb(179,179,179)" stroke-linejoin="round" d="M 6596,14574 L 6596,14424"/>
 <path fill="none" stroke="rgb(179,179,179)" stroke-linejoin="round" d="M 7409,14574 L 7409,14424"/>
 <path fill="none" stroke="rgb(179,179,179)" stroke-linejoin="round" d="M 7409,14574 L 7409,14424"/>
 <path fill="none" stroke="rgb(179,179,179)" stroke-linejoin="round" d="M 8223,14574 L 8223,14424"/>
 <path fill="none" stroke="rgb(179,179,179)" stroke-linejoin="round" d="M 8223,14574 L 8223,14424"/>
 <path fill="none" stroke="rgb(179,179,179)" stroke-linejoin="round" d="M 9037,14574 L 9037,14424"/>
 <path fill="none" stroke="rgb(179,179,179)" stroke-linejoin="round" d="M 9037,14574 L 9037,14424"/>
 <path fill="none" stroke="rgb(179,179,179)" stroke-linejoin="round" d="M 9851,14574 L 9851,14424"/>
 <path fill="none" stroke="rgb(179,179,179)" stroke-linejoin="round" d="M 9851,14574 L 9851,14424"/>
 <path fill="none" stroke="rgb(179,179,179)" stroke-linejoin="round" d="M 10664,14574 L 10664,14424"/>
 <path fill="none" stroke="rgb(179,179,179)" stroke-linejoin="round" d="M 10664,14574 L 10664,14424"/>
 <path fill="none" stroke="rgb(179,179,179)" stroke-linejoin="round" d="M 11478,14574 L 11478,14424"/>
 <path fill="none" stroke="rgb(179,179,179)" stroke-linejoin="round" d="M 11478,14574 L 11478,14424"/>
 <path fill="none" stroke="rgb(179,179,179)" stroke-linejoin="round" d="M 12291,14574 L 12291,14424"/>
 <path fill="none" stroke="rgb(179,179,179)" stroke-linejoin="round" d="M 12291,14574 L 12291,14424"/>
 <path fill="none" stroke="rgb(179,179,179)" stroke-linejoin="round" d="M 13104,14574 L 13104,14424"/>
 <path fill="none" stroke="rgb(179,179,179)" stroke-linejoin="round" d="M 13104,14574 L 13104,14424"/>
 <path fill="none" stroke="rgb(179,179,179)" stroke-linejoin="round" d="M 13918,14574 L 13918,14424"/>
 <path fill="none" stroke="rgb(179,179,179)" stroke-linejoin="round" d="M 13918,14574 L 13918,14424"/>
 <path fill="none" stroke="rgb(179,179,179)" stroke-linejoin="round" d="M 14732,14574 L 14732,14424"/>
 <path fill="none" stroke="rgb(179,179,179)" stroke-linejoin="round" d="M 14732,14574 L 14732,14424"/>
 <path fill="none" stroke="rgb(179,179,179)" stroke-linejoin="round" d="M 15545,14574 L 15545,14424"/>
 <path fill="none" stroke="rgb(179,179,179)" stroke-linejoin="round" d="M 15545,14574 L 15545,14424"/>
 <path fill="none" stroke="rgb(179,179,179)" stroke-linejoin="round" d="M 16359,14574 L 16359,14424"/>
 <path fill="none" stroke="rgb(179,179,179)" stroke-linejoin="round" d="M 16359,14574 L 16359,14424"/>
 <path fill="none" stroke="rgb(179,179,179)" stroke-linejoin="round" d="M 17173,14574 L 17173,14424"/>
 <path fill="none" stroke="rgb(179,179,179)" stroke-linejoin="round" d="M 17173,14574 L 17173,14424"/>
 <path fill="none" stroke="rgb(179,179,179)" stroke-linejoin="round" d="M 17987,14574 L 17987,14424"/>
 <path fill="none" stroke="rgb(179,179,179)" stroke-linejoin="round" d="M 17987,14574 L 17987,14424"/>
 <path fill="none" stroke="rgb(179,179,179)" stroke-linejoin="round" d="M 18800,14574 L 18800,14424"/>
 <path fill="none" stroke="rgb(179,179,179)" stroke-linejoin="round" d="M 18800,14574 L 18800,14424"/>
 <path fill="none" stroke="rgb(179,179,179)" stroke-linejoin="round" d="M 19614,14574 L 19614,14424"/>
 <path fill="none" stroke="rgb(179,179,179)" stroke-linejoin="round" d="M 19614,14574 L 19614,14424"/>
 <path fill="none" stroke="rgb(179,179,179)" stroke-linejoin="round" d="M 1714,14424 L 19847,14424"/>
 <path fill="none" stroke="rgb(179,179,179)" stroke-linejoin="round" d="M 1564,14424 L 1714,14424"/>
 <path fill="none" stroke="rgb(179,179,179)" stroke-linejoin="round" d="M 1564,14424 L 1714,14424"/>
 <path fill="none" stroke="rgb(179,179,179)" stroke-linejoin="round" d="M 1564,13140 L 1714,13140"/>
 <path fill="none" stroke="rgb(179,179,179)" stroke-linejoin="round" d="M 1564,13140 L 1714,13140"/>
 <path fill="none" stroke="rgb(179,179,179)" stroke-linejoin="round" d="M 1564,11857 L 1714,11857"/>
 <path fill="none" stroke="rgb(179,179,179)" stroke-linejoin="round" d="M 1564,11857 L 1714,11857"/>
 <path fill="none" stroke="rgb(179,179,179)" stroke-linejoin="round" d="M 1564,10574 L 1714,10574"/>
 <path fill="none" stroke="rgb(179,179,179)" stroke-linejoin="round" d="M 1564,10574 L 1714,10574"/>
 <path fill="none" stroke="rgb(179,179,179)" stroke-linejoin="round" d="M 1564,9291 L 1714,9291"/>
 <path fill="none" stroke="rgb(179,179,179)" stroke-linejoin="round" d="M 1564,9291 L 1714,9291"/>
 <path fill="none" stroke="rgb(179,179,179)" stroke-linejoin="round" d="M 1564,8009 L 1714,8009"/>
 <path fill="none" stroke="rgb(179,179,179)" stroke-linejoin="round" d="M 1564,8009 L 1714,8009"/>
 <path fill="none" stroke="rgb(179,179,179)" stroke-linejoin="round" d="M 1564,6726 L 1714,6726"/>
 <path fill="none" stroke="rgb(179,179,179)" stroke-linejoin="round" d="M 1564,6726 L 1714,6726"/>
 <path fill="none" stroke="rgb(179,179,179)" stroke-linejoin="round" d="M 1564,5443 L 1714,5443"/>
 <path fill="none" stroke="rgb(179,179,179)" stroke-linejoin="round" d="M 1564,5443 L 1714,5443"/>
 <path fill="none" stroke="rgb(179,179,179)" stroke-linejoin="round" d="M 1564,4160 L 1714,4160"/>
 <path fill="none" stroke="rgb(179,179,179)" stroke-linejoin="round" d="M 1564,4160 L 1714,4160"/>
 <path fill="none" stroke="rgb(179,179,179)" stroke-linejoin="round" d="M 1564,2877 L 1714,2877"/>
 <path fill="none" stroke="rgb(179,179,179)" stroke-linejoin="round" d="M 1564,2877 L 1714,2877"/>
 <path fill="none" stroke="rgb(179,179,179)" stroke-linejoin="round" d="M 1564,1594 L 1714,1594"/>
 <path fill="none" stroke="rgb(179,179,179)" stroke-linejoin="round" d="M 1564,1594 L 1714,1594"/>
 <path fill="none" stroke="rgb(179,179,179)" stroke-linejoin="round" d="M 1714,14424 L 1714,1594"/>
 <path fill="none" stroke="rgb(0,69,134)" stroke-width="80" stroke-linejoin="round" d="M 2585,14424 L 2702,14424 2818,14424 2934,14424 3050,14424 3167,14424 3283,14424 3399,10284 3515,10284 3632,5036 3748,5965 3864,2140 3980,6235 4096,6957 4213,6310 4329,4521 4445,4380 4561,3640 4678,6290 4794,6261 4910,6816 5026,6749 5143,6327 5259,6325 5375,6745 5491,6959 5608,7725 5724,8132 5840,8138 5956,8309 6073,8179 6189,8352 6305,8803 6421,8998 6538,9230 6654,9221 6770,9261 6886,9283 7003,9399 7119,9585 7235,9633 7351,9626 7468,9712 7584,9701 7700,9657 7816,9738 7933,9716 8049,9721 8165,9665 8281,9707 8398,9737 8514,9735 8630,9710 8746,9603 8862,9607 8979,9607 9095,9571 9211,9563 9327,9585 9444,9514 9560,9530 9676,9531 9792,9526 9909,9509 10025,9550 10141,9516 10257,9532 10374,9535 10490,9467 10606,9446 10722,9448 10839,9449 10955,9476 11071,9505 11187,9522 11304,9554 11420,9582 11536,9579 11652,9626 11769,9631 11884,9642 12000,9645 12116,9663 12233,9704 12349,9738 12465,9748 12581,9773 12698,9763 12814,9819 12930,9833 13046,9864 13162,9869 13279,9872 13395,9888 13511,9896 13627,9910 13744,9913 13860,9917 13976,9946 14092,9978 14209,9963 14325,9944 14441,9932 14557,9918 14674,9941 14790,9969 14906,9987 15022,9995 15139,10017 15255,10018 15371,10071 15487,10113 15604,10170 15720,10156 15836,10195 15952,10245 16069,10268 16185,10332 16301,10426 16417,10531 16534,10587 16650,10613 16766,10642 16882,10683 16999,10695 17115,10731 17231,10743 17347,10758 17464,10782 17580,10779 17696,10798 17812,10782 17928,10813 18045,10810 18161,10808 18277,10826 18393,10862 18510,10851 18626,10857 18742,10877 18858,10890 18975,10910 19091,10993 19207,11007 19323,11042 19440,11114 19556,11142 19672,11158 19788,11198"/>
 <path fill="none" stroke="rgb(255,66,14)" stroke-width="80" stroke-linejoin="round" d="M 2469,14424 L 2585,14424 2702,14424 2818,14424 2934,14424 3050,14424 3167,14424 3283,14424 3399,10284 3515,11294 3632,10194 3748,6235 3864,6235 3980,8314 4096,8845 4213,7535 4329,6972 4445,5852 4561,7214 4678,7647 4794,7590 4910,7665 5026,7469 5143,7245 5259,7598 5375,7826 5491,8118 5608,8620 5724,8548 5840,8523 5956,8877 6073,8535 6189,8903 6305,9123 6421,9460 6538,9360 6654,9474 6770,9462 6886,9568 7003,9631 7119,9723 7235,9714 7351,9755 7468,9765 7584,9741 7700,9738 7816,9896 7933,9800 8049,9762 8165,9764 8281,9812 8398,9826 8514,9800 8630,9746 8746,9660 8862,9659 8979,9640 9095,9598 9211,9602 9327,9632 9444,9580 9560,9564 9676,9543 9792,9542 9909,9533 10025,9597 10141,9564 10257,9567 10374,9562 10490,9478 10606,9464 10722,9480 10839,9476 10955,9505 11071,9553 11187,9554 11304,9582 11420,9594 11536,9641 11652,9660 11769,9671 11884,9660 12000,9677 12116,9704 12233,9738 12349,9763 12465,9773 12581,9792 12698,9791 12814,9847 12930,9850 13046,9883 13162,9885 13279,9902 13395,9924 13511,9923 13627,9926 13744,9931 13860,9946 13976,9978 14092,10002 14209,9996 14325,9958 14441,9969 14557,9941 14674,9956 14790,9987 14906,10007 15022,10017 15139,10067 15255,10071 15371,10088 15487,10133 15604,10180 15720,10207 15836,10245 15952,10280 16069,10332 16185,10426 16301,10531 16417,10598 16534,10635 16650,10642 16766,10683 16882,10726 16999,10731 17115,10753 17231,10758 17347,10792 17464,10819 17580,10808 17696,10821 17812,10813 17928,10830 18045,10828 18161,10836 18277,10862 18393,10898 18510,10885 18626,10886 18742,10899 18858,10929 18975,10966 19091,11051 19207,11060 19323,11105 19440,11142 19556,11166 19672,11198 19788,11256"/>
 <path fill="none" stroke="rgb(255,211,32)" stroke-width="80" stroke-linejoin="round" d="M 2353,14424 L 2469,14424 2585,14424 2702,14424 2818,14424 2934,14424 3050,14424 3167,14424 3283,14424 3399,11294 3515,13014 3632,10329 3748,8964 3864,8314 3980,9859 4096,9687 4213,9239 4329,8063 4445,8692 4561,8416 4678,8749 4794,8352 4910,8299 5026,8257 5143,8373 5259,8558 5375,8850 5491,8961 5608,9003 5724,8908 5840,9071 5956,9193 6073,9069 6189,9217 6305,9575 6421,9584 6538,9607 6654,9667 6770,9737 6886,9792 7003,9767 7119,9802 7235,9840 7351,9807 7468,9804 7584,9820 7700,9896 7816,9976 7933,9840 8049,9859 8165,9868 8281,9899 8398,9890 8514,9835 8630,9801 8746,9711 8862,9692 8979,9667 9095,9636 9211,9649 9327,9697 9444,9614 9560,9576 9676,9559 9792,9566 9909,9581 10025,9644 10141,9598 10257,9594 10374,9573 10490,9495 10606,9496 10722,9507 10839,9505 10955,9553 11071,9585 11187,9582 11304,9594 11420,9656 11536,9675 11652,9701 11769,9689 11884,9692 12000,9718 12116,9738 12233,9763 12349,9787 12465,9792 12581,9819 12698,9819 12814,9864 12930,9869 13046,9899 13162,9915 13279,9937 13395,9950 13511,9940 13627,9944 13744,9959 13860,9978 13976,10002 14092,10035 14209,10010 14325,9995 14441,9993 14557,9956 14674,9974 14790,10007 14906,10029 15022,10067 15139,10120 15255,10088 15371,10109 15487,10144 15604,10231 15720,10256 15836,10280 15952,10343 16069,10426 16185,10531 16301,10598 16417,10645 16534,10663 16650,10683 16766,10726 16882,10762 16999,10753 17115,10768 17231,10792 17347,10829 17464,10848 17580,10831 17696,10853 17812,10830 17928,10847 18045,10855 18161,10872 18277,10898 18393,10931 18510,10914 18626,10909 18742,10938 18858,10984 18975,11024 19091,11103 19207,11122 19323,11134 19440,11166 19556,11207 19672,11256 19788,11314"/>
 <path fill="none" stroke="rgb(87,157,28)" stroke-width="80" stroke-linejoin="round" d="M 2237,14424 L 2353,14424 2469,14424 2585,14424 2702,14424 2818,14424 2934,14424 3050,14424 3167,14424 3283,14424 3399,13014 3515,13059 3632,11694 3748,10350 3864,9859 3980,10548 4096,10859 4213,9999 4329,10171 4445,9648 4561,9394 4678,9383 4794,8922 4910,8993 5026,9226 5143,9224 5259,9469 5375,9595 5491,9322 5608,9336 5724,9420 5840,9376 5956,9668 6073,9374 6189,9661 6305,9696 6421,9820 6538,9794 6654,9931 6770,9954 6886,9924 7003,9847 7119,9926 7235,9892 7351,9846 7468,9882 7584,9976 7700,9976 7816,10014 7933,9935 8049,9961 8165,9954 8281,9962 8398,9925 8514,9890 8630,9851 8746,9744 8862,9719 8979,9704 9095,9683 9211,9713 9327,9730 9444,9625 9560,9592 9676,9583 9792,9614 9909,9628 10025,9678 10141,9626 10257,9605 10374,9590 10490,9527 10606,9523 10722,9536 10839,9553 10955,9585 11071,9613 11187,9594 11304,9656 11420,9690 11536,9715 11652,9719 11769,9721 11884,9733 12000,9752 12116,9763 12233,9787 12349,9806 12465,9819 12581,9847 12698,9836 12814,9883 12930,9885 13046,9929 13162,9951 13279,9964 13395,9967 13511,9957 13627,9972 13744,9991 13860,10002 13976,10035 14092,10049 14209,10047 14325,10019 14441,10007 14557,9974 14674,9995 14790,10029 14906,10080 15022,10120 15139,10137 15255,10109 15371,10119 15487,10195 15604,10280 15720,10292 15836,10343 15952,10437 16069,10531 16185,10598 16301,10645 16417,10674 16534,10704 16650,10726 16766,10762 16882,10784 16999,10768 17115,10802 17231,10829 17347,10858 17464,10871 17580,10862 17696,10869 17812,10847 17928,10875 18045,10891 18161,10908 18277,10931 18393,10960 18510,10936 18626,10947 18742,10993 18858,11042 18975,11077 19091,11165 19207,11151 19323,11158 19440,11207 19556,11264 19672,11314 19788,11367"/>
 <path fill="none" stroke="rgb(126,0,33)" stroke-width="80" stroke-linejoin="round" d="M 2120,14424 L 2237,14424 2353,14424 2469,14424 2585,14424 2702,14424 2818,14424 2934,14424 3050,14424 3167,14424 3283,14424 3399,13059 3515,13514 3632,12387 3748,11381 3864,10548 3980,11507 4096,11382 4213,11465 4329,10881 4445,10426 4561,9956 4678,9856 4794,9545 4910,9847 5026,9958 5143,10032 5259,10132 5375,9914 5491,9635 5608,9808 5724,9705 5840,9834 5956,9938 6073,9804 6189,9780 6305,9927 6421,9999 6538,10051 6654,10138 6770,10081 6886,10001 7003,9969 7119,9976 7235,9930 7351,9924 7468,10035 7584,10054 7700,10014 7816,10106 7933,10035 8049,10045 8165,10016 8281,9996 8398,9978 8514,9938 8630,9883 8746,9770 8862,9756 8979,9751 9095,9747 9211,9747 9327,9741 9444,9641 9560,9615 9676,9630 9792,9661 9909,9662 10025,9705 10141,9637 10257,9622 10374,9621 10490,9554 10606,9551 10722,9584 10839,9585 10955,9613 11071,9624 11187,9656 11304,9690 11420,9730 11536,9733 11652,9750 11769,9762 11884,9767 12000,9777 12116,9787 12233,9806 12349,9833 12465,9847 12581,9864 12698,9855 12814,9899 12930,9915 13046,9964 13162,9977 13279,9980 13395,9984 13511,9986 13627,10004 13744,10015 13860,10035 13976,10049 14092,10085 14209,10070 14325,10033 14441,10025 14557,9995 14674,10017 14790,10080 14906,10133 15022,10137 15139,10158 15255,10119 15371,10171 15487,10245 15604,10316 15720,10355 15836,10437 15952,10542 16069,10598 16185,10645 16301,10674 16417,10715 16534,10747 16650,10762 16766,10784 16882,10799 16999,10802 17115,10839 17231,10858 17347,10880 17464,10901 17580,10878 17696,10886 17812,10875 17928,10910 18045,10926 18161,10941 18277,10960 18393,10982 18510,10974 18626,11002 18742,11051 18858,11094 18975,11139 19091,11193 19207,11175 19323,11198 19440,11264 19556,11322 19672,11367 19788,11404"/>
 <path fill="none" stroke="rgb(131,202,255)" stroke-width="80" stroke-linejoin="round" d="M 2004,14424 L 2120,14424 2237,14424 2353,14424 2469,14424 2585,14424 2702,14424 2818,14424 2934,14424 3050,14424 3167,14424 3283,14424 3399,13514 3515,13745 3632,12902 3748,11840 3864,11507 3980,11935 4096,12390 4213,11959 4329,11458 4445,10872 4561,10375 4678,10374 4794,10312 4910,10491 5026,10651 5143,10620 5259,10415 5375,10191 5491,10079 5608,10071 5724,10133 5840,10095 5956,10321 6073,9920 6189,10006 6305,10101 6421,10245 6538,10253 6654,10260 6770,10155 6886,10119 7003,10019 7119,10014 7235,10006 7351,10075 7468,10113 7584,10092 7700,10106 7816,10202 7933,10118 8049,10106 8165,10049 8281,10048 8398,10025 8514,9970 8630,9908 8746,9807 8862,9802 8979,9814 9095,9780 9211,9758 9327,9757 9444,9665 9560,9662 9676,9677 9792,9694 9909,9690 10025,9716 10141,9653 10257,9653 10374,9648 10490,9582 10606,9599 10722,9615 10839,9613 10955,9624 11071,9686 11187,9690 11304,9730 11420,9748 11536,9765 11652,9790 11769,9795 11884,9791 12000,9802 12116,9806 12233,9833 12349,9861 12465,9864 12581,9883 12698,9872 12814,9929 12930,9951 13046,9991 13162,9993 13279,9998 13395,10012 13511,10017 13627,10029 13744,10048 13860,10049 13976,10085 14092,10108 14209,10084 14325,10050 14441,10045 14557,10017 14674,10067 14790,10133 14906,10150 15022,10158 15139,10168 15255,10171 15371,10221 15487,10280 15604,10378 15720,10449 15836,10542 15952,10608 16069,10645 16185,10674 16301,10715 16417,10757 16534,10783 16650,10784 16766,10799 16882,10833 16999,10839 17115,10868 17231,10880 17347,10911 17464,10917 17580,10895 17696,10913 17812,10910 17928,10945 18045,10959 18161,10969 18277,10982 18393,11020 18510,11029 18626,11059 18742,11103 18858,11156 18975,11168 19091,11217 19207,11215 19323,11256 19440,11322 19556,11375 19672,11404 19788,11427"/>
 <path fill="none" stroke="rgb(49,64,4)" stroke-width="80" stroke-linejoin="round" d="M 1888,14424 L 2004,14424 2120,14424 2237,14424 2353,14424 2469,14424 2585,14424 2702,14424 2818,14424 2934,14424 3050,14424 3167,14424 3283,14424 3399,13745 3515,13916 3632,13132 3748,12479 3864,11935 3980,12760 4096,12729 4213,12360 4329,11789 4445,11205 4561,10834 4678,11010 4794,10891 4910,11102 5026,11156 5143,10871 5259,10661 5375,10584 5491,10327 5608,10466 5724,10378 5840,10464 5956,10423 6073,10139 6189,10178 6305,10341 6421,10438 6538,10372 6654,10331 6770,10269 6886,10167 7003,10056 7119,10089 7235,10155 7351,10152 7468,10150 7584,10182 7700,10202 7816,10282 7933,10178 8049,10139 8165,10101 8281,10095 8398,10056 8514,9994 8630,9944 8746,9852 8862,9864 8979,9846 9095,9791 9211,9773 9327,9779 9444,9711 9560,9709 9676,9710 9792,9721 9909,9700 10025,9732 10141,9684 10257,9679 10374,9675 10490,9630 10606,9631 10722,9643 10839,9624 10955,9686 11071,9720 11187,9730 11304,9748 11420,9779 11536,9805 11652,9824 11769,9820 11884,9816 12000,9820 12116,9833 12233,9861 12349,9878 12465,9883 12581,9899 12698,9902 12814,9964 12930,9977 13046,10007 13162,10011 13279,10026 13395,10044 13511,10042 13627,10061 13744,10062 13860,10085 13976,10108 14092,10123 14209,10101 14325,10071 14441,10067 14557,10067 14674,10120 14790,10150 14906,10170 15022,10168 15139,10219 15255,10221 15371,10257 15487,10343 15604,10471 15720,10553 15836,10608 15952,10656 16069,10674 16185,10715 16301,10757 16417,10793 16534,10804 16650,10799 16766,10833 16882,10869 16999,10868 17115,10890 17231,10911 17347,10927 17464,10934 17580,10923 17696,10948 17812,10945 17928,10978 18045,10988 18161,10991 18277,11020 18393,11073 18510,11086 18626,11112 18742,11165 18858,11185 18975,11191 19091,11256 19207,11272 19323,11314 19440,11375 19556,11412 19672,11427 19788,11445"/>
 <path fill="none" stroke="rgb(174,207,0)" stroke-width="80" stroke-linejoin="round" d="M 1772,14424 L 1888,14424 2004,14424 2120,14424 2237,14424 2353,14424 2469,14424 2585,14424 2702,14424 2818,14424 2934,14424 3050,14424 3167,14424 3283,14424 3399,13916 3515,13993 3632,13451 3748,12764 3864,12760 3980,13037 4096,13005 4213,12591 4329,12036 4445,11570 4561,11398 4678,11491 4794,11440 4910,11546 5026,11372 5143,11089 5259,11010 5375,10802 5491,10699 5608,10691 5724,10722 5840,10563 5956,10618 6073,10306 6189,10414 6305,10530 6421,10551 6538,10441 6654,10440 6770,10315 6886,10203 7003,10130 7119,10235 7235,10231 7351,10189 7468,10239 7584,10277 7700,10282 7816,10340 7933,10210 8049,10189 8165,10148 8281,10126 8398,10080 8514,10029 8630,9988 8746,9914 8862,9896 8979,9857 9095,9806 9211,9796 9327,9825 9444,9757 9560,9742 9676,9737 9792,9732 9909,9716 10025,9763 10141,9710 10257,9706 10374,9722 10490,9661 10606,9658 10722,9654 10839,9686 10955,9720 11071,9760 11187,9748 11304,9779 11420,9819 11536,9838 11652,9848 11769,9844 11884,9834 12000,9847 12116,9861 12233,9878 12349,9896 12465,9899 12581,9929 12698,9937 12814,9991 12930,9993 13046,10024 13162,10039 13279,10057 13395,10068 13511,10074 13627,10075 13744,10098 13860,10108 13976,10123 14092,10140 14209,10122 14325,10093 14441,10117 14557,10120 14674,10137 14790,10170 14906,10180 15022,10219 15139,10268 15255,10257 15371,10320 15487,10437 15604,10575 15720,10619 15836,10656 15952,10685 16069,10715 16185,10757 16301,10793 16417,10815 16534,10819 16650,10833 16766,10869 16882,10898 16999,10890 17115,10921 17231,10927 17347,10944 17464,10961 17580,10957 17696,10983 17812,10978 17928,11006 18045,11010 18161,11029 18277,11073 18393,11130 18510,11138 18626,11173 18742,11193 18858,11208 18975,11231 19091,11313 19207,11330 19323,11367 19440,11412 19556,11435 19672,11445 19788,11481"/>
 <path fill="none" stroke="rgb(75,31,111)" stroke-width="80" stroke-linejoin="round" d="M 1772,14424 L 1888,14424 2004,14424 2120,14424 2237,14424 2353,14424 2469,14424 2585,14424 2702,14424 2818,14424 2934,14424 3050,14424 3167,14424 3283,14424 3399,13993 3515,14099 3632,13594 3748,13314 3864,13037 3980,13263 4096,13163 4213,12763 4329,12306 4445,12019 4561,11824 4678,11946 4794,11839 4910,11736 5026,11559 5143,11398 5259,11205 5375,11131 5491,10911 5608,11009 5724,10815 5840,10751 5956,10766 6073,10535 6189,10599 6305,10640 6421,10617 6538,10547 6654,10485 6770,10350 6886,10274 7003,10275 7119,10309 7235,10267 7351,10277 7468,10332 7584,10355 7700,10340 7816,10371 7933,10260 8049,10235 8165,10178 8281,10149 8398,10115 8514,10073 8630,10047 8746,9946 8862,9907 8979,9872 9095,9829 9211,9841 9327,9870 9444,9790 9560,9769 9676,9748 9792,9748 9909,9747 10025,9788 10141,9737 10257,9753 10374,9753 10490,9689 10606,9670 10722,9716 10839,9720 10955,9760 11071,9777 11187,9779 11304,9819 11420,9853 11536,9862 11652,9872 11769,9862 11884,9861 12000,9875 12116,9878 12233,9896 12349,9913 12465,9929 12581,9964 12698,9964 12814,10007 12930,10011 13046,10052 13162,10070 13279,10081 13395,10100 13511,10088 13627,10111 13744,10121 13860,10123 13976,10140 14092,10160 14209,10143 14325,10142 14441,10170 14557,10137 14674,10158 14790,10180 14906,10231 15022,10268 15139,10304 15255,10320 15371,10415 15487,10542 15604,10641 15720,10667 15836,10685 15952,10725 16069,10757 16185,10793 16301,10815 16417,10829 16534,10853 16650,10869 16766,10898 16882,10920 16999,10921 17115,10937 17231,10944 17347,10971 17464,10996 17580,10992 17696,11015 17812,11006 17928,11028 18045,11047 18161,11082 18277,11130 18393,11181 18510,11199 18626,11201 18742,11217 18858,11248 18975,11289 19091,11370 19207,11382 19323,11404 19440,11435 19556,11453 19672,11481 19788,11529"/>
 <path fill="none" stroke="rgb(255,149,14)" stroke-width="80" stroke-linejoin="round" d="M 1772,14424 L 1888,14424 2004,14424 2120,14424 2237,14424 2353,14424 2469,14424 2585,14424 2702,14424 2818,14424 2934,14424 3050,14424 3167,14424 3283,14424 3399,14099 3515,14147 3632,13869 3748,13499 3864,13263 3980,13392 4096,13282 4213,12951 4329,12639 4445,12357 4561,12228 4678,12278 4794,12009 4910,11901 5026,11825 5143,11571 5259,11497 5375,11318 5491,11210 5608,11095 5724,10991 5840,10894 5956,10969 6073,10714 6189,10708 6305,10705 6421,10718 6538,10591 6654,10518 6770,10419 6886,10414 7003,10348 7119,10345 7235,10353 7351,10370 7468,10410 7584,10412 7700,10371 7816,10419 7933,10305 8049,10264 8165,10201 8281,10183 8398,10157 8514,10131 8630,10079 8746,9956 8862,9922 8979,9894 9095,9874 9211,9886 9327,9902 9444,9817 9560,9779 9676,9764 9792,9778 9909,9772 10025,9815 10141,9783 10257,9783 10374,9780 10490,9700 10606,9731 10722,9749 10839,9760 10955,9777 11071,9808 11187,9819 11304,9853 11420,9877 11536,9887 11652,9890 11769,9889 11884,9889 12000,9892 12116,9896 12233,9913 12349,9943 12465,9964 12581,9991 12698,9980 12814,10024 12930,10039 13046,10083 13162,10094 13279,10113 13395,10114 13511,10124 13627,10134 13744,10135 13860,10140 13976,10160 14092,10181 14209,10192 14325,10194 14441,10187 14557,10158 14674,10168 14790,10231 14906,10280 15022,10304 15139,10367 15255,10415 15371,10520 15487,10608 15604,10688 15720,10695 15836,10725 15952,10768 16069,10793 16185,10815 16301,10829 16417,10863 16534,10889 16650,10898 16766,10920 16882,10950 16999,10937 17115,10954 17231,10971 17347,11005 17464,11030 17580,11025 17696,11043 17812,11028 17928,11065 18045,11100 18161,11139 18277,11181 18393,11241 18510,11227 18626,11225 18742,11256 18858,11305 18975,11346 19091,11422 19207,11420 19323,11427 19440,11453 19556,11489 19672,11529 19788,11569"/>
 <path fill="none" stroke="rgb(197,0,11)" stroke-width="80" stroke-linejoin="round" d="M 1772,14424 L 1888,14424 2004,14424 2120,14424 2237,14424 2353,14424 2469,14424 2585,14424 2702,14424 2818,14424 2934,14424 3050,14424 3167,14424 3283,14424 3399,14147 3515,14239 3632,13961 3748,13650 3864,13392 3980,13489 4096,13411 4213,13182 4329,12890 4445,12678 4561,12522 4678,12419 4794,12157 4910,12135 5026,11973 5143,11829 5259,11663 5375,11583 5491,11291 5608,11257 5724,11124 5840,11090 5956,11129 6073,10820 6189,10771 6305,10804 6421,10760 6538,10623 6654,10584 6770,10554 6886,10485 7003,10383 7119,10429 7235,10444 7351,10446 7468,10466 7584,10442 7700,10419 7816,10462 7933,10334 8049,10287 8165,10234 8281,10225 8398,10214 8514,10161 8630,10089 8746,9971 8862,9944 8979,9939 9095,9918 9211,9918 9327,9928 9444,9827 9560,9795 9676,9794 9792,9804 9909,9799 10025,9860 10141,9814 10257,9810 10374,9791 10490,9761 10606,9764 10722,9789 10839,9777 10955,9808 11071,9848 11187,9853 11304,9877 11420,9901 11536,9905 11652,9917 11769,9917 11884,9906 12000,9910 12116,9913 12233,9943 12349,9978 12465,9991 12581,10007 12698,9998 12814,10052 12930,10070 13046,10107 13162,10126 13279,10127 13395,10150 13511,10147 13627,10148 13744,10152 13860,10160 13976,10181 14092,10230 14209,10243 14325,10211 14441,10207 14557,10168 14674,10219 14790,10280 14906,10316 15022,10367 15139,10460 15255,10520 15371,10587 15487,10656 15604,10717 15720,10736 15836,10768 15952,10803 16069,10815 16185,10829 16301,10863 16417,10899 16534,10918 16650,10920 16766,10950 16882,10966 16999,10954 17115,10980 17231,11005 17347,11039 17464,11062 17580,11053 17696,11065 17812,11065 17928,11118 18045,11156 18161,11190 18277,11241 18393,11269 18510,11250 18626,11265 18742,11313 18858,11362 18975,11398 19091,11458 19207,11442 19323,11445 19440,11489 19556,11536 19672,11569 19788,11601"/>
 <path fill="none" stroke="rgb(0,132,209)" stroke-width="80" stroke-linejoin="round" d="M 1772,14424 L 1888,14424 2004,14424 2120,14424 2237,14424 2353,14424 2469,14424 2585,14424 2702,14424 2818,14424 2934,14424 3050,14424 3167,14424 3283,14424 3399,14239 3515,14269 3632,14037 3748,13736 3864,13489 3980,13595 4096,13570 4213,13357 4329,13129 4445,12912 4561,12647 4678,12542 4794,12368 4910,12265 5026,12195 5143,11977 5259,11899 5375,11654 5491,11443 5608,11380 5724,11308 5840,11244 5956,11222 6073,10881 6189,10868 6305,10845 6421,10791 6538,10687 6654,10714 6770,10623 6886,10519 7003,10467 7119,10518 7235,10519 7351,10502 7468,10496 7584,10489 7700,10462 7816,10490 7933,10356 8049,10320 8165,10276 8281,10281 8398,10244 8514,10171 8630,10103 8746,9993 8862,9987 8979,9982 9095,9950 9211,9944 9327,9938 9444,9843 9560,9825 9676,9819 9792,9830 9909,9845 10025,9890 10141,9840 10257,9821 10374,9851 10490,9794 10606,9804 10722,9806 10839,9808 10955,9848 11071,9881 11187,9877 11304,9901 11420,9919 11536,9931 11652,9945 11769,9933 11884,9924 12000,9927 12116,9943 12233,9978 12349,10004 12465,10007 12581,10024 12698,10026 12814,10083 12930,10094 13046,10140 13162,10140 13279,10163 13395,10173 13511,10161 13627,10165 13744,10172 13860,10181 13976,10230 14092,10280 14209,10260 14325,10231 14441,10217 14557,10219 14674,10268 14790,10316 14906,10378 15022,10460 15139,10564 15255,10587 15371,10635 15487,10685 15604,10757 15720,10778 15836,10803 15952,10825 16069,10829 16185,10863 16301,10899 16417,10927 16534,10940 16650,10950 16766,10966 16882,10983 16999,10980 17115,11015 17231,11039 17347,11071 17464,11090 17580,11074 17696,11102 17812,11118 17928,11174 18045,11207 18161,11250 18277,11269 18393,11292 18510,11289 18626,11321 18742,11370 18858,11414 18975,11435 19091,11481 19207,11460 19323,11481 19440,11536 19556,11576 19672,11601 19788,11653"/>
 <path fill="none" stroke="rgb(0,69,134)" stroke-width="80" stroke-linejoin="round" d="M 1772,14424 L 1888,14424 2004,14424 2120,14424 2237,14424 2353,14424 2469,14424 2585,14424 2702,14424 2818,14424 2934,14424 3050,14424 3167,14424 3283,14424 3399,14269 3515,14295 3632,14080 3748,13801 3864,13595 3980,13725 4096,13690 4213,13523 4329,13302 4445,13011 4561,12756 4678,12717 4794,12485 4910,12461 5026,12322 5143,12186 5259,11962 5375,11789 5491,11559 5608,11549 5724,11451 5840,11334 5956,11277 6073,10975 6189,10908 6305,10875 6421,10852 6538,10813 6654,10779 6770,10655 6886,10600 7003,10556 7119,10592 7235,10573 7351,10532 7468,10542 7584,10532 7700,10490 7816,10511 7933,10388 8049,10360 8165,10331 8281,10311 8398,10254 8514,10186 8630,10124 8746,10036 8862,10031 8979,10014 9095,9975 9211,9954 9327,9953 9444,9872 9560,9850 9676,9846 9792,9876 9909,9875 10025,9916 10141,9851 10257,9880 10374,9883 10490,9833 10606,9821 10722,9837 10839,9848 10955,9881 11071,9905 11187,9901 11304,9919 11420,9945 11536,9959 11652,9961 11769,9952 11884,9941 12000,9956 12116,9978 12233,10004 12349,10020 12465,10024 12581,10052 12698,10057 12814,10107 12930,10126 13046,10153 13162,10176 13279,10185 13395,10187 13511,10178 13627,10185 13744,10194 13860,10230 13976,10280 14092,10297 14209,10280 14325,10241 14441,10267 14557,10268 14674,10304 14790,10378 14906,10471 15022,10564 15139,10630 15255,10635 15371,10663 15487,10725 15604,10799 15720,10813 15836,10825 15952,10839 16069,10863 16185,10899 16301,10927 16417,10950 16534,10970 16650,10966 16766,10983 16882,11009 16999,11015 17115,11049 17231,11071 17347,11099 17464,11111 17580,11111 17696,11154 17812,11174 17928,11224 18045,11267 18161,11277 18277,11292 18393,11331 18510,11345 18626,11378 18742,11422 18858,11451 18975,11458 19091,11498 19207,11496 19323,11529 19440,11576 19556,11609 19672,11653 19788,11679"/>
 <path fill="none" stroke="rgb(255,66,14)" stroke-width="80" stroke-linejoin="round" d="M 1772,14424 L 1888,14424 2004,14424 2120,14424 2237,14424 2353,14424 2469,14424 2585,14424 2702,14424 2818,14424 2934,14424 3050,14424 3167,14424 3283,14424 3399,14295 3515,14309 3632,14112 3748,13871 3864,13725 3980,13824 4096,13804 4213,13643 4329,13376 4445,13098 4561,12911 4678,12814 4794,12661 4910,12573 5026,12501 5143,12242 5259,12082 5375,11892 5491,11718 5608,11682 5724,11536 5840,11387 5956,11361 6073,11014 6189,10938 6305,10935 6421,10973 6538,10877 6654,10811 6770,10734 6886,10686 7003,10629 7119,10645 7235,10603 7351,10578 7468,10584 7584,10559 7700,10511 7816,10542 7933,10428 8049,10415 8165,10360 8281,10320 8398,10268 8514,10206 8630,10166 8746,10079 8862,10062 8979,10039 9095,9985 9211,9969 9327,9982 9444,9897 9560,9877 9676,9891 9792,9905 9909,9901 10025,9927 10141,9910 10257,9913 10374,9921 10490,9850 10606,9852 10722,9877 10839,9881 10955,9905 11071,9929 11187,9919 11304,9945 11420,9973 11536,9975 11652,9979 11769,9968 11884,9970 12000,9992 12116,10004 12233,10020 12349,10038 12465,10052 12581,10083 12698,10081 12814,10140 12930,10140 13046,10189 13162,10198 13279,10199 13395,10203 13511,10198 13627,10206 13744,10242 13860,10280 13976,10297 14092,10317 14209,10290 14325,10291 14441,10316 14557,10304 14674,10367 14790,10471 14906,10575 15022,10630 15139,10677 15255,10663 15371,10704 15487,10768 15604,10834 15720,10835 15836,10839 15952,10873 16069,10899 16185,10927 16301,10950 16417,10980 16534,10985 16650,10983 16766,11009 16882,11043 16999,11049 17115,11081 17231,11099 17347,11120 17464,11147 17580,11163 17696,11209 17812,11224 17928,11284 18045,11294 18161,11300 18277,11331 18393,11386 18510,11402 18626,11430 18742,11458 18858,11473 18975,11475 19091,11534 19207,11543 19323,11569 19440,11609 19556,11660 19672,11679 19788,11697"/>
 <path fill="none" stroke="rgb(255,211,32)" stroke-width="80" stroke-linejoin="round" d="M 1772,14424 L 1888,14424 2004,14424 2120,14424 2237,14424 2353,14424 2469,14424 2585,14424 2702,14424 2818,14424 2934,14424 3050,14424 3167,14424 3283,14424 3399,14309 3515,14320 3632,14147 3748,13958 3864,13824 3980,13917 4096,13887 4213,13695 4329,13440 4445,13221 4561,12997 4678,12960 4794,12761 4910,12731 5026,12549 5143,12348 5259,12173 5375,12032 5491,11843 5608,11760 5724,11585 5840,11468 5956,11395 6073,11043 6189,10997 6305,11053 6421,11034 6538,10908 6654,10886 6770,10816 6886,10756 7003,10681 7119,10674 7235,10648 7351,10619 7468,10611 7584,10580 7700,10542 7816,10580 7933,10482 8049,10443 8165,10370 8281,10334 8398,10288 8514,10247 8630,10208 8746,10110 8862,10087 8979,10049 9095,10001 9211,9998 9327,10007 9444,9924 9560,9922 9676,9921 9792,9932 9909,9912 10025,9985 10141,9942 10257,9951 10374,9938 10490,9881 10606,9892 10722,9910 10839,9905 10955,9929 11071,9947 11187,9945 11304,9973 11420,9989 11536,9993 11652,9996 11769,9998 11884,10005 12000,10018 12116,10020 12233,10038 12349,10066 12465,10083 12581,10107 12698,10113 12814,10153 12930,10176 13046,10211 13162,10212 13279,10216 13395,10223 13511,10219 13627,10255 13744,10293 13860,10297 13976,10317 14092,10327 14209,10339 14325,10340 14441,10351 14557,10367 14674,10460 14790,10575 14906,10641 15022,10677 15139,10706 15255,10704 15371,10747 15487,10803 15604,10856 15720,10850 15836,10873 15952,10909 16069,10927 16185,10950 16301,10980 16417,10995 16534,11002 16650,11009 16766,11043 16882,11077 16999,11081 17115,11108 17231,11120 17347,11156 17464,11199 17580,11218 17696,11259 17812,11284 17928,11311 18045,11317 18161,11339 18277,11386 18393,11442 18510,11453 18626,11466 18742,11481 18858,11491 18975,11511 19091,11581 19207,11583 19323,11601 19440,11660 19556,11686 19672,11697 19788,11718"/>
 <text class="TextShape" transform="rotate(-90 1888 15543)"><tspan class="TextParagraph" font-family="Liberation Sans, sans-serif" font-size="353px" font-weight="400"><tspan class="TextPosition" x="1888" y="15543"><tspan fill="rgb(0,0,0)" stroke="none">08.03</tspan></tspan></tspan></text>
 <text class="TextShape" transform="rotate(-90 2701 15543)"><tspan class="TextParagraph" font-family="Liberation Sans, sans-serif" font-size="353px" font-weight="400"><tspan class="TextPosition" x="2701" y="15543"><tspan fill="rgb(0,0,0)" stroke="none">15.03</tspan></tspan></tspan></text>
 <text class="TextShape" transform="rotate(-90 3515 15543)"><tspan class="TextParagraph" font-family="Liberation Sans, sans-serif" font-size="353px" font-weight="400"><tspan class="TextPosition" x="3515" y="15543"><tspan fill="rgb(0,0,0)" stroke="none">22.03</tspan></tspan></tspan></text>
 <text class="TextShape" transform="rotate(-90 4329 15543)"><tspan class="TextParagraph" font-family="Liberation Sans, sans-serif" font-size="353px" font-weight="400"><tspan class="TextPosition" x="4329" y="15543"><tspan fill="rgb(0,0,0)" stroke="none">29.03</tspan></tspan></tspan></text>
 <text class="TextShape" transform="rotate(-90 5142 15543)"><tspan class="TextParagraph" font-family="Liberation Sans, sans-serif" font-size="353px" font-weight="400"><tspan class="TextPosition" x="5142" y="15543"><tspan fill="rgb(0,0,0)" stroke="none">05.04</tspan></tspan></tspan></text>
 <text class="TextShape" transform="rotate(-90 5956 15543)"><tspan class="TextParagraph" font-family="Liberation Sans, sans-serif" font-size="353px" font-weight="400"><tspan class="TextPosition" x="5956" y="15543"><tspan fill="rgb(0,0,0)" stroke="none">12.04</tspan></tspan></tspan></text>
 <text class="TextShape" transform="rotate(-90 6770 15543)"><tspan class="TextParagraph" font-family="Liberation Sans, sans-serif" font-size="353px" font-weight="400"><tspan class="TextPosition" x="6770" y="15543"><tspan fill="rgb(0,0,0)" stroke="none">19.04</tspan></tspan></tspan></text>
 <text class="TextShape" transform="rotate(-90 7584 15543)"><tspan class="TextParagraph" font-family="Liberation Sans, sans-serif" font-size="353px" font-weight="400"><tspan class="TextPosition" x="7584" y="15543"><tspan fill="rgb(0,0,0)" stroke="none">26.04</tspan></tspan></tspan></text>
 <text class="TextShape" transform="rotate(-90 8397 15543)"><tspan class="TextParagraph" font-family="Liberation Sans, sans-serif" font-size="353px" font-weight="400"><tspan class="TextPosition" x="8397" y="15543"><tspan fill="rgb(0,0,0)" stroke="none">03.05</tspan></tspan></tspan></text>
 <text class="TextShape" transform="rotate(-90 9211 15543)"><tspan class="TextParagraph" font-family="Liberation Sans, sans-serif" font-size="353px" font-weight="400"><tspan class="TextPosition" x="9211" y="15543"><tspan fill="rgb(0,0,0)" stroke="none">10.05</tspan></tspan></tspan></text>
 <text class="TextShape" transform="rotate(-90 10025 15543)"><tspan class="TextParagraph" font-family="Liberation Sans, sans-serif" font-size="353px" font-weight="400"><tspan class="TextPosition" x="10025" y="15543"><tspan fill="rgb(0,0,0)" stroke="none">17.05</tspan></tspan></tspan></text>
 <text class="TextShape" transform="rotate(-90 10838 15543)"><tspan class="TextParagraph" font-family="Liberation Sans, sans-serif" font-size="353px" font-weight="400"><tspan class="TextPosition" x="10838" y="15543"><tspan fill="rgb(0,0,0)" stroke="none">24.05</tspan></tspan></tspan></text>
 <text class="TextShape" transform="rotate(-90 11652 15543)"><tspan class="TextParagraph" font-family="Liberation Sans, sans-serif" font-size="353px" font-weight="400"><tspan class="TextPosition" x="11652" y="15543"><tspan fill="rgb(0,0,0)" stroke="none">31.05</tspan></tspan></tspan></text>
 <text class="TextShape" transform="rotate(-90 12465 15543)"><tspan class="TextParagraph" font-family="Liberation Sans, sans-serif" font-size="353px" font-weight="400"><tspan class="TextPosition" x="12465" y="15543"><tspan fill="rgb(0,0,0)" stroke="none">07.06</tspan></tspan></tspan></text>
 <text class="TextShape" transform="rotate(-90 13278 15543)"><tspan class="TextParagraph" font-family="Liberation Sans, sans-serif" font-size="353px" font-weight="400"><tspan class="TextPosition" x="13278" y="15543"><tspan fill="rgb(0,0,0)" stroke="none">14.06</tspan></tspan></tspan></text>
 <text class="TextShape" transform="rotate(-90 14092 15543)"><tspan class="TextParagraph" font-family="Liberation Sans, sans-serif" font-size="353px" font-weight="400"><tspan class="TextPosition" x="14092" y="15543"><tspan fill="rgb(0,0,0)" stroke="none">21.06</tspan></tspan></tspan></text>
 <text class="TextShape" transform="rotate(-90 14906 15543)"><tspan class="TextParagraph" font-family="Liberation Sans, sans-serif" font-size="353px" font-weight="400"><tspan class="TextPosition" x="14906" y="15543"><tspan fill="rgb(0,0,0)" stroke="none">28.06</tspan></tspan></tspan></text>
 <text class="TextShape" transform="rotate(-90 15720 15543)"><tspan class="TextParagraph" font-family="Liberation Sans, sans-serif" font-size="353px" font-weight="400"><tspan class="TextPosition" x="15720" y="15543"><tspan fill="rgb(0,0,0)" stroke="none">05.07</tspan></tspan></tspan></text>
 <text class="TextShape" transform="rotate(-90 16533 15543)"><tspan class="TextParagraph" font-family="Liberation Sans, sans-serif" font-size="353px" font-weight="400"><tspan class="TextPosition" x="16533" y="15543"><tspan fill="rgb(0,0,0)" stroke="none">12.07</tspan></tspan></tspan></text>
 <text class="TextShape" transform="rotate(-90 17347 15543)"><tspan class="TextParagraph" font-family="Liberation Sans, sans-serif" font-size="353px" font-weight="400"><tspan class="TextPosition" x="17347" y="15543"><tspan fill="rgb(0,0,0)" stroke="none">19.07</tspan></tspan></tspan></text>
 <text class="TextShape" transform="rotate(-90 18161 15543)"><tspan class="TextParagraph" font-family="Liberation Sans, sans-serif" font-size="353px" font-weight="400"><tspan class="TextPosition" x="18161" y="15543"><tspan fill="rgb(0,0,0)" stroke="none">26.07</tspan></tspan></tspan></text>
 <text class="TextShape" transform="rotate(-90 18974 15543)"><tspan class="TextParagraph" font-family="Liberation Sans, sans-serif" font-size="353px" font-weight="400"><tspan class="TextPosition" x="18974" y="15543"><tspan fill="rgb(0,0,0)" stroke="none">02.08</tspan></tspan></tspan></text>
 <text class="TextShape" transform="rotate(-90 19788 15543)"><tspan class="TextParagraph" font-family="Liberation Sans, sans-serif" font-size="353px" font-weight="400"><tspan class="TextPosition" x="19788" y="15543"><tspan fill="rgb(0,0,0)" stroke="none">09.08</tspan></tspan></tspan></text>
 <text class="TextShape"><tspan class="TextParagraph" font-family="Liberation Sans, sans-serif" font-size="353px" font-weight="400"><tspan class="TextPosition" x="363" y="14542"><tspan fill="rgb(0,0,0)" stroke="none">0,00 %</tspan></tspan></tspan></text>
 <text class="TextShape"><tspan class="TextParagraph" font-family="Liberation Sans, sans-serif" font-size="353px" font-weight="400"><tspan class="TextPosition" x="363" y="13258"><tspan fill="rgb(0,0,0)" stroke="none">1,00 %</tspan></tspan></tspan></text>
 <text class="TextShape"><tspan class="TextParagraph" font-family="Liberation Sans, sans-serif" font-size="353px" font-weight="400"><tspan class="TextPosition" x="363" y="11975"><tspan fill="rgb(0,0,0)" stroke="none">2,00 %</tspan></tspan></tspan></text>
 <text class="TextShape"><tspan class="TextParagraph" font-family="Liberation Sans, sans-serif" font-size="353px" font-weight="400"><tspan class="TextPosition" x="363" y="10692"><tspan fill="rgb(0,0,0)" stroke="none">3,00 %</tspan></tspan></tspan></text>
 <text class="TextShape"><tspan class="TextParagraph" font-family="Liberation Sans, sans-serif" font-size="353px" font-weight="400"><tspan class="TextPosition" x="363" y="9409"><tspan fill="rgb(0,0,0)" stroke="none">4,00 %</tspan></tspan></tspan></text>
 <text class="TextShape"><tspan class="TextParagraph" font-family="Liberation Sans, sans-serif" font-size="353px" font-weight="400"><tspan class="TextPosition" x="363" y="8126"><tspan fill="rgb(0,0,0)" stroke="none">5,00 %</tspan></tspan></tspan></text>
 <text class="TextShape"><tspan class="TextParagraph" font-family="Liberation Sans, sans-serif" font-size="353px" font-weight="400"><tspan class="TextPosition" x="363" y="6843"><tspan fill="rgb(0,0,0)" stroke="none">6,00 %</tspan></tspan></tspan></text>
 <text class="TextShape"><tspan class="TextParagraph" font-family="Liberation Sans, sans-serif" font-size="353px" font-weight="400"><tspan class="TextPosition" x="363" y="5560"><tspan fill="rgb(0,0,0)" stroke="none">7,00 %</tspan></tspan></tspan></text>
 <text class="TextShape"><tspan class="TextParagraph" font-family="Liberation Sans, sans-serif" font-size="353px" font-weight="400"><tspan class="TextPosition" x="363" y="4277"><tspan fill="rgb(0,0,0)" stroke="none">8,00 %</tspan></tspan></tspan></text>
 <text class="TextShape"><tspan class="TextParagraph" font-family="Liberation Sans, sans-serif" font-size="353px" font-weight="400"><tspan class="TextPosition" x="363" y="2994"><tspan fill="rgb(0,0,0)" stroke="none">9,00 %</tspan></tspan></tspan></text>
 <text class="TextShape"><tspan class="TextParagraph" font-family="Liberation Sans, sans-serif" font-size="353px" font-weight="400"><tspan class="TextPosition" x="173" y="1711"><tspan fill="rgb(0,0,0)" stroke="none">10,00 %</tspan></tspan></tspan></text>
 <text class="TextShape"><tspan class="TextParagraph" font-family="Liberation Sans, sans-serif" font-size="459px" font-weight="700"><tspan class="TextPosition" x="1609" y="1019"><tspan fill="rgb(0,0,0)" stroke="none">Česká Republika - poměr celkového počtu obětí k posunutému celkovému počtu infikovaných</tspan></tspan></tspan></text>
 <path fill="none" stroke="rgb(0,69,134)" stroke-width="80" stroke-linejoin="round" d="M 20014,1917 L 20814,1917"/>
 <path fill="none" stroke="rgb(255,66,14)" stroke-width="80" stroke-linejoin="round" d="M 20014,2790 L 20814,2790"/>
 <path fill="none" stroke="rgb(255,211,32)" stroke-width="80" stroke-linejoin="round" d="M 20014,3663 L 20814,3663"/>
 <path fill="none" stroke="rgb(87,157,28)" stroke-width="80" stroke-linejoin="round" d="M 20014,4536 L 20814,4536"/>
 <path fill="none" stroke="rgb(126,0,33)" stroke-width="80" stroke-linejoin="round" d="M 20014,5409 L 20814,5409"/>
 <path fill="none" stroke="rgb(131,202,255)" stroke-width="80" stroke-linejoin="round" d="M 20014,6282 L 20814,6282"/>
 <path fill="none" stroke="rgb(49,64,4)" stroke-width="80" stroke-linejoin="round" d="M 20014,7155 L 20814,7155"/>
 <path fill="none" stroke="rgb(174,207,0)" stroke-width="80" stroke-linejoin="round" d="M 20014,8028 L 20814,8028"/>
 <path fill="none" stroke="rgb(75,31,111)" stroke-width="80" stroke-linejoin="round" d="M 20014,8900 L 20814,8900"/>
 <path fill="none" stroke="rgb(255,149,14)" stroke-width="80" stroke-linejoin="round" d="M 20014,9773 L 20814,9773"/>
 <path fill="none" stroke="rgb(197,0,11)" stroke-width="80" stroke-linejoin="round" d="M 20014,10646 L 20814,10646"/>
 <path fill="none" stroke="rgb(0,132,209)" stroke-width="80" stroke-linejoin="round" d="M 20014,11519 L 20814,11519"/>
 <path fill="none" stroke="rgb(0,69,134)" stroke-width="80" stroke-linejoin="round" d="M 20014,12392 L 20814,12392"/>
 <path fill="none" stroke="rgb(255,66,14)" stroke-width="80" stroke-linejoin="round" d="M 20014,13265 L 20814,13265"/>
 <path fill="none" stroke="rgb(255,211,32)" stroke-width="80" stroke-linejoin="round" d="M 20014,14138 L 20814,14138"/>
 <text class="TextShape"><tspan class="TextParagraph" font-family="Liberation Sans, sans-serif" font-size="353px" font-weight="400"><tspan class="TextPosition" x="20914" y="2034"><tspan fill="rgb(0,0,0)" stroke="none">14 dní zpoždění</tspan></tspan></tspan></text>
 <text class="TextShape"><tspan class="TextParagraph" font-family="Liberation Sans, sans-serif" font-size="353px" font-weight="400"><tspan class="TextPosition" x="20914" y="2907"><tspan fill="rgb(0,0,0)" stroke="none">13 dní zpoždění</tspan></tspan></tspan></text>
 <text class="TextShape"><tspan class="TextParagraph" font-family="Liberation Sans, sans-serif" font-size="353px" font-weight="400"><tspan class="TextPosition" x="20914" y="3780"><tspan fill="rgb(0,0,0)" stroke="none">12 dní zpoždění</tspan></tspan></tspan></text>
 <text class="TextShape"><tspan class="TextParagraph" font-family="Liberation Sans, sans-serif" font-size="353px" font-weight="400"><tspan class="TextPosition" x="20914" y="4653"><tspan fill="rgb(0,0,0)" stroke="none">11 dní zpoždění</tspan></tspan></tspan></text>
 <text class="TextShape"><tspan class="TextParagraph" font-family="Liberation Sans, sans-serif" font-size="353px" font-weight="400"><tspan class="TextPosition" x="20914" y="5526"><tspan fill="rgb(0,0,0)" stroke="none">10 dní zpoždění</tspan></tspan></tspan></text>
 <text class="TextShape"><tspan class="TextParagraph" font-family="Liberation Sans, sans-serif" font-size="353px" font-weight="400"><tspan class="TextPosition" x="20914" y="6399"><tspan fill="rgb(0,0,0)" stroke="none">9 dní zpoždění</tspan></tspan></tspan></text>
 <text class="TextShape"><tspan class="TextParagraph" font-family="Liberation Sans, sans-serif" font-size="353px" font-weight="400"><tspan class="TextPosition" x="20914" y="7272"><tspan fill="rgb(0,0,0)" stroke="none">8 dní zpoždění</tspan></tspan></tspan></text>
 <text class="TextShape"><tspan class="TextParagraph" font-family="Liberation Sans, sans-serif" font-size="353px" font-weight="400"><tspan class="TextPosition" x="20914" y="8144"><tspan fill="rgb(0,0,0)" stroke="none">7 dní zpoždění</tspan></tspan></tspan></text>
 <text class="TextShape"><tspan class="TextParagraph" font-family="Liberation Sans, sans-serif" font-size="353px" font-weight="400"><tspan class="TextPosition" x="20914" y="9017"><tspan fill="rgb(0,0,0)" stroke="none">6 dní zpoždění</tspan></tspan></tspan></text>
 <text class="TextShape"><tspan class="TextParagraph" font-family="Liberation Sans, sans-serif" font-size="353px" font-weight="400"><tspan class="TextPosition" x="20914" y="9890"><tspan fill="rgb(0,0,0)" stroke="none">5 dní zpoždění</tspan></tspan></tspan></text>
 <text class="TextShape"><tspan class="TextParagraph" font-family="Liberation Sans, sans-serif" font-size="353px" font-weight="400"><tspan class="TextPosition" x="20914" y="10763"><tspan fill="rgb(0,0,0)" stroke="none">4 dny zpoždění</tspan></tspan></tspan></text>
 <text class="TextShape"><tspan class="TextParagraph" font-family="Liberation Sans, sans-serif" font-size="353px" font-weight="400"><tspan class="TextPosition" x="20914" y="11636"><tspan fill="rgb(0,0,0)" stroke="none">3 dny zpoždění</tspan></tspan></tspan></text>
 <text class="TextShape"><tspan class="TextParagraph" font-family="Liberation Sans, sans-serif" font-size="353px" font-weight="400"><tspan class="TextPosition" x="20914" y="12509"><tspan fill="rgb(0,0,0)" stroke="none">2 dny zpoždění</tspan></tspan></tspan></text>
 <text class="TextShape"><tspan class="TextParagraph" font-family="Liberation Sans, sans-serif" font-size="353px" font-weight="400"><tspan class="TextPosition" x="20914" y="13382"><tspan fill="rgb(0,0,0)" stroke="none">1 den zpoždění</tspan></tspan></tspan></text>
 <text class="TextShape"><tspan class="TextParagraph" font-family="Liberation Sans, sans-serif" font-size="353px" font-weight="400"><tspan class="TextPosition" x="20914" y="14255"><tspan fill="rgb(0,0,0)" stroke="none">0 dní zpoždění</tspan></tspan></tspan></text>
</svg>