<?xml version="1.0" encoding="UTF-8"?>
<!DOCTYPE svg PUBLIC "-//W3C//DTD SVG 1.1//EN" "http://www.w3.org/Graphics/SVG/1.1/DTD/svg11.dtd">
<svg width="236mm" height="161mm" viewBox="0 0 23600 16100" version="1.1" xmlns="http://www.w3.org/2000/svg" xmlns:xlink="http://www.w3.org/1999/xlink" stroke-width="28.222" stroke-linejoin="round" xml:space="preserve">
 <path fill="rgb(255,255,255)" stroke="none" d="M 11801,16126 L 0,16126 0,0 23601,0 23601,16126 11801,16126 Z"/>
 <path fill="none" stroke="rgb(179,179,179)" stroke-linejoin="round" d="M 12996,14423 L 2560,14423 2560,1594 23432,1594 23432,14423 12996,14423 Z"/>
 <path fill="none" stroke="rgb(179,179,179)" stroke-linejoin="round" stroke-dasharray="53,34" d="M 2560,1593 L 2560,14422"/>
 <path fill="none" stroke="rgb(179,179,179)" stroke-linejoin="round" stroke-dasharray="53,34" d="M 3385,1593 L 3385,14422"/>
 <path fill="none" stroke="rgb(179,179,179)" stroke-linejoin="round" stroke-dasharray="53,34" d="M 4210,1593 L 4210,14422"/>
 <path fill="none" stroke="rgb(179,179,179)" stroke-linejoin="round" stroke-dasharray="53,34" d="M 5036,1593 L 5036,14422"/>
 <path fill="none" stroke="rgb(179,179,179)" stroke-linejoin="round" stroke-dasharray="53,34" d="M 5861,1593 L 5861,14422"/>
 <path fill="none" stroke="rgb(179,179,179)" stroke-linejoin="round" stroke-dasharray="53,34" d="M 6687,1593 L 6687,14422"/>
 <path fill="none" stroke="rgb(179,179,179)" stroke-linejoin="round" stroke-dasharray="53,34" d="M 7512,1593 L 7512,14422"/>
 <path fill="none" stroke="rgb(179,179,179)" stroke-linejoin="round" stroke-dasharray="53,34" d="M 8338,1593 L 8338,14422"/>
 <path fill="none" stroke="rgb(179,179,179)" stroke-linejoin="round" stroke-dasharray="53,34" d="M 9163,1593 L 9163,14422"/>
 <path fill="none" stroke="rgb(179,179,179)" stroke-linejoin="round" stroke-dasharray="53,34" d="M 9989,1593 L 9989,14422"/>
 <path fill="none" stroke="rgb(179,179,179)" stroke-linejoin="round" stroke-dasharray="53,34" d="M 10814,1593 L 10814,14422"/>
 <path fill="none" stroke="rgb(179,179,179)" stroke-linejoin="round" stroke-dasharray="53,34" d="M 11640,1593 L 11640,14422"/>
 <path fill="none" stroke="rgb(179,179,179)" stroke-linejoin="round" stroke-dasharray="53,34" d="M 12464,1593 L 12464,14422"/>
 <path fill="none" stroke="rgb(179,179,179)" stroke-linejoin="round" stroke-dasharray="53,34" d="M 13290,1593 L 13290,14422"/>
 <path fill="none" stroke="rgb(179,179,179)" stroke-linejoin="round" stroke-dasharray="53,34" d="M 14115,1593 L 14115,14422"/>
 <path fill="none" stroke="rgb(179,179,179)" stroke-linejoin="round" stroke-dasharray="53,34" d="M 14941,1593 L 14941,14422"/>
 <path fill="none" stroke="rgb(179,179,179)" stroke-linejoin="round" stroke-dasharray="53,34" d="M 15766,1593 L 15766,14422"/>
 <path fill="none" stroke="rgb(179,179,179)" stroke-linejoin="round" stroke-dasharray="53,34" d="M 16592,1593 L 16592,14422"/>
 <path fill="none" stroke="rgb(179,179,179)" stroke-linejoin="round" stroke-dasharray="53,34" d="M 17417,1593 L 17417,14422"/>
 <path fill="none" stroke="rgb(179,179,179)" stroke-linejoin="round" stroke-dasharray="53,34" d="M 18243,1593 L 18243,14422"/>
 <path fill="none" stroke="rgb(179,179,179)" stroke-linejoin="round" stroke-dasharray="53,34" d="M 19068,1593 L 19068,14422"/>
 <path fill="none" stroke="rgb(179,179,179)" stroke-linejoin="round" stroke-dasharray="53,34" d="M 19894,1593 L 19894,14422"/>
 <path fill="none" stroke="rgb(179,179,179)" stroke-linejoin="round" stroke-dasharray="53,34" d="M 20719,1593 L 20719,14422"/>
 <path fill="none" stroke="rgb(179,179,179)" stroke-linejoin="round" stroke-dasharray="53,34" d="M 21545,1593 L 21545,14422"/>
 <path fill="none" stroke="rgb(179,179,179)" stroke-linejoin="round" stroke-dasharray="53,34" d="M 22370,1593 L 22370,14422"/>
 <path fill="none" stroke="rgb(179,179,179)" stroke-linejoin="round" stroke-dasharray="53,34" d="M 23196,1593 L 23196,14422"/>
 <path fill="none" stroke="rgb(179,179,179)" stroke-linejoin="round" stroke-dasharray="53,34" d="M 23432,14422 L 2560,14422"/>
 <path fill="none" stroke="rgb(179,179,179)" stroke-linejoin="round" stroke-dasharray="53,34" d="M 23432,13139 L 2560,13139"/>
 <path fill="none" stroke="rgb(179,179,179)" stroke-linejoin="round" stroke-dasharray="53,34" d="M 23432,11856 L 2560,11856"/>
 <path fill="none" stroke="rgb(179,179,179)" stroke-linejoin="round" stroke-dasharray="53,34" d="M 23432,10573 L 2560,10573"/>
 <path fill="none" stroke="rgb(179,179,179)" stroke-linejoin="round" stroke-dasharray="53,34" d="M 23432,9290 L 2560,9290"/>
 <path fill="none" stroke="rgb(179,179,179)" stroke-linejoin="round" stroke-dasharray="53,34" d="M 23432,8008 L 2560,8008"/>
 <path fill="none" stroke="rgb(179,179,179)" stroke-linejoin="round" stroke-dasharray="53,34" d="M 23432,6725 L 2560,6725"/>
 <path fill="none" stroke="rgb(179,179,179)" stroke-linejoin="round" stroke-dasharray="53,34" d="M 23432,5442 L 2560,5442"/>
 <path fill="none" stroke="rgb(179,179,179)" stroke-linejoin="round" stroke-dasharray="53,34" d="M 23432,4159 L 2560,4159"/>
 <path fill="none" stroke="rgb(179,179,179)" stroke-linejoin="round" stroke-dasharray="53,34" d="M 23432,2876 L 2560,2876"/>
 <path fill="none" stroke="rgb(179,179,179)" stroke-linejoin="round" stroke-dasharray="53,34" d="M 23432,1593 L 2560,1593"/>
 <path fill="none" stroke="rgb(179,179,179)" stroke-linejoin="round" d="M 2560,14572 L 2560,14272"/>
 <path fill="none" stroke="rgb(179,179,179)" stroke-linejoin="round" d="M 2560,14572 L 2560,14272"/>
 <path fill="none" stroke="rgb(179,179,179)" stroke-linejoin="round" d="M 3385,14572 L 3385,14272"/>
 <path fill="none" stroke="rgb(179,179,179)" stroke-linejoin="round" d="M 3385,14572 L 3385,14272"/>
 <path fill="none" stroke="rgb(179,179,179)" stroke-linejoin="round" d="M 4210,14572 L 4210,14272"/>
 <path fill="none" stroke="rgb(179,179,179)" stroke-linejoin="round" d="M 4210,14572 L 4210,14272"/>
 <path fill="none" stroke="rgb(179,179,179)" stroke-linejoin="round" d="M 5036,14572 L 5036,14272"/>
 <path fill="none" stroke="rgb(179,179,179)" stroke-linejoin="round" d="M 5036,14572 L 5036,14272"/>
 <path fill="none" stroke="rgb(179,179,179)" stroke-linejoin="round" d="M 5861,14572 L 5861,14272"/>
 <path fill="none" stroke="rgb(179,179,179)" stroke-linejoin="round" d="M 5861,14572 L 5861,14272"/>
 <path fill="none" stroke="rgb(179,179,179)" stroke-linejoin="round" d="M 6687,14572 L 6687,14272"/>
 <path fill="none" stroke="rgb(179,179,179)" stroke-linejoin="round" d="M 6687,14572 L 6687,14272"/>
 <path fill="none" stroke="rgb(179,179,179)" stroke-linejoin="round" d="M 7512,14572 L 7512,14272"/>
 <path fill="none" stroke="rgb(179,179,179)" stroke-linejoin="round" d="M 7512,14572 L 7512,14272"/>
 <path fill="none" stroke="rgb(179,179,179)" stroke-linejoin="round" d="M 8338,14572 L 8338,14272"/>
 <path fill="none" stroke="rgb(179,179,179)" stroke-linejoin="round" d="M 8338,14572 L 8338,14272"/>
 <path fill="none" stroke="rgb(179,179,179)" stroke-linejoin="round" d="M 9163,14572 L 9163,14272"/>
 <path fill="none" stroke="rgb(179,179,179)" stroke-linejoin="round" d="M 9163,14572 L 9163,14272"/>
 <path fill="none" stroke="rgb(179,179,179)" stroke-linejoin="round" d="M 9989,14572 L 9989,14272"/>
 <path fill="none" stroke="rgb(179,179,179)" stroke-linejoin="round" d="M 9989,14572 L 9989,14272"/>
 <path fill="none" stroke="rgb(179,179,179)" stroke-linejoin="round" d="M 10814,14572 L 10814,14272"/>
 <path fill="none" stroke="rgb(179,179,179)" stroke-linejoin="round" d="M 10814,14572 L 10814,14272"/>
 <path fill="none" stroke="rgb(179,179,179)" stroke-linejoin="round" d="M 11640,14572 L 11640,14272"/>
 <path fill="none" stroke="rgb(179,179,179)" stroke-linejoin="round" d="M 11640,14572 L 11640,14272"/>
 <path fill="none" stroke="rgb(179,179,179)" stroke-linejoin="round" d="M 12464,14572 L 12464,14272"/>
 <path fill="none" stroke="rgb(179,179,179)" stroke-linejoin="round" d="M 12464,14572 L 12464,14272"/>
 <path fill="none" stroke="rgb(179,179,179)" stroke-linejoin="round" d="M 13290,14572 L 13290,14272"/>
 <path fill="none" stroke="rgb(179,179,179)" stroke-linejoin="round" d="M 13290,14572 L 13290,14272"/>
 <path fill="none" stroke="rgb(179,179,179)" stroke-linejoin="round" d="M 14115,14572 L 14115,14272"/>
 <path fill="none" stroke="rgb(179,179,179)" stroke-linejoin="round" d="M 14115,14572 L 14115,14272"/>
 <path fill="none" stroke="rgb(179,179,179)" stroke-linejoin="round" d="M 14941,14572 L 14941,14272"/>
 <path fill="none" stroke="rgb(179,179,179)" stroke-linejoin="round" d="M 14941,14572 L 14941,14272"/>
 <path fill="none" stroke="rgb(179,179,179)" stroke-linejoin="round" d="M 15766,14572 L 15766,14272"/>
 <path fill="none" stroke="rgb(179,179,179)" stroke-linejoin="round" d="M 15766,14572 L 15766,14272"/>
 <path fill="none" stroke="rgb(179,179,179)" stroke-linejoin="round" d="M 16592,14572 L 16592,14272"/>
 <path fill="none" stroke="rgb(179,179,179)" stroke-linejoin="round" d="M 16592,14572 L 16592,14272"/>
 <path fill="none" stroke="rgb(179,179,179)" stroke-linejoin="round" d="M 17417,14572 L 17417,14272"/>
 <path fill="none" stroke="rgb(179,179,179)" stroke-linejoin="round" d="M 17417,14572 L 17417,14272"/>
 <path fill="none" stroke="rgb(179,179,179)" stroke-linejoin="round" d="M 18243,14572 L 18243,14272"/>
 <path fill="none" stroke="rgb(179,179,179)" stroke-linejoin="round" d="M 18243,14572 L 18243,14272"/>
 <path fill="none" stroke="rgb(179,179,179)" stroke-linejoin="round" d="M 19068,14572 L 19068,14272"/>
 <path fill="none" stroke="rgb(179,179,179)" stroke-linejoin="round" d="M 19068,14572 L 19068,14272"/>
 <path fill="none" stroke="rgb(179,179,179)" stroke-linejoin="round" d="M 19894,14572 L 19894,14272"/>
 <path fill="none" stroke="rgb(179,179,179)" stroke-linejoin="round" d="M 19894,14572 L 19894,14272"/>
 <path fill="none" stroke="rgb(179,179,179)" stroke-linejoin="round" d="M 20719,14572 L 20719,14272"/>
 <path fill="none" stroke="rgb(179,179,179)" stroke-linejoin="round" d="M 20719,14572 L 20719,14272"/>
 <path fill="none" stroke="rgb(179,179,179)" stroke-linejoin="round" d="M 21545,14572 L 21545,14272"/>
 <path fill="none" stroke="rgb(179,179,179)" stroke-linejoin="round" d="M 21545,14572 L 21545,14272"/>
 <path fill="none" stroke="rgb(179,179,179)" stroke-linejoin="round" d="M 22370,14572 L 22370,14272"/>
 <path fill="none" stroke="rgb(179,179,179)" stroke-linejoin="round" d="M 22370,14572 L 22370,14272"/>
 <path fill="none" stroke="rgb(179,179,179)" stroke-linejoin="round" d="M 23196,14572 L 23196,14272"/>
 <path fill="none" stroke="rgb(179,179,179)" stroke-linejoin="round" d="M 23196,14572 L 23196,14272"/>
 <path fill="none" stroke="rgb(179,179,179)" stroke-linejoin="round" d="M 2560,14534 L 2560,14422"/>
 <path fill="none" stroke="rgb(179,179,179)" stroke-linejoin="round" d="M 2560,14534 L 2560,14422"/>
 <path fill="none" stroke="rgb(179,179,179)" stroke-linejoin="round" d="M 2677,14534 L 2677,14422"/>
 <path fill="none" stroke="rgb(179,179,179)" stroke-linejoin="round" d="M 2677,14534 L 2677,14422"/>
 <path fill="none" stroke="rgb(179,179,179)" stroke-linejoin="round" d="M 2795,14534 L 2795,14422"/>
 <path fill="none" stroke="rgb(179,179,179)" stroke-linejoin="round" d="M 2795,14534 L 2795,14422"/>
 <path fill="none" stroke="rgb(179,179,179)" stroke-linejoin="round" d="M 2913,14534 L 2913,14422"/>
 <path fill="none" stroke="rgb(179,179,179)" stroke-linejoin="round" d="M 2913,14534 L 2913,14422"/>
 <path fill="none" stroke="rgb(179,179,179)" stroke-linejoin="round" d="M 3031,14534 L 3031,14422"/>
 <path fill="none" stroke="rgb(179,179,179)" stroke-linejoin="round" d="M 3031,14534 L 3031,14422"/>
 <path fill="none" stroke="rgb(179,179,179)" stroke-linejoin="round" d="M 3149,14534 L 3149,14422"/>
 <path fill="none" stroke="rgb(179,179,179)" stroke-linejoin="round" d="M 3149,14534 L 3149,14422"/>
 <path fill="none" stroke="rgb(179,179,179)" stroke-linejoin="round" d="M 3267,14534 L 3267,14422"/>
 <path fill="none" stroke="rgb(179,179,179)" stroke-linejoin="round" d="M 3267,14534 L 3267,14422"/>
 <path fill="none" stroke="rgb(179,179,179)" stroke-linejoin="round" d="M 3385,14534 L 3385,14422"/>
 <path fill="none" stroke="rgb(179,179,179)" stroke-linejoin="round" d="M 3385,14534 L 3385,14422"/>
 <path fill="none" stroke="rgb(179,179,179)" stroke-linejoin="round" d="M 3503,14534 L 3503,14422"/>
 <path fill="none" stroke="rgb(179,179,179)" stroke-linejoin="round" d="M 3503,14534 L 3503,14422"/>
 <path fill="none" stroke="rgb(179,179,179)" stroke-linejoin="round" d="M 3621,14534 L 3621,14422"/>
 <path fill="none" stroke="rgb(179,179,179)" stroke-linejoin="round" d="M 3621,14534 L 3621,14422"/>
 <path fill="none" stroke="rgb(179,179,179)" stroke-linejoin="round" d="M 3739,14534 L 3739,14422"/>
 <path fill="none" stroke="rgb(179,179,179)" stroke-linejoin="round" d="M 3739,14534 L 3739,14422"/>
 <path fill="none" stroke="rgb(179,179,179)" stroke-linejoin="round" d="M 3857,14534 L 3857,14422"/>
 <path fill="none" stroke="rgb(179,179,179)" stroke-linejoin="round" d="M 3857,14534 L 3857,14422"/>
 <path fill="none" stroke="rgb(179,179,179)" stroke-linejoin="round" d="M 3975,14534 L 3975,14422"/>
 <path fill="none" stroke="rgb(179,179,179)" stroke-linejoin="round" d="M 3975,14534 L 3975,14422"/>
 <path fill="none" stroke="rgb(179,179,179)" stroke-linejoin="round" d="M 4093,14534 L 4093,14422"/>
 <path fill="none" stroke="rgb(179,179,179)" stroke-linejoin="round" d="M 4093,14534 L 4093,14422"/>
 <path fill="none" stroke="rgb(179,179,179)" stroke-linejoin="round" d="M 4210,14534 L 4210,14422"/>
 <path fill="none" stroke="rgb(179,179,179)" stroke-linejoin="round" d="M 4210,14534 L 4210,14422"/>
 <path fill="none" stroke="rgb(179,179,179)" stroke-linejoin="round" d="M 4328,14534 L 4328,14422"/>
 <path fill="none" stroke="rgb(179,179,179)" stroke-linejoin="round" d="M 4328,14534 L 4328,14422"/>
 <path fill="none" stroke="rgb(179,179,179)" stroke-linejoin="round" d="M 4446,14534 L 4446,14422"/>
 <path fill="none" stroke="rgb(179,179,179)" stroke-linejoin="round" d="M 4446,14534 L 4446,14422"/>
 <path fill="none" stroke="rgb(179,179,179)" stroke-linejoin="round" d="M 4564,14534 L 4564,14422"/>
 <path fill="none" stroke="rgb(179,179,179)" stroke-linejoin="round" d="M 4564,14534 L 4564,14422"/>
 <path fill="none" stroke="rgb(179,179,179)" stroke-linejoin="round" d="M 4682,14534 L 4682,14422"/>
 <path fill="none" stroke="rgb(179,179,179)" stroke-linejoin="round" d="M 4682,14534 L 4682,14422"/>
 <path fill="none" stroke="rgb(179,179,179)" stroke-linejoin="round" d="M 4800,14534 L 4800,14422"/>
 <path fill="none" stroke="rgb(179,179,179)" stroke-linejoin="round" d="M 4800,14534 L 4800,14422"/>
 <path fill="none" stroke="rgb(179,179,179)" stroke-linejoin="round" d="M 4918,14534 L 4918,14422"/>
 <path fill="none" stroke="rgb(179,179,179)" stroke-linejoin="round" d="M 4918,14534 L 4918,14422"/>
 <path fill="none" stroke="rgb(179,179,179)" stroke-linejoin="round" d="M 5036,14534 L 5036,14422"/>
 <path fill="none" stroke="rgb(179,179,179)" stroke-linejoin="round" d="M 5036,14534 L 5036,14422"/>
 <path fill="none" stroke="rgb(179,179,179)" stroke-linejoin="round" d="M 5154,14534 L 5154,14422"/>
 <path fill="none" stroke="rgb(179,179,179)" stroke-linejoin="round" d="M 5154,14534 L 5154,14422"/>
 <path fill="none" stroke="rgb(179,179,179)" stroke-linejoin="round" d="M 5272,14534 L 5272,14422"/>
 <path fill="none" stroke="rgb(179,179,179)" stroke-linejoin="round" d="M 5272,14534 L 5272,14422"/>
 <path fill="none" stroke="rgb(179,179,179)" stroke-linejoin="round" d="M 5390,14534 L 5390,14422"/>
 <path fill="none" stroke="rgb(179,179,179)" stroke-linejoin="round" d="M 5390,14534 L 5390,14422"/>
 <path fill="none" stroke="rgb(179,179,179)" stroke-linejoin="round" d="M 5508,14534 L 5508,14422"/>
 <path fill="none" stroke="rgb(179,179,179)" stroke-linejoin="round" d="M 5508,14534 L 5508,14422"/>
 <path fill="none" stroke="rgb(179,179,179)" stroke-linejoin="round" d="M 5626,14534 L 5626,14422"/>
 <path fill="none" stroke="rgb(179,179,179)" stroke-linejoin="round" d="M 5626,14534 L 5626,14422"/>
 <path fill="none" stroke="rgb(179,179,179)" stroke-linejoin="round" d="M 5744,14534 L 5744,14422"/>
 <path fill="none" stroke="rgb(179,179,179)" stroke-linejoin="round" d="M 5744,14534 L 5744,14422"/>
 <path fill="none" stroke="rgb(179,179,179)" stroke-linejoin="round" d="M 5861,14534 L 5861,14422"/>
 <path fill="none" stroke="rgb(179,179,179)" stroke-linejoin="round" d="M 5861,14534 L 5861,14422"/>
 <path fill="none" stroke="rgb(179,179,179)" stroke-linejoin="round" d="M 5979,14534 L 5979,14422"/>
 <path fill="none" stroke="rgb(179,179,179)" stroke-linejoin="round" d="M 5979,14534 L 5979,14422"/>
 <path fill="none" stroke="rgb(179,179,179)" stroke-linejoin="round" d="M 6097,14534 L 6097,14422"/>
 <path fill="none" stroke="rgb(179,179,179)" stroke-linejoin="round" d="M 6097,14534 L 6097,14422"/>
 <path fill="none" stroke="rgb(179,179,179)" stroke-linejoin="round" d="M 6215,14534 L 6215,14422"/>
 <path fill="none" stroke="rgb(179,179,179)" stroke-linejoin="round" d="M 6215,14534 L 6215,14422"/>
 <path fill="none" stroke="rgb(179,179,179)" stroke-linejoin="round" d="M 6333,14534 L 6333,14422"/>
 <path fill="none" stroke="rgb(179,179,179)" stroke-linejoin="round" d="M 6333,14534 L 6333,14422"/>
 <path fill="none" stroke="rgb(179,179,179)" stroke-linejoin="round" d="M 6451,14534 L 6451,14422"/>
 <path fill="none" stroke="rgb(179,179,179)" stroke-linejoin="round" d="M 6451,14534 L 6451,14422"/>
 <path fill="none" stroke="rgb(179,179,179)" stroke-linejoin="round" d="M 6569,14534 L 6569,14422"/>
 <path fill="none" stroke="rgb(179,179,179)" stroke-linejoin="round" d="M 6569,14534 L 6569,14422"/>
 <path fill="none" stroke="rgb(179,179,179)" stroke-linejoin="round" d="M 6687,14534 L 6687,14422"/>
 <path fill="none" stroke="rgb(179,179,179)" stroke-linejoin="round" d="M 6687,14534 L 6687,14422"/>
 <path fill="none" stroke="rgb(179,179,179)" stroke-linejoin="round" d="M 6805,14534 L 6805,14422"/>
 <path fill="none" stroke="rgb(179,179,179)" stroke-linejoin="round" d="M 6805,14534 L 6805,14422"/>
 <path fill="none" stroke="rgb(179,179,179)" stroke-linejoin="round" d="M 6923,14534 L 6923,14422"/>
 <path fill="none" stroke="rgb(179,179,179)" stroke-linejoin="round" d="M 6923,14534 L 6923,14422"/>
 <path fill="none" stroke="rgb(179,179,179)" stroke-linejoin="round" d="M 7041,14534 L 7041,14422"/>
 <path fill="none" stroke="rgb(179,179,179)" stroke-linejoin="round" d="M 7041,14534 L 7041,14422"/>
 <path fill="none" stroke="rgb(179,179,179)" stroke-linejoin="round" d="M 7159,14534 L 7159,14422"/>
 <path fill="none" stroke="rgb(179,179,179)" stroke-linejoin="round" d="M 7159,14534 L 7159,14422"/>
 <path fill="none" stroke="rgb(179,179,179)" stroke-linejoin="round" d="M 7277,14534 L 7277,14422"/>
 <path fill="none" stroke="rgb(179,179,179)" stroke-linejoin="round" d="M 7277,14534 L 7277,14422"/>
 <path fill="none" stroke="rgb(179,179,179)" stroke-linejoin="round" d="M 7394,14534 L 7394,14422"/>
 <path fill="none" stroke="rgb(179,179,179)" stroke-linejoin="round" d="M 7394,14534 L 7394,14422"/>
 <path fill="none" stroke="rgb(179,179,179)" stroke-linejoin="round" d="M 7512,14534 L 7512,14422"/>
 <path fill="none" stroke="rgb(179,179,179)" stroke-linejoin="round" d="M 7512,14534 L 7512,14422"/>
 <path fill="none" stroke="rgb(179,179,179)" stroke-linejoin="round" d="M 7630,14534 L 7630,14422"/>
 <path fill="none" stroke="rgb(179,179,179)" stroke-linejoin="round" d="M 7630,14534 L 7630,14422"/>
 <path fill="none" stroke="rgb(179,179,179)" stroke-linejoin="round" d="M 7748,14534 L 7748,14422"/>
 <path fill="none" stroke="rgb(179,179,179)" stroke-linejoin="round" d="M 7748,14534 L 7748,14422"/>
 <path fill="none" stroke="rgb(179,179,179)" stroke-linejoin="round" d="M 7866,14534 L 7866,14422"/>
 <path fill="none" stroke="rgb(179,179,179)" stroke-linejoin="round" d="M 7866,14534 L 7866,14422"/>
 <path fill="none" stroke="rgb(179,179,179)" stroke-linejoin="round" d="M 7984,14534 L 7984,14422"/>
 <path fill="none" stroke="rgb(179,179,179)" stroke-linejoin="round" d="M 7984,14534 L 7984,14422"/>
 <path fill="none" stroke="rgb(179,179,179)" stroke-linejoin="round" d="M 8102,14534 L 8102,14422"/>
 <path fill="none" stroke="rgb(179,179,179)" stroke-linejoin="round" d="M 8102,14534 L 8102,14422"/>
 <path fill="none" stroke="rgb(179,179,179)" stroke-linejoin="round" d="M 8220,14534 L 8220,14422"/>
 <path fill="none" stroke="rgb(179,179,179)" stroke-linejoin="round" d="M 8220,14534 L 8220,14422"/>
 <path fill="none" stroke="rgb(179,179,179)" stroke-linejoin="round" d="M 8338,14534 L 8338,14422"/>
 <path fill="none" stroke="rgb(179,179,179)" stroke-linejoin="round" d="M 8338,14534 L 8338,14422"/>
 <path fill="none" stroke="rgb(179,179,179)" stroke-linejoin="round" d="M 8456,14534 L 8456,14422"/>
 <path fill="none" stroke="rgb(179,179,179)" stroke-linejoin="round" d="M 8456,14534 L 8456,14422"/>
 <path fill="none" stroke="rgb(179,179,179)" stroke-linejoin="round" d="M 8574,14534 L 8574,14422"/>
 <path fill="none" stroke="rgb(179,179,179)" stroke-linejoin="round" d="M 8574,14534 L 8574,14422"/>
 <path fill="none" stroke="rgb(179,179,179)" stroke-linejoin="round" d="M 8692,14534 L 8692,14422"/>
 <path fill="none" stroke="rgb(179,179,179)" stroke-linejoin="round" d="M 8692,14534 L 8692,14422"/>
 <path fill="none" stroke="rgb(179,179,179)" stroke-linejoin="round" d="M 8810,14534 L 8810,14422"/>
 <path fill="none" stroke="rgb(179,179,179)" stroke-linejoin="round" d="M 8810,14534 L 8810,14422"/>
 <path fill="none" stroke="rgb(179,179,179)" stroke-linejoin="round" d="M 8928,14534 L 8928,14422"/>
 <path fill="none" stroke="rgb(179,179,179)" stroke-linejoin="round" d="M 8928,14534 L 8928,14422"/>
 <path fill="none" stroke="rgb(179,179,179)" stroke-linejoin="round" d="M 9045,14534 L 9045,14422"/>
 <path fill="none" stroke="rgb(179,179,179)" stroke-linejoin="round" d="M 9045,14534 L 9045,14422"/>
 <path fill="none" stroke="rgb(179,179,179)" stroke-linejoin="round" d="M 9163,14534 L 9163,14422"/>
 <path fill="none" stroke="rgb(179,179,179)" stroke-linejoin="round" d="M 9163,14534 L 9163,14422"/>
 <path fill="none" stroke="rgb(179,179,179)" stroke-linejoin="round" d="M 9281,14534 L 9281,14422"/>
 <path fill="none" stroke="rgb(179,179,179)" stroke-linejoin="round" d="M 9281,14534 L 9281,14422"/>
 <path fill="none" stroke="rgb(179,179,179)" stroke-linejoin="round" d="M 9399,14534 L 9399,14422"/>
 <path fill="none" stroke="rgb(179,179,179)" stroke-linejoin="round" d="M 9399,14534 L 9399,14422"/>
 <path fill="none" stroke="rgb(179,179,179)" stroke-linejoin="round" d="M 9517,14534 L 9517,14422"/>
 <path fill="none" stroke="rgb(179,179,179)" stroke-linejoin="round" d="M 9517,14534 L 9517,14422"/>
 <path fill="none" stroke="rgb(179,179,179)" stroke-linejoin="round" d="M 9635,14534 L 9635,14422"/>
 <path fill="none" stroke="rgb(179,179,179)" stroke-linejoin="round" d="M 9635,14534 L 9635,14422"/>
 <path fill="none" stroke="rgb(179,179,179)" stroke-linejoin="round" d="M 9753,14534 L 9753,14422"/>
 <path fill="none" stroke="rgb(179,179,179)" stroke-linejoin="round" d="M 9753,14534 L 9753,14422"/>
 <path fill="none" stroke="rgb(179,179,179)" stroke-linejoin="round" d="M 9871,14534 L 9871,14422"/>
 <path fill="none" stroke="rgb(179,179,179)" stroke-linejoin="round" d="M 9871,14534 L 9871,14422"/>
 <path fill="none" stroke="rgb(179,179,179)" stroke-linejoin="round" d="M 9989,14534 L 9989,14422"/>
 <path fill="none" stroke="rgb(179,179,179)" stroke-linejoin="round" d="M 9989,14534 L 9989,14422"/>
 <path fill="none" stroke="rgb(179,179,179)" stroke-linejoin="round" d="M 10107,14534 L 10107,14422"/>
 <path fill="none" stroke="rgb(179,179,179)" stroke-linejoin="round" d="M 10107,14534 L 10107,14422"/>
 <path fill="none" stroke="rgb(179,179,179)" stroke-linejoin="round" d="M 10225,14534 L 10225,14422"/>
 <path fill="none" stroke="rgb(179,179,179)" stroke-linejoin="round" d="M 10225,14534 L 10225,14422"/>
 <path fill="none" stroke="rgb(179,179,179)" stroke-linejoin="round" d="M 10343,14534 L 10343,14422"/>
 <path fill="none" stroke="rgb(179,179,179)" stroke-linejoin="round" d="M 10343,14534 L 10343,14422"/>
 <path fill="none" stroke="rgb(179,179,179)" stroke-linejoin="round" d="M 10461,14534 L 10461,14422"/>
 <path fill="none" stroke="rgb(179,179,179)" stroke-linejoin="round" d="M 10461,14534 L 10461,14422"/>
 <path fill="none" stroke="rgb(179,179,179)" stroke-linejoin="round" d="M 10579,14534 L 10579,14422"/>
 <path fill="none" stroke="rgb(179,179,179)" stroke-linejoin="round" d="M 10579,14534 L 10579,14422"/>
 <path fill="none" stroke="rgb(179,179,179)" stroke-linejoin="round" d="M 10696,14534 L 10696,14422"/>
 <path fill="none" stroke="rgb(179,179,179)" stroke-linejoin="round" d="M 10696,14534 L 10696,14422"/>
 <path fill="none" stroke="rgb(179,179,179)" stroke-linejoin="round" d="M 10814,14534 L 10814,14422"/>
 <path fill="none" stroke="rgb(179,179,179)" stroke-linejoin="round" d="M 10814,14534 L 10814,14422"/>
 <path fill="none" stroke="rgb(179,179,179)" stroke-linejoin="round" d="M 10932,14534 L 10932,14422"/>
 <path fill="none" stroke="rgb(179,179,179)" stroke-linejoin="round" d="M 10932,14534 L 10932,14422"/>
 <path fill="none" stroke="rgb(179,179,179)" stroke-linejoin="round" d="M 11050,14534 L 11050,14422"/>
 <path fill="none" stroke="rgb(179,179,179)" stroke-linejoin="round" d="M 11050,14534 L 11050,14422"/>
 <path fill="none" stroke="rgb(179,179,179)" stroke-linejoin="round" d="M 11168,14534 L 11168,14422"/>
 <path fill="none" stroke="rgb(179,179,179)" stroke-linejoin="round" d="M 11168,14534 L 11168,14422"/>
 <path fill="none" stroke="rgb(179,179,179)" stroke-linejoin="round" d="M 11286,14534 L 11286,14422"/>
 <path fill="none" stroke="rgb(179,179,179)" stroke-linejoin="round" d="M 11286,14534 L 11286,14422"/>
 <path fill="none" stroke="rgb(179,179,179)" stroke-linejoin="round" d="M 11404,14534 L 11404,14422"/>
 <path fill="none" stroke="rgb(179,179,179)" stroke-linejoin="round" d="M 11404,14534 L 11404,14422"/>
 <path fill="none" stroke="rgb(179,179,179)" stroke-linejoin="round" d="M 11522,14534 L 11522,14422"/>
 <path fill="none" stroke="rgb(179,179,179)" stroke-linejoin="round" d="M 11522,14534 L 11522,14422"/>
 <path fill="none" stroke="rgb(179,179,179)" stroke-linejoin="round" d="M 11640,14534 L 11640,14422"/>
 <path fill="none" stroke="rgb(179,179,179)" stroke-linejoin="round" d="M 11640,14534 L 11640,14422"/>
 <path fill="none" stroke="rgb(179,179,179)" stroke-linejoin="round" d="M 11758,14534 L 11758,14422"/>
 <path fill="none" stroke="rgb(179,179,179)" stroke-linejoin="round" d="M 11758,14534 L 11758,14422"/>
 <path fill="none" stroke="rgb(179,179,179)" stroke-linejoin="round" d="M 11875,14534 L 11875,14422"/>
 <path fill="none" stroke="rgb(179,179,179)" stroke-linejoin="round" d="M 11875,14534 L 11875,14422"/>
 <path fill="none" stroke="rgb(179,179,179)" stroke-linejoin="round" d="M 11993,14534 L 11993,14422"/>
 <path fill="none" stroke="rgb(179,179,179)" stroke-linejoin="round" d="M 11993,14534 L 11993,14422"/>
 <path fill="none" stroke="rgb(179,179,179)" stroke-linejoin="round" d="M 12111,14534 L 12111,14422"/>
 <path fill="none" stroke="rgb(179,179,179)" stroke-linejoin="round" d="M 12111,14534 L 12111,14422"/>
 <path fill="none" stroke="rgb(179,179,179)" stroke-linejoin="round" d="M 12228,14534 L 12228,14422"/>
 <path fill="none" stroke="rgb(179,179,179)" stroke-linejoin="round" d="M 12228,14534 L 12228,14422"/>
 <path fill="none" stroke="rgb(179,179,179)" stroke-linejoin="round" d="M 12346,14534 L 12346,14422"/>
 <path fill="none" stroke="rgb(179,179,179)" stroke-linejoin="round" d="M 12346,14534 L 12346,14422"/>
 <path fill="none" stroke="rgb(179,179,179)" stroke-linejoin="round" d="M 12464,14534 L 12464,14422"/>
 <path fill="none" stroke="rgb(179,179,179)" stroke-linejoin="round" d="M 12464,14534 L 12464,14422"/>
 <path fill="none" stroke="rgb(179,179,179)" stroke-linejoin="round" d="M 12582,14534 L 12582,14422"/>
 <path fill="none" stroke="rgb(179,179,179)" stroke-linejoin="round" d="M 12582,14534 L 12582,14422"/>
 <path fill="none" stroke="rgb(179,179,179)" stroke-linejoin="round" d="M 12700,14534 L 12700,14422"/>
 <path fill="none" stroke="rgb(179,179,179)" stroke-linejoin="round" d="M 12700,14534 L 12700,14422"/>
 <path fill="none" stroke="rgb(179,179,179)" stroke-linejoin="round" d="M 12818,14534 L 12818,14422"/>
 <path fill="none" stroke="rgb(179,179,179)" stroke-linejoin="round" d="M 12818,14534 L 12818,14422"/>
 <path fill="none" stroke="rgb(179,179,179)" stroke-linejoin="round" d="M 12936,14534 L 12936,14422"/>
 <path fill="none" stroke="rgb(179,179,179)" stroke-linejoin="round" d="M 12936,14534 L 12936,14422"/>
 <path fill="none" stroke="rgb(179,179,179)" stroke-linejoin="round" d="M 13054,14534 L 13054,14422"/>
 <path fill="none" stroke="rgb(179,179,179)" stroke-linejoin="round" d="M 13054,14534 L 13054,14422"/>
 <path fill="none" stroke="rgb(179,179,179)" stroke-linejoin="round" d="M 13172,14534 L 13172,14422"/>
 <path fill="none" stroke="rgb(179,179,179)" stroke-linejoin="round" d="M 13172,14534 L 13172,14422"/>
 <path fill="none" stroke="rgb(179,179,179)" stroke-linejoin="round" d="M 13290,14534 L 13290,14422"/>
 <path fill="none" stroke="rgb(179,179,179)" stroke-linejoin="round" d="M 13290,14534 L 13290,14422"/>
 <path fill="none" stroke="rgb(179,179,179)" stroke-linejoin="round" d="M 13408,14534 L 13408,14422"/>
 <path fill="none" stroke="rgb(179,179,179)" stroke-linejoin="round" d="M 13408,14534 L 13408,14422"/>
 <path fill="none" stroke="rgb(179,179,179)" stroke-linejoin="round" d="M 13526,14534 L 13526,14422"/>
 <path fill="none" stroke="rgb(179,179,179)" stroke-linejoin="round" d="M 13526,14534 L 13526,14422"/>
 <path fill="none" stroke="rgb(179,179,179)" stroke-linejoin="round" d="M 13644,14534 L 13644,14422"/>
 <path fill="none" stroke="rgb(179,179,179)" stroke-linejoin="round" d="M 13644,14534 L 13644,14422"/>
 <path fill="none" stroke="rgb(179,179,179)" stroke-linejoin="round" d="M 13762,14534 L 13762,14422"/>
 <path fill="none" stroke="rgb(179,179,179)" stroke-linejoin="round" d="M 13762,14534 L 13762,14422"/>
 <path fill="none" stroke="rgb(179,179,179)" stroke-linejoin="round" d="M 13879,14534 L 13879,14422"/>
 <path fill="none" stroke="rgb(179,179,179)" stroke-linejoin="round" d="M 13879,14534 L 13879,14422"/>
 <path fill="none" stroke="rgb(179,179,179)" stroke-linejoin="round" d="M 13997,14534 L 13997,14422"/>
 <path fill="none" stroke="rgb(179,179,179)" stroke-linejoin="round" d="M 13997,14534 L 13997,14422"/>
 <path fill="none" stroke="rgb(179,179,179)" stroke-linejoin="round" d="M 14115,14534 L 14115,14422"/>
 <path fill="none" stroke="rgb(179,179,179)" stroke-linejoin="round" d="M 14115,14534 L 14115,14422"/>
 <path fill="none" stroke="rgb(179,179,179)" stroke-linejoin="round" d="M 14233,14534 L 14233,14422"/>
 <path fill="none" stroke="rgb(179,179,179)" stroke-linejoin="round" d="M 14233,14534 L 14233,14422"/>
 <path fill="none" stroke="rgb(179,179,179)" stroke-linejoin="round" d="M 14351,14534 L 14351,14422"/>
 <path fill="none" stroke="rgb(179,179,179)" stroke-linejoin="round" d="M 14351,14534 L 14351,14422"/>
 <path fill="none" stroke="rgb(179,179,179)" stroke-linejoin="round" d="M 14469,14534 L 14469,14422"/>
 <path fill="none" stroke="rgb(179,179,179)" stroke-linejoin="round" d="M 14469,14534 L 14469,14422"/>
 <path fill="none" stroke="rgb(179,179,179)" stroke-linejoin="round" d="M 14587,14534 L 14587,14422"/>
 <path fill="none" stroke="rgb(179,179,179)" stroke-linejoin="round" d="M 14587,14534 L 14587,14422"/>
 <path fill="none" stroke="rgb(179,179,179)" stroke-linejoin="round" d="M 14705,14534 L 14705,14422"/>
 <path fill="none" stroke="rgb(179,179,179)" stroke-linejoin="round" d="M 14705,14534 L 14705,14422"/>
 <path fill="none" stroke="rgb(179,179,179)" stroke-linejoin="round" d="M 14823,14534 L 14823,14422"/>
 <path fill="none" stroke="rgb(179,179,179)" stroke-linejoin="round" d="M 14823,14534 L 14823,14422"/>
 <path fill="none" stroke="rgb(179,179,179)" stroke-linejoin="round" d="M 14941,14534 L 14941,14422"/>
 <path fill="none" stroke="rgb(179,179,179)" stroke-linejoin="round" d="M 14941,14534 L 14941,14422"/>
 <path fill="none" stroke="rgb(179,179,179)" stroke-linejoin="round" d="M 15059,14534 L 15059,14422"/>
 <path fill="none" stroke="rgb(179,179,179)" stroke-linejoin="round" d="M 15059,14534 L 15059,14422"/>
 <path fill="none" stroke="rgb(179,179,179)" stroke-linejoin="round" d="M 15177,14534 L 15177,14422"/>
 <path fill="none" stroke="rgb(179,179,179)" stroke-linejoin="round" d="M 15177,14534 L 15177,14422"/>
 <path fill="none" stroke="rgb(179,179,179)" stroke-linejoin="round" d="M 15295,14534 L 15295,14422"/>
 <path fill="none" stroke="rgb(179,179,179)" stroke-linejoin="round" d="M 15295,14534 L 15295,14422"/>
 <path fill="none" stroke="rgb(179,179,179)" stroke-linejoin="round" d="M 15412,14534 L 15412,14422"/>
 <path fill="none" stroke="rgb(179,179,179)" stroke-linejoin="round" d="M 15412,14534 L 15412,14422"/>
 <path fill="none" stroke="rgb(179,179,179)" stroke-linejoin="round" d="M 15530,14534 L 15530,14422"/>
 <path fill="none" stroke="rgb(179,179,179)" stroke-linejoin="round" d="M 15530,14534 L 15530,14422"/>
 <path fill="none" stroke="rgb(179,179,179)" stroke-linejoin="round" d="M 15648,14534 L 15648,14422"/>
 <path fill="none" stroke="rgb(179,179,179)" stroke-linejoin="round" d="M 15648,14534 L 15648,14422"/>
 <path fill="none" stroke="rgb(179,179,179)" stroke-linejoin="round" d="M 15766,14534 L 15766,14422"/>
 <path fill="none" stroke="rgb(179,179,179)" stroke-linejoin="round" d="M 15766,14534 L 15766,14422"/>
 <path fill="none" stroke="rgb(179,179,179)" stroke-linejoin="round" d="M 15884,14534 L 15884,14422"/>
 <path fill="none" stroke="rgb(179,179,179)" stroke-linejoin="round" d="M 15884,14534 L 15884,14422"/>
 <path fill="none" stroke="rgb(179,179,179)" stroke-linejoin="round" d="M 16002,14534 L 16002,14422"/>
 <path fill="none" stroke="rgb(179,179,179)" stroke-linejoin="round" d="M 16002,14534 L 16002,14422"/>
 <path fill="none" stroke="rgb(179,179,179)" stroke-linejoin="round" d="M 16120,14534 L 16120,14422"/>
 <path fill="none" stroke="rgb(179,179,179)" stroke-linejoin="round" d="M 16120,14534 L 16120,14422"/>
 <path fill="none" stroke="rgb(179,179,179)" stroke-linejoin="round" d="M 16238,14534 L 16238,14422"/>
 <path fill="none" stroke="rgb(179,179,179)" stroke-linejoin="round" d="M 16238,14534 L 16238,14422"/>
 <path fill="none" stroke="rgb(179,179,179)" stroke-linejoin="round" d="M 16356,14534 L 16356,14422"/>
 <path fill="none" stroke="rgb(179,179,179)" stroke-linejoin="round" d="M 16356,14534 L 16356,14422"/>
 <path fill="none" stroke="rgb(179,179,179)" stroke-linejoin="round" d="M 16474,14534 L 16474,14422"/>
 <path fill="none" stroke="rgb(179,179,179)" stroke-linejoin="round" d="M 16474,14534 L 16474,14422"/>
 <path fill="none" stroke="rgb(179,179,179)" stroke-linejoin="round" d="M 16592,14534 L 16592,14422"/>
 <path fill="none" stroke="rgb(179,179,179)" stroke-linejoin="round" d="M 16592,14534 L 16592,14422"/>
 <path fill="none" stroke="rgb(179,179,179)" stroke-linejoin="round" d="M 16710,14534 L 16710,14422"/>
 <path fill="none" stroke="rgb(179,179,179)" stroke-linejoin="round" d="M 16710,14534 L 16710,14422"/>
 <path fill="none" stroke="rgb(179,179,179)" stroke-linejoin="round" d="M 16828,14534 L 16828,14422"/>
 <path fill="none" stroke="rgb(179,179,179)" stroke-linejoin="round" d="M 16828,14534 L 16828,14422"/>
 <path fill="none" stroke="rgb(179,179,179)" stroke-linejoin="round" d="M 16946,14534 L 16946,14422"/>
 <path fill="none" stroke="rgb(179,179,179)" stroke-linejoin="round" d="M 16946,14534 L 16946,14422"/>
 <path fill="none" stroke="rgb(179,179,179)" stroke-linejoin="round" d="M 17063,14534 L 17063,14422"/>
 <path fill="none" stroke="rgb(179,179,179)" stroke-linejoin="round" d="M 17063,14534 L 17063,14422"/>
 <path fill="none" stroke="rgb(179,179,179)" stroke-linejoin="round" d="M 17181,14534 L 17181,14422"/>
 <path fill="none" stroke="rgb(179,179,179)" stroke-linejoin="round" d="M 17181,14534 L 17181,14422"/>
 <path fill="none" stroke="rgb(179,179,179)" stroke-linejoin="round" d="M 17299,14534 L 17299,14422"/>
 <path fill="none" stroke="rgb(179,179,179)" stroke-linejoin="round" d="M 17299,14534 L 17299,14422"/>
 <path fill="none" stroke="rgb(179,179,179)" stroke-linejoin="round" d="M 17417,14534 L 17417,14422"/>
 <path fill="none" stroke="rgb(179,179,179)" stroke-linejoin="round" d="M 17417,14534 L 17417,14422"/>
 <path fill="none" stroke="rgb(179,179,179)" stroke-linejoin="round" d="M 17535,14534 L 17535,14422"/>
 <path fill="none" stroke="rgb(179,179,179)" stroke-linejoin="round" d="M 17535,14534 L 17535,14422"/>
 <path fill="none" stroke="rgb(179,179,179)" stroke-linejoin="round" d="M 17653,14534 L 17653,14422"/>
 <path fill="none" stroke="rgb(179,179,179)" stroke-linejoin="round" d="M 17653,14534 L 17653,14422"/>
 <path fill="none" stroke="rgb(179,179,179)" stroke-linejoin="round" d="M 17771,14534 L 17771,14422"/>
 <path fill="none" stroke="rgb(179,179,179)" stroke-linejoin="round" d="M 17771,14534 L 17771,14422"/>
 <path fill="none" stroke="rgb(179,179,179)" stroke-linejoin="round" d="M 17889,14534 L 17889,14422"/>
 <path fill="none" stroke="rgb(179,179,179)" stroke-linejoin="round" d="M 17889,14534 L 17889,14422"/>
 <path fill="none" stroke="rgb(179,179,179)" stroke-linejoin="round" d="M 18007,14534 L 18007,14422"/>
 <path fill="none" stroke="rgb(179,179,179)" stroke-linejoin="round" d="M 18007,14534 L 18007,14422"/>
 <path fill="none" stroke="rgb(179,179,179)" stroke-linejoin="round" d="M 18125,14534 L 18125,14422"/>
 <path fill="none" stroke="rgb(179,179,179)" stroke-linejoin="round" d="M 18125,14534 L 18125,14422"/>
 <path fill="none" stroke="rgb(179,179,179)" stroke-linejoin="round" d="M 18243,14534 L 18243,14422"/>
 <path fill="none" stroke="rgb(179,179,179)" stroke-linejoin="round" d="M 18243,14534 L 18243,14422"/>
 <path fill="none" stroke="rgb(179,179,179)" stroke-linejoin="round" d="M 18361,14534 L 18361,14422"/>
 <path fill="none" stroke="rgb(179,179,179)" stroke-linejoin="round" d="M 18361,14534 L 18361,14422"/>
 <path fill="none" stroke="rgb(179,179,179)" stroke-linejoin="round" d="M 18479,14534 L 18479,14422"/>
 <path fill="none" stroke="rgb(179,179,179)" stroke-linejoin="round" d="M 18479,14534 L 18479,14422"/>
 <path fill="none" stroke="rgb(179,179,179)" stroke-linejoin="round" d="M 18597,14534 L 18597,14422"/>
 <path fill="none" stroke="rgb(179,179,179)" stroke-linejoin="round" d="M 18597,14534 L 18597,14422"/>
 <path fill="none" stroke="rgb(179,179,179)" stroke-linejoin="round" d="M 18714,14534 L 18714,14422"/>
 <path fill="none" stroke="rgb(179,179,179)" stroke-linejoin="round" d="M 18714,14534 L 18714,14422"/>
 <path fill="none" stroke="rgb(179,179,179)" stroke-linejoin="round" d="M 18832,14534 L 18832,14422"/>
 <path fill="none" stroke="rgb(179,179,179)" stroke-linejoin="round" d="M 18832,14534 L 18832,14422"/>
 <path fill="none" stroke="rgb(179,179,179)" stroke-linejoin="round" d="M 18950,14534 L 18950,14422"/>
 <path fill="none" stroke="rgb(179,179,179)" stroke-linejoin="round" d="M 18950,14534 L 18950,14422"/>
 <path fill="none" stroke="rgb(179,179,179)" stroke-linejoin="round" d="M 19068,14534 L 19068,14422"/>
 <path fill="none" stroke="rgb(179,179,179)" stroke-linejoin="round" d="M 19068,14534 L 19068,14422"/>
 <path fill="none" stroke="rgb(179,179,179)" stroke-linejoin="round" d="M 19186,14534 L 19186,14422"/>
 <path fill="none" stroke="rgb(179,179,179)" stroke-linejoin="round" d="M 19186,14534 L 19186,14422"/>
 <path fill="none" stroke="rgb(179,179,179)" stroke-linejoin="round" d="M 19304,14534 L 19304,14422"/>
 <path fill="none" stroke="rgb(179,179,179)" stroke-linejoin="round" d="M 19304,14534 L 19304,14422"/>
 <path fill="none" stroke="rgb(179,179,179)" stroke-linejoin="round" d="M 19422,14534 L 19422,14422"/>
 <path fill="none" stroke="rgb(179,179,179)" stroke-linejoin="round" d="M 19422,14534 L 19422,14422"/>
 <path fill="none" stroke="rgb(179,179,179)" stroke-linejoin="round" d="M 19540,14534 L 19540,14422"/>
 <path fill="none" stroke="rgb(179,179,179)" stroke-linejoin="round" d="M 19540,14534 L 19540,14422"/>
 <path fill="none" stroke="rgb(179,179,179)" stroke-linejoin="round" d="M 19658,14534 L 19658,14422"/>
 <path fill="none" stroke="rgb(179,179,179)" stroke-linejoin="round" d="M 19658,14534 L 19658,14422"/>
 <path fill="none" stroke="rgb(179,179,179)" stroke-linejoin="round" d="M 19776,14534 L 19776,14422"/>
 <path fill="none" stroke="rgb(179,179,179)" stroke-linejoin="round" d="M 19776,14534 L 19776,14422"/>
 <path fill="none" stroke="rgb(179,179,179)" stroke-linejoin="round" d="M 19894,14534 L 19894,14422"/>
 <path fill="none" stroke="rgb(179,179,179)" stroke-linejoin="round" d="M 19894,14534 L 19894,14422"/>
 <path fill="none" stroke="rgb(179,179,179)" stroke-linejoin="round" d="M 20012,14534 L 20012,14422"/>
 <path fill="none" stroke="rgb(179,179,179)" stroke-linejoin="round" d="M 20012,14534 L 20012,14422"/>
 <path fill="none" stroke="rgb(179,179,179)" stroke-linejoin="round" d="M 20130,14534 L 20130,14422"/>
 <path fill="none" stroke="rgb(179,179,179)" stroke-linejoin="round" d="M 20130,14534 L 20130,14422"/>
 <path fill="none" stroke="rgb(179,179,179)" stroke-linejoin="round" d="M 20247,14534 L 20247,14422"/>
 <path fill="none" stroke="rgb(179,179,179)" stroke-linejoin="round" d="M 20247,14534 L 20247,14422"/>
 <path fill="none" stroke="rgb(179,179,179)" stroke-linejoin="round" d="M 20365,14534 L 20365,14422"/>
 <path fill="none" stroke="rgb(179,179,179)" stroke-linejoin="round" d="M 20365,14534 L 20365,14422"/>
 <path fill="none" stroke="rgb(179,179,179)" stroke-linejoin="round" d="M 20483,14534 L 20483,14422"/>
 <path fill="none" stroke="rgb(179,179,179)" stroke-linejoin="round" d="M 20483,14534 L 20483,14422"/>
 <path fill="none" stroke="rgb(179,179,179)" stroke-linejoin="round" d="M 20601,14534 L 20601,14422"/>
 <path fill="none" stroke="rgb(179,179,179)" stroke-linejoin="round" d="M 20601,14534 L 20601,14422"/>
 <path fill="none" stroke="rgb(179,179,179)" stroke-linejoin="round" d="M 20719,14534 L 20719,14422"/>
 <path fill="none" stroke="rgb(179,179,179)" stroke-linejoin="round" d="M 20719,14534 L 20719,14422"/>
 <path fill="none" stroke="rgb(179,179,179)" stroke-linejoin="round" d="M 20837,14534 L 20837,14422"/>
 <path fill="none" stroke="rgb(179,179,179)" stroke-linejoin="round" d="M 20837,14534 L 20837,14422"/>
 <path fill="none" stroke="rgb(179,179,179)" stroke-linejoin="round" d="M 20955,14534 L 20955,14422"/>
 <path fill="none" stroke="rgb(179,179,179)" stroke-linejoin="round" d="M 20955,14534 L 20955,14422"/>
 <path fill="none" stroke="rgb(179,179,179)" stroke-linejoin="round" d="M 21073,14534 L 21073,14422"/>
 <path fill="none" stroke="rgb(179,179,179)" stroke-linejoin="round" d="M 21073,14534 L 21073,14422"/>
 <path fill="none" stroke="rgb(179,179,179)" stroke-linejoin="round" d="M 21191,14534 L 21191,14422"/>
 <path fill="none" stroke="rgb(179,179,179)" stroke-linejoin="round" d="M 21191,14534 L 21191,14422"/>
 <path fill="none" stroke="rgb(179,179,179)" stroke-linejoin="round" d="M 21309,14534 L 21309,14422"/>
 <path fill="none" stroke="rgb(179,179,179)" stroke-linejoin="round" d="M 21309,14534 L 21309,14422"/>
 <path fill="none" stroke="rgb(179,179,179)" stroke-linejoin="round" d="M 21427,14534 L 21427,14422"/>
 <path fill="none" stroke="rgb(179,179,179)" stroke-linejoin="round" d="M 21427,14534 L 21427,14422"/>
 <path fill="none" stroke="rgb(179,179,179)" stroke-linejoin="round" d="M 21545,14534 L 21545,14422"/>
 <path fill="none" stroke="rgb(179,179,179)" stroke-linejoin="round" d="M 21545,14534 L 21545,14422"/>
 <path fill="none" stroke="rgb(179,179,179)" stroke-linejoin="round" d="M 21663,14534 L 21663,14422"/>
 <path fill="none" stroke="rgb(179,179,179)" stroke-linejoin="round" d="M 21663,14534 L 21663,14422"/>
 <path fill="none" stroke="rgb(179,179,179)" stroke-linejoin="round" d="M 21781,14534 L 21781,14422"/>
 <path fill="none" stroke="rgb(179,179,179)" stroke-linejoin="round" d="M 21781,14534 L 21781,14422"/>
 <path fill="none" stroke="rgb(179,179,179)" stroke-linejoin="round" d="M 21898,14534 L 21898,14422"/>
 <path fill="none" stroke="rgb(179,179,179)" stroke-linejoin="round" d="M 21898,14534 L 21898,14422"/>
 <path fill="none" stroke="rgb(179,179,179)" stroke-linejoin="round" d="M 22016,14534 L 22016,14422"/>
 <path fill="none" stroke="rgb(179,179,179)" stroke-linejoin="round" d="M 22016,14534 L 22016,14422"/>
 <path fill="none" stroke="rgb(179,179,179)" stroke-linejoin="round" d="M 22134,14534 L 22134,14422"/>
 <path fill="none" stroke="rgb(179,179,179)" stroke-linejoin="round" d="M 22134,14534 L 22134,14422"/>
 <path fill="none" stroke="rgb(179,179,179)" stroke-linejoin="round" d="M 22252,14534 L 22252,14422"/>
 <path fill="none" stroke="rgb(179,179,179)" stroke-linejoin="round" d="M 22252,14534 L 22252,14422"/>
 <path fill="none" stroke="rgb(179,179,179)" stroke-linejoin="round" d="M 22370,14534 L 22370,14422"/>
 <path fill="none" stroke="rgb(179,179,179)" stroke-linejoin="round" d="M 22370,14534 L 22370,14422"/>
 <path fill="none" stroke="rgb(179,179,179)" stroke-linejoin="round" d="M 22488,14534 L 22488,14422"/>
 <path fill="none" stroke="rgb(179,179,179)" stroke-linejoin="round" d="M 22488,14534 L 22488,14422"/>
 <path fill="none" stroke="rgb(179,179,179)" stroke-linejoin="round" d="M 22606,14534 L 22606,14422"/>
 <path fill="none" stroke="rgb(179,179,179)" stroke-linejoin="round" d="M 22606,14534 L 22606,14422"/>
 <path fill="none" stroke="rgb(179,179,179)" stroke-linejoin="round" d="M 22724,14534 L 22724,14422"/>
 <path fill="none" stroke="rgb(179,179,179)" stroke-linejoin="round" d="M 22724,14534 L 22724,14422"/>
 <path fill="none" stroke="rgb(179,179,179)" stroke-linejoin="round" d="M 22842,14534 L 22842,14422"/>
 <path fill="none" stroke="rgb(179,179,179)" stroke-linejoin="round" d="M 22842,14534 L 22842,14422"/>
 <path fill="none" stroke="rgb(179,179,179)" stroke-linejoin="round" d="M 22960,14534 L 22960,14422"/>
 <path fill="none" stroke="rgb(179,179,179)" stroke-linejoin="round" d="M 22960,14534 L 22960,14422"/>
 <path fill="none" stroke="rgb(179,179,179)" stroke-linejoin="round" d="M 23078,14534 L 23078,14422"/>
 <path fill="none" stroke="rgb(179,179,179)" stroke-linejoin="round" d="M 23078,14534 L 23078,14422"/>
 <path fill="none" stroke="rgb(179,179,179)" stroke-linejoin="round" d="M 23196,14534 L 23196,14422"/>
 <path fill="none" stroke="rgb(179,179,179)" stroke-linejoin="round" d="M 23196,14534 L 23196,14422"/>
 <path fill="none" stroke="rgb(179,179,179)" stroke-linejoin="round" d="M 23314,14534 L 23314,14422"/>
 <path fill="none" stroke="rgb(179,179,179)" stroke-linejoin="round" d="M 23314,14534 L 23314,14422"/>
 <path fill="none" stroke="rgb(179,179,179)" stroke-linejoin="round" d="M 23432,14534 L 23432,14422"/>
 <path fill="none" stroke="rgb(179,179,179)" stroke-linejoin="round" d="M 23432,14534 L 23432,14422"/>
 <path fill="none" stroke="rgb(179,179,179)" stroke-linejoin="round" d="M 2560,14422 L 23432,14422"/>
 <path fill="none" stroke="rgb(179,179,179)" stroke-linejoin="round" d="M 2410,14422 L 2560,14422"/>
 <path fill="none" stroke="rgb(179,179,179)" stroke-linejoin="round" d="M 2410,14422 L 2560,14422"/>
 <path fill="none" stroke="rgb(179,179,179)" stroke-linejoin="round" d="M 2410,13139 L 2560,13139"/>
 <path fill="none" stroke="rgb(179,179,179)" stroke-linejoin="round" d="M 2410,13139 L 2560,13139"/>
 <path fill="none" stroke="rgb(179,179,179)" stroke-linejoin="round" d="M 2410,11856 L 2560,11856"/>
 <path fill="none" stroke="rgb(179,179,179)" stroke-linejoin="round" d="M 2410,11856 L 2560,11856"/>
 <path fill="none" stroke="rgb(179,179,179)" stroke-linejoin="round" d="M 2410,10573 L 2560,10573"/>
 <path fill="none" stroke="rgb(179,179,179)" stroke-linejoin="round" d="M 2410,10573 L 2560,10573"/>
 <path fill="none" stroke="rgb(179,179,179)" stroke-linejoin="round" d="M 2410,9290 L 2560,9290"/>
 <path fill="none" stroke="rgb(179,179,179)" stroke-linejoin="round" d="M 2410,9290 L 2560,9290"/>
 <path fill="none" stroke="rgb(179,179,179)" stroke-linejoin="round" d="M 2410,8008 L 2560,8008"/>
 <path fill="none" stroke="rgb(179,179,179)" stroke-linejoin="round" d="M 2410,8008 L 2560,8008"/>
 <path fill="none" stroke="rgb(179,179,179)" stroke-linejoin="round" d="M 2410,6725 L 2560,6725"/>
 <path fill="none" stroke="rgb(179,179,179)" stroke-linejoin="round" d="M 2410,6725 L 2560,6725"/>
 <path fill="none" stroke="rgb(179,179,179)" stroke-linejoin="round" d="M 2410,5442 L 2560,5442"/>
 <path fill="none" stroke="rgb(179,179,179)" stroke-linejoin="round" d="M 2410,5442 L 2560,5442"/>
 <path fill="none" stroke="rgb(179,179,179)" stroke-linejoin="round" d="M 2410,4159 L 2560,4159"/>
 <path fill="none" stroke="rgb(179,179,179)" stroke-linejoin="round" d="M 2410,4159 L 2560,4159"/>
 <path fill="none" stroke="rgb(179,179,179)" stroke-linejoin="round" d="M 2410,2876 L 2560,2876"/>
 <path fill="none" stroke="rgb(179,179,179)" stroke-linejoin="round" d="M 2410,2876 L 2560,2876"/>
 <path fill="none" stroke="rgb(179,179,179)" stroke-linejoin="round" d="M 2410,1593 L 2560,1593"/>
 <path fill="none" stroke="rgb(179,179,179)" stroke-linejoin="round" d="M 2410,1593 L 2560,1593"/>
 <path fill="none" stroke="rgb(179,179,179)" stroke-linejoin="round" d="M 2560,14422 L 2560,1593"/>
 <path fill="none" stroke="rgb(0,69,134)" stroke-width="80" stroke-linejoin="round" d="M 3326,14422 L 3444,14422 3562,14422 3680,14422 3798,14422 3916,14422 4034,14422 4152,10283 4269,10283 4387,5035 4505,5963 4623,2138 4741,6233 4859,6955 4977,6309 5095,4520 5213,4379 5331,3639 5449,6288 5567,6259 5685,6815 5802,6747 5920,6326 6038,6323 6156,6743 6274,6958 6392,7723 6510,8131 6628,8136 6746,8308 6864,8177 6982,8350 7100,8801 7218,8996 7336,9229 7453,9219 7571,9260 7689,9281 7807,9398 7925,9583 8043,9632 8161,9625 8279,9710 8397,9699 8515,9656 8633,9736 8751,9715 8869,9720 8986,9663 9104,9705 9222,9736 9340,9733 9458,9708 9576,9602 9694,9606 9812,9605 9930,9570 10048,9562 10166,9583 10284,9512 10402,9528 10520,9530 10637,9524 10755,9508 10873,9548 10991,9514 11109,9530 11227,9533 11345,9466 11463,9445 11581,9446 11699,9447 11816,9474 11934,9503 12052,9521 12170,9553 12287,9581 12405,9577 12523,9625 12641,9629 12759,9640 12877,9644 12995,9661 13113,9702 13231,9737 13349,9747 13467,9772 13585,9762 13703,9817 13820,9831 13938,9862 14056,9867 14174,9870 14292,9886 14410,9895 14528,9908 14646,9911 14764,9916 14882,9944 15000,9976 15118,9961 15236,9942 15354,9930 15471,9916 15589,9940 15707,9967 15825,9985 15943,9993 16061,10015 16179,10016 16297,10069 16415,10111 16533,10168 16651,10154 16769,10193 16887,10243 17005,10267 17122,10330 17240,10424 17358,10529 17476,10585 17594,10611 17712,10640 17830,10681 17948,10693 18066,10729 18184,10741 18302,10756 18420,10780 18538,10777 18655,10797 18773,10780 18891,10812 19009,10808 19127,10806 19245,10825 19363,10861 19481,10849 19599,10855 19717,10875 19835,10889 19953,10909 20071,10991 20189,11005 20306,11041 20424,11112 20542,11141 20660,11156 20778,11197 20896,11246 21014,11304 21132,11357 21250,11372 21368,11387 21486,11390 21604,11412 21722,11445 21839,11465 21957,11484 22075,11502 22193,11530 22311,11541 22429,11542 22547,11580 22665,11610 22783,11657 22901,11692 23019,11706 23137,11710 23255,11729 23373,11759"/>
 <path fill="none" stroke="rgb(255,66,14)" stroke-width="80" stroke-linejoin="round" d="M 3208,14422 L 3326,14422 3444,14422 3562,14422 3680,14422 3798,14422 3916,14422 4034,14422 4152,10283 4269,11292 4387,10192 4505,6233 4623,6233 4741,8312 4859,8843 4977,7534 5095,6971 5213,5851 5331,7213 5449,7646 5567,7588 5685,7664 5802,7468 5920,7244 6038,7596 6156,7824 6274,8116 6392,8618 6510,8546 6628,8522 6746,8875 6864,8533 6982,8901 7100,9121 7218,9458 7336,9359 7453,9473 7571,9460 7689,9567 7807,9630 7925,9721 8043,9713 8161,9753 8279,9763 8397,9740 8515,9736 8633,9894 8751,9798 8869,9760 8986,9762 9104,9810 9222,9824 9340,9798 9458,9744 9576,9659 9694,9657 9812,9639 9930,9596 10048,9600 10166,9631 10284,9578 10402,9563 10520,9541 10637,9541 10755,9532 10873,9596 10991,9562 11109,9565 11227,9561 11345,9477 11463,9462 11581,9478 11699,9474 11816,9503 11934,9551 12052,9553 12170,9581 12287,9592 12405,9640 12523,9659 12641,9670 12759,9658 12877,9676 12995,9702 13113,9737 13231,9761 13349,9772 13467,9790 13585,9789 13703,9845 13820,9848 13938,9881 14056,9884 14174,9900 14292,9922 14410,9921 14528,9924 14646,9929 14764,9944 14882,9976 15000,10001 15118,9994 15236,9956 15354,9968 15471,9940 15589,9955 15707,9985 15825,10006 15943,10015 16061,10066 16179,10069 16297,10087 16415,10132 16533,10179 16651,10205 16769,10243 16887,10279 17005,10330 17122,10424 17240,10529 17358,10596 17476,10633 17594,10640 17712,10681 17830,10724 17948,10729 18066,10751 18184,10756 18302,10790 18420,10817 18538,10807 18655,10820 18773,10812 18891,10828 19009,10826 19127,10834 19245,10861 19363,10896 19481,10883 19599,10884 19717,10898 19835,10927 19953,10964 20071,11049 20189,11058 20306,11104 20424,11141 20542,11165 20660,11197 20778,11254 20896,11304 21014,11357 21132,11395 21250,11394 21368,11405 21486,11427 21604,11460 21722,11486 21839,11498 21957,11537 22075,11530 22193,11548 22311,11563 22429,11587 22547,11623 22665,11657 22783,11698 22901,11719 23019,11722 23137,11735 23255,11766 23373,11800"/>
 <path fill="none" stroke="rgb(255,211,32)" stroke-width="80" stroke-linejoin="round" d="M 3090,14422 L 3208,14422 3326,14422 3444,14422 3562,14422 3680,14422 3798,14422 3916,14422 4034,14422 4152,11292 4269,13012 4387,10327 4505,8962 4623,8312 4741,9857 4859,9686 4977,9238 5095,8063 5213,8691 5331,8415 5449,8748 5567,8350 5685,8297 5802,8255 5920,8371 6038,8556 6156,8848 6274,8960 6392,9002 6510,8906 6628,9069 6746,9191 6864,9067 6982,9215 7100,9573 7218,9583 7336,9606 7453,9665 7571,9736 7689,9791 7807,9766 7925,9801 8043,9839 8161,9805 8279,9803 8397,9819 8515,9894 8633,9974 8751,9838 8869,9857 8986,9866 9104,9897 9222,9888 9340,9834 9458,9800 9576,9710 9694,9691 9812,9665 9930,9634 10048,9648 10166,9695 10284,9613 10402,9574 10520,9557 10637,9565 10755,9579 10873,9643 10991,9597 11109,9593 11227,9572 11345,9494 11463,9494 11581,9505 11699,9503 11816,9551 11934,9583 12052,9581 12170,9592 12287,9655 12405,9673 12523,9699 12641,9688 12759,9690 12877,9717 12995,9737 13113,9761 13231,9786 13349,9790 13467,9817 13585,9817 13703,9862 13820,9867 13938,9897 14056,9914 14174,9935 14292,9948 14410,9938 14528,9942 14646,9957 14764,9976 14882,10001 15000,10033 15118,10008 15236,9993 15354,9991 15471,9955 15589,9972 15707,10006 15825,10028 15943,10066 16061,10119 16179,10087 16297,10107 16415,10142 16533,10229 16651,10255 16769,10279 16887,10342 17005,10424 17122,10529 17240,10596 17358,10644 17476,10662 17594,10681 17712,10724 17830,10760 17948,10751 18066,10766 18184,10790 18302,10827 18420,10846 18538,10829 18655,10851 18773,10828 18891,10845 19009,10854 19127,10870 19245,10896 19363,10930 19481,10912 19599,10907 19717,10936 19835,10982 19953,11022 20071,11101 20189,11121 20306,11132 20424,11165 20542,11205 20660,11254 20778,11312 20896,11357 21014,11395 21132,11417 21250,11413 21368,11442 21486,11475 21604,11501 21722,11520 21839,11551 21957,11565 22075,11548 22193,11570 22311,11607 22429,11630 22547,11670 22665,11698 22783,11725 22901,11735 23019,11748 23137,11772 23255,11806 23373,11831"/>
 <path fill="none" stroke="rgb(87,157,28)" stroke-width="80" stroke-linejoin="round" d="M 2972,14422 L 3090,14422 3208,14422 3326,14422 3444,14422 3562,14422 3680,14422 3798,14422 3916,14422 4034,14422 4152,13012 4269,13057 4387,11692 4505,10348 4623,9857 4741,10547 4859,10858 4977,9997 5095,10169 5213,9647 5331,9393 5449,9381 5567,8920 5685,8991 5802,9224 5920,9223 6038,9467 6156,9594 6274,9320 6392,9334 6510,9418 6628,9374 6746,9666 6864,9372 6982,9659 7100,9695 7218,9818 7336,9793 7453,9929 7571,9952 7689,9922 7807,9845 7925,9924 8043,9890 8161,9845 8279,9881 8397,9974 8515,9974 8633,10013 8751,9933 8869,9959 8986,9952 9104,9960 9222,9923 9340,9888 9458,9849 9576,9743 9694,9717 9812,9703 9930,9682 10048,9712 10166,9729 10284,9624 10402,9590 10520,9581 10637,9612 10755,9627 10873,9677 10991,9624 11109,9603 11227,9588 11345,9526 11463,9521 11581,9534 11699,9551 11816,9583 11934,9611 12052,9592 12170,9655 12287,9688 12405,9714 12523,9717 12641,9719 12759,9731 12877,9751 12995,9761 13113,9786 13231,9804 13349,9817 13467,9845 13585,9834 13703,9881 13820,9884 13938,9927 14056,9949 14174,9962 14292,9965 14410,9956 14528,9971 14646,9989 14764,10001 14882,10033 15000,10047 15118,10045 15236,10017 15354,10006 15471,9972 15589,9993 15707,10028 15825,10078 15943,10119 16061,10136 16179,10107 16297,10118 16415,10193 16533,10279 16651,10290 16769,10342 16887,10436 17005,10529 17122,10596 17240,10644 17358,10672 17476,10703 17594,10724 17712,10760 17830,10782 17948,10766 18066,10801 18184,10827 18302,10856 18420,10869 18538,10861 18655,10867 18773,10845 18891,10873 19009,10889 19127,10906 19245,10930 19363,10958 19481,10935 19599,10945 19717,10991 19835,11040 19953,11075 20071,11163 20189,11149 20306,11156 20424,11205 20542,11263 20660,11312 20778,11365 20896,11395 21014,11417 21132,11435 21250,11449 21368,11490 21486,11516 21604,11534 21722,11573 21839,11579 21957,11583 22075,11570 22193,11614 22311,11650 22429,11677 22547,11711 22665,11725 22783,11742 22901,11760 23019,11784 23137,11812 23255,11837 23373,11891"/>
 <path fill="none" stroke="rgb(126,0,33)" stroke-width="80" stroke-linejoin="round" d="M 2854,14422 L 2972,14422 3090,14422 3208,14422 3326,14422 3444,14422 3562,14422 3680,14422 3798,14422 3916,14422 4034,14422 4152,13057 4269,13512 4387,12385 4505,11379 4623,10547 4741,11506 4859,11380 4977,11464 5095,10879 5213,10424 5331,9954 5449,9854 5567,9544 5685,9845 5802,9956 5920,10030 6038,10130 6156,9913 6274,9633 6392,9806 6510,9704 6628,9832 6746,9937 6864,9802 6982,9778 7100,9925 7218,9997 7336,10050 7453,10136 7571,10079 7689,9999 7807,9967 7925,9975 8043,9929 8161,9922 8279,10034 8397,10053 8515,10013 8633,10104 8751,10033 8869,10043 8986,10014 9104,9994 9222,9976 9340,9937 9458,9881 9576,9769 9694,9754 9812,9749 9930,9745 10048,9745 10166,9740 10284,9640 10402,9614 10520,9628 10637,9659 10755,9661 10873,9704 10991,9635 11109,9620 11227,9620 11345,9552 11463,9550 11581,9582 11699,9583 11816,9611 11934,9623 12052,9655 12170,9688 12287,9728 12405,9732 12523,9748 12641,9760 12759,9765 12877,9775 12995,9786 13113,9804 13231,9831 13349,9845 13467,9862 13585,9853 13703,9897 13820,9914 13938,9963 14056,9975 14174,9978 14292,9983 14410,9984 14528,10002 14646,10014 14764,10033 14882,10047 15000,10084 15118,10068 15236,10031 15354,10023 15471,9993 15589,10015 15707,10078 15825,10131 15943,10136 16061,10156 16179,10118 16297,10169 16415,10243 16533,10314 16651,10353 16769,10436 16887,10540 17005,10596 17122,10644 17240,10672 17358,10713 17476,10745 17594,10760 17712,10782 17830,10797 17948,10801 18066,10837 18184,10856 18302,10879 18420,10900 18538,10877 18655,10884 18773,10873 18891,10908 19009,10925 19127,10939 19245,10958 19363,10981 19481,10972 19599,11000 19717,11049 19835,11093 19953,11138 20071,11191 20189,11173 20306,11197 20424,11263 20542,11320 20660,11365 20778,11402 20896,11417 21014,11435 21132,11472 21250,11497 21368,11530 21486,11549 21604,11587 21722,11600 21839,11597 21957,11605 22075,11614 22193,11657 22311,11697 22429,11718 22547,11738 22665,11742 22783,11767 22901,11797 23019,11824 23137,11843 23255,11897 23373,11919"/>
 <path fill="none" stroke="rgb(131,202,255)" stroke-width="80" stroke-linejoin="round" d="M 2736,14422 L 2854,14422 2972,14422 3090,14422 3208,14422 3326,14422 3444,14422 3562,14422 3680,14422 3798,14422 3916,14422 4034,14422 4152,13512 4269,13743 4387,12900 4505,11838 4623,11506 4741,11933 4859,12388 4977,11957 5095,11456 5213,10870 5331,10373 5449,10372 5567,10310 5685,10489 5802,10650 5920,10618 6038,10414 6156,10189 6274,10078 6392,10069 6510,10132 6628,10094 6746,10319 6864,9918 6982,10005 7100,10100 7218,10243 7336,10252 7453,10258 7571,10153 7689,10117 7807,10017 7925,10013 8043,10004 8161,10074 8279,10112 8397,10090 8515,10104 8633,10201 8751,10116 8869,10104 8986,10048 9104,10047 9222,10024 9340,9968 9458,9906 9576,9805 9694,9800 9812,9812 9930,9778 10048,9756 10166,9755 10284,9663 10402,9661 10520,9675 10637,9693 10755,9688 10873,9714 10991,9652 11109,9651 11227,9646 11345,9581 11463,9597 11581,9614 11699,9611 11816,9623 11934,9685 12052,9688 12170,9728 12287,9746 12405,9763 12523,9789 12641,9794 12759,9789 12877,9800 12995,9804 13113,9831 13231,9859 13349,9862 13467,9881 13585,9870 13703,9927 13820,9949 13938,9989 14056,9992 14174,9996 14292,10011 14410,10016 14528,10027 14646,10046 14764,10047 14882,10084 15000,10107 15118,10083 15236,10049 15354,10044 15471,10015 15589,10066 15707,10131 15825,10148 15943,10156 16061,10166 16179,10169 16297,10219 16415,10279 16533,10377 16651,10447 16769,10540 16887,10607 17005,10644 17122,10672 17240,10713 17358,10755 17476,10781 17594,10782 17712,10797 17830,10831 17948,10837 18066,10866 18184,10879 18302,10910 18420,10916 18538,10894 18655,10911 18773,10908 18891,10943 19009,10958 19127,10967 19245,10981 19363,11018 19481,11027 19599,11058 19717,11101 19835,11155 19953,11166 20071,11215 20189,11213 20306,11254 20424,11320 20542,11373 20660,11402 20778,11425 20896,11435 21014,11472 21132,11519 21250,11538 21368,11563 21486,11601 21604,11614 21722,11618 21839,11619 21957,11648 22075,11657 22193,11704 22311,11737 22429,11745 22547,11754 22665,11767 22783,11803 22901,11837 23019,11855 23137,11903 23255,11925 23373,11934"/>
 <path fill="none" stroke="rgb(49,64,4)" stroke-width="80" stroke-linejoin="round" d="M 2618,14422 L 2736,14422 2854,14422 2972,14422 3090,14422 3208,14422 3326,14422 3444,14422 3562,14422 3680,14422 3798,14422 3916,14422 4034,14422 4152,13743 4269,13914 4387,13130 4505,12478 4623,11933 4741,12758 4859,12727 4977,12358 5095,11787 5213,11204 5331,10832 5449,11008 5567,10889 5685,11100 5802,11154 5920,10869 6038,10659 6156,10582 6274,10325 6392,10464 6510,10376 6628,10462 6746,10422 6864,10138 6982,10176 7100,10340 7218,10436 7336,10370 7453,10329 7571,10267 7689,10165 7807,10055 7925,10087 8043,10153 8161,10151 8279,10149 8397,10180 8515,10201 8633,10280 8751,10176 8869,10137 8986,10100 9104,10094 9222,10055 9340,9993 9458,9942 9576,9851 9694,9862 9812,9845 9930,9789 10048,9772 10166,9778 10284,9709 10402,9707 10520,9709 10637,9720 10755,9698 10873,9730 10991,9682 11109,9677 11227,9674 11345,9628 11463,9629 11581,9642 11699,9623 11816,9685 11934,9718 12052,9728 12170,9746 12287,9777 12405,9803 12523,9822 12641,9818 12759,9814 12877,9818 12995,9831 13113,9859 13231,9876 13349,9881 13467,9897 13585,9900 13703,9963 13820,9975 13938,10005 14056,10009 14174,10024 14292,10042 14410,10040 14528,10060 14646,10060 14764,10084 14882,10107 15000,10121 15118,10100 15236,10069 15354,10066 15471,10066 15589,10119 15707,10148 15825,10168 15943,10166 16061,10217 16179,10219 16297,10255 16415,10342 16533,10470 16651,10551 16769,10607 16887,10654 17005,10672 17122,10713 17240,10755 17358,10791 17476,10803 17594,10797 17712,10831 17830,10867 17948,10866 18066,10889 18184,10910 18302,10925 18420,10932 18538,10921 18655,10946 18773,10943 18891,10976 19009,10986 19127,10990 19245,11018 19363,11072 19481,11084 19599,11110 19717,11163 19835,11183 19953,11190 20071,11255 20189,11271 20306,11312 20424,11373 20542,11410 20660,11425 20778,11443 20896,11472 21014,11519 21132,11560 21250,11571 21368,11615 21486,11628 21604,11632 21722,11640 21839,11662 21957,11691 22075,11704 22193,11744 22311,11764 22429,11761 22547,11780 22665,11803 22783,11843 22901,11867 23019,11915 23137,11931 23255,11940 23373,11963"/>
 <path fill="none" stroke="rgb(174,207,0)" stroke-width="80" stroke-linejoin="round" d="M 2618,14422 L 2736,14422 2854,14422 2972,14422 3090,14422 3208,14422 3326,14422 3444,14422 3562,14422 3680,14422 3798,14422 3916,14422 4034,14422 4152,13914 4269,13991 4387,13450 4505,12762 4623,12758 4741,13035 4859,13003 4977,12589 5095,12034 5213,11568 5331,11396 5449,11489 5567,11438 5685,11544 5802,11370 5920,11087 6038,11008 6156,10801 6274,10697 6392,10689 6510,10721 6628,10562 6746,10617 6864,10304 6982,10412 7100,10528 7218,10549 7336,10439 7453,10438 7571,10314 7689,10202 7807,10128 7925,10233 8043,10229 8161,10188 8279,10237 8397,10275 8515,10280 8633,10338 8751,10209 8869,10188 8986,10146 9104,10124 9222,10079 9340,10027 9458,9986 9576,9912 9694,9894 9812,9855 9930,9805 10048,9794 10166,9823 10284,9755 10402,9741 10520,9736 10637,9730 10755,9715 10873,9761 10991,9708 11109,9705 11227,9720 11345,9659 11463,9657 11581,9653 11699,9685 11816,9718 11934,9758 12052,9746 12170,9777 12287,9818 12405,9837 12523,9846 12641,9842 12759,9832 12877,9845 12995,9859 13113,9876 13231,9895 13349,9897 13467,9927 13585,9935 13703,9989 13820,9992 13938,10023 14056,10037 14174,10055 14292,10066 14410,10073 14528,10073 14646,10097 14764,10107 14882,10121 15000,10138 15118,10120 15236,10091 15354,10116 15471,10119 15589,10136 15707,10168 15825,10179 15943,10217 16061,10267 16179,10255 16297,10318 16415,10436 16533,10573 16651,10618 16769,10654 16887,10683 17005,10713 17122,10755 17240,10791 17358,10813 17476,10817 17594,10831 17712,10867 17830,10896 17948,10889 18066,10919 18184,10925 18302,10942 18420,10959 18538,10956 18655,10981 18773,10976 18891,11004 19009,11008 19127,11027 19245,11072 19363,11128 19481,11136 19599,11172 19717,11191 19835,11206 19953,11230 20071,11311 20189,11328 20306,11365 20424,11410 20542,11433 20660,11443 20778,11480 20896,11519 21014,11560 21132,11592 21250,11622 21368,11642 21486,11646 21604,11653 21722,11682 21839,11704 21957,11737 22075,11744 22193,11770 22311,11780 22429,11786 22547,11816 22665,11843 22783,11873 22901,11927 23019,11943 23137,11946 23255,11969 23373,12003"/>
 <path fill="none" stroke="rgb(75,31,111)" stroke-width="80" stroke-linejoin="round" d="M 2618,14422 L 2736,14422 2854,14422 2972,14422 3090,14422 3208,14422 3326,14422 3444,14422 3562,14422 3680,14422 3798,14422 3916,14422 4034,14422 4152,13991 4269,14098 4387,13592 4505,13312 4623,13035 4741,13261 4859,13161 4977,12761 5095,12305 5213,12017 5331,11822 5449,11944 5567,11837 5685,11734 5802,11557 5920,11396 6038,11203 6156,11129 6274,10909 6392,11007 6510,10813 6628,10750 6746,10765 6864,10533 6982,10597 7100,10639 7218,10615 7336,10545 7453,10483 7571,10348 7689,10273 7807,10273 7925,10307 8043,10265 8161,10275 8279,10331 8397,10353 8515,10338 8633,10369 8751,10258 8869,10233 8986,10176 9104,10148 9222,10113 9340,10071 9458,10046 9576,9944 9694,9905 9812,9871 9930,9827 10048,9839 10166,9868 10284,9789 10402,9767 10520,9746 10637,9746 10755,9745 10873,9786 10991,9736 11109,9751 11227,9751 11345,9687 11463,9668 11581,9714 11699,9718 11816,9758 11934,9775 12052,9777 12170,9818 12287,9851 12405,9861 12523,9871 12641,9861 12759,9859 12877,9873 12995,9876 13113,9895 13231,9911 13349,9927 13467,9963 13585,9962 13703,10005 13820,10009 13938,10051 14056,10069 14174,10079 14292,10099 14410,10086 14528,10110 14646,10120 14764,10121 14882,10138 15000,10158 15118,10141 15236,10141 15354,10168 15471,10136 15589,10156 15707,10179 15825,10229 15943,10267 16061,10302 16179,10318 16297,10413 16415,10540 16533,10639 16651,10665 16769,10683 16887,10724 17005,10755 17122,10791 17240,10813 17358,10828 17476,10851 17594,10867 17712,10896 17830,10918 17948,10919 18066,10935 18184,10942 18302,10969 18420,10994 18538,10991 18655,11014 18773,11004 18891,11027 19009,11045 19127,11081 19245,11128 19363,11179 19481,11197 19599,11200 19717,11215 19835,11246 19953,11287 20071,11368 20189,11381 20306,11402 20424,11433 20542,11451 20660,11480 20778,11527 20896,11560 21014,11592 21132,11644 21250,11649 21368,11660 21486,11667 21604,11696 21722,11724 21839,11750 21957,11776 22075,11770 22193,11787 22311,11805 22429,11822 22547,11855 22665,11873 22783,11933 22901,11954 23019,11958 23137,11975 23255,12009 23373,12046"/>
 <path fill="none" stroke="rgb(255,149,14)" stroke-width="80" stroke-linejoin="round" d="M 2618,14422 L 2736,14422 2854,14422 2972,14422 3090,14422 3208,14422 3326,14422 3444,14422 3562,14422 3680,14422 3798,14422 3916,14422 4034,14422 4152,14098 4269,14145 4387,13867 4505,13497 4623,13261 4741,13391 4859,13280 4977,12949 5095,12637 5213,12355 5331,12226 5449,12276 5567,12008 5685,11899 5802,11823 5920,11569 6038,11495 6156,11317 6274,11208 6392,11093 6510,10989 6628,10892 6746,10968 6864,10712 6982,10706 7100,10703 7218,10717 7336,10589 7453,10516 7571,10417 7689,10413 7807,10347 7925,10343 8043,10352 8161,10368 8279,10408 8397,10410 8515,10369 8633,10417 8751,10303 8869,10263 8986,10199 9104,10181 9222,10156 9340,10129 9458,10077 9576,9955 9694,9920 9812,9893 9930,9872 10048,9884 10166,9900 10284,9815 10402,9778 10520,9762 10637,9777 10755,9771 10873,9813 10991,9782 11109,9782 11227,9778 11345,9698 11463,9729 11581,9748 11699,9758 11816,9775 11934,9807 12052,9818 12170,9851 12287,9875 12405,9885 12523,9889 12641,9887 12759,9887 12877,9890 12995,9895 13113,9911 13231,9941 13349,9963 13467,9989 13585,9978 13703,10023 13820,10037 13938,10082 14056,10093 14174,10112 14292,10112 14410,10122 14528,10132 14646,10134 14764,10138 14882,10158 15000,10179 15118,10191 15236,10193 15354,10185 15471,10156 15589,10166 15707,10229 15825,10279 15943,10302 16061,10365 16179,10413 16297,10518 16415,10607 16533,10686 16651,10694 16769,10724 16887,10766 17005,10791 17122,10813 17240,10828 17358,10861 17476,10887 17594,10896 17712,10918 17830,10949 17948,10935 18066,10952 18184,10969 18302,11003 18420,11028 18538,11023 18655,11042 18773,11027 18891,11063 19009,11098 19127,11137 19245,11179 19363,11240 19481,11225 19599,11223 19717,11255 19835,11303 19953,11344 20071,11420 20189,11418 20306,11425 20424,11451 20542,11487 20660,11527 20778,11567 20896,11592 21014,11644 21132,11670 21250,11667 21368,11681 21486,11710 21604,11738 21722,11770 21839,11789 21957,11803 22075,11787 22193,11811 22311,11841 22429,11861 22547,11885 22665,11933 22783,11960 22901,11969 23019,11986 23137,12015 23255,12051 23373,12068"/>
 <path fill="none" stroke="rgb(197,0,11)" stroke-width="80" stroke-linejoin="round" d="M 2618,14422 L 2736,14422 2854,14422 2972,14422 3090,14422 3208,14422 3326,14422 3444,14422 3562,14422 3680,14422 3798,14422 3916,14422 4034,14422 4152,14145 4269,14237 4387,13959 4505,13648 4623,13391 4741,13487 4859,13409 4977,13180 5095,12889 5213,12676 5331,12520 5449,12418 5567,12156 5685,12133 5802,11971 5920,11828 6038,11662 6156,11581 6274,11289 6392,11255 6510,11123 6628,11088 6746,11127 6864,10818 6982,10769 7100,10802 7218,10758 7336,10621 7453,10582 7571,10552 7689,10484 7807,10382 7925,10428 8043,10442 8161,10445 8279,10464 8397,10441 8515,10417 8633,10460 8751,10332 8869,10286 8986,10233 9104,10223 9222,10213 9340,10160 9458,10087 9576,9970 9694,9942 9812,9937 9930,9916 10048,9916 10166,9926 10284,9825 10402,9794 10520,9792 10637,9802 10755,9798 10873,9859 10991,9812 11109,9808 11227,9789 11345,9759 11463,9763 11581,9787 11699,9775 11816,9807 11934,9847 12052,9851 12170,9875 12287,9899 12405,9903 12523,9916 12641,9915 12759,9904 12877,9909 12995,9911 13113,9941 13231,9976 13349,9989 13467,10005 13585,9996 13703,10051 13820,10069 13938,10106 14056,10125 14174,10125 14292,10148 14410,10145 14528,10147 14646,10151 14764,10158 14882,10179 15000,10228 15118,10242 15236,10210 15354,10205 15471,10166 15589,10217 15707,10279 15825,10314 15943,10365 16061,10458 16179,10518 16297,10585 16415,10654 16533,10715 16651,10734 16769,10766 16887,10801 17005,10813 17122,10828 17240,10861 17358,10897 17476,10916 17594,10918 17712,10949 17830,10964 17948,10952 18066,10979 18184,11003 18302,11038 18420,11060 18538,11051 18655,11063 18773,11063 18891,11116 19009,11155 19127,11188 19245,11240 19363,11267 19481,11248 19599,11263 19717,11311 19835,11360 19953,11396 20071,11457 20189,11440 20306,11443 20424,11487 20542,11534 20660,11567 20778,11599 20896,11644 21014,11670 21132,11688 21250,11688 21368,11723 21486,11751 21604,11783 21722,11809 21839,11816 21957,11819 22075,11811 22193,11847 22311,11880 22429,11891 22547,11945 22665,11960 22783,11975 22901,11998 23019,12026 23137,12057 23255,12074 23373,12128"/>
 <path fill="none" stroke="rgb(0,132,209)" stroke-width="80" stroke-linejoin="round" d="M 2618,14422 L 2736,14422 2854,14422 2972,14422 3090,14422 3208,14422 3326,14422 3444,14422 3562,14422 3680,14422 3798,14422 3916,14422 4034,14422 4152,14237 4269,14267 4387,14035 4505,13734 4623,13487 4741,13593 4859,13568 4977,13355 5095,13127 5213,12910 5331,12645 5449,12540 5567,12366 5685,12264 5802,12193 5920,11975 6038,11897 6156,11652 6274,11441 6392,11378 6510,11306 6628,11242 6746,11221 6864,10879 6982,10867 7100,10843 7218,10789 7336,10686 7453,10712 7571,10621 7689,10518 7807,10466 7925,10517 8043,10518 8161,10500 8279,10494 8397,10488 8515,10460 8633,10488 8751,10355 8869,10318 8986,10274 9104,10280 9222,10243 9340,10170 9458,10101 9576,9991 9694,9986 9812,9981 9930,9948 10048,9942 10166,9936 10284,9841 10402,9824 10520,9818 10637,9829 10755,9843 10873,9888 10991,9839 11109,9819 11227,9849 11345,9792 11463,9802 11581,9805 11699,9807 11816,9847 11934,9880 12052,9875 12170,9899 12287,9917 12405,9930 12523,9943 12641,9932 12759,9922 12877,9925 12995,9941 13113,9976 13231,10002 13349,10005 13467,10023 13585,10024 13703,10082 13820,10093 13938,10138 14056,10138 14174,10161 14292,10171 14410,10159 14528,10164 14646,10171 14764,10179 14882,10228 15000,10279 15118,10259 15236,10230 15354,10215 15471,10217 15589,10267 15707,10314 15825,10377 15943,10458 16061,10562 16179,10585 16297,10633 16415,10683 16533,10755 16651,10776 16769,10801 16887,10823 17005,10828 17122,10861 17240,10897 17358,10926 17476,10938 17594,10949 17712,10964 17830,10981 17948,10979 18066,11013 18184,11038 18302,11070 18420,11088 18538,11073 18655,11100 18773,11116 18891,11172 19009,11205 19127,11248 19245,11267 19363,11290 19481,11288 19599,11319 19717,11368 19835,11412 19953,11433 20071,11479 20189,11458 20306,11480 20424,11534 20542,11574 20660,11599 20778,11651 20896,11670 21014,11688 21132,11709 21250,11730 21368,11765 21486,11796 21604,11822 21722,11835 21839,11831 21957,11843 22075,11847 22193,11886 22311,11910 22429,11951 22547,11972 22665,11975 22783,12004 22901,12037 23019,12068 23137,12079 23255,12134 23373,12158"/>
 <path fill="none" stroke="rgb(0,69,134)" stroke-width="80" stroke-linejoin="round" d="M 2618,14422 L 2736,14422 2854,14422 2972,14422 3090,14422 3208,14422 3326,14422 3444,14422 3562,14422 3680,14422 3798,14422 3916,14422 4034,14422 4152,14267 4269,14293 4387,14078 4505,13799 4623,13593 4741,13723 4859,13688 4977,13521 5095,13300 5213,13010 5331,12754 5449,12715 5567,12483 5685,12459 5802,12320 5920,12184 6038,11960 6156,11787 6274,11557 6392,11547 6510,11450 6628,11333 6746,11275 6864,10974 6982,10906 7100,10873 7218,10851 7336,10812 7453,10778 7571,10654 7689,10599 7807,10554 7925,10591 8043,10572 8161,10530 8279,10541 8397,10530 8515,10488 8633,10510 8751,10386 8869,10359 8986,10330 9104,10309 9222,10252 9340,10184 9458,10122 9576,10034 9694,10029 9812,10012 9930,9974 10048,9952 10166,9952 10284,9871 10402,9849 10520,9844 10637,9874 10755,9873 10873,9915 10991,9850 11109,9879 11227,9881 11345,9831 11463,9819 11581,9836 11699,9847 11816,9880 11934,9903 12052,9899 12170,9917 12287,9944 12405,9957 12523,9959 12641,9950 12759,9939 12877,9955 12995,9976 13113,10002 13231,10019 13349,10023 13467,10051 13585,10055 13703,10106 13820,10125 13938,10151 14056,10174 14174,10184 14292,10185 14410,10176 14528,10183 14646,10192 14764,10228 14882,10279 15000,10295 15118,10278 15236,10240 15354,10265 15471,10267 15589,10302 15707,10377 15825,10470 15943,10562 16061,10628 16179,10633 16297,10662 16415,10724 16533,10797 16651,10812 16769,10823 16887,10838 17005,10861 17122,10897 17240,10926 17358,10948 17476,10968 17594,10964 17712,10981 17830,11007 17948,11013 18066,11047 18184,11070 18302,11097 18420,11109 18538,11109 18655,11152 18773,11172 18891,11223 19009,11265 19127,11276 19245,11290 19363,11329 19481,11344 19599,11376 19717,11420 19835,11449 19953,11456 20071,11497 20189,11495 20306,11527 20424,11574 20542,11607 20660,11651 20778,11677 20896,11688 21014,11709 21132,11751 21250,11771 21368,11809 21486,11835 21604,11848 21722,11851 21839,11856 21957,11878 22075,11886 22193,11916 22311,11969 22429,11978 22547,11987 22665,12004 22783,12043 22901,12079 23019,12090 23137,12139 23255,12164 23373,12184"/>
 <path fill="none" stroke="rgb(255,66,14)" stroke-width="80" stroke-linejoin="round" d="M 2618,14422 L 2736,14422 2854,14422 2972,14422 3090,14422 3208,14422 3326,14422 3444,14422 3562,14422 3680,14422 3798,14422 3916,14422 4034,14422 4152,14293 4269,14307 4387,14110 4505,13869 4623,13723 4741,13822 4859,13802 4977,13641 5095,13374 5213,13096 5331,12909 5449,12812 5567,12659 5685,12571 5802,12499 5920,12240 6038,12080 6156,11890 6274,11716 6392,11680 6510,11534 6628,11385 6746,11359 6864,11012 6982,10936 7100,10933 7218,10971 7336,10876 7453,10809 7571,10732 7689,10684 7807,10627 7925,10644 8043,10601 8161,10576 8279,10582 8397,10557 8515,10510 8633,10540 8751,10426 8869,10413 8986,10359 9104,10319 9222,10266 9340,10204 9458,10164 9576,10077 9694,10060 9812,10037 9930,9984 10048,9967 10166,9981 10284,9896 10402,9875 10520,9889 10637,9904 10755,9900 10873,9925 10991,9909 11109,9911 11227,9920 11345,9849 11463,9850 11581,9875 11699,9880 11816,9903 11934,9927 12052,9917 12170,9944 12287,9971 12405,9973 12523,9978 12641,9966 12759,9969 12877,9990 12995,10002 13113,10019 13231,10036 13349,10051 13467,10082 13585,10079 13703,10138 13820,10138 13938,10187 14056,10197 14174,10198 14292,10202 14410,10196 14528,10205 14646,10241 14764,10279 14882,10295 15000,10315 15118,10288 15236,10289 15354,10314 15471,10302 15589,10365 15707,10470 15825,10573 15943,10628 16061,10676 16179,10662 16297,10703 16415,10766 16533,10832 16651,10833 16769,10838 16887,10871 17005,10897 17122,10926 17240,10948 17358,10978 17476,10984 17594,10981 17712,11007 17830,11041 17948,11047 18066,11079 18184,11097 18302,11119 18420,11145 18538,11161 18655,11207 18773,11223 18891,11282 19009,11292 19127,11299 19245,11329 19363,11384 19481,11400 19599,11428 19717,11457 19835,11471 19953,11474 20071,11532 20189,11542 20306,11567 20424,11607 20542,11658 20660,11677 20778,11695 20896,11709 21014,11751 21132,11792 21250,11816 21368,11848 21486,11861 21604,11863 21722,11875 21839,11891 21957,11917 22075,11916 22193,11975 22311,11996 22429,11993 22547,12015 22665,12043 22783,12085 22901,12101 23019,12150 23137,12169 23255,12189 23373,12207"/>
 <path fill="none" stroke="rgb(255,211,32)" stroke-width="80" stroke-linejoin="round" d="M 2618,14422 L 2736,14422 2854,14422 2972,14422 3090,14422 3208,14422 3326,14422 3444,14422 3562,14422 3680,14422 3798,14422 3916,14422 4034,14422 4152,14307 4269,14318 4387,14145 4505,13956 4623,13822 4741,13915 4859,13885 4977,13693 5095,13438 5213,13219 5331,12995 5449,12958 5567,12759 5685,12729 5802,12547 5920,12346 6038,12171 6156,12030 6274,11841 6392,11758 6510,11583 6628,11466 6746,11393 6864,11041 6982,10995 7100,11051 7218,11032 7336,10906 7453,10884 7571,10814 7689,10755 7807,10680 7925,10673 8043,10646 8161,10617 8279,10609 8397,10579 8515,10540 8633,10579 8751,10480 8869,10442 8986,10368 9104,10332 9222,10286 9340,10246 9458,10206 9576,10108 9694,10085 9812,10047 9930,9999 10048,9996 10166,10005 10284,9922 10402,9920 10520,9919 10637,9930 10755,9910 10873,9983 10991,9941 11109,9949 11227,9937 11345,9879 11463,9890 11581,9908 11699,9903 11816,9927 11934,9945 12052,9944 12170,9971 12287,9987 12405,9992 12523,9994 12641,9996 12759,10003 12877,10016 12995,10019 13113,10036 13231,10064 13349,10082 13467,10106 13585,10112 13703,10151 13820,10174 13938,10209 14056,10211 14174,10215 14292,10221 14410,10217 14528,10253 14646,10291 14764,10295 14882,10315 15000,10325 15118,10338 15236,10338 15354,10349 15471,10365 15589,10458 15707,10573 15825,10639 15943,10676 16061,10704 16179,10703 16297,10745 16415,10801 16533,10854 16651,10848 16769,10871 16887,10907 17005,10926 17122,10948 17240,10978 17358,10993 17476,11000 17594,11007 17712,11041 17830,11075 17948,11079 18066,11106 18184,11119 18302,11154 18420,11197 18538,11216 18655,11257 18773,11282 18891,11309 19009,11315 19127,11337 19245,11384 19363,11440 19481,11451 19599,11464 19717,11479 19835,11489 19953,11510 20071,11579 20189,11582 20306,11599 20424,11658 20542,11685 20660,11695 20778,11716 20896,11751 21014,11792 21132,11836 21250,11855 21368,11874 21486,11876 21604,11888 21722,11910 21839,11929 21957,11946 22075,11975 22193,12002 22311,12010 22429,12021 22547,12054 22665,12085 22783,12107 22901,12161 23019,12180 23137,12194 23255,12212 23373,12251"/>
 <text class="TextShape" transform="rotate(-90 2712 15393)"><tspan class="TextParagraph" font-family="Liberation Sans, sans-serif" font-size="282px" font-weight="400"><tspan class="TextPosition" x="2712" y="15393"><tspan fill="rgb(0,0,0)" stroke="none">09.03</tspan></tspan></tspan></text>
 <text class="TextShape" transform="rotate(-90 3538 15393)"><tspan class="TextParagraph" font-family="Liberation Sans, sans-serif" font-size="282px" font-weight="400"><tspan class="TextPosition" x="3538" y="15393"><tspan fill="rgb(0,0,0)" stroke="none">16.03</tspan></tspan></tspan></text>
 <text class="TextShape" transform="rotate(-90 4363 15393)"><tspan class="TextParagraph" font-family="Liberation Sans, sans-serif" font-size="282px" font-weight="400"><tspan class="TextPosition" x="4363" y="15393"><tspan fill="rgb(0,0,0)" stroke="none">23.03</tspan></tspan></tspan></text>
 <text class="TextShape" transform="rotate(-90 5189 15393)"><tspan class="TextParagraph" font-family="Liberation Sans, sans-serif" font-size="282px" font-weight="400"><tspan class="TextPosition" x="5189" y="15393"><tspan fill="rgb(0,0,0)" stroke="none">30.03</tspan></tspan></tspan></text>
 <text class="TextShape" transform="rotate(-90 6014 15393)"><tspan class="TextParagraph" font-family="Liberation Sans, sans-serif" font-size="282px" font-weight="400"><tspan class="TextPosition" x="6014" y="15393"><tspan fill="rgb(0,0,0)" stroke="none">06.04</tspan></tspan></tspan></text>
 <text class="TextShape" transform="rotate(-90 6840 15393)"><tspan class="TextParagraph" font-family="Liberation Sans, sans-serif" font-size="282px" font-weight="400"><tspan class="TextPosition" x="6840" y="15393"><tspan fill="rgb(0,0,0)" stroke="none">13.04</tspan></tspan></tspan></text>
 <text class="TextShape" transform="rotate(-90 7665 15393)"><tspan class="TextParagraph" font-family="Liberation Sans, sans-serif" font-size="282px" font-weight="400"><tspan class="TextPosition" x="7665" y="15393"><tspan fill="rgb(0,0,0)" stroke="none">20.04</tspan></tspan></tspan></text>
 <text class="TextShape" transform="rotate(-90 8491 15393)"><tspan class="TextParagraph" font-family="Liberation Sans, sans-serif" font-size="282px" font-weight="400"><tspan class="TextPosition" x="8491" y="15393"><tspan fill="rgb(0,0,0)" stroke="none">27.04</tspan></tspan></tspan></text>
 <text class="TextShape" transform="rotate(-90 9316 15393)"><tspan class="TextParagraph" font-family="Liberation Sans, sans-serif" font-size="282px" font-weight="400"><tspan class="TextPosition" x="9316" y="15393"><tspan fill="rgb(0,0,0)" stroke="none">04.05</tspan></tspan></tspan></text>
 <text class="TextShape" transform="rotate(-90 10142 15393)"><tspan class="TextParagraph" font-family="Liberation Sans, sans-serif" font-size="282px" font-weight="400"><tspan class="TextPosition" x="10142" y="15393"><tspan fill="rgb(0,0,0)" stroke="none">11.05</tspan></tspan></tspan></text>
 <text class="TextShape" transform="rotate(-90 10967 15393)"><tspan class="TextParagraph" font-family="Liberation Sans, sans-serif" font-size="282px" font-weight="400"><tspan class="TextPosition" x="10967" y="15393"><tspan fill="rgb(0,0,0)" stroke="none">18.05</tspan></tspan></tspan></text>
 <text class="TextShape" transform="rotate(-90 11793 15393)"><tspan class="TextParagraph" font-family="Liberation Sans, sans-serif" font-size="282px" font-weight="400"><tspan class="TextPosition" x="11793" y="15393"><tspan fill="rgb(0,0,0)" stroke="none">25.05</tspan></tspan></tspan></text>
 <text class="TextShape" transform="rotate(-90 12617 15393)"><tspan class="TextParagraph" font-family="Liberation Sans, sans-serif" font-size="282px" font-weight="400"><tspan class="TextPosition" x="12617" y="15393"><tspan fill="rgb(0,0,0)" stroke="none">01.06</tspan></tspan></tspan></text>
 <text class="TextShape" transform="rotate(-90 13443 15393)"><tspan class="TextParagraph" font-family="Liberation Sans, sans-serif" font-size="282px" font-weight="400"><tspan class="TextPosition" x="13443" y="15393"><tspan fill="rgb(0,0,0)" stroke="none">08.06</tspan></tspan></tspan></text>
 <text class="TextShape" transform="rotate(-90 14268 15393)"><tspan class="TextParagraph" font-family="Liberation Sans, sans-serif" font-size="282px" font-weight="400"><tspan class="TextPosition" x="14268" y="15393"><tspan fill="rgb(0,0,0)" stroke="none">15.06</tspan></tspan></tspan></text>
 <text class="TextShape" transform="rotate(-90 15094 15393)"><tspan class="TextParagraph" font-family="Liberation Sans, sans-serif" font-size="282px" font-weight="400"><tspan class="TextPosition" x="15094" y="15393"><tspan fill="rgb(0,0,0)" stroke="none">22.06</tspan></tspan></tspan></text>
 <text class="TextShape" transform="rotate(-90 15919 15393)"><tspan class="TextParagraph" font-family="Liberation Sans, sans-serif" font-size="282px" font-weight="400"><tspan class="TextPosition" x="15919" y="15393"><tspan fill="rgb(0,0,0)" stroke="none">29.06</tspan></tspan></tspan></text>
 <text class="TextShape" transform="rotate(-90 16745 15393)"><tspan class="TextParagraph" font-family="Liberation Sans, sans-serif" font-size="282px" font-weight="400"><tspan class="TextPosition" x="16745" y="15393"><tspan fill="rgb(0,0,0)" stroke="none">06.07</tspan></tspan></tspan></text>
 <text class="TextShape" transform="rotate(-90 17570 15393)"><tspan class="TextParagraph" font-family="Liberation Sans, sans-serif" font-size="282px" font-weight="400"><tspan class="TextPosition" x="17570" y="15393"><tspan fill="rgb(0,0,0)" stroke="none">13.07</tspan></tspan></tspan></text>
 <text class="TextShape" transform="rotate(-90 18396 15393)"><tspan class="TextParagraph" font-family="Liberation Sans, sans-serif" font-size="282px" font-weight="400"><tspan class="TextPosition" x="18396" y="15393"><tspan fill="rgb(0,0,0)" stroke="none">20.07</tspan></tspan></tspan></text>
 <text class="TextShape" transform="rotate(-90 19221 15393)"><tspan class="TextParagraph" font-family="Liberation Sans, sans-serif" font-size="282px" font-weight="400"><tspan class="TextPosition" x="19221" y="15393"><tspan fill="rgb(0,0,0)" stroke="none">27.07</tspan></tspan></tspan></text>
 <text class="TextShape" transform="rotate(-90 20047 15393)"><tspan class="TextParagraph" font-family="Liberation Sans, sans-serif" font-size="282px" font-weight="400"><tspan class="TextPosition" x="20047" y="15393"><tspan fill="rgb(0,0,0)" stroke="none">03.08</tspan></tspan></tspan></text>
 <text class="TextShape" transform="rotate(-90 20872 15393)"><tspan class="TextParagraph" font-family="Liberation Sans, sans-serif" font-size="282px" font-weight="400"><tspan class="TextPosition" x="20872" y="15393"><tspan fill="rgb(0,0,0)" stroke="none">10.08</tspan></tspan></tspan></text>
 <text class="TextShape" transform="rotate(-90 21698 15393)"><tspan class="TextParagraph" font-family="Liberation Sans, sans-serif" font-size="282px" font-weight="400"><tspan class="TextPosition" x="21698" y="15393"><tspan fill="rgb(0,0,0)" stroke="none">17.08</tspan></tspan></tspan></text>
 <text class="TextShape" transform="rotate(-90 22523 15393)"><tspan class="TextParagraph" font-family="Liberation Sans, sans-serif" font-size="282px" font-weight="400"><tspan class="TextPosition" x="22523" y="15393"><tspan fill="rgb(0,0,0)" stroke="none">24.08</tspan></tspan></tspan></text>
 <text class="TextShape" transform="rotate(-90 23349 15393)"><tspan class="TextParagraph" font-family="Liberation Sans, sans-serif" font-size="282px" font-weight="400"><tspan class="TextPosition" x="23349" y="15393"><tspan fill="rgb(0,0,0)" stroke="none">31.08</tspan></tspan></tspan></text>
 <text class="TextShape"><tspan class="TextParagraph" font-family="Liberation Sans, sans-serif" font-size="318px" font-weight="400"><tspan class="TextPosition" x="1844" y="14534"><tspan fill="rgb(0,0,0)" stroke="none">0%</tspan></tspan></tspan></text>
 <text class="TextShape"><tspan class="TextParagraph" font-family="Liberation Sans, sans-serif" font-size="318px" font-weight="400"><tspan class="TextPosition" x="1844" y="13251"><tspan fill="rgb(0,0,0)" stroke="none">1%</tspan></tspan></tspan></text>
 <text class="TextShape"><tspan class="TextParagraph" font-family="Liberation Sans, sans-serif" font-size="318px" font-weight="400"><tspan class="TextPosition" x="1844" y="11968"><tspan fill="rgb(0,0,0)" stroke="none">2%</tspan></tspan></tspan></text>
 <text class="TextShape"><tspan class="TextParagraph" font-family="Liberation Sans, sans-serif" font-size="318px" font-weight="400"><tspan class="TextPosition" x="1844" y="10685"><tspan fill="rgb(0,0,0)" stroke="none">3%</tspan></tspan></tspan></text>
 <text class="TextShape"><tspan class="TextParagraph" font-family="Liberation Sans, sans-serif" font-size="318px" font-weight="400"><tspan class="TextPosition" x="1844" y="9402"><tspan fill="rgb(0,0,0)" stroke="none">4%</tspan></tspan></tspan></text>
 <text class="TextShape"><tspan class="TextParagraph" font-family="Liberation Sans, sans-serif" font-size="318px" font-weight="400"><tspan class="TextPosition" x="1844" y="8119"><tspan fill="rgb(0,0,0)" stroke="none">5%</tspan></tspan></tspan></text>
 <text class="TextShape"><tspan class="TextParagraph" font-family="Liberation Sans, sans-serif" font-size="318px" font-weight="400"><tspan class="TextPosition" x="1844" y="6836"><tspan fill="rgb(0,0,0)" stroke="none">6%</tspan></tspan></tspan></text>
 <text class="TextShape"><tspan class="TextParagraph" font-family="Liberation Sans, sans-serif" font-size="318px" font-weight="400"><tspan class="TextPosition" x="1844" y="5553"><tspan fill="rgb(0,0,0)" stroke="none">7%</tspan></tspan></tspan></text>
 <text class="TextShape"><tspan class="TextParagraph" font-family="Liberation Sans, sans-serif" font-size="318px" font-weight="400"><tspan class="TextPosition" x="1844" y="4270"><tspan fill="rgb(0,0,0)" stroke="none">8%</tspan></tspan></tspan></text>
 <text class="TextShape"><tspan class="TextParagraph" font-family="Liberation Sans, sans-serif" font-size="318px" font-weight="400"><tspan class="TextPosition" x="1844" y="2987"><tspan fill="rgb(0,0,0)" stroke="none">9%</tspan></tspan></tspan></text>
 <text class="TextShape"><tspan class="TextParagraph" font-family="Liberation Sans, sans-serif" font-size="318px" font-weight="400"><tspan class="TextPosition" x="1664" y="1704"><tspan fill="rgb(0,0,0)" stroke="none">10%</tspan></tspan></tspan></text>
 <text class="TextShape"><tspan class="TextParagraph" font-family="Liberation Sans, sans-serif" font-size="459px" font-weight="700"><tspan class="TextPosition" x="1589" y="908"><tspan fill="rgb(0,0,0)" stroke="none">esk Republika - pomr celkovho potu obt ke zpodnmu celkovmu potu infikovanch</tspan></tspan></tspan></text>
 <path fill="rgb(255,255,255)" stroke="none" d="M 21573,9083 L 19546,9083 19546,1210 23599,1210 23599,9083 21573,9083 Z"/>
 <path fill="none" stroke="rgb(0,69,134)" stroke-width="80" stroke-linejoin="round" d="M 19984,1548 L 20784,1548"/>
 <path fill="none" stroke="rgb(255,66,14)" stroke-width="80" stroke-linejoin="round" d="M 19984,2062 L 20784,2062"/>
 <path fill="none" stroke="rgb(255,211,32)" stroke-width="80" stroke-linejoin="round" d="M 19984,2576 L 20784,2576"/>
 <path fill="none" stroke="rgb(87,157,28)" stroke-width="80" stroke-linejoin="round" d="M 19984,3090 L 20784,3090"/>
 <path fill="none" stroke="rgb(126,0,33)" stroke-width="80" stroke-linejoin="round" d="M 19984,3604 L 20784,3604"/>
 <path fill="none" stroke="rgb(131,202,255)" stroke-width="80" stroke-linejoin="round" d="M 19984,4118 L 20784,4118"/>
 <path fill="none" stroke="rgb(49,64,4)" stroke-width="80" stroke-linejoin="round" d="M 19984,4632 L 20784,4632"/>
 <path fill="none" stroke="rgb(174,207,0)" stroke-width="80" stroke-linejoin="round" d="M 19984,5146 L 20784,5146"/>
 <path fill="none" stroke="rgb(75,31,111)" stroke-width="80" stroke-linejoin="round" d="M 19984,5660 L 20784,5660"/>
 <path fill="none" stroke="rgb(255,149,14)" stroke-width="80" stroke-linejoin="round" d="M 19984,6174 L 20784,6174"/>
 <path fill="none" stroke="rgb(197,0,11)" stroke-width="80" stroke-linejoin="round" d="M 19984,6688 L 20784,6688"/>
 <path fill="none" stroke="rgb(0,132,209)" stroke-width="80" stroke-linejoin="round" d="M 19984,7202 L 20784,7202"/>
 <path fill="none" stroke="rgb(0,69,134)" stroke-width="80" stroke-linejoin="round" d="M 19984,7716 L 20784,7716"/>
 <path fill="none" stroke="rgb(255,66,14)" stroke-width="80" stroke-linejoin="round" d="M 19984,8229 L 20784,8229"/>
 <path fill="none" stroke="rgb(255,211,32)" stroke-width="80" stroke-linejoin="round" d="M 19984,8743 L 20784,8743"/>
 <text class="TextShape"><tspan class="TextParagraph" font-family="Liberation Sans, sans-serif" font-size="318px" font-weight="400"><tspan class="TextPosition" x="20884" y="1659"><tspan fill="rgb(0,0,0)" stroke="none">14 dn zpodn</tspan></tspan></tspan></text>
 <text class="TextShape"><tspan class="TextParagraph" font-family="Liberation Sans, sans-serif" font-size="318px" font-weight="400"><tspan class="TextPosition" x="20884" y="2173"><tspan fill="rgb(0,0,0)" stroke="none">13 dn zpodn</tspan></tspan></tspan></text>
 <text class="TextShape"><tspan class="TextParagraph" font-family="Liberation Sans, sans-serif" font-size="318px" font-weight="400"><tspan class="TextPosition" x="20884" y="2687"><tspan fill="rgb(0,0,0)" stroke="none">12 dn zpodn</tspan></tspan></tspan></text>
 <text class="TextShape"><tspan class="TextParagraph" font-family="Liberation Sans, sans-serif" font-size="318px" font-weight="400"><tspan class="TextPosition" x="20884" y="3201"><tspan fill="rgb(0,0,0)" stroke="none">11 dn zpodn</tspan></tspan></tspan></text>
 <text class="TextShape"><tspan class="TextParagraph" font-family="Liberation Sans, sans-serif" font-size="318px" font-weight="400"><tspan class="TextPosition" x="20884" y="3715"><tspan fill="rgb(0,0,0)" stroke="none">10 dn zpodn</tspan></tspan></tspan></text>
 <text class="TextShape"><tspan class="TextParagraph" font-family="Liberation Sans, sans-serif" font-size="318px" font-weight="400"><tspan class="TextPosition" x="20884" y="4229"><tspan fill="rgb(0,0,0)" stroke="none">9 dn zpodn</tspan></tspan></tspan></text>
 <text class="TextShape"><tspan class="TextParagraph" font-family="Liberation Sans, sans-serif" font-size="318px" font-weight="400"><tspan class="TextPosition" x="20884" y="4743"><tspan fill="rgb(0,0,0)" stroke="none">8 dn zpodn</tspan></tspan></tspan></text>
 <text class="TextShape"><tspan class="TextParagraph" font-family="Liberation Sans, sans-serif" font-size="318px" font-weight="400"><tspan class="TextPosition" x="20884" y="5257"><tspan fill="rgb(0,0,0)" stroke="none">7 dn zpodn</tspan></tspan></tspan></text>
 <text class="TextShape"><tspan class="TextParagraph" font-family="Liberation Sans, sans-serif" font-size="318px" font-weight="400"><tspan class="TextPosition" x="20884" y="5771"><tspan fill="rgb(0,0,0)" stroke="none">6 dn zpodn</tspan></tspan></tspan></text>
 <text class="TextShape"><tspan class="TextParagraph" font-family="Liberation Sans, sans-serif" font-size="318px" font-weight="400"><tspan class="TextPosition" x="20884" y="6285"><tspan fill="rgb(0,0,0)" stroke="none">5 dn zpodn</tspan></tspan></tspan></text>
 <text class="TextShape"><tspan class="TextParagraph" font-family="Liberation Sans, sans-serif" font-size="318px" font-weight="400"><tspan class="TextPosition" x="20884" y="6799"><tspan fill="rgb(0,0,0)" stroke="none">4 dny zpodn</tspan></tspan></tspan></text>
 <text class="TextShape"><tspan class="TextParagraph" font-family="Liberation Sans, sans-serif" font-size="318px" font-weight="400"><tspan class="TextPosition" x="20884" y="7313"><tspan fill="rgb(0,0,0)" stroke="none">3 dny zpodn</tspan></tspan></tspan></text>
 <text class="TextShape"><tspan class="TextParagraph" font-family="Liberation Sans, sans-serif" font-size="318px" font-weight="400"><tspan class="TextPosition" x="20884" y="7827"><tspan fill="rgb(0,0,0)" stroke="none">2 dny zpodn</tspan></tspan></tspan></text>
 <text class="TextShape"><tspan class="TextParagraph" font-family="Liberation Sans, sans-serif" font-size="318px" font-weight="400"><tspan class="TextPosition" x="20884" y="8340"><tspan fill="rgb(0,0,0)" stroke="none">1 den zpodn</tspan></tspan></tspan></text>
 <text class="TextShape"><tspan class="TextParagraph" font-family="Liberation Sans, sans-serif" font-size="318px" font-weight="400"><tspan class="TextPosition" x="20884" y="8854"><tspan fill="rgb(0,0,0)" stroke="none">0 dn zpodn</tspan></tspan></tspan></text>
</svg>