<?xml version="1.0" encoding="UTF-8"?>
<!DOCTYPE svg PUBLIC "-//W3C//DTD SVG 1.1//EN" "http://www.w3.org/Graphics/SVG/1.1/DTD/svg11.dtd">
<svg width="236mm" height="161mm" viewBox="0 0 23600 16100" version="1.1" xmlns="http://www.w3.org/2000/svg" xmlns:xlink="http://www.w3.org/1999/xlink" stroke-width="28.222" stroke-linejoin="round" xml:space="preserve">
 <path fill="rgb(255,255,255)" stroke="none" d="M 11801,16123 L 0,16123 0,-3 23601,-3 23601,16123 11801,16123 Z"/>
 <path fill="none" stroke="rgb(179,179,179)" stroke-linejoin="round" d="M 10781,14422 L 1714,14422 1714,1592 19847,1592 19847,14422 10781,14422 Z"/>
 <path fill="none" stroke="rgb(179,179,179)" stroke-linejoin="round" d="M 19847,14421 L 1714,14421"/>
 <path fill="none" stroke="rgb(179,179,179)" stroke-linejoin="round" d="M 19847,13137 L 1714,13137"/>
 <path fill="none" stroke="rgb(179,179,179)" stroke-linejoin="round" d="M 19847,11854 L 1714,11854"/>
 <path fill="none" stroke="rgb(179,179,179)" stroke-linejoin="round" d="M 19847,10571 L 1714,10571"/>
 <path fill="none" stroke="rgb(179,179,179)" stroke-linejoin="round" d="M 19847,9288 L 1714,9288"/>
 <path fill="none" stroke="rgb(179,179,179)" stroke-linejoin="round" d="M 19847,8006 L 1714,8006"/>
 <path fill="none" stroke="rgb(179,179,179)" stroke-linejoin="round" d="M 19847,6723 L 1714,6723"/>
 <path fill="none" stroke="rgb(179,179,179)" stroke-linejoin="round" d="M 19847,5440 L 1714,5440"/>
 <path fill="none" stroke="rgb(179,179,179)" stroke-linejoin="round" d="M 19847,4157 L 1714,4157"/>
 <path fill="none" stroke="rgb(179,179,179)" stroke-linejoin="round" d="M 19847,2874 L 1714,2874"/>
 <path fill="none" stroke="rgb(179,179,179)" stroke-linejoin="round" d="M 19847,1591 L 1714,1591"/>
 <path fill="none" stroke="rgb(179,179,179)" stroke-linejoin="round" d="M 1714,14571 L 1714,14421"/>
 <path fill="none" stroke="rgb(179,179,179)" stroke-linejoin="round" d="M 1714,14571 L 1714,14421"/>
 <path fill="none" stroke="rgb(179,179,179)" stroke-linejoin="round" d="M 2452,14571 L 2452,14421"/>
 <path fill="none" stroke="rgb(179,179,179)" stroke-linejoin="round" d="M 2452,14571 L 2452,14421"/>
 <path fill="none" stroke="rgb(179,179,179)" stroke-linejoin="round" d="M 3190,14571 L 3190,14421"/>
 <path fill="none" stroke="rgb(179,179,179)" stroke-linejoin="round" d="M 3190,14571 L 3190,14421"/>
 <path fill="none" stroke="rgb(179,179,179)" stroke-linejoin="round" d="M 3928,14571 L 3928,14421"/>
 <path fill="none" stroke="rgb(179,179,179)" stroke-linejoin="round" d="M 3928,14571 L 3928,14421"/>
 <path fill="none" stroke="rgb(179,179,179)" stroke-linejoin="round" d="M 4666,14571 L 4666,14421"/>
 <path fill="none" stroke="rgb(179,179,179)" stroke-linejoin="round" d="M 4666,14571 L 4666,14421"/>
 <path fill="none" stroke="rgb(179,179,179)" stroke-linejoin="round" d="M 5404,14571 L 5404,14421"/>
 <path fill="none" stroke="rgb(179,179,179)" stroke-linejoin="round" d="M 5404,14571 L 5404,14421"/>
 <path fill="none" stroke="rgb(179,179,179)" stroke-linejoin="round" d="M 6142,14571 L 6142,14421"/>
 <path fill="none" stroke="rgb(179,179,179)" stroke-linejoin="round" d="M 6142,14571 L 6142,14421"/>
 <path fill="none" stroke="rgb(179,179,179)" stroke-linejoin="round" d="M 6880,14571 L 6880,14421"/>
 <path fill="none" stroke="rgb(179,179,179)" stroke-linejoin="round" d="M 6880,14571 L 6880,14421"/>
 <path fill="none" stroke="rgb(179,179,179)" stroke-linejoin="round" d="M 7618,14571 L 7618,14421"/>
 <path fill="none" stroke="rgb(179,179,179)" stroke-linejoin="round" d="M 7618,14571 L 7618,14421"/>
 <path fill="none" stroke="rgb(179,179,179)" stroke-linejoin="round" d="M 8356,14571 L 8356,14421"/>
 <path fill="none" stroke="rgb(179,179,179)" stroke-linejoin="round" d="M 8356,14571 L 8356,14421"/>
 <path fill="none" stroke="rgb(179,179,179)" stroke-linejoin="round" d="M 9094,14571 L 9094,14421"/>
 <path fill="none" stroke="rgb(179,179,179)" stroke-linejoin="round" d="M 9094,14571 L 9094,14421"/>
 <path fill="none" stroke="rgb(179,179,179)" stroke-linejoin="round" d="M 9832,14571 L 9832,14421"/>
 <path fill="none" stroke="rgb(179,179,179)" stroke-linejoin="round" d="M 9832,14571 L 9832,14421"/>
 <path fill="none" stroke="rgb(179,179,179)" stroke-linejoin="round" d="M 10570,14571 L 10570,14421"/>
 <path fill="none" stroke="rgb(179,179,179)" stroke-linejoin="round" d="M 10570,14571 L 10570,14421"/>
 <path fill="none" stroke="rgb(179,179,179)" stroke-linejoin="round" d="M 11308,14571 L 11308,14421"/>
 <path fill="none" stroke="rgb(179,179,179)" stroke-linejoin="round" d="M 11308,14571 L 11308,14421"/>
 <path fill="none" stroke="rgb(179,179,179)" stroke-linejoin="round" d="M 12045,14571 L 12045,14421"/>
 <path fill="none" stroke="rgb(179,179,179)" stroke-linejoin="round" d="M 12045,14571 L 12045,14421"/>
 <path fill="none" stroke="rgb(179,179,179)" stroke-linejoin="round" d="M 12783,14571 L 12783,14421"/>
 <path fill="none" stroke="rgb(179,179,179)" stroke-linejoin="round" d="M 12783,14571 L 12783,14421"/>
 <path fill="none" stroke="rgb(179,179,179)" stroke-linejoin="round" d="M 13521,14571 L 13521,14421"/>
 <path fill="none" stroke="rgb(179,179,179)" stroke-linejoin="round" d="M 13521,14571 L 13521,14421"/>
 <path fill="none" stroke="rgb(179,179,179)" stroke-linejoin="round" d="M 14259,14571 L 14259,14421"/>
 <path fill="none" stroke="rgb(179,179,179)" stroke-linejoin="round" d="M 14259,14571 L 14259,14421"/>
 <path fill="none" stroke="rgb(179,179,179)" stroke-linejoin="round" d="M 14997,14571 L 14997,14421"/>
 <path fill="none" stroke="rgb(179,179,179)" stroke-linejoin="round" d="M 14997,14571 L 14997,14421"/>
 <path fill="none" stroke="rgb(179,179,179)" stroke-linejoin="round" d="M 15735,14571 L 15735,14421"/>
 <path fill="none" stroke="rgb(179,179,179)" stroke-linejoin="round" d="M 15735,14571 L 15735,14421"/>
 <path fill="none" stroke="rgb(179,179,179)" stroke-linejoin="round" d="M 16473,14571 L 16473,14421"/>
 <path fill="none" stroke="rgb(179,179,179)" stroke-linejoin="round" d="M 16473,14571 L 16473,14421"/>
 <path fill="none" stroke="rgb(179,179,179)" stroke-linejoin="round" d="M 17211,14571 L 17211,14421"/>
 <path fill="none" stroke="rgb(179,179,179)" stroke-linejoin="round" d="M 17211,14571 L 17211,14421"/>
 <path fill="none" stroke="rgb(179,179,179)" stroke-linejoin="round" d="M 17949,14571 L 17949,14421"/>
 <path fill="none" stroke="rgb(179,179,179)" stroke-linejoin="round" d="M 17949,14571 L 17949,14421"/>
 <path fill="none" stroke="rgb(179,179,179)" stroke-linejoin="round" d="M 18687,14571 L 18687,14421"/>
 <path fill="none" stroke="rgb(179,179,179)" stroke-linejoin="round" d="M 18687,14571 L 18687,14421"/>
 <path fill="none" stroke="rgb(179,179,179)" stroke-linejoin="round" d="M 19425,14571 L 19425,14421"/>
 <path fill="none" stroke="rgb(179,179,179)" stroke-linejoin="round" d="M 19425,14571 L 19425,14421"/>
 <path fill="none" stroke="rgb(179,179,179)" stroke-linejoin="round" d="M 1714,14421 L 19847,14421"/>
 <path fill="none" stroke="rgb(179,179,179)" stroke-linejoin="round" d="M 1564,14421 L 1714,14421"/>
 <path fill="none" stroke="rgb(179,179,179)" stroke-linejoin="round" d="M 1564,14421 L 1714,14421"/>
 <path fill="none" stroke="rgb(179,179,179)" stroke-linejoin="round" d="M 1564,13137 L 1714,13137"/>
 <path fill="none" stroke="rgb(179,179,179)" stroke-linejoin="round" d="M 1564,13137 L 1714,13137"/>
 <path fill="none" stroke="rgb(179,179,179)" stroke-linejoin="round" d="M 1564,11854 L 1714,11854"/>
 <path fill="none" stroke="rgb(179,179,179)" stroke-linejoin="round" d="M 1564,11854 L 1714,11854"/>
 <path fill="none" stroke="rgb(179,179,179)" stroke-linejoin="round" d="M 1564,10571 L 1714,10571"/>
 <path fill="none" stroke="rgb(179,179,179)" stroke-linejoin="round" d="M 1564,10571 L 1714,10571"/>
 <path fill="none" stroke="rgb(179,179,179)" stroke-linejoin="round" d="M 1564,9288 L 1714,9288"/>
 <path fill="none" stroke="rgb(179,179,179)" stroke-linejoin="round" d="M 1564,9288 L 1714,9288"/>
 <path fill="none" stroke="rgb(179,179,179)" stroke-linejoin="round" d="M 1564,8006 L 1714,8006"/>
 <path fill="none" stroke="rgb(179,179,179)" stroke-linejoin="round" d="M 1564,8006 L 1714,8006"/>
 <path fill="none" stroke="rgb(179,179,179)" stroke-linejoin="round" d="M 1564,6723 L 1714,6723"/>
 <path fill="none" stroke="rgb(179,179,179)" stroke-linejoin="round" d="M 1564,6723 L 1714,6723"/>
 <path fill="none" stroke="rgb(179,179,179)" stroke-linejoin="round" d="M 1564,5440 L 1714,5440"/>
 <path fill="none" stroke="rgb(179,179,179)" stroke-linejoin="round" d="M 1564,5440 L 1714,5440"/>
 <path fill="none" stroke="rgb(179,179,179)" stroke-linejoin="round" d="M 1564,4157 L 1714,4157"/>
 <path fill="none" stroke="rgb(179,179,179)" stroke-linejoin="round" d="M 1564,4157 L 1714,4157"/>
 <path fill="none" stroke="rgb(179,179,179)" stroke-linejoin="round" d="M 1564,2874 L 1714,2874"/>
 <path fill="none" stroke="rgb(179,179,179)" stroke-linejoin="round" d="M 1564,2874 L 1714,2874"/>
 <path fill="none" stroke="rgb(179,179,179)" stroke-linejoin="round" d="M 1564,1591 L 1714,1591"/>
 <path fill="none" stroke="rgb(179,179,179)" stroke-linejoin="round" d="M 1564,1591 L 1714,1591"/>
 <path fill="none" stroke="rgb(179,179,179)" stroke-linejoin="round" d="M 1714,14421 L 1714,1591"/>
 <path fill="none" stroke="rgb(0,69,134)" stroke-width="80" stroke-linejoin="round" d="M 1766,3729 L 1777,1591"/>
 <path fill="none" stroke="rgb(0,69,134)" stroke-width="80" stroke-linejoin="round" d="M 3251,1591 L 3348,3765 3453,6258 3559,7330 3664,8315 3769,9625 3875,10797 3980,11488 4086,11845 4191,12201 4297,12416 4402,12503 4507,12503 4613,12591 4718,12562 4824,12473 4929,12516 5035,12371 5140,12336 5245,12284 5351,12185 5456,12135 5562,12031 5667,11959 5773,11922 5878,11904 5983,11889 6089,11840 6194,11839 6300,11800 6405,11757 6511,11694 6616,11612 6721,11588 6827,11561 6932,11564 7038,11555 7143,11538 7249,11510 7354,11501 7459,11475 7565,11488 7670,11489 7776,11488 7881,11476 7987,11477 8092,11480 8197,11466 8303,11474 8408,11458 8514,11454 8619,11449 8725,11433 8830,11428 8935,11422 9041,11404 9146,11409 9252,11388 9357,11367 9463,11358 9568,11349 9673,11353 9779,11356 9884,11359 9990,11362 10095,11342 10201,11332 10306,11322 10411,11324 10517,11302 10622,11306 10728,11296 10833,11297 10939,11298 11044,11287 11150,11290 11255,11272 11360,11282 11466,11280 11571,11264 11677,11272 11782,11280 11887,11288 11992,11293 12097,11285 12203,11278 12308,11270 12414,11268 12519,11271 12625,11277 12730,11283 12835,11290 12941,11295 13046,11288 13152,11277 13257,11299 13363,11303 13468,11314 13573,11321 13679,11331 13784,11330 13890,11332 13995,11331 14101,11341 14206,11355 14311,11370 14417,11379 14522,11378 14628,11391 14733,11392 14839,11406 14944,11418 15049,11426 15155,11435 15260,11444 15366,11454 15471,11468 15577,11480 15682,11486 15787,11497 15893,11491 15998,11491 16104,11503 16209,11489 16315,11488 16420,11500 16525,11504 16631,11514 16736,11524 16842,11535 16947,11527 17053,11521 17158,11525 17263,11529 17369,11529 17474,11539 17580,11543 17685,11554 17791,11554 17896,11561 18001,11571 18107,11574 18212,11572 18318,11580 18423,11593 18529,11596 18634,11604 18739,11611 18845,11616 18950,11625 19056,11629 19161,11640 19267,11639 19372,11653 19477,11655 19583,11660 19688,11665 19794,11674"/>
 <path fill="none" stroke="rgb(255,66,14)" stroke-width="80" stroke-linejoin="round" d="M 1766,4157 L 1781,1591"/>
 <path fill="none" stroke="rgb(255,66,14)" stroke-width="80" stroke-linejoin="round" d="M 3133,1591 L 3137,1976 3242,5043 3348,6720 3453,7461 3559,8926 3664,10061 3769,10797 3875,11732 3980,11948 4086,12201 4191,12565 4297,12572 4402,12650 4507,12649 4613,12708 4718,12631 4824,12516 4929,12525 5035,12435 5140,12366 5245,12314 5351,12215 5456,12157 5562,12052 5667,11984 5773,11950 5878,11949 5983,11914 6089,11883 6194,11886 6300,11800 6405,11780 6511,11724 6616,11644 6721,11616 6827,11605 6932,11595 7038,11578 7143,11575 7249,11539 7354,11527 7459,11500 7565,11515 7670,11513 7776,11501 7881,11489 7987,11492 8092,11491 8197,11474 8303,11482 8408,11467 8514,11461 8619,11457 8725,11440 8830,11434 8935,11428 9041,11409 9146,11412 9252,11391 9357,11370 9463,11361 9568,11353 9673,11356 9779,11359 9884,11362 9990,11366 10095,11344 10201,11333 10306,11324 10411,11326 10517,11306 10622,11308 10728,11297 10833,11298 10939,11299 11044,11290 11150,11296 11255,11282 11360,11292 11466,11288 11571,11272 11677,11280 11782,11288 11887,11293 11992,11297 12097,11290 12203,11282 12308,11279 12414,11271 12519,11277 12625,11283 12730,11290 12835,11295 12941,11300 13046,11300 13152,11299 13257,11315 13363,11314 13468,11321 13573,11331 13679,11341 13784,11343 13890,11342 13995,11341 14101,11355 14206,11370 14311,11379 14417,11389 14522,11391 14628,11403 14733,11406 14839,11418 14944,11426 15049,11435 15155,11444 15260,11454 15366,11468 15471,11480 15577,11496 15682,11497 15787,11501 15893,11502 15998,11503 16104,11510 16209,11498 16315,11500 16420,11514 16525,11514 16631,11524 16736,11535 16842,11547 16947,11541 17053,11535 17158,11539 17263,11539 17369,11539 17474,11553 17580,11554 17685,11563 17791,11561 17896,11571 18001,11584 18107,11581 18212,11580 18318,11593 18423,11605 18529,11604 18634,11611 18739,11616 18845,11625 18950,11638 19056,11640 19161,11649 19267,11662 19372,11664 19477,11660 19583,11665 19688,11674 19794,11678"/>
 <path fill="none" stroke="rgb(255,211,32)" stroke-width="80" stroke-linejoin="round" d="M 1766,4917 L 1786,1591"/>
 <path fill="none" stroke="rgb(255,211,32)" stroke-width="80" stroke-linejoin="round" d="M 3009,1591 L 3031,4050 3137,5470 3242,7644 3348,7855 3453,9028 3559,10497 3664,11126 3769,11732 3875,12154 3980,12289 4086,12565 4191,12708 4297,12713 4402,12786 4507,12762 4613,12771 4718,12670 4824,12525 4929,12584 5035,12464 5140,12394 5245,12342 5351,12235 5456,12177 5562,12076 5667,12011 5773,11994 5878,11974 5983,11956 6089,11929 6194,11886 6300,11822 6405,11809 6511,11755 6616,11671 6721,11659 6827,11636 6932,11618 7038,11615 7143,11604 7249,11565 7354,11551 7459,11527 7565,11538 7670,11526 7776,11514 7881,11504 7987,11503 8092,11498 8197,11482 8303,11491 8408,11474 8514,11469 8619,11464 8725,11446 8830,11440 8935,11433 9041,11412 9146,11415 9252,11394 9357,11373 9463,11365 9568,11356 9673,11359 9779,11362 9884,11366 9990,11368 10095,11345 10201,11336 10306,11326 10411,11330 10517,11308 10622,11309 10728,11298 10833,11299 10939,11302 11044,11296 11150,11305 11255,11292 11360,11300 11466,11295 11571,11280 11677,11288 11782,11293 11887,11297 11992,11301 12097,11293 12203,11291 12308,11283 12414,11277 12519,11283 12625,11290 12730,11295 12835,11300 12941,11311 13046,11321 13152,11315 13257,11325 13363,11321 13468,11331 13573,11341 13679,11354 13784,11353 13890,11352 13995,11355 14101,11370 14206,11379 14311,11389 14417,11402 14522,11403 14628,11417 14733,11418 14839,11426 14944,11435 15049,11444 15155,11454 15260,11468 15366,11480 15471,11496 15577,11507 15682,11501 15787,11512 15893,11513 15998,11510 16104,11519 16209,11510 16315,11514 16420,11524 16525,11524 16631,11535 16736,11547 16842,11561 16947,11555 17053,11549 17158,11549 17263,11549 17369,11553 17474,11563 17580,11563 17685,11571 17791,11571 17896,11584 18001,11591 18107,11589 18212,11593 18318,11605 18423,11613 18529,11611 18634,11616 18739,11625 18845,11638 18950,11650 19056,11649 19161,11671 19267,11673 19372,11669 19477,11665 19583,11674 19688,11678 19794,11685"/>
 <path fill="none" stroke="rgb(87,157,28)" stroke-width="80" stroke-linejoin="round" d="M 1766,5257 L 1787,1591"/>
 <path fill="none" stroke="rgb(87,157,28)" stroke-width="80" stroke-linejoin="round" d="M 2890,1591 L 2926,4050 3031,6962 3137,7952 3242,8642 3348,9333 3453,10570 3559,11456 3664,11977 3769,12154 3875,12467 3980,12639 4086,12708 4191,12840 4297,12844 4402,12890 4507,12824 4613,12808 4718,12679 4824,12584 4929,12611 5035,12491 5140,12421 5245,12361 5351,12255 5456,12200 5562,12102 5667,12054 5773,12018 5878,12014 5983,12001 6089,11929 6194,11907 6300,11851 6405,11838 6511,11781 6616,11713 6721,11689 6827,11658 6932,11654 7038,11643 7143,11629 7249,11590 7354,11578 7459,11550 7565,11551 7670,11539 7776,11529 7881,11515 7987,11511 8092,11507 8197,11491 8303,11498 8408,11481 8514,11477 8619,11471 8725,11453 8830,11446 8935,11436 9041,11415 9146,11418 9252,11397 9357,11377 9463,11368 9568,11359 9673,11362 9779,11366 9884,11368 9990,11369 10095,11348 10201,11338 10306,11330 10411,11332 10517,11309 10622,11310 10728,11299 10833,11302 10939,11307 11044,11305 11150,11315 11255,11300 11360,11307 11466,11304 11571,11288 11677,11293 11782,11297 11887,11301 11992,11305 12097,11302 12203,11294 12308,11288 12414,11283 12519,11290 12625,11295 12730,11300 12835,11311 12941,11333 13046,11337 13152,11325 13257,11332 13363,11331 13468,11341 13573,11354 13679,11364 13784,11363 13890,11366 13995,11370 14101,11379 14206,11389 14311,11402 14417,11413 14522,11417 14628,11429 14733,11426 14839,11435 14944,11444 15049,11454 15155,11468 15260,11480 15366,11496 15471,11507 15577,11511 15682,11512 15787,11524 15893,11520 15998,11519 16104,11530 16209,11524 16315,11524 16420,11534 16525,11535 16631,11547 16736,11561 16842,11575 16947,11568 17053,11559 17158,11559 17263,11562 17369,11563 17474,11573 17580,11571 17685,11580 17791,11584 17896,11591 18001,11599 18107,11602 18212,11605 18318,11613 18423,11620 18529,11616 18634,11625 18739,11638 18845,11650 18950,11658 19056,11671 19161,11682 19267,11678 19372,11674 19477,11674 19583,11678 19688,11685 19794,11691"/>
 <path fill="none" stroke="rgb(126,0,33)" stroke-width="80" stroke-linejoin="round" d="M 1766,5257 L 1787,1591"/>
 <path fill="none" stroke="rgb(126,0,33)" stroke-width="80" stroke-linejoin="round" d="M 2769,1591 L 2821,6124 2926,6962 3031,9029 3137,8905 3242,9943 3348,10788 3453,11511 3559,12221 3664,12360 3769,12467 3875,12788 3980,12777 4086,12840 4191,12961 4297,12944 4402,12947 4507,12859 4613,12815 4718,12733 4824,12611 4929,12636 5035,12516 5140,12440 5245,12380 5351,12277 5456,12224 5562,12143 5667,12077 5773,12058 5878,12058 5983,12001 6089,11950 6194,11935 6300,11880 6405,11863 6511,11821 6616,11743 6721,11711 6827,11693 6932,11682 7038,11668 7143,11653 7249,11616 7354,11600 7459,11563 7565,11564 7670,11554 7776,11540 7881,11523 7987,11519 8092,11515 8197,11498 8303,11505 8408,11489 8514,11483 8619,11477 8725,11458 8830,11448 8935,11439 9041,11418 9146,11421 9252,11401 9357,11380 9463,11371 9568,11362 9673,11366 9779,11368 9884,11369 9990,11372 10095,11350 10201,11341 10306,11332 10411,11333 10517,11310 10622,11311 10728,11302 10833,11307 10939,11317 11044,11315 11150,11323 11255,11307 11360,11315 11466,11311 11571,11293 11677,11297 11782,11301 11887,11305 11992,11314 12097,11306 12203,11300 12308,11295 12414,11290 12519,11295 12625,11300 12730,11311 12835,11333 12941,11348 13046,11348 13152,11332 13257,11342 13363,11341 13468,11354 13573,11364 13679,11374 13784,11377 13890,11381 13995,11379 14101,11389 14206,11402 14311,11413 14417,11427 14522,11429 14628,11437 14733,11435 14839,11444 14944,11454 15049,11468 15155,11480 15260,11496 15366,11507 15471,11511 15577,11522 15682,11524 15787,11530 15893,11529 15998,11530 16104,11544 16209,11534 16315,11534 16420,11545 16525,11547 16631,11561 16736,11575 16842,11588 16947,11578 17053,11568 17158,11572 17263,11573 17369,11573 17474,11580 17580,11580 17685,11593 17791,11591 17896,11599 18001,11611 18107,11614 18212,11613 18318,11620 18423,11625 18529,11625 18634,11638 18739,11650 18845,11658 18950,11680 19056,11682 19161,11687 19267,11683 19372,11683 19477,11678 19583,11685 19688,11691 19794,11696"/>
 <path fill="none" stroke="rgb(131,202,255)" stroke-width="80" stroke-linejoin="round" d="M 1766,5257 L 1787,1591"/>
 <path fill="none" stroke="rgb(131,202,255)" stroke-width="80" stroke-linejoin="round" d="M 2585,1591 L 2610,3729 2715,6124 2821,8453 2926,9029 3031,9824 3137,10147 3242,11224 3348,11675 3453,12262 3559,12566 3664,12645 3769,12788 3875,12914 3980,12903 4086,12961 4191,13054 4297,13000 4402,12979 4507,12866 4613,12865 4718,12757 4824,12636 4929,12659 5035,12534 5140,12458 5245,12400 5351,12301 5456,12263 5562,12166 5667,12116 5773,12101 5878,12058 5983,12021 6089,11977 6194,11963 6300,11904 6405,11902 6511,11850 6616,11764 6721,11746 6827,11721 6932,11707 7038,11692 7143,11679 7249,11638 7354,11613 7459,11576 7565,11579 7670,11565 7776,11547 7881,11531 7987,11528 8092,11522 8197,11505 8303,11513 8408,11495 8514,11489 8619,11482 8725,11460 8830,11451 8935,11442 9041,11421 9146,11425 9252,11404 9357,11383 9463,11373 9568,11366 9673,11368 9779,11369 9884,11372 9990,11373 10095,11353 10201,11344 10306,11333 10411,11333 10517,11311 10622,11314 10728,11307 10833,11317 10939,11327 11044,11323 11150,11330 11255,11315 11360,11323 11466,11317 11571,11297 11677,11301 11782,11305 11887,11314 11992,11317 12097,11311 12203,11306 12308,11302 12414,11295 12519,11300 12625,11311 12730,11333 12835,11348 12941,11359 13046,11355 13152,11342 13257,11352 13363,11354 13468,11364 13573,11374 13679,11388 13784,11391 13890,11390 13995,11389 14101,11402 14206,11413 14311,11427 14417,11439 14522,11437 14628,11446 14733,11444 14839,11454 14944,11468 15049,11480 15155,11496 15260,11507 15366,11511 15471,11522 15577,11534 15682,11530 15787,11539 15893,11541 15998,11544 16104,11554 16209,11544 16315,11545 16420,11557 16525,11561 16631,11575 16736,11588 16842,11598 16947,11588 17053,11582 17158,11583 17263,11583 17369,11580 17474,11590 17580,11593 17685,11600 17791,11599 17896,11611 18001,11624 18107,11622 18212,11620 18318,11625 18423,11634 18529,11638 18634,11650 18739,11658 18845,11680 18950,11691 19056,11687 19161,11692 19267,11692 19372,11687 19477,11685 19583,11691 19688,11696 19794,11701"/>
 <path fill="none" stroke="rgb(49,64,4)" stroke-width="80" stroke-linejoin="round" d="M 1766,5257 L 1787,1591"/>
 <path fill="none" stroke="rgb(49,64,4)" stroke-width="80" stroke-linejoin="round" d="M 2455,1591 L 2504,4358 2610,9383 2715,8453 2821,10108 2926,9824 3031,10859 3137,11369 3242,12005 3348,12384 3453,12600 3559,12822 3664,12936 3769,12914 3875,13029 3980,13019 4086,13054 4191,13105 4297,13031 4402,12986 4507,12915 4613,12888 4718,12780 4824,12659 4929,12676 5035,12551 5140,12477 5245,12423 5351,12338 5456,12285 5562,12204 5667,12158 5773,12101 5878,12078 5983,12047 6089,12005 6194,11987 6300,11943 6405,11930 6511,11871 6616,11798 6721,11773 6827,11745 6932,11730 7038,11717 7143,11701 7249,11651 7354,11626 7459,11591 7565,11589 7670,11572 7776,11556 7881,11540 7987,11535 8092,11530 8197,11513 8303,11519 8408,11501 8514,11494 8619,11484 8725,11463 8830,11454 8935,11445 9041,11425 9146,11428 9252,11407 9357,11385 9463,11377 9568,11368 9673,11369 9779,11372 9884,11373 9990,11377 10095,11356 10201,11345 10306,11333 10411,11334 10517,11314 10622,11319 10728,11317 10833,11327 10939,11335 11044,11330 11150,11339 11255,11323 11360,11328 11466,11320 11571,11301 11677,11305 11782,11314 11887,11317 11992,11323 12097,11318 12203,11313 12308,11306 12414,11300 12519,11311 12625,11333 12730,11348 12835,11359 12941,11366 13046,11364 13152,11352 13257,11365 13363,11364 13468,11374 13573,11388 13679,11402 13784,11401 13890,11400 13995,11402 14101,11413 14206,11427 14311,11439 14417,11448 14522,11446 14628,11454 14733,11454 14839,11468 14944,11480 15049,11496 15155,11507 15260,11511 15366,11522 15471,11534 15577,11540 15682,11539 15787,11551 15893,11555 15998,11554 16104,11564 16209,11555 16315,11557 16420,11571 16525,11575 16631,11588 16736,11598 16842,11607 16947,11601 17053,11592 17158,11592 17263,11590 17369,11590 17474,11603 17580,11600 17685,11608 17791,11611 17896,11624 18001,11632 18107,11629 18212,11625 18318,11634 18423,11647 18529,11650 18634,11658 18739,11680 18845,11691 18950,11696 19056,11692 19161,11701 19267,11696 19372,11694 19477,11691 19583,11696 19688,11701 19794,11707"/>
 <path fill="none" stroke="rgb(174,207,0)" stroke-width="80" stroke-linejoin="round" d="M 1766,5257 L 1788,1591"/>
 <path fill="none" stroke="rgb(174,207,0)" stroke-width="80" stroke-linejoin="round" d="M 2336,1591 L 2399,6245 2504,9679 2610,10797 2715,10108 2821,10743 2926,10859 3031,11878 3137,12115 3242,12628 3348,12703 3453,12852 3559,13084 3664,13051 3769,13029 3875,13136 3980,13108 4086,13105 4191,13134 4297,13037 4402,13031 4507,12937 4613,12909 4718,12802 4824,12676 4929,12691 5035,12570 5140,12499 5245,12458 5351,12359 5456,12321 5562,12244 5667,12158 5773,12120 5878,12103 5983,12074 6089,12028 6194,12024 6300,11970 6405,11950 6511,11903 6616,11825 6721,11797 6827,11768 6932,11755 7038,11738 7143,11713 7249,11663 7354,11640 7459,11601 7565,11596 7670,11580 7776,11564 7881,11547 7987,11542 8092,11537 8197,11519 8303,11525 8408,11506 8514,11496 8619,11487 8725,11466 8830,11457 8935,11449 9041,11428 9146,11430 9252,11409 9357,11389 9463,11380 9568,11369 9673,11372 9779,11373 9884,11377 9990,11379 10095,11356 10201,11345 10306,11334 10411,11338 10517,11319 10622,11329 10728,11327 10833,11335 10939,11342 11044,11339 11150,11346 11255,11328 11360,11332 11466,11324 11571,11305 11677,11314 11782,11317 11887,11323 11992,11329 12097,11325 12203,11318 12308,11311 12414,11311 12519,11333 12625,11348 12730,11359 12835,11366 12941,11375 13046,11374 13152,11365 13257,11375 13363,11374 13468,11388 13573,11402 13679,11412 13784,11411 13890,11413 13995,11413 14101,11427 14206,11439 14311,11448 14417,11456 14522,11454 14628,11465 14733,11468 14839,11480 14944,11496 15049,11507 15155,11511 15260,11522 15366,11534 15471,11540 15577,11549 15682,11551 15787,11565 15893,11564 15998,11564 16104,11575 16209,11567 16315,11571 16420,11584 16525,11588 16631,11598 16736,11607 16842,11621 16947,11612 17053,11602 17158,11600 17263,11599 17369,11603 17474,11610 17580,11608 17685,11621 17791,11624 17896,11632 18001,11639 18107,11635 18212,11634 18318,11647 18423,11659 18529,11658 18634,11680 18739,11691 18845,11696 18950,11701 19056,11701 19161,11705 19267,11703 19372,11700 19477,11696 19583,11701 19688,11707 19794,11713"/>
 <path fill="none" stroke="rgb(75,31,111)" stroke-width="80" stroke-linejoin="round" d="M 1766,5573 L 1791,1591"/>
 <path fill="none" stroke="rgb(75,31,111)" stroke-width="80" stroke-linejoin="round" d="M 2219,1591 L 2293,6245 2399,10568 2504,11010 2610,11802 2715,10743 2821,11571 2926,11878 3031,12499 3137,12710 3242,12909 3348,12941 3453,13109 3559,13188 3664,13156 3769,13136 3875,13218 3980,13157 4086,13134 4191,13140 4297,13080 4402,13051 4507,12957 4613,12929 4718,12817 4824,12691 4929,12709 5035,12590 5140,12533 5245,12478 5351,12394 5456,12359 5562,12244 5667,12177 5773,12146 5878,12129 5983,12097 6089,12065 6194,12051 6300,11990 6405,11982 6511,11929 6616,11848 6721,11819 6827,11793 6932,11776 7038,11750 7143,11725 7249,11677 7354,11651 7459,11609 7565,11605 7670,11589 7776,11571 7881,11554 7987,11549 8092,11543 8197,11525 8303,11530 8408,11508 8514,11499 8619,11490 8725,11469 8830,11461 8935,11452 9041,11430 9146,11433 9252,11413 9357,11392 9463,11381 9568,11372 9673,11373 9779,11377 9884,11379 9990,11380 10095,11357 10201,11346 10306,11338 10411,11343 10517,11329 10622,11339 10728,11335 10833,11342 10939,11350 11044,11346 11150,11351 11255,11332 11360,11336 11466,11328 11571,11314 11677,11317 11782,11323 11887,11329 11992,11336 12097,11329 12203,11323 12308,11322 12414,11333 12519,11348 12625,11359 12730,11366 12835,11375 12941,11385 13046,11387 13152,11375 13257,11385 13363,11388 13468,11402 13573,11412 13679,11422 13784,11424 13890,11424 13995,11427 14101,11439 14206,11448 14311,11456 14417,11465 14522,11465 14628,11479 14733,11480 14839,11496 14944,11507 15049,11511 15155,11522 15260,11534 15366,11540 15471,11549 15577,11561 15682,11565 15787,11574 15893,11574 15998,11575 16104,11587 16209,11581 16315,11584 16420,11598 16525,11598 16631,11607 16736,11621 16842,11631 16947,11621 17053,11609 17158,11609 17263,11612 17369,11610 17474,11618 17580,11621 17685,11633 17791,11632 17896,11639 18001,11644 18107,11644 18212,11647 18318,11659 18423,11667 18529,11680 18634,11691 18739,11696 18845,11701 18950,11710 19056,11705 19161,11712 19267,11709 19372,11705 19477,11701 19583,11707 19688,11713 19794,11721"/>
 <path fill="none" stroke="rgb(255,149,14)" stroke-width="80" stroke-linejoin="round" d="M 1766,5868 L 1794,1591"/>
 <path fill="none" stroke="rgb(255,149,14)" stroke-width="80" stroke-linejoin="round" d="M 2080,1591 L 2083,2084 2188,6874 2293,10568 2399,11650 2504,11956 2610,12188 2715,11571 2821,12386 2926,12499 3031,12995 3137,12978 3242,13118 3348,13183 3453,13211 3559,13282 3664,13253 3769,13218 3875,13263 3980,13185 4086,13140 4191,13180 4297,13100 4402,13070 4507,12976 4613,12943 4718,12831 4824,12709 4929,12728 5035,12623 5140,12552 5245,12510 5351,12430 5456,12359 5562,12262 5667,12202 5773,12171 5878,12152 5983,12133 6089,12091 6194,12070 6300,12021 6405,12007 6511,11951 6616,11870 6721,11843 6827,11813 6932,11788 7038,11763 7143,11739 7249,11688 7354,11658 7459,11617 7565,11613 7670,11595 7776,11578 7881,11561 7987,11555 8092,11549 8197,11530 8303,11532 8408,11511 8514,11502 8619,11493 8725,11473 8830,11464 8935,11454 9041,11433 9146,11437 9252,11416 9357,11393 9463,11384 9568,11373 9673,11377 9779,11379 9884,11380 9990,11381 10095,11358 10201,11350 10306,11343 10411,11353 10517,11339 10622,11347 10728,11342 10833,11350 10939,11358 11044,11351 11150,11355 11255,11336 11360,11340 11466,11337 11571,11317 11677,11323 11782,11329 11887,11336 11992,11340 12097,11334 12203,11334 12308,11344 12414,11348 12519,11359 12625,11366 12730,11375 12835,11385 12941,11398 13046,11397 13152,11385 13257,11399 13363,11402 13468,11412 13573,11422 13679,11434 13784,11435 13890,11438 13995,11439 14101,11448 14206,11456 14311,11465 14417,11475 14522,11479 14628,11491 14733,11496 14839,11507 14944,11511 15049,11522 15155,11534 15260,11540 15366,11549 15471,11561 15577,11575 15682,11574 15787,11584 15893,11585 15998,11587 16104,11600 16209,11594 16315,11598 16420,11608 16525,11607 16631,11621 16736,11631 16842,11640 16947,11628 17053,11618 17158,11622 17263,11619 17369,11618 17474,11630 17580,11633 17685,11641 17791,11639 17896,11644 18001,11653 18107,11656 18212,11659 18318,11667 18423,11689 18529,11691 18634,11696 18739,11701 18845,11710 18950,11714 19056,11712 19161,11718 19267,11714 19372,11710 19477,11707 19583,11713 19688,11721 19794,11725"/>
 <path fill="none" stroke="rgb(197,0,11)" stroke-width="80" stroke-linejoin="round" d="M 1766,6143 L 1795,1591"/>
 <path fill="none" stroke="rgb(197,0,11)" stroke-width="80" stroke-linejoin="round" d="M 1956,1591 L 1977,4552 2083,8131 2188,10865 2293,11650 2399,12418 2504,12319 2610,12691 2715,12386 2821,12883 2926,12995 3031,13218 3137,13177 3242,13332 3348,13279 3453,13303 3559,13370 3664,13327 3769,13263 3875,13288 3980,13191 4086,13180 4191,13198 4297,13118 4402,13088 4507,12990 4613,12956 4718,12847 4824,12728 4929,12758 5035,12641 5140,12583 5245,12545 5351,12430 5456,12376 5562,12286 5667,12227 5773,12193 5878,12187 5983,12158 6089,12110 6194,12100 6300,12046 6405,12028 6511,11972 6616,11894 6721,11864 6827,11825 6932,11800 7038,11776 7143,11749 7249,11695 7354,11666 7459,11625 7565,11620 7670,11603 7776,11586 7881,11567 7987,11561 8092,11554 8197,11532 8303,11536 8408,11514 8514,11505 8619,11497 8725,11476 8830,11466 8935,11457 9041,11437 9146,11440 9252,11417 9357,11396 9463,11385 9568,11377 9673,11379 9779,11380 9884,11381 9990,11382 10095,11362 10201,11355 10306,11353 10411,11362 10517,11347 10622,11354 10728,11350 10833,11358 10939,11363 11044,11355 11150,11359 11255,11340 11360,11348 11466,11340 11571,11323 11677,11329 11782,11336 11887,11340 11992,11346 12097,11345 12203,11355 12308,11360 12414,11359 12519,11366 12625,11375 12730,11385 12835,11398 12941,11408 13046,11407 13152,11399 13257,11413 13363,11412 13468,11422 13573,11434 13679,11446 13784,11449 13890,11450 13995,11448 14101,11456 14206,11465 14311,11475 14417,11489 14522,11491 14628,11506 14733,11507 14839,11511 14944,11522 15049,11534 15155,11540 15260,11549 15366,11561 15471,11575 15577,11584 15682,11584 15787,11595 15893,11597 15998,11600 16104,11614 16209,11608 16315,11608 16420,11617 16525,11621 16631,11631 16736,11640 16842,11648 16947,11638 17053,11631 17158,11629 17263,11627 17369,11630 17474,11643 17580,11641 17685,11648 17791,11644 17896,11653 18001,11666 18107,11668 18212,11667 18318,11689 18423,11700 18529,11696 18634,11701 18739,11710 18845,11714 18950,11721 19056,11718 19161,11723 19267,11719 19372,11716 19477,11713 19583,11721 19688,11725 19794,11733"/>
 <path fill="none" stroke="rgb(0,132,209)" stroke-width="80" stroke-linejoin="round" d="M 1766,6143 L 1872,7019 1977,9389 2083,11457 2188,11863 2293,12418 2399,12713 2504,12792 2610,13185 2715,12883 2821,13280 2926,13218 3031,13385 3137,13381 3242,13416 3348,13367 3453,13389 3559,13436 3664,13368 3769,13288 3875,13293 3980,13229 4086,13198 4191,13214 4297,13135 4402,13100 4507,13003 4613,12971 4718,12865 4824,12758 4929,12774 5035,12671 5140,12616 5245,12545 5351,12447 5456,12398 5562,12310 5667,12248 5773,12227 5878,12211 5983,12176 6089,12139 6194,12123 6300,12067 6405,12049 6511,11995 6616,11914 6721,11875 6827,11837 6932,11813 7038,11786 7143,11756 7249,11702 7354,11674 7459,11632 7565,11627 7670,11610 7776,11591 7881,11573 7987,11566 8092,11556 8197,11536 8303,11538 8408,11517 8514,11509 8619,11499 8725,11478 8830,11469 8935,11461 9041,11440 9146,11441 9252,11419 9357,11397 9463,11389 9568,11379 9673,11380 9779,11381 9884,11382 9990,11385 10095,11367 10201,11364 10306,11362 10411,11370 10517,11354 10622,11362 10728,11358 10833,11363 10939,11367 11044,11359 11150,11363 11255,11348 11360,11352 11466,11346 11571,11329 11677,11336 11782,11340 11887,11346 11992,11357 12097,11367 12203,11371 12308,11370 12414,11366 12519,11375 12625,11385 12730,11398 12835,11408 12941,11418 13046,11421 13152,11413 13257,11423 13363,11422 13468,11434 13573,11446 13679,11459 13784,11461 13890,11458 13995,11456 14101,11465 14206,11475 14311,11489 14417,11501 14522,11506 14628,11518 14733,11511 14839,11522 14944,11534 15049,11540 15155,11549 15260,11561 15366,11575 15471,11584 15577,11594 15682,11595 15787,11607 15893,11610 15998,11614 16104,11627 16209,11617 16315,11617 16420,11630 16525,11631 16631,11640 16736,11648 16842,11657 16947,11650 17053,11638 17158,11637 17263,11640 17369,11643 17474,11650 17580,11648 17685,11653 17791,11653 17896,11666 18001,11677 18107,11676 18212,11689 18318,11700 18423,11705 18529,11701 18634,11710 18739,11714 18845,11721 18950,11726 19056,11723 19161,11727 19267,11725 19372,11722 19477,11721 19583,11725 19688,11733 19794,11740"/>
 <path fill="none" stroke="rgb(0,69,134)" stroke-width="80" stroke-linejoin="round" d="M 1766,11953 L 1872,10647 1977,12050 2083,12289 2188,12572 2293,12713 2399,13098 2504,13258 2610,13487 2715,13280 2821,13459 2926,13385 3031,13555 3137,13462 3242,13493 3348,13447 3453,13455 3559,13473 3664,13391 3769,13293 3875,13329 3980,13246 4086,13214 4191,13230 4297,13147 4402,13112 4507,13017 4613,12987 4718,12892 4824,12774 4929,12802 5035,12702 5140,12616 5245,12561 5351,12469 5456,12421 5562,12331 5667,12282 5773,12251 5878,12229 5983,12205 6089,12162 6194,12144 6300,12087 6405,12071 6511,12014 6616,11925 6721,11887 6827,11850 6932,11823 7038,11793 7143,11764 7249,11711 7354,11681 7459,11639 7565,11634 7670,11616 7776,11597 7881,11578 7987,11568 8092,11560 8197,11538 8303,11541 8408,11521 8514,11511 8619,11502 8725,11481 8830,11473 8935,11463 9041,11441 9146,11443 9252,11421 9357,11401 9463,11391 9568,11380 9673,11381 9779,11382 9884,11385 9990,11390 10095,11376 10201,11374 10306,11370 10411,11377 10517,11362 10622,11369 10728,11363 10833,11367 10939,11371 11044,11363 11150,11372 11255,11352 11360,11357 11466,11352 11571,11336 11677,11340 11782,11346 11887,11357 11992,11378 12097,11382 12203,11381 12308,11377 12414,11375 12519,11385 12625,11398 12730,11408 12835,11418 12941,11431 13046,11435 13152,11423 13257,11433 13363,11434 13468,11446 13573,11459 13679,11471 13784,11469 13890,11467 13995,11465 14101,11475 14206,11489 14311,11501 14417,11517 14522,11518 14628,11522 14733,11522 14839,11534 14944,11540 15049,11549 15155,11561 15260,11575 15366,11584 15471,11594 15577,11605 15682,11607 15787,11620 15893,11624 15998,11627 16104,11637 16209,11627 16315,11630 16420,11641 16525,11640 16631,11648 16736,11657 16842,11669 16947,11657 17053,11646 17158,11649 17263,11652 17369,11650 17474,11657 17580,11653 17685,11662 17791,11666 17896,11677 18001,11685 18107,11698 18212,11700 18318,11705 18423,11710 18529,11710 18634,11714 18739,11721 18845,11726 18950,11732 19056,11727 19161,11734 19267,11731 19372,11730 19477,11725 19583,11733 19688,11740 19794,11745"/>
 <path fill="none" stroke="rgb(255,66,14)" stroke-width="80" stroke-linejoin="round" d="M 1766,13163 L 1872,12643 1977,12715 2083,12880 2188,12845 2293,13098 2399,13476 2504,13542 2610,13728 2715,13459 2821,13592 2926,13555 3031,13622 3137,13535 3242,13564 3348,13509 3453,13491 3559,13494 3664,13396 3769,13329 3875,13344 3980,13263 4086,13230 4191,13241 4297,13159 4402,13125 4507,13033 4613,13012 4718,12908 4824,12802 4929,12831 5035,12702 5140,12632 5245,12581 5351,12491 5456,12441 5562,12363 5667,12305 5773,12269 5878,12257 5983,12227 6089,12183 6194,12163 6300,12108 6405,12089 6511,12025 6616,11937 6721,11900 6827,11860 6932,11830 7038,11800 7143,11772 7249,11717 7354,11688 7459,11646 7565,11640 7670,11621 7776,11602 7881,11580 7987,11572 8092,11562 8197,11541 8303,11545 8408,11523 8514,11514 8619,11505 8725,11485 8830,11475 8935,11465 9041,11443 9146,11445 9252,11425 9357,11403 9463,11392 9568,11381 9673,11382 9779,11385 9884,11390 9990,11400 10095,11386 10201,11382 10306,11377 10411,11385 10517,11369 10622,11375 10728,11367 10833,11371 10939,11374 11044,11372 11150,11375 11255,11357 11360,11364 11466,11359 11571,11340 11677,11346 11782,11357 11887,11378 11992,11393 12097,11392 12203,11388 12308,11386 12414,11385 12519,11398 12625,11408 12730,11418 12835,11431 12941,11446 13046,11445 13152,11433 13257,11445 13363,11446 13468,11459 13573,11471 13679,11480 13784,11478 13890,11475 13995,11475 14101,11489 14206,11501 14311,11517 14417,11528 14522,11522 14628,11532 14733,11534 14839,11540 14944,11549 15049,11561 15155,11575 15260,11584 15366,11594 15471,11605 15577,11616 15682,11620 15787,11634 15893,11637 15998,11637 16104,11646 16209,11640 16315,11641 16420,11650 16525,11648 16631,11657 16736,11669 16842,11676 16947,11665 17053,11659 17158,11661 17263,11660 17369,11657 17474,11663 17580,11662 17685,11675 17791,11677 17896,11685 18001,11707 18107,11709 18212,11705 18318,11710 18423,11719 18529,11714 18634,11721 18739,11726 18845,11732 18950,11736 19056,11734 19161,11740 19267,11739 19372,11734 19477,11733 19583,11740 19688,11745 19794,11751"/>
 <path fill="none" stroke="rgb(255,211,32)" stroke-width="80" stroke-linejoin="round" d="M 1766,13828 L 1872,13142 1977,13188 2083,13107 2188,13199 2293,13476 2399,13707 2504,13769 2610,13837 2715,13592 2821,13728 2926,13622 3031,13683 3137,13603 3242,13619 3348,13543 3453,13511 3559,13498 3664,13428 3769,13344 3875,13359 3980,13278 4086,13241 4191,13252 4297,13171 4402,13139 4507,13057 4613,13026 4718,12933 4824,12831 4929,12831 5035,12717 5140,12651 5245,12602 5351,12509 5456,12471 5562,12385 5667,12322 5773,12296 5878,12279 5983,12247 6089,12202 6194,12184 6300,12127 6405,12100 6511,12036 6616,11949 6721,11909 6827,11867 6932,11837 7038,11808 7143,11778 7249,11724 7354,11695 7459,11652 7565,11646 7670,11626 7776,11604 7881,11584 7987,11574 8092,11565 8197,11545 8303,11547 8408,11526 8514,11517 8619,11509 8725,11487 8830,11476 8935,11467 9041,11445 9146,11448 9252,11427 9357,11404 9463,11393 9568,11382 9673,11385 9779,11390 9884,11400 9990,11409 10095,11393 10201,11389 10306,11385 10411,11393 10517,11375 10622,11378 10728,11371 10833,11374 10939,11383 11044,11375 11150,11380 11255,11364 11360,11370 11466,11363 11571,11346 11677,11357 11782,11378 11887,11393 11992,11404 12097,11400 12203,11398 12308,11396 12414,11398 12519,11408 12625,11418 12730,11431 12835,11446 12941,11455 13046,11454 13152,11445 13257,11456 13363,11459 13468,11471 13573,11480 13679,11488 13784,11486 13890,11486 13995,11489 14101,11501 14206,11517 14311,11528 14417,11532 14522,11532 14628,11544 14733,11540 14839,11549 14944,11561 15049,11575 15155,11584 15260,11594 15366,11605 15471,11616 15577,11630 15682,11634 15787,11647 15893,11647 15998,11646 16104,11659 16209,11650 16315,11650 16420,11657 16525,11657 16631,11669 16736,11676 16842,11684 16947,11677 17053,11671 17158,11669 17263,11667 17369,11663 17474,11672 17580,11675 17685,11686 17791,11685 17896,11707 18001,11718 18107,11714 18212,11710 18318,11719 18423,11723 18529,11721 18634,11726 18739,11732 18845,11736 18950,11743 19056,11740 19161,11748 19267,11743 19372,11742 19477,11740 19583,11745 19688,11751 19794,11761"/>
 <text class="TextShape" transform="rotate(-90 1882 15540)"><tspan class="TextParagraph" font-family="Liberation Sans, sans-serif" font-size="353px" font-weight="400"><tspan class="TextPosition" x="1882" y="15540"><tspan fill="rgb(0,0,0)" stroke="none">22.02</tspan></tspan></tspan></text>
 <text class="TextShape" transform="rotate(-90 2620 15540)"><tspan class="TextParagraph" font-family="Liberation Sans, sans-serif" font-size="353px" font-weight="400"><tspan class="TextPosition" x="2620" y="15540"><tspan fill="rgb(0,0,0)" stroke="none">29.02</tspan></tspan></tspan></text>
 <text class="TextShape" transform="rotate(-90 3358 15540)"><tspan class="TextParagraph" font-family="Liberation Sans, sans-serif" font-size="353px" font-weight="400"><tspan class="TextPosition" x="3358" y="15540"><tspan fill="rgb(0,0,0)" stroke="none">07.03</tspan></tspan></tspan></text>
 <text class="TextShape" transform="rotate(-90 4096 15540)"><tspan class="TextParagraph" font-family="Liberation Sans, sans-serif" font-size="353px" font-weight="400"><tspan class="TextPosition" x="4096" y="15540"><tspan fill="rgb(0,0,0)" stroke="none">14.03</tspan></tspan></tspan></text>
 <text class="TextShape" transform="rotate(-90 4834 15540)"><tspan class="TextParagraph" font-family="Liberation Sans, sans-serif" font-size="353px" font-weight="400"><tspan class="TextPosition" x="4834" y="15540"><tspan fill="rgb(0,0,0)" stroke="none">21.03</tspan></tspan></tspan></text>
 <text class="TextShape" transform="rotate(-90 5572 15540)"><tspan class="TextParagraph" font-family="Liberation Sans, sans-serif" font-size="353px" font-weight="400"><tspan class="TextPosition" x="5572" y="15540"><tspan fill="rgb(0,0,0)" stroke="none">28.03</tspan></tspan></tspan></text>
 <text class="TextShape" transform="rotate(-90 6310 15540)"><tspan class="TextParagraph" font-family="Liberation Sans, sans-serif" font-size="353px" font-weight="400"><tspan class="TextPosition" x="6310" y="15540"><tspan fill="rgb(0,0,0)" stroke="none">04.04</tspan></tspan></tspan></text>
 <text class="TextShape" transform="rotate(-90 7048 15540)"><tspan class="TextParagraph" font-family="Liberation Sans, sans-serif" font-size="353px" font-weight="400"><tspan class="TextPosition" x="7048" y="15540"><tspan fill="rgb(0,0,0)" stroke="none">11.04</tspan></tspan></tspan></text>
 <text class="TextShape" transform="rotate(-90 7786 15540)"><tspan class="TextParagraph" font-family="Liberation Sans, sans-serif" font-size="353px" font-weight="400"><tspan class="TextPosition" x="7786" y="15540"><tspan fill="rgb(0,0,0)" stroke="none">18.04</tspan></tspan></tspan></text>
 <text class="TextShape" transform="rotate(-90 8524 15540)"><tspan class="TextParagraph" font-family="Liberation Sans, sans-serif" font-size="353px" font-weight="400"><tspan class="TextPosition" x="8524" y="15540"><tspan fill="rgb(0,0,0)" stroke="none">25.04</tspan></tspan></tspan></text>
 <text class="TextShape" transform="rotate(-90 9262 15540)"><tspan class="TextParagraph" font-family="Liberation Sans, sans-serif" font-size="353px" font-weight="400"><tspan class="TextPosition" x="9262" y="15540"><tspan fill="rgb(0,0,0)" stroke="none">02.05</tspan></tspan></tspan></text>
 <text class="TextShape" transform="rotate(-90 10000 15540)"><tspan class="TextParagraph" font-family="Liberation Sans, sans-serif" font-size="353px" font-weight="400"><tspan class="TextPosition" x="10000" y="15540"><tspan fill="rgb(0,0,0)" stroke="none">09.05</tspan></tspan></tspan></text>
 <text class="TextShape" transform="rotate(-90 10738 15540)"><tspan class="TextParagraph" font-family="Liberation Sans, sans-serif" font-size="353px" font-weight="400"><tspan class="TextPosition" x="10738" y="15540"><tspan fill="rgb(0,0,0)" stroke="none">16.05</tspan></tspan></tspan></text>
 <text class="TextShape" transform="rotate(-90 11476 15540)"><tspan class="TextParagraph" font-family="Liberation Sans, sans-serif" font-size="353px" font-weight="400"><tspan class="TextPosition" x="11476" y="15540"><tspan fill="rgb(0,0,0)" stroke="none">23.05</tspan></tspan></tspan></text>
 <text class="TextShape" transform="rotate(-90 12213 15540)"><tspan class="TextParagraph" font-family="Liberation Sans, sans-serif" font-size="353px" font-weight="400"><tspan class="TextPosition" x="12213" y="15540"><tspan fill="rgb(0,0,0)" stroke="none">30.05</tspan></tspan></tspan></text>
 <text class="TextShape" transform="rotate(-90 12951 15540)"><tspan class="TextParagraph" font-family="Liberation Sans, sans-serif" font-size="353px" font-weight="400"><tspan class="TextPosition" x="12951" y="15540"><tspan fill="rgb(0,0,0)" stroke="none">06.06</tspan></tspan></tspan></text>
 <text class="TextShape" transform="rotate(-90 13689 15540)"><tspan class="TextParagraph" font-family="Liberation Sans, sans-serif" font-size="353px" font-weight="400"><tspan class="TextPosition" x="13689" y="15540"><tspan fill="rgb(0,0,0)" stroke="none">13.06</tspan></tspan></tspan></text>
 <text class="TextShape" transform="rotate(-90 14427 15540)"><tspan class="TextParagraph" font-family="Liberation Sans, sans-serif" font-size="353px" font-weight="400"><tspan class="TextPosition" x="14427" y="15540"><tspan fill="rgb(0,0,0)" stroke="none">20.06</tspan></tspan></tspan></text>
 <text class="TextShape" transform="rotate(-90 15165 15540)"><tspan class="TextParagraph" font-family="Liberation Sans, sans-serif" font-size="353px" font-weight="400"><tspan class="TextPosition" x="15165" y="15540"><tspan fill="rgb(0,0,0)" stroke="none">27.06</tspan></tspan></tspan></text>
 <text class="TextShape" transform="rotate(-90 15903 15540)"><tspan class="TextParagraph" font-family="Liberation Sans, sans-serif" font-size="353px" font-weight="400"><tspan class="TextPosition" x="15903" y="15540"><tspan fill="rgb(0,0,0)" stroke="none">04.07</tspan></tspan></tspan></text>
 <text class="TextShape" transform="rotate(-90 16641 15540)"><tspan class="TextParagraph" font-family="Liberation Sans, sans-serif" font-size="353px" font-weight="400"><tspan class="TextPosition" x="16641" y="15540"><tspan fill="rgb(0,0,0)" stroke="none">11.07</tspan></tspan></tspan></text>
 <text class="TextShape" transform="rotate(-90 17379 15540)"><tspan class="TextParagraph" font-family="Liberation Sans, sans-serif" font-size="353px" font-weight="400"><tspan class="TextPosition" x="17379" y="15540"><tspan fill="rgb(0,0,0)" stroke="none">18.07</tspan></tspan></tspan></text>
 <text class="TextShape" transform="rotate(-90 18117 15540)"><tspan class="TextParagraph" font-family="Liberation Sans, sans-serif" font-size="353px" font-weight="400"><tspan class="TextPosition" x="18117" y="15540"><tspan fill="rgb(0,0,0)" stroke="none">25.07</tspan></tspan></tspan></text>
 <text class="TextShape" transform="rotate(-90 18855 15540)"><tspan class="TextParagraph" font-family="Liberation Sans, sans-serif" font-size="353px" font-weight="400"><tspan class="TextPosition" x="18855" y="15540"><tspan fill="rgb(0,0,0)" stroke="none">01.08</tspan></tspan></tspan></text>
 <text class="TextShape" transform="rotate(-90 19593 15540)"><tspan class="TextParagraph" font-family="Liberation Sans, sans-serif" font-size="353px" font-weight="400"><tspan class="TextPosition" x="19593" y="15540"><tspan fill="rgb(0,0,0)" stroke="none">08.08</tspan></tspan></tspan></text>
 <text class="TextShape"><tspan class="TextParagraph" font-family="Liberation Sans, sans-serif" font-size="353px" font-weight="400"><tspan class="TextPosition" x="363" y="14539"><tspan fill="rgb(0,0,0)" stroke="none">0,00 %</tspan></tspan></tspan></text>
 <text class="TextShape"><tspan class="TextParagraph" font-family="Liberation Sans, sans-serif" font-size="353px" font-weight="400"><tspan class="TextPosition" x="363" y="13255"><tspan fill="rgb(0,0,0)" stroke="none">1,00 %</tspan></tspan></tspan></text>
 <text class="TextShape"><tspan class="TextParagraph" font-family="Liberation Sans, sans-serif" font-size="353px" font-weight="400"><tspan class="TextPosition" x="363" y="11972"><tspan fill="rgb(0,0,0)" stroke="none">2,00 %</tspan></tspan></tspan></text>
 <text class="TextShape"><tspan class="TextParagraph" font-family="Liberation Sans, sans-serif" font-size="353px" font-weight="400"><tspan class="TextPosition" x="363" y="10689"><tspan fill="rgb(0,0,0)" stroke="none">3,00 %</tspan></tspan></tspan></text>
 <text class="TextShape"><tspan class="TextParagraph" font-family="Liberation Sans, sans-serif" font-size="353px" font-weight="400"><tspan class="TextPosition" x="363" y="9406"><tspan fill="rgb(0,0,0)" stroke="none">4,00 %</tspan></tspan></tspan></text>
 <text class="TextShape"><tspan class="TextParagraph" font-family="Liberation Sans, sans-serif" font-size="353px" font-weight="400"><tspan class="TextPosition" x="363" y="8123"><tspan fill="rgb(0,0,0)" stroke="none">5,00 %</tspan></tspan></tspan></text>
 <text class="TextShape"><tspan class="TextParagraph" font-family="Liberation Sans, sans-serif" font-size="353px" font-weight="400"><tspan class="TextPosition" x="363" y="6840"><tspan fill="rgb(0,0,0)" stroke="none">6,00 %</tspan></tspan></tspan></text>
 <text class="TextShape"><tspan class="TextParagraph" font-family="Liberation Sans, sans-serif" font-size="353px" font-weight="400"><tspan class="TextPosition" x="363" y="5557"><tspan fill="rgb(0,0,0)" stroke="none">7,00 %</tspan></tspan></tspan></text>
 <text class="TextShape"><tspan class="TextParagraph" font-family="Liberation Sans, sans-serif" font-size="353px" font-weight="400"><tspan class="TextPosition" x="363" y="4274"><tspan fill="rgb(0,0,0)" stroke="none">8,00 %</tspan></tspan></tspan></text>
 <text class="TextShape"><tspan class="TextParagraph" font-family="Liberation Sans, sans-serif" font-size="353px" font-weight="400"><tspan class="TextPosition" x="363" y="2991"><tspan fill="rgb(0,0,0)" stroke="none">9,00 %</tspan></tspan></tspan></text>
 <text class="TextShape"><tspan class="TextParagraph" font-family="Liberation Sans, sans-serif" font-size="353px" font-weight="400"><tspan class="TextPosition" x="173" y="1708"><tspan fill="rgb(0,0,0)" stroke="none">10,00 %</tspan></tspan></tspan></text>
 <text class="TextShape"><tspan class="TextParagraph" font-family="Liberation Sans, sans-serif" font-size="459px" font-weight="700"><tspan class="TextPosition" x="2212" y="1016"><tspan fill="rgb(0,0,0)" stroke="none">Jin Korea - pomr celkovho potu obt k posunutmu celkovmu potu infikovanch</tspan></tspan></tspan></text>
 <path fill="none" stroke="rgb(0,69,134)" stroke-width="80" stroke-linejoin="round" d="M 20014,1914 L 20814,1914"/>
 <path fill="none" stroke="rgb(255,66,14)" stroke-width="80" stroke-linejoin="round" d="M 20014,2787 L 20814,2787"/>
 <path fill="none" stroke="rgb(255,211,32)" stroke-width="80" stroke-linejoin="round" d="M 20014,3660 L 20814,3660"/>
 <path fill="none" stroke="rgb(87,157,28)" stroke-width="80" stroke-linejoin="round" d="M 20014,4533 L 20814,4533"/>
 <path fill="none" stroke="rgb(126,0,33)" stroke-width="80" stroke-linejoin="round" d="M 20014,5406 L 20814,5406"/>
 <path fill="none" stroke="rgb(131,202,255)" stroke-width="80" stroke-linejoin="round" d="M 20014,6279 L 20814,6279"/>
 <path fill="none" stroke="rgb(49,64,4)" stroke-width="80" stroke-linejoin="round" d="M 20014,7152 L 20814,7152"/>
 <path fill="none" stroke="rgb(174,207,0)" stroke-width="80" stroke-linejoin="round" d="M 20014,8025 L 20814,8025"/>
 <path fill="none" stroke="rgb(75,31,111)" stroke-width="80" stroke-linejoin="round" d="M 20014,8897 L 20814,8897"/>
 <path fill="none" stroke="rgb(255,149,14)" stroke-width="80" stroke-linejoin="round" d="M 20014,9770 L 20814,9770"/>
 <path fill="none" stroke="rgb(197,0,11)" stroke-width="80" stroke-linejoin="round" d="M 20014,10643 L 20814,10643"/>
 <path fill="none" stroke="rgb(0,132,209)" stroke-width="80" stroke-linejoin="round" d="M 20014,11516 L 20814,11516"/>
 <path fill="none" stroke="rgb(0,69,134)" stroke-width="80" stroke-linejoin="round" d="M 20014,12389 L 20814,12389"/>
 <path fill="none" stroke="rgb(255,66,14)" stroke-width="80" stroke-linejoin="round" d="M 20014,13262 L 20814,13262"/>
 <path fill="none" stroke="rgb(255,211,32)" stroke-width="80" stroke-linejoin="round" d="M 20014,14135 L 20814,14135"/>
 <text class="TextShape"><tspan class="TextParagraph" font-family="Liberation Sans, sans-serif" font-size="353px" font-weight="400"><tspan class="TextPosition" x="20914" y="2031"><tspan fill="rgb(0,0,0)" stroke="none">14 dn zpodn</tspan></tspan></tspan></text>
 <text class="TextShape"><tspan class="TextParagraph" font-family="Liberation Sans, sans-serif" font-size="353px" font-weight="400"><tspan class="TextPosition" x="20914" y="2904"><tspan fill="rgb(0,0,0)" stroke="none">13 dn zpodn</tspan></tspan></tspan></text>
 <text class="TextShape"><tspan class="TextParagraph" font-family="Liberation Sans, sans-serif" font-size="353px" font-weight="400"><tspan class="TextPosition" x="20914" y="3777"><tspan fill="rgb(0,0,0)" stroke="none">12 dn zpodn</tspan></tspan></tspan></text>
 <text class="TextShape"><tspan class="TextParagraph" font-family="Liberation Sans, sans-serif" font-size="353px" font-weight="400"><tspan class="TextPosition" x="20914" y="4650"><tspan fill="rgb(0,0,0)" stroke="none">11 dn zpodn</tspan></tspan></tspan></text>
 <text class="TextShape"><tspan class="TextParagraph" font-family="Liberation Sans, sans-serif" font-size="353px" font-weight="400"><tspan class="TextPosition" x="20914" y="5523"><tspan fill="rgb(0,0,0)" stroke="none">10 dn zpodn</tspan></tspan></tspan></text>
 <text class="TextShape"><tspan class="TextParagraph" font-family="Liberation Sans, sans-serif" font-size="353px" font-weight="400"><tspan class="TextPosition" x="20914" y="6396"><tspan fill="rgb(0,0,0)" stroke="none">9 dn zpodn</tspan></tspan></tspan></text>
 <text class="TextShape"><tspan class="TextParagraph" font-family="Liberation Sans, sans-serif" font-size="353px" font-weight="400"><tspan class="TextPosition" x="20914" y="7269"><tspan fill="rgb(0,0,0)" stroke="none">8 dn zpodn</tspan></tspan></tspan></text>
 <text class="TextShape"><tspan class="TextParagraph" font-family="Liberation Sans, sans-serif" font-size="353px" font-weight="400"><tspan class="TextPosition" x="20914" y="8141"><tspan fill="rgb(0,0,0)" stroke="none">7 dn zpodn</tspan></tspan></tspan></text>
 <text class="TextShape"><tspan class="TextParagraph" font-family="Liberation Sans, sans-serif" font-size="353px" font-weight="400"><tspan class="TextPosition" x="20914" y="9014"><tspan fill="rgb(0,0,0)" stroke="none">6 dn zpodn</tspan></tspan></tspan></text>
 <text class="TextShape"><tspan class="TextParagraph" font-family="Liberation Sans, sans-serif" font-size="353px" font-weight="400"><tspan class="TextPosition" x="20914" y="9887"><tspan fill="rgb(0,0,0)" stroke="none">5 dn zpodn</tspan></tspan></tspan></text>
 <text class="TextShape"><tspan class="TextParagraph" font-family="Liberation Sans, sans-serif" font-size="353px" font-weight="400"><tspan class="TextPosition" x="20914" y="10760"><tspan fill="rgb(0,0,0)" stroke="none">4 dny zpodn</tspan></tspan></tspan></text>
 <text class="TextShape"><tspan class="TextParagraph" font-family="Liberation Sans, sans-serif" font-size="353px" font-weight="400"><tspan class="TextPosition" x="20914" y="11633"><tspan fill="rgb(0,0,0)" stroke="none">3 dny zpodn</tspan></tspan></tspan></text>
 <text class="TextShape"><tspan class="TextParagraph" font-family="Liberation Sans, sans-serif" font-size="353px" font-weight="400"><tspan class="TextPosition" x="20914" y="12506"><tspan fill="rgb(0,0,0)" stroke="none">2 dny zpodn</tspan></tspan></tspan></text>
 <text class="TextShape"><tspan class="TextParagraph" font-family="Liberation Sans, sans-serif" font-size="353px" font-weight="400"><tspan class="TextPosition" x="20914" y="13379"><tspan fill="rgb(0,0,0)" stroke="none">1 den zpodn</tspan></tspan></tspan></text>
 <text class="TextShape"><tspan class="TextParagraph" font-family="Liberation Sans, sans-serif" font-size="353px" font-weight="400"><tspan class="TextPosition" x="20914" y="14252"><tspan fill="rgb(0,0,0)" stroke="none">0 dn zpodn</tspan></tspan></tspan></text>
</svg>