<?xml version="1.0" encoding="UTF-8"?>
<!DOCTYPE svg PUBLIC "-//W3C//DTD SVG 1.1//EN" "http://www.w3.org/Graphics/SVG/1.1/DTD/svg11.dtd">
<svg width="236mm" height="161mm" viewBox="0 0 23600 16100" version="1.1" xmlns="http://www.w3.org/2000/svg" xmlns:xlink="http://www.w3.org/1999/xlink" stroke-width="28.222" stroke-linejoin="round" xml:space="preserve">
 <path fill="rgb(255,255,255)" stroke="none" d="M 11802,16125 L 1,16125 1,-1 23602,-1 23602,16125 11802,16125 Z"/>
 <path fill="none" stroke="rgb(179,179,179)" stroke-linejoin="round" d="M 10782,14424 L 1715,14424 1715,1594 19848,1594 19848,14424 10782,14424 Z"/>
 <path fill="none" stroke="rgb(179,179,179)" stroke-linejoin="round" d="M 19848,14423 L 1715,14423"/>
 <path fill="none" stroke="rgb(179,179,179)" stroke-linejoin="round" d="M 19848,13909 L 1715,13909"/>
 <path fill="none" stroke="rgb(179,179,179)" stroke-linejoin="round" d="M 19848,13396 L 1715,13396"/>
 <path fill="none" stroke="rgb(179,179,179)" stroke-linejoin="round" d="M 19848,12883 L 1715,12883"/>
 <path fill="none" stroke="rgb(179,179,179)" stroke-linejoin="round" d="M 19848,12370 L 1715,12370"/>
 <path fill="none" stroke="rgb(179,179,179)" stroke-linejoin="round" d="M 19848,11856 L 1715,11856"/>
 <path fill="none" stroke="rgb(179,179,179)" stroke-linejoin="round" d="M 19848,11343 L 1715,11343"/>
 <path fill="none" stroke="rgb(179,179,179)" stroke-linejoin="round" d="M 19848,10830 L 1715,10830"/>
 <path fill="none" stroke="rgb(179,179,179)" stroke-linejoin="round" d="M 19848,10317 L 1715,10317"/>
 <path fill="none" stroke="rgb(179,179,179)" stroke-linejoin="round" d="M 19848,9803 L 1715,9803"/>
 <path fill="none" stroke="rgb(179,179,179)" stroke-linejoin="round" d="M 19848,9290 L 1715,9290"/>
 <path fill="none" stroke="rgb(179,179,179)" stroke-linejoin="round" d="M 19848,8777 L 1715,8777"/>
 <path fill="none" stroke="rgb(179,179,179)" stroke-linejoin="round" d="M 19848,8264 L 1715,8264"/>
 <path fill="none" stroke="rgb(179,179,179)" stroke-linejoin="round" d="M 19848,7751 L 1715,7751"/>
 <path fill="none" stroke="rgb(179,179,179)" stroke-linejoin="round" d="M 19848,7238 L 1715,7238"/>
 <path fill="none" stroke="rgb(179,179,179)" stroke-linejoin="round" d="M 19848,6725 L 1715,6725"/>
 <path fill="none" stroke="rgb(179,179,179)" stroke-linejoin="round" d="M 19848,6212 L 1715,6212"/>
 <path fill="none" stroke="rgb(179,179,179)" stroke-linejoin="round" d="M 19848,5698 L 1715,5698"/>
 <path fill="none" stroke="rgb(179,179,179)" stroke-linejoin="round" d="M 19848,5185 L 1715,5185"/>
 <path fill="none" stroke="rgb(179,179,179)" stroke-linejoin="round" d="M 19848,4672 L 1715,4672"/>
 <path fill="none" stroke="rgb(179,179,179)" stroke-linejoin="round" d="M 19848,4159 L 1715,4159"/>
 <path fill="none" stroke="rgb(179,179,179)" stroke-linejoin="round" d="M 19848,3645 L 1715,3645"/>
 <path fill="none" stroke="rgb(179,179,179)" stroke-linejoin="round" d="M 19848,3132 L 1715,3132"/>
 <path fill="none" stroke="rgb(179,179,179)" stroke-linejoin="round" d="M 19848,2619 L 1715,2619"/>
 <path fill="none" stroke="rgb(179,179,179)" stroke-linejoin="round" d="M 19848,2106 L 1715,2106"/>
 <path fill="none" stroke="rgb(179,179,179)" stroke-linejoin="round" d="M 19848,1593 L 1715,1593"/>
 <path fill="none" stroke="rgb(179,179,179)" stroke-linejoin="round" d="M 1715,14573 L 1715,14423"/>
 <path fill="none" stroke="rgb(179,179,179)" stroke-linejoin="round" d="M 1715,14573 L 1715,14423"/>
 <path fill="none" stroke="rgb(179,179,179)" stroke-linejoin="round" d="M 1819,14573 L 1819,14423"/>
 <path fill="none" stroke="rgb(179,179,179)" stroke-linejoin="round" d="M 1819,14573 L 1819,14423"/>
 <path fill="none" stroke="rgb(179,179,179)" stroke-linejoin="round" d="M 1923,14573 L 1923,14423"/>
 <path fill="none" stroke="rgb(179,179,179)" stroke-linejoin="round" d="M 1923,14573 L 1923,14423"/>
 <path fill="none" stroke="rgb(179,179,179)" stroke-linejoin="round" d="M 2027,14573 L 2027,14423"/>
 <path fill="none" stroke="rgb(179,179,179)" stroke-linejoin="round" d="M 2027,14573 L 2027,14423"/>
 <path fill="none" stroke="rgb(179,179,179)" stroke-linejoin="round" d="M 2131,14573 L 2131,14423"/>
 <path fill="none" stroke="rgb(179,179,179)" stroke-linejoin="round" d="M 2131,14573 L 2131,14423"/>
 <path fill="none" stroke="rgb(179,179,179)" stroke-linejoin="round" d="M 2236,14573 L 2236,14423"/>
 <path fill="none" stroke="rgb(179,179,179)" stroke-linejoin="round" d="M 2236,14573 L 2236,14423"/>
 <path fill="none" stroke="rgb(179,179,179)" stroke-linejoin="round" d="M 2340,14573 L 2340,14423"/>
 <path fill="none" stroke="rgb(179,179,179)" stroke-linejoin="round" d="M 2340,14573 L 2340,14423"/>
 <path fill="none" stroke="rgb(179,179,179)" stroke-linejoin="round" d="M 2444,14573 L 2444,14423"/>
 <path fill="none" stroke="rgb(179,179,179)" stroke-linejoin="round" d="M 2444,14573 L 2444,14423"/>
 <path fill="none" stroke="rgb(179,179,179)" stroke-linejoin="round" d="M 2548,14573 L 2548,14423"/>
 <path fill="none" stroke="rgb(179,179,179)" stroke-linejoin="round" d="M 2548,14573 L 2548,14423"/>
 <path fill="none" stroke="rgb(179,179,179)" stroke-linejoin="round" d="M 2652,14573 L 2652,14423"/>
 <path fill="none" stroke="rgb(179,179,179)" stroke-linejoin="round" d="M 2652,14573 L 2652,14423"/>
 <path fill="none" stroke="rgb(179,179,179)" stroke-linejoin="round" d="M 2757,14573 L 2757,14423"/>
 <path fill="none" stroke="rgb(179,179,179)" stroke-linejoin="round" d="M 2757,14573 L 2757,14423"/>
 <path fill="none" stroke="rgb(179,179,179)" stroke-linejoin="round" d="M 2861,14573 L 2861,14423"/>
 <path fill="none" stroke="rgb(179,179,179)" stroke-linejoin="round" d="M 2861,14573 L 2861,14423"/>
 <path fill="none" stroke="rgb(179,179,179)" stroke-linejoin="round" d="M 2965,14573 L 2965,14423"/>
 <path fill="none" stroke="rgb(179,179,179)" stroke-linejoin="round" d="M 2965,14573 L 2965,14423"/>
 <path fill="none" stroke="rgb(179,179,179)" stroke-linejoin="round" d="M 3069,14573 L 3069,14423"/>
 <path fill="none" stroke="rgb(179,179,179)" stroke-linejoin="round" d="M 3069,14573 L 3069,14423"/>
 <path fill="none" stroke="rgb(179,179,179)" stroke-linejoin="round" d="M 3174,14573 L 3174,14423"/>
 <path fill="none" stroke="rgb(179,179,179)" stroke-linejoin="round" d="M 3174,14573 L 3174,14423"/>
 <path fill="none" stroke="rgb(179,179,179)" stroke-linejoin="round" d="M 3278,14573 L 3278,14423"/>
 <path fill="none" stroke="rgb(179,179,179)" stroke-linejoin="round" d="M 3278,14573 L 3278,14423"/>
 <path fill="none" stroke="rgb(179,179,179)" stroke-linejoin="round" d="M 3382,14573 L 3382,14423"/>
 <path fill="none" stroke="rgb(179,179,179)" stroke-linejoin="round" d="M 3382,14573 L 3382,14423"/>
 <path fill="none" stroke="rgb(179,179,179)" stroke-linejoin="round" d="M 3486,14573 L 3486,14423"/>
 <path fill="none" stroke="rgb(179,179,179)" stroke-linejoin="round" d="M 3486,14573 L 3486,14423"/>
 <path fill="none" stroke="rgb(179,179,179)" stroke-linejoin="round" d="M 3590,14573 L 3590,14423"/>
 <path fill="none" stroke="rgb(179,179,179)" stroke-linejoin="round" d="M 3590,14573 L 3590,14423"/>
 <path fill="none" stroke="rgb(179,179,179)" stroke-linejoin="round" d="M 3695,14573 L 3695,14423"/>
 <path fill="none" stroke="rgb(179,179,179)" stroke-linejoin="round" d="M 3695,14573 L 3695,14423"/>
 <path fill="none" stroke="rgb(179,179,179)" stroke-linejoin="round" d="M 3799,14573 L 3799,14423"/>
 <path fill="none" stroke="rgb(179,179,179)" stroke-linejoin="round" d="M 3799,14573 L 3799,14423"/>
 <path fill="none" stroke="rgb(179,179,179)" stroke-linejoin="round" d="M 3903,14573 L 3903,14423"/>
 <path fill="none" stroke="rgb(179,179,179)" stroke-linejoin="round" d="M 3903,14573 L 3903,14423"/>
 <path fill="none" stroke="rgb(179,179,179)" stroke-linejoin="round" d="M 4007,14573 L 4007,14423"/>
 <path fill="none" stroke="rgb(179,179,179)" stroke-linejoin="round" d="M 4007,14573 L 4007,14423"/>
 <path fill="none" stroke="rgb(179,179,179)" stroke-linejoin="round" d="M 4112,14573 L 4112,14423"/>
 <path fill="none" stroke="rgb(179,179,179)" stroke-linejoin="round" d="M 4112,14573 L 4112,14423"/>
 <path fill="none" stroke="rgb(179,179,179)" stroke-linejoin="round" d="M 4216,14573 L 4216,14423"/>
 <path fill="none" stroke="rgb(179,179,179)" stroke-linejoin="round" d="M 4216,14573 L 4216,14423"/>
 <path fill="none" stroke="rgb(179,179,179)" stroke-linejoin="round" d="M 4320,14573 L 4320,14423"/>
 <path fill="none" stroke="rgb(179,179,179)" stroke-linejoin="round" d="M 4320,14573 L 4320,14423"/>
 <path fill="none" stroke="rgb(179,179,179)" stroke-linejoin="round" d="M 4424,14573 L 4424,14423"/>
 <path fill="none" stroke="rgb(179,179,179)" stroke-linejoin="round" d="M 4424,14573 L 4424,14423"/>
 <path fill="none" stroke="rgb(179,179,179)" stroke-linejoin="round" d="M 4528,14573 L 4528,14423"/>
 <path fill="none" stroke="rgb(179,179,179)" stroke-linejoin="round" d="M 4528,14573 L 4528,14423"/>
 <path fill="none" stroke="rgb(179,179,179)" stroke-linejoin="round" d="M 4633,14573 L 4633,14423"/>
 <path fill="none" stroke="rgb(179,179,179)" stroke-linejoin="round" d="M 4633,14573 L 4633,14423"/>
 <path fill="none" stroke="rgb(179,179,179)" stroke-linejoin="round" d="M 4737,14573 L 4737,14423"/>
 <path fill="none" stroke="rgb(179,179,179)" stroke-linejoin="round" d="M 4737,14573 L 4737,14423"/>
 <path fill="none" stroke="rgb(179,179,179)" stroke-linejoin="round" d="M 4841,14573 L 4841,14423"/>
 <path fill="none" stroke="rgb(179,179,179)" stroke-linejoin="round" d="M 4841,14573 L 4841,14423"/>
 <path fill="none" stroke="rgb(179,179,179)" stroke-linejoin="round" d="M 4945,14573 L 4945,14423"/>
 <path fill="none" stroke="rgb(179,179,179)" stroke-linejoin="round" d="M 4945,14573 L 4945,14423"/>
 <path fill="none" stroke="rgb(179,179,179)" stroke-linejoin="round" d="M 5049,14573 L 5049,14423"/>
 <path fill="none" stroke="rgb(179,179,179)" stroke-linejoin="round" d="M 5049,14573 L 5049,14423"/>
 <path fill="none" stroke="rgb(179,179,179)" stroke-linejoin="round" d="M 5154,14573 L 5154,14423"/>
 <path fill="none" stroke="rgb(179,179,179)" stroke-linejoin="round" d="M 5154,14573 L 5154,14423"/>
 <path fill="none" stroke="rgb(179,179,179)" stroke-linejoin="round" d="M 5258,14573 L 5258,14423"/>
 <path fill="none" stroke="rgb(179,179,179)" stroke-linejoin="round" d="M 5258,14573 L 5258,14423"/>
 <path fill="none" stroke="rgb(179,179,179)" stroke-linejoin="round" d="M 5362,14573 L 5362,14423"/>
 <path fill="none" stroke="rgb(179,179,179)" stroke-linejoin="round" d="M 5362,14573 L 5362,14423"/>
 <path fill="none" stroke="rgb(179,179,179)" stroke-linejoin="round" d="M 5466,14573 L 5466,14423"/>
 <path fill="none" stroke="rgb(179,179,179)" stroke-linejoin="round" d="M 5466,14573 L 5466,14423"/>
 <path fill="none" stroke="rgb(179,179,179)" stroke-linejoin="round" d="M 5571,14573 L 5571,14423"/>
 <path fill="none" stroke="rgb(179,179,179)" stroke-linejoin="round" d="M 5571,14573 L 5571,14423"/>
 <path fill="none" stroke="rgb(179,179,179)" stroke-linejoin="round" d="M 5675,14573 L 5675,14423"/>
 <path fill="none" stroke="rgb(179,179,179)" stroke-linejoin="round" d="M 5675,14573 L 5675,14423"/>
 <path fill="none" stroke="rgb(179,179,179)" stroke-linejoin="round" d="M 5779,14573 L 5779,14423"/>
 <path fill="none" stroke="rgb(179,179,179)" stroke-linejoin="round" d="M 5779,14573 L 5779,14423"/>
 <path fill="none" stroke="rgb(179,179,179)" stroke-linejoin="round" d="M 5883,14573 L 5883,14423"/>
 <path fill="none" stroke="rgb(179,179,179)" stroke-linejoin="round" d="M 5883,14573 L 5883,14423"/>
 <path fill="none" stroke="rgb(179,179,179)" stroke-linejoin="round" d="M 5987,14573 L 5987,14423"/>
 <path fill="none" stroke="rgb(179,179,179)" stroke-linejoin="round" d="M 5987,14573 L 5987,14423"/>
 <path fill="none" stroke="rgb(179,179,179)" stroke-linejoin="round" d="M 6092,14573 L 6092,14423"/>
 <path fill="none" stroke="rgb(179,179,179)" stroke-linejoin="round" d="M 6092,14573 L 6092,14423"/>
 <path fill="none" stroke="rgb(179,179,179)" stroke-linejoin="round" d="M 6196,14573 L 6196,14423"/>
 <path fill="none" stroke="rgb(179,179,179)" stroke-linejoin="round" d="M 6196,14573 L 6196,14423"/>
 <path fill="none" stroke="rgb(179,179,179)" stroke-linejoin="round" d="M 6300,14573 L 6300,14423"/>
 <path fill="none" stroke="rgb(179,179,179)" stroke-linejoin="round" d="M 6300,14573 L 6300,14423"/>
 <path fill="none" stroke="rgb(179,179,179)" stroke-linejoin="round" d="M 6404,14573 L 6404,14423"/>
 <path fill="none" stroke="rgb(179,179,179)" stroke-linejoin="round" d="M 6404,14573 L 6404,14423"/>
 <path fill="none" stroke="rgb(179,179,179)" stroke-linejoin="round" d="M 6509,14573 L 6509,14423"/>
 <path fill="none" stroke="rgb(179,179,179)" stroke-linejoin="round" d="M 6509,14573 L 6509,14423"/>
 <path fill="none" stroke="rgb(179,179,179)" stroke-linejoin="round" d="M 6613,14573 L 6613,14423"/>
 <path fill="none" stroke="rgb(179,179,179)" stroke-linejoin="round" d="M 6613,14573 L 6613,14423"/>
 <path fill="none" stroke="rgb(179,179,179)" stroke-linejoin="round" d="M 6717,14573 L 6717,14423"/>
 <path fill="none" stroke="rgb(179,179,179)" stroke-linejoin="round" d="M 6717,14573 L 6717,14423"/>
 <path fill="none" stroke="rgb(179,179,179)" stroke-linejoin="round" d="M 6821,14573 L 6821,14423"/>
 <path fill="none" stroke="rgb(179,179,179)" stroke-linejoin="round" d="M 6821,14573 L 6821,14423"/>
 <path fill="none" stroke="rgb(179,179,179)" stroke-linejoin="round" d="M 6925,14573 L 6925,14423"/>
 <path fill="none" stroke="rgb(179,179,179)" stroke-linejoin="round" d="M 6925,14573 L 6925,14423"/>
 <path fill="none" stroke="rgb(179,179,179)" stroke-linejoin="round" d="M 7030,14573 L 7030,14423"/>
 <path fill="none" stroke="rgb(179,179,179)" stroke-linejoin="round" d="M 7030,14573 L 7030,14423"/>
 <path fill="none" stroke="rgb(179,179,179)" stroke-linejoin="round" d="M 7134,14573 L 7134,14423"/>
 <path fill="none" stroke="rgb(179,179,179)" stroke-linejoin="round" d="M 7134,14573 L 7134,14423"/>
 <path fill="none" stroke="rgb(179,179,179)" stroke-linejoin="round" d="M 7238,14573 L 7238,14423"/>
 <path fill="none" stroke="rgb(179,179,179)" stroke-linejoin="round" d="M 7238,14573 L 7238,14423"/>
 <path fill="none" stroke="rgb(179,179,179)" stroke-linejoin="round" d="M 7342,14573 L 7342,14423"/>
 <path fill="none" stroke="rgb(179,179,179)" stroke-linejoin="round" d="M 7342,14573 L 7342,14423"/>
 <path fill="none" stroke="rgb(179,179,179)" stroke-linejoin="round" d="M 7447,14573 L 7447,14423"/>
 <path fill="none" stroke="rgb(179,179,179)" stroke-linejoin="round" d="M 7447,14573 L 7447,14423"/>
 <path fill="none" stroke="rgb(179,179,179)" stroke-linejoin="round" d="M 7551,14573 L 7551,14423"/>
 <path fill="none" stroke="rgb(179,179,179)" stroke-linejoin="round" d="M 7551,14573 L 7551,14423"/>
 <path fill="none" stroke="rgb(179,179,179)" stroke-linejoin="round" d="M 7655,14573 L 7655,14423"/>
 <path fill="none" stroke="rgb(179,179,179)" stroke-linejoin="round" d="M 7655,14573 L 7655,14423"/>
 <path fill="none" stroke="rgb(179,179,179)" stroke-linejoin="round" d="M 7759,14573 L 7759,14423"/>
 <path fill="none" stroke="rgb(179,179,179)" stroke-linejoin="round" d="M 7759,14573 L 7759,14423"/>
 <path fill="none" stroke="rgb(179,179,179)" stroke-linejoin="round" d="M 7863,14573 L 7863,14423"/>
 <path fill="none" stroke="rgb(179,179,179)" stroke-linejoin="round" d="M 7863,14573 L 7863,14423"/>
 <path fill="none" stroke="rgb(179,179,179)" stroke-linejoin="round" d="M 7968,14573 L 7968,14423"/>
 <path fill="none" stroke="rgb(179,179,179)" stroke-linejoin="round" d="M 7968,14573 L 7968,14423"/>
 <path fill="none" stroke="rgb(179,179,179)" stroke-linejoin="round" d="M 8072,14573 L 8072,14423"/>
 <path fill="none" stroke="rgb(179,179,179)" stroke-linejoin="round" d="M 8072,14573 L 8072,14423"/>
 <path fill="none" stroke="rgb(179,179,179)" stroke-linejoin="round" d="M 8176,14573 L 8176,14423"/>
 <path fill="none" stroke="rgb(179,179,179)" stroke-linejoin="round" d="M 8176,14573 L 8176,14423"/>
 <path fill="none" stroke="rgb(179,179,179)" stroke-linejoin="round" d="M 8280,14573 L 8280,14423"/>
 <path fill="none" stroke="rgb(179,179,179)" stroke-linejoin="round" d="M 8280,14573 L 8280,14423"/>
 <path fill="none" stroke="rgb(179,179,179)" stroke-linejoin="round" d="M 8384,14573 L 8384,14423"/>
 <path fill="none" stroke="rgb(179,179,179)" stroke-linejoin="round" d="M 8384,14573 L 8384,14423"/>
 <path fill="none" stroke="rgb(179,179,179)" stroke-linejoin="round" d="M 8489,14573 L 8489,14423"/>
 <path fill="none" stroke="rgb(179,179,179)" stroke-linejoin="round" d="M 8489,14573 L 8489,14423"/>
 <path fill="none" stroke="rgb(179,179,179)" stroke-linejoin="round" d="M 8593,14573 L 8593,14423"/>
 <path fill="none" stroke="rgb(179,179,179)" stroke-linejoin="round" d="M 8593,14573 L 8593,14423"/>
 <path fill="none" stroke="rgb(179,179,179)" stroke-linejoin="round" d="M 8697,14573 L 8697,14423"/>
 <path fill="none" stroke="rgb(179,179,179)" stroke-linejoin="round" d="M 8697,14573 L 8697,14423"/>
 <path fill="none" stroke="rgb(179,179,179)" stroke-linejoin="round" d="M 8801,14573 L 8801,14423"/>
 <path fill="none" stroke="rgb(179,179,179)" stroke-linejoin="round" d="M 8801,14573 L 8801,14423"/>
 <path fill="none" stroke="rgb(179,179,179)" stroke-linejoin="round" d="M 8906,14573 L 8906,14423"/>
 <path fill="none" stroke="rgb(179,179,179)" stroke-linejoin="round" d="M 8906,14573 L 8906,14423"/>
 <path fill="none" stroke="rgb(179,179,179)" stroke-linejoin="round" d="M 9010,14573 L 9010,14423"/>
 <path fill="none" stroke="rgb(179,179,179)" stroke-linejoin="round" d="M 9010,14573 L 9010,14423"/>
 <path fill="none" stroke="rgb(179,179,179)" stroke-linejoin="round" d="M 9114,14573 L 9114,14423"/>
 <path fill="none" stroke="rgb(179,179,179)" stroke-linejoin="round" d="M 9114,14573 L 9114,14423"/>
 <path fill="none" stroke="rgb(179,179,179)" stroke-linejoin="round" d="M 9218,14573 L 9218,14423"/>
 <path fill="none" stroke="rgb(179,179,179)" stroke-linejoin="round" d="M 9218,14573 L 9218,14423"/>
 <path fill="none" stroke="rgb(179,179,179)" stroke-linejoin="round" d="M 9322,14573 L 9322,14423"/>
 <path fill="none" stroke="rgb(179,179,179)" stroke-linejoin="round" d="M 9322,14573 L 9322,14423"/>
 <path fill="none" stroke="rgb(179,179,179)" stroke-linejoin="round" d="M 9427,14573 L 9427,14423"/>
 <path fill="none" stroke="rgb(179,179,179)" stroke-linejoin="round" d="M 9427,14573 L 9427,14423"/>
 <path fill="none" stroke="rgb(179,179,179)" stroke-linejoin="round" d="M 9531,14573 L 9531,14423"/>
 <path fill="none" stroke="rgb(179,179,179)" stroke-linejoin="round" d="M 9531,14573 L 9531,14423"/>
 <path fill="none" stroke="rgb(179,179,179)" stroke-linejoin="round" d="M 9635,14573 L 9635,14423"/>
 <path fill="none" stroke="rgb(179,179,179)" stroke-linejoin="round" d="M 9635,14573 L 9635,14423"/>
 <path fill="none" stroke="rgb(179,179,179)" stroke-linejoin="round" d="M 9739,14573 L 9739,14423"/>
 <path fill="none" stroke="rgb(179,179,179)" stroke-linejoin="round" d="M 9739,14573 L 9739,14423"/>
 <path fill="none" stroke="rgb(179,179,179)" stroke-linejoin="round" d="M 9844,14573 L 9844,14423"/>
 <path fill="none" stroke="rgb(179,179,179)" stroke-linejoin="round" d="M 9844,14573 L 9844,14423"/>
 <path fill="none" stroke="rgb(179,179,179)" stroke-linejoin="round" d="M 9948,14573 L 9948,14423"/>
 <path fill="none" stroke="rgb(179,179,179)" stroke-linejoin="round" d="M 9948,14573 L 9948,14423"/>
 <path fill="none" stroke="rgb(179,179,179)" stroke-linejoin="round" d="M 10052,14573 L 10052,14423"/>
 <path fill="none" stroke="rgb(179,179,179)" stroke-linejoin="round" d="M 10052,14573 L 10052,14423"/>
 <path fill="none" stroke="rgb(179,179,179)" stroke-linejoin="round" d="M 10156,14573 L 10156,14423"/>
 <path fill="none" stroke="rgb(179,179,179)" stroke-linejoin="round" d="M 10156,14573 L 10156,14423"/>
 <path fill="none" stroke="rgb(179,179,179)" stroke-linejoin="round" d="M 10260,14573 L 10260,14423"/>
 <path fill="none" stroke="rgb(179,179,179)" stroke-linejoin="round" d="M 10260,14573 L 10260,14423"/>
 <path fill="none" stroke="rgb(179,179,179)" stroke-linejoin="round" d="M 10365,14573 L 10365,14423"/>
 <path fill="none" stroke="rgb(179,179,179)" stroke-linejoin="round" d="M 10365,14573 L 10365,14423"/>
 <path fill="none" stroke="rgb(179,179,179)" stroke-linejoin="round" d="M 10469,14573 L 10469,14423"/>
 <path fill="none" stroke="rgb(179,179,179)" stroke-linejoin="round" d="M 10469,14573 L 10469,14423"/>
 <path fill="none" stroke="rgb(179,179,179)" stroke-linejoin="round" d="M 10573,14573 L 10573,14423"/>
 <path fill="none" stroke="rgb(179,179,179)" stroke-linejoin="round" d="M 10573,14573 L 10573,14423"/>
 <path fill="none" stroke="rgb(179,179,179)" stroke-linejoin="round" d="M 10677,14573 L 10677,14423"/>
 <path fill="none" stroke="rgb(179,179,179)" stroke-linejoin="round" d="M 10677,14573 L 10677,14423"/>
 <path fill="none" stroke="rgb(179,179,179)" stroke-linejoin="round" d="M 10782,14573 L 10782,14423"/>
 <path fill="none" stroke="rgb(179,179,179)" stroke-linejoin="round" d="M 10782,14573 L 10782,14423"/>
 <path fill="none" stroke="rgb(179,179,179)" stroke-linejoin="round" d="M 10886,14573 L 10886,14423"/>
 <path fill="none" stroke="rgb(179,179,179)" stroke-linejoin="round" d="M 10886,14573 L 10886,14423"/>
 <path fill="none" stroke="rgb(179,179,179)" stroke-linejoin="round" d="M 10990,14573 L 10990,14423"/>
 <path fill="none" stroke="rgb(179,179,179)" stroke-linejoin="round" d="M 10990,14573 L 10990,14423"/>
 <path fill="none" stroke="rgb(179,179,179)" stroke-linejoin="round" d="M 11094,14573 L 11094,14423"/>
 <path fill="none" stroke="rgb(179,179,179)" stroke-linejoin="round" d="M 11094,14573 L 11094,14423"/>
 <path fill="none" stroke="rgb(179,179,179)" stroke-linejoin="round" d="M 11198,14573 L 11198,14423"/>
 <path fill="none" stroke="rgb(179,179,179)" stroke-linejoin="round" d="M 11198,14573 L 11198,14423"/>
 <path fill="none" stroke="rgb(179,179,179)" stroke-linejoin="round" d="M 11303,14573 L 11303,14423"/>
 <path fill="none" stroke="rgb(179,179,179)" stroke-linejoin="round" d="M 11303,14573 L 11303,14423"/>
 <path fill="none" stroke="rgb(179,179,179)" stroke-linejoin="round" d="M 11407,14573 L 11407,14423"/>
 <path fill="none" stroke="rgb(179,179,179)" stroke-linejoin="round" d="M 11407,14573 L 11407,14423"/>
 <path fill="none" stroke="rgb(179,179,179)" stroke-linejoin="round" d="M 11511,14573 L 11511,14423"/>
 <path fill="none" stroke="rgb(179,179,179)" stroke-linejoin="round" d="M 11511,14573 L 11511,14423"/>
 <path fill="none" stroke="rgb(179,179,179)" stroke-linejoin="round" d="M 11615,14573 L 11615,14423"/>
 <path fill="none" stroke="rgb(179,179,179)" stroke-linejoin="round" d="M 11615,14573 L 11615,14423"/>
 <path fill="none" stroke="rgb(179,179,179)" stroke-linejoin="round" d="M 11719,14573 L 11719,14423"/>
 <path fill="none" stroke="rgb(179,179,179)" stroke-linejoin="round" d="M 11719,14573 L 11719,14423"/>
 <path fill="none" stroke="rgb(179,179,179)" stroke-linejoin="round" d="M 11823,14573 L 11823,14423"/>
 <path fill="none" stroke="rgb(179,179,179)" stroke-linejoin="round" d="M 11823,14573 L 11823,14423"/>
 <path fill="none" stroke="rgb(179,179,179)" stroke-linejoin="round" d="M 11927,14573 L 11927,14423"/>
 <path fill="none" stroke="rgb(179,179,179)" stroke-linejoin="round" d="M 11927,14573 L 11927,14423"/>
 <path fill="none" stroke="rgb(179,179,179)" stroke-linejoin="round" d="M 12031,14573 L 12031,14423"/>
 <path fill="none" stroke="rgb(179,179,179)" stroke-linejoin="round" d="M 12031,14573 L 12031,14423"/>
 <path fill="none" stroke="rgb(179,179,179)" stroke-linejoin="round" d="M 12135,14573 L 12135,14423"/>
 <path fill="none" stroke="rgb(179,179,179)" stroke-linejoin="round" d="M 12135,14573 L 12135,14423"/>
 <path fill="none" stroke="rgb(179,179,179)" stroke-linejoin="round" d="M 12240,14573 L 12240,14423"/>
 <path fill="none" stroke="rgb(179,179,179)" stroke-linejoin="round" d="M 12240,14573 L 12240,14423"/>
 <path fill="none" stroke="rgb(179,179,179)" stroke-linejoin="round" d="M 12344,14573 L 12344,14423"/>
 <path fill="none" stroke="rgb(179,179,179)" stroke-linejoin="round" d="M 12344,14573 L 12344,14423"/>
 <path fill="none" stroke="rgb(179,179,179)" stroke-linejoin="round" d="M 12448,14573 L 12448,14423"/>
 <path fill="none" stroke="rgb(179,179,179)" stroke-linejoin="round" d="M 12448,14573 L 12448,14423"/>
 <path fill="none" stroke="rgb(179,179,179)" stroke-linejoin="round" d="M 12552,14573 L 12552,14423"/>
 <path fill="none" stroke="rgb(179,179,179)" stroke-linejoin="round" d="M 12552,14573 L 12552,14423"/>
 <path fill="none" stroke="rgb(179,179,179)" stroke-linejoin="round" d="M 12656,14573 L 12656,14423"/>
 <path fill="none" stroke="rgb(179,179,179)" stroke-linejoin="round" d="M 12656,14573 L 12656,14423"/>
 <path fill="none" stroke="rgb(179,179,179)" stroke-linejoin="round" d="M 12761,14573 L 12761,14423"/>
 <path fill="none" stroke="rgb(179,179,179)" stroke-linejoin="round" d="M 12761,14573 L 12761,14423"/>
 <path fill="none" stroke="rgb(179,179,179)" stroke-linejoin="round" d="M 12865,14573 L 12865,14423"/>
 <path fill="none" stroke="rgb(179,179,179)" stroke-linejoin="round" d="M 12865,14573 L 12865,14423"/>
 <path fill="none" stroke="rgb(179,179,179)" stroke-linejoin="round" d="M 12969,14573 L 12969,14423"/>
 <path fill="none" stroke="rgb(179,179,179)" stroke-linejoin="round" d="M 12969,14573 L 12969,14423"/>
 <path fill="none" stroke="rgb(179,179,179)" stroke-linejoin="round" d="M 13073,14573 L 13073,14423"/>
 <path fill="none" stroke="rgb(179,179,179)" stroke-linejoin="round" d="M 13073,14573 L 13073,14423"/>
 <path fill="none" stroke="rgb(179,179,179)" stroke-linejoin="round" d="M 13178,14573 L 13178,14423"/>
 <path fill="none" stroke="rgb(179,179,179)" stroke-linejoin="round" d="M 13178,14573 L 13178,14423"/>
 <path fill="none" stroke="rgb(179,179,179)" stroke-linejoin="round" d="M 13282,14573 L 13282,14423"/>
 <path fill="none" stroke="rgb(179,179,179)" stroke-linejoin="round" d="M 13282,14573 L 13282,14423"/>
 <path fill="none" stroke="rgb(179,179,179)" stroke-linejoin="round" d="M 13386,14573 L 13386,14423"/>
 <path fill="none" stroke="rgb(179,179,179)" stroke-linejoin="round" d="M 13386,14573 L 13386,14423"/>
 <path fill="none" stroke="rgb(179,179,179)" stroke-linejoin="round" d="M 13490,14573 L 13490,14423"/>
 <path fill="none" stroke="rgb(179,179,179)" stroke-linejoin="round" d="M 13490,14573 L 13490,14423"/>
 <path fill="none" stroke="rgb(179,179,179)" stroke-linejoin="round" d="M 13594,14573 L 13594,14423"/>
 <path fill="none" stroke="rgb(179,179,179)" stroke-linejoin="round" d="M 13594,14573 L 13594,14423"/>
 <path fill="none" stroke="rgb(179,179,179)" stroke-linejoin="round" d="M 13699,14573 L 13699,14423"/>
 <path fill="none" stroke="rgb(179,179,179)" stroke-linejoin="round" d="M 13699,14573 L 13699,14423"/>
 <path fill="none" stroke="rgb(179,179,179)" stroke-linejoin="round" d="M 13803,14573 L 13803,14423"/>
 <path fill="none" stroke="rgb(179,179,179)" stroke-linejoin="round" d="M 13803,14573 L 13803,14423"/>
 <path fill="none" stroke="rgb(179,179,179)" stroke-linejoin="round" d="M 13907,14573 L 13907,14423"/>
 <path fill="none" stroke="rgb(179,179,179)" stroke-linejoin="round" d="M 13907,14573 L 13907,14423"/>
 <path fill="none" stroke="rgb(179,179,179)" stroke-linejoin="round" d="M 14011,14573 L 14011,14423"/>
 <path fill="none" stroke="rgb(179,179,179)" stroke-linejoin="round" d="M 14011,14573 L 14011,14423"/>
 <path fill="none" stroke="rgb(179,179,179)" stroke-linejoin="round" d="M 14115,14573 L 14115,14423"/>
 <path fill="none" stroke="rgb(179,179,179)" stroke-linejoin="round" d="M 14115,14573 L 14115,14423"/>
 <path fill="none" stroke="rgb(179,179,179)" stroke-linejoin="round" d="M 14220,14573 L 14220,14423"/>
 <path fill="none" stroke="rgb(179,179,179)" stroke-linejoin="round" d="M 14220,14573 L 14220,14423"/>
 <path fill="none" stroke="rgb(179,179,179)" stroke-linejoin="round" d="M 14324,14573 L 14324,14423"/>
 <path fill="none" stroke="rgb(179,179,179)" stroke-linejoin="round" d="M 14324,14573 L 14324,14423"/>
 <path fill="none" stroke="rgb(179,179,179)" stroke-linejoin="round" d="M 14428,14573 L 14428,14423"/>
 <path fill="none" stroke="rgb(179,179,179)" stroke-linejoin="round" d="M 14428,14573 L 14428,14423"/>
 <path fill="none" stroke="rgb(179,179,179)" stroke-linejoin="round" d="M 14532,14573 L 14532,14423"/>
 <path fill="none" stroke="rgb(179,179,179)" stroke-linejoin="round" d="M 14532,14573 L 14532,14423"/>
 <path fill="none" stroke="rgb(179,179,179)" stroke-linejoin="round" d="M 14637,14573 L 14637,14423"/>
 <path fill="none" stroke="rgb(179,179,179)" stroke-linejoin="round" d="M 14637,14573 L 14637,14423"/>
 <path fill="none" stroke="rgb(179,179,179)" stroke-linejoin="round" d="M 14741,14573 L 14741,14423"/>
 <path fill="none" stroke="rgb(179,179,179)" stroke-linejoin="round" d="M 14741,14573 L 14741,14423"/>
 <path fill="none" stroke="rgb(179,179,179)" stroke-linejoin="round" d="M 14845,14573 L 14845,14423"/>
 <path fill="none" stroke="rgb(179,179,179)" stroke-linejoin="round" d="M 14845,14573 L 14845,14423"/>
 <path fill="none" stroke="rgb(179,179,179)" stroke-linejoin="round" d="M 14949,14573 L 14949,14423"/>
 <path fill="none" stroke="rgb(179,179,179)" stroke-linejoin="round" d="M 14949,14573 L 14949,14423"/>
 <path fill="none" stroke="rgb(179,179,179)" stroke-linejoin="round" d="M 15053,14573 L 15053,14423"/>
 <path fill="none" stroke="rgb(179,179,179)" stroke-linejoin="round" d="M 15053,14573 L 15053,14423"/>
 <path fill="none" stroke="rgb(179,179,179)" stroke-linejoin="round" d="M 15158,14573 L 15158,14423"/>
 <path fill="none" stroke="rgb(179,179,179)" stroke-linejoin="round" d="M 15158,14573 L 15158,14423"/>
 <path fill="none" stroke="rgb(179,179,179)" stroke-linejoin="round" d="M 15262,14573 L 15262,14423"/>
 <path fill="none" stroke="rgb(179,179,179)" stroke-linejoin="round" d="M 15262,14573 L 15262,14423"/>
 <path fill="none" stroke="rgb(179,179,179)" stroke-linejoin="round" d="M 15366,14573 L 15366,14423"/>
 <path fill="none" stroke="rgb(179,179,179)" stroke-linejoin="round" d="M 15366,14573 L 15366,14423"/>
 <path fill="none" stroke="rgb(179,179,179)" stroke-linejoin="round" d="M 15470,14573 L 15470,14423"/>
 <path fill="none" stroke="rgb(179,179,179)" stroke-linejoin="round" d="M 15470,14573 L 15470,14423"/>
 <path fill="none" stroke="rgb(179,179,179)" stroke-linejoin="round" d="M 15575,14573 L 15575,14423"/>
 <path fill="none" stroke="rgb(179,179,179)" stroke-linejoin="round" d="M 15575,14573 L 15575,14423"/>
 <path fill="none" stroke="rgb(179,179,179)" stroke-linejoin="round" d="M 15679,14573 L 15679,14423"/>
 <path fill="none" stroke="rgb(179,179,179)" stroke-linejoin="round" d="M 15679,14573 L 15679,14423"/>
 <path fill="none" stroke="rgb(179,179,179)" stroke-linejoin="round" d="M 15783,14573 L 15783,14423"/>
 <path fill="none" stroke="rgb(179,179,179)" stroke-linejoin="round" d="M 15783,14573 L 15783,14423"/>
 <path fill="none" stroke="rgb(179,179,179)" stroke-linejoin="round" d="M 15887,14573 L 15887,14423"/>
 <path fill="none" stroke="rgb(179,179,179)" stroke-linejoin="round" d="M 15887,14573 L 15887,14423"/>
 <path fill="none" stroke="rgb(179,179,179)" stroke-linejoin="round" d="M 15991,14573 L 15991,14423"/>
 <path fill="none" stroke="rgb(179,179,179)" stroke-linejoin="round" d="M 15991,14573 L 15991,14423"/>
 <path fill="none" stroke="rgb(179,179,179)" stroke-linejoin="round" d="M 16096,14573 L 16096,14423"/>
 <path fill="none" stroke="rgb(179,179,179)" stroke-linejoin="round" d="M 16096,14573 L 16096,14423"/>
 <path fill="none" stroke="rgb(179,179,179)" stroke-linejoin="round" d="M 16200,14573 L 16200,14423"/>
 <path fill="none" stroke="rgb(179,179,179)" stroke-linejoin="round" d="M 16200,14573 L 16200,14423"/>
 <path fill="none" stroke="rgb(179,179,179)" stroke-linejoin="round" d="M 16304,14573 L 16304,14423"/>
 <path fill="none" stroke="rgb(179,179,179)" stroke-linejoin="round" d="M 16304,14573 L 16304,14423"/>
 <path fill="none" stroke="rgb(179,179,179)" stroke-linejoin="round" d="M 16408,14573 L 16408,14423"/>
 <path fill="none" stroke="rgb(179,179,179)" stroke-linejoin="round" d="M 16408,14573 L 16408,14423"/>
 <path fill="none" stroke="rgb(179,179,179)" stroke-linejoin="round" d="M 16513,14573 L 16513,14423"/>
 <path fill="none" stroke="rgb(179,179,179)" stroke-linejoin="round" d="M 16513,14573 L 16513,14423"/>
 <path fill="none" stroke="rgb(179,179,179)" stroke-linejoin="round" d="M 16617,14573 L 16617,14423"/>
 <path fill="none" stroke="rgb(179,179,179)" stroke-linejoin="round" d="M 16617,14573 L 16617,14423"/>
 <path fill="none" stroke="rgb(179,179,179)" stroke-linejoin="round" d="M 16721,14573 L 16721,14423"/>
 <path fill="none" stroke="rgb(179,179,179)" stroke-linejoin="round" d="M 16721,14573 L 16721,14423"/>
 <path fill="none" stroke="rgb(179,179,179)" stroke-linejoin="round" d="M 16825,14573 L 16825,14423"/>
 <path fill="none" stroke="rgb(179,179,179)" stroke-linejoin="round" d="M 16825,14573 L 16825,14423"/>
 <path fill="none" stroke="rgb(179,179,179)" stroke-linejoin="round" d="M 16929,14573 L 16929,14423"/>
 <path fill="none" stroke="rgb(179,179,179)" stroke-linejoin="round" d="M 16929,14573 L 16929,14423"/>
 <path fill="none" stroke="rgb(179,179,179)" stroke-linejoin="round" d="M 17034,14573 L 17034,14423"/>
 <path fill="none" stroke="rgb(179,179,179)" stroke-linejoin="round" d="M 17034,14573 L 17034,14423"/>
 <path fill="none" stroke="rgb(179,179,179)" stroke-linejoin="round" d="M 17138,14573 L 17138,14423"/>
 <path fill="none" stroke="rgb(179,179,179)" stroke-linejoin="round" d="M 17138,14573 L 17138,14423"/>
 <path fill="none" stroke="rgb(179,179,179)" stroke-linejoin="round" d="M 17242,14573 L 17242,14423"/>
 <path fill="none" stroke="rgb(179,179,179)" stroke-linejoin="round" d="M 17242,14573 L 17242,14423"/>
 <path fill="none" stroke="rgb(179,179,179)" stroke-linejoin="round" d="M 17346,14573 L 17346,14423"/>
 <path fill="none" stroke="rgb(179,179,179)" stroke-linejoin="round" d="M 17346,14573 L 17346,14423"/>
 <path fill="none" stroke="rgb(179,179,179)" stroke-linejoin="round" d="M 17450,14573 L 17450,14423"/>
 <path fill="none" stroke="rgb(179,179,179)" stroke-linejoin="round" d="M 17450,14573 L 17450,14423"/>
 <path fill="none" stroke="rgb(179,179,179)" stroke-linejoin="round" d="M 17555,14573 L 17555,14423"/>
 <path fill="none" stroke="rgb(179,179,179)" stroke-linejoin="round" d="M 17555,14573 L 17555,14423"/>
 <path fill="none" stroke="rgb(179,179,179)" stroke-linejoin="round" d="M 17659,14573 L 17659,14423"/>
 <path fill="none" stroke="rgb(179,179,179)" stroke-linejoin="round" d="M 17659,14573 L 17659,14423"/>
 <path fill="none" stroke="rgb(179,179,179)" stroke-linejoin="round" d="M 17763,14573 L 17763,14423"/>
 <path fill="none" stroke="rgb(179,179,179)" stroke-linejoin="round" d="M 17763,14573 L 17763,14423"/>
 <path fill="none" stroke="rgb(179,179,179)" stroke-linejoin="round" d="M 17867,14573 L 17867,14423"/>
 <path fill="none" stroke="rgb(179,179,179)" stroke-linejoin="round" d="M 17867,14573 L 17867,14423"/>
 <path fill="none" stroke="rgb(179,179,179)" stroke-linejoin="round" d="M 17972,14573 L 17972,14423"/>
 <path fill="none" stroke="rgb(179,179,179)" stroke-linejoin="round" d="M 17972,14573 L 17972,14423"/>
 <path fill="none" stroke="rgb(179,179,179)" stroke-linejoin="round" d="M 18076,14573 L 18076,14423"/>
 <path fill="none" stroke="rgb(179,179,179)" stroke-linejoin="round" d="M 18076,14573 L 18076,14423"/>
 <path fill="none" stroke="rgb(179,179,179)" stroke-linejoin="round" d="M 18180,14573 L 18180,14423"/>
 <path fill="none" stroke="rgb(179,179,179)" stroke-linejoin="round" d="M 18180,14573 L 18180,14423"/>
 <path fill="none" stroke="rgb(179,179,179)" stroke-linejoin="round" d="M 18284,14573 L 18284,14423"/>
 <path fill="none" stroke="rgb(179,179,179)" stroke-linejoin="round" d="M 18284,14573 L 18284,14423"/>
 <path fill="none" stroke="rgb(179,179,179)" stroke-linejoin="round" d="M 18388,14573 L 18388,14423"/>
 <path fill="none" stroke="rgb(179,179,179)" stroke-linejoin="round" d="M 18388,14573 L 18388,14423"/>
 <path fill="none" stroke="rgb(179,179,179)" stroke-linejoin="round" d="M 18493,14573 L 18493,14423"/>
 <path fill="none" stroke="rgb(179,179,179)" stroke-linejoin="round" d="M 18493,14573 L 18493,14423"/>
 <path fill="none" stroke="rgb(179,179,179)" stroke-linejoin="round" d="M 18597,14573 L 18597,14423"/>
 <path fill="none" stroke="rgb(179,179,179)" stroke-linejoin="round" d="M 18597,14573 L 18597,14423"/>
 <path fill="none" stroke="rgb(179,179,179)" stroke-linejoin="round" d="M 18701,14573 L 18701,14423"/>
 <path fill="none" stroke="rgb(179,179,179)" stroke-linejoin="round" d="M 18701,14573 L 18701,14423"/>
 <path fill="none" stroke="rgb(179,179,179)" stroke-linejoin="round" d="M 18805,14573 L 18805,14423"/>
 <path fill="none" stroke="rgb(179,179,179)" stroke-linejoin="round" d="M 18805,14573 L 18805,14423"/>
 <path fill="none" stroke="rgb(179,179,179)" stroke-linejoin="round" d="M 18910,14573 L 18910,14423"/>
 <path fill="none" stroke="rgb(179,179,179)" stroke-linejoin="round" d="M 18910,14573 L 18910,14423"/>
 <path fill="none" stroke="rgb(179,179,179)" stroke-linejoin="round" d="M 19014,14573 L 19014,14423"/>
 <path fill="none" stroke="rgb(179,179,179)" stroke-linejoin="round" d="M 19014,14573 L 19014,14423"/>
 <path fill="none" stroke="rgb(179,179,179)" stroke-linejoin="round" d="M 19118,14573 L 19118,14423"/>
 <path fill="none" stroke="rgb(179,179,179)" stroke-linejoin="round" d="M 19118,14573 L 19118,14423"/>
 <path fill="none" stroke="rgb(179,179,179)" stroke-linejoin="round" d="M 19222,14573 L 19222,14423"/>
 <path fill="none" stroke="rgb(179,179,179)" stroke-linejoin="round" d="M 19222,14573 L 19222,14423"/>
 <path fill="none" stroke="rgb(179,179,179)" stroke-linejoin="round" d="M 19326,14573 L 19326,14423"/>
 <path fill="none" stroke="rgb(179,179,179)" stroke-linejoin="round" d="M 19326,14573 L 19326,14423"/>
 <path fill="none" stroke="rgb(179,179,179)" stroke-linejoin="round" d="M 19431,14573 L 19431,14423"/>
 <path fill="none" stroke="rgb(179,179,179)" stroke-linejoin="round" d="M 19431,14573 L 19431,14423"/>
 <path fill="none" stroke="rgb(179,179,179)" stroke-linejoin="round" d="M 19535,14573 L 19535,14423"/>
 <path fill="none" stroke="rgb(179,179,179)" stroke-linejoin="round" d="M 19535,14573 L 19535,14423"/>
 <path fill="none" stroke="rgb(179,179,179)" stroke-linejoin="round" d="M 19639,14573 L 19639,14423"/>
 <path fill="none" stroke="rgb(179,179,179)" stroke-linejoin="round" d="M 19639,14573 L 19639,14423"/>
 <path fill="none" stroke="rgb(179,179,179)" stroke-linejoin="round" d="M 19743,14573 L 19743,14423"/>
 <path fill="none" stroke="rgb(179,179,179)" stroke-linejoin="round" d="M 19743,14573 L 19743,14423"/>
 <path fill="none" stroke="rgb(179,179,179)" stroke-linejoin="round" d="M 19848,14573 L 19848,14423"/>
 <path fill="none" stroke="rgb(179,179,179)" stroke-linejoin="round" d="M 19848,14573 L 19848,14423"/>
 <path fill="none" stroke="rgb(179,179,179)" stroke-linejoin="round" d="M 1715,14423 L 19848,14423"/>
 <path fill="none" stroke="rgb(179,179,179)" stroke-linejoin="round" d="M 1565,14423 L 1715,14423"/>
 <path fill="none" stroke="rgb(179,179,179)" stroke-linejoin="round" d="M 1565,14423 L 1715,14423"/>
 <path fill="none" stroke="rgb(179,179,179)" stroke-linejoin="round" d="M 1565,13909 L 1715,13909"/>
 <path fill="none" stroke="rgb(179,179,179)" stroke-linejoin="round" d="M 1565,13909 L 1715,13909"/>
 <path fill="none" stroke="rgb(179,179,179)" stroke-linejoin="round" d="M 1565,13396 L 1715,13396"/>
 <path fill="none" stroke="rgb(179,179,179)" stroke-linejoin="round" d="M 1565,13396 L 1715,13396"/>
 <path fill="none" stroke="rgb(179,179,179)" stroke-linejoin="round" d="M 1565,12883 L 1715,12883"/>
 <path fill="none" stroke="rgb(179,179,179)" stroke-linejoin="round" d="M 1565,12883 L 1715,12883"/>
 <path fill="none" stroke="rgb(179,179,179)" stroke-linejoin="round" d="M 1565,12370 L 1715,12370"/>
 <path fill="none" stroke="rgb(179,179,179)" stroke-linejoin="round" d="M 1565,12370 L 1715,12370"/>
 <path fill="none" stroke="rgb(179,179,179)" stroke-linejoin="round" d="M 1565,11856 L 1715,11856"/>
 <path fill="none" stroke="rgb(179,179,179)" stroke-linejoin="round" d="M 1565,11856 L 1715,11856"/>
 <path fill="none" stroke="rgb(179,179,179)" stroke-linejoin="round" d="M 1565,11343 L 1715,11343"/>
 <path fill="none" stroke="rgb(179,179,179)" stroke-linejoin="round" d="M 1565,11343 L 1715,11343"/>
 <path fill="none" stroke="rgb(179,179,179)" stroke-linejoin="round" d="M 1565,10830 L 1715,10830"/>
 <path fill="none" stroke="rgb(179,179,179)" stroke-linejoin="round" d="M 1565,10830 L 1715,10830"/>
 <path fill="none" stroke="rgb(179,179,179)" stroke-linejoin="round" d="M 1565,10317 L 1715,10317"/>
 <path fill="none" stroke="rgb(179,179,179)" stroke-linejoin="round" d="M 1565,10317 L 1715,10317"/>
 <path fill="none" stroke="rgb(179,179,179)" stroke-linejoin="round" d="M 1565,9803 L 1715,9803"/>
 <path fill="none" stroke="rgb(179,179,179)" stroke-linejoin="round" d="M 1565,9803 L 1715,9803"/>
 <path fill="none" stroke="rgb(179,179,179)" stroke-linejoin="round" d="M 1565,9290 L 1715,9290"/>
 <path fill="none" stroke="rgb(179,179,179)" stroke-linejoin="round" d="M 1565,9290 L 1715,9290"/>
 <path fill="none" stroke="rgb(179,179,179)" stroke-linejoin="round" d="M 1565,8777 L 1715,8777"/>
 <path fill="none" stroke="rgb(179,179,179)" stroke-linejoin="round" d="M 1565,8777 L 1715,8777"/>
 <path fill="none" stroke="rgb(179,179,179)" stroke-linejoin="round" d="M 1565,8264 L 1715,8264"/>
 <path fill="none" stroke="rgb(179,179,179)" stroke-linejoin="round" d="M 1565,8264 L 1715,8264"/>
 <path fill="none" stroke="rgb(179,179,179)" stroke-linejoin="round" d="M 1565,7751 L 1715,7751"/>
 <path fill="none" stroke="rgb(179,179,179)" stroke-linejoin="round" d="M 1565,7751 L 1715,7751"/>
 <path fill="none" stroke="rgb(179,179,179)" stroke-linejoin="round" d="M 1565,7238 L 1715,7238"/>
 <path fill="none" stroke="rgb(179,179,179)" stroke-linejoin="round" d="M 1565,7238 L 1715,7238"/>
 <path fill="none" stroke="rgb(179,179,179)" stroke-linejoin="round" d="M 1565,6725 L 1715,6725"/>
 <path fill="none" stroke="rgb(179,179,179)" stroke-linejoin="round" d="M 1565,6725 L 1715,6725"/>
 <path fill="none" stroke="rgb(179,179,179)" stroke-linejoin="round" d="M 1565,6212 L 1715,6212"/>
 <path fill="none" stroke="rgb(179,179,179)" stroke-linejoin="round" d="M 1565,6212 L 1715,6212"/>
 <path fill="none" stroke="rgb(179,179,179)" stroke-linejoin="round" d="M 1565,5698 L 1715,5698"/>
 <path fill="none" stroke="rgb(179,179,179)" stroke-linejoin="round" d="M 1565,5698 L 1715,5698"/>
 <path fill="none" stroke="rgb(179,179,179)" stroke-linejoin="round" d="M 1565,5185 L 1715,5185"/>
 <path fill="none" stroke="rgb(179,179,179)" stroke-linejoin="round" d="M 1565,5185 L 1715,5185"/>
 <path fill="none" stroke="rgb(179,179,179)" stroke-linejoin="round" d="M 1565,4672 L 1715,4672"/>
 <path fill="none" stroke="rgb(179,179,179)" stroke-linejoin="round" d="M 1565,4672 L 1715,4672"/>
 <path fill="none" stroke="rgb(179,179,179)" stroke-linejoin="round" d="M 1565,4159 L 1715,4159"/>
 <path fill="none" stroke="rgb(179,179,179)" stroke-linejoin="round" d="M 1565,4159 L 1715,4159"/>
 <path fill="none" stroke="rgb(179,179,179)" stroke-linejoin="round" d="M 1565,3645 L 1715,3645"/>
 <path fill="none" stroke="rgb(179,179,179)" stroke-linejoin="round" d="M 1565,3645 L 1715,3645"/>
 <path fill="none" stroke="rgb(179,179,179)" stroke-linejoin="round" d="M 1565,3132 L 1715,3132"/>
 <path fill="none" stroke="rgb(179,179,179)" stroke-linejoin="round" d="M 1565,3132 L 1715,3132"/>
 <path fill="none" stroke="rgb(179,179,179)" stroke-linejoin="round" d="M 1565,2619 L 1715,2619"/>
 <path fill="none" stroke="rgb(179,179,179)" stroke-linejoin="round" d="M 1565,2619 L 1715,2619"/>
 <path fill="none" stroke="rgb(179,179,179)" stroke-linejoin="round" d="M 1565,2106 L 1715,2106"/>
 <path fill="none" stroke="rgb(179,179,179)" stroke-linejoin="round" d="M 1565,2106 L 1715,2106"/>
 <path fill="none" stroke="rgb(179,179,179)" stroke-linejoin="round" d="M 1565,1593 L 1715,1593"/>
 <path fill="none" stroke="rgb(179,179,179)" stroke-linejoin="round" d="M 1565,1593 L 1715,1593"/>
 <path fill="none" stroke="rgb(179,179,179)" stroke-linejoin="round" d="M 1715,14423 L 1715,1593"/>
 <path fill="none" stroke="rgb(0,69,134)" stroke-width="80" stroke-linejoin="round" d="M 1767,9456 L 1871,8201 1975,1981 1986,1593"/>
 <path fill="none" stroke="rgb(0,69,134)" stroke-width="80" stroke-linejoin="round" d="M 6489,1593 L 6561,2221 6665,2996 6769,3648 6873,4348 6978,4732 7082,5089 7186,5488 7290,5632 7394,5839 7499,6054 7603,6301 7707,6449 7811,6553 7915,6646 8020,6775 8124,6894 8228,7023 8332,7121 8437,7474 8541,7524 8645,7558 8749,7618 8853,7803 8958,7908 9062,7906 9166,8028 9270,8056 9375,8100 9479,8091 9583,8146 9687,8091 9791,8137 9896,8174 10000,8203 10104,8217 10208,8209 10313,8206 10417,8214 10521,8238 10625,8230 10729,8236 10834,8265 10938,8292 11042,8315 11146,8312 11250,8327 11355,8342 11459,8457 11563,8457 11667,8461 11772,8477 11875,8488 11979,8495 12083,8505 12187,8516 12292,8529 12396,8540 12500,8550 12604,8566 12709,8577 12813,8587 12917,8590 13021,8593 13125,8599 13230,8634 13334,8650 13438,8668 13542,8677 13647,8683 13751,8680 13855,8692 13959,8703 14063,8666 14168,8682 14272,8697 14376,8707 14480,8716 14584,8727 14689,8742 14793,8756 14897,8774 15001,8787 15106,8795 15210,8805 15314,8820 15418,8839 15522,8857 15627,8870 15731,8881 15835,8889 15939,8906 16044,8921 16148,8935 16252,8957 16356,8967 16460,8973 16565,8998 16669,9010 16773,9023 16877,9038 16981,9053 17086,9062 17190,9069 17294,9091 17398,9101 17503,9111 17607,9128 17711,9144 17815,9154 17919,9161 18024,9185 18128,9194 18232,9210 18336,9228 18441,9248 18545,9258 18649,9266 18753,9302 18857,9317 18962,9337 19066,9363 19170,9387 19274,9400 19379,9411 19483,9451 19587,9471 19691,9491 19795,9521"/>
 <path fill="none" stroke="rgb(255,66,14)" stroke-width="80" stroke-linejoin="round" d="M 1767,9757 L 1871,8201 1975,2692 2001,1593"/>
 <path fill="none" stroke="rgb(255,66,14)" stroke-width="80" stroke-linejoin="round" d="M 6233,1593 L 6248,1748 6352,2324 6456,2871 6561,3722 6665,4226 6769,4739 6873,5095 6978,5427 7082,5801 7186,6111 7290,6181 7394,6373 7499,6499 7603,6630 7707,6750 7811,6860 7915,6980 8020,7084 8124,7193 8228,7262 8332,7563 8437,7636 8541,7673 8645,7747 8749,7895 8853,7970 8958,8002 9062,8074 9166,8120 9270,8165 9375,8190 9479,8211 9583,8161 9687,8178 9791,8205 9896,8247 10000,8271 10104,8261 10208,8263 10313,8256 10417,8263 10521,8275 10625,8263 10729,8278 10834,8326 10938,8341 11042,8365 11146,8347 11250,8356 11355,8381 11459,8491 11563,8482 11667,8494 11772,8507 11875,8511 11979,8513 12083,8524 12187,8544 12292,8556 12396,8563 12500,8582 12604,8586 12709,8593 12813,8599 12917,8608 13021,8610 13125,8642 13230,8658 13334,8676 13438,8681 13542,8688 13647,8692 13751,8704 13855,8712 13959,8725 14063,8688 14168,8700 14272,8711 14376,8725 14480,8732 14584,8748 14689,8765 14793,8776 14897,8790 15001,8800 15106,8812 15210,8825 15314,8846 15418,8862 15522,8873 15627,8883 15731,8892 15835,8911 15939,8926 16044,8941 16148,8961 16252,8970 16356,8974 16460,9002 16565,9014 16669,9031 16773,9043 16877,9057 16981,9063 17086,9070 17190,9095 17294,9104 17398,9115 17503,9132 17607,9148 17711,9156 17815,9163 17919,9187 18024,9198 18128,9214 18232,9233 18336,9253 18441,9261 18545,9268 18649,9305 18753,9322 18857,9342 18962,9367 19066,9392 19170,9404 19274,9413 19379,9456 19483,9474 19587,9497 19691,9527 19795,9561"/>
 <path fill="none" stroke="rgb(255,211,32)" stroke-width="80" stroke-linejoin="round" d="M 1767,9757 L 1871,8557 1975,2692 2001,1593"/>
 <path fill="none" stroke="rgb(255,211,32)" stroke-width="80" stroke-linejoin="round" d="M 6007,1593 L 6040,1688 6144,2430 6248,3082 6352,3767 6456,4292 6561,4874 6665,5258 6769,5458 6873,5764 6978,6114 7082,6403 7186,6631 7290,6693 7394,6801 7499,6819 7603,6923 7707,7049 7811,7184 7915,7281 8020,7376 8124,7426 8228,7695 8332,7723 8437,7782 8541,7858 8645,8018 8749,8060 8853,8063 8958,8167 9062,8167 9166,8229 9270,8254 9375,8308 9479,8226 9583,8248 9687,8246 9791,8278 9896,8315 10000,8315 10104,8314 10208,8312 10313,8304 10417,8299 10521,8308 10625,8306 10729,8339 10834,8374 10938,8390 11042,8399 11146,8376 11250,8395 11355,8415 11459,8516 11563,8515 11667,8524 11772,8529 11875,8529 11979,8532 12083,8552 12187,8571 12292,8579 12396,8594 12500,8601 12604,8602 12709,8605 12813,8618 12917,8624 13021,8653 13125,8666 13230,8684 13334,8690 13438,8693 13542,8697 13647,8715 13751,8724 13855,8735 13959,8747 14063,8706 14168,8714 14272,8729 14376,8741 14480,8753 14584,8771 14689,8784 14793,8792 14897,8803 15001,8818 15106,8833 15210,8852 15314,8869 15418,8878 15522,8886 15627,8894 15731,8915 15835,8931 15939,8945 16044,8967 16148,8974 16252,8977 16356,9003 16460,9017 16565,9035 16669,9050 16773,9061 16877,9068 16981,9072 17086,9096 17190,9108 17294,9118 17398,9136 17503,9152 17607,9160 17711,9165 17815,9190 17919,9200 18024,9218 18128,9237 18232,9257 18336,9265 18441,9271 18545,9308 18649,9326 18753,9348 18857,9372 18962,9396 19066,9408 19170,9417 19274,9459 19379,9479 19483,9500 19587,9533 19691,9566 19795,9577"/>
 <path fill="none" stroke="rgb(87,157,28)" stroke-width="80" stroke-linejoin="round" d="M 1767,10023 L 1871,8557 1975,2692 2001,1593"/>
 <path fill="none" stroke="rgb(87,157,28)" stroke-width="80" stroke-linejoin="round" d="M 5646,1593 L 5727,2170 5831,2685 5935,2830 6040,3341 6144,3693 6248,4434 6352,5077 6456,5382 6561,5841 6665,5938 6769,6101 6873,6425 6978,6694 7082,6904 7186,7115 7290,7105 7394,7110 7499,7105 7603,7216 7707,7365 7811,7477 7915,7565 8020,7603 8124,7849 8228,7852 8332,7867 8437,7965 8541,8124 8645,8179 8749,8151 8853,8227 8958,8259 9062,8275 9166,8317 9270,8371 9375,8323 9479,8312 9583,8315 9687,8318 9791,8346 9896,8359 10000,8368 10104,8363 10208,8360 10313,8340 10417,8332 10521,8350 10625,8366 10729,8387 10834,8423 10938,8425 11042,8428 11146,8415 11250,8429 11355,8441 11459,8549 11563,8545 11667,8546 11772,8547 11875,8548 11979,8560 12083,8579 12187,8594 12292,8610 12396,8613 12500,8618 12604,8614 12709,8623 12813,8634 12917,8667 13021,8677 13125,8692 13230,8698 13334,8701 13438,8702 13542,8721 13647,8735 13751,8746 13855,8756 13959,8764 14063,8720 14168,8731 14272,8745 14376,8761 14480,8776 14584,8790 14689,8800 14793,8805 14897,8820 15001,8838 15106,8859 15210,8875 15314,8885 15418,8891 15522,8898 15627,8917 15731,8935 15835,8951 15939,8972 16044,8980 16148,8981 16252,9006 16356,9019 16460,9038 16565,9054 16669,9069 16773,9072 16877,9076 16981,9098 17086,9109 17190,9122 17294,9139 17398,9156 17503,9164 17607,9169 17711,9191 17815,9202 17919,9220 18024,9241 18128,9261 18232,9269 18336,9275 18441,9310 18545,9328 18649,9351 18753,9377 18857,9401 18962,9413 19066,9421 19170,9462 19274,9482 19379,9505 19483,9536 19587,9572 19691,9583 19795,9589"/>
 <path fill="none" stroke="rgb(126,0,33)" stroke-width="80" stroke-linejoin="round" d="M 1767,10023 L 1871,8557 1975,2692 2004,1593"/>
 <path fill="none" stroke="rgb(126,0,33)" stroke-width="80" stroke-linejoin="round" d="M 5374,1593 L 5414,1782 5518,2753 5623,3372 5727,3863 5831,3987 5935,4335 6040,4507 6144,4972 6248,5663 6352,6083 6456,6298 6561,6477 6665,6547 6769,6736 6873,6983 6978,7177 7082,7372 7186,7504 7290,7401 7394,7385 7499,7391 7603,7525 7707,7651 7811,7753 7915,7786 8020,8015 8124,8003 8228,7994 8332,8047 8437,8226 8541,8283 8645,8269 8749,8313 8853,8318 8958,8366 9062,8362 9166,8433 9270,8386 9375,8407 9479,8378 9583,8386 9687,8386 9791,8389 9896,8411 10000,8416 10104,8411 10208,8396 10313,8373 10417,8374 10521,8410 10625,8414 10729,8436 10834,8458 10938,8453 11042,8467 11146,8449 11250,8454 11355,8474 11459,8578 11563,8567 11667,8564 11772,8567 11875,8576 11979,8587 12083,8602 12187,8625 12292,8629 12396,8630 12500,8629 12604,8632 12709,8640 12813,8677 12917,8691 13021,8703 13125,8705 13230,8709 13334,8710 13438,8725 13542,8741 13647,8757 13751,8768 13855,8774 13959,8779 14063,8737 14168,8747 14272,8765 14376,8784 14480,8795 14584,8806 14689,8813 14793,8822 14897,8841 15001,8864 15106,8882 15210,8891 15314,8898 15418,8903 15522,8920 15627,8937 15731,8954 15835,8977 15939,8984 16044,8987 16148,9010 16252,9021 16356,9040 16460,9058 16565,9072 16669,9079 16773,9081 16877,9102 16981,9111 17086,9123 17190,9143 17294,9159 17398,9168 17503,9173 17607,9195 17711,9204 17815,9222 17919,9243 18024,9265 18128,9274 18232,9279 18336,9315 18441,9330 18545,9353 18649,9380 18753,9406 18857,9417 18962,9426 19066,9467 19170,9485 19274,9508 19379,9541 19483,9575 19587,9589 19691,9595 19795,9633"/>
 <path fill="none" stroke="rgb(131,202,255)" stroke-width="80" stroke-linejoin="round" d="M 1767,10023 L 1871,8557 1975,3018 2010,1593"/>
 <path fill="none" stroke="rgb(131,202,255)" stroke-width="80" stroke-linejoin="round" d="M 4767,1593 L 4789,2117 4893,2543 4997,2582 5102,2878 5206,3008 5310,3274 5414,3929 5518,4503 5623,4899 5727,5035 5831,5342 5935,5397 6040,5690 6144,6134 6248,6606 6352,6928 6456,6901 6561,7047 6665,7148 6769,7272 6873,7448 6978,7627 7082,7747 7186,7784 7290,7665 7394,7659 7499,7693 7603,7804 7707,7920 7811,7968 7915,8186 8020,8164 8124,8140 8228,8169 8332,8305 8437,8383 8541,8372 8645,8429 8749,8403 8853,8423 8958,8452 9062,8478 9166,8448 9270,8469 9375,8472 9479,8449 9583,8453 9687,8429 9791,8442 9896,8459 10000,8464 10104,8446 10208,8428 10313,8415 10417,8434 10521,8457 10625,8463 10729,8471 10834,8486 10938,8492 11042,8500 11146,8474 11250,8487 11355,8503 11459,8600 11563,8585 11667,8583 11772,8594 11875,8603 11979,8610 12083,8633 12187,8644 12292,8645 12396,8641 12500,8647 12604,8649 12709,8683 12813,8701 12917,8717 13021,8716 13125,8717 13230,8718 13334,8734 13438,8746 13542,8763 13647,8779 13751,8785 13855,8788 13959,8796 14063,8753 14168,8768 14272,8788 14376,8804 14480,8811 14584,8819 14689,8831 14793,8843 14897,8867 15001,8887 15106,8898 15210,8904 15314,8910 15418,8926 15522,8940 15627,8956 15731,8981 15835,8990 15939,8991 16044,9016 16148,9026 16252,9042 16356,9059 16460,9076 16565,9083 16669,9088 16773,9107 16877,9115 16981,9125 17086,9144 17190,9163 17294,9171 17398,9177 17503,9200 17607,9208 17711,9224 17815,9245 17919,9267 18024,9278 18128,9284 18232,9319 18336,9335 18441,9356 18545,9383 18649,9410 18753,9423 18857,9430 18962,9471 19066,9490 19170,9511 19274,9543 19379,9580 19483,9591 19587,9601 19691,9639 19795,9679"/>
 <path fill="none" stroke="rgb(49,64,4)" stroke-width="80" stroke-linejoin="round" d="M 1767,10023 L 1871,8720 1975,3018 2010,1593"/>
 <path fill="none" stroke="rgb(49,64,4)" stroke-width="80" stroke-linejoin="round" d="M 3198,1593 L 3226,2006 3244,1593"/>
 <path fill="none" stroke="rgb(49,64,4)" stroke-width="80" stroke-linejoin="round" d="M 3420,1593 L 3434,1908 3458,1593"/>
 <path fill="none" stroke="rgb(49,64,4)" stroke-width="80" stroke-linejoin="round" d="M 4071,1593 L 4164,2056 4268,2310 4372,2638 4476,3285 4581,2395 4685,3943 4789,4286 4893,4297 4997,4590 5102,4523 5206,4727 5310,5168 5414,5503 5518,5874 5623,5956 5727,6254 5831,6298 5935,6473 6040,6764 6144,7026 6248,7397 6352,7484 6456,7440 6561,7610 6665,7656 6769,7719 6873,7882 6978,7989 7082,8017 7186,8034 7290,7929 7394,7950 7499,7965 7603,8066 7707,8129 7811,8358 7915,8332 8020,8299 8124,8313 8228,8423 8332,8460 8437,8470 8541,8529 8645,8516 8749,8507 8853,8509 8958,8565 9062,8492 9166,8530 9270,8534 9375,8542 9479,8514 9583,8495 9687,8481 9791,8489 9896,8506 10000,8499 10104,8478 10208,8469 10313,8474 10417,8481 10521,8506 10625,8497 10729,8499 10834,8524 10938,8525 11042,8525 11146,8507 11250,8517 11355,8526 11459,8618 11563,8604 11667,8611 11772,8621 11875,8626 11979,8641 12083,8652 12187,8660 12292,8657 12396,8659 12500,8664 12604,8692 12709,8706 12813,8726 12917,8730 13021,8728 13125,8726 13230,8742 13334,8754 13438,8768 13542,8785 13647,8796 13751,8799 13855,8805 13959,8811 14063,8774 14168,8791 14272,8808 14376,8819 14480,8824 14584,8837 14689,8851 14793,8869 14897,8890 15001,8903 15106,8911 15210,8915 15314,8932 15418,8945 15522,8960 15627,8982 15731,8993 15835,8997 15939,9020 16044,9031 16148,9046 16252,9061 16356,9077 16460,9087 16565,9092 16669,9114 16773,9119 16877,9129 16981,9146 17086,9164 17190,9175 17294,9180 17398,9204 17503,9212 17607,9228 17711,9247 17815,9269 17919,9279 18024,9288 18128,9323 18232,9339 18336,9360 18441,9385 18545,9412 18649,9426 18753,9436 18857,9475 18962,9494 19066,9516 19170,9546 19274,9583 19379,9597 19483,9604 19587,9645 19691,9684 19795,9709"/>
 <path fill="none" stroke="rgb(174,207,0)" stroke-width="80" stroke-linejoin="round" d="M 1767,10146 L 1871,8720 1975,3018 2010,1593"/>
 <path fill="none" stroke="rgb(174,207,0)" stroke-width="80" stroke-linejoin="round" d="M 2555,1593 L 2600,4596 2705,3649 2809,2612 2913,3334 3017,4053 3121,4100 3226,5095 3330,4582 3434,4265 3538,3084 3643,2469 3747,3532 3851,3289 3955,4268 4059,4228 4164,4413 4268,4441 4372,5152 4476,4736 4581,5914 4685,5790 4789,5782 4893,6014 4997,5991 5102,6014 5206,6374 5310,6556 5414,6736 5518,6823 5623,7055 5727,7114 5831,7267 5935,7451 6040,7588 6144,7775 6248,7918 6352,7981 6456,7973 6561,8085 6665,8078 6769,8135 6873,8229 6978,8248 7082,8257 7186,8282 7290,8206 7394,8210 7499,8221 7603,8271 7707,8509 7811,8499 7915,8463 8020,8467 8124,8561 8228,8575 8332,8546 8437,8624 8541,8615 8645,8618 8749,8591 8853,8621 8958,8579 9062,8574 9166,8594 9270,8602 9375,8607 9479,8557 9583,8547 9687,8528 9791,8536 9896,8541 10000,8530 10104,8519 10208,8528 10313,8521 10417,8529 10521,8540 10625,8525 10729,8537 10834,8557 10938,8550 11042,8558 11146,8537 11250,8539 11355,8544 11459,8637 11563,8632 11667,8638 11772,8644 11875,8657 11979,8660 12083,8668 12187,8672 12292,8675 12396,8676 12500,8707 12604,8715 12709,8732 12813,8740 12917,8742 13021,8737 13125,8749 13230,8762 13334,8776 13438,8789 13542,8802 13647,8810 13751,8816 13855,8821 13959,8832 14063,8797 14168,8810 14272,8823 14376,8833 14480,8841 14584,8857 14689,8877 14793,8892 14897,8906 15001,8916 15106,8923 15210,8938 15314,8952 15418,8965 15522,8986 15627,8995 15731,9000 15835,9026 15939,9036 16044,9052 16148,9066 16252,9080 16356,9088 16460,9096 16565,9118 16669,9127 16773,9134 16877,9150 16981,9166 17086,9176 17190,9184 17294,9207 17398,9216 17503,9232 17607,9251 17711,9271 17815,9282 17919,9289 18024,9327 18128,9343 18232,9364 18336,9389 18441,9414 18545,9428 18649,9439 18753,9481 18857,9499 18962,9520 19066,9551 19170,9586 19274,9599 19379,9609 19483,9648 19587,9690 19691,9714 19795,9751"/>
 <path fill="none" stroke="rgb(75,31,111)" stroke-width="80" stroke-linejoin="round" d="M 1767,10146 L 1871,8720 1975,3018 2010,1593"/>
 <path fill="none" stroke="rgb(75,31,111)" stroke-width="80" stroke-linejoin="round" d="M 2385,1593 L 2392,1998 2496,5961 2600,7371 2705,6690 2809,6180 2913,6959 3017,6778 3121,6668 3226,8226 3330,6435 3434,6140 3538,5496 3643,5373 3747,6019 3851,5779 3955,6390 4059,6171 4164,6175 4268,6570 4372,6360 4476,7570 4581,7414 4685,7064 4789,7247 4893,7212 4997,7261 5102,7442 5206,7582 5310,7643 5414,7589 5518,7809 5623,7831 5727,7985 5831,8146 5935,8200 6040,8279 6144,8268 6248,8384 6352,8472 6456,8422 6561,8481 6665,8472 6769,8470 6873,8479 6978,8480 7082,8498 7186,8545 7290,8458 7394,8458 7499,8421 7603,8643 7707,8647 7811,8627 7915,8627 8020,8709 8124,8709 8228,8659 8332,8698 8437,8709 8541,8715 8645,8701 8749,8702 8853,8635 8958,8660 9062,8637 9166,8662 9270,8667 9375,8648 9479,8608 9583,8593 9687,8574 9791,8570 9896,8572 10000,8571 10104,8577 10208,8575 10313,8569 10417,8563 10521,8568 10625,8563 10729,8570 10834,8582 10938,8583 11042,8587 11146,8559 11250,8557 11355,8563 11459,8664 11563,8658 11667,8660 11772,8674 11875,8676 11979,8676 12083,8680 12187,8690 12292,8692 12396,8718 12500,8730 12604,8741 12709,8745 12813,8751 12917,8751 13021,8760 13125,8769 13230,8784 13334,8797 13438,8806 13542,8816 13647,8827 13751,8832 13855,8841 13959,8855 14063,8816 14168,8826 14272,8837 14376,8850 14480,8862 14584,8883 14689,8900 14793,8908 14897,8919 15001,8928 15106,8945 15210,8957 15314,8971 15418,8991 15522,8998 15627,9002 15731,9029 15835,9041 15939,9057 16044,9072 16148,9084 16252,9090 16356,9097 16460,9121 16565,9130 16669,9141 16773,9155 16877,9170 16981,9178 17086,9186 17190,9210 17294,9219 17398,9236 17503,9255 17607,9275 17711,9284 17815,9292 17919,9329 18024,9347 18128,9368 18232,9394 18336,9419 18441,9431 18545,9441 18649,9484 18753,9504 18857,9524 18962,9555 19066,9590 19170,9602 19274,9611 19379,9653 19483,9693 19587,9720 19691,9757 19795,9800"/>
 <path fill="none" stroke="rgb(255,149,14)" stroke-width="80" stroke-linejoin="round" d="M 1767,10146 L 1871,8720 1975,3018 2010,1593"/>
 <path fill="none" stroke="rgb(255,149,14)" stroke-width="80" stroke-linejoin="round" d="M 2206,1593 L 2288,4159 2392,8144 2496,8350 2600,9360 2705,9025 2809,8874 2913,8920 3017,8679 3121,9271 3226,9393 3330,7909 3434,7902 3538,7664 3643,7439 3747,7898 3851,7585 3955,7922 4059,7623 4164,7934 4268,7593 4372,8718 4476,8777 4581,8447 4685,8311 4789,8269 4893,8297 4997,8476 5102,8488 5206,8526 5310,8394 5414,8475 5518,8504 5623,8616 5727,8776 5831,8821 5935,8830 6040,8735 6144,8709 6248,8845 6352,8887 6456,8797 6561,8850 6665,8789 6769,8710 6873,8703 6978,8712 7082,8752 7186,8783 7290,8695 7394,8650 7499,8783 7603,8778 7707,8772 7811,8786 7915,8863 8020,8854 8124,8792 8228,8809 8332,8782 8437,8808 8541,8796 8645,8810 8749,8715 8853,8715 8958,8722 9062,8705 9166,8726 9270,8708 9375,8698 9479,8654 9583,8639 9687,8609 9791,8602 9896,8613 10000,8629 10104,8624 10208,8622 10313,8603 10417,8591 10521,8606 10625,8596 10729,8595 10834,8615 10938,8612 11042,8610 11146,8577 11250,8576 11355,8591 11459,8691 11563,8681 11667,8691 11772,8694 11875,8692 11979,8688 12083,8698 12187,8706 12292,8734 12396,8742 12500,8756 12604,8754 12709,8757 12813,8760 12917,8774 13021,8780 13125,8791 13230,8805 13334,8815 13438,8820 13542,8833 13647,8843 13751,8852 13855,8864 13959,8874 14063,8832 14168,8839 14272,8854 14376,8870 14480,8888 14584,8906 14689,8916 14793,8921 14897,8930 15001,8950 15106,8965 15210,8977 15314,8998 15418,9004 15522,9006 15627,9031 15731,9045 15835,9062 15939,9076 16044,9090 16148,9095 16252,9099 16356,9123 16460,9134 16565,9145 16669,9162 16773,9174 16877,9182 16981,9187 17086,9212 17190,9223 17294,9239 17398,9259 17503,9279 17607,9288 17711,9294 17815,9331 17919,9349 18024,9372 18128,9398 18232,9423 18336,9435 18441,9444 18545,9486 18649,9507 18753,9529 18857,9560 18962,9594 19066,9607 19170,9615 19274,9655 19379,9698 19483,9723 19587,9762 19691,9805 19795,9817"/>
 <path fill="none" stroke="rgb(197,0,11)" stroke-width="80" stroke-linejoin="round" d="M 1767,10146 L 1871,8720 1975,3018 2079,3771 2183,6860 2288,9236 2392,9917 2496,10063 2600,10890 2705,10790 2809,10332 2913,10289 3017,10607 3121,10241 3226,10321 3330,9294 3434,9485 3538,9206 3643,9000 3747,9261 3851,8888 3955,9065 4059,9073 4164,8778 4268,9591 4372,9723 4476,9610 4581,9461 4685,9182 4789,9196 4893,9338 4997,9368 5102,9308 5206,9180 5310,9177 5414,9101 5518,9210 5623,9330 5727,9384 5831,9388 5935,9245 6040,9143 6144,9145 6248,9234 6352,9233 6456,9147 6561,9146 6665,9017 6769,8925 6873,8926 6978,8957 7082,8981 7186,9007 7290,8879 7394,8999 7499,8915 7603,8900 7707,8927 7811,9015 7915,9003 8020,8934 8124,8938 8228,8891 8332,8880 8437,8888 8541,8903 8645,8823 8749,8794 8853,8777 8958,8789 9062,8768 9166,8766 9270,8757 9375,8744 9479,8699 9583,8673 9687,8640 9791,8642 9896,8670 10000,8675 10104,8671 10208,8656 10313,8630 10417,8629 10521,8638 10625,8621 10729,8627 10834,8644 10938,8634 11042,8627 11146,8596 11250,8604 11355,8618 11459,8713 11563,8711 11667,8710 11772,8710 11875,8704 11979,8706 12083,8714 12187,8749 12292,8757 12396,8768 12500,8769 12604,8766 12709,8766 12813,8783 12917,8794 13021,8802 13125,8812 13230,8823 13334,8828 13438,8837 13542,8848 13647,8863 13751,8875 13855,8883 13959,8889 14063,8845 14168,8856 14272,8874 14376,8896 14480,8911 14584,8922 14689,8929 14793,8932 14897,8953 15001,8970 15106,8984 15210,9003 15314,9010 15418,9011 15522,9034 15627,9047 15731,9065 15835,9081 15939,9094 16044,9101 16148,9104 16252,9125 16356,9135 16460,9148 16565,9165 16669,9181 16773,9186 16877,9191 16981,9214 17086,9224 17190,9243 17294,9262 17398,9283 17503,9292 17607,9298 17711,9333 17815,9351 17919,9374 18024,9402 18128,9427 18232,9439 18336,9448 18441,9489 18545,9509 18649,9533 18753,9565 18857,9599 18962,9611 19066,9619 19170,9658 19274,9700 19379,9728 19483,9765 19587,9810 19691,9822 19795,9832"/>
 <path fill="none" stroke="rgb(0,132,209)" stroke-width="80" stroke-linejoin="round" d="M 1767,10146 L 1871,8720 1975,6676 2079,8480 2183,10601 2288,10701 2392,11188 2496,11380 2600,12045 2705,11744 2809,11350 2913,11676 3017,11326 3121,11013 3226,11193 3330,10539 3434,10612 3538,10373 3643,10133 3747,10245 3851,9862 3955,10207 4059,9770 4164,10430 4268,10442 4372,10417 4476,10426 4581,10168 4685,9971 4789,10083 4893,10100 4997,10067 5102,9876 5206,9861 5310,9729 5414,9735 5518,9851 5623,9878 5727,9894 5831,9762 5935,9616 6040,9546 6144,9513 6248,9558 6352,9556 6456,9428 6561,9360 6665,9220 6769,9140 6873,9162 6978,9178 7082,9198 7186,9182 7290,9215 7394,9125 7499,9034 7603,9051 7707,9150 7811,9152 7915,9082 8020,9076 8124,9018 8228,8986 8332,8959 8437,8993 8541,8917 8645,8900 8749,8855 8853,8843 8958,8851 9062,8808 9166,8815 9270,8802 9375,8789 9479,8733 9583,8704 9687,8680 9791,8699 9896,8716 10000,8721 10104,8704 10208,8683 10313,8668 10417,8661 10521,8663 10625,8653 10729,8656 10834,8666 10938,8651 11042,8646 11146,8624 11250,8631 11355,8640 11459,8744 11563,8730 11667,8726 11772,8721 11875,8721 11979,8722 12083,8757 12187,8772 12292,8783 12396,8781 12500,8781 12604,8775 12709,8789 12813,8804 12917,8816 13021,8823 13125,8830 13230,8837 13334,8845 13438,8853 13542,8869 13647,8886 13751,8894 13855,8898 13959,8902 14063,8862 14168,8877 14272,8900 14376,8919 14480,8927 14584,8935 14689,8941 14793,8955 14897,8972 15001,8990 15106,9010 15210,9016 15314,9017 15418,9040 15522,9050 15627,9067 15731,9085 15835,9099 15939,9105 16044,9109 16148,9129 16252,9138 16356,9150 16460,9169 16565,9185 16669,9194 16773,9196 16877,9217 16981,9226 17086,9244 17190,9266 17294,9286 17398,9296 17503,9302 17607,9337 17711,9353 17815,9376 17919,9403 18024,9431 18128,9443 18232,9452 18336,9493 18441,9512 18545,9535 18649,9568 18753,9604 18857,9615 18962,9623 19066,9663 19170,9704 19274,9730 19379,9770 19483,9813 19587,9828 19691,9837 19795,9887"/>
 <path fill="none" stroke="rgb(0,69,134)" stroke-width="80" stroke-linejoin="round" d="M 1767,10146 L 1871,10549 1975,10100 2079,11420 2183,11680 2288,11751 2392,12165 2496,12375 2600,12669 2705,12411 2809,12381 2913,12194 3017,11897 3121,11738 3226,11978 3330,11426 3434,11464 3538,11219 3643,10951 3747,10980 3851,10834 3955,10757 4059,11131 4164,11133 4268,11030 4372,11096 4476,10996 4581,10809 4685,10727 4789,10734 4893,10698 4997,10550 5102,10466 5206,10341 5310,10289 5414,10312 5518,10343 5623,10338 5727,10230 5831,10096 5935,9983 6040,9886 6144,9820 6248,9861 6352,9815 6456,9630 6561,9550 6665,9423 6769,9366 6873,9375 6978,9387 7082,9366 7186,9499 7290,9336 7394,9240 7499,9182 7603,9270 7707,9284 7811,9228 7915,9220 8020,9154 8124,9111 8228,9064 8332,9062 8437,9006 8541,8993 8645,8960 8749,8920 8853,8904 8958,8891 9062,8857 9166,8860 9270,8847 9375,8822 9479,8763 9583,8744 9687,8737 9791,8744 9896,8762 10000,8754 10104,8731 10208,8720 10313,8700 10417,8686 10521,8695 10625,8682 10729,8678 10834,8683 10938,8671 11042,8674 11146,8650 11250,8653 11355,8671 11459,8763 11563,8746 11667,8738 11772,8739 11875,8738 11979,8764 12083,8780 12187,8797 12292,8796 12396,8792 12500,8790 12604,8798 12709,8809 12813,8825 12917,8837 13021,8841 13125,8844 13230,8853 13334,8861 13438,8873 13542,8891 13647,8905 13751,8909 13855,8911 13959,8919 14063,8882 14168,8903 14272,8923 14376,8935 14480,8939 14584,8946 14689,8963 14793,8974 14897,8992 15001,9015 15106,9023 15210,9023 15314,9046 15418,9055 15522,9071 15627,9087 15731,9103 15835,9110 15939,9114 16044,9135 16148,9142 16252,9152 16356,9170 16460,9189 16565,9197 16669,9203 16773,9222 16877,9230 16981,9246 17086,9267 17190,9290 17294,9299 17398,9306 17503,9341 17607,9357 17711,9378 17815,9406 17919,9433 18024,9447 18128,9456 18232,9497 18336,9516 18441,9537 18545,9570 18649,9607 18753,9620 18857,9627 18962,9667 19066,9708 19170,9733 19274,9772 19379,9818 19483,9830 19587,9843 19691,9892 19795,9913"/>
 <path fill="none" stroke="rgb(255,66,14)" stroke-width="80" stroke-linejoin="round" d="M 1767,11517 L 1871,12261 1975,12239 2079,12268 2183,12454 2288,12558 2392,12903 2496,12913 2600,13106 2705,13086 2809,12766 2913,12605 3017,12434 3121,12390 3226,12536 3330,12096 3434,12083 3538,11830 3643,11562 3747,11714 3851,11302 3955,11829 4059,11711 4164,11619 4268,11605 4372,11570 4476,11512 4581,11422 4685,11282 4789,11244 4893,11111 4997,11053 5102,10882 5206,10827 5310,10797 5414,10754 5518,10756 5623,10641 5727,10530 5831,10426 5935,10293 6040,10170 6144,10106 6248,10103 6352,10001 6456,9810 6561,9741 6665,9637 6769,9571 6873,9575 6978,9549 7082,9672 7186,9614 7290,9446 7394,9382 7499,9395 7603,9400 7707,9358 7811,9363 7915,9296 8020,9246 8124,9187 8228,9166 8332,9075 8437,9081 8541,9051 8645,9024 8749,8981 8853,8944 8958,8939 9062,8901 9166,8904 9270,8879 9375,8852 9479,8802 9583,8800 9687,8781 9791,8790 9896,8795 10000,8781 10104,8768 10208,8752 10313,8724 10417,8718 10521,8723 10625,8704 10729,8696 10834,8702 10938,8698 11042,8700 11146,8673 11250,8684 11355,8690 11459,8778 11563,8758 11667,8755 11772,8755 11875,8780 11979,8788 12083,8805 12187,8811 12292,8808 12396,8801 12500,8813 12604,8818 12709,8831 12813,8847 12917,8854 13021,8855 13125,8860 13230,8869 13334,8881 13438,8896 13542,8910 13647,8920 13751,8923 13855,8928 13959,8939 14063,8908 14168,8925 14272,8939 14376,8948 14480,8951 14584,8969 14689,8982 14793,8994 14897,9018 15001,9028 15106,9030 15210,9052 15314,9061 15418,9076 15522,9090 15627,9105 15731,9114 15835,9119 15939,9140 16044,9148 16148,9156 16252,9173 16356,9190 16460,9201 16565,9207 16669,9229 16773,9234 16877,9250 16981,9269 17086,9291 17190,9302 17294,9309 17398,9345 17503,9361 17607,9382 17711,9408 17815,9435 17919,9449 18024,9460 18128,9501 18232,9520 18336,9542 18441,9573 18545,9609 18649,9624 18753,9633 18857,9671 18962,9712 19066,9737 19170,9776 19274,9820 19379,9835 19483,9845 19587,9897 19691,9918 19795,9958"/>
 <path fill="none" stroke="rgb(255,211,32)" stroke-width="80" stroke-linejoin="round" d="M 1767,12802 L 1871,13331 1975,12855 2079,12876 2183,13049 2288,13167 2392,13303 2496,13288 2600,13548 2705,13338 2809,13071 2913,12992 3017,12917 3121,12854 3226,12958 3330,12582 3434,12529 3538,12286 3643,12172 3747,12067 3851,12215 3955,12286 4059,12111 4164,12094 4268,12007 4372,12000 4476,12006 4581,11872 4685,11716 4789,11597 4893,11541 4997,11407 5102,11304 5206,11270 5310,11187 5414,11126 5518,11028 5623,10912 5727,10828 5831,10705 5935,10551 6040,10434 6144,10336 6248,10278 6352,10168 6456,9990 6561,9941 6665,9831 6769,9764 6873,9732 6978,9844 7082,9783 7186,9718 7290,9582 7394,9587 7499,9522 7603,9473 7707,9489 7811,9437 7915,9385 8020,9319 8124,9286 8228,9178 8332,9149 8437,9139 8541,9114 8645,9084 8749,9020 8853,8991 8958,8982 9062,8945 9166,8936 9270,8909 9375,8890 9479,8858 9583,8844 9687,8827 9791,8823 9896,8821 10000,8818 10104,8799 10208,8776 10313,8756 10417,8746 10521,8745 10625,8721 10729,8715 10834,8729 10938,8724 11042,8722 11146,8704 11250,8703 11355,8706 11459,8790 11563,8775 11667,8772 11772,8797 11875,8803 11979,8813 12083,8819 12187,8822 12292,8817 12396,8824 12500,8833 12604,8840 12709,8852 12813,8864 12917,8868 13021,8871 13125,8876 13230,8889 13334,8904 13438,8915 13542,8926 13647,8933 13751,8939 13855,8948 13959,8965 14063,8931 14168,8942 14272,8952 14376,8959 14480,8973 14584,8988 14689,9002 14793,9020 14897,9031 15001,9035 15106,9059 15210,9067 15314,9082 15418,9095 15522,9108 15627,9116 15731,9123 15835,9145 15939,9152 16044,9162 16148,9177 16252,9192 16356,9202 16460,9210 16565,9233 16669,9241 16773,9255 16877,9273 16981,9293 17086,9304 17190,9312 17294,9348 17398,9365 17503,9386 17607,9411 17711,9437 17815,9451 17919,9462 18024,9505 18128,9524 18232,9546 18336,9577 18441,9612 18545,9626 18649,9636 18753,9676 18857,9716 18962,9741 19066,9780 19170,9824 19274,9837 19379,9850 19483,9900 19587,9924 19691,9964 19795,10001"/>
 <text class="TextShape" transform="rotate(-90 1861 15351)"><tspan class="TextParagraph" font-family="Liberation Sans, sans-serif" font-size="282px" font-weight="400"><tspan class="TextPosition" x="1861" y="15351"><tspan fill="rgb(0,0,0)" stroke="none">22.02</tspan></tspan></tspan></text>
 <text class="TextShape" transform="rotate(-90 2277 15351)"><tspan class="TextParagraph" font-family="Liberation Sans, sans-serif" font-size="282px" font-weight="400"><tspan class="TextPosition" x="2277" y="15351"><tspan fill="rgb(0,0,0)" stroke="none">26.02</tspan></tspan></tspan></text>
 <text class="TextShape" transform="rotate(-90 2694 15351)"><tspan class="TextParagraph" font-family="Liberation Sans, sans-serif" font-size="282px" font-weight="400"><tspan class="TextPosition" x="2694" y="15351"><tspan fill="rgb(0,0,0)" stroke="none">01.03</tspan></tspan></tspan></text>
 <text class="TextShape" transform="rotate(-90 3111 15351)"><tspan class="TextParagraph" font-family="Liberation Sans, sans-serif" font-size="282px" font-weight="400"><tspan class="TextPosition" x="3111" y="15351"><tspan fill="rgb(0,0,0)" stroke="none">05.03</tspan></tspan></tspan></text>
 <text class="TextShape" transform="rotate(-90 3528 15351)"><tspan class="TextParagraph" font-family="Liberation Sans, sans-serif" font-size="282px" font-weight="400"><tspan class="TextPosition" x="3528" y="15351"><tspan fill="rgb(0,0,0)" stroke="none">09.03</tspan></tspan></tspan></text>
 <text class="TextShape" transform="rotate(-90 3945 15351)"><tspan class="TextParagraph" font-family="Liberation Sans, sans-serif" font-size="282px" font-weight="400"><tspan class="TextPosition" x="3945" y="15351"><tspan fill="rgb(0,0,0)" stroke="none">13.03</tspan></tspan></tspan></text>
 <text class="TextShape" transform="rotate(-90 4362 15351)"><tspan class="TextParagraph" font-family="Liberation Sans, sans-serif" font-size="282px" font-weight="400"><tspan class="TextPosition" x="4362" y="15351"><tspan fill="rgb(0,0,0)" stroke="none">17.03</tspan></tspan></tspan></text>
 <text class="TextShape" transform="rotate(-90 4779 15351)"><tspan class="TextParagraph" font-family="Liberation Sans, sans-serif" font-size="282px" font-weight="400"><tspan class="TextPosition" x="4779" y="15351"><tspan fill="rgb(0,0,0)" stroke="none">21.03</tspan></tspan></tspan></text>
 <text class="TextShape" transform="rotate(-90 5196 15351)"><tspan class="TextParagraph" font-family="Liberation Sans, sans-serif" font-size="282px" font-weight="400"><tspan class="TextPosition" x="5196" y="15351"><tspan fill="rgb(0,0,0)" stroke="none">25.03</tspan></tspan></tspan></text>
 <text class="TextShape" transform="rotate(-90 5612 15351)"><tspan class="TextParagraph" font-family="Liberation Sans, sans-serif" font-size="282px" font-weight="400"><tspan class="TextPosition" x="5612" y="15351"><tspan fill="rgb(0,0,0)" stroke="none">29.03</tspan></tspan></tspan></text>
 <text class="TextShape" transform="rotate(-90 6029 15351)"><tspan class="TextParagraph" font-family="Liberation Sans, sans-serif" font-size="282px" font-weight="400"><tspan class="TextPosition" x="6029" y="15351"><tspan fill="rgb(0,0,0)" stroke="none">02.04</tspan></tspan></tspan></text>
 <text class="TextShape" transform="rotate(-90 6446 15351)"><tspan class="TextParagraph" font-family="Liberation Sans, sans-serif" font-size="282px" font-weight="400"><tspan class="TextPosition" x="6446" y="15351"><tspan fill="rgb(0,0,0)" stroke="none">06.04</tspan></tspan></tspan></text>
 <text class="TextShape" transform="rotate(-90 6863 15351)"><tspan class="TextParagraph" font-family="Liberation Sans, sans-serif" font-size="282px" font-weight="400"><tspan class="TextPosition" x="6863" y="15351"><tspan fill="rgb(0,0,0)" stroke="none">10.04</tspan></tspan></tspan></text>
 <text class="TextShape" transform="rotate(-90 7280 15351)"><tspan class="TextParagraph" font-family="Liberation Sans, sans-serif" font-size="282px" font-weight="400"><tspan class="TextPosition" x="7280" y="15351"><tspan fill="rgb(0,0,0)" stroke="none">14.04</tspan></tspan></tspan></text>
 <text class="TextShape" transform="rotate(-90 7697 15351)"><tspan class="TextParagraph" font-family="Liberation Sans, sans-serif" font-size="282px" font-weight="400"><tspan class="TextPosition" x="7697" y="15351"><tspan fill="rgb(0,0,0)" stroke="none">18.04</tspan></tspan></tspan></text>
 <text class="TextShape" transform="rotate(-90 8114 15351)"><tspan class="TextParagraph" font-family="Liberation Sans, sans-serif" font-size="282px" font-weight="400"><tspan class="TextPosition" x="8114" y="15351"><tspan fill="rgb(0,0,0)" stroke="none">22.04</tspan></tspan></tspan></text>
 <text class="TextShape" transform="rotate(-90 8531 15351)"><tspan class="TextParagraph" font-family="Liberation Sans, sans-serif" font-size="282px" font-weight="400"><tspan class="TextPosition" x="8531" y="15351"><tspan fill="rgb(0,0,0)" stroke="none">26.04</tspan></tspan></tspan></text>
 <text class="TextShape" transform="rotate(-90 8947 15351)"><tspan class="TextParagraph" font-family="Liberation Sans, sans-serif" font-size="282px" font-weight="400"><tspan class="TextPosition" x="8947" y="15351"><tspan fill="rgb(0,0,0)" stroke="none">30.04</tspan></tspan></tspan></text>
 <text class="TextShape" transform="rotate(-90 9364 15351)"><tspan class="TextParagraph" font-family="Liberation Sans, sans-serif" font-size="282px" font-weight="400"><tspan class="TextPosition" x="9364" y="15351"><tspan fill="rgb(0,0,0)" stroke="none">04.05</tspan></tspan></tspan></text>
 <text class="TextShape" transform="rotate(-90 9781 15351)"><tspan class="TextParagraph" font-family="Liberation Sans, sans-serif" font-size="282px" font-weight="400"><tspan class="TextPosition" x="9781" y="15351"><tspan fill="rgb(0,0,0)" stroke="none">08.05</tspan></tspan></tspan></text>
 <text class="TextShape" transform="rotate(-90 10198 15351)"><tspan class="TextParagraph" font-family="Liberation Sans, sans-serif" font-size="282px" font-weight="400"><tspan class="TextPosition" x="10198" y="15351"><tspan fill="rgb(0,0,0)" stroke="none">12.05</tspan></tspan></tspan></text>
 <text class="TextShape" transform="rotate(-90 10615 15351)"><tspan class="TextParagraph" font-family="Liberation Sans, sans-serif" font-size="282px" font-weight="400"><tspan class="TextPosition" x="10615" y="15351"><tspan fill="rgb(0,0,0)" stroke="none">16.05</tspan></tspan></tspan></text>
 <text class="TextShape" transform="rotate(-90 11032 15351)"><tspan class="TextParagraph" font-family="Liberation Sans, sans-serif" font-size="282px" font-weight="400"><tspan class="TextPosition" x="11032" y="15351"><tspan fill="rgb(0,0,0)" stroke="none">20.05</tspan></tspan></tspan></text>
 <text class="TextShape" transform="rotate(-90 11449 15351)"><tspan class="TextParagraph" font-family="Liberation Sans, sans-serif" font-size="282px" font-weight="400"><tspan class="TextPosition" x="11449" y="15351"><tspan fill="rgb(0,0,0)" stroke="none">24.05</tspan></tspan></tspan></text>
 <text class="TextShape" transform="rotate(-90 11865 15351)"><tspan class="TextParagraph" font-family="Liberation Sans, sans-serif" font-size="282px" font-weight="400"><tspan class="TextPosition" x="11865" y="15351"><tspan fill="rgb(0,0,0)" stroke="none">28.05</tspan></tspan></tspan></text>
 <text class="TextShape" transform="rotate(-90 12281 15351)"><tspan class="TextParagraph" font-family="Liberation Sans, sans-serif" font-size="282px" font-weight="400"><tspan class="TextPosition" x="12281" y="15351"><tspan fill="rgb(0,0,0)" stroke="none">01.06</tspan></tspan></tspan></text>
 <text class="TextShape" transform="rotate(-90 12698 15351)"><tspan class="TextParagraph" font-family="Liberation Sans, sans-serif" font-size="282px" font-weight="400"><tspan class="TextPosition" x="12698" y="15351"><tspan fill="rgb(0,0,0)" stroke="none">05.06</tspan></tspan></tspan></text>
 <text class="TextShape" transform="rotate(-90 13115 15351)"><tspan class="TextParagraph" font-family="Liberation Sans, sans-serif" font-size="282px" font-weight="400"><tspan class="TextPosition" x="13115" y="15351"><tspan fill="rgb(0,0,0)" stroke="none">09.06</tspan></tspan></tspan></text>
 <text class="TextShape" transform="rotate(-90 13532 15351)"><tspan class="TextParagraph" font-family="Liberation Sans, sans-serif" font-size="282px" font-weight="400"><tspan class="TextPosition" x="13532" y="15351"><tspan fill="rgb(0,0,0)" stroke="none">13.06</tspan></tspan></tspan></text>
 <text class="TextShape" transform="rotate(-90 13949 15351)"><tspan class="TextParagraph" font-family="Liberation Sans, sans-serif" font-size="282px" font-weight="400"><tspan class="TextPosition" x="13949" y="15351"><tspan fill="rgb(0,0,0)" stroke="none">17.06</tspan></tspan></tspan></text>
 <text class="TextShape" transform="rotate(-90 14366 15351)"><tspan class="TextParagraph" font-family="Liberation Sans, sans-serif" font-size="282px" font-weight="400"><tspan class="TextPosition" x="14366" y="15351"><tspan fill="rgb(0,0,0)" stroke="none">21.06</tspan></tspan></tspan></text>
 <text class="TextShape" transform="rotate(-90 14783 15351)"><tspan class="TextParagraph" font-family="Liberation Sans, sans-serif" font-size="282px" font-weight="400"><tspan class="TextPosition" x="14783" y="15351"><tspan fill="rgb(0,0,0)" stroke="none">25.06</tspan></tspan></tspan></text>
 <text class="TextShape" transform="rotate(-90 15200 15351)"><tspan class="TextParagraph" font-family="Liberation Sans, sans-serif" font-size="282px" font-weight="400"><tspan class="TextPosition" x="15200" y="15351"><tspan fill="rgb(0,0,0)" stroke="none">29.06</tspan></tspan></tspan></text>
 <text class="TextShape" transform="rotate(-90 15616 15351)"><tspan class="TextParagraph" font-family="Liberation Sans, sans-serif" font-size="282px" font-weight="400"><tspan class="TextPosition" x="15616" y="15351"><tspan fill="rgb(0,0,0)" stroke="none">03.07</tspan></tspan></tspan></text>
 <text class="TextShape" transform="rotate(-90 16033 15351)"><tspan class="TextParagraph" font-family="Liberation Sans, sans-serif" font-size="282px" font-weight="400"><tspan class="TextPosition" x="16033" y="15351"><tspan fill="rgb(0,0,0)" stroke="none">07.07</tspan></tspan></tspan></text>
 <text class="TextShape" transform="rotate(-90 16450 15351)"><tspan class="TextParagraph" font-family="Liberation Sans, sans-serif" font-size="282px" font-weight="400"><tspan class="TextPosition" x="16450" y="15351"><tspan fill="rgb(0,0,0)" stroke="none">11.07</tspan></tspan></tspan></text>
 <text class="TextShape" transform="rotate(-90 16867 15351)"><tspan class="TextParagraph" font-family="Liberation Sans, sans-serif" font-size="282px" font-weight="400"><tspan class="TextPosition" x="16867" y="15351"><tspan fill="rgb(0,0,0)" stroke="none">15.07</tspan></tspan></tspan></text>
 <text class="TextShape" transform="rotate(-90 17284 15351)"><tspan class="TextParagraph" font-family="Liberation Sans, sans-serif" font-size="282px" font-weight="400"><tspan class="TextPosition" x="17284" y="15351"><tspan fill="rgb(0,0,0)" stroke="none">19.07</tspan></tspan></tspan></text>
 <text class="TextShape" transform="rotate(-90 17701 15351)"><tspan class="TextParagraph" font-family="Liberation Sans, sans-serif" font-size="282px" font-weight="400"><tspan class="TextPosition" x="17701" y="15351"><tspan fill="rgb(0,0,0)" stroke="none">23.07</tspan></tspan></tspan></text>
 <text class="TextShape" transform="rotate(-90 18118 15351)"><tspan class="TextParagraph" font-family="Liberation Sans, sans-serif" font-size="282px" font-weight="400"><tspan class="TextPosition" x="18118" y="15351"><tspan fill="rgb(0,0,0)" stroke="none">27.07</tspan></tspan></tspan></text>
 <text class="TextShape" transform="rotate(-90 18535 15351)"><tspan class="TextParagraph" font-family="Liberation Sans, sans-serif" font-size="282px" font-weight="400"><tspan class="TextPosition" x="18535" y="15351"><tspan fill="rgb(0,0,0)" stroke="none">31.07</tspan></tspan></tspan></text>
 <text class="TextShape" transform="rotate(-90 18951 15351)"><tspan class="TextParagraph" font-family="Liberation Sans, sans-serif" font-size="282px" font-weight="400"><tspan class="TextPosition" x="18951" y="15351"><tspan fill="rgb(0,0,0)" stroke="none">04.08</tspan></tspan></tspan></text>
 <text class="TextShape" transform="rotate(-90 19368 15351)"><tspan class="TextParagraph" font-family="Liberation Sans, sans-serif" font-size="282px" font-weight="400"><tspan class="TextPosition" x="19368" y="15351"><tspan fill="rgb(0,0,0)" stroke="none">08.08</tspan></tspan></tspan></text>
 <text class="TextShape" transform="rotate(-90 19785 15351)"><tspan class="TextParagraph" font-family="Liberation Sans, sans-serif" font-size="282px" font-weight="400"><tspan class="TextPosition" x="19785" y="15351"><tspan fill="rgb(0,0,0)" stroke="none">12.08</tspan></tspan></tspan></text>
 <text class="TextShape"><tspan class="TextParagraph" font-family="Liberation Sans, sans-serif" font-size="353px" font-weight="400"><tspan class="TextPosition" x="364" y="14541"><tspan fill="rgb(0,0,0)" stroke="none">0,00 %</tspan></tspan></tspan></text>
 <text class="TextShape"><tspan class="TextParagraph" font-family="Liberation Sans, sans-serif" font-size="353px" font-weight="400"><tspan class="TextPosition" x="364" y="14027"><tspan fill="rgb(0,0,0)" stroke="none">1,00 %</tspan></tspan></tspan></text>
 <text class="TextShape"><tspan class="TextParagraph" font-family="Liberation Sans, sans-serif" font-size="353px" font-weight="400"><tspan class="TextPosition" x="364" y="13514"><tspan fill="rgb(0,0,0)" stroke="none">2,00 %</tspan></tspan></tspan></text>
 <text class="TextShape"><tspan class="TextParagraph" font-family="Liberation Sans, sans-serif" font-size="353px" font-weight="400"><tspan class="TextPosition" x="364" y="13001"><tspan fill="rgb(0,0,0)" stroke="none">3,00 %</tspan></tspan></tspan></text>
 <text class="TextShape"><tspan class="TextParagraph" font-family="Liberation Sans, sans-serif" font-size="353px" font-weight="400"><tspan class="TextPosition" x="364" y="12488"><tspan fill="rgb(0,0,0)" stroke="none">4,00 %</tspan></tspan></tspan></text>
 <text class="TextShape"><tspan class="TextParagraph" font-family="Liberation Sans, sans-serif" font-size="353px" font-weight="400"><tspan class="TextPosition" x="364" y="11974"><tspan fill="rgb(0,0,0)" stroke="none">5,00 %</tspan></tspan></tspan></text>
 <text class="TextShape"><tspan class="TextParagraph" font-family="Liberation Sans, sans-serif" font-size="353px" font-weight="400"><tspan class="TextPosition" x="364" y="11461"><tspan fill="rgb(0,0,0)" stroke="none">6,00 %</tspan></tspan></tspan></text>
 <text class="TextShape"><tspan class="TextParagraph" font-family="Liberation Sans, sans-serif" font-size="353px" font-weight="400"><tspan class="TextPosition" x="364" y="10948"><tspan fill="rgb(0,0,0)" stroke="none">7,00 %</tspan></tspan></tspan></text>
 <text class="TextShape"><tspan class="TextParagraph" font-family="Liberation Sans, sans-serif" font-size="353px" font-weight="400"><tspan class="TextPosition" x="364" y="10435"><tspan fill="rgb(0,0,0)" stroke="none">8,00 %</tspan></tspan></tspan></text>
 <text class="TextShape"><tspan class="TextParagraph" font-family="Liberation Sans, sans-serif" font-size="353px" font-weight="400"><tspan class="TextPosition" x="364" y="9921"><tspan fill="rgb(0,0,0)" stroke="none">9,00 %</tspan></tspan></tspan></text>
 <text class="TextShape"><tspan class="TextParagraph" font-family="Liberation Sans, sans-serif" font-size="353px" font-weight="400"><tspan class="TextPosition" x="174" y="9408"><tspan fill="rgb(0,0,0)" stroke="none">10,00 %</tspan></tspan></tspan></text>
 <text class="TextShape"><tspan class="TextParagraph" font-family="Liberation Sans, sans-serif" font-size="353px" font-weight="400"><tspan class="TextPosition" x="174" y="8895"><tspan fill="rgb(0,0,0)" stroke="none">11,00 %</tspan></tspan></tspan></text>
 <text class="TextShape"><tspan class="TextParagraph" font-family="Liberation Sans, sans-serif" font-size="353px" font-weight="400"><tspan class="TextPosition" x="174" y="8382"><tspan fill="rgb(0,0,0)" stroke="none">12,00 %</tspan></tspan></tspan></text>
 <text class="TextShape"><tspan class="TextParagraph" font-family="Liberation Sans, sans-serif" font-size="353px" font-weight="400"><tspan class="TextPosition" x="174" y="7868"><tspan fill="rgb(0,0,0)" stroke="none">13,00 %</tspan></tspan></tspan></text>
 <text class="TextShape"><tspan class="TextParagraph" font-family="Liberation Sans, sans-serif" font-size="353px" font-weight="400"><tspan class="TextPosition" x="174" y="7355"><tspan fill="rgb(0,0,0)" stroke="none">14,00 %</tspan></tspan></tspan></text>
 <text class="TextShape"><tspan class="TextParagraph" font-family="Liberation Sans, sans-serif" font-size="353px" font-weight="400"><tspan class="TextPosition" x="174" y="6842"><tspan fill="rgb(0,0,0)" stroke="none">15,00 %</tspan></tspan></tspan></text>
 <text class="TextShape"><tspan class="TextParagraph" font-family="Liberation Sans, sans-serif" font-size="353px" font-weight="400"><tspan class="TextPosition" x="174" y="6329"><tspan fill="rgb(0,0,0)" stroke="none">16,00 %</tspan></tspan></tspan></text>
 <text class="TextShape"><tspan class="TextParagraph" font-family="Liberation Sans, sans-serif" font-size="353px" font-weight="400"><tspan class="TextPosition" x="174" y="5815"><tspan fill="rgb(0,0,0)" stroke="none">17,00 %</tspan></tspan></tspan></text>
 <text class="TextShape"><tspan class="TextParagraph" font-family="Liberation Sans, sans-serif" font-size="353px" font-weight="400"><tspan class="TextPosition" x="174" y="5302"><tspan fill="rgb(0,0,0)" stroke="none">18,00 %</tspan></tspan></tspan></text>
 <text class="TextShape"><tspan class="TextParagraph" font-family="Liberation Sans, sans-serif" font-size="353px" font-weight="400"><tspan class="TextPosition" x="174" y="4789"><tspan fill="rgb(0,0,0)" stroke="none">19,00 %</tspan></tspan></tspan></text>
 <text class="TextShape"><tspan class="TextParagraph" font-family="Liberation Sans, sans-serif" font-size="353px" font-weight="400"><tspan class="TextPosition" x="174" y="4276"><tspan fill="rgb(0,0,0)" stroke="none">20,00 %</tspan></tspan></tspan></text>
 <text class="TextShape"><tspan class="TextParagraph" font-family="Liberation Sans, sans-serif" font-size="353px" font-weight="400"><tspan class="TextPosition" x="174" y="3762"><tspan fill="rgb(0,0,0)" stroke="none">21,00 %</tspan></tspan></tspan></text>
 <text class="TextShape"><tspan class="TextParagraph" font-family="Liberation Sans, sans-serif" font-size="353px" font-weight="400"><tspan class="TextPosition" x="174" y="3249"><tspan fill="rgb(0,0,0)" stroke="none">22,00 %</tspan></tspan></tspan></text>
 <text class="TextShape"><tspan class="TextParagraph" font-family="Liberation Sans, sans-serif" font-size="353px" font-weight="400"><tspan class="TextPosition" x="174" y="2736"><tspan fill="rgb(0,0,0)" stroke="none">23,00 %</tspan></tspan></tspan></text>
 <text class="TextShape"><tspan class="TextParagraph" font-family="Liberation Sans, sans-serif" font-size="353px" font-weight="400"><tspan class="TextPosition" x="174" y="2223"><tspan fill="rgb(0,0,0)" stroke="none">24,00 %</tspan></tspan></tspan></text>
 <text class="TextShape"><tspan class="TextParagraph" font-family="Liberation Sans, sans-serif" font-size="353px" font-weight="400"><tspan class="TextPosition" x="174" y="1710"><tspan fill="rgb(0,0,0)" stroke="none">25,00 %</tspan></tspan></tspan></text>
 <text class="TextShape"><tspan class="TextParagraph" font-family="Liberation Sans, sans-serif" font-size="459px" font-weight="700"><tspan class="TextPosition" x="3113" y="1018"><tspan fill="rgb(0,0,0)" stroke="none">EU - pomr celkovho potu obt k posunutmu celkovmu potu infikovanch</tspan></tspan></tspan></text>
 <path fill="none" stroke="rgb(0,69,134)" stroke-width="80" stroke-linejoin="round" d="M 20015,1916 L 20815,1916"/>
 <path fill="none" stroke="rgb(255,66,14)" stroke-width="80" stroke-linejoin="round" d="M 20015,2789 L 20815,2789"/>
 <path fill="none" stroke="rgb(255,211,32)" stroke-width="80" stroke-linejoin="round" d="M 20015,3662 L 20815,3662"/>
 <path fill="none" stroke="rgb(87,157,28)" stroke-width="80" stroke-linejoin="round" d="M 20015,4535 L 20815,4535"/>
 <path fill="none" stroke="rgb(126,0,33)" stroke-width="80" stroke-linejoin="round" d="M 20015,5408 L 20815,5408"/>
 <path fill="none" stroke="rgb(131,202,255)" stroke-width="80" stroke-linejoin="round" d="M 20015,6281 L 20815,6281"/>
 <path fill="none" stroke="rgb(49,64,4)" stroke-width="80" stroke-linejoin="round" d="M 20015,7154 L 20815,7154"/>
 <path fill="none" stroke="rgb(174,207,0)" stroke-width="80" stroke-linejoin="round" d="M 20015,8027 L 20815,8027"/>
 <path fill="none" stroke="rgb(75,31,111)" stroke-width="80" stroke-linejoin="round" d="M 20015,8899 L 20815,8899"/>
 <path fill="none" stroke="rgb(255,149,14)" stroke-width="80" stroke-linejoin="round" d="M 20015,9772 L 20815,9772"/>
 <path fill="none" stroke="rgb(197,0,11)" stroke-width="80" stroke-linejoin="round" d="M 20015,10645 L 20815,10645"/>
 <path fill="none" stroke="rgb(0,132,209)" stroke-width="80" stroke-linejoin="round" d="M 20015,11518 L 20815,11518"/>
 <path fill="none" stroke="rgb(0,69,134)" stroke-width="80" stroke-linejoin="round" d="M 20015,12391 L 20815,12391"/>
 <path fill="none" stroke="rgb(255,66,14)" stroke-width="80" stroke-linejoin="round" d="M 20015,13264 L 20815,13264"/>
 <path fill="none" stroke="rgb(255,211,32)" stroke-width="80" stroke-linejoin="round" d="M 20015,14137 L 20815,14137"/>
 <text class="TextShape"><tspan class="TextParagraph" font-family="Liberation Sans, sans-serif" font-size="353px" font-weight="400"><tspan class="TextPosition" x="20915" y="2033"><tspan fill="rgb(0,0,0)" stroke="none">14 dn zpodn</tspan></tspan></tspan></text>
 <text class="TextShape"><tspan class="TextParagraph" font-family="Liberation Sans, sans-serif" font-size="353px" font-weight="400"><tspan class="TextPosition" x="20915" y="2906"><tspan fill="rgb(0,0,0)" stroke="none">13 dn zpodn</tspan></tspan></tspan></text>
 <text class="TextShape"><tspan class="TextParagraph" font-family="Liberation Sans, sans-serif" font-size="353px" font-weight="400"><tspan class="TextPosition" x="20915" y="3779"><tspan fill="rgb(0,0,0)" stroke="none">12 dn zpodn</tspan></tspan></tspan></text>
 <text class="TextShape"><tspan class="TextParagraph" font-family="Liberation Sans, sans-serif" font-size="353px" font-weight="400"><tspan class="TextPosition" x="20915" y="4652"><tspan fill="rgb(0,0,0)" stroke="none">11 dn zpodn</tspan></tspan></tspan></text>
 <text class="TextShape"><tspan class="TextParagraph" font-family="Liberation Sans, sans-serif" font-size="353px" font-weight="400"><tspan class="TextPosition" x="20915" y="5525"><tspan fill="rgb(0,0,0)" stroke="none">10 dn zpodn</tspan></tspan></tspan></text>
 <text class="TextShape"><tspan class="TextParagraph" font-family="Liberation Sans, sans-serif" font-size="353px" font-weight="400"><tspan class="TextPosition" x="20915" y="6398"><tspan fill="rgb(0,0,0)" stroke="none">9 dn zpodn</tspan></tspan></tspan></text>
 <text class="TextShape"><tspan class="TextParagraph" font-family="Liberation Sans, sans-serif" font-size="353px" font-weight="400"><tspan class="TextPosition" x="20915" y="7271"><tspan fill="rgb(0,0,0)" stroke="none">8 dn zpodn</tspan></tspan></tspan></text>
 <text class="TextShape"><tspan class="TextParagraph" font-family="Liberation Sans, sans-serif" font-size="353px" font-weight="400"><tspan class="TextPosition" x="20915" y="8143"><tspan fill="rgb(0,0,0)" stroke="none">7 dn zpodn</tspan></tspan></tspan></text>
 <text class="TextShape"><tspan class="TextParagraph" font-family="Liberation Sans, sans-serif" font-size="353px" font-weight="400"><tspan class="TextPosition" x="20915" y="9016"><tspan fill="rgb(0,0,0)" stroke="none">6 dn zpodn</tspan></tspan></tspan></text>
 <text class="TextShape"><tspan class="TextParagraph" font-family="Liberation Sans, sans-serif" font-size="353px" font-weight="400"><tspan class="TextPosition" x="20915" y="9889"><tspan fill="rgb(0,0,0)" stroke="none">5 dn zpodn</tspan></tspan></tspan></text>
 <text class="TextShape"><tspan class="TextParagraph" font-family="Liberation Sans, sans-serif" font-size="353px" font-weight="400"><tspan class="TextPosition" x="20915" y="10762"><tspan fill="rgb(0,0,0)" stroke="none">4 dny zpodn</tspan></tspan></tspan></text>
 <text class="TextShape"><tspan class="TextParagraph" font-family="Liberation Sans, sans-serif" font-size="353px" font-weight="400"><tspan class="TextPosition" x="20915" y="11635"><tspan fill="rgb(0,0,0)" stroke="none">3 dny zpodn</tspan></tspan></tspan></text>
 <text class="TextShape"><tspan class="TextParagraph" font-family="Liberation Sans, sans-serif" font-size="353px" font-weight="400"><tspan class="TextPosition" x="20915" y="12508"><tspan fill="rgb(0,0,0)" stroke="none">2 dny zpodn</tspan></tspan></tspan></text>
 <text class="TextShape"><tspan class="TextParagraph" font-family="Liberation Sans, sans-serif" font-size="353px" font-weight="400"><tspan class="TextPosition" x="20915" y="13381"><tspan fill="rgb(0,0,0)" stroke="none">1 den zpodn</tspan></tspan></tspan></text>
 <text class="TextShape"><tspan class="TextParagraph" font-family="Liberation Sans, sans-serif" font-size="353px" font-weight="400"><tspan class="TextPosition" x="20915" y="14254"><tspan fill="rgb(0,0,0)" stroke="none">0 dn zpodn</tspan></tspan></tspan></text>
</svg>