<?xml version="1.0" encoding="UTF-8"?>
<!DOCTYPE svg PUBLIC "-//W3C//DTD SVG 1.1//EN" "http://www.w3.org/Graphics/SVG/1.1/DTD/svg11.dtd">
<svg width="236mm" height="125mm" viewBox="0 0 23600 12500" version="1.1" xmlns="http://www.w3.org/2000/svg" xmlns:xlink="http://www.w3.org/1999/xlink" stroke-width="28.222" stroke-linejoin="round" xml:space="preserve">
 <path fill="rgb(255,255,255)" stroke="none" d="M 11800,12500 L 0,12500 0,0 23600,0 23600,12500 11800,12500 Z"/>
 <path fill="none" stroke="rgb(179,179,179)" stroke-linejoin="round" d="M 12999,10859 L 2561,10859 2561,1692 23438,1692 23438,10859 12999,10859 Z"/>
 <path fill="none" stroke="rgb(179,179,179)" stroke-linejoin="round" d="M 23438,10858 L 2561,10858"/>
 <path fill="none" stroke="rgb(179,179,179)" stroke-linejoin="round" d="M 23438,9330 L 2561,9330"/>
 <path fill="none" stroke="rgb(179,179,179)" stroke-linejoin="round" d="M 23438,7802 L 2561,7802"/>
 <path fill="none" stroke="rgb(179,179,179)" stroke-linejoin="round" d="M 23438,6274 L 2561,6274"/>
 <path fill="none" stroke="rgb(179,179,179)" stroke-linejoin="round" d="M 23438,4747 L 2561,4747"/>
 <path fill="none" stroke="rgb(179,179,179)" stroke-linejoin="round" d="M 23438,3219 L 2561,3219"/>
 <path fill="none" stroke="rgb(179,179,179)" stroke-linejoin="round" d="M 23438,1691 L 2561,1691"/>
 <path fill="none" stroke="rgb(179,179,179)" stroke-linejoin="round" d="M 2561,11008 L 2561,10858"/>
 <path fill="none" stroke="rgb(179,179,179)" stroke-linejoin="round" d="M 2561,11008 L 2561,10858"/>
 <path fill="none" stroke="rgb(179,179,179)" stroke-linejoin="round" d="M 3415,11008 L 3415,10858"/>
 <path fill="none" stroke="rgb(179,179,179)" stroke-linejoin="round" d="M 3415,11008 L 3415,10858"/>
 <path fill="none" stroke="rgb(179,179,179)" stroke-linejoin="round" d="M 4270,11008 L 4270,10858"/>
 <path fill="none" stroke="rgb(179,179,179)" stroke-linejoin="round" d="M 4270,11008 L 4270,10858"/>
 <path fill="none" stroke="rgb(179,179,179)" stroke-linejoin="round" d="M 5124,11008 L 5124,10858"/>
 <path fill="none" stroke="rgb(179,179,179)" stroke-linejoin="round" d="M 5124,11008 L 5124,10858"/>
 <path fill="none" stroke="rgb(179,179,179)" stroke-linejoin="round" d="M 5979,11008 L 5979,10858"/>
 <path fill="none" stroke="rgb(179,179,179)" stroke-linejoin="round" d="M 5979,11008 L 5979,10858"/>
 <path fill="none" stroke="rgb(179,179,179)" stroke-linejoin="round" d="M 6834,11008 L 6834,10858"/>
 <path fill="none" stroke="rgb(179,179,179)" stroke-linejoin="round" d="M 6834,11008 L 6834,10858"/>
 <path fill="none" stroke="rgb(179,179,179)" stroke-linejoin="round" d="M 7688,11008 L 7688,10858"/>
 <path fill="none" stroke="rgb(179,179,179)" stroke-linejoin="round" d="M 7688,11008 L 7688,10858"/>
 <path fill="none" stroke="rgb(179,179,179)" stroke-linejoin="round" d="M 8543,11008 L 8543,10858"/>
 <path fill="none" stroke="rgb(179,179,179)" stroke-linejoin="round" d="M 8543,11008 L 8543,10858"/>
 <path fill="none" stroke="rgb(179,179,179)" stroke-linejoin="round" d="M 9398,11008 L 9398,10858"/>
 <path fill="none" stroke="rgb(179,179,179)" stroke-linejoin="round" d="M 9398,11008 L 9398,10858"/>
 <path fill="none" stroke="rgb(179,179,179)" stroke-linejoin="round" d="M 10252,11008 L 10252,10858"/>
 <path fill="none" stroke="rgb(179,179,179)" stroke-linejoin="round" d="M 10252,11008 L 10252,10858"/>
 <path fill="none" stroke="rgb(179,179,179)" stroke-linejoin="round" d="M 11107,11008 L 11107,10858"/>
 <path fill="none" stroke="rgb(179,179,179)" stroke-linejoin="round" d="M 11107,11008 L 11107,10858"/>
 <path fill="none" stroke="rgb(179,179,179)" stroke-linejoin="round" d="M 11961,11008 L 11961,10858"/>
 <path fill="none" stroke="rgb(179,179,179)" stroke-linejoin="round" d="M 11961,11008 L 11961,10858"/>
 <path fill="none" stroke="rgb(179,179,179)" stroke-linejoin="round" d="M 12815,11008 L 12815,10858"/>
 <path fill="none" stroke="rgb(179,179,179)" stroke-linejoin="round" d="M 12815,11008 L 12815,10858"/>
 <path fill="none" stroke="rgb(179,179,179)" stroke-linejoin="round" d="M 13670,11008 L 13670,10858"/>
 <path fill="none" stroke="rgb(179,179,179)" stroke-linejoin="round" d="M 13670,11008 L 13670,10858"/>
 <path fill="none" stroke="rgb(179,179,179)" stroke-linejoin="round" d="M 14525,11008 L 14525,10858"/>
 <path fill="none" stroke="rgb(179,179,179)" stroke-linejoin="round" d="M 14525,11008 L 14525,10858"/>
 <path fill="none" stroke="rgb(179,179,179)" stroke-linejoin="round" d="M 15379,11008 L 15379,10858"/>
 <path fill="none" stroke="rgb(179,179,179)" stroke-linejoin="round" d="M 15379,11008 L 15379,10858"/>
 <path fill="none" stroke="rgb(179,179,179)" stroke-linejoin="round" d="M 16234,11008 L 16234,10858"/>
 <path fill="none" stroke="rgb(179,179,179)" stroke-linejoin="round" d="M 16234,11008 L 16234,10858"/>
 <path fill="none" stroke="rgb(179,179,179)" stroke-linejoin="round" d="M 17089,11008 L 17089,10858"/>
 <path fill="none" stroke="rgb(179,179,179)" stroke-linejoin="round" d="M 17089,11008 L 17089,10858"/>
 <path fill="none" stroke="rgb(179,179,179)" stroke-linejoin="round" d="M 17943,11008 L 17943,10858"/>
 <path fill="none" stroke="rgb(179,179,179)" stroke-linejoin="round" d="M 17943,11008 L 17943,10858"/>
 <path fill="none" stroke="rgb(179,179,179)" stroke-linejoin="round" d="M 18798,11008 L 18798,10858"/>
 <path fill="none" stroke="rgb(179,179,179)" stroke-linejoin="round" d="M 18798,11008 L 18798,10858"/>
 <path fill="none" stroke="rgb(179,179,179)" stroke-linejoin="round" d="M 19653,11008 L 19653,10858"/>
 <path fill="none" stroke="rgb(179,179,179)" stroke-linejoin="round" d="M 19653,11008 L 19653,10858"/>
 <path fill="none" stroke="rgb(179,179,179)" stroke-linejoin="round" d="M 20507,11008 L 20507,10858"/>
 <path fill="none" stroke="rgb(179,179,179)" stroke-linejoin="round" d="M 20507,11008 L 20507,10858"/>
 <path fill="none" stroke="rgb(179,179,179)" stroke-linejoin="round" d="M 21362,11008 L 21362,10858"/>
 <path fill="none" stroke="rgb(179,179,179)" stroke-linejoin="round" d="M 21362,11008 L 21362,10858"/>
 <path fill="none" stroke="rgb(179,179,179)" stroke-linejoin="round" d="M 22217,11008 L 22217,10858"/>
 <path fill="none" stroke="rgb(179,179,179)" stroke-linejoin="round" d="M 22217,11008 L 22217,10858"/>
 <path fill="none" stroke="rgb(179,179,179)" stroke-linejoin="round" d="M 23071,11008 L 23071,10858"/>
 <path fill="none" stroke="rgb(179,179,179)" stroke-linejoin="round" d="M 23071,11008 L 23071,10858"/>
 <path fill="none" stroke="rgb(179,179,179)" stroke-linejoin="round" d="M 2561,10858 L 23438,10858"/>
 <path fill="none" stroke="rgb(179,179,179)" stroke-linejoin="round" d="M 2411,10858 L 2561,10858"/>
 <path fill="none" stroke="rgb(179,179,179)" stroke-linejoin="round" d="M 2411,10858 L 2561,10858"/>
 <path fill="none" stroke="rgb(179,179,179)" stroke-linejoin="round" d="M 2411,9330 L 2561,9330"/>
 <path fill="none" stroke="rgb(179,179,179)" stroke-linejoin="round" d="M 2411,9330 L 2561,9330"/>
 <path fill="none" stroke="rgb(179,179,179)" stroke-linejoin="round" d="M 2411,7802 L 2561,7802"/>
 <path fill="none" stroke="rgb(179,179,179)" stroke-linejoin="round" d="M 2411,7802 L 2561,7802"/>
 <path fill="none" stroke="rgb(179,179,179)" stroke-linejoin="round" d="M 2411,6274 L 2561,6274"/>
 <path fill="none" stroke="rgb(179,179,179)" stroke-linejoin="round" d="M 2411,6274 L 2561,6274"/>
 <path fill="none" stroke="rgb(179,179,179)" stroke-linejoin="round" d="M 2411,4746 L 2561,4746"/>
 <path fill="none" stroke="rgb(179,179,179)" stroke-linejoin="round" d="M 2411,4746 L 2561,4746"/>
 <path fill="none" stroke="rgb(179,179,179)" stroke-linejoin="round" d="M 2411,3219 L 2561,3219"/>
 <path fill="none" stroke="rgb(179,179,179)" stroke-linejoin="round" d="M 2411,3219 L 2561,3219"/>
 <path fill="none" stroke="rgb(179,179,179)" stroke-linejoin="round" d="M 2411,1691 L 2561,1691"/>
 <path fill="none" stroke="rgb(179,179,179)" stroke-linejoin="round" d="M 2411,1691 L 2561,1691"/>
 <path fill="none" stroke="rgb(179,179,179)" stroke-linejoin="round" d="M 2561,10858 L 2561,1691"/>
 <path fill="none" stroke="rgb(255,191,0)" stroke-width="80" stroke-linejoin="round" d="M 2622,10857 L 2744,10857 2866,10857 2988,10857 3110,10857 3232,10857 3354,10857 3476,10857 3598,10857 3720,10857 3842,10857 3965,10857 4087,10857 4209,10857 4331,10857 4453,10857 4575,10857 4697,10856 4819,10856 4941,10855 5063,10854 5186,10853 5308,10853 5430,10851 5552,10848 5674,10844 5796,10836 5918,10828 6040,10818 6162,10806 6284,10790 6406,10775 6529,10757 6651,10729 6773,10701 6895,10671 7017,10642 7139,10609 7261,10569 7383,10530 7505,10484 7627,10435 7749,10384 7872,10342 7994,10296 8116,10249 8238,10201 8360,10148 8482,10097 8604,10051 8726,10007 8848,9968 8970,9927 9093,9883 9215,9835 9337,9785 9459,9742 9581,9702 9703,9660 9825,9621 9947,9578 10069,9526 10191,9470 10313,9420 10436,9378 10558,9343 10680,9306 10802,9264 10924,9218 11046,9166 11168,9122 11290,9083 11412,9048 11534,9011 11656,8973 11779,8930 11900,8889 12022,8849 12144,8819 12266,8790 12388,8756 12510,8724 12632,8682 12754,8643 12876,8605 12999,8576 13121,8543 13243,8511 13365,8475 13487,8436 13609,8399 13731,8366 13853,8334 13975,8305 14097,8276 14219,8249 14342,8214 14464,8176 14586,8139 14708,8108 14830,8082 14952,8050 15074,8019 15196,7987 15318,7948 15440,7914 15562,7887 15685,7860 15807,7832 15929,7800 16051,7765 16173,7727 16295,7688 16417,7657 16539,7627 16661,7591 16783,7552 16905,7510 17028,7461 17150,7411 17272,7371 17394,7324 17516,7271 17638,7217 17760,7156 17882,7087 18004,7022 18126,6961 18249,6899 18371,6829 18493,6751 18615,6668 18737,6586 18859,6516 18981,6440 19103,6371 19225,6279 19347,6191 19469,6094 19592,5991 19714,5899 19836,5809 19958,5718 20080,5615 20202,5512 20324,5394 20446,5285 20568,5187 20690,5093 20812,4999 20935,4901 21057,4792 21179,4687 21301,4575 21423,4473 21545,4389 21667,4303 21789,4202 21911,4094 22033,3990 22156,3888 22278,3798 22400,3726 22522,3656 22644,3568 22766,3488 22888,3396 23010,3307 23132,3222 23254,3150 23376,3074"/>
 <path fill="none" stroke="rgb(85,48,141)" stroke-width="80" stroke-linejoin="round" d="M 2622,10857 L 2744,10857 2866,10857 2988,10857 3110,10857 3232,10857 3354,10857 3476,10857 3598,10857 3720,10857 3842,10857 3965,10857 4087,10857 4209,10857 4331,10857 4453,10857 4575,10857 4697,10856 4819,10856 4941,10855 5063,10854 5186,10853 5308,10853 5430,10851 5552,10848 5674,10844 5796,10836 5918,10829 6040,10819 6162,10807 6284,10792 6406,10777 6529,10759 6651,10733 6773,10706 6895,10677 7017,10651 7139,10624 7261,10589 7383,10554 7505,10511 7627,10465 7749,10424 7872,10388 7994,10348 8116,10308 8238,10266 8360,10219 8482,10176 8604,10137 8726,10099 8848,10080 8970,10049 9093,10015 9215,9974 9337,9934 9459,9904 9581,9875 9703,9839 9825,9808 9947,9772 10069,9728 10191,9705 10313,9659 10436,9629 10558,9603 10680,9576 10802,9545 10924,9554 11046,9520 11168,9496 11290,9466 11412,9444 11534,9415 11656,9380 11779,9348 11900,9315 12022,9299 12144,9276 12266,9274 12388,9238 12510,9229 12632,9194 12754,9165 12876,9155 12999,9133 13121,9118 13243,9099 13365,9072 13487,9041 13609,9086 13731,9071 13853,9048 13975,9039 14097,9020 14219,9005 14342,8985 14464,8959 14586,8938 14708,8952 14830,8947 14952,8926 15074,8920 15196,8898 15318,8871 15440,8851 15562,8833 15685,8826 15807,8809 15929,8792 16051,8769 16173,8742 16295,8719 16417,8697 16539,8689 16661,8665 16783,8641 16905,8610 17028,8575 17150,8542 17272,8509 17394,8491 17516,8449 17638,8410 17760,8361 17882,8304 18004,8253 18126,8202 18249,8170 18371,8125 18493,8062 18615,8060 18737,7992 18859,8081 18981,8025 19103,7983 19225,7912 19347,7850 19469,7778 19592,7698 19714,7626 19836,7553 19958,7502 20080,7426 20202,7366 20324,7272 20446,7189 20568,7117 20690,7036 20812,6987 20935,6924 21057,6861 21179,6792 21301,6725 21423,6652 21545,6597 21667,6555 21789,6502 21911,6448 22033,6383 22156,6319 22278,6268 22400,6207 22522,6207 22644,6145 22766,6141 22888,6084 23010,6035 23132,5981 23254,5931 23376,5877"/>
 <path fill="none" stroke="rgb(0,169,51)" stroke-width="80" stroke-linejoin="round" d="M 2622,10857 L 2744,10857 2866,10857 2988,10857 3110,10857 3232,10857 3354,10857 3476,10857 3598,10857 3720,10857 3842,10857 3965,10857 4087,10857 4209,10857 4331,10857 4453,10857 4575,10857 4697,10857 4819,10857 4941,10857 5063,10857 5186,10857 5308,10857 5430,10857 5552,10857 5674,10857 5796,10857 5918,10857 6040,10857 6162,10857 6284,10857 6406,10857 6529,10857 6651,10856 6773,10856 6895,10856 7017,10853 7139,10849 7261,10847 7383,10845 7505,10844 7627,10843 7749,10835 7872,10831 7994,10828 8116,10824 8238,10822 8360,10819 8482,10814 8604,10810 8726,10807 8848,10791 8970,10785 9093,10778 9215,10774 9337,10768 9459,10758 9581,10750 9703,10747 9825,10743 9947,10739 10069,10735 10191,10706 10313,10704 10436,10694 10558,10687 10680,10680 10802,10673 10924,10622 11046,10607 11168,10590 11290,10582 11412,10571 11534,10567 11656,10567 11779,10559 11900,10553 12022,10533 12144,10527 12266,10502 12388,10506 12510,10486 12632,10481 12754,10474 12876,10447 12999,10441 13121,10425 13243,10415 13365,10408 13487,10402 13609,10322 13731,10306 13853,10297 13975,10278 14097,10269 14219,10259 14342,10246 14464,10236 14586,10221 14708,10178 14830,10157 14952,10149 15074,10125 15196,10116 15318,10106 15440,10092 15562,10084 15685,10065 15807,10056 15929,10042 16051,10032 16173,10021 16295,10007 16417,9999 16539,9977 16661,9966 16783,9953 16905,9942 17028,9930 17150,9914 17272,9907 17394,9879 17516,9868 17638,9855 17760,9844 17882,9833 18004,9820 18126,9811 18249,9780 18371,9756 18493,9742 18615,9663 18737,9650 18859,9491 18981,9472 19103,9445 19225,9427 19347,9401 19469,9377 19592,9355 19714,9336 19836,9320 19958,9281 20080,9254 20202,9214 20324,9191 20446,9166 20568,9142 20690,9129 20812,9085 20935,9051 21057,9007 21179,8973 21301,8930 21423,8903 21545,8874 21667,8832 21789,8787 21911,8734 22033,8697 22156,8660 22278,8624 22400,8613 22522,8545 22644,8521 22766,8447 22888,8415 23010,8376 23132,8347 23254,8326 23376,8305"/>
 <text class="TextShape" transform="rotate(-90 2748 12062)"><tspan class="TextParagraph" font-family="Liberation Sans, sans-serif" font-size="388px" font-weight="400"><tspan class="TextPosition" x="2748" y="12062"><tspan fill="rgb(0,0,0)" stroke="none">22.02</tspan></tspan></tspan></text>
 <text class="TextShape" transform="rotate(-90 3602 12062)"><tspan class="TextParagraph" font-family="Liberation Sans, sans-serif" font-size="388px" font-weight="400"><tspan class="TextPosition" x="3602" y="12062"><tspan fill="rgb(0,0,0)" stroke="none">29.02</tspan></tspan></tspan></text>
 <text class="TextShape" transform="rotate(-90 4457 12062)"><tspan class="TextParagraph" font-family="Liberation Sans, sans-serif" font-size="388px" font-weight="400"><tspan class="TextPosition" x="4457" y="12062"><tspan fill="rgb(0,0,0)" stroke="none">07.03</tspan></tspan></tspan></text>
 <text class="TextShape" transform="rotate(-90 5312 12062)"><tspan class="TextParagraph" font-family="Liberation Sans, sans-serif" font-size="388px" font-weight="400"><tspan class="TextPosition" x="5312" y="12062"><tspan fill="rgb(0,0,0)" stroke="none">14.03</tspan></tspan></tspan></text>
 <text class="TextShape" transform="rotate(-90 6166 12062)"><tspan class="TextParagraph" font-family="Liberation Sans, sans-serif" font-size="388px" font-weight="400"><tspan class="TextPosition" x="6166" y="12062"><tspan fill="rgb(0,0,0)" stroke="none">21.03</tspan></tspan></tspan></text>
 <text class="TextShape" transform="rotate(-90 7021 12062)"><tspan class="TextParagraph" font-family="Liberation Sans, sans-serif" font-size="388px" font-weight="400"><tspan class="TextPosition" x="7021" y="12062"><tspan fill="rgb(0,0,0)" stroke="none">28.03</tspan></tspan></tspan></text>
 <text class="TextShape" transform="rotate(-90 7875 12062)"><tspan class="TextParagraph" font-family="Liberation Sans, sans-serif" font-size="388px" font-weight="400"><tspan class="TextPosition" x="7875" y="12062"><tspan fill="rgb(0,0,0)" stroke="none">04.04</tspan></tspan></tspan></text>
 <text class="TextShape" transform="rotate(-90 8730 12062)"><tspan class="TextParagraph" font-family="Liberation Sans, sans-serif" font-size="388px" font-weight="400"><tspan class="TextPosition" x="8730" y="12062"><tspan fill="rgb(0,0,0)" stroke="none">11.04</tspan></tspan></tspan></text>
 <text class="TextShape" transform="rotate(-90 9585 12062)"><tspan class="TextParagraph" font-family="Liberation Sans, sans-serif" font-size="388px" font-weight="400"><tspan class="TextPosition" x="9585" y="12062"><tspan fill="rgb(0,0,0)" stroke="none">18.04</tspan></tspan></tspan></text>
 <text class="TextShape" transform="rotate(-90 10439 12062)"><tspan class="TextParagraph" font-family="Liberation Sans, sans-serif" font-size="388px" font-weight="400"><tspan class="TextPosition" x="10439" y="12062"><tspan fill="rgb(0,0,0)" stroke="none">25.04</tspan></tspan></tspan></text>
 <text class="TextShape" transform="rotate(-90 11294 12062)"><tspan class="TextParagraph" font-family="Liberation Sans, sans-serif" font-size="388px" font-weight="400"><tspan class="TextPosition" x="11294" y="12062"><tspan fill="rgb(0,0,0)" stroke="none">02.05</tspan></tspan></tspan></text>
 <text class="TextShape" transform="rotate(-90 12148 12062)"><tspan class="TextParagraph" font-family="Liberation Sans, sans-serif" font-size="388px" font-weight="400"><tspan class="TextPosition" x="12148" y="12062"><tspan fill="rgb(0,0,0)" stroke="none">09.05</tspan></tspan></tspan></text>
 <text class="TextShape" transform="rotate(-90 13002 12062)"><tspan class="TextParagraph" font-family="Liberation Sans, sans-serif" font-size="388px" font-weight="400"><tspan class="TextPosition" x="13002" y="12062"><tspan fill="rgb(0,0,0)" stroke="none">16.05</tspan></tspan></tspan></text>
 <text class="TextShape" transform="rotate(-90 13857 12062)"><tspan class="TextParagraph" font-family="Liberation Sans, sans-serif" font-size="388px" font-weight="400"><tspan class="TextPosition" x="13857" y="12062"><tspan fill="rgb(0,0,0)" stroke="none">23.05</tspan></tspan></tspan></text>
 <text class="TextShape" transform="rotate(-90 14712 12062)"><tspan class="TextParagraph" font-family="Liberation Sans, sans-serif" font-size="388px" font-weight="400"><tspan class="TextPosition" x="14712" y="12062"><tspan fill="rgb(0,0,0)" stroke="none">30.05</tspan></tspan></tspan></text>
 <text class="TextShape" transform="rotate(-90 15566 12062)"><tspan class="TextParagraph" font-family="Liberation Sans, sans-serif" font-size="388px" font-weight="400"><tspan class="TextPosition" x="15566" y="12062"><tspan fill="rgb(0,0,0)" stroke="none">06.06</tspan></tspan></tspan></text>
 <text class="TextShape" transform="rotate(-90 16421 12062)"><tspan class="TextParagraph" font-family="Liberation Sans, sans-serif" font-size="388px" font-weight="400"><tspan class="TextPosition" x="16421" y="12062"><tspan fill="rgb(0,0,0)" stroke="none">13.06</tspan></tspan></tspan></text>
 <text class="TextShape" transform="rotate(-90 17276 12062)"><tspan class="TextParagraph" font-family="Liberation Sans, sans-serif" font-size="388px" font-weight="400"><tspan class="TextPosition" x="17276" y="12062"><tspan fill="rgb(0,0,0)" stroke="none">20.06</tspan></tspan></tspan></text>
 <text class="TextShape" transform="rotate(-90 18130 12062)"><tspan class="TextParagraph" font-family="Liberation Sans, sans-serif" font-size="388px" font-weight="400"><tspan class="TextPosition" x="18130" y="12062"><tspan fill="rgb(0,0,0)" stroke="none">27.06</tspan></tspan></tspan></text>
 <text class="TextShape" transform="rotate(-90 18985 12062)"><tspan class="TextParagraph" font-family="Liberation Sans, sans-serif" font-size="388px" font-weight="400"><tspan class="TextPosition" x="18985" y="12062"><tspan fill="rgb(0,0,0)" stroke="none">04.07</tspan></tspan></tspan></text>
 <text class="TextShape" transform="rotate(-90 19840 12062)"><tspan class="TextParagraph" font-family="Liberation Sans, sans-serif" font-size="388px" font-weight="400"><tspan class="TextPosition" x="19840" y="12062"><tspan fill="rgb(0,0,0)" stroke="none">11.07</tspan></tspan></tspan></text>
 <text class="TextShape" transform="rotate(-90 20694 12062)"><tspan class="TextParagraph" font-family="Liberation Sans, sans-serif" font-size="388px" font-weight="400"><tspan class="TextPosition" x="20694" y="12062"><tspan fill="rgb(0,0,0)" stroke="none">18.07</tspan></tspan></tspan></text>
 <text class="TextShape" transform="rotate(-90 21549 12062)"><tspan class="TextParagraph" font-family="Liberation Sans, sans-serif" font-size="388px" font-weight="400"><tspan class="TextPosition" x="21549" y="12062"><tspan fill="rgb(0,0,0)" stroke="none">25.07</tspan></tspan></tspan></text>
 <text class="TextShape" transform="rotate(-90 22404 12062)"><tspan class="TextParagraph" font-family="Liberation Sans, sans-serif" font-size="388px" font-weight="400"><tspan class="TextPosition" x="22404" y="12062"><tspan fill="rgb(0,0,0)" stroke="none">01.08</tspan></tspan></tspan></text>
 <text class="TextShape" transform="rotate(-90 23258 12062)"><tspan class="TextParagraph" font-family="Liberation Sans, sans-serif" font-size="388px" font-weight="400"><tspan class="TextPosition" x="23258" y="12062"><tspan fill="rgb(0,0,0)" stroke="none">08.08</tspan></tspan></tspan></text>
 <text class="TextShape"><tspan class="TextParagraph" font-family="Liberation Sans, sans-serif" font-size="388px" font-weight="400"><tspan class="TextPosition" x="2099" y="10986"><tspan fill="rgb(0,0,0)" stroke="none">0</tspan></tspan></tspan></text>
 <text class="TextShape"><tspan class="TextParagraph" font-family="Liberation Sans, sans-serif" font-size="388px" font-weight="400"><tspan class="TextPosition" x="618" y="9458"><tspan fill="rgb(0,0,0)" stroke="none">1 000 000</tspan></tspan></tspan></text>
 <text class="TextShape"><tspan class="TextParagraph" font-family="Liberation Sans, sans-serif" font-size="388px" font-weight="400"><tspan class="TextPosition" x="618" y="7930"><tspan fill="rgb(0,0,0)" stroke="none">2 000 000</tspan></tspan></tspan></text>
 <text class="TextShape"><tspan class="TextParagraph" font-family="Liberation Sans, sans-serif" font-size="388px" font-weight="400"><tspan class="TextPosition" x="618" y="6402"><tspan fill="rgb(0,0,0)" stroke="none">3 000 000</tspan></tspan></tspan></text>
 <text class="TextShape"><tspan class="TextParagraph" font-family="Liberation Sans, sans-serif" font-size="388px" font-weight="400"><tspan class="TextPosition" x="618" y="4873"><tspan fill="rgb(0,0,0)" stroke="none">4 000 000</tspan></tspan></tspan></text>
 <text class="TextShape"><tspan class="TextParagraph" font-family="Liberation Sans, sans-serif" font-size="388px" font-weight="400"><tspan class="TextPosition" x="618" y="3346"><tspan fill="rgb(0,0,0)" stroke="none">5 000 000</tspan></tspan></tspan></text>
 <text class="TextShape"><tspan class="TextParagraph" font-family="Liberation Sans, sans-serif" font-size="388px" font-weight="400"><tspan class="TextPosition" x="618" y="1818"><tspan fill="rgb(0,0,0)" stroke="none">6 000 000</tspan></tspan></tspan></text>
 <text class="TextShape"><tspan class="TextParagraph" font-family="Liberation Sans, sans-serif" font-size="494px" font-weight="700"><tspan class="TextPosition" x="389" y="698"><tspan fill="rgb(0,0,0)" stroke="none">USA</tspan></tspan></tspan></text>
 <path fill="none" stroke="rgb(255,191,0)" stroke-width="80" stroke-linejoin="round" d="M 998,1106 L 1798,1106"/>
 <path fill="none" stroke="rgb(85,48,141)" stroke-width="80" stroke-linejoin="round" d="M 8932,1106 L 9732,1106"/>
 <path fill="none" stroke="rgb(0,169,51)" stroke-width="80" stroke-linejoin="round" d="M 16082,1106 L 16882,1106"/>
 <text class="TextShape"><tspan class="TextParagraph" font-family="Liberation Sans, sans-serif" font-size="494px" font-weight="400"><tspan class="TextPosition" x="1906" y="1275"><tspan fill="rgb(0,0,0)" stroke="none">celkový počet infikovaných</tspan></tspan></tspan></text>
 <text class="TextShape"><tspan class="TextParagraph" font-family="Liberation Sans, sans-serif" font-size="494px" font-weight="400"><tspan class="TextPosition" x="9840" y="1275"><tspan fill="rgb(0,0,0)" stroke="none">počet aktivních případů</tspan></tspan></tspan></text>
 <text class="TextShape"><tspan class="TextParagraph" font-family="Liberation Sans, sans-serif" font-size="494px" font-weight="400"><tspan class="TextPosition" x="16990" y="1275"><tspan fill="rgb(0,0,0)" stroke="none">celkový počet vyléčených</tspan></tspan></tspan></text>
</svg>