<?xml version="1.0" encoding="UTF-8"?>
<!DOCTYPE svg PUBLIC "-//W3C//DTD SVG 1.1//EN" "http://www.w3.org/Graphics/SVG/1.1/DTD/svg11.dtd">
<svg width="236mm" height="125mm" viewBox="0 0 23600 12500" version="1.1" xmlns="http://www.w3.org/2000/svg" xmlns:xlink="http://www.w3.org/1999/xlink" stroke-width="28.222" stroke-linejoin="round" xml:space="preserve">
 <path fill="rgb(255,255,255)" stroke="none" d="M 11800,12500 L 0,12500 0,0 23600,0 23600,12500 11800,12500 Z"/>
 <path fill="none" stroke="rgb(179,179,179)" stroke-linejoin="round" d="M 12568,10855 L 1757,10855 1757,1692 23380,1692 23380,10855 12568,10855 Z"/>
 <path fill="none" stroke="rgb(179,179,179)" stroke-linejoin="round" d="M 23380,10854 L 1757,10854"/>
 <path fill="none" stroke="rgb(179,179,179)" stroke-linejoin="round" d="M 23380,9937 L 1757,9937"/>
 <path fill="none" stroke="rgb(179,179,179)" stroke-linejoin="round" d="M 23380,9021 L 1757,9021"/>
 <path fill="none" stroke="rgb(179,179,179)" stroke-linejoin="round" d="M 23380,8104 L 1757,8104"/>
 <path fill="none" stroke="rgb(179,179,179)" stroke-linejoin="round" d="M 23380,7188 L 1757,7188"/>
 <path fill="none" stroke="rgb(179,179,179)" stroke-linejoin="round" d="M 23380,6272 L 1757,6272"/>
 <path fill="none" stroke="rgb(179,179,179)" stroke-linejoin="round" d="M 23380,5356 L 1757,5356"/>
 <path fill="none" stroke="rgb(179,179,179)" stroke-linejoin="round" d="M 23380,4440 L 1757,4440"/>
 <path fill="none" stroke="rgb(179,179,179)" stroke-linejoin="round" d="M 23380,3523 L 1757,3523"/>
 <path fill="none" stroke="rgb(179,179,179)" stroke-linejoin="round" d="M 23380,2607 L 1757,2607"/>
 <path fill="none" stroke="rgb(179,179,179)" stroke-linejoin="round" d="M 23380,1691 L 1757,1691"/>
 <path fill="none" stroke="rgb(179,179,179)" stroke-linejoin="round" d="M 1757,11004 L 1757,10854"/>
 <path fill="none" stroke="rgb(179,179,179)" stroke-linejoin="round" d="M 1757,11004 L 1757,10854"/>
 <path fill="none" stroke="rgb(179,179,179)" stroke-linejoin="round" d="M 2739,11004 L 2739,10854"/>
 <path fill="none" stroke="rgb(179,179,179)" stroke-linejoin="round" d="M 2739,11004 L 2739,10854"/>
 <path fill="none" stroke="rgb(179,179,179)" stroke-linejoin="round" d="M 3722,11004 L 3722,10854"/>
 <path fill="none" stroke="rgb(179,179,179)" stroke-linejoin="round" d="M 3722,11004 L 3722,10854"/>
 <path fill="none" stroke="rgb(179,179,179)" stroke-linejoin="round" d="M 4705,11004 L 4705,10854"/>
 <path fill="none" stroke="rgb(179,179,179)" stroke-linejoin="round" d="M 4705,11004 L 4705,10854"/>
 <path fill="none" stroke="rgb(179,179,179)" stroke-linejoin="round" d="M 5688,11004 L 5688,10854"/>
 <path fill="none" stroke="rgb(179,179,179)" stroke-linejoin="round" d="M 5688,11004 L 5688,10854"/>
 <path fill="none" stroke="rgb(179,179,179)" stroke-linejoin="round" d="M 6671,11004 L 6671,10854"/>
 <path fill="none" stroke="rgb(179,179,179)" stroke-linejoin="round" d="M 6671,11004 L 6671,10854"/>
 <path fill="none" stroke="rgb(179,179,179)" stroke-linejoin="round" d="M 7654,11004 L 7654,10854"/>
 <path fill="none" stroke="rgb(179,179,179)" stroke-linejoin="round" d="M 7654,11004 L 7654,10854"/>
 <path fill="none" stroke="rgb(179,179,179)" stroke-linejoin="round" d="M 8637,11004 L 8637,10854"/>
 <path fill="none" stroke="rgb(179,179,179)" stroke-linejoin="round" d="M 8637,11004 L 8637,10854"/>
 <path fill="none" stroke="rgb(179,179,179)" stroke-linejoin="round" d="M 9620,11004 L 9620,10854"/>
 <path fill="none" stroke="rgb(179,179,179)" stroke-linejoin="round" d="M 9620,11004 L 9620,10854"/>
 <path fill="none" stroke="rgb(179,179,179)" stroke-linejoin="round" d="M 10603,11004 L 10603,10854"/>
 <path fill="none" stroke="rgb(179,179,179)" stroke-linejoin="round" d="M 10603,11004 L 10603,10854"/>
 <path fill="none" stroke="rgb(179,179,179)" stroke-linejoin="round" d="M 11586,11004 L 11586,10854"/>
 <path fill="none" stroke="rgb(179,179,179)" stroke-linejoin="round" d="M 11586,11004 L 11586,10854"/>
 <path fill="none" stroke="rgb(179,179,179)" stroke-linejoin="round" d="M 12568,11004 L 12568,10854"/>
 <path fill="none" stroke="rgb(179,179,179)" stroke-linejoin="round" d="M 12568,11004 L 12568,10854"/>
 <path fill="none" stroke="rgb(179,179,179)" stroke-linejoin="round" d="M 13550,11004 L 13550,10854"/>
 <path fill="none" stroke="rgb(179,179,179)" stroke-linejoin="round" d="M 13550,11004 L 13550,10854"/>
 <path fill="none" stroke="rgb(179,179,179)" stroke-linejoin="round" d="M 14533,11004 L 14533,10854"/>
 <path fill="none" stroke="rgb(179,179,179)" stroke-linejoin="round" d="M 14533,11004 L 14533,10854"/>
 <path fill="none" stroke="rgb(179,179,179)" stroke-linejoin="round" d="M 15516,11004 L 15516,10854"/>
 <path fill="none" stroke="rgb(179,179,179)" stroke-linejoin="round" d="M 15516,11004 L 15516,10854"/>
 <path fill="none" stroke="rgb(179,179,179)" stroke-linejoin="round" d="M 16499,11004 L 16499,10854"/>
 <path fill="none" stroke="rgb(179,179,179)" stroke-linejoin="round" d="M 16499,11004 L 16499,10854"/>
 <path fill="none" stroke="rgb(179,179,179)" stroke-linejoin="round" d="M 17482,11004 L 17482,10854"/>
 <path fill="none" stroke="rgb(179,179,179)" stroke-linejoin="round" d="M 17482,11004 L 17482,10854"/>
 <path fill="none" stroke="rgb(179,179,179)" stroke-linejoin="round" d="M 18465,11004 L 18465,10854"/>
 <path fill="none" stroke="rgb(179,179,179)" stroke-linejoin="round" d="M 18465,11004 L 18465,10854"/>
 <path fill="none" stroke="rgb(179,179,179)" stroke-linejoin="round" d="M 19448,11004 L 19448,10854"/>
 <path fill="none" stroke="rgb(179,179,179)" stroke-linejoin="round" d="M 19448,11004 L 19448,10854"/>
 <path fill="none" stroke="rgb(179,179,179)" stroke-linejoin="round" d="M 20431,11004 L 20431,10854"/>
 <path fill="none" stroke="rgb(179,179,179)" stroke-linejoin="round" d="M 20431,11004 L 20431,10854"/>
 <path fill="none" stroke="rgb(179,179,179)" stroke-linejoin="round" d="M 21414,11004 L 21414,10854"/>
 <path fill="none" stroke="rgb(179,179,179)" stroke-linejoin="round" d="M 21414,11004 L 21414,10854"/>
 <path fill="none" stroke="rgb(179,179,179)" stroke-linejoin="round" d="M 22397,11004 L 22397,10854"/>
 <path fill="none" stroke="rgb(179,179,179)" stroke-linejoin="round" d="M 22397,11004 L 22397,10854"/>
 <path fill="none" stroke="rgb(179,179,179)" stroke-linejoin="round" d="M 23380,11004 L 23380,10854"/>
 <path fill="none" stroke="rgb(179,179,179)" stroke-linejoin="round" d="M 23380,11004 L 23380,10854"/>
 <path fill="none" stroke="rgb(179,179,179)" stroke-linejoin="round" d="M 1757,10854 L 23380,10854"/>
 <path fill="none" stroke="rgb(179,179,179)" stroke-linejoin="round" d="M 1607,10854 L 1757,10854"/>
 <path fill="none" stroke="rgb(179,179,179)" stroke-linejoin="round" d="M 1607,10854 L 1757,10854"/>
 <path fill="none" stroke="rgb(179,179,179)" stroke-linejoin="round" d="M 1607,9937 L 1757,9937"/>
 <path fill="none" stroke="rgb(179,179,179)" stroke-linejoin="round" d="M 1607,9937 L 1757,9937"/>
 <path fill="none" stroke="rgb(179,179,179)" stroke-linejoin="round" d="M 1607,9021 L 1757,9021"/>
 <path fill="none" stroke="rgb(179,179,179)" stroke-linejoin="round" d="M 1607,9021 L 1757,9021"/>
 <path fill="none" stroke="rgb(179,179,179)" stroke-linejoin="round" d="M 1607,8104 L 1757,8104"/>
 <path fill="none" stroke="rgb(179,179,179)" stroke-linejoin="round" d="M 1607,8104 L 1757,8104"/>
 <path fill="none" stroke="rgb(179,179,179)" stroke-linejoin="round" d="M 1607,7188 L 1757,7188"/>
 <path fill="none" stroke="rgb(179,179,179)" stroke-linejoin="round" d="M 1607,7188 L 1757,7188"/>
 <path fill="none" stroke="rgb(179,179,179)" stroke-linejoin="round" d="M 1607,6272 L 1757,6272"/>
 <path fill="none" stroke="rgb(179,179,179)" stroke-linejoin="round" d="M 1607,6272 L 1757,6272"/>
 <path fill="none" stroke="rgb(179,179,179)" stroke-linejoin="round" d="M 1607,5356 L 1757,5356"/>
 <path fill="none" stroke="rgb(179,179,179)" stroke-linejoin="round" d="M 1607,5356 L 1757,5356"/>
 <path fill="none" stroke="rgb(179,179,179)" stroke-linejoin="round" d="M 1607,4440 L 1757,4440"/>
 <path fill="none" stroke="rgb(179,179,179)" stroke-linejoin="round" d="M 1607,4440 L 1757,4440"/>
 <path fill="none" stroke="rgb(179,179,179)" stroke-linejoin="round" d="M 1607,3523 L 1757,3523"/>
 <path fill="none" stroke="rgb(179,179,179)" stroke-linejoin="round" d="M 1607,3523 L 1757,3523"/>
 <path fill="none" stroke="rgb(179,179,179)" stroke-linejoin="round" d="M 1607,2607 L 1757,2607"/>
 <path fill="none" stroke="rgb(179,179,179)" stroke-linejoin="round" d="M 1607,2607 L 1757,2607"/>
 <path fill="none" stroke="rgb(179,179,179)" stroke-linejoin="round" d="M 1607,1691 L 1757,1691"/>
 <path fill="none" stroke="rgb(179,179,179)" stroke-linejoin="round" d="M 1607,1691 L 1757,1691"/>
 <path fill="none" stroke="rgb(179,179,179)" stroke-linejoin="round" d="M 1757,10854 L 1757,1691"/>
 <path fill="none" stroke="rgb(255,191,0)" stroke-width="80" stroke-linejoin="round" d="M 1827,10839 L 1967,10839 2108,10835 2248,10812 2388,10810 2529,10789 2669,10767 2810,10738 2950,10717 3090,10672 3231,10641 3371,10536 3512,10472 3652,10398 3793,10340 3933,10287 4073,10215 4214,10096 4354,9971 4495,9809 4635,9648 4775,9563 4916,9478 5056,9338 5197,9246 5337,9086 5478,8979 5618,8804 5758,8752 5899,8644 6039,8555 6180,8420 6320,8302 6460,8227 6601,8182 6741,8108 6882,8077 7022,8053 7163,8005 7303,7906 7443,7853 7584,7827 7724,7762 7865,7692 8005,7631 8145,7586 8286,7560 8426,7521 8567,7485 8707,7461 8847,7442 8988,7415 9128,7381 9269,7334 9409,7308 9550,7300 9690,7288 9830,7271 9971,7236 10111,7200 10252,7174 10392,7153 10532,7144 10673,7132 10813,7107 10954,7087 11094,7065 11235,7027 11375,7002 11515,6979 11656,6970 11796,6919 11936,6891 12076,6858 12216,6842 12357,6815 12497,6780 12638,6750 12778,6729 12919,6707 13059,6690 13199,6666 13340,6640 13480,6624 13621,6607 13761,6591 13901,6563 14042,6529 14182,6503 14323,6487 14463,6470 14604,6442 14744,6410 14884,6386 15025,6352 15165,6338 15306,6300 15446,6276 15586,6261 15727,6243 15867,6222 16008,6198 16148,6144 16289,6086 16429,6067 16569,6044 16710,6033 16850,5975 16991,5916 17131,5874 17271,5797 17412,5678 17552,5538 17693,5445 17833,5377 17974,5335 18114,5275 18254,5210 18395,5154 18535,5120 18676,5097 18816,5042 18956,4983 19097,4935 19237,4897 19378,4845 19518,4818 19658,4789 19799,4742 19939,4680 20080,4617 20220,4558 20361,4506 20501,4465 20641,4395 20782,4291 20922,4179 21063,4073 21203,3944 21343,3884 21484,3833 21624,3745 21765,3615 21905,3481 22046,3353 22186,3260 22326,3203 22467,3157 22607,3061 22748,2934 22888,2823 23028,2730 23169,2579 23309,2499"/>
 <path fill="none" stroke="rgb(85,48,141)" stroke-width="80" stroke-linejoin="round" d="M 1827,10839 L 1967,10839 2108,10835 2248,10812 2388,10810 2529,10789 2669,10767 2810,10738 2950,10718 3090,10673 3231,10642 3371,10537 3512,10474 3652,10400 3793,10344 3933,10290 4073,10221 4214,10103 4354,9980 4495,9818 4635,9658 4775,9575 4916,9500 5056,9373 5197,9292 5337,9137 5478,9036 5618,8867 5758,8826 5899,8735 6039,8674 6180,8572 6320,8491 6460,8440 6601,8429 6741,8384 6882,8381 7022,8421 7163,8457 7303,8429 7443,8470 7584,8472 7724,8442 7865,8495 8005,8526 8145,8592 8286,8643 8426,8705 8567,8709 8707,8728 8847,8839 8988,8870 9128,8909 9269,8960 9409,8963 9550,8998 9690,9045 9830,9131 9971,9189 10111,9247 10252,9300 10392,9300 10532,9308 10673,9310 10813,9395 10954,9456 11094,9510 11235,9563 11375,9603 11515,9599 11656,9609 11796,9640 11936,9653 12076,9668 12216,9698 12357,9719 12497,9693 12638,9680 12778,9707 12919,9725 13059,9754 13199,9772 13340,9764 13480,9770 13621,9758 13761,9782 13901,9774 14042,9770 14182,9773 14323,9790 14463,9774 14604,9749 14744,9765 14884,9768 15025,9762 15165,9772 15306,9757 15446,9734 15586,9722 15727,9736 15867,9744 16008,9740 16148,9705 16289,9663 16429,9646 16569,9633 16710,9639 16850,9591 16991,9549 17131,9536 17271,9469 17412,9357 17552,9227 17693,9153 17833,9097 17974,9067 18114,9019 18254,8967 18395,8912 18535,8882 18676,8864 18816,8826 18956,8813 19097,8820 19237,8819 19378,8775 19518,8757 19658,8786 19799,8771 19939,8740 20080,8738 20220,8719 20361,8671 20501,8643 20641,8607 20782,8541 20922,8534 21063,8513 21203,8430 21343,8447 21484,9238 21624,9151 21765,9022 21905,8888 22046,8787 22186,8735 22326,8687 22467,8649 22607,8602 22748,8521 22888,8456 23028,8553 23169,8598 23309,8525"/>
 <path fill="none" stroke="rgb(0,169,51)" stroke-width="80" stroke-linejoin="round" d="M 1827,10854 L 1967,10854 2108,10854 2248,10854 2388,10854 2529,10854 2669,10854 2810,10854 2950,10852 3090,10852 3231,10852 3371,10852 3512,10852 3652,10851 3793,10851 3933,10851 4073,10849 4214,10849 4354,10849 4495,10848 4635,10848 4775,10848 4916,10842 5056,10833 5197,10826 5337,10823 5478,10821 5618,10818 5758,10810 5899,10798 6039,10775 6180,10747 6320,10716 6460,10695 6601,10665 6741,10641 6882,10616 7022,10559 7163,10478 7303,10408 7443,10316 7584,10291 7724,10259 7865,10139 8005,10050 8145,9942 8286,9867 8426,9767 8567,9730 8707,9687 8847,9559 8988,9503 9128,9429 9269,9335 9409,9308 9550,9268 9690,9210 9830,9109 9971,9018 10111,8927 10252,8851 10392,8831 10532,8816 10673,8804 10813,8695 10954,8613 11094,8541 11235,8452 11375,8388 11515,8369 11656,8351 11796,8269 11936,8230 12076,8182 12216,8138 12357,8093 12497,8084 12638,8069 12778,8021 12919,7981 13059,7935 13199,7894 13340,7875 13480,7854 13621,7849 13761,7810 13901,7790 14042,7761 14182,7734 14323,7701 14463,7699 14604,7696 14744,7649 14884,7622 15025,7595 15165,7570 15306,7548 15446,7546 15586,7543 15727,7510 15867,7482 16008,7463 16148,7444 16289,7429 16429,7428 16569,7417 16710,7400 16850,7392 16991,7377 17131,7349 17271,7340 17412,7334 17552,7323 17693,7304 17833,7293 17974,7281 18114,7269 18254,7258 18395,7256 18535,7250 18676,7246 18816,7229 18956,7183 19097,7129 19237,7093 19378,7084 19518,7075 19658,7017 19799,6986 19939,6956 20080,6895 20220,6856 20361,6852 20501,6839 20641,6805 20782,6767 20922,6664 21063,6579 21203,6536 21343,6459 21484,5618 21624,5618 21765,5618 21905,5618 22046,5593 22186,5554 22326,5545 22467,5537 22607,5490 22748,5442 22888,5398 23028,5209 23169,5013 23309,5006"/>
 <text class="TextShape" transform="rotate(-90 1953 12058)"><tspan class="TextParagraph" font-family="Liberation Sans, sans-serif" font-size="388px" font-weight="400"><tspan class="TextPosition" x="1953" y="12058"><tspan fill="rgb(0,0,0)" stroke="none">08.03</tspan></tspan></tspan></text>
 <text class="TextShape" transform="rotate(-90 2936 12058)"><tspan class="TextParagraph" font-family="Liberation Sans, sans-serif" font-size="388px" font-weight="400"><tspan class="TextPosition" x="2936" y="12058"><tspan fill="rgb(0,0,0)" stroke="none">15.03</tspan></tspan></tspan></text>
 <text class="TextShape" transform="rotate(-90 3919 12058)"><tspan class="TextParagraph" font-family="Liberation Sans, sans-serif" font-size="388px" font-weight="400"><tspan class="TextPosition" x="3919" y="12058"><tspan fill="rgb(0,0,0)" stroke="none">22.03</tspan></tspan></tspan></text>
 <text class="TextShape" transform="rotate(-90 4901 12058)"><tspan class="TextParagraph" font-family="Liberation Sans, sans-serif" font-size="388px" font-weight="400"><tspan class="TextPosition" x="4901" y="12058"><tspan fill="rgb(0,0,0)" stroke="none">29.03</tspan></tspan></tspan></text>
 <text class="TextShape" transform="rotate(-90 5884 12058)"><tspan class="TextParagraph" font-family="Liberation Sans, sans-serif" font-size="388px" font-weight="400"><tspan class="TextPosition" x="5884" y="12058"><tspan fill="rgb(0,0,0)" stroke="none">05.04</tspan></tspan></tspan></text>
 <text class="TextShape" transform="rotate(-90 6867 12058)"><tspan class="TextParagraph" font-family="Liberation Sans, sans-serif" font-size="388px" font-weight="400"><tspan class="TextPosition" x="6867" y="12058"><tspan fill="rgb(0,0,0)" stroke="none">12.04</tspan></tspan></tspan></text>
 <text class="TextShape" transform="rotate(-90 7850 12058)"><tspan class="TextParagraph" font-family="Liberation Sans, sans-serif" font-size="388px" font-weight="400"><tspan class="TextPosition" x="7850" y="12058"><tspan fill="rgb(0,0,0)" stroke="none">19.04</tspan></tspan></tspan></text>
 <text class="TextShape" transform="rotate(-90 8833 12058)"><tspan class="TextParagraph" font-family="Liberation Sans, sans-serif" font-size="388px" font-weight="400"><tspan class="TextPosition" x="8833" y="12058"><tspan fill="rgb(0,0,0)" stroke="none">26.04</tspan></tspan></tspan></text>
 <text class="TextShape" transform="rotate(-90 9816 12058)"><tspan class="TextParagraph" font-family="Liberation Sans, sans-serif" font-size="388px" font-weight="400"><tspan class="TextPosition" x="9816" y="12058"><tspan fill="rgb(0,0,0)" stroke="none">03.05</tspan></tspan></tspan></text>
 <text class="TextShape" transform="rotate(-90 10799 12058)"><tspan class="TextParagraph" font-family="Liberation Sans, sans-serif" font-size="388px" font-weight="400"><tspan class="TextPosition" x="10799" y="12058"><tspan fill="rgb(0,0,0)" stroke="none">10.05</tspan></tspan></tspan></text>
 <text class="TextShape" transform="rotate(-90 11782 12058)"><tspan class="TextParagraph" font-family="Liberation Sans, sans-serif" font-size="388px" font-weight="400"><tspan class="TextPosition" x="11782" y="12058"><tspan fill="rgb(0,0,0)" stroke="none">17.05</tspan></tspan></tspan></text>
 <text class="TextShape" transform="rotate(-90 12764 12058)"><tspan class="TextParagraph" font-family="Liberation Sans, sans-serif" font-size="388px" font-weight="400"><tspan class="TextPosition" x="12764" y="12058"><tspan fill="rgb(0,0,0)" stroke="none">24.05</tspan></tspan></tspan></text>
 <text class="TextShape" transform="rotate(-90 13747 12058)"><tspan class="TextParagraph" font-family="Liberation Sans, sans-serif" font-size="388px" font-weight="400"><tspan class="TextPosition" x="13747" y="12058"><tspan fill="rgb(0,0,0)" stroke="none">31.05</tspan></tspan></tspan></text>
 <text class="TextShape" transform="rotate(-90 14730 12058)"><tspan class="TextParagraph" font-family="Liberation Sans, sans-serif" font-size="388px" font-weight="400"><tspan class="TextPosition" x="14730" y="12058"><tspan fill="rgb(0,0,0)" stroke="none">07.06</tspan></tspan></tspan></text>
 <text class="TextShape" transform="rotate(-90 15712 12058)"><tspan class="TextParagraph" font-family="Liberation Sans, sans-serif" font-size="388px" font-weight="400"><tspan class="TextPosition" x="15712" y="12058"><tspan fill="rgb(0,0,0)" stroke="none">14.06</tspan></tspan></tspan></text>
 <text class="TextShape" transform="rotate(-90 16695 12058)"><tspan class="TextParagraph" font-family="Liberation Sans, sans-serif" font-size="388px" font-weight="400"><tspan class="TextPosition" x="16695" y="12058"><tspan fill="rgb(0,0,0)" stroke="none">21.06</tspan></tspan></tspan></text>
 <text class="TextShape" transform="rotate(-90 17678 12058)"><tspan class="TextParagraph" font-family="Liberation Sans, sans-serif" font-size="388px" font-weight="400"><tspan class="TextPosition" x="17678" y="12058"><tspan fill="rgb(0,0,0)" stroke="none">28.06</tspan></tspan></tspan></text>
 <text class="TextShape" transform="rotate(-90 18661 12058)"><tspan class="TextParagraph" font-family="Liberation Sans, sans-serif" font-size="388px" font-weight="400"><tspan class="TextPosition" x="18661" y="12058"><tspan fill="rgb(0,0,0)" stroke="none">05.07</tspan></tspan></tspan></text>
 <text class="TextShape" transform="rotate(-90 19644 12058)"><tspan class="TextParagraph" font-family="Liberation Sans, sans-serif" font-size="388px" font-weight="400"><tspan class="TextPosition" x="19644" y="12058"><tspan fill="rgb(0,0,0)" stroke="none">12.07</tspan></tspan></tspan></text>
 <text class="TextShape" transform="rotate(-90 20627 12058)"><tspan class="TextParagraph" font-family="Liberation Sans, sans-serif" font-size="388px" font-weight="400"><tspan class="TextPosition" x="20627" y="12058"><tspan fill="rgb(0,0,0)" stroke="none">19.07</tspan></tspan></tspan></text>
 <text class="TextShape" transform="rotate(-90 21610 12058)"><tspan class="TextParagraph" font-family="Liberation Sans, sans-serif" font-size="388px" font-weight="400"><tspan class="TextPosition" x="21610" y="12058"><tspan fill="rgb(0,0,0)" stroke="none">26.07</tspan></tspan></tspan></text>
 <text class="TextShape" transform="rotate(-90 22593 12058)"><tspan class="TextParagraph" font-family="Liberation Sans, sans-serif" font-size="388px" font-weight="400"><tspan class="TextPosition" x="22593" y="12058"><tspan fill="rgb(0,0,0)" stroke="none">02.08</tspan></tspan></tspan></text>
 <text class="TextShape"><tspan class="TextParagraph" font-family="Liberation Sans, sans-serif" font-size="388px" font-weight="400"><tspan class="TextPosition" x="1295" y="10982"><tspan fill="rgb(0,0,0)" stroke="none">0</tspan></tspan></tspan></text>
 <text class="TextShape"><tspan class="TextParagraph" font-family="Liberation Sans, sans-serif" font-size="388px" font-weight="400"><tspan class="TextPosition" x="554" y="10065"><tspan fill="rgb(0,0,0)" stroke="none">2 000</tspan></tspan></tspan></text>
 <text class="TextShape"><tspan class="TextParagraph" font-family="Liberation Sans, sans-serif" font-size="388px" font-weight="400"><tspan class="TextPosition" x="554" y="9149"><tspan fill="rgb(0,0,0)" stroke="none">4 000</tspan></tspan></tspan></text>
 <text class="TextShape"><tspan class="TextParagraph" font-family="Liberation Sans, sans-serif" font-size="388px" font-weight="400"><tspan class="TextPosition" x="554" y="8232"><tspan fill="rgb(0,0,0)" stroke="none">6 000</tspan></tspan></tspan></text>
 <text class="TextShape"><tspan class="TextParagraph" font-family="Liberation Sans, sans-serif" font-size="388px" font-weight="400"><tspan class="TextPosition" x="554" y="7316"><tspan fill="rgb(0,0,0)" stroke="none">8 000</tspan></tspan></tspan></text>
 <text class="TextShape"><tspan class="TextParagraph" font-family="Liberation Sans, sans-serif" font-size="388px" font-weight="400"><tspan class="TextPosition" x="343" y="6400"><tspan fill="rgb(0,0,0)" stroke="none">10 000</tspan></tspan></tspan></text>
 <text class="TextShape"><tspan class="TextParagraph" font-family="Liberation Sans, sans-serif" font-size="388px" font-weight="400"><tspan class="TextPosition" x="343" y="5483"><tspan fill="rgb(0,0,0)" stroke="none">12 000</tspan></tspan></tspan></text>
 <text class="TextShape"><tspan class="TextParagraph" font-family="Liberation Sans, sans-serif" font-size="388px" font-weight="400"><tspan class="TextPosition" x="343" y="4567"><tspan fill="rgb(0,0,0)" stroke="none">14 000</tspan></tspan></tspan></text>
 <text class="TextShape"><tspan class="TextParagraph" font-family="Liberation Sans, sans-serif" font-size="388px" font-weight="400"><tspan class="TextPosition" x="343" y="3650"><tspan fill="rgb(0,0,0)" stroke="none">16 000</tspan></tspan></tspan></text>
 <text class="TextShape"><tspan class="TextParagraph" font-family="Liberation Sans, sans-serif" font-size="388px" font-weight="400"><tspan class="TextPosition" x="343" y="2734"><tspan fill="rgb(0,0,0)" stroke="none">18 000</tspan></tspan></tspan></text>
 <text class="TextShape"><tspan class="TextParagraph" font-family="Liberation Sans, sans-serif" font-size="388px" font-weight="400"><tspan class="TextPosition" x="343" y="1818"><tspan fill="rgb(0,0,0)" stroke="none">20 000</tspan></tspan></tspan></text>
 <text class="TextShape"><tspan class="TextParagraph" font-family="Liberation Sans, sans-serif" font-size="494px" font-weight="700"><tspan class="TextPosition" x="406" y="698"><tspan fill="rgb(0,0,0)" stroke="none">Česká Republika</tspan></tspan></tspan></text>
 <path fill="none" stroke="rgb(255,191,0)" stroke-width="80" stroke-linejoin="round" d="M 998,1208 L 1798,1208"/>
 <path fill="none" stroke="rgb(85,48,141)" stroke-width="80" stroke-linejoin="round" d="M 8932,1208 L 9732,1208"/>
 <path fill="none" stroke="rgb(0,169,51)" stroke-width="80" stroke-linejoin="round" d="M 16082,1208 L 16882,1208"/>
 <text class="TextShape"><tspan class="TextParagraph" font-family="Liberation Sans, sans-serif" font-size="494px" font-weight="400"><tspan class="TextPosition" x="1906" y="1377"><tspan fill="rgb(0,0,0)" stroke="none">celkový počet infikovaných</tspan></tspan></tspan></text>
 <text class="TextShape"><tspan class="TextParagraph" font-family="Liberation Sans, sans-serif" font-size="494px" font-weight="400"><tspan class="TextPosition" x="9840" y="1377"><tspan fill="rgb(0,0,0)" stroke="none">počet aktivních případů</tspan></tspan></tspan></text>
 <text class="TextShape"><tspan class="TextParagraph" font-family="Liberation Sans, sans-serif" font-size="494px" font-weight="400"><tspan class="TextPosition" x="16990" y="1377"><tspan fill="rgb(0,0,0)" stroke="none">celkový počet vyléčených</tspan></tspan></tspan></text>
</svg>