<?xml version="1.0" encoding="UTF-8"?>
<!DOCTYPE svg PUBLIC "-//W3C//DTD SVG 1.1//EN" "http://www.w3.org/Graphics/SVG/1.1/DTD/svg11.dtd">
<svg width="236mm" height="235mm" viewBox="0 0 23600 23500" version="1.1" xmlns="http://www.w3.org/2000/svg" xmlns:xlink="http://www.w3.org/1999/xlink" stroke-width="28.222" stroke-linejoin="round" xml:space="preserve">
 <path fill="rgb(255,255,255)" stroke="none" d="M 11800,23531 L 0,23531 0,0 23600,0 23600,23531 11800,23531 Z"/>
 <path fill="none" stroke="rgb(179,179,179)" stroke-linejoin="round" d="M 10374,21959 L 1764,21959 1764,1506 18983,1506 18983,21959 10374,21959 Z"/>
 <path fill="none" stroke="rgb(179,179,179)" stroke-linejoin="round" stroke-dasharray="27,27,27,27" d="M 1764,1505 L 1764,21958"/>
 <path fill="none" stroke="rgb(179,179,179)" stroke-linejoin="round" stroke-dasharray="27,27,27,27" d="M 2375,1505 L 2375,21958"/>
 <path fill="none" stroke="rgb(179,179,179)" stroke-linejoin="round" stroke-dasharray="27,27,27,27" d="M 2987,1505 L 2987,21958"/>
 <path fill="none" stroke="rgb(179,179,179)" stroke-linejoin="round" stroke-dasharray="27,27,27,27" d="M 3599,1505 L 3599,21958"/>
 <path fill="none" stroke="rgb(179,179,179)" stroke-linejoin="round" stroke-dasharray="27,27,27,27" d="M 4211,1505 L 4211,21958"/>
 <path fill="none" stroke="rgb(179,179,179)" stroke-linejoin="round" stroke-dasharray="27,27,27,27" d="M 4823,1505 L 4823,21958"/>
 <path fill="none" stroke="rgb(179,179,179)" stroke-linejoin="round" stroke-dasharray="27,27,27,27" d="M 5435,1505 L 5435,21958"/>
 <path fill="none" stroke="rgb(179,179,179)" stroke-linejoin="round" stroke-dasharray="27,27,27,27" d="M 6047,1505 L 6047,21958"/>
 <path fill="none" stroke="rgb(179,179,179)" stroke-linejoin="round" stroke-dasharray="27,27,27,27" d="M 6659,1505 L 6659,21958"/>
 <path fill="none" stroke="rgb(179,179,179)" stroke-linejoin="round" stroke-dasharray="27,27,27,27" d="M 7270,1505 L 7270,21958"/>
 <path fill="none" stroke="rgb(179,179,179)" stroke-linejoin="round" stroke-dasharray="27,27,27,27" d="M 7882,1505 L 7882,21958"/>
 <path fill="none" stroke="rgb(179,179,179)" stroke-linejoin="round" stroke-dasharray="27,27,27,27" d="M 8494,1505 L 8494,21958"/>
 <path fill="none" stroke="rgb(179,179,179)" stroke-linejoin="round" stroke-dasharray="27,27,27,27" d="M 9106,1505 L 9106,21958"/>
 <path fill="none" stroke="rgb(179,179,179)" stroke-linejoin="round" stroke-dasharray="27,27,27,27" d="M 9718,1505 L 9718,21958"/>
 <path fill="none" stroke="rgb(179,179,179)" stroke-linejoin="round" stroke-dasharray="27,27,27,27" d="M 10330,1505 L 10330,21958"/>
 <path fill="none" stroke="rgb(179,179,179)" stroke-linejoin="round" stroke-dasharray="27,27,27,27" d="M 10942,1505 L 10942,21958"/>
 <path fill="none" stroke="rgb(179,179,179)" stroke-linejoin="round" stroke-dasharray="27,27,27,27" d="M 11554,1505 L 11554,21958"/>
 <path fill="none" stroke="rgb(179,179,179)" stroke-linejoin="round" stroke-dasharray="27,27,27,27" d="M 12164,1505 L 12164,21958"/>
 <path fill="none" stroke="rgb(179,179,179)" stroke-linejoin="round" stroke-dasharray="27,27,27,27" d="M 12776,1505 L 12776,21958"/>
 <path fill="none" stroke="rgb(179,179,179)" stroke-linejoin="round" stroke-dasharray="27,27,27,27" d="M 13388,1505 L 13388,21958"/>
 <path fill="none" stroke="rgb(179,179,179)" stroke-linejoin="round" stroke-dasharray="27,27,27,27" d="M 14000,1505 L 14000,21958"/>
 <path fill="none" stroke="rgb(179,179,179)" stroke-linejoin="round" stroke-dasharray="27,27,27,27" d="M 14612,1505 L 14612,21958"/>
 <path fill="none" stroke="rgb(179,179,179)" stroke-linejoin="round" stroke-dasharray="27,27,27,27" d="M 15224,1505 L 15224,21958"/>
 <path fill="none" stroke="rgb(179,179,179)" stroke-linejoin="round" stroke-dasharray="27,27,27,27" d="M 15836,1505 L 15836,21958"/>
 <path fill="none" stroke="rgb(179,179,179)" stroke-linejoin="round" stroke-dasharray="27,27,27,27" d="M 16448,1505 L 16448,21958"/>
 <path fill="none" stroke="rgb(179,179,179)" stroke-linejoin="round" stroke-dasharray="27,27,27,27" d="M 17059,1505 L 17059,21958"/>
 <path fill="none" stroke="rgb(179,179,179)" stroke-linejoin="round" stroke-dasharray="27,27,27,27" d="M 17671,1505 L 17671,21958"/>
 <path fill="none" stroke="rgb(179,179,179)" stroke-linejoin="round" stroke-dasharray="27,27,27,27" d="M 18283,1505 L 18283,21958"/>
 <path fill="none" stroke="rgb(179,179,179)" stroke-linejoin="round" stroke-dasharray="27,27,27,27" d="M 18895,1505 L 18895,21958"/>
 <path fill="none" stroke="rgb(179,179,179)" stroke-linejoin="round" d="M 18983,21958 L 1764,21958"/>
 <path fill="none" stroke="rgb(179,179,179)" stroke-linejoin="round" d="M 18983,15140 L 1764,15140"/>
 <path fill="none" stroke="rgb(179,179,179)" stroke-linejoin="round" d="M 18983,8323 L 1764,8323"/>
 <path fill="none" stroke="rgb(179,179,179)" stroke-linejoin="round" d="M 18983,1505 L 1764,1505"/>
 <path fill="none" stroke="rgb(221,221,221)" stroke-linejoin="round" stroke-dasharray="27,27,27,27" d="M 18983,20594 L 1764,20594"/>
 <path fill="none" stroke="rgb(221,221,221)" stroke-linejoin="round" stroke-dasharray="27,27,27,27" d="M 18983,19230 L 1764,19230"/>
 <path fill="none" stroke="rgb(221,221,221)" stroke-linejoin="round" stroke-dasharray="27,27,27,27" d="M 18983,17867 L 1764,17867"/>
 <path fill="none" stroke="rgb(221,221,221)" stroke-linejoin="round" stroke-dasharray="27,27,27,27" d="M 18983,16503 L 1764,16503"/>
 <path fill="none" stroke="rgb(221,221,221)" stroke-linejoin="round" stroke-dasharray="27,27,27,27" d="M 18983,13776 L 1764,13776"/>
 <path fill="none" stroke="rgb(221,221,221)" stroke-linejoin="round" stroke-dasharray="27,27,27,27" d="M 18983,12412 L 1764,12412"/>
 <path fill="none" stroke="rgb(221,221,221)" stroke-linejoin="round" stroke-dasharray="27,27,27,27" d="M 18983,11050 L 1764,11050"/>
 <path fill="none" stroke="rgb(221,221,221)" stroke-linejoin="round" stroke-dasharray="27,27,27,27" d="M 18983,9686 L 1764,9686"/>
 <path fill="none" stroke="rgb(221,221,221)" stroke-linejoin="round" stroke-dasharray="27,27,27,27" d="M 18983,6959 L 1764,6959"/>
 <path fill="none" stroke="rgb(221,221,221)" stroke-linejoin="round" stroke-dasharray="27,27,27,27" d="M 18983,5595 L 1764,5595"/>
 <path fill="none" stroke="rgb(221,221,221)" stroke-linejoin="round" stroke-dasharray="27,27,27,27" d="M 18983,4232 L 1764,4232"/>
 <path fill="none" stroke="rgb(221,221,221)" stroke-linejoin="round" stroke-dasharray="27,27,27,27" d="M 18983,2868 L 1764,2868"/>
 <path fill="none" stroke="rgb(179,179,179)" stroke-linejoin="round" d="M 1764,22108 L 1764,21808"/>
 <path fill="none" stroke="rgb(179,179,179)" stroke-linejoin="round" d="M 1764,22108 L 1764,21808"/>
 <path fill="none" stroke="rgb(179,179,179)" stroke-linejoin="round" d="M 2375,22108 L 2375,21808"/>
 <path fill="none" stroke="rgb(179,179,179)" stroke-linejoin="round" d="M 2375,22108 L 2375,21808"/>
 <path fill="none" stroke="rgb(179,179,179)" stroke-linejoin="round" d="M 2987,22108 L 2987,21808"/>
 <path fill="none" stroke="rgb(179,179,179)" stroke-linejoin="round" d="M 2987,22108 L 2987,21808"/>
 <path fill="none" stroke="rgb(179,179,179)" stroke-linejoin="round" d="M 3599,22108 L 3599,21808"/>
 <path fill="none" stroke="rgb(179,179,179)" stroke-linejoin="round" d="M 3599,22108 L 3599,21808"/>
 <path fill="none" stroke="rgb(179,179,179)" stroke-linejoin="round" d="M 4211,22108 L 4211,21808"/>
 <path fill="none" stroke="rgb(179,179,179)" stroke-linejoin="round" d="M 4211,22108 L 4211,21808"/>
 <path fill="none" stroke="rgb(179,179,179)" stroke-linejoin="round" d="M 4823,22108 L 4823,21808"/>
 <path fill="none" stroke="rgb(179,179,179)" stroke-linejoin="round" d="M 4823,22108 L 4823,21808"/>
 <path fill="none" stroke="rgb(179,179,179)" stroke-linejoin="round" d="M 5435,22108 L 5435,21808"/>
 <path fill="none" stroke="rgb(179,179,179)" stroke-linejoin="round" d="M 5435,22108 L 5435,21808"/>
 <path fill="none" stroke="rgb(179,179,179)" stroke-linejoin="round" d="M 6047,22108 L 6047,21808"/>
 <path fill="none" stroke="rgb(179,179,179)" stroke-linejoin="round" d="M 6047,22108 L 6047,21808"/>
 <path fill="none" stroke="rgb(179,179,179)" stroke-linejoin="round" d="M 6659,22108 L 6659,21808"/>
 <path fill="none" stroke="rgb(179,179,179)" stroke-linejoin="round" d="M 6659,22108 L 6659,21808"/>
 <path fill="none" stroke="rgb(179,179,179)" stroke-linejoin="round" d="M 7270,22108 L 7270,21808"/>
 <path fill="none" stroke="rgb(179,179,179)" stroke-linejoin="round" d="M 7270,22108 L 7270,21808"/>
 <path fill="none" stroke="rgb(179,179,179)" stroke-linejoin="round" d="M 7882,22108 L 7882,21808"/>
 <path fill="none" stroke="rgb(179,179,179)" stroke-linejoin="round" d="M 7882,22108 L 7882,21808"/>
 <path fill="none" stroke="rgb(179,179,179)" stroke-linejoin="round" d="M 8494,22108 L 8494,21808"/>
 <path fill="none" stroke="rgb(179,179,179)" stroke-linejoin="round" d="M 8494,22108 L 8494,21808"/>
 <path fill="none" stroke="rgb(179,179,179)" stroke-linejoin="round" d="M 9106,22108 L 9106,21808"/>
 <path fill="none" stroke="rgb(179,179,179)" stroke-linejoin="round" d="M 9106,22108 L 9106,21808"/>
 <path fill="none" stroke="rgb(179,179,179)" stroke-linejoin="round" d="M 9718,22108 L 9718,21808"/>
 <path fill="none" stroke="rgb(179,179,179)" stroke-linejoin="round" d="M 9718,22108 L 9718,21808"/>
 <path fill="none" stroke="rgb(179,179,179)" stroke-linejoin="round" d="M 10330,22108 L 10330,21808"/>
 <path fill="none" stroke="rgb(179,179,179)" stroke-linejoin="round" d="M 10330,22108 L 10330,21808"/>
 <path fill="none" stroke="rgb(179,179,179)" stroke-linejoin="round" d="M 10942,22108 L 10942,21808"/>
 <path fill="none" stroke="rgb(179,179,179)" stroke-linejoin="round" d="M 10942,22108 L 10942,21808"/>
 <path fill="none" stroke="rgb(179,179,179)" stroke-linejoin="round" d="M 11554,22108 L 11554,21808"/>
 <path fill="none" stroke="rgb(179,179,179)" stroke-linejoin="round" d="M 11554,22108 L 11554,21808"/>
 <path fill="none" stroke="rgb(179,179,179)" stroke-linejoin="round" d="M 12164,22108 L 12164,21808"/>
 <path fill="none" stroke="rgb(179,179,179)" stroke-linejoin="round" d="M 12164,22108 L 12164,21808"/>
 <path fill="none" stroke="rgb(179,179,179)" stroke-linejoin="round" d="M 12776,22108 L 12776,21808"/>
 <path fill="none" stroke="rgb(179,179,179)" stroke-linejoin="round" d="M 12776,22108 L 12776,21808"/>
 <path fill="none" stroke="rgb(179,179,179)" stroke-linejoin="round" d="M 13388,22108 L 13388,21808"/>
 <path fill="none" stroke="rgb(179,179,179)" stroke-linejoin="round" d="M 13388,22108 L 13388,21808"/>
 <path fill="none" stroke="rgb(179,179,179)" stroke-linejoin="round" d="M 14000,22108 L 14000,21808"/>
 <path fill="none" stroke="rgb(179,179,179)" stroke-linejoin="round" d="M 14000,22108 L 14000,21808"/>
 <path fill="none" stroke="rgb(179,179,179)" stroke-linejoin="round" d="M 14612,22108 L 14612,21808"/>
 <path fill="none" stroke="rgb(179,179,179)" stroke-linejoin="round" d="M 14612,22108 L 14612,21808"/>
 <path fill="none" stroke="rgb(179,179,179)" stroke-linejoin="round" d="M 15224,22108 L 15224,21808"/>
 <path fill="none" stroke="rgb(179,179,179)" stroke-linejoin="round" d="M 15224,22108 L 15224,21808"/>
 <path fill="none" stroke="rgb(179,179,179)" stroke-linejoin="round" d="M 15836,22108 L 15836,21808"/>
 <path fill="none" stroke="rgb(179,179,179)" stroke-linejoin="round" d="M 15836,22108 L 15836,21808"/>
 <path fill="none" stroke="rgb(179,179,179)" stroke-linejoin="round" d="M 16448,22108 L 16448,21808"/>
 <path fill="none" stroke="rgb(179,179,179)" stroke-linejoin="round" d="M 16448,22108 L 16448,21808"/>
 <path fill="none" stroke="rgb(179,179,179)" stroke-linejoin="round" d="M 17059,22108 L 17059,21808"/>
 <path fill="none" stroke="rgb(179,179,179)" stroke-linejoin="round" d="M 17059,22108 L 17059,21808"/>
 <path fill="none" stroke="rgb(179,179,179)" stroke-linejoin="round" d="M 17671,22108 L 17671,21808"/>
 <path fill="none" stroke="rgb(179,179,179)" stroke-linejoin="round" d="M 17671,22108 L 17671,21808"/>
 <path fill="none" stroke="rgb(179,179,179)" stroke-linejoin="round" d="M 18283,22108 L 18283,21808"/>
 <path fill="none" stroke="rgb(179,179,179)" stroke-linejoin="round" d="M 18283,22108 L 18283,21808"/>
 <path fill="none" stroke="rgb(179,179,179)" stroke-linejoin="round" d="M 18895,22108 L 18895,21808"/>
 <path fill="none" stroke="rgb(179,179,179)" stroke-linejoin="round" d="M 18895,22108 L 18895,21808"/>
 <path fill="none" stroke="rgb(179,179,179)" stroke-linejoin="round" d="M 1764,22070 L 1764,21958"/>
 <path fill="none" stroke="rgb(179,179,179)" stroke-linejoin="round" d="M 1764,22070 L 1764,21958"/>
 <path fill="none" stroke="rgb(179,179,179)" stroke-linejoin="round" d="M 1851,22070 L 1851,21958"/>
 <path fill="none" stroke="rgb(179,179,179)" stroke-linejoin="round" d="M 1851,22070 L 1851,21958"/>
 <path fill="none" stroke="rgb(179,179,179)" stroke-linejoin="round" d="M 1938,22070 L 1938,21958"/>
 <path fill="none" stroke="rgb(179,179,179)" stroke-linejoin="round" d="M 1938,22070 L 1938,21958"/>
 <path fill="none" stroke="rgb(179,179,179)" stroke-linejoin="round" d="M 2026,22070 L 2026,21958"/>
 <path fill="none" stroke="rgb(179,179,179)" stroke-linejoin="round" d="M 2026,22070 L 2026,21958"/>
 <path fill="none" stroke="rgb(179,179,179)" stroke-linejoin="round" d="M 2113,22070 L 2113,21958"/>
 <path fill="none" stroke="rgb(179,179,179)" stroke-linejoin="round" d="M 2113,22070 L 2113,21958"/>
 <path fill="none" stroke="rgb(179,179,179)" stroke-linejoin="round" d="M 2201,22070 L 2201,21958"/>
 <path fill="none" stroke="rgb(179,179,179)" stroke-linejoin="round" d="M 2201,22070 L 2201,21958"/>
 <path fill="none" stroke="rgb(179,179,179)" stroke-linejoin="round" d="M 2288,22070 L 2288,21958"/>
 <path fill="none" stroke="rgb(179,179,179)" stroke-linejoin="round" d="M 2288,22070 L 2288,21958"/>
 <path fill="none" stroke="rgb(179,179,179)" stroke-linejoin="round" d="M 2375,22070 L 2375,21958"/>
 <path fill="none" stroke="rgb(179,179,179)" stroke-linejoin="round" d="M 2375,22070 L 2375,21958"/>
 <path fill="none" stroke="rgb(179,179,179)" stroke-linejoin="round" d="M 2463,22070 L 2463,21958"/>
 <path fill="none" stroke="rgb(179,179,179)" stroke-linejoin="round" d="M 2463,22070 L 2463,21958"/>
 <path fill="none" stroke="rgb(179,179,179)" stroke-linejoin="round" d="M 2550,22070 L 2550,21958"/>
 <path fill="none" stroke="rgb(179,179,179)" stroke-linejoin="round" d="M 2550,22070 L 2550,21958"/>
 <path fill="none" stroke="rgb(179,179,179)" stroke-linejoin="round" d="M 2638,22070 L 2638,21958"/>
 <path fill="none" stroke="rgb(179,179,179)" stroke-linejoin="round" d="M 2638,22070 L 2638,21958"/>
 <path fill="none" stroke="rgb(179,179,179)" stroke-linejoin="round" d="M 2725,22070 L 2725,21958"/>
 <path fill="none" stroke="rgb(179,179,179)" stroke-linejoin="round" d="M 2725,22070 L 2725,21958"/>
 <path fill="none" stroke="rgb(179,179,179)" stroke-linejoin="round" d="M 2812,22070 L 2812,21958"/>
 <path fill="none" stroke="rgb(179,179,179)" stroke-linejoin="round" d="M 2812,22070 L 2812,21958"/>
 <path fill="none" stroke="rgb(179,179,179)" stroke-linejoin="round" d="M 2900,22070 L 2900,21958"/>
 <path fill="none" stroke="rgb(179,179,179)" stroke-linejoin="round" d="M 2900,22070 L 2900,21958"/>
 <path fill="none" stroke="rgb(179,179,179)" stroke-linejoin="round" d="M 2987,22070 L 2987,21958"/>
 <path fill="none" stroke="rgb(179,179,179)" stroke-linejoin="round" d="M 2987,22070 L 2987,21958"/>
 <path fill="none" stroke="rgb(179,179,179)" stroke-linejoin="round" d="M 3075,22070 L 3075,21958"/>
 <path fill="none" stroke="rgb(179,179,179)" stroke-linejoin="round" d="M 3075,22070 L 3075,21958"/>
 <path fill="none" stroke="rgb(179,179,179)" stroke-linejoin="round" d="M 3162,22070 L 3162,21958"/>
 <path fill="none" stroke="rgb(179,179,179)" stroke-linejoin="round" d="M 3162,22070 L 3162,21958"/>
 <path fill="none" stroke="rgb(179,179,179)" stroke-linejoin="round" d="M 3249,22070 L 3249,21958"/>
 <path fill="none" stroke="rgb(179,179,179)" stroke-linejoin="round" d="M 3249,22070 L 3249,21958"/>
 <path fill="none" stroke="rgb(179,179,179)" stroke-linejoin="round" d="M 3337,22070 L 3337,21958"/>
 <path fill="none" stroke="rgb(179,179,179)" stroke-linejoin="round" d="M 3337,22070 L 3337,21958"/>
 <path fill="none" stroke="rgb(179,179,179)" stroke-linejoin="round" d="M 3424,22070 L 3424,21958"/>
 <path fill="none" stroke="rgb(179,179,179)" stroke-linejoin="round" d="M 3424,22070 L 3424,21958"/>
 <path fill="none" stroke="rgb(179,179,179)" stroke-linejoin="round" d="M 3512,22070 L 3512,21958"/>
 <path fill="none" stroke="rgb(179,179,179)" stroke-linejoin="round" d="M 3512,22070 L 3512,21958"/>
 <path fill="none" stroke="rgb(179,179,179)" stroke-linejoin="round" d="M 3599,22070 L 3599,21958"/>
 <path fill="none" stroke="rgb(179,179,179)" stroke-linejoin="round" d="M 3599,22070 L 3599,21958"/>
 <path fill="none" stroke="rgb(179,179,179)" stroke-linejoin="round" d="M 3687,22070 L 3687,21958"/>
 <path fill="none" stroke="rgb(179,179,179)" stroke-linejoin="round" d="M 3687,22070 L 3687,21958"/>
 <path fill="none" stroke="rgb(179,179,179)" stroke-linejoin="round" d="M 3774,22070 L 3774,21958"/>
 <path fill="none" stroke="rgb(179,179,179)" stroke-linejoin="round" d="M 3774,22070 L 3774,21958"/>
 <path fill="none" stroke="rgb(179,179,179)" stroke-linejoin="round" d="M 3861,22070 L 3861,21958"/>
 <path fill="none" stroke="rgb(179,179,179)" stroke-linejoin="round" d="M 3861,22070 L 3861,21958"/>
 <path fill="none" stroke="rgb(179,179,179)" stroke-linejoin="round" d="M 3949,22070 L 3949,21958"/>
 <path fill="none" stroke="rgb(179,179,179)" stroke-linejoin="round" d="M 3949,22070 L 3949,21958"/>
 <path fill="none" stroke="rgb(179,179,179)" stroke-linejoin="round" d="M 4036,22070 L 4036,21958"/>
 <path fill="none" stroke="rgb(179,179,179)" stroke-linejoin="round" d="M 4036,22070 L 4036,21958"/>
 <path fill="none" stroke="rgb(179,179,179)" stroke-linejoin="round" d="M 4124,22070 L 4124,21958"/>
 <path fill="none" stroke="rgb(179,179,179)" stroke-linejoin="round" d="M 4124,22070 L 4124,21958"/>
 <path fill="none" stroke="rgb(179,179,179)" stroke-linejoin="round" d="M 4211,22070 L 4211,21958"/>
 <path fill="none" stroke="rgb(179,179,179)" stroke-linejoin="round" d="M 4211,22070 L 4211,21958"/>
 <path fill="none" stroke="rgb(179,179,179)" stroke-linejoin="round" d="M 4298,22070 L 4298,21958"/>
 <path fill="none" stroke="rgb(179,179,179)" stroke-linejoin="round" d="M 4298,22070 L 4298,21958"/>
 <path fill="none" stroke="rgb(179,179,179)" stroke-linejoin="round" d="M 4386,22070 L 4386,21958"/>
 <path fill="none" stroke="rgb(179,179,179)" stroke-linejoin="round" d="M 4386,22070 L 4386,21958"/>
 <path fill="none" stroke="rgb(179,179,179)" stroke-linejoin="round" d="M 4473,22070 L 4473,21958"/>
 <path fill="none" stroke="rgb(179,179,179)" stroke-linejoin="round" d="M 4473,22070 L 4473,21958"/>
 <path fill="none" stroke="rgb(179,179,179)" stroke-linejoin="round" d="M 4561,22070 L 4561,21958"/>
 <path fill="none" stroke="rgb(179,179,179)" stroke-linejoin="round" d="M 4561,22070 L 4561,21958"/>
 <path fill="none" stroke="rgb(179,179,179)" stroke-linejoin="round" d="M 4648,22070 L 4648,21958"/>
 <path fill="none" stroke="rgb(179,179,179)" stroke-linejoin="round" d="M 4648,22070 L 4648,21958"/>
 <path fill="none" stroke="rgb(179,179,179)" stroke-linejoin="round" d="M 4735,22070 L 4735,21958"/>
 <path fill="none" stroke="rgb(179,179,179)" stroke-linejoin="round" d="M 4735,22070 L 4735,21958"/>
 <path fill="none" stroke="rgb(179,179,179)" stroke-linejoin="round" d="M 4823,22070 L 4823,21958"/>
 <path fill="none" stroke="rgb(179,179,179)" stroke-linejoin="round" d="M 4823,22070 L 4823,21958"/>
 <path fill="none" stroke="rgb(179,179,179)" stroke-linejoin="round" d="M 4910,22070 L 4910,21958"/>
 <path fill="none" stroke="rgb(179,179,179)" stroke-linejoin="round" d="M 4910,22070 L 4910,21958"/>
 <path fill="none" stroke="rgb(179,179,179)" stroke-linejoin="round" d="M 4998,22070 L 4998,21958"/>
 <path fill="none" stroke="rgb(179,179,179)" stroke-linejoin="round" d="M 4998,22070 L 4998,21958"/>
 <path fill="none" stroke="rgb(179,179,179)" stroke-linejoin="round" d="M 5085,22070 L 5085,21958"/>
 <path fill="none" stroke="rgb(179,179,179)" stroke-linejoin="round" d="M 5085,22070 L 5085,21958"/>
 <path fill="none" stroke="rgb(179,179,179)" stroke-linejoin="round" d="M 5173,22070 L 5173,21958"/>
 <path fill="none" stroke="rgb(179,179,179)" stroke-linejoin="round" d="M 5173,22070 L 5173,21958"/>
 <path fill="none" stroke="rgb(179,179,179)" stroke-linejoin="round" d="M 5260,22070 L 5260,21958"/>
 <path fill="none" stroke="rgb(179,179,179)" stroke-linejoin="round" d="M 5260,22070 L 5260,21958"/>
 <path fill="none" stroke="rgb(179,179,179)" stroke-linejoin="round" d="M 5347,22070 L 5347,21958"/>
 <path fill="none" stroke="rgb(179,179,179)" stroke-linejoin="round" d="M 5347,22070 L 5347,21958"/>
 <path fill="none" stroke="rgb(179,179,179)" stroke-linejoin="round" d="M 5435,22070 L 5435,21958"/>
 <path fill="none" stroke="rgb(179,179,179)" stroke-linejoin="round" d="M 5435,22070 L 5435,21958"/>
 <path fill="none" stroke="rgb(179,179,179)" stroke-linejoin="round" d="M 5522,22070 L 5522,21958"/>
 <path fill="none" stroke="rgb(179,179,179)" stroke-linejoin="round" d="M 5522,22070 L 5522,21958"/>
 <path fill="none" stroke="rgb(179,179,179)" stroke-linejoin="round" d="M 5610,22070 L 5610,21958"/>
 <path fill="none" stroke="rgb(179,179,179)" stroke-linejoin="round" d="M 5610,22070 L 5610,21958"/>
 <path fill="none" stroke="rgb(179,179,179)" stroke-linejoin="round" d="M 5697,22070 L 5697,21958"/>
 <path fill="none" stroke="rgb(179,179,179)" stroke-linejoin="round" d="M 5697,22070 L 5697,21958"/>
 <path fill="none" stroke="rgb(179,179,179)" stroke-linejoin="round" d="M 5784,22070 L 5784,21958"/>
 <path fill="none" stroke="rgb(179,179,179)" stroke-linejoin="round" d="M 5784,22070 L 5784,21958"/>
 <path fill="none" stroke="rgb(179,179,179)" stroke-linejoin="round" d="M 5872,22070 L 5872,21958"/>
 <path fill="none" stroke="rgb(179,179,179)" stroke-linejoin="round" d="M 5872,22070 L 5872,21958"/>
 <path fill="none" stroke="rgb(179,179,179)" stroke-linejoin="round" d="M 5959,22070 L 5959,21958"/>
 <path fill="none" stroke="rgb(179,179,179)" stroke-linejoin="round" d="M 5959,22070 L 5959,21958"/>
 <path fill="none" stroke="rgb(179,179,179)" stroke-linejoin="round" d="M 6047,22070 L 6047,21958"/>
 <path fill="none" stroke="rgb(179,179,179)" stroke-linejoin="round" d="M 6047,22070 L 6047,21958"/>
 <path fill="none" stroke="rgb(179,179,179)" stroke-linejoin="round" d="M 6134,22070 L 6134,21958"/>
 <path fill="none" stroke="rgb(179,179,179)" stroke-linejoin="round" d="M 6134,22070 L 6134,21958"/>
 <path fill="none" stroke="rgb(179,179,179)" stroke-linejoin="round" d="M 6221,22070 L 6221,21958"/>
 <path fill="none" stroke="rgb(179,179,179)" stroke-linejoin="round" d="M 6221,22070 L 6221,21958"/>
 <path fill="none" stroke="rgb(179,179,179)" stroke-linejoin="round" d="M 6309,22070 L 6309,21958"/>
 <path fill="none" stroke="rgb(179,179,179)" stroke-linejoin="round" d="M 6309,22070 L 6309,21958"/>
 <path fill="none" stroke="rgb(179,179,179)" stroke-linejoin="round" d="M 6396,22070 L 6396,21958"/>
 <path fill="none" stroke="rgb(179,179,179)" stroke-linejoin="round" d="M 6396,22070 L 6396,21958"/>
 <path fill="none" stroke="rgb(179,179,179)" stroke-linejoin="round" d="M 6484,22070 L 6484,21958"/>
 <path fill="none" stroke="rgb(179,179,179)" stroke-linejoin="round" d="M 6484,22070 L 6484,21958"/>
 <path fill="none" stroke="rgb(179,179,179)" stroke-linejoin="round" d="M 6571,22070 L 6571,21958"/>
 <path fill="none" stroke="rgb(179,179,179)" stroke-linejoin="round" d="M 6571,22070 L 6571,21958"/>
 <path fill="none" stroke="rgb(179,179,179)" stroke-linejoin="round" d="M 6659,22070 L 6659,21958"/>
 <path fill="none" stroke="rgb(179,179,179)" stroke-linejoin="round" d="M 6659,22070 L 6659,21958"/>
 <path fill="none" stroke="rgb(179,179,179)" stroke-linejoin="round" d="M 6746,22070 L 6746,21958"/>
 <path fill="none" stroke="rgb(179,179,179)" stroke-linejoin="round" d="M 6746,22070 L 6746,21958"/>
 <path fill="none" stroke="rgb(179,179,179)" stroke-linejoin="round" d="M 6833,22070 L 6833,21958"/>
 <path fill="none" stroke="rgb(179,179,179)" stroke-linejoin="round" d="M 6833,22070 L 6833,21958"/>
 <path fill="none" stroke="rgb(179,179,179)" stroke-linejoin="round" d="M 6921,22070 L 6921,21958"/>
 <path fill="none" stroke="rgb(179,179,179)" stroke-linejoin="round" d="M 6921,22070 L 6921,21958"/>
 <path fill="none" stroke="rgb(179,179,179)" stroke-linejoin="round" d="M 7008,22070 L 7008,21958"/>
 <path fill="none" stroke="rgb(179,179,179)" stroke-linejoin="round" d="M 7008,22070 L 7008,21958"/>
 <path fill="none" stroke="rgb(179,179,179)" stroke-linejoin="round" d="M 7096,22070 L 7096,21958"/>
 <path fill="none" stroke="rgb(179,179,179)" stroke-linejoin="round" d="M 7096,22070 L 7096,21958"/>
 <path fill="none" stroke="rgb(179,179,179)" stroke-linejoin="round" d="M 7183,22070 L 7183,21958"/>
 <path fill="none" stroke="rgb(179,179,179)" stroke-linejoin="round" d="M 7183,22070 L 7183,21958"/>
 <path fill="none" stroke="rgb(179,179,179)" stroke-linejoin="round" d="M 7270,22070 L 7270,21958"/>
 <path fill="none" stroke="rgb(179,179,179)" stroke-linejoin="round" d="M 7270,22070 L 7270,21958"/>
 <path fill="none" stroke="rgb(179,179,179)" stroke-linejoin="round" d="M 7358,22070 L 7358,21958"/>
 <path fill="none" stroke="rgb(179,179,179)" stroke-linejoin="round" d="M 7358,22070 L 7358,21958"/>
 <path fill="none" stroke="rgb(179,179,179)" stroke-linejoin="round" d="M 7445,22070 L 7445,21958"/>
 <path fill="none" stroke="rgb(179,179,179)" stroke-linejoin="round" d="M 7445,22070 L 7445,21958"/>
 <path fill="none" stroke="rgb(179,179,179)" stroke-linejoin="round" d="M 7533,22070 L 7533,21958"/>
 <path fill="none" stroke="rgb(179,179,179)" stroke-linejoin="round" d="M 7533,22070 L 7533,21958"/>
 <path fill="none" stroke="rgb(179,179,179)" stroke-linejoin="round" d="M 7620,22070 L 7620,21958"/>
 <path fill="none" stroke="rgb(179,179,179)" stroke-linejoin="round" d="M 7620,22070 L 7620,21958"/>
 <path fill="none" stroke="rgb(179,179,179)" stroke-linejoin="round" d="M 7707,22070 L 7707,21958"/>
 <path fill="none" stroke="rgb(179,179,179)" stroke-linejoin="round" d="M 7707,22070 L 7707,21958"/>
 <path fill="none" stroke="rgb(179,179,179)" stroke-linejoin="round" d="M 7795,22070 L 7795,21958"/>
 <path fill="none" stroke="rgb(179,179,179)" stroke-linejoin="round" d="M 7795,22070 L 7795,21958"/>
 <path fill="none" stroke="rgb(179,179,179)" stroke-linejoin="round" d="M 7882,22070 L 7882,21958"/>
 <path fill="none" stroke="rgb(179,179,179)" stroke-linejoin="round" d="M 7882,22070 L 7882,21958"/>
 <path fill="none" stroke="rgb(179,179,179)" stroke-linejoin="round" d="M 7970,22070 L 7970,21958"/>
 <path fill="none" stroke="rgb(179,179,179)" stroke-linejoin="round" d="M 7970,22070 L 7970,21958"/>
 <path fill="none" stroke="rgb(179,179,179)" stroke-linejoin="round" d="M 8057,22070 L 8057,21958"/>
 <path fill="none" stroke="rgb(179,179,179)" stroke-linejoin="round" d="M 8057,22070 L 8057,21958"/>
 <path fill="none" stroke="rgb(179,179,179)" stroke-linejoin="round" d="M 8145,22070 L 8145,21958"/>
 <path fill="none" stroke="rgb(179,179,179)" stroke-linejoin="round" d="M 8145,22070 L 8145,21958"/>
 <path fill="none" stroke="rgb(179,179,179)" stroke-linejoin="round" d="M 8232,22070 L 8232,21958"/>
 <path fill="none" stroke="rgb(179,179,179)" stroke-linejoin="round" d="M 8232,22070 L 8232,21958"/>
 <path fill="none" stroke="rgb(179,179,179)" stroke-linejoin="round" d="M 8319,22070 L 8319,21958"/>
 <path fill="none" stroke="rgb(179,179,179)" stroke-linejoin="round" d="M 8319,22070 L 8319,21958"/>
 <path fill="none" stroke="rgb(179,179,179)" stroke-linejoin="round" d="M 8407,22070 L 8407,21958"/>
 <path fill="none" stroke="rgb(179,179,179)" stroke-linejoin="round" d="M 8407,22070 L 8407,21958"/>
 <path fill="none" stroke="rgb(179,179,179)" stroke-linejoin="round" d="M 8494,22070 L 8494,21958"/>
 <path fill="none" stroke="rgb(179,179,179)" stroke-linejoin="round" d="M 8494,22070 L 8494,21958"/>
 <path fill="none" stroke="rgb(179,179,179)" stroke-linejoin="round" d="M 8582,22070 L 8582,21958"/>
 <path fill="none" stroke="rgb(179,179,179)" stroke-linejoin="round" d="M 8582,22070 L 8582,21958"/>
 <path fill="none" stroke="rgb(179,179,179)" stroke-linejoin="round" d="M 8669,22070 L 8669,21958"/>
 <path fill="none" stroke="rgb(179,179,179)" stroke-linejoin="round" d="M 8669,22070 L 8669,21958"/>
 <path fill="none" stroke="rgb(179,179,179)" stroke-linejoin="round" d="M 8756,22070 L 8756,21958"/>
 <path fill="none" stroke="rgb(179,179,179)" stroke-linejoin="round" d="M 8756,22070 L 8756,21958"/>
 <path fill="none" stroke="rgb(179,179,179)" stroke-linejoin="round" d="M 8844,22070 L 8844,21958"/>
 <path fill="none" stroke="rgb(179,179,179)" stroke-linejoin="round" d="M 8844,22070 L 8844,21958"/>
 <path fill="none" stroke="rgb(179,179,179)" stroke-linejoin="round" d="M 8931,22070 L 8931,21958"/>
 <path fill="none" stroke="rgb(179,179,179)" stroke-linejoin="round" d="M 8931,22070 L 8931,21958"/>
 <path fill="none" stroke="rgb(179,179,179)" stroke-linejoin="round" d="M 9019,22070 L 9019,21958"/>
 <path fill="none" stroke="rgb(179,179,179)" stroke-linejoin="round" d="M 9019,22070 L 9019,21958"/>
 <path fill="none" stroke="rgb(179,179,179)" stroke-linejoin="round" d="M 9106,22070 L 9106,21958"/>
 <path fill="none" stroke="rgb(179,179,179)" stroke-linejoin="round" d="M 9106,22070 L 9106,21958"/>
 <path fill="none" stroke="rgb(179,179,179)" stroke-linejoin="round" d="M 9193,22070 L 9193,21958"/>
 <path fill="none" stroke="rgb(179,179,179)" stroke-linejoin="round" d="M 9193,22070 L 9193,21958"/>
 <path fill="none" stroke="rgb(179,179,179)" stroke-linejoin="round" d="M 9281,22070 L 9281,21958"/>
 <path fill="none" stroke="rgb(179,179,179)" stroke-linejoin="round" d="M 9281,22070 L 9281,21958"/>
 <path fill="none" stroke="rgb(179,179,179)" stroke-linejoin="round" d="M 9368,22070 L 9368,21958"/>
 <path fill="none" stroke="rgb(179,179,179)" stroke-linejoin="round" d="M 9368,22070 L 9368,21958"/>
 <path fill="none" stroke="rgb(179,179,179)" stroke-linejoin="round" d="M 9456,22070 L 9456,21958"/>
 <path fill="none" stroke="rgb(179,179,179)" stroke-linejoin="round" d="M 9456,22070 L 9456,21958"/>
 <path fill="none" stroke="rgb(179,179,179)" stroke-linejoin="round" d="M 9543,22070 L 9543,21958"/>
 <path fill="none" stroke="rgb(179,179,179)" stroke-linejoin="round" d="M 9543,22070 L 9543,21958"/>
 <path fill="none" stroke="rgb(179,179,179)" stroke-linejoin="round" d="M 9631,22070 L 9631,21958"/>
 <path fill="none" stroke="rgb(179,179,179)" stroke-linejoin="round" d="M 9631,22070 L 9631,21958"/>
 <path fill="none" stroke="rgb(179,179,179)" stroke-linejoin="round" d="M 9718,22070 L 9718,21958"/>
 <path fill="none" stroke="rgb(179,179,179)" stroke-linejoin="round" d="M 9718,22070 L 9718,21958"/>
 <path fill="none" stroke="rgb(179,179,179)" stroke-linejoin="round" d="M 9805,22070 L 9805,21958"/>
 <path fill="none" stroke="rgb(179,179,179)" stroke-linejoin="round" d="M 9805,22070 L 9805,21958"/>
 <path fill="none" stroke="rgb(179,179,179)" stroke-linejoin="round" d="M 9893,22070 L 9893,21958"/>
 <path fill="none" stroke="rgb(179,179,179)" stroke-linejoin="round" d="M 9893,22070 L 9893,21958"/>
 <path fill="none" stroke="rgb(179,179,179)" stroke-linejoin="round" d="M 9980,22070 L 9980,21958"/>
 <path fill="none" stroke="rgb(179,179,179)" stroke-linejoin="round" d="M 9980,22070 L 9980,21958"/>
 <path fill="none" stroke="rgb(179,179,179)" stroke-linejoin="round" d="M 10068,22070 L 10068,21958"/>
 <path fill="none" stroke="rgb(179,179,179)" stroke-linejoin="round" d="M 10068,22070 L 10068,21958"/>
 <path fill="none" stroke="rgb(179,179,179)" stroke-linejoin="round" d="M 10155,22070 L 10155,21958"/>
 <path fill="none" stroke="rgb(179,179,179)" stroke-linejoin="round" d="M 10155,22070 L 10155,21958"/>
 <path fill="none" stroke="rgb(179,179,179)" stroke-linejoin="round" d="M 10242,22070 L 10242,21958"/>
 <path fill="none" stroke="rgb(179,179,179)" stroke-linejoin="round" d="M 10242,22070 L 10242,21958"/>
 <path fill="none" stroke="rgb(179,179,179)" stroke-linejoin="round" d="M 10330,22070 L 10330,21958"/>
 <path fill="none" stroke="rgb(179,179,179)" stroke-linejoin="round" d="M 10330,22070 L 10330,21958"/>
 <path fill="none" stroke="rgb(179,179,179)" stroke-linejoin="round" d="M 10417,22070 L 10417,21958"/>
 <path fill="none" stroke="rgb(179,179,179)" stroke-linejoin="round" d="M 10417,22070 L 10417,21958"/>
 <path fill="none" stroke="rgb(179,179,179)" stroke-linejoin="round" d="M 10505,22070 L 10505,21958"/>
 <path fill="none" stroke="rgb(179,179,179)" stroke-linejoin="round" d="M 10505,22070 L 10505,21958"/>
 <path fill="none" stroke="rgb(179,179,179)" stroke-linejoin="round" d="M 10592,22070 L 10592,21958"/>
 <path fill="none" stroke="rgb(179,179,179)" stroke-linejoin="round" d="M 10592,22070 L 10592,21958"/>
 <path fill="none" stroke="rgb(179,179,179)" stroke-linejoin="round" d="M 10679,22070 L 10679,21958"/>
 <path fill="none" stroke="rgb(179,179,179)" stroke-linejoin="round" d="M 10679,22070 L 10679,21958"/>
 <path fill="none" stroke="rgb(179,179,179)" stroke-linejoin="round" d="M 10767,22070 L 10767,21958"/>
 <path fill="none" stroke="rgb(179,179,179)" stroke-linejoin="round" d="M 10767,22070 L 10767,21958"/>
 <path fill="none" stroke="rgb(179,179,179)" stroke-linejoin="round" d="M 10854,22070 L 10854,21958"/>
 <path fill="none" stroke="rgb(179,179,179)" stroke-linejoin="round" d="M 10854,22070 L 10854,21958"/>
 <path fill="none" stroke="rgb(179,179,179)" stroke-linejoin="round" d="M 10942,22070 L 10942,21958"/>
 <path fill="none" stroke="rgb(179,179,179)" stroke-linejoin="round" d="M 10942,22070 L 10942,21958"/>
 <path fill="none" stroke="rgb(179,179,179)" stroke-linejoin="round" d="M 11029,22070 L 11029,21958"/>
 <path fill="none" stroke="rgb(179,179,179)" stroke-linejoin="round" d="M 11029,22070 L 11029,21958"/>
 <path fill="none" stroke="rgb(179,179,179)" stroke-linejoin="round" d="M 11116,22070 L 11116,21958"/>
 <path fill="none" stroke="rgb(179,179,179)" stroke-linejoin="round" d="M 11116,22070 L 11116,21958"/>
 <path fill="none" stroke="rgb(179,179,179)" stroke-linejoin="round" d="M 11204,22070 L 11204,21958"/>
 <path fill="none" stroke="rgb(179,179,179)" stroke-linejoin="round" d="M 11204,22070 L 11204,21958"/>
 <path fill="none" stroke="rgb(179,179,179)" stroke-linejoin="round" d="M 11291,22070 L 11291,21958"/>
 <path fill="none" stroke="rgb(179,179,179)" stroke-linejoin="round" d="M 11291,22070 L 11291,21958"/>
 <path fill="none" stroke="rgb(179,179,179)" stroke-linejoin="round" d="M 11379,22070 L 11379,21958"/>
 <path fill="none" stroke="rgb(179,179,179)" stroke-linejoin="round" d="M 11379,22070 L 11379,21958"/>
 <path fill="none" stroke="rgb(179,179,179)" stroke-linejoin="round" d="M 11466,22070 L 11466,21958"/>
 <path fill="none" stroke="rgb(179,179,179)" stroke-linejoin="round" d="M 11466,22070 L 11466,21958"/>
 <path fill="none" stroke="rgb(179,179,179)" stroke-linejoin="round" d="M 11554,22070 L 11554,21958"/>
 <path fill="none" stroke="rgb(179,179,179)" stroke-linejoin="round" d="M 11554,22070 L 11554,21958"/>
 <path fill="none" stroke="rgb(179,179,179)" stroke-linejoin="round" d="M 11641,22070 L 11641,21958"/>
 <path fill="none" stroke="rgb(179,179,179)" stroke-linejoin="round" d="M 11641,22070 L 11641,21958"/>
 <path fill="none" stroke="rgb(179,179,179)" stroke-linejoin="round" d="M 11728,22070 L 11728,21958"/>
 <path fill="none" stroke="rgb(179,179,179)" stroke-linejoin="round" d="M 11728,22070 L 11728,21958"/>
 <path fill="none" stroke="rgb(179,179,179)" stroke-linejoin="round" d="M 11815,22070 L 11815,21958"/>
 <path fill="none" stroke="rgb(179,179,179)" stroke-linejoin="round" d="M 11815,22070 L 11815,21958"/>
 <path fill="none" stroke="rgb(179,179,179)" stroke-linejoin="round" d="M 11902,22070 L 11902,21958"/>
 <path fill="none" stroke="rgb(179,179,179)" stroke-linejoin="round" d="M 11902,22070 L 11902,21958"/>
 <path fill="none" stroke="rgb(179,179,179)" stroke-linejoin="round" d="M 11990,22070 L 11990,21958"/>
 <path fill="none" stroke="rgb(179,179,179)" stroke-linejoin="round" d="M 11990,22070 L 11990,21958"/>
 <path fill="none" stroke="rgb(179,179,179)" stroke-linejoin="round" d="M 12077,22070 L 12077,21958"/>
 <path fill="none" stroke="rgb(179,179,179)" stroke-linejoin="round" d="M 12077,22070 L 12077,21958"/>
 <path fill="none" stroke="rgb(179,179,179)" stroke-linejoin="round" d="M 12164,22070 L 12164,21958"/>
 <path fill="none" stroke="rgb(179,179,179)" stroke-linejoin="round" d="M 12164,22070 L 12164,21958"/>
 <path fill="none" stroke="rgb(179,179,179)" stroke-linejoin="round" d="M 12252,22070 L 12252,21958"/>
 <path fill="none" stroke="rgb(179,179,179)" stroke-linejoin="round" d="M 12252,22070 L 12252,21958"/>
 <path fill="none" stroke="rgb(179,179,179)" stroke-linejoin="round" d="M 12339,22070 L 12339,21958"/>
 <path fill="none" stroke="rgb(179,179,179)" stroke-linejoin="round" d="M 12339,22070 L 12339,21958"/>
 <path fill="none" stroke="rgb(179,179,179)" stroke-linejoin="round" d="M 12427,22070 L 12427,21958"/>
 <path fill="none" stroke="rgb(179,179,179)" stroke-linejoin="round" d="M 12427,22070 L 12427,21958"/>
 <path fill="none" stroke="rgb(179,179,179)" stroke-linejoin="round" d="M 12514,22070 L 12514,21958"/>
 <path fill="none" stroke="rgb(179,179,179)" stroke-linejoin="round" d="M 12514,22070 L 12514,21958"/>
 <path fill="none" stroke="rgb(179,179,179)" stroke-linejoin="round" d="M 12601,22070 L 12601,21958"/>
 <path fill="none" stroke="rgb(179,179,179)" stroke-linejoin="round" d="M 12601,22070 L 12601,21958"/>
 <path fill="none" stroke="rgb(179,179,179)" stroke-linejoin="round" d="M 12689,22070 L 12689,21958"/>
 <path fill="none" stroke="rgb(179,179,179)" stroke-linejoin="round" d="M 12689,22070 L 12689,21958"/>
 <path fill="none" stroke="rgb(179,179,179)" stroke-linejoin="round" d="M 12776,22070 L 12776,21958"/>
 <path fill="none" stroke="rgb(179,179,179)" stroke-linejoin="round" d="M 12776,22070 L 12776,21958"/>
 <path fill="none" stroke="rgb(179,179,179)" stroke-linejoin="round" d="M 12864,22070 L 12864,21958"/>
 <path fill="none" stroke="rgb(179,179,179)" stroke-linejoin="round" d="M 12864,22070 L 12864,21958"/>
 <path fill="none" stroke="rgb(179,179,179)" stroke-linejoin="round" d="M 12951,22070 L 12951,21958"/>
 <path fill="none" stroke="rgb(179,179,179)" stroke-linejoin="round" d="M 12951,22070 L 12951,21958"/>
 <path fill="none" stroke="rgb(179,179,179)" stroke-linejoin="round" d="M 13039,22070 L 13039,21958"/>
 <path fill="none" stroke="rgb(179,179,179)" stroke-linejoin="round" d="M 13039,22070 L 13039,21958"/>
 <path fill="none" stroke="rgb(179,179,179)" stroke-linejoin="round" d="M 13126,22070 L 13126,21958"/>
 <path fill="none" stroke="rgb(179,179,179)" stroke-linejoin="round" d="M 13126,22070 L 13126,21958"/>
 <path fill="none" stroke="rgb(179,179,179)" stroke-linejoin="round" d="M 13213,22070 L 13213,21958"/>
 <path fill="none" stroke="rgb(179,179,179)" stroke-linejoin="round" d="M 13213,22070 L 13213,21958"/>
 <path fill="none" stroke="rgb(179,179,179)" stroke-linejoin="round" d="M 13301,22070 L 13301,21958"/>
 <path fill="none" stroke="rgb(179,179,179)" stroke-linejoin="round" d="M 13301,22070 L 13301,21958"/>
 <path fill="none" stroke="rgb(179,179,179)" stroke-linejoin="round" d="M 13388,22070 L 13388,21958"/>
 <path fill="none" stroke="rgb(179,179,179)" stroke-linejoin="round" d="M 13388,22070 L 13388,21958"/>
 <path fill="none" stroke="rgb(179,179,179)" stroke-linejoin="round" d="M 13476,22070 L 13476,21958"/>
 <path fill="none" stroke="rgb(179,179,179)" stroke-linejoin="round" d="M 13476,22070 L 13476,21958"/>
 <path fill="none" stroke="rgb(179,179,179)" stroke-linejoin="round" d="M 13563,22070 L 13563,21958"/>
 <path fill="none" stroke="rgb(179,179,179)" stroke-linejoin="round" d="M 13563,22070 L 13563,21958"/>
 <path fill="none" stroke="rgb(179,179,179)" stroke-linejoin="round" d="M 13650,22070 L 13650,21958"/>
 <path fill="none" stroke="rgb(179,179,179)" stroke-linejoin="round" d="M 13650,22070 L 13650,21958"/>
 <path fill="none" stroke="rgb(179,179,179)" stroke-linejoin="round" d="M 13738,22070 L 13738,21958"/>
 <path fill="none" stroke="rgb(179,179,179)" stroke-linejoin="round" d="M 13738,22070 L 13738,21958"/>
 <path fill="none" stroke="rgb(179,179,179)" stroke-linejoin="round" d="M 13825,22070 L 13825,21958"/>
 <path fill="none" stroke="rgb(179,179,179)" stroke-linejoin="round" d="M 13825,22070 L 13825,21958"/>
 <path fill="none" stroke="rgb(179,179,179)" stroke-linejoin="round" d="M 13913,22070 L 13913,21958"/>
 <path fill="none" stroke="rgb(179,179,179)" stroke-linejoin="round" d="M 13913,22070 L 13913,21958"/>
 <path fill="none" stroke="rgb(179,179,179)" stroke-linejoin="round" d="M 14000,22070 L 14000,21958"/>
 <path fill="none" stroke="rgb(179,179,179)" stroke-linejoin="round" d="M 14000,22070 L 14000,21958"/>
 <path fill="none" stroke="rgb(179,179,179)" stroke-linejoin="round" d="M 14087,22070 L 14087,21958"/>
 <path fill="none" stroke="rgb(179,179,179)" stroke-linejoin="round" d="M 14087,22070 L 14087,21958"/>
 <path fill="none" stroke="rgb(179,179,179)" stroke-linejoin="round" d="M 14175,22070 L 14175,21958"/>
 <path fill="none" stroke="rgb(179,179,179)" stroke-linejoin="round" d="M 14175,22070 L 14175,21958"/>
 <path fill="none" stroke="rgb(179,179,179)" stroke-linejoin="round" d="M 14262,22070 L 14262,21958"/>
 <path fill="none" stroke="rgb(179,179,179)" stroke-linejoin="round" d="M 14262,22070 L 14262,21958"/>
 <path fill="none" stroke="rgb(179,179,179)" stroke-linejoin="round" d="M 14350,22070 L 14350,21958"/>
 <path fill="none" stroke="rgb(179,179,179)" stroke-linejoin="round" d="M 14350,22070 L 14350,21958"/>
 <path fill="none" stroke="rgb(179,179,179)" stroke-linejoin="round" d="M 14437,22070 L 14437,21958"/>
 <path fill="none" stroke="rgb(179,179,179)" stroke-linejoin="round" d="M 14437,22070 L 14437,21958"/>
 <path fill="none" stroke="rgb(179,179,179)" stroke-linejoin="round" d="M 14525,22070 L 14525,21958"/>
 <path fill="none" stroke="rgb(179,179,179)" stroke-linejoin="round" d="M 14525,22070 L 14525,21958"/>
 <path fill="none" stroke="rgb(179,179,179)" stroke-linejoin="round" d="M 14612,22070 L 14612,21958"/>
 <path fill="none" stroke="rgb(179,179,179)" stroke-linejoin="round" d="M 14612,22070 L 14612,21958"/>
 <path fill="none" stroke="rgb(179,179,179)" stroke-linejoin="round" d="M 14699,22070 L 14699,21958"/>
 <path fill="none" stroke="rgb(179,179,179)" stroke-linejoin="round" d="M 14699,22070 L 14699,21958"/>
 <path fill="none" stroke="rgb(179,179,179)" stroke-linejoin="round" d="M 14787,22070 L 14787,21958"/>
 <path fill="none" stroke="rgb(179,179,179)" stroke-linejoin="round" d="M 14787,22070 L 14787,21958"/>
 <path fill="none" stroke="rgb(179,179,179)" stroke-linejoin="round" d="M 14874,22070 L 14874,21958"/>
 <path fill="none" stroke="rgb(179,179,179)" stroke-linejoin="round" d="M 14874,22070 L 14874,21958"/>
 <path fill="none" stroke="rgb(179,179,179)" stroke-linejoin="round" d="M 14962,22070 L 14962,21958"/>
 <path fill="none" stroke="rgb(179,179,179)" stroke-linejoin="round" d="M 14962,22070 L 14962,21958"/>
 <path fill="none" stroke="rgb(179,179,179)" stroke-linejoin="round" d="M 15049,22070 L 15049,21958"/>
 <path fill="none" stroke="rgb(179,179,179)" stroke-linejoin="round" d="M 15049,22070 L 15049,21958"/>
 <path fill="none" stroke="rgb(179,179,179)" stroke-linejoin="round" d="M 15136,22070 L 15136,21958"/>
 <path fill="none" stroke="rgb(179,179,179)" stroke-linejoin="round" d="M 15136,22070 L 15136,21958"/>
 <path fill="none" stroke="rgb(179,179,179)" stroke-linejoin="round" d="M 15224,22070 L 15224,21958"/>
 <path fill="none" stroke="rgb(179,179,179)" stroke-linejoin="round" d="M 15224,22070 L 15224,21958"/>
 <path fill="none" stroke="rgb(179,179,179)" stroke-linejoin="round" d="M 15311,22070 L 15311,21958"/>
 <path fill="none" stroke="rgb(179,179,179)" stroke-linejoin="round" d="M 15311,22070 L 15311,21958"/>
 <path fill="none" stroke="rgb(179,179,179)" stroke-linejoin="round" d="M 15399,22070 L 15399,21958"/>
 <path fill="none" stroke="rgb(179,179,179)" stroke-linejoin="round" d="M 15399,22070 L 15399,21958"/>
 <path fill="none" stroke="rgb(179,179,179)" stroke-linejoin="round" d="M 15486,22070 L 15486,21958"/>
 <path fill="none" stroke="rgb(179,179,179)" stroke-linejoin="round" d="M 15486,22070 L 15486,21958"/>
 <path fill="none" stroke="rgb(179,179,179)" stroke-linejoin="round" d="M 15573,22070 L 15573,21958"/>
 <path fill="none" stroke="rgb(179,179,179)" stroke-linejoin="round" d="M 15573,22070 L 15573,21958"/>
 <path fill="none" stroke="rgb(179,179,179)" stroke-linejoin="round" d="M 15661,22070 L 15661,21958"/>
 <path fill="none" stroke="rgb(179,179,179)" stroke-linejoin="round" d="M 15661,22070 L 15661,21958"/>
 <path fill="none" stroke="rgb(179,179,179)" stroke-linejoin="round" d="M 15748,22070 L 15748,21958"/>
 <path fill="none" stroke="rgb(179,179,179)" stroke-linejoin="round" d="M 15748,22070 L 15748,21958"/>
 <path fill="none" stroke="rgb(179,179,179)" stroke-linejoin="round" d="M 15836,22070 L 15836,21958"/>
 <path fill="none" stroke="rgb(179,179,179)" stroke-linejoin="round" d="M 15836,22070 L 15836,21958"/>
 <path fill="none" stroke="rgb(179,179,179)" stroke-linejoin="round" d="M 15923,22070 L 15923,21958"/>
 <path fill="none" stroke="rgb(179,179,179)" stroke-linejoin="round" d="M 15923,22070 L 15923,21958"/>
 <path fill="none" stroke="rgb(179,179,179)" stroke-linejoin="round" d="M 16011,22070 L 16011,21958"/>
 <path fill="none" stroke="rgb(179,179,179)" stroke-linejoin="round" d="M 16011,22070 L 16011,21958"/>
 <path fill="none" stroke="rgb(179,179,179)" stroke-linejoin="round" d="M 16098,22070 L 16098,21958"/>
 <path fill="none" stroke="rgb(179,179,179)" stroke-linejoin="round" d="M 16098,22070 L 16098,21958"/>
 <path fill="none" stroke="rgb(179,179,179)" stroke-linejoin="round" d="M 16185,22070 L 16185,21958"/>
 <path fill="none" stroke="rgb(179,179,179)" stroke-linejoin="round" d="M 16185,22070 L 16185,21958"/>
 <path fill="none" stroke="rgb(179,179,179)" stroke-linejoin="round" d="M 16273,22070 L 16273,21958"/>
 <path fill="none" stroke="rgb(179,179,179)" stroke-linejoin="round" d="M 16273,22070 L 16273,21958"/>
 <path fill="none" stroke="rgb(179,179,179)" stroke-linejoin="round" d="M 16360,22070 L 16360,21958"/>
 <path fill="none" stroke="rgb(179,179,179)" stroke-linejoin="round" d="M 16360,22070 L 16360,21958"/>
 <path fill="none" stroke="rgb(179,179,179)" stroke-linejoin="round" d="M 16448,22070 L 16448,21958"/>
 <path fill="none" stroke="rgb(179,179,179)" stroke-linejoin="round" d="M 16448,22070 L 16448,21958"/>
 <path fill="none" stroke="rgb(179,179,179)" stroke-linejoin="round" d="M 16535,22070 L 16535,21958"/>
 <path fill="none" stroke="rgb(179,179,179)" stroke-linejoin="round" d="M 16535,22070 L 16535,21958"/>
 <path fill="none" stroke="rgb(179,179,179)" stroke-linejoin="round" d="M 16622,22070 L 16622,21958"/>
 <path fill="none" stroke="rgb(179,179,179)" stroke-linejoin="round" d="M 16622,22070 L 16622,21958"/>
 <path fill="none" stroke="rgb(179,179,179)" stroke-linejoin="round" d="M 16710,22070 L 16710,21958"/>
 <path fill="none" stroke="rgb(179,179,179)" stroke-linejoin="round" d="M 16710,22070 L 16710,21958"/>
 <path fill="none" stroke="rgb(179,179,179)" stroke-linejoin="round" d="M 16797,22070 L 16797,21958"/>
 <path fill="none" stroke="rgb(179,179,179)" stroke-linejoin="round" d="M 16797,22070 L 16797,21958"/>
 <path fill="none" stroke="rgb(179,179,179)" stroke-linejoin="round" d="M 16885,22070 L 16885,21958"/>
 <path fill="none" stroke="rgb(179,179,179)" stroke-linejoin="round" d="M 16885,22070 L 16885,21958"/>
 <path fill="none" stroke="rgb(179,179,179)" stroke-linejoin="round" d="M 16972,22070 L 16972,21958"/>
 <path fill="none" stroke="rgb(179,179,179)" stroke-linejoin="round" d="M 16972,22070 L 16972,21958"/>
 <path fill="none" stroke="rgb(179,179,179)" stroke-linejoin="round" d="M 17059,22070 L 17059,21958"/>
 <path fill="none" stroke="rgb(179,179,179)" stroke-linejoin="round" d="M 17059,22070 L 17059,21958"/>
 <path fill="none" stroke="rgb(179,179,179)" stroke-linejoin="round" d="M 17147,22070 L 17147,21958"/>
 <path fill="none" stroke="rgb(179,179,179)" stroke-linejoin="round" d="M 17147,22070 L 17147,21958"/>
 <path fill="none" stroke="rgb(179,179,179)" stroke-linejoin="round" d="M 17234,22070 L 17234,21958"/>
 <path fill="none" stroke="rgb(179,179,179)" stroke-linejoin="round" d="M 17234,22070 L 17234,21958"/>
 <path fill="none" stroke="rgb(179,179,179)" stroke-linejoin="round" d="M 17322,22070 L 17322,21958"/>
 <path fill="none" stroke="rgb(179,179,179)" stroke-linejoin="round" d="M 17322,22070 L 17322,21958"/>
 <path fill="none" stroke="rgb(179,179,179)" stroke-linejoin="round" d="M 17409,22070 L 17409,21958"/>
 <path fill="none" stroke="rgb(179,179,179)" stroke-linejoin="round" d="M 17409,22070 L 17409,21958"/>
 <path fill="none" stroke="rgb(179,179,179)" stroke-linejoin="round" d="M 17497,22070 L 17497,21958"/>
 <path fill="none" stroke="rgb(179,179,179)" stroke-linejoin="round" d="M 17497,22070 L 17497,21958"/>
 <path fill="none" stroke="rgb(179,179,179)" stroke-linejoin="round" d="M 17584,22070 L 17584,21958"/>
 <path fill="none" stroke="rgb(179,179,179)" stroke-linejoin="round" d="M 17584,22070 L 17584,21958"/>
 <path fill="none" stroke="rgb(179,179,179)" stroke-linejoin="round" d="M 17671,22070 L 17671,21958"/>
 <path fill="none" stroke="rgb(179,179,179)" stroke-linejoin="round" d="M 17671,22070 L 17671,21958"/>
 <path fill="none" stroke="rgb(179,179,179)" stroke-linejoin="round" d="M 17759,22070 L 17759,21958"/>
 <path fill="none" stroke="rgb(179,179,179)" stroke-linejoin="round" d="M 17759,22070 L 17759,21958"/>
 <path fill="none" stroke="rgb(179,179,179)" stroke-linejoin="round" d="M 17846,22070 L 17846,21958"/>
 <path fill="none" stroke="rgb(179,179,179)" stroke-linejoin="round" d="M 17846,22070 L 17846,21958"/>
 <path fill="none" stroke="rgb(179,179,179)" stroke-linejoin="round" d="M 17934,22070 L 17934,21958"/>
 <path fill="none" stroke="rgb(179,179,179)" stroke-linejoin="round" d="M 17934,22070 L 17934,21958"/>
 <path fill="none" stroke="rgb(179,179,179)" stroke-linejoin="round" d="M 18021,22070 L 18021,21958"/>
 <path fill="none" stroke="rgb(179,179,179)" stroke-linejoin="round" d="M 18021,22070 L 18021,21958"/>
 <path fill="none" stroke="rgb(179,179,179)" stroke-linejoin="round" d="M 18108,22070 L 18108,21958"/>
 <path fill="none" stroke="rgb(179,179,179)" stroke-linejoin="round" d="M 18108,22070 L 18108,21958"/>
 <path fill="none" stroke="rgb(179,179,179)" stroke-linejoin="round" d="M 18196,22070 L 18196,21958"/>
 <path fill="none" stroke="rgb(179,179,179)" stroke-linejoin="round" d="M 18196,22070 L 18196,21958"/>
 <path fill="none" stroke="rgb(179,179,179)" stroke-linejoin="round" d="M 18283,22070 L 18283,21958"/>
 <path fill="none" stroke="rgb(179,179,179)" stroke-linejoin="round" d="M 18283,22070 L 18283,21958"/>
 <path fill="none" stroke="rgb(179,179,179)" stroke-linejoin="round" d="M 18371,22070 L 18371,21958"/>
 <path fill="none" stroke="rgb(179,179,179)" stroke-linejoin="round" d="M 18371,22070 L 18371,21958"/>
 <path fill="none" stroke="rgb(179,179,179)" stroke-linejoin="round" d="M 18458,22070 L 18458,21958"/>
 <path fill="none" stroke="rgb(179,179,179)" stroke-linejoin="round" d="M 18458,22070 L 18458,21958"/>
 <path fill="none" stroke="rgb(179,179,179)" stroke-linejoin="round" d="M 18545,22070 L 18545,21958"/>
 <path fill="none" stroke="rgb(179,179,179)" stroke-linejoin="round" d="M 18545,22070 L 18545,21958"/>
 <path fill="none" stroke="rgb(179,179,179)" stroke-linejoin="round" d="M 18633,22070 L 18633,21958"/>
 <path fill="none" stroke="rgb(179,179,179)" stroke-linejoin="round" d="M 18633,22070 L 18633,21958"/>
 <path fill="none" stroke="rgb(179,179,179)" stroke-linejoin="round" d="M 18720,22070 L 18720,21958"/>
 <path fill="none" stroke="rgb(179,179,179)" stroke-linejoin="round" d="M 18720,22070 L 18720,21958"/>
 <path fill="none" stroke="rgb(179,179,179)" stroke-linejoin="round" d="M 18808,22070 L 18808,21958"/>
 <path fill="none" stroke="rgb(179,179,179)" stroke-linejoin="round" d="M 18808,22070 L 18808,21958"/>
 <path fill="none" stroke="rgb(179,179,179)" stroke-linejoin="round" d="M 18895,22070 L 18895,21958"/>
 <path fill="none" stroke="rgb(179,179,179)" stroke-linejoin="round" d="M 18895,22070 L 18895,21958"/>
 <path fill="none" stroke="rgb(179,179,179)" stroke-linejoin="round" d="M 18982,22070 L 18982,21958"/>
 <path fill="none" stroke="rgb(179,179,179)" stroke-linejoin="round" d="M 18982,22070 L 18982,21958"/>
 <path fill="none" stroke="rgb(179,179,179)" stroke-linejoin="round" d="M 1764,21958 L 18983,21958"/>
 <path fill="none" stroke="rgb(179,179,179)" stroke-linejoin="round" d="M 1614,21958 L 1764,21958"/>
 <path fill="none" stroke="rgb(179,179,179)" stroke-linejoin="round" d="M 1614,21958 L 1764,21958"/>
 <path fill="none" stroke="rgb(179,179,179)" stroke-linejoin="round" d="M 1614,15140 L 1764,15140"/>
 <path fill="none" stroke="rgb(179,179,179)" stroke-linejoin="round" d="M 1614,15140 L 1764,15140"/>
 <path fill="none" stroke="rgb(179,179,179)" stroke-linejoin="round" d="M 1614,8323 L 1764,8323"/>
 <path fill="none" stroke="rgb(179,179,179)" stroke-linejoin="round" d="M 1614,8323 L 1764,8323"/>
 <path fill="none" stroke="rgb(179,179,179)" stroke-linejoin="round" d="M 1614,1505 L 1764,1505"/>
 <path fill="none" stroke="rgb(179,179,179)" stroke-linejoin="round" d="M 1614,1505 L 1764,1505"/>
 <path fill="none" stroke="rgb(179,179,179)" stroke-linejoin="round" d="M 1764,21958 L 1764,1505"/>
 <path fill="none" stroke="rgb(197,0,11)" stroke-width="80" stroke-linejoin="round" stroke-dasharray="158,158" d="M 1764,19974 L 1851,19974 1938,19882 2026,19868 2113,19841 2201,19841 2288,19813 2375,19813 2463,19813 2550,19732 2638,19732 2725,19661 2812,19661 2900,19586 2987,19586 3075,19586 3162,19420 3249,19420 3337,19340 3424,19340 3512,19197 3599,19197 3687,19197 3774,18991 3861,18991 3949,18864 4036,18864 4124,18717 4211,18717 4298,18717 4386,18488 4473,18488 4561,18340 4648,18340 4735,18234 4823,18234 4910,18234 4998,17775 5085,17775 5173,17425 5260,17425 5347,17200 5435,17200 5522,17200 5610,16672 5697,16672 5784,16328 5872,16328 5959,15998 6047,15998 6134,15998 6221,15564 6309,15564 6396,15232 6484,15232 6571,14831 6659,14831 6746,14831 6833,14325 6921,14175 7008,13986 7096,13897 7183,13725 7270,13564 7358,13442 7445,13331 7533,13292 7620,13054 7707,12895 7795,12895 7882,12570 7970,12457 8057,12362 8145,12291 8232,12133 8319,12046 8407,11854 8494,11854 8582,11595 8669,11521 8756,11456 8844,11338 8931,11253 9019,11119 9106,11004 9193,10918 9281,10833 9368,10750 9456,10614 9543,10427 9631,10293 9718,10293 9805,10113 9893,10055 9980,9975 10068,9883 10155,9774 10242,9684 10330,9596 10417,9516 10505,9456 10592,9381 10679,9319 10767,9269 10854,9188 10942,9096 11029,9008 11116,8930 11204,8930 11291,8818 11379,8782 11466,8689 11554,8616 11641,8586 11728,8542 11815,8488 11902,8424 11990,8371 12077,8270 12164,8182 12252,8156 12339,8060 12427,7983 12514,7870 12601,7753 12689,7633 12776,7547 12864,7501 12951,7400 13039,7296 13126,7226 13213,7226 13301,6977 13388,6806 13476,6806 13563,6806 13650,6636 13738,6396 13825,6308 13913,6170 14000,6008 14087,5929 14175,5929 14262,5733 14350,5531 14437,5406 14525,5341 14612,5194 14699,5106 14787,5023 14874,4949 14962,4811 15049,4700 15136,4598 15224,4513 15311,4421 15399,4360 15486,4280 15573,4187 15661,4068 15748,4007 15836,3947 15923,3867 16011,3825 16098,3760 16185,3689 16273,3620 16360,3557 16448,3493 16535,3422 16622,3361 16710,3331 16797,3281 16885,3234 16972,3172 17059,3124 17147,3077 17234,3054 17322,3006 17409,2942 17497,2900 17584,2859 17671,2812 17759,2782 17846,2741 17934,2708 18021,2637 18108,2588 18196,2549 18283,2512 18371,2471 18458,2424 18545,2388 18633,2316 18720,2316 18808,2194 18895,2143 18983,2076"/>
 <path fill="none" stroke="rgb(112,110,12)" stroke-width="80" stroke-linejoin="round" stroke-dasharray="80,40" d="M 1764,20931 L 1851,20918 1938,20908 2026,20890 2113,20868 2201,20836 2288,20812 2375,20780 2463,20752 2550,20729 2638,20682 2725,20634 2812,20607 2900,20571 2987,20540 3075,20500 3162,20459 3249,20424 3337,20375 3424,20329 3512,20283 3599,20243 3687,20088 3774,20038 3861,19974 3949,19911 4036,19848 4124,19795 4211,19744 4298,19718 4386,19691 4473,19662 4561,19619 4648,19572 4735,19419 4823,19366 4910,19325 4998,19274 5085,19225 5173,19180 5260,19134 5347,19060 5435,18996 5522,18946 5610,18907 5697,18860 5784,18818 5872,18772 5959,18640 6047,18608 6134,18567 6221,18536 6309,18507 6396,18469 6484,18427 6571,18389 6659,18347 6746,18311 6833,18286 6921,18247 7008,18182 7096,18105 7183,18035 7270,17975 7358,17894 7445,17787 7533,17620 7620,17431 7707,17282 7795,17164 7882,17099 7970,17006 8057,16832 8145,16713 8232,16559 8319,16419 8407,16289 8494,16164 8582,16057 8669,15928 8756,15793 8844,15655 8931,15536 9019,15427 9106,15302 9193,15214 9281,15093 9368,14969 9456,14835 9543,14724 9631,14611 9718,14477 9805,14384 9893,14301 9980,14174 10068,14065 10155,13939 10242,13823 10330,13734 10417,13654 10505,13585 10592,13457 10679,13358 10767,13237 10854,13155 10942,13067 11029,12963 11116,12882 11204,12807 11291,12717 11379,12623 11466,12537 11554,12468 11641,12414 11728,12343 11815,12287 11902,12174 11990,12096 12077,11982 12164,11899 12252,11820 12339,11761 12427,11667 12514,11585 12601,11484 12689,11409 12776,11351 12864,11278 12951,11183 13039,11091 13126,10952 13213,10851 13301,10756 13388,10669 13476,10575 13563,10491 13650,10378 13738,10269 13825,10166 13913,10076 14000,9988 14087,9910 14175,9843 14262,9751 14350,9675 14437,9584 14525,9479 14612,9381 14699,9297 14787,9215 14874,9092 14962,8970 15049,8869 15136,8752 15224,8671 15311,8572 15399,8504 15486,8394 15573,8255 15661,8143 15748,8027 15836,7903 15923,7797 16011,7704 16098,7578 16185,7443 16273,7316 16360,7194 16448,7092 16535,6995 16622,6914 16710,6811 16797,6723 16885,6618 16972,6519 17059,6415 17147,6328 17234,6241 17322,6116 17409,5977 17497,5853 17584,5721 17671,5603 17759,5494 17846,5397 17934,5270 18021,5134 18108,5011 18196,4886 18283,4755 18371,4639 18458,4548 18545,4415 18633,4273 18720,4149 18808,4023 18895,3902 18983,3788"/>
 <path fill="none" stroke="rgb(255,191,0)" stroke-width="80" stroke-linejoin="round" d="M 1764,21650 L 1851,21647 1938,21644 2026,21637 2113,21629 2201,21621 2288,21610 2375,21604 2463,21599 2550,21592 2638,21577 2725,21562 2812,21545 2900,21526 2987,21507 3075,21496 3162,21483 3249,21462 3337,21435 3424,21395 3512,21368 3599,21342 3687,21330 3774,21311 3861,21281 3949,21251 4036,21214 4124,21177 4211,21151 4298,21135 4386,21118 4473,21093 4561,21056 4648,21012 4735,20963 4823,20931 4910,20907 4998,20868 5085,20811 5173,20743 5260,20674 5347,20565 5435,20505 5522,20466 5610,20411 5697,20305 5784,20184 5872,20060 5959,19918 6047,19807 6134,19743 6221,19640 6309,19488 6396,19297 6484,19117 6571,18923 6659,18764 6746,18671 6833,18540 6921,18340 7008,18175 7096,18009 7183,17836 7270,17690 7358,17607 7445,17489 7533,17335 7620,17135 7707,16967 7795,16820 7882,16721 7970,16675 8057,16598 8145,16483 8232,16369 8319,16269 8407,16175 8494,16122 8582,16098 8669,16029 8756,15975 8844,15905 8931,15822 9019,15748 9106,15708 9193,15689 9281,15633 9368,15558 9456,15495 9543,15444 9631,15387 9718,15353 9805,15339 9893,15294 9980,15228 10068,15170 10155,15111 10242,15051 10330,15008 10417,14994 10505,14940 10592,14866 10679,14784 10767,14709 10854,14630 10942,14583 11029,14558 11116,14492 11204,14391 11291,14286 11379,14189 11466,14077 11554,14009 11641,13966 11728,13864 11815,13726 11902,13546 11990,13490 12077,13456 12164,13417 12252,13369 12339,13230 12427,13020 12514,12803 12601,12633 12689,12590 12776,12526 12864,12446 12951,12281 13039,12060 13126,11834 13213,11645 13301,11478 13388,11371 13476,11316 13563,11197 13650,11059 13738,10920 13825,10817 13913,10699 14000,10632 14087,10598 14175,10501 14262,10378 14350,10274 14437,10178 14525,10070 14612,10016 14699,9986 14787,9897 14874,9780 14962,9671 15049,9569 15136,9467 15224,9415 15311,9383 15399,9291 15486,9174 15573,9051 15661,8948 15748,8838 15836,8777 15923,8746 16011,8646 16098,8516 16185,8394 16273,8279 16360,8167 16448,8101 16535,8065 16622,7951 16710,7791 16797,7652 16885,7503 16972,7359 17059,7273 17147,7221 17234,7076 17322,6874 17409,6698 17497,6513 17584,6324 17671,6225 17759,6166 17846,6010 17934,5796 18021,5602 18108,5415 18196,5248 18283,5132 18371,5081 18458,4946 18545,4750 18633,4565 18720,4422 18808,4231 18895,4143 18983,4101"/>
 <path fill="none" stroke="rgb(131,202,255)" stroke-width="80" stroke-linejoin="round" stroke-dasharray="158,158" d="M 1764,21772 L 1851,21770 1938,21768 2026,21766 2113,21762 2201,21759 2288,21756 2375,21753 2463,21750 2550,21748 2638,21746 2725,21740 2812,21735 2900,21728 2987,21721 3075,21715 3162,21712 3249,21706 3337,21698 3424,21691 3512,21682 3599,21675 3687,21668 3774,21664 3861,21659 3949,21650 4036,21642 4124,21629 4211,21617 4298,21607 4386,21604 4473,21598 4561,21584 4648,21573 4735,21557 4823,21542 4910,21531 4998,21520 5085,21514 5173,21490 5260,21465 5347,21441 5435,21416 5522,21389 5610,21378 5697,21352 5784,21306 5872,21257 5959,21202 6047,21143 6134,21096 6221,21060 6309,21008 6396,20909 6484,20800 6571,20691 6659,20562 6746,20452 6833,20378 6921,20278 7008,20107 7096,19944 7183,19826 7270,19707 7358,19619 7445,19583 7533,19506 7620,19373 7707,19262 7795,19160 7882,19054 7970,18995 8057,18965 8145,18893 8232,18748 8319,18621 8407,18522 8494,18408 8582,18347 8669,18314 8756,18223 8844,18090 8931,17954 9019,17853 9106,17741 9193,17674 9281,17643 9368,17558 9456,17412 9543,17296 9631,17191 9718,17087 9805,17013 9893,16985 9980,16898 10068,16739 10155,16622 10242,16505 10330,16397 10417,16329 10505,16298 10592,16190 10679,16049 10767,15928 10854,15809 10942,15695 11029,15640 11116,15612 11204,15511 11291,15372 11379,15264 11466,15165 11554,15070 11641,15011 11728,14986 11815,14886 11902,14747 11990,14610 12077,14492 12164,14468 12252,14427 12339,14393 12427,14263 12514,14104 12601,13945 12689,13827 12776,13802 12864,13753 12951,13702 13039,13538 13126,13318 13213,13133 13301,12996 13388,12872 13476,12822 13563,12794 13650,12671 13738,12533 13825,12416 13913,12315 14000,12214 14087,12176 14175,12157 14262,12044 14350,11932 14437,11836 14525,11743 14612,11641 14699,11606 14787,11587 14874,11476 14962,11355 15049,11252 15136,11167 15224,11078 15311,11039 15399,11016 15486,10907 15573,10801 15661,10720 15748,10657 15836,10598 15923,10565 16011,10546 16098,10522 16185,10428 16273,10340 16360,10275 16448,10208 16535,10186 16622,10167 16710,10118 16797,10047 16885,9989 16972,9929 17059,9867 17147,9839 17234,9823 17322,9764 17409,9693 17497,9643 17584,9583 17671,9521 17759,9491 17846,9475 17934,9427 18021,9348 18108,9281 18196,9223 18283,9163 18371,9138 18458,9124 18545,9075 18633,9013 18720,8956 18808,8906 18895,8850 18983,8816"/>
 <path fill="none" stroke="rgb(89,131,176)" stroke-width="80" stroke-linejoin="round" stroke-dasharray="158,158" d="M 1764,20167 L 1851,20150 1938,20116 2026,20080 2113,20030 2201,19988 2288,19947 2375,19923 2463,19889 2550,19835 2638,19780 2725,19717 2812,19652 2900,19589 2987,19546 3075,19496 3162,19421 3249,19333 3337,19261 3424,19177 3512,19092 3599,19032 3687,18992 3774,18931 3861,18820 3949,18708 4036,18578 4124,18446 4211,18353 4298,18300 4386,18281 4473,18203 4561,18060 4648,17938 4735,17827 4823,17786 4910,17740 4998,17650 5085,17575 5173,17509 5260,17450 5347,17404 5435,17389 5522,17363 5610,17313 5697,17277 5784,17243 5872,17218 5959,17194 6047,17188 6134,17173 6221,17149 6309,17130 6396,17112 6484,17096 6571,17082 6659,17079 6746,17069 6833,17055 6921,17041 7008,17030 7096,17020 7183,17009 7270,17005 7358,16995 7445,16982 7533,16969 7620,16957 7707,16948 7795,16937 7882,16934 7970,16925 8057,16914 8145,16903 8232,16891 8319,16878 8407,16866 8494,16862 8582,16852 8669,16838 8756,16825 8844,16812 8931,16800 9019,16788 9106,16781 9193,16769 9281,16754 9368,16741 9456,16724 9543,16707 9631,16690 9718,16681 9805,16665 9893,16645 9980,16626 10068,16602 10155,16579 10242,16568 10330,16541 10417,16524 10505,16494 10592,16471 10679,16439 10767,16406 10854,16392 10942,16352 11029,16331 11116,16294 11204,16276 11291,16207 11379,16160 11466,16126 11554,16083 11641,16054 11728,15998 11815,15932 11902,15892 11990,15818 12077,15744 12164,15677 12252,15633 12339,15541 12427,15461 12514,15395 12601,15289 12689,15207 12776,15108 12864,15001 12951,14897 13039,14771 13126,14656 13213,14537 13301,14437 13388,14310 13476,14217 13563,14064 13650,13922 13738,13764 13825,13611 13913,13528 14000,13395 14087,13266 14175,13163 14262,13047 14350,12886 14437,12775 14525,12678 14612,12600 14699,12546 14787,12488 14874,12353 14962,12165 15049,12050 15136,11970 15224,11894 15311,11821 15399,11683 15486,11561 15573,11421 15661,11315 15748,11232 15836,11158 15923,11055 16011,10985 16098,10872 16185,10777 16273,10697 16360,10635 16448,10586 16535,10547 16622,10453 16710,10386 16797,10322 16885,10270 16972,10229 17059,10229 17147,10142 17234,10064 17322,9992 17409,9926 17497,9864 17584,9816 17671,9775 17759,9736 17846,9671 17934,9588 18021,9521 18108,9459 18196,9411 18283,9360 18371,9330 18458,9275 18545,9225 18633,9174 18720,9131 18808,9100 18895,9075 18983,9056"/>
 <path fill="none" stroke="rgb(0,0,255)" stroke-width="80" stroke-linejoin="round" stroke-dasharray="158,158" d="M 1764,21862 L 1851,21861 1938,21860 2026,21858 2113,21857 2201,21854 2288,21850 2375,21844 2463,21842 2550,21842 2638,21839 2725,21835 2812,21831 2900,21826 2987,21821 3075,21819 3162,21818 3249,21813 3337,21811 3424,21807 3512,21801 3599,21794 3687,21791 3774,21789 3861,21784 3949,21776 4036,21767 4124,21756 4211,21743 4298,21731 4386,21724 4473,21718 4561,21704 4648,21684 4735,21667 4823,21650 4910,21629 4998,21621 5085,21613 5173,21591 5260,21565 5347,21535 5435,21488 5522,21462 5610,21449 5697,21436 5784,21401 5872,21352 5959,21301 6047,21251 6134,21212 6221,21191 6309,21173 6396,21118 6484,21075 6571,21011 6659,20938 6746,20862 6833,20830 6921,20807 7008,20735 7096,20666 7183,20582 7270,20517 7358,20460 7445,20413 7533,20370 7620,20290 7707,20241 7795,20182 7882,20118 7970,20072 8057,20058 8145,20031 8232,19980 8319,19915 8407,19865 8494,19820 8582,19790 8669,19778 8756,19745 8844,19712 8931,19670 9019,19625 9106,19578 9193,19554 9281,19548 9368,19523 9456,19477 9543,19429 9631,19382 9718,19344 9805,19317 9893,19312 9980,19280 10068,19229 10155,19180 10242,19125 10330,19074 10417,19042 10505,19028 10592,18980 10679,18916 10767,18837 10854,18783 10942,18691 11029,18636 11116,18623 11204,18573 11291,18484 11379,18408 11466,18308 11554,18229 11641,18178 11728,18147 11815,18081 11902,17989 11990,17922 12077,17821 12164,17795 12252,17773 12339,17759 12427,17707 12514,17631 12601,17473 12689,17349 12776,17306 12864,17275 12951,17260 13039,17185 13126,17061 13213,17008 13301,16933 13388,16832 13476,16757 13563,16736 13650,16676 13738,16586 13825,16513 13913,16445 14000,16394 14087,16380 14175,16353 14262,16306 14350,16244 14437,16182 14525,16137 14612,16099 14699,16051 14787,16038 14874,15998 14962,15928 15049,15878 15136,15813 15224,15759 15311,15716 15399,15705 15486,15661 15573,15593 15661,15541 15748,15475 15836,15419 15923,15381 16011,15362 16098,15319 16185,15239 16273,15177 16360,15116 16448,15058 16535,15022 16622,15008 16710,14972 16797,14893 16885,14829 16972,14771 17059,14703 17147,14661 17234,14645 17322,14595 17409,14506 17497,14445 17584,14379 17671,14308 17759,14263 17846,14242 17934,14190 18021,14106 18108,14036 18196,13976 18283,13913 18371,13881 18458,13871 18545,13815 18633,13726 18720,13676 18808,13619 18895,13560 18983,13528"/>
 <path fill="none" stroke="rgb(131,202,255)" stroke-width="80" stroke-linejoin="round" stroke-dasharray="80,40" d="M 1764,21630 L 1851,21621 1938,21616 2026,21612 2113,21601 2201,21589 2288,21578 2375,21568 2463,21560 2550,21556 2638,21549 2725,21538 2812,21528 2900,21522 2987,21513 3075,21508 3162,21506 3249,21501 3337,21492 3424,21483 3512,21475 3599,21468 3687,21462 3774,21460 3861,21455 3949,21448 4036,21440 4124,21433 4211,21426 4298,21420 4386,21418 4473,21413 4561,21406 4648,21399 4735,21388 4823,21380 4910,21371 4998,21366 5085,21357 5173,21345 5260,21327 5347,21312 5435,21295 5522,21279 5610,21273 5697,21260 5784,21235 5872,21209 5959,21171 6047,21135 6134,21108 6221,21095 6309,21065 6396,21018 6484,20966 6571,20904 6659,20830 6746,20749 6833,20722 6921,20675 7008,20596 7096,20503 7183,20411 7270,20319 7358,20247 7445,20208 7533,20161 7620,20079 7707,19984 7795,19888 7882,19808 7970,19724 8057,19673 8145,19624 8232,19538 8319,19436 8407,19334 8494,19239 8582,19161 8669,19117 8756,19052 8844,18944 8931,18839 9019,18741 9106,18622 9193,18512 9281,18447 9368,18370 9456,18250 9543,18117 9631,17981 9718,17849 9805,17752 9893,17691 9980,17595 10068,17477 10155,17327 10242,17195 10330,17060 10417,16963 10505,16901 10592,16814 10679,16664 10767,16510 10854,16364 10942,16227 11029,16115 11116,16066 11204,15988 11291,15878 11379,15747 11466,15639 11554,15547 11641,15482 11728,15456 11815,15403 11902,15311 11990,15237 12077,15183 12164,15171 12252,15151 12339,15140 12427,15095 12514,15034 12601,14954 12689,14916 12776,14907 12864,14884 12951,14872 13039,14836 13126,14773 13213,14755 13301,14718 13388,14672 13476,14650 13563,14643 13650,14617 13738,14580 13825,14547 13913,14523 14000,14498 14087,14485 14175,14480 14262,14462 14350,14432 14437,14407 14525,14385 14612,14365 14699,14354 14787,14349 14874,14334 14962,14306 15049,14285 15136,14267 15224,14248 15311,14237 15399,14234 15486,14221 15573,14197 15661,14180 15748,14162 15836,14148 15923,14138 16011,14136 16098,14127 16185,14107 16273,14095 16360,14083 16448,14070 16535,14064 16622,14061 16710,14052 16797,14035 16885,14023 16972,14010 17059,13996 17147,13988 17234,13985 17322,13974 17409,13951 17497,13933 17584,13916 17671,13899 17759,13887 17846,13884 17934,13871 18021,13846 18108,13824 18196,13804 18283,13782 18371,13769 18458,13766 18545,13750 18633,13718 18720,13692 18808,13665 18895,13637 18983,13619"/>
 <path fill="none" stroke="rgb(0,0,255)" stroke-width="80" stroke-linejoin="round" stroke-dasharray="51,127,51,127,254,127,254,127,254,127" d="M 1764,21385 L 1851,21382 1938,21372 2026,21366 2113,21358 2201,21350 2288,21341 2375,21336 2463,21332 2550,21320 2638,21312 2725,21303 2812,21293 2900,21283 2987,21276 3075,21271 3162,21257 3249,21248 3337,21237 3424,21225 3512,21212 3599,21203 3687,21196 3774,21180 3861,21169 3949,21156 4036,21142 4124,21127 4211,21117 4298,21109 4386,21093 4473,21085 4561,21068 4648,21053 4735,21038 4823,21025 4910,21015 4998,20999 5085,20983 5173,20964 5260,20942 5347,20917 5435,20894 5522,20878 5610,20855 5697,20833 5784,20804 5872,20769 5959,20735 6047,20704 6134,20676 6221,20641 6309,20607 6396,20564 6484,20515 6571,20461 6659,20414 6746,20382 6833,20315 6921,20263 7008,20204 7096,20137 7183,20067 7270,20014 7358,19964 7445,19881 7533,19816 7620,19769 7707,19695 7795,19619 7882,19548 7970,19499 8057,19447 8145,19393 8232,19324 8319,19261 8407,19198 8494,19146 8582,19106 8669,19057 8756,18996 8844,18938 8931,18880 9019,18823 9106,18778 9193,18746 9281,18709 9368,18661 9456,18611 9543,18563 9631,18516 9718,18480 9805,18454 9893,18424 9980,18385 10068,18344 10155,18299 10242,18258 10330,18219 10417,18192 10505,18167 10592,18127 10679,18085 10767,18038 10854,17993 10942,17955 11029,17925 11116,17898 11204,17854 11291,17805 11379,17756 11466,17708 11554,17671 11641,17644 11728,17613 11815,17567 11902,17519 11990,17475 12077,17446 12164,17427 12252,17408 12339,17381 12427,17336 12514,17276 12601,17227 12689,17196 12776,17176 12864,17152 12951,17119 13039,17065 13126,17016 13213,16948 13301,16898 13388,16859 13476,16832 13563,16792 13650,16745 13738,16692 13825,16643 13913,16597 14000,16566 14087,16542 14175,16499 14262,16457 14350,16405 14437,16359 14525,16312 14612,16282 14699,16258 14787,16214 14874,16174 14962,16126 15049,16081 15136,16038 15224,16008 15311,15988 15399,15949 15486,15913 15573,15871 15661,15839 15748,15794 15836,15769 15923,15749 16011,15722 16098,15693 16185,15659 16273,15625 16360,15593 16448,15570 16535,15552 16622,15530 16710,15502 16797,15469 16885,15434 16972,15400 17059,15373 17147,15351 17234,15328 17322,15296 17409,15257 17497,15217 17584,15179 17671,15147 17759,15121 17846,15098 17934,15087 18021,15045 18108,15004 18196,14963 18283,14928 18371,14900 18458,14878 18545,14839 18633,14791 18720,14747 18808,14701 18895,14660 18983,14626"/>
 <path fill="none" stroke="rgb(255,128,0)" stroke-width="80" stroke-linejoin="round" stroke-dasharray="158,158" d="M 1764,21877 L 1851,21873 1938,21871 2026,21869 2113,21864 2201,21860 2288,21853 2375,21846 2463,21839 2550,21831 2638,21826 2725,21820 2812,21814 2900,21804 2987,21791 3075,21784 3162,21772 3249,21762 3337,21753 3424,21743 3512,21730 3599,21719 3687,21704 3774,21691 3861,21682 3949,21669 4036,21658 4124,21645 4211,21632 4298,21619 4386,21609 4473,21597 4561,21584 4648,21572 4735,21553 4823,21538 4910,21526 4998,21513 5085,21502 5173,21490 5260,21477 5347,21460 5435,21441 5522,21426 5610,21409 5697,21395 5784,21382 5872,21368 5959,21350 6047,21325 6134,21304 6221,21283 6309,21269 6396,21249 6484,21221 6571,21191 6659,21166 6746,21121 6833,21089 6921,21059 7008,21027 7096,20996 7183,20949 7270,20894 7358,20840 7445,20789 7533,20733 7620,20673 7707,20618 7795,20551 7882,20476 7970,20410 8057,20337 8145,20279 8232,20223 8319,20168 8407,20096 8494,20028 8582,19968 8669,19876 8756,19803 8844,19742 8931,19678 9019,19616 9106,19554 9193,19493 9281,19446 9368,19390 9456,19336 9543,19247 9631,19156 9718,19068 9805,18972 9893,18893 9980,18837 10068,18779 10155,18685 10242,18597 10330,18519 10417,18425 10505,18370 10592,18339 10679,18293 10767,18217 10854,18129 10942,18058 11029,18000 11116,17951 11204,17924 11291,17884 11379,17842 11466,17780 11554,17723 11641,17681 11728,17650 11815,17633 11902,17606 11990,17560 12077,17523 12164,17506 12252,17496 12339,17488 12427,17475 12514,17447 12601,17405 12689,17366 12776,17346 12864,17328 12951,17316 13039,17303 13126,17274 13213,17231 13301,17190 13388,17152 13476,17127 13563,17107 13650,17097 13738,17078 13825,17050 13913,17029 14000,17009 14087,16991 14175,16979 14262,16971 14350,16957 14437,16937 14525,16919 14612,16900 14699,16882 14787,16870 14874,16864 14962,16849 15049,16827 15136,16807 15224,16787 15311,16769 15399,16753 15486,16745 15573,16730 15661,16707 15748,16684 15836,16662 15923,16643 16011,16627 16098,16612 16185,16593 16273,16567 16360,16541 16448,16512 16535,16488 16622,16469 16710,16458 16797,16436 16885,16396 16972,16352 17059,16310 17147,16269 17234,16232 17322,16209 17409,16168 17497,16106 17584,16041 17671,15971 17759,15908 17846,15847 17934,15808 18021,15748 18108,15660 18196,15570 18283,15467 18371,15379 18458,15341 18545,15250 18633,15170 18720,15053 18808,14925 18895,14792 18983,14667"/>
 <path fill="none" stroke="rgb(0,169,51)" stroke-width="80" stroke-linejoin="round" stroke-dasharray="80,40" d="M 1764,21719 L 1851,21717 1938,21715 2026,21713 2113,21711 2201,21708 2288,21706 2375,21704 2463,21702 2550,21701 2638,21700 2725,21698 2812,21696 2900,21694 2987,21692 3075,21690 3162,21689 3249,21687 3337,21685 3424,21682 3512,21679 3599,21675 3687,21672 3774,21669 3861,21667 3949,21663 4036,21659 4124,21653 4211,21648 4298,21643 4386,21638 4473,21633 4561,21628 4648,21621 4735,21612 4823,21604 4910,21597 4998,21590 5085,21582 5173,21571 5260,21555 5347,21538 5435,21519 5522,21504 5610,21488 5697,21470 5784,21447 5872,21417 5959,21390 6047,21355 6134,21324 6221,21297 6309,21264 6396,21228 6484,21184 6571,21135 6659,21086 6746,21043 6833,21007 6921,20948 7008,20880 7096,20807 7183,20729 7270,20651 7358,20589 7445,20533 7533,20463 7620,20374 7707,20276 7795,20178 7882,20078 7970,19989 8057,19911 8145,19819 8232,19728 8319,19646 8407,19560 8494,19467 8582,19389 8669,19314 8756,19245 8844,19173 8931,19087 9019,19006 9106,18918 9193,18854 9281,18800 9368,18682 9456,18627 9543,18567 9631,18504 9718,18450 9805,18408 9893,18388 9980,18355 10068,18305 10155,18251 10242,18204 10330,18159 10417,18126 10505,18110 10592,18080 10679,18036 10767,17987 10854,17939 10942,17898 11029,17866 11116,17848 11204,17823 11291,17778 11379,17735 11466,17696 11554,17655 11641,17624 11728,17608 11815,17582 11902,17537 11990,17490 12077,17457 12164,17440 12252,17426 12339,17414 12427,17387 12514,17341 12601,17292 12689,17253 12776,17228 12864,17207 12951,17191 13039,17164 13126,17112 13213,17069 13301,17037 13388,16998 13476,16966 13563,16948 13650,16929 13738,16896 13825,16862 13913,16833 14000,16807 14087,16785 14175,16773 14262,16756 14350,16731 14437,16705 14525,16681 14612,16658 14699,16642 14787,16632 14874,16615 14962,16591 15049,16565 15136,16543 15224,16522 15311,16505 15399,16496 15486,16480 15573,16456 15661,16432 15748,16411 15836,16389 15923,16372 16011,16363 16098,16349 16185,16324 16273,16298 16360,16275 16448,16252 16535,16233 16622,16223 16710,16205 16797,16173 16885,16141 16972,16109 17059,16078 17147,16053 17234,16039 17322,16016 17409,15973 17497,15929 17584,15887 17671,15844 17759,15807 17846,15790 17934,15761 18021,15705 18108,15650 18196,15593 18283,15539 18371,15490 18458,15468 18545,15432 18633,15370 18720,15294 18808,15226 18895,15150 18983,15088"/>
 <path fill="none" stroke="rgb(255,0,0)" stroke-width="80" stroke-linejoin="round" stroke-dasharray="158,158" d="M 1764,21349 L 1851,21342 1938,21337 2026,21330 2113,21320 2201,21311 2288,21301 2375,21292 2463,21284 2550,21278 2638,21270 2725,21261 2812,21251 2900,21241 2987,21232 3075,21224 3162,21219 3249,21211 3337,21199 3424,21187 3512,21176 3599,21167 3687,21158 3774,21152 3861,21145 3949,21132 4036,21121 4124,21109 4211,21098 4298,21088 4386,21079 4473,21069 4561,21053 4648,21038 4735,21022 4823,21007 4910,20994 4998,20983 5085,20968 5173,20947 5260,20925 5347,20902 5435,20877 5522,20857 5610,20842 5697,20820 5784,20792 5872,20763 5959,20735 6047,20707 6134,20679 6221,20661 6309,20637 6396,20603 6484,20568 6571,20533 6659,20499 6746,20471 6833,20451 6921,20418 7008,20380 7096,20334 7183,20288 7270,20247 7358,20209 7445,20180 7533,20126 7620,20064 7707,19995 7795,19923 7882,19852 7970,19804 8057,19781 8145,19730 8232,19660 8319,19588 8407,19521 8494,19454 8582,19404 8669,19369 8756,19310 8844,19237 8931,19166 9019,19100 9106,19031 9193,18990 9281,18960 9368,18905 9456,18836 9543,18772 9631,18712 9718,18655 9805,18615 9893,18588 9980,18558 10068,18523 10155,18469 10242,18411 10330,18354 10417,18317 10505,18291 10592,18239 10679,18186 10767,18136 10854,18090 10942,18046 11029,18014 11116,17991 11204,17947 11291,17905 11379,17864 11466,17827 11554,17790 11641,17766 11728,17749 11815,17713 11902,17674 11990,17644 12077,17617 12164,17607 12252,17593 12339,17574 12427,17541 12514,17507 12601,17476 12689,17448 12776,17440 12864,17418 12951,17396 13039,17362 13126,17322 13213,17287 13301,17252 13388,17221 13476,17199 13563,17185 13650,17159 13738,17128 13825,17103 13913,17079 14000,17056 14087,17041 14175,17030 14262,17011 14350,16989 14437,16969 14525,16950 14612,16931 14699,16918 14787,16907 14874,16886 14962,16864 15049,16843 15136,16824 15224,16805 15311,16792 15399,16783 15486,16764 15573,16744 15661,16725 15748,16707 15836,16689 15923,16675 16011,16665 16098,16645 16185,16624 16273,16605 16360,16587 16448,16570 16535,16557 16622,16547 16710,16528 16797,16508 16885,16487 16972,16467 17059,16448 17147,16431 17234,16419 17322,16395 17409,16372 17497,16344 17584,16317 17671,16293 17759,16273 17846,16258 17934,16230 18021,16200 18108,16169 18196,16139 18283,16110 18371,16086 18458,16070 18545,16035 18633,16003 18720,15966 18808,15930 18895,15895 18983,15864"/>
 <path fill="none" stroke="rgb(0,169,51)" stroke-width="80" stroke-linejoin="round" stroke-dasharray="158,158" d="M 1764,21640 L 1851,21640 1938,21638 2026,21635 2113,21631 2201,21628 2288,21625 2375,21623 2463,21622 2550,21621 2638,21618 2725,21615 2812,21612 2900,21608 2987,21606 3075,21606 3162,21603 3249,21600 3337,21597 3424,21594 3512,21590 3599,21588 3687,21587 3774,21584 3861,21582 3949,21579 4036,21573 4124,21568 4211,21565 4298,21564 4386,21560 4473,21554 4561,21549 4648,21549 4735,21539 4823,21535 4910,21534 4998,21528 5085,21520 5173,21511 5260,21501 5347,21489 5435,21480 5522,21479 5610,21467 5697,21452 5784,21436 5872,21418 5959,21398 6047,21386 6134,21379 6221,21358 6309,21332 6396,21303 6484,21272 6571,21241 6659,21220 6746,21214 6833,21170 6921,21120 7008,21065 7096,21013 7183,20956 7270,20920 7358,20896 7445,20849 7533,20769 7620,20690 7707,20616 7795,20541 7882,20496 7970,20483 8057,20408 8145,20321 8232,20244 8319,20177 8407,20094 8494,20045 8582,20029 8669,19960 8756,19866 8844,19788 8931,19712 9019,19634 9106,19589 9193,19567 9281,19505 9368,19419 9456,19346 9543,19276 9631,19211 9718,19176 9805,19161 9893,19106 9980,19038 10068,18976 10155,18912 10242,18841 10330,18801 10417,18790 10505,18735 10592,18657 10679,18592 10767,18532 10854,18471 10942,18446 11029,18436 11116,18395 11204,18341 11291,18303 11379,18262 11466,18228 11554,18209 11641,18205 11728,18180 11815,18145 11902,18113 11990,18098 12077,18093 12164,18084 12252,18077 12339,18071 12427,18043 12514,18009 12601,17988 12689,17983 12776,17976 12864,17973 12951,17953 13039,17927 13126,17907 13213,17890 13301,17875 13388,17868 13476,17866 13563,17853 13650,17839 13738,17828 13825,17818 13913,17807 14000,17802 14087,17801 14175,17790 14262,17779 14350,17769 14437,17761 14525,17749 14612,17744 14699,17742 14787,17727 14874,17710 14962,17699 15049,17688 15136,17674 15224,17667 15311,17665 15399,17648 15486,17629 15573,17615 15661,17598 15748,17580 15836,17570 15923,17567 16011,17545 16098,17521 16185,17503 16273,17482 16360,17463 16448,17453 16535,17450 16622,17429 16710,17403 16797,17378 16885,17357 16972,17328 17059,17317 17147,17313 17234,17275 17322,17240 17409,17206 17497,17170 17584,17137 17671,17116 17759,17109 17846,17059 17934,17012 18021,16989 18108,16946 18196,16887 18283,16859 18371,16849 18458,16790 18545,16722 18633,16667 18720,16606 18808,16544 18895,16504 18983,16491"/>
 <text class="TextShape" transform="rotate(-90 1858 23331)"><tspan class="TextParagraph" font-family="Liberation Sans, sans-serif" font-size="282px" font-weight="400"><tspan class="TextPosition" x="1858" y="23331"><tspan fill="rgb(0,0,0)" stroke="none">29.08.20</tspan></tspan></tspan></text>
 <text class="TextShape" transform="rotate(-90 2469 23331)"><tspan class="TextParagraph" font-family="Liberation Sans, sans-serif" font-size="282px" font-weight="400"><tspan class="TextPosition" x="2469" y="23331"><tspan fill="rgb(0,0,0)" stroke="none">05.09.20</tspan></tspan></tspan></text>
 <text class="TextShape" transform="rotate(-90 3081 23331)"><tspan class="TextParagraph" font-family="Liberation Sans, sans-serif" font-size="282px" font-weight="400"><tspan class="TextPosition" x="3081" y="23331"><tspan fill="rgb(0,0,0)" stroke="none">12.09.20</tspan></tspan></tspan></text>
 <text class="TextShape" transform="rotate(-90 3693 23331)"><tspan class="TextParagraph" font-family="Liberation Sans, sans-serif" font-size="282px" font-weight="400"><tspan class="TextPosition" x="3693" y="23331"><tspan fill="rgb(0,0,0)" stroke="none">19.09.20</tspan></tspan></tspan></text>
 <text class="TextShape" transform="rotate(-90 4305 23331)"><tspan class="TextParagraph" font-family="Liberation Sans, sans-serif" font-size="282px" font-weight="400"><tspan class="TextPosition" x="4305" y="23331"><tspan fill="rgb(0,0,0)" stroke="none">26.09.20</tspan></tspan></tspan></text>
 <text class="TextShape" transform="rotate(-90 4917 23331)"><tspan class="TextParagraph" font-family="Liberation Sans, sans-serif" font-size="282px" font-weight="400"><tspan class="TextPosition" x="4917" y="23331"><tspan fill="rgb(0,0,0)" stroke="none">03.10.20</tspan></tspan></tspan></text>
 <text class="TextShape" transform="rotate(-90 5529 23331)"><tspan class="TextParagraph" font-family="Liberation Sans, sans-serif" font-size="282px" font-weight="400"><tspan class="TextPosition" x="5529" y="23331"><tspan fill="rgb(0,0,0)" stroke="none">10.10.20</tspan></tspan></tspan></text>
 <text class="TextShape" transform="rotate(-90 6141 23331)"><tspan class="TextParagraph" font-family="Liberation Sans, sans-serif" font-size="282px" font-weight="400"><tspan class="TextPosition" x="6141" y="23331"><tspan fill="rgb(0,0,0)" stroke="none">17.10.20</tspan></tspan></tspan></text>
 <text class="TextShape" transform="rotate(-90 6753 23331)"><tspan class="TextParagraph" font-family="Liberation Sans, sans-serif" font-size="282px" font-weight="400"><tspan class="TextPosition" x="6753" y="23331"><tspan fill="rgb(0,0,0)" stroke="none">24.10.20</tspan></tspan></tspan></text>
 <text class="TextShape" transform="rotate(-90 7364 23331)"><tspan class="TextParagraph" font-family="Liberation Sans, sans-serif" font-size="282px" font-weight="400"><tspan class="TextPosition" x="7364" y="23331"><tspan fill="rgb(0,0,0)" stroke="none">31.10.20</tspan></tspan></tspan></text>
 <text class="TextShape" transform="rotate(-90 7976 23331)"><tspan class="TextParagraph" font-family="Liberation Sans, sans-serif" font-size="282px" font-weight="400"><tspan class="TextPosition" x="7976" y="23331"><tspan fill="rgb(0,0,0)" stroke="none">07.11.20</tspan></tspan></tspan></text>
 <text class="TextShape" transform="rotate(-90 8588 23331)"><tspan class="TextParagraph" font-family="Liberation Sans, sans-serif" font-size="282px" font-weight="400"><tspan class="TextPosition" x="8588" y="23331"><tspan fill="rgb(0,0,0)" stroke="none">14.11.20</tspan></tspan></tspan></text>
 <text class="TextShape" transform="rotate(-90 9200 23331)"><tspan class="TextParagraph" font-family="Liberation Sans, sans-serif" font-size="282px" font-weight="400"><tspan class="TextPosition" x="9200" y="23331"><tspan fill="rgb(0,0,0)" stroke="none">21.11.20</tspan></tspan></tspan></text>
 <text class="TextShape" transform="rotate(-90 9812 23331)"><tspan class="TextParagraph" font-family="Liberation Sans, sans-serif" font-size="282px" font-weight="400"><tspan class="TextPosition" x="9812" y="23331"><tspan fill="rgb(0,0,0)" stroke="none">28.11.20</tspan></tspan></tspan></text>
 <text class="TextShape" transform="rotate(-90 10424 23331)"><tspan class="TextParagraph" font-family="Liberation Sans, sans-serif" font-size="282px" font-weight="400"><tspan class="TextPosition" x="10424" y="23331"><tspan fill="rgb(0,0,0)" stroke="none">05.12.20</tspan></tspan></tspan></text>
 <text class="TextShape" transform="rotate(-90 11036 23331)"><tspan class="TextParagraph" font-family="Liberation Sans, sans-serif" font-size="282px" font-weight="400"><tspan class="TextPosition" x="11036" y="23331"><tspan fill="rgb(0,0,0)" stroke="none">12.12.20</tspan></tspan></tspan></text>
 <text class="TextShape" transform="rotate(-90 11648 23331)"><tspan class="TextParagraph" font-family="Liberation Sans, sans-serif" font-size="282px" font-weight="400"><tspan class="TextPosition" x="11648" y="23331"><tspan fill="rgb(0,0,0)" stroke="none">19.12.20</tspan></tspan></tspan></text>
 <text class="TextShape" transform="rotate(-90 12258 23331)"><tspan class="TextParagraph" font-family="Liberation Sans, sans-serif" font-size="282px" font-weight="400"><tspan class="TextPosition" x="12258" y="23331"><tspan fill="rgb(0,0,0)" stroke="none">26.12.20</tspan></tspan></tspan></text>
 <text class="TextShape" transform="rotate(-90 12870 23331)"><tspan class="TextParagraph" font-family="Liberation Sans, sans-serif" font-size="282px" font-weight="400"><tspan class="TextPosition" x="12870" y="23331"><tspan fill="rgb(0,0,0)" stroke="none">02.01.21</tspan></tspan></tspan></text>
 <text class="TextShape" transform="rotate(-90 13482 23331)"><tspan class="TextParagraph" font-family="Liberation Sans, sans-serif" font-size="282px" font-weight="400"><tspan class="TextPosition" x="13482" y="23331"><tspan fill="rgb(0,0,0)" stroke="none">09.01.21</tspan></tspan></tspan></text>
 <text class="TextShape" transform="rotate(-90 14094 23331)"><tspan class="TextParagraph" font-family="Liberation Sans, sans-serif" font-size="282px" font-weight="400"><tspan class="TextPosition" x="14094" y="23331"><tspan fill="rgb(0,0,0)" stroke="none">16.01.21</tspan></tspan></tspan></text>
 <text class="TextShape" transform="rotate(-90 14706 23331)"><tspan class="TextParagraph" font-family="Liberation Sans, sans-serif" font-size="282px" font-weight="400"><tspan class="TextPosition" x="14706" y="23331"><tspan fill="rgb(0,0,0)" stroke="none">23.01.21</tspan></tspan></tspan></text>
 <text class="TextShape" transform="rotate(-90 15318 23331)"><tspan class="TextParagraph" font-family="Liberation Sans, sans-serif" font-size="282px" font-weight="400"><tspan class="TextPosition" x="15318" y="23331"><tspan fill="rgb(0,0,0)" stroke="none">30.01.21</tspan></tspan></tspan></text>
 <text class="TextShape" transform="rotate(-90 15930 23331)"><tspan class="TextParagraph" font-family="Liberation Sans, sans-serif" font-size="282px" font-weight="400"><tspan class="TextPosition" x="15930" y="23331"><tspan fill="rgb(0,0,0)" stroke="none">06.02.21</tspan></tspan></tspan></text>
 <text class="TextShape" transform="rotate(-90 16542 23331)"><tspan class="TextParagraph" font-family="Liberation Sans, sans-serif" font-size="282px" font-weight="400"><tspan class="TextPosition" x="16542" y="23331"><tspan fill="rgb(0,0,0)" stroke="none">13.02.21</tspan></tspan></tspan></text>
 <text class="TextShape" transform="rotate(-90 17153 23331)"><tspan class="TextParagraph" font-family="Liberation Sans, sans-serif" font-size="282px" font-weight="400"><tspan class="TextPosition" x="17153" y="23331"><tspan fill="rgb(0,0,0)" stroke="none">20.02.21</tspan></tspan></tspan></text>
 <text class="TextShape" transform="rotate(-90 17765 23331)"><tspan class="TextParagraph" font-family="Liberation Sans, sans-serif" font-size="282px" font-weight="400"><tspan class="TextPosition" x="17765" y="23331"><tspan fill="rgb(0,0,0)" stroke="none">27.02.21</tspan></tspan></tspan></text>
 <text class="TextShape" transform="rotate(-90 18377 23331)"><tspan class="TextParagraph" font-family="Liberation Sans, sans-serif" font-size="282px" font-weight="400"><tspan class="TextPosition" x="18377" y="23331"><tspan fill="rgb(0,0,0)" stroke="none">06.03.21</tspan></tspan></tspan></text>
 <text class="TextShape" transform="rotate(-90 18989 23331)"><tspan class="TextParagraph" font-family="Liberation Sans, sans-serif" font-size="282px" font-weight="400"><tspan class="TextPosition" x="18989" y="23331"><tspan fill="rgb(0,0,0)" stroke="none">13.03.21</tspan></tspan></tspan></text>
 <text class="TextShape"><tspan class="TextParagraph" font-family="Liberation Sans, sans-serif" font-size="388px" font-weight="400"><tspan class="TextPosition" x="1292" y="22091"><tspan fill="rgb(0,0,0)" stroke="none">0</tspan></tspan></tspan></text>
 <text class="TextShape"><tspan class="TextParagraph" font-family="Liberation Sans, sans-serif" font-size="388px" font-weight="400"><tspan class="TextPosition" x="403" y="15273"><tspan fill="rgb(0,0,0)" stroke="none">50000</tspan></tspan></tspan></text>
 <text class="TextShape"><tspan class="TextParagraph" font-family="Liberation Sans, sans-serif" font-size="388px" font-weight="400"><tspan class="TextPosition" x="180" y="8455"><tspan fill="rgb(0,0,0)" stroke="none">100000</tspan></tspan></tspan></text>
 <text class="TextShape"><tspan class="TextParagraph" font-family="Liberation Sans, sans-serif" font-size="388px" font-weight="400"><tspan class="TextPosition" x="180" y="1637"><tspan fill="rgb(0,0,0)" stroke="none">150000</tspan></tspan></tspan></text>
 <text class="TextShape"><tspan class="TextParagraph" font-family="Liberation Sans, sans-serif" font-size="494px" font-weight="700"><tspan class="TextPosition" x="1923" y="603"><tspan fill="rgb(0,0,0)" stroke="none">5 nejpromoenjch zem svta, prmr EU a vbr zem vchodn Evropy</tspan></tspan></tspan><tspan class="TextParagraph" font-family="Liberation Sans, sans-serif" font-size="494px" font-weight="700"><tspan class="TextPosition" x="2426" y="1164"><tspan fill="rgb(0,0,0)" stroke="none">poet infikovanch na milin obyvatel (bez zem pod 50 tisc obyvatel)</tspan></tspan></tspan></text>
 <path fill="none" stroke="rgb(197,0,11)" stroke-width="80" stroke-linejoin="round" stroke-dasharray="158,158" d="M 19313,2859 L 20913,2859"/>
 <path fill="none" stroke="rgb(112,110,12)" stroke-width="80" stroke-linejoin="round" stroke-dasharray="80,40" d="M 19313,4465 L 20913,4465"/>
 <path fill="none" stroke="rgb(255,191,0)" stroke-width="80" stroke-linejoin="round" d="M 19313,6071 L 20913,6071"/>
 <path fill="none" stroke="rgb(131,202,255)" stroke-width="80" stroke-linejoin="round" stroke-dasharray="158,158" d="M 19313,7677 L 20913,7677"/>
 <path fill="none" stroke="rgb(89,131,176)" stroke-width="80" stroke-linejoin="round" stroke-dasharray="158,158" d="M 19313,9283 L 20913,9283"/>
 <path fill="none" stroke="rgb(0,0,255)" stroke-width="80" stroke-linejoin="round" stroke-dasharray="158,158" d="M 19313,10889 L 20913,10889"/>
 <path fill="none" stroke="rgb(131,202,255)" stroke-width="80" stroke-linejoin="round" stroke-dasharray="80,40" d="M 19313,12494 L 20913,12494"/>
 <path fill="none" stroke="rgb(0,0,255)" stroke-width="80" stroke-linejoin="round" stroke-dasharray="51,127,51,127,254,127,254,127,254,127" d="M 19313,14100 L 20913,14100"/>
 <path fill="none" stroke="rgb(255,128,0)" stroke-width="80" stroke-linejoin="round" stroke-dasharray="158,158" d="M 19313,15706 L 20913,15706"/>
 <path fill="none" stroke="rgb(0,169,51)" stroke-width="80" stroke-linejoin="round" stroke-dasharray="80,40" d="M 19313,17312 L 20913,17312"/>
 <path fill="none" stroke="rgb(255,0,0)" stroke-width="80" stroke-linejoin="round" stroke-dasharray="158,158" d="M 19313,18918 L 20913,18918"/>
 <path fill="none" stroke="rgb(0,169,51)" stroke-width="80" stroke-linejoin="round" stroke-dasharray="158,158" d="M 19313,20524 L 20913,20524"/>
 <text class="TextShape"><tspan class="TextParagraph" font-family="Liberation Sans, sans-serif" font-size="353px" font-weight="400"><tspan class="TextPosition" x="21013" y="2981"><tspan fill="rgb(0,0,0)" stroke="none">Andorra</tspan></tspan></tspan></text>
 <text class="TextShape"><tspan class="TextParagraph" font-family="Liberation Sans, sans-serif" font-size="353px" font-weight="400"><tspan class="TextPosition" x="21013" y="4587"><tspan fill="rgb(0,0,0)" stroke="none">ern Hora</tspan></tspan></tspan></text>
 <text class="TextShape"><tspan class="TextParagraph" font-family="Liberation Sans, sans-serif" font-size="353px" font-weight="400"><tspan class="TextPosition" x="21013" y="6193"><tspan fill="rgb(0,0,0)" stroke="none">esko</tspan></tspan></tspan></text>
 <text class="TextShape"><tspan class="TextParagraph" font-family="Liberation Sans, sans-serif" font-size="353px" font-weight="400"><tspan class="TextPosition" x="21013" y="7799"><tspan fill="rgb(0,0,0)" stroke="none">Slovinsko</tspan></tspan></tspan></text>
 <text class="TextShape"><tspan class="TextParagraph" font-family="Liberation Sans, sans-serif" font-size="353px" font-weight="400"><tspan class="TextPosition" x="21013" y="9405"><tspan fill="rgb(0,0,0)" stroke="none">Izrael</tspan></tspan></tspan></text>
 <text class="TextShape"><tspan class="TextParagraph" font-family="Liberation Sans, sans-serif" font-size="353px" font-weight="400"><tspan class="TextPosition" x="21013" y="11011"><tspan fill="rgb(0,0,0)" stroke="none">Slovensko</tspan></tspan></tspan></text>
 <text class="TextShape"><tspan class="TextParagraph" font-family="Liberation Sans, sans-serif" font-size="353px" font-weight="400"><tspan class="TextPosition" x="21013" y="12616"><tspan fill="rgb(0,0,0)" stroke="none">Chorvatsko</tspan></tspan></tspan></text>
 <text class="TextShape"><tspan class="TextParagraph" font-family="Liberation Sans, sans-serif" font-size="353px" font-weight="400"><tspan class="TextPosition" x="21013" y="14222"><tspan fill="rgb(0,0,0)" stroke="none">EU</tspan></tspan></tspan></text>
 <text class="TextShape"><tspan class="TextParagraph" font-family="Liberation Sans, sans-serif" font-size="353px" font-weight="400"><tspan class="TextPosition" x="21013" y="15828"><tspan fill="rgb(0,0,0)" stroke="none">Maarsko</tspan></tspan></tspan></text>
 <text class="TextShape"><tspan class="TextParagraph" font-family="Liberation Sans, sans-serif" font-size="353px" font-weight="400"><tspan class="TextPosition" x="21013" y="17434"><tspan fill="rgb(0,0,0)" stroke="none">Polsko</tspan></tspan></tspan></text>
 <text class="TextShape"><tspan class="TextParagraph" font-family="Liberation Sans, sans-serif" font-size="353px" font-weight="400"><tspan class="TextPosition" x="21013" y="19040"><tspan fill="rgb(0,0,0)" stroke="none">Rumunsko</tspan></tspan></tspan></text>
 <text class="TextShape"><tspan class="TextParagraph" font-family="Liberation Sans, sans-serif" font-size="353px" font-weight="400"><tspan class="TextPosition" x="21013" y="20646"><tspan fill="rgb(0,0,0)" stroke="none">Bulharsko</tspan></tspan></tspan></text>
</svg>