<?xml version="1.0" encoding="UTF-8"?>
<!DOCTYPE svg PUBLIC "-//W3C//DTD SVG 1.1//EN" "http://www.w3.org/Graphics/SVG/1.1/DTD/svg11.dtd">
<svg width="236mm" height="235mm" viewBox="0 0 23600 23500" version="1.1" xmlns="http://www.w3.org/2000/svg" xmlns:xlink="http://www.w3.org/1999/xlink" stroke-width="28.222" stroke-linejoin="round" xml:space="preserve">
 <path fill="rgb(255,255,255)" stroke="none" d="M 11800,23531 L 0,23531 0,0 23600,0 23600,23531 11800,23531 Z"/>
 <path fill="none" stroke="rgb(179,179,179)" stroke-linejoin="round" d="M 10374,21959 L 1764,21959 1764,1506 18983,1506 18983,21959 10374,21959 Z"/>
 <path fill="none" stroke="rgb(179,179,179)" stroke-linejoin="round" stroke-dasharray="27,27,27,27" d="M 1764,1505 L 1764,21958"/>
 <path fill="none" stroke="rgb(179,179,179)" stroke-linejoin="round" stroke-dasharray="27,27,27,27" d="M 2363,1505 L 2363,21958"/>
 <path fill="none" stroke="rgb(179,179,179)" stroke-linejoin="round" stroke-dasharray="27,27,27,27" d="M 2963,1505 L 2963,21958"/>
 <path fill="none" stroke="rgb(179,179,179)" stroke-linejoin="round" stroke-dasharray="27,27,27,27" d="M 3563,1505 L 3563,21958"/>
 <path fill="none" stroke="rgb(179,179,179)" stroke-linejoin="round" stroke-dasharray="27,27,27,27" d="M 4162,1505 L 4162,21958"/>
 <path fill="none" stroke="rgb(179,179,179)" stroke-linejoin="round" stroke-dasharray="27,27,27,27" d="M 4762,1505 L 4762,21958"/>
 <path fill="none" stroke="rgb(179,179,179)" stroke-linejoin="round" stroke-dasharray="27,27,27,27" d="M 5362,1505 L 5362,21958"/>
 <path fill="none" stroke="rgb(179,179,179)" stroke-linejoin="round" stroke-dasharray="27,27,27,27" d="M 5961,1505 L 5961,21958"/>
 <path fill="none" stroke="rgb(179,179,179)" stroke-linejoin="round" stroke-dasharray="27,27,27,27" d="M 6561,1505 L 6561,21958"/>
 <path fill="none" stroke="rgb(179,179,179)" stroke-linejoin="round" stroke-dasharray="27,27,27,27" d="M 7161,1505 L 7161,21958"/>
 <path fill="none" stroke="rgb(179,179,179)" stroke-linejoin="round" stroke-dasharray="27,27,27,27" d="M 7761,1505 L 7761,21958"/>
 <path fill="none" stroke="rgb(179,179,179)" stroke-linejoin="round" stroke-dasharray="27,27,27,27" d="M 8360,1505 L 8360,21958"/>
 <path fill="none" stroke="rgb(179,179,179)" stroke-linejoin="round" stroke-dasharray="27,27,27,27" d="M 8960,1505 L 8960,21958"/>
 <path fill="none" stroke="rgb(179,179,179)" stroke-linejoin="round" stroke-dasharray="27,27,27,27" d="M 9560,1505 L 9560,21958"/>
 <path fill="none" stroke="rgb(179,179,179)" stroke-linejoin="round" stroke-dasharray="27,27,27,27" d="M 10159,1505 L 10159,21958"/>
 <path fill="none" stroke="rgb(179,179,179)" stroke-linejoin="round" stroke-dasharray="27,27,27,27" d="M 10759,1505 L 10759,21958"/>
 <path fill="none" stroke="rgb(179,179,179)" stroke-linejoin="round" stroke-dasharray="27,27,27,27" d="M 11359,1505 L 11359,21958"/>
 <path fill="none" stroke="rgb(179,179,179)" stroke-linejoin="round" stroke-dasharray="27,27,27,27" d="M 11957,1505 L 11957,21958"/>
 <path fill="none" stroke="rgb(179,179,179)" stroke-linejoin="round" stroke-dasharray="27,27,27,27" d="M 12557,1505 L 12557,21958"/>
 <path fill="none" stroke="rgb(179,179,179)" stroke-linejoin="round" stroke-dasharray="27,27,27,27" d="M 13157,1505 L 13157,21958"/>
 <path fill="none" stroke="rgb(179,179,179)" stroke-linejoin="round" stroke-dasharray="27,27,27,27" d="M 13757,1505 L 13757,21958"/>
 <path fill="none" stroke="rgb(179,179,179)" stroke-linejoin="round" stroke-dasharray="27,27,27,27" d="M 14356,1505 L 14356,21958"/>
 <path fill="none" stroke="rgb(179,179,179)" stroke-linejoin="round" stroke-dasharray="27,27,27,27" d="M 14956,1505 L 14956,21958"/>
 <path fill="none" stroke="rgb(179,179,179)" stroke-linejoin="round" stroke-dasharray="27,27,27,27" d="M 15556,1505 L 15556,21958"/>
 <path fill="none" stroke="rgb(179,179,179)" stroke-linejoin="round" stroke-dasharray="27,27,27,27" d="M 16155,1505 L 16155,21958"/>
 <path fill="none" stroke="rgb(179,179,179)" stroke-linejoin="round" stroke-dasharray="27,27,27,27" d="M 16755,1505 L 16755,21958"/>
 <path fill="none" stroke="rgb(179,179,179)" stroke-linejoin="round" stroke-dasharray="27,27,27,27" d="M 17355,1505 L 17355,21958"/>
 <path fill="none" stroke="rgb(179,179,179)" stroke-linejoin="round" stroke-dasharray="27,27,27,27" d="M 17954,1505 L 17954,21958"/>
 <path fill="none" stroke="rgb(179,179,179)" stroke-linejoin="round" stroke-dasharray="27,27,27,27" d="M 18554,1505 L 18554,21958"/>
 <path fill="none" stroke="rgb(179,179,179)" stroke-linejoin="round" d="M 18983,21958 L 1764,21958"/>
 <path fill="none" stroke="rgb(179,179,179)" stroke-linejoin="round" d="M 18983,15140 L 1764,15140"/>
 <path fill="none" stroke="rgb(179,179,179)" stroke-linejoin="round" d="M 18983,8323 L 1764,8323"/>
 <path fill="none" stroke="rgb(179,179,179)" stroke-linejoin="round" d="M 18983,1505 L 1764,1505"/>
 <path fill="none" stroke="rgb(221,221,221)" stroke-linejoin="round" stroke-dasharray="27,27,27,27" d="M 18983,20594 L 1764,20594"/>
 <path fill="none" stroke="rgb(221,221,221)" stroke-linejoin="round" stroke-dasharray="27,27,27,27" d="M 18983,19230 L 1764,19230"/>
 <path fill="none" stroke="rgb(221,221,221)" stroke-linejoin="round" stroke-dasharray="27,27,27,27" d="M 18983,17867 L 1764,17867"/>
 <path fill="none" stroke="rgb(221,221,221)" stroke-linejoin="round" stroke-dasharray="27,27,27,27" d="M 18983,16503 L 1764,16503"/>
 <path fill="none" stroke="rgb(221,221,221)" stroke-linejoin="round" stroke-dasharray="27,27,27,27" d="M 18983,13776 L 1764,13776"/>
 <path fill="none" stroke="rgb(221,221,221)" stroke-linejoin="round" stroke-dasharray="27,27,27,27" d="M 18983,12412 L 1764,12412"/>
 <path fill="none" stroke="rgb(221,221,221)" stroke-linejoin="round" stroke-dasharray="27,27,27,27" d="M 18983,11050 L 1764,11050"/>
 <path fill="none" stroke="rgb(221,221,221)" stroke-linejoin="round" stroke-dasharray="27,27,27,27" d="M 18983,9686 L 1764,9686"/>
 <path fill="none" stroke="rgb(221,221,221)" stroke-linejoin="round" stroke-dasharray="27,27,27,27" d="M 18983,6959 L 1764,6959"/>
 <path fill="none" stroke="rgb(221,221,221)" stroke-linejoin="round" stroke-dasharray="27,27,27,27" d="M 18983,5595 L 1764,5595"/>
 <path fill="none" stroke="rgb(221,221,221)" stroke-linejoin="round" stroke-dasharray="27,27,27,27" d="M 18983,4232 L 1764,4232"/>
 <path fill="none" stroke="rgb(221,221,221)" stroke-linejoin="round" stroke-dasharray="27,27,27,27" d="M 18983,2868 L 1764,2868"/>
 <path fill="none" stroke="rgb(179,179,179)" stroke-linejoin="round" d="M 1764,22108 L 1764,21808"/>
 <path fill="none" stroke="rgb(179,179,179)" stroke-linejoin="round" d="M 1764,22108 L 1764,21808"/>
 <path fill="none" stroke="rgb(179,179,179)" stroke-linejoin="round" d="M 2363,22108 L 2363,21808"/>
 <path fill="none" stroke="rgb(179,179,179)" stroke-linejoin="round" d="M 2363,22108 L 2363,21808"/>
 <path fill="none" stroke="rgb(179,179,179)" stroke-linejoin="round" d="M 2963,22108 L 2963,21808"/>
 <path fill="none" stroke="rgb(179,179,179)" stroke-linejoin="round" d="M 2963,22108 L 2963,21808"/>
 <path fill="none" stroke="rgb(179,179,179)" stroke-linejoin="round" d="M 3563,22108 L 3563,21808"/>
 <path fill="none" stroke="rgb(179,179,179)" stroke-linejoin="round" d="M 3563,22108 L 3563,21808"/>
 <path fill="none" stroke="rgb(179,179,179)" stroke-linejoin="round" d="M 4162,22108 L 4162,21808"/>
 <path fill="none" stroke="rgb(179,179,179)" stroke-linejoin="round" d="M 4162,22108 L 4162,21808"/>
 <path fill="none" stroke="rgb(179,179,179)" stroke-linejoin="round" d="M 4762,22108 L 4762,21808"/>
 <path fill="none" stroke="rgb(179,179,179)" stroke-linejoin="round" d="M 4762,22108 L 4762,21808"/>
 <path fill="none" stroke="rgb(179,179,179)" stroke-linejoin="round" d="M 5362,22108 L 5362,21808"/>
 <path fill="none" stroke="rgb(179,179,179)" stroke-linejoin="round" d="M 5362,22108 L 5362,21808"/>
 <path fill="none" stroke="rgb(179,179,179)" stroke-linejoin="round" d="M 5961,22108 L 5961,21808"/>
 <path fill="none" stroke="rgb(179,179,179)" stroke-linejoin="round" d="M 5961,22108 L 5961,21808"/>
 <path fill="none" stroke="rgb(179,179,179)" stroke-linejoin="round" d="M 6561,22108 L 6561,21808"/>
 <path fill="none" stroke="rgb(179,179,179)" stroke-linejoin="round" d="M 6561,22108 L 6561,21808"/>
 <path fill="none" stroke="rgb(179,179,179)" stroke-linejoin="round" d="M 7161,22108 L 7161,21808"/>
 <path fill="none" stroke="rgb(179,179,179)" stroke-linejoin="round" d="M 7161,22108 L 7161,21808"/>
 <path fill="none" stroke="rgb(179,179,179)" stroke-linejoin="round" d="M 7761,22108 L 7761,21808"/>
 <path fill="none" stroke="rgb(179,179,179)" stroke-linejoin="round" d="M 7761,22108 L 7761,21808"/>
 <path fill="none" stroke="rgb(179,179,179)" stroke-linejoin="round" d="M 8360,22108 L 8360,21808"/>
 <path fill="none" stroke="rgb(179,179,179)" stroke-linejoin="round" d="M 8360,22108 L 8360,21808"/>
 <path fill="none" stroke="rgb(179,179,179)" stroke-linejoin="round" d="M 8960,22108 L 8960,21808"/>
 <path fill="none" stroke="rgb(179,179,179)" stroke-linejoin="round" d="M 8960,22108 L 8960,21808"/>
 <path fill="none" stroke="rgb(179,179,179)" stroke-linejoin="round" d="M 9560,22108 L 9560,21808"/>
 <path fill="none" stroke="rgb(179,179,179)" stroke-linejoin="round" d="M 9560,22108 L 9560,21808"/>
 <path fill="none" stroke="rgb(179,179,179)" stroke-linejoin="round" d="M 10159,22108 L 10159,21808"/>
 <path fill="none" stroke="rgb(179,179,179)" stroke-linejoin="round" d="M 10159,22108 L 10159,21808"/>
 <path fill="none" stroke="rgb(179,179,179)" stroke-linejoin="round" d="M 10759,22108 L 10759,21808"/>
 <path fill="none" stroke="rgb(179,179,179)" stroke-linejoin="round" d="M 10759,22108 L 10759,21808"/>
 <path fill="none" stroke="rgb(179,179,179)" stroke-linejoin="round" d="M 11359,22108 L 11359,21808"/>
 <path fill="none" stroke="rgb(179,179,179)" stroke-linejoin="round" d="M 11359,22108 L 11359,21808"/>
 <path fill="none" stroke="rgb(179,179,179)" stroke-linejoin="round" d="M 11957,22108 L 11957,21808"/>
 <path fill="none" stroke="rgb(179,179,179)" stroke-linejoin="round" d="M 11957,22108 L 11957,21808"/>
 <path fill="none" stroke="rgb(179,179,179)" stroke-linejoin="round" d="M 12557,22108 L 12557,21808"/>
 <path fill="none" stroke="rgb(179,179,179)" stroke-linejoin="round" d="M 12557,22108 L 12557,21808"/>
 <path fill="none" stroke="rgb(179,179,179)" stroke-linejoin="round" d="M 13157,22108 L 13157,21808"/>
 <path fill="none" stroke="rgb(179,179,179)" stroke-linejoin="round" d="M 13157,22108 L 13157,21808"/>
 <path fill="none" stroke="rgb(179,179,179)" stroke-linejoin="round" d="M 13757,22108 L 13757,21808"/>
 <path fill="none" stroke="rgb(179,179,179)" stroke-linejoin="round" d="M 13757,22108 L 13757,21808"/>
 <path fill="none" stroke="rgb(179,179,179)" stroke-linejoin="round" d="M 14356,22108 L 14356,21808"/>
 <path fill="none" stroke="rgb(179,179,179)" stroke-linejoin="round" d="M 14356,22108 L 14356,21808"/>
 <path fill="none" stroke="rgb(179,179,179)" stroke-linejoin="round" d="M 14956,22108 L 14956,21808"/>
 <path fill="none" stroke="rgb(179,179,179)" stroke-linejoin="round" d="M 14956,22108 L 14956,21808"/>
 <path fill="none" stroke="rgb(179,179,179)" stroke-linejoin="round" d="M 15556,22108 L 15556,21808"/>
 <path fill="none" stroke="rgb(179,179,179)" stroke-linejoin="round" d="M 15556,22108 L 15556,21808"/>
 <path fill="none" stroke="rgb(179,179,179)" stroke-linejoin="round" d="M 16155,22108 L 16155,21808"/>
 <path fill="none" stroke="rgb(179,179,179)" stroke-linejoin="round" d="M 16155,22108 L 16155,21808"/>
 <path fill="none" stroke="rgb(179,179,179)" stroke-linejoin="round" d="M 16755,22108 L 16755,21808"/>
 <path fill="none" stroke="rgb(179,179,179)" stroke-linejoin="round" d="M 16755,22108 L 16755,21808"/>
 <path fill="none" stroke="rgb(179,179,179)" stroke-linejoin="round" d="M 17355,22108 L 17355,21808"/>
 <path fill="none" stroke="rgb(179,179,179)" stroke-linejoin="round" d="M 17355,22108 L 17355,21808"/>
 <path fill="none" stroke="rgb(179,179,179)" stroke-linejoin="round" d="M 17954,22108 L 17954,21808"/>
 <path fill="none" stroke="rgb(179,179,179)" stroke-linejoin="round" d="M 17954,22108 L 17954,21808"/>
 <path fill="none" stroke="rgb(179,179,179)" stroke-linejoin="round" d="M 18554,22108 L 18554,21808"/>
 <path fill="none" stroke="rgb(179,179,179)" stroke-linejoin="round" d="M 18554,22108 L 18554,21808"/>
 <path fill="none" stroke="rgb(179,179,179)" stroke-linejoin="round" d="M 1764,22070 L 1764,21958"/>
 <path fill="none" stroke="rgb(179,179,179)" stroke-linejoin="round" d="M 1764,22070 L 1764,21958"/>
 <path fill="none" stroke="rgb(179,179,179)" stroke-linejoin="round" d="M 1849,22070 L 1849,21958"/>
 <path fill="none" stroke="rgb(179,179,179)" stroke-linejoin="round" d="M 1849,22070 L 1849,21958"/>
 <path fill="none" stroke="rgb(179,179,179)" stroke-linejoin="round" d="M 1935,22070 L 1935,21958"/>
 <path fill="none" stroke="rgb(179,179,179)" stroke-linejoin="round" d="M 1935,22070 L 1935,21958"/>
 <path fill="none" stroke="rgb(179,179,179)" stroke-linejoin="round" d="M 2021,22070 L 2021,21958"/>
 <path fill="none" stroke="rgb(179,179,179)" stroke-linejoin="round" d="M 2021,22070 L 2021,21958"/>
 <path fill="none" stroke="rgb(179,179,179)" stroke-linejoin="round" d="M 2106,22070 L 2106,21958"/>
 <path fill="none" stroke="rgb(179,179,179)" stroke-linejoin="round" d="M 2106,22070 L 2106,21958"/>
 <path fill="none" stroke="rgb(179,179,179)" stroke-linejoin="round" d="M 2192,22070 L 2192,21958"/>
 <path fill="none" stroke="rgb(179,179,179)" stroke-linejoin="round" d="M 2192,22070 L 2192,21958"/>
 <path fill="none" stroke="rgb(179,179,179)" stroke-linejoin="round" d="M 2278,22070 L 2278,21958"/>
 <path fill="none" stroke="rgb(179,179,179)" stroke-linejoin="round" d="M 2278,22070 L 2278,21958"/>
 <path fill="none" stroke="rgb(179,179,179)" stroke-linejoin="round" d="M 2363,22070 L 2363,21958"/>
 <path fill="none" stroke="rgb(179,179,179)" stroke-linejoin="round" d="M 2363,22070 L 2363,21958"/>
 <path fill="none" stroke="rgb(179,179,179)" stroke-linejoin="round" d="M 2449,22070 L 2449,21958"/>
 <path fill="none" stroke="rgb(179,179,179)" stroke-linejoin="round" d="M 2449,22070 L 2449,21958"/>
 <path fill="none" stroke="rgb(179,179,179)" stroke-linejoin="round" d="M 2535,22070 L 2535,21958"/>
 <path fill="none" stroke="rgb(179,179,179)" stroke-linejoin="round" d="M 2535,22070 L 2535,21958"/>
 <path fill="none" stroke="rgb(179,179,179)" stroke-linejoin="round" d="M 2620,22070 L 2620,21958"/>
 <path fill="none" stroke="rgb(179,179,179)" stroke-linejoin="round" d="M 2620,22070 L 2620,21958"/>
 <path fill="none" stroke="rgb(179,179,179)" stroke-linejoin="round" d="M 2706,22070 L 2706,21958"/>
 <path fill="none" stroke="rgb(179,179,179)" stroke-linejoin="round" d="M 2706,22070 L 2706,21958"/>
 <path fill="none" stroke="rgb(179,179,179)" stroke-linejoin="round" d="M 2792,22070 L 2792,21958"/>
 <path fill="none" stroke="rgb(179,179,179)" stroke-linejoin="round" d="M 2792,22070 L 2792,21958"/>
 <path fill="none" stroke="rgb(179,179,179)" stroke-linejoin="round" d="M 2877,22070 L 2877,21958"/>
 <path fill="none" stroke="rgb(179,179,179)" stroke-linejoin="round" d="M 2877,22070 L 2877,21958"/>
 <path fill="none" stroke="rgb(179,179,179)" stroke-linejoin="round" d="M 2963,22070 L 2963,21958"/>
 <path fill="none" stroke="rgb(179,179,179)" stroke-linejoin="round" d="M 2963,22070 L 2963,21958"/>
 <path fill="none" stroke="rgb(179,179,179)" stroke-linejoin="round" d="M 3049,22070 L 3049,21958"/>
 <path fill="none" stroke="rgb(179,179,179)" stroke-linejoin="round" d="M 3049,22070 L 3049,21958"/>
 <path fill="none" stroke="rgb(179,179,179)" stroke-linejoin="round" d="M 3134,22070 L 3134,21958"/>
 <path fill="none" stroke="rgb(179,179,179)" stroke-linejoin="round" d="M 3134,22070 L 3134,21958"/>
 <path fill="none" stroke="rgb(179,179,179)" stroke-linejoin="round" d="M 3220,22070 L 3220,21958"/>
 <path fill="none" stroke="rgb(179,179,179)" stroke-linejoin="round" d="M 3220,22070 L 3220,21958"/>
 <path fill="none" stroke="rgb(179,179,179)" stroke-linejoin="round" d="M 3306,22070 L 3306,21958"/>
 <path fill="none" stroke="rgb(179,179,179)" stroke-linejoin="round" d="M 3306,22070 L 3306,21958"/>
 <path fill="none" stroke="rgb(179,179,179)" stroke-linejoin="round" d="M 3391,22070 L 3391,21958"/>
 <path fill="none" stroke="rgb(179,179,179)" stroke-linejoin="round" d="M 3391,22070 L 3391,21958"/>
 <path fill="none" stroke="rgb(179,179,179)" stroke-linejoin="round" d="M 3477,22070 L 3477,21958"/>
 <path fill="none" stroke="rgb(179,179,179)" stroke-linejoin="round" d="M 3477,22070 L 3477,21958"/>
 <path fill="none" stroke="rgb(179,179,179)" stroke-linejoin="round" d="M 3563,22070 L 3563,21958"/>
 <path fill="none" stroke="rgb(179,179,179)" stroke-linejoin="round" d="M 3563,22070 L 3563,21958"/>
 <path fill="none" stroke="rgb(179,179,179)" stroke-linejoin="round" d="M 3648,22070 L 3648,21958"/>
 <path fill="none" stroke="rgb(179,179,179)" stroke-linejoin="round" d="M 3648,22070 L 3648,21958"/>
 <path fill="none" stroke="rgb(179,179,179)" stroke-linejoin="round" d="M 3734,22070 L 3734,21958"/>
 <path fill="none" stroke="rgb(179,179,179)" stroke-linejoin="round" d="M 3734,22070 L 3734,21958"/>
 <path fill="none" stroke="rgb(179,179,179)" stroke-linejoin="round" d="M 3820,22070 L 3820,21958"/>
 <path fill="none" stroke="rgb(179,179,179)" stroke-linejoin="round" d="M 3820,22070 L 3820,21958"/>
 <path fill="none" stroke="rgb(179,179,179)" stroke-linejoin="round" d="M 3905,22070 L 3905,21958"/>
 <path fill="none" stroke="rgb(179,179,179)" stroke-linejoin="round" d="M 3905,22070 L 3905,21958"/>
 <path fill="none" stroke="rgb(179,179,179)" stroke-linejoin="round" d="M 3991,22070 L 3991,21958"/>
 <path fill="none" stroke="rgb(179,179,179)" stroke-linejoin="round" d="M 3991,22070 L 3991,21958"/>
 <path fill="none" stroke="rgb(179,179,179)" stroke-linejoin="round" d="M 4077,22070 L 4077,21958"/>
 <path fill="none" stroke="rgb(179,179,179)" stroke-linejoin="round" d="M 4077,22070 L 4077,21958"/>
 <path fill="none" stroke="rgb(179,179,179)" stroke-linejoin="round" d="M 4162,22070 L 4162,21958"/>
 <path fill="none" stroke="rgb(179,179,179)" stroke-linejoin="round" d="M 4162,22070 L 4162,21958"/>
 <path fill="none" stroke="rgb(179,179,179)" stroke-linejoin="round" d="M 4248,22070 L 4248,21958"/>
 <path fill="none" stroke="rgb(179,179,179)" stroke-linejoin="round" d="M 4248,22070 L 4248,21958"/>
 <path fill="none" stroke="rgb(179,179,179)" stroke-linejoin="round" d="M 4334,22070 L 4334,21958"/>
 <path fill="none" stroke="rgb(179,179,179)" stroke-linejoin="round" d="M 4334,22070 L 4334,21958"/>
 <path fill="none" stroke="rgb(179,179,179)" stroke-linejoin="round" d="M 4419,22070 L 4419,21958"/>
 <path fill="none" stroke="rgb(179,179,179)" stroke-linejoin="round" d="M 4419,22070 L 4419,21958"/>
 <path fill="none" stroke="rgb(179,179,179)" stroke-linejoin="round" d="M 4505,22070 L 4505,21958"/>
 <path fill="none" stroke="rgb(179,179,179)" stroke-linejoin="round" d="M 4505,22070 L 4505,21958"/>
 <path fill="none" stroke="rgb(179,179,179)" stroke-linejoin="round" d="M 4591,22070 L 4591,21958"/>
 <path fill="none" stroke="rgb(179,179,179)" stroke-linejoin="round" d="M 4591,22070 L 4591,21958"/>
 <path fill="none" stroke="rgb(179,179,179)" stroke-linejoin="round" d="M 4676,22070 L 4676,21958"/>
 <path fill="none" stroke="rgb(179,179,179)" stroke-linejoin="round" d="M 4676,22070 L 4676,21958"/>
 <path fill="none" stroke="rgb(179,179,179)" stroke-linejoin="round" d="M 4762,22070 L 4762,21958"/>
 <path fill="none" stroke="rgb(179,179,179)" stroke-linejoin="round" d="M 4762,22070 L 4762,21958"/>
 <path fill="none" stroke="rgb(179,179,179)" stroke-linejoin="round" d="M 4848,22070 L 4848,21958"/>
 <path fill="none" stroke="rgb(179,179,179)" stroke-linejoin="round" d="M 4848,22070 L 4848,21958"/>
 <path fill="none" stroke="rgb(179,179,179)" stroke-linejoin="round" d="M 4933,22070 L 4933,21958"/>
 <path fill="none" stroke="rgb(179,179,179)" stroke-linejoin="round" d="M 4933,22070 L 4933,21958"/>
 <path fill="none" stroke="rgb(179,179,179)" stroke-linejoin="round" d="M 5019,22070 L 5019,21958"/>
 <path fill="none" stroke="rgb(179,179,179)" stroke-linejoin="round" d="M 5019,22070 L 5019,21958"/>
 <path fill="none" stroke="rgb(179,179,179)" stroke-linejoin="round" d="M 5105,22070 L 5105,21958"/>
 <path fill="none" stroke="rgb(179,179,179)" stroke-linejoin="round" d="M 5105,22070 L 5105,21958"/>
 <path fill="none" stroke="rgb(179,179,179)" stroke-linejoin="round" d="M 5190,22070 L 5190,21958"/>
 <path fill="none" stroke="rgb(179,179,179)" stroke-linejoin="round" d="M 5190,22070 L 5190,21958"/>
 <path fill="none" stroke="rgb(179,179,179)" stroke-linejoin="round" d="M 5276,22070 L 5276,21958"/>
 <path fill="none" stroke="rgb(179,179,179)" stroke-linejoin="round" d="M 5276,22070 L 5276,21958"/>
 <path fill="none" stroke="rgb(179,179,179)" stroke-linejoin="round" d="M 5362,22070 L 5362,21958"/>
 <path fill="none" stroke="rgb(179,179,179)" stroke-linejoin="round" d="M 5362,22070 L 5362,21958"/>
 <path fill="none" stroke="rgb(179,179,179)" stroke-linejoin="round" d="M 5447,22070 L 5447,21958"/>
 <path fill="none" stroke="rgb(179,179,179)" stroke-linejoin="round" d="M 5447,22070 L 5447,21958"/>
 <path fill="none" stroke="rgb(179,179,179)" stroke-linejoin="round" d="M 5533,22070 L 5533,21958"/>
 <path fill="none" stroke="rgb(179,179,179)" stroke-linejoin="round" d="M 5533,22070 L 5533,21958"/>
 <path fill="none" stroke="rgb(179,179,179)" stroke-linejoin="round" d="M 5619,22070 L 5619,21958"/>
 <path fill="none" stroke="rgb(179,179,179)" stroke-linejoin="round" d="M 5619,22070 L 5619,21958"/>
 <path fill="none" stroke="rgb(179,179,179)" stroke-linejoin="round" d="M 5704,22070 L 5704,21958"/>
 <path fill="none" stroke="rgb(179,179,179)" stroke-linejoin="round" d="M 5704,22070 L 5704,21958"/>
 <path fill="none" stroke="rgb(179,179,179)" stroke-linejoin="round" d="M 5790,22070 L 5790,21958"/>
 <path fill="none" stroke="rgb(179,179,179)" stroke-linejoin="round" d="M 5790,22070 L 5790,21958"/>
 <path fill="none" stroke="rgb(179,179,179)" stroke-linejoin="round" d="M 5876,22070 L 5876,21958"/>
 <path fill="none" stroke="rgb(179,179,179)" stroke-linejoin="round" d="M 5876,22070 L 5876,21958"/>
 <path fill="none" stroke="rgb(179,179,179)" stroke-linejoin="round" d="M 5961,22070 L 5961,21958"/>
 <path fill="none" stroke="rgb(179,179,179)" stroke-linejoin="round" d="M 5961,22070 L 5961,21958"/>
 <path fill="none" stroke="rgb(179,179,179)" stroke-linejoin="round" d="M 6047,22070 L 6047,21958"/>
 <path fill="none" stroke="rgb(179,179,179)" stroke-linejoin="round" d="M 6047,22070 L 6047,21958"/>
 <path fill="none" stroke="rgb(179,179,179)" stroke-linejoin="round" d="M 6133,22070 L 6133,21958"/>
 <path fill="none" stroke="rgb(179,179,179)" stroke-linejoin="round" d="M 6133,22070 L 6133,21958"/>
 <path fill="none" stroke="rgb(179,179,179)" stroke-linejoin="round" d="M 6218,22070 L 6218,21958"/>
 <path fill="none" stroke="rgb(179,179,179)" stroke-linejoin="round" d="M 6218,22070 L 6218,21958"/>
 <path fill="none" stroke="rgb(179,179,179)" stroke-linejoin="round" d="M 6304,22070 L 6304,21958"/>
 <path fill="none" stroke="rgb(179,179,179)" stroke-linejoin="round" d="M 6304,22070 L 6304,21958"/>
 <path fill="none" stroke="rgb(179,179,179)" stroke-linejoin="round" d="M 6390,22070 L 6390,21958"/>
 <path fill="none" stroke="rgb(179,179,179)" stroke-linejoin="round" d="M 6390,22070 L 6390,21958"/>
 <path fill="none" stroke="rgb(179,179,179)" stroke-linejoin="round" d="M 6475,22070 L 6475,21958"/>
 <path fill="none" stroke="rgb(179,179,179)" stroke-linejoin="round" d="M 6475,22070 L 6475,21958"/>
 <path fill="none" stroke="rgb(179,179,179)" stroke-linejoin="round" d="M 6561,22070 L 6561,21958"/>
 <path fill="none" stroke="rgb(179,179,179)" stroke-linejoin="round" d="M 6561,22070 L 6561,21958"/>
 <path fill="none" stroke="rgb(179,179,179)" stroke-linejoin="round" d="M 6647,22070 L 6647,21958"/>
 <path fill="none" stroke="rgb(179,179,179)" stroke-linejoin="round" d="M 6647,22070 L 6647,21958"/>
 <path fill="none" stroke="rgb(179,179,179)" stroke-linejoin="round" d="M 6732,22070 L 6732,21958"/>
 <path fill="none" stroke="rgb(179,179,179)" stroke-linejoin="round" d="M 6732,22070 L 6732,21958"/>
 <path fill="none" stroke="rgb(179,179,179)" stroke-linejoin="round" d="M 6818,22070 L 6818,21958"/>
 <path fill="none" stroke="rgb(179,179,179)" stroke-linejoin="round" d="M 6818,22070 L 6818,21958"/>
 <path fill="none" stroke="rgb(179,179,179)" stroke-linejoin="round" d="M 6904,22070 L 6904,21958"/>
 <path fill="none" stroke="rgb(179,179,179)" stroke-linejoin="round" d="M 6904,22070 L 6904,21958"/>
 <path fill="none" stroke="rgb(179,179,179)" stroke-linejoin="round" d="M 6989,22070 L 6989,21958"/>
 <path fill="none" stroke="rgb(179,179,179)" stroke-linejoin="round" d="M 6989,22070 L 6989,21958"/>
 <path fill="none" stroke="rgb(179,179,179)" stroke-linejoin="round" d="M 7075,22070 L 7075,21958"/>
 <path fill="none" stroke="rgb(179,179,179)" stroke-linejoin="round" d="M 7075,22070 L 7075,21958"/>
 <path fill="none" stroke="rgb(179,179,179)" stroke-linejoin="round" d="M 7161,22070 L 7161,21958"/>
 <path fill="none" stroke="rgb(179,179,179)" stroke-linejoin="round" d="M 7161,22070 L 7161,21958"/>
 <path fill="none" stroke="rgb(179,179,179)" stroke-linejoin="round" d="M 7246,22070 L 7246,21958"/>
 <path fill="none" stroke="rgb(179,179,179)" stroke-linejoin="round" d="M 7246,22070 L 7246,21958"/>
 <path fill="none" stroke="rgb(179,179,179)" stroke-linejoin="round" d="M 7332,22070 L 7332,21958"/>
 <path fill="none" stroke="rgb(179,179,179)" stroke-linejoin="round" d="M 7332,22070 L 7332,21958"/>
 <path fill="none" stroke="rgb(179,179,179)" stroke-linejoin="round" d="M 7418,22070 L 7418,21958"/>
 <path fill="none" stroke="rgb(179,179,179)" stroke-linejoin="round" d="M 7418,22070 L 7418,21958"/>
 <path fill="none" stroke="rgb(179,179,179)" stroke-linejoin="round" d="M 7504,22070 L 7504,21958"/>
 <path fill="none" stroke="rgb(179,179,179)" stroke-linejoin="round" d="M 7504,22070 L 7504,21958"/>
 <path fill="none" stroke="rgb(179,179,179)" stroke-linejoin="round" d="M 7589,22070 L 7589,21958"/>
 <path fill="none" stroke="rgb(179,179,179)" stroke-linejoin="round" d="M 7589,22070 L 7589,21958"/>
 <path fill="none" stroke="rgb(179,179,179)" stroke-linejoin="round" d="M 7675,22070 L 7675,21958"/>
 <path fill="none" stroke="rgb(179,179,179)" stroke-linejoin="round" d="M 7675,22070 L 7675,21958"/>
 <path fill="none" stroke="rgb(179,179,179)" stroke-linejoin="round" d="M 7761,22070 L 7761,21958"/>
 <path fill="none" stroke="rgb(179,179,179)" stroke-linejoin="round" d="M 7761,22070 L 7761,21958"/>
 <path fill="none" stroke="rgb(179,179,179)" stroke-linejoin="round" d="M 7846,22070 L 7846,21958"/>
 <path fill="none" stroke="rgb(179,179,179)" stroke-linejoin="round" d="M 7846,22070 L 7846,21958"/>
 <path fill="none" stroke="rgb(179,179,179)" stroke-linejoin="round" d="M 7932,22070 L 7932,21958"/>
 <path fill="none" stroke="rgb(179,179,179)" stroke-linejoin="round" d="M 7932,22070 L 7932,21958"/>
 <path fill="none" stroke="rgb(179,179,179)" stroke-linejoin="round" d="M 8018,22070 L 8018,21958"/>
 <path fill="none" stroke="rgb(179,179,179)" stroke-linejoin="round" d="M 8018,22070 L 8018,21958"/>
 <path fill="none" stroke="rgb(179,179,179)" stroke-linejoin="round" d="M 8103,22070 L 8103,21958"/>
 <path fill="none" stroke="rgb(179,179,179)" stroke-linejoin="round" d="M 8103,22070 L 8103,21958"/>
 <path fill="none" stroke="rgb(179,179,179)" stroke-linejoin="round" d="M 8189,22070 L 8189,21958"/>
 <path fill="none" stroke="rgb(179,179,179)" stroke-linejoin="round" d="M 8189,22070 L 8189,21958"/>
 <path fill="none" stroke="rgb(179,179,179)" stroke-linejoin="round" d="M 8275,22070 L 8275,21958"/>
 <path fill="none" stroke="rgb(179,179,179)" stroke-linejoin="round" d="M 8275,22070 L 8275,21958"/>
 <path fill="none" stroke="rgb(179,179,179)" stroke-linejoin="round" d="M 8360,22070 L 8360,21958"/>
 <path fill="none" stroke="rgb(179,179,179)" stroke-linejoin="round" d="M 8360,22070 L 8360,21958"/>
 <path fill="none" stroke="rgb(179,179,179)" stroke-linejoin="round" d="M 8446,22070 L 8446,21958"/>
 <path fill="none" stroke="rgb(179,179,179)" stroke-linejoin="round" d="M 8446,22070 L 8446,21958"/>
 <path fill="none" stroke="rgb(179,179,179)" stroke-linejoin="round" d="M 8532,22070 L 8532,21958"/>
 <path fill="none" stroke="rgb(179,179,179)" stroke-linejoin="round" d="M 8532,22070 L 8532,21958"/>
 <path fill="none" stroke="rgb(179,179,179)" stroke-linejoin="round" d="M 8617,22070 L 8617,21958"/>
 <path fill="none" stroke="rgb(179,179,179)" stroke-linejoin="round" d="M 8617,22070 L 8617,21958"/>
 <path fill="none" stroke="rgb(179,179,179)" stroke-linejoin="round" d="M 8703,22070 L 8703,21958"/>
 <path fill="none" stroke="rgb(179,179,179)" stroke-linejoin="round" d="M 8703,22070 L 8703,21958"/>
 <path fill="none" stroke="rgb(179,179,179)" stroke-linejoin="round" d="M 8789,22070 L 8789,21958"/>
 <path fill="none" stroke="rgb(179,179,179)" stroke-linejoin="round" d="M 8789,22070 L 8789,21958"/>
 <path fill="none" stroke="rgb(179,179,179)" stroke-linejoin="round" d="M 8874,22070 L 8874,21958"/>
 <path fill="none" stroke="rgb(179,179,179)" stroke-linejoin="round" d="M 8874,22070 L 8874,21958"/>
 <path fill="none" stroke="rgb(179,179,179)" stroke-linejoin="round" d="M 8960,22070 L 8960,21958"/>
 <path fill="none" stroke="rgb(179,179,179)" stroke-linejoin="round" d="M 8960,22070 L 8960,21958"/>
 <path fill="none" stroke="rgb(179,179,179)" stroke-linejoin="round" d="M 9046,22070 L 9046,21958"/>
 <path fill="none" stroke="rgb(179,179,179)" stroke-linejoin="round" d="M 9046,22070 L 9046,21958"/>
 <path fill="none" stroke="rgb(179,179,179)" stroke-linejoin="round" d="M 9131,22070 L 9131,21958"/>
 <path fill="none" stroke="rgb(179,179,179)" stroke-linejoin="round" d="M 9131,22070 L 9131,21958"/>
 <path fill="none" stroke="rgb(179,179,179)" stroke-linejoin="round" d="M 9217,22070 L 9217,21958"/>
 <path fill="none" stroke="rgb(179,179,179)" stroke-linejoin="round" d="M 9217,22070 L 9217,21958"/>
 <path fill="none" stroke="rgb(179,179,179)" stroke-linejoin="round" d="M 9303,22070 L 9303,21958"/>
 <path fill="none" stroke="rgb(179,179,179)" stroke-linejoin="round" d="M 9303,22070 L 9303,21958"/>
 <path fill="none" stroke="rgb(179,179,179)" stroke-linejoin="round" d="M 9388,22070 L 9388,21958"/>
 <path fill="none" stroke="rgb(179,179,179)" stroke-linejoin="round" d="M 9388,22070 L 9388,21958"/>
 <path fill="none" stroke="rgb(179,179,179)" stroke-linejoin="round" d="M 9474,22070 L 9474,21958"/>
 <path fill="none" stroke="rgb(179,179,179)" stroke-linejoin="round" d="M 9474,22070 L 9474,21958"/>
 <path fill="none" stroke="rgb(179,179,179)" stroke-linejoin="round" d="M 9560,22070 L 9560,21958"/>
 <path fill="none" stroke="rgb(179,179,179)" stroke-linejoin="round" d="M 9560,22070 L 9560,21958"/>
 <path fill="none" stroke="rgb(179,179,179)" stroke-linejoin="round" d="M 9645,22070 L 9645,21958"/>
 <path fill="none" stroke="rgb(179,179,179)" stroke-linejoin="round" d="M 9645,22070 L 9645,21958"/>
 <path fill="none" stroke="rgb(179,179,179)" stroke-linejoin="round" d="M 9731,22070 L 9731,21958"/>
 <path fill="none" stroke="rgb(179,179,179)" stroke-linejoin="round" d="M 9731,22070 L 9731,21958"/>
 <path fill="none" stroke="rgb(179,179,179)" stroke-linejoin="round" d="M 9817,22070 L 9817,21958"/>
 <path fill="none" stroke="rgb(179,179,179)" stroke-linejoin="round" d="M 9817,22070 L 9817,21958"/>
 <path fill="none" stroke="rgb(179,179,179)" stroke-linejoin="round" d="M 9902,22070 L 9902,21958"/>
 <path fill="none" stroke="rgb(179,179,179)" stroke-linejoin="round" d="M 9902,22070 L 9902,21958"/>
 <path fill="none" stroke="rgb(179,179,179)" stroke-linejoin="round" d="M 9988,22070 L 9988,21958"/>
 <path fill="none" stroke="rgb(179,179,179)" stroke-linejoin="round" d="M 9988,22070 L 9988,21958"/>
 <path fill="none" stroke="rgb(179,179,179)" stroke-linejoin="round" d="M 10074,22070 L 10074,21958"/>
 <path fill="none" stroke="rgb(179,179,179)" stroke-linejoin="round" d="M 10074,22070 L 10074,21958"/>
 <path fill="none" stroke="rgb(179,179,179)" stroke-linejoin="round" d="M 10159,22070 L 10159,21958"/>
 <path fill="none" stroke="rgb(179,179,179)" stroke-linejoin="round" d="M 10159,22070 L 10159,21958"/>
 <path fill="none" stroke="rgb(179,179,179)" stroke-linejoin="round" d="M 10245,22070 L 10245,21958"/>
 <path fill="none" stroke="rgb(179,179,179)" stroke-linejoin="round" d="M 10245,22070 L 10245,21958"/>
 <path fill="none" stroke="rgb(179,179,179)" stroke-linejoin="round" d="M 10331,22070 L 10331,21958"/>
 <path fill="none" stroke="rgb(179,179,179)" stroke-linejoin="round" d="M 10331,22070 L 10331,21958"/>
 <path fill="none" stroke="rgb(179,179,179)" stroke-linejoin="round" d="M 10416,22070 L 10416,21958"/>
 <path fill="none" stroke="rgb(179,179,179)" stroke-linejoin="round" d="M 10416,22070 L 10416,21958"/>
 <path fill="none" stroke="rgb(179,179,179)" stroke-linejoin="round" d="M 10502,22070 L 10502,21958"/>
 <path fill="none" stroke="rgb(179,179,179)" stroke-linejoin="round" d="M 10502,22070 L 10502,21958"/>
 <path fill="none" stroke="rgb(179,179,179)" stroke-linejoin="round" d="M 10588,22070 L 10588,21958"/>
 <path fill="none" stroke="rgb(179,179,179)" stroke-linejoin="round" d="M 10588,22070 L 10588,21958"/>
 <path fill="none" stroke="rgb(179,179,179)" stroke-linejoin="round" d="M 10673,22070 L 10673,21958"/>
 <path fill="none" stroke="rgb(179,179,179)" stroke-linejoin="round" d="M 10673,22070 L 10673,21958"/>
 <path fill="none" stroke="rgb(179,179,179)" stroke-linejoin="round" d="M 10759,22070 L 10759,21958"/>
 <path fill="none" stroke="rgb(179,179,179)" stroke-linejoin="round" d="M 10759,22070 L 10759,21958"/>
 <path fill="none" stroke="rgb(179,179,179)" stroke-linejoin="round" d="M 10845,22070 L 10845,21958"/>
 <path fill="none" stroke="rgb(179,179,179)" stroke-linejoin="round" d="M 10845,22070 L 10845,21958"/>
 <path fill="none" stroke="rgb(179,179,179)" stroke-linejoin="round" d="M 10930,22070 L 10930,21958"/>
 <path fill="none" stroke="rgb(179,179,179)" stroke-linejoin="round" d="M 10930,22070 L 10930,21958"/>
 <path fill="none" stroke="rgb(179,179,179)" stroke-linejoin="round" d="M 11016,22070 L 11016,21958"/>
 <path fill="none" stroke="rgb(179,179,179)" stroke-linejoin="round" d="M 11016,22070 L 11016,21958"/>
 <path fill="none" stroke="rgb(179,179,179)" stroke-linejoin="round" d="M 11102,22070 L 11102,21958"/>
 <path fill="none" stroke="rgb(179,179,179)" stroke-linejoin="round" d="M 11102,22070 L 11102,21958"/>
 <path fill="none" stroke="rgb(179,179,179)" stroke-linejoin="round" d="M 11187,22070 L 11187,21958"/>
 <path fill="none" stroke="rgb(179,179,179)" stroke-linejoin="round" d="M 11187,22070 L 11187,21958"/>
 <path fill="none" stroke="rgb(179,179,179)" stroke-linejoin="round" d="M 11273,22070 L 11273,21958"/>
 <path fill="none" stroke="rgb(179,179,179)" stroke-linejoin="round" d="M 11273,22070 L 11273,21958"/>
 <path fill="none" stroke="rgb(179,179,179)" stroke-linejoin="round" d="M 11359,22070 L 11359,21958"/>
 <path fill="none" stroke="rgb(179,179,179)" stroke-linejoin="round" d="M 11359,22070 L 11359,21958"/>
 <path fill="none" stroke="rgb(179,179,179)" stroke-linejoin="round" d="M 11444,22070 L 11444,21958"/>
 <path fill="none" stroke="rgb(179,179,179)" stroke-linejoin="round" d="M 11444,22070 L 11444,21958"/>
 <path fill="none" stroke="rgb(179,179,179)" stroke-linejoin="round" d="M 11530,22070 L 11530,21958"/>
 <path fill="none" stroke="rgb(179,179,179)" stroke-linejoin="round" d="M 11530,22070 L 11530,21958"/>
 <path fill="none" stroke="rgb(179,179,179)" stroke-linejoin="round" d="M 11616,22070 L 11616,21958"/>
 <path fill="none" stroke="rgb(179,179,179)" stroke-linejoin="round" d="M 11616,22070 L 11616,21958"/>
 <path fill="none" stroke="rgb(179,179,179)" stroke-linejoin="round" d="M 11701,22070 L 11701,21958"/>
 <path fill="none" stroke="rgb(179,179,179)" stroke-linejoin="round" d="M 11701,22070 L 11701,21958"/>
 <path fill="none" stroke="rgb(179,179,179)" stroke-linejoin="round" d="M 11787,22070 L 11787,21958"/>
 <path fill="none" stroke="rgb(179,179,179)" stroke-linejoin="round" d="M 11787,22070 L 11787,21958"/>
 <path fill="none" stroke="rgb(179,179,179)" stroke-linejoin="round" d="M 11872,22070 L 11872,21958"/>
 <path fill="none" stroke="rgb(179,179,179)" stroke-linejoin="round" d="M 11872,22070 L 11872,21958"/>
 <path fill="none" stroke="rgb(179,179,179)" stroke-linejoin="round" d="M 11957,22070 L 11957,21958"/>
 <path fill="none" stroke="rgb(179,179,179)" stroke-linejoin="round" d="M 11957,22070 L 11957,21958"/>
 <path fill="none" stroke="rgb(179,179,179)" stroke-linejoin="round" d="M 12043,22070 L 12043,21958"/>
 <path fill="none" stroke="rgb(179,179,179)" stroke-linejoin="round" d="M 12043,22070 L 12043,21958"/>
 <path fill="none" stroke="rgb(179,179,179)" stroke-linejoin="round" d="M 12129,22070 L 12129,21958"/>
 <path fill="none" stroke="rgb(179,179,179)" stroke-linejoin="round" d="M 12129,22070 L 12129,21958"/>
 <path fill="none" stroke="rgb(179,179,179)" stroke-linejoin="round" d="M 12214,22070 L 12214,21958"/>
 <path fill="none" stroke="rgb(179,179,179)" stroke-linejoin="round" d="M 12214,22070 L 12214,21958"/>
 <path fill="none" stroke="rgb(179,179,179)" stroke-linejoin="round" d="M 12300,22070 L 12300,21958"/>
 <path fill="none" stroke="rgb(179,179,179)" stroke-linejoin="round" d="M 12300,22070 L 12300,21958"/>
 <path fill="none" stroke="rgb(179,179,179)" stroke-linejoin="round" d="M 12386,22070 L 12386,21958"/>
 <path fill="none" stroke="rgb(179,179,179)" stroke-linejoin="round" d="M 12386,22070 L 12386,21958"/>
 <path fill="none" stroke="rgb(179,179,179)" stroke-linejoin="round" d="M 12471,22070 L 12471,21958"/>
 <path fill="none" stroke="rgb(179,179,179)" stroke-linejoin="round" d="M 12471,22070 L 12471,21958"/>
 <path fill="none" stroke="rgb(179,179,179)" stroke-linejoin="round" d="M 12557,22070 L 12557,21958"/>
 <path fill="none" stroke="rgb(179,179,179)" stroke-linejoin="round" d="M 12557,22070 L 12557,21958"/>
 <path fill="none" stroke="rgb(179,179,179)" stroke-linejoin="round" d="M 12643,22070 L 12643,21958"/>
 <path fill="none" stroke="rgb(179,179,179)" stroke-linejoin="round" d="M 12643,22070 L 12643,21958"/>
 <path fill="none" stroke="rgb(179,179,179)" stroke-linejoin="round" d="M 12728,22070 L 12728,21958"/>
 <path fill="none" stroke="rgb(179,179,179)" stroke-linejoin="round" d="M 12728,22070 L 12728,21958"/>
 <path fill="none" stroke="rgb(179,179,179)" stroke-linejoin="round" d="M 12814,22070 L 12814,21958"/>
 <path fill="none" stroke="rgb(179,179,179)" stroke-linejoin="round" d="M 12814,22070 L 12814,21958"/>
 <path fill="none" stroke="rgb(179,179,179)" stroke-linejoin="round" d="M 12900,22070 L 12900,21958"/>
 <path fill="none" stroke="rgb(179,179,179)" stroke-linejoin="round" d="M 12900,22070 L 12900,21958"/>
 <path fill="none" stroke="rgb(179,179,179)" stroke-linejoin="round" d="M 12985,22070 L 12985,21958"/>
 <path fill="none" stroke="rgb(179,179,179)" stroke-linejoin="round" d="M 12985,22070 L 12985,21958"/>
 <path fill="none" stroke="rgb(179,179,179)" stroke-linejoin="round" d="M 13071,22070 L 13071,21958"/>
 <path fill="none" stroke="rgb(179,179,179)" stroke-linejoin="round" d="M 13071,22070 L 13071,21958"/>
 <path fill="none" stroke="rgb(179,179,179)" stroke-linejoin="round" d="M 13157,22070 L 13157,21958"/>
 <path fill="none" stroke="rgb(179,179,179)" stroke-linejoin="round" d="M 13157,22070 L 13157,21958"/>
 <path fill="none" stroke="rgb(179,179,179)" stroke-linejoin="round" d="M 13243,22070 L 13243,21958"/>
 <path fill="none" stroke="rgb(179,179,179)" stroke-linejoin="round" d="M 13243,22070 L 13243,21958"/>
 <path fill="none" stroke="rgb(179,179,179)" stroke-linejoin="round" d="M 13328,22070 L 13328,21958"/>
 <path fill="none" stroke="rgb(179,179,179)" stroke-linejoin="round" d="M 13328,22070 L 13328,21958"/>
 <path fill="none" stroke="rgb(179,179,179)" stroke-linejoin="round" d="M 13414,22070 L 13414,21958"/>
 <path fill="none" stroke="rgb(179,179,179)" stroke-linejoin="round" d="M 13414,22070 L 13414,21958"/>
 <path fill="none" stroke="rgb(179,179,179)" stroke-linejoin="round" d="M 13500,22070 L 13500,21958"/>
 <path fill="none" stroke="rgb(179,179,179)" stroke-linejoin="round" d="M 13500,22070 L 13500,21958"/>
 <path fill="none" stroke="rgb(179,179,179)" stroke-linejoin="round" d="M 13585,22070 L 13585,21958"/>
 <path fill="none" stroke="rgb(179,179,179)" stroke-linejoin="round" d="M 13585,22070 L 13585,21958"/>
 <path fill="none" stroke="rgb(179,179,179)" stroke-linejoin="round" d="M 13671,22070 L 13671,21958"/>
 <path fill="none" stroke="rgb(179,179,179)" stroke-linejoin="round" d="M 13671,22070 L 13671,21958"/>
 <path fill="none" stroke="rgb(179,179,179)" stroke-linejoin="round" d="M 13757,22070 L 13757,21958"/>
 <path fill="none" stroke="rgb(179,179,179)" stroke-linejoin="round" d="M 13757,22070 L 13757,21958"/>
 <path fill="none" stroke="rgb(179,179,179)" stroke-linejoin="round" d="M 13842,22070 L 13842,21958"/>
 <path fill="none" stroke="rgb(179,179,179)" stroke-linejoin="round" d="M 13842,22070 L 13842,21958"/>
 <path fill="none" stroke="rgb(179,179,179)" stroke-linejoin="round" d="M 13928,22070 L 13928,21958"/>
 <path fill="none" stroke="rgb(179,179,179)" stroke-linejoin="round" d="M 13928,22070 L 13928,21958"/>
 <path fill="none" stroke="rgb(179,179,179)" stroke-linejoin="round" d="M 14014,22070 L 14014,21958"/>
 <path fill="none" stroke="rgb(179,179,179)" stroke-linejoin="round" d="M 14014,22070 L 14014,21958"/>
 <path fill="none" stroke="rgb(179,179,179)" stroke-linejoin="round" d="M 14099,22070 L 14099,21958"/>
 <path fill="none" stroke="rgb(179,179,179)" stroke-linejoin="round" d="M 14099,22070 L 14099,21958"/>
 <path fill="none" stroke="rgb(179,179,179)" stroke-linejoin="round" d="M 14185,22070 L 14185,21958"/>
 <path fill="none" stroke="rgb(179,179,179)" stroke-linejoin="round" d="M 14185,22070 L 14185,21958"/>
 <path fill="none" stroke="rgb(179,179,179)" stroke-linejoin="round" d="M 14271,22070 L 14271,21958"/>
 <path fill="none" stroke="rgb(179,179,179)" stroke-linejoin="round" d="M 14271,22070 L 14271,21958"/>
 <path fill="none" stroke="rgb(179,179,179)" stroke-linejoin="round" d="M 14356,22070 L 14356,21958"/>
 <path fill="none" stroke="rgb(179,179,179)" stroke-linejoin="round" d="M 14356,22070 L 14356,21958"/>
 <path fill="none" stroke="rgb(179,179,179)" stroke-linejoin="round" d="M 14442,22070 L 14442,21958"/>
 <path fill="none" stroke="rgb(179,179,179)" stroke-linejoin="round" d="M 14442,22070 L 14442,21958"/>
 <path fill="none" stroke="rgb(179,179,179)" stroke-linejoin="round" d="M 14528,22070 L 14528,21958"/>
 <path fill="none" stroke="rgb(179,179,179)" stroke-linejoin="round" d="M 14528,22070 L 14528,21958"/>
 <path fill="none" stroke="rgb(179,179,179)" stroke-linejoin="round" d="M 14613,22070 L 14613,21958"/>
 <path fill="none" stroke="rgb(179,179,179)" stroke-linejoin="round" d="M 14613,22070 L 14613,21958"/>
 <path fill="none" stroke="rgb(179,179,179)" stroke-linejoin="round" d="M 14699,22070 L 14699,21958"/>
 <path fill="none" stroke="rgb(179,179,179)" stroke-linejoin="round" d="M 14699,22070 L 14699,21958"/>
 <path fill="none" stroke="rgb(179,179,179)" stroke-linejoin="round" d="M 14785,22070 L 14785,21958"/>
 <path fill="none" stroke="rgb(179,179,179)" stroke-linejoin="round" d="M 14785,22070 L 14785,21958"/>
 <path fill="none" stroke="rgb(179,179,179)" stroke-linejoin="round" d="M 14870,22070 L 14870,21958"/>
 <path fill="none" stroke="rgb(179,179,179)" stroke-linejoin="round" d="M 14870,22070 L 14870,21958"/>
 <path fill="none" stroke="rgb(179,179,179)" stroke-linejoin="round" d="M 14956,22070 L 14956,21958"/>
 <path fill="none" stroke="rgb(179,179,179)" stroke-linejoin="round" d="M 14956,22070 L 14956,21958"/>
 <path fill="none" stroke="rgb(179,179,179)" stroke-linejoin="round" d="M 15042,22070 L 15042,21958"/>
 <path fill="none" stroke="rgb(179,179,179)" stroke-linejoin="round" d="M 15042,22070 L 15042,21958"/>
 <path fill="none" stroke="rgb(179,179,179)" stroke-linejoin="round" d="M 15127,22070 L 15127,21958"/>
 <path fill="none" stroke="rgb(179,179,179)" stroke-linejoin="round" d="M 15127,22070 L 15127,21958"/>
 <path fill="none" stroke="rgb(179,179,179)" stroke-linejoin="round" d="M 15213,22070 L 15213,21958"/>
 <path fill="none" stroke="rgb(179,179,179)" stroke-linejoin="round" d="M 15213,22070 L 15213,21958"/>
 <path fill="none" stroke="rgb(179,179,179)" stroke-linejoin="round" d="M 15299,22070 L 15299,21958"/>
 <path fill="none" stroke="rgb(179,179,179)" stroke-linejoin="round" d="M 15299,22070 L 15299,21958"/>
 <path fill="none" stroke="rgb(179,179,179)" stroke-linejoin="round" d="M 15384,22070 L 15384,21958"/>
 <path fill="none" stroke="rgb(179,179,179)" stroke-linejoin="round" d="M 15384,22070 L 15384,21958"/>
 <path fill="none" stroke="rgb(179,179,179)" stroke-linejoin="round" d="M 15470,22070 L 15470,21958"/>
 <path fill="none" stroke="rgb(179,179,179)" stroke-linejoin="round" d="M 15470,22070 L 15470,21958"/>
 <path fill="none" stroke="rgb(179,179,179)" stroke-linejoin="round" d="M 15556,22070 L 15556,21958"/>
 <path fill="none" stroke="rgb(179,179,179)" stroke-linejoin="round" d="M 15556,22070 L 15556,21958"/>
 <path fill="none" stroke="rgb(179,179,179)" stroke-linejoin="round" d="M 15641,22070 L 15641,21958"/>
 <path fill="none" stroke="rgb(179,179,179)" stroke-linejoin="round" d="M 15641,22070 L 15641,21958"/>
 <path fill="none" stroke="rgb(179,179,179)" stroke-linejoin="round" d="M 15727,22070 L 15727,21958"/>
 <path fill="none" stroke="rgb(179,179,179)" stroke-linejoin="round" d="M 15727,22070 L 15727,21958"/>
 <path fill="none" stroke="rgb(179,179,179)" stroke-linejoin="round" d="M 15813,22070 L 15813,21958"/>
 <path fill="none" stroke="rgb(179,179,179)" stroke-linejoin="round" d="M 15813,22070 L 15813,21958"/>
 <path fill="none" stroke="rgb(179,179,179)" stroke-linejoin="round" d="M 15898,22070 L 15898,21958"/>
 <path fill="none" stroke="rgb(179,179,179)" stroke-linejoin="round" d="M 15898,22070 L 15898,21958"/>
 <path fill="none" stroke="rgb(179,179,179)" stroke-linejoin="round" d="M 15984,22070 L 15984,21958"/>
 <path fill="none" stroke="rgb(179,179,179)" stroke-linejoin="round" d="M 15984,22070 L 15984,21958"/>
 <path fill="none" stroke="rgb(179,179,179)" stroke-linejoin="round" d="M 16070,22070 L 16070,21958"/>
 <path fill="none" stroke="rgb(179,179,179)" stroke-linejoin="round" d="M 16070,22070 L 16070,21958"/>
 <path fill="none" stroke="rgb(179,179,179)" stroke-linejoin="round" d="M 16155,22070 L 16155,21958"/>
 <path fill="none" stroke="rgb(179,179,179)" stroke-linejoin="round" d="M 16155,22070 L 16155,21958"/>
 <path fill="none" stroke="rgb(179,179,179)" stroke-linejoin="round" d="M 16241,22070 L 16241,21958"/>
 <path fill="none" stroke="rgb(179,179,179)" stroke-linejoin="round" d="M 16241,22070 L 16241,21958"/>
 <path fill="none" stroke="rgb(179,179,179)" stroke-linejoin="round" d="M 16327,22070 L 16327,21958"/>
 <path fill="none" stroke="rgb(179,179,179)" stroke-linejoin="round" d="M 16327,22070 L 16327,21958"/>
 <path fill="none" stroke="rgb(179,179,179)" stroke-linejoin="round" d="M 16412,22070 L 16412,21958"/>
 <path fill="none" stroke="rgb(179,179,179)" stroke-linejoin="round" d="M 16412,22070 L 16412,21958"/>
 <path fill="none" stroke="rgb(179,179,179)" stroke-linejoin="round" d="M 16498,22070 L 16498,21958"/>
 <path fill="none" stroke="rgb(179,179,179)" stroke-linejoin="round" d="M 16498,22070 L 16498,21958"/>
 <path fill="none" stroke="rgb(179,179,179)" stroke-linejoin="round" d="M 16584,22070 L 16584,21958"/>
 <path fill="none" stroke="rgb(179,179,179)" stroke-linejoin="round" d="M 16584,22070 L 16584,21958"/>
 <path fill="none" stroke="rgb(179,179,179)" stroke-linejoin="round" d="M 16669,22070 L 16669,21958"/>
 <path fill="none" stroke="rgb(179,179,179)" stroke-linejoin="round" d="M 16669,22070 L 16669,21958"/>
 <path fill="none" stroke="rgb(179,179,179)" stroke-linejoin="round" d="M 16755,22070 L 16755,21958"/>
 <path fill="none" stroke="rgb(179,179,179)" stroke-linejoin="round" d="M 16755,22070 L 16755,21958"/>
 <path fill="none" stroke="rgb(179,179,179)" stroke-linejoin="round" d="M 16841,22070 L 16841,21958"/>
 <path fill="none" stroke="rgb(179,179,179)" stroke-linejoin="round" d="M 16841,22070 L 16841,21958"/>
 <path fill="none" stroke="rgb(179,179,179)" stroke-linejoin="round" d="M 16926,22070 L 16926,21958"/>
 <path fill="none" stroke="rgb(179,179,179)" stroke-linejoin="round" d="M 16926,22070 L 16926,21958"/>
 <path fill="none" stroke="rgb(179,179,179)" stroke-linejoin="round" d="M 17012,22070 L 17012,21958"/>
 <path fill="none" stroke="rgb(179,179,179)" stroke-linejoin="round" d="M 17012,22070 L 17012,21958"/>
 <path fill="none" stroke="rgb(179,179,179)" stroke-linejoin="round" d="M 17098,22070 L 17098,21958"/>
 <path fill="none" stroke="rgb(179,179,179)" stroke-linejoin="round" d="M 17098,22070 L 17098,21958"/>
 <path fill="none" stroke="rgb(179,179,179)" stroke-linejoin="round" d="M 17183,22070 L 17183,21958"/>
 <path fill="none" stroke="rgb(179,179,179)" stroke-linejoin="round" d="M 17183,22070 L 17183,21958"/>
 <path fill="none" stroke="rgb(179,179,179)" stroke-linejoin="round" d="M 17269,22070 L 17269,21958"/>
 <path fill="none" stroke="rgb(179,179,179)" stroke-linejoin="round" d="M 17269,22070 L 17269,21958"/>
 <path fill="none" stroke="rgb(179,179,179)" stroke-linejoin="round" d="M 17355,22070 L 17355,21958"/>
 <path fill="none" stroke="rgb(179,179,179)" stroke-linejoin="round" d="M 17355,22070 L 17355,21958"/>
 <path fill="none" stroke="rgb(179,179,179)" stroke-linejoin="round" d="M 17440,22070 L 17440,21958"/>
 <path fill="none" stroke="rgb(179,179,179)" stroke-linejoin="round" d="M 17440,22070 L 17440,21958"/>
 <path fill="none" stroke="rgb(179,179,179)" stroke-linejoin="round" d="M 17526,22070 L 17526,21958"/>
 <path fill="none" stroke="rgb(179,179,179)" stroke-linejoin="round" d="M 17526,22070 L 17526,21958"/>
 <path fill="none" stroke="rgb(179,179,179)" stroke-linejoin="round" d="M 17612,22070 L 17612,21958"/>
 <path fill="none" stroke="rgb(179,179,179)" stroke-linejoin="round" d="M 17612,22070 L 17612,21958"/>
 <path fill="none" stroke="rgb(179,179,179)" stroke-linejoin="round" d="M 17697,22070 L 17697,21958"/>
 <path fill="none" stroke="rgb(179,179,179)" stroke-linejoin="round" d="M 17697,22070 L 17697,21958"/>
 <path fill="none" stroke="rgb(179,179,179)" stroke-linejoin="round" d="M 17783,22070 L 17783,21958"/>
 <path fill="none" stroke="rgb(179,179,179)" stroke-linejoin="round" d="M 17783,22070 L 17783,21958"/>
 <path fill="none" stroke="rgb(179,179,179)" stroke-linejoin="round" d="M 17869,22070 L 17869,21958"/>
 <path fill="none" stroke="rgb(179,179,179)" stroke-linejoin="round" d="M 17869,22070 L 17869,21958"/>
 <path fill="none" stroke="rgb(179,179,179)" stroke-linejoin="round" d="M 17954,22070 L 17954,21958"/>
 <path fill="none" stroke="rgb(179,179,179)" stroke-linejoin="round" d="M 17954,22070 L 17954,21958"/>
 <path fill="none" stroke="rgb(179,179,179)" stroke-linejoin="round" d="M 18040,22070 L 18040,21958"/>
 <path fill="none" stroke="rgb(179,179,179)" stroke-linejoin="round" d="M 18040,22070 L 18040,21958"/>
 <path fill="none" stroke="rgb(179,179,179)" stroke-linejoin="round" d="M 18126,22070 L 18126,21958"/>
 <path fill="none" stroke="rgb(179,179,179)" stroke-linejoin="round" d="M 18126,22070 L 18126,21958"/>
 <path fill="none" stroke="rgb(179,179,179)" stroke-linejoin="round" d="M 18211,22070 L 18211,21958"/>
 <path fill="none" stroke="rgb(179,179,179)" stroke-linejoin="round" d="M 18211,22070 L 18211,21958"/>
 <path fill="none" stroke="rgb(179,179,179)" stroke-linejoin="round" d="M 18297,22070 L 18297,21958"/>
 <path fill="none" stroke="rgb(179,179,179)" stroke-linejoin="round" d="M 18297,22070 L 18297,21958"/>
 <path fill="none" stroke="rgb(179,179,179)" stroke-linejoin="round" d="M 18383,22070 L 18383,21958"/>
 <path fill="none" stroke="rgb(179,179,179)" stroke-linejoin="round" d="M 18383,22070 L 18383,21958"/>
 <path fill="none" stroke="rgb(179,179,179)" stroke-linejoin="round" d="M 18468,22070 L 18468,21958"/>
 <path fill="none" stroke="rgb(179,179,179)" stroke-linejoin="round" d="M 18468,22070 L 18468,21958"/>
 <path fill="none" stroke="rgb(179,179,179)" stroke-linejoin="round" d="M 18554,22070 L 18554,21958"/>
 <path fill="none" stroke="rgb(179,179,179)" stroke-linejoin="round" d="M 18554,22070 L 18554,21958"/>
 <path fill="none" stroke="rgb(179,179,179)" stroke-linejoin="round" d="M 18640,22070 L 18640,21958"/>
 <path fill="none" stroke="rgb(179,179,179)" stroke-linejoin="round" d="M 18640,22070 L 18640,21958"/>
 <path fill="none" stroke="rgb(179,179,179)" stroke-linejoin="round" d="M 18725,22070 L 18725,21958"/>
 <path fill="none" stroke="rgb(179,179,179)" stroke-linejoin="round" d="M 18725,22070 L 18725,21958"/>
 <path fill="none" stroke="rgb(179,179,179)" stroke-linejoin="round" d="M 18811,22070 L 18811,21958"/>
 <path fill="none" stroke="rgb(179,179,179)" stroke-linejoin="round" d="M 18811,22070 L 18811,21958"/>
 <path fill="none" stroke="rgb(179,179,179)" stroke-linejoin="round" d="M 18897,22070 L 18897,21958"/>
 <path fill="none" stroke="rgb(179,179,179)" stroke-linejoin="round" d="M 18897,22070 L 18897,21958"/>
 <path fill="none" stroke="rgb(179,179,179)" stroke-linejoin="round" d="M 18983,22070 L 18983,21958"/>
 <path fill="none" stroke="rgb(179,179,179)" stroke-linejoin="round" d="M 18983,22070 L 18983,21958"/>
 <path fill="none" stroke="rgb(179,179,179)" stroke-linejoin="round" d="M 1764,21958 L 18983,21958"/>
 <path fill="none" stroke="rgb(179,179,179)" stroke-linejoin="round" d="M 1614,21958 L 1764,21958"/>
 <path fill="none" stroke="rgb(179,179,179)" stroke-linejoin="round" d="M 1614,21958 L 1764,21958"/>
 <path fill="none" stroke="rgb(179,179,179)" stroke-linejoin="round" d="M 1614,15140 L 1764,15140"/>
 <path fill="none" stroke="rgb(179,179,179)" stroke-linejoin="round" d="M 1614,15140 L 1764,15140"/>
 <path fill="none" stroke="rgb(179,179,179)" stroke-linejoin="round" d="M 1614,8323 L 1764,8323"/>
 <path fill="none" stroke="rgb(179,179,179)" stroke-linejoin="round" d="M 1614,8323 L 1764,8323"/>
 <path fill="none" stroke="rgb(179,179,179)" stroke-linejoin="round" d="M 1614,1505 L 1764,1505"/>
 <path fill="none" stroke="rgb(179,179,179)" stroke-linejoin="round" d="M 1614,1505 L 1764,1505"/>
 <path fill="none" stroke="rgb(179,179,179)" stroke-linejoin="round" d="M 1764,21958 L 1764,1505"/>
 <path fill="none" stroke="rgb(197,0,11)" stroke-width="80" stroke-linejoin="round" stroke-dasharray="158,158" d="M 1764,19974 L 1849,19974 1935,19882 2021,19868 2106,19841 2192,19841 2278,19813 2363,19813 2449,19813 2535,19732 2620,19732 2706,19661 2792,19661 2877,19586 2963,19586 3049,19586 3134,19420 3220,19420 3306,19340 3391,19340 3477,19197 3563,19197 3648,19197 3734,18991 3820,18991 3905,18864 3991,18864 4077,18717 4162,18717 4248,18717 4334,18488 4419,18488 4505,18340 4591,18340 4676,18234 4762,18234 4848,18234 4933,17775 5019,17775 5105,17425 5190,17425 5276,17200 5362,17200 5447,17200 5533,16672 5619,16672 5704,16328 5790,16328 5876,15998 5961,15998 6047,15998 6133,15564 6218,15564 6304,15232 6390,15232 6475,14831 6561,14831 6647,14831 6732,14325 6818,14175 6904,13986 6989,13897 7075,13725 7161,13564 7246,13442 7332,13331 7418,13292 7504,13054 7589,12895 7675,12895 7761,12570 7846,12457 7932,12362 8018,12291 8103,12133 8189,12046 8275,11854 8360,11854 8446,11595 8532,11521 8617,11456 8703,11338 8789,11253 8874,11119 8960,11004 9046,10918 9131,10833 9217,10750 9303,10614 9388,10427 9474,10293 9560,10293 9645,10113 9731,10055 9817,9975 9902,9883 9988,9774 10074,9684 10159,9596 10245,9516 10331,9456 10416,9381 10502,9319 10588,9269 10673,9188 10759,9096 10845,9008 10930,8930 11016,8930 11102,8818 11187,8782 11273,8689 11359,8616 11444,8586 11530,8542 11616,8488 11701,8424 11787,8371 11872,8270 11957,8182 12043,8156 12129,8060 12214,7983 12300,7870 12386,7753 12471,7633 12557,7547 12643,7501 12728,7400 12814,7296 12900,7226 12985,7226 13071,6977 13157,6806 13243,6806 13328,6806 13414,6636 13500,6396 13585,6308 13671,6170 13757,6008 13842,5929 13928,5929 14014,5733 14099,5531 14185,5406 14271,5341 14356,5194 14442,5106 14528,5023 14613,4949 14699,4811 14785,4700 14870,4598 14956,4513 15042,4421 15127,4360 15213,4280 15299,4187 15384,4068 15470,4007 15556,3947 15641,3867 15727,3825 15813,3760 15898,3689 15984,3620 16070,3557 16155,3493 16241,3422 16327,3361 16412,3331 16498,3281 16584,3234 16669,3172 16755,3124 16841,3077 16926,3054 17012,3006 17098,2942 17183,2900 17269,2859 17355,2812 17440,2782 17526,2741 17612,2708 17697,2637 17783,2588 17869,2549 17954,2512 18040,2471 18126,2424 18211,2388 18297,2316 18383,2316 18468,2194 18554,2143 18640,2076 18725,2035 18811,1982 18897,1910 18983,1852"/>
 <path fill="none" stroke="rgb(112,110,12)" stroke-width="80" stroke-linejoin="round" stroke-dasharray="80,40" d="M 1764,20931 L 1849,20918 1935,20908 2021,20890 2106,20868 2192,20836 2278,20812 2363,20780 2449,20752 2535,20729 2620,20682 2706,20634 2792,20607 2877,20571 2963,20540 3049,20500 3134,20459 3220,20424 3306,20375 3391,20329 3477,20283 3563,20243 3648,20088 3734,20038 3820,19974 3905,19911 3991,19848 4077,19795 4162,19744 4248,19718 4334,19691 4419,19662 4505,19619 4591,19572 4676,19419 4762,19366 4848,19325 4933,19274 5019,19225 5105,19180 5190,19134 5276,19060 5362,18996 5447,18946 5533,18907 5619,18860 5704,18818 5790,18772 5876,18640 5961,18608 6047,18567 6133,18536 6218,18507 6304,18469 6390,18427 6475,18389 6561,18347 6647,18311 6732,18286 6818,18247 6904,18182 6989,18105 7075,18035 7161,17975 7246,17894 7332,17787 7418,17620 7504,17431 7589,17282 7675,17164 7761,17099 7846,17006 7932,16832 8018,16713 8103,16559 8189,16419 8275,16289 8360,16164 8446,16057 8532,15928 8617,15793 8703,15655 8789,15536 8874,15427 8960,15302 9046,15214 9131,15093 9217,14969 9303,14835 9388,14724 9474,14611 9560,14477 9645,14384 9731,14301 9817,14174 9902,14065 9988,13939 10074,13823 10159,13734 10245,13654 10331,13585 10416,13457 10502,13358 10588,13237 10673,13155 10759,13067 10845,12963 10930,12882 11016,12807 11102,12717 11187,12623 11273,12537 11359,12468 11444,12414 11530,12343 11616,12287 11701,12174 11787,12096 11872,11982 11957,11899 12043,11820 12129,11761 12214,11667 12300,11585 12386,11484 12471,11409 12557,11351 12643,11278 12728,11183 12814,11091 12900,10952 12985,10851 13071,10756 13157,10669 13243,10575 13328,10491 13414,10378 13500,10269 13585,10166 13671,10076 13757,9988 13842,9910 13928,9843 14014,9751 14099,9675 14185,9584 14271,9479 14356,9381 14442,9297 14528,9215 14613,9092 14699,8970 14785,8869 14870,8752 14956,8671 15042,8572 15127,8504 15213,8394 15299,8255 15384,8143 15470,8027 15556,7903 15641,7797 15727,7704 15813,7578 15898,7443 15984,7316 16070,7194 16155,7092 16241,6995 16327,6914 16412,6811 16498,6723 16584,6618 16669,6519 16755,6415 16841,6328 16926,6241 17012,6116 17098,5977 17183,5853 17269,5721 17355,5603 17440,5494 17526,5397 17612,5270 17697,5134 17783,5011 17869,4886 17954,4755 18040,4639 18126,4548 18211,4415 18297,4273 18383,4149 18468,4023 18554,3902 18640,3788 18725,3686 18811,3569 18897,3449 18983,3336"/>
 <path fill="none" stroke="rgb(255,191,0)" stroke-width="80" stroke-linejoin="round" d="M 1764,21650 L 1849,21647 1935,21644 2021,21637 2106,21629 2192,21621 2278,21610 2363,21604 2449,21599 2535,21592 2620,21577 2706,21562 2792,21545 2877,21526 2963,21507 3049,21496 3134,21483 3220,21462 3306,21435 3391,21395 3477,21368 3563,21342 3648,21330 3734,21311 3820,21281 3905,21251 3991,21214 4077,21177 4162,21151 4248,21135 4334,21118 4419,21093 4505,21056 4591,21012 4676,20963 4762,20931 4848,20907 4933,20868 5019,20811 5105,20743 5190,20674 5276,20565 5362,20505 5447,20466 5533,20411 5619,20305 5704,20184 5790,20060 5876,19918 5961,19807 6047,19743 6133,19640 6218,19488 6304,19297 6390,19117 6475,18923 6561,18764 6647,18671 6732,18540 6818,18340 6904,18175 6989,18009 7075,17836 7161,17690 7246,17607 7332,17489 7418,17335 7504,17135 7589,16967 7675,16820 7761,16721 7846,16675 7932,16598 8018,16483 8103,16369 8189,16269 8275,16175 8360,16122 8446,16098 8532,16029 8617,15975 8703,15905 8789,15822 8874,15748 8960,15708 9046,15689 9131,15633 9217,15558 9303,15495 9388,15444 9474,15387 9560,15353 9645,15339 9731,15294 9817,15228 9902,15170 9988,15111 10074,15051 10159,15008 10245,14994 10331,14940 10416,14866 10502,14784 10588,14709 10673,14630 10759,14583 10845,14558 10930,14492 11016,14391 11102,14286 11187,14189 11273,14077 11359,14009 11444,13966 11530,13864 11616,13726 11701,13546 11787,13490 11872,13456 11957,13417 12043,13369 12129,13230 12214,13020 12300,12803 12386,12633 12471,12590 12557,12526 12643,12446 12728,12281 12814,12060 12900,11834 12985,11645 13071,11478 13157,11371 13243,11316 13328,11197 13414,11059 13500,10920 13585,10817 13671,10699 13757,10632 13842,10598 13928,10501 14014,10378 14099,10274 14185,10178 14271,10070 14356,10016 14442,9985 14528,9897 14613,9780 14699,9671 14785,9569 14870,9467 14956,9415 15042,9382 15127,9291 15213,9174 15299,9051 15384,8948 15470,8838 15556,8777 15641,8745 15727,8646 15813,8515 15898,8394 15984,8279 16070,8167 16155,8101 16241,8065 16327,7951 16412,7791 16498,7651 16584,7502 16669,7359 16755,7272 16841,7221 16926,7075 17012,6874 17098,6698 17183,6512 17269,6324 17355,6225 17440,6166 17526,6009 17612,5796 17697,5602 17783,5415 17869,5248 17954,5131 18040,5081 18126,4945 18211,4750 18297,4565 18383,4422 18468,4231 18554,4143 18640,4100 18725,3965 18811,3787 18897,3634 18983,3499"/>
 <path fill="none" stroke="rgb(131,202,255)" stroke-width="80" stroke-linejoin="round" stroke-dasharray="158,158" d="M 1764,21772 L 1849,21770 1935,21768 2021,21766 2106,21762 2192,21759 2278,21756 2363,21753 2449,21750 2535,21748 2620,21746 2706,21740 2792,21735 2877,21728 2963,21721 3049,21715 3134,21712 3220,21706 3306,21698 3391,21691 3477,21682 3563,21675 3648,21668 3734,21664 3820,21659 3905,21650 3991,21642 4077,21629 4162,21617 4248,21607 4334,21604 4419,21598 4505,21584 4591,21573 4676,21557 4762,21542 4848,21531 4933,21520 5019,21514 5105,21490 5190,21465 5276,21441 5362,21416 5447,21389 5533,21378 5619,21352 5704,21306 5790,21257 5876,21202 5961,21143 6047,21096 6133,21060 6218,21008 6304,20909 6390,20800 6475,20691 6561,20562 6647,20452 6732,20378 6818,20278 6904,20107 6989,19944 7075,19826 7161,19707 7246,19619 7332,19583 7418,19506 7504,19373 7589,19262 7675,19160 7761,19054 7846,18995 7932,18965 8018,18893 8103,18748 8189,18621 8275,18522 8360,18408 8446,18347 8532,18314 8617,18223 8703,18090 8789,17954 8874,17853 8960,17741 9046,17674 9131,17643 9217,17558 9303,17412 9388,17296 9474,17191 9560,17087 9645,17013 9731,16985 9817,16898 9902,16739 9988,16622 10074,16505 10159,16397 10245,16329 10331,16298 10416,16190 10502,16049 10588,15928 10673,15809 10759,15695 10845,15640 10930,15612 11016,15511 11102,15372 11187,15264 11273,15165 11359,15070 11444,15011 11530,14986 11616,14886 11701,14747 11787,14610 11872,14492 11957,14468 12043,14427 12129,14393 12214,14263 12300,14104 12386,13945 12471,13827 12557,13802 12643,13753 12728,13702 12814,13538 12900,13318 12985,13133 13071,12996 13157,12872 13243,12822 13328,12794 13414,12671 13500,12533 13585,12416 13671,12315 13757,12214 13842,12176 13928,12157 14014,12044 14099,11932 14185,11836 14271,11743 14356,11641 14442,11606 14528,11587 14613,11476 14699,11355 14785,11252 14870,11167 14956,11078 15042,11039 15127,11016 15213,10907 15299,10801 15384,10720 15470,10657 15556,10598 15641,10565 15727,10546 15813,10522 15898,10428 15984,10340 16070,10275 16155,10208 16241,10186 16327,10167 16412,10118 16498,10047 16584,9989 16669,9929 16755,9867 16841,9839 16926,9823 17012,9764 17098,9693 17183,9643 17269,9583 17355,9521 17440,9491 17526,9475 17612,9427 17697,9348 17783,9281 17869,9223 17954,9163 18040,9138 18126,9124 18211,9075 18297,9013 18383,8956 18468,8906 18554,8850 18640,8816 18725,8802 18811,8742 18897,8671 18983,8608"/>
 <path fill="none" stroke="rgb(89,131,176)" stroke-width="80" stroke-linejoin="round" stroke-dasharray="158,158" d="M 1764,20167 L 1849,20150 1935,20116 2021,20080 2106,20030 2192,19988 2278,19947 2363,19923 2449,19889 2535,19835 2620,19780 2706,19717 2792,19652 2877,19589 2963,19546 3049,19496 3134,19421 3220,19333 3306,19261 3391,19177 3477,19092 3563,19032 3648,18992 3734,18931 3820,18820 3905,18708 3991,18578 4077,18446 4162,18353 4248,18300 4334,18281 4419,18203 4505,18060 4591,17938 4676,17827 4762,17786 4848,17740 4933,17650 5019,17575 5105,17509 5190,17450 5276,17404 5362,17389 5447,17363 5533,17313 5619,17277 5704,17243 5790,17218 5876,17194 5961,17188 6047,17173 6133,17149 6218,17130 6304,17112 6390,17096 6475,17082 6561,17079 6647,17069 6732,17055 6818,17041 6904,17030 6989,17020 7075,17009 7161,17005 7246,16995 7332,16982 7418,16969 7504,16957 7589,16948 7675,16937 7761,16934 7846,16925 7932,16914 8018,16903 8103,16891 8189,16878 8275,16866 8360,16862 8446,16852 8532,16838 8617,16825 8703,16812 8789,16800 8874,16788 8960,16781 9046,16769 9131,16754 9217,16741 9303,16724 9388,16707 9474,16690 9560,16681 9645,16665 9731,16645 9817,16626 9902,16602 9988,16579 10074,16568 10159,16541 10245,16524 10331,16494 10416,16471 10502,16439 10588,16406 10673,16392 10759,16352 10845,16331 10930,16294 11016,16276 11102,16207 11187,16160 11273,16126 11359,16083 11444,16054 11530,15998 11616,15932 11701,15892 11787,15818 11872,15744 11957,15677 12043,15633 12129,15541 12214,15461 12300,15395 12386,15289 12471,15207 12557,15108 12643,15001 12728,14897 12814,14771 12900,14656 12985,14537 13071,14437 13157,14310 13243,14217 13328,14064 13414,13922 13500,13764 13585,13611 13671,13528 13757,13395 13842,13266 13928,13163 14014,13047 14099,12886 14185,12775 14271,12678 14356,12600 14442,12546 14528,12488 14613,12353 14699,12165 14785,12050 14870,11970 14956,11894 15042,11821 15127,11683 15213,11561 15299,11421 15384,11315 15470,11232 15556,11158 15641,11055 15727,10985 15813,10872 15898,10777 15984,10697 16070,10635 16155,10586 16241,10547 16327,10453 16412,10386 16498,10322 16584,10270 16669,10229 16755,10229 16841,10142 16926,10064 17012,9992 17098,9926 17183,9864 17269,9816 17355,9775 17440,9736 17526,9671 17612,9588 17697,9521 17783,9459 17869,9411 17954,9360 18040,9330 18126,9275 18211,9225 18297,9174 18383,9131 18468,9100 18554,9075 18640,9056 18725,9026 18811,8998 18897,8974 18983,8953"/>
 <path fill="none" stroke="rgb(0,0,255)" stroke-width="80" stroke-linejoin="round" stroke-dasharray="158,158" d="M 1764,21862 L 1849,21861 1935,21860 2021,21858 2106,21857 2192,21854 2278,21850 2363,21844 2449,21842 2535,21842 2620,21839 2706,21835 2792,21831 2877,21826 2963,21821 3049,21819 3134,21818 3220,21813 3306,21811 3391,21807 3477,21801 3563,21794 3648,21791 3734,21789 3820,21784 3905,21776 3991,21767 4077,21756 4162,21743 4248,21731 4334,21724 4419,21718 4505,21704 4591,21684 4676,21667 4762,21650 4848,21629 4933,21621 5019,21613 5105,21591 5190,21565 5276,21535 5362,21488 5447,21462 5533,21449 5619,21436 5704,21401 5790,21352 5876,21301 5961,21251 6047,21212 6133,21191 6218,21173 6304,21118 6390,21075 6475,21011 6561,20938 6647,20862 6732,20830 6818,20807 6904,20735 6989,20666 7075,20582 7161,20517 7246,20460 7332,20413 7418,20370 7504,20290 7589,20241 7675,20182 7761,20118 7846,20072 7932,20058 8018,20031 8103,19980 8189,19915 8275,19865 8360,19820 8446,19790 8532,19778 8617,19745 8703,19712 8789,19670 8874,19625 8960,19578 9046,19554 9131,19548 9217,19523 9303,19477 9388,19429 9474,19382 9560,19344 9645,19317 9731,19312 9817,19280 9902,19229 9988,19180 10074,19125 10159,19074 10245,19042 10331,19028 10416,18980 10502,18916 10588,18837 10673,18783 10759,18691 10845,18636 10930,18623 11016,18573 11102,18484 11187,18408 11273,18308 11359,18229 11444,18178 11530,18147 11616,18081 11701,17989 11787,17922 11872,17821 11957,17795 12043,17773 12129,17759 12214,17707 12300,17631 12386,17473 12471,17349 12557,17306 12643,17275 12728,17260 12814,17185 12900,17061 12985,17008 13071,16933 13157,16832 13243,16757 13328,16736 13414,16676 13500,16586 13585,16513 13671,16445 13757,16394 13842,16380 13928,16353 14014,16306 14099,16244 14185,16182 14271,16137 14356,16099 14442,16051 14528,16038 14613,15998 14699,15928 14785,15878 14870,15813 14956,15759 15042,15716 15127,15705 15213,15661 15299,15593 15384,15541 15470,15475 15556,15419 15641,15381 15727,15362 15813,15319 15898,15239 15984,15177 16070,15116 16155,15058 16241,15022 16327,15008 16412,14972 16498,14893 16584,14829 16669,14771 16755,14703 16841,14661 16926,14645 17012,14595 17098,14506 17183,14445 17269,14379 17355,14308 17440,14263 17526,14242 17612,14190 17697,14106 17783,14036 17869,13976 17954,13913 18040,13881 18126,13871 18211,13815 18297,13726 18383,13676 18468,13619 18554,13560 18640,13528 18725,13517 18811,13477 18897,13405 18983,13354"/>
 <path fill="none" stroke="rgb(131,202,255)" stroke-width="80" stroke-linejoin="round" stroke-dasharray="80,40" d="M 1764,21630 L 1849,21621 1935,21616 2021,21612 2106,21601 2192,21589 2278,21578 2363,21568 2449,21560 2535,21556 2620,21549 2706,21538 2792,21528 2877,21522 2963,21513 3049,21508 3134,21506 3220,21501 3306,21492 3391,21483 3477,21475 3563,21468 3648,21462 3734,21460 3820,21455 3905,21448 3991,21440 4077,21433 4162,21426 4248,21420 4334,21418 4419,21413 4505,21406 4591,21399 4676,21388 4762,21380 4848,21371 4933,21366 5019,21357 5105,21345 5190,21327 5276,21312 5362,21295 5447,21279 5533,21273 5619,21260 5704,21235 5790,21209 5876,21171 5961,21135 6047,21108 6133,21095 6218,21065 6304,21018 6390,20966 6475,20904 6561,20830 6647,20749 6732,20722 6818,20675 6904,20596 6989,20503 7075,20411 7161,20319 7246,20247 7332,20208 7418,20161 7504,20079 7589,19984 7675,19888 7761,19808 7846,19724 7932,19673 8018,19624 8103,19538 8189,19436 8275,19334 8360,19239 8446,19161 8532,19117 8617,19052 8703,18944 8789,18839 8874,18741 8960,18622 9046,18512 9131,18447 9217,18370 9303,18250 9388,18117 9474,17981 9560,17849 9645,17752 9731,17691 9817,17595 9902,17477 9988,17327 10074,17195 10159,17060 10245,16963 10331,16901 10416,16814 10502,16664 10588,16510 10673,16364 10759,16227 10845,16115 10930,16066 11016,15988 11102,15878 11187,15747 11273,15639 11359,15547 11444,15482 11530,15456 11616,15403 11701,15311 11787,15237 11872,15183 11957,15171 12043,15151 12129,15140 12214,15095 12300,15034 12386,14954 12471,14916 12557,14907 12643,14884 12728,14872 12814,14836 12900,14773 12985,14755 13071,14718 13157,14672 13243,14650 13328,14643 13414,14617 13500,14580 13585,14547 13671,14523 13757,14498 13842,14485 13928,14480 14014,14462 14099,14432 14185,14407 14271,14385 14356,14365 14442,14354 14528,14349 14613,14334 14699,14306 14785,14285 14870,14267 14956,14248 15042,14237 15127,14234 15213,14221 15299,14197 15384,14180 15470,14162 15556,14148 15641,14138 15727,14136 15813,14127 15898,14107 15984,14095 16070,14083 16155,14070 16241,14064 16327,14061 16412,14052 16498,14035 16584,14023 16669,14010 16755,13996 16841,13988 16926,13985 17012,13974 17098,13951 17183,13933 17269,13916 17355,13899 17440,13887 17526,13884 17612,13871 17697,13846 17783,13824 17869,13804 17954,13782 18040,13769 18126,13766 18211,13750 18297,13718 18383,13692 18468,13665 18554,13637 18640,13619 18725,13615 18811,13592 18897,13544 18983,13504"/>
 <path fill="none" stroke="rgb(255,128,0)" stroke-width="80" stroke-linejoin="round" stroke-dasharray="158,158" d="M 1764,21877 L 1849,21873 1935,21871 2021,21869 2106,21864 2192,21860 2278,21853 2363,21846 2449,21839 2535,21831 2620,21826 2706,21820 2792,21814 2877,21804 2963,21791 3049,21784 3134,21772 3220,21762 3306,21753 3391,21743 3477,21730 3563,21719 3648,21704 3734,21691 3820,21682 3905,21669 3991,21658 4077,21645 4162,21632 4248,21619 4334,21609 4419,21597 4505,21584 4591,21572 4676,21553 4762,21538 4848,21526 4933,21513 5019,21502 5105,21490 5190,21477 5276,21460 5362,21441 5447,21426 5533,21409 5619,21395 5704,21382 5790,21368 5876,21350 5961,21325 6047,21304 6133,21283 6218,21269 6304,21249 6390,21221 6475,21191 6561,21166 6647,21121 6732,21089 6818,21059 6904,21027 6989,20996 7075,20949 7161,20894 7246,20840 7332,20789 7418,20733 7504,20673 7589,20618 7675,20551 7761,20476 7846,20410 7932,20337 8018,20279 8103,20223 8189,20168 8275,20096 8360,20028 8446,19968 8532,19876 8617,19803 8703,19742 8789,19678 8874,19616 8960,19554 9046,19493 9131,19446 9217,19390 9303,19336 9388,19247 9474,19156 9560,19068 9645,18972 9731,18893 9817,18837 9902,18779 9988,18685 10074,18597 10159,18519 10245,18425 10331,18370 10416,18339 10502,18293 10588,18217 10673,18129 10759,18058 10845,18000 10930,17951 11016,17924 11102,17884 11187,17842 11273,17780 11359,17723 11444,17681 11530,17650 11616,17633 11701,17606 11787,17560 11872,17523 11957,17506 12043,17496 12129,17488 12214,17475 12300,17447 12386,17405 12471,17366 12557,17346 12643,17328 12728,17316 12814,17303 12900,17274 12985,17231 13071,17190 13157,17152 13243,17127 13328,17107 13414,17097 13500,17078 13585,17050 13671,17029 13757,17009 13842,16991 13928,16979 14014,16971 14099,16957 14185,16937 14271,16919 14356,16900 14442,16882 14528,16870 14613,16864 14699,16849 14785,16827 14870,16807 14956,16787 15042,16769 15127,16753 15213,16745 15299,16730 15384,16707 15470,16684 15556,16662 15641,16643 15727,16627 15813,16612 15898,16593 15984,16567 16070,16541 16155,16512 16241,16488 16327,16469 16412,16458 16498,16436 16584,16396 16669,16352 16755,16310 16841,16269 16926,16232 17012,16209 17098,16168 17183,16106 17269,16041 17355,15971 17440,15908 17526,15847 17612,15808 17697,15748 17783,15660 17869,15570 17954,15467 18040,15379 18126,15341 18211,15250 18297,15170 18383,15053 18468,14925 18554,14792 18640,14667 18725,14558 18811,14489 18897,14440 18983,14348"/>
 <path fill="none" stroke="rgb(0,0,255)" stroke-width="80" stroke-linejoin="round" stroke-dasharray="51,127,51,127,254,127,254,127,254,127" d="M 1764,21385 L 1849,21382 1935,21372 2021,21366 2106,21358 2192,21350 2278,21341 2363,21336 2449,21332 2535,21320 2620,21312 2706,21303 2792,21293 2877,21283 2963,21276 3049,21271 3134,21257 3220,21248 3306,21237 3391,21225 3477,21212 3563,21203 3648,21196 3734,21180 3820,21169 3905,21156 3991,21142 4077,21127 4162,21117 4248,21109 4334,21093 4419,21085 4505,21068 4591,21053 4676,21038 4762,21025 4848,21015 4933,20999 5019,20983 5105,20964 5190,20942 5276,20917 5362,20894 5447,20878 5533,20855 5619,20833 5704,20804 5790,20769 5876,20735 5961,20704 6047,20676 6133,20641 6218,20607 6304,20564 6390,20515 6475,20461 6561,20414 6647,20382 6732,20315 6818,20263 6904,20204 6989,20137 7075,20067 7161,20014 7246,19964 7332,19881 7418,19816 7504,19769 7589,19695 7675,19619 7761,19548 7846,19499 7932,19447 8018,19393 8103,19324 8189,19261 8275,19198 8360,19146 8446,19106 8532,19057 8617,18996 8703,18938 8789,18880 8874,18823 8960,18778 9046,18746 9131,18709 9217,18661 9303,18611 9388,18563 9474,18516 9560,18480 9645,18454 9731,18424 9817,18385 9902,18344 9988,18299 10074,18258 10159,18219 10245,18192 10331,18167 10416,18127 10502,18085 10588,18038 10673,17993 10759,17955 10845,17925 10930,17898 11016,17854 11102,17805 11187,17756 11273,17708 11359,17671 11444,17644 11530,17613 11616,17567 11701,17519 11787,17475 11872,17446 11957,17427 12043,17408 12129,17381 12214,17336 12300,17276 12386,17227 12471,17196 12557,17176 12643,17152 12728,17119 12814,17065 12900,17016 12985,16948 13071,16898 13157,16859 13243,16832 13328,16792 13414,16745 13500,16692 13585,16643 13671,16597 13757,16566 13842,16542 13928,16499 14014,16457 14099,16405 14185,16359 14271,16312 14356,16282 14442,16258 14528,16214 14613,16174 14699,16126 14785,16081 14870,16038 14956,16008 15042,15988 15127,15949 15213,15913 15299,15871 15384,15839 15470,15794 15556,15769 15641,15749 15727,15722 15813,15693 15898,15659 15984,15625 16070,15593 16155,15570 16241,15552 16327,15530 16412,15502 16498,15469 16584,15434 16669,15400 16755,15373 16841,15351 16926,15328 17012,15296 17098,15257 17183,15217 17269,15179 17355,15147 17440,15121 17526,15098 17612,15087 17697,15045 17783,15004 17869,14963 17954,14928 18040,14900 18126,14877 18211,14839 18297,14791 18383,14747 18468,14701 18554,14660 18640,14626 18725,14600 18811,14552 18897,14514 18983,14447"/>
 <path fill="none" stroke="rgb(0,169,51)" stroke-width="80" stroke-linejoin="round" stroke-dasharray="80,40" d="M 1764,21719 L 1849,21717 1935,21715 2021,21713 2106,21711 2192,21708 2278,21706 2363,21704 2449,21702 2535,21701 2620,21700 2706,21698 2792,21696 2877,21694 2963,21692 3049,21690 3134,21689 3220,21687 3306,21685 3391,21682 3477,21679 3563,21675 3648,21672 3734,21669 3820,21667 3905,21663 3991,21659 4077,21653 4162,21648 4248,21643 4334,21638 4419,21633 4505,21628 4591,21621 4676,21612 4762,21604 4848,21597 4933,21590 5019,21582 5105,21571 5190,21555 5276,21538 5362,21519 5447,21504 5533,21488 5619,21470 5704,21447 5790,21417 5876,21390 5961,21355 6047,21324 6133,21297 6218,21264 6304,21228 6390,21184 6475,21135 6561,21086 6647,21043 6732,21007 6818,20948 6904,20880 6989,20807 7075,20729 7161,20651 7246,20589 7332,20533 7418,20463 7504,20374 7589,20276 7675,20178 7761,20078 7846,19989 7932,19911 8018,19819 8103,19728 8189,19646 8275,19560 8360,19467 8446,19389 8532,19314 8617,19245 8703,19173 8789,19087 8874,19006 8960,18918 9046,18854 9131,18800 9217,18682 9303,18627 9388,18567 9474,18504 9560,18450 9645,18408 9731,18388 9817,18355 9902,18305 9988,18251 10074,18204 10159,18159 10245,18126 10331,18110 10416,18080 10502,18036 10588,17987 10673,17939 10759,17898 10845,17866 10930,17848 11016,17823 11102,17778 11187,17735 11273,17696 11359,17655 11444,17624 11530,17608 11616,17582 11701,17537 11787,17490 11872,17457 11957,17440 12043,17426 12129,17414 12214,17387 12300,17341 12386,17292 12471,17253 12557,17228 12643,17207 12728,17191 12814,17164 12900,17112 12985,17069 13071,17037 13157,16998 13243,16966 13328,16948 13414,16929 13500,16896 13585,16862 13671,16833 13757,16807 13842,16785 13928,16773 14014,16756 14099,16731 14185,16705 14271,16681 14356,16658 14442,16642 14528,16632 14613,16615 14699,16591 14785,16565 14870,16543 14956,16522 15042,16505 15127,16496 15213,16480 15299,16456 15384,16432 15470,16411 15556,16389 15641,16372 15727,16363 15813,16349 15898,16324 15984,16298 16070,16275 16155,16252 16241,16233 16327,16223 16412,16205 16498,16173 16584,16141 16669,16109 16755,16078 16841,16053 16926,16039 17012,16016 17098,15973 17183,15929 17269,15887 17355,15844 17440,15807 17526,15790 17612,15761 17697,15705 17783,15650 17869,15593 17954,15539 18040,15490 18126,15468 18211,15432 18297,15370 18383,15294 18468,15226 18554,15150 18640,15088 18725,15049 18811,14997 18897,14907 18983,14808"/>
 <path fill="none" stroke="rgb(255,0,0)" stroke-width="80" stroke-linejoin="round" stroke-dasharray="158,158" d="M 1764,21349 L 1849,21342 1935,21337 2021,21330 2106,21320 2192,21311 2278,21301 2363,21292 2449,21284 2535,21278 2620,21270 2706,21261 2792,21251 2877,21241 2963,21232 3049,21224 3134,21219 3220,21211 3306,21199 3391,21187 3477,21176 3563,21167 3648,21158 3734,21152 3820,21145 3905,21132 3991,21121 4077,21109 4162,21098 4248,21088 4334,21079 4419,21069 4505,21053 4591,21038 4676,21022 4762,21007 4848,20994 4933,20983 5019,20968 5105,20947 5190,20925 5276,20902 5362,20877 5447,20857 5533,20842 5619,20820 5704,20792 5790,20763 5876,20735 5961,20707 6047,20679 6133,20661 6218,20637 6304,20603 6390,20568 6475,20533 6561,20499 6647,20471 6732,20451 6818,20418 6904,20380 6989,20334 7075,20288 7161,20247 7246,20209 7332,20180 7418,20126 7504,20064 7589,19995 7675,19923 7761,19852 7846,19804 7932,19781 8018,19730 8103,19660 8189,19588 8275,19521 8360,19454 8446,19404 8532,19369 8617,19310 8703,19237 8789,19166 8874,19100 8960,19031 9046,18990 9131,18960 9217,18905 9303,18836 9388,18772 9474,18712 9560,18655 9645,18615 9731,18588 9817,18558 9902,18523 9988,18469 10074,18411 10159,18354 10245,18317 10331,18291 10416,18239 10502,18186 10588,18136 10673,18090 10759,18046 10845,18014 10930,17991 11016,17947 11102,17905 11187,17864 11273,17827 11359,17790 11444,17766 11530,17749 11616,17713 11701,17674 11787,17644 11872,17617 11957,17607 12043,17593 12129,17574 12214,17541 12300,17507 12386,17476 12471,17448 12557,17440 12643,17418 12728,17396 12814,17362 12900,17322 12985,17287 13071,17252 13157,17221 13243,17199 13328,17185 13414,17159 13500,17128 13585,17103 13671,17079 13757,17056 13842,17041 13928,17030 14014,17011 14099,16989 14185,16969 14271,16950 14356,16931 14442,16918 14528,16907 14613,16886 14699,16864 14785,16843 14870,16824 14956,16805 15042,16792 15127,16783 15213,16764 15299,16744 15384,16725 15470,16707 15556,16689 15641,16675 15727,16665 15813,16645 15898,16624 15984,16605 16070,16587 16155,16570 16241,16557 16327,16547 16412,16528 16498,16508 16584,16487 16669,16467 16755,16448 16841,16431 16926,16419 17012,16395 17098,16372 17183,16344 17269,16317 17355,16293 17440,16273 17526,16258 17612,16230 17697,16200 17783,16169 17869,16139 17954,16110 18040,16086 18126,16070 18211,16035 18297,16003 18383,15966 18468,15930 18554,15895 18640,15864 18725,15843 18811,15799 18897,15755 18983,15712"/>
 <path fill="none" stroke="rgb(0,169,51)" stroke-width="80" stroke-linejoin="round" stroke-dasharray="158,158" d="M 1764,21640 L 1849,21640 1935,21638 2021,21635 2106,21631 2192,21628 2278,21625 2363,21623 2449,21622 2535,21621 2620,21618 2706,21615 2792,21612 2877,21608 2963,21606 3049,21606 3134,21603 3220,21600 3306,21597 3391,21594 3477,21590 3563,21588 3648,21587 3734,21584 3820,21582 3905,21579 3991,21573 4077,21568 4162,21565 4248,21564 4334,21560 4419,21554 4505,21549 4591,21549 4676,21539 4762,21535 4848,21534 4933,21528 5019,21520 5105,21511 5190,21501 5276,21489 5362,21480 5447,21479 5533,21467 5619,21452 5704,21436 5790,21418 5876,21398 5961,21386 6047,21379 6133,21358 6218,21332 6304,21303 6390,21272 6475,21241 6561,21220 6647,21214 6732,21170 6818,21120 6904,21065 6989,21013 7075,20956 7161,20920 7246,20896 7332,20849 7418,20769 7504,20690 7589,20616 7675,20541 7761,20496 7846,20483 7932,20408 8018,20321 8103,20244 8189,20177 8275,20094 8360,20045 8446,20029 8532,19960 8617,19866 8703,19788 8789,19712 8874,19634 8960,19589 9046,19567 9131,19505 9217,19419 9303,19346 9388,19276 9474,19211 9560,19176 9645,19161 9731,19106 9817,19038 9902,18976 9988,18912 10074,18841 10159,18801 10245,18790 10331,18735 10416,18657 10502,18592 10588,18532 10673,18471 10759,18446 10845,18436 10930,18395 11016,18341 11102,18303 11187,18262 11273,18228 11359,18209 11444,18205 11530,18180 11616,18145 11701,18113 11787,18098 11872,18093 11957,18084 12043,18077 12129,18071 12214,18043 12300,18009 12386,17988 12471,17983 12557,17976 12643,17973 12728,17953 12814,17927 12900,17907 12985,17890 13071,17875 13157,17868 13243,17866 13328,17853 13414,17839 13500,17828 13585,17818 13671,17807 13757,17802 13842,17801 13928,17790 14014,17779 14099,17769 14185,17761 14271,17749 14356,17744 14442,17742 14528,17727 14613,17710 14699,17699 14785,17688 14870,17674 14956,17667 15042,17665 15127,17648 15213,17629 15299,17615 15384,17598 15470,17580 15556,17570 15641,17567 15727,17545 15813,17521 15898,17503 15984,17482 16070,17463 16155,17453 16241,17450 16327,17429 16412,17403 16498,17378 16584,17357 16669,17328 16755,17317 16841,17313 16926,17275 17012,17240 17098,17206 17183,17170 17269,17137 17355,17116 17440,17109 17526,17059 17612,17012 17697,16989 17783,16946 17869,16887 17954,16859 18040,16849 18126,16790 18211,16722 18297,16667 18383,16606 18468,16544 18554,16504 18640,16491 18725,16400 18811,16314 18897,16232 18983,16153"/>
 <text class="TextShape" transform="rotate(-90 1858 23331)"><tspan class="TextParagraph" font-family="Liberation Sans, sans-serif" font-size="282px" font-weight="400"><tspan class="TextPosition" x="1858" y="23331"><tspan fill="rgb(0,0,0)" stroke="none">29.08.20</tspan></tspan></tspan></text>
 <text class="TextShape" transform="rotate(-90 2457 23331)"><tspan class="TextParagraph" font-family="Liberation Sans, sans-serif" font-size="282px" font-weight="400"><tspan class="TextPosition" x="2457" y="23331"><tspan fill="rgb(0,0,0)" stroke="none">05.09.20</tspan></tspan></tspan></text>
 <text class="TextShape" transform="rotate(-90 3057 23331)"><tspan class="TextParagraph" font-family="Liberation Sans, sans-serif" font-size="282px" font-weight="400"><tspan class="TextPosition" x="3057" y="23331"><tspan fill="rgb(0,0,0)" stroke="none">12.09.20</tspan></tspan></tspan></text>
 <text class="TextShape" transform="rotate(-90 3657 23331)"><tspan class="TextParagraph" font-family="Liberation Sans, sans-serif" font-size="282px" font-weight="400"><tspan class="TextPosition" x="3657" y="23331"><tspan fill="rgb(0,0,0)" stroke="none">19.09.20</tspan></tspan></tspan></text>
 <text class="TextShape" transform="rotate(-90 4256 23331)"><tspan class="TextParagraph" font-family="Liberation Sans, sans-serif" font-size="282px" font-weight="400"><tspan class="TextPosition" x="4256" y="23331"><tspan fill="rgb(0,0,0)" stroke="none">26.09.20</tspan></tspan></tspan></text>
 <text class="TextShape" transform="rotate(-90 4856 23331)"><tspan class="TextParagraph" font-family="Liberation Sans, sans-serif" font-size="282px" font-weight="400"><tspan class="TextPosition" x="4856" y="23331"><tspan fill="rgb(0,0,0)" stroke="none">03.10.20</tspan></tspan></tspan></text>
 <text class="TextShape" transform="rotate(-90 5456 23331)"><tspan class="TextParagraph" font-family="Liberation Sans, sans-serif" font-size="282px" font-weight="400"><tspan class="TextPosition" x="5456" y="23331"><tspan fill="rgb(0,0,0)" stroke="none">10.10.20</tspan></tspan></tspan></text>
 <text class="TextShape" transform="rotate(-90 6055 23331)"><tspan class="TextParagraph" font-family="Liberation Sans, sans-serif" font-size="282px" font-weight="400"><tspan class="TextPosition" x="6055" y="23331"><tspan fill="rgb(0,0,0)" stroke="none">17.10.20</tspan></tspan></tspan></text>
 <text class="TextShape" transform="rotate(-90 6655 23331)"><tspan class="TextParagraph" font-family="Liberation Sans, sans-serif" font-size="282px" font-weight="400"><tspan class="TextPosition" x="6655" y="23331"><tspan fill="rgb(0,0,0)" stroke="none">24.10.20</tspan></tspan></tspan></text>
 <text class="TextShape" transform="rotate(-90 7255 23331)"><tspan class="TextParagraph" font-family="Liberation Sans, sans-serif" font-size="282px" font-weight="400"><tspan class="TextPosition" x="7255" y="23331"><tspan fill="rgb(0,0,0)" stroke="none">31.10.20</tspan></tspan></tspan></text>
 <text class="TextShape" transform="rotate(-90 7855 23331)"><tspan class="TextParagraph" font-family="Liberation Sans, sans-serif" font-size="282px" font-weight="400"><tspan class="TextPosition" x="7855" y="23331"><tspan fill="rgb(0,0,0)" stroke="none">07.11.20</tspan></tspan></tspan></text>
 <text class="TextShape" transform="rotate(-90 8454 23331)"><tspan class="TextParagraph" font-family="Liberation Sans, sans-serif" font-size="282px" font-weight="400"><tspan class="TextPosition" x="8454" y="23331"><tspan fill="rgb(0,0,0)" stroke="none">14.11.20</tspan></tspan></tspan></text>
 <text class="TextShape" transform="rotate(-90 9054 23331)"><tspan class="TextParagraph" font-family="Liberation Sans, sans-serif" font-size="282px" font-weight="400"><tspan class="TextPosition" x="9054" y="23331"><tspan fill="rgb(0,0,0)" stroke="none">21.11.20</tspan></tspan></tspan></text>
 <text class="TextShape" transform="rotate(-90 9654 23331)"><tspan class="TextParagraph" font-family="Liberation Sans, sans-serif" font-size="282px" font-weight="400"><tspan class="TextPosition" x="9654" y="23331"><tspan fill="rgb(0,0,0)" stroke="none">28.11.20</tspan></tspan></tspan></text>
 <text class="TextShape" transform="rotate(-90 10253 23331)"><tspan class="TextParagraph" font-family="Liberation Sans, sans-serif" font-size="282px" font-weight="400"><tspan class="TextPosition" x="10253" y="23331"><tspan fill="rgb(0,0,0)" stroke="none">05.12.20</tspan></tspan></tspan></text>
 <text class="TextShape" transform="rotate(-90 10853 23331)"><tspan class="TextParagraph" font-family="Liberation Sans, sans-serif" font-size="282px" font-weight="400"><tspan class="TextPosition" x="10853" y="23331"><tspan fill="rgb(0,0,0)" stroke="none">12.12.20</tspan></tspan></tspan></text>
 <text class="TextShape" transform="rotate(-90 11453 23331)"><tspan class="TextParagraph" font-family="Liberation Sans, sans-serif" font-size="282px" font-weight="400"><tspan class="TextPosition" x="11453" y="23331"><tspan fill="rgb(0,0,0)" stroke="none">19.12.20</tspan></tspan></tspan></text>
 <text class="TextShape" transform="rotate(-90 12051 23331)"><tspan class="TextParagraph" font-family="Liberation Sans, sans-serif" font-size="282px" font-weight="400"><tspan class="TextPosition" x="12051" y="23331"><tspan fill="rgb(0,0,0)" stroke="none">26.12.20</tspan></tspan></tspan></text>
 <text class="TextShape" transform="rotate(-90 12651 23331)"><tspan class="TextParagraph" font-family="Liberation Sans, sans-serif" font-size="282px" font-weight="400"><tspan class="TextPosition" x="12651" y="23331"><tspan fill="rgb(0,0,0)" stroke="none">02.01.21</tspan></tspan></tspan></text>
 <text class="TextShape" transform="rotate(-90 13251 23331)"><tspan class="TextParagraph" font-family="Liberation Sans, sans-serif" font-size="282px" font-weight="400"><tspan class="TextPosition" x="13251" y="23331"><tspan fill="rgb(0,0,0)" stroke="none">09.01.21</tspan></tspan></tspan></text>
 <text class="TextShape" transform="rotate(-90 13851 23331)"><tspan class="TextParagraph" font-family="Liberation Sans, sans-serif" font-size="282px" font-weight="400"><tspan class="TextPosition" x="13851" y="23331"><tspan fill="rgb(0,0,0)" stroke="none">16.01.21</tspan></tspan></tspan></text>
 <text class="TextShape" transform="rotate(-90 14450 23331)"><tspan class="TextParagraph" font-family="Liberation Sans, sans-serif" font-size="282px" font-weight="400"><tspan class="TextPosition" x="14450" y="23331"><tspan fill="rgb(0,0,0)" stroke="none">23.01.21</tspan></tspan></tspan></text>
 <text class="TextShape" transform="rotate(-90 15050 23331)"><tspan class="TextParagraph" font-family="Liberation Sans, sans-serif" font-size="282px" font-weight="400"><tspan class="TextPosition" x="15050" y="23331"><tspan fill="rgb(0,0,0)" stroke="none">30.01.21</tspan></tspan></tspan></text>
 <text class="TextShape" transform="rotate(-90 15650 23331)"><tspan class="TextParagraph" font-family="Liberation Sans, sans-serif" font-size="282px" font-weight="400"><tspan class="TextPosition" x="15650" y="23331"><tspan fill="rgb(0,0,0)" stroke="none">06.02.21</tspan></tspan></tspan></text>
 <text class="TextShape" transform="rotate(-90 16249 23331)"><tspan class="TextParagraph" font-family="Liberation Sans, sans-serif" font-size="282px" font-weight="400"><tspan class="TextPosition" x="16249" y="23331"><tspan fill="rgb(0,0,0)" stroke="none">13.02.21</tspan></tspan></tspan></text>
 <text class="TextShape" transform="rotate(-90 16849 23331)"><tspan class="TextParagraph" font-family="Liberation Sans, sans-serif" font-size="282px" font-weight="400"><tspan class="TextPosition" x="16849" y="23331"><tspan fill="rgb(0,0,0)" stroke="none">20.02.21</tspan></tspan></tspan></text>
 <text class="TextShape" transform="rotate(-90 17449 23331)"><tspan class="TextParagraph" font-family="Liberation Sans, sans-serif" font-size="282px" font-weight="400"><tspan class="TextPosition" x="17449" y="23331"><tspan fill="rgb(0,0,0)" stroke="none">27.02.21</tspan></tspan></tspan></text>
 <text class="TextShape" transform="rotate(-90 18048 23331)"><tspan class="TextParagraph" font-family="Liberation Sans, sans-serif" font-size="282px" font-weight="400"><tspan class="TextPosition" x="18048" y="23331"><tspan fill="rgb(0,0,0)" stroke="none">06.03.21</tspan></tspan></tspan></text>
 <text class="TextShape" transform="rotate(-90 18648 23331)"><tspan class="TextParagraph" font-family="Liberation Sans, sans-serif" font-size="282px" font-weight="400"><tspan class="TextPosition" x="18648" y="23331"><tspan fill="rgb(0,0,0)" stroke="none">13.03.21</tspan></tspan></tspan></text>
 <text class="TextShape"><tspan class="TextParagraph" font-family="Liberation Sans, sans-serif" font-size="388px" font-weight="400"><tspan class="TextPosition" x="1292" y="22091"><tspan fill="rgb(0,0,0)" stroke="none">0</tspan></tspan></tspan></text>
 <text class="TextShape"><tspan class="TextParagraph" font-family="Liberation Sans, sans-serif" font-size="388px" font-weight="400"><tspan class="TextPosition" x="403" y="15273"><tspan fill="rgb(0,0,0)" stroke="none">50000</tspan></tspan></tspan></text>
 <text class="TextShape"><tspan class="TextParagraph" font-family="Liberation Sans, sans-serif" font-size="388px" font-weight="400"><tspan class="TextPosition" x="180" y="8455"><tspan fill="rgb(0,0,0)" stroke="none">100000</tspan></tspan></tspan></text>
 <text class="TextShape"><tspan class="TextParagraph" font-family="Liberation Sans, sans-serif" font-size="388px" font-weight="400"><tspan class="TextPosition" x="180" y="1637"><tspan fill="rgb(0,0,0)" stroke="none">150000</tspan></tspan></tspan></text>
 <text class="TextShape"><tspan class="TextParagraph" font-family="Liberation Sans, sans-serif" font-size="494px" font-weight="700"><tspan class="TextPosition" x="1923" y="603"><tspan fill="rgb(0,0,0)" stroke="none">5 nejpromoenjch zem svta, prmr EU a vbr zem vchodn Evropy</tspan></tspan></tspan><tspan class="TextParagraph" font-family="Liberation Sans, sans-serif" font-size="494px" font-weight="700"><tspan class="TextPosition" x="2426" y="1164"><tspan fill="rgb(0,0,0)" stroke="none">poet infikovanch na milin obyvatel (bez zem pod 50 tisc obyvatel)</tspan></tspan></tspan></text>
 <path fill="none" stroke="rgb(197,0,11)" stroke-width="80" stroke-linejoin="round" stroke-dasharray="158,158" d="M 19313,2859 L 20913,2859"/>
 <path fill="none" stroke="rgb(112,110,12)" stroke-width="80" stroke-linejoin="round" stroke-dasharray="80,40" d="M 19313,4465 L 20913,4465"/>
 <path fill="none" stroke="rgb(255,191,0)" stroke-width="80" stroke-linejoin="round" d="M 19313,6071 L 20913,6071"/>
 <path fill="none" stroke="rgb(131,202,255)" stroke-width="80" stroke-linejoin="round" stroke-dasharray="158,158" d="M 19313,7677 L 20913,7677"/>
 <path fill="none" stroke="rgb(89,131,176)" stroke-width="80" stroke-linejoin="round" stroke-dasharray="158,158" d="M 19313,9283 L 20913,9283"/>
 <path fill="none" stroke="rgb(0,0,255)" stroke-width="80" stroke-linejoin="round" stroke-dasharray="158,158" d="M 19313,10889 L 20913,10889"/>
 <path fill="none" stroke="rgb(131,202,255)" stroke-width="80" stroke-linejoin="round" stroke-dasharray="80,40" d="M 19313,12494 L 20913,12494"/>
 <path fill="none" stroke="rgb(255,128,0)" stroke-width="80" stroke-linejoin="round" stroke-dasharray="158,158" d="M 19313,14100 L 20913,14100"/>
 <path fill="none" stroke="rgb(0,0,255)" stroke-width="80" stroke-linejoin="round" stroke-dasharray="51,127,51,127,254,127,254,127,254,127" d="M 19313,15706 L 20913,15706"/>
 <path fill="none" stroke="rgb(0,169,51)" stroke-width="80" stroke-linejoin="round" stroke-dasharray="80,40" d="M 19313,17312 L 20913,17312"/>
 <path fill="none" stroke="rgb(255,0,0)" stroke-width="80" stroke-linejoin="round" stroke-dasharray="158,158" d="M 19313,18918 L 20913,18918"/>
 <path fill="none" stroke="rgb(0,169,51)" stroke-width="80" stroke-linejoin="round" stroke-dasharray="158,158" d="M 19313,20524 L 20913,20524"/>
 <text class="TextShape"><tspan class="TextParagraph" font-family="Liberation Sans, sans-serif" font-size="353px" font-weight="400"><tspan class="TextPosition" x="21013" y="2981"><tspan fill="rgb(0,0,0)" stroke="none">Andorra</tspan></tspan></tspan></text>
 <text class="TextShape"><tspan class="TextParagraph" font-family="Liberation Sans, sans-serif" font-size="353px" font-weight="400"><tspan class="TextPosition" x="21013" y="4587"><tspan fill="rgb(0,0,0)" stroke="none">ern Hora</tspan></tspan></tspan></text>
 <text class="TextShape"><tspan class="TextParagraph" font-family="Liberation Sans, sans-serif" font-size="353px" font-weight="400"><tspan class="TextPosition" x="21013" y="6193"><tspan fill="rgb(0,0,0)" stroke="none">esko</tspan></tspan></tspan></text>
 <text class="TextShape"><tspan class="TextParagraph" font-family="Liberation Sans, sans-serif" font-size="353px" font-weight="400"><tspan class="TextPosition" x="21013" y="7799"><tspan fill="rgb(0,0,0)" stroke="none">Slovinsko</tspan></tspan></tspan></text>
 <text class="TextShape"><tspan class="TextParagraph" font-family="Liberation Sans, sans-serif" font-size="353px" font-weight="400"><tspan class="TextPosition" x="21013" y="9405"><tspan fill="rgb(0,0,0)" stroke="none">Izrael</tspan></tspan></tspan></text>
 <text class="TextShape"><tspan class="TextParagraph" font-family="Liberation Sans, sans-serif" font-size="353px" font-weight="400"><tspan class="TextPosition" x="21013" y="11011"><tspan fill="rgb(0,0,0)" stroke="none">Slovensko</tspan></tspan></tspan></text>
 <text class="TextShape"><tspan class="TextParagraph" font-family="Liberation Sans, sans-serif" font-size="353px" font-weight="400"><tspan class="TextPosition" x="21013" y="12616"><tspan fill="rgb(0,0,0)" stroke="none">Chorvatsko</tspan></tspan></tspan></text>
 <text class="TextShape"><tspan class="TextParagraph" font-family="Liberation Sans, sans-serif" font-size="353px" font-weight="400"><tspan class="TextPosition" x="21013" y="14222"><tspan fill="rgb(0,0,0)" stroke="none">Maarsko</tspan></tspan></tspan></text>
 <text class="TextShape"><tspan class="TextParagraph" font-family="Liberation Sans, sans-serif" font-size="353px" font-weight="400"><tspan class="TextPosition" x="21013" y="15828"><tspan fill="rgb(0,0,0)" stroke="none">EU</tspan></tspan></tspan></text>
 <text class="TextShape"><tspan class="TextParagraph" font-family="Liberation Sans, sans-serif" font-size="353px" font-weight="400"><tspan class="TextPosition" x="21013" y="17434"><tspan fill="rgb(0,0,0)" stroke="none">Polsko</tspan></tspan></tspan></text>
 <text class="TextShape"><tspan class="TextParagraph" font-family="Liberation Sans, sans-serif" font-size="353px" font-weight="400"><tspan class="TextPosition" x="21013" y="19040"><tspan fill="rgb(0,0,0)" stroke="none">Rumunsko</tspan></tspan></tspan></text>
 <text class="TextShape"><tspan class="TextParagraph" font-family="Liberation Sans, sans-serif" font-size="353px" font-weight="400"><tspan class="TextPosition" x="21013" y="20646"><tspan fill="rgb(0,0,0)" stroke="none">Bulharsko</tspan></tspan></tspan></text>
</svg>